<svg xmlns="http://www.w3.org/2000/svg" version="1.1" width="592.5px" height="1200px">
  <polygon id="3" class="bin" points="-179.245095458,487.332401822 -179.712222311,487.920223391 -181.842284445,488.570543702 -195.669292434,488.498926298 -195.762572683,488.499075977 -199.315785816,488.528883574 -241.475705896,488.891438908 -289.425807439,489.345264829 -293.472479562,491.066370058 -295.11712445,495.144715657 -294.025635503,611.802078294 -292.25818025,615.891773087 -292.033778049,615.977706612 -290.27458179,617.370008957 -289.625039512,619.51741952 -290.002637017,657.065265791 -288.570634859,660.929491667 -286.666331192,661.935500107 -285.043588757,663.615414449 -284.729908293,665.92993595 -292.773904841,709.642338833 -292.852496639,710.194377602 -294.848030567,729.914917015 -294.800353152,731.668002771 -291.984716923,749.660967408 -291.491838688,751.351049132 -284.053002328,768.359506563 -283.390039104,769.541689622 -273.910744081,783.10754975 -272.990134624,784.173084827 -248.053127272,807.665228973 -247.699505498,808.048124 -238.849605557,819.079206658 -232.126530925,821.429190177 -229.375044663,820.807709516 -218.17363901,818.271627735 -217.931103773,818.225054102 -217.665013837,818.18299022 -217.656521914,818.181657779 -214.860342319,817.746200923 -198.190605505,815.149048785 -197.364302249,814.967618328 -188.721489991,812.503659569 -187.911472845,812.216879528 -162.470695867,801.375962162 -161.678471037,800.97610225 -151.902306388,795.221424704 -149.369581482,794.756471299 -147.134117449,796.034586193 -146.2500005,798.453101097 -146.2500005,813.590199186 -147.327778721,816.221117422 -149.94159024,817.339744257 -177.138968871,817.763423908 -181.175753284,819.510004209 -182.794597368,823.59968818 -177.410760201,1163.07859802 -178.477059167,1165.75775292 -181.129896088,1166.88793908 -192.220054297,1166.97782441 -196.255439482,1168.67884035 -197.921329324,1172.72885268 -197.903216332,1203.74780925 -199.000791184,1206.40087512 -201.653215693,1207.499999 -446.2499995,1207.499999 -448.901649929,1206.40164943 -449.9999995,1203.749999 -449.9999995,3.75 -448.901649929,1.09834957055 -446.2499995,0.0 -170.395892693,0.0 -167.355895418,1.55434142612 -166.83600145,4.92884449438 -176.982927281,35.5706743323 -176.988445977,35.5872108658 -186.853301582,64.9195920203 -186.901934544,65.0698919632 -191.521428916,79.9270582721 -191.566853155,80.0638246243 -195.134144296,90.1521508098 -195.245500027,93.684424978 -194.359496917,95.0214678865 -194.138945372,98.7850604192 -196.182350114,102.826239589 -197.196389456,104.070428492 -202.814928891,108.533499158 -217.488314328,142.505117971 -218.049080295,145.343435135 -217.573992056,172.317865898 -215.746643786,176.415935592 -211.528111865,177.944780036 -160.675079655,175.188723843 -160.040559127,175.208146379 -157.947989285,175.45058785 -156.769507752,175.788902115 -150.885396801,178.586197246 -148.758479633,181.660748825 -146.263020309,211.529401763 -146.2500005,211.841618121 -146.2500005,481.235234937 -147.33015451,483.868564082 -149.948359107,484.984879342 -174.618697227,485.324647726 -179.245095458,487.332401822 " moovel_rot="0" moovel_centroid="-320.32672961534735,592.4158876312038"/>
  <polygon id="309309707" class="tile" points="49.430692305,1201.0 95.7833409507,1230.98687322 58.5529292669,1289.63335831 56.7783711951,1294.60273419 51.3308723412,1292.92414732 50.393986119,1298.84114202 50.1467970833,1301.44956553 50.4091062821,1304.67397796 51.0578373026,1308.17224285 52.1988099825,1311.87758325 54.0951369908,1315.10903024 59.1459239472,1312.59325155 64.2306888413,1318.3010511 95.7901616685,1339.2269092 67.8789161228,1382.72604408 65.6914628353,1386.13959733 48.3768616389,1375.70195873 31.1611851815,1363.54639915 17.7722958129,1350.55722244 9.13355931528,1339.63077342 2.18974571936,1322.16402672 1.0,1296.98047472 2.20427014045,1284.14856042 5.23617150299,1271.23415001 9.42263038754,1263.00437749 12.8111067187,1257.18580403 26.3603610996,1237.20982308 49.430692305,1201.0 " moovel_rot="-57.1" moovel_centroid="45.72220191858496,1294.7914118879123"/>
  <polygon id="443524678" class="tile" points="113.962708073,1201.90207949 96.7901616685,1201.0 96.8363359297,1235.25404907 112.286447941,1240.91767488 113.962708073,1201.90207949 " moovel_rot="77.9" moovel_centroid="105.164301609,1219.5052235626324"/>
  <polygon id="282431895" class="tile" points="114.962708073,1201.04064148 114.968731327,1242.98338623 119.193096373,1242.97451302 119.191775936,1244.63974578 124.815048555,1244.62185818 124.816289087,1242.8357492 129.084281199,1242.83011243 129.075434707,1201.0 126.995971265,1201.00686047 122.006707782,1201.01537471 119.009180752,1201.02932105 114.962708073,1201.04064148 " moovel_rot="-19.4" moovel_centroid="122.018411713,1222.315168118927"/>
  <polygon id="165161719" class="tile" points="130.084281199,1201.0 176.006403257,1210.14139884 155.335231028,1287.66297848 130.164397995,1279.24328089 130.144741444,1264.3562577 130.084281199,1201.0 " moovel_rot="-42.2" moovel_centroid="148.545931691,1240.8665222591164"/>
  <polygon id="365541715" class="tile" points="201.236280673,1229.06958452 177.462166953,1229.94058261 177.006403257,1201.45296398 201.271780404,1201.0 201.236280673,1229.06958452 " moovel_rot="7.4" moovel_centroid="189.213260202,1215.3187417697654"/>
  <polygon id="298133559" class="tile" points="211.006670866,1212.04782492 205.786884657,1211.72116717 205.395444866,1209.03264811 202.54375568,1209.12637464 202.539052851,1208.20095714 202.402984365,1207.25321055 202.271780404,1206.36435854 202.273050844,1201.0 203.747642891,1201.00050747 211.058547759,1201.1443654 211.103775463,1202.63278227 210.987842938,1206.99496189 211.006670866,1212.04782492 " moovel_rot="-31.6" moovel_centroid="206.968947779,1206.006003557583"/>
  <polygon id="437714017" class="tile" points="212.103775463,1201.30724895 221.699035029,1201.0 221.667740756,1230.78221093 216.589600007,1230.67931258 218.506995899,1233.99872724 216.291911597,1235.62826949 212.898133785,1230.48977599 212.103775463,1201.30724895 " moovel_rot="-4.3" moovel_centroid="217.046003069,1216.5458543170703"/>
  <polygon id="232491728" class="tile" points="222.699035029,1201.0 239.622311818,1201.15140372 239.380221398,1241.89230204 222.73690987,1241.75201785 222.699035029,1201.0 " moovel_rot="63.8" moovel_centroid="231.109463319,1221.392282302839"/>
  <polygon id="288767465" class="tile" points="240.892420631,1201.0 240.648097946,1217.39956796 240.622311818,1236.20186129 263.236048609,1236.24699344 263.233503457,1201.09593952 240.892420631,1201.0 " moovel_rot="61.2" moovel_centroid="251.963532107,1218.6704825673064"/>
  <polygon id="299906179" class="tile" points="264.970668568,1206.55044828 273.243149448,1201.0 272.279609848,1204.16023038 271.08489513,1212.37927918 271.35603874,1221.36934746 273.231066491,1229.75773941 268.23384819,1235.53966329 266.941659824,1230.98347581 265.48113741,1225.27616752 264.671679326,1219.60343589 264.501020797,1214.70648658 264.236048609,1211.46964483 264.970668568,1206.55044828 " moovel_rot="-12.6" moovel_centroid="268.581085551,1218.1079416529337"/>
  <polygon id="241844811" class="tile" points="307.449139341,1201.04704691 274.243149448,1201.0 274.269609987,1240.54639747 307.475584052,1240.59350068 307.449139341,1201.04704691 " moovel_rot="15.7" moovel_centroid="290.859374647,1220.7967346950545"/>
  <polygon id="170821854" class="tile" points="345.219364168,1201.0 316.833568772,1202.96360308 318.398047063,1235.68570797 321.460796732,1235.45925451 321.267979972,1248.01220646 321.94598961,1270.42402975 308.475584052,1270.5320525 322.251040326,1306.929499 348.801104192,1307.11712675 348.805656197,1269.27333379 347.748041412,1236.50859669 345.219364168,1201.0 " moovel_rot="-14.8" moovel_centroid="332.867182413,1255.9007510525755"/>
  <polygon id="241819963" class="tile" points="457.796113433,1201.0 457.829819533,1310.59698872 449.572898087,1311.56787804 448.96508141,1353.52331367 422.8858989,1349.30086495 431.832536691,1293.15296493 349.805656197,1279.87679719 352.86844734,1255.62386764 352.039637403,1244.13202576 405.330257485,1216.65724927 430.715202068,1203.69848654 457.796113433,1201.0 " moovel_rot="2.7" moovel_centroid="417.038466138,1263.5064494337362"/>
  <polygon id="338075889" class="tile" points="458.843543924,1203.48410379 458.829819533,1259.54507343 470.587808833,1259.65270535 494.821557911,1234.74880037 491.045424993,1230.88272133 493.196734605,1228.56426859 489.75576585,1225.30951313 490.741611109,1224.25192601 467.217493972,1201.0 465.210871827,1203.18638204 458.843543924,1203.48410379 " moovel_rot="21.3" moovel_centroid="472.24418159,1231.5882438269166"/>
  <polygon id="214712411" class="tile" points="495.873933262,1204.21882009 501.616013946,1203.92180723 501.573011445,1201.20349052 510.658664626,1201.0 511.280216424,1223.25741774 511.320891271,1234.24646031 512.897575101,1234.21049878 512.965164267,1235.46758527 519.117697653,1235.42088506 514.333211927,1246.43507448 495.821557911,1246.84885998 495.873933262,1204.21882009 " moovel_rot="-23.9" moovel_centroid="504.482245479,1225.8769343340368"/>
  <polygon id="182759612" class="tile" points="525.968731379,1203.85992945 529.471053544,1201.0 529.468994511,1233.91241052 520.350747773,1223.22851011 520.117697653,1217.88564847 520.370884673,1208.78495183 525.968731379,1203.85992945 " moovel_rot="-87.8" moovel_centroid="525.465068888,1216.7949606153736"/>
  <polygon id="229076145" class="tile" points="530.489709495,1225.09094378 530.471053544,1201.0 546.732284586,1201.04332594 546.743234155,1225.13854143 530.489709495,1225.09094378 " moovel_rot="61.0" moovel_centroid="538.609311276,1213.067251412119"/>
  <polygon id="158041949" class="tile" points="0.283307883516,1391.10601923 5.22692956477,1391.20320004 5.18292449825,1386.16071885 39.7621170804,1386.13959733 39.6609669747,1390.62205245 51.1912234571,1390.80207572 51.2045528658,1456.6219116 43.6094018938,1456.54787192 43.3887336111,1463.40800976 41.8727660861,1466.49953913 31.9932593415,1472.54940922 27.9485150591,1464.47238365 22.9925444406,1466.78708548 0.0,1417.57688517 0.283307883516,1391.10601923 " moovel_rot="-0.5" moovel_centroid="28.030202063593286,1422.93082929"/>
  <polygon id="250172273" class="tile" points="80.3726446019,1464.92143636 76.3832977068,1465.45523204 76.1665439796,1466.19260673 75.5885570461,1467.6114921 74.8298109839,1468.94018942 73.9031619672,1470.16499706 73.3868819365,1470.72891644 72.2425549565,1471.74777993 70.9709295459,1472.6057933 69.6065017743,1473.29356296 68.8935444957,1473.57441415 67.4131433181,1473.98434126 55.7868283479,1469.75643978 54.9169903951,1468.49379278 54.5437434824,1467.82867418 53.9442697911,1466.41929921 53.5193120718,1464.94710088 53.2963661807,1463.4283936 53.2045528658,1395.41772336 57.0283228528,1395.6260668 57.1132014632,1394.87869933 57.3328842806,1394.14732728 57.9029819572,1392.73228976 58.2592527421,1392.06063068 58.6538395287,1391.40743992 59.5726009108,1390.18647933 60.0888834639,1389.62255872 61.2253241224,1388.60754165 62.486136123,1387.74737107 63.8505712612,1387.05959782 64.5556404302,1386.78259392 66.0252299355,1386.37050876 66.7739661317,1386.24312593 67.5323780729,1386.15561148 69.0583727116,1386.13959733 70.5628616476,1386.31985365 72.0379527437,1386.70022967 72.7515695607,1386.96153856 73.4482578916,1387.2682603 74.7692090048,1388.01363444 75.9762379961,1388.92604095 76.531255669,1389.44305398 77.5434055479,1390.57684076 77.9897177128,1391.19146054 78.3916053595,1391.83517886 79.0641432626,1393.19405553 79.5571995145,1394.62560872 79.7322530398,1395.36509893 79.9306270415,1396.87349695 84.1067588944,1397.10319471 80.3726446019,1464.92143636 " moovel_rot="64.0" moovel_centroid="67.6457828723,1429.36590048"/>
  <polygon id="236572126" class="tile" points="98.4917546902,1393.82506665 93.2049089827,1396.59992011 92.5869686276,1398.55491422 97.251919882,1405.61199928 95.5659403849,1470.09196998 92.0339838948,1470.00315192 90.7541618049,1471.1643464 91.0829429246,1472.79368524 98.9865531642,1476.93630953 98.7527141221,1483.77857716 85.1067588944,1476.14099147 87.4455429319,1393.78752738 98.9584271494,1386.13959733 98.4917546902,1393.82506665 " moovel_rot="9.3" moovel_centroid="91.5350377826,1436.15375848"/>
  <polygon id="220792589" class="tile" points="99.9865531642,1413.59457754 100.006897879,1387.31749719 102.156414449,1386.80564484 106.803200385,1386.13959733 107.706370319,1400.59021182 107.301069606,1414.11870667 99.9865531642,1413.59457754 " moovel_rot="-89.4" moovel_centroid="103.728577345,1400.41217015"/>
  <polygon id="219802845" class="tile" points="119.559124923,1387.04214995 108.706370319,1386.13959733 108.718346871,1410.61434036 118.126451941,1411.50104762 118.241885663,1403.4711642 119.444157494,1403.60834496 119.559124923,1387.04214995 " moovel_rot="9.0" moovel_centroid="113.914501339,1398.47864519"/>
  <polygon id="284911284" class="tile" points="120.854591036,1386.13959733 120.571380216,1391.59210965 120.561879304,1400.40490709 120.57336886,1402.45233651 120.559124923,1413.03993348 126.951203025,1413.07647026 126.948724999,1389.33514341 122.141023509,1386.81655435 120.854591036,1386.13959733 " moovel_rot="0.8" moovel_centroid="123.704309419,1400.40754115"/>
  <polygon id="270200277" class="tile" points="146.157040916,1387.01788222 136.530190822,1386.55156547 127.951203025,1386.13959733 127.975708224,1409.46090485 136.723128406,1410.29422608 140.672072445,1410.67769249 140.858292887,1403.30201705 145.91622359,1403.45767598 146.157040916,1387.01788222 " moovel_rot="25.6" moovel_centroid="136.403375638,1397.54347538"/>
  <polygon id="224013222" class="tile" points="191.733247069,1590.55133853 239.543345949,1606.97746323 240.863363459,1602.3740151 246.158342017,1604.34396762 258.819892603,1567.24346198 227.376150308,1558.22711397 186.838488003,1521.93653281 228.871361483,1463.38722112 230.458879989,1439.09940949 238.145816936,1428.53256124 242.458759524,1428.58806047 258.671035646,1404.27619052 227.819039017,1386.13959733 195.308167683,1483.18238567 189.072693402,1490.14929581 177.896454312,1497.53382521 166.852167386,1498.95977713 147.7517879,1498.09652668 147.157040916,1516.44330173 201.009612789,1552.7024935 197.650281627,1562.82876538 200.2168421,1563.57166309 191.733247069,1590.55133853 " moovel_rot="-74.0" moovel_centroid="211.296309943,1509.91693198"/>
  <polygon id="410311317" class="tile" points="262.946590887,1387.51953721 267.357162351,1390.12841575 267.353864871,1414.52676834 259.819892603,1409.65382323 261.376935446,1386.13959733 262.946590887,1387.51953721 " moovel_rot="5.9" moovel_centroid="263.959351375,1400.64446912"/>
  <polygon id="364566686" class="tile" points="274.483258587,1418.92247685 279.893458296,1421.33281157 293.147792043,1421.6385309 293.182664475,1386.13959733 291.361367865,1386.52600801 287.139133309,1387.42322374 268.357162351,1391.14939445 274.483258587,1418.92247685 " moovel_rot="62.2" moovel_centroid="282.631329081,1403.9899964"/>
  <polygon id="252080159" class="tile" points="294.182664475,1386.13959733 308.96234967,1386.14419628 308.988368408,1437.85241052 294.209219844,1437.85446916 294.182664475,1386.13959733 " moovel_rot="-94.7" moovel_centroid="301.585491957,1411.99751283"/>
  <polygon id="184221846" class="tile" points="319.443591033,1386.26466385 315.167261895,1386.25433755 312.881425421,1386.13959733 310.002906822,1386.13988539 309.988368408,1405.25151346 311.981563467,1405.24877257 319.43122681,1405.24158101 319.443591033,1386.26466385 " moovel_rot="-81.6" moovel_centroid="314.708911897,1395.72730746"/>
  <polygon id="164842325" class="tile" points="353.285166786,1386.13959733 320.443591033,1386.19526493 320.459310721,1435.01647061 352.00720422,1434.6183636 351.598462387,1406.21766809 353.582074556,1406.13906768 353.285166786,1386.13959733 " moovel_rot="60.5" moovel_centroid="336.455177899,1410.21518472"/>
  <polygon id="294357877" class="tile" points="354.641413936,1386.51334447 373.11561106,1386.13959733 374.217660754,1432.6965201 372.201958204,1441.77069419 370.839463904,1447.12025226 354.582074556,1444.56120782 356.138308345,1433.30052696 359.710890844,1433.69397776 354.641413936,1386.51334447 " moovel_rot="-48.8" moovel_centroid="365.123769197,1415.59163071"/>
  <polygon id="298133580" class="tile" points="375.217660754,1386.3951611 375.385598312,1411.1085238 381.133116843,1410.89687501 387.157836249,1410.67700728 387.174674299,1386.13959733 375.217660754,1386.3951611 " moovel_rot="-43.4" moovel_centroid="381.226565934,1398.5481789"/>
  <polygon id="261779549" class="tile" points="388.174674299,1420.95871901 388.321629769,1386.14232589 404.75935021,1386.13959733 404.812492496,1421.02956378 388.174674299,1420.95871901 " moovel_rot="-60.8" moovel_centroid="396.519882273,1403.60271675"/>
  <polygon id="276516890" class="tile" points="420.381507229,1390.89874189 420.376632094,1388.01582944 420.378832217,1386.15778674 427.210609309,1386.15613075 450.413003046,1386.13959733 450.435107556,1414.5451874 450.292415906,1414.78850843 450.312563411,1446.74880908 405.846831989,1446.78246151 405.847173157,1440.39060471 405.836625037,1431.17471903 405.812492496,1390.91024174 420.381507229,1390.89874189 " moovel_rot="-21.0" moovel_centroid="428.487667842,1417.16879945"/>
  <polygon id="90145470" class="tile" points="451.523380072,1390.89618042 451.435107556,1392.70826389 453.066983302,1464.87869958 453.202470554,1469.64590409 497.398957407,1468.18269134 497.509262697,1386.48595487 492.237172456,1386.13959733 457.104697601,1387.20163855 456.92693076,1391.21997258 454.142541126,1391.3335592 451.523380072,1390.89618042 " moovel_rot="-91.1" moovel_centroid="474.957045001,1427.74214566"/>
  <polygon id="310077333" class="tile" points="531.967574775,1386.13959733 498.509262697,1409.48655794 522.127484858,1441.96486907 531.944849596,1434.58767485 531.967574775,1386.13959733 " moovel_rot="61.9" moovel_centroid="520.042002846,1414.41259469"/>
  <polygon id="238383868" class="tile" points="122.448110814,1765.30198475 120.789343365,1765.46338626 119.664138025,1765.75047359 119.399048899,1766.45873933 119.447062009,1767.19128443 119.103100345,1768.23686084 118.426472596,1768.645667 117.580785137,1768.64622588 99.7076360933,1768.91218777 98.4114387419,1768.67359069 98.1499409471,1767.41337711 98.0691151086,1762.28642499 97.8465869095,1760.96590544 96.9387730915,1759.80114882 95.8073631451,1759.01250515 94.4833515689,1758.63179327 59.476321464,1759.34725356 58.4473483142,1760.17034002 57.9439633336,1761.21123872 58.058241827,1762.96572108 47.051530353,1763.23051476 47.0452314947,1761.42032814 46.4038657073,1760.23763259 45.050765134,1759.75892057 29.3871725611,1760.12796719 25.5285227012,1761.32423011 22.707691304,1763.41935956 20.8057893611,1766.10960736 19.7579645734,1769.43060074 19.8895975225,1784.59926201 20.0696650889,1788.68303089 21.9198846616,1791.65749985 24.9153505672,1793.65002428 27.9042465471,1794.21061927 28.1836841829,1806.09769313 0.0,1806.83211212 1.90306094326,1793.03683329 4.7350323692,1793.13728833 4.97786932513,1706.70004019 3.73281416707,1706.71645876 4.06580676064,1668.97378435 0.0876428838819,1606.97746323 4.54080321752,1607.48361346 5.44622526392,1614.2671971 9.19955618754,1613.77288832 11.7149799138,1654.00259301 13.2565078642,1653.84954028 13.8160268191,1668.7553305 10.3422458455,1669.14673661 10.4088171624,1681.96417981 24.7814047895,1681.54736977 35.0792516313,1674.32606228 39.5968763351,1672.0423286 45.220090897,1670.88980927 84.6856982544,1669.57510572 85.9332726326,1669.28683447 86.6599548139,1668.06446009 86.9891174365,1663.84291433 86.0558274943,1646.40712923 96.1376304679,1645.94044916 98.1784458853,1647.6551226 102.304066247,1647.89882463 119.533445467,1646.90576175 119.584241264,1651.78423974 119.814475792,1655.78892154 115.037819234,1656.17335256 109.378503862,1657.28692063 104.743653252,1659.76260306 102.466637662,1662.18132153 101.157726795,1664.96552655 112.756795357,1664.63317117 112.90730719,1667.34469487 112.98516679,1669.07125548 108.757392158,1669.41918983 100.365055479,1669.76734809 100.782914241,1681.83629272 101.991483615,1683.82272366 104.176943476,1684.9477413 119.086796483,1683.97336106 121.586846767,1747.77174956 120.915604337,1747.80944206 121.382813775,1753.92356775 121.584094063,1756.53389689 119.564936665,1756.65086352 119.797141217,1761.32377811 122.246970132,1761.21172887 122.360356142,1763.55012903 122.448110814,1765.30198475 " moovel_rot="-35.6" moovel_centroid="58.70493718826354,1716.75639148"/>
  <polygon id="201146424" class="tile" points="146.639081062,1687.85977442 147.862747561,1687.86536221 146.310436927,1676.0037686 148.845220377,1613.29208269 147.840764028,1607.01309806 146.215206596,1607.00979562 125.604540054,1606.97891196 124.448110814,1606.97746323 124.452834652,1619.02970641 141.405611557,1619.04639126 141.420005298,1671.44405571 136.910769597,1671.43409285 136.918523607,1687.846307 146.639081062,1687.85977442 " moovel_rot="11.0" moovel_centroid="140.964343407,1639.89090652"/>
  <polygon id="266149371" class="tile" points="166.847589849,1606.97746323 166.853266146,1630.98038238 158.831377025,1631.001979 151.35784079,1631.01994709 151.365438642,1623.3152754 149.845220377,1623.31698251 149.857256254,1614.90613356 151.329642816,1614.90089186 151.337667584,1608.13087672 151.333078907,1607.03767259 152.595064766,1607.03895819 155.570583033,1607.00131089 159.584449463,1606.98889531 166.847589849,1606.97746323 " moovel_rot="-29.1" moovel_centroid="158.82197354,1618.99941887"/>
  <polygon id="201146430" class="tile" points="187.702795262,1607.0655767 169.503450699,1606.97746323 167.853266146,1607.03763685 167.87614054,1655.64416643 187.720746343,1655.66227037 187.702795262,1607.0655767 " moovel_rot="10.8" moovel_centroid="177.786123335,1631.33577712"/>
  <polygon id="241844809" class="tile" points="219.783303382,1607.03156506 219.821052955,1657.22511283 188.755771453,1657.17924901 188.720746343,1606.97746323 219.783303382,1607.03156506 " moovel_rot="18.3" moovel_centroid="204.269793745,1632.10371454"/>
  <polygon id="396940655" class="tile" points="273.313404973,1646.78492342 265.741760249,1667.2930554 235.71321273,1707.88005761 235.11785929,1690.8846684 220.890655276,1690.77536449 227.934657747,1671.06713893 247.365970163,1646.01868023 220.821052955,1617.05315777 237.812219632,1606.97746323 245.061461075,1621.89686927 252.418318721,1630.82382702 263.168056928,1632.79258408 273.313404973,1646.78492342 " moovel_rot="11.3" moovel_centroid="246.136961796,1656.74888019"/>
  <polygon id="275067503" class="tile" points="286.00283941,1606.97746323 324.695299233,1607.36932682 324.884034118,1640.39359602 331.383530018,1640.39550861 331.318173845,1653.35364296 327.936904214,1653.44287473 328.309369653,1660.35758307 340.145535368,1660.72067955 339.705961886,1694.1467378 328.616014976,1693.28840895 328.789355867,1690.94969366 322.138409294,1690.36701565 321.916207143,1692.60507821 274.415177949,1688.07569411 274.313404973,1671.75860066 276.556138627,1671.81831906 276.487244645,1665.03352874 274.349116016,1664.81137794 274.33021613,1639.13304193 280.098318681,1639.38356622 282.343063157,1639.41382311 285.707503454,1639.60066187 286.00283941,1606.97746323 " moovel_rot="30.8" moovel_centroid="305.832809115,1653.97012113"/>
  <polygon id="266149315" class="tile" points="359.148746645,1606.97746323 359.911774463,1606.97764293 359.903463239,1631.16215684 341.145535368,1631.15284148 341.15647322,1606.98690613 359.148746645,1606.97746323 " moovel_rot="-28.9" moovel_centroid="350.530545751,1619.07003061"/>
  <polygon id="295447865" class="tile" points="360.946039431,1606.97746323 360.911774463,1657.09015439 373.587391902,1656.43139268 373.343886463,1612.60359114 368.125317552,1607.05824807 364.312519719,1607.01255946 360.946039431,1606.97746323 " moovel_rot="23.3" moovel_centroid="367.069804393,1632.54648871"/>
  <polygon id="292693069" class="tile" points="378.389874479,1607.75497917 398.464907118,1606.97746323 396.622922898,1625.43366199 401.286438989,1625.48438564 401.711148504,1625.53873464 401.240695489,1629.56607545 406.195902572,1630.14206999 406.51337139,1631.06748116 405.859674556,1643.3120124 405.739436697,1645.41858846 405.588340058,1647.35543883 405.550726044,1649.568795 405.161202816,1655.11833958 374.625278614,1654.5332407 374.876718695,1652.43021045 375.26377695,1649.20756967 375.543830946,1646.72999318 375.684295974,1645.50596099 376.127740992,1640.234 376.538837284,1635.34452213 375.627138296,1630.19148927 374.587391902,1624.3379814 377.822015253,1623.62901992 377.964230211,1617.71087722 378.04666693,1614.6649823 378.112947619,1613.55153908 378.239700059,1611.1958149 378.389874479,1607.75497917 " moovel_rot="25.2" moovel_centroid="389.710684646,1633.41568933"/>
  <polygon id="259448705" class="tile" points="441.661112322,1618.46574031 464.729550949,1618.63028142 464.693833397,1621.10540717 469.215293838,1621.17175413 469.131127345,1700.88374766 432.308839061,1701.28529753 432.191258563,1695.94935836 427.897279358,1696.04739004 428.261679602,1642.7076262 407.51337139,1642.34534619 408.187810081,1606.97746323 441.561607609,1608.06623439 441.661112322,1618.46574031 " moovel_rot="48.5" moovel_centroid="442.996300333,1652.25689469"/>
  <polygon id="185632362" class="tile" points="470.373731756,1664.78770864 476.721932759,1664.80635201 492.980448452,1664.85680116 492.94537807,1606.97746323 487.588688214,1607.14611384 487.873823636,1635.80111948 470.215293838,1635.90759504 470.373731756,1664.78770864 " moovel_rot="39.8" moovel_centroid="483.262944431,1644.92293115"/>
  <polygon id="374346585" class="tile" points="522.41201104,1606.97746323 558.962505957,1614.38171189 555.850526072,1629.77837742 568.538034671,1632.30497166 571.881543128,1616.69342072 577.21917161,1618.01928477 546.737294872,1768.32818404 577.411623925,1775.41419093 575.27154196,1786.02068727 531.61296425,1777.01408832 502.788804125,1760.6102307 505.995409394,1754.99794591 493.980448452,1748.33386601 522.41201104,1606.97746323 " moovel_rot="-86.9" moovel_centroid="535.162794591,1695.1392075"/>
  <polygon id="285497482" class="tile" points="0.0,1806.83211212 0.0560313245282,1813.74387393 0.0350260656327,1823.68285774 2.5441126965,1826.14210795 11.9411348278,1826.20347892 11.899150438,1833.00858165 2.8240855068,1832.95269949 0.0196545559913,1835.82116055 0.00344191230834,1844.52956268 6.76682332903,1850.96108471 26.0224958561,1830.30276945 17.1919865677,1821.56243478 20.2657287693,1818.57571525 10.2951973284,1808.44748831 7.49999745525,1808.62986705 5.52862958685,1808.44243424 4.71216380708,1808.3658187 0.0,1806.83211212 " moovel_rot="-67.1" moovel_centroid="10.108507634805852,1827.99050161"/>
  <polygon id="265735267" class="tile" points="28.3111342993,1806.83211212 28.0413313325,1814.48192325 28.0224958561,1830.98456396 34.4508297998,1831.09556954 34.4426631171,1807.97231036 34.3572956674,1806.83970631 28.3111342993,1806.83211212 " moovel_rot="-15.5" moovel_centroid="31.262833237,1819.01499469"/>
  <polygon id="224707884" class="tile" points="40.1664687686,1809.45002242 40.3318935905,1919.4721279 35.4508297998,1917.7142699 36.1445393415,1806.83211212 40.1664687686,1809.45002242 " moovel_rot="-94.2" moovel_centroid="38.0148981127,1865.13511468"/>
  <polygon id="244091358" class="tile" points="41.3318935905,1806.87754088 41.336989611,1850.67591187 71.3514897944,1850.63175795 71.3377605567,1806.83211212 41.3318935905,1806.87754088 " moovel_rot="-81.6" moovel_centroid="56.3396071408,1828.75538056"/>
  <polygon id="218403206" class="tile" points="72.3514897944,1806.83211212 72.3737781193,1861.91824058 79.9573278511,1861.9135532 79.8198744806,1874.06810637 105.766713304,1873.75766232 106.114790245,1841.30503837 81.6883216539,1840.71692449 82.2023079086,1807.16097313 72.3514897944,1806.83211212 " moovel_rot="-82.8" moovel_centroid="87.0758093683,1848.55827839"/>
  <polygon id="201109394" class="tile" points="129.028979019,1806.83891214 123.520762299,1806.83211212 123.524625761,1808.89602879 107.114790245,1808.87987335 107.199516821,1918.50226124 124.839653925,1918.4874542 124.846088912,1876.35059068 147.024970949,1876.36130017 147.018293549,1865.4815751 147.010827224,1858.10279359 124.51711839,1857.25443862 124.788133485,1819.60702959 128.951028659,1815.04979474 129.028979019,1806.83891214 " moovel_rot="10.9" moovel_centroid="119.614458039,1863.29715439"/>
  <polygon id="371137436" class="tile" points="148.024970949,1840.5570566 148.025889735,1806.83211212 164.97649076,1807.76231308 165.862006871,1817.17385645 167.76753148,1830.71389432 167.864753337,1834.07357398 162.782965866,1834.22370222 162.852319905,1836.64569173 161.730994754,1836.67854153 161.838240529,1840.1693316 161.143166907,1840.70015186 148.024970949,1840.5570566 " moovel_rot="-25.2" moovel_centroid="156.877709278,1823.6552064"/>
  <polygon id="329334867" class="tile" points="168.944152233,1820.43131752 179.235079253,1820.6863367 179.548284598,1807.94836716 179.970011882,1807.95501692 179.998690705,1806.83211212 182.48059891,1806.89836045 182.464210593,1827.17162124 182.47245939,1829.20627504 169.879076974,1829.02339953 170.010865826,1823.71169155 168.864753337,1823.68750038 168.944152233,1820.43131752 " moovel_rot="24.2" moovel_centroid="177.35849043,1821.79133435"/>
  <polygon id="395678165" class="tile" points="183.627810551,1855.94109846 206.907731164,1856.01677401 206.957126701,1806.83211212 183.48059891,1807.00704288 183.549472458,1826.50270281 183.568847025,1836.14828295 183.585080334,1841.37981779 183.609344067,1853.26573992 183.627810551,1855.94109846 " moovel_rot="-29.2" moovel_centroid="195.254107419,1831.41700693"/>
  <polygon id="59379572" class="tile" points="207.957126701,1872.39254059 244.623611978,1881.74299149 259.005370706,1822.39965952 207.983866514,1806.83211212 207.957126701,1872.39254059 " moovel_rot="31.3" moovel_centroid="229.971222437,1844.07511324"/>
  <polygon id="309138552" class="tile" points="269.453782856,1829.33391366 260.005370706,1829.27459287 260.024487984,1809.12980659 262.967896649,1809.02273197 264.026829902,1808.98658258 264.032750558,1806.83211212 266.941811234,1806.92486759 267.950377144,1806.95111541 267.812896316,1823.22320345 269.552260793,1823.20039974 269.453782856,1829.33391366 " moovel_rot="48.5" moovel_centroid="264.309513944,1819.0332132"/>
  <polygon id="413791016" class="tile" points="299.686026881,1975.11473284 352.60300278,1977.07514392 352.679701083,1850.5170602 329.869498883,1849.89898718 330.492138878,1806.90636786 311.302898285,1806.83211212 270.552260793,1898.10645601 299.868625069,1911.77272477 299.686026881,1975.11473284 " moovel_rot="-80.1" moovel_centroid="320.327243572,1898.1769643"/>
  <polygon id="301013827" class="tile" points="354.908257323,1806.83211212 353.679701083,1806.90675818 358.874230993,1846.84080764 353.68369645,1850.45270232 356.046266738,1856.97976381 366.166577588,1850.65713101 364.892242926,1847.55271275 367.868897327,1846.67677544 364.086511327,1819.7918607 363.407278795,1815.41793054 363.095456884,1813.68129473 362.628729682,1812.47596445 361.714683186,1811.69500038 359.823605496,1810.8426758 357.289848903,1809.5506352 356.015239084,1808.37031922 354.908257323,1806.83211212 " moovel_rot="-91.3" moovel_centroid="360.560313543,1832.66422624"/>
  <polygon id="247141745" class="tile" points="407.702641886,1806.83211212 408.190584501,1839.74056982 383.552319678,1842.77501656 382.371506458,1855.66733625 368.877829605,1854.74917423 368.868897327,1811.6985449 407.702641886,1806.83211212 " moovel_rot="-70.2" moovel_centroid="387.050359875,1828.38922847"/>
  <polygon id="369626908" class="tile" points="431.743679531,1806.83211212 427.506685136,1806.83355551 424.975185637,1808.49593042 409.190584501,1814.37957853 416.281824196,1836.86710233 426.971030636,1836.95400103 426.974442509,1829.65499447 427.595231461,1829.65284476 427.597319511,1828.31279894 430.550561999,1828.31012821 430.546388152,1826.41172321 431.744553383,1826.41286333 431.744374641,1812.82054797 431.743679531,1806.83211212 " moovel_rot="-30.8" moovel_centroid="421.896401797,1821.63008112"/>
  <polygon id="375129181" class="tile" points="455.227893676,1835.73359194 432.744553383,1832.65022793 437.372023122,1806.83211212 455.193539786,1809.6073084 455.227893676,1835.73359194 " moovel_rot="19.6" moovel_centroid="445.066951214,1821.69959269"/>
  <polygon id="327399716" class="tile" points="474.348142648,1808.05827135 462.98300788,1806.83211212 462.489333307,1812.53033744 457.996099747,1812.11942122 456.227893676,1825.67262903 462.149267603,1826.76200179 462.391923868,1841.24172302 467.747338113,1841.88913557 465.97257517,1856.60396204 458.564871369,1856.10489141 456.239979816,1865.6346812 474.810540378,1867.82275482 475.676916086,1852.02616881 475.035568539,1821.00584994 474.348142648,1808.05827135 " moovel_rot="68.1" moovel_centroid="467.777459783,1836.5337198"/>
  <polygon id="182759614" class="tile" points="476.676916086,1857.36886561 482.963442068,1857.38275851 482.959222957,1861.25953619 501.626733253,1861.30316451 501.627517794,1856.33949435 506.55192764,1856.3541081 506.580269018,1806.9012773 476.714847061,1806.83211212 476.713390005,1809.1656194 476.676916086,1857.36886561 " moovel_rot="12.6" moovel_centroid="491.619131297,1833.30106562"/>
  <polygon id="248672190" class="tile" points="507.580269018,1851.32626925 508.475873445,1819.64855808 512.116380691,1819.69173447 516.804477069,1811.34698798 530.901189889,1806.83211212 530.948643869,1852.08708485 507.580269018,1851.32626925 " moovel_rot="-78.0" moovel_centroid="520.229834316,1831.83657143"/>
  <polygon id="185193614" class="tile" points="554.281585138,1835.31477723 531.951475217,1835.30466311 531.948643869,1806.83222776 539.081450101,1806.83211212 539.081684701,1817.00392666 554.278989146,1817.01414859 554.281585138,1835.31477723 " moovel_rot="5.5" moovel_centroid="541.969557264,1824.01174524"/>
  <polygon id="335987175" class="tile" points="555.281585138,1806.83211212 555.288573181,1825.89346658 567.15762936,1825.89977358 567.150641841,1806.83841464 555.281585138,1806.83211212 " moovel_rot="6.7" moovel_centroid="561.219607612,1816.36594166"/>
  <polygon id="252081019" class="tile" points="583.632872139,1831.42273001 568.15762936,1831.43309159 568.17396163,1806.83308148 569.538568298,1806.83442284 573.996690577,1806.83211212 573.995767374,1810.33696235 571.541210938,1810.33480729 571.540906429,1817.45279179 583.647983142,1817.44555561 583.632872139,1831.42273001 " moovel_rot="-81.5" moovel_centroid="574.96797397,1822.22803488"/>
  <polygon id="422898042" class="tile" points="0.0,1977.13314241 0.0139441212639,1981.01194467 0.0432628210634,1985.77049531 0.0652051113546,1988.2080811 0.0770447999239,1990.39172009 0.0769132219255,1992.87796661 0.0658267132938,1995.17588785 0.0544559475034,1997.49568285 0.0440194481984,1999.53720066 0.0304574707523,2001.81933049 0.0186001114547,2003.97021732 0.0245605442673,2004.9557088 4.69660205897,2004.91877526 6.87285377886,2004.92317911 11.7935402893,2004.93302782 11.7931364402,2004.55146432 11.7955131579,1999.82929407 11.7966191182,1997.68086443 11.7881088551,1995.44739607 11.7901491165,1993.02068925 11.7918229507,1990.82851179 11.7919561129,1988.34226598 11.8040981904,1986.1695056 11.8052854629,1983.80841998 11.8061884604,1981.46920812 11.8040479889,1979.15795263 11.8043003865,1977.07514392 7.05479595903,1977.0916072 4.89176844824,1977.10053635 0.0,1977.13314241 " moovel_rot="-65.6" moovel_centroid="5.9216018452556805,1991.00668432"/>
  <polygon id="393413918" class="tile" points="28.7192850823,1977.07514392 28.3297799535,2002.92754908 25.0490457077,2010.26811059 13.8061884604,2017.5610457 17.0618955554,2039.00957574 25.0024323924,2029.0479918 25.0454581961,2037.59269137 33.421445193,2037.65702722 32.3536254166,2050.12774984 32.0687687585,2053.48192424 41.5615397714,2055.22559519 44.9686864834,2058.00153573 46.9528099969,2063.5659318 46.4174698129,2085.88009259 76.4309294261,2087.70198518 77.9236946691,2059.36237247 111.411536129,2060.11063475 111.449622355,1981.58473248 28.7192850823,1977.07514392 " moovel_rot="1.1" moovel_centroid="67.5507179458,2024.82357409"/>
  <polygon id="201149331" class="tile" points="128.574819286,2004.72470991 134.016348665,2004.70133293 133.456376662,1992.57281573 115.100135977,1991.5108127 115.505541803,1984.36481164 133.859855114,1985.43536709 134.033360057,1977.37400102 113.238887085,1977.07514392 112.449622355,1989.84362313 114.981735519,2004.34054233 128.574819286,2004.72470991 " moovel_rot="12.7" moovel_centroid="123.253916905,1991.34484455"/>
  <polygon id="392694297" class="tile" points="135.033360057,2059.31411829 164.315075099,2017.47319434 168.67673741,2010.88932675 192.741961378,1977.07514392 209.024620567,1988.57833081 211.799114317,1990.46470425 214.212543991,1992.09999274 231.650106126,2004.47447667 198.09547429,2052.14393163 196.839530211,2051.35803567 190.6800843,2050.13083035 183.403714022,2053.02166704 176.211168991,2063.69080454 177.357048862,2067.40788265 231.596370423,2105.89189499 228.220374732,2110.560876 226.481031347,2112.96776645 224.575456864,2115.60448449 221.054965808,2113.0098974 217.78203189,2117.48561944 201.740924831,2106.20343506 194.139228876,2117.07511478 173.997280547,2102.99165001 181.656053433,2092.08971053 135.033360057,2059.31411829 " moovel_rot="44.0" moovel_centroid="186.665855533,2045.54585972"/>
  <polygon id="293064521" class="tile" points="248.749390096,1980.74650251 245.355645974,1980.85315713 244.987556954,1977.07514392 235.664794134,1977.29407021 232.650315165,2014.3616064 232.650106126,2089.24651784 252.66254879,2087.95097388 248.749390096,1980.74650251 " moovel_rot="73.5" moovel_centroid="241.867016022,2036.67446471"/>
  <polygon id="201148566" class="tile" points="253.66254879,1978.22066957 261.395647238,1977.50513565 269.669773894,1977.07514392 269.479299962,2101.96159498 258.73244088,2101.03953337 253.66254879,1978.22066957 " moovel_rot="7.7" moovel_centroid="262.822696069,2035.43940437"/>
  <polygon id="380968302" class="tile" points="270.669773894,2031.67141032 316.629483104,2031.72418689 316.673099183,1977.12792186 270.713414406,1977.07514392 270.669773894,2031.67141032 " moovel_rot="-93.2" moovel_centroid="293.671442547,2004.39966817"/>
  <polygon id="346383187" class="tile" points="335.816832077,1979.22368578 335.821659126,2000.30213552 328.675101621,2000.08716148 317.673099183,1990.83932815 322.854172206,1984.49252509 319.973120627,1981.81984388 323.556382523,1977.61049663 325.874653392,1977.07514392 335.816832077,1979.22368578 " moovel_rot="65.5" moovel_centroid="328.524265132,1988.52044954"/>
  <polygon id="380627725" class="tile" points="362.893122368,2020.35363981 336.828603227,2030.06364357 341.748876323,2002.6192951 345.557321034,2000.97656956 336.821659126,1979.38156546 342.875410865,1977.07514392 352.018753327,1999.02580423 359.360122897,1997.14334606 365.361416155,2010.43224993 362.893122368,2020.35363981 " moovel_rot="41.1" moovel_centroid="349.669471906,2008.06674298"/>
  <polygon id="252080574" class="tile" points="382.932621727,2025.0573151 366.361416155,2025.07124688 366.366198957,1977.08008787 383.042243128,1977.07514392 383.040200202,1997.32005029 378.912974125,1997.32151668 378.915568476,1999.44680228 377.991485635,1999.44802447 377.99029462,2003.05449649 378.861393384,2003.05543563 378.861601572,2004.49003872 380.638741006,2004.49491259 380.632599702,2006.61944929 382.938437466,2006.61601924 382.936313223,2011.67040383 382.932621727,2025.0573151 " moovel_rot="-85.1" moovel_centroid="374.371793127,2001.00906046"/>
  <polygon id="287650135" class="tile" points="384.09186036,2055.13774224 410.508553196,2052.88286008 413.573742075,2026.64358158 410.225624028,1977.07514392 384.042243128,1977.98617129 384.09186036,2055.13774224 " moovel_rot="70.5" moovel_centroid="397.980996202,2016.00084393"/>
  <polygon id="377030564" class="tile" points="414.586761723,1977.68063083 438.173857908,1977.07514392 438.368544983,2001.59441646 422.497707193,2002.02999285 422.780748286,2015.66946478 414.573742075,2015.73258394 414.586761723,1977.68063083 " moovel_rot="-82.3" moovel_centroid="425.18741684,1992.72156506"/>
  <polygon id="244967358" class="tile" points="439.49388487,1979.49451083 439.684750509,2014.32509146 443.84291504,2014.41507753 443.627605581,2018.37896094 439.694576422,2018.40459208 439.529398109,2031.8294076 443.925318768,2031.9126303 443.938158543,2035.93040586 439.368544983,2035.96182257 439.744531617,2062.40792421 447.642773352,2062.49503406 466.868745621,2062.70602298 474.665287996,2062.79479314 474.422427145,2024.96218765 470.514106905,2024.83181283 470.395372133,2020.415225 474.699508696,2020.60829061 474.571606241,1979.91505247 466.180183636,1977.94629955 456.641129333,1977.07514392 447.803570611,1977.92318358 439.49388487,1979.49451083 " moovel_rot="9.0" moovel_centroid="457.17491725,2020.27006184"/>
  <polygon id="239584448" class="tile" points="475.699508696,1982.6941652 475.840011798,1985.01787995 477.509632309,2012.79493463 484.099554954,2012.60400492 484.175113112,2063.60735179 495.217747654,2065.10051727 495.207140029,2072.38753879 492.07684821,2073.06164191 490.539703657,2075.97960058 478.374327612,2076.42865511 478.425294772,2083.34650559 475.882833529,2084.46814381 477.70820195,2088.11997542 479.284575659,2092.91598184 537.004551407,2094.83310432 537.650677486,2093.95965048 538.650171899,2093.44212695 539.70289907,2093.5312327 539.715826613,1978.04386242 476.748235929,1977.07514392 475.699508696,1982.6941652 " moovel_rot="-22.9" moovel_centroid="510.605261138,2034.26361987"/>
  <polygon id="375468792" class="tile" points="540.715826613,2012.9444979 557.105363583,2013.20605776 557.152773187,1977.36327569 540.723299782,1977.07514392 540.861582662,1985.10739764 542.023888021,1986.3612694 542.190550686,1987.69779988 540.883299559,1988.61361326 540.835449581,1990.09840273 545.496479762,1990.30733963 545.743582995,1994.13985909 540.7270894,1994.21025188 540.720556138,1995.45800159 542.416727651,1996.80253854 542.410194391,1998.0502877 540.882211641,1999.0264541 540.715826613,2012.9444979 " moovel_rot="0.3" moovel_centroid="549.255891984,1995.27452888"/>
  <polygon id="412123942" class="tile" points="558.156901296,2005.79763934 558.152773187,1977.14713228 580.457895115,1977.07514392 580.454372019,2005.72126909 558.156901296,2005.79763934 " moovel_rot="-60.2" moovel_centroid="569.305199488,1991.43447805"/>
  <polygon id="232050130" class="tile" points="14.4769613056,2117.48561944 24.6993104339,2117.50773042 24.7373402361,2159.35496292 0.00723120868206,2159.30512299 0.0,2153.75425656 14.3087593172,2153.78050483 17.9520310381,2153.79020429 17.9475349071,2149.57192766 14.5032946905,2149.56369272 14.4769613056,2117.48561944 " moovel_rot="62.4" moovel_centroid="17.69176577083238,2140.98711845"/>
  <polygon id="220792586" class="tile" points="34.8280222118,2117.48561944 34.8607235141,2138.03612299 26.7373402361,2137.39359114 27.456133711,2117.78625314 34.8280222118,2117.48561944 " moovel_rot="61.1" moovel_centroid="30.9975066879,2127.84177046"/>
  <polygon id="373229508" class="tile" points="37.3369812068,2117.48561944 35.8607235141,2121.33706808 35.864916474,2150.51932278 48.1236748924,2155.05915523 50.0596085183,2150.73523851 53.8678304845,2152.3149654 62.0999961482,2131.28227466 58.1627338026,2129.75818627 59.7785124298,2125.70445153 37.3369812068,2117.48561944 " moovel_rot="69.4" moovel_centroid="46.7429995779,2136.23822486"/>
  <polygon id="251716641" class="tile" points="64.3317768058,2159.26925252 78.4699600304,2174.8279703 78.5198420906,2117.48561944 67.4836425224,2127.87747297 63.0999961482,2123.22123131 64.3317768058,2159.26925252 " moovel_rot="-38.6" moovel_centroid="71.8253176221,2145.04687294"/>
  <polygon id="443296702" class="tile" points="79.5409504263,2119.51629213 91.392153397,2117.48561944 96.5350186499,2136.31387809 98.0123840267,2180.67685537 95.1158391485,2206.6639404 92.279079367,2229.96661499 79.5198420906,2227.05921962 82.6315997155,2203.02150729 85.1920647552,2178.85958813 82.6103943186,2139.10195761 79.5409504263,2119.51629213 " moovel_rot="-6.3" moovel_centroid="89.3439062255,2173.01754039"/>
  <polygon id="443719774" class="tile" points="99.0181630818,2147.53055619 108.493619572,2147.48916802 108.494319433,2117.48561944 99.0123840267,2117.52107078 99.0181630818,2147.53055619 " moovel_rot="-47.5" moovel_centroid="103.754464411,2132.5048952"/>
  <polygon id="220792590" class="tile" points="115.875434236,2121.58591594 109.537491574,2117.48561944 110.342104129,2127.89700837 110.313293887,2139.39369366 109.494319433,2147.63498966 115.005220481,2153.81279338 116.605285611,2142.48611593 116.220093586,2129.01371285 115.875434236,2121.58591594 " moovel_rot="59.9" moovel_centroid="113.138158285,2135.45331768"/>
  <polygon id="263339341" class="tile" points="117.605285611,2153.5395816 117.639297898,2117.62771874 147.47163941,2117.48561944 147.544583027,2153.38954373 117.605285611,2153.5395816 " moovel_rot="-68.4" moovel_centroid="132.564692951,2135.52132778"/>
  <polygon id="281839230" class="tile" points="149.095167683,2149.44985214 148.544583027,2117.56859679 156.035236744,2117.48561944 155.994986733,2149.19932208 149.095167683,2149.44985214 " moovel_rot="7.6" moovel_centroid="152.41233466,2133.20887564"/>
  <polygon id="285310129" class="tile" points="157.035236744,2168.89675202 157.093221977,2117.90801604 240.408796668,2117.59502916 245.772266558,2117.48561944 249.330404319,2119.44462026 250.284616902,2151.55494603 248.885299738,2189.10988289 247.939115294,2209.12362605 246.182520859,2210.0540251 203.792286129,2208.30771068 203.833932032,2221.30643925 181.383317623,2220.99409522 157.205640846,2221.79102361 157.217637059,2213.15872991 179.918273242,2212.5331013 180.134781146,2168.11219064 157.035236744,2168.89675202 " moovel_rot="-67.3" moovel_centroid="206.087988583,2163.53070505"/>
  <polygon id="412099918" class="tile" points="251.306894759,2117.5349183 265.83918999,2117.48561944 265.823498585,2151.61522627 261.288949059,2151.88599598 251.284616902,2151.65879961 251.306894759,2117.5349183 " moovel_rot="-49.0" moovel_centroid="258.56713982,2134.63930441"/>
  <polygon id="223868481" class="tile" points="277.320690528,2118.03300728 266.966022972,2117.48561944 266.83918999,2144.42624608 277.347201076,2144.46262633 277.320690528,2118.03300728 " moovel_rot="-81.8" moovel_centroid="272.101429919,2131.13388851"/>
  <polygon id="208172694" class="tile" points="283.201698426,2220.14044648 298.30466883,2230.76996832 330.404436554,2235.80007422 330.446469548,2119.23577451 282.535215021,2117.48561944 278.347201076,2211.00488562 283.201698426,2220.14044648 " moovel_rot="-49.3" moovel_centroid="305.942945253,2174.86844147"/>
  <polygon id="306425803" class="tile" points="358.275111414,2162.05658117 356.910931333,2117.77182214 331.510619165,2117.48561944 331.485627193,2137.04196947 331.472831867,2142.85306814 331.460799424,2156.96604326 331.450213587,2160.59710617 331.446469548,2162.91804155 358.275111414,2162.05658117 " moovel_rot="42.2" moovel_centroid="344.484626121,2140.26512473"/>
  <polygon id="442637488" class="tile" points="372.855704065,2184.39596438 391.289871377,2170.0756798 371.370125724,2144.48893126 391.269025614,2129.0370792 382.280292295,2117.48561944 374.363788202,2123.63681939 379.126739333,2129.74861115 359.275111414,2145.16230609 372.69079643,2162.4017454 362.125870869,2170.60900343 372.855704065,2184.39596438 " moovel_rot="-30.6" moovel_centroid="375.870197901,2154.14969056"/>
  <polygon id="283424654" class="tile" points="435.820605551,2228.48632679 392.289871377,2230.30798443 392.431618888,2123.70856283 396.099631119,2123.24378459 396.08730835,2117.68166843 431.519808727,2117.48561944 431.796763357,2121.63368776 435.561908906,2121.81178411 435.820605551,2228.48632679 " moovel_rot="10.6" moovel_centroid="413.993837365,2174.00063861"/>
  <polygon id="288641700" class="tile" points="448.676225607,2117.50066345 460.616686829,2117.48561944 460.572951663,2165.04021567 460.571106806,2173.19694105 458.228286231,2173.22378598 436.887268002,2173.20215519 436.820605551,2141.53164133 448.575727661,2141.58076358 448.613926188,2130.90919331 448.676225607,2117.50066345 " moovel_rot="61.1" moovel_centroid="450.353468946,2149.65245557"/>
  <polygon id="413357499" class="tile" points="461.619323179,2198.95926047 507.404797291,2202.83367872 509.459123538,2178.5956911 509.12625226,2139.62676797 473.780879684,2142.38351635 471.718688793,2133.64235733 470.545273887,2130.00111315 469.479187481,2117.48561944 461.616686829,2119.20700571 463.186173988,2140.83030889 464.932662029,2168.97074493 461.619323179,2198.95926047 " moovel_rot="34.9" moovel_centroid="485.313378658,2168.28664026"/>
  <polygon id="248773493" class="tile" points="533.729465178,2141.78985488 530.530499866,2141.78308282 510.459123538,2141.7769533 510.479526536,2117.48561944 533.745533014,2117.50863027 533.746686729,2122.16155179 533.729465178,2141.78985488 " moovel_rot="60.6" moovel_centroid="522.103374165,2129.63916437"/>
  <polygon id="224658485" class="tile" points="543.730926717,2117.48561944 544.589159494,2154.00872401 534.775102887,2153.96405773 534.746686729,2181.54170649 581.819936178,2179.88562136 580.959535545,2118.35400756 550.657211865,2117.65273729 543.730926717,2117.48561944 " moovel_rot="7.7" moovel_centroid="560.358709924,2151.14685365"/>
  <polygon id="305092841" class="tile" points="18.1810145114,2278.02409346 18.9509631671,2241.53073819 13.9110890932,2241.17489268 14.0182124689,2236.15567344 0.0,2235.80007422 0.0255227699876,2277.94564817 18.1810145114,2278.02409346 " moovel_rot="24.0" moovel_centroid="9.057187109762317,2257.46193009"/>
  <polygon id="232497106" class="tile" points="22.4820914175,2311.58926918 23.5486332012,2316.75505265 25.3157435419,2322.31872148 28.2395829344,2329.64853748 31.9992310593,2336.30650446 34.137563494,2339.82293253 36.8953349592,2341.75993514 46.3935425801,2361.63382328 76.2136543429,2396.2972019 79.2989284327,2398.69948668 83.5147423375,2400.17783521 89.8625423426,2401.7679164 96.4742808258,2401.84688951 103.355515551,2400.14082405 109.291503602,2397.6695684 112.556087951,2394.97136205 114.986274138,2391.23955308 116.636590693,2387.1123911 117.950610863,2382.51948607 111.861116895,2336.71966728 110.228248821,2291.16009869 110.599812453,2277.18757348 112.590926305,2263.03239188 117.94137202,2237.65634158 104.727742743,2235.80007422 102.556213515,2239.63238719 83.9665067365,2258.26834186 79.2868272087,2262.28356001 85.0215585783,2269.02497171 85.938488158,2270.33043304 79.9381542822,2272.35019798 73.8084455634,2274.99188622 63.5657312602,2279.5649767 58.3920940045,2281.08631179 53.1132403567,2281.25777728 49.5108931176,2279.99216423 44.2820157668,2280.88858911 35.3493304104,2285.4768286 27.2151447797,2290.60854086 23.3898981238,2295.94601004 21.0320637079,2301.82187819 20.9509631671,2305.04809398 22.4820914175,2311.58926918 " moovel_rot="-87.0" moovel_centroid="77.8673793413,2325.12288963"/>
</svg>