<svg xmlns="http://www.w3.org/2000/svg" version="1.1" width="592.5px" height="1200px">
  <polygon id="6" class="bin" points="1.875,0.0 -0.77665042945,1.09834957055 -1.875,3.75 -1.875,1203.749999 -0.77665042945,1206.40164943 1.875,1207.499999 298.124999,1207.499999 300.776649429,1206.40164943 301.874999,1203.749999 301.874999,1089.03941495 300.773934844,1086.38505271 298.117324924,1085.2894228 295.465221484,1086.3959166 259.657575288,1122.424073 255.564733909,1124.11847099 251.483682007,1122.39587108 230.104308718,1100.58588154 228.464140273,1096.45604923 230.26271585,1092.39270167 238.965543044,1084.17549655 240.129820386,1081.7389577 239.696715933,1080.2923084 239.896423884,1080.22932307 238.489671482,1075.76892486 239.748604362,1072.80697691 239.895483225,1070.28352085 239.716103325,1069.67265796 241.515640523,1065.9384073 278.634503352,1031.05293375 283.419258286,1029.2996837 284.238433728,1029.42295418 286.259082318,1028.41654883 287.986871051,1026.74845111 289.131987146,1024.09347878 288.047870545,1021.41301984 263.905254934,997.01365438 261.939173019,992.170787378 262.206421962,961.857951264 263.441061813,958.000464975 266.956617933,952.978013779 267.609953032,950.39964164 266.388987169,948.036573295 230.428645454,915.767418817 228.529818358,911.51708374 230.421443882,907.263538691 300.634257433,844.042786133 301.874999,841.256009839 301.874999,840.285124348 300.933353587,837.800039941 298.581321927,836.562991977 285.552552243,834.965701572 280.151631209,830.867151894 270.416902427,807.483861729 270.076314481,806.435877144 264.523145503,783.135333624 264.38835302,782.389533359 250.870435019,673.620506097 250.825149982,673.087165258 248.977086342,632.73219507 248.970004142,632.377885124 249.160885366,599.417190021 251.04716098,595.204318366 255.429502777,593.754696468 291.662312418,597.233734846 294.568506499,596.252513775 295.770070141,593.430279971 294.463076408,590.65529777 269.135829366,568.917293971 266.919146232,562.475524088 272.331342203,535.593336921 272.073267668,533.310901371 264.207033575,515.877154661 261.521364908,513.741688055 232.339683652,507.929648607 228.544854604,505.249533773 227.992140884,500.636698357 239.327982017,463.869157407 239.411842018,463.547012206 244.826766223,438.174997515 247.861276016,433.730481629 248.734614316,433.143435366 249.265074976,430.287845248 248.380343693,429.026411947 247.109483527,424.181917777 250.383939221,396.985990221 251.944088492,393.673894605 255.174796082,391.951520786 293.753163072,385.352942235 296.000258462,384.059115818 296.87071833,381.616632633 295.948366946,379.19326877 293.674189902,377.947659175 276.939855823,375.451433021 273.795159977,374.121315712 264.258102085,366.83763683 262.679494505,365.138930003 259.516372337,360.300093419 259.264854011,359.883893725 255.908371325,353.858060838 255.400050441,352.709605765 253.563324369,347.261668295 253.27769016,346.075261595 252.364738504,339.924145245 252.292776128,339.100949268 251.907892693,324.874982303 251.892878499,324.62622193 249.171771228,295.613772759 249.144785175,295.176667549 248.271634248,265.887204314 248.289188377,265.150540398 250.786892054,232.966515821 250.86923121,232.313183241 256.305253295,201.257446923 256.379737765,200.890927535 263.296840817,171.039125488 263.34982647,170.764132944 267.862697696,141.498532874 267.906417945,140.95233176 268.072743985,116.308303246 268.043010136,115.811025034 264.907380707,91.0952159711 264.894084133,91.0001671961 255.251594939,27.9623575162 255.2249506,27.7700383061 252.184823678,3.28788453114 250.946304238,0.939712380537 248.463406033,0.0 1.875,0.0 " moovel_rot="0" moovel_centroid="130.55306473582763,612.0970767106253"/>
  <polygon id="240742969" class="tile" points="-33.920372563,1201.0 -82.1112778241,1201.58129806 -82.0703179823,1205.08819395 -85.2827336069,1205.12276392 -85.2188061541,1211.62459983 -85.2205944432,1282.87971792 -59.1279379336,1282.85829121 -59.1265611155,1289.63493342 -53.0432233922,1289.63151507 -53.0498722509,1319.09917103 -6.25319701321,1319.05962613 -6.17715290133,1285.67049624 -6.13477557022,1267.30321134 -6.23161630593,1225.24521082 -4.55951781999,1225.24084011 -1.0,1225.22844814 -1.02036721166,1214.28536995 -18.2947169231,1214.32701015 -20.9690667823,1214.78269825 -33.920372563,1201.0 " moovel_rot="8.0" moovel_centroid="-42.95648332680136,1255.9931008078513"/>
  <polygon id="286996651" class="tile" points="-119.737786025,1215.85202585 -119.748105986,1201.0 -92.03012916,1201.83656703 -91.755263174,1208.78119401 -86.2827336069,1209.36062922 -86.2919677977,1221.10295616 -86.2945139673,1225.60333845 -93.4440685134,1225.37405968 -93.7585602686,1231.69389864 -103.577327519,1231.67381617 -103.618880047,1250.56907537 -107.838386321,1250.55802203 -107.8441926,1253.77213241 -112.518862898,1253.43868734 -112.089457847,1216.30755952 -119.737786025,1215.85202585 " moovel_rot="-24.4" moovel_centroid="-103.662723764,1220.2612730079059"/>
  <polygon id="376406583" class="tile" points="-136.617916621,1218.44541909 -120.748105986,1218.06770613 -121.465667573,1201.0 -136.608926471,1201.23510513 -136.617916621,1218.44541909 " moovel_rot="82.7" moovel_centroid="-128.868431458,1209.754412719173"/>
  <polygon id="185169188" class="tile" points="-137.6729372,1201.57278368 -137.617916621,1271.92641237 -144.368591663,1271.8961762 -150.31066021,1271.86541017 -149.734422501,1201.0 -144.707763652,1201.23643416 -137.6729372,1201.57278368 " moovel_rot="1.9" moovel_centroid="-143.842806715,1236.8901324872961"/>
  <polygon id="275739630" class="tile" points="-164.673930847,1207.0465402 -164.664241219,1201.0 -151.31066021,1201.05062534 -151.318132188,1204.33141224 -151.337349671,1224.08499486 -154.33953202,1224.07557194 -154.324867337,1207.08148496 -164.673930847,1207.0465402 " moovel_rot="-69.6" moovel_centroid="-155.993640384,1208.51603722559"/>
  <polygon id="244091354" class="tile" points="-210.860377087,1201.01355409 -165.673930847,1201.0 -165.707829584,1251.84161564 -170.608023131,1252.85742731 -170.617266987,1266.00840931 -210.908318515,1266.02525398 -210.860377087,1201.01355409 " moovel_rot="8.4" moovel_centroid="-188.760186778,1232.9136007242414"/>
  <polygon id="275609077" class="tile" points="-219.05134668,1220.46455944 -218.490391116,1224.39405433 -214.189973667,1223.89437615 -211.908318515,1244.12131951 -214.409951211,1244.50368327 -231.654214702,1247.12682161 -232.357509506,1247.23600594 -233.383309859,1247.38791625 -234.485850331,1247.55999997 -232.827212888,1258.6475798 -234.981805213,1262.14247622 -234.2043766,1266.59694133 -238.133422685,1267.28266964 -237.596832013,1271.37914001 -237.35777773,1273.20873428 -238.286589828,1277.49315708 -240.97683875,1277.86775886 -240.957374606,1282.27144642 -244.653114775,1282.65881139 -243.767234347,1292.74219703 -249.201862413,1293.38558561 -246.701773184,1299.79040152 -251.207230417,1312.60468058 -266.406005451,1311.97570846 -269.290805736,1308.32296693 -270.708415059,1305.10573285 -270.65651947,1300.90655518 -285.411175213,1303.23079002 -285.821699428,1300.16323771 -290.55614631,1299.60638441 -288.434298972,1254.33126076 -290.517401045,1202.94886693 -289.385610678,1201.56481511 -269.677646885,1201.0 -266.338972524,1227.33442476 -219.05134668,1220.46455944 " moovel_rot="-80.1" moovel_centroid="-260.902614352,1255.945513797404"/>
  <polygon id="246729720" class="tile" points="-292.735269578,1201.0 -337.103946913,1209.5517704 -336.285021633,1216.00888218 -341.298284769,1217.00875026 -333.954028158,1250.32170366 -323.723937952,1248.5099764 -316.499409381,1282.91154326 -291.590333697,1277.14546872 -294.575952714,1260.02091127 -292.676523302,1259.84375355 -293.307633093,1251.63065247 -299.421593143,1213.75781257 -292.852721121,1212.51273568 -291.55614631,1206.38786382 -292.735269578,1201.0 " moovel_rot="-75.2" moovel_centroid="-313.116876045,1238.6675196528013"/>
  <polygon id="221148222" class="tile" points="-342.298284769,1241.89236542 -344.970381226,1228.06599604 -351.057980206,1216.46564392 -358.984159263,1207.32555511 -370.833732729,1201.27490018 -384.893592446,1201.0 -391.990404941,1203.83275271 -398.975281354,1207.61220482 -403.716875307,1213.79739057 -407.578594549,1220.78895038 -411.30935306,1231.7571015 -413.551235111,1238.54887437 -413.535758394,1252.88198132 -412.36972415,1261.88860951 -407.365877201,1260.44690051 -405.285838519,1274.47458479 -397.903379345,1283.06783782 -387.098088226,1289.4303138 -376.712155127,1291.54953806 -361.943743555,1287.38230105 -352.710085096,1279.40285801 -345.848961343,1269.15736671 -343.184769633,1258.5632923 -342.298284769,1241.89236542 " moovel_rot="-57.0" moovel_centroid="-377.659907644,1245.7953206238792"/>
  <polygon id="294894246" class="tile" points="-414.589026532,1201.09827518 -434.209355603,1201.0 -436.699803095,1204.93928745 -436.616234417,1210.57102242 -436.891675636,1254.93561855 -437.04726783,1260.19354915 -436.919240743,1263.66175032 -414.551235111,1264.05443326 -414.589026532,1201.09827518 " moovel_rot="64.4" moovel_centroid="-425.627341021,1232.650899369521"/>
  <polygon id="255477256" class="tile" points="-481.636231064,1258.30703128 -481.993609315,1228.75724786 -462.197948776,1202.33607017 -457.836825258,1201.0 -452.501476464,1202.62952781 -448.270552406,1208.26479734 -438.04726783,1225.74811066 -438.098249041,1260.34089547 -481.636231064,1258.30703128 " moovel_rot="26.8" moovel_centroid="-459.230436937,1234.805798478179"/>
  <polygon id="305092842" class="tile" points="-523.289626876,1251.790772 -523.22518125,1204.33590288 -495.992118855,1201.0 -494.428765124,1212.62990884 -483.205632838,1212.48078966 -482.993609315,1246.8857254 -498.495778885,1246.64643479 -498.637118924,1251.79739296 -523.289626876,1251.790772 " moovel_rot="-30.4" moovel_centroid="-504.537880845,1227.5917488972964"/>
  <polygon id="285978121" class="tile" points="-38.6963734668,1362.45639746 -78.0175072627,1361.0085822 -78.6555332808,1390.83406864 -78.4952362234,1427.52500392 -78.4034418711,1465.35028449 -78.6681587515,1485.98169164 -1.99492435958,1488.98113233 0.0,1448.73920378 -6.10297285784,1438.26262118 -6.5088855559,1346.21549972 -8.11636227965,1341.74324857 -6.92090929281,1321.53543435 -33.3952013578,1319.09917103 -38.6963734668,1362.45639746 " moovel_rot="79.9" moovel_centroid="-39.01599409573275,1416.08389867"/>
  <polygon id="184999234" class="tile" points="-95.3833927544,1373.51030415 -95.376086987,1367.399221 -95.3484893478,1319.7633021 -95.3485585522,1319.09917103 -80.6681587515,1319.09967059 -80.6931098025,1361.63463966 -80.7029956577,1373.51078473 -95.3833927544,1373.51030415 " moovel_rot="8.1" moovel_centroid="-88.0242584499,1346.30471364"/>
  <polygon id="179009771" class="tile" points="-96.3833927544,1352.78425586 -120.127190924,1353.93784057 -120.149968088,1319.85949286 -96.3978794077,1319.09917103 -96.3833927544,1352.78425586 " moovel_rot="55.8" moovel_centroid="-108.287597395,1336.4201565"/>
  <polygon id="395180436" class="tile" points="-125.638082882,1319.11740307 -125.635098173,1325.29866629 -121.152086412,1325.28474359 -121.149968088,1319.09917103 -125.638082882,1319.11740307 " moovel_rot="40.2" moovel_centroid="-123.39354953,1322.19940881"/>
  <polygon id="222670213" class="tile" points="-126.638082882,1384.15437089 -136.280076537,1383.72836222 -136.16925388,1319.13766529 -126.677232778,1319.09917103 -126.638082882,1384.15437089 " moovel_rot="-88.8" moovel_centroid="-131.43553296,1351.61483181"/>
  <polygon id="264851939" class="tile" points="-137.303348379,1319.09917103 -137.280076537,1346.13918728 -149.288608017,1345.85360534 -149.306241607,1343.1232611 -155.903149616,1343.16748688 -155.756762514,1319.22081691 -137.303348379,1319.09917103 " moovel_rot="-28.6" moovel_centroid="-146.31326341,1332.12935952"/>
  <polygon id="317411470" class="tile" points="-156.903149616,1405.74485127 -188.290348547,1405.49896913 -187.853905688,1352.85364152 -171.02957712,1352.63669609 -171.395662617,1319.09917103 -157.007226142,1319.3252866 -156.903149616,1405.74485127 " moovel_rot="-78.3" moovel_centroid="-170.605991857,1369.51916274"/>
  <polygon id="162623407" class="tile" points="-223.307078937,1319.09917103 -231.45251335,1335.19354411 -232.798273277,1337.91528443 -222.471107784,1343.40211599 -232.79861428,1364.03994015 -221.390387415,1370.24858008 -202.317807091,1380.63181905 -189.290348547,1349.60952419 -195.782221054,1331.83642058 -223.307078937,1319.09917103 " moovel_rot="47.7" moovel_centroid="-211.156464689,1349.40705558"/>
  <polygon id="185515258" class="tile" points="-235.412807502,1319.09917103 -233.810949333,1319.10223758 -233.79861428,1341.65857679 -251.455991731,1341.692553 -251.465548277,1329.04545856 -244.190513021,1329.03132656 -244.199895099,1319.12308389 -235.412807502,1319.09917103 " moovel_rot="8.7" moovel_centroid="-241.485985299,1331.79050088"/>
  <polygon id="258619246" class="tile" points="-252.465548277,1343.40876445 -264.844588504,1343.45808398 -264.840548432,1319.09917103 -252.567708144,1319.13166893 -252.465548277,1343.40876445 " moovel_rot="-28.9" moovel_centroid="-258.683015858,1331.29191183"/>
  <polygon id="288742502" class="tile" points="-283.691651157,1355.53403729 -265.844588504,1354.43415297 -266.406173541,1319.09917103 -283.67366525,1320.19439922 -283.349233884,1340.45357606 -283.421495525,1343.54579811 -283.640495333,1353.4569815 -283.691651157,1355.53403729 " moovel_rot="-90.2" moovel_centroid="-274.818405641,1337.39953528"/>
  <polygon id="327029578" class="tile" points="-289.971368037,1319.26872038 -284.691651157,1319.09917103 -284.694540058,1333.47187281 -289.536724433,1333.65739102 -289.971368037,1319.26872038 " moovel_rot="51.4" moovel_centroid="-287.226042476,1326.27082826"/>
  <polygon id="133016766" class="tile" points="-290.971368037,1336.51238714 -368.620167135,1338.89082385 -369.055690191,1319.09917103 -421.970406998,1320.32458956 -420.029610334,1388.41901842 -419.295158304,1406.43499242 -411.747360996,1415.71046193 -411.221987718,1428.64160196 -413.062406834,1430.5411281 -417.190109533,1433.30186446 -421.904103971,1440.56061836 -421.630450571,1451.4774072 -420.463321109,1460.076442 -417.521738373,1465.75053044 -412.880559686,1470.02677671 -407.736411214,1470.63930478 -389.027595961,1471.65622573 -358.46492607,1471.37052521 -344.156784708,1470.3010521 -330.947518513,1466.21895595 -321.007482258,1457.52808135 -314.339139665,1445.66691303 -290.971368037,1336.51238714 " moovel_rot="0.7" moovel_centroid="-364.26036221,1396.13334621"/>
  <polygon id="185605917" class="tile" points="-443.381485533,1338.04270078 -447.082005497,1338.02761724 -447.086958942,1319.09917103 -422.992744218,1319.18411544 -422.970406998,1367.41731535 -446.365371901,1367.33881175 -446.370026435,1351.27336098 -443.20826861,1351.29373265 -435.198119155,1351.31977335 -435.201979441,1338.06403191 -443.381485533,1338.04270078 " moovel_rot="-49.3" moovel_centroid="-433.929606639,1342.85326303"/>
  <polygon id="203011292" class="tile" points="-448.116974962,1319.09917103 -448.086958942,1376.46549595 -496.809915436,1375.07822662 -495.926112066,1319.85914247 -493.140756656,1320.04926067 -448.116974962,1319.09917103 " moovel_rot="-9.5" moovel_centroid="-472.068264782,1347.77485405"/>
  <polygon id="292875145" class="tile" points="-497.813045587,1343.06982152 -512.60113846,1343.06854382 -512.599359615,1321.60562517 -512.633752465,1319.36646733 -511.523285968,1319.10175392 -498.026346576,1319.09917103 -497.809915436,1322.95786174 -497.813071584,1329.57735466 -497.813007938,1336.28861278 -497.813045587,1343.06982152 " moovel_rot="-28.6" moovel_centroid="-505.212628283,1331.10067305"/>
  <polygon id="444095697" class="tile" points="-513.654425286,1322.54695614 -525.033683209,1319.21891967 -529.454721802,1319.09917103 -529.675104935,1323.60523168 -534.402766242,1323.60204497 -534.411446548,1343.19501353 -528.295167452,1343.79234744 -528.334128286,1363.59426005 -517.621625602,1363.60072943 -517.541536904,1359.91226528 -513.633752465,1359.99814177 -513.654425286,1322.54695614 " moovel_rot="-2.8" moovel_centroid="-522.920720562,1340.12420983"/>
  <polygon id="277351817" class="tile" points="-535.416396009,1366.98731396 -535.411446548,1371.70715846 -580.236856032,1371.38398579 -580.205923818,1321.27766703 -553.099586671,1321.25795469 -553.034093544,1319.09917103 -540.70641203,1319.10384253 -540.732022422,1321.25301499 -536.191325979,1321.18490727 -535.993292584,1332.81639091 -535.416396009,1366.98731396 " moovel_rot="25.9" moovel_centroid="-557.836062899,1346.17454475"/>
  <polygon id="314283722" class="tile" points="-13.3498862095,1488.99132002 -10.1351219874,1488.98113233 -5.30015947446,1489.04565462 -0.917811439186,1489.09939721 0.0,1489.14443181 -0.0746006414294,1501.24552872 -0.138308310136,1515.21599066 -13.3269589327,1514.80476963 -13.3498862095,1488.99132002 " moovel_rot="-20.6" moovel_centroid="-6.694927861017667,1501.9960965"/>
  <polygon id="299606298" class="tile" points="-15.3591658436,1488.98113233 -28.2855446003,1489.03664425 -28.3581717171,1490.17732238 -28.4144212723,1503.47385388 -20.3558848977,1503.60590383 -18.9913805418,1503.63006916 -17.7277437292,1503.660062 -15.3498862095,1503.7141321 -15.3591658436,1488.98113233 " moovel_rot="-34.2" moovel_centroid="-21.8463742767,1496.30517317"/>
  <polygon id="252079921" class="tile" points="-44.4660632087,1522.20840056 -29.4322221447,1522.20955814 -29.4144212723,1488.98228953 -44.4482567025,1488.98113233 -44.4660632087,1522.20840056 " moovel_rot="-93.8" moovel_centroid="-36.9402408185,1505.59534618"/>
  <polygon id="265884364" class="tile" points="-58.6518102931,1488.98113233 -58.6514541013,1492.77098519 -58.6496797541,1498.78314462 -58.637926189,1507.97731996 -58.639957883,1512.65041787 -58.6344744308,1513.17617917 -45.4660632087,1513.20779387 -45.4706490809,1512.35081187 -45.4695125384,1508.0089303 -45.4830333417,1492.80258277 -45.4860949358,1489.03132422 -54.8091178915,1488.99894621 -58.6518102931,1488.98113233 " moovel_rot="-29.1" moovel_centroid="-52.0616840579,1501.10005632"/>
  <polygon id="185193578" class="tile" points="-90.6035311999,1532.42179777 -59.6518102931,1511.93690785 -64.3673796372,1505.63337457 -72.5839001009,1494.64849485 -79.3255893679,1488.98113233 -85.0883839691,1489.48786064 -88.0797616249,1491.10212633 -90.4424996318,1492.37519536 -93.132633335,1503.97956523 -93.1378715226,1510.09554845 -93.1408484807,1526.10299382 -90.6035311999,1532.42179777 " moovel_rot="-50.2" moovel_centroid="-80.3986377142,1509.22932378"/>
  <polygon id="234554439" class="tile" points="-123.897828722,1489.18695213 -128.304383074,1493.80351237 -128.341854388,1557.24227029 -94.1408484807,1530.08099953 -94.5351135369,1525.64408738 -114.70955652,1528.34431355 -116.073492997,1519.78375365 -116.644393951,1515.40017102 -117.433312635,1509.35212844 -118.206924142,1503.44598028 -120.050219089,1488.98113233 -123.897828722,1489.18695213 " moovel_rot="-73.2" moovel_centroid="-118.609104523,1526.02899417"/>
  <polygon id="283808500" class="tile" points="-139.749880552,1595.35656068 -139.856543257,1592.59655462 -139.811089313,1591.74879214 -139.62739369,1591.07639006 -139.308149154,1590.7997445 -138.95503777,1590.62370775 -138.385709493,1590.7041401 -137.440868337,1590.92943347 -134.132535882,1591.60442284 -133.71054807,1591.5361023 -133.425496473,1591.18556263 -133.276483514,1590.47933846 -131.10025289,1576.81260815 -130.797086103,1574.97940353 -130.93835029,1572.1788967 -130.908566502,1569.74118179 -130.570396679,1562.17057006 -129.968221506,1561.7170303 -129.709977496,1561.40624111 -129.516734446,1559.95243452 -129.341854388,1557.12907165 -129.433255115,1555.99241137 -130.065503625,1555.31671982 -130.753449125,1554.17277101 -130.657726771,1552.08320446 -130.462443767,1550.4624311 -130.13324363,1549.3709877 -130.50406571,1548.12403879 -131.090655322,1547.30195239 -132.930379131,1524.80907181 -134.300689756,1512.72884915 -135.333881933,1501.78160926 -135.837973978,1494.20738652 -135.966178994,1493.2105496 -136.308927361,1492.53839513 -136.901146667,1492.17713705 -138.139811745,1492.30227617 -139.727671073,1492.28287584 -140.568952837,1492.19912079 -141.055083308,1491.77236221 -141.650852462,1490.983562 -142.099280865,1490.34351469 -142.581902431,1489.62957326 -143.170612311,1488.98113233 -144.057960233,1489.07716548 -145.187393123,1489.5977396 -168.582107879,1502.79147495 -194.188327996,1516.03166666 -222.642952709,1531.1808402 -223.486384255,1531.99213438 -222.408171972,1533.50823317 -222.119043444,1534.25988853 -222.531802777,1535.00964795 -225.080459541,1536.07397423 -218.072013123,1549.87296113 -218.644269807,1551.46908965 -219.496800943,1552.30699133 -221.999882644,1553.23160142 -220.268946224,1558.0554311 -222.485347081,1559.93205668 -224.839779539,1565.20694678 -225.083082863,1568.60392512 -211.547653623,1595.39445627 -209.471933805,1596.41508776 -202.131021734,1593.05806972 -159.585894879,1570.0587715 -155.275329607,1568.41480195 -154.178744481,1568.42819993 -152.709338621,1570.24298368 -151.238585241,1572.66563368 -150.160359211,1574.18173264 -150.174965507,1575.37721474 -153.786249629,1577.23679776 -144.923122463,1594.35820095 -142.849908263,1595.58587153 -140.958676844,1595.90956349 -139.749880552,1595.35656068 " moovel_rot="-90.7" moovel_centroid="-173.584230106,1546.08883604"/>
  <polygon id="324991431" class="tile" points="-240.657986453,1489.74441249 -240.357244447,1507.72253139 -248.600303968,1508.23908363 -248.623983713,1524.92865679 -226.083082863,1524.66411501 -226.739136407,1488.98113233 -240.657986453,1489.74441249 " moovel_rot="62.2" moovel_centroid="-235.829151422,1509.16747669"/>
  <polygon id="412123943" class="tile" points="-254.096179379,1532.11518548 -257.789476193,1530.93905347 -257.220592873,1528.3674205 -253.578058341,1529.36652339 -249.696085189,1513.02685195 -254.414235242,1512.15370844 -250.753123934,1508.6862631 -263.175173864,1494.61312251 -266.565208026,1497.06315623 -266.149724195,1491.3879925 -277.832148125,1488.98113233 -279.325555266,1496.39773301 -271.30143774,1498.840915 -272.47450077,1502.47987929 -276.704915846,1502.02338821 -279.312915503,1513.71903521 -275.205090136,1514.40226183 -275.697310648,1516.58699312 -279.853481274,1515.73516654 -287.577438052,1545.98540632 -283.19957315,1546.95611606 -283.915910406,1549.01351604 -287.953492349,1547.94523242 -289.300692241,1554.70859542 -281.700130233,1555.9412128 -281.301258218,1554.30327881 -272.451334439,1556.50049654 -273.808872238,1564.12438092 -254.151452994,1569.62699232 -253.388698108,1565.13867496 -250.455598423,1565.60222276 -249.623983713,1559.41550989 -251.588801188,1559.05748016 -251.249412859,1555.05547812 -261.478218897,1553.16242111 -262.044687453,1555.74247536 -264.28438148,1555.08009383 -263.569974972,1550.42316563 -258.726821889,1551.07798985 -254.096179379,1532.11518548 " moovel_rot="16.0" moovel_centroid="-267.862797524,1530.92100243"/>
  <polygon id="201018716" class="tile" points="-308.12140123,1593.45588191 -299.798323284,1593.43638634 -290.374578118,1593.41422063 -290.300692241,1490.59586582 -307.934178817,1490.51786392 -307.876312015,1488.9894417 -314.729617405,1488.98113233 -314.789942853,1500.67718244 -314.689257355,1532.50741894 -308.182019156,1532.48291908 -308.150508747,1563.29952491 -308.127616708,1587.23546069 -308.124007115,1588.18988774 -308.12140123,1593.45588191 " moovel_rot="10.7" moovel_centroid="-300.899120273,1537.71134675"/>
  <polygon id="319966214" class="tile" points="-330.310799967,1489.0261744 -330.316502916,1509.29449503 -321.254145253,1509.26917988 -315.790086981,1502.72102712 -315.789942853,1488.98113233 -330.310799967,1489.0261744 " moovel_rot="59.2" moovel_centroid="-323.402669753,1498.62703027"/>
  <polygon id="438314978" class="tile" points="-379.140272526,1489.14412294 -331.330891667,1488.98113233 -331.316502916,1522.89225768 -348.720185174,1522.95068845 -348.716163781,1540.87950478 -352.620283575,1540.8907267 -352.609207559,1557.8483446 -364.575121132,1557.89135521 -364.569867123,1586.67357405 -379.113107997,1586.71989027 -379.140272526,1489.14412294 " moovel_rot="62.1" moovel_centroid="-360.659453102,1526.25250969"/>
  <polygon id="277182907" class="tile" points="-380.184353144,1488.98113233 -380.171299904,1491.05066074 -380.140272526,1507.9541968 -392.046567031,1508.03536674 -392.045517364,1489.09627984 -389.214003993,1489.070359 -380.184353144,1488.98113233 " moovel_rot="73.8" moovel_centroid="-386.100272261,1498.52223647"/>
  <polygon id="222912930" class="tile" points="-393.046567031,1546.53456431 -400.58449828,1546.70746488 -400.499442394,1488.98113233 -393.614459981,1489.18634833 -393.046567031,1546.53456431 " moovel_rot="-83.4" moovel_centroid="-396.93838051,1518.28756191"/>
  <polygon id="292874136" class="tile" points="-401.597255396,1488.98113233 -401.58449828,1508.92854151 -413.848828604,1508.50747628 -413.858565413,1488.98302909 -401.597255396,1488.98113233 " moovel_rot="-28.9" moovel_centroid="-407.700388727,1498.85079181"/>
  <polygon id="447197457" class="tile" points="-414.858896685,1488.98113233 -420.033959014,1489.11830561 -420.053757538,1491.43406494 -429.498216535,1491.58857004 -429.496480156,1512.45634359 -414.858565413,1512.47185896 -414.858896685,1488.98113233 " moovel_rot="-83.3" moovel_centroid="-421.983781965,1501.51983084"/>
  <polygon id="315569670" class="tile" points="-430.501286722,1488.98714443 -430.498216535,1502.04657642 -435.573830845,1502.03888932 -435.570435299,1488.98113233 -430.501286722,1488.98714443 " moovel_rot="-14.5" moovel_centroid="-433.035888431,1495.51482284"/>
  <polygon id="377032862" class="tile" points="-459.418681446,1488.99845645 -459.416170529,1524.76985673 -436.579213497,1524.74479919 -436.573830845,1488.98113233 -459.418681446,1488.99845645 " moovel_rot="8.4" moovel_centroid="-447.99738597,1506.87253144"/>
  <polygon id="285998680" class="tile" points="-460.418681446,1686.37317768 -523.771178251,1686.55878048 -524.283766717,1661.47159875 -519.47282919,1660.38024849 -520.147078194,1600.70896051 -523.58074281,1577.9832651 -523.91849508,1488.98113233 -460.462761712,1489.85457357 -460.947136106,1591.77979473 -460.418681446,1686.37317768 " moovel_rot="-38.1" moovel_centroid="-491.585018632,1587.1072356"/>
  <polygon id="298607593" class="tile" points="-525.806138324,1488.98113233 -538.107914785,1492.30391801 -543.499786119,1493.75642384 -536.649135201,1516.89468437 -526.849048014,1514.20520009 -526.09806958,1511.73440831 -525.305767987,1509.14234901 -527.087551473,1502.81088884 -531.141432537,1503.94945366 -531.505684535,1502.65975216 -534.121930384,1493.31430293 -525.283766717,1490.83632335 -525.806138324,1488.98113233 " moovel_rot="63.3" moovel_centroid="-534.248050721,1503.81358559"/>
  <polygon id="298133610" class="tile" points="-573.970614895,1496.62313058 -556.073849472,1490.30431971 -552.315154004,1488.98113233 -550.960943873,1492.7234876 -547.023717522,1503.56271681 -544.499786119,1510.4698398 -550.916769009,1512.87528959 -553.667879746,1505.12237267 -569.574571697,1510.76519315 -560.853306751,1535.34990586 -551.323612863,1531.96395104 -549.459613122,1537.21842009 -567.363064619,1543.87017906 -573.95984564,1546.31994744 -573.958503501,1542.10338828 -573.960922686,1540.6972697 -573.958282858,1539.22397436 -573.964184177,1528.46911832 -573.960862118,1514.87766932 -573.96701368,1511.6421092 -573.970614895,1496.62313058 " moovel_rot="78.2" moovel_centroid="-563.236812365,1515.48735139"/>
  <polygon id="299944940" class="tile" points="-582.759070206,1489.1908247 -574.970614895,1488.98113233 -575.00392685,1509.53820237 -582.589068425,1509.56962644 -582.759070206,1489.1908247 " moovel_rot="-61.6" moovel_centroid="-578.825342149,1499.27461653"/>
  <polygon id="198572617" class="tile" points="-0.0153499267995,1686.61778002 -0.0103740613908,1706.21092551 -0.00770378597081,1712.44758472 0.0,1740.95744249 -12.5893374894,1740.91245937 -12.5971677404,1734.87851738 -17.5742811207,1734.85945134 -17.5769584693,1717.59187661 -28.2392925035,1717.55349169 -28.244806638,1700.34101363 -18.2106266599,1700.37766548 -18.2156866796,1686.55878048 -0.0153499267995,1686.61778002 " moovel_rot="-40.2" moovel_centroid="-11.014428356699844,1712.16381769"/>
  <polygon id="261699871" class="tile" points="-49.4961562902,1734.16182927 -49.4905939201,1709.83955837 -30.2463641638,1709.90259314 -30.244806638,1686.69532803 -68.4570327912,1686.55878048 -68.4717004087,1734.09258679 -49.4961562902,1734.16182927 " moovel_rot="-60.5" moovel_centroid="-52.648333521,1706.35520264"/>
  <polygon id="223868484" class="tile" points="-69.4876007566,1711.07960205 -75.4581433447,1711.01925538 -75.9173778629,1686.6163376 -69.4717004087,1686.55878048 -69.4876007566,1711.07960205 " moovel_rot="8.8" moovel_centroid="-72.5826267385,1698.66212846"/>
  <polygon id="412123962" class="tile" points="-76.9339003017,1715.1343164 -76.9173778629,1686.65158812 -100.957501932,1686.55878048 -100.973980483,1715.04148403 -76.9339003017,1715.1343164 " moovel_rot="-60.6" moovel_centroid="-88.9456883911,1700.84653793"/>
  <polygon id="264373546" class="tile" points="-101.973980483,1686.55878048 -102.039689053,1749.69199322 -123.84504813,1749.60039114 -123.97851496,1686.87545177 -122.639302456,1686.87799837 -101.973980483,1686.55878048 " moovel_rot="62.9" moovel_centroid="-112.946954547,1718.1393209"/>
  <polygon id="220953312" class="tile" points="-124.97851496,1686.55878048 -129.521074177,1686.58037223 -129.523710486,1691.4472746 -124.981152621,1691.42568151 -124.97851496,1686.55878048 " moovel_rot="45.5" moovel_centroid="-127.251113165,1689.00302708"/>
  <polygon id="309154406" class="tile" points="-155.066142211,1686.6857537 -155.121088001,1737.33911724 -139.204934368,1743.11790898 -130.523710486,1718.28198963 -135.384761401,1717.96261397 -135.836085099,1686.55878048 -155.066142211,1686.6857537 " moovel_rot="8.4" moovel_centroid="-144.902252134,1713.65244751"/>
  <polygon id="349882156" class="tile" points="-163.040220671,1787.0757716 -166.84150266,1786.85337657 -177.608726494,1786.22391289 -176.176386399,1759.0041006 -170.436136169,1759.93657218 -166.656373059,1709.15430662 -175.883166126,1707.84992442 -177.336108943,1697.19362231 -177.692909366,1686.55878048 -159.583269886,1688.13906967 -160.31953502,1697.49519417 -156.121088001,1697.75816814 -163.040220671,1787.0757716 " moovel_rot="-81.3" moovel_centroid="-166.699763462,1735.19352034"/>
  <polygon id="280403703" class="tile" points="-178.813766647,1878.06111056 -178.692909366,1686.55878048 -244.943107698,1690.83311307 -245.132216438,1714.36804695 -245.373373901,1744.33673697 -248.177147492,1745.83579994 -244.337947787,1753.02502069 -250.474001919,1756.29767701 -244.609743438,1767.29754208 -244.563617769,1786.3367174 -244.477096243,1823.48106648 -216.109231814,1862.45612548 -190.518192664,1873.16919126 -178.813766647,1878.06111056 " moovel_rot="-8.7" moovel_centroid="-210.10274823,1774.01360579"/>
  <polygon id="220792595" class="tile" points="-259.690159677,1714.10510115 -253.107395582,1714.64060594 -251.474001919,1702.67099922 -252.057231297,1689.73775965 -252.608996528,1686.55878048 -259.668989555,1688.19189194 -259.015086009,1696.82542275 -259.088397963,1706.35223368 -259.690159677,1714.10510115 " moovel_rot="43.4" moovel_centroid="-255.593679208,1700.65136654"/>
  <polygon id="239436977" class="tile" points="-284.25647517,1692.93157402 -260.690159677,1686.55878048 -260.703295365,1720.28841899 -267.765939557,1720.29757968 -267.576426675,1739.86536102 -278.398058568,1740.1792907 -283.775951124,1740.38849167 -283.861611221,1724.52056876 -284.25647517,1692.93157402 " moovel_rot="76.9" moovel_centroid="-273.163448425,1712.74519794"/>
  <polygon id="220792588" class="tile" points="-293.001095951,1687.12008093 -293.008784584,1713.1642954 -285.820365861,1713.9233004 -285.25647517,1707.14530622 -285.596185343,1693.91501603 -286.259017103,1686.55878048 -293.001095951,1687.12008093 " moovel_rot="76.7" moovel_centroid="-289.260404267,1700.36335513"/>
  <polygon id="222912947" class="tile" points="-294.008784584,1686.68183435 -300.642811963,1686.55878048 -300.501426127,1824.45172276 -300.613150081,1835.59367095 -298.225912539,1835.64737182 -298.311590715,1824.60728769 -294.760207726,1824.61219641 -294.008784584,1686.68183435 " moovel_rot="-87.6" moovel_centroid="-297.530579618,1756.14130737"/>
  <polygon id="181959264" class="tile" points="-323.256813276,1750.6452259 -328.263592052,1745.28067681 -333.054699359,1740.14434278 -319.327305269,1726.59092483 -327.494532414,1710.23305159 -333.023735284,1699.1534345 -328.571345103,1697.08185916 -329.937197793,1694.45559795 -328.510122634,1691.70070579 -326.830945324,1688.44564406 -322.922357962,1686.55878048 -301.642811963,1729.87722086 -314.271919417,1742.2254911 -323.256813276,1750.6452259 " moovel_rot="31.1" moovel_centroid="-318.772839964,1720.40745707"/>
  <polygon id="181203277" class="tile" points="-334.05940006,1756.84228378 -349.473205867,1756.84738548 -349.468506259,1686.56386798 -341.838186876,1686.56721708 -334.054699359,1686.55878048 -334.05940006,1756.84228378 " moovel_rot="4.4" moovel_centroid="-341.763952178,1721.70454589"/>
  <polygon id="299606242" class="tile" points="-361.226521271,1686.61508522 -361.201987141,1697.67888247 -361.175542543,1712.93444805 -358.312518737,1712.48006532 -357.150359184,1712.47398021 -355.976413203,1713.44328322 -353.20528606,1713.29695596 -350.512927487,1713.41467621 -350.473205867,1686.55878048 -353.518865384,1686.57472766 -357.192358226,1686.5939622 -361.226521271,1686.61508522 " moovel_rot="0.3" moovel_centroid="-355.811258144,1699.80039087"/>
  <polygon id="248143116" class="tile" points="-362.228344929,1720.40072282 -362.226521271,1686.56114792 -365.866169042,1686.56124084 -383.597708591,1686.55878048 -385.145389761,1686.56026837 -385.150472651,1720.40567354 -384.492486604,1720.40420639 -373.363718013,1720.40827034 -362.228344929,1720.40072282 " moovel_rot="60.3" moovel_centroid="-373.688010334,1703.48316144"/>
  <polygon id="335920898" class="tile" points="-386.150472651,1688.8139272 -386.205758587,1710.76714121 -403.603505743,1710.44668179 -403.752863789,1709.15581792 -404.176165262,1708.57723933 -404.902826766,1708.57292872 -407.659468173,1708.57368545 -407.676588374,1686.57579841 -398.056900964,1686.55878048 -398.055293897,1688.83901818 -386.150472651,1688.8139272 " moovel_rot="6.6" moovel_centroid="-397.027894318,1699.00579903"/>
  <polygon id="59382165" class="tile" points="-439.85903756,1687.21089879 -422.519628054,1686.55878048 -415.470067744,1691.59976678 -410.895513477,1697.931407 -408.676588374,1730.04607139 -415.803292921,1730.83660403 -415.31990543,1750.85395708 -439.901167315,1753.23826261 -439.85903756,1687.21089879 " moovel_rot="-39.8" moovel_centroid="-426.146214799,1719.10377062"/>
  <polygon id="288447166" class="tile" points="-441.017362396,1686.55878048 -440.901167315,1709.77780727 -454.66249474,1709.84094976 -463.695703821,1709.88205006 -463.664296951,1686.66821106 -441.017362396,1686.55878048 " moovel_rot="61.1" moovel_centroid="-452.319133467,1698.23433017"/>
  <polygon id="258957575" class="tile" points="-539.918380096,1686.55878048 -464.695703821,1687.72114389 -464.920600107,1796.30794465 -473.420431478,1816.97011006 -481.424389333,1829.24164728 -488.499113405,1832.13628289 -539.850874988,1831.95183895 -539.918380096,1686.55878048 " moovel_rot="-69.2" moovel_centroid="-503.288959243,1757.81311405"/>
  <polygon id="288431451" class="tile" points="-540.918380096,1686.8439082 -541.312018704,1716.07265458 -553.754912091,1716.07134612 -561.882245671,1715.85809198 -561.89144772,1686.55878048 -553.652095895,1686.841764 -540.918380096,1686.8439082 " moovel_rot="61.0" moovel_centroid="-551.504448408,1701.36088607"/>
  <polygon id="334258798" class="tile" points="-562.891868145,1686.55878048 -562.89144772,1713.30646675 -577.789038022,1713.53117036 -583.172440059,1713.52397694 -583.318301955,1713.174528 -587.850631786,1692.78993993 -588.094256539,1691.72726929 -562.891868145,1686.55878048 " moovel_rot="9.4" moovel_centroid="-573.987097032,1700.78470995"/>
  <polygon id="185021244" class="tile" points="-0.00634634736925,1897.54403499 -0.00535968672484,1902.09194983 0.0,1905.43899824 -9.06272348575,1905.45874693 -9.06774603389,1878.08267961 -4.63843567204,1878.06818454 -0.0135867057368,1878.06111056 -0.00634634736925,1897.54403499 " moovel_rot="78.0" moovel_centroid="-4.536765033964336,1891.76087561"/>
  <polygon id="389691035" class="tile" points="-11.3951533999,1878.25044014 -11.0677460339,1921.67732098 -26.2351242935,1923.14202923 -26.2362114381,1920.82669659 -26.14843984,1878.06111056 -18.480721749,1878.1555802 -11.3951533999,1878.25044014 " moovel_rot="3.5" moovel_centroid="-18.7588299806,1900.38820143"/>
  <polygon id="331122537" class="tile" points="-27.2362114381,1878.79758617 -44.4021753989,1878.06111056 -44.3907036502,1895.80313249 -27.927135618,1897.34762218 -27.2362114381,1878.79758617 " moovel_rot="-41.0" moovel_centroid="-35.9219112553,1887.44511031"/>
  <polygon id="185169180" class="tile" points="-45.4021753989,1878.21724785 -59.7911332138,1878.06111056 -59.7326053511,1914.28917799 -56.6205313122,1914.40298081 -56.5409220919,1916.57404255 -57.9898265405,1917.88948257 -59.0579419566,1920.11139422 -58.6133404907,1938.43362886 -53.7230998136,1938.92052916 -45.5990467696,1938.64893171 -45.4021753989,1878.21724785 " moovel_rot="2.1" moovel_centroid="-52.4025113807,1907.78163524"/>
  <polygon id="255477267" class="tile" points="-116.900558111,1878.06111056 -60.7911332138,1879.52552943 -62.2324027488,1925.03127203 -97.0552415222,1925.05395759 -97.3447226522,1954.42235801 -116.824993628,1954.4749767 -116.900558111,1878.06111056 " moovel_rot="3.7" moovel_centroid="-92.5920450524,1908.7837418"/>
  <polygon id="273350116" class="tile" points="-117.900558111,1878.09829589 -131.386058843,1878.06111056 -131.397063969,1895.89111867 -143.611885232,1895.86134254 -143.610596782,1904.26063265 -143.615321064,1907.97975093 -117.915024671,1908.04672028 -117.900558111,1878.09829589 " moovel_rot="-72.9" moovel_centroid="-128.098298198,1895.43625004"/>
  <polygon id="185632361" class="tile" points="-144.615321064,1878.09889753 -147.686148054,1878.08874001 -154.355562312,1878.06111056 -154.354714738,1901.8129188 -144.621261334,1901.85628137 -144.617075427,1899.52772523 -144.615321064,1878.09889753 " moovel_rot="-50.6" moovel_centroid="-149.485644575,1889.95695491"/>
  <polygon id="222912929" class="tile" points="-155.92746179,1928.27048297 -164.24918672,1928.02551989 -164.288034557,1878.06111056 -155.355562312,1878.56731088 -155.92746179,1928.27048297 " moovel_rot="-86.9" moovel_centroid="-159.956870099,1902.93636008"/>
  <polygon id="284838382" class="tile" points="-223.813814291,1978.12555474 -202.264352468,1978.10553608 -197.487347431,1978.10712303 -165.288034557,1978.07734069 -165.292404903,1975.34265584 -165.329194045,1925.73931467 -165.343818238,1910.38729196 -165.346834701,1906.67631191 -165.365557311,1878.06111056 -169.524343181,1878.06528887 -170.923086016,1878.06827653 -172.200069179,1878.06982786 -182.868705236,1878.0726182 -187.920426076,1878.08105449 -190.802228272,1878.08368012 -211.593071513,1878.09631753 -216.267000043,1878.10512054 -223.891453552,1878.10963621 -223.856961318,1918.56454119 -223.813814291,1978.12555474 " moovel_rot="-20.5" moovel_centroid="-194.589687426,1928.09369458"/>
  <polygon id="241810959" class="tile" points="-272.159740789,1884.47394509 -250.049490406,1878.06111056 -224.891453552,1941.72426381 -225.019420788,2017.65299368 -236.19701209,2027.22925321 -250.843413046,2035.47886984 -261.644487913,2107.70757016 -272.037259744,2107.72570899 -269.864156868,1978.96927028 -267.292304001,1925.60414912 -268.665008217,1900.65331069 -272.159740789,1884.47394509 " moovel_rot="0.1" moovel_centroid="-251.579660836,1979.62696312"/>
  <polygon id="277351839" class="tile" points="-285.715722151,1878.06111056 -284.105764451,1882.21026091 -278.253563299,1880.95549123 -273.880997483,1902.63906293 -278.112275047,1904.22882336 -273.159740789,1924.17441348 -310.957674186,1937.33854456 -307.133409634,1959.68345244 -317.57514996,1971.50879641 -295.898009641,1998.13486175 -299.084737477,2000.8175205 -287.075206393,2014.38772893 -273.191915019,2030.94138167 -274.030008838,2033.85443534 -287.917228059,2047.76775901 -290.264509899,2044.50035178 -293.196983399,2046.79447716 -342.347213762,1990.59933755 -337.107685986,1983.6193021 -341.018295182,1979.35866404 -315.718068871,1948.61656056 -320.242550614,1933.34315823 -306.552699404,1919.45357658 -323.166789767,1903.89678526 -318.892161758,1899.18600654 -321.336476735,1894.90665837 -285.715722151,1878.06111056 " moovel_rot="68.8" moovel_centroid="-304.438587024,1961.70695139"/>
  <polygon id="292846303" class="tile" points="-343.449624649,1878.06111056 -355.675923208,1878.12545683 -355.612975148,1889.94393878 -356.262778724,1889.94861017 -356.211631736,1900.75942116 -356.259821129,1901.65413158 -355.169004136,1901.6506234 -348.744784381,1901.61356106 -348.761931398,1898.6406533 -343.347213762,1898.61156755 -343.404255694,1892.44304117 -343.435034827,1883.87601503 -343.449624649,1878.06111056 " moovel_rot="-28.7" moovel_centroid="-349.884597838,1889.42719158"/>
  <polygon id="222185317" class="tile" points="-357.262778724,1889.78251584 -367.895716784,1901.64545703 -372.727461077,1898.19372715 -370.053214518,1891.65949361 -370.565274754,1883.16564041 -370.515236089,1881.73272054 -372.732047358,1880.33506154 -371.309307859,1878.06111056 -364.144262643,1880.72297001 -364.554842688,1883.10267852 -362.3966583,1885.41365983 -357.287543991,1888.00372166 -357.262778724,1889.78251584 " moovel_rot="-2.0" moovel_centroid="-366.125975284,1889.94649585"/>
  <polygon id="298417639" class="tile" points="-403.295240873,1881.33704667 -395.918650371,1878.06111056 -394.574447425,1880.81867719 -393.065623181,1880.08465959 -389.681867046,1887.05766488 -381.439895551,1903.99867916 -383.351641784,1904.92303725 -378.561594736,1914.76770833 -376.42871855,1919.56178468 -373.732047358,1925.63252073 -375.782663996,1926.60690047 -389.360445153,1933.05067009 -399.778234671,1937.17694114 -403.319208516,1938.62262565 -403.307541869,1930.6412991 -403.295240873,1881.33704667 " moovel_rot="70.5" moovel_centroid="-392.656331738,1910.47606764"/>
  <polygon id="448157975" class="tile" points="-430.237740245,1982.97671358 -404.319208516,1983.86393846 -404.355556527,1878.06111056 -415.345663368,1878.48330396 -433.636435794,1930.69111088 -434.029633961,1977.72339894 -429.739752856,1977.48242603 -430.237740245,1982.97671358 " moovel_rot="59.4" moovel_centroid="-417.327855046,1937.09532135"/>
  <polygon id="288448677" class="tile" points="-435.029633961,1878.06111056 -435.059598785,1902.25229425 -458.915222038,1902.28194786 -459.109606727,1892.78299041 -459.238476214,1880.80253485 -459.246914839,1878.36413418 -449.125272048,1878.0770308 -435.029633961,1878.06111056 " moovel_rot="61.1" moovel_centroid="-447.060789589,1890.16920695"/>
  <polygon id="324162267" class="tile" points="-460.246914839,1884.46477608 -460.279281409,1881.94397287 -460.282726857,1878.06111056 -474.754791375,1878.06322438 -474.75091368,1907.58041665 -465.31322978,1908.15814501 -465.279770243,1884.52275588 -460.246914839,1884.46477608 " moovel_rot="50" moovel_centroid="-469.266833122,1891.75909102"/>
  <polygon id="220530390" class="tile" points="-496.412221983,1879.18637541 -475.754791375,1878.06111056 -475.75483901,1900.87327493 -495.874799882,1901.18540501 -496.412221983,1879.18637541 " moovel_rot="47.2" moovel_centroid="-485.889564377,1889.77432786"/>
  <polygon id="442637497" class="tile" points="-513.803563023,1878.06111056 -513.818234284,1899.64614322 -497.419755553,1899.64251855 -497.412221983,1891.96433881 -508.134555356,1891.97016268 -508.120814546,1878.06230468 -513.803563023,1878.06111056 " moovel_rot="8.7" moovel_centroid="-507.679357645,1891.64505364"/>
  <polygon id="275609101" class="tile" points="-528.914966961,1914.67105432 -538.841544445,1892.9046815 -540.792117727,1888.72429665 -514.819659738,1878.06111056 -516.631984876,1887.38515065 -514.818234284,1899.53814968 -519.03882529,1900.11484472 -517.348146761,1913.46587658 -528.914966961,1914.67105432 " moovel_rot="-52.0" moovel_centroid="-525.829619273,1896.5077952"/>
  <polygon id="375468793" class="tile" points="-541.792117727,1902.07440197 -553.526519009,1902.24419899 -553.515009589,1878.06111056 -541.903583295,1878.4545684 -541.792117727,1902.07440197 " moovel_rot="0.4" moovel_centroid="-547.707234889,1890.22953493"/>
  <polygon id="284422853" class="tile" points="-10.3548522614,2338.48199659 -10.8851072174,2333.9868634 -9.4214970734,2332.14649955 -7.68726596609,2331.96751664 -6.17080837749,2331.53534812 -12.107921344,2266.45273842 -1.8329863552,2265.91392747 -2.13293716237,2261.51143171 -0.356270307675,2259.85991702 0.0,2258.72533548 -0.0771160729229,2257.55826467 -0.718478600308,2256.462452 -2.36382828355,2255.61350398 -2.92220771648,2253.41554368 -3.34700648189,2246.36290166 -1.35822172612,2244.86371709 -1.676907029,2242.45958731 -4.54087919779,2240.79990833 -5.00244810842,2232.03451207 -2.81757589951,2230.0495054 -2.83903407343,2228.1121406 -5.51361537986,2226.91507033 -6.30073216595,2218.12133915 -4.52100498565,2216.37909208 -4.48680495881,2213.67143304 -6.98061771356,2212.21315719 -7.80032346658,2203.13910667 -6.48131016791,2201.69622597 -9.45925952755,2197.87041083 -14.262064347,2197.78148093 -15.3042720437,2190.13221336 -13.9982710082,2188.90315516 -15.7009398211,2185.01119661 -22.0393017344,2184.80702291 -26.842896517,2139.50581224 -22.3172271084,2113.99336319 -26.8966344517,2113.08677059 -28.0682574257,2111.72463322 -32.438600849,2111.06109766 -33.5187060926,2110.034313 -41.9683897398,2107.72570899 -74.8311602287,2110.66337836 -70.0199999146,2161.73744679 -62.9336830314,2244.18283151 -58.4373343304,2310.79542424 -60.2506772585,2314.2492969 -74.5344159298,2316.20111119 -75.0717956532,2319.279903 -74.435488636,2344.65163569 -72.7811643295,2344.54138347 -48.8507030424,2329.1998942 -47.398056173,2329.70361234 -40.7828056801,2340.76142417 -19.1830735702,2338.04954771 -17.2420569409,2339.29612262 -10.3548522614,2338.48199659 " moovel_rot="-49.3" moovel_centroid="-39.59661641349857,2228.65230999"/>
  <polygon id="412450796" class="tile" points="-77.899122474,2107.961775 -97.8394536413,2107.72570899 -98.0275087457,2116.86090439 -98.0111252308,2130.6164992 -98.004556141,2144.28692771 -97.9926387288,2159.48596286 -97.9788785942,2169.96802805 -98.022448859,2173.89235969 -98.048960394,2176.12423097 -91.0021778245,2176.48040443 -91.1811051939,2180.88437834 -79.1976210166,2181.69218128 -77.0717956532,2174.54421293 -77.899122474,2107.961775 " moovel_rot="29.5" moovel_centroid="-87.6039484394,2143.88717091"/>
  <polygon id="302360018" class="tile" points="-117.852002586,2108.55639021 -150.710306182,2107.72570899 -151.626930381,2154.82509128 -173.488984749,2154.00652292 -174.054736256,2203.24419921 -99.048984164,2206.61250307 -99.048960394,2141.35034788 -118.085272699,2141.07322561 -117.852002586,2108.55639021 " moovel_rot="18.9" moovel_centroid="-134.389362348,2164.92474848"/>
  <polygon id="450419577" class="tile" points="-200.789627807,2107.72570899 -200.733557604,2150.79477832 -190.501272131,2150.10473479 -181.166558336,2139.5067411 -180.809825863,2132.25579482 -175.714755629,2131.9135121 -175.054736256,2108.2007887 -197.401831185,2107.79510218 -200.789627807,2107.72570899 " moovel_rot="-30.8" moovel_centroid="-189.439433685,2126.77390878"/>
  <polygon id="241824864" class="tile" points="-201.789627807,2108.08580333 -219.649041246,2107.72570899 -226.607912678,2110.48480861 -233.540949192,2117.38240446 -233.552811744,2156.40467974 -201.820958878,2157.21737605 -201.789627807,2108.08580333 " moovel_rot="-26.3" moovel_centroid="-217.235357349,2133.07492559"/>
  <polygon id="326257590" class="tile" points="-236.946315154,2117.41718917 -242.874207394,2117.14156293 -242.878684647,2107.72570899 -234.552811744,2107.98927996 -234.605082843,2114.21322689 -236.796560425,2114.1139083 -236.946315154,2117.41718917 " moovel_rot="52.7" moovel_centroid="-239.038548732,2112.24702474"/>
  <polygon id="247460487" class="tile" points="-248.460460587,2158.68494378 -248.467286457,2151.45301397 -243.878684647,2151.45150304 -243.897552494,2114.94503921 -248.681943136,2114.94687951 -248.691082144,2107.72570899 -282.894520281,2107.74122294 -282.888596577,2115.22865026 -287.558575305,2115.22939412 -287.533788734,2151.25648368 -282.608676221,2151.2574272 -282.600081196,2158.70743824 -269.04543392,2158.6987941 -248.460460587,2158.68494378 " moovel_rot="-49.5" moovel_centroid="-265.682993783,2133.21016483"/>
  <polygon id="282600159" class="tile" points="-339.787804967,2144.98621114 -324.746315373,2161.61856161 -301.636389084,2174.82605406 -288.558575305,2133.95649519 -295.177632227,2116.7883844 -309.878484181,2109.1483392 -330.837717909,2107.72570899 -339.794484137,2108.79707252 -339.787804967,2144.98621114 " moovel_rot="0" moovel_centroid="-315.232914055,2136.77129901"/>
  <polygon id="347320346" class="tile" points="-340.794484137,2107.72570899 -340.846685497,2116.58450601 -340.883271486,2122.326571 -340.933436093,2131.39407687 -340.828625834,2138.94373121 -352.70440218,2143.35476759 -352.816312729,2108.09834298 -340.794484137,2107.72570899 " moovel_rot="-82.2" moovel_centroid="-346.935219404,2124.5156776"/>
  <polygon id="376406582" class="tile" points="-368.966233206,2107.75677356 -353.850860627,2107.72570899 -353.816312729,2151.06137894 -368.930798917,2151.0858234 -368.966233206,2107.75677356 " moovel_rot="82.5" moovel_centroid="-361.390859157,2129.40720783"/>
  <polygon id="240194177" class="tile" points="-369.981412494,2107.76508706 -379.574323623,2107.75162581 -399.422701921,2107.72570899 -399.40689599,2154.80131306 -376.174614342,2154.84062615 -376.17302745,2157.20866562 -369.966233206,2157.21728972 -369.968214505,2151.78302039 -369.981412494,2107.76508706 " moovel_rot="-14.5" moovel_centroid="-384.572098964,2131.5449745"/>
  <polygon id="298133639" class="tile" points="-426.375873969,2107.72570899 -426.351615137,2118.2109799 -423.852053793,2118.20588224 -423.844733379,2120.97769651 -426.344294442,2120.98279371 -426.320961727,2133.10925841 -426.363883178,2138.22494508 -420.39021222,2138.403624 -413.889153895,2138.40206284 -407.339082755,2138.41011884 -400.794693258,2138.41466338 -400.422701921,2117.53861877 -426.375873969,2107.72570899 " moovel_rot="-31.7" moovel_centroid="-414.162854302,2125.37629253"/>
  <polygon id="421260510" class="tile" points="-427.375873969,2197.90168314 -540.621169422,2184.0852602 -543.699467742,2202.59343659 -549.033182434,2203.63961581 -548.799969115,2184.53870966 -545.828701931,2167.43193564 -554.440044846,2166.12031541 -547.773489847,2112.39287133 -563.716852787,2107.72570899 -567.377761827,2158.13169335 -566.204578196,2163.24444851 -564.597230734,2170.23388254 -561.306615051,2226.41308636 -567.226187123,2301.44440867 -511.309540907,2308.17249751 -510.158924047,2299.79777769 -505.624087777,2300.67995763 -485.969897822,2304.52224734 -486.642472815,2311.6761359 -443.892468324,2302.47845986 -430.741250303,2220.47098662 -427.375873969,2197.90168314 " moovel_rot="51.9" moovel_centroid="-504.416849627,2239.74926156"/>
</svg>