<svg xmlns="http://www.w3.org/2000/svg" version="1.1" width="592.5px" height="1200px">
  <polygon id="3" class="bin" points="1.875,0.0 -0.77665042945,1.09834957055 -1.875,3.75 -1.875,1203.749999 -0.77665042945,1206.40164943 1.875,1207.499999 248.002709048,1207.499999 250.625118405,1206.43057154 251.751806926,1203.83224922 251.901821939,1196.9943226 253.640941248,1192.99893072 257.682674804,1191.37040926 261.028226067,1191.38909388 263.65213075,1190.33861361 264.797389519,1187.75466954 265.04202946,1179.81676444 264.033433116,1177.14059103 261.431389493,1175.95377189 255.754162069,1175.74534487 251.79633666,1173.96020904 250.214003163,1169.91702804 250.282855552,1164.99475593 251.016828177,1162.00416126 254.879893894,1154.34907558 254.774375774,1150.77554599 250.866658297,1144.0506205 252.302366872,1110.12092933 254.95297132,1105.02441148 256.044048402,1104.18820352 257.511346512,1101.32038816 257.933414301,1086.75007446 259.678542362,1082.78711828 263.692904265,1081.1637292 274.245720832,1081.18018481 276.85071983,1080.13331939 277.998910035,1077.57136579 278.029062581,1076.7710063 277.013033647,1074.06031027 274.369348667,1072.88085383 265.601793039,1072.67592299 261.547880227,1070.86337554 259.999393592,1066.70143771 262.519475565,1005.10379721 264.388475089,1001.09450498 266.126930926,1000.47186203 267.923533326,999.10768759 268.612445564,996.959629859 269.029786301,910.793553274 267.932604562,908.124864459 265.264846938,907.025420499 263.383632004,907.032937065 259.305333268,905.357165217 257.615964614,901.284479934 257.667884502,822.538815443 259.382782497,818.449538628 263.49936226,816.801257386 298.06658874,817.339744226 300.755917236,816.262420934 301.874999,813.590199155 301.874999,798.45309992 300.027304888,795.221423527 287.852610382,788.054866537 287.263718562,787.666196346 258.363630345,766.384963944 257.760580931,765.885506309 232.450276275,742.367727349 231.822354623,741.700973194 202.222123298,705.74386263 201.79575154,705.167036503 187.749636114,683.929377852 187.181852861,682.884304975 168.754738093,640.60636494 168.449665175,639.758632432 160.199739093,611.052406617 159.976431151,609.930949638 154.507898984,561.852349654 154.472030759,561.410562229 153.172371786,534.781644513 153.009028101,531.38033973 153.001438562,530.983847675 153.217609742,508.715916246 153.410098143,488.761626134 155.140300501,484.70753245 159.233796186,483.072733112 250.818757527,484.334072706 253.958966218,482.711222143 254.354977743,479.198711725 242.372545616,449.067204343 242.025106128,447.902723438 234.657962296,411.82151196 234.552091282,411.119975877 230.429362616,369.251446903 230.396386482,368.539420647 230.620422878,328.47604258 230.620455981,328.441235654 230.478932906,290.087163168 230.432809932,247.177378709 230.433824046,247.051683452 231.233441697,200.593630863 231.233918478,200.553367929 231.81862262,110.215424599 231.817434256,110.09368454 230.072879478,42.9967813793 230.105566667,42.1253034692 233.955438208,4.12801330297 233.006629428,1.2355467678 230.224539397,0.0 1.875,0.0 " moovel_rot="0" moovel_centroid="117.60182850150726,622.5706713852641"/>
  <polygon id="309309708" class="tile" points="-71.551201136,1356.55360003 -70.7148084382,1303.31156655 -71.6726874365,1201.0 -1.09455631338,1202.02109395 -1.0,1205.78215952 -9.15659960471,1205.8030064 -10.2024423741,1297.04109285 -13.9373730723,1313.67676721 -20.9722441366,1328.61303475 -25.6706613984,1333.86737188 -32.6536041742,1341.67101411 -46.6886635572,1350.62578718 -60.9557075962,1355.21274951 -71.551201136,1356.55360003 " moovel_rot="-0.9" moovel_centroid="-42.08266370985808,1271.8474281729864"/>
  <polygon id="446154780" class="tile" points="-72.6726874365,1278.13719446 -134.304659267,1258.16892284 -132.166948679,1201.0 -72.727624171,1202.23918608 -72.6726874365,1278.13719446 " moovel_rot="27.9" moovel_centroid="-101.584398832,1235.3563547741817"/>
  <polygon id="252079923" class="tile" points="-150.441244931,1203.31573077 -140.443209569,1203.30777718 -140.44447492,1201.0047236 -135.309110303,1201.0 -135.304659267,1233.82428242 -139.666197557,1233.82820283 -139.663453959,1238.17323229 -150.435321734,1238.18198866 -150.441244931,1203.31573077 " moovel_rot="-93.9" moovel_centroid="-142.954970576,1219.7647411473286"/>
  <polygon id="405818746" class="tile" points="-165.399911445,1238.25415166 -151.465462301,1238.31607075 -151.441244931,1201.06500745 -165.365156789,1201.0 -165.399911445,1238.25415166 " moovel_rot="-36.2" moovel_centroid="-158.418043452,1219.661154900668"/>
  <polygon id="244984383" class="tile" points="-166.414855405,1253.90127572 -166.399911445,1201.0 -180.532409351,1201.13746075 -194.29618248,1201.3848453 -194.009536376,1211.17820427 -200.081141087,1213.38251955 -204.296111001,1217.20135832 -207.726987968,1226.15109082 -202.578329895,1228.77284964 -202.62031323,1237.36428117 -180.756614467,1237.45804113 -180.693388023,1242.6329385 -183.919186106,1242.67235102 -183.92880385,1253.91281043 -166.414855405,1253.90127572 " moovel_rot="0.7" moovel_centroid="-182.316262314,1224.949451197119"/>
  <polygon id="221214062" class="tile" points="-208.857710777,1218.56848168 -220.414994778,1214.27283748 -220.418803023,1201.0 -208.726987968,1201.11775839 -208.857710777,1218.56848168 " moovel_rot="8.0" moovel_centroid="-214.339710993,1208.777143531111"/>
  <polygon id="319966215" class="tile" points="-221.418803023,1211.52728241 -221.427585542,1201.0 -235.535894129,1201.00468758 -235.525802136,1215.61713826 -234.43907686,1217.85454971 -221.418803023,1211.52728241 " moovel_rot="-85.8" moovel_centroid="-229.006730106,1208.0485011742833"/>
  <polygon id="252079920" class="tile" points="-260.513621236,1235.95458582 -260.465533754,1231.90481134 -260.398897512,1226.46717762 -259.371985432,1226.52659335 -250.790013837,1226.41964634 -250.927432104,1215.79013461 -259.509403781,1215.89708285 -260.373192019,1215.90125211 -260.465573436,1204.69445935 -260.494637049,1201.0 -243.74431775,1212.35492117 -236.609027502,1217.19833126 -236.535894129,1235.85038914 -260.513621236,1235.95458582 " moovel_rot="-3.8" moovel_centroid="-248.593601531,1222.2904096119566"/>
  <polygon id="258619241" class="tile" points="-270.94528062,1201.05058288 -267.064271291,1201.0179259 -261.836889461,1201.0 -261.771635683,1201.51185719 -261.513621236,1217.90598964 -261.532658167,1241.90557576 -262.625775878,1241.92006683 -262.602465786,1243.18183805 -262.588177396,1246.15756016 -271.837413504,1246.3600888 -285.9937282,1246.57742104 -285.983677895,1242.17607816 -286.060169553,1225.59114657 -270.830057488,1225.47015381 -270.94528062,1201.05058288 " moovel_rot="61.9" moovel_centroid="-271.535685413,1228.877016705364"/>
  <polygon id="335920880" class="tile" points="-287.060169553,1201.03038554 -301.946843649,1201.0 -301.975873868,1240.90368863 -287.090037868,1240.92744778 -287.060169553,1201.03038554 " moovel_rot="-82.9" moovel_centroid="-294.518437065,1220.9651918198877"/>
  <polygon id="299950333" class="tile" points="-303.079313437,1246.22294482 -311.172076681,1245.61602226 -311.122165144,1237.2985694 -311.092318256,1231.91945908 -319.974417423,1231.46533696 -319.980170841,1201.0 -310.921777169,1201.02915417 -311.060239678,1226.28992196 -302.975873868,1226.76127159 -303.079313437,1246.22294482 " moovel_rot="-29.2" moovel_centroid="-312.425937742,1223.5373690895951"/>
  <polygon id="219804228" class="tile" points="-331.311042079,1201.0 -320.980170841,1237.56548833 -344.527887629,1243.80171411 -332.618731744,1287.86502645 -361.896909496,1270.4087797 -383.432124404,1268.51635237 -383.485539739,1215.85876341 -378.384090129,1214.06968845 -331.311042079,1201.0 " moovel_rot="67.0" moovel_centroid="-355.397719364,1239.3220300027363"/>
  <polygon id="109864791" class="tile" points="-403.008109296,1346.37114535 -403.413340203,1295.5106818 -399.462813595,1295.47048464 -400.628742713,1276.28480705 -417.574259518,1276.24514019 -418.017400787,1276.05326802 -418.378339177,1275.61137437 -418.432404328,1275.04873674 -418.336064148,1274.56325466 -418.365688985,1270.80412412 -418.393711236,1266.33442619 -418.172199998,1265.85315768 -417.859409566,1265.52195471 -396.17901797,1265.25289511 -394.976194341,1265.2512595 -394.189547858,1265.16820164 -393.567007188,1265.04965846 -392.848854169,1264.7686165 -392.348307252,1264.44373419 -391.924046281,1264.15841514 -391.594378005,1263.58341616 -391.374304747,1262.93544418 -391.170808561,1261.99573744 -390.892436896,1259.63075584 -389.775431247,1247.80781614 -389.615357974,1247.62033545 -389.388229543,1247.46413638 -388.816021122,1247.54144889 -385.227166999,1247.78866857 -384.485539739,1236.70114057 -384.49117645,1219.50365041 -389.104914196,1219.59362893 -389.147298141,1219.08100126 -389.273177972,1218.58709675 -389.508361129,1217.89102422 -389.964172097,1216.88230159 -390.408741011,1216.11738638 -390.904361735,1215.46497685 -391.364944065,1214.9626131 -391.820910906,1214.42482662 -392.49621346,1213.80569115 -393.026163732,1213.49292656 -394.20893256,1213.04864163 -395.782206945,1212.40208458 -396.603017744,1211.94751464 -396.609905358,1210.57846191 -396.614167901,1208.04665448 -441.456497777,1205.86291557 -484.700806208,1201.0 -485.113903743,1204.77983067 -485.201733268,1205.11111961 -485.391802214,1205.32567873 -485.615180105,1205.4277012 -485.862781804,1205.41093904 -486.749751143,1215.78575698 -486.812173406,1233.81040421 -486.436720294,1249.54093718 -486.194840464,1274.63789929 -484.624725493,1274.67391122 -482.648237884,1274.71424281 -482.135155766,1274.8644658 -481.702109948,1275.1084281 -481.402463533,1275.77951163 -481.49866597,1276.60672898 -481.85472331,1277.21922147 -482.642525021,1277.41271618 -486.050838352,1277.55730268 -485.316550954,1322.88339178 -481.06954152,1322.90374573 -480.909390641,1326.30864835 -480.895857736,1327.55056611 -480.693863795,1329.69481647 -480.296307723,1330.79518381 -479.717624063,1331.62264877 -478.518283619,1332.7649932 -476.553651788,1334.44523226 -478.785158856,1338.08885765 -472.135775583,1343.59036412 -466.070569972,1349.09373202 -460.24100151,1354.90748624 -448.977591873,1368.2518374 -445.247812112,1365.93196542 -444.529966248,1366.59278179 -443.468914712,1367.51419516 -442.605707623,1368.07504708 -441.572914721,1368.65471679 -440.405284965,1368.97397035 -438.445821163,1369.32269581 -437.20860217,1373.38645071 -414.360075092,1366.74171452 -415.348251132,1362.86141529 -411.568878175,1361.48132134 -409.468784801,1360.20477975 -407.965704917,1358.99052462 -407.040174674,1358.05735661 -405.277791679,1355.69088773 -404.159439212,1353.72217018 -403.109856732,1350.87200115 -402.886871571,1348.5257861 -403.008109296,1346.37114535 " moovel_rot="-18.2" moovel_centroid="-440.468789844,1279.1404992950543"/>
  <polygon id="219041284" class="tile" points="-511.252820115,1201.93844012 -496.600729642,1201.0 -495.756481047,1225.44834064 -488.05590262,1228.46147688 -487.812173406,1235.34152206 -511.270325497,1236.00665032 -510.432974343,1226.3504841 -511.252820115,1201.93844012 " moovel_rot="-79.7" moovel_centroid="-502.121964146,1220.169437077879"/>
  <polygon id="219035790" class="tile" points="-512.270325497,1201.0 -512.283351636,1225.57075384 -519.6878507,1225.57852524 -519.686253135,1226.49712318 -536.624379249,1226.49892956 -536.619578819,1201.01040192 -512.270325497,1201.0 " moovel_rot="7.2" moovel_centroid="-524.543096069,1213.614019119215"/>
  <polygon id="118766904" class="tile" points="-48.3388594938,1435.92096319 -48.9585392648,1433.96889328 -57.2569976818,1407.96969198 -57.8129779391,1406.22935924 -57.811232752,1381.20933692 -57.806991633,1373.38645071 -14.3248134121,1378.1407837 -7.27228414714,1378.33752132 0.0,1378.54177534 -4.13007454947,1403.32179863 -1.23432080895,1426.80350797 -48.3388594938,1435.92096319 " moovel_rot="-68.7" moovel_centroid="-30.24444002492158,1403.20503475"/>
  <polygon id="240197648" class="tile" points="-60.7315969244,1373.94004159 -88.5741022553,1373.38645071 -88.6236142859,1427.48990499 -71.8965253793,1427.06775504 -59.8129779391,1426.76206507 -60.59903519,1392.38500812 -60.502273741,1383.03075398 -60.7315969244,1373.94004159 " moovel_rot="-13.8" moovel_centroid="-74.5232887539,1400.54073916"/>
  <polygon id="370626651" class="tile" points="-113.012693604,1400.21844999 -89.6236142859,1400.11668249 -89.6841619011,1373.3961171 -105.73927037,1373.38645071 -108.478507734,1377.72107219 -112.984247311,1377.5470994 -113.012693604,1400.21844999 " moovel_rot="-18.5" moovel_centroid="-100.972269467,1387.26552024"/>
  <polygon id="220378117" class="tile" points="-114.012693604,1382.73316049 -122.519134272,1382.76882869 -122.509584997,1399.70887286 -130.864269979,1399.69456299 -131.041009729,1403.11286442 -138.176087487,1402.95918891 -138.186818355,1373.4895586 -114.014493994,1373.38645071 -114.012693604,1382.73316049 " moovel_rot="51.5" moovel_centroid="-128.676224135,1385.95813164"/>
  <polygon id="222973539" class="tile" points="-139.255531964,1497.94074815 -170.948640342,1497.51177021 -171.932555624,1378.18871524 -155.569992372,1375.749946 -139.186818355,1373.38645071 -139.255531964,1497.94074815 " moovel_rot="-94.4" moovel_centroid="-155.218627399,1436.40123418"/>
  <polygon id="299598614" class="tile" points="-189.638638219,1373.62025916 -184.884885463,1373.41652925 -182.84769955,1373.38645071 -182.877036819,1374.26506938 -182.814334559,1376.17653078 -181.060567257,1376.11951961 -181.052938392,1376.423228 -178.539649689,1376.34333332 -178.472933025,1378.41464075 -175.262534993,1378.31235129 -175.325721676,1376.23537372 -172.937256549,1376.15645686 -173.079296343,1380.44229936 -173.076841042,1385.51041018 -172.932555624,1397.10230638 -174.517529689,1400.66308341 -185.318014341,1394.03478217 -185.714520929,1385.55871562 -189.391006433,1385.37875854 -189.674029323,1379.08178297 -189.638638219,1373.62025916 " moovel_rot="58.1" moovel_centroid="-180.45745742,1385.71686539"/>
  <polygon id="376403749" class="tile" points="-204.097962528,1402.74809988 -190.674029323,1402.72692328 -190.696979928,1373.38645071 -204.121980026,1373.41422072 -204.097962528,1402.74809988 " moovel_rot="80.9" moovel_centroid="-197.397486757,1388.06872793"/>
  <polygon id="255803281" class="tile" points="-205.154621787,1401.98612025 -205.128099049,1383.45697466 -205.121980026,1373.38645071 -225.178594244,1380.22501667 -216.463969349,1404.89996195 -205.154621787,1401.98612025 " moovel_rot="-63.0" moovel_centroid="-213.128200558,1388.84189639"/>
  <polygon id="329066278" class="tile" points="-226.178594244,1373.46404992 -226.244817767,1388.99483433 -233.603928855,1389.06742772 -233.610611653,1373.38645071 -226.178594244,1373.46404992 " moovel_rot="23.6" moovel_centroid="-229.915393905,1381.21531791"/>
  <polygon id="329318004" class="tile" points="-234.610611653,1373.38645071 -260.032807369,1373.56312238 -259.852394979,1762.20587452 -234.994808412,1762.13839715 -234.610611653,1373.38645071 " moovel_rot="50.9" moovel_centroid="-247.371891159,1567.09602476"/>
  <polygon id="370925180" class="tile" points="-308.816077923,1443.89550804 -261.032807369,1443.48994089 -261.102019074,1373.38645071 -278.14910882,1373.69543616 -278.227777637,1382.60576935 -292.484692499,1382.40232958 -292.246277701,1373.60313181 -308.73978968,1373.81255182 -308.816077923,1443.89550804 " moovel_rot="-8.0" moovel_centroid="-284.916392022,1409.87361594"/>
  <polygon id="445049771" class="tile" points="-373.574351412,1373.38645071 -381.66501144,1373.44003205 -389.435859112,1382.17052017 -389.437655955,1478.58795073 -374.414351241,1490.76773342 -313.522563436,1422.51770642 -309.816077923,1409.22837655 -342.07447013,1386.46544022 -373.574351412,1373.38645071 " moovel_rot="21.1" moovel_centroid="-359.675467893,1425.8642986"/>
  <polygon id="222912945" class="tile" points="-390.507439876,1373.76305025 -398.207577092,1373.38645071 -399.035921105,1465.10705125 -390.437655955,1465.23334184 -390.507439876,1373.76305025 " moovel_rot="-92.8" moovel_centroid="-394.552688449,1420.21256378"/>
  <polygon id="299674963" class="tile" points="-400.839840458,1381.7195028 -406.312374205,1377.49885494 -410.43638988,1373.38645071 -408.83824909,1397.12748751 -408.531474824,1416.40368307 -409.613755469,1440.9212674 -410.501014306,1451.99009259 -407.225948853,1454.57383284 -403.252554369,1457.83955043 -401.771760515,1448.57437402 -400.035921105,1416.51653739 -400.104266133,1398.5669247 -400.839840458,1381.7195028 " moovel_rot="2.5" moovel_centroid="-405.042933221,1415.74654052"/>
  <polygon id="220792596" class="tile" points="-424.210604932,1418.58935267 -416.848751676,1421.54267215 -412.859573284,1410.8681738 -411.501014306,1403.00669653 -411.563493493,1394.86012832 -412.73134294,1387.98763063 -414.484681996,1381.42159365 -417.228653789,1373.38645071 -424.224717261,1376.95057901 -421.026776572,1384.37097971 -418.785988678,1395.2120748 -419.353250732,1405.68992687 -421.024021957,1412.24264571 -424.210604932,1418.58935267 " moovel_rot="-27.9" moovel_centroid="-417.035216716,1397.7350589"/>
  <polygon id="373545758" class="tile" points="-431.494022408,1456.49481118 -426.210629679,1451.71523743 -439.779390906,1435.36670624 -438.993700682,1421.21766905 -425.224717261,1408.86066938 -437.928509486,1373.38645071 -457.640061193,1390.86472951 -437.054298936,1411.01170729 -441.729421285,1416.79183173 -448.948165913,1423.89758584 -450.256033348,1423.41134178 -452.732927615,1425.71573598 -451.026652654,1427.49789648 -453.885182473,1430.23905878 -455.443921294,1428.61089331 -457.605051994,1431.08254535 -431.494022408,1456.49481118 " moovel_rot="13.7" moovel_centroid="-440.582301725,1411.7260178"/>
  <polygon id="299944956" class="tile" points="-458.640061193,1373.49048306 -472.665137193,1373.38645071 -473.203156956,1391.46223641 -466.372361205,1391.44496966 -466.713920804,1411.18883944 -467.22761027,1421.16506411 -458.646211022,1420.86090361 -458.640061193,1373.49048306 " moovel_rot="-61.8" moovel_centroid="-464.298083343,1394.00496436"/>
  <polygon id="181275814" class="tile" points="-480.516606566,1448.0428358 -481.592597671,1457.29710533 -505.299552566,1455.87800835 -531.039609951,1415.72860964 -532.404533854,1403.82088518 -532.403119589,1373.38645071 -474.203156956,1379.59775312 -474.722125666,1389.12884436 -488.202248256,1388.4807834 -489.136385103,1401.48314897 -474.628730366,1402.11519399 -475.151540144,1409.5039383 -478.50368659,1409.0075561 -480.516606566,1448.0428358 " moovel_rot="-17.5" moovel_centroid="-503.570762779,1412.09709139"/>
  <polygon id="278078925" class="tile" points="-543.565284085,1416.92502475 -533.404533854,1409.30909497 -545.791407965,1397.40398761 -542.761397615,1394.24477532 -533.416088358,1384.52569194 -534.281869765,1383.67310642 -542.683999395,1375.44189505 -544.787756194,1373.38645071 -558.552680689,1391.04588866 -557.975039544,1391.4912142 -562.891720387,1397.80445367 -550.054863562,1410.53926397 -549.085026463,1411.46567188 -547.613599052,1412.92035358 -546.079027608,1414.43335649 -544.70587366,1415.79634085 -543.565284085,1416.92502475 " moovel_rot="2.9" moovel_centroid="-547.084802638,1395.50339127"/>
  <polygon id="356330309" class="tile" points="-563.891720387,1410.93255551 -563.909478663,1373.38645071 -578.610324549,1373.5704936 -579.490611516,1409.63187638 -563.891720387,1410.93255551 " moovel_rot="-28.4" moovel_centroid="-571.427930419,1392.06742306"/>
  <polygon id="329778919" class="tile" points="-15.2183144359,1762.20587452 -0.0291870877147,1762.3925304 0.0,1832.01477339 -2.11660857573,1893.52186636 -7.28733816538,1892.93474061 -6.73229513839,1831.51303962 -16.1236194849,1830.95277854 -15.2183144359,1762.20587452 " moovel_rot="80.8" moovel_centroid="-6.8617577679608415,1813.38987927"/>
  <polygon id="443136837" class="tile" points="-81.0375981014,1776.26309327 -50.811648467,1882.84920903 -50.8428763554,1899.80853194 -81.0324438563,1975.68897682 -80.3441255787,1992.80195363 -72.8044896754,2005.2594993 -18.1236194849,1963.64698593 -46.5073686419,1762.20587452 -81.0375981014,1776.26309327 " moovel_rot="1.7" moovel_centroid="-50.0960002543,1891.70638004"/>
  <polygon id="396940661" class="tile" points="-112.438712558,1821.0733943 -109.868747015,1824.54317289 -86.4225312693,1830.06344104 -82.0375981014,1799.52221878 -82.0491846878,1762.20587452 -90.3639091384,1763.85033991 -88.93008762,1777.47266192 -91.2351791175,1786.34918249 -99.6980150599,1789.45229529 -115.140465802,1788.02646633 -112.489256941,1799.34531505 -112.438712558,1821.0733943 " moovel_rot="66.4" moovel_centroid="-95.9459752089,1802.33914647"/>
  <polygon id="412123948" class="tile" points="-116.140465802,1766.75136593 -123.480501254,1762.20587452 -129.857592268,1766.25214485 -129.840382557,1793.0217602 -123.733654605,1788.50354975 -116.928822628,1793.54775629 -116.140465802,1766.75136593 " moovel_rot="28.4" moovel_centroid="-123.158025477,1777.51220505"/>
  <polygon id="223631878" class="tile" points="-147.314827062,1843.48868753 -153.815311639,1843.65377158 -153.81867118,1762.34303875 -131.184887992,1762.20587452 -130.857592268,1795.04295178 -141.442839427,1794.84032606 -141.144209277,1815.18308965 -147.118344056,1815.71822374 -147.314827062,1843.48868753 " moovel_rot="4.7" moovel_centroid="-144.791452575,1792.34125383"/>
  <polygon id="253906774" class="tile" points="-178.03794189,1762.20587452 -178.052199047,1779.41816029 -178.058784468,1787.46764171 -154.839527799,1787.51605 -154.81867118,1762.25428081 -178.03794189,1762.20587452 " moovel_rot="-81.9" moovel_centroid="-166.438745159,1774.8609623"/>
  <polygon id="344153860" class="tile" points="-179.058784468,1879.12513405 -179.750958746,1890.44869705 -187.836497705,1914.91473826 -195.092261171,1944.23291907 -199.018886237,1960.18805805 -212.014397553,1960.78487458 -211.959855802,1762.20587452 -199.811356701,1762.23161435 -200.634986534,1878.91631921 -179.058784468,1879.12513405 " moovel_rot="-80.5" moovel_centroid="-202.237558687,1874.32573055"/>
  <polygon id="185610602" class="tile" points="-260.784390341,1771.99432158 -260.932440322,1762.20587452 -213.014397553,1762.29553914 -213.083709452,1848.33957923 -221.185760311,1849.36910231 -221.29544289,1842.55452923 -227.351418737,1842.60077673 -227.611928527,1831.53062805 -221.135509603,1831.27824656 -221.156517096,1810.29877133 -260.961634808,1810.86882081 -260.660908614,1801.43551334 -257.877368052,1803.15649907 -257.861096725,1808.85678287 -229.666497241,1809.25198965 -229.340432613,1800.53163144 -221.901981241,1800.47599739 -221.40411589,1785.46041986 -235.687246659,1785.32231003 -235.864273254,1793.41189016 -257.616930206,1793.24090252 -257.746097958,1796.05791725 -260.725099468,1797.7377682 -260.92879896,1781.99548038 -236.654855591,1782.2732751 -236.880863408,1772.30979373 -260.784390341,1771.99432158 " moovel_rot="40.2" moovel_centroid="-230.583519072,1792.73159764"/>
  <polygon id="237871136" class="tile" points="-275.681422806,1764.07723213 -271.223576845,1764.05961817 -271.086889075,1762.20587452 -269.10602763,1762.24205032 -267.210584354,1762.35143211 -267.202928023,1764.13642231 -267.443812649,1772.36913017 -265.163777547,1772.35223496 -265.204053653,1776.89585479 -261.967352462,1776.92735456 -261.961634808,1777.96935676 -261.998606351,1781.81220684 -261.96357342,1786.01100708 -267.564106992,1786.50786993 -267.573064855,1780.73972214 -272.458480309,1781.20897045 -276.02588071,1781.46913186 -275.681422806,1764.07723213 " moovel_rot="58.8" moovel_centroid="-269.643762682,1774.57567274"/>
  <polygon id="157893640" class="tile" points="-277.02588071,1808.95725902 -308.947208178,1808.88052673 -308.944165752,1762.20587452 -277.028510154,1762.29197079 -277.02588071,1808.95725902 " moovel_rot="-68.8" moovel_centroid="-292.98697571,1785.5845975"/>
  <polygon id="326405397" class="tile" points="-312.925568204,1778.4280061 -312.919641498,1762.20587452 -310.018044676,1766.11897795 -309.947208178,1774.53772443 -312.925568204,1778.4280061 " moovel_rot="-83.7" moovel_centroid="-311.607707908,1770.35602971"/>
  <polygon id="442637491" class="tile" points="-313.926484288,1797.17739717 -327.329184007,1784.1877473 -319.490324743,1762.20587452 -313.925568204,1763.79822451 -313.926484288,1797.17739717 " moovel_rot="-37.7" moovel_centroid="-318.823181688,1779.02190157"/>
  <polygon id="276542273" class="tile" points="-343.871505914,1762.20587452 -345.733459067,1768.48023583 -344.202074203,1768.93399021 -359.472187799,1820.57203596 -361.50347124,1819.97054328 -363.320940109,1826.11117989 -361.289656692,1826.71267265 -377.072469366,1879.84962844 -379.119357846,1880.07797044 -378.439598878,1886.22350351 -375.895053453,1885.93803727 -369.877865887,1940.17497206 -328.329184007,1935.57027167 -329.899464431,1921.43704765 -358.161628573,1924.57008854 -362.992947987,1881.07253929 -358.249308013,1864.92938134 -361.077582157,1864.09987703 -355.004531326,1843.53716034 -351.498902644,1844.57343382 -345.419488876,1824.01274955 -344.567721336,1821.11368004 -328.497838778,1766.7540384 -341.719805871,1762.8474237 -343.871505914,1762.20587452 " moovel_rot="-18.4" moovel_centroid="-355.127537947,1860.65057795"/>
  <polygon id="278749393" class="tile" points="-423.962487703,1762.20587452 -380.744502225,1763.47401539 -380.472440769,1769.54438749 -380.124211558,1777.42628493 -380.119357846,1784.41379862 -380.121502948,1799.95948898 -380.124322459,1814.58995834 -380.124814678,1830.31062673 -380.122655834,1844.05733171 -380.12029047,1859.23461579 -380.124627811,1874.27107478 -380.122773266,1889.1141177 -380.1218907,1895.68603913 -389.6845365,1896.08023246 -389.696315049,1892.30655451 -389.752885137,1891.9919703 -390.000834474,1891.83538131 -390.350026449,1891.73726794 -390.690732927,1891.6863422 -398.902588619,1891.86520639 -416.81381222,1882.29389617 -416.556796526,1881.71369196 -416.476061848,1881.18900229 -416.570984019,1880.78544577 -416.772390116,1880.45265202 -417.047046074,1880.02326217 -419.931733705,1878.66939524 -415.125756632,1868.81066207 -411.510319753,1870.66501574 -411.212039984,1870.48000369 -411.117246841,1869.74346919 -411.005532488,1866.84300088 -441.56040259,1866.38694701 -441.418673377,1861.29182291 -441.486104846,1860.39895725 -441.699034947,1859.98137296 -441.958925715,1859.69624713 -442.446136096,1859.45212741 -445.772121796,1859.02102138 -428.183090289,1766.57780429 -424.790125238,1767.00843392 -424.515011889,1766.92246119 -424.355909544,1766.7506987 -424.221848492,1766.48111868 -423.962487703,1762.20587452 " moovel_rot="66.9" moovel_centroid="-407.230380748,1825.53787791"/>
  <polygon id="104903380" class="tile" points="-446.772121796,1762.20587452 -451.808172764,1762.73897493 -454.463006897,1769.24321853 -455.975288036,1774.68548218 -455.311699805,1781.73353656 -455.186784538,1788.5973457 -454.477141031,1792.78606903 -452.466188017,1794.72926886 -450.431443402,1796.47769755 -446.797423091,1797.3770876 -448.921491634,1784.7439676 -450.146219268,1784.27795556 -448.891619195,1782.99030484 -449.135108145,1777.6874927 -448.412285864,1772.69881499 -447.513223194,1766.33401897 -446.772121796,1762.20587452 " moovel_rot="19.3" moovel_centroid="-451.442224159,1779.62607607"/>
  <polygon id="412123947" class="tile" points="-456.98035561,1790.95156026 -456.975288036,1762.28512121 -479.29461555,1762.20587452 -479.296322585,1790.87808594 -456.98035561,1790.95156026 " moovel_rot="-60.2" moovel_centroid="-468.137019116,1776.57979939"/>
  <polygon id="299950365" class="tile" points="-488.734124148,1777.10603108 -480.556743485,1777.07452727 -480.296322585,1769.48004691 -482.330881476,1768.12766789 -482.246420022,1762.20587452 -488.7290544,1762.90781751 -488.734124148,1777.10603108 " moovel_rot="-29.9" moovel_centroid="-484.903203282,1770.25043164"/>
  <polygon id="167246605" class="tile" points="-489.734124148,1762.31028083 -489.755317894,1788.01004411 -513.674579434,1787.90559771 -513.65341083,1762.20587452 -489.734124148,1762.31028083 " moovel_rot="-32.1" moovel_centroid="-501.704354957,1775.10794706"/>
  <polygon id="261303998" class="tile" points="-516.932306843,1786.15374014 -557.176931885,1762.20587452 -562.841168965,1766.87221662 -563.013695416,1883.63801526 -514.674579434,1881.45911059 -516.932306843,1786.15374014 " moovel_rot="-7.4" moovel_centroid="-540.345124833,1828.0537625"/>
  <polygon id="231847175" class="tile" points="-576.689662765,1762.69040979 -586.450182661,1762.20587452 -586.959301664,1821.82677506 -564.013695416,1822.94615951 -564.01490008,1817.68282148 -576.689662765,1762.69040979 " moovel_rot="-22.6" moovel_centroid="-577.793274988,1796.59890344"/>
  <polygon id="443361971" class="tile" points="0.0,2005.2594993 -27.4244771378,2007.97970037 -26.166951216,2039.05172204 -0.0366617839783,2038.06520093 0.0,2005.2594993 " moovel_rot="11.6" moovel_centroid="-13.29482506631883,2022.44933414"/>
  <polygon id="251716640" class="tile" points="-29.4244771378,2027.47772001 -60.5556155151,2081.76165422 -68.0734563971,2081.87145792 -68.1629900986,2005.2594993 -29.4244771378,2027.47772001 " moovel_rot="-85.7" moovel_centroid="-54.9158497735,2041.264619"/>
  <polygon id="277182905" class="tile" points="-69.4102060972,2037.15770514 -69.1629900986,2025.37167729 -69.5143816503,2019.02909473 -70.8822818214,2007.64677502 -76.3586259758,2008.24979167 -79.0896572532,2008.34814502 -80.4920325598,2007.55794715 -81.6655399946,2005.2594993 -89.9975933013,2010.1958666 -92.2901098782,2012.79499483 -94.1313872209,2016.06273568 -95.0314845929,2019.85069519 -95.6575541122,2024.62176686 -95.6555841358,2027.89728382 -94.5728404434,2030.35681136 -92.599486577,2032.69158786 -89.6318043949,2034.36379083 -86.7190132381,2035.39869305 -74.5939142017,2038.32984553 -71.2661726793,2038.98208194 -70.012326313,2038.2535081 -69.4102060972,2037.15770514 " moovel_rot="-29.4" moovel_centroid="-81.3312903018,2022.63391138"/>
  <polygon id="343290229" class="tile" points="-96.7046442237,2006.15059326 -106.351290114,2005.2594993 -106.679222071,2035.38131848 -96.6575541122,2035.58494762 -96.7046442237,2006.15059326 " moovel_rot="1.6" moovel_centroid="-101.618108731,2020.68679369"/>
  <polygon id="389581951" class="tile" points="-121.897988057,2024.88908165 -121.909517388,2005.26609115 -107.687284474,2005.2594993 -107.679222071,2020.48861815 -111.353279162,2020.48600064 -111.34996559,2024.88865804 -121.897988057,2024.88908165 " moovel_rot="-1.0" moovel_centroid="-115.117068424,2014.60759658"/>
  <polygon id="103109950" class="tile" points="-128.110340036,2146.34455647 -125.240073114,2159.29465333 -123.168496816,2173.70250097 -123.109715604,2194.78540248 -123.211247219,2217.29393034 -133.137100835,2238.90693556 -139.536480736,2239.5309765 -147.673314535,2240.28351944 -148.847008752,2241.99718179 -150.302007452,2244.12401727 -152.972669726,2248.02699199 -158.489626782,2246.83346436 -161.893811775,2244.48797941 -164.725105239,2241.62558857 -169.032792846,2234.8524391 -195.167330586,2163.56754705 -218.511764468,2064.32074286 -211.024777565,2032.53042941 -200.032783089,2029.38065292 -199.124749716,2028.21922162 -198.784670341,2026.3747216 -199.472015685,2024.20082 -196.432215561,2022.98456341 -194.709807963,2027.90096665 -188.273467577,2026.05721634 -185.708038797,2025.31759634 -186.947684199,2020.3600017 -178.043073098,2017.66370273 -163.22782617,2063.59388877 -135.534012659,2055.94986731 -138.806116007,2045.10965559 -129.44571225,2042.42912206 -139.600998468,2009.00763655 -125.397541627,2005.2594993 -122.909517388,2022.23916881 -127.296958007,2043.48005421 -139.002823069,2066.49479168 -145.200200885,2090.15007521 -138.673161852,2111.60958308 -137.271705814,2116.225465 -129.021074282,2143.33300732 -128.110340036,2146.34455647 " moovel_rot="-13.1" moovel_centroid="-166.647643629,2128.9599446"/>
  <polygon id="404110991" class="tile" points="-225.818412968,2005.2594993 -219.683019134,2010.12046335 -219.511764468,2144.3714945 -255.334493188,2137.78953997 -225.818412968,2005.2594993 " moovel_rot="21.1" moovel_centroid="-231.858602264,2089.73238284"/>
  <polygon id="324991428" class="tile" points="-256.339375707,2026.97564053 -256.334493188,2005.29283495 -266.619499033,2005.2594993 -266.624373508,2026.9422906 -256.339375707,2026.97564053 " moovel_rot="-29.4" moovel_centroid="-261.479434793,2016.11756493"/>
  <polygon id="201026323" class="tile" points="-280.671307071,2005.2594993 -280.557637622,2012.04860458 -280.663105648,2021.92288869 -273.135987104,2022.18764608 -272.448826196,2027.04745817 -271.045271683,2027.46063198 -268.375001735,2027.59875324 -267.624373508,2005.45422225 -280.671307071,2005.2594993 " moovel_rot="10.7" moovel_centroid="-273.879390284,2014.7726709"/>
  <polygon id="292846307" class="tile" points="-281.675144841,2028.93736143 -281.671307071,2005.26173863 -293.20455801,2005.2651682 -298.776174239,2005.2594993 -298.868823425,2007.76871437 -298.871387469,2028.9346451 -281.675144841,2028.93736143 " moovel_rot="-29.0" moovel_centroid="-290.269024762,2017.10255751"/>
  <polygon id="201032952" class="tile" points="-324.824830013,2055.82104353 -324.826664414,2005.2594993 -313.243128006,2005.27329376 -299.871387469,2005.29954973 -299.879459389,2055.85618409 -311.640318585,2055.84901731 -324.824830013,2055.82104353 " moovel_rot="-79.2" moovel_centroid="-312.350778645,2030.5585468"/>
  <polygon id="389581944" class="tile" points="-346.421743194,2132.39861032 -366.810795568,2128.35654371 -373.73960912,2126.98258567 -387.892548679,2124.17772778 -388.000351981,2005.2594993 -325.826664414,2018.55249723 -346.421743194,2132.39861032 " moovel_rot="-80.1" moovel_centroid="-361.721411649,2066.20403943"/>
  <polygon id="415563733" class="tile" points="-433.210944678,2104.80392639 -441.245116226,2101.32700471 -436.469339182,2094.80205486 -432.616710192,2088.95373775 -430.129686791,2083.9220181 -428.227141423,2077.59526062 -426.328462831,2072.55978361 -425.186060257,2063.6711521 -424.230537097,2054.78968629 -425.161531921,2045.86649687 -426.275700017,2037.04694684 -427.62083493,2031.78471731 -430.627232014,2025.55865304 -432.591660308,2020.53100372 -436.375511197,2014.59829402 -441.254596939,2007.82053394 -437.235578715,2005.2594993 -428.436016501,2008.30304597 -395.080117355,2019.8453223 -389.000351981,2049.3520515 -402.829998131,2064.65680496 -416.596641514,2081.60156681 -417.086637102,2082.24400062 -426.395206093,2094.48531148 -433.210944678,2104.80392639 " moovel_rot="2.2" moovel_centroid="-414.675306053,2046.36168598"/>
  <polygon id="252080546" class="tile" points="-460.499195104,2029.33398559 -462.623740314,2029.33640659 -462.626321985,2005.27982793 -442.26529728,2005.2594993 -442.254596939,2020.39309522 -442.256060445,2029.31551213 -446.638999459,2029.3227947 -460.499195104,2029.33398559 " moovel_rot="4.8" moovel_centroid="-452.441518377,2017.299166"/>
  <polygon id="185193599" class="tile" points="-477.179355415,2034.99807662 -477.182509751,2005.2594993 -463.626321985,2014.46273664 -468.652176935,2022.2296799 -470.621708475,2020.97807214 -473.536358212,2025.36333498 -471.610193139,2026.64651777 -477.179355415,2034.99807662 " moovel_rot="6.7" moovel_centroid="-472.748285723,2017.90852921"/>
  <polygon id="185193629" class="tile" points="-487.066317518,2005.2594993 -490.752029195,2011.92980952 -491.131521216,2043.80757249 -491.082427814,2054.90979782 -478.247961297,2054.95995336 -478.184248218,2050.74357346 -478.289812396,2044.42074878 -478.182509751,2012.15522382 -482.282168384,2008.53347859 -487.066317518,2005.2594993 " moovel_rot="5.5" moovel_centroid="-484.658886573,2031.79814633"/>
  <polygon id="266034075" class="tile" points="-492.131521216,2046.53541404 -492.155318607,2011.19105271 -492.161836418,2005.2594993 -516.371828147,2005.27663387 -516.344676929,2046.55843128 -509.219199636,2046.55519439 -502.090500295,2046.54610687 -495.042693854,2046.53813979 -492.131521216,2046.53541404 " moovel_rot="61.1" moovel_centroid="-504.252320907,2025.90842148"/>
  <polygon id="230255295" class="tile" points="-26.8598190794,2248.78336513 -25.3882140756,2315.9589072 -25.8538664181,2318.33774496 -27.0543098861,2321.01148636 -29.5595528908,2322.93658713 -92.8172217362,2323.54686042 -92.8747658009,2415.11727128 -27.7670071855,2410.94262777 -17.7875186021,2408.84264334 -9.93206722476,2398.05778223 -4.66488989331,2389.27743139 -1.28348692898,2380.64966767 0.0,2373.25770753 -1.62187222894,2273.80662961 -1.83611755036,2269.98000805 -2.58031259291,2266.41183557 -4.01709848307,2263.31406958 -5.70871171318,2259.68401135 -8.0034811059,2255.75951329 -10.9556157064,2251.82731679 -14.1747611817,2248.02699199 -26.8598190794,2248.78336513 " moovel_rot="52.5" moovel_centroid="-42.25263478325311,2352.47619497"/>
  <polygon id="395180438" class="tile" points="-94.8747658009,2272.31237258 -121.185120117,2294.23928264 -123.772344453,2291.14698694 -107.668366655,2277.72072557 -123.761923635,2258.51695105 -120.413949336,2255.73009421 -122.081493306,2253.74406699 -115.228907707,2248.02699199 -94.8747658009,2272.31237258 " moovel_rot="-29.2" moovel_centroid="-110.590713954,2268.30207024"/>
  <polygon id="266149318" class="tile" points="-124.793050167,2248.89167795 -131.595002274,2248.89939147 -131.594056921,2248.02699199 -132.457373721,2248.22266529 -132.45960614,2248.79334687 -134.111251055,2249.98864081 -136.996541257,2249.99121316 -136.979289691,2272.44579858 -124.772344453,2272.43182002 -124.777576542,2271.11453683 -124.793050167,2248.89167795 " moovel_rot="-28.9" moovel_centroid="-130.82989193,2260.79618021"/>
  <polygon id="185633513" class="tile" points="-138.015637343,2248.09663427 -138.015204346,2253.49417781 -138.000226151,2269.0746362 -137.996541257,2275.70575524 -160.56065204,2275.63607924 -160.579788458,2248.02699199 -138.015637343,2248.09663427 " moovel_rot="-50.1" moovel_centroid="-149.288597771,2261.8667056"/>
  <polygon id="185193604" class="tile" points="-164.661485413,2274.96512834 -161.604315399,2274.98043968 -161.579788458,2248.04716742 -164.641535814,2248.02699199 -164.661485413,2274.96512834 " moovel_rot="-46.8" moovel_centroid="-163.121824285,2261.50157039"/>
  <polygon id="443296709" class="tile" points="-165.667765492,2352.86159266 -182.270645826,2354.23966762 -183.953917235,2327.35665027 -176.634208377,2324.51681983 -175.755660507,2278.48009106 -178.733313334,2261.27073094 -174.581339717,2248.02699199 -165.661485413,2248.23846696 -165.667765492,2352.86159266 " moovel_rot="-90.2" moovel_centroid="-172.339271655,2305.88023226"/>
  <polygon id="371137434" class="tile" points="-194.202214424,2286.96461964 -193.353728209,2268.02983991 -187.533786477,2268.24984504 -187.339038193,2263.88929763 -185.071502107,2263.69894285 -185.109637151,2260.77516968 -184.953917235,2248.73680343 -186.562477951,2248.32154514 -209.405274691,2248.02699199 -209.355640322,2289.04899618 -194.202214424,2286.96461964 " moovel_rot="-33.6" moovel_centroid="-199.158500602,2265.8715605"/>
  <polygon id="438253029" class="tile" points="-220.972351092,2248.98441179 -219.154332546,2248.02699199 -212.727399644,2251.29237669 -212.699781916,2293.37297658 -211.461491696,2317.83241848 -210.405274691,2338.34799027 -220.974624535,2340.07001583 -220.972351092,2248.98441179 " moovel_rot="-6.9" moovel_centroid="-216.552806418,2296.3178776"/>
  <polygon id="247143606" class="tile" points="-221.980048213,2257.37641353 -221.974624535,2275.30989675 -243.796188762,2275.24095503 -243.800399878,2248.02699199 -234.579180332,2248.05919853 -234.572730142,2257.33551782 -221.980048213,2257.37641353 " moovel_rot="-61.5" moovel_centroid="-234.01814019,2263.86341095"/>
  <polygon id="201018718" class="tile" points="-244.800399878,2248.02699199 -249.559004059,2248.03287515 -254.120768978,2248.03692667 -254.124922084,2271.9684608 -251.657863756,2271.96217113 -244.804554301,2271.95851922 -244.800399878,2248.02699199 " moovel_rot="10.8" moovel_centroid="-249.462604976,2259.99701253"/>
  <polygon id="152249763" class="tile" points="-258.610568271,2304.07706348 -299.714201383,2296.0770645 -299.66774107,2248.02699199 -269.17038856,2253.42319033 -273.414812562,2277.99328974 -261.203737745,2280.65766616 -261.974958739,2283.76062307 -255.124922084,2285.0371096 -255.133689804,2285.03674213 -258.610568271,2304.07706348 " moovel_rot="87.6" moovel_centroid="-281.489500935,2277.73297229"/>
  <polygon id="252080092" class="tile" points="-300.714201383,2287.64673577 -300.715780152,2248.02888984 -311.810056639,2248.02699199 -311.809055946,2250.88517584 -316.475739208,2250.88423474 -316.476769134,2283.93264949 -316.475160624,2287.64388953 -300.714201383,2287.64673577 " moovel_rot="-4.0" moovel_centroid="-308.474525704,2268.2380725"/>
  <polygon id="182759600" class="tile" points="-426.869148757,2382.09710998 -433.927863417,2341.42261751 -409.103125265,2337.21320175 -417.07102468,2293.48354627 -417.379669473,2291.5091256 -391.88075825,2287.48323767 -391.552415966,2289.5609162 -387.453498119,2288.91277535 -387.781840394,2286.83509687 -357.162153193,2281.99289203 -360.453790443,2261.1730453 -361.106195848,2252.47758603 -329.874635762,2248.02699199 -317.476769134,2324.24699681 -317.494086111,2365.29031702 -383.71977431,2375.46221985 -426.869148757,2382.09710998 " moovel_rot="10.8" moovel_centroid="-368.154013844,2324.75038862"/>
  <polygon id="108144503" class="tile" points="-450.772760147,2295.77297637 -448.534369383,2295.77400324 -445.248202598,2295.77320639 -445.244202085,2301.6407526 -442.20594066,2301.64497385 -439.388543267,2301.65673922 -439.37465396,2297.60498423 -435.090654516,2297.62370572 -434.927863417,2248.07029515 -443.060741696,2248.03231979 -450.797693793,2248.02699199 -450.772760147,2295.77297637 " moovel_rot="-81.1" moovel_centroid="-442.815258634,2273.27050058"/>
  <polygon id="298133591" class="tile" points="-479.219592796,2251.56831198 -479.241730906,2254.97675009 -479.290880842,2262.55766066 -479.358150971,2271.89553975 -479.403032288,2278.01435766 -467.624112322,2278.09861787 -467.305424032,2285.93978746 -459.058923472,2285.96443387 -451.849509538,2289.02745362 -451.929460696,2320.12989395 -451.797693793,2323.22765717 -470.535100913,2323.28536468 -469.469793127,2332.41348408 -488.260674615,2331.38266675 -488.209043695,2320.56487745 -510.06590798,2320.47365905 -512.413136145,2320.40538098 -512.28948145,2303.39870156 -500.197617415,2303.50473106 -500.151634344,2298.46273062 -512.248465463,2298.35223577 -511.79956218,2291.99432511 -495.611873843,2291.99340952 -487.759341759,2291.68699887 -488.124000602,2278.62646156 -488.174148474,2268.84004037 -488.146398284,2267.80105259 -488.139457775,2260.40676641 -488.818793192,2257.02875391 -488.811496178,2248.02699199 -482.765139394,2250.25558093 -479.219592796,2251.56831198 " moovel_rot="-42.0" moovel_centroid="-479.822901378,2301.09012898"/>
  <polygon id="181069594" class="tile" points="-513.413136145,2251.42282108 -519.426517339,2248.02699199 -526.430582395,2253.53080033 -526.043121069,2311.77510966 -513.482596404,2311.25017238 -513.413136145,2251.42282108 " moovel_rot="-16.1" moovel_centroid="-519.812997097,2280.69595737"/>
  <polygon id="224656352" class="tile" points="-550.526325748,2269.21760203 -550.253042208,2281.02505839 -527.450112633,2281.13064481 -527.430582395,2248.02699199 -539.37909524,2248.85474946 -539.381219347,2264.46171313 -534.308935215,2264.30622009 -534.374561833,2269.7017029 -550.526325748,2269.21760203 " moovel_rot="-82.2" moovel_centroid="-536.20573882,2267.36827317"/>
  <polygon id="252080545" class="tile" points="-580.271988543,2278.89750657 -580.294383579,2248.03291302 -555.314757138,2248.02699199 -555.293278483,2254.49332306 -558.753046828,2254.54108473 -558.751139446,2254.06557232 -566.213545043,2254.06514717 -566.209217075,2259.2806229 -551.530706901,2259.27860982 -551.526325748,2267.88868983 -556.193265981,2267.89365108 -558.766814377,2270.68484804 -558.763680889,2278.89998203 -580.271988543,2278.89750657 " moovel_rot="-86.0" moovel_centroid="-568.199804587,2263.48560261"/>
  <polygon id="201146428" class="tile" points="-31.6920015095,2446.08293366 -26.8724960888,2463.70932075 -20.1587619351,2461.7397864 -11.9736250184,2459.34827635 -19.6395892046,2442.84568635 -20.2694002496,2440.85777933 -21.8824838592,2441.28889684 -23.3453447571,2435.90534191 -1.46228524502,2429.99300216 0.0,2429.47157264 -3.32138865106,2422.4196047 -6.75406805892,2415.11727128 -28.5794959115,2421.49138314 -31.7126040565,2422.40507438 -30.0900373595,2428.82422527 -31.4043479389,2429.14800362 -29.7992225854,2435.53107396 -31.2248947335,2435.88643057 -30.0116026221,2440.69327662 -31.1771542333,2440.98223543 -29.9983150212,2445.65736322 -31.6920015095,2446.08293366 " moovel_rot="-64.2" moovel_centroid="-19.58288594279608,2436.66711966"/>
  <polygon id="238072582" class="tile" points="-37.8191650726,2415.11727128 -43.2061940148,2416.55501203 -47.0963797534,2418.69924358 -52.3839832168,2423.76657062 -57.1134467881,2430.57816207 -59.1038297582,2437.8943174 -59.1549213484,2443.58064015 -65.3357086135,2445.7498557 -64.7145477502,2448.13012113 -64.3212663768,2450.97811634 -57.8365960648,2452.59104895 -54.0416382441,2455.14756559 -50.4389908183,2472.57003794 -33.7490224803,2469.03178644 -37.4850233128,2449.93545789 -47.1673879905,2451.57015748 -46.4006295854,2446.12251051 -44.9204776628,2441.5648286 -42.9367861381,2437.87255198 -37.4318876933,2432.83792556 -33.7126040565,2430.99527562 -35.8619120916,2422.67563396 -37.8191650726,2415.11727128 " moovel_rot="79.7" moovel_centroid="-47.1580491746,2444.36656213"/>
  <polygon id="336340388" class="tile" points="-66.3357086135,2469.41288653 -68.5373919586,2428.06112219 -73.1939654717,2420.12596353 -79.0392777963,2416.23661075 -87.7007934468,2415.11727128 -103.960147801,2415.39168488 -109.609483437,2416.93687887 -114.872943418,2422.59446193 -115.476744456,2429.40551067 -115.480405313,2473.50255159 -66.3357086135,2469.41288653 " moovel_rot="28.7" moovel_centroid="-92.0411590007,2444.56281054"/>
  <polygon id="442637485" class="tile" points="-127.062171342,2415.12324838 -127.067049161,2443.11575974 -116.485284107,2443.10977569 -116.480405313,2415.11727128 -127.062171342,2415.12324838 " moovel_rot="8.0" moovel_centroid="-121.773727699,2429.11651356"/>
  <polygon id="376403768" class="tile" points="-143.494861155,2415.14595283 -128.100735051,2415.11727128 -128.067049161,2461.37589526 -143.461158216,2461.40457924 -143.494861155,2415.14595283 " moovel_rot="81.9" moovel_centroid="-135.780950967,2438.26092038"/>
  <polygon id="279672694" class="tile" points="-144.494861155,2415.69678411 -168.51505649,2415.11727128 -168.421613168,2470.35354611 -145.352301524,2470.51229968 -146.165688379,2448.00015038 -145.209420361,2447.23859875 -144.494861155,2415.69678411 " moovel_rot="-65.7" moovel_centroid="-156.860987239,2442.61731709"/>
  <polygon id="443136830" class="tile" points="-169.587145493,2554.09019705 -237.544860703,2553.9143717 -237.479303978,2415.11727128 -169.51505649,2415.29455549 -169.587145493,2554.09019705 " moovel_rot="-16.3" moovel_centroid="-203.531649949,2484.60298687"/>
</svg>