<svg xmlns="http://www.w3.org/2000/svg" version="1.1" width="592.5px" height="1200px">
  <polygon id="0" class="bin" points="-150.244321935,212.668028092 -149.256204115,212.525643351 -147.097265889,213.826979647 -146.2500005,216.201138819 -146.2500005,229.141006832 -147.336083878,231.780334062 -147.533362131,231.979450266 -158.845329044,244.119964822 -180.734436434,267.591895742 -181.538032955,268.639641822 -199.753208676,297.820412162 -200.476824001,299.390658655 -210.536408975,331.276020789 -210.796208901,332.448009591 -214.776200854,362.729258371 -214.789390019,364.412399931 -211.246165293,395.083512191 -210.870587026,396.662864949 -207.280155071,406.440453475 -199.646290763,427.220281484 -198.50133997,429.217216556 -179.677178395,452.065593986 -178.865965982,455.02632302 -180.537968789,457.600888733 -181.243088882,458.055958379 -183.430601031,460.334579727 -185.509514548,463.863874533 -186.451346397,467.064306299 -187.61592468,496.104106392 -187.621442136,496.387038034 -187.133279878,946.614280771 -185.585321731,950.53854793 -181.779091026,952.357518788 -176.400499205,952.740964873 -174.201333661,952.541585001 -170.593961363,951.61278409 -165.744668902,946.742647584 -163.834456815,939.189551715 -163.692455975,938.467347018 -161.880724309,925.664715145 -161.815295701,924.882414979 -161.196154286,901.350815597 -161.194275655,901.25288853 -159.198458707,735.746505545 -159.190289029,735.540235367 -157.691645595,713.243862798 -157.625896871,712.753104876 -155.746762171,703.44710015 -155.526358466,702.732405564 -153.455405768,697.820754839 -150.955294668,695.651414047 -147.710879831,696.307437945 -146.2500005,699.277694931 -146.2500005,945.676236352 -146.91978296,947.81510519 -148.68987245,949.189933051 -150.229192424,949.763888759 -212.635941168,1010.97850363 -212.803952441,1010.80722039 -214.007057289,1011.58613157 -213.846210516,1011.92139286 -221.077586829,1015.39075707 -223.723066879,1017.95589041 -224.293821104,1021.59631805 -223.028424145,1029.09683868 -222.97669432,1029.65797605 -222.944698458,1031.57129018 -222.920676031,1032.04189821 -222.697625779,1034.65101929 -222.685491403,1034.86459175 -222.51863389,1040.77386343 -222.518455271,1040.97902607 -224.336753189,1109.60953179 -224.128131975,1111.4805712 -223.985044997,1112.0443049 -223.129332613,1114.03054717 -222.407578263,1115.16905304 -222.368267115,1115.19570856 -221.135113969,1117.0454878 -216.084349645,1122.15014538 -213.1224852,1123.40919301 -211.097121402,1125.49442408 -211.170369122,1128.40043886 -213.017553843,1132.50130502 -212.165149093,1134.83171691 -212.207660391,1135.30525613 -210.179021836,1141.24996368 -201.8270169,1150.06995634 -201.399622968,1150.61414759 -200.789600119,1151.55885297 -200.731910191,1151.65110363 -199.521484716,1153.65061929 -199.445571138,1153.78194604 -198.329357732,1155.80636667 -198.292003715,1155.87583159 -197.75143232,1156.90694926 -197.606159092,1157.21787296 -196.867761422,1159.00751854 -190.919385183,1163.15564938 -178.528917378,1163.63189173 -178.396193291,1163.63570999 -167.037992544,1163.85271829 -166.558973365,1163.84517384 -164.816333485,1163.75692007 -163.59916802,1163.58518741 -162.042011624,1163.22102704 -161.039887889,1162.90412704 -158.881462656,1162.03495308 -157.825704416,1161.49992236 -155.972586844,1160.3502555 -154.9724539,1159.59531204 -153.484914654,1158.24275865 -150.607485988,1157.28411489 -147.962045375,1158.76743467 -146.999904366,1160.05040354 -146.2500005,1162.30027536 -146.2500005,1186.10148157 -147.481128299,1188.87957135 -150.366151346,1189.83356324 -163.643535008,1188.53093224 -165.362691692,1188.36193403 -169.451417519,1189.53885707 -171.61704228,1193.20121916 -173.364825134,1204.33172092 -174.63211161,1206.5999082 -177.069430481,1207.5 -446.2499995,1207.5 -448.901649929,1206.40165043 -449.9999995,1203.75 -449.9999995,3.75 -448.901649929,1.09834957055 -446.2499995,0.0 -150.0000005,0.0 -147.348350071,1.09834957055 -146.2500005,3.75 -146.2500005,23.4756032062 -148.467256974,26.8980580685 -156.356848179,30.4314048403 -159.306840504,30.4808235125 -161.379534716,28.381100762 -163.99515714,21.7284986539 -166.574570898,18.7836782252 -170.438094927,18.1523900421 -221.186997278,27.5327354219 -224.989484252,30.1098015788 -225.673544453,34.6520740058 -211.290968293,87.9926699902 -210.953179306,88.9548284465 -170.257440564,182.105697395 -170.222296916,182.188854145 -159.016385321,209.620496712 -155.674973794,212.83319774 -150.258586521,212.460642622 -150.244321935,212.668028092 " moovel_rot="0" moovel_centroid="-318.1167826285817,603.8442523002848"/>
  <polygon id="78334020" class="tile" points="7.51771722026,1201.0 104.362182003,1257.62450383 65.0951582309,1314.9497877 41.4242301591,1349.40234106 1.0,1301.92067701 13.6922688652,1291.15078995 27.6092424221,1279.33217894 41.8679452728,1267.22590105 49.2383612409,1260.97369284 1.01386059783,1207.73104596 7.51771722026,1201.0 " moovel_rot="-12.0" moovel_centroid="49.091596164504466,1277.2183749602277"/>
  <polygon id="357531025" class="tile" points="110.169338112,1201.0 110.218344087,1215.28065626 105.723933075,1215.34125343 105.362182003,1260.30459703 119.844651414,1263.22451071 119.790267358,1214.81268087 117.264127098,1210.0844894 117.112137269,1201.77780965 110.169338112,1201.0 " moovel_rot="-48.0" moovel_centroid="112.921839985,1234.5710302527282"/>
  <polygon id="264953369" class="tile" points="133.560059218,1230.19319802 133.542834983,1204.92491436 128.650688215,1204.96998837 128.576300715,1201.0 120.937838997,1201.15031132 120.844651414,1221.98743124 127.572533702,1221.90088162 127.50361539,1230.37191921 133.560059218,1230.19319802 " moovel_rot="74.6" moovel_centroid="127.535672749,1214.5565779454791"/>
  <polygon id="261891232" class="tile" points="142.862222153,1228.42998426 142.860346237,1224.10647299 134.57712654,1224.08495851 134.560059218,1201.0 152.627740328,1201.04014106 152.643533906,1224.2806335 147.480246926,1224.27141429 147.483383691,1228.43941819 142.862222153,1228.42998426 " moovel_rot="25.9" moovel_centroid="143.685546632,1213.2100525305127"/>
  <polygon id="108329317" class="tile" points="153.866735036,1201.0 168.387515171,1202.13138383 181.721790658,1206.37381751 187.899866533,1229.99274495 190.223680126,1255.40627516 190.225618328,1339.7054047 187.325028358,1376.55293067 176.930190233,1346.61016909 153.643533906,1258.27068408 153.866735036,1201.0 " moovel_rot="-22.6" moovel_centroid="174.322881576,1270.6673884883364"/>
  <polygon id="201149333" class="tile" points="213.401761382,1246.24966094 213.777326128,1263.44016716 191.225618328,1264.14996124 191.272510055,1201.69800672 192.551424615,1201.36317513 204.850354984,1201.12509115 211.812744897,1201.0 212.76956906,1230.22586292 197.596456761,1230.78916062 197.71127224,1233.88186905 195.845828148,1233.95289108 196.438407606,1249.13509469 210.639236915,1248.60090967 210.549447165,1246.35630766 213.401761382,1246.24966094 " moovel_rot="9.2" moovel_centroid="201.328075677,1231.1173300935152"/>
  <polygon id="244768464" class="tile" points="218.757950243,1201.14886745 227.064254873,1202.41282024 227.070466746,1250.96828671 220.940279184,1248.73948747 219.033611545,1253.92350177 216.407377009,1253.89507293 214.777326128,1231.23000206 215.37110875,1217.65158459 216.396218135,1201.0 218.757950243,1201.14886745 " moovel_rot="-1.3" moovel_centroid="221.17304509,1226.541026537145"/>
  <polygon id="236571037" class="tile" points="264.919518904,1202.25767009 268.440704956,1243.42484367 234.474000993,1263.78513189 228.070466746,1253.21915242 241.660575849,1244.98925081 236.139356381,1235.87750232 237.677692027,1230.6110704 241.385200532,1228.36870947 228.106431135,1205.9100279 237.158975405,1201.0 240.403859099,1205.70196051 244.14351081,1203.36812216 251.592100185,1216.53552825 249.305302942,1218.41101325 250.339807895,1220.43261319 252.466870486,1219.34414027 254.132811873,1217.64380833 252.515803301,1203.47299475 264.919518904,1202.25767009 " moovel_rot="62.9" moovel_centroid="249.563682835,1230.029765653708"/>
  <polygon id="371392416" class="tile" points="295.006050893,1202.75239694 302.133083581,1201.0 328.32044729,1227.61305088 328.358157523,1291.72463746 269.440704956,1268.73327634 295.006050893,1202.75239694 " moovel_rot="-60.7" moovel_centroid="304.096966625,1248.6165509671487"/>
  <polygon id="299950331" class="tile" points="341.322626849,1221.19370872 329.358157523,1221.54395177 329.440418369,1207.87089318 329.430797757,1206.52242215 329.382820971,1201.55492496 341.227143513,1201.0 341.322626849,1221.19370872 " moovel_rot="-28.8" moovel_centroid="335.349530629,1211.3425977468698"/>
  <polygon id="255346514" class="tile" points="386.847703695,1264.91966655 387.125879867,1202.0159574 342.322626849,1201.0 342.398205848,1263.59457078 386.847703695,1264.91966655 " moovel_rot="22.7" moovel_centroid="364.692541267,1232.841652615316"/>
  <polygon id="349882159" class="tile" points="401.398358035,1202.12072757 396.070780183,1204.6337409 391.647277074,1208.60753232 388.971325355,1213.62864179 388.125879867,1218.66938328 388.977830885,1224.02034041 390.715999707,1227.78128259 396.048941282,1233.12621152 400.576471427,1236.21589266 405.096010888,1237.34602151 405.75184892,1247.94462774 421.760321474,1249.98893075 422.541647676,1239.23166052 419.361834733,1238.32613134 417.054610962,1237.28998318 416.106723907,1234.78298611 420.948910072,1235.44894956 420.991890987,1229.50742214 417.006725509,1229.0995929 418.748833667,1210.2711422 422.509365781,1210.8057727 422.557910408,1203.57625161 408.81565633,1201.44039466 404.088775223,1201.0 401.398358035,1202.12072757 " moovel_rot="16.2" moovel_centroid="406.931811375,1223.0339839387927"/>
  <polygon id="285257213" class="tile" points="471.840774626,1391.58069554 483.294588545,1389.6914094 480.894053956,1376.24586108 476.018757518,1349.05736719 471.819951482,1325.24848937 469.637084514,1310.61167311 466.543189032,1293.06664257 465.912819304,1288.66036122 465.87786888,1282.08680632 466.421474566,1272.65596003 474.848488603,1273.40391947 481.364692944,1221.17003728 483.335516611,1201.0 473.569067904,1203.1263314 435.657947871,1213.32589713 435.529914756,1229.52354168 434.854259343,1230.50132258 433.77166625,1230.50238201 430.603583354,1229.99345061 424.030024546,1284.00724258 425.100362854,1284.99605888 427.430090293,1285.06893432 428.773862765,1286.2159471 427.775782653,1290.53266823 426.204345591,1291.03430012 424.293599936,1290.08267055 423.557910408,1294.35653206 423.780784559,1298.82915957 433.792914701,1358.42724299 464.659372991,1352.5224945 471.840774626,1391.58069554 " moovel_rot="-26.6" moovel_centroid="453.291807098,1285.0339951461197"/>
  <polygon id="185329230" class="tile" points="484.380431882,1272.10263249 494.355344022,1272.10435753 494.352662858,1266.97476726 494.333035856,1233.97086544 494.310429636,1201.0017147 484.335516611,1201.0 484.33992437,1207.28237422 484.340420349,1213.7667672 484.347571701,1220.25172355 484.353974891,1226.74540682 484.353723938,1233.2385124 484.360128359,1239.73218132 484.360627409,1246.21653849 484.367033061,1252.71019306 484.366784568,1259.20326994 484.37468899,1265.6794421 484.380431882,1272.10263249 " moovel_rot="4.9" moovel_centroid="489.345261392,1236.5539085762157"/>
  <polygon id="244967356" class="tile" points="503.133775393,1201.0 495.355344022,1214.2353132 519.445933857,1228.2445701 523.494187164,1221.6427845 527.5868035,1223.81648514 495.429518492,1278.57709189 495.972678907,1287.56445247 502.877316036,1292.06046133 511.180111953,1289.14115623 519.252803878,1275.48939498 520.064812482,1274.12579548 527.296916043,1261.90476671 528.265873602,1260.27305826 545.928848273,1230.42682895 544.702566959,1227.88687763 540.992438662,1228.55219485 543.582785149,1224.2814395 503.133775393,1201.0 " moovel_rot="39.0" moovel_centroid="518.153870641,1245.5988580230858"/>
  <polygon id="395180437" class="tile" points="547.00836464,1201.8397571 548.785330532,1256.08808371 546.928848273,1310.67339659 551.154718895,1310.77166892 553.836278414,1253.16535177 552.136455596,1201.0 547.00836464,1201.8397571 " moovel_rot="-9.3" moovel_centroid="550.327891645,1254.1194999038557"/>
  <polygon id="300593880" class="tile" points="554.888739376,1249.90238656 572.31569785,1247.98947333 577.526519065,1224.5943282 577.947320674,1219.54773426 578.08952418,1214.9654826 577.974110904,1209.58675224 577.411434915,1201.0 555.583202871,1203.49787495 554.836278414,1203.74020026 555.056186434,1212.7719053 562.036649292,1211.68566179 554.888739376,1249.90238656 " moovel_rot="-49.7" moovel_centroid="567.031334187,1224.4874575354806"/>
  <polygon id="222912944" class="tile" points="579.08952418,1201.12226922 579.327882508,1247.57593918 587.440286041,1247.44408471 587.490871524,1201.0 579.08952418,1201.12226922 " moovel_rot="-88.1" moovel_centroid="583.336659446,1224.1501358310122"/>
  <polygon id="220953322" class="tile" points="31.7825657096,1466.07826996 43.6765594292,1456.25614173 24.5460870232,1432.91612703 21.7299415139,1429.47836891 16.9744224524,1423.66947194 43.6481720405,1402.12890646 35.3423704946,1391.58069554 2.35994986128,1418.79794642 0.0,1420.8017437 4.92722433172,1426.65042909 1.19732126389,1429.82300478 31.7825657096,1466.07826996 " moovel_rot="-81.3" moovel_centroid="22.726247158251553,1428.86825968"/>
  <polygon id="277980027" class="tile" points="75.6440412749,1392.62344981 68.3038847115,1392.36573528 46.0781565167,1391.58069554 45.6765594292,1453.69557353 69.4879546653,1454.43178502 93.445124669,1454.71225532 93.4269781409,1440.68195577 81.7181502741,1417.20135865 75.807211181,1405.33604019 75.6440412749,1392.62344981 " moovel_rot="62.0" moovel_centroid="65.9399278829,1426.43144209"/>
  <polygon id="284696338" class="tile" points="94.7172301758,1391.58069554 100.608996491,1392.11876736 103.731456546,1392.16692054 106.32981143,1392.23707514 109.473593071,1393.37069885 111.511540167,1394.39243367 112.940358648,1395.5134696 114.359120921,1397.11814273 115.541618358,1398.96589485 115.754215043,1400.1526447 115.904296798,1401.70451411 115.649955379,1402.78197891 115.169222273,1403.89009316 114.59511391,1404.95826978 113.808130766,1406.21170754 113.178191643,1407.35271283 108.905926269,1413.72177475 104.536555165,1420.78465518 103.444296997,1422.66737052 102.478465071,1423.67098708 101.598690747,1423.06046281 95.5262643792,1419.1934506 94.8225186478,1418.21046896 94.445124669,1403.61251559 94.4495841578,1393.15233761 94.7172301758,1391.58069554 " moovel_rot="54.4" moovel_centroid="103.363081459,1405.45268666"/>
  <polygon id="108324468" class="tile" points="116.904296798,1429.44707772 145.203043918,1428.99652095 145.151468652,1412.77109263 136.230676531,1391.58069554 116.947688175,1392.41986744 116.904296798,1429.44707772 " moovel_rot="-36.8" moovel_centroid="129.982210132,1411.72637594"/>
  <polygon id="300396693" class="tile" points="146.234602374,1391.58069554 154.573454244,1391.62203517 159.240642021,1391.64390365 159.209044883,1438.41742843 154.991159704,1438.39545298 146.203043918,1438.35418549 146.234602374,1391.58069554 " moovel_rot="48.0" moovel_centroid="152.721816972,1414.99887862"/>
  <polygon id="320731187" class="tile" points="160.279351386,1391.58069554 196.475458072,1391.72329853 196.447537631,1436.23841364 188.158276993,1436.2074663 160.240642021,1436.09393123 160.279351386,1391.58069554 " moovel_rot="62.3" moovel_centroid="178.360948822,1413.91072393"/>
  <polygon id="448157965" class="tile" points="229.192908066,1647.10915289 197.475458072,1647.2498739 197.653870348,1400.63781704 202.263859611,1397.92232584 201.906420943,1393.80737375 219.70189611,1391.58069554 220.223353899,1395.04090401 226.573609026,1396.83509688 229.192908066,1647.10915289 " moovel_rot="59.5" moovel_centroid="212.750571015,1522.75643353"/>
  <polygon id="373545740" class="tile" points="230.192908066,1393.84995041 249.61417178,1391.58069554 249.605001787,1424.0892082 249.611512194,1427.74497422 232.510928102,1427.93550203 230.722668111,1401.62041914 230.192908066,1393.84995041 " moovel_rot="-60.1" moovel_centroid="240.551490442,1409.88926319"/>
  <polygon id="181963437" class="tile" points="262.456811425,1391.58069554 266.870002635,1391.726042 266.854513208,1411.45787478 265.505982509,1411.4060708 252.696958371,1410.87541074 252.58398835,1401.43581906 250.61417178,1399.93768781 254.989841001,1393.98292398 258.682745512,1396.71247999 262.456811425,1391.58069554 " moovel_rot="40.3" moovel_centroid="260.02013708,1402.38918228"/>
  <polygon id="294248636" class="tile" points="277.819611331,1428.80896722 271.232652761,1429.48913626 267.870002635,1429.83741525 267.926682247,1425.16215067 267.918241579,1407.03597598 267.908937551,1392.18619285 270.010480499,1392.03065276 276.059735413,1391.58069554 277.819611331,1428.80896722 " moovel_rot="-37.1" moovel_centroid="272.436966614,1411.21314042"/>
  <polygon id="63406831" class="tile" points="293.9462793,1436.67405065 279.789029569,1438.08218057 278.819611331,1391.77622934 294.010862476,1391.58069554 294.001289323,1394.96994394 293.9462793,1436.67405065 " moovel_rot="-67.1" moovel_centroid="286.603709936,1414.26609"/>
  <polygon id="178999285" class="tile" points="295.018136065,1399.25415226 317.536149381,1391.58069554 319.016047682,1405.80648414 303.660111898,1406.58090252 304.046290292,1413.57213198 304.528871277,1422.50528653 305.061069581,1432.23383471 305.576416833,1441.81957994 297.036153042,1441.94944969 295.010862476,1442.04456755 295.018136065,1399.25415226 " moovel_rot="50.0" moovel_centroid="303.306200925,1414.42743795"/>
  <polygon id="163806027" class="tile" points="321.422093916,1441.83126682 320.016047682,1441.82361523 320.027155703,1391.58162558 321.435057349,1391.58069554 321.422093916,1441.83126682 " moovel_rot="12.2" moovel_centroid="320.725110019,1416.69878521"/>
  <polygon id="369797925" class="tile" points="334.183005016,1391.58069554 322.435914115,1391.85829627 322.435057349,1409.30787431 328.421303887,1409.23499089 328.42270819,1404.64498997 334.175179343,1404.64917258 334.183005016,1391.58069554 " moovel_rot="-30.6" moovel_centroid="327.879959636,1399.53608785"/>
  <polygon id="240453791" class="tile" points="355.432895647,1391.65993736 355.423492587,1414.11190845 335.183005016,1414.03697407 335.189664635,1394.9861676 335.200021453,1391.58069554 355.432895647,1391.65993736 " moovel_rot="60.5" moovel_centroid="345.307583642,1402.84757286"/>
  <polygon id="299950349" class="tile" points="371.277557405,1437.88575338 356.924890598,1438.6965706 356.432895647,1416.72618972 363.721011534,1416.37704675 363.667082616,1412.28691353 363.39299945,1392.44259887 363.375895768,1391.58069554 371.311352691,1391.63565342 371.277557405,1437.88575338 " moovel_rot="60.9" moovel_centroid="365.25802165,1418.51717472"/>
  <polygon id="403560777" class="tile" points="372.311352691,1405.38060619 372.316871627,1420.59488668 379.950295955,1420.56091636 379.956003418,1430.52636836 398.346315475,1430.45952881 398.338938443,1421.80920294 392.718694598,1421.83587875 392.706108285,1412.13438503 398.716120198,1412.11130104 398.718181362,1396.48807554 392.627376098,1396.5119147 392.62084768,1391.58069554 377.540645898,1391.63817698 377.549504418,1405.35462851 372.311352691,1405.38060619 " moovel_rot="-60.8" moovel_centroid="386.191999236,1410.94886731"/>
  <polygon id="239492646" class="tile" points="400.334989655,1429.43140293 414.817540927,1429.72151329 414.816783631,1391.58069554 408.295098785,1394.1843051 399.718181362,1397.60506489 400.334989655,1429.43140293 " moovel_rot="-33.6" moovel_centroid="407.638600441,1411.91061229"/>
  <polygon id="443296708" class="tile" points="415.817540927,1589.60808694 415.941010196,1391.66960789 444.872899284,1391.58069554 444.841762485,1442.0757814 455.755115919,1442.04964211 455.692020744,1538.30132653 446.173858807,1538.33323261 446.140701203,1589.51418192 415.817540927,1589.60808694 " moovel_rot="-55.7" moovel_centroid="433.558059575,1491.29474125"/>
  <polygon id="59389844" class="tile" points="457.863851949,1470.82166255 456.755115919,1409.63220888 458.90575618,1391.58069554 467.004150183,1392.49579274 473.899846079,1393.27799478 473.046134579,1412.54380648 473.808955184,1470.96824904 464.480358738,1470.88853676 457.863851949,1470.82166255 " moovel_rot="-47.1" moovel_centroid="465.400867839,1431.73971774"/>
  <polygon id="437711633" class="tile" points="474.899846079,1391.59412052 474.951535409,1495.82934214 484.413138178,1495.82294353 492.877645409,1495.81589778 492.825957264,1391.58069554 484.167578327,1391.59078508 474.899846079,1391.59412052 " moovel_rot="-3.5" moovel_centroid="483.888745095,1443.7060891"/>
  <polygon id="450419529" class="tile" points="504.318804698,1391.61396892 493.877645409,1391.58069554 493.891241292,1429.4633467 504.332375024,1429.49663501 504.318804698,1391.61396892 " moovel_rot="59.7" moovel_centroid="499.105016948,1410.53865382"/>
  <polygon id="392695041" class="tile" points="505.395903776,1391.68735469 505.332375024,1399.88472237 505.336654347,1407.76393875 505.345163774,1417.19642087 505.346443181,1420.57693873 505.346102995,1426.27286697 519.577109144,1426.26149552 519.56725435,1403.23651346 517.581049778,1403.24133055 514.375212782,1402.50491902 512.353200818,1401.48407297 510.985583174,1399.74477714 510.066372069,1396.81263168 509.490866984,1391.58069554 505.395903776,1391.68735469 " moovel_rot="8.5" moovel_centroid="511.788916073,1412.03026791"/>
  <polygon id="239436982" class="tile" points="543.968905343,1425.16236254 543.974657569,1444.8619148 520.577109144,1436.80438712 520.624933385,1391.58069554 526.752189383,1392.95789641 526.883934777,1425.76002602 543.968905343,1425.16236254 " moovel_rot="76.0" moovel_centroid="529.823499329,1424.43808695"/>
  <polygon id="266177534" class="tile" points="545.197665499,1391.68145234 559.297767467,1391.58069554 559.327654454,1452.67476202 551.040162745,1453.55255161 544.974657569,1446.71986968 545.197665499,1391.68145234 " moovel_rot="7.7" moovel_centroid="552.302276432,1421.87004878"/>
  <polygon id="220789400" class="tile" points="560.383055357,1394.40613421 560.391791707,1407.70930892 560.357139543,1421.13404527 560.366876834,1434.8536926 560.372336378,1437.05359635 568.442830418,1437.32694645 571.470507814,1437.28313036 571.73884096,1391.63128257 567.951710826,1391.60218153 560.327654454,1391.58069554 560.379434111,1394.06466118 560.383055357,1394.40613421 " moovel_rot="47.4" moovel_centroid="565.993909789,1414.32785497"/>
  <polygon id="266864332" class="tile" points="0.0,1671.37849837 0.0198149090633,1647.2498739 23.7426750787,1647.27463176 23.722823411,1671.40327678 18.2665605169,1671.39972771 2.49473527037,1671.37681224 0.0,1671.37849837 " moovel_rot="60.8" moovel_centroid="11.87178697274479,1659.32622243"/>
  <polygon id="252080343" class="tile" points="25.7529164176,1669.40449875 25.7426750787,1647.2498739 38.2363408776,1658.65574071 38.0633897319,1669.38729699 25.7529164176,1669.40449875 " moovel_rot="-94.0" moovel_centroid="31.237883485,1660.82144106"/>
  <polygon id="185610603" class="tile" points="39.2395378405,1656.46612194 43.2724635428,1656.44351185 43.3939255653,1647.28670899 39.2363408776,1647.2498739 39.2395378405,1656.46612194 " moovel_rot="40.2" moovel_centroid="41.2835171458,1651.83817604"/>
  <polygon id="284911280" class="tile" points="44.6333910376,1647.2498739 44.6226225574,1650.06149337 44.4054380747,1691.10125346 44.3939255653,1693.5350088 55.2259258935,1693.722745 55.2109384505,1681.06954494 53.0034421025,1680.84155742 53.1036215352,1678.71672739 50.5670922616,1678.59779926 51.3120360579,1662.64387468 49.629921006,1662.56472899 49.7808803188,1659.33355034 47.8604148369,1659.11885796 47.8997156061,1657.46755226 48.130882673,1648.28015623 44.6333910376,1647.2498739 " moovel_rot="0.9" moovel_centroid="48.4932254074,1675.72160619"/>
  <polygon id="286758886" class="tile" points="100.99120473,1795.77099673 147.989430747,1676.69994288 56.2495115722,1647.2498739 56.2259258935,1700.55262557 63.5381487934,1749.1457761 83.6257569553,1755.05756177 91.0919917973,1790.39698738 100.99120473,1795.77099673 " moovel_rot="-50.6" moovel_centroid="95.1393389549,1710.43427656"/>
  <polygon id="443296706" class="tile" points="149.080451796,1811.94088229 164.83874304,1811.86925574 164.753585746,1647.2498739 148.989430747,1647.31470722 149.080451796,1811.94088229 " moovel_rot="-40.8" moovel_centroid="156.915495701,1729.58857939"/>
  <polygon id="331933006" class="tile" points="167.451278119,1672.4190208 165.83874304,1648.09327562 174.092526636,1647.2498739 173.574623808,1661.19834183 174.063810697,1672.28902876 167.451278119,1672.4190208 " moovel_rot="-18.7" moovel_centroid="170.236457984,1659.5277383"/>
  <polygon id="271457747" class="tile" points="175.092526636,1661.77790625 217.861980648,1647.2498739 217.743360512,1735.46417469 195.315012181,1738.55213702 178.467085391,1701.62252724 175.092526636,1661.77790625 " moovel_rot="-3.3" moovel_centroid="199.522087943,1692.11256842"/>
  <polygon id="59392903" class="tile" points="218.861980648,1647.25061915 218.933168386,1755.32474913 249.875500593,1755.32404776 249.804316231,1647.2498739 218.861980648,1647.25061915 " moovel_rot="4.4" moovel_centroid="234.368742511,1701.2873215"/>
  <polygon id="375719859" class="tile" points="251.434801731,1676.86868079 259.896002218,1676.82108142 259.943111357,1647.2498739 250.875500593,1647.33881666 251.434801731,1676.86868079 " moovel_rot="-29.6" moovel_centroid="255.536781619,1661.89913322"/>
  <polygon id="374333730" class="tile" points="276.013038092,1678.55085523 260.976517528,1678.74760675 260.943111357,1648.05075332 274.668539513,1647.2498739 275.34402564,1652.77483795 278.921815253,1652.66668964 288.379154009,1659.52091449 276.013038092,1678.55085523 " moovel_rot="-86.7" moovel_centroid="271.594174293,1663.23149696"/>
  <polygon id="300396687" class="tile" points="289.379154009,1647.88605346 297.960703949,1647.7133618 314.754281627,1647.38648173 321.664548008,1647.2498739 321.636985465,1685.42556622 315.080510614,1685.47581243 289.726401056,1685.65214988 289.379154009,1647.88605346 " moovel_rot="46.6" moovel_centroid="305.630057475,1666.51620592"/>
  <polygon id="246262120" class="tile" points="327.614883996,1696.63231737 327.74908786,1681.05304319 325.346518864,1678.59105229 322.691980301,1678.11758216 322.664548008,1647.2498739 349.639157652,1651.39282593 348.054138885,1656.90278563 327.971664639,1652.90323685 326.681537884,1670.36319365 331.913752159,1668.65483813 332.448841303,1682.75137343 335.386769786,1682.94403612 335.758509615,1697.54932416 327.614883996,1696.63231737 " moovel_rot="-72.2" moovel_centroid="330.948062975,1669.12091531"/>
  <polygon id="301510365" class="tile" points="351.004557647,1685.81325211 351.182466582,1670.22929267 352.714522549,1658.33288105 355.234957211,1647.2498739 377.521821476,1651.66964195 394.356579516,1697.7120014 404.313039904,1699.42319533 391.98007248,1771.10820814 388.726079074,1789.74024515 385.789453802,1800.69939324 357.584597156,1796.56727014 354.763290267,1795.1043369 352.587246114,1793.37701334 351.225678219,1791.16264331 350.788100046,1788.11807577 350.864855316,1700.66237468 350.639157652,1694.09798458 351.004557647,1685.81325211 " moovel_rot="17.7" moovel_centroid="372.477480252,1726.41506768"/>
  <polygon id="275608451" class="tile" points="437.898473118,1737.54942021 430.50206568,1725.70481975 418.066422656,1732.31358371 417.642424122,1690.79887263 418.36531051,1689.12400592 419.790930522,1688.21814673 442.903463455,1688.79538565 453.648534499,1682.16698561 444.029750067,1663.22130635 420.351905508,1662.89115153 420.131984213,1647.33933021 405.313039904,1647.2498739 405.363732869,1700.96732693 405.406841845,1753.88844139 437.898473118,1737.54942021 " moovel_rot="-82.3" moovel_centroid="420.486499884,1694.68957542"/>
  <polygon id="376403752" class="tile" points="468.87751595,1692.42001423 454.652704319,1692.40305185 454.648534499,1647.2498739 468.872329515,1647.26023491 468.87751595,1692.42001423 " moovel_rot="81.1" moovel_centroid="461.762944359,1669.83356265"/>
  <polygon id="443136834" class="tile" points="469.87751595,1649.3190101 501.177500505,1647.2498739 525.405002857,1690.55213588 522.893282015,1742.31365284 510.996895797,1757.95000501 509.488529609,1783.14431621 469.928707082,1781.98351295 469.87751595,1649.3190101 " moovel_rot="-34.2" moovel_centroid="494.223641585,1715.49288361"/>
  <polygon id="323019639" class="tile" points="526.418476882,1648.84528011 531.039447345,1647.62091414 532.740102145,1647.2498739 533.470340108,1662.685765 526.405002857,1664.0654236 527.100848133,1661.26340261 526.418476882,1648.84528011 " moovel_rot="36.1" moovel_centroid="529.944780219,1655.71495218"/>
  <polygon id="377339427" class="tile" points="534.474285197,1647.30881878 534.470340108,1713.91744126 558.018312653,1713.8388544 558.0258,1665.7826557 551.735079701,1665.80570274 551.737284551,1647.2498739 534.474285197,1647.30881878 " moovel_rot="-31.6" moovel_centroid="545.55387072,1682.50574512"/>
  <polygon id="442637466" class="tile" points="559.033481067,1647.26105976 582.519059265,1647.2498739 582.511366512,1672.01588123 559.0258,1672.02706848 559.033481067,1647.26105976 " moovel_rot="-83.2" moovel_centroid="570.772426601,1659.63846982"/>
  <polygon id="222912928" class="tile" points="591.789448732,1647.2498739 583.587058852,1647.2641623 583.519059265,1693.89522472 592.120120481,1693.68955676 591.789448732,1647.2498739 " moovel_rot="-88.7" moovel_centroid="587.751641089,1670.70899656"/>
  <polygon id="235746844" class="tile" points="0.00553554799408,1822.7997794 8.61776309609,1822.80677182 8.61887829825,1811.94849021 0.0,1811.94088229 0.00553554799408,1822.7997794 " moovel_rot="5.3" moovel_centroid="4.310503769598028,1817.37328238"/>
  <polygon id="377007920" class="tile" points="10.7817279682,1812.23648428 10.6188782983,1932.51734613 19.8648166254,1932.36393441 19.3865665853,1811.94088229 10.7817279682,1812.23648428 " moovel_rot="7.9" moovel_centroid="15.1649193869,1872.98479853"/>
  <polygon id="272946614" class="tile" points="35.2350777168,1844.84239662 20.8648166254,1845.16808334 20.9063995298,1812.00665108 35.1484367877,1811.94088229 35.2350777168,1844.84239662 " moovel_rot="28.9" moovel_centroid="28.0293819035,1828.51433603"/>
  <polygon id="185515238" class="tile" points="36.2436799472,1826.9081412 36.2350777168,1815.49486316 36.3140441893,1811.94149012 46.1854504542,1811.94088229 52.7513197234,1811.9429845 52.7334957862,1831.61210484 52.7310279896,1835.05428666 42.5946749762,1835.05369761 42.6023688469,1833.45135124 42.6062746467,1826.91042902 36.2436799472,1826.9081412 " moovel_rot="-82.5" moovel_centroid="45.290721184,1822.32129233"/>
  <polygon id="383830158" class="tile" points="55.0408758728,1870.93978798 65.4503885632,1869.49386277 65.4832829164,1811.94088229 53.7513197234,1812.44583926 55.0408758728,1870.93978798 " moovel_rot="-66.2" moovel_centroid="59.908468289,1840.63397248"/>
  <polygon id="429404977" class="tile" points="66.5025717996,1811.94863948 66.4832829164,1834.65162509 80.3373628249,1834.63674548 80.3575925672,1815.21162008 76.3574455971,1811.94088229 66.5025717996,1811.94863948 " moovel_rot="-75.0" moovel_centroid="73.3016002205,1823.51146854"/>
  <polygon id="185647478" class="tile" points="123.615692231,1814.28313332 93.8853943804,1811.94088229 85.4224678984,1828.73133428 81.3575925672,1876.66758966 84.3028493401,1881.09951389 91.0941384023,1886.97178705 122.298558232,1887.43484463 125.857010284,1882.08208693 125.855215859,1879.3885064 125.796613895,1827.1656645 123.615692231,1814.28313332 " moovel_rot="41.8" moovel_centroid="105.080275723,1851.16777934"/>
  <polygon id="275300135" class="tile" points="126.904108231,1906.69581014 126.878349754,1865.98861162 126.874708658,1860.27567119 126.857010284,1826.7819003 133.169727207,1826.77667641 146.746572985,1826.77582158 146.73722581,1822.22106989 168.897565802,1811.94088229 206.807654591,1824.65000861 206.639650997,1827.65808802 209.484134566,1827.82009375 209.069305792,1860.9606384 209.181027553,1866.88243043 208.98544407,1906.40137252 208.950507257,1912.39945763 208.857889532,1930.34772825 150.397646944,1929.52380258 130.892029518,1929.46431631 130.895743131,1931.69474158 126.910717576,1931.6967744 126.904216133,1912.81701756 126.904108231,1906.69581014 " moovel_rot="-85.8" moovel_centroid="168.353027292,1874.93244794"/>
  <polygon id="377970597" class="tile" points="211.180543554,1894.47798316 228.599416048,1893.49243195 227.14182817,1879.7956211 260.325346368,1879.31349339 260.32603192,1811.94088229 210.484134566,1818.91009252 211.180543554,1894.47798316 " moovel_rot="-9.8" moovel_centroid="234.803791435,1850.18814963"/>
  <polygon id="356692853" class="tile" points="321.772185357,1901.14546064 310.066641748,1867.62585964 305.016876304,1868.47282955 302.052591738,1857.58647966 311.683023365,1855.73661103 316.836832875,1853.85018781 318.64523919,1849.82089189 321.711438486,1816.1596448 306.928417323,1814.78498421 304.634684413,1845.14674196 308.898452007,1847.79855184 307.186393502,1851.21241356 304.293559029,1852.30875206 299.752895016,1851.73015832 293.970947864,1838.83110096 299.283182329,1836.67577967 291.901160558,1813.37997226 276.461031211,1811.94088229 291.245937051,1851.53591916 293.928285149,1852.66605502 300.215785044,1873.359191 294.481982796,1875.62577495 290.197716593,1871.94633009 285.25961946,1870.84743475 282.356871774,1866.88454343 277.332879037,1868.36211551 264.466168112,1872.14282953 264.691594136,1876.24823779 261.943447433,1879.30648317 261.518382967,1882.16239327 261.32603192,1885.80526971 263.354706645,1890.60135161 265.637406065,1892.68537742 268.181677269,1894.02662988 295.515990856,1885.25718805 297.968274518,1880.30437325 302.165194146,1879.66728598 310.929593202,1904.86900442 313.540420595,1903.9702218 321.772185357,1901.14546064 " moovel_rot="19.4" moovel_centroid="296.49323318,1858.30967067"/>
  <polygon id="326251666" class="tile" points="322.772185357,1812.9799339 322.777491737,1834.73880636 330.732695601,1834.57385484 336.221101234,1834.52023206 337.002101096,1834.61437117 336.834374558,1829.8939595 336.779419862,1824.77929432 348.475876999,1824.6462273 348.52429658,1829.28665748 348.65799011,1839.59695176 348.733693257,1843.28541661 348.924677988,1852.50133029 348.994259565,1854.19790211 358.990433203,1853.93949527 359.143980604,1819.58314042 359.149860492,1819.17336952 359.130180707,1811.94088229 355.04411284,1812.10629798 322.772185357,1812.9799339 " moovel_rot="55.4" moovel_centroid="343.749334125,1827.40859855"/>
  <polygon id="250613656" class="tile" points="380.07862383,1874.24007553 360.228732147,1874.22574759 360.244973619,1848.54753363 360.931855576,1848.55417053 360.939600887,1837.71017952 360.149860492,1837.71587279 360.172787653,1811.94088229 380.1243345,1811.95155159 380.07862383,1874.24007553 " moovel_rot="7.9" moovel_centroid="370.212442559,1843.05027022"/>
  <polygon id="258957574" class="tile" points="381.1243345,1885.87638516 383.083849153,1885.74862144 396.52469544,1885.39438805 418.375290136,1825.21555898 381.142879849,1811.94088229 381.1243345,1885.87638516 " moovel_rot="-48.7" moovel_centroid="394.830021281,1847.11412293"/>
  <polygon id="447745657" class="tile" points="419.375290136,1822.13727665 455.498256576,1817.1439414 493.17445023,1811.94088229 494.135175888,1835.45178296 489.711492902,1837.84366981 490.577186633,1865.22061204 500.595871034,1865.60694701 499.458512641,1898.49170064 430.54967536,1895.84078929 421.976533541,1891.5701585 419.380162285,1883.49189117 419.375290136,1822.13727665 " moovel_rot="-32.5" moovel_centroid="458.552257456,1857.62224551"/>
  <polygon id="295447822" class="tile" points="501.596196535,1816.94643443 501.595871034,1868.94972044 502.059239961,1868.54728569 509.270286282,1864.53169627 509.904687816,1864.36955408 510.66393801,1864.39516336 511.165448529,1864.97459634 510.746733231,1811.94088229 501.596196535,1816.94643443 " moovel_rot="-12.8" moovel_centroid="506.280309889,1840.52840935"/>
  <polygon id="320480972" class="tile" points="512.181954097,1811.94088229 512.165448529,1835.83712371 534.942879906,1835.74245623 534.85446381,1812.00231618 512.181954097,1811.94088229 " moovel_rot="61.4" moovel_centroid="523.523795185,1823.88988833"/>
  <polygon id="185605922" class="tile" points="559.689562991,1837.50206495 559.136311035,1811.94088229 535.942879906,1812.69425849 535.972138122,1861.84421452 559.415434568,1861.86881389 559.532465085,1858.15154971 551.764593415,1858.12434523 551.925983193,1837.46974272 559.689562991,1837.50206495 " moovel_rot="-49.9" moovel_centroid="546.48990676,1835.44103509"/>
  <polygon id="59663191" class="tile" points="587.533703215,1847.32000946 587.52495105,1811.98504899 560.689562991,1811.94088229 560.697450031,1824.91904603 560.698352773,1847.27583325 587.533703215,1847.32000946 " moovel_rot="75.8" moovel_centroid="574.112807774,1829.63057698"/>
  <polygon id="240737271" class="tile" points="43.0915238902,1932.51734613 0.0735968526453,1932.586729 0.00533581897616,1972.55257043 0.0,1975.78922594 8.9143936459,1975.81948161 43.1655596193,1975.95456402 43.0915238902,1932.51734613 " moovel_rot="8.4" moovel_centroid="21.60225995064116,1954.22339549"/>
  <polygon id="25430198" class="tile" points="81.3428013846,1932.51734613 45.1655596193,1955.69045157 54.404858651,1977.96638666 60.519830187,1998.02266218 63.920405235,2020.52944292 61.0278461345,2046.0934059 54.9244241022,2069.98407256 45.181777015,2087.51955876 83.0923462173,2112.02464465 91.0753121005,2098.25558845 101.111857678,2071.52074035 107.517162599,2038.42299656 107.038365281,2004.81259711 100.924440086,1973.77677174 81.3428013846,1932.51734613 " moovel_rot="9.0" moovel_centroid="79.0058090494,2022.45682789"/>
  <polygon id="374110192" class="tile" points="120.328771409,1932.54357217 108.517162599,1932.51734613 108.526739522,1956.26420095 124.92073187,1956.30153465 124.917705843,1947.70581534 120.337403923,1947.70105419 120.328771409,1932.54357217 " moovel_rot="71.7" moovel_centroid="115.437587956,1945.33897259"/>
  <polygon id="412107603" class="tile" points="130.633481817,2084.98423216 128.377319387,2082.00135405 130.124696946,2080.52883868 135.100749737,2076.35790821 125.92073187,2065.25893676 130.56980687,2061.47999079 134.532616859,2058.13415105 130.092951557,2052.98462259 149.909950839,2036.48687674 152.448529275,2039.27362167 160.733133232,2032.75505956 157.57903577,2029.08505575 170.105801854,2018.86440968 172.704574775,2022.00569892 173.604213335,2021.47872455 174.182825057,2018.28146585 173.684516084,2016.86735588 172.871231485,2015.47706216 169.815279002,2017.83049683 158.860495484,2005.50493989 155.731520514,2001.46425721 153.054863471,1998.88207571 136.533986659,1978.71917194 141.693844647,1974.47775721 128.732259566,1959.12201554 139.605546383,1950.07939969 131.612058245,1940.87113228 126.017754195,1934.43136593 128.259483928,1932.51734613 130.726381247,1934.96070347 134.049785089,1932.54778142 189.178027753,1997.74155623 196.335987134,2006.19725987 207.197377228,2019.61140175 198.539153144,2027.03055462 196.240622739,2025.0105921 194.733124212,2026.20574969 186.876444343,2032.86657048 184.397172886,2038.05615929 187.323592534,2041.49251013 185.553220206,2042.98722509 149.692512956,2073.25270746 146.7117124,2069.9962157 145.105566137,2071.35280077 147.636924254,2074.60496914 142.788674577,2078.8766946 140.304835997,2075.66017232 138.104608965,2077.21825506 140.973334203,2080.85290275 133.143402454,2087.15164808 130.633481817,2084.98423216 " moovel_rot="-10.7" moovel_centroid="161.382159357,2013.53871478"/>
  <polygon id="281218256" class="tile" points="241.124409087,1932.5778436 241.118036897,1936.39725512 244.276204903,1936.39979505 244.255826356,1971.22125069 208.197377228,1971.15159605 208.226599534,1936.01854392 208.225036008,1932.51734613 241.124409087,1932.5778436 " moovel_rot="81.9" moovel_centroid="226.096836948,1952.02085212"/>
  <polygon id="283155489" class="tile" points="247.330545956,1996.42548521 246.786548704,1996.05631276 246.130715027,1995.40532011 245.628054853,1994.628213 245.295148853,1993.76415273 245.276204903,1937.53734977 249.193700791,1937.53769285 249.196471336,1932.54151124 301.420143011,1932.51734613 302.253576626,1932.66505002 302.656141102,1932.80623781 303.033336509,1932.99357176 303.715848295,1933.49898714 304.01368685,1933.8029421 304.483183113,1934.5017313 304.794630183,1935.29391095 304.913888608,1936.13066622 304.91597173,1993.94093865 304.626151926,1994.77313315 304.158138884,1995.52739573 303.537301436,1996.15758065 302.786405127,1996.63614183 301.955855627,1996.94071311 301.075896335,1997.0578748 300.631697284,1997.03401288 299.761522091,1996.85609169 250.718592057,1996.87591539 249.805787247,1997.02509429 249.338823117,1997.0287776 248.425720753,1996.8873478 247.985435517,1996.7454524 247.330545956,1996.42548521 " moovel_rot="28.8" moovel_centroid="275.225638544,1964.8307702"/>
  <polygon id="323715078" class="tile" points="305.91597173,1955.19120826 319.912632018,1955.16409568 319.930243994,1932.51734613 305.933566512,1932.54445201 305.91597173,1955.19120826 " moovel_rot="-68.7" moovel_centroid="312.923103218,1943.8542732"/>
  <polygon id="238899941" class="tile" points="351.037129614,1942.80227671 347.319813827,1942.61117121 347.029699756,1940.8736524 346.30714162,1936.63921288 330.573698283,1936.82540142 330.446209526,1932.68099414 324.481674247,1932.51734613 320.930243994,1933.38438613 323.373644285,1963.49049401 325.075064509,1980.08530171 327.984475754,1980.0426774 329.435491784,1980.57258041 329.635107098,1984.1669048 328.36239148,1984.76308836 325.699690295,1985.12530929 324.928066877,2007.64325298 324.231772816,2019.30581357 326.852422752,2019.51646554 327.866804582,2019.96325213 327.716958194,2023.20498 326.49676104,2023.54054092 323.93888386,2023.58813487 323.004524437,2035.92276373 322.165676251,2053.70014445 325.383695969,2058.39564566 326.897478074,2059.18379771 326.597746243,2064.05200175 325.066467032,2064.82093498 320.981169177,2066.86739026 321.371381481,2085.094254 324.944190925,2100.46578281 329.924262411,2114.72081087 333.498515767,2113.15714318 336.147243186,2112.5580712 340.559139859,2111.56085878 340.990339944,2108.62987493 343.456039423,2105.42442284 345.681318322,2100.75320029 347.184833789,2062.83868701 347.206500147,2062.20160647 351.156196375,2061.70855538 353.33370521,2022.85138926 354.527913314,1982.64042199 351.037129614,1942.80227671 " moovel_rot="64.9" moovel_centroid="337.364589805,2019.11702083"/>
  <polygon id="251110317" class="tile" points="355.527913314,1953.90331657 363.862334865,1953.60273245 372.306636292,1953.31061378 372.306917993,1951.56828825 371.368857075,1951.57056767 371.351144086,1933.35713966 371.308943747,1932.51734613 363.875486539,1934.58179297 355.553837801,1936.87081702 355.527913314,1953.90331657 " moovel_rot="57.1" moovel_centroid="363.760090097,1944.16646366"/>
  <polygon id="246832536" class="tile" points="373.315000853,1932.51734613 380.787590833,1932.65683451 387.470428194,1932.77520745 387.751404226,1975.50626031 382.524985403,1975.42929136 382.580648621,1978.26116867 380.654352081,1978.19366456 373.306917993,1977.77561254 373.310401703,1950.45360099 373.315000853,1932.51734613 " moovel_rot="-12.0" moovel_centroid="380.365359878,1954.97415445"/>
  <polygon id="62235492" class="tile" points="449.53087659,1932.51734613 449.489967854,2002.34256657 440.233488306,2002.93740239 401.1853387,2005.44885513 391.01914376,2002.34246633 388.954612235,1993.0082896 388.751404226,1935.98691411 449.53087659,1932.51734613 " moovel_rot="64.6" moovel_centroid="419.394273517,1968.95111769"/>
  <polygon id="412809198" class="tile" points="537.303123906,2194.02996435 524.289599187,2195.99617611 530.223923452,2100.50459525 450.53087659,2064.29739206 454.60391037,1932.51734613 468.131553603,1933.97393724 465.591672556,2056.84518937 526.462769843,2084.76291054 532.663659907,2082.90855653 533.603516984,2026.63977479 530.242073247,1997.51657925 518.201457033,1954.51633761 516.966806112,1944.18289678 529.15496773,1944.19414368 537.008295389,1969.32164095 545.051646691,2028.62481555 545.077637465,2084.16650467 537.303123906,2194.02996435 " moovel_rot="28.2" moovel_centroid="505.234745471,2050.2171421"/>
  <polygon id="314845258" class="tile" points="571.683068313,1932.51734613 546.077637465,1932.55949681 546.11351125,1974.18879102 570.470965263,1974.33439265 571.685285111,1934.93697605 571.683068313,1932.51734613 " moovel_rot="-31.5" moovel_centroid="558.616613629,1953.21806273"/>
  <polygon id="5889069" class="tile" points="0.0,2402.20409417 4.71468658224,2403.1683033 3.45221041851,2410.93578977 19.2825762045,2403.39986756 21.2788561162,2408.34944313 23.7210071661,2414.39699192 16.6330917478,2417.40064103 19.0974761557,2422.52805893 23.6379093055,2431.94769007 64.9781820875,2413.18365552 68.4688507754,2410.79154508 71.440932681,2406.95921288 73.5965434358,2403.00395044 74.1613630347,2398.42023626 74.2078156784,2306.6145579 73.8742067188,2206.91799465 73.7685924724,2201.97096281 72.6737222537,2199.85599984 71.461708843,2198.30321754 69.6722185627,2196.89704698 67.4020484302,2196.02850109 62.8947589383,2195.99617611 0.234505167603,2196.00948469 0.213558083028,2326.45258255 0.0,2402.20409417 " moovel_rot="-40.5" moovel_centroid="37.21650603847439,2306.71942033"/>
  <polygon id="252079922" class="tile" points="82.5397436853,2224.09490299 76.2078156784,2224.10225485 76.2082920209,2205.86801228 76.2108900521,2200.36415634 76.2090944082,2196.00352597 82.5410225458,2195.99617611 82.5397436853,2224.09490299 " moovel_rot="-3.8" moovel_centroid="79.3745193461,2210.04973074"/>
  <polygon id="364262716" class="tile" points="83.5410225458,2242.79005232 100.378070975,2242.78457421 100.414254225,2195.99617611 83.5771871405,2196.00165156 83.5410225458,2242.79005232 " moovel_rot="-81.9" moovel_centroid="91.9776336451,2219.39310923"/>
  <polygon id="443154949" class="tile" points="114.896784508,2195.99617611 104.243511153,2211.01352121 101.414254225,2224.28747268 104.248618171,2237.08318678 110.603630223,2249.49036007 130.07776951,2248.39578464 132.691065587,2238.83116899 132.701904161,2203.85374042 126.630720742,2196.25195 114.896784508,2195.99617611 " moovel_rot="38.7" moovel_centroid="118.6206869,2223.38563326"/>
  <polygon id="264854016" class="tile" points="148.522225134,2196.265899 148.50192133,2229.05749372 142.58006124,2229.28715867 142.739577678,2223.98970921 141.114676709,2223.94407734 141.740931998,2211.86022283 133.701904161,2211.39606225 134.147014049,2198.82995313 138.229079044,2198.95176842 138.3171171,2195.99617611 148.522225134,2196.265899 " moovel_rot="59.6" moovel_centroid="142.787645744,2209.89269115"/>
  <polygon id="163806021" class="tile" points="154.27406232,2197.52712888 154.175012373,2209.13729786 150.56960274,2209.32908629 149.525546335,2210.39609708 149.522225134,2195.99617611 150.955248865,2197.18636697 154.27406232,2197.52712888 " moovel_rot="11.6" moovel_centroid="151.808204406,2203.22394045"/>
  <polygon id="377121568" class="tile" points="155.465875841,2220.08882302 168.415764208,2220.21539056 168.446367105,2195.99617611 155.27406232,2196.20349356 155.465875841,2220.08882302 " moovel_rot="-82.3" moovel_centroid="161.915480261,2208.09162082"/>
  <polygon id="372749518" class="tile" points="178.55397304,2233.10459455 192.920919554,2233.48474851 193.171249023,2196.1132167 169.446367105,2195.99617611 169.480449678,2216.26237375 179.7754388,2216.08374103 179.699886523,2223.31030341 178.746745886,2223.46637504 178.55397304,2233.10459455 " moovel_rot="-82.0" moovel_centroid="182.86489792,2212.36081457"/>
  <polygon id="358298627" class="tile" points="194.181361727,2198.83677519 194.171249023,2217.67010287 209.470370911,2214.38614282 208.181391561,2195.99617611 194.181361727,2198.83677519 " moovel_rot="22.2" moovel_centroid="201.494651044,2206.86279523"/>
  <polygon id="236798986" class="tile" points="210.470872117,2195.99617611 215.566383894,2196.01704936 215.565878392,2211.40368528 210.470370911,2211.38280697 210.470872117,2195.99617611 " moovel_rot="40.4" moovel_centroid="213.018376468,2203.69992835"/>
  <polygon id="357531024" class="tile" points="298.114222771,2264.13911109 291.79279074,2267.70654575 280.423702133,2248.13419536 284.085915615,2221.96149361 293.430206899,2223.33114226 297.02715361,2220.96551567 297.833135891,2217.0649091 293.215207084,2216.44990912 294.13471295,2209.51757765 290.303452106,2209.01054697 290.739944179,2205.70525898 223.435519281,2195.99617611 216.566383894,2206.26156499 253.132799153,2279.28777683 255.862038795,2277.91740922 257.108690721,2278.20643879 259.620478856,2283.55704192 259.018107421,2284.33060828 258.061480717,2284.1617109 256.819901455,2280.70134937 237.575784186,2287.82054477 238.416427905,2290.88747647 237.755515574,2291.52311689 229.570949107,2295.19027123 233.597882012,2303.04408065 234.279169883,2308.88686239 232.530904416,2313.10754859 216.595648328,2320.10997986 221.936446845,2333.6233136 243.991144769,2326.78744816 238.311641048,2297.59825335 298.422611073,2277.8984634 298.114222771,2264.13911109 " moovel_rot="22.5" moovel_centroid="256.900302871,2247.71399857"/>
  <polygon id="377007924" class="tile" points="299.422611073,2196.19747053 309.942299686,2195.99617611 309.877662165,2314.36863389 300.033741888,2314.60452689 299.422611073,2196.19747053 " moovel_rot="7.4" moovel_centroid="304.817215747,2254.6370233"/>
  <polygon id="59386207" class="tile" points="402.319306918,2364.26775483 310.942299686,2357.04101489 314.547459914,2285.92046875 325.794488223,2240.26997831 330.417899637,2223.76921422 343.278589959,2222.72763364 347.974159825,2216.35705301 345.137871301,2206.6487938 337.362108896,2203.5858151 329.251029946,2207.87966553 326.89906537,2211.90083248 319.970857774,2195.99617611 402.241149048,2199.85357611 402.319306918,2364.26775483 " moovel_rot="-48.4" moovel_centroid="360.880701079,2284.18564428"/>
</svg>