<svg xmlns="http://www.w3.org/2000/svg" version="1.1" width="792.5px" height="800px">
  <polygon class="bin" points="-1.875,0.0 0.77665042945,1.09834957055 1.875,3.75 1.875,803.749999 0.77665042945,806.401649429 -1.875,807.499999 -343.443874333,807.499999 -346.018347466,806.476643108 -347.187699398,803.965112648 -346.313709763,801.336175352 -343.873393196,800.024678404 -317.364554258,796.968284714 -316.470090162,796.804603978 -281.55372776,787.993399428 -280.947621575,787.892368622 -242.07673279,784.652839127 -241.559430519,784.589906372 -214.383797918,780.232950778 -214.347168521,780.227263687 -199.019110702,777.924950469 -198.565717579,777.841214904 -175.876955301,772.85875362 -175.770219921,772.834422118 -142.011264068,764.855426459 -138.82890482,762.851416692 -137.768463002,759.937400179 -138.918515389,756.356779418 -145.913501144,746.975049582 -150.832376156,744.264998296 -174.252791883,742.457481211 -174.470082215,742.444168421 -200.021383446,741.284434802 -200.103051572,741.279834983 -235.748460511,738.881910345 -235.785444615,738.879238621 -258.655543377,737.113404457 -258.880611111,737.089173962 -292.826389565,732.394320458 -315.074997632,729.37260801 -315.15002189,729.361644983 -341.867384581,725.181244155 -341.881953904,725.178935163 -366.883782518,721.166141142 -367.016565569,721.146157573 -379.546506681,719.385386133 -379.667065646,719.366439266 -388.122376153,717.896253573 -392.804882134,718.782136478 -393.292303776,719.122621328 -395.476090559,719.163545699 -398.440598869,718.321456361 -399.686684351,717.420140126 -399.743708246,717.503149224 -400.248347649,717.156482355 -400.369519899,716.926232786 -400.52115758,716.816550501 -400.725594211,716.514596272 -400.622782167,716.444987882 -401.874999,714.06554552 -401.874999,673.952136218 -401.070812118,671.631643798 -399.003166961,670.306409811 -396.558875855,670.544826679 -392.44703509,672.434777949 -392.02737352,672.611083768 -330.270992492,696.182085099 -326.222219352,696.438122553 -322.078561199,695.431548343 -320.159312812,695.470957562 -295.296517952,702.603270317 -294.814540198,702.722873651 -263.912378143,709.216150496 -263.156044501,709.331563569 -239.256845967,711.626784995 -238.728330356,711.657065013 -216.101572374,712.080598215 -215.370652416,712.055365006 -196.507511919,710.39617229 -194.880663685,710.050945023 -169.590065999,701.374867364 -167.782614562,700.43526197 -150.042092009,687.545729807 -148.248655697,685.617816367 -139.640083619,671.766805234 -138.643842801,668.851679222 -136.473593121,647.757528151 -136.458701565,646.515118822 -137.901641327,628.183760559 -138.304779674,626.346276878 -141.97560503,616.395106709 -142.499974975,615.288765632 -150.958514606,600.912197858 -151.925354281,599.272332473 -152.665362845,598.246455362 -165.554423431,583.464135544 -166.243395547,582.7785432 -184.0238467,567.428594531 -184.851849594,566.815769225 -202.711545421,555.565476258 -203.474512179,555.149770259 -238.878585591,538.670645637 -238.947628864,538.637647649 -335.430566479,491.310087357 -335.434856318,491.307979679 -393.764464169,462.603395308 -393.79744696,462.586962356 -399.813761511,459.552476974 -401.874999,456.204256374 -401.874999,337.523106385 -400.889760657,334.989612162 -398.45174941,333.787368952 -395.842043746,334.548108014 -356.089505723,365.053424054 -355.961242878,365.156397481 -353.317585816,367.375888564 -352.855016663,367.731882995 -330.787025077,383.269565417 -329.587107861,384.668158769 -329.448925076,384.946473684 -329.167160073,387.513458494 -329.594268987,389.242389586 -327.037499513,393.081631515 -315.153860358,400.672475664 -310.947494316,401.47055331 -307.35309403,399.144455765 -303.270646202,393.371215004 -303.061569161,393.057654223 -298.847880157,386.346702399 -298.673449631,386.052929278 -283.83619858,359.587551744 -283.230680775,355.534632867 -283.355489271,355.342888739 -283.839690514,352.344817248 -281.945089658,349.971344874 -279.194635507,348.538606463 -279.153451462,348.493136186 -277.533911099,345.331268643 -274.482836271,331.069778339 -274.571781089,328.261752385 -278.967333911,323.791394057 -292.368881796,319.778118765 -297.119654189,320.465549279 -299.660377469,324.538278616 -300.580165539,331.972534229 -302.266520062,334.661715312 -305.411102532,335.094251515 -307.348459793,334.494297594 -312.189389857,335.197245767 -313.820159305,337.932826556 -315.715781567,339.520576834 -318.187709473,339.583083849 -367.585593701,323.721451904 -369.401482136,321.806138334 -373.004362323,319.062009973 -375.549955139,318.219322913 -376.503099992,317.744540237 -379.934262049,315.373883786 -380.47654305,315.205470507 -381.682025816,314.572215309 -384.25184636,312.551848281 -386.34380428,311.813661311 -387.286425438,311.321105825 -391.010790118,308.640814076 -394.105771314,307.690321601 -395.485365848,306.917964787 -399.132167015,303.701535026 -400.382412021,300.509621345 -399.225436862,289.136076321 -400.151933575,285.361107819 -400.382549275,285.187236585 -401.874999,282.192914165 -401.874999,178.044769722 -400.968573197,175.600064057 -398.687486579,174.33719535 -396.134478226,174.866668552 -395.753930087,175.105014953 -390.272900359,175.883953766 -390.032438089,175.789118931 -387.755509168,176.405111169 -351.891136817,200.115421784 -347.426068355,200.915246004 -343.778310644,198.218874583 -316.554051269,151.471519789 -315.930229457,147.232806088 -318.406823244,143.73676108 -322.695381184,140.96838381 -324.143783271,139.209504159 -324.18781358,138.595088754 -327.13955342,134.201403921 -400.132462265,87.9396899846 -401.874999,84.7722633887 -401.874999,52.7521015253 -400.209100627,49.634567178 -396.69152145,49.2868970416 -389.66122028,52.1951753108 -381.834512617,55.4329295186 -379.423812249,55.9506311456 -330.010542694,57.4747018234 -327.152157626,56.9461074792 -216.22551348,10.4965950356 -212.131033888,5.0105378807 -211.950384601,3.34551224183 -210.726826063,0.95900294759 -208.222263136,0.0 -1.875,0.0 "/>
  <polygon class="309154409" points="28.1832832193,802.553924899 78.3947873257,801.0 83.0866056543,858.546214418 39.2278934104,873.576006698 40.7603603039,909.348211297 1.0,911.424363128 28.1832832193,802.553924899 "/>
  <polygon class="294992644" points="95.0094738757,801.0 92.5977797523,801.776830436 90.5620685345,803.139467469 88.5776818236,805.20889297 84.3314767729,812.64609084 84.0866056543,814.072402938 84.6170637524,815.040257609 86.8656012209,816.530244455 125.046476783,812.130326212 125.951732678,808.182498439 121.951524049,807.259216201 96.636735208,801.382047753 95.0094738757,801.0 "/>
  <polygon class="201146430" points="146.839524886,801.0 132.128187024,803.413657686 130.788862328,803.681134273 126.951732678,838.351211627 142.999224256,835.663706272 146.839524886,801.0 "/>
  <polygon class="377121569" points="150.599651753,805.941038223 147.839524886,822.712557103 163.018916412,820.795993611 163.671708647,816.822785905 176.633753229,815.186384783 176.077348946,818.561064222 187.102763116,817.172988489 189.766470136,801.0 150.599651753,805.941038223 "/>
  <polygon class="330741659" points="209.847963279,801.0 190.766470136,821.76935893 198.717878009,826.671999076 217.797314054,805.909004341 209.847963279,801.0 "/>
  <polygon class="281477531" points="227.064950428,864.487842787 251.833280464,857.081983303 251.895813336,857.986224017 256.789061268,856.521608787 255.577560076,838.494110579 251.661921217,839.665802168 250.755067179,826.184983325 254.825356315,824.968716972 253.603105167,806.794773353 248.783573775,808.240282896 248.868552294,809.501123867 219.100018359,818.397058648 218.797314054,813.926803385 255.280479646,803.024986625 259.104770767,801.878767766 262.053210195,801.0 263.991541067,829.738264322 264.402902059,835.838700978 265.873244334,857.718772536 262.608281528,858.693060084 256.858829371,860.412391118 227.381958569,869.225555936 227.064950428,864.487842787 "/>
  <polygon class="448157972" points="269.99970948,801.0 266.873244334,804.024985348 286.652957866,817.557817652 289.401340217,814.246253511 269.99970948,801.0 "/>
  <polygon class="314183372" points="303.725707572,801.0 330.001098953,815.544806928 316.530615406,831.172202386 290.401340217,816.46181772 303.725707572,801.0 "/>
  <polygon class="275737159" points="331.001098953,804.279182829 337.121054161,873.893440256 349.468744877,870.830741168 347.061048587,844.750054417 344.686468509,844.476258246 342.84043761,843.750380037 343.491527935,842.075766329 344.789243589,840.757724416 347.176397759,840.171928026 348.914729155,841.171602306 348.422468387,837.917885484 347.826642709,833.957393005 346.876889279,836.179598538 345.718095338,837.223844166 344.313816798,837.631354664 343.302785337,837.586783203 342.293906097,837.223844166 341.667866367,836.408823185 342.286251548,835.230863207 343.445714162,834.364903465 345.018687401,833.097800643 345.671480031,831.926208125 343.65998623,805.565386662 340.767500414,806.202121249 340.263897542,801.0 331.001098953,804.279182829 "/>
  <polygon class="185021234" points="362.926374602,801.0 396.552249419,823.942693843 384.094706053,836.828061023 350.468744877,813.885359025 362.926374602,801.0 "/>
  <polygon class="369797924" points="397.552249419,816.893935615 407.493416092,823.172551553 421.173014566,808.79414062 421.993669013,807.947228199 419.126578944,806.043267266 415.966217751,803.94827358 416.403281581,803.489794735 413.140247456,801.324755825 412.603167517,801.0 407.95419418,805.985957406 397.552249419,816.893935615 "/>
  <polygon class="220792596" points="428.94604682,832.312789712 422.993669013,831.707926696 426.743024439,823.519992575 430.421292726,818.025291344 435.086600593,812.829838819 439.669727204,808.82501135 444.418647184,805.214936738 450.577492994,801.0 452.614146014,805.654257967 446.541038895,809.3216354 439.079944454,815.503968701 433.455584889,822.405771516 430.702249484,827.16827092 428.94604682,832.312789712 "/>
  <polygon class="275355497" points="453.614146014,919.269758303 453.733883085,870.114259723 456.230712029,866.931028136 508.892432966,801.0 542.982872746,817.298118333 463.226394903,917.149723085 454.526957796,919.066031189 453.614146014,919.269758303 "/>
  <polygon class="241824864" points="571.0810328,801.0 581.940808391,806.515475698 584.5720453,810.553364909 584.903738067,817.278935321 563.373583473,842.703640858 543.982872746,833.016520228 571.0810328,801.0 "/>
  <polygon class="324970097" points="593.149165487,834.404748812 585.903738067,829.915546095 612.50621575,801.0 619.749581553,805.495566738 593.149165487,834.404748812 "/>
  <polygon class="90145479" points="693.510238604,841.385161902 694.890144446,839.647000905 695.097371072,838.029810896 692.582750885,834.107807085 666.014374935,803.419415625 656.666014285,803.775961099 652.059710807,801.0 622.99671708,830.682420995 625.974924397,833.031802868 620.749581553,837.864271765 624.140802664,840.436495267 624.799655857,839.755238034 634.937592446,848.598849298 631.532901834,852.107006717 646.465550548,864.65615343 649.891835576,861.587310445 655.018015234,865.477482822 657.976534811,862.93072508 664.439285822,868.508124773 693.510238604,841.385161902 "/>
  <polygon class="248672190" points="698.173370816,805.145789156 723.781952113,801.0 723.519583894,803.591914208 729.987477715,805.661624706 732.764854581,814.991244275 696.097371072,821.856317424 698.173370816,805.145789156 "/>
  <polygon class="62235492" points="30.8783672987,919.269758303 73.0480115237,940.957821924 68.3855292873,947.189880254 48.7183254942,973.480393859 41.3258250682,979.158638123 34.5655448394,977.611762073 0.0,960.055041958 30.8783672987,919.269758303 "/>
  <polygon class="294357882" points="75.0480115237,933.860816433 96.7267788181,945.937277058 101.878549263,946.841261099 106.796715323,946.064598752 110.762560301,943.479968445 113.53447347,940.25236387 114.972634112,937.928743402 115.90160321,935.668783917 115.734126735,933.797155607 114.629498941,931.798205754 98.2362712357,920.434750942 96.2363073681,919.269758303 94.3332769014,919.333419101 92.3266738953,919.721749978 90.6761076396,920.950403433 75.0480115237,933.860816433 "/>
  <polygon class="324750257" points="116.90160321,933.380544781 137.290876383,942.371716693 141.86612621,936.093178562 134.117525359,932.794717795 140.616492814,924.637714776 128.08092359,919.269758303 116.90160321,933.380544781 "/>
  <polygon class="241842698" points="142.86612621,968.823976163 143.424787613,964.480575854 148.53444002,924.804084093 184.211438536,919.269758303 179.077439379,959.105459481 178.537988543,963.289643603 142.86612621,968.823976163 "/>
  <polygon class="319650194" points="185.211438536,926.02572531 187.670412152,948.891594868 208.434079971,947.306074618 205.819498249,919.269758303 185.211438536,926.02572531 "/>
  <polygon class="181963437" points="215.482659792,921.263207796 218.809860828,919.269758303 225.294807569,930.211440907 224.27568819,930.81648166 214.58286839,936.542078342 211.391049661,931.364202772 209.434079971,931.459735525 210.725015778,926.103532905 214.367805132,925.880623181 215.482659792,921.263207796 "/>
  <polygon class="335920898" points="229.305510022,922.676411388 226.294807569,938.487106506 240.266477502,936.806065694 240.565672025,935.86366406 240.98504206,935.411565989 241.567341806,935.347890204 243.773955833,935.118657382 246.848822159,919.269758303 239.150541031,920.05933768 238.831940905,921.702172248 229.305510022,922.676411388 "/>
  <polygon class="59389843" points="259.20632969,991.231524484 266.642391442,995.12359184 317.79355584,975.644149244 317.362186187,969.930266324 325.463494674,965.509492417 326.368867972,919.269758303 313.628996322,924.206495267 247.848822159,950.183297695 249.655554719,956.706166149 259.20632969,991.231524484 "/>
  <polygon class="241844809" points="352.615976163,919.269758303 353.97580922,953.926832647 328.726677511,960.990739563 327.368867972,926.327288863 352.615976163,919.269758303 "/>
  <polygon class="298417639" points="360.681048083,919.269758303 355.006953074,923.516631267 356.178445822,925.102045742 354.97580922,925.95524071 357.945447262,929.953796504 365.150180146,939.682768531 366.670240942,938.600356591 370.856781883,944.254367564 372.990833623,946.871258083 375.695183995,950.182166071 377.314402723,949.016981109 388.030561509,941.300019375 395.715033261,935.181208499 398.355348435,933.111891843 393.102386685,931.189019244 360.681048083,919.269758303 "/>
  <polygon class="445049771" points="448.626059753,921.345566352 455.181241447,919.269758303 462.048654048,923.147571598 468.39780429,988.376402315 457.034130007,1000.53837048 403.231673846,970.260808209 399.355348435,962.23773608 423.979070112,938.41686352 448.626059753,921.345566352 "/>
  <polygon class="344153857" points="482.180245024,941.101263872 469.39780429,954.870149052 478.342175503,962.334135265 487.661858766,961.958388482 544.712258095,945.005207192 546.661595917,938.853153148 562.392037304,930.191878016 564.070627654,924.039826504 560.142868789,919.77287628 550.294627479,919.269758303 482.180245024,941.101263872 "/>
  <polygon class="443136835" points="587.128729974,919.269758303 631.19940177,932.76629743 629.423174706,937.04646568 631.153442546,938.2120473 608.063298417,960.402690325 605.301002665,958.975966597 603.601858367,961.69565875 565.070627654,949.243674107 587.128729974,919.269758303 "/>
  <polygon class="412450780" points="632.19940177,962.422428317 634.484967406,971.102642551 688.908855292,946.482172423 688.232554002,943.76284062 693.94072632,941.056245941 695.803646653,947.647600401 698.182577422,946.743279235 698.647702462,948.813028417 743.095384763,929.134494857 741.700437255,924.587417761 740.523064018,919.269758303 706.102376954,934.948895399 705.302168019,930.414554479 701.955857502,929.503865291 695.929249148,932.22956447 695.460513477,933.267622857 632.19940177,962.422428317 "/>
  <polygon class="395180436" points="747.441404263,919.269758303 749.463015134,922.70268441 746.122204914,924.798107 744.095384763,921.365180693 747.441404263,919.269758303 "/>
  <polygon class="108325092" points="0.0,1036.129629 3.95165414382,1040.89847833 23.5369674118,1026.20354812 32.896972158,1037.49215731 60.7625795452,1016.58945063 47.4593842188,1000.53837048 0.0,1036.129629 "/>
  <polygon class="379656952" points="71.8353383858,1000.53837048 64.8909852065,1008.07731861 62.7625795452,1010.36956667 68.3481638847,1013.88434732 69.1160311149,1013.05659097 77.443462605,1004.01494603 73.274519274,1001.42980008 71.8353383858,1000.53837048 "/>
  <polygon class="266174999" points="82.5705409242,1000.53837048 78.443462605,1011.87540216 97.2410532799,1012.99636728 100.400492253,1001.9204691 82.5705409242,1000.53837048 "/>
  <polygon class="185193595" points="109.240806439,1012.01476063 103.880693147,1000.53837048 101.400492253,1012.45420073 109.240806439,1012.01476063 "/>
  <polygon class="450419556" points="110.240806439,1013.38351892 114.594950919,1016.28116087 111.909926884,1019.09601328 145.078995872,1041.14994372 148.992805873,1037.04866311 167.027414909,1049.04045229 140.075617787,1077.29727567 164.928087999,1093.81705153 208.829442585,1047.79223613 137.752104371,1000.53837048 130.422530693,1008.21871153 121.090005322,1002.00948046 110.240806439,1013.38351892 "/>
  <polygon class="377121562" points="226.190422758,1000.53837048 223.73591808,1016.83869096 209.829442585,1018.64700822 212.464901454,1002.21934069 226.190422758,1000.53837048 "/>
  <polygon class="201109395" points="229.161619222,1002.9711135 227.190422758,1017.00078391 242.29553003,1014.42793427 243.431043403,1000.53837048 229.161619222,1002.9711135 "/>
  <polygon class="185169188" points="258.78226598,1001.24536234 244.431043403,1052.37173796 249.750044182,1052.18702811 254.43277084,1052.02142618 268.391232119,1000.53837048 264.387130536,1000.8313581 258.78226598,1001.24536234 "/>
  <polygon class="299950347" points="269.391232119,1007.13453949 275.113170591,1010.4262575 275.886093138,1009.56671795 278.726219433,1006.39597224 281.068977805,1003.82372092 275.605170234,1000.53837048 270.302648114,1006.16676172 269.391232119,1007.13453949 "/>
  <polygon class="299606242" points="296.495277203,1000.53837048 293.97113345,1008.55434308 290.496434942,1019.6073472 288.36564791,1019.28900026 287.460335538,1019.28900026 286.324986789,1019.99573047 284.196147535,1019.90022639 282.068977805,1019.99573047 288.118549285,1000.53837048 290.491088371,1000.53837048 293.3527035,1000.53837048 296.495277203,1000.53837048 "/>
  <polygon class="298607593" points="297.495277203,1010.4392627 306.301791517,1003.55639135 310.159394083,1000.53837048 320.060366521,1012.50858136 313.019621485,1017.97795033 311.138310981,1017.65959355 309.162183341,1017.32850251 306.401333419,1014.11309929 309.32922095,1011.85913364 308.767570542,1011.2033188 304.684841087,1006.46617121 298.304075953,1011.38159856 297.495277203,1010.4392627 "/>
  <polygon class="309141147" points="321.060366521,1024.55545063 321.153941776,1028.50311647 327.93457723,1026.84764365 333.767138571,1023.95056639 339.75655337,1017.74254449 343.46578839,1010.29291964 343.468696126,1003.25716427 341.92840396,1000.53837048 337.150576007,1002.24477967 337.432776352,1005.09091757 337.882664794,1008.06439968 337.055141407,1011.55362527 336.032479522,1014.98554639 332.25824453,1018.08637336 328.572986225,1020.67782445 324.772606739,1022.74716514 321.060366521,1024.55545063 "/>
  <polygon class="388292605" points="382.799533921,1012.21565377 369.244051576,1030.09451153 344.468696126,1018.19437337 358.661011974,1000.53837048 382.799533921,1012.21565377 "/>
  <polygon class="264529120" points="417.28651192,1008.86153205 387.330360764,1000.53837048 383.799533921,1019.59822228 407.42780662,1025.67980091 417.28651192,1008.86153205 "/>
  <polygon class="346383186" points="418.28651192,1016.77824494 433.027006271,1000.53837048 443.23597535,1006.6689063 428.49348045,1022.91514967 418.28651192,1016.77824494 "/>
  <polygon class="184999234" points="456.042203177,1039.66780263 456.754778493,1035.27338186 462.333008137,1001.01602443 462.41114508,1000.53837048 450.604941311,1002.04138825 445.624255206,1032.63036093 444.23597535,1041.17082203 456.042203177,1039.66780263 "/>
  <polygon class="443136833" points="510.147306152,1000.53837048 484.008511394,1020.90746197 463.41114508,1041.41032079 521.898635537,1083.06574539 529.458578281,1083.4542748 546.742514567,1095.51779675 579.987658624,1059.32087363 510.147306152,1000.53837048 "/>
  <polygon class="108325087" points="580.987658624,1018.8306448 591.121011608,1031.30352365 615.783798139,1013.0112429 605.650491012,1000.53837048 580.987658624,1018.8306448 "/>
  <polygon class="299606237" points="618.995715557,1029.9917092 617.845691423,1028.89659976 616.783798139,1027.88426025 628.946113737,1019.05971703 631.572523418,1017.14964303 629.737937231,1013.9216182 634.443777161,1010.38161499 645.925036735,1001.73534962 647.314455777,1003.43531473 649.408022797,1001.87542165 651.160142584,1000.53837048 655.177714644,1005.89930926 651.410670563,1008.74531865 652.91339468,1011.26661576 653.471787972,1013.01114972 653.305871063,1014.62834551 652.947252662,1015.98449794 651.200606533,1018.18744989 652.938578103,1020.83608594 633.508190112,1035.1871126 631.333724073,1032.60214464 627.75454421,1035.51182534 622.121058395,1030.40555871 624.974254221,1028.01159855 624.368662261,1027.29850406 623.109563461,1027.29850406 621.239691266,1028.13893685 618.995715557,1029.9917092 "/>
  <polygon class="252080843" points="656.177714644,1024.72093443 659.485748374,1003.75464418 670.979926152,1002.25159347 671.071343917,1001.66565846 679.681560364,1000.53837048 676.27491058,1022.09696305 675.340969479,1022.21797144 656.177714644,1024.72093443 "/>
  <polygon class="252080324" points="680.681560364,1021.69367007 710.186035933,1023.94166019 720.989993052,1001.22614041 710.67583075,1000.53837048 680.681560364,1021.69367007 "/>
  <polygon class="346383188" points="757.97426293,1005.72031301 749.460337823,1000.53837048 721.989993052,1030.59237453 730.498764707,1035.77432147 757.97426293,1005.72031301 "/>
  <polygon class="252080160" points="758.97426293,1028.5712742 768.976960604,1003.53780098 772.716690656,1003.81163435 774.023713354,1000.53837048 781.453127589,1001.07966896 780.822968666,1002.65898692 770.143436995,1029.38640667 758.97426293,1028.5712742 "/>
  <polygon class="201146434" points="17.9022997728,1108.68785516 19.4445069127,1095.51779675 4.01353511978,1098.11614445 3.66383876503,1101.33223684 1.07986033782,1101.76529484 0.0,1111.64283992 1.15898013599,1111.45178486 17.9022997728,1108.68785516 "/>
  <polygon class="228873051" points="88.7204125891,1099.05912008 79.7766464774,1123.03949309 21.4445069127,1130.76544401 35.007155253,1095.51779675 88.7204125891,1099.05912008 "/>
  <polygon class="235746844" points="89.7204125891,1103.95056093 96.58870761,1103.37733671 98.2870700268,1095.51779675 91.4135700932,1096.09102084 89.7204125891,1103.95056093 "/>
  <polygon class="375468813" points="116.676660159,1095.51779675 105.163669228,1095.67697184 99.2870700268,1114.70158367 110.277282193,1115.28734832 116.676660159,1095.51779675 "/>
  <polygon class="412123940" points="117.676660159,1100.31324712 122.593504287,1100.19224638 127.294217939,1095.51779675 131.204918153,1107.43955503 126.301688375,1113.21575024 120.227521104,1113.01195943 117.676660159,1100.31324712 "/>
  <polygon class="182103073" points="135.308726292,1165.92087809 185.198912329,1149.96504248 188.202936924,1180.88943285 258.486984158,1158.40475505 252.373948408,1095.51779675 132.204918153,1133.95825715 135.308726292,1165.92087809 "/>
  <polygon class="167246605" points="275.127843252,1095.51779675 259.486984158,1111.3443684 272.426833255,1120.51550364 288.067651061,1104.68892797 275.127843252,1095.51779675 "/>
  <polygon class="317411470" points="290.985993691,1108.15794482 289.067651061,1130.41989908 331.729787524,1122.36458508 333.040447922,1110.38031892 360.174722479,1105.70632885 360.962264776,1095.51779675 290.985993691,1108.15794482 "/>
  <polygon class="412123958" points="361.962264776,1100.89914607 366.704237436,1095.51779675 372.579840911,1096.1355374 376.998269816,1112.13311341 371.452133823,1111.36252937 366.936628273,1116.88398728 361.962264776,1100.89914607 "/>
  <polygon class="413619448" points="383.040684369,1117.7245024 402.187981819,1122.0983592 414.363797444,1100.59197683 392.161896743,1095.51779675 390.363007368,1098.68836339 386.530669051,1097.81613921 382.251729779,1105.36692738 387.194384307,1106.49381581 386.972054269,1106.88217849 381.962642852,1105.73619025 377.998269816,1112.7394523 383.21720686,1113.93000699 381.293426635,1117.32977299 383.040684369,1117.7245024 "/>
  <polygon class="266175001" points="419.872444855,1097.16102542 442.290224689,1095.51779675 438.734515317,1112.13479088 432.864909906,1112.13479088 415.363797444,1108.23689812 416.816786133,1100.36468463 419.386481841,1100.19271882 419.872444855,1097.16102542 "/>
  <polygon class="285497452" points="455.983226324,1102.45157144 453.380798114,1103.533979 451.876354842,1095.51779675 448.209530893,1096.74028034 448.427607665,1099.49086858 443.290224689,1100.93620091 446.022265235,1116.61201173 455.121777557,1114.7337156 454.572509905,1107.86997666 457.864163067,1106.3546059 456.938575588,1104.43810769 455.983226324,1102.45157144 "/>
  <polygon class="201025373" points="473.327390043,1095.51779675 465.726390176,1096.78509612 462.614516886,1097.3072999 458.864163067,1130.90667097 460.566712887,1130.6264638 483.525586038,1126.79272051 484.167033141,1121.04210634 484.601474951,1117.13194396 464.749281192,1120.4434821 466.658281942,1103.30627552 472.567148878,1102.31918286 473.327390043,1095.51779675 "/>
  <polygon class="224286668" points="510.554648094,1108.23047383 512.116194142,1095.51779675 492.939308975,1098.22465397 491.66770614,1105.71468818 488.688820507,1105.91212958 485.601474951,1123.80287243 487.747067165,1123.60543093 489.864630873,1110.59977085 510.554648094,1108.23047383 "/>
  <polygon class="220792591" points="519.679062668,1095.51779675 524.98649517,1102.15857943 529.009077145,1107.65330276 531.172375456,1112.23754535 525.199938802,1112.79147471 521.801310029,1106.66005028 517.36419956,1101.24173113 513.116194142,1096.73389397 519.679062668,1095.51779675 "/>
  <polygon class="381298068" points="563.140786754,1115.50480714 546.906019407,1120.48405136 547.90208433,1115.31378755 533.124110089,1116.40896652 532.172375456,1098.29394661 560.394730339,1095.51779675 563.140786754,1115.50480714 "/>
  <polygon class="235063429" points="575.361429795,1095.51779675 564.140786754,1102.50460701 617.219109708,1193.37784663 623.332517073,1189.56916547 604.269848078,1156.57759631 609.250357008,1153.43766668 606.708261517,1149.18315801 575.361429795,1095.51779675 "/>
  <polygon class="182759603" points="698.198637663,1204.54156997 776.12246703,1182.7393368 778.418862356,1155.14739708 773.651755688,1141.23041791 771.392302548,1134.63816649 759.154769225,1118.56199511 742.069111285,1107.0398941 720.155326404,1098.30755796 694.049164676,1095.51779675 668.357383827,1097.44133071 655.102385441,1098.428575 629.530735551,1101.72151261 624.332517073,1113.87417468 635.816209606,1116.78495441 633.113415095,1121.47277521 629.26312519,1138.43428407 649.253685324,1143.75267095 665.911731396,1150.58695846 684.204730755,1163.87974692 693.276899356,1177.04515361 697.688161152,1192.86657757 698.198637663,1204.54156997 "/>
  <polygon class="219559498" points="4.99631561805,1210.01910229 0.0,1248.61025175 11.144243159,1247.36188252 5.41344090868,1282.57100687 28.3405788861,1279.71758886 40.2830226269,1204.54156997 4.99631561805,1210.01910229 "/>
  <polygon class="374110190" points="74.7835905256,1209.71829408 62.6392267045,1205.31839691 60.9666879814,1207.63614296 51.7906279398,1204.54156997 48.325550065,1209.14522495 43.6120614367,1207.64887783 42.2830226269,1216.90076125 65.8143594706,1225.84064263 70.7658040643,1219.04658727 74.7835905256,1209.71829408 "/>
  <polygon class="300398882" points="78.0658886785,1219.30641564 76.8916550327,1217.94389836 75.7835905256,1216.65141706 91.5922059981,1204.54156997 92.8684285261,1206.02505785 93.881725782,1207.19020073 87.8248581067,1211.9844776 78.0658886785,1219.30641564 "/>
  <polygon class="237465294" points="97.6531577544,1206.47743468 112.342293228,1204.54156997 110.092728016,1218.83131069 109.574061493,1222.14265962 94.881725782,1224.07215731 95.0970761243,1222.70304178 97.6531577544,1206.47743468 "/>
  <polygon class="252080092" points="113.342293228,1233.23039427 124.58065665,1204.54156997 133.02959661,1205.10197297 132.21814114,1207.17164325 135.772134618,1207.40726726 126.399129313,1231.33903267 125.345259215,1234.02642191 113.342293228,1233.23039427 "/>
  <polygon class="393391810" points="151.667551099,1204.54156997 136.772134618,1253.52095447 141.823478461,1253.61648057 144.307736286,1258.27815478 167.871067196,1258.54562791 174.163031986,1250.52780332 188.961979801,1204.68804313 151.667551099,1204.54156997 "/>
  <polygon class="438253029" points="226.645423414,1205.38836166 225.598463429,1204.54156997 219.753836727,1206.3306562 206.169468869,1236.59233142 197.362226936,1254.07573477 189.961979801,1268.73862485 197.287774341,1270.8969926 226.645423414,1205.38836166 "/>
  <polygon class="307215788" points="242.524638657,1205.55420811 240.855298062,1204.54156997 230.634923059,1215.43220812 231.683216443,1220.52087585 227.645423414,1234.42396043 242.472935522,1232.45600173 256.009045673,1218.55291791 244.508021503,1211.65551276 247.297501861,1208.6112291 242.524638657,1205.55420811 "/>
  <polygon class="299674963" points="270.047997116,1210.87667933 275.190409031,1207.64863854 279.248544162,1204.54156997 273.328788069,1221.77689026 269.303405908,1235.73960692 265.344261027,1253.45246379 263.871113111,1261.43662287 260.78225392,1263.41037858 257.009045673,1265.89985771 257.660292363,1259.2400239 262.584240107,1236.08978913 266.161292158,1223.09484823 270.047997116,1210.87667933 "/>
  <polygon class="266177531" points="354.036083439,1204.54156997 357.351155791,1214.3053774 336.726064673,1225.05639608 337.82534669,1227.75052034 341.40349366,1237.04302139 303.025686442,1257.04833847 307.44650717,1267.8821681 284.357636845,1279.37838711 281.256671751,1279.63315101 280.248544162,1278.18736591 293.682129321,1249.47548712 299.87184991,1239.71167018 307.695592976,1231.1261373 316.268125954,1224.24752193 324.002933311,1219.15225213 334.58553868,1213.71305242 354.036083439,1204.54156997 "/>
  <polygon class="285141593" points="362.281118775,1272.16540526 360.611614119,1270.46557652 361.001522633,1269.453319 359.307394566,1269.64431098 358.351155791,1267.40333844 439.466244914,1204.79622548 442.232937849,1207.44464289 445.680041686,1204.54156997 459.789159139,1220.12012419 455.486896271,1223.14415983 451.175861467,1223.64710473 448.572189982,1244.64983549 442.291338297,1245.34377255 439.346154415,1261.86457168 414.88086026,1265.3342588 410.715189024,1269.87350136 410.650303666,1273.27952527 404.846286789,1278.45540896 403.24209567,1286.7126321 391.990638158,1288.03684386 391.026934178,1286.14602228 382.8033303,1287.15828028 402.547956944,1271.77068847 403.660085249,1272.01897807 405.36263825,1270.8539269 405.44564537,1269.84166937 405.082555454,1269.59337979 404.349170913,1269.96899736 390.727980089,1253.91930778 391.014837258,1252.28314388 390.761353656,1251.46187876 390.133296684,1251.62103867 384.303132947,1255.17985434 362.281118775,1272.16540526 "/>
  <polygon class="78334020" points="504.501472114,1204.54156997 551.824009319,1259.42980077 501.569302243,1294.24928678 471.315087406,1315.16519684 460.789159139,1275.30141891 474.030449876,1269.56292375 488.553095522,1263.26395508 503.431352428,1256.81213087 511.11984754,1253.48113028 497.247184377,1208.34387336 504.501472114,1204.54156997 "/>
  <polygon class="301510332" points="564.523443496,1204.54156997 561.466012086,1207.05655986 554.114078254,1205.02546674 552.824009319,1207.34944477 556.611127139,1208.51461737 555.398841196,1211.83822467 560.815801523,1215.99591776 565.772075962,1211.27155597 562.853008462,1209.09402015 566.202383119,1205.8404508 565.414368546,1205.24194688 564.523443496,1204.54156997 "/>
  <polygon class="393391808" points="575.949973512,1204.54156997 592.975370434,1204.73899097 584.291361935,1230.91320424 567.202383119,1230.62025674 575.949973512,1204.54156997 "/>
  <polygon class="185632366" points="611.048282766,1204.54156997 614.236426572,1209.84686489 605.203602852,1215.55977037 608.04684581,1220.29186557 611.31291527,1218.2283408 613.311272821,1221.54653963 606.282764068,1225.9920349 602.006316637,1228.69881953 593.975370434,1215.33048987 611.048282766,1204.54156997 "/>
  <polygon class="239436982" points="648.370350157,1204.54156997 662.167655447,1207.99268805 646.885391286,1223.03880271 615.236426572,1215.0732118 618.725291811,1211.00445742 641.749811863,1216.66505637 648.370350157,1204.54156997 "/>
  <polygon class="118765452" points="700.255497703,1247.24794621 696.587266717,1204.54156997 663.167655447,1214.97142125 666.830677257,1257.67781 700.255497703,1247.24794621 "/>
  <polygon class="181959269" points="725.778290618,1253.22394809 715.473689467,1235.34698657 732.749447083,1225.13795268 716.691398498,1204.54156997 715.439213593,1205.0765408 701.255497703,1268.86550061 725.778290618,1253.22394809 "/>
  <polygon class="292875145" points="733.749447083,1219.72800203 742.235683502,1224.86018976 754.581877483,1211.19558238 755.889758043,1209.78200261 755.404850992,1209.22803217 747.661724508,1204.54156997 745.317699555,1206.92300585 741.511435008,1211.13827509 737.650532443,1215.41085213 733.749447083,1219.72800203 "/>
  <polygon class="166776565" points="0.0,1323.2732251 20.4348239746,1315.16519684 39.7370956661,1406.23890386 40.0771041021,1408.25158506 40.2396816535,1409.28977192 40.0971160781,1410.85023689 39.8523517281,1411.62728478 18.8505797228,1419.88182733 18.3669631474,1419.08567152 17.562931831,1417.20674389 17.133294503,1415.79277129 14.6849563921,1398.72956582 0.0,1323.2732251 "/>
  <polygon class="275608451" points="51.3365681175,1347.3385227 61.7619143672,1340.87583963 57.9949779283,1332.58577893 91.3791135434,1328.24973412 92.6343721582,1328.60629579 93.1852275198,1329.54227019 89.8611714795,1346.19879821 93.8531546576,1353.27273124 110.25490595,1344.52423101 113.450525037,1327.48567342 125.964104125,1325.81747428 127.870039934,1315.16519684 84.7347225338,1320.41811269 42.2396816535,1325.58825608 51.3365681175,1347.3385227 "/>
  <polygon class="222912944" points="167.023774953,1315.16519684 130.41659338,1316.45815462 128.870039934,1322.34971156 165.410914748,1321.26693886 167.023774953,1315.16519684 "/>
  <polygon class="104987874" points="170.159296333,1346.57555867 179.021753291,1340.38133633 183.471035622,1334.09798961 190.126030361,1325.31913117 193.232115557,1316.43205119 183.130432366,1315.16519684 179.89848622,1323.11009317 176.281255767,1330.73031994 173.481134933,1336.66989634 169.426123816,1343.9017935 168.023774953,1345.90075125 170.159296333,1346.57555867 "/>
  <polygon class="274860433" points="219.96326009,1455.17061082 198.771512727,1447.42683564 198.036846559,1446.88553563 197.405656548,1446.47796857 196.826678781,1445.98761445 196.162502612,1445.22342624 195.713447025,1444.42102862 195.481603971,1443.96888394 195.327509744,1443.4848981 195.210200173,1443.03275343 195.142101356,1442.60608171 195.11834937,1442.2367241 195.120095061,1441.72089711 195.176409203,1441.14775601 195.332093536,1440.32625379 195.560169047,1439.55569746 195.841141207,1438.76603644 196.235278307,1437.84901076 196.688696203,1436.92561688 196.971569656,1436.40978996 194.232115557,1435.24440324 207.514944451,1416.15881307 209.823390022,1416.94210536 210.090912595,1416.93573713 210.46909226,1416.85931837 210.824243748,1416.6746397 211.106130653,1416.26070475 211.581097575,1415.59840884 212.191915876,1414.88516711 212.782935959,1414.26744883 213.505627262,1413.69430817 214.002140295,1413.29310972 214.403120317,1413.01290762 214.934555733,1412.56713157 215.477087186,1412.18503781 215.818140494,1412.04493677 216.270724695,1412.01309563 216.774039281,1412.051305 217.014657703,1411.86662636 217.184025756,1411.44632323 216.58791787,1409.16649729 224.696511288,1406.12885234 225.410495981,1408.33225934 225.747254677,1408.5678838 226.45136328,1408.3004182 227.241960629,1408.03932083 227.823517843,1407.99474323 228.907895409,1408.03932083 229.857447639,1408.23036769 230.277655231,1408.38320517 230.694708655,1408.72708951 231.114422252,1408.93087283 231.569096095,1409.28749364 232.202067376,1410.24909618 232.541600325,1410.93686491 232.775112443,1411.3507998 232.930229923,1411.93030865 233.55719777,1412.23598365 234.342171078,1412.4206623 235.202005006,1412.40155761 235.978162043,1412.15319667 236.494472565,1411.65647479 236.651337744,1410.8477097 235.424689599,1405.40924256 239.056344914,1403.75350332 239.14872485,1402.95110663 238.909627878,1402.30791565 238.493411032,1401.94492669 237.481360472,1397.19422936 237.707122158,1396.59561607 237.76009621,1396.09889441 237.645146756,1395.67222324 237.260508904,1395.34107548 236.729492749,1395.34107548 233.862555469,1396.65293011 231.959241978,1387.24706085 235.114221369,1386.09441218 235.436238429,1385.63590001 235.424049336,1384.20941775 235.647578758,1382.43268323 236.021626083,1380.90430952 236.284326576,1380.25475071 236.820060223,1379.43324988 237.154503926,1378.96836957 237.338961483,1378.4015977 237.380347735,1377.89213985 237.189854792,1377.60556981 234.916992281,1376.64396814 250.195322595,1354.39340419 252.360334237,1355.202168 252.968449743,1355.30405951 253.547613627,1355.03659431 253.962163269,1354.5653461 254.187776647,1354.04952036 254.21035518,1353.53369464 253.850738137,1352.23457802 261.533917387,1349.04410066 268.326809453,1383.00582339 265.771326144,1383.94195234 265.207628842,1384.29220467 264.963513782,1384.63608878 264.919584033,1385.00544579 265.063413515,1385.40664393 265.405072436,1385.80784208 265.595035272,1385.94794302 265.833866485,1386.08167573 266.265815248,1386.16446265 266.605385606,1386.1771991 267.024376766,1386.11988508 267.96762044,1385.82057853 268.803703644,1385.43211683 269.453205596,1385.02455047 269.92471395,1384.7188757 270.371180493,1384.31130934 270.716376444,1383.87827009 271.046942698,1383.34333927 271.248536069,1382.82114489 271.246183636,1381.92322532 275.411549964,1380.32480117 275.578065113,1380.80241794 275.882939674,1381.17177491 276.227600844,1381.4647132 276.636558933,1381.63665525 277.132993979,1381.71307393 277.820190586,1381.71307393 278.473111283,1381.6239188 279.302847562,1381.42013564 279.960936974,1381.13356557 280.648400848,1380.77057682 281.196632048,1380.33753761 281.643250808,1379.8471844 281.917880913,1379.24220318 281.989665314,1378.75184998 281.9647387,1378.36975659 281.811864854,1378.09592299 281.381246741,1377.94308563 280.81261116,1377.93034919 278.272594448,1378.9492649 271.526600558,1345.18496075 274.729232325,1343.81579405 274.8966258,1343.59927467 274.97130031,1343.28086382 274.991900568,1342.96882119 274.797581902,1341.93717006 274.806145057,1340.98830578 275.115067665,1339.60003459 275.900566253,1337.11643031 276.308544388,1336.51781802 276.741869603,1335.85552358 277.273084615,1335.09770593 277.780813487,1334.47998902 278.458138541,1333.75401247 279.037079103,1333.17450489 279.727854886,1332.53768337 280.446863067,1332.00912152 280.905263972,1331.64613327 281.721172313,1331.12393965 282.323327487,1330.76731962 283.214817095,1330.30243995 284.927455862,1329.51278134 285.252207897,1329.30899847 285.474324137,1328.95237846 285.460120934,1328.40471202 284.786713375,1326.58340277 312.584211856,1315.66191738 312.740466755,1317.99905129 312.883948883,1318.36840762 313.328320295,1318.44482617 313.630422102,1318.36203941 314.482994805,1318.15188839 315.468909579,1317.94810559 316.424117903,1317.89079168 317.106104896,1317.89079168 318.268222381,1317.9035281 318.874474855,1317.92900095 319.489125242,1317.96084202 319.900894656,1317.90989632 320.21135948,1317.63606318 321.680025578,1315.16519684 331.218978458,1318.22193873 341.492500416,1376.42108034 341.203432831,1377.03879796 340.596797287,1377.65651559 340.370354163,1378.19144634 342.212986123,1378.35702014 345.403152272,1382.9039318 340.13807832,1388.45702358 338.810886542,1390.2337584 337.210321631,1392.15059428 333.942276605,1396.44277863 301.078466588,1443.7969416 300.354795293,1444.4719745 299.002217855,1445.24253094 298.490927056,1445.62462505 291.827847324,1448.10823685 289.022478151,1433.45492972 292.245431996,1432.13670552 292.392299757,1431.75461155 292.061882016,1431.3343082 291.745108477,1431.11778829 291.058896098,1431.01589657 290.239722448,1431.13689299 276.762811848,1436.41615819 276.297196274,1436.78551574 275.972144287,1437.15487329 275.729251102,1437.70890962 275.670392827,1438.14194952 275.651511442,1438.61319882 275.798005814,1438.87429642 276.171019332,1438.99529286 276.862740561,1438.93161052 277.616058614,1438.68961763 279.173688186,1437.9126931 282.786780403,1456.31689347 279.867601096,1457.51412206 279.653357646,1457.73064213 279.508313786,1457.99173986 279.509382329,1458.28467878 279.557305506,1458.5776177 279.765822198,1459.0870767 268.718270249,1463.4174785 267.142023127,1464.30266363 265.145152964,1465.48078777 263.226716351,1466.69075314 262.006646569,1467.48678301 259.594935081,1469.30173118 250.609775437,1466.15582108 243.107749303,1463.34105964 241.880172955,1462.76154996 240.892035379,1461.9846249 239.798325948,1460.68550436 239.070522062,1459.23354617 238.701061379,1457.60327738 238.544677669,1456.61620062 238.185016246,1454.44463183 238.095627543,1453.39387278 237.639649484,1452.43226908 236.877318726,1452.12659373 236.085845695,1452.20938081 224.937588532,1457.73064213 222.947874567,1456.96008542 220.637207657,1456.06853223 220.444009725,1455.72464743 220.231508028,1455.4253403 219.96326009,1455.17061082 "/>
  <polygon class="240971218" points="346.403152272,1328.46703802 380.304886039,1317.52119516 387.604455125,1315.16519684 392.838275382,1321.45634945 396.358110218,1356.12775189 378.469897765,1362.23425216 351.149477246,1371.5627452 348.177125157,1348.35931719 346.403152272,1328.46703802 "/>
  <polygon class="243544934" points="397.358110218,1331.38881081 399.371836124,1332.42029672 401.584741251,1333.49635304 414.857844528,1317.45738675 410.47137039,1315.16519684 397.358110218,1331.38881081 "/>
  <polygon class="326405344" points="423.761908156,1315.16519684 426.511779145,1316.16467637 427.959402277,1316.64850087 420.13438071,1327.84649335 418.721384472,1327.40086539 415.857844528,1326.49687724 423.761908156,1315.16519684 "/>
  <polygon class="243544155" points="428.959402277,1334.85894227 438.894233365,1339.83172614 439.702278684,1338.84480995 447.856672252,1342.91981891 447.048628315,1343.90673521 449.012935014,1344.88091713 457.199476556,1334.89077827 458.105212168,1334.34956624 458.968706946,1334.54694945 467.070483625,1338.67289552 468.775323715,1336.61628963 474.125769979,1329.8352215 449.410879747,1317.27273907 447.19797462,1316.19668275 445.184248714,1315.16519684 439.079222023,1322.51931001 428.959402277,1334.85894227 "/>
  <polygon class="300398890" points="475.125769979,1320.47518705 479.951280059,1316.70598529 481.929477576,1315.16519684 497.380495418,1332.52135484 495.450876676,1334.02394265 490.576807435,1337.83134765 475.125769979,1320.47518705 "/>
  <polygon class="283809362" points="500.410658415,1324.94033955 498.380495418,1340.58694159 501.20580112,1344.165856 505.172015182,1346.77043985 512.898025892,1349.66796 521.553650275,1351.50199485 523.949635744,1349.52149194 525.27193955,1349.52149194 525.166545762,1351.0243816 523.949008833,1351.84587639 572.907224114,1369.33289412 591.666708513,1340.71430509 524.28686287,1316.53435348 519.716743893,1315.16519684 516.84434682,1315.85295924 505.486386891,1319.88401133 503.428132662,1321.04301849 501.966618435,1322.40580718 500.410658415,1324.94033955 "/>
  <polygon class="246731436" points="607.406498782,1315.16519684 592.666708513,1319.10824554 592.92644773,1330.74629322 607.666240315,1326.80324326 607.406498782,1315.16519684 "/>
  <polygon class="265943081" points="615.746440807,1333.86590686 608.666240315,1329.47248074 619.662342998,1317.48925458 621.738575963,1315.16519684 628.843907132,1319.57772304 626.199258298,1322.46210193 624.032826914,1324.82436385 617.792303951,1331.63735731 615.746440807,1333.86590686 "/>
  <polygon class="324274229" points="641.587659106,1319.55144152 637.597731639,1324.56156492 629.843907132,1320.07346197 631.229199494,1318.20819382 633.780560225,1315.16519684 641.587659106,1319.55144152 "/>
  <polygon class="447745657" points="683.702311923,1315.16519684 706.059621498,1326.20180125 729.375274417,1337.71604651 715.496083769,1352.49096838 711.668259026,1352.2298598 695.371642311,1369.33566044 700.488199151,1373.4815575 679.749675173,1393.17935145 644.55399108,1364.6675465 642.587659106,1358.70662699 646.145653851,1352.74570847 683.702311923,1315.16519684 "/>
  <polygon class="222912941" points="766.636906349,1317.32437287 732.665926949,1315.16519684 730.375274417,1321.20324694 764.892480371,1322.85288316 766.636906349,1317.32437287 "/>
  <polygon class="309751829" points="0.0,1511.19881134 7.11015171055,1623.32373809 152.835498034,1579.49026423 146.255549159,1469.30173118 67.3085447397,1493.21197743 68.6676882723,1516.62543579 52.5846123621,1521.36417893 51.2202628087,1497.95071751 0.0,1511.19881134 "/>
  <polygon class="231847175" points="193.68724279,1469.30173118 200.090901631,1471.69575048 169.879582381,1511.7255598 154.835498034,1506.08432738 157.531664102,1502.56333288 193.68724279,1469.30173118 "/>
  <polygon class="244091353" points="237.527519235,1469.82401225 241.536367792,1469.30173118 233.875086283,1517.73377773 203.075313092,1521.74643047 206.653772023,1499.12908727 201.090901631,1499.85518593 202.591307572,1490.35221163 234.950254773,1486.13574528 237.527519235,1469.82401225 "/>
  <polygon class="442637490" points="245.03088004,1471.51756176 242.536367792,1485.46838326 261.817922658,1483.25255182 264.312419843,1469.30173118 245.03088004,1471.51756176 "/>
  <polygon class="217991141" points="289.344999143,1469.30173118 265.312419843,1501.52249046 297.011669843,1514.74829276 321.044085788,1482.52752155 289.344999143,1469.30173118 "/>
  <polygon class="395655354" points="355.131860001,1470.19325381 355.717968034,1470.08499749 354.47018483,1477.87945337 352.487388165,1478.1405422 352.401092972,1478.6754559 326.814147914,1482.06324288 324.923882253,1482.3115957 325.08637988,1481.27360829 322.044085788,1481.67479361 323.166178077,1474.32609827 323.808696361,1474.236946 328.031063821,1473.67656028 327.787156707,1475.21762102 332.356811017,1474.61265915 332.975772677,1470.68995928 334.492722629,1470.48618268 343.410525426,1469.30173118 342.896566309,1472.58126095 343.402434806,1472.98881419 344.835245025,1472.80414163 345.488628576,1472.23738791 345.607127646,1471.48596166 350.366732884,1470.82368768 355.131860001,1470.19325381 "/>
  <polygon class="283167855" points="381.476976174,1498.4284224 380.391568665,1498.76592027 379.982974122,1499.41544449 371.871466154,1501.93712685 371.844972851,1501.59326107 370.020735524,1502.16000283 370.03515619,1502.34467149 361.93086684,1504.85998618 358.726303356,1503.2425433 356.717968034,1478.49058202 359.708353391,1474.84815438 367.791820982,1472.3328418 367.810935899,1472.56845335 369.450465668,1472.05902297 369.433366391,1471.81704355 377.537652647,1469.30173118 379.294749935,1471.47954593 379.378253976,1472.49840667 381.476976174,1498.4284224 "/>
  <polygon class="247141744" points="390.769929174,1469.30173118 382.476976174,1472.84339366 384.751651828,1481.77399014 393.047800348,1478.23869669 390.769929174,1469.30173118 "/>
  <polygon class="185021235" points="425.048657865,1483.40214438 426.432718145,1469.30173118 400.374049543,1474.5495808 395.344520519,1471.98297464 394.047800348,1489.01301494 425.048657865,1483.40214438 "/>
  <polygon class="185631124" points="460.125000036,1495.47809201 457.706803908,1491.34464594 444.816130852,1469.30173118 432.424261524,1477.02725857 427.432718145,1480.13530303 442.739623059,1506.31804067 460.125000036,1495.47809201 "/>
  <polygon class="288437716" points="461.125000036,1481.94070474 468.305691873,1486.35957111 471.110268266,1483.28419287 473.688636988,1484.86326903 474.249910517,1484.19470855 477.200803312,1480.95378221 478.203002943,1480.0114304 481.239487791,1476.68136305 480.910834842,1476.47124409 482.293027138,1474.95584071 475.159746626,1470.60064816 472.653597995,1469.30173118 461.125000036,1481.94070474 "/>
  <polygon class="265042511" points="497.543568414,1489.83029569 483.293027138,1481.0432536 483.557859605,1480.75035224 494.014122018,1469.30173118 508.264631822,1478.08877037 507.663844829,1478.75098211 497.543568414,1489.83029569 "/>
  <polygon class="309309712" points="660.549400753,1535.00447257 667.265365057,1512.74475764 632.441236554,1512.27981953 610.649765405,1512.74475764 593.137444009,1510.7321489 580.206578649,1506.8661571 566.701312913,1501.14678285 557.033270898,1491.71427562 548.804698954,1478.26292588 546.830270109,1471.27612357 545.815072517,1469.30173118 513.138223762,1484.14152177 512.826761802,1489.86089333 509.264631822,1492.17921346 513.708355944,1502.8473094 521.231551018,1515.36879199 531.29320073,1526.1897512 542.900930922,1534.23382127 555.481388365,1540.25891372 568.426520901,1544.58984761 587.812956122,1547.52596632 608.00139763,1548.45584344 616.104686709,1548.22655867 617.202600817,1544.62806173 624.816489666,1544.51341936 627.671294239,1543.39247172 629.880732059,1540.60920983 631.702676096,1535.11911492 660.549400753,1535.00447257 "/>
  <polygon class="396940655" points="713.905800826,1492.54068976 706.274588769,1508.18401922 679.001321996,1541.27888388 679.767380755,1529.2901096 668.265365057,1531.23199788 675.410982247,1516.23170951 692.970207659,1495.67954204 673.621632137,1478.8710868 688.107493482,1469.30173118 692.87683275,1478.8710868 698.173218196,1484.16829608 706.725362683,1484.04095931 713.905800826,1492.54068976 "/>
  <polygon class="338083162" points="736.719280406,1515.6446265 740.798568525,1514.2692388 740.644599715,1512.78560305 742.550160023,1510.51876057 742.433398823,1508.90140675 748.986312496,1506.83195807 749.496067967,1511.49299341 755.91568631,1509.41717705 774.873886628,1485.51345991 773.248412529,1484.69841602 774.940133629,1482.5971311 748.950862074,1470.46698874 748.665167598,1469.56279981 747.977726748,1469.30173118 743.150021097,1470.88724557 744.357193781,1481.20900961 738.782545018,1483.04922572 737.775155965,1473.5743424 714.905800826,1502.65485587 716.917954772,1503.6290885 715.340416938,1505.698537 736.719280406,1515.6446265 "/>
</svg>