<svg><g transform="translate(0 0)"><polygon id="0" class="bin" points="-146.2500005,1203.75 -147.348350071,1206.40165043 -150.0000005,1207.5 -446.2499995,1207.5 -448.901649929,1206.40165043 -449.9999995,1203.75 -449.9999995,3.75 -448.901649929,1.09834957055 -446.2499995,0.0 -163.171543241,0.0 -160.493814322,1.12468709743 -159.422275891,3.82412382059 -161.301053671,98.8548458173 -159.696589592,102.952422081 -155.491962672,104.787997881 -153.497066964,106.86621437 -153.564799793,109.746145779 -155.31433232,113.68769184 -155.854305853,115.642839679 -157.322792358,127.701450159 -157.369199373,127.988970295 -160.378421538,142.920855708 -160.82247241,144.081699248 -163.111065518,147.971314188 -163.757490416,148.785707691 -169.360432244,154.119519229 -171.46926804,159.125289395 -171.395442965,164.998899948 -169.360495348,169.295521091 -164.777287877,170.558919019 -155.463713543,169.04851936 -152.666118809,169.71134304 -151.160082543,172.16036862 -148.81599325,186.879040183 -149.237221205,189.282752382 -151.048371551,190.918295028 -153.482448317,191.09303947 -165.475146027,187.906005107 -169.966621125,188.573998222 -172.561909339,192.300127909 -177.094540624,214.546791685 -177.232847421,215.91664005 -177.241119587,248.377222356 -173.549601295,254.380811397 -162.861242594,259.782678761 -161.04913418,261.792616161 -161.061656948,264.498799531 -161.181593662,264.804587321 -160.828469204,327.852262032 -160.572530476,372.931878079 -158.584749765,377.712317156 -158.534812344,380.465389303 -171.775845633,415.880191329 -171.552785455,420.411623477 -168.105236851,423.36086775 -148.889368723,429.319323965 -146.981112529,430.676489583 -146.2500005,432.901082898 -146.2500005,1203.75 " moovel_rot="0" moovel_centroid="-300.99691718986304,611.4166543589259" transform="translate(450 0)"></polygon><g transform="translate(-428.9741232 -43.24802849999992) rotate(0)"><polygon id="35099546" class="tile" points="431.529090997,1201.0 458.389629326,1201.95925188 459.828355513,1241.84459737 431.474121557,1243.25108037 431.529090997,1201.0 " moovel_rot="19.3" moovel_centroid="445.176670419,1222.2048810433128"></polygon></g><g transform="translate(-532.1315318999999 -88.4342117000001) rotate(0)"><polygon id="67498390" class="tile" points="565.011214638,1204.13071928 559.921765181,1242.08789129 534.667196589,1239.80521905 534.631560542,1201.0 565.011214638,1204.13071928 " moovel_rot="59.1" moovel_centroid="548.575938343,1221.1620032537887"></polygon></g><g transform="translate(-189.9341167 -65.92441510000003) rotate(0)"><polygon id="276562552" class="tile" points="225.258188037,1249.77734134 225.236170744,1201.01067619 245.443613356,1201.0 245.465628764,1249.76666514 225.258188037,1249.77734134 " moovel_rot="-89.5" moovel_centroid="235.350900225,1225.3886702881261"></polygon></g><g transform="translate(-103.7334524 -122.82666139999992) rotate(0)"><polygon id="386997399" class="tile" points="141.591033497,1252.90505565 141.590824073,1201.0 160.184517598,1201.00390516 160.173925187,1252.90209208 141.591033497,1252.90505565 " moovel_rot="-89.0" moovel_centroid="150.884870348,1226.9502496800685"></polygon></g><g transform="translate(-320.2574489 -128.92105809999998) rotate(0)"><polygon id="132317203" class="tile" points="327.286199204,1201.0 327.272936363,1236.93872159 353.09777538,1236.96136398 353.11829788,1201.0121047 327.286199204,1201.0 " moovel_rot="3.1" moovel_centroid="340.194433905,1218.9772066613075"></polygon></g><g transform="translate(-77.26946400000001 -178.550165) rotate(0)"><polygon id="386499101" class="tile" points="140.346476447,1378.55012305 140.590824073,1201.23448051 138.671254186,1201.0 138.828272036,1378.54690739 140.346476447,1378.55012305 " moovel_rot="-86.6" moovel_centroid="139.609892155,1286.3798728496745"></polygon></g><g transform="translate(1.4963148000000004 -175.86137930000007) rotate(0)"><polygon id="386787648" class="tile" points="1.37229191912,1223.65687179 1.0,1230.50589969 4.19201468052,1230.9236652 9.91144152116,1231.67602001 9.75527131585,1235.54109026 21.0425833232,1236.425378 21.5098312442,1242.37033198 37.1069326572,1243.28471343 37.1033977717,1203.46342242 35.7685229895,1201.0 12.83445873,1223.41672094 1.37229191912,1223.65687179 " moovel_rot="29.1" moovel_centroid="24.780434119152208,1225.813987388961"></polygon></g><g transform="translate(6.3175674000000015 -197.83387359999995) rotate(0)"><polygon id="431900721" class="tile" points="42.6473279258,1270.99628386 50.0667095568,1271.01106599 50.0908735593,1201.00428699 42.6641774551,1201.0 42.6473279258,1270.99628386 " moovel_rot="3.4" moovel_centroid="46.3673666335,1235.997163602764"></polygon></g><g transform="translate(-48.60065170000001 -200.52495219999992) rotate(0)"><polygon id="386787649" class="tile" points="51.0979099888,1211.8271237 53.9690279262,1213.91062429 51.0908735593,1243.39726832 55.5893635779,1242.20998982 71.0589844722,1229.13925432 65.9866195466,1221.92248396 70.3030583856,1218.22098616 68.2288733465,1213.39881537 68.3031448468,1208.83454085 68.0839167952,1205.39956636 65.0183321177,1201.0 57.8512958474,1206.7409372 51.0979099888,1211.8271237 " moovel_rot="80.9" moovel_centroid="60.3895457109,1222.1980710756268"></polygon></g><g transform="translate(-181.692607 -53.350779299999886) rotate(0)"><polygon id="57862628" class="tile" points="258.122845909,1201.06653616 258.128271014,1252.53395375 257.533735804,1252.53637076 257.538935116,1253.31703375 252.233303697,1253.35086311 252.219693034,1252.51309633 249.770782646,1252.51029889 249.942834432,1201.0 258.122845909,1201.06653616 " moovel_rot="59.4" moovel_centroid="253.999123834,1227.1298942872988"></polygon></g><g transform="translate(-276.8895007 -213.36435629999994) rotate(0)"><polygon id="431900719" class="tile" points="303.063931434,1201.0 320.869410357,1201.0025996 320.868252605,1228.94893368 303.051869937,1228.94641021 303.063931434,1201.0 " moovel_rot="-90.4" moovel_centroid="311.96336162,1214.9759115866318"></polygon></g><g transform="translate(-223.3657275 -101.15243929999997) rotate(0)"><polygon id="374946798" class="tile" points="291.580754944,1201.0 302.051869937,1201.53160248 301.993841727,1243.60076681 291.636107266,1243.80265332 291.580754944,1201.0 " moovel_rot="67.6" moovel_centroid="296.800680606,1222.4450114098236"></polygon></g><g transform="translate(-427.38550299999997 -146.30902420000007) rotate(0)"><polygon id="431900718" class="tile" points="506.080038444,1241.1616322 495.667412225,1241.15976814 495.662747765,1201.0045484 502.095671779,1201.0 502.103097507,1205.25462446 506.082787913,1205.25435776 506.080038444,1241.1616322 " moovel_rot="-90.1" moovel_centroid="500.737608013,1221.8365957548376"></polygon></g><g transform="translate(-292.233664 -198.42295680000007) rotate(0)"><polygon id="243446057" class="tile" points="360.568412314,1248.11844435 368.387808442,1248.10768137 368.384869996,1212.19598992 368.364452205,1201.0 360.545054831,1201.01076296 360.568412314,1248.11844435 " moovel_rot="-89.1" moovel_centroid="364.470147872,1224.5553042258266"></polygon></g><g transform="translate(41.9284876 -414.1569420000001) rotate(0)"><polygon id="239284260" class="tile" points="25.3576097642,1378.55012305 26.2887449699,1381.50226419 26.3304618535,1408.84478848 24.4589854714,1412.43955573 15.3119131484,1412.83729652 13.4710824371,1407.53260604 14.526230288,1382.04860685 14.5577177449,1381.29725116 15.9947475222,1378.76220847 25.3576097642,1378.55012305 " moovel_rot="60.9" moovel_centroid="20.156635388,1395.77994889"></polygon></g><g transform="translate(-73.06388910000001 -233.5275613) rotate(0)"><polygon id="243445322" class="tile" points="75.584309817,1229.48231037 88.2935624711,1229.4707354 88.2728042626,1201.0 75.5638856682,1201.00490416 75.584309817,1229.48231037 " moovel_rot="-87.1" moovel_centroid="81.9283924884,1215.2395509145194"></polygon></g><g transform="translate(-353.3661896 -239.49373409999998) rotate(0)"><polygon id="373939921" class="tile" points="386.197954966,1201.0 386.192723496,1221.8700176 373.702922736,1222.35348112 373.532623004,1201.83541057 386.197954966,1201.0 " moovel_rot="53.8" moovel_centroid="379.923815294,1211.7395629743528"></polygon></g><g transform="translate(-83.96634939999998 -251.16265299999998) rotate(0)"><polygon id="376982204" class="tile" points="123.808480339,1201.0 121.749337826,1201.02553701 121.752169981,1212.52935559 127.200246365,1219.91254453 129.451334321,1220.08970899 137.047544684,1214.63760376 137.671254186,1202.12452308 132.080814157,1201.41655299 127.928598811,1201.20366355 123.808480339,1201.0 " moovel_rot="-85.5" moovel_centroid="129.509948774,1209.4294338100356"></polygon></g><g transform="translate(-391.78936880000003 -259.7535310999999) rotate(0)"><polygon id="142388792" class="tile" points="394.308981413,1201.0 394.289367223,1222.25965813 410.792321235,1217.3014262 404.512725334,1203.30399112 394.308981413,1201.0 " moovel_rot="-65.0" moovel_centroid="400.70987191,1211.8275534923973"></polygon></g><g transform="translate(-143.26054019999998 -260.12015269999995) rotate(0)"><polygon id="156094116" class="tile" points="215.293082503,1219.1377308 214.30277408,1201.0 201.963660022,1201.31239677 201.961213142,1219.70707584 215.293082503,1219.1377308 " moovel_rot="16.2" moovel_centroid="208.370347912,1210.4081952412964"></polygon></g><g transform="translate(-82.81367700000001 -269.36619929999995) rotate(0)"><polygon id="295731028" class="tile" points="106.087661013,1221.88152913 101.270716248,1213.51270137 109.429836634,1201.0 115.60918698,1201.04230921 115.59471432,1222.06505649 106.087661013,1221.88152913 " moovel_rot="74.2" moovel_centroid="109.930389078,1212.2092940852574"></polygon></g><g transform="translate(-193.7027637 -240.8456446) rotate(0)"><polygon id="386499107" class="tile" points="270.139127168,1238.58661543 273.828747658,1238.59293016 273.827662028,1201.00658167 270.131367704,1201.0 270.139127168,1238.58661543 " moovel_rot="2.3" moovel_centroid="271.981723383,1219.7908713784266"></polygon></g><g transform="translate(-116.6263251 -269.78024760000017) rotate(0)"><polygon id="374996083" class="tile" points="200.948872163,1224.94614989 200.951573367,1223.0802452 200.961213142,1203.09486025 200.95798123,1201.010892 193.460743064,1201.0 193.451642053,1224.93525601 200.948872163,1224.94614989 " moovel_rot="76.9" moovel_centroid="197.206192153,1212.9725975625543"></polygon></g><g transform="translate(-384.0008217 -198.56314729999997) rotate(0)"><polygon id="386499103" class="tile" points="465.145539866,1229.23303843 468.66831564,1229.23265196 468.685935468,1201.0 465.163159661,1201.0003873 465.145539866,1229.23303843 " moovel_rot="2.3" moovel_centroid="466.915737667,1215.1165194025532"></polygon></g><g transform="translate(43.3261423 -54.522916600000144) rotate(0)"><polygon id="386499102" class="tile" points="38.1069326572,1229.24353887 41.6230346409,1229.2428844 41.6473279258,1201.01050874 38.1249897487,1201.0 38.1069326572,1229.24353887 " moovel_rot="2.3" moovel_centroid="39.8754585283,1215.1200573514652"></polygon></g><g transform="translate(-435.1256014 -273.41215020000004) rotate(0)"><polygon id="364380123" class="tile" points="481.657467363,1218.6125751 488.828194265,1218.59371024 488.817506063,1201.0 481.646769329,1201.01885923 481.657467363,1218.6125751 " moovel_rot="-60.2" moovel_centroid="485.237484062,1209.8062841332694"></polygon></g><g transform="translate(-513.2809510999999 -279.2225099) rotate(0)"><polygon id="394389222" class="tile" points="522.176274998,1205.15193996 524.588207288,1217.38341046 533.631560542,1211.73698171 533.62935497,1201.0 522.176274998,1205.15193996 " moovel_rot="-2.9" moovel_centroid="528.297909635,1208.7073672283354"></polygon></g><g transform="translate(-105.3201848 -165.33149890000004) rotate(0)"><polygon id="211258066" class="tile" points="187.168722558,1220.40512091 188.913586261,1222.21171559 190.848082224,1222.37835445 192.446917826,1220.82068387 192.451642053,1203.58571928 190.890796287,1201.06781275 188.652463633,1201.0 187.149577446,1203.67826716 187.168722558,1220.40512091 " moovel_rot="-91.0" moovel_centroid="189.814449283,1211.752560613233"></polygon></g><g transform="translate(-272.6843637 -21.280598000000055) rotate(0)"><polygon id="431899265" class="tile" points="359.543361078,1201.0 354.11829788,1201.0017121 354.119991646,1220.20733181 359.545054831,1220.20561918 359.543361078,1201.0 " moovel_rot="-1.4" moovel_centroid="356.831676346,1210.6036657684926"></polygon></g><g transform="translate(-227.63338880000003 -278.3962837) rotate(0)"><polygon id="307861957" class="tile" points="269.105234876,1223.0721527 265.453643772,1223.26741622 265.411910955,1201.00766006 269.131367704,1201.0 269.105234876,1223.0721527 " moovel_rot="-80.4" moovel_centroid="267.272902112,1212.0528990726436"></polygon></g><g transform="translate(-416.43716029999996 -282.0991765000001) rotate(0)"><polygon id="408640557" class="tile" points="480.646769329,1201.0 475.046579053,1201.13520986 475.211521585,1218.20746699 480.64345038,1218.15071875 480.646769329,1201.0 " moovel_rot="65.0" moovel_centroid="477.888903154,1209.5797240862144"></polygon></g><g transform="translate(-377.1774768 -83.07704480000007) rotate(0)"><polygon id="436160676" class="tile" points="460.839109803,1201.22879374 460.828355513,1224.56340035 464.145539866,1224.41918925 463.736823863,1201.0 460.839109803,1201.22879374 " moovel_rot="29.2" moovel_centroid="462.390905836,1213.0651554550857"></polygon></g><g transform="translate(-134.4551877 -106.12923890000002) rotate(0)"><polygon id="364391706" class="tile" points="224.231307667,1215.91464197 224.236170744,1201.00531834 218.139614721,1201.0 218.144264276,1215.91466187 224.231307667,1215.91464197 " moovel_rot="-60.7" moovel_centroid="221.187657777,1208.456714975692"></polygon></g><g transform="translate(-303.5019011 -126.04389849999984) rotate(0)"><polygon id="364391699" class="tile" points="393.289367223,1215.9145667 393.284887253,1201.0 387.197954966,1201.00008225 387.20244198,1215.9146529 393.289367223,1215.9145667 " moovel_rot="-60.7" moovel_centroid="390.243662721,1208.457324025864"></polygon></g><g transform="translate(-496.4212726 -241.07933760000003) rotate(0)"><polygon id="364391701" class="tile" points="581.548307953,1215.90585102 587.635187489,1215.90944555 587.63836153,1201.0 581.546143807,1201.005918 581.548307953,1215.90585102 " moovel_rot="29.3" moovel_centroid="584.592324072,1208.4542148425571"></polygon></g><g transform="translate(-199.36266990000001 -221.1734517) rotate(0)"><polygon id="364391698" class="tile" points="284.488542748,1215.90942634 290.580754944,1215.90351819 290.578587924,1201.00359029 284.491706007,1201.0 284.488542748,1215.90942634 " moovel_rot="29.3" moovel_centroid="287.534574509,1208.4552208945272"></polygon></g><g transform="translate(81.7494884 -440.88122869999995) rotate(0)"><polygon id="187266076" class="tile" points="7.5731473635,1395.80376073 7.58140532682,1378.56107786 12.4710824371,1378.55012305 12.459610504,1395.79866098 7.5731473635,1395.80376073 " moovel_rot="-61.3" moovel_centroid="10.0214501191,1387.17746147"></polygon></g><g transform="translate(-5.3541806000000065 -201.29076120000002) rotate(0)"><polygon id="436160689" class="tile" points="100.26224256,1216.7047727 100.267386757,1204.46971967 100.270716248,1201.0 95.0281777308,1201.02962918 95.0408031881,1204.47080083 95.092940994,1216.71288586 100.26224256,1216.7047727 " moovel_rot="29.2" moovel_centroid="97.6633122614,1208.843396100785"></polygon></g><g transform="translate(-279.4221544 -45.44212040000002) rotate(0)"><polygon id="436160684" class="tile" points="369.387808442,1201.0 369.394666187,1211.08608964 369.408258106,1221.84887507 372.532623004,1221.86089703 372.528486896,1211.05349908 372.523302315,1201.00572165 369.387808442,1201.0 " moovel_rot="29.0" moovel_centroid="370.962487367,1211.4226259339682"></polygon></g><g transform="translate(-378.1816453 -69.26942289999988) rotate(0)"><polygon id="436160686" class="tile" points="469.933343408,1219.81204153 469.685935468,1212.79901278 469.916178175,1211.70862494 470.362843828,1201.48698556 473.98401445,1201.0 474.046579053,1211.92978002 474.037811825,1219.87490802 469.933343408,1219.81204153 " moovel_rot="-61.6" moovel_centroid="472.015905416,1210.7973605582758"></polygon></g><g transform="translate(-425.8656995 -180.58164729999987) rotate(0)"><polygon id="436160682" class="tile" points="517.992075996,1201.0 517.997726317,1220.87449958 521.176274998,1220.87607304 521.17379416,1211.77225708 521.170627567,1201.00156851 517.992075996,1201.0 " moovel_rot="30.3" moovel_centroid="519.5842028,1210.9380384258716"></polygon></g><g transform="translate(0.03523370000000625 -283.215426) rotate(0)"><polygon id="118729255" class="tile" points="94.0190845496,1215.88490719 89.2967172766,1215.84151953 89.2935624711,1201.02128399 94.0281777308,1201.0 94.0190845496,1215.88490719 " moovel_rot="4.9" moovel_centroid="91.6611026548,1208.433729083845"></polygon></g><g transform="translate(-230.01026579999996 -19.58722140000009) rotate(0)"><polygon id="436160681" class="tile" points="321.869410357,1201.0 326.272936363,1201.15257275 325.728115879,1217.19273788 321.878320168,1216.89170017 321.869410357,1201.0 " moovel_rot="29.7" moovel_centroid="323.944025452,1208.8819008690725"></polygon></g><g transform="translate(-327.4965502 -144.3837008999999) rotate(0)"><polygon id="436160683" class="tile" points="419.14546502,1213.37179244 419.150515223,1201.0 423.772467584,1201.27302417 423.780881221,1215.40052469 419.114660173,1215.30254533 419.14546502,1213.37179244 " moovel_rot="29.2" moovel_centroid="421.456330184,1208.250464180679"></polygon></g><g transform="translate(91.7044626 -264.3415553000002) rotate(0)"><polygon id="374073230" class="tile" points="0.0,1378.55012305 5.57027874906,1378.55565609 5.5731473635,1391.05271987 0.00840253634378,1391.03779209 0.0,1378.55012305 " moovel_rot="30.5" moovel_centroid="2.7883059881185024,1384.79803787"></polygon></g><g transform="translate(-110.8368336 -285.82162719999997) rotate(0)"><polygon id="364391700" class="tile" points="180.047935235,1212.48778138 186.146467108,1212.49790801 186.149577446,1201.00061569 180.045708281,1201.0 180.047935235,1212.48778138 " moovel_rot="29.3" moovel_centroid="183.097843025,1206.7457388995122"></polygon></g><g transform="translate(-537.8466094 -288.2736775999999) rotate(0)"><polygon id="436160675" class="tile" points="566.011214638,1201.0 566.019655556,1214.90861017 570.621790554,1214.94962868 570.633018313,1201.3594585 566.011214638,1201.0 " moovel_rot="-60.4" moovel_centroid="568.312542955,1208.0491444958068"></polygon></g><g transform="translate(-80.3065782 -108.75330869999993) rotate(0)"><polygon id="436160687" class="tile" points="177.363721536,1201.0 177.362235485,1207.40633595 175.086326614,1207.4026548 175.084152745,1208.83905672 175.086976591,1217.96175499 179.045708281,1217.97065649 179.040814879,1208.80965692 179.040671204,1201.00203956 177.363721536,1201.0 " moovel_rot="28.4" moovel_centroid="177.297030415,1210.9514850246953"></polygon></g><g transform="translate(-64.97234160000001 -226.16802459999997) rotate(0)"><polygon id="436160685" class="tile" points="161.184517598,1201.0 161.192634282,1209.24948825 161.198277271,1219.41758415 163.597108728,1219.41798836 163.590665012,1209.22433472 163.583351017,1201.00040077 161.184517598,1201.0 " moovel_rot="29.7" moovel_centroid="162.391594774,1210.2090422905865"></polygon></g><g transform="translate(-443.3316969 -290.9729755000001) rotate(0)"><polygon id="192153624" class="tile" points="494.655582315,1213.56695707 489.828194265,1213.5766118 489.838272727,1201.00364426 494.662747765,1201.0 494.655582315,1213.56695707 " moovel_rot="-64.1" moovel_centroid="492.246006665,1207.287434939581"></polygon></g><g transform="translate(-256.7188506 -293.5776953999999) rotate(0)"><polygon id="436160688" class="tile" points="259.142124928,1202.35167224 261.815390606,1208.1813945 261.543582152,1210.04175818 259.128271014,1217.88999819 261.069437895,1218.63401109 264.411910955,1211.13599486 263.874303841,1207.20486948 260.799065765,1201.0 259.142124928,1202.35167224 " moovel_rot="53.3" moovel_centroid="261.804970303,1210.1386123262214"></polygon></g><g transform="translate(-432.59110499999997 -287.7438811999999) rotate(0)"><polygon id="449441763" class="tile" points="516.992075996,1201.14527115 512.898469084,1201.0 512.934428024,1213.89062591 516.498794203,1213.97451788 516.992075996,1201.14527115 " moovel_rot="57.8" moovel_centroid="514.832450258,1207.3542188837869"></polygon></g><g transform="translate(-183.6188864 -39.85396730000002) rotate(0)"><polygon id="374436389" class="tile" points="283.488542748,1217.43505172 283.488542748,1201.0 281.785354539,1201.06543495 281.725242014,1217.39142857 283.488542748,1217.43505172 " moovel_rot="0" moovel_centroid="282.622798333,1209.270473437834"></polygon></g><g transform="translate(-317.9903641 -125.25741360000006) rotate(0)"><polygon id="436160679" class="tile" points="415.09688038,1201.0294292 415.096736751,1212.51683217 418.114660173,1212.21545071 417.861457799,1201.0 415.09688038,1201.0294292 " moovel_rot="28.4" moovel_centroid="416.537907008,1206.7745679019206"></polygon></g><g transform="translate(-562.2847126 -292.1068371) rotate(0)"><polygon id="307863331" class="tile" points="574.940611657,1201.0 580.546143807,1202.12248075 579.01455851,1209.87968759 574.948635216,1209.27940947 574.940611657,1201.0 " moovel_rot="24.9" moovel_centroid="577.370748717,1205.352270309207"></polygon></g><g transform="translate(-471.2897052 -12.147566900000129) rotate(0)"><polygon id="256868922" class="tile" points="511.898469084,1201.06551463 511.771564865,1209.13472697 507.082787913,1209.00369792 507.082787913,1201.0 511.898469084,1201.06551463 " moovel_rot="0" moovel_centroid="509.462400226,1205.0332462193346"></polygon></g><g transform="translate(-237.00046229999998 -225.55867620000015) rotate(0)"><polygon id="330361072" class="tile" points="274.828747658,1201.0 280.725242014,1201.4686339 280.400491973,1208.2020875 274.828919476,1207.83630723 274.828747658,1201.0 " moovel_rot="19.4" moovel_centroid="277.691052123,1204.5941264060268"></polygon></g><g transform="translate(-122.7561349 -11.276513199999954) rotate(0)"><polygon id="436160677" class="tile" points="171.038869616,1201.0 171.208971024,1211.07323536 168.344703851,1211.28325522 168.351444311,1201.07157848 171.038869616,1201.0 " moovel_rot="29.2" moovel_centroid="169.733481724,1206.1613300977826"></polygon></g><g transform="translate(-75.20638419999999 -241.99519369999985) rotate(0)"><polygon id="436160680" class="tile" points="174.080898304,1211.66469191 174.084152745,1201.00552512 172.208971024,1201.0 172.212261645,1211.83803327 174.080898304,1211.66469191 " moovel_rot="29.4" moovel_centroid="173.143970811,1206.3740474301883"></polygon></g><g transform="translate(-60.2793817 -293.04663859999994) rotate(0)"><polygon id="291989024" class="tile" points="116.612841063,1207.04151938 116.60918698,1201.01113533 120.745147669,1201.0 120.749337826,1207.03704167 116.612841063,1207.04151938 " moovel_rot="-94.6" moovel_centroid="118.679508811,1204.0224880189285"></polygon></g><g transform="translate(-126.8113267 -289.5523805999999) rotate(0)"><polygon id="276902231" class="tile" points="167.342325256,1201.00693647 167.344703851,1207.15805926 164.599373122,1207.16202775 164.597108728,1201.0 167.342325256,1201.00693647 " moovel_rot="0.6" moovel_centroid="165.970472526,1204.0817777625325"></polygon></g><g transform="translate(-18.688491 -12.156557499999963) rotate(0)"><polygon id="276902243" class="tile" points="74.5638856682,1201.00225714 74.5584540404,1207.13175336 72.0602313633,1207.12958944 72.0589844722,1201.0 72.6066229801,1201.00764697 74.5638856682,1201.00225714 " moovel_rot="0.8" moovel_centroid="73.3105231243,1204.0663260282568"></polygon></g><g transform="translate(-425.5895696 -139.30410540000003) rotate(0)"><polygon id="276902219" class="tile" points="430.474121557,1201.00315953 430.471191678,1207.02336038 428.093195126,1207.03117577 428.089560403,1201.0 430.474121557,1201.00315953 " moovel_rot="0.6" moovel_centroid="429.281655469,1204.0130401310903"></polygon></g><g transform="translate(-479.50354260000006 -155.44330149999996) rotate(0)"><polygon id="276902235" class="tile" points="573.93754803,1201.0 573.940611657,1207.08570947 571.636196142,1207.08338926 571.633018313,1201.00858485 573.93754803,1201.0 " moovel_rot="0.6" moovel_centroid="572.787187943,1204.0443940870289"></polygon></g><g transform="translate(-328.6442632 -293.1823512000001) rotate(0)"><polygon id="276902224" class="tile" points="427.085214661,1201.00518162 427.089560403,1207.07980828 424.785150828,1207.08553202 424.780881221,1201.0 427.085214661,1201.00518162 " moovel_rot="0.4" moovel_centroid="425.934857361,1204.0426489598792"></polygon></g><g transform="translate(-322.95869689999995 -295.6460071) rotate(0)"><polygon id="276902216" class="tile" points="414.096736751,1201.00232018 414.09323577,1207.07705527 411.795499058,1207.074805 411.792321235,1201.0 414.096736751,1201.00232018 " moovel_rot="0.6" moovel_centroid="412.944446245,1204.037075789349"></polygon></g><g transform="translate(-180.9980182 -296.4669650999999) rotate(0)"><polygon id="276902210" class="tile" points="248.770782646,1201.0 248.77003672,1207.07487351 246.465628764,1207.06853131 246.466241456,1201.00456263 248.770782646,1201.0 " moovel_rot="0.7" moovel_centroid="247.618517436,1204.0369630234222"></polygon></g><g transform="translate(-193.07955379999999 -295.5017192) rotate(0)"><polygon id="432923352" class="tile" points="217.135067596,1201.0 216.298240611,1201.04715122 216.293082503,1206.6081389 217.139614721,1206.56932579 217.135067596,1201.0 " moovel_rot="-80.8" moovel_centroid="216.7166124,1203.811496113328"></polygon></g></g></svg>