<svg xmlns="http://www.w3.org/2000/svg" version="1.1" width="600px" height="89.44268874341634px">
  <polygon id="54167549" points="209.341135781,67.692941529 214.526578771,67.69225689 214.52708321,67.362883235 209.334972806,67.363963971 209.341135781,67.692941529 " moovel_rot="-3.4" moovel_centroid="211.93296115280643,67.52797605169155" moovel_centroidlatlon="13.41212528278123,52.55745760004142"/>
  <polygon id="133822362" points="415.941338912,28.461457929 441.79301005,28.44649016 441.797731163,29.962467023 415.944316875,29.990139921 415.941338912,28.461457929 " moovel_rot="39.2" moovel_centroid="428.8511212293669,29.21516229599328" moovel_centroidlatlon="13.381760716583392,52.52840947105387"/>
  <polygon id="315474013" points="585.699601597,75.955626535 585.691557613,77.068790357 582.695781406,77.066224613 582.697762301,75.955862624 585.699601597,75.955626535 " moovel_rot="155.2" moovel_centroid="584.1968068927282,76.51143935108581" moovel_centroidlatlon="13.330421515250103,52.51068305087012"/>
  <polygon id="312256740" points="385.622946626,44.01580733 385.289968898,39.918199782 403.859123263,39.628961271 404.138030602,44.041265418 385.622946626,44.01580733 " moovel_rot="68.8" moovel_centroid="394.8414952121453,41.89878103630546" moovel_centroidlatlon="13.334326960309024,52.51134340321258"/>
  <polygon id="345397603" points="568.170616751,4.829761558 568.166445152,2.504039991 562.190511473,2.500005535 562.363373467,5.014502551 568.170616751,4.829761558 " moovel_rot="168.3" moovel_centroid="565.1837344694344,3.7071374332289633" moovel_centroidlatlon="13.535318281809161,52.534745433626405"/>
  <polygon id="83089143" points="533.641533901,2.500006135 533.640858739,4.588699399 522.6737496,4.579652083 522.682511095,2.500916947 533.641533901,2.500006135 " moovel_rot="172.3" moovel_centroid="528.1640277900378,3.542448696339452" moovel_centroidlatlon="13.338318660509886,52.5269938315164"/>
  <polygon id="343992822" points="573.218269857,16.212986982 573.228042015,18.357485462 570.529922814,18.327252152 568.810876791,18.358953877 568.811087352,16.209927035 573.218269857,16.212986982 " moovel_rot="65.6" moovel_centroid="571.0174639991441,17.277473466761496" moovel_centroidlatlon="13.566656202024836,52.57229650603426"/>
  <polygon id="315473990" points="589.144707968,60.376313256 589.142722275,61.486664863 586.146952204,61.4841124 586.148938008,60.373761035 589.144707968,60.376313256 " moovel_rot="155.2" moovel_centroid="587.6458301681329,60.93021289198812" moovel_centroidlatlon="13.33002865,52.51017484999999"/>
  <polygon id="265761733" points="461.709700932,61.09067648 464.056762802,62.523086657 443.246990748,62.777643049 443.131480572,61.08327866 461.709700932,61.09067648 " moovel_rot="-3.9" moovel_centroid="452.7898658004646,61.88634441411526" moovel_centroidlatlon="13.412541551949486,52.549307892009374"/>
  <polygon id="48853172" points="154.293423593,46.337697096 154.005096587,28.8123076633 134.656388476,28.8004748434 135.559633655,47.294495894 154.293423593,46.337697096 " moovel_rot="161.4" moovel_centroid="144.5405010870637,37.76748933364772" moovel_centroidlatlon="13.490439966696304,52.41607506300901"/>
  <polygon id="397542104" points="577.989760443,52.283674735 572.798335929,52.287484604 572.799715609,53.239654741 577.985101041,53.247138421 577.989760443,52.283674735 " moovel_rot="-3.3" moovel_centroid="575.3983273846713,52.76439732316939" moovel_centroidlatlon="13.257804651295839,52.43130187314338"/>
  <polygon id="382060914" points="572.507476377,45.787569035 572.510112308,47.373069056 566.943677312,47.375699707 566.941042038,45.790200006 572.507476377,45.787569035 " moovel_rot="116.1" moovel_centroid="569.7255771024891,46.58163446653762" moovel_centroidlatlon="13.5068666,52.46553175"/>
  <polygon id="282826924" points="174.60152249,28.7834887434 174.591676106,38.804411267 202.33748916,38.82345911 202.340656539,28.802489592 184.553699683,28.7874724318 174.60152249,28.7834887434 " moovel_rot="0.4" moovel_centroid="188.46766163041846,33.80295478122447" moovel_centroidlatlon="13.403730022334015,52.38547950463698"/>
  <polygon id="123393434" points="438.164010422,3.371818871 433.853714138,3.374546687 433.844755729,4.573130388 420.003589067,4.57483957 419.999612801,7.515139733 438.147316551,7.516223584 438.164010422,3.371818871 " moovel_rot="124.3" moovel_centroid="429.69093295673684,5.861637316025815" moovel_centroidlatlon="13.376502482723481,52.527749296512305"/>
  <polygon id="442174773" points="442.795225346,79.318044455 442.654498214,81.567077971 422.402678772,81.943122969 422.298117181,79.309069071 442.795225346,79.318044455 " moovel_rot="101.7" moovel_centroid="432.2683469823135,80.53427637806502" moovel_centroidlatlon="13.307049291808724,52.62139622225109"/>
  <polygon id="392479518" points="297.709354594,81.932662379 297.724601671,76.562076872 321.802300559,76.572089103 321.787062612,81.942684469 297.709354594,81.932662379 " moovel_rot="137.2" moovel_centroid="309.7558335404575,79.25237837750744" moovel_centroidlatlon="13.439726700000001,52.5129804"/>
  <polygon id="368476385" points="363.962140422,38.16165921 363.7013399,43.669836391 380.166718788,44.025023401 380.362722376,38.141688271 363.962140422,38.16165921 " moovel_rot="80.2" moovel_centroid="372.13814042190995,41.002774961207386" moovel_centroidlatlon="13.210100751677142,52.55862100343582"/>
  <polygon id="141315104" points="543.765799192,54.596907467 543.761908666,50.60690616 536.827352091,50.607205794 536.830998073,54.590532409 543.765799192,54.596907467 " moovel_rot="87.9" moovel_centroid="540.2974820362115,52.600399794527036" moovel_centroidlatlon="13.554645925708062,52.51328310882782"/>
  <polygon id="380135512" points="563.540827933,78.015291325 563.534087239,81.044093334 558.420493109,81.042367535 558.42723504,78.013566335 563.540827933,78.015291325 " moovel_rot="123.2" moovel_centroid="560.9806609438762,79.52882969343388" moovel_centroidlatlon="13.513356650000002,52.50568870000001"/>
  <polygon id="207517675" points="532.350502208,49.580320571 519.619836292,49.576906487 522.00509349,47.221759498 531.919561381,47.15208976 532.350502208,49.580320571 " moovel_rot="132.0" moovel_centroid="526.4853769254445,48.43283326580907" moovel_centroidlatlon="13.523033490535862,52.43136978564891"/>
  <polygon id="405637881" points="542.154958697,40.155781657 542.151335275,44.239629702 535.139948916,44.236062898 535.143572112,40.15221486 542.154958697,40.155781657 " moovel_rot="87.9" moovel_centroid="538.6474537510276,42.195922268281166" moovel_centroidlatlon="13.5552396,52.513299599999996"/>
  <polygon id="99340030" points="114.505222294,77.006666799 114.503515687,81.942681394 103.050650329,81.936196665 103.052357015,77.000182071 114.505222294,77.006666799 " moovel_rot="90.4" moovel_centroid="108.77793633143375,79.47143173508742" moovel_centroidlatlon="13.130353399999999,52.39279860000001"/>
  <polygon id="219558881" points="516.493319145,22.38617176 516.496616761,23.969551681 501.74288415,23.970845178 501.739588299,22.387466157 516.493319145,22.38617176 " moovel_rot="117.0" moovel_centroid="509.11810278774357,23.178508709707014" moovel_centroidlatlon="13.506124700000003,52.466426100000014"/>
  <polygon id="284514073" points="509.579349378,29.00086446 493.410251443,29.007401679 493.405325195,30.543531358 509.574423607,30.536994186 509.579349378,29.00086446 " moovel_rot="95.5" moovel_centroid="501.49233744713354,29.772197924510873" moovel_centroidlatlon="13.386527499999998,52.515663049999986"/>
  <polygon id="237881642" points="460.979392324,39.259321101 461.0071792,36.312615623 474.930495917,36.28897636 474.836030309,39.638248469 460.979392324,39.259321101 " moovel_rot="169.3" moovel_centroid="468.086594281575,37.87557561358501" moovel_centroidlatlon="13.432594195169623,52.51498903357771"/>
  <polygon id="225402466" points="540.495572708,2.503211551 546.316615043,2.49999926 546.370758901,7.134643374 540.583144164,7.138776879 540.495572708,2.503211551 " moovel_rot="103.1" moovel_centroid="543.4413903731695,4.816934291616151" moovel_centroidlatlon="13.572598143024566,52.41262276920567"/>
  <polygon id="125646631" points="386.48660732,81.929208608 362.97052578,81.94268437 362.971537132,78.799656729 386.485060873,78.775526971 386.48660732,81.929208608 " moovel_rot="166.5" moovel_centroid="374.7350652030849,80.3617923942776" moovel_centroidlatlon="13.1956600035555,52.53525493933724"/>
  <polygon id="281352086" points="538.855291903,31.08023376 531.646728837,31.089794973 531.649463883,35.153620384 538.858283116,35.150733427 538.855291903,31.08023376 " moovel_rot="87.8" moovel_centroid="535.2534277699008,33.11860660808548" moovel_centroidlatlon="13.554652625730911,52.51336430899442"/>
  <polygon id="428657606" points="95.241276123,47.791770271 101.276958265,55.297418872 81.108453311,55.274246861 80.7709841424,54.352890566 95.241276123,47.791770271 " moovel_rot="51.0" moovel_centroid="91.90508797320817,52.75846455598905" moovel_centroidlatlon="13.303551355299836,52.524589180284885"/>
  <polygon id="306179903" points="209.053237075,73.276713541 231.990989297,70.884332641 233.47929922,81.942690004 218.050130901,81.937108896 209.736844425,80.147573435 209.053237075,73.276713541 " moovel_rot="75.3" moovel_centroid="221.87974280166114,76.85577823330974" moovel_centroidlatlon="13.691497662517007,52.45192437782136"/>
  <polygon id="401834004" points="476.39997034,29.375088039 476.405499176,26.96818116 460.586166219,26.970477227 460.580638449,29.377383962 476.39997034,29.375088039 " moovel_rot="82.3" moovel_centroid="468.4930686248161,28.172782583476785" moovel_centroidlatlon="13.273859399999997,52.4517911"/>
  <polygon id="244343907" points="500.411027795,45.968625857 489.205633793,45.964918777 489.209573027,42.30839366 500.414963807,42.312098842 500.411027795,45.968625857 " moovel_rot="120.5" moovel_centroid="494.8103000898336,44.138509371832285" moovel_centroidlatlon="13.51371375,52.566820500000006"/>
  <polygon id="356256959" points="590.30441641,11.758948949 590.964370635,10.510739335 588.062974767,10.511859641 587.523979931,11.742684069 590.30441641,11.758948949 " moovel_rot="161.5" moovel_centroid="589.2192897796019,11.12698000918043" moovel_centroidlatlon="13.33168520460509,52.51115148019299"/>
  <polygon id="392992305" points="363.205169593,2.505391345 363.203769041,3.968866373 355.271900371,3.975712843 355.269468192,2.500005535 363.205169593,2.505391345 " moovel_rot="131.2" moovel_centroid="359.2320734862687,3.23743543482292" moovel_centroidlatlon="13.488125328616189,52.49154458680282"/>
  <polygon id="135805433" points="463.260226794,68.909020435 440.404154568,68.913914645 440.3992456,69.92831018 463.266023538,69.916352104 463.260226794,68.909020435 " moovel_rot="25.2" moovel_centroid="451.8191072032388,69.41694370434085" moovel_centroidlatlon="13.381556344991294,52.52918832289243"/>
  <polygon id="245187318" points="199.911567386,13.2607110397 195.878801149,19.0340848131 197.519174278,23.51038115 218.438580261,24.758068655 220.825119982,13.2551510434 199.911567386,13.2607110397 " moovel_rot="34.5" moovel_centroid="208.71281413738592,18.7077364920033" moovel_centroidlatlon="13.406068188170517,52.53061062915696"/>
  <polygon id="133822360" points="567.569469929,24.445774335 573.133176165,24.451949619 573.13882236,25.966400249 567.568725975,25.969117797 567.569469929,24.445774335 " moovel_rot="35.7" moovel_centroid="570.3498321455681,25.20845527561901" moovel_centroidlatlon="13.381329068234475,52.528252859450795"/>
  <polygon id="279930395" points="322.954509763,60.231786934 327.945333257,60.398182872 334.405430101,57.473506719 337.487330099,52.200149497 335.179099211,48.058786595 323.93968823,48.052683541 322.954509763,60.231786934 " moovel_rot="172.7" moovel_centroid="329.4530142012081,53.72849469417577" moovel_centroidlatlon="13.434349621658718,52.514338022078135"/>
  <polygon id="343992820" points="557.196221058,2.501479142 557.199785774,5.826668138 553.039492122,5.825696013 551.355662358,5.820268693 551.342302707,2.500006035 557.196221058,2.501479142 " moovel_rot="63.3" moovel_centroid="554.2739950433835,4.1625369913094055" moovel_centroidlatlon="13.566295959148317,52.57175727732226"/>
  <polygon id="315474011" points="587.304304281,41.851205546 587.302321652,42.961563783 584.306547751,42.959003031 584.308530492,41.848645035 587.304304281,41.851205546 " moovel_rot="155.2" moovel_centroid="585.8054260981576,42.40510435226891" moovel_centroidlatlon="13.33027715,52.510492049999996"/>
  <polygon id="113608392" points="545.840687555,24.745273608 545.840738475,22.448145135 553.268771403,22.448414196 553.261231393,24.737539653 545.840687555,24.745273608 " moovel_rot="136.9" moovel_centroid="549.550697277186,23.594651131083737" moovel_centroidlatlon="13.302208571651382,52.57167516025604"/>
  <polygon id="291686445" points="469.164454405,62.679006228 472.203194577,62.04660051 477.963548461,62.041530571 476.870190852,65.244828633 475.247402127,69.459746246 467.508680695,66.652439536 467.990415233,65.249492158 469.164454405,62.679006228 " moovel_rot="23.6" moovel_centroid="472.8898005993618,65.17092687226699" moovel_centroidlatlon="13.378009047226175,52.52891416760717"/>
  <polygon id="293504265" points="489.850634121,75.82262213 489.859326932,71.43340176 479.493131539,71.434104812 479.484435843,75.823321566 489.850634121,75.82262213 " moovel_rot="141.4" moovel_centroid="484.67188282033254,73.62836266901154" moovel_centroidlatlon="13.4551225,52.49032359999999"/>
  <polygon id="149954039" points="333.591004051,65.394838772 333.605385847,71.556006561 313.317246083,71.568560194 313.299275459,65.401759311 333.591004051,65.394838772 " moovel_rot="57.6" moovel_centroid="323.4516819514781,68.4802014699049" moovel_centroidlatlon="13.42877096145307,52.57776223851899"/>
  <polygon id="369223449" points="378.988043967,21.495944959 378.985073782,14.485006372 392.583392448,14.491632093 392.586362323,21.502573128 378.988043967,21.495944959 " moovel_rot="7.2" moovel_centroid="385.7857185256943,17.99378912482928" moovel_centroidlatlon="13.412126600000004,52.5351489"/>
  <polygon id="183766445" points="385.135162582,9.483060264 371.352699834,9.48741503 371.356112521,2.505104327 385.127634184,2.500003672 385.135162582,9.483060264 " moovel_rot="93.9" moovel_centroid="378.24302567172316,5.9943578834668525" moovel_centroidlatlon="13.28530620677541,52.58258182640914"/>
  <polygon id="383301592" points="526.657278361,28.50750694 518.083816794,28.49873966 518.062239884,32.661005418 526.640293315,32.664922326 526.657278361,28.50750694 " moovel_rot="133.4" moovel_centroid="522.3600723744399,30.583227674463288" moovel_centroidlatlon="13.473879585592572,52.478789295608514"/>
  <polygon id="427502907" points="55.309108445,71.6158222418 55.270562893,67.0496249534 122.064117695,66.9743788434 122.305106784,71.5995816791 55.309108445,71.6158222418 " moovel_rot="34.4" moovel_centroid="88.80899879488834,69.31095157193504" moovel_centroidlatlon="13.384833845612743,52.53367106179133"/>
  <polygon id="404320743" points="564.667208699,34.877963135 573.234484562,34.878350663 573.236231535,35.674925725 564.668956025,35.674537651 564.667208699,34.877963135 " moovel_rot="32.9" moovel_centroid="568.9517206946174,35.276444290777725" moovel_centroidlatlon="13.5008518,52.5171956"/>
  <polygon id="369223452" points="435.38699316,69.551999119 435.514290839,73.723105156 419.869359597,74.41392164 419.59276062,69.536745271 435.38699316,69.551999119 " moovel_rot="79.8" moovel_centroid="427.38555027375673,71.8080294098759" moovel_centroidlatlon="13.412764629065995,52.53322515263101"/>
  <polygon id="310586135" points="459.716091932,74.918209871 459.021050681,79.704254298 447.611517552,78.627436344 447.310732061,74.93185174 459.716091932,74.918209871 " moovel_rot="134.1" moovel_centroid="453.68115290183414,77.02927602820193" moovel_centroidlatlon="13.395574776566326,52.45270579638519"/>
  <polygon id="258342185" points="336.556427374,39.062762372 358.705336975,39.069597746 358.70406437,43.807740838 336.555154769,43.800905278 336.556427374,39.062762372 " moovel_rot="0.5" moovel_centroid="347.63024594445625,41.435251558523255" moovel_centroidlatlon="13.453949200000002,52.592207050000006"/>
  <polygon id="262554771" points="113.714781453,55.281852098 118.163108305,55.402169933 129.885050685,55.292790084 129.891729855,33.6792825778 107.830433169,33.6683445434 107.823754,49.58315841 113.714781453,55.281852098 " moovel_rot="0" moovel_centroid="119.19124727558294,44.178053588136855" moovel_centroidlatlon="13.367203693224527,52.47443741571452"/>
  <polygon id="384545638" points="491.717194399,17.374722314 508.386684045,17.386885679 508.386814873,15.932267216 491.71732522,15.92010366 491.717194399,17.374722314 " moovel_rot="-2.1" moovel_centroid="500.05200445185466,16.65349471706588" moovel_centroidlatlon="13.595893699999998,52.44073609999999"/>
  <polygon id="180310077" points="357.414966928,62.445706506 357.969753534,60.486514291 350.622481433,59.202990972 344.268987255,59.505302607 337.583631085,61.164640725 338.737192747,65.638889186 344.922200898,64.300346282 350.400584352,64.406167592 356.817371586,65.657149687 357.414966928,62.445706506 " moovel_rot="101.5" moovel_centroid="347.97443512177455,62.27539685928088" moovel_centroidlatlon="13.288487580585613,52.45055856656899"/>
  <polygon id="135805432" points="574.444060385,75.990308455 568.240927681,75.985781435 568.240985028,77.012935441 574.444117516,77.017462923 574.444060385,75.990308455 " moovel_rot="25.0" moovel_centroid="571.3425228850864,76.50162206068882" moovel_centroidlatlon="13.381289950000003,52.5291127"/>
  <polygon id="345398557" points="542.348294133,65.17024306 542.354269355,68.4029741 549.845086899,68.403827479 549.839111693,65.171096439 542.348294133,65.17024306 " moovel_rot="89.7" moovel_centroid="546.0966905199992,66.78703526892458" moovel_centroidlatlon="13.537886400000001,52.527678050000006"/>
  <polygon id="189731663" points="152.452544006,52.464211658 152.407032608,51.562838449 149.973957946,51.561500935 149.989600105,52.48140606 152.452544006,52.464211658 " moovel_rot="130" moovel_centroid="151.20168601353217,52.01844776183507" moovel_centroidlatlon="13.275185625428149,52.59741635199931"/>
  <polygon id="332949710" points="551.894636299,32.230706006 543.856140955,32.230050124 543.860383729,29.745357333 551.892275094,29.745013835 551.894636299,32.230706006 " moovel_rot="8.6" moovel_centroid="547.8761281886948,30.987952050697256" moovel_centroidlatlon="13.572214529363363,52.40916254882722"/>
  <polygon id="237881031" points="308.63748592,61.426343129 308.513487131,60.913348672 305.430990204,60.9140482 301.451482782,60.913645956 282.563664736,60.915310724 279.904063686,60.952965879 279.850000347,65.040718125 306.841816737,65.240496981 308.542091977,64.969247737 308.63748592,61.426343129 " moovel_rot="77.6" moovel_centroid="294.3308137534286,63.02758472260964" moovel_centroidlatlon="13.432873918434817,52.51483683069798"/>
  <polygon id="356260199" points="576.039481875,29.861401432 579.001345236,29.859577635 578.924437737,31.415724344 576.036297967,31.386101996 576.039481875,29.861401432 " moovel_rot="156.9" moovel_centroid="577.5055045900829,30.627526044977547" moovel_centroidlatlon="13.330065710922897,52.5099911916472"/>
  <polygon id="125646625" points="273.563210169,40.653342498 243.715582939,40.647303641 243.708427527,46.309626562 273.562531908,46.314035116 273.563210169,40.653342498 " moovel_rot="165.8" moovel_centroid="258.6367212390371,43.48117918220835" moovel_centroidlatlon="13.195682635832652,52.53520149929093"/>
  <polygon id="255525874" points="93.929568815,36.386932374 93.887391954,41.320934497 101.100496641,41.399820522 101.143892811,36.37849746 93.929568815,36.386932374 " moovel_rot="0.8" moovel_centroid="97.52588364736006,38.8715707585495" moovel_centroidlatlon="13.396954157884876,52.386791701124054"/>
  <polygon id="343733878" points="50.270734098,67.0075137434 17.414177147,67.0142217369 17.39716584,79.511376309 50.253745491,79.504675212 50.270734098,67.0075137434 " moovel_rot="106.9" moovel_centroid="33.83395715501517,73.2594474698188" moovel_centroidlatlon="13.2570308,52.428465400000015"/>
  <polygon id="199793476" points="218.473064561,8.255840967 198.906296376,8.125760131 199.488698593,3.745129298 218.835160082,3.744115271 218.473064561,8.255840967 " moovel_rot="167.6" moovel_centroid="208.9728543593439,5.972327958867181" moovel_centroidlatlon="13.374899476873388,52.55740593333333"/>
  <polygon id="383405289" points="566.495914443,58.240858835 573.824564769,58.241138249 573.824857467,58.865025339 566.496207141,58.864745905 566.495914443,58.240858835 " moovel_rot="1.2" moovel_centroid="570.160385974578,58.55294208200069" moovel_centroidlatlon="13.461143450000012,52.493916750000004"/>
  <polygon id="35743756" points="206.280470095,47.299782009 238.714516932,47.288831541 238.674441915,40.871852841 206.240395078,40.871852841 206.280470095,47.299782009 " moovel_rot="0" moovel_centroid="222.4728476019489,44.08308171346992" moovel_centroidlatlon="13.368662531003304,52.52426407498261"/>
  <polygon id="445421286" points="181.847545203,61.102769496 178.274989911,66.494854954 178.47986936,66.633047887 178.259553565,66.959679485 176.624890049,65.883487046 176.845205843,65.55685545 177.061159858,65.702518273 177.397753465,65.203497726 170.705803287,60.755725412 167.145492235,66.129658038 167.350371685,66.267850972 167.123936288,66.603555254 165.506467227,65.525759592 165.709005714,65.213539634 165.930497011,65.3629374 166.267090202,64.863917473 159.557945619,60.417748306 155.991519182,65.800747362 156.196398632,65.938940296 155.976083383,66.265571084 154.352494463,65.196848487 154.591751899,64.830190447 154.813243197,64.979588214 155.143716103,64.489641981 148.445646132,60.050942634 144.879806729,65.421127073 145.090223462,65.563054951 144.857086188,65.920639476 143.245154424,64.846578737 143.465469398,64.519948356 143.67588613,64.661876234 144.018598348,64.153784475 137.303916576,59.703880228 132.450582531,67.030631182 132.955446825,58.816949741 181.796509641,59.339010172 181.847545203,61.102769496 " moovel_rot="34.0" moovel_centroid="158.2873925263359,61.48059273311417" moovel_centroidlatlon="13.377411727652232,52.49887855660811"/>
  <polygon id="346445156" points="2.4342109525,36.2101619434 42.054242971,36.2669760243 44.358628032,45.1645425274 6.9330360907,55.431176396 2.4342109525,36.2101619434 " moovel_rot="54.4" moovel_centroid="21.59887471977067,43.58834256753947" moovel_centroidlatlon="13.450497149218231,52.507386820005145"/>
  <polygon id="383405292" points="553.610598817,40.742751195 547.156715003,40.746903154 547.151523125,39.000031396 547.146347201,37.230328735 553.603430019,37.232040025 553.610598817,40.742751195 " moovel_rot="61.4" moovel_centroid="550.3783641992729,38.98786152710529" moovel_centroidlatlon="13.46222836659234,52.49374014333992"/>
  <polygon id="198723716" points="305.983580462,16.660739103 317.599073932,16.663544564 317.602620258,15.491789672 324.549169804,15.497654937 324.550008881,16.932278547 331.723737103,16.929175117 331.724162461,20.707364756 305.988391225,20.701797265 305.983580462,16.660739103 " moovel_rot="0.5" moovel_centroid="318.8585161240898,18.524592751377778" moovel_centroidlatlon="13.370244698701333,52.52574640644885"/>
  <polygon id="328395743" points="109.064817155,25.441836956 112.084525045,10.0833750642 129.51314802,12.9509864726 130.017742424,10.0676760434 140.31661024,12.3649335164 137.982520066,21.823617075 135.129993626,22.636786333 131.478058866,24.895657065 128.501433073,28.713059939 109.064817155,25.441836956 " moovel_rot="98.0" moovel_centroid="123.97943286509198,18.883173280766556" moovel_centroidlatlon="13.624965482456712,52.45765173228172"/>
  <polygon id="384999499" points="466.955261152,7.417222284 457.651256579,7.409743871 457.646849964,13.219494114 466.950856971,13.226973098 466.955261152,7.417222284 " moovel_rot="103.2" moovel_centroid="462.3010562423449,10.318358468489826" moovel_centroidlatlon="13.448200000000002,52.4371209"/>
  <polygon id="315473986" points="580.032579084,12.153295635 580.029125636,13.276394288 577.033350957,13.273831853 577.030741317,12.153535033 580.032579084,12.153295635 " moovel_rot="155.2" moovel_centroid="578.5320740567549,12.714075486564486" moovel_centroidlatlon="13.330322115323696,52.5105564008289"/>
  <polygon id="383405294" points="447.354607991,48.003366049 447.361235809,42.010519871 456.877074829,42.011278578 456.859358196,47.997699493 447.354607991,48.003366049 " moovel_rot="151.5" moovel_centroid="452.11221984601326,45.00513354876901" moovel_centroidlatlon="13.460748382021242,52.49334136661514"/>
  <polygon id="221479278" points="48.354026051,36.3601800434 49.942958477,50.164758399 79.491304787,49.504996917 86.634700307,44.2043932382 88.8938149,43.9108763983 88.878123725,37.4430557625 82.688580066,36.3724884413 48.354026051,36.3601800434 " moovel_rot="95.3" moovel_centroid="67.64949140827049,42.789904029695634" moovel_centroidlatlon="13.612415968822514,52.51222592682008"/>
  <polygon id="315474002" points="586.45945599,16.175968607 586.451415062,17.289139042 583.455635034,17.28656503 583.463676074,16.173394835 586.45945599,16.175968607 " moovel_rot="155.2" moovel_centroid="584.9575455937769,16.73126688206797" moovel_centroidlatlon="13.3306661,52.51099944999999"/>
  <polygon id="315473995" points="585.732690804,66.262371298 585.730712481,67.372738854 582.728869997,67.372968044 582.736911631,66.259799135 585.732690804,66.262371298 " moovel_rot="155.2" moovel_centroid="584.2316651723814,66.81715602037772" moovel_centroidlatlon="13.330618084749895,52.510937849129895"/>
  <polygon id="383421949" points="482.701033677,63.20432466 482.697776173,66.425376327 494.890092444,66.43903802 494.892929712,63.207047286 482.701033677,63.20432466 " moovel_rot="-2.2" moovel_centroid="488.79890253673574,64.81895838317362" moovel_centroidlatlon="13.587879801528022,52.51221002368432"/>
  <polygon id="225402462" points="350.492310974,14.182209372 336.729833061,14.189218862 336.72223572,22.903397194 350.484718774,22.896388844 350.492310974,14.182209372 " moovel_rot="102.5" moovel_centroid="343.60727478239363,18.542803839242417" moovel_centroidlatlon="13.573031050000003,52.4124373"/>
  <polygon id="315474010" points="584.336173042,35.728376119 584.338780325,36.848667836 581.3430087,36.84611201 581.34040153,35.725820535 584.336173042,35.728376119 " moovel_rot="155.2" moovel_centroid="582.8395909531645,36.28724412854988" moovel_centroidlatlon="13.330127849999998,52.510303500000006"/>
  <polygon id="172987998" points="98.04975137,81.942689881 55.2532794203,81.934256721 55.2575015462,76.748345581 98.05248604,76.745920041 98.04975137,81.942689881 " moovel_rot="172.2" moovel_centroid="76.66071414550595,79.3428186894642" moovel_centroidlatlon="13.256685989444282,52.537767784378254"/>
  <polygon id="369223451" points="470.764522695,51.209994971 470.762925308,56.082427255 460.119073951,56.090043235 460.120674066,51.217611723 470.764522695,51.209994971 " moovel_rot="105.8" moovel_centroid="465.4417991458577,53.650019399975186" moovel_centroidlatlon="13.41020875,52.52825730000001"/>
  <polygon id="324999825" points="207.337518163,30.73130426 207.566880997,35.871952343 215.121926849,35.806481743 215.083771373,30.739971458 207.337518163,30.73130426 " moovel_rot="8.9" moovel_centroid="211.26789934865087,33.27694201352603" moovel_centroidlatlon="13.396508533340521,52.386774331256234"/>
  <polygon id="319894489" points="73.6036393525,2.5158285309 18.7733618241,2.5000006434 2.1606246,31.0402816 61.8030218229,31.379113841 70.7057453852,21.174325266 73.5556225763,20.610292725 73.6012563422,4.9772609125 73.6036393525,2.5158285309 " moovel_rot="87.0" moovel_centroid="40.69651960104053,17.082813982117933" moovel_centroidlatlon="13.349344411938269,52.455784460440064"/>
  <polygon id="380979596" points="562.952905202,43.904251137 562.966127862,39.757018317 558.612602093,39.751856535 558.604164205,43.908943205 562.952905202,43.904251137 " moovel_rot="154.1" moovel_centroid="560.7830903566767,41.83013471082888" moovel_centroidlatlon="13.552118659074814,52.54464851843091"/>
  <polygon id="98942684" points="504.713448277,35.54121138 514.118432589,35.53305476 514.123759115,39.974680746 504.71877791,39.982835823 504.713448277,35.54121138 " moovel_rot="63.6" moovel_centroid="509.4186047443982,37.75794555466483" moovel_centroidlatlon="13.413480450000002,52.5030693"/>
  <polygon id="187695125" points="571.531235838,70.988177164 571.530909925,69.588617535 565.003116753,69.591608801 565.000775615,70.980550452 571.531235838,70.988177164 " moovel_rot="165.9" moovel_centroid="568.2706526991494,70.28728755618698" moovel_centroidlatlon="13.321495390019157,52.51183173465422"/>
  <polygon id="356259136" points="564.042622753,19.142874035 557.941366433,19.15634313 558.073882072,21.681284546 564.052036373,21.689299095 564.042622753,19.142874035 " moovel_rot="64.6" moovel_centroid="561.0316089961167,20.413120416065627" moovel_centroidlatlon="13.330963242977182,52.510139576062265"/>
  <polygon id="392335513" points="352.806046024,48.810309597 352.828182862,54.550636816 369.864944185,54.543218002 369.842814536,48.802883572 352.806046024,48.810309597 " moovel_rot="44.9" moovel_centroid="361.3354986836556,51.67676179333914" moovel_centroidlatlon="13.441360450000003,52.51137655"/>
  <polygon id="315473998" points="590.578666551,31.373170052 590.576683332,32.483527013 587.580910168,32.480967856 587.582893498,31.370611135 590.578666551,31.373170052 " moovel_rot="155.2" moovel_centroid="589.0797884411829,31.92706901748773" moovel_centroidlatlon="13.330224949999998,52.51043105"/>
  <polygon id="266077353" points="366.688741562,20.456899081 366.658629358,10.517419799 355.479501823,10.516173972 355.5142788,20.460433559 366.688741562,20.456899081 " moovel_rot="45.8" moovel_centroid="361.0848388757631,15.48738702496858" moovel_centroidlatlon="13.589082166613496,52.51233264924509"/>
  <polygon id="138000190" points="242.957674529,35.860480324 243.320042075,24.710806598 223.571869627,24.574589141 222.316692285,35.871844801 242.957674529,35.860480324 " moovel_rot="106.9" moovel_centroid="233.01608839536425,30.295208368197308" moovel_centroidlatlon="13.41818464505977,52.578380285744714"/>
  <polygon id="210561749" points="543.701259328,73.403887043 543.706128791,77.420587086 536.727563266,77.415816796 536.722693597,73.39911676 543.701259328,73.403887043 " moovel_rot="87.9" moovel_centroid="540.2144112465219,75.40985191136954" moovel_centroidlatlon="13.555158000000002,52.51330139999999"/>
  <polygon id="401828853" points="410.833894536,15.987327058 397.584326266,15.989489967 397.58031587,9.641121193 410.828646331,9.628094171 410.833894536,15.987327058 " moovel_rot="173.5" moovel_centroid="404.2086837304274,12.811556166660319" moovel_centroidlatlon="13.274000372001522,52.45210637739141"/>
  <polygon id="315473997" points="580.386566317,80.819604743 580.383108541,81.942694028 577.387339215,81.940143177 577.390797104,80.817054135 580.386566317,80.819604743 " moovel_rot="155.2" moovel_centroid="578.8869528482331,81.37987402434956" moovel_centroidlatlon="13.329981799999997,52.51011309999999"/>
  <polygon id="343992823" points="554.154000341,45.747658183 554.157568084,49.072845656 549.994280903,49.065902757 548.303661809,49.071366476 548.300092611,45.746179735 554.154000341,45.747658183 " moovel_rot="63.3" moovel_centroid="551.2291946092311,47.40804024360046" moovel_centroidlatlon="13.566329632755112,52.571658058999255"/>
  <polygon id="392479517" points="433.066206082,34.971809871 433.400041017,42.279687155 442.435665808,42.163079197 441.571029675,34.981800794 433.066206082,34.971809871 " moovel_rot="44.0" moovel_centroid="437.60887613481736,38.636410674371135" moovel_centroidlatlon="13.43997763730247,52.512787045409354"/>
  <polygon id="316397740" points="145.056098804,53.828310018 134.885416393,53.837457361 134.885846154,52.751482635 145.0611082,52.752292131 145.056098804,53.828310018 " moovel_rot="155.3" moovel_centroid="139.964307577491,53.292347961645426" moovel_centroidlatlon="13.326996606003268,52.563909444911175"/>
  <polygon id="99340032" points="307.102562453,9.454185074 307.099137326,2.506622198 325.998438497,2.500003672 326.001863594,9.447567464 307.102562453,9.454185074 " moovel_rot="1.9" moovel_centroid="316.550500675145,5.977094600994449" moovel_centroidlatlon="13.129319349999998,52.39276460000001"/>
  <polygon id="315474001" points="580.09207943,20.470958635 580.088628473,21.59406268 577.092850714,21.591493577 577.090238584,20.471191368 580.09207943,20.470958635 " moovel_rot="155.2" moovel_centroid="578.5915741093953,21.031737849826662" moovel_centroidlatlon="13.330518615323696,52.51081150082891"/>
  <polygon id="310461377" points="362.810105586,70.610385571 362.820570033,73.843635822 338.609533855,73.857723302 338.603684002,70.612513241 362.810105586,70.610385571 " moovel_rot="52.5" moovel_centroid="350.703525892877,72.23111876835112" moovel_centroidlatlon="13.414851707739638,52.520628370715265"/>
  <polygon id="366514549" points="503.356662753,69.667851113 507.529385239,73.823560443 507.602713623,75.271084075 498.506348595,75.471064421 498.212359222,69.66762866 503.356662753,69.667851113 " moovel_rot="87.1" moovel_centroid="502.28349050313307,72.79600530763342" moovel_centroidlatlon="13.449992361598072,52.44750734732761"/>
  <polygon id="329025622" points="166.878794986,2.4999684434 192.818941366,2.6322692424 194.031562481,2.6380461026 193.810448709,13.608887909 166.653600084,13.616185605 166.878794986,2.4999684434 " moovel_rot="48.9" moovel_centroid="180.31373655725756,8.09083604763938" moovel_centroidlatlon="13.42799660675137,52.576950519315275"/>
  <polygon id="383301593" points="527.701787658,38.02428346 519.12831056,38.030467177 519.118584961,42.187909048 527.692064755,42.181727871 527.701787658,38.02428346 " moovel_rot="133.3" moovel_centroid="523.4101874200784,40.10609699787042" moovel_centroidlatlon="13.47410595,52.47891750000001"/>
  <polygon id="237881641" points="522.533908719,68.845798996 532.556812937,68.84485316 532.492644596,71.920365188 522.491569802,71.92800522 522.533908719,68.845798996 " moovel_rot="168.4" moovel_centroid="527.5169271471404,70.38419403824703" moovel_centroidlatlon="13.432810249813897,52.514962916655875"/>
  <polygon id="282826922" points="257.08938635,70.896288141 257.102653696,81.810703477 238.457005887,81.818085331 238.454653132,70.903536641 257.08938635,70.896288141 " moovel_rot="89.3" moovel_centroid="247.7759067780116,76.35768598204096" moovel_centroidlatlon="13.404884757970287,52.38566937477562"/>
  <polygon id="270302166" points="188.042979662,54.090777832 159.066274581,54.095909899 159.36819179,43.7616894434 188.186400824,43.8425843772 188.042979662,54.090777832 " moovel_rot="151.5" moovel_centroid="173.6456829498379,48.95236231072151" moovel_centroidlatlon="13.433814024905244,52.42811559859057"/>
  <polygon id="186525005" points="572.542424632,9.940367735 572.545581315,11.206023748 564.679879547,11.214237576 564.6784408,9.942127107 572.542424632,9.940367735 " moovel_rot="104.9" moovel_centroid="568.6082483264598,10.575714409134967" moovel_centroidlatlon="13.325350838199443,52.52129417064114"/>
  <polygon id="180311316" points="496.743647695,22.37839146 480.034078737,22.380730761 479.958260701,23.889280775 496.653805206,24.006155457 496.743647695,22.37839146 " moovel_rot="123.8" moovel_centroid="488.4532878726007,23.16394204391385" moovel_centroidlatlon="13.287358622252015,52.45178688103395"/>
  <polygon id="257177227" points="556.889777174,27.285648435 562.962264347,27.286963078 562.965399005,30.387835765 556.892912431,30.386519782 556.889777174,27.285648435 " moovel_rot="24.1" moovel_centroid="559.9275884579241,28.83674173950013" moovel_centroidlatlon="13.425247200000001,52.58725509999999"/>
  <polygon id="32558193" points="506.977025802,5.035536934 506.974352559,7.012144479 491.882754515,7.002279437 491.878802827,5.02652136 506.977025802,5.035536934 " moovel_rot="172.7" moovel_centroid="499.4287772557552,6.019048612869946" moovel_centroidlatlon="13.338001566801774,52.52673544997825"/>
  <polygon id="345398558" points="541.334702573,13.54989386 541.340677795,16.7826249 548.83149515,16.78347828 548.836471133,13.550689899 541.334702573,13.54989386 " moovel_rot="89.7" moovel_centroid="545.0858479151834,15.166278178764" moovel_centroidlatlon="13.537946594108686,52.527676975121565"/>
  <polygon id="315473993" points="581.819782883,58.000114083 581.822394487,59.120415152 578.826617519,59.117847762 578.824006027,57.997546935 581.819782883,58.000114083 " moovel_rot="155.2" moovel_centroid="580.3232002829142,58.55898098651893" moovel_centroidlatlon="13.330467650000003,52.510746"/>
  <polygon id="150591186" points="576.96719248,70.727209528 579.673635068,70.725014935 579.654526419,72.348010836 576.944620329,72.337844453 576.96719248,70.727209528 " moovel_rot="15.7" moovel_centroid="578.3117158981952,71.53470271276504" moovel_centroidlatlon="13.443923050564498,52.57157772764627"/>
  <polygon id="225402464" points="564.653349084,64.696115112 557.667909751,64.6911327 557.668015529,62.866055435 564.653454622,62.871037104 564.653349084,64.696115112 " moovel_rot="162.1" moovel_centroid="561.1606824834296,63.78108509314527" moovel_centroidlatlon="13.57217295,52.412831000000004"/>
  <polygon id="343792116" points="540.841125728,21.51301016 540.839198618,26.082390338 534.359662784,26.075360077 534.310248202,21.781984455 534.371473613,21.514171647 540.841125728,21.51301016 " moovel_rot="98.3" moovel_centroid="537.5886925990142,23.79368653343098" moovel_centroidlatlon="13.526185017903352,52.56960394371029"/>
  <polygon id="120795256" points="577.831120901,65.725972172 578.119660809,63.964949528 573.920310876,63.806464435 573.65163726,65.731933368 577.831120901,65.725972172 " moovel_rot="110.6" moovel_centroid="575.8499366187941,64.80513046138317" moovel_centroidlatlon="13.382695731137268,52.411030754415286"/>
  <polygon id="219558880" points="292.882315527,40.42082199 292.848137427,52.702279778 278.549905668,52.699924914 278.574176965,40.413868541 292.882315527,40.42082199 " moovel_rot="114.9" moovel_centroid="285.71318968321873,46.558513870855194" moovel_centroidlatlon="13.507900443150413,52.46643426857421"/>
  <polygon id="438501161" points="515.029638293,51.080489336 508.31647782,51.079702341 508.314169756,44.97971806 515.027330281,44.980504388 515.029638293,51.080489336 " moovel_rot="4.5" moovel_centroid="511.67190409866964,48.030103527300554" moovel_centroidlatlon="13.3910736,52.54931175"/>
  <polygon id="349904427" points="548.600949494,77.610878435 553.417422852,77.615849457 553.421302955,81.936727898 548.604619641,81.942691504 548.600949494,77.610878435 " moovel_rot="1.1" moovel_centroid="551.0100592796637,79.77655335773522" moovel_centroidlatlon="13.38517498481908,52.46930292467078"/>
  <polygon id="345088330" points="475.675042426,18.229920822 475.675102573,21.073397664 461.632806543,21.063585492 461.644525421,18.22518626 475.675042426,18.229920822 " moovel_rot="144.7" moovel_centroid="468.6589569238363,19.648222487767434" moovel_centroidlatlon="13.434773901235769,52.50920093750384"/>
  <polygon id="380000754" points="455.859643771,30.364037311 456.004929191,36.666725143 446.802102864,36.668224587 446.551209722,30.354980471 455.859643771,30.364037311 " moovel_rot="51.9" moovel_centroid="451.3029981167087,33.50751222362303" moovel_centroidlatlon="13.360727840936924,52.48647519812217"/>
  <polygon id="442676504" points="443.827199988,23.444199682 433.186032133,23.45147421 433.179773708,17.619818392 443.820942645,17.612543771 443.827199988,23.444199682 " moovel_rot="85.1" moovel_centroid="438.50348713247604,20.532008964322056" moovel_centroidlatlon="13.44970245,52.44564464999999"/>
  <polygon id="442174774" points="68.96698951,30.771740535 70.711457996,30.772208328 70.817376001,31.339720491 69.122018042,31.39061459 68.96698951,30.771740535 " moovel_rot="114.2" moovel_centroid="69.89167865030257,31.067671548296016" moovel_centroidlatlon="13.307637766162957,52.62136849041158"/>
  <polygon id="439943137" points="307.657771616,25.713063103 312.490452069,25.703199435 312.508036294,30.146235295 307.676443949,30.143303236 307.657771616,25.713063103 " moovel_rot="36.2" moovel_centroid="310.08433691643603,27.92636218012159" moovel_centroidlatlon="13.315444288246184,52.5867411818991"/>
  <polygon id="315474006" points="581.967672128,46.696357456 581.970282527,47.816655918 578.974507049,47.814091753 578.971896763,46.693793535 581.967672128,46.696357456 " moovel_rot="155.2" moovel_centroid="580.4710896711099,47.25522466905025" moovel_centroidlatlon="13.330373250000001,52.510622600000005"/>
  <polygon id="315474014" points="585.988032234,52.51697616 585.979990068,53.630143918 582.984211587,53.627573253 582.992253863,52.514405735 585.988032234,52.51697616 " moovel_rot="155.2" moovel_centroid="584.486121991778,53.07227477000598" moovel_centroidlatlon="13.330567999999998,52.51087135"/>
  <polygon id="133822361" points="262.100542358,80.08170116 285.042151878,80.090683526 285.044165935,81.636489471 262.102557677,81.627504496 262.100542358,80.08170116 " moovel_rot="25.8" moovel_centroid="273.57235768932964,80.8590946574086" moovel_centroidlatlon="13.3812136,52.52833929999999"/>
  <polygon id="149954038" points="276.895455624,19.540137359 224.960355139,19.584114982 224.961013271,17.677495461 276.887285589,17.640002772 276.895455624,19.540137359 " moovel_rot="53.7" moovel_centroid="250.91129894725313,18.61047620015103" moovel_centroidlatlon="13.427832769801606,52.57766761642901"/>
  <polygon id="383405297" points="414.59792778,70.538154943 406.894629107,70.53332756 406.904730543,73.769422172 400.513747969,73.764304059 400.500309929,66.573160971 414.592520574,66.576756355 414.59792778,70.538154943 " moovel_rot="71.9" moovel_centroid="406.5113669120498,69.52628938662815" moovel_centroidlatlon="13.461535486081837,52.49281022991813"/>
  <polygon id="327481151" points="320.1394284,25.713250199 320.171204402,36.975917171 332.682048175,36.96957304 332.650279735,25.706894772 320.1394284,25.713250199 " moovel_rot="33.8" moovel_centroid="326.41074122158597,31.34140822526985" moovel_centroidlatlon="13.375784500000002,52.527425150000006"/>
  <polygon id="445470923" points="487.029136599,2.49990446 471.428459443,2.636028811 471.145903039,4.703624281 487.051520272,4.729045377 487.029136599,2.49990446 " moovel_rot="46.4" moovel_centroid="479.2629265678186,3.645379011099495" moovel_centroidlatlon="13.499034633926923,52.49355698594316"/>
  <polygon id="404320746" points="373.462228619,73.014259008 367.817898236,73.011429693 367.818775544,72.220310471 373.468655973,72.219423835 373.462228619,73.014259008 " moovel_rot="146.2" moovel_centroid="370.64409568617367,72.61629138582946" moovel_centroidlatlon="13.502182047019568,52.51703966071941"/>
  <polygon id="394951559" points="538.058854154,63.845187297 530.977815608,63.844752182 530.990509383,59.59124836 538.071546327,59.591681064 538.058854154,63.845187297 " moovel_rot="146.4" moovel_centroid="534.5246817022228,61.71821730632267" moovel_centroidlatlon="13.439670249999997,52.509513749999996"/>
  <polygon id="356841085" points="326.794614663,79.287901471 356.963771825,79.288315632 356.967695898,81.942693735 326.792202612,81.94016655 326.794614663,79.287901471 " moovel_rot="18.4" moovel_centroid="341.88157332968734,80.61481587283089" moovel_centroidlatlon="13.521496903598521,52.50386390535729"/>
  <polygon id="383405288" points="2.499989368,67.57943625 2.502642472,68.174422474 8.805040031,68.169325359 8.802386722,67.574338835 2.499989368,67.57943625 " moovel_rot="145.6" moovel_centroid="5.652514913215253,67.87438073088798" moovel_centroidlatlon="13.461163250000007,52.493978299999995"/>
  <polygon id="442174778" points="587.238280435,2.500005135 589.974122761,2.502498424 590.214845115,3.749724983 587.622052225,3.81997432 587.238280435,2.500005135 " moovel_rot="144.2" moovel_centroid="588.7482473680329,3.1381970287474443" moovel_centroidlatlon="13.313146153441245,52.622534564098856"/>
  <polygon id="225402458" points="574.459572089,40.311022208 578.494389929,40.309435135 578.49030701,41.837493708 574.455488916,41.83908031 574.459572089,40.311022208 " moovel_rot="151.7" moovel_centroid="576.4749395896395,41.074257848265155" moovel_centroidlatlon="13.572279350000004,52.412805199999994"/>
  <polygon id="420006955" points="412.519143945,55.518476071 412.527374029,60.233962519 396.110001033,60.242578731 396.112701248,55.527073206 412.519143945,55.518476071 " moovel_rot="89.9" moovel_centroid="404.31730134669556,57.88078434323713" moovel_centroidlatlon="13.68583705391823,52.443682624961816"/>
  <polygon id="282346288" points="156.434170477,2.796110621 156.626626068,5.043831819 78.591223003,5.17238783 78.756502246,2.759385841 156.434170477,2.796110621 " moovel_rot="155.2" moovel_centroid="117.14256034945876,3.944094755949582" moovel_centroidlatlon="13.577395428913785,52.4574096964886"/>
  <polygon id="180311317" points="494.235617837,55.337020842 478.113876936,55.17407796 478.044685624,57.08847011 494.164661106,57.062873554 494.235617837,55.337020842 " moovel_rot="124.9" moovel_centroid="486.0005839038863,56.16493304683446" moovel_centroidlatlon="13.287705008463865,52.45143915270189"/>
  <polygon id="296755460" points="330.986876174,2.500001572 331.673816753,9.584025816 351.825600623,7.968751478 351.794260953,6.649945042 348.792342585,6.242813932 348.631761415,2.523930505 330.986876174,2.500001572 " moovel_rot="60.4" moovel_centroid="340.15956723264617,5.770685038302565" moovel_centroidlatlon="13.32027881221471,52.5232625817078"/>
  <polygon id="79044965" points="127.2363652,72.0373860676 173.784519176,71.9768222434 172.95411176,80.1500065913 146.894118134,79.3958196731 125.662122998,78.7867272885 127.2363652,72.0373860676 " moovel_rot="109.1" moovel_centroid="150.6467207099894,75.76012983945677" moovel_centroidlatlon="13.146172279118408,52.414987071555245"/>
  <polygon id="383405291" points="273.996396349,35.653437193 248.183848835,35.647688666 248.169893669,29.366050941 273.982451961,29.371795157 273.996396349,35.653437193 " moovel_rot="68.2" moovel_centroid="261.08314918006886,32.50974277081031" moovel_centroidlatlon="13.4605715,52.4930947"/>
  <polygon id="383405296" points="554.117986116,60.172233884 547.660915706,60.170515829 547.653742017,56.659807325 554.107616902,56.655660235 554.112667009,58.608009142 554.117986116,60.172233884 " moovel_rot="61.4" moovel_centroid="550.8857868335735,58.41469492288637" moovel_centroidlatlon="13.462140432020389,52.493646355173595"/>
  <polygon id="282805915" points="315.14573416,44.107137051 297.872077007,44.106952343 297.894962357,36.105936072 315.168803922,36.118912051 315.14573416,44.107137051 " moovel_rot="147.7" moovel_centroid="306.5180912568017,40.10972497152027" moovel_centroidlatlon="13.425600304093837,52.4163039636492"/>
  <polygon id="401834003" points="577.525483405,4.20556309 573.169512009,4.206722239 573.170137424,2.501165357 577.526108799,2.500006035 577.525483405,4.20556309 " moovel_rot="173.5" moovel_centroid="575.3478104460709,3.3533641809274815" moovel_centroidlatlon="13.274029349999998,52.4519781"/>
  <polygon id="343992821" points="346.565103672,52.269513308 346.574877191,54.414011171 343.876761785,54.383776139 342.157718215,54.415476752 342.157927397,52.266450535 346.565103672,52.269513308 " moovel_rot="65.6" moovel_centroid="344.3643016089129,53.3339980716244" moovel_centroidlatlon="13.566835102024836,52.572222106034275"/>
  <polygon id="447018174" points="42.600073623,55.325629576 31.013177205,55.176718879 30.968768603,53.930495101 42.731661409,53.922590235 42.600073623,55.325629576 " moovel_rot="61.4" moovel_centroid="36.944407931047344,54.587943627404" moovel_centroidlatlon="13.267744369247765,52.453171810475226"/>
  <polygon id="161452007" points="391.4859445,80.590561273 391.486748453,78.771488379 416.697676748,78.76656146 417.165728671,78.768041988 417.1649247,80.58711446 391.4859445,80.590561273 " moovel_rot="-2.5" moovel_centroid="404.32758488509955,79.67891539933346" moovel_centroidlatlon="13.574520576410189,52.51289450282688"/>
  <polygon id="75722962" points="78.795891371,11.6282598434 104.216739851,12.0202313678 104.059614951,31.375462979 78.269252832,31.402252247 78.538097358,21.203507805 78.795891371,11.6282598434 " moovel_rot="4.7" moovel_centroid="91.28831926310494,21.629271187969838" moovel_centroidlatlon="13.404542375719268,52.39412908229133"/>
  <polygon id="315473991" points="584.19762858,6.666907926 584.200236463,7.787200942 581.204464096,7.784643509 581.201856325,6.664350735 584.19762858,6.666907926 " moovel_rot="155.2" moovel_centroid="582.7010464199145,7.2257757815187444" moovel_centroidlatlon="13.330176049999999,52.510365"/>
  <polygon id="282800396" points="282.233668563,12.646350052 281.7847748,7.541057541 252.854283891,7.776743145 253.002261476,12.611631959 282.233668563,12.646350052 " moovel_rot="108.6" moovel_centroid="267.60131875303875,10.147542035295036" moovel_centroidlatlon="13.435659717951445,52.42060916061702"/>
  <polygon id="429841016" points="484.213500081,50.175825587 475.455624189,50.173492682 475.444967332,44.455013871 484.202845226,44.457346366 484.213500081,50.175825587 " moovel_rot="78.4" moovel_centroid="479.8292342591915,47.31541951753805" moovel_centroidlatlon="13.174636849999999,52.546210650000006"/>
  <polygon id="384545639" points="491.049895725,81.930524192 507.719385399,81.94268833 507.719115659,80.477145788 491.049625978,80.46498146 491.049895725,81.930524192 " moovel_rot="-2.1" moovel_centroid="499.38450551016194,81.20383494231756" moovel_centroidlatlon="13.5958984,52.44079055"/>
  <polygon id="86813085" points="204.383987706,66.2559142434 184.318533724,66.2563462171 184.894315772,81.944979869 203.726941645,81.138444837 204.383987706,66.2559142434 " moovel_rot="152.8" moovel_centroid="194.24297069439885,73.81986299285775" moovel_centroidlatlon="13.454247305465797,52.50046751508669"/>
  <polygon id="182896349" points="304.672773959,70.998904878 304.673896281,69.991066235 297.899518575,69.99578001 297.899129035,70.996979801 304.672773959,70.998904878 " moovel_rot="96.3" moovel_centroid="301.2900601631012,70.49567296945408" moovel_centroidlatlon="13.31975046872543,52.51392378386123"/>
  <polygon id="180016886" points="374.863111582,49.024438171 391.899883991,49.024438171 391.899883991,54.067211104 374.863111582,54.067211104 374.863111582,49.024438171 " moovel_rot="90" moovel_centroid="383.3814977866,51.54582463750001" moovel_centroidlatlon="13.477234549999999,52.54679355"/>
  <polygon id="343992824" points="559.679447357,10.82730229 559.683013007,14.152490816 555.522721684,14.15151752 553.838892861,14.146089726 553.825532284,10.825827535 559.679447357,10.82730229 " moovel_rot="63.3" moovel_centroid="556.7572234461323,12.4883590813243" moovel_centroidlatlon="13.566387959148317,52.57172667732225"/>
  <polygon id="99252826" points="526.076466711,54.68913476 526.137663854,59.335705978 518.118620888,59.328268763 518.089842376,54.690257054 526.076466711,54.68913476 " moovel_rot="93.3" moovel_centroid="522.1068914152839,57.01240523861438" moovel_centroidlatlon="13.178360247299668,52.531776437151706"/>
  <polygon id="315474007" points="496.894869132,36.579822772 493.893030026,36.580059271 493.892245781,35.543330758 496.894084784,35.543094035 496.894869132,36.579822772 " moovel_rot="155.2" moovel_centroid="495.3935574848034,36.06157671195523" moovel_centroidlatlon="13.330402750000003,52.51065845000001"/>
  <polygon id="438501163" points="517.516414256,70.103255622 510.803253954,70.102466457 510.800943915,64.00250726 517.514104269,64.003295759 517.516414256,70.103255622 " moovel_rot="4.5" moovel_centroid="514.1586791595782,67.05288127055057" moovel_centroidlatlon="13.3910965,52.54913105"/>
  <polygon id="198718776" points="512.699927507,75.10269126 512.72217047,81.327984175 519.139272743,81.332708735 519.117029692,75.107415819 512.699927507,75.10269126 " moovel_rot="90.4" moovel_centroid="515.9196001031058,78.21770000436393" moovel_centroidlatlon="13.3691435,52.52426500000001"/>
  <polygon id="356296202" points="276.103213318,56.379369478 276.19985261,58.421715282 226.59461795,58.73231974 226.560619161,56.365511872 276.103213318,56.379369478 " moovel_rot="153.6" moovel_centroid="250.7569789921524,57.47681537825681" moovel_centroidlatlon="13.42253081228676,52.51928374962665"/>
  <polygon id="343992825" points="559.995594903,69.693692903 560.008955111,73.013955279 555.838873015,73.017906229 554.155045285,73.012477886 554.151477099,69.687290635 559.995594903,69.693692903 " moovel_rot="63.3" moovel_centroid="557.0767375910821,71.35356962014653" moovel_centroidlatlon="13.566234566011934,52.57169120957003"/>
  <polygon id="323562899" points="381.976948517,32.545870647 410.706484043,32.53694136 410.711283177,34.006128241 381.981749116,34.015054442 381.976948517,32.545870647 " moovel_rot="25.4" moovel_centroid="396.34412124118427,33.27599866465011" moovel_centroidlatlon="13.3610617,52.52758195"/>
  <polygon id="359380695" points="318.29472898,55.920588562 297.84553008,55.905450311 297.858159307,49.106948772 318.307356707,49.122080675 318.29472898,55.920588562 " moovel_rot="166.7" moovel_centroid="308.07644535954387,52.513767123075226" moovel_centroidlatlon="13.56642155,52.518769750000004"/>
  <polygon id="314629581" points="286.803311949,3.55389019 301.60094463,2.493608841 302.409183291,13.854361342 289.316644531,13.844389343 287.135927511,11.344215211 286.803311949,3.55389019 " moovel_rot="41.9" moovel_centroid="294.7491645598494,8.376369089395377" moovel_centroidlatlon="13.509636365474988,52.45808100403296"/>
  <polygon id="183766446" points="377.042896639,25.447751172 362.501463365,25.460616571 362.508991764,32.443673163 377.039032443,32.436725767 377.042896639,25.447751172 " moovel_rot="93.9" moovel_centroid="369.7741207144011,28.94673462516315" moovel_centroidlatlon="13.285291667128757,52.582710634039394"/>
  <polygon id="394198037" points="456.535384991,17.620654535 456.736199155,24.766473646 449.009059099,24.936954232 448.820188994,17.618839671 456.535384991,17.620654535 " moovel_rot="133.3" moovel_centroid="452.7599298534456,21.23719198932465" moovel_centroidlatlon="13.440457172801606,52.51308065758535"/>
  <polygon id="225232901" points="357.504112269,27.898756372 337.664085606,27.902910814 337.671597291,33.26317782 357.500746368,33.258014295 357.504112269,27.898756372 " moovel_rot="95.3" moovel_centroid="347.5848233125356,30.580469959485686" moovel_centroidlatlon="13.520496796780543,52.42765187194851"/>
  <polygon id="315474004" points="585.788509906,25.790888935 585.780461617,26.904043441 582.78469079,26.901489342 582.78667599,25.791136668 585.788509906,25.790888935 " moovel_rot="155.2" moovel_centroid="584.285715738597,26.346702914454422" moovel_centroidlatlon="13.330079515250105,52.51023745087012"/>
  <polygon id="297141700" points="390.129441452,2.5003322 390.129927509,4.637471753 415.003519779,4.62620212 415.003549451,2.499998571 390.129441452,2.5003322 " moovel_rot="-2.7" moovel_centroid="402.55597534538043,3.5659999665705873" moovel_centroidlatlon="13.574008490970677,52.51294002958645"/>
  <polygon id="392335514" points="479.912420185,32.143270438 479.93374407,37.403470945 488.895870394,37.402057035 488.877654955,32.129410671 479.912420185,32.143270438 " moovel_rot="45.4" moovel_centroid="484.406686722085,34.769396289734566" moovel_centroidlatlon="13.441554041881437,52.51149298747157"/>
  <polygon id="133823558" points="274.634430435,65.8952295 224.38272991,65.898267233 224.390453386,63.732398099 274.642146406,63.729351972 274.634430435,65.8952295 " moovel_rot="138.2" moovel_centroid="249.51245626454494,64.81381172708073" moovel_centroidlatlon="13.325760700000009,52.51723619999999"/>
  <polygon id="442174777" points="448.678499308,53.006224942 452.733478475,53.000167335 452.694786954,55.216803111 448.78806793,55.148611076 448.678499308,53.006224942 " moovel_rot="1.0" moovel_centroid="450.7350761728367,54.086220894519535" moovel_centroidlatlon="13.313151068416223,52.62233198812548"/>
  <polygon id="411717028" points="168.660023582,28.800556584 159.122252211,28.795857871 159.118890236,35.710109784 168.657396028,35.708169827 168.660023582,28.800556584 " moovel_rot="96.3" moovel_centroid="163.88887695170877,32.25371757658069" moovel_centroidlatlon="13.320320426908857,52.51309184311137"/>
  <polygon id="282807190" points="278.983485503,29.824502209 302.66443968,29.81142065 302.654828041,23.903214172 278.973871475,23.916303546 278.983485503,29.824502209 " moovel_rot="17.0" moovel_centroid="290.81915878448234,26.863860092865572" moovel_centroidlatlon="13.425811900000001,52.41455740000001"/>
  <polygon id="277464944" points="425.633485619,50.520193415 407.865412439,50.517869142 407.877957711,46.528580771 425.641643445,46.535941083 425.633485619,50.520193415 " moovel_rot="131.0" moovel_centroid="416.7527540117454,48.525727395759915" moovel_centroidlatlon="13.484877794310659,52.54992228758789"/>
  <polygon id="273570046" points="397.483991715,27.535938738 397.475445306,21.704079771 411.434037895,21.70512862 411.442578312,27.536990496 397.483991715,27.535938738 " moovel_rot="64.1" moovel_centroid="404.4590138870098,24.620534197525174" moovel_centroidlatlon="13.33088345,52.51000284999999"/>
  <polygon id="291686447" points="385.351623729,64.935520772 391.478150518,64.964156879 395.859319663,65.131431956 392.815324156,73.770410096 388.65179437,73.781858575 381.851803223,73.77926179 385.351623729,64.935520772 " moovel_rot="25.9" moovel_centroid="388.94738098306004,69.41065513545998" moovel_centroidlatlon="13.379076594350783,52.52922528332585"/>
  <polygon id="316397741" points="292.7451854,70.005891872 293.423619526,75.099770053 262.367727285,75.066102174 262.082340822,71.516746396 292.7451854,70.005891872 " moovel_rot="62.2" moovel_centroid="278.57722225662604,72.90262521740114" moovel_centroidlatlon="13.327132033270539,52.563761828232835"/>
  <polygon id="440911735" points="536.9978717,12.324774204 526.292996927,12.32285059 526.287677037,10.199719935 536.992550383,10.201643039 536.9978717,12.324774204 " moovel_rot="109.7" moovel_centroid="531.6427742260373,11.262246965605796" moovel_centroidlatlon="13.408799949999997,52.40136584999999"/>
  <polygon id="404320744" points="467.514802129,46.212320333 461.864666973,46.212623048 461.867823263,45.425039023 467.510935035,45.416336435 467.514802129,46.212320333 " moovel_rot="140.1" moovel_centroid="464.6945522021597,45.81665775210503" moovel_centroidlatlon="13.500869793375589,52.51747640481157"/>
  <polygon id="51230059" points="452.638615305,12.619733934 452.654399301,6.108501742 443.153038837,6.100756771 443.137250588,12.611984173 452.638615305,12.619733934 " moovel_rot="138.4" moovel_centroid="447.8958265892115,9.360244399017043" moovel_centroidlatlon="13.499259899999998,52.493610249999996"/>
  <polygon id="156844385" points="199.016790708,45.107149135 193.169045033,45.11056401 193.159197822,47.136200693 199.018184592,47.1389742 199.016790708,45.107149135 " moovel_rot="150.2" moovel_centroid="196.09229192138417,46.12354697334798" moovel_centroidlatlon="13.427565058096478,52.54441318432003"/>
  <polygon id="273570047" points="521.254727655,21.57795995 521.241115335,17.332501388 529.354912558,17.32339976 529.371366239,21.574902988 521.254727655,21.57795995 " moovel_rot="64.8" moovel_centroid="525.3064934011114,19.452313326179063" moovel_centroidlatlon="13.331270432795735,52.51050555748165"/>
  <polygon id="97114793" points="220.537422782,61.2121112794 222.299286449,52.4996535724 193.088401303,52.1355230434 192.881950839,61.2561649699 220.537422782,61.2121112794 " moovel_rot="134.6" moovel_centroid="207.100302750665,56.73346705449769" moovel_centroidlatlon="13.511827514713666,52.631279995669644"/>
  <polygon id="188248301" points="558.008412262,51.204500912 558.008524908,53.75988353 564.768884855,53.757246545 564.768772252,51.201863535 558.008412262,51.204500912 " moovel_rot="6.3" moovel_centroid="561.388648655667,52.48087362911125" moovel_centroidlatlon="13.3346205,52.514421"/>
  <polygon id="35389516" points="416.931500855,61.336465508 435.054173129,61.334352071 435.054792634,63.116965769 438.301736333,63.119988305 438.307101564,64.538697426 421.077990003,64.538181661 421.07305795,62.840041283 416.932557398,62.839643675 416.931500855,61.336465508 " moovel_rot="42.1" moovel_centroid="427.7654556897607,62.91570492583811" moovel_centroidlatlon="13.529154904012326,52.43270684522248"/>
  <polygon id="99340031" points="415.968605807,12.526693558 428.194242642,12.515632771 428.175094514,19.277782563 415.709184836,19.279612318 415.968605807,12.526693558 " moovel_rot="2.2" moovel_centroid="422.0129803826803,15.91089792264433" moovel_centroidlatlon="13.130524074231595,52.39192165003584"/>
  <polygon id="341596457" points="2.500007337,10.293614278 2.502913613,5.43803496 8.758843808,5.444854261 8.756287418,10.293763581 2.500007337,10.293614278 " moovel_rot="93.0" moovel_centroid="5.6287963627886155,7.867588742520303" moovel_centroidlatlon="13.569888375889775,52.41253944345803"/>
  <polygon id="369223450" points="430.361609045,50.977660571 443.637454986,50.996775062 443.741385136,56.070529949 430.573367645,56.335370606 430.361609045,50.977660571 " moovel_rot="77.5" moovel_centroid="437.0181750105271,53.592382030229096" moovel_centroidlatlon="13.412706890169702,52.53304826802375"/>
  <polygon id="191204682" points="122.060354374,61.974380359 2.499974196,62.019896623 2.508461792,60.344536615 122.063224431,60.287499541 122.060354374,61.974380359 " moovel_rot="122.6" moovel_centroid="62.35129593392151,61.15655562289591" moovel_centroidlatlon="13.508820124327178,52.40483445124859"/>
  <polygon id="293504268" points="487.683469191,14.122383405 487.697383843,9.72899846 477.3311921,9.729706085 477.322494471,14.118920417 487.683469191,14.122383405 " moovel_rot="141.4" moovel_centroid="482.50945574074876,11.924818365202958" moovel_centroidlatlon="13.455070013686706,52.49028400336315"/>
  <polygon id="383421950" points="474.795050785,76.860305553 466.448280439,76.857252771 466.445487989,79.157399628 464.126549646,79.15714715 464.127813221,81.93938198 474.793521898,81.942687572 474.795050785,76.860305553 " moovel_rot="1.9" moovel_centroid="469.9162664773094,79.5516706553602" moovel_centroidlatlon="13.588478731365509,52.51236715164874"/>
  <polygon id="48700551" points="507.428248289,55.601835971 499.22730032,55.59259226 499.223785832,60.967509318 507.434796423,60.972460956 507.428248289,55.601835971 " moovel_rot="66.9" moovel_centroid="503.3279854796289,58.28414825127" moovel_centroidlatlon="13.409472354342219,52.49470641843126"/>
  <polygon id="83999816" points="531.947770924,78.154830347 531.943133612,81.942681163 524.136443928,81.938059364 524.153907099,78.15057376 531.947770924,78.154830347 " moovel_rot="123.0" moovel_centroid="528.0453737997968,80.0470552354399" moovel_centroidlatlon="13.456465181030211,52.53342112803741"/>
  <polygon id="199757479" points="188.184771485,23.772627073 145.244051969,23.806957867 145.2418428,12.971339027 161.654096692,12.963545841 161.654187221,21.490868529 188.182652069,21.464324787 188.184771485,23.772627073 " moovel_rot="172.8" moovel_centroid="158.94545983579897,19.47087611217651" moovel_centroidlatlon="13.374236444694855,52.55695921454104"/>
  <polygon id="49214084" points="2.510355727,73.174406871 2.499999865,81.93776273 11.964786343,81.94268796 11.975142206,73.17933226 2.510355727,73.174406871 " moovel_rot="-0.5" moovel_centroid="7.237571020939621,77.55854745515092" moovel_centroidlatlon="13.323418000000002,52.482358250000004"/>
  <polygon id="316507603" points="248.030706078,2.820332799 247.699926591,12.23759468 225.47234904,12.241491295 225.679064169,2.499744641 248.030706078,2.820332799 " moovel_rot="110.5" moovel_centroid="236.6579109898473,7.444576803616359" moovel_centroidlatlon="13.302193480109105,52.50489907260474"/>
  <polygon id="438607976" points="510.986156898,8.845654763 521.290053684,8.83439706 521.284009461,12.33244727 510.984794311,12.333800894 510.986156898,8.845654763 " moovel_rot="25.3" moovel_centroid="516.1386870499141,10.586441514726756" moovel_centroidlatlon="13.379803582076386,52.53006793559476"/>
  <polygon id="426638853" points="365.779299675,67.212688525 365.793590563,59.544996972 379.266389065,59.546480722 379.255790681,67.224485038 365.779299675,67.212688525 " moovel_rot="160.3" moovel_centroid="372.5252761698813,63.38233956952079" moovel_centroidlatlon="13.490687079639137,52.510499531161976"/>
  <polygon id="392479519" points="415.231407022,34.990224705 415.044721976,38.427407969 415.017267991,40.342944536 418.551908759,41.642708251 428.36161327,41.552184809 428.030737607,34.988774571 415.231407022,34.990224705 " moovel_rot="138.8" moovel_centroid="421.7713463598175,38.24461954298859" moovel_centroidlatlon="13.439898621305733,52.5130185158944"/>
</svg>