<svg><g transform="translate(0 0)"><polygon id="2" class="bin" points="-1.875,0.0 0.77665042945,1.09834957055 1.875,3.75 1.875,1203.749999 0.77665042945,1206.40164943 -1.875,1207.499999 -281.366712283,1207.499999 -283.993180604,1206.42659463 -285.116042217,1203.82088655 -284.092478687,1201.1745966 -256.595773967,1172.07250598 -256.202439005,1171.61793581 -230.392396027,1139.01091445 -229.222999839,1134.5841441 -231.671904985,1130.71546904 -251.077797989,1117.57669172 -252.666608259,1115.13289919 -252.025223723,1112.28947417 -250.177750569,1109.70721629 -249.163778817,1105.52463854 -251.333965249,1101.80813666 -256.74901761,1097.61333738 -258.155641318,1095.23983208 -257.557738507,1092.54639007 -257.36284124,1092.25852801 -257.076152812,1091.79676498 -244.411484536,1069.47450274 -241.506570118,1067.59200495 -239.773361431,1067.42638933 -235.932408268,1065.4196203 -234.581756309,1061.30188033 -236.957713084,1027.04366647 -238.949159526,1023.08125107 -243.169564427,1021.719349 -282.636018119,1025.05521981 -285.696119323,1023.87422953 -286.656636944,1020.73793182 -284.782696801,1018.04584978 -256.209305962,1002.06107496 -254.858042105,1001.07106086 -227.073305992,974.948938529 -226.059994925,973.750073216 -212.168236307,952.876163558 -211.779358409,952.21449298 -198.558099732,926.536380454 -198.311401038,926.00224339 -186.946927115,898.344782807 -186.660224828,897.492159824 -176.915325874,860.696524414 -176.784813419,860.096643559 -171.584392192,829.72036834 -170.674817428,827.843762709 -166.19242991,822.866140933 -164.452541471,818.712248996 -159.827538851,741.999592103 -159.817618783,741.399078712 -160.059383848,732.50678125 -160.384398406,730.598055067 -163.724220786,720.176792929 -164.117658248,719.209229839 -169.823191037,707.758843343 -170.24810118,707.023697911 -181.083872059,690.695436369 -181.264000625,690.437052479 -189.422580006,679.287468868 -201.124282539,663.310232158 -206.446187714,656.042697965 -210.25924146,653.508949839 -211.922549416,650.676124826 -210.716773805,647.620376785 -207.972341412,645.106494036 -207.270908384,644.599437156 -196.056765204,638.322846708 -195.503414157,637.97767967 -179.017553856,626.573407615 -177.405190841,625.011605781 -161.19359674,603.102204036 -160.381880832,601.675401324 -146.506194264,568.621940792 -146.101326708,567.296229822 -140.805733416,540.533258654 -140.677938771,539.001970993 -141.403882391,513.821233903 -141.577577111,512.47172686 -145.255960462,496.560520543 -145.630184549,495.412668124 -164.381341291,451.444935503 -165.265738227,449.937893654 -181.203343544,429.32851503 -182.124950372,428.35138593 -202.795105918,410.341675911 -203.506126164,409.799331115 -219.686031992,399.047284697 -220.368684643,398.648250297 -233.211288261,392.10170811 -233.700182526,391.876159824 -240.149773411,389.201805552 -242.332298812,386.720708761 -241.704824017,383.476400854 -238.75457103,381.988023976 -229.346097622,381.884737275 -225.324593361,380.181736646 -223.660101363,376.144141563 -223.43710851,219.231149518 -223.561976967,217.917407682 -226.851299474,200.900975014 -226.927251568,200.555900034 -230.070017441,187.84288925 -230.750202085,186.12611079 -245.575766319,159.75166951 -251.432626817,156.315398836 -263.727149289,156.284888764 -266.287574428,155.266014012 -267.460320529,152.772312099 -266.612093637,150.150405581 -249.62365953,129.53019613 -248.478708737,127.533261058 -240.844844429,106.753433048 -237.254412474,96.9758445222 -236.878834207,95.396491764 -233.335609481,64.7253795044 -233.348798646,63.0422379444 -237.328790599,32.7609891642 -237.588590525,31.5890003624 -246.01561731,4.87827606697 -245.46373958,1.53285490451 -242.439377229,0.0 -1.875,0.0 " moovel_rot="0" moovel_centroid="-106.39075292557355,602.9732059133552" moovel_centroidlatlon="0,0" transform="translate(286.6566467 0)"></polygon><g transform="translate(-71.25908627970287 -1642.129726343055) rotate(0)"><polygon id="90145468" class="tile" points="251.453019535,1860.61981611 252.753580961,1917.32145603 221.184655581,1915.85091288 209.258360418,1971.86682545 153.215554417,2032.88296231 133.678384948,2030.38595669 149.194112188,1951.63318198 158.891776421,1902.42539432 157.655915325,1862.57757004 157.018474078,1841.98364216 133.557802172,1841.6721493 135.547609607,1766.96158076 156.052720114,1765.94711144 171.751678217,1765.17450213 173.234586737,1796.05734138 182.028430955,1795.18967686 207.288264591,1792.71146088 209.721909566,1792.47222625 213.384090741,1815.79429622 212.616997465,1831.05522604 232.336906506,1860.54499485 251.453019535,1860.61981611 " moovel_rot="78.9" moovel_centroid="183.723953489,1891.33242228" moovel_centroidlatlon="-73.88264529764878,40.786882997473825"></polygon></g><g transform="translate(153.75142350000002 -1753.979556) rotate(0)"><polygon id="238383868" class="tile" points="122.448110814,2191.20748382 120.789343365,2191.36888533 119.664138025,2191.65597267 119.399048899,2192.36423841 119.447062009,2193.0967835 119.103100345,2194.14235991 118.426472596,2194.55116607 117.580785137,2194.55172496 99.7076360933,2194.81768684 98.4114387419,2194.57908977 98.1499409471,2193.31887619 98.0691151086,2188.19192406 97.8465869095,2186.87140452 96.9387730915,2185.7066479 95.8073631451,2184.91800423 94.4833515689,2184.53729235 59.476321464,2185.25275264 58.4473483142,2186.07583909 57.9439633336,2187.1167378 58.058241827,2188.87122016 47.051530353,2189.13601383 47.0452314947,2187.32582722 46.4038657073,2186.14313167 45.050765134,2185.66441964 29.3871725611,2186.03346627 25.5285227012,2187.22972919 22.707691304,2189.32485863 20.8057893611,2192.01510644 19.7579645734,2195.33609982 19.8895975225,2210.50476108 20.0696650889,2214.58852996 21.9198846616,2217.56299892 24.9153505672,2219.55552336 27.9042465471,2220.11611835 28.1836841829,2232.00319221 0.0,2232.73761119 1.90306094326,2218.94233236 4.7350323692,2219.0427874 4.97786932513,2132.60553927 3.73281416707,2132.62195784 4.06580676064,2094.87928343 0.0876428838819,2032.88296231 4.54080321752,2033.38911253 5.44622526392,2040.17269618 9.19955618754,2039.6783874 11.7149799138,2079.90809208 13.2565078642,2079.75503935 13.8160268191,2094.66082958 10.3422458455,2095.05223568 10.4088171624,2107.86967888 24.7814047895,2107.45286885 35.0792516313,2100.23156136 39.5968763351,2097.94782768 45.220090897,2096.79530835 84.6856982544,2095.4806048 85.9332726326,2095.19233355 86.6599548139,2093.96995916 86.9891174365,2089.74841341 86.0558274943,2072.31262831 96.1376304679,2071.84594824 98.1784458853,2073.56062168 102.304066247,2073.80432371 119.533445467,2072.81126082 119.584241264,2077.68973882 119.814475792,2081.69442062 115.037819234,2082.07885164 109.378503862,2083.1924197 104.743653252,2085.66810213 102.466637662,2088.08682061 101.157726795,2090.87102563 112.756795357,2090.53867025 112.90730719,2093.25019394 112.98516679,2094.97675456 108.757392158,2095.32468891 100.365055479,2095.67284716 100.782914241,2107.74179179 101.991483615,2109.72822274 104.176943476,2110.85324038 119.086796483,2109.87886013 121.586846767,2173.67724864 120.915604337,2173.71494114 121.382813775,2179.82906683 121.584094063,2182.43939597 119.564936665,2182.5563626 119.797141217,2187.22927719 122.246970132,2187.11722795 122.360356142,2189.45562811 122.448110814,2191.20748382 " moovel_rot="-35.6" moovel_centroid="58.70493718826354,2142.66189056" moovel_centroidlatlon="-73.95232928977939,40.75231580347848"></polygon></g><g transform="translate(160.73593730000002 -1069.4082249) rotate(0)"><polygon id="241819963" class="tile" points="108.990457235,1201.0 109.024163336,1310.59698872 100.767241889,1311.56787804 100.159425213,1353.52331367 74.0802427024,1349.30086495 83.0268804938,1293.15296493 1.0,1279.87679719 4.0627911428,1255.62386764 3.23398120571,1244.13202576 56.524601287,1216.65724927 81.9095458705,1203.69848654 108.990457235,1201.0 " moovel_rot="2.7" moovel_centroid="68.23280994070929,1263.5064494337362" moovel_centroidlatlon="-74.17235415831459,40.62670715967431"></polygon></g><g transform="translate(-210.19833670000003 -1555.6514367) rotate(0)"><polygon id="235063428" class="tile" points="392.132758342,2038.67330466 392.207889616,2183.04994795 484.71794589,2181.64228838 483.379156806,2165.56221236 422.553033485,2166.87925699 421.053636347,2113.8911645 450.923780168,2113.54634736 450.688146306,2105.85689783 486.222727112,2106.29775754 486.148561187,2084.24798724 468.539935474,2077.04190077 430.548887907,2034.72219069 415.083694173,2032.88296231 414.925406726,2039.27361904 392.132758342,2038.67330466 " moovel_rot="39.4" moovel_centroid="427.231180033,2106.94028021" moovel_centroidlatlon="-73.91244738423546,40.60146993564701"></polygon></g><g transform="translate(98.60258940000001 -1504.1301991999999) rotate(0)"><polygon id="278749394" class="tile" points="48.566724612,1533.00815693 52.8506666476,1532.39741588 67.2236182673,1530.34483072 80.803013896,1528.40920776 85.3032762295,1527.76997868 88.1585041018,1527.52399575 89.1689906446,1527.56401577 90.0251714205,1527.85243509 90.9215618892,1528.35903303 91.5155515438,1528.84965323 91.8725557094,1529.32949594 92.1860704498,1530.41858043 92.4605156755,1531.25195494 92.6173232986,1532.05179221 92.7919854337,1533.18895815 92.9023523087,1534.18127443 92.9621469105,1534.78260279 99.424928127,1534.6057319 99.2820456291,1569.7303916 99.7464430923,1570.68366359 100.129832098,1571.11722921 100.576315922,1571.4268219 101.169674088,1571.62985057 101.938023159,1571.72586304 117.135296544,1571.42100532 117.395266914,1571.60021915 117.544501408,1571.82706273 117.644974452,1572.11721157 117.747277799,1584.78231373 117.511857388,1646.58357058 110.218805509,1646.85302599 107.851905282,1647.16202349 96.421928026,1648.65048666 92.7416123716,1649.12649334 85.7981475187,1650.11972795 82.1329113675,1651.43534936 70.6890882676,1655.5373872 67.2672070751,1657.16794793 56.8718931073,1662.11381625 53.4145800276,1664.4993595 51.2143126039,1666.00398358 50.4564674007,1663.81545721 50.2347222591,1662.48108769 50.1472481588,1661.14664194 45.9096556818,1661.05434081 45.6634009233,1648.60630355 45.6084699197,1537.4676666 49.1655327914,1537.5542668 49.391605646,1537.5131185 49.6859443376,1537.38334226 49.9125671243,1537.2213101 50.0330350576,1537.05890091 50.0720037593,1536.80401994 50.0927948141,1534.57791771 50.0226370016,1533.80377823 49.8183086781,1533.54030513 49.4940825382,1533.42047561 49.04647741,1533.25052874 48.566724612,1533.00815693 " moovel_rot="-19.1" moovel_centroid="78.2418462689,1596.12033129" moovel_centroidlatlon="-73.8286064570623,40.676623422297105"></polygon></g><g transform="translate(-305.029063 -897.2415052) rotate(0)"><polygon id="377606815" class="tile" points="469.511379153,1699.12682716 435.445108331,1698.60880141 435.728505732,1676.66374089 434.049497093,1676.49763128 434.219747813,1576.18956025 440.354002767,1570.07844253 440.357087576,1546.34816738 436.321179062,1537.46952493 435.892227517,1534.3783577 436.007606522,1527.68797152 483.073486825,1527.52399575 483.072148347,1680.061191 478.15820586,1680.21645822 478.308490439,1685.15015993 469.680352235,1685.56783268 469.511379153,1699.12682716 " moovel_rot="-81.4" moovel_centroid="458.844523272,1612.56296716" moovel_centroidlatlon="-73.94843922667955,40.69887118041451"></polygon></g><g transform="translate(-146.8883709 -569.6348651999999) rotate(0)"><polygon id="412097224" class="tile" points="354.852147092,1358.97300086 361.680839588,1358.89512727 403.515883503,1348.2219096 404.679390207,1345.99632655 405.369673972,1343.12389631 382.48496858,1243.22027996 384.095258759,1242.4492368 385.053589957,1246.78648885 401.902979082,1243.06138133 401.976282576,1239.05996034 405.386419651,1238.42341314 397.794682446,1203.92283348 394.687299072,1203.71525754 393.731980869,1201.0 354.746105699,1209.32647848 355.453805888,1214.14318738 350.552660137,1215.41717891 358.033794024,1249.65644203 329.872459537,1255.75078821 352.557732838,1357.57001556 354.852147092,1358.97300086 " moovel_rot="-62.4" moovel_centroid="370.550003119,1282.8290916602198" moovel_centroidlatlon="-73.88302922383687,40.647378347469406"></polygon></g><g transform="translate(115.22308 -565.2407012) rotate(0)"><polygon id="180332956" class="tile" points="54.3368661756,1479.12322363 126.49531125,1457.89455593 125.722131944,1358.97300086 54.3430514127,1360.41650067 54.3368661756,1479.12322363 " moovel_rot="-83.4" moovel_centroid="89.1446371058,1414.37964389" moovel_centroidlatlon="-73.80883129025123,40.65581769036857"></polygon></g><g transform="translate(-315.4596469 -1331.8427145) rotate(0)"><polygon id="328909458" class="tile" points="454.670701518,1365.18805215 454.73261642,1448.77207494 381.746665744,1448.57583801 381.670428904,1358.97300086 433.509959869,1359.11735361 433.520283233,1365.1307949 454.670701518,1365.18805215 " moovel_rot="57.6" moovel_centroid="417.690069734,1404.70074157" moovel_centroidlatlon="-74.22808708329627,40.548164798120794"></polygon></g><g transform="translate(-210.91013320000002 -552.4524659) rotate(0)"><polygon id="306796261" class="tile" points="308.014266471,1475.53620571 306.452701173,1464.810767 353.876145658,1358.97300086 364.822662407,1364.4144672 364.80705702,1485.03136845 338.798010297,1473.4566772 333.221238813,1487.10629957 308.014266471,1475.53620571 " moovel_rot="-25.6" moovel_centroid="343.072718607,1433.96288025" moovel_centroidlatlon="-73.90252739110704,40.6464064064449"></polygon></g><g transform="translate(-296.69420080000003 -711.7981794) rotate(0)"><polygon id="438253030" class="tile" points="560.039803535,1527.75384259 564.420535272,1528.86665761 564.988208149,1530.58270169 569.368939907,1531.69551631 565.680550274,1551.91599021 560.672217355,1586.23048656 559.144448693,1604.7314356 558.306248308,1625.3412088 558.013143781,1631.55647528 554.050843749,1693.45778404 557.621456496,1692.32405843 561.639503677,1679.00852035 577.564520261,1679.62755399 571.656374755,1701.68719451 554.548771746,1702.18252991 556.075513301,1763.81406059 549.104106556,1765.17450213 545.580486436,1729.29738374 544.361920841,1708.06310679 540.074513627,1688.38205464 540.091625033,1638.25132197 542.834957594,1607.72792117 550.897763687,1563.94112879 557.964426008,1527.52399575 560.039803535,1527.75384259 " moovel_rot="2.7" moovel_centroid="553.253308478,1644.94283199" moovel_centroidlatlon="-73.89229814352066,40.792754087898"></polygon></g><g transform="translate(-133.6249124 -860.7803849000001) rotate(0)"><polygon id="443136831" class="tile" points="325.165849228,1774.88006096 360.148938497,1909.68933989 373.131364101,1905.9503623 367.371759664,1855.03747678 373.285480487,1768.61026897 353.142245276,1765.17450213 325.165849228,1774.88006096 " moovel_rot="-30.6" moovel_centroid="354.510707955,1823.17381167" moovel_centroidlatlon="-74.162141896822,40.58339419407499"></polygon></g><g transform="translate(-210.4950116 -600.8648682) rotate(0)"><polygon id="299606222" class="tile" points="312.268520695,1650.77500781 311.072072923,1653.83525975 308.591626247,1651.08190235 306.21764457,1647.51873908 308.230205837,1647.14743354 309.338836616,1645.72267133 309.311775357,1644.43335897 305.559904384,1636.96480294 301.5264158,1638.46070705 294.778018558,1624.48311963 297.30963262,1623.17564259 297.900527969,1621.74755928 297.958831036,1620.30676277 296.948203615,1619.24116835 295.470411348,1618.73364914 292.254854293,1620.18559363 287.864814794,1610.12477955 292.82309608,1607.59361683 288.819425681,1598.18795365 308.210485209,1588.99283028 309.473809113,1591.23751712 311.003800647,1591.99138647 312.690602185,1591.67490668 314.243873997,1590.8789182 316.378519173,1589.34419353 316.961986329,1587.91141432 316.053006702,1586.17520283 312.271777291,1587.81477478 298.735980438,1559.13167509 287.828882291,1551.28826658 292.620517845,1545.23813657 295.872336086,1541.13037337 303.79813922,1527.52399575 314.857490676,1533.84376653 312.957747278,1537.80273542 313.168689577,1539.31101716 314.105041486,1540.32965655 315.250401178,1540.52429599 316.462007586,1540.12076145 318.796381584,1537.2504497 320.038535206,1538.32807671 321.660974343,1539.72512917 321.105388074,1547.95535905 322.308746781,1548.71609084 325.347772638,1547.24737069 329.267849761,1555.48602134 344.08134595,1586.6046392 325.068008213,1595.97533322 324.964063823,1597.12651398 323.509157739,1601.92773183 325.783887628,1600.82924838 334.67077596,1621.17643647 314.318038062,1630.98840559 320.624842947,1646.73342048 312.268520695,1650.77500781 " moovel_rot="-57.7" moovel_centroid="313.570101394,1587.83367998" moovel_centroidlatlon="-73.93049055318457,40.78973969617831"></polygon></g><g transform="translate(137.9895045 -799.3289007) rotate(0)"><polygon id="329778920" class="tile" points="0.354068030231,1784.01710855 0.0,1822.66351252 46.1156767057,1822.72497981 46.560199926,1851.18612292 58.1662010076,1851.12007606 58.1273333754,1765.39305834 22.9416049635,1765.17450213 23.4824534414,1783.41143986 0.354068030231,1784.01710855 " moovel_rot="80" moovel_centroid="33.85050255390218,1801.00529803" moovel_centroidlatlon="-73.81736123263416,40.7345695900988"></polygon></g><g transform="translate(-6.04368310000001 -1520.2300767) rotate(0)"><polygon id="284653428" class="tile" points="225.152729845,1584.7587216 225.329641823,1573.63718532 233.216397255,1573.66032 233.549398014,1573.10827054 233.630275364,1572.05956805 234.767860157,1528.19517294 280.978287487,1527.52399575 281.972982701,1560.01974542 286.786931727,1560.38520036 286.828882291,1587.99144821 284.774049234,1589.23726443 282.669626532,1589.45605346 281.295221089,1590.39688291 275.816778771,1589.99931964 275.160736007,1586.69593069 272.220675696,1584.67238377 270.345429835,1584.85714406 268.814979981,1588.56961956 242.097616431,1589.22031266 240.617283685,1587.18936469 240.09871121,1584.7320739 238.228360536,1584.01785642 236.435614839,1584.5773003 235.25808166,1585.59330796 225.152729845,1584.7587216 " moovel_rot="-69.1" moovel_centroid="258.366992723,1559.61112446" moovel_centroidlatlon="-73.77818906567698,40.73777170135553"></polygon></g><g transform="translate(62.045391799999976 -1810.4935706) rotate(0)"><polygon id="46421827" class="tile" points="145.594925777,2132.90499408 135.808680259,2131.13864124 124.448720331,2127.00026796 124.448110814,2034.3362093 142.50004778,2032.88296231 152.206339984,2046.5757673 159.235947074,2081.46451129 159.803381422,2120.378136 157.685926617,2127.03164711 145.594925777,2132.90499408 " moovel_rot="-34.1" moovel_centroid="140.755958762,2084.94169256" moovel_centroidlatlon="-73.94074149586942,40.77051415415206"></polygon></g><g transform="translate(-304.13797149999994 -716.4019436000001) rotate(0)"><polygon id="250365008" class="tile" points="567.641948254,1358.97300086 583.104615328,1358.98290633 582.986855455,1527.52399575 567.524156131,1527.51409259 567.533748738,1524.58042263 567.548411643,1521.10398838 567.51805736,1505.34305811 567.562323824,1477.24887823 567.593203096,1382.21937569 567.665027107,1367.51583396 567.653873852,1362.94305593 567.641948254,1358.97300086 " moovel_rot="-94.1" moovel_centroid="575.309908119,1443.23836117" moovel_centroidlatlon="-73.91244269337213,40.67501599272485"></polygon></g><g transform="translate(-45.8582667 -1004.5520806) rotate(0)"><polygon id="245186346" class="tile" points="164.863387177,2099.4479057 164.866538983,2094.34268692 160.803381422,2094.33399225 160.810357464,2037.04412439 165.675612532,2037.05961657 165.671933525,2032.88296231 178.120608393,2032.90669205 178.121267721,2037.27053266 182.776596867,2037.28022598 188.119231142,2037.29187881 188.118835214,2032.89232077 200.526494863,2032.91686949 200.527804855,2037.41497268 204.467917377,2037.42612117 204.457130111,2094.56330127 200.298837323,2094.55365423 200.298440351,2099.50741142 164.863387177,2099.4479057 " moovel_rot="11.2" moovel_centroid="182.645419247,2066.64564516" moovel_centroidlatlon="-73.86184453015684,40.66736750990921"></polygon></g><g transform="translate(-260.16589 -715.7505203999999) rotate(0)"><polygon id="356692853" class="tile" points="507.708953562,1854.37908048 496.003409953,1820.85947948 490.953644509,1821.70644939 487.989359943,1810.8200995 497.61979157,1808.97023087 502.77360108,1807.08380765 504.582007395,1803.05451173 507.648206691,1769.39326464 492.865185528,1768.01860406 490.571452617,1798.3803618 494.835220212,1801.03217168 493.123161707,1804.4460334 490.230327234,1805.5423719 485.689663221,1804.96377816 479.907716069,1792.0647208 485.219950534,1789.90939951 477.837928762,1766.6135921 462.397799416,1765.17450213 477.182705256,1804.769539 479.865053354,1805.89967486 486.152553249,1826.59281084 480.418751001,1828.8593948 476.134484798,1825.17994993 471.196387665,1824.08105459 468.293639979,1820.11816327 463.269647242,1821.59573535 450.402936316,1825.37644937 450.628362341,1829.48185763 447.880215638,1832.54010301 447.455151172,1835.39601311 447.262800124,1839.03888955 449.29147485,1843.83497145 451.574174269,1845.91899726 454.118445474,1847.26024972 481.45275906,1838.49080789 483.905042723,1833.53799309 488.101962351,1832.90090582 496.866361407,1858.10262426 499.4771888,1857.20384164 507.708953562,1854.37908048 " moovel_rot="19.4" moovel_centroid="482.430001385,1811.54329051" moovel_centroidlatlon="-74.251362711893,40.50227509781672"></polygon></g><g transform="translate(-145.3804831 -836.3704995) rotate(0)"><polygon id="336340388" class="tile" points="246.563804536,1255.29561525 248.765487881,1213.94385091 253.422061394,1206.00869225 259.267373719,1202.11933948 267.928889369,1201.0 284.188243723,1201.27441361 289.83757936,1202.81960759 295.101039341,1208.47719065 295.704840378,1215.2882394 295.708501235,1259.38528031 246.563804536,1255.29561525 " moovel_rot="28.7" moovel_centroid="272.269254923,1230.4455392610334" moovel_centroidlatlon="-73.88532329033373,40.56803350816727"></polygon></g><g transform="translate(-234.37525100000002 -978.1344141) rotate(0)"><polygon id="277980027" class="tile" points="330.833170412,2033.92571658 323.493013849,2033.66800205 301.267285654,2032.88296231 300.865688566,2094.9978403 324.677083803,2095.73405179 348.634253806,2096.01452208 348.616107278,2081.98422254 336.907279411,2058.50362542 330.996340318,2046.63830696 330.833170412,2033.92571658 " moovel_rot="62.0" moovel_centroid="321.12905702,2067.73370886" moovel_centroidlatlon="-73.99818788697662,40.76364488074817"></polygon></g><g transform="translate(23.013642799999985 -665.2781559) rotate(0)"><polygon id="295447852" class="tile" points="96.1219751578,1837.10598932 96.2815838385,1770.69121339 96.2864772059,1765.17450213 111.283214755,1765.24942687 111.184626367,1785.07804185 132.470388053,1785.1890707 132.489076961,1794.53902856 132.557802172,1837.15787325 114.960249536,1837.16343419 114.745840143,1819.53606241 107.702883549,1819.77418866 107.896157512,1836.99948665 103.741954417,1837.14871351 96.1219751578,1837.10598932 " moovel_rot="23.6" moovel_centroid="113.000216141,1804.93338268" moovel_centroidlatlon="-73.95049987775047,40.72953924787175"></polygon></g><g transform="translate(-150.7521402 -237.11101200000007) rotate(0)"><polygon id="220772347" class="tile" points="239.04535225,1431.60850355 260.053568885,1434.52350183 260.131170546,1360.06950841 217.125668547,1358.97300086 216.86329231,1382.59526405 218.682208325,1382.88655165 247.522016399,1387.51953501 239.04535225,1431.60850355 " moovel_rot="-78.2" moovel_centroid="244.183430279,1388.72575156" moovel_centroidlatlon="-73.960116399997,40.59475658168801"></polygon></g><g transform="translate(-258.6937801 -971.4934707) rotate(0)"><polygon id="285933030" class="tile" points="431.878013122,1527.52399575 433.049497093,1550.69393796 431.451849475,1551.89411271 431.160380808,1559.99445182 432.725326468,1560.02994729 433.033829815,1575.60324811 429.877971958,1577.42735591 430.453392308,1596.80445045 404.157239086,1594.98642799 403.150675229,1572.97937685 403.609087955,1556.37666338 403.1601541,1527.73635931 431.878013122,1527.52399575 " moovel_rot="71.6" moovel_centroid="417.705954013,1561.17360194" moovel_centroidlatlon="-73.83740013202357,40.67135862259238"></polygon></g><g transform="translate(-309.279574 -330.5842344) rotate(0)"><polygon id="329778919" class="tile" points="488.093303038,1358.97300086 472.904175689,1359.15965674 472.874988602,1428.78189973 474.991597177,1490.2889927 480.162326767,1489.70186695 479.60728374,1428.28016596 488.998608087,1427.71990488 488.093303038,1358.97300086 " moovel_rot="80.8" moovel_centroid="479.73674637,1410.15700561" moovel_centroidlatlon="-73.81881473765353,40.734309254855575"></polygon></g><g transform="translate(-468.4614242 -574.4452659) rotate(0)"><polygon id="355903269" class="tile" points="557.453622957,1235.50186 572.867619588,1250.58929374 572.32245517,1251.24534817 583.821387223,1262.53492946 588.38415714,1262.80031534 588.347449596,1201.0 577.862151792,1201.08539333 554.010418437,1225.47985516 556.913691045,1228.40962028 554.805988642,1230.65740563 558.633758028,1234.42174144 557.453622957,1235.50186 " moovel_rot="21.0" moovel_centroid="575.864702912,1229.761683610583" moovel_centroidlatlon="-73.86039825790309,40.73752556692671"></polygon></g><g transform="translate(-339.13791560000004 -1549.1348601) rotate(0)"><polygon id="185148208" class="tile" points="513.414865186,2032.92451454 506.267929438,2032.91222465 487.251690694,2032.88296231 487.222727112,2081.4679166 495.213504858,2081.48525423 507.272971668,2081.49588649 513.385896712,2081.50950081 513.414865186,2032.92451454 " moovel_rot="8.7" moovel_centroid="500.318539975,2057.19619914" moovel_centroidlatlon="-73.93860355384834,40.590089449826245"></polygon></g><g transform="translate(-65.39509289999998 -897.5423604999999) rotate(0)"><polygon id="231847175" class="tile" points="246.70658437,2033.36749758 256.467104266,2032.88296231 256.976223269,2092.50386285 234.030617021,2093.6232473 234.031821685,2088.35990927 246.70658437,2033.36749758 " moovel_rot="-22.6" moovel_centroid="247.810196593,2067.27599123" moovel_centroidlatlon="-73.92831994294006,40.775904175882246"></polygon></g><g transform="translate(-61.69135859999997 -897.1632777000002) rotate(0)"><polygon id="253908601" class="tile" points="271.572999597,2070.96153892 271.373638179,2073.6162554 279.570331961,2073.9035371 286.238943243,2074.12740854 286.572547948,2037.5158997 284.54227157,2037.47767301 284.385721113,2033.05120623 273.759182839,2032.88296231 257.976223269,2033.07969223 258.058914261,2042.67981059 257.99931525,2060.12320241 258.773137358,2060.12267636 271.608766117,2060.16241723 271.600691905,2062.19887371 273.866942462,2062.2084649 273.845863731,2066.74092689 271.588269696,2066.73276878 271.572999597,2070.96153892 " moovel_rot="-80.6" moovel_centroid="273.547114554,2050.79614625" moovel_centroidlatlon="-73.94093381216561,40.68532533959423"></polygon></g><g transform="translate(-188.48069030000002 -1552.3545886) rotate(0)"><polygon id="222912945" class="tile" points="253.823364882,1765.55110167 261.523502098,1765.17450213 262.35184611,1856.89510268 253.753580961,1857.02139327 253.823364882,1765.55110167 " moovel_rot="-92.8" moovel_centroid="257.868613455,1812.00061521" moovel_centroidlatlon="-73.94565416672106,40.58370628027558"></polygon></g><g transform="translate(123.47343600000002 -289.2933433999999) rotate(0)"><polygon id="184999244" class="tile" points="127.49531125,1358.97300086 139.894502463,1374.560879 146.653529492,1386.66290927 142.693516066,1409.59336377 139.578137529,1424.82040514 136.042573755,1423.51202962 127.650434053,1423.16693906 127.512929762,1412.93768662 127.49531125,1358.97300086 " moovel_rot="-70.2" moovel_centroid="135.143132337,1395.01182932" moovel_centroidlatlon="-73.94888968534778,40.630916373363206"></polygon></g><g transform="translate(4.846616800000021 -1120.9891426000002) rotate(0)"><polygon id="181275815" class="tile" points="216.379452026,1201.0 231.114474747,1220.3491254 245.563804536,1239.33334828 216.38907186,1260.8443985 216.379452026,1201.0 " moovel_rot="-86.6" moovel_centroid="226.111200741,1233.7247479291418" moovel_centroidlatlon="-73.90825934892975,40.61987862930861"></polygon></g><g transform="translate(-312.56289060000006 -277.52899209999987) rotate(0)"><polygon id="253908681" class="tile" points="492.60710589,1238.3507673 495.745715833,1238.34487936 495.732277405,1201.0 471.460989769,1201.03390718 471.465791211,1238.37738765 492.60710589,1238.3507673 " moovel_rot="-80.8" moovel_centroid="483.601338073,1219.690571995557" moovel_centroidlatlon="-73.94576277228592,40.68653172058169"></polygon></g><g transform="translate(56.84107470000001 -219.8388955999999) rotate(0)"><polygon id="185632362" class="tile" points="178.102931578,1416.78324627 184.45113258,1416.80188964 200.709648274,1416.85233879 200.674577891,1358.97300086 195.317888035,1359.14165147 195.603023458,1387.79665711 177.944493659,1387.90313267 178.102931578,1416.78324627 " moovel_rot="39.8" moovel_centroid="190.992144252,1396.91846878" moovel_centroidlatlon="-73.92746521691168,40.61371126469809"></polygon></g><g transform="translate(-206.92543259999997 -755.4287108) rotate(0)"><polygon id="347320347" class="tile" points="461.507325897,1201.0 470.460989769,1209.67876137 465.16270637,1215.84845942 456.039990534,1226.08754815 458.528062916,1228.1878124 449.321853478,1239.09321765 470.421762576,1257.21476237 466.748493407,1266.03975733 457.390619545,1255.52599269 454.205510325,1257.11757943 438.246293408,1227.4943837 461.507325897,1201.0 " moovel_rot="-41.1" moovel_centroid="454.97888158,1230.5851738098295" moovel_centroidlatlon="-73.96337003839005,40.648258304378025"></polygon></g><g transform="translate(-247.9929159 -1301.3808661) rotate(0)"><polygon id="185148213" class="tile" points="516.080099305,1818.66209439 528.27661377,1818.7436209 528.282803243,1790.83253497 528.286620315,1765.17450213 513.804259231,1765.42777101 509.221903369,1786.68818486 508.708953562,1794.32488992 516.443241388,1794.39258443 516.080099305,1818.66209439 " moovel_rot="9.1" moovel_centroid="520.516987403,1790.11251839" moovel_centroidlatlon="-73.93216951065018,40.58353539484366"></polygon></g><g transform="translate(-94.1696424 -209.6346744) rotate(0)"><polygon id="252080324" class="tile" points="147.653529492,1409.72658338 176.944493659,1384.1448756 157.786859903,1358.97300086 147.6718323,1367.98171312 147.653529492,1409.72658338 " moovel_rot="-45.7" moovel_centroid="158.298098075,1382.90282135" moovel_centroidlatlon="-73.91045656926717,40.673283513210535"></polygon></g><g transform="translate(-443.09784260000004 -200.6168783999999) rotate(0)"><polygon id="220953323" class="tile" points="497.000575613,1201.10563672 496.745715833,1250.24998826 516.076583391,1250.41944371 516.066327387,1244.08737635 512.393817023,1244.04633932 512.706744325,1201.0 497.000575613,1201.10563672 " moovel_rot="47.5" moovel_centroid="504.987517538,1226.295597583769" moovel_centroidlatlon="-73.91207465450125,40.78017263637776"></polygon></g><g transform="translate(105.79038369999998 -54.15142700000001) rotate(0)"><polygon id="305213058" class="tile" points="171.949445865,1201.0 156.81748842,1202.77343549 156.756809806,1254.16348974 172.454947534,1252.61816471 171.949445865,1201.0 " moovel_rot="-41.4" moovel_centroid="164.502558328,1227.7952908544394" moovel_centroidlatlon="-73.8867123362406,40.878651156453024"></polygon></g><g transform="translate(-94.60064649999998 -1037.6847751999999) rotate(0)"><polygon id="238397011" class="tile" points="358.954645924,2088.5649876 373.564916926,2083.8342619 373.5877762,2033.04322886 358.888037403,2032.88296231 358.954645924,2088.5649876 " moovel_rot="-33.5" moovel_centroid="366.136320634,2059.57243112" moovel_centroidlatlon="-73.94830495610705,40.750200141837674"></polygon></g><g transform="translate(-170.5739262 -263.62425410000014) rotate(0)"><polygon id="298611913" class="tile" points="296.708501235,1222.13855261 296.739193069,1201.0 322.29633406,1201.19765273 322.270233365,1238.22369948 311.046176489,1237.94454261 305.584063928,1237.81278871 305.237370208,1225.39430695 305.245380894,1222.83636295 305.315250613,1222.03993558 296.708501235,1222.13855261 " moovel_rot="47.6" moovel_centroid="310.947375108,1217.7499195048322" moovel_centroidlatlon="-73.91586337109455,40.771420566537635"></polygon></g><g transform="translate(-46.39891399999999 -1202.0684283) rotate(0)"><polygon id="261699298" class="tile" points="265.018730031,1799.41572489 263.361942579,1799.41780003 263.353191953,1786.72787239 263.35184611,1777.09766976 268.848906401,1777.10690835 268.83826214,1765.17450213 287.21250445,1765.18775477 287.211939866,1769.26256422 287.238127529,1795.49114297 287.234809741,1799.43168204 265.018730031,1799.41572489 " moovel_rot="10.3" moovel_centroid="276.090318364,1783.27646885" moovel_centroidlatlon="-73.87698871331929,40.67682836691598"></polygon></g><g transform="translate(-128.75599850000003 -1469.9835927) rotate(0)"><polygon id="383830157" class="tile" points="374.5877762,2075.48539997 391.132758342,2075.11687646 391.092055654,2032.88296231 383.097057497,2033.11966997 374.609062865,2033.37797673 374.5877762,2075.48539997 " moovel_rot="-67.7" moovel_centroid="382.859599914,2054.22803156" moovel_centroidlatlon="-73.84796394569861,40.750470703027325"></polygon></g><g transform="translate(249.81927199999998 -1283.8297695) rotate(0)"><polygon id="219682491" class="tile" points="8.87448274288,1359.34887239 8.46958045028,1385.22131288 8.33800210319,1389.2163026 0.0,1389.03947116 1.5072488822,1395.48335543 26.068968741,1394.77467423 26.0540224878,1358.97300086 8.87448274288,1359.34887239 " moovel_rot="8.7" moovel_centroid="16.415189681628174,1378.25258998" moovel_centroidlatlon="-73.95309698959613,40.58993484068964"></polygon></g><g transform="translate(-9.334925800000008 -1100.0620081) rotate(0)"><polygon id="252080092" class="tile" points="141.821687451,1567.14373953 141.823266219,1527.5258936 152.917542707,1527.52399575 152.916542014,1530.3821796 157.583225276,1530.3812385 157.584255202,1563.42965325 157.582646692,1567.14089329 141.821687451,1567.14373953 " moovel_rot="-4.0" moovel_centroid="149.582011771,1547.73507626" moovel_centroidlatlon="-73.9134610258706,40.67538222859815"></polygon></g><g transform="translate(-22.310135599999967 -1123.494814) rotate(0)"><polygon id="244768464" class="tile" points="291.553172063,2033.03182976 299.859476693,2034.29578255 299.865688566,2082.85124902 293.735501004,2080.62244978 291.828833365,2085.80646408 289.202598829,2085.77803524 287.572547948,2063.11296437 288.166330571,2049.5345469 289.191439955,2032.88296231 291.553172063,2033.03182976 " moovel_rot="-1.3" moovel_centroid="293.96826691,2058.42398885" moovel_centroidlatlon="-73.91986837573758,40.88299001818222"></polygon></g><g transform="translate(-340.06598039999994 -563.1050680999999) rotate(0)"><polygon id="448157976" class="tile" points="538.1340573,1201.0 523.112689999,1201.05773019 523.109972463,1240.90353833 538.239995183,1240.8748267 538.1340573,1201.0 " moovel_rot="59.5" moovel_centroid="530.650134138,1220.9829533068298" moovel_centroidlatlon="-73.78224178393815,40.66127304585768"></polygon></g><g transform="translate(-305.3142415 -302.14686340000003) rotate(0)"><polygon id="335920880" class="tile" points="489.998608087,1359.0033864 504.885282183,1358.97300086 504.914312401,1398.87668949 490.028476401,1398.90044864 489.998608087,1359.0033864 " moovel_rot="-82.9" moovel_centroid="497.456875599,1378.93819268" moovel_centroidlatlon="-73.94655897185758,40.73358784793484"></polygon></g><g transform="translate(-343.4806103 -918.8184712) rotate(0)"><polygon id="370626651" class="tile" points="553.543505006,1385.80500015 530.154425688,1385.70323265 530.214973303,1358.98266726 546.270081773,1358.97300086 549.009319137,1363.30762235 553.515058713,1363.13364956 553.543505006,1385.80500015 " moovel_rot="-18.5" moovel_centroid="541.503080869,1372.85207039" moovel_centroidlatlon="-73.90162101767682,40.750281061203694"></polygon></g><g transform="translate(-247.4424082 -705.5403302000002) rotate(0)"><polygon id="450358502" class="tile" points="308.292987763,1765.28159883 303.28456683,1765.17450213 288.238127529,1789.2460475 296.659101727,1793.68599495 288.243831584,1808.54850573 293.910794198,1811.24806659 303.612924014,1795.92324007 309.105716181,1795.86068986 308.292987763,1765.28159883 " moovel_rot="11.5" moovel_centroid="300.137827771,1786.97889831" moovel_centroidlatlon="-73.98657068254452,40.5826178403118"></polygon></g><g transform="translate(0.44291880000000106 -1350.6552019) rotate(0)"><polygon id="292846305" class="tile" points="202.573625151,1406.1279904 213.048789162,1406.694907 213.059730005,1386.53690122 215.821571417,1386.53697332 215.859974633,1382.03197891 215.86329231,1377.54634973 211.301310488,1377.54694994 211.3053237,1359.22833215 201.719316923,1358.97300086 201.709648274,1378.31790596 202.585810018,1378.31572098 202.573625151,1406.1279904 " moovel_rot="-28.9" moovel_centroid="207.6881577,1383.18199075" moovel_centroidlatlon="-73.99091913239788,40.74256680687942"></polygon></g><g transform="translate(-332.65612840000006 -1406.3435762) rotate(0)"><polygon id="252079923" class="tile" points="389.757688643,1529.83972653 379.759653281,1529.83177294 379.760918631,1527.52871935 374.625554015,1527.52399575 374.621102979,1560.34827818 378.982641269,1560.35219859 378.979897671,1564.69722804 389.751765446,1564.70598441 389.757688643,1529.83972653 " moovel_rot="-93.9" moovel_centroid="382.271414287,1546.2887369" moovel_centroidlatlon="-73.9132937795683,40.673626593538486"></polygon></g><g transform="translate(-299.83443009999996 -1079.158295) rotate(0)"><polygon id="288447166" class="tile" points="406.502614732,1201.0 406.386419651,1224.2190268 420.147747076,1224.28216929 429.180956157,1224.32326958 429.149549287,1201.10943058 406.502614732,1201.0 " moovel_rot="61.1" moovel_centroid="417.804385804,1212.6755496906699" moovel_centroidlatlon="-73.98737468821054,40.763069100580246"></polygon></g><g transform="translate(53.27373890000001 -912.0838356) rotate(0)"><polygon id="252080546" class="tile" points="191.6995457,1225.0744863 193.82409091,1225.0769073 193.82667258,1201.02032864 173.465647875,1201.0 173.454947534,1216.13359593 173.456411041,1225.05601284 177.839350054,1225.06329541 191.6995457,1225.0744863 " moovel_rot="4.8" moovel_centroid="183.641868972,1213.0396667040243" moovel_centroidlatlon="-73.93539519324845,40.64151578333024"></polygon></g><g transform="translate(4.813436800000034 -1078.2409462) rotate(0)"><polygon id="448339844" class="tile" points="275.03950984,1359.03025115 275.002121125,1392.10035543 261.16004805,1392.05146689 261.131170546,1358.97300086 275.03950984,1359.03025115 " moovel_rot="7.2" moovel_centroid="268.082930621,1375.52560408" moovel_centroidlatlon="-73.88770367889278,40.754027948295786"></polygon></g><g transform="translate(-314.2558072 -1594.5999338) rotate(0)"><polygon id="442637494" class="tile" points="549.958179679,2032.88296231 549.976233759,2051.76965066 540.303716413,2051.78622152 540.309889936,2056.51152996 529.312387409,2056.53250293 529.296828164,2032.92184808 549.958179679,2032.88296231 " moovel_rot="-81.2" moovel_centroid="539.068147645,2043.73370555" moovel_centroidlatlon="-73.90435198762549,40.75414112756362"></polygon></g><g transform="translate(105.9154924 -1523.0422911) rotate(0)"><polygon id="376424333" class="tile" points="18.494155247,1551.3474791 36.6294821996,1551.33112563 36.6377658781,1527.52399575 18.5033697676,1527.53373523 18.494155247,1551.3474791 " moovel_rot="-81.9" moovel_centroid="27.5657734905,1539.43418581" moovel_centroidlatlon="-73.89567207741219,40.7512799545656"></polygon></g><g transform="translate(-397.77712990000003 -592.7305578) rotate(0)"><polygon id="292846307" class="tile" points="429.066557496,1788.85236426 429.062719727,1765.17674146 440.595970666,1765.18017104 446.167586895,1765.17450213 446.26023608,1767.6837172 446.262800124,1788.84964793 429.066557496,1788.85236426 " moovel_rot="-29.0" moovel_centroid="437.660437418,1777.01756034" moovel_centroidlatlon="-73.99363796209639,40.74841161940759"></polygon></g><g transform="translate(-44.94412249999999 -709.4361804999999) rotate(0)"><polygon id="231965397" class="tile" points="310.105716181,1765.17450213 324.165849228,1765.34820847 323.525026911,1792.81926906 313.948189512,1794.7240189 310.113701995,1771.04594224 310.105716181,1765.17450213 " moovel_rot="-35.3" moovel_centroid="317.5994185,1778.59510978" moovel_centroidlatlon="-73.93602454361628,40.766162625285375"></polygon></g><g transform="translate(-470.6808052 -237.20048159999988) rotate(0)"><polygon id="243544148" class="tile" points="539.244271806,1201.0 539.239995183,1209.17314327 539.667600291,1217.54614026 539.795482183,1227.0720284 546.424674138,1226.96642138 552.996209269,1227.12350871 553.010418437,1203.03352423 542.398081458,1201.52409757 539.244271806,1201.0 " moovel_rot="-26.0" moovel_centroid="546.157954298,1214.4192860647918" moovel_centroidlatlon="-73.9351634390862,40.765992303871165"></polygon></g><g transform="translate(-408.3748759 -347.7756563999999) rotate(0)"><polygon id="232491727" class="tile" points="539.074513627,1529.73878591 522.694720376,1527.52399575 522.717884628,1546.0265533 538.950422158,1547.79022247 539.074513627,1529.73878591 " moovel_rot="69.8" moovel_centroid="530.827230239,1537.75209588" moovel_centroidlatlon="-73.91245814123495,40.83825162671196"></polygon></g><g transform="translate(8.394451500000002 -1186.6616717) rotate(0)"><polygon id="246964631" class="tile" points="140.821687451,1527.57509117 140.820183179,1546.59757846 126.070841937,1546.54647299 126.072328227,1527.52399575 140.821687451,1527.57509117 " moovel_rot="60.8" moovel_centroid="133.446260852,1537.06078266" moovel_centroidlatlon="-73.9644108,40.800585100000006"></polygon></g><g transform="translate(-65.6459449 -1444.7391243999998) rotate(0)"><polygon id="286009239" class="tile" points="124.055590114,1527.52399575 118.751087979,1527.72150088 118.747277799,1563.23456509 125.070841937,1562.9551435 124.055590114,1527.52399575 " moovel_rot="30.0" moovel_centroid="121.663042679,1545.87723259" moovel_centroidlatlon="-73.85204343028401,40.84466798414328"></polygon></g><g transform="translate(-322.3856748 -1752.357209) rotate(0)"><polygon id="299669478" class="tile" points="383.612696811,1765.17450213 378.629770655,1765.34186026 374.285480487,1765.80779277 374.91033872,1770.92990899 376.15519466,1793.47547044 383.386500009,1792.98394476 383.596756596,1779.45074496 381.274134395,1779.48799864 381.242147074,1775.47906606 383.574316427,1775.45657002 383.612696811,1765.17450213 " moovel_rot="-32.9" moovel_centroid="379.307176284,1778.82569912" moovel_centroidlatlon="-73.92991444007086,40.78958168521333"></polygon></g><g transform="translate(-287.1649749 -1079.1895344) rotate(0)"><polygon id="299854201" class="tile" points="464.486544368,1388.48210023 460.181417676,1395.68127317 459.426807078,1393.52122141 457.664394652,1387.84316834 455.73261642,1374.92962093 456.168484426,1368.43331411 457.413669172,1361.77391704 464.506940338,1358.97300086 463.681893407,1362.29562937 462.954013826,1366.18530076 462.563223447,1369.84015147 462.607765979,1374.36090366 462.821567887,1379.68998402 464.486544368,1388.48210023 " moovel_rot="29.1" moovel_centroid="460.041324275,1376.39309478" moovel_centroidlatlon="-73.91546487707988,40.79353649306107"></polygon></g><g transform="translate(-332.8267353 -1131.8610313) rotate(0)"><polygon id="326405377" class="tile" points="566.514275142,1372.64472661 566.51805736,1358.97300086 558.81759886,1359.52317019 558.986569715,1363.51136743 556.127972137,1363.45483566 556.452953549,1367.13818352 554.543505006,1367.28390852 556.631241622,1390.25398697 560.117964875,1390.29633651 559.376404395,1372.70013307 562.946901713,1372.6296422 566.514275142,1372.64472661 " moovel_rot="-57.0" moovel_centroid="560.151867172,1371.50628983" moovel_centroidlatlon="-73.88563018617451,40.86385299831064"></polygon></g><g transform="translate(-384.31782860000004 -611.5985705) rotate(0)"><polygon id="448157972" class="tile" points="522.102379868,1201.23295809 517.096431234,1201.0 517.076583391,1237.04951711 522.109972463,1236.563892 522.102379868,1201.23295809 " moovel_rot="58.9" moovel_centroid="519.587924895,1218.97798916767" moovel_centroidlatlon="-73.77827585478849,40.660091446217"></polygon></g><g transform="translate(22.1773345 -1034.3408405999999) rotate(0)"><polygon id="185632785" class="tile" points="135.246393418,1204.67824448 135.174182781,1202.98404989 135.178909117,1201.0 126.456073239,1201.03019011 126.459879451,1208.69973678 126.504281917,1225.22351856 135.191736441,1225.15234314 135.212008832,1215.42353843 135.231513029,1210.05853907 135.246393418,1204.67824448 " moovel_rot="39.9" moovel_centroid="130.842512506,1213.084769407217" moovel_centroidlatlon="-73.93177864862014,40.617428792981485"></polygon></g><g transform="translate(35.73373000000001 -434.5468213999999) rotate(0)"><polygon id="240073954" class="tile" points="155.756809806,1224.27852808 147.322418804,1224.31118866 147.309500977,1201.03264815 152.210000283,1201.01263637 155.743898781,1201.0 155.756809806,1224.27852808 " moovel_rot="-28.7" moovel_centroid="151.533161672,1212.6553289488324" moovel_centroidlatlon="-73.99280019805987,40.738411802577886"></polygon></g><g transform="translate(-230.13008420000003 -182.12646010000003) rotate(0)"><polygon id="201148568" class="tile" points="365.849400259,1378.54250989 365.822662407,1358.97300086 380.670428904,1359.22741325 380.577826313,1364.20018121 376.863731529,1364.13618682 376.756585964,1370.02276841 371.178006384,1369.91863665 371.024037743,1378.41709589 368.86699888,1378.46635235 365.849400259,1378.54250989 " moovel_rot="-79.7" moovel_centroid="371.380558474,1366.58284217" moovel_centroidlatlon="-73.83756181933437,40.65156972878903"></polygon></g><g transform="translate(-148.50597839999998 -1030.5440601999999) rotate(0)"><polygon id="331933006" class="tile" points="351.246788885,2058.05210921 349.634253806,2033.72636403 357.888037403,2032.88296231 357.370134575,2046.83143024 357.859321463,2057.92211717 351.246788885,2058.05210921 " moovel_rot="-18.7" moovel_centroid="354.03196875,2045.16082671" moovel_centroidlatlon="-73.87362662118665,40.85809095385598"></polygon></g><g transform="translate(-448.19146880000005 -2024.8259197999998) rotate(0)"><polygon id="374848394" class="tile" points="528.274958479,2046.93241114 528.296828164,2032.88296231 515.990628906,2032.9106012 514.414865186,2032.91825279 514.441257612,2038.36596064 514.425575327,2046.95625435 528.274958479,2046.93241114 " moovel_rot="-34.1" moovel_centroid="521.35931733,2039.91921239" moovel_centroidlatlon="-73.98264847003591,40.661997415729246"></polygon></g><g transform="translate(-335.7878899 -1206.0775801) rotate(0)"><polygon id="275739630" class="tile" points="521.694720376,1533.57053595 521.685030748,1527.52399575 508.331449739,1527.57462109 508.338921717,1530.85540799 508.358139201,1550.60899061 511.360321549,1550.5995677 511.345656866,1533.60548071 521.694720376,1533.57053595 " moovel_rot="-69.6" moovel_centroid="513.014429913,1535.04003298" moovel_centroidlatlon="-73.84827122196403,40.75368879865579"></polygon></g><g transform="translate(-102.46285899999998 -191.0123564999999) rotate(0)"><polygon id="223868484" class="tile" points="299.022924067,1383.49382243 304.993466655,1383.43347576 305.452701173,1359.03055799 299.007023719,1358.97300086 299.022924067,1383.49382243 " moovel_rot="8.8" moovel_centroid="302.117950049,1371.07634884" moovel_centroidlatlon="-73.96560994911695,40.62585638585101"></polygon></g><g transform="translate(-493.47414130000004 -1522.7628944) rotate(0)"><polygon id="273613777" class="tile" points="579.478652413,1544.61739975 579.639730244,1540.07604305 578.564520261,1539.99986911 578.659699833,1536.16751085 578.879478825,1527.52399575 581.774449402,1529.69368061 591.911110126,1537.46866174 591.909464059,1544.98378996 579.478652413,1544.61739975 " moovel_rot="-7.7" moovel_centroid="584.582061965,1538.19125111" moovel_centroidlatlon="-73.93386749004425,40.7451739279169"></polygon></g><g transform="translate(-170.1543333 -1033.464711) rotate(0)"><polygon id="336165034" class="tile" points="205.467917377,2032.92378652 215.926813953,2032.88296231 215.938221171,2047.67633361 205.47533854,2047.70933475 205.467917377,2032.92378652 " moovel_rot="-27.0" moovel_centroid="210.702535005,2040.2985717" moovel_centroidlatlon="-73.93858639700693,40.810942717866624"></polygon></g><g transform="translate(117.59908309999999 -349.0647727999999) rotate(0)"><polygon id="220792594" class="tile" points="44.6084699197,1528.94271771 44.5826622024,1548.36354762 37.9551635809,1549.07927331 37.6377658781,1532.44949158 38.6685725788,1527.52399575 44.6084699197,1528.94271771 " moovel_rot="63.0" moovel_centroid="41.1712341069,1538.49487142" moovel_centroidlatlon="-73.9346973367478,40.78363489529273"></polygon></g><g transform="translate(-287.3670975 -1518.2525769) rotate(0)"><polygon id="185193603" class="tile" points="402.142127916,1539.99457124 390.86943737,1540.48935352 390.757688643,1527.59421279 402.150675229,1527.52399575 402.142127916,1539.99457124 " moovel_rot="39.0" moovel_centroid="396.448102856,1533.89027024" moovel_centroidlatlon="-73.91252066763023,40.635608337132666"></polygon></g><g transform="translate(3.0420696999999848 -100.19012340000018) rotate(0)"><polygon id="235746843" class="tile" points="136.250662495,1201.0 136.246393418,1215.01647657 146.309500977,1215.03646773 146.308834607,1201.01013728 136.250662495,1201.0 " moovel_rot="10.7" moovel_centroid="141.279436555,1208.01634463022" moovel_centroidlatlon="-73.90826111474685,40.592728769805944"></polygon></g><g transform="translate(-269.9902427 -97.17180940000003) rotate(0)"><polygon id="381503668" class="tile" points="328.872459537,1201.02747815 326.170468255,1201.01069559 323.302199264,1201.0 323.29633406,1220.30914725 328.844790167,1220.33319404 328.847942582,1207.59485388 328.872459537,1201.02747815 " moovel_rot="61.7" moovel_centroid="326.075098756,1210.6616502397526" moovel_centroidlatlon="-73.98218525379976,40.743468942758895"></polygon></g><g transform="translate(-396.20624840000005 -1135.9757343) rotate(0)"><polygon id="322783831" class="tile" points="491.105172554,1543.30370266 486.742765689,1543.29313731 484.073486825,1543.28128533 484.116200806,1527.52399575 487.816986423,1527.53904321 491.093752366,1527.54766319 491.105172554,1543.30370266 " moovel_rot="8.0" moovel_centroid="487.597053089,1535.42576869" moovel_centroidlatlon="-73.96322702729934,40.6888194438478"></polygon></g><g transform="translate(-317.9600761 -1352.3490129000002) rotate(0)"><polygon id="322783829" class="tile" points="465.506940338,1375.24373152 469.463541071,1375.24949844 471.874988602,1375.24614027 471.862759008,1362.04278239 471.862313188,1358.97300086 469.295041117,1358.97968794 465.51408195,1358.97355642 465.506940338,1375.24373152 " moovel_rot="8.5" moovel_centroid="468.689186213,1367.11627546" moovel_centroidlatlon="-73.96205626498231,40.688952868539275"></polygon></g><g transform="translate(-375.1636887 -222.29126869999993) rotate(0)"><polygon id="323019639" class="tile" points="430.194430182,1202.59540621 434.815400645,1201.37104024 436.516055445,1201.0 437.246293408,1216.4358911 430.180956157,1217.8155497 430.876801433,1215.01352871 430.194430182,1202.59540621 " moovel_rot="36.1" moovel_centroid="433.720733519,1209.4650782777207" moovel_centroidlatlon="-73.88343384159373,40.85031551698175"></polygon></g><g transform="translate(-261.0413516 -1215.0247536) rotate(0)"><polygon id="220953312" class="tile" points="293.461828193,1358.97300086 298.00438741,1358.99459261 298.007023719,1363.86149498 293.464465854,1363.8399019 293.461828193,1358.97300086 " moovel_rot="45.5" moovel_centroid="295.734426398,1361.41724747" moovel_centroidlatlon="-73.91826275000001,40.78296685"></polygon></g><g transform="translate(-17.5096748 -607.2476498000001) rotate(0)"><polygon id="163806018" class="tile" points="60.1662010076,1774.6832303 61.5787752625,1774.69229477 61.5780574698,1765.18215467 60.172011444,1765.17450213 60.1662010076,1774.6832303 " moovel_rot="12.2" moovel_centroid="60.8737772722,1769.93671659" moovel_centroidlatlon="-73.99810986315092,40.71004555915749"></polygon></g></g><g transform="translate(0 1327.7)"><polygon id="2" class="bin" points="-1.875,0.0 0.77665042945,1.09834957055 1.875,3.75 1.875,1203.749999 0.77665042945,1206.40164943 -1.875,1207.499999 -281.366712283,1207.499999 -283.993180604,1206.42659463 -285.116042217,1203.82088655 -284.092478687,1201.1745966 -256.595773967,1172.07250598 -256.202439005,1171.61793581 -230.392396027,1139.01091445 -229.222999839,1134.5841441 -231.671904985,1130.71546904 -251.077797989,1117.57669172 -252.666608259,1115.13289919 -252.025223723,1112.28947417 -250.177750569,1109.70721629 -249.163778817,1105.52463854 -251.333965249,1101.80813666 -256.74901761,1097.61333738 -258.155641318,1095.23983208 -257.557738507,1092.54639007 -257.36284124,1092.25852801 -257.076152812,1091.79676498 -244.411484536,1069.47450274 -241.506570118,1067.59200495 -239.773361431,1067.42638933 -235.932408268,1065.4196203 -234.581756309,1061.30188033 -236.957713084,1027.04366647 -238.949159526,1023.08125107 -243.169564427,1021.719349 -282.636018119,1025.05521981 -285.696119323,1023.87422953 -286.656636944,1020.73793182 -284.782696801,1018.04584978 -256.209305962,1002.06107496 -254.858042105,1001.07106086 -227.073305992,974.948938529 -226.059994925,973.750073216 -212.168236307,952.876163558 -211.779358409,952.21449298 -198.558099732,926.536380454 -198.311401038,926.00224339 -186.946927115,898.344782807 -186.660224828,897.492159824 -176.915325874,860.696524414 -176.784813419,860.096643559 -171.584392192,829.72036834 -170.674817428,827.843762709 -166.19242991,822.866140933 -164.452541471,818.712248996 -159.827538851,741.999592103 -159.817618783,741.399078712 -160.059383848,732.50678125 -160.384398406,730.598055067 -163.724220786,720.176792929 -164.117658248,719.209229839 -169.823191037,707.758843343 -170.24810118,707.023697911 -181.083872059,690.695436369 -181.264000625,690.437052479 -189.422580006,679.287468868 -201.124282539,663.310232158 -206.446187714,656.042697965 -210.25924146,653.508949839 -211.922549416,650.676124826 -210.716773805,647.620376785 -207.972341412,645.106494036 -207.270908384,644.599437156 -196.056765204,638.322846708 -195.503414157,637.97767967 -179.017553856,626.573407615 -177.405190841,625.011605781 -161.19359674,603.102204036 -160.381880832,601.675401324 -146.506194264,568.621940792 -146.101326708,567.296229822 -140.805733416,540.533258654 -140.677938771,539.001970993 -141.403882391,513.821233903 -141.577577111,512.47172686 -145.255960462,496.560520543 -145.630184549,495.412668124 -164.381341291,451.444935503 -165.265738227,449.937893654 -181.203343544,429.32851503 -182.124950372,428.35138593 -202.795105918,410.341675911 -203.506126164,409.799331115 -219.686031992,399.047284697 -220.368684643,398.648250297 -233.211288261,392.10170811 -233.700182526,391.876159824 -240.149773411,389.201805552 -242.332298812,386.720708761 -241.704824017,383.476400854 -238.75457103,381.988023976 -229.346097622,381.884737275 -225.324593361,380.181736646 -223.660101363,376.144141563 -223.43710851,219.231149518 -223.561976967,217.917407682 -226.851299474,200.900975014 -226.927251568,200.555900034 -230.070017441,187.84288925 -230.750202085,186.12611079 -245.575766319,159.75166951 -251.432626817,156.315398836 -263.727149289,156.284888764 -266.287574428,155.266014012 -267.460320529,152.772312099 -266.612093637,150.150405581 -249.62365953,129.53019613 -248.478708737,127.533261058 -240.844844429,106.753433048 -237.254412474,96.9758445222 -236.878834207,95.396491764 -233.335609481,64.7253795044 -233.348798646,63.0422379444 -237.328790599,32.7609891642 -237.588590525,31.5890003624 -246.01561731,4.87827606697 -245.46373958,1.53285490451 -242.439377229,0.0 -1.875,0.0 " moovel_rot="0" moovel_centroid="-106.39075292557355,602.9732059133552" moovel_centroidlatlon="0,0" transform="translate(286.6566467 0)"></polygon><g transform="translate(-126.05617464145146 -1440.3662018873422) rotate(0)"><polygon id="185610602" class="tile" points="223.975485379,1537.31244281 224.123535359,1527.52399575 176.20549259,1527.61366037 176.27480449,1613.65770046 184.376855348,1614.68722354 184.486537928,1607.87265046 190.542513775,1607.91889796 190.803023565,1596.84874928 184.326604641,1596.59636779 184.347612133,1575.61689256 224.152729845,1576.18694204 223.852003652,1566.75363457 221.068463089,1568.47462031 221.052191762,1574.17490411 192.857592278,1574.57011089 192.531527651,1565.84975267 185.093076278,1565.79411862 184.595210927,1550.7785411 198.878341696,1550.64043126 199.055368292,1558.73001139 220.808025244,1558.55902375 220.937192995,1561.37603849 223.916194506,1563.05588944 224.119893998,1547.31360161 199.845950629,1547.59139633 200.071958446,1537.62791496 223.975485379,1537.31244281 " moovel_rot="40.2" moovel_centroid="193.774614109,1558.04971887" moovel_centroidlatlon="-73.92092116187476,40.60747343368205"></polygon></g><g transform="translate(-282.21463859999994 -1389.7976672999998) rotate(0)"><polygon id="380627725" class="tile" points="371.152809192,1570.80249164 345.088290051,1580.5124954 350.008563147,1553.06814693 353.817007858,1551.4254214 345.08134595,1529.83041729 351.135097689,1527.52399575 360.278440151,1549.47465606 367.619809721,1547.59219789 373.621102979,1560.88110176 371.152809192,1570.80249164 " moovel_rot="41.1" moovel_centroid="357.929158731,1558.51559481" moovel_centroidlatlon="-73.82929212267068,40.751089544726646"></polygon></g><g transform="translate(-319.3195065 -1570.0935359) rotate(0)"><polygon id="285497482" class="tile" points="384.612696811,1765.17450213 384.668728135,1772.08626394 384.647722876,1782.02524775 387.156809507,1784.48449796 396.553831638,1784.54586893 396.511847249,1791.35097166 387.436782317,1791.2950895 384.632351367,1794.16355057 384.616138723,1802.8719527 391.37952014,1809.30347473 410.635192667,1788.64515947 401.804683378,1779.90482479 404.87842558,1776.91810527 394.907894139,1766.78987832 392.112694266,1766.97225707 390.141326397,1766.78482425 389.324860618,1766.70820871 384.612696811,1765.17450213 " moovel_rot="-67.1" moovel_centroid="394.721204445,1786.33289163" moovel_centroidlatlon="-73.93452862331459,40.772863000198505"></polygon></g><g transform="translate(-450.37591790000005 -1299.5458777) rotate(0)"><polygon id="253906774" class="tile" points="529.13358311,1358.97300086 529.147840268,1376.18528663 529.154425688,1384.23476806 505.935169019,1384.28317634 505.914312401,1359.02140715 529.13358311,1358.97300086 " moovel_rot="-81.9" moovel_centroid="517.534386379,1371.62808864" moovel_centroidlatlon="-73.93527074999734,40.689708549840034"></polygon></g><g transform="translate(42.504089300000004 -1323.3300066) rotate(0)"><polygon id="274853189" class="tile" points="28.068968741,1358.97300086 28.0781518726,1377.76087145 41.2587401219,1377.75490495 41.2554492084,1385.0013327 52.5411295179,1384.99372602 53.3368661756,1359.63688256 28.068968741,1358.97300086 " moovel_rot="42.6" moovel_centroid="41.4709365458,1370.44825492" moovel_centroidlatlon="-74.00462620801599,40.70611541597092"></polygon></g><g transform="translate(-182.27506369999998 -1177.2498810000002) rotate(0)"><polygon id="320731194" class="tile" points="292.461828193,1391.2161868 292.461121327,1358.97300086 276.048721328,1359.02657581 276.03950984,1391.26497432 292.461828193,1391.2161868 " moovel_rot="-26.9" moovel_centroid="284.25299942,1375.12180707" moovel_centroidlatlon="-73.95161478326408,40.83125315745851"></polygon></g><g transform="translate(-315.3036043 -1623.570962) rotate(0)"><polygon id="299666264" class="tile" points="428.035292464,1765.17450213 415.250655599,1766.9595918 411.641109651,1767.19481438 411.635192667,1800.38690194 414.223486649,1799.79036519 415.623433535,1799.79247886 419.483074149,1798.87287958 423.493884014,1797.90784791 428.062719727,1797.07719635 427.741392573,1788.42334761 427.510654652,1781.82697974 427.349500756,1777.16743803 428.035292464,1765.17450213 " moovel_rot="39.9" moovel_centroid="419.616990907,1782.59096756" moovel_centroidlatlon="-73.92784372892763,40.79011451339293"></polygon></g><g transform="translate(20.737011300000006 -1709.3568742999998) rotate(0)"><polygon id="201149339" class="tile" points="93.4082895273,1795.38361022 95.1207919683,1795.3888476 95.1219751578,1765.19149966 79.4929160114,1765.17450213 79.486818216,1795.36196853 93.4082895273,1795.38361022 " moovel_rot="10.8" moovel_centroid="87.3059740735,1780.27942286" moovel_centroidlatlon="-73.8397797192667,40.66033822329321"></polygon></g><g transform="translate(-391.55988 -1436.5187541) rotate(0)"><polygon id="185148198" class="tile" points="507.331449739,1555.86590362 507.330781317,1527.79764904 492.105172554,1527.52399575 492.138036547,1555.95184327 498.929843571,1555.91281785 507.331449739,1555.86590362 " moovel_rot="8.8" moovel_centroid="499.710234036,1541.77964645" moovel_centroidlatlon="-73.93910702551561,40.58758618050868"></polygon></g><g transform="translate(96.2661691 -1308.5166872999998) rotate(0)"><polygon id="375468803" class="tile" points="0.00713469386101,1552.22368994 0.0,1527.52399575 16.494155247,1527.75362609 16.3155748928,1552.11332883 0.00713469386101,1552.22368994 " moovel_rot="-90.2" moovel_centroid="8.18539143140378,1539.88029742" moovel_centroidlatlon="-73.82861592423234,40.7828045383043"></polygon></g><g transform="translate(-116.1477328 -2006.3434389000001) rotate(0)"><polygon id="374788776" class="tile" points="216.938221171,2033.13477087 233.030617021,2032.88296231 232.990760889,2057.16915848 217.061611922,2057.16180689 216.938221171,2033.13477087 " moovel_rot="51.3" moovel_centroid="225.019512214,2045.06648462" moovel_centroidlatlon="-74.00502173371028,40.654243648923085"></polygon></g><g transform="translate(-56.238442000000006 -1194.6052545999999) rotate(0)"><polygon id="266170672" class="tile" points="125.439800448,1225.65904165 110.024163336,1225.65092803 110.04202515,1201.0 125.456073239,1201.01905553 125.439800448,1225.65904165 " moovel_rot="-28.9" moovel_centroid="117.73994501,1213.332466503035" moovel_centroidlatlon="-73.98096413399551,40.75659382601924"></polygon></g><g transform="translate(16.943246599999995 -1530.0903745) rotate(0)"><polygon id="285497452" class="tile" points="77.0850129392,1777.4643656 73.8276051661,1777.61568949 73.7014013462,1765.39239208 69.1732338991,1765.17450213 68.8685710631,1769.2093653 62.5787752625,1768.52313649 62.5805443246,1792.3138085 73.5826490868,1794.50043822 74.3369790696,1784.4292841 78.486818216,1784.0294768 77.7961645626,1780.8047598 77.0850129392,1777.4643656 " moovel_rot="24.6" moovel_centroid="69.0876462458,1780.44120713" moovel_centroidlatlon="-73.93632621499346,40.77349840028429"></polygon></g><g transform="translate(-94.53544109999999 -952.3395048000001) rotate(0)"><polygon id="307958486" class="tile" points="197.460909792,1201.0 194.82667258,1205.40542972 198.070779659,1207.60920037 195.709864894,1211.05089075 199.393694969,1213.17157211 194.834963786,1220.95410048 201.73827771,1225.2921337 199.528235984,1228.77684325 203.402054488,1231.18353009 215.379452026,1211.86790643 198.098630424,1201.38919968 197.460909792,1201.0 " moovel_rot="-10.7" moovel_centroid="203.806660632,1215.2892594538985" moovel_centroidlatlon="-73.91144836492647,40.77939199259232"></polygon></g><g transform="translate(-93.32081409999999 -1265.6120801) rotate(0)"><polygon id="201276049" class="tile" points="173.408477693,1533.58352836 161.004809605,1527.52399575 158.585480127,1533.37528413 166.805931652,1536.99071436 168.539473904,1540.47049186 165.432686875,1538.97012243 158.584255202,1551.39193584 166.676123407,1555.38242864 168.935788187,1556.63932727 175.20549259,1545.4456249 173.408477693,1533.58352836 " moovel_rot="-51.7" moovel_centroid="167.334700236,1542.52837373" moovel_centroidlatlon="-73.85268015879691,40.66152773798877"></polygon></g></g></svg>