<svg><g transform="translate(0 0)"><polygon id="3" class="bin" points="432.457283549,1207.499999 435.108933979,1206.40164943 436.207283549,1203.749999 436.207283549,3.75 435.108933979,1.09834957055 432.457283549,0.0 282.321044034,0.0 279.751372952,1.01882982437 278.577999223,3.52171171826 273.772624898,82.3112636629 273.767786088,82.4135822835 272.261531704,127.228072391 272.122052492,128.393533958 267.255740937,151.842498411 266.833083607,153.17714663 256.18203657,177.766791374 255.56281961,178.893661773 242.721235197,197.819457235 241.700758806,199.005917339 240.000951962,200.577754266 224.987671141,214.430828018 223.895302012,215.253583807 212.089803934,222.424282132 210.41461596,223.156978205 185.402428958,230.316218909 184.361846505,230.528702277 174.100860233,231.808443386 171.837852036,232.955633557 170.823205655,235.281089236 171.521385719,237.720309601 173.612793253,239.156716896 201.073578522,246.365578379 204.518259462,248.922282964 205.238669951,253.151180438 181.779768964,361.592327129 177.247165413,366.586413139 171.165708576,368.533477854 169.193124815,370.018539993 167.158657388,373.05706463 166.678678758,376.207030036 172.382522703,395.491443109 173.974131543,397.597205341 174.603801353,397.995425453 177.591238062,398.444913236 184.151453318,396.662867579 187.912197089,396.713089857 201.156147751,400.69340988 204.686665521,403.741563013 204.77098397,408.405111409 199.446743625,420.92207092 199.202921088,421.747776528 195.137647616,445.138073314 195.064899091,445.499051194 193.791537884,451.045943588 193.161398966,451.961115075 192.692727809,455.274383141 193.020058355,456.255699164 191.720524533,459.840130679 189.406848613,462.685532991 188.566706638,465.002001266 189.345588106,467.339779584 190.929747667,469.396308982 240.73418448,691.835140071 240.820904536,692.295508084 242.737615541,704.799000737 242.79847834,705.336485578 243.673818471,717.24033864 243.686926955,717.4719913 244.000691496,725.381003611 243.973867707,726.318220687 243.413353646,732.085958268 243.397328676,732.234150937 242.654242428,738.472444965 242.519809464,739.233602287 240.618996002,747.31283797 240.47603214,747.829291722 235.755814089,762.613597412 235.601428653,763.337033504 234.831339183,770.217439772 234.808075321,770.627711294 234.797244325,776.563386363 234.811453709,776.896442386 235.402042205,783.659843082 235.477965393,784.150891128 237.806252842,794.577432026 237.830448061,794.679101026 239.912959663,802.918372447 239.973653328,803.179893669 242.073575615,813.104340982 242.122876742,813.361415982 243.18801064,819.55017815 243.220193368,819.755731167 243.815851889,823.977300266 243.878320731,824.676832499 244.110563859,830.792680048 244.103137622,831.465834805 243.691389907,838.31790338 243.579864146,839.204793621 242.474583169,844.946739376 242.357537578,845.451487202 241.129209321,849.967711549 240.982593309,850.43921033 239.053570676,855.937908659 238.738665877,856.689591966 237.541950289,859.129243216 237.171592431,859.789582838 232.974922371,866.391416675 232.298312631,867.285330183 229.794661513,870.085384586 229.637754471,870.272820085 226.570589405,874.189328591 225.860109125,874.965834713 218.248951463,882.100857651 217.72323542,882.546343368 206.010615446,891.502767746 205.72469687,891.709988085 199.070271233,896.276814717 198.93564305,896.36689343 165.913722546,917.902795688 165.361641662,918.342081883 163.166265951,920.455238951 162.190961778,921.028701647 160.557662764,923.00703578 160.578340607,925.572390343 161.864690953,929.019464211 165.349461736,1024.39718753 163.933529431,1028.39508595 161.861793068,1029.46472579 160.042716451,1031.55792414 160.159293792,1034.32865126 162.147771117,1036.26164815 164.18631472,1037.10557382 165.954425154,1040.89267522 166.681713436,1051.88726485 165.250149771,1056.07441437 164.686337104,1056.34703273 163.047953083,1057.88885586 162.58682754,1060.09087402 165.813771245,1092.83443616 165.824941053,1092.93410176 173.624577267,1155.01616993 173.630832119,1155.0635165 180.449749673,1204.26479944 181.701320746,1206.57780748 184.16424567,1207.499999 432.457283549,1207.499999 " moovel_rot="0" moovel_centroid="320.74337115356224,639.1966560989741" moovel_centroidlatlon="0,0" transform="translate(-160.0427094 0)"></polygon><g transform="translate(223.5468022226 -653.0469378108089) rotate(0)"><polygon id="25163889" class="tile" points="-214.462361972,1750.01622732 -104.402169334,1748.85124749 -105.055991304,1613.21494068 -214.434708145,1610.9989834 -214.462361972,1750.01622732 " moovel_rot="-71.8" moovel_centroid="-159.81396812,1680.84115421" moovel_centroidlatlon="-73.82830278014124,40.761489562789336"></polygon></g><g transform="translate(252.7923947 -874.1701707999999) rotate(0)"><polygon id="283679450" class="tile" points="0.0,1861.30325747 -76.6998505801,1862.21800736 -75.3077228229,1849.03758237 -75.0095156025,1835.24119292 -74.7071598675,1820.87109836 -74.5319183853,1812.52832566 -123.699614212,1788.96808094 -128.703261073,1812.9538742 -127.643483251,1842.44811133 -123.832564313,1858.7961006 -126.014064038,1870.90739025 -127.729846992,1873.66852922 -128.647903234,1969.98625419 -125.420335675,1969.77561951 -124.062645848,1967.058454 -123.94304465,1962.73410684 -123.429707655,1958.04483722 -122.991893566,1953.68046311 -122.057767961,1949.92886855 -119.979618997,1945.72996611 -116.888235672,1944.13041718 -109.786450034,1942.56979009 -100.95852839,1940.95456461 -92.9293087179,1942.21336927 -87.6388486594,1944.28750694 -82.1420257961,1947.3027115 -76.9373665949,1949.59692201 -66.89563867,1951.53150302 -51.9232369926,1950.7072533 -40.4397321984,1949.68711711 -22.3032944832,1949.09942582 -18.8096641945,1946.05817423 -16.4918440394,1945.39876538 -10.288766925,1945.76066882 -4.62775125671,1946.06989038 -1.09502242226,1945.61767199 -0.276620301045,1942.94455952 -1.08039829284,1868.49116734 0.0,1861.30325747 " moovel_rot="5.6" moovel_centroid="-72.92676861124562,1888.32767584" moovel_centroidlatlon="-73.85809237571655,40.70955145197675"></polygon></g><g transform="translate(645.1852124 -1136.2514159) rotate(0)"><polygon id="182103073" class="tile" points="-447.689770937,2118.3774465 -447.717751303,2056.81594985 -493.264113609,2056.71339256 -493.294396408,1969.98625419 -400.669766621,1970.19980618 -400.614470021,2118.48242445 -447.689770937,2118.3774465 " moovel_rot="-69.1" moovel_centroid="-440.921393384,2033.12639049" moovel_centroidlatlon="-73.9304504580413,40.55324111531369"></polygon></g><g transform="translate(325.7746725 -730.7735875999999) rotate(0)"><polygon id="309309712" class="tile" points="-214.430504319,1610.9989834 -243.250648885,1600.62331403 -229.253588665,1558.00794209 -219.61138902,1531.96991839 -214.651530238,1509.05959805 -213.770747156,1490.16284858 -214.816266775,1469.02754172 -221.803708654,1449.45598513 -234.089236509,1428.28620012 -241.430685879,1420.07885808 -243.314380436,1417.20508129 -212.326407882,1389.92713889 -205.511843828,1394.30802146 -201.31497601,1391.91735187 -190.702098367,1406.18182837 -179.2089112,1425.72249527 -170.763130669,1446.92644257 -166.208379422,1467.6947966 -164.419445673,1487.96290106 -164.762809061,1507.26368383 -169.425838386,1533.21484629 -176.768506296,1558.46938408 -180.419915282,1568.10483391 -185.084042729,1566.44233382 -188.397122367,1575.57970938 -190.899210491,1578.10890466 -195.074648806,1578.47251302 -202.251886449,1576.11421636 -214.430504319,1610.9989834 " moovel_rot="71.0" moovel_centroid="-200.853672312,1496.71910261" moovel_centroidlatlon="-74.1505674487093,40.60462967357716"></polygon></g><g transform="translate(598.4942106999999 -560.9806906) rotate(0)"><polygon id="285988332" class="tile" points="-369.966583853,1216.71454769 -370.460445756,1214.19309045 -371.159167032,1212.79316575 -372.559866951,1211.12899384 -373.93131937,1209.93429282 -375.351218603,1209.09190687 -377.120727432,1208.82152379 -380.739114055,1208.26271253 -381.284086964,1201.85092607 -393.005454717,1201.14198135 -411.413088019,1201.0 -430.100158586,1201.05019717 -430.151108069,1206.26597051 -431.276262564,1206.52678017 -432.548895904,1207.02821391 -433.756178628,1207.74864688 -434.756989901,1208.50938909 -435.460919161,1209.30372788 -436.644162271,1210.80197352 -437.142364225,1211.68067059 -437.3797858,1212.84343403 -437.752932082,1213.86553061 -441.326336606,1213.78859686 -441.30201416,1251.6486581 -435.938552441,1251.7220922 -436.516154495,1285.9151005 -432.303399838,1287.13305832 -408.577621373,1288.13866973 -410.559343656,1295.40048776 -409.205814442,1297.02739789 -408.362267154,1299.60180459 -408.638274253,1303.99255073 -408.451753172,1346.41053196 -399.140482694,1348.92109254 -395.995204282,1348.87197289 -392.623552604,1351.1441751 -392.16720669,1352.7432333 -392.780530138,1353.51983548 -395.99823003,1350.30910455 -397.73174294,1365.83488404 -394.562229855,1370.01187241 -396.388988118,1380.05183971 -395.976816958,1383.32333705 -395.040328586,1386.6853023 -392.412330629,1389.27408515 -389.932237321,1389.92713889 -387.506152249,1389.6894531 -385.615494124,1388.76109517 -384.309820677,1387.56044701 -383.026298421,1385.78435223 -382.222080327,1384.71215202 -382.010402986,1384.44412202 -377.684268226,1385.23832166 -373.401258413,1356.19257567 -376.875375831,1351.49604093 -376.511012902,1350.67904651 -371.779298564,1345.70066629 -371.018392076,1342.16156151 -370.824387761,1325.3305762 -370.441336991,1293.85177565 -366.253239659,1293.69998473 -366.13327832,1264.27858435 -365.51409421,1232.34991341 -365.474391378,1217.42780213 -369.131082849,1217.5640949 -369.636328762,1217.28782813 -369.966583853,1216.71454769 " moovel_rot="-38.3" moovel_centroid="-397.997918431,1274.0296006057652" moovel_centroidlatlon="-74.17211968783393,40.559836505281844"></polygon></g><g transform="translate(164.08281929999998 -1481.2448365) rotate(0)"><polygon id="235063428" class="tile" points="0.0,1975.77659654 -0.0751312745735,2120.15323983 -92.5851875486,2118.74558027 -91.2463984648,2102.66550424 -30.4202751433,2103.98254887 -28.920878005,2050.99445638 -58.7910218261,2050.64963924 -58.5553879648,2042.96018971 -94.0899687706,2043.40104942 -94.0158028459,2021.35127912 -76.4071771324,2014.14519265 -38.4161295656,1971.82548257 -22.9509358317,1969.98625419 -22.7926483847,1976.37691092 0.0,1975.77659654 " moovel_rot="39.4" moovel_centroid="-35.098421691399686,2044.0435721" moovel_centroidlatlon="-73.91244738423546,40.60146993564701"></polygon></g><g transform="translate(252.8440714 -724.2328583000001) rotate(0)"><polygon id="275355497" class="tile" points="-46.8955376692,1359.41790668 -1.04927915446,1305.51255224 -1.0,1300.72178142 -1.09002668709,1201.0 -56.3263292305,1201.04864479 -56.1873268675,1352.07570787 -47.7756708845,1358.71803632 -46.8955376692,1359.41790668 " moovel_rot="-24.0" moovel_centroid="-30.572892376245573,1269.716889949307" moovel_centroidlatlon="-73.9241930079295,40.82970631812121"></polygon></g><g transform="translate(514.4359761000001 -1405.5802405) rotate(0)"><polygon id="450358501" class="tile" points="-400.377256628,1894.93017669 -403.663611024,1897.39989661 -400.283438835,1901.57716674 -422.182918317,1917.83880974 -425.497067977,1913.71793407 -430.019213417,1917.36718556 -437.976848303,1906.81495994 -443.814420535,1911.44902189 -435.861862198,1921.99690701 -439.491811331,1925.00262159 -437.084725881,1928.11837295 -441.615380084,1931.63360562 -440.974052811,1932.53849278 -460.047906582,1946.86985983 -467.925284747,1880.24579431 -460.898250986,1889.45021618 -410.818384173,1851.20814812 -438.623964233,1814.78697388 -451.472999769,1824.59651298 -452.053794961,1823.84700819 -468.003973061,1822.92024216 -466.40806389,1798.8682685 -454.649837879,1788.96808094 -376.773789262,1826.60906641 -405.501414802,1851.83217282 -387.862126613,1871.58654243 -399.989188469,1880.56104335 -407.147283769,1885.88763575 -402.23726238,1892.50056212 -400.377256628,1894.93017669 " moovel_rot="-40.5" moovel_centroid="-429.1224911,1863.84815833" moovel_centroidlatlon="-73.98533011904189,40.58284538686108"></polygon></g><g transform="translate(536.7336046 -1633.6657179) rotate(0)"><polygon id="301510365" class="tile" points="-346.305987764,2008.5496324 -346.483896699,1992.96567296 -348.015952666,1981.06926134 -350.536387328,1969.98625419 -372.823251593,1974.40602224 -389.658009633,2020.44838169 -399.614470021,2022.15957563 -387.281502597,2093.84458843 -384.027509191,2112.47662544 -381.090883919,2123.43577353 -352.886027273,2119.30365043 -350.064720383,2117.84071719 -347.888676231,2116.11339363 -346.527108335,2113.8990236 -346.089530163,2110.85445606 -346.166285433,2023.39875497 -345.940587769,2016.83436487 -346.305987764,2008.5496324 " moovel_rot="17.7" moovel_centroid="-367.778910369,2049.15144797" moovel_centroidlatlon="-73.88690890922128,40.7714127383176"></polygon></g><g transform="translate(445.5476678 -1135.7032014000001) rotate(0)"><polygon id="157893342" class="tile" points="-291.085818303,1443.60422821 -324.3165262,1443.66762177 -324.285184351,1389.92713889 -373.012570921,1390.02504197 -373.101231798,1519.9353721 -368.067781234,1519.92804307 -368.018332197,1437.01486237 -334.375745597,1436.94210133 -334.411630344,1488.30672479 -291.107821811,1488.22618654 -291.085818303,1443.60422821 " moovel_rot="21.2" moovel_centroid="-335.582773748,1441.16294053" moovel_centroidlatlon="-73.82640910015554,40.582146458993726"></polygon></g><g transform="translate(298.3192984 -1308.8843837) rotate(0)"><polygon id="277351839" class="tile" points="-46.7706777224,1610.9989834 -45.1607200224,1615.14813375 -39.3085188709,1613.89336407 -34.9359530542,1635.57693577 -39.1672306187,1637.1666962 -34.2146963604,1657.11228633 -72.0126297574,1670.2764174 -68.1883652057,1692.62132528 -78.6301055316,1704.44666925 -56.9529652132,1731.07273459 -60.1396930482,1733.75539334 -48.1301619649,1747.32560178 -34.2468705907,1763.87925451 -35.0849644098,1766.79230819 -48.972183631,1780.70563185 -51.3194654705,1777.43822462 -54.2519389704,1779.73235 -103.402169334,1723.53721039 -98.1626415573,1716.55717494 -102.073250753,1712.29653688 -76.7730244424,1681.5544334 -81.2975061862,1666.28103107 -67.6076549757,1652.39144942 -84.221745339,1636.8346581 -79.9471173301,1632.12387938 -82.3914323069,1627.84453121 -46.7706777224,1610.9989834 " moovel_rot="68.8" moovel_centroid="-65.4935425961,1694.64482423" moovel_centroidlatlon="-73.79934174367988,40.700757932579336"></polygon></g><g transform="translate(622.5067526 -1157.3316912) rotate(0)"><polygon id="130008156" class="tile" points="-420.000450129,1500.50646304 -426.603970416,1490.10565344 -424.054449708,1466.32673707 -470.278898874,1459.89869359 -461.727970199,1396.13453689 -460.072524775,1393.08588608 -457.923149785,1391.83492555 -452.522892773,1389.92713889 -449.502558657,1390.3194118 -435.609191418,1398.78382814 -435.338251756,1400.17223977 -436.264489945,1403.10332582 -427.161770105,1408.15949063 -423.434546847,1405.85752862 -419.076355468,1405.69830279 -413.791053792,1410.27636047 -409.769872607,1414.73445785 -408.482424282,1420.11996503 -411.908574051,1458.99779856 -413.612676305,1478.39355922 -413.944709616,1485.09876839 -412.911504218,1488.29314338 -411.648474956,1491.06629828 -409.678264153,1493.32103141 -408.517607339,1494.08204186 -411.351398554,1526.37647867 -423.126872733,1525.20088783 -420.000450129,1500.50646304 " moovel_rot="-7.4" moovel_centroid="-435.705766322,1442.78170214" moovel_centroidlatlon="-73.80288440877983,40.66117209883252"></polygon></g><g transform="translate(422.26678530000004 -1065.0496283) rotate(0)"><polygon id="286996658" class="tile" points="-209.901016716,1314.57837298 -185.838172269,1339.362143 -182.292460466,1340.80989609 -178.176727981,1339.58069706 -159.000940178,1316.59911985 -156.15688596,1311.98508356 -155.162897919,1306.66596178 -153.774546681,1265.0131853 -155.438321469,1262.20325908 -158.341734013,1259.65316092 -157.188733703,1227.7493531 -157.941130422,1223.31037507 -160.181296986,1219.66500945 -156.858186312,1215.62316893 -173.903590185,1201.0 -185.141819378,1216.43072995 -188.564925552,1218.34378673 -198.953008192,1225.89052132 -209.884073737,1236.08403193 -185.537177736,1261.71653943 -164.589566529,1226.56320807 -166.247011331,1266.55228193 -209.901016716,1314.57837298 " moovel_rot="-71.5" moovel_centroid="-177.45219548,1274.3589918384475" moovel_centroidlatlon="-73.91186381058266,40.859882953305984"></polygon></g><g transform="translate(481.3673106 -1629.9973652) rotate(0)"><polygon id="185022023" class="tile" points="-320.464408094,1858.05161603 -313.05200075,1858.21562669 -313.079209332,1788.96808094 -375.773789262,1789.31874277 -375.767409281,1853.9433216 -337.749497375,1857.63187992 -320.464408094,1858.05161603 " moovel_rot="51.8" moovel_centroid="-344.041386345,1822.90221402" moovel_centroidlatlon="-74.01039686670474,40.63277137193883"></polygon></g><g transform="translate(556.5684877 -1270.4314156) rotate(0)"><polygon id="413778946" class="tile" points="-319.093732964,2099.3471963 -318.988699953,1969.98625419 -291.107484698,1970.11524181 -291.212755197,2099.47636158 -319.093732964,2099.3471963 " moovel_rot="-53.2" moovel_centroid="-305.100664917,2034.73117172" moovel_centroidlatlon="-74.16081815000001,40.54556005"></polygon></g><g transform="translate(466.7755092 -1331.1225605000002) rotate(0)"><polygon id="350880635" class="tile" points="-259.297878271,1389.98927893 -273.398860326,1389.92713889 -273.475630142,1505.53717028 -284.241213526,1505.4399662 -284.546018036,1511.56934001 -290.085818303,1512.27192891 -289.989536771,1560.84721028 -259.342294849,1560.980827 -259.310161542,1505.66757245 -259.369366275,1505.66306944 -259.297878271,1389.98927893 " moovel_rot="-51.9" moovel_centroid="-270.438786457,1491.19968873" moovel_centroidlatlon="-73.76524553469847,40.596843732916646"></polygon></g><g transform="translate(140.1407824 -320.2956454000001) rotate(0)"><polygon id="261702665" class="tile" points="-100.464410016,1273.86663345 -100.40386732,1217.70866502 -89.26150549,1219.37488006 -89.6149207348,1221.71646292 -83.5880420674,1222.61584628 -83.2346266706,1220.27426419 -79.1208279045,1220.89958515 -76.1364587402,1201.0 -57.6018850449,1203.85869849 -57.3263292305,1273.74959756 -100.464410016,1273.86663345 " moovel_rot="11.2" moovel_centroid="-77.5404847635,1242.210794527252" moovel_centroidlatlon="-73.88553053580813,40.677038307808694"></polygon></g><g transform="translate(347.4474738 -1716.8448196999998) rotate(0)"><polygon id="299606255" class="tile" points="-192.543424098,1870.93642596 -227.013890068,1857.99587234 -231.829929463,1856.18181229 -224.575909204,1839.84088542 -221.749132555,1833.47337593 -221.606522697,1831.02708341 -221.861280364,1829.36660606 -223.35019108,1826.94729293 -222.366589362,1824.60289877 -221.525269801,1822.59763059 -231.797697133,1806.92743615 -223.474600028,1788.96808094 -211.223678113,1794.18221631 -207.888939115,1801.39618937 -186.953649351,1809.77415151 -193.353041732,1825.43492364 -185.756963009,1828.53599536 -180.676987739,1830.29974704 -178.403388428,1831.22828162 -176.812985029,1831.90653314 -185.533822204,1853.48929709 -192.543424098,1870.93642596 " moovel_rot="33.9" moovel_centroid="-206.644795007,1832.28389489" moovel_centroidlatlon="-73.92882253229682,40.7892099700205"></polygon></g><g transform="translate(484.0899163 -1577.8474408000002) rotate(0)"><polygon id="396940655" class="tile" points="-267.954713991,1650.80644358 -260.383069267,1671.31457556 -230.354521747,1711.90157778 -229.759168308,1694.90618856 -215.531964294,1694.79688466 -222.575966765,1675.08865909 -242.007279181,1650.0402004 -215.462361972,1621.07467793 -232.453528649,1610.9989834 -239.702770093,1625.91838944 -247.059627738,1634.84534719 -257.809365945,1636.81410425 -267.954713991,1650.80644358 " moovel_rot="11.3" moovel_centroid="-240.778270814,1660.77040036" moovel_centroidlatlon="-73.92219516463354,40.79642503629427"></polygon></g><g transform="translate(319.2280998 -1775.8615264) rotate(0)"><polygon id="185193581" class="tile" points="-154.783295723,1866.20481028 -175.812985029,1835.99189681 -174.948612615,1824.92953956 -172.84372269,1802.18533235 -172.734521674,1788.96808094 -166.101301249,1789.03299851 -150.748039405,1789.18275302 -135.118968998,1811.43200456 -130.703261073,1817.71282188 -146.970216275,1829.87626529 -130.713231458,1851.63696481 -133.607647119,1853.80098276 -135.259599084,1851.59200398 -154.783295723,1866.20481028 " moovel_rot="40.4" moovel_centroid="-155.589644293,1824.61046693" moovel_centroidlatlon="-73.9192946208255,40.63352845863451"></polygon></g><g transform="translate(724.7745979 -595.9238849) rotate(0)"><polygon id="305092835" class="tile" points="-486.786648664,1201.0 -486.743420431,1271.0266938 -458.658780747,1284.25151137 -457.340608869,1201.33120853 -486.786648664,1201.0 " moovel_rot="22.7" moovel_centroid="-471.966651626,1239.2225096257434" moovel_centroidlatlon="-73.88781695595192,40.8803468121121"></polygon></g><g transform="translate(544.1587936000001 -314.89621579999994) rotate(0)"><polygon id="182759598" class="tile" points="-392.419170003,1389.92713889 -400.07785024,1390.00078054 -407.482424282,1390.0713445 -407.424852722,1466.41487945 -403.333825141,1466.34461127 -403.351201869,1470.45599797 -388.116215704,1470.21830184 -388.206368802,1465.58968652 -383.154570636,1465.65629576 -374.101231798,1392.81279434 -377.555061988,1392.58453592 -384.233852916,1392.15264728 -386.168555,1407.05229637 -392.633032903,1456.92336664 -392.485038458,1409.43386197 -392.419170003,1389.92713889 " moovel_rot="-87.8" moovel_centroid="-393.590856746,1429.75312811" moovel_centroidlatlon="-73.93974835875892,40.575759280255824"></polygon></g><g transform="translate(309.9302844 -119.2828978) rotate(0)"><polygon id="295447852" class="tile" points="-101.464410016,1272.93148719 -101.624018697,1206.51671126 -101.628912064,1201.0 -116.625649613,1201.07492474 -116.527061225,1220.90353972 -137.812822911,1221.01456857 -137.831511819,1230.36452643 -137.90023703,1272.98337112 -120.302684394,1272.98893206 -120.088275001,1255.36156028 -113.045318407,1255.59968653 -113.23859237,1272.82498452 -109.084389275,1272.97421138 -101.464410016,1272.93148719 " moovel_rot="23.6" moovel_centroid="-118.342650999,1240.75888054896" moovel_centroidlatlon="-73.95049987775047,40.72953924787175"></polygon></g><g transform="translate(627.7179788000001 -1730.1764413) rotate(0)"><polygon id="184999232" class="tile" points="-580.096734136,1970.02441378 -566.556051331,1969.98625419 -567.262331425,2040.99666315 -566.671344785,2108.81412966 -580.10210331,2108.7552546 -580.096734136,1970.02441378 " moovel_rot="-81.7" moovel_centroid="-573.516257633,2039.28524641" moovel_centroidlatlon="-73.95483752924234,40.63000642813474"></polygon></g><g transform="translate(577.7715868 -121.57835099999988) rotate(0)"><polygon id="185148184" class="tile" points="-356.088531346,1212.78264074 -358.398777067,1207.97439607 -349.970150228,1203.42206442 -345.489434098,1201.0 -308.848203128,1269.10220581 -324.474221947,1288.83045758 -327.358776378,1291.72814045 -338.960363485,1299.46133008 -346.138325723,1301.68903271 -350.697298171,1300.06732398 -354.359716733,1296.74980467 -356.329558457,1292.81502966 -358.366622118,1289.50134419 -342.535568593,1275.83853497 -325.246323832,1266.4192731 -326.654972832,1263.76194804 -354.815132248,1212.08634756 -356.088531346,1212.78264074 " moovel_rot="37.0" moovel_centroid="-334.617742648,1258.3366841948875" moovel_centroidlatlon="-73.93226497105047,40.5867497519968"></polygon></g><g transform="translate(573.1576493 -687.3312430000001) rotate(0)"><polygon id="108324451" class="tile" points="-508.796048966,1857.25699961 -529.619501927,1844.25508146 -508.758670163,1809.28234141 -522.468383375,1798.58419363 -528.109106749,1791.59533466 -532.731758229,1788.96808094 -558.62328225,1831.8444049 -544.87860601,1841.97835608 -546.924867708,1846.63527576 -517.231727103,1865.54343793 -508.796048966,1857.25699961 " moovel_rot="-74.5" moovel_centroid="-532.214422522,1826.04156062" moovel_centroidlatlon="-73.90967534385403,40.789057432252235"></polygon></g><g transform="translate(540.4976452 -509.1884731) rotate(0)"><polygon id="358933096" class="tile" points="-443.200017017,1616.91279592 -457.43698167,1610.9989834 -459.609043418,1639.62291089 -476.104887639,1640.42309109 -476.060168511,1673.41235826 -429.901477397,1668.02011686 -429.816729161,1646.5198915 -436.341522972,1646.3283405 -436.252494016,1641.92633577 -433.476037922,1642.04838352 -433.629939014,1635.37860624 -442.996554858,1635.29765038 -443.200017017,1616.91279592 " moovel_rot="8.8" moovel_centroid="-453.118672068,1648.97020809" moovel_centroidlatlon="-73.82767591947147,40.85204629800755"></polygon></g><g transform="translate(706.0057637 -1385.1323761) rotate(0)"><polygon id="201146426" class="tile" points="-512.65803744,1437.29292263 -512.773065956,1433.19256751 -512.655743949,1418.85998526 -510.16899843,1418.85853953 -510.164670782,1425.81676603 -495.096537825,1425.79829753 -495.097387712,1413.04914482 -493.854014934,1413.04842206 -493.857146267,1405.18885216 -510.196527775,1405.20432828 -510.19877321,1407.47982426 -512.984066424,1407.48360958 -512.98588528,1400.24831322 -512.611085106,1394.26296473 -489.64119204,1394.67501929 -489.552518484,1389.95659316 -471.279142032,1389.92713889 -471.278898874,1437.23963087 -489.478440133,1437.26421622 -512.65803744,1437.29292263 " moovel_rot="10.6" moovel_centroid="-488.833662726,1414.7190753" moovel_centroidlatlon="-73.83867668049764,40.651630943303445"></polygon></g><g transform="translate(105.9370881 -1805.0583038999998) rotate(0)"><polygon id="157040733" class="tile" points="-0.476963230222,2193.23675363 -5.15912194289,2194.29446216 -9.58542478904,2199.15468093 -11.968092446,2198.04678953 -16.6229353756,2195.88517986 -23.4231162205,2193.91752416 -23.4199005492,2126.73009261 -21.6065940913,2123.43577353 -11.7784797963,2125.4803245 -8.97434271276,2127.19638072 -4.52100017779,2131.60640277 0.0,2132.71686692 -0.476963230222,2193.23675363 " moovel_rot="-13.8" moovel_centroid="-12.12617754613789,2161.31052444" moovel_centroidlatlon="-74.19748070515487,40.51207933816657"></polygon></g><g transform="translate(278.7556843 -861.055225) rotate(0)"><polygon id="443296709" class="tile" points="-91.4508318471,1494.76173956 -108.05371218,1496.13981452 -109.73698359,1469.25679717 -102.417274732,1466.41696673 -101.538726862,1420.38023796 -104.516379689,1403.17087784 -100.364406072,1389.92713889 -91.4445517682,1390.13861386 -91.4508318471,1494.76173956 " moovel_rot="-90.2" moovel_centroid="-98.1223380104,1447.78037917" moovel_centroidlatlon="-74.13821215180131,40.535061417962744"></polygon></g><g transform="translate(625.3412412 -504.8650620000001) rotate(0)"><polygon id="377339427" class="tile" points="-513.989830369,1389.98608377 -513.98588528,1456.59470625 -537.533857825,1456.51611939 -537.541345171,1408.45992069 -531.250624873,1408.48296773 -531.252829723,1389.92713889 -513.989830369,1389.98608377 " moovel_rot="-31.6" moovel_centroid="-525.069415892,1425.18301012" moovel_centroidlatlon="-73.91591223595513,40.76372894903712"></polygon></g><g transform="translate(396.8044579 -1609.1090099) rotate(0)"><polygon id="279672694" class="tile" points="-130.028815457,1970.56576702 -154.049010792,1969.98625419 -153.95556747,2025.22252903 -130.886255825,2025.3812826 -131.699642681,2002.86913329 -130.743374663,2002.10758167 -130.028815457,1970.56576702 " moovel_rot="-65.7" moovel_centroid="-142.394941541,1997.4863" moovel_centroidlatlon="-73.80001635354229,40.70958638031641"></polygon></g><g transform="translate(257.908023 -1543.0335203000002) rotate(0)"><polygon id="278454418" class="tile" points="-183.878123708,1970.06537587 -183.886800504,2004.97878862 -217.603861595,2004.89047386 -217.601368045,1969.98625419 -183.878123708,1970.06537587 " moovel_rot="-71.0" moovel_centroid="-200.741797137,1987.47969167" moovel_centroidlatlon="-73.80505222115396,40.70671593492092"></polygon></g><g transform="translate(362.7981764 -1044.1397808000002) rotate(0)"><polygon id="239584469" class="tile" points="-268.977788181,1610.9989834 -281.949202075,1611.73629641 -283.081824903,1611.69970371 -287.804198385,1613.0693067 -292.007628202,1614.28277604 -296.620945989,1615.61753056 -297.845046938,1616.61848253 -298.690951418,1617.62228099 -298.999174814,1619.09799074 -299.199033677,1625.86245338 -299.08719893,1636.9526255 -298.968182888,1642.23851126 -298.969423786,1647.33104238 -275.942665108,1647.2850487 -275.758605037,1634.86562825 -274.434778774,1634.828757 -274.439243459,1627.51921969 -268.954713991,1627.53552298 -268.977788181,1610.9989834 " moovel_rot="67.8" moovel_centroid="-285.178864882,1628.93142691" moovel_centroidlatlon="-73.94707536981936,40.73669936344107"></polygon></g><g transform="translate(394.5911891 -1395.8796255) rotate(0)"><polygon id="412123963" class="tile" points="-300.224200157,1610.9989834 -328.449108694,1611.10805347 -328.425406931,1640.63780087 -300.199033677,1640.51775581 -300.224200157,1610.9989834 " moovel_rot="29.5" moovel_centroid="-314.325311137,1625.8157804" moovel_centroidlatlon="-73.87453781267688,40.65307532854639"></polygon></g><g transform="translate(639.6168706999999 -350.9879903000001) rotate(0)"><polygon id="275302259" class="tile" points="-497.002806422,1255.39099065 -524.162759046,1233.84482691 -497.031652835,1201.0 -497.009243232,1250.64673706 -497.002806422,1255.39099065 " moovel_rot="-63.3" moovel_centroid="-506.067046757,1230.0777969153894" moovel_centroidlatlon="-73.93895544707044,40.766450690851244"></polygon></g><g transform="translate(147.11512199999999 -1377.4430564) rotate(0)"><polygon id="185169187" class="tile" points="-52.0158565124,2180.02243477 -59.1950977637,2180.0339964 -64.3089844918,2180.03790432 -64.341261938,2123.4427654 -59.140255245,2123.44397602 -52.0410936065,2123.43577353 -52.0158565124,2180.02243477 " moovel_rot="2.4" moovel_centroid="-58.1769493196,2151.73369492" moovel_centroidlatlon="-73.93614557339711,40.58024958675664"></polygon></g><g transform="translate(507.2072166 -693.5889011) rotate(0)"><polygon id="443524679" class="tile" points="-477.104887639,1646.6162171 -497.825584135,1646.54577271 -497.833285708,1610.9989834 -477.112540756,1611.0693962 -477.104887639,1646.6162171 " moovel_rot="-56.9" moovel_centroid="-487.469073018,1628.80758543" moovel_centroidlatlon="-74.10352920000001,40.617009100000004"></polygon></g><g transform="translate(250.1221317 -819.4051749) rotate(0)"><polygon id="108324458" class="tile" points="-114.436980327,2014.6863862 -129.020536966,2006.13175055 -114.717237591,1981.52235697 -129.028815457,1973.12630901 -127.208248885,1969.98625419 -103.898158377,1983.65736538 -101.68343603,1979.84465651 -96.0899687706,1983.12154073 -113.920075164,2013.82031444 -114.436980327,2014.6863862 " moovel_rot="-72.3" moovel_centroid="-113.739527788,1993.95997265" moovel_centroidlatlon="-73.90998615042018,40.78859946821621"></polygon></g><g transform="translate(562.3513409 -865.0629617) rotate(0)"><polygon id="239436982" class="tile" points="-548.554555245,1234.581667 -548.560307471,1254.28121926 -525.162759046,1246.22369158 -525.210583287,1201.0 -531.337839285,1202.37720087 -531.469584679,1235.17933048 -548.554555245,1234.581667 " moovel_rot="76.0" moovel_centroid="-534.409149231,1233.8573914069525" moovel_centroidlatlon="-73.95158915688704,40.74946201742313"></polygon></g><g transform="translate(380.4141071 -803.9377900999998) rotate(0)"><polygon id="194665129" class="tile" points="-264.323038784,1998.80134982 -268.550744998,1998.8071811 -287.912010036,1998.77252335 -288.3275979,1998.77076897 -290.096471838,1998.77232203 -290.101661758,1991.62880221 -290.107484698,1969.98625419 -270.777277737,1975.38139105 -264.286099787,1977.19058751 -264.323038784,1998.80134982 " moovel_rot="4.6" moovel_centroid="-277.814575279,1986.10010204" moovel_centroidlatlon="-73.92873990724532,40.65183170388262"></polygon></g><g transform="translate(652.4261735 -1253.4764135) rotate(0)"><polygon id="437714023" class="tile" points="-525.455347555,1622.27015638 -523.622369497,1615.58941168 -541.342091688,1610.9989834 -539.9354634,1628.51186382 -541.277308284,1656.24821344 -530.706566036,1658.01893029 -526.503844094,1635.65996136 -525.455347555,1622.27015638 " moovel_rot="-17.0" moovel_centroid="-533.780599325,1633.58925155" moovel_centroidlatlon="-73.88494924927163,40.78794392347917"></polygon></g><g transform="translate(352.0557093 -626.4771176) rotate(0)"><polygon id="288742502" class="tile" points="-253.241338636,1237.43486626 -235.394275982,1236.33498195 -235.95586102,1201.0 -253.223352729,1202.09522819 -252.898921363,1222.35440503 -252.971183003,1225.44662708 -253.190182812,1235.35781047 -253.241338636,1237.43486626 " moovel_rot="-90.2" moovel_centroid="-244.36809312,1219.300364252992" moovel_centroidlatlon="-74.0093182295807,40.737982228322814"></polygon></g><g transform="translate(689.9336449 -1144.7035844) rotate(0)"><polygon id="219693718" class="tile" points="-561.666090899,1389.92713889 -563.688549283,1414.64635172 -538.541345171,1416.63066543 -538.569991433,1390.72639699 -561.666090899,1389.92713889 " moovel_rot="3.7" moovel_centroid="-550.539181687,1403.17053877" moovel_centroidlatlon="-73.94734624857443,40.62750165413703"></polygon></g><g transform="translate(509.81975350000005 -445.8754536000001) rotate(0)"><polygon id="180522736" class="tile" points="-329.449212932,1617.80752462 -329.449108694,1638.55291185 -351.130784028,1638.43172513 -354.672378554,1635.1096247 -354.450380968,1620.04185575 -351.678167406,1620.05489687 -351.130751712,1610.9989834 -337.559695655,1611.4481726 -337.695548647,1613.48532794 -335.205055554,1613.17377516 -335.225088524,1617.71021004 -329.449212932,1617.80752462 " moovel_rot="29.3" moovel_centroid="-342.04592344,1625.92005158" moovel_centroidlatlon="-73.87007428994531,40.650931022079014"></polygon></g><g transform="translate(395.3958864 -397.0101799) rotate(0)"><polygon id="442637466" class="tile" points="-210.908697784,1201.01118586 -234.394275982,1201.0 -234.386583229,1225.76600733 -210.901016716,1225.77719458 -210.908697784,1201.01118586 " moovel_rot="-83.2" moovel_centroid="-222.647643318,1213.3885959171262" moovel_centroidlatlon="-73.89944849999999,40.7530518"></polygon></g><g transform="translate(707.9757512 -452.29472050000004) rotate(0)"><polygon id="220770143" class="tile" points="-522.590177195,1635.83898784 -499.539975266,1635.70188357 -498.833285708,1611.40841054 -522.622369497,1610.9989834 -522.590177195,1635.83898784 " moovel_rot="1.8" moovel_centroid="-510.938629285,1623.42157591" moovel_centroidlatlon="-73.95995539963849,40.58682178727244"></polygon></g><g transform="translate(388.1290363 -1181.2681094000002) rotate(0)"><polygon id="299944956" class="tile" points="-254.241338636,1201.10403236 -268.266414636,1201.0 -268.804434399,1219.07578571 -261.973638648,1219.05851895 -262.315198247,1238.80238873 -262.828887713,1248.7786134 -254.247488465,1248.4744529 -254.241338636,1201.10403236 " moovel_rot="-61.8" moovel_centroid="-259.899360786,1221.6185136529434" moovel_centroidlatlon="-73.92831585425965,40.78570363651582"></polygon></g><g transform="translate(595.0693757 -858.2294126) rotate(0)"><polygon id="330741648" class="tile" points="-418.876162541,1610.9989834 -418.889048205,1655.99597492 -428.816729161,1657.2413209 -428.816648186,1620.72330415 -418.876162541,1610.9989834 " moovel_rot="60.7" moovel_centroid="-423.677555387,1636.14096335" moovel_centroidlatlon="-73.98581165255838,40.77682711792521"></polygon></g><g transform="translate(646.9926487 -869.1035916000001) rotate(0)"><polygon id="315400368" class="tile" points="-517.018213535,1994.30922297 -535.378182048,1994.40387473 -535.371972215,1986.69325898 -535.359762291,1980.37445426 -535.36043689,1973.95486658 -535.258758812,1969.98625419 -525.666397317,1970.12618611 -517.138797463,1970.10643985 -517.117612933,1974.18824429 -517.088961964,1980.39363875 -517.050612052,1986.79344425 -517.018213535,1994.30922297 " moovel_rot="66.0" moovel_centroid="-526.231491092,1982.24130309" moovel_centroidlatlon="-73.92166265386919,40.83187863351066"></polygon></g><g transform="translate(593.732652 -1327.1123443) rotate(0)"><polygon id="229891249" class="tile" points="-515.994887163,1970.56228748 -497.577237568,1969.98625419 -494.294396408,1985.11252288 -494.393633941,1988.2917951 -495.791276648,1989.97088097 -499.018205046,1991.69499019 -504.285387788,1992.07091153 -516.018213535,1992.00354785 -515.994887163,1970.56228748 " moovel_rot="56.7" moovel_centroid="-505.830412342,1981.27333303" moovel_centroidlatlon="-73.90948751703874,40.8542982711615"></polygon></g><g transform="translate(196.04535149999998 -219.3278295) rotate(0)"><polygon id="229076145" class="tile" points="-110.755639541,1414.01808267 -110.73698359,1389.92713889 -126.998214632,1389.97046483 -127.009164201,1414.06568033 -110.755639541,1414.01808267 " moovel_rot="61.0" moovel_centroid="-118.875241322,1401.99439031" moovel_centroidlatlon="-73.99528911067519,40.749135932625265"></polygon></g><g transform="translate(374.6677015 -1511.1837114999998) rotate(0)"><polygon id="266174999" class="tile" points="-232.829929463,1814.11042291 -248.433669297,1813.57195643 -248.001211609,1788.96808094 -232.846630635,1790.60953703 -232.829929463,1814.11042291 " moovel_rot="-94.6" moovel_centroid="-240.588785533,1801.86797783" moovel_centroidlatlon="-73.754380713781,40.59545093040775"></polygon></g><g transform="translate(691.7819991 -753.8926544) rotate(0)"><polygon id="231971612" class="tile" points="-549.584679435,1201.0 -560.310552915,1201.04845205 -560.28144173,1233.02238971 -556.76195695,1233.00682468 -556.766676893,1227.52042156 -549.560307471,1227.48751712 -549.584679435,1201.0 " moovel_rot="47.9" moovel_centroid="-555.163886005,1215.2866045610124" moovel_centroidlatlon="-73.91402049118314,40.782325507273576"></polygon></g><g transform="translate(478.0893678 -30.001256900000044) rotate(0)"><polygon id="323715078" class="tile" points="-442.326336606,1223.67386213 -456.322996893,1223.64674954 -456.340608869,1201.0 -442.343931388,1201.02710588 -442.326336606,1223.67386213 " moovel_rot="-68.7" moovel_centroid="-449.333468094,1212.3369270682845" moovel_centroidlatlon="-73.86522365,40.73612225"></polygon></g><g transform="translate(287.3107534 -557.3366437999999) rotate(0)"><polygon id="429404977" class="tile" points="-138.919525913,1201.00775719 -138.90023703,1223.7107428 -152.754316938,1223.69586319 -152.774546681,1204.27073779 -148.774399711,1201.0 -138.919525913,1201.00775719 " moovel_rot="-75.0" moovel_centroid="-145.718554334,1212.570586252438" moovel_centroidlatlon="-74.19792797258725,40.543727109176686"></polygon></g><g transform="translate(417.7388866 -1079.1946484999999) rotate(0)"><polygon id="412123940" class="tile" points="-244.342467856,1391.34935066 -250.049528255,1393.92317446 -256.573445149,1389.92713889 -258.297878271,1408.9957106 -251.282015754,1414.43907983 -244.314380436,1410.75908566 -244.342467856,1391.34935066 " moovel_rot="25.8" moovel_centroid="-250.975871487,1402.43625625" moovel_centroidlatlon="-73.87198054002303,40.65389610179711"></polygon></g><g transform="translate(744.9611695000001 -889.4001849000001) rotate(0)"><polygon id="167246604" class="tile" points="-575.88145482,1389.92713889 -575.878966176,1413.24050312 -564.688549283,1413.27902293 -564.696647551,1389.96203327 -575.88145482,1389.92713889 " moovel_rot="-32.7" moovel_centroid="-570.286260002,1401.6031491" moovel_centroidlatlon="-74.0278871347093,40.620402291511915"></polygon></g><g transform="translate(411.4417317 -1557.1450009) rotate(0)"><polygon id="376406583" class="tile" points="-312.05200075,1806.41350003 -296.182190115,1806.03578707 -296.899751703,1788.96808094 -312.0430106,1789.20318606 -312.05200075,1806.41350003 " moovel_rot="82.7" moovel_centroid="-304.302515587,1797.72249366" moovel_centroidlatlon="-73.92589760898257,40.74400534603255"></polygon></g><g transform="translate(648.1921034000001 -1658.5971962) rotate(0)"><polygon id="252080063" class="tile" points="-478.526337172,1813.31059955 -478.530744399,1797.49265381 -478.53665436,1788.97763806 -473.929101662,1788.96905872 -469.005539553,1788.96808094 -469.003973061,1813.3004612 -478.526337172,1813.31059955 " moovel_rot="-93.8" moovel_centroid="-473.767575383,1801.13648828" moovel_centroidlatlon="-73.91141070901102,40.67448642921807"></polygon></g><g transform="translate(581.7906427 -489.75043800000003) rotate(0)"><polygon id="220792595" class="tile" points="-496.002806422,1228.54632067 -489.420042327,1229.08182546 -487.786648664,1217.11221874 -488.369878042,1204.17897917 -488.921643273,1201.0 -495.9816363,1202.63311147 -495.327732754,1211.26664227 -495.401044708,1220.7934532 -496.002806422,1228.54632067 " moovel_rot="43.4" moovel_centroid="-491.906325953,1215.0925860664208" moovel_centroidlatlon="-73.93505826118273,40.7838507120622"></polygon></g><g transform="translate(362.041037 -769.3947114) rotate(0)"><polygon id="201148567" class="tile" points="-282.99494791,1201.0 -269.804434399,1216.64693157 -276.318229873,1221.99885946 -283.018849442,1227.51509367 -282.99494791,1201.0 " moovel_rot="-39.4" moovel_centroid="-278.606524771,1215.0526009233386" moovel_centroidlatlon="-73.83845821477497,40.654730342498546"></polygon></g><g transform="translate(416.6521854 -1214.3982445000001) rotate(0)"><polygon id="326257563" class="tile" points="-288.728375629,1813.00182004 -293.226861058,1812.45174715 -295.181065005,1812.2615475 -295.182190115,1788.96808094 -287.160969095,1790.1328776 -288.728375629,1813.00182004 " moovel_rot="-41.5" moovel_centroid="-291.554072295,1800.66370998" moovel_centroidlatlon="-73.88392371198391,40.859662556772165"></polygon></g><g transform="translate(273.2582272 -868.1819432) rotate(0)"><polygon id="292852076" class="tile" points="-263.286099787,1972.0964847 -260.391784325,1987.62321837 -252.440412513,1986.1824821 -252.512479366,1972.06936863 -252.437859015,1969.98625419 -263.286099787,1972.0964847 " moovel_rot="71.3" moovel_centroid="-257.189119692,1978.57198024" moovel_centroidlatlon="-73.9890530340486,40.74688070089119"></polygon></g><g transform="translate(458.6385445 -430.142417) rotate(0)"><polygon id="247141744" class="tile" points="-417.867975691,1611.01980016 -407.462552394,1610.9989834 -407.468955985,1624.90094084 -417.876162541,1624.93263077 -417.867975691,1611.01980016 " moovel_rot="28.0" moovel_centroid="-412.669589471,1617.96328847" moovel_centroidlatlon="-74.20026401463983,40.52586677661288"></polygon></g><g transform="translate(305.05336 -1423.9406442) rotate(0)"><polygon id="185632783" class="tile" points="-247.513010106,1970.03868215 -249.389287956,1970.06226515 -251.425908413,1970.07294881 -251.437859015,1981.71322048 -241.990037096,1981.56523939 -242.132966199,1969.98625419 -247.513010106,1970.03868215 " moovel_rot="-49.7" moovel_centroid="-246.750221251,1975.85179234" moovel_centroidlatlon="-73.93141096424971,40.61712164106367"></polygon></g><g transform="translate(397.5597764 -883.0651645) rotate(0)"><polygon id="315569670" class="tile" points="-359.401847255,1201.0060121 -359.398777067,1214.06544409 -364.474391378,1214.057757 -364.470995832,1201.0 -359.401847255,1201.0060121 " moovel_rot="-14.5" moovel_centroid="-361.936448964,1207.533690517931" moovel_centroidlatlon="-73.96724463098107,40.68145573484424"></polygon></g></g><g transform="translate(0 1327.7)"><polygon id="3" class="bin" points="432.457283549,1207.499999 435.108933979,1206.40164943 436.207283549,1203.749999 436.207283549,3.75 435.108933979,1.09834957055 432.457283549,0.0 282.321044034,0.0 279.751372952,1.01882982437 278.577999223,3.52171171826 273.772624898,82.3112636629 273.767786088,82.4135822835 272.261531704,127.228072391 272.122052492,128.393533958 267.255740937,151.842498411 266.833083607,153.17714663 256.18203657,177.766791374 255.56281961,178.893661773 242.721235197,197.819457235 241.700758806,199.005917339 240.000951962,200.577754266 224.987671141,214.430828018 223.895302012,215.253583807 212.089803934,222.424282132 210.41461596,223.156978205 185.402428958,230.316218909 184.361846505,230.528702277 174.100860233,231.808443386 171.837852036,232.955633557 170.823205655,235.281089236 171.521385719,237.720309601 173.612793253,239.156716896 201.073578522,246.365578379 204.518259462,248.922282964 205.238669951,253.151180438 181.779768964,361.592327129 177.247165413,366.586413139 171.165708576,368.533477854 169.193124815,370.018539993 167.158657388,373.05706463 166.678678758,376.207030036 172.382522703,395.491443109 173.974131543,397.597205341 174.603801353,397.995425453 177.591238062,398.444913236 184.151453318,396.662867579 187.912197089,396.713089857 201.156147751,400.69340988 204.686665521,403.741563013 204.77098397,408.405111409 199.446743625,420.92207092 199.202921088,421.747776528 195.137647616,445.138073314 195.064899091,445.499051194 193.791537884,451.045943588 193.161398966,451.961115075 192.692727809,455.274383141 193.020058355,456.255699164 191.720524533,459.840130679 189.406848613,462.685532991 188.566706638,465.002001266 189.345588106,467.339779584 190.929747667,469.396308982 240.73418448,691.835140071 240.820904536,692.295508084 242.737615541,704.799000737 242.79847834,705.336485578 243.673818471,717.24033864 243.686926955,717.4719913 244.000691496,725.381003611 243.973867707,726.318220687 243.413353646,732.085958268 243.397328676,732.234150937 242.654242428,738.472444965 242.519809464,739.233602287 240.618996002,747.31283797 240.47603214,747.829291722 235.755814089,762.613597412 235.601428653,763.337033504 234.831339183,770.217439772 234.808075321,770.627711294 234.797244325,776.563386363 234.811453709,776.896442386 235.402042205,783.659843082 235.477965393,784.150891128 237.806252842,794.577432026 237.830448061,794.679101026 239.912959663,802.918372447 239.973653328,803.179893669 242.073575615,813.104340982 242.122876742,813.361415982 243.18801064,819.55017815 243.220193368,819.755731167 243.815851889,823.977300266 243.878320731,824.676832499 244.110563859,830.792680048 244.103137622,831.465834805 243.691389907,838.31790338 243.579864146,839.204793621 242.474583169,844.946739376 242.357537578,845.451487202 241.129209321,849.967711549 240.982593309,850.43921033 239.053570676,855.937908659 238.738665877,856.689591966 237.541950289,859.129243216 237.171592431,859.789582838 232.974922371,866.391416675 232.298312631,867.285330183 229.794661513,870.085384586 229.637754471,870.272820085 226.570589405,874.189328591 225.860109125,874.965834713 218.248951463,882.100857651 217.72323542,882.546343368 206.010615446,891.502767746 205.72469687,891.709988085 199.070271233,896.276814717 198.93564305,896.36689343 165.913722546,917.902795688 165.361641662,918.342081883 163.166265951,920.455238951 162.190961778,921.028701647 160.557662764,923.00703578 160.578340607,925.572390343 161.864690953,929.019464211 165.349461736,1024.39718753 163.933529431,1028.39508595 161.861793068,1029.46472579 160.042716451,1031.55792414 160.159293792,1034.32865126 162.147771117,1036.26164815 164.18631472,1037.10557382 165.954425154,1040.89267522 166.681713436,1051.88726485 165.250149771,1056.07441437 164.686337104,1056.34703273 163.047953083,1057.88885586 162.58682754,1060.09087402 165.813771245,1092.83443616 165.824941053,1092.93410176 173.624577267,1155.01616993 173.630832119,1155.0635165 180.449749673,1204.26479944 181.701320746,1206.57780748 184.16424567,1207.499999 432.457283549,1207.499999 " moovel_rot="0" moovel_centroid="320.74337115356224,639.1966560989741" moovel_centroidlatlon="0,0" transform="translate(-160.0427094 0)"></polygon><g transform="translate(411.5382335266294 -670.8019934273237) rotate(0)"><polygon id="276542273" class="tile" points="-371.214700461,1610.9989834 -373.076653614,1617.27334471 -371.54526875,1617.72709909 -386.815382347,1669.36514484 -388.846665788,1668.76365216 -390.664134656,1674.90428877 -388.63285124,1675.50578152 -404.415663913,1728.64273732 -406.462552394,1728.87107932 -405.782793425,1735.01661239 -403.238248,1734.73114615 -397.221060435,1788.96808094 -355.672378554,1784.36338055 -357.242658978,1770.23015653 -385.50482312,1773.36319742 -390.336142534,1729.86564817 -385.592502561,1713.72249022 -388.420776705,1712.89298591 -382.347725874,1692.33026922 -378.842097192,1693.3665427 -372.762683423,1672.80585843 -371.910915884,1669.90678892 -355.841033326,1615.54714728 -369.063000418,1611.64053257 -371.214700461,1610.9989834 " moovel_rot="-18.4" moovel_centroid="-382.470732494,1709.44368683" moovel_centroidlatlon="-73.90532812993608,40.9080573012363"></polygon></g><g transform="translate(119.5122117 -347.0796680000001) rotate(0)"><polygon id="243997136" class="tile" points="-90.3967984263,1396.59207078 -50.5052991323,1389.92713889 -49.1393292822,1425.53683521 -53.6222945096,1443.1464262 -90.4445517682,1431.80773425 -90.3967984263,1396.59207078 " moovel_rot="16.1" moovel_centroid="-68.9563455628,1415.43734694" moovel_centroidlatlon="-73.92017437039277,40.55953135435923"></polygon></g><g transform="translate(332.8351586 -809.8781283000001) rotate(0)"><polygon id="302359513" class="tile" points="-256.962607761,1788.96808094 -286.133457616,1801.84227613 -283.120974953,1820.9145007 -283.872805889,1832.23686406 -286.160969095,1839.78085275 -254.474745644,1851.04798878 -250.899429081,1839.57778265 -249.433669297,1824.36332414 -250.186802407,1811.13675792 -253.221814989,1797.4533797 -256.962607761,1788.96808094 " moovel_rot="74.4" moovel_centroid="-266.623629537,1820.43221271" moovel_centroidlatlon="-73.89984587703795,40.55804213521644"></polygon></g><g transform="translate(92.2896046 -294.1297919000001) rotate(0)"><polygon id="288448676" class="tile" points="-7.62507960163,1389.92713889 -6.39914755896,1394.26683221 -2.99233137332,1406.32185596 -1.82194240764,1410.48644958 0.0,1416.75767018 -0.562367840856,1416.90729536 -4.86665124223,1418.12219267 -6.32574015632,1418.53356144 -10.638507206,1419.75551381 -8.09111455791,1428.76341219 -8.65873451605,1429.6780782 -8.38775011562,1430.64211508 -7.37855749726,1431.19963659 -6.44486861452,1434.48922489 -7.03794001937,1435.42505827 -5.78167223856,1439.87088632 -0.00981835126877,1438.23757416 -40.5192520659,1450.04279804 -47.1393292822,1426.60864553 -41.4001250178,1424.76045455 -26.0304769903,1420.42090707 -32.5918458581,1397.20752727 -7.62507960163,1389.92713889 " moovel_rot="-13.0" moovel_centroid="-21.91695146252119,1421.48586555" moovel_centroidlatlon="-73.99035269551817,40.75791372042157"></polygon></g><g transform="translate(223.8526155 -465.24306820000004) rotate(0)"><polygon id="354590309" class="tile" points="-163.419445673,1390.62003177 -128.009164201,1389.92713889 -128.152135876,1401.69585869 -128.125957671,1412.61850642 -129.848459107,1412.62292629 -129.848021947,1414.06789742 -140.974881094,1414.08938984 -140.963207773,1421.64057678 -129.833105706,1421.61324528 -129.827035315,1423.28302963 -128.104535058,1423.2786091 -128.07475845,1434.84536092 -129.234018974,1434.8498701 -129.219320941,1440.20889464 -145.675517713,1440.24530016 -145.690011515,1431.01849369 -146.514639295,1431.0181555 -146.527560769,1425.78242478 -146.961730709,1425.78537889 -146.962508807,1423.88921831 -151.636780306,1423.90182153 -151.632753326,1425.79214635 -152.026460051,1425.79468981 -152.014098731,1431.32058313 -163.07779205,1431.10204695 -163.419445673,1390.62003177 " moovel_rot="60.9" moovel_centroid="-145.448722523,1412.36981389" moovel_centroidlatlon="-73.96486851970168,40.79798349183156"></polygon></g><g transform="translate(262.01209689999996 -953.1157466) rotate(0)"><polygon id="181959269" class="tile" points="-181.943733264,2039.48250948 -163.701448842,2013.18351766 -182.878123708,2000.75401359 -156.511858647,1969.98625419 -155.063693382,1970.59880492 -155.049010792,2058.74346414 -181.943733264,2039.48250948 " moovel_rot="5.0" moovel_centroid="-164.523519379,2015.74370062" moovel_centroidlatlon="-73.91937579807957,40.63218482441607"></polygon></g><g transform="translate(341.5873001 -1022.8482115) rotate(0)"><polygon id="281478459" class="tile" points="-218.603861595,2040.66438035 -218.651195285,1969.98625419 -240.710192033,1970.26747061 -240.990037096,2032.80880944 -223.23015257,2038.76382676 -223.324451503,2039.24713488 -218.603861595,2040.66438035 " moovel_rot="4.7" moovel_centroid="-229.512002098,2003.51363029" moovel_centroidlatlon="-73.8106110090526,40.70759673323559"></polygon></g><g transform="translate(405.0175206 -91.59247320000009) rotate(0)"><polygon id="144630629" class="tile" points="-307.816290642,1201.0 -307.848203128,1259.35458493 -295.945229625,1259.07153782 -284.018849442,1258.91888311 -284.255817627,1203.16484917 -296.437658076,1202.05260475 -307.816290642,1201.0 " moovel_rot="-20.1" moovel_centroid="-296.075112274,1230.6465273174713" moovel_centroidlatlon="-73.8988592201634,40.885920902998016"></polygon></g><g transform="translate(162.9650819 -1100.915587) rotate(0)"><polygon id="389547532" class="tile" points="-25.4971295247,2174.41917901 -50.6260423351,2173.1489005 -51.0158565124,2123.75523579 -25.4231162205,2123.43577353 -25.4971295247,2174.41917901 " moovel_rot="-93.7" moovel_centroid="-38.0734664992,2148.61371259" moovel_centroidlatlon="-73.8358492987776,40.78604603079377"></polygon></g><g transform="translate(470.26469099999997 -892.0437267) rotate(0)"><polygon id="374156365" class="tile" points="-320.093732964,1972.81919932 -343.909332614,1969.98625419 -344.940587769,1993.71976158 -343.742690073,2021.01191095 -320.110456184,2021.78763517 -320.093732964,1972.81919932 " moovel_rot="-87.1" moovel_centroid="-332.328012088,1996.32948645" moovel_centroidlatlon="-73.89694137627383,40.74678522737419"></polygon></g><g transform="translate(635.7356067000001 -824.5395631) rotate(0)"><polygon id="251110316" class="tile" points="-507.752388274,1842.04533308 -507.758670163,1788.96808094 -479.53665436,1789.446194 -479.896542184,1822.60880689 -479.960294493,1829.16008255 -502.685456844,1828.78346191 -502.906285057,1842.11915956 -507.752388274,1842.04533308 " moovel_rot="-34.1" moovel_centroid="-494.400732865,1810.49567706" moovel_centroidlatlon="-74.02970360635129,40.616912662717326"></polygon></g><g transform="translate(570.1766749 -1043.2756857999998) rotate(0)"><polygon id="299944948" class="tile" points="-547.017688955,2021.0240144 -536.378182048,1987.88751336 -536.40446205,1979.32699435 -540.36548734,1977.8238289 -557.742752998,1971.6134956 -562.270033218,1969.98625419 -565.551879721,1984.34825299 -565.556051331,1989.60543272 -565.013193394,1995.21733964 -563.908774426,1999.9779943 -561.863742846,2004.86214113 -558.758839685,2010.00505372 -555.660467242,2014.31672529 -551.059984273,2018.73769103 -547.017688955,2021.0240144 " moovel_rot="-48.6" moovel_centroid="-551.664707072,1993.02649425" moovel_centroidlatlon="-73.92703406035771,40.78479073457494"></polygon></g><g transform="translate(158.0168233 -476.8015789000001) rotate(0)"><polygon id="347320347" class="tile" points="-23.2610324889,1610.9989834 -32.2146963604,1619.67774477 -26.9164129615,1625.84744282 -17.7936971258,1636.08653155 -20.2817695074,1638.1867958 -11.0755600691,1649.09220105 -32.1754691675,1667.21374577 -28.5021999981,1676.03874072 -19.1443261363,1665.52497609 -15.9592169166,1667.11656283 0.0,1637.4933671 -23.2610324889,1610.9989834 " moovel_rot="-41.1" moovel_centroid="-16.732588171389583,1640.58415721" moovel_centroidlatlon="-73.96337003839005,40.648258304378025"></polygon></g></g></svg>