<svg><g transform="translate(0 0)"><polygon id="4" class="bin" points="-1.875,0.0 0.77665042945,1.09834957055 1.875,3.75 1.875,1203.749999 0.77665042945,1206.40164943 -1.875,1207.499999 -189.759391107,1207.499999 -192.437272525,1206.37515635 -193.50864982,1203.67543959 -192.330786522,1201.02045222 -175.134864876,1184.82087124 -174.214255419,1183.75533616 -164.734960396,1170.18947603 -164.071997172,1169.00729298 -156.633160812,1151.99883554 -156.140282577,1150.30875382 -153.324646348,1132.31578918 -153.276968933,1130.56270343 -155.272502861,1110.84216401 -155.351094659,1110.29012525 -163.395091207,1066.57772236 -163.081410743,1064.26320086 -161.458668308,1062.58328652 -159.554364641,1061.57727808 -158.122362483,1057.7130522 -158.499959988,1020.16520593 -157.85041771,1018.01779537 -156.091221451,1016.62549302 -155.86681925,1016.5395595 -154.099363997,1012.44986471 -153.00787505,895.79250207 -154.652519938,891.714156471 -158.699192061,889.993051242 -206.649293604,889.53922532 -246.573356109,889.195897302 -249.650071348,887.542903524 -250.02990633,884.070974596 -249.536423231,882.818912303 -250.807309263,833.436853965 -250.154208758,831.223917396 -248.329187575,829.812207012 -247.671483029,829.57534092 -245.852809101,825.431749141 -245.287377173,753.26445714 -246.564701231,749.234363452 -280.510250026,701.855655464 -281.150133998,698.99375597 -279.534482453,696.546392022 -277.92954543,696.247940503 -273.668453162,693.835537346 -249.62365953,664.650464857 -248.478708737,662.653529785 -240.844844429,641.873701776 -237.254412474,632.096113249 -236.878834207,630.516760491 -233.335609481,599.845648232 -233.348798646,598.162506672 -237.328790599,567.881257891 -237.588590525,566.70926909 -247.648175499,534.823906956 -248.371790824,533.253660463 -266.586966545,504.072890123 -267.390563066,503.025144043 -289.278559812,479.554404598 -300.591637369,467.412698567 -300.788915622,467.213582363 -301.874999,464.574255133 -301.874999,413.348389673 -300.886815185,410.811684849 -278.680044455,386.634248727 -277.027235993,383.431067478 -266.752217931,335.170940973 -265.375417605,332.983031402 -262.909934344,332.205908681 -239.538762334,333.294584221 -235.270435525,331.670792673 -233.546307746,327.441998974 -234.812181916,272.252647731 -236.534488992,268.278228324 -240.540943997,266.631817202 -254.271307168,266.578075988 -257.373884798,264.912623885 -272.896503348,241.699614566 -273.524519781,239.426838668 -272.912608089,227.253167393 -272.987108887,225.842564384 -276.50795722,203.420552138 -278.673581981,199.758190044 -282.762307808,198.581267006 -284.480747397,198.750194791 -297.758848154,200.052896212 -300.643871201,199.098904329 -301.874999,196.320814547 -301.874999,168.232391449 -300.889939621,165.699092541 -298.452277208,164.496700218 -295.842674278,165.256909327 -283.505019928,174.720428976 -279.381132554,176.129906022 -266.354050434,176.186609395 -262.217208093,174.81244521 -258.858049716,172.28113781 -256.805508312,169.775135751 -252.969514237,161.7825472 -252.294952427,158.81692357 -252.320438891,3.75061634431 -251.222307272,1.09856749013 -248.570438941,0.0 -1.875,0.0 " moovel_rot="0" moovel_centroid="-120.28040726841077,551.4809293427131" moovel_centroidlatlon="0,0" transform="translate(301.875 0)"></polygon><g transform="translate(-378.07643693898825 -1075.2604920747904) rotate(0)"><polygon id="421260509" class="tile" points="428.825437089,1439.40138548 413.803304815,1453.58527532 436.237839898,1476.47167937 537.112032468,1374.97628457 543.142535433,1360.43965596 543.760574985,1348.59911668 510.903589319,1257.61312882 488.854022656,1201.0 413.831102297,1268.5518505 456.155845294,1306.53212557 447.86818006,1318.37218522 447.589312243,1350.00289753 478.489451453,1381.23165093 465.493267342,1393.77884764 463.274085121,1391.21025975 425.089186652,1427.09762708 427.060624682,1429.67503868 423.893631101,1433.03657906 428.825437089,1439.40138548 " moovel_rot="-74.8" moovel_centroid="479.948178403,1333.1292075457072" moovel_centroidlatlon="-73.76864928491601,40.650747561072464"></polygon></g><g transform="translate(-260.8754776 -1090.6000599) rotate(0)"><polygon id="354587915" class="tile" points="341.232907731,1476.47167937 416.305554819,1478.81162243 415.608481534,1552.48849732 431.920447937,1552.80550154 431.980363445,1638.64000771 321.238528401,1634.44769056 321.904228724,1552.68549948 338.926707404,1552.82421022 341.232907731,1476.47167937 " moovel_rot="62.2" moovel_centroid="377.451855082,1564.4329655" moovel_centroidlatlon="-73.96459534357484,40.79374975616342"></polygon></g><g transform="translate(-217.7008017 -1257.4536685) rotate(0)"><polygon id="25346338" class="tile" points="284.92942068,1950.70069463 372.698128847,1953.0622098 372.656424773,1898.9387274 369.014314578,1895.87210395 331.570174566,1814.4922323 324.731685709,1808.05643489 300.747644164,1809.79193342 292.844700363,1817.97307845 289.55596209,1824.01077773 284.92942068,1950.70069463 " moovel_rot="-66.7" moovel_centroid="324.748082512,1890.10063377" moovel_centroidlatlon="-73.85290368632266,40.74866041604249"></polygon></g><g transform="translate(-326.12355990000003 -1388.192444) rotate(0)"><polygon id="412129496" class="tile" points="486.539389807,1791.11693012 489.962978513,1773.48741085 479.374346064,1770.73559376 476.98056206,1765.59001468 477.725436972,1760.0831564 503.856458982,1765.59229781 503.732460206,1769.27926972 506.076568676,1770.12033211 507.301551747,1765.96315837 527.094559748,1769.79547763 526.355857737,1773.6577133 529.053469013,1774.0892265 529.961466637,1770.8495793 542.043333094,1773.24037049 542.28956164,1771.31767867 530.06391429,1768.81160241 530.886208099,1764.31565989 528.814295758,1763.7095509 527.9770625,1767.95436982 507.425575368,1764.18203356 508.513416677,1759.9153055 506.441499262,1759.30919213 505.353658457,1763.57592063 478.858550292,1758.22014162 484.577851627,1730.02554275 510.432360291,1735.30482751 509.830808667,1739.27662495 511.748372145,1739.51127537 512.887671385,1736.00364922 534.234189255,1740.2240094 534.476049663,1738.30637037 512.861700406,1733.84600108 513.816760544,1729.46465938 512.134868594,1728.95697875 511.061972617,1733.47483549 485.055378434,1727.83486909 490.654541026,1699.76597417 514.282812556,1704.06771215 513.621530813,1708.94086477 516.175377236,1709.25710674 517.498883625,1704.7173429 528.036072621,1706.71007057 528.550122713,1705.02737937 517.376653276,1702.95306231 518.243754934,1699.21048151 516.63881009,1698.06335849 514.929639062,1702.49963048 490.859870768,1697.3403463 497.215397922,1669.22728968 520.479623759,1673.68242499 520.006494758,1677.77389713 521.422836891,1678.05236131 522.934944711,1674.38125521 536.529503124,1676.65722109 536.694407439,1675.3790167 523.02907852,1672.09787379 523.782704493,1668.48674835 522.332114053,1667.71108869 520.957149223,1671.49175017 497.174474516,1666.81850673 502.636437665,1638.64000771 527.059797698,1643.38981947 526.119692328,1648.02229798 528.309460838,1648.49190948 529.495816946,1643.84258396 553.278465698,1648.51580499 537.754967133,1727.40765265 540.769598451,1728.82749483 542.983517495,1735.00013642 542.403538105,1739.22878272 546.290113675,1740.45717743 545.058938083,1746.25895684 547.632075392,1746.8212552 549.867560514,1753.25074034 549.04526455,1757.74668099 551.256588843,1758.47312715 550.39777326,1762.46108851 551.801737488,1767.93459585 551.140431208,1772.80772728 552.426091346,1774.86156891 551.846101897,1779.09020653 553.455869483,1785.69427139 549.804843336,1803.84215655 522.172419841,1798.44876285 522.988078892,1793.94709336 516.834812178,1792.88855068 515.526230982,1797.6794258 486.539389807,1791.11693012 " moovel_rot="-49.2" moovel_centroid="518.51091063,1725.08364792" moovel_centroidlatlon="-73.87089292644501,40.65476132011189"></polygon></g><g transform="translate(25.386335599999995 -1400.2818309) rotate(0)"><polygon id="296322555" class="tile" points="136.796739452,1953.3548968 210.926096341,1953.0622098 211.032706307,2055.13886166 203.571271241,2055.14918417 203.582809202,2060.87312244 134.625615511,2061.24162481 134.515398018,2023.11678628 136.47805051,2023.1146465 136.796739452,1953.3548968 " moovel_rot="-32.5" moovel_centroid="173.252954813,2007.22240009" moovel_centroidlatlon="-73.98645689286226,40.675189548196265"></polygon></g><g transform="translate(136.0667579 -1103.0150191999999) rotate(0)"><polygon id="286758886" class="tile" points="45.7652788363,1349.52112283 92.7635048538,1230.45006898 1.02358567864,1201.0 1.0,1254.30275167 8.31222289987,1302.8959022 28.3998310618,1308.80768787 35.8660659038,1344.14711348 45.7652788363,1349.52112283 " moovel_rot="-50.6" moovel_centroid="39.91341306134972,1264.1844026584577" moovel_centroidlatlon="-73.83492372551424,40.769298528357446"></polygon></g><g transform="translate(172.32249220000003 -1918.3572949999998) rotate(0)"><polygon id="364973316" class="tile" points="59.4371410117,2261.42229012 64.6208065115,2261.37124345 64.4763379864,2259.46914684 64.4894574072,2257.51129012 65.1391767703,2256.44573769 65.8911796283,2255.96238181 68.8321301157,2255.91267838 85.236895627,2255.77088926 85.5691095389,2247.71086794 80.5837733982,2247.81096749 80.5796616137,2247.55466801 80.5192457061,2245.36879129 69.6086319942,2245.46962205 69.5804122904,2246.64284508 69.6186448755,2249.16823603 69.2510348771,2250.90797477 68.9308037221,2252.02816027 68.0537734214,2252.64674927 66.6147824593,2252.79788009 65.3641022753,2252.64468123 64.6688898835,2251.7998569 64.3995736534,2242.89899597 64.2269583013,2226.41846558 64.0729130641,2208.47693874 63.7979147043,2176.59332843 65.1083446983,2174.99055897 66.8441628598,2173.84006377 68.8516476091,2173.41016322 70.3636917401,2173.39957778 71.4823498122,2173.39410747 72.5274017077,2173.6260105 73.1435514234,2174.21134538 73.0428008366,2177.72408438 93.9423354402,2177.80179823 94.1214581907,2175.85725585 94.3833911918,2174.36289531 95.0653570686,2173.79847101 96.8586640261,2173.35632566 98.2742459979,2173.32601379 108.229449973,2173.2282367 109.600117268,2173.30220972 111.753439873,2173.10965082 113.245564969,2173.36683229 115.028895914,2174.01122772 115.730492117,2175.04060754 116.256917049,2176.80903841 116.352577554,2162.82934306 115.706778153,2164.59471946 114.872999168,2165.29011339 113.957880326,2165.79775965 111.249404306,2166.26028904 109.106403415,2166.3845707 109.68178993,2157.78204601 108.358962605,2078.35209412 107.718789854,2077.77823002 106.279547266,2077.88561899 103.309520445,2078.00279489 100.815214154,2077.52490119 99.6770260654,2076.91109175 98.8666121913,2076.04574282 98.2638608316,2074.98620984 97.8878782596,2073.79889926 97.8190250635,2072.49660307 97.835748107,2071.66022443 92.2393655293,2072.09349011 92.4683821484,2073.79928696 92.3691337038,2075.66914493 91.9708173133,2076.70479589 91.421857157,2077.60284691 90.1117389698,2078.78396029 87.8998414218,2079.5112559 70.733063961,2081.24474417 68.750150254,2081.28525307 67.6963077907,2080.91866377 65.6830629461,2079.36803229 64.4766256377,2077.56127048 63.9761804331,2075.17861496 64.1094150476,2072.21073986 59.3010788688,2072.38706764 59.2542254305,2075.48668356 59.0040114067,2078.5932578 58.4855712892,2080.63892344 57.8417467069,2081.80155379 56.8783290979,2082.28839931 55.3859268237,2082.94012941 49.8869001541,2083.08079978 49.906891158,2167.3311249 49.8424367093,2167.76879028 53.240010486,2168.01027912 52.8941653218,2173.15553088 54.179688856,2173.31646342 55.4858572217,2173.34084207 56.924175531,2173.54576168 58.0763087574,2174.26011607 58.9972469404,2175.2676035 59.7953629505,2176.80397516 59.9551979292,2178.58178915 59.4371410117,2261.42229012 " moovel_rot="-66.7" moovel_centroid="78.9269583689,2136.34183245" moovel_centroidlatlon="-74.05799861087488,40.60135581967516"></polygon></g><g transform="translate(76.8385896 -1218.7518475000002) rotate(0)"><polygon id="239584448" class="tile" points="98.8054757355,1644.25902899 98.9459788369,1646.58274374 100.615599348,1674.35979842 107.205521994,1674.1688687 107.281080151,1725.17221557 118.323714693,1726.66538106 118.313107068,1733.95240257 115.182815249,1734.6265057 113.645670696,1737.54446436 101.480294651,1737.99351889 101.531261811,1744.91136937 98.9888005676,1746.0330076 100.814168989,1749.68483921 102.390542698,1754.48084562 160.110518446,1756.39796811 160.756644525,1755.52451427 161.756138938,1755.00699074 162.808866109,1755.09609649 162.821793652,1639.6087262 99.8542029681,1638.64000771 98.8054757355,1644.25902899 " moovel_rot="-22.9" moovel_centroid="133.711228177,1695.82848365" moovel_centroidlatlon="-73.94794102332342,40.736703411165486"></polygon></g><g transform="translate(-91.99786180000001 -1156.6628403) rotate(0)"><polygon id="245135709" class="tile" points="372.398564921,1201.87223233 322.182089799,1201.0 308.251642047,1205.03011371 309.780192949,1207.69794552 304.654254109,1208.70626193 304.749067201,1273.82223464 322.44723642,1273.57017086 323.319610509,1279.95719161 332.061355336,1286.44656321 378.26344508,1286.58605243 378.628967794,1217.3593651 373.123051761,1217.57814722 372.398564921,1201.87223233 " moovel_rot="-25.7" moovel_centroid="342.473877361,1243.1641473034367" moovel_centroidlatlon="-74.12570680584479,40.59561836877095"></polygon></g><g transform="translate(52.067257999999995 -1438.9647036000001) rotate(0)"><polygon id="59379227" class="tile" points="0.0228083739057,1562.52225526 0.0,1517.45350241 19.2460954545,1516.85928803 17.7670140736,1479.17708174 68.6713476185,1476.47167937 75.8410552494,1476.94616868 76.058114126,1531.97748429 77.8861696612,1537.88568907 49.3340951627,1566.42309954 0.0228083739057,1562.52225526 " moovel_rot="16.6" moovel_centroid="40.46455156327379,1522.26865105" moovel_centroidlatlon="-74.22239292183069,40.54792942496772"></polygon></g><g transform="translate(43.80711260000001 -1804.0392266) rotate(0)"><polygon id="362875845" class="tile" points="160.10707167,1808.13370899 129.878778786,1808.05643489 125.860682428,1810.09844188 107.460054648,1829.70577422 105.217893724,1834.62322089 105.17268296,1900.71188293 121.950989611,1900.78251165 121.95323982,1905.71114498 153.669377573,1905.82725071 153.666720515,1902.09997301 163.873432981,1902.13141558 163.847749914,1854.94309173 163.830500017,1820.23947464 160.115114034,1820.2339897 160.10707167,1808.13370899 " moovel_rot="58.3" moovel_centroid="135.587161715,1858.36282855" moovel_centroidlatlon="-73.98961487302304,40.67533383460772"></polygon></g><g transform="translate(185.92366779999998 -1284.5243255) rotate(0)"><polygon id="283809362" class="tile" points="79.0631648045,1808.28384133 59.9178069912,1818.87175621 56.9196833948,1825.28184717 55.5396620031,1832.26254582 55.3955929227,1844.04578947 56.8851518709,1856.06912333 60.2065085959,1857.32221778 60.7616367193,1858.92533215 58.9603081189,1860.05094644 57.4887243498,1859.25996333 57.5976175884,1933.19894005 98.9322449261,1932.07496423 98.9146659898,1830.21997766 98.5967796443,1823.53743254 96.5867964502,1820.62862561 87.1056208946,1810.22050646 84.8864805084,1808.69175967 82.6796144035,1808.05643489 79.0631648045,1808.28384133 " moovel_rot="70.9" moovel_centroid="78.0379544708,1872.90839889" moovel_centroidlatlon="-73.77610943285306,40.67925052588878"></polygon></g><g transform="translate(-183.0219724 -1148.0558647) rotate(0)"><polygon id="274459121" class="tile" points="422.416170901,1920.8081874 441.223769196,1920.29954912 441.220107896,1916.85038368 441.565765815,1916.40271705 441.97422631,1916.22764786 444.065452075,1916.15241753 444.106283486,1910.92782715 442.406843956,1910.72296058 442.42575469,1906.32311073 435.791621568,1906.43591515 435.709523364,1910.99998053 435.142051274,1911.24521161 433.842899135,1911.00706048 433.311038804,1910.57000434 432.711637957,1909.60561308 432.506097955,1908.13875461 432.450093759,1906.09225872 432.212088577,1900.98775142 432.382643676,1900.30156142 432.655186409,1899.86773139 433.000910245,1899.4977835 433.431168952,1899.24566436 434.132288642,1899.24840355 434.651820035,1899.36885108 435.10057197,1899.59164525 435.425865582,1900.0277275 435.795926422,1900.80553259 435.895774147,1901.20254281 438.312745848,1901.20429732 448.350099117,1900.38650624 459.666687393,1899.42838079 459.301368596,1889.04853635 437.927167318,1889.15425323 437.96767836,1893.39781807 437.667238424,1893.82811343 437.230880578,1893.99964824 436.633888193,1894.10461925 436.024632532,1893.97070091 435.389489087,1893.5331573 435.160732057,1893.1429137 434.786391604,1892.65440871 434.498660513,1892.0613624 434.488043436,1874.95505648 434.950540135,1873.59175285 435.975973829,1872.86477379 437.200127235,1872.66915436 438.27175944,1873.09060259 438.162920164,1877.2438391 465.97216351,1876.93074263 466.055188563,1873.4547313 466.391765604,1872.96390289 466.864390665,1872.88727615 468.280190866,1872.87976704 468.386281239,1861.84971049 468.64687526,1857.95302524 469.021915043,1854.78075165 470.318717738,1850.41468254 471.610465018,1847.21155215 454.057929227,1829.58337849 452.029494334,1828.12493529 449.029468191,1826.87521985 446.687291966,1826.17094345 444.538644186,1826.10238852 435.590476266,1825.82536716 434.463372915,1824.88230882 433.981336549,1823.624034 433.960029507,1811.67884072 429.70580429,1808.05643489 426.833202814,1810.43124223 425.708567439,1810.63527838 424.495958095,1810.21486855 423.015797881,1809.89077412 421.483088215,1809.83306372 419.879728543,1810.03314248 418.42655869,1810.43078218 417.262933263,1810.88821785 416.209468609,1811.45622877 415.385991668,1812.08488968 414.728469386,1812.83119631 414.285818446,1813.59213038 413.824483631,1814.54812772 413.397209552,1815.66596604 413.158336903,1816.69846215 413.056873611,1817.9710063 408.929687117,1818.40993843 408.927038895,1864.66291224 409.171708022,1887.55162584 409.418816107,1895.40869198 410.355519188,1897.64030866 411.216108629,1898.11692407 412.849441178,1898.60115524 413.545698793,1899.09685088 413.756682936,1899.8670974 413.711674957,1901.92389475 413.420777254,1902.94138326 413.004733024,1903.95771399 412.835284835,1905.06200373 412.877461438,1905.90747085 413.061277258,1908.43222875 413.330661621,1910.51206399 413.814392614,1911.98477113 414.410096708,1913.0348053 414.851003192,1913.78798191 415.64710916,1914.68068645 416.707067342,1915.56272251 418.06908746,1916.15119092 421.526029836,1916.57878663 422.061070931,1917.21157379 422.196430813,1920.38338265 422.416170901,1920.8081874 " moovel_rot="25.4" moovel_centroid="433.885212958,1862.90762134" moovel_centroidlatlon="-73.83527412108525,40.67289110845354"></polygon></g><g transform="translate(159.9904887 -1287.4581736999999) rotate(0)"><polygon id="277313511" class="tile" points="37.3180271164,1953.0622098 0.0,1954.99607977 0.0137544874102,2011.52973149 2.94743773565,2020.82395028 8.59940483049,2027.53864079 16.1353376918,2033.20796163 26.2006480314,2035.22617845 37.1586876355,2034.57395938 45.027078183,2030.62187605 52.3595537379,2023.71974463 55.6908511609,2016.8649306 59.2413440466,2005.95001146 59.7669404436,1991.30115458 59.7727345258,1966.90547343 58.0899904098,1962.23113727 56.724344594,1961.10241259 54.6741572745,1959.40408285 37.3180271164,1953.0622098 " moovel_rot="-55.4" moovel_centroid="29.129044586729314,1992.26722306" moovel_centroidlatlon="-73.84280618058564,40.74025194216807"></polygon></g><g transform="translate(220.10273479999998 -1288.2691258) rotate(0)"><polygon id="185158141" class="tile" points="42.1996856904,1808.05643489 36.02183963,1804.62195412 30.3100233035,1792.57758848 26.2758844711,1780.68926224 24.5517077997,1760.26032965 24.9909210531,1727.62875001 25.1619185325,1714.3187393 24.5620227424,1668.74705952 26.1992838399,1653.25942942 30.1524804356,1645.20739005 33.6328801516,1643.29088427 39.9789922001,1639.78923944 47.9137729885,1638.64000771 53.4459448358,1678.12128842 49.1194119552,1728.08859945 42.1996856904,1808.05643489 " moovel_rot="72.7" moovel_centroid="37.5189595211,1715.64098181" moovel_centroidlatlon="-73.88208848088439,40.78628138407378"></polygon></g><g transform="translate(-88.5978412 -501.7951335) rotate(0)"><polygon id="108331547" class="tile" points="191.404179065,1201.0 191.459394939,1279.89202555 147.588494344,1280.09352362 147.533069898,1201.20128583 191.404179065,1201.0 " moovel_rot="-44.5" moovel_centroid="169.49627466,1240.5466775623033" moovel_centroidlatlon="-73.90826544999999,40.784373849999994"></polygon></g><g transform="translate(-297.39771340000004 -902.3941805999999) rotate(0)"><polygon id="278033614" class="tile" points="461.025633758,1707.41506142 461.137335056,1708.12628486 461.210138805,1709.56074955 461.073388891,1710.99870178 460.735293256,1712.40056025 460.48962556,1713.07101308 459.856827119,1714.3655967 459.050875577,1715.55955479 458.082691109,1716.62165346 456.968618318,1717.53735349 455.734994128,1718.27964037 454.502511632,1718.80929856 456.190716674,1718.79602605 456.2299098,1726.8490785 447.875105028,1726.87820082 447.841121447,1719.03570991 443.77952165,1718.50968357 442.293161045,1718.10668555 440.87232128,1717.51628351 440.196910117,1717.14510716 438.917889606,1716.27790977 438.329697008,1715.78610812 437.249594841,1714.68816284 436.329298343,1713.45523569 435.933600551,1712.79937352 435.370959373,1712.17006859 426.557194984,1702.27064538 425.9681473,1702.55432492 421.569937467,1698.78766628 420.939866201,1681.95629058 405.546958075,1684.89975618 405.251408825,1669.89766049 407.357510895,1670.15467321 420.423346987,1667.44128857 419.878975984,1638.64000771 422.612741972,1638.96994613 434.430344261,1640.39054978 446.042959205,1641.78546614 455.616561949,1642.95693721 457.411545498,1643.18583817 458.519911632,1643.33328717 461.193865008,1643.60882679 461.097158731,1681.20096935 461.079259971,1686.74397244 461.051665923,1697.79038357 461.025633758,1707.41506142 " moovel_rot="-18.0" moovel_centroid="439.79263387,1677.93815473" moovel_centroidlatlon="-74.01434596258856,40.70730186219248"></polygon></g><g transform="translate(168.7358562 -1321.1488927999999) rotate(0)"><polygon id="413357499" class="tile" points="0.00263634994626,2153.13386546 45.7881104618,2157.00828371 47.8424367093,2132.77029609 47.5095654309,2093.80137296 12.1641928548,2096.55812134 10.1020019643,2087.81696232 8.92858705781,2084.17571814 7.86250065174,2071.66022443 0.0,2073.3816107 1.56948715914,2095.00491388 3.31597520001,2123.14534992 0.00263634994626,2153.13386546 " moovel_rot="34.9" moovel_centroid="23.696691828976984,2122.46124525" moovel_centroidlatlon="-73.87708099996249,40.64665317541198"></polygon></g><g transform="translate(-133.0147126 -1176.7230742) rotate(0)"><polygon id="443136835" class="tile" points="399.172018331,1956.65927868 399.20563079,2021.3682546 393.411692414,2022.54168331 392.649706297,2025.58052405 357.495878181,2014.61459301 358.191131692,2010.10348998 354.299361658,2010.14837803 355.052660676,1953.0622098 399.172018331,1956.65927868 " moovel_rot="73.3" moovel_centroid="377.416463328,1987.4783478" moovel_centroidlatlon="-74.16528784050541,40.57939892799055"></polygon></g><g transform="translate(-373.649231 -1169.2506321) rotate(0)"><polygon id="356692853" class="tile" points="488.334759399,2042.26678815 476.62921579,2008.74718715 471.579450346,2009.59415706 468.61516578,1998.70780717 478.245597407,1996.85793854 483.399406917,1994.97151532 485.207813232,1990.9422194 488.274012528,1957.28097231 473.490991365,1955.90631172 471.197258455,1986.26806947 475.461026049,1988.91987935 473.748967544,1992.33374107 470.856133071,1993.43007957 466.315469058,1992.85148583 460.533521906,1979.95242847 465.845756372,1977.79710718 458.4637346,1954.50129977 443.023605253,1953.0622098 457.808511093,1992.65724667 460.490859191,1993.78738253 466.778359086,2014.48051851 461.044556838,2016.74710246 456.760290635,2013.0676576 451.822193502,2011.96876226 448.919445816,2008.00587094 443.895453079,2009.48344302 431.028742154,2013.26415704 431.254168178,2017.3695653 428.506021475,2020.42781068 428.080957009,2023.28372078 427.888605962,2026.92659722 429.917280687,2031.72267912 432.199980107,2033.80670493 434.744251311,2035.14795739 462.078564898,2026.37851556 464.53084856,2021.42570076 468.727768188,2020.78861349 477.492167244,2045.99033193 480.102994637,2045.09154931 488.334759399,2042.26678815 " moovel_rot="19.4" moovel_centroid="463.055807222,1999.43099818" moovel_centroidlatlon="-74.251362711893,40.50227509781672"></polygon></g><g transform="translate(-92.24316970000004 -362.0193454) rotate(0)"><polygon id="157893651" class="tile" points="243.432297095,1267.668979 243.415110647,1201.11054124 284.466981393,1201.0 284.475822826,1267.55530107 243.432297095,1267.668979 " moovel_rot="-69.4" moovel_centroid="263.947390391,1234.3325782682148" moovel_centroidlatlon="-73.82812823532038,40.58197118115531"></polygon></g><g transform="translate(-88.84104310000004 -1107.5625905) rotate(0)"><polygon id="108295745" class="tile" points="297.002716332,2013.86985321 342.589573375,2002.01244309 340.254815742,1987.51694016 342.57377825,1959.77615172 289.76115668,1953.0622098 286.029142183,1973.86535509 293.396979295,2010.7501465 297.002716332,2013.86985321 " moovel_rot="-56.7" moovel_centroid="313.741000248,1981.97438031" moovel_centroidlatlon="-73.94376558411766,40.7698487816491"></polygon></g><g transform="translate(-35.776579999999996 -565.9339505) rotate(0)"><polygon id="275608451" class="tile" points="259.924931877,1566.77122568 252.52852444,1554.92662523 240.092881415,1561.53538918 239.668882881,1520.0206781 240.391769269,1518.34581139 241.817389282,1517.4399522 264.929922215,1518.01719112 275.674993259,1511.38879108 266.056208827,1492.44311182 242.378364268,1492.112957 242.158442973,1476.56113568 227.339498664,1476.47167937 227.390191628,1530.1891324 227.433300605,1583.11024686 259.924931877,1566.77122568 " moovel_rot="-82.3" moovel_centroid="242.512958644,1523.91138089" moovel_centroidlatlon="-73.8798320208876,40.7674450832227"></polygon></g><g transform="translate(232.072698 -859.2498339) rotate(0)"><polygon id="108296490" class="tile" points="0.0318745527416,1815.34889281 7.26736600343,1869.0727955 0.0,1874.88311467 3.46586356033,1878.694114 6.18240951821,1877.84061143 9.60801966749,1878.19050064 15.1599899624,1876.45400932 53.3955929227,1845.79159537 50.4617042318,1808.05643489 0.0318745527416,1815.34889281 " moovel_rot="26.3" moovel_centroid="25.624075039100823,1838.9113638" moovel_centroidlatlon="-73.92104999368121,40.799452078104025"></polygon></g><g transform="translate(119.8251803 -1316.2607239) rotate(0)"><polygon id="182759596" class="tile" points="153.200208909,2072.9172292 170.606139054,2071.66022443 171.306193165,2096.64939821 165.212628659,2097.12609661 163.13097725,2111.38764513 163.644231768,2134.71496932 169.038858738,2134.50364447 169.294516371,2143.51895811 169.893866366,2165.37622814 170.807219546,2198.33235612 171.137582756,2210.51983101 163.651492553,2211.03964789 155.561173995,2211.59040047 151.334464386,2104.3030782 154.175872502,2099.74129519 153.200208909,2072.9172292 " moovel_rot="-90.4" moovel_centroid="161.253546542,2142.7029041" moovel_centroidlatlon="-73.93787784197879,40.57675462775026"></polygon></g><g transform="translate(69.47305580000003 -1807.4290148) rotate(0)"><polygon id="413378703" class="tile" points="215.852596894,2108.09567268 202.179676485,2126.31191711 172.351151558,2126.41971863 172.306193165,2071.66022443 215.810739698,2073.33267419 215.852596894,2108.09567268 " moovel_rot="62.8" moovel_centroid="192.990138188,2098.25221624" moovel_centroidlatlon="-73.82695584028853,40.71385090444694"></polygon></g><g transform="translate(-216.7777527 -1401.9370021) rotate(0)"><polygon id="412129499" class="tile" points="242.491108637,1808.49805428 271.502966548,1808.36590066 271.707237644,1832.60269607 267.362744221,1833.03800445 267.512623178,1834.96034922 271.358959169,1835.06042885 271.661667742,1849.94828201 273.255938232,1850.02549347 273.511064442,1835.24846403 277.618395732,1834.88154757 277.638109914,1832.64206085 274.439457915,1832.49203872 273.519934326,1808.05643489 277.119002574,1808.22929753 283.92942068,1815.51174971 283.550852199,1849.23861259 283.611581864,1856.83784746 276.447592894,1859.37453574 268.085627671,1860.01597597 242.529187413,1859.83872368 242.500271339,1835.2881674 246.778743428,1834.61503053 247.08946431,1832.95010942 242.519982634,1833.04868585 242.491108637,1808.49805428 " moovel_rot="29.2" moovel_centroid="262.335964297,1834.47678579" moovel_centroidlatlon="-73.8687771873981,40.655752416087054"></polygon></g><g transform="translate(175.8769154 -951.7424944999999) rotate(0)"><polygon id="244091353" class="tile" points="102.000520327,1953.0622098 106.981805739,1953.07165108 106.93084364,2020.39910679 68.6600018695,2020.3265053 68.6847201299,1988.88544718 61.7727345258,1988.87426593 61.7791079395,1975.66324571 101.987264277,1975.73851645 102.000520327,1953.0622098 " moovel_rot="8.4" moovel_centroid="87.7186353981,1995.29978092" moovel_centroidlatlon="-74.0020504538625,40.58048290395264"></polygon></g><g transform="translate(-233.7402112 -254.39547619999996) rotate(0)"><polygon id="448157968" class="tile" points="412.803304815,1291.30598794 379.628967794,1278.57071133 394.19230678,1232.7087882 384.560137587,1209.9145474 386.585219025,1204.47698995 396.353900891,1201.0 407.5759598,1229.4443312 412.791921503,1260.05034158 412.803304815,1291.30598794 " moovel_rot="79.6" moovel_centroid="398.468376213,1251.6526840055112" moovel_centroidlatlon="-73.78656417581709,40.662851962006044"></polygon></g><g transform="translate(-332.8142749 -931.2078009) rotate(0)"><polygon id="240737271" class="tile" points="559.920847303,1953.0622098 516.902920266,1953.13159267 516.834659232,1993.09743409 516.829323413,1996.3340896 525.743717059,1996.36434528 559.994883032,1996.49942769 559.920847303,1953.0622098 " moovel_rot="8.4" moovel_centroid="538.431583364,1974.76825916" moovel_centroidlatlon="-73.96307240990036,40.6892915037486"></polygon></g><g transform="translate(-106.01140280000001 -571.1167498) rotate(0)"><polygon id="305092842" class="tile" points="295.91197169,1689.4307797 295.847526064,1641.97591059 268.614463669,1638.64000771 267.051109938,1650.26991655 255.827977652,1650.12079737 255.615954129,1684.52573311 271.118123699,1684.2864425 271.259463738,1689.43740067 295.91197169,1689.4307797 " moovel_rot="-30.4" moovel_centroid="277.160225659,1665.2317566" moovel_centroidlatlon="-73.89001641138846,40.878506418903775"></polygon></g><g transform="translate(-3.944647599999996 -883.4578773000001) rotate(0)"><polygon id="450445971" class="tile" points="224.997175633,2021.7712969 254.900952995,2026.07740511 254.906275943,1992.51611223 250.484500624,1990.33136284 249.679869532,1986.45034223 249.956781651,1980.79804373 251.443353086,1970.92390944 251.952801525,1964.3177071 251.497653425,1960.15064409 248.305150446,1957.06935032 243.077545683,1954.78440755 233.615686793,1953.0622098 230.312222171,1978.60787655 226.598835632,2009.09281602 224.997175633,2021.7712969 " moovel_rot="-76.3" moovel_centroid="240.952266387,1992.94981143" moovel_centroidlatlon="-74.07421178861844,40.6365425545829"></polygon></g><g transform="translate(-20.738092900000026 -402.86189850000005) rotate(0)"><polygon id="241844809" class="tile" points="307.737550298,1476.5257812 307.77529987,1526.71932897 276.710018369,1526.67346515 276.674993259,1476.47167937 307.737550298,1476.5257812 " moovel_rot="18.3" moovel_centroid="292.22404066,1501.59793067" moovel_centroidlatlon="-74.21416375435246,40.551121019447024"></polygon></g><g transform="translate(169.23510290000002 -1548.7558352) rotate(0)"><polygon id="377007929" class="tile" points="116.831779623,1953.0622098 108.068385723,1953.10435895 107.981805739,2071.66022443 117.236250313,2071.47015244 116.831779623,1953.0622098 " moovel_rot="7.5" moovel_centroid="112.529380427,2012.86263223" moovel_centroidlatlon="-73.88743700044337,40.74832332177389"></polygon></g><g transform="translate(-205.31364290000002 -838.4060373) rotate(0)"><polygon id="371149489" class="tile" points="418.533647421,1953.0622098 400.214762488,1953.36517401 400.20563079,2008.21296877 421.239479072,2007.98262592 426.888605962,2007.91808064 426.824162177,2006.0283255 426.695551877,1994.2056053 426.174752573,1981.71325447 418.85289382,1981.79858039 418.533647421,1953.0622098 " moovel_rot="56.4" moovel_centroid="411.696451709,1983.12438092" moovel_centroidlatlon="-73.99294626003646,40.727216450033616"></polygon></g><g transform="translate(69.31988840000001 -353.25974169999995) rotate(0)"><polygon id="252080163" class="tile" points="110.496247427,1544.76099648 79.8861696612,1508.38663049 82.7515994497,1505.97007172 80.1141851649,1502.83446167 111.418613393,1476.47167937 120.682371887,1487.47559139 96.6788179677,1507.68920828 120.662542678,1536.19526312 110.496247427,1544.76099648 " moovel_rot="-43.9" moovel_centroid="101.262746396,1509.41241852" moovel_centroidlatlon="-73.91332793828401,40.676080814740125"></polygon></g><g transform="translate(-82.7873884 -815.3215115999999) rotate(0)"><polygon id="239584430" class="tile" points="226.787312264,1638.64000771 205.147712493,1639.19399187 188.259151268,1649.42574168 210.579164831,1685.82700479 226.772930528,1676.43100868 226.778580455,1652.24284116 226.787312264,1638.64000771 " moovel_rot="66.0" moovel_centroid="211.56923858,1658.86077671" moovel_centroidlatlon="-73.95063710220677,40.73655551006509"></polygon></g><g transform="translate(255.91923880000002 -509.79967680000004) rotate(0)"><polygon id="201149333" class="tile" points="22.1761430539,1683.88966865 22.5517077997,1701.08017487 0.0,1701.78996895 0.046891726926,1639.33801442 1.32580628693,1639.00318284 13.6247366566,1638.76509885 20.5871265694,1638.64000771 21.5439507321,1667.86587063 6.37083843313,1668.42916832 6.48565391265,1671.52187675 4.62020981982,1671.59289878 5.21278927792,1686.7751024 19.413618587,1686.24091737 19.3238288373,1683.99631537 22.1761430539,1683.88966865 " moovel_rot="9.2" moovel_centroid="10.10245734919021,1668.7573378" moovel_centroidlatlon="-73.84002706357735,40.6579052077758"></polygon></g><g transform="translate(99.64328349999997 -1153.4415976) rotate(0)"><polygon id="300089514" class="tile" points="194.416438692,1547.18397936 194.190995099,1476.47167937 184.573882643,1477.04839308 178.350674471,1477.18767863 178.311417558,1539.29029475 179.500559993,1541.27205558 179.665119571,1543.46559847 179.34506102,1545.73318982 178.301680652,1547.43960557 185.407036378,1547.44963191 194.416438692,1547.18397936 " moovel_rot="-30.8" moovel_centroid="186.375953019,1512.02504726" moovel_centroidlatlon="-73.92471356536639,40.78749571594535"></polygon></g><g transform="translate(-94.77214959999999 -1472.5235309) rotate(0)"><polygon id="220769451" class="tile" points="146.83941048,1523.80791738 146.827175333,1476.59704885 177.296166579,1476.47167937 177.301680652,1507.06170012 158.126298086,1507.13772376 158.133323477,1523.76951248 146.83941048,1523.80791738 " moovel_rot="-39.2" moovel_centroid="160.458568727,1495.79363322" moovel_centroidlatlon="-73.97983379439509,40.61620288005989"></polygon></g><g transform="translate(-283.66790919999994 -906.1330272) rotate(0)"><polygon id="144312950" class="tile" points="554.911766271,1808.14328178 528.21847521,1808.05643489 528.21934141,1815.57006616 528.222720822,1850.21107627 554.915939937,1850.29796321 554.911766271,1808.14328178 " moovel_rot="60.9" moovel_centroid="541.567255051,1829.17718894" moovel_centroidlatlon="-73.97523819966467,40.746453550229795"></polygon></g><g transform="translate(-317.70295109999995 -1469.9972292) rotate(0)"><polygon id="185605919" class="tile" points="562.685055129,1509.2911826 562.709919772,1476.47167937 530.377506687,1476.56717928 530.35271062,1509.38674026 533.20932865,1509.38224882 562.685055129,1509.2911826 " moovel_rot="-49.9" moovel_centroid="546.531025504,1492.93017821" moovel_centroidlatlon="-73.92404641389501,40.60806554507459"></polygon></g><g transform="translate(-359.8852503 -1478.3142501000002) rotate(0)"><polygon id="393403106" class="tile" points="486.807708743,1817.29177114 485.360755455,1818.80671427 484.204205094,1820.62559025 483.335669824,1822.52038574 482.813631258,1824.9728763 483.05228059,1860.51788289 503.483867181,1861.0494202 503.536743398,1808.05643489 486.807708743,1817.29177114 " moovel_rot="-0.6" moovel_centroid="493.714780515,1837.21863416" moovel_centroidlatlon="-73.79508901774909,40.65611247633128"></polygon></g><g transform="translate(-223.86445239999998 -329.4440092) rotate(0)"><polygon id="247143603" class="tile" points="470.567532689,1522.62951551 470.541111902,1476.47167937 450.421971104,1476.54676332 450.45612151,1522.70884885 470.567532689,1522.62951551 " moovel_rot="-61.2" moovel_centroid="460.496527941,1499.58772475" moovel_centroidlatlon="-74.18906473188865,40.52893743462029"></polygon></g><g transform="translate(-236.66316999999992 -1473.9812884) rotate(0)"><polygon id="185193578" class="tile" points="526.815393339,1519.91234481 495.863672432,1499.4274549 500.579241776,1493.12392161 508.79576224,1482.1390419 515.537451507,1476.47167937 521.300246108,1476.97840768 524.291623764,1478.59267338 526.654361771,1479.86574241 529.344495474,1491.47011228 529.349733662,1497.58609549 529.35271062,1513.59354086 526.815393339,1519.91234481 " moovel_rot="-50.2" moovel_centroid="516.610499853,1496.71987082" moovel_centroidlatlon="-73.91833062479854,40.63337276046822"></polygon></g><g transform="translate(-33.26462910000001 -1086.4548104) rotate(0)"><polygon id="242107186" class="tile" points="187.240069793,1638.84857013 187.259151268,1674.12454258 167.181987673,1674.21255942 167.302585395,1667.93767461 163.821793652,1667.84548669 164.543353544,1638.7385745 169.019288818,1638.64000771 176.399203548,1638.72628381 179.727055893,1638.76660237 187.240069793,1638.84857013 " moovel_rot="-83.2" moovel_centroid="175.942281288,1656.16785736" moovel_centroidlatlon="-73.99528060695661,40.71317624162038"></polygon></g><g transform="translate(1.2840120000000184 -1066.6328125) rotate(0)"><polygon id="222912948" class="tile" points="285.506898554,1294.02318635 291.317163124,1294.49374502 294.07680342,1255.16993907 294.530870831,1246.13871834 291.895764625,1201.0 285.475822826,1201.45401118 288.06564407,1246.9841899 285.506898554,1294.02318635 " moovel_rot="-83.4" moovel_centroid="289.961017489,1247.0339464017984" moovel_centroidlatlon="-73.93301377859885,40.584118243039654"></polygon></g><g transform="translate(-168.37724130000004 -1950.5622594) rotate(0)"><polygon id="331933011" class="tile" points="255.906275943,1982.36375826 279.50002197,1982.6692532 279.685636687,1978.44159827 281.492155205,1977.26245739 284.303311248,1977.14719506 285.029142183,1958.05215636 280.91411691,1957.78783873 279.135025642,1955.25581079 279.075084108,1954.24023239 279.013018273,1953.0622098 255.909898544,1953.10111997 255.906275943,1982.36375826 " moovel_rot="-81.4" moovel_centroid="269.56099183,1967.76063126" moovel_centroidlatlon="-73.8756846508073,40.8589229509495"></polygon></g><g transform="translate(-189.26364630000003 -728.2524623) rotate(0)"><polygon id="185021243" class="tile" points="374.067056316,1641.71867956 374.041005312,1682.4572047 368.270653807,1682.94566126 358.638963952,1678.4450514 352.785292925,1656.20067917 358.568631857,1643.67151621 366.564063289,1638.64000771 374.067056316,1641.71867956 " moovel_rot="80" moovel_centroid="365.172647235,1660.82326713" moovel_centroidlatlon="-74.10763533715891,40.61842251934791"></polygon></g><g transform="translate(-23.43006680000002 -130.83307330000002) rotate(0)"><polygon id="354586347" class="tile" points="220.712638873,1216.81036824 218.381358966,1219.30049242 218.304215543,1229.76251397 219.897347591,1229.76905209 219.842994047,1236.23046702 218.566818519,1236.22379299 218.558623559,1237.19367182 241.138855513,1237.36951779 242.322677811,1236.04529114 242.415110647,1224.64060659 234.869548805,1216.95149949 234.264843639,1217.04730217 233.525280461,1217.04761942 233.525204894,1217.32869443 232.293298376,1217.3181132 232.298633293,1216.11382128 233.530959215,1216.11773653 233.53134082,1216.25160805 234.353221262,1216.06239087 234.918730619,1215.74996619 235.68479068,1215.04861656 236.06049841,1213.97470454 235.752731621,1213.96872624 235.759857493,1212.31615786 239.109099494,1208.759067 232.502010174,1202.10609037 229.985315308,1203.06538003 227.493967703,1201.38277615 218.537863929,1201.0 218.324377552,1212.22975911 219.160406066,1212.23551094 219.146419207,1214.5568852 220.852336993,1215.98930277 223.079381095,1215.995569 223.073626901,1217.20652691 221.586566998,1217.19327753 220.712638873,1216.81036824 " moovel_rot="-86.4" moovel_centroid="229.068864547,1220.7763325834253" moovel_centroidlatlon="-73.97103030534718,40.78048645287873"></polygon></g><g transform="translate(147.3030212 -72.43304400000011) rotate(0)"><polygon id="383830158" class="tile" points="136.090662855,1259.99890569 146.500175545,1258.55298048 146.533069898,1201.0 134.801106705,1201.50495697 136.090662855,1259.99890569 " moovel_rot="-66.2" moovel_centroid="140.958255271,1229.6930901957478" moovel_centroidlatlon="-73.84890924055625,40.75044103867904"></polygon></g><g transform="translate(-314.01716389999996 -1218.1075394) rotate(0)"><polygon id="246832536" class="tile" points="320.369065768,1638.64000771 327.841655748,1638.77949608 334.524493109,1638.89786902 334.805469142,1681.62892188 329.579050319,1681.55195293 329.634713536,1684.38383024 327.708416996,1684.31632613 320.360982908,1683.89827411 320.364466618,1656.57626256 320.369065768,1638.64000771 " moovel_rot="-12.0" moovel_centroid="327.419424793,1661.09681602" moovel_centroidlatlon="-73.91149805368725,40.89821980262647"></polygon></g><g transform="translate(-228.2902262 -907.8834380999999) rotate(0)"><polygon id="450419568" class="tile" points="505.944746285,1808.05643489 519.580572925,1808.48650132 519.606342283,1851.09672552 504.536743398,1850.55420806 505.944746285,1808.05643489 " moovel_rot="-28.8" moovel_centroid="512.413138043,1829.90303069" moovel_centroidlatlon="-73.77082150941078,40.655776978937666"></polygon></g><g transform="translate(-67.54584030000001 -738.094942) rotate(0)"><polygon id="288448677" class="tile" points="93.7635048538,1201.0 93.7934696782,1225.19118369 117.649092931,1225.2208373 117.84347762,1215.72187986 117.972347107,1203.7414243 117.980785732,1201.30302362 107.859142941,1201.01592024 93.7635048538,1201.0 " moovel_rot="61.1" moovel_centroid="105.794660482,1213.1080963965012" moovel_centroidlatlon="-73.98933254106515,40.75899059331252"></polygon></g><g transform="translate(-29.88834330000001 -1421.8688631999999) rotate(0)"><polygon id="334258798" class="tile" points="65.2698804738,1638.64000771 65.2694600487,1665.38769398 80.1670503508,1665.61239759 85.5504523883,1665.60520417 85.696314284,1665.25575523 90.2286441149,1644.87116716 90.4722688681,1643.80849651 65.2698804738,1638.64000771 " moovel_rot="9.4" moovel_centroid="76.3651093608,1652.86593718" moovel_centroidlatlon="-73.97545012698814,40.69780962066441"></polygon></g><g transform="translate(-209.0006662 -1636.1400192) rotate(0)"><polygon id="201028742" class="tile" points="351.741824574,1683.04188071 346.753516348,1683.00087146 341.944087775,1683.02044019 341.968218121,1650.48016662 335.805469142,1650.46718271 335.813315151,1643.05099039 341.703772,1643.06607998 341.710809549,1638.64000771 351.780841258,1638.65932784 351.785292925,1644.28368489 351.741824574,1683.04188071 " moovel_rot="10.7" moovel_centroid="346.09508071,1659.44581284" moovel_centroidlatlon="-73.84853556460615,40.66209849338703"></polygon></g><g transform="translate(-154.4513078 -796.3130266) rotate(0)"><polygon id="275100163" class="tile" points="195.858315129,1518.55115484 204.736408949,1518.59883529 204.786719218,1476.47167937 195.416438692,1476.79957699 195.858315129,1518.55115484 " moovel_rot="29.8" moovel_centroid="200.205258954,1497.41602295" moovel_centroidlatlon="-73.79233658319134,40.705527179234316"></polygon></g><g transform="translate(34.02086829999999 -1591.6375074) rotate(0)"><polygon id="347320346" class="tile" points="164.873432981,1808.05643489 164.925634342,1816.91523191 164.96222033,1822.6572969 165.012384937,1831.72480277 164.907574678,1839.27445711 176.783351024,1843.68549349 176.895261573,1808.42906888 164.873432981,1808.05643489 " moovel_rot="-82.2" moovel_centroid="171.014168248,1824.8464035" moovel_centroidlatlon="-73.9632606748317,40.64850463676686"></polygon></g><g transform="translate(-412.79969559999995 -1108.5458292) rotate(0)"><polygon id="222664801" class="tile" points="520.606342283,1808.40754249 521.19986254,1856.81369141 527.17038094,1857.2820719 527.21847521,1808.05643489 520.606342283,1808.40754249 " moovel_rot="56.0" moovel_centroid="524.055296782,1832.22216583" moovel_centroidlatlon="-74.00457873062915,40.59714765280808"></polygon></g><g transform="translate(12.566178500000007 -500.8915852000001) rotate(0)"><polygon id="264854016" class="tile" points="133.801106705,1201.26972289 133.780802901,1234.06131762 127.858942811,1234.29098256 128.018459249,1228.9935331 126.393558281,1228.94790124 127.019813569,1216.86404672 118.980785732,1216.39988614 119.425895621,1203.83377702 123.507960616,1203.95559232 123.595998672,1201.0 133.801106705,1201.26972289 " moovel_rot="59.6" moovel_centroid="128.066527316,1214.8965150442716" moovel_centroidlatlon="-74.00188327744696,40.727610523059774"></polygon></g><g transform="translate(-410.139479 -1510.0738258000001) rotate(0)"><polygon id="243544148" class="tile" points="462.214415429,1638.64000771 462.210138805,1646.81315098 462.637743914,1655.18614797 462.765625806,1664.71203611 469.39481776,1664.60642908 475.966352892,1664.76351642 475.98056206,1640.67353194 465.368225081,1639.16410528 462.214415429,1638.64000771 " moovel_rot="-26.0" moovel_centroid="469.12809792,1652.05929377" moovel_centroidlatlon="-73.9351634390862,40.765992303871165"></polygon></g><g transform="translate(-59.68624539999999 -440.7380912000001) rotate(0)"><polygon id="307958486" class="tile" points="208.420956429,1476.47167937 205.786719218,1480.87710909 209.030826297,1483.08087974 206.669911532,1486.52257013 210.353741606,1488.64325148 205.795010423,1496.42577985 212.698324347,1500.76381307 210.488282622,1504.24852262 214.362101126,1506.65520946 226.339498664,1487.3395858 209.058677061,1476.86087905 208.420956429,1476.47167937 " moovel_rot="-10.7" moovel_centroid="214.76670727,1490.76093882" moovel_centroidlatlon="-73.91144836492647,40.77939199259232"></polygon></g><g transform="translate(-59.675400199999984 -1136.4097219999999) rotate(0)"><polygon id="201149335" class="tile" points="133.515398018,1970.48055326 118.238967444,1970.45924221 118.236250313,1953.0622098 133.512682428,1953.0835127 133.515398018,1970.48055326 " moovel_rot="10.7" moovel_centroid="125.875825147,1961.77137935" moovel_centroidlatlon="-73.83964049999999,40.659758000000004"></polygon></g><g transform="translate(-339.5701849 -1756.189124) rotate(0)"><polygon id="104903380" class="tile" points="472.610465018,1808.05643489 477.646515986,1808.58953529 480.301350119,1815.0937789 481.813631258,1820.53604254 481.150043027,1827.58409692 481.02512776,1834.44790606 480.315484253,1838.6366294 478.304531239,1840.57982923 476.269786624,1842.32825791 472.635766313,1843.22764796 474.759834855,1830.59452797 475.98456249,1830.12851592 474.729962417,1828.84086521 474.973451366,1823.53805306 474.250629085,1818.54937536 473.351566415,1812.18457933 472.610465018,1808.05643489 " moovel_rot="19.3" moovel_centroid="477.28056738,1825.47663643" moovel_centroidlatlon="-73.93089320624115,40.865354170923084"></polygon></g><g transform="translate(-442.4742962 -1365.6717348) rotate(0)"><polygon id="299854203" class="tile" points="571.856688454,1506.57657023 567.300965506,1513.58216098 565.772846687,1509.9123351 563.869346455,1499.28771717 563.709919772,1487.65055024 565.164864127,1478.50293741 571.879494804,1476.47167937 570.576626692,1480.75139881 569.957186684,1486.99483592 569.902171046,1494.5090153 570.302088713,1499.77716221 571.856688454,1506.57657023 " moovel_rot="-9.2" moovel_centroid="567.446610161,1494.31997066" moovel_centroidlatlon="-73.9155798390474,40.7939551902713"></polygon></g><g transform="translate(-73.0834442 -784.0420212000001) rotate(0)"><polygon id="299950331" class="tile" points="223.997175633,1973.25591852 212.032706307,1973.60616156 212.114967153,1959.93310298 212.105346541,1958.58463195 212.057369756,1953.61713476 223.901692297,1953.0622098 223.997175633,1973.25591852 " moovel_rot="-28.8" moovel_centroid="218.024079413,1963.40480755" moovel_centroidlatlon="-73.93177471311975,40.78606528385354"></polygon></g><g transform="translate(-183.5873942 -1519.6140922) rotate(0)"><polygon id="185631123" class="tile" points="343.589573375,1953.0622098 349.086380818,1953.06821413 353.296442098,1953.07370613 353.299361658,1976.79266428 343.60971875,1976.59580575 343.609193005,1969.92834938 343.589573375,1953.0622098 " moovel_rot="-50.3" moovel_centroid="348.456413041,1964.8770832" moovel_centroidlatlon="-73.9236190557517,40.610219362167534"></polygon></g><g transform="translate(90.1182588 -1045.9348059) rotate(0)"><polygon id="194665127" class="tile" points="57.9385988295,1662.788554 64.2694600487,1662.78031061 64.2678268628,1638.64000771 62.0695913896,1638.64314759 59.4758252833,1638.64472071 57.0229668282,1638.64300161 54.4466927055,1638.64582857 54.4459448358,1657.79051596 57.9366926249,1657.78627622 57.9385988295,1662.788554 " moovel_rot="-85.9" moovel_centroid="59.6088055407,1649.95435009" moovel_centroidlatlon="-73.9299553512023,40.65122476681338"></polygon></g><g transform="translate(-36.1375137 -972.3451798) rotate(0)"><polygon id="252079922" class="tile" points="97.804196875,1666.73873459 91.4722688681,1666.74608644 91.4727452105,1648.51184388 91.4753432417,1643.00798794 91.4735475978,1638.64735757 97.8054757355,1638.64000771 97.804196875,1666.73873459 " moovel_rot="-3.8" moovel_centroid="94.6389725357,1652.69356234" moovel_centroidlatlon="-73.91218984901724,40.67342324405921"></polygon></g><g transform="translate(-156.452536 -940.2673001) rotate(0)"><polygon id="374848394" class="tile" points="241.469238951,1822.10588372 241.491108637,1808.05643489 229.184909379,1808.08407378 227.609145659,1808.09172537 227.635538085,1813.53943321 227.6198558,1822.12972693 241.469238951,1822.10588372 " moovel_rot="-34.1" moovel_centroid="234.553597803,1815.09268496" moovel_centroidlatlon="-73.98264847003591,40.661997415729246"></polygon></g><g transform="translate(-515.7160067 -1146.5178654) rotate(0)"><polygon id="319966215" class="tile" points="554.455869483,1649.16729012 554.464652001,1638.64000771 568.572960589,1638.64469528 568.562868596,1653.25714597 567.47614332,1655.49455742 554.455869483,1649.16729012 " moovel_rot="-85.8" moovel_centroid="562.043796566,1645.68850888" moovel_centroidlatlon="-73.79172473554988,40.589407133954"></polygon></g><g transform="translate(-225.07499320000002 -910.0635505999999) rotate(0)"><polygon id="220792586" class="tile" points="303.621552807,1201.0 303.654254109,1221.55050355 295.530870831,1220.9079717 296.249664306,1201.3006337 303.621552807,1201.0 " moovel_rot="61.1" moovel_centroid="299.791037283,1211.3561510185634" moovel_centroidlatlon="-73.93379717423389,40.78333667846769"></polygon></g><g transform="translate(-300.3525443 -1298.3130133) rotate(0)"><polygon id="376403756" class="tile" points="320.229986341,1476.94064098 309.131385314,1476.47167937 308.77529987,1488.50198396 320.238528401,1488.7552986 320.229986341,1476.94064098 " moovel_rot="83.6" moovel_centroid="314.575420577,1482.69864924" moovel_centroidlatlon="-73.91700826573525,40.74298740234749"></polygon></g><g transform="translate(-510.30673579999996 -853.4660621999999) rotate(0)"><polygon id="411700680" class="tile" points="544.760574985,1222.35626407 548.978837252,1222.18304911 548.862004513,1201.0 544.772107245,1201.23143576 544.760574985,1222.35626407 " moovel_rot="-1.4" moovel_centroid="546.844571345,1211.747040828127" moovel_centroidlatlon="-74.05534852706602,40.59989305457362"></polygon></g><g transform="translate(-87.2080695 -1408.1783352) rotate(0)"><polygon id="270200275" class="tile" points="104.166902559,1808.4549209 104.17268296,1823.90327756 99.9322449261,1823.79921951 100.062249207,1808.05643489 104.166902559,1808.4549209 " moovel_rot="47.8" moovel_centroid="102.076607836,1816.09497485" moovel_centroidlatlon="-73.80468738408518,40.696478473891176"></polygon></g></g><g transform="translate(0 1327.7)"><polygon id="4" class="bin" points="-1.875,0.0 0.77665042945,1.09834957055 1.875,3.75 1.875,1203.749999 0.77665042945,1206.40164943 -1.875,1207.499999 -189.759391107,1207.499999 -192.437272525,1206.37515635 -193.50864982,1203.67543959 -192.330786522,1201.02045222 -175.134864876,1184.82087124 -174.214255419,1183.75533616 -164.734960396,1170.18947603 -164.071997172,1169.00729298 -156.633160812,1151.99883554 -156.140282577,1150.30875382 -153.324646348,1132.31578918 -153.276968933,1130.56270343 -155.272502861,1110.84216401 -155.351094659,1110.29012525 -163.395091207,1066.57772236 -163.081410743,1064.26320086 -161.458668308,1062.58328652 -159.554364641,1061.57727808 -158.122362483,1057.7130522 -158.499959988,1020.16520593 -157.85041771,1018.01779537 -156.091221451,1016.62549302 -155.86681925,1016.5395595 -154.099363997,1012.44986471 -153.00787505,895.79250207 -154.652519938,891.714156471 -158.699192061,889.993051242 -206.649293604,889.53922532 -246.573356109,889.195897302 -249.650071348,887.542903524 -250.02990633,884.070974596 -249.536423231,882.818912303 -250.807309263,833.436853965 -250.154208758,831.223917396 -248.329187575,829.812207012 -247.671483029,829.57534092 -245.852809101,825.431749141 -245.287377173,753.26445714 -246.564701231,749.234363452 -280.510250026,701.855655464 -281.150133998,698.99375597 -279.534482453,696.546392022 -277.92954543,696.247940503 -273.668453162,693.835537346 -249.62365953,664.650464857 -248.478708737,662.653529785 -240.844844429,641.873701776 -237.254412474,632.096113249 -236.878834207,630.516760491 -233.335609481,599.845648232 -233.348798646,598.162506672 -237.328790599,567.881257891 -237.588590525,566.70926909 -247.648175499,534.823906956 -248.371790824,533.253660463 -266.586966545,504.072890123 -267.390563066,503.025144043 -289.278559812,479.554404598 -300.591637369,467.412698567 -300.788915622,467.213582363 -301.874999,464.574255133 -301.874999,413.348389673 -300.886815185,410.811684849 -278.680044455,386.634248727 -277.027235993,383.431067478 -266.752217931,335.170940973 -265.375417605,332.983031402 -262.909934344,332.205908681 -239.538762334,333.294584221 -235.270435525,331.670792673 -233.546307746,327.441998974 -234.812181916,272.252647731 -236.534488992,268.278228324 -240.540943997,266.631817202 -254.271307168,266.578075988 -257.373884798,264.912623885 -272.896503348,241.699614566 -273.524519781,239.426838668 -272.912608089,227.253167393 -272.987108887,225.842564384 -276.50795722,203.420552138 -278.673581981,199.758190044 -282.762307808,198.581267006 -284.480747397,198.750194791 -297.758848154,200.052896212 -300.643871201,199.098904329 -301.874999,196.320814547 -301.874999,168.232391449 -300.889939621,165.699092541 -298.452277208,164.496700218 -295.842674278,165.256909327 -283.505019928,174.720428976 -279.381132554,176.129906022 -266.354050434,176.186609395 -262.217208093,174.81244521 -258.858049716,172.28113781 -256.805508312,169.775135751 -252.969514237,161.7825472 -252.294952427,158.81692357 -252.320438891,3.75061634431 -251.222307272,1.09856749013 -248.570438941,0.0 -1.875,0.0 " moovel_rot="0" moovel_centroid="-120.28040726841077,551.4809293427131" moovel_centroidlatlon="0,0" transform="translate(301.875 0)"></polygon><g transform="translate(-225.2873102 -1222.82452321941) rotate(0)"><polygon id="306425803" class="tile" points="254.615954129,1683.21096943 253.251774049,1638.92621041 227.851461881,1638.64000771 227.826469909,1658.19635773 227.813674583,1664.0074564 227.80164214,1678.12043152 227.791056303,1681.75149443 227.787312264,1684.07242981 254.615954129,1683.21096943 " moovel_rot="42.2" moovel_centroid="240.825468837,1661.41951299" moovel_centroidlatlon="-73.86673460939976,40.768417212336"></polygon></g><g transform="translate(-167.9062121 -1401.3619303) rotate(0)"><polygon id="266174996" class="tile" points="202.597871542,1808.05643489 202.030593961,1855.11512972 207.072271366,1855.45697963 201.981098509,1862.46915152 201.951606911,1864.15872402 204.349797695,1864.32750815 226.609145659,1864.28851455 226.564639906,1838.22164853 218.829051741,1838.08662333 219.003550304,1808.50980175 202.597871542,1808.05643489 " moovel_rot="-89.0" moovel_centroid="212.880903053,1838.76720272" moovel_centroidlatlon="-73.75377444233979,40.593603840335476"></polygon></g><g transform="translate(-340.4066955 -1454.9502385) rotate(0)"><polygon id="377121567" class="tile" points="373.734272113,1808.06006391 389.849468709,1808.05643489 389.831296599,1830.18549084 407.927038895,1830.17725304 407.914146157,1846.9193131 382.74195172,1846.92908911 382.736848339,1856.64388553 373.698128847,1856.64598004 373.734272113,1808.06006391 " moovel_rot="-81.6" moovel_centroid="386.56187657,1832.88429802" moovel_centroidlatlon="-73.89335352364157,40.755126334757215"></polygon></g><g transform="translate(-58.016223800000006 -1079.5732249) rotate(0)"><polygon id="314183372" class="tile" points="145.614348913,1476.47167937 145.827175333,1520.87742161 121.682371887,1520.95821244 121.727320962,1476.55561185 145.614348913,1476.47167937 " moovel_rot="62.9" moovel_centroid="133.71306079,1498.75544731" moovel_centroidlatlon="-73.98072836878201,40.68317054632438"></polygon></g><g transform="translate(-497.0868463 -1307.5712503) rotate(0)"><polygon id="294357877" class="tile" points="569.632299968,1639.01375485 588.106497092,1638.64000771 589.208546787,1685.19693047 587.192844236,1694.27110456 585.830349937,1699.62066263 569.572960589,1697.06161819 571.129194377,1685.80093733 574.701776877,1686.19438813 569.632299968,1639.01375485 " moovel_rot="-48.8" moovel_centroid="580.114655229,1668.09204108" moovel_centroidlatlon="-73.90979119462588,40.862685539841785"></polygon></g><g transform="translate(-128.76528689999998 -754.6150596000001) rotate(0)"><polygon id="184663691" class="tile" points="217.104049897,1248.18916858 217.104055377,1241.07991387 217.101563341,1238.44680106 217.099601788,1232.49847359 212.954300226,1232.52012085 212.965437151,1233.86035317 204.590354118,1233.83753341 204.597016605,1231.36537871 199.515461801,1231.32353883 199.64396074,1223.50704552 198.360361181,1223.50564478 198.357435915,1219.28572413 217.268084421,1219.29851554 217.268951042,1217.74736978 217.304215543,1208.9946839 217.26113354,1201.01893452 192.459394939,1201.0 192.484554642,1248.17149771 217.104049897,1248.18916858 " moovel_rot="8.7" moovel_centroid="203.907001441,1224.1697708618478" moovel_centroidlatlon="-73.94169630760653,40.59751278213287"></polygon></g><g transform="translate(-339.48367329999996 -1083.6061448) rotate(0)"><polygon id="244091365" class="tile" points="433.026942839,1476.4761069 432.980363445,1532.25697898 449.37536961,1532.25254823 449.421971104,1476.47167937 433.026942839,1476.4761069 " moovel_rot="-81.7" moovel_centroid="441.201161676,1504.3643221" moovel_centroidlatlon="-73.99700410000003,40.5754753"></polygon></g><g transform="translate(-278.0192682 -1310.4596756) rotate(0)"><polygon id="181275815" class="tile" points="375.067056316,1638.64000771 389.802079037,1657.9891331 404.251408825,1676.97335599 375.07667615,1698.4844062 375.067056316,1638.64000771 " moovel_rot="-86.6" moovel_centroid="384.798805031,1671.36475563" moovel_centroidlatlon="-73.90825934892975,40.61987862930861"></polygon></g><g transform="translate(-23.853972400000004 -1618.0093458000001) rotate(0)"><polygon id="185021224" class="tile" points="117.371763507,2108.49628646 117.362236602,2078.46303911 117.352577554,2071.66022443 150.329060009,2071.69592212 150.3277747,2084.4602949 150.33044801,2086.69619259 150.334464386,2088.93863302 129.998798487,2088.81051372 129.902238213,2108.21514331 123.828292167,2108.35054059 117.371763507,2108.49628646 " moovel_rot="78.4" moovel_centroid="130.767693573,2085.80725161" moovel_centroidlatlon="-74.16083753131235,40.610124484207454"></polygon></g><g transform="translate(-356.67587359999993 -1073.6459387999998) rotate(0)"><polygon id="214712411" class="tile" points="471.619908041,1479.69049946 477.361988725,1479.39348661 477.318986223,1476.67516989 486.404639404,1476.47167937 487.026191203,1498.72909711 487.06686605,1509.71813969 488.643549879,1509.68217815 488.711139045,1510.93926464 494.863672432,1510.89256443 490.079186706,1521.90675385 471.567532689,1522.32053935 471.619908041,1479.69049946 " moovel_rot="-23.9" moovel_centroid="480.228220258,1501.34861371" moovel_centroidlatlon="-73.84887454094302,40.739091590503236"></polygon></g><g transform="translate(-166.38195469999997 -1309.3001617) rotate(0)"><polygon id="299950360" class="tile" points="296.91389083,1638.80319635 297.090478348,1650.71139411 297.47252355,1676.68503976 296.91197169,1688.78411651 298.87573218,1689.58202477 319.360982908,1647.99655242 317.485589981,1647.29169112 316.323350205,1646.85026616 313.730701443,1646.77701097 314.0483768,1638.64000771 296.91389083,1638.80319635 " moovel_rot="-90.3" moovel_centroid="304.92974527,1658.00535247" moovel_centroidlatlon="-73.9324560176142,40.78434642381094"></polygon></g><g transform="translate(-357.8660013 -1502.1970651) rotate(0)"><polygon id="277182905" class="tile" points="489.581975398,1984.96041564 489.334759399,1973.17438779 489.686150951,1966.83180523 491.054051122,1955.44948553 496.530395277,1956.05250217 499.261426554,1956.15085552 500.663801861,1955.36065765 501.837309295,1953.0622098 510.169362602,1957.9985771 512.461879179,1960.59770533 514.303156522,1963.86544618 515.203253894,1967.65340569 515.829323413,1972.42447736 515.827353437,1975.69999432 514.744609744,1978.15952186 512.771255878,1980.49429837 509.803573696,1982.16650134 506.890782539,1983.20140355 494.765683503,1986.13255603 491.43794198,1986.78479244 490.184095614,1986.0562186 489.581975398,1984.96041564 " moovel_rot="-29.4" moovel_centroid="501.503059603,1970.43662188" moovel_centroidlatlon="-73.90944915786291,40.914701145507436"></polygon></g><g transform="translate(-43.149400299999996 -1423.6109251) rotate(0)"><polygon id="442637492" class="tile" points="177.895261573,1808.05643489 177.896980465,1817.7865424 193.150379024,1817.81045332 193.144896692,1837.76606456 178.20064039,1837.75011558 178.202256359,1842.68177412 200.941621275,1842.71117921 200.951606911,1808.08602229 177.895261573,1808.05643489 " moovel_rot="8.0" moovel_centroid="191.868166473,1823.85580659" moovel_centroidlatlon="-73.90367151369037,40.753996709105216"></polygon></g></g></svg>