<svg><g transform="translate(0 0)"><polygon id="5" class="bin" points="-1.875,0.0 0.77665042945,1.09834957055 1.875,3.75 1.875,1203.749999 0.77665042945,1206.40164943 -1.875,1207.499999 -298.124999,1207.499999 -300.776649429,1206.40164943 -301.874999,1203.749999 -301.874999,1039.6545964 -300.801566342,1037.02809926 -298.195805794,1035.90526494 -276.707475571,1035.49945399 -271.632700623,1033.27986944 -271.07949824,1032.70536914 -266.547573972,1030.73882642 -264.924088825,1026.67200809 -265.697077148,956.174376003 -267.282027418,952.262842979 -269.429951216,949.092401635 -269.648939548,945.314177 -269.121422637,943.168832534 -267.477635165,941.692777074 -267.141221375,941.537395969 -265.521910106,937.698001236 -263.909150609,883.287325459 -262.373713725,880.370971051 -261.270648493,879.564686666 -260.643126308,875.1472166 -262.070456026,869.74116811 -262.194533013,868.748375038 -261.798917762,826.96534855 -260.658877694,824.30799475 -257.967118847,823.251749094 -257.856289776,823.25417216 -253.816321287,821.718995182 -251.984708688,817.804495338 -249.205892149,765.063217769 -247.406307962,762.054495399 -242.624514355,759.153195213 -239.926017774,754.869062165 -241.731264364,750.13865367 -249.5838833,742.926714908 -250.17429994,742.442094246 -273.337893885,725.492421597 -273.85698296,725.033228922 -300.209495169,696.972211437 -300.284517914,696.919365738 -301.874999,693.853590459 -301.874999,662.321436472 -300.784776516,659.677938116 -236.506489437,595.003813267 -235.036331306,592.797535306 -229.268874689,578.894984334 -228.754492864,576.623494464 -228.172710684,565.477581971 -228.570988097,562.791448341 -261.292681985,472.180103975 -261.352711723,472.020124313 -281.543436226,420.179645781 -281.164839613,416.731878965 -278.120748451,415.069368694 -269.728806209,414.90903334 -269.596082122,414.905215088 -257.205614317,414.428972737 -251.257238078,410.280841896 -250.518840408,408.491196317 -250.37356718,408.180272617 -249.832995785,407.149154943 -249.795641768,407.079690025 -248.679428362,405.055269396 -248.603514784,404.923942649 -247.393089309,402.924426982 -247.335399381,402.832176322 -246.725376532,401.887470942 -246.2979826,401.343279698 -237.945977664,392.523287029 -235.917339109,386.578579482 -235.959850407,386.105040268 -235.107445657,383.774628374 -236.954630378,379.673762216 -237.027878098,376.767747434 -235.0025143,374.68251636 -232.040649855,373.423468734 -226.989885531,368.318811158 -225.768963359,366.487378867 -224.987285632,365.284416324 -224.139954503,363.317628259 -223.996867525,362.753894555 -223.788246311,360.88285514 -225.606544229,292.252349424 -225.60636561,292.047186785 -225.439508097,286.137915109 -225.427373721,285.924342648 -225.204323469,283.315221561 -225.180301042,282.844613537 -225.14830518,280.931299405 -225.096575355,280.370162036 -223.831178396,272.869641406 -224.401932621,269.229213766 -227.047412671,266.664080419 -234.278788984,263.194716217 -234.117942211,262.859454921 -235.321047059,262.080543745 -235.489058332,262.251826981 -291.218195595,207.587263562 -292.342191463,204.891430796 -291.191314121,202.20696393 -289.108614179,200.204489171 -277.902702584,172.772846604 -277.867558936,172.689689854 -237.171820194,79.538820905 -236.834031207,78.5766624488 -222.451455047,25.2360664643 -223.135515248,20.6937940374 -226.938002222,18.1167278804 -277.686904573,8.73638250067 -281.550428602,9.36767068374 -284.12984236,12.3124911125 -286.745464784,18.9650932206 -288.818158996,21.064815971 -291.768151321,21.0153972988 -299.657742526,17.482050527 -301.874999,14.0595956647 -301.874999,3.75 -300.776649429,1.09834957055 -298.124999,0.0 -1.875,0.0 " moovel_rot="0" moovel_centroid="-131.6836058183792,622.1308315220475" moovel_centroidlatlon="0,0" transform="translate(301.875 0)"></polygon><g transform="translate(-348.421973544107 -729.6187540405004) rotate(0)"><polygon id="443136832" class="tile" points="387.94273516,1849.42646412 442.790117751,1859.98186858 475.745479969,1690.53969746 439.657518023,1670.22632968 403.075368943,1663.60802854 402.390246503,1647.34439989 387.794795961,1647.31731466 387.94273516,1849.42646412 " moovel_rot="-6.2" moovel_centroid="423.716965706,1754.14172333" moovel_centroidlatlon="-74.16797385209976,40.5838235824182"></polygon></g><g transform="translate(56.16249099999999 -1443.2740848) rotate(0)"><polygon id="59386207" class="tile" points="150.201921293,2553.60654623 58.8249140609,2546.37980629 62.4300742891,2475.25926015 73.6771025982,2429.60876971 78.3005140122,2413.10800562 91.1612043336,2412.06642504 95.8567741998,2405.69584441 93.0204856757,2395.9875852 85.2447232708,2392.9246065 77.1336443204,2397.21845693 74.7816797446,2401.23962388 67.8534721483,2385.33496751 150.123763423,2389.19236751 150.201921293,2553.60654623 " moovel_rot="-48.4" moovel_centroid="108.763315454,2473.52443568" moovel_centroidlatlon="-74.08689921452134,40.572606984162846"></polygon></g><g transform="translate(-423.4229699 -708.8379322000001) rotate(0)"><polygon id="443136836" class="tile" points="520.618492721,1647.31731466 566.270920462,1644.9121666 591.885860671,1639.58914555 591.974526329,1447.55558244 531.267749687,1483.70910872 535.781515938,1496.4905905 511.275266532,1500.59909287 518.11361125,1549.03614578 520.618492721,1647.31731466 " moovel_rot="55.3" moovel_centroid="556.538374807,1556.48701235" moovel_centroidlatlon="-74.16767178192163,40.57787370520861"></polygon></g><g transform="translate(-301.7911623 -1048.8012602999997) rotate(0)"><polygon id="329318004" class="tile" points="512.944247159,1859.98186858 538.366442875,1860.15854026 538.186030485,2248.80129239 513.328443918,2248.73381502 512.944247159,1859.98186858 " moovel_rot="50.9" moovel_centroid="525.705526665,2053.69144263" moovel_centroidlatlon="-73.77194839972408,40.67911756658756"></polygon></g><g transform="translate(-301.1225322 -550.7696127) rotate(0)"><polygon id="241819964" class="tile" points="369.877093209,1201.0 370.890244719,1242.07047791 365.354181273,1244.61059976 365.431183545,1328.31419523 389.113309695,1328.87386367 397.222258029,1315.20242781 420.447079047,1313.28001099 439.985994259,1276.48939435 451.304796508,1280.16612682 457.717998166,1268.07955139 452.42300932,1201.42313433 369.877093209,1201.0 " moovel_rot="-88.0" moovel_centroid="406.769861475,1257.440269519839" moovel_centroidlatlon="-74.17219292706977,40.62832804984025"></polygon></g><g transform="translate(169.48559160000002 -633.7003457) rotate(0)"><polygon id="286120221" class="tile" points="15.4414415246,1447.55558244 1.77951607015,1375.2550141 1.0,1364.90219331 3.14563438389,1254.29844161 5.17030998804,1201.0 43.5776047902,1203.09379702 43.6968196876,1366.28962569 5.82990693841,1365.13062878 5.160486136,1366.25591033 6.1181156246,1372.9743187 7.23863123544,1373.75832525 43.3608912157,1369.08957856 42.9762084344,1442.12629845 15.4414415246,1447.55558244 " moovel_rot="-93.0" moovel_centroid="23.730283357938116,1318.8536711931201" moovel_centroidlatlon="-74.10557072023303,40.60762448986813"></polygon></g><g transform="translate(-65.5484548 -914.3466258999999) rotate(0)"><polygon id="363539141" class="tile" points="235.748732377,1533.12999301 221.300165816,1533.01359002 221.71737634,1559.3174452 159.412698523,1559.70583071 158.572910761,1552.8203398 158.479929314,1484.23405977 158.929876654,1473.96894494 162.088347194,1464.31453887 172.109006601,1448.15811288 177.608857112,1450.81562893 219.42660545,1451.36214729 224.407235692,1447.55558244 233.914222483,1447.866176 236.299095201,1464.98123521 236.351071379,1515.56112356 235.727727812,1515.56226631 235.748732377,1533.12999301 " moovel_rot="57.5" moovel_centroid="196.411405861,1503.67291938" moovel_centroidlatlon="-73.99731650480797,40.6715354208158"></polygon></g><g transform="translate(-32.11895450000003 -1185.4086250999999) rotate(0)"><polygon id="275355497" class="tile" points="293.629495456,2018.39977525 247.783236942,1964.49442082 247.733957787,1959.70365 247.823984474,1859.98186858 303.060287018,1860.03051337 302.921284655,2011.05757645 294.509628672,2017.6999049 293.629495456,2018.39977525 " moovel_rot="-24.0" moovel_centroid="277.306850163,1928.69875853" moovel_centroidlatlon="-73.9241930079295,40.82970631812121"></polygon></g><g transform="translate(-76.7666944 -1715.7608406999998) rotate(0)"><polygon id="130008711" class="tile" points="299.892246313,2249.32428663 338.402384153,2248.80129239 341.824200691,2249.44303268 343.654151611,2251.18243916 345.507096845,2253.64071492 346.274116397,2255.93939835 346.551272711,2291.99906571 346.08174679,2294.86094836 343.771613095,2295.80821916 341.982056417,2295.84882988 341.273306011,2319.96430714 345.715260548,2326.10985504 347.30081869,2384.20320707 292.402913079,2385.33496751 292.820408812,2344.55781832 294.170646654,2344.58858767 292.423552323,2275.54975306 299.912125591,2266.0979331 299.892246313,2249.32428663 " moovel_rot="-1.3" moovel_centroid="319.688745058,2318.53419856" moovel_centroidlatlon="-73.80282459353607,40.66004148012139"></polygon></g><g transform="translate(-5.2319042999999965 -1219.2036193) rotate(0)"><polygon id="357531024" class="tile" points="270.534509035,1715.46024964 264.213077004,1719.0276843 252.843988398,1699.45533391 256.506201879,1673.28263216 265.850493163,1674.65228081 269.447439875,1672.28665422 270.253422155,1668.38604765 265.635493348,1667.77104768 266.554999214,1660.83871621 262.723738371,1660.33168552 263.160230444,1657.02639753 195.855805546,1647.31731466 188.986670158,1657.58270354 225.553085417,1730.60891538 228.28232506,1729.23854777 229.528976985,1729.52757734 232.04076512,1734.87818047 231.438393685,1735.65174683 230.481766982,1735.48284945 229.240187719,1732.02248792 209.99607045,1739.14168332 210.83671417,1742.20861503 210.175801838,1742.84425544 201.991235372,1746.51140978 206.018168276,1754.3652192 206.699456148,1760.20800094 204.951190681,1764.42868714 189.015934593,1771.43111841 194.356733109,1784.94445215 216.411431034,1778.10858672 210.731927313,1748.9193919 270.842897338,1729.21960195 270.534509035,1715.46024964 " moovel_rot="22.5" moovel_centroid="229.320589135,1699.03513713" moovel_centroidlatlon="-74.23517878855328,40.51753137462211"></polygon></g><g transform="translate(55.051389900000004 -1208.4682437000001) rotate(0)"><polygon id="90145479" class="tile" points="61.4684317365,1736.39389624 63.9591305472,1735.56902861 65.34806762,1733.77766739 66.1147140104,1726.56387349 66.170020763,1663.56330357 57.8418343065,1655.11126171 55.9471001202,1647.31731466 8.67221676819,1656.17482632 9.48223312441,1661.89587703 1.3598785501,1662.86836244 2.35928276516,1669.25618416 3.43725133818,1669.04511058 5.56129856743,1689.56021885 0.0,1690.63581179 3.48558314703,1720.26683922 8.73673810847,1719.75196648 10.2459376205,1729.41020008 14.7030227881,1729.09241197 16.1021311367,1742.0962667 61.4684317365,1736.39389624 " moovel_rot="47.8" moovel_centroid="35.40454228588038,1695.04531007" moovel_centroidlatlon="-73.87641753103328,40.79230293643207"></polygon></g><g transform="translate(-8.960130300000003 -1271.6540074) rotate(0)"><polygon id="180522738" class="tile" points="114.48759882,1647.51547128 112.923067655,1690.42300521 141.522235404,1734.85050201 149.350208046,1735.29516178 158.333712748,1735.79411229 158.61462342,1711.84605207 179.466446488,1712.01906257 187.979247927,1712.29815368 187.986670158,1674.96047686 183.437563825,1674.60034017 181.94337262,1649.72733885 181.560250181,1647.31731466 178.08455868,1647.32689426 165.418897226,1647.36651494 150.56933019,1647.41020248 136.545319994,1647.44750766 121.053585633,1647.49611994 114.48759882,1647.51547128 " moovel_rot="-59.8" moovel_centroid="150.193587017,1684.38414888" moovel_centroidlatlon="-73.87160426732875,40.65018831679665"></polygon></g><g transform="translate(16.81508549999998 -1591.4606125) rotate(0)"><polygon id="224013699" class="tile" points="232.007860579,1871.74017884 207.17961532,1859.98186858 175.897647214,1968.480758 178.411605581,1968.91043657 167.146298891,1994.27100704 176.196480706,1998.64784035 184.894296032,2001.15355917 181.230394377,2013.40624713 205.894578994,2019.1603605 218.009846295,2020.07119087 232.141523187,2004.69987376 216.585623431,1989.0208092 201.659951864,2000.2977527 196.179719288,1998.54208253 232.007860579,1871.74017884 " moovel_rot="-78.5" moovel_centroid="201.877384591,1947.0203343" moovel_centroidlatlon="-73.97359779939264,40.57864092155474"></polygon></g><g transform="translate(46.8181481 -1201.2118596) rotate(0)"><polygon id="283809362" class="tile" points="57.158904117,1447.78298888 38.0135463037,1458.37090376 35.0154227072,1464.78099473 33.6354013156,1471.76169337 33.4913322352,1483.54493702 34.9808911834,1495.56827088 38.3022479083,1496.82136533 38.8573760318,1498.42447971 37.0560474314,1499.55009399 35.5844636623,1498.75911088 35.6933569008,1572.6980876 77.0279842386,1571.57411179 77.0104053022,1469.71912521 76.6925189568,1463.03658009 74.6825357627,1460.12777316 65.2013602071,1449.71965401 62.9822198208,1448.19090722 60.7753537159,1447.55558244 57.158904117,1447.78298888 " moovel_rot="70.9" moovel_centroid="56.1336937833,1512.40754644" moovel_centroidlatlon="-73.77610943285306,40.67925052588878"></polygon></g><g transform="translate(-119.04252779999999 -2203.6703211999998) rotate(0)"><polygon id="224707316" class="tile" points="323.829934054,2520.95645043 313.958623453,2502.93521507 318.85415815,2500.2286736 298.410385854,2463.20565898 291.781045557,2454.95107794 278.555775752,2443.86000632 293.351891462,2425.34432779 320.368312682,2427.4538333 323.733401914,2385.33496751 259.03146432,2434.11766088 248.633605651,2441.74786675 237.481723538,2451.84157083 271.425215379,2480.61649629 298.184438456,2528.91057279 323.829934054,2520.95645043 " moovel_rot="58.6" moovel_centroid="288.515354427,2460.62597241" moovel_centroidlatlon="-73.97388135205168,40.57711502445399"></polygon></g><g transform="translate(29.21668790000001 -2089.4842925999997) rotate(0)"><polygon id="373017715" class="tile" points="180.478897512,2262.02546288 180.363557594,2347.00762645 184.141310288,2356.88091923 231.937045763,2337.77767366 230.799613909,2248.80129239 205.117755334,2249.83644118 205.389521289,2261.56340168 198.299895607,2261.93306147 191.180281842,2261.96926873 180.478897512,2262.02546288 " moovel_rot="47.8" moovel_centroid="205.952973992,2301.7328585" moovel_centroidlatlon="-74.0114400026498,40.67298677219581"></polygon></g><g transform="translate(-260.82440260000004 -576.8073462) rotate(0)"><polygon id="413778946" class="tile" points="530.265566365,1776.67825677 530.160533354,1647.31731466 502.279318099,1647.44630228 502.384588598,1776.80742205 530.265566365,1776.67825677 " moovel_rot="-53.2" moovel_centroid="516.272498319,1712.06223219" moovel_centroidlatlon="-74.16081815000001,40.54556005"></polygon></g><g transform="translate(-183.68995589999997 -1028.2786621) rotate(0)"><polygon id="393391810" class="tile" points="234.621736028,1201.0 234.656713264,1268.4586567 241.173847565,1268.65847173 246.182508854,1275.13130562 276.51377569,1275.81732784 281.451502142,1264.82632863 282.520000336,1201.70334354 234.621736028,1201.0 " moovel_rot="0.6" moovel_centroid="258.442263702,1237.3734485689513" moovel_centroidlatlon="-73.80141017774028,40.65907044589025"></polygon></g><g transform="translate(34.637422099999995 -2138.0978786) rotate(0)"><polygon id="301510359" class="tile" points="98.8991680725,2248.80129239 101.952222893,2252.59918842 103.432343128,2254.64847809 124.300926948,2281.78140302 121.780289509,2283.89333951 93.2719757019,2285.03836139 90.0268579038,2285.2010713 84.2488806289,2285.42882387 88.4576213948,2360.11854502 87.1915173138,2360.18636519 87.8203393646,2375.91897466 75.1221190307,2376.17071254 73.097263708,2375.08003324 71.7715107948,2374.35792345 70.0080898069,2372.95456678 68.9093399366,2371.07028455 68.4023210417,2350.78910594 71.3819985129,2350.59482668 70.2363098871,2313.60117793 68.6796083104,2278.27399102 68.3647828314,2270.45161815 68.8140904102,2268.3384688 70.1318708662,2266.57314093 86.2840177171,2251.21185768 93.1283645108,2252.15135893 98.8991680725,2248.80129239 " moovel_rot="4.9" moovel_centroid="85.3892824586,2303.17370554" moovel_centroidlatlon="-73.88363069560044,40.77535967623678"></polygon></g><g transform="translate(-415.61822179999996 -1250.1209640000002) rotate(0)"><polygon id="185148217" class="tile" points="480.768222541,2385.33496751 506.526238194,2385.43395125 509.5205529,2385.43893464 510.366356913,2425.52259142 510.571379294,2435.09982691 510.678619854,2440.19214588 482.214667246,2441.40533309 455.659326074,2441.45873497 455.698528457,2385.58132126 480.768222541,2385.33496751 " moovel_rot="-82.6" moovel_centroid="482.797519729,2413.36813123" moovel_centroidlatlon="-73.93230710151636,40.58770211883607"></polygon></g><g transform="translate(-74.5405873 -1263.7927057000002) rotate(0)"><polygon id="355939234" class="tile" points="174.20645577,2435.19079632 178.783298295,2439.76200915 223.563083549,2440.05891683 223.691326585,2435.81101023 227.729414124,2435.73711329 227.683707199,2402.3294395 211.180793265,2385.33496751 181.778758726,2385.3651377 181.774125341,2386.26820633 178.763469744,2386.2650852 178.811417739,2392.26144214 174.315083594,2392.31373993 174.20645577,2435.19079632 " moovel_rot="66.8" moovel_centroid="200.156725438,2413.79862514" moovel_centroidlatlon="-73.86369162593843,40.736550207263875"></polygon></g><g transform="translate(-370.9501156 -1107.8082236999999) rotate(0)"><polygon id="275314796" class="tile" points="540.434591068,1310.13519826 532.338205812,1309.65720596 533.636683556,1286.151298 535.435801526,1265.85033306 532.218952897,1201.98010702 540.519334262,1201.0 541.518901979,1207.88774122 547.355496364,1212.15741451 546.197461189,1213.72151053 561.67318377,1225.15361524 563.812608862,1226.62424713 564.100640852,1228.81114479 564.760382686,1233.68526118 575.747820122,1230.58724124 577.392794439,1233.29649712 578.35896527,1235.62903985 551.983659967,1280.46754398 540.434591068,1310.13519826 " moovel_rot="67.5" moovel_centroid="548.025538446,1251.4988101662427" moovel_centroidlatlon="-73.95060358046885,40.73929900051543"></polygon></g><g transform="translate(-406.3935968 -1035.6631246000002) rotate(0)"><polygon id="287650135" class="tile" points="450.074574232,1938.04446689 476.491267068,1935.78958474 479.556455947,1909.55030624 476.2083379,1859.98186858 450.024957,1860.89289594 450.074574232,1938.04446689 " moovel_rot="70.5" moovel_centroid="463.963710074,1898.90756858" moovel_centroidlatlon="-73.80685533058758,40.863023611008735"></polygon></g><g transform="translate(-75.08081239999999 -1746.3078347) rotate(0)"><polygon id="275731232" class="tile" points="165.561059623,1914.1301452 133.835704917,1914.1438472 130.346048276,1910.07452498 126.505956444,1910.02819556 126.436939661,1859.98186858 133.830058131,1860.10538305 148.58465991,1860.35703677 163.114491335,1860.60077997 166.146298891,1860.65781613 165.561059623,1914.1301452 " moovel_rot="25.0" moovel_centroid="146.304782759,1886.87826895" moovel_centroidlatlon="-73.84404492545323,40.75139185503936"></polygon></g><g transform="translate(-408.5343793 -1771.5687942999998) rotate(0)"><polygon id="247460487" class="tile" points="539.286569285,2299.76052719 539.293395155,2292.52859737 534.704793344,2292.52708644 534.723661191,2256.02062262 539.508051834,2256.02246291 539.517190842,2248.80129239 573.720628979,2248.81680634 573.714705274,2256.30423366 578.384684002,2256.30497753 578.359897431,2292.33206709 573.434784918,2292.3330106 573.426189893,2299.78302164 559.871542617,2299.7743775 539.286569285,2299.76052719 " moovel_rot="-49.5" moovel_centroid="556.50910248,2274.28574823" moovel_centroidlatlon="-73.8843289133255,40.64934172335015"></polygon></g><g transform="translate(-219.55172019999998 -1952.6845455) rotate(0)"><polygon id="255477256" class="tile" points="391.889781925,2306.10832367 392.247160176,2276.55854025 372.451499637,2250.13736256 368.090376118,2248.80129239 362.755027325,2250.4308202 358.524103266,2256.06608973 348.30081869,2273.54940305 348.351799901,2308.14218786 391.889781925,2306.10832367 " moovel_rot="26.8" moovel_centroid="369.483987798,2282.60709087" moovel_centroidlatlon="-73.93019186993487,40.82646677483918"></polygon></g><g transform="translate(135.2443967 -1133.7612923) rotate(0)"><polygon id="246732889" class="tile" points="67.3242382493,2248.80131663 67.3647828314,2310.35465272 22.9478181489,2310.31403752 22.9189172104,2270.97900967 60.7274724782,2271.0210339 60.7093048707,2248.80129239 67.3242382493,2248.80131663 " moovel_rot="13.0" moovel_centroid="46.6070735417,2288.28215736" moovel_centroidlatlon="-74.21067975671768,40.52553946110809"></polygon></g><g transform="translate(72.23799570000003 -1091.8384694) rotate(0)"><polygon id="240737270" class="tile" points="139.908557375,1246.40596107 183.345775265,1246.33192534 183.440885963,1208.26695539 183.334303252,1201.0 177.354887569,1201.00824769 139.87967576,1201.0714649 139.908557375,1246.40596107 " moovel_rot="-81.6" moovel_centroid="161.643155049,1223.6942064246896" moovel_centroidlatlon="-73.96241767257972,40.689364769523"></polygon></g><g transform="translate(100.0006719 -1005.8208849) rotate(0)"><polygon id="412107610" class="tile" points="73.4805747271,1945.20263071 74.2194846421,1903.11401902 90.7452377625,1903.09380233 90.8290903654,1898.03031407 90.8992864441,1893.20466951 74.0546303608,1892.79121531 73.4970777299,1860.2600266 82.0266322542,1860.14371609 94.2193286978,1859.98186858 94.1077962097,1874.12346779 93.8600970246,1897.03622886 101.475860748,1896.87871264 101.333994946,1923.55792657 101.300828245,1928.88798767 90.7714474462,1939.64487238 90.9812906921,1944.70569625 73.4805747271,1945.20263071 " moovel_rot="-60.5" moovel_centroid="85.9864065853,1904.24567948" moovel_centroidlatlon="-73.88863609520001,40.65138586156009"></polygon></g><g transform="translate(-294.47261369999995 -1311.3857177) rotate(0)"><polygon id="160062194" class="tile" points="532.334347429,1648.5465973 554.769560142,1647.31731466 554.911945883,1671.51229979 555.081581748,1699.86569137 568.046078733,1700.48469799 568.035801793,1713.18831598 544.393147336,1713.57645814 531.265566365,1705.35937272 532.334347429,1648.5465973 " moovel_rot="23.5" moovel_centroid="545.508403751,1682.77369662" moovel_centroidlatlon="-73.85048638082074,40.74726111056693"></polygon></g><g transform="translate(-233.63159109999998 -1244.4560283) rotate(0)"><polygon id="162623407" class="tile" points="508.96852388,2248.80129239 517.113958292,2264.89566547 518.45971822,2267.6174058 508.132552727,2273.10423736 518.460059223,2293.74206151 507.051832357,2299.95070145 487.979252034,2310.33394042 474.951793489,2279.31164555 481.443665997,2261.53854194 508.96852388,2248.80129239 " moovel_rot="47.7" moovel_centroid="496.817909632,2279.10917695" moovel_centroidlatlon="-73.9078154125844,40.91094514296038"></polygon></g><g transform="translate(-42.015833499999985 -264.4995421000001) rotate(0)"><polygon id="253908447" class="tile" points="307.571138625,1267.89168717 307.585231878,1201.0 283.533006484,1201.02479736 283.520000336,1267.90989429 307.571138625,1267.89168717 " moovel_rot="-81.0" moovel_centroid="295.552541829,1234.456342900123" moovel_centroidlatlon="-73.94085942095816,40.68757429820607"></polygon></g><g transform="translate(-152.89769340000004 -568.9612320000001) rotate(0)"><polygon id="244984383" class="tile" points="394.456721392,1500.45685816 394.441777432,1447.55558244 408.574275338,1447.69304319 422.338048467,1447.94042774 422.051402363,1457.73378671 428.123007074,1459.93810199 432.337976988,1463.75694076 435.768853956,1472.70667326 430.620195882,1475.32843208 430.662179218,1483.91986361 408.798480455,1484.01362356 408.735254011,1489.18852094 411.961052093,1489.22793346 411.970669837,1500.46839287 394.456721392,1500.45685816 " moovel_rot="0.7" moovel_centroid="410.358128301,1471.50503363" moovel_centroidlatlon="-73.90956843884453,40.89124712391798"></polygon></g><g transform="translate(187.30057549999998 -936.7108479999999) rotate(0)"><polygon id="377339427" class="tile" points="66.4291628458,1201.05894488 66.4252177566,1267.66756736 89.9731903017,1267.5889805 89.9806776479,1219.5327818 83.689957349,1219.55582884 83.6921621997,1201.0 66.4291628458,1201.05894488 " moovel_rot="-31.6" moovel_centroid="77.5087483687,1236.2558712240618" moovel_centroidlatlon="-73.91591223595513,40.76372894903712"></polygon></g><g transform="translate(31.8365023 -1218.0680905000002) rotate(0)"><polygon id="157893640" class="tile" points="0.0,1906.73325308 31.9213274684,1906.65652078 31.918285042,1859.98186858 0.00262944437563,1860.06796485 0.0,1906.73325308 " moovel_rot="-68.8" moovel_centroid="15.961094999889502,1883.36059155" moovel_centroidlatlon="-73.82669603186085,40.58319421640497"></polygon></g><g transform="translate(-407.618785 -1268.1639633999998) rotate(0)"><polygon id="263999825" class="tile" points="501.279318099,1647.31743702 476.765295649,1647.31731466 476.745479969,1705.22155028 501.259501991,1705.22166242 501.279318099,1647.31743702 " moovel_rot="-2.4" moovel_centroid="489.012398566,1676.26949101" moovel_centroidlatlon="-73.98371805000001,40.691266600000006"></polygon></g><g transform="translate(-23.558103200000005 -2233.3620356) rotate(0)"><polygon id="264373546" class="tile" points="151.201921293,2385.33496751 151.267629863,2448.46818024 173.072988939,2448.37657817 173.20645577,2385.6516388 171.867243266,2385.6541854 151.201921293,2385.33496751 " moovel_rot="62.9" moovel_centroid="162.174895357,2416.91550793" moovel_centroidlatlon="-73.98678424822081,40.68901206932953"></polygon></g><g transform="translate(23.254706999999996 -1356.4834794) rotate(0)"><polygon id="396940661" class="tile" points="267.752185835,1506.42310222 265.182220292,1509.89288081 241.736004546,1515.41314896 237.351071379,1484.8719267 237.362657965,1447.55558244 245.677382416,1449.20004783 244.243560897,1462.82236984 246.548652395,1471.69889041 255.011488337,1474.80200321 270.453939079,1473.37617425 267.802730218,1484.69502297 267.752185835,1506.42310222 " moovel_rot="66.4" moovel_centroid="251.259448486,1487.68885439" moovel_centroidlatlon="-73.9213305857796,40.79803047973374"></polygon></g><g transform="translate(-274.40004020000003 -2325.3134886000003) rotate(0)"><polygon id="338075889" class="tile" points="370.47807038,2387.8190713 370.464345989,2443.88004094 382.222335289,2443.98767285 406.456084366,2419.08376788 402.679951448,2415.21768884 404.831261061,2412.8992361 401.390292305,2409.64448064 402.376137565,2408.58689352 378.852020427,2385.33496751 376.845398283,2387.52134955 370.47807038,2387.8190713 " moovel_rot="21.3" moovel_centroid="383.878708045,2415.92321133" moovel_centroidlatlon="-73.86292302538193,40.73547403426461"></polygon></g><g transform="translate(81.0048357 -1037.2890834000002) rotate(0)"><polygon id="284469843" class="tile" points="210.576859136,1207.28002151 195.201960042,1276.23783797 184.997544804,1273.71354152 184.440885963,1201.0 210.576859136,1207.28002151 " moovel_rot="78.9" moovel_centroid="194.347478775,1234.3861201234158" moovel_centroidlatlon="-73.81770214136486,40.73870770854366"></polygon></g><g transform="translate(93.13353569999998 -1391.3325515000001) rotate(0)"><polygon id="257713567" class="tile" points="88.6699778931,1496.0512963 116.936275985,1496.1765762 116.975876029,1447.68079281 88.7094876433,1447.55558244 88.6699778931,1496.0512963 " moovel_rot="52.4" moovel_centroid="102.822907795,1471.86604905" moovel_centroidlatlon="-73.91669879999999,40.70388870000001"></polygon></g><g transform="translate(161.91640769999998 -1401.2460491) rotate(0)"><polygon id="223631878" class="tile" points="118.933095542,1941.26468159 125.433580119,1941.42976564 125.436939661,1860.1190328 102.803156472,1859.98186858 102.475860748,1892.81894584 113.061107907,1892.61632012 112.762477757,1912.9590837 118.736612536,1913.4942178 118.933095542,1941.26468159 " moovel_rot="4.7" moovel_centroid="116.409721055,1890.11724789" moovel_centroidlatlon="-73.92596239905964,40.61404634662445"></polygon></g><g transform="translate(-123.50934269999999 -1314.9380841000002) rotate(0)"><polygon id="222912947" class="tile" points="398.745427169,1860.10492245 405.379454549,1859.98186858 405.238068713,1997.87481086 405.349792667,2009.01675905 402.962555125,2009.07045992 403.048233301,1998.03037579 399.496850312,1998.03528451 398.745427169,1860.10492245 " moovel_rot="-87.6" moovel_centroid="402.267222204,1929.56439547" moovel_centroidlatlon="-73.93716002174612,40.58395143369609"></polygon></g><g transform="translate(-138.75269480000003 -1421.7332118000002) rotate(0)"><polygon id="373545758" class="tile" points="277.723244227,1530.66394291 272.439851498,1525.88436916 286.008612725,1509.53583797 285.222922501,1495.38680078 271.453939079,1483.02980111 284.157731305,1447.55558244 303.869283012,1465.03386124 283.283520754,1485.18083902 287.958643103,1490.96096346 295.177387731,1498.06671757 296.485255167,1497.58047351 298.962149433,1499.88486772 297.255874473,1501.66702821 300.114404291,1504.40819051 301.673143113,1502.78002504 303.834273813,1505.25167708 277.723244227,1530.66394291 " moovel_rot="13.7" moovel_centroid="286.811523543,1485.89514953" moovel_centroidlatlon="-73.78054544863288,40.792795609520944"></polygon></g><g transform="translate(-143.5147904 -1596.2784542) rotate(0)"><polygon id="251110316" class="tile" points="386.788514072,1700.3945668 386.794795961,1647.31731466 358.572780158,1647.79542772 358.932667982,1680.95804061 358.996420291,1687.50931627 381.721582642,1687.13269563 381.942410855,1700.46839328 386.788514072,1700.3945668 " moovel_rot="-34.1" moovel_centroid="373.436858663,1668.84491078" moovel_centroidlatlon="-74.02970360635129,40.616912662717326"></polygon></g><g transform="translate(214.34461630000004 -1834.3019989999998) rotate(0)"><polygon id="325936164" class="tile" points="33.9300647799,1910.87528811 47.3280330908,1920.52084366 72.4805747271,1884.56244255 63.0558142893,1875.84695006 49.490219092,1859.98186858 33.9213274684,1872.05136568 48.9604406137,1890.2422709 33.9300647799,1910.87528811 " moovel_rot="-48.7" moovel_centroid="51.5298911344,1889.11453157" moovel_centroidlatlon="-73.85907842551914,40.711369687573075"></polygon></g><g transform="translate(-122.69824990000001 -1328.8121168999996) rotate(0)"><polygon id="224707365" class="tile" points="417.064795269,2297.60005036 417.886739706,2249.1996694 393.247160176,2248.80129239 393.307177995,2297.17018307 417.064795269,2297.60005036 " moovel_rot="81.0" moovel_centroid="405.379566111,2273.04593757" moovel_centroidlatlon="-73.9687095643901,40.57882929717816"></polygon></g><g transform="translate(-134.50012130000002 -1185.0386955) rotate(0)"><polygon id="277201237" class="tile" points="324.685178182,1647.39213662 324.388462317,1715.19642769 316.991461154,1716.55794412 309.38157976,1716.41808465 309.380045102,1712.5246436 309.342641234,1651.58650727 309.335452062,1647.31731466 324.685178182,1647.39213662 " moovel_rot="-11.1" moovel_centroid="316.924966063,1681.64202643" moovel_centroidlatlon="-73.9030908344954,40.909438219309656"></polygon></g><g transform="translate(-183.41384699999998 -1659.2302779000001) rotate(0)"><polygon id="310077333" class="tile" points="266.39535784,2248.80129239 232.937045763,2272.148253 256.555267923,2304.62656413 266.372632661,2297.24936991 266.39535784,2248.80129239 " moovel_rot="61.9" moovel_centroid="254.469785912,2277.07428974" moovel_centroidlatlon="-73.97791129324702,40.68742813570135"></polygon></g><g transform="translate(-69.16431709999999 -2241.1788073) rotate(0)"><polygon id="185193616" class="tile" points="179.363557594,2272.56919493 166.138166077,2272.61232656 166.149451457,2248.80129239 151.069889923,2248.85157542 151.037880825,2296.3082631 179.35377501,2296.2153497 179.363557594,2272.56919493 " moovel_rot="-49.8" moovel_centroid="162.898241947,2276.16248922" moovel_centroidlatlon="-73.91421840779519,40.634550588621984"></polygon></g><g transform="translate(247.0525933 -2028.2355941000003) rotate(0)"><polygon id="327399716" class="tile" points="43.5177973963,2386.56112674 32.1526626289,2385.33496751 31.6589880552,2391.03319283 27.1657544957,2390.62227661 25.3975484241,2404.17548442 31.3189223519,2405.26485718 31.5615786169,2419.74457841 36.916992861,2420.39199096 35.1422299188,2435.10681743 27.7345261179,2434.6077468 25.4096345641,2444.1375366 43.9801951263,2446.32561021 44.8465708345,2430.5290242 44.2052232873,2399.50870533 43.5177973963,2386.56112674 " moovel_rot="68.1" moovel_centroid="36.9471145313,2415.03657519" moovel_centroidlatlon="-73.96499042623293,40.78353625004033"></polygon></g><g transform="translate(-104.45885959999998 -1030.7640363) rotate(0)"><polygon id="219917091" class="tile" points="397.316741738,1907.36087235 378.247238464,1907.54375214 378.258121607,1860.32508838 396.005111682,1859.98186858 396.753730701,1865.66421305 397.745427169,1902.35910419 397.316741738,1907.36087235 " moovel_rot="-82.8" moovel_centroid="387.724171162,1884.07415017" moovel_centroidlatlon="-73.95149440253552,40.612959685563695"></polygon></g><g transform="translate(-287.0432366 -799.8756565000001) rotate(0)"><polygon id="222973562" class="tile" points="561.427473248,1860.53003946 561.409138259,1907.03856714 582.495390356,1905.82578912 578.6968805,1859.98186858 561.427473248,1860.53003946 " moovel_rot="-9.1" moovel_centroid="571.021827181,1884.11470124" moovel_centroidlatlon="-73.97412230886594,40.57949743720467"></polygon></g><g transform="translate(-290.7089789 -1856.6153355) rotate(0)"><polygon id="442637499" class="tile" points="480.556455947,1907.87374141 500.927276467,1907.85481042 500.924507139,1888.70383553 503.726881532,1888.7015935 503.727367251,1872.14718908 500.277055413,1872.15392668 500.272414371,1859.98186858 493.524269358,1859.98278611 493.524674483,1872.50490105 480.559534416,1872.51300761 480.556455947,1907.87374141 " moovel_rot="-82.1" moovel_centroid="491.986650147,1887.27255314" moovel_centroidlatlon="-73.90075556672834,40.7536822353791"></polygon></g><g transform="translate(-306.4926543 -2381.7000252999997) rotate(0)"><polygon id="185021224" class="tile" points="421.696625196,2422.17102954 421.68709829,2392.13778219 421.677439243,2385.33496751 454.653921697,2385.37066519 454.652636388,2398.13503798 454.655309698,2400.37093566 454.659326074,2402.61337609 434.323660176,2402.48525679 434.227099902,2421.88988639 428.153153856,2422.02528367 421.696625196,2422.17102954 " moovel_rot="78.4" moovel_centroid="435.092555261,2399.48199469" moovel_centroidlatlon="-74.16083753131235,40.610124484207454"></polygon></g><g transform="translate(-305.1154818 -87.07888230000003) rotate(0)"><polygon id="201146428" class="tile" points="340.277233388,1231.96566238 335.457727967,1249.59204948 328.743993814,1247.62251512 320.558856897,1245.23100508 328.224821083,1228.72841507 328.854632128,1226.74050806 330.467715738,1227.17162557 331.930576636,1221.78807064 310.047517123,1215.87573088 308.585231878,1215.35430137 311.906620529,1208.30233343 315.339299937,1201.0 337.16472779,1207.37411186 340.297835935,1208.2878031 338.675269238,1214.706954 339.989579817,1215.03073234 338.384454464,1221.41380268 339.810126612,1221.7691593 338.596834501,1226.57600535 339.762386112,1226.86496415 338.5835469,1231.54009195 340.277233388,1231.96566238 " moovel_rot="-64.2" moovel_centroid="328.168117821,1222.549848384959" moovel_centroidlatlon="-73.8386862856885,40.65208104554593"></polygon></g><g transform="translate(-59.453902600000006 -609.1262341000001) rotate(0)"><polygon id="369626911" class="tile" points="93.8263584066,1671.0750191 93.9150218856,1647.40957072 91.2198515281,1647.40497518 68.170020763,1647.31731466 68.1834708806,1683.48545833 85.6604513802,1683.46234955 85.7045945045,1671.05163323 93.8263584066,1671.0750191 " moovel_rot="59.4" moovel_centroid="79.9401166563,1663.9549615" moovel_centroidlatlon="-74.00777348743173,40.71802392987747"></polygon></g><g transform="translate(-30.46216670000001 -335.40073289999987) rotate(0)"><polygon id="329776611" class="tile" points="324.997880685,1491.47917259 325.308018195,1463.41285211 317.914594205,1463.15155006 317.579442847,1448.17040438 304.869283012,1447.55558244 304.870570162,1494.93426887 324.997880685,1491.47917259 " moovel_rot="-10.8" moovel_centroid="313.938787092,1472.64491181" moovel_centroidlatlon="-73.82008670431499,40.73809178699591"></polygon></g><g transform="translate(-105.69528 -2096.0300915999997) rotate(0)"><polygon id="185329230" class="tile" points="140.062968684,2319.90392488 150.037880825,2319.90564992 150.035199661,2314.77605965 150.015572659,2281.77215783 149.992966439,2248.8030071 140.018053414,2248.80129239 140.022461173,2255.08366661 140.022957152,2261.56805959 140.030108504,2268.05301594 140.036511694,2274.54669921 140.036260741,2281.03980479 140.042665162,2287.53347371 140.043164212,2294.01783088 140.049569863,2300.51148545 140.049321371,2307.00456233 140.057225793,2313.48073449 140.062968684,2319.90392488 " moovel_rot="4.9" moovel_centroid="145.027798195,2284.35520097" moovel_centroidlatlon="-73.91813010022571,40.62527808014079"></polygon></g><g transform="translate(-382.8100455 -598.1660767) rotate(0)"><polygon id="299674963" class="tile" points="461.676835105,1455.88863453 467.149368852,1451.66798667 471.273384527,1447.55558244 469.675243737,1471.29661924 469.368469471,1490.5728148 470.450750116,1515.09039913 471.338008953,1526.15922432 468.0629435,1528.74296457 464.089549016,1532.00868216 462.608755162,1522.74350575 460.872915752,1490.68566912 460.94126078,1472.73605643 461.676835105,1455.88863453 " moovel_rot="2.5" moovel_centroid="465.879927868,1489.91567226" moovel_centroidlatlon="-73.9259227095622,40.7870629378437"></polygon></g><g transform="translate(-288.8258614 -1195.9385662) rotate(0)"><polygon id="371137434" class="tile" points="516.01589263,1239.93762765 515.167406415,1221.00284792 509.347464683,1221.22285305 509.152716398,1216.86230564 506.885180313,1216.67195086 506.923315357,1213.74817769 506.767595441,1201.70981144 508.376156157,1201.29455314 531.218952897,1201.0 531.169318528,1242.02200418 516.01589263,1239.93762765 " moovel_rot="-33.6" moovel_centroid="520.972178807,1218.8445685109261" moovel_centroidlatlon="-74.00317002994915,40.720837485330016"></polygon></g><g transform="translate(-157.5899957 -417.7136086999999) rotate(0)"><polygon id="393391808" class="tile" points="211.667214323,1201.07247206 233.589814646,1201.0 233.621736028,1237.05014071 211.576859136,1236.99296404 211.667214323,1201.07247206 " moovel_rot="-0.9" moovel_centroid="222.62049494,1219.0455858729194" moovel_centroidlatlon="-73.79508195528734,40.65740693352433"></polygon></g><g transform="translate(-85.0495104 -30.606846099999984) rotate(0)"><polygon id="331933011" class="tile" points="90.9806776479,1230.30154846 114.574423674,1230.6070434 114.760038392,1226.37938847 116.566556909,1225.2002476 119.377712953,1225.08498526 120.103543888,1205.98994656 115.988518614,1205.72562894 114.209427346,1203.19360099 114.149485813,1202.17802259 114.087419977,1201.0 90.9843002483,1201.03891017 90.9806776479,1230.30154846 " moovel_rot="-81.4" moovel_centroid="104.635393535,1215.6984214625763" moovel_centroidlatlon="-73.8756846508073,40.8589229509495"></polygon></g><g transform="translate(-218.3171024 -1573.6504866) rotate(0)"><polygon id="284917965" class="tile" points="286.446355419,1647.83934791 308.034585223,1647.31731466 308.335452062,1682.18334303 288.575178465,1682.35682926 286.439335258,1682.61089112 286.442503124,1676.33487618 286.446355419,1647.83934791 " moovel_rot="-28.1" moovel_centroid="297.328686152,1664.97501018" moovel_centroidlatlon="-73.93438311549139,40.77004079851753"></polygon></g><g transform="translate(-258.27836620000005 -2243.5653378) rotate(0)"><polygon id="372749518" class="tile" points="427.994345641,2285.90971083 442.361292155,2286.28986479 442.611621624,2248.91833298 418.886739706,2248.80129239 418.920822279,2269.06749003 429.215811401,2268.88885731 429.140259124,2276.11541969 428.187118487,2276.27149132 427.994345641,2285.90971083 " moovel_rot="-82.0" moovel_centroid="432.305270521,2265.16593085" moovel_centroidlatlon="-73.88803626570215,40.74743936374763"></polygon></g><g transform="translate(-48.98311120000005 -1608.0381979) rotate(0)"><polygon id="335920878" class="tile" points="324.86842286,2432.28761743 339.939735581,2432.26676828 339.90126172,2385.33496751 324.829934054,2385.35581479 324.86842286,2432.28761743 " moovel_rot="-82.9" moovel_centroid="332.3848385,2408.81128813" moovel_centroidlatlon="-73.9453491,40.7336999"></polygon></g><g transform="translate(-331.2623829 -1732.3067202999998) rotate(0)"><polygon id="376406579" class="tile" points="356.555295983,2430.76177309 340.939735581,2430.74382546 340.94247458,2385.33496751 356.558051483,2385.35291284 356.555295983,2430.76177309 " moovel_rot="82.1" moovel_centroid="348.748889473,2408.04836573" moovel_centroidlatlon="-73.9275103,40.744192399999996"></polygon></g><g transform="translate(197.84415049999998 -740.2910771999999) rotate(0)"><polygon id="222670213" class="tile" points="78.0279842386,1512.6107823 87.6699778931,1512.18477363 87.5591552366,1447.5940767 78.0671341341,1447.55558244 78.0279842386,1512.6107823 " moovel_rot="-88.8" moovel_centroid="82.8254343162,1480.07124322" moovel_centroidlatlon="-74.02431452321204,40.60464744391521"></polygon></g><g transform="translate(-360.6906653 -368.19630499999994) rotate(0)"><polygon id="266170769" class="tile" points="393.431920929,1476.53863169 370.343917216,1476.5222131 369.412489816,1476.52685582 369.365258856,1466.69411404 369.422301767,1447.55558244 375.019386168,1447.5611867 385.316103264,1447.56584158 393.441777432,1447.56733361 393.440877098,1462.02402165 393.437770664,1463.23233515 393.431920929,1476.53863169 " moovel_rot="61.0" moovel_centroid="381.415565463,1462.04826841" moovel_centroidlatlon="-73.98338726856038,40.758940928466444"></polygon></g><g transform="translate(-374.0404162 -1447.3987815) rotate(0)"><polygon id="194665129" class="tile" points="406.416393546,1888.7969642 410.64409976,1888.80279549 430.005364798,1888.76813774 430.420952662,1888.76638335 432.1898266,1888.76793642 432.19501652,1881.6244166 432.200839459,1859.98186858 412.870632499,1865.37700543 406.379454549,1867.1862019 406.416393546,1888.7969642 " moovel_rot="4.6" moovel_centroid="419.907930041,1876.09571643" moovel_centroidlatlon="-73.92873990724532,40.65183170388262"></polygon></g><g transform="translate(-449.9961767 -507.39236919999996) rotate(0)"><polygon id="412123947" class="tile" points="483.451628466,1229.74568574 483.446560892,1201.0792467 505.765888406,1201.0 505.767595441,1229.67221142 483.451628466,1229.74568574 " moovel_rot="-60.2" moovel_centroid="494.608291972,1215.3739248662064" moovel_centroidlatlon="-73.87432036757396,40.65278994830869"></polygon></g><g transform="translate(-189.2714637 -1023.549396) rotate(0)"><polygon id="185169183" class="tile" points="350.42785326,1647.32318433 357.539026336,1647.31731466 357.572780158,1717.35381476 350.468282291,1717.35991448 350.42785326,1647.32318433 " moovel_rot="2.0" moovel_centroid="354.001980615,1682.33307601" moovel_centroidlatlon="-73.93628452793752,40.57926641252764"></polygon></g><g transform="translate(-93.8827341 -1425.7297555) rotate(0)"><polygon id="167482433" class="tile" points="267.39535784,2248.80129239 267.40321407,2259.66148407 267.415485885,2274.83065266 291.402913079,2274.90073521 291.389878263,2259.06740224 291.382825887,2248.87134256 267.39535784,2248.80129239 " moovel_rot="51.6" moovel_centroid="279.398808719,2261.8510089" moovel_centroidlatlon="-74.0085233530565,40.61045864693493"></polygon></g><g transform="translate(-99.7353483 -362.02684709999994) rotate(0)"><polygon id="442637492" class="tile" points="341.297835935,1201.0 341.299554826,1210.73010751 356.552953386,1210.75401843 356.547471054,1230.70962967 341.603214752,1230.6936807 341.604830721,1235.62533923 364.344195637,1235.65474432 364.354181273,1201.0295874 341.297835935,1201.0 " moovel_rot="8.0" moovel_centroid="355.270740835,1216.799371707968" moovel_centroidlatlon="-73.90367151369037,40.753996709105216"></polygon></g><g transform="translate(-174.11638670000002 -1825.7556174) rotate(0)"><polygon id="409726394" class="tile" points="467.648332908,2248.80129239 457.920648781,2248.84014021 454.353448832,2248.96176413 444.187457148,2249.00683346 443.651696882,2249.03652729 443.631627783,2260.21244219 443.65098826,2264.48587427 443.611621624,2272.94619995 467.804675058,2272.59445245 467.648332908,2248.80129239 " moovel_rot="61.0" moovel_centroid="455.674852996,2260.85325108" moovel_centroidlatlon="-73.97991399263002,40.74131801020326"></polygon></g><g transform="translate(-55.12907299999995 -671.8734263000001) rotate(0)"><polygon id="266864332" class="tile" points="325.685178182,1671.44593913 325.704993091,1647.31731466 349.42785326,1647.34207252 349.408001593,1671.47071753 343.951738698,1671.46716847 328.179913452,1671.444253 325.685178182,1671.44593913 " moovel_rot="60.8" moovel_centroid="337.556965154,1659.39366319" moovel_centroidlatlon="-73.95842770118088,40.763274006460165"></polygon></g><g transform="translate(-55.559160099999986 -1784.7395648000002) rotate(0)"><polygon id="376403763" class="tile" points="345.67456814,1860.00740544 330.794035677,1859.98186858 330.77504997,1896.77521517 345.655569652,1896.80075381 345.67456814,1860.00740544 " moovel_rot="82.1" moovel_centroid="338.224805922,1878.39130811" moovel_centroidlatlon="-73.91922299999999,40.7432364"></polygon></g><g transform="translate(-85.05080620000001 -1557.0167476000001) rotate(0)"><polygon id="376424337" class="tile" points="367.317267905,1909.43207257 377.221759738,1909.42197333 377.247238464,1859.98186858 367.334041677,1859.99071341 367.317267905,1909.43207257 " moovel_rot="-81.8" moovel_centroid="372.280057403,1884.70303728" moovel_centroidlatlon="-73.89661624647458,40.75234543109009"></polygon></g><g transform="translate(-55.30657450000001 -1445.0555512) rotate(0)"><polygon id="320480972" class="tile" points="326.324523763,1447.55558244 326.308018195,1471.45182386 349.085449572,1471.35715638 348.997033476,1447.61701633 326.324523763,1447.55558244 " moovel_rot="61.4" moovel_centroid="337.666364851,1459.50458848" moovel_centroidlatlon="-73.99929394292704,40.75495375099804"></polygon></g><g transform="translate(-187.67124190000004 -971.9581569000001) rotate(0)"><polygon id="393904291" class="tile" points="482.446560892,1234.07440265 482.423288668,1201.1448305 477.278987729,1201.10338708 471.157504023,1201.0 470.801309714,1221.68316416 458.851643509,1221.47806748 458.717998166,1231.26162257 473.078052557,1231.4705293 473.047823945,1233.93726681 482.446560892,1234.07440265 " moovel_rot="-80.5" moovel_centroid="473.886093674,1219.5775851021249" moovel_centroidlatlon="-73.95290168500438,40.69064728734537"></polygon></g><g transform="translate(62.51443499999999 -1218.784421) rotate(0)"><polygon id="266864174" class="tile" points="117.975876029,1471.78003296 117.994081081,1447.707515 139.302563244,1447.55558244 139.475632341,1471.62965391 129.258245823,1471.69792696 125.848162744,1471.71287916 117.975876029,1471.78003296 " moovel_rot="61.2" moovel_centroid="128.68776395,1459.68401968" moovel_centroidlatlon="-73.96018963714185,40.76318389543643"></polygon></g><g transform="translate(-75.6531094 -283.0586278999999) rotate(0)"><polygon id="237465294" class="tile" points="350.108840518,1447.55558244 368.365258856,1447.58661458 368.347880137,1467.49511719 368.347174957,1472.10898251 350.085449572,1472.06827294 350.086884258,1470.16078924 350.108840518,1447.55558244 " moovel_rot="8.5" moovel_centroid="359.226509764,1459.83030566" moovel_centroidlatlon="-73.93583022655935,40.696673019721345"></polygon></g><g transform="translate(154.5664977 -1801.6612022000002) rotate(0)"><polygon id="201150237" class="tile" points="20.913517813,2258.93860976 20.9189172104,2248.80129239 0.0063473559916,2248.82878434 0.0123770121485,2254.13690609 0.0,2270.79623849 0.00293846167624,2271.87721343 13.1310248656,2271.86743732 13.1267536931,2270.55517869 13.1315033074,2258.9431974 16.8617977956,2258.94140507 16.8610454042,2257.22889254 19.7612896929,2257.22804843 19.7620419318,2258.94056094 20.913517813,2258.93860976 " moovel_rot="-79.4" moovel_centroid="8.60513408591245,2259.02018085" moovel_centroidlatlon="-73.8403297990107,40.66283196344971"></polygon></g><g transform="translate(52.2190952 -1915.1163429) rotate(0)"><polygon id="412123948" class="tile" points="125.300926948,2253.3467838 132.6409624,2248.80129239 139.018053414,2252.84756272 139.000843703,2279.61717807 132.894115751,2275.09896762 126.089283774,2280.14317416 125.300926948,2253.3467838 " moovel_rot="28.4" moovel_centroid="132.318486623,2264.10762292" moovel_centroidlatlon="-73.87243985050758,40.65413702433503"></polygon></g><g transform="translate(-212.54998140000004 -741.5244887) rotate(0)"><polygon id="383830154" class="tile" points="272.243118533,1647.55156872 285.430856968,1647.31731466 285.439335258,1667.11192953 271.842897338,1666.96782184 272.243118533,1647.55156872 " moovel_rot="-66.1" moovel_centroid="278.76016592,1657.28740864" moovel_centroidlatlon="-73.84855753477956,40.75025374839727"></polygon></g><g transform="translate(-412.575697 -1595.2893232) rotate(0)"><polygon id="181963437" class="tile" points="580.888718379,1647.31731466 585.301909588,1647.46266112 585.286420161,1667.1944939 583.937889462,1667.14268991 571.128865324,1666.61202986 571.015895303,1657.17243818 569.046078733,1655.67430693 573.421747955,1649.7195431 577.114652465,1652.4490991 580.888718379,1647.31731466 " moovel_rot="40.3" moovel_centroid="578.452044033,1658.1258014" moovel_centroidlatlon="-73.91484595744632,40.61942777571846"></polygon></g><g transform="translate(-282.6447623 -1847.1685221999999) rotate(0)"><polygon id="277182907" class="tile" points="357.602132102,2385.33496751 357.589078862,2387.40449592 357.558051483,2404.30803198 369.464345989,2404.38920192 369.463296322,2385.45011502 366.631782951,2385.42419418 357.602132102,2385.33496751 " moovel_rot="73.8" moovel_centroid="363.518051219,2394.87607165" moovel_centroidlatlon="-73.90901731232654,40.914958089998166"></polygon></g><g transform="translate(-208.3079594 -2202.0118178000002) rotate(0)"><polygon id="220792588" class="tile" points="236.474034905,2385.89626796 236.481723538,2411.94048243 229.293304815,2412.69948743 228.729414124,2405.92149325 229.069124298,2392.69120306 229.731956057,2385.33496751 236.474034905,2385.89626796 " moovel_rot="76.7" moovel_centroid="232.733343222,2399.13954216" moovel_centroidlatlon="-73.93272192474011,40.78293329965662"></polygon></g><g transform="translate(54.1903274 -1204.3143097000002) rotate(0)"><polygon id="301843493" class="tile" points="45.8465708345,2385.42332814 50.1760033535,2385.41338725 56.2310208661,2385.35605757 57.8249140609,2385.33496751 57.8025229951,2400.01669379 51.7775522847,2400.05153433 45.884273367,2400.06007619 45.8465708345,2385.42332814 " moovel_rot="7.8" moovel_centroid="51.842710808,2392.71209128" moovel_centroidlatlon="-73.88605504666411,40.77195436735613"></polygon></g><g transform="translate(-278.8748958 -2117.4615719) rotate(0)"><polygon id="301510332" class="tile" points="420.677439243,2395.9305475 416.182574264,2395.43669619 412.83604855,2385.33496751 409.773084128,2386.51998551 411.38710227,2391.8547905 407.456084366,2394.22598348 407.463838189,2404.60539646 415.348257168,2404.6915963 415.285942311,2399.16783384 420.670383073,2399.15886107 420.663415493,2397.65592418 420.677439243,2395.9305475 " moovel_rot="56.4" moovel_centroid="412.554136546,2396.87229699" moovel_centroidlatlon="-73.88129016024251,40.77702286109135"></polygon></g><g transform="translate(-17.6033288 -311.31562570000006) rotate(0)"><polygon id="300863062" class="tile" points="32.4913322352,1447.85299833 32.2760292176,1459.46050747 23.7696234122,1459.38246804 23.7681645062,1447.55558244 32.4913322352,1447.85299833 " moovel_rot="8.6" moovel_centroid="28.0633646449,1453.53781194" moovel_centroidlatlon="-73.88835842244762,40.772409685228205"></polygon></g><g transform="translate(-465.7050878 -1236.7588983) rotate(0)"><polygon id="185631121" class="tile" points="511.944247159,1873.65050738 506.86472918,1873.71325095 504.727367251,1873.73944428 504.750281668,1860.20958513 511.820362546,1859.98186858 511.944247159,1873.65050738 " moovel_rot="-50.4" moovel_centroid="508.316865056,1866.91845558" moovel_centroidlatlon="-73.92549455641226,40.612000651566696"></polygon></g><g transform="translate(-428.2082375 -1802.4195475) rotate(0)"><polygon id="327029572" class="tile" points="473.652840144,2264.7266662 473.951793489,2249.18780054 468.804675058,2248.80129239 468.828293684,2250.32932585 468.815081879,2265.06626964 472.129601033,2264.82861561 473.652840144,2264.7266662 " moovel_rot="-34.3" moovel_centroid="471.29361007,2256.86529034" moovel_centroidlatlon="-73.8870369526621,40.85997593324615"></polygon></g></g><g transform="translate(0 1327.7)"><polygon id="5" class="bin" points="-1.875,0.0 0.77665042945,1.09834957055 1.875,3.75 1.875,1203.749999 0.77665042945,1206.40164943 -1.875,1207.499999 -298.124999,1207.499999 -300.776649429,1206.40164943 -301.874999,1203.749999 -301.874999,1039.6545964 -300.801566342,1037.02809926 -298.195805794,1035.90526494 -276.707475571,1035.49945399 -271.632700623,1033.27986944 -271.07949824,1032.70536914 -266.547573972,1030.73882642 -264.924088825,1026.67200809 -265.697077148,956.174376003 -267.282027418,952.262842979 -269.429951216,949.092401635 -269.648939548,945.314177 -269.121422637,943.168832534 -267.477635165,941.692777074 -267.141221375,941.537395969 -265.521910106,937.698001236 -263.909150609,883.287325459 -262.373713725,880.370971051 -261.270648493,879.564686666 -260.643126308,875.1472166 -262.070456026,869.74116811 -262.194533013,868.748375038 -261.798917762,826.96534855 -260.658877694,824.30799475 -257.967118847,823.251749094 -257.856289776,823.25417216 -253.816321287,821.718995182 -251.984708688,817.804495338 -249.205892149,765.063217769 -247.406307962,762.054495399 -242.624514355,759.153195213 -239.926017774,754.869062165 -241.731264364,750.13865367 -249.5838833,742.926714908 -250.17429994,742.442094246 -273.337893885,725.492421597 -273.85698296,725.033228922 -300.209495169,696.972211437 -300.284517914,696.919365738 -301.874999,693.853590459 -301.874999,662.321436472 -300.784776516,659.677938116 -236.506489437,595.003813267 -235.036331306,592.797535306 -229.268874689,578.894984334 -228.754492864,576.623494464 -228.172710684,565.477581971 -228.570988097,562.791448341 -261.292681985,472.180103975 -261.352711723,472.020124313 -281.543436226,420.179645781 -281.164839613,416.731878965 -278.120748451,415.069368694 -269.728806209,414.90903334 -269.596082122,414.905215088 -257.205614317,414.428972737 -251.257238078,410.280841896 -250.518840408,408.491196317 -250.37356718,408.180272617 -249.832995785,407.149154943 -249.795641768,407.079690025 -248.679428362,405.055269396 -248.603514784,404.923942649 -247.393089309,402.924426982 -247.335399381,402.832176322 -246.725376532,401.887470942 -246.2979826,401.343279698 -237.945977664,392.523287029 -235.917339109,386.578579482 -235.959850407,386.105040268 -235.107445657,383.774628374 -236.954630378,379.673762216 -237.027878098,376.767747434 -235.0025143,374.68251636 -232.040649855,373.423468734 -226.989885531,368.318811158 -225.768963359,366.487378867 -224.987285632,365.284416324 -224.139954503,363.317628259 -223.996867525,362.753894555 -223.788246311,360.88285514 -225.606544229,292.252349424 -225.60636561,292.047186785 -225.439508097,286.137915109 -225.427373721,285.924342648 -225.204323469,283.315221561 -225.180301042,282.844613537 -225.14830518,280.931299405 -225.096575355,280.370162036 -223.831178396,272.869641406 -224.401932621,269.229213766 -227.047412671,266.664080419 -234.278788984,263.194716217 -234.117942211,262.859454921 -235.321047059,262.080543745 -235.489058332,262.251826981 -291.218195595,207.587263562 -292.342191463,204.891430796 -291.191314121,202.20696393 -289.108614179,200.204489171 -277.902702584,172.772846604 -277.867558936,172.689689854 -237.171820194,79.538820905 -236.834031207,78.5766624488 -222.451455047,25.2360664643 -223.135515248,20.6937940374 -226.938002222,18.1167278804 -277.686904573,8.73638250067 -281.550428602,9.36767068374 -284.12984236,12.3124911125 -286.745464784,18.9650932206 -288.818158996,21.064815971 -291.768151321,21.0153972988 -299.657742526,17.482050527 -301.874999,14.0595956647 -301.874999,3.75 -300.776649429,1.09834957055 -298.124999,0.0 -1.875,0.0 " moovel_rot="0" moovel_centroid="-131.6836058183792,622.1308315220475" moovel_centroidlatlon="0,0" transform="translate(301.875 0)"></polygon><g transform="translate(-42.19681939999998 -162.70190708872724) rotate(0)"><polygon id="443524679" class="tile" points="44.6968196876,1236.6172337 65.4175161835,1236.54678931 65.4252177566,1201.0 44.7044728044,1201.0704128 44.6968196876,1236.6172337 " moovel_rot="-56.9" moovel_centroid="55.0610050672,1218.8086020294352" moovel_centroidlatlon="-74.10352920000001,40.617009100000004"></polygon></g><g transform="translate(2.4999985999999996 -1306.4825455) rotate(0)"><polygon id="239436982" class="tile" points="23.3917961983,2418.91663451 23.3975484241,2438.61618677 0.0,2430.55865908 0.0478242410347,2385.33496751 6.17508023903,2386.71216838 6.30682563297,2419.51429799 23.3917961983,2418.91663451 " moovel_rot="76.0" moovel_centroid="9.246390184587648,2418.19235891" moovel_centroidlatlon="-73.95158915688704,40.74946201742313"></polygon></g><g transform="translate(-301.5602725 -726.1199357) rotate(0)"><polygon id="273350116" class="tile" points="304.060287018,1860.01905391 317.545787749,1859.98186858 317.556792875,1877.81187669 329.771614139,1877.78210056 329.770325689,1886.18139067 329.77504997,1889.90050895 304.074753577,1889.9674783 304.060287018,1860.01905391 " moovel_rot="-72.9" moovel_centroid="314.258027104,1877.35700806" moovel_centroidlatlon="-73.83184301320999,40.76545261350619"></polygon></g><g transform="translate(-450.88345200000003 -382.46866520000003) rotate(0)"><polygon id="185193589" class="tile" points="479.360944385,1483.04752204 489.115582561,1468.59757915 488.37522312,1466.28317953 488.339002668,1461.61475293 488.301812005,1456.73897795 488.268175968,1452.44273813 488.545286706,1447.55558244 479.105803043,1447.67335165 479.357297025,1467.03616581 477.579665554,1469.40427535 477.857349731,1469.71600978 476.598490967,1471.40406168 478.291498283,1472.68525812 476.657731355,1475.19610319 478.858154561,1476.81220537 472.338008953,1485.69720644 484.121646839,1494.20628304 492.959046219,1495.07955915 492.970273857,1482.42828318 479.360944385,1483.04752204 " moovel_rot="-50.9" moovel_centroid="483.616152742,1473.13726806" moovel_centroidlatlon="-73.91901207443597,40.6399876208277"></polygon></g><g transform="translate(29.459062099999997 -329.5598870000001) rotate(0)"><polygon id="180522746" class="tile" points="0.00513685159385,1476.64238051 0.0,1469.0535607 2.90499187745,1454.71148027 4.34919796139,1447.55558244 21.2313865609,1450.78841087 21.7681645062,1472.99074459 13.0350783326,1479.99212662 0.00513685159385,1476.64238051 " moovel_rot="-46.6" moovel_centroid="11.110763573833026,1464.01993008" moovel_centroidlatlon="-73.86900804645897,40.651663083413865"></polygon></g><g transform="translate(-97.8155132 -408.5177150000002) rotate(0)"><polygon id="299950333" class="tile" points="140.579071911,1492.77852725 148.671835154,1492.1716047 148.621923618,1483.85415184 148.59207673,1478.47504152 157.474175896,1478.0209194 157.479929314,1447.55558244 148.421535642,1447.58473661 148.559998152,1472.8455044 140.475632341,1473.31685403 140.579071911,1492.77852725 " moovel_rot="-29.2" moovel_centroid="149.925696215,1470.09295153" moovel_centroidlatlon="-73.93152864620363,40.786512860650326"></polygon></g><g transform="translate(-382.6991709 -771.2948756999999) rotate(0)"><polygon id="221661731" class="tile" points="449.003437106,1860.0313021 444.122237594,1860.01480516 440.453107366,1860.00330541 437.861572935,1859.99503859 433.200839459,1859.98186858 433.203893227,1865.36621155 433.209024804,1880.6052831 433.217805777,1887.44345917 438.109968866,1887.4588021 441.239388503,1887.47413424 444.273657597,1887.47817868 449.024957,1887.49777916 449.017273485,1881.42948294 449.010705507,1866.45791388 449.003437106,1860.0313021 " moovel_rot="46.7" moovel_centroid="441.110834298,1873.73838294" moovel_centroidlatlon="-73.91221418684532,40.78111534403947"></polygon></g><g transform="translate(-463.26530080000003 -1127.6199243) rotate(0)"><polygon id="392695041" class="tile" points="519.523587975,2248.90795154 519.460059223,2257.10531922 519.464338547,2264.9845356 519.472847974,2274.41701771 519.474127381,2277.79753558 519.473787195,2283.49346382 533.704793344,2283.48209237 533.694938549,2260.45711031 531.708733978,2260.4619274 528.502896981,2259.72551587 526.480885018,2258.70466982 525.113267374,2256.96537399 524.194056269,2254.03322853 523.618551184,2248.80129239 519.523587975,2248.90795154 " moovel_rot="8.5" moovel_centroid="525.916600273,2269.25086476" moovel_centroidlatlon="-73.95257531695758,40.690909982313414"></polygon></g><g transform="translate(-455.2881849 -292.3690523) rotate(0)"><polygon id="395655352" class="tile" points="493.970273857,1447.7802431 500.158648033,1447.6703746 506.489852322,1447.55558244 506.621625337,1451.17838541 506.584001014,1457.09996764 510.275266532,1457.11718982 510.239685176,1463.02557085 505.794966381,1462.99984763 505.063277053,1463.71114127 505.043978024,1465.49921725 505.774815529,1466.22740136 510.219533969,1466.25312453 510.160735646,1475.40886082 503.968840688,1475.36949221 503.978970641,1473.52592694 497.928883746,1473.48823518 497.918754069,1475.33180049 495.949669374,1475.31759549 493.98108132,1475.35753722 493.982034707,1471.33624008 493.970273857,1447.7802431 " moovel_rot="-81.2" moovel_centroid="501.352045125,1461.81106632" moovel_centroidlatlon="-73.95945518767948,40.69331350733154"></polygon></g><g transform="translate(-524.5853773 -691.3303951999999) rotate(0)"><polygon id="347320680" class="tile" points="553.266140559,1862.09970293 552.42638552,1859.98186858 539.385212646,1864.40070406 539.366442875,1888.59783887 560.409138259,1880.5909465 557.272288643,1872.48184621 555.395078241,1867.60802501 553.266140559,1862.09970293 " moovel_rot="-13.2" moovel_centroid="548.017878717,1874.29286618" moovel_centroidlatlon="-73.96378798709786,40.64711079213872"></polygon></g><g transform="translate(-173.19231029999997 -699.1113519999999) rotate(0)"><polygon id="321207165" class="tile" points="233.191847813,1859.98186858 246.722266631,1860.04204914 246.733957787,1898.22455879 244.631376329,1898.31757545 242.717071314,1898.39983761 242.723465761,1894.76942756 240.574841276,1894.76047775 240.612328378,1875.67608615 233.141523187,1875.669489 233.28830291,1871.60146881 233.191847813,1859.98186858 " moovel_rot="-81.0" moovel_centroid="241.432157353,1874.97887754" moovel_centroidlatlon="-73.9615903699076,40.693075215196224"></polygon></g><g transform="translate(-282.0147088 -796.7442111999999) rotate(0)"><polygon id="261479135" class="tile" points="346.67456814,1859.98186858 366.317267905,1860.73730827 366.282709956,1880.55509087 346.682261507,1880.47370437 346.67456814,1859.98186858 " moovel_rot="19.1" moovel_centroid="356.4345932,1870.43217346" moovel_centroidlatlon="-73.80945172121773,40.70459717328232"></polygon></g><g transform="translate(-30.25278569999999 -613.065466) rotate(0)"><polygon id="266149371" class="tile" points="111.917391357,1647.31731466 111.923067655,1671.32023381 103.901178533,1671.34183042 96.4276422981,1671.35979852 96.4352401502,1663.65512683 94.9150218856,1663.65683394 94.9270577621,1655.24598498 96.3994443242,1655.24074328 96.4074690923,1648.47072814 96.4028804149,1647.37752402 97.6648662742,1647.37880961 100.640384541,1647.34116231 104.654250971,1647.32874674 111.917391357,1647.31731466 " moovel_rot="-29.1" moovel_centroid="103.891775048,1659.33927029" moovel_centroidlatlon="-73.98746632788064,40.759022847195816"></polygon></g><g transform="translate(-365.4791747 -357.1123522999999) rotate(0)"><polygon id="377030561" class="tile" points="442.39219229,1447.55558244 436.768853956,1454.10973433 446.415436174,1462.40208255 436.780464198,1473.64350747 444.610208244,1480.37426083 459.872915752,1462.58371155 442.39219229,1447.55558244 " moovel_rot="48.9" moovel_centroid="447.101782585,1464.01257519" moovel_centroidlatlon="-73.89578957477627,40.75422553480322"></polygon></g><g transform="translate(-45.67797829999999 -72.81912569999986) rotate(0)"><polygon id="330741657" class="tile" points="138.87967576,1221.07092257 132.454159044,1221.26760103 121.121842249,1221.62156489 121.103543888,1201.07479359 138.867262482,1201.0 138.87967576,1221.07092257 " moovel_rot="-28.3" moovel_centroid="129.958340436,1211.1912645663301" moovel_centroidlatlon="-73.98402527900693,40.77679334300574"></polygon></g></g></svg>