<svg xmlns="http://www.w3.org/2000/svg" version="1.1" width="792.5px" height="800px">
  <polygon class="bin" points="253.873883153,753.288891962 253.815038556,753.305334509 255.923345313,760.850543776 259.782404266,774.749001913 259.060732641,779.400424858 255.091125565,781.930005695 253.650518532,782.136824801 251.080768909,783.742571522 250.536878605,786.723547703 254.031531624,801.291082303 254.088715015,801.551638119 254.672614229,804.48265445 255.971792282,806.649133176 258.350346682,807.499999 596.2499995,807.499999 598.901649929,806.401649429 599.9999995,803.749999 599.9999995,3.75 598.901649929,1.09834957055 596.2499995,0.0 221.911950688,0.0 219.224983763,1.13414282799 218.163299114,3.85055533635 219.36908449,6.50614431749 275.350648492,58.1556990633 277.144956271,62.8912961942 274.434826399,67.1692181977 231.163206075,93.2639503506 227.535982438,94.0643532737 224.165482986,92.5032224055 202.581352708,72.0203075157 199.934574697,70.9910107903 197.325318578,72.112022877 196.2500005,74.7404400088 196.2500005,128.482720932 197.116175185,130.879813243 273.201359794,222.414202826 274.375567447,227.275891594 271.246150032,231.177369256 252.152183135,240.125981236 250.070202408,242.767305516 250.942907669,246.01532387 251.134818046,246.230852175 253.975675782,253.206780695 254.879751215,254.52424698 256.793510774,256.323926412 257.821222402,257.01072917 275.783404971,265.108866242 279.216351707,268.570751778 283.132856118,277.456125866 283.136793038,277.465026248 285.249249992,282.22405465 285.078955898,287.18238531 281.076827265,290.114451035 199.327897229,305.007260173 197.120513804,306.29423655 196.2500005,308.696538855 196.2500005,309.090394732 197.840294748,312.156038395 199.721457957,313.481293203 201.668595387,315.58702088 202.618667694,317.188241044 203.425630656,319.24558783 203.827791586,321.113354356 203.638604843,323.744994135 205.250244455,327.101133654 207.195363544,328.442324619 234.990878154,374.24080599 235.684131802,378.579122218 238.475488053,381.624882836 239.487689199,381.87857009 241.646469488,382.596039033 243.28693711,383.396965346 244.573297527,384.253625642 246.009343549,385.533803543 246.770898464,386.434011943 246.97501168,386.687197404 247.612465765,387.517351142 248.815049807,389.987043372 249.054646924,390.919768999 249.26054478,392.255905789 249.325789198,393.455141062 249.143536921,395.44192448 244.084156979,416.360450403 243.80894313,417.2370897 243.31427259,418.508344621 241.850510702,420.791185827 241.222940647,421.439373219 240.908158306,421.658515196 239.326947309,424.293455446 240.246297043,427.225678903 270.93285919,461.793925158 272.249667379,466.674771685 269.144492577,470.664074392 198.379305319,504.578684638 196.2500005,507.960377576 196.2500005,522.894474304 196.940311628,525.062608065 198.75709597,526.432508833 266.540051507,550.244526998 269.954145069,553.525964442 269.716024461,558.255358179 252.705533871,591.084472405 249.669113205,593.811284526 245.588208761,593.850954639 201.290386838,577.616534983 197.852495991,578.063326552 196.2500005,581.1375296 196.2500005,605.346179665 197.49867762,608.140080854 268.455205194,671.666016068 270.356728592,675.970076139 268.381703964,680.240907679 265.099790548,683.079303624 265.017813682,683.149087715 248.525900754,696.966857865 247.184806878,699.776545961 248.428095722,702.630860734 251.398803763,703.562404461 251.423872194,703.559274837 255.413239776,704.532568411 257.747115939,707.911233258 258.349566753,710.362382303 260.1028311,712.063740033 260.072062854,712.08973089 263.32100247,715.935859251 265.897654464,722.535555146 265.967817057,722.508162279 266.363205725,723.874005577 268.198541493,726.299949161 272.446049353,739.703654749 271.77620891,744.547308084 267.594277695,747.081300027 262.655904848,747.579153633 256.774022246,748.174443645 254.47386248,749.280101928 253.413938725,751.601691216 253.873883153,753.288891962 "/>
  <polygon class="84788974" points="-1.0,872.123612388 -36.3743492555,880.510972527 -118.608820374,816.98314467 -93.4724222038,801.0 -56.5741414003,830.567299367 -1.0,872.123612388 "/>
  <polygon class="30725032" points="-127.131801265,801.0 -122.605714948,811.680559444 -119.608820374,818.755897489 -124.431732299,820.18079242 -130.671257259,822.02947099 -133.760845269,814.726885076 -137.394803944,814.782161153 -139.185522951,810.052986567 -139.865950773,808.314861792 -137.325587644,806.312640609 -138.194219827,804.273569044 -127.131801265,801.0 "/>
  <polygon class="138265427" points="-140.865950773,805.894898429 -155.514911041,801.0 -160.860209389,809.444775729 -146.21123453,814.339677329 -140.865950773,805.894898429 "/>
  <polygon class="376678315" points="-161.860209389,801.061377183 -165.538729304,801.0 -166.379133243,808.432778932 -162.702093796,808.512569316 -161.860209389,801.061377183 "/>
  <polygon class="199999045" points="-181.603267707,822.353894876 -187.242977063,803.516553757 -174.329674933,801.0 -167.379133243,826.816182049 -176.910011579,831.652885704 -178.920169417,832.616543882 -176.892936322,834.80165441 -197.907998589,843.861273917 -199.684656297,841.093056172 -206.498286264,844.290930826 -204.885957792,846.531284942 -214.845543219,851.061098012 -216.213073371,849.250400185 -227.728972131,853.860007694 -233.327679362,843.474582711 -230.550676741,842.461820083 -231.172634817,841.627058219 -223.753373072,837.932010027 -188.400786861,823.176379603 -187.395433919,824.57583135 -181.603267707,822.353894876 "/>
  <polygon class="185766636" points="-237.689237759,867.889292344 -234.327679362,867.748136486 -238.99421054,801.0 -242.752501165,801.386642312 -237.689237759,867.889292344 "/>
  <polygon class="358042184" points="-243.752501165,818.150258247 -252.605134845,823.062617088 -265.056354628,810.229083527 -260.222769617,807.422901083 -264.740229298,802.842131917 -261.776184733,801.0 -243.752501165,818.150258247 "/>
  <polygon class="302584516" points="-270.549554836,801.0 -271.200813147,807.254981718 -266.687311212,807.328641973 -266.056354628,801.085936922 -270.549554836,801.0 "/>
  <polygon class="98885716" points="-272.200813147,810.719031899 -279.616971689,811.161085322 -279.810129948,801.442053093 -272.393980247,801.0 -272.200813147,810.719031899 "/>
  <polygon class="368366712" points="-280.810129948,801.398908135 -299.655166182,801.0 -302.988685316,806.805648849 -293.821641166,809.64710373 -296.742493494,814.88814742 -290.618303111,816.802908644 -280.810129948,801.398908135 "/>
  <polygon class="33436636" points="-309.467505283,801.0 -303.988685316,802.804479612 -320.188301711,820.769499553 -328.70579709,813.895283301 -323.249676782,808.727348134 -315.94220388,803.049987061 -309.467505283,801.0 "/>
  <polygon class="101261620" points="-333.071494074,808.495158105 -329.70579709,803.314229353 -336.623735142,801.0 -347.048249759,817.119813056 -342.014045186,819.028901156 -340.21804413,819.679587197 -333.071494074,808.495158105 "/>
  <polygon class="223542973" points="-427.597892541,835.001236538 -348.048249759,830.377259651 -363.839539411,801.0 -428.143836178,805.016034507 -427.597892541,835.001236538 "/>
  <polygon class="303255368" points="-429.143836178,801.0 -429.593309806,807.906108924 -429.789589146,811.276291416 -429.911586838,813.136337866 -441.229978435,813.246835684 -440.442894683,801.110497713 -429.143836178,801.0 "/>
  <polygon class="43877374" points="-442.229978435,801.933437506 -459.51371585,801.0 -459.747649196,803.769607533 -463.280523575,803.720479235 -464.256067933,837.944525038 -461.514606748,837.864691344 -461.439312951,835.610924943 -443.270642228,835.193333391 -442.229978435,801.933437506 "/>
  <polygon class="102406137" points="-465.256067933,804.333591599 -499.646971658,814.579940203 -500.918297109,811.590142021 -466.677907215,801.0 -465.256067933,804.333591599 "/>
  <polygon class="61030840" points="-512.816731404,801.0 -538.564801501,812.514316683 -521.02466445,836.795741091 -501.918297109,816.407693268 -512.816731404,801.0 "/>
  <polygon class="165941674" points="-543.898772817,801.110470379 -539.564801501,801.0 -539.911740155,810.850279183 -543.677626739,810.979161389 -543.898772817,801.110470379 "/>
  <polygon class="271048867" points="-582.225578965,831.565553584 -544.898772817,825.463487115 -549.88255975,801.0 -570.695859524,804.357971531 -590.007024023,807.476527224 -586.343705973,832.259249451 -582.225578965,831.565553584 "/>
  <polygon class="239191266" points="-608.532616123,843.582580311 -591.007024023,833.440349824 -621.039256218,801.0 -638.78111674,810.651056986 -608.532616123,843.582580311 "/>
  <polygon class="244455476" points="-641.906558027,814.782080227 -692.320779742,811.407126003 -690.833905166,801.0 -639.78111674,804.473131918 -641.906558027,814.782080227 "/>
  <polygon class="408709118" points="-714.785676064,810.279527865 -700.77744335,816.26731408 -693.320779742,823.82728194 -699.431519082,827.966535088 -708.133663663,820.332868955 -713.13036369,818.809821059 -719.055461113,822.924507318 -725.245622901,818.115851713 -739.156732823,828.543819756 -730.68953867,835.158029962 -728.880299488,833.843785513 -710.320319211,848.5154285 -718.514898217,854.779592533 -761.205292017,826.185550635 -731.566976001,801.0 -714.785676064,810.279527865 "/>
  <polygon class="97022763" points="-762.205292017,803.854189756 -772.755343717,801.0 -784.709743533,823.796707378 -774.164986782,826.65704022 -762.205292017,803.854189756 "/>
  <polygon class="98041059" points="0.0,890.164886796 -3.62049426008,905.37303848 -7.89095287132,908.527596803 -28.7437864868,891.766713066 -11.6608027004,880.510972527 0.0,890.164886796 "/>
  <polygon class="7004981" points="-121.219505239,906.461096255 -108.652471922,932.883986759 -36.3981704547,909.899015762 -37.3265647398,906.989062405 -30.7437864868,904.957006756 -32.5555941135,901.027957462 -36.1657067721,893.182140717 -39.6331117372,885.661702676 -42.0414704704,880.510972527 -121.219505239,906.461096255 "/>
  <polygon class="213277461" points="-123.40609688,881.677488071 -126.92426064,880.510972527 -125.48121147,890.524590955 -122.219505239,891.101709603 -123.40609688,881.677488071 "/>
  <polygon class="396200879" points="-177.720518374,912.010980657 -134.282472141,880.510972527 -127.92426064,881.217112223 -174.000976358,914.810985074 -177.720518374,912.010980657 "/>
  <polygon class="316133664" points="-178.720518374,880.578480769 -180.573523684,880.572343656 -198.818793535,880.510972527 -199.076550294,882.793978715 -199.311200126,884.9112832 -179.013487465,885.138356456 -178.720518374,880.578480769 "/>
  <polygon class="30351217" points="-200.311200126,880.510972527 -209.715341113,880.885335528 -209.743242801,890.716971003 -200.441447823,890.176905939 -200.311200126,880.510972527 "/>
  <polygon class="201855220" points="-210.743242801,880.510972527 -214.321570352,880.523248105 -214.520038878,883.193186546 -210.941710121,883.180910966 -210.743242801,880.510972527 "/>
  <polygon class="316133659" points="-215.520038878,880.510972527 -230.000516786,880.510972527 -228.69924322,899.278262602 -222.831454002,899.358045123 -219.494269497,899.394867825 -215.520038878,880.510972527 "/>
  <polygon class="89975404" points="-231.000516786,889.53184032 -235.522807694,909.445274911 -248.506449241,908.150440478 -251.405613229,905.517815422 -249.740203066,898.380888195 -313.457470894,892.27492178 -312.122359021,886.1750949 -321.428647843,885.1809584 -319.833197319,880.510972527 -231.000516786,889.53184032 "/>
  <polygon class="378342743" points="-341.049335963,883.556948764 -330.262699061,883.243753594 -326.442698998,880.639935216 -322.638960249,880.510972527 -322.428647843,898.940367864 -326.728041449,899.161447073 -330.201389433,897.398954592 -341.349933508,897.706009015 -341.049335963,883.556948764 "/>
  <polygon class="24916796" points="-345.442480437,880.510972527 -364.739883003,884.346818444 -362.185751678,894.657577915 -354.041612073,892.810232904 -351.747646801,903.64881239 -342.349933508,901.641894664 -345.442480437,880.510972527 "/>
  <polygon class="193708367" points="-365.827185602,880.510972527 -365.739883003,889.077103983 -375.226979176,889.59291423 -378.177380366,889.752569787 -383.553908414,890.041177913 -425.79114166,892.325480757 -425.850680304,886.393662913 -421.944023702,886.178742027 -409.619143831,885.5216982 -409.643858792,882.850539052 -365.827185602,880.510972527 "/>
  <polygon class="328774768" points="-426.850680304,884.775769627 -442.344594605,880.510972527 -444.374072587,884.487358844 -443.220539273,888.0771531 -430.57437969,891.758994402 -426.850680304,884.775769627 "/>
  <polygon class="230092268" points="-505.849177603,913.404609864 -498.833689713,906.908155946 -495.098334303,909.253756136 -477.684155163,893.117017841 -481.492775785,890.722298112 -470.477247551,880.510972527 -465.89662286,887.928458985 -461.857543111,896.236294457 -463.889027248,898.330140007 -445.374072587,931.254524073 -450.692231382,938.733442784 -451.85496514,939.893965039 -454.303086146,938.346602055 -483.732383203,919.999312155 -491.296072463,927.054542054 -492.847906084,928.129098728 -524.167889012,908.449374871 -522.286849097,906.71780621 -517.113237917,901.946783116 -515.302932513,903.082740837 -518.120664996,905.692373814 -505.849177603,913.404609864 "/>
  <polygon class="187525654" points="-526.35938494,882.899102118 -525.167889012,883.034163444 -540.02012656,899.837031303 -541.429956765,899.241532874 -546.436805882,896.448215864 -531.916091735,880.510972527 -526.35938494,882.899102118 "/>
  <polygon class="221239512" points="-547.436805882,883.113467742 -552.913080609,882.014772765 -561.334878236,880.510972527 -563.292632352,885.415203333 -558.725852432,888.122044912 -556.002106085,895.923398757 -552.795362429,896.322366625 -547.436805882,883.113467742 "/>
  <polygon class="270706675" points="-578.803503389,880.510972527 -594.794300403,889.590845981 -580.282940249,905.491383442 -564.292632352,896.417638053 -578.803503389,880.510972527 "/>
  <polygon class="44675361" points="-595.794300403,919.248407241 -627.365752678,904.49156809 -626.548019728,903.521289614 -640.107864384,897.447839279 -639.136786673,895.955576385 -652.234533397,888.70919933 -670.135418432,880.510972527 -678.504031759,890.60676717 -680.611125257,893.001756098 -676.416701913,895.028285537 -676.039508565,894.665966614 -652.141008051,905.596948721 -649.073218695,904.467004077 -641.92347843,907.531365049 -601.519980259,926.537788392 -595.794300403,919.248407241 "/>
  <polygon class="219537543" points="-684.534949378,880.510972527 -713.177222466,880.609199603 -709.473419171,889.130401303 -717.704155946,891.536966487 -713.964735544,902.661197068 -681.611125257,895.245042287 -684.814980452,886.926430009 -684.534949378,880.510972527 "/>
  <polygon class="119495740" points="-718.704155946,893.409278078 -718.969820212,880.510972527 -729.688041603,881.186276164 -732.684094269,881.32747602 -732.549686987,887.816531925 -732.41994808,894.244199775 -718.704155946,893.409278078 "/>
  <polygon class="305137110" points="0.0,941.090951199 -59.801227607,939.893965039 -60.4801485948,944.927446048 -61.3383281889,951.29296081 -54.2880258227,951.765617287 -41.5947792395,952.618854346 -32.8493738315,953.208140407 -22.1973974769,953.926332828 -9.41723117153,954.779570031 -2.37657947377,955.252226635 0.0,941.090951199 "/>
  <polygon class="424802336" points="-69.0206866625,980.347743425 -77.6697888053,981.75349915 -86.5954037087,983.116284322 -93.4642923933,943.773593541 -85.4025274143,942.054770644 -76.2220594802,940.82090149 -70.1429944389,939.893965039 -63.3383281889,979.488329521 -69.0206866625,980.347743425 "/>
  <polygon class="359130691" points="-95.8198344125,948.120130551 -94.4642923933,941.89525557 -118.77111945,939.893965039 -120.12668093,946.118839057 -95.8198344125,948.120130551 "/>
  <polygon class="72210129" points="-164.926833879,964.111784681 -163.701830215,953.900259387 -156.99710803,950.160743111 -154.710287022,948.889676247 -144.219974247,943.031717525 -138.593130925,939.893965039 -125.276141536,954.802901408 -122.56187861,957.848551138 -121.12668093,959.451201787 -123.732422996,961.139818585 -153.077086531,977.098793261 -164.926833879,964.111784681 "/>
  <polygon class="130006867" points="-165.926833879,955.188301626 -169.00983505,956.397850491 -180.261858444,941.318406706 -177.514089822,939.893965039 -165.926833879,955.188301626 "/>
  <polygon class="24814580" points="-181.261858444,954.901310812 -320.27919321,939.992172562 -321.178904413,939.893965039 -330.567822173,976.181695603 -270.167360072,982.657273928 -192.172018421,991.023357648 -190.649625632,991.182945505 -189.24642225,985.769235472 -182.435779489,959.449552786 -181.261858444,954.901310812 "/>
  <polygon class="123843325" points="-334.72580733,946.558991649 -335.649402544,942.839832729 -340.068383306,943.699044266 -340.791874832,940.7838625 -336.186974921,939.893965039 -335.517419686,942.58206928 -332.545855617,942.011307373 -331.567822173,945.951406208 -334.72580733,946.558991649 "/>
  <polygon class="374917639" points="-350.885516153,942.576705512 -342.372419278,943.301106925 -341.791874832,940.612227308 -350.295808785,939.893965039 -350.885516153,942.576705512 "/>
  <polygon class="198832358" points="-365.44880795,939.893965039 -351.885516153,988.156491453 -358.980711383,989.666616652 -372.543966591,941.404084609 -365.44880795,939.893965039 "/>
  <polygon class="198832550" points="-377.545755971,939.893965039 -373.543966591,953.988561542 -378.582463345,955.026012849 -382.584245097,940.931415216 -377.545755971,939.893965039 "/>
  <polygon class="265338885" points="-417.284535728,960.495106621 -383.584245097,942.33171392 -385.677272522,939.893965039 -419.377560071,958.057354333 -417.284535728,960.495106621 "/>
  <polygon class="247238053" points="-420.377560071,945.626329376 -421.122854428,948.265427304 -468.476078916,942.533061794 -467.730768443,939.893965039 -420.377560071,945.626329376 "/>
  <polygon class="286356050" points="-469.476078916,939.893965039 -478.225205755,939.94307494 -478.671175716,946.265976191 -469.921547985,946.210727526 -469.476078916,939.893965039 "/>
  <polygon class="448184726" points="-496.388360979,939.893965039 -501.080010497,949.192897443 -484.357972876,953.529125784 -479.671175716,944.230190289 -496.388360979,939.893965039 "/>
  <polygon class="414249928" points="-505.501716226,939.893965039 -516.680567955,945.737782768 -513.553406753,949.531354932 -502.080010497,943.687535491 -505.501716226,939.893965039 "/>
  <polygon class="125813229" points="-521.695335743,939.893965039 -537.29377682,950.033931753 -529.922169098,957.325873992 -521.009412143,951.292221156 -517.680567955,942.367576041 -519.231597442,941.189081409 -521.695335743,939.893965039 "/>
  <polygon class="124130172" points="-567.634394096,983.28994553 -579.345094279,978.321448505 -550.004428052,939.893965039 -538.29377682,944.862447413 -567.634394096,983.28994553 "/>
  <polygon class="77096520" points="-580.345094279,948.617109551 -590.218936546,970.980553321 -594.822972364,976.075716102 -617.135545525,986.30901897 -634.00621052,992.466193099 -645.174748615,995.719735944 -649.721126395,996.505497358 -666.010928537,1028.86908699 -669.201044157,1027.97282565 -687.362982487,1022.84694858 -647.253051157,943.644732296 -624.665950358,948.512750996 -620.44597137,939.893965039 -611.704976226,941.692614341 -602.739825512,943.699980923 -592.165642033,946.044978363 -583.128813298,948.11987174 -580.345094279,948.617109551 "/>
  <polygon class="246383862" points="-695.598083044,940.016748639 -688.362982487,939.893965039 -689.633481454,952.301253717 -696.863836626,954.92882553 -695.598083044,940.016748639 "/>
  <polygon class="27045097" points="-697.863836626,948.797845855 -719.880860428,939.893965039 -726.403405051,949.989124166 -728.019360376,952.377821723 -717.963004848,955.890251834 -708.925382745,959.04038664 -705.637444423,960.188681583 -697.863836626,948.797845855 "/>
  <polygon class="326740878" points="-758.226838341,951.456421104 -745.847671522,939.893965039 -729.356248128,950.511294264 -729.420439055,951.640536731 -729.312432288,954.310213606 -729.019360376,955.672669604 -737.386185345,963.41780508 -741.150912068,960.956790847 -740.229987743,960.091446803 -743.62192119,957.967978683 -742.712169475,957.121046408 -751.529559132,951.603713605 -754.128017586,954.021765733 -758.226838341,951.456421104 "/>
  <polygon class="303591107" points="-769.405979503,943.71275967 -769.042674875,939.893965039 -762.15198339,939.973779063 -762.778196643,946.315925785 -759.226838341,946.358902589 -761.237724929,964.218846526 -786.19139444,963.887310732 -789.446636363,963.825915216 -788.469847873,954.119287721 -787.13194824,954.119287721 -787.114124442,954.137706363 -786.833331051,954.070171345 -786.574194057,953.971938593 -786.550542928,953.97807814 -786.312563651,953.843008108 -786.105402015,953.671100795 -785.939715313,953.474635298 -785.825662149,953.259751164 -785.773401127,953.032587941 -785.774768368,952.811564269 -785.834095146,952.590540599 -785.949044913,952.400214665 -785.95188014,952.37565648 -786.118121617,952.222167826 -786.12528812,952.191470095 -786.324000145,952.080958265 -786.340826569,952.050260535 -786.571011777,951.970446437 -786.593166845,951.945888252 -786.844167945,951.884492793 -786.867320382,951.872213701 -788.242861954,951.859934608 -787.39793618,943.479457072 -785.125021603,943.50401524 -769.405979503,943.71275967 "/>
  <polygon class="385284619" points="0.0,1033.95722436 -20.3415049563,1029.67926072 -23.2929148395,1029.17597098 -26.1978306329,1028.86908699 -31.1653901557,1028.86908699 -41.8777728225,1030.26847801 -55.7745818214,1032.17115903 -55.1625454344,1034.51575343 -31.3648837709,1031.10320255 -30.1902594611,1030.96817358 -24.8718114256,1030.98658662 -20.4927179382,1031.79676048 -0.881949004624,1036.1545147 0.0,1033.95722436 "/>
  <polygon class="382364616" points="-101.517438636,1028.86908699 -57.7745818214,1031.78528282 -58.3623997041,1035.33997295 -91.7011194853,1032.82897412 -91.4617709347,1030.95032985 -92.0079211761,1030.71703417 -93.0106790588,1031.34938825 -93.7823660519,1032.28871038 -101.998898272,1031.5888233 -101.517438636,1028.86908699 "/>
  <polygon class="42479193" points="-114.690630244,1052.64480193 -128.250453449,1048.36492442 -126.583177363,1045.55260969 -139.596276987,1041.43852591 -134.471915254,1032.80509465 -131.34578552,1033.79370206 -128.920748627,1029.70418368 -118.422503924,1033.03229014 -115.94790388,1028.86908699 -102.998898272,1032.94018386 -114.690630244,1052.64480193 "/>
  <polygon class="445944036" points="-142.392459822,1028.86908699 -140.596276987,1043.01322078 -146.317201041,1043.9279244 -147.569235728,1029.56892658 -142.392459822,1028.86908699 "/>
  <polygon class="26256907" points="-181.97429132,1028.86908699 -192.760169855,1047.65357692 -155.790128466,1058.17805808 -153.161777017,1052.96797858 -155.797957051,1052.20702486 -148.569235728,1038.30121719 -181.97429132,1028.86908699 "/>
  <polygon class="310364007" points="-193.760169855,1029.61206884 -195.682954947,1040.25943326 -207.267308475,1039.5410122 -206.934764252,1037.76645096 -206.636738667,1037.78487201 -206.281565297,1035.85066193 -206.57909207,1035.82610053 -205.28937172,1028.86908699 -201.164829328,1029.12084117 -193.760169855,1029.61206884 "/>
  <polygon class="59657003" points="-208.267308475,1042.89320029 -219.009211713,1050.14155541 -234.980204109,1036.11743424 -224.238299588,1028.86908699 -208.267308475,1042.89320029 "/>
  <polygon class="113631695" points="-378.815463027,1040.40416674 -366.925346483,1028.86908699 -238.657095916,1039.38510127 -237.373507246,1039.57540868 -236.690011757,1040.25683197 -236.03510895,1041.3495649 -235.980204109,1042.33793577 -237.655291985,1050.47204677 -239.748200096,1054.35800499 -242.224623526,1056.78289262 -248.419556356,1056.2365255 -277.019336314,1054.11244677 -277.969773232,1053.38805006 -278.611660498,1052.49176266 -279.241239563,1050.01776421 -289.735009058,1049.2442561 -290.468786619,1050.07301479 -294.318194105,1052.69434817 -368.068085628,1046.13794624 -374.420547307,1045.45038368 -376.497957301,1045.22324249 -378.815463027,1040.40416674 "/>
  <polygon class="197917670" points="-401.328463843,1031.6255241 -402.288569396,1028.86908699 -381.393811358,1030.50207639 -379.815463027,1033.43654658 -401.328463843,1031.6255241 "/>
  <polygon class="320429983" points="-410.671720264,1028.86908699 -412.187729975,1033.7012745 -413.356299523,1037.4159815 -405.973140547,1038.45364364 -403.288569396,1029.90674845 -410.671720264,1028.86908699 "/>
  <polygon class="265761732" points="-414.732579914,1028.86908699 -419.953566048,1029.36625726 -419.931360402,1040.18124985 -414.356299523,1040.07690539 -414.732579914,1028.86908699 "/>
  <polygon class="382364605" points="-420.953566048,1032.25187512 -466.827157742,1028.86908699 -467.414324082,1032.35624428 -421.658316435,1035.6408035 -420.953566048,1032.25187512 "/>
  <polygon class="326550920" points="-468.414324082,1030.29307571 -472.4762713,1029.13915381 -473.429302167,1028.86908699 -475.099820039,1031.92575263 -477.590916221,1031.21989604 -487.274382343,1048.65763396 -474.567533422,1052.24216308 -471.95179869,1047.55281354 -476.983074048,1046.09199558 -475.43108522,1043.24401481 -480.370338928,1041.83843833 -478.904382396,1039.15618145 -477.25036343,1036.12406565 -472.358382869,1037.51736574 -468.414324082,1030.29307571 "/>
  <polygon class="223385339" points="-499.349845061,1028.86908699 -498.366571454,1031.31198022 -497.182014563,1034.24590788 -488.274382343,1034.65714884 -488.669005157,1038.54245585 -515.278766032,1036.45556094 -515.066027617,1032.37384099 -509.553886267,1031.20763553 -499.349845061,1028.86908699 "/>
  <polygon class="330770030" points="-516.278766032,1029.03488172 -517.212170927,1038.36237367 -531.431632678,1038.19657882 -530.498211006,1028.86908699 -516.278766032,1029.03488172 "/>
  <polygon class="28119136" points="-532.431632678,1028.86908699 -557.091037548,1084.98932331 -600.292284198,1078.23301634 -556.16086947,1042.9344404 -548.414278367,1043.89874684 -542.404831092,1031.21535887 -532.431632678,1028.86908699 "/>
  <polygon class="376561183" points="-601.292284198,1032.71587701 -614.873168268,1028.86908699 -621.677188967,1040.66714042 -608.551061801,1044.23784827 -601.292284198,1032.71587701 "/>
  <polygon class="51005750" points="-625.365553093,1029.5876603 -627.10286642,1042.62639474 -622.677188967,1042.81678615 -623.18363236,1046.47107351 -650.543059716,1045.72179098 -648.53266852,1028.86908699 -625.365553093,1029.5876603 "/>
  <polygon class="184263492" points="-651.543059716,1028.92433145 -651.912526136,1033.36230348 -652.36978125,1038.76398657 -664.163398277,1038.73943346 -684.10190849,1038.70874207 -683.700224028,1033.93316306 -683.275147474,1028.86908699 -651.543059716,1028.92433145 "/>
  <polygon class="48477267" points="-148.8615954,1135.93930204 -134.549488358,1136.24009167 -136.198110062,1150.49384484 -136.642459154,1151.69086617 -140.525213416,1151.45760047 -141.166939415,1156.95162276 -137.984345364,1157.18488856 -91.4468872414,1143.03548366 -93.675354825,1138.22284795 -97.2128901073,1139.15590984 -100.265276483,1132.34824275 -96.7985781693,1131.57478396 -97.7056696687,1129.17460657 -85.1987909422,1125.46077799 -14.3861611107,1099.69113394 0.0,1092.49675938 -5.29436708288,1084.98932331 -19.9411041414,1091.64350192 -89.4199672722,1115.78641299 -135.321187923,1129.17460657 -134.591626664,1131.26171732 -148.270669876,1130.95478925 -148.519719837,1132.96209897 -148.8615954,1135.93930204 "/>
  <polygon class="310004789" points="-151.677919354,1084.98932331 -171.155964981,1087.02073049 -170.201579293,1096.33697661 -160.881790976,1099.07416219 -158.836828722,1100.33842299 -155.660952066,1102.29618632 -151.542373352,1095.23228305 -150.8615954,1091.08354583 -151.677919354,1084.98932331 "/>
  <polygon class="390545054" points="-175.123981658,1084.98932331 -174.271000173,1087.07653698 -172.155964981,1092.1533787 -172.356189659,1094.54139805 -172.849621523,1095.73233845 -174.210324984,1097.3714164 -175.646126049,1098.62988463 -177.34203701,1099.52615964 -181.313306124,1100.84601679 -182.994263168,1101.44148727 -184.0062973,1099.40952111 -185.620457613,1099.95588056 -186.572965739,1098.4948295 -190.635201848,1091.01154956 -191.337907661,1089.50752745 -183.802641175,1086.76959377 -182.886964935,1086.43809511 -182.104722321,1085.84876419 -181.749219841,1085.51726556 -175.123981658,1084.98932331 "/>
  <polygon class="266774057" points="-192.337907661,1086.89242124 -202.639693428,1084.98932331 -227.044233725,1147.82853695 -230.214120201,1155.98734349 -220.008827891,1157.89045185 -192.337907661,1086.89242124 "/>
  <polygon class="292992920" points="-278.024645583,1100.77286371 -267.939297598,1116.47661532 -231.214120201,1102.96451203 -240.457156937,1084.98932331 -278.024645583,1100.77286371 "/>
  <polygon class="25767930" points="-293.144444954,1120.99785389 -279.024645583,1115.89147358 -295.807498716,1084.98932331 -309.927262456,1090.0956914 -293.144444954,1120.99785389 "/>
  <polygon class="23971003" points="-315.879947496,1101.9343692 -310.927262456,1097.7779193 -326.954897406,1084.98932331 -349.197587525,1094.88007023 -350.480778948,1099.8899114 -341.260334808,1114.31777361 -335.778445558,1116.77358155 -330.900236617,1115.8158164 -327.505693793,1114.33005265 -315.879947496,1101.9343692 "/>
  <polygon class="284961800" points="-366.695972431,1084.98932331 -371.360253131,1091.40372383 -360.14751842,1096.5966284 -356.77813822,1094.44826338 -351.666263498,1094.82269268 -351.480778948,1090.24360714 -356.75919385,1087.08244313 -361.891578183,1085.82411592 -366.695972431,1084.98932331 "/>
  <polygon class="258867697" points="-375.336601977,1093.8932342 -374.466776663,1090.9702945 -374.261215734,1088.434215 -372.360253131,1086.67799559 -372.901724774,1085.60952656 -377.032797433,1085.31477649 -378.948621565,1084.98932331 -380.688552253,1085.05687019 -384.53350591,1086.95432381 -378.108730042,1096.0854394 -375.336601977,1093.8932342 "/>
  <polygon class="28413510" points="-389.797321796,1125.43782909 -385.53350591,1085.0691396 -397.563829631,1084.98932331 -401.420317831,1125.278196 -389.797321796,1125.43782909 "/>
  <polygon class="113176677" points="-402.420317831,1108.36053774 -410.522533538,1095.3028564 -416.189376431,1084.98932331 -439.895946274,1094.44339499 -445.439560875,1096.37718323 -440.12222404,1105.41994921 -431.784734791,1102.22152277 -428.013993471,1108.7534348 -418.076346076,1104.94724506 -413.746853087,1112.43684528 -402.420317831,1108.36053774 "/>
  <polygon class="331734983" points="-447.108014175,1084.98932331 -446.439560875,1087.35330974 -451.768745872,1088.31732511 -452.733014768,1086.02702119 -447.108014175,1084.98932331 "/>
  <polygon class="7631616" points="-492.917364356,1173.05123183 -453.733014768,1106.3171456 -458.500624563,1096.77057717 -476.372185798,1092.85372347 -510.084338799,1084.98932331 -517.895324858,1088.53167939 -524.230698968,1098.79039717 -538.678572338,1107.60025404 -533.216132433,1113.4509846 -540.718726689,1120.58482753 -535.439259845,1126.18999259 -524.872848244,1137.96514459 -526.028119983,1138.63432717 -524.932239802,1139.71484223 -492.917364356,1173.05123183 "/>
  <polygon class="198853719" points="-543.908256254,1110.72232123 -541.718726689,1084.9954619 -542.69362997,1084.98932331 -543.261594887,1085.02615485 -543.671743033,1085.2594213 -543.95920043,1085.64615253 -543.995416727,1086.14951701 -546.127830822,1109.81380803 -546.103746156,1110.16984698 -545.867019906,1110.46449991 -545.624610969,1110.63024219 -545.225002699,1110.70390543 -543.908256254,1110.72232123 "/>
  <polygon class="326746309" points="-592.55375931,1084.98932331 -609.257992898,1087.53634529 -603.494490782,1123.36655356 -601.378084277,1122.93079674 -547.127830822,1114.11132751 -547.609470561,1109.99312229 -587.221341927,1115.97096457 -592.55375931,1084.98932331 "/>
  <polygon class="25037562" points="-613.639557821,1087.34047422 -739.77146126,1084.98932331 -740.703357758,1095.55415882 -653.642080077,1096.27853484 -637.816540469,1096.26625728 -626.830945515,1096.45042069 -610.257992898,1097.05202115 -611.441784358,1090.57560946 -613.52712862,1090.68610745 -613.639557821,1087.34047422 "/>
  <polygon class="279590447" points="-750.321589495,1084.98932331 -741.703357758,1092.06910985 -744.356896158,1094.01559131 -749.483735372,1097.77346799 -751.349960811,1099.13661961 -759.968701637,1092.06296953 -750.321589495,1084.98932331 "/>
  <polygon class="316133660" points="-760.968701637,1084.98932331 -774.89390324,1085.10592837 -773.637163078,1101.14834064 -770.698767309,1101.22198603 -764.591283197,1101.38155106 -760.968701637,1084.98932331 "/>
  <polygon class="28363953" points="-26.3557239172,1178.36608011 -21.0384306845,1173.444015 -9.6097111403,1173.05123183 -1.64536812915,1176.17508581 -5.41279295669,1188.27772565 0.0,1191.26042666 -19.8674984548,1219.87843458 -25.0550533976,1217.09211921 -37.5584678755,1211.69133341 -32.7311322448,1204.73782502 -26.3557239172,1178.36608011 "/>
  <polygon class="126794646" points="-49.7685180202,1191.78596605 -39.5584678755,1179.8058035 -53.0377539904,1173.05123183 -49.7685180202,1191.78596605 "/>
  <polygon class="308265769" points="-54.0377539904,1202.6857248 -57.1439232753,1203.9005564 -72.2492202669,1173.86111769 -69.8519701475,1173.05123183 -54.0377539904,1202.6857248 "/>
  <polygon class="330713654" points="-76.337153486,1173.05123183 -101.982596946,1179.54468316 -100.317496896,1184.28895543 -98.8946865043,1188.33355632 -73.2492202669,1181.84010057 -76.337153486,1173.05123183 "/>
  <polygon class="218897156" points="-108.793868575,1173.05123183 -102.982596946,1191.99667884 -123.849514142,1196.8097845 -129.213971247,1177.07851831 -108.793868575,1173.05123183 "/>
  <polygon class="102943809" points="-163.686982803,1175.89360769 -164.968357102,1173.05123183 -131.574758418,1175.80766111 -130.213971247,1178.56409097 -163.686982803,1175.89360769 "/>
  <polygon class="186217519" points="-165.968357102,1185.53983535 -174.668613018,1203.37019276 -178.030088608,1202.59656104 -189.373782832,1199.96252959 -194.203697806,1209.5162686 -194.225532483,1209.54696829 -206.653324029,1206.34806131 -206.747196376,1206.5506792 -215.372983545,1204.58589984 -222.057339831,1202.44920263 -222.109860542,1202.55972144 -231.035239257,1200.47828396 -232.220794668,1198.55648504 -220.544570796,1173.05123183 -210.529637006,1175.33528232 -165.968357102,1185.53983535 "/>
  <polygon class="334355480" points="-244.034936,1173.05123183 -256.275371956,1175.73979981 -255.931682759,1183.89144314 -254.483379321,1192.29476155 -253.261387422,1194.55365303 -242.243275159,1194.01962159 -242.972197472,1213.85859775 -233.726153496,1213.56395927 -233.220794668,1197.37726795 -237.393921712,1197.57369336 -237.337795056,1179.24476028 -237.292033276,1173.19855061 -244.034936,1173.05123183 "/>
  <polygon class="361684182" points="-257.275371956,1184.70643803 -267.096790619,1197.39330765 -278.014976818,1192.78771463 -268.944857187,1180.30963615 -263.119319555,1173.05123183 -259.479435995,1174.58028621 -258.233197594,1175.12067495 -257.275371956,1184.70643803 "/>
  <polygon class="317966076" points="-281.310646608,1173.05123183 -307.224248476,1198.96411402 -304.929080043,1200.2836961 -279.014976818,1174.36467369 -281.310646608,1173.05123183 "/>
  <polygon class="41274276" points="-308.224248476,1176.28021967 -355.20895384,1173.05123183 -360.570496932,1200.41171128 -313.587119205,1203.65912226 -308.224248476,1176.28021967 "/>
  <polygon class="238065176" points="-366.199639113,1173.05123183 -361.570496932,1179.06956817 -380.43401277,1188.32430101 -385.06314922,1182.30596039 -366.199639113,1173.05123183 "/>
  <polygon class="35269674" points="-428.338122689,1174.03969045 -386.06314922,1174.41419963 -386.574138344,1179.39333096 -387.000948592,1181.94122258 -429.165266364,1181.5114577 -466.430754848,1180.58439349 -465.753200791,1173.05123183 -428.338122689,1174.03969045 "/>
  <polygon class="222676075" points="-471.780478845,1173.05123183 -491.080438835,1176.35998342 -489.009366261,1187.43417858 -486.715500272,1199.72384527 -467.430754848,1196.59924858 -471.780478845,1173.05123183 "/>
  <polygon class="324997998" points="-495.727198583,1173.05123183 -510.933624861,1179.46386717 -511.866277448,1184.39005086 -512.138937382,1186.01778029 -517.341497723,1215.07739161 -517.688161243,1216.72355204 -497.811434363,1217.48520843 -492.080438835,1176.7059422 -495.727198583,1173.05123183 "/>
  <polygon class="326746307" points="-549.006444676,1173.05123183 -557.761135493,1174.26029916 -557.228645,1177.40878467 -561.721200419,1178.03479942 -556.863647428,1207.04632038 -549.66283879,1206.24231924 -549.137689091,1208.89368197 -545.273835824,1208.45792556 -522.289370909,1205.38308143 -522.685092269,1202.4493985 -522.889351562,1200.88435871 -523.140872429,1199.30704429 -519.054243589,1198.8037767 -518.688161243,1198.75467742 -519.859774341,1191.1136048 -526.015363806,1191.88691797 -526.054093623,1191.65369653 -546.170652521,1194.19458293 -549.006444676,1173.05123183 "/>
  <polygon class="386544498" points="-562.721200419,1182.18276919 -571.961793642,1173.05123183 -580.363251426,1177.64768363 -578.798262912,1180.64857227 -570.919538863,1187.77952108 -562.721200419,1182.18276919 "/>
  <polygon class="395577876" points="-581.363251426,1173.05123183 -591.851130308,1173.30917285 -592.083688421,1179.11284711 -581.595801956,1178.85490598 -581.363251426,1173.05123183 "/>
  <polygon class="387407638" points="-628.998409832,1227.18008977 -627.686421994,1223.13300718 -644.36272506,1219.90271151 -639.618048042,1207.62022577 -637.167612359,1208.09310125 -634.750857902,1201.97028622 -635.773926658,1201.77376662 -632.536518501,1193.56293505 -630.047425097,1187.26203116 -629.005524746,1187.46469177 -628.19750579,1185.41352095 -629.253902261,1185.21086038 -628.537671992,1183.39919783 -632.263803597,1182.68681534 -631.044030633,1179.60391914 -628.725061363,1180.08907606 -627.772358559,1177.6817153 -630.1209333,1177.26411195 -628.990474625,1174.39001866 -628.457326837,1173.05123183 -626.130320372,1173.37671669 -606.776578967,1177.07987518 -604.473472313,1177.52204343 -600.823664812,1178.22214319 -593.083688421,1179.79429717 -599.834649137,1199.64275748 -605.077728898,1198.74613703 -608.979194343,1197.99076505 -613.326087591,1197.18626323 -615.791017452,1196.71338814 -616.65390808,1198.90580916 -621.598264674,1197.96005887 -623.766397473,1203.45646573 -627.69202436,1202.70109348 -630.400121267,1209.56085774 -619.070024329,1211.7348572 -615.560239071,1202.84234194 -615.372325257,1202.36946665 -610.989010876,1203.08185022 -611.299308726,1203.87406992 -607.401187431,1204.61101853 -607.104019432,1203.86178744 -601.507435943,1204.86895055 -610.144737827,1230.67446103 -628.998409832,1227.18008977 "/>
  <polygon class="207143109" points="-645.36272506,1216.51579575 -655.023542225,1221.57367851 -666.20516599,1207.96527757 -669.414476517,1204.0613817 -672.005325258,1201.03524939 -681.969197279,1188.00386013 -689.523862859,1178.03543934 -679.506988897,1173.05123183 -645.36272506,1216.51579575 "/>
  <polygon class="131883193" points="-697.116770701,1173.05123183 -690.523862859,1194.79561019 -701.665577771,1196.91357107 -707.912616789,1175.54366861 -697.116770701,1173.05123183 "/>
  <polygon class="295293328" points="-714.632543089,1173.05123183 -708.912616789,1187.77921347 -725.512342554,1192.70286925 -729.816119432,1181.81189251 -721.615559507,1179.62019198 -723.07975334,1175.36571554 -714.632543089,1173.05123183 "/>
  <polygon class="88220693" points="-44.1471038353,1286.17031217 0.0,1239.22974893 -16.7679123309,1230.67446103 -19.3782105502,1233.54874234 -34.2288312154,1250.02673909 -32.5905092765,1250.8620015 -38.5369663273,1257.45811976 -55.8714624084,1248.55888836 -64.7684171575,1257.5748109 -47.1221051297,1266.86097196 -56.5849042634,1277.13594491 -57.891725014,1279.31008847 -45.5127330228,1285.48858879 -44.1471038353,1286.17031217 "/>
  <polygon class="150637321" points="-74.7610219659,1230.67446103 -69.5383690748,1235.07639435 -67.4960663876,1237.65493339 -66.7684171575,1240.00631587 -67.0864735174,1242.38839568 -68.803800401,1244.81345161 -73.6529517679,1247.56389533 -85.6247319564,1236.85067473 -74.7610219659,1230.67446103 "/>
  <polygon class="385513238" points="-90.458294661,1230.67446103 -95.2605202365,1231.28834122 -100.282576052,1231.93291545 -96.7632381103,1258.13335029 -102.814835489,1258.90684097 -102.497045431,1261.32553435 -101.998343456,1265.00882463 -89.00133297,1263.33906624 -89.5041452176,1259.58824946 -86.6247319564,1259.21992054 -86.91313521,1257.08975182 -87.2936846391,1254.25975876 -90.458294661,1230.67446103 "/>
  <polygon class="27439433" points="-199.454075805,1275.58234966 -195.724678333,1280.44937499 -103.814835489,1235.54146944 -107.544256065,1230.67446103 -199.454075805,1275.58234966 "/>
  <polygon class="27914750" points="-202.281122328,1245.8945762 -206.08455657,1241.730233 -209.382170853,1241.68723831 -249.680296472,1230.67446103 -260.496804563,1234.77123766 -264.231631966,1233.9236286 -269.927146698,1246.36751792 -260.452489393,1248.36984277 -258.056472207,1242.26459555 -224.759058481,1248.43126379 -223.138377948,1248.94720031 -220.764853901,1243.29646812 -213.783148148,1245.2865083 -216.653242345,1254.13113503 -202.47024742,1256.77838211 -200.454075805,1251.00480448 -204.762415285,1250.07734704 -204.728886213,1248.35755857 -202.281122328,1245.8945762 "/>
  <polygon class="337620052" points="-270.927146698,1230.67446103 -271.291449868,1235.86262566 -271.508166833,1239.17814024 -271.591788405,1240.44294788 -271.669912965,1241.64021735 -274.902413014,1241.65249704 -283.337694053,1241.67091657 -282.934412624,1237.0721744 -282.07127338,1236.02226153 -281.972497006,1235.40213759 -284.029222758,1235.38985791 -283.716549561,1230.7174399 -270.927146698,1230.67446103 "/>
  <polygon class="319929403" points="-285.651103652,1230.67446103 -285.029222758,1234.14398703 -318.282352082,1238.87850983 -331.26030358,1241.9795925 -349.40181525,1248.21860462 -351.447391921,1248.18176006 -352.032016599,1243.53934525 -352.325863036,1240.67161101 -285.651103652,1230.67446103 "/>
  <polygon class="284806017" points="-358.47672742,1232.45464068 -360.427279129,1232.81067664 -362.45125215,1233.17898971 -363.730944953,1232.28276126 -366.039616208,1230.67446103 -375.696667395,1232.40553227 -370.272587686,1253.8045384 -353.325863036,1250.29942052 -358.47672742,1232.45464068 "/>
  <polygon class="28955595" points="-376.696667395,1260.83831952 -411.628946699,1299.37225918 -443.26470131,1277.91605623 -464.13600381,1293.38490648 -481.734392599,1277.91605623 -431.672705084,1242.4280409 -420.077754634,1230.67446103 -376.696667395,1260.83831952 "/>
  <polygon class="310363984" points="-490.685105486,1243.38473323 -482.734392599,1252.61350387 -489.186186146,1256.09501785 -499.802682399,1261.66421412 -508.344305052,1252.0977241 -512.173998412,1247.86096248 -513.521869844,1246.37502613 -518.748758926,1240.48654446 -501.2466592,1230.67446103 -490.685105486,1243.38473323 "/>
  <polygon class="106989130" points="-519.748758926,1238.36607228 -529.294259196,1235.41342608 -530.542231859,1237.48211992 -530.179415133,1237.65399954 -531.920108862,1240.38565811 -534.735598899,1239.48942849 -535.316267128,1240.46545938 -542.461543727,1238.40904219 -541.687360749,1236.94806539 -541.77713137,1236.92351116 -539.24188217,1231.5768286 -542.723232771,1230.67446103 -549.504839426,1232.44236489 -554.509428699,1234.44967269 -559.828883294,1234.54788959 -562.522106749,1233.8726484 -564.741631791,1237.87498763 -538.372025679,1245.79986849 -538.800815595,1246.62857436 -526.633836534,1250.42834492 -522.285346897,1242.82880492 -519.748758926,1238.36607228 "/>
  <polygon class="56789425" points="-596.195426724,1231.6567163 -593.754034695,1230.67446103 -589.423693286,1235.5673208 -565.741631791,1262.08824906 -568.240599868,1263.48182711 -575.752994688,1267.6748404 -582.025319391,1271.16799599 -589.958967742,1257.18924017 -594.981210774,1248.33051075 -600.006412377,1242.65798033 -605.234717361,1235.97864034 -596.195426724,1231.6567163 "/>
  <polygon class="27497436" points="-638.942490217,1235.43705274 -685.922375882,1244.79039518 -684.291227361,1251.76244487 -631.193500331,1242.91849868 -631.691904168,1238.32775037 -606.234717361,1233.7370037 -606.640843515,1230.67446103 -638.211656297,1237.3028108 -638.942490217,1235.43705274 "/>
  <polygon class="182728870" points="-695.878338876,1247.2627341 -709.981695428,1251.24097595 -712.003620799,1250.33236505 -714.122963945,1235.75776377 -690.743614895,1230.67446103 -686.922375882,1239.1282156 -698.104710416,1242.58461793 -695.878338876,1247.2627341 "/>
  <polygon class="228209743" points="-745.522943108,1243.38815617 -716.725929465,1243.85471403 -715.122963945,1230.82793386 -722.755046745,1230.67446103 -723.154412191,1234.34553155 -746.98327159,1234.30869806 -747.433928814,1238.01660311 -747.657914686,1239.52677666 -745.563791445,1240.79753259 -745.522943108,1243.38815617 "/>
  <polygon class="46175567" points="-770.911880585,1242.25945857 -770.796060859,1240.7176582 -770.667907838,1239.08371856 -768.748334444,1239.07757593 -768.100239335,1230.69903154 -759.372990392,1230.67446103 -759.676453232,1234.58117167 -748.657914686,1234.55660116 -749.928061869,1250.99428323 -757.639704562,1251.01271114 -757.703362068,1251.85425222 -761.189636943,1251.86653749 -760.449234493,1242.23488804 -770.911880585,1242.25945857 "/>
  <polygon class="378342723" points="-774.880992129,1244.02509516 -774.81881662,1239.12453882 -772.069021364,1238.65167821 -771.911880585,1230.67446103 -781.574383718,1230.71744833 -782.52374876,1238.3998953 -782.587593219,1244.19704454 -774.880992129,1244.02509516 "/>
  <polygon class="240267189" points="0.0,1307.12305881 -22.9381481866,1299.37225918 -42.7916993338,1330.78697877 -19.8732932689,1338.54393877 0.0,1307.12305881 "/>
  <polygon class="218898355" points="-45.9275148008,1299.37225918 -72.8327662538,1303.22148084 -70.881809371,1312.65115786 -44.7916993338,1308.90629833 -45.9275148008,1299.37225918 "/>
  <polygon class="51362433" points="-79.3209275623,1299.37225918 -160.45454882,1338.43371142 -157.484604767,1342.36809742 -154.966418821,1345.68869559 -73.8327662538,1306.62722142 -76.603298985,1302.96905044 -79.3209275623,1299.37225918 "/>
  <polygon class="117608506" points="-161.45454882,1339.29971286 -166.521013349,1321.35842979 -168.17067009,1315.50895082 -173.277161158,1317.25827007 -178.908128415,1299.37225918 -205.580840624,1310.13209736 -207.930898725,1306.58435737 -249.100834614,1324.86934604 -231.35108249,1354.17203036 -161.45454882,1339.29971286 "/>
  <polygon class="107851332" points="-252.722023301,1299.37225918 -250.100834614,1309.12207766 -274.925555042,1331.19878647 -275.766153551,1318.41171649 -252.722023301,1299.37225918 "/>
  <polygon class="328827298" points="-277.387194427,1299.37225918 -276.766153551,1305.80307283 -290.599592932,1307.77895324 -291.757019404,1310.12301052 -307.895590512,1305.78466401 -306.092763175,1304.80899646 -300.315608553,1302.74107242 -277.387194427,1299.37225918 "/>
  <polygon class="395577875" points="-308.895590512,1299.37225918 -321.748044341,1299.88814112 -321.832682573,1306.1339991 -308.980218819,1305.61811691 -308.895590512,1299.37225918 "/>
  <polygon class="389974902" points="-344.568036824,1302.42922093 -342.931600067,1311.71674168 -325.800499912,1309.10788686 -322.832682573,1308.65363926 -324.469638834,1299.37225918 -344.568036824,1302.42922093 "/>
  <polygon class="27475140" points="-345.568036824,1304.59264488 -367.789851921,1299.37225918 -383.319077621,1328.01684836 -360.198197337,1334.7235237 -345.568036824,1304.59264488 "/>
  <polygon class="285180239" points="-392.203533237,1300.39731619 -396.63621288,1301.6617579 -394.843117563,1306.90980608 -393.312960529,1310.5680959 -390.150348952,1311.94302388 -389.076394353,1310.59878625 -388.031527439,1309.31592947 -390.054559561,1308.35839052 -384.319077621,1300.27455487 -386.940410777,1299.37225918 -389.547862732,1303.50931614 -390.682557348,1303.81008146 -392.203533237,1300.39731619 "/>
  <polygon class="334355483" points="-400.621726255,1300.58763635 -401.531816423,1300.97434729 -402.379233941,1300.58763635 -403.656818546,1299.37225918 -404.924023593,1300.29299945 -405.810830921,1299.61778991 -407.062119241,1300.3421056 -407.944947135,1299.61778991 -409.132618467,1300.39121175 -409.603426776,1300.00450083 -411.039538021,1300.68584865 -411.820207627,1300.25003157 -412.816444747,1300.92524114 -414.013112846,1300.20092542 -418.370932246,1302.14061846 -416.417994015,1307.47477582 -414.903504499,1308.14998577 -414.422198938,1307.57298818 -413.11591016,1308.49372903 -412.260628383,1308.00880551 -411.021086714,1308.97865257 -410.420857057,1308.54283521 -409.056627725,1309.46357614 -408.526627426,1309.11983285 -407.538157893,1310.08968 -406.636025036,1309.80118116 -405.502122632,1310.52549742 -402.176142288,1307.37656347 -400.363211772,1304.36881051 -397.63621288,1300.92524114 -400.621726255,1300.58763635 "/>
  <polygon class="51805401" points="-419.370932246,1327.51042216 -422.867906612,1331.07680364 -426.708594233,1334.95010375 -474.939332556,1306.65232776 -468.174753651,1299.37225918 -419.370932246,1327.51042216 "/>
  <polygon class="280295242" points="-489.522486674,1300.13376437 -488.530513686,1315.05067745 -475.939332556,1313.93912426 -476.476906434,1305.89418411 -480.492397137,1306.25037219 -480.946314767,1299.37225918 -489.522486674,1300.13376437 "/>
  <polygon class="55166104" points="-505.409050639,1299.37225918 -512.565247639,1303.07210492 -497.683009251,1321.16025498 -490.522486674,1317.46653977 -503.714570497,1301.35410013 -505.409050639,1299.37225918 "/>
  <polygon class="49138213" points="-513.565247639,1300.77170162 -515.537336244,1311.59897199 -538.456547281,1310.19952837 -536.778925657,1299.37225918 -513.565247639,1300.77170162 "/>
  <polygon class="51819072" points="-604.26777372,1364.05606529 -589.544450798,1366.37059243 -582.983316749,1345.18378253 -577.018393197,1345.883665 -567.482605595,1345.21447912 -568.226166761,1342.57457188 -565.709618799,1338.87870263 -563.723536735,1337.16583336 -556.559838016,1334.10231504 -548.692815874,1334.7530824 -544.823885006,1330.64588141 -548.530494553,1330.08720395 -539.456547281,1306.30352859 -541.974222629,1305.9106133 -552.775762521,1304.24072349 -563.495516857,1302.3989335 -568.719770955,1301.50259579 -574.415075426,1300.52030797 -580.951564802,1299.37225918 -604.26777372,1364.05606529 "/>
  <polygon class="187937930" points="-617.415028289,1318.76043051 -696.843488466,1299.37225918 -698.881074988,1303.59615217 -605.26777372,1326.74163676 -605.797456428,1323.62282635 -617.415028289,1318.76043051 "/>
  <polygon class="309059743" points="-708.658872554,1299.37225918 -719.407383228,1301.17698067 -710.624809511,1344.61928116 -699.881074988,1342.81455361 -708.658872554,1299.37225918 "/>
  <polygon class="211681414" points="-723.346332354,1299.37225918 -725.723421507,1302.72920004 -722.783972814,1303.85840887 -720.407383228,1300.50760471 -723.346332354,1299.37225918 "/>
  <polygon class="10472058" points="-726.741934505,1305.48494176 -726.723421507,1299.37839641 -727.22975581,1299.37225918 -727.554660291,1299.39067087 -752.6698859,1300.28670649 -752.781186561,1303.31849871 -752.866932634,1305.26400138 -752.907317574,1306.11707677 -726.741934505,1305.48494176 "/>
  <polygon class="326633331" points="-765.109788508,1328.1694627 -757.808268765,1325.45610163 -753.907317574,1323.93367305 -768.252252411,1299.37225918 -779.414059456,1303.58348554 -765.109788508,1328.1694627 "/>
  <polygon class="203435089" points="-9.79750800775,1366.37059243 -21.4693127192,1381.94368647 -57.3541729251,1367.11363001 -67.6174276954,1380.807636 -34.0719508215,1394.66745854 -27.3332607578,1385.6773017 -15.1909497223,1390.69434884 0.0,1370.4235252 -9.79750800775,1366.37059243 "/>
  <polygon class="172870459" points="-72.9799770509,1381.01664092 -77.8991529173,1367.22995777 -74.5317798357,1366.37059243 -69.6174276954,1380.15727466 -72.9799770509,1381.01664092 "/>
  <polygon class="26629254" points="-84.3775096888,1366.37059243 -82.0019166064,1375.3573941 -78.8991529173,1387.06971055 -100.012787526,1391.0965891 -111.571013951,1387.26000509 -106.797559637,1375.774814 -103.226407555,1376.6219309 -104.52795824,1370.31152518 -84.3775096888,1366.37059243 "/>
  <polygon class="137475511" points="-169.914922488,1366.37059243 -170.746074383,1371.74962366 -138.325830732,1373.77597163 -113.472478719,1374.99178055 -112.571013951,1368.57501249 -137.484839397,1367.86272073 -158.242011302,1367.00919876 -169.914922488,1366.37059243 "/>
  <polygon class="27890373" points="-180.446114512,1392.26554557 -201.441934465,1388.52502379 -192.627367867,1366.37059243 -171.746074383,1370.4489213 -180.446114512,1392.26554557 "/>
  <polygon class="395808398" points="-205.313328261,1366.37059243 -220.622606187,1368.08335622 -217.755585856,1395.11927056 -202.441934465,1393.41264215 -204.158652925,1377.23037815 -205.049321101,1368.85686252 -205.313328261,1366.37059243 "/>
  <polygon class="34618889" points="-388.064806367,1376.85136192 -385.493086038,1373.54810735 -379.911291832,1366.37059243 -328.114603415,1388.7381734 -221.622606187,1434.65231293 -229.775940868,1445.13313754 -388.064806367,1376.85136192 "/>
  <polygon class="284699688" points="-415.123679488,1399.26072222 -392.881283177,1399.70883394 -389.064806367,1366.81870301 -411.311938252,1366.37059243 -415.123679488,1399.26072222 "/>
  <polygon class="237898248" points="-416.123679488,1366.80042439 -418.769786913,1366.37059243 -422.693753637,1377.60149229 -420.05398092,1378.04974601 -416.123679488,1366.80042439 "/>
  <polygon class="172186430" points="-619.971608246,1375.09683242 -619.754498484,1381.88868829 -423.693753637,1372.63432498 -423.731986007,1366.37059243 -619.971608246,1375.09683242 "/>
  <polygon class="59307636" points="-650.437965443,1379.50410181 -648.340230676,1382.25968562 -620.971608246,1369.01570469 -622.952827728,1366.37059243 -650.437965443,1379.50410181 "/>
  <polygon class="206198006" points="-674.929787884,1366.37059243 -676.29027724,1369.03589013 -681.877322978,1368.63056833 -686.665977185,1368.63056833 -687.033741634,1374.44018208 -677.772131848,1374.52001822 -672.799835914,1376.13516501 -668.602329127,1378.30916519 -666.054172916,1376.37467349 -659.986587237,1379.92431244 -658.056407105,1383.06863011 -651.437965443,1381.05430152 -655.225328782,1376.37467349 -661.926470083,1371.69504714 -668.511086295,1368.14541042 -674.929787884,1366.37059243 "/>
  <polygon class="55596238" points="-701.983293921,1366.37059243 -712.982558047,1370.9872118 -698.775119713,1394.03349854 -688.033741634,1389.55807098 -701.983293921,1366.37059243 "/>
  <polygon class="415472357" points="-713.982558047,1366.37059243 -716.857389418,1389.71594334 -724.070610418,1437.36440785 -732.402436835,1437.21094047 -722.936467935,1374.24035892 -713.982558047,1366.37059243 "/>
  <polygon class="429943681" points="-760.272760502,1374.1829049 -755.791132578,1367.13831161 -749.725409643,1366.37059243 -733.402436835,1374.71109601 -745.692082608,1390.92534504 -765.742673795,1382.71994983 -760.272760502,1374.1829049 "/>
  <polygon class="185776165" points="-769.683698097,1394.74262784 -766.742673795,1394.49100449 -769.307587425,1366.37059243 -772.066429594,1366.69586092 -769.683698097,1394.74262784 "/>
  <polygon class="25333501" points="-1.42738638637,1445.13313754 0.0,1456.42524699 -41.3957413025,1459.72261848 -41.8059333337,1447.67524289 -1.42738638637,1445.13313754 "/>
  <polygon class="4752056" points="-49.7828101597,1445.13313754 -90.727319541,1455.99974208 -80.3984229366,1478.3898876 -43.8059333337,1460.83139346 -49.7828101597,1445.13313754 "/>
  <polygon class="26832567" points="-101.307006751,1510.65640946 -95.4704509623,1510.28188457 -91.727319541,1452.15698069 -96.7185050195,1451.11322754 -108.516223271,1455.15930642 -114.115706716,1445.13313754 -131.478323203,1451.37109596 -126.780249599,1460.48858978 -127.720495963,1469.15174979 -130.055165371,1515.36560038 -128.434528169,1515.33490161 -106.125188703,1514.88055977 -101.307006751,1510.65640946 "/>
  <polygon class="206640731" points="-132.478323203,1446.10892347 -145.31576474,1463.67921994 -149.447340931,1458.38910371 -141.445523004,1447.28723112 -136.033581933,1445.13313754 -132.478323203,1446.10892347 "/>
  <polygon class="23886880" points="-150.447340931,1450.51559289 -173.639453218,1445.13313754 -179.740715071,1457.81904217 -183.865432508,1467.16009844 -160.67325578,1472.54256297 -150.447340931,1450.51559289 "/>
  <polygon class="242122580" points="-194.646478475,1445.13313754 -206.407345141,1471.76774946 -198.959430895,1473.23551038 -196.926691452,1473.67153981 -198.617370325,1473.06969638 -197.717634687,1471.57122918 -195.018662156,1472.43100542 -193.824689503,1470.76058306 -185.169654109,1450.77080275 -184.865432508,1449.3460331 -187.486507344,1449.0144057 -186.754896738,1446.37366933 -194.646478475,1445.13313754 "/>
  <polygon class="185766657" points="-256.884769202,1488.58439506 -254.824746984,1490.11869355 -207.407345141,1446.55696174 -209.563359117,1445.13313754 -256.884769202,1488.58439506 "/>
  <polygon class="316767850" points="-257.884769202,1446.26279359 -268.423411441,1445.13313754 -270.339259001,1453.67309414 -271.807842674,1453.79588291 -271.214660293,1449.46757922 -278.221982989,1451.41992028 -280.797486264,1464.21451489 -285.085082311,1463.90140326 -285.860533362,1467.73855612 -284.703527912,1467.82450835 -283.51321247,1467.91660004 -280.444659354,1466.17299761 -279.248448666,1465.47924038 -276.993892804,1465.66956315 -262.397348913,1466.67029265 -257.884769202,1446.26279359 "/>
  <polygon class="330713637" points="-286.860533362,1460.29286229 -306.986468545,1445.13313754 -313.766033617,1451.61437801 -295.58835463,1466.74956018 -286.860533362,1460.29286229 "/>
  <polygon class="428526219" points="-315.908339534,1445.13313754 -353.23325477,1459.20734879 -349.697077051,1465.42504926 -327.172922418,1456.93632369 -329.566299657,1452.71958356 -314.766033617,1447.14023084 -315.908339534,1445.13313754 "/>
  <polygon class="5083142" points="-396.220995274,1445.13313754 -390.339557628,1450.76197429 -354.23325477,1485.29619974 -370.471403517,1495.6699897 -406.645184151,1461.07435333 -412.463968182,1455.50689529 -396.220995274,1445.13313754 "/>
  <polygon class="207737371" points="-413.463968182,1445.513751 -419.353775507,1470.46237407 -423.456858495,1470.08175987 -421.021347645,1459.76220824 -417.571867164,1445.13313754 -413.463968182,1445.513751 "/>
  <polygon class="23321854" points="-424.456858495,1447.23205223 -429.163852271,1445.87573597 -431.825674134,1445.42772204 -434.199366645,1445.17609778 -438.810404204,1445.13313754 -445.375995036,1445.32339003 -445.488457317,1454.4248268 -435.863914856,1454.36959217 -429.845328306,1455.68294905 -428.738797993,1453.05623543 -426.733233269,1451.42374546 -424.456858495,1447.23205223 "/>
  <polygon class="317659584" points="-454.351988622,1445.13313754 -496.377430873,1454.55056262 -488.519348455,1480.80151765 -446.488457317,1471.37793437 -454.351988622,1445.13313754 "/>
  <polygon class="66862372" points="-560.75665833,1506.65725396 -525.339186977,1512.67279735 -504.188741005,1513.00426615 -500.268394509,1510.91724052 -497.377430873,1507.70690469 -502.310497537,1459.06703831 -505.101274561,1455.96106618 -524.861165962,1463.45591324 -526.006754676,1461.38117218 -502.181329278,1451.85455476 -508.981882492,1445.13313754 -606.065721184,1485.09339535 -600.208277967,1493.62563229 -596.084497766,1503.1768337 -580.223317899,1496.54746436 -581.242314155,1503.71700468 -560.75665833,1506.65725396 "/>
  <polygon class="51105289" points="-619.569629196,1445.13313754 -607.065721184,1473.39028945 -629.12966548,1480.16439952 -641.63301395,1451.9010914 -635.75921973,1450.10162601 -619.569629196,1445.13313754 "/>
  <polygon class="444578478" points="-654.886168385,1445.13313754 -642.63301395,1448.96561062 -648.307636402,1458.64506686 -660.560805122,1454.81259094 -654.886168385,1445.13313754 "/>
  <polygon class="185994863" points="-664.801085731,1445.13313754 -661.560805122,1451.19829863 -674.834888872,1455.94361389 -678.07516287,1449.87845058 -664.801085731,1445.13313754 "/>
  <polygon class="71036666" points="-698.952729342,1490.19749299 -679.07516287,1483.7386684 -697.703294247,1445.13313754 -715.551516092,1457.65782008 -712.224364987,1462.90713915 -698.952729342,1490.19749299 "/>
  <polygon class="28512502" points="-718.101328108,1445.13313754 -725.619690336,1446.354443 -723.580202013,1455.52344351 -716.551516092,1454.38805822 -718.101328108,1445.13313754 "/>
  <polygon class="327511237" points="-740.447358262,1456.61727918 -740.685014277,1456.86907063 -737.477194988,1458.56405713 -726.619690336,1446.82812251 -729.832338251,1445.13313754 -738.155902852,1454.13621243 -750.898800765,1447.3992588 -753.190259143,1449.88032427 -740.447358262,1456.61727918 "/>
  <polygon class="383578922" points="-3.1245566146,1515.36560038 -2.05307951812,1518.54573044 -3.77191886385,1518.95092081 -2.6639594458,1521.92231726 -1.04272076162,1521.52940529 0.0,1524.64814435 -12.5866479238,1527.71163089 -39.8442821244,1534.34202508 -41.283296564,1534.69196264 -41.9654995319,1533.00366746 -43.8675881846,1528.17821407 -36.1199302053,1526.40397022 -37.8832057801,1522.06352 -34.927117143,1521.41275955 -15.890225876,1517.84585619 -3.1245566146,1515.36560038 "/>
  <polygon class="396725303" points="-48.2441411615,1515.36560038 -45.8675881846,1524.72494493 -48.9571973586,1525.40662973 -58.1274023843,1527.42711914 -59.4963941975,1527.68505399 -61.4150148183,1528.04739103 -64.048636107,1518.93983746 -48.2441411615,1515.36560038 "/>
  <polygon class="86351658" points="-67.1713663063,1521.70984244 -69.1159473667,1520.727191 -70.8481295574,1519.9840609 -81.3538183942,1515.36560038 -90.5037580884,1527.75315044 -97.749857114,1532.62956158 -94.822357797,1533.9438591 -94.6709917079,1533.74732862 -87.5939504089,1536.73827716 -85.5139901484,1533.99299172 -79.2517274747,1536.66457822 -81.345681933,1539.40372265 -77.6713677983,1540.98210882 -65.048636107,1525.00786689 -68.5543055325,1523.43562422 -67.1713663063,1521.70984244 "/>
  <polygon class="141105459" points="-99.0984578554,1515.36560038 -113.869294029,1516.3600305 -128.102872435,1516.23112289 -128.67095744,1521.39970532 -113.957053277,1521.44267455 -98.749857114,1520.36844406 -98.9089061263,1517.62455287 -99.0984578554,1515.36560038 "/>
  <polygon class="381646510" points="-147.064625807,1516.37246666 -138.803931386,1516.11461065 -133.363061206,1523.36527792 -129.74461876,1527.85320356 -130.338364531,1527.90845847 -129.67095744,1528.43031039 -133.030400927,1528.70044551 -133.28140887,1528.81709476 -133.519930956,1528.95830176 -133.742139163,1529.13634537 -133.936871163,1529.33280729 -134.089637498,1529.54768751 -134.199436371,1529.76870717 -134.265265982,1529.9835874 -134.311776319,1530.19846764 -133.782042803,1532.05257724 -133.798034954,1532.07099555 -134.919693797,1531.13780128 -135.76297793,1530.64050699 -136.850436557,1530.23530425 -138.012382612,1530.03270288 -138.695712352,1530.00200571 -153.81640874,1530.16163103 -157.932087264,1524.60544326 -157.508695513,1522.84956564 -160.014952563,1520.06226388 -165.044394901,1519.78598951 -164.894199721,1519.12907047 -164.498282269,1517.3547753 -168.360553263,1516.98027012 -167.876233055,1515.36560038 -147.064625807,1516.37246666 "/>
  <polygon class="23287196" points="-178.158080934,1515.36560038 -208.10788344,1520.86489634 -208.019594746,1527.11298321 -241.029667986,1528.64738614 -242.445850855,1543.73978312 -244.655213527,1567.30212499 -169.360553263,1558.43325201 -178.158080934,1515.36560038 "/>
  <polygon class="319929404" points="-246.087523541,1515.36560038 -292.233130522,1522.20640723 -306.114813614,1524.41708167 -304.883047341,1531.85968837 -255.445073371,1524.39865938 -256.286717887,1520.72034296 -245.655213527,1519.08690061 -246.087523541,1515.36560038 "/>
  <polygon class="255467735" points="-357.877116048,1515.36560038 -360.587256627,1517.63666109 -319.438098856,1546.54054697 -309.825447534,1553.29236653 -307.114813614,1551.01516154 -357.877116048,1515.36560038 "/>
  <polygon class="270663515" points="-361.587256627,1529.57503099 -367.359728101,1515.36560038 -425.982401821,1538.18420956 -413.417928175,1559.44313282 -406.739166903,1560.78179524 -391.867321175,1553.7323268 -393.666657834,1549.26193415 -380.806334072,1543.88886811 -383.502402847,1539.7500736 -365.07191102,1533.37608702 -361.587256627,1529.57503099 "/>
  <polygon class="330713653" points="-426.982401821,1528.47539973 -441.641964652,1515.36560038 -449.883079296,1520.94462853 -439.926155484,1531.75285165 -434.050444357,1532.33591903 -426.982401821,1528.47539973 "/>
  <polygon class="159029897" points="-451.994960869,1530.56956142 -450.883079296,1516.15127092 -541.319846724,1515.36560038 -542.624092059,1530.29948687 -451.994960869,1530.56956142 "/>
  <polygon class="340283387" points="-543.624092059,1518.78038627 -560.123268234,1515.36560038 -563.4134962,1523.20855419 -546.91430366,1526.62334213 -543.624092059,1518.78038627 "/>
  <polygon class="144824683" points="-564.4134962,1533.69095161 -569.344423081,1515.36560038 -622.21383415,1526.14593787 -617.30213573,1544.75984465 -564.4134962,1533.69095161 "/>
  <polygon class="376558140" points="-636.465049039,1520.48239861 -626.343866494,1523.75248776 -623.21383415,1518.63568822 -633.330186034,1515.36560038 -636.465049039,1520.48239861 "/>
  <polygon class="7426380" points="-648.518546137,1515.42083558 -645.307093235,1515.40242385 -637.465049039,1515.36560038 -638.568150187,1530.35889787 -638.794988939,1533.4459359 -649.848511282,1533.50117118 -648.518546137,1515.42083558 "/>
  <polygon class="157004208" points="-650.848511282,1522.55241287 -662.158821346,1515.36560038 -681.332900231,1532.97360496 -671.651077628,1539.12935429 -670.903326602,1539.36871051 -650.848511282,1522.55241287 "/>
  <polygon class="442908146" points="-685.784845065,1515.36560038 -682.332900231,1520.00186926 -697.401008001,1572.7019318 -704.028905178,1576.05479782 -685.784845065,1515.36560038 "/>
  <polygon class="42493955" points="-740.024454205,1515.36560038 -705.028905178,1533.79315747 -726.569668793,1563.69348997 -765.914268591,1545.72013462 -740.024454205,1515.36560038 "/>
  <polygon class="110663432" points="-769.972560515,1515.36560038 -778.105187901,1516.89380838 -777.217484611,1520.63761188 -781.124171255,1521.36796056 -778.953098793,1530.51880339 -766.914268591,1528.26638206 -769.972560515,1515.36560038 "/>
  <polygon class="60541809" points="0.0,1576.05479782 -34.9279913147,1576.54576531 -35.6392134051,1588.94270065 -0.71066975724,1588.44559558 0.0,1576.05479782 "/>
  <polygon class="88715323" points="-37.6392134051,1582.91131626 -39.3084156595,1577.84719083 -62.9118339354,1576.05479782 -68.5345712618,1603.13714608 -56.1721099739,1603.99651436 -45.6955974455,1604.71470075 -41.9579063568,1601.77443364 -37.6392134051,1582.91131626 "/>
  <polygon class="261456400" points="-97.5283110354,1576.05479782 -103.267966018,1590.59073175 -75.3306593112,1595.23339087 -69.5345712618,1580.89396625 -75.7361142802,1579.91139383 -97.5283110354,1576.05479782 "/>
  <polygon class="282779518" points="-110.033018114,1576.8772658 -116.200359506,1578.22758647 -120.165903134,1579.09301934 -129.846748154,1581.2105681 -134.249856894,1582.17420635 -133.738210936,1583.91734832 -132.239320856,1589.05470826 -126.234244602,1587.74121341 -115.585555111,1585.41497753 -107.983349113,1583.75162707 -104.267966018,1582.93529648 -106.278522506,1576.05479782 -110.033018114,1576.8772658 "/>
  <polygon class="380301548" points="-139.059837401,1576.05479782 -140.247596417,1580.72890668 -136.432780418,1581.1219987 -135.249856894,1576.4478897 -139.059837401,1576.05479782 "/>
  <polygon class="266137439" points="-168.690550796,1609.47921032 -176.070943376,1581.62859652 -148.717613491,1576.05479782 -141.247596417,1603.63530314 -142.413437362,1603.89926107 -168.690550796,1609.47921032 "/>
  <polygon class="91271962" points="-177.070943376,1577.83594683 -179.178975636,1590.0890302 -211.537418189,1588.30787952 -209.42933532,1576.05479782 -177.070943376,1577.83594683 "/>
  <polygon class="99257560" points="-212.537418189,1576.53973234 -220.750338534,1576.05479782 -220.869865109,1576.76071517 -220.834238779,1577.09832782 -220.640538853,1577.33158748 -220.409971414,1577.46663255 -220.049421137,1577.54643191 -213.888399243,1577.90859824 -213.498170847,1577.85949094 -213.136313203,1577.7428611 -212.85928777,1577.5402935 -212.658424592,1577.26406495 -212.537418189,1576.53973234 "/>
  <polygon class="254871726" points="-221.869865109,1576.05479782 -247.684100355,1576.12845864 -248.793337703,1591.62179419 -250.115082582,1609.68100666 -233.054111629,1609.71783717 -227.686944256,1594.77079849 -226.684014521,1591.14913669 -226.210517595,1585.29923426 -222.378043551,1585.25626541 -221.869865109,1576.05479782 "/>
  <polygon class="230631721" points="-255.163609949,1600.66767843 -251.115082582,1596.72003691 -271.280529902,1576.05479782 -279.054649432,1576.50911348 -278.073415077,1599.3231472 -269.686348805,1591.54451494 -255.163609949,1600.66767843 "/>
  <polygon class="13007366" points="-280.054649432,1609.84067526 -364.640344515,1576.05479782 -368.437063293,1581.18130636 -367.52338065,1589.98539881 -366.989536099,1593.1104233 -361.938734222,1634.04278803 -347.434615237,1639.94290405 -297.2655511,1620.34544266 -293.08461528,1618.70004311 -284.745361211,1614.9733367 -280.054649432,1609.84067526 "/>
  <polygon class="106989148" points="-384.418207524,1576.05479782 -389.618201722,1586.13429433 -374.641867487,1590.12435298 -369.437063293,1580.04485336 -384.418207524,1576.05479782 "/>
  <polygon class="243582803" points="-407.64671252,1576.05479782 -394.571502723,1588.24326451 -390.618201722,1591.92558299 -410.685600261,1604.06496703 -420.827348021,1593.85266342 -425.836890252,1597.22812345 -431.517075489,1591.63099747 -407.64671252,1576.05479782 "/>
  <polygon class="211681409" points="-433.999290647,1576.05479782 -438.382607882,1582.1243119 -436.904719961,1582.70732907 -432.517075489,1576.64395174 -433.999290647,1576.05479782 "/>
  <polygon class="286356051" points="-439.382607882,1576.05479782 -448.281955949,1576.11004658 -448.746688428,1582.66623386 -439.949234695,1582.61712383 -439.382607882,1576.05479782 "/>
  <polygon class="96837225" points="-450.081159978,1576.05479782 -462.264274683,1576.9265578 -461.930322619,1590.82561216 -449.746688428,1589.94771209 -450.081159978,1576.05479782 "/>
  <polygon class="314115148" points="-467.651579451,1576.05479782 -463.264274683,1579.70123033 -485.165461104,1595.56383758 -489.552767826,1591.9174006 -467.651579451,1576.05479782 "/>
  <polygon class="389422340" points="-490.552767826,1576.05479782 -492.704187591,1576.9080797 -493.186411964,1582.94858035 -491.167463524,1583.76503035 -490.552767826,1576.05479782 "/>
  <polygon class="424766991" points="-499.935019708,1576.05479782 -520.814256915,1599.4676272 -512.828791322,1601.05754032 -508.090121753,1600.22268244 -494.344151483,1583.69741838 -494.186411964,1581.67780175 -495.949951679,1578.71897186 -499.935019708,1576.05479782 "/>
  <polygon class="38816927" points="-521.814256915,1584.92621251 -523.547060411,1605.24760744 -543.653846881,1605.60983199 -549.818815058,1605.517741 -549.492834178,1603.64522439 -548.761231997,1601.23858048 -546.844354907,1585.25160015 -548.321447763,1585.12267297 -547.849523775,1581.33467019 -551.159745042,1581.29783386 -550.991648072,1579.40690259 -550.957760863,1578.81138208 -550.991490218,1578.2158616 -550.777300255,1576.05479782 -543.04399737,1576.28195507 -540.273371944,1576.36176708 -540.686128248,1580.43218023 -532.34797296,1580.40762268 -532.784662603,1584.77272777 -521.814256915,1584.92621251 "/>
  <polygon class="331734981" points="-553.385802007,1576.05479782 -552.159745042,1578.57228905 -557.410212671,1579.75735216 -558.544482502,1577.2398607 -553.385802007,1576.05479782 "/>
  <polygon class="296537245" points="-589.203286154,1576.70557833 -588.901276011,1589.06427485 -571.593127871,1588.07582427 -571.540376037,1595.05023492 -559.544482502,1594.23368841 -559.725941684,1578.12378881 -575.776321583,1579.08768087 -575.965103764,1576.05479782 -589.203286154,1576.70557833 "/>
  <polygon class="28022662" points="-590.203286154,1584.29804254 -702.608210272,1576.05479782 -707.935447224,1603.24586324 -595.031081744,1610.28608746 -590.203286154,1584.29804254 "/>
  <polygon class="270466537" points="-712.87940348,1576.05479782 -724.404174038,1578.8922962 -720.459732682,1590.60466076 -708.935447224,1587.77330161 -712.87940348,1576.05479782 "/>
  <polygon class="367788507" points="-729.409265705,1576.05479782 -730.667722192,1576.75449738 -726.663125286,1581.21661743 -725.404174038,1580.5107799 -729.409265705,1576.05479782 "/>
  <polygon class="28095275" points="-747.229661504,1586.35503444 -737.060714214,1588.43719417 -731.667722192,1576.73656636 -735.396689708,1576.05479782 -747.229661504,1586.35503444 "/>
  <polygon class="309485309" points="-765.127624622,1578.14190291 -759.58733325,1602.12521992 -748.229661504,1600.03811096 -753.769983018,1576.05479782 -765.127624622,1578.14190291 "/>
  <polygon class="131293434" points="-775.029470831,1577.33102652 -766.574069645,1576.05479782 -766.127624622,1579.18401266 -774.442885132,1580.57682029 -775.029470831,1577.33102652 "/>
  <polygon class="78140107" points="-776.029470831,1576.11002162 -776.716040963,1585.30785578 -780.224879143,1584.90288096 -779.402734607,1576.05479782 -776.029470831,1576.11002162 "/>
  <polygon class="179457642" points="-10.0656430332,1642.47799317 -16.5705027283,1651.5932693 -47.9728665914,1639.94290405 -52.2393266451,1645.71284127 -21.6475122377,1658.12435325 -40.2788938267,1683.3463992 -35.0546979201,1685.41498972 -20.3826719431,1675.79635352 0.0,1645.92154117 -6.42039561979,1643.77929819 -10.0656430332,1642.47799317 "/>
  <polygon class="126252016" points="-54.2393266451,1645.2454994 -57.4891455821,1652.36472807 -80.8183969932,1647.06826706 -77.5680483182,1639.94290405 -54.2393266451,1645.2454994 "/>
  <polygon class="25333110" points="-81.8183969932,1646.46949907 -91.9653476916,1666.17823963 -116.515177713,1659.65163469 -106.368167196,1639.94290405 -81.8183969932,1646.46949907 "/>
  <polygon class="37197154" points="-117.515177713,1640.5258598 -132.621629392,1720.80218684 -141.384580966,1720.31741008 -125.584751723,1639.94290405 -117.515177713,1640.5258598 "/>
  <polygon class="245181341" points="-142.384580966,1642.97663465 -158.180126484,1639.94290405 -160.009784988,1644.55491178 -144.22156029,1647.61934925 -142.384580966,1642.97663465 "/>
  <polygon class="13529015" points="-199.691651438,1639.94290405 -260.001984127,1649.73802005 -255.058766037,1679.43641533 -246.085302664,1677.89595132 -245.066353444,1682.10000692 -201.557786212,1674.01103692 -197.925132887,1690.52039685 -161.009784988,1684.32171277 -165.078273226,1667.76939965 -184.049464569,1670.32865469 -193.989826236,1668.56724889 -199.691651438,1639.94290405 "/>
  <polygon class="331050349" points="-265.837791746,1639.94290405 -261.615686019,1644.64940633 -263.309393335,1645.5882525 -261.001984127,1648.16547761 -270.634861079,1653.52242575 -275.355919993,1648.25138512 -272.772070313,1646.81550249 -274.575698259,1644.80281256 -265.837791746,1639.94290405 "/>
  <polygon class="36742260" points="-296.025325206,1657.3536642 -292.393076296,1655.13127391 -277.203756735,1654.65855558 -276.355919993,1640.39106507 -278.57850605,1640.51998811 -314.384983025,1639.94290405 -321.622037366,1644.17280801 -320.452233924,1658.33593627 -314.326613579,1658.95599556 -296.025325206,1657.3536642 "/>
  <polygon class="154858805" points="-331.653758521,1639.94290405 -322.622037366,1652.9368848 -349.752158138,1664.43865648 -359.507332958,1650.78759597 -331.653758521,1639.94290405 "/>
  <polygon class="48797682" points="-360.507332958,1661.7627402 -361.619137576,1639.94290405 -375.240988934,1641.02929164 -374.123885197,1662.84299184 -360.507332958,1661.7627402 "/>
  <polygon class="147111555" points="-406.25500272,1639.94290405 -390.960517511,1641.24438464 -376.240988934,1642.31258107 -381.750371422,1668.9192954 -404.453090634,1667.43977893 -411.582572523,1666.92409688 -406.25500272,1639.94290405 "/>
  <polygon class="31159010" points="-422.775351175,1664.90746961 -412.582572523,1645.51924074 -433.010690907,1639.94290405 -441.620479626,1656.3157232 -460.162359443,1651.25525477 -476.660916934,1683.92724578 -461.214994071,1688.37359074 -447.802934828,1662.77642119 -432.920541003,1666.84199514 -430.760312804,1662.7272904 -422.775351175,1664.90746961 "/>
  <polygon class="379871321" points="-508.574001529,1649.51120794 -484.161353894,1639.94290405 -477.660916934,1650.81318564 -499.61645336,1660.05600284 -503.961383625,1658.99353913 -508.574001529,1649.51120794 "/>
  <polygon class="206198090" points="-525.748015706,1639.94290405 -528.315883575,1643.49858708 -530.872105075,1647.02970678 -514.702910002,1653.47169979 -512.146694893,1649.94057835 -509.574001529,1646.38489355 -525.748015706,1639.94290405 "/>
  <polygon class="140893968" points="-534.738010814,1639.94290405 -540.213191236,1641.2137393 -546.835918214,1642.75470396 -543.965699669,1651.88998823 -531.872105075,1649.07204703 -534.738010814,1639.94290405 "/>
  <polygon class="103302963" points="-556.886290992,1639.94290405 -547.835918214,1665.77068175 -569.045163465,1671.14379935 -578.095977152,1645.32215167 -556.886290992,1639.94290405 "/>
  <polygon class="326472938" points="-591.554743857,1650.51588172 -592.358004227,1649.93872708 -589.596091677,1647.57484932 -586.911631721,1649.37385236 -579.095977152,1642.12258225 -581.251695215,1640.77179571 -582.79902751,1640.07798268 -584.21303788,1639.94290405 -585.304723237,1639.94290405 -586.330257526,1640.13938206 -587.264172184,1640.39725947 -588.388767944,1640.98055362 -589.208205679,1641.61296731 -597.700591658,1649.22649374 -601.998830557,1649.63172995 -603.52752276,1654.41474616 -599.996424265,1654.59280456 -596.260991461,1654.39632632 -591.977125524,1653.57357373 -592.666515014,1652.4868036 -592.390170808,1651.1667157 -591.554743857,1650.51588172 "/>
  <polygon class="26314008" points="0.0,1756.96993582 -62.1765275027,1720.80218684 -102.501978161,1724.58154312 -190.934927001,1777.65830212 -187.62487268,1780.3517188 -184.130189351,1780.6830275 -165.493822979,1770.78058234 -152.398534801,1769.17925828 -125.505448193,1765.82322728 -56.0900940506,1760.01919768 -33.7635194537,1759.21546863 -0.24889838174,1759.64494216 0.0,1756.96993582 "/>
  <polygon class="106371122" points="-232.660609248,1729.92314229 -194.766749083,1720.80218684 -192.934927001,1726.95852416 -203.983346941,1729.56714256 -203.194364135,1731.94252024 -229.899223153,1738.3873456 -232.660609248,1729.92314229 "/>
  <polygon class="390545062" points="-233.660609248,1722.1834107 -234.745226585,1724.93358132 -242.597559605,1723.69968773 -241.500882514,1720.80218684 -233.660609248,1722.1834107 "/>
  <polygon class="87719978" points="-243.597559605,1731.88483973 -249.439346218,1736.85208168 -260.97456197,1728.92537138 -259.606026686,1720.80218684 -243.597559605,1731.88483973 "/>
  <polygon class="199793477" points="-262.840488979,1720.80218684 -261.97456197,1735.26255552 -273.2729388,1736.5269179 -273.960565913,1721.53870777 -270.383610669,1721.30547614 -262.840488979,1720.80218684 "/>
  <polygon class="211925882" points="-285.799160934,1720.80218684 -289.540287842,1724.02061295 -283.797960525,1736.28012121 -284.502815324,1741.80795936 -283.338142759,1743.41717491 -274.960565913,1740.59797681 -285.799160934,1720.80218684 "/>
  <polygon class="236004212" points="-294.727403448,1720.80218684 -312.85310545,1724.11067432 -310.377922117,1734.87707543 -304.154241355,1733.73536998 -302.597061464,1741.32832691 -290.540287842,1739.03877678 -294.727403448,1720.80218684 "/>
  <polygon class="81717305" points="-313.85310545,1720.92490209 -323.990302816,1720.80218684 -327.126167191,1722.93129662 -327.907341993,1730.51510263 -315.013167798,1730.67463257 -313.85310545,1720.92490209 "/>
  <polygon class="88644319" points="-338.570350791,1741.18984345 -330.04630819,1736.29385796 -328.907341993,1735.5882963 -342.622886359,1720.80218684 -352.396549171,1726.69208732 -338.570350791,1741.18984345 "/>
  <polygon class="126802342" points="-353.396549171,1720.80218684 -353.917496341,1732.36655071 -386.211737759,1733.06016735 -385.820566462,1724.41144579 -385.691240725,1721.50194104 -373.222217564,1721.23186047 -353.396549171,1720.80218684 "/>
  <polygon class="415472354" points="-387.211737759,1720.80218684 -388.152023781,1747.14295306 -391.477585053,1748.49344822 -390.418948179,1722.71743067 -387.211737759,1720.80218684 "/>
</svg>