<svg xmlns="http://www.w3.org/2000/svg" version="1.1" width="792.5px" height="800px">
  <polygon class="bin" points="196.2500005,803.749999 197.348350071,806.401649429 200.0000005,807.499999 596.2499995,807.499999 598.901649929,806.401649429 599.9999995,803.749999 599.9999995,3.75 598.901649929,1.09834957055 596.2499995,0.0 256.628778751,0.0 253.905467381,1.17200171102 252.884409656,3.95542657175 255.32265398,48.3980058198 255.326293279,48.4715359555 256.127396169,66.6256047196 253.755757241,72.0786976437 222.921454188,98.3795199085 218.971526615,99.755274489 215.824019756,98.3986318407 214.11193638,94.5824296698 212.786687622,68.4448884631 214.48405074,63.9394241652 216.165324074,62.2972113992 218.420795858,57.1376413697 218.322386335,53.9260017988 215.296016149,48.017649387 213.444432371,46.2984716244 211.711686748,42.4186504308 209.991524939,3.58405804959 208.837515576,1.04031530302 206.245198303,0.0 200.0000005,0.0 197.348350071,1.09834957055 196.2500005,3.75 196.2500005,101.561038356 197.699824398,104.52274224 202.494296673,108.246318594 203.234749708,108.912808538 207.25199013,113.094217703 208.466924954,114.831276055 213.538368446,125.189503188 213.964604408,126.270476629 215.47197484,128.078803766 217.760170778,128.632312577 220.095839627,128.440472114 223.925961922,129.493860336 226.17454532,132.768510891 244.046805113,202.3622103 243.244242406,206.985780542 239.249587516,209.44834851 237.860974393,209.628754018 235.247821574,211.231958187 234.704105387,214.24910982 241.814499236,242.955412251 241.362367202,246.95401576 237.96127754,250.105970721 236.76403338,253.02428129 238.217445129,255.823839192 241.293150448,256.523815584 271.145983015,250.151121476 275.103839429,250.719275737 277.747662981,253.718879658 302.103668377,316.59860041 302.218637513,321.203663354 296.813069962,337.535929172 294.062931338,340.80404087 289.818138982,341.278966531 262.144072293,333.664751513 258.548090273,330.711326721 258.338845742,326.062668698 267.349312432,303.112870626 267.201572338,300.043061058 264.80848362,298.114672012 225.117875719,287.723283137 221.330501494,288.899374802 218.719493149,291.921433029 214.761384077,292.525263116 200.752499165,289.655785692 197.629280145,290.423965545 196.2500005,293.329509383 196.2500005,388.645987165 197.175910645,391.113175138 199.496409296,392.362019444 292.170874449,404.921126044 295.988630558,407.159105245 297.081570127,411.447379455 293.621574592,434.983783818 291.791776089,438.423470137 288.197248513,439.92645917 256.448973146,441.614116756 256.063584929,441.623778633 228.875035962,441.542838998 226.113816706,442.743372651 225.125464279,445.587449358 233.496173688,551.800152522 234.643728881,554.216610445 237.109722231,555.253446314 289.19927374,556.988775715 293.082653636,558.673867617 294.766891971,562.557617785 296.137014068,603.958144712 294.445888104,608.213535023 290.176363844,609.868653242 213.226401131,606.671095047 211.000720971,607.290938305 209.560768938,609.097702259 208.839796087,611.01457041 204.595825467,612.74617933 200.091586297,612.636140017 197.380930698,613.701185885 196.2500005,616.385021456 196.2500005,623.732046625 197.096632092,626.105430683 199.254241506,627.407144382 244.886809443,636.667006349 245.180179056,636.714521096 277.470052298,640.638538371 281.228943165,642.705143821 282.515469338,646.797205531 280.484790353,673.069437179 278.45801633,677.01925806 274.220500477,678.343024401 200.352616073,671.366254635 197.476095628,672.326121082 196.2500005,675.099639461 196.2500005,803.749999 "/>
  <polygon class="10974897" points="-19.5978985532,801.0 -1.0,838.003528854 -4.40459475345,839.150879236 -66.3514161002,860.306320692 -72.964386139,862.386280418 -75.7204878768,853.636953577 -76.1908049052,852.146009975 -86.5474260129,823.143203194 -19.5978985532,801.0 "/>
  <polygon class="213963124" points="-89.6083362732,801.0 -149.340686865,827.581868153 -147.284620634,830.579087739 -87.5474260129,803.997213478 -89.6083362732,801.0 "/>
  <polygon class="254871720" points="-245.321902212,801.411274287 -245.657221565,805.910738608 -150.67112379,805.499464178 -150.340686865,801.0 -245.321902212,801.411274287 "/>
  <polygon class="28268017" points="-257.637055984,801.0 -256.554917049,807.510569405 -250.956014382,838.36825575 -246.657221565,847.016282849 -253.426471871,849.276563604 -257.864457191,849.055449165 -261.607711383,839.590526278 -268.37990715,802.566221588 -257.637055984,801.0 "/>
  <polygon class="330713641" points="-269.37990715,806.959521244 -276.71477115,801.0 -281.15688389,804.271291959 -273.827346381,810.236952223 -269.37990715,806.959521244 "/>
  <polygon class="387212526" points="-283.192487588,804.727569507 -282.15688389,801.927286549 -287.439616551,801.0 -288.475222138,803.800282759 -283.192487588,804.727569507 "/>
  <polygon class="32470409" points="-289.475222138,805.167933718 -298.249086435,801.0 -340.562479804,851.954462956 -333.003273502,855.803218038 -289.475222138,805.167933718 "/>
  <polygon class="79421349" points="-394.674058604,818.079959495 -388.121650582,801.0 -341.562479804,808.836756774 -343.046215517,812.884111844 -345.543191528,819.689075855 -374.954022589,814.665194139 -377.525641019,820.892842421 -394.674058604,818.079959495 "/>
  <polygon class="338392481" points="-395.674058604,804.475124881 -398.358156735,808.901919583 -440.065555282,809.172070766 -439.489551986,801.214892854 -399.477297105,801.0 -395.674058604,804.475124881 "/>
  <polygon class="85811365" points="-441.065555282,801.0 -442.298761887,819.449785515 -450.722560235,819.449785515 -449.76969429,801.300844879 -441.065555282,801.0 "/>
  <polygon class="162789813" points="-451.722560235,805.543521305 -455.550588797,801.0 -464.692034185,805.838236255 -460.8688377,810.381759252 -451.722560235,805.543521305 "/>
  <polygon class="437198497" points="-468.068252538,801.0 -482.465368747,805.911101367 -478.317581543,814.069672628 -466.586485094,810.153066671 -465.692034185,805.1314639 -468.068252538,801.0 "/>
  <polygon class="26735514" points="-483.465368747,803.835558154 -530.534882265,803.09291191 -625.527010471,801.0 -625.196208251,814.09758334 -484.955265345,817.59600288 -483.465368747,803.835558154 "/>
  <polygon class="25880322" points="-627.342503001,801.0 -629.90451057,801.27007962 -724.846299865,811.293720441 -773.126140279,816.394547382 -774.477804325,816.683041865 -774.419215937,825.23966842 -725.433129684,820.065179805 -723.981608213,819.911725252 -629.210742814,809.912630461 -626.527010471,809.630274305 -627.342503001,801.0 "/>
  <polygon class="197917668" points="-115.735355116,864.663869104 -116.347827792,862.386280418 -1.27386737871,871.625557758 0.0,874.443385181 -115.735355116,864.663869104 "/>
  <polygon class="381646513" points="-126.765644952,862.386280418 -118.347827792,999.817205499 -121.878372685,998.392788877 -129.85914405,862.650285892 -126.765644952,862.386280418 "/>
  <polygon class="303145436" points="-138.776318142,864.983387734 -139.202496229,863.104629198 -135.284494104,862.386280418 -134.195263744,867.205971714 -133.107302146,867.783106842 -132.192276359,868.526014864 -131.491150956,869.403997127 -131.040060354,870.386354974 -130.85914405,871.423970531 -130.954050953,872.467725908 -133.646851338,872.615079616 -133.480190048,873.413245559 -133.598236922,875.56829385 -135.069363834,875.838442378 -136.976898462,876.188407527 -137.60851417,873.394826344 -138.099056871,873.486922417 -139.972438887,865.198278434 -138.776318142,864.983387734 "/>
  <polygon class="6084616" points="-200.143744319,862.386280418 -203.31358099,866.848687091 -203.495057171,870.322858963 -201.234502243,872.176569426 -143.309266987,872.323884176 -140.972438887,867.425669634 -142.156070207,862.711600246 -200.143744319,862.386280418 "/>
  <polygon class="49056885" points="-207.670854084,862.386280418 -204.495057171,868.992936478 -207.104072057,890.869833648 -214.632269538,897.887886211 -229.210441381,903.438474651 -237.248099661,897.218622942 -207.670854084,862.386280418 "/>
  <polygon class="380393957" points="-243.328637079,862.386280418 -270.638425539,866.315326251 -274.405960303,866.616143871 -271.174759579,888.588127327 -297.960540945,892.075162493 -297.905052678,895.101762438 -295.070972194,898.343233345 -288.554670075,897.68020514 -266.830642659,894.610630553 -256.229425283,893.075843532 -238.248099661,889.828234796 -243.328637079,862.386280418 "/>
  <polygon class="448765388" points="-298.960540945,864.743421899 -396.239066983,889.082160483 -397.196638276,886.522447361 -299.610937042,862.386280418 -298.960540945,864.743421899 "/>
  <polygon class="197917667" points="-554.956853048,865.087460741 -556.225567343,862.386280418 -399.639839057,875.511566448 -398.196638276,878.384642993 -554.956853048,865.087460741 "/>
  <polygon class="135081874" points="-571.107262361,897.009349765 -557.90140384,867.120161557 -557.225567343,864.86680936 -558.250424171,863.687944061 -559.3075354,863.024832378 -561.897893851,862.386280418 -564.100217515,862.619597477 -565.665798493,863.933540991 -579.859834184,894.688453065 -580.127323019,896.315536687 -579.073778998,897.79526197 -577.531800606,898.317156819 -575.377170544,898.967990424 -573.354222756,898.80221205 -572.008919147,898.237337605 -571.107262361,897.009349765 "/>
  <polygon class="390164745" points="-584.293511891,862.386280418 -581.127323019,872.828771433 -583.978883713,873.504065086 -583.114285441,876.328020744 -583.720879566,876.481496613 -584.315297136,876.60427731 -584.372628853,876.420106266 -588.287464433,877.340961511 -589.119883269,874.713454717 -590.981618654,875.155465168 -592.730925561,869.458442725 -594.615295727,869.882035902 -595.461281339,867.125610981 -591.796173572,864.068374227 -584.293511891,862.386280418 "/>
  <polygon class="4751061" points="-610.809133137,925.786454913 -648.434682424,906.003406503 -651.494972539,904.395229526 -661.481400501,899.147172463 -664.467437192,897.575824798 -701.736936053,877.989237694 -688.158405978,863.21491851 -687.400454578,862.386280418 -672.788815232,870.003614801 -672.430490481,869.635331005 -671.535697222,870.089547688 -670.645231619,870.537626323 -670.986070445,870.869081763 -642.728756536,885.753894968 -642.352947063,885.348782299 -641.498775431,885.827551818 -640.639275363,886.300183283 -640.977786534,886.662329482 -612.548036609,901.565575102 -612.25147837,901.185014251 -611.431425305,901.608541651 -610.610871914,902.025930986 -610.808041458,902.431044177 -596.461281339,910.042264067 -610.809133137,925.786454913 "/>
  <polygon class="376568456" points="-716.594178819,862.386280418 -702.736936053,874.28914611 -730.140614509,895.702061105 -745.236371269,883.314470689 -716.594178819,862.386280418 "/>
  <polygon class="186583442" points="-746.236371269,862.386280418 -771.179010242,862.601177796 -772.552264756,883.059424464 -767.235252615,883.01644492 -767.021259684,879.79911949 -760.756478473,879.743860091 -760.630286518,877.840480925 -747.264557439,877.723822211 -746.236371269,862.386280418 "/>
  <polygon class="221097554" points="-9.00548879248,1039.2199283 -24.3835464665,1042.68256033 -33.2692759031,1010.80059501 -3.42058032774,999.817205499 0.0,1008.31413653 -16.4725425788,1012.34158556 -9.00548879248,1039.2199283 "/>
  <polygon class="270646322" points="-38.2527169446,1025.01783277 -35.2692759031,1016.16322084 -92.2673693126,999.817205499 -95.0651572781,1004.79715014 -87.5261456352,1006.30771326 -82.4448473879,1007.68318552 -77.6474064518,1008.9849719 -71.0720865735,1011.1157263 -60.4885189257,1015.63513737 -62.3569437879,1020.17911205 -38.2527169446,1025.01783277 "/>
  <polygon class="25046583" points="-104.527205322,999.817205499 -113.533092083,1007.20209238 -105.071040585,1013.30398878 -96.0651572781,1005.91909843 -104.527205322,999.817205499 "/>
  <polygon class="34386117" points="-114.533092083,1020.98550803 -120.688048411,999.817205499 -142.294664462,1000.45569208 -144.53939236,1028.04570943 -114.533092083,1020.98550803 "/>
  <polygon class="310389630" points="-150.928588895,1001.88651215 -150.586052428,1000.34527779 -150.562395845,1000.35141816 -149.629663143,1000.40668154 -149.58767957,1000.42510267 -149.432038936,999.817205499 -148.258906558,999.946153381 -148.758922782,1002.05844269 -145.53939236,1002.39002301 -148.416629715,1014.62165883 -152.998707375,1014.17341093 -153.179929444,1015.15587211 -155.279970363,1014.95937987 -154.876469772,1013.38130167 -159.688441841,1012.90849228 -158.365500599,1007.2654829 -156.941176877,1001.26633416 -150.928588895,1001.88651215 "/>
  <polygon class="272528135" points="-160.688441841,1002.56087616 -175.834881007,1003.40791554 -175.867852819,1000.6642447 -160.721418773,999.817205499 -160.688441841,1002.56087616 "/>
  <polygon class="199999681" points="-194.49541341,999.817205499 -176.867852819,1020.95651525 -208.720068827,1038.17979955 -212.389821554,1033.94456358 -227.346280688,1016.67831882 -194.49541341,999.817205499 "/>
  <polygon class="378342692" points="-229.233359511,1034.47720767 -232.157161449,1034.48334871 -231.770246685,1023.20839811 -233.496848971,1018.84826188 -238.020966869,1013.02656114 -252.368954331,1001.66565474 -249.626119386,999.817205499 -234.860512468,1011.73694424 -231.659470742,1015.56280809 -229.314369373,1020.1563026 -228.346280688,1022.47147358 -229.233359511,1034.47720767 "/>
  <polygon class="178540278" points="-253.368954331,1058.16833957 -256.638307523,1058.19904753 -263.560105125,1015.11585142 -265.608858075,999.841771757 -261.745626902,999.817205499 -253.368954331,1058.16833957 "/>
  <polygon class="221890786" points="-352.278268226,1011.45049142 -347.228253061,1040.7762406 -266.608858075,1027.61433031 -274.353422651,999.817205499 -315.073214927,1005.12738485 -352.278268226,1011.45049142 "/>
  <polygon class="69678197" points="-353.278268226,1012.42830715 -367.771214464,1015.43679962 -370.114304542,999.817205499 -353.278268226,1012.42830715 "/>
  <polygon class="303145439" points="-387.941200559,999.817205499 -386.677647004,1002.08886971 -385.501658517,1001.6468161 -371.242434017,1028.67351013 -372.581827999,1029.16468182 -371.85430908,1030.42944903 -371.114304542,1031.71877495 -375.091341231,1033.16159221 -376.055446648,1033.49313322 -376.807388764,1031.9950591 -381.580345135,1033.89835002 -391.244552173,1015.43030023 -393.357170347,1016.22231379 -396.959550744,1009.11261237 -394.901568452,1008.33901815 -396.104926168,1005.80334852 -392.259175678,1004.48946664 -393.731330794,1001.87398253 -387.941200559,999.817205499 "/>
  <polygon class="183972774" points="-397.959550744,1037.92553642 -415.329023605,1008.90990326 -418.280366651,1010.03344434 -420.900316592,1006.16551643 -425.104275674,999.817205499 -431.622139571,1002.61684707 -437.759071103,1005.01127785 -442.580455876,1007.14784722 -426.875562238,1034.3707188 -422.350066108,1032.78056753 -418.089360034,1039.97001746 -411.220284044,1037.30543863 -408.572991456,1041.84259047 -405.565493946,1040.68220913 -403.994474942,1040.13578621 -397.959550744,1037.92553642 "/>
  <polygon class="182863191" points="-465.140223395,999.817205499 -478.1847346,1030.28890692 -476.459169214,1041.20718361 -456.45956176,1073.45267074 -443.580455876,1067.68358262 -462.227974943,1037.46956003 -464.459212578,1031.71889991 -462.838373151,1027.65600178 -451.008409667,1002.51761521 -465.140223395,999.817205499 "/>
  <polygon class="51038800" points="-479.1847346,1023.89788423 -488.288061141,1030.55523862 -502.538644485,1018.80660721 -517.490432229,1006.47454758 -508.382267261,999.817205499 -479.1847346,1023.89788423 "/>
  <polygon class="243689159" points="-518.490432229,999.817205499 -518.879896524,1006.04017225 -566.382129485,1005.9481165 -566.123420693,999.909261198 -543.385953465,999.866301873 -521.995148906,999.823342546 -518.490432229,999.817205499 "/>
  <polygon class="23597441" points="-597.960640829,1021.37225006 -612.45967436,1005.36711956 -601.318220136,999.817205499 -590.679862015,1002.64127652 -582.992834848,1005.88895894 -574.499253874,1011.58621855 -567.382129485,1016.62657639 -592.221331347,1031.26879633 -597.960640829,1021.37225006 "/>
  <polygon class="306822238" points="-627.77579403,1004.44577672 -631.294770831,1013.76431105 -619.291875875,1015.92513157 -613.45967436,1000.48018377 -617.138533086,999.817205499 -619.451774976,1005.94361709 -627.77579403,1004.44577672 "/>
  <polygon class="35338003" points="-658.815731926,999.817205499 -665.627478964,1009.7512296 -666.782756653,1011.24839017 -667.804563298,1014.41451719 -639.55420955,1019.61776639 -637.718940976,1015.59261116 -632.294770831,1003.68895827 -658.815731926,999.817205499 "/>
  <polygon class="27168747" points="-674.259484946,999.817205499 -677.034393721,999.964559499 -679.809803464,1000.11805325 -679.462558785,1005.45349716 -683.208201305,1005.71750652 -682.465860203,1026.51900539 -681.163016865,1072.72080085 -678.659546171,1072.40767185 -677.634238649,1072.62870409 -677.597344533,1073.06462878 -677.62382583,1075.69859663 -675.091406351,1075.56352134 -672.563817226,1075.42844606 -672.698528097,1072.57958581 -671.993352893,1071.92876869 -671.478840313,1071.89806977 -669.515714759,1071.69545689 -668.804563298,1071.14901614 -670.143190547,1013.12819016 -672.566821089,1013.23256602 -673.989489385,1012.79050358 -674.549124388,1011.89409922 -674.055734729,1010.81964203 -672.747929747,1010.06445217 -670.313137124,1009.94165708 -670.264276728,1004.42815851 -674.276260187,1004.75970513 -674.259484946,999.817205499 "/>
  <polygon class="127327896" points="-685.026263043,999.817205499 -731.564297474,1002.02078696 -735.141008135,1015.83768096 -684.208201305,1012.13025882 -685.026263043,999.817205499 "/>
  <polygon class="27527876" points="-59.7252503235,1099.78815592 -63.0448804988,1105.42522977 -56.0528804116,1107.6051446 -57.9991339775,1110.91493149 -19.4588333772,1122.93824603 0.0,1089.88336869 -45.5481176503,1075.69859663 -59.7252503235,1099.78815592 "/>
  <polygon class="441793440" points="-65.0448804988,1076.49681084 -72.1628385488,1075.69859663 -75.2484854859,1087.32182837 -68.1305167915,1088.12004329 -65.0448804988,1076.49681084 "/>
  <polygon class="82165982" points="-93.3758957609,1076.84060464 -92.9515561169,1102.81210425 -90.2108125663,1108.76161113 -76.2484854859,1104.82597212 -76.8836701867,1075.69859663 -93.3758957609,1076.84060464 "/>
  <polygon class="244452624" points="-94.3758957609,1088.40491552 -113.336504019,1076.73597196 -115.014688359,1075.69859663 -117.058673499,1077.50326145 -123.142472625,1082.38322371 -99.8938104042,1093.09459386 -94.3758957609,1088.40491552 "/>
  <polygon class="272948115" points="-137.773046037,1076.56415323 -128.831891577,1075.69859663 -128.608536776,1076.80970121 -125.238377295,1095.18898093 -124.142472625,1101.47501979 -135.377737345,1102.64137499 -137.773046037,1076.56415323 "/>
  <polygon class="129802217" points="-139.132924832,1081.34126881 -150.765198251,1081.4640691 -150.405311213,1075.82139687 -138.773046037,1075.69859663 -139.132924832,1081.34126881 "/>
  <polygon class="147587491" points="-151.765198251,1082.24975053 -162.614003098,1091.09719042 -161.913428298,1091.56995456 -170.730916366,1099.07892486 -169.224156733,1100.27004565 -175.03631525,1105.09592791 -186.510867993,1096.8747377 -183.100786548,1094.02587241 -180.272155579,1091.67433106 -174.169525843,1086.60286212 -166.581220637,1080.30957715 -163.095699974,1077.42387677 -162.330538558,1076.86515613 -160.926637638,1075.69859663 -153.991016424,1080.63498595 -151.765198251,1082.24975053 "/>
  <polygon class="24950818" points="-243.492133002,1075.69859663 -210.728532406,1102.60205253 -197.336905794,1113.76734076 -193.314166877,1117.83079605 -190.269376457,1122.52648237 -188.515586495,1126.9459534 -187.510867993,1131.7337154 -187.732314372,1135.91993951 -188.888825181,1140.02636889 -190.079579405,1143.359391 -192.178173498,1146.51440719 -195.208372723,1149.54666084 -198.659284418,1152.16765798 -205.750066806,1155.7400718 -212.306798326,1156.51961928 -220.234006368,1157.17026524 -219.570710743,1148.93898242 -211.448118082,1147.36147393 -206.611633144,1144.80185939 -203.107538234,1141.64070546 -200.944122738,1137.92097967 -200.47711821,1134.34243261 -200.923504216,1129.45645915 -202.551755984,1125.03698726 -204.935442571,1121.78376586 -218.662500397,1110.047623 -254.27156004,1081.00808099 -251.535334222,1078.44847959 -248.750383441,1079.65769169 -243.492133002,1075.69859663 "/>
  <polygon class="381334994" points="-255.27156004,1077.50361173 -288.934308708,1085.47883448 -286.631230317,1082.05298762 -259.480965128,1075.69859663 -255.27156004,1077.50361173 "/>
  <polygon class="138950737" points="-292.312991055,1075.69859663 -313.034647697,1078.1114645 -310.661352119,1098.9616086 -289.934308708,1096.54259723 -292.121115741,1077.35629207 -292.312991055,1075.69859663 "/>
  <polygon class="439995442" points="-314.034647697,1082.4119956 -316.321081662,1079.56816744 -371.26544885,1075.69859663 -369.213055877,1078.74511577 -314.034647697,1082.4119956 "/>
  <polygon class="376568458" points="-372.26544885,1079.47193272 -403.168458501,1103.23477223 -406.388111372,1099.1669244 -384.965429571,1082.17155596 -376.739758914,1075.69859663 -372.26544885,1079.47193272 "/>
  <polygon class="37736296" points="-439.052053117,1077.02477891 -407.388111372,1075.69859663 -408.951095892,1089.64193654 -428.758848218,1090.6365743 -435.942829895,1094.08710837 -435.804257929,1109.37507286 -481.684809159,1111.24769625 -524.811162338,1112.45722692 -524.921437962,1097.94900614 -530.438087502,1098.13319843 -546.054345873,1098.84540864 -551.668283538,1099.09713812 -559.131575487,1093.42401634 -559.386877955,1081.75851398 -554.447357647,1081.54362325 -517.161116965,1079.92273325 -517.660162667,1092.54603343 -439.3283433,1089.16917664 -439.052053117,1077.02477891 "/>
  <polygon class="29036176" points="-562.528574512,1111.48680115 -564.321373133,1111.43768363 -563.93510861,1100.86514154 -584.029564814,1101.05547178 -583.415403738,1093.48524213 -599.112653156,1093.41770563 -598.028620747,1085.41770297 -597.07903785,1076.22660854 -561.635876147,1075.69859663 -563.198328249,1090.9679729 -560.386877955,1091.02323003 -560.680511713,1104.59807064 -561.063723859,1111.52977898 -562.528574512,1111.48680115 "/>
  <polygon class="128396867" points="-600.112653156,1075.69859663 -606.119816908,1075.82749972 -618.296460057,1076.12213534 -618.527718287,1081.78159596 -603.516720992,1081.42557776 -600.367543,1081.35191882 -600.238358981,1078.50377356 -600.112653156,1075.69859663 "/>
  <polygon class="140893966" points="-622.398478991,1075.69859663 -628.518968623,1077.12291373 -634.491538813,1078.5103952 -631.626124577,1087.64567511 -619.527718287,1084.82773526 -622.398478991,1075.69859663 "/>
  <polygon class="382974407" points="-638.005253201,1075.69859663 -635.491538813,1144.72217262 -639.136808121,1142.38925202 -641.549492327,1077.53422731 -640.389277969,1076.3309376 -639.720057646,1075.82138128 -638.005253201,1075.69859663 "/>
  <polygon class="329809885" points="-643.246884259,1082.9304346 -642.549492327,1081.83767784 -647.710110059,1075.69859663 -656.233325812,1079.25312429 -653.654517945,1082.34108262 -658.979707628,1085.70530049 -656.996111568,1087.62069499 -651.999801548,1084.79671602 -647.801295223,1088.63364412 -644.644142686,1085.8587776 -645.034220545,1083.82674077 -643.246884259,1082.9304346 "/>
  <polygon class="23914318" points="-689.900455569,1113.15405933 -667.779630652,1105.24057852 -669.781241565,1101.49564359 -659.979707628,1097.9901399 -671.873528545,1075.69859663 -703.795822373,1087.1175592 -689.900455569,1113.15405933 "/>
  <polygon class="99252834" points="-705.204203924,1078.34424736 -704.795822373,1075.90730224 -708.608032565,1075.69859663 -708.99946222,1078.10484971 -705.204203924,1078.34424736 "/>
  <polygon class="24315047" points="-710.015288925,1075.69859663 -709.99946222,1083.65561528 -711.740523078,1111.08772004 -713.583319337,1111.11841849 -716.62549822,1111.16753601 -716.657412927,1112.26654053 -734.714711029,1120.7393159 -737.403402784,1121.89971818 -739.352404652,1119.27192905 -754.386335616,1097.27342548 -712.154143692,1076.80987749 -710.015288925,1075.69859663 "/>
  <polygon class="287811088" points="-755.790390257,1075.69859663 -755.386335616,1079.17850807 -762.566648381,1080.20345572 -762.618358511,1079.95182186 -783.357988941,1083.02666521 -783.889151005,1079.85976069 -755.790390257,1075.69859663 "/>
  <polygon class="391137142" points="0.0,1159.15293191 -10.7838798537,1165.91732635 -12.8139724745,1163.93465865 -11.9838255091,1163.40676575 -10.4372775257,1162.44305435 -3.60228516078,1158.15239111 -2.03009283193,1157.17026524 0.0,1159.15293191 "/>
  <polygon class="93903276" points="-27.5761587474,1157.17026524 -42.5155793568,1173.58521559 -29.7485411789,1180.19910154 -14.8139724745,1163.78414286 -27.5761587474,1157.17026524 "/>
  <polygon class="49293267" points="-85.7819853089,1175.4265394 -88.6628716235,1174.51188349 -93.210984662,1173.91029776 -96.3638402591,1173.96554543 -99.2374450292,1174.14970432 -103.237415629,1175.0029739 -105.539490958,1175.81941175 -106.366204851,1174.34614048 -110.187933485,1175.91762984 -109.234654666,1177.55664435 -111.74211772,1179.17724316 -115.225493015,1176.1693137 -117.314189414,1177.74694192 -119.531371132,1179.89546315 -123.090874313,1178.12139846 -124.965552743,1180.21467205 -128.188301328,1179.1097182 -128.952153151,1180.01209717 -131.129351602,1179.23249085 -136.041611024,1180.31902881 -148.328557532,1184.98439057 -149.233702128,1183.40676147 -148.414882671,1181.05566476 -148.888749509,1179.63764059 -149.763423508,1178.04159624 -151.718018658,1175.41426214 -150.160070061,1174.60396294 -153.124570986,1173.35168246 -155.095893132,1171.58375729 -147.331685091,1168.61879999 -142.502554431,1167.18849992 -125.719865958,1162.63977844 -118.8296935,1161.16037004 -113.094720123,1160.11066543 -101.902275426,1158.69264354 -83.3181619402,1157.17026524 -67.0517655769,1158.0235337 -57.1765060569,1158.7908615 -51.2133687492,1159.68710043 -43.5155793568,1161.6391827 -47.9494836831,1170.9821717 -47.4715116616,1171.75563889 -47.5107127881,1174.02079309 -47.4982782274,1174.99683527 -48.5609292564,1175.11960788 -51.8519063741,1174.43821993 -61.3601706202,1178.30555741 -63.9626116103,1174.85564678 -64.7836238012,1175.27307364 -64.9496583992,1175.05822157 -66.5346781564,1173.46831642 -65.4987256233,1172.84217623 -66.4880680655,1171.8845501 -68.027171296,1172.879008 -70.3941530622,1170.98831033 -72.2340975864,1172.35722452 -73.6583685857,1171.34435078 -74.4149108034,1172.03801582 -75.4668466074,1171.19702369 -81.7714029513,1177.1760492 -85.2281520724,1175.62297557 -84.8568938732,1175.09505336 -84.1520710497,1174.97841938 -83.7413446734,1174.49960623 -83.8481360164,1173.97168406 -84.4229602711,1173.67702983 -85.1282818399,1173.79980242 -85.5476681492,1174.26633829 -85.4408769066,1174.79426047 -85.7819853089,1175.4265394 "/>
  <polygon class="42855926" points="-180.488743903,1161.07587744 -178.842215182,1157.17026524 -156.095893132,1161.5732904 -158.665749648,1179.75651048 -179.582381245,1179.1731241 -186.497168527,1165.55259475 -180.488743903,1161.07587744 "/>
  <polygon class="285020441" points="-190.405045879,1162.24640393 -191.928099124,1160.65665774 -195.258460877,1157.17026524 -204.193198003,1160.44182719 -203.259518955,1162.21571385 -202.436922004,1163.5108354 -201.614819372,1164.8120951 -200.792716374,1166.11335493 -200.245511003,1166.51232613 -198.588816637,1167.40233886 -196.927293857,1168.29235164 -195.270598657,1169.18236449 -193.115115432,1170.29334613 -189.01181313,1165.80645402 -187.497168527,1164.50519422 -190.405045879,1162.24640393 "/>
  <polygon class="28721537" points="-229.586302775,1205.82849348 -261.68168255,1171.26812104 -237.293931307,1157.17026524 -205.193198003,1191.72446244 -229.586302775,1205.82849348 "/>
  <polygon class="101184449" points="-262.68168255,1172.3954804 -270.078640524,1186.05458328 -323.938493711,1170.82321049 -316.541946701,1157.17026524 -262.68168255,1172.3954804 "/>
  <polygon class="192640128" points="-337.316690471,1157.17026524 -347.730756791,1161.26540112 -358.193325535,1165.59998413 -359.716883863,1163.254643 -366.221954472,1165.96836235 -371.752988854,1168.40579854 -372.28543183,1169.66442447 -373.997396366,1170.75728024 -375.454822678,1179.21770617 -364.960985231,1180.24916631 -352.611563536,1181.32974369 -349.573000113,1180.31670239 -342.954177627,1177.68893504 -339.426487609,1183.59527269 -325.397852165,1178.05731361 -324.938493711,1178.05117396 -329.199380237,1172.31060912 -327.181834472,1171.61682979 -337.316690471,1157.17026524 "/>
  <polygon class="247238056" points="-376.454822678,1163.43046004 -377.30993385,1166.35188532 -426.092253231,1160.08555166 -425.23279483,1157.17026524 -376.454822678,1163.43046004 "/>
  <polygon class="326610430" points="-431.07875518,1157.17026524 -427.092253231,1177.20433046 -431.699920463,1177.87336075 -432.388730717,1179.32190351 -432.976701589,1180.24872544 -433.798867517,1181.32285691 -434.78344587,1182.31719583 -435.620795457,1183.04760533 -437.255268087,1184.19539178 -437.859347742,1182.20671372 -436.706804286,1181.2246506 -435.664576621,1180.17507072 -434.904602574,1179.21142143 -434.311518778,1178.3398406 -435.432236064,1178.52397739 -439.475073781,1158.58811627 -431.07875518,1157.17026524 "/>
  <polygon class="294468186" points="-440.475073781,1161.07583311 -444.602989537,1157.17026524 -447.15946259,1158.72389509 -443.088340939,1162.73385756 -440.475073781,1161.07583311 "/>
  <polygon class="320380155" points="-450.186477458,1157.17026524 -460.871779419,1158.22006588 -459.744858371,1166.59391728 -448.15946259,1165.10209438 -450.186477458,1157.17026524 "/>
  <polygon class="41274272" points="-515.62444596,1185.37787205 -510.512434948,1157.17026524 -461.871779419,1160.10459014 -464.11183836,1172.48646632 -466.983614417,1188.31220334 -515.62444596,1185.37787205 "/>
  <polygon class="328790101" points="-538.516100119,1165.07529848 -531.574703722,1163.25861339 -533.134047403,1159.68048102 -523.88610583,1157.17026524 -516.62444596,1173.11536054 -533.66990215,1176.69963409 -538.516100119,1165.07529848 "/>
  <polygon class="30805116" points="-562.541315119,1220.74375209 -539.516100119,1235.90518788 -546.528327388,1241.90224653 -552.92511553,1247.45735452 -572.959164968,1234.75119943 -569.591219801,1231.70049642 -582.830363674,1223.11924713 -586.381786047,1226.16994812 -593.231870892,1221.95298337 -588.962348385,1218.03065493 -587.292108203,1216.49609797 -585.045727176,1214.58710936 -583.799307622,1213.51291975 -582.509433982,1212.43873023 -655.681413221,1164.6220414 -647.353044708,1157.17026524 -627.786062268,1169.97455542 -608.159745749,1182.82182574 -590.747215524,1194.22048956 -575.213557866,1204.38538078 -573.319293009,1220.52277583 -567.321082364,1224.46965795 -562.541315119,1220.74375209 "/>
  <polygon class="357279446" points="-657.798680025,1157.17026524 -656.681413221,1160.95158624 -678.959388112,1165.69051605 -680.049851207,1161.81711603 -657.798680025,1157.17026524 "/>
  <polygon class="235713400" points="-682.689318057,1157.17026524 -695.450995823,1162.47965763 -689.951355927,1170.91944769 -687.506028223,1172.67492472 -681.049851207,1171.64987342 -682.204133252,1165.64688002 -682.689318057,1157.17026524 "/>
  <polygon class="164199812" points="-703.857750685,1157.17026524 -707.663761454,1158.88335793 -711.264714423,1160.51048919 -715.166011701,1162.26656315 -708.020792137,1173.054757 -704.125823021,1171.31710195 -700.256009031,1169.59172738 -696.450995823,1167.89091352 -703.857750685,1157.17026524 "/>
  <polygon class="185766659" points="-716.166011701,1159.34283844 -723.14079658,1160.92010226 -730.121344015,1161.8652332 -758.733610442,1164.47354947 -758.970246965,1162.13527063 -730.290110677,1159.6987968 -723.483335592,1158.75366601 -716.985914905,1157.17026524 -716.166011701,1159.34283844 "/>
  <polygon class="383807488" points="-759.970246965,1192.34413939 -764.612652252,1157.17026524 -767.768077655,1157.54478147 -763.165971621,1192.79847178 -759.970246965,1192.34413939 "/>
  <polygon class="57731863" points="-13.797568752,1270.08184251 -14.0486570885,1279.97891724 -0.564577028481,1279.64123776 -0.46297157798,1276.49774927 0.0,1257.06585003 -2.13122662744,1257.13952542 -1.90248298477,1247.45735452 -8.87449259413,1248.25550404 -8.93717372892,1250.26929688 -37.501174486,1251.14726154 -37.6703980154,1257.0167331 -37.7415806387,1260.49789584 -37.8180727819,1263.80715017 -37.8858847297,1266.95063558 -37.9647849037,1270.94138965 -13.797568752,1270.08184251 "/>
  <polygon class="37141493" points="-39.9647849037,1248.3847757 -51.1258100429,1247.45735452 -56.2916810479,1271.05440929 -51.0737882386,1271.49048228 -45.1306221501,1271.98183215 -39.9647849037,1248.3847757 "/>
  <polygon class="13556374" points="-71.7942287113,1284.23869768 -67.9654408369,1283.75384365 -66.5299765867,1291.5053729 -59.2441135939,1289.11178855 -57.2916810479,1293.83144632 -74.6388922571,1298.55724322 -85.9322890591,1253.7297537 -79.1030209057,1252.37953053 -79.4689332431,1248.62959328 -73.3685704926,1247.45735452 -72.9845480212,1260.95345008 -76.2844966055,1261.70221068 -71.7942287113,1284.23869768 "/>
  <polygon class="55686725" points="-97.5323095814,1256.95459617 -103.667565085,1247.45735452 -117.357164096,1252.84137495 -111.432809041,1264.90478118 -106.625412451,1266.64215816 -100.937629045,1266.59918417 -86.9322890591,1262.89728226 -90.1483463635,1254.13673254 -97.5323095814,1256.95459617 "/>
  <polygon class="235020845" points="-135.928780689,1274.90961641 -118.357164096,1264.50218755 -119.081208818,1247.45735452 -137.171901499,1248.93097033 -135.928780689,1274.90961641 "/>
  <polygon class="243123885" points="-138.171901499,1247.45735452 -138.371453396,1266.85395737 -179.588575633,1269.34526627 -179.803751471,1249.41480853 -138.171901499,1247.45735452 "/>
  <polygon class="28607179" points="-298.177556155,1257.18650535 -250.851320237,1264.82865104 -233.504449254,1265.38109548 -215.91046688,1259.9610027 -203.045516367,1256.8918685 -186.586610798,1254.3383494 -186.928689651,1252.36182775 -180.803751471,1251.43494969 -181.322754032,1247.46963105 -192.10437648,1247.88703295 -234.240261827,1247.75812942 -294.714633506,1247.45735452 -298.177556155,1257.18650535 "/>
  <polygon class="211172819" points="-303.220013074,1259.21819075 -303.682688379,1248.16324992 -299.835726421,1247.45735452 -299.177556155,1258.54298588 -303.220013074,1259.21819075 "/>
  <polygon class="234962911" points="-304.682688379,1271.05500464 -307.260112474,1247.45735452 -311.255193358,1247.96674417 -313.436370233,1248.7829951 -315.524060498,1249.93065627 -320.392146647,1250.66712338 -320.650302523,1248.93028851 -321.207203091,1247.89309748 -332.735513534,1252.32417454 -332.167241658,1253.28158197 -330.224456651,1256.72456698 -326.34518509,1263.3343643 -318.693889461,1260.3271209 -318.164451838,1263.34663876 -317.555918711,1266.81417539 -313.547946018,1266.20658926 -313.540223598,1267.34811474 -313.751553105,1268.74740418 -313.243063842,1269.25679467 -313.119430892,1269.80914583 -313.628133552,1270.36149701 -317.980548728,1272.04923688 -319.177289975,1272.51566685 -330.335045456,1276.84241931 -331.333233696,1277.83051475 -331.39116509,1278.83088475 -330.904955926,1280.78866431 -329.914693019,1282.42730761 -327.278434724,1281.35942768 -325.030558307,1280.3774692 -324.789874986,1278.14965119 -308.386147092,1271.53984628 -304.682688379,1271.05500464 "/>
  <polygon class="35608070" points="-400.659526856,1273.37183708 -403.055152433,1271.6527985 -408.971044333,1270.04426974 -419.599556521,1269.36893329 -410.873961857,1267.43501549 -381.199658696,1260.14138524 -364.01149131,1253.92829604 -336.650132006,1247.45735452 -333.735513534,1256.38406217 -358.239098353,1261.98321068 -369.611952911,1264.63543976 -378.535472002,1267.7542654 -380.676952585,1268.42960175 -400.659526856,1273.37183708 "/>
  <polygon class="220285529" points="-420.599556521,1260.55632434 -423.403369809,1263.31109768 -429.515715728,1261.37846153 -439.731157739,1254.50686871 -444.63865304,1249.72743265 -441.098108029,1247.45735452 -436.433670066,1251.96683443 -426.751555546,1258.40281597 -423.033083378,1259.70351044 -420.599556521,1260.55632434 "/>
  <polygon class="231808082" points="-445.63865304,1259.51308142 -457.355077232,1274.3816219 -481.677002593,1264.334147 -467.853714549,1247.45735452 -445.63865304,1259.51308142 "/>
  <polygon class="423164100" points="-502.88873861,1249.25600468 -493.773835457,1302.23342341 -482.677002593,1300.54526362 -492.816201997,1247.45735452 -502.88873861,1249.25600468 "/>
  <polygon class="195420404" points="-514.072298707,1292.13763755 -516.680932732,1291.9104909 -506.496856321,1247.45735452 -503.88873861,1247.69063947 -514.072298707,1292.13763755 "/>
  <polygon class="37247501" points="-517.680932732,1257.91727225 -573.741713854,1247.45735452 -577.636339737,1258.2057795 -521.159877993,1268.72095203 -517.680932732,1257.91727225 "/>
  <polygon class="124018650" points="-580.486396715,1284.14562974 -578.636339737,1287.7856132 -783.779214362,1251.21395413 -786.831643725,1247.45735452 -580.486396715,1284.14562974 "/>
  <polygon class="369965032" points="-19.1865801549,1302.23342341 -24.9332875458,1308.15363544 -4.6641533474,1310.46890581 0.0,1304.30918209 -19.1865801549,1302.23342341 "/>
  <polygon class="231098232" points="-29.9981114584,1302.23342341 -38.2990723946,1304.03230335 -36.7581117045,1310.36829202 -34.8508225779,1317.71116648 -26.9332875458,1313.76345001 -27.029552441,1310.47266395 -29.9981114584,1302.23342341 "/>
  <polygon class="88508633" points="-39.2990723946,1364.6186681 -56.2843515154,1302.23342341 -121.745457364,1315.90435224 -104.760115002,1378.28352088 -39.2990723946,1364.6186681 "/>
  <polygon class="12489751" points="-124.704237752,1302.23342341 -151.099623962,1307.17390672 -150.39821411,1310.71509903 -149.580122861,1314.83933115 -122.745457364,1309.54288448 -124.704237752,1302.23342341 "/>
  <polygon class="308020732" points="-152.099623962,1305.90616434 -156.577470744,1313.17180706 -166.627153507,1309.58504802 -161.494700359,1302.23342341 -152.099623962,1305.90616434 "/>
  <polygon class="304979987" points="-167.627153507,1313.27764098 -175.822137313,1302.23342341 -198.424851933,1313.11188556 -189.965349835,1323.58517659 -167.627153507,1313.27764098 "/>
  <polygon class="41928638" points="-219.78581751,1365.54963864 -255.3366075,1308.99777791 -236.931562963,1302.23342341 -236.241550251,1303.40582942 -217.111946707,1335.91405114 -199.424851933,1363.91685595 -219.78581751,1365.54963864 "/>
  <polygon class="42738871" points="-256.3366075,1311.23011606 -259.973695377,1302.23342341 -310.872460817,1316.70796883 -309.177273153,1320.90847633 -307.240248621,1325.70467148 -256.3366075,1311.23011606 "/>
  <polygon class="107020713" points="-311.872460817,1302.23342341 -312.168000179,1311.80179382 -336.679612292,1312.53876744 -336.384043788,1302.97039649 -311.872460817,1302.23342341 "/>
  <polygon class="133039333" points="-351.496763791,1302.23342341 -355.575628437,1307.32435796 -341.754133887,1313.51454402 -337.679612292,1308.417466 -351.496763791,1302.23342341 "/>
  <polygon class="286807893" points="-356.575628437,1307.90207294 -359.99575636,1310.64120459 -367.609958283,1304.99097851 -364.164147617,1302.23342341 -356.575628437,1307.90207294 "/>
  <polygon class="221033292" points="-368.609958283,1307.48363192 -375.271719172,1318.85602066 -392.135548529,1313.61194816 -390.362582697,1310.59077386 -385.45877003,1302.23342341 -368.609958283,1307.48363192 "/>
  <polygon class="304161251" points="-399.526741952,1331.20634284 -399.062876686,1330.01550547 -393.135548529,1319.00333412 -405.381180814,1315.92803042 -425.345058056,1310.92529242 -452.798883693,1304.03809065 -464.351195449,1302.23342341 -467.351852399,1306.59163384 -413.36228514,1330.58023245 -410.059798256,1326.5473457 -406.87122907,1328.00826952 -399.526741952,1331.20634284 "/>
  <polygon class="268627755" points="-468.351852399,1304.31530911 -472.040077229,1313.7851297 -475.10991293,1313.2078512 -477.099946265,1318.31123963 -485.119880018,1316.80663032 -479.441603281,1302.23342341 -468.351852399,1304.31530911 "/>
  <polygon class="10632316" points="-486.119880018,1303.73695383 -512.915241961,1302.23342341 -516.08030997,1321.95730171 -519.132194859,1321.79774314 -522.766121732,1343.31361963 -528.066677579,1375.31134147 -498.642619065,1376.66145806 -486.119880018,1303.73695383 "/>
  <polygon class="87803058" points="-578.365956156,1319.4345029 -575.662687207,1305.4183522 -575.407470513,1302.23342341 -529.066677579,1305.43676219 -531.43819159,1321.83394179 -578.365956156,1319.4345029 "/>
  <polygon class="374498793" points="-583.542832053,1302.23342341 -608.080310426,1305.29063416 -603.904033562,1338.14648681 -579.365956156,1335.08312932 -583.542832053,1302.23342341 "/>
  <polygon class="237534365" points="-609.080310426,1302.93314226 -609.61228888,1307.62862503 -633.584907235,1307.13145619 -634.497537981,1314.04271864 -639.290015876,1314.14092488 -641.567969013,1336.43989915 -662.478842502,1336.57493297 -657.576041419,1302.23342341 -609.080310426,1302.93314226 "/>
  <polygon class="192675307" points="-664.449835148,1311.60540211 -685.60974969,1311.52556216 -684.848240902,1302.23342341 -663.478842502,1302.23342341 -664.449835148,1311.60540211 "/>
  <polygon class="323562900" points="-686.60974969,1315.87297825 -720.07531835,1302.23342341 -720.450223058,1315.486258 -703.644436886,1316.28425218 -690.610505795,1321.47735396 -686.60974969,1315.87297825 "/>
  <polygon class="36056465" points="-726.802649951,1337.78044683 -726.088913168,1329.72139313 -721.450223058,1302.35627454 -745.251740499,1302.23342341 -750.326408371,1337.68830823 -726.802649951,1337.78044683 "/>
  <polygon class="220871441" points="-752.193648759,1311.83799306 -751.326408371,1302.31325676 -764.984435857,1302.23342341 -765.84736075,1311.76430068 -752.193648759,1311.83799306 "/>
  <polygon class="164752264" points="-771.50072251,1313.24760582 -766.84736075,1308.55353807 -779.558449582,1302.23342341 -783.784106159,1307.3631473 -771.50072251,1313.24760582 "/>
  <polygon class="409588145" points="0.0,1378.28352088 -1.0530343709,1381.07139994 -13.973467145,1383.10397295 -14.611053554,1383.0425659 -15.0190664167,1382.77237491 -15.0447292595,1382.43463618 -13.7447765369,1380.17485727 0.0,1378.28352088 "/>
  <polygon class="24695142" points="-31.0954850831,1418.84018781 -47.8150018252,1425.57816663 -58.149408106,1425.06269271 -59.1325635637,1423.38126604 -50.4805522592,1408.71481643 -53.2070109528,1407.64091387 -44.8943468859,1393.94406166 -56.3577212933,1390.27438778 -54.5387379772,1387.42701612 -60.0110676222,1385.51854108 -58.6593198542,1383.07618435 -58.323280612,1378.28352088 -47.8020856776,1378.57807633 -40.2015507097,1379.77470791 -29.2940081951,1384.52441592 -22.2304267872,1395.9016306 -22.8358755577,1403.59690447 -17.0447292595,1409.96054351 -30.134196298,1416.21372708 -31.0954850831,1418.84018781 "/>
  <polygon class="387407643" points="-66.7593929669,1378.28352088 -80.3833105562,1381.36641562 -89.3440541656,1383.36845523 -95.8316520694,1384.84234961 -90.3018188998,1403.15550128 -61.0110676222,1396.58438085 -66.7593929669,1378.28352088 "/>
  <polygon class="229236035" points="-121.19484588,1443.41350872 -96.8316520694,1384.7019181 -103.369705894,1383.36910234 -112.846081616,1381.43437003 -120.93396816,1379.78217028 -128.270602588,1378.28352088 -152.634029971,1436.99508262 -145.644216991,1438.42003436 -136.943195855,1440.20122426 -127.737781448,1442.08068697 -121.19484588,1443.41350872 "/>
  <polygon class="203194586" points="-153.634029971,1379.39443374 -157.44505735,1389.78546312 -167.254921408,1388.09147312 -164.75111923,1381.26027656 -161.400618095,1381.84335249 -160.093381348,1378.28352088 -153.634029971,1379.39443374 "/>
  <polygon class="195656565" points="-185.131467777,1385.58354272 -181.625645128,1386.30801946 -176.671251072,1387.21668526 -172.399426379,1387.37017611 -168.254921408,1387.24738343 -168.378204047,1383.94426075 -169.490941041,1382.71633432 -170.645944211,1380.99723752 -172.000613225,1378.76241201 -174.707988821,1378.61506089 -179.202038184,1378.28352088 -181.373160478,1379.86140582 -184.283064991,1382.92508181 -185.131467777,1385.58354272 "/>
  <polygon class="89556088" points="-187.208810325,1378.28352088 -186.131467777,1381.48691781 -193.231862791,1383.22362567 -194.372297197,1379.96499733 -187.208810325,1378.28352088 "/>
  <polygon class="383431806" points="-207.126277352,1378.28352088 -210.522974834,1381.38408713 -198.76899199,1388.89912605 -195.372297197,1385.798558 -207.126277352,1378.28352088 "/>
  <polygon class="129803375" points="-211.522974834,1378.28352088 -211.549264257,1380.75793252 -237.518124138,1381.83242904 -237.486499475,1379.35187721 -211.522974834,1378.28352088 "/>
  <polygon class="23943476" points="-238.518124138,1378.28352088 -250.688209779,1378.28352088 -253.051129119,1405.2894908 -251.173267148,1405.17898661 -240.19452614,1405.16056924 -239.797113514,1402.01733914 -238.518124138,1378.28352088 "/>
  <polygon class="59242312" points="-254.051129119,1378.82383873 -323.071776387,1378.37562051 -331.986258928,1378.28352088 -333.169389039,1391.01169618 -255.229801768,1391.55815455 -254.547566177,1384.16561867 -254.051129119,1378.82383873 "/>
  <polygon class="58010249" points="-334.169389039,1380.29051137 -344.242846475,1388.75424534 -348.985944365,1384.93052727 -340.95222037,1378.45537326 -336.830081792,1378.28352088 -334.169389039,1380.29051137 "/>
  <polygon class="188860510" points="-349.985944365,1388.16777297 -356.794209616,1378.28352088 -364.839451193,1382.04456687 -358.265745938,1394.68978828 -352.037632708,1389.78140392 -349.985944365,1388.16777297 "/>
  <polygon class="225700170" points="-365.839451193,1448.55037297 -367.32336808,1435.17348962 -369.127944849,1418.94198931 -370.186884736,1409.38358507 -373.642386007,1378.28352088 -403.829093747,1381.73976199 -403.066873485,1388.62155209 -402.517002363,1393.5634286 -383.942999669,1391.43934231 -381.773573607,1410.98586043 -380.715438144,1420.49515393 -378.905767203,1436.78190717 -377.452278578,1449.88253696 -372.679005399,1449.33002654 -365.839451193,1448.55037297 "/>
  <polygon class="429447286" points="-408.790104994,1381.88102681 -442.447508832,1378.97723781 -449.451874677,1378.28352088 -423.366880898,1412.97555232 -418.19293618,1417.07033547 -416.548377151,1418.05259249 -413.06843664,1418.73403335 -406.736100336,1419.13921441 -405.307522584,1411.57583664 -408.729006906,1411.30571608 -404.829093747,1391.11422068 -410.475279792,1390.76429233 -408.790104994,1381.88102681 "/>
  <polygon class="57899052" points="-461.901035296,1378.72566816 -464.450665888,1523.13668684 -451.955330872,1522.72523966 -451.980500071,1520.80924702 -450.451874677,1378.28352088 -461.901035296,1378.72566816 "/>
  <polygon class="26496257" points="-465.450665888,1378.29580128 -467.807083767,1378.28352088 -469.0292771,1378.28352088 -481.85658241,1378.30194148 -483.112084198,1378.29580128 -484.529629852,1395.45767179 -469.491305418,1395.45767179 -466.873004152,1395.45767179 -465.450665888,1378.29580128 "/>
  <polygon class="52083689" points="-485.573254037,1389.28474157 -495.220076845,1389.73289417 -495.21997338,1389.31543695 -497.338381027,1389.41366218 -499.422983227,1389.51188741 -499.433367512,1392.43408828 -501.949279466,1392.55073076 -504.794585249,1392.67965141 -504.781732365,1389.54872187 -504.744770666,1380.59181194 -504.740153993,1379.16754719 -501.642729387,1379.02634854 -485.529629852,1378.28352088 -485.595870179,1379.63411666 -485.54391899,1381.78893114 -485.543968038,1382.56245438 -485.564180707,1387.62719098 -485.570159146,1388.83044991 -485.573254037,1389.28474157 "/>
  <polygon class="46138157" points="-590.330421896,1378.28352088 -544.309961347,1395.21017041 -524.951808048,1402.02870737 -518.526231674,1405.08508244 -513.46791517,1408.21510585 -505.794585249,1412.18594057 -511.682643043,1419.95576906 -532.204752687,1413.91052295 -598.691107704,1391.90216863 -593.500896814,1383.81321794 -590.330421896,1378.28352088 "/>
  <polygon class="272963957" points="-626.622652312,1378.28352088 -627.139749405,1379.59715389 -627.877529586,1381.48780352 -600.945973969,1386.57046037 -599.691107704,1383.36617647 -626.622652312,1378.28352088 "/>
  <polygon class="272528141" points="-661.296621253,1385.23170288 -661.383477438,1380.18015323 -628.930521068,1378.28352088 -628.877529586,1381.31567758 -633.281239696,1381.56119637 -633.248353253,1383.59286456 -638.797940074,1383.91817702 -661.296621253,1385.23170288 "/>
  <polygon class="387753110" points="-662.383477438,1380.96017911 -683.539463813,1389.17433101 -685.114669758,1386.49767107 -663.958687641,1378.28352088 -662.383477438,1380.96017911 "/>
  <polygon class="46346730" points="-706.711068372,1400.17234295 -704.710464224,1378.48608131 -692.241696506,1378.40014658 -686.114669758,1378.28352088 -687.485031453,1400.17234295 -706.711068372,1400.17234295 "/>
  <polygon class="119255060" points="-710.850783455,1378.28352088 -707.711068372,1390.33647853 -730.407422485,1395.19327716 -733.886174409,1383.33065716 -730.084472725,1382.49560771 -710.850783455,1378.28352088 "/>
  <polygon class="48848043" points="-736.704346935,1386.13809375 -740.267582414,1386.16265849 -740.430277433,1385.19235134 -752.969383866,1382.2200185 -753.295132574,1379.86794567 -760.071304218,1378.28352088 -760.121922286,1381.16373509 -769.040587484,1381.20672336 -769.061691806,1384.4369857 -773.190429202,1384.70105661 -772.843971046,1406.99971493 -777.542581372,1407.14096241 -777.578481484,1413.2268877 -771.623711787,1412.79086268 -760.863361981,1412.14603698 -760.82189221,1414.19105574 -738.485406087,1412.85227465 -734.886174409,1412.7417331 -735.17220271,1402.47365533 -739.692434771,1399.29251805 -736.462524198,1398.13797421 -736.704346935,1386.13809375 "/>
  <polygon class="27807632" points="0.0,1540.78235403 -22.9289540206,1523.13668684 -26.8754660374,1526.16463987 -31.6226606317,1529.83135066 -52.8126763938,1547.69813544 -41.5000330653,1555.01928635 -28.2201059454,1563.41527572 -10.3659415078,1548.67469811 0.0,1540.78235403 "/>
  <polygon class="138265424" points="-54.8126763938,1526.2996351 -64.1840249382,1523.13668684 -71.1560730194,1534.25307148 -61.7847121707,1537.41602244 -54.8126763938,1526.2996351 "/>
  <polygon class="38211989" points="-107.141851627,1523.13668684 -72.1560730194,1552.01846805 -119.927278343,1607.3027718 -148.044199106,1587.64514865 -107.141851627,1523.13668684 "/>
  <polygon class="191192882" points="-151.783249302,1548.16871899 -149.044199106,1546.71322414 -168.821878209,1523.13668684 -171.560419657,1524.58603773 -151.783249302,1548.16871899 "/>
  <polygon class="387222694" points="-180.949023511,1525.1755215 -180.083714172,1523.9288846 -179.526125857,1523.13668684 -174.117760848,1524.89303234 -172.560419657,1527.12224042 -188.884073267,1549.43276554 -200.033741915,1551.17683243 -199.194781649,1550.01616817 -198.405330681,1548.92919698 -191.51516711,1547.39392709 -191.417857183,1546.85351213 -191.361266422,1546.51575279 -191.693051672,1546.14114699 -194.282799835,1545.60687316 -180.881738096,1527.36788321 -178.094055667,1528.43642939 -177.64450056,1528.37501869 -176.971447975,1527.58896173 -177.359614704,1526.36688888 -180.949023511,1525.1755215 "/>
  <polygon class="23971965" points="-204.528884704,1523.13668684 -221.833142215,1527.89082497 -218.3375084,1536.96914524 -201.033741915,1532.2211461 -204.528884704,1523.13668684 "/>
  <polygon class="269389799" points="-222.833142215,1526.45283747 -224.052899857,1530.10674517 -224.549137756,1530.86209093 -225.528745921,1531.50075729 -245.95029228,1546.98842615 -259.46273151,1546.84104143 -227.243262726,1523.28407129 -226.405040036,1523.13668684 -225.627110709,1523.13668684 -225.033553974,1523.62182734 -224.928513936,1524.11310888 -224.899234533,1524.94214652 -225.293425987,1526.22561972 -222.833142215,1526.45283747 "/>
  <polygon class="51112220" points="-260.46273151,1528.28943294 -270.97778443,1523.13668684 -279.814316614,1533.34391649 -269.299252932,1538.49666663 -263.829642093,1532.17702461 -260.46273151,1528.28943294 "/>
  <polygon class="363338060" points="-280.814316614,1528.78183802 -302.421326822,1523.24725561 -303.770687638,1523.13668684 -304.39063042,1523.74481509 -306.639581288,1527.67614989 -282.900082117,1533.32130303 -280.814316614,1528.78183802 "/>
  <polygon class="317966078" points="-307.639581288,1526.07658207 -312.81815885,1523.13668684 -359.728882791,1570.54948383 -351.663541281,1575.1281269 -322.317099037,1545.46517719 -325.199006515,1543.8264439 -307.639581288,1526.07658207 "/>
  <polygon class="381646556" points="-361.516097675,1523.13668684 -377.690896634,1525.44510228 -377.278152038,1528.20169467 -381.460857725,1528.91386563 -381.009475469,1531.67045875 -360.728882791,1528.52708312 -361.214317645,1525.18110794 -361.516097675,1523.13668684 "/>
  <polygon class="378270185" points="-383.194457896,1528.19569554 -393.74493946,1532.05748871 -402.558059868,1535.28690645 -406.554697321,1536.7911032 -403.186483948,1542.97366066 -409.894350077,1545.61982071 -416.12131258,1534.23089904 -405.117053396,1530.60854869 -405.025037127,1530.84185258 -397.8524992,1528.18341639 -397.631455392,1528.55179089 -395.504485882,1527.82118148 -395.757332003,1527.42824871 -386.033104953,1523.98394787 -386.240473665,1523.56645692 -385.060629829,1523.13668684 -384.299334044,1524.51809072 -384.64132579,1524.68385919 -383.798865978,1526.37224194 -383.345093082,1526.13893813 -382.460857725,1527.90713553 -383.194457896,1528.19569554 "/>
  <polygon class="9871851" points="-426.945961339,1523.13668684 -424.700576183,1526.27277358 -420.855515977,1524.27819778 -420.529420599,1524.720073 -417.12131258,1529.3474895 -419.706941763,1530.57492121 -437.915551385,1539.20376942 -441.533254271,1533.88898741 -440.373339308,1533.33664298 -442.169796664,1530.55650973 -426.945961339,1523.13668684 "/>
  <polygon class="257176874" points="-443.169796664,1525.53617509 -450.408239199,1535.10958536 -456.181154253,1532.70395852 -448.943209157,1523.13668684 -443.169796664,1525.53617509 "/>
  <polygon class="135742626" points="-565.888374158,1523.13668684 -481.548143941,1578.80390584 -457.181154253,1594.37824671 -468.762134194,1604.53196581 -581.037206193,1535.72747603 -565.888374158,1523.13668684 "/>
  <polygon class="59307638" points="-610.790402757,1536.25179957 -609.213690734,1538.35070981 -582.037206193,1525.33378949 -583.861764267,1523.13668684 -610.790402757,1536.25179957 "/>
  <polygon class="339201159" points="-672.921641413,1576.05370381 -679.712497033,1567.68027745 -677.108827737,1566.48933601 -687.934482149,1552.53568501 -711.834745519,1523.13668684 -715.212011524,1524.63456695 -717.825540089,1528.07232522 -705.906283593,1541.58395185 -697.794351407,1552.64004574 -657.160870381,1600.11198753 -615.239068273,1650.32205811 -611.790402757,1648.54177351 -656.612310975,1595.58762711 -672.921641413,1576.05370381 "/>
  <polygon class="94216009" points="-727.859875996,1605.00123978 -740.542825013,1604.91529892 -737.565885723,1523.13668684 -718.825540089,1523.25332013 -727.859875996,1605.00123978 "/>
  <polygon class="310096355" points="-763.181080978,1523.13668684 -766.857181623,1526.87662633 -772.774133738,1532.88878089 -779.994664594,1529.15498079 -780.589999684,1529.8120804 -783.356695378,1532.894922 -755.261542562,1547.4125365 -753.183646346,1545.29998922 -751.108003997,1543.27341803 -753.818587221,1542.45050739 -741.542825013,1528.93390056 -751.395583805,1523.83677395 -755.147881779,1527.79779385 -763.181080978,1523.13668684 "/>
  <polygon class="31985120" points="-49.702245334,1666.90979813 -48.8421770635,1667.96571716 -62.4037994098,1674.93355712 -71.0538869013,1679.48260708 -70.7663246751,1679.86322942 -58.8662093488,1694.59700586 -15.2663060385,1671.8885799 0.0,1664.33139155 -10.6638723034,1651.2490556 -13.068522389,1652.48300601 -14.8329339978,1650.32205811 -38.639113213,1662.55720256 -39.407319041,1661.61792613 -49.702245334,1666.90979813 "/>
  <polygon class="71240597" points="-73.0538869013,1664.0215032 -79.6014857378,1668.83963587 -77.0057905663,1670.79144044 -93.6650877685,1683.95692238 -96.3899996674,1686.55933158 -90.4202084184,1690.80052318 -94.0418448254,1695.3792931 -112.018267043,1689.79393055 -99.6729213435,1650.83762836 -91.6261935386,1650.32205811 -74.8693565283,1662.56071939 -73.0538869013,1664.0215032 "/>
  <polygon class="391126575" points="-123.402393912,1667.25121534 -121.29330853,1664.1882516 -120.829255407,1663.53146388 -116.213344578,1665.24402259 -113.018267043,1666.44097236 -113.474668814,1667.12231304 -125.093792248,1683.99624835 -126.995329454,1685.168647 -172.79647512,1667.9755235 -171.020377569,1665.50182714 -171.642473849,1665.25629899 -162.536458687,1652.55022365 -161.919191526,1652.79575156 -160.143098668,1650.32205811 -141.811880318,1657.1968401 -143.526705386,1659.68894947 -123.402393912,1667.25121534 "/>
  <polygon class="89470277" points="-173.79647512,1658.00456725 -190.28203293,1662.54534957 -247.907778392,1678.83695337 -249.784315648,1673.70709021 -195.510722435,1658.52614352 -196.555299906,1655.81394716 -177.155214722,1650.32205811 -175.611654039,1653.84423026 -173.79647512,1658.00456725 "/>
  <polygon class="295819546" points="-253.543813665,1650.34661166 -271.701672292,1650.32205811 -272.091378903,1654.91971286 -285.546819645,1654.90129768 -285.704888708,1656.75509218 -286.079379545,1661.16859737 -284.437696361,1661.16859737 -287.853495602,1701.3812849 -281.306550923,1701.38742332 -279.780743505,1701.38742332 -277.948671725,1679.86616177 -253.200361955,1679.89685379 -250.784315648,1651.42696831 -253.632607917,1651.42082992 -253.543813665,1650.34661166 "/>
  <polygon class="41319991" points="-298.148009944,1650.96690632 -294.775033916,1650.32205811 -288.853495602,1654.22799634 -332.261855306,1689.28323025 -337.087959698,1686.04055574 -336.491098087,1683.43044901 -298.148009944,1650.96690632 "/>
  <polygon class="169831978" points="-349.440384175,1651.18138242 -344.978569423,1652.82637485 -342.577051784,1653.74707966 -338.087959698,1655.47186684 -339.536138182,1657.59562647 -353.234477578,1677.45832007 -355.110732959,1680.15292146 -362.038168538,1677.54425268 -366.506641833,1675.86242885 -361.748684064,1668.98168474 -364.87747694,1667.80318121 -366.128931266,1667.34282829 -369.907785895,1672.81796 -368.760540536,1673.25376094 -370.593348601,1675.94836145 -369.412306557,1676.3841625 -371.34155196,1679.19538651 -372.423714295,1678.79027559 -374.281667612,1681.49715334 -374.226239763,1681.52784357 -374.822231965,1682.38103192 -374.743667363,1682.42399824 -378.70073143,1688.07100169 -382.55329212,1686.59173207 -384.383408343,1689.19426462 -390.427946324,1686.94773885 -374.672849654,1664.13263444 -374.040131879,1664.36587985 -364.399747089,1650.32205811 -359.771653074,1652.05912089 -363.626621878,1657.63859271 -363.834254305,1659.52910735 -360.185609468,1660.90402727 -363.000528611,1665.04106397 -359.843771997,1666.23184333 -349.440384175,1651.18138242 "/>
  <polygon class="24951307" points="-515.606788285,1650.32205811 -391.427946324,1659.99612646 -393.292761934,1669.28348442 -394.751532899,1674.28012259 -451.991240675,1669.79910793 -470.375370106,1674.69753226 -505.480249823,1671.90457079 -512.940367474,1674.48882742 -529.18312659,1673.37164278 -524.593567311,1653.15184512 -515.606788285,1650.32205811 "/>
  <polygon class="188137360" points="-530.18312659,1650.69641889 -530.843703887,1654.66096158 -538.236802752,1654.28660069 -537.576221693,1650.32205811 -530.18312659,1650.69641889 "/>
  <polygon class="201855210" points="-539.236802752,1650.32205811 -544.074175162,1650.32205811 -544.784534533,1659.20959773 -539.946656109,1659.20345992 -539.236802752,1650.32205811 "/>
  <polygon class="387222698" points="-548.056625955,1650.32205811 -574.863348115,1671.31232298 -578.503335279,1673.75648124 -587.407674864,1680.37044949 -587.53096283,1683.29975683 -585.706667666,1683.38573232 -545.784534533,1651.25550392 -548.056625955,1650.32205811 "/>
  <polygon class="266137442" points="-592.270172721,1650.84997065 -589.021068707,1650.32205811 -588.53096283,1652.19430619 -591.794054742,1652.71608029 -592.270172721,1650.84997065 "/>
  <polygon class="114664377" points="-596.729654587,1666.23522677 -608.219428607,1657.33588767 -614.490298874,1653.14110123 -616.877134004,1654.60282754 -617.799810476,1654.36330095 -617.244180367,1651.31087273 -624.610076122,1650.32205811 -624.837999013,1653.09196758 -626.28507512,1652.99984198 -626.064732319,1650.32205811 -629.712159562,1650.36505004 -630.07161151,1652.61905616 -636.92289819,1652.18913671 -637.570138609,1652.36110449 -632.945511227,1673.80181938 -631.982390878,1678.24842292 -593.50332772,1671.48639244 -593.270172721,1669.00513962 -595.10283954,1667.54955342 -596.729654587,1666.23522677 "/>
  <polygon class="409220216" points="-638.570138609,1653.16471304 -640.963717309,1650.32205811 -643.08534285,1651.45175243 -640.696089101,1654.28826797 -638.570138609,1653.16471304 "/>
  <polygon class="240440585" points="-649.525079491,1650.32205811 -646.680579933,1659.63524324 -644.08534285,1668.27312099 -662.732227031,1672.48462566 -663.560452841,1669.84476106 -668.250209515,1654.72387252 -663.719066453,1653.82140836 -649.525079491,1650.32205811 "/>
  <polygon class="171871706" points="-676.401887419,1659.06132507 -669.250209515,1653.44585439 -671.068937503,1650.32205811 -681.057134287,1653.97978429 -691.669673494,1659.59525519 -692.497646273,1662.62085965 -690.461865002,1665.92263572 -685.215490508,1663.87283412 -676.401887419,1659.06132507 "/>
  <polygon class="126197578" points="-705.47590939,1650.32205811 -708.628432716,1674.1254909 -697.688109696,1673.94748673 -693.497646273,1650.38343874 -705.47590939,1650.32205811 "/>
  <polygon class="229520910" points="-729.242489724,1677.75139813 -737.617450761,1671.57887032 -741.092886545,1669.01159096 -738.135626733,1666.62242473 -746.903388092,1660.16737884 -734.703091396,1650.32205811 -709.628432716,1668.80276921 -712.78172758,1671.34548126 -721.596364171,1678.46384928 -729.242489724,1677.75139813 "/>
  <polygon class="378775172" points="-756.902535547,1650.32205811 -760.015734059,1651.56184933 -760.437389095,1652.70957696 -755.261734616,1661.54155927 -768.08809216,1666.6418937 -765.214122588,1674.92763986 -749.002550885,1668.32973045 -750.927698056,1665.11363444 -747.903388092,1663.89839226 -756.902535547,1650.32205811 "/>
  <polygon class="24952408" points="-117.762264435,1785.94418876 -97.2085596794,1771.24369512 -93.2393466548,1768.15628668 -67.2709457595,1747.97459719 -50.9964172964,1735.3058155 -7.20869170977,1701.38742332 0.0,1708.78366303 -108.897745135,1793.40185685 -117.762264435,1785.94418876 "/>
  <polygon class="410758082" points="-158.929886239,1725.36982011 -151.035641508,1731.26562736 -147.314541417,1728.15190382 -140.129288534,1733.26774585 -142.845675117,1735.56465516 -132.414974054,1741.76139916 -126.590930919,1741.63242825 -119.762264435,1739.10214196 -133.302077594,1730.87257346 -135.775600343,1732.15614014 -145.770228674,1726.18049345 -141.318575228,1722.29294676 -156.190418326,1712.39905355 -171.279504402,1701.38742332 -175.000951125,1704.32917973 -181.180897996,1709.07652498 -158.929886239,1725.36982011 "/>
  <polygon class="376556841" points="-186.984018209,1701.38742332 -182.180897996,1702.8108023 -185.58694582,1709.6884245 -196.937081068,1730.00841455 -202.544125377,1728.50527409 -186.984018209,1701.38742332 "/>
  <polygon class="268629258" points="-203.544125377,1701.38742332 -204.583707415,1704.41940416 -207.660587998,1708.57456934 -208.055954558,1710.75342311 -238.066500825,1721.65383508 -239.49395581,1717.44342711 -229.789774764,1714.18435133 -230.460649913,1710.40357896 -203.544125377,1701.38742332 "/>
  <polygon class="385207007" points="-256.463394195,1720.34098869 -240.49395581,1714.22158647 -247.825176843,1701.47335263 -249.512600274,1701.38742332 -250.719531646,1701.38742332 -261.514797759,1705.41996388 -260.407048421,1707.72778066 -258.180410743,1711.74190976 -257.867581104,1712.33727764 -260.53724073,1713.38684376 -256.463394195,1720.34098869 "/>
  <polygon class="186002318" points="-285.950012763,1701.38742332 -274.588359265,1724.89319021 -269.919547287,1723.35846921 -262.514797759,1738.68113182 -268.166200658,1740.54121589 -269.69192942,1737.3858259 -279.233046274,1740.52279922 -286.861369683,1724.44505166 -282.275803157,1722.98399731 -285.80970773,1715.3595063 -290.400100223,1716.82055979 -296.10635774,1704.72697078 -285.950012763,1701.38742332 "/>
  <polygon class="52083813" points="-297.10635774,1726.67425777 -297.168503397,1716.26238697 -299.74107768,1716.06593666 -304.189343915,1709.65060779 -315.108519989,1701.38742332 -323.567464215,1708.85252882 -307.838110283,1727.22063566 -303.794966196,1727.03032426 -298.826580332,1726.86456917 -297.10635774,1726.67425777 "/>
  <polygon class="94119290" points="-324.567464215,1701.39970014 -344.995821612,1701.38742332 -349.632626686,1757.06290599 -329.20361861,1757.06904442 -324.567464215,1701.39970014 "/>
  <polygon class="23886298" points="-350.632626686,1727.32188262 -377.438274072,1701.38742332 -382.149463314,1704.27720789 -386.765945751,1707.13018056 -360.570462293,1733.2671209 -355.986474087,1730.45709049 -350.632626686,1727.32188262 "/>
  <polygon class="221826634" points="-427.126366436,1736.01629474 -422.990668456,1736.67963692 -419.708972936,1737.20785386 -420.905262126,1740.57984389 -391.028697966,1745.70846429 -387.765945751,1736.96831361 -397.518148472,1734.84316191 -398.780160325,1737.9571849 -403.372898051,1736.85775658 -403.0458987,1735.88116949 -399.509469226,1736.66121074 -389.542870721,1709.15710712 -407.356687921,1705.97552853 -405.904244539,1702.60354743 -408.844012954,1702.14903639 -413.696567927,1701.38742332 -427.126366436,1736.01629474 "/>
  <polygon class="56897527" points="-430.152817575,1701.38742332 -428.126366436,1706.61996938 -450.429696203,1713.02554213 -452.658898773,1707.4920606 -430.152817575,1701.38742332 "/>
  <polygon class="81246312" points="-453.658898773,1718.65892553 -473.78136515,1727.87449322 -487.035247582,1709.69492096 -467.465397643,1701.38742332 -453.658898773,1718.65892553 "/>
  <polygon class="229181425" points="-488.035247582,1772.55058857 -528.861825299,1701.38742332 -576.499311067,1718.28303565 -543.626335596,1773.92631942 -532.098811768,1782.57991546 -508.86170998,1773.6499449 -505.542739343,1778.59397874 -488.035247582,1772.55058857 "/>
  <polygon class="305264867" points="-587.38520828,1704.17444798 -586.456020588,1706.23095335 -577.499311067,1703.45006707 -578.428001931,1701.38742332 -587.38520828,1704.17444798 "/>
  <polygon class="301971812" points="-588.38520828,1718.59586454 -603.998140209,1701.38742332 -611.15663756,1705.27973375 -595.874935576,1722.88109534 -588.38520828,1718.59586454 "/>
  <polygon class="163952861" points="-612.15663756,1702.52972104 -617.078234904,1701.38742332 -629.877928162,1729.04211087 -624.956313716,1730.18441102 -621.885405028,1723.54556048 -612.15663756,1702.52972104 "/>
  <polygon class="249629288" points="-630.877928162,1703.92947769 -635.609451276,1704.850512 -636.244140639,1702.30845745 -631.512618836,1701.38742332 -630.877928162,1703.92947769 "/>
  <polygon class="201855229" points="-637.466070101,1704.16784579 -637.244140639,1701.38742332 -652.128976614,1701.39969891 -652.4244964,1705.08237782 -648.489409044,1705.07624002 -648.416324976,1704.18012139 -637.466070101,1704.16784579 "/>
  <polygon class="301971814" points="-676.332258923,1701.38742332 -674.101079758,1703.837017 -667.30701446,1711.37612027 -660.848791067,1718.35040864 -654.573585593,1725.3185614 -653.4244964,1726.57712684 -683.396076162,1743.69362891 -690.984660572,1735.28885875 -706.249423579,1718.36882665 -676.332258923,1701.38742332 "/>
  <polygon class="230102150" points="-722.044819347,1741.6132761 -732.484596078,1739.68577168 -721.478491077,1711.19066022 -717.694484763,1701.38742332 -707.249423579,1703.3087835 -722.044819347,1741.6132761 "/>
  <polygon class="300133602" points="-747.331585121,1709.09747196 -746.959959088,1701.48564047 -733.484596078,1701.38742332 -733.70430476,1708.79668176 -747.331585121,1709.09747196 "/>
  <polygon class="71536021" points="-758.855457983,1701.38742332 -778.635101306,1709.07740279 -781.267850957,1710.10232458 -780.517190684,1711.36659948 -782.641473224,1712.19512921 -773.168215567,1728.2256557 -772.862962928,1728.74118598 -748.331585121,1719.20387916 -758.855457983,1701.38742332 "/>
  <polygon class="279589888" points="-10.8117243185,1811.00002732 0.0,1803.22023304 -11.7254347491,1793.40185685 -16.8522739631,1797.15973354 -18.7184994017,1798.52288515 -22.4913876653,1801.21234687 -10.8117243185,1811.00002732 "/>
  <polygon class="445351108" points="-64.8026357012,1839.28801431 -42.5837068254,1843.88769292 -24.4913876653,1797.31986023 -46.66433235,1793.40185685 -64.8026357012,1839.28801431 "/>
  <polygon class="108197543" points="-65.8026357012,1793.40185685 -120.71279343,1795.00392234 -133.493830633,1797.70472284 -132.183727706,1805.51863292 -86.2087839436,1799.11036696 -83.2201418581,1816.63489492 -86.796201046,1825.64576477 -93.4806108709,1836.2587115 -95.4572224519,1846.27012266 -94.5253840813,1853.98585072 -90.0984306134,1860.09337142 -83.2233349169,1869.60760539 -65.8026357012,1793.40185685 "/>
  <polygon class="384850021" points="-135.246642135,1793.40185685 -161.807625646,1796.12736976 -161.054840619,1804.48192981 -134.493830633,1801.75641514 -135.246642135,1793.40185685 "/>
  <polygon class="98922081" points="-198.619085628,1816.4538545 -207.923677065,1809.18105527 -174.299319886,1795.54993796 -168.719729513,1793.40185685 -162.807625646,1800.90173016 -198.619085628,1816.4538545 "/>
  <polygon class="316894762" points="-234.289189513,1796.72917919 -222.607162569,1794.3718142 -217.708062867,1793.40185685 -215.23956165,1800.98962638 -213.165179569,1800.48623053 -211.584196121,1809.06237958 -212.706221059,1811.43816419 -208.923677065,1812.36515003 -216.986785995,1814.17001007 -220.244444451,1814.85143688 -222.039630736,1815.18908081 -228.774483764,1816.63788032 -228.829806574,1816.42915496 -240.900814517,1818.70057821 -238.920649763,1825.88318949 -240.389065611,1828.00727872 -252.788368382,1823.4460124 -254.512668936,1822.80141904 -256.353672746,1822.10771384 -264.169298325,1823.83890742 -267.954359677,1810.22264643 -269.446551089,1804.8633195 -269.640577234,1804.1082255 -266.805280102,1803.5127449 -258.011446274,1801.68946942 -246.260081227,1799.25229688 -234.289189513,1796.72917919 "/>
  <polygon class="326624302" points="-389.748055369,1840.07284129 -392.78219665,1834.01947866 -272.902990602,1793.40185685 -270.640577234,1798.14753071 -328.531080889,1818.38266149 -389.748055369,1840.07284129 "/>
  <polygon class="396599926" points="-394.68693499,1793.40185685 -405.736421959,1795.83990902 -404.826359838,1798.93506911 -393.78219665,1796.50315755 -394.68693499,1793.40185685 "/>
  <polygon class="24740722" points="-406.736421959,1809.52080096 -421.692022663,1821.10534577 -443.626280253,1805.77791529 -428.312218053,1793.40185685 -406.736421959,1809.52080096 "/>
  <polygon class="422151188" points="-445.980962872,1812.17026775 -444.626280253,1810.22955385 -488.81765796,1793.40185685 -490.17284476,1795.34870973 -445.980962872,1812.17026775 "/>
  <polygon class="55502655" points="-537.56792714,1815.6077918 -518.81983084,1813.36693681 -518.650925121,1814.90790828 -518.519764312,1816.14191346 -491.17284476,1813.04769175 -492.548858466,1799.42452995 -493.112429788,1795.0840303 -508.053090972,1796.77234328 -508.362137456,1793.92983827 -527.919067749,1796.1399933 -528.217302405,1793.40185685 -539.911357757,1794.72181045 -539.775873164,1795.96195302 -539.34309563,1797.11000591 -537.56792714,1815.6077918 "/>
  <polygon class="199611931" points="-545.623691504,1808.15661751 -540.911357757,1794.96145207 -550.256801823,1793.40185685 -554.234226848,1793.95446931 -558.535081903,1806.25317262 -545.623691504,1808.15661751 "/>
  <polygon class="229236036" points="-587.039153474,1829.68866771 -581.543601368,1830.76351555 -581.706293837,1831.16274476 -576.989125058,1832.12089493 -576.814289819,1831.69095575 -574.877926212,1832.07175903 -573.922164401,1828.49098023 -569.804270618,1819.08145985 -559.535081903,1794.52583746 -563.2242537,1793.82565281 -565.316632074,1793.40185685 -566.190444124,1795.36728749 -572.161742503,1793.89935645 -583.050466684,1820.86263486 -614.463247458,1814.24157864 -616.354004118,1818.68837299 -618.237947108,1823.11060091 -614.433749431,1824.0626085 -614.609577498,1824.50483141 -609.891921605,1825.45683911 -609.711756082,1825.02075815 -587.039153474,1829.68866771 "/>
  <polygon class="26285205" points="-655.11389037,1793.40185685 -638.500209308,1796.19587795 -619.237947108,1800.51279525 -640.910021992,1841.02925244 -656.016137506,1838.76332418 -647.55767706,1824.26507707 -664.576548373,1818.98405926 -666.146908541,1818.57263122 -669.337058269,1817.645383 -655.11389037,1793.40185685 "/>
  <polygon class="56647273" points="0.0,1881.26329289 -78.2183196865,1871.37529192 -95.1457746482,1869.60760539 -109.876060892,1873.54807361 -142.185684858,1900.06954281 -134.245531964,1908.18373611 -116.82662914,1891.39067603 -118.699125733,1889.53705743 -110.057886999,1881.98141616 -107.366320893,1883.91482517 -101.825717807,1881.01778067 -96.6622375765,1879.7349794 -91.3083954825,1879.97435379 -2.54956854475,1891.63005064 -1.12288910374,1885.82368323 0.0,1881.26329289 "/>
  <polygon class="254302023" points="-161.352145768,1872.25392031 -163.673767389,1869.60760539 -181.45443223,1878.81752042 -180.924585872,1889.27385186 -177.432650817,1889.0466737 -177.272804398,1892.19032866 -150.934944034,1890.64920084 -144.185684858,1887.37046736 -144.889137449,1886.35737572 -150.897100069,1878.99557884 -154.383975758,1880.79458303 -161.352145768,1872.25392031 "/>
  <polygon class="67562220" points="-182.795006098,1881.24238471 -187.077686815,1881.34062036 -186.77449152,1869.60760539 -184.185510483,1869.60760539 -184.273711859,1875.52629922 -182.45443223,1875.42806361 -182.795006098,1881.24238471 "/>
  <polygon class="109938760" points="-225.404492936,1869.60760539 -215.393764312,1875.06525554 -203.904555774,1883.00310176 -188.077686815,1898.63324473 -206.772135165,1911.84459786 -210.898281328,1908.07518626 -226.034767023,1894.22537061 -230.013889309,1885.80866806 -230.909215466,1871.37566278 -225.404492936,1869.60760539 "/>
  <polygon class="270646325" points="-232.412529692,1878.94734016 -231.909215466,1875.32443107 -260.555722419,1869.60760539 -262.065197962,1872.83137896 -232.412529692,1878.94734016 "/>
  <polygon class="126095395" points="-309.142127025,1876.96121023 -305.805939233,1873.73863664 -263.065197962,1869.60760539 -265.75307376,1872.45574567 -309.142127025,1876.96121023 "/>
  <polygon class="390545053" points="-310.593688359,1897.04210695 -314.659261511,1897.0359681 -314.585489743,1895.54422709 -315.332601735,1892.81243845 -316.801206617,1889.63251443 -313.197468936,1888.31880087 -323.932195133,1869.60760539 -327.91789161,1871.22212021 -331.723829376,1872.64633117 -320.048943898,1893.20532487 -319.160419736,1894.74003757 -318.984131475,1896.71674778 -323.005238199,1896.69833123 -322.716313946,1917.42311238 -310.691629461,1917.18369677 -310.142127025,1912.00249847 -310.328059685,1905.89433488 -310.593688359,1897.04210695 "/>
  <polygon class="220986134" points="-336.216269421,1871.03835945 -334.978172795,1871.43749687 -336.241212693,1873.53757398 -332.723829376,1874.6612996 -339.010870308,1885.1125665 -347.782847039,1882.30632068 -346.822235037,1880.7159103 -343.636467912,1875.41659064 -342.362261908,1873.29809149 -342.828547564,1873.15071765 -340.699039358,1869.60760539 -338.095405151,1870.44272362 -336.216269421,1871.03835945 "/>
  <polygon class="128504903" points="-348.782847039,1869.79788333 -359.751064687,1869.60760539 -364.004398383,1887.66560795 -377.704954982,1902.96766725 -367.600251179,1907.20289746 -353.166184135,1891.01082194 -348.782847039,1869.79788333 "/>
  <polygon class="213966209" points="-389.299040303,1869.60760539 -393.323121392,1871.16095533 -379.649073901,1874.31677355 -378.704954982,1872.0880536 -389.299040303,1869.60760539 "/>
  <polygon class="53576377" points="-394.323121392,1879.4409561 -403.842069661,1893.99457439 -431.775759532,1884.1673508 -422.25626159,1869.60760539 -395.702950905,1878.95604038 -394.323121392,1879.4409561 "/>
  <polygon class="36336448" points="-474.239100873,1871.92336614 -475.189226401,1880.80557164 -445.139487973,1880.89771073 -432.775759532,1877.64827245 -436.115791097,1871.4688136 -437.119616172,1869.60760539 -446.570344666,1871.92950874 -474.239100873,1871.92336614 "/>
  <polygon class="47325751" points="-476.189226401,1874.9791877 -491.190899741,1871.09937031 -496.720761383,1871.57820847 -499.669986314,1869.60760539 -504.935560058,1873.18047475 -508.285089749,1876.64898289 -511.147778256,1881.25319866 -513.574696904,1885.96177835 -522.076636404,1902.68430988 -522.745314078,1905.43456677 -522.617166308,1911.32183738 -520.348242835,1917.54675415 -517.659680484,1920.64079674 -512.125841261,1923.60592158 -501.429942056,1926.04309509 -494.529561596,1910.36415814 -476.189226401,1874.9791877 "/>
  <polygon class="380426919" points="-523.745314078,1869.60760539 -692.003346445,1907.68315066 -691.593332748,1907.68928991 -687.755210108,1908.3584677 -526.912653991,1871.90981593 -523.745314078,1869.60760539 "/>
  <polygon class="314409367" points="-704.732626478,1869.60760539 -693.003346445,1878.314156 -725.860952599,1905.54440656 -730.235343949,1902.42133073 -717.530926886,1891.92927407 -726.261314885,1885.45610888 -704.732626478,1869.60760539 "/>
  <polygon class="155846070" points="-755.035066618,1869.60760539 -764.966050191,1876.8420642 -734.184974671,1890.29767697 -732.829492952,1888.79919635 -731.235343949,1887.04278077 -755.035066618,1869.60760539 "/>
  <polygon class="27066332" points="-768.297758398,1869.60760539 -765.966050191,1890.11837598 -767.66609075,1890.05082548 -789.154500782,1889.19109194 -788.972547586,1882.12899713 -789.845105698,1875.3739535 -768.297758398,1869.60760539 "/>
  <polygon class="37247513" points="0.0,1941.24187841 -4.28044643928,1952.57959311 -84.5818697913,1937.43604247 -80.0795403139,1926.04309509 0.0,1941.24187841 "/>
  <polygon class="435776216" points="-103.470673159,1926.04309509 -86.5818697913,1931.25931615 -88.5661881479,1931.92208321 -102.527897123,1927.5097735 -103.470673159,1926.04309509 "/>
  <polygon class="257176876" points="-104.470673159,1928.57145537 -110.441041515,1926.04309509 -117.20198798,1934.85553743 -111.231110334,1937.37776263 -104.470673159,1928.57145537 "/>
  <polygon class="31240485" points="-136.759927268,1935.41573582 -128.779659615,1935.52629125 -128.540767578,1933.19848534 -118.923556994,1933.32746666 -118.20198798,1926.2826317 -135.799448211,1926.04309509 -136.759927268,1935.41573582 "/>
  <polygon class="34295402" points="-150.581284221,1965.50474018 -137.759927268,1939.71869901 -141.406233521,1938.79798913 -140.161139524,1936.29365861 -180.689982107,1926.04309509 -194.756588041,1954.33344252 -191.88584167,1955.05773516 -156.034370141,1964.12981072 -150.581284221,1965.50474018 "/>
  <polygon class="312744211" points="-228.284309947,1926.44827132 -220.978267091,1926.04309509 -220.854202452,1928.89774605 -220.862029294,1933.18893223 -217.602373549,1933.07229053 -217.365035785,1936.31370246 -195.756588041,1934.98767021 -195.75956736,1939.75156448 -237.918489617,1948.42603111 -242.667281392,1942.00459241 -235.906622287,1941.65466707 -235.69734775,1929.93524301 -233.926813816,1928.48029168 -228.243602672,1928.13650573 -228.284309947,1926.44827132 "/>
  <polygon class="126197311" points="-243.667281392,1926.04309509 -271.9015437,1926.51572784 -272.468983914,1937.2266954 -244.234683628,1936.75406226 -243.667281392,1926.04309509 "/>
  <polygon class="133090797" points="-301.899245995,1926.04309509 -332.350082242,1936.07222838 -315.119952488,1970.06331451 -309.534540269,1980.12317098 -278.168580406,1969.06285332 -273.468983914,1968.27107733 -274.387493712,1966.52180498 -279.563834406,1956.12438051 -286.173699829,1958.30943478 -301.899245995,1926.04309509 "/>
  <polygon class="395577877" points="-333.350082242,1926.04309509 -346.406008768,1926.56511864 -346.50107971,1933.11805141 -333.440310181,1932.59602759 -333.350082242,1926.04309509 "/>
  <polygon class="303254201" points="-347.968887356,1926.04309509 -347.50107971,1932.65457612 -354.530796988,1933.29301087 -354.998599039,1926.68152951 -347.968887356,1926.04309509 "/>
  <polygon class="201855225" points="-359.947024067,1931.10063434 -359.539359512,1926.04309509 -362.928906292,1926.04923288 -364.266896964,1942.75016796 -356.875170356,1942.74403016 -355.998599039,1931.81875597 -359.947024067,1931.10063434 "/>
  <polygon class="219917210" points="-378.99632005,1926.04309509 -390.723592936,1930.09601553 -390.398671139,1930.73465765 -399.272727836,1933.80505292 -399.985117251,1934.06910694 -401.685458234,1934.65862293 -402.361293335,1933.34449358 -428.358895618,1942.59866896 -433.671829748,1947.56657339 -430.68362837,1949.6176 -425.641068247,1945.12253611 -407.268669508,1957.20762942 -400.044335628,1951.31246055 -397.725761073,1952.62659172 -380.665213479,1963.85197921 -365.266896964,1950.1272863 -379.391168445,1941.4134955 -383.525900545,1942.82587839 -385.518597986,1938.87120669 -381.294401976,1937.42812026 -381.858824534,1935.45692587 -375.2791964,1933.44888703 -378.99632005,1926.04309509 "/>
  <polygon class="42275708" points="-473.817389835,1954.9705022 -435.199481155,1931.31043224 -434.671829748,1926.04309509 -455.00838876,1938.27829994 -458.211688769,1936.98295156 -478.485661416,1949.27955771 -473.817389835,1954.9705022 "/>
  <polygon class="358711502" points="-496.225532546,1940.18446644 -500.734142292,1932.30973387 -486.183253208,1926.88396613 -483.92669443,1926.04309509 -479.485661416,1933.91782384 -496.225532546,1940.18446644 "/>
  <polygon class="300455171" points="-508.790136468,1926.04309509 -532.570859409,1935.24975913 -525.952936673,1946.74582285 -501.734142292,1937.14633274 -508.790136468,1926.04309509 "/>
  <polygon class="51215020" points="-574.75582172,1930.51340482 -569.244531367,1929.87478905 -536.138157512,1926.04309509 -533.570859409,1948.68940526 -572.188126712,1953.15358223 -574.75582172,1930.51340482 "/>
  <polygon class="243689165" points="-575.75582172,1927.03730686 -575.95366481,1929.47373973 -607.825590024,1932.45023895 -633.417895558,1932.81232859 -660.272691795,1928.57158443 -657.967676353,1926.04309509 -632.273505191,1930.19178175 -606.913394358,1929.83582929 -575.75582172,1927.03730686 "/>
  <polygon class="14343645" points="-687.504703548,1958.74830698 -687.81115948,1957.11580617 -688.060844016,1956.26886974 -690.052052282,1945.55942474 -693.465301246,1927.884257 -682.102515806,1926.04309509 -677.518686185,1949.80024115 -675.155809701,1949.41359647 -675.628062147,1946.97098431 -663.115942186,1944.94570323 -661.272691795,1954.50748763 -682.231833991,1957.89523322 -687.504703548,1958.74830698 "/>
  <polygon class="69923096" points="-694.465301246,1942.04065749 -697.657149155,1935.59864248 -702.386080779,1926.04309509 -707.180988041,1927.65206209 -712.63236674,1929.48824986 -704.716937306,1945.4919576 -698.99706385,1943.56365102 -694.465301246,1942.04065749 "/>
  <polygon class="25807953" points="-80.71448121,2007.26343316 -80.0356776303,1990.18489014 -60.4235541576,1987.72317534 -46.5955528656,1984.95451411 -24.5329180875,1980.77389816 0.0,1980.12317098 -0.769904433517,2005.54452774 -7.78441821509,2005.69186248 -80.71448121,2007.26343316 "/>
  <polygon class="177128148" points="-83.4883046775,2004.35904623 -82.71448121,2000.55914283 -104.701224972,1980.12317098 -110.560907545,1983.35216289 -111.325549648,1991.11770755 -122.815804303,1992.07535607 -122.963394168,1997.93174663 -140.456592657,1999.01217117 -140.285925001,2008.60094294 -83.4883046775,2004.35904623 "/>
  <polygon class="85267850" points="-153.995286722,1980.12317098 -169.812455942,1987.40714818 -168.394495953,1989.65922958 -157.708719827,1996.78366407 -151.113943779,2001.17737412 -141.456592657,1996.45229493 -151.153762375,1983.32026578 -153.995286722,1980.12317098 "/>
  <polygon class="95785958" points="-179.431572439,2003.62043681 -199.635143264,1994.1097798 -189.433974648,1980.12317098 -185.282874904,1980.33806609 -183.342280637,1980.94591226 -183.035473611,1983.16854195 -183.630300715,1985.66746583 -170.812455942,1991.73979147 -179.431572439,2003.62043681 "/>
  <polygon class="327633465" points="-202.864978003,1982.13692887 -200.635143264,1983.64110798 -210.119479134,1991.93558451 -217.887426777,1986.66788526 -217.657933591,1986.45914197 -220.940723861,1984.24277968 -223.808874252,1983.93580432 -222.822603003,1980.12317098 -202.864978003,1982.13692887 "/>
  <polygon class="229477424" points="-253.099567001,1991.97614847 -255.640436294,1992.40582678 -252.518655842,2007.61644818 -248.928070389,2025.13507949 -237.208163845,2023.15855438 -236.626844369,2025.98216177 -224.808874252,2023.9872217 -225.444467097,2020.88125408 -226.049594753,2017.93488232 -232.198410706,2018.97225063 -237.960793965,2019.94823628 -239.93713568,2010.29887197 -242.010685803,2000.18300668 -244.01946904,1990.39861537 -232.113137734,1988.38526601 -233.2013489,1983.06953413 -233.806464522,1980.12317098 -254.803361806,1983.6649451 -253.099567001,1991.97614847 "/>
  <polygon class="24962018" points="-256.640436294,2009.82526459 -257.259429888,2013.87722972 -263.057892733,2011.41535378 -285.569131629,1981.51679808 -278.84889608,1980.12317098 -256.640436294,2009.82526459 "/>
  <polygon class="59858988" points="-291.160220267,1980.12317098 -286.569131629,1985.5869189 -286.809567589,1996.931877 -290.530435119,1998.54030801 -307.433064908,1998.54030801 -306.090823243,1980.45467922 -291.160220267,1980.12317098 "/>
  <polygon class="381246686" points="-311.090307634,1980.12317098 -328.281928234,1985.5425404 -326.00603731,1992.87066075 -308.433064908,1989.0531637 -311.090307634,1980.12317098 "/>
  <polygon class="72545200" points="-329.281928234,1981.31979871 -332.561484087,1996.12117241 -346.993481826,1995.3172831 -344.198208174,1980.12317098 -329.281928234,1981.31979871 "/>
  <polygon class="238751926" points="-362.918337704,2027.56806939 -352.385955563,2024.00110088 -360.2360698,2008.99037498 -363.101300708,2010.00336821 -367.019852958,2002.50722021 -359.379243443,1999.80590668 -359.028082546,2000.46895631 -349.552297159,1997.12301175 -350.25512485,1995.80305221 -347.993481826,1995.02335524 -356.123102982,1980.12317098 -381.442095667,1988.42355994 -378.758375861,1993.31661716 -376.658116883,1997.14142979 -378.480325117,1997.80447929 -362.918337704,2027.56806939 "/>
</svg>