<svg><g transform="translate(0 0)"><polygon id="7" class="bin" points="-152.228723946,57.6918540301 -157.073779956,55.6379566449 -175.310125249,55.4433136057 -178.693393389,53.2244024486 -178.92395845,52.7088207367 -182.888388178,51.088022227 -206.82959918,50.9201831681 -211.012368859,52.6911861742 -211.710974788,54.5744444928 -213.744553607,56.7148043774 -216.006676715,57.6882596463 -217.660762641,61.6979167524 -217.84736404,101.608778922 -218.535309769,103.756095959 -220.33031397,105.120720341 -220.95442818,105.344764585 -222.764354129,109.52298162 -222.776038726,229.153260958 -221.08032219,233.22881129 -216.993783481,234.897872842 -187.676190374,234.703521866 -185.00105948,235.800411423 -183.90139016,238.474400838 -183.919373904,241.691652283 -184.200619053,292.391080934 -182.494286773,296.506681266 -178.357816185,298.16177855 -165.564676474,297.931930501 -162.862801663,299.012645895 -161.747361304,301.700370967 -162.206925482,392.185681785 -163.305372643,394.818432601 -165.938244364,395.916589934 -178.197551418,395.977503924 -182.236512468,397.664015109 -183.917057843,401.705462076 -184.064332691,443.878482057 -182.241737936,448.087485838 -177.914387192,449.607880523 -167.011955235,448.796712351 -164.278357615,449.701993908 -162.992585451,452.278596436 -162.795147059,455.1440032 -159.167102519,462.588976452 -158.840729879,464.85758509 -159.895538048,466.892403013 -193.315528144,500.085346231 -195.302074569,505.383676548 -193.856448618,525.603615353 -193.643027166,526.879939139 -188.321992857,546.882840521 -187.462548867,548.829982081 -164.991161914,583.784867529 -149.394212821,607.868439801 -148.828389141,610.429454794 -150.07905409,612.734837933 -152.534419796,613.656864767 -161.924285332,613.6753402 -165.993928712,615.376907747 -167.657341734,619.462294691 -167.598349239,627.445285274 -168.683907434,630.111896596 -171.339981702,631.222987061 -173.941586394,631.228721116 -177.995704562,632.915157185 -179.6755606,636.972006261 -179.750696367,766.173357221 -178.065323425,770.241846228 -173.994665967,771.921974977 -172.602103696,771.919370639 -169.750470793,773.225875088 -168.889063146,776.241955485 -182.482078245,864.221073096 -182.517274671,864.481862398 -185.865354111,893.464474474 -185.910754687,894.242391788 -185.980326683,938.256851488 -187.066944786,940.890795567 -189.691153103,942.000719446 -193.357226819,942.039013817 -197.383349119,943.743832468 -199.045778719,947.787641962 -199.037760792,1081.18719281 -197.132719766,1085.44700098 -192.68779131,1086.86747909 -183.087727532,1085.79593558 -180.153302608,1084.75665383 -169.657709298,1078.03509102 -169.33919493,1077.81828707 -164.264663734,1074.15197178 -152.205704519,1065.38145392 -149.609255945,1064.68458355 -147.213623634,1065.90446852 -146.2500005,1068.41417049 -146.2500005,1113.59572559 -148.522643828,1117.04245118 -149.766842883,1117.57574742 -151.403833879,1121.64827023 -151.391524005,1122.92559761 -152.482965133,1125.60663445 -155.158416462,1126.71169664 -174.170119079,1126.62517178 -174.418644787,1126.62853367 -198.817115913,1127.39988394 -198.912032192,1127.40168245 -229.179273973,1127.59200366 -233.237762988,1129.30708388 -234.887931937,1133.39239608 -234.570213866,1166.30532364 -232.831411935,1170.36729663 -228.722733953,1171.99266487 -206.487972505,1171.58991911 -206.445157614,1171.58938808 -161.289112024,1171.28714903 -158.633901279,1172.36404948 -157.514181794,1175.00148895 -157.241771207,1203.71442292 -158.327403665,1206.38904141 -160.991602448,1207.499999 -446.2499995,1207.499999 -448.901649929,1206.40164943 -449.9999995,1203.749999 -449.9999995,3.75 -448.901649929,1.09834957055 -446.2499995,0.0 -218.909234973,0.0 -216.259138105,1.09679691799 -215.159237546,3.74560714965 -215.127789802,30.591264631 -213.440190297,34.6521758499 -209.375422339,36.3304647014 -157.206476956,36.2720232675 -152.534783637,34.331043623 -151.770199599,33.4859814107 -149.270237082,33.1135619591 -147.101801678,34.4121753505 -146.2500005,36.7918693624 -146.2500005,54.8914765849 -147.103242555,57.2729243394 -149.274690317,58.5706646935 -151.776199493,58.1941447693 -152.228723946,57.6918540301 " moovel_rot="0" moovel_centroid="-317.44424515053896,611.0973389280133" moovel_centroidlatlon="0,0" transform="translate(450 0)"></polygon><g transform="translate(2.491928900000005 -583.4803286000001) rotate(0)"><polygon id="32401743" class="tile" points="0.0,1780.04358388 9.86583284196,1657.56255709 0.0532192541286,1656.76285525 6.72025658358,1573.35226327 67.2452338563,1578.2828322 67.601999644,1584.16844141 73.2325432291,1584.83258304 64.8692269078,1713.40584811 61.2968032351,1713.54656487 60.647534202,1720.77370275 61.8308376957,1723.91147811 65.227939407,1726.29162219 70.3918552984,1726.41152858 70.7181560129,1722.27679418 161.022105931,1724.74589246 159.682116711,1758.74966963 108.410773821,1756.36974081 107.042295917,1767.37009316 85.7262900291,1767.07866061 85.2975228461,1771.30428407 59.9619931435,1769.29597769 62.3892080013,1733.36940142 48.950423648,1731.63333786 50.1194303971,1724.12479311 48.6261269728,1719.13619318 44.4048165154,1718.85162743 40.1141227087,1783.48944135 0.0,1780.04358388 " moovel_rot="-70.2" moovel_centroid="52.04763935133097,1687.38561844" moovel_centroidlatlon="13.44877981218242,52.46591000348625"></polygon></g><g transform="translate(79.65154129999999 -261.16884219999986) rotate(0)"><polygon id="289283764" class="tile" points="1.0,1202.29159128 64.2445058582,1201.91236561 77.359383616,1201.0 77.5702942643,1223.94023245 76.9730059117,1387.69819169 68.6954362078,1388.73962988 8.58216466196,1395.39842308 1.14053288624,1327.72651595 1.0,1202.29159128 " moovel_rot="39.0" moovel_centroid="39.57272310303266,1295.494895937268" moovel_centroidlatlon="13.29134168424802,52.49445131646954"></polygon></g><g transform="translate(-70.3686301 -1231.7984338) rotate(0)"><polygon id="88508633" class="tile" points="72.9457161869,2168.01814384 72.8686327625,2052.92109922 165.073750837,2052.75055229 165.147783309,2167.83652049 72.9457161869,2168.01814384 " moovel_rot="-15.4" moovel_centroid="119.008230705,2110.38126377" moovel_centroidlatlon="13.37964604103286,52.425661429355515"></polygon></g><g transform="translate(0.4007703000000049 -1403.6543996) rotate(0)"><polygon id="418054630" class="tile" points="124.003441124,2278.8284233 129.525804283,2219.8458068 169.041402042,2223.54488466 168.213899851,2232.39019899 178.102302574,2233.32129774 176.789000659,2247.33615394 181.238452126,2247.74742231 178.461045164,2277.42418752 175.674077281,2277.16936359 173.908404569,2295.97166728 164.138814628,2295.06195996 164.558766017,2290.56843312 154.70267729,2289.65115808 151.762099735,2321.03970196 179.965391915,2323.68310195 179.293491489,2330.82651483 177.949664375,2345.19027566 176.385366541,2361.92075859 181.319587349,2362.3854339 179.329651349,2383.59780896 161.520505169,2381.77581638 165.495641269,2339.32856296 118.73792454,2334.95190488 124.003441124,2278.8284233 " moovel_rot="5.0" moovel_centroid="151.237336573,2288.17665066" moovel_centroidlatlon="13.589557391304085,52.53817164772137"></polygon></g><g transform="translate(167.50481309999998 -1475.6110655000002) rotate(0)"><polygon id="26314086" class="tile" points="15.1291537487,2459.17660704 37.0992173914,2467.15021824 47.8276640894,2473.41301162 47.7403737694,2547.68129434 5.1187692943,2617.03577067 1.01755841542,2618.30961934 0.0,2485.15591844 15.1291537487,2459.17660704 " moovel_rot="2.0" moovel_centroid="21.768632144969455,2528.16824326" moovel_centroidlatlon="13.436620593831494,52.63585046987705"></polygon></g><g transform="translate(-181.69040669999998 -364.1766576000001) rotate(0)"><polygon id="27958112" class="tile" points="368.401659562,1201.0 367.737459917,1261.20553243 373.130929396,1264.54160169 402.432559454,1282.65165025 431.068689239,1300.34777987 430.993061536,1201.12449731 368.401659562,1201.0 " moovel_rot="-15.8" moovel_centroid="402.099701892,1241.8086363675857" moovel_centroidlatlon="13.284063004134287,52.44732824741661"></polygon></g><g transform="translate(-190.89994219999997 -1196.3164591) rotate(0)"><polygon id="85258837" class="tile" points="377.049866249,2028.48641644 417.077192451,2001.25285412 391.249582405,1960.70868444 417.028612229,1941.76920027 387.115379351,1898.06102536 349.530803521,1981.36511876 354.893850664,1995.20071628 369.198584302,2017.13417216 377.049866249,2028.48641644 " moovel_rot="4.1" moovel_centroid="383.642882133,1969.29568268" moovel_centroidlatlon="13.367894896619282,52.60362356564069"></polygon></g><g transform="translate(-392.4649152 -1529.593652) rotate(0)"><polygon id="7629108" class="tile" points="428.866178857,2345.5931831 394.990616719,2345.71630315 394.963396349,2240.38951903 395.676750379,2219.8458068 429.0484323,2220.28588088 428.866178857,2345.5931831 " moovel_rot="52.0" moovel_centroid="411.982018704,2282.88885243" moovel_centroidlatlon="13.26262028157229,52.50052146173164"></polygon></g><g transform="translate(-130.043905 -702.8351961000001) rotate(0)"><polygon id="102025787" class="tile" points="171.479021932,1466.4418856 174.229705384,1460.37519049 186.800249083,1432.68522359 187.18111966,1427.27839041 212.634429373,1427.47267305 249.489348138,1427.74740124 249.494532644,1455.85232504 249.23028523,1472.54499345 249.492153334,1500.9197225 239.301795684,1524.95442416 227.643448467,1520.01913522 233.310905132,1507.64513642 237.718505824,1509.8222211 242.575133332,1493.40128423 239.814868319,1486.76870484 210.653842486,1472.72190216 206.831479837,1481.30705349 171.479021932,1466.4418856 " moovel_rot="-44.6" moovel_centroid="218.428000003,1459.06715808" moovel_centroidlatlon="13.197072522120335,52.54304001952241"></polygon></g><g transform="translate(-242.69872489999997 -931.1733811999999) rotate(0)"><polygon id="192659517" class="tile" points="379.608585382,1704.50849921 367.389578764,1701.32923347 371.298874772,1693.7417176 367.035817685,1691.55148826 385.453032247,1655.7694058 373.651727015,1647.10089031 360.99532774,1638.77705013 360.818042233,1637.43767747 351.354788748,1630.90063523 361.626414079,1616.26276071 386.974987221,1634.02183745 394.83131727,1622.8295154 391.688478935,1620.62374269 406.658481452,1599.29938327 410.786439925,1602.20543524 413.582307075,1598.23360769 398.792714292,1587.84306567 408.964307188,1573.35226327 423.409344222,1583.46268493 420.370584266,1587.79399055 423.289935079,1589.84349888 421.651219949,1601.82063391 420.60685324,1613.971552 421.080639703,1626.1123357 422.837808774,1647.19442748 419.39120614,1652.26638785 423.484685424,1655.05030245 414.677027306,1667.98693229 410.502070769,1665.15585077 404.704033636,1673.67715061 395.855092755,1669.53816525 383.732894685,1695.46550008 379.608585382,1704.50849921 " moovel_rot="23.4" moovel_centroid="395.890017585,1639.67949067" moovel_centroidlatlon="13.509101938360047,52.45103608831804"></polygon></g><g transform="translate(-23.7456277 -1287.0306646000001) rotate(0)"><polygon id="25783439" class="tile" points="91.5959888182,2004.7178055 127.321877487,2006.82630167 127.621267985,1931.96827352 99.9633043724,1929.71585702 100.366369011,1898.06102536 83.6109961885,1898.10388112 83.8631306096,1950.06752944 86.4300749102,1950.45019012 83.5995916805,2004.36030969 91.5959888182,2004.7178055 " moovel_rot="59.2" moovel_centroid="104.098351724,1960.41507003" moovel_centroidlatlon="13.469357801434565,52.63364776395702"></polygon></g><g transform="translate(-243.2780182 -1432.9599104) rotate(0)"><polygon id="79308247" class="tile" points="428.417692761,2062.86964599 428.988180409,2085.31801976 428.402810335,2113.07947481 434.331724858,2117.15909453 461.494117025,2131.85756643 493.713595491,2083.02753409 487.952265621,2052.75055229 485.296811562,2053.11431671 438.504981043,2061.3643825 428.417692761,2062.86964599 " moovel_rot="46.0" moovel_centroid="458.605618289,2088.31707618" moovel_centroidlatlon="13.146814831944285,52.41609976612258"></polygon></g><g transform="translate(-108.8947082 -736.8529946000001) rotate(0)"><polygon id="301172746" class="tile" points="163.68680989,1201.0302076 163.799688983,1427.27839041 150.393634993,1427.25691746 150.286871963,1201.0 163.68680989,1201.0302076 " moovel_rot="35.0" moovel_centroid="157.041712459,1314.1499883958256" moovel_centroidlatlon="13.507036825501762,52.56198545865036"></polygon></g><g transform="translate(-190.6868271 -924.9615493000001) rotate(0)"><polygon id="326746320" class="tile" points="268.566283516,1531.08503225 250.545354347,1529.64451549 254.071223086,1464.11554122 250.494532644,1437.63041754 306.670259672,1427.27839041 311.733944861,1456.85489786 304.720028409,1457.61842558 277.854952352,1462.55934011 285.042088696,1501.51845533 270.941073772,1500.56433907 268.566283516,1531.08503225 " moovel_rot="71.1" moovel_centroid="273.321273405,1470.00185608" moovel_centroidlatlon="13.4679368354896,52.5631900686169"></polygon></g><g transform="translate(-241.6137259 -652.9128331) rotate(0)"><polygon id="289537928" class="tile" points="265.190926278,1338.77970769 271.162969631,1223.22385358 261.767844508,1221.865069 259.193514736,1201.0 244.113720281,1202.78342938 244.275052726,1326.07054303 265.190926278,1338.77970769 " moovel_rot="40.1" moovel_centroid="256.055568168,1268.2178190659515" moovel_centroidlatlon="13.306099696568394,52.592668671285026"></polygon></g><g transform="translate(-375.77608299999997 -887.9855499000001) rotate(0)"><polygon id="10307333" class="tile" points="515.411312331,1528.38462541 480.841084373,1528.4639789 480.810980294,1427.34043804 504.765970754,1427.27839041 504.78023437,1469.07811445 515.396544182,1469.04824215 515.411312331,1528.38462541 " moovel_rot="-27.1" moovel_centroid="496.372308019,1482.17658527" moovel_centroidlatlon="13.544780600596132,52.54560752674677"></polygon></g><g transform="translate(-402.639132 -1219.3671243000001) rotate(0)"><polygon id="131336296" class="tile" points="547.41398794,1573.63483247 547.255681203,1898.06102536 553.325324534,1898.00551529 553.293537088,1573.35226327 547.41398794,1573.63483247 " moovel_rot="-79.1" moovel_centroid="550.322321512,1736.62409618" moovel_centroidlatlon="13.427023191998519,52.47004048463301"></polygon></g><g transform="translate(-459.3103639 -810.8144138) rotate(0)"><polygon id="42719523" class="tile" points="461.823847149,1213.96182193 461.810367798,1272.65886793 504.362479469,1269.70144539 504.610714275,1261.6740877 508.446560023,1257.69704347 510.553909483,1257.46846992 510.256517092,1253.30043336 510.227724291,1248.11334842 508.16224157,1247.75038444 506.31105812,1247.08845515 505.421554252,1244.98530361 505.06405444,1243.09638819 505.943117022,1217.41895655 506.761732887,1216.23393488 507.840691904,1215.55550633 510.226397456,1215.45331905 510.229500911,1210.70058471 510.261224049,1206.96293074 505.494031281,1206.68865705 505.469951228,1201.0 473.641639583,1203.45533327 473.478724095,1208.35531862 470.055924754,1208.54439155 470.50868413,1213.48730872 461.823847149,1213.96182193 " moovel_rot="-15.7" moovel_centroid="484.943869082,1237.669309014013" moovel_centroidlatlon="13.577492787991204,52.498112688190275"></polygon></g><g transform="translate(-167.93407890000003 -1667.7197507) rotate(0)"><polygon id="126684610" class="tile" points="280.974739681,2052.75055229 280.654176459,2069.01822196 280.914369097,2089.97264704 261.119066106,2090.16844463 261.067488143,2086.00381263 246.399931862,2086.14138574 246.763034289,2115.28108768 246.542912846,2128.5039899 225.534850063,2128.41407016 223.621716666,2053.54628639 280.974739681,2052.75055229 " moovel_rot="40.4" moovel_centroid="247.682686943,2082.09120555" moovel_centroidlatlon="13.505117224318951,52.458896910511505"></polygon></g><g transform="translate(-239.5466207 -1520.0424428000001) rotate(0)"><polygon id="218898556" class="tile" points="395.227413382,2144.27430094 427.402810335,2144.45694305 427.355765763,2053.04304051 395.853243093,2052.75055229 395.227413382,2144.27430094 " moovel_rot="16.4" moovel_centroid="411.455966884,2098.79218671" moovel_centroidlatlon="13.614777925292506,52.502830104054105"></polygon></g><g transform="translate(-334.5905437 -1836.0129713999997) rotate(0)"><polygon id="172186431" class="tile" points="527.385377022,2219.8458068 537.171245971,2219.87491912 537.454396001,2435.52448861 535.571316038,2439.08053642 535.115694749,2457.95040581 529.600653015,2459.17660704 529.422867264,2439.05115255 527.4353439,2438.34311957 527.385377022,2219.8458068 " moovel_rot="-93.9" moovel_centroid="532.359548687,2335.62420061" moovel_centroidlatlon="13.44785562475797,52.44572284054939"></polygon></g><g transform="translate(-457.4557512 -1563.7037027000001) rotate(0)"><polygon id="286165787" class="tile" points="582.402088439,1898.06102536 583.255476602,1942.33496367 580.990972828,1942.3124733 583.200027095,2052.50386093 576.697214514,2052.75055229 575.43360331,1943.28304094 527.307773687,1944.33333061 527.322204038,1922.73412816 573.837469002,1921.87105733 573.834452208,1903.89510559 573.914732939,1898.08440969 582.402088439,1898.06102536 " moovel_rot="44.3" moovel_centroid="565.115929447,1951.88353399" moovel_centroidlatlon="13.440028276807306,52.51152354657313"></polygon></g><g transform="translate(36.263380100000006 -1716.1003401000003) rotate(0)"><polygon id="105185955" class="tile" points="166.147783309,2089.3768884 180.837108918,2081.20399087 189.089985717,2076.60869066 185.405216237,2069.97124965 188.983561989,2067.97444137 187.660136928,2065.59672697 193.595266697,2062.29356418 195.193290541,2065.17469339 198.63448025,2063.26157677 197.166549198,2060.61041822 211.300045244,2052.75055229 216.275712395,2061.70820911 222.603101653,2072.95640216 222.095453252,2073.22189742 222.127976212,2073.27938974 216.949676659,2076.03327168 218.139122508,2078.29111147 202.591566105,2086.53488009 202.546385114,2086.45951019 202.049638951,2086.71728623 202.306127307,2087.20668126 202.361516412,2087.18088357 222.435217903,2125.09087137 222.352573248,2125.13596719 222.621716666,2125.64323561 209.426379736,2132.59731998 203.004487461,2121.05383649 192.466576517,2126.91812515 189.90379079,2122.30454176 185.736032386,2124.62474305 166.147783309,2089.3768884 " moovel_rot="-35.3" moovel_centroid="197.212950674,2094.09242404" moovel_centroidlatlon="13.181475192435954,52.53250986117775"></polygon></g><g transform="translate(186.67843069999998 -1289.830637) rotate(0)"><polygon id="177432267" class="tile" points="38.4543461893,2219.8458068 50.6852034483,2230.95944442 50.716375842,2283.83758946 31.3656018481,2283.7355856 31.2472296823,2262.18241374 23.7444216235,2262.24568339 23.7817523359,2254.78117453 0.0,2255.77394982 0.137370995153,2251.14418581 0.159583120281,2219.86733285 6.80943398117,2219.86210357 38.4543461893,2219.8458068 " moovel_rot="-28.9" moovel_centroid="28.53159104366751,2246.04769053" moovel_centroidlatlon="13.621953250724404,52.53331924826984"></polygon></g><g transform="translate(-202.4026588 -889.6897514) rotate(0)"><polygon id="29451633" class="tile" points="450.69552572,1504.50431973 418.061249023,1504.61600612 410.03955963,1504.61906087 409.978060205,1427.2867957 421.065483705,1427.27839041 421.090462909,1456.89794232 443.178480839,1456.88128315 450.812549744,1456.74755468 450.69552572,1504.50431973 " moovel_rot="-0.1" moovel_centroid="428.237285174,1475.12560637" moovel_centroidlatlon="13.579952625414032,52.50560775909409"></polygon></g><g transform="translate(72.24512709999999 -972.8718123000001) rotate(0)"><polygon id="109938760" class="tile" points="142.344793488,1429.93626084 138.198826306,1446.8659841 135.310001405,1468.63094063 136.573664337,1505.1615889 170.449138128,1506.18644893 170.460803338,1497.08877321 170.479021932,1463.68379603 165.150884119,1448.24138763 149.950068695,1427.27839041 142.344793488,1429.93626084 " moovel_rot="-42.3" moovel_centroid="152.524214616,1471.82232035" moovel_centroidlatlon="13.370498767277113,52.50819249889341"></polygon></g><g transform="translate(-63.160371 -1128.1289182) rotate(0)"><polygon id="193315141" class="tile" points="218.893307563,1573.35226327 248.721751401,1573.56050847 248.827452436,1629.21809218 239.597141643,1629.14270186 239.022941052,1655.89929912 218.83176878,1655.83498222 218.893307563,1573.35226327 " moovel_rot="0.4" moovel_centroid="232.645764487,1611.49378096" moovel_centroidlatlon="13.581039582236686,52.51963293908168"></polygon></g><g transform="translate(-227.4883128 -1743.7126552000002) rotate(0)"><polygon id="79593892" class="tile" points="229.988133533,2286.411823 262.737239966,2287.30742671 262.661187047,2219.8458068 230.792916015,2220.09945049 229.988133533,2286.411823 " moovel_rot="59.9" moovel_centroid="246.589941216,2253.5696169" moovel_centroidlatlon="13.324151151928532,52.46179907747776"></polygon></g><g transform="translate(-278.4768331 -573.3306249) rotate(0)"><polygon id="424766957" class="tile" points="510.35933488,1693.43938777 498.838018386,1693.5285064 498.806701636,1573.35226327 511.438388494,1573.74636823 511.387190972,1579.51471259 518.236159281,1579.78413915 518.598022749,1640.55645634 510.84164765,1640.55354042 510.642376346,1662.97241101 510.35933488,1693.43938777 " moovel_rot="78.9" moovel_centroid="507.18773659,1627.46360596" moovel_centroidlatlon="13.590970853493578,52.52497807009272"></polygon></g><g transform="translate(-196.1476803 -879.4798378) rotate(0)"><polygon id="133605373" class="tile" points="199.335551286,1218.14959708 198.599844362,1214.53767594 201.958709519,1210.74606713 235.139446861,1201.0 237.149033821,1208.06375991 243.113720281,1209.89558614 235.672998016,1230.52621248 243.055727722,1253.58073211 237.666341167,1255.24197073 235.947705873,1257.26096301 236.945684419,1262.57595671 233.113231672,1263.25618128 229.223873423,1263.95577799 227.838942207,1256.73726884 218.571292264,1258.44674831 220.008869,1265.61264604 216.593126404,1266.23195767 212.296175639,1266.97779887 211.587698374,1263.21788206 208.378546833,1263.80155545 199.335551286,1218.14959708 " moovel_rot="-18.8" moovel_centroid="221.302723484,1232.8024521904451" moovel_centroidlatlon="13.56311964500631,52.51038781959822"></polygon></g><g transform="translate(-398.10501959999993 -1733.8644305) rotate(0)"><polygon id="32013075" class="tile" points="553.761993571,2114.582527 579.581492712,2114.28809117 582.129817133,2114.20543052 587.896843757,2113.95145419 588.007971038,2110.65185746 586.745365005,2058.45694483 586.765056152,2052.82939659 586.347762985,2052.81174141 574.298476935,2052.80097515 565.268441762,2052.75055229 553.7868761,2052.83672962 553.761993571,2114.582527 " moovel_rot="72.8" moovel_centroid="570.541279384,2083.79703215" moovel_centroidlatlon="13.26114008241676,52.43435468180401"></polygon></g><g transform="translate(-116.074712 -2202.6495389) rotate(0)"><polygon id="283586625" class="tile" points="198.118085338,2556.45920222 210.438439828,2539.63093685 201.364909101,2532.85275485 203.27350138,2530.30269463 180.456662963,2513.21193732 191.531662137,2498.46371262 186.948886521,2495.02765646 190.291721953,2490.58081462 210.408988235,2464.4013054 201.675378469,2459.17660704 158.465871119,2514.79554788 162.548249901,2520.5287109 161.548005838,2525.51666342 198.118085338,2556.45920222 " moovel_rot="-41.5" moovel_centroid="185.300549228,2514.21011234" moovel_centroidlatlon="13.421938112633708,52.46570491288204"></polygon></g><g transform="translate(-509.0539253 -940.5460478) rotate(0)"><polygon id="42069259" class="tile" points="511.576826954,1232.35323997 511.553909483,1257.47694818 530.572276524,1257.53613019 545.923438294,1257.58633329 545.966751133,1201.1092363 511.597086911,1201.0 511.576826954,1232.35323997 " moovel_rot="42.3" moovel_centroid="528.761224555,1229.2927212578086" moovel_centroidlatlon="13.388908256320299,52.481903808363946"></polygon></g><g transform="translate(-8.639123399999988 -1162.7612331999999) rotate(0)"><polygon id="38929796" class="tile" points="106.57179582,1427.64819257 106.480905322,1432.11204456 103.921529917,1432.06088979 103.057584547,1474.67054537 106.823000155,1474.7452946 106.466011461,1492.20552189 134.310001405,1492.11040736 134.30835493,1432.31195371 129.764351528,1427.27839041 106.57179582,1427.64819257 " moovel_rot="5.8" moovel_centroid="119.326491486,1459.59491005" moovel_centroidlatlon="13.330331620360091,52.458581807622764"></polygon></g><g transform="translate(-100.71740659999998 -1639.7114144) rotate(0)"><polygon id="26256907" class="tile" points="231.458811056,1898.81193041 267.384475644,1898.06102536 267.446720716,1953.68213191 257.651859609,1953.41720509 257.630156823,1949.44366428 231.387718259,1949.01483363 231.458811056,1898.81193041 " moovel_rot="-70.3" moovel_centroid="249.773009947,1924.47133368" moovel_centroidlatlon="13.275130945642454,52.589804209091234"></polygon></g><g transform="translate(66.16294779999998 -2199.4827379999997) rotate(0)"><polygon id="163711079" class="tile" points="105.566359443,2513.45137968 140.032393273,2513.3929133 140.020105238,2459.17660704 105.554035044,2459.23496346 105.566359443,2513.45137968 " moovel_rot="-18.3" moovel_centroid="122.79321742,2486.31396112" moovel_centroidlatlon="13.277851949999999,52.533623150000004"></polygon></g><g transform="translate(-127.38416759999998 -741.4364984000001) rotate(0)"><polygon id="27439433" class="tile" points="370.360584345,1573.35226327 359.96082604,1573.35108444 359.960998415,1427.27839041 370.360878505,1427.27948923 370.360584345,1573.35226327 " moovel_rot="56.7" moovel_centroid="365.160822301,1500.31516429" moovel_centroidlatlon="13.387990399999989,52.56394650000001"></polygon></g><g transform="translate(-170.10079690000003 -1187.969583) rotate(0)"><polygon id="85260485" class="tile" points="418.278332505,1898.1316691 418.077192451,2019.91528385 432.480249282,2019.65744065 430.340973279,1898.46292853 423.176384899,1898.06102536 418.278332505,1898.1316691 " moovel_rot="4.7" moovel_centroid="424.802422386,1960.78788022" moovel_centroidlatlon="13.360034114899976,52.60471136904912"></polygon></g><g transform="translate(-123.48802200000003 -922.4087552999999) rotate(0)"><polygon id="88630577" class="tile" points="334.651884973,1255.63937788 366.737459917,1255.74478663 366.727214588,1244.40166319 366.725482179,1242.6046687 366.714944191,1239.21122755 366.708595754,1237.17382728 366.6977692,1220.68012616 366.701571277,1218.60244859 366.680379542,1201.0 334.740745219,1201.09888147 334.651884973,1255.63937788 " moovel_rot="-91.1" moovel_centroid="350.711773694,1228.391196463874" moovel_centroidlatlon="13.356426166489037,52.409841294773045"></polygon></g><g transform="translate(168.1270871 -746.9293808) rotate(0)"><polygon id="106345085" class="tile" points="37.4126254046,1899.16746867 0.0,1898.06102536 0.0404589386657,1940.61880639 19.3435931398,1941.00127199 19.5796888316,1946.3451323 36.330661864,1946.93086531 37.4126254046,1899.16746867 " moovel_rot="48.2" moovel_centroid="18.985430853598753,1921.05214839" moovel_centroidlatlon="13.349709269495424,52.55222281143239"></polygon></g><g transform="translate(-267.98484080000003 -259.87330729999996) rotate(0)"><polygon id="376562604" class="tile" points="291.331476007,1245.88880908 333.651884973,1245.81326034 333.650511326,1229.09666227 320.126643629,1225.15916699 320.137783541,1201.0 291.347174317,1201.05200063 291.331476007,1245.88880908 " moovel_rot="-59.8" moovel_centroid="309.160588044,1225.5740897365733" moovel_centroidlatlon="13.512217843477826,52.63827312303331"></polygon></g><g transform="translate(-394.8410356 -2037.0726893) rotate(0)"><polygon id="95787540" class="tile" points="436.705836489,2321.14753417 444.645556814,2323.39666014 450.337244978,2324.62660053 455.609120223,2285.00278112 456.527671386,2278.11270877 454.84193031,2245.57682932 450.541331052,2225.60651156 444.194231157,2219.8458068 436.643271208,2223.54798349 441.893475826,2252.98493709 442.90154864,2281.70756 436.705836489,2321.14753417 " moovel_rot="-75.9" moovel_centroid="447.124010167,2272.53946786" moovel_centroidlatlon="13.373347228782235,52.480719881204664"></polygon></g><g transform="translate(-301.62095 -2035.3053761) rotate(0)"><polygon id="31435538" class="tile" points="368.299274596,2297.47799973 382.252497039,2290.47585576 382.143046327,2271.68045328 393.963396349,2264.11353565 393.688648101,2233.44226331 368.248742275,2219.8458068 368.299274596,2297.47799973 " moovel_rot="-89.9" moovel_centroid="378.896919993,2255.82809697" moovel_centroidlatlon="13.19841505516018,52.493105517493866"></polygon></g><g transform="translate(-344.8959919 -1385.8176928) rotate(0)"><polygon id="328257617" class="tile" points="442.059135776,1615.29486234 453.267803913,1591.02009813 461.843612115,1594.97721978 479.056984728,1602.93273564 492.714547327,1573.35226327 497.751228103,1575.68476887 476.149794753,1622.44572538 497.806701636,1632.44128852 494.531197254,1639.54259044 442.059135776,1615.29486234 " moovel_rot="25.3" moovel_centroid="469.92011391,1610.33231573" moovel_centroidlatlon="13.129927069890169,52.40934359575397"></polygon></g><g transform="translate(-76.0702973 -989.588656) rotate(0)"><polygon id="307091580" class="tile" points="115.050086651,1201.0 115.047243022,1237.57365429 115.041996428,1245.02243518 99.1247587856,1245.04242898 83.4125775153,1245.05787963 83.4155307393,1236.77587929 83.411965707,1235.25568774 78.6374427452,1235.26152528 78.6382542115,1232.14034926 83.4062854469,1232.13608296 83.40952219,1228.4284306 83.4088002204,1224.07950885 83.4123123619,1214.15233922 78.5702942643,1214.16323351 78.5711026718,1211.04204484 83.4221879188,1211.04022484 83.4206521757,1201.03538012 90.3235427192,1201.02166546 115.050086651,1201.0 " moovel_rot="-13.6" moovel_centroid="98.8465246169,1223.029448358564" moovel_centroidlatlon="13.322062848425258,52.52703607158717"></polygon></g><g transform="translate(-473.44844079999996 -773.7063611) rotate(0)"><polygon id="85257994" class="tile" points="581.986749857,1201.0 581.979593283,1217.46831967 581.9682299,1254.57150952 560.223766584,1267.4479614 556.946782642,1202.56492152 581.986749857,1201.0 " moovel_rot="34.2" moovel_centroid="569.861505359,1230.8961066622076" moovel_centroidlatlon="13.369012643219827,52.60150336816288"></polygon></g><g transform="translate(-284.27550470000006 -1704.4056293) rotate(0)"><polygon id="444439868" class="tile" points="440.785088214,1898.06102536 465.817297348,1898.58458196 465.877020512,1948.37854316 433.480249282,1943.93160564 440.785088214,1898.06102536 " moovel_rot="-27.6" moovel_centroid="451.573204686,1923.30971195" moovel_centroidlatlon="13.582217202767632,52.46217146912041"></polygon></g><g transform="translate(-226.82470130000002 -2058.493547) rotate(0)"><polygon id="364396354" class="tile" points="367.21573458,2248.21589829 362.025211786,2261.43947872 333.924404045,2258.62037853 328.449582213,2232.88129595 328.207004071,2227.29216343 327.632181599,2222.2706167 367.248742275,2219.8458068 366.438852686,2225.56184023 366.683801051,2231.23142629 366.791696189,2237.41642938 367.21573458,2248.21589829 " moovel_rot="-37.2" moovel_centroid="348.609948381,2239.68459562" moovel_centroidlatlon="13.39381914054554,52.41397109802818"></polygon></g><g transform="translate(-274.3353273 -1411.9074729) rotate(0)"><polygon id="41968201" class="tile" points="276.835331181,1618.31464115 276.797451629,1581.14310684 276.854376027,1573.61680396 307.02363084,1573.35226327 306.961534597,1618.3258929 276.835331181,1618.31464115 " moovel_rot="-29.6" moovel_centroid="291.920762554,1595.89270736" moovel_centroidlatlon="13.268367498289242,52.45345826778675"></polygon></g><g transform="translate(161.4320088 -1878.6922753) rotate(0)"><polygon id="230115782" class="tile" points="43.1902076785,2122.69713548 43.1471561244,2052.78688191 25.1263475949,2052.75055229 25.1694984684,2122.66072369 43.1902076785,2122.69713548 " moovel_rot="50.4" moovel_centroid="34.158304216,2087.72379122" moovel_centroidlatlon="13.454302049999999,52.485777750000004"></polygon></g><g transform="translate(-170.0059025 -1722.4850775999998) rotate(0)"><polygon id="117589603" class="tile" points="304.249263757,2052.75055229 307.765739501,2202.50079169 307.428466694,2209.8275666 304.93651519,2219.8458068 299.860591303,2217.16196255 302.594156605,2203.10396298 302.523053106,2185.63099146 301.674931726,2158.40267854 299.965863864,2053.16392854 304.249263757,2052.75055229 " moovel_rot="41.9" moovel_centroid="303.719131937,2139.00497745" moovel_centroidlatlon="13.2999754302325,52.5731611490817"></polygon></g><g transform="translate(-48.01175559999999 -1753.440037) rotate(0)"><polygon id="24395183" class="tile" points="196.086528477,1936.08762395 229.312181544,1936.5090068 230.387718259,1898.79321541 214.630048432,1898.45277435 196.056090632,1898.06102536 196.086528477,1936.08762395 " moovel_rot="15.7" moovel_centroid="212.940411933,1917.25753485" moovel_centroidlatlon="13.20979933239059,52.580375023593206"></polygon></g><g transform="translate(-307.0055252000001 -2116.4747322) rotate(0)"><polygon id="383081922" class="tile" points="518.180578415,2387.53434552 521.501538404,2390.17979971 522.943352684,2388.53282853 524.397061943,2385.64531911 525.989204729,2381.88987214 526.385377022,2378.09109896 526.319342173,2368.56386611 523.064573983,2219.8458068 522.391480498,2220.49299423 520.246209592,2220.75325832 518.397559145,2222.6114525 522.134587552,2375.7371337 521.310786428,2381.1397931 520.026693073,2384.78672016 518.180578415,2387.53434552 " moovel_rot="41.2" moovel_centroid="522.525964538,2304.28054221" moovel_centroidlatlon="13.31097421843068,52.501253294594946"></polygon></g><g transform="translate(-190.5021814 -2112.5950723) rotate(0)"><polygon id="27833581" class="tile" points="193.00058794,2220.52525497 218.145930395,2219.8458068 218.091306044,2268.84097732 194.738554909,2269.28937305 193.00058794,2220.52525497 " moovel_rot="-1.1" moovel_centroid="205.996725887,2244.32350784" moovel_centroidlatlon="13.378373901141376,52.410156362676645"></polygon></g><g transform="translate(-226.29659279999998 -1225.6795152000002) rotate(0)"><polygon id="91567794" class="tile" points="326.088470237,2147.77671766 336.839186922,2147.78536264 336.756378845,2052.75912927 326.0056351,2052.75055229 326.088470237,2147.77671766 " moovel_rot="21.7" moovel_centroid="331.4224184,2100.26792049" moovel_centroidlatlon="13.311953800000001,52.557032299999996"></polygon></g><g transform="translate(-81.8568522 -1794.3765098000001) rotate(0)"><polygon id="54499710" class="tile" points="162.250128639,1957.61287177 162.238598358,1974.004415 159.008392528,1973.99582752 134.9837815,1973.93193267 135.009231665,1898.06102536 138.982878656,1898.0697711 144.747876696,1898.08254936 144.72765086,1957.57317739 162.250128639,1957.61287177 " moovel_rot="60.4" moovel_centroid="143.676996441,1944.34119528" moovel_centroidlatlon="13.437374876488523,52.541158222676984"></polygon></g><g transform="translate(71.75477699999999 -1966.6095497999997) rotate(0)"><polygon id="23725214" class="tile" points="24.0379577331,2156.55562563 24.1263475949,2052.75055229 14.073651264,2054.78107455 16.2276152022,2157.14445165 24.0379577331,2156.55562563 " moovel_rot="-94.8" moovel_centroid="19.6027015143,2103.13934117" moovel_centroidlatlon="13.292437896366497,52.53891574297676"></polygon></g><g transform="translate(-210.5776063 -1479.4799163) rotate(0)"><polygon id="285920846" class="tile" points="325.410439233,1573.35229145 311.443716399,1578.9820813 314.406514322,1634.77872872 315.665162283,1638.07776809 330.392124417,1632.97881151 330.407562568,1573.35226327 325.410439233,1573.35229145 " moovel_rot="46.5" moovel_centroid="321.689709815,1604.5889946" moovel_centroidlatlon="13.173805492841261,52.52640410805143"></polygon></g><g transform="translate(-229.56147220000003 -1498.6737743) rotate(0)"><polygon id="137577492" class="tile" points="267.309468385,1576.2115227 267.234465261,1681.61734224 275.797451629,1677.36452475 274.619232861,1573.35226327 267.309468385,1576.2115227 " moovel_rot="25.4" moovel_centroid="271.242195599,1628.52144162" moovel_centroidlatlon="13.19802322262601,52.54015093615318"></polygon></g><g transform="translate(-38.2008084 -1479.7344265000002) rotate(0)"><polygon id="376563136" class="tile" points="187.105334405,1573.35226327 187.105739183,1619.16860365 182.768883933,1619.97955191 163.695079238,1620.8079684 163.022105931,1600.43999501 163.438771496,1589.24413344 173.400959053,1588.92377849 172.843958201,1574.14683184 187.105334405,1573.35226327 " moovel_rot="77.5" moovel_centroid="176.259884885,1599.40605758" moovel_centroidlatlon="13.464245084302526,52.59837956209073"></polygon></g><g transform="translate(153.8058605 -1329.5077959999999) rotate(0)"><polygon id="272963959" class="tile" points="0.0166260422207,1434.82416306 25.4598986403,1427.27839041 35.0471877831,1459.43979498 1.47949110246,1469.40114853 0.954545636522,1467.63722001 0.0,1464.30251895 8.08534062942,1461.91052302 0.0166260422207,1434.82416306 " moovel_rot="-2.5" moovel_centroid="16.919541834116206,1448.02232193" moovel_centroidlatlon="13.310971408932069,52.52982937189014"></polygon></g><g transform="translate(-316.17554110000003 -1995.9056731) rotate(0)"><polygon id="47124275" class="tile" points="508.562955962,2052.75055229 505.16042781,2109.3075257 505.529860647,2108.98036693 522.571409137,2110.26812183 522.552416559,2068.51641993 522.549804283,2052.77181922 508.562955962,2052.75055229 " moovel_rot="50.8" moovel_centroid="514.710679409,2082.22747136" moovel_centroidlatlon="13.48397097749153,52.55040744965008"></polygon></g><g transform="translate(-494.64830809999995 -1828.4241772) rotate(0)"><polygon id="30983065" class="tile" points="497.469615678,1930.7633523 497.148274588,1929.14848054 497.277778034,1899.08421096 526.297973346,1898.06102536 526.307773687,1930.66125313 497.469615678,1930.7633523 " moovel_rot="-29.7" moovel_centroid="511.829927331,1914.65061751" moovel_centroidlatlon="13.36362368083284,52.41291299799081"></polygon></g><g transform="translate(-444.0720621 -1438.8265339999998) rotate(0)"><polygon id="435776201" class="tile" points="485.450175421,2250.14867707 511.86824812,2254.86827313 512.35224277,2252.0262646 517.180578415,2252.79786555 517.171452102,2227.6003425 515.164671487,2227.2328724 515.907485962,2222.38342834 501.529932572,2219.8458068 500.690561082,2224.64326027 496.338710077,2223.68065469 489.811144823,2222.50236484 485.450175421,2250.14867707 " moovel_rot="-61.7" moovel_centroid="502.624767784,2237.85550527" moovel_centroidlatlon="13.27992845939888,52.589687855829766"></polygon></g><g transform="translate(39.58967329999999 -815.8299428) rotate(0)"><polygon id="354932498" class="tile" points="143.806894802,1226.93296142 143.807369015,1201.0 116.050086651,1206.29254698 120.806846974,1245.4675567 130.162329207,1237.93365325 140.774514496,1229.37616384 143.806894802,1226.93296142 " moovel_rot="21.2" moovel_centroid="130.117160711,1219.9889152071503" moovel_centroidlatlon="13.731470312792613,52.404282650924124"></polygon></g><g transform="translate(-301.1570444 -2003.0160871) rotate(0)"><polygon id="94389277" class="tile" points="368.910957055,2106.26156775 368.899527381,2059.49130925 375.642400096,2061.34189553 379.981901312,2052.75055229 383.010957341,2054.09820308 394.120786824,2058.79835457 392.220676906,2063.5591996 394.227413382,2064.34143355 375.714213032,2104.18615428 368.910957055,2106.26156775 " moovel_rot="59.9" moovel_centroid="378.733381005,2076.37870004" moovel_centroidlatlon="13.116484680427961,52.42396905261661"></polygon></g><g transform="translate(-110.61472300000003 -2190.7358123999998) rotate(0)"><polygon id="312937315" class="tile" points="271.745351634,2219.8458068 279.436072429,2220.84575806 279.49967778,2286.4814202 270.165535724,2286.15118674 263.737239966,2282.65135953 271.745351634,2219.8458068 " moovel_rot="8.3" moovel_centroid="273.34793719,2256.74370126" moovel_centroidlatlon="13.398968289512958,52.62178462943776"></polygon></g><g transform="translate(57.83309439999999 -1852.9880164) rotate(0)"><polygon id="326746325" class="tile" points="46.765526922,1940.89889146 39.4126254046,1910.2924465 55.9281567588,1902.97691272 67.0206938422,1898.06102536 69.204592383,1905.09676774 62.7583345745,1906.99011526 69.1918779509,1935.32641929 46.765526922,1940.89889146 " moovel_rot="-36.9" moovel_centroid="54.9670687729,1920.62399072" moovel_centroidlatlon="13.468734555611766,52.56186970397374"></polygon></g><g transform="translate(-149.4908202 -2190.2712206) rotate(0)"><polygon id="9874981" class="tile" points="298.023833534,2220.52073667 298.037381544,2268.87620807 280.49967778,2267.94773938 282.178063892,2219.8458068 298.023833534,2220.52073667 " moovel_rot="63.5" moovel_centroid="289.682659965,2244.70596268" moovel_centroidlatlon="13.277579332595447,52.507054418418925"></polygon></g><g transform="translate(-422.1286979 -1397.9594169000002) rotate(0)"><polygon id="43758619" class="tile" points="457.923730932,1427.27839041 457.928865259,1464.81106428 479.518491874,1465.13542324 479.810980294,1428.09403942 457.923730932,1427.27839041 " moovel_rot="58.8" moovel_centroid="468.77219494,1446.28630556" moovel_centroidlatlon="13.500009663112527,52.552232123174875"></polygon></g><g transform="translate(168.9354268 -1006.1791889) rotate(0)"><polygon id="10991591" class="tile" points="63.3431024331,1427.27839041 84.1501004619,1427.43478624 84.1498666425,1433.76233086 83.542947707,1463.69165046 83.4573525958,1466.16056992 63.381746807,1466.10363321 63.3431024331,1427.27839041 " moovel_rot="-41.6" moovel_centroid="73.6150580009,1446.62238335" moovel_centroidlatlon="13.494580020314405,52.6342114122853"></polygon></g><g transform="translate(-208.938446 -2436.0266362) rotate(0)"><polygon id="32063592" class="tile" points="211.438439828,2501.72074993 239.010401339,2496.22470196 230.291085953,2459.17660704 219.260869974,2461.3640799 211.43937508,2491.5991441 211.438439828,2501.72074993 " moovel_rot="-14.4" moovel_centroid="224.480143485,2482.51174605" moovel_centroidlatlon="13.559604947025742,52.53643554859762"></polygon></g><g transform="translate(-227.126023 -1189.6595688) rotate(0)"><polygon id="314488942" class="tile" points="450.771381578,1220.8336302 453.029998742,1219.27281416 455.07937982,1223.1832838 455.981730635,1222.80568675 459.206849284,1228.85225089 460.810367798,1231.72928646 458.631723561,1232.43246636 456.869217699,1235.30980035 458.70399711,1238.78976916 451.780591,1241.76050778 432.068689239,1241.50698516 432.121608906,1201.0 436.037640875,1201.05704579 438.965743372,1206.39943364 441.205466347,1205.24876431 450.771381578,1220.8336302 " moovel_rot="62.2" moovel_centroid="443.036927273,1225.607638638222" moovel_centroidlatlon="13.326218318967177,52.5114217638147"></polygon></g><g transform="translate(32.810463200000015 -2453.0325577) rotate(0)"><polygon id="27426656" class="tile" points="141.083003193,2459.51697919 141.032393273,2505.34963592 157.439150916,2505.47786714 157.465871119,2459.17660704 141.083003193,2459.51697919 " moovel_rot="-27.3" moovel_centroid="149.269002153,2482.38586838" moovel_centroidlatlon="13.387195771445041,52.561170721405524"></polygon></g><g transform="translate(-204.125338 -1649.7032790999997) rotate(0)"><polygon id="378342755" class="tile" points="457.595435458,2277.02420843 457.527671386,2219.8458068 470.056727851,2219.90715985 469.938871101,2277.09366586 457.595435458,2277.02420843 " moovel_rot="-92.5" moovel_centroid="463.779872174,2248.39658817" moovel_centroidlatlon="13.596611063729991,52.440968644825624"></polygon></g><g transform="translate(-252.1938543 -1415.9238719) rotate(0)"><polygon id="242166087" class="tile" points="336.829699926,1427.50857586 336.825825416,1429.25962312 336.81014315,1437.55317635 336.825576705,1459.76565492 319.680118688,1462.23848612 317.335709969,1462.59033752 315.329750819,1448.97151648 313.259392709,1435.32765695 312.733944861,1431.35517958 314.640841033,1427.27839041 322.178831742,1427.35868815 336.829699926,1427.50857586 " moovel_rot="-18.1" moovel_centroid="325.62094465,1443.75742921" moovel_centroidlatlon="13.396684607361129,52.490568273888236"></polygon></g><g transform="translate(3.521805900000004 -2449.6257327999997) rotate(0)"><polygon id="85797905" class="tile" points="104.554035044,2459.18629524 104.535304814,2496.70806603 86.1083447235,2496.68742106 86.1264815561,2459.17660704 104.554035044,2459.18629524 " moovel_rot="3.1" moovel_centroid="95.3314900819,2477.93949795" moovel_centroidlatlon="13.284977506620677,52.582684176125554"></polygon></g><g transform="translate(-226.6444518 -1302.3367648) rotate(0)"><polygon id="177162011" class="tile" points="325.673594037,1898.08528559 325.637711817,1940.65010907 310.303560342,1940.61930522 310.34078161,1898.06102536 325.673594037,1898.08528559 " moovel_rot="78.2" moovel_centroid="317.989108066,1919.3542427" moovel_centroidlatlon="13.594070680254346,52.5291105011583"></polygon></g><g transform="translate(-307.24830419999995 -1982.6693012) rotate(0)"><polygon id="298244902" class="tile" points="555.474884916,2294.11040926 562.029575532,2297.7731796 561.945638604,2221.71112272 555.520074955,2219.8458068 555.474884916,2294.11040926 " moovel_rot="-75.7" moovel_centroid="558.755114911,2258.48965666" moovel_centroidlatlon="13.315923616940708,52.501056046322326"></polygon></g><g transform="translate(-114.94061830000001 -1432.3547541) rotate(0)"><polygon id="276739259" class="tile" points="195.055509651,1913.45079026 191.168915974,1913.46462674 191.788367731,1898.74169377 175.754815818,1898.06102536 174.745659924,1925.8642061 179.094255351,1925.99266617 179.062280818,1928.14141702 178.983877264,1931.95876843 180.212612332,1931.97382106 195.056090632,1931.97220904 195.055509651,1913.45079026 " moovel_rot="79.1" moovel_centroid="184.694099212,1915.58223599" moovel_centroidlatlon="13.39765210170201,52.49413603926158"></polygon></g><g transform="translate(-231.8228805 -1752.1467051) rotate(0)"><polygon id="376568458" class="tile" points="494.713595491,2053.23520483 495.425381424,2111.6472575 503.975113713,2109.62194532 504.158371721,2068.48180891 504.16042781,2052.75055229 494.713595491,2053.23520483 " moovel_rot="42.6" moovel_centroid="499.557046465,2081.33012321" moovel_centroidlatlon="13.505197796539255,52.63110197144844"></polygon></g><g transform="translate(71.81407770000001 -778.7436720999999) rotate(0)"><polygon id="78630813" class="tile" points="37.0655602298,1458.83383007 48.2203620761,1458.83433315 48.623429831,1444.4637198 51.6663433659,1444.512756 51.7092316288,1441.5724439 62.3431024331,1441.74056862 62.3282124355,1427.28029356 59.0361118789,1427.27839041 37.0471877831,1427.27912948 37.0655602298,1458.83383007 " moovel_rot="12.1" moovel_centroid="47.3133983679,1440.01693305" moovel_centroidlatlon="13.157139366217825,52.41891658762171"></polygon></g><g transform="translate(-263.5337784 -1463.093742) rotate(0)"><polygon id="42484812" class="tile" points="332.211085433,1574.9155581 343.644514141,1573.35226327 343.653786318,1621.53875954 340.824089443,1619.97434934 331.407562568,1616.15229279 332.211085433,1574.9155581 " moovel_rot="77.4" moovel_centroid="337.874259805,1596.70563102" moovel_centroidlatlon="13.605772778519599,52.52839036224142"></polygon></g><g transform="translate(-396.35453349999995 -796.2299231) rotate(0)"><polygon id="94718623" class="tile" points="525.949042053,1575.61988919 532.284135037,1577.40502395 534.333019546,1573.35226327 543.298268952,1575.70850997 541.993495882,1581.34809874 541.42999194,1605.24062822 546.255681203,1605.36813032 546.255535752,1608.51432378 541.361661536,1608.56622473 525.648169804,1607.3581953 525.949042053,1575.61988919 " moovel_rot="-89.2" moovel_centroid="534.268293143,1591.90980989" moovel_centroidlatlon="13.5914757714197,52.50478602402444"></polygon></g><g transform="translate(-31.26971089999995 -810.306564) rotate(0)"><polygon id="259080601" class="tile" points="289.31971624,1901.2144857 285.304949546,1930.05965362 268.511251776,1928.16554397 268.476780399,1920.57176899 269.612036566,1920.57280482 269.610724486,1917.00007276 268.477230565,1917.00547943 268.44803245,1909.38948807 269.574492248,1909.39985491 269.573180721,1905.8271227 268.446720716,1905.81675591 268.447393982,1898.06102536 289.31971624,1901.2144857 " moovel_rot="74.7" moovel_centroid="278.01724972,1913.84033941" moovel_centroidlatlon="13.455273881019716,52.51233558395307"></polygon></g><g transform="translate(-237.11991209999996 -1437.0063307) rotate(0)"><polygon id="404737940" class="tile" points="424.49878204,1573.35226327 441.059135776,1573.37278521 441.045036326,1606.0867617 424.484685424,1606.06622226 424.49878204,1573.35226327 " moovel_rot="9.2" moovel_centroid="432.77191063,1589.71950765" moovel_centroidlatlon="13.516151050000001,52.5127525"></polygon></g><g transform="translate(-74.3962852 -1633.9956813999997) rotate(0)"><polygon id="88628594" class="tile" points="298.85810348,2083.54280812 281.974739681,2083.54023986 281.977227439,2052.75055229 298.860591303,2052.75312321 298.85810348,2083.54280812 " moovel_rot="-1.4" moovel_centroid="290.417665354,2068.14668086" moovel_centroidlatlon="13.3529334,52.4134149"></polygon></g><g transform="translate(-179.24817480000002 -259.8000906000001) rotate(0)"><polygon id="128278992" class="tile" points="196.404674341,1201.0 197.599844362,1235.76437835 188.309336725,1236.05421347 182.194884831,1235.92726601 182.616195364,1226.37940611 182.237165444,1201.01893416 196.404674341,1201.0 " moovel_rot="76.9" moovel_centroid="189.709549099,1218.6868051384106" moovel_centroidlatlon="13.273058194932595,52.54166218150305"></polygon></g><g transform="translate(197.66679530000002 -1561.3062718) rotate(0)"><polygon id="376561180" class="tile" points="62.2715457548,2219.8458068 52.7415344893,2220.12284927 52.716375842,2266.5283919 62.9644523266,2266.48609808 63.4973175388,2264.17621086 62.2715457548,2219.8458068 " moovel_rot="20.6" moovel_centroid="57.8260325434,2243.71215511" moovel_centroidlatlon="13.514869319750899,52.641057587895915"></polygon></g><g transform="translate(-347.72140089999994 -1733.8205070000001) rotate(0)"><polygon id="52108504" class="tile" points="552.761993571,2052.78147671 542.20134765,2052.75055229 542.184942417,2069.17648622 542.174152499,2082.22091293 542.16908193,2091.29458352 542.168376718,2092.398764 542.168206735,2095.25347001 552.732780225,2095.28979698 552.761993571,2052.78147671 " moovel_rot="53.6" moovel_centroid="547.464839882,2074.02069022" moovel_centroidlatlon="13.446531986623762,52.44308838068334"></polygon></g><g transform="translate(-290.78890179999996 -1632.9261887) rotate(0)"><polygon id="435776217" class="tile" points="324.483144428,2219.8458068 324.466747484,2318.62165549 326.632181599,2316.42174049 326.579443326,2222.15096697 324.483144428,2219.8458068 " moovel_rot="-68.9" moovel_centroid="325.532137855,2269.52401236" moovel_centroidlatlon="13.277430942698556,52.58964850343714"></polygon></g><g transform="translate(-317.66895550000004 -1995.8198538000001) rotate(0)"><polygon id="164244566" class="tile" points="540.796878341,2053.10979613 541.168206735,2088.9386432 529.057056561,2089.54150305 529.082324113,2052.75055229 540.796878341,2053.10979613 " moovel_rot="49.1" moovel_centroid="535.000409568,2071.18728509" moovel_centroidlatlon="13.374559254210803,52.47495093577881"></polygon></g><g transform="translate(59.4863177 -957.9587425999998) rotate(0)"><polygon id="9871973" class="tile" points="181.190286286,1211.22505262 181.194884831,1231.55983588 164.799688983,1230.94189464 164.841373613,1220.82152813 164.982887466,1206.36025206 165.016497973,1201.0 174.433831043,1201.03917441 175.731522319,1201.09775632 175.925704321,1208.76169919 175.975701017,1211.01436316 181.190286286,1211.22505262 " moovel_rot="56.7" moovel_centroid="172.400303357,1217.421342319087" moovel_centroidlatlon="13.307764185202148,52.57445695596893"></polygon></g><g transform="translate(-115.78929949999997 -333.6483436000001) rotate(0)"><polygon id="271845187" class="tile" points="396.107573292,1427.39729102 378.493492988,1427.27839041 378.460519014,1430.28063544 378.145632726,1439.34270171 387.582357539,1452.57661288 398.34678019,1452.8189271 398.358349309,1430.29120955 398.367982038,1427.39382412 396.107573292,1427.39729102 " moovel_rot="-83.3" moovel_centroid="389.286356319,1438.89354367" moovel_centroidlatlon="13.341422539252159,52.51886432359782"></polygon></g><g transform="translate(-80.360138 -720.4110085) rotate(0)"><polygon id="106989148" class="tile" points="290.32442473,1898.07979898 309.303560342,1898.06102536 309.300956888,1920.38586568 290.31971624,1920.41097814 290.32442473,1898.07979898 " moovel_rot="-71.4" moovel_centroid="299.811715655,1909.23462382" moovel_centroidlatlon="13.185838019889808,52.527042003270225"></polygon></g><g transform="translate(-330.66196419999994 -1035.0546024) rotate(0)"><polygon id="302584518" class="tile" points="554.325324534,1573.59015132 574.640411779,1573.35226327 574.62056067,1594.35506148 560.093219078,1594.4101423 560.021660116,1589.57883869 554.57724227,1589.56782613 554.325324534,1573.59015132 " moovel_rot="-88.9" moovel_centroid="565.056007034,1583.36116781" moovel_centroidlatlon="13.142905020293998,52.53414643480459"></polygon></g><g transform="translate(-259.7353224 -1269.6523449000001) rotate(0)"><polygon id="38693121" class="tile" points="337.839186922,2052.81199297 345.883808021,2052.75055229 352.928973556,2053.20259581 352.111671274,2078.58833309 337.841736707,2077.76765897 337.839186922,2052.81199297 " moovel_rot="84.8" moovel_centroid="345.206694251,2065.40878576" moovel_centroidlatlon="13.260122819305263,52.59122359077489"></polygon></g><g transform="translate(-103.88893269999997 -248.94096960000002) rotate(0)"><polygon id="183197784" class="tile" points="355.289118806,1435.31047169 355.141546835,1440.19023406 356.688524553,1439.82857924 358.159845199,1439.47931667 358.96082604,1445.51741049 357.488517729,1445.75760151 350.412804657,1446.90497194 337.829699926,1448.97376005 337.847690832,1427.41981121 354.23270465,1427.27839041 354.404397953,1435.27751693 355.289118806,1435.31047169 " moovel_rot="-25.9" moovel_centroid="346.75687322,1437.89305787" moovel_centroidlatlon="13.328765597310326,52.52157451943751"></polygon></g><g transform="translate(174.88377459999998 -253.22972689999983) rotate(0)"><polygon id="110663432" class="tile" points="85.1501004619,1427.29087525 96.56202466,1427.27839041 96.5668269326,1434.16524875 102.047589551,1434.15262973 102.057584547,1450.98630414 85.1675351391,1451.02206528 85.1501004619,1427.29087525 " moovel_rot="-13.9" moovel_centroid="93.01109093,1440.01827912" moovel_centroidlatlon="13.321649771315276,52.56699765865454"></polygon></g><g transform="translate(-89.2213298 -81.60649680000006) rotate(0)"><polygon id="273078886" class="tile" points="272.162969631,1228.1751742 272.163799208,1218.8228981 280.980038457,1218.82265437 280.977993961,1213.69230653 280.975214064,1201.0 284.289544291,1201.00226983 290.327479972,1201.00376026 290.331476007,1228.17869071 283.516927324,1228.17739573 280.935469478,1228.17569394 274.164647199,1228.17363572 272.162969631,1228.1751742 " moovel_rot="-91.0" moovel_centroid="283.428984761,1216.7721044065427" moovel_centroidlatlon="13.373192856146016,52.46873238388969"></polygon></g><g transform="translate(6.709023899999977 -1206.672568) rotate(0)"><polygon id="270466537" class="tile" points="249.827452436,1573.37614717 266.232196212,1573.35226327 266.234465261,1595.25447825 249.83310378,1595.28877179 249.827452436,1573.37614717 " moovel_rot="-18.0" moovel_centroid="258.031154468,1584.31754004" moovel_centroidlatlon="13.36118099249559,52.415916730094125"></polygon></g><g transform="translate(-18.625967999999993 -1553.1322059) rotate(0)"><polygon id="135458574" class="tile" points="70.204592383,1925.76705735 82.5826228182,1925.77343878 82.5995916805,1898.06740683 70.2215629128,1898.06102536 70.204592383,1925.76705735 " moovel_rot="-91.3" moovel_centroid="76.402092447,1911.91723239" moovel_centroidlatlon="13.3036929,52.48791359999999"></polygon></g><g transform="translate(48.575898300000006 -2205.0743786000003) rotate(0)"><polygon id="221239512" class="tile" points="64.4973175388,2219.885658 72.4440940125,2219.8458068 84.5644421882,2220.10129375 84.5334576877,2229.11559436 76.9356418092,2232.20085533 69.0497032172,2244.58630478 64.5288216992,2244.19307587 64.4973175388,2219.885658 " moovel_rot="14.0" moovel_centroid="72.5699282381,2229.36426372" moovel_centroidlatlon="13.468088904157655,52.54717558121081"></polygon></g><g transform="translate(-188.97317049999998 -1550.5305939) rotate(0)"><polygon id="272528137" class="tile" points="325.0056351,2080.6988811 324.999251987,2052.75055229 314.755076683,2052.75058639 314.761455043,2080.69891559 325.0056351,2080.6988811 " moovel_rot="-94.6" moovel_centroid="319.880354692,2066.72473492" moovel_centroidlatlon="13.309932300000003,52.547115899999994"></polygon></g><g transform="translate(-58.839146099999994 -2213.5052349) rotate(0)"><polygon id="81717305" class="tile" points="85.5644421882,2237.94848948 85.5655955856,2223.90048118 89.4379218835,2219.85979651 103.005087563,2219.8458068 103.009766412,2237.71486303 85.5644421882,2237.94848948 " moovel_rot="-89.1" moovel_centroid="94.4583404187,2229.03907306" moovel_centroidlatlon="13.300093966196199,52.62243934834983"></polygon></g><g transform="translate(-31.7653381 -1760.7552842999999) rotate(0)"><polygon id="49939481" class="tile" points="73.3370236919,2459.57774394 78.6872444906,2459.17660704 85.1083447235,2459.31435241 85.0489614462,2469.07601356 85.0917151787,2482.84761014 73.3821835224,2483.25188552 73.3370236919,2459.57774394 " moovel_rot="-18.7" moovel_centroid="79.2098197503,2471.16881003" moovel_centroidlatlon="13.3780443460381,52.50553549296492"></polygon></g><g transform="translate(-11.513837900000006 -894.1533133) rotate(0)"><polygon id="340087728" class="tile" points="66.6853583201,2064.20907486 66.6845912974,2061.21993499 65.0986537612,2061.21787034 65.0958768579,2055.90978609 66.7150021374,2055.91557315 66.7138001616,2052.75055229 61.8739022818,2052.75713029 61.8732215201,2092.66962683 61.8748234122,2094.15333466 64.6580687191,2094.14684185 71.8686327625,2086.96655649 66.7263938803,2086.97218503 66.7276242705,2083.78547913 65.1284117367,2083.78192463 65.1322696278,2078.47460942 66.7248446389,2078.47741921 66.7216420101,2075.50999325 66.7225271293,2072.68588288 65.2705578398,2072.68785562 65.2669083779,2067.02803304 66.6844726513,2067.03319013 66.6853583201,2064.20907486 " moovel_rot="6.4" moovel_centroid="64.3446113674,2074.81445994" moovel_centroidlatlon="13.404687872339641,52.40481850258819"></polygon></g><g transform="translate(-405.1780088 -1905.2382155) rotate(0)"><polygon id="226982006" class="tile" points="544.675839227,2246.3201028 544.566253707,2219.95721081 546.600542431,2219.940398 554.474884916,2219.8458068 554.463752638,2228.69314983 554.44331836,2246.04524371 546.685854138,2246.26329447 544.675839227,2246.3201028 " moovel_rot="-76.8" moovel_centroid="549.534843319,2233.01232" moovel_centroidlatlon="13.56718579103346,52.406150108875806"></polygon></g><g transform="translate(25.21253039999999 -821.7969167999998) rotate(0)"><polygon id="291492912" class="tile" points="201.030704431,1599.09350244 201.040844522,1573.35226327 188.105739183,1584.56704552 189.748946334,1599.83526399 201.030704431,1599.09350244 " moovel_rot="51.4" moovel_centroid="195.436191448,1588.69538134" moovel_centroidlatlon="13.622691976513249,52.442990849559266"></polygon></g><g transform="translate(-296.7765368 -1110.5684445999998) rotate(0)"><polygon id="274354441" class="tile" points="367.899527381,2053.32944669 367.07968719,2071.38558524 360.587010651,2071.07920454 353.978726743,2072.41813486 353.928973556,2052.75055229 367.899527381,2053.32944669 " moovel_rot="18.8" moovel_centroid="360.628271794,2062.1691214" moovel_centroidlatlon="13.519869994200358,52.41520743985758"></polygon></g><g transform="translate(-461.03497919999995 -389.9081993) rotate(0)"><polygon id="149277988" class="tile" points="575.640411779,1573.37903283 575.648594897,1589.90824088 590.925581032,1589.8814617 590.917399782,1573.35226327 575.640411779,1573.37903283 " moovel_rot="-11.0" moovel_centroid="583.282996132,1581.6302495" moovel_centroidlatlon="13.522062950000002,52.49064425"></polygon></g><g transform="translate(-349.0903369 -1355.2070758) rotate(0)"><polygon id="238015220" class="tile" points="408.978060205,1449.35450506 399.367982038,1449.2985016 399.481968574,1427.27839041 408.969469792,1427.46197408 408.978060205,1449.35450506 " moovel_rot="-12.3" moovel_centroid="404.194634618,1438.37171231" moovel_centroidlatlon="13.431574756194607,52.513241925645666"></polygon></g><g transform="translate(-226.1964843 -1767.6543158) rotate(0)"><polygon id="234971745" class="tile" points="308.765739501,2052.75812708 313.736535881,2052.75055229 313.755076683,2085.80190736 308.79156114,2085.79890711 308.765739501,2052.75812708 " moovel_rot="3.2" moovel_centroid="311.262358008,2069.2733329" moovel_centroidlatlon="13.43725812356171,52.57438556186419"></polygon></g><g transform="translate(-233.07451830000002 -483.1321687999998) rotate(0)"><polygon id="380426779" class="tile" points="310.403155544,1573.38606397 308.02363084,1573.35226327 308.039201778,1616.97875239 310.443716399,1616.90713198 310.403155544,1573.38606397 " moovel_rot="73.0" moovel_centroid="309.226969282,1595.19409494" moovel_centroidlatlon="13.364513592801908,52.50336756936602"></polygon></g><g transform="translate(-303.3623727 -2162.5275704) rotate(0)"><polygon id="299679054" class="tile" points="484.448354996,2219.8458068 484.450175421,2246.96545539 477.232025989,2244.99154229 478.047530942,2226.06043799 484.448354996,2219.8458068 " moovel_rot="-5.7" moovel_centroid="481.248934469,2234.6732361" moovel_centroidlatlon="13.30149868687178,52.494877378359014"></polygon></g><g transform="translate(-107.58531430000001 -1400.0227553999998) rotate(0)"><polygon id="165941675" class="tile" points="228.988133533,2219.91312074 223.030017891,2219.8458068 223.084725297,2246.15072852 228.58562558,2246.1478423 228.988133533,2219.91312074 " moovel_rot="-2.2" moovel_centroid="225.922054013,2232.83950208" moovel_centroidlatlon="13.306830599435825,52.57145814406416"></polygon></g><g transform="translate(-74.81850569999999 -1660.8127891000001) rotate(0)"><polygon id="320429983" class="tile" points="173.740291846,1898.07019279 173.74090316,1906.81722348 173.745659924,1913.54219449 163.255497757,1913.53302129 163.250128639,1898.06102536 173.740291846,1898.07019279 " moovel_rot="10.2" moovel_centroid="168.497289001,1905.80156889" moovel_centroidlatlon="13.432971240971677,52.4767720493745"></polygon></g><g transform="translate(-442.3978111 -1349.5116289) rotate(0)"><polygon id="162789813" class="tile" points="466.877020512,1898.06102536 476.838048732,1898.08534589 476.84421217,1912.93876223 466.887074425,1912.91987086 466.877020512,1898.06102536 " moovel_rot="54.5" moovel_centroid="471.861285872,1905.50076717" moovel_centroidlatlon="13.355268116480383,52.480763100301836"></polygon></g><g transform="translate(-337.0603178 -1684.6773237000002) rotate(0)"><polygon id="244081951" class="tile" points="476.232025989,2219.85096577 476.22765679,2243.91919166 471.057009302,2243.90410461 471.056727851,2219.8458068 476.232025989,2219.85096577 " moovel_rot="25.1" moovel_centroid="473.643533155,2231.87821509" moovel_centroidlatlon="13.609257190978461,52.53596654057483"></polygon></g><g transform="translate(2.5 -2045.5985107999998) rotate(0)"><polygon id="106369172" class="tile" points="12.073651264,2052.76098876 0.00201350301504,2052.75055229 0.0,2065.03602173 12.0607135579,2065.0470116 12.073651264,2052.76098876 " moovel_rot="-92.9" moovel_centroid="6.034141231188547,2058.89771675" moovel_centroidlatlon="13.311913113825558,52.48156837414537"></polygon></g><g transform="translate(-447.95210069999996 -862.9316569) rotate(0)"><polygon id="242117035" class="tile" points="546.966751133,1201.01783663 546.975285528,1216.27478364 548.454180856,1216.27406195 555.899810126,1216.25500903 555.946782642,1204.85620429 555.88488389,1201.0 553.556327989,1201.00578009 546.966751133,1201.01783663 " moovel_rot="-16.8" moovel_centroid="551.446023046,1208.6346205066982" moovel_centroidlatlon="13.388050740434748,52.49239433212512"></polygon></g><g transform="translate(-406.45582770000004 -1552.5141445000002) rotate(0)"><polygon id="409588145" class="tile" points="543.086777906,2219.8458068 538.454396001,2221.96265051 538.455215894,2239.96314867 538.740932621,2240.8113512 539.331673025,2241.29693026 539.935459487,2241.24799348 543.566253707,2238.92764014 543.086777906,2219.8458068 " moovel_rot="78.4" moovel_centroid="540.896756821,2230.79272399" moovel_centroidlatlon="13.371513755751288,52.45289534312551"></polygon></g><g transform="translate(-470.43208150000004 -1567.0174024) rotate(0)"><polygon id="201855216" class="tile" points="519.618598211,1591.42152644 519.598022749,1573.35438148 524.63855197,1573.35226327 524.648169804,1591.41942735 519.618598211,1591.42152644 " moovel_rot="-90.1" moovel_centroid="522.125833283,1582.38362305" moovel_centroidlatlon="13.359393349056878,52.552930574969714"></polygon></g><g transform="translate(-347.8859056 -1187.06204) rotate(0)"><polygon id="380630668" class="tile" points="456.923057853,1427.27839041 456.923730932,1443.89489149 451.813222831,1443.90335972 451.812549744,1427.28685829 456.923057853,1427.27839041 " moovel_rot="-1.2" moovel_centroid="454.368140331,1435.59087498" moovel_centroidlatlon="13.342844849999997,52.526893999999984"></polygon></g><g transform="translate(42.1555597 -1269.6378628000002) rotate(0)"><polygon id="396521203" class="tile" points="49.8315949472,2459.17660704 49.8276640894,2467.16133256 55.9716482338,2469.8472228 56.2004164583,2462.10887514 49.8315949472,2459.17660704 " moovel_rot="-32.0" moovel_centroid="52.9486017854,2464.5454403" moovel_centroidlatlon="13.329652680515222,52.46612966238245"></polygon></g><g transform="translate(-103.2834336 -469.34406160000003) rotate(0)"><polygon id="276427793" class="tile" points="149.285119142,1201.00928048 149.286871963,1211.32885966 144.809124282,1211.31957849 144.807369015,1201.0 149.285119142,1201.00928048 " moovel_rot="74.1" moovel_centroid="147.047121126,1206.1644291880657" moovel_centroidlatlon="13.31865195,52.52788564999999"></polygon></g><g transform="translate(-43.89034790000001 -1315.7205571) rotate(0)"><polygon id="380301548" class="tile" points="133.9837815,1898.0704977 133.983622487,1906.45496776 128.621267985,1906.44461086 128.628047335,1898.06102536 133.9837815,1898.0704977 " moovel_rot="7.6" moovel_centroid="131.304225935,1902.25863866" moovel_centroidlatlon="13.571093027392681,52.40597454222057"></polygon></g><g transform="translate(-216.6459351 -1133.6378740999999) rotate(0)"><polygon id="389422340" class="tile" points="219.148643836,2219.8458068 222.030017891,2221.36279061 222.028785465,2232.13731529 219.145930395,2233.59865747 219.148643836,2219.8458068 " moovel_rot="-0.1" moovel_centroid="220.530015605,2226.73593476" moovel_centroidlatlon="13.483065301712704,52.52117355282702"></polygon></g><g transform="translate(-521.0714114 -1662.5254314000001) rotate(0)"><polygon id="199202469" class="tile" points="523.573847723,2057.75957412 523.571409137,2052.76047761 528.054619005,2052.75055229 528.057056561,2057.74964855 523.573847723,2057.75957412 " moovel_rot="-76.6" moovel_centroid="525.814233088,2055.25506304" moovel_centroidlatlon="13.312099050000006,52.529963800000004"></polygon></g></g><g transform="translate(0 1327.7)"><polygon id="7" class="bin" points="-152.228723946,57.6918540301 -157.073779956,55.6379566449 -175.310125249,55.4433136057 -178.693393389,53.2244024486 -178.92395845,52.7088207367 -182.888388178,51.088022227 -206.82959918,50.9201831681 -211.012368859,52.6911861742 -211.710974788,54.5744444928 -213.744553607,56.7148043774 -216.006676715,57.6882596463 -217.660762641,61.6979167524 -217.84736404,101.608778922 -218.535309769,103.756095959 -220.33031397,105.120720341 -220.95442818,105.344764585 -222.764354129,109.52298162 -222.776038726,229.153260958 -221.08032219,233.22881129 -216.993783481,234.897872842 -187.676190374,234.703521866 -185.00105948,235.800411423 -183.90139016,238.474400838 -183.919373904,241.691652283 -184.200619053,292.391080934 -182.494286773,296.506681266 -178.357816185,298.16177855 -165.564676474,297.931930501 -162.862801663,299.012645895 -161.747361304,301.700370967 -162.206925482,392.185681785 -163.305372643,394.818432601 -165.938244364,395.916589934 -178.197551418,395.977503924 -182.236512468,397.664015109 -183.917057843,401.705462076 -184.064332691,443.878482057 -182.241737936,448.087485838 -177.914387192,449.607880523 -167.011955235,448.796712351 -164.278357615,449.701993908 -162.992585451,452.278596436 -162.795147059,455.1440032 -159.167102519,462.588976452 -158.840729879,464.85758509 -159.895538048,466.892403013 -193.315528144,500.085346231 -195.302074569,505.383676548 -193.856448618,525.603615353 -193.643027166,526.879939139 -188.321992857,546.882840521 -187.462548867,548.829982081 -164.991161914,583.784867529 -149.394212821,607.868439801 -148.828389141,610.429454794 -150.07905409,612.734837933 -152.534419796,613.656864767 -161.924285332,613.6753402 -165.993928712,615.376907747 -167.657341734,619.462294691 -167.598349239,627.445285274 -168.683907434,630.111896596 -171.339981702,631.222987061 -173.941586394,631.228721116 -177.995704562,632.915157185 -179.6755606,636.972006261 -179.750696367,766.173357221 -178.065323425,770.241846228 -173.994665967,771.921974977 -172.602103696,771.919370639 -169.750470793,773.225875088 -168.889063146,776.241955485 -182.482078245,864.221073096 -182.517274671,864.481862398 -185.865354111,893.464474474 -185.910754687,894.242391788 -185.980326683,938.256851488 -187.066944786,940.890795567 -189.691153103,942.000719446 -193.357226819,942.039013817 -197.383349119,943.743832468 -199.045778719,947.787641962 -199.037760792,1081.18719281 -197.132719766,1085.44700098 -192.68779131,1086.86747909 -183.087727532,1085.79593558 -180.153302608,1084.75665383 -169.657709298,1078.03509102 -169.33919493,1077.81828707 -164.264663734,1074.15197178 -152.205704519,1065.38145392 -149.609255945,1064.68458355 -147.213623634,1065.90446852 -146.2500005,1068.41417049 -146.2500005,1113.59572559 -148.522643828,1117.04245118 -149.766842883,1117.57574742 -151.403833879,1121.64827023 -151.391524005,1122.92559761 -152.482965133,1125.60663445 -155.158416462,1126.71169664 -174.170119079,1126.62517178 -174.418644787,1126.62853367 -198.817115913,1127.39988394 -198.912032192,1127.40168245 -229.179273973,1127.59200366 -233.237762988,1129.30708388 -234.887931937,1133.39239608 -234.570213866,1166.30532364 -232.831411935,1170.36729663 -228.722733953,1171.99266487 -206.487972505,1171.58991911 -206.445157614,1171.58938808 -161.289112024,1171.28714903 -158.633901279,1172.36404948 -157.514181794,1175.00148895 -157.241771207,1203.71442292 -158.327403665,1206.38904141 -160.991602448,1207.499999 -446.2499995,1207.499999 -448.901649929,1206.40164943 -449.9999995,1203.749999 -449.9999995,3.75 -448.901649929,1.09834957055 -446.2499995,0.0 -218.909234973,0.0 -216.259138105,1.09679691799 -215.159237546,3.74560714965 -215.127789802,30.591264631 -213.440190297,34.6521758499 -209.375422339,36.3304647014 -157.206476956,36.2720232675 -152.534783637,34.331043623 -151.770199599,33.4859814107 -149.270237082,33.1135619591 -147.101801678,34.4121753505 -146.2500005,36.7918693624 -146.2500005,54.8914765849 -147.103242555,57.2729243394 -149.274690317,58.5706646935 -151.776199493,58.1941447693 -152.228723946,57.6918540301 " moovel_rot="0" moovel_centroid="-317.44424515053896,611.0973389280133" moovel_centroidlatlon="0,0" transform="translate(450 0)"></polygon><g transform="translate(-342.1551432 -461.81210379999993) rotate(0)"><polygon id="81812034" class="tile" points="345.609526984,1573.35226327 344.653786318,1602.26154868 346.016534434,1661.8130012 350.351975461,1661.69766371 349.965023301,1603.44578296 350.354788748,1574.13869048 345.609526984,1573.35226327 " moovel_rot="22.3" moovel_centroid="347.696655545,1616.73323826" moovel_centroidlatlon="13.300071567221774,52.51828205557146"></polygon></g><g transform="translate(-313.7397424 -765.7332210000002) rotate(0)"><polygon id="31434337" class="tile" points="329.694978437,1933.31802482 329.976522126,1930.0982526 326.698409225,1929.75183529 326.673594037,1898.06102536 333.033837235,1898.28770733 337.373023516,1898.70199857 337.270741956,1902.60797376 342.607749562,1902.99494221 341.533676151,1935.22490074 332.430410787,1935.1401969 329.694978437,1933.31802482 " moovel_rot="-88.5" moovel_centroid="334.365388794,1916.63987671" moovel_centroidlatlon="13.294840348754356,52.53638246188314"></polygon></g><g transform="translate(-396.24779520000004 -1097.8743663) rotate(0)"><polygon id="387222698" class="tile" points="433.653160793,2220.78945311 434.343949367,2271.76054755 434.956227925,2278.17627244 435.643271208,2294.66110834 432.029254659,2298.42171812 430.0484323,2296.83812515 430.130902245,2219.8458068 433.653160793,2220.78945311 " moovel_rot="42.1" moovel_centroid="432.252192426,2261.72436102" moovel_centroidlatlon="13.426918024691105,52.43924030250356"></polygon></g><g transform="translate(-465.72598109999996 -804.7001899999998) rotate(0)"><polygon id="150637321" class="tile" points="478.1538345,1899.75305272 477.84421217,1910.75261129 478.693106961,1916.23847927 480.616762123,1920.17284098 483.634503942,1923.16520838 488.118404744,1924.8997098 496.143198707,1924.13561027 496.148274588,1898.06102536 478.1538345,1899.75305272 " moovel_rot="-42.9" moovel_centroid="487.641905284,1911.04155173" moovel_centroidlatlon="13.259043112114522,52.498488923978336"></polygon></g><g transform="translate(-289.8967596 -1158.9272141) rotate(0)"><polygon id="69678189" class="tile" points="323.466747484,2219.8458068 323.457267955,2248.52564179 299.430621536,2235.57828722 299.037381544,2230.63290476 323.466747484,2219.8458068 " moovel_rot="17.6" moovel_centroid="314.20140213,2233.73391712" moovel_centroidlatlon="13.294862245637638,52.484230992190064"></polygon></g><g transform="translate(-67.0006789 -1136.209746) rotate(0)"><polygon id="286081691" class="tile" points="104.021268392,2253.84586665 116.829193333,2257.00271934 117.73792454,2241.02260923 114.481487073,2219.8458068 107.416536085,2222.15621107 109.227643093,2228.35199956 104.009766412,2228.85977308 105.1694829,2244.00713536 104.021268392,2253.84586665 " moovel_rot="-82.9" moovel_centroid="111.082189307,2239.78966863" moovel_centroidlatlon="13.147736101133583,52.53473789113834"></polygon></g><g transform="translate(-139.4252811 -1094.1918945999998) rotate(0)"><polygon id="419952865" class="tile" points="187.680228178,2261.61432493 191.592590834,2258.67386084 192.00058794,2219.9475012 187.749859721,2219.90495035 182.319587349,2219.8458068 182.342578058,2254.86107373 187.680228178,2261.61432493 " moovel_rot="5.6" moovel_centroid="187.149114968,2239.36239296" moovel_centroidlatlon="13.372646276024204,52.5398608901526"></polygon></g><g transform="translate(-5.6277979999999985 -1001.0993669000002) rotate(0)"><polygon id="284527356" class="tile" points="60.8732215201,2053.19889202 59.8551539656,2083.80445123 44.2050742628,2070.95953854 44.1902076785,2052.75055229 60.8732215201,2053.19889202 " moovel_rot="78.4" moovel_centroid="52.9846765763,2065.36979682" moovel_centroidlatlon="13.217522151372078,52.52857639338577"></polygon></g><g transform="translate(-12.894933399999992 -1287.0157595) rotate(0)"><polygon id="128405111" class="tile" points="72.3370236919,2482.59571906 57.2004164583,2482.15776694 57.3086609219,2459.3191075 72.3053547149,2459.17660704 72.316606126,2468.19630385 72.3370236919,2482.59571906 " moovel_rot="-37.3" moovel_centroid="64.8190307306,2470.83065619" moovel_centroidlatlon="13.468652804624107,52.446832593618716"></polygon></g><g transform="translate(-313.8047414 -304.93594340000004) rotate(0)"><polygon id="207737371" class="tile" points="371.381496408,1427.27839041 371.360878505,1472.09263468 377.118383271,1472.1056525 377.12787658,1453.56921663 377.145632726,1427.29220438 371.381496408,1427.27839041 " moovel_rot="6.9" moovel_centroid="374.251147299,1449.68772044" moovel_centroidlatlon="13.22628346023428,52.513867140303326"></polygon></g><g transform="translate(-284.1256559 -827.6134586000001) rotate(0)"><polygon id="381334987" class="tile" points="348.46766855,1945.61416087 348.530803521,1898.06102536 343.607749562,1902.69757941 343.670238451,1940.8810632 348.46766855,1945.61416087 " moovel_rot="72.6" moovel_centroid="346.15765205,1921.72205282" moovel_centroidlatlon="13.381241615643859,52.49425124681306"></polygon></g><g transform="translate(-199.64177270000002 -535.4946299000001) rotate(0)"><polygon id="319689976" class="tile" points="202.046013376,1595.746554 212.927679146,1599.92483948 217.83176878,1583.39235011 211.522762202,1582.77676383 212.875610621,1575.48019647 204.749969117,1573.35226327 202.040844522,1581.22710847 205.454889597,1583.78660958 202.046013376,1595.746554 " moovel_rot="80.8" moovel_centroid="209.189957382,1586.90207819" moovel_centroidlatlon="13.405579985275972,52.425822486771686"></polygon></g></g></svg>