<svg><g transform="translate(0 0)"><polygon id="8" class="bin" points="-170.24183654,1021.76382594 -170.376696422,1022.09152297 -171.758163464,1023.78041119 -173.845955428,1024.41438227 -176.335721554,1024.41342634 -181.833665573,1026.68770011 -181.911752966,1026.49892771 -183.512476707,1027.56832059 -190.034753322,1027.57158222 -194.099119064,1029.25891615 -195.777480963,1033.32699506 -195.777064843,1033.57085237 -196.407709003,1035.6586339 -198.093451943,1037.04240213 -199.957216008,1037.81348143 -201.639672042,1041.88199127 -201.634760238,1046.41400991 -201.615067117,1074.37012807 -201.579781199,1111.58527926 -201.560045884,1131.4473807 -201.523592415,1153.97547131 -199.786323758,1158.14999285 -199.498897564,1159.64644722 -200.154193735,1203.80564064 -201.271876296,1206.42124928 -203.903780914,1207.499999 -446.2499995,1207.499999 -448.901649929,1206.40164943 -449.9999995,1203.749999 -449.9999995,3.75 -448.901649929,1.09834957055 -446.2499995,0.0 -160.991602439,0.0 -158.352560029,1.08580121684 -157.241771197,3.71442391671 -156.95297728,34.154212471 -155.235309876,38.1975680341 -151.163213874,39.8459428911 -150.028459661,39.8373308691 -147.358431066,40.9255296334 -146.2500005,43.5872228777 -146.2500005,65.1585994225 -147.337565556,67.7994212964 -149.969435257,68.9084748559 -151.74796334,68.9229716422 -155.79408881,70.6357477416 -157.44734908,74.7065540223 -157.332701004,92.3078372429 -158.52177967,95.0717133569 -161.359433901,96.0720321615 -162.926251808,95.9560585132 -193.678154285,93.6839464015 -198.000236468,95.2021027243 -199.825890592,99.4035524785 -199.778459503,128.505014764 -199.778455023,128.513063924 -199.793706931,158.037132536 -199.784682372,187.374549992 -199.764966512,197.503884743 -199.742468311,217.190328509 -199.676542582,245.591024457 -199.676532797,245.59818394 -199.664137872,275.677846774 -199.634139736,305.083214629 -199.609343343,334.104162422 -199.609342019,334.107943856 -199.613796444,363.041526752 -199.60392616,365.761841233 -199.557448404,378.828753646 -198.90075379,381.731682846 -194.740208855,390.537450157 -192.200487038,393.402874814 -179.397326695,401.461238176 -177.65419237,404.370596081 -178.970862595,407.49617766 -183.60800398,411.424692201 -188.08796166,425.900876801 -188.394797621,427.921272521 -188.59430142,579.955462841 -189.235364104,582.047451339 -190.934818988,583.425577001 -195.14977249,585.135168206 -196.856198583,589.204221469 -197.150054099,690.558974666 -195.150868489,695.394520995 -153.547812794,736.867118815 -152.51566753,738.799856845 -152.739711463,740.979444985 -153.670649968,743.18809828 -153.72979878,787.315478435 -154.857760647,789.991390857 -157.558068011,791.05963493 -191.640783692,790.348081846 -195.787608684,791.996934765 -197.499475121,796.118146573 -196.600715579,955.702308557 -194.9226386,959.729632628 -190.900154117,961.419277596 -173.81828121,961.564578238 -171.183929998,962.677470577 -170.100190093,965.32394814 -170.223906033,1014.13047058 -168.838060966,1017.50004747 -168.842545687,1020.36366166 -170.24183654,1021.76382594 " moovel_rot="0" moovel_centroid="-319.09495818953735,599.3345725840459" moovel_centroidlatlon="0,0" transform="translate(450 0)"></polygon><g transform="translate(-62.42066959999997 -809.2690337999998) rotate(0)"><polygon id="10976466" class="tile" points="84.1207501458,2008.041895 64.9380419858,2007.23063012 64.9206701356,1867.1891694 120.653858705,1868.03105918 121.731650479,1793.64994356 114.27006784,1793.11486407 115.128341525,1750.21041844 115.159864799,1748.91099118 145.865453794,1748.32186286 151.645869942,1868.49964319 194.236653016,1869.14032675 195.822902864,1915.30004141 204.378454397,1916.22267082 203.916659745,2009.26912221 84.1207501458,2008.041895 " moovel_rot="44.1" moovel_centroid="133.154126986,1918.53968257" moovel_centroidlatlon="13.51102246066732,52.63297992661535"></polygon></g><g transform="translate(-62.023762500000004 -1248.8105213000003) rotate(0)"><polygon id="185607486" class="tile" points="217.275006959,2309.31553282 204.779052762,2309.29242144 204.776276716,2306.28647396 204.772421895,2303.4013782 170.966137616,2303.33730703 170.918633187,2218.63225734 151.880626237,2218.58977928 151.9378096,2218.3466855 151.850032886,2152.86294395 164.671885786,2152.88970571 170.312625944,2152.90526981 204.076996541,2152.9687592 204.073443732,2149.10640506 204.075655275,2146.01931464 217.193786807,2146.047831 217.228707476,2224.50667059 217.230326897,2230.00750879 217.275006959,2309.31553282 " moovel_rot="51.2" moovel_centroid="189.535247162,2221.66913787" moovel_centroidlatlon="13.358131988217668,52.47567984121978"></polygon></g><g transform="translate(159.0935991 -373.52870659999996) rotate(0)"><polygon id="141520975" class="tile" points="1.54941088036,1501.2871836 1.0,1573.05227033 6.77807226144,1573.5374452 6.96105727274,1544.03980184 21.6478251182,1543.97754564 20.725708943,1440.1070213 21.0716190301,1386.97553594 21.0313010896,1259.45392215 8.87025689948,1259.72384673 9.29190260246,1201.55957324 4.04684340078,1201.0 1.11671053115,1352.72938354 1.54941088036,1501.2871836 " moovel_rot="-54.9" moovel_centroid="10.837795309583996,1398.3255075389625" moovel_centroidlatlon="13.590342755320059,52.4464150829888"></polygon></g><g transform="translate(-103.640327 -1205.4521444000002) rotate(0)"><polygon id="144070400" class="tile" points="108.77217557,2009.96350283 159.45302874,2009.26912221 189.442079728,2018.79763136 185.875364157,2027.96472868 183.95683144,2033.46431613 182.351099505,2038.64218256 180.936074406,2043.86039564 180.155999469,2047.08371808 179.062157044,2046.9454087 179.12089833,2046.33535712 174.806043474,2045.50208214 155.056258777,2041.83023388 155.102367171,2040.72420005 129.625998172,2033.80721832 129.350651094,2034.29746095 130.467965712,2073.21652652 128.55359085,2073.30706091 128.760537026,2080.07773395 147.865890511,2080.47706522 148.235929844,2097.19162168 155.28461243,2097.29861034 155.521708046,2081.03832145 157.94788609,2060.16207139 165.880854682,2060.98090311 173.279142326,2061.63830346 182.540391213,2062.5300603 182.875589354,2086.15700152 184.189537543,2091.18715014 185.396340417,2095.23944588 186.08266983,2097.2405936 186.73854926,2099.13985659 188.348823882,2103.46188365 189.507654162,2107.03678073 106.565785755,2126.95471521 106.137467462,2064.99159293 108.77217557,2009.96350283 " moovel_rot="5.5" moovel_centroid="142.490726491,2065.99950551" moovel_centroidlatlon="13.389655418749639,52.4988405665609"></polygon></g><g transform="translate(-358.5065094 -1435.354013) rotate(0)"><polygon id="30014499" class="tile" points="579.627340781,2504.53233281 543.325811631,2501.93562222 544.258669865,2310.30723595 574.497876322,2309.31553282 574.392487089,2321.62885034 579.478786377,2321.69031415 578.992678391,2377.2752481 573.894070785,2377.21724568 573.749354836,2393.82958879 568.114031462,2398.54876097 573.665074436,2403.49539811 573.512894383,2420.60732095 578.798629988,2420.65985121 579.627340781,2504.53233281 " moovel_rot="42.8" moovel_centroid="560.83528015,2408.09630072" moovel_centroidlatlon="13.363164066255703,52.4491646720831"></polygon></g><g transform="translate(-276.359017 -1461.7679309999999) rotate(0)"><polygon id="147396386" class="tile" points="465.170466817,2178.13664841 468.486709169,2229.29055085 457.622036256,2231.52114984 444.538325052,2234.20678883 432.609875496,2236.44057479 435.685312646,2286.8661777 396.836593743,2278.23693384 366.985550331,2274.34286211 366.9378538,2217.11331829 367.700162321,2146.01931464 374.273153601,2146.38930294 374.572077847,2217.97116801 380.405957923,2218.16954682 391.588238788,2218.28635046 435.326767398,2218.50726648 438.227078507,2218.52579187 437.69908014,2174.52718902 465.170466817,2178.13664841 " moovel_rot="-16.3" moovel_centroid="412.42299718,2232.29964732" moovel_centroidlatlon="13.359264712234623,52.50136517906841"></polygon></g><g transform="translate(-50.19160339999999 -1667.6321666) rotate(0)"><polygon id="32400256" class="tile" points="250.412068745,2311.78334901 153.324630733,2309.31553282 153.370076112,2415.54415063 182.853440501,2415.23064566 183.173603651,2374.70372912 253.907688583,2376.45013995 253.866795898,2366.91324486 211.329843374,2365.7470318 212.217587168,2344.29880447 207.393263686,2343.93395663 207.916001717,2328.8992685 245.123698081,2329.6415523 250.412068745,2311.78334901 " moovel_rot="35.0" moovel_centroid="187.858092574,2352.60872442" moovel_centroidlatlon="13.330686909921399,52.60188157879556"></polygon></g><g transform="translate(-266.4127864 -948.8363192999999) rotate(0)"><polygon id="313252335" class="tile" points="309.058087235,1573.5374452 295.007599705,1577.92289572 296.125792847,1625.11043261 299.715627808,1625.57657392 294.935238821,1701.31176664 304.054749438,1701.88261118 300.531353681,1731.94537703 299.878567041,1735.57021442 313.989891946,1747.19927821 331.810091953,1748.32186286 333.630947245,1733.36310527 334.568335941,1719.10740448 335.566553675,1703.86903411 336.563375059,1688.51637981 339.224026356,1673.76721444 339.747644143,1659.48053173 351.231910217,1660.50344987 352.91236184,1630.13107779 342.385387047,1629.2000713 311.065969172,1626.43255929 309.058087235,1573.5374452 " moovel_rot="54.2" moovel_centroid="317.983573771,1669.78472296" moovel_centroidlatlon="13.320344619405924,52.5216526433455"></polygon></g><g transform="translate(196.9775848 -841.8376639999999) rotate(0)"><polygon id="10307269" class="tile" points="0.19404601939,1574.48831809 0.0,1711.42020443 40.2859969286,1709.57143484 38.8924104901,1573.5374452 0.19404601939,1574.48831809 " moovel_rot="-28.1" moovel_centroid="19.824836440570092,1642.71336616" moovel_centroidlatlon="13.547835646374121,52.54932983252995"></polygon></g><g transform="translate(-170.3485708 -683.7666037000001) rotate(0)"><polygon id="316872635" class="tile" points="268.329349061,1201.0 200.093231498,1293.62516662 268.487934551,1340.288473 268.329349061,1201.0 " moovel_rot="30.3" moovel_centroid="245.63683837,1278.3045465424657" moovel_centroidlatlon="13.362214100000001,52.6075303"></polygon></g><g transform="translate(-205.2519367 -1581.7434228000002) rotate(0)"><polygon id="442950295" class="tile" points="207.882233467,2510.95823788 228.14715732,2504.53233281 250.11335211,2613.7854137 247.764646076,2635.30105917 207.751867724,2628.047397 208.318553396,2554.94451154 207.882233467,2510.95823788 " moovel_rot="40.4" moovel_centroid="225.416276783,2576.95370165" moovel_centroidlatlon="13.236076013054534,52.42529891533859"></polygon></g><g transform="translate(-242.8997366 -1453.9567401000002) rotate(0)"><polygon id="165887141" class="tile" points="477.411741443,2091.680381 459.801328994,2132.70399927 426.544241758,2146.01931464 424.458664704,2140.59991681 420.39479772,2128.0500946 440.37274968,2120.12765506 442.345119536,2126.27086787 450.51191996,2123.64879511 463.533722539,2089.35965392 446.965679378,2095.0578796 444.151138822,2088.62385975 439.143729744,2073.17112952 431.849636888,2057.44943087 425.474213689,2039.92455878 421.684347934,2023.16897065 420.382554524,2019.29376251 444.570240747,2009.26912221 446.285623367,2013.32020054 477.411741443,2091.680381 " moovel_rot="72.2" moovel_centroid="447.933264646,2074.44762314" moovel_centroidlatlon="13.359474825788586,52.59640853947498"></polygon></g><g transform="translate(-225.1315785 -1254.4757926) rotate(0)"><polygon id="9874125" class="tile" points="373.070156244,1754.93519106 382.558276963,1748.95977359 397.761723569,1748.32186286 397.729512414,1883.9436552 392.086861684,1892.34309281 373.014066,1892.29561569 372.892268337,1827.12609401 373.070156244,1754.93519106 " moovel_rot="59.3" moovel_centroid="385.372148957,1820.66464869" moovel_centroidlatlon="13.275866513569976,52.50763246668804"></polygon></g><g transform="translate(-215.7053681 -1494.2501235999998) rotate(0)"><polygon id="26285205" class="tile" points="269.97608061,2014.06922381 246.362194097,2011.02723065 218.23155872,2009.26912221 218.20537425,2085.73460863 239.484656865,2088.95132995 238.576833013,2061.26636289 264.455193766,2060.41166877 266.790076037,2060.45734056 271.597173102,2060.40000597 269.97608061,2014.06922381 " moovel_rot="19.4" moovel_centroid="241.37921571,2042.78319847" moovel_centroidlatlon="13.454626456089,52.45249978004795"></polygon></g><g transform="translate(-336.0854539 -1484.2503241) rotate(0)"><polygon id="158419825" class="tile" points="424.81060594,2309.31553282 435.751087943,2309.32367745 472.606765267,2309.34420225 472.572648942,2359.50646987 472.571721784,2363.8645762 472.567067924,2370.35792256 425.599124348,2370.33069795 425.612235245,2355.16494681 420.182059644,2355.16641938 420.205969198,2326.15973137 424.801230779,2326.16775162 424.81060594,2309.31553282 " moovel_rot="0.1" moovel_centroid="447.636138906,2339.77892345" moovel_centroidlatlon="13.478198037605058,52.52257846114154"></polygon></g><g transform="translate(97.82389069999999 -1071.8535809999998) rotate(0)"><polygon id="48811575" class="tile" points="87.6766213094,2215.15526131 87.6975676005,2172.14823292 99.2523828161,2172.18712531 109.015431888,2172.21296619 109.021161692,2167.1749209 120.834903025,2167.21201 120.839174487,2146.01931464 138.497645765,2146.06687017 138.48039832,2189.17567699 134.10119529,2189.16776118 134.093827573,2198.64315087 138.902877184,2198.66080051 138.895500935,2215.49648288 134.143436337,2215.48266467 134.14727987,2221.45547148 102.721223151,2221.36718834 102.719906963,2215.19979694 87.6766213094,2215.15526131 " moovel_rot="38.9" moovel_centroid="115.895607487,2189.34471677" moovel_centroidlatlon="13.363181836050233,52.44840865681137"></polygon></g><g transform="translate(-125.84877600000002 -1529.2690912) rotate(0)"><polygon id="48378476" class="tile" points="345.454403068,2079.53345232 303.465066136,2080.06315847 304.261226722,2032.46137703 303.503803177,2015.14412681 339.278713982,2013.89777213 342.580611958,2010.0482147 347.485609391,2009.26912221 348.890180193,2073.30896659 345.454403068,2079.53345232 " moovel_rot="54.8" moovel_centroid="326.223601214,2046.86299226" moovel_centroidlatlon="13.419744234873873,52.527302670440214"></polygon></g><g transform="translate(-311.8199355 -774.7715331) rotate(0)"><polygon id="182863191" class="tile" points="433.643642653,1201.0 456.262601236,1252.59823969 455.614089559,1272.4255652 433.314564174,1334.10124804 414.794619386,1326.51127268 435.563225215,1268.74032707 437.713489644,1258.02049352 434.859611371,1251.11598148 414.73791982,1208.77239267 433.643642653,1201.0 " moovel_rot="-8.7" moovel_centroid="436.562013188,1267.3607505613554" moovel_centroidlatlon="13.572998605399182,52.569507758396774"></polygon></g><g transform="translate(11.498196100000001 -1718.4463547) rotate(0)"><polygon id="233093507" class="tile" points="86.6602216733,2146.01931464 86.6766213094,2225.87769925 64.7153289603,2225.9219293 64.7139417911,2232.16726529 34.8090506261,2232.21959502 34.8027810574,2198.41791744 41.175483554,2198.40963289 41.1790688737,2196.50568214 66.3650025056,2196.4551036 66.347761806,2150.02734574 66.3526119349,2146.05684002 86.6602216733,2146.01931464 " moovel_rot="-20" moovel_centroid="66.0100847976,2197.47966316" moovel_centroidlatlon="13.465046759780758,52.59687382810064"></polygon></g><g transform="translate(-420.0020476 -1355.4771067) rotate(0)"><polygon id="312744217" class="tile" points="434.784466257,1748.32186286 469.97921522,1775.63502946 467.585964817,1780.18519926 485.088049626,1793.40622866 473.326009536,1808.08410877 471.92375449,1820.62113297 468.729261733,1824.49976424 440.780884842,1859.53104554 425.107337114,1847.47543443 425.304818833,1847.12517709 423.904703264,1846.08850112 423.702494711,1846.38716191 422.494908899,1845.45664026 425.908370887,1841.13744123 431.985003096,1833.45101107 433.211700484,1834.45093452 432.74106728,1835.06795277 433.888738746,1836.08696602 434.446480029,1835.39986772 444.346370832,1843.13505107 450.20560931,1835.90638744 450.126625353,1835.18342979 448.258500488,1833.72502916 447.977266531,1834.04278011 437.961308667,1826.10802282 446.306167584,1815.38385177 447.659729155,1813.63848798 448.87914137,1814.51248837 456.462598387,1820.39701668 456.341768329,1820.88789756 457.858924246,1822.18126872 458.927260875,1821.6382184 464.334589273,1814.99891931 453.572969589,1806.34959392 463.121994469,1794.19834485 458.294414725,1790.41360095 457.562846018,1791.33791509 452.479090701,1787.1700102 449.508136885,1786.1103162 448.964411186,1786.34713938 439.73761371,1779.27739156 440.069696801,1778.8650114 436.588805636,1776.13723297 436.274852261,1776.56188787 423.92439517,1766.99815953 422.532440458,1764.05535692 424.102596991,1762.02913872 434.784466257,1748.32186286 " moovel_rot="-55.9" moovel_centroid="452.003063576,1800.97881967" moovel_centroidlatlon="13.404739606468153,52.510616579685355"></polygon></g><g transform="translate(47.20127249999999 -1900.7220317000001) rotate(0)"><polygon id="27800178" class="tile" points="101.834288853,2377.26507702 152.272898904,2377.4251833 152.324630733,2309.31553282 144.500508978,2309.37564429 133.394774797,2309.39521374 133.359434256,2324.82375003 123.097749693,2324.72258488 123.14355321,2330.05735294 113.679187467,2338.90079731 101.782096256,2339.10199897 101.830504701,2342.6926642 101.834288853,2377.26507702 " moovel_rot="73.3" moovel_centroid="130.324336749,2349.28573669" moovel_centroidlatlon="13.462034838104834,52.52031885081235"></polygon></g><g transform="translate(159.6373227 -1648.8309177) rotate(0)"><polygon id="97504074" class="tile" points="73.6976344572,2009.26912221 76.7703041418,2020.72010884 85.8426528072,2054.56530952 55.0421343459,2063.5002068 62.7173440792,2088.95973657 67.6178377036,2087.52935096 75.4537880747,2116.19684537 66.4301375648,2120.2912063 56.7266448228,2124.69665465 44.8687372046,2083.82325932 44.9079457538,2031.66397721 73.6976344572,2009.26912221 " moovel_rot="60.8" moovel_centroid="61.4263801909,2063.01523158" moovel_centroidlatlon="13.217876794628848,52.56000900858589"></polygon></g><g transform="translate(124.2954141 -1403.6734846) rotate(0)"><polygon id="48527634" class="tile" points="0.0576442744117,1765.86934734 25.6602521602,1748.32186286 62.9206701356,1801.77307904 9.32544106571,1838.36648322 0.0,1824.73700929 4.25419383799,1821.95850376 27.4971225169,1805.9803315 0.0576442744117,1765.86934734 " moovel_rot="-18.2" moovel_centroid="28.671796925646497,1792.05964589" moovel_centroidlatlon="13.426119503519066,52.41474890660965"></polygon></g><g transform="translate(-467.61777589999997 -912.4139539999999) rotate(0)"><polygon id="271274642" class="tile" points="470.484520064,1573.56963026 490.796620456,1573.5374452 490.620053469,1711.72478053 474.575530833,1711.74623103 474.448602906,1647.11051805 474.735199356,1585.60397154 470.116595546,1585.60070402 470.307301747,1576.91755989 470.484520064,1573.56963026 " moovel_rot="-46.0" moovel_centroid="482.398657331,1641.18674204" moovel_centroidlatlon="13.565819580161651,52.4669082321541"></polygon></g><g transform="translate(-402.6986967 -869.8868571) rotate(0)"><polygon id="26708910" class="tile" points="457.304024264,1291.14326155 483.43943311,1229.04386361 457.262601236,1218.7385235 461.642872803,1208.41796635 473.403667099,1201.0 502.195259212,1213.07922251 504.237221528,1228.87567001 474.906678904,1298.51942322 457.304024264,1291.14326155 " moovel_rot="-4.0" moovel_centroid="480.760418272,1244.2994337425587" moovel_centroidlatlon="13.313537354804566,52.58511852097075"></polygon></g><g transform="translate(-41.25877969999999 -1430.7075814999998) rotate(0)"><polygon id="57731863" class="tile" points="237.162961636,1787.97104827 237.195777063,1805.62610507 218.579467145,1805.86904221 218.538845501,1800.26285842 218.515839539,1765.59694121 221.457605107,1765.59479561 221.448827884,1748.32186286 231.054735089,1749.30959064 231.077423928,1752.90124207 270.508264363,1752.67701884 270.555759576,1763.14619613 270.543615381,1769.35724558 270.544261913,1775.26101548 270.538178701,1780.86934662 270.520525195,1787.98973976 237.162961636,1787.97104827 " moovel_rot="-2.6" moovel_centroid="242.088546182,1774.28762541" moovel_centroidlatlon="13.375535162769166,52.49027318336841"></polygon></g><g transform="translate(-318.55731260000005 -878.5996292) rotate(0)"><polygon id="45727594" class="tile" points="345.456591761,1201.0 372.198679685,1204.7167172 367.13281292,1232.84188329 372.23716923,1267.15991899 362.115839725,1269.06145165 364.042041591,1281.34311609 350.611147607,1278.87384285 352.841538545,1267.5244099 331.61011906,1263.73735104 332.939514761,1255.04884298 336.661294612,1248.99076043 345.456591761,1201.0 " moovel_rot="-49.3" moovel_centroid="354.392792344,1239.6819309889854" moovel_centroidlatlon="13.501691077002116,52.56128122979882"></polygon></g><g transform="translate(-286.81773609999993 -1382.4997491) rotate(0)"><polygon id="374311905" class="tile" points="512.56842332,2310.94281384 512.464010875,2403.63755417 542.325811631,2395.86879102 528.513422367,2309.31553282 512.56842332,2310.94281384 " moovel_rot="51.2" moovel_centroid="524.252231771,2359.57419861" moovel_centroidlatlon="13.15088665192817,52.52082046032174"></polygon></g><g transform="translate(-408.722908 -1758.7279531) rotate(0)"><polygon id="298888620" class="tile" points="537.929272075,2111.53630503 537.852077782,2056.83866742 528.977236719,2056.42119782 530.389450986,2009.82500959 516.198389668,2009.26912221 513.694845506,2105.50828045 519.617888686,2111.62736593 537.929272075,2111.53630503 " moovel_rot="-91.1" moovel_centroid="524.985829471,2066.61968962" moovel_centroidlatlon="13.617463884265126,52.44717109812548"></polygon></g><g transform="translate(-453.0910415000001 -1496.6134238) rotate(0)"><polygon id="139097284" class="tile" points="505.779503897,1757.02187741 511.397092241,1757.10187876 511.531453745,1748.32186286 517.550592028,1749.05811008 529.87095653,1749.22738188 529.855945573,1788.44782982 529.857227154,1820.52036899 511.096341865,1820.31067515 511.232933229,1810.81706207 505.813847253,1810.73672704 505.807216281,1811.60425886 498.647057316,1811.47224282 498.476491773,1788.55464557 498.431190956,1781.91722347 498.23615858,1755.50378875 505.806281871,1755.61303109 505.779503897,1757.02187741 " moovel_rot="61.8" moovel_centroid="515.084071741,1784.3414916" moovel_centroidlatlon="13.436042407120757,52.49066705692829"></polygon></g><g transform="translate(-58.93858990000001 -1302.8611799) rotate(0)"><polygon id="192640128" class="tile" points="228.696985407,1579.58562147 226.524855507,1595.16937118 223.964490887,1610.93469545 228.698912503,1611.7580394 227.074918508,1621.56932896 225.470942506,1629.97585406 223.55954488,1631.29163517 222.482409816,1634.06102405 208.645132872,1640.14349623 201.983687377,1626.99190113 194.372998098,1611.44884018 194.694790077,1606.99184864 196.118253011,1597.07499958 184.339611191,1595.4040112 187.302401305,1574.40081793 187.098808595,1573.79974659 198.934809913,1576.50726302 199.18474877,1573.5374452 228.696985407,1579.58562147 " moovel_rot="70.3" moovel_centroid="209.252908712,1602.4831269" moovel_centroidlatlon="13.374683421134003,52.48953895372305"></polygon></g><g transform="translate(78.67872599999998 -2262.5830895) rotate(0)"><polygon id="282695876" class="tile" points="128.785137445,2572.68359238 128.844683602,2558.47002534 146.211989431,2558.41608097 145.948990731,2504.96328027 164.166368019,2504.53233281 164.278078469,2608.46045264 158.579908831,2608.46030545 158.479282792,2579.63318574 149.702466444,2579.54359695 149.738552886,2577.37272769 149.798877259,2572.76386212 142.463182864,2572.73603495 142.464563114,2570.00423318 139.669987719,2569.98727129 139.668654091,2572.73243131 128.785137445,2572.68359238 " moovel_rot="-90.2" moovel_centroid="153.402283408,2549.80010772" moovel_centroidlatlon="13.402461221144321,52.386032555330715"></polygon></g><g transform="translate(-370.39566440000004 -2061.6374886) rotate(0)"><polygon id="410758082" class="tile" points="392.940035078,2352.94471135 393.067058186,2368.56965489 385.745280566,2368.46022541 385.547164184,2382.36417505 390.921968715,2382.47437233 389.093804718,2401.09850618 383.577338259,2406.94513982 374.129165896,2410.78267607 376.269566907,2386.37157947 380.151710724,2385.44707127 381.855867661,2367.55334296 372.893034943,2367.21628746 374.173314514,2339.31937073 374.253171792,2309.78039468 381.359899052,2309.67138431 392.988882362,2309.31553282 392.940035078,2352.94471135 " moovel_rot="-48.3" moovel_centroid="383.224681684,2353.18063702" moovel_centroidlatlon="13.534435398870304,52.42668225278498"></polygon></g><g transform="translate(-151.831879 -1745.0553347000002) rotate(0)"><polygon id="52115492" class="tile" points="254.907688583,2309.31553282 293.563450785,2309.31845344 293.570965578,2352.3558099 277.317259493,2352.35766294 254.915203798,2352.3528772 254.907688583,2309.31553282 " moovel_rot="2.0" moovel_centroid="274.239364965,2330.83643985" moovel_centroidlatlon="13.393998600954877,52.499364542966276"></polygon></g><g transform="translate(29.053046600000016 -1354.7478965) rotate(0)"><polygon id="275251369" class="tile" points="151.11229635,1576.91318377 161.421622946,1573.5374452 183.035109514,1609.33077306 183.339611191,1615.65452791 167.864062178,1669.94142725 151.183571266,1665.93355101 166.994709636,1614.83988118 163.516466836,1605.87880505 164.874431232,1600.2370364 151.11229635,1576.91318377 " moovel_rot="52.3" moovel_centroid="167.60942882,1624.66988656" moovel_centroidlatlon="13.189231976620322,52.54349646745838"></polygon></g><g transform="translate(-293.6385221 -1362.2509809) rotate(0)"><polygon id="264963788" class="tile" points="469.051721525,1576.09617743 440.722903002,1573.5374452 439.524381307,1628.9971682 469.116595546,1631.46192081 469.051721525,1576.09617743 " moovel_rot="50.3" moovel_centroid="454.592985641,1602.72352528" moovel_centroidlatlon="13.399947053660643,52.646859007990514"></polygon></g><g transform="translate(69.1673002 -2107.0741835999997) rotate(0)"><polygon id="134770190" class="tile" points="0.0,2354.56766404 17.0362083833,2354.83286143 34.6344983376,2355.11318686 34.5738371984,2309.78782031 0.344501814013,2309.31553282 0.0,2354.56766404 " moovel_rot="-16.6" moovel_centroid="17.392336302193904,2332.23975943" moovel_centroidlatlon="13.50785084733011,52.4934382314094"></polygon></g><g transform="translate(-105.20898469999999 -1382.7688188) rotate(0)"><polygon id="27260176" class="tile" points="107.708984696,1573.5374452 150.11229635,1592.86772711 146.032665605,1601.70337772 143.927137295,1600.73155062 139.827968657,1609.61497095 141.987685467,1610.59627676 135.089091683,1625.34945161 107.732855902,1625.71357288 107.731922285,1621.68433529 107.708984696,1573.5374452 " moovel_rot="-42.7" moovel_centroid="124.18844309,1602.25577426" moovel_centroidlatlon="13.343355237380832,52.43866123056035"></polygon></g><g transform="translate(53.54350280000001 -1406.1121094) rotate(0)"><polygon id="32142961" class="tile" points="87.9249944917,1646.82811914 74.7206523725,1604.61663314 68.734484497,1583.53631294 65.927698978,1573.66268157 60.5971230605,1573.5374452 60.1744806481,1575.21677495 58.3822720183,1615.77299418 58.3670432306,1650.74499222 72.1663970088,1652.76082249 87.0493055352,1652.53905104 87.9249944917,1646.82811914 " moovel_rot="47.6" moovel_centroid="69.4414927255,1621.85534327" moovel_centroidlatlon="13.454067396978475,52.49424665034059"></polygon></g><g transform="translate(69.2729292 -1031.3228744) rotate(0)"><polygon id="238481667" class="tile" points="106.361861257,1240.17817176 143.685675011,1240.12896575 143.868195217,1226.20667879 145.306326846,1226.2273635 145.601130134,1201.41313873 131.678776258,1201.252201 106.33453709,1201.0 106.361861257,1240.17817176 " moovel_rot="-37.9" moovel_centroid="125.571069163,1220.466621822421" moovel_centroidlatlon="13.429883827342234,52.61209291354438"></polygon></g><g transform="translate(-395.0879995 -1590.5320978) rotate(0)"><polygon id="103302963" class="tile" points="530.880294197,1748.35283691 530.87095653,1796.84449985 561.142565693,1796.80307098 561.155401492,1748.32186286 530.880294197,1748.35283691 " moovel_rot="-18.5" moovel_centroid="546.011760396,1772.58010109" moovel_centroidlatlon="13.272551444537367,52.453018230579275"></polygon></g><g transform="translate(-5.333368499999992 -2151.2403043000004) rotate(0)"><polygon id="128020896" class="tile" points="36.6640591749,2349.90534203 36.6344983376,2309.34954331 71.7528333898,2309.31553282 71.7938075685,2349.87719055 36.6640591749,2349.90534203 " moovel_rot="-94.2" moovel_centroid="54.2117241283,2329.61299959" moovel_centroidlatlon="13.622825558178947,52.4508564218601"></polygon></g><g transform="translate(-423.1866331 -1994.8556751) rotate(0)"><polygon id="60219334" class="tile" points="530.629933156,2146.54292018 500.971910486,2146.01931464 499.804967095,2191.62097969 530.64691858,2192.69647768 530.629933156,2146.54292018 " moovel_rot="-69.7" moovel_centroid="515.540142547,2169.37113365" moovel_centroidlatlon="13.182368265294906,52.485656766489804"></polygon></g><g transform="translate(-403.0886800999999 -1232.9658233) rotate(0)"><polygon id="338412114" class="tile" points="576.478844262,2096.33523895 576.467208766,2009.27436644 590.827961334,2009.26912221 590.832051602,2031.16627696 590.85073885,2096.33634615 576.478844262,2096.33523895 " moovel_rot="-91.7" moovel_centroid="583.655867326,2052.8098064" moovel_centroidlatlon="13.369928084840074,52.486398129568826"></polygon></g><g transform="translate(-258.13010049999997 -1467.366109) rotate(0)"><polygon id="27787334" class="tile" points="498.795642419,2146.05239893 498.804967095,2194.07244628 469.494230166,2194.03747312 469.486709169,2155.26464473 480.296796922,2155.27898781 480.292217544,2146.01931464 498.795642419,2146.05239893 " moovel_rot="19.0" moovel_centroid="484.852555606,2171.52579162" moovel_centroidlatlon="13.259544085418028,52.54542562272552"></polygon></g><g transform="translate(-43.97352570000001 -419.46099989999993) rotate(0)"><polygon id="157664922" class="tile" points="229.698912503,1573.5374452 259.655601785,1574.4237395 259.182513455,1618.07906005 229.742713673,1618.45971111 229.698912503,1573.5374452 " moovel_rot="27.4" moovel_centroid="244.499702364,1596.05939185" moovel_centroidlatlon="13.361225614441974,52.52738521158323"></polygon></g><g transform="translate(-166.2939138 -1833.1755566) rotate(0)"><polygon id="50556815" class="tile" points="419.182059644,2331.8302327 412.18210491,2331.80438262 412.185769988,2327.7007273 412.179615058,2317.46421302 412.187697401,2309.36301284 394.079315306,2309.31553282 394.067058186,2364.95774125 399.207700782,2364.9658532 417.82383298,2365.01393959 419.175926535,2365.01837279 419.182059644,2331.8302327 " moovel_rot="34.1" moovel_centroid="405.479093863,2339.26796731" moovel_centroidlatlon="13.3609386466744,52.453822596883256"></polygon></g><g transform="translate(-60.24812800000004 -2020.9755605) rotate(0)"><polygon id="227482564" class="tile" points="270.349200622,2166.60516138 275.224782722,2164.36069053 271.076336337,2156.80092746 275.31541357,2154.07578071 278.99037983,2154.73114699 288.867480504,2147.13619588 295.738861463,2146.01931464 299.124380323,2148.48493144 302.218153201,2152.77339525 302.968982601,2157.52078048 302.941040337,2185.35269951 302.816927556,2195.66215935 296.106711892,2195.54545646 281.990761889,2194.67843692 270.349200622,2166.60516138 " moovel_rot="-21.1" moovel_centroid="289.284668233,2171.37192959" moovel_centroidlatlon="13.379423900430863,52.437450033448165"></polygon></g><g transform="translate(-107.3524099 -1080.5903738000002) rotate(0)"><polygon id="57130378" class="tile" points="277.715212481,1236.026434 312.644162496,1236.00726462 312.649808685,1234.90082259 312.650491563,1220.00703151 312.64421597,1201.0 295.119516049,1201.00724623 277.715870703,1201.0125176 277.715212481,1236.026434 " moovel_rot="-84.6" moovel_centroid="295.181483934,1218.5122925282205" moovel_centroidlatlon="13.39042716625486,52.50223968464064"></polygon></g><g transform="translate(2.4999991 -2032.6100681) rotate(0)"><polygon id="380426998" class="tile" points="0.0320014690049,2157.89716108 0.0,2195.30491087 32.8027810574,2184.16488928 32.2652021896,2178.27010417 31.2680347125,2166.11046992 29.6139095685,2146.01931464 18.2758958917,2146.61632858 13.004290805,2156.951346 3.13465381516,2156.71095887 0.0320014690049,2157.89716108 " moovel_rot="-14.3" moovel_centroid="15.988900383270941,2170.95287787" moovel_centroidlatlon="13.363617822362706,52.504700008708376"></polygon></g><g transform="translate(-60.94949350000002 -2389.9889883) rotate(0)"><polygon id="32401646" class="tile" points="172.915404991,2504.89271845 206.751867724,2504.53233281 206.741385254,2540.54518498 173.006580142,2540.334868 172.915404991,2504.89271845 " moovel_rot="10.1" moovel_centroid="189.898755084,2522.56716107" moovel_centroidlatlon="13.447772638512586,52.46894592910958"></polygon></g><g transform="translate(-311.05228379999994 -1748.9004654999999) rotate(0)"><polygon id="230102150" class="tile" points="392.891187195,2079.47359698 407.94983329,2079.47358293 407.905359715,2027.24793076 407.893382632,2009.28124755 392.830723373,2009.26912221 392.891187195,2079.47359698 " moovel_rot="13.2" moovel_centroid="400.390445692,2044.37330072" moovel_centroidlatlon="13.537717809166192,52.527363182924155"></polygon></g><g transform="translate(-18.326848299999995 -1431.2756842) rotate(0)"><polygon id="300143393" class="tile" points="165.278078469,2627.88235127 171.837646299,2631.6008272 171.915404991,2508.0271156 165.287054614,2504.53233281 165.278078469,2627.88235127 " moovel_rot="-75.6" moovel_centroid="168.58074656,2567.9041152" moovel_centroidlatlon="13.318116773464988,52.501388556303674"></polygon></g><g transform="translate(-90.0348802 -1639.3690934) rotate(0)"><polygon id="378379096" class="tile" points="190.54075366,2063.1132406 190.507654162,2013.26396459 194.939503635,2013.43111529 195.003436867,2009.26912221 203.471096951,2009.38937236 203.676662728,2013.71251218 208.024811804,2013.83774668 208.190611305,2017.45883204 217.20537425,2020.68110095 214.310385467,2026.79573241 213.033071434,2033.32018653 214.103201953,2039.10565482 216.855334751,2045.20668114 196.337886911,2063.57776134 190.54075366,2063.1132406 " moovel_rot="-84.3" moovel_centroid="201.396921398,2035.51459756" moovel_centroidlatlon="13.594689704811124,52.44112984308811"></polygon></g><g transform="translate(-480.11253960000005 -1528.9310658000002) rotate(0)"><polygon id="152695884" class="tile" points="527.594220094,1573.5374452 528.081918847,1681.7225 520.40576807,1682.03351093 520.459315034,1573.65482052 527.594220094,1573.5374452 " moovel_rot="62.3" moovel_centroid="524.135614194,1628.39703044" moovel_centroidlatlon="13.316316651620333,52.514315900037964"></polygon></g><g transform="translate(-502.7372138 -1130.0535669) rotate(0)"><polygon id="219917211" class="tile" points="505.237221528,1201.77766981 505.262189915,1236.38838234 533.789556346,1238.53213135 535.92721566,1202.91876466 514.144625018,1201.0 514.010896397,1202.55127122 505.237221528,1201.77766981 " moovel_rot="-46.4" moovel_centroid="520.170320577,1219.5270627829327" moovel_centroidlatlon="13.364294339915869,52.450046709013115"></polygon></g><g transform="translate(10.6833119 -1483.5100989) rotate(0)"><polygon id="169523605" class="tile" points="42.2859969286,1636.5833151 42.2939285977,1573.53889988 48.2251607244,1573.5374452 57.3670432306,1573.54109795 57.3590696889,1636.58543916 49.5687788403,1636.58347536 42.2859969286,1636.5833151 " moovel_rot="-29.5" moovel_centroid="49.8264989762,1605.06137701" moovel_centroidlatlon="13.513392955756608,52.4586188563856"></polygon></g><g transform="translate(-374.2756357 -971.5384224000001) rotate(0)"><polygon id="194067882" class="tile" points="376.775636267,1573.88368808 393.898841215,1573.5374452 393.934498642,1627.66765707 376.821268115,1627.5406952 376.775636267,1573.88368808 " moovel_rot="-58.2" moovel_centroid="385.370082593,1600.65458067" moovel_centroidlatlon="13.382164359065314,52.53449941616459"></polygon></g><g transform="translate(-235.84143309999996 -1700.1718352) rotate(0)"><polygon id="27066332" class="tile" points="288.547564101,1748.32186286 288.505597343,1785.25128116 290.818855136,1784.77983135 320.057392824,1778.81025022 318.725861615,1766.29861919 318.882717747,1754.11459892 288.547564101,1748.32186286 " moovel_rot="-8.6" moovel_centroid="302.821547684,1766.75835598" moovel_centroidlatlon="13.56871202992499,52.444388399018756"></polygon></g><g transform="translate(-5.714057999999994 -2223.2013593) rotate(0)"><polygon id="106989182" class="tile" points="100.738870778,2369.13305842 93.4536612721,2369.54694698 93.191834615,2366.63942003 92.9481122725,2358.86178073 92.2116013028,2358.91434715 90.7970048785,2355.64197459 84.7979575483,2356.00340073 80.2278482737,2356.01375753 79.5107701525,2355.94575889 79.1056134214,2345.88366533 94.0156945247,2345.13550905 93.7261445759,2337.28463866 91.9536299028,2337.35831386 91.7090219217,2330.16964036 84.6765909761,2330.46062782 84.4081449138,2324.32699155 84.2609267585,2321.43490093 84.4403714433,2321.19485893 84.3121447399,2318.30915788 78.7634284885,2318.56794216 78.9103122142,2309.31553282 100.782096256,2313.53321514 100.527904233,2325.6382859 100.493150001,2331.64677881 100.738870778,2369.13305842 " moovel_rot="18.6" moovel_centroid="92.2295311397,2336.92733731" moovel_centroidlatlon="13.188976857145134,52.52835973264883"></polygon></g><g transform="translate(53.740492200000006 -1155.7508071999998) rotate(0)"><polygon id="55679449" class="tile" points="35.4582921971,1201.15016871 66.1442047762,1201.0 66.4984397963,1216.84939782 50.9670542115,1232.91045435 42.4540218825,1241.4248157 35.4616754467,1236.5750297 35.4582921971,1201.15016871 " moovel_rot="84.8" moovel_centroid="48.8297545663,1217.2118066630335" moovel_centroidlatlon="13.32718432830216,52.50786665293896"></polygon></g><g transform="translate(-234.0897564 -2232.9074625) rotate(0)"><polygon id="327562119" class="tile" points="346.144103915,2309.40466537 345.98851153,2313.27030278 345.51263731,2313.5755691 344.632760236,2314.7344557 344.146787322,2315.69088787 343.83825248,2316.56298851 343.651537337,2317.5712249 343.611817253,2318.26489396 343.704745756,2329.36218397 343.46415088,2329.56675102 343.198315843,2329.75571272 342.907707753,2329.9061893 342.583387048,2329.98658901 342.254040848,2330.00016802 341.925628865,2329.96798748 341.611471836,2329.8635304 341.327403251,2329.69369016 341.085809633,2329.4777093 340.883244019,2329.22793702 340.403568275,2329.24993358 340.397832894,2342.20629744 366.370786946,2341.63545457 366.399135025,2342.59420191 369.585385876,2342.54561515 369.524278108,2338.18401109 371.893034943,2338.11652973 371.455999656,2323.37467305 371.380713657,2320.80275137 371.169350459,2313.62881977 371.064022423,2310.33746939 371.017793596,2309.31553282 346.144103915,2309.40466537 " moovel_rot="-15.8" moovel_centroid="356.966108548,2326.25108867" moovel_centroidlatlon="13.36162002906174,52.49868085967435"></polygon></g><g transform="translate(-129.91609019999999 -1498.3340675) rotate(0)"><polygon id="350667886" class="tile" points="289.328162012,1651.15313907 280.637031154,1617.60148167 282.275720958,1615.15767541 276.137168345,1589.35470164 281.386749363,1574.67393196 290.356094541,1573.5374452 293.935238821,1580.5419217 291.395476261,1611.93653793 288.885793995,1630.31040038 293.871538861,1650.53417703 289.328162012,1651.15313907 " moovel_rot="-48.9" moovel_centroid="286.180110991,1604.0208444" moovel_centroidlatlon="13.458680276188543,52.44486926004345"></polygon></g><g transform="translate(121.2882616 -1548.4656831) rotate(0)"><polygon id="275251364" class="tile" points="95.1665996678,1573.54208996 95.2495170174,1676.60435842 89.0099231036,1676.60608292 88.9249944917,1573.5374452 95.1665996678,1573.54208996 " moovel_rot="72.8" moovel_centroid="92.0877241862,1625.0697332" moovel_centroidlatlon="13.151992336072324,52.55372860701631"></polygon></g><g transform="translate(-262.55072129999996 -1548.3546136) rotate(0)"><polygon id="379688330" class="tile" points="412.639785988,1620.06177276 410.695355429,1609.54148667 421.643961294,1607.52718949 417.247452756,1583.77945087 416.708759538,1581.23973161 410.647468893,1582.31554082 410.168330285,1579.03846686 410.825370572,1578.96409599 409.783161881,1573.5374452 394.953853484,1576.50631683 398.976519136,1596.0899025 399.760537239,1595.93841072 400.907539604,1601.51094057 401.232903879,1601.64722429 401.713726841,1603.99756803 401.467154159,1604.25555258 402.502940323,1609.30497145 394.934498642,1610.77689669 395.469482691,1613.53185854 396.627003869,1619.30177039 402.759318206,1617.94678716 403.500295387,1621.93292984 412.639785988,1620.06177276 " moovel_rot="-22.8" moovel_centroid="407.442421586,1597.03730586" moovel_centroidlatlon="13.366701950110706,52.49957164334096"></polygon></g><g transform="translate(-109.4181222 -1713.1316289) rotate(0)"><polygon id="228335469" class="tile" points="278.550214017,1748.32186286 287.444248793,1748.54209791 287.505597343,1828.65251884 279.755035104,1826.37796913 278.382134336,1813.87329461 278.550214017,1748.32186286 " moovel_rot="1.7" moovel_centroid="283.035935177,1787.65488233" moovel_centroidlatlon="13.44736120049995,52.43645106482969"></polygon></g><g transform="translate(-534.4302438 -1175.3063310999999) rotate(0)"><polygon id="52929522" class="tile" points="536.92721566,1201.0 551.609914061,1203.45141512 564.796476982,1205.71425702 563.743017798,1227.8268197 551.89708081,1228.10882011 552.629172289,1242.06557097 548.574591876,1239.72782213 536.979129874,1235.6110711 538.211276461,1227.19718715 536.92721566,1201.0 " moovel_rot="72.3" moovel_centroid="549.565731947,1218.8926311035689" moovel_centroidlatlon="13.379192935766586,52.49869430898206"></polygon></g><g transform="translate(183.0873821 -2431.8321366) rotate(0)"><polygon id="94817764" class="tile" points="19.1620671524,2547.23219037 19.1313434891,2504.53233281 0.0318686613813,2504.6832828 0.0,2547.24975129 19.1620671524,2547.23219037 " moovel_rot="69.1" moovel_centroid="9.586317949308098,2525.93599162" moovel_centroidlatlon="13.593698789108787,52.50620967980602"></polygon></g><g transform="translate(-299.75700099999995 -1472.4958578) rotate(0)"><polygon id="383077394" class="tile" points="543.528990817,2009.26912221 543.397309799,2124.48000539 539.109521487,2119.94007264 538.929272075,2013.93207591 543.528990817,2009.26912221 " moovel_rot="-5.1" moovel_centroid="541.271926653,2066.25368223" moovel_centroidlatlon="13.321538699392269,52.50075683047254"></polygon></g><g transform="translate(-47.955900299999996 -1166.4888314) rotate(0)"><polygon id="131981028" class="tile" points="276.715212481,1287.59867739 269.487934551,1287.51799584 269.740782014,1201.0 276.575133476,1203.39056345 276.715212481,1287.59867739 " moovel_rot="-73.1" moovel_centroid="273.113177822,1245.2699026342475" moovel_centroidlatlon="13.303013796098492,52.49924092578471"></polygon></g><g transform="translate(-312.05439049999995 -1952.9197772999999) rotate(0)"><polygon id="309485309" class="tile" points="547.572246445,2146.01931464 547.564156222,2190.04174983 531.64691858,2190.06174363 531.655000975,2146.03927609 547.572246445,2146.01931464 " moovel_rot="-13.6" moovel_centroid="539.60957958,2168.04051924" moovel_centroidlatlon="13.322182799999998,52.52701845"></polygon></g><g transform="translate(160.5949875 -2455.9947107) rotate(0)"><polygon id="36740120" class="tile" points="80.2007336461,2505.53581492 96.8188134802,2504.53233281 96.830449874,2520.20904016 96.838854771,2541.93829243 73.37180222,2543.90882066 73.0961213303,2537.30840346 79.9706516792,2529.77591904 79.9958852143,2505.57785851 80.2007336461,2505.53581492 " moovel_rot="83.9" moovel_centroid="87.2761662496,2525.26468828" moovel_centroidlatlon="13.541468963625395,52.544729080950184"></polygon></g><g transform="translate(-56.3655326 -953.3896593000001) rotate(0)"><polygon id="267502644" class="tile" points="96.0502515263,1201.0020021 84.0327109176,1201.0 84.0305624173,1255.5045633 96.037866576,1255.5142995 96.0502515263,1201.0020021 " moovel_rot="84.3" moovel_centroid="90.037990502,1228.251345881917" moovel_centroidlatlon="13.392358417627939,52.48421197980608"></polygon></g><g transform="translate(-205.5525529 -1173.5980673) rotate(0)"><polygon id="153097085" class="tile" points="405.974378724,1201.58006058 388.611668214,1201.0 388.603519558,1241.44986267 406.027160908,1241.11834201 405.974378724,1201.58006058 " moovel_rot="77.1" moovel_centroid="397.271135755,1221.2986031023195" moovel_centroidlatlon="13.599873782997385,52.54482868245365"></polygon></g><g transform="translate(-150.19944650000002 -842.7677002) rotate(0)"><polygon id="76887722" class="tile" points="370.770526501,2042.76727015 370.756631061,2009.26912221 382.756745885,2009.2719133 391.816817264,2009.26960158 391.830723373,2042.76774873 381.607828485,2042.76838987 370.770526501,2042.76727015 " moovel_rot="-94.2" moovel_centroid="381.29365778,2026.01928492" moovel_centroidlatlon="13.294824537352413,52.479896150720464"></polygon></g><g transform="translate(108.53219860000002 -1180.175614) rotate(0)"><polygon id="103502110" class="tile" points="43.5327057151,2068.69731672 43.8687372046,2014.5210703 32.98649616,2009.26912221 33.0292381911,2068.52692538 34.8449139951,2071.53291122 38.4366870252,2072.47550056 42.250371,2071.17310068 43.5327057151,2068.69731672 " moovel_rot="-90.2" moovel_centroid="38.2771085344,2041.42044814" moovel_centroidlatlon="13.319415659316576,52.48410236773512"></polygon></g><g transform="translate(-62.927126799999996 -1414.4372074) rotate(0)"><polygon id="376988444" class="tile" points="325.579518651,2158.91375601 324.84619187,2191.5258026 307.417556335,2188.96716105 307.651840286,2163.10703451 303.968982601,2162.90438875 303.987464259,2146.01931464 306.667390922,2146.06119799 309.451401073,2146.10560872 309.222170063,2156.71158805 314.243481318,2156.76392652 314.18610898,2158.76995172 325.579518651,2158.91375601 " moovel_rot="-69.9" moovel_centroid="315.137271708,2171.57834051" moovel_centroidlatlon="13.36719740728424,52.550645475345114"></polygon></g><g transform="translate(-434.436902 -1565.9092369) rotate(0)"><polygon id="270646329" class="tile" points="491.796620456,1609.9030347 491.802965942,1598.19463683 491.811002234,1592.66459067 499.858267434,1592.65800651 499.869183539,1573.54439552 511.643790101,1573.5374452 511.631045005,1598.64099327 519.40576807,1598.6336432 519.403702004,1609.88511761 491.796620456,1609.9030347 " moovel_rot="-74.2" moovel_centroid="504.949029658,1595.42374847" moovel_centroidlatlon="13.403495108734832,52.45918551363081"></polygon></g><g transform="translate(-136.3391102 -1729.7396626000002) rotate(0)"><polygon id="396599848" class="tile" points="417.886062847,1748.32186286 421.467490412,1748.34823454 421.437035094,1777.01060074 421.494908899,1801.68170055 398.761723569,1800.84465034 399.573467937,1784.85560879 400.828280807,1784.87972839 401.047426126,1781.60087677 416.117202716,1782.42092134 416.669718334,1772.0866294 417.981008034,1772.15045737 417.886062847,1748.32186286 " moovel_rot="74.4" moovel_centroid="412.618697316,1785.73104968" moovel_centroidlatlon="13.26187754774536,52.435245820117025"></polygon></g><g transform="translate(87.58071269999999 -468.2852545999999) rotate(0)"><polygon id="284996996" class="tile" points="179.035104439,1247.09861082 184.503628873,1221.76782591 181.066732115,1221.79943812 179.043350207,1203.27108387 196.771933314,1201.0 199.093231498,1217.49104766 192.035795002,1218.53871098 191.054420804,1222.23195801 190.537287207,1225.29139319 194.561828492,1226.16750407 191.502604707,1238.81930155 186.848839651,1237.39423768 184.400917932,1248.29991646 179.035104439,1247.09861082 " moovel_rot="-7.3" moovel_centroid="187.862719928,1220.1217059252378" moovel_centroidlatlon="13.206382015893086,52.54415040739566"></polygon></g><g transform="translate(233.6348887 -1996.8199315) rotate(0)"><polygon id="34068476" class="tile" points="0.002001197543,2014.53080589 0.0,2043.13077451 24.9462834522,2036.54469438 17.2673399077,2009.26912221 0.002001197543,2014.53080589 " moovel_rot="-37.4" moovel_centroid="10.7190494754705,2026.68984215" moovel_centroidlatlon="13.174164598451101,52.51802672702998"></polygon></g><g transform="translate(-95.33914060000001 -2070.9154343) rotate(0)"><polygon id="272576210" class="tile" points="98.5457276003,2551.94133899 114.235442379,2528.56369852 114.242880975,2504.53233281 97.838854771,2505.42904467 98.5457276003,2551.94133899 " moovel_rot="-21.3" moovel_centroid="105.34854838,2523.18248775" moovel_centroidlatlon="13.33405410093729,52.5113266863731"></polygon></g><g transform="translate(214.7842876 -787.8320027) rotate(0)"><polygon id="357670052" class="tile" points="34.4564188004,1201.03637517 22.654397345,1201.0 22.6478251182,1245.13491948 29.7131452573,1245.15324285 29.7126992859,1251.07138021 34.4582921971,1251.08315968 34.4515568836,1244.85131041 34.4564188004,1201.03637517 " moovel_rot="54.8" moovel_centroid="28.7329549656,1224.364546200782" moovel_centroidlatlon="13.155044607168218,52.46314175980937"></polygon></g><g transform="translate(-304.8797341 -933.6756648) rotate(0)"><polygon id="48079475" class="tile" points="375.757081911,1577.42264396 365.487937119,1577.42923874 365.509627439,1573.5374452 363.349838459,1573.59242254 354.063084072,1573.88927123 353.91236184,1594.89607169 358.610442745,1594.89476668 358.617446868,1604.56941185 375.775636267,1604.55907587 375.757081911,1577.42264396 " moovel_rot="69.6" moovel_centroid="365.161770591,1589.22243992" moovel_centroidlatlon="13.261158490772017,52.433389984617534"></polygon></g><g transform="translate(145.1923326 -393.54142749999994) rotate(0)"><polygon id="435776218" class="tile" points="97.0502515263,1315.53922528 99.2870566276,1313.34275838 98.9657470794,1203.0280912 97.0942717228,1201.0 97.0502515263,1315.53922528 " moovel_rot="-69.3" moovel_centroid="98.0950066896,1259.9177225969252" moovel_centroidlatlon="13.275852129171776,52.58928166391041"></polygon></g><g transform="translate(0.20503349999999898 -2001.0787095) rotate(0)"><polygon id="179249454" class="tile" points="105.137467462,2010.83850554 88.1584287299,2009.26912221 86.8426528072,2026.85958844 86.8642133482,2029.92921387 89.5651096838,2029.94192131 90.9780330751,2029.94865001 91.0249466464,2040.65351702 94.7837439734,2040.59001116 105.127692037,2040.40794227 105.137467462,2010.83850554 " moovel_rot="-60.9" moovel_centroid="96.7071868801,2024.61741411" moovel_centroidlatlon="13.391543559527733,52.53983757025855"></polygon></g><g transform="translate(-235.3363333 -483.6476001000001) rotate(0)"><polygon id="114033007" class="tile" points="373.23716923,1201.0 380.22443991,1201.01300159 387.598354014,1201.03183694 387.603519558,1235.22416617 380.165648487,1235.2071766 373.247378417,1235.19670821 373.23716923,1201.0 " moovel_rot="41.4" moovel_centroid="380.42145307,1218.1108637837892" moovel_centroidlatlon="13.530442200420902,52.42848041491695"></polygon></g><g transform="translate(-375.7913931 -1360.1229484) rotate(0)"><polygon id="30725786" class="tile" points="422.643961294,1577.31779611 423.374323588,1608.16663651 430.272140535,1607.32409686 434.219998357,1606.87187859 434.469679675,1604.36357176 438.486242488,1603.64396281 438.524381307,1573.58993236 432.359396588,1573.5374452 429.645485243,1576.89039778 422.643961294,1577.31779611 " moovel_rot="-19.4" moovel_centroid="430.771617209,1590.84349453" moovel_centroidlatlon="13.361316613055736,52.415348490846554"></polygon></g><g transform="translate(-412.806547 -985.4439771) rotate(0)"><polygon id="25993123" class="tile" points="486.444943574,1748.32186286 497.168928742,1748.56522412 497.23615858,1790.05718921 486.088049626,1789.6616627 486.444943574,1748.32186286 " moovel_rot="1.3" moovel_centroid="491.737126919,1769.28557867" moovel_centroidlatlon="13.345566934566877,52.569729302579574"></polygon></g><g transform="translate(-460.972585 -1998.8012546999998) rotate(0)"><polygon id="220802672" class="tile" points="496.344572217,2038.62727353 503.390855088,2038.6735723 512.694845506,2038.28745973 512.689711839,2009.26912221 496.317393704,2009.27947137 496.344572217,2038.62727353 " moovel_rot="-86.2" moovel_centroid="504.495064962,2023.91098909" moovel_centroidlatlon="13.36822793394371,52.54693637355245"></polygon></g><g transform="translate(-212.4981573 -2302.8952360000003) rotate(0)"><polygon id="30351211" class="tile" points="325.435378956,2311.54178312 322.773397245,2323.07974871 324.674475843,2343.21567193 339.397832894,2340.70713381 337.926567502,2327.0453777 339.392953429,2314.64379933 327.997404464,2309.31553282 325.435378956,2311.54178312 " moovel_rot="-10.3" moovel_centroid="331.010138159,2326.82251384" moovel_centroidlatlon="13.321790913089087,52.57716367941294"></polygon></g><g transform="translate(-528.2130751 -829.4766188) rotate(0)"><polygon id="172947018" class="tile" points="573.309600498,1751.48938092 568.523832972,1748.32186286 563.181160776,1748.35970413 562.155401492,1782.3385819 573.303360645,1791.75431194 573.309600498,1751.48938092 " moovel_rot="18.0" moovel_centroid="568.122240616,1768.4742378" moovel_centroidlatlon="13.263249818214353,52.53944420316689"></polygon></g><g transform="translate(66.2020561 -1034.6206864) rotate(0)"><polygon id="257172999" class="tile" points="31.98649616,2009.28173876 26.9682672005,2009.26912221 26.9462834522,2071.40360702 31.9690322859,2071.40625956 31.98649616,2009.28173876 " moovel_rot="24.4" moovel_centroid="29.467451153,2040.34483972" moovel_centroidlatlon="13.422419177935167,52.584905135971944"></polygon></g><g transform="translate(-388.2180225000001 -1697.0484394) rotate(0)"><polygon id="137231892" class="tile" points="491.331821913,2331.10274964 503.710965153,2331.08451912 511.46022254,2331.07383646 511.464010875,2327.81590348 511.454654685,2317.6826773 511.449596247,2309.34750622 497.820387453,2309.31553282 491.321184315,2309.37641797 491.325823541,2316.66803652 491.336893767,2326.7004954 491.331821913,2331.10274964 " moovel_rot="-82.8" moovel_centroid="501.391732126,2320.2120273" moovel_centroidlatlon="13.427522946508287,52.45964770570786"></polygon></g><g transform="translate(-342.9743555 -1455.3107051000002) rotate(0)"><polygon id="222611862" class="tile" points="561.872754607,2040.52759732 561.184518484,2010.73438566 575.467208766,2009.26912221 575.458509042,2040.12531418 567.434070992,2040.36221377 561.872754607,2040.52759732 " moovel_rot="-88.4" moovel_centroid="568.533197404,2025.03286742" moovel_centroidlatlon="13.345441579757466,52.45880336614302"></polygon></g><g transform="translate(-22.1455464 -1119.9626555999998) rotate(0)"><polygon id="330713644" class="tile" points="262.228758918,2146.04642384 262.217061288,2176.12180261 248.137541585,2176.09102557 248.138881543,2146.01931464 262.228758918,2146.04642384 " moovel_rot="70.5" moovel_centroid="255.180705214,2161.06779913" moovel_centroidlatlon="13.343414274781752,52.56250063183613"></polygon></g><g transform="translate(-189.96725689999997 -2139.0853652) rotate(0)"><polygon id="327481154" class="tile" points="365.928681994,2146.05233992 365.93142688,2158.37504797 365.9378538,2167.7910978 345.947845197,2167.75433186 345.941408237,2158.33829709 345.94420697,2146.01931464 365.928681994,2146.05233992 " moovel_rot="33.7" moovel_centroid="355.938104273,2156.90479881" moovel_centroidlatlon="13.37649481018132,52.52741683815686"></polygon></g><g transform="translate(-431.75579360000006 -1106.5603041000002) rotate(0)"><polygon id="265338886" class="tile" points="534.926552455,1629.82832707 534.940931533,1573.5374452 539.810669221,1573.55472274 539.805301511,1629.83945747 534.926552455,1629.82832707 " moovel_rot="55.7" moovel_centroid="537.37081761,1601.6986589" moovel_centroidlatlon="13.269555707114609,52.46224332985783"></polygon></g><g transform="translate(-131.4289657 -362.2284875) rotate(0)"><polygon id="328774767" class="tile" points="163.240744113,1229.22328696 178.035104439,1224.87956612 177.079983208,1201.0 163.240744113,1201.26325724 163.240744113,1229.22328696 " moovel_rot="0" moovel_centroid="170.221786806,1214.2755055052653" moovel_centroidlatlon="13.405557619614266,52.59812817274815"></polygon></g><g transform="translate(201.46685699999998 -1538.3562848) rotate(0)"><polygon id="265793353" class="tile" points="63.3885662895,2557.4518267 64.8721850011,2531.66430031 64.4580687089,2515.04520503 64.4260380859,2504.53233281 58.8523885911,2504.61585508 59.4863030203,2531.34640684 58.8560161648,2557.83032611 63.3885662895,2557.4518267 " moovel_rot="16.4" moovel_centroid="61.7739144655,2530.31544005" moovel_centroidlatlon="13.317480198490928,52.53129572702765"></polygon></g><g transform="translate(-181.06835360000002 -327.84023520000005) rotate(0)"><polygon id="93596881" class="tile" points="407.073887616,1246.95281927 413.667007699,1247.08473621 413.73791982,1206.56379528 412.470336672,1201.0 407.027160908,1201.09705657 407.073887616,1246.95281927 " moovel_rot="-75.8" moovel_centroid="410.347369454,1224.2036127581307" moovel_centroidlatlon="13.295008414898515,52.497779894835816"></polygon></g><g transform="translate(-252.7421037 -288.3974529000001) rotate(0)"><polygon id="233078820" class="tile" points="313.662805833,1222.68291354 325.677751329,1222.6514057 325.677300963,1218.84006897 330.61011906,1218.82112181 330.596593737,1201.0 313.654866837,1201.04759659 313.650491563,1203.51027673 313.662805833,1222.68291354 " moovel_rot="-25.1" moovel_centroid="321.805341974,1211.3615104723522" moovel_centroidlatlon="13.364154700501341,52.41370693864245"></polygon></g><g transform="translate(-536.7645587 -1843.7771958) rotate(0)"><polygon id="159744995" class="tile" points="546.480343711,2009.26912221 544.528990817,2029.59386881 549.749731997,2029.78376134 549.794624572,2033.97589476 560.184518484,2035.2826873 560.175052901,2010.58980197 546.480343711,2009.26912221 " moovel_rot="51.0" moovel_centroid="553.113751285,2021.84499136" moovel_centroidlatlon="13.33196962575214,52.47553547543616"></polygon></g><g transform="translate(-109.52989400000001 -1236.6050909000003) rotate(0)"><polygon id="168149433" class="tile" points="310.374653276,2309.33954657 310.38305918,2329.08465799 294.578988573,2329.0545999 294.570965578,2315.97120919 294.573424826,2309.31553282 310.374653276,2309.33954657 " moovel_rot="64.6" moovel_centroid="302.476850637,2319.19873188" moovel_centroidlatlon="13.483421422653935,52.50901639379117"></polygon></g><g transform="translate(-218.76452229999995 -2001.3517236999999) rotate(0)"><polygon id="215938281" class="tile" points="478.411741443,2026.76091211 478.432320935,2009.26912221 495.317393704,2009.29073557 495.307737753,2026.7822585 478.411741443,2026.76091211 " moovel_rot="-91.4" moovel_centroid="486.867275043,2018.02669974" moovel_centroidlatlon="13.241059035901623,52.423261875425"></polygon></g><g transform="translate(-140.2896779 -1426.2393195999998) rotate(0)"><polygon id="313252340" class="tile" points="218.295099748,2184.21579504 224.321033734,2184.2005665 224.291612839,2146.01931464 218.275006959,2146.04023708 218.295099748,2184.21579504 " moovel_rot="-58.6" moovel_centroid="221.295766717,2165.12390494" moovel_centroidlatlon="13.31989948753103,52.52208665090052"></polygon></g><g transform="translate(-98.41567529999998 -1038.4172386999999) rotate(0)"><polygon id="374813107" class="tile" points="349.976539812,1748.32186286 358.676056988,1748.34317212 358.970853598,1775.58219013 349.929637606,1775.87090482 349.976539812,1748.32186286 " moovel_rot="-39.5" moovel_centroid="354.380445382,1762.11794946" moovel_centroidlatlon="13.24241009252712,52.42309442106545"></polygon></g><g transform="translate(-251.35577039999998 -1790.5844173) rotate(0)"><polygon id="133039333" class="tile" points="311.390986344,2309.33860045 321.773397245,2309.31553282 321.771753533,2331.97161907 311.38305918,2331.98354532 311.390986344,2309.33860045 " moovel_rot="-60.9" moovel_centroid="316.580224944,2320.65346613" moovel_centroidlatlon="13.285574063124557,52.44071006649727"></polygon></g><g transform="translate(-492.1088473 -1698.9601932000003) rotate(0)"><polygon id="28095275" class="tile" points="561.929301925,2172.22450917 548.572246445,2165.94706251 557.138728251,2146.01931464 561.93685787,2148.42724886 561.929301925,2172.22450917 " moovel_rot="39.7" moovel_centroid="557.051913024,2159.86080953" moovel_centroidlatlon="13.379837074207586,52.40596597645223"></polygon></g><g transform="translate(-132.4154947 -960.4698036) rotate(0)"><polygon id="127727043" class="tile" points="260.671064287,1573.5374452 269.523493305,1573.55035394 269.508027387,1597.80335275 260.655601785,1597.7904324 260.671064287,1573.5374452 " moovel_rot="16.4" moovel_centroid="265.089547045,1585.67039529" moovel_centroidlatlon="13.266693449999998,52.54640785"></polygon></g><g transform="translate(-228.0556183 -1789.3107894000002) rotate(0)"><polygon id="396710852" class="tile" points="234.900767049,2146.01931464 234.909674607,2184.39871038 231.943588519,2186.40371596 230.55799082,2184.22834512 230.555621882,2148.83781108 234.900767049,2146.01931464 " moovel_rot="-21.9" moovel_centroid="232.7522855,2166.40182786" moovel_centroidlatlon="13.259106731412999,52.43279287063417"></polygon></g><g transform="translate(-213.93703870000002 -1353.4833696) rotate(0)"><polygon id="245181343" class="tile" points="289.834156886,2026.82379695 289.82539425,2009.29158968 292.33395663,2009.28688021 302.457884337,2009.26912221 302.465066136,2026.80781889 289.834156886,2026.82379695 " moovel_rot="-76.4" moovel_centroid="296.146005727,2018.04783617" moovel_centroidlatlon="13.37579392990069,52.43737214714295"></polygon></g><g transform="translate(-28.036505800000015 -1128.0760869) rotate(0)"><polygon id="396600016" class="tile" points="217.51404915,1748.55665401 217.515839539,1766.95289093 205.378454397,1766.50098792 205.559818582,1759.24467196 205.798254534,1753.74493294 205.900141606,1748.32186286 217.51404915,1748.55665401 " moovel_rot="73.0" moovel_centroid="211.590210034,1757.65792447" moovel_centroidlatlon="13.261804778649081,52.43631141434857"></polygon></g><g transform="translate(-76.35192470000001 -1569.8739819999998) rotate(0)"><polygon id="445160412" class="tile" points="96.2822874318,1573.61856128 106.373640831,1573.5374452 106.708984696,1593.23961986 96.2495170174,1593.48620447 96.2822874318,1573.61856128 " moovel_rot="30.4" moovel_centroid="101.397154109,1583.52982945" moovel_centroidlatlon="13.26867674148536,52.5909019532801"></polygon></g><g transform="translate(41.06396509999999 -2142.1719856) rotate(0)"><polygon id="335689357" class="tile" points="150.850032886,2164.78864689 145.76735599,2164.68209146 139.902877184,2164.52138294 140.439332375,2146.01931464 146.125731022,2146.1769371 150.822641757,2146.31207562 150.850032886,2164.78864689 " moovel_rot="-78.2" moovel_centroid="145.500688239,2155.49547733" moovel_centroidlatlon="13.438310218190166,52.46033576795285"></polygon></g><g transform="translate(16.621420699999987 -2499.6881303) rotate(0)"><polygon id="328868435" class="tile" points="115.266763827,2504.77955308 127.76642752,2504.53233281 127.780823313,2512.4332887 127.785137445,2520.39044473 115.242880975,2520.3104063 115.266763827,2504.77955308 " moovel_rot="-44.8" moovel_centroid="121.538355062,2512.50748215" moovel_centroidlatlon="13.53958439954901,52.4299489734206"></polygon></g><g transform="translate(-53.271232600000005 -212.15854710000008) rotate(0)"><polygon id="390545080" class="tile" points="105.33453709,1201.0 105.291731159,1235.12240461 101.223792979,1235.01197481 101.324682769,1213.56917485 100.287056628,1201.45431307 105.33453709,1201.0 " moovel_rot="21.7" moovel_centroid="103.203925789,1217.6071963604193" moovel_centroidlatlon="13.418115795774145,52.519488979975534"></polygon></g><g transform="translate(-18.29360299999999 -2142.3776676) rotate(0)"><polygon id="32386625" class="tile" points="235.909674607,2146.01931464 247.137541585,2146.38800097 246.880143151,2163.39652883 235.919184029,2163.04392562 235.909674607,2146.01931464 " moovel_rot="5.8" moovel_centroid="241.461482055,2154.67780735" moovel_centroidlatlon="13.352895696060397,52.59897388445489"></polygon></g><g transform="translate(-163.06603270000002 -1742.4947278) rotate(0)"><polygon id="26352677" class="tile" points="359.970853598,1748.32186286 371.892268337,1748.49278341 371.644319661,1762.96021506 359.980062181,1765.18069006 359.970853598,1748.32186286 " moovel_rot="0.4" moovel_centroid="365.720564979,1756.2215565" moovel_centroidlatlon="13.345610507824386,52.56709019847375"></polygon></g><g transform="translate(-330.9615493 -2139.4464844999998) rotate(0)"><polygon id="401828171" class="tile" points="333.461542285,2146.05495716 333.476249667,2160.16798031 344.941408237,2160.36425561 344.932678764,2146.01931464 333.461542285,2146.05495716 " moovel_rot="-6.8" moovel_centroid="339.218548701,2153.1510982" moovel_centroidlatlon="13.274143707547639,52.45242431292876"></polygon></g><g transform="translate(-352.47050709999996 -1650.6335047) rotate(0)"><polygon id="379841259" class="tile" points="408.94983329,2009.26912221 408.959495442,2024.27744889 419.22553787,2024.81220382 419.382554524,2009.55961893 408.94983329,2009.26912221 " moovel_rot="82.5" moovel_centroid="414.143752377,2016.9600108" moovel_centroidlatlon="13.333215312386859,52.52914445367951"></polygon></g><g transform="translate(-44.162293500000004 -629.3917304) rotate(0)"><polygon id="117589609" class="tile" points="82.6456206392,1201.0 83.0305624173,1214.52329501 77.1795344719,1214.65116577 77.2713359991,1217.43558281 72.7231817072,1217.39150022 72.7203429086,1201.30843682 82.6456206392,1201.0 " moovel_rot="44.9" moovel_centroid="77.5567230034,1208.6050164317162" moovel_centroidlatlon="13.301355302931242,52.57312079486108"></polygon></g><g transform="translate(183.8750053 -1847.2835964) rotate(0)"><polygon id="329711347" class="tile" points="46.4651681056,2506.89074516 46.4452227065,2521.00173622 57.8523885911,2518.6993639 54.6606171308,2504.53233281 52.4455832105,2505.1644844 46.4651681056,2506.89074516 " moovel_rot="62.7" moovel_centroid="51.4440297372,2513.14424979" moovel_centroidlatlon="13.31674498773329,52.57172159519605"></polygon></g><g transform="translate(-236.58433229999997 -1622.2153661999998) rotate(0)"><polygon id="159378508" class="tile" points="342.989076015,1768.8835477 342.735660958,1752.67307214 342.954645702,1748.78418994 337.170880159,1748.32186286 337.10870831,1751.34046194 337.064740453,1752.40427272 336.592833239,1768.76097834 342.989076015,1768.8835477 " moovel_rot="-18.2" moovel_centroid="339.862718325,1758.89865979" moovel_centroidlatlon="13.423319725961573,52.540177002949214"></polygon></g><g transform="translate(-188.9478689 -1204.0861952) rotate(0)"><polygon id="229222294" class="tile" points="321.057392824,1748.32203892 326.652142218,1748.32186286 329.367157807,1748.32860106 329.369251951,1750.4432836 329.375066574,1763.34908304 321.071246986,1763.34556452 321.057392824,1748.32203892 " moovel_rot="27.2" moovel_centroid="325.217892972,1755.83417148" moovel_centroidlatlon="13.278909412640825,52.4403117682343"></polygon></g><g transform="translate(-184.43954689999998 -1342.7262558) rotate(0)"><polygon id="190814279" class="tile" points="271.555759576,1748.33632012 277.372601013,1748.32186286 277.382134336,1765.30887727 271.561881709,1765.31295934 271.555759576,1748.33632012 " moovel_rot="-18.2" moovel_centroid="274.468390936,1756.82083291" moovel_centroidlatlon="13.260217550349235,52.43299451694912"></polygon></g><g transform="translate(-187.5221313 -1672.1287358999998) rotate(0)"><polygon id="268629251" class="tile" points="349.890180193,2009.26912221 349.894638462,2025.8479266 355.743428283,2025.85250965 355.749042188,2009.26936751 349.890180193,2009.26912221 " moovel_rot="66.7" moovel_centroid="352.819450105,2017.55735413" moovel_centroidlatlon="13.389862418087505,52.55891123464531"></polygon></g><g transform="translate(-494.61419049999995 -1078.9574645) rotate(0)"><polygon id="99252835" class="tile" points="529.215065577,1573.5374452 533.901260267,1573.53856029 533.926552455,1591.2365448 529.081918847,1591.20267163 529.215065577,1573.5374452 " moovel_rot="3.9" moovel_centroid="531.531772435,1582.42782782" moovel_centroidlatlon="13.178606858481327,52.53197105379795"></polygon></g><g transform="translate(-230.4345288 -606.7760691000001) rotate(0)"><polygon id="360564995" class="tile" points="270.524991365,1573.5418154 275.137168345,1573.5374452 275.135668322,1590.29017351 270.523493305,1590.29454395 270.524991365,1573.5418154 " moovel_rot="-82.9" moovel_centroid="272.830330329,1581.91599392" moovel_centroidlatlon="13.32309055,52.514431249999994"></polygon></g><g transform="translate(-293.8945263 -829.6877673000001) rotate(0)"><polygon id="148645273" class="tile" points="343.989076015,1764.29057955 348.924791745,1764.28526718 348.929637606,1748.32186286 343.998833336,1748.33899951 343.989076015,1764.29057955 " moovel_rot="-54.0" moovel_centroid="346.460888981,1756.31050196" moovel_centroidlatlon="13.287090511613162,52.447934615615004"></polygon></g><g transform="translate(89.6572728 -1530.8371203999998) rotate(0)"><polygon id="201855209" class="tile" points="77.7576109006,2309.31553282 77.7634284885,2325.20529099 72.7996134737,2325.20727531 72.7938075685,2309.3241963 77.7576109006,2309.31553282 " moovel_rot="-90.1" moovel_centroid="75.278789021,2317.26307613" moovel_centroidlatlon="13.358842874961454,52.552836448412904"></polygon></g><g transform="translate(-43.597084300000006 -759.6908682) rotate(0)"><polygon id="201855218" class="tile" points="71.7203429086,1212.85971641 67.5057934063,1212.86707219 67.4984397963,1201.0 71.7196875826,1201.00359014 71.7203429086,1212.85971641 " moovel_rot="-0.1" moovel_centroid="69.6107409476,1206.9310259509366" moovel_centroidlatlon="13.359885970175494,52.55262623932158"></polygon></g><g transform="translate(-236.10428780000004 -1838.7716543) rotate(0)"><polygon id="396521211" class="tile" points="263.672339376,2146.01931464 263.228758918,2154.32035011 269.349200622,2157.11109849 269.347755721,2148.53125735 263.672339376,2146.01931464 " moovel_rot="-31.5" moovel_centroid="266.402649544,2151.55085813" moovel_centroidlatlon="13.330498282014357,52.46693832844972"></polygon></g><g transform="translate(-324.0795296 -1645.9237478999999) rotate(0)"><polygon id="396521206" class="tile" points="326.585894201,2146.01931464 326.579518651,2153.76064944 332.461542285,2156.46845965 332.45475956,2148.5548177 326.585894201,2146.01931464 " moovel_rot="-32.0" moovel_centroid="329.53083963,2151.20691612" moovel_centroidlatlon="13.330214033743559,52.46666740219916"></polygon></g><g transform="translate(-333.6082869 -1951.6011183) rotate(0)"><polygon id="284757863" class="tile" points="356.749507943,2009.26912221 361.877300753,2009.2710564 361.877072671,2017.20128506 356.749042188,2017.18651915 356.749507943,2009.26912221 " moovel_rot="30.3" moovel_centroid="359.313922873,2013.23202751" moovel_centroidlatlon="13.205939784184896,52.54334937793351"></polygon></g><g transform="translate(-280.1358397 -1354.0786693) rotate(0)"><polygon id="131293438" class="tile" points="335.495328082,1755.39547077 335.592833239,1748.39862888 330.375066574,1748.32186286 330.378493528,1755.08237179 335.495328082,1755.39547077 " moovel_rot="79.4" moovel_centroid="332.975534714,1751.78913598" moovel_centroidlatlon="13.224476887849828,52.6240466777797"></polygon></g></g><g transform="translate(0 1327.7)"><polygon id="8" class="bin" points="-170.24183654,1021.76382594 -170.376696422,1022.09152297 -171.758163464,1023.78041119 -173.845955428,1024.41438227 -176.335721554,1024.41342634 -181.833665573,1026.68770011 -181.911752966,1026.49892771 -183.512476707,1027.56832059 -190.034753322,1027.57158222 -194.099119064,1029.25891615 -195.777480963,1033.32699506 -195.777064843,1033.57085237 -196.407709003,1035.6586339 -198.093451943,1037.04240213 -199.957216008,1037.81348143 -201.639672042,1041.88199127 -201.634760238,1046.41400991 -201.615067117,1074.37012807 -201.579781199,1111.58527926 -201.560045884,1131.4473807 -201.523592415,1153.97547131 -199.786323758,1158.14999285 -199.498897564,1159.64644722 -200.154193735,1203.80564064 -201.271876296,1206.42124928 -203.903780914,1207.499999 -446.2499995,1207.499999 -448.901649929,1206.40164943 -449.9999995,1203.749999 -449.9999995,3.75 -448.901649929,1.09834957055 -446.2499995,0.0 -160.991602439,0.0 -158.352560029,1.08580121684 -157.241771197,3.71442391671 -156.95297728,34.154212471 -155.235309876,38.1975680341 -151.163213874,39.8459428911 -150.028459661,39.8373308691 -147.358431066,40.9255296334 -146.2500005,43.5872228777 -146.2500005,65.1585994225 -147.337565556,67.7994212964 -149.969435257,68.9084748559 -151.74796334,68.9229716422 -155.79408881,70.6357477416 -157.44734908,74.7065540223 -157.332701004,92.3078372429 -158.52177967,95.0717133569 -161.359433901,96.0720321615 -162.926251808,95.9560585132 -193.678154285,93.6839464015 -198.000236468,95.2021027243 -199.825890592,99.4035524785 -199.778459503,128.505014764 -199.778455023,128.513063924 -199.793706931,158.037132536 -199.784682372,187.374549992 -199.764966512,197.503884743 -199.742468311,217.190328509 -199.676542582,245.591024457 -199.676532797,245.59818394 -199.664137872,275.677846774 -199.634139736,305.083214629 -199.609343343,334.104162422 -199.609342019,334.107943856 -199.613796444,363.041526752 -199.60392616,365.761841233 -199.557448404,378.828753646 -198.90075379,381.731682846 -194.740208855,390.537450157 -192.200487038,393.402874814 -179.397326695,401.461238176 -177.65419237,404.370596081 -178.970862595,407.49617766 -183.60800398,411.424692201 -188.08796166,425.900876801 -188.394797621,427.921272521 -188.59430142,579.955462841 -189.235364104,582.047451339 -190.934818988,583.425577001 -195.14977249,585.135168206 -196.856198583,589.204221469 -197.150054099,690.558974666 -195.150868489,695.394520995 -153.547812794,736.867118815 -152.51566753,738.799856845 -152.739711463,740.979444985 -153.670649968,743.18809828 -153.72979878,787.315478435 -154.857760647,789.991390857 -157.558068011,791.05963493 -191.640783692,790.348081846 -195.787608684,791.996934765 -197.499475121,796.118146573 -196.600715579,955.702308557 -194.9226386,959.729632628 -190.900154117,961.419277596 -173.81828121,961.564578238 -171.183929998,962.677470577 -170.100190093,965.32394814 -170.223906033,1014.13047058 -168.838060966,1017.50004747 -168.842545687,1020.36366166 -170.24183654,1021.76382594 " moovel_rot="0" moovel_centroid="-319.09495818953735,599.3345725840459" moovel_centroidlatlon="0,0" transform="translate(450 0)"></polygon><g transform="translate(-18.815443099999985 -1346.8205392) rotate(0)"><polygon id="98290397" class="tile" points="27.4850493865,2538.9864144 21.1620671524,2521.77682971 28.5637647362,2509.40746354 39.7849208187,2504.53233281 45.4452227065,2514.2873302 38.0770518089,2516.93777508 34.5282034744,2522.19754442 38.9173015965,2532.32305186 45.418768654,2546.09800255 42.8594770707,2546.94796582 35.1421547085,2541.91626405 32.3526900833,2540.77231035 27.4850493865,2538.9864144 " moovel_rot="46.1" moovel_centroid="33.1527047748,2524.74405575" moovel_centroidlatlon="13.203113192166075,52.568518149483786"></polygon></g><g transform="translate(-144.1011361 -75.35489340000004) rotate(0)"><polygon id="330713638" class="tile" points="146.601130134,1228.91094263 146.623403233,1201.028314 162.240744113,1201.0 162.22598406,1228.89054572 146.601130134,1228.91094263 " moovel_rot="-43.5" moovel_centroid="154.423184763,1214.9585684780252" moovel_centroidlatlon="13.34222714245937,52.56169751524096"></polygon></g><g transform="translate(-450.4816046 -1179.8217784) rotate(0)"><polygon id="395574466" class="tile" points="473.606765267,2333.77585022 473.619172451,2309.31553282 490.321184315,2309.32927929 490.297873905,2333.79022537 473.606765267,2333.77585022 " moovel_rot="-93.3" moovel_centroid="481.961286239,2321.5513909" moovel_centroidlatlon="13.302686819871859,52.42747812395789"></polygon></g><g transform="translate(-242.55662329999998 -843.5034938000001) rotate(0)"><polygon id="319690717" class="tile" points="282.087242042,2041.20947766 272.597173102,2038.32599541 277.785191627,2018.99040828 272.597611364,2017.47524352 274.743493477,2009.26912221 285.786214075,2012.54080323 283.798260518,2019.5532155 288.82539425,2021.67446953 284.211714624,2039.79243629 282.342452563,2039.35862917 282.087242042,2041.20947766 " moovel_rot="81.2" moovel_centroid="280.28806474,2025.58054873" moovel_centroidlatlon="13.405114938436578,52.425135610632665"></polygon></g><g transform="translate(-545.4615976 -1043.2228906999999) rotate(0)"><polygon id="223244325" class="tile" points="568.823583949,2152.37870937 569.371618861,2149.60558643 571.27928527,2147.52314533 573.935993256,2146.1507321 576.955743966,2146.01931464 579.966219269,2146.40358134 582.458677476,2147.54579278 584.724444027,2149.62281861 585.321502409,2152.42504355 585.310290792,2167.73052601 577.107028472,2167.70452846 568.812385445,2167.68417172 568.823583949,2152.37870937 " moovel_rot="33.1" moovel_centroid="577.047550826,2157.46946849" moovel_centroidlatlon="13.344779870170532,52.42861947283278"></polygon></g><g transform="translate(-180.46808479999999 -1027.3208823) rotate(0)"><polygon id="213965300" class="tile" points="225.321033734,2146.01931464 229.555621882,2146.20298662 229.460074613,2191.95975395 225.327652996,2191.95747413 225.321033734,2146.01931464 " moovel_rot="-2.7" moovel_centroid="227.414824433,2168.94138895" moovel_centroidlatlon="13.322678246924912,52.487277629103716"></polygon></g><g transform="translate(-360.3772889 -922.4257885) rotate(0)"><polygon id="159746072" class="tile" points="362.877300753,2043.08918085 369.747436514,2043.08676692 369.756631061,2009.2733868 362.886402737,2009.26912221 362.877300753,2043.08918085 " moovel_rot="-90.8" moovel_centroid="366.31682971,2026.17957547" moovel_centroidlatlon="13.333194525607611,52.47717060102846"></polygon></g><g transform="translate(-21.015371300000005 -1424.6870828) rotate(0)"><polygon id="353772758" class="tile" points="65.8952229747,2504.53854227 65.8721850011,2538.38788611 72.0730805293,2538.3816661 72.0961213303,2504.53233281 65.8952229747,2504.53854227 " moovel_rot="-15.0" moovel_centroid="68.9841522986,2521.46010553" moovel_centroidlatlon="13.3174374,52.52803134999999"></polygon></g><g transform="translate(-548.563136 -1080.5521872999998) rotate(0)"><polygon id="126095399" class="tile" points="567.812385445,2185.89964886 562.93685787,2188.16366053 562.965453497,2149.6754089 567.397807845,2146.01931464 567.812385445,2185.89964886 " moovel_rot="81.4" moovel_centroid="565.29614554,2167.73418162" moovel_centroidlatlon="13.252785752625217,52.5377143853775"></polygon></g></g></svg>