<svg><g transform="translate(0 0)"><polygon id="9" class="bin" points="-147.076462221,413.227625525 -146.2500005,414.521997423 -146.2500005,510.503700076 -147.361557088,513.168492068 -150.03726256,514.253514943 -202.066829015,513.736495063 -206.092241636,515.323777531 -207.872961744,519.267436782 -208.452779512,534.280830581 -206.928888778,538.404707853 -202.935802835,540.244238057 -175.692741408,541.310879384 -172.853654746,542.789194766 -172.189996941,545.920550345 -177.662192612,569.07366448 -177.774656867,569.663539064 -180.86313845,590.857721191 -180.891118638,591.073638739 -183.176869848,611.209265474 -183.184814284,611.282774383 -184.650189054,625.559961822 -184.680866503,625.993276157 -185.245512544,640.434670683 -185.250757856,640.710279007 -185.220884095,669.989682955 -185.20517718,670.44716449 -184.054608473,687.436531831 -183.906980385,688.461573382 -180.806205176,702.429081296 -180.949747368,702.460947544 -180.533439132,704.089990369 -182.041266129,706.574104894 -182.962862589,707.24236934 -185.105021494,707.956030383 -187.268642705,707.310352351 -194.165580927,702.634212199 -198.555369487,701.766122817 -202.233558938,704.314601802 -204.01266053,707.125381218 -204.081295373,707.236124828 -210.601848197,717.983267719 -211.524385732,723.574023642 -211.453588737,723.904816968 -212.983835377,726.304617835 -213.688617889,726.46567206 -218.194046426,729.560647829 -219.923439386,732.16806875 -231.127683622,749.065839876 -231.95792516,753.434243514 -229.419529384,757.085106194 -215.028172408,766.219517175 -214.989530709,766.24437705 -207.79479978,770.935627029 -206.170768836,773.317150003 -206.716558813,776.147563661 -230.940186331,812.721571496 -231.793185185,816.982725851 -229.421590569,820.624234118 -209.099689258,834.710355387 -204.773799022,835.635825285 -201.07334312,833.211686884 -185.252578799,809.861585878 -182.88538658,808.288235587 -180.094597243,808.827239307 -178.483543846,811.168934653 -178.977790761,813.967997018 -180.693189253,816.683119497 -189.79370866,831.102488135 -194.949932573,839.270984422 -199.717427829,846.890389149 -208.362003608,860.692290549 -218.066416902,876.187270054 -218.607848704,877.245466328 -231.720685324,909.482095063 -231.283022218,914.600664956 -226.882712251,917.251811678 -225.472432639,917.351577376 -222.353610371,919.475189991 -220.211924139,923.956387802 -217.35578342,926.74213579 -214.08437819,926.967699898 -210.872927729,924.600313644 -201.480500368,910.373803055 -201.441923941,910.314714853 -194.445916745,899.477711586 -194.414682915,899.430126036 -190.347549126,893.335086959 -187.959747842,891.73858646 -185.142781265,892.299931377 -180.254275183,895.571053038 -175.994151056,896.443542423 -172.341107801,894.084481108 -167.471547064,887.112560631 -167.467087632,887.106189986 -165.605150564,884.452130499 -165.515229834,884.320744922 -164.381138205,882.621815677 -162.007665322,881.028655225 -159.201010899,881.571080059 -150.759902544,887.124922364 -149.28724091,887.410027284 -147.107307251,888.705283968 -146.2500005,891.091667376 -146.2500005,919.811477772 -147.387282114,922.501496849 -150.109308571,923.559884333 -188.978503765,922.426411569 -193.145388171,924.047626867 -194.8838259,928.166983487 -194.786751903,1040.83871372 -193.295397037,1044.70539498 -189.597046941,1046.57557409 -173.24671205,1048.23142963 -173.091660317,1048.24536068 -172.534227085,1048.28908863 -170.138948839,1049.41337009 -169.082230706,1051.83921293 -169.890186188,1054.35885073 -172.770498462,1057.98796749 -173.553472029,1059.22560294 -179.942873929,1072.21058218 -180.492771394,1073.78857916 -184.157084071,1090.70145299 -187.996260875,1108.57865427 -188.048865465,1108.85008895 -190.96882976,1125.72704195 -191.055110652,1126.45504403 -192.226511717,1144.55866469 -192.240830445,1145.02188522 -192.188669938,1163.56818596 -192.178444971,1163.92415867 -191.234829802,1181.18303679 -191.221139465,1181.38098528 -189.890132156,1197.28747704 -189.315580043,1199.51790567 -188.265947175,1201.86360093 -188.200415031,1204.77116425 -188.34032496,1205.12589428 -189.718948316,1206.85016894 -191.828793417,1207.499999 -446.2499995,1207.499999 -448.901649929,1206.40164943 -449.9999995,1203.749999 -449.9999995,3.75 -448.901649929,1.09834957055 -446.2499995,0.0 -203.903780928,0.0 -201.232530644,1.11809538217 -200.15419375,3.80564164409 -200.824296035,48.9625915323 -199.757038828,52.4078754965 -196.863872562,54.5616184015 -180.971763805,59.9108693486 -180.83918567,59.9540032948 -172.956997505,62.430356485 -170.902920687,64.0173517529 -170.371548581,66.558105429 -171.617478258,68.8352626033 -174.043745667,69.757765731 -185.866845424,69.8751428645 -189.892149261,71.5760635123 -191.558602347,75.6157585679 -191.698948163,177.310970061 -190.756389781,180.78573158 -186.045886257,188.80413809 -180.240860353,192.131516658 -152.25035604,192.167829653 -149.354467061,193.541247782 -148.577536384,196.650721863 -181.042385205,359.560028884 -180.604678191,363.164680086 -178.113874638,365.806837418 -150.035854683,381.048897349 -148.078299768,384.503727952 -148.0839596,384.63699731 -148.161489749,386.885892336 -148.453760697,388.213397964 -148.631075489,388.634011558 -148.795401541,407.678021983 -146.683429701,413.073787556 -147.076462221,413.227625525 " moovel_rot="0" moovel_centroid="-316.2041108605543,594.8762446922902" moovel_centroidlatlon="0,0" transform="translate(450 0)"></polygon><g transform="translate(-192.7172699 -312.43506071560137) rotate(0)"><polygon id="23507219" class="tile" points="195.217267017,1512.56035742 195.204644566,1433.1501369 201.712570413,1386.00852304 223.132744054,1373.81753842 274.864326617,1471.37867371 195.217267017,1512.56035742 " moovel_rot="-29.9" moovel_centroid="224.818426019,1446.50294098" moovel_centroidlatlon="13.364079203819868,52.46940888076431"></polygon></g><g transform="translate(2.499998500000004 -936.1211659) rotate(0)"><polygon id="35000285" class="tile" points="0.12132972409,1881.41591678 47.552811095,1881.76355731 47.3529007844,1949.06385068 76.0707066748,1948.8402221 77.0053413165,1981.79210152 64.8240105751,1992.35395733 0.0,1993.12110217 0.12132972409,1881.41591678 " moovel_rot="-11.0" moovel_centroid="30.74592686595963,1943.29300667" moovel_centroidlatlon="13.570877816403138,52.55649890587053"></polygon></g><g transform="translate(-430.75964039999997 -1411.0518948999998) rotate(0)"><polygon id="10307290" class="tile" points="555.157872173,2357.83131552 553.961727126,2360.42145214 552.212379047,2362.02715362 549.166579712,2363.13067748 546.24209621,2363.65373605 545.800037433,2357.88963768 515.097334272,2358.05300193 515.445632059,2564.1345026 535.138329088,2564.10504143 535.065114919,2559.50700966 538.863159033,2559.32211397 545.99622449,2558.87074284 548.77468151,2558.79289744 550.477079372,2559.45538671 552.166770745,2560.45732475 553.452866546,2561.66757335 554.325790536,2563.14039231 555.048831151,2548.39123906 554.303548252,2549.94719321 553.599625336,2550.68039433 552.072090137,2551.90033999 550.011619497,2552.81587644 545.835504037,2553.0109693 542.025477066,2552.72120535 541.416431249,2551.07519475 541.071983645,2536.70435221 544.600214605,2536.69571205 543.796734744,2385.09964444 543.229606708,2383.18534358 540.40851857,2380.80687488 540.369587145,2372.91128424 540.702513858,2371.28453891 541.958842748,2370.17989885 543.444587841,2369.869249 547.940837079,2369.75558459 550.718561388,2370.33164047 553.254998186,2371.96929238 553.689812338,2372.44766222 554.835546068,2374.66748066 555.157872173,2357.83131552 " moovel_rot="-27.3" moovel_centroid="530.067638755,2460.02665447" moovel_centroidlatlon="13.54604512824027,52.547294364392286"></polygon></g><g transform="translate(-415.9178644 -528.8226998999999) rotate(0)"><polygon id="24529579" class="tile" points="493.425295287,1373.81753842 505.333214179,1409.61299973 506.907845516,1414.32623843 518.470130317,1410.38576888 519.245127868,1412.89452617 528.596511524,1409.79676869 533.211011728,1422.99373086 511.53644376,1430.61925004 515.98404368,1445.0704144 522.538130907,1465.9867771 523.895557572,1470.32913593 469.709102368,1471.46119526 470.60486903,1463.21042834 446.03261264,1466.34245444 444.000175341,1463.97498201 441.741542354,1452.21916403 446.479994233,1450.85705834 446.01380562,1448.99138481 438.305887729,1450.76085647 438.202845931,1446.67993461 438.54216752,1442.5065191 455.890743819,1435.30795715 438.189540912,1379.31261631 493.425295287,1373.81753842 " moovel_rot="71.4" moovel_centroid="480.774568183,1425.59803471" moovel_centroidlatlon="13.590864748214264,52.5042198643201"></polygon></g><g transform="translate(-395.383007 -232.80445480000003) rotate(0)"><polygon id="89793911" class="tile" points="562.350260395,1208.54526347 562.309240533,1331.87200771 514.082830305,1331.88268884 514.056243473,1201.24454676 535.44620701,1201.0 541.600971253,1207.93700871 562.350260395,1208.54526347 " moovel_rot="-83.3" moovel_centroid="537.861914725,1268.1818423704449" moovel_centroidlatlon="13.514760847178115,52.53289373004946"></polygon></g><g transform="translate(49.69002320000001 -1416.0244004) rotate(0)"><polygon id="387589510" class="tile" points="72.4735558063,2357.83131552 72.4514346937,2256.21378688 133.567352404,2256.21179342 133.589520719,2357.82932033 72.4735558063,2357.83131552 " moovel_rot="-92.1" moovel_centroid="103.02046582,2307.02156058" moovel_centroidlatlon="13.48978545,52.527245549999996"></polygon></g><g transform="translate(-231.81523990000002 -784.8358168) rotate(0)"><polygon id="218898392" class="tile" points="234.286382673,1543.40377285 250.239672982,1566.20247207 254.227319276,1563.55311531 280.636343779,1601.10708153 279.021885817,1602.60023811 276.403224988,1598.99563089 242.498010479,1623.70235952 244.948389895,1626.97968985 234.247782982,1634.67030377 239.004304859,1639.70448908 261.873090486,1624.07018283 263.530592706,1626.01092279 315.950882065,1589.87499081 297.939135266,1564.6334972 303.4861438,1560.9897814 305.77785473,1564.20569359 315.371950066,1557.47760686 312.98362859,1553.77140789 312.179577083,1549.72416067 315.171154363,1547.52872261 303.079975893,1529.85209219 300.910013395,1531.79465435 298.239708568,1528.34422415 284.640178596,1538.00691172 266.514073714,1512.56035742 234.662288894,1535.14232224 238.177757957,1540.56327793 234.286382673,1543.40377285 " moovel_rot="66.2" moovel_centroid="276.061944014,1566.64373869" moovel_centroidlatlon="13.614512859409222,52.50607311850686"></polygon></g><g transform="translate(-100.54525509999999 -1669.3149337) rotate(0)"><polygon id="271412610" class="tile" points="185.268920698,2363.48587877 193.98756191,2357.83131552 209.687490166,2358.46920976 240.276265266,2407.59524296 272.246754165,2387.61163702 279.151107353,2398.06015887 227.647038277,2430.37177757 209.431460976,2441.40876101 245.242025965,2498.35298466 235.657360323,2504.7057998 203.780306524,2454.52446917 196.769935778,2451.1870754 191.591897629,2452.2187161 185.237372774,2407.9205116 205.234817073,2395.2570572 185.268920698,2363.48587877 " moovel_rot="77.5" moovel_centroid="217.960650574,2417.40008381" moovel_centroidlatlon="13.471144403732254,52.52832498388538"></polygon></g><g transform="translate(1.4029457999999977 -581.1637178999999) rotate(0)"><polygon id="26263365" class="tile" points="15.4961117141,1267.58544774 2.27869058214,1221.26836831 1.0,1216.82226642 42.9295861024,1204.27237788 56.5170838213,1205.31733194 58.4536389703,1203.7777407 61.8232896503,1201.0 79.9580011841,1202.31754321 76.5235727837,1211.91483936 47.4816545827,1257.49749459 48.9698421711,1268.98976534 76.4679746935,1286.77518158 79.9230250696,1288.99331819 55.8827569405,1325.23642996 48.9717912564,1320.3259365 51.9551974054,1315.952546 47.9848959114,1313.56832918 56.9546447579,1299.08557095 30.6524328532,1282.33334027 34.1809321832,1276.39607036 29.4426211169,1273.40538864 18.0640680797,1276.26389932 15.4961117141,1267.58544774 " moovel_rot="-90.1" moovel_centroid="41.72313990298771,1249.074245025924" moovel_centroidlatlon="13.443961762014563,52.54705952422862"></polygon></g><g transform="translate(-90.42062379999999 -615.3585714000001) rotate(0)"><polygon id="49069219" class="tile" points="226.834920015,1201.0 222.869163583,1221.22713354 220.714933424,1252.16557813 220.689895775,1327.42084719 224.602977389,1328.40107495 223.881639358,1334.11151195 246.192320875,1335.13482397 250.574444893,1335.510207 252.277235105,1326.82261901 261.612127971,1328.07634439 279.311786691,1309.77245861 274.864953114,1306.29717184 274.164749594,1280.53902732 244.749729247,1279.00505766 246.385395057,1238.31913378 249.266352523,1206.50104907 226.834920015,1201.0 " moovel_rot="-80.4" moovel_centroid="241.43205476,1279.2695174389978" moovel_centroidlatlon="13.562192811205186,52.556003347851025"></polygon></g><g transform="translate(-34.1403028 -812.5453782000001) rotate(0)"><polygon id="116702503" class="tile" points="222.383580537,1878.88476983 229.734565039,1881.41591678 229.980955276,1875.92025327 230.160522569,1871.78803697 227.260350806,1870.4659199 226.873067792,1869.47758255 229.935960212,1866.3266164 229.906216376,1517.34302189 226.989139274,1519.88587076 226.384977479,1519.34275629 228.19760664,1512.56035742 223.336729262,1513.11667366 222.468707015,1520.02789451 222.383580537,1878.88476983 " moovel_rot="19.0" moovel_centroid="226.161776775,1697.64635739" moovel_centroidlatlon="13.39734026483698,52.42128343964351"></polygon></g><g transform="translate(99.6415338 -1056.1937208999998) rotate(0)"><polygon id="9896827" class="tile" points="119.127978211,2058.23359826 104.479440861,2058.96021964 101.409763875,2077.86490275 101.454974947,2158.08544784 101.135828237,2254.60024088 114.421081857,2256.21179342 119.332751811,2240.39386762 119.218939305,2159.01215343 119.127978211,2058.23359826 " moovel_rot="-12.3" moovel_centroid="110.298120059,2157.31622934" moovel_centroidlatlon="13.573761511636073,52.55124495806873"></polygon></g><g transform="translate(-210.89202659999998 -954.1752571) rotate(0)"><polygon id="41274272" class="tile" points="390.626364872,2058.23359826 340.162619288,2058.26948864 340.194298801,2126.07832165 362.345268341,2126.06782418 390.657989535,2126.04242704 390.626364872,2058.23359826 " moovel_rot="-85.6" moovel_centroid="365.410278653,2092.15726741" moovel_centroidlatlon="13.294601030348975,52.519746549436405"></polygon></g><g transform="translate(-241.9719537 -1667.3915178000002) rotate(0)"><polygon id="315038068" class="tile" points="454.531727173,2256.21179342 405.794746955,2256.80353721 406.251762402,2326.5533504 454.511171853,2326.56757474 454.531727173,2256.21179342 " moovel_rot="-2.9" moovel_centroid="430.306967395,2291.47614537" moovel_centroidlatlon="13.212706661492817,52.57591423663568"></polygon></g><g transform="translate(-294.7211099 -1338.7904371) rotate(0)"><polygon id="41368706" class="tile" points="297.900276701,1892.44844043 297.677394913,1917.30587293 297.413834436,1946.5241881 297.220996794,1967.79537823 307.001163643,1966.34497534 320.431360148,1961.53100639 328.165483729,1956.47499597 334.910871362,1950.50306772 341.189255372,1944.16412918 347.469203146,1937.27055862 357.804707754,1925.89878206 351.681797969,1916.8855159 348.178966729,1913.16126918 332.729985365,1896.58326892 324.309108833,1886.92445783 322.936307868,1881.41591678 315.10576945,1884.13935116 314.925840724,1883.56406155 302.422585101,1887.76990941 297.177242807,1889.63922948 297.900276701,1892.44844043 " moovel_rot="-39.5" moovel_centroid="320.250920954,1924.79983222" moovel_centroidlatlon="13.508899317607757,52.51471473073147"></polygon></g><g transform="translate(69.0479936 -1819.6690374999998) rotate(0)"><polygon id="132645608" class="tile" points="38.9068981133,2360.131659 41.4412376757,2360.36816987 45.6254252499,2360.75585159 45.4054524318,2362.70361109 68.2760728348,2379.48077921 71.7057574826,2381.79983626 75.0251817555,2377.34287649 77.3716731733,2379.45265774 49.1812742374,2425.96028647 45.7136097718,2423.8908203 44.5868141902,2425.7845214 43.2684341901,2428.01550555 46.3728136626,2430.01505241 40.597901195,2440.51551343 36.4487104618,2438.14490786 37.2604964781,2436.72224836 35.5752670901,2435.756817 28.9111654879,2431.94447334 25.7010005884,2430.11285314 24.9428637723,2431.25415918 19.5438513301,2428.10289775 16.297426246,2427.61789788 11.9662865417,2435.81958483 0.0,2429.09327747 0.208752022544,2419.64175583 20.7503814777,2421.82720173 25.8858553524,2369.14756094 0.00596060464159,2366.70011904 0.830233344343,2359.12448979 5.06807054733,2359.23081209 7.89738559239,2361.51781032 10.9473004335,2357.83131552 38.9068981133,2360.131659 " moovel_rot="4.1" moovel_centroid="38.113321840750835,2395.99301468" moovel_centroidlatlon="13.42336713701852,52.487496857952515"></polygon></g><g transform="translate(-332.5186874 -1128.8161166) rotate(0)"><polygon id="177623357" class="tile" points="578.39940826,2167.7710072 556.307027203,2168.13109049 556.389475852,2115.33560135 542.753503312,2115.24909894 543.515985128,2058.35869696 577.965875244,2058.23359826 578.348760138,2066.17934962 578.360983872,2157.63213337 578.379036596,2162.17659459 578.39940826,2167.7710072 " moovel_rot="-11.5" moovel_centroid="563.15612814,2106.96222896" moovel_centroidlatlon="13.58963056977623,52.52462220792514"></polygon></g><g transform="translate(23.0992435 -1008.6630799999999) rotate(0)"><polygon id="48849000" class="tile" points="112.78451954,1547.96782941 116.1565571,1531.65682726 112.425693374,1530.77879507 114.609944238,1521.15662867 118.833721621,1522.1522479 119.059299841,1512.56035742 128.854149418,1513.61253227 129.525358714,1517.97786426 154.799535268,1525.29195314 156.665587892,1521.95689404 182.900838699,1529.49610377 180.828519147,1539.62375561 182.885584263,1540.82468052 177.579577398,1560.5847409 172.514257849,1559.31817302 165.528657411,1557.43698562 166.427696986,1554.08671591 150.196020969,1549.71312047 138.348455678,1593.83831586 122.442868551,1589.72684991 124.834785224,1581.36858027 132.611337176,1553.51819398 112.78451954,1547.96782941 " moovel_rot="22.1" moovel_centroid="144.29292386,1545.59164603" moovel_centroidlatlon="13.366132097219891,52.43485381977214"></polygon></g><g transform="translate(-449.3290732 -1403.4795933) rotate(0)"><polygon id="25906867" class="tile" points="451.829070789,1941.41779067 451.889809723,1895.2128404 506.288911093,1881.41591678 506.68369943,1941.03413128 451.829070789,1941.41779067 " moovel_rot="-51.8" moovel_centroid="480.331597951,1914.65312409" moovel_centroidlatlon="13.307251005476122,52.59087288191686"></polygon></g><g transform="translate(-63.6046685 -897.2351402000002) rotate(0)"><polygon id="301971814" class="tile" points="144.397124495,1373.81753842 144.380497129,1379.32716358 144.409323994,1396.22290848 144.245748752,1411.99825743 144.27713571,1427.61072927 144.265575567,1430.4437714 194.204644566,1430.67150945 194.188425878,1411.8238344 194.142371487,1373.89073869 144.397124495,1373.81753842 " moovel_rot="-37.4" moovel_centroid="169.265394171,1402.22956966" moovel_centroidlatlon="13.27262371372112,52.499793356051356"></polygon></g><g transform="translate(-100.98245690000002 -1807.9037963) rotate(0)"><polygon id="122634199" class="tile" points="268.566404592,2289.85489964 272.783290616,2317.83651451 320.309953418,2309.14298978 323.730831978,2331.5506109 332.740327119,2328.87470025 334.573169311,2302.83675622 334.577411984,2282.30879525 331.922492978,2256.21179342 312.096234739,2260.19111908 314.527413767,2281.15895136 268.566404592,2289.85489964 " moovel_rot="-63.3" moovel_centroid="308.659263376,2294.97703486" moovel_centroidlatlon="13.152095800566952,52.47022076407088"></polygon></g><g transform="translate(-125.15438840000002 -1472.0988531) rotate(0)"><polygon id="23492581" class="tile" points="131.484924034,1894.05084576 132.061859276,1916.90067331 127.65606004,1919.83855984 127.654389649,1951.75475492 132.339744501,1949.24083225 137.942836875,1951.10678681 159.816071346,1950.59726375 162.969045977,1946.44182023 161.745931529,1926.59974816 173.295273437,1925.6252689 172.118193403,1885.46477432 168.01845902,1881.41591678 155.837661209,1881.7886009 152.010307609,1882.8594886 149.563379509,1887.58542732 137.462941186,1887.66447157 131.484924034,1894.05084576 " moovel_rot="-15.0" moovel_centroid="150.09396876,1916.67737145" moovel_centroidlatlon="13.2164147411492,52.52814525284373"></polygon></g><g transform="translate(-348.72979869999995 -761.3674783) rotate(0)"><polygon id="28363953" class="tile" points="527.782726259,1526.256703 522.82051248,1516.31157591 507.487595889,1512.56035742 495.245791241,1515.82464001 494.8142296,1537.7768077 486.100498197,1541.48260508 499.955383445,1596.33574469 508.2733694,1592.90924942 527.719486095,1586.92557065 524.353104184,1573.59755865 527.782726259,1526.256703 " moovel_rot="11.2" moovel_centroid="509.135671723,1552.5855271" moovel_centroidlatlon="13.417176900695207,52.57171565986426"></polygon></g><g transform="translate(114.3465525 -2155.4869857999997) rotate(0)"><polygon id="341596456" class="tile" points="50.0275042512,2564.1345026 49.5414579671,2579.29907918 50.003178622,2633.83153908 43.8632822625,2633.33171023 44.00442541,2633.4832178 39.658664486,2638.72384782 8.51707897,2622.95406274 3.75536473822,2620.06937052 0.0,2618.19049988 13.8861401757,2592.91617874 12.8533761883,2572.88352383 32.5914127663,2569.04365712 39.3151027579,2567.73874994 41.487876958,2567.31713187 42.5872324146,2566.37593408 43.1260186717,2564.72135719 50.0275042512,2564.1345026 " moovel_rot="86.3" moovel_centroid="30.499846289050566,2601.86393484" moovel_centroidlatlon="13.570124837720497,52.41273719991105"></polygon></g><g transform="translate(-111.22689779999996 -672.5639759999999) rotate(0)"><polygon id="26314593" class="tile" points="329.021260631,1366.94086186 342.260117371,1367.09886768 342.316852406,1249.49203341 337.273247328,1249.52199366 337.196718365,1229.64848337 342.419491579,1229.63187863 342.447021691,1201.06178843 337.553385383,1201.0 333.142286701,1201.11144647 328.653244798,1201.14273226 328.90703183,1315.72456007 332.979189872,1315.69652359 332.454595826,1330.25797887 328.935311644,1330.11563886 328.999771474,1359.77909482 332.734718579,1360.0061497 332.397164894,1361.55941655 329.002816615,1361.42066963 329.021260631,1366.94086186 " moovel_rot="62.9" moovel_centroid="335.512927809,1284.3898572797511" moovel_centroidlatlon="13.5527337208242,52.55207523817599"></polygon></g><g transform="translate(-271.9612036 -1859.885703) rotate(0)"><polygon id="33359685" class="tile" points="381.273140506,2258.43317394 381.319596985,2331.51222109 374.642915108,2330.95916989 350.846367745,2330.03301989 347.629527332,2330.08543065 349.601303974,2256.21179342 381.273140506,2258.43317394 " moovel_rot="39.8" moovel_centroid="364.918125398,2294.33381263" moovel_centroidlatlon="13.494058933587663,52.460159209414535"></polygon></g><g transform="translate(-205.85394209999998 -1992.5727403) rotate(0)"><polygon id="255397569" class="tile" points="426.430414975,2427.50144435 421.573143035,2438.83668029 393.78696741,2426.24870146 389.666969687,2424.38061725 391.944267272,2420.77203455 376.306293775,2410.4894213 379.190942715,2406.56247545 375.08482171,2404.62224275 395.885316483,2357.83131552 407.241528824,2362.86136492 408.656161673,2359.73964006 426.391416957,2367.6373536 422.484921294,2376.29208695 424.69850874,2377.29651686 412.521114031,2405.23350869 408.882794339,2403.64183192 402.96531413,2417.24198789 426.430414975,2427.50144435 " moovel_rot="-79.1" moovel_centroid="401.864021722,2395.28666083" moovel_centroidlatlon="13.60957786502534,52.49264802275954"></polygon></g><g transform="translate(-305.21453199999996 -1521.3962139) rotate(0)"><polygon id="448826922" class="tile" points="558.011198753,1881.4444945 530.819720384,1881.41591678 530.747501801,1965.18942799 558.547698762,1962.66378585 558.011198753,1881.4444945 " moovel_rot="79.0" moovel_centroid="544.461796972,1922.83556582" moovel_centroidlatlon="13.57350761085563,52.56027137675107"></polygon></g><g transform="translate(-164.6668361 -1584.5072965) rotate(0)"><polygon id="326624302" class="tile" points="223.540841363,2058.23359826 235.384569949,2058.09798967 232.892063785,1881.41591678 223.674740103,1881.6680886 223.845939436,1967.3930697 223.540841363,2058.23359826 " moovel_rot="65.0" moovel_centroid="228.957455313,1973.57347244" moovel_centroidlatlon="13.451944208714878,52.50111206058636"></polygon></g><g transform="translate(-117.83274840000001 -1711.3900701000002) rotate(0)"><polygon id="27260542" class="tile" points="160.720496317,2115.70577681 160.638513161,2058.23359826 130.891591274,2058.58087766 120.332751811,2077.27427475 120.336708422,2108.86256661 130.832760951,2108.82102634 131.060741088,2116.29241411 160.720496317,2115.70577681 " moovel_rot="65.1" moovel_centroid="141.80264583,2087.37496473" moovel_centroidlatlon="13.309312609579768,52.424085320166064"></polygon></g><g transform="translate(-315.3139568 -1554.9953167) rotate(0)"><polygon id="399456820" class="tile" points="434.790367819,1881.41591678 450.778734143,1881.44782336 450.829070789,1965.71572499 434.441953229,1966.18742582 434.206064993,1953.87514454 438.875993518,1953.87907996 438.678091111,1950.31083268 434.30293706,1950.405001 434.056198828,1938.80692509 389.762810345,1938.61199754 389.694422236,1927.65861764 433.904373674,1927.76057078 434.790367819,1881.41591678 " moovel_rot="-26.4" moovel_centroid="434.59526535,1926.08006183" moovel_centroidlatlon="13.483798452476167,52.51082084283324"></polygon></g><g transform="translate(-301.1768091 -2039.3956351) rotate(0)"><polygon id="379803180" class="tile" points="441.664757982,2404.63749597 441.668668006,2360.65896016 441.673258604,2357.83314788 478.900612476,2357.83131552 478.899938035,2360.47015207 483.661179538,2360.46967634 483.664310132,2409.84631241 457.259048751,2409.8476937 457.385818488,2407.96641019 456.355403268,2406.06756774 455.048048297,2404.87775213 451.567953183,2404.71132564 451.379497153,2409.53747688 446.465546909,2409.52807318 446.217381285,2404.69277603 441.664757982,2404.63749597 " moovel_rot="-88.8" moovel_centroid="462.885213246,2383.40228236" moovel_centroidlatlon="13.400462515815923,52.39374685204204"></polygon></g><g transform="translate(187.4865287 -1758.6606297000003) rotate(0)"><polygon id="55937330" class="tile" points="0.0,2113.74606691 7.18869597428,2113.72921865 41.8755870977,2113.67392108 41.8888873156,2087.11336882 33.4888006741,2087.12312131 33.5024781972,2058.23359826 0.0172323005274,2058.29058962 0.0,2113.74606691 " moovel_rot="-61.0" moovel_centroid="18.994794274305143,2087.53326359" moovel_centroidlatlon="13.426474823837559,52.55616206486252"></polygon></g><g transform="translate(-473.52509380000004 -1768.2032761000003) rotate(0)"><polygon id="203154998" class="tile" points="503.828433037,2101.45514239 503.741194141,2105.25018168 503.655050939,2109.40655836 502.491599098,2109.42644757 497.217864307,2109.79808252 484.138124113,2110.52914786 482.788193165,2090.96257483 479.531498704,2091.34346737 476.799711071,2069.30879305 476.006342879,2062.71997039 497.158803014,2060.42722542 500.134576715,2060.16394035 500.041994277,2058.72688577 505.410464789,2058.23359826 524.350111007,2058.94430639 524.255023448,2098.0567922 524.301072675,2101.63204789 503.828433037,2101.45514239 " moovel_rot="-86.7" moovel_centroid="501.370507438,2082.1847207" moovel_centroidlatlon="13.30485431850924,52.51025424858336"></polygon></g><g transform="translate(-241.3458299 -1234.2857629) rotate(0)"><polygon id="262676486" class="tile" points="316.950882065,1582.73623916 326.634602623,1595.93842746 352.512487381,1602.10062331 355.326791336,1588.98587318 342.845705587,1569.81345447 339.262226176,1572.14971338 334.605265675,1564.9957781 338.312090275,1562.57422045 334.135872184,1556.15560287 355.333758964,1542.31139143 336.30415308,1514.03757123 331.202379638,1512.56035742 316.950882065,1582.73623916 " moovel_rot="73.5" moovel_centroid="335.609634026,1562.34441653" moovel_centroidlatlon="13.57821010983873,52.566515955358746"></polygon></g><g transform="translate(-76.11705119999999 -1013.9326051999999) rotate(0)"><polygon id="401800895" class="tile" points="322.515708658,2060.27375115 299.93450747,2058.23359826 299.945390651,2132.54870119 306.274749185,2132.92214081 301.318323822,2171.13072253 309.061452622,2171.74260092 314.789323566,2124.26511981 316.774037925,2107.79619595 319.526508616,2085.02499505 321.616549472,2067.67096337 322.515708658,2060.27375115 " moovel_rot="62.3" moovel_centroid="308.899570529,2103.71360241" moovel_centroidlatlon="13.478947178981187,52.60405904582308"></polygon></g><g transform="translate(78.38665119999999 -1248.8947259000001) rotate(0)"><polygon id="137012217" class="tile" points="40.9310804635,1512.56035742 69.1231016501,1512.57681407 85.5910287483,1512.59016912 85.5866371413,1517.47668395 90.4971242732,1517.4751325 90.6234042581,1536.30746255 57.1241794405,1536.32429708 57.1156372848,1556.13632175 57.1083983744,1570.32521632 48.8481861856,1570.32591295 40.8974969735,1570.31516713 40.9035320651,1559.87924484 40.9215271449,1520.00856164 40.9310804635,1512.56035742 " moovel_rot="-27.2" moovel_centroid="60.0101372258,1533.91566997" moovel_centroidlatlon="13.431622713808853,52.49201482171222"></polygon></g><g transform="translate(82.7987493 -1624.9380101999998) rotate(0)"><polygon id="51215907" class="tile" points="0.0282033652067,2308.48843856 0.0223577183671,2306.16641663 0.0,2256.30710495 33.0868311147,2256.21179342 33.1206066532,2308.38944079 0.0282033652067,2308.48843856 " moovel_rot="-32.1" moovel_centroid="16.557569370850292,2282.3504804" moovel_centroidlatlon="13.367371897745327,52.503440946436214"></polygon></g><g transform="translate(88.57749769999998 -2312.4238578) rotate(0)"><polygon id="46248786" class="tile" points="120.451960202,2577.91254392 156.066896352,2564.1345026 156.095793654,2624.93230956 137.403873564,2626.43175492 137.901328393,2607.21055514 133.589213355,2607.05997276 120.168253161,2606.51482876 120.451960202,2577.91254392 " moovel_rot="2.0" moovel_centroid="140.932609225,2594.62524946" moovel_centroidlatlon="13.406028280524342,52.39492616731923"></polygon></g><g transform="translate(183.85269200000002 -2008.2545538) rotate(0)"><polygon id="421128107" class="tile" points="73.3034004351,2564.46232421 69.3377374714,2564.1345026 65.1879264232,2564.91400358 54.1481212836,2564.4120385 52.3278341054,2565.65403177 52.0275042512,2567.00247645 52.6501787504,2636.72709733 53.1737679248,2637.94060104 54.7057331904,2638.53368576 66.0525714543,2638.88539505 67.9684084707,2639.26015279 73.2248993119,2639.5764617 73.3034004351,2564.46232421 " moovel_rot="-9.3" moovel_centroid="62.8469739257,2601.52142761" moovel_centroidlatlon="13.564039339747092,52.5573399959872"></polygon></g><g transform="translate(-310.6848352 -2117.7523493) rotate(0)"><polygon id="118395071" class="tile" points="514.097334272,2412.35527997 484.699464983,2412.31901509 484.664310132,2357.83131552 514.062290923,2357.86753216 514.097334272,2412.35527997 " moovel_rot="66.6" moovel_centroid="499.380852242,2385.09326846" moovel_centroidlatlon="13.695527500000003,52.37347555"></polygon></g><g transform="translate(-213.3408735 -1650.7563064) rotate(0)"><polygon id="26414069" class="tile" points="288.688872022,1938.83076526 296.156882609,1938.82650094 296.151875535,1925.98090702 296.171034665,1897.50156158 296.164418926,1889.05806805 296.177242807,1881.41852698 268.400739788,1881.41591678 268.38908149,1920.22546099 268.380398587,1938.82389184 288.688872022,1938.83076526 " moovel_rot="-86.7" moovel_centroid="282.276921206,1910.12209657" moovel_centroidlatlon="13.308657785056484,52.513278166811396"></polygon></g><g transform="translate(-119.19675969999997 -536.8260300999999) rotate(0)"><polygon id="317716316" class="tile" points="319.973930223,1373.81753842 327.653244798,1373.51432514 325.303255011,1201.0 320.255420539,1201.07018739 319.973930223,1373.81753842 " moovel_rot="14.8" moovel_centroid="323.331637153,1293.3015288896813" moovel_centroidlatlon="13.299481669036867,52.5056643176416"></polygon></g><g transform="translate(-177.7678601 -2113.4568882) rotate(0)"><polygon id="126441245" class="tile" points="431.459540751,2466.25133114 440.14316812,2466.27764773 440.347294648,2413.07027046 435.860772325,2413.06226069 435.86523599,2411.07517785 440.647787802,2411.08884079 440.664757982,2405.79845999 436.384513983,2405.78993678 436.390944827,2403.18947634 440.419069764,2403.19862676 440.595043735,2357.85972531 427.606252075,2357.83131552 427.430414975,2403.43538236 432.179561455,2403.4459366 432.169620695,2406.24766886 427.751850007,2406.23948559 427.703591995,2418.30899155 432.142349264,2418.32351105 432.124568791,2425.05787568 427.63997317,2425.04347067 427.556893465,2448.26558197 431.526749745,2448.27807089 431.459540751,2466.25133114 " moovel_rot="-73.2" moovel_centroid="434.3038783,2409.00088112" moovel_centroidlatlon="13.570210273249733,52.57274690326378"></polygon></g><g transform="translate(-197.1064455 -984.5025546999999) rotate(0)"><polygon id="263828307" class="tile" points="199.637329404,1270.95629016 199.606441051,1201.0 219.689895775,1201.20188356 219.473981345,1271.91419433 199.637329404,1270.95629016 " moovel_rot="-88.7" moovel_centroid="209.620054864,1236.1964384488704" moovel_centroidlatlon="13.435565878650522,52.45205762395654"></polygon></g><g transform="translate(-245.08895700000002 -2154.8654797) rotate(0)"><polygon id="24736835" class="tile" points="340.219872478,2429.50001481 359.388999231,2431.62751122 359.483793558,2361.4006928 331.287512845,2357.83131552 330.160784888,2371.16089546 331.381011457,2371.30068609 345.251470657,2372.77023096 343.523427484,2386.51130349 345.291272516,2388.91998037 340.219872478,2429.50001481 " moovel_rot="49.3" moovel_centroid="349.442572973,2392.64535084" moovel_centroidlatlon="13.246208616038196,52.613433542138964"></polygon></g><g transform="translate(-259.8652776 -988.5213089999999) rotate(0)"><polygon id="284806014" class="tile" points="419.885724002,1210.02505516 419.293050099,1212.63765949 411.411660034,1247.22219669 379.194319423,1243.81345076 379.421273001,1239.09451722 379.16286632,1205.54184905 380.699583932,1201.0 395.070322884,1205.47526057 393.172929736,1213.67790705 392.993895909,1217.19902193 400.385378621,1217.72234821 411.569885561,1208.06216734 419.885724002,1210.02505516 " moovel_rot="88.1" moovel_centroid="396.9734588,1226.2440283029484" moovel_centroidlatlon="13.233723022098548,52.52662398073525"></polygon></g><g transform="translate(2.3659184999999994 -2066.9825530999997) rotate(0)"><polygon id="255562778" class="tile" points="35.199669265,2352.2244888 35.1206066532,2256.25746511 47.5872636288,2256.21179342 47.6746246964,2352.18578034 35.199669265,2352.2244888 " moovel_rot="-50" moovel_centroid="41.3956213782,2304.22519958" moovel_centroidlatlon="13.351076139100428,52.54552349287871"></polygon></g><g transform="translate(88.29138849999998 -2151.3932069) rotate(0)"><polygon id="210594758" class="tile" points="120.038245587,2357.83131552 153.812595249,2360.06073051 154.559572126,2366.56577875 152.185826032,2374.96080401 144.967360253,2395.68360234 134.328705603,2406.28856702 120.111857985,2409.63562158 120.038245587,2357.83131552 " moovel_rot="58.8" moovel_centroid="134.416251777,2380.51987986" moovel_centroidlatlon="13.497639873880592,52.415665690155954"></polygon></g><g transform="translate(129.8278803 -1874.2878103) rotate(0)"><polygon id="147713180" class="tile" points="45.552483,2063.87681024 70.1979005192,2058.23359826 73.2842224149,2070.90223236 73.5404724522,2101.03143592 73.5425324474,2109.40468624 43.8888873156,2108.20996348 44.3178600805,2095.99386003 44.6622268433,2083.31382011 44.9961477624,2076.73011385 45.552483,2063.87681024 " moovel_rot="-7.9" moovel_centroid="59.2171105929,2085.36203359" moovel_centroidlatlon="13.206375131563892,52.54847142452625"></polygon></g><g transform="translate(-385.5861122 -2083.2164488999997) rotate(0)"><polygon id="151820399" class="tile" points="521.470794275,2259.78134866 520.084153583,2294.756997 554.984621634,2298.92648492 554.941767161,2256.21179342 538.664442239,2256.43870673 539.073747872,2259.45920755 521.470794275,2259.78134866 " moovel_rot="25.5" moovel_centroid="538.540658048,2277.57155466" moovel_centroidlatlon="13.27517544059106,52.4998978299156"></polygon></g><g transform="translate(-225.33493089999996 -1025.6056829999998) rotate(0)"><polygon id="101181274" class="tile" points="280.318990128,1248.76453804 280.311786691,1201.0 293.97743471,1202.3625181 295.297691943,1208.76194477 316.21429676,1208.17035302 318.973930223,1223.73941092 302.63797051,1223.39873406 305.08541329,1250.28341832 280.318990128,1248.76453804 " moovel_rot="-81.1" moovel_centroid="294.850925464,1225.199949170209" moovel_centroidlatlon="13.434808219820034,52.42547416323044"></polygon></g><g transform="translate(-188.6927046 -770.1620115999999) rotate(0)"><polygon id="186002318" class="tile" points="447.033997814,1201.01589547 446.997851912,1246.77905061 440.142637488,1246.78713218 440.121030735,1276.61758483 448.420411107,1276.61176203 448.425970705,1270.46832539 462.435543914,1270.45285863 462.279144337,1239.23064699 455.574456079,1239.31633549 455.394254944,1224.55617661 462.105066709,1224.4678209 461.947192863,1201.0 447.033997814,1201.01589547 " moovel_rot="-23.6" moovel_centroid="452.268128172,1241.0827860886295" moovel_centroidlatlon="13.316807349508762,52.515559004146695"></polygon></g><g transform="translate(-206.60021920000003 -2114.7058014000004) rotate(0)"><polygon id="47437314" class="tile" points="267.566404592,2283.68244332 267.560691961,2256.21179342 227.181123757,2269.51032773 231.959348884,2327.6319689 238.668724922,2325.74110124 236.123313122,2317.72421339 235.937140414,2317.72811316 234.07906372,2298.06584282 234.021044158,2289.54256838 236.914895299,2289.08779339 236.899747627,2288.88769165 255.484606293,2285.90630813 255.521516623,2286.09927337 263.896529843,2284.74805016 264.357322444,2284.77848174 267.566404592,2283.68244332 " moovel_rot="-91.2" moovel_centroid="246.167237703,2280.22987158" moovel_centroidlatlon="13.272718790194935,52.53718135700988"></polygon></g><g transform="translate(-93.40590410000001 -1254.0619182) rotate(0)"><polygon id="319929404" class="tile" points="344.315576635,1373.81753842 344.498623045,1438.00776909 344.283457174,1457.35321964 330.792975666,1457.41347652 330.830544745,1388.61280068 337.559856454,1388.89889644 337.61917322,1374.09673239 344.315576635,1373.81753842 " moovel_rot="78.9" moovel_centroid="337.937426985,1419.05966147" moovel_centroidlatlon="13.340659905713803,52.450851173934936"></polygon></g><g transform="translate(75.79440869999999 -712.1673496) rotate(0)"><polygon id="389181894" class="tile" points="1.06902186256,1530.75509521 5.4426680929,1537.22902183 0.0,1543.30169003 3.81147734011,1550.78138706 6.87274898048,1549.20890005 9.84602553472,1555.04669354 8.33828603458,1555.80627597 6.76770218275,1556.6039183 12.4763035602,1567.83502636 21.3530867815,1574.56284911 38.8974969735,1565.78001228 37.415345069,1564.05472332 32.1057427872,1557.86622334 27.9654595854,1561.53798715 19.9580865467,1552.31322068 14.4039405565,1545.94012015 10.4453792168,1541.46671483 32.5519896096,1522.32081951 32.8036293637,1522.09165227 36.6653769105,1526.53413379 38.8668533826,1524.63790178 38.4522880699,1524.15966872 38.0862983644,1524.48367825 34.1564736642,1519.94168146 34.5224633133,1519.61767184 34.3010943864,1519.32950916 28.4290055785,1512.56035742 1.06902186256,1530.75509521 " moovel_rot="-31.2" moovel_centroid="18.029326272738494,1544.69118081" moovel_centroidlatlon="13.306308214602025,52.49914260038088"></polygon></g><g transform="translate(-325.6940007 -1935.6435580999998) rotate(0)"><polygon id="186237447" class="tile" points="426.78527601,2083.57157715 426.784195786,2107.47900175 426.783124486,2115.62301539 420.759992578,2115.73970516 420.400814659,2115.55286254 419.924847082,2115.44829994 419.69041621,2092.71484551 412.667722825,2092.95756496 412.627185279,2092.38041694 403.744633987,2092.4798619 391.657989535,2094.82224801 391.900444562,2073.18574009 409.130209804,2072.00804585 416.624069238,2058.23359826 417.917439635,2059.0168792 425.538175981,2063.62711579 426.663111722,2064.31443578 426.78527601,2083.57157715 " moovel_rot="60.2" moovel_centroid="412.870397165,2083.53159606" moovel_centroidlatlon="13.356659244766037,52.487740121493985"></polygon></g><g transform="translate(-24.338247699999997 -1405.6616273) rotate(0)"><polygon id="42215179" class="tile" points="79.3716731733,2357.83131552 79.4094612638,2413.56419817 98.8537115952,2412.95492683 99.5068307493,2358.71552883 79.3716731733,2357.83131552 " moovel_rot="-56.4" moovel_centroid="89.2416782517,2385.60427847" moovel_centroidlatlon="13.596855435229951,52.53012140219762"></polygon></g><g transform="translate(-152.5069328 -1916.2913913) rotate(0)"><polygon id="162847807" class="tile" points="281.826799121,2058.23359826 278.527979083,2059.59327376 260.056610983,2066.47697111 258.408796891,2071.44014271 259.03536462,2082.61068402 264.989787242,2096.39660531 267.835599365,2104.59352337 261.683198212,2115.37225131 272.225543595,2119.69613316 276.531197,2121.46858707 281.838153898,2101.34335682 281.826799121,2058.23359826 " moovel_rot="67.6" moovel_centroid="271.857671508,2087.76945597" moovel_centroidlatlon="13.34648956496729,52.50189305230066"></polygon></g><g transform="translate(96.57747930000001 -1251.1912022) rotate(0)"><polygon id="383578922" class="tile" points="95.2344252446,1373.90827878 89.2727501194,1373.87583868 89.2932763671,1376.31614883 83.678004286,1376.14511317 83.6772370043,1373.83871838 77.8340591633,1373.81753842 77.8173635901,1391.72912098 77.7879598374,1430.51669312 77.78658361,1432.56436266 80.9992177547,1432.73096099 90.1614348401,1433.14419041 89.9785334903,1422.16714887 98.2419008221,1422.60782852 98.126721084,1418.43093833 96.3037221129,1391.80279689 95.2344252446,1373.90827878 " moovel_rot="72.3" moovel_centroid="86.9053426254,1402.69494268" moovel_centroidlatlon="13.490361175743422,52.50292664061552"></polygon></g><g transform="translate(50.9977763 -2436.0437819) rotate(0)"><polygon id="173092017" class="tile" points="157.114271104,2632.64080072 157.095793654,2564.15084737 165.107312623,2564.1345026 165.104252987,2569.01288044 172.139992091,2568.99763571 172.143578194,2604.38219798 172.158861412,2632.61533494 157.114271104,2632.64080072 " moovel_rot="-67.1" moovel_centroid="164.487653688,2599.47779829" moovel_centroidlatlon="13.583045737781998,52.548196886546435"></polygon></g><g transform="translate(-48.13974590000001 -1758.9205366) rotate(0)"><polygon id="72123312" class="tile" points="182.463430656,1926.88673708 182.456793608,1881.41591678 205.786266038,1881.60872559 205.781978847,1927.07937428 182.463430656,1926.88673708 " moovel_rot="-89.1" moovel_centroid="194.122113764,1904.24591365" moovel_centroidlatlon="13.131256976559364,52.41065432528739"></polygon></g><g transform="translate(-286.14788830000003 -1283.4280012000002) rotate(0)"><polygon id="318686298" class="tile" points="288.664183431,1433.38477165 288.652745198,1403.48688174 288.647890138,1373.81753842 296.456096208,1373.84095569 305.599417996,1373.85814183 305.615656664,1433.42545574 296.592660716,1433.39733799 288.664183431,1433.38477165 " moovel_rot="34.1" moovel_centroid="297.130992365,1403.62101847" moovel_centroidlatlon="13.556230636512698,52.41320199931803"></polygon></g><g transform="translate(-49.850192299999996 -2470.2914195) rotate(0)"><polygon id="95785963" class="tile" points="74.360328036,2610.54722837 97.7489894886,2610.93959895 97.7351682438,2610.20434484 97.2729336401,2582.85073809 97.1834340781,2577.34460656 96.9721513571,2572.50222426 99.0262959637,2567.27400979 94.1663790537,2565.26958432 91.8156415187,2570.89694286 87.2047674559,2569.24691646 86.9704557337,2564.20541472 80.6005504321,2564.1345026 80.6551324239,2566.990013 74.3034004351,2566.84462526 74.360328036,2610.54722837 " moovel_rot="-59.7" moovel_centroid="85.8561670755,2588.70533637" moovel_centroidlatlon="13.37404717988001,52.48136080345778"></polygon></g><g transform="translate(-106.9216513 -897.1059305999997) rotate(0)"><polygon id="242097304" class="tile" points="191.585986665,2060.36213998 219.699205097,2058.23359826 221.646815525,2093.60111757 191.537798046,2094.61038837 191.585986665,2060.36213998 " moovel_rot="-15.3" moovel_centroid="206.208164511,2076.89274242" moovel_centroidlatlon="13.364544555743754,52.43066117053429"></polygon></g><g transform="translate(92.97046850000001 -1612.5270047) rotate(0)"><polygon id="213962432" class="tile" points="143.087293077,2256.21179342 162.276117113,2256.21779445 162.257689763,2306.84572047 143.06962862,2306.82880954 143.087293077,2256.21179342 " moovel_rot="4.0" moovel_centroid="152.673026833,2281.52586281" moovel_centroidlatlon="13.421613704967683,52.412438626740034"></polygon></g><g transform="translate(-144.7286461 -1797.753394) rotate(0)"><polygon id="268627754" class="tile" points="250.722421237,1936.96746249 267.37752753,1936.93920248 267.380398587,1920.94189025 267.36048808,1881.41591678 250.706887312,1881.43766936 250.722421237,1936.96746249 " moovel_rot="-76.6" moovel_centroid="259.043614036,1909.19139455" moovel_centroidlatlon="13.36277571162252,52.433943031285175"></polygon></g><g transform="translate(-439.9338011 -2162.9398098) rotate(0)"><polygon id="86500931" class="tile" points="494.090569783,2294.73792849 519.04349561,2294.59329002 519.084153583,2256.21179342 512.211314553,2256.26589343 496.181495914,2257.11479861 494.063530085,2257.37906343 494.311433107,2271.67490986 494.219469478,2289.00658724 494.090569783,2294.73792849 " moovel_rot="57.7" moovel_centroid="506.695262474,2275.62568352" moovel_centroidlatlon="13.488502072031658,52.618403246867416"></polygon></g><g transform="translate(-150.77774150000002 -1316.0798256) rotate(0)"><polygon id="282496053" class="tile" points="347.959606005,1440.68644291 369.345405323,1437.69862284 365.381963568,1419.71049443 364.867768618,1415.20092029 369.263900417,1374.69977088 366.50594302,1373.81753842 345.498623045,1425.90694962 347.959606005,1440.68644291 " moovel_rot="-67.1" moovel_centroid="358.834579683,1415.45480712" moovel_centroidlatlon="13.43626854929109,52.417455572374976"></polygon></g><g transform="translate(-312.1444249 -819.9618008) rotate(0)"><polygon id="281028620" class="tile" points="359.863754141,1881.41591678 379.441266117,1883.34917193 387.572841438,1883.74059768 388.694422236,1883.79609598 387.987290844,1898.38019679 387.303861456,1912.6144818 387.280847129,1912.89863168 388.140809252,1913.06077106 388.013439348,1916.93152669 388.674411797,1916.96032483 388.564945167,1919.75933161 387.083582274,1920.89231809 384.279859341,1920.73169939 372.012351004,1919.826625 368.488233604,1919.57095728 368.70028752,1916.54332471 368.825359466,1914.80547599 367.725418568,1914.5970711 369.043463368,1896.53015023 358.804707754,1895.79945186 359.863754141,1881.41591678 " moovel_rot="0.6" moovel_centroid="376.051192359,1899.73921049" moovel_centroidlatlon="13.313766116620448,52.47255643233261"></polygon></g><g transform="translate(42.2537543 -254.1946926999999) rotate(0)"><polygon id="303111461" class="tile" points="129.76832486,1326.41706654 129.697082673,1201.0 134.050836135,1201.00049518 134.12191786,1326.41088448 129.76832486,1326.41706654 " moovel_rot="-91.4" moovel_centroid="131.909520852,1263.7067354629708" moovel_centroidlatlon="13.293918230734105,52.575505600092846"></polygon></g><g transform="translate(43.94719140000001 -1808.4601165000001) rotate(0)"><polygon id="104786372" class="tile" points="110.154107044,1885.99658442 110.398206517,1906.83657213 100.193071832,1906.98796723 99.998197606,1909.60553736 94.6453124832,1909.39983431 94.707580417,1925.99120965 83.6949892335,1925.83254252 83.7298498655,1881.41591678 90.6853373112,1882.6224163 107.577189986,1885.55344059 110.154107044,1885.99658442 " moovel_rot="-89.8" moovel_centroid="94.7412539799,1900.76293031" moovel_centroidlatlon="13.473356615355126,52.42492449765699"></polygon></g><g transform="translate(-251.44555390000002 -1439.0481872999999) rotate(0)"><polygon id="206198255" class="tile" points="429.678277035,1512.6021714 429.694756858,1556.68302579 410.797997397,1556.64115812 410.781451756,1512.56035742 429.678277035,1512.6021714 " moovel_rot="50.8" moovel_centroid="420.23812268,1534.62166539" moovel_centroidlatlon="13.299750949999998,52.42188525"></polygon></g><g transform="translate(-277.9638221 -1131.4769018999998) rotate(0)"><polygon id="281982099" class="tile" points="362.088527964,1249.07388569 372.206592603,1249.07635951 372.211774798,1244.09463271 378.12349184,1244.09418514 378.16286632,1201.00173264 358.335816407,1201.0 358.324848272,1207.00842702 362.132898127,1207.00982177 362.088527964,1249.07388569 " moovel_rot="-81.1" moovel_centroid="369.636993072,1223.5795870264178" moovel_centroidlatlon="13.124322687443845,52.4713096770943"></polygon></g><g transform="translate(-522.8500979 -1192.3685185999998) rotate(0)"><polygon id="107851332" class="tile" points="539.975997084,2058.23359826 525.350111007,2068.83983177 525.369313322,2119.59347164 541.753503312,2103.42582202 539.975997084,2058.23359826 " moovel_rot="38.9" moovel_centroid="533.013912169,2088.08827362" moovel_centroidlatlon="13.248121667540302,52.620375154995926"></polygon></g><g transform="translate(-233.0439303 -2188.260996) rotate(0)"><polygon id="27811410" class="tile" points="455.569726462,2304.87719413 472.698986684,2305.64647801 473.233027519,2267.3522028 455.531727173,2256.21179342 455.569726462,2304.87719413 " moovel_rot="-86.0" moovel_centroid="463.920136274,2283.27494141" moovel_centroidlatlon="13.357921260418056,52.58953858369576"></polygon></g><g transform="translate(-75.2654764 -1315.2932511) rotate(0)"><polygon id="230101617" class="tile" points="99.2419008221,1404.1289403 99.2621561364,1373.81753842 125.056675648,1373.83957174 125.025528014,1404.15774809 99.2419008221,1404.1289403 " moovel_rot="-90.5" moovel_centroid="112.147047079,1388.98488369" moovel_centroidlatlon="13.53734234089799,52.532695470515115"></polygon></g><g transform="translate(24.7202298 -1857.0313778999998) rotate(0)"><polygon id="310895901" class="tile" points="222.690603526,2066.42343377 222.646815525,2068.5898377 229.956530997,2068.60557716 229.446083782,2094.38820253 251.168311327,2094.52900151 251.188937754,2058.23359826 242.189857835,2060.85316681 222.690603526,2066.42343377 " moovel_rot="-10.4" moovel_centroid="240.348538416,2077.55728589" moovel_centroidlatlon="13.390318938296286,52.49358979590353"></polygon></g><g transform="translate(50.12824499999999 -1183.4007602000001) rotate(0)"><polygon id="213271107" class="tile" points="134.589520719,2256.21179342 134.632121303,2336.50694881 142.06962862,2336.51996225 142.014918185,2256.22893691 134.589520719,2256.21179342 " moovel_rot="39.7" moovel_centroid="138.326521771,2296.37781595" moovel_centroidlatlon="13.249209979336358,52.61873324814419"></polygon></g><g transform="translate(-273.45208720000005 -1414.2224071) rotate(0)"><polygon id="48797682" class="tile" points="474.233027519,2295.37484706 474.241621758,2256.21179342 493.063530085,2256.21659216 493.047164066,2295.36941703 474.233027519,2295.37484706 " moovel_rot="-5.9" moovel_centroid="483.645926647,2275.79181418" moovel_centroidlatlon="13.543771320989636,52.55317093761951"></polygon></g><g transform="translate(-276.3856696 -999.4392444) rotate(0)"><polygon id="142701771" class="tile" points="555.949759349,1373.81753842 555.908624025,1415.66674999 549.72819171,1415.43684396 544.168406469,1413.63849415 539.835356312,1410.1160955 536.370387906,1406.59980875 534.767438521,1401.41269316 534.211011728,1389.45787025 536.517535098,1383.39678765 540.067205957,1379.72404597 543.30169246,1376.80071947 549.645845049,1374.9273927 555.949759349,1373.81753842 " moovel_rot="63.9" moovel_centroid="546.434016316,1395.00210493" moovel_centroidlatlon="13.468378653103384,52.48993242549701"></polygon></g><g transform="translate(-267.23170930000003 -1463.4164658) rotate(0)"><polygon id="126929792" class="tile" points="436.696457465,1531.74514871 436.927266766,1512.56035742 440.17527525,1512.63570033 465.400239353,1516.14819077 465.383539685,1551.85208629 457.169811585,1552.0350023 457.298400092,1532.27230644 436.696457465,1531.74514871 " moovel_rot="-88.2" moovel_centroid="453.207445336,1527.65063824" moovel_centroidlatlon="13.38816993709743,52.47676860776024"></polygon></g><g transform="translate(188.302061 -211.02353940000012) rotate(0)"><polygon id="163633831" class="tile" points="35.5525200552,1373.81753842 35.5638103223,1408.31099317 56.2889402951,1408.32727318 56.2671985575,1373.83695402 35.5525200552,1373.81753842 " moovel_rot="73.3" moovel_centroid="45.9179605839,1391.07463963" moovel_centroidlatlon="13.272559570194014,52.533240769805886"></polygon></g><g transform="translate(-381.6556259 -1170.4998014) rotate(0)"><polygon id="284961799" class="tile" points="490.954246335,1201.0 504.318360861,1205.89093989 504.332456531,1243.72290748 480.654690624,1234.36184486 490.954246335,1201.0 " moovel_rot="-14.3" moovel_centroid="494.845314576,1222.9147445657284" moovel_centroidlatlon="13.197850909917118,52.538620564805804"></polygon></g><g transform="translate(-333.46368060000003 -2209.0186753) rotate(0)"><polygon id="340087900" class="tile" points="388.262223264,2297.65384751 404.794746955,2297.65284558 404.784682621,2256.21179342 388.252117295,2256.21278102 388.262223264,2297.65384751 " moovel_rot="-71.0" moovel_centroid="396.523442055,2276.93280818" moovel_centroidlatlon="13.399069599999999,52.41618114999999"></polygon></g><g transform="translate(-431.09146699999997 -2034.5244359) rotate(0)"><polygon id="28504040" class="tile" points="445.695795705,2064.1150249 446.99480011,2063.27663742 444.804719735,2059.87950266 443.652240108,2060.62039862 442.104176436,2058.23359826 433.445791707,2063.81959228 438.466138022,2071.67226238 439.058199208,2071.28530712 442.590675037,2076.64682831 441.658846183,2079.76551502 442.414499186,2079.98796678 440.124774318,2087.67617195 439.369121419,2087.45371998 436.461741687,2097.19424175 437.217394451,2097.41669398 434.926651286,2105.09210132 434.170998627,2104.86964888 433.491539116,2107.14801386 444.890300292,2110.63961933 445.600372666,2108.31546489 447.824567014,2108.94897012 450.098913903,2101.42453157 447.697930451,2100.72622538 448.388632777,2098.23302517 446.957696628,2097.7919672 448.599824983,2092.42274497 450.030761263,2092.86380269 450.789911571,2090.3684219 449.360006807,2089.94013584 451.096388636,2084.25100006 452.514825457,2084.82049847 454.873045922,2085.4849513 456.906863618,2078.45149333 456.894940155,2078.44547036 450.247420059,2068.28854274 448.937524125,2069.13367807 445.695795705,2064.1150249 " moovel_rot="26.8" moovel_centroid="444.398179262,2084.75561257" moovel_centroidlatlon="13.326171993571199,52.460713260930945"></polygon></g><g transform="translate(-390.2672916 -1502.184639) rotate(0)"><polygon id="106369568" class="tile" points="457.906863618,2097.1767782 475.006342879,2097.12875189 474.914581076,2058.23359826 457.956860145,2058.51842596 457.906863618,2097.1767782 " moovel_rot="-55.2" moovel_centroid="466.454892896,2077.79117952" moovel_centroidlatlon="13.315605370119508,52.48148416963738"></polygon></g><g transform="translate(-159.22051399999998 -1267.6014966000002) rotate(0)"><polygon id="182868087" class="tile" points="161.720496317,2091.79868047 161.869184326,2058.23359826 181.410227843,2058.42529497 181.413019798,2064.99355736 181.412898541,2079.11882542 181.417605105,2091.89450986 179.765399134,2091.8149507 161.720496317,2091.79868047 " moovel_rot="-88.4" moovel_centroid="171.596530494,2075.09194134" moovel_centroidlatlon="13.325182663038241,52.53125902062828"></polygon></g><g transform="translate(-130.47037490000002 -1855.4972539) rotate(0)"><polygon id="138265431" class="tile" points="206.786266038,1881.41591678 222.531575366,1881.43716136 222.540841363,1920.02140883 206.795550056,1920.0001222 206.786266038,1881.41591678 " moovel_rot="23.2" moovel_centroid="214.663559636,1900.71864861" moovel_centroidlatlon="13.277227850000003,52.419703500000004"></polygon></g><g transform="translate(-380.00880200000006 -1850.8230918999998) rotate(0)"><polygon id="315366969" class="tile" points="507.686454905,1881.41591678 507.68369943,1918.81559286 523.971579286,1918.81764168 523.973267674,1881.42884859 507.686454905,1881.41591678 " moovel_rot="5.6" moovel_centroid="515.828355279,1900.11970383" moovel_centroidlatlon="13.3289094444052,52.51233292279215"></polygon></g><g transform="translate(91.2165754 -1361.5918966000002) rotate(0)"><polygon id="376555231" class="tile" points="70.7680429225,1429.7064097 60.5401769859,1431.14914749 57.4623097698,1393.70558371 57.2889402951,1388.91978844 62.9940505811,1373.81753842 70.7686965003,1376.47827836 67.2994833632,1387.41069098 70.7680429225,1429.7064097 " moovel_rot="77.0" moovel_centroid="64.0118394585,1403.43942463" moovel_centroidlatlon="13.582761057768106,52.464281534168904"></polygon></g><g transform="translate(-156.51670109999998 -2236.6284351) rotate(0)"><polygon id="30725032" class="tile" points="187.243350604,2256.23546812 187.234394167,2276.64129957 187.230273193,2290.15838143 194.211939329,2290.14415696 203.247157371,2290.13467102 203.246844018,2276.18525279 207.952943336,2274.44654223 207.68238581,2265.51878758 207.611616317,2262.22630857 203.252696182,2260.10985006 203.260248778,2256.21179342 187.243350604,2256.23546812 " moovel_rot="-21.4" moovel_centroid="196.313893448,2272.67456996" moovel_centroidlatlon="13.36066683525585,52.41555078174586"></polygon></g><g transform="translate(-151.6548314 -1502.8742584000001) rotate(0)"><polygon id="232459201" class="tile" points="394.033362949,1529.7590902 387.423760119,1534.43661177 393.195200208,1544.95241382 384.145418048,1563.52239278 372.918656718,1558.14439967 383.490003251,1535.77515652 372.910243259,1518.65195336 381.658287593,1512.56035742 390.102093057,1526.5521219 391.532524811,1525.37765119 392.792269402,1527.51210173 394.033362949,1529.7590902 " moovel_rot="-86.1" moovel_centroid="383.446812754,1538.91486193" moovel_centroidlatlon="13.297653257412193,52.534989943692736"></polygon></g><g transform="translate(-113.00832430000003 -1360.7259359) rotate(0)"><polygon id="43658910" class="tile" points="306.615656664,1399.23483382 307.297277225,1381.01184928 312.193868381,1374.71929599 318.42015402,1373.81753842 324.097209837,1377.68975111 324.105623719,1417.18124688 319.334660797,1417.09337821 306.615656664,1399.23483382 " moovel_rot="-87.1" moovel_centroid="316.45863771,1393.83377128" moovel_centroidlatlon="13.314805116494275,52.57784043118999"></polygon></g><g transform="translate(172.03025200000002 -756.6555363999998) rotate(0)"><polygon id="137154250" class="tile" points="122.77448437,1242.65268737 112.561857982,1242.93290499 112.7575368,1224.35273489 106.141618193,1224.31027968 106.561024733,1201.03516722 122.790859238,1201.0 122.77448437,1242.65268737 " moovel_rot="-76.8" moovel_centroid="115.59826797,1219.5618538687625" moovel_centroidlatlon="13.298242645450452,52.5308818364435"></polygon></g><g transform="translate(-399.0958878 -667.9472639000002) rotate(0)"><polygon id="126758373" class="tile" points="401.623297093,1373.81753842 401.59589461,1398.42697038 403.549109722,1403.51210282 425.084169269,1395.83262125 425.042957638,1374.19292062 401.623297093,1373.81753842 " moovel_rot="-83.6" moovel_centroid="412.775991893,1386.99281307" moovel_centroidlatlon="13.37752978292239,52.52798308622204"></polygon></g><g transform="translate(-0.3019713000000195 -2347.8854197) rotate(0)"><polygon id="213279629" class="tile" points="167.210438229,2357.83131552 167.197427449,2392.0264999 184.233486352,2392.04636941 184.237372774,2357.86016597 167.210438229,2357.83131552 " moovel_rot="76.9" moovel_centroid="175.719307474,2374.94261322" moovel_centroidlatlon="13.347511296040375,52.51965656850642"></polygon></g><g transform="translate(-251.5977878 -764.3235315) rotate(0)"><polygon id="8084685" class="tile" points="439.121030735,1232.4476028 434.624752749,1201.0 422.257821219,1202.51412826 420.915197204,1202.67823216 420.885724002,1235.36014557 439.121030735,1232.4476028 " moovel_rot="78.5" moovel_centroid="428.915892389,1218.6388586192832" moovel_centroidlatlon="13.30839254550405,52.572227790602724"></polygon></g><g transform="translate(140.5077336 -998.8216571999999) rotate(0)"><polygon id="107330064" class="tile" points="0.0,1399.98983369 0.943499072827,1373.81753842 20.4445000743,1374.52078394 19.9759000372,1386.92633736 20.4500620164,1400.99161102 0.0,1399.98983369 " moovel_rot="-71.0" moovel_centroid="10.356213614509645,1387.4348257" moovel_centroidlatlon="13.38899231165756,52.44012600623513"></polygon></g><g transform="translate(-526.282715 -1347.5244908) rotate(0)"><polygon id="27438858" class="tile" points="538.84682944,1512.61479812 528.782726259,1512.56035742 528.802509977,1559.02762676 538.876212632,1558.44747337 538.84682944,1512.61479812 " moovel_rot="-27.4" moovel_centroid="533.81553845,1535.66666059" moovel_centroidlatlon="13.387018193461115,52.5612247901772"></polygon></g><g transform="translate(82.28725149999998 -954.8526257000001) rotate(0)"><polygon id="13556375" class="tile" points="91.6234042581,1512.56035742 111.425693374,1513.01430297 111.000096845,1538.90866854 91.6459429464,1538.34716255 91.6234042581,1512.56035742 " moovel_rot="-13.5" moovel_centroid="101.431691339,1525.6586304" moovel_centroidlatlon="13.319857711367524,52.567602117757524"></polygon></g><g transform="translate(-120.1134815 -1579.5468313000001) rotate(0)"><polygon id="163642017" class="tile" points="190.537798046,2058.25064388 190.509849346,2109.48658767 182.417605105,2109.4695365 182.445532979,2058.23359826 190.537798046,2058.25064388 " moovel_rot="75.1" moovel_centroid="186.477696449,2083.86008059" moovel_centroidlatlon="13.271681500000009,52.50825740000001"></polygon></g><g transform="translate(41.8830732 -1271.2414189) rotate(0)"><polygon id="195420404" class="tile" points="79.0390281241,1961.18738476 82.6949892335,1961.19629012 82.6625423783,1881.41591678 79.0053413165,1881.41789434 79.0390281241,1961.18738476 " moovel_rot="6.5" moovel_centroid="80.8505158991,1921.30210902" moovel_centroidlatlon="13.397062846771883,52.50852649556485"></polygon></g><g transform="translate(-65.72670809999998 -2248.5922765) rotate(0)"><polygon id="133171544" class="tile" points="168.061233533,2284.87772606 169.089946611,2274.01897588 186.147603752,2274.57390976 186.230273193,2258.60135609 163.276117113,2256.21179342 163.293596366,2284.65831967 168.061233533,2284.87772606 " moovel_rot="-40.2" moovel_centroid="173.431715106,2267.52341837" moovel_centroidlatlon="13.300131621694243,52.57212879297544"></polygon></g><g transform="translate(-179.95215009999998 -1872.0691813) rotate(0)"><polygon id="238339355" class="tile" points="236.384569949,1914.26336584 236.386567069,1906.30070557 236.396875445,1890.01929527 236.405611599,1881.43343093 249.706887312,1881.41591678 249.684191981,1914.2330743 236.384569949,1914.26336584 " moovel_rot="-38.6" moovel_centroid="243.043697925,1897.83611324" moovel_centroidlatlon="13.423980759118555,52.61429893654191"></polygon></g><g transform="translate(-437.24213940000004 -197.04041890000008) rotate(0)"><polygon id="182704716" class="tile" points="576.493668411,1396.33089633 576.87249275,1374.07964609 556.949759349,1373.81753842 556.965485688,1396.22762657 576.493668411,1396.33089633 " moovel_rot="41.5" moovel_centroid="566.809232724,1385.07648035" moovel_centroidlatlon="13.345739753824965,52.546638463702706"></polygon></g><g transform="translate(-20.517730600000007 -882.3087350999999) rotate(0)"><polygon id="119539531" class="tile" points="80.6760530919,2078.3871299 100.135828237,2078.42545417 100.131253265,2058.27942293 80.6794095708,2058.23359826 80.6760530919,2078.3871299 " moovel_rot="46.6" moovel_centroid="90.405031175,2068.33208456" moovel_centroidlatlon="13.383732801214704,52.550447066673605"></polygon></g><g transform="translate(-83.90184249999999 -1910.2218004999997) rotate(0)"><polygon id="113552644" class="tile" points="329.133158213,2358.05298003 322.4793078,2357.83131552 322.509874547,2404.6530431 329.160784888,2404.86871028 329.133158213,2358.05298003 " moovel_rot="64.1" moovel_centroid="325.820710422,2381.34978776" moovel_centroidlatlon="13.412028101488351,52.50445110624486"></polygon></g><g transform="translate(-297.73034609999996 -1147.7788657) rotate(0)"><polygon id="308265769" class="tile" points="325.105623719,1432.55928276 329.792975666,1432.81968245 329.761708574,1373.81753842 326.225210612,1373.83062938 325.105623719,1432.55928276 " moovel_rot="-24.4" moovel_centroid="327.710053747,1404.63240611" moovel_centroidlatlon="13.495464537331927,52.6312728803621"></polygon></g><g transform="translate(-299.0055709 -1692.4087028) rotate(0)"><polygon id="114207226" class="tile" points="360.490292694,2357.86136998 368.073241722,2357.84745266 374.08482171,2357.83131552 374.07377685,2381.68515214 360.483793558,2381.71031284 360.490292694,2357.86136998 " moovel_rot="-47.4" moovel_centroid="367.283387529,2369.7720845" moovel_centroidlatlon="13.530258276651573,52.4270323482251"></polygon></g><g transform="translate(-322.927179 -908.2735524999998) rotate(0)"><polygon id="335689358" class="tile" points="464.034965957,1221.71131789 479.599796476,1221.53082782 479.654690624,1201.27007849 463.435543914,1201.0 463.442338942,1212.08938763 463.460145693,1212.64580021 463.459753198,1216.33715866 464.036821806,1216.3553641 464.034965957,1221.71131789 " moovel_rot="-78.2" moovel_centroid="471.580850794,1211.2981899559854" moovel_centroidlatlon="13.434551313067793,52.460516323134215"></polygon></g><g transform="translate(-477.15310210000007 -1543.0124643) rotate(0)"><polygon id="382468607" class="tile" points="524.973267674,1881.41591678 525.019913385,1932.63909127 526.379729158,1931.67850998 529.468686282,1931.85968311 529.747501801,1881.46774152 524.973267674,1881.41591678 " moovel_rot="-32.6" moovel_centroid="527.298897782,1906.36929835" moovel_centroidlatlon="13.333964948606088,52.502583083096745"></polygon></g><g transform="translate(-26.23602790000001 -1193.3589248) rotate(0)"><polygon id="279590447" class="tile" points="151.737896886,1201.04488719 151.750607848,1218.95817932 156.638945077,1218.94689495 166.080169662,1218.9212554 169.51123614,1218.90557654 169.506321988,1201.0 151.737896886,1201.04488719 " moovel_rot="-45.3" moovel_centroid="160.626083363,1209.9781508088668" moovel_centroidlatlon="13.566266334918577,52.466126871422084"></polygon></g><g transform="translate(10.466913999999974 -723.2971379) rotate(0)"><polygon id="282584373" class="tile" points="174.305607261,1919.01887019 181.456793608,1919.01448341 181.446460284,1881.41591678 174.295273437,1881.42030355 174.305607261,1919.01887019 " moovel_rot="-89.5" moovel_centroid="177.876033647,1900.21739326" moovel_centroidlatlon="13.40275045,52.39160030000001"></polygon></g><g transform="translate(3.026139200000017 -1561.2121974) rotate(0)"><polygon id="69678197" class="tile" points="208.95531351,2289.59936294 226.181123757,2278.63394508 208.952943336,2256.21179342 208.95531351,2289.59936294 " moovel_rot="-47.7" moovel_centroid="214.696460201,2274.81503381" moovel_centroidlatlon="13.295818566666668,52.484774433333335"></polygon></g><g transform="translate(95.9470369 -1078.6411748) rotate(0)"><polygon id="380427141" class="tile" points="65.2528095083,2259.50866679 48.6746246964,2256.21179342 48.6782958671,2276.12352685 61.6427123419,2278.68877709 65.2528095083,2259.50866679 " moovel_rot="-17.3" moovel_centroid="56.09798718,2267.23437811" moovel_centroidlatlon="13.36557983847904,52.50367458135752"></polygon></g><g transform="translate(-364.73624950000004 -641.987351) rotate(0)"><polygon id="421630779" class="tile" points="563.350260395,1225.67892439 575.149811008,1225.83424487 575.144422217,1214.30038997 574.827084578,1214.27941329 574.994115146,1201.72231723 563.435688487,1201.0 563.350260395,1225.67892439 " moovel_rot="-37.1" moovel_centroid="569.18621064,1213.6257533499947" moovel_centroidlatlon="13.376271343559415,52.54366471775925"></polygon></g><g transform="translate(-186.9713273 -402.47954790000017) rotate(0)"><polygon id="381334994" class="tile" points="430.694756858,1512.56035742 430.69878183,1560.37435049 435.696457465,1555.88657181 435.558001012,1517.35569906 430.694756858,1512.56035742 " moovel_rot="72.7" moovel_centroid="433.073787787,1536.65076428" moovel_centroidlatlon="13.381145055035205,52.49405099086954"></polygon></g><g transform="translate(38.8554226 -1077.0463306000001) rotate(0)"><polygon id="282044672" class="tile" points="128.697082673,1201.0 128.671528577,1245.06699568 124.172679473,1245.06933944 123.790859238,1201.23748988 128.697082673,1201.0 " moovel_rot="-72.4" moovel_centroid="126.333752524,1222.7754224991666" moovel_centroidlatlon="13.138274941795473,52.47298989794263"></polygon></g><g transform="translate(-151.2362058 -1411.025161) rotate(0)"><polygon id="51799162" class="tile" points="310.708907217,2357.86049487 310.698758349,2378.1749656 296.997552462,2378.14971961 297.01789483,2357.83131552 304.942337026,2357.84481008 310.708907217,2357.86049487 " moovel_rot="68.9" moovel_centroid="303.855585851,2368.00453475" moovel_centroidlatlon="13.40780175472616,52.50477352199965"></polygon></g><g transform="translate(170.6350736 -2001.1555521) rotate(0)"><polygon id="391126585" class="tile" points="79.6595864955,2058.23738269 79.6760530919,2099.86841478 74.5637741731,2099.85475252 74.5425324474,2058.23359826 79.6595864955,2058.23738269 " moovel_rot="25.8" moovel_centroid="77.1105863093,2079.04529564" moovel_centroidlatlon="13.389264330254052,52.53878075199484"></polygon></g><g transform="translate(-231.2586364 -487.66516879999995) rotate(0)"><polygon id="380630665" class="tile" points="437.189540912,1373.82204841 437.161146218,1414.67012084 432.043486325,1414.66576341 432.078558446,1373.81753842 437.189540912,1373.82204841 " moovel_rot="-1.3" moovel_centroid="434.61817787,1394.24831208" moovel_centroidlatlon="13.342439473414132,52.5270375594284"></polygon></g><g transform="translate(103.25397230000002 -133.6551105000001) rotate(0)"><polygon id="380630667" class="tile" points="150.737896886,1201.0 150.702824678,1241.84822116 145.591842235,1241.84371221 145.627162874,1201.00643842 150.737896886,1201.0 " moovel_rot="-1.3" moovel_centroid="148.165045679,1221.4247646516176" moovel_centroidlatlon="13.342630151648347,52.527034573408756"></polygon></g><g transform="translate(-110.7511566 -1291.6609478999999) rotate(0)"><polygon id="202708666" class="tile" points="332.081473932,2079.46664801 323.54175084,2079.4447938 323.515708658,2058.23359826 339.162619288,2058.51972106 338.983398641,2067.38763628 332.179639283,2067.23039784 332.081473932,2079.46664801 " moovel_rot="86.2" moovel_centroid="329.790252858,2067.35396498" moovel_centroidlatlon="13.335853975141916,52.524442653296006"></polygon></g><g transform="translate(130.6791134 -2239.6770656) rotate(0)"><polygon id="132218691" class="tile" points="103.68239221,2594.42660515 104.433027814,2564.19594216 111.132975931,2564.1345026 111.184978194,2594.71546562 103.68239221,2594.42660515 " moovel_rot="-79.2" moovel_centroid="107.611603809,2579.65600793" moovel_centroidlatlon="13.23570825034767,52.52075042809774"></polygon></g><g transform="translate(-15.108590400000026 -1803.3735903) rotate(0)"><polygon id="358710207" class="tile" points="282.838153898,2095.16194841 288.030336615,2095.03292153 287.776101377,2058.23359826 282.894451744,2058.43139768 282.838153898,2095.16194841 " moovel_rot="-28.4" moovel_centroid="285.386169139,2076.90369242" moovel_centroidlatlon="13.564391474598432,52.55551960390622"></polygon></g><g transform="translate(100.6354699 -1109.9049912) rotate(0)"><polygon id="385328461" class="tile" points="188.911993809,1512.56698944 188.924008695,1549.26089706 183.907779411,1549.24992172 183.900838699,1512.56035742 188.911993809,1512.56698944 " moovel_rot="40.4" moovel_centroid="186.411205309,1530.91263534" moovel_centroidlatlon="13.352028105664923,52.5435170787368"></polygon></g><g transform="translate(-389.83481119999993 -1079.3361905) rotate(0)"><polygon id="164752264" class="tile" points="566.264804041,2277.09079639 556.017925449,2277.72696859 555.984621634,2256.21179342 566.55909245,2256.52998105 566.264804041,2277.09079639 " moovel_rot="-58.4" moovel_centroid="561.167393733,2266.83432012" moovel_centroidlatlon="13.334363400866048,52.61321594473126"></polygon></g><g transform="translate(-141.49583619999999 -1157.7894804000002) rotate(0)"><polygon id="261905321" class="tile" points="252.188937754,2061.00834833 253.386173905,2059.14395148 254.902250275,2058.62705485 257.408796891,2058.23359826 257.401763589,2091.93740033 253.264035504,2094.95459248 252.188937754,2061.00834833 " moovel_rot="11.5" moovel_centroid="255.031639842,2075.53730024" moovel_centroidlatlon="13.379185874078944,52.439849719255236"></polygon></g><g transform="translate(-106.15441380000001 -1815.2748087) rotate(0)"><polygon id="378270187" class="tile" points="155.559572126,2358.62963683 155.615726535,2374.76859328 155.64015279,2377.84754775 166.191643993,2377.9091022 166.197427449,2357.83457891 163.242708322,2357.83131552 163.168330746,2358.55730815 155.559572126,2358.62963683 " moovel_rot="65.2" moovel_centroid="160.9406137,2368.11373069" moovel_centroidlatlon="13.417113392948977,52.49145008585773"></polygon></g><g transform="translate(169.8943044 -1674.0808518000003) rotate(0)"><polygon id="286813454" class="tile" points="112.190536524,2589.7697555 119.168253161,2589.74991667 119.159061598,2564.1345026 112.184978194,2564.14873686 112.190536524,2589.7697555 " moovel_rot="-56.9" moovel_centroid="115.675580713,2576.9518406" moovel_centroidlatlon="13.57293725995576,52.42669734538625"></polygon></g><g transform="translate(-174.99654660000004 -550.6143711) rotate(0)"><polygon id="215650114" class="tile" points="287.647890138,1374.06526345 287.640159747,1389.36332712 275.864326617,1389.11561366 275.87205305,1373.81753842 287.647890138,1374.06526345 " moovel_rot="-18.9" moovel_centroid="281.756106652,1381.59043522" moovel_centroidlatlon="13.65475155,52.37443985000001"></polygon></g><g transform="translate(-313.12862459999997 -756.6548480000001) rotate(0)"><polygon id="389628375" class="tile" points="513.051851018,1205.7920361 513.056243473,1201.01000138 511.299574147,1201.00873035 505.332456531,1201.0 505.340303193,1204.69287053 505.333930934,1222.37724693 509.579642576,1222.38831228 511.177975676,1222.39413079 513.047202822,1222.39032312 513.052605711,1214.60871584 513.051851018,1205.7920361 " moovel_rot="73.7" moovel_centroid="509.194583914,1211.695601419287" moovel_centroidlatlon="13.46005702632798,52.506850140536066"></polygon></g><g transform="translate(-426.2598853 -326.2847889000002) rotate(0)"><polygon id="387212530" class="tile" points="466.403067465,1512.56035742 477.155384882,1512.57056724 477.152555368,1526.28484821 466.400239353,1526.27463206 466.403067465,1512.56035742 " moovel_rot="12.5" moovel_centroid="471.77781218,1519.42260108" moovel_centroidlatlon="13.4230093,52.444162750000004"></polygon></g><g transform="translate(-69.26869959999999 -696.1238259) rotate(0)"><polygon id="308265770" class="tile" points="76.7680582215,1373.81753842 76.78658361,1396.97531646 71.7686965003,1396.99468252 71.7699270279,1374.0051883 76.7680582215,1373.81753842 " moovel_rot="64.4" moovel_centroid="74.2763702937,1385.45567929" moovel_centroidlatlon="13.493178521037892,52.631395020563154"></polygon></g><g transform="translate(-220.94540600000005 -952.417453) rotate(0)"><polygon id="203209209" class="tile" points="289.04464244,2058.87247813 289.030336615,2074.54726793 298.93450747,2071.63523187 297.181493826,2058.23359826 289.04464244,2058.87247813 " moovel_rot="-8.5" moovel_centroid="293.464461498,2066.09415598" moovel_centroidlatlon="13.286756164820252,52.63255178649376"></polygon></g><g transform="translate(-269.7130263 -1900.4357847) rotate(0)"><polygon id="329711348" class="tile" points="311.708907217,2361.71915799 314.455355855,2375.41259712 321.4793078,2372.96316307 321.47287994,2357.83131552 318.135967907,2359.15841816 311.708907217,2361.71915799 " moovel_rot="64.9" moovel_centroid="317.260080756,2366.57659047" moovel_centroidlatlon="13.316941513544203,52.57240815981733"></polygon></g><g transform="translate(-539.0537351 -1872.9762544) rotate(0)"><polygon id="215353486" class="tile" points="564.647472465,1881.539655 562.381149287,1881.52954712 559.547698762,1881.41591678 559.558258942,1900.37246681 564.067782298,1905.1292458 564.647472465,1881.539655 " moovel_rot="45.0" moovel_centroid="562.049950586,1891.97921602" moovel_centroidlatlon="13.522872121696349,52.43141173672589"></polygon></g><g transform="translate(59.7922808 -659.1570432) rotate(0)"><polygon id="243582800" class="tile" points="22.4500620164,1390.04931866 34.5525200552,1385.8079737 32.7565298353,1381.88960492 24.5930497333,1373.81753842 22.4545949575,1374.61131116 23.5016257842,1378.19412248 22.4500620164,1390.04931866 " moovel_rot="-37.7" moovel_centroid="27.1900007682,1382.62050876" moovel_centroidlatlon="13.305112666171409,52.571869376892145"></polygon></g><g transform="translate(42.16101910000002 -433.8425016) rotate(0)"><polygon id="237803811" class="tile" points="80.9580011841,1202.90636672 82.9179723295,1208.37788783 80.9746637098,1219.2308356 86.5536495922,1219.95308039 89.0313462566,1205.99114859 86.3371184978,1201.0 80.9580011841,1202.90636672 " moovel_rot="-28.9" moovel_centroid="84.9350757895,1210.4778854124747" moovel_centroidlatlon="13.278535844047779,52.51882560559096"></polygon></g><g transform="translate(-404.4262554 -1349.8531633) rotate(0)"><polygon id="30952222" class="tile" points="485.072212155,1527.0804563 478.179078424,1526.88534881 478.155384882,1512.56035742 485.100498197,1512.73867596 485.072212155,1527.0804563 " moovel_rot="72.1" moovel_centroid="481.627526649,1519.80725663" moovel_centroidlatlon="13.360751125832797,52.416387456575144"></polygon></g><g transform="translate(-132.6219177 -1192.6322394000001) rotate(0)"><polygon id="162789812" class="tile" points="135.123286257,1211.58150735 135.12191786,1201.02208213 144.590479737,1201.0 144.591842235,1211.55941722 135.123286257,1211.58150735 " moovel_rot="-36.4" moovel_centroid="139.856880923,1206.2907511277708" moovel_centroidlatlon="13.354970750000001,52.48056065"></polygon></g><g transform="translate(-3.650973300000004 -1431.9735532) rotate(0)"><polygon id="277615334" class="tile" points="66.2528095083,2272.73689265 66.4317126853,2257.64901609 71.4318064893,2256.21179342 71.1700408742,2265.49674665 71.4514346937,2272.93280121 66.2528095083,2272.73689265 " moovel_rot="-79.5" moovel_centroid="68.8660887506,2264.932454" moovel_centroidlatlon="13.315247520922407,52.52896172418912"></polygon></g><g transform="translate(-417.2915971 -1131.9215386) rotate(0)"><polygon id="376678314" class="tile" points="427.78527601,2058.23359826 427.789585563,2072.27386377 432.445791707,2072.27558498 432.441482159,2058.23531921 427.78527601,2058.23359826 " moovel_rot="1.1" moovel_centroid="430.115533867,2065.25459155" moovel_centroidlatlon="13.200008699999998,52.55550724999999"></polygon></g><g transform="translate(-358.9253697 -1370.2929425) rotate(0)"><polygon id="374917636" class="tile" points="387.252117295,2256.21643819 387.250097912,2268.19925123 382.319596985,2268.35864972 382.331565738,2256.21179342 387.252117295,2256.21643819 " moovel_rot="5.8" moovel_centroid="384.782767629,2262.24863221" moovel_centroidlatlon="13.318932645106464,52.511815800775544"></polygon></g><g transform="translate(-423.5841707 -596.1784158) rotate(0)"><polygon id="331734982" class="tile" points="431.043486325,1374.00634567 426.084169269,1373.81753842 426.095814204,1381.05442885 430.671794706,1381.89027887 431.043486325,1374.00634567 " moovel_rot="75.2" moovel_centroid="428.511045795,1377.64752754" moovel_centroidlatlon="13.29982082149917,52.46942000833233"></polygon></g><g transform="translate(-288.2392582 -1950.9969929) rotate(0)"><polygon id="275430271" class="tile" points="295.99396615,2364.21410247 290.739268111,2364.22272692 290.742851977,2357.83993748 295.997552462,2357.83131552 295.99396615,2364.21410247 " moovel_rot="-44.4" moovel_centroid="293.368409503,2361.02702035" moovel_centroidlatlon="13.3644384,52.54748304999998"></polygon></g><g transform="translate(-573.6498418 -859.4991706999999) rotate(0)"><polygon id="99257560" class="tile" points="576.156751979,1212.44744404 576.149811008,1201.0 577.412296984,1201.00785249 578.006470524,1201.13960293 578.399453426,1201.4638645 578.614687155,1201.81494918 578.718606484,1202.3318127 578.720956287,1210.91885549 578.593520466,1211.44511542 578.349453478,1211.91571965 577.962000282,1212.24828016 577.4520023,1212.45776009 576.156751979,1212.44744404 " moovel_rot="-85.7" moovel_centroid="577.404358012,1206.701834895387" moovel_centroidlatlon="13.178579481195625,52.53176107423714"></polygon></g><g transform="translate(-228.6605225 -680.4254971000001) rotate(0)"><polygon id="367788507" class="tile" points="231.160522569,1512.57080767 233.240538578,1512.56035742 233.247782982,1522.55663333 231.161142833,1522.55835659 231.160522569,1512.57080767 " moovel_rot="-37.2" moovel_centroid="232.20264975,1517.56418445" moovel_centroidlatlon="13.198266827871608,52.55562925492116"></polygon></g><g transform="translate(-190.9815676 -339.8859599000001) rotate(0)"><polygon id="201855215" class="tile" points="198.604527733,1201.0 198.606441051,1206.46794649 193.483473561,1206.47285488 193.481560242,1201.00490837 198.604527733,1201.0 " moovel_rot="-0.3" moovel_centroid="196.044000645,1203.7364274350236" moovel_centroidlatlon="13.36027365,52.552989950000004"></polygon></g><g transform="translate(-97.5262985 -1498.7500928000002) rotate(0)"><polygon id="131293439" class="tile" points="100.026295964,2570.11903843 100.026295964,2564.1345026 102.5945874,2564.22801098 102.68239221,2569.85187165 100.026295964,2570.11903843 " moovel_rot="-90" moovel_centroid="101.319105588,2567.10056099" moovel_centroidlatlon="13.222792792406976,52.62427022106209"></polygon></g></g><g transform="translate(0 1327.7)"><polygon id="9" class="bin" points="-147.076462221,413.227625525 -146.2500005,414.521997423 -146.2500005,510.503700076 -147.361557088,513.168492068 -150.03726256,514.253514943 -202.066829015,513.736495063 -206.092241636,515.323777531 -207.872961744,519.267436782 -208.452779512,534.280830581 -206.928888778,538.404707853 -202.935802835,540.244238057 -175.692741408,541.310879384 -172.853654746,542.789194766 -172.189996941,545.920550345 -177.662192612,569.07366448 -177.774656867,569.663539064 -180.86313845,590.857721191 -180.891118638,591.073638739 -183.176869848,611.209265474 -183.184814284,611.282774383 -184.650189054,625.559961822 -184.680866503,625.993276157 -185.245512544,640.434670683 -185.250757856,640.710279007 -185.220884095,669.989682955 -185.20517718,670.44716449 -184.054608473,687.436531831 -183.906980385,688.461573382 -180.806205176,702.429081296 -180.949747368,702.460947544 -180.533439132,704.089990369 -182.041266129,706.574104894 -182.962862589,707.24236934 -185.105021494,707.956030383 -187.268642705,707.310352351 -194.165580927,702.634212199 -198.555369487,701.766122817 -202.233558938,704.314601802 -204.01266053,707.125381218 -204.081295373,707.236124828 -210.601848197,717.983267719 -211.524385732,723.574023642 -211.453588737,723.904816968 -212.983835377,726.304617835 -213.688617889,726.46567206 -218.194046426,729.560647829 -219.923439386,732.16806875 -231.127683622,749.065839876 -231.95792516,753.434243514 -229.419529384,757.085106194 -215.028172408,766.219517175 -214.989530709,766.24437705 -207.79479978,770.935627029 -206.170768836,773.317150003 -206.716558813,776.147563661 -230.940186331,812.721571496 -231.793185185,816.982725851 -229.421590569,820.624234118 -209.099689258,834.710355387 -204.773799022,835.635825285 -201.07334312,833.211686884 -185.252578799,809.861585878 -182.88538658,808.288235587 -180.094597243,808.827239307 -178.483543846,811.168934653 -178.977790761,813.967997018 -180.693189253,816.683119497 -189.79370866,831.102488135 -194.949932573,839.270984422 -199.717427829,846.890389149 -208.362003608,860.692290549 -218.066416902,876.187270054 -218.607848704,877.245466328 -231.720685324,909.482095063 -231.283022218,914.600664956 -226.882712251,917.251811678 -225.472432639,917.351577376 -222.353610371,919.475189991 -220.211924139,923.956387802 -217.35578342,926.74213579 -214.08437819,926.967699898 -210.872927729,924.600313644 -201.480500368,910.373803055 -201.441923941,910.314714853 -194.445916745,899.477711586 -194.414682915,899.430126036 -190.347549126,893.335086959 -187.959747842,891.73858646 -185.142781265,892.299931377 -180.254275183,895.571053038 -175.994151056,896.443542423 -172.341107801,894.084481108 -167.471547064,887.112560631 -167.467087632,887.106189986 -165.605150564,884.452130499 -165.515229834,884.320744922 -164.381138205,882.621815677 -162.007665322,881.028655225 -159.201010899,881.571080059 -150.759902544,887.124922364 -149.28724091,887.410027284 -147.107307251,888.705283968 -146.2500005,891.091667376 -146.2500005,919.811477772 -147.387282114,922.501496849 -150.109308571,923.559884333 -188.978503765,922.426411569 -193.145388171,924.047626867 -194.8838259,928.166983487 -194.786751903,1040.83871372 -193.295397037,1044.70539498 -189.597046941,1046.57557409 -173.24671205,1048.23142963 -173.091660317,1048.24536068 -172.534227085,1048.28908863 -170.138948839,1049.41337009 -169.082230706,1051.83921293 -169.890186188,1054.35885073 -172.770498462,1057.98796749 -173.553472029,1059.22560294 -179.942873929,1072.21058218 -180.492771394,1073.78857916 -184.157084071,1090.70145299 -187.996260875,1108.57865427 -188.048865465,1108.85008895 -190.96882976,1125.72704195 -191.055110652,1126.45504403 -192.226511717,1144.55866469 -192.240830445,1145.02188522 -192.188669938,1163.56818596 -192.178444971,1163.92415867 -191.234829802,1181.18303679 -191.221139465,1181.38098528 -189.890132156,1197.28747704 -189.315580043,1199.51790567 -188.265947175,1201.86360093 -188.200415031,1204.77116425 -188.34032496,1205.12589428 -189.718948316,1206.85016894 -191.828793417,1207.499999 -446.2499995,1207.499999 -448.901649929,1206.40164943 -449.9999995,1203.749999 -449.9999995,3.75 -448.901649929,1.09834957055 -446.2499995,0.0 -203.903780928,0.0 -201.232530644,1.11809538217 -200.15419375,3.80564164409 -200.824296035,48.9625915323 -199.757038828,52.4078754965 -196.863872562,54.5616184015 -180.971763805,59.9108693486 -180.83918567,59.9540032948 -172.956997505,62.430356485 -170.902920687,64.0173517529 -170.371548581,66.558105429 -171.617478258,68.8352626033 -174.043745667,69.757765731 -185.866845424,69.8751428645 -189.892149261,71.5760635123 -191.558602347,75.6157585679 -191.698948163,177.310970061 -190.756389781,180.78573158 -186.045886257,188.80413809 -180.240860353,192.131516658 -152.25035604,192.167829653 -149.354467061,193.541247782 -148.577536384,196.650721863 -181.042385205,359.560028884 -180.604678191,363.164680086 -178.113874638,365.806837418 -150.035854683,381.048897349 -148.078299768,384.503727952 -148.0839596,384.63699731 -148.161489749,386.885892336 -148.453760697,388.213397964 -148.631075489,388.634011558 -148.795401541,407.678021983 -146.683429701,413.073787556 -147.076462221,413.227625525 " moovel_rot="0" moovel_centroid="-316.2041108605543,594.8762446922902" moovel_centroidlatlon="0,0" transform="translate(450 0)"></polygon><g transform="translate(-367.8453981 -217.22187980000012) rotate(0)"><polygon id="208811730" class="tile" points="377.373240455,1417.17595477 377.382439106,1405.9618585 377.389116599,1398.82724009 370.345405323,1398.83835936 370.355976866,1373.81753842 385.153234443,1373.86326421 385.133521264,1417.22191504 383.940500251,1417.21843487 377.373240455,1417.17595477 " moovel_rot="63.2" moovel_centroid="378.724129306,1392.3665843" moovel_centroidlatlon="13.432546473665628,52.56986674388652"></polygon></g><g transform="translate(-334.0387751 -353.36406239999997) rotate(0)"><polygon id="334084390" class="tile" points="356.522951638,1512.56035742 371.892290737,1512.87364565 371.910243259,1553.77474614 359.826848049,1541.85906082 356.333758964,1538.10199519 356.522951638,1512.56035742 " moovel_rot="-0.1" moovel_centroid="364.748350405,1529.73162948" moovel_centroidlatlon="13.3298171011672,52.60728165890146"></polygon></g><g transform="translate(-183.6800747 -390.0053605999999) rotate(0)"><polygon id="184341480" class="tile" points="205.259171386,1544.20310841 205.253105871,1512.57727765 221.377533313,1512.56035742 221.383580537,1544.18618489 205.259171386,1544.20310841 " moovel_rot="-79.8" moovel_centroid="213.318347635,1528.3817291" moovel_centroidlatlon="13.2851586,52.52246225000001"></polygon></g><g transform="translate(-68.5580863 -758.0609518000001) rotate(0)"><polygon id="43887825" class="tile" points="126.645272233,1882.68829868 115.184294088,1881.41591678 111.398206517,1917.8279912 117.526627857,1918.17697637 118.475908785,1919.98893526 119.532452013,1921.67860702 120.517945876,1923.03445723 121.73835608,1924.50728829 123.625601944,1926.41249361 126.231243121,1928.49070312 126.654389649,1924.89303344 124.6949809,1923.18335536 123.611995399,1922.03689972 122.733712061,1920.97773771 121.912033402,1919.82402218 121.197776758,1918.66928252 123.077742489,1918.71199718 126.645272233,1882.68829868 " moovel_rot="-6.4" moovel_centroid="119.317912861,1901.85944262" moovel_centroidlatlon="13.4732824842483,52.54961537503514"></polygon></g><g transform="translate(-61.3847845 -1266.6588422999998) rotate(0)"><polygon id="114033135" class="tile" points="118.524356887,2385.09413661 100.517678425,2384.97937539 100.506830749,2357.83131552 119.038245587,2358.36588623 118.524356887,2385.09413661 " moovel_rot="0.4" moovel_centroid="109.624189508,2371.50231732" moovel_centroidlatlon="13.311824129985625,52.5260244454007"></polygon></g><g transform="translate(-123.55667949999999 -280.5515304999999) rotate(0)"><polygon id="23971965" class="tile" points="143.237538537,1373.8348697 143.245748752,1398.68642172 126.07517951,1398.6653642 126.056675648,1373.81753842 143.237538537,1373.8348697 " moovel_rot="70.1" moovel_centroid="134.654000234,1386.24980744" moovel_centroidlatlon="13.566452733664667,52.397748080702215"></polygon></g><g transform="translate(-156.26549500000002 -137.6027399000002) rotate(0)"><polygon id="79421742" class="tile" points="192.473275931,1224.73737999 188.858424443,1227.5144816 179.975340695,1227.11972508 176.093804234,1225.79371579 178.470325118,1221.34551709 181.501307333,1210.55203655 170.51123614,1207.5604113 171.083442806,1205.41331932 172.175869536,1201.44299724 192.12997731,1201.0 192.481560242,1206.55317387 192.473275931,1224.73737999 " moovel_rot="-84.7" moovel_centroid="184.199159028,1213.0974137832882" moovel_centroidlatlon="13.161875684730058,52.42003945773222"></polygon></g><g transform="translate(-345.3148739 -324.54511760000014) rotate(0)"><polygon id="354929053" class="tile" points="395.064160657,1411.10204627 386.864919109,1396.88733309 386.153234443,1390.32081243 389.56084854,1374.09215864 400.583208048,1373.81753842 398.775693476,1402.24102615 400.59589461,1409.83788181 397.690536117,1410.50683931 395.064160657,1411.10204627 " moovel_rot="-85.9" moovel_centroid="393.979525664,1390.75655322" moovel_centroidlatlon="13.73091337048628,52.40184882825808"></polygon></g><g transform="translate(-333.07742310000003 -1231.2842324) rotate(0)"><polygon id="187525654" class="tile" points="337.121971966,2256.88620378 335.582781763,2256.21179342 335.577411984,2291.49712284 337.850952388,2291.66164107 346.629527332,2291.25943349 346.125535539,2257.47495791 337.121971966,2256.88620378 " moovel_rot="31.9" moovel_centroid="340.946394141,2274.42329552" moovel_centroidlatlon="13.406733460110916,52.506238644935124"></polygon></g><g transform="translate(-171.3940153 -480.94676430000004) rotate(0)"><polygon id="27992364" class="tile" points="204.253105871,1512.56035742 189.933850072,1512.57154865 189.924008695,1539.42303354 204.249726061,1539.41015121 204.253105871,1512.56035742 " moovel_rot="-14.5" moovel_centroid="197.090097496,1525.99228217" moovel_centroidlatlon="13.283783520135378,52.44602924122277"></polygon></g><g transform="translate(-47.17222219999999 -28.729239700000107) rotate(0)"><polygon id="274354442" class="tile" points="90.0598496386,1227.03060432 105.068441873,1227.42042211 105.141618193,1203.8476485 90.0313462566,1201.0 90.0598496386,1227.03060432 " moovel_rot="18.8" moovel_centroid="97.4515268762,1214.7971042387417" moovel_centroidlatlon="13.519128937540302,52.4165750236741"></polygon></g><g transform="translate(-357.174577 -496.66149929999995) rotate(0)"><polygon id="335683923" class="tile" points="400.261666362,1512.56035742 395.061081319,1512.68080453 395.033362949,1530.78324463 398.893582758,1531.03053264 399.243782926,1540.90153761 409.781451756,1541.00013675 409.76550528,1515.71939066 405.300261611,1515.87527066 404.948923579,1512.86139917 400.261666362,1512.56035742 " moovel_rot="11.3" moovel_centroid="402.804897885,1526.29382085" moovel_centroidlatlon="13.432800528680982,52.45867699007501"></polygon></g><g transform="translate(-326.0213844 -205.0675038999999) rotate(0)"><polygon id="357666359" class="tile" points="347.448042355,1231.69061408 353.637694499,1231.5428304 353.603106112,1229.85398976 357.324848272,1229.76459811 357.054992122,1216.77865817 352.129638446,1216.88714151 352.067998447,1213.85231063 357.319757458,1213.73628338 357.051754992,1201.0 344.574095026,1201.28975579 344.644402584,1204.5828402 348.457692501,1204.49067065 348.743772699,1218.07773941 343.447021691,1218.20151857 343.691957869,1229.8118989 347.408467406,1229.72665827 347.448042355,1231.69061408 " moovel_rot="-38.4" moovel_centroid="351.193468984,1217.066736030668" moovel_centroidlatlon="13.15607844526067,52.46291173045935"></polygon></g><g transform="translate(-277.6679382 -1233.7785450999997) rotate(0)"><polygon id="324109669" class="tile" points="280.151107353,2383.80898361 283.031284778,2384.29559952 289.739268111,2385.43771205 289.61025912,2383.67838837 289.382630829,2372.65631298 289.73158301,2358.92928943 283.182164961,2357.83131552 282.94558454,2362.12535943 280.151107353,2383.80898361 " moovel_rot="-79.1" moovel_centroid="285.613572775,2372.37782265" moovel_centroidlatlon="13.366539223625567,52.47117282068313"></polygon></g></g></svg>