<svg><g transform="translate(0 0)"><polygon id="11" class="bin" points="-438.021932898,1207.499999 -440.673583327,1206.40164943 -441.771932898,1203.749999 -441.771932898,3.75 -440.673583327,1.09834957055 -438.021932898,0.0 -162.127994991,0.0 -159.476183047,1.09851109532 -158.377995019,3.75045684714 -158.413697295,296.810263536 -159.510874411,299.460284173 -162.159923564,300.55980479 -171.028199452,300.568729125 -175.088609035,302.254831278 -176.768460117,306.317831006 -176.712481018,411.402369733 -176.608859384,584.05519531 -175.692166696,586.26370791 -175.703392516,589.165663675 -176.299823249,590.571771402 -176.008018856,775.790275637 -174.295010365,779.872749938 -170.18696047,781.52348328 -167.750702453,781.490272879 -165.038331082,782.597915729 -163.950406429,785.31825598 -164.527330777,812.931604702 -164.528797788,813.09651382 -163.907457132,1013.61706083 -162.5094362,1017.04625117 -162.41925854,1019.63229231 -164.025425743,1021.66107711 -166.563174837,1022.16661677 -168.824177986,1020.90820286 -171.55579837,1017.73443444 -175.456970566,1015.75405716 -179.622075228,1017.09306494 -190.531337449,1026.30868987 -192.538643838,1030.06962945 -191.410061279,1034.18062044 -179.494970089,1049.95141519 -178.862809861,1053.17505023 -191.477319238,1100.64511367 -190.868261276,1105.04565212 -190.402260615,1105.39169446 -189.104737074,1107.14580013 -189.003276227,1109.32528624 -192.581671326,1123.41806534 -191.976020943,1127.72941932 -188.522751928,1130.38074325 -185.795556555,1131.12540315 -183.531203067,1132.87584659 -183.161201701,1135.71388252 -192.13243807,1169.18243033 -192.329861437,1171.66473995 -191.831673078,1176.47673057 -190.506504804,1179.61479129 -187.654214712,1181.47703115 -156.949950127,1190.37260538 -154.644356048,1192.28751493 -154.478067102,1195.28000396 -156.557302966,1197.43857313 -158.138292786,1198.09403603 -159.848789322,1202.07197064 -159.88431976,1203.82594745 -161.008889345,1206.42836666 -163.633550592,1207.499999 -438.021932898,1207.499999 " moovel_rot="0" moovel_centroid="-306.06102865716826,596.8303664055524" moovel_centroidlatlon="0,0" transform="translate(441.7719421 0)"></polygon><g transform="translate(-170.6070904 -707.6449694) rotate(0)"><polygon id="195071830" class="tile" points="172.92075103,1799.14323832 279.088437077,1758.76176228 280.880083142,1773.06381179 280.88242745,1811.47585662 278.443145114,1848.23414129 271.384659088,1896.99608824 212.780218127,1907.68559707 199.844336855,1864.00327018 198.328911694,1861.2123874 172.92075103,1799.14323832 " moovel_rot="10" moovel_centroid="236.318570322,1833.47584183" moovel_centroidlatlon="13.417230626585372,52.51709693304454"></polygon></g><g transform="translate(-82.6430369 -1459.2898094000002) rotate(0)"><polygon id="28336992" class="tile" points="144.609199387,2382.04547043 144.258091721,2439.9251886 145.098872523,2506.11605738 144.659259415,2522.77895899 85.1430332994,2522.65261711 85.2721042007,2381.79347025 144.609199387,2382.04547043 " moovel_rot="56.7" moovel_centroid="114.900588664,2452.46182928" moovel_centroidlatlon="13.501041864353223,52.62387622350121"></polygon></g><g transform="translate(66.8076194 -496.3316638) rotate(0)"><polygon id="24775274" class="tile" points="62.1464918515,1405.62547111 2.86672711652,1420.86169433 0.0,1431.37785618 20.7168857167,1453.36899021 8.41497022659,1470.85022737 35.0503939072,1500.49742832 33.3377048034,1526.49923345 37.1508491658,1539.16048693 43.5547816532,1543.08859991 52.2019217407,1544.92644173 63.7167799434,1518.5741807 67.1783829046,1507.50658036 74.4049871922,1472.70634124 74.4573843671,1415.94230608 70.3714703478,1406.40524285 62.1464918515,1405.62547111 " moovel_rot="60.5" moovel_centroid="44.75059026284586,1464.18458939" moovel_centroidlatlon="13.21788542726901,52.57081853384801"></polygon></g><g transform="translate(-198.0011592 -1029.1950003000002) rotate(0)"><polygon id="32765877" class="tile" points="319.28623593,2229.28495588 333.965322272,2225.23814513 338.386262174,2223.33406823 336.694901726,2218.98734196 352.856862959,2204.87173884 357.24445672,2201.68929209 368.161341635,2185.6838939 375.56423043,2170.7409776 381.725931518,2149.99822103 351.955788402,2054.7800882 351.319770957,2052.00062286 330.88382496,2058.25760601 341.670059808,2095.41459217 319.479339238,2101.9653609 323.923473831,2116.3306188 315.597404634,2119.46305588 326.643939811,2158.71893195 341.850259996,2209.9730473 315.715152373,2217.61644796 319.28623593,2229.28495588 " moovel_rot="15.2" moovel_centroid="348.130587218,2138.86488625" moovel_centroidlatlon="13.513300006669386,52.46898479273931"></polygon></g><g transform="translate(-349.2572953 -1121.0517952999999) rotate(0)"><polygon id="142701777" class="tile" points="415.019019836,1950.76761277 415.225801232,1969.72350213 420.361967761,1969.67290016 420.134113068,1989.39710619 439.784753128,1989.07206461 439.000424578,2035.40496413 402.755053086,2034.86278163 402.656447245,2038.02243438 368.481810608,2038.62643745 368.872249255,2021.69386349 368.872409468,2020.44421857 355.893773529,2020.3812655 355.915852384,1966.32138381 369.053832826,1966.51570371 370.173184579,1949.28137975 415.019019836,1950.76761277 " moovel_rot="64.6" moovel_centroid="395.426876041,1996.99983412" moovel_centroidlatlon="13.467394854862462,52.49098602445723"></polygon></g><g transform="translate(-341.9245335 -587.6173663) rotate(0)"><polygon id="388826374" class="tile" points="488.116710182,1547.10057149 488.126477335,1572.19032906 527.417372816,1694.51050393 543.769081382,1690.97259317 541.820897437,1656.85747018 543.740420183,1604.04962122 543.462179646,1573.88307815 543.94441528,1544.92644173 488.116710182,1547.10057149 " moovel_rot="72.5" moovel_centroid="521.659787717,1605.47182901" moovel_centroidlatlon="13.269789598269831,52.53251172310852"></polygon></g><g transform="translate(113.5647061 -451.3859502) rotate(0)"><polygon id="194938461" class="tile" points="63.5189007635,1207.25192561 46.9998183297,1201.0 39.751565993,1219.30182216 30.4290481655,1218.51059331 1.0,1292.28183266 4.1940295632,1317.32226699 8.97219425533,1332.03384331 19.0930395477,1329.70380483 44.3580530314,1405.62547111 63.6258029835,1396.11659764 30.6755539039,1302.20950061 63.5189007635,1207.25192561 " moovel_rot="19.7" moovel_centroid="32.64677109436227,1298.2256197984607" moovel_centroidlatlon="13.578063081517302,52.514527321432986"></polygon></g><g transform="translate(-287.23502790000003 -1506.6590274) rotate(0)"><polygon id="75722189" class="tile" points="353.959090741,2229.28495588 396.129619537,2230.54577029 405.835283934,2234.59954336 407.92757969,2245.36482757 404.413878784,2295.52547267 401.676071292,2334.69172268 354.018965552,2331.84159458 355.111047143,2313.70971438 359.363822408,2243.01742019 359.694179865,2237.49356519 357.76376009,2232.19482067 353.959090741,2229.28495588 " moovel_rot="-26.0" moovel_centroid="380.970197261,2281.8029942" moovel_centroidlatlon="13.431638689460303,52.53997290565274"></polygon></g><g transform="translate(-82.7983252 -805.7516014) rotate(0)"><polygon id="30805116" class="tile" points="269.926547821,1712.87728681 264.056019457,1755.58599493 277.962686904,1757.18603346 290.745140263,1758.76176228 296.407628841,1722.26975177 289.533829289,1721.26683228 293.064985326,1696.89757626 300.123511694,1697.72644194 302.205264545,1685.42446806 293.428607251,1684.0773891 289.995010496,1683.5502175 285.553871392,1683.05437239 283.072577407,1682.75864175 280.547534638,1682.50413683 299.620041089,1547.28009262 282.727173375,1544.92644173 277.64712259,1581.11131736 272.55639261,1617.4114672 268.04046637,1649.61765787 264.007455209,1678.34332483 280.52511299,1702.34785747 278.992643727,1713.46996202 269.926547821,1712.87728681 " moovel_rot="-43.3" moovel_centroid="281.819285996,1660.24833306" moovel_centroidlatlon="13.370141375889673,52.53830179838127"></polygon></g><g transform="translate(-261.9380805 -463.0746905) rotate(0)"><polygon id="24413211" class="tile" points="321.534613961,1212.07336298 321.773031494,1286.1081552 264.438091816,1286.39963355 264.500474015,1201.0 281.486671025,1201.94063532 292.552592882,1211.03050958 321.534613961,1212.07336298 " moovel_rot="-23.1" moovel_centroid="292.160552442,1246.813774863741" moovel_centroidlatlon="13.157501708925938,52.561859287954725"></polygon></g><g transform="translate(-141.0615465 -751.2200393) rotate(0)"><polygon id="102948549" class="tile" points="265.60203604,1498.48522961 271.147820029,1506.33480243 287.42506743,1500.33372266 337.480038439,1482.87402245 340.846191407,1476.96140302 330.346763035,1450.47184579 312.577902573,1405.62547111 299.165656663,1409.70724654 267.10662299,1429.28223542 265.62713965,1434.27883488 279.468318474,1455.77869295 275.438639575,1458.89975146 288.712189137,1478.30285552 265.60203604,1498.48522961 " moovel_rot="-25.6" moovel_centroid="301.891228773,1456.08582584" moovel_centroidlatlon="13.24707607063187,52.53877932267833"></polygon></g><g transform="translate(13.587579299999994 -1583.2895083) rotate(0)"><polygon id="32671117" class="tile" points="0.0,2298.3259984 48.1698025893,2328.10731838 48.0523505682,2230.28191378 4.5954821974,2229.28495588 0.0,2298.3259984 " moovel_rot="36.3" moovel_centroid="26.415835685098745,2272.73945595" moovel_centroidlatlon="13.500002053041015,52.56283722964801"></polygon></g><g transform="translate(-5.341548700000004 -1344.0625114) rotate(0)"><polygon id="42493955" class="tile" points="71.9283329628,1949.28137975 72.0049859138,2009.53100812 131.137116001,2016.42629235 134.98897671,1951.61602172 71.9283329628,1949.28137975 " moovel_rot="-57.0" moovel_centroid="102.919193002,1981.4209019" moovel_centroidlatlon="13.371747748084932,52.53100705942437"></polygon></g><g transform="translate(154.1249847 -957.1487924999999) rotate(0)"><polygon id="50996274" class="tile" points="0.0,1545.00205171 0.0172133663669,1606.70254364 5.91512649581,1606.69275191 20.8731278233,1606.65498788 25.5348386195,1606.64119016 25.5401193347,1618.68927048 54.0039174786,1618.61711525 60.4066060111,1618.60136787 60.3919757595,1560.14134497 28.2557243317,1560.22586821 28.2556231041,1544.92644173 0.0,1545.00205171 " moovel_rot="-56.0" moovel_centroid="29.77094409825885,1583.13698983" moovel_centroidlatlon="13.451121506176966,52.42794944744613"></polygon></g><g transform="translate(81.38108390000001 -1421.1848913) rotate(0)"><polygon id="42022948" class="tile" points="67.1736336093,2021.34467717 67.6146730425,2012.44309485 69.9283329628,1961.62218572 69.9244075427,1949.28137975 29.7350804608,1951.79216093 0.0,1953.47893053 0.396044912003,1963.81681457 0.72381113302,1972.18412204 30.835707636,1971.33707332 32.8615559069,2023.17480326 67.1736336093,2021.34467717 " moovel_rot="81.0" moovel_centroid="44.012932708279926,1981.32945609" moovel_centroidlatlon="13.513809525756255,52.509622112873956"></polygon></g><g transform="translate(-83.96218189999999 -1484.5901767000003) rotate(0)"><polygon id="225907914" class="tile" points="86.4621752048,2052.00062286 136.971916341,2055.28095095 130.024091175,2122.90113527 86.6572282632,2127.06853679 86.4580879625,2122.05190559 86.4621752048,2052.00062286 " moovel_rot="21.0" moovel_centroid="109.613406492,2088.39190464" moovel_centroidlatlon="13.413511551920712,52.43895235412988"></polygon></g><g transform="translate(-297.5345798000001 -894.8528613999999) rotate(0)"><polygon id="177623124" class="tile" points="506.972374573,2051.13640692 491.547179313,2052.00062286 489.757444898,2019.71295561 505.000443271,2019.23588138 502.950852633,1949.73165923 529.944092254,1949.28137975 529.936078452,2049.9508795 506.972374573,2051.13640692 " moovel_rot="-12.3" moovel_centroid="514.175218837,2004.72511876" moovel_centroidlatlon="13.58954739218357,52.5192984326684"></polygon></g><g transform="translate(-194.96917870000001 -1239.0260239) rotate(0)"><polygon id="213962772" class="tile" points="370.226953767,1776.74554282 384.949866018,1837.17537784 400.428631243,1832.80350998 400.800992718,1812.12614152 400.918086598,1806.64906608 430.325334456,1807.04848904 430.375716515,1770.49817773 428.40340363,1759.8615856 419.027796745,1763.14118948 417.934504016,1758.76176228 382.575594039,1767.88968213 383.071564192,1773.14257387 375.679063012,1775.18203729 370.226953767,1776.74554282 " moovel_rot="5.7" moovel_centroid="401.147015608,1791.86747602" moovel_centroidlatlon="13.406738129838088,52.41539856001958"></polygon></g><g transform="translate(-96.1301668 -1750.2861861000001) rotate(0)"><polygon id="28026041" class="tile" points="124.490588846,2314.64917831 142.90379811,2305.87688886 173.038031561,2291.51579329 144.844982102,2229.28495588 119.691442981,2241.24321769 120.962946069,2291.47890584 119.642372992,2305.02159981 124.490588846,2314.64917831 " moovel_rot="-68.4" moovel_centroid="140.621092016,2273.42828428" moovel_centroidlatlon="13.367689320746925,52.54217061190737"></polygon></g><g transform="translate(-283.6797347 -955.2963841) rotate(0)"><polygon id="371492590" class="tile" points="395.900261539,1480.73510124 358.836410297,1480.61432072 358.901395904,1405.62547111 395.965447569,1405.74604337 395.900261539,1480.73510124 " moovel_rot="43.9" moovel_centroid="377.400887461,1443.18020038" moovel_centroidlatlon="13.537486350000002,52.43093684999999"></polygon></g><g transform="translate(-21.87617180000001 -1332.5946076) rotate(0)"><polygon id="13560486" class="tile" points="240.420740588,2229.28495588 257.688094238,2229.54413804 256.078374572,2381.79347025 240.68427876,2380.76005089 240.420740588,2229.28495588 " moovel_rot="-10.6" moovel_centroid="248.731894428,2303.89722245" moovel_centroidlatlon="13.32066472045939,52.56961451422097"></polygon></g><g transform="translate(-78.8354282 -1770.3810304999997) rotate(0)"><polygon id="409757808" class="tile" points="196.10363684,2293.23935354 196.113804362,2229.28495588 230.966580505,2229.43145828 239.420740588,2229.436513 239.407279748,2234.8213286 239.198006937,2261.75284683 239.355828268,2287.74882449 239.348584267,2288.23745263 239.350141835,2293.07303763 239.331278065,2293.54889806 226.432483687,2293.56943834 196.10363684,2293.23935354 " moovel_rot="-93.0" moovel_centroid="217.717879166,2261.40489145" moovel_centroidlatlon="13.368312933642024,52.465095586743224"></polygon></g><g transform="translate(-356.87551599999995 -1613.3218572000003) rotate(0)"><polygon id="156066254" class="tile" points="537.475898674,2143.16818547 522.353559818,2129.6222949 528.160202985,2123.11203531 547.761686236,2101.11181495 544.315621919,2098.0238887 535.030941549,2089.71028538 523.842043448,2079.69466438 527.390681273,2075.72369177 524.957695043,2072.80380724 525.038323853,2066.34919521 522.318782222,2063.88024721 532.220788059,2052.90503468 535.077179177,2055.4951949 538.236199304,2052.00062286 543.783548992,2057.02856178 546.614504658,2053.89112246 573.45220974,2078.23142381 577.995209717,2082.35010876 574.479789569,2086.24492888 573.510431893,2093.11662877 570.381930379,2096.62915273 573.671432879,2099.5794913 572.602161926,2100.78022521 547.77673245,2128.62647599 549.249700327,2129.95508715 537.475898674,2143.16818547 " moovel_rot="-81.7" moovel_centroid="547.700057808,2092.3628714" moovel_centroidlatlon="13.570779783232155,52.413232020537194"></polygon></g><g transform="translate(-240.82298759999998 -1168.5590641) rotate(0)"><polygon id="244081949" class="tile" points="484.864937162,1790.8703275 458.428389689,1862.54040399 461.041220588,1872.21533854 481.475176339,1916.35869889 477.280770207,1918.06469217 491.333701596,1947.76664917 484.934476865,1949.28137975 479.034309824,1936.14236737 475.760153505,1937.48151028 452.442116427,1886.83031655 455.733538857,1884.9683546 451.016585047,1865.89999474 450.653785774,1854.3476809 464.825355093,1819.50942879 460.83477462,1818.23200722 471.162758932,1788.93800701 476.065656982,1789.85610563 479.881757166,1777.3767689 475.784290521,1775.44573131 482.42043498,1758.76176228 491.433360026,1761.60818705 481.164724799,1788.56230967 484.864937162,1790.8703275 " moovel_rot="46.5" moovel_centroid="469.503184892,1856.06148407" moovel_centroidlatlon="13.607821178614019,52.53401355813951"></polygon></g><g transform="translate(-478.631974 -778.4309973000001) rotate(0)"><polygon id="89721003" class="tile" points="530.571013782,1201.0 530.598201656,1219.22989474 530.645455425,1248.90674028 525.197820748,1248.96808776 525.215911346,1252.99105003 485.553526931,1252.87838061 485.345464867,1248.13834423 481.13188391,1248.40978672 481.503318314,1201.09585997 489.286246731,1201.08112146 530.571013782,1201.0 " moovel_rot="64.1" moovel_centroid="505.960888899,1226.638095843977" moovel_centroidlatlon="13.32466905239732,52.52013473742398"></polygon></g><g transform="translate(-282.56866649999995 -604.7190441000001) rotate(0)"><polygon id="37756365" class="tile" points="495.616448924,1478.54014531 526.012484627,1476.48944236 525.186599699,1464.23771609 531.511050939,1463.92487835 528.431905584,1411.22054217 535.117948579,1410.54616106 534.864620598,1405.62547111 495.568209781,1408.97054959 495.57244317,1415.57373644 495.616448924,1478.54014531 " moovel_rot="-6.6" moovel_centroid="512.68432704,1441.75315093" moovel_centroidlatlon="13.307004149480665,52.527827673018486"></polygon></g><g transform="translate(-142.2721308 -324.09867869999994) rotate(0)"><polygon id="24041393" class="tile" points="383.137547257,1226.29437045 382.87889868,1201.06679456 402.808094396,1201.0 402.982637813,1311.41357015 382.529624887,1310.82240977 383.137547257,1226.29437045 " moovel_rot="65.8" moovel_centroid="392.893632254,1256.400569786693" moovel_centroidlatlon="13.325732013519168,52.56356809045763"></polygon></g><g transform="translate(-461.71349130000004 -1873.8546413000001) rotate(0)"><polygon id="326746309" class="tile" points="518.692248129,2245.5172709 535.36799334,2229.28495588 581.27539384,2275.46494548 579.003513349,2277.39658504 524.07556925,2329.50887234 518.657424564,2324.40731168 558.114186715,2285.84594393 518.692248129,2245.5172709 " moovel_rot="-55.5" moovel_centroid="548.033698396,2270.91486586" moovel_centroidlatlon="13.478766745970884,52.56607014796836"></polygon></g><g transform="translate(-418.6026927 -1865.1805289999998) rotate(0)"><polygon id="51215020" class="tile" points="461.923676536,2282.76629597 461.919422,2275.13365216 461.885910214,2229.28495588 421.102683662,2229.2854131 421.151327274,2282.76510816 461.923676536,2282.76629597 " moovel_rot="81.4" moovel_centroid="441.51628689,2256.02434301" moovel_centroidlatlon="13.375482134686674,52.458503429994714"></polygon></g><g transform="translate(-204.582844 -1576.2134664999999) rotate(0)"><polygon id="101184449" class="tile" points="329.069022682,2030.14253837 354.869408116,2030.11266706 354.893773529,1949.28137975 329.103550029,1949.31486956 329.069022682,2030.14253837 " moovel_rot="-70.4" moovel_centroid="341.984034186,1989.71551745" moovel_centroidlatlon="13.421973062580209,52.41919286591249"></polygon></g><g transform="translate(-125.93022970000001 -1870.4783046000002) rotate(0)"><polygon id="71036666" class="tile" points="310.459185326,2304.16600151 281.325923346,2304.38292959 281.221293971,2229.28495588 311.507691561,2240.36902225 310.516229016,2251.0218228 310.459185326,2304.16600151 " moovel_rot="-23.7" moovel_centroid="295.542595698,2269.29097484" moovel_centroidlatlon="13.310064980449862,52.49234022568771"></polygon></g><g transform="translate(148.4687255 -1029.2634452) rotate(0)"><polygon id="265649770" class="tile" points="76.4573843671,1495.1260286 76.7253486523,1475.73585104 77.4422189897,1424.20019773 77.6956807703,1405.80950635 98.5937729126,1405.62547111 98.6255834001,1486.37846789 98.6881152801,1495.73939414 88.051950981,1495.45150941 76.4573843671,1495.1260286 " moovel_rot="-3.0" moovel_centroid="87.8583627747,1451.02689438" moovel_centroidlatlon="13.326762315311402,52.574229859757615"></polygon></g><g transform="translate(-45.35466889999998 -1038.2201149) rotate(0)"><polygon id="25913538" class="tile" points="264.497334895,1473.77567619 236.705512276,1474.43419416 235.891819172,1405.83604317 264.60203604,1405.62547111 264.497334895,1473.77567619 " moovel_rot="-92.5" moovel_centroid="250.407309011,1439.73334631" moovel_centroidlatlon="13.481205095749837,52.5270639803806"></polygon></g><g transform="translate(-90.0397317 -1737.4149269000002) rotate(0)"><polygon id="246644874" class="tile" points="183.271123721,2105.5178448 219.392927625,2105.5099151 219.370518884,2072.06187181 219.366224761,2052.00062286 183.244440349,2052.00855161 183.271123721,2105.5178448 " moovel_rot="-92.8" moovel_centroid="201.317249916,2078.75941289" moovel_centroidlatlon="13.333047248399948,52.57396876309983"></polygon></g><g transform="translate(108.58606249999998 -1227.0613118) rotate(0)"><polygon id="360882435" class="tile" points="114.98664192,1580.22697133 115.103597268,1588.94737863 71.77103326,1589.90016219 70.910972494,1545.90756744 79.3707449687,1545.22166544 115.135705846,1544.92644173 114.67130306,1554.53867496 114.98664192,1580.22697133 " moovel_rot="3.8" moovel_centroid="93.0881862954,1567.24318016" moovel_centroidlatlon="13.26799827569559,52.40820833272536"></polygon></g><g transform="translate(-130.9390901 -1240.6693907) rotate(0)"><polygon id="210753062" class="tile" points="191.228100191,1549.47724548 192.091407567,1567.8752014 192.100858548,1601.3458633 155.773207312,1598.13168682 158.950176794,1545.05498518 177.194190181,1544.92644173 191.228100191,1549.47724548 " moovel_rot="-52.9" moovel_centroid="174.577355989,1573.36837289" moovel_centroidlatlon="13.4938754312164,52.41591194598498"></polygon></g><g transform="translate(101.81372619999999 -2078.8176339) rotate(0)"><polygon id="31240354" class="tile" points="32.5065549301,2381.8202985 68.5362514012,2381.79347025 68.5634851668,2432.7702623 32.5339031145,2432.78616475 32.5065549301,2381.8202985 " moovel_rot="0.6" moovel_centroid="50.5356922262,2407.29253439" moovel_centroidlatlon="13.12915350962898,52.41085672519493"></polygon></g><g transform="translate(161.2184969 -1964.777444) rotate(0)"><polygon id="125813228" class="tile" points="96.4154362205,2239.53181013 79.5218929222,2250.61265967 96.4161562959,2276.8520881 86.2421364613,2308.51941229 50.1698025893,2255.73207423 89.2886797162,2229.28495588 96.4154362205,2239.53181013 " moovel_rot="67.6" moovel_centroid="77.0577863672,2266.39373321" moovel_centroidlatlon="13.248892786696544,52.54641131648563"></polygon></g><g transform="translate(-215.33675989999998 -1313.9326902999999) rotate(0)"><polygon id="311133900" class="tile" points="395.442418869,1544.92644173 395.432294326,1552.84515482 390.450005776,1552.90602799 390.70816743,1622.69307964 395.391919917,1622.7999106 395.48837303,1626.86733512 418.855040415,1626.9646417 418.768602666,1622.07681194 418.068010257,1622.14005727 418.133687305,1609.4740644 417.418000637,1609.39531148 404.588273687,1609.55206396 403.812746199,1609.49591645 403.599830382,1609.56414067 403.569759395,1604.36936405 402.447208233,1604.33933068 402.412478786,1604.23038349 402.491653425,1593.76255062 403.819506464,1593.64789245 403.893639892,1593.70167257 403.757378008,1588.56286212 402.554549183,1588.52287224 402.556410651,1585.94167256 402.902766274,1585.86088046 402.828890976,1583.0946723 403.824681001,1583.13719183 403.923925797,1583.05941886 403.812776964,1578.33590418 402.686885551,1578.03248111 402.836852666,1567.34498136 403.865234387,1567.32147944 403.982628043,1562.16860429 417.61673494,1562.24264341 418.137270445,1562.20347181 418.12012929,1549.3195868 418.915024747,1549.32081212 418.889497607,1545.04464698 395.442418869,1544.92644173 " moovel_rot="-0.7" moovel_centroid="401.891331108,1586.28966186" moovel_centroidlatlon="13.38728627954659,52.46789399056722"></polygon></g><g transform="translate(-259.9090436 -1717.5205465000001) rotate(0)"><polygon id="27488946" class="tile" points="281.144623395,1949.28137975 310.094350031,1984.55338368 291.914792979,1997.81086003 299.090823675,2006.76224064 268.180999001,2031.14030995 262.32010738,2024.23213616 292.28691693,2001.14601442 262.288136003,1963.86707081 281.144623395,1949.28137975 " moovel_rot="42.6" moovel_centroid="284.78718028,1984.28889359" moovel_centroidlatlon="13.378899515203384,52.565379093016496"></polygon></g><g transform="translate(-22.809539900000004 -940.405152) rotate(0)"><polygon id="284699690" class="tile" points="77.8772174919,1201.02227053 117.06803575,1201.0 117.091443568,1242.3774711 77.900625379,1242.39973671 77.8772174919,1201.02227053 " moovel_rot="0.8" moovel_centroid="97.4843309358,1221.699869576674" moovel_centroidlatlon="13.505123650000003,52.526600599999995"></polygon></g><g transform="translate(99.4223122 -1574.8050615) rotate(0)"><polygon id="30382747" class="tile" points="141.171592391,2141.79246203 137.971916341,2158.89053301 149.432929821,2161.58479245 153.480550679,2141.41759115 149.973618408,2139.92025139 150.764515511,2134.51337419 154.444887095,2134.56801656 156.186098557,2124.41397626 157.418306132,2107.59811169 156.839553972,2094.54913967 155.067996996,2079.3087407 151.277797274,2052.00062286 145.55183883,2053.18146616 138.002203563,2054.07979557 145.256544393,2111.31358963 144.567300656,2117.31141044 141.171592391,2141.79246203 " moovel_rot="-71.4" moovel_centroid="148.125081249,2104.61320442" moovel_centroidlatlon="13.545642275429804,52.54204839098706"></polygon></g><g transform="translate(41.41458820000001 -1814.8314121) rotate(0)"><polygon id="309651039" class="tile" points="57.8409346106,2052.00062286 57.8673152371,2116.80134415 77.3197183468,2115.88528431 77.4144972243,2101.95258911 77.464354226,2095.13177316 83.6846937828,2094.88375716 85.4580879625,2056.26392197 57.8409346106,2052.00062286 " moovel_rot="69.2" moovel_centroid="70.0428733392,2082.9581244" moovel_centroidlatlon="13.480957058999637,52.61042286793862"></polygon></g><g transform="translate(-102.698714 -756.0490025) rotate(0)"><polygon id="238511439" class="tile" points="341.846191407,1405.63074019 357.836410297,1405.62547111 357.83625188,1488.747548 341.847521909,1488.76368645 341.846191407,1405.63074019 " moovel_rot="-7.8" moovel_centroid="349.841419627,1447.19121653" moovel_centroidlatlon="13.374241248730055,52.457378481039555"></polygon></g><g transform="translate(-23.836295700000022 -1540.7203758) rotate(0)"><polygon id="103260498" class="tile" points="155.579730752,1838.45532907 171.92075103,1838.71311805 171.835841853,1758.76176228 163.277314998,1758.86808265 155.758846632,1758.97130119 155.579730752,1838.45532907 " moovel_rot="71.1" moovel_centroid="163.781635257,1798.83241166" moovel_centroidlatlon="13.356286229586564,52.499020775907915"></polygon></g><g transform="translate(-164.17492109999998 -1410.1400929000001) rotate(0)"><polygon id="317716333" class="tile" points="317.259356378,1708.13445246 322.855145392,1707.75450506 322.30538996,1544.97970569 317.294855883,1544.92644173 317.259356378,1708.13445246 " moovel_rot="14.9" moovel_centroid="319.929928596,1627.94946095" moovel_centroidlatlon="13.299709745384567,52.505714703515274"></polygon></g><g transform="translate(-443.4983152 -1225.6561097) rotate(0)"><polygon id="43545429" class="tile" points="475.413705474,1452.63155997 475.443570342,1406.24553629 457.397595465,1405.62547111 445.998296154,1412.30988316 446.174814339,1452.39850622 475.413705474,1452.63155997 " moovel_rot="71.1" moovel_centroid="461.040637083,1429.74340928" moovel_centroidlatlon="13.50057179140876,52.54603515291272"></polygon></g><g transform="translate(-173.78470650000003 -1030.0541951999999) rotate(0)"><polygon id="176569813" class="tile" points="210.780090086,1273.1448634 222.713923464,1272.70163179 228.257363523,1264.94090099 228.848780474,1201.81868742 210.722222318,1201.0 210.780090086,1273.1448634 " moovel_rot="-92.8" moovel_centroid="219.492826375,1236.3225821961687" moovel_centroidlatlon="13.372037469925397,52.46313876972861"></polygon></g><g transform="translate(-322.8807087 -1879.2612820000002) rotate(0)"><polygon id="193708367" class="tile" points="382.77760456,2134.8515109 398.068239399,2134.8669532 398.073554897,2121.77691948 398.073857853,2117.70604688 398.070248066,2110.28770824 398.072286669,2052.01011387 387.484035127,2052.00062286 387.477354881,2057.39095082 387.493739543,2074.39632252 382.725931518,2074.39494617 382.77760456,2134.8515109 " moovel_rot="-94.0" moovel_centroid="390.893931792,2096.17162139" moovel_centroidlatlon="13.338238425146654,52.45656606970971"></polygon></g><g transform="translate(56.9967523 -1199.1066124) rotate(0)"><polygon id="42479193" class="tile" points="37.7479817742,1799.31380154 37.7427481469,1778.62287751 32.3559488917,1778.62363066 32.3399927812,1758.76176228 15.8001017125,1758.77180954 15.8043972021,1763.54343998 7.97086311299,1763.54525221 7.99843089972,1779.57566003 0.0207596126944,1779.58505697 0.0,1799.33181776 37.7479817742,1799.31380154 " moovel_rot="-68.4" moovel_centroid="19.69425411995268,1781.8454757" moovel_centroidlatlon="13.577254864771866,52.4626062123734"></polygon></g><g transform="translate(-113.39825219999999 -527.1271165) rotate(0)"><polygon id="213272371" class="tile" points="209.722222318,1201.07195746 209.704001309,1242.96511467 180.120754933,1242.89605572 180.132957587,1201.0 209.722222318,1201.07195746 " moovel_rot="26.6" moovel_centroid="194.91981456,1221.9825712616012" moovel_centroidlatlon="13.354826217930448,52.415601055056214"></polygon></g><g transform="translate(80.1913302 -2206.6890042) rotate(0)"><polygon id="211484665" class="tile" points="0.555201747268,2439.08406523 21.4170374801,2438.866822 21.4677220663,2381.79347025 0.0,2382.23113839 0.555201747268,2439.08406523 " moovel_rot="-84.2" moovel_centroid="10.865921860213405,2410.35767245" moovel_centroidlatlon="13.509314287646136,52.53237344678386"></polygon></g><g transform="translate(-12.785871700000015 -1270.282838) rotate(0)"><polygon id="185994630" class="tile" points="128.674608668,1405.62547111 116.102592202,1440.98046144 124.665678606,1444.00696552 119.360154262,1458.93636242 131.724095162,1463.30992602 129.002313209,1470.94543033 142.627720873,1475.76143971 147.114238975,1463.12423096 131.030196617,1457.44687416 147.13317306,1412.14361696 128.674608668,1405.62547111 " moovel_rot="-8.5" moovel_centroid="132.042249898,1438.05766509" moovel_centroidlatlon="13.31811179406347,52.51638878238158"></polygon></g><g transform="translate(-182.98737020000002 -1019.1981106000001) rotate(0)"><polygon id="217186480" class="tile" points="346.383204779,1232.60705805 346.376262226,1207.48080118 380.401398093,1201.0 381.529624887,1224.39849816 380.100789286,1245.43656138 346.383204779,1232.60705805 " moovel_rot="-46.3" moovel_centroid="365.258265745,1221.802670851687" moovel_centroidlatlon="13.529436789421245,52.48863680416066"></polygon></g><g transform="translate(-36.94768640000001 -1047.3928101000001) rotate(0)"><polygon id="126300575" class="tile" points="245.515483486,1201.01409342 251.906320846,1201.0 251.922717826,1329.88743167 245.5319383,1329.90155035 245.515483486,1201.01409342 " moovel_rot="-66.4" moovel_centroid="248.719114997,1265.4506716666588" moovel_centroidlatlon="13.233871849999998,52.54740004999999"></polygon></g><g transform="translate(12.12181559999999 -1393.3295115) rotate(0)"><polygon id="98041059" class="tile" points="208.156455605,1571.26539885 229.911522268,1587.86638205 237.825270545,1587.82448388 237.857289323,1544.92644173 207.836602576,1546.90353364 208.156455605,1571.26539885 " moovel_rot="-45.7" moovel_centroid="224.359262398,1564.2201935" moovel_centroidlatlon="13.200763417974539,52.571047501782886"></polygon></g><g transform="translate(-58.01084900000001 -1623.4777875000002) rotate(0)"><polygon id="230101627" class="tile" points="60.5154588227,1791.3608075 60.5108496974,1758.77266892 91.5943170286,1758.76176228 91.6099122272,1791.34327912 60.5154588227,1791.3608075 " moovel_rot="-89.7" moovel_centroid="76.0571086615,1775.06058943" moovel_centroidlatlon="13.537322160584758,52.532045279754634"></polygon></g><g transform="translate(-230.94827120000002 -1060.8041601) rotate(0)"><polygon id="221132974" class="tile" points="298.403832462,2109.81532686 298.38754109,2052.00062286 314.597404634,2052.13617532 313.986210791,2110.33368792 298.403832462,2109.81532686 " moovel_rot="-33.1" moovel_centroid="306.353758478,2080.88144446" moovel_centroidlatlon="13.436064279008624,52.51114185395066"></polygon></g><g transform="translate(-183.17698119999997 -1622.3760435) rotate(0)"><polygon id="84405181" class="tile" points="346.440580467,1758.76176228 369.226953767,1759.21598195 368.8666872,1801.37181139 346.4557145,1801.11210707 346.440580467,1758.76176228 " moovel_rot="-0.4" moovel_centroid="357.739318626,1780.05667189" moovel_centroidlatlon="13.481656533894983,52.52831753690717"></polygon></g><g transform="translate(-498.889893 -1728.8651224) rotate(0)"><polygon id="104786367" class="tile" points="501.424638972,2229.28495588 516.789024002,2229.56010403 517.657424564,2264.01483883 512.355361117,2264.20481913 512.79110962,2284.52413428 512.82243537,2286.14095967 511.529696288,2291.3616705 501.389896295,2291.27949737 501.424638972,2229.28495588 " moovel_rot="-0.4" moovel_centroid="508.474667077,2257.86596578" moovel_centroidlatlon="13.473606662471479,52.42536546317424"></polygon></g><g transform="translate(-225.9562061 -1348.5183264) rotate(0)"><polygon id="285188927" class="tile" points="445.922948117,1554.85157804 445.920276478,1544.92644173 475.636126901,1549.17081784 474.062071289,1554.45493468 469.956366265,1567.17487872 474.264976495,1568.57806181 473.399783606,1571.47137605 472.567702779,1574.28119597 471.722853482,1577.0922744 470.890774513,1579.90209293 470.05869647,1582.71191075 469.217869592,1585.5283213 468.385793406,1588.33813773 467.544968393,1591.15454687 465.169950148,1601.27402481 462.394307602,1600.94028589 461.201695563,1598.81149562 458.642928026,1597.9463477 458.689653809,1588.15961551 459.105845673,1588.03834665 459.079364131,1584.25303399 458.816891304,1584.14138208 457.305618779,1584.1929882 456.15377055,1554.81117882 445.922948117,1554.85157804 " moovel_rot="53.0" moovel_centroid="462.725140852,1567.68327868" moovel_centroidlatlon="13.201449223587069,52.54590429473581"></polygon></g><g transform="translate(30.037670399999996 -1146.5725331) rotate(0)"><polygon id="260653428" class="tile" points="142.629077828,2044.77487016 136.048907502,2044.77972475 135.98897671,1949.28137975 143.443397812,1949.6278126 142.629077828,2044.77487016 " moovel_rot="81.2" moovel_centroid="139.529487572,1996.12477011" moovel_centroidlatlon="13.438322289570946,52.516747302074926"></polygon></g><g transform="translate(-285.25828409999997 -1409.5848409) rotate(0)"><polygon id="258357800" class="tile" points="323.939758402,1544.92644173 323.855145392,1572.8617477 336.656175989,1576.23503819 346.316295046,1575.97660117 354.020725487,1574.96003084 353.985061656,1546.64183448 333.012867917,1545.36988116 323.939758402,1544.92644173 " moovel_rot="8.2" moovel_centroid="338.976564953,1560.53530284" moovel_centroidlatlon="13.482922559813767,52.57753185019957"></polygon></g><g transform="translate(38.577272400000005 -1935.5113393) rotate(0)"><polygon id="242100058" class="tile" points="54.8494319384,2105.7880744 56.8409346106,2053.69914658 47.7166565606,2052.78383616 39.9279188514,2052.00062286 40.012561033,2105.10862566 54.8494319384,2105.7880744 " moovel_rot="13.6" moovel_centroid="47.8964874968,2078.57019939" moovel_centroidlatlon="13.493869798562717,52.40390727841422"></polygon></g><g transform="translate(-308.59436070000004 -798.9527576) rotate(0)"><polygon id="286598068" class="tile" points="311.094350031,1998.95281305 328.044793103,1998.93626971 328.069022682,1949.28137975 311.118529119,1949.29790601 311.094350031,1998.95281305 " moovel_rot="-71.3" moovel_centroid="319.581673252,1974.1170798" moovel_centroidlatlon="13.18806945,52.5159832"></polygon></g><g transform="translate(101.11798700000001 -2126.6260611) rotate(0)"><polygon id="361889871" class="tile" points="97.4161562959,2275.09386594 118.462784269,2275.27252842 118.642372992,2264.82987575 114.745463188,2264.7792659 115.460274753,2229.61426271 97.781088816,2229.28495588 97.7485452248,2233.90172629 97.71936535,2238.13091072 97.4192049796,2252.61536769 97.5231042668,2260.86733807 97.4161562959,2275.09386594 " moovel_rot="-59.0" moovel_centroid="106.775803542,2253.05380815" moovel_centroidlatlon="13.294123322834997,52.44155655489424"></polygon></g><g transform="translate(-285.3178334 -33.11816180000005) rotate(0)"><polygon id="44823742" class="tile" points="453.419199354,1201.03865937 480.13188391,1201.0 480.119597158,1233.08208153 453.413063825,1233.11813744 453.419199354,1201.03865937 " moovel_rot="-23.5" moovel_centroid="466.771116273,1217.0591037243826" moovel_centroidlatlon="13.493981881192552,52.5455125044623"></polygon></g><g transform="translate(69.9528569 -1302.8576638) rotate(0)"><polygon id="38036485" class="tile" points="154.763779968,1405.70473835 166.765772661,1405.65070744 171.188807908,1405.63030753 173.77691788,1405.62547111 173.888528284,1412.54943716 173.529993647,1412.5676043 173.502500096,1449.87845608 154.817937975,1449.9207092 154.807417525,1439.58955381 154.763779968,1405.70473835 " moovel_rot="-80.0" moovel_centroid="164.180664662,1427.71762046" moovel_centroidlatlon="13.435270314222512,52.46407023954098"></polygon></g><g transform="translate(-280.3045833 -1272.2598458) rotate(0)"><polygon id="116676562" class="tile" points="428.27994482,1405.62547111 419.587414646,1405.64526883 419.550788677,1485.30881395 428.242233077,1485.30172252 428.27994482,1405.62547111 " moovel_rot="-26.7" moovel_centroid="423.915211196,1445.46949411" moovel_centroidlatlon="13.357936481972567,52.407642731107394"></polygon></g><g transform="translate(-244.9652122 -890.1387892) rotate(0)"><polygon id="379871321" class="tile" points="467.678449398,2088.92215352 467.630022472,2052.08481441 445.762449051,2052.00062286 444.76764446,2085.59232262 449.280425653,2090.14437459 467.678449398,2088.92215352 " moovel_rot="62.4" moovel_centroid="456.479908942,2070.79069149" moovel_centroidlatlon="13.36465215085699,52.428693852618295"></polygon></g><g transform="translate(-97.59262209999999 -712.2303486000001) rotate(0)"><polygon id="322936853" class="tile" points="193.100858548,1544.92644173 206.811557531,1544.95538624 206.836602576,1601.29586683 193.130912995,1601.27134088 193.100858548,1544.92644173 " moovel_rot="42.1" moovel_centroid="199.969892685,1573.1105437" moovel_centroidlatlon="13.530013306952199,52.44344581095787"></polygon></g><g transform="translate(-397.0888062 -1850.3675719) rotate(0)"><polygon id="111873899" class="tile" points="564.494931677,1981.83584583 564.458921494,1949.28137975 591.016228984,1951.25727215 590.519617735,1981.62427333 564.494931677,1981.83584583 " moovel_rot="-77.7" moovel_centroid="577.471772601,1965.93992823" moovel_centroidlatlon="13.364439118699877,52.56033090923128"></polygon></g><g transform="translate(-231.70595930000002 -1956.0601502999998) rotate(0)"><polygon id="26136650" class="tile" points="480.547153158,2052.02247131 491.312917838,2052.00491222 495.988159134,2052.00062286 495.987664941,2102.64194937 480.546681366,2102.66385137 480.549447628,2054.13950323 480.547153158,2052.02247131 " moovel_rot="-22.7" moovel_centroid="488.268015122,2077.33221486" moovel_centroidlatlon="13.496871608322552,52.63006704791935"></polygon></g><g transform="translate(-1.0632913999999971 -1105.0217557) rotate(0)"><polygon id="126512823" class="tile" points="118.091443568,1201.0 118.135476822,1235.52118469 134.72510602,1239.43550593 147.770722362,1207.49583529 118.091443568,1201.0 " moovel_rot="-78.7" moovel_centroid="130.00581112,1219.3089956970657" moovel_centroidlatlon="13.443213146144396,52.42988314417467"></polygon></g><g transform="translate(-115.28735110000001 -1861.9687731) rotate(0)"><polygon id="228209743" class="tile" points="188.794698726,1952.81119157 188.791352003,1992.70119079 165.548954997,1992.96924368 165.496740829,1982.39270535 172.045166624,1982.38958199 172.669790659,1949.43373414 179.285280034,1949.36520922 181.980836836,1949.28137975 184.182931868,1952.36719582 188.794698726,1952.81119157 " moovel_rot="-88.8" moovel_centroid="179.351190622,1973.18853403" moovel_centroidlatlon="13.310980917977487,52.51442004085281"></polygon></g><g transform="translate(-411.7295818 -1868.848505) rotate(0)"><polygon id="242122580" class="tile" points="456.914387209,1950.1260993 456.945300527,1999.34172031 446.168672263,1999.04447775 443.206645625,1999.02301655 445.810564991,1998.63815589 445.491878296,1995.78080166 441.394276881,1996.22514304 440.784753128,1992.96890241 440.990114908,1956.09550162 441.421010632,1953.58356241 445.105055677,1953.99948778 445.68037043,1949.28137975 456.914387209,1950.1260993 " moovel_rot="15.6" moovel_centroid="449.162230611,1974.58730143" moovel_centroidlatlon="13.360063797698281,52.433923227218415"></polygon></g><g transform="translate(-289.98825889999995 -1363.1792506000002) rotate(0)"><polygon id="210838405" class="tile" points="545.516908765,1626.33195688 550.405836739,1630.23423054 552.682761337,1630.18525192 552.783948407,1544.92644173 544.94441528,1545.44504706 545.516908765,1626.33195688 " moovel_rot="-95.1" moovel_centroid="549.018051334,1586.40765845" moovel_centroidlatlon="13.472819517444803,52.4196418904363"></polygon></g><g transform="translate(-80.79127430000005 -416.122918) rotate(0)"><polygon id="326228580" class="tile" points="345.331354966,1288.02959026 338.294249114,1288.02028319 338.350736892,1201.0 345.376262226,1201.00386582 345.331354966,1288.02959026 " moovel_rot="83.7" moovel_centroid="341.838180403,1244.5253819607879" moovel_centroidlatlon="13.674757953053644,52.432273013257316"></polygon></g><g transform="translate(-99.95863630000001 -1322.9600558) rotate(0)"><polygon id="326623450" class="tile" points="206.405381777,1407.06281057 178.461600619,1405.62547111 178.467764074,1426.27284816 178.4770525,1434.45064935 205.674039205,1435.52354656 206.231143211,1413.82502519 206.405381777,1407.06281057 " moovel_rot="-36.2" moovel_centroid="192.227490997,1420.59955319" moovel_centroidlatlon="13.478369707630959,52.606679156384594"></polygon></g><g transform="translate(133.1179458 -1997.6184859999998) rotate(0)"><polygon id="275251367" class="tile" points="16.2066885997,2096.25484491 16.2652962322,2054.12293461 30.4087975254,2052.00062286 38.9279188514,2091.35876822 26.2391292382,2091.86268606 26.3358654949,2096.05522524 21.9519443713,2096.14289278 16.2066885997,2096.25484491 " moovel_rot="-19.8" moovel_centroid="25.450872329,2074.99027821" moovel_centroidlatlon="13.167936965378752,52.55107441797266"></polygon></g><g transform="translate(-331.1013314 -2141.4890817) rotate(0)"><polygon id="389024518" class="tile" points="352.916456617,2271.77916925 352.959090741,2229.28495588 333.59678836,2231.31346788 335.996784153,2271.12838527 352.916456617,2271.77916925 " moovel_rot="-80.5" moovel_centroid="343.948563212,2250.39712281" moovel_centroidlatlon="13.572107779464119,52.430967840385236"></polygon></g><g transform="translate(-112.74796610000001 -1152.4621748999998) rotate(0)"><polygon id="390545091" class="tile" points="337.294249114,1201.03197741 333.387815419,1201.0242671 329.846854049,1201.01345836 326.725458156,1201.00989788 322.793473894,1201.0 322.773031494,1250.32772163 329.547385104,1250.34595797 337.286531677,1250.36081791 337.294249114,1201.03197741 " moovel_rot="63.5" moovel_centroid="330.036847319,1225.6844569099176" moovel_centroidlatlon="13.421137333341711,52.516106707510936"></polygon></g><g transform="translate(39.2493795 -1910.6548865999998) rotate(0)"><polygon id="171879619" class="tile" points="164.44744054,2006.75408833 158.550242493,2008.54140036 145.787866979,1964.25475993 144.443397812,1962.32802452 147.399736039,1960.63217382 148.162810533,1957.52035821 147.691698569,1953.46375586 161.904258674,1949.28137975 164.496740829,1957.51323974 158.360929274,1959.61399758 161.223086599,1967.97367504 158.527249872,1968.78079027 164.40819405,1987.27730108 164.44744054,2006.75408833 " moovel_rot="-18.9" moovel_centroid="156.370578048,1976.25942328" moovel_centroidlatlon="13.444776282355592,52.57355603156362"></polygon></g><g transform="translate(-291.44605980000006 -1335.7407007000002) rotate(0)"><polygon id="338392395" class="tile" points="560.617468034,1628.85456193 565.869199003,1628.85519431 565.867885151,1616.95737567 560.451969119,1616.96027118 560.450111453,1614.20791048 565.865899322,1614.21169291 565.857751497,1602.09997024 560.409023811,1602.10223573 560.409345932,1599.23635008 565.85807368,1599.23408459 565.865607184,1586.87548819 560.526250248,1586.87985371 560.534432122,1584.17444858 565.830040726,1584.16924305 565.830830334,1571.0222299 560.382101941,1571.02449538 560.385629627,1567.99166126 565.84529518,1567.98960579 565.845315436,1554.88266027 560.352838268,1554.88408573 560.357045222,1552.38569669 565.718149055,1552.38842914 565.719191853,1544.92644173 559.209178335,1544.9283707 559.22794258,1628.85460328 560.617468034,1628.85456193 " moovel_rot="-88.9" moovel_centroid="562.43476338,1587.23571683" moovel_centroidlatlon="13.373615921538988,52.47887339407461"></polygon></g><g transform="translate(-322.5282576 -1159.5678314) rotate(0)"><polygon id="293215664" class="tile" points="434.016398097,1201.0 445.605162491,1201.53647336 445.194161548,1240.48573391 452.413063825,1240.96596066 452.22458441,1251.23445519 433.967726211,1250.28050302 434.016398097,1201.0 " moovel_rot="6.5" moovel_centroid="440.729713207,1228.1035411646205" moovel_centroidlatlon="13.353384702173274,52.60124574205637"></polygon></g><g transform="translate(-52.345623700000004 -1709.2676789) rotate(0)"><polygon id="68294303" class="tile" points="293.750795768,1759.88296971 289.290422952,1759.29048408 283.878326251,1758.76176228 281.88242745,1798.4331326 311.789072024,1800.21974382 311.783184987,1789.48004026 293.759643195,1788.52539507 293.750795768,1759.88296971 " moovel_rot="-53.2" moovel_centroid="292.770218128,1784.17990142" moovel_centroidlatlon="13.381802322034973,52.593140356802735"></polygon></g><g transform="translate(-241.2336886 -1903.9695505) rotate(0)"><polygon id="236525959" class="tile" points="261.288136003,1949.28534234 261.285069129,1986.94092991 243.733682387,1986.94302626 243.748029356,1949.28137975 261.288136003,1949.28534234 " moovel_rot="-86.8" moovel_centroid="252.513493482,1968.11468685" moovel_centroidlatlon="13.584962194627009,52.450135926122115"></polygon></g><g transform="translate(-212.0552581 -1372.8662608) rotate(0)"><polygon id="381259517" class="tile" points="486.63215829,1405.83972173 476.443570342,1405.62547111 476.503947643,1463.80288524 480.671748832,1464.45824681 481.177637594,1459.54370973 486.476928562,1461.49578812 486.63215829,1405.83972173 " moovel_rot="13.1" moovel_centroid="481.442117612,1433.84705488" moovel_centroidlatlon="13.341566657552034,52.48427101241741"></polygon></g><g transform="translate(-490.83509110000006 -1915.7357521) rotate(0)"><polygon id="334433986" class="tile" points="547.764369854,1952.41955881 533.306915981,1949.28137975 530.944092254,1963.64726637 531.473714122,1980.63398041 532.632540666,1989.50354695 537.444974486,1988.6636428 538.25455672,1993.30233984 540.313450847,1993.37693362 543.821464143,1993.40879965 547.775044635,1992.61708744 546.932510779,1986.13316585 546.636279446,1957.10488826 547.764369854,1952.41955881 " moovel_rot="80.1" moovel_centroid="539.392431609,1971.33797248" moovel_centroidlatlon="13.290570377066407,52.53565101006487"></polygon></g><g transform="translate(-367.45258509999996 -1370.8301417) rotate(0)"><polygon id="230631720" class="tile" points="429.314297139,1405.82060813 444.304276142,1405.62547111 444.998296154,1444.28274381 443.015813542,1444.00919855 442.915999408,1446.79787952 429.27994482,1446.68540862 429.314297139,1405.82060813 " moovel_rot="-5.1" moovel_centroid="436.936189392,1426.24118282" moovel_centroidlatlon="13.299445584480901,52.497563152564005"></polygon></g><g transform="translate(-351.75082499999996 -1745.0238877000002) rotate(0)"><polygon id="91711652" class="tile" points="422.350366632,2052.01148428 422.353227104,2056.07800213 418.557807539,2056.08415669 418.562781723,2062.02932931 422.344963313,2062.02138555 422.358393271,2075.48117039 417.904047745,2075.4755771 417.905852507,2080.74629565 421.694652773,2080.7392488 421.699971671,2087.6788656 438.078892533,2087.67249445 438.042420502,2052.00062286 422.350366632,2052.01148428 " moovel_rot="7.7" moovel_centroid="429.399531451,2069.8724291" moovel_centroidlatlon="13.322480117524677,52.520794877065136"></polygon></g><g transform="translate(-364.0260747 -1725.6614677999999) rotate(0)"><polygon id="9872874" class="tile" points="492.433360026,1772.62239889 498.16602264,1772.71013135 498.01916637,1767.08485868 497.805542597,1758.87168232 508.343944087,1758.76176228 508.343612948,1758.98143145 508.528115049,1773.68696387 504.543118236,1773.84683921 504.597531396,1776.22679567 504.613773753,1776.95067141 505.335877132,1810.05264261 501.635144039,1810.04187714 498.930290549,1810.12569853 498.875554337,1801.77136796 492.477119685,1801.96480459 492.433360026,1772.62239889 " moovel_rot="-3.4" moovel_centroid="500.197549372,1783.42217936" moovel_centroidlatlon="13.308667350702772,52.57453616245526"></polygon></g><g transform="translate(-100.02085999999997 -2029.3451417999997) rotate(0)"><polygon id="154606959" class="tile" points="275.656208757,2078.89743962 279.523604683,2078.91488057 279.523978569,2063.59554227 279.092911029,2052.31077368 275.273679768,2052.31245454 255.336224738,2052.00062286 255.155411351,2078.6764107 275.656208757,2078.89743962 " moovel_rot="61.0" moovel_centroid="267.332107959,2065.54682286" moovel_centroidlatlon="13.429339556458336,52.54106282476935"></polygon></g><g transform="translate(-237.527028 -2198.9614349) rotate(0)"><polygon id="310004788" class="tile" points="332.59678836,2229.28903944 332.559151415,2276.83571573 320.069419244,2276.83126628 320.100387045,2229.28495588 332.59678836,2229.28903944 " moovel_rot="-3.2" moovel_centroid="326.331446103,2253.05812928" moovel_centroidlatlon="13.339208876913151,52.574781119256166"></polygon></g><g transform="translate(-38.122372700000014 -866.2402907) rotate(0)"><polygon id="255562785" class="tile" points="139.444280393,1544.95253315 154.773207312,1544.92644173 154.753200958,1584.99876162 139.432751778,1585.03189139 139.444280393,1544.95253315 " moovel_rot="-50.3" moovel_centroid="147.100636031,1564.97555928" moovel_centroidlatlon="13.352961769031946,52.54508288727604"></polygon></g><g transform="translate(11.260549800000007 -2036.9018366999999) rotate(0)"><polygon id="292506338" class="tile" points="242.477761584,2052.00062286 230.438769849,2054.43398965 230.072448242,2052.33506149 226.723088257,2052.73655487 223.876684584,2053.08416897 224.796258282,2065.50081911 220.399254905,2065.51562459 220.392927625,2081.17882954 225.769406706,2081.98975731 227.617064016,2081.59948818 231.698058688,2080.7312976 233.717714171,2080.43305233 248.198808637,2076.73951438 247.745468167,2075.03546072 242.477761584,2052.00062286 " moovel_rot="80.1" moovel_centroid="233.445124119,2067.63075138" moovel_centroidlatlon="13.433327277474795,52.611408312807704"></polygon></g><g transform="translate(-40.90446749999995 -1707.2301863) rotate(0)"><polygon id="385516864" class="tile" points="297.313451064,2143.45494319 293.029643571,2143.45001785 293.103731518,2052.00062286 297.38754109,2052.00556103 297.313451064,2143.45494319 " moovel_rot="-9.2" moovel_centroid="295.208591764,2097.72778252" moovel_centroidlatlon="13.492441849999999,52.51721395"></polygon></g><g transform="translate(-72.8501976 -1334.8304959) rotate(0)"><polygon id="219536381" class="tile" points="207.540446052,1994.63549548 220.191098334,1994.10118935 220.192354699,1949.28137975 207.072383363,1949.58501638 207.540446052,1994.63549548 " moovel_rot="-19.2" moovel_centroid="213.742488334,1971.76494384" moovel_centroidlatlon="13.584268700705262,52.504522291652165"></polygon></g><g transform="translate(-312.3943666 -1522.2616377999998) rotate(0)"><polygon id="360890227" class="tile" points="468.706817512,2052.19801668 468.678449398,2105.12796826 478.115526792,2103.94014326 479.546681366,2103.75765831 479.218444199,2057.5619384 478.965280557,2052.00062286 468.706817512,2052.19801668 " moovel_rot="-7.7" moovel_centroid="474.003470868,2078.46162671" moovel_centroidlatlon="13.409172100416571,52.384007959152626"></polygon></g><g transform="translate(-131.9356679 -2040.1767603) rotate(0)"><polygon id="106766219" class="tile" points="158.908627735,2107.26627685 167.042823114,2116.20090087 167.121595778,2052.00062286 158.418306132,2052.1866585 158.908627735,2107.26627685 " moovel_rot="6.0" moovel_centroid="162.982578955,2081.61609319" moovel_centroidlatlon="13.30750131841462,52.51243490762423"></polygon></g><g transform="translate(-97.1881449 -1085.9137407) rotate(0)"><polygon id="53502430" class="tile" points="99.8526081908,1445.01872566 115.089654887,1444.90723351 115.102592202,1405.62547111 99.6881152801,1409.56807582 99.8526081908,1445.01872566 " moovel_rot="-53.7" moovel_centroid="107.563273687,1426.22504968" moovel_centroidlatlon="13.381635814008085,52.539327939586045"></polygon></g><g transform="translate(-409.52784539999993 -1750.1087198999999) rotate(0)"><polygon id="272353552" class="tile" points="528.461235398,1758.76176228 528.821107538,1765.25943159 533.593531414,1763.59482365 529.457427438,1786.13264601 509.620342673,1787.1045384 509.558240784,1771.14867109 509.528115049,1760.01914597 528.461235398,1758.76176228 " moovel_rot="78.9" moovel_centroid="520.297926524,1772.97405377" moovel_centroidlatlon="13.451403174576386,52.51760634525271"></polygon></g><g transform="translate(-223.78595860000001 -1747.5676032) rotate(0)"><polygon id="363763438" class="tile" points="431.375716515,1790.18600267 431.812518056,1758.76176228 449.623046245,1759.34545203 449.653785774,1791.20705665 431.375716515,1790.18600267 " moovel_rot="-84.9" moovel_centroid="440.635615972,1774.94466319" moovel_centroidlatlon="13.345089512888467,52.598487367898784"></polygon></g><g transform="translate(-41.089954500000005 -1374.4664377) rotate(0)"><polygon id="8084681" class="tile" points="92.6211782759,1758.88192735 103.483035185,1758.76176228 103.502972265,1765.90114284 109.538780657,1765.98320702 109.152100347,1795.50455612 104.175060822,1795.4419119 97.5365505521,1795.35488329 97.6202780272,1789.19754511 92.6099122272,1789.13705544 92.657102289,1785.51974461 92.6211782759,1758.88192735 " moovel_rot="-3.7" moovel_centroid="100.915822662,1777.34066443" moovel_centroidlatlon="13.308318893615898,52.573041990915414"></polygon></g><g transform="translate(-160.7544891 -2048.3833976) rotate(0)"><polygon id="220140374" class="tile" points="168.121595778,2088.69059538 176.101921012,2088.69841825 182.212917702,2088.70019463 182.214199521,2087.37171396 182.244440349,2052.01024569 168.153077912,2052.00062286 168.121595778,2088.69059538 " moovel_rot="-59.8" moovel_centroid="175.183051893,2070.35103077" moovel_centroidlatlon="13.494070492257057,52.46970314677783"></polygon></g><g transform="translate(-491.46562240000003 -1195.9133338) rotate(0)"><polygon id="125542256" class="tile" points="531.653979336,1201.02775232 553.693488684,1201.0 553.684949175,1224.49160586 531.645455425,1224.51939422 531.653979336,1201.02775232 " moovel_rot="-23.4" moovel_centroid="542.669465336,1212.7596867148704" moovel_centroidlatlon="13.1753266,52.46903255"></polygon></g><g transform="translate(-392.0314125 -908.9638826) rotate(0)"><polygon id="399658714" class="tile" points="515.897587875,2090.428641 519.757088063,2083.30723045 521.318782222,2077.72846985 519.529905958,2077.71632252 520.286862916,2065.54662233 518.413669388,2056.15487745 514.309912691,2057.22861198 512.067991925,2052.00062286 505.665520654,2055.26016304 503.65013034,2057.22251048 505.248614427,2064.60353662 504.782496849,2073.88826239 506.919158202,2075.47866948 503.618227927,2083.13067547 506.290594049,2086.39860494 511.696720315,2088.30053322 515.897587875,2090.428641 " moovel_rot="-40" moovel_centroid="512.290676293,2071.3649446" moovel_centroidlatlon="13.48250639620187,52.464850443227306"></polygon></g><g transform="translate(-333.90891580000005 -2224.3062616) rotate(0)"><polygon id="55590534" class="tile" points="462.939699794,2229.32267791 462.923676536,2252.43245988 482.929379389,2252.39872983 482.950757794,2229.28495588 462.939699794,2229.32267791 " moovel_rot="-37.1" moovel_centroid="472.936166101,2240.85919019" moovel_centroidlatlon="13.329597183100596,52.50682775213765"></polygon></g><g transform="translate(-214.5666317 -969.2465525000001) rotate(0)"><polygon id="113558616" class="tile" points="444.920276478,1544.92644173 425.364529239,1544.96366769 425.35073932,1567.24626623 444.906451879,1567.20901298 444.920276478,1544.92644173 " moovel_rot="-51.8" moovel_centroid="435.13549723,1556.08634387" moovel_centroidlatlon="13.412485700000001,52.5026391"></polygon></g><g transform="translate(-5.953612100000015 -1945.5418076) rotate(0)"><polygon id="284757865" class="tile" points="189.794698726,1949.91208453 190.210697544,1979.89664559 196.654637186,1982.03255418 201.663835567,1966.48542198 206.070821815,1966.14015431 206.072383363,1949.28137975 189.794698726,1949.91208453 " moovel_rot="-40.1" moovel_centroid="196.989672949,1962.96839031" moovel_centroidlatlon="13.205519887280282,52.54435123755494"></polygon></g><g transform="translate(-551.2839355 -875.4974350999998) rotate(0)"><polygon id="165951050" class="tile" points="558.195244047,1608.42773317 553.783948407,1608.42652391 553.796436436,1544.92644173 558.209178335,1544.93417171 558.195244047,1608.42773317 " moovel_rot="77.6" moovel_centroid="555.996164419,1576.67698144" moovel_centroidlatlon="13.31708184970262,52.5709168030395"></polygon></g><g transform="translate(244.04064800000003 -2235.5448776999997) rotate(0)"><polygon id="201855206" class="tile" points="24.762004734,2428.42046269 23.8378058426,2426.33509653 23.5180057326,2424.05462217 23.4677220663,2385.8679176 27.2947853176,2381.79347025 31.500100949,2385.85786203 31.5065549301,2424.0441841 31.1793515136,2426.37912696 30.503613976,2428.47056895 29.370643802,2430.21737013 28.4863687245,2431.09133711 27.4976499619,2431.37660334 26.5156338843,2430.89379433 25.5180562306,2429.68279232 24.762004734,2428.42046269 " moovel_rot="-89.5" moovel_centroid="27.5024187317,2406.56739137" moovel_centroidlatlon="13.360830828045902,52.55302593223512"></polygon></g><g transform="translate(-181.2320062 -1068.9406920999998) rotate(0)"><polygon id="359130691" class="tile" points="420.102683662,2263.3159733 408.939454128,2263.32467959 408.92757969,2229.2936613 420.090817454,2229.28495588 420.102683662,2263.3159733 " moovel_rot="-84.0" moovel_centroid="414.515133709,2246.30481543" moovel_centroidlatlon="13.321385950000002,52.51397930000001"></polygon></g><g transform="translate(-89.3746419 -363.7259420999999) rotate(0)"><polygon id="28512499" class="tile" points="179.114224613,1201.0 179.120754933,1226.75903824 165.421372978,1226.67964992 165.524508366,1201.15597272 179.114224613,1201.0 " moovel_rot="77.2" moovel_centroid="172.305633342,1213.9158794139234" moovel_centroidlatlon="13.312511685916798,52.572193532876845"></polygon></g><g transform="translate(-416.722953 -2225.5166754999996) rotate(0)"><polygon id="281012946" class="tile" points="483.950757794,2229.28594903 483.953783522,2242.6442278 483.951843046,2250.84111902 500.389896295,2250.84012522 500.388811048,2229.28495588 483.950757794,2229.28594903 " moovel_rot="-0.5" moovel_centroid="492.17091528,2240.06297568" moovel_centroidlatlon="13.308622558814955,52.554215100515364"></polygon></g><g transform="translate(-31.6610479 -718.3910559000001) rotate(0)"><polygon id="56897527" class="tile" points="263.40712477,1201.05016439 253.50158462,1201.0 252.922717826,1233.18882342 263.438091816,1233.35407252 263.40712477,1201.05016439 " moovel_rot="70.3" moovel_centroid="258.318880883,1217.3090348407065" moovel_centroidlatlon="13.314695298802107,52.42582339189452"></polygon></g><g transform="translate(-249.61115139999998 -1185.0680786) rotate(0)"><polygon id="331869574" class="tile" points="413.199168999,1405.67891545 418.220895476,1405.62547111 418.550788677,1453.73346281 413.193867747,1453.81395156 413.199168999,1405.67891545 " moovel_rot="16.4" moovel_centroid="415.791849871,1429.97203852" moovel_centroidlatlon="13.40635512984652,52.57603200964793"></polygon></g><g transform="translate(-108.68975660000001 -1280.1318535999999) rotate(0)"><polygon id="217784122" class="tile" points="292.029643571,2052.00600391 287.171310055,2052.00062286 287.170403296,2101.80397976 292.017883332,2101.81080897 292.029643571,2052.00600391 " moovel_rot="82.4" moovel_centroid="289.597323114,2076.89607185" moovel_centroidlatlon="13.538644162360177,52.49458728632949"></polygon></g><g transform="translate(-148.28926890000002 -1121.7350606) rotate(0)"><polygon id="9873040" class="tile" points="246.753105351,1550.1104033 252.301005422,1550.16125858 252.2873645,1544.96906364 256.767123669,1544.93504431 258.104559879,1544.92848369 263.007455209,1544.92644173 262.817316162,1557.10114883 258.12295067,1557.12483398 258.111543719,1562.47207351 262.997543134,1562.40507354 262.988358264,1566.92878617 246.912891107,1567.14068196 246.753105351,1550.1104033 " moovel_rot="-3.1" moovel_centroid="254.890375299,1556.45100244" moovel_centroidlatlon="13.308249418514848,52.572717132151396"></polygon></g><g transform="translate(-367.90929389999997 -1739.4202776) rotate(0)"><polygon id="380426999" class="tile" points="488.71366231,1961.58607866 488.682077975,1954.43597229 488.106743659,1954.41109241 488.066597484,1949.28137975 474.546085491,1949.30026205 474.516269058,1972.69685285 488.182312203,1972.62413682 488.152064918,1967.41443109 488.757444898,1967.41062153 488.738713484,1964.82016066 488.71366231,1961.58607866 " moovel_rot="-28.4" moovel_centroid="481.493091826,1960.99388211" moovel_centroidlatlon="13.365409721894473,52.50436613533942"></polygon></g><g transform="translate(34.9250668 -751.402698) rotate(0)"><polygon id="387222696" class="tile" points="53.5559228037,1758.76176228 59.2495847801,1758.83482872 59.5108496974,1802.57877017 53.5009685269,1802.60249167 53.5559228037,1758.76176228 " moovel_rot="12.7" moovel_centroid="56.4537036837,1780.89180765" moovel_centroidlatlon="13.426794665397646,52.442556012374936"></polygon></g><g transform="translate(-112.68565330000001 -979.9378476) rotate(0)"><polygon id="245467073" class="tile" points="336.435374741,1777.83467711 329.285028161,1777.93803142 329.271612557,1758.76176228 343.245223929,1758.76439647 343.255069928,1761.7433099 345.434320545,1761.74145427 345.440580467,1775.18690633 340.238839326,1775.18982526 340.236149383,1777.94172891 336.435374741,1777.83467711 " moovel_rot="-90.4" moovel_centroid="336.932353705,1768.10684422" moovel_centroidlatlon="13.504869988858017,52.52565234161376"></polygon></g><g transform="translate(82.9276016 -543.0397548) rotate(0)"><polygon id="185766661" class="tile" points="128.226558566,1592.38852064 124.644890858,1592.90162177 123.32056231,1580.56055133 124.282750239,1544.92644173 128.190710178,1545.19827801 127.77994815,1579.89051168 128.226558566,1592.38852064 " moovel_rot="-5.2" moovel_centroid="125.902788974,1568.9448337" moovel_centroidlatlon="13.505790063630087,52.575012380627776"></polygon></g><g transform="translate(9.575905500000005 -1052.2327492999998) rotate(0)"><polygon id="254871723" class="tile" points="234.877938604,1423.61769146 219.106197257,1423.60595334 219.120101392,1405.62547111 234.891819172,1405.6305301 234.877938604,1423.61769146 " moovel_rot="-90.2" moovel_centroid="226.999502233,1414.61991449" moovel_centroidlatlon="13.267815524930091,52.532354045543364"></polygon></g><g transform="translate(-124.8460849 -1092.2875602) rotate(0)"><polygon id="195656565" class="tile" points="326.386665066,1758.76176228 327.252044167,1763.78325943 328.271612557,1770.8491871 328.038112704,1776.77532383 327.331715709,1782.45310523 321.512730336,1781.41124499 319.475556902,1779.55397661 316.575931539,1777.50880763 312.789072024,1775.05239239 312.848626313,1771.28333213 312.793925878,1765.00400812 315.837036414,1762.42924258 321.591422934,1759.2288457 326.386665066,1758.76176228 " moovel_rot="-85.1" moovel_centroid="321.168105615,1770.38508137" moovel_centroidlatlon="13.31466703878921,52.48980854555207"></polygon></g><g transform="translate(-2.119199800000004 -1084.4296990999999) rotate(0)"><polygon id="390545087" class="tile" points="69.910972494,1544.92644173 67.8214185059,1544.954354 62.4066060111,1545.03921371 62.4503764447,1567.00197206 62.478173168,1577.07786964 69.9022528065,1577.15702955 69.910972494,1544.92644173 " moovel_rot="22.7" moovel_centroid="66.1768954827,1561.02109643" moovel_centroidlatlon="13.419127515302531,52.51810432813755"></polygon></g><g transform="translate(191.7478267 -2374.4179869) rotate(0)"><polygon id="312249566" class="tile" points="69.5634851668,2400.51028008 84.1430332994,2401.02642889 84.1301177455,2382.14316791 79.3175523261,2381.96526021 72.8632501293,2381.81603179 71.8222775759,2381.79347025 70.585557046,2381.81681104 69.5634851668,2400.51028008 " moovel_rot="-91.7" moovel_centroid="77.1113726687,2391.46790248" moovel_centroidlatlon="13.31143556970913,52.50530072221576"></polygon></g><g transform="translate(239.7776617 -1057.2178042) rotate(0)"><polygon id="191094665" class="tile" points="14.1927018084,2052.02697381 0.0,2052.00062286 0.00503813512623,2070.10896442 14.2066885997,2070.12907271 14.1927018084,2052.02697381 " moovel_rot="55.1" moovel_centroid="7.100698746981377,2061.06735913" moovel_centroidlatlon="13.394323858194106,52.46681581694511"></polygon></g><g transform="translate(-352.5207214 -1269.4551241) rotate(0)"><polygon id="387648862" class="tile" points="369.368293683,1544.92644173 355.020725487,1545.90914877 355.044062558,1549.66936022 355.043483962,1561.92155543 355.023982099,1563.23022445 363.916425931,1562.93700515 370.044766918,1557.72815154 369.73615284,1551.93709884 369.368293683,1544.92644173 " moovel_rot="7.3" moovel_centroid="362.110631085,1553.83822153" moovel_centroidlatlon="13.447076973379952,52.438028979828395"></polygon></g><g transform="translate(-482.5519888 -1673.787598) rotate(0)"><polygon id="327633457" class="tile" points="582.294010741,2257.05638395 589.948689829,2257.04900567 589.930076644,2229.28495588 582.27539384,2229.29233384 582.294010741,2257.05638395 " moovel_rot="-85.2" moovel_centroid="586.112042756,2243.17066871" moovel_centroidlatlon="13.347281850000002,52.494092450000004"></polygon></g><g transform="translate(-258.83978859999996 -1616.2102769) rotate(0)"><polygon id="379769810" class="tile" points="319.069419244,2229.30245016 318.911913427,2258.05547551 312.524597497,2258.01934198 312.507691561,2229.28495588 319.069419244,2229.30245016 " moovel_rot="83.9" moovel_centroid="315.753926631,2243.60104968" moovel_centroidlatlon="13.515922990538657,52.57236666725414"></polygon></g><g transform="translate(-383.42329529999995 -1654.4836096000001) rotate(0)"><polygon id="238015143" class="tile" points="542.086244427,1784.33608777 542.067536666,1758.76351697 534.593531414,1758.76176228 534.615155477,1784.13576846 542.086244427,1784.33608777 " moovel_rot="78.1" moovel_centroid="538.345471371,1771.4984764" moovel_centroidlatlon="13.431719778189535,52.51289404490522"></polygon></g><g transform="translate(-203.1618509 -1495.2210049) rotate(0)"><polygon id="245181340" class="tile" points="303.216264037,1544.92644173 303.205264545,1573.99081342 309.354708664,1574.005041 309.36571017,1544.94066105 303.216264037,1544.92644173 " moovel_rot="13.7" moovel_centroid="306.285487,1559.46573851" moovel_centroidlatlon="13.3763045,52.43761110000002"></polygon></g><g transform="translate(73.74686270000001 -872.5360615000001) rotate(0)"><polygon id="96800075" class="tile" points="40.6358614663,1758.76176228 52.4910542481,1761.72683952 52.1702596007,1773.2971965 52.5009685269,1777.62918606 39.7668415124,1776.91781286 39.7479817742,1772.69642102 40.6358614663,1758.76176228 " moovel_rot="49.3" moovel_centroid="46.0674861335,1768.81251137" moovel_centroidlatlon="13.493883013188016,52.537841459641115"></polygon></g><g transform="translate(-87.04185299999997 -1791.4610297) rotate(0)"><polygon id="111410265" class="tile" points="286.124776797,2052.01375606 286.170403296,2082.00800591 280.523978569,2082.00561254 280.532099653,2052.00062286 286.124776797,2052.01375606 " moovel_rot="78.7" moovel_centroid="283.337660719,2067.03091279" moovel_centroidlatlon="13.315374300681535,52.57564943087833"></polygon></g><g transform="translate(-264.7336093 -710.9412471) rotate(0)"><polygon id="380630671" class="tile" points="424.35073932,1544.92644173 424.307782452,1578.22901218 419.971047482,1578.22634266 419.915024747,1545.00340509 424.35073932,1544.92644173 " moovel_rot="-89.7" moovel_centroid="422.137002072,1561.53373266" moovel_centroidlatlon="13.342515586812041,52.52730022019726"></polygon></g><g transform="translate(61.63766559999999 -1388.0379994999998) rotate(0)"><polygon id="87508629" class="tile" points="138.432751778,1544.92644173 129.241076479,1544.92787419 129.227142151,1563.33216818 129.226558566,1564.88497191 138.418229612,1564.88353896 138.432751778,1544.92644173 " moovel_rot="-83.5" moovel_centroid="133.829517526,1554.90578937" moovel_centroidlatlon="13.33732274852725,52.52296675115296"></polygon></g><g transform="translate(-113.77893510000001 -1281.6339389) rotate(0)"><polygon id="405352380" class="tile" points="213.977757219,1405.62547111 213.747615039,1434.89465204 218.106197257,1435.00084836 218.066683116,1405.78062734 213.977757219,1405.62547111 " moovel_rot="-8.0" moovel_centroid="215.97336681,1420.48085928" moovel_centroidlatlon="13.532100533333333,52.52312442063619"></polygon></g><g transform="translate(-323.79424459999996 -962.9965855) rotate(0)"><polygon id="203618076" class="tile" points="403.982637813,1201.0 412.456428725,1201.00630187 412.457656643,1218.59457607 403.983293797,1218.59918735 403.982637813,1201.0 " moovel_rot="3.0" moovel_centroid="408.219566218,1209.8001153313842" moovel_centroidlatlon="13.43604024352751,52.441328623885454"></polygon></g><g transform="translate(-145.6332824 -283.8296808) rotate(0)"><polygon id="127719225" class="tile" points="153.762402013,1405.62547111 153.763779968,1429.16964754 148.327573251,1429.0832455 148.13317306,1407.7422161 153.762402013,1405.62547111 " moovel_rot="63.4" moovel_centroid="151.040931693,1417.82853974" moovel_centroidlatlon="13.33279902081981,52.46047407511341"></polygon></g><g transform="translate(-117.22278319999998 -838.7450149) rotate(0)"><polygon id="185168900" class="tile" points="245.753105351,1544.9319188 245.743823544,1563.00298302 238.857289323,1562.9974479 238.859892212,1544.92644173 245.753105351,1544.9319188 " moovel_rot="-0.5" moovel_centroid="242.303530101,1553.96323806" moovel_centroidlatlon="13.385006375228174,52.47613791334493"></polygon></g><g transform="translate(-187.2064625 -773.2434413) rotate(0)"><polygon id="268629256" class="tile" points="310.367130111,1548.21456062 310.538483929,1553.59420988 310.36571017,1567.68896376 316.259356378,1564.81482921 316.197953395,1544.92644173 310.367130111,1548.21456062 " moovel_rot="-28.2" moovel_centroid="313.351045611,1556.4216339" moovel_centroidlatlon="13.388122607191004,52.55925593536652"></polygon></g><g transform="translate(-414.6286377 -878.6107348) rotate(0)"><polygon id="199202471" class="tile" points="439.078892533,2078.56797413 439.429927402,2052.00062286 441.536533142,2052.1134055 441.435826283,2064.7442672 443.754053461,2064.77969436 443.76764446,2078.61072368 439.078892533,2078.56797413 " moovel_rot="-75.8" moovel_centroid="441.150451909,2067.74048583" moovel_centroidlatlon="13.311870963354558,52.52983271494258"></polygon></g><g transform="translate(-333.3324291 -1778.2602692) rotate(0)"><polygon id="26389749" class="tile" points="496.988159134,2052.00542121 502.611175656,2052.00062286 502.618015551,2063.6998283 502.618227927,2072.23411241 497.000380013,2072.23468028 496.988159134,2052.00542121 " moovel_rot="-39.4" moovel_centroid="499.805273525,2062.11728778" moovel_centroidlatlon="13.553458797594399,52.469464005460786"></polygon></g><g transform="translate(7.321257099999997 -500.6102541) rotate(0)"><polygon id="67562220" class="tile" points="116.407487519,1565.93687561 122.32056231,1565.85392838 122.302709877,1544.92644173 118.726082453,1545.08260066 118.64564635,1555.64334457 116.135705846,1555.57770736 116.407487519,1565.93687561 " moovel_rot="-2.5" moovel_centroid="119.751767778,1556.74979854" moovel_centroidlatlon="13.296836422402881,52.48659005567369"></polygon></g><g transform="translate(-396.5738528 -1403.4389585) rotate(0)"><polygon id="201855210" class="tile" points="399.073857853,2052.01230352 405.766375446,2052.00062286 405.774030382,2067.86722593 399.081493664,2067.86794903 399.073857853,2052.01230352 " moovel_rot="-0.1" moovel_centroid="402.424324629,2059.93702771" moovel_centroidlatlon="13.35941975576851,52.55264272497217"></polygon></g><g transform="translate(-404.2740173 -980.6777388999999) rotate(0)"><polygon id="106103422" class="tile" points="406.774030382,2063.06099777 416.904047745,2062.9737682 416.7514853,2052.00062286 406.774607195,2052.2431001 406.774030382,2063.06099777 " moovel_rot="-70.0" moovel_centroid="411.813267556,2057.58315449" moovel_centroidlatlon="13.296885972206843,52.50219625275067"></polygon></g><g transform="translate(-163.36216209999998 -1127.9287388) rotate(0)"><polygon id="206344260" class="tile" points="212.747615039,1405.67425265 207.405381777,1405.62547111 207.426382427,1421.54778032 212.706033147,1421.67786233 212.747615039,1405.67425265 " moovel_rot="-84.6" moovel_centroid="210.073646471,1413.61571812" moovel_centroidlatlon="13.383849461100583,52.44402071756261"></polygon></g><g transform="translate(-182.4273291 -1097.8114542) rotate(0)"><polygon id="272528122" class="tile" points="254.155084321,2068.94664688 254.155411351,2052.00062286 249.198808637,2052.42019785 249.684520441,2069.10864165 254.155084321,2068.94664688 " moovel_rot="-94.3" moovel_centroid="251.801667894,2060.47321559" moovel_centroidlatlon="13.310837248335643,52.54705762098194"></polygon></g><g transform="translate(-485.1321717 -498.1865252) rotate(0)"><polygon id="185168898" class="tile" points="494.568209781,1405.62594439 494.565999018,1415.69065328 487.63215829,1415.69018024 487.63436905,1405.62547111 494.568209781,1405.62594439 " moovel_rot="-0.9" moovel_centroid="491.100184022,1410.65806226" moovel_centroidlatlon="13.3850165,52.4764515"></polygon></g><g transform="translate(8.630049200000002 -794.7371021) rotate(0)"><polygon id="383807486" class="tile" points="64.6504263788,1222.33282001 64.6258029835,1201.0 67.0751358415,1203.86907696 66.7942102011,1220.19860425 64.6504263788,1222.33282001 " moovel_rot="-9.0" moovel_centroid="65.7376747793,1211.6102796281018" moovel_centroidlatlon="13.316514891310405,52.48985423466319"></polygon></g><g transform="translate(-404.7716372 -922.9783888) rotate(0)"><polygon id="218192637" class="tile" points="407.271642739,1405.6411683 412.188442834,1405.62547111 412.193867747,1418.3830746 407.277069578,1418.39877618 407.271642739,1405.6411683 " moovel_rot="-23.7" moovel_centroid="409.732755583,1412.01212213" moovel_centroidlatlon="13.3260127,52.56404325"></polygon></g><g transform="translate(-233.5980033 -1119.1298809999998) rotate(0)"><polygon id="381961977" class="tile" points="242.733682387,1949.28137975 242.72136969,1959.38540066 236.174753419,1959.42410294 236.097925601,1949.3285816 242.733682387,1949.28137975 " moovel_rot="8.7" moovel_centroid="239.432327049,1954.34347759" moovel_centroidlatlon="13.347520305042046,52.488552803433215"></polygon></g><g transform="translate(-401.04132810000004 -721.5339454) rotate(0)"><polygon id="380426883" class="tile" points="413.462967312,1215.55928947 413.457656643,1201.0 416.191675608,1201.00480796 416.198914571,1215.57049219 413.462967312,1215.55928947 " moovel_rot="73.2" moovel_centroid="414.827903897,1208.2845020813081" moovel_centroidlatlon="13.362180637698232,52.503796648618234"></polygon></g><g transform="translate(-172.3888128 -1140.1953543) rotate(0)"><polygon id="131293450" class="tile" points="177.461600619,1405.62547111 177.457037632,1411.4621201 174.97617656,1411.5885499 174.888528284,1405.71458099 177.461600619,1405.62547111 " moovel_rot="84.0" moovel_centroid="176.194226688,1408.57999483" moovel_centroidlatlon="13.222900409144263,52.62426530226303"></polygon></g></g><g transform="translate(0 1327.7)"><polygon id="11" class="bin" points="-438.021932898,1207.499999 -440.673583327,1206.40164943 -441.771932898,1203.749999 -441.771932898,3.75 -440.673583327,1.09834957055 -438.021932898,0.0 -162.127994991,0.0 -159.476183047,1.09851109532 -158.377995019,3.75045684714 -158.413697295,296.810263536 -159.510874411,299.460284173 -162.159923564,300.55980479 -171.028199452,300.568729125 -175.088609035,302.254831278 -176.768460117,306.317831006 -176.712481018,411.402369733 -176.608859384,584.05519531 -175.692166696,586.26370791 -175.703392516,589.165663675 -176.299823249,590.571771402 -176.008018856,775.790275637 -174.295010365,779.872749938 -170.18696047,781.52348328 -167.750702453,781.490272879 -165.038331082,782.597915729 -163.950406429,785.31825598 -164.527330777,812.931604702 -164.528797788,813.09651382 -163.907457132,1013.61706083 -162.5094362,1017.04625117 -162.41925854,1019.63229231 -164.025425743,1021.66107711 -166.563174837,1022.16661677 -168.824177986,1020.90820286 -171.55579837,1017.73443444 -175.456970566,1015.75405716 -179.622075228,1017.09306494 -190.531337449,1026.30868987 -192.538643838,1030.06962945 -191.410061279,1034.18062044 -179.494970089,1049.95141519 -178.862809861,1053.17505023 -191.477319238,1100.64511367 -190.868261276,1105.04565212 -190.402260615,1105.39169446 -189.104737074,1107.14580013 -189.003276227,1109.32528624 -192.581671326,1123.41806534 -191.976020943,1127.72941932 -188.522751928,1130.38074325 -185.795556555,1131.12540315 -183.531203067,1132.87584659 -183.161201701,1135.71388252 -192.13243807,1169.18243033 -192.329861437,1171.66473995 -191.831673078,1176.47673057 -190.506504804,1179.61479129 -187.654214712,1181.47703115 -156.949950127,1190.37260538 -154.644356048,1192.28751493 -154.478067102,1195.28000396 -156.557302966,1197.43857313 -158.138292786,1198.09403603 -159.848789322,1202.07197064 -159.88431976,1203.82594745 -161.008889345,1206.42836666 -163.633550592,1207.499999 -438.021932898,1207.499999 " moovel_rot="0" moovel_centroid="-306.06102865716826,596.8303664055524" moovel_centroidlatlon="0,0" transform="translate(441.7719421 0)"></polygon><g transform="translate(-394.4654542 -258.9047570000005) rotate(0)"><polygon id="439943136" class="tile" points="396.98338821,1458.90495274 406.170153728,1458.80416728 406.271642739,1406.2239003 396.965447569,1405.62547111 396.98338821,1458.90495274 " moovel_rot="62.3" moovel_centroid="401.587571239,1432.33211698" moovel_centroidlatlon="13.318085692730044,52.58685261224337"></polygon></g><g transform="translate(-93.8384586 -592.1469208999999) rotate(0)"><polygon id="264587878" class="tile" points="113.172597948,1758.76176228 110.538780657,1789.93497696 133.028126287,1792.15908119 133.005518078,1770.65497374 124.577780897,1767.0061658 113.172597948,1758.76176228 " moovel_rot="78.9" moovel_centroid="121.683271629,1778.18041762" moovel_centroidlatlon="13.459781127085613,52.52893352092284"></polygon></g><g transform="translate(-440.05236620000005 -826.8594714999999) rotate(0)"><polygon id="244452624" class="tile" points="462.657762826,1989.72016961 458.334741159,1955.46789104 457.945300527,1952.43174143 462.045399693,1951.76146042 473.516269058,1949.28137975 473.454688504,1987.73088863 462.657762826,1989.72016961 " moovel_rot="-60.1" moovel_centroid="466.836988067,1968.68729462" moovel_centroidlatlon="13.298526678797046,52.53493714554018"></polygon></g><g transform="translate(-110.37907100000001 -57.35199949999992) rotate(0)"><polygon id="354932502" class="tile" points="148.770722362,1208.79430573 154.590293159,1213.963187 158.474806591,1218.88871386 158.362400579,1228.824195 158.207995495,1242.54510603 158.043907309,1257.27723926 164.408079951,1257.35219301 164.417587796,1207.65151057 164.421372978,1201.3181815 159.563846269,1201.0 155.197803489,1202.90766603 148.770722362,1208.79430573 " moovel_rot="32.0" moovel_centroid="160.144832014,1225.531103528554" moovel_centroidlatlon="13.73327540449158,52.404725521397644"></polygon></g><g transform="translate(-135.5787034 -1123.3160812) rotate(0)"><polygon id="285236931" class="tile" points="187.091588812,2260.64385865 195.10363684,2243.12414809 174.046292334,2229.28495588 174.038031561,2266.1166335 187.091588812,2260.64385865 " moovel_rot="-23.5" moovel_centroid="181.899467974,2248.18681998" moovel_centroidlatlon="13.486501080409528,52.54137818110533"></polygon></g><g transform="translate(-368.5447694 -451.62379320000014) rotate(0)"><polygon id="123748225" class="tile" points="371.044766918,1544.953568 389.443965957,1544.92644173 389.450005776,1571.53541891 371.052041945,1571.55598119 371.044766918,1544.953568 " moovel_rot="-79.5" moovel_centroid="380.248073285,1558.24270292" moovel_centroidlatlon="13.440280778201652,52.46155829684366"></polygon></g><g transform="translate(-231.4381439 -1158.0552093000001) rotate(0)"><polygon id="43090238" class="tile" points="280.212298129,2229.28495588 258.708378958,2229.71733617 258.688094238,2247.73658224 272.914458282,2260.0441509 279.911540888,2255.93836612 280.194230751,2250.12266236 280.221293971,2249.11571824 274.644559843,2249.13486452 274.352678745,2231.47064084 280.150836856,2231.42336731 280.212298129,2229.28495588 " moovel_rot="18.9" moovel_centroid="268.580050851,2243.13793251" moovel_centroidlatlon="13.395473814896496,52.42326945064908"></polygon></g><g transform="translate(-168.05752209999997 -877.8188596) rotate(0)"><polygon id="349587791" class="tile" points="234.83831568,1979.45046308 235.097925601,1985.31415056 231.034513654,1992.90696043 221.192354699,1987.45258049 222.512143254,1984.23574594 223.751288458,1979.35240996 224.010610565,1974.12017467 222.868380662,1965.54578678 221.246529748,1951.82344686 230.275291582,1949.28137975 232.846174294,1958.1517886 233.893126439,1963.82789728 234.768315876,1971.35713889 234.83831568,1979.45046308 " moovel_rot="-70.4" moovel_centroid="228.404752021,1971.11949923" moovel_centroidlatlon="13.479819191554125,52.515550984025026"></polygon></g><g transform="translate(-75.02964980000002 -588.7939815) rotate(0)"><polygon id="392319333" class="tile" points="154.568097427,1761.78302099 153.361185545,1761.17906879 138.03604391,1758.76176228 134.028126287,1783.62628835 151.260064045,1788.9035363 154.579730752,1786.16954356 151.221945311,1780.7908223 154.568097427,1761.78302099 " moovel_rot="-25.2" moovel_centroid="144.585729952,1773.56964759" moovel_centroidlatlon="13.460878232242639,52.44807911977272"></polygon></g><g transform="translate(-489.7377101999999 -812.0453953000001) rotate(0)"><polygon id="328774769" class="tile" points="548.775044635,1977.03387639 563.439160023,1977.06661459 563.458921494,1949.31409535 554.286652466,1949.29718482 548.794799198,1949.28137975 548.775044635,1977.03387639 " moovel_rot="17.0" moovel_centroid="556.117020967,1963.1748787" moovel_centroidlatlon="13.412292954440831,52.59911409236003"></polygon></g><g transform="translate(-410.71622809999997 -137.8804247999999) rotate(0)"><polygon id="358711502" class="tile" points="417.199809424,1226.07626372 432.967726211,1226.19294507 432.931653536,1204.41061193 432.925137552,1201.03298283 417.198914571,1201.0 417.199809424,1226.07626372 " moovel_rot="63.5" moovel_centroid="425.077463838,1213.5810240656858" moovel_centroidlatlon="13.564594503931108,52.554550614980315"></polygon></g><g transform="translate(3.961870199999993 -108.61556940000014) rotate(0)"><polygon id="243689156" class="tile" points="76.8761276718,1201.00825314 68.0794818092,1201.0 68.0751358415,1240.88053712 76.8717684373,1240.88879279 76.8772174919,1239.04505923 76.8681659389,1205.35472222 76.8761276718,1201.00825314 " moovel_rot="79.2" moovel_centroid="72.4750125482,1220.9487380407743" moovel_centroidlatlon="13.287506412205726,52.57638258705324"></polygon></g><g transform="translate(-405.822585 -493.0205598) rotate(0)"><polygon id="390545074" class="tile" points="476.636126901,1580.30956453 477.01103831,1544.92644173 487.09293757,1544.94969067 487.116710182,1580.41789139 476.636126901,1580.30956453 " moovel_rot="-26.1" moovel_centroid="481.965631158,1562.76550475" moovel_centroidlatlon="13.42324111429133,52.518792279234944"></polygon></g><g transform="translate(-185.6415456 -170.9243692) rotate(0)"><polygon id="326472938" class="tile" points="233.81555216,1223.09793839 235.362075031,1223.31591064 236.228413008,1217.87412974 231.244623084,1217.00558738 234.495382246,1201.0 238.364046734,1201.79877059 240.748742049,1202.66968143 242.218393146,1204.00397638 243.204726513,1205.14665459 243.851876773,1206.43211226 244.328931583,1207.68792704 244.515483486,1209.49448829 244.356472481,1211.03464235 241.201955123,1228.1394738 244.509098408,1233.075769 239.088255983,1239.83720566 235.644708899,1236.33331783 232.549181023,1232.21139028 229.848780474,1226.83960147 232.017152132,1226.38845924 233.644794403,1224.67470177 233.81555216,1223.09793839 " moovel_rot="49.2" moovel_centroid="238.020212736,1219.502781132446" moovel_centroidlatlon="13.342694787835606,52.479150770882406"></polygon></g></g></svg>