<svg><g transform="translate(0 0)"><polygon id="12" class="bin" points="-443.590711556,1207.499999 -446.242361985,1206.40164943 -447.340711556,1203.749999 -447.340711556,3.75 -446.242361985,1.09834957055 -443.590711556,0.0 -169.202329271,0.0 -166.523961608,1.125338753 -165.453098439,3.8259484472 -167.104262289,85.3364288241 -167.105568783,85.4379171838 -167.961222523,241.266203783 -167.961289331,241.326458465 -167.427775854,404.309707475 -168.440649944,406.885330513 -170.944406927,408.064715488 -185.96475515,409.00119186 -189.780678694,410.779188684 -191.370430192,414.677295324 -191.634308547,434.265740392 -191.634927654,434.366309399 -191.298301517,724.969027923 -190.708765738,727.742178405 -175.112874133,762.875090352 -172.798363973,765.498958069 -169.56691117,766.282371939 -167.25230386,767.968640537 -166.802774678,770.796861232 -168.480478136,773.117684339 -169.395867581,773.682821578 -171.273371096,775.094175316 -173.003490074,776.998508213 -174.559067322,779.542535601 -175.453272198,781.880433256 -175.965241139,784.665078481 -175.918214969,786.19976606 -176.866173897,788.808797916 -177.206791311,789.191218455 -178.640989107,795.587326483 -157.737639482,866.545288013 -158.385204062,869.92064783 -194.44821234,915.85591956 -195.627061543,920.132403603 -193.406669852,923.972698116 -150.352739241,956.700644911 -148.909288444,959.159261129 -149.611904787,961.922352547 -194.486514372,1022.32558059 -195.550825676,1026.63337468 -193.226734365,1030.41338102 -181.328973499,1038.95770928 -178.591211494,1039.59930155 -176.497354048,1040.93456089 -175.697003366,1043.28543206 -176.182050015,1095.1806735 -177.283124511,1097.80016109 -179.905003615,1098.89552873 -186.651927996,1098.94389663 -205.770581239,1099.0675362 -209.80965673,1100.7629069 -211.481144989,1104.81192401 -211.505993456,1149.08458023 -211.516090809,1169.75875103 -211.539396369,1203.75256994 -212.638654178,1206.40255824 -215.289395487,1207.499999 -443.590711556,1207.499999 " moovel_rot="0" moovel_centroid="-313.19738321177203,593.7386718190526" moovel_centroidlatlon="0,0" transform="translate(447.3406982 0)"></polygon><g transform="translate(-376.86764529999994 -1311.4809569) rotate(0)"><polygon id="23505961" class="tile" points="508.236024586,2307.44024037 462.819485731,2308.02219533 410.901763948,2308.68603984 411.362202263,2347.3913829 448.009777509,2373.44281101 449.366806006,2380.99139599 443.857620614,2382.48764687 386.347457024,2339.34256171 379.367657987,2350.2895138 379.368770074,2464.02106265 383.207052046,2464.12757171 389.731774065,2459.32963721 400.313763398,2453.557081 415.08355672,2450.46816863 428.177085048,2443.90629767 431.900654008,2441.31677328 442.426989688,2432.71812486 448.610299624,2442.58362311 424.271230966,2464.51512401 423.841346099,2484.13196179 467.038637588,2484.26432512 467.737762317,2511.46804976 506.296422622,2511.4809461 506.386619904,2503.96605157 511.0614636,2503.9432417 511.042638646,2465.30915574 506.225800582,2465.33915874 505.996552959,2459.08436512 508.756837692,2457.15222241 510.961957688,2454.20491661 513.507074772,2446.51215934 513.252254302,2313.29203032 508.236024586,2307.44024037 " moovel_rot="-92.9" moovel_centroid="454.427252733,2400.57328969" moovel_centroidlatlon="13.369029863515479,52.470013344270455"></polygon></g><g transform="translate(1.4986706000000005 -329.06150130000003) rotate(0)"><polygon id="390998803" class="tile" points="38.0411456288,1207.21031363 38.0208692381,1207.18975473 33.4411971527,1207.32065815 33.4258025249,1207.13543761 24.109784437,1207.27086365 24.0397344445,1201.0 23.923707132,1201.39119063 23.746243396,1201.75617636 23.5036523174,1202.06956233 23.1977793533,1202.34404598 22.8519608771,1202.54193999 22.4741859914,1202.67856231 22.0730510561,1202.73375904 21.6712851811,1202.7053147 21.2768774694,1202.60854722 20.9107115718,1202.42854367 20.5826220546,1202.19331942 20.3134925716,1201.88796152 20.1070140485,1201.53786485 19.9398501141,1201.1807167 20.0141753918,1207.32238868 2.05296777738,1207.5696944 2.08076884728,1208.35571855 2.26014896212,1208.36076918 2.40798960254,1213.4618599 2.43011148795,1213.49511615 1.0,1213.52827449 1.34497976955,1224.46608009 1.50870854519,1229.12134423 2.91239928221,1229.06500819 3.09096527928,1234.1791846 2.41154552102,1234.22287274 2.65477268193,1243.15205847 2.87175761107,1249.87856866 3.56530980486,1249.85281965 3.71501026331,1254.96657415 3.73528670482,1254.98713292 2.34818254914,1255.03863038 2.66495161876,1266.0595991 2.81885875352,1270.68681758 4.22439315105,1270.6431832 4.37839890895,1275.74684405 4.40481901141,1275.77002328 2.65465809125,1275.82149256 2.80028927792,1282.01730292 2.82670938624,1282.04048213 1.60055527147,1282.08916675 1.86170931384,1291.41894897 1.88383132834,1291.45220492 1.00905483533,1291.46020286 1.09069974273,1294.16287875 1.95318887811,1294.14964 2.10849084146,1299.53967092 2.13491096459,1299.56285009 1.26382578015,1299.596242 1.33748297859,1302.2835967 2.20426999545,1302.2602817 2.39546905924,1308.92807761 2.80169543494,1321.59493882 4.33500545844,1321.5581717 4.3373343518,1320.93984563 7.53787610363,1320.87579343 7.54200124219,1320.03194338 7.51558110397,1320.00876424 14.153183145,1319.92199188 27.4418902369,1319.68274166 27.4580410685,1320.54715159 31.5106308794,1320.47731534 31.508612996,1319.63084335 31.486490956,1319.59758746 38.7678899895,1319.49957119 45.4122454705,1319.37994154 45.4283958282,1320.24435258 48.6369285798,1320.19561386 48.653078904,1321.06002497 50.0770428577,1321.02425527 49.5779220844,1304.62560069 49.5515019741,1304.60242149 50.2905114701,1304.57224367 50.1587707896,1300.21651375 49.4240593022,1300.23661502 49.25334456,1294.54223772 49.2269244579,1294.5190585 49.9597905489,1294.48625964 49.7594040307,1287.87405153 49.0308359053,1287.89677395 48.9231888157,1284.18254373 48.8268338725,1281.61649938 37.9026088897,1281.94726174 37.9376980764,1282.30762178 37.9598200504,1282.34087782 33.3801588349,1282.47175575 33.120961535,1273.63108367 33.0945414445,1273.60790442 45.9298795981,1273.22285476 45.9830100088,1274.69855362 47.9936334828,1274.61525636 52.0904498486,1274.49280457 51.863850033,1265.7970215 51.0075032286,1265.81288381 50.8817734657,1260.74507515 50.8553533926,1260.72189586 59.463650191,1260.47519723 59.5514283929,1263.18051787 61.8071675491,1263.11839694 61.7625391735,1261.14609174 61.827594531,1260.84035508 61.9417990435,1260.55558229 62.1051527139,1260.29177337 62.3213465302,1260.07432303 62.57194956,1259.89536982 62.8483655024,1259.77506748 63.1426052175,1259.69809817 63.4522160482,1259.68723613 63.7360379796,1259.73683532 63.7753524981,1259.72978401 64.0210982438,1259.83460345 64.0665564055,1259.83017262 64.2846677585,1259.98275594 64.3319714129,1259.99102247 64.514459236,1260.17605181 64.5636083852,1260.1970157 64.6981853911,1260.40925009 64.7510255278,1260.4556087 64.8358462257,1260.68235078 64.8886863625,1260.72870938 64.9489324884,1260.94496951 64.9765908914,1261.01631775 65.032899195,1263.02933597 67.2763512403,1262.96197365 67.1101758765,1255.31621142 67.0953640534,1254.976408 66.1885992333,1248.65835608 65.4774609364,1225.24916048 65.1498592133,1215.10479142 65.6541851385,1208.78115061 65.6614962096,1208.47460107 65.5608575836,1205.91859968 60.2556970963,1206.13310143 60.2564458584,1206.81230827 57.129614291,1206.90783804 57.1042908873,1206.21814943 54.332528959,1206.29838482 51.5644580493,1206.40401487 51.5652069986,1207.08322126 51.5916270278,1207.10640065 48.4463649254,1207.19406805 48.4314831659,1206.49692339 38.0312400828,1206.82495949 38.0411456288,1207.21031363 " moovel_rot="23.1" moovel_centroid="30.389862350750587,1258.8188612074773" moovel_centroidlatlon="13.398416981705916,52.543185582644"></polygon></g><g transform="translate(-488.69093890000005 -396.7746258000001) rotate(0)"><polygon id="415222778" class="tile" points="592.114540138,1201.0 592.151329,1388.09065412 552.633629878,1388.37554586 552.173271261,1354.50956056 562.724995786,1354.37374547 561.062060442,1202.13548588 592.114540138,1201.0 " moovel_rot="-2.7" moovel_centroid="575.950476636,1298.4737937481655" moovel_centroidlatlon="13.484951815463525,52.52770287811649"></polygon></g><g transform="translate(-97.255091 -1070.0353879999998) rotate(0)"><polygon id="365890510" class="tile" points="103.910976172,1800.00102943 104.489294368,1811.04894689 105.072080457,1822.17589023 105.549706086,1831.34742485 99.9357380341,1832.26375486 99.8123542321,1837.66219967 99.7868255381,1851.66485519 99.7642868211,1868.21929591 99.7550662597,1872.58041234 177.601384125,1870.10129468 177.36036281,1843.19094341 177.146207688,1829.57622499 175.195097036,1829.22899452 173.979876433,1811.9933735 160.670060004,1812.90008428 159.54607179,1790.05782072 103.501548989,1792.27930878 103.910976172,1800.00102943 " moovel_rot="-17.9" moovel_centroid="137.437859913,1833.92051904" moovel_centroidlatlon="13.50693937614537,52.49232095343782"></polygon></g><g transform="translate(-35.4842587 -1104.9859507) rotate(0)"><polygon id="316688858" class="tile" points="143.937201496,2053.80349218 179.410126495,2053.8106301 179.380179793,1909.21078142 143.907875643,1909.21029431 143.936202629,2040.54278159 143.937201496,2053.80349218 " moovel_rot="-94.6" moovel_centroid="161.659404414,1981.50854106" moovel_centroidlatlon="13.168643728613459,52.53651599470835"></polygon></g><g transform="translate(-247.51341639999998 -1011.9869153) rotate(0)"><polygon id="127605824" class="tile" points="396.133269847,2211.98704561 409.292965256,2211.84525733 409.347120034,1909.21029431 396.501694269,1909.57355496 396.133269847,2211.98704561 " moovel_rot="-82.8" moovel_centroid="402.819151683,2061.26366026" moovel_centroidlatlon="13.26272146758812,52.54820177389373"></polygon></g><g transform="translate(44.130437999999984 -1486.7103497) rotate(0)"><polygon id="25653110" class="tile" points="105.391581271,2282.67056289 41.2139413241,2286.594128 41.2584179599,2232.10701277 43.0920315212,2212.364319 103.471428831,2211.98704561 105.391581271,2282.67056289 " moovel_rot="73.7" moovel_centroid="72.7091791817,2248.72553482" moovel_centroidlatlon="13.362319970507782,52.50687116291242"></polygon></g><g transform="translate(-259.9832755 -1016.9313253) rotate(0)"><polygon id="23894336" class="tile" points="414.465297044,1790.05782072 456.93929533,1790.20255232 456.952709944,1794.55911187 456.710027416,1794.56075141 456.738056663,1854.96773344 457.000609757,1854.96867506 457.00285198,1858.89267047 456.766793048,1858.89516982 441.238915087,1859.02267068 440.77625641,1906.14623519 440.774929684,1909.00867774 414.66979281,1909.21029431 414.503040286,1880.20874932 414.465297044,1790.05782072 " moovel_rot="7.4" moovel_centroid="433.152353162,1843.13723702" moovel_centroidlatlon="13.371152804775125,52.56485101905869"></polygon></g><g transform="translate(-131.4822191 -255.212354) rotate(0)"><polygon id="24241089" class="tile" points="315.376445377,1228.41661218 312.440997212,1228.3663408 312.592689971,1217.69712623 310.175832556,1217.66590129 310.41125181,1201.16991801 305.668097515,1201.09387313 300.140051814,1201.0 299.367262874,1246.05005792 298.280240772,1350.76853905 299.645261677,1380.3096308 302.546145129,1452.59340328 303.033472394,1455.2173765 312.628980548,1454.60697665 315.513152287,1454.42270414 315.194617386,1445.18398359 315.150438044,1440.51342912 313.9521995,1434.49152173 312.174353841,1429.44167676 309.839090934,1424.0879029 309.204558787,1420.87553903 308.713458374,1415.70035085 314.044107651,1415.53317521 313.24044414,1391.28916166 313.909503953,1332.51710094 315.376445377,1228.41661218 " moovel_rot="64.5" moovel_centroid="306.710909706,1324.5443850466463" moovel_centroidlatlon="13.42495886823546,52.519432004385166"></polygon></g><g transform="translate(-158.9380128 -851.3083718) rotate(0)"><polygon id="275251368" class="tile" points="314.498702808,1599.76986918 314.514012075,1619.43898047 374.856622389,1618.6200102 342.74062939,1788.78078857 351.913260112,1790.05782072 386.010794443,1606.87290713 374.035314397,1599.69069599 314.498702808,1599.76986918 " moovel_rot="84.2" moovel_centroid="356.544582643,1661.22950523" moovel_centroidlatlon="13.150576074559247,52.554973851893976"></polygon></g><g transform="translate(-25.937632200000024 -579.1451059) rotate(0)"><polygon id="28119136" class="tile" points="257.756768604,1455.2173765 211.951660938,1548.11396857 265.029876859,1579.45723645 264.355287038,1494.66439952 255.151213404,1488.73496695 265.053973981,1467.33793753 257.756768604,1455.2173765 " moovel_rot="41.8" moovel_centroid="246.181902748,1526.17847467" moovel_centroidlatlon="13.380946650633321,52.40504815746398"></polygon></g><g transform="translate(69.06091900000001 -1293.2900025000004) rotate(0)"><polygon id="51744823" class="tile" points="119.281859607,2393.73938735 119.296338452,2307.45491738 160.008975624,2307.44024037 159.993774213,2393.73135068 119.281859607,2393.73938735 " moovel_rot="-84.4" moovel_centroid="139.645498075,2350.59134645" moovel_centroidlatlon="13.393097777095239,52.50074709772578"></polygon></g><g transform="translate(-194.7242039 -1534.1220620000001) rotate(0)"><polygon id="34295402" class="tile" points="400.709392602,2277.48569115 352.368986406,2277.58079261 352.3691384,2272.17531172 347.674353997,2272.18439339 347.647970099,2212.09116524 400.683359671,2211.98704561 400.682258283,2216.24240922 400.712972196,2269.40307817 400.709392602,2277.48569115 " moovel_rot="-72.3" moovel_centroid="374.358061753,2244.56765191" moovel_centroidlatlon="13.54798986522777,52.54353820323295"></polygon></g><g transform="translate(-452.75542659999996 -799.4885024) rotate(0)"><polygon id="361105675" class="tile" points="572.81185615,1455.2173765 572.824185336,1519.93712125 520.077484521,1520.08124057 520.0648912,1455.36126214 572.81185615,1455.2173765 " moovel_rot="-48.5" moovel_centroid="546.444588376,1487.64922315" moovel_centroidlatlon="13.27873285,52.41361685"></polygon></g><g transform="translate(101.8473118 -971.5458426000001) rotate(0)"><polygon id="25994135" class="tile" points="89.5073897224,1599.69069599 134.969920345,1600.11787834 134.863636487,1718.61641597 118.85487881,1717.80154216 120.277315492,1644.58648126 89.0836443968,1644.24744262 89.5073897224,1599.69069599 " moovel_rot="20" moovel_centroid="117.514103363,1643.53179296" moovel_centroidlatlon="13.470770124210627,52.53306251766368"></polygon></g><g transform="translate(-263.21622460000003 -965.9421349) rotate(0)"><polygon id="49966754" class="tile" points="313.498702808,1679.05794006 307.218177646,1680.04605292 301.080229891,1681.08932271 293.879470362,1682.23251464 295.826206457,1676.08346778 276.577740867,1676.1577876 274.992939805,1676.1592176 273.542050108,1676.00351317 273.877438793,1655.60800456 265.714704644,1655.07520565 267.449374622,1605.56977305 272.657978867,1605.41858975 277.767793787,1605.32443998 281.790483383,1605.34128628 281.796167698,1604.06525621 302.154168814,1604.07407162 302.149555141,1599.71524965 313.486096661,1599.69069599 313.498702808,1679.05794006 " moovel_rot="-24.5" moovel_centroid="291.600413614,1639.6737041" moovel_centroidlatlon="13.354292887684377,52.44960340415986"></polygon></g><g transform="translate(-28.748728900000003 -635.4165345999999) rotate(0)"><polygon id="295838675" class="tile" points="150.289076631,1286.54259364 161.44872158,1245.26596576 150.284542662,1218.55601428 161.402011215,1201.0 202.970863789,1258.44147582 192.179598119,1279.50943772 202.36553909,1284.95338141 188.434840171,1308.37451151 150.289076631,1286.54259364 " moovel_rot="35.2" moovel_centroid="174.92257291,1260.037239331963" moovel_centroidlatlon="13.38014922350525,52.507505884091366"></polygon></g><g transform="translate(15.843364499999993 -1032.916395) rotate(0)"><polygon id="41274276" class="tile" points="39.0166617714,1665.29295191 39.0892536104,1599.69069599 88.0836443968,1599.69790715 88.0437117456,1665.30307782 39.0166617714,1665.29295191 " moovel_rot="-84.9" moovel_centroid="63.5584958579,1632.49980155" moovel_centroidlatlon="13.291705895807997,52.51957707041483"></polygon></g><g transform="translate(-83.0965513 -1102.3026574) rotate(0)"><polygon id="5173315" class="tile" points="135.544481943,1909.21029431 132.14721211,1909.56613882 93.9530800499,1909.96192304 92.0938027546,1922.13391465 85.5916042168,1922.3582283 88.2439952806,1962.87023766 88.6163007686,1970.3758014 135.944658323,1967.68459483 142.88020978,1961.46302416 142.907875643,1911.91429558 135.544481943,1909.21029431 " moovel_rot="82.9" moovel_centroid="115.144459758,1939.55445321" moovel_centroidlatlon="13.281422675490978,52.506830597051575"></polygon></g><g transform="translate(-225.8829364 -1665.0459759) rotate(0)"><polygon id="37130611" class="tile" points="401.926034939,2282.06180174 401.7776934,2276.39974257 401.712972196,2220.23075934 406.789421474,2220.2085734 406.757984265,2212.15865456 439.28778771,2211.98704561 439.307280812,2217.43163848 459.650229762,2217.31245685 459.673399009,2223.46292702 459.700286274,2231.00255129 453.764166883,2231.03104763 453.783207153,2236.23180368 438.352189102,2236.31179819 438.525251828,2288.07141499 428.131061862,2288.1242568 407.988665849,2288.2429031 407.966581695,2282.01873774 401.926034939,2282.06180174 " moovel_rot="-26.1" moovel_centroid="423.920805745,2247.21889085" moovel_centroidlatlon="13.4548708246911,52.551787050316484"></polygon></g><g transform="translate(189.0298717 -803.1015405) rotate(0)"><polygon id="24509316" class="tile" points="35.7467821045,1957.16626566 35.5061322911,1985.1587233 35.4941084269,2002.95281512 0.0,2003.10152183 0.0233776761219,1909.21029431 23.511601118,1910.46898747 35.7467821045,1957.16626566 " moovel_rot="-49.9" moovel_centroid="16.4789297547052,1959.34669129" moovel_centroidlatlon="13.409224713614538,52.51773198279598"></polygon></g><g transform="translate(-134.82621899999998 -1672.5177303) rotate(0)"><polygon id="29483787" class="tile" points="141.685771746,2211.98704561 137.40781001,2228.07868295 137.326216098,2307.44024037 180.001180483,2298.71664236 173.559753275,2257.71794464 158.589988537,2221.39715989 141.685771746,2211.98704561 " moovel_rot="-6.3" moovel_centroid="154.670449176,2265.07257377" moovel_centroidlatlon="13.50840941563403,52.546911894982216"></polygon></g><g transform="translate(-163.3124366 -757.580703) rotate(0)"><polygon id="272638575" class="tile" points="316.513152287,1201.0 316.671897946,1343.26746755 333.841107555,1344.11850698 335.211274168,1201.57149995 316.513152287,1201.0 " moovel_rot="-54.5" moovel_centroid="325.56722652,1271.4787382240927" moovel_centroidlatlon="13.306190460170386,52.44454153478617"></polygon></g><g transform="translate(-192.68611239999998 -1452.0198996) rotate(0)"><polygon id="244871849" class="tile" points="240.996628855,1922.07479253 206.137811628,1909.21029431 195.186116565,1910.1193397 195.25174082,1985.92222084 223.247426103,1990.25557508 226.979625663,1974.7509171 227.392628638,1963.38952615 237.14368565,1938.47099621 234.763726823,1937.53366774 240.263780191,1923.48906621 240.996628855,1922.07479253 " moovel_rot="88.6" moovel_centroid="213.429659012,1947.87050491" moovel_centroidlatlon="13.468501012351812,52.561056194651464"></polygon></g><g transform="translate(-95.04419180000001 -783.5795302) rotate(0)"><polygon id="338412118" class="tile" points="204.161600317,1202.64318168 210.691132229,1202.42027027 213.009310075,1201.15860048 218.23057353,1201.0 218.209791245,1203.07888042 220.913055982,1211.02242881 221.167603336,1350.54180363 203.970863789,1350.8119516 204.441069613,1284.64250594 204.161600317,1202.64318168 " moovel_rot="-0.9" moovel_centroid="212.616340606,1276.9810444646341" moovel_centroidlatlon="13.386229386113955,52.475344055103925"></polygon></g><g transform="translate(-209.8302643 -1037.911648) rotate(0)"><polygon id="17505546" class="tile" points="296.930794524,1455.22028599 313.678180701,1455.2173765 313.795739702,1599.67687281 297.047877023,1599.69069599 296.930794524,1455.22028599 " moovel_rot="2.5" moovel_centroid="305.363042839,1527.45165677" moovel_centroidlatlon="13.278747698652367,52.50784512176675"></polygon></g><g transform="translate(-280.5157792 -1142.6934066) rotate(0)"><polygon id="9896861" class="tile" points="465.03492152,1684.68835404 489.863600804,1683.9298316 487.317630605,1599.69069599 457.280825011,1600.61821894 457.183355352,1684.93383235 465.03492152,1684.68835404 " moovel_rot="-12.4" moovel_centroid="472.920164346,1642.88405691" moovel_centroidlatlon="13.57757140409524,52.54860699028116"></polygon></g><g transform="translate(-338.6552609 -1023.5206714) rotate(0)"><polygon id="35139660" class="tile" points="368.118824706,1481.30676293 374.536910284,1455.2173765 380.804993336,1456.3057191 384.969191568,1456.70136337 415.101080926,1459.59474593 415.073281364,1542.15348802 399.116378807,1538.36505005 380.36620767,1533.88991141 380.40940889,1533.56161814 382.429724036,1525.37559503 387.705971702,1526.70733383 390.483090394,1515.4781194 389.997380077,1515.37070808 394.819235878,1495.8344152 396.702691,1488.40235664 391.874411976,1487.19725404 368.118824706,1481.30676293 " moovel_rot="23.9" moovel_centroid="397.896694472,1494.17928536" moovel_centroidlatlon="13.352919185470537,52.53597509641975"></polygon></g><g transform="translate(-239.22346659999997 -1064.8886126) rotate(0)"><polygon id="28495586" class="tile" points="469.967742534,1516.97035461 416.101080926,1516.78350967 416.194582296,1481.89969974 447.568989795,1481.94251886 447.602685817,1455.28928839 466.434680452,1455.2173765 466.529605624,1481.9700073 469.930352246,1481.97398028 469.967742534,1516.97035461 " moovel_rot="80.0" moovel_centroid="446.020582124,1492.89735879" moovel_centroidlatlon="13.52194769792268,52.49200937916396"></polygon></g><g transform="translate(-264.2192801 -1535.8164855) rotate(0)"><polygon id="76232921" class="tile" points="297.037318178,1955.20090321 302.362671551,1909.21029431 346.265178348,1913.16361529 346.332057443,1968.25307107 297.037318178,1955.20090321 " moovel_rot="-2.3" moovel_centroid="323.589630549,1937.09482804" moovel_centroidlatlon="13.347145198027354,52.57623309557541"></polygon></g><g transform="translate(-278.2632994 -856.3120703999999) rotate(0)"><polygon id="173185803" class="tile" points="382.364306629,1268.75591897 382.352083791,1253.8928361 411.514179864,1253.85892263 411.469224307,1201.03015391 437.156402423,1201.0 437.213541955,1268.69184825 422.65499745,1268.70403055 382.364306629,1268.75591897 " moovel_rot="-85.1" moovel_centroid="418.874067132,1240.1361651960387" moovel_centroidlatlon="13.592184517664663,52.542065261617985"></polygon></g><g transform="translate(-314.00580449999995 -1874.2202554000003) rotate(0)"><polygon id="239191266" class="tile" points="517.357663371,2286.26739025 488.021315609,2286.14173481 488.259002331,2212.76999759 517.338570201,2211.98704561 517.357663371,2286.26739025 " moovel_rot="-37.8" moovel_centroid="502.774109338,2249.34557457" moovel_centroidlatlon="13.259385683554882,52.49927694181406"></polygon></g><g transform="translate(-156.9203749 -1577.3097613) rotate(0)"><polygon id="147432292" class="tile" points="280.971679869,1969.86818933 250.168493499,1969.08442075 250.073185719,1972.41061715 244.856657343,1972.50702793 241.996628855,1914.96149379 247.183805171,1914.82706725 247.045991304,1909.99793319 267.782644812,1909.21029431 268.476918242,1913.12171412 280.981786324,1912.97420076 279.541800771,1939.99384441 280.971679869,1969.86818933 " moovel_rot="39.1" moovel_centroid="261.646652265,1940.25876704" moovel_centroidlatlon="13.391649279640193,52.563033850686075"></polygon></g><g transform="translate(142.901283 -1851.5791328) rotate(0)"><polygon id="28119162" class="tile" points="100.211347822,2398.14485035 98.201222585,2333.17844335 100.265978709,2333.0652403 99.5948426272,2307.44024037 90.0321310283,2307.85521596 72.1403933358,2333.91175356 70.1151581072,2347.83548969 70.5368233428,2362.64068582 75.4141359658,2379.53517003 84.5403890601,2398.55535355 98.9169864618,2398.17667135 100.211347822,2398.14485035 " moovel_rot="-79.5" moovel_centroid="87.0787689717,2354.33334618" moovel_centroidlatlon="13.379884827159897,52.40820023554966"></polygon></g><g transform="translate(-488.36881020000004 -1281.8952459) rotate(0)"><polygon id="124018649" class="tile" points="525.699360873,1610.46697541 525.736562373,1599.69069599 496.746367421,1600.63971067 496.362794657,1614.78029043 490.863600804,1615.36956426 493.964596215,1663.26371256 509.712922392,1663.06123363 519.952770855,1654.94644751 527.078652652,1647.8607097 531.501949774,1640.44687067 532.827403787,1634.21109982 532.843545205,1610.13776249 525.699360873,1610.46697541 " moovel_rot="12.0" moovel_centroid="511.12886868,1630.26563141" moovel_centroidlatlon="13.228657148756454,52.537346345697536"></polygon></g><g transform="translate(208.31939619999997 -1460.1953733999999) rotate(0)"><polygon id="32293710" class="tile" points="37.2504047899,1845.71609122 37.1837275386,1800.30603637 37.3024669887,1791.61711825 29.842871896,1791.23019334 0.0,1790.05782072 0.0934587579221,1845.32757844 37.2504047899,1845.71609122 " moovel_rot="68.4" moovel_centroid="18.570602515795333,1818.14967749" moovel_centroidlatlon="13.12924750648264,52.549937603612946"></polygon></g><g transform="translate(79.1243043 -798.9414626) rotate(0)"><polygon id="284293864" class="tile" points="178.232774251,1665.62201053 178.265150135,1631.19295154 167.613126114,1631.19520422 167.645318611,1599.69069599 144.579331699,1599.70126044 144.514543345,1670.0392905 154.833041095,1670.03050271 154.841645828,1665.63590891 178.232774251,1665.62201053 " moovel_rot="-71.4" moovel_centroid="159.125995111,1636.47777117" moovel_centroidlatlon="13.433911310736498,52.61305845129237"></polygon></g><g transform="translate(-314.23071500000003 -1536.0642690999998) rotate(0)"><polygon id="137700115" class="tile" points="382.73926397,1907.24020655 366.658920083,1852.62266218 372.174113815,1840.29523289 366.73369123,1794.02401863 370.901044501,1791.98491303 378.434586779,1790.05782072 397.026268237,1843.84312685 375.38930559,1852.34443339 380.079963392,1862.51062113 395.988064459,1905.32388413 382.73926397,1907.24020655 " moovel_rot="-80" moovel_centroid="379.899883928,1844.77213787" moovel_centroidlatlon="13.458623975700386,52.45343559633832"></polygon></g><g transform="translate(74.9677436 -1955.1347257999998) rotate(0)"><polygon id="48869250" class="tile" points="12.6581516551,2211.98704561 31.6434603393,2212.01366702 40.1631569665,2212.02587979 40.1685390625,2217.93453347 40.2139413241,2282.04402939 12.7035445133,2282.00124829 12.6581516551,2211.98704561 " moovel_rot="34.6" moovel_centroid="26.4351046169,2247.01545507" moovel_centroidlatlon="13.515062687836766,52.412452645148086"></polygon></g><g transform="translate(6.590222400000016 -950.2458695) rotate(0)"><polygon id="42364327" class="tile" points="121.982646638,1201.43417402 143.171928353,1201.0 143.034156127,1289.77187448 122.490430367,1290.0119208 121.982646638,1201.43417402 " moovel_rot="-0.7" moovel_centroid="132.672915247,1245.3256841961809" moovel_centroidlatlon="13.55827171363321,52.53995376322684"></polygon></g><g transform="translate(29.446364799999998 -1204.6489575) rotate(0)"><polygon id="140381740" class="tile" points="147.57527358,1538.12330667 125.300200946,1538.11837941 125.315811564,1455.2173765 147.584205041,1455.22231617 147.57527358,1538.12330667 " moovel_rot="-0.1" moovel_centroid="136.443872165,1496.67241648" moovel_centroidlatlon="13.528855724936868,52.52729498108171"></polygon></g><g transform="translate(-84.3644611 -2048.6085980999997) rotate(0)"><polygon id="419410232" class="tile" points="266.394124804,2307.44024037 295.14285115,2308.80293151 292.198323558,2373.64549945 267.006814842,2372.93312099 266.410563757,2367.05260588 266.394124804,2307.44024037 " moovel_rot="74.4" moovel_centroid="280.045229008,2340.07798478" moovel_centroidlatlon="13.370881112119466,52.50954923193482"></polygon></g><g transform="translate(-216.5971377 -1535.6075968) rotate(0)"><polygon id="174786239" class="tile" points="249.018967281,1790.0708534 245.338225906,1790.06898632 219.121727789,1790.05782072 219.09713581,1848.55134089 229.862023206,1848.613654 246.805036645,1848.56264945 248.994244554,1848.56443904 249.018260954,1795.73332918 249.018967281,1790.0708534 " moovel_rot="63.4" moovel_centroid="234.057441773,1819.32401893" moovel_centroidlatlon="13.670360519125484,52.44723479233486"></polygon></g><g transform="translate(-74.05730709999997 -1937.5634228000001) rotate(0)"><polygon id="183258392" class="tile" points="318.302575895,2211.98704561 327.837050236,2213.25451899 329.989542636,2260.6121037 288.580003662,2262.69129528 288.640187074,2224.14492214 292.674297599,2224.0852367 302.152345983,2221.40673261 311.473831318,2217.45086051 318.302575895,2211.98704561 " moovel_rot="-70.2" moovel_centroid="309.760685783,2239.90458337" moovel_centroidlatlon="13.517796110719207,52.494931224995256"></polygon></g><g transform="translate(-311.5845825 -2004.8499124) rotate(0)"><polygon id="60111152" class="tile" points="518.56761379,2211.98704561 534.367969198,2212.09876698 541.570339262,2212.2730245 547.385133106,2212.42028899 553.837613533,2212.82316019 553.835777375,2275.0033897 534.437565918,2276.69045013 534.317309509,2272.41023523 527.362292433,2269.23003862 527.346007595,2234.37249267 533.625928287,2234.3158492 533.617972554,2217.79671883 518.357663371,2217.34574128 518.422675778,2215.73173372 518.56761379,2211.98704561 " moovel_rot="6.1" moovel_centroid="540.88295769,2243.71531849" moovel_centroidlatlon="13.400029390884853,52.57981569076638"></polygon></g><g transform="translate(52.862588300000006 -1253.9604965) rotate(0)"><polygon id="106713655" class="tile" points="0.0138378641568,1455.2173765 0.0,1478.34985514 13.654672414,1478.37225533 13.6481335608,1494.06955586 15.9051951715,1494.08037066 15.8983758833,1506.06515856 33.8547690868,1506.08537275 33.862820403,1496.54630306 40.7861327374,1496.54073056 41.2918784115,1463.9895519 40.3013641153,1455.26375451 0.0138378641568,1455.2173765 " moovel_rot="6.4" moovel_centroid="23.08600691653546,1476.74399859" moovel_centroidlatlon="13.3044198079085,52.512520783146485"></polygon></g><g transform="translate(-55.246936799999986 -1182.2969676) rotate(0)"><polygon id="207143109" class="tile" points="186.26806592,1693.19691545 201.918743481,1693.55486598 202.493767521,1663.90948263 202.660552297,1655.40373443 202.90824859,1648.73086432 202.605004782,1620.91601122 202.29580944,1599.69069599 186.302582206,1599.72112588 186.26806592,1693.19691545 " moovel_rot="-33.9" moovel_centroid="194.400135564,1646.35030053" moovel_centroidlatlon="13.438073549003661,52.53914615619364"></polygon></g><g transform="translate(-416.11552009999997 -1396.8119357) rotate(0)"><polygon id="86925147" class="tile" points="418.922337006,1644.91107871 418.615407378,1611.03638517 425.938290847,1611.11657497 427.685645546,1599.69069599 456.183355352,1600.33648206 456.14321828,1646.62200986 418.922337006,1644.91107871 " moovel_rot="-9.0" moovel_centroid="438.365077156,1623.82788038" moovel_centroidlatlon="13.386026290787562,52.46345521234688"></polygon></g><g transform="translate(166.2876425 -2116.576035) rotate(0)"><polygon id="317350572" class="tile" points="7.34579390399,2315.36612173 6.20627866052,2315.14851214 6.29952304121,2318.49521883 6.25102761369,2319.22524319 6.17212609425,2319.94292091 5.85232912637,2322.24243401 5.73959383015,2324.38092658 5.75994844325,2324.41802697 5.00325225703,2328.7820738 4.97360123321,2329.02955095 5.24960092027,2329.07674351 3.92532466482,2333.21031997 3.7126499936,2333.18163223 3.74021542389,2334.82922541 3.70269022342,2334.97979065 3.39319216758,2336.4688901 3.33782523349,2336.57616651 2.85761622973,2337.67155096 3.11342903338,2337.73938171 2.805116776,2342.24945433 1.56108427718,2346.12726198 1.5612520488,2346.18500059 1.01202126928,2347.04330269 0.870881359465,2347.2455089 0.0,2348.02366392 0.322405559756,2348.36363475 0.314950849861,2348.41106938 0.615160016902,2348.9510827 1.47439969517,2348.5214322 1.97253794968,2348.37047345 2.15974826496,2348.34556833 2.71132771745,2348.29560671 2.83286797665,2348.31612385 3.27069736496,2348.31368767 3.36442832686,2348.34453905 7.39049984347,2349.04221178 6.8030830035,2352.4369271 6.94154549316,2353.05543812 6.98493517376,2353.181189 7.06032438297,2353.86780315 7.0619179057,2354.41631982 7.03251834288,2354.75040481 6.71740691867,2356.04979583 6.71757465564,2356.10753443 5.93422833402,2357.39701524 5.34404677134,2360.711311 5.29471200351,2361.15264211 27.5318952564,2365.06397033 27.5965591947,2364.67211661 27.8978533594,2364.71516257 28.699033045,2359.97990284 27.5089332394,2359.77058822 27.3823659774,2358.89018137 27.4043949863,2358.63240042 27.4832978105,2357.91472323 27.6434505953,2357.28770871 27.7164075248,2357.13711319 28.0538021296,2356.53881624 28.9705008276,2356.72361991 29.7298834875,2352.41112561 31.5155362744,2352.89831327 31.5737512959,2352.90032551 32.8385679709,2353.56529932 32.9957067478,2353.64352439 33.8173350183,2354.20783497 34.5657547435,2354.83613318 36.0151830118,2355.45352021 37.4297631003,2354.52848901 36.6686814599,2346.05186336 31.7098480364,2344.86009432 36.7135134062,2317.91245338 36.3083528006,2317.83444045 36.5919688655,2316.14740233 36.6425615463,2316.13911065 37.3848557571,2312.04315058 9.57301935386,2307.55505215 8.79318356551,2307.44024037 7.34579390399,2315.36612173 " moovel_rot="-67.9" moovel_centroid="19.612698068024436,2335.60663024" moovel_centroidlatlon="13.436667722256017,52.47850798732617"></polygon></g><g transform="translate(-157.07762110000002 -995.1574773) rotate(0)"><polygon id="184185718" class="tile" points="297.280240772,1241.06330276 256.168182785,1242.05672596 256.212506985,1206.47002627 261.209985987,1206.18780965 263.788636237,1201.13158714 294.34680914,1201.0 296.992904528,1214.26993777 297.280240772,1241.06330276 " moovel_rot="-56.9" moovel_centroid="276.705829271,1221.8830299153992" moovel_centroidlatlon="13.544923043468067,52.43334617430081"></polygon></g><g transform="translate(-27.01287709999997 -1625.0684069000001) rotate(0)"><polygon id="222676076" class="tile" points="287.532339021,1790.05782072 287.390397962,1895.54415709 274.885920377,1894.93920718 273.838763712,1790.3840534 287.532339021,1790.05782072 " moovel_rot="77.9" moovel_centroid="280.91823032,1841.93423555" moovel_centroidlatlon="13.592581976956266,52.52286253269516"></polygon></g><g transform="translate(-424.9353407 -1754.1057878) rotate(0)"><polygon id="197671096" class="tile" points="558.224455903,1909.21029431 557.943622357,1954.92286892 592.433066943,1955.12925979 592.379270877,1909.62844353 558.224455903,1909.21029431 " moovel_rot="-48.3" moovel_centroid="575.231541096,1932.25958908" moovel_centroidlatlon="13.64387192764878,52.37890756791449"></polygon></g><g transform="translate(68.1135696 -1345.0223689) rotate(0)"><polygon id="60001366" class="tile" points="175.469668128,1456.67478308 149.616674532,1455.2173765 148.584205041,1467.20126635 162.203781569,1467.89170004 158.631056751,1547.36842732 170.405509061,1547.90641883 171.761098585,1534.05049255 173.963856955,1511.56057507 175.470718849,1490.23386723 175.475516185,1465.10628476 175.469668128,1456.67478308 " moovel_rot="74.9" moovel_centroid="166.029889813,1496.66903624" moovel_centroidlatlon="13.214479699246786,52.538118885127425"></polygon></g><g transform="translate(-153.6476831 -2209.6907933) rotate(0)"><polygon id="175902083" class="tile" points="254.064170154,2307.44024037 251.331214377,2356.49609667 251.730475955,2410.47354499 265.331945063,2410.64384224 265.394124804,2307.49877189 254.064170154,2307.44024037 " moovel_rot="-91.9" moovel_centroid="258.70162047,2360.43109095" moovel_centroidlatlon="13.503178759432949,52.52040271585981"></polygon></g><g transform="translate(-466.307575 -1642.3693438999999) rotate(0)"><polygon id="385888109" class="tile" points="470.48762854,1790.09442608 481.159683225,1790.39169232 486.514576939,1790.42738542 490.169386601,1790.33624584 493.672048332,1790.34436105 497.386422091,1790.1019649 500.514832009,1790.19667673 501.402881807,1790.12554088 501.408554392,1836.91332767 496.891087672,1836.7338759 496.742264503,1838.74603517 477.739022634,1838.59724912 477.591795814,1840.34034578 471.186506094,1840.27277983 470.513492626,1797.92286106 468.806618783,1797.93351127 469.025485197,1790.05782072 470.48762854,1790.09442608 " moovel_rot="-26.2" moovel_centroid="485.805806117,1814.25994365" moovel_centroidlatlon="13.415452140853022,52.4891894243168"></polygon></g><g transform="translate(-87.20668880000001 -1534.6434692) rotate(0)"><polygon id="154384099" class="tile" points="204.106065417,1733.0499156 205.199394372,1734.29020432 206.64693706,1735.26889892 207.816088198,1735.50605238 209.139431532,1735.5715794 210.671844634,1735.03718575 212.02088716,1733.93693584 212.771247629,1731.09083333 212.859253954,1618.96212482 212.725328262,1602.73661436 211.907082231,1601.05223321 210.320557149,1599.95340818 208.553716895,1599.69069599 206.50631744,1599.93880658 205.453703191,1600.52149288 204.715683589,1601.21835924 203.90824859,1602.920249 204.106065417,1733.0499156 " moovel_rot="16.2" moovel_centroid="208.406194982,1667.26979851" moovel_centroidlatlon="13.344763459386535,52.476686249228564"></polygon></g><g transform="translate(-186.2706317 -2228.8212722999997) rotate(0)"><polygon id="376561192" class="tile" points="225.262859425,2307.44024037 232.113248349,2316.22567135 213.34165866,2329.2757156 232.077323067,2360.15526485 212.173837315,2371.81569004 188.522983346,2332.44950539 225.262859425,2307.44024037 " moovel_rot="-12.6" moovel_centroid="211.904154153,2340.74754456" moovel_centroidlatlon="13.520445328674803,52.63955748732522"></polygon></g><g transform="translate(-21.801446099999993 -1720.7058174) rotate(0)"><polygon id="152709275" class="tile" points="57.319634769,1825.79923756 92.1613354285,1790.05782072 98.7368652853,1793.84548032 98.7550662597,1841.24505524 95.326210977,1849.19038251 73.4889733162,1839.37379301 75.8525060477,1834.12385922 57.319634769,1825.79923756 " moovel_rot="10" moovel_centroid="84.6884452796,1820.93524615" moovel_centroidlatlon="13.532808192888352,52.4061086785018"></polygon></g><g transform="translate(130.4710598 -1521.2385419) rotate(0)"><polygon id="363451954" class="tile" points="36.9864122875,1659.83609637 24.1505526239,1671.67121888 1.63619082235,1642.13302935 0.0,1632.48393789 18.8133783884,1616.42651324 9.19759740606,1605.18295871 16.4085945653,1599.69069599 37.0166617714,1617.43016512 30.1180239514,1626.40968975 17.2694583977,1638.70248495 36.9864122875,1659.83609637 " moovel_rot="70.6" moovel_centroid="18.91770516374617,1635.84622065" moovel_centroidlatlon="13.539580961363177,52.4530745980958"></polygon></g><g transform="translate(-330.09545249999996 -1714.6067484) rotate(0)"><polygon id="385207024" class="tile" points="515.034649669,1801.38020899 511.356119982,1801.32458543 511.546133522,1800.61768675 512.428756883,1799.36539641 513.755341655,1798.44768771 514.864011234,1798.06336974 516.435569091,1798.0264136 518.147828272,1798.40539968 519.732649751,1799.42140482 520.8569008,1800.93068443 520.23884886,1790.05782072 518.445894645,1791.57702605 516.636399744,1792.18025605 502.76501131,1792.37214525 502.408554392,1869.68152434 518.19166208,1869.96861399 520.190036565,1871.78587748 520.870343846,1873.62952263 520.691137525,1861.02688126 520.257048049,1861.61923332 519.541260099,1862.59750441 518.00430228,1863.46595112 514.248011947,1863.71353552 512.541458057,1863.63225923 511.360563399,1863.01659729 510.284898977,1861.88812385 510.126891816,1860.72196121 514.854009125,1860.49192467 515.034649669,1801.38020899 " moovel_rot="62.7" moovel_centroid="509.444621579,1831.1706567" moovel_centroidlatlon="13.550250655912636,52.550415665011116"></polygon></g><g transform="translate(-105.58338349999997 -1268.8458448000001) rotate(0)"><polygon id="383077395" class="tile" points="347.389939358,1909.3112883 347.332057443,2064.61392697 352.33972011,2058.61940295 352.001713988,1909.21029431 347.389939358,1909.3112883 " moovel_rot="-5.2" moovel_centroid="349.751995218,1986.50684887" moovel_centroidlatlon="13.321774568947472,52.50082221747971"></polygon></g><g transform="translate(-311.6201172 -1141.5063476999999) rotate(0)"><polygon id="35078550" class="tile" points="314.12021868,2307.44024037 314.096605049,2310.70660258 314.120129004,2341.50635867 347.815023627,2341.50452319 347.814922726,2307.44932304 334.71506265,2307.45010324 326.658923321,2307.44059086 314.12021868,2307.44024037 " moovel_rot="1.0" moovel_centroid="330.960397448,2324.47373313" moovel_centroidlatlon="13.443147942212404,52.41813118646764"></polygon></g><g transform="translate(-230.6132508 -1917.0086553) rotate(0)"><polygon id="295810279" class="tile" points="233.133916588,2369.37911721 233.113248349,2307.47478259 250.304363879,2307.44024037 250.331214377,2369.34204581 233.133916588,2369.37911721 " moovel_rot="-21.6" moovel_centroid="241.720628266,2338.4109017" moovel_centroidlatlon="13.585605113950814,52.522832884364405"></polygon></g><g transform="translate(-280.45522769999997 -1650.7500888) rotate(0)"><polygon id="36996850" class="tile" points="330.151174669,1809.52394524 328.962177606,1804.46616082 325.361439176,1800.19190319 320.466300792,1796.87079342 322.415103693,1790.05782072 331.754125708,1792.82681835 339.486641897,1797.75107399 344.075044676,1803.26498566 346.552122031,1810.60117857 348.912394976,1820.68709864 349.284652328,1826.41632239 350.228943562,1839.78459529 338.920986445,1842.42537186 332.669708649,1843.24572257 328.559944662,1843.18526663 320.4447346,1841.01971565 330.151174669,1809.52394524 " moovel_rot="19.8" moovel_centroid="335.764522784,1820.39718347" moovel_centroidlatlon="13.282820618511094,52.50133129933282"></polygon></g><g transform="translate(-92.79159529999998 -1726.2999489) rotate(0)"><polygon id="221110722" class="tile" points="319.436352385,1790.05827068 319.4447346,1810.05186409 309.876628831,1810.05402433 307.932511624,1810.0575013 307.954447442,1832.21530131 288.563640117,1832.21582064 288.532339021,1790.05782072 319.436352385,1790.05827068 " moovel_rot="81.8" moovel_centroid="301.635362952,1808.70173477" moovel_centroidlatlon="13.395846262127044,52.466343674837226"></polygon></g><g transform="translate(-97.33035000000001 -1528.1555014) rotate(0)"><polygon id="255562775" class="tile" points="179.265150135,1599.69069599 179.312929462,1724.44596924 185.26806592,1724.44620883 185.220336373,1599.69087729 179.265150135,1599.69069599 " moovel_rot="40.5" moovel_centroid="182.266620671,1662.0683509" moovel_centroidlatlon="13.349165900000003,52.54562155"></polygon></g><g transform="translate(-265.3019858 -2084.5523759999996) rotate(0)"><polygon id="27942606" class="tile" points="487.021315609,2211.98704561 460.700286274,2212.35458039 461.190327541,2252.94100729 486.273159612,2252.55736302 487.016398128,2216.34235729 487.021315609,2211.98704561 " moovel_rot="-90.8" moovel_centroid="473.813986277,2232.28929254" moovel_centroidlatlon="13.585020926860357,52.54020954155172"></polygon></g><g transform="translate(-436.6019427 -675.7119792) rotate(0)"><polygon id="218897156" class="tile" points="475.256220078,1201.45406716 474.38069102,1236.73232259 503.949570301,1237.48885008 503.944340879,1201.0 475.256220078,1201.45406716 " moovel_rot="-15.4" moovel_centroid="489.463168189,1219.2611523769974" moovel_centroidlatlon="13.620431669330086,52.506024391433215"></polygon></g><g transform="translate(-153.9711443 -856.3738596) rotate(0)"><polygon id="448827208" class="tile" points="413.464820348,1790.07306811 398.037779716,1790.05782072 398.026268237,1852.01159872 413.465297044,1852.03133944 413.464820348,1790.07306811 " moovel_rot="79.1" moovel_centroid="405.74863397,1821.04746754" moovel_centroidlatlon="13.574581834406974,52.559630418887316"></polygon></g><g transform="translate(-274.03817000000004 -1332.9711765000002) rotate(0)"><polygon id="254871724" class="tile" points="491.64763229,1946.17281803 491.64763229,1909.21029431 505.885866056,1909.21029431 518.064998554,1909.21029431 518.064998554,1946.17281803 491.64763229,1946.17281803 " moovel_rot="-90" moovel_centroid="504.856315422,1927.69155617" moovel_centroidlatlon="13.267387099999999,52.5322371"></polygon></g><g transform="translate(-219.09336860000002 -867.0626235) rotate(0)"><polygon id="170766289" class="tile" points="478.586519238,1944.42637353 473.730922396,1909.21029431 460.58643671,1910.74810901 460.195066458,1915.98887529 453.168035105,1918.50918761 453.149307389,1960.34771466 478.586519238,1944.42637353 " moovel_rot="-83.1" moovel_centroid="464.540640272,1933.28592228" moovel_centroidlatlon="13.198051221861085,52.55374136635724"></polygon></g><g transform="translate(68.16968680000002 -1844.0963289000001) rotate(0)"><polygon id="448826982" class="tile" points="188.000577396,1909.4658242 180.416821662,1909.21029431 180.410126495,2004.37100543 188.705168054,2003.82371931 188.000577396,1909.4658242 " moovel_rot="78.7" moovel_centroid="184.380275522,1957.42815675" moovel_centroidlatlon="13.572993447468184,52.55997865379736"></polygon></g><g transform="translate(-301.8986972 -955.3894593) rotate(0)"><polygon id="29546830" class="tile" points="412.576234342,1946.09123703 428.70326917,1945.17150368 437.083417228,1944.15898368 437.920232502,1944.15916632 437.949089401,1909.21029431 410.347120034,1910.35207641 412.151604562,1937.87276219 412.576234342,1946.09123703 " moovel_rot="25.6" moovel_centroid="424.657594132,1927.26852499" moovel_centroidlatlon="13.377377057490998,52.529861060536795"></polygon></g><g transform="translate(-189.73309949999998 -784.4119221000001) rotate(0)"><polygon id="113631646" class="tile" points="314.795739702,1455.24992535 325.732031712,1455.23337539 336.134762803,1455.2173765 336.139512742,1497.87690338 314.800506839,1497.90950517 314.795739702,1455.24992535 " moovel_rot="-18.0" moovel_centroid="325.467628181,1476.56345759" moovel_centroidlatlon="13.312845749847378,52.549581899717566"></polygon></g><g transform="translate(-353.98900349999997 -1158.0386962) rotate(0)"><polygon id="104664714" class="tile" points="356.76004544,1201.13364523 368.718152488,1201.19054141 381.352083791,1201.0 380.599261931,1229.55650773 381.296659669,1238.56843708 369.087195766,1238.67425516 357.082501589,1238.71300094 357.096450848,1227.86932488 356.895167737,1220.09929801 356.44174227,1202.74733818 356.76004544,1201.13364523 " moovel_rot="48.1" moovel_centroid="368.911197431,1219.7445966811754" moovel_centroidlatlon="13.201233392503688,52.542069802675506"></polygon></g><g transform="translate(80.2051375 -1162.7235841) rotate(0)"><polygon id="47346520" class="tile" points="77.3495613386,1201.0 97.6672523481,1201.03544001 97.6643037745,1231.98012346 87.9139482488,1231.96203769 87.9149345683,1239.64297297 72.373364418,1239.6133812 72.3765226976,1209.99798986 77.344551964,1210.00775597 77.3495613386,1201.0 " moovel_rot="21.2" moovel_centroid="84.8724607683,1219.7468467155004" moovel_centroidlatlon="13.290685709153506,52.586024523003985"></polygon></g><g transform="translate(-6.542777700000002 -2275.4650863) rotate(0)"><polygon id="291862054" class="tile" points="112.783908739,2308.51761804 118.264796206,2309.22968291 117.169293758,2354.80403743 112.703643261,2354.85864442 112.00959881,2357.70882243 112.654787634,2359.91585743 114.839266418,2361.30888488 118.182411059,2361.7123182 118.281859607,2368.27663362 105.192767137,2367.50117408 106.74888072,2359.78638569 101.265978709,2358.97063714 102.982810559,2324.52157236 107.246190205,2324.9559338 108.028994584,2307.44024037 111.285553009,2308.18113597 112.783908739,2308.51761804 " moovel_rot="49.5" moovel_centroid="110.54941805,2338.8425006" moovel_centroidlatlon="13.368065214180294,52.57110084292921"></polygon></g><g transform="translate(-406.186642 -1162.0395979) rotate(0)"><polygon id="392450827" class="tile" points="451.368392626,1234.42207732 460.188264091,1234.30314004 460.169382507,1231.10577103 463.155966868,1231.14856343 463.132750565,1233.88939862 467.107693929,1233.98971051 466.931869382,1210.45722759 465.659466014,1208.70362073 462.984338643,1206.81222922 462.177115998,1206.52193288 459.998832323,1206.40596543 459.967393449,1201.13575156 446.07388097,1201.06226034 440.595511019,1201.0 440.734685367,1216.94794471 438.234225267,1217.00461197 438.213541955,1234.35560936 446.417563446,1234.33177495 451.368392626,1234.42207732 " moovel_rot="6.5" moovel_centroid="452.489810912,1218.6243262719204" moovel_centroidlatlon="13.377793306731832,52.51117234064194"></polygon></g><g transform="translate(46.76588959999998 -1324.3535135) rotate(0)"><polygon id="234971746" class="tile" points="213.859253954,1599.69069599 219.224039001,1599.9481403 218.814159348,1713.95515941 213.888028583,1713.94658584 214.188050417,1651.07717102 213.859253954,1599.69069599 " moovel_rot="3.8" moovel_centroid="216.525077484,1656.11062105" moovel_centroidlatlon="13.437345907376669,52.57363489697298"></polygon></g><g transform="translate(25.526469300000002 -1765.2662765) rotate(0)"><polygon id="330713656" class="tile" points="206.328474626,1790.05782072 216.46775226,1790.13813235 218.09713581,1853.13237982 214.7694483,1871.81724969 206.349416171,1868.95259457 210.217697923,1852.27854815 206.328474626,1790.05782072 " moovel_rot="39.2" moovel_centroid="212.658903832,1828.87249232" moovel_centroidlatlon="13.33668574014206,52.56364606750464"></polygon></g><g transform="translate(-29.32778909999996 -1863.9672086) rotate(0)"><polygon id="185766643" class="tile" points="296.037318178,2023.66144579 291.202577918,2023.67489563 291.156059231,1909.22373096 295.990801063,1909.21029431 296.037318178,2023.66144579 " moovel_rot="-6.8" moovel_centroid="293.59668905,1966.44258858" moovel_centroidlatlon="13.50952575,52.573467199999996"></polygon></g><g transform="translate(-444.6784927 -1762.0859634) rotate(0)"><polygon id="221141598" class="tile" points="590.941740036,1825.16955049 564.576894684,1821.91730088 561.359846445,1796.43911579 591.058725989,1790.05782072 591.068309717,1823.53151133 590.941740036,1825.16955049 " moovel_rot="17.1" moovel_centroid="577.726316334,1808.02395118" moovel_centroidlatlon="13.308032605575853,52.63537317598611"></polygon></g><g transform="translate(-480.8404678 -1588.7534662) rotate(0)"><polygon id="352964068" class="tile" points="567.172956477,1653.39907529 551.597953536,1653.43141681 552.771034296,1599.69069599 559.119955372,1599.74179257 559.28301075,1615.63240321 564.952369786,1616.02713326 565.095352886,1626.25438218 571.44426637,1626.30546319 571.490084677,1653.61149814 567.172956477,1653.39907529 " moovel_rot="-26.0" moovel_centroid="560.362923442,1632.25391139" moovel_centroidlatlon="13.321258840740363,52.58399954275573"></polygon></g><g transform="translate(-2.670675799999998 -1437.4504623) rotate(0)"><polygon id="328790100" class="tile" points="210.830291626,1455.454035 210.951660938,1473.79427793 202.543539902,1474.23694674 199.706716037,1484.97958119 199.701033177,1496.15108305 185.54263319,1496.75475009 185.543484596,1455.2173765 210.830291626,1455.454035 " moovel_rot="66.8" moovel_centroid="196.032146065,1473.02945855" moovel_centroidlatlon="13.469568179031715,52.56451003621658"></polygon></g><g transform="translate(-217.7240454 -1594.4313373) rotate(0)"><polygon id="69162075" class="tile" points="220.244938522,1629.80998739 220.224039001,1599.71754256 242.677739195,1599.69069599 242.682093227,1605.43028539 249.057891357,1605.42490209 249.075003826,1629.77110245 220.244938522,1629.80998739 " moovel_rot="-85.0" moovel_centroid="234.154889917,1615.28236211" moovel_centroidlatlon="13.360683729692646,52.59825251471141"></polygon></g><g transform="translate(-188.7262948 -1196.2316787000002) rotate(0)"><polygon id="85928594" class="tile" points="255.168182785,1201.06055783 255.151695481,1230.28306756 227.877709521,1230.22520707 227.904778932,1201.0 255.168182785,1201.06055783 " moovel_rot="75.7" moovel_centroid="241.525379449,1215.6431525463395" moovel_centroidlatlon="13.320906012964246,52.56397302098069"></polygon></g><g transform="translate(-246.75459640000003 -1446.6454881) rotate(0)"><polygon id="72843211" class="tile" points="519.041900024,1455.2173765 519.045435895,1459.96800592 519.062844594,1484.46645666 519.0648912,1486.87216163 514.923698337,1486.88126005 494.136280275,1486.94309535 494.118124256,1459.28077328 494.108368474,1455.27848395 519.041900024,1455.2173765 " moovel_rot="-26.6" moovel_centroid="506.588609332,1471.07704077" moovel_centroidlatlon="13.367074864980777,52.41760652794922"></polygon></g><g transform="translate(-97.4721739 -2207.1176247999997) rotate(0)"><polygon id="119539532" class="tile" points="273.497589366,2211.98704561 271.309944278,2212.00431832 248.611541624,2212.20472589 248.906137532,2240.19194608 273.48499139,2240.4262837 273.497589366,2211.98704561 " moovel_rot="-40.7" moovel_centroid="261.15805658,2226.17262574" moovel_centroidlatlon="13.382753241156514,52.55062068530758"></polygon></g><g transform="translate(-71.37464940000004 -1450.0266566) rotate(0)"><polygon id="376556837" class="tile" points="284.661128884,1455.2173765 295.930794524,1455.23105083 295.921216415,1508.78490099 284.651565742,1508.77118747 284.654454362,1465.75712445 284.661128884,1455.2173765 " moovel_rot="20.9" moovel_centroid="290.289979093,1481.999971" moovel_centroidlatlon="13.521620077161499,52.639774005891525"></polygon></g><g transform="translate(-281.8589365 -817.8411533999999) rotate(0)"><polygon id="98041061" class="tile" points="337.139512742,1519.17017472 337.198910812,1455.46294751 343.749619199,1455.2173765 343.861035282,1519.3285559 337.139512742,1519.17017472 " moovel_rot="-45.3" moovel_centroid="340.490830364,1487.431694" moovel_centroidlatlon="13.200005155018328,52.570469523117254"></polygon></g><g transform="translate(-390.7842418 -1273.8320839000003) rotate(0)"><polygon id="360358303" class="tile" points="537.503973954,1823.82940776 521.876640883,1823.79769698 521.870343846,1790.05782072 529.333313878,1790.06967556 537.497717403,1790.08950961 537.503973954,1823.82940776 " moovel_rot="61.6" moovel_centroid="529.687164036,1806.94278185" moovel_centroidlatlon="13.327055339156157,52.52300815351576"></polygon></g><g transform="translate(2.51977389999999 -1628.191963) rotate(0)"><polygon id="247238053" class="tile" points="106.391581271,2278.94323024 111.161621426,2278.9382111 111.166920247,2211.98704561 106.396870126,2211.99206321 106.391581271,2278.94323024 " moovel_rot="-81.2" moovel_centroid="108.779248259,2245.46512588" moovel_centroidlatlon="13.296336800000011,52.565259399999995"></polygon></g><g transform="translate(-206.11293379999998 -1584.0910222) rotate(0)"><polygon id="379695807" class="tile" points="364.579830274,1790.05782072 364.687719204,1792.82510426 365.589052909,1816.19016324 365.658920083,1821.59006713 360.826966672,1821.78918068 358.085320768,1821.81670341 351.228943562,1821.90947786 351.25163563,1790.59621747 364.579830274,1790.05782072 " moovel_rot="-19.2" moovel_centroid="358.223770933,1806.27985681" moovel_centroidlatlon="13.358714057342617,52.50473383466745"></polygon></g><g transform="translate(-351.1851588 -1650.6496475) rotate(0)"><polygon id="286079650" class="tile" points="395.013407443,1909.21029431 395.133269847,1963.44680591 388.582312704,1963.51489033 388.670090368,1909.2629904 395.013407443,1909.21029431 " moovel_rot="1.8" moovel_centroid="391.849679998,1936.50433418" moovel_centroidlatlon="13.143178992118882,52.534001921404034"></polygon></g><g transform="translate(-371.48221320000005 -298.33499440000014) rotate(0)"><polygon id="238065176" class="tile" points="551.173271261,1201.03734199 538.334626544,1201.0 538.309596358,1230.95976252 551.148210308,1230.99712473 551.173271261,1201.03734199 " moovel_rot="56.7" moovel_centroid="544.741426848,1215.9985513336378" moovel_centroidlatlon="13.462820350000001,52.43707454999999"></polygon></g><g transform="translate(-550.4801269000001 -1214.4543091) rotate(0)"><polygon id="391484513" class="tile" points="554.837613533,2236.56037572 554.838727347,2211.98704561 561.810639125,2211.99254377 570.108814351,2211.99697214 570.107705708,2236.5703019 554.837613533,2236.56037572 " moovel_rot="-93.8" moovel_centroid="562.47321955,2224.27891603" moovel_centroidlatlon="13.303829296386487,52.47217050010683"></polygon></g><g transform="translate(-209.743789 -1969.378543) rotate(0)"><polygon id="381335002" class="tile" points="373.704919453,2307.44024037 373.680106489,2365.28098184 378.342282096,2360.26809156 378.367657987,2312.29103691 373.704919453,2307.44024037 " moovel_rot="72.7" moovel_centroid="375.951308906,2336.31639037" moovel_centroidlatlon="13.381986574847103,52.49388982803978"></polygon></g><g transform="translate(-104.12826109999999 -931.7227343) rotate(0)"><polygon id="23966003" class="tile" points="184.54263319,1455.2173765 184.512295183,1490.64343007 176.475516185,1490.7673336 176.499175373,1455.34121162 184.54263319,1455.2173765 " moovel_rot="0.6" moovel_centroid="180.507403612,1472.98988562" moovel_centroidlatlon="13.143285274594557,52.52381932239355"></polygon></g><g transform="translate(208.6265965 -2037.0424618) rotate(0)"><polygon id="316133661" class="tile" points="0.00376709382981,2239.21803137 0.0,2238.42732653 0.00391033720225,2211.99530233 10.6581516551,2211.98704561 10.6471565193,2239.20815283 0.00376709382981,2239.21803137 " moovel_rot="-81.5" moovel_centroid="5.327250811385882,2225.60057909" moovel_centroidlatlon="13.2854872207791,52.57644183607334"></polygon></g><g transform="translate(-110.8664469 -450.3934944) rotate(0)"><polygon id="95920915" class="tile" points="345.117522268,1487.19523159 344.861035282,1487.36764931 354.071249028,1487.07124872 353.07763162,1455.2173765 344.864463294,1455.54562467 345.117522268,1487.19523159 " moovel_rot="-85.1" moovel_centroid="349.288683343,1471.52765474" moovel_centroidlatlon="13.234534350716466,52.508218159781315"></polygon></g><g transform="translate(-208.88016149999999 -422.012471) rotate(0)"><polygon id="291847410" class="tile" points="264.705718012,1608.22732784 264.702079904,1599.69069599 250.075003826,1599.73678032 250.077805832,1607.54325476 250.087645366,1619.53982419 264.714704644,1619.49371665 264.705718012,1608.22732784 " moovel_rot="-35.9" moovel_centroid="257.393860611,1609.61523153" moovel_centroidlatlon="13.370722138076221,52.571072655494355"></polygon></g><g transform="translate(-310.2492663 -726.8392200999999) rotate(0)"><polygon id="25046583" class="tile" points="387.582312704,1909.26403401 387.568177937,1926.83926363 371.081814404,1926.78550148 371.095929325,1909.21029431 387.582312704,1909.26403401 " moovel_rot="41.5" moovel_centroid="379.332060352,1918.0247716" moovel_centroidlatlon="13.1871847,52.520937950000004"></polygon></g><g transform="translate(-314.773056 -1594.78203) rotate(0)"><polygon id="60608755" class="tile" points="403.205315228,1619.5400466 417.615407378,1620.08486666 417.58530604,1600.47316687 403.569629408,1599.69069599 403.205315228,1619.5400466 " moovel_rot="-11.6" moovel_centroid="410.478164762,1609.99185354" moovel_centroidlatlon="13.311219009574616,52.572038979818906"></polygon></g><g transform="translate(-245.03384720000003 -1518.7552858) rotate(0)"><polygon id="395133117" class="tile" points="490.633511394,1909.21029431 490.64763229,1925.85380932 490.142870136,1936.17738947 479.589654085,1933.59596006 480.095385267,1922.39792562 479.586519238,1911.68351582 490.633511394,1909.21029431 " moovel_rot="-48.4" moovel_centroid="485.376057007,1922.60356873" moovel_centroidlatlon="13.38755628876943,52.48353455713043"></polygon></g><g transform="translate(-188.30098250000003 -2301.7768185) rotate(0)"><polygon id="288271817" class="tile" points="307.562060879,2327.089948 313.096605049,2327.08845222 313.093457767,2307.45129757 306.353894285,2307.44024037 306.354659963,2315.35944159 296.14285115,2315.34699863 296.143334957,2327.07571501 307.562060879,2327.089948 " moovel_rot="10" moovel_centroid="305.699022549,2319.14388524" moovel_centroidlatlon="13.270479371916501,52.47412108543052"></polygon></g><g transform="translate(-111.29635760000002 -583.5409037000001) rotate(0)"><polygon id="338412106" class="tile" points="355.075134519,1459.50798423 356.366058781,1457.98276332 358.109484148,1455.47252147 361.170223843,1455.2173765 361.097742081,1457.3686275 367.112503316,1457.23980454 367.118824706,1470.67857683 361.281434057,1471.14680743 360.973067753,1475.54396087 364.098205438,1481.37991729 361.279315486,1483.37667951 359.368602467,1480.72496547 355.244123184,1480.5800976 355.215907532,1479.6719054 355.130747658,1476.87385974 355.071249028,1468.35144721 355.075134519,1459.50798423 " moovel_rot="-90.4" moovel_centroid="360.411695896,1467.67468094" moovel_centroidlatlon="13.383178574061585,52.4716198301835"></polygon></g><g transform="translate(51.7890884 -949.8651399) rotate(0)"><polygon id="242832771" class="tile" points="71.3586998599,1255.36080401 69.0467172891,1253.99023519 68.2763512403,1202.34759518 71.373364418,1201.0 71.3586998599,1255.36080401 " moovel_rot="-49.9" moovel_centroid="70.0159902116,1226.8609603283694" moovel_centroidlatlon="13.354678640987851,52.545620233074395"></polygon></g><g transform="translate(114.46317619999999 -1748.9390832) rotate(0)"><polygon id="220871440" class="tile" points="58.0138595214,1932.47300998 58.0254316384,1909.21029431 68.7681564193,1909.21288377 68.7473330164,1932.46672672 58.0138595214,1932.47300998 " moovel_rot="-77.6" moovel_centroid="63.388354881,1920.83905781" moovel_centroidlatlon="13.385538498310973,52.44180503131873"></polygon></g><g transform="translate(-340.49500969999997 -1281.0359372) rotate(0)"><polygon id="211681401" class="tile" points="519.133707381,1948.81232553 523.641391836,1948.8796763 523.769769732,1909.24018771 519.064998554,1909.21029431 519.133707381,1948.81232553 " moovel_rot="26.2" moovel_centroid="521.402956282,1928.89437519" moovel_centroidlatlon="13.292640622942086,52.57999773279313"></polygon></g><g transform="translate(-269.2746519 -804.7976767) rotate(0)"><polygon id="330713634" class="tile" points="467.806618783,1790.07643814 467.78806435,1813.95886658 458.00285198,1813.93676669 458.010998397,1790.05782072 467.806618783,1790.07643814 " moovel_rot="71.5" moovel_centroid="462.902254276,1802.00535808" moovel_centroidlatlon="13.341696970585351,52.56404243215919"></polygon></g><g transform="translate(-147.5528539 -1558.7867503) rotate(0)"><polygon id="269740980" class="tile" points="192.596604012,1790.05782072 205.328474626,1790.51216656 205.319064742,1802.81674819 205.217575754,1809.3659082 192.666733907,1809.49682289 192.614347736,1802.6424671 192.596604012,1790.05782072 " moovel_rot="80" moovel_centroid="198.928893472,1799.83843437" moovel_centroidlatlon="13.433472072907357,52.51690714535435"></polygon></g><g transform="translate(-212.3401314 -1195.9440336) rotate(0)"><polygon id="15378979" class="tile" points="342.135710621,1220.91310182 342.146233023,1202.4443278 354.958528756,1201.0 355.44174227,1218.8702586 347.885576872,1219.10955321 347.836168678,1221.23131264 342.135710621,1220.91310182 " moovel_rot="-58.6" moovel_centroid="348.574904187,1210.8866723398946" moovel_centroidlatlon="13.323681059720354,52.56903721572486"></polygon></g><g transform="translate(115.7356781 -850.8966260999999) rotate(0)"><polygon id="381753888" class="tile" points="135.969920345,1599.70233226 143.492419919,1599.69069599 143.514543345,1628.00788744 135.992045491,1628.01953215 135.969920345,1599.70233226 " moovel_rot="-11.5" moovel_centroid="139.742232087,1613.85511142" moovel_centroidlatlon="13.3959257,52.49705180000001"></polygon></g><g transform="translate(-234.9209974 -1182.3150089) rotate(0)"><polygon id="179239016" class="tile" points="387.360287,1599.69069599 402.205315228,1601.11791625 402.200918287,1616.69251061 389.577787538,1616.38705759 387.010794443,1613.35626828 387.360287,1599.69069599 " moovel_rot="-92.8" moovel_centroid="394.701487022,1608.37439528" moovel_centroidlatlon="13.623433174384243,52.448539704551045"></polygon></g><g transform="translate(-125.24214479999998 -523.0410760000001) rotate(0)"><polygon id="243582797" class="tile" points="336.211274168,1201.0 341.135710621,1201.01413023 341.135660296,1237.16617573 336.215689475,1237.15701237 336.211274168,1201.0 " moovel_rot="48.2" moovel_centroid="338.674527245,1219.081596221662" moovel_centroidlatlon="13.300056994022155,52.57393981618288"></polygon></g><g transform="translate(93.52417369999999 -1146.2323483) rotate(0)"><polygon id="185766655" class="tile" points="45.6135402211,2346.19948139 49.9084896368,2346.23234821 49.8537658126,2307.44024037 45.9027509158,2307.55409534 45.6135402211,2346.19948139 " moovel_rot="38.4" moovel_centroid="47.8201525359,2327.12604013" moovel_centroidlatlon="13.506983612404149,52.57362115131995"></polygon></g><g transform="translate(-289.15114819999997 -1487.0557297) rotate(0)"><polygon id="247228016" class="tile" points="524.769769732,1930.22176875 525.670849941,1933.06347922 536.040971941,1936.36148655 536.039241903,1925.96621436 535.175126604,1909.21029431 534.561526325,1910.44429111 524.769769732,1930.22176875 " moovel_rot="1.5" moovel_centroid="531.84557342,1925.85201729" moovel_centroidlatlon="13.30513538948268,52.56894153983575"></polygon></g><g transform="translate(170.5335355 -1440.9114321000002) rotate(0)"><polygon id="373625572" class="tile" points="44.6135402211,2340.07571613 44.5767687401,2307.97409364 40.9469816524,2307.44024037 39.4297631003,2339.20266668 44.6135402211,2340.07571613 " moovel_rot="-17.8" moovel_centroid="42.3710257246,2324.61298199" moovel_centroidlatlon="13.439793103036916,52.44940724752185"></polygon></g><g transform="translate(-30.224801300000024 -1102.8961092) rotate(0)"><polygon id="257246523" class="tile" points="281.981786324,1930.14876942 281.988734268,1909.21637717 290.156059231,1909.21029431 290.151297369,1930.13637526 281.981786324,1930.14876942 " moovel_rot="-70.8" moovel_centroid="286.06926398,1919.67842066" moovel_centroidlatlon="13.50717866736038,52.59700150036096"></polygon></g><g transform="translate(-213.4927003 -2078.5423797) rotate(0)"><polygon id="387212534" class="tile" points="287.578887693,2211.98704561 287.580003662,2228.13677122 285.218859279,2230.7373256 274.497589366,2220.54394817 277.46109233,2217.23283685 277.508575226,2212.22783856 287.578887693,2211.98704561 " moovel_rot="56.1" moovel_centroid="282.552830797,2220.03134718" moovel_centroidlatlon="13.42375179540466,52.44319798512638"></polygon></g><g transform="translate(94.3279345 -462.69233099999997) rotate(0)"><polygon id="70130329" class="tile" points="109.198391531,1455.2173765 112.649679126,1455.22546294 118.444493555,1455.23836168 118.447444965,1471.84837483 113.088342665,1471.8330005 109.196413529,1471.82288271 109.198391531,1455.2173765 " moovel_rot="42.3" moovel_centroid="113.821901944,1463.53239869" moovel_centroidlatlon="13.532956883946113,52.43508689692106"></polygon></g><g transform="translate(-155.3539005 -642.1891392999999) rotate(0)"><polygon id="111490468" class="tile" points="178.604345178,1803.12849477 191.594679753,1803.12908529 191.596604012,1794.84402573 188.105472206,1794.8419038 188.11152238,1790.05782072 178.601384125,1790.05963847 178.604345178,1803.12849477 " moovel_rot="-91.5" moovel_centroid="184.581579834,1797.0446935" moovel_centroidlatlon="13.285124612381829,52.48269832687461"></polygon></g><g transform="translate(-172.7364751 -857.6071132) rotate(0)"><polygon id="105537793" class="tile" points="222.167603336,1201.00206258 226.861493933,1201.0 226.877709521,1227.00763245 222.190490734,1227.00938158 222.167603336,1201.00206258 " moovel_rot="-2.7" moovel_centroid="224.524326734,1214.0016863036417" moovel_centroidlatlon="13.178860177209687,52.53267082811473"></polygon></g><g transform="translate(8.924098600000008 -1438.9601265000001) rotate(0)"><polygon id="390545073" class="tile" points="224.540464053,2211.98704561 224.5488191,2234.74792074 219.44634777,2233.92133695 219.837736228,2212.58665366 224.540464053,2211.98704561 " moovel_rot="33.2" moovel_centroid="222.118251306,2223.46576787" moovel_centroidlatlon="13.417905058016276,52.51974286480222"></polygon></g><g transform="translate(23.6203984 -817.8362545) rotate(0)"><polygon id="133039328" class="tile" points="53.4274159082,1467.61369498 53.4330502772,1455.2173765 43.2943263731,1455.24031215 43.2918784115,1467.63076052 53.4274159082,1467.61369498 " moovel_rot="-61.6" moovel_centroid="48.3620675401,1461.42521081" moovel_centroidlatlon="13.283751532119847,52.440615898190465"></polygon></g><g transform="translate(-424.6355187 -634.7095998000001) rotate(0)"><polygon id="204678398" class="tile" points="468.116100749,1201.0 473.38069102,1201.01143195 473.372283649,1218.75773944 468.107693929,1218.74630431 468.116100749,1201.0 " moovel_rot="9.8" moovel_centroid="470.744192416,1209.8788687699393" moovel_centroidlatlon="13.2671835,52.416895700000005"></polygon></g><g transform="translate(-178.5011758 -2078.8853509) rotate(0)"><polygon id="48518677" class="tile" points="181.009461275,2211.98704561 181.001180483,2221.57359377 189.943101577,2221.58888783 189.940682805,2212.00471171 181.009461275,2211.98704561 " moovel_rot="77.5" moovel_centroid="185.473420419,2216.78951568" moovel_centroidlatlon="13.312764163374721,52.57470907145408"></polygon></g><g transform="translate(-58.9103536 -1070.3467059) rotate(0)"><polygon id="91711653" class="tile" points="83.6024829172,1455.22656036 88.5879693465,1455.2173765 88.6004994983,1467.60047828 83.6044300182,1467.60686598 83.6024829172,1455.22656036 " moovel_rot="-75.2" moovel_centroid="86.0989412008,1461.41500776" moovel_centroidlatlon="13.323466368692799,52.519982219049425"></polygon></g><g transform="translate(-48.1047132 -1074.872294) rotate(0)"><polygon id="131293430" class="tile" points="98.6672523481,1201.0 104.754916701,1201.01488879 104.745624857,1208.47007633 98.668673759,1208.45279284 98.6672523481,1201.0 " moovel_rot="77.4" moovel_centroid="101.709282256,1204.7333459492218" moovel_centroidlatlon="13.223430084564711,52.624290728642926"></polygon></g><g transform="translate(-308.5402246 -1362.3306131) rotate(0)"><polygon id="249629285" class="tile" points="367.128523753,2307.44024037 372.680106489,2307.44632033 372.67971594,2315.05694782 367.128135391,2315.05086726 367.128523753,2307.44024037 " moovel_rot="74.5" moovel_centroid="369.90412043,2311.24859369" moovel_centroidlatlon="13.301120050000002,52.46920614999999"></polygon></g><g transform="translate(-119.463488 -778.2187891) rotate(0)"><polygon id="387212526" class="tile" points="149.279441963,1208.58885032 144.171928353,1208.59013294 144.177027376,1201.00128224 149.284542662,1201.0 149.279441963,1208.58885032 " moovel_rot="-77.4" moovel_centroid="146.728235068,1204.7950661669943" moovel_centroidlatlon="13.4239741,52.44365175"></polygon></g><g transform="translate(-51.509154499999994 -729.6395431) rotate(0)"><polygon id="99252840" class="tile" points="119.447444965,1455.23878181 124.300200946,1455.2173765 124.291477414,1463.01853155 119.463382433,1463.07436316 119.447444965,1455.23878181 " moovel_rot="3.5" moovel_centroid="121.873838627,1459.13396024" moovel_centroidlatlon="13.178620820263523,52.531832554105165"></polygon></g><g transform="translate(-187.2077815 -1821.7726339) rotate(0)"><polygon id="331734984" class="tile" points="194.186115568,1909.21029431 189.705168054,1909.95270077 190.039273685,1917.25616472 194.186116565,1916.35524739 194.186115568,1909.21029431 " moovel_rot="70.6" moovel_centroid="192.017100778,1913.1497865" moovel_centroidlatlon="13.30009944623682,52.469370828995096"></polygon></g><g transform="translate(-158.5089728 -2183.8221438) rotate(0)"><polygon id="391245006" class="tile" points="161.008975624,2307.44024037 164.67927389,2307.51592804 164.547433184,2311.93160854 162.678760602,2311.8784433 161.012137303,2311.83251406 161.008975624,2307.44024037 " moovel_rot="-38.5" moovel_centroid="162.813979589,2309.66621064" moovel_centroidlatlon="13.38842330292087,52.536300937535096"></polygon></g></g><g transform="translate(0 1327.7)"><polygon id="12" class="bin" points="-443.590711556,1207.499999 -446.242361985,1206.40164943 -447.340711556,1203.749999 -447.340711556,3.75 -446.242361985,1.09834957055 -443.590711556,0.0 -169.202329271,0.0 -166.523961608,1.125338753 -165.453098439,3.8259484472 -167.104262289,85.3364288241 -167.105568783,85.4379171838 -167.961222523,241.266203783 -167.961289331,241.326458465 -167.427775854,404.309707475 -168.440649944,406.885330513 -170.944406927,408.064715488 -185.96475515,409.00119186 -189.780678694,410.779188684 -191.370430192,414.677295324 -191.634308547,434.265740392 -191.634927654,434.366309399 -191.298301517,724.969027923 -190.708765738,727.742178405 -175.112874133,762.875090352 -172.798363973,765.498958069 -169.56691117,766.282371939 -167.25230386,767.968640537 -166.802774678,770.796861232 -168.480478136,773.117684339 -169.395867581,773.682821578 -171.273371096,775.094175316 -173.003490074,776.998508213 -174.559067322,779.542535601 -175.453272198,781.880433256 -175.965241139,784.665078481 -175.918214969,786.19976606 -176.866173897,788.808797916 -177.206791311,789.191218455 -178.640989107,795.587326483 -157.737639482,866.545288013 -158.385204062,869.92064783 -194.44821234,915.85591956 -195.627061543,920.132403603 -193.406669852,923.972698116 -150.352739241,956.700644911 -148.909288444,959.159261129 -149.611904787,961.922352547 -194.486514372,1022.32558059 -195.550825676,1026.63337468 -193.226734365,1030.41338102 -181.328973499,1038.95770928 -178.591211494,1039.59930155 -176.497354048,1040.93456089 -175.697003366,1043.28543206 -176.182050015,1095.1806735 -177.283124511,1097.80016109 -179.905003615,1098.89552873 -186.651927996,1098.94389663 -205.770581239,1099.0675362 -209.80965673,1100.7629069 -211.481144989,1104.81192401 -211.505993456,1149.08458023 -211.516090809,1169.75875103 -211.539396369,1203.75256994 -212.638654178,1206.40255824 -215.289395487,1207.499999 -443.590711556,1207.499999 " moovel_rot="0" moovel_centroid="-313.19738321177203,593.7386718190526" moovel_centroidlatlon="0,0" transform="translate(447.3406982 0)"></polygon><g transform="translate(-51.93554760000002 -290.52115150000054) rotate(0)"><polygon id="98862004" class="tile" points="56.50235409,1459.57257253 54.4330502772,1458.34281391 55.3513024547,1457.02701063 56.5986294156,1455.2173765 57.7773908812,1456.06460702 58.1818481559,1455.31551879 65.0077604199,1460.07170129 82.6024829172,1460.86884118 80.5566841741,1490.52667178 59.1145297264,1489.10723633 59.06726269,1490.15533092 56.9591582218,1490.07201511 54.4777897872,1489.8914742 54.8015020159,1480.7622308 55.0056739817,1477.45327461 56.50235409,1459.57257253 " moovel_rot="-8.8" moovel_centroid="68.117409398,1474.51214623" moovel_centroidlatlon="13.409237733667391,52.48957213056095"></polygon></g><g transform="translate(-157.996192 -1181.9432974) rotate(0)"><polygon id="93903276" class="tile" points="187.522983346,2307.50267444 187.512094384,2342.2526983 165.67927389,2342.18658573 165.695738258,2307.44024037 187.522983346,2307.50267444 " moovel_rot="32.8" moovel_centroid="176.602713899,2324.84629003" moovel_centroidlatlon="13.299227033415251,52.44186269520009"></polygon></g><g transform="translate(-499.33286790000005 -474.8225259000001) rotate(0)"><polygon id="23724306" class="tile" points="535.448542876,1651.38286881 533.843545205,1629.73319946 538.964054591,1629.1778377 540.222624384,1626.73225474 536.991246401,1599.88886667 550.597953536,1599.69069599 550.578594264,1650.28001504 535.448542876,1651.38286881 " moovel_rot="-92.1" moovel_centroid="543.590224859,1626.7471702" moovel_centroidlatlon="13.290439129338967,52.53821628240433"></polygon></g><g transform="translate(-448.8793531 -61.613820799999985) rotate(0)"><polygon id="269389799" class="tile" points="509.747342587,1202.19764155 506.060500845,1207.70467485 505.537344973,1209.08126719 505.643350562,1210.79165277 504.949570301,1249.01534578 518.377141406,1262.02580282 518.298604197,1202.7570612 517.674745178,1201.76504819 516.913034568,1201.00599183 515.683763402,1201.0 514.924620534,1201.47792838 513.788457805,1202.42881797 512.459867071,1204.32979255 509.747342587,1202.19764155 " moovel_rot="44.9" moovel_centroid="512.212707134,1229.8247507582453" moovel_centroidlatlon="13.355894916139269,52.44178707659306"></polygon></g><g transform="translate(-278.8970129 -761.0050265) rotate(0)"><polygon id="9871766" class="tile" points="353.33972011,1916.93120527 358.653040445,1916.72762485 358.192131269,1910.2549071 363.716221906,1909.72279379 369.08663654,1909.21029431 369.505025275,1916.47610695 370.081814404,1925.53719914 364.752991066,1925.82853722 363.972395409,1925.88242728 364.10286461,1929.26663094 363.992459117,1931.33638943 364.128473413,1943.74164511 368.773512872,1943.80633002 368.528605362,1955.66120964 364.667455605,1955.72233755 364.688202841,1960.59151401 353.394249363,1961.00669715 353.354719384,1928.02390692 358.027490924,1928.04503445 357.994093017,1926.22235433 353.348577281,1926.13198859 353.33972011,1916.93120527 " moovel_rot="-32.4" moovel_centroid="360.698311549,1935.54282131" moovel_centroidlatlon="13.307397912243442,52.576603904623916"></polygon></g><g transform="translate(-402.86231439999995 -352.283369) rotate(0)"><polygon id="27689818" class="tile" points="471.826142244,1455.2173765 470.967742534,1486.67621408 482.17971318,1486.94365674 493.108368474,1494.08872496 493.107638298,1456.17107925 471.826142244,1455.2173765 " moovel_rot="49.3" moovel_centroid="482.604961441,1472.36357573" moovel_centroidlatlon="13.366962957248758,52.542341530930145"></polygon></g><g transform="translate(-188.4472886 -1136.7670545) rotate(0)"><polygon id="367643926" class="tile" points="190.972247166,2260.31645173 218.44634777,2234.50736576 215.096394432,2230.9411602 208.539179818,2223.26226148 203.723126656,2218.18749851 197.84651094,2211.98704561 191.378655473,2217.70816276 190.943101577,2225.22324632 191.838428693,2241.49304575 190.972247166,2260.31645173 " moovel_rot="-35.6" moovel_centroid="200.81490173,2234.29717523" moovel_centroidlatlon="13.29864809223599,52.512697213885275"></polygon></g><g transform="translate(-70.8434046 -134.98742470000002) rotate(0)"><polygon id="169523606" class="tile" points="105.781066149,1201.02363927 113.731368953,1201.0 113.979385979,1214.29166637 113.942163034,1226.88756172 120.982646638,1226.87334419 120.969801832,1254.8717733 114.174765682,1254.88353714 105.754916701,1254.90389076 105.781066149,1201.02363927 " moovel_rot="-49.8" moovel_centroid="112.20224857,1232.0001555626832" moovel_centroidlatlon="13.509250920576036,52.4561173720554"></polygon></g><g transform="translate(-466.42986320000006 -854.5994455) rotate(0)"><polygon id="320821780" class="tile" points="545.410326696,1909.21029431 556.90177445,1911.77468445 554.120766667,1926.61836353 556.40493949,1926.54928854 556.943622357,1953.49452559 552.878235915,1953.23944963 542.751177546,1951.13953551 537.040971941,1949.7530146 545.410326696,1909.21029431 " moovel_rot="-71.2" moovel_centroid="548.55121149,1933.39873245" moovel_centroidlatlon="13.3796707279053,52.39668427575633"></polygon></g><g transform="translate(-385.266608 -867.8455472999999) rotate(0)"><polygon id="326225025" class="tile" points="438.99569007,1909.6081346 440.635148631,1909.56506713 450.739988969,1909.24483983 451.949741541,1909.21029431 452.149307389,1956.59445787 451.21053329,1956.60252858 440.310582005,1956.63749658 438.949089401,1956.63829468 438.99569007,1909.6081346 " moovel_rot="-26.8" moovel_centroid="445.519578915,1933.08958995" moovel_centroidlatlon="13.421519771787484,52.51925801340556"></polygon></g><g transform="translate(-217.6370877 -1175.4032513) rotate(0)"><polygon id="105864348" class="tile" points="247.611541624,2211.98704561 247.544785397,2237.03675137 247.570894601,2244.52492539 229.654044398,2246.63224143 227.580564304,2230.29645212 225.5488191,2214.22872124 241.506917818,2212.62803615 247.611541624,2211.98704561 " moovel_rot="40.9" moovel_centroid="237.535170095,2228.79003766" moovel_centroidlatlon="13.354121985191961,52.55040607567238"></polygon></g><g transform="translate(-40.44959680000001 -1190.4842276) rotate(0)"><polygon id="295293328" class="tile" points="112.180162865,2212.01580735 112.166920247,2239.96388589 136.22017334,2240.55078147 136.326216098,2219.84890266 124.56472252,2219.97144435 124.324072914,2211.98704561 112.180162865,2212.01580735 " moovel_rot="-20" moovel_centroid="123.297684718,2227.74787939" moovel_centroidlatlon="13.375989153317613,52.50404189630352"></polygon></g><g transform="translate(-231.09512340000003 -449.1108841) rotate(0)"><polygon id="287236314" class="tile" points="271.01261666,1461.77659475 271.05757658,1455.2173765 278.110626633,1457.38648003 278.118102011,1464.49033391 283.651565742,1464.48290089 283.626154056,1466.62595002 283.615049005,1486.21177219 278.195443212,1486.2261594 278.198840669,1487.85451363 278.202485815,1495.61421588 266.076123408,1495.72072725 266.053973981,1461.78581327 271.01261666,1461.77659475 " moovel_rot="-2.0" moovel_centroid="274.101205324,1476.67784671" moovel_centroidlatlon="13.354430627828256,52.41309277174187"></polygon></g><g transform="translate(-346.3154257 -1329.1582674) rotate(0)"><polygon id="335689351" class="tile" points="352.219652879,2318.14220168 354.553846402,2345.87221314 351.724273799,2345.5342332 348.827917047,2359.77967708 363.471349077,2362.10229828 366.128135391,2347.32137655 363.83322751,2346.74203327 365.719449655,2334.77960962 359.182750945,2334.06271382 357.714829133,2319.64479965 356.214333225,2314.64184915 359.366674854,2310.23669244 356.284946622,2307.44024037 352.688670921,2309.91059416 350.739778773,2312.87806606 348.815023627,2315.81961465 352.219652879,2318.14220168 " moovel_rot="20.8" moovel_centroid="357.3184455,2340.20210875" moovel_centroidlatlon="13.434129148061148,52.458855855332075"></polygon></g><g transform="translate(-486.7376548 -809.9955090999999) rotate(0)"><polygon id="309651026" class="tile" points="538.503973954,1817.18041832 540.914452235,1790.05782072 560.359846445,1791.11223828 558.741950158,1811.95128292 560.355848392,1820.05168493 538.503973954,1817.18041832 " moovel_rot="75.0" moovel_centroid="549.712159657,1804.77176586" moovel_centroidlatlon="13.481612880961936,52.61025234190427"></polygon></g><g transform="translate(-228.2889665 -814.6967751999999) rotate(0)"><polygon id="61231779" class="tile" points="258.913236578,1790.05782072 265.250682055,1790.41046803 269.634433786,1793.75038116 271.810748269,1798.48630083 272.831662193,1803.04583939 272.838763712,1808.68378548 270.994704967,1812.97581139 255.011852713,1823.60098092 251.52121665,1817.11365993 250.018967281,1807.42940673 250.200443235,1801.99010033 255.860135834,1792.90909919 258.913236578,1790.05782072 " moovel_rot="75.1" moovel_centroid="261.051077247,1805.66855206" moovel_centroidlatlon="13.575758194202772,52.44460817763852"></polygon></g><g transform="translate(27.446736200000004 -1323.0627482999998) rotate(0)"><polygon id="13523395" class="tile" points="69.1151581072,2307.44024037 50.9084896368,2307.6923554 51.1820576935,2339.44465631 67.7105629922,2339.3382907 67.5214990408,2323.97581986 61.4817922019,2323.83547964 61.4034348485,2315.13420915 69.1033950555,2315.24292414 69.1151581072,2307.44024037 " moovel_rot="76.6" moovel_centroid="58.9747656763,2323.5920629" moovel_centroidlatlon="13.310437056206464,52.5702393670111"></polygon></g><g transform="translate(24.4881185 -856.9434257) rotate(0)"><polygon id="326610392" class="tile" points="69.7681564193,1920.56896272 72.9729778232,1956.99523945 84.5899045857,1955.82963892 81.2317426617,1919.64784542 79.9358258744,1919.98091407 80.5683687763,1918.51386854 81.4260484613,1916.91746437 82.755523057,1914.99796688 84.5916042168,1912.97429819 83.9161870563,1909.21029431 82.0950693829,1910.42407584 80.6075241484,1911.73842975 79.4108433544,1913.06347132 78.2998781121,1914.59118952 77.3546152289,1916.33056195 76.8217826495,1917.60476427 76.3674035492,1919.01495102 76.1018162922,1920.20386395 69.7681564193,1920.56896272 " moovel_rot="-17.7" moovel_centroid="77.4413100251,1936.25805571" moovel_centroidlatlon="13.472730127354074,52.55064670030369"></polygon></g><g transform="translate(4.997557699999987 -292.0177965999999) rotate(0)"><polygon id="286770432" class="tile" points="104.110949103,1455.24975054 101.865542012,1455.29367267 98.6686143767,1455.3546118 96.5510028118,1459.0137359 89.8515901925,1459.1664308 89.6004994983,1466.6847855 89.8934470002,1483.68776958 103.21693403,1483.46270751 104.383482351,1483.47065559 105.673185713,1483.48508276 108.196413529,1483.50979414 108.189350101,1455.2173765 104.110949103,1455.24975054 " moovel_rot="80.5" moovel_centroid="99.27868629,1470.15162006" moovel_centroidlatlon="13.180069308929713,52.50286858414693"></polygon></g><g transform="translate(55.9023654 -667.9753632) rotate(0)"><polygon id="316894772" class="tile" points="39.3506312167,1790.0729082 39.3024669887,1809.15630809 39.3411467798,1816.98948626 56.3101444101,1816.97437621 56.2399393242,1808.9683887 56.319634769,1790.05782072 39.3506312167,1790.0729082 " moovel_rot="-14.7" moovel_centroid="47.801780612,1803.5220498" moovel_centroidlatlon="13.449542191751602,52.51232348042789"></polygon></g><g transform="translate(61.891911099999994 -923.2145919000001) rotate(0)"><polygon id="157983686" class="tile" points="57.0052280997,1909.21029431 46.3477415377,1909.75662045 46.4259979658,1918.51036259 37.7467821045,1919.09035243 38.9056988829,1936.41332814 46.4105996301,1936.62526576 52.1161696047,1936.60667654 57.0138595214,1936.59244819 57.0036533799,1922.63027639 57.0052280997,1909.21029431 " moovel_rot="-26.0" moovel_centroid="48.617873037,1924.50342948" moovel_centroidlatlon="13.362652861269554,52.50134080502574"></polygon></g><g transform="translate(-221.11151539999997 -1193.6786623999997) rotate(0)"><polygon id="374421356" class="tile" points="330.989542636,2241.35914247 346.647970099,2242.37622645 346.621941366,2212.50276835 333.073297734,2211.98704561 330.989542636,2241.35914247 " moovel_rot="-24.3" moovel_centroid="339.336740711,2227.41606113" moovel_centroidlatlon="13.417773106906091,52.530142267713536"></polygon></g><g transform="translate(-407.54781720000005 -143.45545429999993) rotate(0)"><polygon id="23321854" class="tile" points="521.62076013,1230.35725115 519.895971258,1223.47770239 519.483704703,1219.68155988 519.377141406,1216.34003727 519.957166761,1209.98068691 521.226892875,1201.0 537.309596358,1203.53490176 535.843120919,1216.76583038 537.30550792,1225.43795672 532.511206011,1226.18474046 529.344118153,1228.46277237 521.62076013,1230.35725115 " moovel_rot="-84.1" moovel_centroid="527.938528994,1215.197945085197" moovel_centroidlatlon="13.308447084723944,52.57404849083249"></polygon></g></g></svg>