<svg xmlns="http://www.w3.org/2000/svg" version="1.1" width="792.5px" height="800px">
  <polygon class="149366255" points="463.847762901,7.75382400621 426.863890381,7.96885335464 406.542562122,13.8053656079 396.11888124,12.1957167055 377.614933722,11.3970360262 375.577960297,3.74813506249 370.013503336,-2.5 336.254008188,-1.48629097417 327.490059674,-1.8979182845 330.393204458,53.063657712 350.300077439,97.3660751477 426.114038274,97.538099803 424.750400432,79.8502907537 431.022526433,72.6006920006 449.759434848,56.8973376136 460.800369252,50.845776101 465.009940326,44.0016784303 463.847762901,7.75382400621 "/>
  <polygon class="242817959" points="476.472117167,102.538099803 316.952652826,102.611840413 316.027882833,124.482094584 329.955139839,124.844653193 331.351491065,130.547271268 349.625611452,132.132697853 375.703456077,132.968426673 393.106354909,134.854961777 475.9459637,135.64153024 476.472117167,102.538099803 "/>
  <polygon class="27368516" points="304.294417831,179.20359553 394.370810303,140.64153024 470.699303022,244.442878594 488.205582169,268.25013542 439.42177643,291.043442608 360.784675809,188.329455422 324.217140249,204.565512719 304.294417831,179.20359553 "/>
  <polygon class="74602963" points="407.314816691,384.436996736 404.428986536,383.146754986 376.675731508,363.522808032 358.539252053,349.65581001 341.315517074,336.077593996 340.436525235,334.787357008 340.670812206,333.699871644 341.054818987,332.938017546 351.768028365,324.047675002 379.992158877,301.247383856 380.650005856,300.258204782 381.00267695,298.752932421 380.899561736,296.043442608 383.266887687,296.135602117 385.787335957,296.670127277 388.914375196,298.27370289 395.53685069,302.341010496 420.569647425,320.047944422 443.830887148,338.522900639 445.949628659,339.376914874 445.042812051,342.940428114 452.063474765,348.556035429 407.314816691,384.436996736 "/>
  <polygon class="211950870" points="337.775229884,401.432055789 384.263980977,459.183010826 413.510991827,499.900106184 454.724770116,481.256011542 418.078721153,431.567231979 405.715317143,413.021554601 368.938395911,389.436996736 337.775229884,401.432055789 "/>
  <polygon class="160545070" points="300.619222599,532.689563177 318.333824449,561.290093926 337.09658753,555.447101798 359.082133399,596.729033636 308.511655677,614.657438037 327.160798578,648.486769607 375.182790503,632.174213245 372.326719064,623.314445377 453.213717775,595.524796248 475.426193131,635.799224016 493.659683511,629.55683321 462.973869567,574.979048879 446.236497913,579.009551804 444.025029681,574.579685089 449.315658742,560.479079089 397.80115001,538.12703844 391.715621449,542.759646262 300.052259262,504.900106184 298.840316489,507.720214211 327.528914055,521.611866316 300.619222599,532.689563177 "/>
  <polygon class="386764032" points="454.4756069,653.486769607 392.947632368,678.252337112 382.103570316,658.323118701 337.40656859,677.029420898 378.816367579,733.308265876 444.585485486,704.29617779 455.09343141,674.055092487 454.4756069,653.486769607 "/>
  <polygon class="136416315" points="414.884634196,740.224905609 407.438987147,764.729660786 404.224128571,771.480916269 350.414901401,761.903840599 343.46217069,764.514652707 337.464791519,764.262786105 317.978464041,760.368069015 309.087168458,789.160744684 352.617184961,797.87780578 400.398772083,805.507542672 417.032906931,807.264471442 447.089634552,810.071872102 482.565484717,812.535259172 483.412831542,793.823358036 479.517189617,778.391895692 474.875902243,765.718697996 468.159205294,760.730511093 461.395721699,757.769543905 436.26401909,752.934937096 439.580342262,742.233691783 418.589580766,738.308265876 414.884634196,740.224905609 "/>
  <polygon class="448022262" points="418.952374182,914.598768719 415.168088833,826.874165412 372.619371701,826.904885509 371.025067908,820.250914116 367.704820029,817.535259172 355.648579759,817.836315915 357.131399137,838.381918898 359.818869608,854.694315017 363.59611316,868.284921938 370.427837474,883.288673432 390.704416867,915.508089715 395.38722437,923.907023793 400.02549121,935.377998049 436.851420241,935.095370817 436.71877688,931.918886919 418.952374182,914.598768719 "/>
  <polygon class="387808995" points="340.856506198,943.11819295 345.228415537,983.02925808 341.944716396,983.182856932 342.130084056,984.872444443 342.177198229,985.320953163 342.634237314,989.492699398 339.558286847,989.64015437 341.243806083,1003.62995241 347.576202107,1003.2244508 348.246958799,1010.04425215 408.816857611,1007.04599671 452.941713153,1004.90175297 452.105909025,997.246375604 421.907144023,998.714782312 421.650854083,998.714782312 421.404053695,998.708638352 421.146673156,998.671774582 420.903617831,998.628766852 420.659835443,998.561183277 420.425360846,998.481311779 420.20019404,998.389152359 419.98898892,998.278561056 419.786909825,998.14953787 419.59432029,998.014370724 419.425545524,997.866915658 419.270914209,997.707172671 419.140097662,997.535141765 419.018952437,997.36311086 418.926275872,997.172648075 418.84828805,996.988329255 418.79895065,996.791722515 418.759284567,996.595115778 415.751227585,969.125497302 410.231905306,969.38968705 407.066194079,940.5131646 397.37974575,940.980103605 397.313577596,940.377998049 383.662715483,941.035399016 340.856506198,943.11819295 "/>
  <polygon class="28683601" points="303.649202411,1017.91345658 328.304612771,1017.87044923 331.399367825,1017.70456373 486.451949203,1015.04425215 488.850797589,1050.53764531 460.246468438,1051.13974974 460.727399216,1059.96242606 457.426474383,1060.02386533 426.298457537,1060.64440199 425.066713827,1051.28105997 305.438835619,1051.9507476 303.649202411,1017.91345658 "/>
  <polygon class="23636983" points="375.651327307,1077.90401479 419.629868687,1138.88269991 326.229956481,1180.3259988 344.552390921,1204.02813403 466.270043519,1150.80439468 401.438921754,1065.64440199 375.651327307,1077.90401479 "/>
  <polygon class="278390130" points="435.734253883,1237.6443788 447.743202019,1234.36991052 461.294793512,1262.13841043 445.048017349,1266.62929504 454.034376574,1285.15190653 413.798536573,1296.51736935 391.423161752,1250.31836035 378.341406006,1253.93686727 373.090400663,1255.38672771 369.800756254,1256.2959623 366.583085483,1257.18676653 363.020046965,1258.16972298 345.214694647,1263.09064985 339.524334044,1251.30131629 331.205206488,1234.06273718 343.490949263,1230.6654005 343.444862523,1230.57939199 342.986074924,1229.62715492 396.588745681,1214.80912648 406.021302821,1212.20430066 406.489951044,1213.16267991 406.526368381,1213.24868831 421.799631432,1209.02813403 433.628596371,1233.52211212 435.734253883,1237.6443788 "/>
  <polygon class="233682879" points="318.263367645,1372.36849246 377.06168085,1301.51736935 444.151339891,1338.25425826 474.236632355,1350.97491385 415.443762708,1421.83244769 318.263367645,1372.36849246 "/>
  <polygon class="13878958" points="405.657357614,1426.83244769 312.097915382,1470.27989023 385.155211165,1562.65688176 480.402084618,1518.99404642 405.657357614,1426.83244769 "/>
</svg>