<svg><g transform="translate(0 0)"><polygon id="0" class="bin" points="0.0,0.0 600.0,0.0 600.0,91.5893132733 0.0,91.5893132733 0.0,0.0 " moovel_rot="0" moovel_centroid="300.0,45.79465663662916" moovel_centroidlatlon="0,0" transform="translate(0 0)"></polygon><g transform="translate(1.1606246000000056 -90.0893098) rotate(0)"><polygon id="319894489" class="tile" points="72.4430147525,92.6051411608 17.6127372241,92.5893132733 1.0,121.129594229 60.6423972229,121.46842647 69.5451207852,111.263637896 72.3949979763,110.699605355 72.4406317422,95.0665735423 72.4430147525,92.6051411608 " moovel_rot="87.0" moovel_centroid="39.53589500105717,107.17212661176366" moovel_centroidlatlon="13.349344411938269,52.455784460440064"></polygon></g><g transform="translate(-71.0088038 -56.3791434) rotate(0)"><polygon id="346445156" class="tile" points="73.4430147525,92.5893132733 113.063046771,92.6461273541 115.367431832,101.543693857 77.9418398907,111.810327726 73.4430147525,92.5893132733 " moovel_rot="54.4" moovel_centroid="92.6076785198,99.9674938974" moovel_centroidlatlon="13.450497149218231,52.507386820005145"></polygon></g><g transform="translate(-210.3520525 -61.18092660000001) rotate(0)"><polygon id="191204682" class="tile" points="332.412406874,123.155307289 212.852026696,123.200823553 212.860514292,121.525463545 332.415276931,121.46842647 332.412406874,123.155307289 " moovel_rot="122.6" moovel_centroid="272.703348439,122.337482553" moovel_centroidlatlon="13.508820124327178,52.40483445124859"></polygon></g><g transform="translate(-94.9608928 -56.2291255) rotate(0)"><polygon id="221479278" class="tile" points="143.314918851,92.5893132733 144.903851277,106.393891629 174.452197587,105.734130146 181.595593107,100.433526468 183.8547077,100.140009628 183.839016525,93.6721889924 177.649472866,92.6016216711 143.314918851,92.5893132733 " moovel_rot="95.3" moovel_centroid="162.610384208,99.01903725954858" moovel_centroidlatlon="13.612415968822514,52.51222592682008"></polygon></g><g transform="translate(-38.09817910000001 -80.9610396) rotate(0)"><polygon id="75722962" class="tile" points="116.894070371,92.5893132733 142.314918851,92.9812847977 142.157793951,112.336516409 116.367431832,112.363305677 116.636276358,102.164561234 116.894070371,92.5893132733 " moovel_rot="4.7" moovel_centroid="129.386498263,102.59032461778006" moovel_centroidlatlon="13.404542375719268,52.39412908229133"></polygon></g><g transform="translate(-77.0309484 -58.9209647) rotate(0)"><polygon id="262554771" class="tile" points="190.745735153,114.202820828 195.194062005,114.323138663 206.916004385,114.213758813 206.922683555,92.6002513077 184.861386869,92.5893132733 184.8547077,108.50412714 190.745735153,114.202820828 " moovel_rot="0" moovel_centroid="196.222200976,103.09902231796009" moovel_centroidlatlon="13.367203693224527,52.47443741571452"></polygon></g><g transform="translate(-288.53691330000004 -25.6149341) rotate(0)"><polygon id="427502907" class="tile" points="343.846021745,97.2307566717 343.807476193,92.6645593833 410.601030995,92.5893132733 410.842020084,97.214516109 343.846021745,97.2307566717 " moovel_rot="34.4" moovel_centroid="377.345912095,94.92588600180417" moovel_centroidlatlon="13.384833845612743,52.53367106179133"></polygon></g><g transform="translate(-98.8578664 -82.5216332) rotate(0)"><polygon id="328395743" class="tile" points="207.922683555,107.963474186 210.942391445,92.605012294 228.37101442,95.4726237025 228.875608824,92.5893132733 239.17447664,94.8865707462 236.840386466,104.345254305 233.987860026,105.158423563 230.335925266,107.417294295 227.359299473,111.234697168 207.922683555,107.963474186 " moovel_rot="98.0" moovel_centroid="222.837299265,101.40481051062896" moovel_centroidlatlon="13.624965482456712,52.45765173228172"></polygon></g><g transform="translate(-222.77731079999998 -25.581806900000004) rotate(0)"><polygon id="343733878" class="tile" points="273.048044898,92.5893132733 240.191487947,92.5960212668 240.17447664,105.093175839 273.031056291,105.086474742 273.048044898,92.5893132733 " moovel_rot="106.9" moovel_centroid="256.611267955,98.84124699964372" moovel_centroidlatlon="13.2570308,52.428465400000015"></polygon></g><g transform="translate(-151.66200310000002 -16.6721491) rotate(0)"><polygon id="79044965" class="tile" points="275.6222871,92.6498770974 322.170441076,92.5893132733 321.34003366,100.762497621 295.280040034,100.008310703 274.048044898,99.3992183184 275.6222871,92.6498770974 " moovel_rot="109.1" moovel_centroid="299.03264261,96.37262086929108" moovel_centroidlatlon="13.146172279118408,52.414987071555245"></polygon></g><g transform="translate(-305.2210166 -118.7090408) rotate(0)"><polygon id="282346288" class="tile" points="461.655187077,121.505151251 461.847642668,123.752872449 383.812239603,123.88142846 383.977518846,121.46842647 461.655187077,121.505151251 " moovel_rot="155.2" moovel_centroid="422.36357695,122.653135386" moovel_centroidlatlon="13.577395428913785,52.4574096964886"></polygon></g><g transform="translate(-206.28072699999998 -61.1772775) rotate(0)"><polygon id="445421286" class="tile" points="382.812239603,123.754246226 379.239684311,129.146331683 379.44456376,129.284524617 379.224247965,129.611156215 377.589584449,128.534963776 377.809900243,128.20833218 378.025854258,128.353995002 378.362447865,127.854974456 371.670497687,123.407202142 368.110186635,128.781134768 368.315066085,128.919327702 368.088630688,129.255031983 366.471161627,128.177236322 366.673700114,127.865016364 366.895191411,128.01441413 367.231784602,127.515394203 360.522640019,123.069225036 356.956213582,128.452224092 357.161093032,128.590417026 356.940777783,128.917047813 355.317188863,127.848325217 355.556446299,127.481667177 355.777937597,127.631064944 356.108410503,127.141118711 349.410340532,122.702419364 345.844501129,128.072603803 346.054917862,128.214531681 345.821780588,128.572116206 344.209848824,127.498055467 344.430163798,127.171425086 344.64058053,127.313352964 344.983292748,126.805261205 338.268610976,122.355356958 333.415276931,129.682107912 333.920141225,121.46842647 382.761204041,121.990486902 382.812239603,123.754246226 " moovel_rot="34.0" moovel_centroid="359.252086925,124.132069463" moovel_centroidlatlon="13.377411727652232,52.49887855660811"></polygon></g><g transform="translate(-188.5140471 -63.7888308) rotate(0)"><polygon id="48853172" class="tile" points="342.807476193,110.126535526 342.519149187,92.6011460931 323.170441076,92.5893132733 324.073686255,111.083334324 342.807476193,110.126535526 " moovel_rot="161.4" moovel_centroid="333.054553687,101.55632776365736" moovel_centroidlatlon="13.490439966696304,52.41607506300901"></polygon></g><g transform="translate(145.2418476 -108.50488829999999) rotate(0)"><polygon id="199757479" class="tile" points="42.942928685,132.277507703 0.00220916904509,132.311838497 0.0,121.476219657 16.412253892,121.46842647 16.4123444206,129.995749159 42.9408092694,129.969205417 42.942928685,132.277507703 " moovel_rot="172.8" moovel_centroid="13.703617035743163,127.975756742" moovel_centroidlatlon="13.374236444694855,52.55695921454104"></polygon></g><g transform="translate(-281.19842100000005 -47.297076499999996) rotate(0)"><polygon id="270302166" class="tile" points="469.196687562,102.918401661 440.219982481,102.923533729 440.52189969,92.5893132733 469.340108724,92.6702082071 469.196687562,102.918401661 " moovel_rot="151.5" moovel_centroid="454.79939085,97.77998614043858" moovel_centroidlatlon="13.433814024905244,52.42811559859057"></polygon></g><g transform="translate(-252.6553205 -63.7937234) rotate(0)"><polygon id="329025622" class="tile" points="412.067214986,92.5893132733 438.007361366,92.7216140722 439.219982481,92.7273909324 438.998868709,103.698232739 411.842020084,103.705530435 412.067214986,92.5893132733 " moovel_rot="48.9" moovel_centroid="425.502156558,98.18018087755743" moovel_centroidlatlon="13.42799660675137,52.576950519315275"></polygon></g><g transform="translate(-291.74953029999995 -24.186782100000002) rotate(0)"><polygon id="86813085" class="tile" points="490.405562706,92.5893132733 470.340108724,92.5897452469 470.915890772,108.278378899 489.748516645,107.471843866 490.405562706,92.5893132733 " moovel_rot="152.8" moovel_centroid="480.264545694,100.15326202257229" moovel_centroidlatlon="13.454247305465797,52.50046751508669"></polygon></g><g transform="translate(-324.8840753999999 -90.0893103) rotate(0)"><polygon id="282826924" class="tile" points="491.41540909,92.5893132733 491.405562706,102.610235797 519.15137576,102.62928364 519.154543139,92.6083141218 501.367586283,92.5932969616 491.41540909,92.5893132733 " moovel_rot="0.4" moovel_centroid="505.28154823,97.60877931103856" moovel_centroidlatlon="13.403730022334015,52.38547950463698"></polygon></g><g transform="translate(-37.12197579999999 -42.5758896) rotate(0)"><polygon id="172987998" class="tile" points="135.16881257,126.665196311 92.3723406203,126.656763151 92.3765627462,121.470852011 135.17154724,121.46842647 135.16881257,126.665196311 " moovel_rot="172.2" moovel_centroid="113.779775346,124.065325119" moovel_centroidlatlon="13.256685989444282,52.537767784378254"></polygon></g><g transform="translate(-328.85881900000004 -59.6365343) rotate(0)"><polygon id="97114793" class="tile" points="547.810015082,101.665901509 549.571878749,92.9534438023 520.360993603,92.5893132733 520.154543139,101.7099552 547.810015082,101.665901509 " moovel_rot="134.6" moovel_centroid="534.372895051,97.18725728435277" moovel_centroidlatlon="13.511827514713666,52.631279995669644"></polygon></g><g transform="translate(-358.87072879999994 -39.76342459999999) rotate(0)"><polygon id="245187318" class="tile" points="554.604644986,92.5948732696 550.571878749,98.3682470429 552.212251878,102.84454338 573.131657861,104.092230885 575.518197582,92.5893132733 554.604644986,92.5948732696 " moovel_rot="34.5" moovel_centroid="563.405891737,98.04189872193335" moovel_centroidlatlon="13.406068188170517,52.53061062915696"></polygon></g><g transform="translate(33.428353200000004 -103.92846039999999) rotate(0)"><polygon id="35743756" class="tile" points="159.769979295,127.896355639 192.204026132,127.88540517 192.163951115,121.46842647 159.729904278,121.46842647 159.769979295,127.896355639 " moovel_rot="0" moovel_centroid="175.962356802,124.679655343" moovel_centroidlatlon="13.368662531003304,52.52426407498261"></polygon></g><g transform="translate(136.3790028 -48.43746929999999) rotate(0)"><polygon id="306179903" class="tile" points="66.9462784746,123.860807371 89.8840306974,121.46842647 91.3723406203,132.526783834 75.9431723011,132.521202726 67.6298858247,130.731667265 66.9462784746,123.860807371 " moovel_rot="75.3" moovel_centroid="79.7727842017,127.439872063" moovel_centroidlatlon="13.691497662517007,52.45192437782136"></polygon></g><g transform="translate(174.73029499999998 -64.7177517) rotate(0)"><polygon id="138000190" class="tile" points="65.5839109292,132.754317654 65.9462784746,121.604643928 46.1981060272,121.46842647 44.942928685,132.765682131 65.5839109292,132.754317654 " moovel_rot="106.9" moovel_centroid="55.6423247953,127.189045698" moovel_centroidlatlon="13.41818464505977,52.578380285744714"></polygon></g><g transform="translate(63.0951915 -118.6702054) rotate(0)"><polygon id="316507603" class="tile" points="158.729904278,121.789014629 158.399124791,131.20627651 136.17154724,131.210173124 136.378262369,121.46842647 158.729904278,121.789014629 " moovel_rot="110.5" moovel_centroid="147.35710919,126.413258633" moovel_centroidlatlon="13.302193480109105,52.50489907260474"></polygon></g><g transform="translate(-114.51938360000003 -86.833101) rotate(0)"><polygon id="133823558" class="tile" points="383.871843835,135.979803329 333.62014331,135.982841063 333.627866786,133.816971928 383.879559806,133.813925802 383.871843835,135.979803329 " moovel_rot="138.2" moovel_centroid="358.749869663,134.898385557" moovel_centroidlatlon="13.325760700000009,52.51723619999999"></polygon></g><g transform="translate(-58.49874059999996 -94.19715099999999) rotate(0)"><polygon id="356296202" class="tile" points="332.523504018,133.827783408 332.62014331,135.870129212 283.01490865,136.18073367 282.980909861,133.813925802 332.523504018,133.827783408 " moovel_rot="153.6" moovel_centroid="307.177269691,134.925229308" moovel_centroidlatlon="13.42253081228676,52.51928374962665"></polygon></g><g transform="translate(-233.90985719999998 -104.89401329999998) rotate(0)"><polygon id="149954038" class="tile" points="510.833391824,135.714060389 458.898291339,135.758038012 458.898949471,133.85141849 510.825221789,133.813925802 510.833391824,135.714060389 " moovel_rot="53.7" moovel_centroid="484.849235147,134.78439923" moovel_centroidlatlon="13.427832769801606,52.57766761642901"></polygon></g><g transform="translate(34.020287999999994 -118.9684298) rotate(0)"><polygon id="282826922" class="tile" points="211.83875935,121.46842647 211.852026696,132.382841807 193.206378887,132.390223661 193.204026132,121.47567497 211.83875935,121.46842647 " moovel_rot="89.3" moovel_centroid="202.525279778,126.929824312" moovel_centroidlatlon="13.404884757970287,52.38566937477562"></polygon></g><g transform="translate(-246.1314651 -48.4273149) rotate(0)"><polygon id="125646625" class="tile" points="508.034835169,121.474465328 478.187207939,121.46842647 478.180052527,127.130749392 508.034156908,127.135157946 508.034835169,121.474465328 " moovel_rot="165.8" moovel_centroid="493.108346239,124.302302012" moovel_centroidlatlon="13.195682635832652,52.53520149929093"></polygon></g><g transform="translate(-263.51555179999997 -59.7065598) rotate(0)"><polygon id="383405291" class="tile" points="534.861337849,127.755812723 509.048790335,127.750064195 509.034835169,121.46842647 534.847393461,121.474170687 534.861337849,127.755812723 " moovel_rot="68.2" moovel_centroid="521.94809068,124.612118301" moovel_centroidlatlon="13.4605715,52.4930947"></polygon></g><g transform="translate(-321.86932079999997 -103.1651736) rotate(0)"><polygon id="282800396" class="tile" points="581.846593863,126.573718982 581.3977001,121.46842647 552.467209191,121.704112075 552.615186776,126.539000888 581.846593863,126.573718982 " moovel_rot="108.6" moovel_centroid="567.214244054,124.074910965" moovel_centroidlatlon="13.435659717951445,52.42060916061702"></polygon></g><g transform="translate(171.86133840000002 -131.3169484) rotate(0)"><polygon id="316397741" class="tile" points="109.6545861,133.813925802 110.333020226,138.907803983 79.2771279855,138.874136104 78.9917415224,135.324780326 109.6545861,133.813925802 " moovel_rot="62.2" moovel_centroid="95.4866229563,136.710659147" moovel_centroidlatlon="13.327132033270539,52.563761828232835"></polygon></g><g transform="translate(-188.5496617 -49.6675262) rotate(0)"><polygon id="219558880" class="tile" points="477.180052527,121.47537992 477.145874427,133.756837708 462.847642668,133.754482844 462.871913965,121.46842647 477.180052527,121.47537992 " moovel_rot="114.9" moovel_centroid="470.010926683,127.613071801" moovel_centroidlatlon="13.507900443150413,52.46643426857421"></polygon></g><g transform="translate(250.00422629999997 -121.22639930000001) rotate(0)"><polygon id="282807190" class="tile" points="14.5522338034,139.735213839 38.23318798,139.72213228 38.2235763407,133.813925802 14.5426197747,133.827015176 14.5522338034,139.735213839 " moovel_rot="17.0" moovel_centroid="26.3879070846,136.774571723" moovel_centroidlatlon="13.425811900000001,52.41455740000001"></polygon></g><g transform="translate(-261.8852717 -72.7097396) rotate(0)"><polygon id="314629581" class="tile" points="535.861337849,122.52870782 550.65897053,121.46842647 551.467209191,132.829178972 538.374670431,132.819206973 536.193953411,130.319032841 535.861337849,122.52870782 " moovel_rot="41.9" moovel_centroid="543.80719046,127.351186719" moovel_centroidlatlon="13.509636365474988,52.45808100403296"></polygon></g><g transform="translate(101.3134258 -98.64662870000001) rotate(0)"><polygon id="237881031" class="tile" points="206.42228842,134.326920259 206.298289631,133.813925802 203.215792704,133.81462533 199.236285282,133.814223086 180.348467236,133.815887854 177.688866186,133.853543009 177.634802847,137.941295255 204.626619237,138.141074111 206.326894477,137.869824867 206.42228842,134.326920259 " moovel_rot="77.6" moovel_centroid="192.115616253,135.928161853" moovel_centroidlatlon="13.432873918434817,52.51483683069798"></polygon></g><g transform="translate(150.6657926 -110.314691) rotate(0)"><polygon id="392479518" class="tile" points="131.235746494,139.184511308 131.250993571,133.813925802 155.328692459,133.823938033 155.313454512,139.194533399 131.235746494,139.184511308 " moovel_rot="137.2" moovel_centroid="143.28222544,136.504227307" moovel_centroidlatlon="13.439726700000001,52.5129804"></polygon></g><g transform="translate(252.1659346 -131.3139198) rotate(0)"><polygon id="359380695" class="tile" points="59.6823868803,140.627565592 39.23318798,140.612427341 39.2458172074,133.813925802 59.6950146072,133.829057705 59.6823868803,140.627565592 " moovel_rot="166.7" moovel_centroid="49.4641032594,137.220744153" moovel_centroidlatlon="13.56642155,52.518769750000004"></polygon></g><g transform="translate(232.5881653 -71.16143010000002) rotate(0)"><polygon id="282805915" class="tile" points="77.9686717602,141.815126781 60.6950146072,141.814942073 60.7178999571,133.813925802 77.9917415224,133.826901781 77.9686717602,141.815126781 " moovel_rot="147.7" moovel_centroid="69.3410288567,137.817714702" moovel_centroidlatlon="13.425600304093837,52.4163039636492"></polygon></g><g transform="translate(37.3671478 -54.94018539999999) rotate(0)"><polygon id="198723716" class="tile" points="256.240327862,134.982875233 267.855821332,134.985680694 267.859367658,133.813925802 274.805917204,133.819791066 274.806756281,135.254414676 281.980484503,135.251311247 281.980909861,139.029500886 256.245138625,139.023933395 256.240327862,134.982875233 " moovel_rot="0.5" moovel_centroid="269.115263524,136.846728881" moovel_centroidlatlon="13.370244698701333,52.52574640644885"></polygon></g><g transform="translate(182.61770919999998 -89.56323229999998) rotate(0)"><polygon id="99340032" class="tile" points="111.336445353,140.768107204 111.333020226,133.820544327 130.232321397,133.813925802 130.235746494,140.761489594 111.336445353,140.768107204 " moovel_rot="1.9" moovel_centroid="120.784383575,137.291016731" moovel_centroidlatlon="13.129319349999998,52.39276460000001"></polygon></g><g transform="translate(310.9685192 -119.5061921) rotate(0)"><polygon id="327481151" class="tile" points="0.0,133.820281228 0.0317760016769,145.082948201 12.5426197747,145.07660407 12.5108513352,133.813925802 0.0,133.820281228 " moovel_rot="33.8" moovel_centroid="6.271312821517816,139.448439255" moovel_centroidlatlon="13.375784500000002,52.527425150000006"></polygon></g><g transform="translate(156.2762656 -103.24490540000001) rotate(0)"><polygon id="149954039" class="tile" points="176.620421051,133.813925802 176.634802847,139.975093591 156.346663083,139.987647224 156.328692459,133.820846341 176.620421051,133.813925802 " moovel_rot="57.6" moovel_centroid="166.481098951,136.8992885" moovel_centroidlatlon="13.42877096145307,52.57776223851899"></polygon></g><g transform="translate(-267.64648629999994 -58.476032100000005) rotate(0)"><polygon id="279930395" class="tile" points="582.846593863,133.647529864 587.837417357,133.813925802 594.297514201,130.889249649 597.379414199,125.615892427 595.071183311,121.474529525 583.83177233,121.46842647 582.846593863,133.647529864 " moovel_rot="172.7" moovel_centroid="589.345098301,127.144237624" moovel_centroidlatlon="13.434349621658718,52.514338022078135"></polygon></g><g transform="translate(95.42600769999999 -92.0742764) rotate(0)"><polygon id="296755460" class="tile" points="222.192363674,133.813925802 222.879304253,140.897950046 243.031088123,139.282675708 242.999748453,137.963869272 239.997830085,137.556738162 239.837248915,133.837854735 222.192363674,133.813925802 " moovel_rot="60.4" moovel_centroid="231.365054733,137.084609268" moovel_centroidlatlon="13.32027881221471,52.5232625817078"></polygon></g><g transform="translate(168.95676160000002 -89.74286430000001) rotate(0)"><polygon id="356841085" class="tile" points="146.660661863,145.082948201 176.829819025,145.083362362 176.833743098,147.737740465 146.658249812,147.735213279 146.660661863,145.082948201 " moovel_rot="18.4" moovel_centroid="161.74762053,146.409862603" moovel_centroidlatlon="13.521496903598521,52.50386390535729"></polygon></g><g transform="translate(-88.86371250000002 -129.2463797) rotate(0)"><polygon id="258342185" class="tile" points="405.720859074,133.813925802 427.869768675,133.820761176 427.86849607,138.558904268 405.719586469,138.552068707 405.720859074,133.813925802 " moovel_rot="0.5" moovel_centroid="416.794677644,136.186414988" moovel_centroidlatlon="13.453949200000002,52.592207050000006"></polygon></g><g transform="translate(121.08169470000001 -119.5030674) rotate(0)"><polygon id="225402462" class="tile" points="221.192363674,133.813925802 207.429885761,133.820935292 207.42228842,142.535113623 221.184771474,142.528105273 221.192363674,133.813925802 " moovel_rot="102.5" moovel_centroid="214.307327483,138.174520269" moovel_centroidlatlon="13.573031050000003,52.4124373"></polygon></g><g transform="translate(-60.518709100000024 -55.0890349) rotate(0)"><polygon id="225232901" class="tile" points="404.719586469,133.813925802 384.879559806,133.818080243 384.887071491,139.17834725 404.716220568,139.173183725 404.719586469,133.813925802 " moovel_rot="95.3" moovel_centroid="394.800297512,136.495639389" moovel_centroidlatlon="13.520496796780543,52.42765187194851"></polygon></g><g transform="translate(-195.9592179 -66.4665647) rotate(0)"><polygon id="180310077" class="tile" points="549.723625828,137.056641336 550.278412434,135.097449121 542.931140333,133.813925802 536.577646155,134.116237437 529.892289985,135.775575555 531.045851647,140.249824016 537.230859798,138.911281112 542.709243252,139.017102421 549.126030486,140.268084517 549.723625828,137.056641336 " moovel_rot="101.5" moovel_centroid="540.283094022,136.886331689" moovel_centroidlatlon="13.288487580585613,52.45055856656899"></polygon></g><g transform="translate(93.85674240000003 -105.7866513) rotate(0)"><polygon id="266077353" class="tile" points="255.240327862,143.754650911 255.210215658,133.815171629 244.031088123,133.813925802 244.0658651,143.758185389 255.240327862,143.754650911 " moovel_rot="45.8" moovel_centroid="249.636425176,138.785138855" moovel_centroidlatlon="13.589082166613496,52.51233264924509"></polygon></g><g transform="translate(145.7466487 -102.11529209999999) rotate(0)"><polygon id="310461377" class="tile" points="221.888226386,145.082948201 221.898690833,148.316198452 197.687654655,148.330285932 197.681804802,145.085075871 221.888226386,145.082948201 " moovel_rot="52.5" moovel_centroid="209.781646693,146.703681398" moovel_centroidlatlon="13.414851707739638,52.520628370715265"></polygon></g><g transform="translate(-167.83528639999997 -131.3139193) rotate(0)"><polygon id="392335513" class="tile" points="511.833391824,133.821351827 511.855528662,139.561679046 528.892289985,139.554260232 528.870160336,133.813925802 511.833391824,133.821351827 " moovel_rot="44.9" moovel_centroid="520.362844484,136.687804023" moovel_centroidlatlon="13.441360450000003,52.51137655"></polygon></g><g transform="translate(-96.0843256 -117.78152560000001) rotate(0)"><polygon id="183766446" class="tile" points="457.898291339,133.813925802 443.356858065,133.826791201 443.364386464,140.809847793 457.894427143,140.802900397 457.898291339,133.813925802 " moovel_rot="93.9" moovel_centroid="450.629515414,137.312909255" moovel_centroidlatlon="13.285291667128757,52.582710634039394"></polygon></g><g transform="translate(-78.08856030000004 -78.5070431) rotate(0)"><polygon id="426638853" class="tile" points="428.869768675,141.481617355 428.884059563,133.813925802 442.356858065,133.815409552 442.346259681,141.493413868 428.869768675,141.481617355 " moovel_rot="160.3" moovel_centroid="435.61574517,137.6512684" moovel_centroidlatlon="13.490687079639137,52.510499531161976"></polygon></g><g transform="translate(93.78478619999999 -64.16079669999999) rotate(0)"><polygon id="125646631" class="tile" points="278.92976322,148.236629838 255.41368168,148.2501056 255.414693032,145.107077959 278.928216773,145.082948201 278.92976322,148.236629838 " moovel_rot="166.5" moovel_centroid="267.178221103,146.669213624" moovel_centroidlatlon="13.1956600035555,52.53525493933724"></polygon></g><g transform="translate(335.396045 -117.059166) rotate(0)"><polygon id="199793476" class="tile" points="38.228150661,149.594673897 18.6613824764,149.464593061 19.2437846932,145.083962228 38.590246182,145.082948201 38.228150661,149.594673897 " moovel_rot="167.6" moovel_centroid="28.7279404593,147.311160889" moovel_centroidlatlon="13.374899476873388,52.55740593333333"></polygon></g><g transform="translate(358.8128555 -74.9893178) rotate(0)"><polygon id="368476385" class="tile" points="0.260800521635,145.102919139 0.0,150.61109632 16.4653788881,150.966283331 16.6613824764,145.082948201 0.260800521635,145.102919139 " moovel_rot="80.2" moovel_centroid="8.436800521829165,147.944034891" moovel_centroidlatlon="13.210100751677142,52.55862100343582"></polygon></g><g transform="translate(-185.22400470000002 -127.30695910000001) rotate(0)"><polygon id="183766445" class="tile" points="565.060875182,140.796982394 551.278412434,140.80133716 551.281825121,133.819026457 565.053346784,133.813925802 565.060875182,140.796982394 " moovel_rot="93.9" moovel_centroid="558.168738272,137.308280013" moovel_centroidlatlon="13.28530620677541,52.58258182640914"></polygon></g><g transform="translate(-18.9390475 -97.29117) rotate(0)"><polygon id="428657606" class="tile" points="114.180292323,145.082948201 120.215974465,152.588596802 100.047469511,152.565424791 99.7100003424,151.644068496 114.180292323,145.082948201 " moovel_rot="51.0" moovel_centroid="110.844104174,150.049642486" moovel_centroidlatlon="13.303551355299836,52.524589180284885"></polygon></g><g transform="translate(-196.79637229999997 -75.73425710000001) rotate(0)"><polygon id="369223449" class="tile" points="566.063845367,140.824864389 566.060875182,133.813925802 579.659193848,133.820551523 579.662163723,140.831492558 566.063845367,140.824864389 " moovel_rot="7.2" moovel_centroid="572.861519926,137.322708555" moovel_centroidlatlon="13.412126600000004,52.5351489"></polygon></g><g transform="translate(332.0668236 -97.04488759999998) rotate(0)"><polygon id="180016886" class="tile" points="39.590246182,145.082948201 56.6270185912,145.082948201 56.6270185912,150.125721134 39.590246182,150.125721134 39.590246182,145.082948201 " moovel_rot="90" moovel_centroid="48.1086323866,147.604334668" moovel_centroidlatlon="13.477234549999999,52.54679355"></polygon></g><g transform="translate(-206.07043739999995 -99.6196091) rotate(0)"><polygon id="291686447" class="tile" points="584.161984229,133.813925802 590.288511018,133.842561908 594.669680163,134.009836986 591.625684656,142.648815126 587.46215487,142.660263605 580.662163723,142.65766682 584.161984229,133.813925802 " moovel_rot="25.9" moovel_centroid="587.757741483,138.289060165" moovel_centroidlatlon="13.379076594350783,52.52922528332585"></polygon></g><g transform="translate(281.82887070000004 -132.3051859) rotate(0)"><polygon id="323562899" class="tile" points="84.9820332166,153.860158577 113.711568743,153.85122929 113.716367877,155.320416171 84.9868338159,155.329342372 84.9820332166,153.860158577 " moovel_rot="25.4" moovel_centroid="99.3492059415,154.590286595" moovel_centroidlatlon="13.3610617,52.52758195"></polygon></g><g transform="translate(200.35119250000002 -65.40594240000001) rotate(0)"><polygon id="312256740" class="tile" points="178.166720826,149.46979426 177.833743098,145.372186712 196.402897463,145.082948201 196.681804802,149.495252348 178.166720826,149.46979426 " moovel_rot="68.8" moovel_centroid="187.385269412,147.352767966" moovel_centroidlatlon="13.334326960309024,52.51134340321258"></polygon></g><g transform="translate(-86.88379550000002 -72.53572220000001) rotate(0)"><polygon id="297141700" class="tile" points="467.277646552,145.08328183 467.278132609,147.220421383 492.151724879,147.20915175 492.151754551,145.082948201 467.277646552,145.08328183 " moovel_rot="-2.7" moovel_centroid="479.704180445,146.148949597" moovel_centroidlatlon="13.574008490970677,52.51294002958645"></polygon></g><g transform="translate(384.1684534 -139.12766390000002) rotate(0)"><polygon id="161452007" class="tile" points="0.0,155.675229103 0.000803953316063,153.856156208 25.2117322485,153.85122929 25.6797841712,153.852709817 25.6789801996,155.67178229 0.0,155.675229103 " moovel_rot="-2.5" moovel_centroid="12.841640384551235,154.763583229" moovel_centroidlatlon="13.574520576410189,52.51289450282688"></polygon></g><g transform="translate(161.93141359999998 -142.58294709999998) rotate(0)"><polygon id="420006955" class="tile" points="239.307833745,145.082948201 239.316063829,149.798434649 222.898690833,149.80705086 222.901391048,145.091545336 239.307833745,145.082948201 " moovel_rot="89.9" moovel_centroid="231.105991147,147.445256473" moovel_centroidlatlon="13.68583705391823,52.443682624961816"></polygon></g><g transform="translate(315.89143850000005 -87.0143296) rotate(0)"><polygon id="401828853" class="tile" points="85.2249425361,151.442181088 71.9753742661,151.444343996 71.9713638702,145.095975223 85.219694331,145.082948201 85.2249425361,151.442181088 " moovel_rot="173.5" moovel_centroid="78.5997317306,148.266410197" moovel_centroidlatlon="13.274000372001522,52.45210637739141"></polygon></g><g transform="translate(152.19090760000003 -107.16995979999999) rotate(0)"><polygon id="383405297" class="tile" points="254.41368168,149.047942173 246.710383007,149.04311479 246.720484443,152.279209401 240.329501869,152.274091288 240.316063829,145.082948201 254.408274474,145.086543585 254.41368168,149.047942173 " moovel_rot="71.9" moovel_centroid="246.327120812,148.036076617" moovel_centroidlatlon="13.461535486081837,52.49281022991813"></polygon></g><g transform="translate(266.6649494 -118.0003265) rotate(0)"><polygon id="273570046" class="tile" points="131.699663215,150.914807168 131.691116806,145.082948201 145.649709395,145.08399705 145.658249812,150.915858926 131.699663215,150.914807168 " moovel_rot="64.1" moovel_centroid="138.674685387,147.999402627" moovel_centroidlatlon="13.33088345,52.51000284999999"></polygon></g><g transform="translate(104.69881200000003 -95.76609719999999) rotate(0)"><polygon id="277464944" class="tile" points="314.619366619,149.074560845 296.851293439,149.072236572 296.863838711,145.082948201 314.627524445,145.090308513 314.619366619,149.074560845 " moovel_rot="131.0" moovel_centroid="305.738635012,147.080094826" moovel_centroidlatlon="13.484877794310659,52.54992228758789"></polygon></g><g transform="translate(348.3624237 -82.78824660000001) rotate(0)"><polygon id="392479519" class="tile" points="57.8411576223,145.084398335 57.6544725758,148.521581599 57.6270185912,150.437118166 61.1616593585,151.736881881 70.9713638702,151.646358439 70.6404882067,145.082948201 57.8411576223,145.084398335 " moovel_rot="138.8" moovel_centroid="64.3810969596,148.338793173" moovel_centroidlatlon="13.439898621305733,52.5130185158944"></polygon></g><g transform="translate(319.9277872 -142.1213846) rotate(0)"><polygon id="99340031" class="tile" points="86.4843635073,145.094008988 98.7100003424,145.082948201 98.6908522136,151.845097993 86.2249425361,151.846927748 86.4843635073,145.094008988 " moovel_rot="2.2" moovel_centroid="92.5287380826,148.478213353" moovel_centroidlatlon="13.130524074231595,52.39192165003584"></polygon></g><g transform="translate(213.4091941 -74.1907875) rotate(0)"><polygon id="133822362" class="tile" points="188.443742412,153.866197058 214.29541355,153.85122929 214.300134663,155.367206153 188.446720375,155.394879051 188.443742412,153.866197058 " moovel_rot="39.2" moovel_centroid="201.353524729,154.619901426" moovel_centroidlatlon="13.381760716583392,52.52840947105387"></polygon></g><g transform="translate(-22.99345649999998 -107.16944659999999) rotate(0)"><polygon id="35389516" class="tile" points="434.593634655,145.085061638 452.716306929,145.082948201 452.716926434,146.865561899 455.963870133,146.868584434 455.969235364,148.287293556 438.740123803,148.28677779 438.73519175,146.588637413 434.594691198,146.588239805 434.593634655,145.085061638 " moovel_rot="42.1" moovel_centroid="445.42758949,146.664301056" moovel_centroidlatlon="13.529154904012326,52.43270684522248"></polygon></g><g transform="translate(-118.7159746 -69.76191680000001) rotate(0)"><polygon id="49214084" class="tile" points="121.226330327,145.082948201 121.215974465,153.84630406 130.680760943,153.85122929 130.691116806,145.08787359 121.226330327,145.082948201 " moovel_rot="-0.5" moovel_centroid="125.953545621,149.467088785" moovel_centroidlatlon="13.323418000000002,52.482358250000004"></polygon></g><g transform="translate(134.06693969999998 -126.87264810000002) rotate(0)"><polygon id="369223452" class="tile" points="295.72399576,145.098202049 295.851293439,149.269308086 280.206362197,149.96012457 279.92976322,145.082948201 295.72399576,145.098202049 " moovel_rot="79.8" moovel_centroid="287.722552874,147.35423234" moovel_centroidlatlon="13.412764629065995,52.53322515263101"></polygon></g><g transform="translate(44.23821699999996 -118.02936360000001) rotate(0)"><polygon id="123393434" class="tile" points="391.246866222,145.082948201 386.936569938,145.085676017 386.927611529,146.284259718 373.086444867,146.2859689 373.082468601,149.226269062 391.230172351,149.227352913 391.246866222,145.082948201 " moovel_rot="124.3" moovel_centroid="382.773788757,147.572766646" moovel_centroidlatlon="13.376502482723481,52.527749296512305"></polygon></g><g transform="translate(-116.84592719999995 -88.45983880000001) rotate(0)"><polygon id="442174773" class="tile" points="559.923071846,145.091923585 559.782344714,147.340957101 539.530525272,147.717002098 539.425963681,145.082948201 559.923071846,145.091923585 " moovel_rot="101.7" moovel_centroid="549.396193483,146.308155508" moovel_centroidlatlon="13.307049291808724,52.62139622225109"></polygon></g><g transform="translate(-212.6664978 -68.47867869999999) rotate(0)"><polygon id="369223450" class="tile" points="315.627524445,145.082948201 328.903370386,145.102062692 329.007300536,150.175817579 315.839283045,150.440658236 315.627524445,145.082948201 " moovel_rot="77.5" moovel_centroid="322.28409041,147.69766966" moovel_centroidlatlon="13.412706890169702,52.53304826802375"></polygon></g><g transform="translate(133.0407563 -80.73893029999999) rotate(0)"><polygon id="133822361" class="tile" points="288.697226958,153.85122929 311.638836478,153.860211655 311.640850535,155.406017601 288.699242277,155.397032626 288.697226958,153.85122929 " moovel_rot="25.8" moovel_centroid="300.16904229,154.628622787" moovel_centroidlatlon="13.3812136,52.52833929999999"></polygon></g><g transform="translate(93.61767959999997 -138.77760759999998) rotate(0)"><polygon id="411717028" class="tile" points="339.548433882,145.087646914 330.010662511,145.082948201 330.007300536,151.997200114 339.545806328,151.995260157 339.548433882,145.087646914 " moovel_rot="96.3" moovel_centroid="334.777287252,148.540807907" moovel_centroidlatlon="13.320320426908857,52.51309184311137"></polygon></g><g transform="translate(83.13116400000001 -99.29374289999998) rotate(0)"><polygon id="442676504" class="tile" points="361.565319888,150.914604112 350.924152033,150.92187864 350.917893608,145.090222822 361.559062545,145.082948201 361.565319888,150.914604112 " moovel_rot="85.1" moovel_centroid="356.241607032,148.002413394" moovel_centroidlatlon="13.44970245,52.44564464999999"></polygon></g><g transform="translate(96.34727780000003 -129.4066307) rotate(0)"><polygon id="392479517" class="tile" points="340.548433882,145.082948201 340.882268817,152.390825484 349.917893608,152.274217527 349.053257475,145.092939124 340.548433882,145.082948201 " moovel_rot="44.0" moovel_centroid="345.091103935,148.747549004" moovel_centroidlatlon="13.43997763730247,52.512787045409354"></polygon></g><g transform="translate(424.1541604 -95.855917) rotate(0)"><polygon id="135805433" class="tile" points="22.8609811943,160.081246765 0.00490896832198,160.086140974 0.0,161.10053651 22.8667779375,161.088578434 22.8609811943,160.081246765 " moovel_rot="25.2" moovel_centroid="11.419861601769519,160.589170034" moovel_centroidlatlon="13.381556344991294,52.52918832289243"></polygon></g><g transform="translate(75.59913899999998 -140.9163735) rotate(0)"><polygon id="51230059" class="tile" points="372.066684605,151.601925364 372.082468601,145.090693172 362.581108137,145.082948201 362.565319888,151.594175603 372.066684605,151.601925364 " moovel_rot="138.4" moovel_centroid="367.323895889,148.342435829" moovel_centroidlatlon="13.499259899999998,52.493610249999996"></polygon></g><g transform="translate(-93.3880173 -99.7030766) rotate(0)"><polygon id="265761733" class="tile" points="357.254939032,153.85862711 359.602000902,155.291037287 338.792228848,155.545593679 338.676718672,153.85122929 357.254939032,153.85862711 " moovel_rot="-3.9" moovel_centroid="348.3351039,154.654295044" moovel_centroidlatlon="13.412541551949486,52.549307892009374"></polygon></g><g transform="translate(24.749979999999994 -109.6310168) rotate(0)"><polygon id="99340030" class="tile" points="424.677624494,145.089432929 424.675917887,150.025447524 413.223052529,150.018962795 413.224759215,145.082948201 424.677624494,145.089432929 " moovel_rot="90.4" moovel_centroid="418.950338532,147.554197865" moovel_centroidlatlon="13.130353399999999,52.39279860000001"></polygon></g><g transform="translate(55.80836110000001 -67.3068848) rotate(0)"><polygon id="380000754" class="tile" points="401.555300271,145.092005041 401.700585691,151.394692873 392.497759364,151.396192317 392.246866222,145.082948201 401.555300271,145.092005041 " moovel_rot="51.9" moovel_centroid="396.998654617,148.235479953" moovel_centroidlatlon="13.360727840936924,52.48647519812217"></polygon></g><g transform="translate(45.71417760000003 -91.09500030000001) rotate(0)"><polygon id="383405294" class="tile" points="402.700585691,151.075794379 402.707213509,145.082948201 412.223052529,145.083706908 412.205335896,151.070127823 402.700585691,151.075794379 " moovel_rot="151.5" moovel_centroid="407.458197546,148.077561879" moovel_centroidlatlon="13.460748382021242,52.49334136661514"></polygon></g><g transform="translate(-66.89897129999997 -118.32364580000001) rotate(0)"><polygon id="310586135" class="tile" points="528.657430932,145.082948201 527.962389681,149.868992628 516.552856552,148.792174674 516.252071061,145.096590069 528.657430932,145.082948201 " moovel_rot="134.1" moovel_centroid="522.622491902,147.194014358" moovel_centroidlatlon="13.395574776566326,52.45270579638519"></polygon></g><g transform="translate(25.236300900000003 -131.0898136) rotate(0)"><polygon id="394198037" class="tile" points="433.392820491,145.084763065 433.593634655,152.230582176 425.866494599,152.401062762 425.677624494,145.082948201 433.392820491,145.084763065 " moovel_rot="133.3" moovel_centroid="429.617365354,148.701300519" moovel_centroidlatlon="13.440457172801606,52.51308065758535"></polygon></g><g transform="translate(-5.8838398000000325 -78.11368999999999) rotate(0)"><polygon id="384999499" class="tile" points="466.277646552,145.090426614 456.973641979,145.082948201 456.969235364,150.892698444 466.273242371,150.900177428 466.277646552,145.090426614 " moovel_rot="103.2" moovel_centroid="461.623441642,147.991562798" moovel_centroidlatlon="13.448200000000002,52.4371209"></polygon></g><g transform="translate(-40.736771999999974 -100.97473) rotate(0)"><polygon id="369223451" class="tile" points="503.797203295,145.082948201 503.795605908,149.955380485 493.151754551,149.962996465 493.153354666,145.090564953 503.797203295,145.082948201 " moovel_rot="105.8" moovel_centroid="498.474479746,147.52297263" moovel_centroidlatlon="13.41020875,52.52825730000001"></polygon></g><g transform="translate(-89.1996624 -100.89197769999998) rotate(0)"><polygon id="401834004" class="tile" points="239.90387524,156.258136169 239.909404076,153.85122929 224.090071119,153.853525357 224.084543349,156.260432092 239.90387524,156.258136169 " moovel_rot="82.3" moovel_centroid="231.996973525,155.055830713" moovel_centroidlatlon="13.273859399999997,52.4517911"></polygon></g><g transform="translate(382.6393374 -147.9905306) rotate(0)"><polygon id="237881642" class="tile" points="70.0309296235,156.821574031 70.0587164997,153.874868553 83.9820332166,153.85122929 83.8875676093,157.200501399 70.0309296235,156.821574031 " moovel_rot="169.3" moovel_centroid="77.1381315814,155.437828543" moovel_centroidlatlon="13.432594195169623,52.51498903357771"></polygon></g><g transform="translate(-98.50973680000004 -70.2009853) rotate(0)"><polygon id="383421950" class="tile" points="571.591572985,145.086000983 563.244802639,145.082948201 563.242010189,147.383095058 560.923071846,147.38284258 560.924335421,150.16507741 571.590044098,150.168383002 571.591572985,145.086000983 " moovel_rot="1.9" moovel_centroid="566.712788677,147.777366085" moovel_centroidlatlon="13.588478731365509,52.51236715164874"></polygon></g><g transform="translate(302.0417854 -117.58197140000001) rotate(0)"><polygon id="345088330" class="tile" points="174.248528726,153.855963852 174.248588873,156.699440694 160.206292843,156.689628521 160.218011721,153.85122929 174.248528726,153.855963852 " moovel_rot="144.7" moovel_centroid="167.232443224,155.274265518" moovel_centroidlatlon="13.434773901235769,52.50920093750384"></polygon></g><g transform="translate(-42.744135799999924 -87.13209599999999) rotate(0)"><polygon id="291686445" class="tile" points="506.452977005,145.720423857 509.491717177,145.08801814 515.252071061,145.082948201 514.158713452,148.286246263 512.535924727,152.501163875 504.797203295,149.693857166 505.278937833,148.290909788 506.452977005,145.720423857 " moovel_rot="23.6" moovel_centroid="510.178323199,148.212344502" moovel_centroidlatlon="13.378009047226175,52.52891416760717"></polygon></g><g transform="translate(141.85002150000003 -133.2935925) rotate(0)"><polygon id="445470923" class="tile" points="337.654334999,153.85122929 322.053657843,153.987353641 321.771101439,156.054949111 337.676718672,156.080370207 337.654334999,153.85122929 " moovel_rot="46.4" moovel_centroid="329.888124968,154.996703841" moovel_centroidlatlon="13.499034633926923,52.49355698594316"></polygon></g><g transform="translate(-61.59801339999996 -97.85175280000001) rotate(0)"><polygon id="429841016" class="tile" points="538.425963681,150.803759917 529.668087789,150.801427012 529.657430932,145.082948201 538.415308826,145.085280695 538.425963681,150.803759917 " moovel_rot="78.4" moovel_centroid="534.041697859,147.943353848" moovel_centroidlatlon="13.174636849999999,52.546210650000006"></polygon></g><g transform="translate(442.8178297 -142.6864243) rotate(0)"><polygon id="293504268" class="tile" points="38.0407588915,158.244614235 38.0546735431,153.85122929 27.6884818005,153.851936915 27.6797841712,158.241151247 38.0407588915,158.244614235 " moovel_rot="141.4" moovel_centroid="32.8667454408,156.047049195" moovel_centroidlatlon="13.455070013686706,52.49028400336315"></polygon></g><g transform="translate(435.5350463 -87.5427906) rotate(0)"><polygon id="293504265" class="tile" points="49.4208718213,158.240449659 49.4295646319,153.85122929 39.063369239,153.851932342 39.0546735431,158.241149096 49.4208718213,158.240449659 " moovel_rot="141.4" moovel_centroid="44.2421205202,156.046190199" moovel_centroidlatlon="13.4551225,52.49032359999999"></polygon></g><g transform="translate(46.88960580000003 -124.49498630000001) rotate(0)"><polygon id="180311317" class="tile" points="435.651170937,154.014172172 419.529430036,153.85122929 419.460238724,155.76562144 435.580214206,155.740024884 435.651170937,154.014172172 " moovel_rot="124.9" moovel_centroid="427.416137004,154.842084377" moovel_centroidlatlon="13.287705008463865,52.45143915270189"></polygon></g><g transform="translate(-94.51094439999997 -66.2677002) rotate(0)"><polygon id="392335514" class="tile" points="572.591572985,145.096807968 572.61289687,150.357008475 581.575023194,150.355594565 581.556807755,145.082948201 572.591572985,145.096807968 " moovel_rot="45.4" moovel_centroid="577.085839522,147.72293382" moovel_centroidlatlon="13.441554041881437,52.51149298747157"></polygon></g><g transform="translate(-18.345825099999956 -151.35122679999998) rotate(0)"><polygon id="180311316" class="tile" points="506.190856395,153.85122929 489.481287437,153.853568591 489.405469401,155.362118604 506.101013906,155.478993287 506.190856395,153.85122929 " moovel_rot="123.8" moovel_centroid="497.900496573,154.636779874" moovel_centroidlatlon="13.287358622252015,52.45178688103395"></polygon></g><g transform="translate(302.10442049999995 -95.7723718) rotate(0)"><polygon id="383421949" class="tile" points="175.251846377,153.85122929 175.248588873,157.072280957 187.440905144,157.08594265 187.443742412,153.853951916 175.251846377,153.85122929 " moovel_rot="-2.2" moovel_centroid="181.349715237,155.465863013" moovel_centroidlatlon="13.587879801528022,52.51221002368432"></polygon></g><g transform="translate(339.9473616 -113.2831922) rotate(0)"><polygon id="244343907" class="tile" points="151.763011595,157.511461486 140.557617593,157.507754407 140.561556827,153.85122929 151.766947607,153.854934472 151.763011595,157.511461486 " moovel_rot="120.5" moovel_centroid="146.16228389,155.681345002" moovel_centroidlatlon="13.51371375,52.566820500000006"></polygon></g><g transform="translate(94.80119230000003 -104.6262318) rotate(0)"><polygon id="32558193" class="tile" points="402.118034202,153.860244864 402.115360959,155.836852409 387.023762915,155.826987367 387.019811227,153.85122929 402.118034202,153.860244864 " moovel_rot="172.7" moovel_centroid="394.569785656,154.843756543" moovel_centroidlatlon="13.338001566801774,52.52673544997825"></polygon></g><g transform="translate(-40.392559800000015 -130.0379368) rotate(0)"><polygon id="384545639" class="tile" points="524.365150325,155.316772022 541.034639999,155.32893616 541.034370259,153.863393618 524.364880578,153.85122929 524.365150325,155.316772022 " moovel_rot="-2.1" moovel_centroid="532.69976011,154.590082772" moovel_centroidlatlon="13.5958984,52.44079055"></polygon></g><g transform="translate(-57.1441782 -136.49188859999998) rotate(0)"><polygon id="384545638" class="tile" points="542.034639999,155.305847944 558.704129645,155.318011309 558.704260473,153.863392846 542.03477082,153.85122929 542.034639999,155.305847944 " moovel_rot="-2.1" moovel_centroid="550.369450053,154.584620347" moovel_centroidlatlon="13.595893699999998,52.44073609999999"></polygon></g><g transform="translate(-21.471776299999988 -144.7292568) rotate(0)"><polygon id="284514073" class="tile" points="523.364880578,153.85122929 507.195782643,153.857766508 507.190856395,155.393896188 523.359954807,155.387359016 523.364880578,153.85122929 " moovel_rot="95.5" moovel_centroid="515.277868647,154.622562754" moovel_centroidlatlon="13.386527499999998,52.515663049999986"></polygon></g><g transform="translate(430.3138494 -84.1401237) rotate(0)"><polygon id="366514549" class="tile" points="64.7848787535,153.851451743 68.9576012393,158.007161073 69.0309296235,159.454684705 59.9345645955,159.654665051 59.6405752225,153.85122929 64.7848787535,153.851451743 " moovel_rot="87.1" moovel_centroid="63.7117065032,156.979605938" moovel_centroidlatlon="13.449992361598072,52.44750734732761"></polygon></g><g transform="translate(441.4496007 -123.56661919999999) rotate(0)"><polygon id="48700551" class="tile" points="58.6340270886,153.860473001 50.4330791203,153.85122929 50.4295646319,159.226146348 58.6405752225,159.231097986 58.6340270886,153.860473001 " moovel_rot="66.9" moovel_centroid="54.5337642797,156.542785281" moovel_centroidlatlon="13.409472354342219,52.49470641843126"></polygon></g><g transform="translate(379.8295491 -97.64671229999999) rotate(0)"><polygon id="98942684" class="tile" points="114.716367877,153.85938591 124.121352189,153.85122929 124.126678715,158.292855276 114.72169751,158.301010353 114.716367877,153.85938591 " moovel_rot="63.6" moovel_centroid="119.421524344,156.076120085" moovel_centroidlatlon="13.413480450000002,52.5030693"></polygon></g><g transform="translate(-84.64901989999998 -73.37706640000002) rotate(0)"><polygon id="219558881" class="tile" points="591.456552645,153.85122929 591.459850261,155.434609211 576.70611765,155.435902708 576.702821799,153.852523687 591.456552645,153.85122929 " moovel_rot="117.0" moovel_centroid="584.081336287,154.64356624" moovel_centroidlatlon="13.506124700000003,52.466426100000014"></polygon></g><g transform="translate(368.22113119999995 -113.4783064) rotate(0)"><polygon id="438501161" class="tile" points="139.557617593,159.952000566 132.84445712,159.951213571 132.842149056,153.85122929 139.555309581,153.852015618 139.557617593,159.952000566 " moovel_rot="4.5" moovel_centroid="136.199883399,156.901614757" moovel_centroidlatlon="13.3910736,52.54931175"></polygon></g><g transform="translate(378.45210280000003 -88.20474949999999) rotate(0)"><polygon id="438501163" class="tile" points="131.842149056,159.951977652 125.128988754,159.951188487 125.126678715,153.85122929 131.839839069,153.852017789 131.842149056,159.951977652 " moovel_rot="4.5" moovel_centroid="128.48441396,156.9016033" moovel_centroidlatlon="13.3910965,52.54913105"></polygon></g><g transform="translate(246.77771090000005 -127.3674304) rotate(0)"><polygon id="438607976" class="tile" points="258.215088998,153.862486992 268.518985784,153.85122929 268.512941561,157.349279499 258.213726411,157.350633124 258.215088998,153.862486992 " moovel_rot="25.3" moovel_centroid="263.36761915,155.603273744" moovel_centroidlatlon="13.379803582076386,52.53006793559476"></polygon></g><g transform="translate(353.77152390000003 -142.5406239) rotate(0)"><polygon id="198718776" class="tile" points="152.766947607,153.85122929 152.78919057,160.076522205 159.206292843,160.081246765 159.184049792,153.855953849 152.766947607,153.85122929 " moovel_rot="90.4" moovel_centroid="155.986620203,156.966238034" moovel_centroidlatlon="13.3691435,52.52426500000001"></polygon></g><g transform="translate(293.4295809 -102.66286099999999) rotate(0)"><polygon id="324999825" class="tile" points="215.300134663,153.85122929 215.529497497,158.991877373 223.084543349,158.926406773 223.046387873,153.859896488 215.300134663,153.85122929 " moovel_rot="8.9" moovel_centroid="219.230515849,156.396867043" moovel_centroidlatlon="13.396508533340521,52.386774331256234"></polygon></g><g transform="translate(270.87230220000004 -77.5503262) rotate(0)"><polygon id="99252826" class="tile" points="248.896028411,153.85122929 248.957225554,158.497800508 240.938182588,158.490363293 240.909404076,153.852351584 248.896028411,153.85122929 " moovel_rot="93.3" moovel_centroid="244.926453115,156.174499768" moovel_centroidlatlon="13.178360247299668,52.531776437151706"></polygon></g><g transform="translate(242.8902074 -118.86900799999998) rotate(0)"><polygon id="383301592" class="tile" points="278.114024261,153.85999657 269.540562694,153.85122929 269.518985784,158.013495048 278.097039215,158.017411956 278.114024261,153.85999657 " moovel_rot="133.4" moovel_centroid="273.816818275,155.935717304" moovel_centroidlatlon="13.473879585592572,52.478789295608514"></polygon></g><g transform="translate(234.48802289999992 -151.3512274) rotate(0)"><polygon id="383301593" class="tile" points="287.697226958,153.85122929 279.12374986,153.857413007 279.114024261,158.014854878 287.687504055,158.0086737 287.697226958,153.85122929 " moovel_rot="133.3" moovel_centroid="283.40562672,155.933042828" moovel_centroidlatlon="13.47410595,52.47891750000001"></polygon></g><g transform="translate(-156.0698336 -117.47271799999999) rotate(0)"><polygon id="255525874" class="tile" points="249.999402415,153.859664204 249.957225554,158.793666327 257.170330241,158.872552351 257.213726411,153.85122929 249.999402415,153.859664204 " moovel_rot="0.8" moovel_centroid="253.595717247,156.344302589" moovel_centroidlatlon="13.396954157884876,52.386791701124054"></polygon></g><g transform="translate(45.84264839999997 -92.8034371) rotate(0)"><polygon id="207517675" class="tile" points="481.530283208,156.2794601 468.799617292,156.276046017 471.18487449,153.920899028 481.099342381,153.85122929 481.530283208,156.2794601 " moovel_rot="132.0" moovel_centroid="475.665157925,155.131972796" moovel_centroidlatlon="13.523033490535862,52.43136978564891"></polygon></g><g transform="translate(204.85195349999998 -135.43034260000002) rotate(0)"><polygon id="273570047" class="tile" points="312.654462855,158.10578948 312.640850535,153.860330918 320.754647758,153.85122929 320.771101439,158.102732518 312.654462855,158.10578948 " moovel_rot="64.8" moovel_centroid="316.706228601,155.980142856" moovel_centroidlatlon="13.331270432795735,52.51050555748165"></polygon></g><g transform="translate(-67.36666170000001 -139.5439097) rotate(0)"><polygon id="237881641" class="tile" points="360.644339819,153.852175126 370.667244037,153.85122929 370.603075696,156.926741318 360.602000902,156.93438135 360.644339819,153.852175126 " moovel_rot="168.4" moovel_centroid="365.627358247,155.390570168" moovel_centroidlatlon="13.432810249813897,52.514962916655875"></polygon></g><g transform="translate(478.71680139999995 -91.60552390000001) rotate(0)"><polygon id="83089143" class="tile" points="47.5447569009,160.081246765 47.5440817392,162.169940028 36.5769725997,162.160892713 36.5857340954,160.082157577 47.5447569009,160.081246765 " moovel_rot="172.3" moovel_centroid="42.0672507897,161.123689326" moovel_centroidlatlon="13.338318660509886,52.5269938315164"></polygon></g><g transform="translate(109.04590759999996 -109.7034069) rotate(0)"><polygon id="83999816" class="tile" points="418.460238724,153.855485876 418.455601412,157.643336693 410.648911728,157.638714894 410.666374899,153.85122929 418.460238724,153.855485876 " moovel_rot="123.0" moovel_centroid="414.5578416,155.747710765" moovel_centroidlatlon="13.456465181030211,52.53342112803741"></polygon></g><g transform="translate(495.42751100000004 -132.2141065) rotate(0)"><polygon id="440911735" class="tile" points="35.5769725997,162.206301034 24.8720978269,162.20437742 24.8667779375,160.081246765 35.5716512831,160.083169869 35.5769725997,162.206301034 " moovel_rot="109.7" moovel_centroid="30.2218751264,161.143773795" moovel_centroidlatlon="13.408799949999997,52.40136584999999"></polygon></g><g transform="translate(145.88867369999997 -78.2869039) rotate(0)"><polygon id="394951559" class="tile" points="386.007119054,158.105168227 378.926080508,158.104733112 378.938774283,153.85122929 386.019811227,153.851661994 386.007119054,158.105168227 " moovel_rot="146.4" moovel_centroid="382.472946602,155.978198236" moovel_centroidlatlon="13.439670249999997,52.509513749999996"></polygon></g><g transform="translate(-369.1672367 -148.41319149999998) rotate(0)"><polygon id="341596457" class="tile" points="371.667244037,158.706808608 371.670150313,153.85122929 377.926080508,153.858048591 377.923524118,158.706957911 371.667244037,158.706808608 " moovel_rot="93.0" moovel_centroid="374.796033063,156.280783072" moovel_centroidlatlon="13.569888375889775,52.41253944345803"></polygon></g><g transform="translate(89.04219730000005 -144.4535034) rotate(0)"><polygon id="281352086" class="tile" points="443.859734003,153.85122929 436.651170937,153.860790502 436.653905983,157.924615914 443.862725216,157.921728956 443.859734003,153.85122929 " moovel_rot="87.8" moovel_centroid="440.25786987,155.889602138" moovel_centroidlatlon="13.554652625730911,52.51336430899442"></polygon></g><g transform="translate(125.08621470000003 -118.85970320000001) rotate(0)"><polygon id="343792116" class="tile" points="409.648911728,153.85122929 409.646984618,158.420609468 403.167448784,158.413579207 403.118034202,154.120203585 403.179259613,153.852390777 409.648911728,153.85122929 " moovel_rot="98.3" moovel_centroid="406.396478599,156.131905663" moovel_centroidlatlon="13.526185017903352,52.56960394371029"></polygon></g><g transform="translate(83.42945839999999 -101.14876380000001) rotate(0)"><polygon id="405637881" class="tile" points="451.877734997,153.854796087 451.874111575,157.938644132 444.862725216,157.935077328 444.866348412,153.85122929 451.877734997,153.854796087 " moovel_rot="87.9" moovel_centroid="448.370230051,155.894936698" moovel_centroidlatlon="13.5552396,52.513299599999996"></polygon></g><g transform="translate(77.73974909999998 -135.38208889999999) rotate(0)"><polygon id="210561749" class="tile" points="459.856300728,153.855999573 459.861170191,157.872699616 452.882604666,157.867929326 452.877734997,153.85122929 459.856300728,153.855999573 " moovel_rot="87.9" moovel_centroid="456.369452647,155.861964441" moovel_centroidlatlon="13.555158000000002,52.51330139999999"></polygon></g><g transform="translate(70.39803939999996 -87.9474614) rotate(0)"><polygon id="141315104" class="tile" points="467.799617292,157.841230597 467.795726766,153.85122929 460.861170191,153.851528924 460.864816173,157.834855539 467.799617292,157.841230597 " moovel_rot="87.9" moovel_centroid="464.331300136,155.844722924" moovel_centroidlatlon="13.554645925708062,52.51328310882782"></polygon></g><g transform="translate(-109.26971269999999 -106.1586486) rotate(0)"><polygon id="447018174" class="tile" points="151.869730323,161.484286106 140.282833905,161.335375409 140.238425303,160.08915163 152.001318109,160.081246765 151.869730323,161.484286106 " moovel_rot="61.4" moovel_centroid="146.21406463,160.746600157" moovel_centroidlatlon="13.267744369247765,52.453171810475226"></polygon></g><g transform="translate(54.28641840000006 -109.92315909999999) rotate(0)"><polygon id="225402466" class="tile" points="482.530283208,153.854441581 488.351325543,153.85122929 488.405469401,158.485873404 482.617854664,158.490006909 482.530283208,153.854441581 " moovel_rot="103.1" moovel_centroid="485.476100873,156.168164321" moovel_centroidlatlon="13.572598143024566,52.41262276920567"></polygon></g><g transform="translate(-126.99774109999998 -74.18668159999999) rotate(0)"><polygon id="345398558" class="tile" points="559.704260473,153.85122929 559.710235695,157.08396033 567.20105305,157.084813709 567.206029033,153.852025329 559.704260473,153.85122929 " moovel_rot="89.7" moovel_centroid="563.455405815,155.467613609" moovel_centroidlatlon="13.537946594108686,52.527676975121565"></polygon></g><g transform="translate(-32.8331366000001 -151.3512268) rotate(0)"><polygon id="345398557" class="tile" points="568.206029033,153.85122929 568.212004255,157.08396033 575.702821799,157.084813709 575.696846593,153.852082668 568.206029033,153.85122929 " moovel_rot="89.7" moovel_centroid="571.95442542,155.468021499" moovel_centroidlatlon="13.537886400000001,52.527678050000006"></polygon></g><g transform="translate(460.78624819999993 -78.4776306) rotate(0)"><polygon id="332949710" class="tile" points="83.1823660986,162.566938936 75.143870755,162.566283053 75.1481135294,160.081590263 83.1800048935,160.081246765 83.1823660986,162.566938936 " moovel_rot="8.6" moovel_centroid="79.1638579887,161.32418498" moovel_centroidlatlon="13.572214529363363,52.40916254882722"></polygon></g><g transform="translate(488.06210559999994 -132.5909093) rotate(0)"><polygon id="383405292" class="tile" points="55.0090085168,163.593669225 48.5551247027,163.597821184 48.5499328245,161.850949426 48.5447569009,160.081246765 55.0018397186,160.082958054 55.0090085168,163.593669225 " moovel_rot="61.4" moovel_centroid="51.7767738994,161.838779557" moovel_centroidlatlon="13.46222836659234,52.49374014333992"></polygon></g><g transform="translate(483.01319889999996 -149.3493412) rotate(0)"><polygon id="383405296" class="tile" points="62.4732526158,163.597820414 56.0161822061,163.596102359 56.0090085168,160.085393855 62.4628834025,160.081246765 62.4679335092,162.033595672 62.4732526158,163.597820414 " moovel_rot="61.4" moovel_centroid="59.2410533336,161.840281453" moovel_centroidlatlon="13.462140432020389,52.493646355173595"></polygon></g><g transform="translate(476.4819699 -102.65762350000001) rotate(0)"><polygon id="439943137" class="tile" points="63.4732526158,160.091110433 68.3059330689,160.081246765 68.3235172937,164.524282625 63.4919249485,164.521350565 63.4732526158,160.091110433 " moovel_rot="36.2" moovel_centroid="65.8998179165,162.30440951" moovel_centroidlatlon="13.315444288246184,52.5867411818991"></polygon></g><g transform="translate(97.39429759999999 -103.87652499999999) rotate(0)"><polygon id="316397740" class="tile" points="207.163343604,161.158074147 196.992661193,161.16722149 196.993090954,160.081246765 207.168353,160.082056261 207.163343604,161.158074147 " moovel_rot="155.3" moovel_centroid="202.071552378,160.622112091" moovel_centroidlatlon="13.326996606003268,52.563909444911175"></polygon></g><g transform="translate(472.5910568 -87.80934560000001) rotate(0)"><polygon id="349904427" class="tile" points="69.3235172937,160.081246765 74.1399906523,160.086217787 74.143870755,164.407096228 69.3271874409,164.413059834 69.3235172937,160.081246765 " moovel_rot="1.1" moovel_centroid="71.7326270797,162.246921688" moovel_centroidlatlon="13.38517498481908,52.46930292467078"></polygon></g><g transform="translate(-129.3103485 -92.0573311) rotate(0)"><polygon id="113608392" class="tile" points="131.810341455,162.378375238 131.810392375,160.081246765 139.238425303,160.081515826 139.230885293,162.370641283 131.810341455,162.378375238 " moovel_rot="136.9" moovel_centroid="135.520351177,161.227752761" moovel_centroidlatlon="13.302208571651382,52.57167516025604"></polygon></g><g transform="translate(452.171844 -140.8333593) rotate(0)"><polygon id="343992823" class="tile" points="96.8937518411,160.082725212 96.8973195837,163.407912686 92.7340324028,163.400969787 91.0434133095,163.406433506 91.0398441107,160.081246765 96.8937518411,160.082725212 " moovel_rot="63.3" moovel_centroid="93.9689461093,161.743107273" moovel_centroidlatlon="13.566329632755112,52.571658058999255"></polygon></g><g transform="translate(438.50117090000003 -124.13372100000001) rotate(0)"><polygon id="343992820" class="tile" points="110.608718658,160.082719872 110.612283374,163.407908867 106.451989722,163.406936743 104.768159958,163.401509422 104.754800307,160.081246765 110.608718658,160.082719872 " moovel_rot="63.3" moovel_centroid="107.686492643,161.743777721" moovel_centroidlatlon="13.566295959148317,52.57175727732226"></polygon></g><g transform="translate(448.91502160000005 -109.88207349999999) rotate(0)"><polygon id="343992824" class="tile" points="103.751234657,160.082721519 103.754800307,163.407910045 99.5945089844,163.40693675 97.9106801608,163.401508956 97.8973195837,160.081246765 103.751234657,160.082721519 " moovel_rot="63.3" moovel_centroid="100.829010746,161.743778311" moovel_centroidlatlon="13.566387959148317,52.57172667732225"></polygon></g><g transform="translate(463.68384770000006 -157.5812546) rotate(0)"><polygon id="343992825" class="tile" points="90.0264839035,160.087649032 90.0398441107,163.407911409 85.8697620154,163.411862359 84.1859342848,163.406434016 84.1823660986,160.081246765 90.0264839035,160.087649032 " moovel_rot="63.3" moovel_centroid="87.1076265911,161.74752575" moovel_centroidlatlon="13.566234566011934,52.57169120957003"></polygon></g><g transform="translate(436.45503840000003 -132.50691559999999) rotate(0)"><polygon id="257177227" class="tile" points="111.612283374,160.081246765 117.684770547,160.082561408 117.687905205,163.183434095 111.615418631,163.182118112 111.612283374,160.081246765 " moovel_rot="24.1" moovel_centroid="114.650094658,161.632340069" moovel_centroidlatlon="13.425247200000001,52.58725509999999"></polygon></g><g transform="translate(423.87349960000006 -94.72025550000001) rotate(0)"><polygon id="188248301" class="tile" points="124.049868862,160.083884141 124.049981508,162.63926676 130.810341455,162.636629775 130.810228852,160.081246765 124.049868862,160.083884141 " moovel_rot="6.3" moovel_centroid="127.430105255,161.360256859" moovel_centroidlatlon="13.3346205,52.514421"></polygon></g><g transform="translate(431.2395 -80.1490158) rotate(0)"><polygon id="380979596" class="tile" points="123.036646202,164.233641367 123.049868862,160.086408547 118.696343093,160.081246765 118.687905205,164.238333435 123.036646202,164.233641367 " moovel_rot="154.1" moovel_centroid="120.866831357,162.159524941" moovel_centroidlatlon="13.552118659074814,52.54464851843091"></polygon></g><g transform="translate(361.738742 -101.55736329999999) rotate(0)"><polygon id="392992305" class="tile" points="195.992661193,160.086632575 195.991260641,161.550107603 188.059391971,161.556954073 188.056959792,160.081246765 195.992661193,160.086632575 " moovel_rot="131.2" moovel_centroid="192.019565086,160.818676665" moovel_centroidlatlon="13.488125328616189,52.49154458680282"></polygon></g><g transform="translate(391.3516857 -149.2608785) rotate(0)"><polygon id="356259136" class="tile" points="165.222909253,160.081246765 159.121652933,160.09471586 159.254168572,162.619657276 165.232322873,162.627671825 165.222909253,160.081246765 " moovel_rot="64.6" moovel_centroid="162.211895496,161.351493146" moovel_centroidlatlon="13.330963242977182,52.510139576062265"></polygon></g><g transform="translate(378.52082830000006 -87.1637304) rotate(0)"><polygon id="225402464" class="tile" points="180.197867484,161.911306442 173.212428151,161.906324029 173.212533929,160.081246765 180.197973022,160.086228434 180.197867484,161.911306442 " moovel_rot="162.1" moovel_centroid="176.705200883,160.996276423" moovel_centroidlatlon="13.57217295,52.412831000000004"></polygon></g><g transform="translate(399.54355699999996 -117.9094432) rotate(0)"><polygon id="380135512" class="tile" points="158.121652933,160.082971755 158.114912239,163.111773764 153.001318109,163.110047965 153.00806004,160.081246765 158.121652933,160.082971755 " moovel_rot="123.2" moovel_centroid="155.561485944,161.596510123" moovel_centroidlatlon="13.513356650000002,52.50568870000001"></polygon></g><g transform="translate(387.77856080000004 -141.71619520000002) rotate(0)"><polygon id="345397603" class="tile" points="172.212428151,162.411002788 172.208256552,160.085281221 166.232322873,160.081246765 166.405184867,162.595743781 172.212428151,162.411002788 " moovel_rot="168.3" moovel_centroid="169.225545869,161.288378663" moovel_centroidlatlon="13.535318281809161,52.534745433626405"></polygon></g><g transform="translate(284.6608167 -157.22947870000002) rotate(0)"><polygon id="186525005" class="tile" points="216.032336832,160.081246765 216.035493515,161.346902778 208.169791747,161.355116606 208.168353,160.083006136 216.032336832,160.081246765 " moovel_rot="104.9" moovel_centroid="212.098160527,160.716593439" moovel_centroidlatlon="13.325350838199443,52.52129417064114"></polygon></g><g transform="translate(11.920262799999989 -94.9657535) rotate(0)"><polygon id="404320743" class="tile" points="264.419044099,160.081246765 272.986319962,160.081634293 272.988066935,160.878209355 264.420791425,160.87782128 264.419044099,160.081246765 " moovel_rot="32.9" moovel_centroid="268.703556095,160.479727921" moovel_centroidlatlon="13.5008518,52.5171956"></polygon></g><g transform="translate(374.71730640000004 -124.9375971) rotate(0)"><polygon id="156844385" class="tile" points="187.055565908,160.081246765 181.207820233,160.084661639 181.197973022,162.110298323 187.056959792,162.11307183 187.055565908,160.081246765 " moovel_rot="150.2" moovel_centroid="184.131067122,161.097644603" moovel_centroidlatlon="13.427565058096478,52.54441318432003"></polygon></g><g transform="translate(329.79792539999994 -109.88528289999999) rotate(0)"><polygon id="187695125" class="tile" points="234.400277938,161.480806393 234.399952025,160.081246765 227.872158853,160.084238031 227.869817715,161.473179682 234.400277938,161.480806393 " moovel_rot="165.9" moovel_centroid="231.139694799,160.779916786" moovel_centroidlatlon="13.321495390019157,52.51183173465422"></polygon></g><g transform="translate(284.6696629 -154.1457702) rotate(0)"><polygon id="182896349" class="tile" points="280.761711859,161.089085407 280.762834181,160.081246765 273.988456475,160.085960539 273.988066935,161.087160331 280.761711859,161.089085407 " moovel_rot="96.3" moovel_centroid="277.378998063,160.585853499" moovel_centroidlatlon="13.31975046872543,52.51392378386123"></polygon></g><g transform="translate(323.659731 -134.35815680000002) rotate(0)"><polygon id="382060914" class="tile" points="240.966712277,160.081246765 240.969348208,161.666746786 235.402913212,161.669377436 235.400277938,160.083877736 240.966712277,160.081246765 " moovel_rot="116.1" moovel_centroid="238.184813003,160.875312196" moovel_centroidlatlon="13.5068666,52.46553175"></polygon></g><g transform="translate(78.7527624 -131.4952699) rotate(0)"><polygon id="383405289" class="tile" points="300.196349543,160.081246765 307.524999869,160.081526179 307.525292567,160.705413269 300.196642241,160.705133834 300.196349543,160.081246765 " moovel_rot="1.2" moovel_centroid="303.860821075,160.393330012" moovel_centroidlatlon="13.461143450000012,52.493916750000004"></polygon></g><g transform="translate(312.2559317 -77.51527370000001) rotate(0)"><polygon id="133822360" class="tile" points="247.025071329,160.081246765 252.588777565,160.087422049 252.59442376,161.601872679 247.024327375,161.604590227 247.025071329,160.081246765 " moovel_rot="35.7" moovel_centroid="249.805433546,160.843927706" moovel_centroidlatlon="13.381329068234475,52.528252859450795"></polygon></g><g transform="translate(277.9208508 -95.6718505) rotate(0)"><polygon id="135805432" class="tile" points="287.965966885,160.085773785 281.762834181,160.081246765 281.762891528,161.108400771 287.966024016,161.112928252 287.965966885,160.085773785 " moovel_rot="25.0" moovel_centroid="284.864429385,160.59708739" moovel_centroidlatlon="13.381289950000003,52.5291127"></polygon></g><g transform="translate(344.54842030000003 -148.00030610000002) rotate(0)"><polygon id="343992821" class="tile" points="221.442878972,160.084309538 221.452652491,162.228807401 218.754537085,162.198572369 217.035493515,162.230272981 217.035702697,160.081246765 221.442878972,160.084309538 " moovel_rot="65.6" moovel_centroid="219.242076909,161.148794301" moovel_centroidlatlon="13.566835102024836,52.572222106034275"></polygon></g><g transform="translate(340.2104104 -117.0337915) rotate(0)"><polygon id="343992822" class="tile" points="226.860045557,160.084306712 226.869817715,162.228805192 224.171698514,162.198571882 222.452652491,162.230273607 222.452863052,160.081246765 226.860045557,160.084306712 " moovel_rot="65.6" moovel_centroid="224.659239699,161.148793196" moovel_centroidlatlon="13.566656202024836,52.57229650603426"></polygon></g><g transform="translate(181.9657738 -113.96356019999999) rotate(0)"><polygon id="442174777" class="tile" points="241.969348208,160.087304371 246.024327375,160.081246765 245.985635854,162.297882541 242.07891683,162.229690506 241.969348208,160.087304371 " moovel_rot="1.0" moovel_centroid="244.025925073,161.167300324" moovel_centroidlatlon="13.313151068416223,52.62233198812548"></polygon></g><g transform="translate(-136.40458049999998 -112.84777469999999) rotate(0)"><polygon id="383405288" class="tile" points="329.520247468,160.08634418 329.522900572,160.681330403 335.825298131,160.676233289 335.822644822,160.081246765 329.520247468,160.08634418 " moovel_rot="145.6" moovel_centroid="332.672773014,160.381288661" moovel_centroidlatlon="13.461163250000007,52.493978299999995"></polygon></g><g transform="translate(303.60007790000003 -103.48648500000002) rotate(0)"><polygon id="401834003" class="tile" points="263.418418705,161.78680382 259.062447309,161.787962969 259.063072724,160.082406087 263.419044099,160.081246765 263.418418705,161.78680382 " moovel_rot="173.5" moovel_centroid="261.240745746,160.934604911" moovel_centroidlatlon="13.274029349999998,52.4519781"></polygon></g><g transform="translate(250.13269279999997 -83.3035656) rotate(0)"><polygon id="404320746" class="tile" points="318.134670219,160.876081938 312.490339836,160.873252623 312.491217144,160.0821334 318.141097573,160.081246765 318.134670219,160.876081938 " moovel_rot="146.2" moovel_centroid="315.316537286,160.478114316" moovel_centroidlatlon="13.502182047019568,52.51703966071941"></polygon></g><g transform="translate(244.07267410000003 -89.64475630000001) rotate(0)"><polygon id="404320744" class="tile" points="324.791232729,160.877230662 319.141097573,160.877533378 319.144253863,160.089949353 324.787365635,160.081246765 324.791232729,160.877230662 " moovel_rot="140.1" moovel_centroid="321.970982802,160.481568082" moovel_centroidlatlon="13.500869793375589,52.51747640481157"></polygon></g><g transform="translate(311.82510099999996 -140.8544594) rotate(0)"><polygon id="120795256" class="tile" points="257.773907401,162.000754502 258.062447309,160.239731858 253.863097376,160.081246765 253.59442376,162.006715698 257.773907401,162.000754502 " moovel_rot="110.6" moovel_centroid="255.792723119,161.079912791" moovel_centroidlatlon="13.382695731137268,52.411030754415286"></polygon></g><g transform="translate(272.0748042 -128.2108987) rotate(0)"><polygon id="397542104" class="tile" points="299.196349543,160.081246765 294.004925029,160.085056634 294.006304709,161.03722677 299.191690141,161.044710451 299.196349543,160.081246765 " moovel_rot="-3.3" moovel_centroid="296.604916485,160.561969353" moovel_centroidlatlon="13.257804651295839,52.43130187314338"></polygon></g><g transform="translate(-107.44600250000002 -99.4594943) rotate(0)"><polygon id="225402458" class="tile" points="288.970107189,160.082833837 293.004925029,160.081246765 293.00084211,161.609305338 288.966024016,161.61089194 288.970107189,160.082833837 " moovel_rot="151.7" moovel_centroid="290.98547469,160.846069478" moovel_centroidlatlon="13.572279350000004,52.412805199999994"></polygon></g><g transform="translate(-264.33456390000003 -113.02979640000001) rotate(0)"><polygon id="54167549" class="tile" points="468.756000281,160.411305059 473.941443271,160.41062042 473.94194771,160.081246765 468.749837306,160.082327501 468.756000281,160.411305059 " moovel_rot="-3.4" moovel_centroid="471.347825652,160.246339582" moovel_centroidlatlon="13.41212528278123,52.55745760004142"></polygon></g><g transform="translate(-43.69355330000002 -77.547949) rotate(0)"><polygon id="356260199" class="tile" points="308.528476475,160.083070561 311.490339836,160.081246765 311.413432337,161.637393474 308.525292567,161.607771125 308.528476475,160.083070561 " moovel_rot="156.9" moovel_centroid="309.99449919,160.849195175" moovel_centroidlatlon="13.330065710922897,52.5099911916472"></polygon></g><g transform="translate(243.3909296 -108.9369114) rotate(0)"><polygon id="150591186" class="tile" points="325.81380488,160.083441358 328.520247468,160.081246765 328.501138819,161.704242666 325.791232729,161.694076283 325.81380488,160.083441358 " moovel_rot="15.7" moovel_centroid="327.158328298,160.890934542" moovel_centroidlatlon="13.443923050564498,52.57157772764627"></polygon></g><g transform="translate(219.50194979999998 -122.24748290000001) rotate(0)"><polygon id="315473986" class="tile" points="352.243318384,160.081246765 352.239864936,161.204345418 349.244090257,161.201782983 349.241480617,160.081486163 352.243318384,160.081246765 " moovel_rot="155.2" moovel_centroid="350.742813357,160.642026616" moovel_centroidlatlon="13.330322115323696,52.5105564008289"></polygon></g><g transform="translate(216.49505290000002 -157.5812531) rotate(0)"><polygon id="315474001" class="tile" points="356.24515923,160.081246765 356.241708273,161.20435081 353.245930514,161.201781707 353.243318384,160.081479497 356.24515923,160.081246765 " moovel_rot="155.2" moovel_centroid="354.744653909,160.64202598" moovel_centroidlatlon="13.330518615323696,52.51081150082891"></polygon></g><g transform="translate(224.60488130000005 -77.97618720000001) rotate(0)"><polygon id="315473997" class="tile" points="348.241480617,160.083797372 348.238022841,161.206886658 345.242253515,161.204335807 345.245711404,160.081246765 348.241480617,160.083797372 " moovel_rot="155.2" moovel_centroid="346.741867149,160.644066654" moovel_centroidlatlon="13.329981799999997,52.51011309999999"></polygon></g><g transform="translate(201.05010500000003 -151.460252) rotate(0)"><polygon id="315473993" class="tile" points="372.236080783,160.083813913 372.238692387,161.204114982 369.242915419,161.201547592 369.240303927,160.081246765 372.236080783,160.083813913 " moovel_rot="155.2" moovel_centroid="370.739498183,160.642680816" moovel_centroidlatlon="13.330467650000003,52.510746"></polygon></g><g transform="translate(213.08508999999998 -98.64718200000002) rotate(0)"><polygon id="315474010" class="tile" points="360.240930742,160.083802349 360.243538025,161.204094066 357.2477664,161.20153824 357.24515923,160.081246765 360.240930742,160.083802349 " moovel_rot="155.2" moovel_centroid="358.744348653,160.642670358" moovel_centroidlatlon="13.330127849999998,52.510303500000006"></polygon></g><g transform="translate(209.67979249999996 -134.33147780000002) rotate(0)"><polygon id="315473991" class="tile" points="364.23931028,160.083803956 364.241918163,161.204096972 361.246145796,161.201539538 361.243538025,160.081246765 364.23931028,160.083803956 " moovel_rot="155.2" moovel_centroid="362.74272812,160.642671811" moovel_centroidlatlon="13.330176049999999,52.510365"></polygon></g><g transform="translate(206.8347357 -116.22503319999998) rotate(0)"><polygon id="315474006" class="tile" points="368.237693528,160.083810686 368.240303927,161.204109148 365.244528449,161.201544983 365.241918163,160.081246765 368.237693528,160.083810686 " moovel_rot="155.2" moovel_centroid="366.741111071,160.642677899" moovel_centroidlatlon="13.330373250000001,52.510622600000005"></polygon></g><g transform="translate(187.38288919999997 -86.5565261) rotate(0)"><polygon id="315474013" class="tile" points="388.253973297,160.081246765 388.245929313,161.194410587 385.250153106,161.191844843 385.252134001,160.081482853 388.253973297,160.081246765 " moovel_rot="155.2" moovel_centroid="386.751178593,160.637059581" moovel_centroidlatlon="13.330421515250103,52.51068305087012"></polygon></g><g transform="translate(183.39711120000004 -145.33792519999997) rotate(0)"><polygon id="315473995" class="tile" points="392.257794104,160.083818927 392.255815781,161.194186484 389.253973297,161.194415673 389.262014931,160.081246765 392.257794104,160.083818927 " moovel_rot="155.2" moovel_centroid="390.756768473,160.63860365" moovel_centroidlatlon="13.330618084749895,52.510937849129895"></polygon></g><g transform="translate(192.5619347 -92.6686779) rotate(0)"><polygon id="315474004" class="tile" points="384.250153106,160.081246765 384.242104817,161.19440127 381.24633399,161.191847172 381.24831919,160.081494498 384.250153106,160.081246765 " moovel_rot="155.2" moovel_centroid="382.747358938,160.637060744" moovel_centroidlatlon="13.330079515250105,52.51023745087012"></polygon></g><g transform="translate(201.7632167 -103.8537145) rotate(0)"><polygon id="315474014" class="tile" points="376.242513034,160.08381719 376.234470868,161.196984948 373.238692387,161.194414283 373.246734663,160.081246765 376.242513034,160.08381719 " moovel_rot="155.2" moovel_centroid="374.740602792,160.6391158" moovel_centroidlatlon="13.330567999999998,52.51087135"></polygon></g><g transform="translate(198.47037789999996 -126.21831719999999) rotate(0)"><polygon id="315474002" class="tile" points="380.24633399,160.083820537 380.238293062,161.196990972 377.242513034,161.19441696 377.250554074,160.081246765 380.24633399,160.083820537 " moovel_rot="155.2" moovel_centroid="378.744423594,160.639118812" moovel_centroidlatlon="13.3306661,52.51099944999999"></polygon></g><g transform="translate(174.73088940000008 -139.3247015) rotate(0)"><polygon id="315474011" class="tile" points="404.251062781,160.083807276 404.249080152,161.194165513 401.253306251,161.191604761 401.255288992,160.081246765 404.251062781,160.083807276 " moovel_rot="155.2" moovel_centroid="402.752184598,160.637706082" moovel_centroidlatlon="13.33027715,52.510492049999996"></polygon></g><g transform="translate(183.48141330000004 -110.59977460000002) rotate(0)"><polygon id="315473990" class="tile" points="396.255549868,160.083798986 396.253564175,161.194150593 393.257794104,161.19159813 393.259779908,160.081246765 396.255549868,160.083798986 " moovel_rot="155.2" moovel_centroid="394.756672068,160.637698622" moovel_centroidlatlon="13.33002865,52.51017484999999"></polygon></g><g transform="translate(179.94196860000005 -155.4549141) rotate(0)"><polygon id="315473998" class="tile" points="400.253306251,160.083805682 400.251323032,161.194162643 397.255549868,161.191603486 397.257533198,160.081246765 400.253306251,160.083805682 " moovel_rot="155.2" moovel_centroid="398.754428141,160.637704647" moovel_centroidlatlon="13.330224949999998,52.51043105"></polygon></g><g transform="translate(240.38559099999998 -81.3439159) rotate(0)"><polygon id="356256959" class="tile" points="339.60573461,161.329456379 340.265688835,160.081246765 337.364292967,160.082367071 336.825298131,161.313191499 339.60573461,161.329456379 " moovel_rot="161.5" moovel_centroid="338.52060798,160.697487439" moovel_centroidlatlon="13.33168520460509,52.51115148019299"></polygon></g><g transform="translate(173.13792619999998 -97.85403) rotate(0)"><polygon id="315474007" class="tile" points="408.253686132,161.117975502 405.251847026,161.118212001 405.251062781,160.081483488 408.252901784,160.081246765 408.253686132,161.117975502 " moovel_rot="155.2" moovel_centroid="406.752374485,160.599729442" moovel_centroidlatlon="13.330402750000003,52.51065845000001"></polygon></g><g transform="translate(165.1420013 -132.2430477) rotate(0)"><polygon id="315473992" class="tile" points="416.261168833,161.108035553 413.259331257,161.108275364 413.263139913,160.081486797 416.264977386,160.081246765 416.261168833,161.108035553 " moovel_rot="155.2" moovel_centroid="414.762154401,160.594761123" moovel_centroidlatlon="13.330303350000001,52.51053179999999"></polygon></g><g transform="translate(169.67272030000004 -120.16865290000001) rotate(0)"><polygon id="315474012" class="tile" points="412.255519857,161.108029391 409.253686132,161.108277536 409.257497635,160.081495133 412.259331257,160.081246765 412.255519857,161.108029391 " moovel_rot="155.2" moovel_centroid="410.756508775,160.594762209" moovel_centroidlatlon="13.33006075,52.5102128"></polygon></g><g transform="translate(126.12969960000004 -149.3426767) rotate(0)"><polygon id="315473996" class="tile" points="456.267567148,161.107807114 453.265726492,161.108040258 453.269532871,160.081246765 456.265310225,160.08381499 456.267567148,161.107807114 " moovel_rot="155.2" moovel_centroid="454.76635075,160.595399726" moovel_centroidlatlon="13.330499885372333,52.51078689881108"></polygon></g><g transform="translate(119.01990320000004 -88.73830410000001) rotate(0)"><polygon id="315474008" class="tile" points="464.267446647,161.108044111 461.271666922,161.105470752 461.269408424,160.081475221 464.271251246,160.081246765 464.267446647,161.108044111 " moovel_rot="155.2" moovel_centroid="462.770626852,160.593886774" moovel_centroidlatlon="13.330647314627672,52.51097480118892"></polygon></g><g transform="translate(133.35734710000003 -143.38421590000002) rotate(0)"><polygon id="315474000" class="tile" points="452.265726492,161.10778682 449.263891227,161.108031633 449.267701591,160.081246765 452.263473554,160.083803321 452.265726492,161.10778682 " moovel_rot="155.2" moovel_centroid="450.764514783,160.59538958" moovel_centroidlatlon="13.330157285372328,52.510340398811074"></polygon></g><g transform="translate(125.46656809999996 -105.77704750000001) rotate(0)"><polygon id="315473989" class="tile" points="460.265602681,161.108041635 457.269824502,161.105471624 457.267567148,160.081478568 460.269408424,160.081246765 460.265602681,161.108041635 " moovel_rot="155.2" moovel_centroid="458.768784231,160.59388721" moovel_centroidlatlon="13.330549214627668,52.5108467011889"></polygon></g><g transform="translate(138.162669 -137.1807598) rotate(0)"><polygon id="315473987" class="tile" points="448.263891227,161.107784027 445.262056705,161.108030447 445.265867618,160.081246765 448.261638838,160.083801715 448.263891227,161.107784027 " moovel_rot="155.2" moovel_centroid="446.762680164,160.595388184" moovel_centroidlatlon="13.330109085372328,52.51027889881108"></polygon></g><g transform="translate(146.21502159999994 -114.60304069999998) rotate(0)"><polygon id="315474015" class="tile" points="440.258665713,161.110605729 437.262889047,161.108038994 437.266696011,160.081246765 440.262472574,160.08381328 440.258665713,161.110605729 " moovel_rot="155.2" moovel_centroid="438.76268089,160.595926195" moovel_centroidlatlon="13.3304489,52.51072139999999"></polygon></g><g transform="translate(158.4006708 -77.02128510000001) rotate(0)"><polygon id="315474005" class="tile" points="428.25991351,161.110591415 425.264140647,161.108032909 425.267950422,160.081246765 428.263723182,160.083805049 428.25991351,161.110591415 " moovel_rot="155.2" moovel_centroid="426.763931995,160.595919037" moovel_centroidlatlon="13.3302062,52.510406399999994"></polygon></g><g transform="translate(142.4434973 -125.23921659999999) rotate(0)"><polygon id="315474003" class="tile" points="444.258251556,161.110614446 441.262472574,161.108042699 441.266277826,160.081246765 444.262056705,160.083818292 444.258251556,161.110614446 " moovel_rot="155.2" moovel_centroid="442.762264719,160.595930553" moovel_centroidlatlon="13.330599300000001,52.510913200000005"></polygon></g><g transform="translate(151.5703583 -93.93372129999999) rotate(0)"><polygon id="315473994" class="tile" points="436.259081085,161.110600122 433.263305909,161.10803661 433.267113974,160.081246765 436.262889047,160.083810055 436.259081085,161.110600122 " moovel_rot="155.2" moovel_centroid="434.763097558,160.595923391" moovel_centroidlatlon="13.330354499999999,52.510597999999995"></polygon></g><g transform="translate(155.6007348 -157.581254) rotate(0)"><polygon id="315473988" class="tile" points="432.259496781,161.110594185 429.263723182,161.108034088 429.267532413,160.081246765 432.263305909,160.083806641 432.259496781,161.110594185 " moovel_rot="155.2" moovel_centroid="430.763514625,160.595920423" moovel_centroidlatlon="13.330258400000004,52.5104674"></polygon></g><g transform="translate(167.99630870000004 -83.29906030000001) rotate(0)"><polygon id="315474009" class="tile" points="420.26074641,161.110576964 417.264977386,161.108026766 417.268789998,160.081246765 420.264558919,160.083796739 420.26074641,161.110576964 " moovel_rot="155.2" moovel_centroid="418.764768233,160.595911811" moovel_centroidlatlon="13.329963000000001,52.51008849999999"></polygon></g><g transform="translate(165.16417110000003 -99.9591371) rotate(0)"><polygon id="315473999" class="tile" points="424.260328689,161.110579774 421.264558919,161.108027962 421.26837098,160.081246765 424.264140647,160.083798355 424.260328689,161.110579774 " moovel_rot="155.2" moovel_centroid="422.764349863,160.595913217" moovel_centroidlatlon="13.330009900000002,52.51015029999999"></polygon></g><g transform="translate(245.5279352 -131.2650272) rotate(0)"><polygon id="442174778" class="tile" points="341.265688835,160.081246765 344.001531161,160.083740054 344.242253515,161.330966613 341.649460625,161.40121595 341.265688835,160.081246765 " moovel_rot="144.2" moovel_centroid="342.775655768,160.719438659" moovel_centroidlatlon="13.313146153441245,52.622534564098856"></polygon></g><g transform="translate(-24.79666850000001 -130.5477198) rotate(0)"><polygon id="189731663" class="tile" points="467.749837306,160.983957488 467.704325908,160.082584279 465.271251246,160.081246765 465.286893405,161.00115189 467.749837306,160.983957488 " moovel_rot="130" moovel_centroid="466.498979314,160.538193592" moovel_centroidlatlon="13.275185625428149,52.59741635199931"></polygon></g><g transform="translate(-405.9749725 -129.30949429999998) rotate(0)"><polygon id="442174774" class="tile" points="474.94194771,160.081246765 476.686416196,160.081714558 476.792334201,160.649226721 475.096976242,160.70012082 474.94194771,160.081246765 " moovel_rot="114.2" moovel_centroid="475.86663685,160.377177778" moovel_centroidlatlon="13.307637766162957,52.62136849041158"></polygon></g></g></svg>