<svg><g transform="translate(0 0)"><polygon class="bin" points="1.875,0.0 -0.77665042945,1.09834957055 -1.875,3.75 -1.875,803.749999 -0.77665042945,806.401649429 1.875,807.499999 360.500793798,807.499999 363.070403871,806.481226576 365.623923442,804.078808825 366.307752112,803.212423426 372.154033381,793.012891144 372.316532787,792.811215785 373.113577714,789.962728923 371.597984024,787.422623849 340.914545609,765.171329226 338.618393909,761.460726635 339.589066415,757.206472399 344.444233116,750.31211536 344.489010319,750.247088035 350.366810821,741.515730505 350.577409016,741.220053556 356.784209381,732.975439229 356.902240215,732.823145751 363.75783812,724.228950383 365.714597929,722.552265264 378.202234314,715.410991688 391.740945549,707.670059012 392.838421435,707.041181352 399.893018483,703.018731989 399.89762803,703.016099354 399.987083165,702.96492514 401.874999,699.709907081 401.874999,677.479693628 400.881754045,674.93748954 398.428171467,673.741968858 395.813989144,674.526435522 387.942595645,680.686028522 386.265778954,681.651903695 373.542238384,686.751560708 368.569197952,686.787860189 358.343851245,682.861747689 355.653644678,680.988161402 330.870839564,652.772927384 329.554156579,647.989126643 332.500055709,643.996623427 337.990658951,641.117356612 338.094108451,641.061018746 399.97001072,606.092758978 401.874999,602.828033606 401.874999,578.038107899 401.216047426,575.914921701 399.470775197,574.537909843 388.08260337,570.159320309 387.141149172,569.712708485 382.180084117,566.87988024 381.559495362,566.596940735 343.371983857,553.230152464 339.997776865,550.070303305 340.060695294,545.447970473 352.599613313,518.072302853 353.799773604,516.271417202 358.71309508,510.956571963 360.776169724,509.431729346 362.78944952,508.463279492 366.294708973,507.808304208 370.540503134,508.144028154 372.242784796,508.499497102 396.899859723,517.022756052 400.300800888,516.532771324 401.874999,513.478530642 401.874999,479.837634682 400.31833586,476.795961883 396.940719844,476.279547713 289.258907924,512.120528115 287.362837836,512.466494794 280.47840893,512.739615708 278.645812182,512.565363462 275.142943335,511.747956131 272.77286666,511.19459061 269.448969616,509.326853256 266.784827228,506.613689811 264.943882609,503.083335236 264.08853219,498.51410724 264.696487227,494.198353437 266.687391808,490.229495816 267.74628356,488.687077125 269.372914353,486.899463428 272.23992922,485.02304637 276.437833492,483.601420505 375.462069054,450.083146451 375.539055796,450.057592764 399.285318348,442.330878998 401.159277955,440.968460844 401.874999,438.764906619 401.874999,403.86600892 401.134710999,401.629016815 399.206127704,400.275234529 381.73290305,395.014306756 381.726124974,395.012272952 322.250961349,377.227527442 318.804421413,374.378072437 318.449767403,369.920242035 333.707938927,324.014089368 349.377397254,276.869595641 352.159847612,273.590914704 356.437950256,273.155465006 396.991460055,284.877809383 397.051728303,284.669311074 398.371074218,285.092828732 400.8622679,283.91408479 401.874999,281.350911177 401.874999,257.408988535 400.974745481,254.971480588 398.706228338,253.704306031 387.707543405,251.978717305 387.290312336,251.936987584 369.459176071,251.156434004 369.253082833,251.153082503 353.111858261,251.334284416 352.837615809,251.347414547 339.15998464,252.505340916 338.397153434,252.527404289 331.028555644,252.331153352 330.200378986,252.401233886 319.563814645,254.50720393 315.317657917,253.691756536 312.838368573,250.149451387 307.809853539,228.225838139 308.333892499,224.230924382 311.340142214,221.548310842 326.671952351,215.554475087 327.963908874,215.190190294 343.219527244,212.461631324 343.801896476,212.382988362 371.727219727,209.821488964 374.219962948,208.541485459 375.129550475,205.891046199 373.948089478,203.35011573 370.311054017,199.943820023 370.587378074,195.123154755 377.962369229,181.460113608 382.252252353,178.106809937 391.322767657,175.78009193 395.521640453,176.040956988 396.750794055,176.525062395 400.23559506,176.135586456 401.874999,173.035927721 401.874999,151.933486256 400.230158193,148.830132461 399.137987641,148.089258868 398.373895605,147.690607682 386.81749653,143.265169303 383.469808395,140.507462554 379.797132591,134.628355191 377.971459979,133.118429673 348.021860295,121.514965512 344.745243058,118.221847596 344.994498879,113.58302041 358.185891868,87.7398348865 361.690207284,84.8427061212 366.201453414,85.4103679655 396.218979782,103.12648508 398.752585154,103.594109184 400.989955202,102.31661016 401.874999,99.8969973895 401.874999,92.3385461671 401.141694718,90.1109809171 399.228573964,88.7546066727 396.630793472,87.9546920768 352.54799271,55.2521054949 349.968741498,51.3153932834 342.250252333,17.9722249564 342.143478558,17.4026718522 340.098421383,3.21499250609 338.842003151,0.915500211488 336.386781991,0.0 1.875,0.0 " transform="translate(1.875 0)"></polygon><g transform="translate(506.6214550000006 -96.5520140000001) rotate(0)"><polygon class="29334266" points="-392.882920029,821.339124084 -457.506050629,879.301067787 -484.940092704,896.77216905 -504.213787944,827.831402341 -397.589178619,801.0 -392.882920029,821.339124084 "></polygon></g><g transform="translate(275.9112752 -455.2218538999999) rotate(0)"><polygon class="31767288" points="-265.146416519,1139.09434329 -254.982780712,1176.17973962 -261.213877997,1178.26017266 -273.507190911,1135.17089279 -260.824784507,1132.15958265 -245.387693369,1128.31110403 -246.365502101,1125.19358705 -223.980103351,1119.78322822 -232.623743434,1086.40272494 -218.558114909,1082.46679099 -220.465479491,1074.79484604 -234.881390169,1077.00646501 -236.42400049,1071.82103113 -222.128031256,1068.15999077 -222.571517081,1065.60475997 -213.55522358,1063.66803271 -201.455573544,1114.66650469 -148.278244317,1102.22768718 -145.344939408,1109.4873074 -187.950586389,1120.19556498 -185.577945659,1129.17951066 -215.906946349,1137.54495509 -219.229426488,1125.17484447 -229.537270629,1127.66136096 -228.844879898,1130.21660064 -265.146416519,1139.09434329 "></polygon></g><g transform="translate(156.25084850000002 -140.94573149999997) rotate(0)"><polygon class="26729637" points="-22.8347182322,913.350707416 -17.5165235281,902.030641899 -29.8813603171,897.963666472 -19.2773683717,875.760870733 -15.6784866007,866.677348869 -8.90110531715,857.443897411 -4.70816465979,857.887452818 -1.0,850.378248676 -29.430252308,801.0 -55.1875000141,824.620827868 -60.7355714438,820.641331535 -68.7365771579,828.700281074 -63.2790203059,832.923421976 -58.8825809166,836.109520064 -55.9897644071,833.479427288 -54.7459072616,834.591437962 -50.5271186954,833.160817501 -46.1763481677,841.363459527 -42.0972435328,839.645464883 -24.5107652432,873.805476709 -47.8759160819,883.420019996 -27.0475064402,922.977766577 -22.8347182322,913.350707416 "></polygon></g><g transform="translate(535.7389169 -763.8336516) rotate(0)"><polygon class="23914316" points="-386.891962641,1365.26369204 -427.922698621,1410.37226423 -429.951637659,1410.51598198 -448.622814049,1399.09979699 -464.037402958,1389.67067103 -464.499146241,1388.07728045 -423.664631558,1342.81879854 -421.851794016,1342.58135271 -404.751030587,1352.96648634 -387.130172064,1363.67655222 -386.891962641,1365.26369204 "></polygon></g><g transform="translate(149.67981129999998 -1107.5548632999999) rotate(0)"><polygon class="36338819" points="-8.39984816085,1625.34082185 -147.216825117,1730.07898213 -138.140300656,1738.58953127 -67.425017822,1686.57651723 0.0,1632.56412362 -8.39984816085,1625.34082185 "></polygon></g><g transform="translate(238.7554935 -1313.8949911) rotate(0)"><polygon class="28825208" points="-224.166283263,1793.69248864 -236.491936829,1800.45991887 -192.55635114,1894.16690671 -186.193639013,1892.6109518 -177.820190296,1877.08265415 -177.451673004,1869.74030481 -176.928543394,1859.24856146 -176.818469848,1857.08647575 -179.9880369,1851.46255459 -184.813328872,1842.8954514 -189.026347438,1844.4701484 -190.053503369,1843.1454033 -187.800529916,1841.13953944 -189.34724978,1838.3775715 -195.710591365,1830.2103973 -207.024012214,1815.69445722 -224.166283263,1793.69248864 "></polygon></g><g transform="translate(652.7176466000001 -1347.5612592) rotate(0)"><polygon class="12814623" points="-579.548572993,1896.73394609 -541.051239903,1881.52543708 -558.100844715,1828.84561104 -567.464442488,1800.85307285 -574.3288043,1793.69248864 -583.221881113,1799.71587691 -580.382461156,1804.30215109 -574.088654702,1832.32593637 -569.765751083,1850.01499708 -590.706777232,1855.07615861 -589.008392215,1861.85561795 -567.95693316,1856.60700404 -562.847769551,1876.83916945 -583.688086473,1881.65040423 -582.87089821,1885.12449146 -584.710544435,1885.62436018 -586.866278502,1886.21170594 -584.013105198,1897.42126603 -579.548572993,1896.73394609 "></polygon></g><g transform="translate(432.30170580000004 -986.3434880000001) rotate(0)"><polygon class="28918599" points="-329.111968363,1421.28118663 -345.893897547,1424.94248232 -390.608484431,1438.48178533 -410.684173429,1442.64292067 -419.331351091,1442.81161536 -426.198509077,1440.03752501 -428.881651735,1436.48244137 -429.833143712,1432.82114333 -429.256060079,1429.21607755 -427.539531572,1427.77280185 -336.958760745,1410.51598198 -332.109698365,1410.51598198 -325.725545965,1411.07829663 -296.761191058,1417.60739581 -297.444992636,1421.93722079 -314.710511143,1420.83133465 -329.111968363,1421.28118663 "></polygon></g><g transform="translate(734.9073022 -1052.5378529999998) rotate(0)"><polygon class="30410088" points="-570.413406006,1515.01209959 -637.335988413,1527.39878771 -645.243255098,1496.93829951 -639.483624554,1496.45083212 -615.382230343,1494.41971816 -573.309281572,1490.86370687 -573.374723612,1494.67595098 -571.325278812,1494.53221062 -570.413406006,1515.01209959 "></polygon></g><g transform="translate(186.3184971 -648.8146683) rotate(0)"><polygon class="31255585" points="0.0,1217.71456154 -6.73578858334,1221.52063657 -10.9571499229,1223.06431584 -24.1001450317,1227.82034873 -27.1975439115,1228.8015541 -37.4301266679,1232.95761564 -45.8726654763,1215.92089428 -60.7169251837,1221.75812568 -68.1961617162,1224.29550951 -67.3221676789,1212.02107478 -67.0861748597,1204.53392368 -11.7681864346,1178.26017266 -8.91243651663,1182.79120453 -18.8471792143,1187.65972143 -10.6899643705,1200.92159313 -14.0081320169,1202.6215133 -7.6294924757,1212.79603884 -3.95659548906,1211.25861017 0.0,1217.71456154 "></polygon></g><g transform="translate(329.6074516 -1266.9338547) rotate(0)"><polygon class="354467217" points="-158.839513842,1738.58953127 -157.188563585,1763.68145596 -159.254488783,1763.84394425 -184.386353745,1766.28751839 -186.82587319,1766.74373559 -192.562137081,1771.12467123 -221.67283529,1773.67448875 -223.654411077,1745.32028821 -158.839513842,1738.58953127 "></polygon></g><g transform="translate(562.5932569 -602.0306599999999) rotate(0)"><polygon class="309413810" points="-379.495329221,1178.26017266 -362.187926915,1188.02295375 -382.944997131,1205.36721615 -393.148382257,1214.8487533 -398.920717623,1225.29907556 -404.109225673,1236.03066279 -408.617373263,1252.16868192 -409.610447053,1266.6941615 -407.476879292,1275.56946028 -420.11060204,1279.60084744 -424.156639519,1253.58122804 -406.309033334,1211.02988705 -379.495329221,1178.26017266 "></polygon></g><g transform="translate(454.5623957 -825.0272675) rotate(0)"><polygon class="31426353" points="-291.360378463,1554.24871015 -247.38172916,1615.07854104 -265.891783316,1625.34082185 -294.254890648,1586.1729398 -302.26391758,1573.8482305 -311.202605419,1557.24238551 -291.360378463,1554.24871015 "></polygon></g><g transform="translate(427.42985209999995 -1327.1149384) rotate(0)"><polygon class="31097645" points="-214.06507465,1991.30545889 -236.578269514,1975.62237658 -238.265270977,1974.44770802 -274.309246971,2009.57532986 -279.371716813,2014.51144731 -255.171452067,2031.36923589 -234.695736552,2011.1373922 -214.06507465,1991.30545889 "></polygon></g><g transform="translate(276.11144509999997 -435.27812140000003) rotate(0)"><polygon class="31716983" points="-97.6671170244,975.486712669 -86.9272658275,981.95503547 -76.5518948653,969.580854749 -57.0885167191,946.37616402 -53.8440042926,942.5014273 -75.4886958927,922.977766577 -85.2319970774,932.08963889 -85.7471397328,932.639601153 -90.0539928484,930.402254781 -93.0993081894,933.752024872 -107.268019867,949.894675666 -110.676031277,953.875656811 -89.5904518823,966.293573824 -97.6671170244,975.486712669 "></polygon></g><g transform="translate(704.4786606 -1345.5416733000002) rotate(0)"><polygon class="27240651" points="-534.125865754,1762.08589086 -599.684199633,1738.58953127 -606.60534749,1750.1752324 -609.54387653,1755.09947009 -605.609031877,1756.49925364 -581.133988257,1765.197911 -577.334329126,1766.54770304 -542.253596096,1779.0207861 -539.554749291,1779.37698148 -537.155448073,1779.21450639 -534.770430802,1778.45837235 -532.77964529,1777.47727284 -531.068216905,1776.20871752 -529.780701174,1774.77143819 -528.643858317,1772.82173772 -528.104101976,1770.86578843 -528.015745415,1768.94733357 -528.540808639,1767.09761834 -529.414475635,1765.71658108 -530.566167812,1764.26680451 -532.562027632,1762.72954156 -534.125865754,1762.08589086 "></polygon></g><g transform="translate(225.0083811 -854.1249536) rotate(0)"><polygon class="129908380" points="-22.7851320667,1555.06126121 -17.380415436,1554.24871015 -14.7502096629,1561.84293883 -12.6757690597,1568.5871166 0.0,1611.99618018 -6.71835245085,1613.67129084 -16.0742435259,1581.2441762 -50.453125867,1590.61978163 -57.6550193761,1565.70568352 -58.5408884263,1564.81187683 -22.7851320667,1555.06126121 "></polygon></g><g transform="translate(464.0891962 -1014.5969838999999) rotate(0)"><polygon class="229331951" points="-240.073570604,1410.51598198 -246.426273141,1416.09576024 -262.94719321,1429.71717472 -271.269992871,1438.07123083 -277.705482556,1446.13161775 -287.898142617,1463.7707562 -294.14710521,1475.93633577 -295.761191058,1480.83506146 -281.956554414,1483.30941831 -274.498541234,1486.75227399 -268.790630592,1490.86370687 -267.427327182,1487.20840556 -266.930396904,1483.55310499 -267.853564249,1479.73534741 -270.39222201,1475.53643985 -274.245609282,1472.73716869 -276.251691246,1471.79991282 -276.111809274,1470.106604 -268.570697501,1456.39768169 -259.182823169,1443.45107007 -250.911446881,1434.18475099 -236.56917724,1421.11943667 -230.436974289,1416.54564166 -240.073570604,1410.51598198 "></polygon></g><g transform="translate(476.57551390000003 -627.06585) rotate(0)"><polygon class="28817848" points="-306.134968052,922.977766577 -474.093497959,1061.51221085 -471.538990464,1063.66803271 -303.576031709,925.139820506 -306.134968052,922.977766577 "></polygon></g><g transform="translate(226.08881179999997 -945.7446315999999) rotate(0)"><polygon class="333995279" points="-158.485967431,1280.03190287 -157.95919327,1283.18048202 -160.902725672,1283.66776218 -159.360303538,1295.30001806 -180.674477056,1298.56729646 -180.446468127,1300.14783478 -194.356012539,1302.44679988 -196.582901556,1285.90425332 -220.685934832,1289.59633848 -220.514802912,1291.78285289 -223.692696979,1292.5075263 -221.385097777,1300.26028416 -218.021502636,1299.11080171 -219.324302232,1301.653407 -183.272752893,1314.37893324 -181.675925279,1311.77385422 -173.652786604,1314.68504566 -175.104895853,1317.22765317 -171.734662981,1318.5583054 -153.36345779,1315.77205718 -153.696912356,1312.92333748 -153.104022822,1312.74216892 -152.593938397,1307.65695555 -155.776209551,1279.60084744 -158.485967431,1280.03190287 "></polygon></g><g transform="translate(122.1346904 -1109.026077) rotate(0)"><polygon class="55037112" points="0.0,1419.65746455 -23.0420602648,1425.31856272 -40.5080008289,1429.30507663 -57.7473695748,1433.61026271 -92.3317055795,1442.05817803 -117.161512095,1447.8942402 -119.727727966,1438.75274324 -114.338496524,1437.51554852 -8.19796490176,1411.90938606 -2.56630517989,1410.51598198 0.0,1419.65746455 "></polygon></g><g transform="translate(877.8644862000001 -1391.0657941) rotate(0)"><polygon class="159555220" points="-715.227267949,1772.03863046 -714.915132424,1781.99090535 -733.076374421,1793.69248864 -742.738298909,1782.47821086 -757.929673022,1778.57351969 -759.216916615,1740.43878876 -736.762749648,1738.58953127 -735.656962895,1773.38184364 -715.227267949,1772.03863046 "></polygon></g><g transform="translate(892.5677347999999 -1173.3061126) rotate(0)"><polygon class="172283931" points="-745.692372774,1499.23211447 -732.211851544,1494.16982114 -727.673585176,1492.46364111 -723.413324762,1490.86370687 -722.278682667,1492.98861956 -716.921547833,1504.05066908 -715.840133167,1506.45057224 -720.868095591,1508.64423401 -717.387727505,1515.93769257 -718.228082119,1517.09389664 -723.884094564,1519.17506415 -725.129272086,1516.94390259 -727.775243044,1517.8938649 -718.995734721,1522.38118755 -714.627608076,1516.98765086 -712.5922357,1516.30642791 -712.268783736,1517.42513349 -708.734654977,1516.28142891 -704.823353577,1524.7185956 -704.321843418,1525.79355342 -706.478888283,1526.49977575 -706.192513569,1527.46848783 -707.870302062,1529.21841946 -701.653859786,1532.50579148 -720.500566938,1554.24871015 -726.229008501,1551.37381857 -719.792215429,1543.20537911 -714.875738211,1537.92433185 -717.203117165,1536.70562886 -716.204424249,1535.56192305 -743.909142382,1520.53126053 -747.489149403,1513.53153839 -740.154729053,1510.92539254 -741.480598745,1508.1192551 -743.867862719,1503.08820801 -744.61084784,1501.51327181 -745.692372774,1499.23211447 "></polygon></g><g transform="translate(288.0282509 -876.3286303999998) rotate(0)"><polygon class="126257488" points="-114.431569247,1191.5944817 -109.277277956,1201.02348129 -105.550742873,1199.41761421 -80.2570187222,1245.03804197 -71.7134762007,1241.35766074 -70.1961617162,1238.97072459 -77.0174111291,1210.18379975 -86.684193515,1178.26017266 -94.4188935534,1181.15322949 -93.5366711369,1182.78408895 -114.431569247,1191.5944817 "></polygon></g><g transform="translate(453.8785272 -1449.8037256000002) rotate(0)"><polygon class="30478772" points="-371.148357474,1748.21748496 -394.624218681,1760.76944536 -398.732159704,1755.04015224 -428.72419016,1754.8339727 -436.358311923,1758.80136736 -436.811825181,1759.03878628 -451.543730435,1738.58953127 -370.427552672,1739.2455565 -371.148357474,1748.21748496 "></polygon></g><g transform="translate(517.941174 -512.9989185) rotate(0)"><polygon class="172051346" points="-299.28435616,1147.59142629 -305.714600236,1148.35385671 -310.773992999,1148.81006509 -311.176344755,1098.68970661 -312.938173037,1087.25953467 -315.620421702,1082.66621995 -321.424550677,1077.88542423 -338.95448895,1068.26134259 -326.196587577,1063.66803271 -311.41827083,1071.03607729 -304.747131562,1077.04175453 -301.311272421,1084.30981406 -300.292817729,1088.67190107 -300.228546999,1090.60921799 -299.28435616,1147.59142629 "></polygon></g><g transform="translate(352.78797280000003 -1287.1442425) rotate(0)"><polygon class="294030700" points="-189.225521296,1574.55983797 -206.666873765,1596.70780279 -246.38172916,1576.3966498 -228.945273338,1554.24871015 -189.225521296,1574.55983797 "></polygon></g><g transform="translate(299.0289413 -658.1777996999999) rotate(0)"><polygon class="295771276" points="-193.246649512,925.296250328 -191.557733552,929.220800325 -190.422771644,929.814482326 -188.656400273,929.951966581 -189.651260021,936.038770587 -204.818564834,934.532692607 -206.40970956,943.419179438 -220.468729084,942.17557096 -219.863343425,939.444632042 -228.031756181,942.675514057 -233.166527291,933.932761165 -248.049133991,940.21954373 -250.713613955,935.70130912 -263.854986817,941.306919863 -265.535697185,938.107284532 -274.188051949,937.476106536 -273.080213412,931.701766289 -251.606964353,926.864820368 -245.923621034,925.508725943 -240.771105275,924.421350764 -236.756182997,923.533952679 -234.632091158,922.977766577 -229.58837483,923.465210575 -225.527290519,923.85266607 -218.277532474,924.402602918 -214.338307317,924.75881202 -210.477178396,925.096273282 -201.135106238,925.93367718 -198.221334419,926.28363703 -196.520035274,926.483614091 -193.246649512,925.296250328 "></polygon></g><g transform="translate(505.7556859 -514.9347639) rotate(0)"><polygon class="437569903" points="-390.88118575,1304.10240923 -433.164602855,1312.13213007 -436.739027609,1315.05032522 -440.960018148,1292.46088258 -438.158818705,1287.62430852 -396.214650746,1279.60084744 -390.88118575,1304.10240923 "></polygon></g><g transform="translate(756.4408007999999 -1631.9186584000001) rotate(0)"><polygon class="226204756" points="-750.508207864,1916.0993753 -751.85585108,1915.26203912 -753.052155369,1914.51843464 -609.241385812,1793.69248864 -608.151646504,1794.69228626 -607.158467857,1795.5983529 -750.508207864,1916.0993753 "></polygon></g><g transform="translate(686.1614528 -976.1750406000001) rotate(0)"><polygon class="217187377" points="-683.493460903,1202.90404328 -683.736331723,1200.96653258 -656.762503299,1191.60398379 -614.897086386,1178.26017266 -611.22191141,1190.04772615 -611.987868178,1192.77273962 -614.79519932,1195.13525162 -645.320097708,1203.32279562 -673.106860153,1210.77283888 -679.358343543,1211.46659306 -681.456033008,1210.07283468 -683.493460903,1202.90404328 "></polygon></g><g transform="translate(35.6193913 -1316.7311379) rotate(0)"><polygon class="194898934" points="-33.1198020997,1493.87594866 0.0,1490.86370687 -1.79566784226,1522.93598349 -8.12383360402,1523.49218676 -8.20729016298,1527.62933975 -32.4643477817,1530.09163367 -33.1198020997,1493.87594866 "></polygon></g><g transform="translate(581.7138596 -681.7300223) rotate(0)"><polygon class="133718851" points="-497.029775171,1063.66803271 -484.116093882,1071.94236017 -534.77954032,1110.12055629 -552.072077484,1109.87682553 -557.896840692,1109.32061945 -497.029775171,1063.66803271 "></polygon></g><g transform="translate(751.6004508999999 -1057.2710834) rotate(0)"><polygon class="224669958" points="-584.264201872,1279.60084744 -706.357530484,1314.85627595 -704.201656991,1320.87900718 -582.006350877,1284.8426124 -584.264201872,1279.60084744 "></polygon></g><g transform="translate(773.3906178999999 -884.6530357) rotate(0)"><polygon class="28739586" points="-600.031662781,1068.26101741 -703.234633486,1129.92585628 -707.33645321,1124.78294564 -604.150123102,1063.66803271 -600.031662781,1068.26101741 "></polygon></g><g transform="translate(284.8422322 -344.3108717) rotate(0)"><polygon class="92479761" points="-221.972142098,801.0 -265.344663136,805.8690026 -264.09157595,824.026206151 -258.423531039,828.282682326 -258.205232494,830.589055298 -228.299343234,827.370133752 -224.733201169,825.557537406 -223.37383309,821.563575753 -221.972142098,801.0 "></polygon></g><g transform="translate(134.382246 -1362.6500388) rotate(0)"><polygon class="12636594" points="-110.463581968,1916.0993753 -131.896859014,1918.99275466 -127.167564129,1962.53098363 -121.598664349,1963.28088946 -104.495826553,1958.43149899 -102.403237208,1954.97568415 -107.12712097,1939.23392479 -110.463581968,1916.0993753 "></polygon></g><g transform="translate(779.1286908 -1120.3156653) rotate(0)"><polygon class="277958632" points="-775.267955838,1493.46385951 -764.954101778,1493.39510546 -764.772343375,1490.951212 -751.831321327,1490.86370687 -752.108294926,1494.55142346 -748.489149403,1494.52642199 -750.980201324,1527.16587168 -761.937720973,1525.06574446 -765.703115003,1535.71639219 -773.466188169,1537.43524731 -776.634841328,1537.43524731 -773.861221554,1497.92037198 -775.581645061,1497.93912308 -775.267955838,1493.46385951 "></polygon></g><g transform="translate(594.7477041 -1684.2437039) rotate(0)"><polygon class="345762853" points="-420.239240196,1916.0993753 -431.024490954,1919.02334761 -441.941867137,1921.97855942 -425.091925451,1974.44770802 -413.255031445,1971.33629196 -420.239240196,1916.0993753 "></polygon></g><g transform="translate(140.47745220000002 -1745.9003991) rotate(0)"><polygon class="236815332" points="-23.2081010687,1925.02875477 -25.1888331449,1925.72235966 -97.046032516,1951.61071268 -101.403237208,1944.24349473 -89.9114739589,1938.89460895 -72.350481019,1930.7275633 -57.7984581553,1925.52240149 -32.9104766608,1916.62426522 -31.4419610532,1916.0993753 -23.2081010687,1925.02875477 "></polygon></g><g transform="translate(791.7119617999999 -1141.8817047) rotate(0)"><polygon class="33098549" points="-587.75541974,1355.43729419 -594.064382387,1344.20006336 -614.169777031,1342.58135271 -642.072564953,1349.34368929 -651.00483228,1350.68740711 -648.241190786,1360.86216675 -621.056056256,1355.55604139 -617.775792141,1359.24345461 -617.409988272,1368.16199784 -587.75541974,1355.43729419 "></polygon></g><g transform="translate(252.2704403 -726.5949330999999) rotate(0)"><polygon class="46340823" points="-179.256002734,1410.51598198 -178.074402081,1414.08970354 -172.307970414,1412.62147869 -169.393342698,1422.44921585 -176.802952258,1424.61719166 -175.851691554,1427.68484663 -226.582521448,1443.42298704 -229.436974289,1435.61951672 -211.111759384,1429.47170904 -213.955726231,1420.61861977 -201.379893896,1416.95742818 -179.256002734,1410.51598198 "></polygon></g><g transform="translate(260.6216488 -1597.4742727) rotate(0)"><polygon class="211374392" points="-36.1245775839,1987.99278086 -74.6591136024,2002.86238372 -76.5849266837,1999.53858907 -93.7549961334,2006.22991315 -102.307276169,1997.27066187 -42.7610389024,1974.44770802 -36.1245775839,1987.99278086 "></polygon></g><g transform="translate(231.4995507 -711.3760107999999) rotate(0)"><polygon class="96087979" points="-7.43805088671,923.871115745 -10.624081387,924.458352285 -12.6881807925,924.789453748 -13.5811467075,924.289677958 -14.6385251977,922.977766577 -51.8440042926,945.355239636 -49.9600991698,947.710435948 -47.7626587729,950.240554349 -45.5741807219,952.352110229 -44.728398351,953.170494378 -42.338561378,955.488208474 -40.0585542067,957.693473108 -38.0498359835,959.986198952 -0.851796560967,937.521246711 0.0,936.990234555 -0.531302367942,936.103131932 -4.77122649411,929.000065331 -5.86061524632,928.46905343 -7.79804236209,926.157590044 -7.19861080558,925.376690318 -7.24665360376,924.83318413 -7.43805088671,923.871115745 "></polygon></g><g transform="translate(560.0114791999999 -1400.7820201) rotate(0)"><polygon class="60701164" points="-454.631834335,1554.52362535 -480.24899272,1559.64079764 -513.251493626,1566.17003668 -520.810922301,1567.63833479 -518.546477343,1579.11605646 -477.670702582,1571.17474688 -450.904946515,1565.90136938 -453.244039533,1554.24871015 -454.631834335,1554.52362535 "></polygon></g><g transform="translate(598.9670287 -1339.6523242) rotate(0)"><polygon class="95839151" points="-445.125250353,1504.45198932 -385.266768319,1490.86370687 -381.418484809,1504.68325273 -400.444273184,1509.36477473 -406.607627253,1507.2584022 -441.714526922,1516.8527123 -445.125250353,1504.45198932 "></polygon></g><g transform="translate(735.8159175999999 -1172.1293721) rotate(0)"><polygon class="27007838" points="-514.725369529,1343.02512005 -512.744596082,1342.58135271 -508.712729924,1360.16329797 -554.899670328,1368.16361999 -558.327392906,1350.62541868 -514.725369529,1343.02512005 "></polygon></g><g transform="translate(485.6723097 -916.746384) rotate(0)"><polygon class="352603126" points="-267.20275966,1182.52705387 -277.912901514,1214.88791383 -301.569904184,1211.26449416 -296.765656501,1196.34600851 -290.919159219,1178.26017266 -267.20275966,1182.52705387 "></polygon></g><g transform="translate(549.7180734 -923.6751208) rotate(0)"><polygon class="346893460" points="-455.884144552,1070.91596195 -376.113803244,1078.99490722 -374.12453513,1070.49733147 -382.658282946,1069.85376524 -383.106573856,1071.49079784 -386.186243218,1071.17213881 -385.855130894,1069.56634732 -394.93392869,1068.54163998 -395.595930513,1070.4660904 -398.557887106,1070.10994209 -398.159417723,1068.12300956 -402.839281989,1067.71062737 -403.292904772,1069.41014193 -406.418081817,1069.21644725 -406.035595743,1067.41696126 -410.709248646,1066.87336657 -411.216907387,1068.79781681 -412.497387852,1068.69159715 -414.983664991,1068.47915783 -414.747530958,1066.5859487 -419.386680062,1066.10483618 -419.699813458,1067.96680418 -422.811135725,1067.61065592 -422.30347458,1065.68620582 -426.980672312,1065.24258261 -427.519640166,1067.06706123 -430.641802092,1066.77964335 -430.070995084,1065.04888797 -436.062125605,1064.24911659 -436.500434457,1066.23604868 -438.408790115,1066.13607725 -438.161994129,1064.1179041 -444.257647162,1063.66803271 -444.931165521,1066.13607725 -455.849836378,1065.14261118 -455.884144552,1070.91596195 "></polygon></g><g transform="translate(730.8627817 -667.353001) rotate(0)"><polygon class="107037325" points="-706.984621192,838.082722905 -709.499865174,836.401971039 -725.959612904,825.548941415 -728.36282331,823.955664735 -719.602349408,814.939595844 -706.105067047,801.0 -685.01513377,815.295739852 -698.039418489,828.885450686 -706.984621192,838.082722905 "></polygon></g><g transform="translate(892.2757828 -1611.9303355) rotate(0)"><polygon class="86928488" points="-671.603450738,1738.58953127 -713.915132424,1746.10256073 -710.887835156,1763.80382053 -668.576085375,1756.29078371 -671.603450738,1738.58953127 "></polygon></g><g transform="translate(322.4236316 -1156.0458267) rotate(0)"><polygon class="29181641" points="-288.95755367,1793.69248864 -319.941420329,1799.85292004 -319.457194244,1803.88281799 -316.70855665,1826.81889016 -297.067436501,1823.33880322 -293.946596701,1817.97184821 -287.116266055,1810.74926637 -288.95755367,1793.69248864 "></polygon></g><g transform="translate(330.4970107 -1545.1447179) rotate(0)"><polygon class="352776107" points="-110.007515495,1974.44770802 -103.467936004,2037.64974437 -103.307276169,2039.19903107 -104.88286437,2039.40518616 -107.152826263,2039.698801 -113.863167012,2040.57964553 -114.347437033,2035.90054988 -120.194969083,1979.36417746 -120.563340927,1975.82831747 -115.967622216,1975.2285957 -110.007515495,1974.44770802 "></polygon></g><g transform="translate(799.2073436 -1290.9140029) rotate(0)"><polygon class="250816799" points="-747.988667613,1439.58680769 -676.169172658,1418.87907433 -678.594648822,1410.51598198 -750.775249055,1431.31121204 -747.988667613,1439.58680769 "></polygon></g><g transform="translate(572.5300980999999 -1295.3521858) rotate(0)"><polygon class="331093767" points="-542.553230712,1424.35783249 -500.305737376,1422.48308913 -501.205367194,1419.87719619 -523.192008039,1416.86510938 -546.389576817,1412.04077222 -569.75732908,1410.51598198 -570.030528008,1425.42643629 -542.553230712,1424.35783249 "></polygon></g><g transform="translate(644.6122898 -1233.3287309) rotate(0)"><polygon class="27211468" points="-465.499146241,1351.36863315 -494.065540167,1342.58135271 -507.668633395,1354.31856041 -505.774627831,1355.47478203 -507.712729924,1357.52473189 -505.054008942,1359.11844307 -480.539928803,1373.78059256 -478.397535917,1375.06181249 -465.499146241,1351.36863315 "></polygon></g><g transform="translate(679.8935552 -1311.6775366) rotate(0)"><polygon class="32427489" points="-457.353481595,1410.51598198 -475.033482376,1410.71597236 -499.305737376,1421.84669014 -490.417941592,1438.8646397 -460.07801043,1425.84025086 -456.074097463,1425.20278101 -457.189377106,1416.5906906 -457.353481595,1410.51598198 "></polygon></g><g transform="translate(704.8903344 -1532.4963925) rotate(0)"><polygon class="350104384" points="-572.218105041,1631.97805734 -617.515018669,1625.34082185 -618.017105706,1629.36566116 -618.464679355,1632.98426746 -628.333188076,1656.92083516 -621.276357267,1657.75830311 -618.276922342,1646.63373193 -620.212725172,1646.37749189 -618.612937372,1638.35280559 -578.133845563,1641.60892787 -575.970502878,1641.88391711 -572.218105041,1631.97805734 "></polygon></g><g transform="translate(468.5407102 -697.2841484999999) rotate(0)"><polygon class="215571794" points="-261.999984517,1387.26858585 -249.566378188,1392.62331352 -231.508676937,1365.612259 -258.824752339,1342.58135271 -261.972660743,1348.54839152 -249.207986467,1360.17631263 -261.999984517,1387.26858585 "></polygon></g><g transform="translate(377.5046107 -1644.6885964) rotate(0)"><polygon class="399954905" points="-156.533043101,1963.52111052 -166.830002715,1960.19140217 -151.241958521,1932.14191369 -160.049689225,1929.32447307 -152.886470584,1916.0993753 -132.896859014,1922.83998838 -156.533043101,1963.52111052 "></polygon></g><g transform="translate(63.80827540000001 -1246.2094086000002) rotate(0)"><polygon class="171870290" points="0.0,1353.05448822 -61.4067249135,1356.40389322 -58.3176661796,1345.7245425 -0.3894831046,1342.58135271 0.0,1353.05448822 "></polygon></g><g transform="translate(661.2253839 -1027.6630786) rotate(0)"><polygon class="236143247" points="-425.663657426,1607.50167677 -436.770060686,1610.10091045 -438.114819075,1604.52755408 -449.904946515,1555.71702284 -443.605110766,1554.36117665 -441.054303824,1554.74856127 -438.596760079,1554.24871015 -431.000824294,1585.53316871 -425.663657426,1607.50167677 "></polygon></g><g transform="translate(331.5263753 -790.5874764999999) rotate(0)"><polygon class="242985580" points="-86.2899432949,1574.68953165 -103.842392546,1588.78752542 -127.44485232,1567.92174868 -109.968621641,1554.24871015 -86.2899432949,1574.68953165 "></polygon></g><g transform="translate(483.16492919999996 -855.3791445999999) rotate(0)"><polygon class="37186199" points="-258.337832777,1178.26017266 -266.20275966,1179.7473893 -253.803802257,1245.19129234 -250.362320091,1244.54141377 -245.943808972,1243.70407027 -258.337832777,1178.26017266 "></polygon></g><g transform="translate(305.7381936 -1328.9609437000001) rotate(0)"><polygon class="154494855" points="-135.000229619,1410.51598198 -131.828089963,1413.1339279 -123.441906646,1419.76314349 -121.727727966,1426.39860963 -132.875822009,1428.74164204 -163.307867859,1435.12718794 -168.393342698,1431.18464417 -167.619645002,1423.04963583 -161.301789322,1417.85747806 -153.698921998,1423.80565411 -151.86934583,1422.14366355 -147.067287663,1417.79499723 -144.98449757,1419.17582363 -135.000229619,1410.51598198 "></polygon></g><g transform="translate(900.1260633 -1102.9673782999998) rotate(0)"><polygon class="229186974" points="-652.00483228,1354.78782386 -682.624507255,1342.58135271 -693.032117656,1358.88580172 -662.407414933,1371.09228404 -652.00483228,1354.78782386 "></polygon></g><g transform="translate(568.0252822 -1424.4521094) rotate(0)"><polygon class="264448374" points="-380.418484809,1516.03940907 -321.039457669,1490.86370687 -318.172142558,1498.57641827 -343.33444019,1506.72039505 -341.757286817,1509.32671841 -374.688806321,1523.30836834 -375.95758771,1523.2896178 -377.306919861,1522.28333865 -380.418484809,1516.03940907 "></polygon></g><g transform="translate(216.1147102 -1546.2032336000002) rotate(0)"><polygon class="29088135" points="-149.216825117,1625.34082185 -151.229968958,1628.47092221 -160.603467429,1635.61829912 -162.943136109,1636.55545539 -198.360638813,1640.04792488 -210.510424753,1633.51906924 -213.625183482,1631.03872949 -165.94082255,1626.36544546 -149.216825117,1625.34082185 "></polygon></g><g transform="translate(482.1554275 -1842.9914538) rotate(0)"><polygon class="27617546" points="-351.531819034,1916.0993753 -394.533355014,1921.36112019 -394.122059725,1924.0919789 -412.255031445,1926.3854006 -412.020074767,1929.02252347 -411.975392848,1929.55369755 -411.940581456,1929.96613861 -411.671561066,1932.96571027 -408.017814923,1932.51577449 -382.179983627,1929.33497881 -350.857106052,1925.48552938 -350.895004323,1924.99185005 -351.064883523,1922.58594464 -351.283809304,1919.52388368 -351.531819034,1916.0993753 "></polygon></g><g transform="translate(617.6323485 -1732.6963036) rotate(0)"><polygon class="339439323" points="-424.87525656,1793.69248864 -422.781438161,1799.3232853 -479.525051349,1818.63424395 -481.438800038,1812.70346513 -480.691298527,1812.46598403 -481.847513506,1809.73495169 -440.409924416,1795.84231535 -439.512704752,1798.57334558 -424.87525656,1793.69248864 "></polygon></g><g transform="translate(491.7224211 -561.5148502) rotate(0)"><polygon class="32847784" points="-311.473054493,1180.0843506 -302.569904184,1183.82016765 -302.953448432,1197.88883687 -311.482434207,1198.09499419 -311.616643547,1208.49657083 -315.359804691,1208.44034608 -315.451232369,1214.50637343 -318.679679789,1214.77500291 -325.711067734,1215.16232914 -325.168778402,1190.17355731 -315.736742806,1178.26017266 -311.473054493,1180.0843506 "></polygon></g><g transform="translate(652.6638361 -1502.6308669) rotate(0)"><polygon class="239022312" points="-594.41394275,1562.27123252 -598.255459753,1554.24871015 -599.794537928,1554.83602864 -648.643908673,1573.48027681 -650.409569379,1574.155069 -646.563100068,1582.17760029 -594.41394275,1562.27123252 "></polygon></g><g transform="translate(665.0537731 -869.887607) rotate(0)"><polygon class="354474855" points="-593.051418433,947.913402234 -598.038597751,939.301542206 -598.789896079,937.120454943 -581.783988508,931.883346777 -551.596177336,922.977766577 -550.809290011,925.502576235 -554.257947826,932.039585065 -553.35444682,934.070682937 -565.625317166,937.920395227 -566.251179721,938.83907669 -570.235682301,940.245221879 -570.567972569,940.932670677 -593.051418433,947.913402234 "></polygon></g><g transform="translate(301.719484 -1302.724115) rotate(0)"><polygon class="198927345" points="-76.7840679195,1344.26247766 -75.8387625574,1342.58135271 -63.4067249135,1350.29328035 -67.9166565522,1356.21784289 -71.9761764251,1353.64928231 -97.0960088937,1381.92846703 -106.040747816,1375.78516191 -81.0211211383,1348.50591271 -76.7840679195,1344.26247766 "></polygon></g><g transform="translate(598.846848 -1574.4567542999998) rotate(0)"><polygon class="78720426" points="-437.58223532,1625.34082185 -479.733755082,1628.55303617 -479.49415538,1638.32092096 -479.432753808,1640.87694544 -437.280650391,1637.65847947 -437.342983461,1634.99621486 -437.58223532,1625.34082185 "></polygon></g><g transform="translate(56.392780800000004 -1703.3876116) rotate(0)"><polygon class="152975073" points="-4.37890240811,1738.58953127 0.0,1746.19589533 -49.2313799998,1767.68998496 -54.1189752017,1759.91485915 -4.37890240811,1738.58953127 "></polygon></g><g transform="translate(948.4378055 -1142.2207148999998) rotate(0)"><polygon class="287958450" points="-786.549722532,1178.26017266 -789.512399837,1187.75932572 -740.574568303,1195.14617058 -737.428370004,1185.42203365 -786.549722532,1178.26017266 "></polygon></g><g transform="translate(810.3891001 -724.302933) rotate(0)"><polygon class="27594434" points="-646.243255098,1520.85752885 -664.992247891,1524.34504045 -670.276135894,1493.97621202 -654.528173068,1490.86370687 -646.243255098,1520.85752885 "></polygon></g><g transform="translate(477.108043 -1096.5752975) rotate(0)"><polygon class="71175257" points="-243.110227103,1793.69248864 -237.491936829,1823.91553837 -254.673563405,1827.86528724 -259.606662474,1796.84853261 -243.110227103,1793.69248864 "></polygon></g><g transform="translate(547.8002868 -1594.9119325000001) rotate(0)"><polygon class="8658110" points="-442.941867137,1935.7190927 -448.1257099,1916.0993753 -472.317774673,1922.23092534 -473.911767376,1922.6371953 -468.992963615,1941.97565568 -442.941867137,1935.7190927 "></polygon></g><g transform="translate(429.2603212 -740.4328760000001) rotate(0)"><polygon class="306854490" points="-179.365315093,1345.43641088 -201.793250412,1389.36188187 -211.180296976,1386.50681668 -188.75231777,1342.58135271 -179.365315093,1345.43641088 "></polygon></g><g transform="translate(480.9160003 -1514.0404541999999) rotate(0)"><polygon class="292380521" points="-230.140952948,1627.53449236 -238.656391005,1625.34082185 -259.107160594,1675.73906285 -251.413245404,1677.87024157 -230.140952948,1627.53449236 "></polygon></g><g transform="translate(745.3330973 -1524.4805628) rotate(0)"><polygon class="107037322" points="-651.409569379,1565.10173977 -668.454007193,1582.33413999 -670.274242868,1584.17734549 -686.980637466,1573.53049328 -667.869317109,1554.24871015 -655.705306649,1562.29007344 -652.980948756,1564.14577317 -651.409569379,1565.10173977 "></polygon></g><g transform="translate(817.9476705 -999.4320422000001) rotate(0)"><polygon class="173846622" points="-571.030528008,1410.51598198 -587.719872197,1411.05348727 -587.906337761,1413.84101495 -591.824372556,1413.92851583 -591.898379393,1416.74104421 -592.35736971,1429.6786804 -590.374078977,1434.7849867 -590.543059398,1437.36626571 -572.004505409,1436.93501084 -571.030528008,1410.51598198 "></polygon></g><g transform="translate(1004.7721303999999 -1419.5877933000002) rotate(0)"><polygon class="401932813" points="-754.79330614,1930.34904701 -755.455409163,1936.70236771 -759.773522271,1939.70723305 -773.332051196,1940.81922077 -775.848499959,1942.36850715 -779.857462284,1941.11283552 -777.43989503,1929.82428906 -777.68094648,1926.46958681 -777.83004986,1918.71691607 -756.249004301,1916.0993753 -754.79330614,1930.34904701 "></polygon></g><g transform="translate(591.5770969 -1242.5884156) rotate(0)"><polygon class="27479633" points="-441.960018148,1280.51334206 -492.235659828,1279.60084744 -493.228867331,1288.51954688 -442.948196974,1289.43204196 -441.960018148,1280.51334206 "></polygon></g><g transform="translate(642.193755 -1392.3849334) rotate(0)"><polygon class="153341567" points="-593.35736971,1418.67848713 -633.446854802,1440.70976945 -639.839573746,1432.24100384 -597.873204333,1410.51598198 -593.35736971,1418.67848713 "></polygon></g><g transform="translate(410.92451059999996 -1011.5745146) rotate(0)"><polygon class="375317742" points="-169.077708997,1178.26017266 -167.316049877,1216.72610602 -171.398981259,1217.1446898 -171.235412477,1219.9373311 -181.12416007,1220.78074634 -181.361543664,1216.46995774 -178.084491681,1216.04512646 -179.801778501,1179.44095125 -171.05774792,1178.47883535 -169.077708997,1178.26017266 "></polygon></g><g transform="translate(573.0999092 -1787.9490498) rotate(0)"><polygon class="194340040" points="-333.843675339,1793.69248864 -421.781438161,1820.11062949 -421.192108489,1821.8285284 -333.227010171,1797.06581255 -333.843675339,1793.69248864 "></polygon></g><g transform="translate(782.7590218 -1548.3706444) rotate(0)"><polygon class="304975879" points="-687.980637466,1555.15497419 -689.158194696,1564.71762512 -734.138144338,1563.9551129 -733.132630276,1554.24871015 -687.980637466,1555.15497419 "></polygon></g><g transform="translate(706.7956064 -1485.5970454) rotate(0)"><polygon class="285768095" points="-455.635391835,1490.86370687 -446.125250353,1498.04945289 -474.339072928,1523.6619745 -478.794816096,1520.29404141 -483.844250172,1516.47621822 -466.750352496,1500.95499449 -455.635391835,1490.86370687 "></polygon></g><g transform="translate(740.0499578 -480.1925785) rotate(0)"><polygon class="236143004" points="-503.887762549,923.858749497 -508.547081351,922.977766577 -511.583627688,923.727539273 -511.372100466,924.571033593 -504.274461194,952.956202669 -507.530556847,954.118352307 -505.207080101,964.540213721 -506.64185738,965.771093437 -508.550093835,967.414349231 -505.376709719,969.426244362 -493.562501531,966.583349134 -503.887762549,923.858749497 "></polygon></g><g transform="translate(643.2581757999999 -1481.8611707) rotate(0)"><polygon class="200751232" points="-504.579161072,1502.45371517 -518.778486194,1514.86846555 -538.359526873,1498.79239638 -542.821316803,1502.24128369 -547.488891939,1502.09758004 -533.948050301,1490.86370687 -531.625829906,1492.11955108 -528.897749845,1492.06331925 -526.643453273,1493.35665142 -526.780136816,1494.95613482 -522.341039303,1497.24914448 -521.041189075,1496.13700352 -518.22863176,1495.84959632 -511.382552167,1500.15445687 -507.758140531,1499.97951331 -504.579161072,1502.45371517 "></polygon></g><g transform="translate(367.2118153 -1241.2214958999998) rotate(0)"><polygon class="320883466" points="-121.563340927,2005.64280362 -121.726012238,1974.44770802 -134.538213688,1975.25399212 -134.526153744,1977.2290758 -136.404455984,1977.34783084 -136.311725178,1994.89858408 -134.47825755,1994.77982893 -134.43906396,2002.19890242 -136.171834245,2002.30515707 -136.153191597,2006.55534379 -121.563340927,2005.64280362 "></polygon></g><g transform="translate(339.8942086 -502.0473282) rotate(0)"><polygon class="27146866" points="-90.4046746597,828.681554547 -95.5671354536,831.344086078 -111.511680434,821.856475516 -111.62468387,818.07518284 -96.003332354,803.156272198 -90.7044381979,801.0 -89.4876064271,803.218772845 -87.4669630183,806.475056867 -90.4046746597,828.681554547 "></polygon></g><g transform="translate(488.3297033 -1336.5852177000002) rotate(0)"><polygon class="358651154" points="-302.655163242,1343.94363998 -302.269401516,1350.6738405 -335.653839553,1350.70508563 -356.131085328,1349.51777059 -355.707489867,1342.58135271 -336.312115209,1343.60619266 -333.194002295,1344.77476024 -325.779017759,1344.95598196 -303.332452542,1344.23734413 -302.655163242,1343.94363998 "></polygon></g><g transform="translate(771.3774126 -1497.7465964) rotate(0)"><polygon class="102717856" points="-629.110411022,1738.58953127 -638.926970545,1741.70759207 -642.559390916,1742.84484083 -659.407913764,1749.06846721 -667.576085375,1752.24276744 -664.024147948,1760.63467016 -648.465793031,1754.76721133 -635.663245913,1751.96157941 -626.079792453,1749.12470481 -627.800404274,1743.25724974 -629.110411022,1738.58953127 "></polygon></g><g transform="translate(238.5978177 -1254.962856) rotate(0)"><polygon class="189796120" points="-203.843933872,1490.86370687 -236.257510806,1500.74505572 -231.873881249,1512.4139294 -202.833566461,1503.4200834 -201.073151248,1502.40132281 -200.161491444,1501.17006009 -203.843933872,1490.86370687 "></polygon></g><g transform="translate(586.3117361 -1118.1626894) rotate(0)"><polygon class="76114101" points="-329.113194688,1740.89565669 -338.684990076,1738.58953127 -354.457510864,1775.93130038 -344.880695908,1778.23743058 -329.113194688,1740.89565669 "></polygon></g><g transform="translate(383.72721 -1659.7839801999999) rotate(0)"><polygon class="237764298" points="-132.75799839,1738.58953127 -122.481300771,1747.22504942 -123.999751743,1748.56224291 -145.478272907,1767.47041941 -148.768291361,1764.88975833 -156.188563585,1759.07233723 -132.75799839,1738.58953127 "></polygon></g><g transform="translate(416.0316954 -708.2148066) rotate(0)"><polygon class="91901802" points="-167.486655954,922.977766577 -165.574846877,924.146199658 -156.779387864,929.251065933 -173.488077146,952.457293996 -174.106557582,952.119884972 -185.748859093,945.309222699 -187.656400273,944.265754487 -183.727323683,940.116875493 -167.486655954,922.977766577 "></polygon></g><g transform="translate(346.3538918 -540.2535099999999) rotate(0)"><polygon class="332170636" points="-96.9442839764,1063.66803271 -86.9725939521,1076.78138919 -90.7027862303,1081.41919438 -101.724905862,1087.80086627 -107.174984571,1087.50084638 -116.963079123,1074.33747885 -96.9442839764,1063.66803271 "></polygon></g><g transform="translate(571.9250691 -221.679302) rotate(0)"><polygon class="117921185" points="-266.344663136,801.0 -347.934191489,809.167409591 -349.39741086,811.560767504 -267.649357791,803.462095538 -266.344663136,801.0 "></polygon></g><g transform="translate(926.6873164 -976.8665894) rotate(0)"><polygon class="281394146" points="-664.741177389,1625.34082185 -662.902177781,1628.80207071 -668.922230102,1638.28614593 -672.081730699,1641.80987477 -675.125445422,1645.20240159 -677.262239389,1651.25647039 -679.886832675,1658.70379003 -695.470926866,1669.64985608 -696.318161972,1668.73143589 -697.789582161,1667.13825814 -691.514017404,1663.50206473 -686.97496182,1660.37818783 -687.751144086,1657.00440138 -681.764023486,1654.06171039 -685.634547047,1648.10760463 -676.565764132,1643.65296016 -679.731871353,1638.77347009 -670.927695826,1634.44378284 -674.015437509,1629.69549788 -664.741177389,1625.34082185 "></polygon></g><g transform="translate(867.8003231 -470.34384659999995) rotate(0)"><polygon class="26573797" points="-607.250509791,808.360506967 -607.934989989,806.098619105 -613.361036259,801.799783293 -615.722981648,801.0 -625.493557017,813.759047105 -628.510506605,820.682177348 -630.179156371,826.736794348 -630.697706066,831.735447695 -616.760556717,826.149452671 -612.717048668,823.912555822 -609.0824518,813.052987943 -607.250509791,808.360506967 "></polygon></g><g transform="translate(622.38618 -960.6052907000001) rotate(0)"><polygon class="28801408" points="-375.119514436,1342.58135271 -357.131085328,1357.59099935 -362.769058959,1361.50275778 -361.528655105,1363.8273175 -370.095018543,1369.83868034 -385.891962641,1356.04754218 -377.83629328,1349.31132178 -375.119514436,1342.58135271 "></polygon></g><g transform="translate(595.4577853 -793.1234392) rotate(0)"><polygon class="349492080" points="-553.506065232,801.149973019 -568.37328364,801.0 -592.994650028,802.299766209 -591.990637468,808.073728774 -591.067961229,813.397773823 -552.589733157,806.549002548 -553.506065232,801.149973019 "></polygon></g><g transform="translate(990.1558831 -878.8150693) rotate(0)"><polygon class="356606881" points="-724.677726099,922.977766577 -720.936268308,929.463044047 -762.151908238,947.844257519 -765.315926393,942.639785575 -741.621483055,930.568915296 -724.677726099,922.977766577 "></polygon></g><g transform="translate(957.3786765 -933.1317841) rotate(0)"><polygon class="129915376" points="-711.337844217,1625.34082185 -719.212112747,1627.01593579 -706.006275502,1666.69367985 -704.575798577,1667.98127036 -701.598314932,1668.06252607 -698.789582161,1667.31247334 -711.337844217,1625.34082185 "></polygon></g><g transform="translate(536.2640365 -799.0237540999999) rotate(0)"><polygon class="228012275" points="-267.210253027,1342.58135271 -264.893725858,1346.97354016 -262.999984517,1350.89714522 -297.258887026,1364.05497356 -299.323659727,1359.68777305 -301.269401516,1355.55798929 -267.210253027,1342.58135271 "></polygon></g><g transform="translate(577.7311834 -1656.1315246) rotate(0)"><polygon class="341306301" points="-322.626697718,1793.69248864 -320.941420329,1829.27148006 -330.541615001,1829.94620087 -332.227010171,1794.31098147 -322.626697718,1793.69248864 "></polygon></g><g transform="translate(569.6650905 -1480.8184486999999) rotate(0)"><polygon class="103720630" points="-298.398203134,1745.86256908 -319.297233625,1738.58953127 -328.113194688,1752.22335543 -307.364284677,1761.13970709 -298.398203134,1745.86256908 "></polygon></g><g transform="translate(1026.8307253 -925.3972933) rotate(0)"><polygon class="252795394" points="-760.98573418,1279.60084744 -756.843948381,1291.88034143 -758.042513805,1295.37984253 -783.401711776,1303.35370828 -782.97811606,1297.95447591 -781.898939147,1295.09863259 -784.805099438,1292.84270416 -778.67135559,1288.05588744 -776.415326736,1289.87437772 -767.758962312,1282.00675272 -763.761485417,1283.37530678 -761.600426496,1279.62584385 -760.98573418,1279.60084744 "></polygon></g><g transform="translate(534.2323775 -1352.7192083) rotate(0)"><polygon class="303247220" points="-274.587546354,1793.69248864 -274.684818865,1799.61170423 -275.507960133,1799.62420521 -275.808887191,1803.18073589 -279.736546901,1803.19948738 -280.419529623,1816.39428484 -273.805245493,1816.24427287 -272.184178101,1816.28177586 -271.958430074,1825.62627343 -275.858487798,1825.90754601 -285.659249777,1826.62010323 -286.116266055,1819.12575287 -285.559932802,1801.48060163 -285.532896115,1799.21792319 -285.342430705,1793.90500532 -274.587546354,1793.69248864 "></polygon></g><g transform="translate(702.6367185 -620.0266165) rotate(0)"><polygon class="26233551" points="-428.584537361,1178.26017266 -425.156639519,1186.2223214 -460.356013717,1198.38429165 -462.474436258,1194.12197637 -464.253844505,1190.55963153 -428.584537361,1178.26017266 "></polygon></g><g transform="translate(1030.7649771000001 -43.16673370000001) rotate(0)"><polygon class="31416557" points="-759.038369254,809.516610937 -760.117563722,808.685569486 -764.564333346,805.367652499 -768.190269175,802.524616775 -769.035089718,801.806047378 -769.957082268,801.0 -789.063556053,817.620829211 -777.652595386,826.08746054 -766.269352095,815.765044132 -764.813370551,814.459121414 -763.335870628,813.134453491 -759.038369254,809.516610937 "></polygon></g><g transform="translate(414.74542270000006 -996.2135167000001) rotate(0)"><polygon class="339423319" points="-153.628029366,1178.26017266 -165.982813172,1179.07254537 -166.001181975,1182.52200532 -165.118112272,1182.50325826 -165.227155967,1184.37796503 -166.014015092,1184.37796503 -166.106430038,1186.11519348 -165.13318833,1186.09019738 -165.234074668,1187.92741038 -166.034071224,1187.96490453 -166.187205497,1195.82617862 -165.314624313,1195.81368056 -165.313889125,1197.74462997 -166.152453731,1197.82586733 -166.226220747,1199.51935388 -165.332130279,1199.48810874 -165.334256904,1201.39406243 -166.175684031,1201.45030368 -166.316049877,1204.10614113 -159.124057632,1202.98131581 -155.272114869,1202.42515221 -150.433163124,1201.68151775 -150.459515513,1200.28798436 -152.38067125,1200.4504591 -153.114688551,1187.7774338 -151.238041728,1187.55246894 -151.63322812,1180.2848555 -153.494089145,1180.44108104 -153.628029366,1178.26017266 "></polygon></g><g transform="translate(794.8355709 -513.6483625999999) rotate(0)"><polygon class="374736159" points="-505.213787944,809.833901294 -506.849103141,807.890942432 -547.914564061,801.318620126 -549.878346273,801.0 -551.589733157,806.966318995 -506.635736825,814.050934925 -505.880886556,811.808097656 -505.213787944,809.833901294 "></polygon></g><g transform="translate(822.2738818 -927.3464933999999) rotate(0)"><polygon class="350932759" points="-757.022292221,1410.51598198 -768.894225242,1421.50930424 -782.349540908,1429.97147954 -779.421120503,1434.49630755 -776.538588276,1439.03363623 -754.64978063,1422.05928301 -751.775249055,1419.29688978 -754.737006522,1415.34079342 -757.022292221,1410.51598198 "></polygon></g><g transform="translate(807.1600807 -1118.1438852) rotate(0)"><polygon class="29113841" points="-536.370413564,1213.17734909 -537.351887021,1215.63349095 -539.331143862,1218.45836699 -543.374231616,1221.12700029 -558.32519541,1226.41427025 -559.657808477,1224.10812039 -546.363186171,1219.37707677 -541.175718373,1215.14601239 -540.307986051,1204.7339734 -544.84030694,1178.26017266 -542.664075664,1178.26642237 -540.797312207,1182.60372323 -537.288474039,1194.96566137 -536.370413564,1213.17734909 "></polygon></g><g transform="translate(943.4006868000001 -1467.9029455) rotate(0)"><polygon class="251386523" points="-684.257830359,1490.86370687 -677.551270798,1497.14306038 -673.677194115,1499.9859525 -671.276135894,1502.12280796 -677.091461494,1506.60270754 -680.386188782,1504.3783779 -683.090256052,1507.00258705 -683.304377018,1507.93355658 -685.76317148,1510.25160843 -690.287414703,1506.97759458 -695.670622609,1512.05106669 -700.653859786,1508.26470683 -697.593375633,1505.31559541 -700.594225612,1503.32244623 -690.532153793,1494.83125834 -688.324557644,1493.06304238 -685.596451847,1491.84466046 -684.257830359,1490.86370687 "></polygon></g><g transform="translate(306.8211939 -389.33332039999993) rotate(0)"><polygon class="341306336" points="-42.0566800488,1063.66803271 -41.2218991344,1093.26197828 -51.8817248792,1094.16160501 -52.5621658745,1064.56765795 -42.0566800488,1063.66803271 "></polygon></g><g transform="translate(822.9265935 -503.89344729999993) rotate(0)"><polygon class="305674874" points="-546.096695207,1279.60084744 -541.933352416,1285.32284373 -576.843014425,1304.19420045 -581.006350877,1298.47219809 -546.096695207,1279.60084744 "></polygon></g><g transform="translate(386.38397150000003 -697.5316766) rotate(0)"><polygon class="306177227" points="-112.142097929,922.977766577 -125.741567549,925.184215885 -124.875137137,928.015722048 -126.276316362,940.56686287 -130.15062244,941.366935888 -129.307592662,952.4804538 -124.947201426,952.530458395 -121.358648434,946.629917085 -111.676031277,930.715966748 -111.766362008,926.603094194 -112.142097929,922.977766577 "></polygon></g><g transform="translate(362.1742284 -65.63983819999999) rotate(0)"><polygon class="123436263" points="-173.724634249,821.345086736 -153.227608708,815.940139758 -162.434527508,801.731073049 -164.458615041,801.0 -175.610411642,804.486656346 -178.438844463,805.248971982 -173.724634249,821.345086736 "></polygon></g><g transform="translate(986.6854005 -447.07417169999997) rotate(0)"><polygon class="138085792" points="-703.356626936,1186.59125497 -732.058044581,1198.4035238 -736.428370004,1190.06618616 -707.727495308,1178.26017266 -703.356626936,1186.59125497 "></polygon></g><g transform="translate(284.2637881 -864.6521855999999) rotate(0)"><polygon class="350390288" points="-28.2448358054,1279.60084744 -12.437485682,1287.41941113 -12.9849752802,1300.33786073 -27.8244027711,1300.68785272 -27.433951205,1290.43184025 -32.7592204387,1290.37559157 -32.5520864748,1281.3945544 -30.2439624412,1280.43832732 -28.2448358054,1279.60084744 "></polygon></g><g transform="translate(298.554675 -954.4451760000001) rotate(0)"><polygon class="86849407" points="-29.3338442306,1095.46092759 -38.1558364545,1096.37947315 -40.2218991344,1064.58657664 -31.3999343472,1063.66803271 -29.3338442306,1095.46092759 "></polygon></g><g transform="translate(471.6338846 -587.2104549000001) rotate(0)"><polygon class="149265489" points="-202.424132032,1241.56707946 -200.187143007,1240.14859238 -212.087811178,1178.26017266 -213.986096185,1179.85362182 -202.424132032,1241.56707946 "></polygon></g><g transform="translate(841.3049644 -1029.0033277) rotate(0)"><polygon class="361511603" points="-559.327392906,1346.58032949 -561.980526538,1356.74648226 -586.75541974,1355.39057833 -583.552263931,1342.58135271 -559.327392906,1346.58032949 "></polygon></g><g transform="translate(916.6129583 -285.78292309999995) rotate(0)"><polygon class="345432005" points="-633.509978003,801.0 -631.697706066,802.543806995 -632.67912858,812.019159706 -642.514661015,811.856653615 -658.995346935,811.744149399 -658.116881102,801.131254841 -633.509978003,801.0 "></polygon></g><g transform="translate(473.6102379 -1828.3216172) rotate(0)"><polygon class="349931875" points="-213.06507465,1976.30962364 -204.415148408,2008.23713312 -196.76331604,2006.36896612 -205.408815618,1974.44770802 -213.06507465,1976.30962364 "></polygon></g><g transform="translate(920.799131 -916.3047896999999) rotate(0)"><polygon class="353899713" points="-629.333188076,1628.38307983 -634.517908965,1625.34082185 -656.366964843,1625.34082185 -656.755499666,1627.61470662 -660.853882726,1627.58347194 -661.902177781,1634.43011572 -653.016611346,1634.4113749 -651.677795487,1634.4113749 -639.705948366,1634.38638715 -638.262615287,1634.38638715 -629.805071852,1634.36764633 -629.333188076,1628.38307983 "></polygon></g><g transform="translate(398.291243 -965.5170049999999) rotate(0)"><polygon class="306854495" points="-107.040747816,1349.41600728 -136.510087155,1342.58135271 -139.836419129,1350.66548738 -110.367589581,1357.50639244 -107.040747816,1349.41600728 "></polygon></g><g transform="translate(337.16409930000003 -1298.2451125) rotate(0)"><polygon class="165738084" points="-72.5552843271,1740.40177573 -57.3514717671,1738.58953127 -56.1189752017,1755.61838725 -61.4365055867,1755.83710661 -62.7455702717,1755.8870996 -63.525418051,1756.27454533 -63.7940397475,1757.21191405 -63.7025556928,1758.54297772 -63.1674545175,1759.39910792 -70.5496216149,1760.18024866 -72.2439549481,1743.48884084 -72.5552843271,1740.40177573 "></polygon></g><g transform="translate(875.1178745 -522.7576480000001) rotate(0)"><polygon class="195001114" points="-605.110282463,1197.19094027 -610.22191141,1183.43503882 -592.053225487,1178.26017266 -591.170054823,1180.41011687 -587.15882857,1191.93482221 -605.110282463,1197.19094027 "></polygon></g><g transform="translate(547.7221468 -1510.7116118000001) rotate(0)"><polygon class="285034134" points="-254.273037105,1922.54757648 -282.755796565,1916.0993753 -285.768380988,1923.05368539 -258.214433862,1931.52007733 -254.273037105,1922.54757648 "></polygon></g><g transform="translate(947.518052 -596.3349838) rotate(0)"><polygon class="350390284" points="-660.686214448,814.72463897 -659.995346935,801.0 -682.97814708,806.893593688 -683.137630954,808.181059798 -684.01513377,815.324623425 -660.686214448,814.72463897 "></polygon></g><g transform="translate(610.6888825999999 -1228.4177899000001) rotate(0)"><polygon class="347336249" points="-313.143290778,1554.24871015 -312.202605419,1564.08908007 -346.615562376,1577.87810277 -348.185546002,1575.32272803 -345.704052495,1572.66114006 -320.411311118,1562.38341556 -317.313973076,1557.10397883 -313.143290778,1554.24871015 "></polygon></g><g transform="translate(841.7554030000001 -965.3656965) rotate(0)"><polygon class="103575100" points="-558.582763118,1554.24871015 -557.584638173,1558.73592145 -558.801865082,1558.992155 -558.218169496,1561.61698668 -555.697443995,1561.08577072 -554.398369577,1566.95414561 -558.796076792,1567.88533627 -568.945334711,1570.02894984 -573.915463271,1571.0726335 -576.796337189,1558.0922128 -571.556907252,1556.98603391 -558.582763118,1554.24871015 "></polygon></g><g transform="translate(778.493209 -1731.172603) rotate(0)"><polygon class="115502766" points="-487.735024014,1738.58953127 -514.16279657,1746.9829952 -511.109942636,1755.00772536 -484.677173243,1746.61425769 -487.735024014,1738.58953127 "></polygon></g><g transform="translate(372.1391029 -1045.4315651) rotate(0)"><polygon class="204824617" points="-73.1735125492,1793.69248864 -106.607429683,1797.57878265 -106.2323912,1800.13424011 -105.028008072,1801.6025349 -102.452828268,1803.87058198 -72.6624605228,1800.38416262 -73.0924798254,1794.7296667 -73.1735125492,1793.69248864 "></polygon></g><g transform="translate(576.6238297 -1090.9325771) rotate(0)"><polygon class="354179332" points="-281.678517159,1288.06746987 -307.456786707,1294.22217578 -309.682902126,1285.76179887 -283.909093536,1279.60084744 -281.678517159,1288.06746987 "></polygon></g><g transform="translate(484.0890935 -1639.446823) rotate(0)"><polygon class="397863650" points="-191.628975611,1917.86773455 -187.409903956,1922.11054773 -187.707831102,1925.30984199 -216.50635813,1925.39107408 -213.935682656,1916.0993753 -207.404509566,1916.18060734 -197.741933545,1916.21185044 -195.803827881,1916.37431453 -194.186357137,1916.79297201 -191.628975611,1917.86773455 "></polygon></g><g transform="translate(353.5143363 -537.4516287) rotate(0)"><polygon class="395746680" points="-351.01438885,1064.1490477 -350.884118855,1087.91870066 -344.279896533,1087.80625544 -343.468256098,1087.74378588 -343.302053863,1083.37091703 -340.041634659,1083.13353276 -339.95448895,1067.96593333 -343.024472994,1068.07213147 -342.721206276,1063.66803271 -345.587514612,1063.8367003 -351.01438885,1064.1490477 "></polygon></g><g transform="translate(456.6853908 -1308.3820547999999) rotate(0)"><polygon class="136128127" points="-160.107243726,1554.24871015 -188.225521296,1561.33009555 -186.796105432,1567.93022424 -157.968511989,1562.29886428 -160.107243726,1554.24871015 "></polygon></g><g transform="translate(852.0860588 -1384.8393240999999) rotate(0)"><polygon class="348340597" points="-555.841303707,1923.28635354 -554.431261813,1918.70543577 -570.405131924,1917.00555935 -578.397250722,1916.0993753 -580.157957692,1916.18686893 -581.488100043,1916.42435164 -583.95873693,1917.30553753 -585.777117155,1918.42420621 -587.157865833,1919.96159455 -588.085883058,1921.50523257 -588.360472649,1922.39266826 -588.4270098,1923.11761575 -583.650899279,1922.65514925 -582.755300972,1923.60508046 -582.033587987,1924.37377484 -566.800323868,1923.0051239 -566.930911076,1924.07379654 -556.427946784,1925.56118898 -556.071302637,1924.41127213 -555.841303707,1923.28635354 "></polygon></g><g transform="translate(293.9591285 -811.4134266) rotate(0)"><polygon class="348340570" points="-183.088919536,1196.07713123 -184.227812976,1196.2333656 -184.425457243,1194.68977009 -195.546293892,1196.32085684 -195.742344276,1194.75851321 -197.07866716,1194.95224381 -199.187143007,1180.484948 -185.107214236,1178.26017266 -184.716992658,1181.17237864 -183.531152362,1180.99114692 -182.361543664,1189.74026636 -183.891906278,1189.99024126 -183.088919536,1196.07713123 "></polygon></g><g transform="translate(425.7896654 -313.48087439999995) rotate(0)"><polygon class="52154635" points="-155.779387864,932.821278017 -131.52146892,932.071296004 -131.15062244,922.977766577 -155.40798995,923.721498365 -155.779387864,932.821278017 "></polygon></g><g transform="translate(414.2292672 -388.7101665) rotate(0)"><polygon class="442834934" points="-119.49964129,1063.66803271 -144.344939408,1068.2364935 -142.808396221,1076.69846087 -117.963079123,1072.12999793 -118.79035202,1067.56778576 -119.49964129,1063.66803271 "></polygon></g><g transform="translate(136.8505371 -918.8406557999999) rotate(0)"><polygon class="202400411" points="-35.1198020997,1491.61983896 -37.9441176539,1490.86370687 -45.8771513473,1500.36847698 -55.4781647165,1510.5731437 -70.2038537679,1525.23962832 -67.7345221103,1526.36445507 -48.4152820188,1507.56735946 -35.1198020997,1491.61983896 "></polygon></g><g transform="translate(421.9958479 -1501.6538845) rotate(0)"><polygon class="29172799" points="-146.033852058,1575.0053971 -149.466824008,1569.99429829 -149.240991982,1554.73607339 -143.13733592,1554.27370314 -142.821538064,1554.24871015 -142.89351773,1563.65232363 -133.009898144,1566.22660273 -128.44485232,1569.28199758 -133.873475391,1571.93750477 -134.448662215,1569.97555354 -136.380727776,1567.75117596 -137.317068321,1567.05137184 -137.919577524,1567.34503964 -136.833986441,1571.56260961 -146.033852058,1575.0053971 "></polygon></g><g transform="translate(500.9226367 -1263.9346745) rotate(0)"><polygon class="174776689" points="-222.954475914,1342.58135271 -221.281325185,1350.32310263 -221.107036523,1354.25333853 -221.357419259,1357.78992674 -222.822720423,1361.32651564 -224.982452287,1363.77588505 -228.063214762,1366.10653533 -229.760411835,1367.50617532 -230.508676937,1368.6371345 -230.458357953,1369.68686463 -221.214403155,1368.13101464 -221.230841465,1367.26873638 -218.562059467,1366.80010692 -216.236162705,1365.91283516 -214.871393956,1364.38197906 -213.897771033,1363.00108449 -212.755060734,1360.50797645 -212.361672372,1358.10234622 -212.180296976,1355.96539704 -212.207282184,1354.64073862 -213.049760721,1353.00990927 -217.512263095,1347.86123829 -222.954475914,1342.58135271 "></polygon></g><g transform="translate(1041.6919687 -1276.4943389) rotate(0)"><polygon class="190402597" points="-758.897088697,1628.31507673 -763.14434516,1625.34082185 -770.228116164,1632.2016038 -751.985368227,1644.98590942 -745.888929042,1639.07488526 -744.906051651,1638.11887413 -747.320791456,1636.42554737 -758.897088697,1628.31507673 "></polygon></g><g transform="translate(988.9690484 -555.9538332999999) rotate(0)"><polygon class="204824091" points="-694.032117656,1351.14118615 -696.606082126,1351.78473584 -713.75016089,1356.0271659 -714.599189192,1353.01560278 -720.314783841,1354.59636095 -720.699416787,1353.26552501 -721.273779424,1351.29738753 -714.958230699,1349.80410241 -715.650690188,1347.11743912 -709.599883419,1345.69288294 -696.41051206,1342.58135271 -694.977636978,1347.7422445 -694.032117656,1351.14118615 "></polygon></g><g transform="translate(550.9395115 -586.6807422999999) rotate(0)"><polygon class="318238608" points="-280.678517159,1281.57568302 -278.823561147,1286.20654831 -250.052449337,1286.41903069 -249.833425886,1282.82557906 -249.623742486,1280.34453549 -280.207779981,1279.60084744 -280.678517159,1281.57568302 "></polygon></g><g transform="translate(752.2712495000001 -604.8564833) rotate(0)"><polygon class="371475229" points="-483.116093882,1073.65248748 -461.831722342,1063.66803271 -456.884144552,1072.14669638 -475.830239378,1080.57537928 -483.116093882,1073.65248748 "></polygon></g><g transform="translate(515.9346989000001 -874.3740111) rotate(0)"><polygon class="177390426" points="-214.986096185,1180.80909795 -220.443894876,1179.96570351 -223.214835812,1179.54088262 -226.987814861,1178.9598776 -228.042694805,1180.92779791 -242.229059774,1178.26017266 -244.943808972,1185.06980231 -227.075426949,1187.812397 -226.414088017,1186.13810224 -218.893853685,1187.59998646 -217.537788462,1187.57499699 -214.986096185,1180.80909795 "></polygon></g><g transform="translate(570.0524422000001 -440.09883549999995) rotate(0)"><polygon class="295624635" points="-274.507190911,1077.01470144 -279.28422721,1082.58206478 -281.477530976,1084.67529387 -295.523099963,1071.74726498 -298.28435616,1069.06668403 -292.485870189,1063.66803271 -274.507190911,1077.01470144 "></polygon></g><g transform="translate(308.3869972 -1177.6628609999998) rotate(0)"><polygon class="406738497" points="-114.113217453,1793.69248864 -114.664361034,1822.41228642 -108.154959253,1823.01204775 -107.607429683,1794.39220907 -114.113217453,1793.69248864 "></polygon></g><g transform="translate(1016.5201945 -1516.1895310999998) rotate(0)"><polygon class="295019518" points="-720.42088296,1635.05151707 -720.212112747,1625.34082185 -743.906051651,1626.63433115 -743.755146851,1634.68283549 -724.008234774,1633.18936275 -723.833827961,1635.30771952 -720.42088296,1635.05151707 "></polygon></g><g transform="translate(425.30886940000005 -666.2081201999999) rotate(0)"><polygon class="412507718" points="-131.906503576,803.524396373 -149.218786047,801.0 -152.227608708,811.303788418 -134.558932829,814.671735099 -131.315840014,804.774097678 -130.969664512,803.574384423 -131.906503576,803.524396373 "></polygon></g><g transform="translate(572.0561886 -1710.5838642) rotate(0)"><polygon class="239022316" points="-287.764367941,1758.66475813 -283.609018499,1739.49550896 -288.549163436,1739.04564417 -293.488771368,1738.58953127 -297.398203134,1756.63411636 -296.433460028,1757.86499765 -287.764367941,1758.66475813 "></polygon></g><g transform="translate(620.1715104 -847.0079160999999) rotate(0)"><polygon class="356695537" points="-560.657808477,1188.02700591 -584.712109707,1189.21427327 -586.15882857,1185.05883785 -562.266269331,1178.26017266 -560.657808477,1188.02700591 "></polygon></g><g transform="translate(278.75246200000004 -1154.5443535000002) rotate(0)"><polygon class="305131427" points="-178.365315093,1365.8313318 -176.867540219,1367.64334434 -140.836419129,1344.48708757 -142.236540454,1342.58135271 -178.365315093,1365.8313318 "></polygon></g><g transform="translate(524.2539601 -1127.7349159999999) rotate(0)"><polygon class="241733365" points="-248.623742486,1281.36908878 -242.960167678,1303.07535888 -235.524141726,1301.3071154 -235.651562029,1300.81975504 -241.059774281,1280.08195902 -241.187730121,1279.60084744 -243.312381493,1280.10695183 -248.623742486,1281.36908878 "></polygon></g><g transform="translate(642.7993847 -1298.8128997000001) rotate(0)"><polygon class="121609099" points="-520.696876877,1937.34690467 -517.520626656,1939.52790249 -514.870622181,1941.39643665 -505.795586375,1931.32260262 -509.539806763,1929.08536233 -499.329878266,1918.02415045 -501.616495556,1916.0993753 -517.249189511,1933.52859681 -520.696876877,1937.34690467 "></polygon></g><g transform="translate(502.169734 -1057.2116815) rotate(0)"><polygon class="347022974" points="-452.830736263,1738.58953127 -452.543730435,1739.72055247 -453.008353442,1740.43915714 -482.284044316,1751.53691639 -483.151925483,1751.61190127 -483.677173243,1751.05576339 -483.100121853,1746.15675184 -472.519342124,1744.65080596 -472.742192717,1741.65766078 -452.830736263,1738.58953127 "></polygon></g><g transform="translate(778.6673151 -555.4103994000001) rotate(0)"><polygon class="337962666" points="-743.521776234,1355.39165546 -738.288709741,1350.17379934 -730.809785269,1344.78097478 -727.972266316,1343.91237399 -726.893319687,1342.58135271 -722.41293361,1352.41091591 -722.273779424,1355.41040225 -743.521776234,1355.39165546 "></polygon></g><g transform="translate(77.8270931 -1399.5482686999999) rotate(0)"><polygon class="297168534" points="-2.50252705025,1916.0993753 0.0,1923.59814742 -16.1026086107,1927.62248975 -19.5949422426,1926.28520819 -21.2081010687,1921.10480534 -2.50252705025,1916.0993753 "></polygon></g><g transform="translate(858.7745665 -1040.9223955) rotate(0)"><polygon class="406740289" points="-754.348598279,1793.69248864 -754.052155369,1801.433056 -773.740079989,1803.12611033 -773.92795166,1798.29684509 -769.926224044,1797.95323636 -770.034245159,1795.03568612 -754.348598279,1793.69248864 "></polygon></g><g transform="translate(422.53916890000005 -1408.0341776) rotate(0)"><polygon class="407906726" points="-293.114905559,1627.215816 -324.596452799,1645.27201965 -326.05031474,1643.39702362 -294.573750518,1625.34082185 -293.114905559,1627.215816 "></polygon></g><g transform="translate(308.5012279 -1818.9335836999999) rotate(0)"><polygon class="348060976" points="-182.018785767,1974.44770802 -195.76331604,1976.0476181 -195.34038983,1978.85996037 -188.736964659,1988.58441839 -180.570602656,1987.32823811 -182.018785767,1974.44770802 "></polygon></g><g transform="translate(628.5513906 -1175.2204279999999) rotate(0)"><polygon class="164000463" points="-577.796337189,1554.24871015 -577.87662941,1563.45772954 -593.41394275,1564.28241807 -593.33363598,1555.07339826 -577.796337189,1554.24871015 "></polygon></g><g transform="translate(640.7545435 -1436.027589) rotate(0)"><polygon class="395746692" points="-493.89129903,1807.45450342 -488.381044522,1807.09842756 -482.847513506,1806.76109253 -482.857780146,1794.81693793 -482.865805679,1793.69248864 -493.996866188,1794.41713373 -493.89129903,1807.45450342 "></polygon></g><g transform="translate(670.5606963 -1172.9878516) rotate(0)"><polygon class="110188645" points="-549.221700598,1490.86370687 -564.486521017,1492.61386401 -564.134719663,1497.0517632 -563.75870825,1501.73343551 -548.488891939,1499.98327749 -549.221700598,1490.86370687 "></polygon></g><g transform="translate(233.6962558 -961.7010689000001) rotate(0)"><polygon class="202626419" points="-224.654411077,1738.58953127 -230.152754652,1738.77075153 -231.198850004,1761.70450236 -225.691518673,1761.41704917 -225.382832488,1744.7947639 -224.654411077,1738.58953127 "></polygon></g><g transform="translate(545.283415 -1265.4726909) rotate(0)"><polygon class="367006579" points="-366.388639007,1738.58953127 -356.945804857,1743.17107403 -355.457510864,1751.62161707 -362.519216162,1754.12177849 -364.275165867,1754.79682214 -369.427552672,1739.58959507 -366.388639007,1738.58953127 "></polygon></g><g transform="translate(393.6684692 -834.9710447) rotate(0)"><polygon class="75804804" points="-260.107160594,1625.34082185 -273.582330251,1625.48455886 -273.976340519,1625.49080829 -274.33993438,1625.49080829 -274.524753659,1625.49705773 -275.186790616,1634.97120349 -260.764202621,1634.81496754 -260.438873904,1630.11539069 -260.107160594,1625.34082185 "></polygon></g><g transform="translate(823.740162 -665.0321014) rotate(0)"><polygon class="372869062" points="-683.894236982,922.977766577 -671.258431631,932.620603913 -677.338905687,938.101337482 -689.969734508,928.458497209 -683.894236982,922.977766577 "></polygon></g><g transform="translate(325.7957864 -1411.8872007) rotate(0)"><polygon class="165091937" points="-167.830002715,1923.11487857 -180.641726126,1916.0993753 -186.409903956,1922.99618347 -173.59373146,1930.01793657 -167.830002715,1923.11487857 "></polygon></g><g transform="translate(959.0472999 -777.2639245) rotate(0)"><polygon class="204804700" points="-750.990703692,802.943767853 -751.758290024,803.65627445 -752.313844578,804.512532414 -752.521439978,805.318789952 -752.452701541,806.156297818 -751.928612519,806.675052711 -751.656800494,806.81880407 -751.194790721,806.775053656 -750.775665937,806.531301354 -748.826742025,804.631283523 -747.481409166,805.512541769 -749.517133234,807.43755993 -750.002263176,807.10630679 -750.308393372,807.368809277 -750.47873251,807.675062184 -750.423380504,808.081316049 -750.04777925,808.293818074 -749.641530018,808.556320578 -749.240884179,808.53132034 -748.879955575,808.268817836 -748.587118433,807.868814027 -746.76861239,806.156297818 -744.593995694,808.012565394 -746.243124565,809.725081778 -746.619270323,810.462588884 -746.171949598,810.887592992 -745.580484121,810.962593719 -744.223628481,811.412598081 -743.648963857,811.981353612 -743.311145754,812.700110627 -743.278929718,813.675120188 -743.578306189,814.506378381 -743.858242023,814.812631409 -744.257508146,815.175135001 -745.366514431,815.506388288 -746.281857284,815.550138723 -747.289374157,815.387637109 -748.330476835,815.26888593 -748.790903079,815.293886179 -749.40938908,815.243885682 -749.630422598,814.793881224 -749.96325871,814.075124126 -749.89726257,813.293866443 -749.780163749,812.556359221 -752.610454578,811.031344385 -754.630545434,813.125114788 -758.038369254,811.006344142 -755.734186063,808.675071714 -756.708762984,807.768813076 -757.059251124,807.200057678 -757.373308848,806.200048231 -757.280912984,805.106287962 -756.928848683,804.300030434 -756.468013693,803.56252358 -755.140852971,802.300011918 -753.576386139,801.0 -752.208854091,802.031259446 -750.990703692,802.943767853 "></polygon></g><g transform="translate(909.0771485 -727.8482323) rotate(0)"><polygon class="232311058" points="-695.864597898,923.352736659 -691.344931065,922.977766577 -690.969734508,934.539347706 -699.276021457,935.220543799 -699.356667873,932.658246703 -703.278829237,932.976971444 -704.048499347,933.183205102 -704.202280731,926.683721233 -699.517712175,926.302501579 -695.780908997,925.996275962 -695.864597898,923.352736659 "></polygon></g><g transform="translate(122.8603789 -1683.5307879) rotate(0)"><polygon class="352383699" points="-23.9223431005,1974.44770802 -20.9902344298,1982.7829559 -25.434090143,1984.51373874 -25.9107975823,1985.31977124 -28.8546728255,1986.03832737 -29.4615186762,1985.44473752 -35.1245775839,1985.99458917 -34.6969740067,1976.73458973 -30.2755870879,1975.97229579 -23.9223431005,1974.44770802 "></polygon></g><g transform="translate(767.7365999000001 -160.60375350000004) rotate(0)"><polygon class="80531540" points="-475.093497959,928.489675464 -487.070771322,922.977766577 -492.562501531,930.620697379 -480.23473677,935.701404607 -475.093497959,928.489675464 "></polygon></g><g transform="translate(610.9775175 -1405.7978724) rotate(0)"><polygon class="97208954" points="-486.394799422,1916.0993753 -498.22993676,1917.19290379 -498.329878266,1918.3676659 -498.229049074,1923.50412668 -498.251159399,1927.33460265 -486.004258373,1925.79116443 -486.394799422,1916.0993753 "></polygon></g><g transform="translate(387.2149205 -1310.1451708) rotate(0)"><polygon class="149265494" points="-383.370454923,1630.89604132 -353.801094509,1625.34082185 -355.411326157,1627.6466439 -385.20471735,1633.37683167 -383.370454923,1630.89604132 "></polygon></g><g transform="translate(968.1200496 -556.2562230999999) rotate(0)"><polygon class="290858944" points="-766.315926393,934.03014953 -770.372343217,922.977766577 -779.636943462,925.882999422 -775.468437202,937.254022838 -766.315926393,934.03014953 "></polygon></g><g transform="translate(247.8367844 -780.3833258) rotate(0)"><polygon class="194132310" points="-194.544704999,805.641671842 -191.35510317,803.511375463 -185.260760575,801.0 -182.586837884,803.186520906 -181.051331093,802.405620551 -179.438844463,805.416772506 -181.396866997,806.422572339 -180.158530606,809.096375896 -190.810895755,813.444431135 -194.544704999,805.641671842 "></polygon></g><g transform="translate(295.402603 -1546.5072421) rotate(0)"><polygon class="104821915" points="-18.9902344298,1979.00882592 -13.916695691,1982.3890524 -10.746821605,1984.3322143 -3.84446841963,1988.39348585 0.0,1984.30097375 -4.04756243848,1981.73300099 -4.7943755745,1981.73300099 -6.48822335112,1980.69581502 -6.79086271925,1980.15847773 -12.073864727,1977.01567973 -11.4765943676,1976.43460581 -14.7323483675,1974.44770802 -17.7672430879,1977.74670824 -18.9902344298,1979.00882592 "></polygon></g><g transform="translate(644.619641 -538.1007002) rotate(0)"><polygon class="97242003" points="-366.232464221,801.0 -353.774406096,804.461757591 -354.14256427,805.686495094 -353.844183563,806.861243389 -353.516890412,807.754801985 -352.901746668,808.367170838 -351.833413595,809.154502251 -350.39741086,809.541919308 -350.775866371,810.829143785 -356.18692708,810.04806096 -367.362845623,809.541919308 -366.232464221,801.0 "></polygon></g><g transform="translate(978.6914821 -633.7174271) rotate(0)"><polygon class="26583505" points="-686.600281057,1178.97255651 -684.736331723,1182.19078217 -699.722138855,1187.55240988 -702.356626936,1178.26017266 -686.600281057,1178.97255651 "></polygon></g><g transform="translate(399.2907743 -405.925696) rotate(0)"><polygon class="346640307" points="-112.62468387,803.199529113 -113.109248407,804.617975589 -114.672825661,809.460690168 -129.969664512,807.179927655 -128.834683165,802.224737768 -128.122648832,801.0 -112.62468387,803.199529113 "></polygon></g><g transform="translate(429.8138099 -1851.3365410000001) rotate(0)"><polygon class="333861999" points="-154.707024221,1980.30743039 -139.368344253,1983.10610444 -138.106238362,1979.23918661 -137.404455984,1977.09020518 -152.801304112,1974.44770802 -153.431210052,1976.3967839 -154.707024221,1980.30743039 "></polygon></g><g transform="translate(608.3995946 -1698.9410894999999) rotate(0)"><polygon class="356590652" points="-534.22982283,1812.84789939 -535.616183253,1793.69248864 -540.051239903,1794.17996703 -538.664887732,1813.33537829 -534.22982283,1812.84789939 "></polygon></g><g transform="translate(894.3143411 -1684.5672241) rotate(0)"><polygon class="350104386" points="-617.314768717,1927.19271585 -607.825664771,1927.95518795 -606.51842647,1922.43039079 -605.352598817,1916.98684229 -613.969295308,1916.0993753 -617.314768717,1927.19271585 "></polygon></g><g transform="translate(794.5440489 -509.46452730000004) rotate(0)"><polygon class="224083094" points="-706.373279705,923.090247181 -705.202280731,929.789093329 -719.936268308,930.239015921 -719.585581296,922.977766577 -706.373279705,923.090247181 "></polygon></g><g transform="translate(725.0161165 -854.7112299) rotate(0)"><polygon class="250706116" points="-434.285219443,1410.51598198 -432.209341173,1415.9849996 -430.833143712,1420.36646519 -433.54609693,1421.16025436 -435.435956979,1420.53522352 -442.381595163,1420.66022969 -444.699803647,1413.35362063 -434.285219443,1410.51598198 "></polygon></g><g transform="translate(367.1920359 -77.93990450000001) rotate(0)"><polygon class="99722035" points="-84.16128398,801.0 -69.7365771579,812.729118834 -74.8768396507,816.584669958 -82.0673140311,808.54237868 -86.4669630183,803.737002005 -84.16128398,801.0 "></polygon></g><g transform="translate(273.45797849999997 -1327.7139158) rotate(0)"><polygon class="185098467" points="-260.843595211,1793.69248864 -260.606662474,1802.91740682 -270.762752868,1804.66114189 -270.958430074,1794.42373198 -260.843595211,1793.69248864 "></polygon></g><g transform="translate(588.9312708 -273.95711229999995) rotate(0)"><polygon class="324747782" points="-293.945163259,922.977766577 -290.343663617,933.009202269 -298.402525722,935.45299835 -302.576031709,923.827782095 -300.694427289,923.259021707 -300.121883647,924.846550748 -299.324021873,924.60279628 -293.945163259,922.977766577 "></polygon></g><g transform="translate(673.7758044 -1315.0234939000002) rotate(0)"><polygon class="332753259" points="-475.596484155,1916.0993753 -485.004258373,1917.24315556 -484.63400879,1926.64965715 -474.918184438,1925.57462815 -474.911767376,1923.02455961 -475.222247841,1918.74319535 -475.596484155,1916.0993753 "></polygon></g><g transform="translate(742.4988902 -1617.6309211) rotate(0)"><polygon class="371475227" points="-606.158467857,1798.62848132 -596.188224718,1793.69248864 -591.706777232,1801.39013858 -599.562767516,1804.94530432 -606.158467857,1798.62848132 "></polygon></g><g transform="translate(147.1117777 -1155.3745098) rotate(0)"><polygon class="107021820" points="-67.9183124442,1793.69248864 -69.126354862,1794.95461985 -71.6624605228,1797.66007963 -61.1628899379,1804.6705339 -55.9875421937,1799.50953967 -61.3027744508,1795.69190446 -62.8939966683,1797.36016721 -67.9183124442,1793.69248864 "></polygon></g><g transform="translate(404.0955478 -1216.1300979) rotate(0)"><polygon class="29084559" points="-214.625183482,1631.95194876 -223.588033697,1635.71991727 -229.140952948,1628.41518302 -219.061483192,1625.34082185 -214.625183482,1631.95194876 "></polygon></g><g transform="translate(560.9076775 -1342.9128869) rotate(0)"><polygon class="208172679" points="-484.844250172,1493.01329759 -502.990047216,1501.02427454 -503.579161072,1497.2687381 -489.224187493,1490.86370687 -486.718747037,1492.09472245 -484.844250172,1493.01329759 "></polygon></g><g transform="translate(722.7780286 -980.4894863) rotate(0)"><polygon class="205847444" points="-515.16279657,1738.58953127 -524.544086386,1738.70828739 -524.659725954,1740.43337647 -526.839831769,1743.42103113 -527.015745415,1746.21492621 -515.471410724,1746.02741646 -515.16279657,1738.58953127 "></polygon></g><g transform="translate(674.6135095 -868.0191226000001) rotate(0)"><polygon class="275871559" points="-586.837123269,1063.66803271 -599.031662781,1067.46683036 -596.730805115,1073.15253228 -584.492951207,1069.02258818 -586.837123269,1063.66803271 "></polygon></g><g transform="translate(341.08867699999996 -1750.5055512000001) rotate(0)"><polygon class="307952785" points="-50.0011189158,1793.69248864 -54.9875421937,1809.33785916 -44.6055240915,1804.41234753 -50.0011189158,1793.69248864 "></polygon></g><g transform="translate(370.6691574 -1604.6322111) rotate(0)"><polygon class="398358642" points="-289.110999878,1625.34082185 -276.186790616,1634.48379681 -279.61413835,1637.37730249 -292.114905559,1628.11558615 -289.110999878,1625.34082185 "></polygon></g><g transform="translate(642.0912002 -1038.4490742) rotate(0)"><polygon class="435976803" points="-494.098832203,1631.38896475 -487.023922263,1625.34082185 -480.733755082,1630.43300815 -487.808663006,1636.48115276 -494.098832203,1631.38896475 "></polygon></g><g transform="translate(696.9760197 -1371.2292861) rotate(0)"><polygon class="249354390" points="-567.450211246,1508.18944733 -569.413406006,1508.25195003 -568.738700252,1490.86370687 -565.486521017,1490.8762074 -566.242894871,1501.61416436 -567.450211246,1508.18944733 "></polygon></g><g transform="translate(638.8353763 -1050.7849384) rotate(0)"><polygon class="320703381" points="-497.08660269,1793.69248864 -494.996866188,1805.49975786 -501.703782154,1806.33107991 -501.992892965,1802.21197328 -500.941433508,1801.97445274 -500.798256387,1794.45505423 -497.08660269,1793.69248864 "></polygon></g><g transform="translate(635.6528915 -1336.1307032) rotate(0)"><polygon class="298495669" points="-445.699803647,1418.69741768 -452.076647176,1421.57248381 -455.074097463,1413.57855106 -448.1084213,1410.51598198 -445.699803647,1418.69741768 "></polygon></g><g transform="translate(361.8283465 -704.0122240000001) rotate(0)"><polygon class="106153774" points="-224.692696979,1279.60084744 -227.642467378,1280.15689776 -229.367596152,1280.53801092 -234.524141726,1281.34397156 -233.05603602,1285.72364975 -229.345438943,1288.21025782 -225.035368658,1287.34806705 -224.982047732,1286.19847941 -224.809466839,1282.36860373 -224.692696979,1279.60084744 "></polygon></g><g transform="translate(795.5088302 -116.08676939999998) rotate(0)"><polygon class="357207969" points="-593.994650028,801.0 -596.702716536,801.393721935 -606.250509791,814.749025041 -602.889273081,814.524040912 -593.994650028,801.0 "></polygon></g><g transform="translate(563.3741164 -555.5834264) rotate(0)"><polygon class="419721263" points="-275.188051949,930.946334335 -277.499803934,933.271281827 -289.343663617,925.302713042 -287.031909604,922.977766577 -275.188051949,930.946334335 "></polygon></g><g transform="translate(363.31721200000004 -1431.4132486) rotate(0)"><polygon class="426091473" points="-236.759215449,1752.33359986 -235.344179098,1738.58953127 -232.198850004,1738.62703212 -233.613881823,1752.37110075 -236.759215449,1752.33359986 "></polygon></g><g transform="translate(12.9212526 -1014.1704038) rotate(0)"><polygon class="343156537" points="-0.705857358081,1279.60084744 0.0,1282.26318023 -10.1254441284,1283.66309247 -10.437485682,1280.93826339 -3.42736831242,1279.97582386 -0.705857358081,1279.60084744 "></polygon></g><g transform="translate(87.3524786 -1601.4817013) rotate(0)"><polygon class="175583284" points="-84.9197015237,1742.66324355 -82.5700991898,1740.1515374 -73.5552843271,1738.58953127 -75.1122650539,1740.91379644 -84.9197015237,1742.66324355 "></polygon></g><g transform="translate(159.2392619 -947.8444613) rotate(0)"><polygon class="60914816" points="-150.466824008,1559.44111055 -153.772386242,1560.82825026 -156.968511989,1555.71082997 -153.62664852,1554.24871015 -150.466824008,1559.44111055 "></polygon></g></g></svg>