<svg xmlns="http://www.w3.org/2000/svg" version="1.1" width="792.5px" height="800px">
  <polygon class="bin" points="-1.875,0.0 0.77665042945,1.09834957055 1.875,3.75 1.875,803.749999 0.77665042945,806.401649429 -1.875,807.499999 -358.493938553,807.499999 -361.124732376,806.422343263 -362.243478169,803.808758393 -362.521606547,786.060900358 -364.376409347,781.928476503 -368.652016761,780.433016178 -397.863632783,782.473960643 -400.6825737,781.475581023 -401.874999,778.733080038 -401.874999,745.849417611 -400.830839863,743.253088429 -398.279838881,742.102615693 -395.57014808,741.99063534 -371.325960886,732.603414021 -289.804630753,700.865997123 -288.934806542,700.642747881 -287.627294417,700.470193035 -283.376100363,697.515858323 -283.317844758,692.33924256 -285.287792576,688.411227637 -285.641895703,686.158486484 -285.001909186,684.873151775 -284.663084052,683.473989108 -282.857201133,681.967386508 -263.676010914,674.387530878 -260.35366139,670.85133964 -260.964518699,666.037868109 -265.683579947,658.617810321 -268.820922834,656.205711955 -272.774793568,656.373178804 -291.944435082,664.280266084 -293.852081213,666.360849848 -296.34638562,667.566848618 -297.852554748,667.675465509 -396.689578106,708.627067926 -399.095320867,708.784956705 -401.099995387,707.445625838 -401.874999,705.162667998 -401.874999,660.370865405 -400.543584181,657.505041662 -335.918713216,602.965485399 -333.912131779,598.360592216 -336.350421888,593.968992094 -398.479668441,551.000352487 -399.09572411,550.835252852 -401.100122456,549.49586443 -401.874999,547.213072188 -401.874999,537.814804316 -400.924309405,535.319536544 -398.554272997,534.089455496 -387.891646405,532.860795158 -384.096886531,530.787969036 -382.817393423,526.657629096 -383.565364779,517.860281606 -385.612779801,513.933673534 -389.845260202,512.631264659 -390.501532867,512.695319983 -393.270924894,511.840201742 -394.603537441,509.266313009 -394.95063985,504.988191154 -394.090585578,502.280448227 -391.578815795,500.95282717 -391.253611881,500.920944345 -387.402094801,498.885199137 -386.083267805,494.733195076 -388.423642242,465.883821557 -387.564398072,463.177090735 -385.054378427,461.848748283 -354.669123278,458.848720847 -354.636382578,458.845633159 -338.750666669,457.417740405 -334.869561144,455.396618808 -333.535780291,451.229012633 -334.963197056,433.587702069 -337.006185957,429.64360742 -341.251611857,428.337450777 -362.912001966,430.48283701 -362.984640244,430.489318998 -380.644739159,431.892299732 -380.834822724,431.910059733 -393.235598308,433.242622324 -395.412865955,432.816536502 -396.968299946,431.234554001 -397.916544075,429.398082127 -399.241777788,428.98465863 -401.14579529,427.626812846 -401.874999,425.404811547 -401.874999,383.366264251 -400.568837143,380.521944451 -397.560249598,379.659033733 -372.997908495,383.400793891 -371.916104256,383.738846304 -305.683913413,416.107231568 -303.511723696,416.752382905 -291.758370118,418.203450231 -291.632544528,418.217809358 -286.557119943,418.749705454 -283.053808485,418.009014655 -280.64758467,415.357241478 -270.110827507,392.020898811 -269.86822812,387.903861271 -272.434637299,384.675487611 -293.500378295,372.222594454 -295.845529273,371.364355139 -398.751177657,353.936382938 -400.989494589,352.659190553 -401.874999,350.239032496 -401.874999,315.557312342 -400.516788257,312.669087255 -397.426015452,311.873031951 -394.841571696,313.745792224 -382.223797246,336.61583642 -379.241919454,339.218881435 -375.284479003,339.297006934 -336.308026939,325.980257519 -335.963423273,325.880649919 -330.722945858,324.634073781 -326.895590191,321.52380547 -326.941654895,316.592244012 -330.220869714,309.943644885 -333.223887924,307.148881434 -334.216252588,307.125750164 -336.545608825,306.244146596 -336.746983165,306.074420163 -339.695238875,304.621278597 -340.50642553,304.443667331 -342.421676027,304.299336889 -342.748400811,304.320642724 -344.06789717,303.84898172 -349.044821558,303.641407975 -357.781947375,306.472317139 -360.283325896,306.405204851 -362.185612409,304.779565104 -362.925488442,303.497755335 -362.981387122,303.397392887 -401.428687322,231.809816608 -401.874999,230.035515769 -401.874999,206.135545763 -401.387231327,204.286129572 -391.131575156,186.195916426 -390.845169815,181.183021189 -393.266420237,179.09963858 -394.553401138,176.615055878 -393.762057472,173.931169471 -391.332979626,172.542266357 -380.859810537,171.09750868 -369.532256048,169.53821506 -357.540342424,167.886838131 -345.283858761,166.198522998 -334.691006873,164.737757643 -327.219611803,163.710548239 -323.407121803,161.46652919 -322.320882406,157.178081281 -325.622989151,134.920857398 -329.666970459,107.869743992 -329.701674558,107.65986174 -330.202252733,104.898625682 -330.221851667,104.779648117 -331.363952152,97.076064765 -333.327028149,93.5292356566 -337.775257117,91.912331043 -337.720995456,91.7630530417 -338.578530931,91.6930019336 -340.392404541,88.9855321376 -340.623846419,87.3522429523 -343.022306833,70.5058694589 -345.240667609,66.7352233508 -349.470371034,65.617857905 -359.820582673,66.9930946461 -371.854681477,68.5829521205 -383.522367801,70.1236738384 -394.883539739,71.6215902038 -397.634564654,71.9844930403 -400.597181356,71.0864203222 -401.874999,68.2667014711 -401.874999,49.3001929249 -401.143891256,47.0756054244 -399.235644575,45.7184382701 -276.205329381,7.56867975769 -272.71500294,4.5217932218 -272.698841337,3.67817280284 -271.575662186,1.07307527288 -268.949529287,0.0 -1.875,0.0 "/>
  <polygon class="71046789" points="1.0,801.024556334 2.21814854187,815.67855721 2.33155481154,817.053713568 23.459567578,817.047574476 24.2526953964,826.606143009 24.6544573636,831.419194957 66.9003943737,831.400777663 64.7332391895,805.358750092 64.3737448722,801.0 1.0,801.024556334 "/>
  <polygon class="60608755" points="67.9003943737,811.844498463 78.1788014339,813.765454716 80.1326091438,803.006875938 70.1609822844,801.0 67.9003943737,811.844498463 "/>
  <polygon class="246644874" points="81.1326091438,801.0 81.508174056,821.197463332 105.725940412,822.099629706 120.251210457,822.64583931 119.875548081,802.448373711 81.1326091438,801.0 "/>
  <polygon class="43545437" points="126.536370999,801.0 152.493323497,816.136469907 160.933685621,807.181029974 175.267263214,814.964098734 160.228389971,827.160446976 162.957545851,828.934350624 154.881986001,839.2708736 152.896518585,838.3194712 150.346672583,837.374206948 158.445878109,828.84841757 121.251210457,806.996888026 126.536370999,801.0 "/>
  <polygon class="395133118" points="216.003143654,806.298664168 211.332783357,807.667844253 195.388137984,809.09228288 176.36729631,808.748452852 176.267263214,802.841945584 194.691606922,803.038419795 203.440572083,802.639331557 212.204326137,801.0 216.003143654,806.298664168 "/>
  <polygon class="50064532" points="237.119889434,833.852569252 256.708813097,824.314321794 236.59202149,801.0 217.003143654,810.538230406 237.119889434,833.852569252 "/>
  <polygon class="42714232" points="257.708813097,803.240446863 285.462770395,803.970894006 311.13143786,805.542276236 334.267423558,807.616992128 338.04091853,808.126463832 350.430723475,809.802196207 351.092860672,807.187317211 334.510434105,805.192398144 310.956952389,802.970365577 285.317975153,801.705894175 257.88950617,801.0 257.708813097,803.240446863 "/>
  <polygon class="353604953" points="382.549399176,823.199773356 373.686133216,828.978475756 356.81858172,813.52152726 352.092860672,805.495220759 363.564887974,801.0 367.34568528,809.578995063 382.549399176,823.199773356 "/>
  <polygon class="392319332" points="413.94108471,813.58275701 389.542596804,826.282203947 383.549399176,821.129960683 401.386272123,801.0 413.94108471,813.58275701 "/>
  <polygon class="284527355" points="468.554142945,810.422668602 460.874283517,839.059029284 414.94108471,829.63020128 422.621581418,801.0 468.554142945,810.422668602 "/>
  <polygon class="29054724" points="490.97345954,801.0 505.09497181,826.383932982 483.542428577,833.287290349 469.554142945,807.995470428 490.97345954,801.0 "/>
  <polygon class="385207211" points="506.5600583,801.0 541.373796844,814.712096429 540.570537591,815.798507557 539.291380689,816.326368363 538.31386355,816.357057946 507.33640719,804.197851089 506.323623673,803.277164514 506.09497181,802.614270221 506.5600583,801.0 "/>
  <polygon class="27475120" points="542.373796844,813.032376591 542.75213037,804.476428238 542.904873965,801.0 746.92171621,816.299976437 746.383608883,828.301656579 542.373796844,813.032376591 "/>
  <polygon class="47450328" points="751.80995353,801.14115577 748.110685729,801.0 748.055193147,806.848759954 747.92171621,821.179153628 751.773959447,821.301897968 751.716509185,807.057425101 751.80995353,801.14115577 "/>
  <polygon class="272512103" points="757.164627236,808.194941437 752.80995353,814.40150249 766.17458255,821.086911341 770.252203976,813.44381335 770.644727022,811.632798824 762.524914895,801.0 757.164627236,808.194941437 "/>
  <polygon class="48269325" points="43.7593533858,857.587118826 3.0346412329,859.656371083 0.0,841.34012294 32.4404002278,839.69454777 40.7246167921,839.2708736 43.7593533858,857.587118826 "/>
  <polygon class="391701782" points="45.7593533858,875.345288086 78.6156398267,848.554855966 89.305613743,839.2708736 92.3702708193,841.467611718 87.3713264277,846.210849211 90.0935017137,848.113053614 85.299318941,852.230406684 91.0512037203,856.255718858 95.8400613891,852.132228354 100.656366962,847.99033074 111.401994551,855.678921 108.515225351,858.035201775 106.940395889,859.317656858 94.937034969,868.828691358 84.146288533,860.882374953 80.0953101982,864.171351651 63.749877117,876.952961232 56.9834879211,871.669730769 49.0463685195,878.020652669 45.7593533858,875.345288086 "/>
  <polygon class="97282440" points="116.523509461,839.2708736 113.261018875,847.27783894 112.401994551,849.057165247 128.323159973,853.855211898 133.010112126,841.467419917 116.523509461,839.2708736 "/>
  <polygon class="131293430" points="134.010112126,842.590293005 134.711375745,839.2708736 140.039803241,840.185094386 139.338045184,843.498378315 134.010112126,842.590293005 "/>
  <polygon class="53574697" points="156.341261551,859.34526132 158.33045601,853.228986957 153.639675933,851.982397253 156.414666347,844.588833193 152.060114582,842.181627196 146.708213375,839.2708736 141.039803241,855.402843178 156.341261551,859.34526132 "/>
  <polygon class="256251158" points="162.410989445,839.2708736 160.218835167,843.351941209 159.33045601,845.008916397 169.293706721,848.580619192 170.207048215,846.874547974 172.374235458,842.842574806 162.410989445,839.2708736 "/>
  <polygon class="385207006" points="177.018979867,887.84052084 173.374235458,886.385822574 201.977542174,839.2708736 204.703468209,840.357289848 212.546607717,843.481504314 190.933082746,879.08778185 187.99243712,877.915430865 183.535316529,885.256436692 186.341039092,886.37354664 183.808920573,890.547364883 177.018979867,887.84052084 "/>
  <polygon class="126109141" points="273.446995953,841.738727231 272.850378083,839.2708736 213.546607717,844.243414978 214.141371729,846.74810321 273.446995953,841.738727231 "/>
  <polygon class="87804992" points="302.129367196,840.670028392 306.805134639,840.068637279 317.806530092,839.2708736 323.897192325,869.469331603 313.02897073,871.070999406 309.062642988,871.672391966 277.610918979,876.471260134 274.446995953,866.27213325 278.03893428,865.873250592 280.404010416,872.672667409 308.801050051,868.469056408 302.129367196,840.670028392 "/>
  <polygon class="85260490" points="324.897192325,839.2708736 336.94947584,899.903486004 376.684434778,898.301912468 382.660544335,889.109743308 381.556091966,881.91187444 362.858380825,862.742122244 353.867783814,853.525433362 347.672541784,848.812774751 342.825376481,845.124875141 331.158117973,841.007437721 324.897192325,839.2708736 "/>
  <polygon class="85683161" points="401.822431838,839.2708736 404.730149804,839.418153674 409.612281019,839.749533848 406.890686084,852.354260101 402.625923689,855.643518833 383.660544335,857.509068935 383.905298511,853.569321998 384.04651375,850.850774579 398.328108894,849.789129806 400.480697177,846.045758761 401.387369601,842.768775819 401.822431838,839.2708736 "/>
  <polygon class="126512823" points="434.78480508,839.2708736 410.612281019,843.096945123 410.969723077,852.671340905 435.779456256,856.343882014 434.78480508,839.2708736 "/>
  <polygon class="86434403" points="436.779456256,841.473645294 437.218657521,847.744490458 470.24119114,847.965381342 469.642691765,839.387454822 453.174368999,839.2708736 453.338961913,841.584090682 436.779456256,841.473645294 "/>
  <polygon class="30767751" points="471.893976457,861.872788836 471.24119114,842.587456535 472.267057553,839.2708736 478.086345857,840.228997472 478.06881792,854.533303914 478.123659265,861.516562694 471.893976457,861.872788836 "/>
  <polygon class="270587183" points="479.123659265,839.651629539 505.10387234,839.2708736 507.665674197,863.405909221 481.685381801,863.786665866 479.123659265,839.651629539 "/>
  <polygon class="273155564" points="508.665674197,839.2708736 509.234088991,843.519646192 509.553800531,845.901906578 529.681857796,847.443008246 523.797908596,840.204129889 508.665674197,839.2708736 "/>
  <polygon class="176444589" points="562.86202808,839.2708736 556.796858747,862.722592627 532.796468586,857.921739885 530.681857796,866.191240534 578.978638375,874.878212376 588.440599655,845.164495333 562.86202808,839.2708736 "/>
  <polygon class="35645418" points="610.439377047,839.2708736 635.664259744,841.363601384 625.170520073,858.83574367 623.352266139,869.471239127 608.465286497,875.718752953 595.613028299,873.767171689 589.657359951,872.938670297 589.440599655,864.174969953 592.033903807,858.584125015 599.318137161,848.869193854 610.439377047,839.2708736 "/>
  <polygon class="25267152" points="636.664259744,857.658773059 644.696845914,847.842073379 652.036240882,839.2708736 671.713542016,849.400473952 669.228093239,852.603171788 655.323697398,845.424712232 654.34561251,846.725424264 674.69602631,857.352001081 675.883544767,858.11893104 670.310985407,865.125605273 648.096947508,852.965162589 646.945732263,853.92229086 683.565466644,874.948453601 680.318300408,879.267809644 678.395426475,881.629958095 636.664259744,857.658773059 "/>
  <polygon class="156800028" points="692.705328635,839.2708736 689.093808176,845.102114255 684.565466644,852.412652306 693.499881312,856.03416303 703.217984304,859.968720747 711.353000532,846.826934363 692.705328635,839.2708736 "/>
  <polygon class="363532769" points="721.466686538,839.2708736 714.791023171,841.038974965 714.734066165,841.051253448 714.314990127,841.659038349 715.619890557,842.383468873 714.386691018,843.789355347 713.307582302,843.347329889 712.353000532,844.734798738 712.70088917,844.796191168 713.172510547,844.894419057 713.730225922,845.041760893 714.167202029,845.18910273 714.595516828,845.348723054 715.030656854,845.532900355 715.52057845,845.796887825 715.869285133,845.987204375 716.23064444,846.214356391 716.710228218,846.588850263 717.183146355,847.000179611 717.457892506,847.35011653 717.790573264,847.878091546 718.007025206,848.28328169 718.143549883,848.596383175 718.290891078,848.983155605 719.343857181,849.400624274 723.675452053,843.807773075 721.466686538,839.2708736 "/>
  <polygon class="271412610" points="3.07519041225,947.084044799 0.0,941.626903975 2.20722969566,933.112786723 40.7809951865,922.333566281 30.0421573095,902.414130715 38.2907371331,899.903486004 55.6755820189,932.007854829 61.5444640338,943.31499566 106.296470303,930.626690095 109.774960144,936.642430902 70.3022157582,947.998683924 67.1317272402,951.430115853 67.292785014,954.388882574 34.876760943,952.492079764 28.0424172651,940.012474679 3.07519041225,947.084044799 "/>
  <polygon class="389391664" points="143.185333883,903.752619519 111.774960144,963.920802561 122.579763503,967.714704091 157.187664398,902.426602103 149.727444824,899.903486004 147.013989258,905.097053982 143.185333883,903.752619519 "/>
  <polygon class="53506555" points="158.187664398,901.603746142 160.390468061,899.903486004 179.563139287,914.27283955 177.564619952,915.991515967 158.187664398,901.603746142 "/>
  <polygon class="32388556" points="189.842922375,899.903486004 195.55947555,901.941747773 186.284530362,919.402051471 180.563139287,917.363786959 189.842922375,899.903486004 "/>
  <polygon class="86925147" points="196.55947555,924.213313978 198.639995897,905.399136495 203.918404753,906.086860519 205.955663213,899.903486004 226.47441841,902.764908205 223.300167696,928.431770695 196.55947555,924.213313978 "/>
  <polygon class="395577878" points="227.47441841,899.903486004 239.660720906,900.308821783 239.770816768,904.718384552 231.983765652,904.45430206 231.958559012,903.305850355 227.558805017,903.158455491 227.47441841,899.903486004 "/>
  <polygon class="188137356" points="240.770816768,900.879278951 242.33273538,902.278529342 245.872103672,902.769494428 252.461148553,902.95360634 258.202988198,902.395133549 262.895077235,901.511396433 264.424609316,899.903486004 262.173843155,900.063049625 258.457098996,901.069527899 254.623669259,901.769153086 249.319050816,901.769153086 242.68055546,900.977471955 240.770816768,900.879278951 "/>
  <polygon class="256251156" points="265.424609316,917.203454104 275.26684146,921.008345555 285.490957487,903.475169607 275.580843605,899.903486004 265.424609316,917.203454104 "/>
  <polygon class="442908145" points="292.838659372,899.903486004 286.784042263,904.030160413 286.490957487,941.188711688 293.517255357,946.869048244 292.838659372,899.903486004 "/>
  <polygon class="79990125" points="298.820619544,899.903486004 324.813562265,907.786219302 332.667429187,912.5134059 336.516737162,918.124640021 336.601296589,921.973923475 327.053533011,918.873623315 294.517255357,908.314190707 298.820619544,899.903486004 "/>
  <polygon class="26589949" points="351.072318718,943.531879862 347.229710888,935.670288921 339.67483406,936.848606696 338.040387332,925.80188178 338.228962729,914.736755139 337.601296589,901.106348732 342.860365936,900.842455369 347.726807689,899.903486004 359.050944342,918.774942242 364.737425808,929.790975797 358.000154723,934.08692458 356.89571316,937.787578749 358.940624746,941.635523763 351.072318718,943.531879862 "/>
  <polygon class="204340558" points="394.432381415,905.957034859 386.81153147,916.388055182 395.522753148,923.055562855 431.318935964,931.957857447 430.110151816,935.672264928 428.204396391,941.382017345 426.567833685,946.483959534 425.10659136,945.919123477 426.130996035,943.911499863 415.149582613,940.38127561 413.910754616,942.898478894 407.823860588,940.989088066 408.843761443,938.926209546 387.759418805,931.325487354 387.878066617,930.766791472 383.137716908,927.838243121 378.731927398,922.85295898 366.949265629,917.315120961 366.887553017,908.504928984 365.737425808,903.286351192 372.508337626,899.903486004 394.432381415,905.957034859 "/>
  <polygon class="388826375" points="452.418743408,922.210299404 432.318935964,917.152284409 437.759847954,899.903486004 481.019761129,911.320837535 519.603065251,926.998228042 540.687318901,935.567397052 538.743935659,942.755436466 484.88338044,930.061275625 452.418743408,922.210299404 "/>
  <polygon class="229236038" points="546.830638114,899.903486004 548.442511895,909.165606124 543.2991866,909.454279734 541.687318901,900.19215941 546.830638114,899.903486004 "/>
  <polygon class="370330910" points="549.442511895,900.499267544 551.532379629,909.95807088 557.460898942,909.460562222 556.391041003,904.6328866 557.552677954,904.534613323 556.527827059,899.903486004 549.442511895,900.499267544 "/>
  <polygon class="126684610" points="588.028079373,899.903486004 596.059313072,906.977364239 606.755021109,915.844279546 596.541910411,923.133084953 594.41623808,921.370753365 586.844921926,926.768278394 601.719302893,939.098469119 608.268459252,944.833731139 597.279561723,952.441861 558.552677954,921.118991728 588.028079373,899.903486004 "/>
  <polygon class="199202470" points="609.268459252,901.929179407 610.198806767,904.347734976 621.168989504,902.322041195 620.238638601,899.903486004 609.268459252,901.929179407 "/>
  <polygon class="387257467" points="634.06794805,903.164881682 626.70765655,917.137913826 622.168989504,915.52871112 630.395378177,899.903486004 630.56202532,900.050893701 634.06794805,903.164881682 "/>
  <polygon class="428036218" points="640.70310314,903.206831272 638.843317797,901.960401639 635.06794805,900.97799413 635.550507989,899.903486004 642.538398567,901.837600696 640.70310314,903.206831272 "/>
  <polygon class="52868891" points="643.538398567,908.307924168 653.55623185,899.903486004 680.381141129,919.315352154 675.867887978,923.34875114 656.691262798,918.234868012 643.538398567,908.307924168 "/>
  <polygon class="177623124" points="692.52398504,955.932068108 681.381141129,954.563118817 683.606344924,936.662431994 694.576606424,938.221681509 700.658124085,899.903486004 720.042003679,902.880784861 709.101524213,958.025394433 692.52398504,955.932068108 "/>
  <polygon class="33285897" points="721.042003679,908.016925859 740.643284009,921.353173553 749.552295158,913.669332886 730.625945669,899.903486004 721.042003679,908.016925859 "/>
  <polygon class="46579398" points="752.725392892,937.283494556 760.931665611,937.418551443 762.125844241,936.497709066 763.025194127,934.22629815 765.158587895,930.463123645 769.026393717,926.76747862 770.992030986,925.011740655 773.912931971,923.655034209 777.328806176,922.678942329 780.534779949,922.261494252 785.470844189,921.917713493 784.423095831,900.535795976 750.552295158,899.903486004 752.725392892,937.283494556 "/>
  <polygon class="383077395" points="3.17562695229,967.714704091 0.0,1054.46932379 3.74775471948,1051.37510049 6.51770078237,967.892743549 3.17562695229,967.714704091 "/>
  <polygon class="34943295" points="8.51770078237,1001.54109243 37.5669317793,1030.06530017 42.8303355128,1030.80786322 128.061634056,979.061753715 117.514547582,967.714704091 49.987669526,1008.37143161 29.9625755052,990.095833178 8.51770078237,1001.54109243 "/>
  <polygon class="334355484" points="129.798102325,969.942908695 130.370761442,967.714704091 161.797335186,972.465752388 166.02763076,982.066067191 129.061634056,975.57173581 129.550554963,971.833506842 129.798102325,969.942908695 "/>
  <polygon class="211681400" points="168.421065331,967.714704091 189.679218608,975.692847802 188.285788142,978.147662243 167.02763076,970.169517015 168.421065331,967.714704091 "/>
  <polygon class="357670053" points="205.086250982,967.714704091 219.09330756,974.856002036 218.254971355,975.789344792 215.0707683,974.033186767 213.774884587,973.898097699 212.767007848,974.162135426 212.003658241,974.825299972 201.57344862,988.039474672 201.247352362,988.733342022 201.450153886,989.697387873 204.482691429,991.128105731 203.558225796,992.31320691 190.679218608,985.865766572 205.086250982,967.714704091 "/>
  <polygon class="141105458" points="255.231375535,967.714704091 233.613081862,970.679589969 220.09330756,972.02391733 222.021851807,980.617794171 236.347505869,979.150696221 258.446390591,975.983238451 256.790339915,971.729270226 255.231375535,967.714704091 "/>
  <polygon class="52929578" points="259.446390591,998.240850627 276.804296195,967.714704091 298.276403603,975.446022704 294.600599393,978.854190828 269.332956617,1001.76570097 259.446390591,998.240850627 "/>
  <polygon class="238534546" points="321.269463653,967.714704091 299.276403603,994.647057475 336.339495077,1014.37989077 321.269463653,967.714704091 "/>
  <polygon class="185766642" points="337.339495077,990.809015815 339.99140036,993.055235956 377.178456725,969.715432093 374.990880635,967.714704091 337.339495077,990.809015815 "/>
  <polygon class="111490468" points="378.178456725,967.714704091 378.521879135,975.002692631 384.521438455,975.12548944 384.43056446,973.166880474 387.895049757,973.240558549 387.641996698,967.905039039 378.178456725,967.714704091 "/>
  <polygon class="114185461" points="391.375834442,967.714704091 397.984334567,970.1824789 395.49872325,974.596236511 388.895049757,972.12846086 391.375834442,967.714704091 "/>
  <polygon class="380426896" points="399.392750951,967.714704091 398.984334567,968.985525501 416.951963398,973.215458535 417.360377421,971.944636709 399.392750951,967.714704091 "/>
  <polygon class="175860969" points="436.084964664,967.714704091 418.360377421,980.465344827 424.507868358,984.83629437 428.461789412,986.512234684 437.849583144,987.383969292 444.321745248,986.813044507 445.673631511,985.585249355 445.592990249,983.620777354 444.773386428,979.090214937 442.508299156,973.958035035 439.47974225,970.336043266 436.084964664,967.714704091 "/>
  <polygon class="328790106" points="512.288082827,971.593555011 481.904259563,968.819439993 469.764656078,967.714704091 469.728470933,974.201960162 455.464732204,970.218772274 446.673631511,995.161281858 506.777526871,1001.73447585 509.613295061,1001.93701129 512.288082827,971.593555011 "/>
  <polygon class="392850782" points="513.288082827,967.714704091 514.556351498,984.225792369 522.774804677,984.299475221 522.729076135,983.501244359 526.035207034,983.464402936 524.937744688,969.286603001 521.302930071,969.083975396 521.1770209,967.776106388 513.288082827,967.714704091 "/>
  <polygon class="173816793" points="527.035207034,974.144588588 564.371391881,1007.23981317 574.965349891,1000.52127311 536.874957767,967.714704091 527.035207034,974.144588588 "/>
  <polygon class="40806635" points="584.907184693,967.714704091 575.965349891,979.82197928 617.405970301,1000.29330269 627.770210941,984.099108612 584.907184693,967.714704091 "/>
  <polygon class="327562115" points="634.289339968,973.141881858 628.770210941,992.965834428 643.157954199,996.643306819 649.691965164,998.000104075 654.226712064,979.729398195 653.450509282,977.611324077 655.479251557,973.522521108 652.166847126,972.405160761 646.028850335,970.33620257 643.813309388,969.58106361 638.353483733,967.714704091 636.880029536,972.632316428 634.448171744,972.245537862 634.289339968,973.141881858 "/>
  <polygon class="49966754" points="682.747620067,1016.00594917 678.239208521,1015.04798275 673.813093346,1014.1514245 668.641441626,1013.05836041 671.548922266,1010.36868625 658.495081038,1005.92274204 657.421519993,1005.5542937 656.479251557,1005.13671892 661.97749921,994.789465785 656.587586958,992.615622552 670.556667095,967.714704091 674.122875256,968.850749887 677.607446807,969.992936573 680.327158734,970.938618098 680.660788946,970.287694444 694.444453346,975.034525237 695.56783233,972.805418193 703.25101317,975.433676677 682.747620067,1016.00594917 "/>
  <polygon class="30382747" points="716.590599042,985.073278144 704.25101317,986.429801354 705.590551661,992.99758543 720.220216035,991.54285166 720.261415991,989.412925296 724.102895121,988.866633 725.076386538,990.830830128 732.360870924,989.940803268 743.971288736,987.589905027 752.559588998,984.950515868 762.289484208,981.28606251 779.554686254,974.392964618 777.191557823,971.563296823 774.51727417,967.714704091 738.142737595,981.795525813 733.93303443,982.501408735 716.590599042,985.073278144 "/>
  <polygon class="223063301" points="0.0,1054.46932379 0.708619112335,1063.15970288 12.6886967664,1063.15970288 12.378201011,1059.35190356 11.9800645568,1054.46932379 0.0,1054.46932379 "/>
  <polygon class="284806014" points="20.3904506151,1054.46932379 22.2947031227,1054.84991422 47.5031607686,1059.90808494 45.7198521926,1077.89407205 42.2982747878,1077.67922223 18.0098914753,1077.20041406 14.6886967664,1076.25507492 17.6235889712,1068.28721917 23.6030514657,1069.50265448 26.1563242706,1069.66839566 26.3781395294,1065.53714375 19.1459648645,1059.09165676 20.3904506151,1054.46932379 "/>
  <polygon class="291847412" points="71.7015391643,1054.46932379 80.8079930264,1059.64304529 71.6072056741,1069.68363054 77.8385587156,1073.22484126 72.0459558174,1079.54624236 62.5743973988,1074.15770802 54.3752458182,1083.10586764 48.5031607686,1079.76718459 71.7015391643,1054.46932379 "/>
  <polygon class="206344260" points="93.7763874194,1057.45997145 93.2043098851,1054.46932379 81.8079930264,1055.3229172 82.3147528611,1058.28286025 93.7763874194,1057.45997145 "/>
  <polygon class="10632497" points="94.7763874194,1055.90534718 121.553048293,1054.46932379 124.084321072,1068.64545913 97.2889591298,1070.14898955 94.7763874194,1055.90534718 "/>
  <polygon class="442950295" points="125.084321072,1064.60278223 132.42120662,1054.46932379 198.875388404,1093.23445104 208.480647042,1103.30038301 183.956018872,1114.77272985 147.453426511,1083.27293236 125.084321072,1064.60278223 "/>
  <polygon class="185230168" points="213.535086957,1054.4877441 209.480647042,1054.46932379 211.133419629,1077.5315679 215.193202486,1077.55612835 213.535086957,1054.4877441 "/>
  <polygon class="383804595" points="217.042043108,1120.79600874 218.502670882,1119.80752191 218.152756546,1110.43225 217.622811221,1095.3839397 217.977755459,1087.85058162 218.602975757,1079.83833515 220.172507801,1068.87906351 221.225210537,1064.82689819 222.096480706,1062.22982926 223.326596442,1058.04259393 224.432348598,1055.53762094 223.491573066,1055.19380116 223.45376916,1054.54913909 223.104358935,1054.46932379 222.390529888,1056.26823801 220.402258592,1061.70795968 219.054882241,1066.53371918 218.224156229,1070.10699264 216.879627578,1079.85061445 216.440787362,1087.83830231 216.193202486,1095.62338637 216.413369484,1110.60416063 217.042043108,1120.79600874 "/>
  <polygon class="123802223" points="234.167726383,1055.37171483 235.246139158,1062.18569003 225.432348598,1062.58470671 227.468083812,1078.11567308 236.592916045,1077.55704906 234.942177179,1066.59942904 242.266892424,1066.29249304 243.917641551,1077.2501128 255.176557854,1076.56871433 254.268197166,1074.29738634 251.214908929,1056.69767729 250.937786518,1054.46932379 234.167726383,1055.37171483 "/>
  <polygon class="255397569" points="265.012020531,1085.18549427 256.176557854,1083.71200053 259.935447476,1067.06767234 260.493917632,1064.59957386 263.440040732,1065.47138969 267.798349529,1055.76476745 271.07853513,1056.93742035 271.690129201,1054.46932379 308.298937168,1060.96496201 306.84313462,1067.75530186 309.290455578,1068.20348897 306.987316952,1078.81263501 300.205127576,1077.57858459 299.904554687,1078.90472833 278.090950889,1075.15960053 278.54344606,1072.98619899 267.926204405,1071.16889177 265.012020531,1085.18549427 "/>
  <polygon class="219903161" points="326.983296109,1054.46932379 310.290455578,1072.37096348 335.998385181,1087.5459233 338.658668757,1089.40671481 352.503763563,1073.55007749 326.983296109,1054.46932379 "/>
  <polygon class="380426779" points="353.926665639,1054.46932379 353.503763563,1055.74014572 384.256183579,1062.88621919 384.608967084,1061.58470036 353.926665639,1054.46932379 "/>
  <polygon class="142032240" points="406.71956729,1061.62679893 402.594171104,1061.19710477 403.067201414,1056.12057628 387.358281876,1054.46932379 385.608967084,1073.11805375 407.918804391,1079.49595012 415.035382004,1081.52779265 414.683384755,1082.58361427 437.761547246,1087.45144413 442.325543272,1071.8903551 429.178284235,1070.50305577 428.936819146,1073.06894581 405.872129429,1070.6381026 406.71956729,1061.62679893 "/>
  <polygon class="48992257" points="444.293195104,1079.17186804 443.325543272,1054.46932379 485.67129445,1055.50703847 487.005399675,1080.25870738 448.776178645,1079.2885344 444.293195104,1079.17186804 "/>
  <polygon class="52115131" points="503.394802432,1054.46932379 488.005399675,1068.03714571 504.969266594,1079.73779115 520.359181823,1066.17609913 518.523914109,1064.91083329 503.394802432,1054.46932379 "/>
  <polygon class="391484514" points="521.406339461,1054.46932379 539.316981531,1055.40262482 539.291005573,1059.37529512 539.270336995,1062.51904743 521.359181823,1061.57960574 521.406339461,1054.46932379 "/>
  <polygon class="237526794" points="540.316981531,1057.94409221 557.272194502,1073.17537607 563.606516867,1069.54712424 546.663840922,1054.46932379 540.316981531,1057.94409221 "/>
  <polygon class="42691643" points="661.1777059,1075.26710077 685.956340376,1081.52240091 705.897160522,1089.4903931 696.518030665,1119.22000972 650.711172515,1108.80880439 596.406221056,1096.46392496 583.520907347,1079.56416629 564.606516867,1075.27323943 566.634670609,1067.74723953 575.080734486,1069.69319504 580.63913921,1054.46932379 661.1777059,1075.26710077 "/>
  <polygon class="328585505" points="717.610589137,1055.10789951 717.586063917,1054.56756621 707.462520814,1054.46932379 707.916447672,1061.43225695 706.897160522,1061.43225695 707.029267359,1063.47692851 711.075591391,1063.51376944 711.098663612,1063.85761814 714.047910181,1063.88831892 714.215699599,1066.49174511 716.18813954,1066.51016559 715.994785688,1063.53218991 717.362883369,1063.54447022 717.62883007,1070.8696776 718.857833791,1070.89423824 719.993558442,1070.9003784 719.519389213,1063.56903084 719.232552321,1059.32004403 718.949700928,1055.12017982 717.610589137,1055.10789951 "/>
  <polygon class="317716316" points="760.301357584,1148.94500838 765.511285613,1147.68033485 724.447681669,1054.46932379 720.993558442,1055.2305781 760.301357584,1148.94500838 "/>
  <polygon class="309059749" points="68.5153781005,1164.97265328 69.6750764406,1158.40444711 7.97256834288,1148.94500838 7.19703521747,1153.33403977 0.384213167243,1152.29049371 0.0,1154.46966351 68.5153781005,1164.97265328 "/>
  <polygon class="282842869" points="75.182412372,1189.41505063 71.6750764406,1148.99412988 101.621906249,1148.94500838 102.822944404,1162.78499954 105.12736636,1189.34136815 102.52889621,1189.34750835 75.182412372,1189.41505063 "/>
  <polygon class="37898083" points="106.12736636,1157.38447668 135.084560948,1148.94500838 151.539368644,1178.79642729 121.563290772,1186.00131702 106.12736636,1157.38447668 "/>
  <polygon class="415472355" points="160.412644419,1148.94500838 152.539368644,1149.15372155 156.170722291,1216.74627171 164.346057633,1216.80765826 160.412644419,1148.94500838 "/>
  <polygon class="179253450" points="176.15324424,1148.94500838 165.346057633,1152.88574423 177.5377476,1170.97508758 178.83417384,1172.89635288 222.226423176,1157.06587188 221.176846886,1155.50676391 218.444959856,1151.67651519 210.224685085,1154.95432412 186.053259087,1163.62763153 176.15324424,1148.94500838 "/>
  <polygon class="163836904" points="223.232145475,1148.94500838 253.564917861,1150.57187474 253.371089842,1156.58207337 224.473138373,1154.96134537 224.492988841,1153.15644398 223.226423176,1153.08277454 223.232145475,1148.94500838 "/>
  <polygon class="28119134" points="254.564917861,1152.55653062 259.73877287,1163.46480795 271.680150613,1161.24752787 273.860159375,1158.93197539 262.69554439,1148.94500838 254.564917861,1152.55653062 "/>
  <polygon class="379375088" points="279.329370487,1148.94500838 296.792983357,1153.51264857 305.245929735,1155.72279762 304.796214915,1156.96293698 304.64832943,1156.92610115 303.842340807,1159.13011149 306.339572853,1159.78701715 307.121077035,1157.63826044 306.923397025,1157.5830067 307.397595475,1156.28761355 308.927243584,1156.6866683 308.986206263,1156.52090709 309.780257925,1156.72350412 312.055162166,1157.31901662 311.604449535,1158.54687752 326.437967477,1162.42691873 326.883848645,1161.19905746 337.671172433,1164.02313855 336.502086237,1167.34450427 334.553425183,1166.84108094 333.621145519,1166.60164791 329.287329668,1165.45359725 329.085958649,1166.00613498 320.832010425,1163.80826279 318.970448662,1163.36623267 319.086991221,1164.1459247 313.465914089,1179.05831105 312.987450109,1178.93552476 308.610663666,1177.79361232 301.800925418,1176.01321141 306.249820661,1163.07768525 305.390985708,1162.85053089 301.74914097,1172.34804203 300.593698762,1172.09633027 286.371201951,1168.42502269 285.22224657,1171.69727505 281.710630238,1170.80093567 284.270531731,1163.79598418 274.860159375,1161.33412219 275.030531705,1161.29114705 275.148113736,1161.19291815 275.211071663,1161.07627134 275.600538678,1159.15466871 275.843355718,1159.11169357 275.998576283,1159.00118608 276.171109234,1159.04416122 277.048224738,1156.70508621 279.291687585,1156.55774292 279.315672355,1156.49634988 278.603743312,1155.93767324 277.560238897,1155.28076778 278.984344926,1151.41300731 278.805983833,1151.3577536 278.735881055,1151.14901735 278.476586945,1150.98939552 278.870673636,1149.89659995 278.974592762,1149.92729646 279.329370487,1148.94500838 "/>
  <polygon class="247228016" points="338.671172433,1160.85755937 339.504111634,1162.43485314 347.196199934,1164.12875639 346.525459215,1158.3105679 344.823056378,1148.94500838 344.459957778,1149.64466331 338.671172433,1160.85755937 "/>
  <polygon class="42121597" points="452.925191765,1162.55379506 361.628611937,1210.35346731 348.196199934,1196.32721925 439.464513005,1148.94500838 452.925191765,1162.55379506 "/>
  <polygon class="387212522" points="458.885794557,1153.18842442 455.494195454,1153.78409943 453.925191765,1149.5406832 457.316789031,1148.94500838 458.885794557,1153.18842442 "/>
  <polygon class="397269763" points="459.885794557,1154.8699893 463.205004141,1156.95754798 466.281116522,1153.74025179 467.153461371,1152.82541008 467.977166362,1151.96582733 468.907811098,1150.99572686 465.00229124,1148.94500838 464.498571229,1149.52215666 462.294642154,1151.7632114 462.659909047,1151.97810708 459.885794557,1154.8699893 "/>
  <polygon class="165572650" points="505.965098861,1165.15173431 496.226478074,1163.75820063 495.526038948,1166.23218342 475.629805737,1162.75141869 469.907811098,1161.87355402 470.314104224,1158.93301473 471.838276024,1148.94500838 507.781002802,1154.89361111 507.437144548,1156.827368 505.965098861,1165.15173431 "/>
  <polygon class="107615274" points="543.266130279,1153.16830101 542.344559342,1152.757021 517.178117403,1148.98183941 516.943379104,1148.94500838 513.940293453,1158.907807 508.781002802,1175.37744101 524.843255163,1175.52476545 524.912628649,1170.14742451 524.220987758,1170.31316444 523.524951149,1168.86447478 524.259061486,1168.68645784 521.534769495,1162.61546784 529.968393608,1160.73094473 529.208259281,1159.08582381 532.837929873,1158.28781746 533.614033077,1159.95135382 545.833318334,1157.28724035 543.883204934,1155.79558258 543.192689182,1155.2553938 543.266130279,1153.16830101 "/>
  <polygon class="183258392" points="589.110414719,1162.29223733 591.017964542,1167.56605421 560.159215419,1177.70234855 546.833318334,1156.2387086 572.473221585,1148.94500838 573.676463779,1151.06312797 578.190696711,1155.55722634 583.508868382,1159.72593373 589.110414719,1162.29223733 "/>
  <polygon class="182868087" points="592.017964542,1149.38697491 616.240506881,1148.94500838 617.386671085,1159.89596124 612.648715353,1160.00031453 602.459179962,1160.22129798 593.243508893,1160.42386615 593.192302413,1159.49696335 592.017964542,1149.38697491 "/>
  <polygon class="222527150" points="618.386671085,1150.09284518 622.303449219,1166.88687555 634.732479218,1165.59785929 630.51816637,1148.94500838 618.386671085,1150.09284518 "/>
  <polygon class="315766204" points="641.581682341,1154.05945453 639.188841336,1152.30347399 638.942397963,1152.48152795 635.732479218,1155.07866012 636.820515992,1155.87069344 638.316016962,1154.77167048 644.646961158,1159.6528067 645.668300762,1159.08180576 648.974664261,1161.56228313 656.540495982,1155.36723039 648.012794193,1148.94500838 641.581682341,1154.05945453 "/>
  <polygon class="373584262" points="665.368049842,1159.38430729 670.46744075,1150.90391148 666.338166538,1149.27046875 665.436432927,1150.7688147 664.143379958,1150.25913143 660.827763358,1148.94500838 657.540495982,1154.41642812 658.776969977,1156.77448178 665.368049842,1159.38430729 "/>
  <polygon class="109010211" points="732.540551504,1158.32498178 732.099799112,1154.04628888 723.156882852,1154.16906341 722.640033527,1149.18441861 710.942781557,1149.34402543 711.451229256,1154.22431194 700.511614098,1154.3777801 699.949076012,1148.94500838 678.61453806,1149.23966713 679.151001155,1154.40847373 671.46744075,1154.51897081 671.947442878,1159.16598758 732.540551504,1158.32498178 "/>
  <polygon class="363451954" points="779.547698714,1156.87264409 785.280868172,1165.88104778 760.246415819,1172.2980808 753.192892872,1171.36469398 745.689317195,1158.40167741 735.9544607,1161.3983376 733.540551504,1156.55332792 749.968649349,1148.94500838 754.876911822,1154.27513008 760.926854898,1163.37564245 779.547698714,1156.87264409 "/>
  <polygon class="112393593" points="0.0,1230.57118625 5.8586083808,1244.27947822 9.01962047336,1251.670789 20.7563906059,1250.19743768 24.2782121488,1279.58468925 126.260025512,1242.00192401 130.353981387,1240.49174003 116.817710876,1216.80765826 0.0,1230.57118625 "/>
  <polygon class="23033713" points="222.590379698,1273.14932571 220.40348849,1277.01272815 218.2813354,1281.18938072 132.353981387,1220.726323 134.057793263,1216.80765826 149.938429531,1222.65494526 222.590379698,1273.14932571 "/>
  <polygon class="211216615" points="223.590379698,1219.73626391 251.695213001,1216.80765826 252.37898706,1219.51523704 224.274143965,1222.4438433 223.590379698,1219.73626391 "/>
  <polygon class="48409953" points="253.37898706,1225.87949806 255.528110069,1216.80765826 308.632185737,1226.14956646 306.835041837,1235.2152749 253.37898706,1225.87949806 "/>
  <polygon class="341796257" points="313.887884803,1228.57086635 309.632185737,1216.80765826 316.274385274,1217.05937607 320.323209141,1229.8417355 319.063773935,1230.09345356 317.710738107,1230.38200842 317.212823418,1228.59542421 313.887884803,1228.57086635 "/>
  <polygon class="28100849" points="349.441464392,1221.10701866 337.420045715,1216.80765826 333.052227464,1225.0255798 328.617126302,1223.44095775 324.194952384,1231.76329661 326.160943595,1232.46347887 321.323209141,1241.55970967 333.304487733,1245.84065236 327.528465483,1256.71191916 336.254545642,1259.83203582 355.658743188,1223.33040274 349.441464392,1221.10701866 "/>
  <polygon class="326746315" points="356.658743188,1231.43929214 359.176024535,1216.80765826 364.187152831,1217.45822552 374.604730911,1225.84809116 379.049531896,1228.18031521 379.092362996,1228.4074002 382.675926288,1229.01500602 385.625317421,1229.13161724 387.794263965,1236.2449037 381.816771407,1235.34883806 381.942264238,1234.29319917 377.037603703,1233.58739415 376.884491674,1234.48345966 356.658743188,1231.43929214 "/>
  <polygon class="68695339" points="388.794263965,1221.22231493 393.937048517,1225.37295318 396.028773592,1227.04303284 397.840740021,1228.47979273 404.387864795,1233.68651364 403.855122091,1234.3250739 407.363066974,1237.37665556 409.820451295,1239.44583709 412.775103487,1236.92229526 414.475912595,1235.08029424 412.337078022,1233.30583351 414.373501876,1232.02871313 412.2291168,1228.93415273 413.726362865,1227.62019278 411.549880655,1225.85801306 401.25882315,1217.48919765 399.53489415,1218.74789661 397.150763785,1216.80765826 388.794263965,1221.22231493 "/>
  <polygon class="298889688" points="450.293779177,1218.07267772 448.414714559,1225.07327309 447.881926626,1232.46074755 420.157069061,1242.07122559 415.475912595,1233.27748439 422.970219123,1231.06676826 423.48912649,1216.80765826 450.293779177,1218.07267772 "/>
  <polygon class="265649770" points="451.293779177,1266.70287984 451.338696052,1255.87075199 451.461442499,1227.08127114 451.503533695,1216.80765826 466.633878881,1217.3170427 467.278013536,1262.46208536 467.395286993,1267.69710392 459.691656327,1267.22454061 451.293779177,1266.70287984 "/>
  <polygon class="51963294" points="506.276961124,1216.80765826 468.395286993,1222.70203796 474.710596038,1241.37987131 512.550393418,1235.50390309 510.034217866,1228.01312196 506.276961124,1216.80765826 "/>
  <polygon class="127719225" points="513.731931709,1216.80765826 529.440177919,1222.72708372 527.843429651,1225.43503756 513.550393418,1220.16650205 513.731931709,1216.80765826 "/>
  <polygon class="10258776" points="605.476385121,1223.68147635 547.926839549,1315.91373948 530.440177919,1308.83120137 587.500279721,1216.80765826 605.476385121,1223.68147635 "/>
  <polygon class="382471988" points="637.213767128,1216.80765826 606.476385121,1258.56707751 607.249965773,1258.51796315 609.573034228,1259.82563311 639.893285091,1219.05463329 638.123929833,1218.02323487 637.489494173,1217.34791452 637.213767128,1216.80765826 "/>
  <polygon class="104829951" points="640.893285091,1219.24560225 642.334631063,1219.0859384 663.046288847,1216.80765826 664.802248038,1223.47669504 672.76155837,1222.60468451 674.057578081,1227.54198433 675.184116548,1231.8222072 651.790656229,1234.39525434 650.964426075,1231.25110134 644.245520372,1231.98801214 640.893285091,1219.24560225 "/>
  <polygon class="51361474" points="681.323323242,1216.80765826 676.184116548,1223.60839928 738.884807035,1253.78212733 741.353818275,1250.3326455 743.742562271,1246.84633739 681.323323242,1216.80765826 "/>
  <polygon class="320821780" points="774.233747687,1216.80765826 775.692142465,1223.39223485 764.973002944,1224.60227401 765.650878836,1225.80617094 747.737553762,1230.97801517 746.784466671,1228.76677511 745.391993592,1222.99298338 744.742562271,1219.70069477 774.233747687,1216.80765826 "/>
  <polygon class="143308730" points="7.24957348919,1333.60096319 3.44377531386,1330.5732527 0.0,1327.83418865 15.927285158,1315.91373948 17.7267134558,1317.34468412 19.1512854797,1316.27608167 22.9725932364,1319.31607162 21.4526073715,1320.45837106 23.0814496319,1321.75420549 7.24957348919,1333.60096319 "/>
  <polygon class="360739270" points="29.05779802,1315.91373948 25.0814496319,1316.65649204 27.6343836005,1323.12028265 31.6007363053,1322.43277581 29.05779802,1315.91373948 "/>
  <polygon class="127719303" points="33.5736305593,1319.82522675 49.9720321486,1315.91373948 49.7904938574,1319.27258326 48.8624571601,1326.88678446 48.651198341,1328.39120377 41.7656424705,1327.54381654 41.9914379495,1325.86132323 38.2828707102,1325.40692726 32.6007363053,1324.7437548 32.8672860076,1323.3253027 33.5736305593,1319.82522675 "/>
  <polygon class="34774728" points="50.9720321486,1343.70528905 57.7873268769,1333.21975816 66.4529645379,1336.46732507 67.6629893972,1315.91373948 88.0937399775,1317.29502781 86.1027626597,1356.86746631 81.3029127412,1355.1730808 50.9720321486,1343.70528905 "/>
  <polygon class="185776164" points="89.0937399775,1361.32253727 91.8988760541,1361.5066522 95.9480191558,1316.44767089 92.9837131173,1315.91373948 89.0937399775,1361.32253727 "/>
  <polygon class="165838920" points="116.63677222,1315.91373948 138.630013311,1322.95564953 133.407060304,1328.34605928 116.25528123,1346.04601958 96.9480191558,1338.48224587 107.949176615,1324.93254214 116.63677222,1315.91373948 "/>
  <polygon class="141546718" points="139.769088001,1332.48089151 142.607944663,1327.28178668 139.630013311,1326.24442127 145.27949857,1315.91373948 166.640863384,1323.3410262 161.264630107,1333.18065312 139.769088001,1332.48089151 "/>
  <polygon class="142988989" points="191.838897794,1380.77634108 239.321774274,1360.71045561 235.567813815,1355.68938543 236.912144285,1355.18605088 232.199845646,1348.96189104 253.198059525,1340.03691757 246.166794333,1330.97690953 234.509011262,1315.91373948 167.640863384,1344.37663912 177.232999846,1360.39126772 191.838897794,1380.77634108 "/>
  <polygon class="129490295" points="289.815994494,1315.91373948 294.284133881,1317.17799327 258.661409852,1405.47967595 254.198059525,1404.21541351 289.815994494,1315.91373948 "/>
  <polygon class="98042177" points="295.284133881,1321.27774147 298.647729523,1318.21522747 314.261076289,1315.91373948 320.94744149,1337.34521156 318.035104671,1338.46220221 295.284133881,1321.27774147 "/>
  <polygon class="179084756" points="337.509374516,1336.76466292 353.463389235,1327.29422464 333.35875243,1315.91373948 321.94744149,1322.90908239 337.509374516,1336.76466292 "/>
  <polygon class="31264997" points="373.315851927,1315.91373948 374.706361018,1318.58367721 383.256705828,1335.01454753 369.118485149,1338.06503266 354.463389235,1327.35457999 363.641425163,1321.78760322 373.315851927,1315.91373948 "/>
  <polygon class="357670052" points="388.766165763,1315.91373948 384.256705828,1321.3172938 411.483918169,1335.60602156 414.181387194,1332.37002555 417.832509034,1334.28583334 419.644001734,1332.11212837 415.796600491,1330.09807437 388.766165763,1315.91373948 "/>
  <polygon class="358711261" points="456.159996469,1360.90329053 457.380821327,1358.91466314 461.332426138,1352.47617716 463.361451729,1349.11269864 465.866610527,1345.08634593 466.666939152,1343.79128458 468.766844073,1340.29277826 471.004966272,1336.71448243 471.877194693,1335.29666737 476.624263759,1327.56313344 445.03783009,1315.91373948 440.933817802,1323.19307504 440.144412952,1324.44517028 435.905218188,1331.84112743 435.08227687,1333.27121756 431.040483561,1340.31119145 423.55425209,1345.74922098 420.644001734,1347.56598983 456.159996469,1360.90329053 "/>
  <polygon class="15378989" points="478.878901166,1315.91373948 489.864307329,1317.79790385 488.604850193,1323.79409 477.624263759,1321.90992476 478.878901166,1315.91373948 "/>
  <polygon class="122617575" points="490.864307329,1326.84319963 508.00613889,1341.96639477 510.897698975,1340.06908674 535.303372384,1361.87279539 541.937442175,1357.54397958 545.688133991,1355.09405467 530.513408829,1342.21814116 534.825602565,1339.17876429 508.621948615,1315.91373948 490.864307329,1326.84319963 "/>
  <polygon class="372798196" points="569.698917411,1331.00318521 549.325082569,1315.91373948 546.688133991,1318.05007979 567.066297752,1333.13338909 569.698917411,1331.00318521 "/>
  <polygon class="267160628" points="573.57504979,1326.45894834 570.698917411,1328.61341291 575.170370056,1332.30239723 579.352485469,1335.75813558 599.450010469,1322.43850972 595.458338035,1319.24671201 591.291032876,1315.91373948 573.57504979,1326.45894834 "/>
  <polygon class="449234873" points="611.695882155,1317.36842382 604.825843287,1315.91373948 600.450010469,1331.83548337 606.241206374,1333.55409992 611.695882155,1317.36842382 "/>
  <polygon class="382315566" points="612.695882155,1335.12917469 633.710229932,1315.91373948 655.624246989,1329.87576637 695.651211758,1357.76917962 671.704352362,1380.28034345 644.202271866,1357.24752008 612.695882155,1335.12917469 "/>
  <polygon class="186519594" points="700.108916207,1315.91373948 696.651211758,1318.94681457 702.098530228,1330.84580829 712.849840141,1329.11437509 707.228504081,1316.14705292 700.108916207,1315.91373948 "/>
  <polygon class="177914367" points="752.706748648,1327.28061824 743.868459202,1342.82949277 713.849840141,1331.46260044 722.688165499,1315.91373948 724.039984768,1316.42343723 752.706748648,1327.28061824 "/>
  <polygon class="402752227" points="759.052982641,1342.09844837 759.938876341,1332.64148833 764.422091264,1333.10819529 764.866446947,1328.36743592 760.402561263,1327.90072913 761.093869704,1320.50097243 765.1725429,1320.92469283 765.535235147,1317.01909667 754.955514796,1315.91373948 753.706748648,1329.21487723 755.704767409,1329.42366713 754.560099823,1341.63174109 759.052982641,1342.09844837 "/>
  <polygon class="14105435" points="0.0,1413.5011701 27.4485443706,1405.47967595 33.3979780922,1415.79653353 6.12599855158,1423.79348474 0.0,1413.5011701 "/>
  <polygon class="404737941" points="35.3979780922,1405.47967595 46.3152637138,1405.57789937 47.089011754,1417.07618459 36.1717103384,1416.97796107 35.3979780922,1405.47967595 "/>
  <polygon class="165951050" points="94.0188188962,1413.12057714 93.5295864039,1415.53252521 48.089011754,1407.89162258 48.5830836429,1405.47967595 94.0188188962,1413.12057714 "/>
  <polygon class="233634333" points="101.091225996,1405.47967595 95.0188188962,1409.64187265 98.3356087555,1411.55108131 99.4968554144,1414.835412 102.253921836,1416.51748074 107.30868878,1412.54558883 104.165695434,1410.40310051 105.412920407,1409.37175954 101.091225996,1405.47967595 "/>
  <polygon class="312107352" points="125.190694186,1405.47967595 136.353559548,1408.13860931 119.91315355,1451.22814325 108.30868878,1448.12706756 125.190694186,1405.47967595 "/>
  <polygon class="53502429" points="144.984276858,1417.28957504 137.353559548,1408.6899541 143.759205723,1405.47967595 151.389427228,1414.07315655 144.984276858,1417.28957504 "/>
  <polygon class="213965300" points="152.389427228,1405.47967595 155.459529271,1405.69456543 155.913279361,1431.34011606 152.919261609,1431.22960125 152.389427228,1405.47967595 "/>
  <polygon class="206198091" points="178.475406889,1405.47967595 156.913279361,1414.18771414 159.602925768,1417.51617598 162.037730264,1420.97974234 183.316021166,1412.16730138 180.884809341,1408.80813556 178.475406889,1405.47967595 "/>
  <polygon class="23536305" points="184.316021166,1458.78280374 245.441759047,1474.29914525 265.585142982,1445.46467655 276.854918018,1450.29088428 281.053313201,1444.69715005 288.30302306,1448.09882787 296.236603548,1451.59260982 313.258669625,1459.40910604 315.307807249,1457.47493726 201.371970859,1405.47967595 184.316021166,1458.78280374 "/>
  <polygon class="391484512" points="316.359357039,1405.47967595 347.8975821,1407.30943382 347.798648508,1416.75909355 316.307807249,1414.14339757 316.359357039,1405.47967595 "/>
  <polygon class="164116936" points="359.196539338,1405.47967595 359.561993611,1409.96807881 349.263030546,1409.96807881 348.8975821,1405.47967595 359.196539338,1405.47967595 "/>
  <polygon class="330713642" points="366.547314152,1405.47967595 373.761905543,1407.40685052 367.776596322,1423.29070802 360.561993611,1421.36353107 366.547314152,1405.47967595 "/>
  <polygon class="162867543" points="382.04834098,1405.47967595 390.474576328,1408.01518385 383.188154044,1424.8305866 374.761905543,1422.29507541 382.04834098,1405.47967595 "/>
  <polygon class="227482564" points="391.474576328,1411.94016188 395.334367877,1411.7497863 394.112439653,1406.94740964 397.636825327,1406.37628312 400.034992002,1407.46326587 408.51805123,1405.47967595 413.512185075,1406.28416594 415.316003785,1408.26161484 416.521140595,1411.13567154 416.006412573,1413.77636522 409.926017211,1428.36160159 407.595062565,1433.741255 402.980987733,1432.32264755 393.409942618,1429.0125641 391.474576328,1411.94016188 "/>
  <polygon class="287236314" points="421.114655021,1409.16478654 421.013698809,1405.47967595 426.169451076,1406.83702489 426.319499777,1410.8292285 430.329644515,1410.93363999 430.354859764,1412.13744318 430.745573257,1423.14364886 426.818080955,1423.04537912 426.853695497,1423.96051606 427.014319789,1428.32123655 418.228067394,1428.14312259 417.521140595,1409.07265876 421.114655021,1409.16478654 "/>
  <polygon class="90446253" points="437.342566901,1405.47967595 431.745573257,1415.20441297 460.96110107,1426.34121042 466.55807287,1416.61646504 437.342566901,1405.47967595 "/>
  <polygon class="286598075" points="467.55807287,1407.87383803 476.255922172,1405.47967595 477.490932589,1407.80631038 483.227999609,1418.61687848 486.978882367,1417.57940732 490.530830871,1424.27692966 486.628375397,1425.35123466 482.277026222,1426.54831748 478.076751714,1427.70242821 467.55807287,1407.87383803 "/>
  <polygon class="386407177" points="491.530830871,1411.1807413 503.541784517,1405.47967595 514.44773051,1414.32890872 507.310210583,1420.42886883 491.530830871,1411.1807413 "/>
  <polygon class="229733061" points="523.959105624,1440.50026471 515.44773051,1439.68354642 516.745625097,1405.47967595 525.261921472,1406.35779932 523.959105624,1440.50026471 "/>
  <polygon class="352964068" points="536.697751969,1436.02910087 526.261921472,1432.2242268 541.870615337,1405.47967595 546.10688647,1407.06299109 541.832938126,1415.09617052 545.51948758,1416.68562373 542.794223128,1421.86515601 547.030501783,1423.44847316 539.529324309,1437.19511088 536.697751969,1436.02910087 "/>
  <polygon class="51352556" points="549.352951928,1427.02970977 553.331935148,1420.50515857 548.030501783,1417.31960749 556.020007598,1405.47967595 603.234739545,1427.07267484 617.317233979,1432.48627488 630.377029482,1437.55615634 616.220465575,1459.32106954 587.951670824,1446.34559234 549.352951928,1427.02970977 "/>
  <polygon class="106766938" points="656.560414536,1439.69207578 653.052691447,1431.57636824 637.719060893,1406.98371818 631.377029482,1405.47967595 646.796272845,1432.67524211 650.010835801,1440.39191767 656.560414536,1439.69207578 "/>
  <polygon class="161202026" points="657.560414536,1405.63927067 658.347334887,1414.87121507 727.343910364,1414.75458807 727.093324423,1411.83891345 745.462502392,1411.80822215 745.918787802,1417.15464914 749.785758336,1417.14851087 749.323890702,1411.73456301 752.118974092,1411.72842475 751.58329047,1405.47967595 657.560414536,1405.63927067 "/>
  <polygon class="382974417" points="755.624339152,1405.47967595 753.583613641,1470.45099286 753.118974092,1474.24503806 754.833778537,1474.36782271 754.587440906,1473.59427941 754.745355324,1470.54308132 757.074510995,1468.77498295 759.170148435,1408.70275637 755.624339152,1405.47967595 "/>
  <polygon class="381753890" points="764.359022656,1405.47967595 771.223176658,1406.79351109 767.034816623,1423.99616859 760.170148435,1422.67619228 764.359022656,1405.47967595 "/>
  <polygon class="367478727" points="0.0,1484.03757217 23.0952019431,1474.36782271 28.3430058862,1482.02380787 11.1384778015,1489.52630935 1.83759424263,1486.56705702 0.0,1484.03757217 "/>
  <polygon class="162915335" points="42.9144124532,1474.36782271 41.1111154647,1477.98481388 33.0742112512,1475.38721231 30.3430058862,1480.58241596 61.4302911767,1490.77017951 65.4462589721,1481.93955579 42.9144124532,1474.36782271 "/>
  <polygon class="368366708" points="66.4462589721,1486.97338332 69.5325909551,1496.27720324 75.0044231123,1498.27789362 161.554302319,1481.57275214 158.768529983,1474.36782271 112.737008994,1483.07019965 107.672914318,1479.67025761 66.4462589721,1486.97338332 "/>
  <polygon class="24856589" points="188.467361659,1475.64478266 174.922123245,1528.42385776 171.049558799,1528.49138957 162.554302319,1528.14145199 179.310983643,1474.36782271 188.467361659,1475.64478266 "/>
  <polygon class="32972146" points="198.652664789,1474.36782271 217.273119821,1481.56325564 207.71909095,1497.61792626 189.467361659,1490.20760355 198.652664789,1474.36782271 "/>
  <polygon class="256051196" points="224.066941988,1474.36782271 228.747087622,1476.16037427 222.953269048,1486.16060654 218.273119821,1484.36805359 224.066941988,1474.36782271 "/>
  <polygon class="25028411" points="232.594198402,1474.36782271 246.298736164,1476.68772685 245.620178478,1480.33329135 241.993385671,1479.71955988 240.071101322,1489.02373208 239.627604253,1491.40501205 229.747087622,1489.63132667 232.594198402,1474.36782271 "/>
  <polygon class="220388461" points="247.298736164,1536.24309597 271.044607281,1510.13990864 303.59163468,1474.36782271 320.223337154,1544.46941707 320.817048155,1546.98028776 255.366791117,1540.71232051 247.298736164,1536.24309597 "/>
  <polygon class="326746312" points="323.511391067,1474.36782271 339.239421405,1476.60797585 338.725256699,1479.7441909 344.412341357,1480.57274099 343.746349839,1484.03423973 337.526023043,1483.11976568 337.256691828,1485.88773766 331.926538289,1485.11442392 332.403892061,1482.46920029 329.892614765,1482.16232984 327.660646828,1482.19915429 324.905891975,1483.15659014 323.021721185,1484.31042318 321.817048155,1484.10175124 323.511391067,1474.36782271 "/>
  <polygon class="381816883" points="363.589917247,1480.40291228 350.602418524,1474.36782271 346.435100222,1480.35379659 345.412341357,1483.68138532 360.635854841,1486.2231234 362.330040174,1486.50553878 363.589917247,1480.40291228 "/>
  <polygon class="118377521" points="364.589917247,1483.38549662 375.657230264,1474.36782271 384.541814448,1480.67221355 390.731591299,1475.67535434 410.534966734,1491.00356369 392.851086562,1505.35574412 364.589917247,1483.38549662 "/>
  <polygon class="251949251" points="411.534966734,1495.68067572 459.314587784,1474.36782271 461.486724448,1477.08795729 413.707089596,1498.40081476 411.534966734,1495.68067572 "/>
  <polygon class="335689354" points="462.486724448,1478.24861468 471.931945449,1497.9166336 487.861759777,1494.03583576 478.421330771,1474.36782271 462.486724448,1478.24861468 "/>
  <polygon class="159478082" points="490.551283048,1519.8200404 491.975320984,1521.42207287 502.409591668,1522.3243671 502.771638306,1520.42156981 500.854201851,1474.46603124 492.686879034,1474.36782271 492.735508045,1476.57137691 488.861759777,1476.66958546 490.551283048,1519.8200404 "/>
  <polygon class="291847411" points="519.364951733,1478.20974302 512.076119982,1474.36782271 508.565531041,1478.54729198 506.784901069,1477.60829216 503.771638306,1481.19858596 512.840601336,1485.97337141 519.364951733,1478.20974302 "/>
  <polygon class="23492581" points="531.36292346,1477.47390848 528.494492577,1489.9289516 524.944894168,1490.88042162 520.364951733,1508.16035717 524.052221541,1507.47898095 527.762742448,1509.30212282 543.365917216,1512.19950707 546.200684525,1510.40705742 548.178819614,1499.48662465 556.518686942,1500.63452806 561.444343865,1478.7200261 559.114370423,1475.93314252 550.41252678,1474.36782271 547.541473758,1474.39237674 545.126171995,1476.59610155 536.523511318,1474.88345745 531.36292346,1477.47390848 "/>
  <polygon class="27992647" points="566.745870094,1474.36782271 562.444343865,1477.57950283 573.089737616,1485.12664719 577.213647416,1482.22815022 566.745870094,1474.36782271 "/>
  <polygon class="125813228" points="586.903040507,1474.36782271 590.55385865,1485.48370518 612.488482272,1482.33492028 631.822074662,1494.36536967 587.207851091,1501.78006038 578.213647416,1475.87162734 586.903040507,1474.36782271 "/>
  <polygon class="122302385" points="644.012693844,1474.36782271 632.822074662,1478.6360793 638.794932374,1491.6435231 642.321084443,1491.14607105 646.296460491,1504.25178958 647.758320564,1504.04298234 649.434664812,1503.79732676 644.794605277,1488.08152115 648.691533031,1486.90851727 644.012693844,1474.36782271 "/>
  <polygon class="37937932" points="675.643321375,1474.36782271 696.397523588,1484.96184817 710.358583571,1492.60797625 683.492918847,1526.00533367 650.434664812,1510.30770521 675.643321375,1474.36782271 "/>
  <polygon class="76903165" points="711.358583571,1486.39754415 714.419839218,1491.74954627 754.446410656,1479.71981984 751.385128967,1474.36782271 711.358583571,1486.39754415 "/>
  <polygon class="50738707" points="755.446410656,1475.74957649 757.034123145,1480.68704453 758.33105604,1484.72790906 767.828889652,1483.34615433 764.944233329,1474.36782271 755.446410656,1475.74957649 "/>
  <polygon class="395847320" points="778.203238586,1474.36782271 771.973923522,1479.66759886 779.09827398,1484.76472049 777.549695173,1484.79542605 774.697476633,1484.83841383 773.040258282,1484.48222936 771.667920618,1483.82513045 770.474019504,1482.80570604 769.667314736,1481.85383392 768.947801593,1480.78528079 768.828889652,1479.07805239 769.126145923,1478.27356715 769.834626832,1477.05762772 771.294193086,1475.9276639 772.663077184,1475.28898875 775.914291211,1474.98193339 776.764436897,1474.85911125 778.203238586,1474.36782271 "/>
  <polygon class="432328157" points="5.39897815352,1569.36527481 13.6285238883,1571.6185107 17.084577344,1564.68075567 22.0769542487,1555.9011241 25.2198197697,1549.68784997 19.434824117,1547.85825005 17.0114116918,1546.98028776 15.1765817785,1550.62106882 12.5379273289,1556.61945737 9.36155624469,1556.76066819 3.6022447262,1555.36697888 0.0324875192251,1563.22566947 0.0,1566.57789363 1.50413585845,1568.8065706 5.39897815352,1569.36527481 "/>
  <polygon class="242122578" points="27.2198197697,1563.95479239 58.7272103583,1556.41943612 55.9017328633,1546.98028776 27.8897939025,1554.06118371 27.2198197697,1563.95479239 "/>
  <polygon class="128511995" points="128.789978644,1590.58363301 59.7272103583,1561.07874813 63.8906129463,1554.09706092 68.6276133761,1546.98028776 138.015101531,1577.33252346 134.642595987,1582.33085513 88.7569792303,1562.68140509 74.725161266,1558.78222088 86.2801549253,1566.0954949 132.18759647,1585.7756524 128.789978644,1590.58363301 "/>
  <polygon class="116999421" points="159.356725384,1570.59474029 168.50805162,1554.7208145 162.37436911,1552.36366709 148.145884415,1546.98028776 139.015101531,1562.7498511 159.356725384,1570.59474029 "/>
  <polygon class="374947873" points="192.606146871,1548.69913748 188.531719204,1612.97814203 184.343299711,1615.29246225 169.50805162,1613.59202003 174.563078918,1546.98028776 192.606146871,1548.69913748 "/>
  <polygon class="10244188" points="242.016990155,1561.82603553 241.286960662,1562.10834426 240.56109771,1562.14516713 239.829248425,1561.93036702 239.423802957,1561.39643532 242.078033851,1548.4532012 232.680990032,1546.98028776 231.866171211,1550.37412607 234.871132008,1551.00011443 233.812445018,1555.60910808 232.626235229,1561.26141811 232.072422899,1563.53216225 194.398008705,1556.99610249 193.606146871,1560.13832048 202.653661501,1561.76466407 214.963969113,1563.86356819 219.370554715,1564.63071159 226.739832236,1565.9195126 240.385526872,1568.2945891 241.611496974,1563.42783076 242.016990155,1561.82603553 "/>
  <polygon class="240267190" points="243.078033851,1550.56088976 253.60924307,1546.98028776 268.745535635,1570.37398134 257.941569626,1574.10813217 249.982458642,1561.37026023 243.078033851,1550.56088976 "/>
  <polygon class="50998026" points="285.485654185,1546.98028776 308.440697085,1553.01128114 292.700173856,1596.11883951 269.745535635,1590.09396774 273.66548382,1579.35238371 280.676908524,1560.14775552 285.485654185,1546.98028776 "/>
  <polygon class="141573841" points="360.566413473,1548.15867605 357.516010837,1554.67663823 333.876139873,1546.98028776 315.654526816,1585.13680077 309.440697085,1598.32620233 313.175830645,1599.60279473 311.946633019,1601.56064581 359.291750041,1617.33393967 364.144688614,1606.6731549 356.25729525,1603.97880712 343.166385408,1599.76236879 343.244471095,1599.59665726 342.506019209,1599.36343364 343.24134955,1597.79838051 343.95083764,1598.0316041 346.54012328,1592.53857588 346.749455382,1592.09054128 350.530616233,1584.06888332 356.309920103,1571.81852622 357.599344726,1572.23587287 368.395046413,1550.90211171 360.566413473,1548.15867605 "/>
  <polygon class="29387154" points="383.34326491,1547.33019318 369.417143273,1546.98028776 369.395046413,1548.65615065 372.251657951,1580.82293819 379.516682175,1584.09486972 385.600060881,1586.9125375 383.34326491,1547.33019318 "/>
  <polygon class="246664706" points="386.600060881,1546.98028776 398.969807069,1547.55104894 399.026116212,1562.87568908 402.398691824,1563.03525691 402.428934086,1571.5230411 386.686572218,1570.79271093 386.664910854,1566.02408556 386.600060881,1546.98028776 "/>
  <polygon class="84894624" points="403.428934086,1548.79213163 408.338852969,1564.66880819 420.882168067,1562.65428104 415.858080429,1546.98028776 403.428934086,1548.79213163 "/>
  <polygon class="23990424" points="421.882168067,1566.75554445 452.642580374,1561.21159332 457.920098492,1560.4196005 457.743369307,1561.57382262 459.232183058,1561.29140656 458.984196032,1560.25997404 463.558702282,1559.55393398 464.117268864,1560.78182977 466.129732265,1560.34592675 465.820637392,1559.21626265 466.326121693,1559.13644943 487.553090521,1555.98075789 487.987053012,1557.39897714 490.049807542,1556.98763215 489.506068465,1555.70448142 518.851799245,1551.89186686 523.677106563,1551.24108253 539.48659316,1549.11682444 539.87457558,1550.68239034 541.898003526,1550.38155609 541.488364882,1548.8466876 555.377181333,1546.98028776 556.26190333,1550.14211659 556.907759685,1552.44441963 557.78615591,1555.58783136 526.998421155,1559.66444459 521.453429592,1560.49327425 477.824661173,1566.73098653 461.088409799,1569.10082682 455.810602198,1569.59198548 426.744791453,1575.06840585 426.131323655,1573.52125546 424.334547117,1573.87734562 423.727279306,1572.10917393 422.989166222,1569.97877294 421.882168067,1566.75554445 "/>
  <polygon class="192675306" points="559.881824371,1558.80273635 572.282081535,1558.80273635 571.313252074,1546.98028776 558.78615591,1547.20138281 559.881824371,1558.80273635 "/>
  <polygon class="334355485" points="574.808735188,1551.57780214 580.141240398,1568.10185928 584.946098037,1567.8133633 591.436712231,1567.41437951 585.127214448,1547.59410801 573.282081535,1546.98028776 574.808735188,1551.57780214 "/>
  <polygon class="89863909" points="624.424144999,1560.43759307 597.595250479,1565.40654226 592.436712231,1551.94923183 619.260727638,1546.98028776 624.424144999,1560.43759307 "/>
  <polygon class="213280432" points="625.424144999,1546.98028776 670.154290145,1551.94662253 671.983306888,1555.61152097 627.079131459,1550.40576939 625.424144999,1546.98028776 "/>
  <polygon class="391001905" points="679.908885816,1553.41291004 672.983306888,1561.77286859 680.533603413,1572.69238206 700.355928607,1565.35132533 704.418043958,1563.42399173 702.89236189,1561.06086016 707.508564407,1559.23787325 703.944422511,1554.02671005 703.456863183,1554.20471205 701.913564414,1551.92137616 702.372657504,1551.74951218 699.679520589,1547.80277936 699.095698039,1546.98028776 692.581303746,1549.32500276 692.074984208,1548.74189297 679.908885816,1553.41291004 "/>
  <polygon class="388185416" points="734.347582837,1551.29752263 713.899739885,1546.98028776 708.508564407,1553.90751595 723.728350716,1562.44373306 734.347582837,1551.29752263 "/>
  <polygon class="30843713" points="735.347582837,1547.91310633 772.147392211,1546.98028776 786.014470856,1575.93451654 738.876937285,1578.07018499 735.347582837,1547.91310633 "/>
  <polygon class="39444309" points="33.6661171784,1678.68710702 41.4148284844,1674.57846246 44.1443807102,1673.3870172 31.8926461909,1657.70785333 36.1578254846,1655.85313171 33.8853317611,1652.9420791 37.651014733,1651.30230924 34.0458031851,1646.69007379 48.41842273,1640.43807148 52.4879444401,1645.64602604 69.5905833897,1638.20872365 53.2799709123,1617.33393967 47.1464530719,1619.91948774 0.0,1639.81778458 32.3906380473,1677.21315366 33.6661171784,1678.68710702 "/>
  <polygon class="94285087" points="72.64430278,1648.38357714 84.0532423275,1648.3037737 84.1304253666,1622.87719689 71.5905833897,1617.33393967 73.801761279,1644.0987473 72.64430278,1648.38357714 "/>
  <polygon class="4575461" points="85.1304253666,1633.61614814 126.212359897,1617.33393967 139.052612422,1634.68443855 104.018415288,1648.65203678 85.1304253666,1633.61614814 "/>
  <polygon class="126095398" points="143.299626897,1617.33393967 140.052612422,1620.76522565 167.635507843,1623.43536831 170.565392391,1620.26188847 143.299626897,1617.33393967 "/>
  <polygon class="312215754" points="172.195536781,1617.33393967 171.565392391,1631.16557507 181.191507611,1631.89000201 181.826465338,1618.05836584 172.195536781,1617.33393967 "/>
  <polygon class="175963286" points="183.581081168,1626.79443362 184.041693284,1623.09250038 182.826465338,1621.95061074 183.77619989,1617.33393967 220.585990279,1625.29647046 216.374222849,1633.20375337 183.581081168,1626.79443362 "/>
  <polygon class="51005751" points="224.912721837,1617.90511326 226.419303423,1630.83943785 221.585990279,1630.94998769 222.058879805,1634.84379925 249.923966222,1634.30947488 248.029049499,1617.33393967 224.912721837,1617.90511326 "/>
  <polygon class="268629256" points="256.790493914,1617.41372858 255.283027553,1620.1142766 250.923966222,1627.02522704 255.671259057,1627.16639215 261.621095018,1617.33393967 256.790493914,1617.41372858 "/>
  <polygon class="211681405" points="274.414300842,1629.54040632 265.690528945,1617.33393967 262.621095018,1618.58588444 271.05655048,1631.10533878 274.414300842,1629.54040632 "/>
  <polygon class="125815806" points="299.410874448,1617.33393967 296.303002658,1617.70835529 281.146895,1619.54360576 275.414300842,1620.23719548 276.9577972,1625.71225893 300.954387735,1622.8090019 299.410874448,1617.33393967 "/>
  <polygon class="81145203" points="301.954387735,1625.16848863 313.069230808,1636.33088708 327.617447645,1628.73578874 316.632763934,1618.10757047 313.734685911,1617.33393967 311.190334926,1618.12599026 301.954387735,1625.16848863 "/>
  <polygon class="25692834" points="349.915255003,1620.35874709 341.180216201,1646.84578279 328.617447645,1643.82096914 337.352520768,1617.33393967 349.915255003,1620.35874709 "/>
  <polygon class="147396386" points="435.624003778,1649.97034515 429.829160517,1678.03305369 421.794607081,1677.52349183 412.119136838,1676.90956189 403.332153099,1676.234239 397.482824399,1703.86725255 371.395738763,1693.1050432 350.915255003,1686.30883232 359.987440128,1655.4895648 371.838036195,1617.33393967 376.425219112,1618.56793319 365.247142871,1657.15331224 369.339215777,1658.17857367 377.224750344,1660.00194302 408.105915542,1667.00687613 410.153037274,1667.47346251 416.780328077,1643.70213524 435.624003778,1649.97034515 "/>
  <polygon class="213276310" points="439.344526592,1620.3852447 454.570649035,1622.73665328 452.427361676,1619.71604494 436.624003778,1617.33393967 439.344526592,1620.3852447 "/>
  <polygon class="41980254" points="455.570649035,1620.92410933 477.18419361,1669.13067214 478.301502697,1668.80540765 492.760330044,1665.0065645 471.412444343,1617.33393967 470.720807137,1617.49350275 455.570649035,1620.92410933 "/>
  <polygon class="222575883" points="497.293594091,1617.33393967 493.760330044,1617.68373703 496.348780029,1627.13440609 499.337615516,1624.08441668 497.293594091,1617.33393967 "/>
  <polygon class="286598068" points="500.337615516,1626.24757755 505.001862263,1635.24716581 538.29636611,1626.33352175 533.632082321,1617.33393967 500.337615516,1626.24757755 "/>
  <polygon class="390545081" points="539.29636611,1618.35911529 542.341648924,1617.33393967 555.102689318,1637.6103323 554.726919873,1637.73924679 552.057399183,1638.63550951 539.29636611,1618.35911529 "/>
  <polygon class="27800223" points="564.340691004,1617.33393967 614.427046887,1628.75200554 619.879717173,1630.52610377 619.200929508,1633.37448345 620.837935592,1641.07861697 618.458406234,1641.26891834 567.376121306,1646.65874523 564.244819667,1646.45616628 556.102689318,1645.03811368 564.340691004,1617.33393967 "/>
  <polygon class="24597019" points="623.999633814,1617.33393967 639.148611182,1620.85064147 636.934313266,1628.39958573 630.524999253,1627.04936773 621.837935592,1625.41069426 623.999633814,1617.33393967 "/>
  <polygon class="93399657" points="640.148611182,1636.71743398 657.582478038,1642.97196225 663.213330233,1631.85007501 663.39991865,1631.47566286 667.851324623,1624.22680021 668.271166383,1623.57618277 651.30180503,1617.33393967 640.148611182,1636.71743398 "/>
  <polygon class="171694912" points="700.827000834,1617.33393967 712.264515165,1633.40994881 671.787110481,1649.36939607 669.271166383,1645.52219186 700.827000834,1617.33393967 "/>
  <polygon class="50825500" points="714.386013571,1628.78927982 722.549382381,1618.31617637 727.978646481,1617.33393967 735.234047783,1618.76432189 744.587777764,1620.98663278 751.9735386,1623.06160848 713.264515165,1631.2387349 714.386013571,1628.78927982 "/>
  <polygon class="213277311" points="753.281860385,1617.33393967 763.095215661,1618.03384869 762.782073728,1626.25471263 752.9735386,1625.55480317 753.281860385,1617.33393967 "/>
  <polygon class="50691280" points="67.9101171662,1725.82278755 44.1182948477,1714.41228819 40.5029568926,1712.65682764 22.208024282,1703.86725255 0.0,1733.29271109 74.04471263,1767.16214742 80.5628410479,1765.28391974 93.4609822225,1757.55004393 80.3765286438,1741.18616005 67.9101171662,1725.82278755 "/>
  <polygon class="8045206" points="131.707239814,1703.86725255 137.793245677,1706.5801559 99.0778660168,1764.80951069 95.4609822225,1763.13388629 131.707239814,1703.86725255 "/>
  <polygon class="28547635" points="171.749509816,1717.9473763 165.59862269,1725.3221005 138.793245677,1711.24196876 144.944140958,1703.86725255 171.749509816,1717.9473763 "/>
  <polygon class="245181337" points="174.761940509,1705.18759556 181.752725527,1703.86725255 185.496554463,1713.4167132 188.151842421,1712.91314018 190.58447744,1719.11568726 191.359035621,1721.09313359 188.693581208,1721.59056579 176.341542198,1723.94876313 172.749509816,1714.60195221 178.055255848,1713.5948061 174.761940509,1705.18759556 "/>
  <polygon class="385402818" points="196.996283155,1703.86725255 205.035456604,1706.42725521 200.685679757,1715.42103358 202.100464461,1715.88760519 201.625946677,1716.86986126 197.042300359,1715.39647718 192.359035621,1713.88625868 196.996283155,1703.86725255 "/>
  <polygon class="134403279" points="206.035456604,1711.99186746 235.420431333,1723.44242859 240.483968928,1716.96236702 227.763651268,1703.86725255 212.132728166,1709.71525657 206.035456604,1711.99186746 "/>
  <polygon class="162845235" points="243.490173077,1703.86725255 242.424362018,1707.32981335 241.483968928,1710.37490305 261.581421137,1715.2003894 263.430784899,1711.9895376 243.490173077,1703.86725255 "/>
  <polygon class="312744213" points="265.782483818,1703.86725255 264.919475113,1705.59845481 264.637629377,1714.02732586 265.054452869,1714.04574292 264.987892,1716.5995753 264.551249533,1716.57501921 264.430784899,1723.13763403 265.516610612,1724.78289252 268.769920791,1724.88111691 268.813261368,1724.52505349 271.798325829,1724.70922422 273.793198169,1724.83200472 273.781154307,1725.15737303 277.295935934,1725.3231267 278.438921301,1723.23585841 278.55560792,1717.3362578 278.213732072,1717.34853585 278.249995795,1714.83767646 278.578387108,1714.83767646 278.84704363,1707.31124025 277.422920949,1704.48115403 274.275675183,1704.32153964 274.248830054,1704.70215857 272.127899703,1704.57323926 269.619122079,1704.4259029 269.645653532,1704.10053511 265.782483818,1703.86725255 "/>
  <polygon class="220269539" points="279.84704363,1705.56698094 281.9101932,1703.86725255 287.557584763,1707.16853028 288.160103416,1707.51829396 285.986495426,1709.46347107 284.974617792,1708.82530567 279.84704363,1705.56698094 "/>
  <polygon class="58558215" points="289.160103416,1704.46864723 289.544589713,1709.23071226 291.859006674,1709.1447987 304.779940502,1708.6845475 304.386103284,1703.86725255 289.160103416,1704.46864723 "/>
  <polygon class="264963788" points="319.347626907,1703.86725255 305.779940502,1715.13119515 337.712989161,1735.43821902 351.76402119,1723.59756373 319.347626907,1703.86725255 "/>
  <polygon class="353772758" points="357.625135943,1703.86725255 352.76402119,1722.19073582 357.168124008,1723.08696046 362.029230037,1704.76347591 357.625135943,1703.86725255 "/>
  <polygon class="24920989" points="369.795401354,1703.86725255 423.577557911,1707.84438048 422.69268684,1734.63478804 413.511117922,1733.98420704 413.228333465,1742.31287386 363.029230037,1738.82674 364.095540741,1718.29662222 369.023980143,1718.52984909 369.795401354,1703.86725255 "/>
  <polygon class="5173315" points="425.877051039,1707.77787841 425.983831071,1709.69328743 424.577557911,1730.97767529 433.297078381,1732.85625288 433.171159402,1736.49062598 462.584089363,1737.82282043 468.028076959,1738.13591684 468.179087783,1711.60869673 463.987415356,1707.31744359 428.158671031,1703.86725255 425.877051039,1707.77787841 "/>
  <polygon class="382364602" points="469.179087783,1709.61369677 501.181694949,1707.18250852 500.294595093,1703.86725255 476.964143668,1705.26088782 476.979533063,1706.22476782 474.813625387,1706.31685827 475.228144635,1708.74804636 473.77902764,1708.86469428 473.272395713,1706.48876044 469.268454292,1706.84484352 469.55142373,1709.20235933 469.179087783,1709.61369677 "/>
  <polygon class="41591163" points="502.181694949,1717.78299998 519.290598775,1749.16868202 536.317825565,1744.2579503 529.072345787,1731.36114997 520.288114556,1715.48723824 524.904189814,1714.13679034 526.301477625,1716.56759665 532.34043272,1714.78746067 533.628537847,1717.06480709 551.266797156,1711.83489084 554.682383798,1710.85888558 552.982970016,1707.92473184 550.481423802,1703.86725255 502.181694949,1717.78299998 "/>
  <polygon class="171826997" points="561.387608717,1725.23599692 557.799460254,1725.29124509 557.176871395,1721.98863304 556.379057291,1718.55097083 556.00154417,1715.17469634 555.682383798,1712.39387456 556.012750814,1709.93840328 556.272740158,1707.21283071 557.346387511,1703.86725255 560.544133229,1704.82488584 559.402430409,1709.10968183 559.164219844,1712.16060477 559.349488493,1714.89845574 560.058712021,1718.7289926 561.387608717,1725.23599692 "/>
  <polygon class="131172421" points="563.992797115,1703.86725255 570.121251058,1706.13249033 568.516064072,1709.02389197 562.387608717,1706.75865368 563.992797115,1703.86725255 "/>
  <polygon class="385207069" points="571.121251058,1705.84363325 572.352949309,1703.86725255 588.218884371,1710.01735749 586.895461074,1711.99373914 571.121251058,1705.84363325 "/>
  <polygon class="155081882" points="589.218884371,1704.90479717 592.774691033,1703.86725255 598.11640076,1713.45073001 594.560589929,1714.4882754 589.218884371,1704.90479717 "/>
  <polygon class="302811746" points="599.11640076,1713.67123178 599.518152928,1703.86725255 603.190996371,1704.13736834 602.79357947,1713.93520878 599.11640076,1713.67123178 "/>
  <polygon class="26995766" points="612.298734395,1723.89212303 653.820587715,1721.95779657 652.661621449,1713.39763784 633.076256328,1714.1775086 631.526812558,1703.86725255 605.08275074,1705.84456129 604.190996371,1707.33675412 605.037345065,1713.91959858 605.609104745,1718.3409139 605.989365028,1720.72965294 606.642038218,1723.49297628 612.298734395,1723.89212303 "/>
  <polygon class="61502482" points="655.302199406,1703.86725255 655.089964131,1707.43967307 654.820587715,1711.91440738 686.211321452,1713.90931686 686.592659332,1705.93581895 655.302199406,1703.86725255 "/>
  <polygon class="372871588" points="687.592659332,1712.28354243 693.089723843,1703.86725255 705.867105618,1708.82126059 705.941615158,1714.92322601 704.908860827,1716.64209003 703.394660351,1718.96869562 687.592659332,1712.28354243 "/>
  <polygon class="51744823" points="706.941615158,1708.58224176 768.651622806,1703.86725255 773.390253024,1726.59498977 711.675235483,1731.30998724 706.941615158,1708.58224176 "/>
  <polygon class="89721003" points="13.420486964,1767.16214742 25.6468230367,1771.6127358 45.551194845,1778.85645534 44.0952131566,1781.61889182 46.7966436686,1782.59495286 35.8212079922,1802.57045705 32.5869329197,1801.51459066 31.6109019491,1803.70612739 0.0,1791.93199324 2.12902511973,1788.00319173 13.420486964,1767.16214742 "/>
  <polygon class="24704564" points="49.7383844359,1768.99786448 50.3402071432,1768.50056318 50.5157862012,1767.7515415 51.9118662893,1767.16214742 101.795738948,1779.30612666 154.98804469,1792.03951245 159.911571829,1792.83151227 169.153694984,1795.1706748 171.206311981,1798.1299309 172.405274635,1798.85439619 174.093787059,1799.0078846 176.782932919,1798.2834193 175.851511253,1800.54276884 166.948098346,1802.41532785 49.5952704685,1774.46818008 48.7966436686,1773.38148421 49.0697304536,1772.1106027 49.7383844359,1768.99786448 "/>
  <polygon class="138147740" points="206.902167996,1785.83699117 201.817146202,1782.2137869 212.585104882,1772.27147393 205.088111336,1767.16214742 177.782932919,1792.35876139 209.98011707,1824.31671093 211.65511806,1826.06690836 229.916756406,1809.56593354 206.902167996,1785.83699117 "/>
  <polygon class="26529369" points="232.246218658,1767.16214742 241.311950938,1769.5550164 239.982491924,1773.14432071 234.546909866,1771.70859887 230.916756406,1770.75145106 232.246218658,1767.16214742 "/>
  <polygon class="378342729" points="250.018552028,1767.3340968 251.878931333,1898.4031715 243.859878868,1898.42773595 243.53814472,1867.07126031 242.802943535,1794.89515517 242.752193409,1792.11939531 242.311950938,1767.16214742 250.018552028,1767.3340968 "/>
  <polygon class="96692489" points="252.878931333,1850.50593349 264.050982441,1830.90063752 283.890929734,1796.96279875 298.882840183,1767.16214742 305.669901253,1768.48798338 302.901109378,1778.37651423 299.758443525,1780.48189452 301.032174274,1796.22008344 307.325549218,1796.18939272 307.610428991,1805.6973796 300.536408473,1805.74648478 288.754025526,1801.70144624 280.502368078,1813.36392802 283.670618046,1814.89232773 285.045321025,1834.30117828 276.569063441,1834.55898104 273.427293877,1839.35902394 264.388938756,1854.7596851 252.878931333,1850.50593349 "/>
  <polygon class="381961978" points="308.610428991,1768.00942064 315.598317787,1767.16214742 319.522002217,1781.08076599 312.534600187,1781.93417979 308.610428991,1768.00942064 "/>
  <polygon class="41435767" points="335.29044645,1790.89484937 333.005464682,1767.40156142 320.522002217,1767.16214742 320.539045619,1768.59863151 321.45230817,1777.27278879 322.007399983,1786.11270029 322.304646445,1790.88871053 335.29044645,1790.89484937 "/>
</svg>