<svg><g transform="translate(0 0)"><polygon class="bin" points="196.2500005,798.749999 197.348350071,801.401649429 200.0000005,802.499999 596.2499995,802.499999 598.901649929,801.401649429 599.9999995,798.749999 599.9999995,3.75 598.901649929,1.09834957055 596.2499995,0.0 311.4329656,0.0 309.025098384,1.55253339102 308.801613473,1.29569716324 197.538395536,98.1108955735 196.2500005,100.939853155 196.2500005,188.247419842 197.137200431,190.66958329 199.379000909,191.945643674 201.91464181,191.471803296 203.544325571,189.472270769 205.982262819,182.417663617 206.955355215,180.572397446 214.941204694,169.797948563 218.418072951,167.580456321 222.487428818,168.248458976 229.675284862,172.439934139 232.436006318,176.531773749 230.953109757,181.23982559 217.025206899,196.057078316 216.022809091,198.287947941 216.609025749,200.662380647 217.412783883,201.904787353 215.998708618,206.309583444 216.058348386,208.773485934 217.63453199,210.668220118 219.29049905,211.665544656 221.713753517,212.171193825 223.924115392,211.056678829 247.519864774,186.5963606 251.023748211,184.863769894 254.83044635,185.751530544 258.804016977,188.316905149 259.875317832,189.991589214 261.862237889,191.532945731 266.126370726,192.935939087 266.638682624,193.354761505 269.144827074,198.2478333 269.140121801,198.76698916 270.71040058,200.730395008 270.997642509,200.908232748 273.384048849,203.824294443 273.476920252,207.591219706 266.312172368,230.274299676 264.994947971,232.653668344 208.993998187,298.43445958 208.563282093,298.895705835 197.379568264,309.820628817 196.2500005,312.503134157 196.2500005,406.77160827 197.127794413,409.182610592 199.350231005,410.464885893 201.876861574,410.018128332 305.020226147,350.389429821 306.406340844,349.78077943 310.974324648,348.350990777 314.675538444,348.428504784 317.578406244,350.725970895 337.966321032,382.048438696 338.137727215,389.106923524 319.49509465,421.037981692 319.26943322,424.364824076 321.782747387,426.556183296 322.593763054,426.768760813 326.380663302,430.048594044 326.091197828,435.05000677 289.222632179,500.160124115 286.712476917,502.701040329 258.934826072,518.880051479 254.763853084,519.521649804 251.273638259,517.149506353 241.606422781,502.990759809 240.742589717,498.528079411 243.400428869,494.840585014 285.797388872,469.518795729 287.09843705,468.214751916 293.586903125,457.293962038 293.56729002,453.430434995 257.923463666,394.801823128 255.563783583,393.096256644 252.694961304,393.59315287 197.975789797,428.680863351 196.2500005,431.837613425 196.2500005,536.704761922 197.518150484,539.515975271 200.464891431,540.425833867 203.097204951,538.818957889 209.184174469,529.901814265 212.045427667,527.698639445 215.655508291,527.608822766 282.111581531,547.496558767 285.212032096,549.74422018 286.235442784,553.434397154 284.82050506,574.854848421 284.429955263,576.726850418 281.032261161,586.169687532 280.912737242,586.478334212 275.712158022,599.003736597 275.180572131,600.030411648 206.224447842,709.532728324 203.389007152,711.861697085 199.830155767,712.02304991 197.28896585,713.178296173 196.2500005,715.769201637 196.2500005,798.749999 " transform="translate(-196.25 0)"></polygon><g transform="translate(730.2345239999996 -972.997688068112) rotate(0)"><polygon class="230064841" points="-549.905183252,1194.49481891 -589.540452527,1213.29507137 -618.090298598,1177.99287849 -622.83879561,1172.05294581 -719.999213045,1127.23927364 -721.40925207,1125.8832137 -722.900957462,1127.25837308 -726.12396805,1124.45712255 -727.757164838,1123.03739794 -678.179964401,1073.48713466 -655.965970415,1085.18234022 -661.754034287,1103.56871367 -656.230227395,1106.1789683 -651.167560688,1108.56639648 -645.643012766,1090.21821925 -624.180036583,1099.73609626 -592.238323119,1111.39947813 -598.805169604,1133.41475855 -584.680990297,1150.82071871 -559.966184587,1162.03846349 -549.905183252,1194.49481891 "></polygon></g><g transform="translate(545.4294161 -1636.9952171) rotate(0)"><polygon class="109864791" points="-353.312281516,1758.46414401 -377.057202976,1723.48358359 -374.433889223,1722.56019405 -384.068490906,1709.59453384 -395.418891197,1713.40908663 -395.803792234,1713.37724562 -396.249115145,1713.15435855 -396.544948243,1712.77863464 -396.704589623,1712.42201533 -398.459376574,1709.83652549 -400.541045086,1706.76068437 -400.615035454,1706.37859232 -400.558723355,1706.07928689 -386.184441085,1700.9783585 -385.380824715,1700.70452591 -384.893100414,1700.46890252 -384.531497386,1700.24601553 -384.180954366,1699.88939635 -383.996166351,1699.55188178 -383.844133539,1699.2589446 -383.88905661,1698.78769784 -384.040949634,1698.29097829 -384.338575128,1697.59684457 -385.243947788,1695.90290363 -389.953709818,1687.49688209 -389.933192881,1687.33130896 -389.853396168,1687.17210403 -389.435057866,1687.09568566 -386.920965594,1686.45249774 -391.542343232,1678.63872062 -399.483436632,1666.78114197 -402.527266479,1667.8892077 -402.792208027,1667.54532523 -403.104344555,1667.23328373 -403.582884386,1666.80661475 -404.353265726,1666.21437274 -405.003602322,1665.78770377 -405.636153089,1665.45018951 -406.176020433,1665.20819816 -406.729150232,1664.94073404 -407.466502798,1664.66690173 -407.965251199,1664.57137883 -408.961262642,1664.53316967 -410.311774557,1664.44401496 -411.07047969,1664.3166511 -411.70695756,1663.3741585 -412.878337313,1661.62927364 -443.873777777,1670.29001688 -475.03715509,1676.74099832 -473.568884754,1679.4411133 -473.474718136,1679.68947295 -473.502797511,1679.88051883 -473.605091333,1680.00151455 -473.778407698,1680.04609192 -469.58321992,1687.40135913 -461.305976305,1699.84481895 -453.794728529,1710.60707786 -442.049899776,1727.85853985 -440.983281346,1727.52739322 -439.64291197,1727.10709172 -439.23046096,1727.09435532 -438.828269599,1727.16440556 -438.318157202,1727.55923424 -438.000703635,1728.15147726 -437.956127865,1728.65456543 -438.393657806,1728.96660746 -440.606200269,1729.83905153 -419.195719539,1760.92864136 -416.346171779,1759.97977802 -414.667602792,1762.29143842 -414.085368841,1763.14477866 -412.960648384,1764.57762612 -412.186931907,1765.24628829 -411.418040688,1765.68569487 -410.088763196,1766.20151998 -407.999447569,1766.91475966 -407.810104606,1769.93329204 -400.824260596,1772.21948023 -394.228220436,1774.63940103 -387.64650626,1777.32678696 -373.955335223,1783.97520231 -372.53176513,1781.52980801 -371.746722585,1781.82274586 -370.61188965,1782.21757514 -369.775774534,1782.40862157 -368.817565019,1782.57419514 -367.889374723,1782.52961764 -366.418048594,1782.32583478 -363.715112173,1784.84764771 -351.502090985,1775.08517594 -353.953815523,1772.63341404 -352.063350838,1770.82484173 -351.248098453,1769.46841256 -350.803346927,1768.29029337 -350.615095679,1767.43695301 -350.528724617,1765.40549357 -350.689467864,1763.79433617 -351.303021497,1761.59093525 -352.236762613,1759.92246413 -353.312281516,1758.46414401 "></polygon></g><g transform="translate(255.8059219 -798.500546) rotate(0)"><polygon class="286758894" points="-1.0,961.440045996 -41.1572450658,962.484264876 -69.4137179513,889.268041091 -100.575639588,801.840465058 -60.3698798522,801.0 -1.0,961.440045996 "></polygon></g><g transform="translate(758.6780285 -559.3160781) rotate(0)"><polygon class="285978121" points="-581.376480198,829.309217186 -594.615398426,801.0 -616.535577095,804.343607171 -643.157984708,809.132926935 -670.630181845,814.017778999 -685.729028551,816.457020891 -660.04295176,871.680737235 -630.05481866,867.980471738 -624.654631935,862.28040773 -557.867616512,850.262510368 -555.199756735,848.542938736 -540.070622271,846.823367186 -547.921440073,827.576908994 -581.376480198,829.309217186 "></polygon></g><g transform="translate(305.0553506 -1477.7375510000002) rotate(0)"><polygon class="285988332" points="-151.533599186,1788.22985739 -153.439349999,1787.01328099 -154.696755501,1786.52919825 -156.459174878,1786.21072276 -157.896203108,1786.14702766 -159.122093355,1786.30626541 -160.132407787,1786.94958589 -162.202281812,1788.26170494 -166.714627324,1784.84764771 -172.688686228,1789.72669229 -181.425725886,1797.94336154 -190.166414225,1806.39570464 -186.727851972,1809.39574551 -187.083000923,1810.05180544 -187.34765692,1810.91168982 -187.436247065,1811.86711694 -187.401134759,1812.75247943 -187.204326169,1813.52319068 -186.765279847,1814.91174486 -186.415876305,1815.63786955 -185.755452952,1816.40858086 -185.252137218,1817.16018364 -186.981012302,1818.7270844 -161.836253943,1840.32611762 -159.269217095,1837.95028703 -136.841432705,1857.72764827 -134.054887543,1856.52380859 -122.247423605,1846.40263945 -118.357136672,1851.44093034 -116.641594695,1851.7594064 -114.536507008,1852.84859455 -111.751302684,1855.47920698 -83.5045431847,1879.60696386 -77.4660021238,1876.84258963 -76.0218144594,1875.39670735 -72.9303273559,1875.17377396 -71.6545240521,1875.88079128 -71.4269482799,1876.60054766 -75.0691941498,1876.21837613 -65.5763264516,1885.86183904 -61.3152522389,1886.81726813 -55.5079263899,1893.37151239 -53.1426135087,1895.05306796 -50.4710609818,1896.54990726 -47.5185728678,1896.8429056 -45.9205663027,1896.0976707 -44.9392370857,1894.86835163 -44.6678103242,1893.4861639 -44.8518112401,1892.21225822 -45.4282241287,1890.61987617 -45.7624026632,1889.6453384 -45.8409462921,1889.39692681 -43.2824735878,1887.9000878 -60.5535533221,1869.39024542 -65.3025459729,1868.27557868 -65.6738310045,1867.6449958 -66.7570736229,1862.67039789 -68.7492495447,1860.30730489 -79.8314393869,1850.6128926 -100.54884303,1832.47250128 -98.683199965,1830.4979508 -118.158323776,1813.65058097 -139.063504247,1795.14714598 -148.950929707,1786.61200187 -150.577341533,1788.33813906 -150.99796476,1788.40820368 -151.533599186,1788.22985739 "></polygon></g><g transform="translate(774.6227608 -875.7997326000001) rotate(0)"><polygon class="374346585" points="-642.408461513,1305.63040964 -629.69214975,1332.37961295 -618.10642265,1330.73047082 -613.726760359,1340.01405957 -625.43887448,1341.82238578 -623.388531943,1345.73830377 -510.302700833,1329.56524689 -498.941227235,1352.04834489 -490.959319346,1350.914957 -506.277291997,1318.95725372 -524.656563576,1297.44837932 -528.490532175,1299.54960094 -536.014425865,1290.59075691 -642.408461513,1305.63040964 "></polygon></g><g transform="translate(446.15331960000003 -912.4531133999999) rotate(0)"><polygon class="241819963" points="-264.946459163,1073.48713466 -243.779821473,1153.02029094 -237.072184293,1154.00745085 -228.479334189,1184.47567721 -208.702926166,1182.3039236 -226.624832939,1141.25079934 -164.42146596,1134.42347698 -171.529914439,1116.71830001 -173.097750008,1108.40705986 -220.490402492,1086.64499417 -243.04091236,1076.37218282 -264.946459163,1073.48713466 "></polygon></g><g transform="translate(843.5831699 -1272.294735) rotate(0)"><polygon class="33406920" points="-565.11018902,1566.47283863 -655.342911867,1570.56103919 -637.684891376,1618.40957709 -547.444544763,1614.32773898 -565.11018902,1566.47283863 "></polygon></g><g transform="translate(516.5517766 -504.66985719999997) rotate(0)"><polygon class="443296708" points="-244.783160692,1043.5574899 -397.97789974,962.484264876 -405.272320356,979.835244705 -366.191776966,1000.51757253 -368.937595691,1007.0655987 -294.44277284,1046.48754385 -292.040925167,1040.78030855 -252.428995056,1061.74293723 -244.783160692,1043.5574899 "></polygon></g><g transform="translate(531.3689439 -1391.9782971999998) rotate(0)"><polygon class="241824860" points="-325.523055707,1403.70007403 -307.430276314,1394.19131965 -232.736569444,1482.45787749 -243.958912222,1487.78228315 -244.513359544,1491.20875515 -236.85775471,1499.19536588 -240.865836865,1511.75485617 -297.906067751,1484.36218038 -288.547872043,1455.06522394 -300.51705657,1442.50575337 -296.302245218,1439.65248684 -318.925654163,1414.16416497 -316.828972638,1413.02413301 -325.523055707,1403.70007403 "></polygon></g><g transform="translate(97.5419993 -1612.2270518) rotate(0)"><polygon class="59386168" points="-95.070204561,1932.0402177 -52.8475537084,1896.8429056 0.0,1945.35227552 -39.2301091371,1982.14198801 -95.070204561,1932.0402177 "></polygon></g><g transform="translate(283.57538680000005 -1051.8174629) rotate(0)"><polygon class="278749393" points="-119.982998746,1568.04578331 -98.4358281882,1597.26308413 -102.100539454,1599.17354491 -106.861475163,1601.65077586 -111.239259539,1603.64402352 -120.985571645,1608.06992527 -130.158512893,1612.23473115 -140.013680493,1616.7115796 -148.630055673,1620.62802643 -158.143130544,1624.95203895 -167.571400212,1629.23147454 -176.875230245,1633.45996497 -180.994575194,1635.33221842 -186.185154742,1629.05953292 -183.825605019,1627.97693757 -183.657643141,1627.84957341 -183.687659841,1627.63942255 -183.806671697,1627.37832603 -183.950877841,1627.13633414 -188.308176239,1621.70425336 -191.567470382,1607.01917157 -191.070887646,1607.02553977 -190.700235483,1606.93001671 -190.496326015,1606.75170699 -190.391823762,1606.52245165 -190.264634759,1606.21677785 -190.90718872,1603.90511987 -182.242493616,1604.3063167 -181.535914845,1607.24842692 -181.265737005,1607.39489561 -180.755016707,1607.24842692 -178.879029636,1606.49697883 -194.38874156,1585.96589481 -191.121469339,1584.60946815 -190.596613937,1584.31016274 -190.444917182,1584.04906653 -190.400532023,1583.79433853 -190.499367533,1583.39951013 -191.948517499,1581.05601262 -124.905535767,1566.47283863 -123.421444163,1568.86091257 -123.225326623,1569.0201175 -123.035403449,1569.07743128 -122.797106715,1569.09016767 -119.982998746,1568.04578331 "></polygon></g><g transform="translate(438.58842250000004 -942.7818962) rotate(0)"><polygon class="240971220" points="-131.898956697,1394.19131965 -124.228331814,1304.10274932 -163.383253697,1290.59075691 -167.403159314,1328.75800974 -172.183144264,1376.33023005 -145.975387951,1390.30708906 -131.898956697,1394.19131965 "></polygon></g><g transform="translate(616.5193176 -675.4890874999999) rotate(0)"><polygon class="328909458" points="-412.445019392,1213.29507137 -457.221948386,1245.83758592 -412.43617986,1290.59075691 -364.428555426,1255.71054091 -396.241309728,1223.92600509 -399.466362622,1226.2636644 -412.445019392,1213.29507137 "></polygon></g><g transform="translate(374.0526087 -914.1157029999999) rotate(0)"><polygon class="284838382" points="-79.2301367786,1476.82997333 -65.2634096839,1471.35510082 -62.1643747291,1470.14553608 -41.2951972146,1461.96505984 -42.6347901285,1460.11251646 -66.9055984927,1426.4993751 -74.4194212491,1416.09713293 -76.2353705356,1413.58251548 -90.2351417078,1394.19131965 -92.9303673182,1395.24809498 -93.8360911293,1395.60459751 -94.6635473041,1395.92926946 -101.581555742,1398.63486916 -104.853835195,1399.92082485 -106.721607573,1400.65292836 -120.199795588,1405.93044021 -123.226875461,1407.12090439 -128.169683097,1409.05620453 -108.372358022,1436.46872391 -79.2301367786,1476.82997333 "></polygon></g><g transform="translate(750.135558 -571.5095296000001) rotate(0)"><polygon class="374424032" points="-409.990953429,900.629501886 -417.515487005,887.047985656 -411.477643991,888.919980553 -403.154050707,883.488648693 -424.553491648,862.31728681 -437.484355727,871.199706276 -448.010093711,860.260640898 -450.274807071,861.043821835 -454.445977828,856.758612529 -453.343952002,855.542453667 -460.125174566,848.544765525 -457.954054374,841.69989447 -453.306175532,839.031986945 -450.574386217,841.636221258 -447.057838796,839.305781742 -485.415924961,801.0 -494.222920714,801.337467645 -497.853910079,832.37176999 -427.046857829,904.061493914 -409.990953429,900.629501886 "></polygon></g><g transform="translate(467.0121209 -1775.8095947000002) rotate(0)"><polygon class="301510370" points="-155.502076896,1923.03095012 -158.409247904,1906.41271394 -159.535304599,1904.26062109 -161.379767703,1902.598798 -163.464275773,1902.1467312 -183.914350004,1899.49163473 -183.666203376,1901.36994037 -187.140608247,1900.98154496 -187.617121048,1899.03956797 -206.87564603,1896.8429056 -208.235358919,1898.7212111 -209.45839914,1901.24259761 -212.112622768,1906.28537117 -210.775486706,1913.78586145 -209.778050798,1924.39351849 -208.90734909,1930.21308679 -207.71207758,1936.61206615 -204.250817955,1943.98521992 -184.893211167,1963.83798527 -181.402441615,1965.39156968 -176.339175085,1970.56806251 -165.938839193,1961.6540532 -168.185373718,1951.4220467 -161.513145611,1946.05454229 -139.964495779,1948.53136213 -143.486803691,1929.43629534 -150.174870628,1928.59583248 -155.502076896,1923.03095012 "></polygon></g><g transform="translate(339.7454531 -1071.0916309) rotate(0)"><polygon class="443136829" points="-33.0011517595,1073.48713466 -84.8937300766,1088.97722374 -51.8877525067,1141.13530683 0.0,1125.64519543 -33.0011517595,1073.48713466 "></polygon></g><g transform="translate(332.3444881 -414.2118484) rotate(0)"><polygon class="412107603" points="-0.527306040376,1071.60205724 0.0,1069.16928856 -1.80933107715,1068.35412004 -6.95351763088,1066.04872165 -4.42358581424,1056.89081461 -9.18607701827,1054.82105152 -13.2917496834,1052.96781759 -11.9874180531,1048.69455346 -32.4321865926,1039.59396733 -33.2364115734,1041.92483801 -41.6433081558,1038.39032105 -40.7209593846,1035.34617879 -53.5675266305,1029.74190082 -54.2839871546,1032.33387927 -55.1299133487,1032.07913937 -56.7325661156,1029.87563926 -56.8958285037,1028.79936325 -56.8224307436,1027.69761328 -53.7402862452,1028.96494417 -50.3808669878,1018.69255989 -49.6139825922,1015.38731101 -48.6341261694,1013.18381193 -44.1510842046,996.568414245 -49.4543216452,994.237546498 -45.7655995125,981.532409391 -56.9798194807,976.545883121 -54.6080536287,968.897330123 -52.9464184061,963.547801933 -55.276850437,962.484264876 -56.1563690549,964.560391137 -59.4540042356,963.28669403 -75.1864409868,1017.240543 -77.2326201713,1024.23951967 -80.1213595061,1035.27612531 -71.1106794242,1039.40291236 -70.1961111836,1037.6515752 -68.6630228866,1038.30116207 -60.5129911736,1041.99489151 -56.7976235943,1045.36382783 -57.6418229643,1048.21054742 -55.8076406842,1049.03845249 -18.6586291445,1065.80035001 -17.7084810723,1063.07463058 -16.044247031,1063.82611396 -16.6708875848,1066.48814841 -11.5818210701,1068.88270588 -10.976352575,1066.25251377 -8.80775895305,1067.06768225 -9.53678612374,1070.04814215 -1.54017899595,1073.48713466 -0.527306040376,1071.60205724 "></polygon></g><g transform="translate(540.7330075 -1207.3156059) rotate(0)"><polygon class="185021231" points="-391.104994607,1820.45652218 -404.714318406,1806.38110883 -422.830495399,1809.95409785 -408.665273286,1837.53809454 -426.309141528,1841.66518706 -434.307541246,1847.25714342 -435.594974731,1848.1742753 -437.032887532,1848.63284124 -438.218706037,1846.35274951 -459.250106463,1805.92254342 -449.428294302,1803.6042406 -405.922526621,1793.39479341 -409.981891979,1785.92400201 -403.443369867,1784.84764771 -399.833518139,1791.26119128 -380.424775428,1786.77107376 -377.783447986,1791.85350469 -365.788952334,1814.90278377 -367.102768237,1815.14480446 -391.104994607,1820.45652218 "></polygon></g><g transform="translate(268.8342161 -686.3831775000001) rotate(0)"><polygon class="448157974" points="-39.3695899788,1290.59075691 0.0,1331.83250658 -29.7394463617,1351.63187481 -44.3902335629,1336.28402007 -60.4407797473,1346.97020205 -85.1592622289,1321.07627669 -39.3695899788,1290.59075691 "></polygon></g><g transform="translate(646.2207033 -1585.5247138999998) rotate(0)"><polygon class="130008156" points="-299.543757723,1861.42741133 -307.863529832,1854.55592317 -313.764881702,1837.19570963 -350.238692857,1836.89002729 -364.788952334,1790.17797607 -364.557820627,1787.82804627 -363.370027542,1786.72631771 -359.980706489,1784.84764771 -357.606590704,1784.84764771 -344.502037353,1789.64303269 -343.845356313,1790.61739386 -343.572898033,1792.81448287 -335.147525201,1795.60383085 -333.131281971,1793.59779289 -329.943354721,1793.07558621 -324.512840356,1795.87767096 -320.061480932,1798.7115978 -317.33844997,1802.46893935 -307.137967218,1830.78274953 -302.045239638,1844.90782107 -300.093532307,1849.76689791 -298.277983776,1851.97035892 -296.429682931,1853.84903243 -294.225602906,1855.28828746 -293.113170647,1855.72770604 -284.631055262,1879.24616062 -293.771170763,1879.5008962 -299.543757723,1861.42741133 "></polygon></g><g transform="translate(183.0717358 -941.5962053) rotate(0)"><polygon class="300357392" points="-96.4358281882,1594.27067836 -17.502864862,1566.47283863 0.0,1582.89304412 -35.4187173508,1605.56554663 -32.7496717801,1607.95313198 -56.0975766163,1623.77486833 -96.4358281882,1594.27067836 "></polygon></g><g transform="translate(501.12142229999995 -1323.6675276) rotate(0)"><polygon class="438253030" points="-196.749484989,1394.28682268 -199.990353032,1394.94261016 -200.10622653,1396.165049 -203.347095559,1396.82083652 -196.525285447,1411.57924235 -185.935517843,1436.58195685 -181.151035796,1450.02243531 -176.502643259,1464.96550286 -175.069020007,1469.47325519 -159.967932503,1514.40437155 -163.004295594,1513.46207179 -168.750256533,1503.6888968 -181.194566737,1503.59339347 -172.265867203,1519.75892669 -158.672960321,1520.70122661 -147.954932711,1565.25039392 -142.191632152,1566.47283863 -146.352027108,1540.62960238 -149.498414389,1525.30448941 -149.92318994,1511.20819276 -159.634690612,1474.92967368 -167.703998885,1452.74745952 -182.536076513,1420.78574022 -195.156593394,1394.19131965 -196.749484989,1394.28682268 "></polygon></g><g transform="translate(635.322318 -1207.142341) rotate(0)"><polygon class="443136831" points="-319.13518436,1661.62927364 -258.308264981,1758.93876062 -267.726589277,1761.40366593 -294.828088511,1727.41091677 -349.528724617,1675.51423483 -340.411639912,1665.90940789 -319.13518436,1661.62927364 "></polygon></g><g transform="translate(881.0860936 -398.3573758) rotate(0)"><polygon class="385279566" points="-592.767065892,962.484264876 -584.536206846,1010.95110324 -532.602905254,1017.44561367 -533.021547816,1012.1799664 -529.525024924,1011.75336623 -531.956882185,1001.01832489 -534.305625058,1000.66813083 -535.857438626,993.129408672 -538.757974773,992.352614757 -540.96699257,979.681962307 -533.858271412,982.305232694 -532.136793824,992.09792823 -521.40871551,992.486325183 -523.643955882,977.128730877 -566.58584508,970.666063615 -567.637936763,965.585070869 -592.767065892,962.484264876 "></polygon></g><g transform="translate(801.8567823 -1057.6508499) rotate(0)"><polygon class="448157967" points="-492.840956626,1406.48231868 -474.163238669,1394.19131965 -413.85954433,1457.76703517 -432.539503965,1470.05168755 -492.840956626,1406.48231868 "></polygon></g><g transform="translate(492.6308801 -552.5295065) rotate(0)"><polygon class="224291340" points="-128.178128697,1017.11464715 -139.281101355,968.973927072 -140.398188925,964.140115767 -153.927219196,963.082918651 -161.854235718,962.484264876 -161.073536333,965.974289151 -177.717724512,964.847036747 -166.949170841,1010.97525289 -166.184906134,1014.24874721 -128.178128697,1017.11464715 "></polygon></g><g transform="translate(453.1160749 -1598.4698314000002) rotate(0)"><polygon class="331125086" points="-118.485575071,1716.49805844 -142.592198943,1666.93976855 -107.743990319,1661.62927364 -83.6351481823,1711.19392365 -118.485575071,1716.49805844 "></polygon></g><g transform="translate(633.8051681999999 -755.5515499) rotate(0)"><polygon class="448157973" points="-493.840956626,1470.65025362 -506.470821621,1479.48959448 -581.793196893,1400.82081097 -573.945737214,1395.20389317 -570.850128118,1394.19131965 -565.516920363,1396.35657124 -493.840956626,1470.65025362 "></polygon></g><g transform="translate(377.4036704 -535.2000677000001) rotate(0)"><polygon class="250365008" points="-251.546509086,1222.12779495 -247.132763983,1233.32313193 -118.903684255,1224.49040559 -123.317568792,1213.29507137 -125.547403982,1213.45427689 -128.188846508,1213.64532352 -140.191812495,1214.44135116 -161.559315565,1215.93151495 -233.869519058,1220.88599157 -245.038693123,1221.70112404 -248.521832152,1221.93038005 -251.546509086,1222.12779495 "></polygon></g><g transform="translate(675.6208179 -740.5303794000001) rotate(0)"><polygon class="413357499" points="-376.574298401,1449.27284923 -412.85954433,1432.55541458 -408.195347005,1417.26454116 -397.894492202,1394.19131965 -371.364553453,1410.52025545 -367.52219428,1406.17054211 -365.679318084,1404.48924749 -361.631829735,1397.47748554 -356.015920345,1401.76988097 -362.798923592,1413.99747909 -371.398191128,1430.03347083 -376.574298401,1449.27284923 "></polygon></g><g transform="translate(870.7282583 -1107.9804407000001) rotate(0)"><polygon class="275355509" points="-557.772508246,1836.44134397 -557.182366253,1836.15485359 -481.422517364,1799.93612216 -493.471611659,1784.84764771 -569.821408998,1821.35285393 -568.886334736,1822.52428077 -563.106938354,1829.75656911 -557.772508246,1836.44134397 "></polygon></g><g transform="translate(431.07972850000004 -624.9816594) rotate(0)"><polygon class="118766904" points="-348.820038009,1338.3523084 -350.442748904,1338.25679797 -372.058384428,1337.01516238 -373.505324474,1336.93238667 -393.757755368,1330.34216771 -400.089725379,1328.2791429 -393.25221218,1300.16089068 -392.608164424,1295.44904805 -391.942930805,1290.59075691 -372.168569801,1299.90619647 -352.962164101,1304.13412063 -348.820038009,1338.3523084 "></polygon></g><g transform="translate(1045.3144972 -1327.9234511) rotate(0)"><polygon class="185329229" points="-690.418258011,1649.33745042 -673.276761428,1661.62927364 -656.342911867,1658.24742963 -664.233545897,1622.72216468 -676.557088317,1567.2498328 -678.15650839,1566.47283863 -693.094481646,1591.56593746 -675.15166664,1603.3609737 -677.292208653,1606.47532247 -672.279955184,1609.69794132 -676.333570637,1616.44888291 -672.210979719,1619.13015346 -690.418258011,1649.33745042 "></polygon></g><g transform="translate(867.6381524 -1564.0919093999998) rotate(0)"><polygon class="355939234" points="-517.814400864,1611.50397604 -523.046508567,1609.75927311 -546.444544763,1579.99745594 -543.853652777,1578.69848117 -545.900633316,1575.98591637 -524.978090373,1566.47283863 -505.792273917,1572.61749699 -490.570059961,1592.22310312 -491.132592084,1592.48417167 -489.570011741,1594.48994232 -493.346017818,1596.17096925 -491.047979414,1599.18280935 -517.814400864,1611.50397604 "></polygon></g><g transform="translate(364.189608 -1498.9105897) rotate(0)"><polygon class="322428253" points="-292.589324941,1581.55784509 -299.217920727,1585.6458893 -347.929970599,1615.66946825 -361.765869209,1600.58444738 -306.425380613,1566.47283863 -292.589324941,1581.55784509 "></polygon></g><g transform="translate(939.8335271000001 -1044.0920688) rotate(0)"><polygon class="266175002" points="-578.379298425,1661.62927364 -586.541939493,1664.998527 -595.356423234,1666.29782328 -608.914437037,1667.33598652 -600.906281506,1707.56961172 -579.940595675,1709.64594059 -581.907915812,1700.73556078 -571.038571144,1701.51259167 -578.379298425,1661.62927364 "></polygon></g><g transform="translate(553.6946091 -518.8436863000001) rotate(0)"><polygon class="364973779" points="-297.797766262,1213.29507137 -294.666057406,1216.79167694 -295.736368661,1218.47947392 -297.248672472,1220.10358052 -297.829374934,1221.59393723 -297.483312212,1222.24357992 -297.02356886,1221.91875858 -296.156311865,1220.03352102 -289.264043157,1222.82316312 -289.358066368,1224.96316268 -288.226282368,1225.67649589 -287.973890752,1223.14798447 -259.757570069,1233.98173365 -256.30136173,1235.40840045 -256.999722444,1236.51024583 -256.972786859,1237.48471027 -256.473244653,1238.3891152 -255.434514048,1239.03875819 -252.866750681,1240.07691319 -252.813903518,1250.19096469 -256.601784846,1249.47763099 -255.818939333,1250.19096469 -254.370904028,1251.22912001 -252.546509086,1252.13989433 -253.22229177,1258.17138641 -305.130481199,1238.26173422 -304.666390514,1233.98173365 -307.941204933,1231.5806026 -308.619863872,1227.88655514 -306.122208028,1223.86131765 -297.797766262,1213.29507137 "></polygon></g><g transform="translate(214.8899131 -1694.6106630000002) rotate(0)"><polygon class="317167965" points="-102.762133603,1912.87694927 -131.591612476,1896.8429056 -138.018243336,1909.9159359 -138.594730479,1910.98572135 -135.127691198,1927.31905672 -138.964495779,1927.07071356 -137.002436723,1935.2851423 -104.251017077,1938.25889333 -97.070204561,1938.90840643 -100.520169311,1921.2187302 -102.762133603,1912.87694927 "></polygon></g><g transform="translate(695.5134823999999 -378.48600239999996) rotate(0)"><polygon class="185148184" points="-333.131535025,804.802418369 -333.513597557,801.0 -325.798469538,802.044550399 -321.696477774,802.598671661 -313.303007718,858.170071113 -330.83602645,862.787755712 -333.859710508,863.208124269 -344.898993848,862.622155978 -350.997520201,860.775082077 -354.002114207,857.838871689 -355.839407155,854.310324163 -356.212348082,851.16393009 -356.814131557,848.348735625 -340.860487821,847.342399195 -325.01151283,849.437871919 -325.322977697,847.278707017 -331.963492117,804.955279417 -333.131535025,804.802418369 "></polygon></g><g transform="translate(696.4617069999999 -377.3830348) rotate(0)"><polygon class="392494961" points="-468.024620656,1073.48713466 -456.191292862,1086.63594256 -511.536376944,1119.5302697 -523.366389086,1106.37508218 -468.024620656,1073.48713466 "></polygon></g><g transform="translate(242.1557094 -1318.982497) rotate(0)"><polygon class="412129499" points="0.0,1797.28520635 -22.9670786541,1786.92375807 -27.4889586691,1802.21437824 -24.1244147485,1804.02938357 -24.5890048988,1805.19480809 -27.6550897401,1803.89564633 -30.5732080713,1813.22541196 -31.850499103,1812.7095682 -29.3943808828,1803.25243391 -32.5832849756,1801.56479741 -32.1960396856,1800.138267 -29.634237035,1801.17632261 -24.509782129,1786.01307161 -27.3930088045,1784.84764771 -34.1000640023,1787.0511268 -39.8672853341,1808.56371306 -41.2824735878,1813.35914923 -36.0616135407,1817.50500492 -29.5504539018,1820.87391105 -9.26601184588,1829.81520598 -4.82659041993,1814.26346795 -8.09603356048,1812.32109327 -8.04276085775,1811.15566852 -4.43934348151,1812.83693703 0.0,1797.28520635 "></polygon></g><g transform="translate(786.0408570000001 -1079.3681216999998) rotate(0)"><polygon class="280170298" points="-719.136920771,1805.00820353 -719.048550541,1803.98935015 -718.839059784,1801.59504483 -727.886944065,1798.74862355 -727.804101465,1797.76160951 -729.827654114,1797.12482627 -729.912514424,1798.10547246 -733.05162336,1797.11845844 -732.966763042,1796.13781228 -734.529518621,1795.64112138 -734.612361238,1796.62813536 -743.257548942,1793.90270328 -743.079319134,1791.82042236 -747.103584543,1790.55322394 -747.287019461,1792.63550478 -755.838834236,1789.94191216 -755.743125096,1788.81480609 -757.488584134,1788.26717264 -757.586310983,1789.38791087 -760.679741434,1788.41363275 -760.585523616,1787.33110154 -762.619484618,1786.69431849 -762.713702444,1787.77684968 -772.011624665,1784.84764771 -773.74620003,1804.75349018 -766.489461158,1807.03954254 -766.540725921,1807.68269379 -764.944723328,1808.18575269 -764.888253473,1807.54260144 -759.422648093,1809.26828453 -759.476778438,1809.88596448 -757.759362462,1810.42723043 -757.705232119,1809.80955047 -748.882547605,1812.58592644 -743.168908482,1814.38802381 -736.612599233,1816.45120253 -736.669390875,1817.12619313 -735.032915925,1817.64198784 -734.976124287,1816.96699723 -729.452410391,1818.71178429 -729.516746624,1819.41224628 -727.804534338,1819.95351236 -727.742215784,1819.24668253 -720.571614998,1821.50726447 -719.136920771,1805.00820353 "></polygon></g><g transform="translate(456.2074053 -413.40114959999994) rotate(0)"><polygon class="182759595" points="-267.482066268,802.503160246 -264.920615449,811.961606439 -262.590690783,811.999822388 -259.495321779,823.547410227 -280.538402209,823.184358595 -284.085974579,823.133403981 -281.55976988,832.216065183 -294.521259817,831.961292047 -303.89577762,826.432715431 -309.633386761,805.038150969 -311.175160578,805.038150969 -312.303007718,801.0 -267.482066268,802.503160246 "></polygon></g><g transform="translate(788.5314005 -841.2875101999999) rotate(0)"><polygon class="446906426" points="-418.789147281,1018.8845266 -437.524601047,1010.36971178 -435.179666745,1002.81655686 -434.498068526,1000.61302292 -429.4242563,984.303054829 -428.985747732,982.449794573 -422.011276832,985.59587905 -421.657990361,984.443163856 -445.194889035,973.839459514 -441.617983083,962.484264876 -406.272320356,978.98528081 -412.422166364,998.505018037 -413.305972988,1002.05869401 -418.789147281,1018.8845266 "></polygon></g><g transform="translate(802.8283621 -690.4216825999999) rotate(0)"><polygon class="246732889" points="-716.210657834,1394.19131965 -713.256599397,1437.83149973 -677.202028462,1445.07408029 -679.08737149,1417.18664959 -709.777300254,1411.02695729 -710.840840487,1395.27420189 -716.210657834,1394.19131965 "></polygon></g><g transform="translate(811.5813766000001 -673.8423266) rotate(0)"><polygon class="413619428" points="-656.826739724,1396.2286324 -658.100769534,1394.41415072 -659.929945013,1394.19131965 -676.202028462,1398.03674757 -669.715207026,1409.66853294 -666.915115186,1410.57259085 -663.615853673,1411.73767961 -661.506309254,1413.54579557 -659.625452936,1416.38530181 -658.050179872,1418.72184636 -656.397210384,1417.93238715 -653.487040368,1421.55498641 -655.143188684,1422.35081231 -643.43301005,1436.15998613 -639.384433208,1438.35646655 -620.073099472,1445.98366631 -616.045326013,1445.251506 -619.333090073,1439.39422402 -622.1354403,1434.40916849 -627.847440086,1435.70159023 -633.570969041,1425.52138286 -628.528289459,1424.38176008 -633.161019332,1416.14337078 -640.335022931,1417.81142163 -652.234615949,1396.61699516 -655.33984607,1397.38735409 -656.826739724,1396.2286324 "></polygon></g><g transform="translate(247.22055369999998 -1045.2567712) rotate(0)"><polygon class="246729721" points="-244.7827249,1784.84764771 -196.377548102,1788.46580333 -191.166414225,1811.42326395 -234.464707488,1808.18730581 -237.466400532,1794.95045639 -242.573351024,1794.56825677 -244.7827249,1784.84764771 "></polygon></g><g transform="translate(879.1307057 -473.37527549999993) rotate(0)"><polygon class="329778919" points="-590.189095765,1213.29507137 -584.987072194,1224.18994814 -635.970042192,1232.2831054 -681.763518023,1237.89928642 -683.150881764,1234.12969544 -637.968825924,1227.40556115 -640.859342358,1220.61775264 -590.189095765,1213.29507137 "></polygon></g><g transform="translate(525.3974146 -917.6673533000001) rotate(0)"><polygon class="450445971" points="-172.431162685,1667.36743213 -167.770993055,1689.21192843 -195.019833273,1683.44192317 -196.96577426,1679.94552969 -200.14816387,1678.71001004 -204.726590536,1677.93303379 -212.685720289,1677.2834307 -218.029586984,1676.50645448 -221.430615065,1675.46836332 -224.056627733,1672.68526018 -226.11527798,1668.60295139 -227.881832803,1661.62927364 -207.269438343,1663.69271787 -182.662708613,1666.31660392 -172.431162685,1667.36743213 "></polygon></g><g transform="translate(738.9273346 -1181.4141989) rotate(0)"><polygon class="247141743" points="-379.338794579,1897.3397572 -369.325005759,1912.08606102 -352.311360441,1918.29670912 -355.931955498,1940.64868116 -367.515038738,1936.0432438 -367.202255208,1934.92214156 -379.515634916,1929.93451103 -379.096849046,1928.65416154 -392.298944785,1923.1951595 -387.133704936,1896.8429056 -384.163664075,1898.0149658 -379.338794579,1897.3397572 "></polygon></g><g transform="translate(713.4223107 -830.0934426) rotate(0)"><polygon class="412450796" points="-326.523055707,1401.47042358 -342.262553796,1394.19131965 -344.092548454,1399.89742374 -346.611033003,1408.59668686 -349.121629098,1417.23863628 -351.909323793,1426.84858837 -353.827492666,1433.47811944 -354.584193229,1435.94270047 -355.015920345,1437.34375436 -349.503883531,1440.08854645 -350.455994046,1442.80786505 -341.119631699,1447.60329155 -338.121542203,1443.8459188 -326.523055707,1401.47042358 "></polygon></g><g transform="translate(846.8019976 -1169.7184482) rotate(0)"><polygon class="443714692" points="-458.221948386,1235.54154263 -465.690150155,1260.7304495 -487.839492607,1250.70583566 -476.745901724,1213.29507137 -465.226553791,1218.51117662 -468.851972324,1230.73304281 -458.221948386,1235.54154263 "></polygon></g><g transform="translate(698.9651593000001 -1408.3006065) rotate(0)"><polygon class="240194177" points="-330.7847115,1896.8429056 -337.473209576,1898.5748344 -351.311360441,1902.15967258 -331.618054377,1935.20005424 -315.416856107,1931.01031056 -314.425673076,1932.67219971 -310.09810773,1931.55153882 -312.371558691,1927.73747162 -330.7847115,1896.8429056 "></polygon></g><g transform="translate(822.3730643 -52.15233849999993) rotate(0)"><polygon class="377286004" points="-725.484894089,806.125689685 -721.591747155,830.480684924 -760.115891884,825.482338136 -764.028611424,801.0 -755.463111079,802.114280303 -753.951842921,811.544276726 -733.467361368,814.20581567 -734.95583571,804.896797556 -725.484894089,806.125689685 "></polygon></g><g transform="translate(254.2157791 -319.58743820000007) rotate(0)"><polygon class="396940661" points="-139.376436194,1084.86464493 -140.188584629,1087.57691149 -131.3549721,1104.74187085 -110.079814825,1098.79525565 -86.8937300766,1087.9652877 -92.2651383057,1082.92276407 -99.9813921547,1087.82521759 -106.703929889,1088.86937661 -113.059355329,1084.1515608 -120.251022479,1073.48713466 -125.898860024,1078.52965694 -139.376436194,1084.86464493 "></polygon></g><g transform="translate(554.171002 -529.1995769) rotate(0)"><polygon class="244091361" points="-311.02400353,1293.06842665 -284.999965457,1296.40595633 -285.934382255,1290.59075691 -267.324999511,1292.97925602 -264.032759371,1313.47576944 -308.666219445,1307.74973795 -311.02400353,1293.06842665 "></polygon></g><g transform="translate(342.35385 -858.0561266000001) rotate(0)"><polygon class="355903269" points="-313.054870022,1244.68054087 -326.511329682,1250.8888689 -326.112143497,1251.47468043 -336.1529661,1256.12933536 -339.865295687,1255.12326762 -335.848987887,1213.29507137 -327.362870293,1216.07767325 -309.619863872,1238.79058962 -312.160100903,1240.01951991 -310.598151757,1242.0889622 -313.940940231,1243.64263587 -313.054870022,1244.68054087 "></polygon></g><g transform="translate(698.3888062999999 -941.1572802999999) rotate(0)"><polygon class="450419565" points="-433.785243499,1316.96882691 -438.379840575,1320.0447837 -450.746284164,1328.33649462 -475.142389489,1302.88183975 -472.799475321,1301.31520409 -475.314847286,1298.69140793 -463.231785512,1290.59075691 -460.125660534,1293.83229079 -457.59068617,1292.13191837 -433.785243499,1316.96882691 "></polygon></g><g transform="translate(589.2166601 -1214.4512743) rotate(0)"><polygon class="241844811" points="-231.736569444,1394.19131965 -204.737305106,1400.69469188 -204.347095559,1428.38340141 -231.346375864,1421.88002421 -231.736569444,1394.19131965 "></polygon></g><g transform="translate(831.8379941999999 -635.2424367) rotate(0)"><polygon class="198572617" points="-483.082173188,962.484264876 -469.782050409,973.327463745 -465.548026234,976.778441413 -446.194889035,992.556162775 -451.845535796,998.420281337 -455.944277772,995.083909745 -458.179096766,997.401541887 -469.899818193,987.844493837 -474.685739375,992.810847599 -486.370323012,983.28563638 -481.866004391,978.612171381 -491.247154231,970.965263357 -483.082173188,962.484264876 "></polygon></g><g transform="translate(767.0557091000001 -1529.2983325999999) rotate(0)"><polygon class="277201237" points="-717.839059784,1787.03739283 -692.090056566,1835.10360575 -686.255626785,1835.03995028 -680.833470233,1833.88142074 -682.298659452,1831.11877352 -705.221495408,1787.8776439 -706.824137714,1784.84764771 -717.839059784,1787.03739283 "></polygon></g><g transform="translate(376.2579373 -1289.7838961999998) rotate(0)"><polygon class="443361972" points="-259.157364423,1784.84764771 -283.631055262,1792.23519774 -274.403221751,1810.76776527 -245.7827249,1805.45636865 -259.157364423,1784.84764771 "></polygon></g><g transform="translate(1064.7681226999998 -806.8604185) rotate(0)"><polygon class="326464534" points="-722.086288746,1594.12251341 -721.60898521,1586.35360217 -769.439491781,1566.47283863 -771.70864459,1578.71205178 -722.086288746,1594.12251341 "></polygon></g><g transform="translate(810.3097352 -1580.632308) rotate(0)"><polygon class="292838360" points="-726.433833856,1661.62927364 -738.651371953,1669.11736252 -737.465999398,1670.39084719 -725.054869833,1683.8643177 -711.241554458,1699.03152926 -700.843950488,1692.41577161 -712.631754722,1679.64271462 -711.000837778,1678.6175592 -713.061074167,1676.26161207 -726.433833856,1661.62927364 "></polygon></g><g transform="translate(937.3678833 -1039.7936430999998) rotate(0)"><polygon class="301510360" points="-550.23086883,1701.1370533 -559.620912757,1703.20635804 -562.521127871,1688.59388562 -564.924174105,1688.26916408 -570.038571144,1661.62927364 -560.675854743,1662.55250086 -558.226268004,1662.79445007 -555.654135419,1663.63490523 -553.635873316,1664.73004379 -552.549895679,1666.60833386 -551.63536574,1669.25704137 -551.383956969,1671.58739478 -552.532219884,1673.45931812 -553.707059635,1674.82187463 -555.042604591,1675.66233007 -554.419803881,1679.60355699 -551.725655023,1679.73089873 -550.006359139,1689.75906294 -552.052700733,1689.68902495 -550.23086883,1701.1370533 "></polygon></g><g transform="translate(541.5395009 -34.20500449999997) rotate(0)"><polygon class="219917091" points="-498.853910079,819.024050372 -501.187399142,805.292652876 -539.070622271,801.0 -537.037816534,813.763319545 -532.381370915,814.820560788 -502.811195024,818.877565121 -498.853910079,819.024050372 "></polygon></g><g transform="translate(385.6581468 -1747.8677042) rotate(0)"><polygon class="225367724" points="-224.857120477,1896.8429056 -213.112622768,1918.30779655 -235.283994828,1922.9165115 -247.026400085,1901.45798336 -235.301701812,1899.01358348 -224.857120477,1896.8429056 "></polygon></g><g transform="translate(373.82965279999996 -310.2504339000001) rotate(0)"><polygon class="285975389" points="-207.41197912,989.386030175 -216.08321292,982.596899065 -198.763569303,962.484264876 -193.167262032,966.241849258 -189.094906111,969.923008575 -186.631839561,973.521374015 -181.706358675,984.88966365 -207.41197912,989.386030175 "></polygon></g><g transform="translate(959.6901312 -1163.2882403) rotate(0)"><polygon class="185193578" points="-761.344216605,1421.81234195 -766.638553658,1395.01288076 -772.861996197,1394.71355229 -783.706954031,1394.19131965 -790.109548823,1395.31857792 -791.590839839,1398.77040857 -791.351823883,1401.19051144 -791.164498344,1403.10111908 -783.37630833,1409.99841352 -778.815862127,1412.84521964 -766.876278491,1420.29022373 -761.344216605,1421.81234195 "></polygon></g><g transform="translate(590.0513748999999 -1114.9108645000001) rotate(0)"><polygon class="412123954" points="-228.881832803,1671.88251174 -251.768013145,1661.62927364 -257.308264981,1680.71558319 -234.414882025,1690.97519521 -228.881832803,1671.88251174 "></polygon></g><g transform="translate(733.2351166999999 -1310.058473) rotate(0)"><polygon class="371137434" points="-393.963134129,1593.28086839 -405.318922336,1581.5006153 -402.146272022,1579.29739002 -404.761772329,1576.58474868 -403.697683279,1575.5595486 -405.539390482,1573.80843052 -412.959332747,1566.47283863 -414.05707298,1566.86763607 -426.15494126,1575.85883061 -400.56809695,1600.62283349 -393.963134129,1593.28086839 "></polygon></g><g transform="translate(870.8593843 -954.6514187) rotate(0)"><polygon class="252080159" points="-767.207790688,965.541005108 -762.875037511,976.233229757 -723.673312287,973.176488615 -728.000900973,962.484264876 -767.207790688,965.541005108 "></polygon></g><g transform="translate(707.541088 -312.4905143) rotate(0)"><polygon class="185148180" points="-342.476683159,1097.07844836 -332.157472545,1098.56882884 -325.851272033,1099.4732478 -322.832398539,1099.91271899 -326.13943221,1076.39783317 -327.339524261,1076.22586629 -344.723038291,1073.72279295 -346.354684118,1073.48713466 -345.545873838,1079.25120961 -343.791406335,1091.74110336 -343.049683231,1096.99564944 -342.476683159,1097.07844836 "></polygon></g><g transform="translate(345.6389536 -994.6427610000001) rotate(0)"><polygon class="298611913" points="-8.85596755743,1685.55693796 0.0,1675.21035415 -17.85614968,1661.62927364 -33.387385151,1679.73738214 -25.4646459064,1685.607875 -21.6108170656,1688.46671623 -16.1544572214,1682.58348865 -15.085796516,1681.32916428 -14.7999190824,1680.90256666 -8.85596755743,1685.55693796 "></polygon></g><g transform="translate(599.8480751 -33.11387459999992) rotate(0)"><polygon class="242107186" points="-386.075366761,817.358853036 -357.814131557,820.402657581 -360.482180021,805.947772199 -365.492367803,805.495659139 -366.041004545,802.980382355 -389.259320439,801.0 -388.72775762,804.215733462 -387.652019854,809.53920573 -387.16580219,811.939862742 -386.075366761,817.358853036 "></polygon></g><g transform="translate(1045.8992574000001 -1568.4112758) rotate(0)"><polygon class="331933011" points="-656.294069594,1788.011611 -653.413601529,1804.92640549 -656.793739614,1804.60173303 -657.54054729,1805.76673421 -657.319349451,1807.76569809 -672.598978514,1806.21872922 -673.271121772,1803.24574809 -675.506636333,1801.69877941 -676.330294438,1801.54599239 -677.284865163,1801.37410699 -679.833470233,1784.84764771 -656.294069594,1788.011611 "></polygon></g><g transform="translate(604.9841536 -845.1959004) rotate(0)"><polygon class="221661753" points="-375.42118052,1566.47283863 -362.765869209,1576.09983132 -380.302660694,1596.71637604 -392.963134129,1587.08937776 -375.42118052,1566.47283863 "></polygon></g><g transform="translate(475.1831839 -1122.4926707999998) rotate(0)"><polygon class="447197456" points="-270.900905936,1900.94346278 -268.433753696,1914.32121548 -292.592260709,1911.46228552 -293.703318947,1903.81512655 -308.330419093,1901.94950017 -309.09810773,1896.8429056 -270.900905936,1900.94346278 "></polygon></g><g transform="translate(185.5214718 -513.6098387) rotate(0)"><polygon class="376406579" points="-38.8539808357,1217.82231906 -33.6070490045,1229.03537805 0.0,1224.50812893 -5.24697348196,1213.29507137 -38.8539808357,1217.82231906 "></polygon></g><g transform="translate(829.1247878 -1512.1947409) rotate(0)"><polygon class="376406588" points="-609.22563667,1789.64232587 -603.873046162,1800.81080847 -570.821408998,1796.00976136 -576.172018939,1784.84764771 -609.22563667,1789.64232587 "></polygon></g><g transform="translate(515.4142296 -1299.793646) rotate(0)"><polygon class="181203217" points="-129.184619319,1397.20285479 -135.074972543,1395.72573815 -141.191632152,1394.19131965 -141.179381581,1426.73883351 -133.068434973,1428.76987067 -133.068938482,1424.14751039 -129.169683097,1425.12164412 -129.184619319,1397.20285479 "></polygon></g><g transform="translate(429.50802250000004 -1417.9370967) rotate(0)"><polygon class="393413919" points="-45.9980975201,1661.62927364 -40.6522631593,1685.78466524 -37.5733344523,1685.70824425 -35.387385151,1696.76381512 -38.251421709,1696.99307814 -37.777857645,1699.26660323 -40.1558011441,1699.41944526 -46.1807696808,1699.79518191 -54.2052146725,1662.9093243 -47.6107484598,1662.53995644 -45.9980975201,1661.62927364 "></polygon></g><g transform="translate(505.7203292 -1279.4391194) rotate(0)"><polygon class="277182905" points="-412.072675698,1914.90814055 -418.810068065,1907.3968719 -422.709341154,1903.52665952 -430.123320181,1896.8429056 -432.864259666,1899.16630563 -434.3492358,1900.19751336 -435.602305556,1900.19751336 -437.606166385,1899.16630563 -439.431431359,1905.23260834 -439.209585786,1907.68331855 -438.34277399,1910.39501368 -436.640884459,1913.10034354 -434.210603072,1916.3276432 -432.298268969,1918.39005971 -430.251679327,1919.55494316 -427.774901587,1920.32516666 -425.123172768,1920.32516666 -422.874300998,1919.94323765 -414.31627778,1917.4861611 -412.056342152,1916.71593766 -411.773338712,1915.81203909 -412.072675698,1914.90814055 "></polygon></g><g transform="translate(451.572208 -733.2692156) rotate(0)"><polygon class="450419568" points="-433.834085832,1073.48713466 -441.394664557,1078.5309373 -416.846695373,1105.65412553 -408.529863466,1100.0371593 -433.834085832,1073.48713466 "></polygon></g><g transform="translate(394.69095059999995 -688.4744030999999) rotate(0)"><polygon class="412123942" points="0.0,1404.53371596 -22.6487837484,1394.19131965 -26.9032305809,1408.22106118 -4.2564737225,1418.55709306 0.0,1404.53371596 "></polygon></g><g transform="translate(274.0456267 -776.3368280000001) rotate(0)"><polygon class="359863729" points="-195.410378586,1291.201972 -190.064139417,1296.26359734 -192.121789677,1298.25004673 -192.113108282,1298.93129703 -190.920968155,1299.93088861 -192.310798756,1304.22849604 -191.723343399,1307.16996987 -214.440506362,1309.23918862 -217.067226406,1303.38807499 -200.38093122,1290.59075691 -197.768080675,1293.11201921 -195.410378586,1291.201972 "></polygon></g><g transform="translate(1032.5249278000001 -834.8245874000002) rotate(0)"><polygon class="405818746" points="-691.069641667,1241.11698994 -684.150881764,1235.16788743 -708.2039763,1213.29507137 -715.119505946,1219.23780081 -691.069641667,1241.11698994 "></polygon></g><g transform="translate(473.50821470000005 -1210.9609845) rotate(0)"><polygon class="224659159" points="-97.1621659666,1230.54277365 -80.9245507255,1235.81644498 -80.0572975388,1220.81068657 -80.048719646,1220.60687325 -99.6432497386,1213.29507137 -97.1621659666,1230.54277365 "></polygon></g><g transform="translate(533.3554586 -1106.1102939000002) rotate(0)"><polygon class="357540188" points="-276.126418941,1572.57185041 -281.467391269,1566.47283863 -286.590715357,1569.80246602 -291.589324941,1573.01749849 -290.057011803,1575.36033423 -286.750759987,1578.97645055 -287.794177646,1579.61945719 -288.468091675,1579.33296908 -288.686099635,1580.05237256 -287.975551476,1580.82907367 -287.738168381,1580.67628001 -283.45432953,1585.36831905 -283.693742344,1585.51474633 -283.11538513,1586.1704859 -282.301384553,1586.11318826 -282.258970204,1585.49564712 -281.320096229,1584.91630441 -277.781819144,1588.78707788 -267.838843984,1581.86043092 -276.126418941,1572.57185041 "></polygon></g><g transform="translate(779.1332888 -387.6990816) rotate(0)"><polygon class="236776861" points="-398.788674092,801.388408152 -402.154050707,801.0 -392.965898906,852.88117898 -390.259320439,853.046730237 -398.788674092,801.388408152 "></polygon></g><g transform="translate(721.1712110999999 -1242.1968587) rotate(0)"><polygon class="266149315" points="-667.663903486,1296.88799938 -668.099240522,1297.15542527 -654.107770147,1312.50058105 -643.408461513,1305.9231753 -657.390709378,1290.59075691 -667.663903486,1296.88799938 "></polygon></g><g transform="translate(299.8599284 -793.3885596000001) rotate(0)"><polygon class="180522744" points="-229.74570698,1585.96682094 -252.629241102,1576.52870077 -249.830737159,1566.47283863 -226.959012761,1576.99360137 -229.74570698,1585.96682094 "></polygon></g><g transform="translate(698.7347608 -917.789748) rotate(0)"><polygon class="412123952" points="-310.972602548,1098.368699 -316.669808086,1098.38143592 -321.832398539,1093.18477299 -316.886508266,1073.48713466 -311.133949105,1078.91942763 -305.487355976,1079.05953367 -310.972602548,1098.368699 "></polygon></g><g transform="translate(823.4114505 -510.15878540000006) rotate(0)"><polygon class="347320346" points="-746.367323518,1290.59075691 -739.242649923,1291.50145544 -734.624267401,1292.09372792 -727.332136705,1293.02353205 -721.278537642,1293.69222681 -716.286380361,1302.67184343 -744.602355873,1299.27742072 -746.367323518,1290.59075691 "></polygon></g><g transform="translate(474.1056555 -465.2842327999999) rotate(0)"><polygon class="221661731" points="-293.24049805,1073.48713466 -289.807439209,1076.05304181 -287.22722444,1077.98224755 -285.404740043,1079.34478897 -282.127795025,1081.79609024 -284.331733911,1084.47023728 -290.566993288,1092.04062131 -293.369472821,1095.43424226 -296.80975184,1092.86196669 -299.012686155,1091.21927595 -301.144214528,1089.62115441 -304.487355976,1087.12528347 -302.000474571,1084.11368433 -295.873602564,1076.67700933 -293.24049805,1073.48713466 "></polygon></g><g transform="translate(1110.1076577 -846.4555091) rotate(0)"><polygon class="395655352" points="-740.122022414,1213.29507137 -739.541364653,1217.72084169 -738.949231288,1222.24850081 -736.017208529,1222.74520607 -731.252085114,1223.37563967 -730.839082357,1226.02473453 -726.084368969,1226.65516819 -726.585689455,1223.4647919 -726.091936605,1223.01903076 -724.653922156,1223.20370323 -723.988423838,1223.80866478 -723.487102929,1226.9990411 -716.119505946,1227.9733477 -716.820739939,1223.52847206 -718.304436595,1223.33106356 -718.988988818,1218.98807675 -717.505292493,1219.18548522 -717.729650834,1217.77178581 -717.910346462,1216.36445447 -721.148960913,1215.91869342 -740.122022414,1213.29507137 "></polygon></g><g transform="translate(559.1288684 -272.9192766) rotate(0)"><polygon class="324750357" points="-187.891583384,806.04957576 -176.514423155,801.0 -164.778911666,816.403436993 -176.926403565,821.453014932 -187.891583384,806.04957576 "></polygon></g><g transform="translate(766.2896736 -593.7766124999998) rotate(0)"><polygon class="392695041" points="-376.041576463,1074.00294593 -375.069795615,1079.8933838 -374.188324504,1085.54820508 -373.13581668,1092.31743487 -372.757184091,1094.74365959 -372.117208756,1098.83194414 -383.5718733,1097.29724537 -386.149848297,1080.77217354 -384.550773416,1080.98868695 -382.053363122,1080.80401374 -380.540661884,1080.28820238 -379.635318563,1079.18653121 -379.224830769,1077.18059824 -379.34925584,1073.48713466 -376.041576463,1074.00294593 "></polygon></g><g transform="translate(278.611259 -493.17048480000005) rotate(0)"><polygon class="329778943" points="-87.703312904,962.484264876 -105.871326183,965.769917726 -101.085343071,977.142354155 -82.1213595061,973.576528233 -87.703312904,962.484264876 "></polygon></g><g transform="translate(751.1794659999999 -730.2114477) rotate(0)"><polygon class="270200277" points="-518.471071772,962.484264876 -510.689557716,965.196964267 -503.755508596,967.616743241 -506.797877526,982.867722387 -513.921629962,980.670816848 -517.138525674,979.68380136 -516.331900695,974.799667055 -520.40871551,973.315960156 -518.471071772,962.484264876 "></polygon></g><g transform="translate(579.0154999 -1595.0890468999999) rotate(0)"><polygon class="377285990" points="-395.978575184,1899.03962939 -393.298944785,1914.95155446 -404.756563965,1913.59531567 -410.773338712,1896.8429056 -395.978575184,1899.03962939 "></polygon></g><g transform="translate(1062.4822262 -510.7445696000001) rotate(0)"><polygon class="185515238" points="-755.981502131,1291.96012503 -765.1480944,1290.87099969 -767.991729055,1290.59075691 -766.751447009,1297.70510254 -765.924476797,1302.43738514 -750.131283518,1304.29080958 -747.367323518,1304.61563656 -748.641872347,1297.31021492 -749.927681089,1297.16372435 -755.179924656,1296.54591632 -755.981502131,1291.96012503 "></polygon></g><g transform="translate(983.7151844 -526.4639063) rotate(0)"><polygon class="298611921" points="-730.617710488,1087.71129847 -728.757164838,1094.9889279 -729.489350789,1096.0904415 -739.809202895,1088.30980862 -742.723786614,1086.08131343 -743.07936448,1085.81389401 -746.083279512,1083.45168928 -746.420935745,1083.15880137 -749.190399886,1080.99397778 -753.800194589,1077.49205755 -750.37852957,1074.39126665 -749.198558361,1073.48713466 -735.381303238,1084.06930075 -730.617710488,1087.71129847 "></polygon></g><g transform="translate(910.8803241 -395.38919050000004) rotate(0)"><polygon class="185515258" points="-768.784459795,801.94900373 -767.493808554,802.127340004 -765.028611424,818.336837177 -779.248170753,816.419721415 -780.632494277,807.330938109 -774.77389638,808.120713161 -775.859968843,801.0 -768.784459795,801.94900373 "></polygon></g><g transform="translate(572.6886814 -758.5896711) rotate(0)"><polygon class="437714017" points="-273.751737822,1073.48713466 -281.127795025,1073.7863779 -272.522661161,1095.30006373 -268.695492789,1094.94988525 -269.195298537,1097.45206972 -267.04342438,1098.50897212 -265.946459163,1094.61244054 -273.751737822,1073.48713466 "></polygon></g><g transform="translate(933.098577 -662.7402411) rotate(0)"><polygon class="377121568" points="-595.843282787,1396.64910108 -594.139304956,1405.96447629 -613.581926293,1403.63404043 -615.045326013,1394.19131965 -595.843282787,1396.64910108 "></polygon></g><g transform="translate(881.3338269 -1171.1815619000001) rotate(0)"><polygon class="292846303" points="-751.55365409,1661.62927364 -758.519345292,1665.92729225 -751.672078701,1673.42176446 -752.041570755,1673.65099218 -745.781804373,1680.50872222 -745.293767372,1681.09452651 -744.671007572,1680.71248023 -741.012801355,1678.45203981 -742.735965545,1676.56727833 -739.651371953,1674.66341464 -743.239083915,1670.76017602 -748.194055567,1665.32238589 -751.55365409,1661.62927364 "></polygon></g><g transform="translate(253.81287149999997 -357.8887082) rotate(0)"><polygon class="167246604" points="-127.178128697,966.853287359 -112.84731004,981.106749227 -106.871326183,976.737725017 -121.20736976,962.484264876 -127.178128697,966.853287359 "></polygon></g><g transform="translate(552.8152784 -295.7725025000001) rotate(0)"><polygon class="220892650" points="-400.937623936,1089.10659718 -387.149848297,1080.72697436 -393.738925714,1073.48713466 -407.529863466,1081.87312326 -400.937623936,1089.10659718 "></polygon></g><g transform="translate(793.6734926 -1106.1925409) rotate(0)"><polygon class="358298627" points="-476.314847286,1296.35565378 -477.849077196,1309.05117019 -489.959319346,1302.63015581 -487.410249963,1290.59075691 -476.314847286,1296.35565378 "></polygon></g><g transform="translate(253.0852016 -552.8875037) rotate(0)"><polygon class="185631123" points="-120.116337814,1290.59075691 -121.878974971,1293.66696074 -123.228331814,1296.02347316 -105.523115145,1307.03539406 -102.555026144,1301.52624871 -107.532102669,1298.43093736 -120.116337814,1290.59075691 "></polygon></g><g transform="translate(640.9087143 -1346.4391596) rotate(0)"><polygon class="299906179" points="-540.941945514,1664.24604791 -549.006359139,1661.62927364 -547.074441044,1663.71123272 -542.980810368,1669.33315954 -539.623347624,1675.7318429 -537.642083144,1681.95862245 -531.811391103,1685.25665133 -532.693178058,1681.83128544 -533.910013333,1677.56549566 -535.575391996,1673.42704339 -537.387922925,1669.93801015 -538.477965784,1667.60774362 -540.941945514,1664.24604791 "></polygon></g><g transform="translate(836.8263529999999 -346.01552119999997) rotate(0)"><polygon class="299906171" points="-766.578681091,1092.94421643 -761.021651821,1097.91672497 -761.588532059,1093.338961 -760.769920668,1087.621532 -759.000191319,1083.09470413 -754.800194589,1076.46045111 -759.44538862,1073.48713466 -761.665389115,1075.94473667 -763.589163732,1079.75847693 -765.156166433,1083.82689144 -766.399685253,1088.02901021 -766.578681091,1092.94421643 "></polygon></g><g transform="translate(973.5440463 -799.8339960999999) rotate(0)"><polygon class="299854201" points="-593.139304956,1412.8780962 -591.004012422,1418.95209657 -590.022517707,1417.85062682 -587.617853739,1414.87729537 -583.795015778,1407.38348252 -582.987792323,1403.11767642 -582.793196893,1398.46349154 -587.919185883,1394.19131965 -587.85473749,1396.58526389 -587.967936238,1399.30391886 -588.306686565,1401.75516532 -589.144187636,1404.60115818 -590.25930167,1407.89919941 -593.139304956,1412.8780962 "></polygon></g><g transform="translate(84.970744 -1152.6747048999998) rotate(0)"><polygon class="299854164" points="-55.2052146725,1674.55399422 -60.6115233371,1675.10791092 -63.2513279814,1672.94317903 -70.6499299334,1668.54368022 -78.9544626351,1665.41755332 -82.6351481823,1664.60896249 -77.9434476346,1661.62927364 -73.8382575883,1662.92174548 -70.2743385907,1664.4752585 -65.9439155739,1666.67182416 -61.2310720157,1669.64514658 -55.2052146725,1674.55399422 "></polygon></g><g transform="translate(365.9107124 -425.94225330000006) rotate(0)"><polygon class="220792589" points="-342.900897661,1213.47971426 -363.428555426,1213.29507137 -363.350654216,1214.8486185 -362.838082401,1218.21039285 -351.345989839,1218.97443252 -340.865295687,1218.7834226 -342.900897661,1213.47971426 "></polygon></g><g transform="translate(503.4166482 -1095.7284185) rotate(0)"><polygon class="185193599" points="-496.881811409,1234.75126392 -500.960626287,1213.29507137 -488.839492607,1221.08400533 -491.800996088,1226.26176857 -493.550313968,1225.19182481 -495.284100446,1228.10869537 -493.565195,1229.19774535 -496.881811409,1234.75126392 "></polygon></g><g transform="translate(904.1024001000001 -155.84709329999998) rotate(0)"><polygon class="330741667" points="-717.807350807,801.0 -715.620090838,803.425853634 -703.028391665,817.38884116 -708.855712984,820.95440201 -712.565893787,816.898576571 -709.611483622,815.096695088 -720.591747155,802.878285608 -717.807350807,801.0 "></polygon></g><g transform="translate(586.420099 -715.7931780000001) rotate(0)"><polygon class="299906230" points="-582.920722403,1213.29507137 -583.987072194,1217.80919105 -563.937136197,1224.93373372 -563.336585765,1220.01849948 -582.920722403,1213.29507137 "></polygon></g><g transform="translate(889.7746277 -59.890810699999975) rotate(0)"><polygon class="220789412" points="-695.2020312,815.930608809 -700.412001804,811.900298861 -702.028391665,810.646000282 -693.555399782,801.0 -691.503902669,802.591749041 -686.729028551,806.284607091 -695.2020312,815.930608809 "></polygon></g><g transform="translate(497.98259820000004 -1178.742511) rotate(0)"><polygon class="275739630" points="-490.592146426,1672.22451056 -495.492007533,1670.68998387 -494.703808402,1661.62927364 -492.04532176,1662.46339374 -476.03715509,1667.46811475 -476.212769956,1669.5056604 -489.98476629,1665.20134535 -490.592146426,1672.22451056 "></polygon></g><g transform="translate(791.8482258 -1487.4040934000002) rotate(0)"><polygon class="284911284" points="-616.050436948,1661.62927364 -614.632029892,1665.5832486 -612.690099755,1671.96946029 -612.249655816,1673.45299717 -609.914437037,1681.125367 -614.906199742,1681.08716433 -620.115709483,1663.88323032 -616.908063286,1662.10680682 -616.050436948,1661.62927364 "></polygon></g><g transform="translate(231.0725223 -1247.191773) rotate(0)"><polygon class="301843493" points="-30.6646938859,1395.43290817 -34.1428346137,1394.99994396 -39.0125760294,1394.3632319 -40.2951972146,1394.19131965 -38.4799737254,1404.73527281 -33.637112497,1405.35288369 -28.9032305809,1405.93865897 -30.6646938859,1395.43290817 "></polygon></g><g transform="translate(269.3164244 -1096.2638462) rotate(0)"><polygon class="201148562" points="-253.629241102,1576.14657596 -254.904638003,1568.12227753 -256.254475436,1568.05222414 -266.838843984,1566.47283863 -265.804291153,1574.14686967 -253.629241102,1576.14657596 "></polygon></g><g transform="translate(132.80787759999998 -1018.2810266) rotate(0)"><polygon class="299669470" points="-93.0358811904,1290.59075691 -89.4533605827,1293.952489 -87.1592622289,1296.14270856 -92.8495287014,1300.12203224 -96.1201883283,1302.40138904 -101.555026144,1297.14231463 -93.0358811904,1290.59075691 "></polygon></g><g transform="translate(233.3150325 -635.7700258000001) rotate(0)"><polygon class="376469091" points="-175.901099367,1299.2487417 -180.99069829,1302.27267072 -189.064139417,1293.4300664 -183.614001185,1290.59075691 -175.901099367,1299.2487417 "></polygon></g><g transform="translate(287.3745079 -1049.7190372) rotate(0)"><polygon class="329066278" points="-218.067226406,1292.80032669 -219.689211694,1303.10316392 -225.629663171,1301.01457863 -224.051286669,1290.59075691 -218.067226406,1292.80032669 "></polygon></g><g transform="translate(490.9945392 -1107.6896028) rotate(0)"><polygon class="300089565" points="-488.570011741,1566.91215837 -484.275632436,1566.57470987 -482.403747078,1566.47283863 -475.697351269,1573.37461609 -477.551603585,1573.48285431 -482.270045801,1573.76300028 -488.570011741,1566.91215837 "></polygon></g><g transform="translate(505.203166 -517.1171835) rotate(0)"><polygon class="298133567" points="-499.641371102,962.484264876 -495.721513334,966.451001858 -492.247154231,969.965671271 -494.882330984,971.710271797 -497.508483006,968.997863717 -498.290709791,969.53270473 -498.997259984,968.83231769 -499.701786322,968.138297819 -502.755508596,965.062962222 -499.641371102,962.484264876 "></polygon></g><g transform="translate(183.197329 -237.85882100000003) rotate(0)"><polygon class="163806019" points="-179.861877162,972.39259952 -178.717724512,972.602737752 -179.565390232,962.700770874 -180.706358675,962.484264876 -179.861877162,972.39259952 "></polygon></g><g transform="translate(177.39209140000003 -535.5783008) rotate(0)"><polygon class="163806018" points="-173.183144264,1297.54442291 -174.327297253,1297.33428463 -174.901099367,1290.59075691 -173.762151748,1290.80089515 -173.183144264,1297.54442291 "></polygon></g></g><g transform="translate(0 882.2)"><polygon class="bin" points="196.2500005,798.749999 197.348350071,801.401649429 200.0000005,802.499999 596.2499995,802.499999 598.901649929,801.401649429 599.9999995,798.749999 599.9999995,3.75 598.901649929,1.09834957055 596.2499995,0.0 311.4329656,0.0 309.025098384,1.55253339102 308.801613473,1.29569716324 197.538395536,98.1108955735 196.2500005,100.939853155 196.2500005,188.247419842 197.137200431,190.66958329 199.379000909,191.945643674 201.91464181,191.471803296 203.544325571,189.472270769 205.982262819,182.417663617 206.955355215,180.572397446 214.941204694,169.797948563 218.418072951,167.580456321 222.487428818,168.248458976 229.675284862,172.439934139 232.436006318,176.531773749 230.953109757,181.23982559 217.025206899,196.057078316 216.022809091,198.287947941 216.609025749,200.662380647 217.412783883,201.904787353 215.998708618,206.309583444 216.058348386,208.773485934 217.63453199,210.668220118 219.29049905,211.665544656 221.713753517,212.171193825 223.924115392,211.056678829 247.519864774,186.5963606 251.023748211,184.863769894 254.83044635,185.751530544 258.804016977,188.316905149 259.875317832,189.991589214 261.862237889,191.532945731 266.126370726,192.935939087 266.638682624,193.354761505 269.144827074,198.2478333 269.140121801,198.76698916 270.71040058,200.730395008 270.997642509,200.908232748 273.384048849,203.824294443 273.476920252,207.591219706 266.312172368,230.274299676 264.994947971,232.653668344 208.993998187,298.43445958 208.563282093,298.895705835 197.379568264,309.820628817 196.2500005,312.503134157 196.2500005,406.77160827 197.127794413,409.182610592 199.350231005,410.464885893 201.876861574,410.018128332 305.020226147,350.389429821 306.406340844,349.78077943 310.974324648,348.350990777 314.675538444,348.428504784 317.578406244,350.725970895 337.966321032,382.048438696 338.137727215,389.106923524 319.49509465,421.037981692 319.26943322,424.364824076 321.782747387,426.556183296 322.593763054,426.768760813 326.380663302,430.048594044 326.091197828,435.05000677 289.222632179,500.160124115 286.712476917,502.701040329 258.934826072,518.880051479 254.763853084,519.521649804 251.273638259,517.149506353 241.606422781,502.990759809 240.742589717,498.528079411 243.400428869,494.840585014 285.797388872,469.518795729 287.09843705,468.214751916 293.586903125,457.293962038 293.56729002,453.430434995 257.923463666,394.801823128 255.563783583,393.096256644 252.694961304,393.59315287 197.975789797,428.680863351 196.2500005,431.837613425 196.2500005,536.704761922 197.518150484,539.515975271 200.464891431,540.425833867 203.097204951,538.818957889 209.184174469,529.901814265 212.045427667,527.698639445 215.655508291,527.608822766 282.111581531,547.496558767 285.212032096,549.74422018 286.235442784,553.434397154 284.82050506,574.854848421 284.429955263,576.726850418 281.032261161,586.169687532 280.912737242,586.478334212 275.712158022,599.003736597 275.180572131,600.030411648 206.224447842,709.532728324 203.389007152,711.861697085 199.830155767,712.02304991 197.28896585,713.178296173 196.2500005,715.769201637 196.2500005,798.749999 " transform="translate(-196.25 0)"></polygon><g transform="translate(725.1467324 -218.73418590000006) rotate(0)"><polygon class="275609108" points="-623.146582515,1008.07954623 -622.902572523,1009.94512734 -622.372388866,1013.95644543 -624.325316684,1013.11597875 -691.605369914,982.63634054 -691.260180357,980.414199567 -722.673312287,965.820658289 -721.105442417,962.484264876 -691.419863319,977.077804785 -658.673581551,992.575488543 -623.146582515,1008.07954623 "></polygon></g><g transform="translate(317.3939705 -560.1839765) rotate(0)"><polygon class="252080161" points="-226.629663171,1300.83083878 -230.657867604,1290.59075691 -261.461609976,1292.6795296 -260.122634765,1296.08652188 -263.032759371,1296.2839364 -250.047181487,1329.25854407 -240.109164607,1328.58351317 -250.398348725,1302.44836442 -226.629663171,1300.83083878 "></polygon></g><g transform="translate(574.5212186 -1059.1244719000001) rotate(0)"><polygon class="201146424" points="-472.934205408,1842.6482299 -473.923731463,1842.48264855 -473.575143797,1834.24179305 -480.422517364,1789.1845987 -480.09019574,1784.84764771 -478.775366855,1785.07054532 -462.103626386,1787.90452941 -461.168181629,1788.063742 -460.250106463,1796.65485472 -473.963694383,1794.31761333 -469.967513159,1831.66891428 -466.32027858,1832.28665991 -465.071246176,1843.98561777 -472.934205408,1842.6482299 "></polygon></g><g transform="translate(740.0864214 -579.2264477000001) rotate(0)"><polygon class="181959264" points="-709.748308758,1330.62477556 -712.578597651,1325.40875947 -715.286380361,1320.41565077 -701.700631299,1317.13573917 -704.749447149,1303.89508939 -706.812401167,1294.9278796 -702.885097587,1295.31000497 -703.417517099,1293.16373419 -701.727738029,1291.98551437 -699.73666642,1290.59075691 -696.274954024,1290.88371966 -688.475232725,1325.81636022 -700.949140348,1328.7587282 -709.748308758,1330.62477556 "></polygon></g><g transform="translate(742.14527 -1002.9616570999999) rotate(0)"><polygon class="134484068" points="-662.510724811,1727.43071206 -666.760811529,1729.27091273 -667.124658198,1728.09292959 -699.843950488,1663.94703077 -689.672333324,1661.62927364 -687.618908234,1668.09225064 -685.330582833,1680.35599151 -682.16053235,1688.64643555 -662.510724811,1727.43071206 "></polygon></g><g transform="translate(762.8331922 -633.1717890000001) rotate(0)"><polygon class="305213058" points="-760.344216605,1400.46809247 -752.596325762,1394.19131965 -717.210657834,1422.04848627 -725.045864978,1428.71994992 -760.344216605,1400.46809247 "></polygon></g><g transform="translate(711.8526262 -1125.6828989) rotate(0)"><polygon class="238397011" points="-610.22563667,1818.53739808 -620.803646426,1821.52369577 -652.413601529,1790.82660505 -644.831650283,1784.84764771 -610.22563667,1818.53739808 "></polygon></g><g transform="translate(718.6127489999999 -264.715334) rotate(0)"><polygon class="412123949" points="-593.767065892,972.444547254 -615.993081261,962.484264876 -621.372388866,981.041979915 -599.14638992,991.002267436 -593.767065892,972.444547254 "></polygon></g><g transform="translate(417.3922858 -646.5033418999999) rotate(0)"><polygon class="383830157" points="-312.02400353,1302.16026006 -313.691984985,1313.15670379 -347.820038009,1301.51078868 -346.966636792,1296.2131402 -346.054958784,1290.59075691 -312.02400353,1302.16026006 "></polygon></g><g transform="translate(630.2469274 -544.9160294000001) rotate(0)"><polygon class="285497482" points="-536.971364888,1213.29507137 -531.396538512,1215.28160941 -523.370809847,1218.07040339 -521.613452294,1220.43896831 -522.4178722,1226.72967376 -516.92024122,1228.62070588 -516.140648946,1222.54648186 -513.570062397,1221.4831744 -506.538223033,1223.92814488 -501.960626287,1230.25705362 -520.388154697,1237.28634594 -526.641805527,1228.92632725 -529.332341448,1230.1360785 -536.602847362,1220.62361451 -536.20159368,1218.80898813 -536.17375907,1217.44005953 -536.161414117,1216.87338677 -536.971364888,1213.29507137 "></polygon></g><g transform="translate(733.1177036 -1040.4510999) rotate(0)"><polygon class="185610598" points="-629.171379025,1689.4107401 -625.580340924,1691.64625105 -623.517324038,1688.08599293 -621.115709483,1683.96526528 -633.836490574,1676.05499805 -657.046121752,1661.62927364 -659.402141082,1665.67994004 -661.510724811,1669.31025466 -653.987932136,1673.30997014 -650.978365927,1673.17622168 -649.713781776,1675.92761856 -629.171379025,1689.4107401 "></polygon></g><g transform="translate(154.6403788 -610.3989131999999) rotate(0)"><polygon class="376403773" points="-79.048719646,1218.38902782 -73.8182248784,1229.0927062 -40.8539808357,1223.99874821 -46.0845159594,1213.29507137 -79.048719646,1218.38902782 "></polygon></g><g transform="translate(260.6061377 -184.8140691000001) rotate(0)"><polygon class="376403747" points="-163.778911666,806.093957438 -158.622154386,816.663921445 -125.501739199,811.569962496 -130.658536472,801.0 -163.778911666,806.093957438 "></polygon></g><g transform="translate(240.2532591 -118.66240000000005) rotate(0)"><polygon class="412123959" points="-188.891583384,811.176811665 -211.472460406,801.0 -215.94986922,816.201533883 -193.363799531,826.378349853 -188.891583384,811.176811665 "></polygon></g><g transform="translate(351.524967 -220.32571719999999) rotate(0)"><polygon class="412123961" points="-217.08321292,972.533701058 -239.379084411,962.484264876 -243.783160692,977.45652475 -221.487302781,987.505965118 -217.08321292,972.533701058 "></polygon></g><g transform="translate(542.7007197 -640.5450050999999) rotate(0)"><polygon class="336165150" points="-424.523951302,1290.59075691 -401.089725379,1315.70726954 -409.349029138,1320.94067442 -432.785243499,1295.81779141 -424.523951302,1290.59075691 "></polygon></g><g transform="translate(368.3921754 -172.5669507) rotate(0)"><polygon class="299666254" points="-216.94986922,806.25270148 -217.89538762,806.92759409 -222.690855469,810.448496311 -231.136190383,817.019150217 -236.88815842,821.278615463 -238.974670485,819.266670679 -242.119791191,821.71156562 -252.755429334,811.193425036 -258.495321779,808.933171262 -257.435975925,808.092738909 -255.708426364,807.831695531 -253.725019684,807.704357299 -251.657240909,808.283746261 -249.03425028,809.512560244 -245.356932507,811.193425036 -242.365091687,812.485908245 -239.400197411,812.810620782 -236.939057638,811.715511843 -232.906809906,808.608458759 -228.053235544,805.106657454 -222.367141695,801.0 -219.386260941,803.909678178 -216.94986922,806.25270148 "></polygon></g><g transform="translate(339.4186108 -799.8578560999999) rotate(0)"><polygon class="261779549" points="-195.38874156,1578.70577817 -223.000700501,1566.47283863 -225.959012761,1576.88452819 -198.324747432,1589.2703035 -195.38874156,1578.70577817 "></polygon></g><g transform="translate(650.0411162 -969.0884136999999) rotate(0)"><polygon class="185193583" points="-527.047536207,1661.62927364 -510.795571618,1671.64721089 -513.061519645,1675.61490073 -496.492007533,1685.83027113 -501.400632112,1694.4025231 -504.131482562,1692.71482102 -508.53507057,1690.0017605 -508.033798124,1689.1165131 -505.685136437,1685.01507937 -511.601091737,1681.37219142 -516.523914573,1678.33432885 -518.26281508,1677.2643899 -517.412764535,1675.81869862 -530.811391103,1667.43114287 -527.047536207,1661.62927364 "></polygon></g><g transform="translate(723.1090001 -852.9720891) rotate(0)"><polygon class="181963432" points="-702.431215459,1591.48984697 -694.094481646,1578.39540256 -712.483065042,1566.47283863 -720.60898521,1579.62459874 -702.431215459,1591.48984697 "></polygon></g><g transform="translate(608.0746641 -832.9903578000001) rotate(0)"><polygon class="220530399" points="-468.566499324,1600.02746995 -450.963702468,1594.67273444 -453.044940678,1591.46371379 -460.371112506,1587.10861479 -470.883297964,1566.47283863 -474.697351269,1566.93126981 -470.543317208,1576.1062618 -468.722430444,1585.73332048 -469.170191208,1594.44351867 -468.566499324,1600.02746995 "></polygon></g><g transform="translate(825.6183572 -686.0894003999999) rotate(0)"><polygon class="375129181" points="-687.475232725,1308.42570495 -669.099240522,1311.78766688 -671.705227123,1293.02945153 -686.285745991,1290.59075691 -687.475232725,1308.42570495 "></polygon></g><g transform="translate(586.2489604 -915.124806) rotate(0)"><polygon class="220769440" points="-429.508305328,1573.60608609 -427.15494126,1588.30567549 -447.415682159,1580.33808968 -449.963702468,1566.47283863 -429.508305328,1573.60608609 "></polygon></g><g transform="translate(189.5083078 -118.91882009999995) rotate(0)"><polygon class="299674962" points="-101.575639588,836.432011424 -106.020456854,834.464626572 -109.828803981,832.420838542 -113.128583784,824.468530473 -116.806795861,816.35705074 -120.712629686,807.857189745 -124.501739199,801.0 -114.602711606,805.883439543 -107.957037052,820.330020174 -101.575639588,836.432011424 "></polygon></g><g transform="translate(681.196253 -393.6280501000001) rotate(0)"><polygon class="240453791" points="-536.23185262,1073.48713466 -548.905183252,1081.51020172 -537.037727164,1094.25796755 -526.28343981,1087.45109302 -524.366389086,1086.2285301 -536.23185262,1073.48713466 "></polygon></g><g transform="translate(483.3313242 -483.7772623000001) rotate(0)"><polygon class="185632367" points="-363.785936831,1074.18134425 -364.859284455,1073.48713466 -365.837308653,1075.07298963 -369.796639352,1081.44825468 -371.117208756,1083.58183515 -359.530178814,1091.03344552 -353.51273904,1094.89936707 -347.354684118,1084.70276105 -357.320168821,1078.37844659 -363.785936831,1074.18134425 "></polygon></g><g transform="translate(690.5711288 -634.4786495999999) rotate(0)"><polygon class="266170548" points="-548.377850404,1234.93111291 -537.971364888,1228.54472258 -542.275468369,1223.9602756 -550.88573485,1214.55579385 -552.025522936,1213.29507137 -557.378060866,1216.54238694 -562.336585765,1219.60505152 -548.377850404,1234.93111291 "></polygon></g><g transform="translate(546.4916258999999 -508.4741371000001) rotate(0)"><polygon class="284911280" points="-452.679035931,1073.48713466 -452.057258059,1075.52460883 -442.934587493,1105.26537803 -442.394664557,1107.02906819 -450.830468456,1107.04180241 -453.578980591,1097.8731614 -451.901204372,1097.73308495 -452.443125052,1096.19224413 -450.484068372,1096.13494014 -454.547335015,1084.56590191 -453.248236386,1084.52769926 -454.07124566,1082.18460337 -452.61519189,1082.0508941 -453.006176055,1080.85387778 -455.191292862,1074.1938835 -452.679035931,1073.48713466 "></polygon></g><g transform="translate(890.0461016 -503.6742577) rotate(0)"><polygon class="377030561" points="-768.578136646,1075.87488062 -767.578681091,1082.07028623 -777.806519319,1080.75225021 -776.099139523,1091.37294766 -784.400751236,1090.30323698 -787.112779778,1073.48713466 -768.578136646,1075.87488062 "></polygon></g><g transform="translate(289.3679493 -1103.4456361) rotate(0)"><polygon class="229076145" points="-157.327814156,1680.38121274 -143.592198943,1671.92532862 -153.037428658,1661.62927364 -166.770993055,1670.09152269 -157.327814156,1680.38121274 "></polygon></g><g transform="translate(268.6680787 -525.1604844999999) rotate(0)"><polygon class="443326482" points="-149.818410224,1073.48713466 -141.188584629,1082.2128762 -154.793679043,1091.87488591 -163.42146596,1083.15551118 -149.818410224,1073.48713466 "></polygon></g><g transform="translate(410.7649236 -1167.9308825) rotate(0)"><polygon class="185515239" points="-262.119843277,1913.38978785 -259.244117946,1915.1412866 -253.815860551,1918.39588997 -248.026400085,1907.79773057 -265.817326993,1896.8429056 -266.526186291,1898.07850779 -267.433753696,1899.65804054 -257.617231819,1905.84242145 -259.142218989,1908.40279367 -260.648023108,1910.92495156 -262.119843277,1913.38978785 "></polygon></g><g transform="translate(167.7152304 -434.18536430000006) rotate(0)"><polygon class="383830154" points="-116.325699997,1213.29507137 -117.903684255,1221.96742721 -101.959506672,1227.78720317 -100.643249739,1218.73280378 -116.325699997,1213.29507137 "></polygon></g></g></svg>