<svg><g transform="translate(0 0)"><polygon id="0" class="bin" points="-203.4571692,6.76599170385 -204.960155667,4.12198359301 -204.008708265,1.23329962786 -201.228650849,0.0 -1.875,0.0 0.77665042945,1.09834957055 1.875,3.75 1.875,1203.75 0.77665042945,1206.40165043 -1.875,1207.5 -231.417676672,1207.5 -233.502391168,1206.86712455 -234.883444533,1205.18211492 -236.10259412,1202.23173055 -240.166025505,1200.54599326 -296.789518728,1200.52354359 -299.576468787,1199.2809569 -300.517129174,1196.37815302 -298.988666501,1193.73714674 -298.352459757,1193.27605471 -297.012492381,1192.66255431 -286.977055209,1190.29613958 -283.485520904,1187.85332087 -282.628532365,1183.67914481 -283.734729023,1177.47393283 -283.777373632,1177.15704734 -284.367635218,1170.69751575 -284.383093965,1170.38367523 -284.433616096,1163.47102239 -284.425563992,1163.1964812 -283.93594424,1155.78317955 -283.923960916,1155.64222719 -283.775276837,1154.21323919 -282.913507494,1152.18543477 -281.061618265,1150.99164106 -280.216787354,1150.75380254 -278.049966476,1146.99439677 -277.09444699,1140.017609 -277.052650702,1139.63164669 -276.444179661,1132.00670751 -276.424744468,1131.28032052 -276.570547134,1125.7021617 -278.447950077,1121.60678768 -282.704828606,1120.13175707 -284.465198264,1120.25543934 -285.991441184,1120.36269135 -287.651789889,1120.6883006 -289.875724222,1121.41825182 -293.199986415,1120.92436027 -294.793566453,1117.96544989 -295.557280051,1091.98417836 -294.532230061,1089.29601796 -291.904276592,1088.12520867 -278.559774482,1087.7856948 -273.752103078,1085.61690163 -272.669096359,1084.4512887 -272.553298714,1084.33206941 -271.52351501,1083.31782804 -270.189221941,1081.47382998 -269.489942286,1080.06157502 -268.854352309,1078.04211454 -268.67173706,1076.83442905 -266.519416259,1073.98293755 -265.976533658,1073.73544915 -264.434699473,1069.62174485 -264.609620729,1064.42293453 -265.116652987,1062.05576703 -265.916557708,1060.10076906 -266.194492037,1058.78120445 -266.617025002,1043.02236786 -267.326997836,1041.29162881 -267.368943706,1038.55209541 -266.821325888,1037.09128907 -268.531941366,1033.13830027 -271.13458363,1030.56949929 -271.292989031,1030.4032766 -274.315991683,1027.0300781 -274.456031898,1026.86441418 -276.73346693,1024.00654619 -277.108576726,1023.43611603 -278.191821433,1021.40787195 -278.385634891,1020.98333935 -279.504009585,1018.06543112 -279.592456295,1017.8068419 -280.475603166,1014.88065059 -282.922210838,1011.73048086 -283.643361083,1008.72366272 -282.700183234,1003.80782522 -284.083841378,997.207300323 -284.127514549,996.957015106 -285.11209815,989.91279698 -285.142276985,989.604388428 -285.537405162,982.582741747 -285.541718334,982.262170299 -285.334752267,975.201934599 -285.31759086,974.937069922 -284.593094665,967.723492519 -284.583739661,967.639808227 -283.637808542,959.960049004 -283.60238626,959.590444772 -283.086938182,952.081660887 -281.922871278,949.614344739 -279.394836549,948.588800425 -239.739762847,948.069602747 -235.725215996,946.361684263 -234.065460678,942.326986721 -233.843029151,744.629697199 -235.559584323,740.529043694 -239.689189356,738.883357483 -254.20949642,739.149780549 -256.88203334,738.099119801 -258.02771879,735.465919002 -256.974715359,732.794304253 -249.289496617,724.842747364 -247.674676772,720.783081916 -249.380013771,716.760601039 -264.77793482,701.527086357 -265.316515099,700.855176532 -272.390361448,689.587875387 -272.643367493,688.079989351 -272.666320899,688.08693027 -274.901277784,680.695997107 -300.695792941,656.406754683 -301.874999,653.676641404 -301.874999,601.727604232 -300.785264225,599.084596677 -249.282486866,547.245528967 -247.613314095,543.160838618 -249.333634636,539.097425001 -252.387232536,536.100103561 -253.359726058,534.476069225 -255.420388381,527.426695005 -300.796685702,481.356765643 -301.874999,478.725304041 -301.874999,462.788839903 -301.085199851,460.486729801 -299.048486508,459.154328818 -271.133788205,452.061524701 -270.433648034,451.843261078 -266.738702418,450.471143488 -266.036944673,450.165062768 -262.213668966,448.237335587 -261.442828658,447.78347884 -257.599352539,445.16949476 -256.77994565,444.515496842 -253.648673592,441.598678735 -252.466685811,440.149644064 -250.40310494,436.766033069 -250.056389833,436.122964692 -248.391348519,432.598207036 -247.85482934,430.950707587 -247.225342485,427.648015934 -247.204583163,425.193503386 -251.692678631,399.269261466 -251.746870302,398.553433679 -251.688488445,395.678273683 -251.579646266,394.854349939 -250.959864381,392.347562014 -250.670100275,391.563620865 -248.961430761,388.163905902 -248.867048153,387.987951525 -247.027858733,384.768058372 -246.427038184,380.570720629 -248.860960058,377.098739383 -250.674198745,375.904028177 -251.7105767,373.940862399 -251.880525941,374.035182086 -255.637796698,367.265171156 -300.055321624,340.596550353 -301.874999,337.381530202 -301.874999,280.119958412 -300.905246419,277.603467942 -298.497546047,276.388509807 -295.897163829,277.103462025 -213.309558097,338.098586543 -209.031862015,339.156868123 -205.262898283,336.873546846 -197.747207459,326.619515056 -196.700986987,322.357064058 -198.968506183,318.599215939 -231.130432208,294.849304299 -232.610121065,292.396796267 -231.926901208,289.615162684 -228.853443602,285.423746078 -227.80639723,281.161110314 -230.073749481,277.40272189 -300.352808658,225.499000259 -301.874999,222.48248503 -301.874999,161.569298975 -301.149313399,159.352088472 -197.64928115,18.1762111744 -196.602481145,13.9143499688 -198.868841409,10.1563102753 -203.4571692,6.76599170385 " moovel_rot="0" moovel_centroid="-133.05855829202574,607.7420838906089" moovel_centroidlatlon="0,0" transform="translate(301.875 0)"></polygon><g transform="translate(54.532588606720736 -1050.2680462240637) rotate(0)"><polygon id="26786586" class="tile" points="0.0,1483.02283149 125.934607151,1482.22073841 125.41918209,1618.42457382 125.569608568,1721.98051388 72.9845103968,1736.09866479 35.4914976697,1746.05872765 29.7816899825,1746.83336496 9.06485634819,1746.49215161 2.92496881261,1745.71934787 2.58856568299,1619.26095121 0.0,1483.02283149 " moovel_rot="3.9" moovel_centroid="62.71406174035993,1609.54452932" moovel_centroidlatlon="-122.38874658463807,37.77473118620411"></polygon></g><g transform="translate(-318.98122720000003 -1831.0742065000002) rotate(0)"><polygon id="162093422" class="tile" points="410.271945845,2635.00601069 417.966479381,2647.9504665 419.111767621,2651.4293152 420.231292623,2657.50585555 420.51985364,2665.29410681 419.501787531,2673.06718478 416.137645523,2674.36017004 414.414339514,2677.88773146 413.817920538,2681.10489502 413.709350057,2685.11226778 414.317152824,2688.65191825 415.805191806,2693.04814447 420.69912746,2702.71664066 422.587658746,2707.56077978 430.093995163,2733.80629704 430.873419546,2737.28992181 433.045550141,2743.16366174 435.889329928,2747.7533673 440.795736834,2752.41166227 445.465431318,2756.21057822 451.36020869,2759.40165174 456.707931549,2761.26059877 461.890342528,2761.86544241 467.877398548,2761.14090582 473.303956136,2759.46301265 472.029350179,2753.80436803 474.90278774,2751.43413718 468.94843174,2725.41544865 483.729829855,2722.08538047 480.347074851,2708.11920661 477.36503749,2706.07090743 473.638548188,2689.14650318 476.3416175,2684.79956623 471.088658644,2661.35243561 469.413240292,2659.31928021 468.060709668,2653.40288351 464.756069703,2651.16429657 463.264319897,2645.74853306 460.574494971,2644.08201039 457.875786032,2639.36503882 431.620428456,2645.30603026 429.294215851,2646.21717535 428.084588876,2648.59144103 429.374545291,2657.2988592 432.973866131,2655.19967767 432.422873541,2657.57569545 431.250561895,2658.72724552 429.506124398,2659.48686503 427.261523084,2659.08459367 426.41586711,2658.02658949 426.015096471,2653.88037635 425.20374733,2648.9226614 424.416265437,2645.71160359 459.125933915,2637.81697741 458.832241033,2636.42376093 466.068472947,2634.70097003 460.895595451,2611.51942131 470.859729733,2609.23713905 460.955079359,2566.53789557 496.912166187,2558.11651534 493.824182358,2544.36534603 496.89687245,2537.58756424 491.45160826,2513.21590881 397.699354751,2534.55610288 391.814412467,2536.45621323 388.8917924,2537.99394572 386.592664722,2540.11009378 384.712724712,2542.38990499 383.02625026,2545.72421132 382.638292304,2548.69212262 382.818323054,2552.71603868 383.883558902,2556.58335303 410.271945845,2635.00601069 " moovel_rot="-15.4" moovel_centroid="441.844336445,2621.82356875" moovel_centroidlatlon="-122.47783366292883,37.728875516161104"></polygon></g><g transform="translate(-179.94786159999998 -740.8875904999999) rotate(0)"><polygon id="97637751" class="tile" points="389.970899491,1597.65405293 350.290834066,1597.18225263 346.141849643,1595.25606526 342.786501808,1592.31116995 340.426612436,1585.66343828 337.298742884,1570.15675903 336.54428517,1561.11798157 336.587826405,1505.78888341 338.079580195,1502.6659036 340.37148583,1500.68146928 367.938025228,1493.41046502 371.736066213,1490.46759384 374.258201595,1487.77708405 379.129945689,1484.91494501 385.501819054,1483.41813164 412.603054306,1482.22073841 412.636838822,1531.80874657 401.505579388,1532.3180857 401.463872285,1586.38809335 398.67683074,1586.31919314 389.970899491,1597.65405293 " moovel_rot="-85.7" moovel_centroid="373.248510753,1540.04013233" moovel_centroidlatlon="-122.39428480891146,37.75160368448565"></polygon></g><g transform="translate(125.0301053 -2030.4513855) rotate(0)"><polygon id="186406557" class="tile" points="68.3908452611,2766.43259708 60.2165194836,2764.17922806 78.4387919363,2642.01441352 63.3483218309,2587.38315164 60.0824686851,2553.26394428 63.7490912791,2515.53074216 71.9910596233,2513.21590881 69.0524190817,2548.52109456 73.2102572147,2576.42023338 76.3140212018,2592.72718682 91.2726290684,2628.34225786 99.4497713622,2662.21494133 98.3554484796,2696.37999259 90.1033496689,2708.669495 80.5778148655,2768.02914557 68.3908452611,2766.43259708 " moovel_rot="18.2" moovel_centroid="78.1987301977,2663.52398612" moovel_centroidlatlon="-122.4257610269026,37.80634957132788"></polygon></g><g transform="translate(214.10927769999998 -745.6895820000001) rotate(0)"><polygon id="145027137" class="tile" points="9.46987889074,1250.88303918 13.1119684812,1270.0023239 25.7790305909,1321.34241811 25.5181740485,1340.88068805 22.4989750914,1368.31645738 1.15698959976,1481.50216653 14.2314970251,1482.22073841 40.8934291065,1350.66913929 25.8710963234,1246.35190009 20.3100737665,1238.83076247 14.0950054031,1226.09925204 14.9970915336,1218.16230178 16.3418495853,1212.59678892 18.5592338085,1208.45719324 20.183553613,1206.85402556 1.0,1201.0 2.32109762989,1217.03872655 5.18599114642,1230.32107733 9.46987889074,1250.88303918 " moovel_rot="-60.9" moovel_centroid="21.246770237126757,1341.815095860335" moovel_centroidlatlon="-122.50213883168217,37.78468884343845"></polygon></g><g transform="translate(150.56973779999998 -1572.3308238999998) rotate(0)"><polygon id="178100193" class="tile" points="25.6306096803,2502.09266281 25.6111949664,2489.17008848 25.5849260695,2471.30162651 28.0892263498,2468.33714045 29.4235201754,2462.66031822 38.9496246856,2455.85761845 41.4353976797,2451.80170548 50.4147232685,2445.91827108 52.379715753,2441.91882461 61.475694396,2436.32774738 63.6909578335,2431.69945647 73.1805624533,2425.41531164 75.5837014381,2420.95142446 84.5318790432,2415.60139909 86.3770611905,2411.20632077 94.2117387567,2412.13559706 94.2225450885,2495.32392898 92.9693658993,2498.51562094 90.2194023121,2501.1867399 87.0448814545,2502.30103192 69.2985371105,2498.13253573 69.1623026665,2502.23999661 25.6306096803,2502.09266281 " moovel_rot="-77.6" moovel_centroid="65.0433024033,2466.74048983" moovel_centroidlatlon="-122.51126144506566,37.780283288947615"></polygon></g><g transform="translate(-112.74294880000002 -1669.9652893000002) rotate(0)"><polygon id="159152020" class="tile" points="392.908409955,2411.20632077 365.067903214,2411.28291498 364.924936865,2415.4190575 350.5571228,2415.46185801 350.347484135,2491.53032802 351.906028528,2496.63150704 351.921446165,2499.45713753 352.014518452,2504.09983315 398.056976758,2503.9634504 398.031444569,2419.63512797 396.734704086,2417.44579685 394.652788087,2415.67848852 393.054544871,2415.12634393 392.908409955,2411.20632077 " moovel_rot="0.5" moovel_centroid="374.41741676,2458.43065369" moovel_centroidlatlon="-122.45358626515772,37.724856906426126"></polygon></g><g transform="translate(-14.916828400000043 -723.2014360000001) rotate(0)"><polygon id="32399209" class="tile" points="256.116371327,1203.10187843 280.771191818,1335.5560564 282.554096726,1348.57928451 282.64154064,1361.91060173 280.119298593,1376.86971506 276.420085616,1388.56491182 271.897222873,1402.15292888 273.994984055,1404.09590979 271.889826255,1408.53730014 268.403266689,1408.58986367 261.736804856,1410.38241684 258.399123562,1414.46674069 256.137688715,1421.26073009 258.901991221,1430.04663205 263.307015821,1435.04805515 267.663879747,1436.57193107 275.760730425,1436.26258217 279.765784832,1432.63803925 281.86944232,1428.18839322 282.34127914,1421.14713521 280.653222354,1415.07089481 276.757786961,1412.87355999 286.102779976,1393.76936093 289.793778275,1394.84175109 295.188449942,1382.83845255 297.811411971,1368.43356547 297.670735731,1351.63414865 295.943387309,1335.70409202 292.370183953,1316.04202398 270.879688136,1201.0 256.116371327,1203.10187843 " moovel_rot="-10.3" moovel_centroid="278.140903804,1322.2835923497746" moovel_centroidlatlon="-122.38133451687573,37.710381805046374"></polygon></g><g transform="translate(-112.41164989999999 -1398.4597545000001) rotate(0)"><polygon id="35559338" class="tile" points="392.992035326,1981.49868952 393.578790527,1746.83336496 408.387606762,1746.96519008 408.66163784,1982.79162904 392.992035326,1981.49868952 " moovel_rot="-80.8" moovel_centroid="400.910331632,1865.63078099" moovel_centroidlatlon="-122.45076759781502,37.80601360706197"></polygon></g><g transform="translate(-56.14949290000001 -2435.2007697999998) rotate(0)"><polygon id="197054913" class="tile" points="241.570118315,2787.14685506 263.447562385,2768.02914557 284.115506103,2837.92577477 264.899915277,2843.48099426 264.591436703,2888.16126074 263.314214624,2893.52466416 263.125926596,2909.40810464 241.645119531,2916.06408085 241.570118315,2787.14685506 " moovel_rot="-12.0" moovel_centroid="256.513087078,2839.41272746" moovel_centroidlatlon="-122.41347165963776,37.763113520334905"></polygon></g><g transform="translate(-264.79513799999995 -1641.3063047) rotate(0)"><polygon id="120418895" class="tile" points="377.24525841,1989.25860067 377.261649427,2004.05750568 372.641733901,2004.04640557 372.661074501,2034.43421075 377.284869402,2034.45074794 377.301355138,2055.28720038 322.744224289,2055.1140924 322.690363399,1982.79162904 372.912557176,1982.94675899 372.913966122,1989.24622768 377.24525841,1989.25860067 " moovel_rot="54.4" moovel_centroid="348.885744564,2019.26890083" moovel_centroidlatlon="-122.379269231191,37.716749174714515"></polygon></g><g transform="translate(19.805422300000004 -1652.0482028) rotate(0)"><polygon id="219072247" class="tile" points="152.430799863,2076.75803147 149.950880888,2076.54107397 149.129997079,2074.94361227 146.919849919,2074.04580283 147.313277023,2077.21206916 97.7052344952,2078.04464469 97.6703956455,1983.55450881 161.552074059,1982.79162904 161.65602675,2001.77669883 122.248727265,2001.81072721 122.219439957,2064.1488951 151.884035243,2064.12036955 152.430799863,2076.75803147 " moovel_rot="-81.0" moovel_centroid="119.865746129,2026.93784304" moovel_centroidlatlon="-122.43279345094722,37.804719364564896"></polygon></g><g transform="translate(123.64864000000003 -1456.2633761) rotate(0)"><polygon id="27369520" class="tile" points="95.0415132746,1810.33028213 95.1165534005,1747.61805205 152.458378606,1746.83336496 152.502443854,1811.06080164 95.0415132746,1810.33028213 " moovel_rot="-85.9" moovel_centroid="123.893918446,1778.97158014" moovel_centroidlatlon="-122.39035591641247,37.76826231192997"></polygon></g><g transform="translate(97.27617180000001 -924.2707522999999) rotate(0)"><polygon id="25478371" class="tile" points="198.895374058,1820.60332094 198.765121441,1746.83336496 174.313620108,1798.06805982 182.56081265,1802.30141602 159.123974846,1848.68674643 163.78647006,1851.53015087 153.502443854,1871.6320835 173.40511907,1881.69410413 180.406599681,1882.19854201 187.986463539,1882.29617498 194.187539668,1882.12712379 198.973825577,1880.74135454 198.895374058,1820.60332094 " moovel_rot="35.0" moovel_centroid="183.623890092,1833.01365358" moovel_centroidlatlon="-122.39856471857337,37.79959226506313"></polygon></g><g transform="translate(-436.93847220000004 -836.7366439) rotate(0)"><polygon id="243464482" class="tile" points="525.103753278,1746.83336496 525.082284602,1813.74391626 515.909984472,1813.70362145 515.914075702,1800.50906796 508.36214945,1800.47971132 508.368662657,1787.26380279 492.855889964,1787.18963603 492.836826702,1830.97190925 552.595397649,1831.24138639 552.608461382,1787.5597567 545.025709384,1787.52348439 545.038017566,1746.91786079 525.103753278,1746.83336496 " moovel_rot="44.9" moovel_centroid="526.469948015,1799.37129653" moovel_centroidlatlon="-122.39854437680647,37.778200320347686"></polygon></g><g transform="translate(143.8263395 -1587.3526067000003) rotate(0)"><polygon id="32777549" class="tile" points="22.006345468,2513.21590881 16.2800285205,2513.28077132 12.792523678,2524.87631054 6.65939576849,2543.01327382 0.91174547039,2563.54632065 0.0,2586.19913048 2.59032739252,2612.81217955 7.19448046312,2636.6635843 14.4437985152,2653.96285712 13.8316340972,2673.29146953 7.61510035247,2693.4926143 23.9084553301,2695.47604753 26.9194043845,2675.77124954 28.3811495282,2659.17717823 23.3560791135,2637.85279879 18.1683017246,2620.63981731 14.3606222827,2596.67107636 15.3132376716,2569.0990471 21.0536229126,2540.78808504 28.404144638,2520.00675637 22.006345468,2513.21590881 " moovel_rot="36.1" moovel_centroid="13.996767772665997,2605.25715853" moovel_centroidlatlon="-122.4702436572113,37.807280040224306"></polygon></g><g transform="translate(-456.1338481 -1411.7016382000002) rotate(0)"><polygon id="160696970" class="tile" points="530.156933153,2479.39725166 530.110929098,2424.54888191 540.997603999,2424.53470485 540.987946213,2411.25489604 571.783457841,2411.20632077 571.789310248,2416.49294152 576.389256098,2416.47977504 576.438503402,2479.32798842 530.156933153,2479.39725166 " moovel_rot="-85.5" moovel_centroid="553.959190012,2446.88199213" moovel_centroidlatlon="-122.4045007246775,37.75479085465622"></polygon></g><g transform="translate(-4.983264100000014 -514.0526034) rotate(0)"><polygon id="404670043" class="tile" points="171.01992247,1541.51163017 172.553665934,1533.04466231 173.817601228,1525.98824194 172.478707112,1524.29811229 169.599257379,1518.27992746 170.222295962,1510.99769114 171.472503931,1502.61617338 169.90717515,1502.24999162 171.87897975,1489.85752271 172.072044006,1488.02240133 170.798631398,1488.03596271 171.998923148,1482.22073841 183.891263478,1485.96938293 184.434265808,1487.22494646 224.201451671,1493.09365498 223.419949631,1498.28521872 218.011262417,1531.32616647 219.647857495,1531.67958351 218.544750381,1539.00046884 218.407257455,1541.82840073 218.521184716,1543.3783641 219.500494941,1545.06349561 224.209557138,1545.84434907 223.782890835,1548.9542481 223.281595059,1552.64195583 211.558780435,1550.76130644 212.051399766,1547.66482571 171.01992247,1541.51163017 " moovel_rot="-78.5" moovel_centroid="196.18392403,1516.727945" moovel_centroidlatlon="-122.46103217732093,37.76108473002515"></polygon></g><g transform="translate(141.42033909999998 -1778.7237964) rotate(0)"><polygon id="396099268" class="tile" points="133.323293298,2768.34038971 122.062898352,2771.47684739 121.054575549,2768.02914557 101.002058056,2773.52265999 92.1643226992,2775.9504456 89.3763486631,2776.42727641 79.0675382663,2779.76387101 83.3812974572,2790.06743405 88.8715328582,2788.02678038 91.3775404416,2795.04674076 78.5025498468,2799.89876948 100.161106221,2847.92075802 117.794144061,2842.73297529 126.860223948,2839.57647384 128.392371224,2839.13241892 122.164789452,2817.66446116 136.072381287,2813.61641656 134.954178303,2808.96395173 128.543653954,2810.87304718 123.895673587,2795.21743466 110.781856249,2799.45028091 106.45870996,2785.41896122 136.069469355,2776.27926825 133.323293298,2768.34038971 " moovel_rot="78.4" moovel_centroid="106.360434856,2807.1329288" moovel_centroidlatlon="-122.42777523602531,37.76402285976919"></polygon></g><g transform="translate(-52.93022589999998 -2048.2541173) rotate(0)"><polygon id="49847748" class="tile" points="291.317515137,2411.20632077 317.609790229,2417.76954619 317.616508582,2493.45016851 311.60563865,2503.7958963 295.443264401,2503.024277 287.030337332,2504.40212024 285.22114352,2458.49666411 287.233728549,2429.48838868 291.317515137,2411.20632077 " moovel_rot="47.6" moovel_centroid="301.79865887,2459.07646018" moovel_centroidlatlon="-122.45902402912637,37.75056908041759"></polygon></g><g transform="translate(-141.7631099 -2337.0013918) rotate(0)"><polygon id="243464424" class="tile" points="328.144224526,2672.04894402 327.986292608,2532.81828359 352.6031389,2532.68450455 352.582952318,2513.25747819 359.843393378,2513.21590881 359.894380534,2558.32508023 338.891768309,2558.43644207 339.024785256,2671.99072105 328.144224526,2672.04894402 " moovel_rot="-45.6" moovel_centroid="338.865001766,2583.32946925" moovel_centroidlatlon="-122.40026166319919,37.775894447421905"></polygon></g><g transform="translate(-295.2614284 -985.8798069) rotate(0)"><polygon id="247972582" class="tile" points="360.856579921,1201.37452189 368.174504349,1201.31357483 403.059743637,1201.0 402.896566988,1206.24501954 407.257236663,1206.1761862 407.197449604,1251.69727979 403.029950764,1251.87491433 402.992586548,1256.69939358 367.723466668,1256.91611361 360.736256194,1250.60595944 360.50645186,1215.29143362 360.856579921,1201.37452189 " moovel_rot="44.8" moovel_centroid="383.771691725,1228.7722188259688" moovel_centroidlatlon="-122.39877591983937,37.76680785113921"></polygon></g><g transform="translate(-319.0291078 -1258.4590538) rotate(0)"><polygon id="410877296" class="tile" points="452.335052998,1482.23549043 432.901548316,1532.6999854 424.604833669,1573.75245132 460.797571534,1582.85318957 460.755038253,1563.67676969 460.704365684,1482.22073841 452.335052998,1482.23549043 " moovel_rot="-23.5" moovel_centroid="447.286493143,1539.58517764" moovel_centroidlatlon="-122.39867849775844,37.772703390911786"></polygon></g><g transform="translate(-340.3587244 -431.4188176) rotate(0)"><polygon id="96665914" class="tile" points="516.980764944,1538.05957354 563.958095751,1539.48120829 563.928344404,1500.73453036 562.769394166,1497.29320462 560.804640777,1494.08317942 559.378355716,1491.96353772 557.532922441,1489.38071147 555.593970859,1487.99353868 552.970077659,1486.22687275 550.676540524,1484.87518115 548.981894138,1484.06146578 546.814498604,1483.11267146 544.533060208,1482.55036762 542.470188284,1482.22073841 540.30807226,1482.28563476 538.101337399,1482.43270759 535.401259613,1482.67672578 533.161650561,1483.36076262 530.687003689,1484.60120066 528.851968015,1485.63410601 526.861681764,1487.02352769 525.17919976,1488.48127109 523.745662307,1489.81577418 522.3334313,1491.58745588 520.88558597,1493.68940893 519.610776287,1496.03731629 518.745755833,1498.26571289 517.473154088,1504.10330232 516.954629739,1516.2100622 516.980764944,1538.05957354 " moovel_rot="-61.5" moovel_centroid="540.70191131,1512.87910396" moovel_centroidlatlon="-122.3713974225929,37.81702750678442"></polygon></g><g transform="translate(95.8677333 -1731.9314971000001) rotate(0)"><polygon id="247561567" class="tile" points="81.1807291467,1982.79162904 50.9536542244,1983.49744276 50.8996324282,2057.842272 81.6331563704,2057.72072451 81.1807291467,1982.79162904 " moovel_rot="-81.3" moovel_centroid="66.1871847873,2020.56576705" moovel_centroidlatlon="-122.42256609964971,37.77818772574634"></polygon></g><g transform="translate(-167.61203540000002 -1771.3487418999998) rotate(0)"><polygon id="294464621" class="tile" points="448.742201925,1982.79162904 448.755288478,2114.72245561 463.591119559,2114.73766512 463.578040966,1982.80678941 448.742201925,1982.79162904 " moovel_rot="9.2" moovel_centroid="456.166663192,2048.76462889" moovel_centroidlatlon="-122.43480395000002,37.801943949999995"></polygon></g><g transform="translate(67.4900304 -2315.4415855) rotate(0)"><polygon id="32839462" class="tile" points="155.371585696,2578.01821143 155.759044756,2518.74986152 160.917010655,2519.05788242 160.764260389,2513.21590881 189.013068858,2514.02170173 182.934677032,2525.7687883 178.802724013,2539.60082679 175.702308328,2554.18717916 175.442578717,2565.78027224 178.00807942,2574.37065829 181.85449065,2588.99788506 189.001866795,2601.28071488 166.483455951,2600.88181898 166.348216099,2578.17223924 155.371585696,2578.01821143 " moovel_rot="-80.2" moovel_centroid="169.361005692,2553.35592358" moovel_centroidlatlon="-122.42445729638013,37.80568540962475"></polygon></g><g transform="translate(-21.7297308 -2229.4293342) rotate(0)"><polygon id="33571523" class="tile" points="168.42590398,2475.76352079 199.94076427,2475.27075336 200.522978162,2464.73979427 199.726701606,2424.35877185 200.045003741,2418.43251733 198.557804463,2415.18153615 195.494269744,2412.4254548 191.061359134,2411.20632077 183.291047804,2411.31476712 168.473688462,2411.52791308 168.42590398,2475.76352079 " moovel_rot="-81.8" moovel_centroid="184.1487727,2443.80108203" moovel_centroidlatlon="-122.41034077839215,37.786433356717055"></polygon></g><g transform="translate(41.13362119999999 -134.79361949999998) rotate(0)"><polygon id="258976149" class="tile" points="255.116371327,1202.87071432 255.113675949,1254.21713691 243.680574371,1253.85516755 207.895083862,1246.077882 220.389799296,1205.32933871 225.347704367,1201.39159122 233.602321102,1201.0 255.116371327,1202.87071432 " moovel_rot="4.3" moovel_centroid="235.144679689,1227.9590345083004" moovel_centroidlatlon="-122.40298620937546,37.748973582975424"></polygon></g><g transform="translate(-500.59079239999994 -747.5992653) rotate(0)"><polygon id="97567850" class="tile" points="557.016718135,1746.83336496 570.12920762,1747.59710794 568.142806938,1792.8777699 564.08619754,1792.70699868 563.292492163,1823.02229781 587.043356764,1824.25307595 586.005911444,1845.40853333 572.854498383,1844.68178692 573.614802001,1831.59325548 577.667138912,1831.74643522 577.835174266,1829.2550226 564.10240856,1828.6335029 563.662005396,1832.87094594 567.074924657,1835.94209702 566.948233445,1847.78568521 562.961239284,1848.55933024 560.618825346,1853.94839537 558.83214619,1857.35086639 554.123706868,1857.40285927 553.608461382,1828.86651483 553.776249747,1808.66788059 557.835201011,1808.82198857 558.033064306,1801.41514145 553.617706998,1801.25342813 555.071931058,1770.46157392 559.249937705,1770.63241148 560.211159123,1757.26607911 556.19796091,1754.86674873 557.016718135,1746.83336496 " moovel_rot="8.0" moovel_centroid="564.526581148,1806.84774046" moovel_centroidlatlon="-122.5104083054424,37.76943790045361"></polygon></g><g transform="translate(98.84885459999998 -1695.4883694000002) rotate(0)"><polygon id="28990635" class="tile" points="5.04106329493,2768.02914557 43.8181180671,2779.87395903 42.0925859503,2788.13497369 50.0696060099,2791.13369145 43.1181143582,2818.89661685 18.5347775403,2811.57260113 10.4320753466,2835.36860155 0.0424254320562,2832.56542031 14.6324089777,2785.105163 0.0,2780.21356154 5.04106329493,2768.02914557 " moovel_rot="40.2" moovel_centroid="23.905705280744662,2798.07799641" moovel_centroidlatlon="-122.4507660891039,37.708620335348144"></polygon></g><g transform="translate(-160.48333789999998 -2357.79997) rotate(0)"><polygon id="219058327" class="tile" points="256.427814245,2513.29343193 229.722947471,2513.22528291 225.965711548,2513.21590881 226.029017216,2568.29492587 242.746902674,2568.11243756 242.773295648,2561.00955783 263.168481159,2561.05942091 263.283948637,2518.90801664 256.409717307,2518.89161545 256.427814245,2513.29343193 " moovel_rot="-86.8" moovel_centroid="243.632036181,2539.33649127" moovel_centroidlatlon="-122.48883390080272,37.75420128903057"></polygon></g><g transform="translate(31.165937299999996 -2282.1206483) rotate(0)"><polygon id="28318874" class="tile" points="249.54545009,2488.30510813 249.929569548,2477.1788876 249.937695177,2411.20632077 239.76413759,2411.88547401 239.73905509,2426.68677194 213.052546274,2438.15621625 236.33682627,2494.23630407 249.54545009,2488.30510813 " moovel_rot="-13.9" moovel_centroid="236.994747049,2453.21814" moovel_centroidlatlon="-122.43005230920593,37.80710819987692"></polygon></g><g transform="translate(-300.49612049999996 -1051.0389727) rotate(0)"><polygon id="96698665" class="tile" points="408.257236663,1261.15919264 438.725865733,1261.28635314 438.780258211,1201.13019826 408.305679488,1201.0 408.257236663,1261.15919264 " moovel_rot="28.1" moovel_centroid="423.517133696,1231.142956222879" moovel_centroidlatlon="-122.37252653357163,37.82504670943277"></polygon></g><g transform="translate(-498.21051270000004 -1826.7956281) rotate(0)"><polygon id="32441866" class="tile" points="549.866786137,1982.79162904 538.51463086,1994.18965213 538.376639917,2074.12141411 558.56799009,2073.40618996 557.986768721,1996.42319797 552.889189553,1983.99030267 549.866786137,1982.79162904 " moovel_rot="-5.3" moovel_centroid="548.384239059,2031.15296294" moovel_centroidlatlon="-122.50386868375462,37.78231911729036"></polygon></g><g transform="translate(-242.64038030000003 -1631.4658973) rotate(0)"><polygon id="84805693" class="tile" points="448.460457058,1752.89019318 448.460214032,1810.93729045 421.372813613,1812.37285149 419.077958843,1775.894209 422.603519494,1746.83336496 448.460457058,1752.89019318 " moovel_rot="41.6" moovel_centroid="434.166714115,1780.8134786" moovel_centroidlatlon="-122.39620136771146,37.76856814082594"></polygon></g><g transform="translate(34.250024199999984 -2671.2584988) rotate(0)"><polygon id="353557948" class="tile" points="208.266970078,2779.83086381 204.612202765,2779.85801808 204.249810672,2774.76654892 203.086436102,2773.26793459 201.366808955,2772.45133187 201.525780699,2768.8078405 176.570044816,2768.02914557 176.674216307,2800.32588104 176.570046481,2822.48302068 189.463714422,2822.8320694 190.795165273,2822.80183688 200.410454653,2822.85255566 203.97593065,2822.86677901 207.984814736,2822.74290789 208.296580289,2804.07323828 208.270171078,2800.35008905 208.266970078,2779.83086381 " moovel_rot="45.3" moovel_centroid="191.950837788,2796.34420448" moovel_centroidlatlon="-122.40498839226736,37.77295773102877"></polygon></g><g transform="translate(123.3032769 -1870.2776268) rotate(0)"><polygon id="112687740" class="tile" points="26.0642949585,2042.64140198 36.7826764714,2039.46819068 38.0132430326,2043.20167846 49.2388689522,2040.21857307 41.064623405,2007.93100852 49.3242808785,2005.86981893 46.9927172538,1995.98221567 49.8996324282,1995.47259865 48.169137295,1988.43741045 49.4416545473,1988.65784588 49.8923357859,1984.36673345 38.4301902045,1982.79162904 25.4764291625,1985.99433412 15.5550370168,1985.08232571 14.6638475124,1993.27383513 12.8834419232,1993.67284388 26.0642949585,2042.64140198 " moovel_rot="-23.8" moovel_centroid="32.6301718167,2010.45121192" moovel_centroidlatlon="-122.41670336785322,37.770607246243934"></polygon></g><g transform="translate(-387.2396922 -1389.358751) rotate(0)"><polygon id="27369503" class="tile" points="462.013756791,1482.22073841 489.984186991,1482.43623229 490.048752707,1539.94325353 468.442622721,1539.72131873 461.797571534,1539.56752486 462.013756791,1482.22073841 " moovel_rot="5.1" moovel_centroid="475.965967855,1511.10622757" moovel_centroidlatlon="-122.3896719913622,37.768302894103925"></polygon></g><g transform="translate(147.04862539999996 -2427.5088772) rotate(0)"><polygon id="25813473" class="tile" points="103.001665859,2549.84486742 106.950300968,2558.29495541 142.859026873,2544.95765545 142.857998917,2515.83124368 101.034948772,2513.21590881 100.449771362,2538.87620498 103.001665859,2549.84486742 " moovel_rot="-24.8" moovel_centroid="120.725261414,2533.24393733" moovel_centroidlatlon="-122.47668656162784,37.80327570771718"></polygon></g><g transform="translate(36.63159810000002 -1401.7791389) rotate(0)"><polygon id="124889469" class="tile" points="224.961897669,2521.22000124 222.14185736,2521.21154676 219.664387963,2521.19875741 214.524538567,2521.17961911 207.543776992,2521.1501353 207.5396175,2513.27297323 205.505468203,2513.24899543 190.146415465,2513.21590881 190.013068858,2549.73787851 208.346266018,2549.81360562 208.345604695,2555.76802822 213.506775782,2555.78461162 213.513685405,2573.18310238 224.965711548,2573.23315855 224.961897669,2521.22000124 " moovel_rot="44.7" moovel_centroid="208.942946618,2538.96119916" moovel_centroidlatlon="-122.39553743867066,37.77985945264818"></polygon></g><g transform="translate(4.466297999999995 -1659.8559830999998) rotate(0)"><polygon id="343810352" class="tile" points="77.4441429876,2768.13660367 77.5025498468,2831.16490993 52.0696060099,2827.24984234 53.9419002265,2774.60353829 65.6418435391,2773.95099881 65.1546794824,2768.02914557 77.4441429876,2768.13660367 " moovel_rot="51.7" moovel_centroid="65.6989466288,2800.50187025" moovel_centroidlatlon="-122.49884170755026,37.72524334121151"></polygon></g><g transform="translate(107.32665450000002 -87.98508309999988) rotate(0)"><polygon id="154647392" class="tile" points="42.3290852819,1201.0 74.7125861324,1201.16445698 74.7261927575,1250.71013414 69.7107254088,1254.31339557 64.5656838395,1258.00648329 64.6637418125,1230.07966172 41.8934291065,1229.71616508 42.3290852819,1201.0 " moovel_rot="9.2" moovel_centroid="60.7055039953,1221.0853224148987" moovel_centroidlatlon="-122.42051373000446,37.774949592383294"></polygon></g><g transform="translate(251.11143239999998 -2194.5582860000004) rotate(0)"><polygon id="112433954" class="tile" points="0.0093750782311,2457.51674285 11.8668458462,2439.24493149 12.4736336924,2424.51599636 0.0,2424.09548566 0.815107731521,2418.32325151 5.01140191108,2413.68891231 11.1202165224,2411.20632077 17.6657466821,2411.33019364 20.5534861252,2412.45706503 23.5289432868,2413.61345669 23.5849260695,2427.90299643 23.3972080015,2476.44476757 15.0230099179,2469.67302626 3.13456166312,2460.04840872 0.0093750782311,2457.51674285 " moovel_rot="-71.4" moovel_centroid="14.818361571526255,2441.2407249" moovel_centroidlatlon="-122.45907782560194,37.768453787427156"></polygon></g><g transform="translate(-332.4161683 -1120.1119282999998) rotate(0)"><polygon id="24547825" class="tile" points="402.736776701,1982.79162904 402.759215567,2047.39651331 412.800115473,2047.54635074 411.892851658,2025.42701851 415.714776211,2025.62879756 422.527744732,2025.03901484 419.305074172,1983.32926066 402.736776701,1982.79162904 " moovel_rot="3.4" moovel_centroid="410.912752581,2011.71020697" moovel_centroidlatlon="-122.40851162776198,37.765032353818064"></polygon></g><g transform="translate(67.5395145 -88.40724300000011) rotate(0)"><polygon id="420621778" class="tile" points="144.900241266,1202.5142075 142.374371235,1201.0 130.637207879,1203.19745418 127.335233168,1204.63410378 119.330932083,1208.10494319 128.197989715,1230.84320756 125.839084912,1235.73534369 119.343340966,1238.88188099 121.609714032,1243.8751363 125.804729657,1241.99870324 128.475533232,1250.36617871 124.117467154,1252.37900431 126.558412602,1257.81317919 131.8088955,1255.51885708 134.017781441,1262.19429148 136.633313924,1261.07970899 138.86285086,1260.13232021 136.58495617,1254.56175267 139.999282406,1253.0662527 139.127193115,1250.31539312 134.521089013,1252.06724246 128.899766368,1236.24760517 134.767103917,1235.14577885 142.957503965,1232.69316927 148.082915012,1230.4483666 144.900241266,1202.5142075 " moovel_rot="68.4" moovel_centroid="133.96949117,1224.9009512027385" moovel_centroidlatlon="-122.45573220940972,37.72348613075881"></polygon></g><g transform="translate(-481.0311269 -2405.6264097000003) rotate(0)"><polygon id="192306745" class="tile" points="521.229416572,2513.29687339 544.522894989,2513.21590881 550.638757215,2519.33628748 550.616920355,2548.41951184 521.20878095,2548.51854836 521.229416572,2513.29687339 " moovel_rot="-45.2" moovel_centroid="535.690602815,2531.14521137" moovel_centroidlatlon="-122.39170875271013,37.79156065793508"></polygon></g><g transform="translate(-145.4131951 -1283.6499776) rotate(0)"><polygon id="32650490" class="tile" points="284.159127761,2411.20632077 268.404646485,2418.04327388 256.584406182,2428.15425832 251.334020064,2440.40643369 250.937695177,2452.04152687 284.22114352,2455.80087017 280.343638754,2447.26401696 280.21518763,2437.84888253 281.329923677,2428.13943994 284.159127761,2411.20632077 " moovel_rot="13.3" moovel_centroid="268.670504543,2436.5862625" moovel_centroidlatlon="-122.46214335901495,37.800033445846545"></polygon></g><g transform="translate(-381.75179760000003 -2320.9199068) rotate(0)"><polygon id="149814766" class="tile" points="518.362462657,2426.40134848 507.688895772,2462.47628909 489.446876904,2456.84253527 495.393623083,2436.68215662 498.870148743,2425.6469584 492.41065667,2423.17583555 489.387747465,2411.20632077 519.944327372,2420.19757164 518.362462657,2426.40134848 " moovel_rot="37.4" moovel_centroid="503.760894982,2436.32422775" moovel_centroidlatlon="-122.45592943514134,37.76069878645268"></polygon></g><g transform="translate(-60.845388299999996 -1616.2987993000002) rotate(0)"><polygon id="258866799" class="tile" points="207.890525483,1985.2565843 227.400442621,1982.79162904 227.85238771,1986.49775431 232.13165616,1985.95415075 235.749946108,2015.34684805 231.519454955,2015.88096716 232.067817262,2020.36190938 207.876980199,2023.41412043 207.890525483,1985.2565843 " moovel_rot="-30.8" moovel_centroid="220.563992797,2003.27153731" moovel_centroidlatlon="-122.40568392307058,37.74181236868048"></polygon></g><g transform="translate(-239.36098529999998 -1476.3460357) rotate(0)"><polygon id="80296754" class="tile" points="444.673409473,2448.30641975 444.66966996,2411.20632077 470.360079645,2411.57886672 470.283160725,2422.21787229 469.972332661,2435.01170702 470.097394065,2448.40701018 444.673409473,2448.30641975 " moovel_rot="45.6" moovel_centroid="457.395658155,2429.82590371" moovel_centroidlatlon="-122.4003396171155,37.786362742724535"></polygon></g><g transform="translate(-28.433369999999996 -265.2353147000001) rotate(0)"><polygon id="32947078" class="tile" points="149.138204458,1248.0397159 149.082915012,1203.31077471 149.087020682,1201.06252304 175.103482151,1201.0 175.113012719,1212.49562462 166.753006127,1212.5158429 166.753318613,1218.09415601 160.692187735,1218.10676942 160.704683251,1229.5825771 166.98816627,1229.56267435 167.006692451,1248.00208631 149.138204458,1248.0397159 " moovel_rot="-81.5" moovel_centroid="158.96206219,1222.6656497818797" moovel_centroidlatlon="-122.41141643424957,37.79249892390397"></polygon></g><g transform="translate(-209.148868 -80.66528840000001) rotate(0)"><polygon id="32862751" class="tile" points="477.354295593,1201.0 475.74398709,1245.06621957 502.419921663,1246.16966208 502.411998365,1219.85324812 477.354295593,1201.0 " moovel_rot="-42.5" moovel_centroid="488.363779469,1227.7283565562986" moovel_centroidlatlon="-122.3885761265413,37.788603980341314"></polygon></g><g transform="translate(-307.29470630000003 -1410.2521095) rotate(0)"><polygon id="243464439" class="tile" points="491.048752707,1482.22073841 491.05400351,1521.41582751 513.116063047,1522.48250568 512.381333724,1499.84994284 515.954629739,1499.42841583 515.109763094,1482.24625187 491.048752707,1482.22073841 " moovel_rot="44.0" moovel_centroid="502.596565386,1501.55087381" moovel_centroidlatlon="-122.40373699057572,37.77954068883667"></polygon></g><g transform="translate(81.4332024 -1304.2467043000001) rotate(0)"><polygon id="414458729" class="tile" points="191.133830826,1982.79162904 191.132637592,2040.50872178 205.277356062,2040.38364796 206.876980199,1983.9438776 191.133830826,1982.79162904 " moovel_rot="55.6" moovel_centroid="198.58575506,2011.39183167" moovel_centroidlatlon="-122.39571015305913,37.74237449430951"></polygon></g><g transform="translate(-269.7537574 -1914.4387221000002) rotate(0)"><polygon id="30897259" class="tile" points="447.720256096,1983.36709977 423.527744732,1982.79162904 423.555688664,2013.78607906 447.742201925,2025.41827953 447.720256096,1983.36709977 " moovel_rot="68.7" moovel_centroid="436.246911176,2001.49310131" moovel_centroidlatlon="-122.46906975515668,37.769368601736645"></polygon></g><g transform="translate(33.237615500000004 -1264.4815591) rotate(0)"><polygon id="16651232" class="tile" points="110.248209799,2452.0143378 110.381343381,2430.00637384 110.492726733,2411.20632077 129.813079694,2411.43405028 129.507402551,2429.50149024 133.140879178,2429.55930645 133.141346493,2452.52952667 110.248209799,2452.0143378 " moovel_rot="-85.4" moovel_centroid="121.069869383,2432.65511164" moovel_centroidlatlon="-122.42180779494583,37.768559151211456"></polygon></g><g transform="translate(-287.52652720000003 -516.9336933) rotate(0)"><polygon id="338711118" class="tile" points="335.475126414,1482.54896752 335.54428517,1598.18164736 330.583143776,1598.179652 330.544842208,1539.61877074 330.508262797,1482.42095903 335.473593723,1482.22073841 335.475126414,1482.54896752 " moovel_rot="-2.6" moovel_centroid="333.028264448,1540.23974355" moovel_centroidlatlon="-122.47880757846583,37.72680588023177"></polygon></g><g transform="translate(-296.6422536 -829.1527557) rotate(0)"><polygon id="93703757" class="tile" points="509.073721724,2014.44771428 509.059561378,1982.79162904 535.275014946,1982.80063248 535.278641917,1985.60295502 537.352666324,1985.60523302 537.376639917,2010.92694563 535.478095909,2010.92597071 535.47634802,2014.4257677 509.073721724,2014.44771428 " moovel_rot="8.7" moovel_centroid="523.027499717,1998.60672886" moovel_centroidlatlon="-122.40297946347425,37.8037897878718"></polygon></g><g transform="translate(-250.2926039 -41.55812479999986) rotate(0)"><polygon id="216220339" class="tile" points="345.849325125,1201.0 346.01761237,1218.57259596 350.556553133,1218.69304369 350.343249446,1237.44866352 316.647306728,1237.63921029 316.622111953,1217.5991388 339.525720012,1217.95784779 339.324914058,1201.29908784 345.849325125,1201.0 " moovel_rot="45.4" moovel_centroid="334.706752354,1225.1489077078893" moovel_centroidlatlon="-122.39820190022724,37.77890742362292"></polygon></g><g transform="translate(-265.4201718 -948.4266325) rotate(0)"><polygon id="32777503" class="tile" points="348.553092687,1747.43134713 339.306197229,1746.83336496 335.749946765,1747.39176352 335.793046958,1806.10755023 348.596146203,1806.14716875 348.591074287,1799.61969691 348.553092687,1747.43134713 " moovel_rot="53.2" moovel_centroid="342.168307111,1776.62676131" moovel_centroidlatlon="-122.46718815306484,37.805701120073806"></polygon></g><g transform="translate(-342.1454566 -1937.8476564) rotate(0)"><polygon id="69020106" class="tile" points="464.591119559,1993.94998103 477.280074619,2023.41729458 480.769101446,2032.48515879 490.991539944,2029.81135428 488.929128794,2019.77687458 487.776170257,2014.17986321 491.009517195,1988.61349591 485.938491939,1982.79162904 464.591119559,1993.94998103 " moovel_rot="-34.4" moovel_centroid="480.452196813,2005.73301842" moovel_centroidlatlon="-122.45414722821856,37.802334350630645"></polygon></g><g transform="translate(-184.0394164 -2460.3900598) rotate(0)"><polygon id="33996528" class="tile" points="286.74522221,2513.21590881 264.293987791,2513.29997121 264.283948637,2548.29426934 286.735137826,2548.21016249 286.74522221,2513.21590881 " moovel_rot="-45.5" moovel_centroid="275.514571732,2530.7550721" moovel_centroidlatlon="-122.40259574999999,37.7756324"></polygon></g><g transform="translate(175.79189829999999 -2460.8356032) rotate(0)"><polygon id="137318985" class="tile" points="37.8361532461,2513.21590881 37.8650273032,2549.8873056 59.0824686851,2549.96358112 59.0548106264,2513.28145991 37.8361532461,2513.21590881 " moovel_rot="44.7" moovel_centroid="48.4601320463,2531.58688924" moovel_centroidlatlon="-122.40577097129211,37.78132473072516"></polygon></g><g transform="translate(117.5472307 -519.5184816000001) rotate(0)"><polygon id="264402711" class="tile" points="168.494157573,1572.61984916 168.599257379,1482.67322489 151.781017356,1482.22073841 151.435614457,1498.54372154 164.649115025,1497.94911046 165.285331827,1572.51670717 168.494157573,1572.61984916 " moovel_rot="-51.2" moovel_centroid="163.368986189,1512.13887857" moovel_centroidlatlon="-122.37615697913883,37.74422375068633"></polygon></g><g transform="translate(-26.5898952 -1780.2615713) rotate(0)"><polygon id="197053753" class="tile" points="152.1116945,2824.44448409 164.390235941,2824.12744375 164.443393728,2768.02914557 151.732797132,2768.37848424 152.1116945,2824.44448409 " moovel_rot="-86.3" moovel_centroid="158.169446641,2796.08324913" moovel_centroidlatlon="-122.41319921010214,37.76016169997722"></polygon></g><g transform="translate(-1.9204379000000245 -798.5028480999999) rotate(0)"><polygon id="391846944" class="tile" points="237.816285174,1782.30827542 237.826177404,1746.83336496 261.416646632,1760.33929115 263.491473235,1766.98711888 263.942393532,1774.51967781 263.013585729,1778.09018213 261.180239899,1782.91364605 256.164856157,1784.83158618 252.947146251,1785.33225203 249.562224664,1784.93610899 237.816285174,1782.30827542 " moovel_rot="-89.4" moovel_centroid="249.467700591,1768.73784733" moovel_centroidlatlon="-122.44297110902394,37.72657544099845"></polygon></g><g transform="translate(-124.7295279 -1694.5185109) rotate(0)"><polygon id="219059386" class="tile" points="386.553397432,1774.35545113 386.601251062,1771.0293032 391.983532616,1770.97858445 391.992035326,1746.83336496 364.576220928,1746.95917396 364.612371118,1774.43070283 386.553397432,1774.35545113 " moovel_rot="-89.9" moovel_centroid="378.023188316,1760.34016671" moovel_centroidlatlon="-122.44953448747704,37.73124132383915"></polygon></g><g transform="translate(266.5972289 -576.5703633999999) rotate(0)"><polygon id="287721676" class="tile" points="0.0,1746.89699956 0.00806736275554,1775.07938406 25.4901399136,1775.00271136 25.4840558086,1747.50927629 21.1155064769,1746.83336496 0.0,1746.89699956 " moovel_rot="-20" moovel_centroid="12.721842738332901,1760.9788368" moovel_centroidlatlon="-122.47386272515692,37.78737497089315"></polygon></g><g transform="translate(-235.03647890000002 -2371.7350809) rotate(0)"><polygon id="35176287" class="tile" points="418.722619661,2411.20632077 443.66966996,2411.24594298 443.658678865,2438.73040257 418.711631168,2438.69076374 418.722619661,2411.20632077 " moovel_rot="8.9" moovel_centroid="431.19065117,2424.96835728" moovel_centroidlatlon="-122.41841279999997,37.77772975"></polygon></g><g transform="translate(119.55478049999999 -1756.4380555) rotate(0)"><polygon id="243571702" class="tile" points="82.6334844358,1982.84646821 82.6331563704,2028.48475061 96.6700317524,2028.42987421 96.6703956455,1982.79162904 82.6334844358,1982.84646821 " moovel_rot="-43.9" moovel_centroid="89.6517660933,2005.63817081" moovel_centroidlatlon="-122.40238870000002,37.7746207"></polygon></g><g transform="translate(-225.66312660000006 -2467.1163582) rotate(0)"><polygon id="358279812" class="tile" points="497.912166187,2549.33132352 519.700591327,2549.11791118 520.20878095,2524.50852618 497.943222119,2513.21590881 497.913259191,2520.83368815 497.912166187,2549.33132352 " moovel_rot="-86.8" moovel_centroid="508.248449267,2533.80050393" moovel_centroidlatlon="-122.46860499775879,37.74313870946211"></polygon></g><g transform="translate(-99.84600739999996 -892.8294500000001) rotate(0)"><polygon id="43798386" class="tile" points="349.596146203,1748.84762373 349.840844199,1793.87176256 353.937163001,1793.86268399 359.781283933,1792.21694537 363.570344211,1792.25776119 363.576220928,1746.84680963 355.016430459,1746.83336496 349.596146203,1748.84762373 " moovel_rot="-40.1" moovel_centroid="356.629792437,1770.07772348" moovel_centroidlatlon="-122.42092138649679,37.71360836467035"></polygon></g><g transform="translate(-297.68206380000004 -1719.8045539) rotate(0)"><polygon id="243571761" class="tile" points="452.704589467,1750.61709182 471.540331917,1748.06012102 471.454171567,1747.40056982 475.606732422,1746.83336496 476.402509822,1752.90543305 473.571273177,1753.29026251 476.383397439,1774.73094163 452.478438213,1777.97656894 449.460457058,1754.97596196 453.20839095,1754.46971396 452.704589467,1750.61709182 " moovel_rot="-51.3" moovel_centroid="463.259054462,1762.7917195" moovel_centroidlatlon="-122.40205725373835,37.772523843205306"></polygon></g><g transform="translate(-78.07377440000002 -1962.8467429) rotate(0)"><polygon id="67894085" class="tile" points="297.416540428,2010.24466265 321.690363399,2010.27014733 321.679938915,1982.81709631 297.406113002,1982.79162904 297.406758836,1982.98806308 297.407400396,1994.75911298 297.416540428,2010.24466265 " moovel_rot="9.6" moovel_centroid="309.547493736,1996.53089767" moovel_centroidlatlon="-122.41954916097538,37.789055898356295"></polygon></g><g transform="translate(-92.1359063 -829.0125916999999) rotate(0)"><polygon id="30902967" class="tile" points="128.134526554,1482.27450823 129.267411652,1482.27047281 144.481084055,1482.22073841 144.4855347,1520.67889337 127.934607151,1520.73742474 127.940892394,1516.61571917 128.052541751,1500.9335475 128.133193771,1486.84369568 128.134526554,1482.27450823 " moovel_rot="-66.2" moovel_centroid="136.262317914,1501.5241223" moovel_centroidlatlon="-122.49725468798067,37.76831399149221"></polygon></g><g transform="translate(-164.1166606 -634.2790212) rotate(0)"><polygon id="33570416" class="tile" points="199.973825577,1746.83336496 213.483669605,1746.84740297 213.486471376,1758.06780278 213.478796115,1760.91417194 213.494386563,1771.01121633 213.476342028,1780.06265445 213.491128749,1791.25083279 199.977250452,1791.26170314 199.973825577,1746.83336496 " moovel_rot="9.2" moovel_centroid="206.729630151,1769.04734904" moovel_centroidlatlon="-122.41228787948448,37.78720738296116"></polygon></g><g transform="translate(-455.8532435 -1419.7438143999998) rotate(0)"><polygon id="43798385" class="tile" points="494.300472317,2027.88990945 492.009517195,1989.07211399 494.300472317,1982.79162904 508.059561378,1987.92867946 506.343014831,1994.20915919 508.059561378,2027.88990945 494.300472317,2027.88990945 " moovel_rot="0" moovel_centroid="500.031181008,2006.21172018" moovel_centroidlatlon="-122.42108530027275,37.71292764092942"></polygon></g><g transform="translate(-63.42237660000001 -1961.9782341) rotate(0)"><polygon id="345642131" class="tile" points="167.1666109,2010.36953191 167.155541735,1982.79162904 190.132637592,1983.01258663 189.919341733,2010.24303954 167.1666109,2010.36953191 " moovel_rot="-86.7" moovel_centroid="178.569490396,1996.58161014" moovel_centroidlatlon="-122.46381928312447,37.76356742574526"></polygon></g><g transform="translate(187.2477293 -771.2233807) rotate(0)"><polygon id="296901680" class="tile" points="82.6440187648,1296.753292 86.6768472325,1296.49598774 85.3976993583,1226.28413981 86.7049231615,1201.0 83.0245626707,1201.21619608 81.6422949072,1237.19062627 82.6440187648,1296.753292 " moovel_rot="-71.0" moovel_centroid="84.130040744,1250.2737303200738" moovel_centroidlatlon="-122.44473078180661,37.807294061679656"></polygon></g><g transform="translate(-258.2305129 -705.2154541) rotate(0)"><polygon id="27615550" class="tile" points="459.941867796,1240.73592523 469.66637754,1241.55676724 471.492014399,1241.54829133 473.876375888,1241.53731342 474.387107057,1228.21640671 474.652489799,1208.50608558 474.704762929,1204.69008644 474.717433888,1203.52974587 474.74398709,1201.66120795 459.889161605,1201.0 460.105949025,1223.57005058 459.941867796,1240.73592523 " moovel_rot="57.2" moovel_centroid="467.224208914,1221.1027273041007" moovel_centroidlatlon="-122.37616221885968,37.740382030908364"></polygon></g><g transform="translate(-299.2174368 -1950.2115270000002) rotate(0)"><polygon id="252235797" class="tile" points="332.191125628,2433.31284289 331.899657283,2444.52606601 332.017906097,2456.73906025 347.893070344,2456.31706009 348.454926696,2456.28208685 349.347484135,2456.25533674 349.290156221,2411.42091364 343.365998445,2411.20632077 342.996511291,2433.3230329 332.191125628,2433.31284289 " moovel_rot="44.8" moovel_centroid="342.042850712,2439.28573789" moovel_centroidlatlon="-122.41086982631731,37.772371731116415"></polygon></g><g transform="translate(-547.1880764 -2285.019959) rotate(0)"><polygon id="168942992" class="tile" points="579.003757573,2411.20632077 580.132152376,2412.15809235 580.575435397,2415.63106675 581.312982821,2419.7137649 581.931460742,2423.38242632 582.508352439,2427.17081882 582.951637889,2430.64379041 583.286027467,2434.34513761 581.673152668,2470.93730613 581.750746586,2509.455352 578.831181896,2513.21590881 577.692833645,2499.03836861 577.442223414,2488.09488676 578.018733359,2475.63097504 580.392651955,2444.07558176 580.517745019,2434.43455848 580.35260766,2430.94600483 579.942312943,2427.43481311 579.408902716,2423.86181502 578.757875494,2420.22064047 577.834136754,2415.95499477 577.438503402,2413.61255266 579.003757573,2411.20632077 " moovel_rot="40.8" moovel_centroid="580.307194715,2466.06352704" moovel_centroidlatlon="-122.51271846050993,37.77731033572498"></polygon></g><g transform="translate(-99.0486989 -2090.5498892) rotate(0)"><polygon id="173886734" class="tile" points="139.890841801,2448.04014999 151.943815364,2448.09665615 151.941133772,2428.75439665 151.944074548,2411.28622341 134.143130763,2411.20632077 134.141346493,2428.98504798 139.889285572,2429.0084756 139.890841801,2448.04014999 " moovel_rot="45.0" moovel_centroid="144.250169898,2427.87484643" moovel_centroidlatlon="-122.39779203376347,37.78180936724422"></polygon></g><g transform="translate(-194.66348729999999 -869.0746313999999) rotate(0)"><polygon id="106046475" class="tile" points="225.2209704,1508.44505715 246.92016369,1508.44109022 246.902081299,1482.22073841 225.209557138,1482.22507153 225.2209704,1508.44505715 " moovel_rot="3.1" moovel_centroid="236.063218848,1495.33366096" moovel_centroidlatlon="-122.50393692407685,37.735928242041794"></polygon></g><g transform="translate(-158.91399950000002 -232.36608880000006) rotate(0)"><polygon id="212214157" class="tile" points="186.341808543,1201.0 196.897778592,1201.00753979 196.914614861,1242.68020203 182.210635053,1242.66070642 182.200531393,1222.07538622 186.349830637,1222.07901247 186.341808543,1201.0 " moovel_rot="8.8" moovel_centroid="190.433460029,1223.5507830063493" moovel_centroidlatlon="-122.42779800886721,37.786404840890114"></polygon></g><g transform="translate(-184.9190271 -584.8559829000001) rotate(0)"><polygon id="132605457" class="tile" points="236.816285174,1771.43726447 214.494386563,1772.01405821 214.498753204,1746.84079922 236.356518726,1746.83336496 236.816285174,1771.43726447 " moovel_rot="3.6" moovel_centroid="225.500236824,1759.32598443" moovel_centroidlatlon="-122.41138787442668,37.76793881503493"></polygon></g><g transform="translate(-103.9685289 -809.5766782000001) rotate(0)"><polygon id="243571763" class="tile" points="298.614868644,1746.91281136 279.723114687,1746.83336496 279.714833489,1775.37183664 298.605666429,1775.46202089 298.614868644,1746.91281136 " moovel_rot="43.2" moovel_centroid="289.165213298,1761.14489557" moovel_centroidlatlon="-122.4011170696715,37.7742880307514"></polygon></g><g transform="translate(221.1217842 -1736.1150472999998) rotate(0)"><polygon id="95934109" class="tile" points="27.4947790232,1783.45747363 27.4901399136,1746.83336496 41.9357969202,1746.86204761 41.9356306691,1778.51823096 36.0622034162,1778.50585514 36.0589176632,1783.47619252 27.4947790232,1783.45747363 " moovel_rot="73.4" moovel_centroid="34.4638655855,1764.23404839" moovel_centroidlatlon="-122.37654580739455,37.828213829375024"></polygon></g><g transform="translate(-31.557302600000014 -1733.2131777) rotate(0)"><polygon id="365618225" class="tile" points="299.614868644,1746.83336496 318.257628695,1747.03078124 318.199428833,1774.62795973 299.649917888,1774.5649952 299.614868644,1746.83336496 " moovel_rot="9.2" moovel_centroid="308.922970858,1760.75265576" moovel_centroidlatlon="-122.41926571352317,37.78761322205312"></polygon></g><g transform="translate(-309.04805880000004 -1604.7593424) rotate(0)"><polygon id="252221781" class="tile" points="334.747426851,1801.10754592 334.749946765,1748.39269209 333.931701172,1746.83382642 324.091954094,1746.83336496 324.17814505,1755.80102698 330.616833642,1755.84927667 330.706260902,1771.41656475 319.257628695,1780.90999611 334.747426851,1801.10754592 " moovel_rot="-86.3" moovel_centroid="329.968530097,1773.04368607" moovel_centroidlatlon="-122.4253991231102,37.76986740153957"></polygon></g><g transform="translate(-250.29765769999997 -869.8732188000001) rotate(0)"><polygon id="30130735" class="tile" points="275.26466198,1523.21250265 263.672945203,1522.70314332 263.656846313,1482.22073841 275.844007509,1482.9887749 275.26466198,1523.21250265 " moovel_rot="63.9" moovel_centroid="269.605229902,1502.61213081" moovel_centroidlatlon="-122.45309455316135,37.80253898724099"></polygon></g><g transform="translate(-461.7253862 -1439.0539247) rotate(0)"><polygon id="69342311" class="tile" points="477.69310872,1781.59670024 481.583943188,1781.57616049 486.523549571,1779.78612388 491.793393911,1779.70758623 491.836826702,1746.83336496 477.402509822,1747.04415968 477.69310872,1781.59670024 " moovel_rot="-83.5" moovel_centroid="484.595382754,1763.70540935" moovel_centroidlatlon="-122.44751005645284,37.796840487155684"></polygon></g><g transform="translate(-66.31170940000001 -417.4195642999998) rotate(0)"><polygon id="32775214" class="tile" points="309.556334544,1494.18464809 309.559711972,1520.70613406 294.907349842,1520.65115427 294.908471425,1482.22073841 300.466775876,1482.24019144 300.47292232,1494.1503797 309.556334544,1494.18464809 " moovel_rot="58.2" moovel_centroid="301.571116809,1504.61748947" moovel_centroidlatlon="-122.46046164669688,37.797939560349995"></polygon></g><g transform="translate(180.1298855 -1590.4596786) rotate(0)"><polygon id="32777234" class="tile" points="42.9444724672,1781.19052021 55.4039351765,1781.11614633 55.5044945039,1774.04032526 57.373663177,1774.24216076 58.7032246426,1767.71339959 58.8535888363,1757.5476548 57.803365463,1746.90786011 54.2469645113,1746.83336496 42.9357969202,1747.16819023 44.0090896513,1756.01093416 44.5683391459,1769.01811909 42.9444724672,1781.19052021 " moovel_rot="9.5" moovel_centroid="50.9102079734,1763.41417769" moovel_centroidlatlon="-122.47347269998725,37.80412869153133"></polygon></g><g transform="translate(-318.3563375 -619.6782195999999) rotate(0)"><polygon id="288443853" class="tile" points="503.419921663,1264.80761795 503.4509727,1201.00080015 508.400689333,1201.0 508.361220411,1264.80677372 503.419921663,1264.80761795 " moovel_rot="-89.7" moovel_centroid="505.908205735,1232.894747320818" moovel_centroidlatlon="-122.46636081449991,37.801702625507026"></polygon></g><g transform="translate(-96.58867379999998 -2506.8289998) rotate(0)"><polygon id="43825187" class="tile" points="304.800662632,2513.21590881 301.524165839,2513.81387039 301.897830872,2528.02849902 287.745853423,2527.53778343 287.74522221,2541.31661543 310.926026925,2539.94594921 310.877219556,2520.08420699 304.800662632,2513.21590881 " moovel_rot="48.5" moovel_centroid="300.939446753,2530.72259008" moovel_centroidlatlon="-122.41761029815511,37.71281822965721"></polygon></g><g transform="translate(-227.69088609999997 -1239.3377186) rotate(0)"><polygon id="160892132" class="tile" points="399.056976758,2436.41119192 399.088365452,2414.38923429 407.338468545,2414.2369457 408.82064136,2413.07958293 408.716856201,2411.35445625 417.468507823,2411.20632077 417.623343044,2428.39847896 417.711631168,2436.12791548 399.056976758,2436.41119192 " moovel_rot="-45.7" moovel_centroid="408.612587974,2424.52952425" moovel_centroidlatlon="-122.39757756505033,37.78059224270327"></polygon></g><g transform="translate(124.19870670000003 -1122.4446655000002) rotate(0)"><polygon id="292210064" class="tile" points="145.570194558,1482.22073841 150.42661294,1482.2229457 150.435614457,1544.584129 145.4855347,1544.57543555 145.570194558,1482.22073841 " moovel_rot="9.1" moovel_centroid="147.979470763,1513.50007925" moovel_centroidlatlon="-122.41050861521225,37.79041576035597"></polygon></g><g transform="translate(-339.6608395 -2402.3721004) rotate(0)"><polygon id="265728767" class="tile" points="471.3817781,2411.51081772 471.360079645,2435.57638312 472.476372277,2435.55270313 477.440371901,2435.48905876 477.482386184,2438.92018176 483.620234047,2436.33756925 483.48604739,2433.67755586 488.387747465,2433.61779847 488.108461328,2411.20632077 484.459489524,2411.24830444 471.3817781,2411.51081772 " moovel_rot="-19.2" moovel_centroid="479.699425668,2423.64479682" moovel_centroidlatlon="-122.47605974057373,37.7210650897242"></polygon></g><g transform="translate(-54.70407510000004 -1205.5307189999999) rotate(0)"><polygon id="48435248" class="tile" points="278.701786999,1746.87289471 278.714833489,1776.2721346 271.530197678,1776.24877059 264.955808687,1776.23259504 264.942393532,1752.95560743 264.942740068,1746.83336496 278.701786999,1746.87289471 " moovel_rot="66.1" moovel_centroid="271.828029883,1761.55174319" moovel_centroidlatlon="-122.46473676831722,37.72641974653086"></polygon></g><g transform="translate(4.327452800000003 -923.9535675) rotate(0)"><polygon id="258866805" class="tile" points="197.914614861,1242.20649392 197.929588907,1201.0 206.895083862,1201.00206362 206.872205611,1242.20127994 197.914614861,1242.20649392 " moovel_rot="-85.8" moovel_centroid="202.402742771,1221.5994296548668" moovel_centroidlatlon="-122.40241097992907,37.74830282918412"></polygon></g><g transform="translate(-47.903833199999994 -1285.6044477) rotate(0)"><polygon id="32775008" class="tile" points="59.8535888363,1770.97788452 59.8620542791,1746.89483197 75.8695975054,1746.83336496 75.8674478769,1748.46466535 75.8611092269,1770.91639651 59.8535888363,1770.97788452 " moovel_rot="-47.4" moovel_centroid="67.8611925751,1758.90578882" moovel_centroidlatlon="-122.45158220589148,37.79362895205981"></polygon></g><g transform="translate(-351.32544799999994 -1060.3030756) rotate(0)"><polygon id="115433827" class="tile" points="578.269419265,1510.88091573 565.829099244,1510.70298078 564.958095751,1482.52963918 578.309601277,1482.22073841 578.269419265,1510.88091573 " moovel_rot="3.3" moovel_centroid="571.85732372,1496.41486153" moovel_centroidlatlon="-122.4313225096879,37.76624766261198"></polygon></g><g transform="translate(-215.1272061 -2570.8052169) rotate(0)"><polygon id="200034834" class="tile" points="240.570118315,2772.40196656 229.06037212,2768.02914557 223.100562571,2782.02410108 231.81877947,2785.63070941 227.752865925,2796.67373382 240.538446088,2804.41376897 235.365273114,2779.71848046 240.570118315,2772.40196656 " moovel_rot="79.2" moovel_centroid="232.726523155,2784.47247448" moovel_centroidlatlon="-122.43195718718506,37.728538584025095"></polygon></g><g transform="translate(-301.1485923 -391.6813069) rotate(0)"><polygon id="71209423" class="tile" points="329.508262797,1501.65452876 310.559711972,1501.35256776 310.787725729,1482.22073841 329.49627411,1482.62241886 329.508262797,1501.65452876 " moovel_rot="-79.9" moovel_centroid="320.079311763,1491.98262295" moovel_centroidlatlon="-122.41548309348171,37.78283035976185"></polygon></g><g transform="translate(-215.30336390000002 -925.0878064999999) rotate(0)"><polygon id="43798395" class="tile" points="298.811411971,1208.32599531 304.804976704,1227.51919561 315.612872365,1226.0395003 315.622111953,1201.63560324 306.749767082,1201.0 298.811411971,1208.32599531 " moovel_rot="-10.8" moovel_centroid="308.598630012,1213.8403857833998" moovel_centroidlatlon="-122.41959203244743,37.71259716002124"></polygon></g><g transform="translate(-89.18310049999998 -98.61284459999979) rotate(0)"><polygon id="288953494" class="tile" points="176.134398908,1250.98282235 176.113012719,1201.00326688 181.187277223,1201.0 181.200531393,1250.98656664 176.134398908,1250.98282235 " moovel_rot="-92.3" moovel_centroid="178.658862015,1225.9864813789084" moovel_centroidlatlon="-122.4780167750436,37.72069707113311"></polygon></g><g transform="translate(-82.20458309999998 -1718.9066599999999) rotate(0)"><polygon id="154647389" class="tile" points="222.100562571,2793.40397124 222.0911841,2768.02914557 209.296580289,2768.04999135 209.305966046,2793.42481806 222.100562571,2793.40397124 " moovel_rot="-81.9" moovel_centroid="215.698573207,2780.72698035" moovel_centroidlatlon="-122.42109830000001,37.77443335"></polygon></g><g transform="translate(-266.4695573 -1398.2739339) rotate(0)"><polygon id="103638950" class="tile" points="283.93590568,1982.79475321 296.385426156,1982.79162904 296.406113002,2005.87346141 283.949923916,2005.87621014 283.945278607,1992.55824403 283.93590568,1982.79475321 " moovel_rot="3.2" moovel_centroid="290.170220717,1994.33512529" moovel_centroidlatlon="-122.49705046093753,37.738140637383594"></polygon></g><g transform="translate(-142.6173154 -808.0405235999999) rotate(0)"><polygon id="347772734" class="tile" points="247.868075659,2005.92242544 258.46756219,2005.66693656 260.612529304,2005.68042004 260.054382796,1982.79162904 247.882562932,1982.86772417 247.961352908,1994.88422429 247.868075659,2005.92242544 " moovel_rot="-43.9" moovel_centroid="254.118025006,1994.38961472" moovel_centroidlatlon="-122.46956264681656,37.73710947800025"></polygon></g><g transform="translate(-317.2828237 -24.07870610000009) rotate(0)"><polygon id="25821948" class="tile" points="440.310078495,1221.52701023 453.952188719,1221.16740881 453.964308935,1201.0 439.780258211,1201.24407735 439.882326493,1206.08761663 440.075314472,1212.48713875 440.275781338,1220.03328633 440.310078495,1221.52701023 " moovel_rot="3.3" moovel_centroid="446.990867464,1211.166524837542" moovel_centroidlatlon="-122.41471497073421,37.76879530059876"></polygon></g><g transform="translate(-191.37491710000003 -906.4804898) rotate(0)"><polygon id="32116432" class="tile" points="423.596310036,1482.22725141 423.604833669,1508.12550175 413.644731971,1508.12737393 413.636838822,1482.22073841 423.596310036,1482.22725141 " moovel_rot="4.3" moovel_centroid="418.62040998,1495.17535353" moovel_centroidlatlon="-122.43312565385824,37.75112567313396"></polygon></g><g transform="translate(-68.46154669999999 -1335.0610182000003) rotate(0)"><polygon id="256806179" class="tile" points="326.976816313,2513.21590881 326.986292608,2532.83991858 312.19428817,2533.20031102 311.926026925,2521.00157156 316.562290918,2521.237059 317.122198079,2520.63122932 317.252231785,2519.76691145 314.282086717,2517.15698405 317.373651007,2513.51779133 326.976816313,2513.21590881 " moovel_rot="44.6" moovel_centroid="320.134791867,2523.87634578" moovel_centroidlatlon="-122.43496686999075,37.76315887852005"></polygon></g><g transform="translate(-96.0492247 -1121.5238359) rotate(0)"><polygon id="115433816" class="tile" points="277.337072182,2002.56670781 277.318173537,1982.79162904 261.624123757,1983.14879627 261.612529304,1996.14540868 269.77178303,1996.38407117 269.972528599,2002.2053893 277.337072182,2002.56670781 " moovel_rot="43.9" moovel_centroid="270.253465196,1991.35852399" moovel_centroidlatlon="-122.43188037660545,37.76560460901086"></polygon></g><g transform="translate(-36.162602699999994 -2456.438184) rotate(0)"><polygon id="407836329" class="tile" points="143.882033082,2513.21590881 148.836329852,2513.21917761 148.81759006,2529.29277723 154.371585696,2529.29069063 154.367316571,2541.82745673 143.859026873,2541.82627475 143.882033082,2513.21590881 " moovel_rot="-85.4" moovel_centroid="148.075017308,2530.17036912" moovel_centroidlatlon="-122.4187228885791,37.762699061176306"></polygon></g><g transform="translate(84.44136029999999 -1694.3822537) rotate(0)"><polygon id="252221780" class="tile" points="152.944074548,2411.20632077 160.386182551,2411.50314288 165.200246916,2420.63898957 167.42590398,2425.80789614 160.613627289,2433.43562317 159.398249935,2434.88742188 154.901596332,2431.01059028 152.9553342,2433.39889107 152.944074548,2411.20632077 " moovel_rot="45.4" moovel_centroid="158.759183996,2422.62922899" moovel_centroidlatlon="-122.42507239543396,37.77015768566267"></polygon></g><g transform="translate(-61.868254 -1325.3005544) rotate(0)"><polygon id="415334883" class="tile" points="95.2225450885,2411.20632077 95.2245163467,2429.85467605 108.944503204,2430.11426506 109.248209799,2417.21294742 104.471358775,2417.10334201 104.579391133,2412.5086165 104.697569966,2411.45940591 99.14705511,2411.31435599 95.2225450885,2411.20632077 " moovel_rot="-85.4" moovel_centroid="101.637921352,2421.37068337" moovel_centroidlatlon="-122.42131148671294,37.76155850226649"></polygon></g><g transform="translate(150.7920182 -399.49883479999994) rotate(0)"><polygon id="343810353" class="tile" points="80.5756454084,1201.0 75.7559912045,1205.87979242 75.7261927575,1242.13845492 80.6422949072,1237.58926892 80.5756454084,1201.0 " moovel_rot="59.6" moovel_centroid="78.1797814021,1221.70731355819" moovel_centroidlatlon="-122.49963174802144,37.72592461507267"></polygon></g><g transform="translate(56.851651000000004 -1901.6168865) rotate(0)"><polygon id="129903413" class="tile" points="2.72771837376,1982.79162904 2.72529854625,1987.68313879 0.0,1987.68176742 0.000926078483462,2004.20388643 2.69291420728,2004.2028706 5.37157818563,2004.20089967 10.8821338914,2004.2079413 10.8834419232,1999.51877848 10.8763642833,1982.8022233 2.72771837376,1982.79162904 " moovel_rot="4.1" moovel_centroid="5.687671079953918,1994.00242273" moovel_centroidlatlon="-122.47686909659902,37.75446769071956"></polygon></g><g transform="translate(-223.31476780000003 -1028.0795825) rotate(0)"><polygon id="338711122" class="tile" points="514.495529313,1223.61751751 514.487994593,1234.49542097 509.400689333,1234.52755352 509.427173993,1202.08889458 509.42467904,1201.0 513.324148489,1201.00703954 514.520484391,1201.00362474 514.495529313,1223.61751751 " moovel_rot="-60" moovel_centroid="511.958047073,1217.7541394636128" moovel_centroidlatlon="-122.47997797062251,37.72827579418257"></polygon></g><g transform="translate(-109.1631137 -1858.6652787) rotate(0)"><polygon id="173695339" class="tile" points="401.720312831,1982.79162904 401.72585231,1990.52722938 401.734252934,2002.17321828 401.736776701,2010.35979736 395.281331189,2010.35407221 395.263564615,1982.79422276 401.720312831,1982.79162904 " moovel_rot="8.9" moovel_centroid="398.50124578,1996.57481335" moovel_centroidlatlon="-122.41337688917606,37.78506297774948"></polygon></g><g transform="translate(-234.9240684 -1822.0380819) rotate(0)"><polygon id="93420032" class="tile" points="520.961719284,2434.50773634 529.110929098,2434.48583956 529.092508519,2411.20632077 520.944327372,2411.22161806 520.961719284,2434.50773634 " moovel_rot="-81.1" moovel_centroid="525.027178848,2422.85562526" moovel_centroidlatlon="-122.4103530291089,37.80466770180044"></polygon></g><g transform="translate(-364.5474341 -804.2155059000002) rotate(0)"><polygon id="173886730" class="tile" points="570.559681767,1982.79162904 559.582236894,1982.82734191 559.56799009,2001.07868546 570.550203906,2001.03829618 570.559681767,1982.79162904 " moovel_rot="-44.3" moovel_centroid="565.064794093,1991.93464905" moovel_centroidlatlon="-122.40044588442912,37.7817524463038"></polygon></g><g transform="translate(-167.1191619 -583.5387907) rotate(0)"><polygon id="338710916" class="tile" points="457.398685195,1236.868691 454.97574648,1236.88608034 454.964863768,1201.0749078 454.964308935,1201.00369753 458.889161605,1201.0 458.869035922,1236.88150534 457.398685195,1236.868691 " moovel_rot="33.8" moovel_centroid="456.924659464,1218.9154551677216" moovel_centroidlatlon="-122.47992082668928,37.72885897100806"></polygon></g><g transform="translate(45.982220600000005 -1194.3701328) rotate(0)"><polygon id="424825408" class="tile" points="107.6611391,1218.89666332 118.323461135,1218.89970875 118.330932083,1201.0 107.668200426,1201.00362117 107.6611391,1218.89666332 " moovel_rot="-86.5" moovel_centroid="112.996264201,1209.949941383067" moovel_centroidlatlon="-122.41962522385069,37.761434096113895"></polygon></g><g transform="translate(-213.52236630000002 -1616.3315324999999) rotate(0)"><polygon id="420832780" class="tile" points="374.468086536,2513.21590881 381.638292304,2514.01715085 380.961838253,2520.15511977 380.810027185,2526.13783973 381.627681074,2536.23334394 374.440553157,2536.79671558 373.593617623,2526.32497019 373.761298262,2519.65721419 374.468086536,2513.21590881 " moovel_rot="12.0" moovel_centroid="377.514275582,2525.05889011" moovel_centroidlatlon="-122.4777493240327,37.79582459744034"></polygon></g><g transform="translate(17.35722099999998 -1356.0884025) rotate(0)"><polygon id="168942991" class="tile" points="240.795023619,2015.46757062 238.814387424,2018.79658224 238.409408157,2017.29906824 237.551827557,2013.37849973 236.998660228,2009.43054036 236.749946108,2005.30489283 236.762286584,2001.0739614 236.985560013,1996.77862873 237.815817108,1985.29692657 240.774528281,1982.79162904 239.648121025,1996.97295767 239.421125624,2001.20067979 239.39239741,2005.1792121 239.671044151,2009.24456075 240.204842246,2012.90106212 240.795023619,2015.46757062 " moovel_rot="26.4" moovel_centroid="238.608664365,2000.60419861" moovel_centroidlatlon="-122.51346806624443,37.77801535592525"></polygon></g><g transform="translate(-201.9138812 -1050.3607847) rotate(0)"><polygon id="32775053" class="tile" points="278.337072182,1982.79162904 282.926431804,1982.79556452 282.93590568,2007.35238108 278.346546064,2007.34844526 278.337072182,1982.79162904 " moovel_rot="1.1" moovel_centroid="280.636488938,1995.07200497" moovel_centroidlatlon="-122.45225384999999,37.79422925"></polygon></g><g transform="translate(-555.0775699999999 -1290.1448756) rotate(0)"><polygon id="32775085" class="tile" points="591.770333315,1746.83336496 588.043356764,1746.84178192 588.043356764,1768.24607629 591.770333315,1768.24607629 591.770333315,1746.83336496 " moovel_rot="0" moovel_centroid="589.906967147,1757.54182473" moovel_centroidlatlon="-122.4525777981718,37.794597175001634"></polygon></g><g transform="translate(57.75091989999999 -1693.9667211) rotate(0)"><polygon id="392871257" class="tile" points="30.404144638,2513.22318903 30.4077006292,2528.00393258 36.8361532461,2527.99665202 36.8325995114,2513.21590881 30.404144638,2513.22318903 " moovel_rot="-81.4" moovel_centroid="33.6201494937,2520.60992018" moovel_centroidlatlon="-122.40966085,37.7979582"></polygon></g><g transform="translate(-15.923747800000001 -2030.4270148) rotate(0)"><polygon id="388982395" class="tile" points="165.443393728,2777.52008028 166.346364514,2773.94545768 169.320623157,2771.67481844 170.693098088,2768.02914557 175.570044816,2769.92024985 174.725358038,2775.21856836 175.569783653,2781.8550107 165.443393728,2777.52008028 " moovel_rot="22.3" moovel_centroid="171.343726561,2774.98985917" moovel_centroidlatlon="-122.44735804226299,37.73354005818701"></polygon></g><g transform="translate(-342.81199250000003 -1050.3349356) rotate(0)"><polygon id="215705487" class="tile" points="359.50645186,1212.26851952 351.556553133,1218.0729159 351.561149194,1201.0 359.50645186,1212.26851952 " moovel_rot="9.2" moovel_centroid="354.208051396,1210.4471451405436" moovel_centroidlatlon="-122.42321286666665,37.7723546"></polygon></g><g transform="translate(-153.8734071 -1688.3408598) rotate(0)"><polygon id="338710935" class="tile" points="165.528992503,1990.7203194 165.448466818,1991.70281479 166.155541735,1991.75786828 166.008404846,1993.73442707 165.720814073,1993.70925492 163.343505922,1993.52089905 163.343158573,1993.49235605 163.488803672,1991.55492001 164.337661398,1991.61886825 164.657434342,1987.33578947 162.65602675,1987.15318885 163.03190667,1982.79162904 166.149637172,1983.02643711 165.528992503,1990.7203194 " moovel_rot="-28.6" moovel_centroid="164.616517893,1987.66058292" moovel_centroidlatlon="-122.4807861656323,37.72403624167375"></polygon></g></g><g transform="translate(0 1327.7)"><polygon id="0" class="bin" points="-203.4571692,6.76599170385 -204.960155667,4.12198359301 -204.008708265,1.23329962786 -201.228650849,0.0 -1.875,0.0 0.77665042945,1.09834957055 1.875,3.75 1.875,1203.75 0.77665042945,1206.40165043 -1.875,1207.5 -231.417676672,1207.5 -233.502391168,1206.86712455 -234.883444533,1205.18211492 -236.10259412,1202.23173055 -240.166025505,1200.54599326 -296.789518728,1200.52354359 -299.576468787,1199.2809569 -300.517129174,1196.37815302 -298.988666501,1193.73714674 -298.352459757,1193.27605471 -297.012492381,1192.66255431 -286.977055209,1190.29613958 -283.485520904,1187.85332087 -282.628532365,1183.67914481 -283.734729023,1177.47393283 -283.777373632,1177.15704734 -284.367635218,1170.69751575 -284.383093965,1170.38367523 -284.433616096,1163.47102239 -284.425563992,1163.1964812 -283.93594424,1155.78317955 -283.923960916,1155.64222719 -283.775276837,1154.21323919 -282.913507494,1152.18543477 -281.061618265,1150.99164106 -280.216787354,1150.75380254 -278.049966476,1146.99439677 -277.09444699,1140.017609 -277.052650702,1139.63164669 -276.444179661,1132.00670751 -276.424744468,1131.28032052 -276.570547134,1125.7021617 -278.447950077,1121.60678768 -282.704828606,1120.13175707 -284.465198264,1120.25543934 -285.991441184,1120.36269135 -287.651789889,1120.6883006 -289.875724222,1121.41825182 -293.199986415,1120.92436027 -294.793566453,1117.96544989 -295.557280051,1091.98417836 -294.532230061,1089.29601796 -291.904276592,1088.12520867 -278.559774482,1087.7856948 -273.752103078,1085.61690163 -272.669096359,1084.4512887 -272.553298714,1084.33206941 -271.52351501,1083.31782804 -270.189221941,1081.47382998 -269.489942286,1080.06157502 -268.854352309,1078.04211454 -268.67173706,1076.83442905 -266.519416259,1073.98293755 -265.976533658,1073.73544915 -264.434699473,1069.62174485 -264.609620729,1064.42293453 -265.116652987,1062.05576703 -265.916557708,1060.10076906 -266.194492037,1058.78120445 -266.617025002,1043.02236786 -267.326997836,1041.29162881 -267.368943706,1038.55209541 -266.821325888,1037.09128907 -268.531941366,1033.13830027 -271.13458363,1030.56949929 -271.292989031,1030.4032766 -274.315991683,1027.0300781 -274.456031898,1026.86441418 -276.73346693,1024.00654619 -277.108576726,1023.43611603 -278.191821433,1021.40787195 -278.385634891,1020.98333935 -279.504009585,1018.06543112 -279.592456295,1017.8068419 -280.475603166,1014.88065059 -282.922210838,1011.73048086 -283.643361083,1008.72366272 -282.700183234,1003.80782522 -284.083841378,997.207300323 -284.127514549,996.957015106 -285.11209815,989.91279698 -285.142276985,989.604388428 -285.537405162,982.582741747 -285.541718334,982.262170299 -285.334752267,975.201934599 -285.31759086,974.937069922 -284.593094665,967.723492519 -284.583739661,967.639808227 -283.637808542,959.960049004 -283.60238626,959.590444772 -283.086938182,952.081660887 -281.922871278,949.614344739 -279.394836549,948.588800425 -239.739762847,948.069602747 -235.725215996,946.361684263 -234.065460678,942.326986721 -233.843029151,744.629697199 -235.559584323,740.529043694 -239.689189356,738.883357483 -254.20949642,739.149780549 -256.88203334,738.099119801 -258.02771879,735.465919002 -256.974715359,732.794304253 -249.289496617,724.842747364 -247.674676772,720.783081916 -249.380013771,716.760601039 -264.77793482,701.527086357 -265.316515099,700.855176532 -272.390361448,689.587875387 -272.643367493,688.079989351 -272.666320899,688.08693027 -274.901277784,680.695997107 -300.695792941,656.406754683 -301.874999,653.676641404 -301.874999,601.727604232 -300.785264225,599.084596677 -249.282486866,547.245528967 -247.613314095,543.160838618 -249.333634636,539.097425001 -252.387232536,536.100103561 -253.359726058,534.476069225 -255.420388381,527.426695005 -300.796685702,481.356765643 -301.874999,478.725304041 -301.874999,462.788839903 -301.085199851,460.486729801 -299.048486508,459.154328818 -271.133788205,452.061524701 -270.433648034,451.843261078 -266.738702418,450.471143488 -266.036944673,450.165062768 -262.213668966,448.237335587 -261.442828658,447.78347884 -257.599352539,445.16949476 -256.77994565,444.515496842 -253.648673592,441.598678735 -252.466685811,440.149644064 -250.40310494,436.766033069 -250.056389833,436.122964692 -248.391348519,432.598207036 -247.85482934,430.950707587 -247.225342485,427.648015934 -247.204583163,425.193503386 -251.692678631,399.269261466 -251.746870302,398.553433679 -251.688488445,395.678273683 -251.579646266,394.854349939 -250.959864381,392.347562014 -250.670100275,391.563620865 -248.961430761,388.163905902 -248.867048153,387.987951525 -247.027858733,384.768058372 -246.427038184,380.570720629 -248.860960058,377.098739383 -250.674198745,375.904028177 -251.7105767,373.940862399 -251.880525941,374.035182086 -255.637796698,367.265171156 -300.055321624,340.596550353 -301.874999,337.381530202 -301.874999,280.119958412 -300.905246419,277.603467942 -298.497546047,276.388509807 -295.897163829,277.103462025 -213.309558097,338.098586543 -209.031862015,339.156868123 -205.262898283,336.873546846 -197.747207459,326.619515056 -196.700986987,322.357064058 -198.968506183,318.599215939 -231.130432208,294.849304299 -232.610121065,292.396796267 -231.926901208,289.615162684 -228.853443602,285.423746078 -227.80639723,281.161110314 -230.073749481,277.40272189 -300.352808658,225.499000259 -301.874999,222.48248503 -301.874999,161.569298975 -301.149313399,159.352088472 -197.64928115,18.1762111744 -196.602481145,13.9143499688 -198.868841409,10.1563102753 -203.4571692,6.76599170385 " moovel_rot="0" moovel_centroid="-133.05855829202574,607.7420838906089" moovel_centroidlatlon="0,0" transform="translate(301.875 0)"></polygon><g transform="translate(-171.94209983062206 -1210.7352154) rotate(0)"><polygon id="48986008" class="tile" points="242.382654097,1982.79162904 246.359197523,1986.48017007 245.591804553,2381.57156049 246.868075659,2411.20632077 244.009783211,2408.09136341 242.057792104,2398.79587094 241.795023619,2393.90122295 242.382654097,1982.79162904 " moovel_rot="9.2" moovel_centroid="244.0495452,2195.33751224" moovel_centroidlatlon="-122.4368825857373,37.803541036407076"></polygon></g><g transform="translate(-9.035264699999999 -62.855068500000016) rotate(0)"><polygon id="120481449" class="tile" points="87.7049231615,1234.10410511 106.6611391,1232.22301045 100.574746767,1219.01386336 99.8504791044,1214.71855848 101.985587076,1201.28775428 87.7484793268,1201.0 87.7049231615,1234.10410511 " moovel_rot="-80.4" moovel_centroid="94.9273829447,1218.1266655526033" moovel_centroidlatlon="-122.45456810363068,37.77246273387895"></polygon></g><g transform="translate(-58.29262009999999 -1664.1686786000002) rotate(0)"><polygon id="173897604" class="tile" points="137.081279194,2797.31458268 150.732797132,2797.29573228 150.732224805,2768.02914557 144.374682976,2768.04090566 137.072381287,2768.04669222 137.081279194,2797.31458268 " moovel_rot="-81.1" moovel_centroid="143.904609712,2782.67094989" moovel_centroidlatlon="-122.42148889146276,37.79618642679236"></polygon></g><g transform="translate(-299.4596706 -910.8447077999999) rotate(0)"><polygon id="407836328" class="tile" points="378.301355138,1982.84042958 378.307122418,1993.73597945 382.218720668,1993.73445846 382.225246992,2009.70956896 394.263564615,2009.70402492 394.260090845,1982.82722708 385.503612195,1982.79162904 378.301355138,1982.84042958 " moovel_rot="-86.4" moovel_centroid="387.31087512,1995.32745415" moovel_centroidlatlon="-122.41868841605947,37.762990705590376"></polygon></g><g transform="translate(-239.71174459999997 -1371.6885239) rotate(0)"><polygon id="154647390" class="tile" points="330.882372269,2411.21547661 330.899657283,2438.6741074 318.633795026,2438.66494291 318.616508582,2411.20632077 330.882372269,2411.21547661 " moovel_rot="9.4" moovel_centroid="324.758083611,2424.94021166" moovel_centroidlatlon="-122.4208113,37.775505800000005"></polygon></g><g transform="translate(2.0984576000000033 -739.9917406999999) rotate(0)"><polygon id="239622813" class="tile" points="76.8747301649,1774.50583138 83.5940335244,1774.5146946 83.5418784048,1768.71627043 93.9659373239,1768.70933259 94.0415132746,1758.36982424 83.5085221909,1757.71939464 83.4231735703,1746.83336496 76.8695975054,1746.92838942 76.889442334,1765.2819453 76.8747301649,1774.50583138 " moovel_rot="9.3" moovel_centroid="83.4240564933,1761.73779871" moovel_centroidlatlon="-122.42197052536876,37.7776945125194"></polygon></g><g transform="translate(-281.8661874 -1537.2400915000003) rotate(0)"><polygon id="148546179" class="tile" points="360.894380534,2513.21590881 367.495912919,2513.45050236 372.593617623,2516.89408578 372.570257869,2539.10203443 360.896534141,2539.05709787 360.894380534,2513.21590881 " moovel_rot="45.4" moovel_centroid="366.606482064,2526.57680976" moovel_centroidlatlon="-122.41603751852985,37.778486748740846"></polygon></g><g transform="translate(-197.7925798 -534.2897931999998) rotate(0)"><polygon id="382142239" class="tile" points="293.907349842,1488.57590038 290.166794354,1485.3699122 286.636493287,1482.34118602 276.875237967,1482.22073841 276.844007509,1484.33400967 276.866963042,1505.26743807 284.448504329,1505.15472541 286.650051459,1505.12246198 286.865895784,1494.84432032 287.088289901,1492.37368685 289.021486472,1494.02251045 290.122233893,1492.86198195 293.907349842,1488.57590038 " moovel_rot="45.4" moovel_centroid="283.063909255,1492.87773972" moovel_centroidlatlon="-122.42954623319582,37.76748373689002"></polygon></g><g transform="translate(-168.8016026 -561.5103842) rotate(0)"><polygon id="195517604" class="tile" points="252.018500026,1504.49202495 262.656846313,1504.51775922 262.646014069,1489.46435347 256.919427078,1489.45175094 256.914588676,1482.22586948 252.871068707,1482.22073841 252.876476641,1490.33105114 247.921404084,1490.32153844 247.92016369,1499.64109616 252.019698143,1499.64674634 252.018500026,1504.49202495 " moovel_rot="18.0" moovel_centroid="255.796481372,1495.23162278" moovel_centroidlatlon="-122.40556944874761,37.73133000875761"></polygon></g><g transform="translate(-122.3507143 -1520.4628832999997) rotate(0)"><polygon id="408005287" class="tile" points="212.048606864,2413.47711976 206.00684711,2413.39197861 202.322536657,2411.20632077 202.07167847,2415.80516361 201.644996443,2415.85082375 201.522978162,2417.19157894 202.096886846,2417.37054556 201.720367965,2436.02570974 206.347183766,2436.10881909 212.052546274,2436.20559288 212.048606864,2413.47711976 " moovel_rot="5.2" moovel_centroid="206.92217674,2424.60894646" moovel_centroidlatlon="-122.42171203135942,37.771895726790596"></polygon></g><g transform="translate(-330.4586816 -882.0297114000001) rotate(0)"><polygon id="420415947" class="tile" points="418.077958843,1768.48004531 409.66163784,1768.00316302 409.719554926,1760.24544109 409.817094937,1746.83336496 413.34546145,1747.63550889 418.065030985,1748.71691485 414.65616947,1749.00575325 414.24206919,1758.490209 418.051286065,1758.98477685 418.077958843,1768.48004531 " moovel_rot="2.5" moovel_centroid="413.210726224,1759.12844694" moovel_centroidlatlon="-122.45394410966495,37.72315998196362"></polygon></g></g></svg>