<svg><g transform="translate(0 0)"><polygon id="2" class="bin" points="-446.2499995,1207.499999 -448.901649929,1206.40164943 -449.9999995,1203.749999 -449.9999995,3.75 -448.901649929,1.09834957055 -446.2499995,0.0 -325.317238221,0.0 -322.667233615,1.09670476733 -321.567241108,3.74534635108 -321.308998902,211.841733809 -319.972849397,215.890151576 -302.776135608,239.164940512 -299.256324151,241.644065311 -270.154905314,250.416879059 -266.29349841,250.441823742 -151.035875529,217.31487582 -147.744122773,217.923382875 -146.2500005,220.91896557 -146.2500005,266.462156425 -147.336083878,269.101483655 -147.533362131,269.300599859 -158.845329044,281.441114415 -180.734436434,304.913045335 -181.538032955,305.960791415 -199.753208676,335.141561755 -200.476824001,336.711808248 -210.536408975,368.597170382 -210.796208901,369.769159184 -214.776200854,400.050407964 -214.789390019,401.733549524 -211.246165293,432.404661783 -210.870587026,433.984014542 -207.280155071,443.761603067 -199.646290763,464.541431077 -198.50133997,466.538366149 -181.02848593,487.746554481 -180.296976621,491.088319887 -182.582744388,493.63346578 -184.09125433,494.21060759 -185.879622524,495.224405256 -187.268484393,496.315764456 -188.439048232,497.490144268 -189.404452637,498.726981135 -190.089933429,499.79589252 -190.907440358,501.375072272 -191.672716407,504.378175678 -191.768799142,508.878746068 -191.770326853,509.002481117 -192.103855181,608.674948226 -192.057511911,700.392607089 -192.005918173,701.229713911 -191.498384749,705.348530178 -190.713593451,707.791765897 -188.799453919,711.30396038 -188.195743661,712.226791886 -185.494684436,715.709655603 -183.950879861,717.165169488 -180.835902897,719.299823214 -179.791593852,719.888684747 -150.259345827,733.293146911 -148.257454694,735.504868582 -148.503279039,738.477889142 -148.995587326,739.397400434 -149.215490488,742.066915154 -150.519718365,744.612548659 -153.239479226,745.498077407 -154.40604297,745.408644347 -155.354103479,745.401547995 -159.086468722,745.631543266 -162.167930282,746.582110473 -165.574082704,748.60949305 -166.097790063,748.95450171 -168.429093312,750.647713564 -169.318543287,751.125697972 -170.853497688,751.70007897 -172.449238688,753.744755075 -175.635477127,755.18052376 -183.886145668,754.673569221 -187.941477365,756.010350296 -189.961603358,759.772236763 -191.73927754,775.433982196 -191.52191354,778.081557393 -189.927114142,783.694109479 -189.794925833,785.000967811 -199.819791429,917.991531527 -199.583988258,920.361066396 -194.501277911,938.471380706 -194.475742557,938.567220372 -189.928058407,956.590446002 -189.826480492,957.203390026 -188.317802186,975.720966458 -188.316319394,975.739749179 -183.84091137,1034.30525301 -183.869991239,1035.13711758 -187.703487263,1061.17900103 -187.796120646,1061.62131283 -194.99921992,1087.98229435 -195.189426685,1088.94325662 -198.411028577,1114.77407084 -198.45477654,1115.27122191 -199.023374197,1126.30995634 -199.750667323,1140.30638709 -198.343804116,1144.3839109 -194.498589968,1146.33833988 -183.596883767,1147.27920266 -182.425994242,1147.57548001 -176.662616164,1150.07752907 -165.992979298,1148.97542708 -165.480266667,1148.9577456 -159.626399299,1149.15675585 -156.965234714,1150.39733397 -156.01357088,1153.17495291 -156.049919657,1153.67780863 -154.244535062,1158.25630524 -148.89293971,1159.90988208 -146.982221684,1161.26664864 -146.2500005,1163.49274635 -146.2500005,1203.749999 -147.348350071,1206.40164943 -150.0000005,1207.499999 -177.036094869,1207.499999 -179.186046361,1206.82249124 -180.559139819,1205.03477691 -183.941275219,1195.76047748 -184.129677694,1195.01203716 -187.622542088,1170.8414724 -189.814916328,1167.09983007 -193.99699739,1165.95240244 -195.520430787,1166.13412312 -198.147724856,1165.4595279 -210.990050175,1156.26425542 -215.323596889,1155.27733427 -219.062977091,1157.67955745 -243.63556984,1193.42037481 -244.538256197,1197.77785602 -241.930133907,1201.65804344 -241.323594078,1204.23265478 -242.567273101,1206.56713045 -245.042403484,1207.499999 -446.2499995,1207.499999 " moovel_rot="0" moovel_centroid="-326.2244302057052,655.2164951399715" transform="translate(450 0)"></polygon><g transform="translate(-220.2987087 -646.2661396999997) rotate(0)"><polygon id="25165529" class="tile" points="226.538820225,1769.19685494 230.002301023,1699.53426931 227.906746905,1630.18578256 227.313247145,1618.71255243 222.797803167,1586.70322409 223.63614453,1555.51877694 227.347751519,1525.66595966 236.617645527,1469.16326749 236.284798205,1464.71316606 233.951698956,1462.06112852 238.514417672,1448.22582874 242.142280246,1437.1842632 243.431102771,1434.90036616 246.314374313,1433.9199874 252.469608029,1435.65087257 256.186826926,1438.59238803 253.816536405,1448.98697387 245.286084567,1478.51027029 241.827143359,1494.35991017 240.067016174,1509.6161465 239.488176359,1522.00644623 240.19518183,1534.24930543 244.892805144,1559.63646875 252.009056049,1582.01085395 274.603716306,1646.39163312 284.679329377,1730.45767955 279.767545193,1845.76899391 222.944228562,1846.26624144 226.538820225,1769.19685494 " moovel_rot="-47.2" moovel_centroid="250.403640241,1695.56754839"></polygon></g><g transform="translate(-343.73728900000003 -400.36205410000014) rotate(0)"><polygon id="25163889" class="tile" points="491.694105363,1340.01724392 381.633912725,1338.85226409 382.287734695,1203.21595729 491.666451536,1201.0 491.694105363,1340.01724392 " moovel_rot="-71.8" moovel_centroid="437.045711511,1270.8421708124465"></polygon></g><g transform="translate(69.335201 -794.7624450000001) rotate(0)"><polygon id="182103073" class="tile" points="47.0753009157,1994.65743375 47.1032812821,1933.09593709 92.6496435883,1932.99337981 92.6799263874,1846.26624144 0.0552966004238,1846.47979343 0.0,1994.7624117 47.0753009157,1994.65743375 " moovel_rot="-69.1" moovel_centroid="40.30692336332219,1909.40637774"></polygon></g><g transform="translate(-238.17746509999998 -963.3760736) rotate(0)"><polygon id="413791016" class="tile" points="405.09853249,2014.54886216 458.015508388,2016.50927324 458.092206692,1889.95118952 435.282004492,1889.3331165 435.904644487,1846.34049718 416.715403893,1846.26624144 375.964766402,1937.54058534 405.281130678,1951.20685409 405.09853249,2014.54886216 " moovel_rot="-80.1" moovel_centroid="425.73974918,1937.61109362"></polygon></g><g transform="translate(-335.5513285 -1483.9111718999998) rotate(0)"><polygon id="286087281" class="tile" points="538.186131207,2224.45311655 539.800233838,2278.15861015 548.505009754,2278.46054788 548.470142535,2358.49081435 547.779981688,2360.92723814 490.058224882,2362.42388902 488.480134932,2285.37703216 498.724752502,2285.89812151 498.353452371,2282.37188172 497.626513066,2281.61808254 496.174370557,2274.09410555 496.929938266,2272.97807854 496.470644797,2272.32939511 491.394646786,2272.1342671 491.619579868,2256.0328137 489.332245939,2255.40995416 489.469072587,2249.58436177 494.59994552,2249.15958092 495.858667932,2248.07194273 496.932129495,2246.72265045 496.497599145,2240.90877528 491.502572613,2241.23737152 491.070907199,2219.5692986 494.534586529,2219.26105264 495.243910567,2214.38044916 501.167494264,2213.98363693 501.464129724,2210.17270155 521.950597545,2210.61941661 521.912536103,2209.14053229 531.29766076,2209.4026856 531.800785625,2220.22562898 527.19183835,2220.28086587 527.78614507,2224.81950257 538.186131207,2224.45311655 " moovel_rot="54.7" moovel_centroid="517.625278793,2291.8510812"></polygon></g><g transform="translate(-32.28474410000001 -1618.5105090000002) rotate(0)"><polygon id="157893723" class="tile" points="181.064796291,2403.32390833 50.6796869837,2401.1169764 52.832989911,2214.88627593 180.422952169,2209.14053229 180.553487585,2224.11261262 71.7066801976,2228.54400322 70.0006941259,2387.01467528 181.066493218,2388.68434402 181.064796291,2403.32390833 " moovel_rot="-68.4" moovel_centroid="92.0037562682,2307.70242542"></polygon></g><g transform="translate(-22.417068399999977 -1450.850994) rotate(0)"><polygon id="383827141" class="tile" points="247.821743223,2209.14053229 195.687293427,2136.41992555 237.416955298,2106.03841517 229.68711194,2094.81032107 198.802215273,2117.23222661 182.423338025,2094.09738408 213.690361721,2071.6624382 209.044008307,2064.83604772 190.718478655,2076.24339102 175.496892718,2054.96567336 230.97470482,2016.50927324 247.914865384,2038.48036522 247.821743223,2209.14053229 " moovel_rot="79.0" moovel_centroid="222.84274375,2098.93152631"></polygon></g><g transform="translate(42.69053459999999 -535.2446659) rotate(0)"><polygon id="59389843" class="tile" points="65.3499856312,1295.32559509 74.9986349147,1287.65268326 76.0108691648,1224.06694839 67.6958821729,1223.22993681 65.9688041996,1212.84720414 1.13171506263,1201.0 1.0,1216.85679606 1.00771944337,1298.84426944 11.2333223935,1298.2828646 65.3499856312,1295.32559509 " moovel_rot="-64.2" moovel_centroid="36.37749107413146,1252.3734371833768"></polygon></g><g transform="translate(-15.078248099999996 -1144.3926075000002) rotate(0)"><polygon id="396249563" class="tile" points="214.980956287,2323.02017235 225.272902234,2316.78008944 231.430963231,2308.43661359 236.961159403,2284.11094946 238.550546794,2264.12907895 238.502669729,2209.14053229 185.065245041,2210.42390942 182.066493218,2259.9105399 184.873386268,2305.48242537 184.941648301,2311.13352804 193.384380304,2319.57675035 201.629710771,2323.1194745 210.154939692,2324.27114945 214.980956287,2323.02017235 " moovel_rot="-35.5" moovel_centroid="210.265479733,2263.25850431"></polygon></g><g transform="translate(-10.96775679999999 -1072.0658893) rotate(0)"><polygon id="276142255" class="tile" points="138.850059884,2100.62137163 138.92005945,2016.50927324 70.8760496315,2016.86926346 70.5592361875,2049.56318606 77.2880522113,2049.54814468 76.2821566515,2072.52279395 81.0058297124,2072.57015059 81.0889586072,2078.7522626 76.2740675975,2078.73762172 76.1902316533,2080.31649493 74.4359129127,2080.56397885 74.1094109487,2104.1945921 102.889786736,2103.78557613 102.815658648,2100.75183317 138.850059884,2100.62137163 " moovel_rot="26.7" moovel_centroid="106.131900652,2058.73527444"></polygon></g><g transform="translate(-499.8759049 -739.5670526) rotate(0)"><polygon id="413778947" class="tile" points="558.597507005,1210.13069235 524.631628056,1201.0 502.331788111,1318.12299988 558.753420892,1329.28354705 558.597507005,1210.13069235 " moovel_rot="71.5" moovel_centroid="535.531759363,1269.4446645127018"></polygon></g><g transform="translate(-213.67262730000002 -735.1126916000001) rotate(0)"><polygon id="248240074" class="tile" points="280.135059831,1210.27895488 282.49537394,1210.36387412 288.64650713,1210.59242562 293.411229138,1210.76325173 303.633383564,1201.0 326.987174909,1202.1624502 326.957690069,1322.3155818 286.916044862,1320.85242638 287.339997221,1296.30506263 287.820876665,1283.04344398 277.493190384,1282.66255564 280.135059831,1210.27895488 " moovel_rot="54.0" moovel_centroid="304.613732456,1261.1354632254993"></polygon></g><g transform="translate(-89.70702170000001 -845.3514344) rotate(0)"><polygon id="185193594" class="tile" points="222.350300365,1201.0 209.082015573,1210.22322049 208.993734089,1220.77312232 230.145609613,1220.23548502 235.525628368,1227.20639289 235.565966932,1234.38873833 237.371660917,1234.19725493 237.131462148,1273.85474776 228.009064547,1273.69575838 227.847093592,1329.50315125 246.865994436,1329.62221719 246.473570347,1359.51860608 242.525514313,1359.60056339 242.189796067,1433.9199874 257.208377692,1433.38645549 257.367668133,1210.54762414 246.926687874,1217.94957198 243.421096314,1212.92200048 234.945427858,1218.87018738 222.350300365,1201.0 " moovel_rot="4.8" moovel_centroid="244.543176211,1305.444204126781"></polygon></g><g transform="translate(172.5149464 -2040.745405) rotate(0)"><polygon id="238899941" class="tile" points="30.1068856202,2413.6088389 26.3895698329,2413.4177334 26.0994557625,2411.68021459 25.3768976267,2407.44577507 9.64345428944,2407.63196361 9.5159655327,2403.48755633 3.5514302535,2403.32390833 0.0,2404.19094832 2.44340029098,2434.2970562 4.14482051544,2450.8918639 7.05423176028,2450.8492396 8.50524779018,2451.3791426 8.70486310422,2454.97346699 7.43214748632,2455.56965055 4.76944630109,2455.93187148 3.99782288354,2478.44981518 3.30152882226,2490.11237576 5.92217875868,2490.32302773 6.93656058814,2490.76981432 6.78671419993,2494.01154219 5.56651704591,2494.34710312 3.0086398663,2494.39469706 2.0742804436,2506.72932592 1.23543225713,2524.50670664 4.45345197525,2529.20220786 5.96723408047,2529.9903599 5.6675022494,2534.85856394 4.1362230381,2535.62749717 0.0509251831099,2537.67395245 0.441137486883,2555.90081619 4.01394693106,2571.272345 8.99401841741,2585.52737306 12.5682717735,2583.96370537 15.2169991923,2583.36463339 19.6288958648,2582.36742097 20.06009595,2579.43643712 22.5257954294,2576.23098503 24.7510743286,2571.55976248 26.2545897955,2533.6452492 26.276256153,2533.00816866 30.2259523815,2532.51511757 32.4034612158,2493.65795145 33.5976693207,2453.44698418 30.1068856202,2413.6088389 " moovel_rot="64.9" moovel_centroid="16.434345811686455,2489.92358303"></polygon></g><g transform="translate(-408.9570813 -1659.0935616000002) rotate(0)"><polygon id="185149998" class="tile" points="411.387104564,2085.39530457 428.036047452,2016.50927324 448.495851453,2020.56720809 447.484242754,2024.72798447 463.373095087,2026.39784608 474.879822335,2031.71979883 477.178776422,2033.7781144 478.266820828,2036.97934992 478.213128273,2039.8216517 474.301219148,2062.80396192 477.682243503,2063.1634194 473.759723294,2083.18240535 470.317599283,2082.47308779 469.858044084,2084.70678862 476.051840452,2088.66195519 478.335101202,2092.65726304 477.834947455,2105.51158794 476.980657697,2113.8403138 474.715890159,2116.62828618 471.436239328,2118.05970962 468.052537795,2118.55692143 467.541966816,2122.77625445 441.631103433,2117.48234261 446.628034858,2092.25842919 411.387104564,2085.39530457 " moovel_rot="-54.0" moovel_centroid="449.436850687,2067.29612088"></polygon></g><g transform="translate(-174.5488016 -1726.2039863) rotate(0)"><polygon id="413778949" class="tile" points="248.914865384,2187.14541442 273.83123063,2187.06454867 273.888374914,2035.03398573 259.356304876,2035.08365959 259.366367103,2016.50927324 248.977864793,2016.54566296 248.914865384,2187.14541442 " moovel_rot="-53.8" moovel_centroid="261.050880929,2106.95763843"></polygon></g><g transform="translate(-359.8569613 -1589.7224474) rotate(0)"><polygon id="443136831" class="tile" points="539.942264543,1855.97180027 574.925353812,1990.7810792 587.907779416,1987.0421016 582.14817498,1936.12921609 588.061895802,1849.70200828 567.918660591,1846.26624144 539.942264543,1855.97180027 " moovel_rot="-30.6" moovel_centroid="569.287123271,1904.26555098"></polygon></g><g transform="translate(-26.270556899999974 -586.1776312) rotate(0)"><polygon id="59392903" class="tile" points="149.922880634,1201.00074525 149.994068373,1309.07487523 180.936400579,1309.07417386 180.865216217,1201.0 149.922880634,1201.00074525 " moovel_rot="4.4" moovel_centroid="165.429642497,1255.0374475965061"></polygon></g><g transform="translate(-272.4825444 -1748.7235764) rotate(0)"><polygon id="219804228" class="tile" points="285.219246153,2016.50927324 274.888374914,2053.07476157 298.436091703,2059.31098736 286.526935817,2103.3742997 315.805113569,2085.91805294 337.340328478,2084.02562561 337.393743813,2031.36803665 332.292294202,2029.57896169 285.219246153,2016.50927324 " moovel_rot="67.0" moovel_centroid="309.305923438,2054.83130324"></polygon></g><g transform="translate(-197.2926435 -1551.392852) rotate(0)"><polygon id="185148217" class="tile" points="326.725272229,1846.26624144 352.483287882,1846.36522518 355.477602588,1846.37020857 356.323406601,1886.45386535 356.528428981,1896.03110084 356.635669542,1901.12341981 328.171716933,1902.33660702 301.616375762,1902.3900089 301.655578145,1846.51259519 326.725272229,1846.26624144 " moovel_rot="-82.6" moovel_centroid="328.754569417,1874.29940516"></polygon></g><g transform="translate(-249.7177155 -2002.7784765000001) rotate(0)"><polygon id="241824857" class="tile" points="336.687330789,2288.83276293 336.660854929,2209.14053229 349.614669253,2210.78672489 345.596939691,2239.58731151 376.182924603,2244.62394713 376.571943842,2262.15074679 395.117936921,2254.76264605 398.117747062,2266.29098497 379.156818082,2276.41337183 364.120110161,2284.44615201 351.769272671,2293.66470141 348.414228963,2295.8341883 336.687330789,2288.83276293 " moovel_rot="79.0" moovel_centroid="356.956654549,2259.69911416"></polygon></g><g transform="translate(-107.828581 -1641.4517933) rotate(0)"><polygon id="224658485" class="tile" points="151.703155875,1846.26624144 152.561388652,1882.789346 142.747332045,1882.74467972 142.718915887,1910.32232848 189.792165336,1908.66624335 188.931764703,1847.13462956 158.629441023,1846.43335928 151.703155875,1846.26624144 " moovel_rot="7.7" moovel_centroid="168.330939082,1879.92747565"></polygon></g><g transform="translate(-208.708932 -1703.3662369999997) rotate(0)"><polygon id="336340388" class="tile" points="409.050219307,2263.43614754 411.251902652,2222.0843832 415.908476165,2214.14922454 421.75378849,2210.25987177 430.41530414,2209.14053229 446.674658494,2209.4149459 452.323994131,2210.96013988 457.587454112,2216.61772294 458.19125515,2223.42877169 458.194916006,2267.5258126 409.050219307,2263.43614754 " moovel_rot="28.7" moovel_centroid="434.755669694,2238.58607155"></polygon></g><g transform="translate(-27.768817200000015 -1082.0931447) rotate(0)"><polygon id="415563733" class="tile" points="140.879228373,1300.54442709 148.913399922,1297.06750541 144.137622878,1290.54255557 140.284993887,1284.69423846 137.797970487,1279.66251881 135.895425119,1273.33576132 133.996746526,1268.30028432 132.854343953,1259.4116528 131.898820793,1250.530187 132.829815617,1241.60699758 133.943983712,1232.78744754 135.289118626,1227.52521801 138.29551571,1221.29915374 140.259944004,1216.27150442 144.043794892,1210.33879472 148.922880634,1203.56103464 144.90386241,1201.0 136.104300196,1204.04354668 102.748401051,1215.58582301 96.6686356766,1245.0925522 110.498281827,1260.39730566 124.26492521,1277.34206751 124.754920798,1277.98450132 134.063489789,1290.22581219 140.879228373,1300.54442709 " moovel_rot="2.2" moovel_centroid="122.343589749,1242.1021866863634"></polygon></g><g transform="translate(2.3810682999999955 -1284.3330128) rotate(0)"><polygon id="282600159" class="tile" points="51.2292296626,1471.18048956 36.1877400678,1487.81284002 13.0778137788,1501.02033247 0.0,1460.1507736 6.61905692238,1442.98266281 21.3199088763,1435.34261762 42.279142604,1433.9199874 51.2359088324,1434.99135093 51.2292296626,1471.18048956 " moovel_rot="0" moovel_centroid="26.674338750716018,1462.96557742"></polygon></g><g transform="translate(-214.0232775 -1753.9634427) rotate(0)"><polygon id="277351817" class="tile" points="216.527929729,1894.15438437 216.522980268,1898.87422887 261.348389752,1898.5510562 261.317457538,1848.44473744 234.211120391,1848.4250251 234.145627264,1846.26624144 221.81794575,1846.27091294 221.843556142,1848.4200854 217.302859699,1848.35197768 217.104826304,1859.98346132 216.527929729,1894.15438437 " moovel_rot="25.9" moovel_centroid="238.947596619,1873.34161516"></polygon></g><g transform="translate(52.2614375 -2143.4503083) rotate(0)"><polygon id="398156125" class="tile" points="33.7347252628,2209.43454701 48.660662183,2209.14053229 48.6796869837,2262.75052165 0.201121091656,2262.71737686 0.0,2233.10232244 23.497146065,2233.35539407 23.6235392774,2221.67767245 24.2892935799,2221.68514668 24.3599563703,2214.93897972 32.3567137403,2215.02443427 32.3551222399,2215.27683369 33.6757167712,2215.29016027 33.7347252628,2209.43454701 " moovel_rot="61.2" moovel_centroid="27.83816081745366,2240.96069265"></polygon></g><g transform="translate(-8.872526499999992 -818.5070495) rotate(0)"><polygon id="240737270" class="tile" points="53.2647904472,1479.32594847 96.7020083373,1479.25191274 96.7971190354,1441.18694279 96.6905363249,1433.9199874 90.7111206418,1433.92823509 53.2359088324,1433.9914523 53.2647904472,1479.32594847 " moovel_rot="-81.6" moovel_centroid="74.9993881214,1456.61419382"></polygon></g><g transform="translate(-63.651178000000016 -704.4500421) rotate(0)"><polygon id="266174997" class="tile" points="181.936400579,1290.92868707 207.993734089,1290.24648008 207.536649548,1250.3381211 207.45578147,1240.83888685 207.406357698,1235.35313112 205.889902356,1235.37229972 205.895460995,1236.11715893 197.885924383,1236.19100275 197.874531848,1234.72756848 194.714815655,1234.75581536 194.420403687,1201.0 182.396631068,1201.0580935 181.947248916,1255.45021572 181.936400579,1290.92868707 " moovel_rot="0.6" moovel_centroid="193.311819698,1252.8758344582734"></polygon></g><g transform="translate(-249.7538222 -1315.307245) rotate(0)"><polygon id="185515243" class="tile" points="480.378208151,2262.30078151 483.974288778,2262.30556446 483.929796996,2305.60333233 479.990313641,2305.59332054 479.984695305,2310.87715639 479.980327282,2316.15231567 479.971122968,2321.3205495 479.968530182,2326.48973151 479.964404815,2332.2783258 487.480134932,2332.29027104 487.454001546,2358.46171572 487.45327367,2359.82480765 487.449683854,2361.16093107 479.380615371,2361.14891059 479.359350917,2375.81346374 474.583873821,2375.79805138 474.708485919,2262.26274432 474.74208056,2230.70101684 474.765084228,2209.14053229 477.402425457,2209.14878863 486.105417803,2209.16360768 486.084416171,2224.99706183 483.297886657,2224.99386259 483.29177228,2230.70260168 480.411440802,2230.69473708 480.378208151,2262.30078151 " moovel_rot="8.2" moovel_centroid="479.360747478,2293.09051915"></polygon></g><g transform="translate(-135.2591513 -1821.4732665999998) rotate(0)"><polygon id="258957574" class="tile" points="239.550546794,2283.07603517 241.510061447,2282.94827144 254.950907734,2282.59403806 276.80150243,2222.41520898 239.569092143,2209.14053229 239.550546794,2283.07603517 " moovel_rot="-48.7" moovel_centroid="253.256233575,2244.31377293"></polygon></g><g transform="translate(182.32805910000002 -1615.6645288000002) rotate(0)"><polygon id="443296703" class="tile" points="50.2336967437,2504.47039734 50.2637538997,2403.32390833 35.6276433976,2403.37719924 35.5976693207,2504.52378249 50.2336967437,2504.47039734 " moovel_rot="-41.4" moovel_centroid="42.9306897147,2453.92377399"></polygon></g><g transform="translate(167.4517754 -1585.9136198) rotate(0)"><polygon id="279672692" class="tile" points="41.4974324897,2086.56671391 41.4322261875,2084.11146796 41.5274107005,2074.6841929 42.227880859,2043.19233628 48.5275073228,2037.99634556 48.9620003605,2016.50927324 56.4243539728,2020.43422081 57.0320429128,2039.16880511 69.5507545911,2039.67139456 69.5592361875,2086.8333498 41.4974324897,2086.56671391 " moovel_rot="-64.3" moovel_centroid="55.3986857281,2059.4320039"></polygon></g><g transform="translate(-74.5108726 -513.3710893) rotate(0)"><polygon id="377007929" class="tile" points="85.860843049,1201.0 77.097449149,1201.04214915 77.0108691648,1319.59801464 86.2653137384,1319.40794264 85.860843049,1201.0 " moovel_rot="7.5" moovel_centroid="81.5584438522,1260.8004224314122"></polygon></g><g transform="translate(-370.8987509 -282.0604541) rotate(0)"><polygon id="292693069" class="tile" points="496.087094503,1434.69750334 516.162127141,1433.9199874 514.320142921,1452.37618615 518.983659013,1452.4269098 519.408368528,1452.4812588 518.937915513,1456.50859962 523.893122596,1457.08459416 524.210591413,1458.01000532 523.55689458,1470.25453656 523.436656721,1472.36111262 523.285560082,1474.29796299 523.247946068,1476.51131917 522.858422839,1482.06086374 492.322498637,1481.47576487 492.573938718,1479.37273461 492.960996974,1476.15009384 493.241050969,1473.67251734 493.381515997,1472.44848516 493.824961015,1467.17652417 494.236057308,1462.2870463 493.324358319,1457.13401343 492.284611925,1451.28050557 495.519235276,1450.57154409 495.661450234,1444.65340139 495.743886953,1441.60750647 495.810167642,1440.49406325 495.936920082,1438.13833907 496.087094503,1434.69750334 " moovel_rot="25.2" moovel_centroid="507.407904669,1460.3582135"></polygon></g><g transform="translate(-59.652334899999985 -1403.3902088) rotate(0)"><polygon id="178999286" class="tile" points="174.496892718,2066.856777 152.476595312,2073.28619674 152.508643824,2017.18050358 172.300505507,2016.50927324 173.544026193,2040.17630322 173.942077625,2053.40393058 174.496892718,2066.856777 " moovel_rot="51.5" moovel_centroid="162.820898259,2043.96222225"></polygon></g><g transform="translate(-64.7570848 -437.99789069999997) rotate(0)"><polygon id="325008931" class="tile" points="197.692639687,1484.37734903 214.59056263,1484.529957 214.579410607,1480.13818234 220.162428639,1479.99265169 219.876552541,1451.41633418 221.797803167,1451.35054485 221.388685506,1436.36752699 197.666542519,1433.9199874 197.692639687,1484.37734903 " moovel_rot="-78.5" moovel_centroid="208.840322848,1458.95015847"></polygon></g><g transform="translate(-133.166935 -1384.7144441) rotate(0)"><polygon id="375468815" class="tile" points="181.239470277,1472.80243212 162.692590837,1473.3523462 156.606864497,1472.6753395 152.22579511,1471.83746328 152.202686449,1433.9199874 162.856023896,1434.72473266 171.312067205,1434.73701601 182.050696946,1435.7182524 181.239470277,1472.80243212 " moovel_rot="0.5" moovel_centroid="166.868414051,1453.7582701"></polygon></g><g transform="translate(-282.01555590000004 -1586.5918288) rotate(0)"><polygon id="185605922" class="tile" points="538.942264543,1871.8274241 538.389012587,1846.26624144 515.195581458,1847.01961764 515.224839674,1896.16957367 538.66813612,1896.19417304 538.785166637,1892.47690886 531.017294967,1892.44970438 531.178684745,1871.79510187 538.942264543,1871.8274241 " moovel_rot="-49.9" moovel_centroid="525.742608312,1869.76639424"></polygon></g><g transform="translate(-364.8850054 -1406.8303009) rotate(0)"><polygon id="388292605" class="tile" points="445.430729403,1473.18975042 418.788819206,1474.09119797 418.737609974,1433.9199874 445.471467796,1433.97310228 445.430729403,1473.18975042 " moovel_rot="65.8" moovel_centroid="432.05359065,1453.78298004"></polygon></g><g transform="translate(-249.57327829999997 -1398.6630599) rotate(0)"><polygon id="326464534" class="tile" points="370.567927273,1495.13608563 359.2195437,1494.95471311 352.014792096,1435.46008072 370.56861738,1433.9199874 370.567927273,1495.13608563 " moovel_rot="-69.7" moovel_centroid="362.975092562,1462.41455958"></polygon></g><g transform="translate(-113.95370810000003 -1928.9789289999999) rotate(0)"><polygon id="90145485" class="tile" points="292.566524433,2209.14053229 277.80150243,2209.71957377 278.137017826,2271.11970448 285.725968691,2270.93306331 292.560369115,2270.77100458 292.566524433,2209.14053229 " moovel_rot="-3.2" moovel_centroid="285.270365291,2240.06655991"></polygon></g><g transform="translate(-106.29043650000003 -464.56998379999993) rotate(0)"><polygon id="247143603" class="tile" points="356.852553649,1247.15783614 356.826132862,1201.0 336.706992064,1201.07508395 336.74114247,1247.23716948 356.852553649,1247.15783614 " moovel_rot="-61.2" moovel_centroid="346.781548901,1224.116045383625"></polygon></g><g transform="translate(-465.3333411 -1833.0858316) rotate(0)"><polygon id="225367724" class="tile" points="514.178148065,1846.28882721 483.837741115,1846.26624144 483.863820371,1877.29795018 514.195581458,1877.32235792 514.190949853,1860.90713056 514.178148065,1846.28882721 " moovel_rot="78.1" moovel_centroid="499.020118696,1861.79308545"></polygon></g><g transform="translate(-230.7699413 -1143.7775531) rotate(0)"><polygon id="185169180" class="tile" points="459.194916006,2209.29666958 473.583873821,2209.14053229 473.525345958,2245.36859972 470.413271919,2245.48240255 470.333662699,2247.65346428 471.782567148,2248.9689043 472.850682564,2251.19081595 472.406081098,2269.51305059 467.515840421,2269.99995089 459.391787377,2269.72835344 459.194916006,2209.29666958 " moovel_rot="2.1" moovel_centroid="466.195251988,2238.86105697"></polygon></g><g transform="translate(-301.84817760000004 -1982.9564805999998) rotate(0)"><polygon id="442637499" class="tile" points="563.533935346,2257.03240513 583.904755867,2257.01347413 583.901986538,2237.86249924 586.704360931,2237.86025721 586.70484665,2221.3058528 583.254534812,2221.31259039 583.24989377,2209.14053229 576.501748757,2209.14144982 576.502153883,2221.66356476 563.537013816,2221.67167132 563.533935346,2257.03240513 " moovel_rot="-82.1" moovel_centroid="574.964129546,2236.43121685"></polygon></g><g transform="translate(-454.09491019999996 -1203.8364066) rotate(0)"><polygon id="185148180" class="tile" points="480.953963942,1466.73426432 468.158339512,1466.71647817 460.33764394,1466.69654207 456.594912472,1466.69626508 456.615409747,1433.9199874 458.103743325,1433.92398965 479.660338818,1433.96473356 481.68355071,1433.96753946 481.680840087,1442.00221251 481.672539949,1459.4117155 481.664465781,1466.73519246 480.953963942,1466.73426432 " moovel_rot="9.3" moovel_centroid="469.140468194,1450.33043143"></polygon></g><g transform="translate(-27.93522919999998 -511.66190230000007) rotate(0)"><polygon id="221661753" class="tile" points="276.493190384,1201.07381987 258.377537853,1201.0 258.367668133,1243.02059166 276.487793602,1243.09937221 276.493190384,1201.07381987 " moovel_rot="47.4" moovel_centroid="267.431724889,1222.0493114075616"></polygon></g><g transform="translate(-296.17407719999994 -1447.6922545000002) rotate(0)"><polygon id="63406831" class="tile" points="541.40929553,2061.60262835 527.252045798,2063.01075827 526.282627561,2016.70480704 541.473878705,2016.50927324 541.464305552,2019.89852164 541.40929553,2061.60262835 " moovel_rot="-67.1" moovel_centroid="534.066726165,2039.1946677"></polygon></g><g transform="translate(-68.0306869 -1109.4978096999998) rotate(0)"><polygon id="376424334" class="tile" points="190.792165336,1874.27995484 215.522980268,1874.56827189 215.522495492,1846.55470988 190.969344123,1846.26624144 190.792165336,1874.27995484 " moovel_rot="-81.4" moovel_centroid="203.201529718,1860.43412297"></polygon></g><g transform="translate(-79.69804789999998 -797.7572543999999) rotate(0)"><polygon id="185610598" class="tile" points="323.932657774,1477.23600538 323.935806553,1482.04790213 317.555468002,1482.06362448 310.159373333,1482.09547039 310.159697204,1465.05490588 310.169347131,1433.96751996 317.435828904,1433.94092055 323.945823355,1433.9199874 323.052120829,1443.61260187 320.410386525,1446.50646687 322.999078315,1449.31539738 323.932657774,1477.23600538 " moovel_rot="-50.3" moovel_centroid="316.755879028,1458.34335215"></polygon></g><g transform="translate(133.3981439 -281.35837059999994) rotate(0)"><polygon id="450419568" class="tile" points="137.541090451,1433.9199874 151.176917091,1434.35005383 151.202686449,1476.96027804 136.133087564,1476.41776058 137.541090451,1433.9199874 " moovel_rot="-28.8" moovel_centroid="144.009482209,1455.7665832"></polygon></g><g transform="translate(141.38500340000002 -460.1602038000001) rotate(0)"><polygon id="338066291" class="tile" points="107.774701696,1483.43274011 111.781446883,1483.43259832 111.769861476,1433.9199874 108.091005391,1434.04599403 101.389245291,1440.55231082 101.483455417,1444.42321107 97.7971190354,1444.44618526 97.928256629,1472.99233582 101.737549539,1473.01656023 101.72872792,1476.5188098 107.774701696,1483.43274011 " moovel_rot="-69.0" moovel_centroid="105.600447725,1458.63801885"></polygon></g><g transform="translate(-252.91192600000002 -2013.3054423) rotate(0)"><polygon id="185605924" class="tile" points="338.393743813,2040.09881429 338.406256771,2016.50927324 348.697749731,2016.55444515 360.55660942,2016.60119957 360.539889282,2023.53028466 360.544925658,2037.6244355 360.545444,2044.66377306 343.399886038,2044.59078687 343.403452141,2040.12227881 338.393743813,2040.09881429 " moovel_rot="42.2" moovel_centroid="349.792336883,2030.1483369"></polygon></g><g transform="translate(-396.6179023 -1576.6804606) rotate(0)"><polygon id="222912929" class="tile" points="399.68964654,2259.3499047 408.01137147,2259.10494162 408.050219307,2209.14053229 399.117747062,2209.64673261 399.68964654,2259.3499047 " moovel_rot="-86.9" moovel_centroid="403.719054849,2234.01578182"></polygon></g><g transform="translate(-480.18356589999996 -973.6882839000001) rotate(0)"><polygon id="222912928" class="tile" points="490.953940177,1433.9199874 482.751550297,1433.9342758 482.68355071,1480.56533822 491.284611925,1480.35967026 490.953940177,1433.9199874 " moovel_rot="-88.7" moovel_centroid="486.916132534,1457.37911007"></polygon></g><g transform="translate(-443.9872782 -1390.4954544) rotate(0)"><polygon id="220953326" class="tile" points="446.487065698,1477.32021429 455.579460186,1477.80506767 455.594912472,1434.10321138 447.05985404,1433.9199874 446.49860392,1454.80803466 446.471467796,1456.54775513 446.487065698,1477.32021429 " moovel_rot="48.7" moovel_centroid="451.108493279,1456.01217143"></polygon></g><g transform="translate(-382.81675039999993 -1354.5487791) rotate(0)"><polygon id="222912946" class="tile" points="545.052030115,2064.04290299 550.395553006,2064.00332297 549.946739213,2016.50927324 542.505281851,2016.94109646 542.473878705,2064.21104508 545.052030115,2064.04290299 " moovel_rot="-87.2" moovel_centroid="546.335140355,2040.63668638"></polygon></g><g transform="translate(-162.756967 -1205.6435566999999) rotate(0)"><polygon id="299674961" class="tile" points="401.415299853,2062.69679833 410.387104564,2055.72007859 410.096978076,2045.92850057 409.848909754,2037.66003202 410.381008714,2016.50927324 405.613178427,2019.06755547 400.339256106,2022.2831857 401.415299853,2062.69679833 " moovel_rot="-14.5" moovel_centroid="405.45750873,2038.980845"></polygon></g><g transform="translate(-49.0770711 -1680.8012807) rotate(0)"><polygon id="392695041" class="tile" points="107.718007494,1846.37290059 107.654478742,1854.57026826 107.658758065,1862.44948464 107.667267492,1871.88196676 107.668546899,1875.26248462 107.668206713,1880.95841286 121.899212862,1880.94704142 121.889358068,1857.92205935 119.903153496,1857.92687644 116.6973165,1857.19046492 114.675304536,1856.16961887 113.307686892,1854.43032304 112.388475787,1851.49817757 111.812970702,1846.26624144 107.718007494,1846.37290059 " moovel_rot="8.5" moovel_centroid="114.111019791,1866.7158138"></polygon></g><g transform="translate(-15.396251800000002 -1291.0909186) rotate(0)"><polygon id="220792593" class="tile" points="135.133087564,1483.92284556 128.331956353,1479.3390055 125.957708373,1471.37171734 124.799929037,1457.38301028 127.425297528,1443.55163896 130.881962019,1433.9199874 135.11203961,1443.71500144 132.368704518,1451.48301375 132.170811337,1463.93255838 133.830708606,1475.1839258 135.133087564,1483.92284556 " moovel_rot="40.5" moovel_centroid="129.878924055,1459.61702785"></polygon></g><g transform="translate(-246.2297097 -1178.5285566) rotate(0)"><polygon id="351235531" class="tile" points="417.737609974,1433.9199874 417.713049844,1453.96783967 399.543227025,1453.9578846 399.570538885,1436.39084376 399.552699909,1433.94753614 403.614465989,1433.92282854 417.737609974,1433.9199874 " moovel_rot="-7.8" moovel_centroid="408.64345153,1443.9435992"></polygon></g><g transform="translate(-155.0888192 -951.219853) rotate(0)"><polygon id="243544148" class="tile" points="357.639946165,1846.26624144 357.635669542,1854.43938471 358.06327465,1862.8123817 358.191156542,1872.33826984 364.820348497,1872.23266281 371.391883628,1872.38975015 371.406092796,1848.29976567 360.793755817,1846.79033901 357.639946165,1846.26624144 " moovel_rot="-26.0" moovel_centroid="364.553628657,1859.6855275"></polygon></g><g transform="translate(-239.03574819999997 -1504.7534919) rotate(0)"><polygon id="426140948" class="tile" points="296.446726759,1846.67610188 296.446726759,1846.67610188 298.754797705,1846.59810917 300.616375762,1846.26624144 300.616375762,1846.26624144 300.615752641,1848.03162979 300.615752641,1848.03162979 300.615048847,1849.74334531 300.609825198,1851.35785515 299.111870276,1851.36888377 299.111870276,1851.36888377 299.111870276,1851.36888377 299.123110782,1852.29876059 299.133605129,1853.45928162 299.158629116,1855.55549264 299.180364275,1857.64589031 299.205388569,1859.74210116 299.230413017,1861.83831191 299.242443338,1864.01861508 299.25776281,1866.2047314 299.306395004,1868.00364499 299.306395004,1868.00364499 299.306395004,1868.00364499 299.306395004,1868.00364499 297.255128641,1867.98238907 295.237175195,1867.57393031 293.219222111,1867.16547135 291.196911035,1866.76715208 289.178958681,1866.35869271 287.632580103,1866.15922199 286.082912779,1865.95393788 286.082912779,1865.95393788 285.975158472,1864.10405921 285.901848629,1862.61839625 285.901848629,1862.61839625 285.759650162,1860.40430171 285.651896157,1858.55442288 285.50525874,1856.29679537 285.358621468,1854.03916777 285.250040967,1852.36626013 285.250040967,1852.36626013 285.250040967,1852.36626013 285.118698629,1850.09997908 285.025412999,1848.41841801 284.932127454,1846.7368569 286.763597873,1846.74433414 288.602716017,1846.74748451 290.437476178,1846.76077457 292.268947738,1846.76825117 294.630629828,1846.71364521 294.630629828,1846.71364521 296.446726759,1846.67610188 " moovel_rot="60.5" moovel_centroid="292.677791861,1856.56339914"></polygon></g><g transform="translate(-137.42005989999998 -1411.5401662) rotate(0)"><polygon id="440496353" class="tile" points="139.936406724,2039.01109483 139.92005945,2016.51822531 151.460246278,2016.50927324 151.476595312,2039.00214268 139.936406724,2039.01109483 " moovel_rot="-92.3" moovel_centroid="145.698326938,2027.7601843"></polygon></g><g transform="translate(-497.1924445 -2084.8760055) rotate(0)"><polygon id="264529930" class="tile" points="549.505009754,2209.14053229 562.533935346,2209.3869843 562.405920174,2229.10060354 549.530815444,2229.09792054 549.505009754,2209.14053229 " moovel_rot="8.2" moovel_centroid="555.980787275,2219.16167282"></polygon></g><g transform="translate(5.527104799999989 -965.1413614) rotate(0)"><polygon id="220789416" class="tile" points="123.799929037,1433.97043676 120.401322435,1433.98613656 112.795226527,1433.9199874 112.781446883,1456.65392561 120.020944013,1456.68632448 123.792580997,1456.69841924 123.799929037,1433.97043676 " moovel_rot="47.2" moovel_centroid="118.291607104,1445.32039872"></polygon></g><g transform="translate(-92.1901866 -1525.6591898) rotate(0)"><polygon id="326405377" class="tile" points="106.650696523,1859.93796718 106.654478742,1846.26624144 98.9540202411,1846.81641076 99.1229910964,1850.804608 96.2643935179,1850.74807623 96.5893749299,1854.43142409 94.6799263874,1854.5771491 96.7676630037,1877.54722754 100.254386256,1877.58957708 99.5128257765,1859.99337365 103.083323094,1859.92288277 106.650696523,1859.93796718 " moovel_rot="-57.0" moovel_centroid="100.288288553,1858.7995304"></polygon></g><g transform="translate(-325.4871833 -1190.4078204) rotate(0)"><polygon id="220792589" class="tile" points="327.987174909,1228.45498021 328.007519624,1202.17789986 330.157036194,1201.66604751 334.80382213,1201.0 335.706992064,1215.45061448 335.301691351,1228.97910934 327.987174909,1228.45498021 " moovel_rot="-89.4" moovel_centroid="331.72919909,1215.2725728134233"></polygon></g><g transform="translate(-63.0189044 -340.1817727) rotate(0)"><polygon id="299854164" class="tile" points="91.3120583704,1234.76504261 95.6686356766,1229.02333943 94.4037430393,1225.33518208 93.1815294078,1215.60411031 94.3338039855,1205.33973719 95.6481807115,1201.0 88.3864534093,1205.07500833 87.4646112269,1210.05715488 87.2653137384,1214.53912814 87.4534843778,1220.09727322 88.4700573614,1226.35795123 91.3120583704,1234.76504261 " moovel_rot="-58.9" moovel_centroid="91.1530358704,1217.5687339831468"></polygon></g><g transform="translate(2.4990568999999994 -1575.8730036) rotate(0)"><polygon id="299598618" class="tile" points="14.336548722,2031.19867864 12.2048554592,2031.30973878 0.0,2030.97605819 0.318679684773,2019.37759827 2.76249882281,2019.44885543 2.84296467528,2016.50927324 14.2901110366,2016.72811893 14.1479891807,2021.84558439 14.3124675438,2026.13062443 14.336548722,2031.19867864 " moovel_rot="57.8" moovel_centroid="7.4377497640159955,2024.14039326"></polygon></g><g transform="translate(-25.6704632 -256.29392600000006) rotate(0)"><polygon id="329334867" class="tile" points="183.130095842,1447.51919281 193.421022862,1447.77421198 193.734228207,1435.03624245 194.155955491,1435.04289221 194.184634314,1433.9199874 196.666542519,1433.98623574 196.650154202,1454.25949652 196.658402999,1456.29415032 184.065020583,1456.11127482 184.196809435,1450.79956683 183.050696946,1450.77537567 183.130095842,1447.51919281 " moovel_rot="24.2" moovel_centroid="191.544434039,1448.87920963"></polygon></g><g transform="translate(-407.134528 -1161.4641682) rotate(0)"><polygon id="285497395" class="tile" points="499.1537651,1201.0 495.435913636,1201.41548251 492.707380565,1201.72154177 492.694105363,1222.47556725 501.331788111,1221.58603913 501.234066223,1220.31570395 501.111344733,1218.70357287 500.610346232,1214.17067383 500.116651301,1209.71650487 499.630259956,1205.34106618 499.1537651,1201.0 " moovel_rot="-5.3" moovel_centroid="496.521771627,1212.2044641405514"></polygon></g><g transform="translate(-429.46546190000004 -902.7625434) rotate(0)"><polygon id="220530398" class="tile" points="474.69075657,1846.26624144 473.772602965,1859.971578 482.837741115,1863.38857178 482.832110679,1848.24165266 474.69075657,1846.26624144 " moovel_rot="-10.9" moovel_centroid="478.585753611,1854.618905"></polygon></g><g transform="translate(-369.9061154 -1009.7078465) rotate(0)"><polygon id="300863063" class="tile" points="374.964766402,1846.26624144 372.406092796,1846.40347607 372.498743712,1870.80842303 374.92976306,1870.76938404 374.964766402,1846.26624144 " moovel_rot="7.6" moovel_centroid="373.700514951,1858.45749244"></polygon></g><g transform="translate(-331.7482915 -1149.0050652) rotate(0)"><polygon id="163806018" class="tile" points="334.248280674,2218.64926046 335.660854929,2218.65832493 335.660137136,2209.14818483 334.25409111,2209.14053229 334.248280674,2218.64926046 " moovel_rot="12.2" moovel_centroid="334.955856939,2213.90274675"></polygon></g></g><g transform="translate(0 1327.7)"><polygon id="2" class="bin" points="-446.2499995,1207.499999 -448.901649929,1206.40164943 -449.9999995,1203.749999 -449.9999995,3.75 -448.901649929,1.09834957055 -446.2499995,0.0 -325.317238221,0.0 -322.667233615,1.09670476733 -321.567241108,3.74534635108 -321.308998902,211.841733809 -319.972849397,215.890151576 -302.776135608,239.164940512 -299.256324151,241.644065311 -270.154905314,250.416879059 -266.29349841,250.441823742 -151.035875529,217.31487582 -147.744122773,217.923382875 -146.2500005,220.91896557 -146.2500005,266.462156425 -147.336083878,269.101483655 -147.533362131,269.300599859 -158.845329044,281.441114415 -180.734436434,304.913045335 -181.538032955,305.960791415 -199.753208676,335.141561755 -200.476824001,336.711808248 -210.536408975,368.597170382 -210.796208901,369.769159184 -214.776200854,400.050407964 -214.789390019,401.733549524 -211.246165293,432.404661783 -210.870587026,433.984014542 -207.280155071,443.761603067 -199.646290763,464.541431077 -198.50133997,466.538366149 -181.02848593,487.746554481 -180.296976621,491.088319887 -182.582744388,493.63346578 -184.09125433,494.21060759 -185.879622524,495.224405256 -187.268484393,496.315764456 -188.439048232,497.490144268 -189.404452637,498.726981135 -190.089933429,499.79589252 -190.907440358,501.375072272 -191.672716407,504.378175678 -191.768799142,508.878746068 -191.770326853,509.002481117 -192.103855181,608.674948226 -192.057511911,700.392607089 -192.005918173,701.229713911 -191.498384749,705.348530178 -190.713593451,707.791765897 -188.799453919,711.30396038 -188.195743661,712.226791886 -185.494684436,715.709655603 -183.950879861,717.165169488 -180.835902897,719.299823214 -179.791593852,719.888684747 -150.259345827,733.293146911 -148.257454694,735.504868582 -148.503279039,738.477889142 -148.995587326,739.397400434 -149.215490488,742.066915154 -150.519718365,744.612548659 -153.239479226,745.498077407 -154.40604297,745.408644347 -155.354103479,745.401547995 -159.086468722,745.631543266 -162.167930282,746.582110473 -165.574082704,748.60949305 -166.097790063,748.95450171 -168.429093312,750.647713564 -169.318543287,751.125697972 -170.853497688,751.70007897 -172.449238688,753.744755075 -175.635477127,755.18052376 -183.886145668,754.673569221 -187.941477365,756.010350296 -189.961603358,759.772236763 -191.73927754,775.433982196 -191.52191354,778.081557393 -189.927114142,783.694109479 -189.794925833,785.000967811 -199.819791429,917.991531527 -199.583988258,920.361066396 -194.501277911,938.471380706 -194.475742557,938.567220372 -189.928058407,956.590446002 -189.826480492,957.203390026 -188.317802186,975.720966458 -188.316319394,975.739749179 -183.84091137,1034.30525301 -183.869991239,1035.13711758 -187.703487263,1061.17900103 -187.796120646,1061.62131283 -194.99921992,1087.98229435 -195.189426685,1088.94325662 -198.411028577,1114.77407084 -198.45477654,1115.27122191 -199.023374197,1126.30995634 -199.750667323,1140.30638709 -198.343804116,1144.3839109 -194.498589968,1146.33833988 -183.596883767,1147.27920266 -182.425994242,1147.57548001 -176.662616164,1150.07752907 -165.992979298,1148.97542708 -165.480266667,1148.9577456 -159.626399299,1149.15675585 -156.965234714,1150.39733397 -156.01357088,1153.17495291 -156.049919657,1153.67780863 -154.244535062,1158.25630524 -148.89293971,1159.90988208 -146.982221684,1161.26664864 -146.2500005,1163.49274635 -146.2500005,1203.749999 -147.348350071,1206.40164943 -150.0000005,1207.499999 -177.036094869,1207.499999 -179.186046361,1206.82249124 -180.559139819,1205.03477691 -183.941275219,1195.76047748 -184.129677694,1195.01203716 -187.622542088,1170.8414724 -189.814916328,1167.09983007 -193.99699739,1165.95240244 -195.520430787,1166.13412312 -198.147724856,1165.4595279 -210.990050175,1156.26425542 -215.323596889,1155.27733427 -219.062977091,1157.67955745 -243.63556984,1193.42037481 -244.538256197,1197.77785602 -241.930133907,1201.65804344 -241.323594078,1204.23265478 -242.567273101,1206.56713045 -245.042403484,1207.499999 -446.2499995,1207.499999 " moovel_rot="0" moovel_centroid="-326.2244302057052,655.2164951399715" transform="translate(450 0)"></polygon><g transform="translate(-359.0618801 -881.841003) rotate(0)"><polygon id="324970102" class="tile" points="361.55660942,2058.81640987 386.428514648,2016.50927324 399.320600173,2023.20425547 378.19708085,2060.65554872 399.339256106,2073.53279789 395.2818677,2081.86122018 375.816482526,2070.88636538 377.203728551,2067.69218361 361.55660942,2058.81640987 " moovel_rot="0.8" moovel_centroid="381.974878526,2048.619657"></polygon></g><g transform="translate(-476.8420955 -920.2778658000002) rotate(0)"><polygon id="238072592" class="tile" points="479.749234202,2029.47181107 479.335101202,2024.02084359 481.368245145,2020.57379097 482.646580382,2018.41390959 487.449156548,2021.03048046 489.8976485,2016.50927324 499.535411424,2022.75084363 504.485923244,2025.96188924 506.851818651,2028.49397677 509.566699917,2032.21731677 508.381211697,2037.17124656 493.532262816,2063.24152432 486.415555621,2058.98937585 479.339888014,2054.7577945 488.676217526,2039.97598572 488.933064293,2035.86617477 485.727773332,2032.4045857 479.749234202,2029.47181107 " moovel_rot="-80.3" moovel_centroid="493.596848599,2038.44770491"></polygon></g><g transform="translate(-292.9878447 -337.8735107) rotate(0)"><polygon id="219682491" class="tile" points="333.820306098,1434.29585892 333.415403806,1460.16829941 333.283825459,1464.16328914 324.945823355,1463.9864577 326.453072238,1470.43034197 351.014792096,1469.72166076 350.999845843,1433.9199874 333.820306098,1434.29585892 " moovel_rot="8.7" moovel_centroid="341.361013037,1453.19957652"></polygon></g><g transform="translate(-330.5990701 -284.2037823999999) rotate(0)"><polygon id="246262120" class="tile" points="376.518953368,1483.30243087 376.653157233,1467.72315669 374.250588237,1465.26116579 371.596049674,1464.78769566 371.56861738,1433.9199874 398.543227025,1438.06293943 396.958208257,1443.57289913 376.875734012,1439.57335035 375.585607257,1457.03330715 380.817821532,1455.32495163 381.352910675,1469.42148693 384.290839159,1469.61414962 384.662578988,1484.21943766 376.518953368,1483.30243087 " moovel_rot="-72.2" moovel_centroid="379.852132348,1455.79102881"></polygon></g><g transform="translate(-1.170410000000004 -949.3872748000001) rotate(0)"><polygon id="181963432" class="tile" points="40.4322261875,2041.26235438 16.336548722,2041.428542 16.3448659616,2016.50927324 40.3371534104,2016.58102263 40.4322261875,2041.26235438 " moovel_rot="-48.8" moovel_centroid="28.3435072461,2028.95425837"></polygon></g><g transform="translate(-466.3080479 -964.5733532000002) rotate(0)"><polygon id="252080160" class="tile" points="510.566699917,2055.62539879 510.578132639,2021.03698379 515.501794185,2021.0364722 515.502146117,2016.51391861 525.282201369,2016.50927324 525.282627561,2018.69131565 525.270416158,2055.62023461 510.566699917,2055.62539879 " moovel_rot="-4.4" moovel_centroid="518.121754053,2036.76414544"></polygon></g><g transform="translate(-355.3525396 -163.82111639999994) rotate(0)"><polygon id="377121565" class="tile" points="357.867858269,1201.0 357.852553649,1226.21110419 380.610597944,1225.72922229 380.633912725,1201.14864502 357.867858269,1201.0 " moovel_rot="7.8" moovel_centroid="369.193186069,1213.521819900587"></polygon></g><g transform="translate(-278.81321579999997 -1197.5281799) rotate(0)"><polygon id="334212042" class="tile" points="333.248280674,2243.36413176 309.083405491,2248.22569975 309.115656557,2209.66577178 311.700791792,2209.14053229 314.062446699,2222.26498761 322.123151098,2220.64197534 322.253818728,2221.39156567 324.708405749,2232.88709027 324.91952611,2234.05424855 326.292795672,2233.7311327 330.991182108,2232.73551211 331.16741825,2232.74756743 332.836665192,2241.45724005 333.248280674,2243.36413176 " moovel_rot="-92.6" moovel_centroid="317.969964227,2233.5280128"></polygon></g><g transform="translate(-258.6268187 -841.5647593000001) rotate(0)"><polygon id="201149331" class="tile" points="278.473586683,1873.91580742 283.915116062,1873.89243045 283.355144059,1861.76391324 264.998903374,1860.70191022 265.4043092,1853.55590915 283.758622511,1854.62646461 283.932127454,1846.56509854 263.137654482,1846.26624144 262.348389752,1859.03472065 264.880502916,1873.53163985 278.473586683,1873.91580742 " moovel_rot="12.7" moovel_centroid="273.152684302,1860.53594206"></polygon></g><g transform="translate(-239.58006840000002 -431.5484821) rotate(0)"><polygon id="224659159" class="tile" points="309.159373333,1457.94888027 289.558899102,1462.15646052 285.727317791,1440.63729241 285.679329377,1440.34566043 309.159288099,1433.9199874 309.159373333,1457.94888027 " moovel_rot="9.1" moovel_centroid="298.455062295,1448.21557332"></polygon></g><g transform="translate(-235.3718411 -1047.383908) rotate(0)"><polygon id="412123952" class="tile" points="294.263741222,2240.59403748 300.719122144,2244.03183244 308.058053893,2239.82013865 308.083405491,2209.14053229 300.008241098,2213.32961443 293.566524433,2210.13721571 294.263741222,2240.59403748 " moovel_rot="27.9" moovel_centroid="301.026434565,2226.65140179"></polygon></g><g transform="translate(-64.71553970000001 -726.5639008) rotate(0)"><polygon id="185632364" class="tile" points="122.899212862,1863.39050001 122.902728965,1869.73872742 132.315520161,1869.82806586 132.303780716,1867.00977049 141.718915887,1866.9450156 141.661111264,1846.26624144 133.334551728,1846.32135526 127.737459948,1846.36334254 127.783837334,1863.35723281 122.899212862,1863.39050001 " moovel_rot="-50.4" moovel_centroid="133.66830802,1858.03225978"></polygon></g><g transform="translate(-396.0623455 -756.5441871) rotate(0)"><polygon id="377437722" class="tile" points="460.026566401,1846.26624144 460.017152877,1850.13272918 460.0168098,1855.10746182 460.007045034,1859.92692283 459.104886327,1859.92347567 459.092206692,1871.34382105 465.918675788,1871.10571802 472.766258763,1871.01642614 472.764888404,1869.05144295 472.660287658,1855.76019315 472.650020725,1854.22134754 472.772602965,1846.33081357 465.954352948,1846.29357644 460.026566401,1846.26624144 " moovel_rot="-28.9" moovel_centroid="466.131398144,1858.94451551"></polygon></g></g></svg>