<svg><g transform="translate(0 0)"><polygon id="3" class="bin" points="-230.595192404,659.219949646 -227.724161754,664.039183154 -200.960956668,682.371067242 -199.39551171,684.767589687 -199.977010275,687.57040919 -202.084780384,690.676814329 -202.963050722,695.029694852 -200.473874141,698.707048191 -195.250284835,702.11949554 -193.611699557,704.588157379 -194.276488778,707.475597124 -198.424559111,713.135852091 -199.464710436,717.42964807 -197.148492998,721.191793132 -147.808390869,756.72816282 -146.2500005,759.771080372 -146.2500005,762.122541923 -146.910308858,764.247702048 -218.58979988,868.459860825 -218.672864529,868.583471807 -243.666249871,906.661381358 -244.560588833,910.617184203 -242.63527025,914.186689306 -227.393938572,927.490987764 -226.814710999,927.94435894 -197.055632245,948.769324895 -191.873269691,949.875055569 -185.410067305,948.63099705 -184.01766771,948.626235214 -176.714336723,949.980268227 -174.412874134,951.397651988 -173.662201195,953.99422606 -174.133073578,959.377023011 -174.651478775,965.280121158 -174.684875365,965.548737331 -176.117188667,974.435890854 -178.449862424,988.849128095 -180.953931103,1004.36741553 -183.194310892,1018.20079565 -185.134418535,1030.19213935 -185.225409193,1030.60519014 -186.257208674,1034.28676614 -189.470133589,1045.77501281 -189.698019838,1048.21478574 -189.446302163,1051.11977692 -188.20857938,1065.52324403 -187.021251058,1079.35547938 -183.228508764,1123.5251367 -182.357202815,1133.67028753 -182.355715201,1133.68810696 -182.000877826,1138.06436571 -180.908849659,1151.47774671 -179.689241719,1166.50866792 -178.526089949,1180.83467832 -177.297966773,1195.9385563 -176.819313016,1201.87677822 -176.814036803,1201.93873556 -176.681600685,1203.41491094 -177.649012063,1206.28040606 -180.416599479,1207.499999 -446.2499995,1207.499999 -448.901649929,1206.40164943 -449.9999995,1203.749999 -449.9999995,3.75 -448.901649929,1.09834957055 -446.2499995,0.0 -239.843822833,0.0 -237.171044994,1.11964667315 -236.09430279,3.8099954005 -236.751539246,44.885165214 -235.128021528,48.9801959107 -231.08177437,50.7217383656 -208.627350991,51.0134976601 -206.251775354,51.9021874102 -204.985235384,54.0996872577 -205.407131265,56.6007136352 -217.374797415,77.8910000055 -218.054982059,79.6077784653 -221.197747932,92.3207892491 -221.273700026,92.6658642295 -224.563022533,109.682296897 -224.68789099,110.996038733 -224.464898137,267.909030778 -223.402067944,270.487161503 -223.743818475,273.988993331 -226.836773118,275.666268251 -241.475705896,275.792156136 -289.425807439,276.245982057 -293.472479562,277.967087286 -295.11712445,282.045432885 -294.025635503,398.702795522 -292.25818025,402.792490316 -292.033778049,402.87842384 -290.27458179,404.270726185 -289.625039512,406.418136749 -290.002637017,443.965983019 -288.570634859,447.830208896 -286.666331192,448.836217335 -285.043588757,450.516131677 -284.729908293,452.830653178 -292.773904841,496.543056061 -292.852496639,497.09509483 -294.848030567,516.815634244 -294.800353152,518.568719999 -291.984716923,536.561684636 -291.491838688,538.25176636 -284.053002328,555.260223792 -283.390039104,556.44240685 -273.910744081,570.008266979 -272.990134624,571.073802055 -248.053127272,594.565946202 -247.699505498,594.948841228 -238.849605557,605.979923886 -232.126530925,608.329907405 -229.375044664,607.708426744 -227.511372675,607.286477506 -224.640995569,607.798836029 -223.005308752,610.212568537 -223.593177345,613.068437319 -243.63556984,642.220081879 -244.538256197,646.577563087 -242.055803192,650.270788265 -232.084481054,656.81742914 -230.595677683,658.73485279 -230.595192404,659.219949646 " mydata_rot="0" mydata_centroid="-334.20117125865085,641.4899642038228" transform="translate(450 0)"></polygon><g transform="translate(-207.0707736 -1642.3158172329163) rotate(0)"><polygon id="222672433" class="tile" points="245.200119516,1740.94156634 234.775689373,1740.70675636 234.880096142,1725.37796436 213.197220208,1724.35895576 209.671437506,1834.008915 212.89922621,1840.86469707 209.568406578,1917.33095106 211.325729549,1935.91409788 211.133668875,1957.0608206 269.005698867,1957.37242071 261.466380137,1928.56063655 268.76218909,1904.02164524 275.909745997,1895.0541445 283.083165028,1897.96487122 289.837554982,1920.58310863 333.524187772,1910.21472466 337.969169108,1904.7214172 341.452846116,1907.43529683 342.333973297,1910.38967197 365.445205036,1911.24837239 359.212415985,1884.30217857 356.370595687,1869.24252971 360.368634882,1867.63352153 348.570485631,1819.20157896 341.863882306,1820.3343999 340.307745345,1811.90858042 315.937546358,1818.26689014 323.09562361,1857.26059502 308.003220534,1861.08524962 312.29373666,1881.86551679 282.159341921,1887.90585181 272.711954159,1848.48485308 246.031286906,1854.43068377 235.45304434,1807.5580664 261.238211691,1801.81527595 251.870731393,1760.30803909 245.200119516,1740.94156634 " mydata_rot="55.0" mydata_centroid="265.569073428,1861.2055316"></polygon></g><g transform="translate(-391.9155427 -1225.2380279) rotate(0)"><polygon id="223870848" class="tile" points="462.517668968,1534.08789842 456.255053142,1546.407554 456.734407133,1705.65740865 522.418633592,1705.72231811 524.200976408,1680.13610116 530.783246521,1642.19917337 537.580221618,1609.26266304 539.827763066,1551.21042614 538.656060558,1537.7209264 519.225020287,1533.77826022 462.517668968,1534.08789842 " mydata_rot="-16.2" mydata_centroid="495.056346448,1616.38025789"></polygon></g><g transform="translate(-417.3595646 -1921.4866327) rotate(0)"><polygon id="182759600" class="tile" points="584.532017488,2091.4425387 591.590732148,2050.76804622 566.765993996,2046.55863046 574.733893411,2002.82897498 575.042538204,2000.85455432 549.543626981,1996.82866639 549.215284697,1998.90634491 545.11636685,1998.25820406 545.444709125,1996.18052558 514.825021924,1991.33832075 518.116659174,1970.51847401 518.769064579,1961.82301474 487.537504493,1957.37242071 475.139637865,2033.59242552 475.156954842,2074.63574574 541.38264304,2084.80764856 584.532017488,2091.4425387 " mydata_rot="10.8" mydata_centroid="525.816882575,2034.09581733"></polygon></g><g transform="translate(-345.43069479999997 -936.3945349999999) rotate(0)"><polygon id="395180434" class="tile" points="351.197661323,1533.77826022 351.210410282,1506.84603294 347.930709377,1506.85215343 347.941361812,1482.79134513 350.747273833,1482.78912631 350.768907125,1422.02681046 434.570209128,1421.8378659 434.564198825,1432.77739941 438.628320837,1432.76987354 438.625254973,1439.70814071 448.209866578,1439.68825559 448.197894809,1457.73765987 452.668912619,1457.72813608 452.637518316,1517.1979695 447.938998215,1517.20962041 447.938124354,1520.92377307 436.830304229,1520.95041628 425.250591108,1517.12324633 409.528029358,1518.08065327 351.197661323,1533.77826022 " mydata_rot="-68.1" mydata_centroid="398.449523305,1474.09462612"></polygon></g><g transform="translate(65.2187133 -1371.7313092999998) rotate(0)"><polygon id="278058084" class="tile" points="29.9952860206,2072.46964106 30.0526177634,1961.27568264 42.2246469986,1961.25038728 42.225059671,1957.46708623 89.3334582541,1957.37242071 89.3317118254,1960.43869656 91.9977286283,1960.43456889 97.9167452894,1960.42114049 102.246804403,1960.40823785 102.193613085,2072.32706018 29.9952860206,2072.46964106 " mydata_rot="-19.7" mydata_centroid="66.1481683894,2015.4905981"></polygon></g><g transform="translate(-397.23825109999996 -501.84415) rotate(0)"><polygon id="224013222" class="tile" points="444.313151643,1405.4117412 492.123250523,1421.8378659 493.443268033,1417.23441777 498.738246591,1419.20437029 511.399797177,1382.10386464 479.956054882,1373.08751663 439.418392577,1336.79693547 481.451266057,1278.24762378 483.038784563,1253.95981215 490.72572151,1243.3929639 495.038664098,1243.44846313 511.25094022,1219.13659318 480.398943591,1201.0 447.888072257,1298.04278834 441.652597976,1305.00969848 430.476358886,1312.39422787 419.43207196,1313.82017979 400.331692474,1312.95692935 399.73694549,1331.30370439 453.589517363,1367.56289617 450.230186201,1377.68916805 452.796746674,1378.43206576 444.313151643,1405.4117412 " mydata_rot="-74.0" mydata_centroid="463.876214517,1324.7773346444574"></polygon></g><g transform="translate(10.49648590000001 -817.1016089999999) rotate(0)"><polygon id="285257213" class="tile" points="137.408199482,1724.35895576 148.862013402,1722.46966962 146.461478813,1709.02412129 141.586182374,1681.83562741 137.387376338,1658.02674959 135.20450937,1643.38993333 132.110613888,1625.84490279 131.480244161,1621.43862144 131.445293737,1614.86506654 131.988899423,1605.43422024 140.415913459,1606.18217969 146.9321178,1553.9482975 148.902941467,1533.77826022 139.13649276,1535.90459162 101.225372727,1546.10415735 101.097339612,1562.3018019 100.421684199,1563.2795828 99.3390911059,1563.28064223 96.1710082104,1562.77171083 89.5974494023,1616.7855028 90.6677877104,1617.7743191 92.9975151496,1617.84719454 94.3412876213,1618.99420732 93.3432075089,1623.31092845 91.7717704469,1623.81256034 89.8610247927,1622.86093077 89.125335264,1627.13479227 89.3482094156,1631.60741979 99.3603395568,1691.20550321 130.226797847,1685.30075471 137.408199482,1724.35895576 " mydata_rot="-26.6" mydata_centroid="118.859231955,1617.81225536"></polygon></g><g transform="translate(1.4999996000000024 -577.0246229) rotate(0)"><polygon id="287648860" class="tile" points="1.0,1329.05456749 1.06969292425,1201.14282076 2.31324865036,1201.14556669 58.9230163272,1201.0 58.8590540722,1328.90827781 1.0,1329.05456749 " mydata_rot="-26.8" mydata_centroid="29.96301908047886,1265.0289256897554"></polygon></g><g transform="translate(-101.89959979999999 -506.02418639999996) rotate(0)"><polygon id="245135709" class="tile" points="172.143908829,1422.71009823 121.927433707,1421.8378659 107.996985955,1425.8679796 109.525536857,1428.53581142 104.399598017,1429.54412783 104.494411109,1494.66010054 122.192580328,1494.40803676 123.064954416,1500.79505751 131.806699244,1507.28442911 178.008788988,1507.42391832 178.374311702,1438.197231 172.868395669,1438.41601312 172.143908829,1422.71009823 " mydata_rot="-25.7" mydata_centroid="142.219221269,1464.0020132"></polygon></g><g transform="translate(-207.3962399 -611.7051758000001) rotate(0)"><polygon id="357531024" class="tile" points="381.440860181,1601.9211952 375.11942815,1605.48862986 363.750339544,1585.91627947 367.412553026,1559.74357772 376.75684431,1561.11322637 380.353791021,1558.74759978 381.159773301,1554.84699321 376.541844494,1554.23199324 377.461350361,1547.29966177 373.630089517,1546.79263108 374.06658159,1543.48734309 306.762156692,1533.77826022 299.893021305,1544.0436491 336.459436563,1617.06986094 339.188676206,1615.69949333 340.435328132,1615.9885229 342.947116266,1621.33912603 342.344744831,1622.11269239 341.388118128,1621.94379501 340.146538865,1618.48343348 320.902421596,1625.60262888 321.743065316,1628.66956058 321.082152985,1629.305201 312.897586518,1632.97235534 316.924519423,1640.82616476 317.605807294,1646.6689465 315.857541827,1650.8896327 299.922285739,1657.89206397 305.263084256,1671.40539771 327.31778218,1664.56953227 321.638278459,1635.38033746 381.749248484,1615.68054751 381.440860181,1601.9211952 " mydata_rot="22.5" mydata_centroid="340.226940282,1585.49608268"></polygon></g><g transform="translate(-182.87678979999998 -848.7233689) rotate(0)"><polygon id="413778947" class="tile" points="241.598384193,1210.13069235 207.632505245,1201.0 185.3326653,1318.12299988 241.75429808,1329.28354705 241.598384193,1210.13069235 " mydata_rot="71.5" mydata_centroid="218.532636551,1269.4446645127018"></polygon></g><g transform="translate(2.4999998999999917 -415.7870022000001) rotate(0)"><polygon id="413778951" class="tile" points="0.011998199299,1476.08346529 8.23533210643,1475.53140299 7.19195273146,1498.91893949 52.3295698106,1517.60353304 49.1381571069,1446.89199042 85.1733461564,1446.64366731 84.203491167,1422.48139425 0.0,1421.8378659 0.011998199299,1476.08346529 " mydata_rot="45.5" mydata_centroid="34.08145349108611,1458.97186724"></polygon></g><g transform="translate(-189.7702577 -921.4626212999999) rotate(0)"><polygon id="393391811" class="tile" points="269.526169087,1957.37242071 277.510477571,1957.59687751 277.367267341,1997.68079386 335.055485665,1996.16593037 335.31749532,2024.68291906 334.791728916,2035.76159424 332.787801194,2042.95957781 325.695347853,2054.80949674 318.738193706,2062.89159759 310.03162609,2068.8641686 297.773938467,2073.76899499 284.400390324,2075.56392625 276.075101112,2074.3750984 271.427466805,2070.89006401 269.515064196,2059.8356869 276.848136924,2059.70982108 276.812707978,2009.16393252 270.021726023,2009.08162736 269.526169087,1957.37242071 " mydata_rot="-1.6" mydata_centroid="300.66045937,2028.67483636"></polygon></g><g transform="translate(-54.04735089999997 -406.84519649999993) rotate(0)"><polygon id="255480864" class="tile" points="260.146887304,1421.8378659 204.688307017,1423.76265404 204.567365136,1532.05012847 260.106840407,1532.71484813 260.007987234,1509.44432715 231.778739307,1509.5752506 231.438608971,1447.72702487 259.960036293,1448.25544171 260.146887304,1421.8378659 " mydata_rot="-23.9" mydata_centroid="227.045224135,1477.17381146"></polygon></g><g transform="translate(-103.9833337 -651.4383889) rotate(0)"><polygon id="162614310" class="tile" points="261.146887304,1514.77530617 261.239367392,1429.90625181 310.233519769,1421.8378659 317.615978004,1463.2581034 320.545186132,1491.08620015 291.177126059,1491.90145707 288.205377274,1469.44563342 283.24524231,1469.64106173 283.622596322,1490.6512029 277.694506625,1490.30313116 274.989943068,1490.19095406 274.531677008,1509.02338101 274.38795315,1515.14662774 268.890963349,1514.89906851 261.146887304,1514.77530617 " mydata_rot="-27.9" mydata_centroid="287.633160397,1462.38566623"></polygon></g><g transform="translate(-367.18767260000004 -1670.3281884) rotate(0)"><polygon id="185158141" class="tile" points="563.420007957,1893.77538294 557.242161896,1890.34090217 551.53034557,1878.29653653 547.496206737,1866.40821029 545.772030066,1845.9792777 546.21124332,1813.34769806 546.382240799,1800.03768736 545.782345009,1754.46600758 547.419606106,1738.97837748 551.372802702,1730.9263381 554.853202418,1729.00983232 561.199314466,1725.5081875 569.134095255,1724.35895576 574.666267102,1763.84023647 570.339734222,1813.80754751 563.420007957,1893.77538294 " mydata_rot="72.7" mydata_centroid="558.739281787,1801.35992987"></polygon></g><g transform="translate(-261.53573559999995 -1315.0164548000002) rotate(0)"><polygon id="161026134" class="tile" points="449.763713995,1957.37242071 424.261892813,2051.81744457 472.569732641,2082.63566849 474.139637865,2076.03977266 472.780758753,2069.16698502 468.766375853,2062.34596593 465.091565039,2055.09796274 463.306725846,2047.55480183 463.462625989,2039.70030623 465.205272662,2031.96836157 473.43794682,1996.55229784 474.111325963,1992.12229888 473.07818687,1988.17612716 454.881312949,1959.39090798 449.763713995,1957.37242071 " mydata_rot="-58.9" mydata_centroid="452.073376435,2022.05468563"></polygon></g><g transform="translate(-14.92059470000001 -531.2858001) rotate(0)"><polygon id="344153857" class="tile" points="225.863394081,1633.81338219 239.720569068,1650.66579331 254.496236614,1640.77918475 258.223194579,1629.56906408 260.065882188,1559.31313844 252.152881921,1556.29145747 246.954894078,1536.47548688 238.917964917,1533.77826022 231.013554515,1538.00953332 225.78684622,1549.7551399 225.863394081,1633.81338219 " mydata_rot="-69.1" mydata_centroid="241.867499031,1592.38692192"></polygon></g><g transform="translate(-163.43349060000003 -850.9662072000001) rotate(0)"><polygon id="284653428" class="tile" points="176.661042468,2014.60714656 176.837954445,2003.48561027 184.724709877,2003.50874495 185.057710636,2002.9566955 185.138587986,2001.907993 186.27617278,1958.04359789 232.48660011,1957.37242071 233.481295323,1989.86817038 238.295244349,1990.23362532 238.337194913,2017.83987316 236.282361856,2019.08568939 234.177939154,2019.30447841 232.803533711,2020.24530787 227.325091393,2019.84774459 226.669048629,2016.54435564 223.728988319,2014.52080872 221.853742457,2014.70556902 220.323292603,2018.41804451 193.605929053,2019.06873761 192.125596307,2017.03778964 191.607023832,2014.58049885 189.736673158,2013.86628138 187.943927461,2014.42572525 186.766394282,2015.44173292 176.661042468,2014.60714656 " mydata_rot="-69.1" mydata_centroid="209.875305345,1989.45954942"></polygon></g><g transform="translate(117.0831273 -260.6212561000001) rotate(0)"><polygon id="338084346" class="tile" points="100.090582497,1201.0 65.5047960393,1201.03172023 65.5138888871,1202.71272511 63.8946403733,1202.69408986 63.898295733,1204.25347757 62.0673000563,1204.2986154 62.1135917999,1209.73447345 59.9287532628,1209.82552209 59.9230163272,1247.78057763 70.3100825911,1237.25419065 75.2674673077,1242.32134697 64.6309534865,1252.65087079 68.4536190677,1256.57490376 106.714744998,1256.50540332 106.745992237,1255.02552107 114.112940841,1254.92093569 114.088695467,1250.43096067 115.892852157,1250.32466077 115.858804391,1217.1721674 109.702167254,1210.68385288 105.083196121,1215.25716989 98.5619924333,1208.8121792 103.180960326,1204.23886361 100.090582497,1201.0 " mydata_rot="66.3" mydata_centroid="87.6559486996,1229.3216913736528"></polygon></g><g transform="translate(-313.93733399999996 -501.4097868) rotate(0)"><polygon id="448157975" class="tile" points="557.376799438,1305.91560302 531.458267709,1306.8028279 531.49461572,1201.0 542.48472256,1201.4221934 560.775494987,1253.63000033 561.168693154,1300.66228838 556.878812049,1300.42131547 557.376799438,1305.91560302 " mydata_rot="59.4" mydata_centroid="544.466914239,1260.0342107887218"></polygon></g><g transform="translate(65.3879136 -935.4650593999999) rotate(0)"><polygon id="392494961" class="tile" points="20.7008177899,1533.86786894 0.0763970743865,1533.77826022 0.0,1629.63722982 20.628878605,1629.7168695 20.7008177899,1533.86786894 " mydata_rot="61.8" mydata_centroid="10.351342938123738,1581.75177974"></polygon></g><g transform="translate(112.20649610000001 -1461.8661128) rotate(0)"><polygon id="412107610" class="tile" points="0.0,2042.59318284 0.73890991509,2000.50457115 17.2646630354,2000.48435446 17.3485156383,1995.4208662 17.4187117171,1990.59522164 0.574055633694,1990.18176744 0.0165030028671,1957.65057873 8.54605752714,1957.53426822 20.7387539707,1957.37242071 20.6272214826,1971.51401992 20.3795222975,1994.42678099 27.9952860206,1994.26926477 27.8534202185,2020.9484787 27.8202535182,2026.2785398 17.2908727191,2037.03542451 17.500715965,2042.09624838 0.0,2042.59318284 " mydata_rot="-60.5" mydata_centroid="12.505831858211597,2001.63623161"></polygon></g><g transform="translate(-246.2702703 -1166.4442726999998) rotate(0)"><polygon id="286087283" class="tile" points="262.423688325,1243.95647298 304.674315247,1243.77459619 304.645785754,1201.0 262.39508231,1201.1817585 262.423688325,1243.95647298 " mydata_rot="-32.9" mydata_centroid="283.534708141,1222.478200512867"></polygon></g><g transform="translate(17.55536459999999 -70.69239829999992) rotate(0)"><polygon id="201146426" class="tile" points="167.085111692,1248.36578374 167.200140208,1244.26542862 167.082818201,1229.93284636 164.596072682,1229.93140064 164.591745034,1236.88962714 149.523612077,1236.87115863 149.524461964,1224.12200593 148.281089186,1224.12128317 148.28422052,1216.26171326 164.623602027,1216.27718939 164.625847462,1218.55268537 167.411140676,1218.55647069 167.412959532,1211.32117433 167.038159358,1205.33582584 144.068266292,1205.74788039 143.979592736,1201.02945427 125.706216285,1201.0 125.705973127,1248.31249197 143.905514386,1248.33707733 167.085111692,1248.36578374 " mydata_rot="10.6" mydata_centroid="143.260736978,1225.791936402512"></polygon></g><g transform="translate(-205.40882850000003 -329.72857680000004) rotate(0)"><polygon id="244091357" class="tile" points="369.736226555,1201.02171713 369.727872233,1256.14593755 398.72947216,1256.1175995 398.73694549,1201.0 369.736226555,1201.02171713 " mydata_rot="-82.1" mydata_centroid="384.23233883,1228.5714531808453"></polygon></g><g transform="translate(-125.29451559999998 -833.4496829) rotate(0)"><polygon id="182759614" class="tile" points="336.31749532,2007.9091742 342.604021301,2007.9230671 342.599802191,2011.79984478 361.267312487,2011.8434731 361.268097027,2006.87980294 366.192506874,2006.89441669 366.220848251,1957.44158589 336.355426295,1957.37242071 336.353969238,1959.70592799 336.31749532,2007.9091742 " mydata_rot="12.6" mydata_centroid="351.25971053,1983.84137421"></polygon></g><g transform="translate(-303.1743166 -333.55196780000006) rotate(0)"><polygon id="191322636" class="tile" points="305.690605418,1244.3706442 305.674315247,1201.00847692 338.124416339,1201.0 338.140711075,1244.36216719 305.690605418,1244.3706442 " mydata_rot="-91.1" mydata_centroid="321.907512014,1222.6853225850862"></polygon></g><g transform="translate(-483.3309201999999 -1257.1363078000002) rotate(0)"><polygon id="261699871" class="tile" points="555.513449044,1469.44091469 555.507886674,1445.11864379 536.263656917,1445.18167856 536.262099392,1421.97441346 574.474325545,1421.8378659 574.488993162,1469.37167221 555.513449044,1469.44091469 " mydata_rot="-60.5" mydata_centroid="558.665626275,1441.63428806"></polygon></g><g transform="translate(-256.9415494 -1522.1649688) rotate(0)"><polygon id="250613656" class="tile" points="431.696611793,1596.07745346 411.84672011,1596.06312552 411.862961582,1570.38491156 412.549843539,1570.39154846 412.55758885,1559.54755745 411.767848455,1559.55325072 411.790775616,1533.77826022 431.742322463,1533.78892952 431.696611793,1596.07745346 " mydata_rot="7.9" mydata_centroid="421.830430522,1564.88764815"></polygon></g><g transform="translate(-387.2503365 -961.010728) rotate(0)"><polygon id="250268340" class="tile" points="409.958868604,1767.36487502 409.951801671,1765.84474364 389.783354568,1765.86335204 389.750326964,1724.38378674 419.423685398,1724.35895576 419.456645571,1765.83854775 414.124821674,1765.84476284 414.12126772,1767.36191569 409.958868604,1767.36487502 " mydata_rot="68.4" mydata_centroid="404.641608698,1745.22089163"></polygon></g><g transform="translate(-413.5306369 -1709.9106046) rotate(0)"><polygon id="374156365" class="tile" points="519.925175261,1727.19190089 543.740774911,1724.35895576 544.772030066,1748.09246315 543.57413237,1775.38461252 519.941898481,1776.16033674 519.925175261,1727.19190089 " mydata_rot="-87.1" mydata_centroid="532.159454385,1750.70218802"></polygon></g><g transform="translate(-282.23144990000003 -407.00632659999997) rotate(0)"><polygon id="298417639" class="tile" points="368.703904589,1204.27593611 361.327314088,1201.0 359.983111141,1203.75756664 358.474286898,1203.02354903 355.090530763,1209.99655433 346.848559268,1226.9375686 348.760305501,1227.86192669 343.970258452,1237.70659777 341.837382266,1242.50067413 339.140711075,1248.57141018 341.191327713,1249.54578991 354.76910887,1255.98955953 365.186898388,1260.11583059 368.727872233,1261.5615151 368.716205585,1253.58018855 368.703904589,1204.27593611 " mydata_rot="70.5" mydata_centroid="358.064995455,1233.4149570801867"></polygon></g><g transform="translate(-30.5276188 -1328.1762817) rotate(0)"><polygon id="377121567" class="tile" points="190.594079438,1533.78188924 206.709276034,1533.77826022 206.691103924,1555.90731617 224.78684622,1555.89907837 224.773953482,1572.64113844 199.601759045,1572.65091445 199.596655664,1582.36571087 190.557936172,1582.36780537 190.594079438,1533.78188924 " mydata_rot="-81.6" mydata_centroid="203.421683895,1558.60612335"></polygon></g><g transform="translate(-358.750408 -280.7970447) rotate(0)"><polygon id="310077333" class="tile" points="497.011939051,1421.8378659 463.553626973,1445.18482651 487.171849134,1477.66313764 496.989213872,1470.28594342 497.011939051,1421.8378659 " mydata_rot="61.9" mydata_centroid="485.086367122,1450.11086325"></polygon></g><g transform="translate(12.587235499999963 -1212.7383421) rotate(0)"><polygon id="299944948" class="tile" points="249.97670182,2008.41018092 239.337194913,1975.27367987 239.363474914,1966.71316086 243.324500205,1965.20999542 260.701765863,1958.99966212 265.229046082,1957.37242071 268.510892585,1971.7344195 268.515064196,1976.99159924 267.972206258,1982.60350616 266.867787291,1987.36416082 264.82275571,1992.24830765 261.71785255,1997.39122024 258.619480107,2001.70289181 254.018997137,2006.12385755 249.97670182,2008.41018092 " mydata_rot="-48.6" mydata_centroid="254.623719937,1980.41266077"></polygon></g><g transform="translate(172.4581864 -1120.2646924) rotate(0)"><polygon id="443361971" class="tile" points="0.0,1724.35895576 27.4244771378,1727.07915683 26.166951216,1758.1511785 0.0366617839783,1757.16465739 0.0,1724.35895576 " mydata_rot="11.6" mydata_centroid="13.29482506631883,1741.54879061"></polygon></g><g transform="translate(-315.3517686 -375.6991380000002) rotate(0)"><polygon id="447593422" class="tile" points="517.388867713,1466.23993239 517.318674631,1422.03705488 498.709188363,1421.8378659 498.011939051,1465.56946056 517.388867713,1466.23993239 " mydata_rot="-79.3" mydata_centroid="507.872437738,1444.0701219"></polygon></g><g transform="translate(-338.1870974 -921.4112315999998) rotate(0)"><polygon id="412450794" class="tile" points="397.697775141,2016.10663202 410.695670241,2016.22486502 410.705356951,1957.37242071 397.715954122,1957.49986983 397.697775141,2016.10663202 " mydata_rot="29.1" mydata_centroid="404.208218074,1986.8041659"></polygon></g><g transform="translate(-280.4273434 -460.22778260000007) rotate(0)"><polygon id="364262716" class="tile" points="518.388867713,1468.63174211 535.225916142,1468.626264 535.262099392,1421.8378659 518.425032307,1421.84334135 518.388867713,1468.63174211 " mydata_rot="-81.9" mydata_centroid="526.825478812,1445.23479902"></polygon></g><g transform="translate(-96.7212178 -769.8153583999999) rotate(0)"><polygon id="201025373" class="tile" points="191.326822362,1724.37714094 181.926075404,1724.36082415 178.077852999,1724.35895576 178.066674033,1771.4686937 180.172858713,1771.4775749 208.567014034,1771.51852891 208.568406578,1763.45550418 208.567189444,1757.97258544 184.014692642,1757.93226412 184.015542025,1733.90321643 191.323225033,1733.91316035 191.326822362,1724.37714094 " mydata_rot="10.8" mydata_centroid="189.153423796,1754.19686484"></polygon></g><g transform="translate(-78.76853729999999 -563.5663402999999) rotate(0)"><polygon id="261699298" class="tile" points="154.847276536,1758.60017852 153.190489084,1758.60225366 153.181738458,1745.91232602 153.180392615,1736.28212339 158.677452905,1736.29136198 158.666808644,1724.35895576 177.041050954,1724.3722084 177.040486371,1728.44701785 177.066674033,1754.6755966 177.063356246,1758.61613567 154.847276536,1758.60017852 " mydata_rot="10.3" mydata_centroid="165.918864868,1742.46092248"></polygon></g><g transform="translate(132.0164652 -1515.0178129) rotate(0)"><polygon id="374788775" class="tile" points="47.9615288055,1533.77826022 70.5093901409,1533.86337455 70.983478147,1548.00934658 71.0105772244,1564.10368961 48.0119740335,1563.602668 47.757124201,1563.6232374 47.9615288055,1533.77826022 " mydata_rot="-37.9" mydata_centroid="59.3964994662,1548.91155031"></polygon></g><g transform="translate(37.57635420000001 -394.7342167999998) rotate(0)"><polygon id="232494205" class="tile" points="103.399598017,1464.55020054 87.1733461564,1464.46431265 87.4827392971,1421.8378659 103.396736115,1424.67022372 103.399598017,1464.55020054 " mydata_rot="66.1" mydata_centroid="95.2728179975,1443.93706858"></polygon></g><g transform="translate(-235.22724459999998 -943.5673066) rotate(0)"><polygon id="194665129" class="tile" points="261.102821185,1562.59335584 265.3305274,1562.59918713 284.691792437,1562.56452938 285.107380301,1562.56277499 286.876254239,1562.56432806 286.881444159,1555.42080824 286.887267099,1533.77826022 267.557060138,1539.17339707 261.065882188,1540.98259354 261.102821185,1562.59335584 " mydata_rot="4.6" mydata_centroid="274.594357681,1549.89210807"></polygon></g><g transform="translate(-147.7819824 -1636.9875013) rotate(0)"><polygon id="185148207" class="tile" points="152.15322076,1985.41726648 175.643441331,1984.22151556 175.661042468,1958.1253018 171.492951917,1957.37242071 150.27568135,1959.02450492 150.716409682,1965.20019844 151.671726335,1978.68088745 152.15322076,1985.41726648 " mydata_rot="6.8" mydata_centroid="163.440119278,1971.29674329"></polygon></g><g transform="translate(-333.5662838 -1404.3387635999998) rotate(0)"><polygon id="412123942" class="tile" points="366.449333144,1753.08145118 366.445205036,1724.43094412 388.750326964,1724.35895576 388.746803868,1753.00508093 366.449333144,1753.08145118 " mydata_rot="-60.2" mydata_centroid="377.597631337,1738.71828989"></polygon></g><g transform="translate(-225.33187709999999 -1144.5610276) rotate(0)"><polygon id="180464290" class="tile" points="321.674875052,1425.12571355 321.545186132,1447.61280474 346.930709377,1448.18032207 346.922471202,1441.64053231 346.904127607,1426.82407147 346.892791909,1421.8378659 332.512300193,1422.1145169 332.554532287,1424.92092577 321.674875052,1425.12571355 " mydata_rot="-37.2" mydata_centroid="334.705848829,1435.5605323"></polygon></g><g transform="translate(-100.7468296 -869.7030471999999) rotate(0)"><polygon id="239753697" class="tile" points="103.586845453,1959.91733413 108.365500647,1957.37242071 108.343183115,2048.27401382 107.304368287,2044.44321327 106.315923602,2042.25041136 105.37114984,2040.18415776 104.369713013,2038.14172312 103.637000723,2036.05878003 103.246804403,2034.02023412 103.586845453,1959.91733413 " mydata_rot="67.2" mydata_centroid="105.956432686,2000.49257234"></polygon></g><g transform="translate(-65.2339843 -526.7987330999999) rotate(0)"><polygon id="409726394" class="tile" points="203.411022986,1421.8378659 193.683338859,1421.87671372 190.11613891,1421.99833763 179.950147226,1422.04340697 179.41438696,1422.07310079 179.394317861,1433.2490157 179.413678338,1437.52244778 179.374311702,1445.98277346 203.567365136,1445.63102596 203.411022986,1421.8378659 " mydata_rot="61.0" mydata_centroid="191.437543074,1433.88982459"></polygon></g><g transform="translate(-404.6115267 -1501.4490193000001) rotate(0)"><polygon id="317378540" class="tile" points="553.104448752,1533.82608584 553.077533525,1572.44298143 540.827763066,1572.39513887 540.854647982,1533.77826022 553.104448752,1533.82608584 " mydata_rot="60.8" mydata_centroid="546.966098788,1553.11060863"></polygon></g><g transform="translate(-251.59972129999997 -682.5438875000001) rotate(0)"><polygon id="201150239" class="tile" points="455.234225981,1566.45680285 455.255053142,1533.8260889 432.751245847,1533.77826022 432.742322463,1548.79066682 449.933068546,1548.82541521 449.926101797,1566.45356808 455.234225981,1566.45680285 " mydata_rot="10.7" mydata_centroid="445.861008358,1544.85138763"></polygon></g><g transform="translate(11.470956099999995 -1450.9522655) rotate(0)"><polygon id="295447861" class="tile" points="115.118986998,1748.40136535 115.101267011,1724.35895576 117.564812991,1724.36545038 133.509368713,1724.38907599 133.524894577,1728.54821584 133.309616792,1748.38146087 115.118986998,1748.40136535 " mydata_rot="-66.7" mydata_centroid="124.26940657,1736.35598972"></polygon></g><g transform="translate(17.424160999999998 -1549.4407394) rotate(0)"><polygon id="266170589" class="tile" points="134.524894577,1748.39710619 134.533930816,1724.35895576 152.180392615,1724.36939661 152.167082812,1748.39983733 137.710394776,1748.398937 134.524894577,1748.39710619 " mydata_rot="-29.0" mydata_centroid="143.351051456,1736.38117267"></polygon></g><g transform="translate(-385.85110239999995 -273.6557597000001) rotate(0)"><polygon id="329778943" class="tile" points="591.010793723,1421.8378659 591.179711688,1446.90300071 575.49118278,1448.35223636 575.488993162,1422.09936285 591.010793723,1421.8378659 " mydata_rot="79.2" mydata_centroid="583.233026309,1434.82477381"></polygon></g><g transform="translate(-310.8142966 -1271.3685389999998) rotate(0)"><polygon id="438251675" class="tile" points="455.369344891,1724.35895576 448.432742255,1724.56482932 448.397309553,1765.6980023 457.185890346,1765.07666501 456.871417628,1751.55410696 456.406928301,1731.62610039 455.369344891,1724.35895576 " mydata_rot="-1.7" mydata_centroid="452.529783756,1745.49930361"></polygon></g><g transform="translate(-156.0701834 -29.158158100000037) rotate(0)"><polygon id="288448678" class="tile" points="169.986558396,1201.0 184.3326653,1201.31404856 184.309743336,1225.24555508 168.67498729,1225.50079995 168.52219159,1222.70830442 168.463091902,1209.76062521 168.412959532,1208.17863107 170.020277737,1208.16583803 169.986558396,1201.0 " mydata_rot="-29.2" mydata_centroid="176.58613286,1213.4950408011132"></polygon></g><g transform="translate(-520.8427804 -360.8247639000001) rotate(0)"><polygon id="330741657" class="tile" points="571.880580624,1553.84918278 565.455063909,1554.04586125 554.122747114,1554.3998251 554.104448752,1533.8530538 571.868167347,1533.77826022 571.880580624,1553.84918278 " mydata_rot="-28.3" mydata_centroid="562.959245301,1543.96952478"></polygon></g><g transform="translate(-316.07664939999995 -955.6625522) rotate(0)"><polygon id="185193609" class="tile" points="514.818806843,1204.97086097 514.824588902,1210.72668111 514.820473666,1223.95453954 530.452040442,1223.90562091 530.458267709,1201.0 514.826677527,1201.04889988 514.818806843,1204.97086097 " mydata_rot="-51.3" mydata_centroid="522.638754975,1212.4766173895962"></polygon></g><g transform="translate(-114.392853 -841.9736421) rotate(0)"><polygon id="300398893" class="tile" points="124.705973127,1201.0 124.683877784,1243.7235406 120.943014434,1243.73381784 120.953399445,1225.67048505 119.361374109,1225.67987778 116.892852157,1225.69104946 116.903419458,1201.01984494 119.399712737,1201.01879986 124.705973127,1201.0 " mydata_rot="-43.1" mydata_centroid="121.323541983,1218.892738759051"></polygon></g><g transform="translate(31.676501499999993 -1256.1136694) rotate(0)"><polygon id="232491727" class="tile" points="46.757124201,1535.99305038 30.3773309497,1533.77826022 30.4004952019,1552.28081776 46.6330327319,1554.04448694 46.757124201,1535.99305038 " mydata_rot="69.8" mydata_centroid="38.5098408131,1544.00636035"></polygon></g><g transform="translate(-112.84919310000001 -776.8586821) rotate(0)"><polygon id="375719859" class="tile" points="150.462242604,1563.39706711 158.923443091,1563.34946774 158.97055223,1533.77826022 149.902941467,1533.86720298 150.462242604,1563.39706711 " mydata_rot="-29.6" mydata_centroid="154.564222493,1548.42751954"></polygon></g><g transform="translate(-341.7474731 -1548.6455712000002) rotate(0)"><polygon id="299906166" class="tile" points="437.810452105,1732.25431983 442.226660669,1724.35895576 444.73542364,1729.1869437 446.759881809,1739.245916 447.397309553,1745.43323483 447.10450006,1751.34706224 446.936767556,1754.65616092 446.217533582,1757.82993716 437.815412746,1761.54951782 439.342775281,1755.35374443 440.255295051,1746.84437942 439.561058872,1738.73691795 437.810452105,1732.25431983 " mydata_rot="26.3" mydata_centroid="442.827050327,1743.77261304"></polygon></g><g transform="translate(-355.6792212 -783.2177480999999) rotate(0)"><polygon id="440496353" class="tile" points="411.721704224,1979.87424229 411.705356951,1957.38137278 423.245543779,1957.37242071 423.261892813,1979.86529015 411.721704224,1979.87424229 " mydata_rot="-92.3" mydata_centroid="417.483624439,1968.62333177"></polygon></g><g transform="translate(-142.85789670000003 -975.896297) rotate(0)"><polygon id="271129822" class="tile" points="287.887267099,1556.61581477 287.920425374,1533.77826022 298.708940006,1533.87289057 298.893021305,1554.15172758 287.887267099,1556.61581477 " mydata_rot="-73.1" mydata_centroid="293.245798717,1544.65355534"></polygon></g><g transform="translate(-380.24923709999996 -1488.9401362) rotate(0)"><polygon id="224291351" class="tile" points="382.754703971,1565.98762758 382.749248484,1533.78080803 388.785231013,1533.77826022 388.788170391,1555.32761256 388.790683714,1565.98507953 382.754703971,1565.98762758 " mydata_rot="-85.2" mydata_centroid="385.769789531,1549.88283606"></polygon></g><g transform="translate(-368.5312093 -1306.0525538) rotate(0)"><polygon id="222912943" class="tile" points="512.204261002,1724.35895576 518.922845257,1724.50506019 518.925175261,1754.08701697 512.106618445,1754.03750159 512.204261002,1724.35895576 " mydata_rot="-87.9" mydata_centroid="515.53780028,1739.28351932"></polygon></g><g transform="translate(-212.10079240000002 -876.9907420000001) rotate(0)"><polygon id="309141142" class="tile" points="420.475094814,1724.90583671 421.772411198,1728.85280069 425.34757195,1729.1404513 428.664067816,1730.39437571 430.931117859,1732.36587024 432.393187695,1735.34781433 432.365106049,1737.94546472 431.625359943,1740.47704154 428.799512552,1743.20211645 426.008295893,1744.41409895 423.015978039,1744.71095044 420.456645571,1748.62081313 422.751668932,1749.07867657 425.356291978,1749.10316166 427.830475801,1748.50022544 430.51330227,1747.55273339 432.606240495,1746.10830466 434.389299725,1744.10133543 435.63308896,1742.05097678 436.473087556,1739.43933415 436.810452105,1736.32896009 436.384721027,1733.79174175 435.275506982,1730.83818685 433.663162604,1728.55802421 431.396112659,1726.58652844 428.733617944,1725.03269221 426.179721581,1724.37773377 423.755559697,1724.35895576 420.475094814,1724.90583671 " mydata_rot="4.6" mydata_centroid="429.622416176,1736.52786023"></polygon></g><g transform="translate(-246.4014133 -360.69820919999995) rotate(0)"><polygon id="252080343" class="tile" points="248.91165785,1223.15462485 248.901416511,1201.0 261.39508231,1212.40586681 261.222131165,1223.13742309 248.91165785,1223.15462485 " mydata_rot="-94.0" mydata_centroid="254.396624918,1214.5715671642856"></polygon></g><g transform="translate(85.3385863 -1219.4124102) rotate(0)"><polygon id="309138552" class="tile" points="61.922300713,1746.86075731 52.4738885634,1746.80143652 52.4930058416,1726.65665023 55.4364145059,1726.54957561 56.4953477595,1726.51342623 56.5012684157,1724.35895576 59.4103290908,1724.45171123 60.418895001,1724.47795906 60.2814141735,1740.75004709 62.0207786506,1740.72724338 61.922300713,1746.86075731 " mydata_rot="48.5" mydata_centroid="56.7780318015,1736.56005684"></polygon></g><g transform="translate(-499.7945741 -103.72945100000015) rotate(0)"><polygon id="163806027" class="tile" points="513.805843411,1251.25057128 512.399797177,1251.24291969 512.410905198,1201.00093004 513.818806843,1201.0 513.805843411,1251.25057128 " mydata_rot="12.2" mydata_centroid="513.108859514,1226.1180896701608"></polygon></g><g transform="translate(-451.1713487 -1406.8283936999999) rotate(0)"><polygon id="329736427" class="tile" points="462.534832601,1423.9401564 456.919788185,1422.49535687 454.362169817,1421.8378659 453.972288083,1428.56079414 453.668912619,1437.53765625 454.061008813,1443.1284567 456.592192553,1442.51991262 462.553626973,1441.09252059 462.550715625,1439.51680629 462.55337884,1438.13253184 462.549745709,1436.7112336 462.534832601,1423.9401564 " mydata_rot="-55.0" mydata_centroid="458.082728814,1432.58886053"></polygon></g><g transform="translate(16.4528557 -1365.8760545999999) rotate(0)"><polygon id="273839232" class="tile" points="29.3762235416,1533.8057207 22.7008177899,1533.77826022 22.7019301718,1556.41780859 29.3773309497,1556.4452785 29.3762235416,1533.8057207 " mydata_rot="27.8" mydata_centroid="26.0390758455,1545.1117656"></polygon></g><g transform="translate(-240.2543035 -598.1409716999999) rotate(0)"><polygon id="327029572" class="tile" points="247.602463166,1216.92537381 247.901416511,1201.38650815 242.75429808,1201.0 242.777916706,1202.52803346 242.764704901,1217.26497725 246.079224055,1217.02732322 247.602463166,1216.92537381 " mydata_rot="-34.3" mydata_centroid="245.243233092,1209.06399794874"></polygon></g></g><g transform="translate(0 1327.7)"><polygon id="3" class="bin" points="-230.595192404,659.219949646 -227.724161754,664.039183154 -200.960956668,682.371067242 -199.39551171,684.767589687 -199.977010275,687.57040919 -202.084780384,690.676814329 -202.963050722,695.029694852 -200.473874141,698.707048191 -195.250284835,702.11949554 -193.611699557,704.588157379 -194.276488778,707.475597124 -198.424559111,713.135852091 -199.464710436,717.42964807 -197.148492998,721.191793132 -147.808390869,756.72816282 -146.2500005,759.771080372 -146.2500005,762.122541923 -146.910308858,764.247702048 -218.58979988,868.459860825 -218.672864529,868.583471807 -243.666249871,906.661381358 -244.560588833,910.617184203 -242.63527025,914.186689306 -227.393938572,927.490987764 -226.814710999,927.94435894 -197.055632245,948.769324895 -191.873269691,949.875055569 -185.410067305,948.63099705 -184.01766771,948.626235214 -176.714336723,949.980268227 -174.412874134,951.397651988 -173.662201195,953.99422606 -174.133073578,959.377023011 -174.651478775,965.280121158 -174.684875365,965.548737331 -176.117188667,974.435890854 -178.449862424,988.849128095 -180.953931103,1004.36741553 -183.194310892,1018.20079565 -185.134418535,1030.19213935 -185.225409193,1030.60519014 -186.257208674,1034.28676614 -189.470133589,1045.77501281 -189.698019838,1048.21478574 -189.446302163,1051.11977692 -188.20857938,1065.52324403 -187.021251058,1079.35547938 -183.228508764,1123.5251367 -182.357202815,1133.67028753 -182.355715201,1133.68810696 -182.000877826,1138.06436571 -180.908849659,1151.47774671 -179.689241719,1166.50866792 -178.526089949,1180.83467832 -177.297966773,1195.9385563 -176.819313016,1201.87677822 -176.814036803,1201.93873556 -176.681600685,1203.41491094 -177.649012063,1206.28040606 -180.416599479,1207.499999 -446.2499995,1207.499999 -448.901649929,1206.40164943 -449.9999995,1203.749999 -449.9999995,3.75 -448.901649929,1.09834957055 -446.2499995,0.0 -239.843822833,0.0 -237.171044994,1.11964667315 -236.09430279,3.8099954005 -236.751539246,44.885165214 -235.128021528,48.9801959107 -231.08177437,50.7217383656 -208.627350991,51.0134976601 -206.251775354,51.9021874102 -204.985235384,54.0996872577 -205.407131265,56.6007136352 -217.374797415,77.8910000055 -218.054982059,79.6077784653 -221.197747932,92.3207892491 -221.273700026,92.6658642295 -224.563022533,109.682296897 -224.68789099,110.996038733 -224.464898137,267.909030778 -223.402067944,270.487161503 -223.743818475,273.988993331 -226.836773118,275.666268251 -241.475705896,275.792156136 -289.425807439,276.245982057 -293.472479562,277.967087286 -295.11712445,282.045432885 -294.025635503,398.702795522 -292.25818025,402.792490316 -292.033778049,402.87842384 -290.27458179,404.270726185 -289.625039512,406.418136749 -290.002637017,443.965983019 -288.570634859,447.830208896 -286.666331192,448.836217335 -285.043588757,450.516131677 -284.729908293,452.830653178 -292.773904841,496.543056061 -292.852496639,497.09509483 -294.848030567,516.815634244 -294.800353152,518.568719999 -291.984716923,536.561684636 -291.491838688,538.25176636 -284.053002328,555.260223792 -283.390039104,556.44240685 -273.910744081,570.008266979 -272.990134624,571.073802055 -248.053127272,594.565946202 -247.699505498,594.948841228 -238.849605557,605.979923886 -232.126530925,608.329907405 -229.375044664,607.708426744 -227.511372675,607.286477506 -224.640995569,607.798836029 -223.005308752,610.212568537 -223.593177345,613.068437319 -243.63556984,642.220081879 -244.538256197,646.577563087 -242.055803192,650.270788265 -232.084481054,656.81742914 -230.595677683,658.73485279 -230.595192404,659.219949646 " mydata_rot="0" mydata_centroid="-334.20117125865085,641.4899642038228" transform="translate(450 0)"></polygon><g transform="translate(-106.86550210000004 -1954.8724384000002) rotate(0)"><polygon id="201109394" class="tile" points="131.279689421,1957.37922073 125.7714727,1957.37242071 125.775336162,1959.43633738 109.365500647,1959.42018195 109.450227223,2069.04256983 127.090364326,2069.02776279 127.096799313,2026.89089927 149.27568135,2026.90160876 149.269003951,2016.02188369 149.261537625,2008.64310218 126.767828791,2007.79474721 127.038843887,1970.14733818 131.20173906,1965.59010333 131.279689421,1957.37922073 " mydata_rot="10.9" mydata_centroid="121.865168441,2013.83746298"></polygon></g><g transform="translate(-52.88978970000001 -1721.8949188) rotate(0)"><polygon id="443296702" class="tile" points="95.6298334101,1726.38962845 107.481036381,1724.35895576 112.623901634,1743.1872144 114.101267011,1787.55019168 111.204722132,1813.53727671 108.367962351,1836.8399513 95.6087250745,1833.93255594 98.7204826994,1809.89484361 101.280947739,1785.73292445 98.6992773024,1745.97529393 95.6298334101,1726.38962845 " mydata_rot="-6.3" mydata_centroid="105.432789209,1779.8908767"></polygon></g><g transform="translate(-323.6376811 -1531.2784953) rotate(0)"><polygon id="412450796" class="tile" points="390.618010535,1534.01432623 410.558341702,1533.77826022 410.746396806,1542.91345562 410.730013291,1556.66905043 410.723444202,1570.33947895 410.711526789,1585.5385141 410.697766655,1596.02057928 410.74133692,1599.94491093 410.767848455,1602.17678221 403.721065885,1602.53295566 403.899993254,1606.93692957 391.916509077,1607.74473251 389.790683714,1600.59676416 390.618010535,1534.01432623 " mydata_rot="29.5" mydata_centroid="400.3228365,1569.93972215"></polygon></g><g transform="translate(-95.59400910000001 -1452.9937943999998) rotate(0)"><polygon id="221214070" class="tile" points="159.992671316,1585.51174346 159.97055223,1534.56800823 188.504789482,1533.77826022 189.557936172,1559.49920797 176.057535249,1559.72577924 176.533815196,1584.8240917 159.992671316,1585.51174346 " mydata_rot="-83.0" mydata_centroid="172.244774684,1556.15466248"></polygon></g><g transform="translate(20.092762800000003 -1531.2808699) rotate(0)"><polygon id="300089514" class="tile" points="88.125335264,1604.49056021 87.8998916714,1533.77826022 78.2827792147,1534.35497392 72.0595710432,1534.49425947 72.0203141304,1596.59687559 73.209456565,1598.57863642 73.3740161432,1600.77217932 73.0539575918,1603.03977067 72.0105772244,1604.74618642 79.1159329502,1604.75621276 88.125335264,1604.49056021 " mydata_rot="-30.8" mydata_centroid="80.0848495912,1569.33162811"></polygon></g><g transform="translate(-454.62745789999997 -1641.3069454000001) rotate(0)"><polygon id="234554439" class="tile" points="487.942870587,1724.56477556 492.34942494,1729.18133581 492.386896253,1792.62009372 458.185890346,1765.45882296 458.580155402,1761.02191081 478.754598386,1763.72213698 480.118534862,1755.16157708 480.689435817,1750.77799445 481.478354501,1744.72995187 482.251966007,1738.82380371 484.095260954,1724.35895576 487.942870587,1724.56477556 " mydata_rot="-73.2" mydata_centroid="482.654146388,1761.40681761"></polygon></g><g transform="translate(-281.28336690000003 -1845.7327587) rotate(0)"><polygon id="359005797" class="tile" points="367.220848251,1957.37242071 367.224230859,1993.94785706 392.04616368,1994.10492763 396.336290264,1991.86490603 396.697775141,1957.79054537 367.220848251,1957.37242071 " mydata_rot="-8.3" mydata_centroid="381.789210595,1975.68998113"></polygon></g><g transform="translate(34.951394699999994 -1677.0253066) rotate(0)"><polygon id="252081018" class="tile" points="80.8287877409,1775.3907364 94.6087250745,1786.98484373 94.5908780357,1725.56761716 93.0891086539,1724.35895576 87.9950892849,1730.2656583 82.1128987579,1737.53549215 80.6402602201,1739.27545628 82.5925392138,1740.92786063 83.738478055,1739.57406063 87.221070653,1742.52717598 72.493819187,1759.9158278 67.0589500709,1755.31031087 63.0207786506,1760.07309614 75.5962839356,1770.85122041 85.1858972935,1759.83154556 90.413423376,1764.37551505 80.8287877409,1775.3907364 " mydata_rot="-41.8" mydata_centroid="85.6722286785,1756.74794436"></polygon></g><g transform="translate(-519.4210012 -1083.7977873) rotate(0)"><polygon id="239436982" class="tile" points="585.560489352,1234.581667 585.566241578,1254.28121926 562.168693154,1246.22369158 562.216517395,1201.0 568.343773393,1202.37720087 568.475518787,1235.17933048 585.560489352,1234.581667 " mydata_rot="76.0" mydata_centroid="571.415083338,1233.8573914069525"></polygon></g><g transform="translate(-373.1250867 -1611.5534533999999) rotate(0)"><polygon id="437714023" class="tile" points="495.219874312,1735.63012875 493.386896253,1728.94938404 511.106618445,1724.35895576 509.699990157,1741.87183619 511.04183504,1769.6081858 500.471092792,1771.37890265 496.268370851,1749.01993372 495.219874312,1735.63012875 " mydata_rot="-17.0" mydata_centroid="503.545126081,1746.94922391"></polygon></g><g transform="translate(-26.9713834 -1580.6092176) rotate(0)"><polygon id="299666254" class="tile" points="43.3598504916,1724.35895576 42.7468414588,1726.00529928 39.5133489368,1734.42159974 33.348991058,1749.49429007 29.4244771378,1759.6138583 32.5181310108,1760.87434708 30.2251089085,1766.48613636 46.327977627,1772.73331852 50.6800350187,1778.4197585 51.4738885634,1776.51810304 51.3594630295,1774.1687761 51.0091937974,1771.58830512 49.7396385627,1769.38063418 47.5020293988,1766.91484107 44.4181839792,1763.42952933 42.00450742,1760.54304258 40.8268039575,1757.03465153 41.582233171,1753.19762968 44.4871709986,1746.02154252 47.6814096369,1737.54511539 51.4288871948,1727.61189307 46.9642811606,1725.83506354 43.3598504916,1724.35895576 " mydata_rot="78.4" mydata_centroid="40.8234215883,1751.39404062"></polygon></g></g></svg>