<svg><g transform="translate(0 0)"><polygon id="3" class="bin" points="1.875,0.0 -0.77665042945,1.09834957055 -1.875,3.75 -1.875,1203.749999 -0.77665042945,1206.40164943 1.875,1207.499999 246.199430783,1207.499999 248.763022993,1206.48687587 249.94142343,1203.99492966 250.837668973,1190.30230221 251.154580113,1185.407726 251.136682711,1184.72686945 250.086147399,1175.80572366 249.137931711,1167.76824037 249.096656727,1166.67471985 249.331229906,1161.08988603 249.772657001,1150.37135603 249.807087332,1149.91138987 250.369527426,1144.73687687 251.973832711,1129.92026267 253.507563527,1115.78187873 254.004039403,1111.22325968 254.015698228,1111.09614169 254.749935622,1101.25084319 255.81292009,1086.97980581 256.475542557,1078.19420436 256.699094311,1076.89979153 257.956738413,1072.2975851 261.298941533,1060.1121625 261.428511633,1059.29327266 261.466846962,1058.46329484 262.026972167,1046.29826596 262.460450454,1036.99037989 262.334465407,1035.83693495 261.088935669,1031.23142306 258.567244228,1021.89655676 258.357557527,1019.49153525 258.893345504,1013.54811772 260.117345332,999.912032013 261.130235182,988.704819772 261.136918761,988.620194292 261.403252805,984.680262923 262.361065586,970.344539182 263.147746279,958.556528516 263.164663429,958.349954429 263.831677789,951.479859732 265.813220943,947.667039924 269.883193312,946.288840708 297.915128706,947.860122169 300.701380804,946.840840206 301.874999,944.115999514 301.874999,932.993551523 301.236387515,930.90028577 299.333063916,928.07122349 296.479498232,926.423362756 293.426856065,927.664192284 285.465220727,936.563668131 280.705584037,938.422961461 276.388987853,935.688348054 269.827162036,924.680416567 269.643171529,924.400917117 251.061445755,898.744017754 249.776387129,894.353165167 250.09923758,888.732535941 249.496347061,886.468829853 238.643594857,869.829742037 236.364567294,868.22879754 233.055728451,867.447363711 229.086371208,864.789109048 210.897547482,839.446693813 210.781187353,839.279389621 207.420302855,834.290928284 206.80081743,833.152741291 204.786086179,828.440030801 204.318512745,826.81939866 203.273766996,820.252718733 203.196841353,818.833580463 203.608393495,810.521124255 203.651541296,810.020704759 204.988471959,799.166211156 205.61430015,797.032373536 209.867769228,788.182405355 211.060642309,786.446487566 223.513262763,773.242072748 224.920294007,772.098898502 227.160434611,770.725738445 227.344176024,770.605570578 264.703075689,744.580109439 264.944577495,744.396942027 290.019553064,723.730588713 290.670368498,723.038176175 301.160842419,708.571264238 301.874999,706.369865878 301.874999,585.353817148 300.027304888,582.122140755 287.852610382,574.955583765 287.263718562,574.566913574 258.363630345,553.285681173 257.760580931,552.786223537 232.450276275,529.268444577 231.822354623,528.601690422 202.222123298,492.644579858 201.79575154,492.067753732 187.749636114,470.830095081 187.181852861,469.785022203 168.754738093,427.507082168 168.449665175,426.65934966 160.199739093,397.953123845 159.976431151,396.831666867 154.507898984,348.753066882 154.472030759,348.311279457 153.172371786,321.682361742 153.009028101,318.281056958 153.001438562,317.884564903 153.217609742,295.616633474 153.410098143,275.662343362 155.140300501,271.608249678 159.233796186,269.97345034 238.492074178,271.065022611 241.164680035,269.997363529 242.293555439,267.350033118 242.817509143,210.655546051 242.064763649,208.367022173 225.057437512,185.751438807 223.686995981,181.686369082 223.440629191,137.128647549 225.051593276,132.690550968 238.108218671,117.249474865 238.990704139,115.001360291 241.696574233,56.4806599319 240.645892888,53.7001999217 237.901855312,52.5577696428 217.19413921,52.8268332717 213.024798447,51.1070811186 211.388975712,46.9041019551 212.811265969,3.87388217748 211.758406287,1.142516363 209.063312767,0.0 1.875,0.0 " mydata_rot="0" mydata_centroid="120.5578657187322,630.7272415160836" transform="translate(1.875 0)"></polygon><g transform="translate(155.8248558999999 -2041.2729049000004) rotate(0)"><polygon id="25165529" class="tile" points="-95.2021080075,2378.95638278 -98.6655888056,2309.29379715 -96.5700346878,2239.9453104 -95.9765349275,2228.47208027 -91.461090949,2196.46275193 -92.2994323125,2165.27830478 -96.0110393012,2135.42548751 -105.28093331,2078.92279533 -104.948085987,2074.4726939 -102.614986738,2071.82065636 -107.177705454,2057.98535658 -110.805568028,2046.94379104 -112.094390553,2044.659894 -114.977662095,2043.67951524 -121.132895811,2045.41040042 -124.850114709,2048.35191587 -122.479824187,2058.74650171 -113.94937235,2088.26979813 -110.490431141,2104.11943802 -108.730303956,2119.37567435 -108.151464141,2131.76597407 -108.858469613,2144.00883327 -113.556092927,2169.3959966 -120.672343831,2191.77038179 -143.267004088,2256.15116096 -153.342617159,2340.21720739 -148.430832976,2455.52852175 -91.6075163445,2456.02576928 -95.2021080075,2378.95638278 " mydata_rot="-47.2" mydata_centroid="-119.066928023,2305.32707623"></polygon></g><g transform="translate(486.37601720000004 -1609.2969748) rotate(0)"><polygon id="284422853" class="tile" points="-359.271615612,1889.01370588 -359.801870568,1884.51857269 -358.338260424,1882.67820884 -356.604029317,1882.49922593 -355.087571728,1882.06705741 -361.024684695,1816.98444771 -350.749749706,1816.44563675 -351.049700513,1812.043141 -349.273033658,1810.39162631 -348.916763351,1809.25704477 -348.993879424,1808.08997396 -349.635241951,1806.99416129 -351.280591634,1806.14521327 -351.838971067,1803.94725297 -352.263769833,1796.89461094 -350.274985077,1795.39542638 -350.59367038,1792.9912966 -353.457642549,1791.33161762 -353.919211459,1782.56622136 -351.73433925,1780.58121469 -351.755797424,1778.64384989 -354.430378731,1777.44677962 -355.217495517,1768.65304844 -353.437768336,1766.91080137 -353.40356831,1764.20314233 -355.897381064,1762.74486648 -356.717086817,1753.67081596 -355.398073519,1752.22793526 -358.376022878,1748.40212012 -363.178827698,1748.31319022 -364.221035394,1740.66392265 -362.915034359,1739.43486445 -364.617703172,1735.5429059 -370.956065085,1735.3387322 -375.759659868,1690.03752153 -371.233990459,1664.52507248 -375.813397802,1663.61847988 -376.985020776,1662.25634251 -381.3553642,1661.59280695 -382.435469443,1660.56602229 -390.885153091,1658.25741828 -423.747923579,1661.19508765 -418.936763265,1712.26915608 -411.850446382,1794.7145408 -407.354097681,1861.32713353 -409.167440609,1864.78100619 -423.451179281,1866.73282048 -423.988559004,1869.81161229 -423.352251987,1895.18334498 -421.69792768,1895.07309276 -397.767466393,1879.73160349 -396.314819524,1880.23532163 -389.699569031,1891.29313346 -368.099836921,1888.581257 -366.158820292,1889.82783191 -359.271615612,1889.01370588 " mydata_rot="-49.3" mydata_centroid="-388.513379764,1779.18401928"></polygon></g><g transform="translate(270.4134214 -1475.5726735) rotate(0)"><polygon id="182103073" class="tile" points="-222.308807277,2043.5745373 -222.336787643,1982.01304064 -267.883149949,1981.91048336 -267.913432749,1895.18334498 -175.288802962,1895.39689697 -175.233506361,2043.67951524 -222.308807277,2043.5745373 " mydata_rot="-69.1" mydata_centroid="-215.540429725,1958.32348128"></polygon></g><g transform="translate(313.8567388 -1055.7815345) rotate(0)"><polygon id="278749394" class="tile" points="-176.117198572,1348.11966376 -180.401140607,1347.50892271 -194.774092227,1345.45633755 -208.353487856,1343.52071458 -212.853750189,1342.88148551 -215.708978061,1342.63550258 -216.719464604,1342.6755226 -217.57564538,1342.96394191 -218.472035849,1343.47053985 -219.066025503,1343.96116005 -219.423029669,1344.44100277 -219.736544409,1345.53008725 -220.010989635,1346.36346176 -220.167797258,1347.16329904 -220.342459393,1348.30046497 -220.452826268,1349.29278126 -220.51262087,1349.89410962 -226.975402087,1349.71723873 -226.832519589,1384.84189842 -227.296917052,1385.79517042 -227.680306057,1386.22873604 -228.126789881,1386.53832873 -228.720148048,1386.7413574 -229.488497119,1386.83736986 -244.685770503,1386.53251214 -244.945740874,1386.71172598 -245.094975368,1386.93856956 -245.195448412,1387.2287184 -245.297751759,1399.89382056 -245.062331348,1461.6950774 -237.769279468,1461.96453281 -235.402379242,1462.27353032 -223.972401986,1463.76199348 -220.292086331,1464.23800016 -213.348621478,1465.23123477 -209.683385327,1466.54685618 -198.239562227,1470.64889403 -194.817681035,1472.27945476 -184.422367067,1477.22532308 -180.965053987,1479.61086633 -178.764786563,1481.11549041 -178.00694136,1478.92696404 -177.785196219,1477.59259452 -177.697722118,1476.25814876 -173.460129641,1476.16584764 -173.213874883,1463.71781038 -173.158943879,1352.57917342 -176.716006751,1352.66577363 -176.942079606,1352.62462532 -177.236418297,1352.49484908 -177.463041084,1352.33281692 -177.583509017,1352.17040774 -177.622477719,1351.91552676 -177.643268774,1349.68942453 -177.573110961,1348.91528506 -177.368782638,1348.65181195 -177.044556498,1348.53198244 -176.59695137,1348.36203557 -176.117198572,1348.11966376 " mydata_rot="-19.1" mydata_centroid="-205.792320228,1411.23183811"></polygon></g><g transform="translate(160.1787274 -1229.3639157999999) rotate(0)"><polygon id="286087281" class="tile" points="-49.7059962742,1673.57000253 -51.3200989058,1727.27549614 -60.0248748221,1727.57743387 -59.9900076024,1807.60770033 -59.2998467557,1810.04412412 -1.57808994949,1811.54077501 0.0,1734.49391815 -10.2446175696,1735.01500749 -9.87331743836,1731.48876771 -9.14637813382,1730.73496853 -7.69423562419,1723.21099153 -8.4498033341,1722.09496452 -7.99050986432,1721.4462811 -2.91451185364,1721.25115309 -3.13944493532,1705.14969968 -0.852111006528,1704.52684015 -0.988937654346,1698.70124775 -6.11981058754,1698.2764669 -7.37853299975,1697.18882872 -8.45199456252,1695.83953644 -8.01746421307,1690.02566127 -3.02243768033,1690.3542575 -2.5907722665,1668.68618458 -6.05445159674,1668.37793862 -6.76377563439,1663.49733515 -12.6873593314,1663.10052292 -12.9839947918,1659.28958753 -33.4704626128,1659.73630259 -33.4324011706,1658.25741828 -42.8175258279,1658.51957159 -43.3206506923,1669.34251497 -38.7117034173,1669.39775186 -39.3060101381,1673.93638855 -49.7059962742,1673.57000253 " mydata_rot="54.7" mydata_centroid="-29.14514386026033,1740.96796719"></polygon></g><g transform="translate(549.0619798 -1198.5001819) rotate(0)"><polygon id="240742969" class="tile" points="-377.635210418,1201.0 -425.826115679,1201.58129806 -425.785155837,1205.08819395 -428.997571462,1205.12276392 -428.933644009,1211.62459983 -428.935432298,1282.87971792 -402.842775789,1282.85829121 -402.84139897,1289.63493342 -396.758061247,1289.63151507 -396.764710106,1319.09917103 -349.968034868,1319.05962613 -349.891990756,1285.67049624 -349.849613425,1267.30321134 -349.946454161,1225.24521082 -348.274355675,1225.24084011 -344.714837855,1225.22844814 -344.735205067,1214.28536995 -362.009554778,1214.32701015 -364.683904637,1214.78269825 -377.635210418,1201.0 " mydata_rot="8.0" mydata_centroid="-386.671321182,1255.9931008078513"></polygon></g><g transform="translate(507.257723 -831.2540021) rotate(0)"><polygon id="422876850" class="tile" points="-470.886737684,1343.11302171 -484.772821578,1342.63550258 -485.173175791,1414.09854214 -503.725477491,1431.25221579 -504.757935619,1510.59736612 -443.410098304,1511.62858605 -443.534289778,1412.44735748 -470.770645963,1412.50590401 -470.886737684,1343.11302171 " mydata_rot="51.2" mydata_centroid="-473.708174871,1450.96803257"></polygon></g><g transform="translate(465.3845187 -1005.0641528) rotate(0)"><polygon id="5839052" class="tile" points="-255.494861701,1658.25741828 -255.136650902,1603.19721637 -255.24368395,1584.82489075 -255.666215807,1512.85258381 -300.234509213,1511.62858605 -300.402892052,1540.94270784 -300.746903091,1600.27410202 -300.69828225,1658.1230842 -293.50214102,1658.14519207 -255.494861701,1658.25741828 " mydata_rot="-61.5" mydata_centroid="-278.004027505,1585.42721888"></polygon></g><g transform="translate(455.3176378 -1322.1319102) rotate(0)"><polygon id="223633970" class="tile" points="-298.040442749,1946.5366733 -352.172828817,2034.02268654 -354.480962345,2032.52233756 -386.543891805,2012.65007744 -380.865063386,1988.93293295 -362.921054867,1923.42366877 -386.588143125,1908.66360235 -379.501638349,1895.18334498 -298.040442749,1946.5366733 " mydata_rot="8.2" mydata_centroid="-348.736562716,1966.94326679"></polygon></g><g transform="translate(669.5455133 -1499.6579762000001) rotate(0)"><polygon id="447745657" class="tile" points="-454.799195351,1668.45381264 -490.922161791,1663.46047739 -528.598355445,1658.25741828 -529.559081103,1681.76831895 -525.135398117,1684.1602058 -526.001091848,1711.53714803 -536.019776249,1711.92348299 -534.882417856,1744.80823663 -465.973580575,1742.15732528 -457.400438756,1737.88669449 -454.8040675,1729.80842716 -454.799195351,1668.45381264 " mydata_rot="-32.5" mydata_centroid="-493.976162671,1703.9387815"></polygon></g><g transform="translate(223.8760492 -1385.543405) rotate(0)"><polygon id="157893342" class="tile" points="0.0,2097.35660455 -33.2307078972,2097.41999812 -33.199366048,2043.67951524 -81.9267526181,2043.77741832 -82.0154134948,2173.68774845 -76.981962931,2173.68041941 -76.9325138943,2090.76723872 -43.2899272945,2090.69447768 -43.3258120414,2142.05910114 -0.0220035083592,2141.97856289 0.0,2097.35660455 " mydata_rot="21.2" mydata_centroid="-44.49695544530194,2094.91531688"></polygon></g><g transform="translate(114.3998468 -826.424419) rotate(0)"><polygon id="203884889" class="tile" points="-111.900023375,1598.71749199 -111.566788062,1570.7620165 -90.431411824,1571.04516024 -91.3886254188,1511.69241812 -60.7068022579,1511.62858605 -60.7226323057,1622.14879654 -89.1581971979,1621.93847401 -88.9235514373,1619.22059319 -90.3419145329,1619.13346998 -90.4232203197,1598.38789493 -111.900023375,1598.71749199 " mydata_rot="47.1" mydata_centroid="-79.5263447241,1569.23290864"></polygon></g><g transform="translate(117.39529230000001 -794.7718616999999) rotate(0)"><polygon id="309750072" class="tile" points="-0.0407942544669,1511.62858605 0.0,1575.53762585 -58.6639132261,1575.68404634 -58.7068022579,1511.76634778 -0.0407942544669,1511.62858605 " mydata_rot="13.6" mydata_centroid="-29.353540256901308,1543.65396344"></polygon></g><g transform="translate(526.8798452 -741.2183902999999) rotate(0)"><polygon id="284620765" class="tile" points="-329.196472684,1511.62858605 -384.219139031,1536.75346561 -355.616313812,1603.88119846 -353.958390852,1603.92117784 -348.208425141,1610.86832511 -329.183065793,1603.25434514 -329.196472684,1511.62858605 " mydata_rot="-73.8" mydata_centroid="-349.689409904,1559.81317165"></polygon></g><g transform="translate(673.8819590999999 -872.4630483999999) rotate(0)"><polygon id="59392903" class="tile" points="-537.019776249,1658.25816353 -537.090963988,1766.33229351 -568.033296194,1766.33159214 -567.962111832,1658.25741828 -537.019776249,1658.25816353 " mydata_rot="4.4" mydata_centroid="-552.526538112,1712.29486587"></polygon></g><g transform="translate(561.3632513 -1109.5202697) rotate(0)"><polygon id="404110991" class="tile" points="-466.78184939,1895.18334498 -460.646455555,1900.04430904 -460.47520089,2034.29534019 -496.297929609,2027.71338565 -466.78184939,1895.18334498 " mydata_rot="21.1" mydata_centroid="-472.822038686,1979.65622853"></polygon></g><g transform="translate(108.89297479999999 -857.5948384) rotate(0)"><polygon id="280170299" class="tile" points="-62.0248748221,1679.59877955 -62.2748553667,1676.11411207 -62.9544826657,1666.49976787 -63.5637625333,1658.25741828 -106.392972198,1658.4350051 -106.377567397,1731.86588779 -90.5238582011,1731.37599307 -89.6563750379,1743.42815065 -74.8114289477,1742.40326755 -74.7485425893,1700.05429993 -62.7120882876,1700.17270078 -62.0248748221,1679.59877955 " mydata_rot="-55.9" mydata_centroid="-86.389706372,1694.77970754"></polygon></g><g transform="translate(344.05469589999996 -800.205595) rotate(0)"><polygon id="275608451" class="tile" points="-157.170335818,1748.55696459 -149.773928381,1736.71236413 -137.338285356,1743.32112808 -136.914286822,1701.80641701 -137.63717321,1700.13155029 -139.062793223,1699.22569111 -162.175326156,1699.80293003 -172.9203972,1693.17452998 -163.301612768,1674.22885073 -139.623768209,1673.8986959 -139.403846914,1658.34687458 -124.584902605,1658.25741828 -124.635595569,1711.97487131 -124.678704546,1764.89598577 -157.170335818,1748.55696459 " mydata_rot="-82.3" mydata_centroid="-139.758362585,1705.6971198"></polygon></g><g transform="translate(273.6555174 -1562.6577152999998) rotate(0)"><polygon id="263592312" class="tile" points="-237.17406054,1658.42033575 -236.917330416,1691.71166669 -260.78066699,1747.40712533 -271.119056039,1747.74744096 -271.155519455,1658.25741828 -237.17406054,1658.42033575 " mydata_rot="6.8" mydata_centroid="-256.630208689,1695.70770823"></polygon></g><g transform="translate(770.1753666 -942.5541157) rotate(0)"><polygon id="271129833" class="tile" points="-537.752375355,1646.35565486 -537.725439087,1568.53390492 -537.705117956,1511.62858605 -548.77575674,1513.10440305 -550.070524575,1519.72273374 -555.092677673,1563.90389555 -555.350410884,1566.16879446 -554.510148045,1621.79667314 -552.587631004,1649.43038701 -537.752375355,1646.35565486 " mydata_rot="-43.2" mydata_centroid="-545.779701487,1582.51684489"></polygon></g><g transform="translate(83.8567632 -1005.8174142999999) rotate(0)"><polygon id="443296705" class="tile" points="-54.8366681557,1897.49023102 -81.3567685079,1895.18334498 -81.2144992322,1995.99618076 -62.3445168044,1995.17817339 -54.8366681557,1897.49023102 " mydata_rot="-34.7" mydata_centroid="-69.8879200178,1943.13340168"></polygon></g><g transform="translate(690.865551 -302.1454374) rotate(0)"><polygon id="418643979" class="tile" points="-584.974633345,1202.12342714 -580.801187086,1201.61814967 -574.535702707,1201.39875479 -565.590630384,1201.09844172 -560.067146998,1201.35892258 -556.760340557,1201.0 -554.965514282,1202.00739161 -552.881718342,1205.81671971 -552.290711759,1210.58538489 -551.585344819,1223.90490825 -552.408615273,1232.61883326 -552.621068869,1243.63500507 -552.040500992,1248.8110601 -553.066902365,1253.08888153 -556.062437109,1260.05546342 -557.73966879,1263.06557287 -559.521942654,1266.07072866 -560.083753522,1269.24042549 -561.454610137,1272.26498323 -563.962809518,1273.17643478 -568.309250783,1274.00119704 -577.923659721,1273.24020977 -584.982938172,1273.54921552 -584.974633345,1202.12342714 " mydata_rot="-92.7" mydata_centroid="-569.290086102,1236.105606812239"></polygon></g><g transform="translate(566.0267042 -275.9883135000001) rotate(0)"><polygon id="413378703" class="tile" points="-534.73167786,1237.43544825 -521.05875745,1255.65169267 -491.230232523,1255.7594942 -491.18527413,1201.0 -534.689820664,1202.67244976 -534.73167786,1237.43544825 " mydata_rot="62.8" mydata_centroid="-511.869219153,1227.5919918062475"></polygon></g><g transform="translate(289.54835660000003 -442.7877225) rotate(0)"><polygon id="364973779" class="tile" points="-106.879178571,1347.57954585 -109.372340954,1352.44571768 -112.451332792,1352.06564966 -115.764538404,1351.19008399 -118.218640588,1351.2396232 -118.853124072,1351.89451438 -118.076232871,1352.23586293 -114.875509744,1352.31344459 -113.672952386,1360.83959708 -116.659392164,1361.69264731 -116.809974294,1363.20633072 -113.178714101,1362.34775323 -107.455380224,1396.99185867 -106.890205677,1401.27974859 -108.899987838,1401.03201965 -110.209214266,1401.49418051 -111.079603788,1402.42466908 -111.210928955,1403.81165389 -110.761341179,1406.98761599 -124.514568562,1411.54480089 -126.293383973,1407.22383669 -126.697430667,1408.36871682 -127.06121128,1410.36121392 -126.977905954,1412.69480112 -135.693364975,1414.66491483 -146.2506229,1350.94109436 -140.077251859,1349.52674091 -139.181873214,1344.996868 -134.637599431,1342.63550258 -127.334418786,1343.48385763 -106.879178571,1347.57954585 " mydata_rot="-55.5" mydata_centroid="-126.331314186,1376.97573703"></polygon></g><g transform="translate(228.8938136 -384.85619600000007) rotate(0)"><polygon id="300089557" class="tile" points="-42.0935065959,1427.22009421 -26.7305609796,1448.07022887 -17.7331643876,1425.13459289 -15.0656119987,1418.96931125 -32.0522112582,1412.07536369 -13.7344012819,1368.61783656 -19.6503744181,1350.02298127 -29.5891784579,1346.59195648 -31.4251312736,1346.37922967 -33.1988579009,1345.37099579 -37.584492258,1342.63550258 -41.6218374841,1347.49306763 -46.799338197,1352.00318807 -33.0580525614,1372.14392063 -31.8761866748,1374.55563005 -32.3084457073,1376.08341748 -32.9744063824,1377.51744179 -46.7421301644,1402.30537793 -34.4006462246,1420.96042262 -37.1003379192,1423.15664767 -42.0935065959,1427.22009421 " mydata_rot="22.4" mydata_centroid="-29.998641889,1390.51818418"></polygon></g><g transform="translate(510.6093877 -561.1192778) rotate(0)"><polygon id="266174997" class="tile" points="-418.073571866,1601.55727313 -444.130905376,1600.87506613 -443.673820835,1560.96670715 -443.592952756,1551.46747291 -443.543528985,1545.98171717 -442.027073642,1546.00088577 -442.032632281,1546.74574499 -434.02309567,1546.8195888 -434.011703134,1545.35615453 -430.851986942,1545.38440141 -430.557574973,1511.62858605 -418.533802354,1511.68667955 -418.084420202,1566.07880178 -418.073571866,1601.55727313 " mydata_rot="0.6" mydata_centroid="-429.448990985,1563.50442051"></polygon></g><g transform="translate(533.8850553 -904.4601702) rotate(0)"><polygon id="63406803" class="tile" points="-501.193145339,1895.43199889 -508.703265437,1896.19839626 -510.406424575,1899.2903982 -515.272957005,1899.39686758 -517.343891692,1918.00078957 -529.948422588,1916.80587452 -531.419789111,1925.53908319 -530.33730537,1945.33681227 -526.24541676,1967.32067543 -511.289233707,1966.27794654 -501.353495676,1964.5534094 -502.372468193,1959.0571893 -497.297929609,1957.44614749 -500.940073026,1941.39063298 -500.492992154,1927.16525168 -497.33176758,1895.18334498 -501.193145339,1895.43199889 " mydata_rot="37.2" mydata_centroid="-513.466845968,1934.38425049"></polygon></g><g transform="translate(305.3607114 -226.3685155999999) rotate(0)"><polygon id="261915257" class="tile" points="-174.010479031,1201.01304508 -169.744447266,1201.00858745 -155.550276624,1201.0 -155.553808862,1293.82030535 -160.120172994,1294.19328989 -175.990018661,1269.52988567 -173.793775265,1268.30516949 -173.626106134,1264.37463748 -174.010479031,1201.01304508 " mydata_rot="-66.8" mydata_centroid="-164.2915098,1243.8659548004325"></polygon></g><g transform="translate(682.9940528 -977.2924484) rotate(0)"><polygon id="437711628" class="tile" points="-447.817014557,1898.49425084 -450.973554781,1895.18334498 -458.681255052,1897.83487661 -458.149109631,1899.64581875 -459.47520089,2019.40971552 -447.656363638,2020.34669061 -447.817014557,1898.49425084 " mydata_rot="-5.0" mydata_centroid="-453.266756288,1959.60379749"></polygon></g><g transform="translate(579.8549184999999 -1314.1390033) rotate(0)"><polygon id="377970580" class="tile" points="-577.301881585,1342.63550258 -552.281493466,1342.67562296 -551.077688385,1385.47807456 -555.490963023,1386.29831111 -554.905864281,1403.72261045 -577.354948358,1404.74184666 -577.301881585,1342.63550258 " mydata_rot="82.5" mydata_centroid="-565.001720173,1372.66994575"></polygon></g><g transform="translate(527.6713355 -166.40750819999994) rotate(0)"><polygon id="220775541" class="tile" points="-490.18527413,1249.24521747 -490.181654375,1225.97413398 -478.231818211,1226.02735837 -478.218456065,1201.0 -468.832320712,1201.0469095 -468.840268002,1211.42723373 -447.708629501,1211.51742704 -447.71613663,1217.5670167 -462.843165332,1217.50442754 -462.84326902,1224.97943536 -447.542553603,1225.04300477 -447.546081167,1249.42075432 -490.18527413,1249.24521747 " mydata_rot="-49.5" mydata_centroid="-468.411066987,1230.9071664330836"></polygon></g><g transform="translate(124.5957367 -883.5849831999999) rotate(0)"><polygon id="181959269" class="tile" points="-26.8947224719,1964.67960027 -8.65243805051,1938.38060845 -27.8291129166,1925.95110438 -1.46284785513,1895.18334498 -0.0146825898439,1895.79589571 0.0,1983.94055494 -26.8947224719,1964.67960027 " mydata_rot="5.0" mydata_centroid="-9.474508586769174,1940.94079141"></polygon></g><g transform="translate(451.8439284 -879.0636467999999) rotate(0)"><polygon id="279672692" class="tile" points="-268.978639051,1965.24078565 -268.913432749,1962.7855397 -269.008617262,1953.35826464 -269.70908742,1921.86640802 -276.008713884,1916.6704173 -276.443206922,1895.18334498 -283.905560534,1899.10829255 -284.513249474,1917.84287685 -297.031961152,1918.3454663 -297.040442749,1965.50742154 -268.978639051,1965.24078565 " mydata_rot="-64.3" mydata_centroid="-282.879892289,1938.10607564"></polygon></g><g transform="translate(657.8947953 -1599.0512225) rotate(0)"><polygon id="240197648" class="tile" points="-425.907177989,1658.81100916 -453.74968332,1658.25741828 -453.799195351,1712.36087256 -437.072106444,1711.93872261 -424.988559004,1711.63303264 -425.774616255,1677.25597569 -425.677854806,1667.90172155 -425.907177989,1658.81100916 " mydata_rot="-13.8" mydata_centroid="-439.698869819,1685.41170673"></polygon></g><g transform="translate(679.134993 -443.5150813) rotate(0)"><polygon id="314693440" class="tile" points="-491.248421733,1511.62858605 -461.293646342,1511.73174348 -461.325349231,1540.81031085 -451.410622255,1540.84520533 -451.432807675,1556.59471848 -491.302240731,1556.45664537 -491.248421733,1511.62858605 " mydata_rot="-73.0" mydata_centroid="-474.222269667,1535.61618098"></polygon></g><g transform="translate(154.0891607 -444.5166282) rotate(0)"><polygon id="220738613" class="tile" points="-113.705253594,1553.35044634 -112.900023375,1540.77133661 -115.516270136,1542.79705294 -117.759309262,1543.05813363 -120.948498836,1542.36502845 -122.111596235,1540.29616355 -122.402841075,1537.93435667 -121.082518401,1535.76535666 -120.048610464,1534.70789679 -121.343246797,1528.56440711 -124.469328739,1521.65329251 -128.641249577,1517.27653869 -136.118936173,1512.12203232 -137.793855672,1511.62858605 -143.035056976,1514.10507911 -144.416128236,1523.44038653 -144.220434859,1537.27612938 -144.41817572,1550.77840411 -143.128559019,1565.33241628 -141.011014735,1571.93047156 -136.923000705,1580.85045528 -135.575661153,1582.77128044 -130.51733421,1580.44936475 -126.58549383,1577.72320578 -122.7549862,1573.02524862 -120.05347143,1566.4628414 -119.369449793,1561.27438179 -121.406748118,1558.55015863 -121.913002082,1554.65688665 -119.71223277,1552.19313361 -116.536079265,1551.8446287 -114.799179249,1552.63217751 -113.705253594,1553.35044634 " mydata_rot="-78.1" mydata_centroid="-132.025765116,1546.68287635"></polygon></g><g transform="translate(234.7982054 -423.69839909999996) rotate(0)"><polygon id="241824864" class="tile" points="-156.937864332,1511.9886804 -174.797277772,1511.62858605 -181.756149204,1514.38768568 -188.689185718,1521.28528152 -188.70104827,1560.30755681 -156.969195404,1561.12025312 -156.937864332,1511.9886804 " mydata_rot="-26.3" mydata_centroid="-172.383593875,1536.97780266"></polygon></g><g transform="translate(393.3870656 -882.5866072) rotate(0)"><polygon id="377007924" class="tile" points="-145.41817572,1511.82988048 -155.937864332,1511.62858605 -155.873226812,1630.00104384 -146.029306534,1630.23693683 -145.41817572,1511.82988048 " mydata_rot="7.4" mydata_centroid="-150.812780393,1570.26943325"></polygon></g><g transform="translate(608.9420963 -381.8417218000001) rotate(0)"><polygon id="377007926" class="tile" points="-357.907773478,1342.70842724 -357.729697455,1456.00409456 -368.66754224,1455.95240031 -368.437231118,1342.63550258 -357.907773478,1342.70842724 " mydata_rot="7.9" mydata_centroid="-363.185830194,1399.68435076"></polygon></g><g transform="translate(455.82459070000004 -109.97104839999997) rotate(0)"><polygon id="323407714" class="tile" points="-295.181450686,1201.51079854 -295.601664055,1247.7977097 -326.200203263,1247.49513734 -326.230401481,1201.0 -295.181450686,1201.51079854 " mydata_rot="-29.9" mydata_centroid="-310.814391665,1224.3941663010037"></polygon></g><g transform="translate(265.9432276 -1648.7397515) rotate(0)"><polygon id="235083986" class="tile" points="-207.855043595,1658.25741828 -207.861417933,1693.00289028 -173.931863762,1693.14011775 -173.9203972,1658.38737329 -207.855043595,1658.25741828 " mydata_rot="-35.0" mydata_centroid="-190.891587091,1675.69651783"></polygon></g><g transform="translate(387.0273828 -807.1701376000001) rotate(0)"><polygon id="294357882" class="tile" points="-320.310584976,1658.25741828 -320.325861956,1695.048515 -322.384519958,1701.840609 -326.063837702,1706.69749697 -331.077879183,1708.67042432 -336.067957023,1708.63908205 -339.335441055,1707.97870754 -342.239504434,1706.79886162 -344.098366199,1704.7497818 -345.543936536,1701.50199754 -347.864977509,1671.4664669 -347.916763351,1668.02181025 -346.740689903,1665.90742263 -345.164836269,1663.99673319 -342.918131261,1663.32740444 -320.310584976,1658.25741828 " mydata_rot="63.0" mydata_centroid="-333.409862465,1683.52376439"></polygon></g><g transform="translate(257.0691647 -800.6477041999999) rotate(0)"><polygon id="238397012" class="tile" points="-151.215513571,1932.59996133 -145.817965918,1932.63078408 -145.810495255,1899.43378859 -146.204736388,1897.89376037 -147.182688981,1896.5688801 -148.590397124,1895.57666389 -150.266763736,1895.18334498 -164.683629856,1895.1897238 -166.166108353,1895.2362686 -167.693281348,1895.78137337 -168.677993297,1896.78017085 -169.409879681,1898.0496821 -169.764737673,1900.00782323 -170.343113381,1901.73057649 -171.771587251,1902.55677384 -173.870635594,1902.69279444 -174.233506361,1927.25496058 -171.004443315,1927.22401035 -170.160893623,1927.52421407 -169.773027785,1928.33999688 -169.846500862,1939.44419575 -163.806683148,1939.37848747 -163.817349896,1936.36327995 -163.467441615,1935.36993112 -162.487279238,1935.03217217 -159.434344283,1934.99709335 -155.383481489,1935.05999428 -151.277554168,1935.10320033 -151.215513571,1932.59996133 " mydata_rot="56.6" mydata_centroid="-159.554647108,1915.59085601"></polygon></g><g transform="translate(433.1935157 -624.105856) rotate(0)"><polygon id="294357877" class="tile" points="-261.710088024,1343.00924972 -280.184285147,1342.63550258 -281.286334842,1389.19242534 -279.270632291,1398.26659943 -277.908137992,1403.6161575 -261.650748644,1401.05711306 -263.206982432,1389.79643221 -266.779564932,1390.18988301 -261.710088024,1343.00924972 " mydata_rot="-48.8" mydata_centroid="-272.192443284,1372.08753596"></polygon></g><g transform="translate(581.1659819 -638.4900767999999) rotate(0)"><polygon id="388538404" class="tile" points="-330.95228548,1201.0 -343.661631369,1201.44933388 -343.714837855,1262.00456589 -327.61693171,1263.10663432 -327.230401481,1234.99844329 -330.95228548,1201.0 " mydata_rot="-1.7" mydata_centroid="-335.936460905,1233.076399116396"></polygon></g><g transform="translate(447.2542713 -117.08845769999994) rotate(0)"><polygon id="301843500" class="tile" points="-213.761990813,1201.0 -208.710270759,1201.10579827 -203.137222773,1201.23248102 -203.604775251,1251.0469653 -203.158809383,1262.67438349 -217.885146917,1263.16952346 -219.274663274,1252.47084014 -214.386490955,1251.8359774 -215.410852483,1248.0975248 -217.674835928,1245.96412804 -220.527486316,1244.17296269 -224.378578861,1243.76948731 -227.714883129,1244.47743479 -230.384389011,1246.17075115 -230.266882407,1240.64502573 -230.139055079,1234.88761342 -224.836741902,1237.44145866 -222.151448289,1237.2698854 -219.165060135,1236.61624306 -216.075539508,1234.68232962 -214.193853248,1229.67164814 -213.968206569,1214.55496078 -213.761990813,1201.0 " mydata_rot="7.4" mydata_centroid="-211.369598119,1234.9720757545256"></polygon></g><g transform="translate(468.9973383 -544.7640127) rotate(0)"><polygon id="285975389" class="tile" points="-290.9978879,1700.16863787 -303.537380075,1700.06464684 -303.559739462,1658.95595179 -295.931470834,1658.25741828 -289.675616839,1658.9108406 -284.870583551,1660.98936123 -272.155519455,1670.26545611 -290.9978879,1700.16863787 " mydata_rot="47.7" mydata_centroid="-291.748249102,1677.83259226"></polygon></g><g transform="translate(263.1507565 -818.1106357) rotate(0)"><polygon id="266177534" class="tile" points="-246.520759689,1342.73625938 -260.620861657,1342.63550258 -260.650748644,1403.72956905 -252.363256935,1404.60735865 -246.297751759,1397.77467671 -246.520759689,1342.73625938 " mydata_rot="7.7" mydata_centroid="-253.625370622,1372.92485582"></polygon></g><g transform="translate(473.9334624 -1094.4730117) rotate(0)"><polygon id="374082787" class="tile" points="-398.441752538,1895.86531513 -398.884969142,1934.47875299 -422.042551516,1934.12545017 -422.096222405,1895.18334498 -398.441752538,1895.86531513 " mydata_rot="-18.1" mydata_centroid="-410.382005511,1914.84404096"></polygon></g><g transform="translate(803.3284441999999 -528.0086457) rotate(0)"><polygon id="235742204" class="tile" points="-536.945256071,1261.73997101 -550.56671349,1261.6949836 -550.585344819,1201.0 -535.73167786,1204.25822449 -536.945256071,1261.73997101 " mydata_rot="-92.1" mydata_centroid="-543.514408245,1231.7292701167573"></polygon></g><g transform="translate(618.9518772 -1217.0637339) rotate(0)"><polygon id="174023895" class="tile" points="-435.075639496,1342.63550258 -435.086534166,1376.56854374 -409.955894,1376.61323064 -409.9842575,1343.10982513 -435.075639496,1342.63550258 " mydata_rot="51.5" mydata_centroid="-422.552268987,1359.73590506"></polygon></g><g transform="translate(330.92538840000003 -761.3540863000001) rotate(0)"><polygon id="261881209" class="tile" points="-107.92528821,1929.66245528 -107.924930916,1895.18334498 -131.557130829,1895.28603151 -131.453749317,1929.48361627 -107.92528821,1929.66245528 " mydata_rot="25.2" mydata_centroid="-119.699173728,1912.39124781"></polygon></g><g transform="translate(172.7436283 -204.0214729999998) rotate(0)"><polygon id="324975281" class="tile" points="-47.799338197,1342.63550258 -47.8014512965,1380.90926578 -52.4656004637,1380.40140704 -52.0164094895,1368.51198122 -76.7512910513,1367.14914874 -75.5452163273,1344.14792978 -47.799338197,1342.63550258 " mydata_rot="62.5" mydata_centroid="-60.8455774396,1357.11648449"></polygon></g><g transform="translate(619.9418967 -1293.9483575999998) rotate(0)"><polygon id="214712411" class="tile" points="-385.271514382,1514.84740614 -391.013595066,1514.55039329 -390.970592565,1511.83207657 -400.056245746,1511.62858605 -400.677797545,1533.8860038 -400.718472392,1544.87504637 -402.295156221,1544.83908483 -402.362745387,1546.09617133 -408.515278774,1546.04947111 -403.730793047,1557.06366053 -385.219139031,1557.47744603 -385.271514382,1514.84740614 " mydata_rot="-23.9" mydata_centroid="-393.8798266,1536.50552039"></polygon></g><g transform="translate(390.7279953 -1105.8481745000001) rotate(0)"><polygon id="329232007" class="tile" points="-246.986793409,1257.05384714 -246.947484774,1201.0 -272.117160939,1216.96976287 -246.986793409,1257.05384714 " mydata_rot="-7.2" mydata_centroid="-255.350479707,1225.0078700017184"></polygon></g><g transform="translate(174.58196759999998 -207.42506679999997) rotate(0)"><polygon id="299606223" class="tile" points="-172.086333523,1346.73727642 -167.536735019,1342.63550258 -164.756856301,1344.90390726 -161.373536276,1347.680709 -157.682064576,1350.70020231 -157.14474203,1354.88650253 -154.130891338,1354.62788663 -154.104906579,1357.70288563 -153.384866314,1358.61873761 -152.436221564,1358.94757016 -150.754413007,1363.29026613 -149.916423648,1365.45998436 -147.529206242,1372.93523373 -147.411501309,1377.07828719 -147.2506229,1382.89650808 -172.158943879,1383.80486751 -170.109615988,1380.138027 -171.988349948,1350.7787095 -172.086333523,1346.73727642 " mydata_rot="-29.2" mydata_centroid="-161.112085563,1366.43147767"></polygon></g><g transform="translate(245.55635669999998 -370.3730619999999) rotate(0)"><polygon id="377030564" class="tile" points="-189.714067918,1512.23407296 -213.301164103,1511.62858605 -213.495851178,1536.14785859 -197.625013388,1536.58343498 -197.908054481,1550.22290691 -189.70104827,1550.28602607 -189.714067918,1512.23407296 " mydata_rot="-82.3" mydata_centroid="-200.314723035,1527.2750072"></polygon></g><g transform="translate(488.0468285 -213.96668349999993) rotate(0)"><polygon id="383830157" class="tile" points="-429.997571462,1243.60243766 -446.542553603,1243.23391415 -446.501850916,1201.0 -438.506852758,1201.23670766 -430.018858126,1201.49501442 -429.997571462,1243.60243766 " mydata_rot="-67.7" mydata_centroid="-438.269395175,1222.3450692537388"></polygon></g><g transform="translate(166.7286335 -198.8400526999999) rotate(0)"><polygon id="236572128" class="tile" points="-77.7512910513,1342.63648777 -99.4116784068,1342.636092 -105.857889289,1342.63550258 -105.879178571,1361.64479929 -92.3726389449,1361.64515409 -92.3794285642,1369.09413749 -84.7380269088,1369.09790725 -84.7390982535,1372.32937037 -77.7804436659,1372.32621477 -77.7512910513,1342.63648777 " mydata_rot="8.3" mydata_centroid="-90.3561939946,1354.93093532"></polygon></g><g transform="translate(666.6491981 -368.9129369) rotate(0)"><polygon id="285497491" class="tile" points="-517.805285359,1555.16794277 -531.886391002,1555.21489645 -531.89213204,1537.60411429 -528.737364259,1537.59398895 -528.741471224,1531.69334041 -532.642033292,1531.70727238 -532.645917083,1517.80702665 -536.702104531,1517.82316689 -536.699284823,1514.81997939 -536.705117956,1511.68794979 -517.661164969,1511.62858605 -517.656294483,1524.30251604 -522.570809288,1524.31501672 -522.565686638,1530.31897306 -517.81478176,1530.30502504 -517.805285359,1555.16794277 " mydata_rot="65.4" mydata_centroid="-525.465922777,1532.56626285"></polygon></g><g transform="translate(427.9776555 -365.9574502999999) rotate(0)"><polygon id="412123959" class="tile" points="-306.541825008,1371.25480806 -306.526448129,1342.73439272 -330.610200962,1342.63550258 -330.622254995,1371.1617121 -306.541825008,1371.25480806 " mydata_rot="-60.6" mydata_centroid="-318.57558885,1356.946274"></polygon></g><g transform="translate(195.62688980000001 -1026.379136) rotate(0)"><polygon id="167482433" class="tile" points="-29.8291129166,1895.18334498 -29.8369691465,1906.04353666 -29.8492409613,1921.21270525 -53.8366681557,1921.2827878 -53.8236333391,1905.44945483 -53.8165809633,1895.25339515 -29.8291129166,1895.18334498 " mydata_rot="51.6" mydata_centroid="-41.8325637956,1908.23306149"></polygon></g><g transform="translate(665.4081549 -1382.4734792000002) rotate(0)"><polygon id="219035790" class="tile" points="-492.302240731,1511.62858605 -492.31526687,1536.1993399 -499.719765934,1536.2071113 -499.718168368,1537.12570923 -516.656294483,1537.12751561 -516.651494052,1511.63898797 -492.302240731,1511.62858605 " mydata_rot="7.2" mydata_centroid="-504.575011303,1524.24260517"></polygon></g><g transform="translate(356.9380063 -216.02026970000009) rotate(0)"><polygon id="219693718" class="tile" points="-200.114764389,1201.0 -202.137222773,1225.71921283 -176.990018661,1227.70352654 -177.018664923,1201.79925809 -200.114764389,1201.0 " mydata_rot="3.7" mydata_centroid="-188.987855176,1214.2433998727508"></polygon></g><g transform="translate(389.30454599999996 -351.48547640000015) rotate(0)"><polygon id="288431451" class="tile" points="-214.495851178,1511.91371377 -214.889489787,1541.14246016 -227.332383174,1541.1411517 -235.459716754,1540.92789755 -235.468918803,1511.62858605 -227.229566978,1511.91156958 -214.495851178,1511.91371377 " mydata_rot="61.0" mydata_centroid="-225.08191949,1526.43069164"></polygon></g><g transform="translate(485.1438112 -169.52856250000013) rotate(0)"><polygon id="253906774" class="tile" points="-305.505605551,1342.63550258 -305.519862708,1359.84778834 -305.526448129,1367.89726977 -282.30719146,1367.94567805 -282.286334842,1342.68390886 -305.505605551,1342.63550258 " mydata_rot="-81.9" mydata_centroid="-293.90640882,1355.29059035"></polygon></g><g transform="translate(737.4044266000001 -169.44217470000012) rotate(0)"><polygon id="220770143" class="tile" points="-529.514827106,1367.47550702 -506.464625177,1367.33840274 -505.757935619,1343.04492972 -529.547019408,1342.63550258 -529.514827106,1367.47550702 " mydata_rot="1.8" mydata_centroid="-517.863279196,1355.05809509"></polygon></g><g transform="translate(248.4463726 -509.36289920000013) rotate(0)"><polygon id="299944956" class="tile" points="-231.384389011,1201.10403236 -245.409465011,1201.0 -245.947484774,1219.07578571 -239.116689023,1219.05851895 -239.458248622,1238.80238873 -239.971938088,1248.7786134 -231.39053884,1248.4744529 -231.384389011,1201.10403236 " mydata_rot="-61.8" mydata_centroid="-237.042411161,1221.6185136529434"></polygon></g><g transform="translate(518.5178195 -879.9409572999999) rotate(0)"><polygon id="298417656" class="tile" points="-331.622254995,1358.2917474 -356.149627761,1342.63550258 -356.713844245,1345.91222519 -354.75316948,1346.25024874 -351.909431515,1346.74063312 -356.729697455,1374.77406595 -342.660642429,1378.23946849 -337.629019857,1380.21733038 -335.983752627,1376.79116004 -333.613343361,1371.86127696 -335.485395963,1371.0268783 -339.412394724,1370.28712729 -338.597934274,1365.96831832 -336.962212167,1357.2826964 -331.622254995,1358.2917474 " mydata_rot="-51.6" mydata_centroid="-345.996145642,1363.87126055"></polygon></g><g transform="translate(233.2695567 -1196.6615134) rotate(0)"><polygon id="395655354" class="tile" points="-124.679230929,1201.72218901 -124.635080354,1201.0 -135.489848538,1201.0162671 -135.489631551,1203.48056845 -136.2344415,1203.48252684 -136.258062812,1235.27929155 -136.257070743,1237.62870128 -134.810856657,1237.63119411 -134.811355711,1241.41216288 -124.567190312,1241.46580696 -124.560791274,1240.66817343 -124.554997424,1235.42132595 -126.701644187,1235.42099004 -126.697529568,1229.74228824 -121.232980725,1229.74554567 -121.227414301,1227.86102776 -121.213902661,1216.77965964 -125.783139137,1216.77247435 -126.457756739,1216.04839821 -126.463597607,1214.26683875 -125.779783225,1213.55146638 -124.732989902,1213.55217615 -124.682944536,1207.64388914 -124.679230929,1201.72218901 " mydata_rot="-81.6" mydata_centroid="-129.854235211,1221.1098364402194"></polygon></g><g transform="translate(644.4890525999999 -707.9666962) rotate(0)"><polygon id="299944939" class="tile" points="-369.66754224,1357.21195915 -379.914331184,1357.42435012 -383.211762026,1357.64311256 -383.152151183,1376.12873422 -391.52340244,1376.01145498 -391.54889434,1342.77883427 -380.316712281,1342.79171653 -369.97481821,1342.63550258 -369.66754224,1357.21195915 " mydata_rot="30.5" mydata_centroid="-382.879662064,1355.56472641"></polygon></g><g transform="translate(267.1708228 -1205.3968366) rotate(0)"><polygon id="238142698" class="tile" points="-138.749459672,1895.42339573 -144.745541896,1895.18334498 -144.71308518,1915.6434458 -144.810495255,1920.22947618 -144.805070611,1939.89302688 -132.557130829,1939.85241763 -132.564460766,1918.04336873 -138.749573501,1918.05011322 -138.749459672,1895.42339573 " mydata_rot="-28.8" mydata_centroid="-139.71721189,1921.44263159"></polygon></g><g transform="translate(477.3665693 -540.7939313) rotate(0)"><polygon id="222912928" class="tile" points="-281.387550406,1201.0 -273.185160526,1201.0142884 -273.117160939,1247.64535082 -281.718222155,1247.43968286 -281.387550406,1201.0 " mydata_rot="-88.7" mydata_centroid="-277.349742763,1224.4591226653"></polygon></g><g transform="translate(642.5956867 -442.4367446000001) rotate(0)"><polygon id="295109425" class="tile" points="-397.443803933,1342.63550258 -392.610635106,1346.42047076 -392.54889434,1387.98311514 -397.959256145,1390.88714586 -402.394256106,1383.89136182 -400.756284247,1344.61656631 -397.443803933,1342.63550258 " mydata_rot="-14.9" mydata_centroid="-397.091243866,1367.12395252"></polygon></g><g transform="translate(705.1823354 -1330.3889434) rotate(0)"><polygon id="330741649" class="tile" points="-436.753753753,1895.18334498 -436.748268234,1938.05756017 -446.067154259,1938.326525 -446.656363638,1900.92694643 -436.753753753,1895.18334498 " mydata_rot="60.6" mydata_centroid="-441.452636947,1917.87387819"></polygon></g><g transform="translate(642.8923861000001 -167.0567132000001) rotate(0)"><polygon id="429404973" class="tile" points="-550.077688385,1363.6487419 -530.547019408,1363.69571514 -530.550319759,1342.68529041 -550.072720937,1342.63550258 -550.077688385,1363.6487419 " mydata_rot="-71.2" mydata_centroid="-540.312156707,1353.16705334"></polygon></g><g transform="translate(369.5558511 -667.2444433) rotate(0)"><polygon id="377121562" class="tile" points="-154.538136026,1201.29879695 -154.550276624,1224.05389652 -137.258062812,1223.9011003 -137.451010048,1201.0 -154.538136026,1201.29879695 " mydata_rot="8.8" mydata_centroid="-145.939951587,1212.5859573253556"></polygon></g><g transform="translate(314.990326 -339.0319482) rotate(0)"><polygon id="442637481" class="tile" points="-236.468918803,1535.55018267 -254.124982643,1535.54469669 -254.136650902,1514.15369789 -250.360735719,1514.15540973 -250.365577487,1511.62858605 -244.941182641,1511.62983279 -244.93612171,1517.56703757 -236.480359708,1517.56956386 -236.468918803,1535.55018267 " mydata_rot="-82.3" mydata_centroid="-245.757443156,1525.11524373"></polygon></g><g transform="translate(159.6283173 -1606.5848889000001) rotate(0)"><polygon id="264953369" class="tile" points="-95.0721763119,1924.376543 -95.0549520764,1899.10825935 -90.1628053088,1899.15333336 -90.0884178085,1895.18334498 -82.44995609,1895.3336563 -82.3567685079,1916.17077622 -89.0846507955,1916.0842266 -89.0157324832,1924.55526419 -95.0721763119,1924.376543 " mydata_rot="74.6" mydata_centroid="-89.0477898427,1908.73992293"></polygon></g><g transform="translate(341.83487660000003 -918.7672659000001) rotate(0)"><polygon id="442637485" class="tile" points="-219.443183962,1658.26339538 -219.448061781,1686.25590674 -208.866296727,1686.24992269 -208.861417933,1658.25741828 -219.443183962,1658.26339538 " mydata_rot="8.0" mydata_centroid="-214.15474032,1672.25666056"></polygon></g><g transform="translate(577.5768775 -1060.7310750000001) rotate(0)"><polygon id="185148203" class="tile" points="-433.170039608,1923.91273083 -435.742638167,1924.77706481 -435.748268234,1897.50076085 -427.294678521,1895.18334498 -423.096222405,1908.92952363 -425.960900755,1913.89361163 -423.690599664,1920.02140156 -433.170039608,1923.91273083 " mydata_rot="23.2" mydata_centroid="-430.360107113,1909.79516387"></polygon></g><g transform="translate(156.74476489999998 -755.8091330999999) rotate(0)"><polygon id="375468793" class="tile" points="0.0,1366.64879399 -11.7344012819,1366.81859101 -11.7228918616,1342.63550258 -0.111465567537,1343.02896042 0.0,1366.64879399 " mydata_rot="0.4" mydata_centroid="-5.915117161746316,1354.80392695"></polygon></g><g transform="translate(321.8105774 -1653.8343792) rotate(0)"><polygon id="246964631" class="tile" points="-319.310584976,1658.30851369 -319.309080704,1677.33100098 -304.559739462,1677.27989551 -304.561225752,1658.25741828 -319.310584976,1658.30851369 " mydata_rot="60.8" mydata_centroid="-311.935158377,1667.79420519"></polygon></g><g transform="translate(381.1116656 -912.9022649) rotate(0)"><polygon id="375468804" class="tile" points="-312.335299296,1536.44170055 -312.159558439,1511.62858605 -301.746903091,1511.68201941 -301.746903091,1536.76230068 -312.335299296,1536.44170055 " mydata_rot="-90" mydata_centroid="-306.988028265,1524.16379386"></polygon></g><g transform="translate(191.983518 -847.5757234) rotate(0)"><polygon id="219802845" class="tile" points="-106.924930916,1896.08589759 -96.0721763119,1895.18334498 -96.084152863,1919.65808801 -105.492257933,1920.54479526 -105.607691655,1912.51491184 -106.809963487,1912.65209261 -106.924930916,1896.08589759 " mydata_rot="9.0" mydata_centroid="-101.280307332,1907.52239284"></polygon></g><g transform="translate(505.29227099999997 -1126.7742134) rotate(0)"><polygon id="286009239" class="tile" points="-441.394846481,1342.63550258 -436.090344346,1342.83300771 -436.086534166,1378.34607192 -442.410098304,1378.06665032 -441.394846481,1342.63550258 " mydata_rot="30.0" mydata_centroid="-439.002299046,1360.98873942"></polygon></g><g transform="translate(122.1065442 -880.0634612) rotate(0)"><polygon id="423245797" class="tile" points="-107.406480356,1658.25741828 -119.606542579,1658.26706959 -119.598243193,1675.83597674 -107.392972198,1675.85297365 -107.406480356,1658.25741828 " mydata_rot="25.3" mydata_centroid="-113.499518054,1667.05398347"></polygon></g><g transform="translate(512.2817877 -599.577527) rotate(0)"><polygon id="201148568" class="tile" points="-313.362037147,1531.19809508 -313.335299296,1511.62858605 -328.183065793,1511.88299844 -328.090463201,1516.8557664 -324.376368418,1516.79177201 -324.269222853,1522.6783536 -318.690643272,1522.57422184 -318.536674631,1531.07268108 -316.379635768,1531.12193754 -313.362037147,1531.19809508 " mydata_rot="-79.7" mydata_centroid="-318.893195363,1519.23842736"></polygon></g><g transform="translate(267.61112690000004 -483.29620820000014) rotate(0)"><polygon id="222185317" class="tile" points="-220.448061781,1669.97882356 -231.080999842,1681.84176475 -235.912744134,1678.39003486 -233.238497575,1671.85580133 -233.750557811,1663.36194812 -233.700519147,1661.92902826 -235.917330416,1660.53136925 -234.494590916,1658.25741828 -227.3295457,1660.91927773 -227.740125746,1663.29898624 -225.581941358,1665.60996755 -220.472827049,1668.20002938 -220.448061781,1669.97882356 " mydata_rot="-2.0" mydata_centroid="-229.311258342,1670.14280357"></polygon></g><g transform="translate(206.7169438 -934.4654943999999) rotate(0)"><polygon id="223868484" class="tile" points="-84.0313138427,2068.20033681 -90.0018564308,2068.13999014 -90.461090949,2043.73707236 -84.0154134948,2043.67951524 -84.0313138427,2068.20033681 " mydata_rot="8.8" mydata_centroid="-87.1263398246,2055.78286322"></polygon></g><g transform="translate(427.3772313 -1824.8811506) rotate(0)"><polygon id="243542736" class="tile" points="-397.441752538,1914.0203956 -387.588143125,1912.58953617 -388.500668767,1895.18418134 -390.774068192,1895.18334498 -390.775303045,1900.97030693 -397.436900143,1900.96697804 -397.441752538,1914.0203956 " mydata_rot="62.7" mydata_centroid="-392.414176203,1906.2485251"></polygon></g><g transform="translate(296.68145680000003 -20.024824200000012) rotate(0)"><polygon id="376403756" class="tile" points="-294.172908626,1201.46896161 -283.074307598,1201.0 -282.718222155,1213.03030459 -294.181450686,1213.28361923 -294.172908626,1201.46896161 " mydata_rot="83.6" mydata_centroid="-288.518342861,1207.2269698649966"></polygon></g><g transform="translate(419.5734607 -1318.0820215) rotate(0)"><polygon id="324274229" class="tile" points="-417.073571866,1524.91344073 -409.515278774,1525.41151804 -409.523663677,1512.0848907 -412.277825562,1511.78557017 -416.944916828,1511.62858605 -417.073571866,1524.91344073 " mydata_rot="62.3" mydata_centroid="-413.26122726,1518.49777221"></polygon></g><g transform="translate(469.014537 -331.0051178000001) rotate(0)"><polygon id="327029578" class="tile" points="-450.410622255,1511.79813541 -445.130905376,1511.62858605 -445.133794276,1526.00128783 -449.975978652,1526.18680605 -450.410622255,1511.79813541 " mydata_rot="51.4" mydata_centroid="-447.665296695,1518.80024328"></polygon></g><g transform="translate(411.4295105 -347.20498710000004) rotate(0)"><polygon id="220953325" class="tile" points="-403.399096077,1344.63501598 -407.967975432,1342.63550258 -408.955894,1349.38044029 -408.90362807,1354.79539382 -403.394256106,1353.80048996 -404.224556114,1349.26861665 -403.399096077,1344.63501598 " mydata_rot="-4.4" mydata_centroid="-406.351152073,1349.0782464"></polygon></g><g transform="translate(126.0848997 -1438.0983469) rotate(0)"><polygon id="326405397" class="tile" points="-123.584902605,1674.47954986 -123.578975898,1658.25741828 -120.677379076,1662.1705217 -120.606542579,1670.58926818 -123.584902605,1674.47954986 " mydata_rot="-83.7" mydata_centroid="-122.267042308,1666.40757347"></polygon></g></g></svg>