<svg><g transform="translate(0 0)"><polygon id="4" class="bin" points="-196.865353207,728.546469701 -198.80483794,732.294876956 -206.086429194,802.419709007 -204.845539333,806.619102732 -200.514641116,808.995854401 -200.016870769,809.618998167 -195.168816346,812.297853266 -159.147638873,816.32676158 -156.715552451,817.615047361 -155.818027642,820.216810963 -156.938513569,822.730620008 -211.645598494,876.39265499 -211.813609768,876.221371755 -213.016714615,877.00028293 -212.855867843,877.335544226 -220.087244155,880.804908429 -222.732724205,883.370041776 -223.303478431,887.010469415 -222.038081472,894.510990045 -221.986351646,895.072127414 -221.954355785,896.985441546 -221.930333358,897.45604957 -221.707283106,900.065170657 -221.69514873,900.278743118 -221.528291216,906.188014794 -221.528112598,906.393177433 -223.346410515,975.02368315 -223.137789301,976.894722564 -222.994702323,977.458456268 -222.13898994,979.444698535 -221.417235589,980.583204403 -221.377924441,980.609859924 -220.144771296,982.459639167 -215.094006971,987.564296743 -212.132142526,988.823344369 -210.106778728,990.908575443 -210.180026448,993.814590225 -212.027211169,997.915456383 -211.17480642,1000.24586828 -211.217317717,1000.71940749 -209.188679162,1006.66411504 -200.836674227,1015.48410771 -200.409280295,1016.02829895 -199.799257446,1016.97300433 -199.741567518,1017.06525499 -198.531142042,1019.06477066 -198.455228464,1019.19609741 -197.339015058,1021.22051803 -197.301661041,1021.28998295 -196.761089646,1022.32110063 -196.615816418,1022.63202433 -196.38320326,1023.19580605 -196.257208594,1025.70137676 -197.739070416,1027.72569018 -200.165572257,1028.36275225 -203.9650924,1028.04160081 -208.1854973,1029.40350288 -210.176943743,1033.36591829 -212.552900517,1067.62413214 -211.202248559,1071.74187211 -207.361295395,1073.74864115 -205.628086708,1073.91425677 -202.723172291,1075.79675456 -190.058504014,1098.11901679 -189.771815587,1098.58077982 -189.576918319,1098.86864188 -188.979015508,1101.5620839 -190.385639216,1103.9355892 -195.800691577,1108.13038848 -197.97087801,1111.84689036 -196.956906258,1116.02946811 -195.109433104,1118.61172599 -194.468048568,1121.45515101 -196.056858837,1123.89894353 -215.462751842,1137.03772085 -217.911656987,1140.90639592 -216.742260799,1145.33316627 -190.932217821,1177.94018763 -190.53888286,1178.3947578 -169.015669652,1201.1745966 -167.992106122,1203.82088655 -169.114967734,1206.42659463 -171.741436056,1207.499999 -445.259656826,1207.499999 -447.911307256,1206.40164943 -449.009656826,1203.749999 -449.009656826,3.75 -447.911307256,1.09834957055 -445.259656826,0.0 -290.934880418,0.0 -288.247438135,1.13463119659 -287.186265641,3.85191787849 -287.317038043,8.66182332068 -287.307117976,9.262336712 -282.682115355,85.9749936048 -280.942226917,90.1288855412 -276.459839398,95.1065073179 -275.550264635,96.9831129484 -270.349843407,127.359388168 -270.219330952,127.959269023 -260.474431998,164.754904433 -260.187729711,165.607527415 -248.823255789,193.264987998 -248.576557095,193.799125062 -235.355298417,219.477237589 -234.966420519,220.138908167 -221.074661901,241.012817824 -220.061350834,242.211683137 -192.276614721,268.33380547 -190.925350864,269.323819572 -170.313564598,280.854644311 -168.455162235,283.455031202 -169.276801004,286.543814305 -172.18160328,287.87715412 -227.10833318,287.332260566 -231.176427288,288.963051764 -232.912101884,292.987514871 -235.761196572,471.046791877 -234.137678855,475.141822574 -230.091431697,476.883365029 -150.93781336,477.911839617 -148.259026512,479.087965217 -147.240343174,481.830492274 -148.501787116,484.470175888 -169.32917465,502.895663334 -169.888460359,503.304944259 -194.518674169,518.042517162 -195.151331295,518.470528792 -203.636548935,524.926283316 -205.871028163,529.469716198 -203.579796355,533.984794999 -199.086441162,537.315388336 -197.572468193,540.477476158 -199.677274725,593.249949763 -198.215077472,597.31690107 -194.334186267,599.218688966 -194.223607204,599.226513606 -191.640922471,600.526882839 -190.75121775,603.27818182 -194.216816575,644.919116471 -194.432067974,645.89620399 -196.352655302,651.147296706 -196.135860269,655.603845349 -195.111987938,656.508573407 -193.852500879,659.554288728 -197.2725825,713.881313985 -196.014841421,717.85387088 -195.694218546,718.039662423 -194.193802872,719.661244914 -193.866707984,721.846144433 -194.433756904,725.587987937 -196.865353207,728.546469701 " moovel_rot="0" moovel_centroid="-331.38145213029037,635.2463692070788" transform="translate(449.0096436 0)"></polygon><g transform="translate(-154.4005581 -984.6847939999992) rotate(0)"><polygon id="421260510" class="tile" points="156.869951297,2070.96616945 270.115246749,2057.14974652 273.19354507,2075.6579229 278.527259762,2076.70410212 278.294046443,2057.60319597 275.322779259,2040.49642195 283.934122174,2039.18480172 277.267567175,1985.45735764 293.210930115,1980.7901953 296.871839155,2031.19617966 295.698655524,2036.30893482 294.091308062,2043.29836885 290.800692379,2099.47757267 296.72026445,2174.50889498 240.803618235,2181.23698382 239.653001375,2172.862264 235.118165105,2173.74444394 215.46397515,2177.58673366 216.136550143,2184.74062221 173.386545652,2175.54294617 160.235327631,2093.53547293 156.869951297,2070.96616945 " moovel_rot="51.9" moovel_centroid="233.910926955,2112.81374787"></polygon></g><g transform="translate(2.4999995000000013 -680.6974782000001) rotate(0)"><polygon id="375468808" class="tile" points="0.0746345635504,1568.42205547 38.9121119538,1567.81198086 39.0039402718,1569.24396439 43.3056059176,1569.31682009 43.7682097077,1615.73748139 54.1624983447,1616.14933888 54.4011447636,1617.54564967 117.405458335,1617.35208344 117.710175187,1677.85844718 113.45541681,1677.82936428 113.713623398,1690.56956311 35.0894041171,1691.55575791 5.28731564004,1691.71250898 5.21011916567,1686.81844256 0.0,1686.72239887 0.0746345635504,1568.42205547 " moovel_rot="-0.2" moovel_centroid="51.14649184377137,1641.83498012"></polygon></g><g transform="translate(-16.5166174 -1478.7364344000002) rotate(0)"><polygon id="285977008" class="tile" points="112.450156879,2212.19746745 144.850941649,2202.0118933 150.773524936,2244.70940214 152.222865759,2255.98832667 152.125933786,2326.67837167 107.365856212,2326.71676733 101.556785712,2329.71574302 100.583269555,2335.79883398 101.502717087,2383.20784687 101.652695344,2409.59070321 75.7008203246,2410.5792002 77.5218908556,2402.97899631 87.0334657546,2372.78719402 86.1037053514,2355.6370298 80.0716523323,2332.41267623 62.6051861357,2265.55979254 105.940620667,2252.50955538 106.64054144,2249.30087044 106.534038971,2237.42473457 96.3160802335,2203.20073177 74.9277030077,2209.39244558 70.8448284514,2195.27904826 101.990367765,2184.74062221 110.646368663,2211.44267062 112.450156879,2212.19746745 " moovel_rot="-25.0" moovel_centroid="110.669382719,2284.67169376"></polygon></g><g transform="translate(-331.7045227 -753.9341694000001) rotate(0)"><polygon id="309309712" class="tile" points="506.941091437,1788.88382537 535.761236003,1778.508156 521.764175783,1735.89278406 512.121976138,1709.85476036 507.162117356,1686.94444002 506.281334274,1668.04769056 507.326853893,1646.91238369 514.314295772,1627.3408271 526.599823627,1606.17104209 533.941272997,1597.96370005 535.824967554,1595.08992326 504.836995,1567.81198086 498.022430946,1572.19286343 493.825563128,1569.80219385 483.212685485,1584.06667034 471.719498318,1603.60733724 463.273717787,1624.81128455 458.71896654,1645.57963857 456.930032791,1665.84774304 457.273396179,1685.1485258 461.936425504,1711.09968826 469.279093414,1736.35422605 472.9305024,1745.98967588 477.594629847,1744.32717579 480.907709485,1753.46455135 483.409797609,1755.99374663 487.585235924,1756.357355 494.762473567,1753.99905833 506.941091437,1788.88382537 " moovel_rot="71.0" moovel_centroid="493.36425943,1674.60394458"></polygon></g><g transform="translate(-312.3967947 -1184.9966229) rotate(0)"><polygon id="193769124" class="tile" points="315.765207025,1803.65393006 354.351364595,1804.19313237 359.320112431,1794.76919738 369.106087684,1789.54855058 401.732002923,1788.88382537 402.027968185,1836.22890149 396.260880062,1842.94245961 361.438912032,1843.89838073 361.040619887,1897.36366832 358.700134091,1902.00396962 358.588420679,1923.19631555 354.060479716,1923.58793449 354.595201469,1949.02502904 363.055018312,1948.71461014 363.825767213,1964.06686729 334.318316576,1976.82911904 325.335673046,1980.7901953 321.982862777,1973.01154334 315.502007597,1914.36149381 314.927616937,1888.39438454 314.894471904,1823.83159877 315.765207025,1803.65393006 " moovel_rot="74.3" moovel_centroid="347.856356002,1869.77484416"></polygon></g><g transform="translate(-36.17230570000001 -848.3798502) rotate(0)"><polygon id="103109948" class="tile" points="136.417669344,1565.98467071 132.602496057,1553.77516064 130.813489096,1542.47397333 130.777442918,1468.45492297 132.175462082,1457.05566486 133.764727181,1452.32054602 135.31893146,1450.1574483 137.442643273,1448.49352377 139.868976831,1447.55558244 142.90841308,1447.59358045 203.577628519,1473.57218725 216.275165031,1481.53733689 222.474222149,1485.0633091 227.743709486,1496.0799356 231.095268034,1503.10231931 216.990403006,1528.08692935 202.612830904,1527.56743302 200.972899405,1537.49822108 209.012434129,1545.50599998 200.076816608,1567.81198086 136.417669344,1565.98467071 " moovel_rot="-57.9" moovel_centroid="171.802674612,1511.27101743"></polygon></g><g transform="translate(-240.82495319999998 -590.6479729) rotate(0)"><polygon id="286120221" class="tile" points="449.92829833,1447.55558244 436.266372876,1375.2550141 435.486856806,1364.90219331 437.632491189,1254.29844161 439.657166794,1201.0 478.064461596,1203.09379702 478.183676493,1366.28962569 440.316763744,1365.13062878 439.647342942,1366.25591033 440.60497243,1372.9743187 441.725488041,1373.75832525 477.847748021,1369.08957856 477.46306524,1442.12629845 449.92829833,1447.55558244 " moovel_rot="-93.0" moovel_centroid="458.217140163,1318.8536711931201"></polygon></g><g transform="translate(144.783505 -162.25888740000005) rotate(0)"><polygon id="286087281" class="tile" points="50.7059962742,1216.31258426 52.3200989058,1270.01807786 61.0248748221,1270.32001559 60.9900076024,1350.35028206 60.2998467557,1352.78670584 2.57808994949,1354.28335673 1.0,1277.23649987 11.2446175696,1277.75758922 10.8733174384,1274.23134943 10.1463781338,1273.47755025 8.69423562419,1265.95357326 9.4498033341,1264.83754625 8.99050986432,1264.18886282 3.91451185364,1263.99373481 4.13944493532,1247.8922814 1.85211100653,1247.26942187 1.98893765435,1241.44382948 7.11981058754,1241.01904863 8.37853299975,1239.93141044 9.45199456252,1238.58211816 9.01746421307,1232.76824299 4.02243768033,1233.09683923 3.5907722665,1211.42876631 7.05445159674,1211.12052035 7.76377563439,1206.23991687 13.6873593314,1205.84310464 13.9839947918,1202.03216926 34.4704626128,1202.47888432 34.4324011706,1201.0 43.8175258279,1201.26215331 44.3206506923,1212.08509669 39.7117034173,1212.14033358 40.3060101381,1216.67897028 50.7059962742,1216.31258426 " moovel_rot="54.7" moovel_centroid="30.14514386026033,1283.7105489136072"></polygon></g><g transform="translate(-236.3727777 -692.9746315999998) rotate(0)"><polygon id="284838382" class="tile" points="434.409217544,1301.06444418 412.859755722,1301.04442552 408.082750684,1301.04601247 375.883437811,1301.01623013 375.887808156,1298.28154529 375.924597298,1248.67820411 375.939221492,1233.32618141 375.942237955,1229.61520136 375.960960565,1201.0 380.119746435,1201.00417832 381.51848927,1201.00716598 382.795472432,1201.0087173 393.46410849,1201.01150764 398.51582933,1201.01994393 401.397631526,1201.02256956 422.188474767,1201.03520697 426.862403296,1201.04400998 434.486856806,1201.04852565 434.452364572,1241.50343063 434.409217544,1301.06444418 " moovel_rot="-20.5" moovel_centroid="405.18509068,1251.0325840208852"></polygon></g><g transform="translate(2.4787515999999954 -1347.8669424) rotate(0)"><polygon id="224013699" class="tile" points="64.8615616875,1800.64213563 40.0333164286,1788.88382537 8.75134832282,1897.38271479 11.2653066901,1897.81239337 0.0,1923.17296383 9.05018181503,1927.54979714 17.7479971413,1930.05551597 14.0840954863,1942.30820393 38.7482801031,1948.06231729 50.8635474036,1948.97314767 64.9952242959,1933.60183055 49.4393245401,1917.92276599 34.5136529725,1929.1997095 29.0334203968,1927.44403932 64.8615616875,1800.64213563 " moovel_rot="-78.5" moovel_centroid="34.73108570011483,1875.92229109"></polygon></g><g transform="translate(-97.38772689999999 -1371.7825538) rotate(0)"><polygon id="238899941" class="tile" points="196.601048244,1799.16875595 192.883732457,1798.97765044 192.593618386,1797.24013164 191.871060251,1793.00569211 176.137616913,1793.19188066 176.010128156,1789.04747337 170.045592877,1788.88382537 166.494162624,1789.75086536 168.937562915,1819.85697324 170.638983139,1836.45178094 173.548394384,1836.40915664 174.999410414,1836.93905964 175.199025728,1840.53338404 173.92631011,1841.1295676 171.263608925,1841.49178853 170.491985507,1864.00973222 169.795691446,1875.6722928 172.416341382,1875.88294477 173.430723212,1876.32973136 173.280876824,1879.57145923 172.06067967,1879.90702016 169.50280249,1879.9546141 168.568443067,1892.28924297 167.729594881,1910.06662368 170.947614599,1914.7621249 172.461396704,1915.55027695 172.161664873,1920.41848099 170.630385662,1921.18741422 166.545087807,1923.23386949 166.935300111,1941.46073323 170.508109555,1956.83226205 175.488181041,1971.08729011 179.062434397,1969.52362242 181.711161816,1968.92455043 186.123058489,1967.92733801 186.554258574,1964.99635417 189.019958053,1961.79090207 191.245236952,1957.11967953 192.748752419,1919.20516624 192.770418777,1918.56808571 196.720115005,1918.07503462 198.89762384,1879.2178685 200.091831945,1839.00690122 196.601048244,1799.16875595 " moovel_rot="64.9" moovel_centroid="182.928508435,1875.48350007"></polygon></g><g transform="translate(-408.94709140000003 -1410.136268) rotate(0)"><polygon id="283809362" class="tile" points="538.169504439,1789.11123181 519.024146626,1799.69914669 516.026023029,1806.10923766 514.646001638,1813.08993631 514.501932557,1824.87317995 515.991491506,1836.89651381 519.31284823,1838.14960827 519.867976354,1839.75272264 518.066647753,1840.87833692 516.595063984,1840.08735381 516.703957223,1914.02633053 558.038584561,1912.90235472 558.021005624,1811.04736814 557.703119279,1804.36482302 555.693136085,1801.4560161 546.211960529,1791.04789694 543.992820143,1789.51915015 541.785954038,1788.88382537 538.169504439,1789.11123181 " moovel_rot="70.9" moovel_centroid="537.144294105,1853.73578937"></polygon></g><g transform="translate(-176.9512329 -1227.0219468999999) rotate(0)"><polygon id="393391800" class="tile" points="199.247348436,1643.57724367 244.178686852,1640.75132801 246.369646607,1637.12263397 243.927681382,1573.42624481 237.411616286,1567.81198086 195.516403175,1570.50837107 195.457265673,1581.57252728 179.461626322,1582.12882849 179.451227708,1641.21893781 194.427124555,1641.23666872 194.036363845,1619.71505081 197.459245095,1615.29608049 199.247348436,1643.57724367 " moovel_rot="-64.1" moovel_centroid="213.760731668,1606.64993175"></polygon></g><g transform="translate(-281.3885328 -1723.6844228999998) rotate(0)"><polygon id="375468809" class="tile" points="381.593329544,2121.42855577 354.807983271,2107.80124602 402.697574152,2015.04500896 400.656972894,2013.96014925 399.817595176,2015.45840046 363.000330295,1996.45820492 364.034677946,1994.73765971 354.850999337,1989.82892965 359.199638389,1980.7901953 368.308690134,1985.00496924 430.580157839,2016.95458507 428.464970184,2021.13200058 432.547107287,2023.16666695 381.593329544,2121.42855577 " moovel_rot="-62.5" moovel_centroid="392.418537641,2053.20120489"></polygon></g><g transform="translate(52.7771647 -1484.7954617999999) rotate(0)"><polygon id="413778949" class="tile" points="101.227658899,1959.51996655 126.144024145,1959.43910079 126.201168429,1807.40853786 111.669098391,1807.45821171 111.679160619,1788.88382537 101.290658308,1788.92021509 101.227658899,1959.51996655 " moovel_rot="-53.8" moovel_centroid="113.363674444,1879.33219056"></polygon></g><g transform="translate(-211.43685929999998 -1002.0341460000001) rotate(0)"><polygon id="108144474" class="tile" points="260.615927531,1240.78129347 260.175308378,1207.76140494 261.264497866,1206.47219613 261.251264599,1201.39234914 240.039694986,1201.09379073 234.840465887,1201.02613631 233.567408316,1201.0 233.511853066,1202.82022427 233.390935922,1207.18710911 233.391816471,1207.75539102 233.515964352,1231.62764222 230.611586675,1226.93987678 228.817633009,1225.94630443 226.772653875,1225.09186513 224.329761805,1224.76243647 221.904971541,1224.93290494 219.1680985,1225.64151774 216.818954119,1227.03974706 215.019564027,1229.65838968 213.971236394,1232.75592712 213.989294612,1255.51105519 213.987270362,1258.12952542 213.998556766,1265.73902364 214.019268264,1298.76530935 213.936854297,1309.72485386 216.917361048,1316.74113848 223.985317936,1316.73967786 223.973457116,1313.28465754 234.439184347,1308.38807082 234.356947222,1267.81566186 235.898044903,1267.9005704 276.606036056,1268.04887735 276.865606718,1261.98106822 282.680383611,1261.86772738 282.399801506,1243.8750087 275.084833259,1243.94521341 274.518635904,1243.49460562 269.946662055,1243.47854386 269.030289831,1245.00724261 263.53378549,1245.11602502 263.56090479,1240.78807553 260.615927531,1240.78129347 " moovel_rot="8.7" moovel_centroid="240.023778886,1252.490771648361"></polygon></g><g transform="translate(-96.05821250000002 -1249.9352810999999) rotate(0)"><polygon id="405885352" class="tile" points="292.998342159,1538.74969866 291.923497874,1448.09545775 247.458700963,1447.55558244 247.431816756,1539.04282748 292.998342159,1538.74969866 " moovel_rot="-4.9" moovel_centroid="269.919725491,1493.5473495"></polygon></g><g transform="translate(92.7684763 -1835.9050755) rotate(0)"><polygon id="285961421" class="tile" points="6.85140873268,2079.95740601 39.6377467711,1996.07738361 46.2528631266,1980.7901953 51.0902602807,2023.12227582 53.6294073712,2061.30270057 45.4435129993,2062.26831632 44.7637806382,2065.07307316 49.9950117432,2082.72220806 52.1287503093,2098.9988561 52.1279003441,2105.5843561 53.6153054047,2113.17625539 31.2137928709,2104.27939758 29.7508164357,2107.03378604 0.0,2094.61524207 6.85140873268,2079.95740601 " moovel_rot="-28.0" moovel_centroid="33.54463397543285,2061.01119628"></polygon></g><g transform="translate(-42.269692199999994 -1064.7095276) rotate(0)"><polygon id="265960051" class="tile" points="155.173792922,1201.0 155.122309767,1261.6447052 96.422468175,1261.82559459 96.4737501852,1201.18066283 155.173792922,1201.0 " moovel_rot="-41.6" moovel_centroid="125.798061953,1231.4127233770937"></polygon></g><g transform="translate(-218.1331213 -1390.7049989) rotate(0)"><polygon id="371392416" class="tile" points="343.779560859,1449.30797938 350.906593546,1447.55558244 377.093957256,1474.16863332 377.131667488,1538.2802199 318.214214922,1515.28885878 343.779560859,1449.30797938 " moovel_rot="-60.7" moovel_centroid="352.87047659,1495.1721334"></polygon></g><g transform="translate(-295.4101437 -1913.8835386) rotate(0)"><polygon id="301510359" class="tile" points="328.406224396,1980.7901953 331.459279216,1984.58809133 332.939399451,1986.637381 353.807983271,2013.77030592 351.287345833,2015.88224242 322.779032025,2017.02726429 319.533914227,2017.18997421 313.755936952,2017.41772678 317.964677718,2092.10744793 316.698573637,2092.1752681 317.327395688,2107.90787756 304.629175354,2108.15961544 302.604320031,2107.06893614 301.278567118,2106.34682636 299.51514613,2104.94346969 298.41639626,2103.05918745 297.909377365,2082.77800884 300.889054836,2082.58372958 299.74336621,2045.59008083 298.186664634,2010.26289393 297.871839155,2002.44052105 298.321146734,2000.32737171 299.638927189,1998.56204384 315.79107404,1983.20076059 322.635420834,1984.14026183 328.406224396,1980.7901953 " moovel_rot="4.9" moovel_centroid="314.896338782,2035.16260845"></polygon></g><g transform="translate(-323.0502534 -1538.3438118000001) rotate(0)"><polygon id="412129487" class="tile" points="379.810442722,1627.92220119 379.834564077,1599.06263333 404.447471341,1599.49152444 404.867869836,1603.44524804 406.705401393,1603.46299116 406.928400432,1599.46103276 420.468467718,1599.14114161 420.641323664,1597.38661528 406.796535526,1597.53269673 406.491826171,1593.02212764 404.587973971,1592.76663406 404.520645487,1596.84969607 379.632066735,1596.88639813 379.905483576,1567.96141476 404.2324413,1567.81198086 404.868215874,1572.09616395 406.225640497,1572.24759188 407.338052237,1568.13780142 431.396885177,1568.45826526 431.383376876,1628.2579459 406.927259357,1627.92617538 406.483834789,1624.3668509 404.669336542,1623.95471278 404.442026059,1627.94652268 379.810442722,1627.92220119 " moovel_rot="-60.3" moovel_centroid="405.760650845,1598.05209876"></polygon></g><g transform="translate(-112.3092423 -1165.2366914) rotate(0)"><polygon id="157893651" class="tile" points="114.826425566,2047.45917429 114.809239117,1980.90073654 155.861109863,1980.7901953 155.869951297,2047.34549637 114.826425566,2047.45917429 " moovel_rot="-69.4" moovel_centroid="135.341518861,2014.12277356"></polygon></g><g transform="translate(-350.15485839999997 -457.1792811) rotate(0)"><polygon id="422497212" class="tile" points="490.860373797,1275.06825042 528.797296867,1263.07702247 528.853399498,1208.4686873 491.435111145,1201.0 490.859850471,1217.31364983 490.860373797,1275.06825042 " moovel_rot="-78.0" moovel_centroid="508.915335329,1236.980521946837"></polygon></g><g transform="translate(118.23493250000001 -314.68070179999995) rotate(0)"><polygon id="418643979" class="tile" points="95.4141633479,1202.12342714 91.2407170886,1201.61814967 84.9752327098,1201.39875479 76.0301603863,1201.09844172 70.5066770008,1201.35892258 67.1998705601,1201.0 65.4050442843,1202.00739161 63.3212483443,1205.81671971 62.7302417621,1210.58538489 62.0248748221,1223.90490825 62.8481452761,1232.61883326 63.0605988719,1243.63500507 62.480030995,1248.8110601 63.506432368,1253.08888153 66.501967112,1260.05546342 68.1791987928,1263.06557287 69.9614726568,1266.07072866 70.5232835252,1269.24042549 71.8941401394,1272.26498323 74.4023395207,1273.17643478 78.7487807859,1274.00119704 88.3631897239,1273.24020977 95.422468175,1273.54921552 95.4141633479,1202.12342714 " moovel_rot="-92.7" moovel_centroid="79.7296161045,1236.105606812239"></polygon></g><g transform="translate(-145.31555790000002 -1088.3528415) rotate(0)"><polygon id="182759598" class="tile" points="363.568812457,1567.81198086 371.227492694,1567.88562251 378.632066735,1567.95618647 378.574495175,1644.29972142 374.483467594,1644.22945325 374.500844323,1648.34083995 359.265858157,1648.10314382 359.356011255,1643.47452849 354.304213089,1643.54113773 345.250874251,1570.69763631 348.704704441,1570.46937789 355.383495369,1570.03748925 357.318197454,1584.93713835 363.782675357,1634.80820862 363.634680912,1587.31870394 363.568812457,1567.81198086 " moovel_rot="-87.8" moovel_centroid="364.740499199,1607.63797008"></polygon></g><g transform="translate(-271.61172569999997 -544.8504023) rotate(0)"><polygon id="413378703" class="tile" points="317.658133959,1604.24742911 303.98521355,1622.46367354 274.156688623,1622.57147506 274.11173023,1567.81198086 317.616276763,1569.48443062 317.658133959,1604.24742911 " moovel_rot="62.8" moovel_centroid="294.795675253,1594.40397267"></polygon></g><g transform="translate(146.7794145 -1878.3718878999998) rotate(0)"><polygon id="184999232" class="tile" points="50.5781490032,2184.7787818 37.037466199,2184.74062221 37.7437462926,2255.75103117 37.1527596526,2323.56849768 50.5835181771,2323.50962262 50.5781490032,2184.7787818 " moovel_rot="-81.7" moovel_centroid="43.9976725004,2254.03961443"></polygon></g><g transform="translate(-375.0481255 -1517.8794781) rotate(0)"><polygon id="240737270" class="tile" points="403.0568498,1834.28978644 446.49406769,1834.21575071 446.589178388,1796.15078076 446.482595677,1788.88382537 440.503179994,1788.89207306 403.027968185,1788.95529027 403.0568498,1834.28978644 " moovel_rot="-81.6" moovel_centroid="424.791447474,1811.57803179"></polygon></g><g transform="translate(90.07033129999999 -593.5616001) rotate(0)"><polygon id="393391807" class="tile" points="0.0,1447.55558244 22.0445430027,1447.68970974 21.4547643414,1512.04054929 0.0656261214986,1524.5460348 0.0,1447.55558244 " moovel_rot="-0.7" moovel_centroid="10.563136809211938,1482.86097667"></polygon></g><g transform="translate(2.4173446999999992 -2175.7924241) rotate(0)"><polygon id="299950364" class="tile" points="24.1733419709,2190.63113969 26.4322502023,2205.8391098 31.2045510303,2204.97127131 32.7520598743,2216.25067833 33.2235705715,2219.70112548 35.037466199,2234.59709138 22.0692763243,2236.51469918 21.2083455037,2230.93443259 16.1249660544,2234.41810378 18.6901526079,2238.53241285 3.77033680379,2248.97401034 0.0,2243.34125528 13.3413797418,2233.92667712 12.3667643124,2228.5037084 4.5984520521,2229.96086036 0.0474667031318,2203.1236603 3.96884946786,2202.59526426 2.2249729,2190.67374283 6.90581936203,2189.8147292 6.24529841915,2185.49360961 12.5151648827,2184.74062221 13.0597925685,2187.6500338 13.7753248924,2192.12116565 24.1733419709,2190.63113969 " moovel_rot="53.9" moovel_centroid="16.327791661727165,2215.29338282"></polygon></g><g transform="translate(-15.980431499999995 -773.3243137999999) rotate(0)"><polygon id="241844811" class="tile" points="100.201214189,1788.93087228 66.9952242959,1788.88382537 67.0216848344,1828.43022284 100.227658899,1828.47732605 100.201214189,1788.93087228 " moovel_rot="15.7" moovel_centroid="83.6114494949,1808.68056007"></polygon></g><g transform="translate(-229.4380051 -552.6557506000001) rotate(0)"><polygon id="389547532" class="tile" points="318.732147263,1618.79538635 343.861060074,1617.52510783 344.250874251,1568.13144313 318.658133959,1567.81198086 318.732147263,1618.79538635 " moovel_rot="-93.7" moovel_centroid="331.308484238,1592.98991993"></polygon></g><g transform="translate(-433.45556739999995 -1137.1341256) rotate(0)"><polygon id="250613656" class="tile" points="455.884322121,1630.1111741 436.034430438,1630.09684617 436.05067191,1604.4186322 436.737553866,1604.42526911 436.745299178,1593.58127809 435.955558782,1593.58697137 435.978485944,1567.81198086 455.930032791,1567.82265016 455.884322121,1630.1111741 " moovel_rot="7.9" moovel_centroid="446.018140849,1598.9213688"></polygon></g><g transform="translate(-227.9390495 -1680.7710836) rotate(0)"><polygon id="108325086" class="tile" points="254.887409528,1848.16779618 275.806547787,1848.09672385 275.828702429,1788.88382537 254.90949313,1788.95481908 254.887409528,1848.16779618 " moovel_rot="-42.1" moovel_centroid="265.358035903,1818.52577436"></polygon></g><g transform="translate(-96.8037778 -1242.9620679) rotate(0)"><polygon id="370606184" class="tile" points="201.161014794,1788.88461081 226.980047698,1788.88382537 227.066024618,1836.8769049 201.091831945,1837.17341608 201.127270609,1813.11243928 201.161014794,1788.88461081 " moovel_rot="-62.3" moovel_centroid="214.061759355,1812.97880807"></polygon></g><g transform="translate(-445.70849319999996 -1779.5803652) rotate(0)"><polygon id="250268340" class="tile" points="579.247126201,1831.88974463 579.240059268,1830.36961325 559.071612164,1830.38822165 559.038584561,1788.90865635 588.711942994,1788.88382537 588.744903168,1830.36341736 583.413079271,1830.36963245 583.409525317,1831.8867853 579.247126201,1831.88974463 " moovel_rot="68.4" moovel_centroid="573.929866295,1809.74576124"></polygon></g><g transform="translate(74.6603993 -711.9229974) rotate(0)"><polygon id="351681185" class="tile" points="137.244626947,1840.10552388 150.494157653,1839.4091859 150.204062817,1822.67967373 142.932342626,1823.11756191 143.435207481,1805.89562617 152.288949497,1805.38232873 152.388707359,1808.20254598 165.494162624,1807.6835197 165.468507395,1788.88382537 127.211918774,1789.5652139 127.201168429,1811.59280638 136.050792664,1811.31568592 137.244626947,1840.10552388 " moovel_rot="-25.9" moovel_centroid="144.704673312,1807.40552216"></polygon></g><g transform="translate(155.1445697 -466.20681030000014) rotate(0)"><polygon id="412107601" class="tile" points="54.5657629764,1447.55558244 68.9516926298,1450.3614746 68.7698881665,1452.41378163 70.7650838427,1452.66811559 70.340990149,1455.23637006 69.0141605631,1463.12329318 64.6057005636,1462.84999645 64.707083955,1463.85251448 69.0484479137,1464.07069831 68.6003126983,1479.29563283 64.453967518,1479.12414601 64.473837286,1482.48831156 68.2581789793,1482.81639188 68.4048803702,1484.9002059 64.158251312,1484.41937011 64.7034330953,1489.25910176 65.5635060063,1491.46359031 65.8156774262,1492.7034497 64.4144534416,1519.39055664 63.7309050728,1527.1362298 55.1543607645,1527.13882561 53.4210095078,1479.99161455 61.2617310453,1480.19031641 61.2839150177,1474.09162887 53.3318661001,1474.02845918 53.3276345594,1448.54728534 54.5657629764,1447.55558244 " moovel_rot="39.4" moovel_centroid="60.5131668117,1483.92285476"></polygon></g><g transform="translate(-278.9832603 -1294.4025202999999) rotate(0)"><polygon id="357531025" class="tile" points="460.026655401,1980.7901953 460.075661376,1995.07085156 455.581250364,1995.13144872 455.219499292,2040.09479232 469.701968703,2043.014706 469.647584647,1994.60287617 467.121444387,1989.8746847 466.969454558,1981.56800495 460.026655401,1980.7901953 " moovel_rot="-48.0" moovel_centroid="462.779157274,2014.36122555"></polygon></g><g transform="translate(-65.7555572 -901.7310475999999) rotate(0)"><polygon id="286996646" class="tile" points="119.710175187,1567.81198086 142.083879226,1569.12226836 141.890126429,1572.48364532 140.047596624,1599.27600402 139.257884892,1606.54976501 132.787501318,1606.33396408 119.742157892,1605.44404347 119.727648421,1592.87021931 119.710175187,1567.81198086 " moovel_rot="-20.2" moovel_centroid="130.277438907,1586.8642091"></polygon></g><g transform="translate(-200.8785787 -1230.9428736999998) rotate(0)"><polygon id="224707884" class="tile" points="407.952547822,1450.17349274 408.117972643,1560.19559822 403.236908853,1558.43774022 403.930618395,1447.55558244 407.952547822,1450.17349274 " moovel_rot="-94.2" moovel_centroid="405.800977166,1505.858585"></polygon></g><g transform="translate(-41.01848960000001 -1159.9821666) rotate(0)"><polygon id="185169187" class="tile" points="117.452037492,1504.14224368 124.631278744,1504.15380531 129.745165472,1504.15771322 129.777442918,1447.56257431 124.576436225,1447.56378493 117.477274586,1447.55558244 117.452037492,1504.14224368 " moovel_rot="2.4" moovel_centroid="123.6131303,1475.85350382"></polygon></g><g transform="translate(-409.7972826 -1242.4201632000002) rotate(0)"><polygon id="265512009" class="tile" points="464.369035086,1477.4960438 464.365981623,1447.56204657 478.865092065,1447.55882006 488.363211013,1447.55558244 488.313272415,1477.55713692 464.369035086,1477.4960438 " moovel_rot="61.0" moovel_centroid="476.357376995,1462.53736218"></polygon></g><g transform="translate(-319.12011699999994 -46.1356201000001) rotate(0)"><polygon id="376403747" class="tile" points="544.648649941,1246.13565643 529.888874115,1246.13357582 529.853399498,1201.0 544.613192776,1201.00207785 544.648649941,1246.13565643 " moovel_rot="81.0" moovel_centroid="537.251029155,1223.5678230776323"></polygon></g><g transform="translate(-377.3276144 -1344.6651249) rotate(0)"><polygon id="412123941" class="tile" points="439.347644809,1476.11212989 439.328862637,1447.65112784 463.350522105,1447.55558244 463.365981623,1476.02237877 439.347644809,1476.11212989 " moovel_rot="-60.6" moovel_centroid="451.348659166,1461.83497471"></polygon></g><g transform="translate(-394.88108400000004 -1471.4790324) rotate(0)"><polygon id="247866943" class="tile" points="525.329282785,2012.42162099 501.310624355,2009.29815619 501.289129861,1980.80011426 513.17560533,1980.7901953 513.177545929,1985.79394522 525.310635347,1985.7925224 525.31569331,1988.71477773 525.315606023,1991.9685306 525.326004768,2003.88045136 525.329282785,2012.42162099 " moovel_rot="-16.7" moovel_centroid="512.993053749,1996.99122327"></polygon></g><g transform="translate(-80.35126059999999 -1640.29691) rotate(0)"><polygon id="194665129" class="tile" points="228.102963615,1817.698921 232.330669829,1817.70475228 251.691934867,1817.67009453 252.107522731,1817.66834015 253.876396669,1817.66989321 253.881586589,1810.52637339 253.887409528,1788.88382537 234.557202568,1794.27896223 228.066024618,1796.08815869 228.102963615,1817.698921 " moovel_rot="4.6" moovel_centroid="241.59450011,1804.99767322"></polygon></g><g transform="translate(-227.88922760000003 -465.45172879999996) rotate(0)"><polygon id="356967636" class="tile" points="304.541079015,1201.05690923 304.927645935,1223.06463319 300.477518288,1222.89119121 300.389142276,1232.04239014 283.680858489,1231.76386371 283.687702652,1228.15860819 283.680383611,1201.0 304.541079015,1201.05690923 " moovel_rot="-77.4" moovel_centroid="293.691051673,1215.8007992131418"></polygon></g><g transform="translate(118.56918560000001 -1396.8307243) rotate(0)"><polygon id="255352373" class="tile" points="84.5028361524,2004.91391387 108.568801083,2004.9037455 108.567069708,1993.14034193 108.412023867,1980.7901953 84.4859677505,1980.79942271 84.5028361524,2004.91391387 " moovel_rot="61.1" moovel_centroid="96.5110738527,1992.86366236"></polygon></g><g transform="translate(-338.8610194 -1442.3098420000001) rotate(0)"><polygon id="185329233" class="tile" points="402.224734061,1466.88741478 402.232623348,1455.97574829 402.236908853,1447.57862245 378.146159477,1447.55558244 378.131667488,1476.34317205 379.826604776,1476.34466978 386.143473048,1476.35819673 386.153137164,1466.87117732 402.224734061,1466.88741478 " moovel_rot="4.5" moovel_centroid="389.056640836,1459.24152691"></polygon></g><g transform="translate(-352.8956601 -1114.7338413) rotate(0)"><polygon id="442637490" class="tile" points="536.826922184,1591.87101625 556.23051208,1591.85171835 556.228567517,1567.81198086 536.824967554,1567.83127747 536.826922184,1591.87101625 " moovel_rot="-82.7" moovel_centroid="546.527742246,1579.8414972"></polygon></g><g transform="translate(-200.5438665 -721.275811) rotate(0)"><polygon id="240453791" class="tile" points="374.883437811,1201.07924182 374.874034752,1223.53121291 354.633547181,1223.45627853 354.640206799,1204.40547206 354.650563617,1201.0 374.883437811,1201.07924182 " moovel_rot="60.5" moovel_centroid="364.758125806,1212.2668773157527"></polygon></g><g transform="translate(30.027839900000018 -1099.0669249000002) rotate(0)"><polygon id="272946615" class="tile" points="98.1485686697,1472.98706848 98.1437104281,1453.12974586 111.202453919,1453.07518963 111.198214502,1447.57863935 116.418162585,1447.55558244 116.452037492,1472.72970808 98.1485686697,1472.98706848 " moovel_rot="-50" moovel_centroid="107.758966584,1462.0459144"></polygon></g><g transform="translate(69.05907200000001 -1318.8308525) rotate(0)"><polygon id="323057184" class="tile" points="143.098655515,1593.75789894 143.083879226,1574.44996249 154.256203539,1574.45589196 154.243838091,1567.81198086 160.144684083,1567.8162083 160.155022377,1576.73849393 164.957355454,1576.74296741 164.958067158,1579.76236528 163.283295673,1579.75964523 163.296110576,1586.99661047 153.302379229,1586.99308758 153.304753052,1593.75966856 143.098655515,1593.75789894 " moovel_rot="82.3" moovel_centroid="152.65050657,1581.60068791"></polygon></g><g transform="translate(-260.2918229 -599.7179563) rotate(0)"><polygon id="222664801" class="tile" points="310.602081994,1447.90669004 311.195602251,1496.31283896 317.166120651,1496.78121946 317.214214922,1447.55558244 310.602081994,1447.90669004 " moovel_rot="56.0" moovel_centroid="314.051036494,1471.72131339"></polygon></g><g transform="translate(-246.83527120000002 -907.0261786000001) rotate(0)"><polygon id="266174999" class="tile" points="293.998342159,1472.69792441 309.602081994,1472.15945793 309.169624305,1447.55558244 294.015043331,1449.19703854 293.998342159,1472.69792441 " moovel_rot="-94.6" moovel_centroid="301.757198229,1460.45547933"></polygon></g><g transform="translate(-28.086375200000006 -1806.7858356) rotate(0)"><polygon id="351235531" class="tile" points="73.8237903208,1980.7901953 73.79923019,2000.83804757 55.6294073712,2000.82809249 55.6567192316,1983.26105165 55.6388802551,1980.81774404 59.7006463349,1980.79303644 73.8237903208,1980.7901953 " moovel_rot="-7.8" moovel_centroid="64.7296318765,1990.81380709"></polygon></g><g transform="translate(-75.41116199999999 -46.85696690000009) rotate(0)"><polygon id="386904213" class="tile" points="307.835396326,1201.0 305.927645935,1236.30563512 319.243093419,1237.33120692 319.229557673,1223.96931244 307.835396326,1201.0 " moovel_rot="60.2" moovel_centroid="312.081658887,1223.8777031073066"></polygon></g><g transform="translate(31.916173300000004 -1968.9878594000002) rotate(0)"><polygon id="343290229" class="tile" points="51.6306082886,2185.63171618 61.2772541787,2184.74062221 61.6051861357,2214.86244139 51.5835181771,2215.06607053 51.6306082886,2185.63171618 " moovel_rot="1.6" moovel_centroid="56.544072796,2200.1679166"></polygon></g><g transform="translate(-263.0609597 -440.1918078) rotate(0)"><polygon id="292846303" class="tile" points="409.22038353,1447.55558244 421.446682089,1447.61992871 421.38373403,1459.43841066 422.033537605,1459.44308205 421.982390617,1470.25389304 422.03058001,1471.14860346 420.939763018,1471.14509528 414.515543263,1471.10803294 414.53269028,1468.13512518 409.117972643,1468.10603943 409.175014576,1461.93751305 409.205793709,1453.37048691 409.22038353,1447.55558244 " moovel_rot="-28.7" moovel_centroid="415.655356719,1458.92166346"></polygon></g><g transform="translate(-476.2929856 -881.2985295) rotate(0)"><polygon id="317725583" class="tile" points="489.855895668,1225.20069669 479.183896473,1225.2377709 479.183676493,1201.04228794 489.859850471,1201.0 489.855895668,1225.20069669 " moovel_rot="-51.5" moovel_centroid="484.52102092,1213.1193995624885"></polygon></g><g transform="translate(-431.06010779999997 -816.5466748000001) rotate(0)"><polygon id="220792591" class="tile" points="440.358634297,1985.1976507 440.636025447,1998.41253117 440.530105452,2009.01251363 439.357191135,2016.77529102 433.547107287,2012.06468777 434.656488572,2001.22418156 434.333145958,1990.34529014 433.558117923,1980.7901953 440.358634297,1985.1976507 " moovel_rot="44.9" moovel_centroid="437.299396499,1998.82971833"></polygon></g><g transform="translate(-72.3636251 -1475.5398045) rotate(0)"><polygon id="299854198" class="tile" points="79.7786213648,1980.7901953 74.8293345585,1987.47207231 75.8136699613,1990.56511055 76.7092474334,1996.73404166 76.9984259952,2003.59667997 76.0018584721,2010.43773225 74.8237903208,2015.63261122 82.1173957497,2012.1886571 82.8923001207,2008.7008923 83.4859677505,2003.93739473 83.4608980738,1995.90519977 82.0926055279,1989.0225242 79.7786213648,1980.7901953 " moovel_rot="25.6" moovel_centroid="79.4373080591,1998.85087381"></polygon></g><g transform="translate(-213.532206 -1124.6834686000002) rotate(0)"><polygon id="299598618" class="tile" points="246.431816756,1462.24498783 244.300123493,1462.35604798 232.095268034,1462.02236739 232.413947719,1450.42390746 234.857766857,1450.49516463 234.938232709,1447.55558244 246.38537907,1447.77442812 246.243257215,1452.89189359 246.407735578,1457.17693363 246.431816756,1462.24498783 " moovel_rot="57.8" moovel_centroid="239.533017798,1455.18670246"></polygon></g><g transform="translate(-163.4586858 -1365.0881395000001) rotate(0)"><polygon id="375468791" class="tile" points="178.451227708,1567.81198086 178.442150419,1582.86040344 166.27995479,1582.71034878 165.958067158,1568.22471707 178.451227708,1567.81198086 " moovel_rot="-90.3" moovel_centroid="172.321396145,1575.36781893"></polygon></g><g transform="translate(-42.0391841 -854.4587389) rotate(0)"><polygon id="299944940" class="tile" points="52.3276345594,1447.76527481 44.539179248,1447.55558244 44.5724912027,1468.11265248 52.157632778,1468.14407655 52.3276345594,1447.76527481 " moovel_rot="-61.6" moovel_centroid="48.3939065016,1457.84906664"></polygon></g><g transform="translate(-414.1644834 -1559.7453848999999) rotate(0)"><polygon id="298607599" class="tile" points="443.656300847,1980.7901953 441.636025447,1984.07220494 441.63711501,1988.29726301 441.64187396,1996.83293996 442.945031307,1998.54450288 446.017961536,1999.63165654 447.28637523,1991.99425274 451.663209829,1992.7232195 453.229320194,1993.10116486 454.219499292,1987.13220967 453.218519973,1984.7517011 452.163970995,1982.2548151 443.656300847,1980.7901953 " moovel_rot="57.4" moovel_centroid="446.931276175,1988.83033765"></polygon></g><g transform="translate(-390.0360108 -1528.7719608) rotate(0)"><polygon id="300863063" class="tile" points="434.955558782,1567.81198086 432.396885177,1567.9492155 432.489536093,1592.35416245 434.92055544,1592.31512347 434.955558782,1567.81198086 " moovel_rot="7.6" moovel_centroid="433.691307332,1580.00323186"></polygon></g><g transform="translate(-138.5729141 -404.9278215999999) rotate(0)"><polygon id="300089565" class="tile" points="163.405774026,1201.0 158.335627317,1203.53762701 156.173792922,1204.68749333 156.174541971,1215.83526405 158.323820317,1214.70331599 163.798030852,1211.82745444 163.405774026,1201.0 " moovel_rot="-31.3" moovel_centroid="159.881182543,1208.3778540220483"></polygon></g><g transform="translate(-79.375506 -1186.0581409000001) rotate(0)"><polygon id="270200275" class="tile" points="113.803458716,1981.18868131 113.809239117,1996.63703797 109.568801083,1996.53297992 109.698805364,1980.7901953 113.803458716,1981.18868131 " moovel_rot="47.8" moovel_centroid="111.713163993,1988.82873526"></polygon></g></g><g transform="translate(0 1327.7)"><polygon id="4" class="bin" points="-196.865353207,728.546469701 -198.80483794,732.294876956 -206.086429194,802.419709007 -204.845539333,806.619102732 -200.514641116,808.995854401 -200.016870769,809.618998167 -195.168816346,812.297853266 -159.147638873,816.32676158 -156.715552451,817.615047361 -155.818027642,820.216810963 -156.938513569,822.730620008 -211.645598494,876.39265499 -211.813609768,876.221371755 -213.016714615,877.00028293 -212.855867843,877.335544226 -220.087244155,880.804908429 -222.732724205,883.370041776 -223.303478431,887.010469415 -222.038081472,894.510990045 -221.986351646,895.072127414 -221.954355785,896.985441546 -221.930333358,897.45604957 -221.707283106,900.065170657 -221.69514873,900.278743118 -221.528291216,906.188014794 -221.528112598,906.393177433 -223.346410515,975.02368315 -223.137789301,976.894722564 -222.994702323,977.458456268 -222.13898994,979.444698535 -221.417235589,980.583204403 -221.377924441,980.609859924 -220.144771296,982.459639167 -215.094006971,987.564296743 -212.132142526,988.823344369 -210.106778728,990.908575443 -210.180026448,993.814590225 -212.027211169,997.915456383 -211.17480642,1000.24586828 -211.217317717,1000.71940749 -209.188679162,1006.66411504 -200.836674227,1015.48410771 -200.409280295,1016.02829895 -199.799257446,1016.97300433 -199.741567518,1017.06525499 -198.531142042,1019.06477066 -198.455228464,1019.19609741 -197.339015058,1021.22051803 -197.301661041,1021.28998295 -196.761089646,1022.32110063 -196.615816418,1022.63202433 -196.38320326,1023.19580605 -196.257208594,1025.70137676 -197.739070416,1027.72569018 -200.165572257,1028.36275225 -203.9650924,1028.04160081 -208.1854973,1029.40350288 -210.176943743,1033.36591829 -212.552900517,1067.62413214 -211.202248559,1071.74187211 -207.361295395,1073.74864115 -205.628086708,1073.91425677 -202.723172291,1075.79675456 -190.058504014,1098.11901679 -189.771815587,1098.58077982 -189.576918319,1098.86864188 -188.979015508,1101.5620839 -190.385639216,1103.9355892 -195.800691577,1108.13038848 -197.97087801,1111.84689036 -196.956906258,1116.02946811 -195.109433104,1118.61172599 -194.468048568,1121.45515101 -196.056858837,1123.89894353 -215.462751842,1137.03772085 -217.911656987,1140.90639592 -216.742260799,1145.33316627 -190.932217821,1177.94018763 -190.53888286,1178.3947578 -169.015669652,1201.1745966 -167.992106122,1203.82088655 -169.114967734,1206.42659463 -171.741436056,1207.499999 -445.259656826,1207.499999 -447.911307256,1206.40164943 -449.009656826,1203.749999 -449.009656826,3.75 -447.911307256,1.09834957055 -445.259656826,0.0 -290.934880418,0.0 -288.247438135,1.13463119659 -287.186265641,3.85191787849 -287.317038043,8.66182332068 -287.307117976,9.262336712 -282.682115355,85.9749936048 -280.942226917,90.1288855412 -276.459839398,95.1065073179 -275.550264635,96.9831129484 -270.349843407,127.359388168 -270.219330952,127.959269023 -260.474431998,164.754904433 -260.187729711,165.607527415 -248.823255789,193.264987998 -248.576557095,193.799125062 -235.355298417,219.477237589 -234.966420519,220.138908167 -221.074661901,241.012817824 -220.061350834,242.211683137 -192.276614721,268.33380547 -190.925350864,269.323819572 -170.313564598,280.854644311 -168.455162235,283.455031202 -169.276801004,286.543814305 -172.18160328,287.87715412 -227.10833318,287.332260566 -231.176427288,288.963051764 -232.912101884,292.987514871 -235.761196572,471.046791877 -234.137678855,475.141822574 -230.091431697,476.883365029 -150.93781336,477.911839617 -148.259026512,479.087965217 -147.240343174,481.830492274 -148.501787116,484.470175888 -169.32917465,502.895663334 -169.888460359,503.304944259 -194.518674169,518.042517162 -195.151331295,518.470528792 -203.636548935,524.926283316 -205.871028163,529.469716198 -203.579796355,533.984794999 -199.086441162,537.315388336 -197.572468193,540.477476158 -199.677274725,593.249949763 -198.215077472,597.31690107 -194.334186267,599.218688966 -194.223607204,599.226513606 -191.640922471,600.526882839 -190.75121775,603.27818182 -194.216816575,644.919116471 -194.432067974,645.89620399 -196.352655302,651.147296706 -196.135860269,655.603845349 -195.111987938,656.508573407 -193.852500879,659.554288728 -197.2725825,713.881313985 -196.014841421,717.85387088 -195.694218546,718.039662423 -194.193802872,719.661244914 -193.866707984,721.846144433 -194.433756904,725.587987937 -196.865353207,728.546469701 " moovel_rot="0" moovel_centroid="-331.38145213029037,635.2463692070788" transform="translate(449.0096436 0)"></polygon><g transform="translate(-543.1486221000002 -107.32348620000016) rotate(0)"><polygon id="443361973" class="tile" points="573.850548473,1201.0 573.966718758,1307.31561082 545.698278318,1307.32346447 545.648649941,1262.0014631 549.24896588,1262.0053154 549.239330819,1257.4095954 562.624739681,1257.40797443 562.562415664,1201.00052903 573.850548473,1201.0 " moovel_rot="7.9" moovel_centroid="562.548982733,1265.8835001970717"></polygon></g><g transform="translate(-284.45798879999995 -66.66466949999995) rotate(0)"><polygon id="280170298" class="tile" points="328.282932271,1266.62345464 326.782718409,1266.62063942 323.256388257,1266.61621 323.281068708,1255.45127022 321.828988878,1255.44522302 321.834245614,1252.94817231 323.27811499,1252.95111704 323.287443441,1249.07756446 321.843573768,1249.07461962 321.840591029,1247.14566395 323.292671501,1247.15171138 323.308085757,1236.48307762 320.243093419,1236.47447058 320.252371435,1231.50846274 323.3197255,1231.5108221 323.338415036,1220.95766765 321.67972784,1220.9520912 321.686608057,1218.79837904 323.33708478,1218.80085301 323.343944576,1214.98348845 321.749814275,1214.9808857 321.759790812,1212.47133824 323.353921325,1212.47394107 323.373370482,1201.0 352.687487892,1201.0454183 352.672151667,1210.00045613 353.617110055,1210.00766096 353.614136077,1211.97720642 352.666816869,1211.97624961 352.660828531,1218.72138689 353.570583072,1218.7224294 353.567293197,1220.84179771 352.657538758,1220.84075524 352.634607689,1231.72789192 352.625624563,1238.77892211 352.608581374,1246.86936212 353.601673706,1246.87333494 353.598593058,1248.89282083 352.605500832,1248.88884806 352.600530144,1255.70577093 353.633547181,1255.70340971 353.632616644,1257.81652944 352.591389118,1257.81578817 352.578614117,1266.66469222 328.282932271,1266.62345464 " moovel_rot="-69.3" moovel_centroid="337.799982767,1233.8293633479086"></polygon></g><g transform="translate(-412.25822569999997 -727.6928253000001) rotate(0)"><polygon id="252080163" class="tile" points="478.199256153,1857.17314248 447.589178388,1820.79877649 450.454608176,1818.38221772 447.817193891,1815.24660767 479.12162212,1788.88382537 488.385380613,1799.88773739 464.381826694,1820.10135428 488.365551404,1848.60740911 478.199256153,1857.17314248 " moovel_rot="-43.9" moovel_centroid="468.965755123,1821.82456452"></polygon></g><g transform="translate(-468.2256484 -957.0188537) rotate(0)"><polygon id="298417639" class="tile" points="500.265162218,1984.06613141 492.888571716,1980.7901953 491.54436877,1983.54776193 490.035544527,1982.81374433 486.651788392,1989.78674962 478.409816896,2006.7277639 480.32156313,2007.65212199 475.531516081,2017.49679307 473.398639895,2022.29086942 470.701968703,2028.36160547 472.752585342,2029.33598521 486.330366498,2035.77975483 496.748156017,2039.90602588 500.289129861,2041.35171039 500.277463214,2033.37038384 500.265162218,1984.06613141 " moovel_rot="70.5" moovel_centroid="489.626253084,2013.20515238"></polygon></g><g transform="translate(-211.0765403 -557.986888) rotate(0)"><polygon id="178999293" class="tile" points="247.369646607,1575.26451149 247.465827096,1576.5961986 248.57283054,1590.8558516 248.771702738,1597.84957266 249.02026676,1606.79230559 249.297609338,1616.53145904 273.082369474,1616.75509044 273.11173023,1567.81198086 271.560871895,1568.07265627 247.369646607,1575.26451149 " moovel_rot="51.5" moovel_centroid="261.162591816,1593.66537033"></polygon></g><g transform="translate(-422.371714 -780.904823) rotate(0)"><polygon id="185605917" class="tile" points="509.796459148,1807.82735513 513.496979112,1807.81227159 513.501932557,1788.88382537 489.407717833,1788.96876978 489.385380613,1837.20196969 512.780345516,1837.12346609 512.78500005,1821.05801532 509.623242225,1821.078387 501.61309277,1821.10442769 501.616953056,1807.84868625 509.796459148,1807.82735513 " moovel_rot="-49.3" moovel_centroid="500.344580255,1812.63791737"></polygon></g><g transform="translate(-345.62649270000003 -328.4230338) rotate(0)"><polygon id="299598650" class="tile" points="433.003727573,1527.7017568 438.328862637,1526.91746193 437.968408566,1526.35524071 435.429933442,1508.77481888 434.270178662,1500.42371942 433.76213283,1492.09125605 433.828990722,1486.39591098 435.882605365,1466.11263519 435.991570113,1462.40835127 436.736986181,1458.19215911 436.828777831,1457.31792001 438.277190731,1448.68779263 432.649784481,1447.79039466 427.125626623,1447.55558244 424.474309251,1462.1009406 423.284752733,1473.61907277 423.183474231,1480.99854408 423.033537605,1489.2596009 423.038923024,1490.68924864 423.086244473,1491.87296084 423.154345041,1492.69827299 423.625497736,1503.36755666 425.519947541,1517.75754077 427.255730885,1528.4465734 433.003727573,1527.7017568 " moovel_rot="-14.0" moovel_centroid="429.999697322,1487.43087181"></polygon></g><g transform="translate(-521.9437333999999 -1017.2200571) rotate(0)"><polygon id="412123950" class="tile" points="526.329282785,1980.7901953 540.979252785,1981.0882951 540.533379717,2009.53310523 536.180892346,2009.9423021 536.436142044,2014.90313416 536.150424243,2020.18262111 547.973465018,2020.24164736 547.974169943,2014.76059768 543.315740892,2014.81532919 543.651800174,2008.02265756 569.762561371,2008.43681114 569.929238811,2017.96245207 550.993061431,2018.32262416 550.73992059,2020.2349471 555.708612417,2020.17438282 555.753994305,2038.64954558 526.359102584,2038.22117256 526.532531865,2007.3552369 530.52508915,2007.56865043 530.470127735,2005.48201123 526.493351998,2004.87447941 526.329282785,1980.7901953 " moovel_rot="29.5" moovel_centroid="541.133225468,2014.31102866"></polygon></g><g transform="translate(-92.16402369999999 -143.58892200000014) rotate(0)"><polygon id="347320347" class="tile" points="188.059063341,1201.0 197.012727213,1209.67876137 191.714443814,1215.84845942 182.591727978,1226.08754815 185.07980036,1228.1878124 175.873590921,1239.09321765 196.97350002,1257.21476237 193.30023085,1266.03975733 183.942356988,1255.52599269 180.757247769,1257.11757943 164.798030852,1227.4943837 188.059063341,1201.0 " moovel_rot="-41.1" moovel_centroid="181.530619024,1230.5851738098295"></polygon></g><g transform="translate(-104.256743 -74.85458100000005) rotate(0)"><polygon id="393413919" class="tile" points="202.062518902,1201.0 201.967590231,1234.39520252 198.012727213,1233.9296016 198.302376345,1249.24434246 202.025308361,1249.90019554 202.054163387,1253.04679793 205.134769333,1253.53851473 212.936854297,1254.76815264 212.90462544,1203.75686201 204.376712803,1202.46997079 202.062518902,1201.0 " moovel_rot="5.2" moovel_centroid="206.749329685,1229.6709112073047"></polygon></g><g transform="translate(-227.2176177 -822.4426535000001) rotate(0)"><polygon id="220770143" class="tile" points="300.585593916,1813.72382981 277.535391988,1813.58672554 276.828702429,1789.29325251 300.617786218,1788.88382537 300.585593916,1813.72382981 " moovel_rot="1.8" moovel_centroid="288.934046006,1801.30641788"></polygon></g><g transform="translate(6.304229199999995 -487.3515844000001) rotate(0)"><polygon id="237871134" class="tile" points="82.0119187459,1447.55558244 71.779868813,1453.27387969 85.1178924497,1476.14118036 71.7650838427,1483.93125614 73.2481226727,1486.58843385 75.7247582396,1490.6165449 82.5148614604,1486.60472373 85.2694283178,1485.00274231 88.7786590293,1482.95258056 97.1437104281,1477.81391709 82.0119187459,1447.55558244 " moovel_rot="-61.4" moovel_centroid="83.6231758742,1469.4683165"></polygon></g><g transform="translate(-205.5102743 -775.0658896) rotate(0)"><polygon id="317378540" class="tile" points="313.894471904,1788.931651 313.867556676,1827.54854659 301.617786218,1827.50070402 301.644671134,1788.88382537 313.894471904,1788.931651 " moovel_rot="60.8" moovel_centroid="307.75612194,1808.21617379"></polygon></g><g transform="translate(1.0732414999999946 -497.76099039999997) rotate(0)"><polygon id="223631877" class="tile" points="43.5383550191,1481.93794316 43.539179248,1455.89336986 34.5252816994,1447.55558244 24.0445430027,1459.45699233 32.7094441839,1461.16212992 34.1625475004,1465.09267265 31.4928926956,1468.51797357 31.1247071924,1470.22132713 31.3119561812,1471.00829664 34.8082628245,1471.50493819 33.9858067416,1476.92117475 31.0250694396,1476.47104025 29.944170945,1477.39338634 29.5356235839,1479.39699338 31.051822388,1483.14533873 28.7956067737,1486.30737293 43.5383550191,1481.93794316 " moovel_rot="79.1" moovel_centroid="36.5520190556,1466.69808855"></polygon></g></g></svg>