<svg xmlns="http://www.w3.org/2000/svg" version="1.1" width="592.5px" height="1200px">
  <polygon id="429027547" class="tile" points="225.214878728,-2.5 308.928802237,34.9912100915 315.137304063,19.2004400026 367.30039625,28.8421819542 352.677117359,83.0754710831 311.883442824,176.450511025 300.337496668,204.714545177 225.19960375,165.032361555 225.214878728,-2.5 " mydata_rot="23.9" mydata_centroid="283.92651711493875,95.17542234871003"/>
  <polygon id="90145475" class="tile" points="339.212145519,469.26548175 254.882048902,414.352536399 334.403883618,272.287591379 368.736065856,230.18108363 344.380106689,209.714545177 309.62664347,252.906399849 223.611051451,405.641291985 309.113357815,594.427098563 344.979897435,577.904656189 368.888948549,566.759077692 362.251456353,555.490851987 365.297346108,553.285840866 353.656310255,533.523283625 365.590039588,526.7030782 339.212145519,469.26548175 " mydata_rot="59.5" mydata_centroid="300.7591795143504,432.97556488763996"/>
  <polygon id="275731246" class="tile" points="260.793380023,599.427098563 324.057056871,600.412617532 318.521559579,949.454486338 339.171764104,949.621855505 339.127961421,1024.6350614 329.536157033,1051.11022685 304.440705151,1050.5266157 298.099684136,1050.37651124 258.116423522,1049.45045205 253.47000002,1045.64980022 255.041805014,974.004389464 267.657191274,974.07484532 268.432614577,948.914454223 253.328235896,948.359929913 253.413336773,942.276049939 261.241859185,926.762979693 258.07828161,925.126730726 253.940854312,922.99517437 255.458123352,887.137988009 258.596508317,884.73271111 260.513790459,883.261761519 261.077529987,863.800760306 280.131781989,863.830472695 280.788931991,864.19524588 281.484669784,845.727805426 263.089373603,845.29783799 265.67099744,782.195947393 271.699200889,782.506088525 272.197483568,679.628368409 260.740470218,679.674145952 260.793380023,599.427098563 " mydata_rot="-67.6" mydata_centroid="294.10291361059046,840.5639743718313"/>
  <polygon id="182759603" class="tile" points="236.410449767,1245.492468 316.405615347,1298.40505119 341.093749644,1268.43910513 348.836930624,1247.3617107 352.503681078,1237.37628875 356.098891632,1206.2551731 352.067461335,1175.5825624 341.887207454,1143.31472208 323.450926044,1113.77973971 301.438467179,1090.17553817 290.08599018,1077.99154636 267.034313922,1056.11022685 252.833212247,1065.09571993 259.547986037,1080.05721329 253.515567899,1082.82126371 236.401108368,1098.78859457 247.881729826,1125.12717614 255.457740674,1149.88544882 258.981543695,1183.8441615 255.282654221,1208.37459601 245.678730917,1231.32152945 236.410449767,1245.492468 " mydata_rot="51.7" mydata_centroid="296.7769255707081,1183.7682742193103"/>
  <polygon id="329871559" class="tile" points="223.177496408,1929.03981588 210.997794052,1921.64182465 195.852458671,1907.66690823 193.993838635,1905.94821436 180.933214269,1886.69960006 170.136151235,1861.77285405 165.198319283,1837.97925912 163.682660844,1792.88497702 156.176550135,1669.8137947 151.509512401,1595.39224313 145.426837106,1515.33814776 143.794799706,1478.70787602 143.798834889,1440.52487322 150.571949561,1414.53642728 160.269931448,1391.35192375 172.710136954,1367.60761865 191.619853303,1345.34162768 216.520246839,1325.49474004 239.837973955,1314.5415167 260.488917349,1307.0286662 274.107463498,1305.04520666 288.34689427,1303.40505119 304.890225132,1304.22548945 328.216563439,1307.49101356 345.935882157,1311.38465829 358.827514541,1316.73023645 371.831727975,1323.35915955 388.203233763,1334.23853005 409.103972729,1352.44914521 425.300490135,1373.39333055 444.210350636,1417.73319192 447.967830543,1433.98653811 448.705200294,1459.56361229 443.331961433,1486.71899012 429.295830231,1520.15464799 412.766832771,1542.49300926 395.953864727,1554.12356163 383.774995462,1560.94011224 377.363627046,1566.81288524 376.036758894,1573.00507806 378.120972396,1577.38181104 383.500490992,1578.66560442 389.21670368,1586.47160057 400.91907328,1602.44974808 409.101275371,1613.63161605 420.024901381,1630.09226518 425.84577555,1641.77412933 429.31024144,1652.58431715 429.561455403,1661.82415208 424.893195437,1739.2542974 418.289719018,1746.58735549 412.647752352,1779.54274981 402.849961198,1816.53810018 391.40829249,1844.38342795 378.102329066,1870.22605265 364.033439553,1891.36612115 335.924878258,1917.79269125 306.191363037,1934.42647294 280.331037887,1940.26916386 248.570252241,1936.30798684 223.177496408,1929.03981588 " mydata_rot="-61.6" mydata_centroid="287.577744892502,1609.1716980137815"/>
  <polygon id="109864793" class="tile" points="251.936680547,1945.26916386 272.727948422,1950.07930432 274.083886766,1950.39683535 289.487088285,1965.77998188 305.531252911,1981.11169118 304.578072358,1981.06952824 303.545620843,1981.40275076 302.883011155,1982.00091147 302.347480475,1982.71054207 302.205021143,1983.52336979 302.711939309,1984.25895046 324.632147502,2006.04512404 331.226087526,2011.80147302 332.383908297,2011.68242144 333.361922849,2011.39781099 333.924411494,2010.50804194 334.291969725,2009.40164078 334.115446056,2007.2559589 335.825645155,2010.9004681 336.433338456,2014.01404903 336.676732286,2016.8039264 336.183374037,2020.25924789 333.708990591,2028.46068467 323.969707751,2058.61618793 316.262590261,2088.15703204 316.266028488,2093.02642184 315.824565653,2096.58714632 316.806959227,2107.35771987 317.816023598,2117.21113517 319.24176593,2134.53014535 321.690051841,2151.76909745 323.997935119,2163.18035735 330.177410826,2181.85439277 336.652564447,2195.23588167 342.4772879,2205.25890368 346.820064409,2211.56384717 372.061161161,2243.40885594 395.623391125,2274.04720521 397.003007583,2276.71469719 397.982846446,2279.20210338 398.891387028,2282.88975404 399.160367615,2286.33913254 398.601488262,2292.1605186 397.706928396,2295.11301831 395.957615257,2298.41763916 393.449944984,2302.38438128 390.727637289,2306.15316514 388.052203823,2309.84780129 385.44240763,2312.88862889 382.552995972,2315.65928948 379.305979141,2318.73313475 277.401133531,2396.84608277 273.077078088,2395.5238492 269.967408124,2392.53063895 236.23446494,2370.53102911 229.522116011,2365.92445065 217.696534568,2356.88164672 209.911864898,2349.58396624 206.580116044,2345.32960678 203.784158334,2342.20264007 199.449860488,2335.38430225 198.158635669,2332.75198237 196.170484255,2327.08473686 194.905925868,2322.43530431 193.764211981,2316.50408922 193.339632385,2309.43847987 193.578998838,2303.13504797 194.192013235,2298.79047378 195.268014662,2292.53856786 197.382906262,2282.54337404 199.504270843,2274.15038427 201.98574821,2263.03782802 202.660741272,2255.30782891 202.64832378,2248.50271148 201.728364329,2240.2832837 196.72214138,2224.60317537 194.780421525,2216.35007076 194.022451604,2209.98682659 193.447586311,2204.07141361 193.767680932,2196.00283997 194.65075367,2183.99383027 196.588330036,2171.3542243 246.588275339,1948.04220434 251.936680547,1945.26916386 " mydata_rot="32.3" mydata_centroid="277.47262252302556,2195.916315715481"/>
  <polygon id="301510354" class="tile" points="226.645917875,2401.84608277 224.611212534,2407.76035481 221.406817736,2409.79355885 205.279212159,2419.97801074 216.081916284,2445.39283787 212.275236453,2446.75666963 214.614776709,2453.24755231 219.068754522,2451.53351956 233.744974909,2487.26146083 227.322705157,2489.95125042 220.460917804,2492.7555256 215.633864924,2494.83912075 205.334764875,2498.7294197 261.735809599,2631.84271445 289.494251379,2697.36462204 294.073075613,2695.59993513 303.538576428,2691.95405465 300.630647148,2684.68545232 300.348799369,2682.54352812 301.001715351,2680.43957267 311.099697427,2660.56769231 317.865074655,2659.16861526 322.186598339,2654.08436973 325.459669745,2651.0164492 333.084223266,2626.25946888 362.107770374,2536.91217826 387.220787841,2460.61282441 381.512116992,2458.96737054 383.344846613,2452.86064341 383.845652197,2451.57708659 327.957911133,2434.00202747 283.932838047,2420.15563735 282.728654472,2424.06485139 276.891654028,2422.27119813 278.201692541,2418.05293906 226.645917875,2401.84608277 " mydata_rot="-14.6" mydata_centroid="292.1411772777621,2526.0723201855617"/>
  <polygon id="157929602" class="tile" points="260.946035802,2785.73780531 289.456284573,3036.55512271 342.596085598,3030.61152505 342.265112828,3027.72805382 348.430166735,3027.04009586 340.99863455,2955.47126863 337.619415018,2955.5683972 335.102735853,2938.96132987 339.566834345,2938.26062335 335.778232157,2878.07975355 339.157833365,2876.94305753 336.572071912,2869.87330707 332.274022389,2818.23005338 341.950719922,2817.54532454 339.632394415,2759.41942566 348.553432183,2752.80691727 339.281204202,2745.75238664 313.864708365,2730.54433919 284.138434957,2704.24622203 278.423245986,2702.36462204 243.946567817,2787.08943493 260.946035802,2785.73780531 " mydata_rot="21.9" mydata_centroid="303.97094520383433,2867.062638407237"/>
  <polygon id="5889054" class="tile" points="257.440812956,3054.16770457 254.633966121,3059.61471382 252.648201326,3065.23359887 258.315103639,3110.86918496 267.978528164,3174.04385944 271.201561265,3199.44860593 271.026978066,3225.31607278 266.366590316,3255.53830543 259.364167198,3285.75831909 253.903855582,3316.95282035 251.391417065,3349.32670991 252.269344967,3378.77641468 255.023196097,3408.13797892 255.41899821,3422.76751935 256.373003962,3429.19524237 258.317885985,3434.96398264 261.790212222,3441.19778737 265.164255492,3446.35928387 275.332573512,3454.12507119 297.374492254,3457.41301882 296.621183147,3446.99160071 312.159962532,3446.46333859 324.403699198,3447.72803454 326.411209167,3445.08021892 341.045248984,3443.81724016 340.280096334,3429.09222758 339.707894585,3417.98352342 336.461307557,3391.95237832 329.083718829,3364.95282261 325.030994176,3337.42166505 329.582530085,3277.85994636 331.152057251,3258.59550865 335.906005105,3239.7548258 341.108582935,3221.21740909 330.942073694,3086.34779094 333.062530882,3078.88529978 331.162214061,3062.14304262 316.766552644,3063.02757044 316.342167381,3059.27687846 312.702749236,3057.91500567 309.340282007,3055.47286548 305.47584347,3053.17270553 301.16734233,3052.9072077 291.196657851,3053.67159698 290.198554721,3041.55512271 273.390957583,3044.07642818 268.436708463,3045.5339354 264.593779317,3048.04236095 260.444182787,3050.86535718 257.440812956,3054.16770457 " mydata_rot="43.4" mydata_centroid="296.1868319484755,3253.9977594447196"/>
  <polygon id="309751829" class="tile" points="214.485863041,3644.08723931 378.014136959,3641.96245111 375.141198562,3462.41301882 214.60295632,3464.00561778 216.394337393,3561.28681852 250.490612148,3560.9955023 250.666063166,3580.80589281 216.567681171,3581.10354718 214.485863041,3644.08723931 " mydata_rot="-71.3" mydata_centroid="297.55575501853053,3552.9155068315"/>
  <polygon id="443136827" class="tile" points="244.995380124,3649.08723931 343.943837929,3649.33278968 359.39031686,3676.81182826 362.605430049,3689.81749597 365.93815303,3707.05844942 365.713852224,3864.89180679 245.39462368,3866.21267742 245.969723408,3803.98392731 226.815261678,3778.51317884 226.56184697,3732.68077598 241.972903243,3714.45529386 244.995380124,3649.08723931 " mydata_rot="-16.2" mydata_centroid="301.0673746800324,3758.605028392174"/>
  <polygon id="258957576" class="tile" points="436.374322103,3877.50281812 435.268768827,3995.66336368 430.802867948,3995.51657413 431.259848726,4040.95819854 424.551447113,4041.77438011 434.120241917,4093.772788 436.147637409,4113.80819414 433.257523739,4132.27709738 425.647689989,4149.67653018 415.951845496,4163.5522952 390.430922724,4187.5945224 380.526814976,4199.93963725 376.725714969,4199.0810794 365.246565194,4196.48211308 364.6858214,4196.39346989 361.879610442,4195.95645082 345.096197827,4193.34158792 336.229484214,4190.81379766 310.569303211,4179.87938704 288.431030794,4166.84783288 259.367331359,4145.44612166 233.887101672,4121.77045209 204.145160123,4085.64119794 189.955357827,4064.18628543 171.414131199,4021.64653477 163.087059657,3992.67187565 157.594033656,3944.37792916 156.291355914,3917.68715941 156.125677897,3914.23719126 156.34237676,3891.91490285 156.542080087,3871.21267742 321.551502393,3873.48524395 321.467466175,3876.75564245 341.957910303,3876.64951157 345.52423808,3876.67942919 387.684332034,3877.04198621 436.374322103,3877.50281812 " mydata_rot="-68.1" mydata_centroid="308.46349741386956,4013.362377130172"/>
  <polygon id="393391805" class="tile" points="213.068396463,4432.75868896 209.592967603,4427.60021282 207.417723222,4422.51204187 206.306108096,4415.52505893 206.730664926,4406.94993638 208.113355037,4395.7239234 212.624657645,4386.33749463 225.44639328,4372.74168027 228.116951664,4371.10468297 265.976506082,4344.73044896 292.187057903,4323.1281737 318.956351239,4286.21191879 335.198806254,4241.67278197 338.926096462,4215.8799944 344.548698985,4216.55067889 360.764942116,4204.93963725 386.193891904,4241.92602528 369.283679511,4253.0283732 371.82901077,4255.6980565 337.198198255,4279.41898375 344.620914322,4290.35848955 331.035569203,4299.23347421 341.084885087,4312.94628175 283.106739881,4354.7040551 360.731720857,4467.56014165 386.109100113,4506.22307341 370.280245412,4520.04022612 339.815507662,4541.35900187 330.981719671,4539.65864521 315.708067553,4542.49037079 295.326573454,4512.19572398 279.267076926,4530.14694825 272.046906528,4518.0345967 252.856013077,4491.53658312 253.380992784,4482.39700697 239.044663587,4460.41701185 231.669258107,4458.67519498 213.068396463,4432.75868896 " mydata_rot="-35.2" mydata_centroid="298.32834035751506,4415.024532046824"/>
  <polygon id="180522728" class="tile" points="247.528710241,5090.24094476 247.888032247,5078.04293571 248.187360952,5067.98700585 248.605569567,5064.04372913 250.019007563,5050.90732338 251.621771555,5035.98387481 252.064826162,5031.87967249 255.519237011,5021.07340715 256.816042089,5016.99371515 257.859019065,5006.96804099 259.224638085,4993.83944134 259.44598102,4991.69423462 259.342463935,4980.57923765 258.454634193,4977.92804581 255.143751922,4968.02900161 254.191162624,4962.82722197 252.604453715,4954.1043291 253.277495258,4947.7799646 254.760165565,4934.04396997 254.971142528,4932.06956645 254.217487653,4920.19575278 254.054783536,4917.58643693 251.080652572,4903.785572 248.922966556,4893.76764261 248.544288277,4888.65820615 247.635552802,4876.63817767 247.967490926,4873.63053073 249.595933272,4858.70034315 250.329659795,4845.64197803 251.143827835,4830.94059451 251.560318477,4823.57610652 252.058397375,4815.95195148 253.027151346,4801.00835576 253.952193752,4786.87580278 254.320686557,4781.18454995 253.17672736,4771.47004855 252.210977395,4763.28393793 252.451975345,4757.54614001 252.896011294,4746.7642324 253.465445245,4741.52537511 255.069818331,4726.70813178 256.603486722,4712.57032492 257.115773982,4707.86653396 257.861118638,4697.87229957 258.924236968,4683.59946481 259.599892648,4674.64110855 260.905356576,4669.86391087 264.50328303,4656.74615582 264.586551171,4654.94336163 265.14672585,4642.77725739 265.643779182,4632.10428258 264.040402466,4626.17558389 261.432510373,4616.52161629 261.998302324,4610.24536908 263.22242582,4596.60790256 264.243853815,4585.30623756 264.517098667,4581.26407327 265.474965328,4566.92752589 266.263531344,4555.11126444 267.003440432,4547.49037079 314.886999238,4550.17440053 315.402225033,4556.06422534 315.948293842,4562.2823274 317.431346161,4571.48430411 319.764226638,4585.89881354 322.268184165,4601.41641816 324.508669695,4615.25044728 326.527540191,4627.72860615 327.692991245,4631.88706591 330.995829638,4643.69681522 330.714699091,4646.94125071 329.476904012,4661.34557025 328.289565949,4675.17791928 324.496838453,4719.34740422 323.623756956,4729.51322883 323.267183772,4733.91089556 322.175242153,4747.32320766 320.955612823,4762.35439419 319.792471492,4776.68027588 318.56416595,4791.7863959 318.084796599,4797.73350704 317.390323024,4805.4743319 313.421707875,4850.04128717 312.579297751,4859.50845162 312.096433836,4865.44509374 310.979459896,4879.43863471 309.768786562,4894.5810382 308.567616126,4909.60056094 307.979837467,4916.90480057 307.477817596,4923.50753213 306.29370965,4939.21785086 305.931154163,4943.95101511 310.726065137,4952.23470525 320.486320587,4969.11239216 328.855901778,4983.57800432 333.391018472,4991.41766323 339.892609552,4997.10595387 344.971289759,4997.86185281 343.411686501,5013.65560438 341.987666146,5028.00565645 340.473622368,5043.29686343 339.964892066,5048.41542595 329.997969312,5057.45535788 320.098228234,5066.42792525 312.693137491,5071.16769133 300.393406358,5079.03671964 291.991583562,5083.33911719 282.686957409,5088.10908077 271.429421593,5091.99154567 247.528710241,5090.24094476 " mydata_rot="-55.7" mydata_centroid="289.04026375278704,4828.4342812371815"/>
  <polygon id="421260511" class="tile" points="275.61140023,5102.1057387 272.078375002,5198.80417993 279.465894321,5199.5431574 276.486867581,5213.92305633 271.538371243,5214.03073883 270.71507254,5226.47674079 275.297507931,5226.72853727 275.03214927,5232.20569511 271.607930053,5266.95099746 263.786761832,5329.20445203 256.541576553,5381.48143119 255.419883095,5406.13679292 256.399985694,5410.99323099 257.897324775,5434.85422504 263.150177706,5460.37628891 270.72190871,5484.38512315 281.680883162,5507.89047679 282.945184634,5509.14564902 295.364564175,5527.92923154 295.794508243,5530.3651101 314.400872044,5544.63700365 328.657623103,5544.69905944 332.867135393,5541.5269644 337.080116905,5532.74889354 337.053342277,5369.84505944 331.63550856,5231.56885306 327.363841449,5162.34551949 322.252432052,5096.99154567 316.883767023,5099.45647519 309.25345379,5102.05339234 299.773086568,5102.18061465 276.587046711,5100.89383245 275.61140023,5102.1057387 " mydata_rot="53.0" mydata_centroid="300.9718832284982,5330.497554845983"/>
  <polygon id="274860433" class="tile" points="278.275353108,5757.03948472 246.13535984,5757.89384548 244.783642666,5757.61183249 243.672356881,5757.43520591 242.551586095,5757.14012607 241.090336225,5756.57127531 239.853657954,5755.86032638 239.182204064,5755.45001117 238.576218858,5754.96774381 238.042038536,5754.50500876 237.589013024,5754.04884527 237.239029556,5753.63784743 236.792108603,5753.047887 236.360700034,5752.36748921 235.83219951,5751.35794112 235.434810034,5750.37344965 235.084189357,5749.34292746 234.758334377,5748.11513965 234.497986598,5746.85294635 234.388009664,5746.13431856 230.090202467,5746.05704461 229.396714632,5718.1787044 232.845343728,5718.01682799 233.160439414,5717.88711419 233.547185403,5717.6267447 233.81209267,5717.25326303 233.789625172,5716.65146241 233.782379801,5715.67762082 233.893611502,5714.58341334 234.064265455,5713.60737156 234.431537928,5712.62198163 234.677397161,5711.9364975 234.914080577,5711.43293617 235.162991924,5710.68055315 235.480636787,5709.99582802 235.767450647,5709.67971404 236.282178358,5709.43620627 236.918686811,5709.24949017 237.046320355,5708.92842793 236.883449478,5708.37085097 234.18443147,5706.03971487 241.258767005,5698.85902835 244.032546232,5701.04893256 244.641275945,5701.16392909 245.252361156,5700.53617812 245.97265096,5699.87611643 246.630872634,5699.55903264 247.969358154,5699.1136481 249.273747809,5698.89726458 249.910430439,5698.87951069 250.709635784,5699.08140983 251.390073776,5699.1220712 252.245455837,5699.32129943 253.841162573,5700.12992053 254.846800649,5700.76007616 255.486999693,5701.12598882 256.17736789,5701.716896 257.194904907,5701.77907911 258.296494221,5701.63074677 259.310418076,5701.21539548 260.02448764,5700.57649039 260.210924459,5699.77284014 259.694919876,5698.77729279 253.490624882,5693.12701095 256.402053096,5689.57371723 255.814300783,5688.61495593 254.967842428,5687.98974701 254.153008512,5687.76564358 248.804594009,5682.80269061 248.554095317,5682.01563909 248.185197047,5681.42404798 247.676011807,5680.98932279 246.926742988,5680.7871342 246.290292571,5681.03017098 243.996074332,5683.84069262 233.527131611,5673.96859779 236.305168236,5671.20808284 236.291990981,5670.53699646 235.035638073,5668.91327141 233.756912743,5666.7816092 232.874786768,5664.8647305 232.624209368,5664.00258127 232.551201838,5662.81907981 232.547374094,5662.13503158 232.275083634,5661.40325045 231.881206072,5660.80241375 231.403431839,5660.56228325 227.8422128,5660.50420733 226.784983149,5628.09724781 230.083903709,5628.03011887 230.901461157,5627.86817364 231.362791666,5627.29760344 231.449428679,5626.56961551 231.270809982,5625.87718459 230.848842563,5625.27767942 229.28693287,5623.95843127 235.718324834,5616.79782577 273.423621606,5652.4795145 271.175631168,5654.71834752 270.804901564,5655.37639485 270.811664706,5655.88090114 271.080534425,5656.32288075 271.602160845,5656.71529458 272.360896227,5657.01716524 272.710533214,5657.09024356 273.11319804,5657.13368197 273.70297663,5657.03054434 274.121056582,5656.88967619 274.573348328,5656.63244798 275.443332344,5655.85887842 276.107270223,5655.03252272 276.530950174,5654.26974096 276.829990994,5653.70480275 277.010322221,5653.03494673 277.047101324,5652.38234573 276.977650233,5651.62006143 276.764705167,5650.93135314 275.980254604,5649.90683961 279.581253503,5646.17472573 280.196592143,5646.64404152 280.883522596,5646.92637976 281.55161756,5647.10322402 282.191449606,5647.11244054 282.852975209,5646.97251497 283.676616927,5646.65799678 284.381568421,5646.25733441 285.198660177,5645.64482008 285.737958789,5645.01630758 286.245942491,5644.28706653 286.526070106,5643.54153924 286.634518404,5642.77705493 286.437046338,5641.96036033 286.096235455,5641.36743123 285.733750421,5640.94241792 285.312152992,5640.69961673 284.662990401,5640.72213464 283.970363197,5640.96784215 281.812975171,5643.29415625 244.33571314,5607.8164506 246.982379606,5604.78680281 246.994528428,5604.46288235 246.806850946,5604.0650181 246.559905929,5603.69917651 245.428943068,5602.60976742 244.613211869,5601.5220609 243.774970462,5599.79499611 242.55443331,5596.59872526 242.522320272,5595.72826778 242.46515106,5594.77347177 242.442154255,5593.66476676 242.5129671,5592.72683334 242.692809401,5591.58762448 242.882235027,5590.66074085 243.155809113,5589.61720808 243.557462652,5588.68440746 243.790897037,5588.06000037 244.314234599,5587.09012363 244.725510414,5586.40719603 245.389328998,5585.46819055 246.754618502,5583.78239578 246.966457152,5583.40100143 246.92223406,5582.89201173 246.428459792,5582.2729691 244.035866511,5580.50088235 267.845494551,5555.30386014 270.067287291,5557.9018216 270.56078944,5558.25803104 271.159918507,5558.14193409 271.449938371,5557.9091074 272.288857865,5557.27886268 273.293139411,5556.594863 274.38812083,5556.0922141 275.205522838,5555.78007863 276.609477069,5555.26274201 277.358281238,5555.01436423 278.122694423,5554.76941664 278.571875602,5554.52276556 278.705610428,5554.06789781 278.314967831,5550.57348333 292.408909871,5549.69905944 355.384665231,5611.47181139 355.575917184,5612.30966292 355.386546783,5613.29285987 355.580792428,5614.00749082 357.933415235,5613.35326579 365.715016851,5617.08660906 364.238417559,5625.83901152 364.194323126,5628.47580573 363.944531021,5631.39773853 363.763868016,5637.79593274 365.595347933,5706.9239847 365.315583766,5708.02619885 364.365195443,5709.52535529 364.084987368,5710.19578028 358.260860515,5716.08205241 342.143320813,5700.62941049 344.85871545,5697.64868369 344.702143225,5697.14504707 343.940261164,5696.81621316 343.372119166,5696.71389085 342.460966973,5696.91157915 341.584471233,5697.42469851 330.027174079,5709.62266341 329.790625059,5710.25763698 329.722548193,5710.82827724 329.913699232,5711.57225002 330.220101459,5712.09379465 330.607677811,5712.64068432 331.010534874,5712.87185514 331.56293261,5712.83933281 332.336560119,5712.45000906 333.028801121,5711.8288322 334.219408035,5710.22855302 354.570022312,5729.59565125 352.113388784,5732.29913856 352.045079695,5732.64449591 352.098512416,5733.00909716 352.354783895,5733.34319364 352.667212754,5733.65584568 353.3605916,5734.14229958 343.889024728,5744.14458658 342.770335944,5745.87703203 341.402501794,5748.13657288 340.156389987,5750.39658377 339.386989783,5751.86418297 338.076275628,5755.04094516 324.568785334,5755.56012159 313.127138899,5755.7787242 311.15139392,5755.67866511 309.290784834,5755.24353856 306.849092465,5754.26029606 304.712914388,5752.93501956 302.851013416,5751.24207568 301.80436791,5750.18624293 299.483028271,5747.87055797 298.461244823,5746.71132642 297.077693065,5745.82170574 295.897925023,5745.82147693 295.021371128,5746.2782753 286.465727777,5757.68681527 283.410223413,5757.71736387 279.864718588,5757.75660811 279.333822671,5757.45225727 278.818593501,5757.20765647 278.275353108,5757.03948472 " mydata_rot="-20.9" mydata_centroid="295.9922027823331,5662.998569938907"/>
</svg>