<svg xmlns="http://www.w3.org/2000/svg" version="1.1" width="592.5px" height="1200px">
  <polygon id="90145475" class="tile" points="339.212145519,257.050936573 254.882048902,202.137991222 334.403883618,60.0730462015 368.736065856,17.9665384531 344.380106689,-2.5 309.62664347,40.6918546721 223.611051451,193.426746807 309.113357815,382.212553386 344.979897435,365.690111011 368.888948549,354.544532515 362.251456353,343.27630681 365.297346108,341.071295688 353.656310255,321.308738448 365.590039588,314.488533023 339.212145519,257.050936573 " moovel_rot="59.5" moovel_centroid="300.75917951435054,220.7610197103441"/>
  <polygon id="258957576" class="tile" points="436.374322103,393.502694085 435.268768827,511.663239648 430.802867948,511.516450101 431.259848726,556.958074512 424.551447113,557.77425608 434.120241917,609.772663975 436.147637409,629.808070111 433.257523739,648.276973349 425.647689989,665.676406154 415.951845496,679.552171166 390.430922724,703.594398369 380.526814976,715.939513223 376.725714969,715.080955367 365.246565194,712.481989047 364.6858214,712.393345857 361.879610442,711.956326789 345.096197827,709.341463894 336.229484214,706.81367363 310.569303211,695.879263015 288.431030794,682.847708846 259.367331359,661.445997631 233.887101672,637.770328064 204.145160123,601.641073907 189.955357827,580.186161403 171.414131199,537.646410745 163.087059657,508.671751617 157.594033656,460.377805134 156.291355914,433.687035376 156.125677897,430.237067234 156.34237676,407.91477882 156.542080087,387.212553386 321.551502393,389.485119916 321.467466175,392.755518417 341.957910303,392.649387544 345.52423808,392.679305159 387.684332034,393.041862182 436.374322103,393.502694085 " moovel_rot="-68.1" moovel_centroid="308.4634974138696,529.3622530999852"/>
  <polygon id="421260511" class="tile" points="275.61140023,726.053706253 272.078375002,822.752147478 279.465894321,823.491124954 276.486867581,837.871023881 271.538371243,837.97870638 270.71507254,850.424708344 275.297507931,850.676504818 275.03214927,856.153662664 271.607930053,890.898965012 263.786761832,953.152419582 256.541576553,1005.42939874 255.419883095,1030.08476047 256.399985694,1034.94119854 257.897324775,1058.80219259 263.150177706,1084.32425646 270.72190871,1108.3330907 281.680883162,1131.83844434 282.945184634,1133.09361657 295.364564175,1151.87719909 295.794508243,1154.31307766 314.400872044,1168.5849712 328.657623103,1168.64702699 332.867135393,1165.47493195 337.080116905,1156.6968611 337.053342277,993.793026997 331.63550856,855.516820614 327.363841449,786.293487041 322.252432052,720.939513223 316.883767023,723.404442741 309.25345379,726.00135989 299.773086568,726.1285822 276.587046711,724.841800001 275.61140023,726.053706253 " moovel_rot="53.0" moovel_centroid="300.97188322849826,954.4455223980044"/>
  <polygon id="275731246" class="tile" points="260.793380023,1173.64702699 324.057056871,1174.63254596 318.521559579,1523.67441476 339.171764104,1523.84178393 339.127961421,1598.85498982 329.536157033,1625.33015527 304.440705151,1624.74654413 298.099684136,1624.59643967 258.116423522,1623.67038048 253.47000002,1619.86972865 255.041805014,1548.22431789 267.657191274,1548.29477374 268.432614577,1523.13438265 253.328235896,1522.57985834 253.413336773,1516.49597836 261.241859185,1500.98290812 258.07828161,1499.34665915 253.940854312,1497.21510279 255.458123352,1461.35791643 258.596508317,1458.95263953 260.513790459,1457.48168994 261.077529987,1438.02068873 280.131781989,1438.05040112 280.788931991,1438.4151743 281.484669784,1419.94773385 263.089373603,1419.51776641 265.67099744,1356.41587582 271.699200889,1356.72601695 272.197483568,1253.84829683 260.740470218,1253.89407438 260.793380023,1173.64702699 " moovel_rot="-67.6" moovel_centroid="294.1029136105905,1414.7839027966365"/>
  <polygon id="109864793" class="tile" points="251.936680547,1630.33015527 272.727948422,1635.14029573 274.083886766,1635.45782676 289.487088285,1650.84097329 305.531252911,1666.17268259 304.578072358,1666.13051965 303.545620843,1666.46374217 302.883011155,1667.06190288 302.347480475,1667.77153348 302.205021143,1668.5843612 302.711939309,1669.31994188 324.632147502,1691.10611545 331.226087526,1696.86246443 332.383908297,1696.74341285 333.361922849,1696.4588024 333.924411494,1695.56903335 334.291969725,1694.46263219 334.115446056,1692.31695031 335.825645155,1695.96145951 336.433338456,1699.07504044 336.676732286,1701.86491781 336.183374037,1705.3202393 333.708990591,1713.52167608 323.969707751,1743.67717934 316.262590261,1773.21802345 316.266028488,1778.08741326 315.824565653,1781.64813773 316.806959227,1792.41871128 317.816023598,1802.27212658 319.24176593,1819.59113676 321.690051841,1836.83008887 323.997935119,1848.24134876 330.177410826,1866.91538418 336.652564447,1880.29687308 342.4772879,1890.31989509 346.820064409,1896.62483858 372.061161161,1928.46984735 395.623391125,1959.10819662 397.003007583,1961.77568861 397.982846446,1964.26309479 398.891387028,1967.95074545 399.160367615,1971.40012395 398.601488262,1977.22151001 397.706928396,1980.17400972 395.957615257,1983.47863057 393.449944984,1987.44537269 390.727637289,1991.21415655 388.052203823,1994.9087927 385.44240763,1997.9496203 382.552995972,2000.72028089 379.305979141,2003.79412616 277.401133531,2081.90707419 273.077078088,2080.58484061 269.967408124,2077.59163037 236.23446494,2055.59202052 229.522116011,2050.98544206 217.696534568,2041.94263813 209.911864898,2034.64495765 206.580116044,2030.39059819 203.784158334,2027.26363148 199.449860488,2020.44529367 198.158635669,2017.81297378 196.170484255,2012.14572827 194.905925868,2007.49629572 193.764211981,2001.56508064 193.339632385,1994.49947128 193.578998838,1988.19603938 194.192013235,1983.85146519 195.268014662,1977.59955927 197.382906262,1967.60436545 199.504270843,1959.21137569 201.98574821,1948.09881943 202.660741272,1940.36882032 202.64832378,1933.56370289 201.728364329,1925.34427512 196.72214138,1909.66416678 194.780421525,1901.41106217 194.022451604,1895.04781801 193.447586311,1889.13240502 193.767680932,1881.06383138 194.65075367,1869.05482168 196.588330036,1856.41521571 246.588275339,1633.10319575 251.936680547,1630.33015527 " moovel_rot="32.3" moovel_centroid="277.47262252302545,1880.9773071271372"/>
  <polygon id="309751829" class="tile" points="214.485863041,2268.58129468 378.014136959,2266.45650648 375.141198562,2086.90707419 214.60295632,2088.49967315 216.394337393,2185.78087389 250.490612148,2185.48955767 250.666063166,2205.29994818 216.567681171,2205.59760255 214.485863041,2268.58129468 " moovel_rot="-71.3" moovel_centroid="297.55575501853053,2177.4095622000655"/>
  <polygon id="108402490" class="tile" points="268.837863902,2287.37836397 153.458629546,2287.62427873 129.559819489,2310.4196033 130.534181823,2486.23603981 156.408680066,2544.5703509 164.124401191,2551.24284767 197.831609363,2580.39271525 256.152168376,2596.75987936 288.142135364,2605.73439129 414.444204347,2642.03569577 444.6441482,2632.93172444 462.558258109,2608.68598004 462.940180511,2300.92578359 375.67899919,2273.58129468 341.218499826,2279.77465258 319.702458002,2300.83647865 320.82869726,2315.06262227 281.441900331,2314.74594836 277.519425153,2299.32996073 268.837863902,2287.37836397 " moovel_rot="68.0" moovel_centroid="306.68070184217305,2447.29251535513"/>
  <polygon id="182759603" class="tile" points="236.410449767,2836.41793692 316.405615347,2889.33052011 341.093749644,2859.36457405 348.836930624,2838.28717962 352.503681078,2828.30175767 356.098891632,2797.18064202 352.067461335,2766.50803132 341.887207454,2734.240191 323.450926044,2704.70520864 301.438467179,2681.10100709 290.08599018,2668.91701528 267.034313922,2647.03569577 252.833212247,2656.02118886 259.547986037,2670.98268222 253.515567899,2673.74673263 236.401108368,2689.71406349 247.881729826,2716.05264506 255.457740674,2740.81091774 258.981543695,2774.76963042 255.282654221,2799.30006493 245.678730917,2822.24699837 236.410449767,2836.41793692 " moovel_rot="51.7" moovel_centroid="296.776925570708,2774.693743141903"/>
  <polygon id="5889069" class="tile" points="259.146092161,3100.53843818 263.860778743,3101.50264731 262.598302579,3109.27013377 278.428668365,3101.73421157 280.424948277,3106.68378714 282.867099327,3112.73133592 275.779183909,3115.73498504 278.243568316,3120.86240293 282.784001466,3130.28203408 324.124274248,3111.51799952 327.614942936,3109.12588908 330.587024842,3105.29355689 332.742635597,3101.33829444 333.307455195,3096.75458027 333.353907839,3004.9489019 333.02029888,2905.25233865 332.914684633,2900.30530681 331.819814415,2898.19034385 330.607801004,2896.63756155 328.818310723,2895.23139098 326.548140591,2894.3628451 322.040851099,2894.33052011 259.380597328,2894.3438287 259.359650244,3024.78692656 259.146092161,3100.53843818 " moovel_rot="-40.5" moovel_centroid="296.36259819926556,3005.0537643320818"/>
  <polygon id="5889054" class="tile" points="257.440812956,3147.89461594 254.633966121,3153.34162519 252.648201326,3158.96051024 258.315103639,3204.59609633 267.978528164,3267.77077081 271.201561265,3293.1755173 271.026978066,3319.04298415 266.366590316,3349.2652168 259.364167198,3379.48523046 253.903855582,3410.67973172 251.391417065,3443.05362128 252.269344967,3472.50332605 255.023196097,3501.86489029 255.41899821,3516.49443072 256.373003962,3522.92215374 258.317885985,3528.69089401 261.790212222,3534.92469874 265.164255492,3540.08619524 275.332573512,3547.85198256 297.374492254,3551.13993019 296.621183147,3540.71851208 312.159962532,3540.19024996 324.403699198,3541.45494592 326.411209167,3538.80713029 341.045248984,3537.54415153 340.280096334,3522.81913895 339.707894585,3511.71043479 336.461307557,3485.67928969 329.083718829,3458.67973398 325.030994176,3431.14857642 329.582530085,3371.58685773 331.152057251,3352.32242002 335.906005105,3333.48173717 341.108582935,3314.94432046 330.942073694,3180.07470231 333.062530882,3172.61221115 331.162214061,3155.86995399 316.766552644,3156.75448181 316.342167381,3153.00378983 312.702749236,3151.64191704 309.340282007,3149.19977685 305.47584347,3146.8996169 301.16734233,3146.63411907 291.196657851,3147.39850835 290.198554721,3135.28203408 273.390957583,3137.80333955 268.436708463,3139.26084677 264.593779317,3141.76927232 260.444182787,3144.59226855 257.440812956,3147.89461594 " moovel_rot="43.4" moovel_centroid="296.1868319484755,3347.7246708148027"/>
  <polygon id="393391805" class="tile" points="213.068396463,3783.9589819 209.592967603,3778.80050575 207.417723222,3773.71233481 206.306108096,3766.72535186 206.730664926,3758.15022931 208.113355037,3746.92421633 212.624657645,3737.53778756 225.44639328,3723.9419732 228.116951664,3722.30497591 265.976506082,3695.93074189 292.187057903,3674.32846663 318.956351239,3637.41221173 335.198806254,3592.87307491 338.926096462,3567.08028733 344.548698985,3567.75097183 360.764942116,3556.13993019 386.193891904,3593.12631821 369.283679511,3604.22866614 371.82901077,3606.89834943 337.198198255,3630.61927669 344.620914322,3641.55878249 331.035569203,3650.43376714 341.084885087,3664.14657469 283.106739881,3705.90434804 360.731720857,3818.76043459 386.109100113,3857.42336635 370.280245412,3871.24051905 339.815507662,3892.5592948 330.981719671,3890.85893814 315.708067553,3893.69066372 295.326573454,3863.39601692 279.267076926,3881.34724118 272.046906528,3869.23488964 252.856013077,3842.73687605 253.380992784,3833.59729991 239.044663587,3811.61730479 231.669258107,3809.87548791 213.068396463,3783.9589819 " moovel_rot="-35.2" moovel_centroid="298.32834035751506,3766.2248249807426"/>
  <polygon id="285975388" class="tile" points="251.189192169,4122.23987585 255.022125919,4126.0852036 289.276962041,4089.26611865 303.348780717,4074.86150949 334.201200688,4042.20778131 360.547649362,4008.92309382 333.058630477,3990.31162885 340.554059373,3979.83508673 328.075403513,3970.16842921 332.913430388,3963.02269338 347.861120202,3936.67646428 354.85595773,3936.00807717 352.37715122,3900.26690358 309.85323168,3903.86120427 296.235801078,3898.69066372 231.952350638,3915.56601835 255.7770756,4025.69822343 265.721571739,4028.88209501 271.737965184,4037.86771919 263.936288176,4064.24480165 257.271450016,4068.45982443 246.487719019,4065.53048443 231.974299926,4069.89232887 238.007373459,4084.07571133 242.254387594,4108.51168637 243.699195045,4114.80541624 246.60870387,4114.32322504 246.994866304,4116.77057405 244.216254564,4120.37422104 248.404185434,4125.52461746 251.189192169,4122.23987585 " moovel_rot="-55.9" moovel_centroid="291.590964194281,3992.357744903786"/>
  <polygon id="285943989" class="tile" points="344.101620804,4439.76036208 359.306904677,4474.96342479 358.811318564,4503.10167828 306.453466719,4500.26406614 302.18224823,4500.75892202 290.444730396,4506.33891562 279.808961488,4633.64056596 277.404332875,4650.33279619 272.234127592,4694.12421231 272.226976981,4708.59697461 267.483036855,4752.69744816 264.276432973,4792.08498572 263.278964392,4803.96177297 265.118711009,4813.17019904 257.835985969,4809.24448054 245.082263739,4777.17345594 237.662514805,4740.83460652 233.52076431,4698.77290062 233.745571784,4658.57163435 233.603880776,4620.17205048 233.557788624,4577.26310751 234.3585097,4530.74094556 234.944437316,4440.21397325 233.193095323,4372.85602865 238.337474409,4322.08226575 235.304091226,4269.75431266 235.957059832,4232.48752626 236.12256397,4211.50503858 238.427352218,4179.6064189 242.659441156,4131.0852036 257.853016341,4134.73433685 264.787919486,4164.40754836 271.063126574,4196.30320785 280.829977274,4240.28474719 287.456322928,4268.63274896 299.964033051,4309.22424818 308.051467399,4335.73913161 318.492799759,4367.27001444 328.371005777,4396.64209201 333.046824696,4411.6804087 336.864475312,4422.47675336 333.080160985,4425.51952678 339.895020056,4438.99706549 344.101620804,4439.76036208 " moovel_rot="81.7" moovel_centroid="271.29029849558486,4452.566858042478"/>
  <polygon id="76090449" class="tile" points="282.192469259,4818.27853255 322.461226189,4818.17019904 325.150029279,4819.90549589 327.686776987,4824.21203891 328.871487421,4853.75385217 328.382512655,5304.73046254 321.992081788,5305.18604381 317.094310005,5303.92499989 314.907207713,5295.27706315 313.066384964,5282.26885866 312.444073706,5258.61678357 310.445190597,5092.85613421 308.89156474,5069.74174945 306.724268622,5059.00868816 302.526514152,5049.05293021 294.96747839,5036.93087021 286.252258947,5024.25411235 276.325407808,5010.21788835 271.689169167,5000.93900447 267.271458423,4987.79360979 264.217421572,4973.43641269 264.131879429,4957.74931334 263.628512579,4871.47365886 265.670827034,4856.59587804 268.22389264,4846.80951822 272.263831587,4835.3098709 276.771962616,4826.02632848 282.192469259,4818.27853255 " moovel_rot="-30.5" moovel_centroid="303.9396966778419,4987.587207373213"/>
  <polygon id="274860433" class="tile" points="278.275353108,5517.52646909 246.13535984,5518.38082985 244.783642666,5518.09881686 243.672356881,5517.92219028 242.551586095,5517.62711044 241.090336225,5517.05825968 239.853657954,5516.34731075 239.182204064,5515.93699554 238.576218858,5515.45472818 238.042038536,5514.99199314 237.589013024,5514.53582964 237.239029556,5514.1248318 236.792108603,5513.53487137 236.360700034,5512.85447358 235.83219951,5511.84492549 235.434810034,5510.86043402 235.084189357,5509.82991183 234.758334377,5508.60212402 234.497986598,5507.33993072 234.388009664,5506.62130293 230.090202467,5506.54402898 229.396714632,5478.66568877 232.845343728,5478.50381236 233.160439414,5478.37409856 233.547185403,5478.11372907 233.81209267,5477.7402474 233.789625172,5477.13844678 233.782379801,5476.16460519 233.893611502,5475.07039771 234.064265455,5474.09435593 234.431537928,5473.108966 234.677397161,5472.42348187 234.914080577,5471.91992054 235.162991924,5471.16753752 235.480636787,5470.48281239 235.767450647,5470.16669841 236.282178358,5469.92319065 236.918686811,5469.73647454 237.046320355,5469.4154123 236.883449478,5468.85783534 234.18443147,5466.52669924 241.258767005,5459.34601272 244.032546232,5461.53591693 244.641275945,5461.65091346 245.252361156,5461.02316249 245.97265096,5460.3631008 246.630872634,5460.04601701 247.969358154,5459.60063247 249.273747809,5459.38424895 249.910430439,5459.36649506 250.709635784,5459.5683942 251.390073776,5459.60905557 252.245455837,5459.8082838 253.841162573,5460.6169049 254.846800649,5461.24706053 255.486999693,5461.61297319 256.17736789,5462.20388037 257.194904907,5462.26606348 258.296494221,5462.11773114 259.310418076,5461.70237985 260.02448764,5461.06347476 260.210924459,5460.25982451 259.694919876,5459.26427716 253.490624882,5453.61399532 256.402053096,5450.0607016 255.814300783,5449.1019403 254.967842428,5448.47673138 254.153008512,5448.25262795 248.804594009,5443.28967498 248.554095317,5442.50262346 248.185197047,5441.91103235 247.676011807,5441.47630716 246.926742988,5441.27411857 246.290292571,5441.51715535 243.996074332,5444.32767699 233.527131611,5434.45558216 236.305168236,5431.69506721 236.291990981,5431.02398083 235.035638073,5429.40025578 233.756912743,5427.26859357 232.874786768,5425.35171487 232.624209368,5424.48956564 232.551201838,5423.30606418 232.547374094,5422.62201595 232.275083634,5421.89023482 231.881206072,5421.28939812 231.403431839,5421.04926762 227.8422128,5420.9911917 226.784983149,5388.58423218 230.083903709,5388.51710324 230.901461157,5388.35515801 231.362791666,5387.78458781 231.449428679,5387.05659988 231.270809982,5386.36416896 230.848842563,5385.76466379 229.28693287,5384.44541564 235.718324834,5377.28481014 273.423621606,5412.96649887 271.175631168,5415.20533189 270.804901564,5415.86337922 270.811664706,5416.36788551 271.080534425,5416.80986512 271.602160845,5417.20227895 272.360896227,5417.50414962 272.710533214,5417.57722793 273.11319804,5417.62066634 273.70297663,5417.51752871 274.121056582,5417.37666056 274.573348328,5417.11943236 275.443332344,5416.34586279 276.107270223,5415.5195071 276.530950174,5414.75672533 276.829990994,5414.19178712 277.010322221,5413.5219311 277.047101324,5412.8693301 276.977650233,5412.10704581 276.764705167,5411.41833751 275.980254604,5410.39382398 279.581253503,5406.6617101 280.196592143,5407.13102589 280.883522596,5407.41336413 281.55161756,5407.59020839 282.191449606,5407.59942491 282.852975209,5407.45949934 283.676616927,5407.14498115 284.381568421,5406.74431878 285.198660177,5406.13180445 285.737958789,5405.50329195 286.245942491,5404.7740509 286.526070106,5404.02852361 286.634518404,5403.2640393 286.437046338,5402.4473447 286.096235455,5401.8544156 285.733750421,5401.42940229 285.312152992,5401.1866011 284.662990401,5401.20911901 283.970363197,5401.45482652 281.812975171,5403.78114062 244.33571314,5368.30343497 246.982379606,5365.27378718 246.994528428,5364.94986672 246.806850946,5364.55200247 246.559905929,5364.18616088 245.428943068,5363.09675179 244.613211869,5362.00904527 243.774970462,5360.28198048 242.55443331,5357.08570964 242.522320272,5356.21525215 242.46515106,5355.26045614 242.442154255,5354.15175113 242.5129671,5353.21381771 242.692809401,5352.07460885 242.882235027,5351.14772522 243.155809113,5350.10419245 243.557462652,5349.17139183 243.790897037,5348.54698474 244.314234599,5347.577108 244.725510414,5346.8941804 245.389328998,5345.95517492 246.754618502,5344.26938015 246.966457152,5343.8879858 246.92223406,5343.3789961 246.428459792,5342.75995347 244.035866511,5340.98786672 267.845494551,5315.79084451 270.067287291,5318.38880597 270.56078944,5318.74501541 271.159918507,5318.62891846 271.449938371,5318.39609177 272.288857865,5317.76584705 273.293139411,5317.08184737 274.38812083,5316.57919847 275.205522838,5316.267063 276.609477069,5315.74972638 277.358281238,5315.5013486 278.122694423,5315.25640101 278.571875602,5315.00974993 278.705610428,5314.55488218 278.314967831,5311.0604677 292.408909871,5310.18604381 355.384665231,5371.95879576 355.575917184,5372.79664729 355.386546783,5373.77984424 355.580792428,5374.49447519 357.933415235,5373.84025016 365.715016851,5377.57359343 364.238417559,5386.32599589 364.194323126,5388.9627901 363.944531021,5391.8847229 363.763868016,5398.28291711 365.595347933,5467.41096908 365.315583766,5468.51318322 364.365195443,5470.01233966 364.084987368,5470.68276465 358.260860515,5476.56903678 342.143320813,5461.11639486 344.85871545,5458.13566806 344.702143225,5457.63203144 343.940261164,5457.30319753 343.372119166,5457.20087522 342.460966973,5457.39856352 341.584471233,5457.91168288 330.027174079,5470.10964778 329.790625059,5470.74462135 329.722548193,5471.31526161 329.913699232,5472.05923439 330.220101459,5472.58077902 330.607677811,5473.12766869 331.010534874,5473.35883951 331.56293261,5473.32631718 332.336560119,5472.93699343 333.028801121,5472.31581657 334.219408035,5470.71553739 354.570022312,5490.08263562 352.113388784,5492.78612293 352.045079695,5493.13148028 352.098512416,5493.49608153 352.354783895,5493.83017802 352.667212754,5494.14283005 353.3605916,5494.62928395 343.889024728,5504.63157095 342.770335944,5506.3640164 341.402501794,5508.62355726 340.156389987,5510.88356814 339.386989783,5512.35116734 338.076275628,5515.52792953 324.568785334,5516.04710596 313.127138899,5516.26570857 311.15139392,5516.16564948 309.290784834,5515.73052293 306.849092465,5514.74728043 304.712914388,5513.42200393 302.851013416,5511.72906005 301.80436791,5510.6732273 299.483028271,5508.35754234 298.461244823,5507.19831079 297.077693065,5506.30869011 295.897925023,5506.3084613 295.021371128,5506.76525968 286.465727777,5518.17379964 283.410223413,5518.20434824 279.864718588,5518.24359248 279.333822671,5517.93924164 278.818593501,5517.69464084 278.275353108,5517.52646909 " moovel_rot="-20.9" moovel_centroid="295.9922027823331,5423.485554309178"/>
  <polygon id="329871559" class="tile" points="223.177496408,6149.01559454 210.997794052,6141.6176033 195.852458671,6127.64268689 193.993838635,6125.92399302 180.933214269,6106.67537872 170.136151235,6081.7486327 165.198319283,6057.95503778 163.682660844,6012.86075568 156.176550135,5889.78957335 151.509512401,5815.36802178 145.426837106,5735.31392642 143.794799706,5698.68365468 143.798834889,5660.50065188 150.571949561,5634.51220594 160.269931448,5611.3277024 172.710136954,5587.58339731 191.619853303,5565.31740633 216.520246839,5545.4705187 239.837973955,5534.51729536 260.488917349,5527.00444486 274.107463498,5525.02098532 288.34689427,5523.38082985 304.890225132,5524.20126811 328.216563439,5527.46679222 345.935882157,5531.36043695 358.827514541,5536.7060151 371.831727975,5543.33493821 388.203233763,5554.21430871 409.103972729,5572.42492387 425.300490135,5593.36910921 444.210350636,5637.70897058 447.967830543,5653.96231677 448.705200294,5679.53939094 443.331961433,5706.69476878 429.295830231,5740.13042664 412.766832771,5762.46878791 395.953864727,5774.09934028 383.774995462,5780.91589089 377.363627046,5786.78866389 376.036758894,5792.98085672 378.120972396,5797.3575897 383.500490992,5798.64138308 389.21670368,5806.44737922 400.91907328,5822.42552673 409.101275371,5833.60739471 420.024901381,5850.06804383 425.84577555,5861.74990799 429.31024144,5872.56009581 429.561455403,5881.79993074 424.893195437,5959.23007606 418.289719018,5966.56313414 412.647752352,5999.51852847 402.849961198,6036.51387884 391.40829249,6064.35920661 378.102329066,6090.20183131 364.033439553,6111.3418998 335.924878258,6137.76846991 306.191363037,6154.40225159 280.331037887,6160.24494252 248.570252241,6156.2837655 223.177496408,6149.01559454 " moovel_rot="-61.6" moovel_centroid="287.57774489250227,5829.147476670237"/>
  <polygon id="90145468" class="tile" points="354.547327969,6260.6902565 355.847889394,6317.39189642 324.278964014,6315.92135327 312.352668851,6371.93726583 256.309862851,6432.9534027 236.772693382,6430.45639708 252.288420622,6351.70362237 261.986084854,6302.4958347 260.750223758,6262.64801043 260.112782512,6242.05408254 236.652110606,6241.74258969 238.64191804,6167.03202115 259.147028548,6166.01755182 274.845986651,6165.24494252 276.328895171,6196.12778177 285.122739389,6195.26011725 310.382573024,6192.78190126 312.816217999,6192.54266664 316.478399175,6215.8647366 315.711305898,6231.12566643 335.431214939,6260.61543523 354.547327969,6260.6902565 " moovel_rot="78.9" moovel_centroid="286.8182619227641,6291.402862667095"/>
  <polygon id="443136827" class="tile" points="244.995380124,6437.9534027 343.943837929,6438.19895307 359.39031686,6465.67799165 362.605430049,6478.68365936 365.93815303,6495.92461281 365.713852224,6653.75797018 245.39462368,6655.07884081 245.969723408,6592.8500907 226.815261678,6567.37934223 226.56184697,6521.54693937 241.972903243,6503.32145724 244.995380124,6437.9534027 " moovel_rot="-16.2" moovel_centroid="301.0673746800324,6547.471191781562"/>
  <polygon id="230064841" class="tile" points="303.761659943,6875.01115937 361.83931364,6847.9342292 339.701486488,6799.14234583 335.929871048,6790.98612339 359.246050865,6670.10481692 358.660137622,6667.92736412 361.720342142,6667.30861171 360.771881035,6662.51039194 360.290943463,6660.07884081 253.545518591,6678.33695088 250.113261587,6706.84349412 279.080536763,6712.26800026 277.836839937,6719.17788387 276.690529431,6725.50796443 247.995742489,6719.85140222 242.345579541,6746.32564487 230.66068636,6784.22532814 265.038087552,6791.0721856 275.913600313,6815.17532473 269.744894505,6845.81506968 303.761659943,6875.01115937 " moovel_rot="-48.9" moovel_centroid="302.7797612153605,6761.299229226528"/>
  <polygon id="275731244" class="tile" points="283.281533963,7111.23456271 311.332364199,7114.67351536 311.714624162,7110.13738833 319.139666842,7111.17922165 323.110598473,7112.37692563 326.159699017,7115.94501489 328.665379936,7120.31614704 334.286800489,7119.76595738 337.921286407,7087.96603629 339.331839148,7073.75756797 340.405359611,7060.70333343 324.129476743,7060.03956656 335.312259786,6937.22121891 333.767866715,6929.95337762 337.154849585,6920.36502076 340.385969656,6893.33750249 336.170417842,6888.06523768 252.290375587,6880.01115937 252.094640389,6913.81002147 253.948255918,6954.28622469 267.487938715,7063.23037771 273.099998536,7086.77802134 283.281533963,7111.23456271 " moovel_rot="-63.2" moovel_centroid="296.78504293137445,6990.3830088773075"/>
  <polygon id="180522728" class="tile" points="247.528710241,7668.06672101 247.888032247,7655.86871196 248.187360952,7645.8127821 248.605569567,7641.86950538 250.019007563,7628.73309963 251.621771555,7613.80965106 252.064826162,7609.70544874 255.519237011,7598.8991834 256.816042089,7594.81949141 257.859019065,7584.79381724 259.224638085,7571.66521759 259.44598102,7569.52001087 259.342463935,7558.4050139 258.454634193,7555.75382206 255.143751922,7545.85477786 254.191162624,7540.65299823 252.604453715,7531.93010535 253.277495258,7525.60574085 254.760165565,7511.86974622 254.971142528,7509.8953427 254.217487653,7498.02152903 254.054783536,7495.41221318 251.080652572,7481.61134825 248.922966556,7471.59341886 248.544288277,7466.4839824 247.635552802,7454.46395392 247.967490926,7451.45630699 249.595933272,7436.5261194 250.329659795,7423.46775428 251.143827835,7408.76637076 251.560318477,7401.40188277 252.058397375,7393.77772773 253.027151346,7378.83413201 253.952193752,7364.70157903 254.320686557,7359.0103262 253.17672736,7349.2958248 252.210977395,7341.10971418 252.451975345,7335.37191626 252.896011294,7324.59000865 253.465445245,7319.35115136 255.069818331,7304.53390803 256.603486722,7290.39610117 257.115773982,7285.69231021 257.861118638,7275.69807582 258.924236968,7261.42524106 259.599892648,7252.4668848 260.905356576,7247.68968712 264.50328303,7234.57193207 264.586551171,7232.76913788 265.14672585,7220.60303364 265.643779182,7209.93005883 264.040402466,7204.00136015 261.432510373,7194.34739255 261.998302324,7188.07114533 263.22242582,7174.43367881 264.243853815,7163.13201381 264.517098667,7159.08984952 265.474965328,7144.75330214 266.263531344,7132.93704069 267.003440432,7125.31614704 314.886999238,7128.00017678 315.402225033,7133.89000159 315.948293842,7140.10810365 317.431346161,7149.31008036 319.764226638,7163.7245898 322.268184165,7179.24219441 324.508669695,7193.07622353 326.527540191,7205.5543824 327.692991245,7209.71284216 330.995829638,7221.52259147 330.714699091,7224.76702696 329.476904012,7239.17134651 328.289565949,7253.00369553 324.496838453,7297.17318047 323.623756956,7307.33900508 323.267183772,7311.73667181 322.175242153,7325.14898391 320.955612823,7340.18017045 319.792471492,7354.50605213 318.56416595,7369.61217215 318.084796599,7375.5592833 317.390323024,7383.30010815 313.421707875,7427.86706342 312.579297751,7437.33422787 312.096433836,7443.27086999 310.979459896,7457.26441096 309.768786562,7472.40681445 308.567616126,7487.42633719 307.979837467,7494.73057682 307.477817596,7501.33330838 306.29370965,7517.04362711 305.931154163,7521.77679136 310.726065137,7530.0604815 320.486320587,7546.93816841 328.855901778,7561.40378057 333.391018472,7569.24343948 339.892609552,7574.93173012 344.971289759,7575.68762906 343.411686501,7591.48138063 341.987666146,7605.8314327 340.473622368,7621.12263968 339.964892066,7626.2412022 329.997969312,7635.28113413 320.098228234,7644.2537015 312.693137491,7648.99346758 300.393406358,7656.86249589 291.991583562,7661.16489345 282.686957409,7665.93485702 271.429421593,7669.81732192 247.528710241,7668.06672101 " moovel_rot="-55.7" moovel_centroid="289.04026375278704,7406.260057488211"/>
  <polygon id="185605923" class="tile" points="303.674052286,7674.84187847 248.500717217,7674.81732192 248.407561182,7847.6597479 253.496871457,7847.23740989 253.652721112,7861.63109 339.85984751,7862.3344497 338.37089619,7804.47915887 343.516300504,7804.78866965 344.092438818,7731.25489876 303.674052286,7674.84187847 " moovel_rot="-49.6" moovel_centroid="293.2620911092349,7772.112653755433"/>
  <polygon id="108200129" class="tile" points="236.790417144,7869.2039992 355.301266598,7867.3344497 355.85695133,8004.28618354 349.121280354,8008.50037729 236.64304867,8008.96995228 237.901384722,7961.43912538 236.699351399,7956.95291523 236.707072181,7951.67681636 236.705799074,7948.51136537 237.849847441,7944.05754435 236.790417144,7869.2039992 " moovel_rot="61.1" moovel_centroid="296.47348986031466,7938.484949215973"/>
  <polygon id="421260509" class="tile" points="246.293497189,8252.37133776 231.271364915,8266.5552276 253.705899999,8289.44163165 354.580092569,8187.94623685 360.610595533,8173.40960824 361.228635085,8161.56906896 328.371649419,8070.5830811 306.322082756,8013.96995228 231.299162398,8081.52180278 273.623905394,8119.50207785 265.33624016,8131.3421375 265.057372344,8162.97284981 295.957511553,8194.20160321 282.961327442,8206.74879992 280.742145221,8204.18021203 242.557246753,8240.06757936 244.528684782,8242.64499096 241.361691201,8246.00653134 246.293497189,8252.37133776 " moovel_rot="-74.8" moovel_centroid="297.41623850288585,8146.099159825032"/>
</svg>