<svg xmlns="http://www.w3.org/2000/svg" version="1.1" width="600px" height="10.233208880330006px">
  <polygon id="0" class="bin" points="0.0,0.0 600.0,0.0 600.0,35.2332088803 0.0,35.2332088803 0.0,0.0 " moovel_rot="0" moovel_centroid="300.0,5.116604440165003" moovel_centroidlatlon="0,0"/>
  <polygon id="246338458" class="tile" points="31.2089412464,11.2332088803 21.7754352655,34.4061876 1.0,22.6684456827 1.17487577731,11.2342370951 31.2089412464,11.2332088803 " moovel_rot="146.0" moovel_centroid="15.474212780846553,19.93407904129414" moovel_centroidlatlon="9.165594649311618,48.741192600666785"/>
  <polygon id="123833380" class="tile" points="32.2716108913,11.2431758964 32.2089412464,23.9523004922 54.4582621707,23.9336085867 54.2256162883,11.2332088803 32.2716108913,11.2431758964 " moovel_rot="4.2" moovel_centroid="43.2899652172,17.604723422753086" moovel_centroidlatlon="9.105506598448363,48.803885434605874"/>
  <polygon id="221018876" class="tile" points="66.2261614166,28.5240235917 61.9262475681,27.9817299703 57.4953895421,25.3161343205 55.4582621707,19.6804202489 57.1417659625,15.1280956959 62.0663301045,11.2332088803 93.5319908336,11.2727861294 93.6292395906,14.2613042911 67.2643369605,13.6747803423 61.1766212817,15.541861817 58.6743955675,19.7765974413 61.3797199295,25.0385147312 65.6621370158,26.3505416488 66.2261614166,28.5240235917 " moovel_rot="29.8" moovel_centroid="70.2174267846,16.065557399358646" moovel_centroidlatlon="9.105866555645798,48.74399948909788"/>
  <polygon id="343462429" class="tile" points="112.80396379,11.2435111189 112.761922948,19.4781934462 94.8322506343,19.6108036117 94.6292395906,11.2332088803 112.80396379,11.2435111189 " moovel_rot="116.2" moovel_centroid="103.730720919,15.382174795533174" moovel_centroidlatlon="9.17339697335949,48.7804045276389"/>
  <polygon id="413469714" class="tile" points="113.80992308,21.1263476114 128.009545592,21.1143265284 128.81620653,21.114262475 128.810236917,11.2343247933 128.105598016,11.2332088803 113.80396379,11.2464203981 113.80992308,21.1263476114 " moovel_rot="135.4" moovel_centroid="121.310210522,16.179771907059674" moovel_centroidlatlon="9.18472614268648,48.81439484688516"/>
  <polygon id="94932351" class="tile" points="143.207654066,11.2332088803 143.234054368,20.9957398228 129.842615421,20.9961122738 129.81620653,11.2335850305 143.207654066,11.2332088803 " moovel_rot="66.7" moovel_centroid="136.525133018,16.114660979426194" moovel_centroidlatlon="9.23356345,48.7385534"/>
  <polygon id="154288197" class="tile" points="144.248940749,19.1123288098 144.234054368,11.2332088803 151.190065574,11.2337370559 159.907522669,11.24440822 159.922400928,19.123537169 144.248940749,19.1123288098 " moovel_rot="42.0" moovel_centroid="152.078146342,15.17725971942766" moovel_centroidlatlon="9.112638387923434,48.72640895761716"/>
  <polygon id="447072240" class="tile" points="160.935977956,14.8530527505 160.922400928,11.2449600415 187.875917457,11.2332088803 187.882216612,14.8483297487 160.935977956,14.8530527505 " moovel_rot="46.0" moovel_centroid="174.408496982,13.0448050271584" moovel_centroidlatlon="9.24418884450215,48.786626706630045"/>
  <polygon id="91295858" class="tile" points="188.882216612,11.2423386527 188.89049934,16.0577207107 207.416080773,16.051876351 207.40198277,11.2332088803 188.882216612,11.2423386527 " moovel_rot="29.4" moovel_centroid="198.148748688,13.646411584458015" moovel_centroidlatlon="9.105976339640705,48.74402360402937"/>
  <polygon id="92476843" class="tile" points="208.444375287,16.424225093 208.416080773,11.2686526687 224.022684365,11.2332088803 224.041590836,16.4363510034 208.444375287,16.424225093 " moovel_rot="44.6" moovel_centroid="216.243121087,13.840334781779486" moovel_centroidlatlon="9.186738074366117,48.815560334805184"/>
  <polygon id="246338460" class="tile" points="225.043260395,11.2332088803 225.044049137,14.8794842149 225.041590836,18.3938383558 235.551526773,18.4023930855 235.55319642,11.2417624857 225.043260395,11.2332088803 " moovel_rot="4.4" moovel_centroid="230.297803458,14.817799316095767" moovel_centroidlatlon="9.165125956114913,48.74069580032491"/>
  <polygon id="270120209" class="tile" points="246.296955321,11.4118499195 236.942702613,11.2332088803 236.55319642,18.2137374691 245.94888183,18.2074654418 246.296955321,11.4118499195 " moovel_rot="70.4" moovel_centroid="241.414324966,14.768302020645711" moovel_centroidlatlon="9.243783718479033,48.78063324747116"/>
  <polygon id="425078294" class="tile" points="260.810622476,11.2409461967 247.296955321,11.2332088803 247.30434983,15.0535623947 260.81801449,15.0613003939 260.810622476,11.2409461967 " moovel_rot="74.7" moovel_centroid="254.057485731,13.147254407712948" moovel_centroidlatlon="9.217501949999999,48.8007605"/>
  <polygon id="272813985" class="tile" points="272.391846974,11.2332088803 272.391868769,14.5612169248 261.81801449,14.5704536106 261.829876626,11.2401004342 272.391846974,11.2332088803 " moovel_rot="112.3" moovel_centroid="267.107283206,12.90155730518891" moovel_centroidlatlon="9.263611232841058,48.76194297050642"/>
  <polygon id="429077618" class="tile" points="273.391868769,11.2369253542 273.393990675,12.9807425575 287.147996491,12.9800392784 287.139913715,11.2332088803 273.391868769,11.2369253542 " moovel_rot="26.8" moovel_centroid="280.270421583,12.107791654052068" moovel_centroidlatlon="9.18756110185701,48.75285670827585"/>
  <polygon id="429077617" class="tile" points="288.147996491,11.2339171573 288.150117979,12.9777351859 301.908679766,12.9680126147 301.90200483,11.2332088803 288.147996491,11.2339171573 " moovel_rot="26.8" moovel_centroid="295.021259828,12.10326892897206" moovel_centroidlatlon="9.187537720946073,48.75288639803484"/>
  <polygon id="386179263" class="tile" points="307.558221734,15.7183873616 307.570594621,11.2361308973 302.921054083,11.2332088803 302.908679766,15.7154646713 307.558221734,15.7183873616 " moovel_rot="115.2" moovel_centroid="305.239637609,13.475798067668826" moovel_centroidlatlon="9.1693874,48.707343050000006"/>
  <polygon id="270110310" class="tile" points="314.972849842,13.8434214569 312.419265369,13.8408239046 310.323710791,13.8387447891 308.576949644,13.8389765644 308.570594621,11.2336340177 310.803837716,11.2346899017 314.961923812,11.2332088803 314.972849842,13.8434214569 " moovel_rot="46.8" moovel_centroid="311.77178009,12.537399737327831" moovel_centroidlatlon="9.236897638277762,48.78305375805237"/>
  <polygon id="120569056" class="tile" points="321.531245922,11.236585154 315.972849842,11.2332088803 315.975744153,13.2448838788 321.524029388,13.2486309003 321.531245922,11.236585154 " moovel_rot="87.9" moovel_centroid="318.751054427,12.240522025407449" moovel_centroidlatlon="9.21400959548179,48.83465697597082"/>
  <polygon id="228883261" class="tile" points="322.531245922,11.2332088803 327.981597621,11.2355878394 327.987831409,13.0852260958 322.537550272,13.0929542066 322.531245922,11.2332088803 " moovel_rot="-0.4" moovel_centroid="325.257081191,12.16174443792267" moovel_centroidlatlon="9.180261812943705,48.784110325169166"/>
  <polygon id="228882857" class="tile" points="333.412601107,11.2391211116 333.430001802,13.2938116265 329.042812975,13.3958909371 328.987831409,11.2332088803 333.412601107,11.2391211116 " moovel_rot="147.3" moovel_centroid="331.199415983,12.289289435484525" moovel_centroidlatlon="9.180256678213338,48.78376621385261"/>
  <polygon id="425078295" class="tile" points="338.462782634,13.0090254653 334.434793052,13.0106090811 334.430001802,11.2332088803 338.459832771,11.2380455916 338.462782634,13.0090254653 " moovel_rot="74.0" moovel_centroid="336.445637594,12.122654704555611" moovel_centroidlatlon="9.217739519013968,48.80074523863273"/>
  <polygon id="386464152" class="tile" points="339.462782634,13.1296589026 342.134001751,13.1730889968 342.20688503,11.2332088803 339.511907904,11.2376398404 339.462782634,13.1296589026 " moovel_rot="116.4" moovel_centroid="340.83454069,12.192117110994163" moovel_centroidlatlon="9.169143395218901,48.707669844466"/>
</svg>