<svg xmlns="http://www.w3.org/2000/svg" version="1.1" width="592.5px" height="1200px">
  <polygon id="13" class="bin" points="-446.2499995,1207.499999 -448.901649929,1206.40164943 -449.9999995,1203.749999 -449.9999995,3.75 -448.901649929,1.09834957055 -446.2499995,0.0 -170.36385515,0.0 -167.712364513,1.09818978768 -166.613855177,3.74954805217 -166.592000508,185.086867812 -167.295014416,187.273269421 -169.140895768,188.639762225 -170.679465507,189.159963011 -172.604017151,193.188668786 -181.769924899,391.842794501 -180.294711139,395.959560859 -176.349987766,397.847199173 -164.792752919,398.496510375 -162.344160646,399.596269184 -161.257906964,402.050882494 -160.593043516,415.17548041 -161.721890284,418.051690187 -164.626949059,419.10407378 -187.010713016,417.375644884 -191.341687497,418.883310539 -193.176770424,423.086031839 -193.149602458,497.011918405 -190.772168315,502.167809111 -147.564011342,539.085713574 -146.2500005,541.936758439 -146.2500005,549.937166037 -147.656745609,552.864905184 -150.821550641,553.596066878 -158.059382777,551.970922532 -159.034648437,551.824462308 -187.059780421,549.65520163 -191.390201951,551.161243186 -193.227024289,555.362052094 -193.264901677,702.776737819 -191.652866263,706.772735972 -189.895402559,707.55746224 -187.674327607,710.982194309 -187.68700747,794.454808604 -187.7109403,904.305837579 -187.706966353,905.725742113 -186.020536147,909.776453915 -181.967125161,911.456480704 -172.956640448,911.467596038 -149.996599397,911.488419902 -147.347147872,912.587970675 -146.2500005,915.23841836 -146.2500005,944.390083142 -147.344150209,947.037527048 -149.988112091,948.140064298 -157.904650029,948.165161769 -163.08609494,950.596187181 -185.153205605,976.977234547 -186.741363417,981.343595327 -186.923216399,1145.19971025 -185.225318473,1149.28289432 -181.129140225,1150.94919959 -159.281438551,1150.75617533 -156.700662073,1151.75430279 -155.507012909,1154.25067362 -156.350401996,1156.88607881 -183.43841834,1189.86796907 -183.493806125,1189.93385191 -186.103622181,1192.96682638 -187.472605959,1199.24831584 -186.472388995,1202.70869504 -187.077632694,1206.00361944 -190.07491395,1207.499999 -446.2499995,1207.499999 " moovel_rot="0" moovel_centroid="-314.63048978833706,598.4837666390089"/>
  <polygon id="81246144" class="tile" points="17.2380401391,1212.49980192 40.3554165902,1201.0 76.0666650363,1212.91858323 76.9626472618,1222.11459674 49.1350995346,1223.31773422 48.3218108677,1320.55484657 76.5543737748,1319.21652545 76.9650838166,1353.48069006 18.4039462768,1356.66049205 22.2233731371,1319.2593811 31.4824694882,1319.60115811 31.1606825146,1312.19115698 23.5667331971,1312.40684592 24.1663891896,1299.02214526 2.21016031392,1299.48783697 1.0,1256.65649389 16.413699421,1256.82940858 17.2380401391,1212.49980192 " moovel_rot="-41.1" moovel_centroid="37.32645261194675,1282.7421327491177"/>
  <polygon id="390545093" class="tile" points="96.9177281286,1224.06993882 96.9208577082,1212.65498121 91.7721658274,1212.66147451 91.7687222526,1201.0 77.9650838166,1201.01392212 77.973171677,1217.45779199 78.9345111675,1217.45236157 92.0449594901,1217.44296174 92.0492425862,1224.07112202 96.9177281286,1224.06993882 " moovel_rot="-78.7" moovel_centroid="86.7860601976,1211.043951814937"/>
  <polygon id="185776180" class="tile" points="102.43226659,1262.40307978 98.0895091617,1262.42192471 97.9208577082,1201.11718394 102.506667103,1201.0 102.427027026,1260.62346379 102.43226659,1262.40307978 " moovel_rot="-7.5" moovel_centroid="100.235845166,1231.4488926544154"/>
  <polygon id="31240354" class="tile" points="103.506667103,1201.02682825 139.536363574,1201.0 139.56359734,1251.97679204 103.534015287,1251.99269449 103.506667103,1201.02682825 " moovel_rot="0.6" moovel_centroid="121.535804399,1226.4990641363338"/>
  <polygon id="387106845" class="tile" points="148.4540325,1219.6795887 140.571021477,1219.68301075 140.56359734,1201.0 148.44611216,1201.00750519 148.4540325,1219.6795887 " moovel_rot="2.6" moovel_centroid="144.50830659,1210.3426249225777"/>
  <polygon id="286535957" class="tile" points="167.349194805,1217.84550111 167.358327055,1231.48729109 149.463594076,1231.46569671 149.4540325,1208.2829898 153.773722244,1208.28406948 153.76884166,1206.72874749 153.771556406,1201.0 167.346635489,1201.02049919 167.343467895,1214.55116813 167.349194805,1217.84550111 " moovel_rot="66.6" moovel_centroid="158.818929503,1216.9526133386796"/>
  <polygon id="358711261" class="tile" points="221.2128055,1268.38319284 220.858694505,1264.36388703 219.711042482,1251.35150942 219.070729552,1244.58068783 218.392295913,1236.41738586 218.16778885,1233.79583529 217.489548279,1226.76122666 216.900166005,1219.49737853 216.649802401,1216.6303477 215.272003745,1201.0 168.453489573,1206.95776573 170.171157449,1221.39275135 170.37017626,1223.93924694 172.035152597,1238.65832182 172.353343521,1241.50688479 173.930499141,1255.52250563 170.108013571,1269.67261134 168.358327055,1274.71160939 221.2128055,1268.38319284 " moovel_rot="-33.4" moovel_centroid="194.757301391,1237.9932827923321"/>
  <polygon id="315766205" class="tile" points="255.914353496,1209.43826542 262.158524295,1231.58660134 252.681558101,1234.24421425 260.496353969,1261.89491526 251.210958489,1264.50348546 262.080284096,1302.99178158 226.122251387,1313.08450374 225.387596486,1310.47647633 222.298778156,1299.54917175 232.386521852,1296.72001264 246.54982773,1292.7446989 222.2128055,1206.54138688 241.965402651,1201.0 245.197479899,1212.45139623 255.914353496,1209.43826542 " moovel_rot="55.9" moovel_centroid="243.690603822,1253.4235644600797"/>
  <polygon id="181973886" class="tile" points="275.875738162,1201.0 263.158524295,1211.40885636 269.776995597,1219.93938492 275.864015745,1219.94031084 275.875738162,1201.0 " moovel_rot="49.0" moovel_centroid="271.272116672,1211.9030163463547"/>
  <polygon id="310096355" class="tile" points="284.620883892,1214.2710063 292.735672932,1213.92086268 305.786122792,1213.34932912 305.773116384,1201.00258978 307.161322827,1201.0 313.654626391,1201.0185932 313.689871419,1249.04855904 309.105124442,1249.24800381 304.645830322,1249.53529027 305.474205351,1245.50935798 276.896646923,1245.5973011 276.875738162,1228.74729795 285.365419821,1228.54095426 284.620883892,1214.2710063 " moovel_rot="-57.5" moovel_centroid="298.378306605,1229.108700722185"/>
  <polygon id="34619751" class="tile" points="314.689871419,1203.78668987 317.707500074,1235.54738903 335.35798678,1234.09409345 335.25046592,1230.67294301 335.397639578,1203.11128369 335.404862299,1201.0 329.161450212,1202.16178164 314.689871419,1203.78668987 " moovel_rot="43.3" moovel_centroid="325.787865728,1218.2369118825984"/>
  <polygon id="429101089" class="tile" points="336.528298796,1201.0 341.878184491,1201.0094368 341.763807565,1388.18577652 336.404862299,1388.1853641 336.528298796,1201.0 " moovel_rot="76.6" moovel_centroid="339.143750001,1294.621519829953"/>
  <polygon id="24529579" class="tile" points="398.113938866,1201.0 410.021857758,1236.79546131 411.596489095,1241.50870001 423.158773896,1237.56823046 423.933771447,1240.07698775 433.285155103,1236.97923027 437.899655307,1250.17619244 416.225087339,1257.80171162 420.67268726,1272.25287598 427.226774486,1293.16923868 428.584201152,1297.51159751 374.397745947,1298.64365684 375.293512609,1290.39288992 350.72125622,1293.52491602 348.68881892,1291.1574436 346.430185934,1279.40162561 351.168637812,1278.03951992 350.702449199,1276.17384639 342.994531308,1277.94331805 342.89148951,1273.86239619 343.230811099,1269.68898068 360.579387398,1262.49041873 342.878184491,1206.49507789 398.113938866,1201.0 " moovel_rot="71.4" moovel_centroid="385.463211762,1252.7804962857163"/>
  <polygon id="99252824" class="tile" points="438.899655307,1211.72386387 443.652486932,1211.72952312 443.633949183,1201.00293282 438.921099723,1201.0 438.899655307,1211.72386387 " moovel_rot="3.9" moovel_centroid="441.276895688,1206.3716305089447"/>
  <polygon id="48518677" class="tile" points="444.660767724,1201.0 444.652486932,1210.58654816 453.594408026,1210.60184222 453.591989253,1201.0176661 444.660767724,1201.0 " moovel_rot="77.5" moovel_centroid="449.124726868,1205.8024700714775"/>
  <polygon id="99252830" class="tile" points="454.604075827,1201.03377607 459.003640173,1201.0 459.11465353,1219.25903602 454.594408026,1219.29598201 454.604075827,1201.03377607 " moovel_rot="3.7" moovel_centroid="456.829263616,1210.1883773560312"/>
  <polygon id="42779381" class="tile" points="460.11465353,1208.52502788 474.05660188,1236.20260519 478.70830776,1222.43708474 478.720854859,1201.0 460.11465353,1208.52502788 " moovel_rot="-9.2" moovel_centroid="471.821622173,1215.884202900386"/>
  <polygon id="103260490" class="tile" points="495.594260948,1201.0 479.762132167,1203.4076616 479.720854859,1307.03596398 482.266681067,1322.34783652 482.457802306,1351.62917957 495.413168813,1350.61351026 495.594260948,1201.0 " moovel_rot="70.9" moovel_centroid="487.918010625,1274.1692391563627"/>
  <polygon id="103302725" class="tile" points="496.594260948,1246.47020138 496.613132723,1201.0 535.317375239,1201.03761587 535.298454987,1246.5078238 529.582805882,1246.49877659 496.594260948,1246.47020138 " moovel_rot="82.3" moovel_centroid="515.955632294,1223.753032529093"/>
  <polygon id="184185718" class="tile" points="577.429433227,1241.06330276 536.317375239,1242.05672596 536.36169944,1206.47002627 541.359178442,1206.18780965 543.937828691,1201.13158714 574.496001594,1201.0 577.142096983,1214.26993777 577.429433227,1241.06330276 " moovel_rot="-56.9" moovel_centroid="556.855021726,1221.8830299153992"/>
  <polygon id="293392098" class="tile" points="0.0,1388.18577652 4.12501620445,1388.19068475 16.7915646957,1388.21133208 16.8180730484,1426.77616095 0.0265584776178,1426.75057749 0.0191673204303,1421.71725419 0.0,1388.18577652 " moovel_rot="60.9" moovel_centroid="8.408043698017172,1407.48116325"/>
  <polygon id="8039813" class="tile" points="60.3691659595,1432.54128452 55.5426631151,1432.85850353 57.7729325073,1436.52191598 56.140036356,1438.07733203 43.7504916063,1437.83890822 40.1913745189,1433.24926992 18.8180730484,1432.95395802 18.8492892672,1403.70478178 41.7286051067,1389.14051683 46.4219171284,1388.18577652 51.2470127873,1388.79573166 55.6606774161,1391.19261806 60.0990794651,1395.78238394 60.3691659595,1432.54128452 " moovel_rot="-34.1" moovel_centroid="40.9843428449,1414.0308293"/>
  <polygon id="382974428" class="tile" points="66.5241198115,1388.22436828 62.3191250829,1388.18577652 61.3898112306,1388.22190933 61.3789803651,1398.85748617 61.3691659595,1406.76558546 75.7140047106,1401.38899874 74.2315280506,1397.28935514 74.0734583653,1395.67723578 73.7492063153,1394.08141019 73.1112243711,1392.57133268 72.1858626531,1391.21040426 71.0194131659,1390.06007068 69.6493845471,1389.16064408 68.132159271,1388.53958858 66.5241198115,1388.22436828 " moovel_rot="-5.6" moovel_centroid="67.2099219549,1396.91763452"/>
  <polygon id="202207151" class="tile" points="99.1565761636,1412.73261144 91.7852144229,1412.28274232 91.9310817462,1409.39665491 86.3638673048,1409.09001278 86.1821908974,1411.95505008 80.8474112376,1411.63623079 76.7461316905,1411.39223533 76.7682500566,1405.54719969 76.7140047106,1388.18577652 88.4982824051,1388.46353842 99.3514727349,1388.72599748 99.1565761636,1412.73261144 " moovel_rot="45.7" moovel_centroid="88.0321621543,1399.9122088"/>
  <polygon id="270663515" class="tile" points="122.57604216,1391.3192207 149.448127979,1388.18577652 149.48861546,1476.54677099 106.786120819,1476.41311401 100.351472735,1469.17849123 102.399360997,1445.85596216 110.842786867,1444.84967766 111.433436118,1425.20149224 119.906006024,1425.53426814 118.587084328,1398.32961043 122.57604216,1391.3192207 " moovel_rot="62.6" moovel_centroid="129.654417365,1437.8888614"/>
  <polygon id="300129438" class="tile" points="150.48861546,1388.18577652 150.527377534,1448.48233288 174.688592612,1449.32829573 175.748588815,1416.06359986 173.86352087,1415.56849565 170.516317492,1388.41119455 150.48861546,1388.18577652 " moovel_rot="-91.4" moovel_centroid="162.263448629,1419.65257516"/>
  <polygon id="251962462" class="tile" points="177.151183024,1388.18577652 204.098419748,1388.30496215 204.139537706,1464.38291596 197.56625578,1464.34292061 198.186872959,1433.13194172 181.479373231,1432.45016869 176.748588815,1427.94720236 177.151183024,1388.18577652 " moovel_rot="-0.7" moovel_centroid="192.113526657,1415.81069131"/>
  <polygon id="335689356" class="tile" points="205.161019746,1427.78861256 205.139537706,1388.19778843 213.855647837,1388.18577652 213.862844755,1415.29748177 213.866386616,1427.77449289 205.161019746,1427.78861256 " moovel_rot="-78.9" moovel_centroid="209.505568032,1407.98257702"/>
  <polygon id="380630665" class="tile" points="220.012441204,1388.1902865 219.984046509,1429.03835894 214.866386616,1429.03400151 214.901458737,1388.18577652 220.012441204,1388.1902865 " moovel_rot="-1.3" moovel_centroid="217.441078162,1408.61655018"/>
  <polygon id="188137373" class="tile" points="221.012441204,1388.18577652 223.590296754,1390.51450176 224.853967617,1408.35362915 221.022325309,1426.96531201 221.012441204,1388.18577652 " moovel_rot="-91.1" moovel_centroid="222.48832972,1405.1083747"/>
  <polygon id="8045206" class="tile" points="225.853967617,1388.18577652 235.295363499,1388.60288113 231.657161363,1508.62799499 225.998881415,1508.27720335 225.853967617,1388.18577652 " moovel_rot="-28.3" moovel_centroid="229.774903218,1443.41263608"/>
  <polygon id="405397492" class="tile" points="241.586390859,1388.1859914 241.580767035,1405.54706901 236.295363499,1405.54685984 236.300985274,1388.18577652 241.586390859,1388.1859914 " moovel_rot="-19.7" moovel_centroid="238.940876522,1396.86642363"/>
  <polygon id="150107435" class="tile" points="242.586390859,1476.62932361 242.604992886,1388.18577652 259.289960137,1388.2263545 259.271240487,1476.66997682 242.586390859,1476.62932361 " moovel_rot="57.4" moovel_centroid="250.93814729,1432.42780591"/>
  <polygon id="203618076" class="tile" points="260.289960137,1388.18577652 268.763751049,1388.19207838 268.764978966,1405.78035258 260.290616121,1405.78496387 260.289960137,1388.18577652 " moovel_rot="3.0" moovel_centroid="264.526888542,1396.98589185"/>
  <polygon id="445724815" class="tile" points="269.787100109,1390.47670065 269.764978966,1412.8731168 287.083387902,1411.32621807 286.450426959,1388.18577652 269.787100109,1390.47670065 " moovel_rot="-55.4" moovel_centroid="278.323231125,1400.78164607"/>
  <polygon id="188909987" class="tile" points="288.083387902,1388.18577652 288.096183114,1405.2559475 295.325830504,1405.26985152 301.244117473,1405.27613466 301.231333141,1388.20594592 294.925342163,1388.1931815 288.083387902,1388.18577652 " moovel_rot="31.5" moovel_centroid="294.663782525,1396.73087823"/>
  <polygon id="160957859" class="tile" points="302.244117473,1388.18577652 330.637712283,1400.0665121 330.755954257,1530.62048895 320.903042733,1535.0889382 307.718189342,1534.94261795 302.266104106,1530.01873185 302.244117473,1388.18577652 " moovel_rot="-2.6" moovel_centroid="316.259458512,1463.96348306"/>
  <polygon id="292395128" class="tile" points="331.769702453,1388.28390771 337.704635016,1388.18577652 337.702233263,1400.14238247 331.755954257,1399.84522153 331.769702453,1388.28390771 " moovel_rot="50.9" moovel_centroid="334.749763479,1394.11651707"/>
  <polygon id="120314903" class="tile" points="338.765124824,1423.80522416 338.704635016,1404.78988672 338.721664724,1388.20102862 351.479657243,1388.18920139 355.319952966,1388.18577652 355.303055586,1405.74582555 355.2907509,1423.88320072 338.765124824,1423.80522416 " moovel_rot="-68.2" moovel_centroid="347.018038146,1406.0052989"/>
  <polygon id="381334997" class="tile" points="361.554662298,1445.68777673 361.547542793,1388.18577652 356.495812371,1393.23605185 356.319952966,1440.69332949 361.554662298,1445.68777673 " moovel_rot="72.7" moovel_centroid="359.061264557,1417.11960887"/>
  <polygon id="271103227" class="tile" points="376.578174849,1388.19942141 376.571065674,1417.37123317 362.559664989,1417.35775512 362.554662298,1411.91699646 365.656560314,1411.92341919 365.66758178,1388.18577652 376.578174849,1388.19942141 " moovel_rot="80.7" moovel_centroid="370.765183907,1403.37675546"/>
  <polygon id="300474430" class="tile" points="380.777555589,1388.18577652 394.29009695,1403.0593682 380.404458306,1417.22429828 377.58821519,1414.21451234 388.756554838,1403.20469662 377.578174849,1391.10408022 380.777555589,1388.18577652 " moovel_rot="76.8" moovel_centroid="385.329417687,1402.602801"/>
  <polygon id="313252645" class="tile" points="395.29009695,1423.53962341 395.31886565,1388.18577652 401.959385275,1388.18719769 401.930610161,1423.54104371 395.29009695,1423.53962341 " moovel_rot="-82.3" moovel_centroid="398.624739498,1405.86340748"/>
  <polygon id="176300943" class="tile" points="403.032309641,1388.18577652 402.959385275,1491.09411851 415.422055219,1491.10319247 415.494967267,1388.19485104 403.032309641,1388.18577652 " moovel_rot="-92.6" moovel_centroid="409.227179339,1439.64449311"/>
  <polygon id="383611850" class="tile" points="416.494967267,1388.22824544 437.358611266,1388.18577652 437.359389256,1403.1694756 437.372188758,1418.50671438 416.50510232,1418.53883495 416.494967267,1388.22824544 " moovel_rot="-18.4" moovel_centroid="426.931828461,1403.36531916"/>
  <polygon id="149277983" class="tile" points="438.377561534,1388.20056065 438.372188758,1404.92862022 447.440169596,1404.91383076 447.445543323,1388.18577652 438.377561534,1388.20056065 " moovel_rot="-10.1" moovel_centroid="442.908865562,1396.55719689"/>
  <polygon id="378342692" class="tile" points="459.660003311,1457.74028365 463.216428403,1455.82173921 454.304575308,1437.82639706 453.137501013,1429.62986712 454.27453243,1417.22230517 463.198252672,1389.36873696 458.482260344,1388.18577652 449.469636698,1417.21939313 448.445543323,1425.52364091 449.03599157,1434.50586642 449.593389156,1438.89193534 459.660003311,1457.74028365 " moovel_rot="-28.5" moovel_centroid="454.881333003,1422.52801038"/>
  <polygon id="159269569" class="tile" points="464.216428403,1388.18577652 483.202629725,1388.20337233 483.217891991,1424.05654104 464.22967515,1424.02625762 464.216428403,1388.18577652 " moovel_rot="22.3" moovel_centroid="473.717216358,1406.11830389"/>
  <polygon id="334086183" class="tile" points="491.819152853,1388.18577652 515.136064626,1390.30778172 522.97025912,1391.02074927 528.429680232,1388.65380394 531.039671901,1393.02270324 533.787071099,1398.30281504 552.417242921,1440.05784174 554.772392568,1459.57426652 554.76417886,1475.40150058 540.509694328,1474.29873724 525.008356034,1473.09591487 508.970365169,1471.85766684 492.249345451,1470.25545357 484.217891991,1469.77268461 491.819152853,1388.18577652 " moovel_rot="-84.8" moovel_centroid="517.976649821,1435.29073204"/>
  <polygon id="32386625" class="tile" points="555.772392568,1388.18577652 567.000259546,1388.55446285 566.742861111,1405.5629907 555.78190199,1405.21038749 555.772392568,1388.18577652 " moovel_rot="5.8" moovel_centroid="561.324200015,1396.84426923"/>
  <polygon id="382974417" class="tile" points="568.030291225,1388.18577652 568.451472064,1504.46172405 568.000259546,1511.29493572 570.368142813,1511.29925192 569.990386946,1509.94882434 570.056103759,1504.48054921 573.176067785,1501.03133416 573.074247049,1393.49690953 568.030291225,1388.18577652 " moovel_rot="-5.2" moovel_centroid="570.616022998,1447.87573927"/>
  <polygon id="176090907" class="tile" points="0.0,1535.13188384 32.2794845817,1535.0889382 32.3296672021,1602.85613223 0.045494836662,1602.91106647 0.00149828265421,1538.79221766 0.0,1535.13188384 " moovel_rot="-9.9" moovel_centroid="16.16294688001868,1568.99767825"/>
  <polygon id="258756216" class="tile" points="35.7755412409,1602.50093257 42.1593805084,1605.94814622 45.5619666734,1614.61570337 57.5078585669,1629.16745436 57.5259903979,1535.0889382 48.5848465349,1535.29487328 43.3992460576,1535.2754189 43.4173223509,1537.59703879 34.3296672021,1542.60466028 38.0484800263,1554.22091386 39.1500467089,1570.21491037 39.1393640029,1574.37747689 39.0071390735,1583.75721363 37.3489773689,1594.48299656 35.7755412409,1602.50093257 " moovel_rot="-1.6" moovel_centroid="48.3177460525,1576.41483414"/>
  <polygon id="243689155" class="tile" points="58.5422028035,1535.0889382 58.5259903979,1559.06102298 75.1153715491,1559.09066746 75.1251107676,1535.11693661 67.3742258098,1535.1030689 58.5422028035,1535.0889382 " moovel_rot="14.1" moovel_centroid="66.8272657537,1547.08997599"/>
  <polygon id="446734874" class="tile" points="76.1251107676,1535.31013595 76.3705283842,1592.84547613 80.8875549151,1592.82542237 80.9415160912,1535.0889382 76.1251107676,1535.31013595 " moovel_rot="-33.9" moovel_centroid="78.5819701585,1563.70900763"/>
  <polygon id="50119550" class="tile" points="94.9183572388,1615.58779969 95.644914176,1620.59678482 97.3563104315,1632.40397915 103.754221483,1631.66708046 103.221957914,1626.48589116 109.197203343,1625.4385137 138.86609835,1583.27747465 134.609026728,1548.59964884 138.870500095,1547.8182895 138.037405557,1542.30837977 136.941695175,1535.0889382 110.004438261,1537.48732223 100.21078477,1554.6585601 81.9415160912,1557.54834285 82.7048767034,1565.86623204 104.54201118,1563.26850624 108.249437237,1595.11432564 105.320786944,1595.22551877 108.175965621,1613.06090996 94.9183572388,1615.58779969 " moovel_rot="-53.7" moovel_centroid="116.822816708,1574.82303437"/>
  <polygon id="100145913" class="tile" points="152.623186264,1554.85484142 151.413978804,1535.20307032 163.742489626,1535.09096936 175.683539385,1535.0889382 176.631158186,1543.38616188 176.630031189,1556.32876421 176.632513636,1570.52298179 176.623792153,1591.25916634 176.127174978,1597.38981321 168.950737302,1597.48257798 168.934838512,1591.78433547 160.006476438,1591.50471386 158.708289712,1579.90567578 152.456545704,1579.7317905 152.470007925,1578.29447838 149.614495725,1578.2775392 142.341333261,1576.6304379 139.870500095,1558.12674051 152.623186264,1554.85484142 " moovel_rot="3.2" moovel_centroid="162.428461298,1563.49897636"/>
  <polygon id="30580326" class="tile" points="200.785892431,1614.25358479 190.79782791,1597.54079437 178.67662449,1588.67333646 177.632513636,1576.43988247 185.182538118,1567.3335962 191.500243062,1555.74240465 193.273903629,1552.29623922 198.861500503,1535.0889382 203.376939809,1538.57755863 203.439615465,1610.48489113 200.785892431,1614.25358479 " moovel_rot="-55.8" moovel_centroid="194.282813709,1576.44267421"/>
  <polygon id="213264388" class="tile" points="214.482957417,1535.10623371 214.447270538,1642.8840482 204.439615465,1642.8767276 204.483333126,1535.0889382 214.482957417,1535.10623371 " moovel_rot="7.4" moovel_centroid="209.463214255,1588.99619407"/>
  <polygon id="28547635" class="tile" points="231.592551191,1578.58854129 215.482957417,1578.53382729 215.519425485,1535.0889382 231.629075426,1535.14361258 231.592551191,1578.58854129 " moovel_rot="54.8" moovel_centroid="223.556003621,1556.83871723"/>
  <polygon id="74099377" class="tile" points="273.13319941,1535.23921492 232.629075426,1536.25684028 235.079260962,1677.06988381 272.539947555,1676.97571469 285.615081047,1676.44390805 294.944407175,1676.62861776 294.938888917,1672.83931183 295.106925287,1538.91513626 295.169003671,1535.0889382 273.13319941,1535.23921492 " moovel_rot="56.4" moovel_centroid="264.455695914,1605.70204111"/>
  <polygon id="214791528" class="tile" points="298.250223828,1567.40232421 296.481244692,1565.22023144 296.169003671,1539.46709823 297.174207938,1539.35145516 300.470855244,1536.11656235 300.506207105,1535.15441681 311.070856918,1535.0889382 312.509878472,1537.06016891 312.477733627,1562.20180054 308.049897223,1562.39406843 307.873837685,1567.28494309 298.250223828,1567.40232421 " moovel_rot="-90.5" moovel_centroid="304.308003795,1550.88994686"/>
  <polygon id="229733061" class="tile" points="325.30770613,1596.60963091 313.548126127,1596.24029197 313.509878472,1535.0889382 325.279558562,1535.56715277 325.30770613,1596.60963091 " moovel_rot="-5.3" moovel_centroid="319.409573703,1565.87209522"/>
  <polygon id="128272994" class="tile" points="326.30770613,1568.38292269 326.340051467,1535.11135615 337.338865655,1535.0889382 337.315212643,1568.36707869 326.30770613,1568.38292269 " moovel_rot="-52.9" moovel_centroid="331.8256387,1551.73976557"/>
  <polygon id="10307333" class="tile" points="372.939197692,1636.19517321 338.368969734,1636.27452669 338.338865655,1535.15098583 362.293856115,1535.0889382 362.308119731,1576.88866224 372.924429543,1576.85878994 372.939197692,1636.19517321 " moovel_rot="-27.1" moovel_centroid="353.90019338,1589.98713306"/>
  <polygon id="335689354" class="tile" points="373.946620054,1535.0889382 373.939197692,1571.74909427 397.440199554,1571.78983812 397.454017322,1535.13160887 373.946620054,1535.0889382 " moovel_rot="17.2" moovel_centroid="385.694906554,1553.43903838"/>
  <polygon id="100985167" class="tile" points="398.557086061,1673.64541159 406.179584536,1673.61301674 406.076565198,1535.0889382 398.454017322,1535.12132101 398.557086061,1673.64541159 " moovel_rot="-76.3" moovel_centroid="402.316813168,1604.36709709"/>
  <polygon id="206198091" class="tile" points="407.223232846,1535.0889382 407.179584536,1569.54829453 413.975804008,1569.23235721 420.821005048,1569.35272417 420.527190269,1535.14943076 413.844803145,1535.11878997 407.223232846,1535.0889382 " moovel_rot="-63.2" moovel_centroid="413.929494473,1552.30166239"/>
  <polygon id="203194586" class="tile" points="421.821005048,1535.0889382 421.829199651,1554.08743423 435.923347848,1554.08931749 435.920156814,1541.59994483 431.104149859,1541.6070475 431.099148511,1535.09791402 421.821005048,1535.0889382 " moovel_rot="12.4" moovel_centroid="428.257634558,1545.41876624"/>
  <polygon id="230102150" class="tile" points="436.98381167,1605.29341297 452.042457765,1605.29339892 451.99798419,1553.06774675 451.986007107,1535.10106354 436.923347848,1535.0889382 436.98381167,1605.29341297 " moovel_rot="13.2" moovel_centroid="444.483070167,1570.19311671"/>
  <polygon id="57130378" class="tile" points="453.042457765,1570.11537221 487.97140778,1570.09620283 487.977053969,1568.98976079 487.977736847,1554.09596971 487.971461255,1535.0889382 470.446761333,1535.09618443 453.043115987,1535.1014558 453.042457765,1570.11537221 " moovel_rot="-84.6" moovel_centroid="470.508729218,1552.60123073"/>
  <polygon id="30725032" class="tile" points="488.990814258,1535.1126129 488.981857821,1555.51844435 488.977736847,1569.03552622 495.959402983,1569.02130174 504.994621026,1569.0118158 504.994307673,1555.06239757 509.700406991,1553.32368702 509.429849464,1544.39593236 509.359079971,1541.10345335 505.000159837,1538.98699485 505.007712433,1535.0889382 488.990814258,1535.1126129 " moovel_rot="-21.4" moovel_centroid="498.061357103,1551.55171475"/>
  <polygon id="230092268" class="tile" points="73.9807924982,1702.9657723 59.3447960956,1703.00788187 59.3414317455,1709.85905311 22.9964668326,1709.95069745 22.9956993883,1702.96146091 0.0,1703.01484448 6.08993035946,1716.75876962 13.8314850608,1730.95688619 18.3550546378,1731.19487221 46.9193034729,1790.20936486 61.4418184765,1793.18218077 63.9800158538,1793.27377909 63.9687118186,1788.77177096 64.1734114967,1734.95076521 80.0216511704,1734.96546661 82.7727256609,1734.52972503 82.7842983456,1677.06988381 78.8738250012,1677.09329015 68.1070184682,1677.14764251 68.104293626,1680.46704753 73.9832616845,1680.45057829 73.9807924982,1702.9657723 " moovel_rot="-52.4" moovel_centroid="48.61204820774506,1734.33631703"/>
  <polygon id="243582803" class="tile" points="122.780008587,1678.66216792 93.6020722833,1677.4418595 84.7842983456,1677.06988381 84.7866907436,1711.23591361 108.519259959,1711.38857465 108.018960136,1720.27885848 121.133171108,1720.49268963 122.780008587,1678.66216792 " moovel_rot="50.6" moovel_centroid="104.318178453,1696.33754107"/>
  <polygon id="213282011" class="tile" points="128.397894254,1677.06988381 129.539472126,1833.67156173 123.780008587,1836.12319548 123.88448434,1678.9056795 128.397894254,1677.06988381 " moovel_rot="63.7" moovel_centroid="126.410689521,1759.61556593"/>
  <polygon id="274454707" class="tile" points="130.539472126,1684.91639076 134.219719531,1686.92328309 134.220738372,1679.04423743 130.719640201,1677.06988381 130.539472126,1684.91639076 " moovel_rot="-7.2" moovel_centroid="132.421992302,1682.01960074"/>
  <polygon id="32606197" class="tile" points="140.473211333,1907.63742685 151.560533874,1907.09155652 148.478316513,1852.16828022 146.978137762,1823.58102241 146.640992569,1795.09863375 147.129484067,1752.78735965 146.90625846,1713.06884499 151.556915563,1677.06988381 146.736959391,1677.08040401 143.883487492,1694.40864124 138.792965999,1725.38835495 135.725365854,1751.93642332 135.220738372,1817.3836176 140.473211333,1907.63742685 " moovel_rot="-37.3" moovel_centroid="142.803489074,1803.5732667"/>
  <polygon id="312215755" class="tile" points="152.560533874,1677.10587051 164.661141227,1677.06988381 164.65448769,1702.0156487 152.711600275,1702.01558662 152.714795234,1699.87243897 152.560533874,1677.10587051 " moovel_rot="-5.1" moovel_centroid="158.65233212,1689.52213482"/>
  <polygon id="337672659" class="tile" points="165.705073283,1740.4637433 165.661141227,1677.07257881 175.958376422,1677.06988381 176.002433986,1740.45437031 165.705073283,1740.4637433 " moovel_rot="-88.9" moovel_centroid="170.831665874,1708.76521087"/>
  <polygon id="9871851" class="tile" points="194.040530507,1683.19032026 187.456747194,1683.28239426 187.723585061,1677.06988381 186.788702061,1677.07151361 177.003490157,1677.09655735 177.002433986,1681.17573051 177.018539115,1709.88919971 188.036679935,1709.51426162 188.039845614,1707.68285929 193.732052855,1707.3747595 194.040530507,1683.19032026 " moovel_rot="57.5" moovel_centroid="184.888393043,1693.99669215"/>
  <polygon id="444929796" class="tile" points="195.040530507,1677.06988381 195.046443414,1770.8235382 212.574628812,1771.05071634 214.510649934,1677.4655413 195.040530507,1677.06988381 " moovel_rot="32.4" moovel_centroid="204.299277,1723.28238597"/>
  <polygon id="446537166" class="tile" points="230.400352058,1677.07737507 215.510649934,1677.06988381 215.535758802,1767.48854336 230.436247231,1767.49434553 230.400352058,1677.07737507 " moovel_rot="81.1" moovel_centroid="222.970730593,1722.28799357"/>
  <polygon id="188137360" class="tile" points="231.440743549,1687.37369666 238.538874746,1687.36419378 238.534379418,1677.06988381 231.436247231,1677.07938662 231.440743549,1687.37369666 " moovel_rot="-86.3" moovel_centroid="234.987561232,1682.2217901"/>
  <polygon id="79292056" class="tile" points="239.54491596,1677.06988381 239.538874746,1721.14078652 274.993943958,1714.13366118 277.084082226,1713.44270512 275.95876745,1677.42342784 270.837044196,1677.56481157 239.54491596,1677.06988381 " moovel_rot="-0.6" moovel_centroid="257.433522154,1697.55135526"/>
  <polygon id="137154251" class="tile" points="317.544406239,1695.57594739 300.544209476,1677.75107477 278.084082226,1677.06988381 278.149821671,1752.44197829 286.309790079,1766.29080464 316.951690019,1768.33477623 317.372746178,1753.76450145 317.544406239,1695.57594739 " moovel_rot="15.9" moovel_centroid="297.480837899,1723.33592829"/>
  <polygon id="331732811" class="tile" points="338.384664639,1718.12905416 338.349512654,1677.83954219 321.202723489,1677.06988381 318.544406239,1716.48292067 338.384664639,1718.12905416 " moovel_rot="72.9" moovel_centroid="329.131305736,1697.86992199"/>
  <polygon id="366282637" class="tile" points="339.384664639,1677.06988381 339.388710659,1693.05468851 351.684259693,1693.07376921 351.680227754,1677.08895809 339.384664639,1677.06988381 " moovel_rot="65.5" moovel_centroid="345.534466099,1685.07182338"/>
  <polygon id="337784305" class="tile" points="352.86176512,1677.06988381 352.684259693,1729.27250671 362.673090687,1734.46426994 362.647559149,1682.60139828 352.86176512,1677.06988381 " moovel_rot="16.2" moovel_centroid="357.709421227,1705.93690847"/>
  <polygon id="95785963" class="tile" points="363.730018288,1723.48260957 387.118679741,1723.87498016 387.104858496,1723.13972605 386.642623892,1695.78611929 386.55312433,1690.27998777 386.341841609,1685.43760547 388.395986216,1680.20939099 383.536069306,1678.20496553 381.185331771,1683.83232407 376.574457708,1682.18229766 376.340145986,1677.14079593 369.970240684,1677.06988381 370.024822676,1679.9253942 363.673090687,1679.78000646 363.730018288,1723.48260957 " moovel_rot="-59.7" moovel_centroid="375.225857328,1701.64071757"/>
  <polygon id="137577671" class="tile" points="389.431148567,1678.02804035 389.395986216,1755.33897026 396.500179862,1754.47071452 395.422459528,1677.06988381 389.431148567,1678.02804035 " moovel_rot="24.7" moovel_centroid="392.696543154,1717.3206801"/>
  <polygon id="165883114" class="tile" points="420.696876394,1677.06988381 420.70298666,1705.0238394 398.443306185,1704.75217405 397.500179862,1699.59716618 398.492549872,1685.39426479 398.383339337,1677.49814721 420.696876394,1677.06988381 " moovel_rot="4.4" moovel_centroid="409.455946398,1691.16564309"/>
  <polygon id="42744174" class="tile" points="436.163571694,1782.91066858 429.387306237,1783.25237755 421.743267616,1783.50609551 421.805145933,1775.22713573 421.806892532,1772.22688497 421.797384142,1766.85017433 421.70298666,1677.06988381 424.268168238,1677.14791565 437.123528923,1677.54172587 436.215972093,1777.62106589 436.163571694,1782.91066858 " moovel_rot="54.6" moovel_centroid="429.190937803,1729.64507721"/>
  <polygon id="14352198" class="tile" points="438.123528923,1681.59641161 447.843570991,1681.51332486 447.837712623,1677.06988381 452.848209798,1677.09066128 452.856045787,1699.73905102 438.277700701,1699.90259933 438.123528923,1681.59641161 " moovel_rot="-12.4" moovel_centroid="445.89082965,1689.79525095"/>
  <polygon id="395577877" class="tile" points="453.869960664,1695.09068463 453.856045787,1677.07972616 465.529743147,1677.06988381 465.54400984,1695.08751217 453.869960664,1695.09068463 " moovel_rot="-93.0" moovel_centroid="459.700300098,1686.08199606"/>
  <polygon id="287243507" class="tile" points="468.095985813,1706.71537591 469.97562105,1706.70988677 469.979986977,1711.84246317 491.258397257,1711.8211947 491.214276435,1677.06988381 469.400525501,1677.0964803 469.410616211,1687.08757277 469.42638635,1699.74507994 469.429075279,1702.63882926 466.54400984,1702.6460126 466.54615298,1704.89818987 466.544060565,1706.71610441 468.095985813,1706.71537591 " moovel_rot="-92.0" moovel_centroid="480.177664946,1694.5611713"/>
  <polygon id="198832358" class="tile" points="492.258397257,1677.08657115 492.289997695,1766.50126688 502.303787151,1766.4845329 502.272199823,1677.06988381 492.258397257,1677.08657115 " moovel_rot="-15.7" moovel_centroid="497.281095043,1721.78555394"/>
  <polygon id="4829499" class="tile" points="555.836268902,1782.46466289 562.684640478,1776.40383396 558.983248499,1772.27672666 564.343340482,1772.15820638 564.536967307,1728.66295498 564.490051236,1690.92218321 559.795323671,1690.52080447 558.526284368,1688.88726051 562.079855496,1685.46161688 554.998362998,1677.06988381 528.15807954,1700.83209662 503.303787151,1722.2879124 532.838451427,1755.73017553 555.836268902,1782.46466289 " moovel_rot="-66.6" moovel_centroid="543.159942555,1727.928101"/>
  <polygon id="299679054" class="tile" points="572.753296314,1677.06988381 572.755116739,1704.1895324 565.536967307,1702.2156193 566.35247226,1683.284515 572.753296314,1677.06988381 " moovel_rot="-5.7" moovel_centroid="569.553875788,1691.8973131"/>
  <polygon id="106372821" class="tile" points="0.0,1913.10938413 11.792401442,1913.09442431 11.7912428515,1907.65547311 23.7881547112,1907.63742685 23.7943176443,1919.36239053 29.5463088983,1919.34814298 29.5539510629,1940.61462018 0.0100458208937,1940.67448121 0.0,1913.10938413 " moovel_rot="-19.6" moovel_centroid="14.498964830038407,1926.04661618"/>
  <polygon id="213276966" class="tile" points="31.5539510629,1955.17436673 31.5749698991,1907.63742685 51.5015517493,1919.01176066 61.3396895101,1928.83830356 56.046875702,1962.52420252 47.1308880969,1961.45191263 47.6547686711,1952.87931312 31.5539510629,1955.17436673 " moovel_rot="-4.1" moovel_centroid="44.8680085105,1936.01850381"/>
  <polygon id="211216615" class="tile" points="62.3396895101,1947.17678027 62.3498573057,1907.63742685 67.2176200034,1907.64004228 67.2074469959,1947.17939501 62.3396895101,1947.17678027 " moovel_rot="-82.4" moovel_centroid="64.7786534476,1927.40840757"/>
  <polygon id="98041061" class="tile" points="68.2176200034,1971.59022507 68.2770180735,1907.88299786 74.8277264605,1907.63742685 74.9391425432,1971.74860625 68.2176200034,1971.59022507 " moovel_rot="-45.3" moovel_centroid="71.5689376254,1939.85174436"/>
  <polygon id="138207594" class="tile" points="93.8811801925,1941.73721074 93.9906720627,1946.22425044 94.9670311849,1987.20665989 83.5719275239,1987.08132267 75.9907011769,1986.29969676 75.9391425432,1907.63742685 80.0607501691,1907.71139077 84.4040455121,1907.78705881 104.806848507,1908.16055447 105.360403179,1941.03392205 93.8811801925,1941.73721074 " moovel_rot="57.6" moovel_centroid="88.0459326187,1943.06617173"/>
  <polygon id="289537928" class="tile" points="127.437609176,2045.41713453 133.409652528,1929.86128043 124.014527405,1928.50249585 121.440197634,1907.63742685 106.360403179,1909.42085623 106.521735623,2032.70796988 127.437609176,2045.41713453 " moovel_rot="40.1" moovel_centroid="118.302251065,1974.85524591"/>
  <polygon id="316767850" class="tile" points="143.141715945,1907.63742685 157.644694199,1910.77323721 154.026228831,1925.65562111 155.846833383,1926.55118389 158.171763528,1919.18706157 165.881406349,1925.69652556 160.077093477,1947.85383415 165.872775835,1949.36935416 164.136003343,1956.01584153 162.570998714,1955.60926742 160.958316642,1955.19698591 158.217817793,1950.89212209 157.159541459,1949.19096636 154.093619853,1948.43608178 134.409652528,1943.16996766 143.141715945,1907.63742685 " moovel_rot="20" moovel_centroid="150.598868737,1931.11115201"/>
  <polygon id="119539531" class="tile" points="166.881406349,1927.79095849 186.341181495,1927.82928277 186.336606522,1907.68325152 166.884762828,1907.63742685 166.881406349,1927.79095849 " moovel_rot="46.6" moovel_centroid="176.610384432,1917.73591315"/>
  <polygon id="126819149" class="tile" points="197.832241963,1928.39492893 206.152323928,1927.30218908 205.039384669,1907.63742685 187.365953721,1908.92519983 187.341181495,1929.44619713 197.832241963,1928.39492893 " moovel_rot="80.1" moovel_centroid="196.423581018,1918.47597895"/>
  <polygon id="162845235" class="tile" points="219.02107116,1907.63742685 212.707081188,1908.94519309 207.152323928,1910.09153559 212.595295101,1938.14498336 219.018463149,1937.97876691 219.02107116,1907.63742685 " moovel_rot="61.5" moovel_centroid="214.347292995,1921.97267419"/>
  <polygon id="40936945" class="tile" points="272.410035898,2017.43561034 272.832105213,2020.19221741 275.909316582,2021.72769562 289.645286121,2028.62181502 307.217971918,2037.69320361 283.029911591,2081.20055215 304.591575411,2094.32598971 293.152701631,2115.02734052 278.064605162,2106.6098957 243.313579545,2087.57768632 241.68152874,2090.00641953 227.137620153,2082.26780051 258.808524899,2023.91717877 241.630835218,2014.56818226 237.582689113,2012.37623348 238.961061077,2009.87271251 229.828449972,2004.85380587 222.511864718,1986.58235419 225.800538249,1976.53180108 220.02107116,1974.18513513 221.978499353,1968.6704105 222.379522565,1968.82124539 227.237184001,1955.08824423 233.452560612,1957.23467658 240.717628477,1936.2420446 234.27546913,1934.00192159 240.324246413,1916.41120282 243.585089315,1907.63742685 252.479236454,1911.19117884 252.045120262,1914.02704319 255.709145321,1915.7868743 257.654566228,1917.50550695 254.481739275,1930.0870416 297.702974062,1952.71787533 306.106972949,1957.02429677 304.462849304,1960.06563238 307.242746373,1961.59780909 280.459866552,2012.36588457 275.716034674,2009.87098822 272.410035898,2017.43561034 " moovel_rot="54.9" moovel_centroid="264.357794085,2012.4549316"/>
  <polygon id="30708280" class="tile" points="308.242746373,1907.63742685 339.759030058,1908.31593459 339.801714524,1969.76090391 308.285431006,1969.08240983 308.242746373,1907.63742685 " moovel_rot="-0.7" moovel_centroid="324.022229906,1938.69916875"/>
  <polygon id="34782006" class="tile" points="352.688873306,1907.63742685 375.743870923,1912.46135464 375.709087156,1927.52464888 375.697747691,1949.13611318 375.692631189,1951.95421683 375.689821483,1954.52914565 375.683506064,1957.09371729 375.684459589,1960.22140904 376.501020436,1961.13389429 376.561343928,1974.99906348 375.666046622,1974.97891627 375.656408022,1982.45013949 371.415972367,1982.44264323 344.7322339,1982.45993833 340.801714524,1982.45142038 340.847540622,1945.33830154 340.855974391,1940.17592606 340.862115682,1937.81916497 341.169230264,1915.41493078 350.177872563,1915.44755067 351.878901942,1908.11935424 352.73273588,1908.1419982 352.688873306,1907.63742685 " moovel_rot="-18.7" moovel_centroid="358.557997749,1947.07319288"/>
  <polygon id="9872874" class="tile" points="377.561343928,1921.49806346 383.294006542,1921.58579592 383.147150272,1915.96052325 382.933526499,1907.74734689 393.471927989,1907.63742685 393.47159685,1907.85709603 393.656098951,1922.56262844 389.671102138,1922.72250378 389.725515298,1925.10246024 389.741757655,1925.82633598 390.463861034,1958.92830718 386.763127941,1958.91754171 384.05827445,1959.0013631 384.003538239,1950.64703253 377.605103587,1950.84046916 377.561343928,1921.49806346 " moovel_rot="-3.4" moovel_centroid="385.325533274,1932.29784393"/>
  <polygon id="109938760" class="tile" points="401.690891034,1910.29529728 397.544923852,1927.22502054 394.656098951,1948.98997707 395.919761883,1985.52062534 429.795235674,1986.54548537 429.806900883,1977.44780965 429.825119478,1944.04283247 424.496981665,1928.60042407 409.296166241,1907.63742685 401.690891034,1910.29529728 " moovel_rot="-42.3" moovel_centroid="411.870312162,1952.18135679"/>
  <polygon id="103623834" class="tile" points="430.843285866,1955.34164104 476.946768407,1955.33047792 476.928607796,1907.63742685 430.825119478,1907.6485899 430.843285866,1955.34164104 " moovel_rot="-89.3" moovel_centroid="453.885945381,1931.48953343"/>
  <polygon id="409588135" class="tile" points="486.228670011,1907.83205919 477.946768407,1907.63742685 477.955000304,1934.28008099 485.20220924,1934.11980429 486.228670011,1907.83205919 " moovel_rot="84.4" moovel_centroid="481.830231884,1920.67150445"/>
  <polygon id="392319331" class="tile" points="502.214716935,1907.88453573 501.962861076,1930.41989864 487.232384297,1930.0042723 487.228670011,1907.63742685 502.214716935,1907.88453573 " moovel_rot="56.6" moovel_centroid="494.669442221,1918.95468792"/>
  <polygon id="185766643" class="tile" points="508.095975882,2022.08857833 503.261235623,2022.10202818 503.214716935,1907.6508635 508.049458768,1907.63742685 508.095975882,2022.08857833 " moovel_rot="-6.8" moovel_centroid="505.655346754,1964.86972112"/>
  <polygon id="208507339" class="tile" points="509.095975882,1949.70121575 509.122293196,1907.63742685 543.260282306,1907.64203095 543.233381395,1949.71247352 536.495798744,1949.70972774 532.913184816,1949.71050769 519.678998947,1949.70514371 515.549062396,1949.70017976 509.095975882,1949.70121575 " moovel_rot="-85.2" moovel_centroid="526.178565187,1928.67317534"/>
  <polygon id="328585505" class="tile" points="559.646137834,1908.60428713 559.661093779,1907.64154277 545.673818796,1907.63742685 545.67173657,1920.04135711 544.262536994,1920.05857459 544.260282306,1923.70101253 549.851131645,1923.69833301 549.851935784,1924.31086039 553.926593189,1924.3157674 553.923140672,1928.95358867 556.648439296,1928.95310566 556.650419567,1923.6480744 558.540750697,1923.64685483 558.246011418,1936.6996689 559.942928332,1936.72268866 561.512549633,1936.71444929 561.51997244,1923.65420762 561.507650274,1916.08514213 561.496396939,1908.60355723 559.646137834,1908.60428713 " moovel_rot="-0.7" moovel_centroid="554.292956399,1918.25201835"/>
  <polygon id="211299499" class="tile" points="563.778192519,1984.91854738 563.22973452,1951.7577632 562.51997244,1909.61456906 579.190425708,1907.63742685 579.186419763,1916.28548367 579.085476837,1984.5621343 563.778192519,1984.91854738 " moovel_rot="-78.3" moovel_centroid="571.169352871,1946.13297117"/>
  <polygon id="127605824" class="tile" points="0.0,2417.80409183 13.1596954085,2417.66230355 13.213850187,2115.02734052 0.368424421549,2115.39060118 0.0,2417.80409183 " moovel_rot="-82.8" moovel_centroid="6.685881835836768,2267.08070647"/>
  <polygon id="53513315" class="tile" points="15.213850187,2132.8595875 15.2140668055,2115.02734052 28.963267817,2115.05407907 28.9630394207,2132.88634542 15.213850187,2132.8595875 " moovel_rot="31.3" moovel_centroid="22.0885573037,2123.95683686"/>
  <polygon id="165951049" class="tile" points="34.8364438394,2121.32705618 33.9778258838,2115.02734052 29.9682243353,2115.62528666 29.963267817,2121.88361626 34.8364438394,2121.32705618 " moovel_rot="70.5" moovel_centroid="32.202249721,2118.56517873"/>
  <polygon id="297839649" class="tile" points="35.8364438394,2116.34201367 37.2151744497,2122.77321738 41.9695822323,2121.75396066 41.9688461856,2115.02734052 35.8364438394,2116.34201367 " moovel_rot="-12.1" moovel_centroid="39.2329612136,2118.83534577"/>
  <polygon id="43554801" class="tile" points="72.7257537682,2115.02734052 72.726954382,2164.28761115 62.638100053,2164.3129371 47.8674451316,2164.35879394 47.8659339477,2163.38144661 43.0640526776,2163.2710654 42.9695822323,2133.49073173 42.9929640156,2122.60894647 52.5799321527,2123.26088896 53.1778214381,2115.08101233 72.7257537682,2115.02734052 " moovel_rot="73.0" moovel_centroid="58.4646690419,2140.76337981"/>
  <polygon id="444626868" class="tile" points="111.264073996,2162.08681037 111.269287372,2163.45585032 73.7276979143,2163.45748967 73.726954382,2115.02898584 111.268543934,2115.02734052 111.263033553,2117.92947309 111.264073996,2162.08681037 " moovel_rot="0.9" moovel_centroid="92.4955515223,2139.24240227"/>
  <polygon id="316133660" class="tile" points="112.269287372,2115.02734052 131.394168439,2117.28069476 124.828862533,2145.40095152 120.763657723,2145.09881769 112.312133174,2144.48228462 112.269287372,2115.02734052 " moovel_rot="6.1" moovel_centroid="120.285530524,2129.53053848"/>
  <polygon id="255562785" class="tile" points="132.405697055,2115.05343194 147.734623974,2115.02734052 147.714617619,2155.09966041 132.394168439,2155.13279018 132.405697055,2115.05343194 " moovel_rot="-50.3" moovel_centroid="140.062052692,2135.07645807"/>
  <polygon id="70130305" class="tile" points="148.734623974,2136.26734128 148.73733871,2128.23438483 148.738685427,2115.07831051 166.881330958,2115.02734052 166.882462016,2128.0849542 166.885206799,2136.2238249 148.734623974,2136.26734128 " moovel_rot="-46.8" moovel_centroid="157.810474655,2125.64991947"/>
  <polygon id="390843203" class="tile" points="202.45379174,2157.88380336 202.459698355,2157.37930516 202.455208496,2156.83374959 213.033555745,2156.84073223 213.042769613,2153.88610535 202.470479613,2153.88193714 202.494851765,2143.72427973 202.495919937,2142.46874932 202.50384577,2132.26720416 202.514945377,2122.04295803 202.51601552,2120.78742337 202.504841447,2117.14699015 200.446987455,2115.0444287 185.241584934,2115.02734052 169.999562058,2115.04155316 167.904020288,2117.16059862 167.892371661,2132.2878988 167.88804345,2157.34594398 167.885206799,2182.41663953 167.897862867,2197.55503437 169.973899868,2199.66601485 185.195984432,2199.67889197 200.328644188,2199.66232709 202.427063059,2197.56881076 202.443268081,2193.9169853 202.442885592,2192.64871642 202.456832639,2182.45006332 202.464728924,2172.24858182 202.464348424,2170.98030865 202.47776342,2160.87798373 213.027263796,2160.88365699 213.032138616,2157.89078681 202.45379174,2157.88380336 " moovel_rot="24.9" moovel_centroid="185.659748093,2157.33926948"/>
  <polygon id="124129742" class="tile" points="214.042769613,2120.87909766 214.062099961,2135.82830854 217.233558888,2138.1689688 225.757357872,2139.96302615 224.56613964,2152.41547662 248.549176585,2156.39043553 248.566864006,2115.02734052 214.042769613,2120.87909766 " moovel_rot="37.7" moovel_centroid="233.963846317,2134.50349881"/>
  <polygon id="201855215" class="tile" points="254.689831497,2115.02734052 254.691744815,2120.49528701 249.568777325,2120.5001954 249.566864006,2115.03224889 254.689831497,2115.02734052 " moovel_rot="-0.3" moovel_centroid="252.129304409,2117.76376795"/>
  <polygon id="258870664" class="tile" points="281.702855778,2204.39754414 318.295224124,2204.41071358 318.342313253,2115.04997579 269.450501585,2115.02734052 269.433576985,2144.20617732 255.701884546,2144.1967958 255.691744815,2162.56471087 285.658851777,2162.57990969 285.64265021,2193.68979954 281.70684275,2193.68677087 281.702855778,2204.39754414 " moovel_rot="-88.4" moovel_centroid="294.566863216,2155.68587874"/>
  <polygon id="363451954" class="tile" points="356.328725541,2175.1727409 343.492865877,2187.00786341 320.978504076,2157.46967387 319.342313253,2147.82058242 338.155691642,2131.76315776 328.539910659,2120.51960324 335.750907819,2115.02734052 356.358975025,2132.76680965 349.460337205,2141.74633427 336.611771651,2154.03912947 356.328725541,2175.1727409 " moovel_rot="70.6" moovel_centroid="338.260018417,2151.18286517"/>
  <polygon id="302584517" class="tile" points="363.60048186,2115.02734052 363.62217748,2124.19736772 357.358975025,2124.36196471 357.373879236,2115.03933061 363.60048186,2115.02734052 " moovel_rot="1.2" moovel_centroid="360.480320101,2119.66114468"/>
  <polygon id="50476347" class="tile" points="393.911672621,2154.39199948 364.647254648,2154.38744741 364.62217748,2115.02734052 393.88660259,2115.03185212 393.911672621,2154.39199948 " moovel_rot="10" moovel_centroid="379.266929342,2134.70965908"/>
  <polygon id="25041611" class="tile" points="427.443253436,2115.11049635 394.941692377,2115.02734052 394.911672621,2175.19437459 427.42277124,2175.27248054 427.443253436,2115.11049635 " moovel_rot="62.1" moovel_centroid="411.17961837,2145.15264316"/>
  <polygon id="185766637" class="tile" points="428.732240709,2115.02734052 432.608328805,2115.17594444 432.686567086,2206.10782904 428.443253436,2206.00615039 428.732240709,2115.02734052 " moovel_rot="38.0" moovel_centroid="430.616586704,2161.26480718"/>
  <polygon id="30351215" class="tile" points="433.686567086,2115.03433769 441.236020592,2115.02734052 441.24985574,2128.84636994 433.693731089,2128.85369443 433.692813693,2120.35775251 433.686567086,2115.03433769 " moovel_rot="-2.8" moovel_centroid="437.467401515,2121.94157436"/>
  <polygon id="13560486" class="tile" points="442.24985574,2115.02734052 459.51720939,2115.28652268 457.907489724,2267.53585489 442.513393913,2266.50243553 442.24985574,2115.02734052 " moovel_rot="-10.6" moovel_centroid="450.56100958,2189.63960709"/>
  <polygon id="137728461" class="tile" points="460.51720939,2143.65038782 462.768984234,2143.59615716 472.526011407,2143.9044454 472.493890143,2115.32253868 463.218873972,2115.08851729 461.118767744,2115.02734052 460.51720939,2143.65038782 " moovel_rot="-90.7" moovel_centroid="466.663443102,2129.58099197"/>
  <polygon id="123216727" class="tile" points="497.156226711,2194.82129055 479.337624757,2194.7764759 479.329590053,2133.18160107 473.534414388,2133.1735076 473.526011407,2118.60811823 483.697514383,2118.630884 483.699787477,2115.02734052 488.235650871,2115.03675099 497.147808179,2115.04803226 497.156226711,2194.82129055 " moovel_rot="31.3" moovel_centroid="487.644168901,2153.67415696"/>
  <polygon id="12346063" class="tile" points="498.168295446,2115.04675889 498.156226711,2154.90006987 525.479589419,2154.86992156 525.494135357,2115.02734052 498.168295446,2115.04675889 " moovel_rot="-13.0" moovel_centroid="511.823948559,2134.96072178"/>
  <polygon id="375012019" class="tile" points="526.494135357,2115.74454205 533.399906016,2187.5516951 526.566430374,2201.84073958 539.992235881,2203.7680551 541.688144454,2185.43886122 553.934757774,2154.91169191 539.012448179,2115.02734052 526.494135357,2115.74454205 " moovel_rot="45.3" moovel_centroid="538.379614517,2155.61438149"/>
  <polygon id="98888186" class="tile" points="0.723680290952,2515.91091595 0.0,2461.44780468 3.75438949149,2461.23869247 3.36467312649,2453.97371914 3.60985868499,2433.51418181 4.8495697936,2433.53584547 4.93491014745,2428.90649722 5.58830283489,2417.80409183 14.9256387765,2418.53090818 17.5222601004,2418.7345381 35.1515110815,2419.02935566 35.0775568787,2424.64136704 39.0095356861,2424.84846236 39.0049642224,2516.71352155 0.723680290952,2515.91091595 " moovel_rot="41.1" moovel_centroid="20.34079623142905,2469.03334129"/>
  <polygon id="276739259" class="tile" points="61.3193854129,2433.19385672 57.4327917362,2433.2076932 58.0522434931,2418.48476023 42.01869158,2417.80409183 41.0095356861,2445.60727257 45.3581311133,2445.73573263 45.3261565801,2447.88448348 45.2477530262,2451.70183489 46.4764880946,2451.71688753 61.3199663945,2451.71527551 61.3193854129,2433.19385672 " moovel_rot="79.1" moovel_centroid="50.957974974,2435.32530245"/>
  <polygon id="150591187" class="tile" points="62.3199663945,2426.86277978 62.3232254173,2417.80409183 67.1727858678,2417.8084976 67.1663943529,2426.87769329 62.3199663945,2426.86277978 " moovel_rot="16.6" moovel_centroid="64.7460618978,2422.33777938"/>
  <polygon id="124810758" class="tile" points="78.1321797571,2446.84763314 78.0877534631,2417.80409183 74.9915401542,2418.05372753 68.2601808966,2424.73764142 68.1727858678,2446.56139655 78.1321797571,2446.84763314 " moovel_rot="-83.2" moovel_centroid="73.4126170527,2433.43775737"/>
  <polygon id="159744994" class="tile" points="79.1321797571,2439.71119981 93.5732947432,2439.33979279 93.3094742048,2417.80409183 83.5024675528,2418.36199227 83.974041074,2428.2021727 79.1484587749,2428.30078229 79.1321797571,2439.71119981 " moovel_rot="-48.8" moovel_centroid="87.1574053587,2429.83972544"/>
  <polygon id="32388478" class="tile" points="112.869761216,2449.0890514 94.6169968201,2448.75223378 94.5732947432,2417.80409183 110.734853048,2418.00286844 112.999615302,2417.98169025 112.869761216,2449.0890514 " moovel_rot="69.1" moovel_centroid="103.771289861,2433.39320823"/>
  <polygon id="445351108" class="tile" points="146.27946543,2502.3347995 113.999615302,2503.00373103 114.135857225,2417.80409183 145.996143963,2418.28193082 146.27946543,2502.3347995 " moovel_rot="13.5" moovel_centroid="130.066675284,2460.4487267"/>
  <polygon id="220802672" class="tile" points="147.306643943,2447.16224314 154.352926814,2447.20854191 163.656917232,2446.82242934 163.651783565,2417.80409183 147.27946543,2417.81444099 147.306643943,2447.16224314 " moovel_rot="-86.2" moovel_centroid="155.457136687,2432.4459587"/>
  <polygon id="140893968" class="tile" points="181.691202403,2417.82991892 181.696156367,2425.59500424 181.695589351,2434.98913162 164.656917232,2434.96011213 164.664933218,2417.80409183 181.691202403,2417.82991892 " moovel_rot="73.0" moovel_centroid="173.178165126,2426.39683269"/>
  <polygon id="28053259" class="tile" points="196.37965,2451.23796808 203.731736221,2450.97012588 203.748938214,2418.00230034 182.746206394,2417.80409183 182.696156367,2425.47745064 194.2178369,2432.33663438 196.37965,2451.23796808 " moovel_rot="13.3" moovel_centroid="196.181931844,2430.73695621"/>
  <polygon id="327633457" class="tile" points="204.767555116,2445.57551989 212.422234203,2445.56814162 212.403621019,2417.80409183 204.748938214,2417.81146979 204.767555116,2445.57551989 " moovel_rot="-85.2" moovel_centroid="208.58558713,2431.68980466"/>
  <polygon id="380301551" class="tile" points="213.422234203,2417.80409183 215.807765557,2417.81024821 215.811409543,2430.95897471 213.425878378,2430.95281725 213.422234203,2417.80409183 " moovel_rot="9.9" moovel_centroid="214.616821936,2424.38153291"/>
  <polygon id="88508633" class="tile" points="216.888492968,2533.07168338 216.811409543,2417.97463876 309.016527618,2417.80409183 309.09056009,2532.89006003 216.888492968,2533.07168338 " moovel_rot="-15.4" moovel_centroid="262.951007485,2475.43480331"/>
  <polygon id="223025913" class="tile" points="317.36951951,2417.82386389 310.100802454,2417.80409183 310.09056009,2450.94387206 317.359266255,2450.96366291 317.36951951,2417.82386389 " moovel_rot="30.1" moovel_centroid="313.730037423,2434.38386854"/>
  <polygon id="114033007" class="tile" points="318.36951951,2417.80409183 325.35679019,2417.81709341 332.730704294,2417.83592877 332.735869838,2452.02825799 325.297998767,2452.01126842 318.379728697,2452.00080004 318.36951951,2417.80409183 " moovel_rot="41.4" moovel_centroid="325.55380335,2434.91495561"/>
  <polygon id="275600314" class="tile" points="335.857682511,2417.83729022 333.735869838,2417.80409183 333.766833334,2510.5597242 335.975686269,2510.58269771 335.857682511,2417.83729022 " moovel_rot="83.3" moovel_centroid="334.834245428,2464.50667566"/>
  <polygon id="103502121" class="tile" points="356.083190443,2445.17439486 356.428640155,2418.80205162 336.975686269,2417.80409183 337.013294745,2445.94217963 356.083190443,2445.17439486 " moovel_rot="2.1" moovel_centroid="346.521614394,2431.88371524"/>
  <polygon id="42748202" class="tile" points="357.428640155,2475.64426157 376.937067331,2475.60041115 376.959933808,2417.80409183 357.455809669,2417.84283258 357.428640155,2475.64426157 " moovel_rot="-48.9" moovel_centroid="367.195218834,2446.72396157"/>
  <polygon id="38095009" class="tile" points="377.959933808,2417.80409183 423.092673139,2427.31773748 404.627596653,2475.24332446 378.011063083,2466.33154247 377.959933808,2417.80409183 " moovel_rot="-14.6" moovel_centroid="396.548077448,2444.7475824"/>
  <polygon id="333358602" class="tile" points="473.244101633,2430.17913934 437.054923021,2429.92080687 436.934898373,2417.80409183 424.11274939,2417.92212611 424.224482732,2430.0486182 424.092673139,2478.47865906 436.22627017,2478.51095702 436.207393293,2483.40649655 461.144824349,2483.47455146 461.153665215,2478.7230302 466.211101149,2478.73883338 466.245753962,2464.40419624 473.14926062,2464.42151134 473.244101633,2430.17913934 " moovel_rot="71.7" moovel_centroid="446.763639174,2453.06522148"/>
</svg>