<svg xmlns="http://www.w3.org/2000/svg" version="1.1" width="592.5px" height="1200px">
  <polygon id="9" class="bin" points="-446.2499995,1207.499999 -448.901649929,1206.40164943 -449.9999995,1203.749999 -449.9999995,3.75 -448.901649929,1.09834957055 -446.2499995,0.0 -174.153182322,0.0 -171.501031869,1.09884968839 -170.403182589,3.75141441346 -170.432426248,81.2844129796 -171.385316301,83.7807330268 -173.758315246,85.0089387272 -194.056688799,87.3194315906 -197.885996606,89.4282179173 -199.124909621,93.6205528979 -192.708198922,155.881663149 -190.65883696,159.718697478 -186.508966107,161.023032096 -166.278537469,159.333415539 -163.127494706,160.62031305 -162.315264946,163.925681186 -167.241606715,184.956173903 -166.609451855,189.170929617 -164.058786364,191.166787859 -162.749721555,195.098953644 -164.279149386,200.755129892 -165.451239245,202.617105305 -167.465973624,203.501182486 -170.13393294,203.811441031 -172.852375738,207.399427649 -175.321016211,217.27069796 -175.332362347,217.316741478 -180.234684645,237.510280051 -179.656747315,241.696316179 -178.218064063,242.866616195 -176.937130068,246.64719461 -183.848992211,275.573873052 -186.903411673,278.405197869 -188.681087848,278.689842994 -191.262848733,282.223338004 -198.641780611,312.31178246 -197.996830935,316.624546301 -194.510799161,319.244369675 -181.520462137,322.638032328 -179.108853781,324.599984931 -179.006196267,327.70716602 -179.362238511,328.562645675 -179.298578891,484.563039483 -177.615110255,488.624264184 -173.553484671,490.306765397 -149.999363466,490.310766668 -147.348124855,491.409341419 -146.2500005,494.060766614 -146.2500005,505.966072674 -147.010832825,508.230443802 -148.984601358,509.575984665 -166.275117304,514.439475827 -168.628095917,515.627604558 -174.652338127,520.312691342 -175.110840352,520.702654524 -182.548799137,527.612241584 -183.37468976,528.531058834 -189.583256865,536.832236577 -190.553356067,538.642151152 -195.589766232,552.794983842 -195.977318639,554.730408361 -196.883761223,571.698103006 -196.806066241,573.157372594 -192.563456908,599.487994158 -191.674298297,601.924071716 -183.584250581,615.41457959 -182.489925059,616.798667347 -172.084794776,626.948113422 -171.334394056,627.582007949 -166.259533698,631.281439947 -164.921929125,632.043095567 -148.521221178,639.080882925 -146.2500005,642.526998379 -146.2500005,645.067304627 -147.38174992,647.751939406 -150.093874579,648.816129464 -176.043651373,648.166322789 -180.132621561,649.732134496 -181.932375059,653.723666889 -186.260558258,785.428577545 -184.696891474,789.559798334 -180.662813312,791.359312829 -149.90663016,792.125341054 -147.315541637,793.255747526 -146.2500005,795.874178471 -146.2500005,826.936165431 -147.3218575,829.561055918 -196.101603362,879.330421747 -198.653796954,881.937548888 -200.224009325,886.659376475 -197.470492642,890.804177499 -148.101980825,919.776576732 -146.2500005,923.010772353 -146.2500005,934.403414338 -147.701968717,937.366782341 -150.933493792,938.035368395 -173.358100288,932.271743798 -175.713538349,932.086397048 -182.590008261,932.738322997 -188.144080746,936.79022423 -191.674367097,945.030379059 -192.228337269,947.736471505 -192.176468918,1003.92760921 -192.032968202,1005.31811479 -184.864006341,1039.84077261 -184.694186919,1040.49507472 -181.290584255,1051.37723376 -181.0289226,1052.07761203 -169.814266433,1077.74284746 -167.153216343,1080.57635434 -163.300210595,1081.09045119 -155.599884576,1079.45384289 -153.438771642,1078.59113194 -151.960740949,1077.68452158 -149.414430056,1077.17708293 -147.148826254,1078.44524402 -146.2500005,1080.88108174 -146.2500005,1091.0940078 -148.426442442,1094.49789015 -193.417871274,1115.29667757 -196.425662509,1118.60885297 -196.140722033,1123.07384155 -156.584442876,1202.0709888 -156.273193159,1204.54679416 -157.584426388,1206.66980052 -159.93756452,1207.499999 -446.2499995,1207.499999 " moovel_rot="0" moovel_centroid="-313.90815581104863,605.3357051647097"/>
  <polygon id="27811405" class="tile" points="1.0,1335.36848949 15.7561657339,1336.27890586 29.2726859404,1336.07592839 29.4132442405,1297.45501009 28.3886829082,1258.3688855 24.8916920837,1221.56307953 14.271532904,1208.96944303 1.0878624713,1201.0 1.0,1335.36848949 " moovel_rot="-85.9" moovel_centroid="14.301321155202407,1274.6695589703331"/>
  <polygon id="51034187" class="tile" points="30.4209819341,1239.47895662 43.9380537435,1239.47938583 43.9412436053,1201.00046735 30.4132442405,1201.0 30.4223858928,1217.16372045 30.4209819341,1239.47895662 " moovel_rot="-89.8" moovel_centroid="37.1798523863,1220.2373340819704"/>
  <polygon id="77096525" class="tile" points="67.018153639,1201.55913192 68.6837669905,1203.9218875 67.9088927357,1258.68576735 67.8442106148,1304.18874588 67.8425847324,1307.87758061 45.0860189337,1308.16933053 44.9412436053,1201.0 67.018153639,1201.55913192 " moovel_rot="66.4" moovel_centroid="56.5381497227,1254.2988803605167"/>
  <polygon id="178538736" class="tile" points="69.6837669905,1255.08816093 79.8447728593,1255.08101852 79.8305072535,1251.22677703 85.3893537739,1247.27726985 85.2512205126,1201.0 69.7097553512,1201.48515917 69.6837669905,1255.08816093 " moovel_rot="-89.4" moovel_centroid="77.309131634,1227.2601469924796"/>
  <polygon id="275029266" class="tile" points="86.3893537739,1201.0 86.4480876737,1225.51896325 94.8968991607,1227.2180452 105.016978866,1229.23472833 105.512363994,1201.76223659 97.68831179,1201.57293762 86.3893537739,1201.0 " moovel_rot="-15.2" moovel_centroid="96.0231332908,1214.3728053548348"/>
  <polygon id="430072602" class="tile" points="106.5186617,1201.0 106.512363994,1216.28382315 111.796309848,1216.27930589 111.802435733,1201.00642031 106.5186617,1201.0 " moovel_rot="0.9" moovel_centroid="109.157127581,1208.6424276106968"/>
  <polygon id="265592046" class="tile" points="112.809093061,1284.22323478 112.802435733,1201.0 117.954712055,1201.45996436 118.030042379,1284.68336144 112.809093061,1284.22323478 " moovel_rot="-72.9" moovel_centroid="115.399085247,1242.933467377668"/>
  <polygon id="129490295" class="tile" points="119.131986724,1201.01039787 125.578489908,1201.0 125.47026726,1369.5509106 119.030042379,1369.55902817 119.131986724,1201.01039787 " moovel_rot="-20.6" moovel_centroid="122.302712334,1285.2664012369942"/>
  <polygon id="277615335" class="tile" points="127.797509898,1223.20247662 133.070219975,1220.31250063 133.005150529,1204.75531316 133.095754907,1201.11240226 131.098699796,1201.0 126.578489908,1205.00714948 127.982178512,1207.0609213 127.797509898,1223.20247662 " moovel_rot="60.7" moovel_centroid="130.410689778,1211.7381434976157"/>
  <polygon id="303591102" class="tile" points="134.19032259,1265.63722773 136.105506382,1265.62389156 136.103488445,1264.2010616 148.874075227,1264.1789896 148.868309346,1255.1878706 154.700806789,1255.18915507 154.782221593,1229.76689482 154.935670687,1229.74899805 154.949696857,1224.82616615 154.807468197,1224.82418013 154.812224241,1224.4835757 154.954732668,1224.46552616 154.965957135,1222.09434659 153.31344998,1222.10467084 153.331817348,1223.1402995 149.709614951,1223.14983911 149.686787265,1213.02959219 165.992193984,1212.98340077 166.006325852,1201.0 134.095754907,1201.09548089 134.19032259,1265.63722773 " moovel_rot="-89.2" moovel_centroid="145.465491287,1229.5501138386987"/>
  <polygon id="270587198" class="tile" points="167.006325852,1202.50499894 171.533899989,1248.76166716 185.507713543,1247.86455767 185.586465453,1201.0 167.006325852,1202.50499894 " moovel_rot="-0.9" moovel_centroid="177.363777427,1223.9311500254917"/>
  <polygon id="10271294" class="tile" points="186.586465453,1256.79265883 234.669492805,1256.90353076 235.079475364,1225.27158334 234.142163461,1201.4035406 186.604919489,1201.0 186.586465453,1256.79265883 " moovel_rot="-86.3" moovel_centroid="210.6575102,1229.0689231884871"/>
  <polygon id="29449796" class="tile" points="236.079475364,1218.81625118 258.917532597,1318.03677376 329.502905284,1302.42159027 330.270250235,1295.5085396 321.326265635,1291.29220839 322.134811652,1289.7782722 324.300258944,1285.71731555 327.840627215,1284.91536961 331.745349411,1284.22445144 333.258559477,1268.56001298 327.126161763,1240.93943667 333.338903545,1203.47036376 309.268069274,1201.0 236.079475364,1218.81625118 " moovel_rot="-85.2" moovel_centroid="288.306353602,1256.616080202652"/>
  <polygon id="180395279" class="tile" points="345.41208024,1209.83433979 345.542931097,1207.08486595 344.444725759,1204.20568205 342.80562923,1202.29123704 340.422212359,1201.02595004 338.223018376,1201.0 335.9164467,1201.80083103 334.338903545,1203.5160023 335.740258005,1214.04273539 336.466615742,1228.98005784 334.361462837,1255.83017615 339.261822882,1256.10820922 345.41208024,1209.83433979 " moovel_rot="62.2" moovel_centroid="339.321129088,1225.0496583312415"/>
  <polygon id="35419213" class="tile" points="382.175907855,1251.7082011 346.542931097,1237.00972608 367.630642722,1201.0 382.133080389,1209.58291688 382.175907855,1251.7082011 " moovel_rot="45.8" moovel_centroid="368.736752613,1227.3729749576519"/>
  <polygon id="221109262" class="tile" points="413.451357525,1201.0 419.373960071,1208.53629239 421.226819947,1210.89527043 417.204470442,1214.04785125 420.087045727,1217.72447758 414.069740891,1222.44620937 421.231445339,1231.56396548 417.322428237,1234.62838946 420.238580287,1238.33755123 410.450418382,1246.02912547 415.689489237,1252.5527777 410.756175888,1256.04074453 393.558940092,1234.16756691 390.587966118,1236.2832009 387.280671448,1232.02749368 385.213628947,1229.40005175 386.055672413,1228.79986618 383.175907855,1225.1107417 388.956497399,1220.22057959 413.451357525,1201.0 " moovel_rot="44.1" moovel_centroid="405.397962695,1226.882391459637"/>
  <polygon id="206427156" class="tile" points="422.231445339,1201.0 422.272112793,1235.56090103 445.909150311,1239.80419582 447.737467462,1238.42290431 450.504803279,1236.33078703 451.757377523,1235.39480739 456.787574683,1207.46373727 448.980973673,1202.49663521 422.231445339,1201.0 " moovel_rot="19.5" moovel_centroid="438.165022009,1219.5123908608691"/>
  <polygon id="396521199" class="tile" points="457.787574683,1201.0 457.795191607,1209.87376376 463.894128558,1212.31395276 464.119615686,1203.81035195 457.787574683,1201.0 " moovel_rot="-32.2" moovel_centroid="460.883361211,1206.7151622972067"/>
  <polygon id="27475137" class="tile" points="465.148938427,1244.61898034 465.119615686,1201.080275 498.77719786,1201.0 498.784524956,1215.5575639 498.797922366,1229.49042617 498.806421789,1244.53866522 489.236235303,1244.55979083 471.19036831,1244.60673739 465.148938427,1244.61898034 " moovel_rot="-67.9" moovel_centroid="481.962714983,1222.809796732213"/>
  <polygon id="136434438" class="tile" points="499.806421789,1201.00677528 504.784382462,1201.0 504.79177891,1216.28727308 499.813818995,1216.29405169 499.806421789,1201.00677528 " moovel_rot="-12.8" moovel_centroid="502.299100448,1208.647024816404"/>
  <polygon id="41595079" class="tile" points="505.79177891,1226.81312157 505.828641109,1201.0 516.15774095,1201.3363287 521.253868195,1201.6652879 521.374152148,1226.74349263 516.227822718,1226.81058574 505.79177891,1226.81312157 " moovel_rot="-9.3" moovel_centroid="513.527383542,1214.0603385641982"/>
  <polygon id="243740890" class="tile" points="556.535873117,1201.0 567.711876255,1218.75057748 567.688387554,1259.36323904 530.813676929,1259.57388194 523.83986199,1259.55221747 522.374152148,1220.02030974 535.23175955,1214.23293112 556.535873117,1201.0 " moovel_rot="37.8" moovel_centroid="546.212687849,1234.7092628043154"/>
  <polygon id="162789815" class="tile" points="568.719670647,1201.0 578.274791429,1201.02109951 578.270789672,1213.64057706 568.711876255,1213.61397961 568.719670647,1201.0 " moovel_rot="55.3" moovel_centroid="573.49462826,1207.319332428978"/>
  <polygon id="87822508" class="tile" points="0.0,1369.57219107 0.0378517437726,1416.48429784 15.992241225,1416.47113478 15.9543945132,1369.55902817 0.0,1369.57219107 " moovel_rot="-88.2" moovel_centroid="7.996121864915141,1393.02166173"/>
  <polygon id="225907914" class="tile" points="17.9963284673,1369.55902817 68.5060696033,1372.83935626 61.5582444372,1440.45954058 18.1913815257,1444.6269421 17.992241225,1439.61031089 17.9963284673,1369.55902817 " moovel_rot="21.0" moovel_centroid="41.1475597547,1405.95030995"/>
  <polygon id="286356013" class="tile" points="69.5652337932,1416.86317203 86.1230523887,1416.84940329 86.1517903081,1369.70914032 79.5727264392,1369.55902817 75.7482741038,1369.72606865 69.5060696033,1369.74156816 69.5652337932,1416.86317203 " moovel_rot="-89.1" moovel_centroid="77.8398831809,1393.24397917"/>
  <polygon id="142886790" class="tile" points="97.4639662554,1404.51435337 87.1591399464,1373.92222806 90.8164853611,1372.86622023 91.189434933,1374.03850838 97.2480180788,1372.09938383 96.9744856155,1371.21158227 102.124827627,1369.55902817 103.987956109,1375.37247969 104.538917437,1375.18922876 106.574781078,1381.47492508 105.789527766,1381.79749117 106.908616725,1385.23127446 106.547728995,1385.3632396 109.541105697,1394.39992248 111.324431875,1397.39851367 112.151149756,1400.37849635 112.424021622,1400.88598446 124.355357474,1398.04023664 129.116035692,1400.40150933 132.276922871,1401.36807863 131.592526032,1405.12936502 132.286405704,1405.39181392 130.144115344,1411.60112534 122.855629639,1430.81436062 116.82405921,1445.32317667 115.071350446,1449.99533852 110.01560683,1463.96413505 108.312822233,1468.40144934 107.511978193,1470.47156591 106.67747603,1472.62686249 105.839374464,1474.81080237 104.113614758,1479.28890597 99.3386297069,1492.87063665 97.1515349978,1492.07023589 96.1650964799,1487.15479232 94.4108244226,1486.27911523 87.1517903081,1457.528614 89.442975646,1456.99342112 90.5386537873,1457.56945636 92.7647432859,1457.04490965 93.2968588836,1456.07808817 95.5880472126,1455.54289448 97.611767158,1455.06603325 98.7931840205,1455.79188517 100.92424109,1455.29298018 101.668029298,1454.10301231 102.957919851,1453.80339934 104.141077719,1454.53569954 106.270397257,1454.03034534 107.015926556,1452.84682572 109.050211026,1452.36711395 104.573063896,1433.42291709 106.320499948,1433.01368493 107.901257864,1430.64319704 105.547477881,1429.09911591 105.481119853,1428.93715187 104.567773179,1429.16283763 101.568089834,1416.82795569 103.590076468,1416.3446441 102.674319798,1412.53085011 100.629713719,1412.93033049 98.5393068626,1404.21728617 97.4639662554,1404.51435337 " moovel_rot="74.9" moovel_centroid="107.362218624,1425.39994527"/>
  <polygon id="32293710" class="tile" points="166.034453178,1416.99140072 144.099562692,1377.23038832 140.017696639,1369.55902817 133.29440113,1372.81365063 133.286405704,1434.55143965 166.034453178,1416.99140072 " moovel_rot="39.6" moovel_centroid="144.564959657,1404.55469206"/>
  <polygon id="219122539" class="tile" points="171.553477799,1449.62103502 186.306884502,1452.00507948 193.413124733,1453.48621608 195.237431409,1443.18991115 196.925938015,1428.67864776 195.990901548,1428.18701898 195.528407993,1428.35150164 194.066477782,1425.07646358 194.388397407,1424.97207991 194.409699592,1424.34274632 194.044351345,1424.2870051 195.690851189,1421.37229538 196.206918616,1421.64410476 197.351413371,1420.8701447 196.862360865,1404.20324945 196.135141904,1404.14326387 195.990667963,1391.21351477 196.906768939,1391.0888588 196.813402752,1378.87384128 193.317827826,1378.78602545 193.35537896,1369.55902817 178.696408005,1369.8336376 178.706802904,1371.77195002 176.085970404,1371.78701236 176.127610873,1382.29126236 177.099221238,1382.29559708 176.849947277,1404.34283984 169.349621957,1404.27060011 169.354572463,1409.76014571 167.047596667,1409.78232101 167.136518386,1430.6855489 167.034453178,1432.97426102 171.194258209,1432.8612186 171.456849927,1445.33530243 171.553477799,1449.62103502 " moovel_rot="-68.8" moovel_centroid="183.835048075,1413.44640074"/>
  <polygon id="186519593" class="tile" points="201.202834224,1369.55902817 207.46549465,1371.43566475 207.464917029,1382.43413845 198.351413371,1379.8582055 201.202834224,1369.55902817 " moovel_rot="-64.8" moovel_centroid="203.570039869,1376.14682408"/>
  <polygon id="137303718" class="tile" points="208.46549465,1383.90802402 245.308343261,1369.55902817 245.299518235,1378.87794373 245.257890401,1444.35622943 245.252757072,1453.54060683 210.567377714,1453.46891841 210.264477073,1450.4060008 210.366103836,1429.96596085 213.496366246,1429.988395 213.620329228,1403.32383849 209.182290119,1403.29743129 208.796074199,1392.97416397 208.46549465,1383.90802402 " moovel_rot="28.1" moovel_centroid="228.64232479,1414.52073118"/>
  <polygon id="43657081" class="tile" points="278.558087002,1371.68439257 278.55268547,1369.60423492 246.308343261,1369.55902817 246.318738586,1406.29986455 251.459755313,1406.31014874 251.45357901,1409.07918657 278.181502558,1409.11185129 278.17765356,1407.22364325 278.173540684,1395.6947682 259.465459736,1395.6727811 259.461879062,1388.30806147 278.568163262,1388.33091209 278.558087002,1371.68439257 " moovel_rot="69.5" moovel_centroid="261.70667571,1388.70456343"/>
  <polygon id="121860172" class="tile" points="292.567792631,1451.61797145 297.190629156,1449.53628432 315.871041804,1378.07694284 302.11464016,1374.83115595 279.786058026,1369.55902817 279.575334989,1371.53669354 279.568163262,1399.71096691 280.47118571,1414.83626576 284.360932898,1434.53576914 284.56830797,1440.64080242 284.921840526,1446.6464669 292.567792631,1451.61797145 " moovel_rot="-23.5" moovel_centroid="294.315178547,1405.19517111"/>
  <polygon id="48700152" class="tile" points="350.955609959,1371.00033606 350.999360838,1412.73430164 316.871041804,1411.87787461 318.290409154,1372.78361982 326.150013319,1373.29851515 326.476511954,1369.55902817 350.955609959,1371.00033606 " moovel_rot="68.5" moovel_centroid="334.49172351,1391.77195114"/>
  <polygon id="26496279" class="tile" points="351.999360838,1411.33751301 352.006642795,1369.55902817 362.342460659,1369.68325026 362.339098954,1374.98655484 391.474517748,1374.87149421 391.470621941,1411.35335359 371.751425515,1411.34203633 351.999360838,1411.33751301 " moovel_rot="-90.2" moovel_centroid="371.208229314,1392.36962577"/>
  <polygon id="94646600" class="tile" points="418.382439717,1429.78473448 397.542375346,1429.37227482 397.991993826,1423.6851759 392.535559399,1423.60305027 392.474517748,1370.17367591 418.481157308,1369.55902817 418.382439717,1429.78473448 " moovel_rot="-79.2" moovel_centroid="405.713602586,1399.14134714"/>
  <polygon id="106374641" class="tile" points="419.481157308,1369.74341441 457.414380056,1369.55902817 457.059916071,1375.04884505 462.362205705,1375.24986639 462.255820873,1432.15982929 451.272475464,1432.73182051 449.810291533,1456.5305376 419.594526117,1459.41031725 419.481157308,1369.74341441 " moovel_rot="-9.5" moovel_centroid="439.35949332,1411.35252866"/>
  <polygon id="147019513" class="tile" points="463.362205705,1369.87484785 464.12660233,1413.54970189 470.125085363,1407.01053665 470.157765367,1369.55902817 463.362205705,1369.87484785 " moovel_rot="84.3" moovel_centroid="466.852420291,1389.65549041"/>
  <polygon id="266926627" class="tile" points="471.157765367,1406.10917748 479.391178007,1369.68296053 510.346080939,1369.55902817 510.398612896,1410.81752086 471.157765367,1406.10917748 " moovel_rot="-75.3" moovel_centroid="493.059491746,1389.86868316"/>
  <polygon id="387212531" class="tile" points="516.208070066,1369.55902817 516.203542837,1376.89477886 511.398612896,1376.89525699 511.4031386,1369.55950595 516.208070066,1369.55902817 " moovel_rot="-77.4" moovel_centroid="513.803341081,1373.2271423"/>
  <polygon id="95785958" class="tile" points="548.073135056,1404.90858245 548.077383803,1371.31391164 520.238907171,1369.55902817 517.661338585,1374.72892819 517.208070066,1377.65126353 520.28696891,1380.2317559 524.404217656,1382.0110713 524.458500957,1403.36302106 548.073135056,1404.90858245 " moovel_rot="-59.7" moovel_centroid="535.111211372,1386.42777935"/>
  <polygon id="70661970" class="tile" points="549.090728625,1369.55902817 558.170107089,1369.5637459 558.156766201,1416.91795573 549.077383803,1416.91323817 549.090728625,1369.55902817 " moovel_rot="-92.5" moovel_centroid="553.623746426,1393.2384937"/>
  <polygon id="266151508" class="tile" points="559.173237867,1397.75515595 587.025411407,1397.74600195 587.033161997,1369.55902817 582.619231551,1369.56019627 559.170107089,1369.56680753 559.173237867,1397.75515595 " moovel_rot="-82.8" moovel_centroid="573.1003698,1383.65581483"/>
  <polygon id="206335722" class="tile" points="11.969685527,1513.50249572 0.0,1513.49408515 0.00838839411736,1492.87063665 16.1947004154,1492.87912923 16.1914177034,1500.4065651 11.9747919912,1500.40647642 11.969685527,1513.50249572 " moovel_rot="6.7" moovel_centroid="6.911489248387505,1502.44044838"/>
  <polygon id="282577392" class="tile" points="23.442692524,1492.87306281 23.4619670495,1521.77784602 18.2197173096,1521.78685586 18.1947004154,1492.87063665 23.442692524,1492.87306281 " moovel_rot="4.8" moovel_centroid="20.8295943537,1507.32446686"/>
  <polygon id="184432141" class="tile" points="24.4619670495,1492.87787267 24.4676786682,1550.18107165 24.4699783875,1554.08429281 46.3529640536,1554.06617958 46.3465007725,1492.87063665 24.4619670495,1492.87787267 " moovel_rot="-8.1" moovel_centroid="35.4070811897,1523.47474918"/>
  <polygon id="282846581" class="tile" points="53.8085534179,1492.89084312 53.8001428687,1514.84127319 47.3529640536,1514.81632519 47.3660787967,1492.87063665 53.8085534179,1492.89084312 " moovel_rot="45.1" moovel_centroid="50.5820497509,1503.85610562"/>
  <polygon id="243669214" class="tile" points="56.9069371651,1542.9033611 69.6772177705,1543.01954953 69.8023188443,1539.05525859 82.2223053445,1538.79144245 82.231127121,1492.87063665 54.8085534179,1493.29561722 54.8492029716,1494.86047412 56.9069371651,1542.9033611 " moovel_rot="-94.7" moovel_centroid="68.7695331106,1516.75843769"/>
  <polygon id="28955595" class="tile" points="98.5295423462,1492.87063665 83.231127121,1572.91578865 142.97587462,1576.95782816 143.7015275,1615.60711915 181.550955178,1613.56421277 177.701044856,1522.8219392 181.425127218,1497.5119551 98.5295423462,1492.87063665 " moovel_rot="43.5" moovel_centroid="139.236792022,1546.32671977"/>
  <polygon id="385328466" class="tile" points="182.550955178,1492.88875461 182.552902967,1498.02048177 187.129315484,1497.99704928 187.123322072,1492.87063665 182.550955178,1492.88875461 " moovel_rot="-52.7" moovel_centroid="184.838730602,1495.44461076"/>
  <polygon id="261905321" class="tile" points="188.129315484,1495.64538671 189.326551635,1493.78098987 190.842628005,1493.26409324 193.349174621,1492.87063665 193.342141319,1526.57443872 189.204413234,1529.59163087 188.129315484,1495.64538671 " moovel_rot="11.5" moovel_centroid="190.972017572,1510.17433863"/>
  <polygon id="142387171" class="tile" points="194.349174621,1492.87124851 196.668587283,1492.87063665 204.708168549,1492.9591019 204.723840344,1512.34758465 194.364849536,1512.2597422 194.349174621,1492.87124851 " moovel_rot="-15.9" moovel_centroid="199.536005275,1502.60434305"/>
  <polygon id="238609835" class="tile" points="205.723840344,1554.95866316 214.271205999,1554.93866856 224.45968493,1554.90936722 224.468816387,1492.87063665 214.359975069,1492.89363093 211.385878977,1492.89537787 211.388205194,1523.2915718 205.728511512,1523.30737741 205.723840344,1554.95866316 " moovel_rot="-37.8" moovel_centroid="216.230710023,1526.65680104"/>
  <polygon id="378775172" class="tile" points="248.325928291,1492.87063665 251.527803589,1496.33756216 251.279096942,1498.42192856 238.369704719,1510.61090083 251.566693804,1524.88203061 242.043358367,1537.22322844 225.468816387,1518.93599243 230.222502668,1514.51600374 227.119603148,1511.1301991 248.325928291,1492.87063665 " moovel_rot="19.3" moovel_centroid="239.31083201,1516.62830196"/>
  <polygon id="240267188" class="tile" points="256.917522482,1524.51786439 252.738216313,1524.51192239 252.789026742,1492.87063665 257.999884313,1492.8734548 261.059394511,1492.88759696 267.770611969,1492.91818883 267.809706524,1530.22361288 267.81362446,1538.42231277 267.849573001,1575.76098415 262.740996685,1575.72087181 252.566693804,1575.65140658 252.611763022,1549.06141294 256.867811142,1549.06790025 256.909451952,1529.70982414 256.917522482,1524.51786439 " moovel_rot="-84.6" moovel_centroid="260.739029512,1534.236019"/>
  <polygon id="418102389" class="tile" points="268.849573001,1492.88365817 278.460391023,1492.87063665 278.465493843,1504.10798992 276.819686529,1504.11141221 268.856178955,1504.11017895 268.849573001,1492.88365817 " moovel_rot="7.9" moovel_centroid="273.658824504,1498.49373016"/>
  <polygon id="24856589" class="tile" points="292.124682677,1492.87063665 295.938689227,1590.09985136 290.844870437,1591.78308514 279.465493843,1594.6097338 279.489221695,1494.35303767 292.124682677,1492.87063665 " moovel_rot="-17.0" moovel_centroid="286.772513121,1545.26017375"/>
  <polygon id="244081949" class="tile" points="331.149840615,1524.97920187 304.713293142,1596.64927836 307.326124041,1606.32421291 327.760079792,1650.46757326 323.56567366,1652.17356654 337.618605049,1681.87552353 331.219380318,1683.39025412 325.319213277,1670.25124173 322.045056958,1671.59038465 298.72701988,1620.93919092 302.01844231,1619.07722897 297.3014885,1600.00886911 296.938689227,1588.45655527 311.110258546,1553.61830316 307.119678073,1552.34088159 317.447662385,1523.04688137 322.350560435,1523.96497999 326.166660619,1511.48564326 322.069193974,1509.55460567 328.705338433,1492.87063665 337.718263479,1495.71706142 327.449628252,1522.67118404 331.149840615,1524.97920187 " moovel_rot="46.5" moovel_centroid="315.788088345,1590.17035844"/>
  <polygon id="185766661" class="tile" points="343.624259735,1540.33271555 340.042592027,1540.84581669 338.718263479,1528.50474625 339.680451408,1492.87063665 343.588411347,1493.14247293 343.177649319,1527.8347066 343.624259735,1540.33271555 " moovel_rot="-5.2" moovel_centroid="341.300490143,1516.88902862"/>
  <polygon id="247238061" class="tile" points="344.644318655,1551.60850475 349.322255832,1551.60437338 349.302206061,1492.87063665 344.624259735,1492.8747665 344.644318655,1551.60850475 " moovel_rot="-80.6" moovel_centroid="346.973260058,1522.23956075"/>
  <polygon id="26837199" class="tile" points="407.19232403,1495.83199555 388.04553031,1492.87063665 357.853078534,1523.99043114 350.322255832,1558.37809218 359.051352613,1591.9207361 407.163922336,1595.50721995 407.19232403,1495.83199555 " moovel_rot="-38.7" moovel_centroid="382.658373666,1548.20678973"/>
  <polygon id="76164854" class="tile" points="434.628595683,1492.87063665 434.590461044,1560.70723192 408.853536729,1559.19896219 408.19232403,1506.61439961 434.628595683,1492.87063665 " moovel_rot="19.8" moovel_centroid="422.109543712,1529.57069843"/>
  <polygon id="173185803" class="tile" points="435.640818522,1560.62655562 435.628595683,1545.76347275 464.790691756,1545.72955927 464.7457362,1492.90079056 490.432914315,1492.87063665 490.490053847,1560.5624849 475.931509343,1560.5746672 435.640818522,1560.62655562 " moovel_rot="-85.1" moovel_centroid="472.150579024,1532.00680184"/>
  <polygon id="24900872" class="tile" points="491.659336867,1497.36287468 500.653445817,1492.87063665 543.132030552,1502.25135692 548.274809537,1507.41439913 550.466894163,1538.29435905 513.59417284,1537.69409223 513.210820495,1545.01046104 502.843025315,1545.25265976 503.047808107,1571.92900036 491.513412851,1572.21228614 491.490053847,1533.39771621 491.659336867,1497.36287468 " moovel_rot="-7.4" moovel_centroid="515.748590091,1523.77582935"/>
  <polygon id="106989130" class="tile" points="551.838270988,1550.95248151 552.251569944,1536.43730064 556.233406157,1536.49515423 556.313145994,1537.09438636 561.620992733,1537.0525619 561.70236406,1532.75106105 563.576651896,1532.78872629 564.132100539,1522.04591153 561.377691216,1521.8684884 561.386720709,1521.73454075 551.466894163,1520.70551423 551.896838059,1515.55067003 558.375845307,1508.31790119 564.281445571,1503.54014806 567.301780903,1496.84030073 567.670945526,1492.87063665 575.269737087,1493.23099645 573.756968086,1533.1447205 575.313769451,1533.25854231 574.844929814,1551.78885971 560.344392937,1551.27557646 551.838270988,1550.95248151 " moovel_rot="-67.1" moovel_centroid="565.643381395,1525.95118279"/>
  <polygon id="126095395" class="tile" points="576.320720553,1556.97936324 581.449589112,1551.99256984 580.895033994,1492.87063665 576.313769451,1496.92067847 576.320720553,1556.97936324 " moovel_rot="82.3" moovel_centroid="578.74453952,1525.2556487"/>
  <polygon id="219906009" class="tile" points="34.4827387461,1719.1412234 5.53614273034,1730.90976758 0.273071637936,1730.86312081 0.0,1722.03277502 5.66925324965,1718.15749203 5.26555233244,1700.97544455 0.0544873215258,1685.4056179 2.73513161223,1683.39025412 3.87199299261,1684.74189228 24.45835835,1690.9620034 30.0539707873,1715.18249756 34.4827387461,1719.1412234 " moovel_rot="-86.0" moovel_centroid="14.757035152134181,1708.33300806"/>
  <polygon id="120861396" class="tile" points="36.4827387461,1726.50648247 36.5077461185,1683.39025412 54.5813446587,1683.43047941 54.5593725517,1726.55265779 36.4827387461,1726.50648247 " moovel_rot="62.4" moovel_centroid="45.5330077854,1704.97057299"/>
  <polygon id="30952684" class="tile" points="55.5854618294,1683.45738654 55.5813446587,1696.86118169 69.4410469981,1701.08304459 69.4564060293,1683.39025412 55.5854618294,1683.45738654 " moovel_rot="-66.6" moovel_centroid="62.8348896538,1691.24493499"/>
  <polygon id="95920919" class="tile" points="79.9672366782,1718.02790779 70.4564060293,1717.95823878 70.5980752426,1683.57116742 79.9274521338,1683.39025412 79.9672366782,1718.02790779 " moovel_rot="6.1" moovel_centroid="75.242934677,1700.79237087"/>
  <polygon id="48079475" class="tile" points="102.811956748,1687.27545288 92.5428119569,1687.28204766 92.5645022771,1683.39025412 90.4047132968,1683.44523147 81.1179589099,1683.74208015 80.9672366782,1704.74888061 85.6653175826,1704.7475756 85.672321706,1714.42222077 102.830511105,1714.4118848 102.811956748,1687.27545288 " moovel_rot="69.6" moovel_centroid="92.2166454291,1699.07524884"/>
  <polygon id="182715840" class="tile" points="140.237629016,1683.49647081 105.361673877,1683.39025412 103.830511105,1728.83993731 145.494496647,1729.7108697 145.471407807,1692.96164273 140.627453731,1693.15538811 140.237629016,1683.49647081 " moovel_rot="39.4" moovel_centroid="124.619309927,1706.99302217"/>
  <polygon id="136699059" class="tile" points="146.494496647,1787.09804138 146.584238184,1688.96084648 151.653712491,1683.39025412 165.562422219,1683.61263822 170.797982731,1694.19166116 171.804158371,1703.18048618 176.923189633,1707.73598553 177.19461725,1747.31736334 174.047236212,1749.78496401 174.299188121,1783.24777368 172.262274002,1784.61577079 172.116808714,1809.50771188 146.794822184,1809.0037023 146.494496647,1787.09804138 " moovel_rot="-90.9" moovel_centroid="160.470239542,1746.70793127"/>
  <polygon id="105537829" class="tile" points="178.19461725,1709.00338628 178.203062276,1683.39025412 184.516413155,1683.39216114 184.507966844,1709.00529324 178.19461725,1709.00338628 " moovel_rot="-87.8" moovel_centroid="181.35551488,1696.19777326"/>
  <polygon id="162865287" class="tile" points="185.555915142,1748.47733369 200.85629845,1748.44027419 202.719981011,1747.8480995 205.803153926,1747.84087933 211.222569738,1719.91623701 212.905410074,1719.91507307 212.908868713,1715.48134619 191.108076415,1715.52495328 191.10134212,1702.32487661 214.673732221,1702.26820591 214.674226655,1707.43122899 218.526646057,1707.42283298 218.517776153,1683.39025412 210.159171159,1683.40917821 190.602149455,1683.45119208 185.516413155,1683.46955095 185.52243582,1692.94488713 185.555915142,1748.47733369 " moovel_rot="-21.8" moovel_centroid="199.129479804,1713.64210175"/>
  <polygon id="284270688" class="tile" points="259.545202187,1732.66882692 231.232009387,1732.36682725 231.283932104,1727.67038629 225.577591352,1727.61319217 225.746888584,1711.94730236 219.526646057,1711.87634805 219.744521121,1691.24019176 228.511807333,1691.33346386 228.557860547,1687.05123403 228.600573792,1683.39025412 257.94139808,1683.70641696 259.570419246,1683.73995106 259.545202187,1732.66882692 " moovel_rot="-90.7" moovel_centroid="241.597657501,1707.49902212"/>
  <polygon id="115924299" class="tile" points="275.676889233,1683.39025412 260.570419246,1687.82098026 275.596274785,1739.05424226 275.676889233,1683.39025412 " moovel_rot="72.9" moovel_centroid="270.614527755,1703.42182555"/>
  <polygon id="287236315" class="tile" points="281.379484217,1683.39025412 281.4326134,1689.76054482 276.681309813,1689.78174614 276.676889233,1709.34670597 276.67998623,1714.3525446 284.085141683,1714.34333037 287.253344468,1714.34738787 287.257345724,1708.25921613 288.340245472,1708.26322813 288.336689827,1705.9789809 292.95489997,1705.97358941 292.956837653,1690.16865645 287.69665711,1690.16479716 287.699174257,1684.76524473 281.379484217,1683.39025412 " moovel_rot="-2.1" moovel_centroid="284.121163559,1699.76476956"/>
  <polygon id="213286330" class="tile" points="304.180645805,1683.41750181 304.170279857,1700.24777745 293.956837653,1700.2205161 293.967194827,1683.39025412 304.180645805,1683.41750181 " moovel_rot="32.7" moovel_centroid="299.068740229,1691.81901117"/>
  <polygon id="358711502" class="tile" points="305.181540658,1708.46651784 320.949457445,1708.58319919 320.913384769,1686.80086605 320.906868785,1683.42323695 305.180645805,1683.39025412 305.181540658,1708.46651784 " moovel_rot="63.5" moovel_centroid="313.059195072,1695.97127819"/>
  <polygon id="88524878" class="tile" points="321.953972887,1683.40847024 321.949457445,1715.23401089 337.366266797,1715.21733149 337.377282263,1683.39025412 321.953972887,1683.40847024 " moovel_rot="-13.5" moovel_centroid="329.66180687,1699.3113987"/>
  <polygon id="380630668" class="tile" points="343.487790371,1683.39025412 343.48846345,1700.00675521 338.377955349,1700.01522343 338.377282263,1683.398722 343.487790371,1683.39025412 " moovel_rot="-1.2" moovel_centroid="340.932872849,1691.70273869"/>
  <polygon id="319929405" class="tile" points="358.01735766,1683.39025412 345.651349566,1683.87916512 344.926962487,1685.94467233 344.48846345,1784.78798368 344.825989764,1787.09083932 347.553469604,1789.63812305 349.664259182,1790.32657242 354.385969064,1790.0778248 358.065211672,1790.02376028 358.06740142,1700.21074694 358.01735766,1683.39025412 " moovel_rot="78.7" moovel_centroid="351.414912705,1737.00295084"/>
  <polygon id="177430586" class="tile" points="374.835980334,1712.89113542 374.797655182,1691.68320909 374.800964399,1683.39025412 359.962298294,1683.63577633 359.06740142,1712.00818736 374.835980334,1712.89113542 " moovel_rot="72.5" moovel_centroid="367.209981806,1698.13241695"/>
  <polygon id="408709120" class="tile" points="375.835980334,1757.85975036 375.839462359,1683.39025412 428.695323754,1683.40211344 428.683377895,1757.86406867 375.835980334,1757.85975036 " moovel_rot="-48.3" moovel_centroid="402.263090249,1720.62805272"/>
  <polygon id="134403279" class="tile" points="429.695323754,1683.39025412 429.719780862,1727.76672551 443.569185686,1729.28442278 456.88818439,1704.17363112 437.320680686,1689.22477208 429.695323754,1683.39025412 " moovel_rot="62.5" moovel_centroid="439.848648606,1708.68811032"/>
  <polygon id="367434890" class="tile" points="479.189594198,1683.39025412 482.752242742,1685.7804404 462.522286678,1719.79836207 462.306523657,1726.53165337 465.649972301,1731.9760064 482.732244323,1741.84096208 480.283949141,1745.75752602 463.19716691,1735.74528573 459.772409844,1731.66592849 457.88818439,1725.50498151 458.531837856,1717.79962902 479.189594198,1683.39025412 " moovel_rot="25.2" moovel_centroid="469.293182649,1717.04283596"/>
  <polygon id="126095401" class="tile" points="492.189405102,1686.46597825 483.976754767,1683.39025412 483.752242742,1728.44760268 484.909097896,1774.11584279 490.496176681,1776.00608284 489.734973352,1733.94358494 492.188220023,1735.07707309 492.189405102,1686.46597825 " moovel_rot="82.7" moovel_centroid="487.73150717,1725.8667425"/>
  <polygon id="54039658" class="tile" points="493.189405102,1683.39069728 497.829907932,1683.39025412 504.528091303,1683.40155189 505.606623517,1683.40036282 505.619228318,1711.91177806 497.888192072,1711.89958364 493.202031868,1711.9021047 493.189405102,1683.39069728 " moovel_rot="70.4" moovel_centroid="499.404246598,1697.64908038"/>
  <polygon id="45931657" class="tile" points="521.799335854,1683.39025412 506.619228318,1685.68421122 507.526102518,1723.15647639 511.123889864,1723.03112654 510.96997042,1718.64592601 514.81749567,1718.50861885 521.791812134,1718.26147314 521.799335854,1683.39025412 " moovel_rot="-64.0" moovel_centroid="514.309909731,1701.95381174"/>
  <polygon id="23971042" class="tile" points="522.799335854,1738.66037225 522.80895275,1716.43913966 522.905710972,1692.45662369 528.95732308,1683.39025412 539.155078101,1683.49888521 549.293177865,1708.86539253 552.371754711,1719.97607542 554.116525215,1733.29075443 522.799335854,1738.66037225 " moovel_rot="34.6" moovel_centroid="535.947832278,1713.01473046"/>
  <polygon id="48409953" class="tile" points="555.116525215,1683.39025412 571.797867452,1683.68783393 571.705076038,1757.97908985 555.143321002,1758.15432483 555.116525215,1683.39025412 " moovel_rot="77.1" moovel_centroid="563.431937971,1720.75808149"/>
  <polygon id="208670691" class="tile" points="55.4566034334,1891.79299423 49.114055701,1906.85139739 2.90569755714,1887.4401994 4.98402715679,1882.50189022 0.0,1880.4091799 29.8793598644,1809.50771188 55.471250594,1820.25657479 42.7483286675,1850.44489682 32.2347946409,1846.02377916 30.2484041378,1850.74028766 26.2675208118,1849.07231895 25.0912961947,1851.85422268 14.2929144781,1877.48721057 28.8612703124,1883.60475292 29.9299676657,1881.06634757 55.4566034334,1891.79299423 " moovel_rot="-54.3" moovel_centroid="29.261724934554806,1858.03550724"/>
  <polygon id="342996182" class="tile" points="58.1559134095,1809.50968618 57.6361283491,1827.49580925 57.6169856502,1830.81100319 57.5974397592,1832.32529853 57.803386271,1839.94408204 57.4925177178,1844.58531632 57.471250594,1853.67302115 60.1440326259,1853.68658497 62.2932829761,1853.71075324 62.4004319824,1839.95133606 62.3891191013,1838.90223719 83.6205306199,1838.97570474 83.5650570409,1853.90986159 83.8139021982,1853.9240849 83.8071059509,1809.5274437 60.2176663507,1809.50771188 58.1559134095,1809.50968618 " moovel_rot="-12.0" moovel_centroid="69.94381793,1826.22659772"/>
  <polygon id="181322847" class="tile" points="100.251228314,1809.50771188 94.242583959,1810.04976699 91.4945144394,1810.29756786 91.7621132461,1823.09398086 86.6331709541,1830.31293043 90.3567849107,1871.74675561 84.8139021982,1878.1584133 90.9284102211,1935.84883073 97.3496254407,1935.04611229 100.212752124,1934.685646 93.4676221607,1880.45398342 97.3397323178,1872.69494664 94.6790560406,1834.30593947 99.4791990604,1824.0691808 100.251228314,1809.50771188 " moovel_rot="81.1" moovel_centroid="92.7024926857,1874.31480571"/>
  <polygon id="59999162" class="tile" points="101.251228314,1810.81721396 119.998231559,1809.50771188 119.961892999,1832.55016109 102.224096751,1833.70426433 101.251228314,1810.81721396 " moovel_rot="36.3" moovel_centroid="110.862467777,1821.53839053"/>
  <polygon id="148738461" class="tile" points="120.998231559,1920.37261527 121.007205103,1914.23928235 121.112630794,1810.50006639 150.463186678,1809.50771188 152.831656862,1917.25278654 120.998231559,1920.37261527 " moovel_rot="-3.6" moovel_centroid="136.313859334,1865.15260612"/>
  <polygon id="38167477" class="tile" points="164.452797017,1817.71374481 153.903552765,1809.50771188 153.831656862,1861.67148994 158.468393832,1864.59981268 158.740343903,1870.85956232 165.343661155,1874.37229882 173.030673062,1866.8965033 174.147150833,1851.48366959 166.40477213,1825.85727808 164.452797017,1817.71374481 " moovel_rot="74.5" moovel_centroid="162.535936573,1844.87603884"/>
  <polygon id="107105185" class="tile" points="175.158463072,1810.19660238 191.369002747,1809.50771188 191.464065309,1816.62324368 191.44077587,1823.61439693 192.530114295,1839.20746251 175.147150833,1839.68154089 175.158463072,1810.19660238 " moovel_rot="19.9" moovel_centroid="183.453988531,1824.82264439"/>
  <polygon id="447035877" class="tile" points="194.437642548,1983.2683684 198.619947662,1982.91079924 198.681180958,1809.50771188 193.530114295,1809.66252224 193.634506935,1905.86597963 193.791369796,1944.63718127 194.437642548,1983.2683684 " moovel_rot="-83.6" moovel_centroid="196.184213068,1894.1615898"/>
  <polygon id="396117861" class="tile" points="204.966239912,1809.50771188 204.957927271,1827.59164332 200.165758273,1827.85485394 199.681180958,1810.67499318 201.358082596,1809.5414293 204.966239912,1809.50771188 " moovel_rot="49.5" moovel_centroid="202.450451764,1818.56140994"/>
  <polygon id="424956805" class="tile" points="205.966239912,1809.50771188 205.992340399,1842.96133329 210.862115843,1845.70535131 211.150604929,1812.09882722 205.966239912,1809.50771188 " moovel_rot="-83.6" moovel_centroid="208.497494461,1827.39625928"/>
  <polygon id="140055296" class="tile" points="212.155167891,1831.90023208 212.150604929,1815.21972581 216.214091109,1815.21717217 216.215095831,1809.51231012 241.97578278,1809.50771188 241.985080374,1865.44775904 226.607499709,1865.45323003 226.601864233,1868.91346846 212.15527799,1868.91514946 212.155167891,1831.90023208 " moovel_rot="-89.0" moovel_centroid="227.016682461,1838.70145309"/>
  <polygon id="315766207" class="tile" points="268.632232583,1809.51078225 250.888127242,1809.50771188 250.888863999,1816.30717256 248.995649292,1816.30344831 248.996989582,1817.55595031 255.215423809,1817.55682823 255.227269548,1825.46476064 244.23215056,1825.46205281 244.231264098,1821.47121605 242.985080374,1821.47046326 242.992508504,1828.84489871 243.005249668,1840.7436649 254.137649969,1840.74293951 263.231282895,1840.75171363 263.223753933,1830.98404054 268.657874012,1830.98538084 268.632232583,1809.51078225 " moovel_rot="71.6" moovel_centroid="256.834180585,1825.95202577"/>
  <polygon id="142886900" class="tile" points="269.657874012,1809.80825976 300.561975278,1809.50771188 300.547054271,1840.50012915 293.133667006,1840.5065455 277.486101388,1840.53445292 269.759727535,1840.54670467 269.657874012,1809.80825976 " moovel_rot="-17.3" moovel_centroid="285.152470394,1825.0798117"/>
  <polygon id="126197311" class="tile" points="301.561975278,1848.52317262 301.588449187,1809.50771188 320.709619389,1809.52137981 320.68314885,1848.53684047 301.561975278,1848.52317262 " moovel_rot="-91.2" moovel_centroid="311.135798173,1829.02227677"/>
  <polygon id="131333230" class="tile" points="321.814486606,1932.95069651 329.22030464,1932.94820693 329.111279312,1809.50771188 321.709619389,1809.51542928 321.814486606,1932.95069651 " moovel_rot="50.7" moovel_centroid="325.463953631,1871.23628197"/>
  <polygon id="98018283" class="tile" points="330.22030464,1928.24557916 336.487466625,1928.09156756 335.183741208,1809.50771188 330.295168577,1809.65299478 330.22030464,1928.24557916 " moovel_rot="-80.6" moovel_centroid="333.059434553,1871.31665869"/>
  <polygon id="309969929" class="tile" points="337.487466625,1809.70924236 337.735270327,1859.09774465 337.526850678,1990.3518355 349.693840825,1999.74379055 405.785093759,1983.80250067 455.79202841,1969.33283654 455.899167855,1948.68991599 455.461469552,1947.24247132 452.341839335,1936.97782461 372.317835878,1960.62429233 369.411279998,1958.69646855 369.430842035,1956.31267914 369.699843013,1924.2547073 370.314396222,1859.12114276 370.318040274,1809.50771188 337.487466625,1809.70924236 " moovel_rot="-14.8" moovel_centroid="372.573451053,1922.57356615"/>
  <polygon id="388185416" class="tile" points="480.275722849,1842.97073679 480.257442234,1814.15564362 466.175607963,1809.50771188 456.899167855,1832.9017897 480.275722849,1842.97073679 " moovel_rot="74.5" moovel_centroid="470.803396893,1826.03646563"/>
  <polygon id="242119706" class="tile" points="500.998207923,1809.50771188 481.283640059,1809.51460214 481.275722849,1831.19659436 492.704313783,1831.45593933 500.979628287,1831.18722288 500.998207923,1809.50771188 " moovel_rot="-76.9" moovel_centroid="491.137261858,1820.416871"/>
  <polygon id="32013075" class="tile" points="501.998207923,1871.3396866 527.817707063,1871.04525076 530.366031485,1870.96259011 536.133058108,1870.70861378 536.244185389,1867.40901705 534.981579356,1815.21410442 535.001270503,1809.58655618 534.583977337,1809.568901 522.534691286,1809.55813474 513.504656113,1809.50771188 502.023090451,1809.59388922 501.998207923,1871.3396866 " moovel_rot="72.8" moovel_centroid="518.777493736,1840.55419174"/>
  <polygon id="106369568" class="tile" points="537.244185389,1848.45089182 554.34366465,1848.40286552 554.251902848,1809.50771188 537.294181916,1809.79253959 537.244185389,1848.45089182 " moovel_rot="-55.2" moovel_centroid="545.792214667,1829.06529314"/>
  <polygon id="370330911" class="tile" points="555.361022366,1809.50771188 571.963204578,1809.51523025 571.913127458,1852.69105853 560.829970727,1852.68832713 560.863649112,1825.24805305 555.34366465,1825.24987606 555.361022366,1809.50771188 " moovel_rot="-81.6" moovel_centroid="565.1239003,1828.99278009"/>
  <polygon id="179170866" class="tile" points="573.244948322,1809.50771188 572.963204578,1825.39358068 587.053461817,1825.91024696 587.033374632,1809.8711847 573.244948322,1809.50771188 " moovel_rot="2.1" moovel_centroid="580.083962321,1817.69992653"/>
  <polygon id="229236041" class="tile" points="22.5460071953,2000.08920816 20.8503512185,2106.30813919 7.95897931787,2106.1016636 9.28104784973,2023.27078628 0.00460982895456,2018.01341159 0.0,1999.74379055 5.70325677311,1999.82793049 22.5460071953,2000.08920816 " moovel_rot="-1.9" moovel_centroid="13.951168676889209,2047.69073153"/>
  <polygon id="254619234" class="tile" points="24.5460071953,1999.74379055 31.6129084554,2001.43691665 30.9713968396,2047.44091573 24.6227735752,2047.02990389 24.5460071953,1999.74379055 " moovel_rot="55.2" moovel_centroid="27.9268149467,2023.49035147"/>
  <polygon id="42780002" class="tile" points="32.7365220716,2144.21782203 32.6129084554,1999.76654206 54.3404584575,1999.74379055 54.2752729061,2005.02388478 54.3898748687,2138.66268791 54.4640720635,2144.1950735 32.7365220716,2144.21782203 " moovel_rot="0.2" moovel_centroid="43.5050036931,2071.98116368"/>
  <polygon id="256251155" class="tile" points="55.4640720635,2185.65344956 60.5288239019,2185.64462318 60.6426247146,1999.74379055 55.5778353494,1999.75254546 55.4640720635,2185.65344956 " moovel_rot="-27.7" moovel_centroid="58.0533389152,2092.69848727"/>
  <polygon id="325122276" class="tile" points="84.1688078271,1999.75043556 84.1705117057,2011.83888784 89.1407843639,2011.83604224 89.1417322934,2020.48466729 89.1403862634,2059.17386219 67.0818685458,2059.16527169 61.6506085511,2059.17018476 61.6426247146,1999.74379055 66.5125187017,1999.74993733 84.1688078271,1999.75043556 " moovel_rot="1.1" moovel_centroid="74.963972599,2030.36150432"/>
  <polygon id="27861033" class="tile" points="120.369406791,2004.10515339 120.340962199,2143.3971038 90.1417322934,2143.39614275 90.1777231006,1999.74643617 113.288394441,1999.74379055 113.28805145,2004.11209857 120.369406791,2004.10515339 " moovel_rot="-2.8" moovel_centroid="105.174705814,2072.07321532"/>
  <polygon id="326746312" class="tile" points="139.15874285,1999.97108918 139.144291414,2021.84696187 133.44225957,2021.81690421 133.404103163,2029.73093203 127.085839502,2029.56374824 127.142205373,2020.90591749 122.156212061,2021.13034623 122.186222961,2013.71371107 127.006573251,2013.79849207 126.918596777,2010.31644504 126.290376862,2007.28775793 123.894609915,2003.74434453 121.369406791,2001.4272671 121.43641289,1999.74379055 139.15874285,1999.97108918 " moovel_rot="79.5" moovel_centroid="131.329868418,2012.81897362"/>
  <polygon id="61907919" class="tile" points="141.273059967,1999.74379055 177.358934524,2000.59276526 177.465029272,2066.53354296 140.15874285,2066.21818892 141.273059967,1999.74379055 " moovel_rot="-41.3" moovel_centroid="159.037011228,2033.45452417"/>
  <polygon id="52523025" class="tile" points="181.756574109,2001.43196314 202.936277731,2000.51483339 222.616547116,1999.74379055 222.631473529,2044.42029491 178.465029272,2042.87076135 179.146822929,2032.41481848 181.756574109,2001.43196314 " moovel_rot="-29.6" moovel_centroid="201.586948536,2022.40083721"/>
  <polygon id="30351217" class="tile" points="223.631473529,1999.84544414 236.619252616,1999.74379055 236.5941091,2017.34000811 223.748792325,2017.13666054 223.631473529,1999.84544414 " moovel_rot="-3.4" moovel_centroid="230.167219443,2008.50042633"/>
  <polygon id="372568783" class="tile" points="244.172658307,1999.74942657 244.178325148,2007.93490119 237.627748355,2007.91677569 237.619252616,1999.74379055 244.172658307,1999.74942657 " moovel_rot="44.2" moovel_centroid="240.900329922,2003.8359296"/>
  <polygon id="257246521" class="tile" points="245.178325148,2008.93264266 245.188437923,1999.75476468 251.646947327,1999.74379055 251.64697164,2008.92584674 245.178325148,2008.93264266 " moovel_rot="-67.6" moovel_centroid="248.415415823,2004.34046087"/>
  <polygon id="140382416" class="tile" points="252.64697164,1999.9043936 267.807934536,1999.74379055 275.382310382,1999.74566841 275.303425583,2130.99895676 253.902894304,2131.00599661 252.64697164,1999.9043936 " moovel_rot="-0.4" moovel_centroid="264.308197515,2064.7382533"/>
  <polygon id="100594618" class="tile" points="300.309921838,2030.18960398 276.394775305,2030.14461837 276.382310382,1999.74379055 300.297498897,1999.78871794 300.309921838,2030.18960398 " moovel_rot="35.8" moovel_centroid="288.346130425,2014.96667827"/>
  <polygon id="94119290" class="tile" points="301.309921838,1999.76569532 329.569487771,1999.74379055 329.622921126,2099.08090356 301.363355194,2099.09185572 301.309921838,1999.76569532 " moovel_rot="0" moovel_centroid="315.466681147,2049.42055941"/>
  <polygon id="126095399" class="tile" points="335.498448701,2039.62412477 330.622921126,2041.88813644 330.651516753,2003.39988481 335.083871101,1999.74379055 335.498448701,2039.62412477 " moovel_rot="81.4" moovel_centroid="332.982208796,2021.45865753"/>
  <polygon id="27998687" class="tile" points="401.347287786,2090.65912189 372.038037937,2101.86532612 361.597893413,2071.15521113 352.132937247,2064.07171999 336.498448701,2021.12485968 398.274785556,1999.74379055 401.374953058,2008.51321816 354.281230216,2025.45937951 366.377522831,2058.61186621 370.788471956,2062.23964481 388.083386911,2055.98996588 401.347287786,2090.65912189 " moovel_rot="-1.7" moovel_centroid="370.494684502,2053.84096044"/>
  <polygon id="126906425" class="tile" points="406.733031827,1999.74379055 419.289066908,1999.88625936 427.069584957,1999.99226078 432.16498981,2003.3692536 430.848789579,2064.07919707 422.586070828,2064.07670017 422.56720185,2092.40991197 425.973724964,2092.41871401 425.94872976,2140.9349374 435.861347498,2140.93571539 438.517988542,2141.08850751 438.530869131,2154.24875695 402.374953058,2153.06312924 404.404160065,2091.40035196 405.067845602,2053.48098624 406.733031827,1999.74379055 " moovel_rot="0.7" moovel_centroid="417.04747038,2077.68153006"/>
  <polygon id="103453110" class="tile" points="439.531055929,2020.08829928 439.530869131,1999.77329144 455.762331692,1999.74379055 455.752867699,2020.05360197 439.531055929,2020.08829928 " moovel_rot="-61.7" moovel_centroid="447.64393414,2009.91373964"/>
  <polygon id="330512523" class="tile" points="469.099162034,2024.74339008 471.982871699,2022.29235271 472.000317308,1999.74379055 456.762331692,2009.04466808 469.099162034,2024.74339008 " moovel_rot="40.6" moovel_centroid="466.740875242,2011.8622198"/>
  <polygon id="382190504" class="tile" points="473.595377429,2000.65746787 473.091523432,1999.74379055 473.000317308,2092.44879748 473.38299126,2091.99626159 477.449809663,2091.89897383 477.435116512,2000.56255711 473.595377429,2000.65746787 " moovel_rot="-0.6" moovel_centroid="475.242412039,2046.44803019"/>
  <polygon id="178537513" class="tile" points="478.449809663,2022.52920828 494.312361955,2022.66763867 494.304832045,1999.74379055 478.746303862,1999.82175489 478.449809663,2022.52920828 " moovel_rot="-89.5" moovel_centroid="486.465476315,2011.2275806"/>
  <polygon id="48424786" class="tile" points="536.12940346,2001.15977187 535.232828398,2055.09965383 495.365725297,2054.92539198 495.312361955,1999.74379055 536.12940346,2001.15977187 " moovel_rot="8.1" moovel_centroid="515.435570064,2027.62253987"/>
  <polygon id="201855209" class="tile" points="542.093206793,1999.74379055 542.09902438,2015.63354871 537.135209366,2015.63553303 537.12940346,1999.75245403 542.093206793,1999.74379055 " moovel_rot="-90.1" moovel_centroid="539.614384913,2007.69133386"/>
  <polygon id="228335469" class="tile" points="543.267104061,1999.74379055 552.161138838,1999.9640256 552.222487387,2080.07444653 544.471925148,2077.79989682 543.09902438,2065.2952223 543.267104061,1999.74379055 " moovel_rot="1.7" moovel_centroid="547.752825221,2039.07681002"/>
  <polygon id="313252340" class="tile" points="553.242580176,2037.94027095 559.268514161,2037.92504241 559.239093266,1999.74379055 553.222487387,1999.76471299 553.242580176,2037.94027095 " moovel_rot="-58.6" moovel_centroid="556.243247144,2018.84838085"/>
  <polygon id="23209856" class="tile" points="20.597858195,2185.65344956 34.4506090382,2186.15092151 34.4870840276,2207.59851191 34.5067756886,2245.57065305 23.5875688685,2245.36083472 23.4949184641,2242.94226963 21.633279239,2242.87583806 16.0354923997,2242.95030615 7.82146025095,2242.78609114 7.72208168451,2230.34848075 0.0,2227.18200076 9.59429430887,2203.79784724 15.5807607707,2202.96464882 16.411121414,2193.85315744 20.6970641607,2193.40884687 20.597858195,2185.65344956 " moovel_rot="-89.6" moovel_centroid="21.36382418034431,2218.02983445"/>
  <polygon id="201855210" class="tile" points="36.5067756886,2185.66513022 43.1992932816,2185.65344956 43.2069482175,2201.52005263 36.5144114997,2201.52077574 36.5067756886,2185.66513022 " moovel_rot="-0.1" moovel_centroid="39.8572424644,2193.58985442"/>
  <polygon id="41591163" class="tile" points="44.2069482175,2258.86243736 103.703099492,2259.12982407 103.716361497,2233.47540761 79.1668358899,2233.64523314 49.0133939173,2233.68029666 48.9856033949,2226.71162237 53.6277474857,2226.63848437 53.5694135887,2217.51213045 57.9085700223,2217.47087044 57.6880938444,2190.79314752 57.705585315,2185.65344956 52.0961326217,2185.7583385 44.2674325678,2186.10033753 44.2069482175,2258.86243736 " moovel_rot="-70" moovel_centroid="67.7660134027,2235.75227183"/>
  <polygon id="230102853" class="tile" points="105.741448084,2401.37089126 129.644562822,2400.94430199 122.378083993,2301.36489241 121.18201155,2248.58154958 125.682174149,2227.13717615 129.530087825,2188.59745705 109.760462083,2185.65344956 105.248205836,2244.33829672 104.716361497,2295.26581428 105.741448084,2401.37089126 " moovel_rot="39.1" moovel_centroid="115.510854001,2298.3267378"/>
  <polygon id="211681414" class="tile" points="135.303796196,2185.66093302 135.303664906,2192.32811264 130.649221943,2192.31076372 130.644562822,2185.65344956 135.303796196,2185.66093302 " moovel_rot="25.9" moovel_centroid="132.975886671,2188.98774476"/>
  <polygon id="387648852" class="tile" points="136.303796196,2209.84039204 136.315759131,2185.66137639 152.173949379,2185.65344956 152.161970091,2209.83246162 136.303796196,2209.84039204 " moovel_rot="-77.6" moovel_centroid="144.238868503,2197.74691783"/>
  <polygon id="289151717" class="tile" points="153.173949379,2185.73322225 180.907575063,2185.65344956 180.920759101,2236.38063162 153.186796747,2236.44769184 153.173949379,2185.73322225 " moovel_rot="-33.2" moovel_centroid="167.047849384,2211.0537981"/>
  <polygon id="55528669" class="tile" points="204.290412331,2185.88771575 203.09759829,2328.50191008 181.941628536,2329.146671 181.920759101,2185.65344956 204.290412331,2185.88771575 " moovel_rot="17.6" moovel_centroid="192.804041551,2256.63071848"/>
  <polygon id="264964007" class="tile" points="217.106098899,2185.65344956 205.290412331,2186.67276853 209.312197308,2248.03889871 217.040958553,2235.64229355 216.066645876,2201.18152551 217.106098899,2185.65344956 " moovel_rot="27.3" moovel_centroid="211.693719429,2212.67065315"/>
  <polygon id="367643926" class="tile" points="218.135244488,2233.98285568 245.609345092,2208.17376971 242.259391753,2204.60756415 235.70217714,2196.92866543 230.886123978,2191.85390246 225.009508262,2185.65344956 218.541652795,2191.37456671 218.106098899,2198.88965027 219.001426014,2215.1594497 218.135244488,2233.98285568 " moovel_rot="-35.6" moovel_centroid="227.977899051,2207.96357919"/>
  <polygon id="176814948" class="tile" points="246.609345092,2185.69176884 254.541670418,2185.67370385 261.943772942,2185.65344956 261.952417953,2204.13194871 261.970977265,2223.13145986 253.713368854,2223.1572925 253.724255757,2237.57161719 253.734815074,2257.75424662 250.250107478,2257.77416067 246.65757533,2257.77959319 246.609345092,2185.69176884 " moovel_rot="-29.4" moovel_centroid="253.06206602,2215.18934001"/>
  <polygon id="88633441" class="tile" points="295.466891979,2185.67137666 263.000251067,2185.65344956 262.970977265,2240.45333748 295.448417271,2240.46437683 295.466891979,2185.67137666 " moovel_rot="-91.1" moovel_centroid="279.22129336,2213.06215318"/>
  <polygon id="104064630" class="tile" points="296.466891979,2185.66834712 302.560226281,2185.65344956 302.599968778,2238.03521642 296.506635113,2238.05012037 296.466891979,2185.66834712 " moovel_rot="-5.7" moovel_centroid="299.533430475,2211.85178291"/>
  <polygon id="29546830" class="tile" points="305.829083085,2222.53439229 321.956117913,2221.61465894 330.336265972,2220.60213894 331.173081246,2220.60232157 331.201938144,2185.65344956 303.599968778,2186.79523167 305.404453305,2214.31591744 305.829083085,2222.53439229 " moovel_rot="25.6" moovel_centroid="317.910442875,2203.71168025"/>
  <polygon id="128504903" class="tile" points="341.36560829,2185.65344956 355.802521881,2190.40552908 348.682315292,2222.0776227 355.81523774,2253.57831659 339.667151543,2255.87944776 332.201938144,2222.57587007 341.36560829,2185.65344956 " moovel_rot="19.5" moovel_centroid="344.149535163,2221.7869506"/>
  <polygon id="56643623" class="tile" points="390.33974505,2203.86624592 357.512681839,2238.87608186 356.81523774,2257.9452497 358.741341886,2265.8668842 371.313786138,2297.27418078 378.027997977,2315.52184904 380.448784478,2327.68974804 377.75321053,2343.76962579 391.396907526,2352.17039211 424.337330623,2312.41678414 489.438515737,2450.93358264 563.823710816,2361.41295911 537.347220969,2297.43576103 520.82271085,2257.34330761 563.960923704,2206.11493199 427.673779512,2185.65344956 414.457986371,2186.0860467 390.33974505,2203.86624592 " moovel_rot="18.9" moovel_centroid="465.884201946,2292.86750213"/>
</svg>