<svg xmlns="http://www.w3.org/2000/svg" version="1.1" width="592.5px" height="1200px">
  <polygon id="8" class="bin" points="-157.355826359,82.9044466946 -155.965112289,83.3897931164 -154.647306788,85.5188283744 -154.963253969,88.002692269 -193.412976028,164.279814569 -193.694597739,168.783521582 -190.63040068,172.096131433 -148.471315978,190.91706088 -146.2500005,194.341330676 -146.2500005,308.115358333 -146.457095623,309.344311153 -178.612065111,402.042742107 -178.980491354,404.665042207 -178.066719484,421.346603753 -178.056177799,421.505380457 -177.488153817,428.785237252 -176.263149458,431.426283021 -176.180887244,434.391018771 -178.278032799,436.488256397 -181.242772157,436.406124343 -188.789562361,432.906076091 -194.007314457,432.696309113 -195.285611603,433.168570142 -199.554347833,438.123270698 -200.116928645,440.823304015 -200.257187277,442.462872314 -198.484989839,493.448177405 -198.498318154,493.920049982 -200.273368742,513.324809127 -200.301944949,513.943163787 -200.323104668,532.508567434 -198.313432165,537.153024355 -198.224586199,539.906458625 -198.704136148,540.453238547 -200.404653843,545.597470744 -199.936595598,552.353994546 -192.319795601,662.194177777 -189.233299751,706.655926388 -190.178398476,709.414713676 -192.814281222,710.662207586 -194.86023809,710.749589737 -198.868385983,712.62836823 -200.349530059,716.799851226 -198.648397083,748.002294457 -197.419347888,750.613851201 -197.159651875,753.059261779 -198.47078363,755.13974452 -200.788900564,755.960603091 -203.436204634,755.977176778 -207.451729182,757.646492993 -209.150696086,761.649562499 -209.380562356,778.481188347 -209.379618699,778.722670103 -209.240414883,785.204871778 -209.239791534,785.327901044 -209.403935887,799.804359444 -209.404822725,799.853808331 -209.523567512,804.694265762 -209.523715133,804.700098239 -210.005613949,823.171757205 -210.288678612,833.872308969 -211.098639231,867.591292142 -209.722564562,871.473056073 -206.109737605,873.450217192 -198.893762516,874.438031607 -198.105216424,874.500041242 -170.328029437,875.080829506 -167.90247092,876.038462632 -166.687781469,878.346042504 -167.271365065,880.887661183 -168.454278946,882.689959165 -169.574774109,886.347940614 -170.619571603,962.806627148 -170.616561458,963.124611325 -170.485583272,967.14140265 -170.483592174,967.260981582 -170.3732296,1124.33199346 -170.373228941,1124.33604273 -170.403182588,1203.75141341 -171.50203201,1206.40214945 -174.153182321,1207.499999 -446.2499995,1207.499999 -448.901649929,1206.40164943 -449.9999995,1203.749999 -449.9999995,3.75 -448.901649929,1.09834957055 -446.2499995,0.0 -174.587924555,0.0 -171.974176836,1.06098105914 -170.839435423,3.64356113905 -168.911619867,71.5360169084 -167.235545117,75.4373043365 -165.101391746,76.365475497 -163.099626894,78.4512026286 -162.180971047,80.8256196785 -157.336856126,82.8592597453 -157.355826359,82.9044466946 " moovel_rot="0" moovel_centroid="-313.7214364727572,597.8860547254312"/>
  <polygon id="25110334" class="tile" points="72.8927606864,1296.6756324 65.1728979727,1281.80136717 60.9504938804,1283.91141719 53.7136936547,1269.95402108 54.2029209454,1269.71451265 47.6495090675,1257.08874875 40.0406683683,1242.43957624 65.3912399633,1229.24597912 68.3365176763,1226.66537243 74.8731778692,1223.25698823 64.2014132233,1206.58338977 58.2342254529,1201.0 21.3065274265,1253.24491476 1.0,1273.08300846 31.9366298791,1313.03286153 42.0940583549,1306.34683798 56.6880282594,1299.2691189 64.0065006012,1308.09061189 65.9933489099,1310.76847839 74.9479720382,1304.18150985 72.8927606864,1296.6756324 " moovel_rot="73.8" moovel_centroid="40.68071024152481,1266.9695264298705"/>
  <polygon id="154862750" class="tile" points="92.0972307423,1239.78494978 81.8926806619,1239.7917919 81.8890464931,1236.84814595 75.9746270753,1236.85279813 75.9479720382,1205.39306738 81.07002772,1205.39284444 81.0709789576,1201.00050909 92.0661496647,1201.0 92.0972307423,1239.78494978 " moovel_rot="9.2" moovel_centroid="84.384076545,1220.5231207423633"/>
  <polygon id="295242833" class="tile" points="93.0972307423,1244.1750858 93.1284577986,1201.16625784 109.402346722,1201.0 109.144441272,1211.20822036 113.911530692,1211.01364027 114.710659914,1219.78869163 107.69413184,1220.29861429 107.818987646,1232.30920355 107.675146519,1244.45535171 93.0972307423,1244.1750858 " moovel_rot="-73.3" moovel_centroid="101.498228464,1221.7597060908065"/>
  <polygon id="228927664" class="tile" points="115.710659914,1267.03474151 115.725364877,1201.0 127.386050893,1201.00009105 127.360434129,1267.03395462 115.710659914,1267.03474151 " moovel_rot="-85.4" moovel_centroid="121.545616108,1234.0120448087366"/>
  <polygon id="286165787" class="tile" points="183.480365645,1201.0 184.333753808,1245.2739383 182.069250034,1245.25144793 184.278304301,1355.44283557 177.77549172,1355.68952692 176.511880516,1246.22201557 128.386050893,1247.27230524 128.400481244,1225.6731028 174.915746208,1224.81003196 174.912729414,1206.83408023 174.993010145,1201.02338433 183.480365645,1201.0 " moovel_rot="44.3" moovel_centroid="166.194206653,1254.8225086244229"/>
  <polygon id="280995489" class="tile" points="185.333753808,1259.05961853 185.347402575,1201.70443456 197.166897864,1201.0 197.503709143,1258.72705083 185.333753808,1259.05961853 " moovel_rot="-88.2" moovel_centroid="191.345055186,1230.2621532891715"/>
  <polygon id="177914367" class="tile" points="229.522043891,1246.07146281 198.503709143,1245.99412518 198.521294683,1201.0 229.539733841,1201.07728512 229.542522112,1203.10197733 229.522043891,1246.07146281 " moovel_rot="63.3" moovel_centroid="214.022594673,1223.5353136459912"/>
  <polygon id="132475247" class="tile" points="238.78565896,1286.06822247 242.474436763,1288.35865957 247.222483693,1291.30693658 251.48653531,1263.89245739 258.143106431,1263.56366279 258.228119537,1259.15087466 258.22875702,1254.60136972 258.236544726,1245.92660092 262.461872732,1246.08112816 263.17390355,1227.8585904 257.24044167,1228.01460566 257.012703951,1201.0298721 230.547438843,1201.0 230.542522112,1231.88447599 233.165065511,1231.88145645 233.150537538,1259.48960269 238.794643996,1259.47917714 238.78565896,1286.06822247 " moovel_rot="-48.6" moovel_centroid="245.501789644,1237.7796785813293"/>
  <polygon id="344005562" class="tile" points="264.17390355,1201.0 264.187654597,1245.41051247 289.58503219,1244.85070727 289.847534014,1202.72163262 264.17390355,1201.0 " moovel_rot="-73.6" moovel_centroid="276.836763766,1223.4532353504828"/>
  <polygon id="151876409" class="tile" points="306.826827637,1228.01992434 306.794775765,1206.7484696 301.883017041,1206.54102372 301.878081738,1201.0 290.901497129,1201.26365901 290.847534014,1227.84073216 296.781641605,1227.78325871 296.802457229,1229.6948427 300.886885479,1229.65902629 300.875817413,1228.07384723 306.826827637,1228.01992434 " moovel_rot="51.2" moovel_centroid="298.496794738,1215.5029661103615"/>
  <polygon id="167201942" class="tile" points="341.560867933,1244.67554275 307.82693856,1244.73169063 307.826827637,1201.0661783 341.556704457,1201.0 341.560867933,1244.67554275 " moovel_rot="-22.0" moovel_centroid="324.693480781,1222.8687889095893"/>
  <polygon id="415363308" class="tile" points="354.885944153,1241.56772381 342.560867933,1231.24403785 342.574905916,1201.0 355.772669706,1211.67657204 354.885944153,1241.56772381 " moovel_rot="78.9" moovel_centroid="348.963905759,1221.2122944335445"/>
  <polygon id="284527355" class="tile" points="409.732897939,1265.74181819 356.809856716,1265.7081448 356.772669706,1201.0 409.685311177,1201.03647946 409.732897939,1265.74181819 " moovel_rot="74.9" moovel_centroid="383.249992873,1233.3726703880484"/>
  <polygon id="26414069" class="tile" points="431.041371374,1258.41484848 438.509381962,1258.41058416 438.504374888,1245.56499025 438.523534018,1217.08564481 438.516918279,1208.64215127 438.529742159,1201.0026102 410.75323914,1201.0 410.741580842,1239.80954421 410.732897939,1258.40797506 431.041371374,1258.41484848 " moovel_rot="-86.7" moovel_centroid="424.629420558,1229.7061797961474"/>
  <polygon id="52067570" class="tile" points="439.529742159,1201.0 439.546129717,1224.80527596 447.858482709,1224.69651192 447.837667628,1223.41175898 449.249285925,1223.37850286 448.932619642,1222.58964575 448.754408531,1221.75158631 448.740942045,1220.89933878 448.906596062,1220.06317421 449.21932323,1219.26715447 449.682816973,1218.54957122 450.282284749,1217.93521927 450.985679191,1217.44816048 451.771635382,1217.1044361 452.608105932,1216.92810794 453.442511929,1216.84914749 453.568769448,1211.74445583 453.831979663,1201.3490823 439.529742159,1201.0 " moovel_rot="-36.9" moovel_centroid="446.010466789,1211.9514158986651"/>
  <polygon id="138147771" class="tile" points="454.831979663,1237.2945243 471.850689715,1240.00508625 471.809830983,1201.0 461.239486923,1201.31198534 454.831979663,1237.2945243 " moovel_rot="47.2" moovel_centroid="464.87992929,1221.4169768256497"/>
  <polygon id="59203629" class="tile" points="472.92187738,1247.5479781 495.428486008,1247.92316908 495.66241563,1202.51002958 472.850689715,1201.0 472.864219653,1206.97069766 472.880411942,1222.88189185 472.92187738,1247.5479781 " moovel_rot="18.8" moovel_centroid="484.16957972,1224.692191772773"/>
  <polygon id="269798710" class="tile" points="496.66241563,1225.46204947 499.880696369,1225.459488 517.970273382,1225.03012136 517.495034095,1209.83834186 517.223604835,1201.0 511.923599501,1201.38154014 496.674569796,1201.82748749 496.66241563,1225.46204947 " moovel_rot="60.9" moovel_centroid="507.155491675,1213.458104925046"/>
  <polygon id="164199812" class="tile" points="519.336039487,1201.0 525.252152248,1201.10802866 530.854542821,1201.22036645 536.918837775,1201.33124577 536.919779973,1223.52107861 530.877682061,1223.43528736 524.875442429,1223.35174099 518.970273382,1223.26266739 519.336039487,1201.0 " moovel_rot="-30" moovel_centroid="528.030232077,1212.317693336716"/>
  <polygon id="312001347" class="tile" points="556.730913418,1201.8351037 554.79195551,1262.10220979 537.997418815,1260.63660189 537.919779973,1201.0 556.730913418,1201.8351037 " moovel_rot="73.0" moovel_centroid="546.887558623,1230.8320900944"/>
  <polygon id="390843214" class="tile" points="562.627330487,1201.0 562.607103503,1226.9330702 560.282180492,1226.92877117 557.733997322,1226.92953515 557.730913418,1239.19878887 585.936887552,1239.2237685 585.929938844,1201.00731499 562.627330487,1201.0 " moovel_rot="24.9" moovel_centroid="573.387068723,1220.9274658347447"/>
  <polygon id="126625360" class="tile" points="0.0060111656785,1366.58067319 4.45949928202,1366.59403341 4.45756422076,1358.67048209 11.5367477562,1358.68792506 11.5351331659,1355.68952692 41.7530613776,1355.76181893 41.7514378868,1364.09016424 41.7380360451,1400.1626214 36.6624586685,1400.14635183 36.668500137,1405.57306693 9.1148255188,1405.50425587 4.36668069083,1405.49490734 4.3637967255,1394.22523801 0.0,1394.21064848 0.0060111656785,1366.58067319 " moovel_rot="57.8" moovel_centroid="21.699376947722538,1380.563516"/>
  <polygon id="32401646" class="tile" points="43.7530613776,1356.04991256 77.5895241099,1355.68952692 77.5790416406,1391.70237909 43.8442365285,1391.49206211 43.7530613776,1356.04991256 " moovel_rot="10.1" moovel_centroid="60.7364114708,1373.72435518"/>
  <polygon id="131333241" class="tile" points="78.5895241099,1355.68952692 85.816778599,1356.66962735 85.6103356789,1453.49038185 78.7201508467,1455.08210239 78.5895241099,1355.68952692 " moovel_rot="51.0" moovel_centroid="82.1688406988,1404.8420229"/>
  <polygon id="106989129" class="tile" points="88.8990004377,1355.89836942 125.435200367,1355.68952692 125.260228383,1382.08376973 126.312870055,1382.1095261 126.152290065,1396.60639694 129.632021058,1396.71398413 129.664384767,1402.60457018 129.665577427,1415.63263624 128.751577096,1415.63994481 128.714155873,1419.87670938 129.661574348,1419.87209464 129.683104213,1431.84240136 129.685932563,1460.46388512 115.819340359,1459.57591696 116.729191193,1446.74824366 86.816778599,1444.66308944 88.8990004377,1355.89836942 " moovel_rot="-73.9" moovel_centroid="108.687209146,1404.85771661"/>
  <polygon id="12487938" class="tile" points="131.309594441,1355.68952692 163.803186631,1356.25772914 163.829963217,1398.66542163 146.747116358,1399.05389641 146.881436608,1391.90576394 130.685932563,1392.83275393 131.309594441,1355.68952692 " moovel_rot="-12.1" moovel_centroid="148.015171734,1376.04064853"/>
  <polygon id="50998026" class="tile" points="164.897526124,1355.70979983 197.743900711,1355.68952692 197.67270669,1436.86654675 164.829963217,1436.89730569 164.844673297,1416.67067687 164.874927401,1380.50634602 164.897526124,1355.70979983 " moovel_rot="-19.1" moovel_centroid="181.284934024,1396.29011423"/>
  <polygon id="46248786" class="tile" points="199.027607752,1369.46756824 234.642543902,1355.68952692 234.671441205,1416.48733388 215.979521114,1417.98677924 216.476975943,1398.76557946 212.164860905,1398.61499708 198.743900711,1398.06985308 199.027607752,1369.46756824 " moovel_rot="2.0" moovel_centroid="219.508256775,1386.18027378"/>
  <polygon id="10472058" class="tile" points="246.627518556,1391.84147061 235.704427091,1391.52317837 235.671441205,1390.82255597 235.690256113,1390.37423941 236.201564391,1355.68953293 241.620250867,1355.70635292 245.096798347,1355.69733501 246.621093157,1355.68952692 246.627518556,1391.84147061 " moovel_rot="-91.8" moovel_centroid="241.28744177,1373.84077275"/>
  <polygon id="390545054" class="tile" points="247.627518556,1358.39517468 247.785532503,1362.37473328 248.118628235,1372.07627118 249.795712706,1375.99111664 251.132813602,1377.72993314 253.840190265,1379.75317842 256.416407313,1381.09439502 259.107809983,1381.68421711 264.94625025,1381.75300314 267.439461927,1381.84412484 267.516711606,1377.87136426 269.895692403,1377.91598815 270.237259837,1374.93744113 270.948122305,1360.12474766 270.94629212,1357.2093431 259.729028872,1356.68525979 258.366642063,1356.62361511 257.020441263,1356.05514817 256.370717037,1355.68952692 247.627518556,1358.39517468 " moovel_rot="-23.1" moovel_centroid="259.58307379,1368.33757972"/>
  <polygon id="222726300" class="tile" points="272.407139712,1438.7712496 319.094859209,1438.78845712 319.048988315,1380.41907463 319.069101131,1355.68952692 293.370411528,1356.27827656 293.587985227,1390.85016446 271.948122305,1391.23850099 272.407139712,1438.7712496 " moovel_rot="-35.7" moovel_centroid="298.685988464,1403.03849066"/>
  <polygon id="448827208" class="tile" points="335.53341132,1355.70477431 320.106370689,1355.68952692 320.094859209,1417.64330493 335.533888016,1417.66304564 335.53341132,1355.70477431 " moovel_rot="79.1" moovel_centroid="327.817224942,1386.67917374"/>
  <polygon id="259080601" class="tile" points="357.40688354,1358.84298725 353.392116847,1387.68815518 336.598419077,1385.79404552 336.5639477,1378.20027055 337.699203866,1378.20130638 337.697891786,1374.62857432 336.564397865,1374.63398099 336.53519975,1367.01798963 337.661659548,1367.02835647 337.660348021,1363.45562425 336.533888016,1363.44525747 336.534561282,1355.68952692 357.40688354,1358.84298725 " moovel_rot="74.7" moovel_centroid="346.10441702,1371.46884096"/>
  <polygon id="205131619" class="tile" points="388.692464708,1433.8208728 388.731842144,1355.68952692 358.40688354,1369.63329295 388.692464708,1433.8208728 " moovel_rot="-25.2" moovel_centroid="378.610396797,1386.38123089"/>
  <polygon id="161452009" class="tile" points="389.731842144,1355.68952692 389.736223826,1367.79788636 394.144521092,1367.78900593 394.140215838,1355.69159394 389.731842144,1355.68952692 " moovel_rot="-0.4" moovel_centroid="391.937868427,1361.74198696"/>
  <polygon id="204912046" class="tile" points="403.108952813,1356.3899552 402.944341378,1368.7644793 395.145463391,1368.19749329 395.144521092,1355.68952692 403.108952813,1356.3899552 " moovel_rot="-16.7" moovel_centroid="399.079624916,1362.23797284"/>
  <polygon id="112393593" class="tile" points="404.108952813,1530.21145668 429.263004153,1527.36860977 442.826080384,1525.8328627 442.680182205,1509.22697449 494.734565569,1515.4917409 450.186432341,1361.85759793 448.395520332,1355.68952692 404.230157458,1365.26972113 404.108952813,1530.21145668 " moovel_rot="-81.4" moovel_centroid="438.529584631,1448.84562269"/>
  <polygon id="328257617" class="tile" points="495.734565569,1397.63212599 506.943233706,1373.35736178 515.519041908,1377.31448343 532.732414521,1385.2699993 546.38997712,1355.68952692 551.426657896,1358.02203253 529.825224545,1404.78298904 551.482131428,1414.77855217 548.206627047,1421.87985409 495.734565569,1397.63212599 " moovel_rot="25.3" moovel_centroid="523.595543703,1392.66957939"/>
  <polygon id="45898997" class="tile" points="577.755605203,1356.58017175 578.079803941,1403.99270854 552.482131428,1404.54061933 552.503018793,1355.68952692 577.755605203,1356.58017175 " moovel_rot="-72.7" moovel_centroid="565.141884728,1380.25548499"/>
  <polygon id="27579009" class="tile" points="9.65573184695,1530.21145668 11.7180862589,1531.3883071 61.9166943328,1562.47793873 41.05176541,1596.84192818 54.0434951479,1604.99879335 44.8889737409,1620.17075506 39.9293985313,1628.40363417 0.0,1602.52593266 6.57633467317,1591.83595809 9.6744826952,1593.83777179 26.163645556,1566.9899259 1.36231184173,1551.59687622 3.49540758859,1548.19549202 0.0115039296448,1546.07098294 0.48872466255,1545.29799476 9.65573184695,1530.21145668 " moovel_rot="-59.0" moovel_centroid="29.792316898577702,1579.48702498"/>
  <polygon id="423164097" class="tile" points="79.6991196169,1530.64679693 80.4953492983,1626.25363617 63.9166943328,1626.39950573 64.0368769155,1530.21145668 79.6991196169,1530.64679693 " moovel_rot="-11.7" moovel_centroid="72.0303576502,1578.83310141"/>
  <polygon id="424766987" class="tile" points="105.568413882,1530.29755858 105.572861864,1611.64091424 94.4632831038,1611.03631698 81.4953492983,1610.09851784 83.3162126999,1536.25960093 97.0062026285,1536.53346626 96.7712880597,1530.21145668 105.568413882,1530.29755858 " moovel_rot="-10.2" moovel_centroid="94.2328453302,1572.93156561"/>
  <polygon id="242097633" class="tile" points="106.572861864,1530.21145668 106.601128426,1575.28155895 122.762379531,1575.28974854 122.734120667,1530.21961345 106.572861864,1530.21145668 " moovel_rot="13.2" moovel_centroid="114.667623601,1552.75059261"/>
  <polygon id="102424343" class="tile" points="123.770783439,1530.21145668 123.762379531,1547.56782936 134.185259556,1547.5756059 134.198345553,1530.23114359 123.770783439,1530.21145668 " moovel_rot="10" moovel_centroid="128.978596357,1538.89585772"/>
  <polygon id="35831051" class="tile" points="135.214369864,1530.21145668 143.197216429,1530.22176942 156.717254029,1530.22811281 156.694960107,1553.12168509 149.008325846,1553.1159452 149.003643724,1558.86938131 135.198345553,1558.85814004 135.214369864,1530.21145668 " moovel_rot="-91.7" moovel_centroid="145.421518507,1543.65691645"/>
  <polygon id="132075774" class="tile" points="158.176412901,1539.56214711 163.53521767,1553.33680264 157.717254029,1555.88948964 165.219911876,1575.65728911 176.651910955,1574.63837184 176.616253969,1534.96137149 171.659396786,1534.79398854 169.414437593,1530.21145668 161.639501188,1533.81954354 162.970211851,1537.55581882 158.176412901,1539.56214711 " moovel_rot="63.9" moovel_centroid="168.709032376,1553.58537762"/>
  <polygon id="203196042" class="tile" points="189.312560114,1530.21145668 193.019446997,1538.34321505 192.181540607,1544.21675946 193.01957824,1546.72138993 186.746277074,1550.13780855 183.438475572,1548.12442166 177.651910955,1541.67080113 184.473278463,1538.90304401 181.996638475,1533.47981959 189.312560114,1530.21145668 " moovel_rot="-18.5" moovel_centroid="186.855734955,1540.75601056"/>
  <polygon id="54730864" class="tile" points="195.157729068,1530.21145668 194.027115766,1565.65615814 194.01957824,1569.75616745 209.926929059,1570.28501302 212.009590403,1570.35628571 211.624129816,1601.86864007 220.947919126,1599.45126166 243.423485521,1593.47551176 243.437919929,1549.25600622 218.808636922,1539.01865949 195.157729068,1530.21145668 " moovel_rot="-77.7" moovel_centroid="220.253158421,1565.2244342"/>
  <polygon id="60541811" class="tile" points="303.559819182,1731.78848738 336.895527028,1732.1624323 337.625380924,1668.61322736 274.194280134,1667.89671698 275.093625263,1530.21145668 244.437919929,1540.59638879 244.475980175,1696.64315318 303.964550696,1697.31143021 303.559819182,1731.78848738 " moovel_rot="-85.9" moovel_centroid="279.395783065,1645.89270929"/>
  <polygon id="383559549" class="tile" points="342.277958491,1557.56446233 338.625380924,1558.25330929 347.866329774,1621.74760408 366.418928263,1620.24767402 369.248805079,1617.73757325 362.784788952,1569.27416766 366.258203513,1568.82281704 364.191292711,1553.61455892 361.072875558,1553.94008335 362.268178985,1551.32139219 369.541788313,1550.04917671 372.026139755,1552.38865529 368.299956683,1552.95760572 370.304048252,1568.07941017 381.990703361,1566.45747323 379.702455699,1551.41002576 376.539761384,1551.76771942 378.037866764,1549.11891564 381.976555748,1548.39557062 379.289797154,1530.21145668 366.86219704,1531.59566637 356.310651805,1546.58480265 338.969308342,1548.69076777 339.300108637,1553.50304266 340.828787467,1554.26648347 342.080069644,1556.08182322 342.277958491,1557.56446233 " moovel_rot="54.0" moovel_centroid="358.621019621,1574.43756454"/>
  <polygon id="110372113" class="tile" points="390.072733222,1530.21233283 382.990703361,1530.21145668 383.007816792,1597.94432432 390.100703694,1597.94394427 390.072733222,1530.21233283 " moovel_rot="83.4" moovel_centroid="386.542981187,1564.08666126"/>
  <polygon id="37247517" class="tile" points="409.201235567,1587.27549329 391.137490339,1587.18512383 391.130187493,1584.02630273 391.100703694,1530.21145668 403.159368904,1530.33043103 403.113433506,1534.9522658 409.652819617,1535.13918777 409.201235567,1587.27549329 " moovel_rot="-76.7" moovel_centroid="400.09461607,1559.41448201"/>
  <polygon id="385207006" class="tile" points="416.176924768,1625.60122287 410.652819617,1625.60723573 410.704627518,1530.24134504 414.835014318,1530.23433597 426.717884222,1530.21145668 426.682217984,1602.28070629 422.226246634,1602.28770985 422.217630784,1617.14688593 426.468074377,1617.13783575 426.465649597,1625.58485415 416.176924768,1625.60122287 " moovel_rot="-28.1" moovel_centroid="418.415708663,1576.41953037"/>
  <polygon id="391137100" class="tile" points="427.717884222,1530.21145668 430.365264029,1533.02572375 433.653352544,1533.00039175 445.135788056,1532.91025545 445.099778751,1552.20020485 430.726459555,1551.37535215 427.86119915,1553.88498549 427.721409354,1546.44953895 430.376524914,1546.51975007 430.409483487,1538.26694643 428.006620245,1538.20257757 427.717884222,1530.21145668 " moovel_rot="-36.1" moovel_centroid="436.882596782,1542.3576733"/>
  <polygon id="51215020" class="tile" points="486.956780931,1583.69279678 486.952526394,1576.06015297 486.919014608,1530.21145668 446.135788056,1530.21191391 446.184431668,1583.69160897 486.956780931,1583.69279678 " moovel_rot="81.4" moovel_centroid="466.549391284,1556.95084382"/>
  <polygon id="138265430" class="tile" points="487.956780931,1552.75856463 487.966739205,1530.22615818 498.249930327,1530.21145668 498.237314033,1552.74999066 487.956780931,1552.75856463 " moovel_rot="-66.7" moovel_centroid="493.102924227,1541.48605735"/>
  <polygon id="193315141" class="tile" points="499.31146911,1530.21145668 529.139912947,1530.41970189 529.245613982,1586.0772856 520.015303189,1586.00189528 519.441102598,1612.75849254 499.249930327,1612.69417564 499.31146911,1530.21145668 " moovel_rot="0.4" moovel_centroid="513.063926034,1568.35297437"/>
  <polygon id="312249566" class="tile" points="530.245613982,1548.92826651 544.825162115,1549.44441532 544.812246561,1530.56115434 539.999681142,1530.38324664 533.545378945,1530.23401822 532.504406392,1530.21145668 531.267685862,1530.23479747 530.245613982,1548.92826651 " moovel_rot="-91.7" moovel_centroid="537.793501484,1539.88588891"/>
  <polygon id="133039335" class="tile" points="545.825162115,1539.72158722 551.423138169,1539.55413081 551.403128566,1530.22772645 545.831664259,1530.21145668 545.825162115,1539.72158722 " moovel_rot="-61.1" moovel_centroid="548.611715156,1534.93259228"/>
  <polygon id="221141597" class="tile" points="562.541825292,1671.49536348 570.393738355,1673.61038053 574.319994785,1660.92803846 576.039403981,1661.29892185 583.564715057,1631.08907108 580.690592524,1630.41589455 581.30845401,1627.81923822 562.711027455,1623.01496115 568.793606612,1597.174827 587.727912842,1602.14309966 590.638137054,1590.47643331 592.001107037,1585.81168392 582.523893003,1583.41254847 591.958440796,1540.69063256 578.93788752,1537.01871188 570.930661214,1579.56182495 567.126068012,1577.97812566 567.909675161,1533.20104067 554.214417533,1530.21145668 552.423138169,1575.53224588 556.978071039,1593.49316765 562.541825292,1671.49536348 " moovel_rot="22.6" moovel_centroid="569.804483544,1592.99714748"/>
  <polygon id="85260490" class="tile" points="0.0400684934109,1732.1624323 0.0,1841.00807945 55.2090436025,1843.15734652 65.9709362777,1827.63490634 66.4255148792,1814.75456171 45.9182425233,1778.47424248 36.0572705409,1761.03069082 28.8122756652,1751.91098301 23.143972604,1744.774443 8.19300920125,1736.02197601 0.0400684934109,1732.1624323 " moovel_rot="5.2" moovel_centroid="26.711102398894017,1798.27507503"/>
  <polygon id="286457208" class="tile" points="68.4538807605,1761.86662457 84.3850212379,1761.91990908 84.2847320515,1744.31160273 80.6931650273,1744.3207473 80.5453612636,1736.47742455 84.7393703693,1736.44787082 84.7180936496,1732.20614284 68.4255148792,1732.1624323 68.4538807605,1761.86662457 " moovel_rot="-89.4" moovel_centroid="76.0188623398,1747.42979056"/>
  <polygon id="291847410" class="tile" points="100.370084556,1740.69906414 100.366446448,1732.1624323 85.7393703693,1732.20851662 85.7421723752,1740.01499106 85.7520119092,1752.01156049 100.379071187,1751.96545296 100.370084556,1740.69906414 " moovel_rot="-35.9" moovel_centroid="93.0582271546,1742.08696783"/>
  <polygon id="33817627" class="tile" points="103.678629539,1874.24402211 101.379071187,1879.20003063 118.738789416,1885.17425326 129.484689445,1863.29172561 135.260304898,1846.98623438 138.762707219,1824.2294055 133.301213318,1824.07869501 135.629013451,1807.99953651 133.165199229,1785.80846007 129.219608996,1762.00401285 116.822723635,1732.1624323 101.524545165,1739.13106798 115.4279444,1772.57085672 118.766122616,1795.38791817 120.039247885,1815.12303287 117.485172906,1834.26048977 113.164453419,1849.45170877 103.678629539,1874.24402211 " moovel_rot="35.6" moovel_centroid="121.713588711,1812.14476203"/>
  <polygon id="199611931" class="tile" points="139.788801346,1756.19769216 139.762707219,1732.1624323 153.15194329,1732.16821431 158.265316171,1734.26146127 158.16609072,1756.63755124 139.788801346,1756.19769216 " moovel_rot="12.0" moovel_centroid="148.934192971,1744.41597627"/>
  <polygon id="284961798" class="tile" points="211.86751402,1765.83084683 205.358364075,1749.96622456 204.02083444,1747.1065425 202.097871468,1742.01356768 199.021711897,1734.96846137 173.557166394,1732.1624323 172.025514466,1744.66909096 171.301604876,1750.60210885 166.249308057,1749.66281997 161.713225685,1781.90228509 159.810393748,1797.52342251 159.265316171,1800.48499252 211.871573619,1805.77166792 211.86751402,1765.83084683 " moovel_rot="-55.3" moovel_centroid="187.141537369,1772.02904123"/>
  <polygon id="435776220" class="tile" points="216.288404184,1970.46503242 217.952703912,1968.38718388 218.352038524,1967.17478079 216.64757107,1869.53707219 215.353774636,1804.35411109 214.893015915,1772.13002671 218.693899876,1735.72345907 216.907334975,1732.1624323 212.871573619,1771.20835804 216.288404184,1970.46503242 " moovel_rot="-69.8" moovel_centroid="215.658463343,1852.2558622"/>
  <polygon id="435776214" class="tile" points="221.838952686,1732.1624323 221.75173111,1846.04338072 219.693899876,1844.0850403 219.758409895,1734.41367126 221.838952686,1732.1624323 " moovel_rot="-69.1" moovel_centroid="220.767300826,1789.0862906"/>
  <polygon id="385516865" class="tile" points="227.097463991,1732.16421873 227.096399747,1745.75545982 222.838952686,1745.75367529 222.840016618,1732.1624323 227.097463991,1732.16421873 " moovel_rot="-9.3" moovel_centroid="224.968208211,1738.95894645"/>
  <polygon id="68695339" class="tile" points="228.119526736,1732.1624323 228.509370824,1742.09691484 228.690103496,1746.11403643 228.858850721,1749.58095253 229.449830646,1762.12774489 228.10134195,1762.486791 228.097463991,1769.54948726 228.178621244,1774.40803504 234.41125673,1773.73923154 238.475653061,1772.8484183 238.37258667,1768.65409656 242.102493737,1768.7935576 243.609612413,1762.87934158 246.811022092,1762.49472777 246.652875128,1758.28310022 245.950052946,1738.3215496 242.575131689,1738.43416777 242.414065372,1733.80780326 228.119526736,1732.1624323 " moovel_rot="39.7" moovel_centroid="236.650324095,1752.52199967"/>
  <polygon id="265649770" class="tile" points="247.811022092,1821.66298978 248.078986377,1802.27281222 248.795856714,1750.73715891 249.049318495,1732.34646753 269.947410637,1732.1624323 269.979221124,1812.91542907 270.041753005,1822.27635532 259.405588705,1821.98847059 247.811022092,1821.66298978 " moovel_rot="-3.0" moovel_centroid="259.212000499,1777.56385556"/>
  <polygon id="387212522" class="tile" points="275.915613669,1739.90466712 271.043291458,1739.90197287 271.041753005,1732.1624323 275.91407558,1732.16512491 275.915613669,1739.90466712 " moovel_rot="12.6" moovel_centroid="273.478683513,1736.03354925"/>
  <polygon id="141520975" class="tile" points="277.465024549,2032.44961589 276.915613669,2104.21470263 282.69368593,2104.6998775 282.876670941,2075.20223413 297.563438787,2075.13997793 296.641322612,1971.26945359 296.987232699,1918.13796824 296.946914758,1790.61635444 284.785870568,1790.88627903 285.207516271,1732.72200554 279.962457069,1732.1624323 277.0323242,1883.89181583 277.465024549,2032.44961589 " moovel_rot="-54.9" moovel_centroid="286.753408978,1929.48793983"/>
  <polygon id="60827388" class="tile" points="314.981445041,1773.08156523 298.563438787,1773.06819183 298.589272078,1732.1624323 315.013938631,1732.17630754 314.981445041,1773.08156523 " moovel_rot="4.4" moovel_centroid="306.787008016,1752.62074157"/>
  <polygon id="289597989" class="tile" points="326.249494772,1732.2465319 328.465802619,1732.1624323 329.162884046,1754.84049513 316.013938631,1755.0882449 316.042642333,1732.53185714 326.249494772,1732.2465319 " moovel_rot="65.9" moovel_centroid="322.428996292,1743.76675699"/>
  <polygon id="191281946" class="tile" points="351.427095245,1772.671595 351.088354696,1732.1624323 330.162884046,1732.83702841 330.162884046,1773.00555347 351.427095245,1772.671595 " moovel_rot="-90" moovel_centroid="340.725725986,1752.72253575"/>
  <polygon id="15240407" class="tile" points="381.757351062,1768.62740262 381.728312771,1732.1624323 352.427095245,1732.17614371 352.452176938,1768.65332681 368.160274832,1768.64693636 381.757351062,1768.62740262 " moovel_rot="-13.4" moovel_centroid="367.090454455,1750.40711468"/>
  <polygon id="28026913" class="tile" points="382.761267305,1732.19955067 382.757351062,1757.47960846 401.265262465,1757.4347766 401.277028018,1732.1624323 382.761267305,1732.19955067 " moovel_rot="-45.5" moovel_centroid="392.01475566,1744.81819965"/>
  <polygon id="219917210" class="tile" points="465.204644595,1735.79139503 464.568426156,1753.10927082 463.318683683,1753.06303159 462.831286066,1766.16954172 462.762506501,1767.23184692 462.667086586,1769.74385362 465.242503191,1769.84825704 463.377363418,1808.39486101 457.803614672,1818.04873594 452.761248419,1815.41650139 457.680002813,1806.38094909 427.564484159,1789.89390481 433.691970774,1777.26346139 430.247526053,1775.06099769 402.277028018,1759.75308832 417.294185852,1732.1624323 439.47259081,1745.17034258 439.27625689,1751.26659487 447.004797575,1751.52824986 447.205625386,1745.30000548 450.831038656,1744.88273227 450.739273656,1735.31999192 465.204644595,1735.79139503 " moovel_rot="67.5" moovel_centroid="441.224277671,1767.36702617"/>
  <polygon id="441045982" class="tile" points="467.694446773,1830.09685023 466.242503191,1732.86842703 503.902502242,1732.1624323 503.861844878,1808.45119459 480.506231701,1808.42814216 481.294678129,1829.15526292 467.694446773,1830.09685023 " moovel_rot="-14.6" moovel_centroid="484.34686082,1774.74348697"/>
  <polygon id="28251240" class="tile" points="505.13035874,1843.39091214 504.902502242,1732.37638322 525.158297932,1732.1624323 524.993221931,1843.91590123 505.13035874,1843.39091214 " moovel_rot="-87.6" moovel_centroid="515.057179431,1787.77957619"/>
  <polygon id="124018650" class="tile" points="526.158297932,2029.0141114 531.835428141,2033.3450489 531.970692785,1738.17430908 526.461944078,1732.1624323 526.158297932,2029.0141114 " moovel_rot="-77.2" moovel_centroid="529.103154758,1883.90794688"/>
  <polygon id="305248553" class="tile" points="536.843526497,1779.26269922 532.970692785,1779.8119168 538.555184506,1802.5010592 538.354815045,1802.48600894 543.422084531,1821.78020267 543.630114239,1821.72800625 547.243257965,1822.05627981 550.933714125,1822.39254772 551.86921991,1826.19739879 560.586296866,1826.92872527 561.394868525,1823.38833116 557.132878746,1820.7731992 557.324524262,1817.56495702 561.274802742,1752.50317359 561.322423961,1751.73226737 561.468763541,1749.04569507 557.018547698,1742.83717088 549.614514075,1732.1624323 548.249828481,1733.08819559 543.297302973,1736.44859354 542.927254788,1736.71177628 540.616985982,1764.24024443 536.843526497,1779.26269922 " moovel_rot="-74.2" moovel_centroid="549.23221175,1780.37171292"/>
  <polygon id="271992627" class="tile" points="576.60012858,1753.0876931 562.468763541,1753.10998417 562.483090949,1732.1847087 576.614479451,1732.1624323 576.60012858,1753.0876931 " moovel_rot="-58.0" moovel_centroid="569.541614805,1742.63620167"/>
  <polygon id="104671744" class="tile" points="0.0,2188.56879816 2.86929068975,2115.73625766 9.60881530065,2110.29305427 35.4693181766,2107.05804805 54.3679227409,2104.6998775 54.4953467667,2190.67429557 0.0,2188.56879816 " moovel_rot="-5.3" moovel_centroid="28.519498075930773,2149.30212317"/>
  <polygon id="113608418" class="tile" points="58.9656076085,2104.6998775 73.2347153381,2105.50933063 73.2537966986,2138.10455166 56.4953467667,2137.25980508 58.9656076085,2104.6998775 " moovel_rot="-10.1" moovel_centroid="65.4671440805,2121.82816211"/>
  <polygon id="392319333" class="tile" points="94.7937678382,2107.72113621 93.5868559558,2107.11718401 78.2617143208,2104.6998775 74.2537966986,2129.56440357 91.4857344558,2134.84165152 94.8054011636,2132.10765877 91.4476157221,2126.72893752 94.7937678382,2107.72113621 " moovel_rot="-25.2" moovel_centroid="84.8114003631,2119.50776281"/>
  <polygon id="23209855" class="tile" points="95.8539380866,2104.6998775 103.407475122,2104.72489703 110.458084025,2104.74886683 110.453952865,2116.77419448 105.722953437,2116.76406273 105.701789854,2136.48619077 111.012205105,2136.49549895 110.988911593,2158.57238654 95.8054011636,2158.52416816 95.8539380866,2104.6998775 " moovel_rot="44.3" moovel_centroid="102.616954836,2132.58446751"/>
  <polygon id="152727674" class="tile" points="112.667729445,2104.6998775 124.184034406,2104.78020648 124.185962697,2117.97461836 115.895001973,2117.95761821 115.896600356,2123.63336546 112.012205105,2123.62556563 112.013349234,2114.2159498 112.667729445,2104.6998775 " moovel_rot="24.9" moovel_centroid="117.688777953,2112.56722119"/>
  <polygon id="36796277" class="tile" points="144.343201254,2104.6998775 153.800009049,2116.94856726 177.740357278,2110.8971672 189.06271173,2134.5582151 183.04150903,2139.45210143 145.402228755,2217.72811342 132.177139534,2191.89054111 136.911857955,2189.54047772 125.185962697,2165.84678697 147.713606307,2155.07667076 151.040937256,2162.34866247 169.01954657,2154.40871773 170.483844481,2150.30980895 157.009814272,2122.85005693 136.792524012,2132.25994593 137.76527997,2134.34932035 125.198348608,2120.58663555 129.644787611,2117.04374105 134.311998388,2113.33445109 144.343201254,2104.6998775 " moovel_rot="71.3" moovel_centroid="154.403089018,2154.84847947"/>
  <polygon id="57121165" class="tile" points="190.081526079,2131.41333896 207.864177634,2131.38045591 208.241304573,2115.31261272 203.606639672,2115.20633193 203.849048449,2104.6998775 190.06271173,2104.74039053 190.081526079,2131.41333896 " moovel_rot="-82.4" moovel_centroid="198.344822907,2118.87933935"/>
  <polygon id="235326980" class="tile" points="215.067876369,2104.6998775 228.249279429,2104.71921536 228.257224447,2111.97601049 228.256808023,2114.49011127 225.351994139,2114.48396536 225.358497798,2126.65321066 209.250820682,2126.62001022 209.241304573,2109.5333373 215.076139692,2109.5410615 215.067876369,2104.6998775 " moovel_rot="48.3" moovel_centroid="218.473172271,2115.86597809"/>
  <polygon id="309059738" class="tile" points="241.891707095,2104.71881559 241.873403546,2146.09139997 229.257224447,2146.07901671 229.274245067,2104.6998775 241.891707095,2104.71881559 " moovel_rot="79.1" moovel_centroid="235.573978664,2125.39692587"/>
  <polygon id="56647268" class="tile" points="243.317155345,2172.08620718 242.891707095,2105.18718464 253.332969903,2104.6998775 253.242286826,2170.99243359 243.317155345,2172.08620718 " moovel_rot="38.5" moovel_centroid="248.187088152,2137.96166882"/>
  <polygon id="48848043" class="tile" points="255.855828473,2121.40502249 260.764770177,2121.03667495 260.95307074,2119.28808416 278.114910307,2112.53895456 278.47683138,2108.30821256 287.751955991,2104.6998775 287.927926289,2109.8286137 300.214176506,2108.87367725 300.362402368,2114.62985434 306.059107667,2114.62306785 306.404427248,2154.41493039 312.881532271,2154.12327062 313.155470621,2164.96841997 304.937256517,2164.87987685 290.092107683,2164.9749401 290.110426927,2168.62536022 259.294648526,2168.82226216 254.332969903,2169.04150277 254.348116939,2150.70363295 260.456954279,2144.50980941 255.96545598,2142.82519367 255.855828473,2121.40502249 " moovel_rot="-4.8" moovel_centroid="282.046289288,2140.70961391"/>
  <polygon id="245181341" class="tile" points="314.155470621,2127.52242167 314.201952857,2104.6998775 322.652077576,2104.70523974 322.660245838,2127.53432966 314.155470621,2127.52242167 " moovel_rot="-76.2" moovel_centroid="318.417627297,2116.12773093"/>
  <polygon id="205032452" class="tile" points="323.660245838,2104.6998775 323.705067388,2235.18899779 359.362136534,2236.81205783 364.424105034,2168.59005023 370.120359752,2169.26838478 374.189243487,2108.68118833 323.660245838,2104.6998775 " moovel_rot="17.1" moovel_centroid="345.488297643,2166.89815265"/>
  <polygon id="337366536" class="tile" points="414.912425221,2104.6998775 405.415857257,2105.26175104 406.433356223,2123.57037653 375.189243487,2125.24138825 376.24096878,2142.00506304 402.875696948,2140.57681125 402.015450792,2150.02449621 396.836896899,2149.54470711 395.241286034,2157.59748566 399.627793492,2158.51274825 392.459692967,2175.31839732 404.001732239,2180.50184688 408.518163287,2170.70576879 406.851013702,2169.76267222 409.827934693,2163.91197589 406.396595111,2162.63160438 408.322388933,2157.08401315 412.009869518,2158.42022966 415.494275159,2143.68275556 414.815244822,2126.00709625 409.802045954,2126.17778933 409.66582662,2120.3700046 415.48702923,2120.17921848 414.912425221,2104.6998775 " moovel_rot="-2.2" moovel_centroid="400.33828386,2140.43643403"/>
  <polygon id="71283381" class="tile" points="416.570717259,2208.49526204 431.794385401,2208.28672657 431.713977804,2104.71174068 416.494275159,2104.6998775 416.498434047,2109.81913301 416.570717259,2208.49526204 " moovel_rot="20.5" moovel_centroid="424.140742066,2156.55096342"/>
  <polygon id="380426999" class="tile" points="446.991778652,2117.0045764 446.960194317,2109.85447003 446.384860002,2109.82959016 446.344713827,2104.6998775 432.824201834,2104.71875979 432.794385401,2128.11535059 446.460428546,2128.04263456 446.430181261,2122.83292883 447.035561241,2122.82911927 447.016829827,2120.2386584 446.991778652,2117.0045764 " moovel_rot="-28.4" moovel_centroid="439.771208168,2116.41237985"/>
  <polygon id="386453348" class="tile" points="448.035561241,2104.72808956 464.171841333,2104.6998775 464.179347621,2142.47933405 448.043084179,2142.50758712 448.035561241,2104.72808956 " moovel_rot="-22.1" moovel_centroid="456.107457132,2123.60371881"/>
  <polygon id="390545065" class="tile" points="480.387122112,2105.10152448 465.751119743,2104.6998775 465.179347621,2130.24410906 480.430053707,2130.6675856 480.387122112,2105.10152448 " moovel_rot="64.9" moovel_centroid="472.936240984,2117.76589003"/>
  <polygon id="27439433" class="tile" points="491.829812012,2250.77375035 481.430053707,2250.77257153 481.430226082,2104.6998775 491.830106172,2104.70097632 491.829812012,2250.77375035 " moovel_rot="56.7" moovel_centroid="486.630049968,2177.73665138"/>
  <polygon id="133039333" class="tile" points="492.838033336,2104.72294513 503.220444237,2104.6998775 503.218800525,2127.35596375 492.830106172,2127.36788999 492.838033336,2104.72294513 " moovel_rot="-60.9" moovel_centroid="498.027271936,2116.0378108"/>
  <polygon id="28504040" class="tile" points="516.470448234,2110.58130414 517.769452639,2109.74291666 515.579372264,2106.3457819 514.426892637,2107.08667786 512.878828965,2104.6998775 504.220444237,2110.28587152 509.240790551,2118.13854163 509.832851737,2117.75158636 513.365327566,2123.11310755 512.433498712,2126.23179426 513.189151715,2126.45424602 510.899426847,2134.14245119 510.143773948,2133.91999922 507.236394216,2143.66052099 507.99204698,2143.88297322 505.701303815,2151.55838056 504.945651157,2151.33592812 504.266191645,2153.6142931 515.664952821,2157.10589857 516.375025195,2154.78174413 518.599219543,2155.41524936 520.873566432,2147.89081081 518.47258298,2147.19250462 519.163285306,2144.69930441 517.732349157,2144.25824644 519.374477512,2138.88902421 520.805413792,2139.33008193 521.5645641,2136.83470114 520.134659336,2136.40641509 521.871041165,2130.7172793 523.289477986,2131.28677771 525.647698451,2131.95123054 527.681516147,2124.91777257 527.669592684,2124.9117496 521.022072588,2114.75482198 519.712176654,2115.59995731 516.470448234,2110.58130414 " moovel_rot="26.8" moovel_centroid="515.172831791,2131.22189181"/>
  <polygon id="25130684" class="tile" points="528.954700276,2150.4677495 528.681742332,2137.96720417 528.681516147,2104.6998775 570.724650718,2105.24192755 570.000585082,2150.97376511 528.954700276,2150.4677495 " moovel_rot="-91.0" moovel_centroid="549.539449985,2127.76211964"/>
  <polygon id="129804504" class="tile" points="575.434090216,2128.43352241 571.75604636,2123.23615367 571.724650718,2104.6998775 583.530542326,2105.19813928 583.089708169,2122.23001001 575.434090216,2128.43352241 " moovel_rot="-40.1" moovel_centroid="577.353494343,2115.2135486"/>
  <polygon id="326740877" class="tile" points="0.0,2274.74968281 0.184326085635,2251.27851797 11.1829883549,2250.90461262 15.1090832021,2250.77375035 15.1160572065,2275.16223977 0.0,2274.74968281 " moovel_rot="-53.3" moovel_centroid="7.650331592857183,2263.01626955"/>
  <polygon id="113476912" class="tile" points="17.1160572065,2420.90205194 17.1932040935,2318.46313906 17.2577613408,2250.77375035 27.0476486566,2250.78027836 39.6956271011,2250.78866784 39.5540410656,2420.92364756 17.1160572065,2420.90205194 " moovel_rot="-90.9" moovel_centroid="28.4039015501,2335.84605568"/>
  <polygon id="231887170" class="tile" points="40.7589569712,2274.94842327 45.5290988786,2278.90483001 50.9437823983,2279.1651421 51.4225374151,2251.00389489 40.6956271011,2250.77375035 40.700559132,2254.56617436 40.7589569712,2274.94842327 " moovel_rot="66.5" moovel_centroid="46.0789048984,2264.38383489"/>
  <polygon id="24856367" class="tile" points="58.0847298311,2346.00169966 66.8786397747,2346.08800528 74.6151466278,2346.31235777 73.5358364144,2314.95129723 69.7633350659,2315.20445262 69.0680598439,2298.68643427 73.1645165766,2298.37633097 72.8892243234,2290.31299167 101.824560866,2289.0924268 100.317470954,2250.77928139 95.7463357892,2251.89362249 92.7326662274,2250.77375035 59.9238854438,2259.1204074 52.4625128915,2264.36714109 52.4225374151,2304.87745134 56.188027513,2304.79681481 58.0847298311,2346.00169966 " moovel_rot="-15.7" moovel_centroid="73.1454910762,2288.61236336"/>
  <polygon id="81246312" class="tile" points="102.824560866,2290.63688853 134.258134707,2289.15286618 132.802216759,2250.77375035 102.830349976,2253.22716167 102.824560866,2290.63688853 " moovel_rot="-34.3" moovel_centroid="118.253343851,2271.09132109"/>
  <polygon id="381646510" class="tile" points="137.083355865,2279.81245716 135.258134707,2291.06937394 147.086690245,2300.90393017 154.366504633,2307.33539979 154.562177833,2306.53827538 155.367687885,2307.62475371 156.400185016,2303.10072255 156.646727265,2302.79416258 156.934319423,2302.51275388 157.283887649,2302.2657567 157.661234237,2302.06248845 158.063951933,2301.92284152 158.470312157,2301.84418647 158.858586335,2301.82389383 159.243650824,2301.83012437 162.411523463,2303.1621126 162.44652354,2303.14616438 160.994151773,2301.30188956 160.260986698,2299.98196163 159.730104046,2298.35684559 159.567371709,2296.69554587 159.62699311,2295.74739944 162.419416483,2275.04045702 153.346311831,2267.57789986 150.192578695,2267.58647426 145.71434357,2263.23655839 146.064774218,2256.24158457 144.886242746,2256.23352454 141.704724749,2256.19836922 141.688746053,2250.77375035 138.772847832,2250.9120244 137.083355865,2279.81245716 " moovel_rot="-83.1" moovel_centroid="148.383546535,2281.78904299"/>
  <polygon id="243580880" class="tile" points="163.486628146,2250.77375035 163.44652354,2276.79143501 173.270024004,2277.481018 173.234869823,2252.8318903 163.486628146,2250.77375035 " moovel_rot="6.5" moovel_centroid="168.315116067,2264.47949747"/>
  <polygon id="72123312" class="tile" points="174.276661052,2296.24457066 174.270024004,2250.77375035 197.599496434,2250.96655916 197.595209243,2296.43720785 174.276661052,2296.24457066 " moovel_rot="-89.1" moovel_centroid="185.93534416,2273.60374722"/>
  <polygon id="40571024" class="tile" points="216.496373093,2287.94400963 202.314955638,2287.0004794 203.705249008,2268.32949165 198.601520194,2267.7479952 198.599496434,2250.77375035 212.786632033,2252.3431136 219.002289402,2253.20591309 216.496373093,2287.94400963 " moovel_rot="-83.5" moovel_centroid="209.169944156,2268.16541491"/>
  <polygon id="31612528" class="tile" points="220.164868748,2292.3593138 220.002289402,2255.93710578 235.679653283,2254.60250963 241.021782002,2250.77375035 251.112570486,2252.67414174 252.246521215,2261.95893729 259.61125825,2261.15310353 257.376070749,2273.11081568 253.660212264,2273.83854894 250.354172485,2278.34730792 248.121713897,2287.07842906 240.820054809,2286.93245908 241.036298611,2292.04104588 220.164868748,2292.3593138 " moovel_rot="58.8" moovel_centroid="236.799143076,2271.56472568"/>
  <polygon id="79086814" class="tile" points="291.516736647,2286.6674914 294.797373229,2287.29837837 293.65963897,2294.86801296 286.610253428,2293.59981394 287.567825709,2288.44466472 260.61125825,2283.39535588 262.194756772,2274.61957462 265.439495301,2257.92684199 266.829915464,2250.77375035 282.381969759,2253.84439274 289.345284988,2262.19262262 294.782910141,2268.72015174 292.689400787,2280.2341406 291.516736647,2286.6674914 " moovel_rot="-79.0" moovel_centroid="278.219700967,2271.94360948"/>
  <polygon id="395574466" class="tile" points="295.797373229,2275.23406775 295.809780412,2250.77375035 312.511792277,2250.78749683 312.488481867,2275.2484429 295.797373229,2275.23406775 " moovel_rot="-93.3" moovel_centroid="304.151894201,2263.00960843"/>
  <polygon id="24921011" class="tile" points="324.625963581,2250.77375035 313.513857853,2250.99084593 313.511792277,2272.08434792 324.903747809,2271.91363602 324.625963581,2250.77375035 " moovel_rot="84.4" moovel_centroid="319.14139928,2261.4843198"/>
  <polygon id="229733063" class="tile" points="325.908888185,2369.71465925 350.9942313,2378.51804267 395.687208655,2322.94526543 386.252788473,2312.92261779 378.229732264,2308.58844232 360.679825288,2275.31024127 375.280388645,2284.38190902 382.477937852,2272.20985198 356.993640472,2255.20426682 357.681038512,2253.02745 356.948835713,2250.77375035 343.077919409,2254.51750789 350.841603844,2278.20216853 354.893424707,2276.99685933 368.787652959,2305.5820964 325.903747809,2293.97531397 325.908888185,2369.71465925 " moovel_rot="-86.9" moovel_centroid="354.344329531,2322.8806133"/>
  <polygon id="211681403" class="tile" points="396.687208655,2250.78206281 401.05947524,2250.77375035 401.067132411,2269.44193173 396.69197535,2269.45626553 396.687208655,2250.78206281 " moovel_rot="-64.3" moovel_centroid="398.876330862,2260.1145319"/>
  <polygon id="43887834" class="tile" points="413.549654738,2261.05314182 417.323256007,2297.26632003 405.830753826,2298.67818098 402.067132411,2262.34627681 408.095542079,2261.74900375 408.658313895,2260.40880808 409.29880068,2259.112155 410.473315551,2257.15417629 411.780052999,2255.38328421 413.32755925,2253.65971368 415.355727472,2251.85796459 416.85438711,2250.77375035 417.323891366,2254.42693396 415.744748517,2255.75703974 414.354361157,2257.23245435 413.513718491,2258.30678348 412.535856494,2259.79579798 411.674093865,2261.46569054 411.69129609,2261.51770526 413.549654738,2261.05314182 " moovel_rot="-18.3" moovel_centroid="409.958192851,2278.00378184"/>
  <polygon id="381816852" class="tile" points="419.696942765,2330.63756529 419.294904449,2333.36367291 418.323891366,2293.6458135 418.47897585,2276.79660548 419.378694776,2250.77375035 419.801292873,2251.87781707 424.140432921,2252.14211548 423.472654379,2272.89920117 423.711595769,2294.0831366 424.197064579,2330.58699515 419.696942765,2330.63756529 " moovel_rot="-92.6" moovel_centroid="421.26768049,2291.79606702"/>
  <polygon id="317659584" class="tile" points="474.007244735,2250.85064151 474.007546452,2310.32374598 425.197064579,2310.25630643 425.2052203,2250.77375035 474.007244735,2250.85064151 " moovel_rot="73.6" moovel_centroid="449.603621789,2280.55196894"/>
  <polygon id="137261856" class="tile" points="475.007546452,2268.18919976 475.127895954,2250.95068352 489.967087812,2250.77375035 489.986919711,2268.29377722 475.007546452,2268.18919976 " moovel_rot="-89.6" moovel_centroid="482.542472464,2259.56550008"/>
  <polygon id="122678799" class="tile" points="490.986919711,2251.44577905 505.924468449,2250.77375035 505.898188731,2275.2536864 491.898038047,2275.2512375 490.986919711,2251.44577905 " moovel_rot="-90.4" moovel_centroid="498.707072441,2263.04835155"/>
  <polygon id="180403457" class="tile" points="511.915671337,2295.2620388 513.608339837,2316.83528149 509.914988408,2317.48321627 508.428067615,2309.37195581 507.279658272,2300.4312573 506.924468449,2288.04187454 508.013328524,2250.77375035 513.647201236,2250.88439039 511.915671337,2295.2620388 " moovel_rot="56.2" moovel_centroid="510.19303005,2282.46282068"/>
  <polygon id="402756475" class="tile" points="530.260768345,2250.77375035 514.669901198,2255.56354988 514.647201236,2308.79240969 543.492094143,2300.50882731 530.260768345,2250.77375035 " moovel_rot="-15.5" moovel_centroid="526.108623355,2281.45510244"/>
  <polygon id="27689818" class="tile" points="545.350493853,2250.77375035 544.492094143,2282.23258793 555.704064789,2282.5000306 566.632720083,2289.64509881 566.631989907,2251.72745311 545.350493853,2250.77375035 " moovel_rot="49.3" moovel_centroid="556.12931305,2267.91994959"/>
  <polygon id="43887825" class="tile" points="582.879785799,2252.04613226 571.418807654,2250.77375035 567.632720083,2287.18582478 573.761141423,2287.53480994 574.710422351,2289.34676884 575.766965578,2291.03644059 576.752459442,2292.3922908 577.972869646,2293.86512186 579.86011551,2295.77032718 582.465756687,2297.8485367 582.888903215,2294.25086701 580.929494466,2292.54118893 579.846508965,2291.39473329 578.968225627,2290.33557129 578.146546968,2289.18185575 577.432290323,2288.02711609 579.312256055,2288.06983075 582.879785799,2252.04613226 " moovel_rot="-6.4" moovel_centroid="575.552426427,2271.2172762"/>
  <polygon id="230101625" class="tile" points="18.4405305776,2490.99714904 0.576324309222,2490.92003717 0.0,2429.68824392 0.250461023021,2420.92364756 13.2854374875,2421.28882607 18.5015049563,2421.42811405 18.4405305776,2490.99714904 " moovel_rot="-5.1" moovel_centroid="9.359355384114467,2455.87364699"/>
  <polygon id="60193516" class="tile" points="60.0966459122,2422.83590231 21.0507454527,2420.92364756 20.5015049563,2478.04751668 29.5251139903,2477.98952017 30.1702954446,2548.45265956 60.154414413,2548.24763663 60.0269241582,2533.97034562 59.516045816,2478.63211392 60.0966459122,2422.83590231 " moovel_rot="42.2" moovel_centroid="42.4631248005,2480.95449609"/>
  <polygon id="301172748" class="tile" points="72.1842716175,2423.67257765 72.1843020377,2421.76750508 81.5171063463,2420.92364756 81.4370723664,2525.29823595 74.4431891394,2525.17250262 74.4889196844,2534.06426718 74.5013428261,2537.10426622 61.7132958622,2537.19473364 61.154414413,2423.74584091 72.1842716175,2423.67257765 " moovel_rot="-59.2" moovel_centroid="71.2648857128,2477.63679275"/>
  <polygon id="69678197" class="tile" points="82.5194765203,2454.31121709 99.7452867671,2443.34579923 82.5171063463,2420.92364756 82.5194765203,2454.31121709 " moovel_rot="-47.7" moovel_centroid="88.2606232112,2439.52688796"/>
  <polygon id="103260498" class="tile" points="100.745286767,2500.61721436 117.086307044,2500.87500333 117.001397867,2420.92364756 108.442871013,2421.02996793 100.924402647,2421.13318648 100.745286767,2500.61721436 " moovel_rot="71.1" moovel_centroid="108.947191272,2460.99429695"/>
  <polygon id="400484708" class="tile" points="122.015678785,2604.0392285 122.135440217,2420.93643567 118.203452419,2420.92364756 118.086307044,2604.03258615 122.015678785,2604.0392285 " moovel_rot="67.4" moovel_centroid="120.110215214,2512.47280355"/>
  <polygon id="280695886" class="tile" points="124.275310882,2651.58809851 128.041055149,2651.92393718 129.403812336,2647.71110654 132.955133387,2436.49704907 130.807377059,2436.22692822 130.822950253,2428.86092184 123.135440217,2420.92364756 123.272231055,2429.04275231 124.974612733,2429.75538656 126.362245304,2432.50450197 127.269840177,2433.8580368 127.755493466,2435.99980349 125.63548505,2436.29788918 123.242674888,2647.3754234 124.275310882,2651.58809851 " moovel_rot="20" moovel_centroid="127.800874936,2535.80100983"/>
  <polygon id="41292661" class="tile" points="194.949137374,2468.04363688 163.459944316,2468.03942621 163.456791341,2472.96227703 154.123770902,2472.95982273 154.124296096,2491.81614648 149.17883875,2491.82118033 149.17967235,2497.12472294 144.912572829,2497.12933232 144.918424332,2468.43398572 133.955133387,2468.43524512 133.960880843,2420.92364756 190.024530736,2420.93100761 190.026693725,2426.36144747 194.950297942,2426.36332201 194.985802973,2455.87313887 194.949137374,2468.04363688 " moovel_rot="-90.6" moovel_centroid="162.93752089,2447.90951412"/>
  <polygon id="41535061" class="tile" points="196.067843828,2420.92364756 206.848052169,2420.95491721 206.769034349,2521.30254543 195.985802973,2521.28174933 196.067843828,2420.92364756 " moovel_rot="16.1" moovel_centroid="201.417587617,2471.11805292"/>
  <polygon id="387407643" class="tile" points="241.908144625,2421.3080704 241.865328019,2440.59271591 241.881756089,2453.26649067 241.851207319,2462.45198234 207.855085378,2462.36204192 207.848052169,2420.92364756 241.908144625,2421.3080704 " moovel_rot="73.6" moovel_centroid="224.844670771,2441.75686154"/>
  <polygon id="359236162" class="tile" points="242.920324301,2446.0393743 245.997486854,2446.04040382 245.985890713,2420.92364756 242.908144625,2420.92927167 242.920324301,2446.0393743 " moovel_rot="-85.0" moovel_centroid="244.453029376,2433.48277532"/>
  <polygon id="444929790" class="tile" points="247.288778763,2421.60948797 268.650801497,2420.92364756 268.712363929,2479.11551681 246.997486854,2478.99895712 247.288778763,2421.60948797 " moovel_rot="29.4" moovel_centroid="257.937266776,2450.24082624"/>
  <polygon id="113826184" class="tile" points="269.712363929,2446.97262836 290.589089893,2446.97572138 290.581813148,2420.92364756 269.713199362,2420.92780767 269.712363929,2446.97262836 " moovel_rot="-48.2" moovel_centroid="280.14960103,2433.95079479"/>
  <polygon id="10632316" class="tile" points="291.589089893,2421.00529599 328.935487356,2420.92364756 328.63578918,2456.23247117 332.886618299,2456.24391507 332.809995997,2494.77784266 332.552957064,2552.07356699 291.614396013,2551.62914837 291.589089893,2421.00529599 " moovel_rot="4.0" moovel_centroid="311.693641895,2487.61935701"/>
</svg>