<svg xmlns="http://www.w3.org/2000/svg" version="1.1" width="592.5px" height="1200px">
  <polygon id="13" class="bin" points="1.875,0.0 -0.77665042945,1.09834957055 -1.875,3.75 -1.875,1203.749999 -0.77665042945,1206.40164943 1.875,1207.499999 256.471910058,1207.499999 259.127234247,1206.39797057 260.221895641,1203.73960084 260.192233698,1193.04233684 260.197101455,1192.76391098 260.843733382,1175.63616451 261.667323782,1172.62905305 267.78451646,1161.34904819 268.405578801,1160.40012717 271.470652029,1156.46822009 272.251343439,1153.86590655 271.069805506,1151.41938187 268.546236616,1150.41284577 266.905802745,1150.39835255 262.846090396,1148.66687314 261.212968522,1144.56660507 262.305182549,1073.05178712 262.305403358,1073.03481311 262.408117885,1063.47551995 262.494367855,1054.87749881 264.759286843,1049.56248586 264.788684073,1046.69328653 262.636746332,1041.34194502 262.696158703,1035.48855524 262.951267507,1011.10265562 263.082077894,998.707084004 263.404356617,968.25059874 263.507763096,958.371424388 263.665967681,943.340706619 263.571644576,942.846615795 263.614983773,938.738577669 264.049007156,937.723571297 264.350817056,936.287213635 264.5830536,913.387539975 263.961417878,911.281409992 262.267091408,909.884458923 262.140089935,909.831905484 260.455943692,905.768880626 260.417320777,710.718593081 260.417308449,710.709691125 260.415994933,710.198968744 262.091805037,706.128519032 266.156464695,704.43871365 298.128257128,704.410935458 300.777801101,703.31143513 301.874999,700.660936873 301.874999,660.521235916 300.697400819,657.79263758 297.904199597,656.777741877 290.627978267,657.206909202 286.783094446,656.03410025 284.631621373,652.638547858 283.222293434,646.019605309 283.071800386,644.547648826 283.24219708,616.234624575 282.162201399,613.578818833 279.521596833,612.462171019 260.57698293,612.313985041 256.488925523,610.557593492 254.88386186,606.407786837 256.002869273,567.716747396 257.326066941,564.192462732 260.533178283,562.221201385 270.851569386,559.904364707 273.129328376,558.356573268 273.735643592,555.67026982 272.343531908,553.29416599 257.781470102,541.879013808 255.185874114,536.561360797 254.949478944,430.454780857 256.384522349,426.631294677 259.989476521,424.712258054 264.393232722,424.145942524 267.127305024,422.361288859 267.426220695,419.110013804 266.361390929,416.270084717 267.300585407,397.730112457 268.895440069,394.027616103 272.522271473,392.267464232 283.20887712,391.241486568 285.656633287,389.996245528 286.599378425,387.416833365 284.829131865,315.137733489 283.708237285,312.554440038 281.105430461,311.479634773 273.317827974,311.427354101 269.342957255,309.797564236 267.6034913,305.869451404 266.493024214,273.66399257 268.121443518,269.460040964 272.285743223,267.732740614 280.31256431,267.819720461 283.032662051,266.693482046 284.101286518,263.950238266 281.920524434,195.666775465 282.914870287,192.945940191 282.857550491,190.22439221 281.482876731,186.903710023 281.505189542,3.75045684714 280.407001514,1.09851109532 277.75518957,0.0 1.875,0.0 " moovel_rot="0" moovel_centroid="134.26472484547514,595.3334038505011"/>
  <polygon id="235023274" class="tile" points="-38.6808659142,1360.53823946 -37.2448182529,1201.0 -1.03130554222,1210.82506383 -1.0,1361.88097462 -24.8681678053,1361.08687839 -32.7987368958,1360.80146706 -38.6808659142,1360.53823946 " moovel_rot="-50.9" moovel_centroid="-19.66474585137395,1284.052206047427"/>
  <polygon id="36947371" class="tile" points="-39.6808659142,1274.33885516 -46.2302712741,1274.33019347 -53.6490527376,1274.30920274 -53.6643373431,1214.33278598 -51.7326641217,1214.33524316 -51.7390023442,1201.0 -39.7066317718,1201.23554859 -39.6808659142,1274.33885516 " moovel_rot="-27.8" moovel_centroid="-46.524251255,1238.4929948557833"/>
  <polygon id="5137254" class="tile" points="-73.8898836607,1238.46449061 -69.7818394562,1201.0 -54.7003873063,1201.91059568 -54.6643373431,1241.84958833 -73.8898836607,1238.46449061 " moovel_rot="41.6" moovel_centroid="-63.229354274,1221.6135292850656"/>
  <polygon id="415472357" class="tile" points="-75.788024823,1201.0 -74.8898836607,1242.6558382 -74.9153999201,1327.77578171 -86.454919515,1328.12659066 -86.5135579423,1215.63959019 -75.788024823,1201.0 " moovel_rot="3.1" moovel_centroid="-80.6425513124,1268.4086277356146"/>
  <polygon id="298244902" class="tile" points="-87.5135579423,1275.26460246 -94.0682485583,1278.9273728 -93.9843116306,1202.86531592 -87.5587479819,1201.0 -87.5135579423,1275.26460246 " moovel_rot="-75.7" moovel_centroid="-90.7937879376,1239.6438498546345"/>
  <polygon id="178538737" class="tile" points="-95.0682485583,1269.47605688 -123.145507643,1269.3201859 -122.49093748,1201.0 -95.1678924382,1201.37496756 -95.0682485583,1269.47605688 " moovel_rot="-90.1" moovel_centroid="-108.97643413,1235.4473090568915"/>
  <polygon id="71806634" class="tile" points="-131.00520723,1290.21147145 -126.104217706,1258.46219149 -131.192301895,1257.36869058 -124.145507643,1211.10313694 -133.894992742,1210.00306201 -133.780399856,1203.26328562 -140.166689533,1203.11174783 -155.487675621,1201.0 -155.292730554,1246.7175332 -155.453877449,1289.70186357 -139.236739023,1293.39471368 -138.897973546,1288.66478419 -131.00520723,1290.21147145 " moovel_rot="-48.3" moovel_centroid="-141.928570902,1246.3702056352122"/>
  <polygon id="23597441" class="tile" points="-190.180251317,1236.17753843 -182.852140541,1201.0 -165.699756417,1205.72917219 -159.691253525,1220.39512223 -156.890465224,1232.500644 -156.487675621,1248.51130225 -156.490194345,1262.26012624 -197.626582317,1254.55174237 -190.180251317,1236.17753843 " moovel_rot="-49.2" moovel_centroid="-174.043224849,1234.5725180905008"/>
  <polygon id="33875407" class="tile" points="-229.478682731,1202.20072965 -202.627131243,1201.0 -198.626582317,1229.78635317 -201.340702448,1280.63060742 -207.862260598,1291.37633687 -229.413838869,1287.41991221 -227.959157528,1260.31495191 -228.581306988,1227.89646775 -229.478682731,1202.20072965 " moovel_rot="-6.5" moovel_centroid="-214.482882198,1244.9293600754934"/>
  <polygon id="332861673" class="tile" points="-259.278436403,1201.13175326 -230.478682731,1201.0 -230.482473806,1253.68138117 -260.232038432,1254.20304333 -260.809073587,1246.08553223 -260.755628371,1217.65245295 -259.769033407,1217.64915817 -259.278436403,1201.13175326 " moovel_rot="30.9" moovel_centroid="-245.439320477,1227.7230639343043"/>
  <polygon id="310964728" class="tile" points="-261.90071327,1238.97352729 -261.839679353,1263.10590897 -273.690725948,1262.99545037 -273.609038802,1272.0131033 -279.019738354,1272.0393678 -278.405305528,1244.79380306 -280.611001631,1244.80755181 -283.309995479,1244.80518752 -283.265988896,1241.25953055 -283.198540666,1235.88003777 -273.644631556,1236.02021524 -273.385066751,1203.47032904 -269.828234097,1203.50263441 -269.806404869,1201.0 -266.141730099,1201.10858359 -264.600737962,1201.15743427 -262.839544712,1201.19258388 -261.809073587,1201.24431944 -261.90071327,1238.97352729 " moovel_rot="-10.8" moovel_centroid="-269.895575408,1237.0924825678226"/>
  <polygon id="137152583" class="tile" points="-315.300289408,1310.44030104 -308.362273556,1261.2743967 -315.31519007,1260.15757368 -306.083691403,1201.0 -290.45171496,1203.18959382 -295.137721638,1231.68061821 -298.493700651,1254.86270349 -293.663976116,1256.6088545 -288.410250661,1261.9788014 -284.309995479,1284.70420956 -284.454821356,1316.06620876 -315.300289408,1310.44030104 " moovel_rot="5.1" moovel_centroid="-300.138779941,1265.8259113041206"/>
  <polygon id="246348429" class="tile" points="-355.954670707,1201.50440293 -355.732082998,1221.57225752 -323.824428756,1221.63979904 -323.638181396,1241.67944532 -324.65093002,1241.50896604 -324.534460522,1247.54518165 -331.764337655,1247.70203776 -331.868286856,1267.5167608 -351.45571949,1267.29232525 -355.404981533,1267.25110568 -357.724944412,1267.19932711 -365.632696986,1267.23099766 -365.576116401,1277.42459996 -365.189604336,1314.33354294 -364.949664008,1336.95721781 -325.955241067,1336.45773087 -318.771575437,1332.75649833 -316.31519007,1311.15538142 -316.382673227,1201.0 -329.165774772,1201.16197997 -355.954670707,1201.50440293 " moovel_rot="35.3" moovel_centroid="-338.286942497,1280.2459832274694"/>
  <polygon id="30951622" class="tile" points="-366.731963825,1233.38069755 -377.320580726,1233.28979679 -377.380335469,1227.37651297 -377.401569266,1201.0 -366.632696986,1201.07504793 -366.731963825,1233.38069755 " moovel_rot="-70" moovel_centroid="-372.032433414,1217.1481239611694"/>
  <polygon id="32463344" class="tile" points="-378.401569266,1231.94112135 -404.187476884,1231.88108459 -404.193893583,1201.0 -378.407922156,1201.05999323 -378.401569266,1231.94112135 " moovel_rot="-55.7" moovel_centroid="-391.297712434,1216.470543431919"/>
  <polygon id="193822261" class="tile" points="-405.193893583,1201.0 -432.990225991,1201.01350634 -432.996843058,1257.07622408 -405.20253026,1257.05192605 -405.193893583,1201.0 " moovel_rot="10.6" moovel_centroid="-419.096319144,1229.0350747484197"/>
  <polygon id="397989015" class="tile" points="-433.996843058,1201.00808579 -443.046189772,1201.0 -443.086319045,1272.66311482 -434.038707151,1272.68203146 -433.996843058,1201.00808579 " moovel_rot="-9.1" moovel_centroid="-438.541900123,1236.83716722552"/>
  <polygon id="122302398" class="tile" points="-459.649569467,1266.73946555 -444.086319045,1267.3790668 -444.090836079,1260.61134873 -446.899851138,1260.50050778 -446.2636551,1241.9285299 -454.310708304,1242.00752 -452.801459787,1201.0 -458.144734246,1201.0478244 -459.649569467,1266.73946555 " moovel_rot="-83.1" moovel_centroid="-453.902529245,1242.101560549446"/>
  <polygon id="25880322" class="tile" points="-476.272386518,1201.00743272 -476.271653778,1204.55358486 -476.217505116,1335.96716394 -476.183560757,1402.79399075 -475.922748479,1404.68364199 -460.649569467,1405.70390189 -460.68228209,1337.89972003 -460.68347937,1335.89057613 -460.725885337,1204.7145596 -460.725660902,1201.0 -476.272386518,1201.00743272 " moovel_rot="82.2" moovel_centroid="-468.453817079,1303.0711169850003"/>
  <polygon id="232459201" class="tile" points="-498.395506207,1218.19873278 -491.785903377,1222.87625435 -497.557343467,1233.3920564 -488.507561307,1251.96203536 -477.280799976,1246.58404225 -487.85214651,1224.2147991 -477.272386518,1207.09159594 -486.020430851,1201.0 -494.464236316,1214.99176448 -495.89466807,1213.81729377 -497.154412661,1215.95174431 -498.395506207,1218.19873278 " moovel_rot="-86.1" moovel_centroid="-487.808956012,1227.354504513632"/>
  <polygon id="72545215" class="tile" points="-514.615405078,1270.80205481 -513.469869996,1209.3060076 -499.9515473,1201.0 -500.002172081,1299.77796387 -499.680478126,1302.30840537 -499.395506207,1309.15618396 -537.981514801,1309.72185396 -537.963460409,1294.60081828 -509.14483408,1294.98636725 -509.454111586,1270.3773415 -514.615405078,1270.80205481 " moovel_rot="-86.7" moovel_centroid="-510.564913218,1265.1347021862211"/>
  <polygon id="324997998" class="tile" points="-547.014842936,1201.0 -566.394383465,1213.88801654 -566.470477062,1222.67489869 -566.446689185,1225.57461225 -566.483380205,1277.37710198 -566.557044444,1280.31695679 -538.981514801,1279.60121028 -541.092891925,1207.06944476 -547.014842936,1201.0 " moovel_rot="4.3" moovel_centroid="-552.963034634,1243.7282464087023"/>
  <polygon id="27574976" class="tile" points="-7.33578121159,1448.34554761 -29.9666466013,1426.89313937 -10.5817098359,1405.70390189 -5.23738352247,1410.78038593 -0.616374064051,1411.00751318 0.0,1424.19842015 -0.00858506625518,1442.55516923 -7.33578121159,1448.34554761 " moovel_rot="-45.4" moovel_centroid="-11.33863380214861,1426.89262999"/>
  <polygon id="173816793" class="tile" points="-33.0435709048,1405.70390189 -31.9666466013,1481.56705308 -51.4563338093,1482.27955652 -51.3789260842,1406.12053958 -33.0435709048,1405.70390189 " moovel_rot="39.9" moovel_centroid="-41.9642427074,1444.30511354"/>
  <polygon id="378441384" class="tile" points="-145.866071389,1545.55356013 -70.7555078577,1546.74617246 -69.5215831786,1502.91369864 -52.5002063222,1502.73103779 -52.4563338093,1405.70390189 -75.2467820417,1406.7354932 -74.97040457,1424.52176622 -93.6968980076,1430.49234598 -93.547543361,1440.86515948 -110.966359144,1441.43768735 -111.014371243,1406.73794363 -148.324113299,1406.95790315 -145.866071389,1545.55356013 " moovel_rot="30.8" moovel_centroid="-102.62600239,1477.54972001"/>
  <polygon id="25993123" class="tile" points="-149.681007247,1405.70390189 -160.404992415,1405.94726315 -160.472222254,1447.43922824 -149.324113299,1447.04370173 -149.681007247,1405.70390189 " moovel_rot="1.3" moovel_centroid="-154.973190592,1426.66761769"/>
  <polygon id="374947873" class="tile" points="-186.446644864,1405.72945036 -187.524851769,1521.10838239 -182.015057925,1525.94374128 -161.472222254,1525.41038434 -161.49788588,1405.70390189 -186.446644864,1405.72945036 " moovel_rot="-7.0" moovel_centroid="-174.208470402,1465.91885106"/>
  <polygon id="59858988" class="tile" points="-196.250265043,1405.70390189 -189.345398841,1415.49510931 -188.524851769,1435.73118683 -193.507376536,1438.56455029 -216.88389992,1438.40134871 -216.865806525,1406.15112489 -196.250265043,1405.70390189 " moovel_rot="-0.4" moovel_centroid="-203.439707805,1422.67926804"/>
  <polygon id="172081564" class="tile" points="-217.88389992,1406.07502701 -233.480955925,1405.70390189 -233.474730278,1434.14302239 -226.600444896,1433.77356446 -218.312548441,1433.31977806 -217.88389992,1406.07502701 " moovel_rot="18.2" moovel_centroid="-225.842825001,1419.74520458"/>
  <polygon id="211216779" class="tile" points="-234.486757172,1405.70390189 -234.480955925,1425.17163763 -244.621255249,1425.18449052 -244.633925616,1405.70593085 -234.486757172,1405.70390189 " moovel_rot="1.0" moovel_centroid="-239.556194086,1415.44039249"/>
  <polygon id="44741337" class="tile" points="-245.913462815,1435.75250714 -257.307098417,1435.94185543 -257.319581549,1405.70390189 -245.633925616,1405.76054139 -245.913462815,1435.75250714 " moovel_rot="-51.7" moovel_centroid="-251.55114321,1420.72600111"/>
  <polygon id="380301548" class="tile" points="-263.682095064,1405.71337422 -263.681936051,1414.09784429 -258.319581549,1414.08748739 -258.326360899,1405.70390189 -263.682095064,1405.71337422 " moovel_rot="7.6" moovel_centroid="-261.002539499,1409.90151518"/>
  <polygon id="28363953" class="tile" points="-306.364323126,1419.40024747 -301.402109347,1409.45512038 -286.069192756,1405.70390189 -273.827388108,1408.96818448 -273.395826467,1430.92035217 -264.682095064,1434.62614954 -278.536980312,1489.47928915 -286.854966267,1486.05279389 -306.301082962,1480.06911511 -302.934701051,1466.74110312 -306.364323126,1419.40024747 " moovel_rot="11.2" moovel_centroid="-287.71726859,1445.72907157"/>
  <polygon id="255462170" class="tile" points="-307.391393942,1405.7056853 -307.364323126,1515.20005958 -313.172103924,1515.19832619 -313.199217166,1405.70390189 -307.391393942,1405.7056853 " moovel_rot="40.3" moovel_centroid="-310.281759777,1460.45192661"/>
  <polygon id="176444589" class="tile" points="-371.85022896,1441.08207817 -328.612361511,1439.84197585 -329.49203858,1406.10873038 -314.253271151,1405.70390189 -314.199217166,1473.29867136 -369.5434044,1477.26307035 -371.85022896,1441.08207817 " moovel_rot="76.8" moovel_centroid="-338.527108897,1450.60892563"/>
  <polygon id="169740756" class="tile" points="-401.422866492,1406.4652767 -385.210859187,1406.0311416 -382.157063098,1405.94632225 -372.916704428,1405.70390189 -372.85022896,1469.19422709 -399.024234245,1469.08078402 -398.985418312,1464.44837483 -401.566987189,1464.42544239 -401.422866492,1406.4652767 " moovel_rot="24.6" moovel_centroid="-387.071155926,1437.45472781"/>
  <polygon id="228991419" class="tile" points="-402.566987189,1407.65757284 -403.682988399,1454.56747837 -404.974594141,1508.58131401 -439.417678142,1504.22036434 -439.246682806,1497.19495016 -438.976999211,1486.60397612 -438.605146071,1471.7888743 -438.385847352,1448.07339703 -463.888271882,1446.75977005 -463.935765899,1405.70390189 -402.566987189,1407.65757284 " moovel_rot="11.4" moovel_centroid="-428.097092868,1449.51093144"/>
  <polygon id="32959935" class="tile" points="-464.937980112,1453.6141257 -492.995289416,1453.57264387 -492.987972189,1411.30648807 -492.99315351,1405.70390189 -464.935765899,1405.74535828 -464.937980112,1453.6141257 " moovel_rot="-72.0" moovel_centroid="-478.964188229,1429.6595898"/>
  <polygon id="328827298" class="tile" points="-509.339213083,1405.70390189 -497.748676876,1406.31703892 -497.857906508,1425.56574253 -493.995289416,1427.66994218 -505.928611634,1448.62078671 -507.190601153,1445.94949317 -509.35344189,1437.62920626 -509.339213083,1405.70390189 " moovel_rot="79.1" moovel_centroid="-503.550122938,1424.50221833"/>
  <polygon id="47042187" class="tile" points="-510.360843605,1405.70390189 -522.86302971,1405.83285716 -523.887178267,1434.68993452 -510.35344189,1435.33402312 -510.355883353,1433.99000098 -510.359626309,1407.33419347 -510.360843605,1405.70390189 " moovel_rot="-5.6" moovel_centroid="-516.841919552,1420.5857542"/>
  <polygon id="24065778" class="tile" points="-530.052784018,1553.34163742 -525.036112606,1554.84851968 -524.887178267,1406.81681131 -529.844225986,1406.84773935 -539.600949302,1405.70390189 -542.738226935,1424.43305061 -544.880848859,1451.21670209 -542.555300253,1488.66722135 -536.954627092,1553.10647323 -530.052784018,1553.34163742 " moovel_rot="40.9" moovel_centroid="-533.468762433,1475.89285799"/>
  <polygon id="175357590" class="tile" points="-545.881231707,1419.1568655 -548.165631879,1419.16314027 -554.915418006,1419.17669427 -554.919991574,1405.72820786 -547.882133945,1405.70422111 -545.880848859,1405.70390189 -545.881231707,1419.1568655 " moovel_rot="42.2" moovel_centroid="-550.398930026,1412.4398507"/>
  <polygon id="24962018" class="tile" points="-556.091209274,1471.53344583 -560.351185734,1477.38057412 -564.932454246,1469.18982728 -564.941146776,1405.70390189 -555.919991574,1408.58099358 -556.091209274,1471.53344583 " moovel_rot="-32.9" moovel_centroid="-560.4757682,1440.40714878"/>
  <polygon id="285920846" class="tile" points="-579.90786961,1405.70393007 -565.941146776,1411.33371992 -568.903944698,1467.13036734 -570.162592659,1470.42940671 -584.889554793,1465.33045013 -584.904992944,1405.70390189 -579.90786961,1405.70393007 " moovel_rot="46.5" moovel_centroid="-576.187140192,1436.94063322"/>
  <polygon id="286356050" class="tile" points="0.0,1566.94481232 -0.00314912237227,1554.84851968 -11.281505274,1554.85661194 -11.2674070984,1566.95298102 0.0,1566.94481232 " moovel_rot="-90.4" moovel_centroid="-5.6380226213041515,1560.89975218"/>
  <polygon id="382471987" class="tile" points="-18.4718036119,1554.84851968 -18.3892579885,1604.35377975 -17.6704910136,1603.20227093 -13.4104013897,1602.84377333 -13.281505274,1555.8149759 -17.3081199603,1555.80309304 -18.4718036119,1554.84851968 " moovel_rot="-33.1" moovel_centroid="-15.9008876125,1579.25438284"/>
  <polygon id="178410524" class="tile" points="-19.5217093315,1554.84851968 -31.4965860095,1556.2935015 -29.4920612711,1585.11507548 -38.0282467844,1586.00225049 -37.8905035844,1592.49965332 -31.2837356379,1597.21829716 -19.4718036119,1596.95981861 -19.5217093315,1554.84851968 " moovel_rot="42.5" moovel_centroid="-26.1691187539,1577.93907606"/>
  <polygon id="40346186" class="tile" points="-62.7812388247,1615.26039085 -39.0282467844,1615.31355394 -39.1005220367,1558.55779843 -62.777144037,1554.84851968 -62.7798446812,1573.9324505 -62.7812388247,1615.26039085 " moovel_rot="-64.7" moovel_centroid="-51.0456809526,1586.00128345"/>
  <polygon id="27908240" class="tile" points="-63.8300430426,1555.41808539 -89.4555268808,1554.84851968 -90.105843633,1684.54352579 -63.7812388247,1684.68218045 -63.8300430426,1555.41808539 " moovel_rot="1.2" moovel_centroid="-76.8011995803,1620.16296543"/>
  <polygon id="185766663" class="tile" points="-92.6756569052,1612.33201664 -96.3608007664,1611.2059662 -94.5672054467,1599.05792293 -96.3087686324,1555.10444959 -92.4119578681,1554.84851968 -91.105843633,1599.24766158 -92.6756569052,1612.33201664 " moovel_rot="-3.5" moovel_centroid="-93.6240244147,1583.01877882"/>
  <polygon id="180016903" class="tile" points="-97.3741342063,1588.39180127 -109.935246407,1588.52546091 -109.930124632,1554.97486301 -104.21130474,1554.96217524 -97.3608007664,1554.84851968 -97.3690616355,1562.08714209 -97.3741342063,1588.39180127 " moovel_rot="48.3" moovel_centroid="-103.651531033,1571.69523115"/>
  <polygon id="379841259" class="tile" points="-110.935246407,1554.84851968 -110.944908559,1569.85684636 -121.210950986,1570.39160128 -121.36796764,1555.1390164 -110.935246407,1554.84851968 " moovel_rot="82.5" moovel_centroid="-116.129165493,1562.53940827"/>
  <polygon id="48377081" class="tile" points="-122.36796764,1623.71188652 -154.460744827,1623.73508061 -154.504562761,1554.86503554 -122.411673714,1554.84851968 -122.36796764,1623.71188652 " moovel_rot="-89.1" moovel_centroid="-138.436496596,1589.29011151"/>
  <polygon id="42271453" class="tile" points="-155.504562761,1601.98285855 -166.4964442,1599.06240342 -175.380126431,1596.70458333 -173.535250343,1554.84851968 -155.572631699,1554.88577092 -155.504562761,1601.98285855 " moovel_rot="1.7" moovel_centroid="-164.830237367,1577.52393235"/>
  <polygon id="239961472" class="tile" points="-176.997164786,1591.76584797 -176.952465786,1596.55579975 -176.495903723,1646.24275349 -209.363887799,1647.09331143 -209.921392392,1577.27330587 -176.807521103,1554.84851968 -176.380126431,1566.81149211 -176.997164786,1591.76584797 " moovel_rot="52.0" moovel_centroid="-192.447615821,1605.96008839"/>
  <polygon id="391137119" class="tile" points="-215.948978348,1563.72344393 -212.99292186,1563.70894979 -210.921984489,1563.70364603 -210.921392392,1554.84851968 -215.956866067,1554.86137693 -215.948978348,1563.72344393 " moovel_rot="50.7" moovel_centroid="-213.437659712,1559.28229139"/>
  <polygon id="201855211" class="tile" points="-216.960210532,1573.69087172 -216.956866067,1554.85522275 -222.042732387,1554.84851968 -222.046076829,1573.68416934 -216.960210532,1573.69087172 " moovel_rot="1.9" moovel_centroid="-219.501471469,1564.26969587"/>
  <polygon id="126252016" class="tile" points="-223.046076829,1589.07985066 -236.284090947,1589.07035101 -236.315132242,1554.84851968 -223.066561653,1554.85497237 -223.046076829,1589.07985066 " moovel_rot="-73.9" moovel_centroid="-229.677868668,1571.96114966"/>
  <polygon id="173080725" class="tile" points="-256.397175456,1554.88894853 -256.38348468,1579.73525351 -237.315132242,1579.69481638 -237.328796273,1554.84851968 -256.397175456,1554.88894853 " moovel_rot="72.8" moovel_centroid="-246.856147697,1567.29188162"/>
  <polygon id="282496053" class="tile" points="-259.858158416,1621.71742417 -281.243957734,1618.72960411 -277.280515978,1600.74147569 -276.766321029,1596.23190155 -281.162452827,1555.73075215 -278.40449543,1554.84851968 -257.397175456,1606.93793089 -259.858158416,1621.71742417 " moovel_rot="-67.1" moovel_centroid="-270.733132094,1596.48578839"/>
  <polygon id="47325751" class="tile" points="-282.328651317,1554.95969749 -304.615865832,1554.84851968 -311.585501865,1557.98307989 -316.755257014,1555.95200288 -321.357714256,1564.12160729 -323.505091038,1571.30749472 -324.270207265,1580.17672683 -324.393366904,1589.03530176 -324.676370765,1620.44682818 -323.762150757,1625.30440796 -319.751454143,1635.04327778 -312.701315455,1644.43865216 -307.141730988,1648.44862408 -297.919439577,1651.04116655 -282.243957734,1650.57299035 -283.388811696,1621.57482715 -282.328651317,1554.95969749 " moovel_rot="17.8" moovel_centroid="-302.419775713,1601.53647916"/>
  <polygon id="255467738" class="tile" points="-325.676370765,1569.5714657 -330.722444715,1569.56844016 -330.724307944,1554.84851968 -325.67822818,1554.85154023 -325.676370765,1569.5714657 " moovel_rot="-49.3" moovel_centroid="-328.200337758,1562.20999003"/>
  <polygon id="137261859" class="tile" points="-341.826475808,1580.72095934 -331.92315042,1580.09704678 -332.085512313,1579.03029307 -332.435223808,1563.45207903 -331.724307944,1555.67185983 -333.237983224,1555.9736995 -341.862763269,1554.84851968 -341.826475808,1580.72095934 " moovel_rot="1.9" moovel_centroid="-337.073943066,1567.91031439"/>
  <polygon id="297530558" class="tile" points="-344.14090905,1632.59559204 -366.784973061,1637.54036457 -369.414645623,1628.89142529 -374.614324372,1611.79242512 -379.653709896,1595.20446693 -381.334556118,1589.67164421 -358.169358007,1582.72175171 -357.926694408,1554.84851968 -342.862763269,1555.17937401 -342.908073677,1616.76220638 -344.553517545,1616.87926034 -344.14090905,1632.59559204 " moovel_rot="16.7" moovel_centroid="-357.298185187,1599.59026388"/>
  <polygon id="367700972" class="tile" points="-382.334556118,1617.70290854 -382.434974946,1554.93895747 -397.601453679,1554.84851968 -397.777470241,1617.59978852 -382.334556118,1617.70290854 " moovel_rot="-84.3" moovel_centroid="-390.036948432,1586.36700854"/>
  <polygon id="38915512" class="tile" points="-442.138139064,1554.93391043 -442.124692739,1612.85286128 -417.016523362,1612.80503135 -398.777470241,1612.76740132 -398.79074697,1554.84851968 -442.138139064,1554.93391043 " moovel_rot="67.8" moovel_centroid="-420.457749981,1583.85107211"/>
  <polygon id="383545077" class="tile" points="-443.169734478,1606.84587578 -459.771843522,1606.82234662 -459.740281617,1554.84851968 -443.138139064,1554.87204227 -443.169734478,1606.84587578 " moovel_rot="-78.9" moovel_centroid="-451.454999489,1580.84718735"/>
  <polygon id="277631775" class="tile" points="-469.478009352,1681.66964178 -460.771843522,1609.13693761 -469.783226648,1554.84851968 -471.698599492,1555.3202114 -462.927777561,1608.80893094 -471.633934303,1681.34163938 -469.478009352,1681.66964178 " moovel_rot="64.8" moovel_centroid="-466.223615075,1619.46394706"/>
  <polygon id="137700132" class="tile" points="-486.507167694,1574.04911315 -488.927400294,1597.34431666 -473.239363981,1599.24568193 -472.698599492,1590.01923758 -477.216716783,1554.84851968 -486.581007987,1555.52122978 -488.876911434,1555.91032788 -488.247471232,1560.77604457 -486.507167694,1574.04911315 " moovel_rot="25.7" moovel_centroid="-481.00627043,1578.18621515"/>
  <polygon id="163218487" class="tile" points="-489.934450971,1554.84851968 -541.924063852,1554.87210971 -541.882434145,1634.40326025 -517.327181881,1634.39831401 -517.363055737,1573.66115074 -507.934417523,1573.6486397 -507.939734539,1568.94133128 -489.927400294,1568.93614676 -489.934450971,1554.84851968 " moovel_rot="-7.6" moovel_centroid="-525.098547387,1588.89212144"/>
  <polygon id="31611528" class="tile" points="-542.976222457,1554.84851968 -551.937663749,1555.56131418 -566.532181557,1580.01983342 -571.90567062,1576.95931502 -575.741325508,1585.39919158 -576.193252838,1592.90788856 -564.017044002,1594.88183666 -542.924063852,1596.17864 -542.976222457,1554.84851968 " moovel_rot="73.7" moovel_centroid="-555.623699109,1579.40853423"/>
  <polygon id="132075784" class="tile" points="0.0,1745.61011239 -16.4841901967,1745.61011239 -16.4841901967,1684.68218045 0.0,1684.68218045 0.0,1745.61011239 " moovel_rot="0" moovel_centroid="-8.242095098365098,1715.14614642"/>
  <polygon id="40806156" class="tile" points="-66.5913447743,1684.68218045 -68.3204881944,1703.98314341 -61.2674862778,1705.29669765 -60.6661484221,1715.4058298 -35.9282321554,1718.56787239 -39.254899401,1766.29251457 -57.7447965354,1764.52872372 -64.2479749847,1805.26702731 -22.8281697696,1809.5456997 -18.499415935,1770.03335604 -25.0097710274,1767.44721256 -18.4841901967,1692.37224247 -23.0490920715,1692.36394547 -59.9098747822,1686.43394609 -66.5913447743,1684.68218045 " moovel_rot="50.8" moovel_centroid="-39.520442195,1748.91022581"/>
  <polygon id="376558140" class="tile" points="-79.2169131014,1684.68218045 -79.2263451157,1700.2137885 -69.3324434627,1700.24043441 -69.3204881944,1684.71501059 -79.2169131014,1684.68218045 " moovel_rot="-67.9" moovel_centroid="-74.2743752329,1692.46252197"/>
  <polygon id="286947073" class="tile" points="-85.7485569632,1745.75741227 -85.9588896412,1741.09257783 -81.6502504657,1737.48059372 -80.2263451157,1732.94153106 -86.9041114413,1714.21947692 -92.8704908378,1715.60143767 -94.6601582646,1712.25012091 -92.7524270093,1708.61005906 -91.9827930787,1704.2315427 -97.241299832,1692.53405243 -93.1378996346,1690.6719934 -96.254532506,1684.68218045 -103.500909896,1687.63419378 -107.139244951,1692.1271634 -109.920226079,1716.32101427 -109.815240015,1741.99231248 -109.902309643,1745.69774502 -88.3862315686,1747.28470037 -85.2961118005,1748.13857459 -85.7485569632,1745.75741227 " moovel_rot="-39.0" moovel_centroid="-97.9051023928,1721.56504692"/>
  <polygon id="86499728" class="tile" points="-110.920380562,1684.68218045 -110.920226079,1702.96736043 -116.338323766,1702.97582755 -116.334368741,1698.58625465 -124.712086584,1698.60375016 -124.707202568,1684.71439373 -110.920380562,1684.68218045 " moovel_rot="55.2" moovel_centroid="-117.352302614,1692.65283066"/>
  <polygon id="106797737" class="tile" points="-125.765056723,1684.68218045 -131.967036136,1684.68737179 -131.780857306,1868.53210136 -125.712086584,1868.53690837 -125.765056723,1684.68218045 " moovel_rot="4.3" moovel_centroid="-128.80644775,1776.27698524"/>
  <polygon id="219121429" class="tile" points="-133.12528122,1684.68218045 -132.967036136,1719.56224284 -158.486943245,1726.45491567 -158.439360787,1686.42072346 -149.75908615,1685.79168847 -142.286461127,1685.25087387 -133.12528122,1684.68218045 " moovel_rot="22.6" moovel_centroid="-146.04288464,1704.34011454"/>
  <polygon id="185766650" class="tile" points="-163.968434965,1747.33041665 -159.486943245,1747.34161025 -159.529258231,1684.69335701 -164.010772405,1684.68218045 -163.968434965,1747.33041665 " moovel_rot="-52.8" moovel_centroid="-161.748852127,1716.01186492"/>
  <polygon id="31541250" class="tile" points="-165.310916345,1684.68218045 -165.134314541,1693.27981444 -170.794134395,1693.56473657 -174.224534406,1693.73474473 -174.227014172,1702.56476483 -171.74114514,1702.72674582 -169.510669545,1703.9130012 -165.010772405,1780.71455284 -196.205725265,1783.25067765 -197.610629844,1768.9032242 -200.624637787,1764.32047024 -200.084943923,1759.44924975 -195.114167489,1759.97536181 -194.666574693,1755.79871063 -193.243522362,1755.96119168 -191.628409727,1740.88844083 -195.038597946,1740.52645666 -194.774978347,1738.29983741 -189.431249312,1738.89623391 -188.569225949,1730.60670782 -187.707205522,1722.31716911 -189.727792922,1722.09179236 -188.492822511,1711.66235777 -189.942821794,1711.47248586 -188.625135281,1698.74629967 -187.402691827,1684.78570103 -165.310916345,1684.68218045 " moovel_rot="13.1" moovel_centroid="-180.069237561,1739.06371116"/>
  <polygon id="23753498" class="tile" points="-209.760709145,1684.68218045 -201.624637787,1693.40671835 -207.38597253,1742.98856199 -217.362103525,1746.6288545 -248.905061329,1746.32842162 -248.971718968,1685.83041663 -209.760709145,1684.68218045 " moovel_rot="-38.4" moovel_centroid="-226.862805564,1715.21678694"/>
  <polygon id="61123770" class="tile" points="-284.546568441,1740.78007687 -249.971718968,1756.95266653 -249.99218614,1694.4298628 -254.110115884,1692.00986378 -252.01698028,1687.57994852 -257.492725352,1684.68218045 -284.546568441,1740.78007687 " moovel_rot="-53.7" moovel_centroid="-262.089573857,1724.80164503"/>
  <polygon id="144070414" class="tile" points="-335.762558576,1690.76153288 -330.080314604,1697.68620476 -293.606439833,1684.68218045 -285.546568441,1721.81786628 -294.588420189,1730.0029936 -321.599828021,1755.55512334 -343.481767315,1732.37594613 -326.855740739,1716.24416571 -343.482503376,1698.15149635 -335.762558576,1690.76153288 " moovel_rot="20.4" moovel_centroid="-313.870679878,1717.75474936"/>
  <polygon id="213964847" class="tile" points="-344.482503376,1684.69073515 -344.499812324,1707.94112606 -359.270086775,1707.93257136 -359.252778132,1684.68218045 -344.482503376,1684.69073515 " moovel_rot="-89.8" moovel_centroid="-351.876295152,1696.31165321"/>
  <polygon id="10307290" class="tile" points="-400.330624676,1684.68218045 -399.13447963,1687.27231706 -397.385131551,1688.87801855 -394.339332215,1689.98154241 -391.414848714,1690.50460098 -390.972789937,1684.7405026 -360.270086775,1684.90386685 -360.618384562,1890.98536753 -380.311081591,1890.95590635 -380.237867423,1886.35787459 -384.035911536,1886.1729789 -391.168976994,1885.72160776 -393.947434014,1885.64376237 -395.649831876,1886.30625164 -397.339523248,1887.30818968 -398.62561905,1888.51843828 -399.498543039,1889.99125723 -400.221583654,1875.24210398 -399.476300756,1876.79805814 -398.772377839,1877.53125926 -397.244842641,1878.75120491 -395.184372001,1879.66674136 -391.008256541,1879.86183422 -387.198229569,1879.57207028 -386.589183752,1877.92605967 -386.244736149,1863.55521714 -389.772967108,1863.54657697 -388.969487248,1711.95050936 -388.402359212,1710.03620851 -385.581271074,1707.6577398 -385.542339648,1699.76214917 -385.875266361,1698.13540384 -387.131595252,1697.03076377 -388.617340344,1696.72011392 -393.113589583,1696.60644951 -395.891313892,1697.18250539 -398.427750689,1698.82015731 -398.862564842,1699.29852714 -400.008298572,1701.51834558 -400.330624676,1684.68218045 " moovel_rot="-27.3" moovel_centroid="-375.240391259,1786.8775194"/>
  <polygon id="370109593" class="tile" points="-406.482342641,1684.68218045 -411.206648835,1684.68400202 -434.675274492,1684.71949956 -434.583895632,1750.30946891 -427.193505987,1750.31029711 -424.446983741,1750.30440661 -422.46887587,1750.29756144 -422.473433798,1748.19969653 -417.06750427,1748.1962556 -417.135638964,1700.28489624 -421.866621374,1700.28651919 -421.814911306,1698.7693693 -420.973069139,1697.64714648 -406.525129236,1697.60614221 -404.614559056,1697.8485851 -401.330624676,1691.89315658 -403.214755532,1690.98502383 -403.763316462,1690.10560392 -403.964432096,1684.72413282 -406.482342641,1684.68218045 " moovel_rot="-1.7" moovel_centroid="-423.830040457,1713.79019884"/>
  <polygon id="391245005" class="tile" points="-435.992608575,1708.65341837 -435.873691159,1708.66809547 -435.84039083,1712.64589458 -435.949998035,1712.68219914 -435.941427273,1714.68578892 -435.822509898,1714.70046606 -435.797640134,1718.58493969 -435.901275511,1718.58322257 -435.88819015,1721.03586137 -435.769272817,1721.05053856 -435.750137817,1725.04504085 -435.843585168,1725.05196372 -435.845435542,1726.97490187 -435.726518249,1726.98957911 -435.719795064,1730.91610374 -435.799073243,1730.90631889 -435.776910395,1733.33792724 -435.795561812,1735.40459625 -440.240576747,1735.36906156 -442.70744632,1735.3451267 -446.022660314,1735.31984052 -448.057715799,1735.30306029 -471.763106297,1735.1050588 -471.716874634,1725.62231599 -470.004904477,1725.63797945 -470.040815504,1724.28622699 -469.986022393,1701.55462799 -469.993890357,1699.76706907 -472.122395201,1699.75721408 -472.091059377,1690.9942478 -472.036210212,1684.76456389 -463.981455719,1684.78789153 -463.970624902,1684.68218045 -460.142319817,1684.71172252 -460.156426993,1685.05880982 -458.893538196,1685.06702622 -458.875449778,1684.69459111 -454.983147262,1684.72095653 -454.968508194,1684.84826778 -445.210844094,1684.90826935 -445.192928525,1684.79420422 -441.305717038,1684.81624613 -441.306360046,1684.93059745 -440.072921106,1684.94255998 -440.105020881,1689.7409948 -435.675274492,1689.7635536 -435.976275909,1708.36566674 -435.992608575,1708.65341837 " moovel_rot="-40.3" moovel_centroid="-453.576575756,1710.19055177"/>
  <polygon id="256914322" class="tile" points="-477.621447602,1684.68259379 -473.126606645,1684.68218045 -473.122395201,1711.81019054 -477.623765843,1711.80919869 -477.626253638,1701.72009131 -477.621447602,1684.68259379 " moovel_rot="-12.1" moovel_centroid="-475.374371926,1698.24975226"/>
  <polygon id="141521047" class="tile" points="-490.23760586,1687.85353871 -490.263862333,1718.92134782 -482.555060438,1717.46440301 -478.626253638,1716.72526602 -479.606105327,1684.68218045 -490.23760586,1687.85353871 " moovel_rot="68.9" moovel_centroid="-484.644284347,1702.2696909"/>
  <polygon id="178540279" class="tile" points="-509.146619245,1684.68218045 -491.308727211,1687.67745914 -491.513684846,1704.57906422 -491.263862333,1725.42587884 -518.046588954,1721.15933938 -515.53284379,1702.76035023 -509.146619245,1684.68218045 " moovel_rot="60.9" moovel_centroid="-503.131546236,1705.84438697"/>
  <polygon id="150591183" class="tile" points="-519.054966536,1684.8077718 -528.037043508,1684.68218045 -528.513564032,1728.92758768 -519.046588954,1729.24327605 -519.054966536,1684.8077718 " moovel_rot="14.7" moovel_centroid="-523.66097394,1707.10988944"/>
  <polygon id="179457642" class="tile" points="-15.6058405615,1891.46510787 -15.9529929366,1909.57512096 -65.3031597393,1909.64770183 -65.7095553713,1921.19833299 -16.7236490216,1922.79425355 -18.477170161,1973.27404019 -10.1554833563,1973.46659524 0.0,1949.79204402 -0.0363913111389,1890.98536753 -9.92094538417,1891.37649388 -15.6058405615,1891.46510787 " moovel_rot="25.0" moovel_centroid="-19.144876671665287,1925.8086442"/>
  <polygon id="229222294" class="tile" points="-67.7095553713,1890.98554359 -73.3043047648,1890.98536753 -76.0193203537,1890.99210574 -76.0214144979,1893.10678827 -76.0272291208,1906.01258771 -67.7234095329,1906.0090692 -67.7095553713,1890.98554359 " moovel_rot="27.2" moovel_centroid="-71.8700555193,1898.49767615"/>
  <polygon id="22060619" class="tile" points="-77.0272291208,1948.87189383 -105.552078257,1948.27291971 -104.357449666,1890.98536753 -77.0496618921,1891.75955119 -77.6108165201,1943.35650767 -77.0272291208,1948.87189383 " moovel_rot="61.5" moovel_centroid="-91.1517975947,1920.09757566"/>
  <polygon id="363338666" class="tile" points="-118.347778688,1890.99146612 -108.840117256,1890.98632178 -106.552078257,1890.98536753 -106.553977268,1917.7253193 -118.3496771,1917.7314241 -118.347778688,1890.99146612 " moovel_rot="5.5" moovel_centroid="-112.450872907,1904.35833697"/>
  <polygon id="424177687" class="tile" points="-129.030994469,1890.98536753 -129.043076467,1953.18599789 -119.3496771,1953.1466475 -119.53814515,1890.99524278 -129.030994469,1890.98536753 " moovel_rot="-11.3" moovel_centroid="-124.240948555,1922.18667129"/>
  <polygon id="77096520" class="tile" points="-131.962725022,1890.98536753 -130.043076467,1932.34389699 -132.699356328,1942.78387318 -155.202044013,1969.39627966 -173.268853948,1986.89692165 -185.777044401,1997.11817425 -191.227484335,2000.38551191 -191.078350039,2061.10101886 -195.866880631,2060.99263622 -223.144434617,2060.33695956 -223.188850431,1911.64278166 -190.268186841,1909.95928302 -190.463281432,1893.84065161 -177.78005082,1893.04779646 -164.663292006,1892.50429288 -149.207474737,1891.82568343 -135.951578168,1891.36321552 -131.962725022,1890.98536753 " moovel_rot="18.2" moovel_centroid="-185.700254216,1960.20121281"/>
  <polygon id="37835291" class="tile" points="-224.943295755,1960.91793331 -281.818917414,1960.7558119 -282.397932316,1948.11917376 -282.399393308,1934.31035282 -271.257736121,1934.2802431 -270.456391743,1921.44573982 -266.023195604,1921.36177256 -264.87909066,1910.28402244 -259.299919241,1910.52037994 -259.284790232,1897.13302303 -256.164584236,1896.17942131 -256.017445379,1890.98536753 -243.353928051,1891.88852366 -244.257345307,1896.77369411 -247.189848819,1942.6979386 -224.188850431,1944.11252835 -224.542868693,1951.35787716 -224.943295755,1960.91793331 " moovel_rot="47.7" moovel_centroid="-255.853898277,1936.39148373"/>
  <polygon id="236004212" class="tile" points="-283.40714478,1891.01174097 -308.809093679,1890.98536753 -308.800150489,1910.7471186 -300.076339553,1910.74614986 -300.323505788,1924.62213369 -283.399393308,1924.48325652 -283.40714478,1891.01174097 " moovel_rot="-13.5" moovel_centroid="-294.750244162,1906.18229338"/>
  <polygon id="441793438" class="tile" points="-309.920676218,1890.98536753 -320.980429398,1891.29169728 -320.998572086,1910.5665074 -309.809093679,1910.22830466 -309.920676218,1890.98536753 " moovel_rot="13.8" moovel_centroid="-315.428500679,1900.78673323"/>
  <polygon id="105738076" class="tile" points="-321.998572086,1891.35915565 -342.015975414,1890.98536753 -344.5405869,1892.90496846 -345.63985881,1895.37659205 -345.638017298,1918.25215149 -327.547156513,1918.5352644 -322.008890197,1909.84156539 -322.009888329,1903.40642233 -321.998572086,1891.35915565 " moovel_rot="-26.1" moovel_centroid="-334.117628789,1904.47940883"/>
  <polygon id="326482799" class="tile" points="-366.192534423,1970.40139799 -360.931935784,1970.40699309 -349.889727987,1970.40909893 -349.864267911,1938.88333419 -346.648923745,1938.89098465 -346.63985881,1929.90537867 -349.855202986,1929.89772796 -349.825794914,1890.99307895 -359.604893181,1890.98616656 -366.128601753,1890.98536753 -366.192534423,1970.40139799 " moovel_rot="2.2" moovel_centroid="-357.795932538,1930.77778019"/>
  <polygon id="74098544" class="tile" points="-383.791583593,1890.98536753 -374.215291931,1892.02981951 -367.192534423,1893.23154069 -368.569414261,1961.58188446 -383.67606167,1960.65823904 -383.458372297,1957.42613374 -383.791583593,1890.98536753 " moovel_rot="-32.7" moovel_centroid="-375.767643688,1925.92823577"/>
  <polygon id="31484796" class="tile" points="-392.589137998,1932.0375498 -384.791583593,1900.92630341 -397.698691837,1892.44034009 -404.987106254,1890.98536753 -404.811860696,1904.39273968 -399.301487828,1905.84044734 -404.774918022,1927.3247451 -404.976084489,1928.4493878 -403.184081159,1929.22962653 -392.589137998,1932.0375498 " moovel_rot="-14.5" moovel_centroid="-395.957415778,1910.88513983"/>
  <polygon id="331050349" class="tile" points="-422.318344064,1891.01543008 -411.759289269,1890.98536753 -411.765306947,1893.78251367 -405.987106254,1893.77109611 -405.995449459,1909.69675503 -417.814784778,1909.72217265 -417.811017735,1905.45140271 -422.324896626,1905.46214729 -422.318344064,1891.01543008 " moovel_rot="53.0" moovel_centroid="-414.050143481,1900.31419201"/>
  <polygon id="120392813" class="tile" points="-472.652784947,1946.73039705 -423.342664438,1946.61592563 -423.324896626,1890.98536753 -472.643663537,1891.09266057 -472.652784947,1946.73039705 " moovel_rot="50.3" moovel_centroid="-447.991533874,1918.85527586"/>
  <polygon id="424177696" class="tile" points="-493.133994931,1968.16422417 -474.309629359,1966.41863328 -474.005708487,1931.50823006 -473.652784947,1891.26252008 -483.895011337,1891.11385719 -493.170911718,1890.98536753 -493.133994931,1968.16422417 " moovel_rot="-12.3" moovel_centroid="-483.609168116,1928.97603874"/>
  <polygon id="36056465" class="tile" points="-494.174381743,1954.0339156 -494.868893979,1939.72801786 -494.170911718,1890.98536753 -527.036161772,1892.54663221 -526.649854928,1955.62873629 -494.174381743,1954.0339156 " moovel_rot="3.1" moovel_centroid="-510.683431247,1923.1822018"/>
  <polygon id="64328553" class="tile" points="-555.643438676,2020.59344909 -552.597353649,2017.85101926 -528.036161772,1900.43827886 -581.088657394,1890.98536753 -581.086946581,2020.11453119 -555.643438676,2020.59344909 " moovel_rot="-89.8" moovel_centroid="-560.342487269,1951.37657039"/>
  <polygon id="37901735" class="tile" points="-0.212396612763,2061.10101886 -0.126199802756,2077.53273422 0.0,2102.93278482 -5.9355028471,2103.06301822 -5.0138051765,2160.36509524 -34.4320498033,2160.14556141 -33.8997336125,2122.07826638 -34.5128391783,2072.29368349 -34.4328415004,2068.27526065 -0.212396612763,2061.10101886 " moovel_rot="-43.7" moovel_centroid="-18.409322000087126,2110.47706884"/>
  <polygon id="397125328" class="tile" points="-36.5128391783,2103.8923032 -44.850423994,2103.90844995 -54.4207069152,2103.91964047 -54.4423069489,2061.12646926 -44.6267111822,2061.11063177 -36.5236278986,2061.10101886 -36.5148880401,2102.31217529 -36.5128391783,2103.8923032 " moovel_rot="80.1" moovel_centroid="-45.4753354061,2082.50778265"/>
  <polygon id="187161567" class="tile" points="-71.1191473193,2061.10101886 -90.4207295534,2069.90247884 -97.5851457115,2073.16437893 -93.3911541947,2081.66171225 -83.5401770267,2101.91311507 -97.5714622353,2131.8440559 -87.2796741754,2136.51372857 -74.8649306838,2142.62860357 -72.0810819008,2144.00545425 -55.4423069489,2104.03624274 -59.1082472364,2096.86502658 -63.9500286243,2099.25725217 -70.5502209571,2102.58606305 -79.1326345176,2085.64500533 -82.21878658,2079.43500259 -76.2322116016,2076.46817717 -76.7171539519,2075.47780582 -70.0820011242,2072.19909977 -70.8434743213,2070.67200969 -67.4150299382,2068.97314602 -71.1191473193,2061.10101886 " moovel_rot="-44.8" moovel_centroid="-78.0765833075,2106.36917113"/>
  <polygon id="203093868" class="tile" points="-98.5851457115,2075.60979471 -107.903303112,2075.78489185 -107.716273432,2100.38867773 -107.524257903,2110.11551914 -109.811309871,2110.03961096 -112.751257096,2109.94932178 -112.890331624,2102.75817274 -113.95502696,2102.74211327 -114.002214861,2100.66436026 -114.095240039,2100.18636035 -114.279563164,2099.71082908 -114.547320285,2099.26638471 -114.717449482,2099.05635475 -114.910403168,2098.84694195 -115.123304233,2098.67650974 -115.352124867,2098.52252517 -115.585932347,2098.37828574 -115.835659398,2098.25049395 -116.110320672,2098.17142791 -116.38996879,2098.10210701 -116.684577441,2098.06202156 -116.976308977,2098.06029954 -117.074134965,2094.46868926 -131.894518252,2094.61955695 -133.064707244,2093.57804768 -133.059946054,2068.10096383 -133.054192741,2061.31590727 -99.6388965927,2061.10101886 -98.7899793317,2062.43312365 -98.7441393991,2063.12062708 -98.610079198,2073.75246757 -98.5851457115,2075.60979471 " moovel_rot="-27.1" moovel_centroid="-117.433811532,2078.94163131"/>
  <polygon id="243689159" class="tile" points="-134.064707244,2127.00399638 -145.182003469,2127.18370006 -145.132285711,2061.44044828 -134.344191627,2061.10101886 -134.212536899,2092.55972509 -134.084134567,2122.15494589 -134.064707244,2127.00399638 " moovel_rot="-89.9" moovel_centroid="-139.678442175,2094.34766865"/>
  <polygon id="129803371" class="tile" points="-146.182003469,2093.58229295 -152.635501683,2093.57815106 -152.625770866,2061.10417489 -146.182811475,2061.10101886 -146.182003469,2093.58229295 " moovel_rot="-93.3" moovel_centroid="-149.406401748,2077.34583325"/>
  <polygon id="172947018" class="tile" points="-164.789700689,2064.26853692 -160.003933163,2061.10101886 -154.661260967,2061.13886013 -153.635501683,2095.11773791 -164.783460837,2104.53346795 -164.789700689,2064.26853692 " moovel_rot="18.0" moovel_centroid="-159.602340807,2081.2533938"/>
  <polygon id="404687718" class="tile" points="-165.789700689,2061.97179023 -169.136845475,2062.306196 -195.503212684,2061.18544018 -198.670979776,2061.10101886 -199.45023316,2092.45636148 -198.752834739,2151.97483729 -165.841819115,2152.00490212 -165.789700689,2061.97179023 " moovel_rot="-69.1" moovel_centroid="-182.490163473,2106.80767837"/>
  <polygon id="27811410" class="tile" points="-200.48823245,2109.76641957 -217.617492672,2110.53570345 -218.151533506,2072.24142824 -200.45023316,2061.10101886 -200.48823245,2109.76641957 " moovel_rot="-86.0" moovel_centroid="-208.838642261,2088.16416685"/>
  <polygon id="160975684" class="tile" points="-219.175042173,2064.81669131 -219.330848347,2081.03237632 -219.397012153,2090.2500253 -219.370957822,2092.34910301 -219.151533506,2110.13068308 -256.742919201,2110.09282581 -256.740310749,2106.22827972 -256.726006879,2078.87962019 -252.672996911,2074.43737322 -244.943198034,2066.69872223 -239.354315374,2061.10101886 -220.740742137,2064.53152476 -219.175042173,2064.81669131 " moovel_rot="-4.4" moovel_centroid="-237.081897933,2087.8545193"/>
  <polygon id="242358898" class="tile" points="-317.678815211,2138.73859867 -274.392738805,2156.86497025 -257.742919201,2117.18205335 -296.9198683,2100.77653611 -295.269379009,2096.85959402 -279.716942642,2103.37017195 -268.783886127,2077.33618003 -307.560942108,2061.10101886 -317.6323665,2085.09242524 -298.516977147,2093.09608547 -317.678815211,2138.73859867 " moovel_rot="56.3" moovel_centroid="-289.68418918,2111.25851149"/>
  <polygon id="25807953" class="tile" points="-364.029805942,2061.26545575 -333.556631191,2061.10101886 -329.917786966,2088.05671298 -325.50740924,2106.99578318 -318.893499695,2137.22846665 -318.678815211,2171.10437863 -364.047436341,2171.68128807 -364.039664391,2161.99293204 -364.029805942,2061.26545575 " moovel_rot="-91.6" moovel_centroid="-343.895236012,2120.39996512"/>
  <polygon id="279134872" class="tile" points="-394.548485585,2116.32165753 -368.543793054,2116.26611241 -368.540091443,2098.36328927 -365.055215161,2098.35489764 -365.047436341,2061.10101886 -394.537112513,2061.16483469 -394.540479338,2072.26740185 -394.548485585,2116.32165753 " moovel_rot="41.6" moovel_centroid="-380.316701833,2087.96956387"/>
  <polygon id="60108677" class="tile" points="-395.566276059,2117.05843032 -408.57966865,2125.13466804 -433.092784266,2083.27609073 -395.548485585,2061.10101886 -395.566276059,2117.05843032 " moovel_rot="-54.3" moovel_centroid="-409.203849838,2092.72079992"/>
  <polygon id="106369172" class="tile" points="-446.16643553,2061.11145534 -434.094797769,2061.10101886 -434.092784266,2073.3864883 -446.153497824,2073.39747818 -446.16643553,2061.11145534 " moovel_rot="-92.9" moovel_centroid="-440.126925497,2067.24818332"/>
  <polygon id="243689163" class="tile" points="-447.175956092,2099.00908146 -463.041261044,2099.00629533 -463.031316324,2072.16198972 -463.03178802,2061.10101886 -447.16643553,2061.11048398 -447.175956092,2099.00908146 " moovel_rot="-89.6" moovel_centroid="-455.103284201,2080.05697865"/>
  <polygon id="213265592" class="tile" points="-464.041261044,2061.1109996 -464.045233565,2071.73521763 -469.692262007,2071.73188406 -469.688942475,2061.10101886 -464.041261044,2061.1109996 " moovel_rot="-84.4" moovel_centroid="-466.867219056,2066.41967693"/>
  <polygon id="421630765" class="tile" points="-470.704710413,2112.71997094 -492.252092781,2126.46171115 -501.445795964,2105.39889604 -502.086920435,2103.76806318 -502.76448937,2102.02478237 -496.470835024,2076.46124108 -499.175711923,2071.37191637 -479.657234288,2061.10101886 -478.91711551,2063.36657319 -476.73752795,2070.00531973 -470.692262007,2088.48921858 -476.62020985,2091.9461841 -482.922235089,2095.63222093 -477.348683972,2103.84478156 -470.704710413,2112.71997094 " moovel_rot="-55.9" moovel_centroid="-487.142213551,2093.75009678"/>
  <polygon id="79593891" class="tile" points="-505.181812993,2061.10101886 -503.76448937,2096.71599355 -531.93529157,2098.20084365 -531.915260237,2062.32806693 -505.181812993,2061.10101886 " moovel_rot="62.7" moovel_centroid="-518.208101902,2079.74342481"/>
  <polygon id="88810690" class="tile" points="-541.171430168,2122.05440178 -549.708102094,2122.06433925 -549.757719832,2061.10586328 -532.978078206,2061.10101886 -532.93529157,2122.04866083 -541.171430168,2122.05440178 " moovel_rot="0.8" moovel_centroid="-541.345049255,2091.57741553"/>
  <polygon id="161452008" class="tile" points="-550.757719832,2130.78155029 -555.001275188,2130.78512431 -555.030903321,2061.10459308 -550.78735143,2061.10101886 -550.757719832,2130.78155029 " moovel_rot="-93.2" moovel_centroid="-552.89431244,2095.94307638"/>
  <polygon id="47042188" class="tile" points="-572.393041095,2078.87910131 -572.399483408,2061.10101886 -564.613809571,2061.10439576 -563.335077755,2061.10367142 -556.031427233,2061.10714952 -556.030903321,2078.87384521 -572.393041095,2078.87910131 " moovel_rot="-3.9" moovel_centroid="-564.21453754,2069.98970976"/>
  <polygon id="4575461" class="tile" points="0.0,2237.51691171 -0.0795026471838,2172.0928752 -34.8066933369,2171.68128807 -34.8660738347,2227.54750051 0.0,2237.51691171 " moovel_rot="-63.6" moovel_centroid="-16.982040362945117,2202.29760862"/>
  <polygon id="56589479" class="tile" points="-103.229994294,2171.68128807 -103.223571433,2298.75007789 -74.719508877,2311.91341129 -73.7542251211,2309.86443029 -72.717920245,2307.65741566 -51.1376404626,2318.73516609 -36.8660738347,2289.69310138 -46.7836098133,2284.61771339 -47.2258275811,2275.2636786 -48.0341827195,2258.26590089 -48.9544587282,2238.95728385 -49.6971117722,2223.37747183 -48.5642635811,2197.01445657 -50.9944791339,2194.90958916 -43.5721663347,2178.69650997 -46.1270807266,2177.17826639 -48.7493309299,2175.61817495 -56.2124869619,2188.16896013 -88.9907988602,2172.24806471 -91.6887174711,2176.43979516 -103.229994294,2171.68128807 " moovel_rot="43.5" moovel_centroid="-74.8940662467,2245.19053541"/>
  <polygon id="60251775" class="tile" points="-121.62517866,2171.69252811 -121.580143017,2233.26306349 -104.229994294,2233.25191893 -104.264089341,2171.68128807 -115.870972239,2171.68906787 -121.62517866,2171.69252811 " moovel_rot="-89.5" moovel_centroid="-112.924849185,2202.46903155"/>
  <polygon id="27475139" class="tile" points="-160.156647982,2247.04873318 -136.256707458,2247.34197676 -136.939810964,2295.63074064 -122.62517866,2295.73435979 -122.629665628,2202.22184563 -140.139703655,2202.24790107 -140.145845771,2174.70347071 -158.140834119,2171.68128807 -158.70569697,2206.86326631 -160.156647982,2247.04873318 " moovel_rot="22.3" moovel_centroid="-139.855588087,2229.07496107"/>
  <polygon id="176463777" class="tile" points="-161.218315825,2171.68128807 -170.56269143,2171.69713151 -180.254466177,2171.70505603 -180.240494188,2189.37919667 -174.329272074,2189.37141252 -174.309773597,2213.80191524 -204.554003526,2213.82494118 -211.126533792,2213.82754618 -211.105015298,2246.90876759 -161.156647982,2246.8670908 -161.18694761,2213.54503731 -161.218315825,2171.68128807 " moovel_rot="0.5" moovel_centroid="-181.34523893,2219.09672351"/>
</svg>