<svg xmlns="http://www.w3.org/2000/svg" version="1.1" width="592.5px" height="1200px">
  <polygon id="11" class="bin" points="-162.633909989,996.868042373 -162.552764703,996.952026781 -162.639613911,999.864520022 -165.102390592,1005.25125539 -165.61964567,1019.17205269 -165.625357592,1019.28214067 -166.898829777,1038.39312316 -166.905778617,1038.48160675 -168.194244255,1052.72642156 -168.199879726,1052.78380459 -169.780946504,1067.70289591 -168.252780887,1073.0303447 -167.838933759,1073.57029771 -168.232106344,1076.43126073 -168.774353494,1076.83812103 -171.681850621,1081.56095527 -174.19580801,1096.51354523 -174.213388046,1096.61032725 -179.435171954,1123.35751566 -178.334979451,1127.96018038 -174.932993867,1129.73690742 -170.527049129,1128.00988775 -164.505950846,1121.79788286 -163.706784471,1120.80314057 -156.69866829,1110.19500658 -154.901120694,1108.75632987 -152.601720842,1108.63916184 -151.715401834,1108.87599642 -151.173906347,1108.99750314 -149.327317043,1109.33421006 -147.120324914,1110.62130712 -146.2500005,1113.023383 -146.2500005,1124.91573217 -146.760545345,1126.8047611 -148.760604118,1130.23461895 -158.232784936,1204.2261769 -159.474846574,1206.56497388 -161.952429356,1207.499999 -446.2499995,1207.499999 -448.901649929,1206.40164943 -449.9999995,1203.749999 -449.9999995,3.75 -448.901649929,1.09834957055 -446.2499995,0.0 -199.023400993,0.0 -196.371704517,1.09839561804 -195.273400995,3.75013024085 -195.275460534,63.0500298327 -196.896762623,66.1371548805 -198.778836726,66.3642795524 -198.743027497,66.7657938699 -204.547200877,67.2834415966 -207.25534612,71.4438492069 -208.92519645,84.7736483079 -208.978500522,85.6275682689 -208.980833906,123.860614298 -208.965747286,124.316223967 -206.535393486,160.939961809 -206.479571107,161.4696016 -199.515893562,209.5765857 -197.94617588,212.781748859 -194.800702866,214.467893575 -185.722926828,216.123689032 -183.102241574,218.01983984 -182.932190823,221.2500816 -184.851974514,225.876549805 -184.906545972,335.741940802 -182.81004888,340.654703132 -178.080883624,345.18209749 -173.2373993,347.068967344 -150.077397619,346.590860861 -147.375856753,347.661187379 -146.2500005,350.340062068 -146.2500005,362.289771864 -147.566180501,365.142668675 -191.331593881,402.479153451 -193.335712973,406.723969103 -191.483180545,411.037097533 -172.463376408,428.463826942 -171.297329304,430.614637568 -171.705907878,433.026839 -177.931129711,444.419953696 -178.398017925,445.477097195 -183.570741598,460.495445724 -183.927463601,462.240334945 -189.04985451,533.642364302 -190.26307325,536.144573503 -192.865978624,537.123263551 -209.5456346,536.786323661 -213.247173675,538.027389458 -214.953436656,540.749611217 -214.456941199,544.621965552 -205.441588505,562.316311314 -204.752869165,563.402797034 -188.848160508,583.950038393 -188.639387191,584.206743148 -164.072054317,612.971599522 -163.362138029,614.232884426 -161.5288692,619.793649558 -147.147027725,636.652950365 -146.2500005,639.086681316 -146.2500005,675.359265129 -147.605854519,678.24553695 -150.692968512,679.044681705 -153.27898199,677.178820126 -155.187941971,673.738723809 -158.678731449,670.990681486 -163.08525023,671.556313893 -204.587842369,695.592599392 -206.903714688,698.076501467 -207.443149589,701.429417229 -204.309522805,724.341389113 -204.284781281,724.577961716 -202.779157925,745.313363799 -202.770091201,745.508455107 -202.289545766,769.064054337 -202.305612874,769.495603834 -204.37016576,791.202393286 -204.400167268,791.438236185 -207.513789559,810.950991438 -206.693836996,815.420736738 -190.576631051,843.498984766 -187.111373478,846.180783905 -183.636240257,845.749320985 -180.441868479,846.902309655 -179.488423646,850.161809139 -179.527985427,850.372811821 -176.814790588,864.037877803 -176.805672154,864.085406525 -174.492160044,876.579468675 -174.478354638,876.658769118 -172.341009945,889.767115899 -172.332761721,889.820083142 -170.357533581,903.129319817 -170.346835436,903.206987489 -169.575435995,909.275956599 -169.561471822,909.40312678 -169.022393167,915.226400282 -166.384379879,920.194478622 -165.880152633,920.605705429 -165.592280588,923.46442451 -165.806039761,923.725585498 -167.529092588,929.190296495 -165.905713755,949.09668613 -165.899152596,949.19216653 -165.359701685,958.841323211 -165.355120893,958.953215847 -164.900556081,976.443132779 -164.899302656,976.530892131 -164.860910248,991.418316706 -162.618370655,996.861640481 -162.633909989,996.868042373 " moovel_rot="0" moovel_centroid="-315.41019432245963,617.3556941461368"/>
  <polygon id="410340330" class="tile" points="1.0,1201.0 51.9740890943,1201.00095867 51.9698848797,1298.74741334 1.00188684352,1298.74922919 1.00030771755,1233.57896406 1.0,1201.0 " moovel_rot="28.2" moovel_centroid="26.48626435954464,1249.873409778222"/>
  <polygon id="32229017" class="tile" points="80.2274759488,1248.44452554 80.1856967933,1201.0 53.3562954869,1201.17077978 52.9740890943,1235.67130729 53.0648783518,1248.34202243 80.2274759488,1248.44452554 " moovel_rot="82.6" moovel_centroid="66.6791745456,1224.799304719374"/>
  <polygon id="219121423" class="tile" points="103.458058287,1201.0 106.676679542,1207.16983312 109.677528516,1242.18777495 109.556339012,1244.55904196 105.382947402,1245.13382605 103.239369954,1248.02940492 103.53640512,1249.80220497 102.000534932,1251.752748 81.2292066171,1252.03007396 81.2274759488,1248.11246634 81.2554775331,1217.49733431 84.7532715328,1217.04913441 84.0135089063,1213.18191548 84.5569655386,1213.07889638 84.4398346567,1212.18633944 83.4042078995,1206.23663781 83.3121369065,1205.70211675 82.917402505,1205.76202926 82.1375034383,1201.1581584 103.458058287,1201.0 " moovel_rot="8.9" moovel_centroid="94.6783295018,1227.0421582404397"/>
  <polygon id="220871441" class="tile" points="127.640381984,1219.88246753 110.687746199,1219.8910212 110.677528516,1201.00179835 127.641047719,1201.0 127.640381984,1219.88246753 " moovel_rot="-89.6" moovel_centroid="119.16117012,1210.4428120310308"/>
  <polygon id="395577878" class="tile" points="128.653328435,1217.81545903 128.641047719,1201.00188075 136.493441355,1201.0 136.492248302,1211.74370297 134.446918348,1211.73940655 134.449477405,1217.80975841 128.653328435,1217.81545903 " moovel_rot="-92.5" moovel_centroid="132.268645738,1208.8464111733633"/>
  <polygon id="396117860" class="tile" points="137.493441355,1249.11654891 137.503131043,1201.02529647 146.964872049,1201.0 146.956288448,1249.10397606 137.493441355,1249.11654891 " moovel_rot="-36.5" moovel_centroid="142.229641765,1225.0619244943948"/>
  <polygon id="396521207" class="tile" points="147.964872049,1201.0 147.971125201,1210.55842122 154.187592975,1213.17938626 154.220128999,1203.75259195 147.964872049,1201.0 " moovel_rot="-33.4" moovel_centroid="151.07964963,1207.1149502680182"/>
  <polygon id="252115732" class="tile" points="166.006235395,1213.00111733 156.490942151,1212.99218048 155.220128999,1202.95368918 166.009466668,1201.0 166.006235395,1213.00111733 " moovel_rot="-83.7" moovel_centroid="161.065052256,1207.3485211737875"/>
  <polygon id="363763442" class="tile" points="167.009466668,1201.59286691 198.860946485,1201.0 199.65877234,1241.10614771 177.961817135,1242.30387025 177.943683931,1248.44356924 167.01324983,1248.95010907 167.009466668,1201.59286691 " moovel_rot="3.1" moovel_centroid="182.548574655,1222.8939312844657"/>
  <polygon id="28119162" class="tile" points="230.754962055,1291.70460998 228.744836818,1226.73820298 230.809592942,1226.62499994 230.13845686,1201.0 220.575745261,1201.41497559 202.684007569,1227.4715132 200.65877234,1241.39524932 201.080437576,1256.20044545 205.957750198,1273.09492966 215.084003293,1292.11511318 229.460600695,1291.73643098 230.754962055,1291.70460998 " moovel_rot="-79.5" moovel_centroid="217.622383204,1247.8931058113321"/>
  <polygon id="329711347" class="tile" points="231.829538341,1203.35841235 231.809592942,1217.46940341 243.216758826,1215.16703109 240.024987366,1201.0 237.809953446,1201.63215159 231.829538341,1203.35841235 " moovel_rot="62.7" moovel_centroid="236.808399972,1209.6119169812507"/>
  <polygon id="108857057" class="tile" points="246.604354337,1267.90293812 269.543990536,1267.79885795 270.366540564,1267.81625558 282.657634621,1267.86996196 282.697807277,1208.74249562 280.30792455,1208.74702068 280.330936901,1201.28136362 246.652328925,1201.0 246.649902198,1208.85835741 244.227843344,1208.85633616 244.216758826,1216.20854792 246.649536703,1216.21274998 246.588710798,1252.94544545 246.589407043,1260.07512594 246.604354337,1267.90293812 " moovel_rot="-78.5" moovel_centroid="264.367623861,1234.5583602677575"/>
  <polygon id="224942682" class="tile" points="283.697807277,1201.0 283.740997139,1293.34918948 333.277029025,1293.44238164 333.2340547,1201.09283203 283.697807277,1201.0 " moovel_rot="30.9" moovel_centroid="308.487488136,1247.2210673050095"/>
  <polygon id="60608755" class="tile" points="334.277029025,1220.84935061 348.687121176,1221.39417066 348.657019837,1201.78247088 334.641343205,1201.0 334.277029025,1220.84935061 " moovel_rot="-11.6" moovel_centroid="341.549878559,1211.301157546453"/>
  <polygon id="381646556" class="tile" points="359.460741264,1201.0 359.796863,1223.48522094 354.80576813,1223.59220784 354.688771319,1229.43460751 349.687121176,1229.48921397 349.706308055,1201.23618596 355.760286593,1201.08522396 359.460741264,1201.0 " moovel_rot="78.6" moovel_centroid="354.380886028,1214.064792491639"/>
  <polygon id="126794646" class="tile" points="377.474292228,1235.00921983 360.796863,1216.56470163 377.481039737,1201.0 377.474292228,1235.00921983 " moovel_rot="-11.2" moovel_centroid="371.917398322,1217.5246404878794"/>
  <polygon id="389024518" class="tile" points="397.800707994,1243.49421337 397.843342119,1201.0 378.481039737,1203.028512 380.88103553,1242.84342939 397.800707994,1243.49421337 " moovel_rot="-80.5" moovel_centroid="388.83281459,1222.112166929303"/>
  <polygon id="27361821" class="tile" points="400.254982121,1241.85268477 405.202467682,1241.4642049 405.565592358,1247.87928258 424.971848785,1246.89128945 421.994879396,1241.768324 435.619219694,1240.41755845 435.408753392,1232.06247744 436.710946289,1229.12432959 437.136440062,1226.65003968 437.358699521,1224.45901946 436.718417262,1222.31297674 436.123681905,1219.79834621 428.923724671,1219.60374794 412.371289904,1221.41783214 412.960441782,1218.47601569 410.677688939,1201.0 400.902785432,1201.63004478 401.739162961,1210.63003175 398.843342119,1211.34489464 401.866597964,1231.34130952 398.851619469,1233.18064683 400.254982121,1241.85268477 " moovel_rot="-74.5" moovel_centroid="415.43083058,1228.2413472309474"/>
  <polygon id="330713652" class="tile" points="438.358699521,1243.34828576 438.422580677,1201.0 449.653771278,1201.28538017 449.804882552,1241.6989021 448.518637108,1242.65217495 438.358699521,1243.34828576 " moovel_rot="-91.1" moovel_centroid="444.030505144,1222.0935343764024"/>
  <polygon id="179145700" class="tile" points="450.804882552,1226.09185811 464.681567916,1226.13659403 464.691011809,1201.0381735 459.055416077,1201.02359834 450.805522288,1201.0 450.804882552,1226.09185811 " moovel_rot="53.3" moovel_centroid="457.746042101,1213.5655606507112"/>
  <polygon id="124018649" class="tile" points="500.526771878,1211.77627942 500.563973378,1201.0 471.573778426,1201.94901468 471.190205662,1216.08959444 465.691011809,1216.67886826 468.79200722,1264.57301657 484.540333397,1264.37053764 494.78018186,1256.25575151 501.906063657,1249.17001371 506.329360779,1241.75617468 507.654814792,1235.52040382 507.67095621,1211.4470665 500.526771878,1211.77627942 " moovel_rot="12.0" moovel_centroid="485.956279685,1231.5749354169855"/>
  <polygon id="210753062" class="tile" points="544.125849089,1205.55080375 544.989156465,1223.94875967 544.998607446,1257.41942157 508.67095621,1254.20524509 511.847925692,1201.12854345 530.091939079,1201.0 544.125849089,1205.55080375 " moovel_rot="-52.9" moovel_centroid="527.475104887,1229.4419311650702"/>
  <polygon id="316133667" class="tile" points="547.54975368,1248.57433524 546.733349318,1224.29132406 545.998607446,1202.29628289 561.099695755,1201.0 561.085263241,1221.35434044 553.963592941,1221.44460888 553.919358949,1224.59734312 553.16345754,1248.65051599 547.54975368,1248.57433524 " moovel_rot="-88.2" moovel_centroid="552.484472874,1220.09850643058"/>
  <polygon id="53502429" class="tile" points="562.099695755,1219.09387713 562.104042088,1201.0 572.962309285,1201.02943879 572.963758035,1219.11404185 562.099695755,1219.09387713 " moovel_rot="32.0" moovel_centroid="567.531986535,1210.060142586972"/>
  <polygon id="44647436" class="tile" points="44.6551035739,1303.75744274 33.3956464693,1302.49343459 8.40673036091,1299.69237871 0.00834491215646,1298.74922919 0.0,1392.87253403 9.20065697394,1393.61793536 23.6286481379,1394.79186436 35.5797114009,1395.75918544 44.6551035739,1303.75744274 " moovel_rot="-84.0" moovel_centroid="20.10308413470886,1346.0160099"/>
  <polygon id="361889903" class="tile" points="62.9397597482,1298.93820878 56.3942742495,1298.8634333 46.6710752569,1298.74922919 46.6551035739,1327.63868656 54.2603244934,1327.72877508 54.161690373,1330.28586128 62.9294947818,1330.25690347 62.9339965254,1301.88513558 62.9397597482,1298.93820878 " moovel_rot="76.6" moovel_centroid="54.9628634901,1313.9862969"/>
  <polygon id="125497068" class="tile" points="63.9538584127,1301.79518132 63.9397597482,1352.80809143 71.2652622059,1347.54912393 95.7814218238,1327.10543885 94.5000127219,1325.09820044 69.0327468712,1298.74922919 63.9538584127,1301.79518132 " moovel_rot="-16.6" moovel_centroid="74.8972604698,1325.15771269"/>
  <polygon id="137881488" class="tile" points="114.122734828,1299.8773534 113.99973045,1314.63080569 114.132472533,1332.0765325 104.729018566,1331.9638239 96.7814218238,1331.86990767 96.7843895084,1298.74922919 104.483373112,1299.25387212 114.122734828,1299.8773534 " moovel_rot="14.2" moovel_centroid="105.382942954,1315.64486244"/>
  <polygon id="361684182" class="tile" points="115.132472533,1312.66047741 115.172974808,1338.30934839 132.803834788,1338.45976871 133.482439291,1313.6181813 133.207707055,1298.80898463 127.335909428,1298.74922919 125.30964743,1298.75433647 115.132472533,1312.66047741 " moovel_rot="28.2" moovel_centroid="124.808349055,1320.12623264"/>
  <polygon id="188137383" class="tile" points="134.483278186,1306.46614433 141.672129042,1306.46497158 141.671290672,1298.74922919 134.482439291,1298.75040192 134.483278186,1306.46614433 " moovel_rot="-87.4" moovel_centroid="138.077284296,1302.60768671"/>
  <polygon id="91711648" class="tile" points="142.686620368,1298.74922919 145.442580277,1298.75104559 145.430014624,1330.38771616 142.672129042,1330.39229531 142.686620368,1298.74922919 " moovel_rot="-73.2" moovel_centroid="144.057788859,1314.57191064"/>
  <polygon id="10248833" class="tile" points="146.52393844,1346.23567246 171.875037376,1346.49054701 172.162829391,1299.56758527 146.442580277,1298.74922919 146.52393844,1346.23567246 " moovel_rot="49.3" moovel_centroid="159.226170412,1322.70317795"/>
  <polygon id="109768096" class="tile" points="181.015267234,1384.21804985 205.904883896,1394.52467934 194.25923397,1423.70941136 184.488045583,1428.87108403 180.369528918,1437.65766407 173.162829391,1436.53030426 173.194983949,1363.89333907 181.084111003,1344.7023267 184.517793927,1316.59709928 186.701639442,1298.74922919 197.739946682,1300.93944294 194.09875045,1339.29960665 198.305167103,1342.45568664 181.015267234,1384.21804985 " moovel_rot="41.3" moovel_centroid="185.852259054,1376.09915304"/>
  <polygon id="164199809" class="tile" points="206.924725503,1299.06268719 222.447147617,1298.74922919 222.573854113,1320.6029619 206.904883896,1320.8583319 206.924725503,1299.06268719 " moovel_rot="-22.3" moovel_centroid="214.716312657,1309.83530922"/>
  <polygon id="25023387" class="tile" points="254.840196748,1298.74922919 228.885280037,1299.66802161 228.971881874,1307.053774 224.416517859,1306.89828226 223.646763815,1355.86832698 223.573854113,1360.62367059 241.619065819,1361.34287127 242.201754535,1384.26878903 254.692832671,1386.64060814 254.886128533,1364.60336501 254.840196748,1298.74922919 " moovel_rot="-13.1" moovel_centroid="240.990354729,1336.87976699"/>
  <polygon id="378270186" class="tile" points="265.201550773,1302.15880894 267.335316064,1301.75584764 283.34466468,1298.74922919 284.963366127,1307.42422661 288.657539173,1306.93708969 288.638189114,1309.46486056 288.650317399,1319.07491368 269.760494865,1322.49842947 269.498007427,1319.87930744 262.121027457,1321.94095011 260.846871732,1323.15621056 260.795649334,1325.99131412 262.299995385,1328.99298909 266.242752802,1331.02970405 266.589357673,1333.59440365 272.174445481,1338.02221633 281.216234861,1339.21028721 281.337814446,1347.12045134 270.505223418,1348.10743394 270.859333256,1345.94956436 267.206188959,1345.17209513 267.868671963,1338.8919898 264.664743581,1339.15320593 260.710593289,1339.73034105 258.936454426,1329.47475048 258.217213774,1324.44037563 255.886128533,1312.08192592 266.285099247,1310.21562709 265.36487494,1305.12880626 264.944450656,1302.79430251 264.729713132,1302.21643792 265.201550773,1302.15880894 " moovel_rot="-32.9" moovel_centroid="272.488161795,1319.61143757"/>
  <polygon id="40527864" class="tile" points="289.657539173,1362.08712164 317.64918877,1310.08803066 320.654189934,1311.38800473 324.438859992,1305.77961743 329.766422141,1303.472003 336.140915528,1302.28944228 337.380098382,1298.74922919 354.883287779,1298.88431322 354.960761595,1380.01698363 346.603784983,1392.65385173 289.657539173,1362.08712164 " moovel_rot="30.9" moovel_centroid="330.439542953,1345.19633563"/>
  <polygon id="125509234" class="tile" points="355.960761595,1298.81153536 378.572996312,1298.74922919 378.587476033,1333.40305227 367.310887878,1333.43117669 355.979286344,1333.46004288 355.960761595,1298.81153536 " moovel_rot="-53.4" moovel_centroid="367.275418207,1316.10537186"/>
  <polygon id="390545062" class="tile" points="379.828105725,1310.16367225 384.87158375,1309.96779614 384.888553924,1298.74922919 379.587476033,1298.89316406 379.828105725,1310.16367225 " moovel_rot="-78.6" moovel_centroid="382.291152203,1304.39698171"/>
  <polygon id="85797905" class="tile" points="404.334244244,1298.75891739 404.315514014,1336.28068817 385.888553924,1336.2600432 385.906690757,1298.74922919 404.334244244,1298.75891739 " moovel_rot="3.1" moovel_centroid="395.111699283,1317.5121201"/>
  <polygon id="249629287" class="tile" points="405.334244244,1298.7520528 405.339081212,1306.46074205 410.433463918,1306.45791897 410.428628925,1298.74922919 405.334244244,1298.7520528 " moovel_rot="75.0" moovel_centroid="407.883854604,1302.6049855"/>
  <polygon id="240267189" class="tile" points="411.433463918,1298.74922919 446.798556363,1298.90743521 446.782441743,1359.69374676 411.437665401,1359.55595854 411.433463918,1298.74922919 " moovel_rot="23.2" moovel_centroid="429.112046801,1329.22367671"/>
  <polygon id="105185955" class="tile" points="447.798556363,1335.37556531 462.487881972,1327.20266777 470.740758771,1322.60736756 467.055989291,1315.96992655 470.634335043,1313.97311828 469.310909982,1311.59540388 475.246039751,1308.29224108 476.844063595,1311.17337029 480.285253303,1309.26025368 478.817322252,1306.60909512 492.950818298,1298.74922919 497.926485449,1307.70688602 504.253874707,1318.95507906 503.746226306,1319.22057432 503.778749265,1319.27806665 498.600449713,1322.03194858 499.789895562,1324.28978838 484.242339159,1332.533557 484.197158168,1332.45818709 483.700412005,1332.71596313 483.95690036,1333.20535816 484.012289465,1333.17956047 504.085990956,1371.08954827 504.003346302,1371.13464409 504.27248972,1371.64191251 491.07715279,1378.59599688 484.655260514,1367.05251339 474.117349571,1372.91680206 471.554563844,1368.30321866 467.38680544,1370.62341996 447.798556363,1335.37556531 " moovel_rot="-35.3" moovel_centroid="478.863723727,1340.09110094"/>
  <polygon id="96118440" class="tile" points="505.27248972,1298.74922919 513.685002217,1298.78441369 513.99675782,1305.49976114 522.032901652,1305.65110653 521.725741571,1325.01326767 510.151307919,1324.87731566 505.284931646,1324.81905401 505.27248972,1298.74922919 " moovel_rot="45.6" moovel_centroid="512.971147393,1313.21288721"/>
  <polygon id="133039336" class="tile" points="523.171119879,1298.90431781 528.30565088,1298.74922919 528.34133158,1323.61868451 523.032901652,1323.47882634 523.171119879,1298.90431781 " moovel_rot="-61.0" moovel_centroid="525.717803947,1311.25661125"/>
  <polygon id="330713642" class="tile" points="529.367373108,1298.76472684 539.721015083,1298.74922919 539.694966744,1328.84936944 529.34133158,1328.86488633 529.367373108,1298.76472684 " moovel_rot="-19.5" moovel_centroid="534.531171079,1313.8070513"/>
  <polygon id="396710852" class="tile" points="545.06616025,1298.74922919 545.075067808,1337.12862492 542.10898172,1339.13363051 540.723384021,1336.95825966 540.721015083,1301.56772562 545.06616025,1298.74922919 " moovel_rot="-21.9" moovel_centroid="542.917678701,1319.1317424"/>
  <polygon id="28506762" class="tile" points="546.093445103,1301.38960611 554.557007153,1298.74922919 561.976788629,1329.81905719 562.191321513,1356.26752001 546.075067808,1359.22489687 546.093445103,1301.38960611 " moovel_rot="5.1" moovel_centroid="553.278827509,1331.4419692"/>
  <polygon id="144070400" class="tile" points="2.63470810801,1438.35204468 53.3155612785,1437.65766407 83.3046122661,1447.18617322 79.7378966952,1456.35327054 77.8193639785,1461.85285798 76.2136320435,1467.03072441 74.7986069446,1472.24893749 74.0185320072,1475.47225994 72.924689582,1475.33395055 72.983430868,1474.72389897 68.6685760117,1473.89062399 48.9187913155,1470.21877573 48.9648997089,1469.1127419 23.4885307104,1462.19576018 23.2131836322,1462.68600281 24.3304982501,1501.60506837 22.4161233877,1501.69560277 22.6230695643,1508.4662758 41.7284230496,1508.86560707 42.0984623822,1525.58016353 49.1471449686,1525.6871522 49.3842405838,1509.42686331 51.8104186286,1488.55061325 59.7433872205,1489.36944497 67.1416748637,1490.02684532 76.4029237515,1490.91860216 76.7381218923,1514.54554337 78.0520700812,1519.57569199 79.2588729557,1523.62798774 79.9452023685,1525.62913546 80.6010817984,1527.52839844 82.2113564199,1531.85042551 83.3701866997,1535.42532259 0.428318292741,1555.34325706 0.0,1493.38013478 2.63470810801,1438.35204468 " moovel_rot="5.5" moovel_centroid="36.35325902899747,1494.38804737"/>
  <polygon id="264665865" class="tile" points="85.3701866997,1486.78760783 102.280938612,1487.12509033 102.273479866,1437.75454748 86.3523059692,1437.65766407 85.3701866997,1486.78760783 " moovel_rot="-93.5" moovel_centroid="94.0730926467,1462.5792801"/>
  <polygon id="28044928" class="tile" points="121.803586062,1519.98685871 130.142637676,1515.42994461 134.164783414,1512.05315301 136.520553353,1502.55855794 136.527804644,1451.47585813 129.300348469,1443.7614077 120.170340232,1437.65766407 118.068850875,1438.69001678 115.980432862,1439.72512362 109.610037372,1443.84763282 103.467014458,1448.21921474 103.875634183,1453.85968017 103.533474748,1465.91326016 103.280938612,1474.75591708 103.508166751,1501.79307103 105.606059263,1510.5274917 112.114954366,1517.08462116 117.779105107,1522.11148088 121.803586062,1519.98685871 " moovel_rot="11.9" moovel_centroid="119.932803338,1479.52546186"/>
  <polygon id="381871467" class="tile" points="141.084041089,1437.65766407 140.962843428,1602.57906372 137.527804644,1602.85559692 137.664892096,1438.1085099 141.084041089,1437.65766407 " moovel_rot="77.6" moovel_centroid="139.310149944,1520.36441713"/>
  <polygon id="390401055" class="tile" points="143.49322078,1437.77983923 148.655729101,1437.65766407 148.722833799,1489.70586318 142.084041089,1489.41929464 143.49322078,1437.77983923 " moovel_rot="-19.9" moovel_centroid="145.728599086,1464.72529568"/>
  <polygon id="294263899" class="tile" points="149.732502577,1437.65766407 149.722833799,1458.63874629 156.562152284,1458.68549625 156.571821062,1437.70441408 149.732502577,1437.65766407 " moovel_rot="0.3" moovel_centroid="153.147327429,1448.17158017"/>
  <polygon id="44418720" class="tile" points="157.623007171,1524.97147837 157.645192328,1472.56286851 158.729093617,1439.06794912 175.006224058,1437.65766407 175.152713153,1535.4307141 157.571821062,1537.50804373 157.623007171,1524.97147837 " moovel_rot="-48.6" moovel_centroid="166.437427513,1487.92808304"/>
  <polygon id="28487111" class="tile" points="176.152713153,1437.65766407 192.574401224,1437.67399326 192.619376537,1493.21695637 176.202871628,1493.19087908 176.152713153,1437.65766407 " moovel_rot="28.0" moovel_centroid="184.387579705,1465.43341013"/>
  <polygon id="381961975" class="tile" points="193.624350343,1445.22719792 193.619376537,1438.4558004 198.53217483,1437.65766407 198.533324641,1444.51558725 193.624350343,1445.22719792 " moovel_rot="-65.2" moovel_centroid="196.082466854,1441.46282251"/>
  <polygon id="442908145" class="tile" points="209.113944509,1437.65766407 200.67395674,1445.45574687 199.533324641,1511.74971121 209.120379474,1521.37223526 209.113944509,1437.65766407 " moovel_rot="-3.0" moovel_centroid="204.776864548,1479.96244792"/>
  <polygon id="32671119" class="tile" points="224.662472978,1438.72209599 223.724034297,1547.75549333 210.28461271,1547.79017495 210.120379474,1437.65766407 224.662472978,1438.72209599 " moovel_rot="52.6" moovel_centroid="217.189165223,1492.25877691"/>
  <polygon id="141105457" class="tile" points="225.662472978,1490.53803395 226.534834638,1462.67107069 225.701534788,1438.28476166 241.130917441,1437.65766407 242.193499958,1463.23036479 240.738844653,1491.31097932 233.36537768,1490.9303989 225.662472978,1490.53803395 " moovel_rot="-92.6" moovel_centroid="233.870796183,1464.34943323"/>
  <polygon id="27475120" class="tile" points="243.359937848,1437.65766407 258.644408383,1437.67557055 264.854637327,1437.68149902 264.63436757,1719.21661779 243.193499958,1719.18088935 243.359937848,1437.65766407 " moovel_rot="84.5" moovel_centroid="254.010724385,1578.37558692"/>
  <polygon id="399658713" class="tile" points="270.754677718,1477.1204044 266.797525826,1467.89193537 265.854637327,1451.40685588 268.592854879,1450.4819462 270.506282119,1437.65766407 287.135200035,1441.03264865 285.208076103,1451.2706196 282.392764847,1451.75318662 283.123457952,1462.41927685 287.114211794,1471.20013908 270.754677718,1477.1204044 " moovel_rot="-46.4" moovel_centroid="275.968737654,1457.11508113"/>
  <polygon id="29595841" class="tile" points="288.135200035,1492.01279204 288.152025748,1437.65766407 317.402259222,1437.6770142 317.391112811,1452.24228036 320.491146776,1452.2477416 320.485493058,1492.03760157 288.135200035,1492.01279204 " moovel_rot="-94.1" moovel_centroid="303.931624805,1465.37140519"/>
  <polygon id="106989148" class="tile" points="321.495855267,1437.67643769 340.474990879,1437.65766407 340.472387424,1459.98250439 321.491146776,1460.00761684 321.495855267,1437.67643769 " moovel_rot="-71.4" moovel_centroid="330.983146191,1448.83126253"/>
  <polygon id="175772747" class="tile" points="361.509498819,1511.28142189 342.860590698,1512.13721715 341.474990879,1438.64008782 388.733172033,1437.65766407 388.723149492,1470.75594822 359.841527136,1472.77153115 361.509498819,1511.28142189 " moovel_rot="-54.1" moovel_centroid="360.950222701,1466.58259396"/>
  <polygon id="98041059" class="tile" points="390.053025062,1463.99662119 411.808091726,1480.59760439 419.721840003,1480.55570622 419.753858781,1437.65766407 389.733172033,1439.63475598 390.053025062,1463.99662119 " moovel_rot="-45.7" moovel_centroid="406.255831855,1456.95141584"/>
  <polygon id="203858582" class="tile" points="469.609697798,1438.6193877 469.804217684,1515.8407704 433.231034428,1516.0699799 433.134236987,1509.88385915 430.452688162,1509.8928987 430.555582924,1516.06774222 420.753858781,1516.13215661 420.785766633,1491.72726981 421.046232792,1491.20955524 425.252623608,1491.96436207 439.970797314,1494.58996738 449.292997065,1439.43210616 449.487600925,1437.65766407 469.609697798,1438.6193877 " moovel_rot="-3.0" moovel_centroid="451.796056512,1483.96088749"/>
  <polygon id="162789813" class="tile" points="470.804217684,1437.65766407 480.765245904,1437.6819846 480.771409343,1452.53540094 470.814271597,1452.51650956 470.804217684,1437.65766407 " moovel_rot="54.5" moovel_centroid="475.788483045,1445.09740588"/>
  <polygon id="26495010" class="tile" points="493.706624692,1498.09405012 506.938262279,1498.09752522 506.917462189,1440.57511282 499.105071253,1440.57483785 499.103163195,1437.66133202 481.771409343,1437.65766407 481.776210444,1472.43327192 481.796376345,1518.84141052 493.709861984,1518.84848567 493.706624692,1498.09405012 " moovel_rot="81.1" moovel_centroid="493.303455844,1474.00770938"/>
  <polygon id="395048082" class="tile" points="539.663791237,1478.48738666 536.299221329,1482.07837551 536.078443534,1482.32390947 511.487325505,1459.41317298 515.766222318,1454.53535585 508.017840943,1447.31849189 512.645369551,1442.68812833 517.345294018,1437.65766407 556.054791147,1473.72838646 553.775532621,1476.15603821 572.351579068,1493.45944 527.648839612,1541.20535729 507.938262279,1522.84542742 514.631477538,1515.69353731 521.331351436,1508.54217065 522.277889043,1507.52126124 518.830365199,1504.31471257 536.19008475,1485.7667265 539.556320136,1488.90092276 542.179861879,1486.35835966 542.46700956,1484.53838281 542.687542796,1483.129933 542.323758258,1481.90485487 542.028983132,1480.90474333 539.663791237,1478.48738666 " moovel_rot="4.6" moovel_centroid="536.501251617,1492.55983545"/>
  <polygon id="334355483" class="tile" points="0.723140477389,1741.54602925 1.75508544669,1740.60316172 1.47442805674,1739.23380383 0.0,1736.75320822 2.07242469359,1735.69192492 1.32897713743,1734.08089976 3.06804231629,1732.91130138 2.24125491288,1731.27319747 4.03476426043,1730.2196096 3.59311653245,1729.34572854 5.33975427747,1727.90469775 4.94892527014,1726.59084056 6.49732353576,1725.72448126 5.80469489638,1723.67348004 10.8922776667,1719.21661779 18.9254487796,1725.29606312 19.4005759869,1727.73288198 18.2355776254,1727.98641156 19.2078978689,1730.31088534 18.0361072278,1731.11701663 19.1185984969,1733.38598953 18.1374743929,1733.88888162 19.0850263501,1736.28958243 18.2869957807,1736.7606676 19.4768131636,1738.69932236 18.6115495339,1739.69634793 19.3310054725,1741.66476825 12.6741657224,1743.96839071 6.89881820586,1744.37430722 0.00818026419729,1745.69601068 0.723140477389,1741.54602925 " moovel_rot="-72.0" moovel_centroid="10.363299356259576,1733.75048364"/>
  <polygon id="107330064" class="tile" points="21.4768131636,1745.38891306 22.4203122364,1719.21661779 41.921313238,1719.91986331 41.4527132008,1732.32541673 41.92687518,1746.39069039 21.4768131636,1745.38891306 " moovel_rot="-71.0" moovel_centroid="31.8330267781,1732.83390507"/>
  <polygon id="7631616" class="tile" points="43.0234010115,1860.08469201 42.92687518,1732.26730127 56.2696829539,1719.21661779 82.2371264127,1721.89317307 131.580146976,1726.17173205 138.964554216,1735.84856227 139.380594306,1755.65496524 151.335767109,1777.20915854 139.887162112,1783.92537377 144.16426122,1799.26126585 133.136600004,1805.67218065 110.645492555,1819.40464453 111.628059656,1821.07103123 109.401626847,1822.26742607 43.0234010115,1860.08469201 " moovel_rot="21.4" moovel_centroid="87.5428374154,1779.10981989"/>
  <polygon id="207540686" class="tile" points="152.35191088,1719.49226555 152.427263485,1724.9102361 152.335767109,1735.92940531 165.251770813,1735.92197269 165.22911104,1719.21661779 152.35191088,1719.49226555 " moovel_rot="-22.5" moovel_centroid="158.829598413,1727.64672074"/>
  <polygon id="96681170" class="tile" points="184.184238114,1719.21661779 166.251770813,1720.356453 167.372508567,1759.36621865 184.126514524,1758.76245807 184.184238114,1719.21661779 " moovel_rot="-58.3" moovel_centroid="175.498265703,1739.20093018"/>
  <polygon id="33721049" class="tile" points="202.014898514,1767.02521173 201.96482844,1719.28388416 185.751667258,1719.21661779 185.184238114,1756.82220927 202.014898514,1767.02521173 " moovel_rot="-7.9" moovel_centroid="194.04824995,1740.83236749"/>
  <polygon id="266926628" class="tile" points="203.014898514,1719.21661779 209.465818259,1728.48163377 213.031301639,1726.01745735 230.869306191,1753.69904301 225.894084105,1755.07879421 229.288779556,1761.32127807 205.266356549,1774.62244063 203.027364291,1769.89799784 205.464877715,1736.04881403 203.014898514,1719.21661779 " moovel_rot="-15.5" moovel_centroid="213.983848403,1750.49429097"/>
  <polygon id="115924297" class="tile" points="246.637746804,1719.25296374 246.632528087,1734.1805537 231.869306191,1734.13833982 231.877715376,1719.21661779 246.637746804,1719.25296374 " moovel_rot="61.3" moovel_centroid="239.254806944,1726.69738908"/>
  <polygon id="136892624" class="tile" points="269.326701378,1719.2771963 256.912134412,1719.24291063 247.65763181,1719.21661779 247.637746804,1743.26619872 269.319599165,1743.32602689 269.326701378,1719.2771963 " moovel_rot="55.2" moovel_centroid="258.485364649,1731.27279679"/>
  <polygon id="367712464" class="tile" points="282.185376072,1719.21661779 292.549992426,1720.19436802 291.81934951,1750.65795164 292.293641608,1757.88034922 292.493685268,1793.48038621 270.883270741,1792.85260436 270.326701378,1724.83814615 282.070867314,1725.07180676 282.185376072,1719.21661779 " moovel_rot="12.7" moovel_centroid="281.649783974,1757.70784104"/>
  <polygon id="283715163" class="tile" points="294.838336695,1758.92374968 308.962399484,1756.84188065 307.969036999,1750.95018958 307.164871299,1745.72300405 309.988471048,1745.28173256 308.68679549,1736.78355431 315.077532672,1735.78535487 312.503577958,1719.46596637 311.158683325,1719.61249727 310.03108584,1719.84140848 309.86673475,1719.21661779 296.818781958,1721.35233858 297.752971122,1726.75201768 293.563682755,1727.12997007 294.50371689,1734.42599517 295.575154256,1744.82291173 293.549992426,1745.15385651 294.838336695,1758.92374968 " moovel_rot="-77.5" moovel_centroid="303.089636943,1737.99435609"/>
  <polygon id="286062768" class="tile" points="316.131995763,1719.23402174 332.813933007,1719.21661779 332.83819795,1780.75177079 324.341688365,1780.63933757 322.231447123,1780.61851672 321.904753683,1787.31592126 316.077532672,1787.27402815 316.131995763,1719.23402174 " moovel_rot="-3.9" moovel_centroid="324.268351678,1751.23712026"/>
  <polygon id="199088904" class="tile" points="375.375331479,1819.98152769 333.83819795,1760.45898498 351.961637164,1725.54638116 356.612674117,1719.21661779 362.382083981,1722.68703425 362.190549413,1725.26003834 377.08297827,1746.12656835 371.255406441,1750.89486281 363.022451141,1739.00021204 348.921943692,1739.75866948 337.612798127,1762.03117239 376.983053248,1818.75683956 375.375331479,1819.98152769 " moovel_rot="65.3" moovel_centroid="356.471039816,1750.13566604"/>
  <polygon id="310371808" class="tile" points="392.796259604,1719.21661779 378.091953032,1719.23633261 378.08297827,1731.96573583 389.815532712,1736.65250137 389.842987244,1736.63453562 389.388984057,1732.76495019 390.036771085,1732.67630009 390.644344926,1732.48625054 391.213542568,1732.17763515 391.720566737,1731.77400858 392.143457121,1731.2817591 392.471225207,1730.72404168 392.698376729,1730.1124338 392.823074681,1729.46410184 392.796259604,1719.21661779 " moovel_rot="56.8" moovel_centroid="385.47500107,1726.58085525"/>
  <polygon id="409575363" class="tile" points="472.49498919,1839.89861719 410.985757616,1835.07351409 393.921403978,1833.34534737 393.823074681,1719.21661779 473.592041732,1721.54277739 472.49498919,1839.89861719 " moovel_rot="21.9" moovel_centroid="433.691891428,1778.44554551"/>
  <polygon id="27849634" class="tile" points="474.592041732,1765.38408007 474.647802639,1719.21661779 518.229993983,1719.84319121 518.416790756,1763.70219842 512.939915733,1763.91184977 499.87335744,1764.41025694 481.097699276,1765.14070433 474.592041732,1765.38408007 " moovel_rot="64.4" moovel_centroid="496.284620873,1742.06010062"/>
  <polygon id="326747439" class="tile" points="519.416790756,1719.21661779 535.606144391,1719.24467196 535.617305151,1740.44548323 519.42797887,1740.4174115 519.416790756,1719.21661779 " moovel_rot="57.3" moovel_centroid="527.517055911,1729.83104314"/>
  <polygon id="297107749" class="tile" points="542.48192116,1797.27523055 542.451348356,1719.22200145 536.617305151,1719.21661779 536.65841774,1797.26680474 542.48192116,1797.27523055 " moovel_rot="73.9" moovel_centroid="539.55226171,1758.23340078"/>
  <polygon id="272528122" class="tile" points="548.438196844,1736.1626418 548.438523874,1719.21661779 543.48192116,1719.63619278 543.967632964,1736.32463658 548.438196844,1736.1626418 " moovel_rot="-94.3" moovel_centroid="546.084780418,1727.68921051"/>
  <polygon id="448827956" class="tile" points="563.197196483,1719.21661779 549.454474664,1719.52795607 549.438523874,1739.22509195 563.497790843,1739.10564731 563.197196483,1719.21661779 " moovel_rot="76.5" moovel_centroid="556.408781934,1729.30604164"/>
  <polygon id="135580576" class="tile" points="583.396194295,1719.21661779 583.405838553,1751.0536904 575.09916142,1752.05479975 569.86490711,1754.14797818 569.669633343,1752.22252832 565.812329504,1752.42830142 565.605613168,1736.96095926 569.398268877,1736.70596853 569.304575406,1734.17898464 565.512823391,1734.21440001 564.706766377,1734.27394605 564.497790843,1730.50591702 568.607904557,1730.12437902 568.519403122,1725.20442437 572.781058822,1722.26346619 572.72273618,1720.67721685 573.390970142,1720.65167848 573.428724298,1719.39724321 580.281268509,1719.40133973 580.310117513,1720.95724336 581.88802631,1720.90699295 581.992252372,1719.33944679 583.396194295,1719.21661779 " moovel_rot="-5.0" moovel_centroid="575.070107828,1737.01875808"/>
  <polygon id="109008135" class="tile" points="14.9690420927,1860.10885449 14.9725948574,1896.55226736 7.75162432641,1896.53890481 0.0135792385787,1896.52359881 0.0,1860.08469201 14.9690420927,1860.10885449 " moovel_rot="65.8" moovel_centroid="7.488958960628656,1878.31543751"/>
  <polygon id="169831979" class="tile" points="45.6935813708,1860.91938114 44.9966661468,1860.897845 44.9102082182,1860.08469201 41.1651905935,1860.10976568 41.1662803549,1860.97991935 41.191959125,1861.00391748 33.7328338027,1861.22542998 34.1987268992,1875.86331905 29.1631495135,1875.84493405 29.5702642513,1867.33745944 22.9799628302,1867.52743576 21.9145462578,1876.96132678 17.3619125422,1877.2033489 16.9725948574,1889.7653076 17.1380855203,1937.79295479 17.0166437864,1937.78489638 17.0792686686,1941.17171538 50.534560268,1941.07188964 50.5418810491,1938.20065938 50.0956307437,1938.16261272 50.0978725301,1933.52559416 50.0721936991,1933.50159616 50.5475657279,1933.4927691 50.562848424,1925.78183339 50.0739140451,1925.77228705 50.0620461056,1921.21325628 50.5619273735,1921.16749225 50.5655751638,1914.16375922 50.0538530104,1914.15571395 50.0534212731,1909.19131813 50.0338007649,1909.17013225 50.5714776855,1909.15399008 50.5803736966,1901.23472205 50.0337471236,1901.22255361 50.0337279536,1896.71731516 50.0080491556,1896.69331709 50.5820761198,1896.69404742 50.5816096328,1889.3501773 50.0121952388,1889.33951004 50.011010316,1884.77332834 49.9853315275,1884.74933025 50.5821463389,1884.74855935 50.6185223375,1877.07150031 49.9882487237,1877.08089738 49.9763968222,1872.52183207 50.6023338124,1872.47418646 50.6075402752,1869.17919226 45.6873442095,1869.16605805 45.6935813708,1860.91938114 " moovel_rot="24.9" moovel_centroid="34.2039476297,1904.31189068"/>
  <polygon id="213608057" class="tile" points="51.6751150377,1929.17427237 51.6185223375,1860.10571792 76.0863330821,1860.08469201 76.1429304186,1929.15324641 51.6751150377,1929.17427237 " moovel_rot="-90.8" moovel_centroid="63.8807252181,1894.62948327"/>
  <polygon id="51361474" class="tile" points="91.6173557168,1860.10765711 77.1429304186,1860.08469201 77.1754836669,1959.30215969 84.413674633,1959.15390949 91.6490235679,1958.88021801 91.6173557168,1860.10765711 " moovel_rot="57.1" moovel_centroid="84.3907842478,1909.60902576"/>
  <polygon id="37247503" class="tile" points="103.921049969,1860.08469201 92.6490235679,1871.41330392 93.3664387388,1943.58596253 103.935217896,1943.3336308 103.921049969,1860.08469201 " moovel_rot="12.6" moovel_centroid="98.590859388,1904.09126631"/>
  <polygon id="191094662" class="tile" points="109.687813317,1860.08469201 104.939627615,1869.75097369 150.273050159,1892.37790524 149.261998375,1964.1038596 135.795348964,1964.77852251 136.206719888,1969.88083078 104.935217896,1970.26413198 109.526280003,2007.62623985 118.991167236,2017.54540075 237.013644491,2017.14505038 237.062181822,1962.2052466 237.034692209,1954.20383472 236.43879589,1937.51885162 244.715105844,1924.52792279 203.951196232,1908.02976274 204.547933938,1905.15409539 187.020367485,1898.08724506 109.687813317,1860.08469201 " moovel_rot="-8.5" moovel_centroid="178.677631959,1960.38235161"/>
  <polygon id="247398123" class="tile" points="270.165344025,1919.09085321 270.142689849,1892.05857449 269.732604176,1860.08469201 246.279095119,1860.10838812 245.977029166,1891.49981377 245.715105844,1918.83278064 270.165344025,1919.09085321 " moovel_rot="17.6" moovel_centroid="258.02609832,1889.73590865"/>
  <polygon id="124130172" class="tile" points="271.165344025,1937.47727604 290.093661664,1937.53113689 290.153032336,1860.13844155 271.224655508,1860.08469201 271.165344025,1937.47727604 " moovel_rot="28.0" moovel_centroid="280.659175671,1898.80786649"/>
  <polygon id="206381935" class="tile" points="291.351951497,1867.04415006 292.972308826,1868.70768553 291.391756101,1870.24166942 292.876472673,1871.75749724 291.153032336,1873.4355328 292.808853959,1875.13660589 291.277271008,1876.61916932 293.016449397,1878.40021516 291.297028619,1880.06804647 293.073867011,1881.89927994 291.33398089,1883.58261726 293.070963891,1885.35101228 291.316826853,1887.05230353 293.028952437,1888.81090622 291.156412518,1890.6305393 291.804995264,1891.29848178 292.945680539,1892.4666666 291.201777571,1894.16020129 292.851386218,1895.8588228 291.201402774,1897.459722 293.032349615,1899.33583456 300.37560012,1892.21156322 298.64884977,1890.43541524 300.319300581,1888.81900488 298.565496918,1887.02041505 300.389069122,1885.25219719 298.531070027,1883.35364008 300.299459577,1881.63439086 298.624994459,1879.92597462 300.44235342,1878.15530587 298.65089081,1876.30652572 300.458017419,1874.54360917 298.635483,1872.68258871 300.265004673,1871.09718646 298.680111217,1869.47118968 300.340332236,1867.86252502 298.672082493,1866.15655427 300.262869172,1864.61481412 298.634102026,1862.93617993 300.002333091,1861.61317147 298.515421449,1860.08469201 291.351951497,1867.04415006 " moovel_rot="21.5" moovel_centroid="295.793978302,1879.74803779"/>
  <polygon id="447035879" class="tile" points="301.489795554,1974.61794043 306.588025722,1973.87450116 306.528577259,1860.08469201 301.458017419,1860.48844245 301.489795554,1974.61794043 " moovel_rot="-83.5" moovel_centroid="304.014873482,1917.31846945"/>
  <polygon id="208811730" class="tile" points="314.615860854,1903.44310837 314.625059505,1892.2290121 314.631736997,1885.09439369 307.588025722,1885.10551295 307.598597265,1860.08469201 322.395854842,1860.1304178 322.376141663,1903.48906863 321.183120649,1903.48558847 314.615860854,1903.44310837 " moovel_rot="63.2" moovel_centroid="315.966749705,1878.6337379"/>
  <polygon id="98922081" class="tile" points="323.395854842,1915.35693937 341.330850734,1921.21757522 341.340735763,1870.050613 341.157475524,1861.6455442 325.086221768,1860.08469201 323.395854842,1915.35693937 " moovel_rot="61.6" moovel_centroid="332.871867569,1890.10800044"/>
  <polygon id="25636941" class="tile" points="342.340735763,1860.08469201 342.344252138,1894.59590182 349.87410172,1894.52389409 349.981096303,1860.17411064 342.340735763,1860.08469201 " moovel_rot="-16.5" moovel_centroid="346.132148225,1877.30275172"/>
  <polygon id="213281283" class="tile" points="363.911061085,1860.09163988 363.923144627,1882.23744838 350.990978931,1882.22419435 350.981096303,1860.08469201 363.911061085,1860.09163988 " moovel_rot="70.6" moovel_centroid="357.451877202,1871.15980751"/>
  <polygon id="49939481" class="tile" points="364.923144627,1860.48582892 370.273365426,1860.08469201 376.694465659,1860.22243738 376.635082382,1869.98409854 376.677836114,1883.75569511 364.968304458,1884.1599705 364.923144627,1860.48582892 " moovel_rot="-18.7" moovel_centroid="370.795940686,1872.076895"/>
  <polygon id="312083285" class="tile" points="391.305928179,1860.08469201 377.694465659,1860.09238836 377.742418027,1946.51524061 391.353790867,1946.50762789 391.305928179,1860.08469201 " moovel_rot="47.0" moovel_centroid="384.524151753,1903.29993974"/>
  <polygon id="10352470" class="tile" points="392.353790867,1890.86029762 403.740060908,1890.79309464 403.587471606,1860.08469201 392.369018735,1860.54957173 392.353790867,1890.86029762 " moovel_rot="-93.6" moovel_centroid="398.025068055,1875.60916924"/>
  <polygon id="160953284" class="tile" points="416.939950449,1888.32367133 420.114322493,1860.08469201 493.385742365,1866.32865702 493.478069631,1988.69013755 486.915311234,1989.12672405 437.126908245,1958.55247511 439.988001113,1953.60835467 404.740060908,1931.74483021 413.920053506,1916.10464654 416.939950449,1888.32367133 " moovel_rot="22.6" moovel_centroid="457.179074856,1916.94092779"/>
  <polygon id="195656565" class="tile" points="508.075662674,1860.08469201 508.941041775,1865.10618917 509.960610164,1872.17211683 509.727110311,1878.09825357 509.020713316,1883.77603497 503.201727944,1882.73417473 501.164554509,1880.87690634 498.264929146,1878.83173737 494.478069631,1876.37532212 494.537623921,1872.60626187 494.482923485,1866.32693786 497.526034021,1863.75217231 503.280420541,1860.55177544 508.075662674,1860.08469201 " moovel_rot="-85.1" moovel_centroid="502.857103222,1871.7080111"/>
  <polygon id="352964068" class="tile" points="526.535613104,1913.79307131 510.960610164,1913.82541283 512.133690923,1860.08469201 518.482611999,1860.13578859 518.645667378,1876.02639923 524.315026413,1876.42112928 524.458009513,1886.6483782 530.806922997,1886.69945921 530.852741304,1914.00549416 526.535613104,1913.79307131 " moovel_rot="-26.0" moovel_centroid="519.72558007,1892.64790741"/>
  <polygon id="267327739" class="tile" points="531.854889619,1860.40983876 531.852741304,1870.9120759 539.486833755,1870.74508327 539.365668103,1864.49823356 539.27790585,1860.08469201 531.854889619,1860.40983876 " moovel_rot="-19.3" moovel_centroid="535.628432186,1865.56209778"/>
  <polygon id="35085102" class="tile" points="540.498782211,1904.96118121 557.622569674,1904.95876423 557.592528153,1900.82238962 563.913447149,1900.62944903 567.956845156,1896.15167032 573.902352409,1896.11658396 573.764467765,1860.17523382 557.484438702,1860.08469201 557.457565104,1865.20848791 540.486833755,1865.20796432 540.498782211,1904.96118121 " moovel_rot="-88.6" moovel_centroid="556.898537417,1882.35061945"/>
  <polygon id="284961797" class="tile" points="576.528891574,1861.48166985 574.902352409,1861.65634715 574.90257114,1871.4257453 576.942728485,1871.99872788 576.895467359,1878.01027973 582.233770153,1877.91931893 582.65746223,1867.93622495 587.81485803,1867.79632323 587.50982796,1860.08469201 578.230242937,1860.46014065 578.326467688,1861.31120524 576.528891574,1861.48166985 " moovel_rot="-29.4" moovel_centroid="580.587125382,1867.57849749"/>
  <polygon id="25344696" class="tile" points="0.000851885508746,2017.55162932 10.6490461302,2017.54540075 10.6481818895,2062.66978204 0.0,2062.67597893 0.000851885508746,2017.55162932 " moovel_rot="21.3" moovel_centroid="5.324520599414082,2040.1106934"/>
  <polygon id="24524775" class="tile" points="12.6925074755,2018.4242641 58.7964865458,2017.54540075 61.5526221555,2067.22932674 12.6490461302,2075.17452868 12.6925074755,2018.4242641 " moovel_rot="19.8" moovel_centroid="35.92463411,2044.91780817"/>
  <polygon id="53574697" class="tile" points="84.4164619629,2048.29652418 84.4166514928,2036.88034151 77.6978222055,2036.67199699 78.1863578972,2022.71770841 71.413183753,2020.36016792 63.1091924569,2017.54540075 62.5526221555,2047.83158411 84.4164619629,2048.29652418 " moovel_rot="-17.5" moovel_centroid="71.8100137398,2035.31452886"/>
  <polygon id="28494509" class="tile" points="105.171039072,2017.54540075 105.176855998,2047.43171925 85.433239615,2047.44254972 85.4166514928,2017.54926771 105.171039072,2017.54540075 " moovel_rot="-88.5" moovel_centroid="95.2990623995,2032.49087633"/>
  <polygon id="30763876" class="tile" points="122.65519987,2053.91207535 122.644644266,2023.44035928 122.638338049,2017.9570334 117.212103776,2018.54545976 110.289956067,2017.54540075 109.764905221,2018.86467343 109.228124107,2020.18915787 111.369583261,2022.08374879 110.953720529,2035.66865209 106.319971299,2035.94241777 106.176855998,2053.7251394 122.65519987,2053.91207535 " moovel_rot="-82.6" moovel_centroid="115.397075205,2037.39798377"/>
  <polygon id="316133665" class="tile" points="134.512277403,2052.21590896 133.696032628,2034.97173018 134.522009448,2018.06156155 125.297245049,2017.54540075 123.65519987,2036.06563066 123.953017861,2050.94398519 124.002137046,2052.95381506 134.512277403,2052.21590896 " moovel_rot="-91.4" moovel_centroid="129.097960177,2035.58472733"/>
  <polygon id="88508639" class="tile" points="135.522009448,2141.8376525 143.010127171,2150.69255744 144.968063214,2149.04423946 162.294006623,2169.51228746 192.13954584,2198.6925542 218.938448476,2193.3119279 264.617709041,2175.72134305 239.770191387,2146.93889623 257.543335157,2126.2528216 250.498825517,2119.71959962 238.654282484,2108.9898702 226.704590671,2122.99272645 216.174632601,2111.22106392 220.950815582,2105.53822056 225.448389517,2100.09305999 208.668218892,2086.14987997 228.164890589,2063.37123055 250.491573265,2081.92170824 264.639860785,2065.02375182 240.391206389,2043.1689025 244.292612102,2036.94995509 227.810555481,2017.54540075 174.515400381,2063.88359565 198.484219688,2090.09396415 190.92195082,2097.46842555 188.015213472,2093.86313928 159.792848587,2118.3777373 163.416994637,2121.64027606 160.835623312,2122.53597065 158.389101143,2122.30454348 154.959302324,2125.53435025 135.522009448,2141.8376525 " moovel_rot="-77.1" moovel_centroid="206.690289869,2121.63291509"/>
  <polygon id="355449229" class="tile" points="265.639860785,2049.48527932 265.663765758,2026.21072329 278.55069596,2026.23104119 278.557681499,2017.54540075 283.170713873,2017.55578031 283.100567228,2084.50340774 277.778401072,2084.49480913 277.817645012,2049.50734086 265.639860785,2049.48527932 " moovel_rot="-18.1" moovel_centroid="276.589328668,2045.4175062"/>
  <polygon id="91271962" class="tile" points="284.197211608,2062.60014179 306.042342101,2062.57435093 306.015858731,2017.54540075 284.170713873,2017.57119061 284.197211608,2062.60014179 " moovel_rot="-86.0" moovel_centroid="295.106531535,2040.07276855"/>
  <polygon id="257176876" class="tile" points="307.052610945,2017.54540075 316.722346234,2017.56982693 316.706922078,2035.39680595 307.042342101,2035.36268404 307.052610945,2017.54540075 " moovel_rot="28.0" moovel_centroid="311.881494881,2026.4678898"/>
  <polygon id="9896861" class="tile" points="325.573912402,2102.5430588 350.402591686,2101.78453635 347.856621487,2017.54540075 317.819815893,2018.47292369 317.722346234,2102.7885371 325.573912402,2102.5430588 " moovel_rot="-12.4" moovel_centroid="333.459155228,2060.73876167"/>
  <polygon id="111565357" class="tile" points="351.402591686,2017.54540075 351.415301081,2033.90302829 364.494848232,2033.7387944 364.386925108,2038.43246409 367.869083994,2038.37362528 367.918807527,2021.43573013 366.262055365,2021.37225905 364.496355564,2021.31817244 364.531405435,2017.65226492 351.402591686,2017.54540075 " moovel_rot="18.7" moovel_centroid="359.708609402,2026.60710801"/>
  <polygon id="269909167" class="tile" points="368.927309205,2032.44167072 376.53266401,2032.42856025 376.524167892,2017.54540075 368.918807527,2017.55850977 368.927309205,2032.44167072 " moovel_rot="-75.5" moovel_centroid="372.725737096,2024.99353447"/>
  <polygon id="337784289" class="tile" points="400.489019066,2063.53132549 392.310461506,2053.14240858 393.562719439,2052.05115894 387.736448524,2045.32939624 377.53266401,2033.40881842 380.486249593,2030.3366608 382.265360605,2017.54540075 395.163844006,2018.8753862 409.055975477,2020.18056442 407.548078451,2036.46812735 399.896706155,2035.62755574 403.291088268,2039.55686319 398.909327196,2043.64789934 400.394801676,2045.58463888 409.026105492,2055.74284216 406.594594524,2057.95204994 400.489019066,2063.53132549 " moovel_rot="-79.8" moovel_centroid="394.903136672,2035.90310996"/>
  <polygon id="101326361" class="tile" points="427.326577107,2017.54540075 428.142836819,2037.22071474 413.858685388,2038.29335346 414.619985004,2050.11418207 410.064166408,2050.58440166 410.055975477,2027.1867308 412.455549214,2023.31779466 416.53335573,2018.73935406 427.326577107,2017.54540075 " moovel_rot="78.5" moovel_centroid="418.447070617,2030.86672567"/>
  <polygon id="296537245" class="tile" points="433.203222169,2017.54540075 454.660761839,2022.84764003 449.112423456,2046.08406979 461.247580366,2048.91561097 457.173177891,2064.96823591 429.155793238,2058.34641767 434.383280024,2036.81723541 429.142836819,2035.35951009 433.203222169,2017.54540075 " moovel_rot="-80.8" moovel_centroid="443.46030257,2042.30523723"/>
  <polygon id="176090908" class="tile" points="479.086649846,2017.57319458 479.037607399,2077.33114531 462.247580366,2077.30334582 462.296589044,2017.54540075 466.995292089,2017.55143666 471.040479106,2017.55848095 479.086649846,2017.57319458 " moovel_rot="80.5" moovel_centroid="470.667091619,2047.43778374"/>
  <polygon id="33436636" class="tile" points="488.399715379,2019.0089899 480.106002462,2017.54540075 480.086649846,2055.56490299 497.265930157,2051.95667652 496.342641597,2040.42798911 493.795637987,2026.78640018 488.399715379,2019.0089899 " moovel_rot="32.5" moovel_centroid="487.443072483,2037.65086177"/>
  <polygon id="24148204" class="tile" points="547.715114493,2165.77288646 498.265930157,2165.86536518 498.341933397,2035.17233424 510.483571015,2035.14557352 510.354052031,2017.61878761 547.651836266,2017.54540075 547.768194538,2039.11670383 547.715114493,2165.77288646 " moovel_rot="-19.3" moovel_centroid="523.577545465,2093.66727802"/>
  <polygon id="142575831" class="tile" points="548.799964365,2062.37286149 548.768194538,2017.54540075 563.027434382,2017.59363484 563.059429982,2062.42777094 548.799964365,2062.37286149 " moovel_rot="-91.9" moovel_centroid="555.913932773,2039.98497555"/>
  <polygon id="74817148" class="tile" points="0.0140990951099,2208.32636079 20.548950862,2198.6925542 35.0316437576,2229.52298061 24.3301312943,2234.54496604 29.7402756067,2246.0672333 6.47491338789,2256.97592642 0.0,2243.19419589 13.4383150248,2236.89508311 0.0140990951099,2208.32636079 " moovel_rot="-19.4" moovel_centroid="16.578134172285246,2227.37191547"/>
  <polygon id="27325991" class="tile" points="37.0405895242,2198.71739683 48.8733569208,2198.6925542 48.8643941098,2221.3217987 37.0316437576,2221.34666252 37.0405895242,2198.71739683 " moovel_rot="-38.8" moovel_centroid="42.9524951539,2210.01960035"/>
  <polygon id="323724694" class="tile" points="49.8764012001,2208.25474038 60.5769907366,2208.25219653 60.5771742666,2198.70234134 70.9236725572,2198.6925542 70.9269198585,2219.41304877 81.761085457,2219.4091058 81.6659234599,2254.96991167 70.6814985962,2254.6578341 49.8733569208,2254.52529483 49.8919534279,2250.56063732 49.8764012001,2208.25474038 " moovel_rot="-0.6" moovel_centroid="64.9488591804,2231.00970791"/>
  <polygon id="389628375" class="tile" points="90.4804799441,2203.4845903 90.4848723989,2198.70255559 88.7282030731,2198.70128456 82.761085457,2198.6925542 82.7689321192,2202.38542474 82.7625598606,2220.06980113 87.0082715027,2220.08086649 88.6066046027,2220.08668499 90.4758317485,2220.08287733 90.4812346373,2212.30127004 90.4804799441,2203.4845903 " moovel_rot="73.7" moovel_centroid="86.6232128402,2209.38815562"/>
  <polygon id="103259917" class="tile" points="91.4848723989,2275.22215266 107.794646717,2273.93099661 107.234630153,2198.6925542 91.5803703509,2198.95528861 91.4848723989,2275.22215266 " moovel_rot="73.6" moovel_centroid="99.5069092861,2236.96122737"/>
  <polygon id="267293560" class="tile" points="119.018468433,2198.71900467 119.017697479,2216.18012255 108.794646717,2216.15366228 108.79540335,2198.6925542 119.018468433,2198.71900467 " moovel_rot="55.6" moovel_centroid="113.906554475,2207.43633389"/>
  <polygon id="382974342" class="tile" points="122.605841117,2198.6925542 140.762403948,2204.99347476 140.755948455,2234.3621789 140.771166751,2234.86353284 140.384383723,2234.86524858 138.622104981,2234.85038568 136.410350346,2234.86624481 136.646022689,2233.95496747 135.925433641,2232.73985913 130.671362758,2232.86201368 129.888546697,2234.20834263 128.819853935,2233.29888242 121.380478911,2228.93305823 121.107015318,2229.19017959 120.018468433,2228.78430767 120.805777842,2201.06458814 121.781558026,2201.07953654 122.605841117,2198.6925542 " moovel_rot="14.5" moovel_centroid="130.580064306,2217.19915895"/>
  <polygon id="322067157" class="tile" points="154.764553681,2203.77491193 156.753290722,2203.51860823 156.092177058,2198.6925542 144.906772489,2199.79958533 146.621176946,2212.98188338 141.771166751,2213.60785808 144.012499477,2232.30529193 152.112521446,2230.94544363 150.679718958,2219.95334115 156.766714496,2219.16647451 154.764553681,2203.77491193 " moovel_rot="72.1" moovel_centroid="149.311468528,2214.73639213"/>
  <polygon id="133022212" class="tile" points="181.97338468,2210.03685909 190.520343202,2227.67955683 184.067695519,2230.87658939 157.766714496,2243.03988184 158.189614983,2213.98068817 157.810742981,2198.6925542 181.97338468,2210.03685909 " moovel_rot="64.6" moovel_centroid="170.335322378,2221.16869444"/>
  <polygon id="187663935" class="tile" points="191.520343202,2298.46608157 208.302744998,2298.36844115 208.259164278,2269.40138433 207.768798839,2198.71713033 199.595895593,2198.6925542 191.533934739,2198.72799661 191.520343202,2298.46608157 " moovel_rot="-9.0" moovel_centroid="199.809029469,2248.86056489"/>
  <polygon id="23507219" class="tile" points="209.315367448,2337.4353732 209.302744998,2258.02515269 215.810670844,2210.88353883 237.230844485,2198.6925542 288.962427049,2296.25368949 209.315367448,2337.4353732 " moovel_rot="-29.9" moovel_centroid="238.91652645,2271.37795677"/>
  <polygon id="391484507" class="tile" points="296.36828208,2198.6925542 295.988346609,2202.87973586 290.458290934,2202.95181254 289.962427049,2235.41122709 292.755311032,2235.42930658 292.39054831,2241.93547856 292.38792988,2246.91335864 291.051930829,2246.91946329 290.701217115,2272.27534733 299.709863901,2272.42578964 299.716245251,2247.85387915 298.97738031,2247.34422332 299.224145286,2239.66992013 299.7232386,2198.75356243 296.36828208,2198.6925542 " moovel_rot="-1.2" moovel_centroid="295.201285752,2236.2325407"/>
  <polygon id="390545047" class="tile" points="301.830519954,2198.6925542 305.097943379,2201.93232589 308.231938332,2205.04037842 307.662557369,2214.27618043 307.776754857,2215.09048408 308.561587185,2216.24892132 309.612660415,2217.05740609 315.965185714,2217.43525483 315.984356151,2229.12216787 300.7232386,2228.74923308 301.830519954,2198.6925542 " moovel_rot="-24.5" moovel_centroid="307.036408623,2218.11762533"/>
  <polygon id="270646325" class="tile" points="323.299602415,2241.77636481 316.984356151,2240.42815419 317.278789713,2198.91314261 323.268253488,2198.6925542 323.299602415,2241.77636481 " moovel_rot="-75.4" moovel_centroid="320.225809141,2220.14365898"/>
  <polygon id="370263416" class="tile" points="324.927351921,2202.84168466 324.299602415,2210.09221231 332.579913522,2210.67238641 332.831322982,2206.16805929 339.568491227,2205.82276169 340.467267788,2248.98348389 350.78397489,2249.13197742 350.802969936,2200.1504787 350.757302498,2198.6925542 335.90409459,2198.76687756 325.044464847,2199.03638128 324.991867649,2200.84010164 324.927351921,2202.84168466 " moovel_rot="-24.7" moovel_centroid="342.497482289,2219.48422221"/>
  <polygon id="211681413" class="tile" points="356.590714888,2198.69832658 356.593984666,2205.67130114 351.80624094,2205.66552629 351.802969936,2198.6925542 356.590714888,2198.69832658 " moovel_rot="26.3" moovel_centroid="354.198477749,2202.1819269"/>
  <polygon id="30244808" class="tile" points="363.379481899,2200.02974305 358.434870433,2200.79079131 357.593984666,2216.78221963 359.646684298,2221.72095117 358.075879837,2413.13625902 362.959720564,2413.53452666 367.477535164,2413.75412355 367.748505156,2198.6925542 363.379481899,2200.02974305 " moovel_rot="-27.8" moovel_centroid="363.197502515,2307.94555501"/>
</svg>