<svg xmlns="http://www.w3.org/2000/svg" version="1.1" width="592.5px" height="1200px">
  <polygon id="6" class="bin" points="-169.566909107,643.885905992 -167.350685837,644.424693877 -166.093582572,647.656703418 -167.24002497,658.062188128 -168.551227788,660.519310148 -171.195199796,661.39458923 -178.648596633,660.941122108 -182.813970012,662.381441012 -185.058733943,667.02224682 -185.230270008,666.939274598 -185.893928692,668.35109716 -188.508092788,669.35369898 -188.753968895,669.349678445 -191.408418872,668.186130287 -192.440663942,665.477917018 -191.801610872,645.887514084 -193.255090809,641.871606935 -197.074784215,639.961094848 -205.917284388,639.217337701 -210.27311686,640.709651614 -212.120123903,644.927333718 -212.066122529,689.202380813 -210.557927235,693.084772409 -206.82888571,694.93999931 -149.65420431,700.234768237 -147.228788156,701.442354216 -146.2500005,703.968790866 -146.2500005,782.733190751 -147.375440655,785.411657779 -150.076232832,786.482415822 -237.566566774,784.703490296 -241.508581029,786.153530611 -243.420896665,789.893202014 -244.632706077,801.985144213 -244.663610872,802.885095897 -243.42306655,842.596612239 -243.295722401,843.715894137 -191.768762689,1104.12881417 -189.602845042,1107.60228498 -185.678927505,1108.76807652 -150.275104092,1106.16380078 -147.447466315,1107.15650326 -146.2500005,1109.90369624 -146.2500005,1172.48079766 -147.341662068,1175.12574317 -149.981060117,1176.23074982 -161.639638468,1176.28963536 -164.319426386,1175.1821045 -165.408308865,1172.49468514 -164.99694593,1138.21542309 -166.914390373,1133.87940536 -171.446882826,1132.48866633 -197.463929255,1135.90704027 -200.938065057,1137.69147633 -202.489836054,1141.27558547 -205.72002574,1191.10210312 -204.547328467,1194.98196229 -201.114848128,1197.13756078 -190.915391219,1199.23158592 -186.798766182,1200.07658843 -184.530568312,1201.5299394 -183.821988388,1204.12895174 -185.038688953,1206.53240558 -187.552791897,1207.499999 -446.2499995,1207.499999 -448.901649929,1206.40164943 -449.9999995,1203.749999 -449.9999995,3.75 -448.901649929,1.09834957055 -446.2499995,0.0 -198.526924848,0.0 -195.397343856,1.68403223218 -194.462510168,3.10014229331 -194.227630722,3.43395013258 -185.46292084,15.1360185604 -185.433509248,15.1758319461 -169.560562619,36.9618553095 -169.451996757,37.1068137934 -147.028350123,66.2393727269 -146.2500005,68.5266842576 -146.2500005,123.142847509 -147.316950003,125.762721557 -149.910661849,126.891783172 -180.666847166,127.62471549 -184.684487698,129.39943835 -186.275117244,133.493455242 -185.667595356,161.67234435 -185.666760984,161.706992352 -185.515074117,167.408738543 -185.514553132,167.430752903 -184.745093018,204.552297933 -183.892662327,207.721687719 -168.882474808,234.889844158 -168.859114955,234.931778528 -156.635740644,256.695466877 -156.220517825,259.227887891 -157.530926821,261.434331738 -159.95329402,262.281505475 -166.318072505,262.200122411 -210.901066836,261.628848264 -216.137331964,263.996538467 -220.175272121,268.707083829 -221.816159001,273.129546053 -222.069121118,405.378128618 -221.721801079,407.546884733 -219.366807355,414.664983631 -218.346380208,416.620630786 -218.132901586,416.905960737 -217.673737553,420.594186082 -219.605635997,425.232955774 -219.62373371,462.374540932 -217.951350383,466.430204251 -217.166822795,466.758647149 -215.38913979,469.395609439 -215.157057697,469.296998258 -213.159021131,473.999391088 -209.11714596,475.658215119 -197.775936181,475.654421934 -195.397104188,476.504486559 -194.097198221,478.670518874 -194.466105349,481.169590511 -203.042223292,497.244395037 -203.684452313,500.694654635 -202.227514613,503.887471879 -180.496301315,527.968101754 -179.539305055,530.740468413 -180.870617581,533.353793057 -188.983983005,540.157911134 -189.032303363,540.19775157 -203.334176612,551.790490162 -205.289097827,554.799543047 -205.106779818,558.383238956 -173.991445141,639.97713952 -169.566909107,643.885905992 " moovel_rot="0" moovel_centroid="-321.3389714471591,594.1148358260509"/>
  <polygon id="59453962" class="tile" points="5.47839017119,1201.0 57.0806791293,1209.06591634 57.1043405496,1271.39938149 45.6449037232,1270.97341217 24.4042912293,1268.37869 1.0,1265.53644755 2.61196254734,1243.65843004 5.47839017119,1201.0 " moovel_rot="61.1" moovel_centroid="30.007494821345624,1237.3578572622757"/>
  <polygon id="107328866" class="tile" points="59.6688841114,1211.30458656 58.1043405496,1211.42299715 58.1057197677,1216.86143081 67.417292092,1215.74526609 65.7744788107,1201.0 58.624237211,1201.74932823 59.6688841114,1211.30458656 " moovel_rot="-91.4" moovel_centroid="62.6731982209,1209.2420026446491"/>
  <polygon id="121104964" class="tile" points="68.4182489416,1202.12511936 68.417292092,1226.26228323 79.0506789017,1224.26285904 78.9303943556,1221.82607885 77.9360147087,1201.0 74.5460514715,1201.39998441 68.4182489416,1202.12511936 " moovel_rot="72.9" moovel_centroid="73.4351295812,1213.6377716791578"/>
  <polygon id="390164745" class="tile" points="80.0506789017,1201.05399771 80.0725064759,1220.48831351 84.1226662227,1220.53040351 84.1174814328,1225.78932132 84.9830122031,1225.81537569 85.8200193837,1225.79284234 85.8216092552,1225.4494941 91.3794489408,1225.4964183 91.4213232376,1220.59222469 94.0660555995,1220.62165844 94.0832437517,1210.01033445 96.7505266265,1209.99871713 96.7583238399,1204.86472283 90.6687387747,1201.0 80.0506789017,1201.05399771 " moovel_rot="-16.7" moovel_centroid="87.4958090748,1212.0812079606162"/>
  <polygon id="104786367" class="tile" points="97.7930665166,1201.0 113.157451546,1201.27514815 114.025852109,1235.72988295 108.723788662,1235.91986325 109.159537164,1256.2391784 109.190862915,1257.85600379 107.898123833,1263.07671462 97.7583238399,1262.99454149 97.7930665166,1201.0 " moovel_rot="-0.4" moovel_centroid="104.843094622,1229.581009899645"/>
  <polygon id="446274323" class="tile" points="151.61654359,1254.1587096 151.553396573,1201.93266172 118.770658178,1201.0 119.760997116,1214.80671103 116.387861195,1215.32741016 115.025852109,1251.58780488 151.61654359,1254.1587096 " moovel_rot="-51.4" moovel_centroid="134.188136236,1227.783643390486"/>
  <polygon id="385207180" class="tile" points="152.678219201,1291.42612272 157.789503998,1291.40864516 157.7792323,1278.37046066 157.749252687,1229.34902308 157.727846538,1201.0 152.61654359,1201.01744269 152.678219201,1291.42612272 " moovel_rot="-27.5" moovel_centroid="155.203232403,1246.209427683095"/>
  <polygon id="124810761" class="tile" points="158.812595438,1201.0 163.975873979,1201.46023503 163.99825779,1273.75570101 158.789503998,1267.65421187 158.812595438,1201.0 " moovel_rot="-86.9" moovel_centroid="161.428969874,1236.0404233997936"/>
  <polygon id="27833581" class="tile" points="164.99825779,1201.67944817 190.143600245,1201.0 190.088975894,1249.99517052 166.736224758,1250.44356625 164.99825779,1201.67944817 " moovel_rot="-1.1" moovel_centroid="177.994395737,1225.4777010344685"/>
  <polygon id="168967361" class="tile" points="191.143600245,1201.00965257 195.057730888,1201.00831294 196.366893713,1201.00782754 200.882126719,1201.00124217 202.879313262,1201.00569197 206.038631036,1201.0 207.174142068,1201.00103004 207.191041497,1225.89909742 191.160499679,1225.90772064 191.143600245,1201.00965257 " moovel_rot="-0.5" moovel_centroid="199.167373298,1213.4542839513863"/>
  <polygon id="367712463" class="tile" points="270.812874962,1290.79220522 259.055382489,1301.72550831 233.867401515,1271.16520629 231.089464458,1273.45086896 208.191041497,1246.96008946 260.528554973,1201.0 270.855761479,1212.1953826 252.189834247,1226.64428278 257.707119445,1231.02862914 252.955833233,1236.25090331 245.907504484,1242.92249918 259.158929147,1256.77390437 254.466362108,1261.43442167 258.647115894,1265.65252689 251.758979576,1272.03201713 260.800208647,1280.69639466 270.812874962,1290.79220522 " moovel_rot="56.2" moovel_centroid="242.627156901,1250.3275635938105"/>
  <polygon id="194939945" class="tile" points="284.26094027,1288.76041539 271.855761479,1272.61088549 287.859387818,1262.20721132 290.667212175,1266.51438537 303.655746156,1258.06093683 300.858857645,1253.75443166 288.586320404,1235.2575534 283.446120421,1238.5968066 275.379170041,1226.66068803 275.459335483,1226.60536631 271.882953512,1221.23405436 282.191743471,1201.0 290.657799749,1215.55688941 307.685189798,1241.49796154 303.622792488,1244.07337129 311.244583301,1257.54810899 308.597106832,1265.68382929 312.124770509,1270.41645469 284.26094027,1288.76041539 " moovel_rot="-86.5" moovel_centroid="291.218425658,1248.5374158571026"/>
  <polygon id="42762317" class="tile" points="397.95570272,1300.22676963 363.439139962,1359.15331511 313.124770509,1328.65724409 313.160561299,1220.21379942 332.89139563,1201.0 397.95570272,1300.22676963 " moovel_rot="49.0" moovel_centroid="346.800246122,1286.0499031247684"/>
  <polygon id="33878494" class="tile" points="437.159837738,1306.1798444 437.116132014,1201.0 430.100916591,1201.00443976 422.581378468,1201.00256202 422.39995948,1247.67032177 422.800002307,1266.11440017 405.409488645,1266.49082974 405.530541625,1272.02003084 398.95570272,1272.16527744 399.014293588,1306.19146529 437.159837738,1306.1798444 " moovel_rot="-90.8" moovel_centroid="422.914763232,1265.926053275657"/>
  <polygon id="135458583" class="tile" points="438.17608257,1222.75447281 449.625063643,1222.74871722 449.608630904,1201.0 438.159837738,1201.01243212 438.17608257,1222.75447281 " moovel_rot="-91.6" moovel_centroid="443.892696673,1211.8789342533819"/>
  <polygon id="251946001" class="tile" points="450.625063643,1229.74771689 471.631873241,1241.40497011 471.585936024,1201.0 450.725253577,1201.26454557 450.625063643,1229.74771689 " moovel_rot="-2.5" moovel_centroid="461.743671898,1218.5393462120194"/>
  <polygon id="285170525" class="tile" points="494.157560289,1201.12295335 488.393531629,1201.72498634 481.814348752,1202.46121341 478.097898329,1203.47315102 478.084311964,1209.83845278 478.590732271,1217.47795995 472.653071743,1217.79488611 472.631873241,1239.39930588 502.259770268,1237.7977089 501.863850337,1228.85657122 501.246517227,1216.63890531 500.810817013,1201.0 499.420989921,1201.02830165 494.157560289,1201.12295335 " moovel_rot="47.3" moovel_centroid="488.106408741,1221.2974350362535"/>
  <polygon id="59314070" class="tile" points="533.471807747,1201.0 546.79992228,1217.46197624 543.880095605,1220.37042471 553.837326051,1233.20330175 562.571311481,1250.67605697 551.467585331,1259.08357771 545.482981783,1257.30852709 541.270607141,1261.36611655 522.874723542,1301.26969433 518.580665228,1307.06496751 503.313014317,1298.27386416 517.911605353,1274.01771298 530.586840362,1260.94197007 519.462882776,1246.36618609 503.259770268,1225.75105837 533.471807747,1201.0 " moovel_rot="56.8" moovel_centroid="530.480374406,1247.9284107070125"/>
  <polygon id="12486540" class="tile" points="563.571311481,1230.43713383 581.575241836,1230.09235914 580.939759854,1201.0 575.236483038,1201.22561905 570.963229684,1201.39096937 563.618404109,1201.68403017 563.571311481,1230.43713383 " moovel_rot="-13.9" moovel_centroid="572.445294463,1215.8950554663118"/>
  <polygon id="338616042" class="tile" points="7.66429804936,1395.95111761 21.9213200133,1390.36615512 29.6534970073,1386.9339258 26.810701471,1378.134697 29.6423179133,1369.26405166 22.7172547644,1366.02469739 14.087351408,1362.02444486 7.89992185012,1359.15331511 2.49477035757,1370.8671595 0.0,1375.88300109 3.65638390258,1385.65982926 7.66429804936,1395.95111761 " moovel_rot="-88.9" moovel_centroid="14.606410711624719,1377.70943831"/>
  <polygon id="288219510" class="tile" points="61.6664897993,1434.00781735 89.7315395327,1430.66931268 61.8322981168,1393.20637509 89.7655746937,1372.47690859 79.4975929188,1359.15331511 31.6534970073,1394.37566914 56.8022224382,1427.58173443 61.6664897993,1434.00781735 " moovel_rot="-43.5" moovel_centroid="62.5431450134,1399.59796062"/>
  <polygon id="282840309" class="tile" points="92.7329771938,1359.15331511 91.5505269762,1359.69206988 90.7655746937,1361.83561988 90.782977438,1377.23189247 102.037827687,1381.57769657 102.329559704,1362.94301702 100.805367059,1360.42201773 99.3151472311,1359.28500063 92.7329771938,1359.15331511 " moovel_rot="11.7" moovel_centroid="96.6338387515,1369.55345494"/>
  <polygon id="385542014" class="tile" points="103.329559704,1412.03229962 103.351453132,1359.15331511 133.728488063,1359.16667345 133.706594775,1412.03897879 123.843657854,1412.03897879 103.329559704,1412.03229962 " moovel_rot="-90" moovel_centroid="118.528740339,1385.59835842"/>
  <polygon id="272528137" class="tile" points="144.97904648,1387.10164392 144.972663367,1359.15331511 134.728488063,1359.15334922 134.734866424,1387.10167841 144.97904648,1387.10164392 " moovel_rot="-94.6" moovel_centroid="139.853766072,1373.12749774"/>
  <polygon id="60774908" class="tile" points="145.97904648,1362.28747337 157.709896412,1362.52279712 161.369890608,1359.15331511 205.570636776,1387.80971441 204.84420951,1432.67282973 153.258202182,1429.1358022 154.048488773,1414.27514284 145.980062389,1413.92588615 145.97904648,1362.28747337 " moovel_rot="-73.4" moovel_centroid="174.37134513,1399.19435257"/>
  <polygon id="171672074" class="tile" points="218.612047893,1360.26138202 221.440648924,1438.25267948 214.466728853,1438.88927219 206.570636776,1438.91307273 206.623319145,1359.47264069 213.204265253,1359.15331511 218.612047893,1360.26138202 " moovel_rot="63.3" moovel_centroid="213.315696962,1400.55787525"/>
  <polygon id="83888861" class="tile" points="260.113582366,1370.31722291 240.164588729,1366.9774384 239.458736116,1371.21866123 237.940589615,1369.99613581 238.509936893,1362.04243231 232.19624651,1360.94609799 223.276674538,1359.15331511 222.440648924,1400.44063273 222.494763639,1424.82331134 260.092911692,1424.80540823 260.113582366,1370.31722291 " moovel_rot="69.9" moovel_centroid="240.716477206,1395.08500667"/>
  <polygon id="435776201" class="tile" points="261.113582366,1389.45618537 287.531655064,1394.17578144 288.015649715,1391.33377291 292.84398536,1392.10537386 292.834859046,1366.90785081 290.828078431,1366.54038071 291.570892906,1361.69093665 277.193339517,1359.15331511 276.353968027,1363.95076857 272.002117022,1362.988163 265.474551767,1361.80987315 261.113582366,1389.45618537 " moovel_rot="-61.7" moovel_centroid="278.288174728,1377.16301358"/>
  <polygon id="47859963" class="tile" points="293.861103255,1359.15331511 322.696244054,1359.24300779 322.679071357,1388.37269982 293.84398536,1388.2829409 293.861103255,1359.15331511 " moovel_rot="39.6" moovel_centroid="308.270106488,1373.76298631"/>
  <polygon id="419952865" class="tile" points="329.056884883,1400.92183323 332.969247538,1397.98136915 333.377244645,1359.25500951 329.126516426,1359.21245866 323.696244054,1359.15331511 323.719234763,1394.16858203 329.056884883,1400.92183323 " moovel_rot="5.6" moovel_centroid="328.525771673,1378.66990127"/>
  <polygon id="25271724" class="tile" points="334.408483399,1396.38923772 334.377244645,1359.15331511 345.716077116,1359.25123521 345.568065813,1396.43973987 334.408483399,1396.38923772 " moovel_rot="-94.1" moovel_centroid="340.016380573,1377.75894125"/>
  <polygon id="143482801" class="tile" points="346.716077116,1359.15331511 367.710789636,1359.2728314 367.262440688,1480.21422639 363.213886962,1480.42126496 363.306108917,1468.87971573 354.839920917,1462.90765004 346.75700272,1463.43945063 346.716077116,1359.15331511 " moovel_rot="-49.4" moovel_centroid="357.409544139,1413.4262686"/>
  <polygon id="37197154" class="tile" points="369.42103877,1359.21234871 368.710789636,1503.20416677 380.922764137,1503.40267143 380.703479993,1359.15331511 369.42103877,1359.21234871 " moovel_rot="5.0" moovel_centroid="374.939610496,1432.19390591"/>
  <polygon id="206198255" class="tile" points="400.819589416,1359.19512909 400.836069239,1403.27598348 381.939309778,1403.23411581 381.922764137,1359.15331511 400.819589416,1359.19512909 " moovel_rot="50.8" moovel_centroid="391.379435061,1381.21462308"/>
  <polygon id="89863908" class="tile" points="401.836069239,1359.20021519 418.361066643,1359.15331511 418.381851296,1396.39919657 401.856903135,1396.44612937 401.836069239,1359.20021519 " moovel_rot="-56.4" moovel_centroid="410.108971358,1377.79970482"/>
  <polygon id="182704716" class="tile" points="438.925760358,1381.66667302 439.304584697,1359.41542278 419.381851296,1359.15331511 419.397577636,1381.56340326 438.925760358,1381.66667302 " moovel_rot="41.5" moovel_centroid="429.241324671,1370.41225704"/>
  <polygon id="128406007" class="tile" points="543.079045122,1451.7255734 558.124778062,1451.66024165 558.777873154,1488.78538728 534.32066901,1489.10022472 473.051997616,1489.50699558 460.392327745,1488.47592727 460.60491693,1523.34026657 460.74284626,1545.08950305 460.792324578,1553.39378773 461.042990622,1592.08136565 450.702755489,1592.25443933 440.304584697,1592.44692834 440.328859843,1544.94347052 440.341148797,1524.61130867 440.365848654,1488.58390163 440.375946496,1467.90873155 440.401211439,1422.89407912 460.262785078,1422.76563607 475.619232038,1422.65554754 476.212765166,1359.15331511 542.260936381,1403.24659174 543.079045122,1451.7255734 " moovel_rot="-8.2" moovel_centroid="489.994551458,1458.62842139"/>
  <polygon id="381246686" class="tile" points="576.300260114,1359.15331511 576.271921821,1384.26959722 562.662680794,1385.62991779 559.777873154,1360.95938074 576.300260114,1359.15331511 " moovel_rot="67.4" moovel_centroid="568.737106576,1372.10010225"/>
  <polygon id="338412116" class="tile" points="0.00288452468812,1626.95655446 0.0,1593.70531943 18.8592974374,1592.44692834 29.4724222451,1601.63523968 28.6741975408,1619.69154514 21.5249239465,1626.52246608 0.00288452468812,1626.95655446 " moovel_rot="-92.4" moovel_centroid="13.699153645922184,1610.02648558"/>
  <polygon id="320594104" class="tile" points="36.1093254302,1592.44692834 36.1162586128,1635.08326161 31.4796230232,1635.0794924 31.4724222451,1592.45410843 36.1093254302,1592.44692834 " moovel_rot="1.4" moovel_centroid="33.794506535,1613.76574124"/>
  <polygon id="382364610" class="tile" points="43.8057913102,1592.58319244 38.3366807069,1592.44692834 37.1162586128,1656.73807514 43.8188155975,1656.97236608 43.8057913102,1592.58319244 " moovel_rot="-83.6" moovel_centroid="40.7596622002,1625.7723333"/>
  <polygon id="114033135" class="tile" points="62.8363417354,1619.70974943 44.8296632727,1619.59498821 44.8188155975,1592.44692834 63.3502304348,1592.98149905 62.8363417354,1619.70974943 " moovel_rot="0.4" moovel_centroid="53.9361743563,1606.11793013"/>
  <polygon id="35235718" class="tile" points="76.0454042243,1701.75941691 74.865623924,1689.51203086 66.8973143142,1689.3550017 64.3502304348,1662.30932335 64.3619235462,1659.09668058 64.4654275205,1633.25532397 67.8332468229,1609.86426957 71.9788838162,1596.6953683 73.7126400495,1592.44692834 85.6966344003,1594.86312642 82.1995760629,1606.44272666 80.92398496,1620.16247362 81.3112309149,1638.89638625 81.4324563683,1664.33169178 82.7997234235,1679.12996918 85.7178967322,1700.75071522 76.0454042243,1701.75941691 " moovel_rot="-67.8" moovel_centroid="74.4229661594,1647.3741107"/>
  <polygon id="342336940" class="tile" points="114.835926418,1592.44692834 115.975836997,1630.13076149 112.547559144,1635.43241051 86.7178967322,1635.87722906 86.7520533702,1593.31213542 114.835926418,1592.44692834 " moovel_rot="-8.1" moovel_centroid="101.028377281,1614.2673995"/>
  <polygon id="376561183" class="tile" points="116.975836997,1592.44692834 137.382733169,1593.55739092 136.63872163,1616.14825906 117.032873895,1614.83852898 116.975836997,1592.44692834 " moovel_rot="22.8" moovel_centroid="127.027027743,1604.17419544"/>
  <polygon id="245763354" class="tile" points="182.558281085,1639.75281887 182.561286038,1657.19621603 138.391447729,1657.21520764 138.388217168,1633.27296898 138.382733169,1597.31003818 143.427540198,1597.29934599 143.426672324,1592.4581725 146.723300479,1592.45640125 151.480073213,1592.44692834 151.481965246,1599.54945928 151.486028717,1609.59386727 163.32557661,1609.58537409 163.324964281,1612.65921722 167.111111455,1612.66197033 167.113220911,1639.75501116 182.558281085,1639.75281887 " moovel_rot="-4.6" moovel_centroid="155.128106928,1632.3017565"/>
  <polygon id="266774055" class="tile" points="183.650108924,1592.44692834 198.373173138,1592.5174144 198.310863879,1737.80998202 183.561286038,1737.45142268 183.650108924,1592.44692834 " moovel_rot="13.6" moovel_centroid="190.976280556,1665.07835786"/>
  <polygon id="41980254" class="tile" points="199.373173138,1592.53901982 199.445857292,1682.06377397 201.127231971,1681.93564933 222.641172515,1680.97031234 222.604434978,1592.44692834 221.588501308,1592.45570943 199.373173138,1592.53901982 " moovel_rot="15.8" moovel_centroid="210.995172658,1636.98321251"/>
  <polygon id="9874125" class="tile" points="223.819060421,1599.06025655 233.30718114,1593.08483907 248.510627746,1592.44692834 248.478416591,1728.06872068 242.835765861,1736.46815829 223.762970178,1736.42068117 223.641172515,1671.25115949 223.819060421,1599.06025655 " moovel_rot="59.3" moovel_centroid="236.121053134,1664.78971417"/>
  <polygon id="185985758" class="tile" points="249.510627746,1668.67665164 249.635754281,1592.44692834 265.213161096,1593.2758577 265.819147348,1668.42045694 249.510627746,1668.67665164 " moovel_rot="-0.9" moovel_centroid="257.526316381,1630.99524627"/>
  <polygon id="188137374" class="tile" points="266.819147348,1602.80749807 268.744003272,1600.87921949 268.473374297,1593.76616831 266.830198253,1592.44692834 266.819147348,1602.80749807 " moovel_rot="-73.4" moovel_centroid="267.6643711,1597.61852606"/>
  <polygon id="34332363" class="tile" points="273.609706673,1634.52839973 275.849527937,1638.45618506 278.054912956,1642.69813537 291.251163295,1620.47790259 295.132944609,1613.93839831 284.592477789,1598.20426629 279.099013263,1592.44692834 269.745291755,1601.07625397 269.744003272,1621.75374472 275.481712616,1630.9717823 273.609706673,1634.52839973 " moovel_rot="-14.8" moovel_centroid="280.249039578,1615.34689148"/>
  <polygon id="71527210" class="tile" points="296.168058335,1656.03430365 305.259603652,1656.21837816 314.402448094,1656.35442139 314.409998571,1654.20542964 314.372074633,1649.20897622 312.669044069,1649.20759976 312.665003871,1646.90731764 312.649241157,1634.19849681 317.375746146,1634.1881837 317.378791456,1639.18886096 336.113566828,1639.19128412 336.103704122,1592.65819242 317.522283859,1592.66855512 317.522584498,1597.23663136 312.73379649,1597.2398122 312.724471763,1592.44692834 296.132944609,1592.45748003 296.137537581,1602.21855892 296.166874875,1646.8020771 296.168058335,1656.03430365 " moovel_rot="-25.0" moovel_centroid="314.562422069,1620.3099409"/>
  <polygon id="104064852" class="tile" points="343.135478329,1592.44692834 343.087482412,1655.74390479 337.113566828,1655.75424662 337.157814863,1592.44697295 343.135478329,1592.44692834 " moovel_rot="-20" moovel_centroid="340.123506992,1624.09469814"/>
  <polygon id="382468607" class="tile" points="344.135478329,1592.44692834 344.18212404,1643.67010283 345.541939814,1642.70952154 348.630896937,1642.89069467 348.909712456,1592.49875308 344.135478329,1592.44692834 " moovel_rot="-32.6" moovel_centroid="346.461108437,1617.40030991"/>
  <polygon id="244081951" class="tile" points="355.085010594,1592.45208731 355.080641395,1616.52031319 349.909993907,1616.50522615 349.909712456,1592.44692834 355.085010594,1592.45208731 " moovel_rot="25.1" moovel_centroid="352.496517761,1604.47933663"/>
  <polygon id="24597018" class="tile" points="356.08535269,1593.26450217 356.085010594,1613.86128287 370.620820325,1613.38376172 369.742978895,1592.44692834 356.08535269,1593.26450217 " moovel_rot="74.6" moovel_centroid="363.157294553,1603.34495481"/>
  <polygon id="363338063" class="tile" points="371.621160042,1592.44692834 371.620820325,1629.47973609 382.81503586,1629.48039826 382.810446193,1626.58402478 403.574252912,1626.59059248 403.572537219,1592.45348385 371.621160042,1592.44692834 " moovel_rot="5.6" moovel_centroid="387.297693797,1610.05264586"/>
  <polygon id="79990122" class="tile" points="424.278234668,1592.44692834 430.288072943,1623.29440023 404.579091741,1628.14784626 404.574252912,1612.15557437 408.303221823,1601.03996031 414.956421251,1596.85332935 424.278234668,1592.44692834 " moovel_rot="64.7" moovel_centroid="416.770837967,1612.15500131"/>
  <polygon id="188137356" class="tile" points="431.310165167,1625.33463219 433.911391777,1623.46445602 435.040738216,1618.67459927 435.845307969,1609.60725192 435.268078111,1601.55768623 434.036447355,1594.89175198 431.288072943,1592.44692834 431.408801583,1595.59008485 432.92932419,1600.93349216 433.89575752,1606.37493926 433.511590289,1613.70528671 431.623075178,1622.71582689 431.310165167,1625.33463219 " moovel_rot="-87.0" moovel_centroid="433.804550476,1608.97511506"/>
  <polygon id="55962876" class="tile" points="439.547015315,1592.44692834 436.845307969,1674.75173481 509.761617221,1676.1735366 509.645258323,1672.90045778 509.743794184,1641.22763184 476.027812968,1640.28853784 474.58871111,1593.30719694 446.799241501,1592.6232298 439.547015315,1592.44692834 " moovel_rot="33.5" moovel_centroid="466.861792224,1641.30226855"/>
  <polygon id="300129439" class="tile" points="516.666189886,1592.44692834 516.673669604,1634.30214031 510.762425865,1634.30621947 510.761617221,1592.45067874 516.666189886,1592.44692834 " moovel_rot="-2.8" moovel_centroid="513.715972219,1613.38043025"/>
  <polygon id="382417012" class="tile" points="522.271270794,1592.97704246 522.335701475,1639.57621659 517.673669604,1639.55994296 517.724579144,1592.44692834 522.271270794,1592.97704246 " moovel_rot="0.2" moovel_centroid="519.997055544,1616.23765622"/>
  <polygon id="36796271" class="tile" points="523.336508268,1592.95281313 528.587065469,1592.44692834 536.054442164,1594.61276889 535.892095906,1618.41335804 536.017595369,1633.07998347 523.577902354,1633.1598554 523.431129741,1618.19788819 523.429847469,1612.71769766 524.758725836,1612.71877138 524.852822192,1598.60682332 523.335701475,1598.61010644 523.336508268,1592.95281313 " moovel_rot="-8.0" moovel_centroid="529.878385088,1613.37821705"/>
  <polygon id="215596650" class="tile" points="539.926635421,1596.12857771 537.054442164,1644.15040419 565.473695488,1646.99656116 562.649554641,1683.77210132 577.261291858,1684.87677589 577.283659486,1640.80198956 577.283375082,1636.09918726 572.733448166,1597.43231383 568.160944171,1597.64335812 568.557171883,1592.44692834 539.926635421,1596.12857771 " moovel_rot="-6.2" moovel_centroid="559.974203984,1630.65741579"/>
  <polygon id="358710207" class="tile" points="578.283659486,1629.3752785 583.475842203,1629.24625161 583.221606965,1592.44692834 578.339957332,1592.64472776 578.283659486,1629.3752785 " moovel_rot="-28.4" moovel_centroid="580.831674727,1611.1170225"/>
  <polygon id="213285223" class="tile" points="16.2742888978,1737.83546532 16.291500604,1762.04934234 3.9210830519,1762.03371874 3.91406950057,1756.35697311 0.0102263694629,1756.34709859 0.0,1737.80998202 16.2742888978,1737.83546532 " moovel_rot="62.3" moovel_centroid="8.513052931068943,1749.37912083"/>
  <polygon id="257176872" class="tile" points="18.3053076532,1737.80998202 27.9975406243,1737.83505267 27.9837276116,1755.06596021 18.291500604,1755.04087729 18.3053076532,1737.80998202 " moovel_rot="25.9" moovel_centroid="23.1445197003,1746.43796717"/>
  <polygon id="302584516" class="tile" points="35.2383479074,1737.80998202 35.2505849054,1748.97286201 28.9975406243,1748.99516893 29.0116339213,1737.85465793 35.2383479074,1737.80998202 " moovel_rot="1.0" moovel_centroid="32.1255761421,1743.41208375"/>
  <polygon id="42719523" class="tile" points="36.2640642556,1750.77180395 36.2505849054,1809.46884995 78.8026965759,1806.51142741 79.0509313817,1798.48406972 82.8867771295,1794.50702549 84.9941265899,1794.27845194 84.6967341986,1790.11041538 84.6679413978,1784.92333044 82.6024586766,1784.56036646 80.7512752266,1783.89843717 79.8617713592,1781.79528563 79.5042715473,1779.90637021 80.3833341289,1754.22893857 81.2019499937,1753.0439169 82.2809090108,1752.36548835 84.6666145626,1752.26330107 84.6697180182,1747.51056673 84.7014411564,1743.77291276 79.9342483882,1743.49863907 79.9101683346,1737.80998202 48.0818566897,1740.26531529 47.9189412017,1745.16530064 44.4961418605,1745.35437357 44.9489012371,1750.29729074 36.2640642556,1750.77180395 " moovel_rot="-15.7" moovel_centroid="59.3840861892,1774.47929103"/>
  <polygon id="334433988" class="tile" points="85.9941265899,1740.56732558 86.6646728908,1755.81432707 86.6271521942,1757.65431114 86.0431764753,1790.26197453 91.6964279012,1790.28403028 91.8382485677,1786.22281776 92.0534645255,1780.05983908 98.4369486751,1780.41427564 100.346719316,1758.83485425 95.310811798,1758.93299851 96.382560268,1755.03575414 98.3816462492,1747.74037769 97.1110790587,1737.80998202 85.9941265899,1740.56732558 " moovel_rot="2.0" moovel_centroid="92.1438976485,1762.8799197"/>
  <polygon id="341385400" class="tile" points="123.806571072,1737.80998202 124.357241205,1748.66188961 125.545495147,1764.29583453 118.353817432,1764.16998255 118.524163447,1784.24933796 101.346719316,1784.00535856 101.631681179,1771.48777568 101.556018228,1765.34844512 101.494308601,1760.3305435 101.349637194,1748.91052075 108.972937324,1748.8093775 111.23891598,1748.77485823 120.680810507,1748.71883349 120.723293908,1737.85273524 122.298818,1737.83079413 123.806571072,1737.80998202 " moovel_rot="52.8" moovel_centroid="112.211021581,1763.97410407"/>
  <polygon id="138639267" class="tile" points="144.009531369,1857.43041773 126.557262575,1853.92846285 144.385431954,1762.36366361 126.545495147,1758.65200852 131.458124791,1737.80998202 145.690001698,1740.96968033 143.877998629,1750.1361511 155.441592914,1751.77004057 156.431002756,1754.63698622 193.367057979,1828.85976854 196.697603011,1834.46899809 184.360454047,1840.49010347 149.06735612,1833.45450684 144.009531369,1857.43041773 " moovel_rot="11.1" moovel_centroid="155.261387996,1804.01402102"/>
  <polygon id="217784122" class="tile" points="202.556843286,1737.81536307 197.69850977,1737.80998202 197.697603011,1787.61333892 202.545083047,1787.62016813 202.556843286,1737.81536307 " moovel_rot="82.4" moovel_centroid="200.124522829,1762.70543101"/>
  <polygon id="94718623" class="tile" points="203.857715534,1740.07760795 210.192808518,1741.8627427 212.241693028,1737.80998202 221.206942434,1740.16622872 219.902169363,1745.80581749 219.338665421,1769.69834698 224.164354684,1769.82584908 224.164209233,1772.97204253 219.270335017,1773.02394349 203.556843286,1771.81591405 203.857715534,1740.07760795 " moovel_rot="-89.2" moovel_centroid="212.176966624,1756.36752865"/>
  <polygon id="25590753" class="tile" points="242.1436079,1740.44736638 236.481896752,1755.0593984 225.164354684,1761.76930568 225.165773905,1797.12949894 252.791567016,1796.26749696 252.406547083,1792.55752738 261.950912858,1791.87164253 261.753884906,1768.91723111 261.493574863,1737.80998202 242.1436079,1740.44736638 " moovel_rot="8.7" moovel_centroid="244.853852675,1770.31570376"/>
  <polygon id="385207014" class="tile" points="262.979800533,1739.97661785 265.856330418,1737.80998202 290.314424818,1737.9531204 290.540043174,1751.85752474 286.636626592,1751.89108487 286.697541967,1762.63279937 290.73792528,1762.60323316 290.685587719,1794.98490864 286.119006215,1794.86448084 280.193759203,1794.78455466 280.16780398,1785.00889354 272.354845508,1784.93158299 272.556457117,1775.39657703 262.950912858,1775.19962194 262.979800533,1739.97661785 " moovel_rot="-27.0" moovel_centroid="277.784520516,1762.66473727"/>
  <polygon id="72210129" class="tile" points="321.500938734,1790.80024905 335.714330115,1779.4436481 335.72613453,1768.36804845 335.723609579,1764.59472539 335.75261007,1747.25872851 335.761656667,1737.9642296 302.470726782,1737.84453879 295.675091676,1737.82691421 292.093416044,1737.80998202 291.73792528,1742.34489387 292.294697817,1790.42004438 321.500938734,1790.80024905 " moovel_rot="53.1" moovel_centroid="313.269102447,1763.39652202"/>
  <polygon id="31262087" class="tile" points="336.761656667,1781.15107289 336.793040467,1737.80998202 357.779626418,1737.82776081 357.754921614,1781.16880356 336.761656667,1781.15107289 " moovel_rot="-0.4" moovel_centroid="347.272308378,1759.49055407"/>
  <polygon id="390843198" class="tile" points="358.794523811,1765.46212352 363.411231959,1765.48719761 363.394592926,1770.44392535 378.562450463,1770.55101424 378.573386174,1765.60636613 381.744741816,1765.61312607 381.697235133,1784.39997586 386.838168036,1784.44382846 386.940900429,1771.99964176 389.223727622,1772.01488788 389.424292584,1747.31628081 386.700810254,1747.28482043 386.705618225,1746.2749663 387.007444196,1746.27727083 387.047650375,1742.32164672 364.522972206,1742.0393455 364.498796485,1742.06485663 364.54539763,1737.89062178 358.779626418,1737.80998202 358.794523811,1765.46212352 " moovel_rot="-64.7" moovel_centroid="374.610874767,1757.26536843"/>
  <polygon id="114669155" class="tile" points="398.856651678,1737.80998202 390.424292584,1738.1925503 392.81164708,1783.69548454 398.791777537,1782.40058766 398.856651678,1737.80998202 " moovel_rot="36.7" moovel_centroid="395.17265613,1759.26511801"/>
  <polygon id="27513476" class="tile" points="417.069552294,1789.69457951 417.015281947,1817.8946381 424.712912127,1818.14100446 434.7278995,1807.02881737 424.678447109,1798.36261404 464.328261728,1752.89377959 463.863334905,1739.89824961 399.856651678,1737.80998202 399.902505082,1789.23148126 417.069552294,1789.69457951 " moovel_rot="-49.4" moovel_centroid="426.677235067,1766.26139265"/>
  <polygon id="442908146" class="tile" points="472.913626732,1737.80998202 466.314740683,1745.06490325 465.328261728,1840.04970012 472.992952626,1847.39971622 472.913626732,1737.80998202 " moovel_rot="9.6" moovel_centroid="469.466218382,1793.93285991"/>
  <polygon id="384850021" class="tile" points="489.032514621,1737.81828079 489.030742533,1774.56954533 473.992952626,1774.56124456 473.994709707,1737.80998202 489.032514621,1737.81828079 " moovel_rot="82.4" moovel_centroid="481.512729941,1756.18976012"/>
  <polygon id="31094222" class="tile" points="0.206476435997,2106.92263057 19.4449957168,2061.65198856 23.9757567502,2063.59869919 28.0315439975,2053.6815379 38.7679730474,2049.20784607 41.4166141259,2043.62491268 36.7181243749,2033.39282392 41.4578522729,2023.61703466 36.8193338184,2021.61590024 64.8246427545,1956.61599733 73.0502757713,1937.03790909 5.22699826034,1907.83308463 13.6689850045,1888.23471876 0.0,1882.35244467 10.7365476256,1857.43041773 34.4756233575,1867.65248247 22.9730133721,1894.36421186 41.0485550987,1902.14402534 45.6800179806,1891.40790553 86.3019438397,1908.90228631 93.1855081659,1892.93160196 120.185597443,1904.5153442 116.874094102,1912.11720831 121.609895021,1913.94521038 111.765501699,1937.73882688 117.289313232,1945.92267832 115.519521822,1953.24123401 75.600545732,2048.02318112 62.1846670009,2079.1499689 0.206476435997,2106.92263057 " moovel_rot="21.6" moovel_centroid="62.947214189529,1976.86986851"/>
  <polygon id="131293467" class="tile" points="129.434401958,1857.67648625 129.135113835,1865.36484178 128.355270496,1869.19191044 123.623610441,1869.1497644 123.609895021,1857.43041773 129.434401958,1857.67648625 " moovel_rot="78.7" moovel_centroid="126.361696668,1863.19492342"/>
  <polygon id="326550920" class="tile" points="138.269238326,1857.43041773 144.377653024,1857.47228404 145.810351497,1857.48320568 145.77923497,1863.28224816 149.524072491,1863.31089882 149.545951966,1896.46623789 130.45545524,1896.2938942 130.434401958,1887.37226238 138.023191539,1887.37251008 138.057993287,1881.97154101 145.487448026,1882.01848329 145.51467132,1876.92975458 145.549538136,1871.17877019 138.190336131,1871.13420746 138.269238326,1857.43041773 " moovel_rot="20.1" moovel_centroid="142.434334714,1880.44901095"/>
  <polygon id="388125379" class="tile" points="191.769668845,1860.13219894 185.249716678,1889.20048664 175.358978875,1887.10920779 156.506349874,1963.73404862 191.932105871,1972.62756731 190.798220105,1977.03903215 150.545951966,1967.45307905 177.418004156,1857.43041773 191.769668845,1860.13219894 " moovel_rot="77.3" moovel_centroid="172.510617812,1911.44975272"/>
  <polygon id="24736835" class="tile" points="202.991193461,1929.09911701 222.160320215,1931.22661343 222.255114541,1860.999795 194.058833828,1857.43041773 192.932105871,1870.75999767 194.15233244,1870.8997883 208.02279164,1872.36933317 206.294748467,1886.11040569 208.0625935,1888.51908258 202.991193461,1929.09911701 " moovel_rot="49.3" moovel_centroid="212.213893957,1892.24445304"/>
  <polygon id="338412118" class="tile" points="223.445851069,1859.07359941 229.97538298,1858.850688 232.293560827,1857.58901821 237.514824281,1857.43041773 237.494041996,1859.50929815 240.197306733,1867.45284654 240.451854088,2006.97222136 223.255114541,2007.24236933 223.725320365,1941.07292367 223.445851069,1859.07359941 " moovel_rot="-0.9" moovel_centroid="231.900591358,1933.4114622"/>
  <polygon id="319689976" class="tile" points="241.457022941,1879.82470846 252.338688711,1884.00299395 257.242778345,1867.47050458 250.933771767,1866.8549183 252.286620186,1859.55835093 244.160978682,1857.43041773 241.451854088,1865.30526293 244.865899162,1867.86476404 241.457022941,1879.82470846 " moovel_rot="80.8" moovel_centroid="248.600966947,1870.98023265"/>
  <polygon id="28379548" class="tile" points="258.259648257,1898.38275 266.167995985,1898.36317246 266.165863932,1905.50919416 279.959929806,1905.47791232 279.949890286,1897.87209621 288.318346282,1897.85352656 288.306170859,1884.83973828 288.312047705,1881.51414945 288.308984093,1879.53486313 288.295858119,1862.43468177 276.959221533,1862.46315663 276.956697301,1857.43041773 263.835091203,1857.46317012 263.832736386,1864.84011125 258.242778345,1864.85039113 258.245295955,1867.37810412 258.250509997,1879.80429128 258.250927172,1881.90521669 258.258570496,1884.36284103 258.259648257,1898.38275 " moovel_rot="-67.7" moovel_centroid="273.203905561,1881.16036583"/>
  <polygon id="409678460" class="tile" points="289.318346282,1857.43210873 290.277997281,1857.43041773 290.2727789,1880.07732894 289.323963524,1880.07755491 289.318346282,1857.43210873 " moovel_rot="82.3" moovel_centroid="289.798276414,1868.732923"/>
  <polygon id="302584514" class="tile" points="291.277997281,1857.43041773 300.007518076,1857.78876311 299.993394948,1874.2486601 291.289773905,1873.86744474 291.277997281,1857.43041773 " moovel_rot="-80.8" moovel_centroid="295.643229823,1865.82979378"/>
  <polygon id="125815806" class="tile" points="301.014730591,1857.44021838 301.011011811,1861.83281761 301.009198448,1883.25771303 301.007518076,1891.36117094 310.898392858,1891.35136867 310.905615834,1857.43041773 301.014730591,1857.44021838 " moovel_rot="-81.2" moovel_centroid="305.956025252,1874.39506156"/>
  <polygon id="272576210" class="tile" points="312.612488663,1904.83942391 328.302203442,1881.46178344 328.309642038,1857.43041773 311.905615834,1858.32712959 312.612488663,1904.83942391 " moovel_rot="-21.3" moovel_centroid="319.415309443,1876.08057267"/>
  <polygon id="313252335" class="tile" points="343.432490453,1857.43041773 329.382002922,1861.81586825 330.500196064,1909.00340514 334.090031025,1909.46954645 329.309642038,1985.20473917 338.429152655,1985.77558371 334.905756899,2015.83834956 334.252970258,2019.46318695 348.364295164,2031.09225074 366.184495171,2032.21483539 368.005350463,2017.2560778 368.942739158,2003.00037701 369.940956893,1987.76200664 370.937778277,1972.40935234 373.598429573,1957.66018697 374.12204736,1943.37350426 385.606313434,1944.3964224 387.286765058,1914.02405032 376.759790264,1913.09304383 345.440372389,1910.32553182 343.432490453,1857.43041773 " moovel_rot="54.2" moovel_centroid="352.357976988,1953.67769549"/>
  <polygon id="98039582" class="tile" points="388.286765058,1899.91653648 389.260789728,1857.55892211 400.252351923,1857.43041773 400.32624679,1900.15237352 388.286765058,1899.91653648 " moovel_rot="-43.6" moovel_centroid="394.536221344,1879.08836646"/>
  <polygon id="397052761" class="tile" points="401.32624679,1934.45171085 401.357435983,1857.4321133 405.427217755,1857.43041773 405.396075672,1934.45669429 401.32624679,1934.45171085 " moovel_rot="-90.4" moovel_centroid="403.376773427,1895.94281262"/>
  <polygon id="201855212" class="tile" points="410.717222308,1862.39422008 406.429182929,1862.3907465 406.427217755,1857.43790175 410.715238009,1857.43041773 410.717222308,1862.39422008 " moovel_rot="-0.1" moovel_centroid="408.573004941,1859.91332257"/>
  <polygon id="238150407" class="tile" points="416.072734083,1881.09763658 432.369286989,1880.95541872 432.435050394,1863.23341544 430.800517445,1860.39255448 428.814582448,1858.6158595 424.504006267,1857.5814371 411.72495065,1857.43041773 411.717222308,1881.03719435 416.072734083,1881.09763658 " moovel_rot="-0.5" moovel_centroid="421.813938395,1869.55711046"/>
  <polygon id="413723509" class="tile" points="433.43933316,1857.56330983 448.667259646,1857.43041773 456.869801443,1900.31603685 442.720251974,1898.49536626 442.797833728,1907.38535466 433.435050394,1906.82265357 433.43933316,1857.56330983 " moovel_rot="-0.5" moovel_centroid="442.825619356,1881.81543941"/>
  <polygon id="329971942" class="tile" points="472.333104988,1869.39131579 468.324868301,1869.50321827 468.473784419,1874.27220922 462.900171789,1874.43817263 463.028202369,1878.59027815 459.183107253,1881.1325369 457.869801443,1879.15860213 457.872066345,1861.2330254 462.333203389,1857.55399433 466.498216932,1857.43041773 466.642666247,1862.34758928 469.63274933,1862.25739815 469.678410953,1863.78797069 472.149879851,1863.71400926 472.333104988,1869.39131579 " moovel_rot="60.6" moovel_centroid="463.514383641,1868.02308056"/>
  <polygon id="260655407" class="tile" points="505.711143137,1857.43041773 505.741506613,1901.08953747 473.333104988,1900.77695833 473.54801487,1860.40350776 473.556212289,1858.5855675 505.711143137,1857.43041773 " moovel_rot="80.2" moovel_centroid="489.677970065,1879.49800453"/>
  <polygon id="103266126" class="tile" points="506.741506613,1857.43041773 506.75254366,1879.02026642 524.100084333,1879.04882278 524.0831212,1857.45589288 506.741506613,1857.43041773 " moovel_rot="27.2" moovel_centroid="515.419519996,1868.23946482"/>
  <polygon id="102698077" class="tile" points="525.100084333,1934.67597601 532.039227834,1934.69350797 531.985310359,1857.46506976 525.344585301,1857.43041773 525.100084333,1934.67597601 " moovel_rot="63.0" moovel_centroid="528.616819157,1896.34910228"/>
  <polygon id="421294628" class="tile" points="573.849179018,1857.43041773 574.464100344,1929.73999286 533.039227834,1930.19452381 533.081988355,1857.89051942 573.849179018,1857.43041773 " moovel_rot="43.5" moovel_centroid="553.609615838,1893.91027955"/>
  <polygon id="385321158" class="tile" points="589.308135664,1857.43041773 592.228585002,1861.17190475 582.324711786,1868.91326118 592.239647694,1881.59567153 588.311913768,1884.66702148 575.464100344,1868.24632382 589.308135664,1857.43041773 " moovel_rot="44.2" moovel_centroid="584.567559548,1870.63571265"/>
  <polygon id="26314008" class="tile" points="4.72827199269,2106.92263057 82.0698447118,2186.56108211 83.5692782851,2242.34926817 6.83706384413,2371.49408352 1.34766790532,2367.37102766 0.04063927643,2362.63641951 13.9188550159,2335.61543449 14.1001200523,2317.44209506 14.5929347064,2280.11021611 10.7580871258,2184.18473181 7.62537242565,2153.49296615 0.0,2107.66979565 4.72827199269,2106.92263057 " moovel_rot="81.5" moovel_centroid="38.58611489368982,2226.97676763"/>
  <polygon id="443619378" class="tile" points="85.5890431331,2106.95134301 85.5692782851,2221.65082786 106.939465774,2221.63468247 106.764789695,2106.92263057 85.5890431331,2106.95134301 " moovel_rot="-12.6" moovel_centroid="96.215900605,2164.37723715"/>
  <polygon id="205436169" class="tile" points="107.939465774,2123.06547992 107.964745522,2107.06129114 121.115494785,2106.92263057 121.414268358,2122.71202415 107.939465774,2123.06547992 " moovel_rot="-28.7" moovel_centroid="114.594202808,2114.97305046"/>
  <polygon id="401828171" class="tile" points="122.414268358,2106.95827309 122.42897574,2121.07129624 133.894134309,2121.26757154 133.885404837,2106.92263057 122.414268358,2106.95827309 " moovel_rot="-6.8" moovel_centroid="128.171274774,2114.05441413"/>
  <polygon id="256251158" class="tile" points="146.261139123,2106.93987862 138.175875529,2106.92612931 134.894134309,2106.92263057 134.896599125,2121.75114005 138.274764086,2121.75304728 146.26359159,2121.76839399 146.261139123,2106.93987862 " moovel_rot="64.5" moovel_centroid="140.578909691,2114.34433421"/>
  <polygon id="27260542" class="tile" points="187.651336096,2164.39480912 187.56935294,2106.92263057 157.822431053,2107.26990997 147.26359159,2125.96330706 147.267548201,2157.55159892 157.76360073,2157.51005865 157.991580867,2164.98144643 187.651336096,2164.39480912 " moovel_rot="65.1" moovel_centroid="168.733485609,2136.06399705"/>
  <polygon id="159744995" class="tile" points="190.60268899,2106.92263057 188.651336096,2127.24737716 193.872077276,2127.4372697 193.916969851,2131.62940312 204.306863763,2132.93619566 204.29739818,2108.24331033 190.60268899,2106.92263057 " moovel_rot="51.0" moovel_centroid="197.236096564,2119.49849972"/>
  <polygon id="229635423" class="tile" points="225.472264638,2106.92263057 230.414438698,2107.01412813 234.895813646,2107.09227624 235.010997875,2108.05530825 235.55814616,2109.43619601 237.431739574,2111.33805284 273.58352672,2111.92106547 276.472516686,2109.96758905 276.651060825,2107.7593126 280.778272855,2107.86841636 284.397874965,2107.97486226 284.670530431,2110.75420881 285.668321509,2115.36377563 288.114540473,2117.60766529 234.130588829,2116.74535986 233.564042228,2153.5113407 242.591798313,2161.66261461 246.839916201,2165.46890918 244.734591062,2168.27951729 244.106851619,2169.53393393 243.820661351,2170.61515382 243.659942,2171.97044409 243.653986693,2173.10781347 243.720585044,2174.42054711 244.021523748,2175.62514204 244.429957588,2176.70999764 245.098646417,2177.83996182 245.834641388,2178.87184939 246.838028527,2179.86139071 247.708693045,2180.68618902 248.786523504,2181.49019886 249.71210947,2182.03093488 250.738511492,2182.45189699 252.0794028,2182.76514053 253.367663159,2182.92499719 254.503507238,2182.85438887 255.65938855,2182.78388546 257.056804653,2182.50685283 257.832894724,2182.25937647 258.683027277,2181.90292256 259.667829375,2181.33937981 260.465731817,2180.75298532 261.217567864,2180.03511124 261.55409857,2179.54472959 261.812026429,2178.75865002 261.87626103,2177.97155613 287.198800656,2178.96813178 287.047177144,2218.13089069 284.41323156,2221.1246194 276.91969537,2214.6328829 205.348820852,2146.24388124 205.306863763,2110.88549206 224.074442741,2111.1040633 225.345664275,2109.41553315 225.507929829,2107.76494264 225.472264638,2106.92263057 " moovel_rot="0.3" moovel_centroid="244.309985178,2155.52458077"/>
  <polygon id="175860970" class="tile" points="333.9213336,2106.92263057 289.114540473,2149.66825703 332.348364999,2198.28123739 343.559487653,2188.61678714 336.062621941,2181.10330043 307.272231987,2152.17552107 330.622163361,2129.05574123 343.602932479,2116.56098996 333.9213336,2106.92263057 " moovel_rot="2.0" moovel_centroid="318.289196541,2151.98792368"/>
  <polygon id="371104264" class="tile" points="345.874938577,2132.47015823 344.602932479,2124.68963169 347.384741305,2107.61591195 350.328959661,2106.92263057 350.331995457,2131.38909788 345.874938577,2132.47015823 " moovel_rot="-86.7" moovel_centroid="347.97141461,2120.66180157"/>
  <polygon id="371737624" class="tile" points="392.425661545,2193.50950562 392.486131545,2106.92263057 386.204079431,2108.70542624 384.353519428,2109.14336861 361.179317501,2117.88453257 351.331995457,2121.40526579 373.454645117,2169.36373688 381.149464875,2177.35573621 388.300044933,2184.04693283 392.425661545,2193.50950562 " moovel_rot="-93.2" moovel_centroid="378.010479267,2141.66214751"/>
  <polygon id="382974422" class="tile" points="398.515844298,2106.92263057 398.372900219,2232.02162307 396.906845743,2231.03264838 395.214288961,2230.81369924 393.534963445,2228.47097149 393.486131545,2111.06699713 394.239343261,2108.89260528 395.751848541,2108.37038484 397.788646265,2108.33563891 398.515844298,2106.92263057 " moovel_rot="-5.6" moovel_centroid="395.994291521,2169.22773419"/>
  <polygon id="13007366" class="tile" points="399.523954851,2241.97046279 399.515844298,2107.0298373 409.7791748,2106.92263057 422.817986554,2115.9386766 427.316830441,2119.39823638 487.441283198,2162.3090929 487.607491812,2185.54313825 426.373620649,2230.07899319 421.251698724,2233.77954797 410.348318098,2240.76226496 399.523954851,2241.97046279 " moovel_rot="-63.5" moovel_centroid="433.132159344,2174.22136841"/>
  <polygon id="328408590" class="tile" points="504.053911818,2212.99498305 488.607491812,2212.97320701 488.624112122,2107.09890043 512.318468567,2106.92263057 512.31233101,2155.07315698 509.262913944,2155.06355132 509.25767207,2186.33074303 504.054003155,2186.32118285 504.053911818,2212.99498305 " moovel_rot="71.0" moovel_centroid="499.246442058,2155.56085131"/>
  <polygon id="446737295" class="tile" points="517.736699982,2107.24217716 513.318468567,2106.92263057 513.352863686,2168.47808892 516.954046242,2168.07675909 517.736699982,2107.24217716 " moovel_rot="50.7" moovel_centroid="515.342925306,2136.63515341"/>
  <polygon id="229477424" class="tile" points="548.09992882,2122.11503415 551.650204382,2122.11332888 551.636714074,2149.91840286 551.627766891,2181.94083088 535.253470815,2181.95825735 535.248525072,2187.12030665 518.736699982,2187.13456532 518.736922667,2181.45746329 518.740096647,2176.07140716 527.330941679,2176.0629562 535.382931896,2176.06177091 535.385984772,2158.42403657 535.391427424,2139.93302212 535.40098274,2122.04688491 518.764659769,2122.05503687 518.765605588,2112.33863173 518.768763522,2106.95250322 548.104632897,2106.92263057 548.09992882,2122.11503415 " moovel_rot="-12.5" moovel_centroid="538.829836813,2145.00203576"/>
  <polygon id="357279450" class="tile" points="552.650204382,2106.92263057 558.824901687,2106.96018185 558.761122844,2114.67583921 552.651704163,2114.56644882 552.650204382,2106.92263057 " moovel_rot="-13.4" moovel_centroid="555.726850455,2110.77456191"/>
  <polygon id="27807632" class="tile" points="0.0150251705199,2372.13285254 46.0263611142,2371.49408352 46.1994557798,2378.91981165 46.3764624272,2387.88244852 45.2511860596,2429.75208408 24.3189834002,2428.34655561 0.0,2426.4501917 0.547550101765,2391.56157244 0.0150251705199,2372.13285254 " moovel_rot="42.2" moovel_centroid="23.369065667514512,2399.91462588"/>
  <polygon id="278093342" class="tile" points="48.3764624272,2390.61844378 65.7661245141,2390.66000207 65.7682992699,2371.53562326 48.3786104865,2371.49408352 48.3764624272,2390.61844378 " moovel_rot="55.2" moovel_centroid="57.0723755855,2381.07703571"/>
  <polygon id="331734726" class="tile" points="72.191927744,2372.48569904 66.7682992699,2371.49408352 66.807855111,2445.30625678 71.9630303185,2444.67325635 72.191927744,2372.48569904 " moovel_rot="-19.9" moovel_centroid="69.4234273562,2408.17833666"/>
  <polygon id="302811746" class="tile" points="73.191927744,2389.05523711 73.1957280888,2371.49408352 78.2681008838,2371.49843301 78.2699196693,2389.04805757 73.191927744,2389.05523711 " moovel_rot="-5.4" moovel_centroid="75.7311412938,2380.27557244"/>
  <polygon id="28637355" class="tile" points="112.195453291,2371.49408352 112.192227794,2418.3517507 79.797341466,2418.39671721 79.2699196693,2372.13331986 112.195453291,2371.49408352 " moovel_rot="82.6" moovel_centroid="95.8977894235,2395.03017262"/>
  <polygon id="219537546" class="tile" points="113.195453291,2371.50518618 127.328842752,2371.49408352 127.330947045,2387.10314958 124.111512995,2387.10373375 113.197481171,2387.10330701 113.195453291,2371.50518618 " moovel_rot="-0.4" moovel_centroid="120.264029768,2379.30157522"/>
  <polygon id="126252020" class="tile" points="128.330947045,2415.35252799 128.362274278,2375.12028587 132.628660972,2375.12127956 132.627876256,2371.49832353 142.289667229,2371.49408352 142.251353793,2418.74529424 138.087104841,2418.74867187 132.081361077,2418.75649525 132.091115492,2415.35410471 128.330947045,2415.35252799 " moovel_rot="-72.4" moovel_centroid="135.529990102,2395.21389382"/>
  <polygon id="177430990" class="tile" points="143.289667229,2375.6790162 193.062635775,2371.49408352 193.04140489,2397.74575917 186.119769567,2410.99964657 176.694614094,2424.34327144 176.196873355,2440.86342141 166.383340247,2442.85383378 164.67071439,2480.99806758 146.555226484,2481.37879684 143.289667229,2375.6790162 " moovel_rot="-20.4" moovel_centroid="163.770053136,2416.37211794"/>
  <polygon id="89010271" class="tile" points="194.115632506,2507.94695361 194.062635775,2371.50616366 211.315678067,2371.49408352 211.368643844,2507.93487153 194.115632506,2507.94695361 " moovel_rot="-86.4" moovel_centroid="202.715647519,2439.72049768"/>
  <polygon id="152859980" class="tile" points="212.595600543,2371.49408352 212.597964541,2375.57800054 212.622399966,2442.92653726 217.496831026,2442.97730367 217.521941754,2460.02536091 212.368643844,2462.76000117 212.369269232,2466.29984372 216.662908231,2466.30301068 215.83650004,2467.03763743 216.2451367,2467.44634658 220.094351114,2470.59707016 222.859845157,2471.92279038 225.798277005,2472.75437218 225.619858461,2474.17973648 227.735202919,2474.05982346 227.73117167,2476.98862269 229.888743725,2476.98636162 229.867206329,2474.47517413 231.796383043,2474.29248592 233.09542171,2474.03218632 234.226368967,2473.72307089 235.953650549,2473.06455097 236.198520224,2472.97017815 237.36085018,2472.37752759 239.001291613,2471.32797666 239.035990785,2471.3223761 240.08259538,2470.47837233 241.017052063,2469.61660586 241.495163566,2469.15970533 242.169842241,2468.40104664 243.466536694,2466.57578553 244.774035391,2466.56094535 244.767074623,2462.97571026 244.760528937,2457.63730704 239.595310823,2457.62925414 239.574355419,2447.72793597 244.749077651,2447.80407106 244.746343689,2440.13600253 244.421118202,2440.13997408 244.419180947,2371.49659 212.595600543,2371.49408352 " moovel_rot="9.0" moovel_centroid="228.804068547,2420.10239398"/>
</svg>