<svg xmlns="http://www.w3.org/2000/svg" version="1.1" width="592.5px" height="1200px">
  <polygon id="12" class="bin" points="1.875,0.0 -0.77665042945,1.09834957055 -1.875,3.75 -1.875,1203.749999 -0.77665042945,1206.40164943 1.875,1207.499999 277.75518957,1207.499999 280.406678475,1206.40181094 281.505189542,1203.75045585 281.533805194,968.8607393 280.897533984,966.770499402 279.20421272,965.389700003 276.547328149,964.302315156 274.65668949,962.589833743 270.763243922,961.177903655 268.754082992,958.025516473 267.410376286,952.527279915 267.690880221,948.911528869 270.059367265,946.165148122 271.709641721,945.1713612 272.169121497,944.845253171 273.33085841,943.881683917 274.09336448,943.019866822 275.024997698,941.567339889 275.238653092,941.187278358 276.540567543,938.519173875 276.669137901,938.268821802 277.257446504,937.178767307 277.582498403,934.437957144 275.370919004,926.084561043 275.210640235,925.609918723 272.308710767,918.600225948 271.998927443,918.007748572 267.512865086,911.02472222 267.498600247,911.002687473 262.934658172,904.006609981 262.705133616,903.691810541 256.401154764,895.9275387 256.303945321,895.812604286 235.533055139,872.231078652 233.073259719,870.976490321 232.719898397,870.942959813 228.281776961,868.696338438 214.436878198,853.169498734 212.991452926,848.988909881 214.946299757,845.020893847 223.337872212,837.694560711 223.442095339,837.600064678 227.311074584,833.95763042 231.420465103,832.397794148 234.282767788,833.683437459 236.449402232,833.959338889 238.402272224,832.981215579 240.50138892,830.986753586 241.468049892,827.058945651 240.499374786,824.215472815 242.553011411,820.225785044 245.793267726,817.531934887 245.912687213,817.428318799 255.23833864,808.98568553 259.377525606,807.506304557 263.351265094,809.385355192 264.634453295,810.800293852 265.168263323,811.285607926 279.603232618,822.066913965 279.771195776,822.185334949 285.911804269,826.267498666 286.458044868,826.568363817 294.450376609,830.139497118 297.567594659,830.113173525 299.587849775,827.739082001 301.732664274,820.177885496 301.874999,819.154532541 301.874999,709.203292321 300.756716856,706.531858038 250.452766155,656.975780186 249.323024915,655.513935342 242.384206766,643.479042371 241.513997836,640.849509702 240.44997122,631.732279708 241.310158891,627.542220108 245.374235915,620.462857477 246.051220891,619.489144825 301.007745604,553.434095232 301.874999,551.035705769 301.874999,535.434639239 300.713963815,532.72175126 297.949793033,531.688734426 265.881906414,533.188635078 261.637593554,531.590812457 259.88339323,527.408706528 260.970244029,414.513895141 260.970202162,414.437580843 260.023275704,326.141392428 261.601943119,322.120169936 265.533959472,320.330849248 298.283338975,318.946805337 300.832052278,317.795214739 301.874999,315.200149701 301.874999,302.031827454 301.032221893,299.663166429 285.78098823,280.944263564 285.70411858,280.852924484 252.580726395,242.742803954 251.81367097,241.666482266 237.576175787,216.963288924 236.713184039,212.739241351 237.360897622,207.357620014 238.158089192,204.876845163 240.929322466,199.828996726 244.48803032,196.735918707 299.454082937,175.90231507 301.210980591,174.526288654 301.874999,172.395744682 301.874999,167.919778578 300.747054639,165.238860036 298.041759414,164.170702535 264.608360631,164.913014043 260.466817205,163.277418825 258.740895031,159.172696384 258.768183179,65.8999248079 256.628749248,62.5122988762 254.217672471,61.3656386047 250.385134935,55.2929055587 250.414056298,23.812420449 250.430805979,3.75313127897 249.333564559,1.09945687605 246.680807286,0.0 1.875,0.0 " moovel_rot="0" moovel_centroid="134.6024938338177,612.156064747918"/>
  <polygon id="25037563" class="tile" points="-2.15007719318,1285.66161438 -49.5518049957,1276.56873111 -49.1947524029,1267.20769353 -48.9206276614,1264.13036953 -47.6657872238,1233.13140779 -48.3603004813,1218.12611159 -49.5735890852,1204.92950975 -13.939087763,1201.0 -3.03310386413,1201.80230258 -1.0,1223.44996209 -1.06627975879,1244.88293611 -2.15007719318,1285.66161438 " moovel_rot="-10.3" moovel_centroid="-24.41886372519005,1242.020703188184"/>
  <polygon id="153097085" class="tile" points="-67.9444482511,1201.58006058 -50.5817377413,1201.0 -50.5735890852,1241.44986267 -67.9972304359,1241.11834201 -67.9444482511,1201.58006058 " moovel_rot="77.1" moovel_centroid="-59.2412052828,1221.2986031023195"/>
  <polygon id="28721537" class="tile" points="-109.866366682,1279.39221162 -109.823596172,1201.0 -68.9972304359,1201.02020363 -69.0281825485,1279.4081673 -109.866366682,1279.39221162 " moovel_rot="-38.1" moovel_centroid="-89.4290294671,1240.2070359903844"/>
  <polygon id="99252834" class="tile" points="-115.224052786,1206.36516315 -110.866366682,1206.3093852 -110.919962805,1201.0 -115.221456425,1201.07135907 -115.224052786,1206.36516315 " moovel_rot="-85.4" moovel_centroid="-113.056815694,1203.6921863968048"/>
  <polygon id="271274642" class="tile" points="-116.591977304,1201.03218506 -136.904077696,1201.0 -136.727510709,1339.18733533 -120.682988073,1339.20878583 -120.556060146,1274.57307285 -120.842656596,1213.06652634 -116.224052786,1213.06325882 -116.414758987,1204.38011469 -116.591977304,1201.03218506 " moovel_rot="-46.0" moovel_centroid="-128.506114571,1268.6492968374655"/>
  <polygon id="215827362" class="tile" points="-143.251927927,1201.0 -146.987527402,1212.89663683 -146.969534985,1228.38927477 -147.072250926,1278.72448244 -143.481351655,1284.01011102 -137.904077696,1279.81631379 -137.908416602,1266.48153818 -139.12358441,1240.98294061 -139.171754732,1216.88382095 -143.251927927,1201.0 " moovel_rot="-5.5" moovel_centroid="-142.864893214,1246.0795217842888"/>
  <polygon id="185766654" class="tile" points="-152.845033213,1255.04950584 -148.082053053,1255.04530718 -148.072250926,1201.0 -152.846113929,1201.00282383 -152.845033213,1255.04950584 " moovel_rot="82.8" moovel_centroid="-150.461372118,1228.014130135223"/>
  <polygon id="211681408" class="tile" points="-153.84841649,1201.01774525 -158.955588814,1201.0 -158.958073627,1211.96881893 -153.846113929,1211.97670498 -153.84841649,1201.01774525 " moovel_rot="-25.9" moovel_centroid="-156.402431584,1206.4916723592312"/>
  <polygon id="161297072" class="tile" points="-159.965045153,1232.64949126 -180.878806796,1232.62970753 -180.875588244,1221.09494436 -171.098032038,1221.09889089 -171.098345364,1215.54008595 -165.647215254,1215.54490522 -165.643951796,1201.0 -159.958073627,1201.0000853 -159.965045153,1232.64949126 " moovel_rot="-4.2" moovel_centroid="-168.002808903,1221.5137913591188"/>
  <polygon id="382417017" class="tile" points="-182.267197533,1218.97941029 -181.878806796,1211.83603078 -182.65208562,1201.77353535 -186.650474581,1201.0 -186.276676813,1213.094868 -186.662460353,1218.60563721 -182.267197533,1218.97941029 " moovel_rot="-82.0" moovel_centroid="-184.330819502,1210.237140537319"/>
  <polygon id="174043494" class="tile" points="-203.095539679,1201.07997246 -203.173378718,1210.46076766 -203.196090308,1230.66950161 -187.662460353,1230.66169614 -187.676749339,1201.0 -203.095539679,1201.07997246 " moovel_rot="43.6" moovel_centroid="-195.41605844,1215.8684527527444"/>
  <polygon id="88630584" class="tile" points="-204.196090308,1266.87240846 -236.318519244,1266.86643543 -236.341907669,1201.0 -204.202898452,1201.20685097 -204.196090308,1266.87240846 " moovel_rot="-91.5" moovel_centroid="-220.273030768,1233.9835764222505"/>
  <polygon id="44006497" class="tile" points="-293.784410894,1378.38980685 -237.341907669,1263.8248257 -257.227361086,1256.28929109 -252.93993911,1244.83142804 -251.037004016,1241.7969512 -261.957603131,1238.05516159 -260.299007338,1233.08975661 -288.511182603,1223.45798713 -282.060220672,1204.71777018 -288.962691879,1202.32512614 -292.795757063,1201.0 -306.614569982,1245.18486946 -289.692454387,1251.57222596 -302.702391755,1283.20981795 -272.527086837,1297.75318447 -306.552076366,1369.33062538 -302.274441357,1377.3168269 -293.784410894,1378.38980685 " moovel_rot="78.5" moovel_centroid="-277.093701558,1280.7112587509332"/>
  <polygon id="280270658" class="tile" points="-322.560173467,1224.17979267 -307.614569982,1224.54429129 -307.618043242,1201.32675621 -322.023952111,1201.0 -322.560173467,1224.17979267 " moovel_rot="-4.0" moovel_centroid="-314.953682173,1212.8338723712625"/>
  <polygon id="275600315" class="tile" points="-325.631612938,1201.06898723 -323.814456147,1201.0 -323.560173467,1371.80027205 -325.835837952,1371.73469583 -325.631612938,1201.06898723 " moovel_rot="83.3" moovel_centroid="-324.709918039,1289.5886436171356"/>
  <polygon id="106347199" class="tile" points="-326.83762728,1201.00146353 -332.392910256,1201.0 -332.391120014,1270.97375131 -326.835837952,1270.97520629 -326.83762728,1201.00146353 " moovel_rot="6.1" moovel_centroid="-329.614373932,1235.9876043237482"/>
  <polygon id="385516864" class="tile" points="-337.676717749,1292.45432033 -333.392910256,1292.44939499 -333.466998203,1201.0 -337.750807776,1201.00493817 -337.676717749,1292.45432033 " moovel_rot="-9.2" moovel_centroid="-335.571858449,1246.727159655917"/>
  <polygon id="208102025" class="tile" points="-338.780769038,1241.34029592 -355.483142638,1241.3637012 -355.445538517,1201.03115561 -338.750807776,1201.0 -338.780769038,1241.34029592 " moovel_rot="44.6" moovel_centroid="-347.114797976,1221.1853275373562"/>
  <polygon id="187069892" class="tile" points="-366.024442412,1219.93127544 -356.488031416,1219.91113116 -356.483142638,1201.0 -366.019567098,1201.02013754 -366.024442412,1219.93127544 " moovel_rot="63.4" moovel_centroid="-361.253796175,1210.465633809394"/>
  <polygon id="70661969" class="tile" points="-376.05738929,1242.18101549 -367.024442412,1242.17805571 -367.025460347,1201.0 -376.069338558,1201.00255895 -376.05738929,1242.18101549 " moovel_rot="-92.1" moovel_centroid="-371.544165698,1221.5862573770942"/>
  <polygon id="107020713" class="tile" points="-377.069338558,1234.82201877 -394.105279159,1234.82928947 -394.118083441,1201.00727088 -377.082147495,1201.0 -377.069338558,1234.82201877 " moovel_rot="-92.2" moovel_centroid="-385.593712155,1217.914645547724"/>
  <polygon id="265485709" class="tile" points="-395.134114673,1201.0 -415.232246905,1201.01646258 -415.222726733,1224.87748907 -395.118083441,1224.85953723 -395.134114673,1201.0 " moovel_rot="12.7" moovel_centroid="-405.176896755,1212.9390164382223"/>
  <polygon id="143308728" class="tile" points="-416.233605788,1201.0 -416.232246905,1252.19818279 -463.551902457,1254.83124711 -464.735002535,1204.10091182 -459.181045911,1203.71173484 -458.501505849,1204.81308262 -456.73600119,1204.93044531 -453.66743921,1204.11570632 -451.007423961,1202.64258429 -416.233605788,1201.0 " moovel_rot="12.7" moovel_centroid="-440.116973952,1227.8760734975235"/>
  <polygon id="16110303" class="tile" points="-465.742397337,1251.36649497 -465.735002535,1201.0 -489.724762681,1201.1366963 -489.256281101,1234.16882621 -496.164910034,1241.7201539 -491.143613686,1247.42978959 -489.397746192,1249.72664399 -465.742397337,1251.36649497 " moovel_rot="-32.8" moovel_centroid="-478.120373654,1226.4252609131627"/>
  <polygon id="112393594" class="tile" points="-497.164910034,1287.54489424 -549.63500074,1287.53130468 -549.687466709,1201.0 -497.217228796,1201.01356571 -497.164910034,1287.54489424 " moovel_rot="-80.8" moovel_centroid="-523.426150375,1244.2724209254225"/>
  <polygon id="393884045" class="tile" points="-561.364613886,1217.10027558 -561.354650402,1201.0 -550.687466709,1201.0293527 -550.692675873,1217.11974954 -561.364613886,1217.10027558 " moovel_rot="-25.7" moovel_centroid="-556.025398316,1209.062940286964"/>
  <polygon id="59570666" class="tile" points="-562.430433839,1246.84686011 -567.17343543,1251.53783124 -568.08519995,1205.00964315 -567.700784925,1205.4690868 -567.28943409,1205.82281523 -562.364613886,1201.0 -562.430433839,1246.84686011 " moovel_rot="-92.7" moovel_centroid="-565.019226866,1225.754483230125"/>
  <polygon id="211681406" class="tile" points="-573.811635931,1201.01612102 -573.814552601,1210.01144643 -569.088118165,1209.99532227 -569.08519995,1201.0 -573.811635931,1201.01612102 " moovel_rot="26.2" moovel_centroid="-571.449876799,1205.5057221856985"/>
  <polygon id="141703861" class="tile" points="0.0,1378.38980685 -0.0123036141973,1403.81935268 -18.4295557008,1403.74868466 -18.5615859315,1378.50692841 -3.42577480604,1378.45949879 0.0,1378.38980685 " moovel_rot="0.8" moovel_centroid="-9.241312347767366,1391.11170472"/>
  <polygon id="338078802" class="tile" points="-21.0802952473,1378.38980685 -20.7733768289,1401.58788735 -20.9523864253,1401.73882225 -20.8906846969,1407.47725659 -20.6944888579,1407.78138248 -20.5615859315,1417.8909288 -37.5418598738,1418.11300786 -37.528092523,1419.74380714 -41.3521384785,1419.79425479 -41.3535699908,1416.52696374 -37.9243276522,1416.48426475 -38.4138945787,1378.62175212 -21.0802952473,1378.38980685 " moovel_rot="12.3" moovel_centroid="-29.6740914147,1398.58551729"/>
  <polygon id="31434337" class="tile" points="-45.3749543906,1413.64680631 -45.6564980796,1410.42703409 -42.3783851784,1410.08061678 -42.3535699908,1378.38980685 -48.7138131882,1378.61648882 -53.0529994691,1379.03078006 -52.9507179093,1382.93675525 -58.2877255153,1383.3237237 -57.2136521044,1415.55368223 -48.1103867399,1415.46897839 -45.3749543906,1413.64680631 " moovel_rot="-88.5" moovel_centroid="-50.045364747,1396.9686582"/>
  <polygon id="52115131" class="tile" points="-59.294634401,1378.45153748 -59.2877255153,1411.66084753 -89.6403569027,1411.59110599 -89.6548413343,1378.38980685 -86.3717537965,1378.39815283 -59.294634401,1378.45153748 " moovel_rot="-43.4" moovel_centroid="-74.4686782885,1395.02305288"/>
  <polygon id="48409961" class="tile" points="-91.2654840402,1378.38980685 -107.993748384,1378.86005364 -108.012882309,1494.18178472 -90.6548413343,1493.85693333 -91.2654840402,1378.38980685 " moovel_rot="77.0" moovel_centroid="-99.4788586875,1436.67720401"/>
  <polygon id="298716471" class="tile" points="-109.028209973,1378.38980685 -109.012882309,1392.29012435 -121.386059432,1391.7395139 -121.345044294,1378.55857962 -109.028209973,1378.38980685 " moovel_rot="39.5" moovel_centroid="-115.138465733,1385.25056267"/>
  <polygon id="203288465" class="tile" points="-184.109495272,1427.91287224 -182.891274269,1433.01842976 -157.499648262,1449.64196645 -122.386059432,1447.38556335 -124.056119471,1406.23770453 -122.426362235,1396.60904357 -151.849702004,1378.38980685 -184.109495272,1427.91287224 " moovel_rot="-8.0" moovel_centroid="-148.756606022,1418.91403219"/>
  <polygon id="220219657" class="tile" points="-207.385828978,1378.43501035 -190.603840562,1378.38980685 -190.587962715,1429.66033132 -185.116262181,1429.64355499 -185.109495272,1434.53267547 -193.268400783,1434.55431643 -193.264679962,1438.12971713 -197.663320446,1438.14332332 -197.665087976,1444.40275838 -192.699697765,1444.39177977 -192.69705389,1453.08439522 -197.691833388,1453.09976627 -197.686497204,1456.33827538 -192.598157642,1456.3213975 -192.591128056,1474.60907104 -207.358933882,1474.64779372 -207.385828978,1378.43501035 " moovel_rot="56.1" moovel_centroid="-199.314926775,1424.47125167"/>
  <polygon id="37736296" class="tile" points="-208.676228477,1544.4679857 -208.523625723,1588.16668275 -233.308988745,1586.32258983 -233.69908901,1558.99012235 -239.357125885,1549.14672662 -266.662017183,1549.68290017 -266.795624707,1486.36335369 -265.938029326,1426.83246271 -240.027304455,1426.35273069 -239.970221495,1418.73829331 -240.149303534,1397.18803004 -240.205995708,1389.44076211 -229.555021642,1379.00574561 -208.709377944,1378.38980685 -208.671273881,1385.20653812 -208.385828978,1436.66304841 -230.888776216,1436.25874903 -230.339741017,1544.36034414 -208.676228477,1544.4679857 " moovel_rot="-92.9" moovel_centroid="-238.549429715,1481.0738053"/>
  <polygon id="256051198" class="tile" points="-267.795624707,1391.2007239 -272.159307858,1391.21129985 -272.163726426,1378.39442421 -267.803060961,1378.38980685 -267.795624707,1391.2007239 " moovel_rot="63.1" moovel_centroid="-269.980598535,1384.79980338"/>
  <polygon id="102943811" class="tile" points="-278.116359588,1381.90323122 -273.277921545,1378.38980685 -273.163726426,1571.89635198 -278.081849613,1575.19019858 -278.116359588,1381.90323122 " moovel_rot="-83.6" moovel_centroid="-275.659284949,1477.10740043"/>
  <polygon id="26774770" class="tile" points="-301.386873265,1378.95505547 -283.541276412,1378.38980685 -283.066828613,1399.41776323 -281.686322038,1407.75037263 -279.116359588,1413.31966612 -279.384314797,1420.09866942 -280.034532129,1429.61428793 -281.229137879,1433.28717537 -282.025851502,1446.8561362 -287.597411236,1451.05882293 -301.351604874,1451.09910176 -301.386873265,1378.95505547 " moovel_rot="44.5" moovel_centroid="-291.481611809,1415.39506522"/>
  <polygon id="335988775" class="tile" points="-323.523203406,1379.01329234 -302.386873265,1378.38980685 -302.406477697,1402.91018916 -322.50088785,1403.39598024 -323.523203406,1379.01329234 " moovel_rot="-83.2" moovel_centroid="-312.69877613,1390.82390424"/>
  <polygon id="185994863" class="tile" points="-336.509530528,1378.41376381 -324.523203406,1378.38980685 -324.524422752,1398.12354291 -336.510732597,1398.14750806 -336.509530528,1378.41376381 " moovel_rot="64.6" moovel_centroid="-330.516972738,1388.26865304"/>
  <polygon id="194067882" class="tile" points="-337.510732597,1378.73604974 -354.633937544,1378.38980685 -354.669594971,1432.52001872 -337.556364444,1432.39305685 -337.510732597,1378.73604974 " moovel_rot="-58.2" moovel_centroid="-346.105178922,1405.50694232"/>
  <polygon id="95920915" class="tile" points="-355.926081958,1410.36766194 -355.669594971,1410.54007966 -364.879808717,1410.24367908 -363.886191309,1378.38980685 -355.673022983,1378.71805503 -355.926081958,1410.36766194 " moovel_rot="-85.1" moovel_centroid="-360.097243033,1394.7000851"/>
  <polygon id="107191677" class="tile" points="-381.456279413,1378.42303155 -365.894743691,1378.38980685 -365.879808717,1393.89261386 -365.879962459,1405.09564707 -381.441471247,1405.128882 -381.440175546,1403.67897394 -381.445572097,1397.6609781 -381.456279413,1378.42303155 " moovel_rot="69.2" moovel_centroid="-373.666369778,1391.75928299"/>
  <polygon id="42485241" class="tile" points="-382.46509301,1378.42607299 -417.406722286,1378.39382645 -420.559424482,1378.38980685 -420.559387409,1431.25181953 -382.456279413,1431.27882913 -382.46509301,1378.42607299 " moovel_rot="-11.9" moovel_centroid="-401.510551388,1404.83790103"/>
  <polygon id="385515297" class="tile" points="-421.640826193,1378.38980685 -421.559424482,1451.74795179 -423.59418228,1449.88114725 -423.522688048,1379.93398954 -421.640826193,1378.38980685 " moovel_rot="81.1" moovel_centroid="-422.571508017,1415.45433786"/>
  <polygon id="193315139" class="tile" points="-424.59418228,1471.94662461 -456.188520233,1472.49810583 -456.084359929,1390.05997864 -448.11819499,1378.38980685 -425.946876973,1394.45079759 -424.59418228,1471.94662461 " moovel_rot="1.0" moovel_centroid="-441.046082764,1429.28739824"/>
  <polygon id="26374424" class="tile" points="-482.143754835,1380.14019357 -464.993337997,1378.6468205 -457.188520233,1378.38980685 -457.457464125,1583.48156132 -462.347264045,1583.52717375 -477.879815494,1582.68201979 -482.143754835,1380.14019357 " moovel_rot="-33.6" moovel_centroid="-468.676151818,1477.73950693"/>
  <polygon id="185766659" class="tile" points="-484.720245201,1378.38980685 -483.367856277,1388.17805731 -483.143754835,1397.8747385 -484.481807742,1437.42092022 -488.700439202,1437.37674435 -487.041792226,1397.76475286 -487.302265699,1388.30575491 -488.765512791,1379.16947539 -484.720245201,1378.38980685 " moovel_rot="81.3" moovel_centroid="-485.77756328,1408.34847456"/>
  <polygon id="106196804" class="tile" points="-492.692698213,1378.38980685 -491.756481817,1391.93702606 -489.785103229,1427.79161004 -489.765512791,1429.42641816 -505.838393642,1430.56698235 -505.758958294,1378.42167414 -492.692698213,1378.38980685 " moovel_rot="-82.4" moovel_centroid="-498.460863644,1405.08839538"/>
  <polygon id="55526859" class="tile" points="-506.849921299,1380.97122771 -508.789814754,1394.41443956 -510.497468897,1415.96798401 -506.838393642,1441.15868656 -566.92698761,1433.92081982 -562.370911228,1410.60820831 -556.654719093,1404.3465079 -533.805876514,1380.13792713 -528.892937605,1379.74858435 -511.961770074,1378.38980685 -506.849921299,1380.97122771 " moovel_rot="10.4" moovel_centroid="-532.696388952,1411.99416873"/>
  <polygon id="4689272" class="tile" points="-582.850582674,1381.47166798 -567.954194025,1378.38980685 -567.92698761,1487.38678021 -582.849842188,1483.73553337 -582.850582674,1381.47166798 " moovel_rot="-0.4" moovel_centroid="-575.316207784,1432.76255871"/>
  <polygon id="84894626" class="tile" points="-0.0393923040479,1589.05307434 0.0,1613.70268443 -17.971046621,1612.78519918 -17.0903581356,1588.16668275 -0.0393923040479,1589.05307434 " moovel_rot="9.7" moovel_centroid="-8.77800508371322,1601.0346902"/>
  <polygon id="165884847" class="tile" points="-19.971046621,1588.16668275 -20.0362441624,1597.01455472 -20.2424842994,1613.6269667 -19.9758447906,1618.59942771 -43.4132100311,1619.85193994 -44.0987820946,1588.70093327 -19.971046621,1588.16668275 " moovel_rot="3.3" moovel_centroid="-31.9735499528,1603.73886143"/>
  <polygon id="201855224" class="tile" points="-45.1045220814,1588.16668275 -50.1833464212,1588.17219482 -50.176176028,1597.07926048 -46.1754695898,1597.07200667 -45.0987820946,1597.06288339 -45.1045220814,1588.16668275 " moovel_rot="7.5" moovel_centroid="-47.6410676774,1592.6214608"/>
  <polygon id="287449981" class="tile" points="-51.1833464212,1643.48164533 -65.3036693406,1643.48899229 -65.3424622889,1588.18020632 -51.2109206614,1588.16668275 -51.1833464212,1643.48164533 " moovel_rot="-92.6" moovel_centroid="-58.2599705991,1615.82571968"/>
  <polygon id="324997999" class="tile" points="-66.3424622889,1639.76036025 -66.8526479819,1591.37059434 -71.8796622734,1588.16668275 -71.864904076,1596.62249839 -80.7207228323,1601.24658866 -80.741695789,1651.7746191 -75.0762488605,1651.76473102 -75.3156820881,1639.66915461 -66.3424622889,1639.76036025 " moovel_rot="-89.9" moovel_centroid="-73.7380688601,1620.28707656"/>
  <polygon id="379695794" class="tile" points="-91.5616276461,1607.09393154 -81.7442237799,1607.08191442 -81.741695789,1588.16668275 -91.5591113194,1588.17869564 -91.5616276461,1607.09393154 " moovel_rot="70.1" moovel_centroid="-86.6516648166,1597.63030421"/>
  <polygon id="24948726" class="tile" points="-109.570094942,1588.16668275 -124.56015795,1594.21805062 -116.61514545,1615.63099848 -124.562265186,1618.08425017 -117.773273742,1638.79545234 -97.8952027085,1629.07099225 -106.297175973,1605.94078053 -92.5616276461,1601.40011823 -93.5782595094,1598.83456044 -104.604532923,1602.3276276 -109.570094942,1588.16668275 " moovel_rot="5.6" moovel_centroid="-111.769053481,1613.84714256"/>
  <polygon id="326742309" class="tile" points="-125.691261914,1588.16668275 -125.562265186,1707.71283724 -173.448641386,1706.7834212 -171.734282791,1597.00680247 -125.691261914,1588.16668275 " moovel_rot="-56.2" moovel_centroid="-148.772843198,1650.27789287"/>
  <polygon id="62266858" class="tile" points="-196.630140169,1597.51825788 -196.695043682,1674.62502898 -174.514747967,1674.6067138 -174.512554769,1670.68483959 -174.455324798,1591.60990446 -174.448641386,1588.16668275 -196.630140169,1597.51825788 " moovel_rot="67.6" moovel_centroid="-185.362349619,1633.68786612"/>
  <polygon id="390401056" class="tile" points="-203.052575912,1617.36505791 -197.698858229,1616.9602357 -197.695043682,1588.16668275 -203.311413822,1588.63822469 -203.052575912,1617.36505791 " moovel_rot="64.4" moovel_centroid="-200.439255483,1602.66763799"/>
  <polygon id="185766658" class="tile" points="-204.337153788,1629.18548095 -208.192769827,1629.16501006 -208.505374418,1588.39662305 -204.311413822,1588.16668275 -204.337153788,1629.18548095 " moovel_rot="38.0" moovel_centroid="-206.335703869,1608.44120292"/>
  <polygon id="368042928" class="tile" points="-209.505374418,1635.15961534 -209.522925064,1591.16039946 -211.46846629,1588.16668275 -214.552100517,1588.31123679 -214.500775696,1635.5457293 -209.505374418,1635.15961534 " moovel_rot="-82.6" moovel_centroid="-212.04574725,1612.03830111"/>
  <polygon id="137481955" class="tile" points="-215.552100517,1588.16668275 -232.01278171,1588.89064151 -231.85598655,1608.29623468 -215.563182725,1608.21321164 -215.552100517,1588.16668275 " moovel_rot="12.3" moovel_centroid="-223.702023629,1598.3735203"/>
  <polygon id="170766289" class="tile" points="-258.449993558,1623.38276197 -253.594396717,1588.16668275 -240.44991103,1589.70449745 -240.058540779,1594.94526373 -233.031509426,1597.46557605 -233.01278171,1639.3041031 -258.449993558,1623.38276197 " moovel_rot="-83.1" moovel_centroid="-244.404114593,1612.24231072"/>
  <polygon id="327633465" class="tile" points="-259.449993558,1616.2746902 -261.689741647,1619.84565742 -277.919575542,1609.66841892 -270.068601707,1597.21900839 -269.66179044,1597.46252456 -266.361095192,1592.20465309 -266.333794229,1588.16668275 -259.474395497,1588.21873969 -259.449993558,1616.2746902 " moovel_rot="-82.6" moovel_centroid="-265.923998534,1604.47629917"/>
  <polygon id="53576377" class="tile" points="-278.93348411,1631.67828213 -307.347043484,1631.61772311 -307.343244885,1588.16668275 -278.919575542,1588.22278274 -278.934111952,1629.53237065 -278.93348411,1631.67828213 " moovel_rot="-66.2" moovel_centroid="-293.135921222,1609.91992839"/>
  <polygon id="24589659" class="tile" points="-308.686005564,1588.71698805 -317.855975569,1588.16668275 -317.884923985,1643.90653336 -308.347043484,1643.26831132 -308.397279017,1635.80472551 -308.661570516,1593.13538164 -308.686005564,1588.71698805 " moovel_rot="-4.8" moovel_centroid="-313.211277567,1616.19704086"/>
  <polygon id="211681402" class="tile" points="-323.439804395,1588.27298162 -323.470616092,1607.67907917 -318.884923985,1607.53279222 -319.266515046,1588.16668275 -323.439804395,1588.27298162 " moovel_rot="63.4" moovel_centroid="-321.264616487,1598.06512025"/>
  <polygon id="50064532" class="tile" points="-324.470616092,1636.6845344 -357.32735843,1636.80889415 -357.34162382,1588.2909171 -324.484805245,1588.16668275 -324.470616092,1636.6845344 " moovel_rot="31.3" moovel_centroid="-340.906107992,1612.48774775"/>
  <polygon id="84787451" class="tile" points="-358.34162382,1781.56161192 -384.448311673,1782.39730677 -384.341461385,1588.16668275 -359.459187407,1590.3928155 -358.34162382,1781.56161192 " moovel_rot="55.7" moovel_centroid="-371.679737732,1686.40501319"/>
  <polygon id="230115782" class="tile" points="-403.512171757,1658.11326594 -403.469120203,1588.20301237 -385.448311673,1588.16668275 -385.491462547,1658.07685415 -403.512171757,1658.11326594 " moovel_rot="50.4" moovel_centroid="-394.480268294,1623.13992168"/>
  <polygon id="128516086" class="tile" points="-407.101516897,1588.45390772 -421.594097536,1588.16668275 -421.590987464,1612.36253625 -412.662072402,1607.97960959 -404.512171757,1603.43145126 -407.101516897,1588.45390772 " moovel_rot="25.2" moovel_centroid="-414.229443866,1598.65395826"/>
  <polygon id="330713634" class="tile" points="-432.39786434,1588.18530017 -432.379309906,1612.06772861 -422.594097536,1612.04562872 -422.602243953,1588.16668275 -432.39786434,1588.18530017 " moovel_rot="71.5" moovel_centroid="-427.493499832,1600.11422011"/>
  <polygon id="197176010" class="tile" points="-433.881177317,1713.52320473 -433.39786434,1668.19868225 -433.778714102,1588.16668275 -450.32900462,1588.24159021 -450.440606043,1712.32212677 -443.48762059,1713.22605583 -433.881177317,1713.52320473 " moovel_rot="-81.2" moovel_centroid="-441.981881171,1650.74975129"/>
  <polygon id="24703024" class="tile" points="-467.145361017,1588.16668275 -467.161531076,1650.106575 -461.519330906,1641.25340074 -457.51176551,1631.7786442 -451.440606043,1624.35374213 -453.824035302,1600.48340267 -467.145361017,1588.16668275 " moovel_rot="18.0" moovel_centroid="-460.986001535,1616.85445087"/>
  <polygon id="25037562" class="tile" points="-468.390065978,1762.93724549 -468.161531076,1588.16668275 -487.002848667,1588.48067694 -485.560721619,1708.97786978 -485.042256731,1730.85937757 -485.025456625,1746.07806157 -485.576625482,1769.08618944 -474.081687598,1766.46697898 -474.343881631,1763.6001467 -468.390065978,1762.93724549 " moovel_rot="-88.7" moovel_centroid="-477.173438526,1675.37149385"/>
  <polygon id="204159897" class="tile" points="-525.767958703,1639.8669773 -525.795442476,1588.6041135 -509.486995601,1588.16668275 -488.089094625,1593.93977469 -488.002848667,1623.32349993 -507.136146886,1623.83493331 -507.401381032,1640.26852288 -525.767958703,1639.8669773 " moovel_rot="82.8" moovel_centroid="-509.208752999,1611.55712011"/>
  <polygon id="330713657" class="tile" points="-526.795442476,1604.75013476 -540.776748,1604.71167207 -540.759712311,1588.20226973 -553.80383178,1588.16668275 -553.834762373,1617.34925553 -542.018909018,1617.38103072 -542.021334104,1621.6839823 -526.811776686,1621.72629584 -526.795442476,1604.75013476 " moovel_rot="-20.0" moovel_centroid="-542.105359042,1606.89462481"/>
  <polygon id="241859201" class="tile" points="-554.879255718,1588.16668275 -554.834762373,1625.37809342 -560.539957488,1625.46273131 -571.387379072,1618.20823481 -570.550952343,1589.73245612 -554.879255718,1588.16668275 " moovel_rot="-10.0" moovel_centroid="-562.553050654,1606.26754511"/>
  <polygon id="86925147" class="tile" points="-0.306929627806,1827.61768949 0.0,1793.74299595 -7.32288346854,1793.82318575 -9.07023816789,1782.39730677 -37.5679479734,1783.04309284 -37.5278109013,1829.32862063 -0.306929627806,1827.61768949 " moovel_rot="-9.0" moovel_centroid="-19.749669777925643,1806.53449116"/>
  <polygon id="276982493" class="tile" points="-46.947851673,1782.39730677 -39.5766418102,1787.58123502 -39.5679479734,1829.90086477 -67.1964027141,1808.9133805 -46.947851673,1782.39730677 " moovel_rot="59.9" moovel_centroid="-49.2832549261,1805.56123115"/>
  <polygon id="245092139" class="tile" points="-68.1964027141,1782.39730677 -68.2088902466,1818.850746 -72.4950530946,1818.85238146 -72.5249681981,1877.82279499 -114.522593153,1877.82504115 -114.473547289,1782.40049181 -68.1964027141,1782.39730677 " moovel_rot="5.3" moovel_centroid="-92.6310807163,1829.00600361"/>
  <polygon id="142886818" class="tile" points="-125.564055551,1782.4208119 -115.531986331,1782.39730677 -115.522593153,1795.38414767 -125.554655121,1795.40765501 -125.564055551,1782.4208119 " moovel_rot="73.1" moovel_centroid="-120.543322682,1788.90247956"/>
  <polygon id="50064525" class="tile" points="-126.564055551,1844.43884227 -159.643018004,1844.54713188 -159.685109506,1782.49263599 -126.605648151,1782.39730677 -126.564055551,1844.43884227 " moovel_rot="33.2" moovel_centroid="-143.125033712,1813.46890438"/>
  <polygon id="59191441" class="tile" points="-187.398069177,1825.52419539 -187.371982218,1784.23877683 -176.865955251,1782.39730677 -163.545476503,1816.30786393 -160.685109506,1823.75733775 -174.936690247,1833.50230302 -177.81121655,1833.69515639 -186.993874896,1833.40728836 -187.398069177,1825.52419539 " moovel_rot="-78.3" moovel_centroid="-177.335134916,1810.7012696"/>
  <polygon id="382974327" class="tile" points="-188.398069177,1782.39978535 -191.85548742,1782.43079598 -204.327155935,1782.44998353 -207.501788984,1782.39730677 -207.533227327,1798.35481637 -210.732867132,1798.35477904 -210.712521986,1819.03259282 -190.329292438,1826.5733534 -188.761354641,1822.03623368 -188.423281552,1821.06732725 -188.545443238,1798.52241803 -188.488994491,1793.14156457 -188.398069177,1782.39978535 " moovel_rot="-5.3" moovel_centroid="-198.696769578,1803.45982683"/>
  <polygon id="262676486" class="tile" points="-211.732867132,1852.57318851 -221.416587689,1865.77537681 -247.294472448,1871.93757266 -250.108776402,1858.82282253 -237.627690654,1839.65040382 -234.044211243,1841.98666273 -229.387250741,1834.83272745 -233.094075341,1832.4111698 -228.917857251,1825.99255222 -250.11574403,1812.14834079 -231.086138147,1783.87452058 -225.984364704,1782.39730677 -211.732867132,1852.57318851 " moovel_rot="73.5" moovel_centroid="-230.391619093,1832.18136588"/>
  <polygon id="26285205" class="tile" points="-302.88645039,1787.19740837 -279.272563877,1784.1554152 -251.1419285,1782.39730677 -251.11574403,1858.86279318 -272.395026645,1862.0795145 -271.487202793,1834.39454745 -297.365563546,1833.53985333 -299.700445818,1833.58552512 -304.507542882,1833.52819052 -302.88645039,1787.19740837 " moovel_rot="19.4" moovel_centroid="-274.28958549,1815.91138303"/>
  <polygon id="390545076" class="tile" points="-305.511227251,1782.40754096 -316.344259259,1782.39730677 -316.343064518,1799.4696317 -305.507542882,1799.48606373 -305.511227251,1782.40754096 " moovel_rot="-68.0" moovel_centroid="-310.926195884,1790.94046306"/>
  <polygon id="219903161" class="tile" points="-357.556955998,1782.39730677 -317.344259259,1787.66582845 -322.686920163,1830.61009378 -322.8552514,1835.40096186 -357.543345946,1829.82619819 -357.556955998,1782.39730677 " moovel_rot="44.3" moovel_centroid="-338.81083092,1808.2052552"/>
  <polygon id="131293441" class="tile" points="-358.563572929,1782.48369447 -361.178469352,1782.39730677 -361.462631183,1788.67225152 -358.556955998,1788.75195824 -358.563572929,1782.48369447 " moovel_rot="-14.0" moovel_centroid="-359.942189701,1785.63127731"/>
  <polygon id="301904695" class="tile" points="-362.499444563,1782.39730677 -362.462631183,1824.36958766 -368.359384736,1824.39151532 -368.392928159,1782.40682406 -362.499444563,1782.39730677 " moovel_rot="16.6" moovel_centroid="-365.428740661,1803.39325542"/>
  <polygon id="380225181" class="tile" points="-369.392928159,2002.41280161 -369.506172395,1785.59198161 -372.916430804,1782.39730677 -372.980986622,1791.16788821 -369.894529554,1793.36927525 -369.734530099,1796.23695844 -373.134049524,1793.64416423 -373.118333412,1819.00003826 -369.931039102,1822.08757066 -369.775120714,1825.18901364 -373.091690169,1822.75247277 -372.979922548,1843.27903015 -369.953556545,1845.73382945 -369.838837309,1848.8131685 -373.248676395,1846.64951478 -373.163695257,1860.96453836 -370.111240368,1864.09153088 -370.147076447,1866.92868568 -373.126895593,1864.38707686 -373.275149619,1876.87559582 -369.963920902,1879.42103716 -370.005097091,1882.36709125 -373.331813424,1880.2604286 -373.282449493,1899.87156521 -370.079488617,1902.42104516 -370.110516174,1905.03721776 -373.297217571,1902.88144271 -373.374468497,1910.09265997 -370.171678175,1912.74139803 -370.078062614,1914.82829211 -373.358403148,1912.73407899 -373.459107923,1928.42720849 -370.27180203,1931.51471929 -370.338685314,1933.99988248 -373.329567657,1931.46477214 -373.404362657,1952.22619302 -370.185851734,1955.15656666 -370.216325062,1957.88477994 -373.579821355,1955.32374291 -373.355375449,1967.83802821 -370.080313456,1970.86081461 -370.100098155,1973.37121363 -373.447877382,1971.09181876 -373.509049949,1975.82781788 -370.125547633,1978.74730395 -370.415016509,1981.33663314 -373.586375473,1979.2511846 -373.377390434,1992.2041987 -370.195346109,1994.07183908 -370.252214652,1996.73620491 -373.418540545,1995.15020416 -373.321924756,1998.92761761 -370.162443805,2001.92567882 -369.392928159,2002.41280161 " moovel_rot="-28.2" moovel_centroid="-371.304433436,1893.98671695"/>
  <polygon id="41108247" class="tile" points="-374.586375473,1859.57413859 -380.451611312,1782.39730677 -443.630264654,1785.27582844 -443.749394637,1869.25821585 -439.236241038,1868.50369436 -439.812944654,1861.20447037 -434.628425944,1860.81262718 -435.991429529,1843.22259423 -406.957882168,1841.01213102 -407.343954602,1836.0057657 -392.591035857,1834.88118587 -392.243896665,1839.41621221 -385.071786112,1838.87760104 -383.448167068,1860.23140666 -374.586375473,1859.57413859 " moovel_rot="-66.4" moovel_centroid="-411.237499271,1815.94640203"/>
  <polygon id="49939329" class="tile" points="-444.749394637,1825.86266065 -444.796621097,1782.39730677 -465.668585179,1783.4396149 -464.179989497,1812.52387008 -474.534656724,1813.03887589 -474.739483413,1813.02823448 -473.841542139,1827.41372916 -455.454840728,1826.293047 -444.749394637,1825.86266065 " moovel_rot="-15.3" moovel_centroid="-456.819019905,1806.54259446"/>
  <polygon id="387212530" class="tile" points="-475.742311524,1782.39730677 -486.494628941,1782.40751659 -486.491799428,1796.12179756 -475.739483413,1796.11158141 -475.742311524,1782.39730677 " moovel_rot="12.5" moovel_centroid="-481.11705624,1789.25955044"/>
  <polygon id="230115783" class="tile" points="-503.975776229,1782.41949266 -504.841972106,1796.37126846 -507.637213541,1796.33320948 -507.44327842,1847.06631064 -487.575453489,1847.67619646 -487.494628941,1782.39730677 -503.975776229,1782.41949266 " moovel_rot="52.2" moovel_centroid="-497.22794757,1815.73200709"/>
  <polygon id="378025207" class="tile" points="-513.57929984,1782.44246175 -513.532167755,1804.43549034 -508.661932412,1804.55685693 -508.637213541,1782.39730677 -513.57929984,1782.44246175 " moovel_rot="-8.4" moovel_centroid="-511.099572799,1793.43107882"/>
  <polygon id="210594758" class="tile" points="-514.57929984,1782.39730677 -548.353649503,1784.62672175 -549.100626379,1791.13177 -546.726880285,1799.52679525 -539.508414506,1820.24959359 -528.869759856,1830.85455827 -514.652912238,1834.20161282 -514.57929984,1782.39730677 " moovel_rot="58.8" moovel_centroid="-528.95730603,1805.0858711"/>
  <polygon id="115639375" class="tile" points="-550.100626379,1782.39730677 -567.990846101,1783.31028189 -589.362611546,1796.90571607 -588.766531915,1856.83289547 -550.104362283,1856.66152 -550.100626379,1782.39730677 " moovel_rot="28.9" moovel_centroid="-568.906668036,1821.52180611"/>
  <polygon id="394051655" class="tile" points="0.0,2020.16406483 -0.0493663402274,2002.41280161 -10.1541993974,2002.59705236 -10.1652889794,2020.40054297 0.0,2020.16406483 " moovel_rot="74.1" moovel_centroid="-5.094625767049394,2011.40251061"/>
  <polygon id="42714232" class="tile" points="-12.2684366971,2002.41280161 -14.4425554574,2040.68498462 -14.8521562582,2076.1265311 -14.0445702706,2108.10414086 -13.6070606038,2113.32829199 -12.1652889794,2130.48129044 -16.9220825959,2131.26231401 -18.4087073544,2108.31728951 -19.4272632806,2075.75711114 -18.47282013,2040.37185598 -16.2956249017,2002.54930666 -12.2684366971,2002.41280161 " moovel_rot="84.8" moovel_centroid="-16.1105355921,2068.49804032"/>
  <polygon id="106985783" class="tile" points="-58.2006946456,2101.07715347 -73.5414329745,2080.33860485 -47.4903201777,2052.80234108 -45.6797286037,2044.27596035 -56.5762916882,2042.12200708 -55.4354235588,2038.38267041 -61.8652068999,2036.94907432 -54.7650570733,2009.92973697 -39.770622405,2014.10577626 -36.3116063728,2002.41280161 -23.8579718892,2006.20443176 -20.4442260305,2007.24078441 -25.5494452948,2030.55808034 -30.7762252599,2054.44158599 -34.3183096357,2057.83213916 -42.4441758518,2065.60178138 -38.9581926384,2069.72505066 -21.5247979193,2090.39257442 -20.4272632806,2094.69220174 -58.2006946456,2101.07715347 " moovel_rot="-27.5" moovel_centroid="-44.0598600104,2054.9242356"/>
  <polygon id="42557693" class="tile" points="-92.7698422711,2078.1749761 -91.5235449491,2078.31680929 -74.6031465113,2078.86905432 -74.6082109332,2014.3841203 -74.5414329745,2002.99540728 -86.6060800685,2002.71441946 -98.2042968927,2002.43338808 -99.3294903353,2002.41280161 -99.410295899,2020.21118584 -99.4626742393,2023.15612368 -100.510133104,2023.13553061 -100.690851215,2032.91689813 -99.6445410885,2032.93091155 -99.8126281839,2041.95748016 -94.8981935143,2042.05577236 -94.6223277751,2042.10932804 -94.2589236889,2041.96454231 -93.8851844775,2041.87897398 -93.496516769,2041.87894191 -93.1059939465,2041.9531675 -92.7470944408,2042.10071354 -92.4198182633,2042.32158004 -92.1491638433,2042.59978953 -91.9374278771,2042.92218259 -91.7965354133,2043.28406034 -91.7299314847,2043.66568364 -91.7399127785,2044.05389307 -91.9449342871,2044.78802846 -91.9995209996,2048.03845758 -91.408834297,2048.05062846 -91.4511439202,2050.09883185 -92.0537556134,2050.08196208 -92.1821863318,2055.77256564 -91.3463741578,2055.78941619 -91.4188039148,2059.19212228 -92.2557643218,2059.168692 -92.2646849696,2060.07200621 -91.4288729342,2060.08885679 -91.5063375518,2063.52634225 -92.343297819,2063.50291195 -92.4613928562,2069.25273281 -91.870706642,2069.26490378 -91.9118675902,2071.31968682 -92.5025537563,2071.30751585 -92.5706547873,2074.60776451 -92.2780056639,2074.82111413 -92.1234218972,2074.94329781 -92.0000198357,2075.0777037 -91.7809523875,2075.37847681 -91.6327283546,2075.71873461 -91.5468677433,2076.08343682 -91.5256672431,2076.45942403 -91.5833485637,2076.82883793 -91.6995066794,2077.18133714 -91.8991399787,2077.5009442 -92.1391417207,2077.78013576 -92.4433619486,2078.00951408 -92.7698422711,2078.1749761 " moovel_rot="-80.1" moovel_centroid="-85.6727554145,2037.28995728"/>
  <polygon id="405352379" class="tile" points="-101.690851215,2002.5541926 -101.749114468,2024.41303613 -107.843621551,2024.30009875 -107.860287732,2002.41280161 -101.690851215,2002.5541926 " moovel_rot="-20.8" moovel_centroid="-104.786575973,2013.39773853"/>
  <polygon id="38211989" class="tile" points="-176.638635806,2002.41280161 -108.860287732,2029.49165477 -125.050732534,2143.86805278 -176.656591999,2127.78487051 -176.638635806,2002.41280161 " moovel_rot="23.2" moovel_centroid="-146.823298186,2073.05060421"/>
  <polygon id="391001905" class="tile" points="-177.674927931,2031.97801322 -186.583701132,2047.91858374 -208.14057967,2048.03373299 -208.531373591,2016.8926625 -207.951285528,2010.14169521 -203.350819689,2009.98163782 -203.264807957,2002.63048947 -193.000485159,2002.52669253 -192.98687506,2003.29041847 -188.500411394,2003.22201286 -188.506585799,2002.49916165 -180.736474189,2002.41280161 -179.10369995,2002.42297274 -178.869397962,2012.59795262 -177.656591999,2012.7204642 -177.674927931,2031.97801322 " moovel_rot="-64.4" moovel_centroid="-193.463432268,2025.06023224"/>
  <polygon id="185776165" class="tile" points="-213.596221966,2053.01014237 -209.531373591,2053.09903514 -209.587608785,2002.41280161 -213.411658004,2002.48876849 -213.596221966,2053.01014237 " moovel_rot="-7.6" moovel_centroid="-211.530973989,2028.01034836"/>
  <polygon id="385328457" class="tile" points="-214.596221966,2027.26689616 -219.684158183,2027.27631524 -219.685342619,2002.43063974 -214.604396033,2002.41280161 -214.596221966,2027.26689616 " moovel_rot="39.7" moovel_centroid="-217.142385296,2014.84950894"/>
  <polygon id="129802210" class="tile" points="-220.704298144,2040.50063215 -235.943597039,2040.49685314 -235.930119477,2007.9970902 -232.164222298,2008.00128405 -232.158739711,2002.41321665 -220.685342619,2002.41280161 -220.704298144,2040.50063215 " moovel_rot="-92.3" moovel_centroid="-228.099562187,2022.06654352"/>
  <polygon id="326557711" class="tile" points="-236.943597039,2052.23709289 -251.672560458,2052.20511876 -251.62029763,2002.41280161 -237.011569164,2002.5650106 -236.954458747,2039.57261096 -236.943597039,2052.23709289 " moovel_rot="-70.6" moovel_centroid="-244.313357415,2027.3898583"/>
  <polygon id="291847406" class="tile" points="-269.500417548,2002.41280161 -254.627400207,2002.42660826 -254.273934062,2007.44796163 -253.606239014,2017.81927365 -253.541388184,2018.63284496 -255.615335472,2018.46533988 -255.422651526,2020.7798712 -253.389118546,2020.72600975 -253.354603571,2021.17594556 -252.672560458,2032.28172392 -254.22118445,2032.36292411 -253.899840057,2034.70644982 -269.527440211,2034.78949376 -269.500417548,2002.41280161 " moovel_rot="53.4" moovel_centroid="-261.644270885,2018.83641852"/>
  <polygon id="396521208" class="tile" points="-270.777578598,2002.41280161 -270.527440211,2011.37333199 -276.662302135,2014.02497626 -276.66140324,2005.12699272 -270.777578598,2002.41280161 " moovel_rot="-31.2" moovel_centroid="-273.647018608,2008.26096506"/>
  <polygon id="331217756" class="tile" points="-308.104457553,2002.44104024 -308.120182106,2049.02068721 -277.678102389,2048.99242673 -277.662302135,2002.41280161 -308.104457553,2002.44104024 " moovel_rot="73.9" moovel_centroid="-292.891262236,2025.7167293"/>
  <polygon id="69223403" class="tile" points="-309.143168326,2027.19329943 -316.190585741,2028.46510121 -319.055088976,2011.83813991 -316.493879419,2011.49103646 -317.717892187,2003.95671044 -309.59659206,2002.41280161 -309.120182106,2006.68189921 -312.745591444,2007.28681495 -309.143168326,2027.19329943 " moovel_rot="-84.8" moovel_centroid="-314.010957426,2015.74978943"/>
  <polygon id="396599848" class="tile" points="-339.179428254,2002.41280161 -342.760855819,2002.4391733 -342.730400501,2031.10153949 -342.788274306,2055.77263931 -320.055088976,2054.9355891 -320.866833345,2038.94654754 -322.121646214,2038.97066715 -322.340791534,2035.69181552 -337.410568123,2036.51186009 -337.963083741,2026.17756815 -339.274373441,2026.24139613 -339.179428254,2002.41280161 " moovel_rot="74.4" moovel_centroid="-333.912062724,2039.82198844"/>
  <polygon id="27168745" class="tile" points="-343.81087705,2002.64274978 -361.547210749,2002.41280161 -361.537661679,2008.4670026 -366.875391834,2007.57169591 -368.496095692,2018.91131153 -363.172499851,2019.85988336 -364.137859876,2024.6300662 -344.666432855,2028.87829864 -343.788274306,2023.52165856 -344.704081956,2008.59377688 -343.81087705,2002.64274978 " moovel_rot="-7.9" moovel_centroid="-354.577602123,2014.90553376"/>
  <polygon id="25706923" class="tile" points="-418.009135876,2002.41280161 -418.136115419,2015.74100822 -414.607014889,2015.77351236 -414.653897472,2040.61565736 -418.929296213,2040.62984218 -418.888469063,2053.46992684 -415.212283403,2053.45673641 -415.177622368,2062.54204781 -419.103947583,2062.56127404 -419.052821017,2075.8102581 -415.567119308,2075.79054131 -415.522805665,2084.74743093 -419.52842142,2084.76740069 -419.466887603,2098.51483771 -380.634686944,2098.28316933 -378.11058381,2092.64344175 -369.496095692,2092.63107009 -369.501107706,2054.49842821 -382.579829668,2054.51198583 -382.583552004,2043.95381587 -382.088028505,2009.45220484 -404.432758032,2008.92194468 -404.546729399,2002.53693878 -418.009135876,2002.41280161 " moovel_rot="75.9" moovel_centroid="-396.820045738,2056.0458942"/>
  <polygon id="147024359" class="tile" points="-420.52842142,2016.97307166 -434.807678179,2016.9365229 -434.808496889,2002.41280161 -420.529226541,2002.44933406 -420.52842142,2016.97307166 " moovel_rot="-39.8" moovel_centroid="-427.668454418,2009.69293141"/>
  <polygon id="228209743" class="tile" points="-459.106454786,2005.94261342 -459.103108063,2045.83261264 -435.860711058,2046.10066554 -435.808496889,2035.52412721 -442.356922684,2035.52100385 -442.981546719,2002.565156 -449.597036095,2002.49663107 -452.292592896,2002.41280161 -454.494687928,2005.49861768 -459.106454786,2005.94261342 " moovel_rot="-88.8" moovel_centroid="-449.662946682,2026.31995589"/>
  <polygon id="40806635" class="tile" points="-485.761009148,2002.41280161 -460.128315619,2002.94008467 -460.106454786,2069.03091194 -493.169174156,2066.48603616 -485.761009148,2002.41280161 " moovel_rot="56.4" moovel_centroid="-474.809099962,2036.61076227"/>
  <polygon id="312515451" class="tile" points="-508.54720953,2002.41280161 -516.845685189,2014.60987001 -513.281475605,2032.14380008 -504.8641948,2039.22565999 -494.169174156,2027.34142212 -501.142727239,2021.44114949 -494.172072043,2012.1029566 -508.54720953,2002.41280161 " moovel_rot="30.6" moovel_centroid="-506.072123353,2020.56191687"/>
  <polygon id="312744213" class="tile" points="-519.077696688,2002.66328083 -517.951623657,2005.85580469 -517.871532602,2020.94585534 -518.446674738,2020.93051626 -518.448366333,2025.50040365 -517.845685189,2025.50706963 -517.919739772,2037.24448862 -519.476417082,2040.05791488 -523.963733943,2039.8568741 -524.01044048,2039.2157867 -528.131204292,2039.19932478 -530.88503591,2039.18779126 -530.880339439,2039.77042286 -535.730487072,2039.65975598 -537.229400001,2035.798781 -537.174407842,2025.24621092 -536.703682032,2025.30771015 -536.661812552,2020.81809742 -537.114403188,2020.78009232 -537.209348252,2007.3036942 -535.143087387,2002.41280161 -530.799692191,2002.4918987 -530.776617427,2003.17494924 -527.848820276,2003.19010371 -524.385815446,2003.21724375 -524.410478776,2002.63293098 -519.077696688,2002.66328083 " moovel_rot="-4.8" moovel_centroid="-527.495180967,2021.2291576"/>
  <polygon id="185938857" class="tile" points="-538.229400001,2002.43792508 -538.246646678,2023.97834424 -548.059668788,2023.94770926 -548.051891831,2002.41280161 -538.229400001,2002.43792508 " moovel_rot="-59.8" moovel_centroid="-543.146690433,2013.19246506"/>
  <polygon id="223588384" class="tile" points="-578.041516385,2002.80295875 -578.070119529,2027.82074274 -572.581257482,2027.80684523 -571.586848445,2027.80776397 -571.590683918,2030.9135599 -571.614096295,2052.30031074 -566.79950732,2052.30232494 -566.813034872,2062.63018502 -570.190265205,2062.64096891 -570.209971458,2074.91545704 -549.143632365,2074.89866926 -549.059668788,2002.77438885 -551.266510193,2002.41280161 -578.041516385,2002.80295875 " moovel_rot="55.6" moovel_centroid="-561.345295988,2035.67576765"/>
  <polygon id="330713635" class="tile" points="-28.7796180133,2143.90357866 -28.7816035487,2174.94116176 -0.0124442445114,2174.902177 0.0,2143.86805278 -28.7796180133,2143.90357866 " moovel_rot="71.7" moovel_centroid="-14.393684516972375,2159.40280277"/>
  <polygon id="190814279" class="tile" points="-30.7816035487,2143.88251005 -36.5984449855,2143.86805278 -36.6079783087,2160.8550672 -30.7877256811,2160.85914927 -30.7816035487,2143.88251005 " moovel_rot="-18.2" moovel_centroid="-33.6942349088,2152.36702284"/>
  <polygon id="176947905" class="tile" points="-76.8979589253,2143.86805278 -80.9313080931,2143.87034312 -80.9485998297,2192.55577967 -37.6152280716,2192.56438893 -37.6079783087,2143.88290802 -76.8979589253,2143.86805278 " moovel_rot="-68.5" moovel_centroid="-59.27628093,2168.21843"/>
  <polygon id="316767857" class="tile" points="-85.6750571552,2204.95173838 -82.1505630293,2196.67974328 -81.9485998297,2195.56228816 -83.5112402195,2192.41769715 -99.5231291066,2180.69178452 -102.391090902,2184.19910254 -110.134945235,2178.51501201 -96.2175452789,2157.62200328 -93.4391134997,2157.26946098 -87.8700426623,2161.49417497 -83.8057443704,2156.03136473 -84.9280169254,2155.14288732 -82.0000433938,2151.00756201 -92.2161030996,2143.86805278 -98.5410880998,2152.39660182 -100.035903343,2153.95299692 -102.488170363,2155.22034215 -105.209486707,2155.90832356 -107.488329454,2155.55527097 -108.96711439,2154.61550588 -110.599766291,2156.85203183 -111.891800034,2158.619044 -110.984081088,2159.30197218 -108.735386313,2160.93436416 -107.793917445,2162.71391747 -107.478927642,2164.88126324 -107.731512363,2166.74060691 -116.35630118,2181.67275684 -114.918735965,2182.79788217 -113.872148676,2184.20935984 -113.622568297,2186.33038461 -116.409414314,2189.9889843 -106.075404397,2197.49359763 -95.2189595673,2205.38152453 -91.7669594636,2204.62091724 -90.0828607186,2207.74422702 -86.2921910153,2206.12386888 -85.6750571552,2204.95173838 " moovel_rot="-35.3" moovel_centroid="-98.5618668131,2179.43541481"/>
  <polygon id="347818254" class="tile" points="-181.23931386,2258.85859588 -117.473191309,2258.74370244 -117.409414314,2143.86805278 -181.168504099,2143.99035721 -181.23931386,2258.85859588 " moovel_rot="43.5" moovel_centroid="-149.322263104,2201.36623292"/>
  <polygon id="360739270" class="tile" points="-187.978144747,2143.89299875 -182.23931386,2143.86805278 -182.254141425,2155.73678747 -187.950318408,2155.85282908 -187.978144747,2143.89299875 " moovel_rot="13.6" moovel_centroid="-185.109147617,2149.83031393"/>
  <polygon id="243582801" class="tile" points="-193.645417808,2144.06625173 -188.992399241,2143.86805278 -188.978144747,2154.14835961 -192.396915743,2157.96554273 -197.097479438,2159.72176568 -197.102455499,2149.61627348 -193.150507429,2149.29362296 -193.645417808,2144.06625173 " moovel_rot="49.5" moovel_centroid="-192.863460372,2151.83965416"/>
  <polygon id="378270187" class="tile" points="-198.102455499,2144.66637409 -198.158609908,2160.80533054 -198.183036164,2163.88428501 -208.734527367,2163.94583946 -208.740310822,2143.87131617 -205.785591696,2143.86805278 -205.711214119,2144.59404541 -198.102455499,2144.66637409 " moovel_rot="65.2" moovel_centroid="-203.483497073,2154.15046795"/>
  <polygon id="395577875" class="tile" points="-209.750453971,2161.59956058 -209.740310822,2143.86931454 -220.867417487,2143.86805278 -220.87756276,2161.59829871 -209.750453971,2161.59956058 " moovel_rot="-93.0" moovel_centroid="-215.308936254,2152.73380694"/>
  <polygon id="309260994" class="tile" points="-221.87756276,2251.16883552 -230.424568023,2251.50013897 -230.347001899,2230.51385013 -230.23817878,2143.86805278 -226.0180616,2144.09927436 -221.885444969,2144.3295796 -221.87756276,2251.16883552 " moovel_rot="-90.6" moovel_centroid="-226.101455534,2197.89460465"/>
  <polygon id="323221396" class="tile" points="-237.009238183,2143.86805278 -231.430264559,2143.98734304 -231.424568023,2167.09110721 -237.590516092,2166.81855029 -237.009238183,2143.86805278 " moovel_rot="-88.0" moovel_centroid="-234.363210831,2155.63370779"/>
  <polygon id="137469348" class="tile" points="-239.845062156,2145.13572121 -238.590516092,2161.54135059 -249.625141305,2162.85025941 -249.59927,2143.86805278 -246.804802002,2144.22912881 -239.845062156,2145.13572121 " moovel_rot="8.4" moovel_centroid="-244.534302616,2153.54289794"/>
  <polygon id="245580841" class="tile" points="-267.141448814,2195.30344634 -251.047809467,2195.16995195 -250.625141305,2164.70349182 -254.626601005,2164.56261116 -254.831658887,2149.16073469 -254.653882996,2143.86805278 -267.161857346,2144.33235903 -267.039144976,2184.24735402 -267.141448814,2195.30344634 " moovel_rot="-41.3" moovel_centroid="-259.621393245,2171.23525887"/>
  <polygon id="435776211" class="tile" points="-268.245936728,2212.72911523 -268.161857346,2143.86805278 -270.491034285,2145.32099473 -270.328714025,2210.16462034 -268.245936728,2212.72911523 " moovel_rot="-68.7" moovel_centroid="-269.296033702,2177.39522907"/>
  <polygon id="168149433" class="tile" points="-287.294721983,2143.89206653 -287.303127887,2163.63717795 -271.499057281,2163.60711986 -271.491034285,2150.52372915 -271.493493534,2143.86805278 -287.294721983,2143.89206653 " moovel_rot="64.6" moovel_centroid="-279.396919344,2153.75125184"/>
  <polygon id="330713654" class="tile" points="-304.85736895,2143.87906986 -304.887394536,2180.51444343 -295.952130144,2180.51080963 -288.333189552,2180.50341429 -288.303127887,2143.86805278 -304.85736895,2143.87906986 " moovel_rot="71.5" moovel_centroid="-296.595264213,2162.19181825"/>
  <polygon id="60108667" class="tile" points="-357.191671822,2146.25526544 -306.399946453,2143.86805278 -305.887394536,2233.99402347 -367.43388401,2234.76798076 -367.343768984,2160.53865455 -357.191671822,2146.25526544 " moovel_rot="5.3" moovel_centroid="-336.286298728,2190.41458673"/>
  <polygon id="105782863" class="tile" points="-369.064891199,2208.36724114 -385.520070226,2208.33285025 -385.592114639,2205.85244094 -387.485060491,2205.82042169 -387.578690531,2199.46820173 -393.101410967,2199.39951904 -393.065152352,2197.96907494 -396.419278857,2197.94325762 -396.402651201,2191.59537624 -400.980533907,2191.52273249 -401.01964566,2157.36065757 -396.361543842,2157.33958394 -396.348106745,2143.86805278 -389.6103796,2143.87705397 -389.597638314,2147.2402622 -369.127303045,2147.31984262 -369.099933649,2160.21837397 -368.839551397,2160.31089563 -368.592245544,2160.51171965 -368.43388401,2160.83378519 -368.489758125,2162.42668289 -368.610328086,2162.69796203 -368.794236817,2162.86722129 -369.114615807,2162.9806834 -369.091700038,2200.55525756 -369.064891199,2208.36724114 " moovel_rot="-85.3" moovel_centroid="-383.838733955,2175.77803792"/>
  <polygon id="284561377" class="tile" points="-412.447716696,2144.73766554 -402.01964566,2143.86805278 -402.112156479,2211.89297787 -412.210517928,2212.93921295 -418.74120096,2212.44521333 -419.077308708,2210.68211505 -419.23292859,2150.63731141 -412.447716696,2144.73766554 " moovel_rot="56.7" moovel_centroid="-410.493604182,2178.95747072"/>
  <polygon id="258350497" class="tile" points="-420.248238573,2143.86805278 -436.735496752,2143.94315922 -436.720167297,2167.70942722 -420.23292859,2167.63435219 -420.248238573,2143.86805278 " moovel_rot="-31.8" moovel_centroid="-428.484205994,2155.7887455"/>
  <polygon id="14353776" class="tile" points="-451.159065021,2143.86805278 -468.675850799,2143.98399418 -468.731218656,2254.69657891 -439.370199025,2255.15612353 -437.735496752,2188.69137519 -455.514093261,2188.33839262 -455.216771471,2168.86227237 -451.788541784,2168.86020897 -451.159065021,2143.86805278 " moovel_rot="-4.0" moovel_centroid="-455.461529962,2206.90105786"/>
  <polygon id="396091639" class="tile" points="-470.33675268,2143.86805278 -474.526493856,2145.93199384 -474.460684344,2325.19797257 -469.731218656,2322.08450017 -469.969973498,2148.90560195 -470.33675268,2143.86805278 " moovel_rot="-87.2" moovel_centroid="-472.177398238,2234.90914383"/>
  <polygon id="246644876" class="tile" points="-475.575104641,2146.22994252 -475.526493856,2148.12401028 -475.555977362,2160.1861405 -475.536495607,2175.45703861 -479.933897316,2175.58404854 -480.067661893,2181.96351757 -491.403886417,2182.06079478 -491.403641564,2143.86805278 -475.575104641,2146.22994252 " moovel_rot="-14.7" moovel_centroid="-483.861323042,2162.7329871"/>
  <polygon id="164199806" class="tile" points="-497.964320036,2143.86805278 -511.707001682,2147.96555939 -519.421409526,2149.60906905 -519.241242422,2157.59446732 -519.371309534,2194.23480496 -519.383886046,2196.89470723 -517.324427894,2215.4875647 -508.517196885,2215.8963875 -499.920009871,2194.06700459 -493.448635998,2194.41421315 -492.403886417,2160.7094746 -496.347424375,2150.44782098 -497.964320036,2143.86805278 " moovel_rot="63.1" moovel_centroid="-507.187233765,2177.47373218"/>
  <polygon id="244704563" class="tile" points="-526.647387993,2162.11821231 -520.431611975,2162.11956484 -520.421409526,2143.86940711 -526.637191659,2143.86805278 -526.647387993,2162.11821231 " moovel_rot="73.7" moovel_centroid="-523.534400338,2152.99380776"/>
  <polygon id="23904127" class="tile" points="-527.672655571,2143.86805278 -562.369412705,2143.89343131 -562.336734295,2193.8660787 -554.99310643,2193.85980343 -527.647387993,2193.83019517 -527.672655571,2143.86805278 " moovel_rot="3.9" moovel_centroid="-545.007200216,2168.86388161"/>
  <polygon id="53333464" class="tile" points="-563.369412705,2172.94596094 -585.537057813,2175.1060778 -585.503517148,2145.32275537 -576.713902429,2144.87668863 -566.541208844,2143.86805278 -563.369412705,2172.94596094 " moovel_rot="-35.4" moovel_centroid="-575.238221816,2159.75141646"/>
  <polygon id="272528127" class="tile" points="-586.537057813,2143.87122123 -591.656805862,2143.86805278 -591.672396593,2170.37765748 -586.552646447,2170.38082609 -586.537057813,2143.87122123 " moovel_rot="-94.3" moovel_centroid="-589.104726677,2157.1244403"/>
  <polygon id="56650900" class="tile" points="-0.0954287848435,2328.20039443 -54.1041053281,2325.19797257 -56.1095420326,2422.75438115 0.0,2424.72963154 -0.0954287848435,2328.20039443 " moovel_rot="8.6" moovel_centroid="-27.633321619694506,2375.52514474"/>
  <polygon id="395574464" class="tile" points="-58.1166736496,2378.94220223 -58.1095420326,2372.80703037 -83.6135043748,2372.77623623 -83.6063615711,2370.46890494 -83.5711840642,2336.1290798 -59.1572727842,2336.16695691 -59.1539516034,2330.1190584 -70.6659815833,2330.10858804 -70.6602740889,2325.23102492 -98.4706465801,2325.19797257 -98.5362624954,2383.50978029 -58.1180898716,2383.56835518 -58.1166736496,2378.94220223 " moovel_rot="-2.5" moovel_centroid="-84.1673841941,2355.63417748"/>
  <polygon id="143308730" class="tile" points="-113.440218161,2359.57303339 -106.147539867,2359.59628723 -99.5493566606,2359.61814365 -99.5362624954,2328.05893137 -102.983606015,2328.04718826 -102.979440836,2325.22137173 -110.301788994,2325.19797257 -110.308869746,2328.21577092 -113.430074749,2328.20583481 -113.440218161,2359.57303339 " moovel_rot="-47.8" moovel_centroid="-106.488887261,2343.05974175"/>
  <polygon id="243107540" class="tile" points="-114.440218161,2370.73774985 -172.973688235,2390.93328449 -172.931060872,2326.43991561 -114.698697814,2325.19797257 -114.440218161,2370.73774985 " moovel_rot="48.0" moovel_centroid="-145.43148386,2353.66050163"/>
  <polygon id="51408802" class="tile" points="-173.973688235,2372.59793017 -174.08645504,2351.87619695 -174.235795171,2325.19797257 -181.581677514,2325.23247906 -191.806160546,2325.37313019 -191.860620431,2372.71047812 -180.96668962,2372.63010074 -173.973688235,2372.59793017 " moovel_rot="-83.1" moovel_centroid="-182.966339809,2349.02775845"/>
  <polygon id="367712460" class="tile" points="-192.860620431,2329.53184003 -234.187274651,2325.19797257 -234.180229063,2385.52368925 -199.262473288,2389.95784727 -199.356067781,2383.61079258 -192.91348326,2383.77576087 -192.860620431,2329.53184003 " moovel_rot="-85.1" moovel_centroid="-213.786223112,2357.24668793"/>
  <polygon id="50476553" class="tile" points="-235.214007864,2325.22172367 -235.187274651,2378.45231388 -258.834774699,2378.43899187 -258.852933,2330.54925896 -258.858438466,2325.19797257 -235.214007864,2325.22172367 " moovel_rot="-16.4" moovel_centroid="-247.02322777,2351.82879651"/>
  <polygon id="168619633" class="tile" points="-259.858438466,2325.34938555 -281.460448283,2325.19797257 -281.474494362,2349.09204785 -266.447553177,2349.22320733 -266.405264642,2342.41994161 -259.866997643,2342.39920649 -259.858438466,2325.34938555 " moovel_rot="4.6" moovel_centroid="-271.378646165,2336.41179972"/>
  <polygon id="60541809" class="tile" points="-282.474494362,2373.48296396 -282.508906578,2325.19797257 -304.659271637,2325.21882791 -304.613901498,2373.50401057 -282.474494362,2373.48296396 " moovel_rot="-91.0" moovel_centroid="-293.56415287,2349.34895272"/>
</svg>