<svg><g transform="translate(0 0)"><polygon class="bin" points="1.875,0.0 -0.77665042945,1.09834957055 -1.875,3.75 -1.875,1203.749999 -0.77665042945,1206.40164943 1.875,1207.499999 274.092295418,1207.499999 276.748477998,1206.39710952 277.842273471,1203.73716919 277.509230255,1106.39321102 277.509194343,1106.38520951 276.423767459,910.992491076 278.956634136,905.67135738 286.47855361,899.629477626 290.489855411,898.37290611 293.601256876,899.8479587 294.645053281,902.447490981 296.330352419,904.34286038 298.836582991,904.732047558 301.017311221,903.437025268 301.874999,901.050180066 301.874999,856.844509506 301.518854012,855.249439552 263.411673006,774.168201115 261.687148968,772.405320191 259.24067477,772.094681639 257.130298496,773.370630028 233.416383433,801.989378491 229.906323218,804.00452208 225.935030346,803.223395126 213.345073558,795.471443065 211.093330279,792.917761203 210.651449809,789.541908644 212.989417615,775.595254899 212.968942975,774.243552289 210.994631527,764.319826141 210.836037489,763.756610728 204.400867397,746.267313128 204.362965507,746.168620205 191.885945541,714.999703581 191.588292054,714.069341388 189.754733006,706.528324125 189.564938377,704.655173441 190.228118502,686.522834036 192.066742032,682.111432278 224.312275736,647.721793537 225.247370103,646.890980093 248.769797792,629.550020413 252.600217858,628.22089232 255.903280818,628.112772014 258.473561621,626.97446114 259.530593247,624.369700268 259.730201879,472.255620614 260.03703784,470.235224894 264.51699552,455.759040294 270.028083747,451.09013149 298.629865403,447.204064319 300.949512145,445.954908442 301.874999,443.488205076 301.874999,399.587563418 301.252830197,397.518947455 248.645335407,317.974282622 247.559072219,313.434806429 262.606839223,182.664426868 264.731323863,178.829397444 268.941980897,177.608228734 273.877934373,178.148608158 276.793814591,177.208991978 278.036019242,174.408605644 277.504422225,12.0108166124 277.504489033,11.9505619303 277.549405286,3.77059095446 276.458382284,1.10563959333 273.799461818,0.0 1.875,0.0 " transform="translate(1.875 0)"></polygon><g transform="translate(468.13592529999994 -1285.2687984999998) rotate(0)"><polygon class="223184093" points="-442.351496825,2485.2583071 -442.402567086,2066.05139626 -465.635925142,2066.05530747 -465.585401765,2485.26887627 -442.351496825,2485.2583071 "></polygon></g><g transform="translate(491.1509703 -836.496071) rotate(0)"><polygon class="23536305" points="-363.945219691,1641.46024014 -383.471548534,1726.49501989 -443.522154699,1726.29738227 -444.01800295,1743.6091448 -455.876966283,1743.91385452 -455.726799347,1755.29721913 -455.923799427,1767.56419413 -455.840559523,1794.15011317 -460.371441791,1794.96054781 -460.417593468,1617.27782533 -363.945219691,1641.46024014 "></polygon></g><g transform="translate(557.4517424000001 -243.86419839999985) rotate(0)"><polygon class="98724079" points="-520.450094165,1250.42498501 -518.588487952,1225.4790327 -518.384482267,1203.73332766 -512.859609562,1203.95875379 -511.052053837,1202.85619067 -509.875329063,1201.05391279 -480.238478772,1201.0 -480.106429775,1203.78854039 -480.012766734,1206.50539762 -480.028399772,1206.92971655 -479.567976941,1206.93011304 -479.391003131,1227.4398925 -485.217670209,1227.74656204 -491.866163881,1235.47631469 -492.875341834,1262.03690972 -491.627899812,1263.03629508 -491.357794677,1274.09891028 -486.399978889,1274.20487453 -486.494126381,1279.35295531 -483.992957923,1280.63366145 -483.411937772,1341.04108029 -482.688676419,1342.54026108 -481.318759931,1343.73403448 -479.190690892,1344.48762325 -477.751342534,1344.40483657 -477.975894811,1338.29589137 -420.344403363,1337.72320494 -419.707562159,1354.21312353 -479.438205893,1356.5517437 -479.542527184,1350.54347652 -482.917589412,1350.87017964 -482.786004989,1359.00245735 -526.678123477,1359.65400143 -525.519668609,1302.91835366 -524.993361861,1296.74998362 -526.662826362,1296.5421713 -525.289345855,1282.37891288 -523.771795866,1282.69557321 -521.703220509,1261.5871656 -520.450094165,1250.42498501 "></polygon></g><g transform="translate(304.7302421 -1557.2018712) rotate(0)"><polygon class="24826748" points="-221.651993196,2485.26887627 -181.226613769,2490.92080922 -181.025534935,2498.87546146 -176.17218491,2521.26938142 -176.165511714,2535.42640295 -176.157983166,2547.30190626 -176.146890608,2573.81102847 -176.140126958,2586.15687489 -176.118271483,2616.97699047 -176.117969529,2629.27763649 -176.109758568,2642.74355082 -176.109160274,2646.14513933 -221.703001499,2646.16930138 -221.70715261,2637.12596615 -221.564650411,2616.20059715 -221.724183192,2603.82615567 -221.736670041,2576.69613744 -221.744859688,2564.63498762 -221.756019437,2539.28102079 -221.76421994,2527.21986691 -221.769717435,2514.3396881 -221.787688845,2492.06365584 -221.651993196,2485.26887627 "></polygon></g><g transform="translate(334.1728537 -1244.1739186999998) rotate(0)"><polygon class="47127803" points="-205.840870316,2177.43064647 -205.785546907,2066.05139626 -146.196194378,2066.11373959 -146.027013517,2181.88936222 -200.019176508,2183.0039564 -205.840870316,2177.43064647 "></polygon></g><g transform="translate(570.6740944000001 -1541.4539973) rotate(0)"><polygon class="24951307" points="-394.719291322,2497.77981602 -396.847891399,2671.50334905 -413.48898036,2671.430588 -422.496843663,2670.76375776 -421.47719447,2590.68097965 -432.352003306,2566.66416343 -431.647520603,2517.53766052 -437.11481682,2507.9522581 -437.098358135,2485.26887627 -400.80469087,2486.1566296 -394.719291322,2497.77981602 "></polygon></g><g transform="translate(625.1541197 -1078.3608522999998) rotate(0)"><polygon class="365890510" points="-437.123411217,1804.90375652 -437.701729413,1815.95167398 -438.284515501,1827.07861733 -438.76214113,1836.25015194 -433.148173079,1837.16648196 -433.024789277,1842.56492676 -432.999260583,1856.56758228 -432.976721866,1873.122023 -432.967501304,1877.48313943 -510.813819169,1875.00402177 -510.572797855,1848.09367051 -510.358642733,1834.47895209 -508.407532081,1834.13172162 -507.192311478,1816.8961006 -493.882495048,1817.80281137 -492.758506835,1794.96054781 -436.713984034,1797.18203587 -437.123411217,1804.90375652 "></polygon></g><g transform="translate(128.2872286 -556.6772066999999) rotate(0)"><polygon class="122552472" points="-74.6863800939,1334.61400117 -58.6816416815,1283.77441443 -1.0,1276.86678204 -59.4156588472,1207.0052044 -76.7426911486,1201.0 -88.5600689229,1237.04286213 -67.991315084,1243.92888429 -80.3956503291,1283.7344031 -74.3401369872,1285.7411387 -88.56805909,1334.63501553 -74.6863800939,1334.61400117 "></polygon></g><g transform="translate(254.9056248 -1052.4433347) rotate(0)"><polygon class="61030837" points="-117.377998625,1647.00410985 -114.811726022,1653.33130242 -105.456877691,1670.72293386 -140.32297687,1690.36032563 -99.3209180767,1764.20840545 -94.1636854947,1761.1495719 -91.6331892739,1765.48027861 -82.7052769073,1760.24360591 -85.0149856675,1756.29943512 -70.2800207356,1748.26004676 -77.4167120178,1735.74804599 -85.8291224629,1721.03499064 -96.2295663761,1702.82586076 -101.097722944,1705.60168647 -108.57187441,1692.51110586 -78.150637552,1675.1891882 -87.6011958164,1659.03578174 -83.8855907884,1656.78158 -93.5317900285,1639.55727089 -92.1658324199,1638.91257017 -94.8142820834,1634.06486059 -93.3061844698,1633.23555713 -70.3510739114,1620.17320147 -72.1444224072,1617.27782533 -99.777892964,1632.72466852 -112.28360768,1629.68926705 -117.377998625,1647.00410985 "></polygon></g><g transform="translate(272.90432730000003 -841.4891671) rotate(0)"><polygon class="53590756" points="-238.872310673,1617.27782533 -238.907124005,1479.29697966 -244.003302662,1479.29316339 -263.735946854,1479.28271117 -270.404332903,1479.27443714 -270.369331139,1617.25524068 -266.53011383,1617.25941731 -238.872310673,1617.27782533 "></polygon></g><g transform="translate(587.6176442999999 -822.1306219) rotate(0)"><polygon class="138639267" points="-492.394484463,1479.27443714 -474.942215669,1475.77248226 -492.770385048,1384.20768302 -474.930448241,1380.49602793 -479.843077885,1359.65400143 -494.074954792,1362.81369974 -492.262951723,1371.98017051 -503.826546008,1373.61405998 -504.81595585,1376.48100563 -541.752011073,1450.70378795 -545.082556105,1456.3130175 -532.745407141,1462.33412288 -497.452309214,1455.29852625 -492.394484463,1479.27443714 "></polygon></g><g transform="translate(240.37336779999998 -857.7016772000001) rotate(0)"><polygon class="240272613" points="-208.885225676,1359.98043108 -207.187031341,1371.74065232 -201.551075697,1370.11052082 -189.631454584,1397.68556617 -194.82630425,1400.03062004 -192.535104711,1405.09772585 -212.806212773,1414.23799684 -211.394740421,1417.34192485 -204.907387772,1431.67317661 -189.651079233,1465.32205305 -203.243039674,1470.91381184 -206.224873519,1473.1931934 -237.877782788,1430.97052231 -233.636531312,1359.65400143 -208.885225676,1359.98043108 "></polygon></g><g transform="translate(240.0519681 -674.2813507000001) rotate(0)"><polygon class="366852559" points="-158.82996323,1865.5139093 -158.876518405,1853.73568987 -158.94663047,1835.76641758 -159.019632279,1819.2683666 -159.079030756,1802.04023876 -159.118726762,1794.96054781 -209.194579189,1795.07035291 -209.171604769,1801.40597836 -209.102389789,1819.21795653 -209.0269978,1836.63440104 -208.949713696,1854.71554007 -209.268606206,1865.61268719 -158.82996323,1865.5139093 "></polygon></g><g transform="translate(271.0572228 -729.2700034) rotate(0)"><polygon class="25041155" points="-153.369155867,1201.0 -153.448920521,1302.60791098 -118.36490331,1301.18325612 -119.650263524,1202.76421973 -153.369155867,1201.0 "></polygon></g><g transform="translate(89.0248419 -909.4606990999999) rotate(0)"><polygon class="363763440" points="-11.53873963,1359.65400143 -59.4473943125,1402.74414108 -10.3213361839,1457.554202 -0.0269182104617,1449.30842203 0.0,1371.23530892 -11.53873963,1359.65400143 "></polygon></g><g transform="translate(510.37452210000004 -750.0364953999999) rotate(0)"><polygon class="177623357" points="-352.831057802,1310.53740894 -330.738676745,1310.89749223 -330.821125393,1258.1020031 -317.185152854,1258.01550069 -317.94763467,1201.1250987 -352.397524786,1201.0 -352.78040968,1208.94575137 -352.792633414,1300.39853511 -352.810686138,1304.94299633 -352.831057802,1310.53740894 "></polygon></g><g transform="translate(129.8307646 -1383.0078302) rotate(0)"><polygon class="27513476" points="-17.2129006164,1846.8451453 -17.1586302694,1875.04520389 -24.8562604493,1875.29157025 -34.8712478215,1864.17938316 -24.8217954313,1855.51317983 -64.4716100503,1810.04434538 -64.0066832269,1797.0488154 0.0,1794.96054781 -0.0458534035832,1846.38204705 -17.2129006164,1846.8451453 "></polygon></g><g transform="translate(207.53403400000002 -1235.681223) rotate(0)"><polygon class="266926626" points="-62.4036279252,1675.65328479 -66.5015035797,1676.63637546 -68.2800207356,1663.93107116 -68.1161996176,1661.8713537 -52.2210503479,1659.78809233 -53.0852386862,1652.7631742 -45.6205738479,1651.87344213 -49.2788808351,1627.6108563 -39.838947274,1626.13072383 -34.7726485999,1622.36608545 -0.902331407927,1617.27782533 -0.0658673627302,1623.51141368 -5.16393349618,1624.3971137 -0.102393407933,1629.31363132 -0.505736175366,1673.96883274 0.0,1684.12597232 -5.36278392635,1706.54898469 -9.96621033736,1705.25759101 -7.89602096882,1698.42998271 -3.9820637634,1684.91163031 -24.5920514686,1678.89291496 -16.3734699709,1650.47036151 -30.6758492578,1646.2955519 -38.9658917628,1674.96163478 -55.8822900575,1670.01652178 -62.4036279252,1675.65328479 "></polygon></g><g transform="translate(554.1541745 -1404.4757035) rotate(0)"><polygon class="218898556" points="-519.478792091,1886.48429646 -551.654189044,1886.66693857 -551.607144472,1795.25303604 -520.104621802,1794.96054781 -519.478792091,1886.48429646 "></polygon></g><g transform="translate(248.5838665 -350.3695389000002) rotate(0)"><polygon class="379970574" points="-112.948338018,1550.37112733 -112.984703756,1479.95982784 -133.781781734,1479.27443714 -137.036386517,1500.53812491 -160.711787887,1499.87409869 -162.637498091,1548.61784855 -112.948338018,1550.37112733 "></polygon></g><g transform="translate(318.2876199 -993.8364161999999) rotate(0)"><polygon class="339201159" points="-118.669571901,1906.96430256 -118.636934947,1888.80080567 -114.578242521,1889.03506831 -113.966436356,1859.15428922 -113.917155164,1795.33610571 -119.138403838,1794.96054781 -125.286614909,1798.15402334 -124.247535925,1828.22248866 -125.261232777,1851.53086344 -123.022875829,1956.19029737 -121.853683354,2066.05115591 -116.290242897,2066.05139626 -118.214934752,1949.70559479 -118.669571901,1906.96430256 "></polygon></g><g transform="translate(687.3573122 -952.8550541) rotate(0)"><polygon class="222374234" points="-483.353720647,2066.05139626 -483.336764811,2140.0824727 -499.702549628,2140.04522695 -501.343772693,2140.04547382 -500.620298197,2118.91020965 -546.738488312,2120.75481379 -546.664599681,2112.6041055 -546.476801407,2089.70808306 -494.439453266,2086.86435103 -494.225572325,2067.15677716 -483.353720647,2066.05139626 "></polygon></g><g transform="translate(535.4674095 -890.0935939000001) rotate(0)"><polygon class="27998687" points="-418.679896887,1291.91533134 -389.370647038,1303.12153557 -378.930502514,1272.41142058 -369.465546348,1265.32792944 -353.831057802,1222.38106913 -415.607394656,1201.0 -418.707562159,1209.76942761 -371.613839317,1226.71558896 -383.710131932,1259.86807566 -388.121081056,1263.49585426 -405.415996012,1257.24617533 -418.679896887,1291.91533134 "></polygon></g><g transform="translate(114.4054013 -2157.6388864) rotate(0)"><polygon class="50998026" points="-42.4553074126,2485.28914918 -75.3016819991,2485.26887627 -75.2304879784,2566.4458961 -42.3877445051,2566.47665504 -42.4024545855,2546.25002622 -42.4327086891,2510.08569537 -42.4553074126,2485.28914918 "></polygon></g><g transform="translate(400.43811489999996 -626.5060868999999) rotate(0)"><polygon class="367712463" points="-228.193943159,1290.79220522 -216.436450687,1301.72550831 -191.248469712,1271.16520629 -188.470532655,1273.45086896 -165.572109694,1246.96008946 -217.90962317,1201.0 -228.236829677,1212.1953826 -209.570902444,1226.64428278 -215.088187643,1231.02862914 -210.336901431,1236.25090331 -203.288572681,1242.92249918 -216.539997344,1256.77390437 -211.847430306,1261.43442167 -216.028184091,1265.65252689 -209.140047774,1272.03201713 -218.181276844,1280.69639466 -228.193943159,1290.79220522 "></polygon></g><g transform="translate(403.8617423 -1003.5000564000002) rotate(0)"><polygon class="59242312" points="-180.826313106,1587.10972538 -180.861060912,1491.62098626 -180.804637966,1479.28359815 -203.481861254,1479.27443714 -203.514411977,1587.1073387 -190.343537502,1587.10594843 -180.826313106,1587.10972538 "></polygon></g><g transform="translate(502.9994063 -1155.1212709) rotate(0)"><polygon class="44173572" points="-426.052283835,1479.29204564 -425.981058108,1562.84031497 -401.227977456,1562.81965259 -395.824524045,1562.81174799 -395.89571152,1479.27443714 -426.052283835,1479.29204564 "></polygon></g><g transform="translate(452.4029624 -1170.4168912) rotate(0)"><polygon class="368366708" points="-224.230378447,2197.15198616 -241.154063269,2197.6589585 -246.256033969,2191.27739309 -243.885050462,2066.05139626 -230.658825919,2066.19282232 -231.60676678,2132.70281867 -224.224766955,2137.83111626 -224.230378447,2197.15198616 "></polygon></g><g transform="translate(290.4693697 -1742.2255917000002) rotate(0)"><polygon class="143308728" points="-55.5179834781,2066.05139626 -55.516624595,2117.24957905 -102.836280147,2119.88264337 -104.019380225,2069.15230808 -98.4654236017,2068.7631311 -97.7858835396,2069.86447888 -96.0203788802,2069.98184158 -92.9518169004,2069.16710258 -90.2918016517,2067.69398055 -55.5179834781,2066.05139626 "></polygon></g><g transform="translate(578.7545213999999 -1000.9108693999999) rotate(0)"><polygon class="26708910" points="-330.999764897,2156.19465781 -357.135173743,2094.09525987 -330.95834187,2083.78991976 -335.338613436,2073.46936262 -347.099407732,2066.05139626 -375.890999845,2078.13061877 -377.932962161,2093.92706627 -348.602419537,2163.57081948 -330.999764897,2156.19465781 "></polygon></g><g transform="translate(766.3927377 -794.4099601) rotate(0)"><polygon class="391126580" points="-523.884468851,1633.98052391 -515.955725697,1633.36638348 -515.23941705,1633.32040469 -503.08064807,1632.48744305 -502.786890957,1636.69022116 -502.514923075,1640.43679002 -515.215396285,1641.07612378 -515.935395745,1641.17913156 -516.391621403,1641.23068332 -523.421161362,1641.86718427 -520.558351516,1683.26763629 -547.546289847,1685.16287573 -547.886676899,1680.25299585 -552.806414697,1680.60328822 -553.927294813,1664.65901662 -556.743576758,1664.8600019 -556.919289258,1662.6588358 -557.05106343,1660.57170246 -554.209120513,1660.37070397 -557.047316626,1619.95684783 -545.315020611,1619.32943029 -537.134046741,1618.62392884 -525.160189709,1617.27782533 -523.884468851,1633.98052391 "></polygon></g><g transform="translate(512.817604 -1678.6748855) rotate(0)"><polygon class="122552475" points="-294.199522967,2135.76450602 -287.554474244,2135.77686809 -280.361064786,2147.01735746 -262.593959811,2135.93897794 -262.623112056,2086.86776977 -270.011513619,2086.69318722 -269.942400002,2080.81652184 -299.357378544,2066.05139626 -300.789846829,2116.99556449 -294.199522967,2135.76450602 "></polygon></g><g transform="translate(481.79138379999995 -897.7048114) rotate(0)"><polygon class="60174056" points="-255.320304756,1858.04331781 -255.301061061,1811.30733214 -249.937780555,1810.48980862 -249.412563501,1795.03726317 -217.369046146,1794.96054781 -217.537508761,1820.13572718 -216.795575979,1857.28312071 -255.320304756,1858.04331781 "></polygon></g><g transform="translate(46.7029096 -1271.2656884) rotate(0)"><polygon class="328812620" points="0.0,1481.30187562 -44.2029104082,1479.27443714 -44.1823317903,1496.54050657 -36.8855759483,1496.10667814 -14.1445695662,1497.07084186 -16.6867230917,1557.40526116 -18.0567278206,1574.28047205 -19.9308757494,1597.42286979 -6.65274010906,1593.51094309 0.0,1481.30187562 "></polygon></g><g transform="translate(344.2233964 -1395.7252853) rotate(0)"><polygon class="107020721" points="-248.572395536,1714.39929809 -289.810809517,1715.49248115 -290.291451634,1706.87292995 -287.255162026,1706.9577412 -287.470126421,1695.47912976 -297.298981671,1695.5654008 -297.292078212,1686.31801762 -258.449540256,1686.07999658 -258.652739318,1650.70100614 -264.413089949,1650.70046757 -264.915982109,1626.05071768 -249.357311889,1617.27782533 -248.55238065,1667.50716322 -253.679082533,1667.51764228 -253.792301735,1686.04972245 -248.872744335,1686.02009376 -248.572395536,1714.39929809 "></polygon></g><g transform="translate(141.0101287 -2237.1314391) rotate(0)"><polygon class="27260542" points="-40.3877445051,2542.74105482 -40.3057613499,2485.26887627 -10.5588394621,2485.61615567 0.0,2504.30955276 -0.0039566103369,2535.89784462 -10.5000091396,2535.85630435 -10.7279892761,2543.32769212 -40.3877445051,2542.74105482 "></polygon></g><g transform="translate(519.3414428 -1249.3005858) rotate(0)"><polygon class="210596319" points="-374.840527432,1479.27443714 -340.392594715,1500.86006625 -337.883021388,1509.49632194 -355.912887159,1563.11251206 -374.88986712,1563.59563286 -370.219857127,1517.32673061 -374.840527432,1479.27443714 "></polygon></g><g transform="translate(215.13173940000001 -1839.0200019999997) rotate(0)"><polygon class="219111687" points="-2.07547501791,2136.42181016 -2.18341221213,2124.34764244 -5.58871675842,2120.90927163 -14.3048845455,2112.08195274 -18.3204706421,2108.02286061 -0.0110308466479,2107.81849285 0.0,2066.05139626 -29.263685002,2066.13319544 -28.9026018575,2083.87116334 -28.7630172702,2099.1326567 -29.1633018985,2108.3235058 -28.8273225132,2136.65643436 -24.2656744134,2136.57161013 -21.7626688527,2136.62404063 -2.07547501791,2136.42181016 "></polygon></g><g transform="translate(659.7687692 -1323.4866057999998) rotate(0)"><polygon class="401800895" points="-431.967501304,1797.0007007 -409.386300117,1794.96054781 -409.397183297,1869.27565075 -415.726541832,1869.64909037 -410.770116469,1907.85767208 -418.513245268,1908.46955047 -424.241116213,1860.99206936 -426.225830572,1844.52314551 -428.978301263,1821.7519446 -431.068342119,1804.39791292 -431.967501304,1797.0007007 "></polygon></g><g transform="translate(523.4321325999999 -625.6545234) rotate(0)"><polygon class="51215907" points="-417.819377185,1411.93064657 -417.813531538,1409.60862464 -417.79117382,1359.74931296 -450.878004935,1359.65400143 -450.911780473,1411.8316488 -417.819377185,1411.93064657 "></polygon></g><g transform="translate(497.7766396 -1222.0986479) rotate(0)"><polygon class="410758082" points="-495.149607374,1522.90361566 -495.276630481,1538.52855921 -487.954852862,1538.41912973 -487.75673648,1552.32307936 -493.131541011,1552.43327665 -491.303377014,1571.0574105 -485.786910555,1576.90404413 -476.338738192,1580.74158038 -478.479139203,1556.33048379 -482.36128302,1555.40597559 -484.065439957,1537.51224728 -475.102607239,1537.17519177 -476.382886809,1509.27827505 -476.462744087,1479.739299 -483.569471348,1479.63028863 -495.198454658,1479.27443714 -495.149607374,1522.90361566 "></polygon></g><g transform="translate(391.99174000000005 -614.5474937999999) rotate(0)"><polygon class="218801411" points="-158.512595846,1617.81759586 -149.251462065,1617.52787372 -141.32297687,1617.27782533 -141.408421617,1652.20950482 -141.37258375,1661.62948778 -141.324152316,1674.85809486 -184.175219551,1674.91098677 -184.208534491,1665.15669645 -181.318135865,1665.15958221 -181.378311146,1647.35214869 -158.897798369,1647.32282389 -158.918847482,1643.53543655 -158.512595846,1617.81759586 "></polygon></g><g transform="translate(622.9352091 -1596.9628892) rotate(0)"><polygon class="162865287" points="-375.415569202,1860.04762738 -390.71595251,1860.01056788 -392.579635071,1859.41839319 -395.662807986,1859.41117301 -401.082223798,1831.4865307 -402.765064134,1831.48536676 -402.768522773,1827.05163987 -380.967730475,1827.09524697 -380.96099618,1813.8951703 -404.53338628,1813.8384996 -404.533880715,1819.00152268 -408.386300117,1818.99312667 -408.377430213,1794.96054781 -400.018825218,1794.9794719 -380.461803515,1795.02148577 -375.376067215,1795.03984464 -375.38208988,1804.51518082 -375.415569202,1860.04762738 "></polygon></g><g transform="translate(568.0519217 -1294.7637201) rotate(0)"><polygon class="218895496" points="-447.033534209,1479.82073049 -446.708640034,1485.86841375 -427.71545576,1485.43990715 -427.052283835,1521.68829799 -437.781281572,1520.60978108 -437.915445603,1523.73710886 -468.09313315,1522.08358321 -468.048819668,1479.27443714 -447.033534209,1479.82073049 "></polygon></g><g transform="translate(255.6608938 -1654.7849719) rotate(0)"><polygon class="275251369" points="-74.5385113103,1798.33628638 -84.8478379061,1794.96054781 -106.461324474,1830.75387567 -106.765826152,1837.07763052 -91.2902771378,1891.36452986 -74.609786226,1887.35665362 -90.4209245967,1836.26298379 -86.9426817963,1827.30190766 -88.3006461918,1821.66013901 -74.5385113103,1798.33628638 "></polygon></g><g transform="translate(119.8649061 -1055.3992841) rotate(0)"><polygon class="26414069" points="-109.876532525,1258.41484848 -117.344543113,1258.41058416 -117.339536039,1245.56499025 -117.358695168,1217.08564481 -117.352079429,1208.64215127 -117.36490331,1201.0026102 -89.5884002909,1201.0 -89.5767419929,1239.80954421 -89.56805909,1258.40797506 -109.876532525,1258.41484848 "></polygon></g><g transform="translate(568.2310453 -1328.4221206999998) rotate(0)"><polygon class="23940156" points="-502.2702823,1549.46676496 -496.276630481,1506.3913535 -530.871179125,1479.27443714 -532.931518131,1491.40988194 -531.789815786,1506.144022 -532.945007071,1521.36212385 -502.2702823,1549.46676496 "></polygon></g><g transform="translate(269.8381349 -1332.4038168) rotate(0)"><polygon class="316872634" points="-53.1261333413,1525.35378989 -53.6693177294,1479.27443714 -85.4757852461,1479.79872426 -85.4769958712,1526.06371637 -53.1261333413,1525.35378989 "></polygon></g><g transform="translate(418.3044843 -1659.8654134) rotate(0)"><polygon class="285920170" points="-341.321106412,1794.96054781 -324.616754728,1795.04201584 -324.676411139,1870.03846261 -323.960523712,1870.03852868 -323.888540532,1876.72541755 -341.421446946,1877.04990286 -341.321106412,1794.96054781 "></polygon></g><g transform="translate(638.7689436000001 -1937.6930574000003) rotate(0)"><polygon class="4788577" points="-405.038468506,2130.8991013 -405.082109371,2066.05139626 -378.932962161,2067.70877427 -378.988722483,2112.10380494 -405.038468506,2130.8991013 "></polygon></g><g transform="translate(429.594371 -276.1012367999999) rotate(0)"><polygon class="5117308" points="-162.370386532,1359.65400143 -173.971501826,1362.7837254 -182.186474368,1364.48195192 -176.089369761,1442.40812397 -174.188716847,1447.41558489 -170.571653954,1451.21112842 -169.361917827,1447.41129961 -162.385921618,1417.8601942 -162.370386532,1359.65400143 "></polygon></g><g transform="translate(537.2430209 -803.3866114) rotate(0)"><polygon class="187937930" points="-348.52066662,1912.1869835 -348.83389196,1794.96054781 -356.719916957,1794.96129901 -356.842676752,1933.31046971 -351.856435117,1930.62413358 -348.52066662,1912.1869835 "></polygon></g><g transform="translate(453.5308071 -2353.6282047) rotate(0)"><polygon class="32959935" points="-326.787750499,2533.17910008 -354.845059803,2533.13761825 -354.837742576,2490.87146246 -354.842923897,2485.26887627 -326.785536286,2485.31033266 -326.787750499,2533.17910008 "></polygon></g><g transform="translate(393.3368381 -2047.0775514000002) rotate(0)"><polygon class="117589603" points="-258.077484067,2066.05139626 -261.593959811,2215.80163567 -261.256687004,2223.12841057 -258.7647355,2233.14665078 -253.688811613,2230.46280653 -256.422376915,2216.40480696 -256.351273417,2198.93183543 -255.503152036,2171.70352251 -253.794084174,2066.46477251 -258.077484067,2066.05139626 "></polygon></g><g transform="translate(306.7680512 -1378.3034639) rotate(0)"><polygon class="40983303" points="-271.469629972,1479.27443714 -271.404332903,1518.82372415 -293.067454608,1518.90863564 -304.268138821,1518.36213374 -304.114628574,1494.31285254 -303.963565193,1479.35322754 -271.469629972,1479.27443714 "></polygon></g><g transform="translate(85.8653457 -1328.1674472) rotate(0)"><polygon class="386407178" points="-61.4502812395,1424.16481138 -61.4473943125,1359.65400143 -83.3116284031,1359.76214414 -83.365345188,1393.94338228 -75.6306681006,1393.97097743 -75.02557989,1424.19523024 -61.4502812395,1424.16481138 "></polygon></g><g transform="translate(348.45718960000005 -2037.8735460999999) rotate(0)"><polygon class="169289195" points="-301.789846829,2133.81396993 -301.839972973,2066.05139626 -319.041525933,2066.09001866 -318.993960407,2133.8587618 -306.251312506,2133.76879912 -301.789846829,2133.81396993 "></polygon></g><g transform="translate(774.2251745000001 -2036.3730839999998) rotate(0)"><polygon class="197917668" points="-552.300046838,2067.57878702 -548.378875552,2066.05139626 -547.738488312,2227.08162914 -552.513884752,2229.68102182 -552.300046838,2067.57878702 "></polygon></g><g transform="translate(197.9334586 -1719.0287143) rotate(0)"><polygon class="115001530" points="-138.497859629,1855.37379362 -157.82996323,1826.10536914 -141.937463026,1814.23769944 -138.891134087,1795.38519977 -126.318291507,1794.96054781 -126.286614909,1846.72401823 -138.497859629,1855.37379362 "></polygon></g><g transform="translate(475.6242387 -1299.6848249) rotate(0)"><polygon class="128504903" points="-384.58971579,1359.65400143 -399.02662938,1364.40608095 -391.906422791,1396.07817457 -399.03934524,1427.57886846 -382.891259043,1429.87999962 -375.426045644,1396.57642194 -384.58971579,1359.65400143 "></polygon></g><g transform="translate(328.2525272 -2035.0828102) rotate(0)"><polygon class="178537514" points="-223.224766955,2066.05139626 -206.840870316,2066.42712953 -207.316778583,2132.59078673 -223.114886789,2132.51714525 -223.224766955,2066.05139626 "></polygon></g><g transform="translate(360.1449301 -1767.2701958) rotate(0)"><polygon class="163651294" points="-210.270342073,1932.92284238 -210.268606206,1794.96054781 -215.795575979,1797.71045651 -215.668747671,1925.65374707 -215.671484292,1933.02962345 -210.270342073,1932.92284238 "></polygon></g><g transform="translate(377.7430846 -1766.2024956999999) rotate(0)"><polygon class="447035878" points="-107.765826152,1936.47537565 -112.917155164,1936.32955583 -112.881702812,1794.96054781 -107.783472644,1795.70398709 -107.765826152,1936.47537565 "></polygon></g><g transform="translate(422.6813251 -2426.5080993) rotate(0)"><polygon class="137475511" points="-257.305833752,2485.26887627 -266.899916538,2485.3136518 -267.751381152,2530.50091375 -267.806390161,2565.06665424 -256.369000799,2564.8890623 -257.210602708,2530.35139428 -257.451319301,2501.51841086 -257.305833752,2485.26887627 "></polygon></g><g transform="translate(743.3334865 -1732.4033697) rotate(0)"><polygon class="38167477" points="-563.275329198,1803.16658074 -552.726084947,1794.96054781 -552.654189044,1847.12432588 -557.290926014,1850.05264861 -557.562876085,1856.31239825 -564.166193337,1859.82513475 -571.853205244,1852.34933923 -572.969683015,1836.93650552 -565.227304312,1811.31011401 -563.275329198,1803.16658074 "></polygon></g><g transform="translate(373.1991291 -1561.3943395000001) rotate(0)"><polygon class="397125329" points="-305.202796962,1794.96054781 -305.194972261,1802.19192358 -305.18135705,1830.70106529 -305.1664874,1846.85769437 -313.620396411,1846.86949057 -322.852199462,1846.88383976 -322.888540532,1794.98668781 -313.534643552,1794.97288038 -305.202796962,1794.96054781 "></polygon></g><g transform="translate(338.7411361 -1274.9594548) rotate(0)"><polygon class="47124275" points="-129.063710112,1359.65400143 -125.66118196,1416.21097485 -126.030614797,1415.88381608 -143.072163286,1417.17157097 -143.053170709,1375.41986908 -143.050558433,1359.67526837 -129.063710112,1359.65400143 "></polygon></g><g transform="translate(705.1055488 -1296.2613248) rotate(0)"><polygon class="106989182" points="-473.887222763,1419.47152703 -466.602013257,1419.88541559 -466.3401866,1416.97788864 -466.096464257,1409.20024934 -465.359953288,1409.25281575 -463.945356863,1405.9804432 -457.946309533,1406.34186934 -453.376200258,1406.35222614 -452.659122137,1406.28422749 -452.253965406,1396.22213393 -467.16404651,1395.47397765 -466.874496561,1387.62310727 -465.101981888,1387.69678247 -464.857373907,1380.50810897 -457.824942961,1380.79909643 -457.556496899,1374.66546015 -457.409278743,1371.77336954 -457.588723428,1371.53332754 -457.460496725,1368.64762648 -451.911780473,1368.90641077 -452.058664199,1359.65400143 -473.930448241,1363.87168375 -473.676256218,1375.97675451 -473.641501985,1381.98524742 -473.887222763,1419.47152703 "></polygon></g><g transform="translate(380.1392751 -447.3687084999999) rotate(0)"><polygon class="30983065" points="-310.999946547,1392.35632837 -310.678605457,1390.7414566 -310.808108903,1360.67718702 -339.828304215,1359.65400143 -339.838104556,1392.2542292 -310.999946547,1392.35632837 "></polygon></g><g transform="translate(406.65806 -1598.2309589) rotate(0)"><polygon class="383545077" points="-338.407059156,1669.27518142 -355.0091682,1669.25165226 -354.977606295,1617.27782533 -338.375463742,1617.30134791 -338.407059156,1669.27518142 "></polygon></g><g transform="translate(555.1500674 -1337.5785806) rotate(0)"><polygon class="342876715" points="-353.174279415,1409.76131256 -345.147130003,1404.40623803 -344.071208087,1405.7889931 -343.190868345,1406.81200958 -340.862006009,1405.11625801 -352.801834097,1386.4956196 -354.478035685,1387.82719669 -358.30680405,1383.70392597 -361.284886232,1378.7672107 -362.175128548,1375.85295927 -361.20538177,1373.54117403 -359.386000317,1372.76638899 -340.838104556,1371.41206057 -341.80804967,1359.65400143 -359.159760828,1361.12232491 -358.578934321,1367.44907801 -359.614076914,1367.47636261 -361.814942852,1361.7265714 -364.427589076,1362.80068363 -366.897856776,1364.27854477 -369.139146901,1366.11597189 -371.078333038,1368.24698801 -372.635666936,1370.59464927 -366.871912088,1374.33610276 -366.874183674,1375.17789894 -374.426045644,1375.63286671 -374.307120747,1376.65987649 -374.088925525,1377.51145016 -372.371833306,1381.4380704 -366.074511187,1379.92924365 -365.581844134,1380.89963433 -369.414339544,1383.71835645 -361.787453966,1396.31607811 -357.602054949,1393.28780336 -356.896344296,1394.12588918 -360.941482681,1397.15342899 -353.174279415,1409.76131256 "></polygon></g><g transform="translate(288.77159 -2071.4433501999997) rotate(0)"><polygon class="90446253" points="-249.258468862,2485.31197376 -229.797570015,2485.26887627 -229.801172475,2529.15585934 -249.262007217,2529.19898936 -249.258468862,2485.31197376 "></polygon></g><g transform="translate(501.7927635 -849.4848454) rotate(0)"><polygon class="392319332" points="-261.995174514,1209.30026723 -247.514294784,1248.51644074 -235.844802024,1245.8269284 -235.794179966,1201.0 -261.995174514,1209.30026723 "></polygon></g><g transform="translate(223.18544330000003 -1906.9427147000001) rotate(0)"><polygon class="286645784" points="-92.0550693014,2485.29670402 -112.730706875,2485.26887627 -112.720878797,2523.30812006 -92.0497708059,2523.34597973 -92.0550693014,2485.29670402 "></polygon></g><g transform="translate(356.131913 -1772.1936365) rotate(0)"><polygon class="376951108" points="-282.85156024,1794.96491446 -256.329893404,1794.96054781 -256.320304756,1827.28857891 -278.188011908,1827.28767341 -278.202271197,1808.82691683 -282.845917445,1808.82837393 -282.856056692,1802.36580894 -282.85156024,1794.96491446 "></polygon></g><g transform="translate(810.7663396 -236.23722499999997) rotate(0)"><polygon class="244081952" points="-542.095648738,1209.97279196 -542.087535166,1258.15185352 -555.096380877,1258.12982146 -555.09997083,1201.0 -546.3290855,1201.01542212 -546.320879112,1209.96729837 -542.095648738,1209.97279196 "></polygon></g><g transform="translate(497.4470798 -924.5843679) rotate(0)"><polygon class="217654024" points="-263.011222074,1243.43205142 -262.995174514,1201.02097193 -279.382982978,1201.0 -279.393910951,1241.91066826 -279.399009292,1243.41107627 -275.785108574,1243.41844514 -263.011222074,1243.43205142 "></polygon></g><g transform="translate(566.0166126 -2464.9031749) rotate(0)"><polygon class="238609833" points="-306.192013909,2485.32463467 -306.163407341,2526.31880759 -325.785536286,2516.23545274 -325.746531785,2485.26887627 -306.192013909,2485.32463467 "></polygon></g><g transform="translate(687.95839 -1275.5762558) rotate(0)"><polygon class="59204288" points="-422.701505154,2066.05139626 -441.350010111,2066.05460844 -441.351496825,2103.25018375 -422.709666326,2103.24722244 -422.701505154,2066.05139626 "></polygon></g><g transform="translate(637.211908 -2061.3886149) rotate(0)"><polygon class="424766991" points="-482.336764811,2066.05139626 -482.334224988,2115.35121588 -471.315905601,2111.78736752 -466.635925142,2107.09363496 -467.798891426,2073.025261 -469.724647326,2069.98048113 -474.883148936,2066.98584515 -482.336764811,2066.05139626 "></polygon></g><g transform="translate(395.8978058 -1036.5278612) rotate(0)"><polygon class="205748151" points="-257.342223658,1370.99498986 -283.764600006,1359.65400143 -283.768498274,1390.74920632 -263.4984518,1397.20691834 -257.342223658,1370.99498986 "></polygon></g><g transform="translate(687.1406666 -1215.457743) rotate(0)"><polygon class="37141493" points="-406.085099009,2066.05139626 -421.701505154,2066.06159524 -421.698513982,2108.26491833 -414.396956759,2108.26452505 -406.082109371,2108.25470499 -406.085099009,2066.05139626 "></polygon></g><g transform="translate(430.32303790000003 -2081.5345866999996) rotate(0)"><polygon class="232405819" points="-174.491648875,2485.26887627 -175.109160274,2522.96371931 -157.146985746,2523.5190886 -157.169768643,2493.46313249 -157.177194995,2485.41768567 -162.431077488,2485.49749933 -174.491648875,2485.26887627 "></polygon></g><g transform="translate(348.9076539 -1317.9870660999998) rotate(0)"><polygon class="250065409" points="-139.881305673,2485.26887627 -139.890402618,2516.53551824 -119.098990054,2516.57943705 -119.089289093,2485.32556065 -139.881305673,2485.26887627 "></polygon></g><g transform="translate(594.3412980999999 -822.0333115000001) rotate(0)"><polygon class="268629258" points="-314.914904276,1201.0 -310.517449086,1204.34247507 -305.485891908,1210.98121173 -302.114000171,1212.94508812 -302.125563475,1257.68892628 -309.961010216,1256.62377586 -309.51710661,1242.33486395 -316.185152854,1240.61739482 -314.914904276,1201.0 "></polygon></g><g transform="translate(493.5404779 -447.6077834) rotate(0)"><polygon class="25993124" points="-224.871587375,1479.36418846 -237.872310673,1479.27443714 -237.795207824,1526.43334042 -225.520089622,1526.20546096 -224.871587375,1479.36418846 "></polygon></g><g transform="translate(306.0701245 -722.3212286999999) rotate(0)"><polygon class="126214428" points="-211.247730999,1645.31442153 -211.253790067,1617.27782533 -231.719203807,1617.28008043 -231.713139131,1645.31667637 -211.247730999,1645.31442153 "></polygon></g><g transform="translate(656.1374801 -859.2011832999999) rotate(0)"><polygon class="384850022" points="-562.125947954,1359.6628935 -562.126039683,1391.79139281 -546.082661826,1391.78249887 -546.082556105,1359.65400143 -562.125947954,1359.6628935 "></polygon></g><g transform="translate(165.71284450000002 -805.2928114000001) rotate(0)"><polygon class="390545054" points="-101.340578211,1362.35964919 -101.498592158,1366.33920779 -101.83168789,1376.04074569 -103.508772361,1379.95559115 -104.845873258,1381.69440765 -107.55324992,1383.71765292 -110.129466968,1385.05886953 -112.820869638,1385.64869162 -118.659309905,1385.71747764 -121.152521582,1385.80859934 -121.229771261,1381.83583877 -123.608752058,1381.88046266 -123.950319492,1378.90191564 -124.66118196,1364.08922217 -124.659351775,1361.17381761 -113.442088527,1360.6497343 -112.079701718,1360.58808962 -110.733500918,1360.01962268 -110.083776692,1359.65400143 -101.340578211,1362.35964919 "></polygon></g><g transform="translate(207.7708901 -586.4723184999999) rotate(0)"><polygon class="89863898" points="-96.5168666245,1479.30666428 -96.4957797298,1499.64167448 -105.681071384,1499.66656072 -105.673789579,1512.17500278 -86.4769958712,1512.12132439 -86.4996362383,1479.27443714 -96.5168666245,1479.30666428 "></polygon></g><g transform="translate(480.7277085 -649.7691568) rotate(0)"><polygon class="180594279" points="-232.726392811,1647.58213246 -232.719203807,1617.30104145 -247.545197764,1617.27782533 -247.55238065,1647.55889366 -232.726392811,1647.58213246 "></polygon></g><g transform="translate(260.4365595 -1824.908273) rotate(0)"><polygon class="368432438" points="-156.082151187,2485.26887627 -156.146985746,2509.81486798 -146.334641025,2509.55763813 -146.610732548,2519.42658812 -140.891257856,2519.74622348 -140.890402618,2485.29389939 -156.082151187,2485.26887627 "></polygon></g><g transform="translate(479.59278420000004 -846.6202518000001) rotate(0)"><polygon class="79424149" points="-284.768498274,1359.66627714 -295.031666482,1359.65400143 -295.033672796,1361.93379219 -294.733392023,1399.31883391 -287.72081239,1399.26893352 -284.782717292,1399.26937693 -284.790885241,1395.27691012 -284.768498274,1359.66627714 "></polygon></g><g transform="translate(291.4454343 -1874.2564742) rotate(0)"><polygon class="137231892" points="-268.817027758,2507.05609309 -281.196170999,2507.03786256 -288.945428386,2507.02717991 -288.94921672,2503.76924692 -288.93986053,2493.63602075 -288.934802093,2485.30084967 -275.305593298,2485.26887627 -268.806390161,2485.32976142 -268.811029386,2492.62137997 -268.822099612,2502.65383885 -268.817027758,2507.05609309 "></polygon></g><g transform="translate(296.2699642 -499.9842324000001) rotate(0)"><polygon class="379346446" points="-193.057521754,1617.27782533 -193.075095422,1631.19815542 -193.121113696,1642.33775261 -210.247577976,1642.44006907 -210.247730999,1623.84402001 -210.244860376,1617.36046765 -201.885206037,1617.31677566 -193.057521754,1617.27782533 "></polygon></g><g transform="translate(277.1123182 -899.9714838) rotate(0)"><polygon class="128272994" points="-31.263685002,2099.34538075 -31.2960303394,2066.07381421 -42.2948445274,2066.05139626 -42.2711915147,2099.32953675 -31.263685002,2099.34538075 "></polygon></g><g transform="translate(99.5911908 -1465.1860673) rotate(0)"><polygon class="254619234" points="-66.4716100503,1794.96054781 -73.5385113103,1796.65367391 -72.8969996946,1842.65767299 -66.5483764302,1842.24666115 -66.4716100503,1794.96054781 "></polygon></g><g transform="translate(134.1018914 -1702.1054152000002) rotate(0)"><polygon class="327633454" points="-114.097461072,2087.72403957 -121.272077649,2087.40261602 -121.362541161,2086.2236073 -131.601902074,2085.6190795 -131.556164555,2066.05570695 -129.846216094,2066.05139626 -129.303748608,2066.57388723 -126.01506635,2066.56068051 -123.712561888,2066.55367822 -117.884308337,2066.5634729 -117.299353555,2067.2066485 -114.116515824,2067.16801716 -114.097461072,2087.72403957 "></polygon></g><g transform="translate(326.6919919 -1375.7123711) rotate(0)"><polygon class="53332475" points="-207.215161431,1479.27443714 -223.871587375,1482.60910434 -222.592512105,1487.99599741 -223.862032981,1497.11774875 -222.772554101,1502.4053673 -205.765581297,1499.17169026 -206.785923432,1494.91657048 -206.184909585,1491.56392613 -204.514411977,1491.51241027 -207.215161431,1479.27443714 "></polygon></g><g transform="translate(480.4094842 -1386.8211747) rotate(0)"><polygon class="223244326" points="-461.428746005,1623.63716635 -461.976771518,1620.86405783 -463.884427943,1618.78163205 -466.541126611,1617.40923312 -469.560871016,1617.27782533 -472.571341582,1617.66209929 -475.069393605,1618.80796046 -477.329566691,1620.88133602 -477.920665319,1623.6927032 -477.909499686,1638.99811513 -469.711848612,1638.97574056 -461.417593468,1638.94255819 -461.428746005,1623.63716635 "></polygon></g><g transform="translate(362.4158853 -1445.5336243) rotate(0)"><polygon class="387222696" points="-222.842643121,2485.26887627 -228.536305098,2485.34194271 -228.797570015,2529.08588416 -222.787688845,2529.10960566 -222.842643121,2485.26887627 "></polygon></g><g transform="translate(501.0612686 -894.3692353999998) rotate(0)"><polygon class="239391232" points="-320.052205575,2066.06964853 -320.041525933,2093.76052667 -329.947645218,2093.74225255 -329.95834187,2066.05139626 -320.052205575,2066.06964853 "></polygon></g><g transform="translate(374.1306756 -2476.7324009000004) rotate(0)"><polygon class="254871723" points="-371.616801149,2503.26109662 -355.845059803,2503.2493585 -355.858963938,2485.26887627 -371.630681717,2485.27393526 -371.616801149,2503.26109662 "></polygon></g><g transform="translate(729.55432 -1053.3970714) rotate(0)"><polygon class="282044672" points="-501.514923075,1617.27782533 -501.489368979,1661.344821 -496.990519875,1661.34716477 -496.60869964,1617.5153152 -501.514923075,1617.27782533 "></polygon></g><g transform="translate(336.7561913 -1610.746043) rotate(0)"><polygon class="381241362" points="-312.843664789,1617.27782533 -298.371410406,1617.54069184 -298.306245829,1627.54416797 -298.298981671,1633.94641342 -313.475854094,1633.10879329 -312.843664789,1617.27782533 "></polygon></g><g transform="translate(224.8859986 -672.2712912) rotate(0)"><polygon class="259590270" points="-90.9117577069,1359.65400143 -96.8237351792,1361.45222456 -100.340578211,1362.51573744 -100.329863105,1381.63832953 -84.365345188,1373.58959689 -87.9479884579,1365.95755563 -90.9117577069,1359.65400143 "></polygon></g><g transform="translate(588.8347507000001 -798.941915) rotate(0)"><polygon class="383807487" points="-511.826940293,1824.47850965 -511.813819169,1794.96054781 -518.478792091,1796.32848114 -516.551750512,1824.89510536 -511.826940293,1824.47850965 "></polygon></g><g transform="translate(150.9652552 -792.2471908000001) rotate(0)"><polygon class="282577392" points="-111.929063492,1479.2768633 -111.948338018,1508.18164652 -106.706088278,1508.19065636 -106.681071384,1479.27443714 -111.929063492,1479.2768633 "></polygon></g><g transform="translate(172.5280984 -1925.0045798) rotate(0)"><polygon class="396725300" points="-105.019380225,2086.96378258 -113.079148319,2086.98233151 -113.097461072,2066.06711468 -105.027129359,2066.05139626 -105.019380225,2086.96378258 "></polygon></g><g transform="translate(375.428794 -28.102348899999924) rotate(0)"><polygon class="247238071" points="-229.243382117,1226.35741819 -234.794179966,1226.35077983 -234.788838384,1201.0 -229.236829677,1201.01320686 -229.243382117,1226.35741819 "></polygon></g><g transform="translate(488.5669372 -444.5429315000001) rotate(0)"><polygon class="386407179" points="-332.095394021,1617.27782533 -337.375463742,1617.93415352 -336.931376312,1644.54352232 -332.121707996,1644.43406593 -332.095394021,1617.27782533 "></polygon></g><g transform="translate(292.7634946 -2189.8900951) rotate(0)"><polygon class="405352380" points="-113.960849056,2485.26887627 -113.730706875,2514.5380572 -118.089289093,2514.64425351 -118.049774952,2485.4240325 -113.960849056,2485.26887627 "></polygon></g><g transform="translate(265.0773872 -1357.3027328) rotate(0)"><polygon class="294263899" points="-185.21820327,1617.27782533 -185.208534491,1638.25890755 -192.047852976,1638.30565751 -192.057521754,1617.32457533 -185.21820327,1617.27782533 "></polygon></g><g transform="translate(518.6785088 -1354.4855976) rotate(0)"><polygon class="387212530" points="-406.038856403,1359.65400143 -416.79117382,1359.66421125 -416.788344307,1373.37849222 -406.036028292,1373.36827607 -406.038856403,1359.65400143 "></polygon></g><g transform="translate(179.5848461 -1939.5106825999999) rotate(0)"><polygon class="286807893" points="-132.645634137,2081.09662287 -139.220922378,2081.07616334 -139.223901485,2066.05139626 -132.601902074,2066.07473541 -132.645634137,2081.09662287 "></polygon></g><g transform="translate(586.2373704 -1118.6499727) rotate(0)"><polygon class="396117871" points="-474.102607239,1479.27443714 -469.09313315,1479.6446961 -469.531665391,1498.31393362 -472.147459505,1497.98963264 -473.226773528,1497.45160851 -473.921205648,1496.54851967 -474.08055797,1495.55864713 -474.053887381,1480.47737473 -474.102607239,1479.27443714 "></polygon></g><g transform="translate(369.492258 -1193.7938903000002) rotate(0)"><polygon class="206197711" points="-252.676931549,2066.06665645 -252.688811613,2081.60852414 -247.267917571,2081.59325749 -247.256033969,2066.05139626 -252.676931549,2066.06665645 "></polygon></g><g transform="translate(484.9920831 -719.4076587999999) rotate(0)"><polygon class="201855213" points="-405.02507066,1375.23650375 -400.03934524,1375.23650375 -400.050302884,1359.65400143 -405.036028292,1359.6606806 -405.02507066,1375.23650375 "></polygon></g><g transform="translate(485.4704282 -1027.4434893) rotate(0)"><polygon class="150591184" points="-482.962039166,1633.48773404 -478.920665319,1633.49135353 -478.929037012,1617.281444 -482.970414045,1617.27782533 -482.962039166,1633.48773404 "></polygon></g><g transform="translate(316.56066450000003 -1715.2214865) rotate(0)"><polygon class="376678315" points="-250.262007217,2485.26887627 -255.359369593,2485.28383714 -255.369000799,2498.55854968 -250.270835225,2498.57645358 -250.262007217,2485.26887627 "></polygon></g><g transform="translate(79.75412800000001 -858.3376247) rotate(0)"><polygon class="131293434" points="-52.1261333413,1491.05701978 -51.8936684474,1479.27443714 -46.218300538,1479.52063471 -46.2029104082,1491.14533977 -52.1261333413,1491.05701978 "></polygon></g><g transform="translate(415.3503658 -719.632727) rotate(0)"><polygon class="185168898" points="-362.945219691,1617.2782986 -362.943008927,1627.3430075 -356.0091682,1627.34253445 -356.011378959,1617.27782533 -362.945219691,1617.2782986 "></polygon></g><g transform="translate(422.354192 -2479.6415005999997) rotate(0)"><polygon class="396521199" points="-372.630681717,2485.26887627 -372.638298642,2494.14264003 -378.737235592,2496.58282903 -378.96272272,2488.07922822 -372.630681717,2485.26887627 "></polygon></g><g transform="translate(184.0489797 -1336.5157612000003) rotate(0)"><polygon class="233154344" points="-145.027013517,2066.0626507 -140.228910227,2066.05139626 -140.223901485,2076.48831943 -145.026007587,2076.48941214 -145.027013517,2066.0626507 "></polygon></g><g transform="translate(350.0206599 -1305.7190524) rotate(0)"><polygon class="249629287" points="-342.421446946,1794.96337142 -342.426283914,1802.67206067 -347.52066662,1802.66923759 -347.515831626,1794.96054781 -342.421446946,1794.96337142 "></polygon></g><g transform="translate(201.2296078 -868.7170251) rotate(0)"><polygon class="383434738" points="-188.631454584,1359.65400143 -183.188203359,1359.66170651 -183.186474368,1365.75416025 -188.629722955,1365.74645308 -188.631454584,1359.65400143 "></polygon></g></g><g transform="translate(0 1327.7)"><polygon class="bin" points="1.875,0.0 -0.77665042945,1.09834957055 -1.875,3.75 -1.875,1203.749999 -0.77665042945,1206.40164943 1.875,1207.499999 274.092295418,1207.499999 276.748477998,1206.39710952 277.842273471,1203.73716919 277.509230255,1106.39321102 277.509194343,1106.38520951 276.423767459,910.992491076 278.956634136,905.67135738 286.47855361,899.629477626 290.489855411,898.37290611 293.601256876,899.8479587 294.645053281,902.447490981 296.330352419,904.34286038 298.836582991,904.732047558 301.017311221,903.437025268 301.874999,901.050180066 301.874999,856.844509506 301.518854012,855.249439552 263.411673006,774.168201115 261.687148968,772.405320191 259.24067477,772.094681639 257.130298496,773.370630028 233.416383433,801.989378491 229.906323218,804.00452208 225.935030346,803.223395126 213.345073558,795.471443065 211.093330279,792.917761203 210.651449809,789.541908644 212.989417615,775.595254899 212.968942975,774.243552289 210.994631527,764.319826141 210.836037489,763.756610728 204.400867397,746.267313128 204.362965507,746.168620205 191.885945541,714.999703581 191.588292054,714.069341388 189.754733006,706.528324125 189.564938377,704.655173441 190.228118502,686.522834036 192.066742032,682.111432278 224.312275736,647.721793537 225.247370103,646.890980093 248.769797792,629.550020413 252.600217858,628.22089232 255.903280818,628.112772014 258.473561621,626.97446114 259.530593247,624.369700268 259.730201879,472.255620614 260.03703784,470.235224894 264.51699552,455.759040294 270.028083747,451.09013149 298.629865403,447.204064319 300.949512145,445.954908442 301.874999,443.488205076 301.874999,399.587563418 301.252830197,397.518947455 248.645335407,317.974282622 247.559072219,313.434806429 262.606839223,182.664426868 264.731323863,178.829397444 268.941980897,177.608228734 273.877934373,178.148608158 276.793814591,177.208991978 278.036019242,174.408605644 277.504422225,12.0108166124 277.504489033,11.9505619303 277.549405286,3.77059095446 276.458382284,1.10563959333 273.799461818,0.0 1.875,0.0 " transform="translate(1.875 0)"></polygon><g transform="translate(397.3245229 -324.7103436) rotate(0)"><polygon class="132075774" points="-376.349025991,1488.62512757 -381.707830761,1502.3997831 -375.88986712,1504.9524701 -383.392524967,1524.72026956 -394.824524045,1523.70135229 -394.788867059,1484.02435195 -389.832009876,1483.856969 -387.587050684,1479.27443714 -379.812114278,1482.882524 -381.142824942,1486.61879927 -376.349025991,1488.62512757 "></polygon></g><g transform="translate(190.6621409 -68.7901761999999) rotate(0)"><polygon class="106766938" points="-163.481789843,1268.84144598 -164.572109694,1253.88146456 -161.739068561,1206.3874145 -154.515662196,1201.0 -155.643071486,1252.81464045 -154.448920521,1266.98362237 -163.481789843,1268.84144598 "></polygon></g><g transform="translate(306.0771487 -84.88236730000017) rotate(0)"><polygon class="34619751" points="-280.399009292,1203.78668987 -283.416637946,1235.54738903 -301.067124653,1234.09409345 -300.959603793,1230.67294301 -301.106777451,1203.11128369 -301.114000171,1201.0 -294.870588084,1202.16178164 -280.399009292,1203.78668987 "></polygon></g><g transform="translate(219.8232693 -334.7130439) rotate(0)"><polygon class="330713637" points="-163.637498091,1519.35370784 -163.646063703,1479.27443714 -178.022571396,1480.71636859 -179.804637966,1518.77652001 -163.637498091,1519.35370784 "></polygon></g><g transform="translate(372.2001247 -520.5146417000001) rotate(0)"><polygon class="370330911" points="-314.49321181,1617.27782533 -331.095394021,1617.2853437 -331.045316901,1660.46117198 -319.96216017,1660.45844058 -319.995838555,1633.01816649 -314.475854094,1633.01998951 -314.49321181,1617.27782533 "></polygon></g><g transform="translate(319.9737987 -716.0911896) rotate(0)"><polygon class="276739259" points="-304.165906419,1810.35031271 -300.279312742,1810.36414919 -300.898764499,1795.64121622 -284.865212586,1794.96054781 -283.856056692,1822.76372855 -288.204652119,1822.89218862 -288.172677586,1825.04093946 -288.094274032,1828.85829087 -289.3230091,1828.87334351 -304.1664874,1828.87173149 -304.165906419,1810.35031271 "></polygon></g><g transform="translate(377.424202 -423.9954086) rotate(0)"><polygon class="310371809" points="-321.673098352,1515.75183735 -322.636348276,1515.75998012 -322.635702235,1514.75089217 -336.883021388,1514.73937612 -336.855534506,1479.27443714 -326.361508695,1479.28173481 -326.361577146,1483.57211811 -325.541758748,1483.59931429 -324.748895366,1483.77932167 -323.993917928,1484.11177766 -323.30895486,1484.5755679 -322.726356049,1485.15625355 -322.256388103,1485.83344551 -321.920248556,1486.58639204 -321.727982561,1487.38802855 -321.689413813,1488.20461492 -321.738292441,1489.01830036 -321.673098352,1515.75183735 "></polygon></g><g transform="translate(323.17161960000004 -439.3027858999999) rotate(0)"><polygon class="128278992" points="-319.477928331,1479.27443714 -320.673098352,1514.03881549 -311.382590715,1514.32865061 -305.268138821,1514.20170315 -305.689449354,1504.65384325 -305.310419433,1479.2933713 -319.477928331,1479.27443714 "></polygon></g><g transform="translate(328.0187652 -1467.3076882999999) rotate(0)"><polygon class="213272592" points="-305.163407341,2485.30282867 -305.155052285,2518.36705483 -289.94921672,2518.33306675 -289.957555665,2485.26887627 -305.163407341,2485.30282867 "></polygon></g><g transform="translate(584.1524889 -186.15027899999995) rotate(0)"><polygon class="96586338" points="-541.083116661,1236.43103921 -541.087535166,1201.00017722 -527.693758217,1201.0 -527.678123477,1236.42464705 -541.083116661,1236.43103921 "></polygon></g><g transform="translate(501.89610059999995 -621.8215918) rotate(0)"><polygon class="55166104" points="-484.043480452,1617.29656333 -495.60869964,1617.27782533 -495.603056137,1656.78049247 -484.038686603,1656.81208868 -483.970414045,1621.67545266 -484.043480452,1617.29656333 "></polygon></g><g transform="translate(184.22512840000002 -385.8399837999999) rotate(0)"><polygon class="191094666" points="-161.358181718,1359.67982156 -158.786379027,1359.67332311 -150.073443055,1359.65400143 -150.076692189,1398.80984939 -161.370386532,1398.82946832 -161.358181718,1359.67982156 "></polygon></g><g transform="translate(413.5154776 -819.6705879) rotate(0)"><polygon class="380968848" points="-369.563839994,1799.51994049 -369.389289658,1803.92982142 -373.483908718,1805.49790279 -374.376067215,1815.20393799 -367.824290995,1829.52589489 -357.853111409,1828.86502976 -357.842676752,1794.96054781 -364.212872876,1795.61986824 -366.738739618,1797.01840106 -369.563839994,1799.51994049 "></polygon></g><g transform="translate(396.2191241 -1525.898757) rotate(0)"><polygon class="380225120" points="-379.984206978,2485.59970834 -391.432655415,2485.32509378 -393.439283462,2485.26887627 -393.719291322,2508.91998373 -392.334430773,2510.64378537 -392.095210622,2511.44799608 -392.29741078,2513.94483999 -392.539828209,2516.38623765 -379.972354906,2516.23505906 -379.967428316,2497.99044075 -379.96272272,2489.57191321 -379.984206978,2485.59970834 "></polygon></g><g transform="translate(286.5798387 -419.7957575999999) rotate(0)"><polygon class="255217195" points="-255.360619856,1382.29548346 -256.342223658,1385.33087286 -251.544748645,1386.44320575 -252.308870925,1388.58822934 -238.877782788,1391.16361515 -238.901115574,1366.97886608 -238.903575202,1362.40724185 -249.733816601,1359.65400143 -250.120523573,1361.06981541 -255.360619856,1382.29548346 "></polygon></g><g transform="translate(107.1958458 -1130.2663654) rotate(0)"><polygon class="363338051" points="-43.3186404923,2066.0549752 -52.0881192444,2066.05139626 -54.516624595,2066.05202559 -54.4947378187,2100.56736195 -43.2948445274,2100.57671208 -43.3186404923,2066.0549752 "></polygon></g><g transform="translate(210.2507927 -218.7946707000001) rotate(0)"><polygon class="185310361" points="-149.041007203,1359.65400143 -144.072163286,1359.66575227 -144.104603379,1418.79472109 -149.073443055,1418.78295507 -149.041007203,1359.65400143 "></polygon></g><g transform="translate(323.85174520000004 -436.4373776) rotate(0)"><polygon class="264963159" points="-307.257805087,1359.65400143 -296.076893313,1361.09540957 -296.033672796,1391.63313067 -309.678605457,1391.04517833 -307.257805087,1359.65400143 "></polygon></g><g transform="translate(123.8392299 -1578.7297557999998) rotate(0)"><polygon class="335683923" points="-81.5299854123,2485.26887627 -76.3294003689,2485.38932338 -76.3016819991,2503.49176348 -80.1619018082,2503.73905149 -80.5121019765,2513.61005646 -91.0497708059,2513.70865561 -91.0338243307,2488.42790951 -86.5685806611,2488.58378951 -86.217242629,2485.56991802 -81.5299854123,2485.26887627 "></polygon></g></g></svg>