<svg><g transform="translate(0 0)"><polygon class="bin" points="1.875,0.0 -0.77665042945,1.09834957055 -1.875,3.75 -1.875,1203.749999 -0.77665042945,1206.40164943 1.875,1207.499999 233.136588465,1207.499999 235.546476134,1206.62314039 249.597585743,1194.83757496 249.758558827,1194.69448394 252.552945682,1192.06303817 253.387215782,1190.90384231 255.166448001,1187.04701247 282.203768175,1163.56177167 282.831676112,1163.35832051 284.788918876,1161.88157856 285.415330399,1159.51109873 284.443126557,1157.2602354 269.381307973,1140.78984484 267.886729926,1136.58866757 269.850920219,1132.58546754 300.585505351,1105.86286595 301.874999,1103.03295279 301.874999,1090.70291641 301.404679722,1088.88462205 299.441982619,1085.34448025 285.079560516,959.576195164 283.680412157,957.060707322 280.910464293,956.277965956 247.88452833,960.209744582 243.596965625,958.973101665 241.49138009,955.038767006 237.310176944,909.767448137 238.666434233,905.506438542 242.669017847,903.512708113 279.150777705,901.252247319 281.734092506,899.986723427 282.660790397,897.263435506 281.23421181,875.562738603 282.849803464,871.192423328 287.181575503,869.476164898 297.965637585,869.934862848 300.719695003,868.895657517 301.874999,866.188250519 301.874999,812.299815022 300.78921258,809.660787549 298.160617132,808.549984179 295.51139572,809.610655694 263.103122351,841.108369008 261.967729017,843.710785135 261.386817426,868.817485802 259.650594694,872.803713479 255.620504733,874.43553926 226.955895623,874.35209476 222.905167151,872.66512117 221.225680881,868.61128263 220.773263683,443.158132126 220.778839247,442.873902703 221.009719252,437.146718869 223.393504286,432.248134972 227.468236673,428.778932723 228.972542216,427.805238675 237.626782102,423.692795197 240.549652135,423.029608302 271.428906833,422.948407353 275.538973731,424.666159425 277.182645792,428.806408722 276.475078992,463.170742025 277.008366924,465.176766152 279.923857026,470.037737772 283.09500181,471.85864306 298.080226376,472.037569898 300.760772384,470.95527016 301.874999,468.287837186 301.874999,429.985793758 301.236748559,427.893064755 299.539257838,426.512701196 298.169103889,425.954768375 252.974131011,380.90151682 250.974945401,376.065970492 251.260484542,277.579647929 250.141373468,274.896509533 247.441092889,273.819418059 239.735964138,273.962053975 235.606927825,272.317915388 233.888742343,268.219138592 233.912631481,221.471050293 233.924920693,201.138398586 233.949620312,165.111296123 233.9597181,144.436385897 233.984566567,100.163729679 235.656054826,96.1147125635 239.695130317,94.4193418696 258.811151363,94.2957202385 265.560707941,94.2473343979 268.182587045,93.1519667563 269.283661541,90.5324791617 269.790406772,36.3157018773 271.247721933,32.5325713145 274.190496915,30.9764997295 278.13757957,31.9019092877 296.042874204,43.8553531903 298.615476527,44.4542840916 300.944732208,43.2086641996 301.874999,40.7364982189 301.874999,8.1937069472 300.748215274,5.51392404923 298.045006264,4.44456022266 247.586141163,5.52116324161 244.979888165,6.65371220259 243.916179538,9.28881102327 243.988395876,23.9262433662 242.305164115,28.0167955231 238.213656133,29.6977025834 222.036197777,29.6086952733 218.029608922,27.9530643655 216.316563973,23.9706850559 215.913144304,3.67547379978 214.789054139,1.07213020753 212.163884931,0.0 1.875,0.0 " transform="translate(1.875 0)"></polygon><g transform="translate(95.69982569999998 -1198.5210104000003) rotate(0)"><polygon class="235286849" points="-13.0877915624,1201.0 -93.2899143994,1294.18387201 -70.4656051524,1376.88656463 -2.11628978495,1357.08454636 -1.52510355227,1351.37429128 -12.8401256956,1309.16189781 -1.0,1305.92895494 -6.4891849135,1284.31091995 -2.07800685652,1283.22455673 -15.9812712537,1230.90473808 -1.06255345326,1211.15834818 -13.0877915624,1201.0 "></polygon></g><g transform="translate(171.78214350000002 -1229.3959309000002) rotate(0)"><polygon class="29431832" points="-165.674364331,1410.08305432 -101.708525907,1418.47708205 -79.9575127013,1467.50118851 -71.3846578402,1498.58083666 -75.9551105147,1519.57743912 -83.3179834248,1539.2723088 -109.465424626,1578.9197247 -169.298898917,1572.40167034 -166.9280054,1552.52340117 -166.561177192,1549.80079526 -160.37617292,1550.63743494 -136.409340541,1553.88191884 -136.026878468,1551.07320318 -128.230402586,1552.1308962 -126.568369555,1539.87309296 -134.005736983,1538.86829336 -133.771812713,1537.18196701 -144.138173127,1535.77773634 -140.080455227,1505.81691781 -136.911922398,1506.24938876 -135.281156614,1494.16380505 -139.266701908,1493.62688567 -137.419812336,1479.98110177 -132.389024423,1480.66158592 -130.741903129,1468.47655362 -135.402645552,1467.84955521 -133.316052039,1452.41073466 -128.862386201,1453.01314029 -127.089221889,1439.91854706 -134.885689706,1438.86085448 -134.931024611,1437.87512246 -160.733607344,1434.09643563 -161.030463162,1435.32450461 -169.309898511,1434.27410023 -165.674364331,1410.08305432 "></polygon></g><g transform="translate(533.4219817999999 -1228.1066176) rotate(0)"><polygon class="7736170" points="-452.372864668,1578.9197247 -467.408256815,1580.91934964 -465.808924496,1594.32009859 -476.535230185,1595.70105028 -475.443808606,1600.47280084 -486.087964957,1601.26023409 -518.102821215,1652.88108225 -477.340671217,1680.14801059 -457.550891171,1693.38561027 -439.950064053,1692.60122615 -432.802557929,1685.84215383 -432.813861107,1631.71923917 -435.16124832,1585.33408622 -450.686967767,1591.32126472 -452.372864668,1578.9197247 "></polygon></g><g transform="translate(130.424429 -1975.2041827) rotate(0)"><polygon class="113631695" points="-22.0582937473,2029.3242489 -0.0167139608413,2042.2393832 0.0,2221.80896979 -0.149714750983,2223.63129874 -1.25143736601,2224.77463636 -3.08194124177,2226.00128793 -4.81532112267,2226.37152039 -19.3881854402,2226.49283851 -26.5370309131,2224.7727391 -31.1672049802,2222.0894568 -31.1002271449,2213.40539659 -31.4927398922,2173.43296059 -30.3539067088,2171.90962872 -28.8676293142,2170.75945256 -24.5999637784,2169.15575769 -24.7542957209,2154.49088968 -26.3204848208,2153.72870028 -31.4952563899,2149.21547267 -30.6063156925,2045.81714175 -30.3133517219,2036.87427084 -30.2135082152,2033.94905014 -22.0582937473,2029.3242489 "></polygon></g><g transform="translate(194.560851 -1970.2864893999997) rotate(0)"><polygon class="34618889" points="-88.8541527527,2226.49283851 -82.1648008826,2226.5135196 -67.6337853635,2226.55089553 -67.7066145322,2310.7518504 -67.7455975585,2483.79537995 -88.9655468662,2483.73709875 -88.8541527527,2226.49283851 "></polygon></g><g transform="translate(579.9908438 -1229.5701894) rotate(0)"><polygon class="105513597" points="-548.487770986,1806.25408192 -548.380120781,1775.10885563 -528.303121516,1775.21564184 -528.087813645,1755.45134654 -528.066380126,1753.59788542 -511.924406943,1753.50394908 -512.918268014,1694.69579775 -548.052662296,1693.38561027 -577.393447257,1693.93984359 -577.49084668,1806.51822838 -573.44363857,1806.11268066 -557.5313689,1806.20198221 -548.487770986,1806.25408192 "></polygon></g><g transform="translate(537.9344682 -863.4673652) rotate(0)"><polygon class="25792933" points="-479.858369211,1410.08305432 -501.458570635,1429.28400805 -445.167504183,1488.70620534 -501.502330092,1539.23823424 -492.98610253,1548.66533669 -464.089616662,1522.60936491 -454.282480592,1529.89574634 -405.604417387,1488.76106871 -479.858369211,1410.08305432 "></polygon></g><g transform="translate(363.3934868 -1187.0987433) rotate(0)"><polygon class="43545436" points="-230.891843006,1864.2837098 -237.183074082,1864.66840642 -237.695719772,1859.41279624 -248.399436366,1858.52397686 -272.843848122,1864.66625214 -294.870419752,1870.47865729 -316.10809725,1876.56378173 -299.540436861,1936.93757504 -299.33693749,1940.74539478 -293.396425579,1938.17567671 -287.993180968,1934.80160867 -272.943607825,1934.92248422 -250.923984175,1945.92246822 -230.680757198,1945.02108862 -230.887424968,1941.41538121 -230.644192309,1921.8266124 -260.907139485,1921.85619557 -260.869367358,1874.32573536 -230.603689163,1874.29005591 -230.891843006,1864.2837098 "></polygon></g><g transform="translate(338.3971629 -1300.0537663999999) rotate(0)"><polygon class="258870664" points="-297.533648056,2118.69445253 -334.126016402,2118.70762196 -334.173105531,2029.34688417 -285.281293863,2029.3242489 -285.264369263,2058.50308571 -271.532676823,2058.49370418 -271.522537093,2076.86161925 -301.489644055,2076.87681807 -301.473442487,2107.98670792 -297.537635027,2107.98367926 -297.533648056,2118.69445253 "></polygon></g><g transform="translate(562.4576617 -673.3461859) rotate(0)"><polygon class="310474401" points="-429.758985849,1398.87628628 -427.145481608,1402.75975639 -422.42474711,1410.08305432 -417.866652869,1407.0703537 -421.506666503,1401.51049261 -419.62295067,1400.27962308 -420.462609204,1398.99754627 -419.313116476,1398.24791123 -431.440677325,1379.6444328 -411.569111774,1366.71925227 -408.757548963,1371.02849556 -418.703872342,1377.52674408 -409.229694982,1392.06952328 -403.540206932,1385.97393862 -405.173788638,1363.25795331 -410.36386995,1363.0286937 -408.747071486,1326.42169418 -403.54443289,1326.65357233 -405.795441235,1265.75101564 -407.640860827,1243.28771194 -408.861346908,1225.74211565 -415.755932491,1201.0 -432.958203556,1207.40196245 -428.292297344,1217.70130594 -422.321706169,1239.81591912 -430.031166697,1241.9017663 -427.495344553,1254.0443657 -421.230323089,1261.49840596 -419.601702461,1263.1376443 -421.721590055,1268.95474875 -424.701765557,1278.45301891 -426.075368741,1329.76312086 -422.873507662,1329.98426577 -421.838884712,1306.38198535 -416.047130279,1306.63805815 -417.015059552,1329.67775147 -416.533014391,1329.66208249 -418.048051955,1361.6314489 -436.17790855,1373.22034669 -438.515421176,1374.67661583 -443.513876816,1377.78940225 -438.313271298,1385.90606322 -429.758985849,1398.87628628 "></polygon></g><g transform="translate(428.49561259999996 -1690.8860427) rotate(0)"><polygon class="27811404" points="-258.479070654,1694.51074309 -258.431466675,1772.17109648 -264.186178585,1782.8423413 -324.895183957,1726.11030674 -319.665916325,1693.38561027 -258.479070654,1694.51074309 "></polygon></g><g transform="translate(345.5724093 -820.9025221999999) rotate(0)"><polygon class="173210319" points="-226.167013462,1692.56694299 -233.278455029,1685.58544755 -249.062631582,1670.40666451 -236.568434643,1657.56464803 -233.742035143,1632.02824646 -249.014691557,1623.91252464 -227.57885112,1584.48340872 -225.212140581,1585.74034526 -222.580167405,1587.01754849 -196.694478741,1578.9197247 -197.225264298,1580.85338647 -215.276330666,1646.42459709 -194.127300757,1652.45901345 -174.255003974,1658.12388858 -181.989828533,1672.89543392 -185.653235048,1679.88755206 -194.384763947,1675.25659845 -202.983151826,1670.7030569 -208.02247597,1668.03932615 -214.564953665,1680.78690352 -226.167013462,1692.56694299 "></polygon></g><g transform="translate(534.3503017 -761.8046679000001) rotate(0)"><polygon class="185569571" points="-402.540206932,1284.73425715 -354.293390998,1284.32520025 -355.234649863,1218.79581378 -365.085118707,1201.67900562 -391.206995905,1201.0 -402.501706231,1214.61638156 -402.540206932,1284.73425715 "></polygon></g><g transform="translate(270.6033135 -948.3717068) rotate(0)"><polygon class="302746812" points="-107.961154703,1283.59697921 -118.074347992,1283.97013126 -118.95898969,1271.02941547 -104.414326107,1270.77021616 -104.438877499,1269.31788212 -104.51347094,1265.49368669 -105.375762435,1265.51125617 -105.292880548,1269.76036208 -119.356902023,1270.01315269 -119.656548404,1255.19757863 -106.96091156,1254.96606344 -106.882487977,1259.18031681 -104.568400939,1259.13883498 -104.628975261,1255.75161669 -104.684113253,1253.24169095 -104.765393845,1249.25061115 -107.309936557,1249.2906129 -107.227376159,1253.48811417 -119.980945382,1253.72495597 -120.097935558,1247.85060041 -121.389938846,1247.8799707 -121.582795564,1238.20420591 -107.137096324,1237.94024104 -107.045303263,1242.25905459 -104.73407833,1242.21153789 -104.843405388,1236.888086 -104.928834008,1232.45534191 -106.762281992,1232.4904165 -106.673035014,1236.85480241 -121.776038357,1237.13512227 -121.865929563,1232.66752768 -126.349906804,1232.74856674 -126.008821851,1249.68869488 -137.781341789,1249.90333414 -138.350377178,1221.27817676 -105.346775111,1220.6756794 -105.421049098,1216.67387872 -138.421795583,1217.28241404 -138.732595596,1201.80668525 -133.300063911,1201.71147944 -102.228835878,1201.13927292 -94.2899143994,1201.0 -96.8400499638,1287.99490354 -94.2992845435,1332.74153846 -108.306918745,1333.18937138 -109.162675841,1307.57658598 -105.044476678,1306.41966228 -107.503873321,1300.80726476 -107.961154703,1283.59697921 "></polygon></g><g transform="translate(454.1835385 -1314.2267245) rotate(0)"><polygon class="39542013" points="-288.442052517,1469.19562151 -309.116683531,1469.36030353 -309.694777235,1410.08305432 -318.740335558,1410.37810994 -318.908773911,1562.59928733 -288.360233811,1561.6659167 -288.442052517,1469.19562151 "></polygon></g><g transform="translate(518.4069207 -1034.9399396) rotate(0)"><polygon class="230101626" points="-491.838112281,1861.75168042 -505.582712779,1858.90892972 -515.906911819,1858.52397686 -515.884473835,1887.84337386 -502.435729213,1887.96402192 -503.34456457,1940.40879133 -471.662532703,1941.25144513 -468.937641343,1882.50444327 -446.475407966,1882.16884898 -443.805999914,1874.31328695 -469.377565343,1865.37901433 -491.838112281,1861.75168042 "></polygon></g><g transform="translate(649.7455954 -348.78261409999993) rotate(0)"><polygon class="242358898" points="-589.496338788,1278.63757981 -546.210262382,1296.76395139 -529.560442778,1257.08103449 -568.737391877,1240.67551725 -567.086902586,1236.75857516 -551.534466219,1243.26915309 -540.601409704,1217.23516117 -579.378465685,1201.0 -589.449890077,1224.99140638 -570.334500724,1232.99506661 -589.496338788,1278.63757981 "></polygon></g><g transform="translate(432.547144 -673.4515756999999) rotate(0)"><polygon class="97062908" points="-246.101910642,1201.74624579 -256.677282767,1201.0 -269.360462845,1206.28943532 -268.626756815,1328.12898364 -246.317502697,1351.57890621 -246.101910642,1201.74624579 "></polygon></g><g transform="translate(552.3997547 -1165.7410783999999) rotate(0)"><polygon class="27465572" points="-389.667749275,2029.47325494 -412.185461255,2031.6318293 -412.19444839,2066.88405941 -427.143364104,2067.07487408 -427.938703022,2112.78678709 -390.007995503,2115.69548098 -382.649805423,2115.91165406 -382.717728215,2029.3242489 -389.667749275,2029.47325494 "></polygon></g><g transform="translate(391.4673507 -475.6520106999999) rotate(0)"><polygon class="10307333" points="-240.016158583,1302.10623501 -205.445930625,1302.18558849 -205.415826546,1201.06204763 -229.370817006,1201.0 -229.385080622,1242.79972404 -240.001390434,1242.76985174 -240.016158583,1302.10623501 "></polygon></g><g transform="translate(50.1807289 -1622.4516564) rotate(0)"><polygon class="295819546" points="-3.94589779875,2226.49283851 -29.066292294,2226.49287166 -29.0653328993,2234.69633204 -47.680207145,2234.69596353 -47.681113348,2238.0036321 -47.680727459,2245.87849828 -45.4098133055,2245.87453478 -45.4114912475,2317.62394466 -36.3545321556,2317.61908962 -34.2439178249,2317.6154059 -34.2374660196,2279.2162886 0.0,2279.21129509 -0.00182944871485,2228.41360534 -3.94255253649,2228.40953065 -3.94589779875,2226.49283851 "></polygon></g><g transform="translate(229.8727948 -1497.3776611) rotate(0)"><polygon class="156066254" points="-39.7956120363,1670.08728731 -24.6732731801,1656.54139674 -30.4799163476,1650.03113715 -50.0813995982,1628.03091679 -46.6353352817,1624.94299054 -37.3506549118,1616.62938722 -26.1617568105,1606.61376622 -29.7103946358,1602.64279361 -27.2774084058,1599.72290908 -27.3580372153,1593.26829705 -24.6384955848,1590.79934905 -34.5405014217,1579.82413652 -37.3968925396,1582.41429674 -40.555912666,1578.9197247 -46.1032623546,1583.94766362 -48.9342180202,1580.8102243 -75.7719231021,1605.15052565 -80.3149230795,1609.2692106 -76.7995029315,1613.16403072 -75.8301452555,1620.03573061 -72.7016437413,1623.54825457 -75.9911462419,1626.49859314 -74.9218752882,1627.69932705 -50.0964458128,1655.54557783 -51.569413689,1656.87418899 -39.7956120363,1670.08728731 "></polygon></g><g transform="translate(98.46497959999999 -1118.1487007) rotate(0)"><polygon class="23753498" points="-56.7539717713,2029.3242489 -48.6179004128,2038.04878681 -54.3792351558,2087.63063045 -64.3553661508,2091.27092295 -95.898323955,2090.97049008 -95.9649815946,2030.47248509 -56.7539717713,2029.3242489 "></polygon></g><g transform="translate(216.4398654 -1516.3662874000001) rotate(0)"><polygon class="23492581" points="-3.83053438556,1706.02053924 -4.4074696274,1728.87036679 -0.0016703913454,1731.80825333 0.0,1763.7244484 -4.68535485277,1761.21052573 -10.2884472263,1763.0764803 -32.1616816972,1762.56695724 -35.3146563279,1758.41151372 -34.0915418806,1738.56944165 -45.6408837879,1737.59496239 -44.4638037544,1697.43446781 -40.3640693711,1693.38561027 -28.1832715598,1693.75829439 -24.3559179604,1694.82918209 -21.9089898605,1699.55512081 -9.80855153776,1699.63416506 -3.83053438556,1706.02053924 "></polygon></g><g transform="translate(579.3251147999999 -570.246343) rotate(0)"><polygon class="391126575" points="-374.399346313,1472.22893099 -368.358579371,1472.23885888 -367.056336774,1472.25577515 -367.033143186,1479.50993762 -367.035180452,1484.54109348 -368.371434207,1484.55486053 -401.650107676,1484.49995104 -404.604417387,1483.12535321 -404.520531522,1410.97421009 -399.599225108,1411.07336755 -399.579264634,1410.08305432 -374.310922185,1410.57122912 -374.333717838,1411.55549478 -369.412388792,1411.65464164 -369.43583652,1440.52659106 -374.350081682,1440.52000947 -374.399346313,1472.22893099 "></polygon></g><g transform="translate(533.2607659 -902.6054371) rotate(0)"><polygon class="33002339" points="-314.032271531,1263.56130559 -314.028974467,1249.77015102 -314.029512694,1201.0 -353.28855164,1201.02319163 -353.284677285,1227.04754146 -353.293390998,1263.36400968 -314.032271531,1263.56130559 "></polygon></g><g transform="translate(632.5740765 -774.1050819999999) rotate(0)"><polygon class="25523434" points="-457.846923981,1758.52061107 -456.871765242,1729.48555811 -457.352665442,1713.87982791 -457.61983222,1707.39474078 -457.846923981,1696.54614368 -437.989753214,1696.54614368 -438.143374111,1694.28237082 -421.532279695,1693.38561027 -417.077273673,1729.69334254 -415.567781378,1746.85193109 -415.267218753,1751.52159369 -435.652043907,1752.64799874 -435.271331248,1757.09893649 -457.846923981,1758.52061107 "></polygon></g><g transform="translate(539.8341185 -1092.5982585) rotate(0)"><polygon class="281675503" points="-488.343959016,2107.94640678 -474.442531646,2120.07017724 -428.938703022,2071.04771313 -476.019697859,2029.3242489 -488.294224721,2041.24805299 -468.858981939,2057.87283193 -467.915526329,2084.19790491 -488.343959016,2107.94640678 "></polygon></g><g transform="translate(657.0945756 -1075.5905338) rotate(0)"><polygon class="410068980" points="-507.924851108,2029.3242489 -541.373775796,2032.10147669 -540.941467499,2096.9114641 -509.703877839,2097.62739698 -507.945550956,2097.54511243 -507.924851108,2029.3242489 "></polygon></g><g transform="translate(315.5289612 -222.95777529999998) rotate(0)"><polygon class="80032773" points="-313.028974467,1251.55799663 -313.018851075,1201.0 -270.360462845,1201.10797442 -270.361557819,1251.66017491 -313.028974467,1251.55799663 "></polygon></g><g transform="translate(498.5776314 -1198.5489312) rotate(0)"><polygon class="48213501" points="-316.958912392,1593.94503113 -342.241638472,1594.66465542 -352.642355695,1578.9197247 -357.319158619,1579.70520252 -361.285820818,1580.36864824 -360.831787797,1590.07367074 -366.709096085,1608.31653606 -366.727955566,1632.88536959 -316.896721208,1632.26914291 -316.958912392,1593.94503113 "></polygon></g><g transform="translate(274.81462680000004 -939.8841666) rotate(0)"><polygon class="409862030" points="-176.340165588,1489.23773797 -175.726633628,1418.08678296 -182.058773325,1411.97550013 -197.789391151,1410.08305432 -201.80717587,1415.93308748 -201.722003352,1485.43792347 -196.463640037,1491.60369731 -191.359577741,1493.76778589 -186.1000706,1493.44132402 -182.684103691,1491.65580967 -176.340165588,1489.23773797 "></polygon></g><g transform="translate(443.9513323 -1327.4301750999998) rotate(0)"><polygon class="132475247" points="-233.043222085,1778.45383273 -236.731999888,1780.74426984 -241.480046818,1783.69254685 -245.744098435,1756.27806766 -252.400669556,1755.94927306 -252.485682662,1751.53648492 -252.486320145,1746.98697999 -252.494107851,1738.31221118 -256.719435857,1738.46673843 -257.431466675,1720.24420066 -251.498004795,1720.40021592 -251.270267076,1693.41548236 -224.805001968,1693.38561027 -224.800085237,1724.27008626 -227.422628636,1724.26706672 -227.408100663,1751.87521296 -233.052207121,1751.86478741 -233.043222085,1778.45383273 "></polygon></g><g transform="translate(395.4451462 -442.3182442000001) rotate(0)"><polygon class="106374640" points="-202.80717587,1431.96612748 -233.663422778,1431.55407491 -233.380967542,1410.5440773 -240.028877,1410.08305432 -241.293249639,1450.88808048 -237.913583772,1451.30096071 -238.896253312,1477.27028444 -202.848063982,1485.32685368 -202.80717587,1431.96612748 "></polygon></g><g transform="translate(534.7630688 -1407.5830079) rotate(0)"><polygon class="374498793" points="-325.702961094,1410.08305432 -359.732065296,1410.09443573 -359.710804958,1469.45195353 -325.679961148,1469.42983145 -325.702961094,1410.08305432 "></polygon></g><g transform="translate(351.7523056 -705.4501789999999) rotate(0)"><polygon class="146252883" points="-154.08483518,1754.30263266 -139.777086848,1754.31625624 -121.039531347,1754.32208478 -121.069870159,1693.40497528 -139.800918402,1693.40065321 -154.115193463,1693.38561027 -154.108476824,1707.80738688 -154.097733327,1723.49711587 -154.09508955,1735.51826981 -154.091209639,1739.63437902 -154.08483518,1754.30263266 "></polygon></g><g transform="translate(469.67580799999996 -842.1411810000001) rotate(0)"><polygon class="41735446" points="-358.555698349,1858.52397686 -358.55615926,1927.31868052 -387.271340849,1927.32170989 -387.270915628,1895.11480363 -387.271034735,1858.52691686 -358.555698349,1858.52397686 "></polygon></g><g transform="translate(627.0240767 -666.8011987) rotate(0)"><polygon class="98847439" points="-468.321942811,1764.87868912 -469.025733849,1741.10113019 -492.575971404,1740.75721383 -492.570998659,1740.35457658 -494.721166727,1740.32700597 -494.667675884,1735.51147343 -492.540356678,1735.53956562 -492.447091157,1728.16422365 -496.554257645,1728.10147735 -496.429278497,1718.24637644 -492.255658201,1718.30121516 -491.97939481,1697.03462275 -491.909470143,1693.48698284 -510.832611,1693.38561027 -510.924406943,1768.28903906 -491.975607884,1766.65836101 -491.766450686,1759.80748827 -476.651461643,1759.81053953 -476.641498982,1765.65329574 -468.321942811,1764.87868912 "></polygon></g><g transform="translate(516.9558564 -167.3147939999999) rotate(0)"><polygon class="42069260" points="-478.714949712,1201.0 -514.45591976,1201.69944366 -514.212932478,1232.02922505 -514.0258333,1256.80116501 -496.024827469,1256.61365449 -478.789590596,1257.11296268 -478.714949712,1201.0 "></polygon></g><g transform="translate(509.4248629 -1812.0484548) rotate(0)"><polygon class="44418720" points="-489.395145125,2116.6380632 -489.417330282,2064.22945334 -490.501231572,2030.73453395 -506.778362012,2029.3242489 -506.924851108,2127.09729893 -489.343959016,2129.17462856 -489.395145125,2116.6380632 "></polygon></g><g transform="translate(335.70787129999997 -1556.9686869) rotate(0)"><polygon class="35608070" points="-129.052839646,2125.21585772 -133.07955144,2127.55488202 -138.476496598,2134.55648406 -144.353590477,2148.16491978 -143.819970896,2135.83633604 -143.241200883,2093.57569022 -146.335093674,2068.17288996 -145.363101357,2029.3242489 -128.676279051,2029.65566237 -129.884671756,2064.35562187 -130.353272252,2080.48576992 -128.931228962,2093.62438867 -128.71607133,2096.74342528 -129.052839646,2125.21585772 "></polygon></g><g transform="translate(662.2001682 -479.7109516999999) rotate(0)"><polygon class="35235718" points="-461.896402553,1310.31248857 -460.716622252,1298.06510252 -452.748312643,1297.90807336 -450.201228763,1270.86239501 -450.212921875,1267.64975224 -450.316425849,1241.80839563 -453.684245151,1218.41734123 -457.829882145,1205.24843996 -459.563638378,1201.0 -471.547632729,1203.41619808 -468.050574391,1214.99579832 -466.774983288,1228.71554528 -467.162229243,1247.44945791 -467.283454697,1272.88476344 -468.650721752,1287.68304084 -471.568895061,1309.30378688 -461.896402553,1310.31248857 "></polygon></g><g transform="translate(219.3218675 -996.8905434000001) rotate(0)"><polygon class="419410232" points="-147.335093674,2029.3242489 -176.08382002,2030.68694005 -173.139292428,2095.52950798 -147.947783711,2094.81712952 -147.351532627,2088.93661442 -147.335093674,2029.3242489 "></polygon></g><g transform="translate(367.5463688 -654.9958532) rotate(0)"><polygon class="175860970" points="-214.118486358,1693.38561027 -169.311693231,1736.13123672 -212.545517758,1784.74421708 -223.756640411,1775.07976683 -216.259774699,1767.56628012 -187.469384745,1738.63850077 -210.81931612,1715.51872092 -223.800085237,1703.02396966 -214.118486358,1693.38561027 "></polygon></g><g transform="translate(273.56681749999996 -356.21207790000017) rotate(0)"><polygon class="174786239" points="-70.3846578402,1410.09608701 -66.7039164651,1410.09421993 -40.4874183476,1410.08305432 -40.4628263684,1468.57657449 -51.2277137646,1468.63888761 -68.1707272042,1468.58788306 -70.3599351123,1468.58967265 -70.3839515129,1415.75856278 -70.3846578402,1410.09608701 "></polygon></g><g transform="translate(763.0069186 -1390.4792721) rotate(0)"><polygon class="424766954" points="-550.125183006,2106.73829848 -571.587789126,2106.89678599 -571.720781874,2029.3242489 -549.668643725,2029.53845773 -550.125183006,2106.73829848 "></polygon></g><g transform="translate(161.9046594 -769.0013690000001) rotate(0)"><polygon class="37938588" points="-58.4201602713,1920.78658427 -58.3934166989,1864.57657343 -82.4218349448,1858.52397686 -84.662625868,1865.04801705 -90.5862057478,1882.25780302 -78.0312448394,1923.62943136 -58.4201602713,1920.78658427 "></polygon></g><g transform="translate(140.5150686 -484.3677233000001) rotate(0)"><polygon class="317350572" points="-107.941111404,1586.84560606 -106.801596161,1586.62799647 -106.894840541,1589.97470317 -106.846345114,1590.70472752 -106.767443594,1591.42240524 -106.447646626,1593.72191834 -106.33491133,1595.86041091 -106.355265943,1595.8975113 -105.598569757,1600.26155813 -105.568918733,1600.50903528 -105.84491842,1600.55622784 -104.520642165,1604.68980431 -104.307967494,1604.66111656 -104.335532924,1606.30870974 -104.298007723,1606.45927498 -103.988509668,1607.94837443 -103.933142734,1608.05565084 -103.45293373,1609.15103529 -103.708746533,1609.21886605 -103.400434276,1613.72893866 -102.156401777,1617.60674631 -102.156569549,1617.66448492 -101.607338769,1618.52278702 -101.46619886,1618.72499323 -100.5953175,1619.50314825 -100.91772306,1619.84311908 -100.91026835,1619.89055371 -101.210477517,1620.43056703 -102.069717195,1620.00091653 -102.56785545,1619.84995778 -102.755065765,1619.82505266 -103.306645217,1619.77509105 -103.428185477,1619.79560819 -103.866014865,1619.793172 -103.959745827,1619.82402338 -107.985817344,1620.52169612 -107.398400504,1623.91641143 -107.536862993,1624.53492245 -107.580252674,1624.66067333 -107.655641883,1625.34728748 -107.657235406,1625.89580415 -107.627835843,1626.22988914 -107.312724419,1627.52928016 -107.312892156,1627.58701876 -106.529545834,1628.87649957 -105.939364271,1632.19079534 -105.890029504,1632.63212644 -128.127212756,1636.54345466 -128.191876695,1636.15160095 -128.493170859,1636.1946469 -129.294350545,1631.45938717 -128.104250739,1631.25007256 -127.977683477,1630.3696657 -127.999712486,1630.11188476 -128.078615311,1629.39420757 -128.238768095,1628.76719305 -128.311725025,1628.61659752 -128.64911963,1628.01830057 -129.565818328,1628.20310424 -130.325200988,1623.89060995 -132.110853774,1624.3777976 -132.169068796,1624.37980984 -133.433885471,1625.04478365 -133.591024248,1625.12300872 -134.412652518,1625.6873193 -135.161072244,1626.31561752 -136.610500512,1626.93300455 -138.0250806,1626.00797334 -137.26399896,1617.53134769 -132.305165536,1616.33957865 -137.308830906,1589.39193771 -136.903670301,1589.31392478 -137.187286366,1587.62688666 -137.237879046,1587.61859498 -137.980173257,1583.52263491 -110.168336854,1579.03453648 -109.388501066,1578.9197247 -107.941111404,1586.84560606 "></polygon></g><g transform="translate(209.6883976 -299.7055796000002) rotate(0)"><polygon class="165838920" points="0.0,1419.07343538 -30.883828982,1410.08305432 -30.8852879176,1422.48089145 -30.8882418958,1463.19174105 -2.3409936659,1469.07623706 -0.0571741037071,1439.77191481 0.0,1419.07343538 "></polygon></g><g transform="translate(682.1698705 -474.00668670000005) rotate(0)"><polygon class="164199806" points="-548.159893091,1578.9197247 -561.902574738,1583.0172313 -569.616982582,1584.66074097 -569.436815477,1592.64613924 -569.56688259,1629.28647687 -569.579459102,1631.94637914 -567.52000095,1650.53923662 -558.712769941,1650.94805942 -550.115582927,1629.11867651 -543.644209054,1629.46588507 -542.599459473,1595.76114652 -546.542997431,1585.4994929 -548.159893091,1578.9197247 "></polygon></g><g transform="translate(67.1271129 -462.7698372) rotate(0)"><polygon class="157059893" points="-22.6384955848,1578.93592695 -0.0488968994468,1578.9197247 0.0,1638.55250287 -8.29302524496,1646.81622931 -11.9255729556,1646.80109734 -15.5688422509,1646.78372551 -22.5961647497,1638.54686331 -22.6384955848,1578.93592695 "></polygon></g><g transform="translate(801.159855 -1626.8613771999999) rotate(0)"><polygon class="176300943" points="-578.563771047,1693.38561027 -578.49084668,1796.29395226 -590.953516624,1796.30302622 -591.026428673,1693.39468479 -578.563771047,1693.38561027 "></polygon></g><g transform="translate(630.5236749 -731.6762975) rotate(0)"><polygon class="382974378" points="-385.856707845,1855.63698608 -392.419443871,1858.52397686 -392.422233871,1695.74907368 -386.539842298,1693.38561027 -385.856707845,1855.63698608 "></polygon></g><g transform="translate(176.05698999999998 -923.4241377999999) rotate(0)"><polygon class="31614663" points="-116.824678017,1719.47736651 -120.039531347,1722.33967415 -118.632039251,1724.49803203 -111.661576754,1735.14344533 -111.55273715,1740.74993654 -110.482697926,1740.76809321 -98.3673266183,1741.02749812 -98.3201730744,1748.52626962 -98.3051875247,1750.39621624 -102.799518162,1750.63575892 -102.543260144,1755.32601527 -98.0426390105,1755.27150039 -97.9650926786,1759.65534961 -86.8519312161,1758.46396421 -86.8722134564,1694.08515907 -98.406020714,1693.38561027 -104.088120541,1698.76663422 -105.122398315,1715.67371855 -96.8528792509,1716.06193018 -97.0613202895,1717.61181202 -106.796783882,1716.87841172 -110.973305804,1714.11379721 -113.792001609,1716.82257135 -116.824678017,1719.47736651 "></polygon></g><g transform="translate(556.0392463000001 -1552.6432573) rotate(0)"><polygon class="308205054" points="-317.114487112,1965.82975395 -325.392673855,1967.4538279 -331.91878005,1918.46373697 -330.588606517,1858.92319185 -317.10809725,1858.52397686 -319.394813016,1890.53698437 -323.565324484,1908.28582499 -317.114487112,1965.82975395 "></polygon></g><g transform="translate(653.2813506 -1340.0270474) rotate(0)"><polygon class="230115782" points="-548.905877242,1928.47056005 -548.862825688,1858.56030648 -530.842017159,1858.52397686 -530.885168032,1928.43414826 -548.905877242,1928.47056005 "></polygon></g><g transform="translate(394.08769759999996 -725.9972484) rotate(0)"><polygon class="101181274" points="-141.982901946,1906.2885149 -141.975698509,1858.52397686 -155.641346529,1859.88649495 -156.961603761,1866.28592163 -177.878208579,1865.69432987 -180.637842041,1881.26338777 -164.301882328,1880.92271092 -166.749325109,1907.80739518 -141.982901946,1906.2885149 "></polygon></g><g transform="translate(330.77167710000003 -66.47506610000005) rotate(0)"><polygon class="231808081" points="-158.674578779,1201.0 -158.683100533,1232.82240507 -158.677500389,1234.9693269 -152.219899522,1234.96203686 -152.227377943,1261.92556007 -175.595040289,1261.97927161 -175.584938592,1201.0335222 -158.674578779,1201.0 "></polygon></g><g transform="translate(371.83225960000004 -1850.5535091000002) rotate(0)"><polygon class="54499710" points="-140.975698509,1918.07582327 -140.964168228,1934.46736649 -137.733962399,1934.45877901 -113.709351371,1934.39488416 -113.734801535,1858.52397686 -117.708448526,1858.53272259 -123.473446566,1858.54550085 -123.45322073,1918.03612888 -140.975698509,1918.07582327 "></polygon></g><g transform="translate(372.9677123 -2021.4080706) rotate(0)"><polygon class="42857216" points="-352.820323687,2088.94595419 -361.531984605,2088.93897667 -370.467702616,2088.94379509 -370.450888432,2029.32723208 -354.794878046,2029.3242489 -354.717071328,2036.80335131 -354.875822476,2068.62478788 -352.820386815,2068.63086899 -352.820323687,2088.94595419 "></polygon></g><g transform="translate(290.4314603 -840.4048093) rotate(0)"><polygon class="206197712" points="-34.9985731277,1858.52397686 -41.3865983509,1861.3626461 -23.4290691643,1904.43831668 -23.7492270251,1906.60458783 -41.3065606031,1966.59181259 -34.924549335,1968.35627577 -16.7534137358,1906.72704404 -17.6180085902,1903.38390379 -34.9985731277,1858.52397686 "></polygon></g><g transform="translate(610.9277175 -897.6342905) rotate(0)"><polygon class="448827208" points="-348.35733216,1858.53922424 -332.930291529,1858.52397686 -332.91878005,1920.47775486 -348.357808857,1920.49749557 -348.35733216,1858.53922424 "></polygon></g><g transform="translate(420.3113335 -1225.7496421) rotate(0)"><polygon class="312083283" points="-417.653747747,1581.494714 -412.493201983,1581.3842099 -412.467941297,1578.9197247 -400.727052348,1579.05770298 -400.850136616,1600.35685239 -405.7822624,1600.47986282 -405.641996439,1602.87970479 -393.707150612,1602.84243167 -393.713403176,1621.96403182 -399.023345127,1622.28233896 -399.010749523,1628.90777815 -399.174686761,1632.12980096 -410.34563478,1632.04034574 -410.262742734,1610.44745473 -417.811360763,1610.33569334 -417.653747747,1581.494714 "></polygon></g><g transform="translate(563.5123816 -1395.2431437999999) rotate(0)"><polygon class="275600315" points="-351.429248328,1858.59296409 -349.612091536,1858.52397686 -349.357808857,2029.3242489 -351.633473341,2029.25867269 -351.429248328,1858.59296409 "></polygon></g><g transform="translate(445.2908671 -703.1254839000001) rotate(0)"><polygon class="330713649" points="-439.725020426,1858.52397686 -413.510690724,1865.08797704 -413.501294895,1896.81501796 -442.805999914,1886.39858243 -439.725020426,1858.52397686 "></polygon></g><g transform="translate(737.0801226 -1154.5229482) rotate(0)"><polygon class="43758619" points="-533.988908069,1410.08305432 -533.994042396,1447.61572819 -555.58366901,1447.94008715 -555.876157431,1410.89870334 -533.988908069,1410.08305432 "></polygon></g><g transform="translate(442.4011219 -533.8167527999999) rotate(0)"><polygon class="125509234" points="-347.654993187,1693.44791644 -370.267227904,1693.38561027 -370.281707625,1728.03943334 -359.00511947,1728.06755777 -347.673517936,1728.09642396 -347.654993187,1693.44791644 "></polygon></g><g transform="translate(275.38138449999997 -2026.8248907) rotate(0)"><polygon class="126929792" points="-223.505643441,2048.5090402 -223.736452742,2029.3242489 -226.984461226,2029.39959181 -252.209425329,2032.91208225 -252.192725661,2068.61597778 -243.978997561,2068.79889378 -244.107586068,2049.03619792 -223.505643441,2048.5090402 "></polygon></g><g transform="translate(424.83047999999997 -1268.7527820999999) rotate(0)"><polygon class="357667677" points="-292.926864534,1578.9197247 -286.716282465,1579.30204495 -283.593076517,1581.77480837 -284.475016144,1645.02598726 -292.843802308,1644.98715129 -292.926864534,1578.9197247 "></polygon></g><g transform="translate(405.0864379 -1029.0531388) rotate(0)"><polygon class="37937153" points="-374.161315478,1753.34225919 -384.856707845,1752.46885356 -383.463155355,1696.85176338 -378.760592613,1696.97072926 -375.005891488,1693.38561027 -374.171660958,1744.07164587 -374.161315478,1753.34225919 "></polygon></g><g transform="translate(479.8052493 -894.5615185999999) rotate(0)"><polygon class="60827403" points="-299.328913438,1614.93197539 -299.30678829,1578.93593744 -315.885428912,1578.9197247 -315.896721208,1614.91416299 -299.328913438,1614.93197539 "></polygon></g><g transform="translate(487.3627291 -1148.8883597) rotate(0)"><polygon class="335689351" points="-256.614054581,2040.02621021 -258.948248103,2067.75622167 -256.1186755,2067.41824173 -253.222318749,2081.66368561 -267.865750779,2083.98630681 -270.522537093,2069.20538509 -268.227629212,2068.62604181 -270.113851357,2056.66361815 -263.577152647,2055.94672235 -262.109230835,2041.52880819 -260.608734927,2036.52585769 -263.761076556,2032.12070097 -260.679348324,2029.3242489 -257.083072623,2031.79460269 -255.134180475,2034.7620746 -253.209425329,2037.70362318 -256.614054581,2040.02621021 "></polygon></g><g transform="translate(307.5904256 -1360.5036339) rotate(0)"><polygon class="126095396" points="-81.3149230795,1580.68943798 -86.1324136555,1578.9197247 -86.179947049,1654.73819238 -81.3534646131,1656.99479566 -81.3149230795,1580.68943798 "></polygon></g><g transform="translate(342.3712934 -863.4602418) rotate(0)"><polygon class="42609534" points="-209.368258299,2029.33221428 -203.815444873,2029.3242489 -192.209049432,2029.32533554 -192.194624754,2058.74109272 -195.29871834,2058.7432236 -203.774344953,2058.74149349 -209.353221338,2058.73701997 -209.368258299,2029.33221428 "></polygon></g><g transform="translate(660.2236992 -991.9911144) rotate(0)"><polygon class="391126584" points="-381.649805423,2029.35205252 -381.611812963,2073.24421493 -371.467702616,2073.21928562 -371.499665901,2029.3242489 -381.649805423,2029.35205252 "></polygon></g><g transform="translate(280.7158997 -2194.4014109) rotate(0)"><polygon class="317350500" points="-49.9320448129,2253.78543145 -66.6337853635,2253.67923157 -66.6308533006,2226.51475999 -59.092541748,2226.49283851 -49.8655483129,2226.5040916 -49.8708775415,2229.03756098 -49.6869643992,2229.05804748 -49.681113348,2231.69167769 -54.4438231593,2231.69545024 -54.4463316037,2236.24726762 -49.8631647751,2236.24256372 -49.9320448129,2253.78543145 "></polygon></g><g transform="translate(248.0572911 -1525.7317414) rotate(0)"><polygon class="335689359" points="-158.537922977,1736.98689926 -155.115193463,1717.83301847 -160.902517095,1716.96247736 -157.284873768,1694.17222299 -162.312839475,1693.42087797 -165.704725439,1694.01979252 -168.277421813,1693.38561027 -168.311693231,1721.09731398 -163.303807995,1735.62441494 -158.537922977,1736.98689926 "></polygon></g><g transform="translate(395.2071525 -1141.1419624999999) rotate(0)"><polygon class="51112220" points="-375.012463677,1578.9197247 -392.689741213,1578.93984827 -392.707150612,1600.20148954 -375.029891119,1600.1813363 -375.020724641,1587.01855528 -375.012463677,1578.9197247 "></polygon></g><g transform="translate(112.57327369999999 -1249.9471436000001) rotate(0)"><polygon class="272262806" points="-42.4031681201,1882.52842888 -42.3865983509,1858.56142093 -57.3846200354,1858.52397686 -57.3934166989,1882.48323879 -54.3694362659,1882.4966103 -42.4031681201,1882.52842888 "></polygon></g><g transform="translate(99.2164611 -1533.8936899) rotate(0)"><polygon class="213274003" points="0.0,1858.55280571 -14.73824126,1858.52397686 -14.7534137358,1881.39457878 -0.0151801662985,1881.42342876 0.0,1858.55280571 "></polygon></g><g transform="translate(97.1032929 -1060.2677047000002) rotate(0)"><polygon class="220986134" points="-40.7599477875,2029.3242489 -38.8650110086,2029.32845675 -38.8708467861,2033.36096859 -33.4952563899,2033.35648608 -33.5260936569,2053.4253839 -46.9351366281,2053.43046847 -46.9254586784,2050.37450351 -46.9125012262,2040.19962817 -46.9065045576,2036.13170215 -47.6179004128,2036.13486287 -47.6098676796,2029.33219903 -43.6282012452,2029.33421991 -40.7599477875,2029.3242489 "></polygon></g><g transform="translate(266.4622773 -701.4120145) rotate(0)"><polygon class="78059337" points="-139.0250806,1578.9197247 -156.055524691,1579.23894948 -155.84596219,1597.57630835 -139.040197689,1597.71836464 -139.0250806,1578.9197247 "></polygon></g><g transform="translate(449.4190309 -403.23661600000014) rotate(0)"><polygon class="168149433" points="-265.866319279,1578.94373845 -265.874725184,1598.68884987 -250.070654577,1598.65879178 -250.062631582,1585.57540107 -250.06509083,1578.9197247 -265.866319279,1578.94373845 "></polygon></g><g transform="translate(724.2521611 -235.81871179999985) rotate(0)"><polygon class="179245508" points="-502.502330092,1410.51307268 -502.511052791,1429.61048521 -517.802021377,1429.71562602 -517.825213267,1426.19397111 -517.378884361,1426.18750027 -517.382208612,1423.49322917 -517.844188518,1423.49238627 -517.897675515,1416.94129022 -519.903432012,1414.73242586 -520.015315345,1412.92707033 -519.628808007,1410.08305432 -502.502330092,1410.51307268 "></polygon></g><g transform="translate(153.7198937 -337.51642589999994) rotate(0)"><polygon class="272528129" points="-151.187608248,1201.0 -145.836923491,1201.0004386 -145.869211158,1244.68252007 -151.219899522,1244.6820812 -151.187608248,1201.0 "></polygon></g><g transform="translate(530.8060471 -1081.591842) rotate(0)"><polygon class="220945785" points="-339.503483182,1715.43816436 -325.895183957,1715.11513829 -325.907962805,1693.46896527 -339.480964605,1693.38561027 -339.474582345,1713.06368752 -339.503483182,1715.43816436 "></polygon></g><g transform="translate(355.2950976 -1638.0298910000001) rotate(0)"><polygon class="327481153" points="-96.9649815946,2049.3471421 -96.9668645847,2029.35710392 -104.672216961,2029.33636879 -111.569809064,2029.3242489 -111.567902695,2049.31427155 -104.666625442,2049.331962 -96.9649815946,2049.3471421 "></polygon></g><g transform="translate(571.5382683 -825.9041616999999) rotate(0)"><polygon class="119539529" points="-569.025655038,1425.50798425 -569.038299497,1410.11585326 -556.893315407,1410.08305432 -556.884118158,1418.67008787 -556.876157431,1433.11578622 -569.021119925,1433.14860453 -569.025655038,1425.50798425 "></polygon></g><g transform="translate(685.8023440000001 -949.893424) rotate(0)"><polygon class="380630667" points="-477.714949712,1201.0 -477.679877503,1241.84822116 -472.568895061,1241.84371221 -472.6042157,1201.00643842 -477.714949712,1201.0 "></polygon></g><g transform="translate(581.2404815 -314.830103) rotate(0)"><polygon class="220041377" points="-518.832674557,1227.1305654 -524.329302469,1227.14968425 -528.557966752,1227.15736113 -528.552889869,1223.30318162 -528.560442778,1201.02678272 -518.83513032,1201.0 -518.838419332,1204.64896226 -518.832674557,1227.1305654 "></polygon></g><g transform="translate(786.9529815000001 -718.9403616) rotate(0)"><polygon class="291492912" points="-529.831877067,1884.26521603 -529.842017159,1858.52397686 -516.906911819,1869.73875911 -518.55011897,1885.00697758 -529.831877067,1884.26521603 "></polygon></g><g transform="translate(566.1566453 -1224.3405315) rotate(0)"><polygon class="137261856" points="-526.620086214,1596.33517411 -526.740435716,1579.09665787 -541.579627574,1578.9197247 -541.599459473,1596.43975156 -526.620086214,1596.33517411 "></polygon></g><g transform="translate(147.3368489 -1063.0193929) rotate(0)"><polygon class="382966752" points="-139.77453604,1238.68018634 -139.732595596,1201.0 -144.836923491,1201.27676998 -144.535470055,1238.87203179 -139.77453604,1238.68018634 "></polygon></g><g transform="translate(225.0056458 -1323.5997488000003) rotate(0)"><polygon class="396600016" points="-222.503853052,2029.55904005 -222.505643441,2047.95527698 -210.368258299,2047.50337396 -210.549622484,2040.24705801 -210.788058436,2034.74731898 -210.889945508,2029.3242489 -222.503853052,2029.55904005 "></polygon></g><g transform="translate(370.4258236 -621.7299781) rotate(0)"><polygon class="382417015" points="-319.908773911,1446.67838275 -319.927088747,1410.08305432 -323.996737056,1410.38446617 -324.548454579,1434.15102171 -324.679961148,1446.63492451 -319.908773911,1446.67838275 "></polygon></g><g transform="translate(379.8265454 -252.7364313999999) rotate(0)"><polygon class="391137140" points="-275.339999405,1410.08305432 -275.357793095,1444.79057055 -280.09703137,1444.79758581 -280.091130674,1432.69228137 -280.084946857,1424.33416553 -280.07925064,1410.09005879 -275.339999405,1410.08305432 "></polygon></g><g transform="translate(518.2800169 -1046.5679286) rotate(0)"><polygon class="237343469" points="-393.43293426,1713.31858333 -393.422233871,1693.38561027 -407.917745173,1696.5959942 -407.424054311,1704.03395316 -403.683446616,1705.55011216 -401.036267312,1708.29898244 -398.445967601,1713.38968657 -393.43293426,1713.31858333 "></polygon></g><g transform="translate(467.62187059999997 -886.3039) rotate(0)"><polygon class="357279449" points="-431.786636853,1604.19170317 -431.802557929,1578.9281456 -424.564308497,1578.9197247 -424.564192388,1604.15814511 -431.786636853,1604.19170317 "></polygon></g><g transform="translate(119.2424809 -997.2527587) rotate(0)"><polygon class="379695802" points="-87.179947049,1578.93735052 -99.5953175,1578.9197247 -99.5887770478,1593.17752953 -87.1833741668,1593.20323656 -87.179947049,1578.93735052 "></polygon></g><g transform="translate(573.1283271 -1816.7112082) rotate(0)"><polygon class="106797765" points="-542.373775796,2029.3242489 -548.659047471,2029.32468396 -548.668643725,2051.94154486 -542.38337224,2051.94110744 -542.373775796,2029.3242489 "></polygon></g><g transform="translate(555.844095 -1664.6092916) rotate(0)"><polygon class="203618076" points="-458.846923981,1693.38561027 -467.320714893,1693.39191213 -467.321942811,1710.98018633 -458.847579965,1710.98479761 -458.846923981,1693.38561027 "></polygon></g><g transform="translate(298.6032318 -442.59741240000005) rotate(0)"><polygon class="294263901" points="-197.573812556,1201.00099806 -197.576348357,1221.588324 -204.415826546,1221.58732589 -204.413290746,1201.0 -197.573812556,1201.00099806 "></polygon></g><g transform="translate(133.6604368 -599.5063734999999) rotate(0)"><polygon class="201855229" points="-37.8660812205,1430.67775194 -32.9022662308,1430.67973626 -32.8882418958,1410.08784997 -39.4628263684,1410.08305432 -39.4613694897,1415.52658826 -37.8615575995,1415.52938046 -37.8660812205,1430.67775194 "></polygon></g><g transform="translate(528.1200540000001 -1168.0212735) rotate(0)"><polygon class="277615335" points="-520.321841205,1601.12220132 -525.594551282,1598.23222533 -525.529481836,1582.67503786 -525.620086214,1579.03212696 -523.623031103,1578.9197247 -519.102821215,1582.92687418 -520.506509819,1584.980646 -520.321841205,1601.12220132 "></polygon></g><g transform="translate(554.6176843999999 -48.36801790000004) rotate(0)"><polygon class="380426896" points="-517.829626982,1201.00635169 -515.45591976,1201.0 -515.458970746,1226.51234078 -517.832674557,1226.51869352 -517.829626982,1201.00635169 "></polygon></g><g transform="translate(335.3646397 -998.5610179) rotate(0)"><polygon class="211681403" points="-293.926864534,1578.92803716 -298.299131119,1578.9197247 -298.30678829,1597.58790608 -293.931631229,1597.60223988 -293.926864534,1578.92803716 "></polygon></g><g transform="translate(399.201881 -1134.7105173) rotate(0)"><polygon class="252115729" points="-374.006407015,1591.05880621 -374.012463677,1578.9197247 -367.727955566,1579.06630454 -367.770971189,1593.76414843 -374.006407015,1591.05880621 "></polygon></g><g transform="translate(393.944227 -1831.4430825000002) rotate(0)"><polygon class="218192637" points="-352.633473341,1858.53967405 -357.550273436,1858.52397686 -357.555698349,1871.28158034 -352.63890018,1871.29728192 -352.633473341,1858.53967405 "></polygon></g><g transform="translate(402.8196032 -226.93344610000008) rotate(0)"><polygon class="390545062" points="-360.972694987,1421.49749739 -366.016173012,1421.30162127 -366.033143186,1410.08305432 -360.732065296,1410.22698919 -360.972694987,1421.49749739 "></polygon></g><g transform="translate(289.5969384 -847.9611166999999) rotate(0)"><polygon class="368042927" points="-241.02006872,1213.99832643 -241.016158583,1201.00351233 -245.098001839,1201.0 -245.101910642,1213.99481394 -241.02006872,1213.99832643 "></polygon></g><g transform="translate(344.1155953 -1407.5830248) rotate(0)"><polygon class="302584513" points="-287.338537761,1410.08305432 -287.360233811,1419.25306101 -281.09703137,1419.41765733 -281.111705764,1410.10599456 -287.338537761,1410.08305432 "></polygon></g><g transform="translate(477.59495880000003 -722.2417714) rotate(0)"><polygon class="99252824" points="-418.811360763,1589.64358857 -423.564192388,1589.64924782 -423.545654639,1578.92265752 -418.832805179,1578.9197247 -418.811360763,1589.64358857 "></polygon></g><g transform="translate(149.1402465 -1408.9176266999998) rotate(0)"><polygon class="294468186" points="-108.18728952,1867.94993747 -108.198853998,1858.67116663 -112.547921779,1858.52397686 -112.709351371,1867.89797216 -108.18728952,1867.94993747 "></polygon></g><g transform="translate(375.6613139 -1296.9671924) rotate(0)"><polygon class="336870136" points="-373.149084628,1693.38561027 -371.297031302,1695.18789684 -371.281707625,1701.37761595 -373.161315478,1703.16423125 -373.149084628,1693.38561027 "></polygon></g></g><g transform="translate(0 1327.7)"><polygon class="bin" points="1.875,0.0 -0.77665042945,1.09834957055 -1.875,3.75 -1.875,1203.749999 -0.77665042945,1206.40164943 1.875,1207.499999 233.136588465,1207.499999 235.546476134,1206.62314039 249.597585743,1194.83757496 249.758558827,1194.69448394 252.552945682,1192.06303817 253.387215782,1190.90384231 255.166448001,1187.04701247 282.203768175,1163.56177167 282.831676112,1163.35832051 284.788918876,1161.88157856 285.415330399,1159.51109873 284.443126557,1157.2602354 269.381307973,1140.78984484 267.886729926,1136.58866757 269.850920219,1132.58546754 300.585505351,1105.86286595 301.874999,1103.03295279 301.874999,1090.70291641 301.404679722,1088.88462205 299.441982619,1085.34448025 285.079560516,959.576195164 283.680412157,957.060707322 280.910464293,956.277965956 247.88452833,960.209744582 243.596965625,958.973101665 241.49138009,955.038767006 237.310176944,909.767448137 238.666434233,905.506438542 242.669017847,903.512708113 279.150777705,901.252247319 281.734092506,899.986723427 282.660790397,897.263435506 281.23421181,875.562738603 282.849803464,871.192423328 287.181575503,869.476164898 297.965637585,869.934862848 300.719695003,868.895657517 301.874999,866.188250519 301.874999,812.299815022 300.78921258,809.660787549 298.160617132,808.549984179 295.51139572,809.610655694 263.103122351,841.108369008 261.967729017,843.710785135 261.386817426,868.817485802 259.650594694,872.803713479 255.620504733,874.43553926 226.955895623,874.35209476 222.905167151,872.66512117 221.225680881,868.61128263 220.773263683,443.158132126 220.778839247,442.873902703 221.009719252,437.146718869 223.393504286,432.248134972 227.468236673,428.778932723 228.972542216,427.805238675 237.626782102,423.692795197 240.549652135,423.029608302 271.428906833,422.948407353 275.538973731,424.666159425 277.182645792,428.806408722 276.475078992,463.170742025 277.008366924,465.176766152 279.923857026,470.037737772 283.09500181,471.85864306 298.080226376,472.037569898 300.760772384,470.95527016 301.874999,468.287837186 301.874999,429.985793758 301.236748559,427.893064755 299.539257838,426.512701196 298.169103889,425.954768375 252.974131011,380.90151682 250.974945401,376.065970492 251.260484542,277.579647929 250.141373468,274.896509533 247.441092889,273.819418059 239.735964138,273.962053975 235.606927825,272.317915388 233.888742343,268.219138592 233.912631481,221.471050293 233.924920693,201.138398586 233.949620312,165.111296123 233.9597181,144.436385897 233.984566567,100.163729679 235.656054826,96.1147125635 239.695130317,94.4193418696 258.811151363,94.2957202385 265.560707941,94.2473343979 268.182587045,93.1519667563 269.283661541,90.5324791617 269.790406772,36.3157018773 271.247721933,32.5325713145 274.190496915,30.9764997295 278.13757957,31.9019092877 296.042874204,43.8553531903 298.615476527,44.4542840916 300.944732208,43.2086641996 301.874999,40.7364982189 301.874999,8.1937069472 300.748215274,5.51392404923 298.045006264,4.44456022266 247.586141163,5.52116324161 244.979888165,6.65371220259 243.916179538,9.28881102327 243.988395876,23.9262433662 242.305164115,28.0167955231 238.213656133,29.6977025834 222.036197777,29.6086952733 218.029608922,27.9530643655 216.316563973,23.9706850559 215.913144304,3.67547379978 214.789054139,1.07213020753 212.163884931,0.0 1.875,0.0 " transform="translate(1.875 0)"></polygon><g transform="translate(88.351928 -1690.8856213999998) rotate(0)"><polygon class="317851397" points="-70.5297907687,1693.38561027 -85.8103377729,1693.40107656 -85.8086346428,1695.63557957 -85.8519312161,1750.20887191 -70.5714160542,1750.1933412 -70.5297907687,1693.38561027 "></polygon></g><g transform="translate(555.8110131999999 -1407.5830105999999) rotate(0)"><polygon class="309059740" points="-532.988908069,1410.10086462 -532.95486072,1479.09255511 -521.015315345,1479.0747381 -521.049329675,1410.08305432 -532.988908069,1410.10086462 "></polygon></g><g transform="translate(230.98395929999998 -2026.825642) rotate(0)"><polygon class="26530883" points="-177.084050426,2029.79005194 -190.883096883,2029.3242489 -191.194624754,2085.50172685 -177.08382002,2086.00652638 -177.084050426,2029.79005194 "></polygon></g><g transform="translate(624.8086665999999 -1856.0258698) rotate(0)"><polygon class="242099998" points="-549.985410484,1859.05538423 -563.454908652,1858.52397686 -565.911551125,1908.55248134 -549.905877242,1909.03867745 -549.985410484,1859.05538423 "></polygon></g><g transform="translate(282.3624867 -1856.0277990000002) rotate(0)"><polygon class="107105217" points="-202.532160974,1858.52397686 -181.637842041,1859.68835905 -185.354636026,1902.21454016 -186.371601616,1918.66914435 -191.849756282,1918.29718068 -189.774922458,1881.98951347 -202.503862777,1881.28461837 -202.532160974,1858.52397686 "></polygon></g><g transform="translate(166.0874235 -1800.6567695) rotate(0)"><polygon class="88511332" points="-91.5862057478,1906.70837997 -99.3187715825,1906.68232049 -107.157674145,1906.73815745 -107.18728952,1858.54981401 -102.235257974,1858.54330203 -96.0119846677,1858.52397686 -96.0106907064,1863.13473318 -91.6081822486,1863.12870588 -91.5862057478,1906.70837997 "></polygon></g><g transform="translate(296.203369 -1340.4129231) rotate(0)"><polygon class="301904697" points="-242.293262162,1447.79511072 -252.954733756,1447.6621104 -252.526989712,1443.16319823 -268.408669795,1437.87092837 -274.339999405,1432.38519752 -252.775690211,1410.08305432 -248.095063084,1414.89592852 -242.293249639,1414.56245974 -242.293262162,1447.79511072 "></polygon></g><g transform="translate(149.0134946 -1627.3126077) rotate(0)"><polygon class="312888293" points="-50.2196293493,1737.78167448 -47.6428092186,1728.37097853 -47.6408837879,1695.7187145 -60.8535904418,1695.71871597 -60.8507769071,1693.39043352 -69.5297463852,1693.38561027 -69.5297907687,1698.63273884 -60.5700932393,1698.63986982 -59.0395663497,1707.16210299 -66.9473395701,1732.91539088 -61.4237915123,1734.60789301 -62.7663093542,1738.97181069 -56.2409993465,1740.97390709 -54.8271196613,1736.37286482 -50.2196293493,1737.78167448 "></polygon></g><g transform="translate(199.070607 -1101.7086194) rotate(0)"><polygon class="61722928" points="-195.399251863,1202.11108165 -176.595040289,1201.0 -176.629458264,1251.70596957 -181.385325862,1251.78200601 -180.888262949,1235.25887844 -187.142407896,1233.01246285 -196.573812556,1225.30393156 -195.399251863,1202.11108165 "></polygon></g><g transform="translate(257.0500854 -1746.2125369) rotate(0)"><polygon class="378342743" points="-229.002470432,1862.2824097 -214.12617463,1862.78992753 -208.824942647,1858.52397686 -203.578803097,1858.6699188 -203.532160974,1891.55639604 -209.462891356,1891.52574075 -214.228519288,1888.03937474 -229.603689163,1887.48513687 -229.002470432,1862.2824097 "></polygon></g><g transform="translate(416.5201776 -1918.2538624000001) rotate(0)"><polygon class="397300557" points="-351.820323687,2029.3242489 -351.818837088,2070.7900349 -342.99715428,2070.79154115 -335.182466825,2070.79112461 -335.173105531,2029.32695983 -351.820323687,2029.3242489 "></polygon></g><g transform="translate(498.554693 -1742.6969749) rotate(0)"><polygon class="91711649" points="-412.501294895,1907.26229441 -408.307964972,1913.05073876 -394.435045009,1902.18719482 -390.087696999,1899.04030922 -398.592127546,1883.47864347 -388.271340849,1877.86750201 -398.865013391,1858.52397686 -406.741575509,1862.34515958 -409.631636772,1863.73949813 -407.51257136,1867.22217413 -412.49547379,1869.84116758 -397.7566542,1896.30568371 -399.674277488,1897.74192727 -412.501294895,1907.26229441 "></polygon></g><g transform="translate(200.6972173 -1430.5149118) rotate(0)"><polygon class="208580241" points="-173.224451013,1620.05704682 -157.055524691,1620.0300524 -157.086050347,1578.9197247 -173.255003974,1578.94671342 -173.224451013,1620.05704682 "></polygon></g><g transform="translate(285.0926758 -1424.0356445999998) rotate(0)"><polygon class="230631720" points="-266.909077503,1579.11486172 -281.899056506,1578.9197247 -282.593076517,1617.5769974 -280.610593906,1617.30345213 -280.510779772,1620.09213311 -266.874725184,1619.9796622 -266.909077503,1579.11486172 "></polygon></g><g transform="translate(176.2907545 -1876.4692107) rotate(0)"><polygon class="115924299" points="-127.676279051,2029.3242489 -112.569809064,2033.75497504 -127.595664602,2084.98823704 -127.676279051,2029.3242489 "></polygon></g><g transform="translate(452.0437243 -1689.2144322) rotate(0)"><polygon class="213280432" points="-346.353149439,1693.38561027 -346.654993187,1755.32949133 -340.503483182,1758.38965234 -340.592337998,1696.17127381 -346.353149439,1693.38561027 "></polygon></g><g transform="translate(287.8758328 -1270.9315253999998) rotate(0)"><polygon class="191192880" points="-174.726633628,1410.08640552 -174.679881432,1474.71449163 -170.309898511,1474.7111631 -170.356634052,1410.08305432 -174.726633628,1410.08640552 "></polygon></g><g transform="translate(527.0307945 -1619.6272014) rotate(0)"><polygon class="282846582" points="-414.240113336,1748.9845262 -414.267218753,1693.39990816 -408.944828734,1693.38561027 -408.917745173,1748.97020653 -414.240113336,1748.9845262 "></polygon></g><g transform="translate(565.7305189 -1198.5000171) rotate(0)"><polygon class="308265769" points="-444.513876816,1259.74174434 -449.201228763,1260.00214403 -449.16996167,1201.0 -445.633463709,1201.01309096 -444.513876816,1259.74174434 "></polygon></g></g></svg>