<svg xmlns="http://www.w3.org/2000/svg" version="1.1" width="592.5px" height="1200px">
  <polygon class="23505961" points="358.048658207,-2.5 312.632119352,-1.91804504283 260.714397568,-1.25420052558 261.174835884,37.4511425365 297.82241113,63.5025706375 299.179439627,71.0511556178 293.670254235,72.5474065065 236.160090645,29.4023213387 229.180291608,40.3492734328 229.181403694,154.080822286 233.019685667,154.187331341 239.544407686,149.38939684 250.126397019,143.616840628 264.896190341,140.527928259 277.989718669,133.9660573 281.713287629,131.37653291 292.239623309,122.777884489 298.422933245,132.643382739 274.083864587,154.57488364 273.65397972,174.191721423 316.851271209,174.324084752 317.550395938,201.527809391 356.109056242,201.540705734 356.199253525,194.025811204 360.874097221,194.003001327 360.855272267,155.368915374 356.038434203,155.398918374 355.80918658,149.144124756 358.569471313,147.21198204 360.774591309,144.264676244 363.319708392,136.571918968 363.064887923,3.35178994872 358.048658207,-2.5 "/>
  <polygon class="4606802" points="209.326182157,511.588637325 206.872817916,411.033840214 206.580111441,210.160867044 384.625295077,206.540705734 385.919888559,219.458702083 384.670698252,259.446988158 332.980569466,520.684550965 209.326182157,511.588637325 "/>
  <polygon class="32401743" points="215.738947034,732.375871583 225.604779876,609.894844786 215.792166289,609.095142947 222.459203618,525.684550965 282.984180891,530.615119895 283.340946678,536.500729108 288.971490264,537.164870741 280.608173942,665.738135809 277.03575027,665.878852569 276.386481236,673.10599045 277.56978473,676.243765811 280.966886441,678.623909887 286.130802333,678.743816275 286.457103047,674.609081884 376.761052966,677.078180158 375.421063745,711.081957332 324.149720855,708.70202851 322.781242951,719.702380859 301.465237064,719.410948314 301.03646988,723.636571768 275.700940178,721.628265386 278.128155036,685.70168912 264.689370682,683.965625563 265.858377432,676.457080813 264.365074007,671.468480881 260.14376355,671.183915132 255.853069743,735.821729051 215.738947034,732.375871583 "/>
  <polygon class="10272241" points="281.547835683,956.82543413 281.457954402,939.292430753 265.039109813,939.51090408 265.605694322,891.007690553 270.983544207,891.03711422 271.369017836,845.893211944 280.624059248,846.00287357 282.10008045,740.821729051 327.41191904,740.934209107 327.396368143,749.844207579 327.422843143,847.634122611 327.448174294,933.528416743 327.460890187,957.620239828 281.547835683,956.82543413 "/>
  <polygon class="24543098" points="289.864019459,967.351194163 289.799661118,1032.11254602 280.326623404,1031.83752597 280.032308856,1075.76705061 364.026112426,1076.61479954 362.720343588,1135.71861969 228.473887574,1136.60856075 228.485721251,1015.45195577 233.367855182,1015.76498829 233.59261398,967.692908167 238.870611766,967.588427126 238.610497555,962.620239828 264.049859703,962.798581625 264.218658316,967.077472047 289.864019459,967.351194163 "/>
  <polygon class="66862372" points="287.694300575,1254.35557289 254.360950422,1216.00388521 239.72974233,1190.61756846 240.49302925,1184.27568946 243.7593354,1178.32605737 325.72547513,1147.25869879 332.609516817,1148.27599604 333.654333043,1177.93789607 337.773865554,1177.74633547 337.306280704,1141.60856075 352.710905053,1144.7327893 352.77025767,1292.85570715 335.065168811,1292.25379212 316.867243234,1294.52952473 317.020520629,1270.2531769 306.102369079,1276.94907934 287.694300575,1254.35557289 "/>
  <polygon class="25056932" points="269.757299917,1299.52952473 341.71758343,1305.7525958 341.198541708,1313.24507731 333.581764879,1423.08492613 329.872993526,1476.51070938 341.647864279,1477.01361028 339.86597883,1509.6972278 320.92498996,1509.21829644 325.803213175,1514.44105627 324.222301688,1516.65957277 294.804203079,1513.56885581 282.133273538,1501.87095638 250.78241657,1382.67058495 257.924858163,1307.46115629 269.757299917,1299.52952473 "/>
  <polygon class="23492531" points="237.469233892,1635.1720286 318.067661992,1528.19934553 326.614783314,1534.58303597 332.115920685,1538.78940402 333.529646072,1537.74243221 332.316158173,1534.05495127 332.767761377,1530.16914298 335.142476152,1525.70738912 338.719288412,1522.75630093 343.189358283,1521.65957277 346.401333704,1521.93970597 349.651523964,1523.19105376 353.204745669,1526.39935583 354.981203876,1530.65266931 354.85409514,1534.88177469 353.408728787,1539.48315722 350.614151757,1542.51020447 346.40949012,1544.47358025 342.336629259,1544.87104446 341.7887894,1546.22111687 351.578712299,1553.58414754 349.67301908,1644.34755012 341.198368325,1655.57284634 350.75991023,1662.53865318 353.290253756,1665.2684724 354.54088277,1668.02923331 354.83960674,1670.36613404 355.030766108,1672.71615214 354.313562555,1675.28167509 353.084046119,1677.97155938 329.264455802,1709.08359941 326.997633061,1711.47970284 324.593310147,1712.73039838 322.348287748,1712.94025858 320.226625496,1712.79777894 317.448282046,1712.40692687 305.521144484,1703.55829323 302.963651496,1705.85247535 248.061374451,1666.29481306 249.475056057,1664.87794996 246.303692853,1662.58673378 255.878746247,1649.55854203 244.190478518,1640.72971931 237.469233892,1635.1720286 "/>
  <polygon class="88508631" points="348.457248465,1717.94025858 246.337339677,1718.92216814 243.861315485,1824.79274592 348.638684515,1829.21625585 348.457248465,1717.94025858 "/>
  <polygon class="116676127" points="326.18395606,1839.66911048 326.246925162,1939.08560196 320.985624246,1939.09819428 321.013408522,1995.72262603 298.993937863,1995.7469259 299.063928316,2113.46473418 266.41352045,2113.50165993 266.309450903,1940.10252796 266.253074838,1834.2727626 322.404868844,1834.21625585 322.403617978,1839.67530951 326.18395606,1839.66911048 "/>
  <polygon class="150733372" points="260.094089897,2136.75893556 271.226025774,2127.64992381 281.250452051,2121.84714962 289.87081064,2119.84465701 296.176880667,2118.67749831 305.636099274,2118.50165993 316.496530631,2119.58242454 330.598132572,2125.56906963 339.047418207,2132.47679701 349.201964489,2144.84952526 353.33647414,2157.17646105 355.233124238,2171.28223191 355.243545079,2196.16771472 344.451678031,2281.80009692 345.123159399,2291.41576033 332.404420593,2292.93718973 323.411686331,2296.63700563 310.049720629,2298.0852021 289.741801191,2303.58871964 272.072448296,2313.76255277 274.187257287,2307.78432684 274.480051629,2298.02929972 243.283286425,2220.40974382 237.511987397,2199.86185848 237.256454921,2189.55898889 238.411677721,2176.22261779 241.757597355,2165.01364361 247.52157652,2151.89428575 253.628171328,2143.50780211 260.094089897,2136.75893556 "/>
  <polygon class="22375348" points="240.374661484,2607.28593988 220.058737996,2600.30115783 228.81119506,2576.46674653 326.998261399,2318.76255277 359.532939813,2430.27528436 368.196533815,2474.48329003 372.441262004,2513.42857376 370.15525556,2650.43141877 372.374068975,2657.62088944 338.600847462,2640.00706982 252.18635727,2593.63966125 240.374661484,2607.28593988 "/>
  <polygon class="26434886" points="364.157771871,2865.84597535 350.1621978,2862.17231537 232.656773139,2831.37482676 226.504725119,2829.75794086 226.57601427,2662.82439775 297.449707433,2662.62088944 298.617157476,2725.04872768 365.995274881,2723.42946056 364.157771871,2865.84597535 "/>
  <polygon class="24814580" points="263.581091317,3067.97733518 263.542318623,2872.17064092 263.539057849,2870.90278411 328.924085057,2870.84597535 328.937008072,2955.91928025 328.960942151,3065.77600659 328.95490468,3067.91899032 319.1998605,3067.93102414 271.775818427,3067.97403544 263.581091317,3067.97733518 "/>
  <polygon class="314629612" points="263.00071602,3278.35555548 264.09586948,3164.59831903 263.140153618,3075.4825624 322.419079822,3072.97733518 325.945915268,3132.50391174 329.49928398,3203.14356653 322.662549777,3203.59443547 324.693794754,3259.09322435 315.152677588,3260.57825726 315.47876705,3275.90101696 263.00071602,3278.35555548 "/>
  <polygon class="22382268" points="373.678700215,3412.84445577 364.496316765,3406.12925309 328.481968617,3381.47501394 334.406660762,3372.66524949 337.541668646,3367.45093114 315.243638856,3353.10840515 303.755862645,3345.74088264 301.17394397,3349.21675457 285.579689156,3338.99464887 286.787471958,3337.21009565 291.950322548,3329.56295108 300.540349662,3316.83441011 305.094587569,3310.09318826 282.021451463,3296.19815269 277.548546668,3302.79737754 273.218294391,3299.91469189 276.59594342,3294.67387599 264.939065102,3288.49290602 262.292325843,3292.60616168 248.648410696,3283.35555548 246.452651262,3286.82460719 239.546956795,3298.20653863 253.174854025,3307.30945952 246.695071243,3317.31274722 232.624869625,3308.7281151 230.493212941,3311.94203256 218.871906652,3329.46879933 233.946508916,3339.03687638 248.568490204,3348.57098824 219.07220563,3393.10590946 240.616001142,3408.03898641 281.002721903,3348.43162548 295.338324511,3357.54408 288.170077293,3368.3116577 279.471159975,3381.36269836 275.329522618,3387.5861567 269.78336965,3396.36457446 260.684420046,3410.78145765 255.524205293,3418.95627622 250.770191754,3426.55426406 242.125420877,3440.35647623 232.33486633,3455.98899697 218.821299785,3489.21078111 226.211514771,3489.73357811 227.270097015,3491.94905455 230.836940247,3499.41220655 240.602149027,3484.62105185 247.639393387,3473.72017111 256.60638214,3460.28217037 269.388202518,3468.83506747 274.684511386,3461.25215676 276.564127911,3458.57289646 282.53603122,3449.62666944 298.858250346,3460.36590264 301.901929098,3455.81902304 307.094944729,3448.0381962 281.497941365,3430.55572352 298.414297135,3404.51889472 302.823259288,3407.69357848 335.030029515,3430.28210103 344.967418277,3437.71635587 352.160696141,3442.50874551 353.337119835,3440.89243881 355.667882138,3437.68487599 362.001588745,3428.94186636 373.678700215,3412.84445577 "/>
  <polygon class="25114189" points="236.726717275,3535.88100909 231.403489606,3573.49793604 230.26757284,3594.67537293 235.427560045,3594.52460021 238.186455901,3621.45954963 233.504047921,3622.36496883 238.501891239,3643.93023383 243.153723773,3642.77540822 254.419889265,3675.29318658 267.919176679,3694.96425231 263.33718279,3698.31353793 291.556662284,3730.45777238 323.730890449,3762.17984262 362.23242716,3738.59518265 281.591047718,3606.8872436 362.179448689,3557.32175774 356.012216395,3547.59075014 297.680663181,3582.41451739 248.396193544,3504.41220655 243.337281341,3515.81722166 236.726717275,3535.88100909 "/>
  <polygon class="60000639" points="294.054747663,4002.93795678 286.321885567,3922.19814735 273.480174394,3923.33079433 263.961159258,3866.2399054 245.078230583,3866.18408211 232.114056438,3770.50577961 272.23677722,3767.17984262 279.226943268,3832.50635145 286.508893539,3862.26942159 327.538274124,3933.34017761 360.698534315,3973.35935981 267.920668966,4045.56608966 235.132536965,4049.48373362 231.801465685,4007.68810189 294.054747663,4002.93795678 "/>
  <polygon class="367216306" points="299.322345044,4254.18329428 288.54939633,4254.50874174 264.048997692,4253.83964831 262.607214069,4059.19520496 314.001957351,4054.48373362 329.892785931,4055.09121877 329.706643378,4254.59023126 299.322345044,4254.18329428 "/>
  <polygon class="27807783" points="253.746171419,4312.48198167 254.653366718,4473.56400066 281.171840938,4473.78957026 281.024186483,4532.03994975 338.506099784,4532.17883546 338.753828581,4260.44587153 297.580357583,4259.59023126 297.508236274,4313.39561286 253.746171419,4312.48198167 "/>
  <polygon class="48848048" points="333.776458305,4537.17883546 323.512053327,4537.66758706 305.918598996,4538.46591315 284.368791214,4560.72510297 275.989585657,4564.51441824 258.844830034,4564.87480072 258.673270001,4705.69569139 265.1307608,4705.80869395 271.35909603,4709.39218932 279.304312347,4718.07449122 279.002525005,4742.65489123 280.390040088,4751.26960377 285.283597348,4756.01873605 307.366956382,4759.19086582 322.018122236,4756.12293162 331.127786285,4746.54538347 333.826729999,4735.58377195 333.776458305,4537.17883546 "/>
  <polygon class="13790951" points="240.133313393,4874.94267441 240.159534849,4841.9847479 246.039747288,4839.46197852 246.597627149,4804.06983346 261.364149122,4796.81997085 260.894733802,4773.04432526 261.163803736,4764.19086582 350.391109302,4764.74948143 350.631478777,4782.35018931 350.488485792,4789.00883842 350.654911983,4803.68654009 350.775238779,4808.59148576 351.2573567,4827.07154328 351.540548164,4837.77687901 352.366686607,4872.17042796 344.358646875,4873.26667025 311.143719108,4873.96115527 247.849867682,4875.29596066 240.133313393,4874.94267441 "/>
  <polygon class="319690718" points="272.572621043,4894.00881744 289.893454828,4880.29596066 319.928682181,4922.19124604 320.19064111,5145.3309884 282.753638881,5134.64972311 272.30935889,5129.23692198 272.572621043,4894.00881744 "/>
  <polygon class="337340598" points="220.695780813,5286.10931587 255.946148127,5330.78989865 256.614404999,5331.54417798 257.119242789,5332.09301137 258.557616829,5333.4506632 259.611515869,5334.30350504 260.866867705,5335.20575036 265.835580051,5335.25072098 265.900787651,5337.71461102 267.378567671,5338.18835063 267.87776367,5338.3223765 269.426041329,5338.67015704 269.749920258,5338.73398987 271.034362377,5338.9002944 271.630811189,5338.98491442 272.902597713,5339.04947399 319.8695009,5339.10506772 321.164600383,5338.9414316 322.508326246,5338.75309253 324.059075543,5338.4280321 325.00780646,5338.20447782 326.727269745,5337.6194291 328.113501214,5337.03389473 329.742246007,5336.22750387 330.27920019,5335.92617811 331.940615284,5334.82825 333.123056621,5333.94359897 333.799425282,5333.37763841 334.664935209,5332.57737016 335.727358509,5331.46673042 372.524953181,5285.04763239 373.938972548,5282.93054897 374.614791146,5281.80597134 374.99582469,5280.94382901 375.252162571,5280.41847225 375.981284617,5278.70641668 376.71886636,5276.55436424 377.261323053,5274.40378075 377.465939254,5273.41641545 377.617045622,5272.27594438 377.800340214,5270.88624734 377.817463159,5265.43581187 377.909905053,5216.02540674 377.926306463,5196.66884316 377.908656097,5163.60029504 379.458730273,5163.63918333 379.459435382,5150.6683011 377.997195523,5151.10463314 298.690024686,5150.73405865 293.189253409,5150.70687586 214.73130647,5150.3309884 213.040564618,5150.36203136 213.051071755,5163.42211467 214.63410444,5163.4487908 214.638330701,5165.05277519 214.613601571,5197.77835288 214.596622451,5215.83594038 214.517608767,5270.33820357 214.653601723,5271.89325464 214.9325882,5273.62807321 215.108260015,5274.57851788 215.352023967,5275.6145661 215.859081254,5277.33568753 216.420815082,5278.80366668 217.116669857,5280.47244698 218.269703614,5282.63014533 218.914173452,5283.65494171 220.695780813,5286.10931587 "/>
  <polygon class="42110747" points="377.612699858,5404.0727353 377.603680896,5387.87469194 377.595712253,5371.16811147 377.603301949,5355.77379032 345.772201273,5355.72073201 335.248006006,5355.70849572 318.088384269,5355.68334562 327.481215711,5344.96474416 312.05414089,5344.87078583 306.725891052,5344.70664225 257.667618808,5344.36220062 215.99129855,5344.10506772 215.918356567,5355.51839051 215.816471071,5370.23763564 215.701934043,5387.26361185 215.590741153,5403.92299433 215.48676877,5419.6593113 215.373237256,5435.91919126 215.271564637,5451.79745058 215.16594886,5467.84584291 215.060243413,5483.37911695 215.014888081,5490.1921393 214.944047764,5500.5883877 214.842221743,5515.56518944 214.801460977,5522.66209735 250.286945556,5523.61577909 250.549417026,5508.21810067 322.676396011,5508.00081304 322.80939708,5525.04503467 377.698539023,5523.76550532 377.693242899,5516.08008214 377.690052334,5500.81640651 377.676989821,5484.27337972 377.660540447,5467.83938717 377.655593754,5452.24388915 377.637497382,5436.12197257 377.625622169,5419.84308566 377.612699858,5404.0727353 "/>
  <polygon class="153021216" points="284.53879857,5682.2198773 280.551064299,5676.69530795 259.662408264,5666.87758286 252.333441903,5665.6324131 251.541886011,5611.99881545 255.527548278,5600.06024392 264.246071093,5588.33416409 278.582877451,5582.22860135 279.827361483,5530.11750447 286.487984777,5530.04503467 292.563229833,5530.12984256 311.012245913,5546.89572759 317.021696805,5555.17529538 321.441335028,5563.78253005 325.080722999,5583.52217122 325.648062785,5595.55151366 339.661036189,5595.84632544 341.025774953,5723.33419814 330.661764156,5723.73153794 325.027933221,5728.67918358 324.223512289,5735.89949154 324.440378411,5793.70918813 296.277261073,5776.9390038 289.856808158,5766.63701451 251.496787994,5788.59009247 251.474225047,5703.60921834 264.254609357,5703.42905017 281.961430221,5694.4682815 284.544608896,5688.08921681 284.53879857,5682.2198773 "/>
  <polygon class="10976466" points="245.721187879,6058.42922027 226.538479719,6057.61795539 226.521107869,5917.57649467 282.254296439,5918.41838445 283.332088213,5844.03726884 275.870505573,5843.50218934 276.728779258,5800.59774371 276.760302532,5799.29831645 307.465891528,5798.70918813 313.246307676,5918.88696847 355.837090749,5919.52765203 357.423340597,5965.68736668 365.978892131,5966.60999609 365.517097479,6059.65644749 245.721187879,6058.42922027 "/>
  <polygon class="204159894" points="376.145381476,6271.28202248 293.918112173,6270.08581524 293.797691006,6251.59822146 302.758678487,6251.52518043 307.986724532,6251.45943587 307.616292863,6212.37924211 302.619161056,6212.45797584 294.303864958,6212.52108335 293.652813442,6143.89820272 239.721422325,6144.25917704 216.686792741,6144.67641108 216.354618524,6110.26594801 247.480169037,6110.07022974 272.023228828,6109.29430834 299.943769937,6109.42137855 299.838761469,6098.52523265 323.649221371,6098.21314872 323.688929027,6108.57646972 347.81853664,6108.33176755 347.719979071,6098.03168008 359.452008378,6097.91563525 359.137026426,6065.02812016 376.111868205,6064.65644749 376.144728032,6158.4673471 375.913901774,6168.42494611 376.145381476,6271.28202248 "/>
  <polygon class="123700385" points="340.211601333,6503.48134785 307.328453998,6512.07191089 302.367715549,6507.47556314 262.561603574,6344.93248983 265.581847004,6343.81093328 261.78894341,6331.55685691 252.022806306,6305.15450545 253.227909238,6286.73937963 259.907528499,6287.66449161 265.293496994,6283.25942398 273.461107651,6282.7104082 284.30043693,6279.98525163 300.010509216,6276.28202248 305.41621413,6278.25107632 308.463788768,6283.1491307 311.379662172,6283.72103162 312.023610364,6278.39366403 340.477193694,6281.63243589 333.909040618,6345.36298601 300.952398999,6342.61049429 308.787420064,6376.05810332 302.104656747,6378.0159498 307.77608944,6398.99021367 314.065760307,6397.13004944 316.72196822,6407.75133942 321.793827889,6428.64323261 316.697173385,6430.26198693 326.970211163,6473.25544574 332.4800987,6471.95525555 340.211601333,6503.48134785 "/>
  <polygon class="10976059" points="254.147352078,6517.07191089 254.160012984,6597.548303 294.239278121,6600.06691201 294.617998645,6640.03768945 294.926431432,6673.38503336 255.756823215,6674.82330905 255.757667973,6697.66673754 255.767860305,6743.99590925 338.352647922,6744.18299989 338.312170494,6517.26989673 254.147352078,6517.07191089 "/>
  <polygon class="27168748" points="215.793932224,6849.09326422 224.874913413,6841.16503697 229.406197763,6836.89907835 233.565019542,6841.30840903 234.171658406,6841.55739361 234.838468203,6841.29480793 246.677115861,6830.04639432 247.055212133,6829.10037645 246.737145402,6828.22445489 243.287158471,6824.37081453 247.256603062,6821.07073951 257.271691999,6812.00394951 259.623751418,6814.597505 274.928386937,6826.02835435 281.876732823,6830.64748705 299.764571013,6838.64013009 315.243360095,6784.0721635 352.839036434,6749.18299989 376.620889879,6775.70290577 359.507380065,6790.98629907 340.948639897,6851.87030385 344.900200232,6853.89516741 349.338341171,6856.31282313 353.365517652,6859.53568154 356.979168724,6863.03907568 359.382823698,6864.05932148 361.876636491,6864.37625677 365.778676202,6869.44237728 364.735380354,6871.75199201 364.591228126,6874.0630095 366.070785201,6877.76135414 374.299999509,6875.69439646 376.001306033,6883.31178708 376.706067776,6891.17532137 376.383206021,6896.68115413 375.277528719,6902.22152352 370.255325897,6926.02819973 368.088811739,6935.51096036 365.724122412,6948.22523175 363.693537309,6963.14072131 348.818734591,6963.25510248 348.483886684,6962.189335 278.068951432,6960.73418022 277.95940848,6959.34856362 276.89457985,6958.10123569 274.784938393,6957.31127449 271.883345887,6957.25278303 270.250082461,6950.5697259 272.978753127,6948.92653424 275.693590639,6946.67479038 277.633785404,6943.64979611 279.175976351,6940.48927617 281.427280182,6936.31792145 278.179469255,6924.05055672 274.753927157,6915.77606281 269.82803413,6908.10839391 264.998684657,6900.7054728 258.297104443,6892.45149674 236.120775406,6867.27435377 233.422006064,6865.97697713 230.610867459,6865.71022778 215.793932224,6849.09326422 "/>
  <polygon class="74098771" points="280.62936854,7208.23623402 281.485143395,7052.38589044 283.186954533,6968.37518286 299.910888969,6968.25510248 303.829378137,6970.02679378 307.710063059,6972.87277694 310.817927277,6977.60794617 311.87063146,7054.64524722 311.733691957,7058.84485802 311.623228015,7216.06013984 311.682704108,7373.74764841 281.169492252,7373.23884631 280.62936854,7208.23623402 "/>
  <polygon class="30213990" points="265.784024548,7378.74764841 341.787152904,7387.06833598 326.965773633,7504.81180067 338.379349817,7505.89109195 336.022842076,7528.6704186 332.549690436,7528.3277117 331.819189429,7535.30647083 335.311293127,7535.69071407 330.982886793,7579.40197062 330.781671513,7592.30472305 341.924377273,7612.9178138 341.393190399,7617.72786394 337.934442919,7640.43487738 328.410049503,7628.60280963 250.575622727,7510.91400094 265.784024548,7378.74764841 "/>
  <polygon class="25699158" points="327.14582616,7649.77733773 329.848909354,7822.899087 262.651090646,7824.05424137 262.85556586,7668.23152576 267.7419871,7652.44192662 319.314459655,7645.43487738 327.14582616,7649.77733773 "/>
  <polygon class="56643623" points="226.201664328,7847.26703772 193.374601116,7882.27687366 192.677157018,7901.3460415 194.603261164,7909.267676 207.175705416,7940.67497259 213.889917254,7958.92264084 216.310703755,7971.09053984 213.615129808,7987.17041759 227.258826804,7995.57118392 260.199249901,7955.81757595 325.300435015,8094.33437444 399.685630094,8004.81375091 373.209140247,7940.83655283 356.684630128,7900.74409942 399.822842982,7849.5157238 263.53569879,7829.05424137 250.319905648,7829.48683851 226.201664328,7847.26703772 "/>
  <polygon class="307927781" points="281.524889994,8562.96226878 280.634169054,8302.61677047 279.54392451,8106.35680265 288.286590965,8099.33437444 292.261662904,8556.72580604 300.296254865,8559.40378175 306.720576001,8564.00299662 311.282604563,8572.11804268 312.95607549,8580.08676472 311.182124121,8588.55426039 305.254960004,8593.88073243 299.406341872,8595.24131707 295.377825608,8596.37998816 291.776805426,8596.38918077 291.688945367,8747.83115582 291.920470839,8972.53852433 293.703059808,9190.0397816 283.216093875,9190.30505234 281.053956122,8973.41869195 279.888117254,8820.14219371 281.49833187,8590.80963355 281.524889994,8562.96226878 "/>
  <polygon class="48790685" points="305.06546391,9195.30505234 262.748238785,9286.84110125 256.435010722,9295.36548109 260.14041737,9343.92130326 314.379229337,9448.50746925 328.654822418,9469.56690968 333.241192977,9467.2501672 317.267092489,9443.43444278 336.020244586,9437.76287943 336.064989278,9288.26847639 316.124904648,9259.92350484 316.893651361,9201.50495436 305.06546391,9195.30505234 "/>
  <polygon class="146222296" points="276.379752152,9474.56690968 312.365406454,9474.88220419 318.28238476,9474.66245535 318.573999694,9770.70698096 314.922835083,9770.86732847 275.471006424,9773.49360798 273.926000306,9656.80625187 276.379752152,9474.56690968 "/>
  <polygon class="11093435" points="308.220878131,9818.6435618 307.897893784,9809.68279906 301.381399775,9809.3898429 300.887199446,9778.49360798 318.626163397,9778.61994908 318.547158576,9809.97468319 313.033563601,9809.9169658 313.204932691,9817.2778957 316.979136965,9817.67111426 316.196112508,9992.36890702 318.627632345,10176.7440069 313.626466258,10176.2306057 293.498915173,10177.2139967 292.367496669,9992.50023046 279.039857926,9991.71774571 278.118215438,9954.31655479 275.339235572,9829.90676152 273.872367655,9825.6308703 295.162944446,9824.01074133 295.070103279,9819.18818824 308.220878131,9818.6435618 "/>
  <polygon class="28656964" points="251.693985313,10462.8243991 251.6460412,10449.3452274 251.636201905,10446.6507052 251.640658101,10417.7056188 251.615857902,10388.6801557 251.585857863,10359.2729226 251.573462836,10329.189087 251.507530449,10300.7881412 251.485030355,10281.0989804 251.465317836,10270.9774015 251.456291857,10241.6353659 251.471548662,10212.1075735 251.422826544,10182.2139967 282.955573637,10184.5438017 309.981229929,10186.5442027 341.077173456,10188.824681 337.622686835,10216.2820866 335.168857751,10245.4466906 332.714467232,10273.3872579 330.100854392,10303.9153015 327.719563994,10332.9917489 325.136863166,10362.5397459 322.322387944,10391.6083546 319.813848654,10420.3001487 317.515244739,10448.3588288 314.657036962,10469.1847683 310.583629786,10478.4439475 304.352326013,10482.8309423 282.299404744,10483.4518451 270.877310893,10481.6877403 256.259463636,10472.4872053 251.693985313,10462.8243991 "/>
  <polygon class="378441384" points="341.725847835,10628.3015034 266.615284304,10629.4941157 265.381359624,10585.6616419 248.359982768,10585.478981 248.316110255,10488.4518451 271.106558488,10489.4834364 270.830181016,10507.2697094 289.556674453,10513.2402892 289.407319807,10523.6131027 306.82613559,10524.1856306 306.874147689,10489.4858869 344.183889745,10489.7058464 341.725847835,10628.3015034 "/>
  <polygon class="169873605" points="283.915393954,10813.7315291 284.404222156,10816.7734054 289.605283489,10837.2658773 294.239586861,10849.8260075 335.07996675,10850.0076382 335.084047572,10849.4022289 336.58962631,10849.4134528 336.804032034,10634.5098114 312.456072788,10634.4941157 311.435882425,10670.0487816 303.584808465,10694.3797388 301.705021168,10694.0541505 296.696566501,10708.8946866 291.565216753,10723.5636965 286.564279963,10723.133052 255.695967966,10721.550293 256.268016303,10787.2839291 278.993578859,10789.0603938 279.017849,10791.6422221 283.12114544,10813.7379964 283.915393954,10813.7315291 "/>
  <polygon class="31094222" points="235.651528925,11104.499851 254.890048206,11059.229209 259.42080924,11061.1759197 263.476596487,11051.2587584 274.213025537,11046.7850665 276.861666615,11041.2021332 272.163176864,11030.9700444 276.902904762,11021.1942551 272.264386308,11019.1931207 300.269695244,10954.1932178 308.495328261,10934.6151296 240.67205075,10905.4103051 249.114037494,10885.8119392 235.445052489,10879.9296651 246.181600115,10855.0076382 269.920675847,10865.229703 258.418065861,10891.9414323 276.493607588,10899.7212458 281.12507047,10888.985126 321.746996329,10906.4795068 328.630560655,10890.5088224 355.630649933,10902.0925647 352.319146591,10909.6944288 357.054947511,10911.5224309 347.210554188,10935.3160474 352.734365722,10943.4998988 350.964574311,10950.8184545 311.045598221,11045.6004016 297.62971949,11076.7271894 235.651528925,11104.499851 "/>
  <polygon class="28374103" points="303.95709833,11261.697102 339.808022111,11260.8928441 339.254441711,11109.499851 252.911781044,11111.8639363 252.691977889,11276.7390924 281.97350106,11277.2898692 303.95709833,11261.697102 "/>
  <polygon class="130467711" points="336.525570745,11538.6985997 336.519816581,11373.02006 330.692028805,11372.5780061 331.323219525,11290.6104172 295.487007971,11282.2898692 295.308788757,11370.6152136 258.421717247,11370.3296084 255.974429255,11536.9474961 336.525570745,11538.6985997 "/>
  <polygon class="289283764" points="257.964852868,11544.9901909 321.209358726,11544.6109653 334.324236484,11543.6985997 334.535147132,11566.6388321 333.93785878,11730.3967913 325.660289076,11731.4382295 265.54701753,11738.0970227 258.105385754,11670.4251156 257.964852868,11544.9901909 "/>
  <polygon class="27474804" points="219.931177955,11755.8764054 252.49565659,11784.4512391 287.452604609,11743.0970227 379.264971588,11823.0948568 334.089279387,11875.0915626 340.870732728,11880.9982303 227.651046812,12011.0243183 213.346758027,11998.1620616 330.226634441,11863.7744491 213.235028412,11763.042282 219.931177955,11755.8764054 "/>
  <polygon class="191094662" points="231.112651447,12016.0243183 226.364465745,12025.6906 271.697888289,12048.3175315 270.686836505,12120.0434859 257.220187094,12120.7181488 257.631558018,12125.820457 226.360056026,12126.2037582 230.951118133,12163.5658661 240.416005366,12173.485027 358.438482621,12173.0846766 358.487019952,12118.1448729 358.459530339,12110.143461 357.86363402,12093.4584779 366.139943974,12080.4675491 325.376034362,12063.969389 325.972772068,12061.0937217 308.445205615,12054.0268713 231.112651447,12016.0243183 "/>
  <polygon class="27361814" points="302.539010308,12314.3424354 354.393648131,12316.7795813 362.944600416,12317.1812466 362.931595111,12288.6184365 365.37062925,12284.7521279 316.639718946,12233.1185893 312.091570655,12237.8964246 310.622614881,12236.1719357 308.17460133,12235.6249857 308.48435341,12231.1588519 298.08438834,12230.4058661 297.985898071,12235.3162242 286.400877653,12234.0831627 282.871257707,12229.9960026 285.226076826,12228.0772859 273.603724311,12215.4016545 273.014740698,12211.7225541 260.602345906,12196.9733818 253.679692297,12198.9762126 241.708390437,12186.4017801 234.32332971,12178.485027 227.303856268,12184.6020015 268.961811349,12228.0801368 274.300958015,12228.3913421 272.339898908,12244.8184138 265.105430924,12406.0993181 264.055414671,12421.1042719 240.470932162,12421.0713156 240.385920459,12425.0258784 236.322869625,12425.0847331 234.718966928,12425.6144982 232.990532515,12426.9929147 232.384314254,12428.5338418 231.998618384,12433.2815774 227.391833792,12433.1211577 227.12937075,12448.7637962 236.28378307,12447.8393805 295.249513205,12449.1070373 302.539010308,12314.3424354 "/>
  <polygon class="214715868" points="318.700760558,12800.6097341 319.323017655,12792.6348198 320.257966202,12775.5666628 282.899442318,12667.8670878 284.964110478,12561.3373409 335.544235339,12538.7570366 292.873918899,12454.1070373 257.22937903,12456.3293739 256.955764661,12476.6405511 257.292860766,12767.6489841 273.281687168,12803.6670615 318.700760558,12800.6097341 "/>
  <polygon class="288125137" points="267.727312078,12808.6670615 274.343961806,12808.9052874 273.824613916,12818.1438969 283.958896732,12828.8475345 280.711956134,12831.8453471 280.137684613,12835.6097693 280.171083006,12850.2423026 304.968548427,12850.320917 327.99063599,12877.8436313 328.174053205,13043.1091773 264.325946795,13042.5450799 265.429901957,12970.2614884 265.53286282,12960.6792696 265.626600471,12951.3347187 269.000079891,12951.3699429 269.987585641,12951.3794075 270.057921084,12945.1778056 270.834523587,12945.1846557 270.903330765,12939.3478657 265.753922128,12939.2913208 265.820907085,12932.6918694 266.075995727,12908.3079375 266.206800069,12895.9129422 266.529082014,12865.4561528 266.632490362,12855.5767976 266.793201306,12840.3079568 266.693658827,12840.3091528 266.747591494,12835.1969804 267.458159592,12835.20683 267.727312078,12808.6670615 "/>
  <polygon class="26515181" points="374.463521187,13224.8991316 335.73630538,13226.9332759 334.23207895,13194.8813213 236.998773461,13196.9559155 237.117161911,13220.9519112 219.455155049,13220.854736 218.036478813,13149.4840615 246.175958501,13150.7630412 247.887383242,13187.2397752 299.630007518,13185.7699998 299.699262183,13143.140891 308.732967286,13143.1314004 309.184132608,13102.9041279 297.524742951,13102.5485971 297.032220727,13060.3004778 253.359427053,13061.3051508 252.812302628,13051.0400533 268.226097781,13050.9761022 374.326014494,13048.1091773 374.390189611,13135.2391445 364.086906085,13135.6387148 365.960348224,13190.4988599 373.276739571,13190.5103567 374.463521187,13224.8991316 "/>
  <polygon class="128406007" points="339.787816196,13324.5055342 354.833549136,13324.4402024 355.486644228,13361.565348 331.029440084,13361.8801855 269.76076869,13362.2869563 257.101098819,13361.255888 257.313688004,13396.1202273 257.451617335,13417.8694638 257.501095653,13426.1737485 257.751761697,13464.8613264 247.411526563,13465.0344001 237.013355772,13465.2268891 237.037630917,13417.7234313 237.049919872,13397.3912694 237.074619729,13361.3638624 237.08471757,13340.6886923 237.109982513,13295.6740399 256.971556153,13295.5455968 272.328003112,13295.4355083 272.921536241,13231.9332759 338.969707455,13276.0265525 339.787816196,13324.5055342 "/>
  <polygon class="71222418" points="304.208683154,13470.6660893 301.540458512,13470.6448146 254.395950956,13470.2268891 254.09774913,13573.0807431 300.358469137,13619.1963998 338.40225087,13618.7997984 338.382887846,13500.1738758 333.283697065,13498.9031776 304.208683154,13470.6660893 "/>
  <polygon class="25155462" points="224.35146919,14065.5999512 254.49612881,14065.6877042 255.176852379,14036.2671811 313.693770308,13979.3943855 316.200342622,13973.8269265 317.44463662,13967.8341566 317.119481829,13825.5582627 368.49338827,13826.2180686 368.601780373,13778.0994211 363.264833104,13757.9965068 363.430298659,13699.5150081 359.398824382,13669.3398983 356.458681403,13666.1658908 350.585621032,13663.0204749 338.554677661,13660.8213823 327.744981548,13661.6127084 317.782444,13673.545564 276.274288377,13673.0499476 269.549260578,13661.8373665 270.324293752,13624.1963998 238.272702642,13624.2806836 229.02163116,13628.6767379 224.162273022,13632.8139657 223.898219627,13639.364045 224.35146919,14065.5999512 "/>
  <polygon class="29065589" points="352.155968486,14073.5741126 348.400684941,14230.0919503 352.043813356,14276.1597807 302.619287939,14281.7679374 287.174732314,14146.5236687 244.664974348,14151.5845081 240.344031514,14104.8001797 286.351160648,14101.9495138 284.296045629,14070.6877042 352.155968486,14073.5741126 "/>
  <polygon class="88508639" points="231.691074331,14411.0601892 239.179192055,14419.9150941 241.137128097,14418.2667762 258.463071507,14438.7348241 288.308610723,14467.9150909 315.10751336,14462.5344646 360.786773925,14444.9438797 335.93925627,14416.1614329 353.712400041,14395.4753583 346.667890401,14388.9421363 334.823347367,14378.2124069 322.873655554,14392.2152631 312.343697484,14380.4436006 317.119880466,14374.7607573 321.617454401,14369.3155967 304.837283776,14355.3724167 324.333955473,14332.5937672 346.660638149,14351.1442449 360.808925669,14334.2462885 336.560271273,14312.3914392 340.461676986,14306.1724918 323.979620365,14286.7679374 270.684465264,14333.1061323 294.653284572,14359.3165008 287.091015704,14366.6909622 284.184278355,14363.085676 255.96191347,14387.600274 259.586059521,14390.8628128 257.004688195,14391.7585073 254.558166026,14391.5270802 251.128367208,14394.7568869 231.691074331,14411.0601892 "/>
  <polygon class="26314008" points="259.19363285,14472.9150909 336.535205569,14552.5535424 338.034639143,14608.3417285 261.302424702,14737.4865438 255.813028763,14733.363488 254.506000134,14728.6288798 268.384215873,14701.6078948 268.56548091,14683.4345554 269.058295564,14646.1026764 265.223447983,14550.1771921 262.090733283,14519.4854265 254.465360857,14473.662256 259.19363285,14472.9150909 "/>
  <polygon class="396600147" points="342.695676012,14772.1050881 340.925468123,14772.1124104 340.923786366,14769.2451075 342.698431692,14769.2503851 342.651975369,14756.1877271 340.904601235,14756.1940895 340.898483346,14753.3141864 342.673130403,14753.3194634 342.890484967,14742.4865438 309.713923762,14742.5424881 309.72863381,14747.9473618 305.454499518,14747.9513029 303.671773596,14747.9559523 279.148972969,14747.9739459 279.163289262,14753.0815469 273.985294349,14753.0851326 273.987328651,14751.8735272 269.166611448,14751.8716763 269.164272359,14755.023644 255.471237413,14755.0304916 255.485849582,14763.593625 249.609515033,14763.5882109 249.615238125,14768.8687874 249.634931465,14796.8255997 249.670216134,14834.0391603 249.689952312,14853.9021203 249.72760767,14877.1719191 320.22264241,14877.0460024 320.202148006,14861.9843782 323.595211895,14861.9791372 339.661109549,14861.9651758 342.823613048,14861.9632344 342.761956984,14819.837511 340.989535731,14819.8385315 340.98785102,14816.9712297 342.758054026,14816.9639092 342.695676012,14772.1050881 "/>
  <polygon class="49941112" points="262.817210666,14882.1719191 250.958057871,14898.5729282 233.203343904,14920.914816 237.553473662,14924.3577161 284.590031408,14960.4326698 276.370691767,14971.1323682 243.503578136,15013.7409818 274.342093232,15037.4598106 272.778607186,15039.4821598 281.110113117,15045.6833474 288.964614307,15051.5668813 280.31332114,15062.5286029 233.394808638,15123.4060228 240.855156163,15128.765525 311.7548611,15036.6533959 327.676358281,15014.8007357 336.509063808,15003.0078839 359.296656096,14968.4886544 357.220154858,14961.5169224 339.510736084,14950.5965567 323.347939351,14939.0108376 305.522596865,14923.8864164 281.501867253,14902.9624248 262.817210666,14882.1719191 "/>
</svg>