<svg xmlns="http://www.w3.org/2000/svg" version="1.1" width="592.5px" height="5.4538681423838735px">
  <polygon id="212124821" class="tile" points="13.9755089626,0.0 13.9841480343,11.4807495268 1.00842842162,11.4939665213 1.0,0.00654114726931 13.9755089626,0.0 " moovel_rot="91.8" moovel_centroid="7.491392807643961,5.7453306796246855" moovel_centroidlatlon="-71.06772597446022,42.36205814303003"/>
  <polygon id="1821997247" class="tile" points="18.9841480343,3.71806401236 28.2793080652,3.71806401236 28.2793080652,0.0 18.9841480343,0.0 " moovel_rot="125.9" moovel_centroid="23.6317280497,1.85903200617956" moovel_centroidlatlon="-71.0660635,42.3619363"/>
  <polygon id="2272238361" class="tile" points="33.2793080652,2.35151015307 39.1580834478,2.35151015307 39.1580834478,0.0 33.2793080652,0.0 " moovel_rot="125.9" moovel_centroid="36.2186957565,1.1757550765359255" moovel_centroidlatlon="-71.0760521,42.3850056"/>
  <polygon id="4240000492" class="tile" points="44.1580834478,2.35151015307 50.0368588305,2.35151015307 50.0368588305,0.0 44.1580834478,0.0 " moovel_rot="125.9" moovel_centroid="47.0974711392,1.1757550765359255" moovel_centroidlatlon="-71.03036,42.3744986"/>
  <polygon id="4239973392" class="tile" points="55.0368588305,1.2 64.6368588305,1.2 64.6368588305,0.0 55.0368588305,0.0 " moovel_rot="125.9" moovel_centroid="59.8368588305,0.6" moovel_centroidlatlon="-71.0291754,42.3685106"/>
  <polygon id="1796105006" class="tile" points="69.6368588305,1.2 78.2768588305,1.2 78.2768588305,0.0 69.6368588305,0.0 " moovel_rot="125.9" moovel_centroid="73.9568588305,0.6" moovel_centroidlatlon="-71.0728575,42.3600735"/>
  <polygon id="1833577230" class="tile" points="83.2768588305,1.2 90.9568588305,1.2 90.9568588305,0.0 83.2768588305,0.0 " moovel_rot="125.9" moovel_centroid="87.1168588305,0.6" moovel_centroidlatlon="-71.0650846,42.3525405"/>
  <polygon id="2272238386" class="tile" points="95.9568588305,1.2 103.636858831,1.2 103.636858831,0.0 95.9568588305,0.0 " moovel_rot="125.9" moovel_centroid="99.7968588305,0.6" moovel_centroidlatlon="-71.0761225,42.3849283"/>
  <polygon id="3552622456" class="tile" points="108.636858831,1.2 116.316858831,1.2 116.316858831,0.0 108.636858831,0.0 " moovel_rot="125.9" moovel_centroid="112.476858831,0.6" moovel_centroidlatlon="-71.1307843,42.3626953"/>
  <polygon id="4239973391" class="tile" points="121.316858831,1.2 128.996858831,1.2 128.996858831,0.0 121.316858831,0.0 " moovel_rot="125.9" moovel_centroid="125.156858831,0.6" moovel_centroidlatlon="-71.0266596,42.3763383"/>
  <polygon id="366620831" class="tile" points="133.996858831,1.2 141.196858831,1.2 141.196858831,0.0 133.996858831,0.0 " moovel_rot="125.9" moovel_centroid="137.596858831,0.6" moovel_centroidlatlon="-71.0902416,42.3386683"/>
  <polygon id="1821997238" class="tile" points="146.196858831,1.2 153.396858831,1.2 153.396858831,0.0 146.196858831,0.0 " moovel_rot="125.9" moovel_centroid="149.796858831,0.6" moovel_centroidlatlon="-71.0654949,42.3618114"/>
  <polygon id="2992369425" class="tile" points="158.396858831,1.2 164.156858831,1.2 164.156858831,0.0 158.396858831,0.0 " moovel_rot="125.9" moovel_centroid="161.276858831,0.6" moovel_centroidlatlon="-71.0321946,42.3737355"/>
  <polygon id="4239816395" class="tile" points="169.156858831,1.2 174.916858831,1.2 174.916858831,0.0 169.156858831,0.0 " moovel_rot="125.9" moovel_centroid="172.036858831,0.6" moovel_centroidlatlon="-71.0333342,42.3728029"/>
  <polygon id="4240009889" class="tile" points="179.916858831,1.2 185.196858831,1.2 185.196858831,0.0 179.916858831,0.0 " moovel_rot="125.9" moovel_centroid="182.556858831,0.6" moovel_centroidlatlon="-71.0303259,42.3735655"/>
  <polygon id="366621185" class="tile" points="190.196858831,1.2 194.996858831,1.2 194.996858831,0.0 190.196858831,0.0 " moovel_rot="125.9" moovel_centroid="192.596858831,0.6" moovel_centroidlatlon="-71.0908081,42.3390362"/>
  <polygon id="1796105003" class="tile" points="199.996858831,1.2 204.796858831,1.2 204.796858831,0.0 199.996858831,0.0 " moovel_rot="125.9" moovel_centroid="202.396858831,0.6" moovel_centroidlatlon="-71.0746641,42.3560428"/>
  <polygon id="1833579737" class="tile" points="209.796858831,1.2 214.596858831,1.2 214.596858831,0.0 209.796858831,0.0 " moovel_rot="125.9" moovel_centroid="212.196858831,0.6" moovel_centroidlatlon="-71.0618337,42.3500379"/>
  <polygon id="4239973097" class="tile" points="219.596858831,1.2 224.396858831,1.2 224.396858831,0.0 219.596858831,0.0 " moovel_rot="125.9" moovel_centroid="221.996858831,0.6" moovel_centroidlatlon="-71.0226288,42.365441"/>
  <polygon id="4239700798" class="tile" points="229.396858831,1.2 233.236858831,1.2 233.236858831,0.0 229.396858831,0.0 " moovel_rot="125.9" moovel_centroid="231.316858831,0.6" moovel_centroidlatlon="-71.0209326,42.3699504"/>
  <polygon id="3181981215" class="tile" points="238.236858831,1.2 241.596858831,1.2 241.596858831,0.0 238.236858831,0.0 " moovel_rot="125.9" moovel_centroid="239.916858831,0.6" moovel_centroidlatlon="-71.1540756,42.2849564"/>
  <polygon id="424638432" class="tile" points="252.068660729,0.0 252.189328215,0.862422339991 246.854446642,0.859489430487 246.596858831,0.293735591881 252.068660729,0.0 " moovel_rot="125.9" moovel_centroid="249.61013741,0.49661916438874487" moovel_centroidlatlon="-71.02266419338773,42.36535892171257"/>
  <polygon id="1245538823" class="tile" points="257.189328215,1.2 260.069328215,1.2 260.069328215,0.0 257.189328215,0.0 " moovel_rot="125.9" moovel_centroid="258.629328215,0.6" moovel_centroidlatlon="-71.0611009,42.354952"/>
  <polygon id="1833601771" class="tile" points="265.069328215,1.2 267.949328215,1.2 267.949328215,0.0 265.069328215,0.0 " moovel_rot="125.9" moovel_centroid="266.509328215,0.6" moovel_centroidlatlon="-71.0597094,42.3015161"/>
  <polygon id="2103549639" class="tile" points="272.949328215,1.2 275.829328215,1.2 275.829328215,0.0 272.949328215,0.0 " moovel_rot="125.9" moovel_centroid="274.389328215,0.6" moovel_centroidlatlon="-71.060161,42.355206"/>
  <polygon id="3562474416" class="tile" points="280.829328215,1.2 283.709328215,1.2 283.709328215,0.0 280.829328215,0.0 " moovel_rot="125.9" moovel_centroid="282.269328215,0.6" moovel_centroidlatlon="-71.128931,42.3639569"/>
  <polygon id="3562474417" class="tile" points="288.709328215,1.2 291.589328215,1.2 291.589328215,0.0 288.709328215,0.0 " moovel_rot="125.9" moovel_centroid="290.149328215,0.6" moovel_centroidlatlon="-71.1290059,42.3639328"/>
  <polygon id="1367933204" class="tile" points="296.589328215,1.2 298.509328215,1.2 298.509328215,0.0 296.589328215,0.0 " moovel_rot="125.9" moovel_centroid="297.549328215,0.6" moovel_centroidlatlon="-71.0591036,42.357985"/>
  <polygon id="1833604712" class="tile" points="303.509328215,1.2 305.429328215,1.2 305.429328215,0.0 303.509328215,0.0 " moovel_rot="125.9" moovel_centroid="304.469328215,0.6" moovel_centroidlatlon="-71.0629173,42.291019"/>
  <polygon id="1833626283" class="tile" points="310.429328215,1.2 312.349328215,1.2 312.349328215,0.0 310.429328215,0.0 " moovel_rot="125.9" moovel_centroid="311.389328215,0.6" moovel_centroidlatlon="-71.0640635,42.2861194"/>
  <polygon id="1833626284" class="tile" points="317.349328215,1.2 319.269328215,1.2 319.269328215,0.0 317.349328215,0.0 " moovel_rot="125.9" moovel_centroid="318.309328215,0.6" moovel_centroidlatlon="-71.0644176,42.2861928"/>
  <polygon id="3552622433" class="tile" points="324.269328215,1.2 326.189328215,1.2 326.189328215,0.0 324.269328215,0.0 " moovel_rot="125.9" moovel_centroid="325.229328215,0.6" moovel_centroidlatlon="-71.136076,42.3629032"/>
  <polygon id="1833582884" class="tile" points="331.189328215,1.2 332.149328215,1.2 332.149328215,0.0 331.189328215,0.0 " moovel_rot="125.9" moovel_centroid="331.669328215,0.6" moovel_centroidlatlon="-71.0570567,42.329995"/>
  <polygon id="1833583433" class="tile" points="337.149328215,1.2 338.109328215,1.2 338.109328215,0.0 337.149328215,0.0 " moovel_rot="125.9" moovel_centroid="337.629328215,0.6" moovel_centroidlatlon="-71.0570433,42.3298582"/>
  <polygon id="1833587048" class="tile" points="343.109328215,1.2 344.069328215,1.2 344.069328215,0.0 343.109328215,0.0 " moovel_rot="125.9" moovel_centroid="343.589328215,0.6" moovel_centroidlatlon="-71.0570218,42.3288836"/>
  <polygon id="1833591949" class="tile" points="349.069328215,1.2 350.029328215,1.2 350.029328215,0.0 349.069328215,0.0 " moovel_rot="125.9" moovel_centroid="349.549328215,0.6" moovel_centroidlatlon="-71.057388,42.3126343"/>
  <polygon id="1833598370" class="tile" points="355.029328215,1.2 355.989328215,1.2 355.989328215,0.0 355.029328215,0.0 " moovel_rot="125.9" moovel_centroid="355.509328215,0.6" moovel_centroidlatlon="-71.0585842,42.3073294"/>
  <polygon id="1833598371" class="tile" points="360.989328215,1.2 361.949328215,1.2 361.949328215,0.0 360.989328215,0.0 " moovel_rot="125.9" moovel_centroid="361.469328215,0.6" moovel_centroidlatlon="-71.0584199,42.3072753"/>
  <polygon id="1833600136" class="tile" points="366.949328215,1.2 367.909328215,1.2 367.909328215,0.0 366.949328215,0.0 " moovel_rot="125.9" moovel_centroid="367.429328215,0.6" moovel_centroidlatlon="-71.0595914,42.302023"/>
  <polygon id="1833609059" class="tile" points="372.909328215,1.2 373.869328215,1.2 373.869328215,0.0 372.909328215,0.0 " moovel_rot="125.9" moovel_centroid="373.389328215,0.6" moovel_centroidlatlon="-71.0629509,42.2909019"/>
  <polygon id="1833609880" class="tile" points="378.869328215,1.2 379.829328215,1.2 379.829328215,0.0 378.869328215,0.0 " moovel_rot="125.9" moovel_centroid="379.349328215,0.6" moovel_centroidlatlon="-71.0627711,42.2909059"/>
  <polygon id="1833612974" class="tile" points="384.829328215,1.2 385.789328215,1.2 385.789328215,0.0 384.829328215,0.0 " moovel_rot="125.9" moovel_centroid="385.309328215,0.6" moovel_centroidlatlon="-71.0631891,42.2901235"/>
  <polygon id="1833616835" class="tile" points="390.789328215,1.2 391.749328215,1.2 391.749328215,0.0 390.789328215,0.0 " moovel_rot="125.9" moovel_centroid="391.269328215,0.6" moovel_centroidlatlon="-71.0634734,42.2890461"/>
  <polygon id="1833626282" class="tile" points="396.749328215,1.2 397.709328215,1.2 397.709328215,0.0 396.749328215,0.0 " moovel_rot="125.9" moovel_centroid="397.229328215,0.6" moovel_centroidlatlon="-71.0641467,42.2860043"/>
  <polygon id="2100737876" class="tile" points="402.709328215,1.2 403.669328215,1.2 403.669328215,0.0 402.709328215,0.0 " moovel_rot="125.9" moovel_centroid="403.189328215,0.6" moovel_centroidlatlon="-71.061446,42.354961"/>
</svg>