<svg xmlns="http://www.w3.org/2000/svg" version="1.1" width="792.5px" height="800px">
  <polygon class="bin" points="-214.655375423,400.014264039 -215.198002078,403.118221999 -216.200820306,405.083992169 -218.135597504,406.145375208 -222.038507436,406.949120061 -226.060396477,409.696982666 -227.30519151,411.549261702 -228.006785213,411.995233627 -236.764926986,423.197936695 -237.759325485,428.198041723 -233.771762824,432.581568398 -233.518029435,432.759872199 -231.539105419,435.056915861 -227.556653434,435.652070229 -226.950459269,435.524568466 -224.150789549,436.039838069 -222.51966796,438.372882361 -220.595712859,446.943249412 -219.185145734,448.979737031 -218.776246688,452.482833634 -221.455844182,454.776006438 -230.227103302,456.721513135 -230.359960757,456.748471611 -232.916260051,457.219237012 -233.42602324,457.333295092 -236.859207418,458.239706436 -240.327530801,460.849043299 -240.985001207,465.139222621 -236.291118938,484.761373528 -234.656817561,491.591164789 -232.080028919,495.147775101 -227.743878448,495.845711889 -210.905696092,491.858336504 -210.784717112,491.831789993 -200.743144223,489.801570149 -197.62558362,490.574673822 -196.2500005,493.477197634 -196.2500005,544.845710087 -196.967178584,547.051269251 -198.844395819,548.413213111 -211.860386265,552.629422427 -240.366768997,561.866639688 -244.134973713,563.087588663 -245.373849583,563.269259421 -248.854259398,563.192219739 -258.352955129,566.383097084 -258.492016288,566.431474819 -262.89022321,568.014556128 -266.189889664,571.084856596 -266.244734382,575.123665925 -267.506097636,577.878261568 -271.504905913,581.42491987 -271.576663869,586.037016956 -255.884747697,623.225593441 -252.956775002,626.233874198 -248.764891245,626.459457402 -201.175421213,610.751149465 -197.80288053,611.273231417 -196.2500005,614.312172653 -196.2500005,639.766388843 -197.040973179,642.070007153 -199.080217735,643.401839251 -286.234123112,665.452108417 -289.727974265,668.023395211 -290.432229526,672.303878383 -289.987611975,674.259296519 -290.4634161,677.076845797 -292.786093097,678.741221077 -302.962203549,681.133502419 -306.952141555,683.813013953 -307.583181755,684.698964871 -308.567272327,686.710253696 -311.540870209,696.632978233 -311.597842352,700.3580923 -300.487481453,742.026805656 -297.949214121,745.443271042 -293.75805851,746.184386033 -218.256587819,730.613443564 -215.291293745,731.749401682 -210.476672736,732.65972782 -200.698005468,730.807204688 -197.607827704,731.603763172 -196.2500005,734.491670601 -196.2500005,769.19866318 -197.967225337,772.34990502 -210.240199717,780.266846583 -211.203633073,781.017498552 -238.499777984,806.491573818 -241.058346529,807.5 -596.2499995,807.5 -598.901649929,806.401650429 -599.9999995,803.75 -599.9999995,3.75 -598.901649929,1.09834957055 -596.2499995,0.0 -257.803943183,0.0 -254.908530836,1.36691642171 -254.123938054,4.47115341808 -256.022150308,7.04965364125 -266.17222821,12.5306339042 -269.022263043,16.2648079743 -268.109316487,20.8727666461 -246.271756971,51.5039650479 -246.09444838,51.7416558021 -197.043244077,114.620662811 -196.2500005,116.927195155 -196.2500005,144.657351696 -197.096841784,147.030992248 -199.254890884,148.332581166 -201.749467762,147.974257528 -202.744380764,147.449501079 -206.883029321,146.727708931 -230.815963744,150.100995502 -235.972601783,153.885647163 -238.545778945,159.287668956 -238.329195653,165.52121916 -226.332822073,186.767981872 -225.977095187,187.63723661 -220.558619835,207.772218441 -220.458072168,208.28701878 -213.191740948,267.117075512 -211.930582335,270.308860827 -207.160568734,276.855124203 -203.689712254,279.347571963 -198.875836241,280.860230197 -196.976913008,282.218881867 -196.2500005,284.437764923 -196.2500005,286.849342449 -197.009266074,289.111643842 -198.979604549,290.4578452 -213.141577472,294.462503319 -217.332092325,297.876883913 -218.63400009,298.564766192 -229.019644307,301.646668711 -232.788338911,304.691015221 -235.084424612,307.429888686 -242.691559555,309.656397906 -246.142798864,312.461675134 -246.554564011,316.890115329 -245.330689627,320.776705255 -245.599219415,323.668691622 -247.852316777,325.501516128 -253.133035219,327.05004516 -256.590378051,329.872347082 -256.980152238,334.318320955 -249.699421677,356.897788392 -246.572956401,360.733721598 -239.000847662,365.019311506 -233.780237912,365.638596593 -201.032293853,356.261513251 -197.742634787,356.872168948 -196.2500005,359.866630508 -196.2500005,378.754168345 -197.475426398,381.527077576 -212.134629518,394.873437475 -213.780962889,398.951041758 -214.655375423,400.014264039 "/>
  <polygon class="229362587" points="1.0,807.668799222 3.82192231934,819.043888869 11.641915566,818.206382025 16.0020405866,835.506531306 54.9688467448,830.981490658 54.4070646401,827.937713955 57.5795609575,827.575210809 63.9399909419,827.443959672 66.9304657502,851.331682382 68.8841273592,851.400433069 64.5050363025,812.006332561 60.567722199,812.043832853 57.7040546825,801.0 1.0,807.668799222 "/>
  <polygon class="366323586" points="85.0935501363,801.0 86.0131562791,802.268597814 87.529848225,804.468334135 72.1598557677,811.030049195 69.8841273592,807.692948094 85.0935501363,801.0 "/>
  <polygon class="136587462" points="88.529848225,831.427175798 100.148378449,807.38532911 103.973515655,808.566177894 102.722429175,805.704650288 106.398426618,805.204820186 108.412071401,807.554021789 111.270355421,805.704650288 110.352424947,803.186756288 117.303886737,801.0 117.478175341,804.19266427 118.748682398,801.418607611 124.438325639,803.267978669 123.371934415,806.042035614 126.371123397,807.054191635 108.487524972,847.146862259 103.596866249,845.210016201 94.1296191502,867.40253585 90.1814713948,865.890544617 92.4622590804,860.848492132 88.8587670818,859.523938307 99.7862859942,835.550780608 88.529848225,831.427175798 "/>
  <polygon class="442490054" points="128.0972613,801.0 143.627470855,802.237152915 149.270074773,804.942644182 149.308651869,807.79184559 152.202805143,808.041775559 152.201927966,810.778508955 147.57722286,810.553571948 147.478428338,812.959148422 127.371123397,811.647015759 127.457587811,806.817118742 128.04631257,803.324347971 128.0972613,801.0 "/>
  <polygon class="422696650" points="156.496845024,801.0 159.076950717,802.936776663 157.509094389,804.161319437 155.441726977,805.773217704 153.202805143,803.86767907 156.496845024,801.0 "/>
  <polygon class="391525156" points="160.076950717,816.88764029 199.508680236,835.787825395 201.766899234,819.956419 200.020385669,819.106410994 161.657879518,801.0 160.076950717,816.88764029 "/>
  <polygon class="8036287" points="202.766899234,812.671202867 221.73359046,801.0 244.135471985,825.16089788 239.77927272,828.016222077 229.761478913,834.589092636 225.377533595,837.469410249 202.766899234,812.671202867 "/>
  <polygon class="241010315" points="245.135471985,825.580882154 245.832966339,829.661036929 246.629721599,830.360849174 255.837055633,838.46492689 256.633811999,839.164739478 261.465057537,839.939532018 270.452489658,832.89766879 289.248041526,818.164125395 289.929559457,817.633018246 289.361019102,813.896523697 292.622271025,811.334713504 286.613508582,806.048638016 280.874012325,801.0 277.612762326,803.561808716 273.599416116,803.268137942 272.633415051,804.024183987 254.019770022,818.614004403 245.135471985,825.580882154 "/>
  <polygon class="91234362" points="293.622271025,807.472955129 293.92762255,801.0 332.745458484,804.561374636 332.435153167,811.034331054 330.433254188,810.853138227 295.865270338,807.679140032 293.622271025,807.472955129 "/>
  <polygon class="209889917" points="338.991843229,804.887305812 333.745458484,827.854925587 341.126845723,829.192360674 344.811931044,831.929728126 358.703832488,819.2928435 367.729193591,826.305000937 380.588868109,836.285768055 387.188128915,831.423502606 349.461501465,802.131193406 347.213538127,804.043597888 346.403174038,803.418629079 343.303129078,801.0 339.538130685,804.224838846 342.546232812,805.681016265 342.2060341,805.956002572 338.991843229,804.887305812 "/>
  <polygon class="136915713" points="388.188128915,807.129771592 392.210847749,803.91804595 395.865291626,801.0 465.131221106,860.998119498 457.542233525,867.052929419 440.802714492,852.556380698 440.05229797,853.156237654 441.654683131,854.543406941 440.321893437,855.611902277 433.094623541,849.350895428 435.155068148,847.707537706 407.531694699,823.782015903 406.715840123,824.431859896 408.226627958,825.737796455 407.014226226,826.70006556 399.905611767,820.545293283 401.866826429,818.964423183 399.911252858,817.289825757 388.188128915,807.129771592 "/>
  <polygon class="91662512" points="466.131221106,837.66976261 469.904608802,836.988493118 487.937916036,803.425064667 484.962767674,801.0 466.131221106,837.66976261 "/>
  <polygon class="27501145" points="495.144585079,801.0 567.834519824,815.549583244 563.418816426,834.842798718 488.937916036,819.911960576 495.144585079,801.0 "/>
  <polygon class="28974891" points="568.834519824,837.142454327 588.062781233,852.166937035 598.283356186,836.786216744 616.173220601,820.680535485 587.996776263,801.0 568.834519824,837.142454327 "/>
  <polygon class="187935789" points="644.062664669,806.943740955 638.317149549,824.562475649 617.173220601,818.61872889 622.91876499,801.0 644.062664669,806.943740955 "/>
  <polygon class="33816960" points="645.062664669,840.252322588 685.589695179,839.540119881 699.113639515,824.546385285 700.38455332,817.767971904 693.825731794,815.987467434 692.143486279,801.349853202 680.729589505,801.0 680.217797836,826.689239084 673.230685445,825.952047369 668.544869632,825.814604849 660.259917898,823.640514224 647.442772497,823.121981154 645.062664669,840.252322588 "/>
  <polygon class="78883463" points="701.38455332,801.0 701.686330057,806.943203161 702.258763525,813.198879691 713.564675784,813.13638541 712.975312246,806.974450292 712.477299911,801.124988479 701.38455332,801.0 "/>
  <polygon class="300908741" points="718.718357786,801.0 717.896754793,803.205578152 715.006123844,810.95322027 714.564675784,812.134111178 720.30911028,815.258161574 722.090418049,812.690192108 724.498954155,813.896075534 726.027978647,811.927923871 723.38720677,810.684551979 728.98051646,804.786346796 718.718357786,801.0 "/>
  <polygon class="26257339" points="734.019899125,801.0 770.765543797,816.409784741 769.964049968,824.302149199 729.98051646,807.586337846 734.019899125,801.0 "/>
  <polygon class="371494372" points="772.567839912,801.0 792.458340888,802.742992803 791.660524921,822.440697501 771.765543797,820.703950066 772.567839912,801.0 "/>
  <polygon class="111427834" points="14.3563383135,869.59563876 11.1544212753,869.589390604 11.0869047936,868.795874706 8.70649432149,868.789626549 8.12397167506,868.789626549 8.00648273095,867.408784006 0.0,867.40253585 2.383998801,895.83166848 16.5548410451,895.844164813 14.3563383135,869.59563876 "/>
  <polygon class="99146127" points="23.8024790807,867.40253585 18.5548410451,877.900703803 34.8897049753,884.605786903 38.839760338,876.113515254 23.8024790807,867.40253585 "/>
  <polygon class="194350742" points="47.8886060547,868.296144274 63.2048380916,870.264582566 62.5538053541,878.863223478 60.4836876682,878.588266873 52.9841343073,877.594673723 48.5170168397,877.007266479 40.3467590993,875.738716856 39.839760338,867.40253585 47.8886060547,868.296144274 "/>
  <polygon class="276732439" points="93.2435828482,878.034004908 90.0505657602,886.634186693 64.2048380916,878.859022169 68.4514715418,867.40253585 71.9610651025,868.60881039 71.1854699217,870.452598055 93.2435828482,878.034004908 "/>
  <polygon class="26509471" points="98.200775117,886.306853393 123.02044972,908.228639959 159.209143559,936.460242325 163.583583655,939.896266904 168.877355614,942.788775383 173.555410238,943.888303566 178.466359899,943.632163472 182.600249364,941.03327882 184.906536425,938.01582428 186.468473419,932.630637527 186.563670477,926.914344781 186.064468907,921.991462441 182.378561025,917.056086839 122.455980094,869.189261635 118.045389094,867.664922142 111.422813245,867.40253585 101.089063779,870.026398952 97.4584249738,871.638200763 95.2072886149,874.368268503 94.2435828482,878.129140537 95.1979878162,882.027453914 98.200775117,886.306853393 "/>
  <polygon class="295019513" points="187.564490354,882.8246162 187.563670477,891.822918795 210.336223397,892.704002834 210.338770062,889.967018516 213.523829641,888.94221171 211.577243908,894.953579298 209.153871926,896.034625865 208.774998062,894.322448094 187.71063661,892.853974589 187.818668738,898.959075866 187.863492854,901.608577987 206.265225634,902.683376128 206.518211753,900.140103885 208.854501624,900.090113279 213.389964033,898.427925723 215.778017753,894.809856348 217.287982343,884.343079447 217.325302025,874.363716345 217.175029003,871.233059433 218.323451314,869.620865069 219.21581505,868.396097353 212.179960153,867.40253585 213.515208714,869.470893507 213.500538089,884.486802313 210.697366324,885.905284566 210.5483146,884.143117202 191.138495994,882.924597315 187.564490354,882.8246162 "/>
  <polygon class="26728934" points="228.795316566,867.40253585 241.174550743,869.489797131 240.003421315,877.470136661 220.21581505,874.239254843 228.795316566,867.40253585 "/>
  <polygon class="348422953" points="242.174550743,877.508190431 244.939474354,867.40253585 275.973578715,887.007635897 257.668224748,881.864185526 242.174550743,877.508190431 "/>
  <polygon class="202400410" points="276.973578715,868.102426864 279.483941132,867.40253585 281.348800637,868.427376272 287.439525252,876.938553262 290.518993315,880.950431037 294.307157775,885.449734281 297.878830287,889.686579199 299.894444971,891.842496244 301.98995076,893.942172224 305.945381947,897.654100002 309.897634104,901.328534316 308.44318759,902.440863219 295.023601089,889.374127475 276.973578715,868.102426864 "/>
  <polygon class="31251201" points="344.430292658,883.576397986 326.463465573,867.40253585 310.897634104,879.595426707 316.202078745,884.320096014 314.924049497,885.570008736 324.658809277,894.756869907 329.307722917,896.294263458 344.430292658,883.576397986 "/>
  <polygon class="124322456" points="345.430292658,884.821470746 350.340792253,885.077631681 353.010907198,885.21508389 354.398209756,867.97733544 353.091431282,867.889865936 346.050479621,867.40253585 345.430292658,884.821470746 "/>
  <polygon class="306854491" points="355.398209756,871.507104661 361.216653175,890.080758886 390.929440968,885.557606868 385.634644046,867.40253585 355.398209756,871.507104661 "/>
  <polygon class="352867079" points="392.399281781,867.40253585 391.929440968,877.466829351 398.592599873,878.085305673 399.066875112,868.014764591 394.887941843,867.633683433 392.399281781,867.40253585 "/>
  <polygon class="29131494" points="404.221550546,887.076033229 431.276990316,873.483319117 415.366640888,867.40253585 410.602409769,876.701822911 400.066875112,873.483319117 404.221550546,887.076033229 "/>
  <polygon class="352603818" points="436.468895438,867.40253585 433.357599442,871.706890897 432.276990316,873.506099121 455.181222003,886.931446762 459.052408305,879.172356758 440.969679506,869.570331368 436.468895438,867.40253585 "/>
  <polygon class="112382961" points="460.052408305,872.313493279 483.888266545,898.830187462 486.080427898,901.473111773 494.125509609,896.393449082 493.185982722,895.418753822 492.251613467,894.387826202 492.583765827,894.137904363 467.738640198,867.871138601 467.285414532,867.40253585 460.052408305,872.313493279 "/>
  <polygon class="30995230" points="540.06033112,879.770259991 555.444469216,884.013659975 552.893424701,894.68778394 546.891053855,917.685917971 538.902800116,910.049034337 531.674887837,916.579757047 495.125509609,888.844512719 522.424135076,867.40253585 540.06033112,879.770259991 "/>
  <polygon class="105078373" points="564.712805045,874.745734394 565.10345527,868.21497469 557.692506517,867.40253585 556.444469216,884.988720173 564.17711407,885.601174664 564.712805045,874.745734394 "/>
  <polygon class="101579314" points="674.808638885,964.804172994 675.219365861,963.317025725 675.767179364,961.33624573 646.523962496,935.229960752 603.443469762,897.00163021 569.988433097,867.40253585 568.372342008,868.652232745 566.10345527,870.595511591 567.437093216,872.276354234 573.836645061,877.943731892 599.172774057,900.400811579 634.808825901,931.980736941 663.167773558,957.237219054 671.168872573,964.223060812 674.808638885,964.804172994 "/>
  <polygon class="60561402" points="729.422622356,897.144983609 732.64530153,891.059024948 709.789805704,881.580179688 710.749822232,879.768139965 680.949896532,867.40253585 676.767179364,875.300525569 683.78848529,878.212285314 694.542591244,882.673652023 711.848315125,889.853080612 729.422622356,897.144983609 "/>
  <polygon class="406738501" points="0.421081637079,964.804172994 0.0,971.382795252 91.429006374,979.685732218 93.664642372,972.732256528 0.421081637079,964.804172994 "/>
  <polygon class="31570132" points="117.374203367,970.526772583 109.825646657,980.435120752 95.664642372,972.363502534 107.700193994,964.804172994 117.374203367,970.526772583 "/>
  <polygon class="203348088" points="118.374203367,965.310337804 120.373040005,964.804172994 183.313075548,1001.61676452 180.008264891,1002.75407546 118.374203367,965.310337804 "/>
  <polygon class="353903313" points="184.313075548,964.804172994 187.391248965,994.514867425 201.44468405,994.958404239 203.276901022,992.172243587 211.159971667,975.111704349 184.313075548,964.804172994 "/>
  <polygon class="295621923" points="212.159971667,970.228627682 233.305430972,964.804172994 234.706897621,967.960105534 213.560894801,973.3783118 212.159971667,970.228627682 "/>
  <polygon class="64770639" points="248.910150967,964.804172994 245.363120283,965.322879847 240.896937128,966.454035809 235.733835088,968.585108835 235.706897621,980.621614008 242.443254468,981.234063603 248.623777158,982.221482383 248.910150967,964.804172994 "/>
  <polygon class="291596699" points="250.560869955,970.933941698 249.910150967,966.878671444 260.947308342,966.62248337 303.110988951,964.804172994 303.452110644,968.790709385 250.560869955,970.933941698 "/>
  <polygon class="237842884" points="387.605841791,977.749941159 385.124594974,976.85648292 386.085465519,974.069893175 359.253219518,964.804172994 358.287900826,967.597009253 352.269656298,965.922557036 330.588642291,978.643399443 331.4547349,980.092926263 323.224070098,984.666434071 313.587254396,974.176108471 304.452110644,979.75553639 312.45694564,991.476714257 316.695428284,989.464869749 322.970016209,994.825623629 356.607563835,976.85648292 381.332916328,984.891360714 382.49324469,981.992306413 385.497551682,982.773301599 387.605841791,977.749941159 "/>
  <polygon class="183199790" points="396.394949112,964.804172994 407.647920693,967.466224626 423.786246734,971.877982425 446.661089431,977.789489615 454.793408819,979.889137458 442.456078618,997.83613736 438.106053195,1004.16633346 427.50417744,1001.37304823 388.605841791,991.112259252 390.395825624,984.019695387 396.394949112,964.804172994 "/>
  <polygon class="196169735" points="455.793408819,982.603382282 469.88012213,965.628846391 472.694392509,967.334421039 474.797309369,964.804172994 488.799678555,973.282067239 487.229556876,975.175068492 487.631803115,976.674475568 490.847092217,976.437069439 499.124058645,1012.32916342 502.188577505,1012.01678631 503.424382442,1017.37717825 489.082800578,1019.00153976 488.512432963,1016.52751229 483.373662353,993.848943099 484.429726345,993.973893815 481.782243332,983.059452111 476.915247066,988.769697254 470.154994498,989.057083819 467.178040496,993.180456786 457.066879428,986.776734026 458.722491251,984.777523488 455.793408819,982.603382282 "/>
  <polygon class="224640966" points="508.138559542,964.804172994 504.424382442,983.543652234 521.646325965,986.974122545 522.489326881,982.425156592 525.204656512,968.334616903 508.138559542,964.804172994 "/>
  <polygon class="161904581" points="537.843864887,966.591434628 528.47885727,964.804172994 526.204656512,978.996035128 564.943622527,993.187908464 564.656815395,988.626010486 535.77458937,978.439858903 537.843864887,966.591434628 "/>
  <polygon class="107021832" points="573.793313745,964.804172994 574.006151834,965.022858971 579.137736319,970.371293988 581.454596587,972.783088805 584.492654251,975.944664887 576.74413307,981.061920636 565.943622527,969.902681043 573.793313745,964.804172994 "/>
  <polygon class="157683342" points="585.492654251,1030.29515559 589.564908467,1032.63836377 620.067607369,993.784887443 647.498168244,971.883761054 636.800883309,964.804172994 585.492654251,1030.29515559 "/>
  <polygon class="354179334" points="650.62046241,964.804172994 648.498168244,973.13955447 672.951468965,979.231758525 675.153413477,970.896374216 650.62046241,964.804172994 "/>
  <polygon class="252795419" points="676.153413477,971.353228739 694.726420825,964.804172994 699.897519478,974.090334805 685.260039639,979.714526659 681.116274299,979.770768586 676.153413477,971.353228739 "/>
  <polygon class="334157909" points="727.866780829,968.503871705 727.011932936,977.38440161 707.128554518,974.334648412 707.571184768,970.278727437 700.897519478,969.347553105 701.433248793,964.804172994 727.866780829,968.503871705 "/>
  <polygon class="86273629" points="61.4767931916,1035.16922507 78.7618414936,1032.63836377 80.9906497105,1040.98708288 57.3968669184,1043.8241485 54.4988224437,1044.18034399 56.9252972772,1053.27270504 50.6594094399,1054.14132259 8.5930703009,1059.48425881 5.26314016725,1059.9154432 4.36631395617,1060.02792609 3.2649411818,1057.2658465 2.20719348988,1054.37253734 0.0,1048.85462937 18.27462348,1047.06740247 18.8544689277,1048.96711219 44.2312353937,1045.95507252 43.5704343998,1043.63042814 59.9722963373,1041.43076492 60.1372760948,1039.68103301 62.669230182,1038.47496789 61.4767931916,1035.16922507 "/>
  <polygon class="252130280" points="102.447303583,1032.63836377 120.136457985,1039.41165607 99.9617875118,1079.97648235 82.9906497105,1072.05346224 102.447303583,1032.63836377 "/>
  <polygon class="347000589" points="140.188482255,1032.63836377 149.776725916,1052.46242706 144.317777446,1053.81236407 139.029974357,1055.12480292 133.615895044,1056.29974826 130.71914811,1057.90592366 121.136457985,1038.08810409 126.772292942,1036.47568075 140.188482255,1032.63836377 "/>
  <polygon class="34148788" points="168.848818443,1032.63836377 213.751685613,1054.50743941 221.03740859,1058.88125774 219.484864669,1061.27436165 210.409585817,1074.30834835 202.464733218,1085.71778073 150.776725916,1059.09994869 168.848818443,1032.63836377 "/>
  <polygon class="28091997" points="223.519759072,1064.20515082 244.985368809,1069.19760699 252.814938423,1038.37436726 239.483685853,1034.81279625 230.349462594,1032.63836377 222.03740859,1062.01821801 223.519759072,1064.20515082 "/>
  <polygon class="356696427" points="265.216719536,1036.9750143 267.784777593,1036.72506323 267.128577659,1033.83187988 259.454819322,1034.58798175 256.748123392,1032.63836377 253.814938423,1032.86956846 259.97993729,1037.46241889 265.216719536,1036.9750143 "/>
  <polygon class="25851762" points="268.784777593,1033.70678045 268.812849161,1035.26879324 269.875893482,1042.62899938 298.591165686,1041.72927962 296.147903953,1039.39875573 292.975025738,1032.63836377 268.784777593,1033.70678045 "/>
  <polygon class="71175453" points="302.219067697,1032.63836377 301.183139747,1039.25667219 299.591165686,1049.46849561 320.219852272,1053.18700068 329.71479138,1054.89938815 331.574195649,1044.96254343 332.86564813,1038.06925123 323.282129416,1036.36936453 302.219067697,1032.63836377 "/>
  <polygon class="185549107" points="333.86564813,1040.62982935 365.507493954,1032.63836377 366.4738061,1035.03767753 373.862200123,1033.28192967 377.745757056,1034.62529546 383.926420514,1048.19641967 349.075327573,1057.03140201 342.077667998,1048.65253959 337.179339264,1049.71473669 333.86564813,1040.62982935 "/>
  <polygon class="169561667" points="390.909636116,1032.63836377 412.425657115,1036.88191755 407.636940574,1063.55570705 384.926420514,1058.85591747 390.909636116,1032.63836377 "/>
  <polygon class="236572187" points="420.311025576,1032.63836377 413.425657115,1049.25130535 451.695093538,1065.76429717 455.55896522,1057.17354091 424.445494252,1043.99689079 427.996272203,1035.41239281 420.311025576,1032.63836377 "/>
  <polygon class="406738499" points="456.55896522,1033.63171261 462.676132688,1032.63836377 470.748493718,1058.56541135 464.272905489,1059.55876163 456.55896522,1033.63171261 "/>
  <polygon class="236143005" points="473.902398134,1032.63836377 533.122711761,1046.04054349 534.71708761,1046.40293357 532.563228985,1055.20026742 471.748493718,1041.43569086 472.890976526,1036.75586221 473.902398134,1032.63836377 "/>
  <polygon class="375270706" points="535.71708761,1035.47463976 545.0577267,1054.8787779 556.140720233,1051.54896133 547.40795484,1033.54422279 544.771751255,1032.63836377 535.71708761,1035.47463976 "/>
  <polygon class="51342852" points="581.387813771,1041.14978788 590.622872653,1058.16014974 586.702175288,1057.3852468 587.874508403,1060.10365648 583.688877261,1061.30975561 581.373344922,1056.86031256 579.362641563,1057.40399445 578.289858265,1051.28601186 577.624777863,1049.55497937 569.353010881,1051.37975008 567.349617972,1045.68046682 574.944245157,1043.79945377 575.587018558,1045.26801876 576.390266611,1044.87431834 576.54587132,1044.06816991 573.504505018,1037.70022344 572.545161098,1037.01905952 571.420923115,1036.80033717 569.836554335,1036.96906584 569.040261453,1038.20640948 559.437944883,1039.78745982 557.140720233,1036.72534665 559.701789294,1036.09417645 560.124243047,1033.85695949 568.16362983,1032.63836377 568.375372264,1033.78196898 569.12839485,1034.43813593 572.183504444,1034.46313277 574.547451429,1035.26303157 576.403639478,1037.23778188 578.773353137,1041.8559488 581.387813771,1041.14978788 "/>
  <polygon class="97825239" points="605.957558148,1119.67316576 591.622872653,1111.06963489 611.783605608,1082.89106966 651.244241914,1032.63836377 668.504062532,1043.07252086 605.957558148,1119.67316576 "/>
  <polygon class="325386145" points="670.460389225,1032.63836377 681.438956549,1033.7008043 680.191779335,1046.61883619 669.504062532,1045.0501729 670.460389225,1032.63836377 "/>
  <polygon class="179016927" points="686.380478406,1089.31524155 688.571146222,1086.89667448 686.777441334,1084.83433072 686.871352874,1081.77206316 689.205779961,1077.75986848 693.87805601,1077.99735039 720.592860195,1042.38134947 716.21171011,1041.99387977 718.116434212,1039.66906171 715.565045546,1035.83811218 713.435780371,1032.63836377 687.021237428,1068.62306713 689.089252893,1072.2165418 683.184816456,1079.88470667 682.438956549,1083.54067885 683.70981156,1086.89667448 686.380478406,1089.31524155 "/>
  <polygon class="273136508" points="735.910284039,1049.17810806 724.873126664,1049.43429614 721.592860195,1033.0945031 730.939839979,1032.63836377 731.094153446,1034.32545448 733.052763763,1034.11300601 734.018930763,1041.85487977 734.955745009,1041.80489187 735.910284039,1049.17810806 "/>
  <polygon class="155120099" points="736.910284039,1060.1801895 743.195842262,1064.80382138 749.079970517,1065.08498822 776.686179375,1086.94728576 775.905265347,1091.90207711 778.193253988,1093.97021867 790.47316153,1083.57952799 760.362116335,1059.26795956 778.230866483,1042.39171418 766.198952148,1032.63836377 736.910284039,1060.1801895 "/>
  <polygon class="339318870" points="20.5724125335,1122.98586648 0.029544088617,1121.96705468 0.0,1119.67316576 20.5428636637,1120.69197742 20.5724125335,1122.98586648 "/>
  <polygon class="294394637" points="32.5590689136,1119.67316576 30.465169726,1121.11047106 29.2953312939,1121.76038306 22.5724125335,1126.44724916 23.7631022078,1127.62209045 26.4329072742,1130.25923448 26.6358909093,1130.12800218 30.1528058332,1127.79706682 29.4603916198,1127.03466979 32.7643602727,1124.83496708 34.0905363787,1126.19728293 35.2168091933,1125.50362669 36.0250280419,1126.22227956 37.8124217639,1124.92870441 34.0835393915,1121.14171683 32.5590689136,1119.67316576 "/>
  <polygon class="183406847" points="67.8906302042,1175.37021937 83.7607489843,1163.10347996 70.7542030554,1151.91782065 78.262104172,1146.11877767 65.4245435709,1134.8706393 67.3340703403,1133.14592538 63.2000053082,1130.04643989 65.9748662469,1125.9158764 65.2466001098,1123.16008495 57.9470300388,1119.67316576 53.5970046152,1126.00336185 42.9951288604,1123.21007663 38.8124217639,1137.62643255 67.9284875549,1162.27861546 59.5872752889,1168.75880198 64.2602433369,1172.57067749 67.8906302042,1175.37021937 "/>
  <polygon class="305394301" points="145.271941286,1133.84700706 143.083906947,1141.97759742 84.7607489843,1127.80374972 86.9488228959,1119.67316576 145.271941286,1133.84700706 "/>
  <polygon class="118742569" points="146.271941286,1123.01069374 158.568582999,1121.7981835 159.090032397,1123.66069926 194.600262323,1119.67316576 197.22184174,1129.15449685 148.673469885,1134.71704675 146.271941286,1123.01069374 "/>
  <polygon class="27711432" points="200.813778644,1119.67316576 198.22184174,1127.33552842 218.931254411,1134.09790993 234.445630883,1139.16657277 240.580422071,1132.27919155 234.038408646,1130.21047774 200.813778644,1119.67316576 "/>
  <polygon class="27055387" points="241.580422071,1127.12943209 291.561343681,1119.67316576 293.092799931,1123.81067444 296.583907501,1135.0794529 267.522483019,1145.72948627 247.486569134,1151.84200826 241.580422071,1127.12943209 "/>
  <polygon class="316508208" points="312.437709378,1119.67316576 359.111420383,1126.49153492 350.153202697,1150.80894769 351.456978267,1150.85269531 347.719883802,1162.74580329 360.665935583,1164.50820881 356.696004575,1173.01400529 297.583907501,1164.48945982 302.414915782,1151.92763696 312.437709378,1119.67316576 "/>
  <polygon class="132527252" points="374.412764364,1119.67316576 385.760763077,1128.16578336 372.54899012,1140.66412415 361.665935583,1132.48395912 365.733929367,1128.27201922 371.749279169,1122.3103137 374.412764364,1119.67316576 "/>
  <polygon class="131110933" points="403.313289638,1119.67316576 411.057934535,1126.3336537 414.11948774,1124.00310745 429.824963105,1139.26725368 403.889356905,1158.03661056 386.760763077,1143.07235806 396.123543044,1136.47434507 389.991491624,1130.56362716 403.313289638,1119.67316576 "/>
  <polygon class="361046144" points="430.824963105,1127.5914381 451.830621567,1119.67316576 455.415431476,1125.58530879 434.409760322,1133.50358373 430.824963105,1127.5914381 "/>
  <polygon class="130041616" points="462.765912706,1119.67316576 465.661426043,1120.17302202 467.278453021,1120.51042501 468.694912216,1120.77284956 468.617492338,1121.26645765 473.052687484,1122.07247595 473.396426824,1120.6728783 475.584429492,1120.99153668 474.517606689,1126.7586296 472.366932337,1126.52744599 471.156244337,1141.17949413 473.637326365,1142.54160412 472.167275654,1150.29563588 472.371113848,1154.90681833 474.367658396,1154.90681833 474.715624902,1160.09908617 472.367079616,1186.92895141 471.164118319,1203.07437641 468.744903313,1205.41746368 466.881376882,1202.83069536 465.464932234,1202.39331911 463.865595368,1194.02693832 463.999299487,1192.90850534 466.641837039,1193.12719334 466.953935404,1189.25329188 462.556870596,1188.95337697 461.585818264,1188.83466065 459.64424622,1188.60347624 456.415431476,1182.32400894 460.883621948,1129.13294792 462.765912706,1119.67316576 "/>
  <polygon class="31537649" points="489.2440368,1127.09014271 488.732978756,1121.55396586 492.545031535,1121.52897184 492.381365852,1119.7231538 495.944982421,1119.70440828 501.449480407,1119.67316576 502.137702477,1127.11513674 498.086638667,1127.14013077 498.913716349,1136.03800778 477.18946831,1136.162978 476.584429492,1129.63953398 480.824709787,1129.61453995 480.594180563,1127.14013077 489.2440368,1127.09014271 "/>
  <polygon class="146825403" points="506.837295924,1119.67316576 527.896910764,1135.87728234 524.171651743,1139.43931533 503.137702477,1122.66027138 506.837295924,1119.67316576 "/>
  <polygon class="350006930" points="597.43619776,1156.50258862 629.795872301,1166.47710673 631.045557322,1166.64584863 632.154706635,1166.80209113 637.2711955,1153.17775048 585.538707976,1136.80980623 549.254823161,1125.32288058 531.125870641,1119.67316576 529.692450881,1123.84170518 528.896910764,1126.31658061 534.971200976,1128.21648521 534.517384478,1128.85395325 563.838386852,1137.71601123 562.204906188,1142.28453507 583.780608513,1148.80921408 585.390142857,1145.24688904 588.82518375,1145.80936137 596.100576028,1148.00925331 593.452309933,1155.4026421 597.43619776,1156.50258862 "/>
  <polygon class="329133646" points="645.224850986,1119.67316576 645.768602503,1121.02893625 647.431911555,1126.46451482 653.035541687,1126.03341715 654.582190067,1131.79388255 653.168281072,1134.53666444 649.170334464,1134.82406303 640.453619285,1133.89314155 638.2711955,1120.38541384 645.224850986,1119.67316576 "/>
  <polygon class="126547952" points="707.302755502,1170.4420931 705.094938681,1171.82942917 698.082855129,1176.51637614 692.828501699,1180.02846253 688.677443982,1175.72896896 686.315276669,1173.25426092 691.613675378,1169.96714925 691.807792916,1167.91739171 683.343220417,1158.93095743 682.141998843,1159.68086832 678.419363205,1155.67509466 680.986354945,1154.11902993 673.00358654,1145.99499942 664.903389805,1136.78360311 655.582190067,1126.0411462 657.550456796,1124.47258555 655.885895692,1122.7040492 660.503828126,1119.67316576 664.604569228,1124.43509008 674.876693684,1136.40239888 683.628169299,1146.5949277 686.403366958,1149.6508127 688.434068349,1151.80055624 698.013292071,1161.71187716 700.390840846,1163.89911769 702.209613855,1165.72390143 707.302755502,1170.4420931 "/>
  <polygon class="30416158" points="712.507886789,1139.4972468 728.048457914,1144.48451905 735.785827728,1142.44711193 739.451952817,1131.92884507 735.267824457,1124.46669155 720.685135973,1119.67316576 712.765265184,1122.55428085 708.302755502,1133.78500936 712.507886789,1139.4972468 "/>
  <polygon class="29253546" points="114.190683197,1210.26747595 32.5186822135,1219.75500372 9.13716890537,1221.4175091 0.0,1216.5549938 54.5031030149,1211.63622965 106.100671406,1205.41746368 114.190683197,1210.26747595 "/>
  <polygon class="129882365" points="143.025429296,1316.74343154 137.704265862,1359.76841791 116.190683197,1356.68226036 131.635409457,1205.41746368 141.223164241,1206.76686519 140.857299276,1210.62765342 143.929550487,1211.39606282 141.441037131,1222.77852148 144.299292115,1223.14086111 143.340230671,1231.46218033 140.763546181,1231.07485157 132.036690764,1315.19410915 143.025429296,1316.74343154 "/>
  <polygon class="27212307" points="145.299292115,1208.94237878 146.174765193,1205.41746368 179.380564467,1213.02353135 202.669606908,1218.36090532 201.794682965,1221.89207281 185.298226084,1218.11091119 145.299292115,1208.94237878 "/>
  <polygon class="140560350" points="209.718791798,1205.41746368 203.669606908,1220.05044061 234.30422461,1235.21451601 236.539313943,1232.77151824 243.111906062,1236.6703179 247.516914886,1231.54689544 241.237404258,1227.29195668 242.308325713,1225.7299383 226.758259577,1220.36909225 226.413341882,1219.48186614 223.963285655,1218.48842286 222.955162904,1219.15696644 221.796165664,1218.588392 220.529338642,1217.80738317 219.288256008,1216.92015718 218.381691378,1215.69553547 217.731466873,1214.78956538 211.819076414,1212.7839352 214.136404127,1206.65458083 209.718791798,1205.41746368 "/>
  <polygon class="356757356" points="252.888266768,1205.41746368 248.516914886,1227.07995194 272.405266367,1231.3674527 276.027134048,1208.2174607 269.439119888,1207.60496132 252.888266768,1205.41746368 "/>
  <polygon class="385099847" points="277.027134048,1210.66635124 289.840405376,1220.05186593 300.623328938,1210.11021904 293.568418112,1205.64241597 286.070063323,1205.41746368 280.590489682,1206.98588111 277.027134048,1210.66635124 "/>
  <polygon class="320770705" points="303.822810816,1229.92105743 301.623328938,1227.84003172 332.180509202,1205.41746368 341.718937265,1213.89779062 310.747709292,1237.01404476 306.732882072,1233.32694087 307.167845938,1232.99572649 303.822810816,1229.92105743 "/>
  <polygon class="191536308" points="344.420798023,1205.41746368 342.718937265,1230.90292658 374.407325965,1234.70262595 375.975148545,1215.47290562 370.232118427,1210.4483087 364.649464913,1207.6547834 344.420798023,1205.41746368 "/>
  <polygon class="61569875" points="376.975148545,1208.11129844 394.60213744,1205.41746368 393.55344079,1208.33005534 396.675778902,1235.91219661 383.088473344,1235.77469206 383.031434492,1212.79894688 377.214002115,1212.58018993 376.975148545,1208.11129844 "/>
  <polygon class="198918903" points="400.950437097,1205.41746368 409.074932998,1206.53612267 408.282685396,1214.59171932 404.512768504,1214.24799713 403.995852521,1219.1663499 407.290222185,1220.06627737 406.540773006,1230.43419494 414.815945848,1231.68409499 414.162416269,1238.27106969 406.485968294,1237.38364032 405.757111483,1242.97069637 397.675778902,1242.18325883 400.950437097,1205.41746368 "/>
  <polygon class="295464167" points="420.895774822,1205.41746368 415.815945848,1221.17145958 424.424213968,1221.84636332 429.420852365,1207.87336138 420.895774822,1205.41746368 "/>
  <polygon class="153918421" points="430.420852365,1205.41746368 432.93099823,1210.00434819 474.777456998,1216.6097139 471.542734682,1211.64162878 430.420852365,1205.41746368 "/>
  <polygon class="236107570" points="475.777456998,1230.67325858 484.887668228,1217.34554249 493.037287483,1205.41746368 498.89967498,1208.57912235 490.71708228,1220.23852456 481.43844282,1233.46002091 475.777456998,1230.67325858 "/>
  <polygon class="85797883" points="499.89967498,1205.41746368 500.485100274,1244.90449032 548.189265369,1247.08537152 548.036403759,1208.17949058 499.89967498,1205.41746368 "/>
  <polygon class="55072303" points="558.912842264,1205.41746368 549.189265369,1239.4982916 575.777775278,1246.24697807 585.49629802,1212.16613734 558.912842264,1205.41746368 "/>
  <polygon class="387844332" points="599.300053456,1205.41746368 590.588668399,1215.68551667 588.202600716,1214.34185755 587.382536788,1215.70426541 586.49629802,1217.16666661 590.338946477,1219.23527707 588.501884317,1221.22889282 636.021114948,1248.70831473 647.872208006,1233.32808274 644.109399452,1230.15329452 643.577517737,1231.04073526 599.300053456,1205.41746368 "/>
  <polygon class="186642992" points="649.227703638,1235.92821309 648.872208006,1240.66350607 690.716179512,1245.31134104 693.518565077,1207.99125953 670.332987727,1205.41746368 667.890446458,1237.99599918 649.227703638,1235.92821309 "/>
  <polygon class="374963219" points="707.368488296,1205.41746368 711.781409034,1258.65238512 699.058391571,1258.71486018 694.518565077,1205.79856043 707.368488296,1205.41746368 "/>
  <polygon class="234971680" points="712.781409034,1232.4791949 729.393324972,1244.04762865 754.996809504,1216.65463952 737.610976912,1205.41746368 712.781409034,1232.4791949 "/>
  <polygon class="308235700" points="765.665274032,1207.3987898 757.857490976,1205.79872831 755.996809504,1205.41746368 758.771416757,1256.269486 767.727609855,1256.48824501 765.964462771,1221.21807672 765.665274032,1207.3987898 "/>
  <polygon class="431076583" points="768.727609855,1210.89157272 772.772574661,1218.37785696 790.795065762,1212.01014087 787.78559727,1208.72317545 784.754610775,1205.41746368 768.727609855,1210.89157272 "/>
  <polygon class="124190577" points="15.3524419476,1359.76841791 24.8053953057,1364.11075232 10.2678936431,1391.76426205 0.0,1387.84678304 15.3524419476,1359.76841791 "/>
  <polygon class="361365171" points="27.700471964,1380.08786541 34.9504158999,1377.40734657 33.8003609717,1374.83929743 64.4134536054,1364.23594514 64.3648024793,1365.24191995 67.2358266545,1364.4608836 66.598106698,1363.22997038 69.7912594017,1361.55542867 69.2405521533,1359.76841791 26.8053953057,1369.59073098 27.700471964,1380.08786541 "/>
  <polygon class="181659487" points="70.7912594017,1369.44566504 73.0299931472,1373.80011559 104.131443572,1364.42898947 101.831692073,1359.76841791 70.7912594017,1369.44566504 "/>
  <polygon class="202880391" points="105.255797444,1359.76841791 105.131443572,1361.82435388 170.741122709,1366.4736446 170.797147741,1364.78640186 105.255797444,1359.76841791 "/>
  <polygon class="74272525" points="171.797147741,1397.24756773 240.813257205,1439.92565462 252.751118456,1425.89748748 254.082277458,1426.79104078 252.890614028,1428.34694839 255.058519867,1429.53418722 266.144691152,1416.43707271 263.915073093,1415.16860269 262.935030343,1416.28710581 261.712892352,1415.56226579 262.531626623,1414.18756928 263.194554742,1412.21300538 262.847799394,1407.39532033 262.037809538,1403.85860295 260.524470198,1400.54058781 257.819587421,1396.62270631 253.817738852,1393.26095221 248.461829507,1390.13664599 241.917391774,1385.98131957 240.066566192,1384.25045456 236.824999441,1381.21987904 234.008081059,1377.03956025 232.54189225,1374.21518996 231.86605458,1372.54056354 231.135618726,1370.80969983 229.85265044,1369.54748163 228.091303525,1368.57269932 226.457666619,1368.33525236 224.83061538,1368.29151213 223.063433336,1368.47272165 221.536701699,1369.07883628 220.11490159,1369.92239792 219.4409265,1371.18461614 217.866495102,1370.41603771 219.391611474,1369.26629442 220.337499992,1367.92284448 220.394868777,1365.32967394 218.995028246,1362.87397303 217.222823304,1361.48053475 214.979897803,1360.75569695 212.438041476,1360.61197911 210.193906557,1361.15560746 208.445966995,1362.61153174 203.741515669,1359.76841791 171.797147741,1397.24756773 "/>
  <polygon class="236023299" points="268.001859546,1401.4315788 275.76209559,1403.26855903 285.818587327,1362.52388192 270.954425924,1359.76841791 267.144691152,1392.99646792 268.343108419,1398.55739242 268.001859546,1401.4315788 "/>
  <polygon class="188272872" points="287.293094215,1359.76841791 288.68623585,1360.04339839 320.230087128,1366.30545498 321.613268708,1366.58043556 321.378814244,1367.63036144 323.135500618,1372.35502868 287.965498186,1365.62425311 286.818587327,1363.14942818 287.293094215,1359.76841791 "/>
  <polygon class="217545522" points="340.92708222,1397.21341489 349.157502237,1394.99458884 344.076899276,1384.24422421 332.342083724,1359.76841791 324.135500618,1362.1497449 336.254963295,1387.45683251 340.92708222,1397.21341489 "/>
  <polygon class="26728920" points="352.573721054,1359.76841791 367.111828728,1359.76841791 378.663244589,1362.43061246 377.366164482,1371.39208714 350.157502237,1371.56706716 352.573721054,1359.76841791 "/>
  <polygon class="250706108" points="389.370449932,1359.76841791 392.911534912,1360.86846857 404.51678473,1365.11241465 402.985914217,1369.25635707 401.34723086,1374.30034256 397.305677756,1384.30706393 394.964715257,1391.1698904 379.663244589,1386.16965227 389.370449932,1359.76841791 "/>
  <polygon class="111082311" points="424.511426347,1359.76841791 416.683510739,1371.34948854 405.51678473,1384.72429063 413.274752147,1388.53673604 425.799951959,1391.12419944 444.573917854,1364.51834344 424.511426347,1359.76841791 "/>
  <polygon class="312999303" points="454.384002115,1359.76841791 464.283194886,1362.52488462 455.473661374,1389.80830225 445.573917854,1387.04558088 454.384002115,1359.76841791 "/>
  <polygon class="375317765" points="465.283194886,1359.76841791 477.895651295,1360.04330673 479.170200601,1383.42761368 466.557713633,1383.15272451 465.283194886,1359.76841791 "/>
  <polygon class="28801358" points="485.910713531,1359.76841791 480.170200601,1364.49864992 522.230565795,1399.72235867 528.226619485,1394.66093804 485.910713531,1359.76841791 "/>
  <polygon class="227829991" points="540.255784308,1362.50486344 536.805777265,1369.7520728 529.226619485,1366.24092445 532.87752306,1359.76841791 540.255784308,1362.50486344 "/>
  <polygon class="188272875" points="544.425947445,1360.06839677 542.946001262,1359.76841791 542.508319641,1362.11825241 541.255784308,1362.14950021 542.517194033,1365.91173587 569.245829786,1371.01762838 567.809765113,1367.66161319 568.266949459,1364.95555298 566.649858822,1364.62432624 544.425947445,1360.06839677 "/>
  <polygon class="152238214" points="570.245829786,1397.16430343 571.493551133,1392.43902932 574.501412546,1393.42033615 584.227800392,1359.76841791 634.479601679,1372.46288417 624.217128272,1407.13363581 620.376333056,1410.07130846 616.863926478,1410.07130846 610.873832388,1408.05869012 570.245829786,1397.16430343 "/>
  <polygon class="109003930" points="746.591395593,1408.14210366 723.470658025,1385.47980914 720.521591635,1387.56046526 701.821604821,1369.49687922 700.582004347,1368.21599609 696.773764696,1364.49206321 699.33572398,1362.71757197 699.225990605,1361.89905671 695.622118282,1360.39323865 691.167408896,1359.76841791 687.56127584,1360.39323865 681.854629657,1363.29865535 677.765413472,1366.2540582 676.716303649,1367.02883619 673.547758335,1366.77265959 670.94575215,1367.02883619 666.760100476,1367.39748057 635.479601679,1389.6348734 642.511716199,1396.07053874 644.207028675,1395.45821321 647.220838087,1393.20260604 648.914024328,1393.0901381 649.043455359,1391.86548724 652.180311094,1389.53490192 647.876679828,1385.54853952 658.257577836,1378.02568876 661.140860699,1375.93253733 664.190396745,1373.57071302 665.289491759,1373.6144505 666.088799012,1374.34549133 673.956182374,1374.12055568 686.768851044,1365.22310366 688.048429521,1365.22310366 694.26758439,1371.58378169 694.420004814,1372.90215434 695.654774142,1372.90215434 701.600440917,1378.80046727 701.737042625,1380.40001009 703.404091706,1380.50622974 709.605118547,1386.65447383 709.577576672,1387.49798309 711.910246885,1389.50990905 714.724351646,1387.42300449 724.195001936,1396.17675848 722.471615284,1397.4513954 724.144920124,1398.73852884 725.846966787,1397.38891319 729.930127352,1400.95039915 728.22808035,1402.30001507 740.070550689,1413.11569074 746.591395593,1408.14210366 "/>
  <polygon class="352776124" points="763.433507042,1363.48545076 758.236285048,1415.48650925 747.591395593,1413.88099616 748.007673899,1410.03276305 753.263640432,1361.4988684 753.453554289,1359.76841791 760.658225816,1360.66800226 760.420180075,1363.22931906 763.433507042,1363.48545076 "/>
  <polygon class="231600070" points="3.49267570283,1439.92565462 0.515012375079,1446.50722289 0.0,1452.81378011 0.277465665154,1454.49511239 0.544635080919,1456.11394176 6.05331535293,1458.08903879 16.062312871,1458.38280324 25.092571101,1458.53281062 31.9165795762,1458.45780693 41.3200276041,1458.89532846 52.1818865309,1459.08283769 53.7843504022,1453.32005487 44.2002858584,1451.51996691 34.7787682101,1448.526071 26.8996284528,1445.33216589 16.7365289992,1442.75704124 3.49267570283,1439.92565462 "/>
  <polygon class="354367653" points="85.2363631485,1451.09659154 84.220052106,1453.2395629 55.7843504022,1442.41849732 56.9648670853,1439.92565462 85.2055104342,1450.67799366 85.4060772648,1450.75296641 85.2363631485,1451.09659154 "/>
  <polygon class="241733367" points="92.1570526344,1439.92565462 86.4060772648,1449.71652903 88.6751611968,1454.80253738 89.918386324,1455.36487254 114.533733439,1466.49286426 116.315693301,1467.29887853 123.952141178,1454.30268392 121.869601801,1453.35921054 93.8041901381,1440.66918605 92.1570526344,1439.92565462 "/>
  <polygon class="99660220" points="124.952141178,1444.63792998 159.987300126,1456.74360853 162.408411651,1449.83143382 126.618808932,1439.92565462 124.952141178,1444.63792998 "/>
  <polygon class="156487386" points="171.470680957,1449.21162204 175.081215349,1445.31851398 167.019481624,1439.92565462 163.408411651,1443.81251254 171.470680957,1449.21162204 "/>
  <polygon class="356859411" points="185.193815792,1439.92565462 204.2602949,1444.50714622 205.031842954,1446.31974212 209.135266584,1446.06347855 211.973307474,1458.84540984 212.839066854,1471.45859099 211.542335421,1482.95296939 208.20759872,1482.52169568 207.694594151,1483.81551684 176.081215349,1476.04009058 185.193815792,1439.92565462 "/>
  <polygon class="106189665" points="251.910239174,1469.58577945 249.532702166,1467.28019815 249.019337016,1467.62384846 239.652697372,1458.33279604 236.334537755,1455.04000322 221.632483947,1440.46299792 219.95568813,1439.95064733 217.942096366,1439.92565462 216.298177236,1440.20682262 215.048816175,1441.14404934 214.273158939,1442.03129068 213.839066854,1443.7120508 214.058979895,1445.53027103 214.611423266,1446.81114794 215.996053603,1447.86709043 217.62519052,1448.57938304 219.060335594,1449.06049297 219.88124476,1451.85343011 216.909911732,1452.56572288 219.773840946,1458.99510358 221.917599797,1458.97011084 223.903480345,1465.08708451 222.432038012,1465.40574203 225.279774038,1472.40371255 228.410795897,1471.5789516 229.227300365,1472.80359667 227.891846242,1474.7155427 227.795782197,1476.3900577 228.196010352,1477.87087892 228.977841994,1479.0392907 229.857839683,1479.7828255 230.957091877,1480.29517723 232.350102492,1480.6325796 234.202241092,1480.80752898 235.61429321,1480.5513531 236.882678992,1479.89529295 251.910239174,1469.58577945 "/>
  <polygon class="31347870" points="270.942488661,1444.56112606 263.103095338,1462.75942387 270.151170037,1465.25833336 264.233998135,1470.96834285 252.910239174,1468.46943256 263.283428353,1439.92565462 270.942488661,1444.56112606 "/>
  <polygon class="124398517" points="276.848029705,1439.92565462 271.942488661,1497.89671927 274.037147993,1498.17164178 279.145594318,1440.06936364 276.848029705,1439.92565462 "/>
  <polygon class="103523046" points="281.398655945,1439.92565462 280.145594318,1443.64418741 303.582833201,1453.27487844 296.221171493,1483.58565276 289.247460361,1499.99723969 315.363811003,1505.69067642 337.519855061,1455.57474571 327.543759899,1452.06869816 306.922148738,1446.38152801 301.589564797,1445.1753482 296.104438594,1443.75668085 295.239109242,1444.30039916 281.398655945,1439.92565462 "/>
  <polygon class="317583665" points="349.752718528,1445.94299838 338.519855061,1443.14365233 339.420998384,1439.92565462 350.64887946,1442.72500017 349.752718528,1445.94299838 "/>
  <polygon class="156546282" points="359.994492793,1439.92565462 351.64887946,1445.41326767 384.861254539,1476.06392982 393.005480694,1469.90754265 359.994492793,1439.92565462 "/>
  <polygon class="32496936" points="395.880275333,1439.92565462 400.705961192,1440.82526935 443.973196268,1464.90247507 443.880389684,1468.3510033 439.544203235,1473.63000162 403.344637294,1453.20747125 404.121572464,1452.28286657 404.632988126,1449.24666506 394.005480694,1443.37417802 395.880275333,1439.92565462 "/>
  <polygon class="345835295" points="457.771277249,1439.92565462 465.246944802,1443.79366573 452.216817455,1462.51510127 451.061240081,1461.92771281 444.973196268,1458.91578504 452.871965726,1447.18051945 457.771277249,1439.92565462 "/>
  <polygon class="352867077" points="466.741395352,1439.92565462 473.560419293,1440.56287025 473.065975606,1450.74582904 466.246944802,1450.10861304 466.741395352,1439.92565462 "/>
  <polygon class="28975037" points="488.124032808,1439.92565462 510.734130454,1448.08777012 497.176074527,1478.42387344 474.560419293,1470.25549449 488.124032808,1439.92565462 "/>
  <polygon class="348060977" points="513.948894182,1439.92565462 512.214458098,1445.81903009 511.734130454,1447.60641689 516.737299625,1448.74384494 517.639019833,1445.41280585 518.80582472,1441.1005798 513.948894182,1439.92565462 "/>
  <polygon class="402409403" points="554.604563225,1485.7810715 557.308928612,1479.62744263 539.499513777,1439.92565462 530.611077333,1442.15594941 519.80582472,1473.4925579 532.095026288,1478.02812421 554.604563225,1485.7810715 "/>
  <polygon class="405322928" points="558.308928612,1474.74938404 568.53896132,1476.20505989 569.571206675,1440.89402077 559.616980352,1439.92565462 558.308928612,1474.74938404 "/>
  <polygon class="247981394" points="669.688752502,1470.51047272 628.686269738,1456.4520718 628.021021749,1458.38900639 627.725508995,1459.2387584 572.515653401,1439.92565462 570.571206675,1444.767987 606.911363276,1457.52675806 637.477349549,1468.61727409 666.370877977,1478.55188301 669.688752502,1470.51047272 "/>
  <polygon class="33531611" points="687.845126878,1441.77488105 672.290743014,1439.92565462 670.688752502,1454.92563537 678.112837546,1453.90731058 686.900485037,1453.00143888 687.845126878,1441.77488105 "/>
  <polygon class="31516116" points="698.893879545,1439.92565462 692.088307458,1458.18061003 696.460799167,1459.5425479 688.845126878,1479.96538105 737.172562799,1495.01544343 749.351346932,1462.3601353 737.487071789,1458.66790889 739.728857917,1452.63914829 698.893879545,1439.92565462 "/>
  <polygon class="173848721" points="750.351346932,1442.20692102 763.87927846,1442.65067424 763.777811063,1439.92565462 771.605781148,1440.18190644 771.933492085,1448.925721 764.275421088,1448.67571909 764.619433999,1457.78829075 750.926556878,1457.33828711 750.351346932,1442.20692102 "/>
  <polygon class="236023300" points="14.8352114857,1505.69067642 22.1638312584,1507.1402529 13.9877427947,1539.49333081 5.50890318914,1573.02112829 0.0,1572.06515407 0.355149005307,1569.93451889 3.90693613356,1548.51571367 12.6276879969,1514.32565526 14.8352114857,1505.69067642 "/>
  <polygon class="107251989" points="24.1638312584,1514.80683261 37.2865763308,1505.69067642 45.0573425428,1513.13855694 46.562768668,1514.15076913 37.3672954529,1520.45522781 33.120476747,1523.37314948 24.1638312584,1514.80683261 "/>
  <polygon class="357501728" points="47.562768668,1507.0781309 75.6095068612,1505.69067642 76.8077198692,1513.43417371 48.7609585742,1514.82162878 47.562768668,1507.0781309 "/>
  <polygon class="352776112" points="80.6799634,1505.69067642 78.9696188736,1508.72675738 77.8077198692,1510.78829413 78.0988810035,1511.51295558 80.0311520154,1512.33757038 78.4891573214,1514.6677321 92.3767632662,1521.46455945 94.003689023,1519.42800981 99.4073756936,1521.67071327 103.221766796,1523.25747298 106.502089926,1518.79705429 80.6799634,1505.69067642 "/>
  <polygon class="388190303" points="115.055104455,1524.4208394 129.820088687,1518.19202718 131.517660058,1517.0862102 131.732206957,1516.56766327 131.987458493,1515.94290796 131.585747224,1514.5621988 125.023496293,1505.69067642 107.502089926,1513.10027157 110.684380406,1517.83591662 114.597619944,1523.7273607 115.055104455,1524.4208394 "/>
  <polygon class="119059882" points="139.332714965,1505.69067642 132.987458493,1508.61530773 137.085748456,1514.3458367 143.236045179,1511.47119816 139.332714965,1505.69067642 "/>
  <polygon class="282445422" points="149.639947416,1505.69067642 149.207187213,1510.05161987 155.291939685,1512.50699395 154.173003564,1515.01859831 147.884141828,1512.56322389 144.88374338,1514.96236836 144.236045179,1515.53716343 189.692008068,1533.65571335 190.819882693,1531.3065486 196.029196407,1532.1437509 201.855956245,1534.49291575 203.327315058,1531.56270751 197.638124481,1529.07609193 193.391286655,1526.28333565 194.818013277,1523.87794189 149.639947416,1505.69067642 "/>
  <polygon class="107252044" points="204.327315058,1508.38990093 208.199460377,1505.69067642 210.971297068,1507.89004451 213.569027803,1506.35923431 216.137976553,1508.68981479 218.357156476,1510.71423348 215.720305777,1512.37000819 218.289434422,1514.8193054 214.342780754,1517.46229741 213.839379995,1517.80594889 204.327315058,1508.38990093 "/>
  <polygon class="32496775" points="240.091261523,1511.14461081 229.748426172,1505.69067642 221.72229106,1510.71979112 219.357156476,1514.08086484 232.201215876,1521.19034999 240.091261523,1511.14461081 "/>
  <polygon class="141973392" points="258.791899114,1514.33758207 260.156591308,1511.61355643 274.217429167,1517.16157239 270.15054968,1525.30241424 256.089704849,1519.75439575 257.254135979,1517.42397859 255.409312929,1516.69298989 254.245416678,1519.02965473 241.091261523,1513.83776082 243.130839345,1509.75172263 245.157620282,1505.69067642 258.311768908,1510.88256797 256.947611553,1513.61284126 258.791899114,1514.33758207 "/>
  <polygon class="104516883" points="275.217429167,1529.08578236 292.474295095,1538.85249827 296.225590513,1540.97080779 296.893384645,1540.10223837 326.312302466,1558.11100292 338.971460974,1537.07161877 312.099316466,1521.01246778 314.126326852,1517.57568636 293.118178456,1505.69067642 275.217429167,1529.08578236 "/>
  <polygon class="175908094" points="351.045225107,1505.69067642 357.333260287,1531.39980091 349.598052067,1532.21219485 344.404900147,1532.75587388 339.971460974,1506.83427549 342.79486341,1506.6530494 351.045225107,1505.69067642 "/>
  <polygon class="124191942" points="373.45393048,1540.5009328 373.501551113,1533.57761669 374.056572336,1533.54637429 374.282531772,1532.98401119 374.197287441,1531.51561872 374.00924302,1531.00324351 373.48287915,1530.90326786 373.470744216,1523.97995545 376.071348011,1524.05493716 375.955861947,1517.26284534 370.546626803,1516.95042167 370.622122109,1517.36906939 358.877537824,1516.56926481 358.702499189,1514.16360282 358.633685422,1513.23882895 358.333260287,1509.12733488 358.611484386,1508.65245112 364.10857624,1508.00885869 382.967552991,1505.81564581 384.241565371,1505.69067642 390.246151334,1525.09218416 390.762245531,1526.76677583 392.596837126,1532.69658116 393.220810215,1534.70234295 395.701232647,1542.71914385 396.98684995,1546.88063349 399.074870876,1553.62274865 373.718620933,1553.42904558 369.288210998,1553.73522139 364.862247854,1554.03514873 364.104670028,1554.08513662 358.997415152,1554.45379731 358.87156984,1549.7611847 358.489037756,1549.82991803 358.431887125,1548.39901509 358.36610214,1546.5744578 358.933211762,1546.56820931 358.894701593,1546.17455485 360.113569132,1546.16205789 360.201009782,1547.30553039 365.008674643,1547.51173036 365.018809455,1546.63694263 370.674400324,1546.74316685 370.752710354,1547.31177887 376.096887882,1547.56171823 375.970765826,1540.64464787 373.45393048,1540.5009328 "/>
  <polygon class="150184880" points="400.074870876,1512.64696214 406.556510882,1505.69067642 453.01071039,1536.99710828 446.789121459,1543.49715284 400.074870876,1512.64696214 "/>
  <polygon class="109003900" points="467.887948071,1529.55889192 461.575991429,1534.06386496 454.01071039,1526.16610437 483.709045945,1505.69067642 490.847906203,1512.32628707 493.14333378,1510.87045138 499.840498148,1517.40609236 497.36511798,1518.91191438 504.061754194,1525.44131006 505.484287263,1524.66652997 508.400588143,1527.56570726 509.325354771,1532.03943865 499.515765857,1538.90624362 491.691837221,1544.30471634 470.244086881,1559.30673068 456.897076947,1546.14794525 457.4943638,1545.67932771 456.669978336,1544.82956794 455.982338562,1544.12351758 465.136880832,1537.28170353 476.757942878,1548.47853664 482.880882605,1543.91732588 476.022261057,1537.3566823 478.231633026,1535.82586581 479.857819953,1537.31919292 482.77347531,1535.1385605 481.561080642,1534.00138266 483.133691754,1533.00166594 489.745853649,1539.2998822 502.073855516,1530.43989211 481.338656141,1510.58303319 468.886731331,1519.44926168 474.581310273,1524.62279239 467.887948071,1529.55889192 "/>
  <polygon class="237830219" points="510.325354771,1519.30538744 518.671462089,1525.54728917 538.931257708,1510.67044791 529.189593822,1505.69067642 510.325354771,1519.30538744 "/>
  <polygon class="375966760" points="540.331628411,1505.69067642 539.931257708,1514.30573341 559.863786082,1516.12995195 560.264139793,1507.51489409 540.331628411,1505.69067642 "/>
  <polygon class="211291687" points="571.114317891,1505.69067642 580.867941052,1509.72808192 578.478208817,1513.89673529 574.38450493,1514.25922694 575.190654265,1517.75914663 572.216331355,1522.60903646 571.261779211,1522.22154522 570.131612322,1524.15900153 564.157832788,1522.85903082 561.264139793,1521.57780978 571.114317891,1505.69067642 "/>
  <polygon class="366323588" points="597.527420905,1505.69067642 601.313981534,1511.62747078 585.649511825,1517.88922864 581.867941052,1511.95243222 597.527420905,1505.69067642 "/>
  <polygon class="31568880" points="602.313981534,1529.94920058 603.220668808,1521.70267309 604.8960197,1505.69067642 611.240595965,1506.54031771 614.057258326,1507.3462275 673.79661947,1539.40772241 602.313981534,1529.94920058 "/>
  <polygon class="31255508" points="725.497430393,1521.94009154 696.200521302,1507.4468625 692.005797491,1505.69067642 682.170746513,1516.28404346 674.79661947,1524.19626149 678.711833867,1528.22111939 707.148297222,1554.68895729 723.149406568,1531.42725684 721.14961696,1530.5835364 725.497430393,1521.94009154 "/>
  <polygon class="28801344" points="734.186745842,1505.69067642 726.497430393,1512.61420694 773.208391221,1549.69388242 780.95486629,1543.43894695 734.186745842,1505.69067642 "/>
  <polygon class="108831586" points="90.2506411304,1595.20865409 69.3373729023,1573.02112829 60.7472365541,1579.01319465 59.956845314,1578.44460432 58.2970803251,1583.67438634 72.8108174718,1598.37651766 72.80790932,1600.32597245 70.8111227838,1601.60686433 63.2634389823,1593.85278366 61.6612376046,1595.08993732 58.7324343299,1603.41885788 38.6537214041,1596.90193021 24.1098049943,1587.15466028 14.0712255178,1580.3753122 5.25424161628,1574.60818217 0.0,1579.72549464 62.5886752388,1623.40078509 64.4114086316,1621.36385215 70.861532796,1625.65015916 79.4347603843,1632.41077957 86.8894459439,1635.51616707 87.4673851769,1634.87884404 72.2402106488,1619.40189856 69.7677373666,1621.00145307 62.4371576153,1613.51603907 81.5722999562,1600.92580473 90.2506411304,1595.20865409 "/>
  <polygon class="426492370" points="144.186219815,1573.02112829 149.320808029,1578.83718518 97.7836122749,1670.32632105 92.2506411304,1663.23581815 144.186219815,1573.02112829 "/>
  <polygon class="190810920" points="151.631812641,1573.02112829 150.320808029,1581.41093568 245.952340717,1595.91038129 246.480607402,1589.18853429 234.448735043,1587.48308467 234.675416385,1585.07796368 151.631812641,1573.02112829 "/>
  <polygon class="223902806" points="247.480607402,1573.98363547 248.808987895,1573.02112829 279.932904745,1584.01496334 281.560149689,1587.11498853 283.871499877,1588.4087492 276.636943987,1603.94013454 274.267118979,1603.0151261 271.367140683,1604.71514164 249.791293684,1596.11506468 247.480607402,1573.98363547 "/>
  <polygon class="355251293" points="299.959353945,1576.30258814 296.858217256,1584.9781458 284.871499877,1581.39666508 287.734011493,1573.02112829 299.959353945,1576.30258814 "/>
  <polygon class="229362588" points="300.959353945,1574.62738479 308.194613174,1598.6399989 314.213765075,1597.71499392 314.89863637,1599.9775062 319.300011573,1599.3025025 311.384304967,1573.02112829 300.959353945,1574.62738479 "/>
  <polygon class="181659488" points="320.300011573,1576.36974488 322.710501862,1581.16151636 334.042921011,1577.81914629 331.761311949,1573.02112829 320.300011573,1576.36974488 "/>
  <polygon class="202880390" points="335.293685298,1573.02112829 373.817752405,1576.22063904 373.626849429,1578.02036409 335.042921011,1574.99582627 335.293685298,1573.02112829 "/>
  <polygon class="306854494" points="374.817752405,1574.095684 381.659592347,1573.02112829 391.806726692,1605.9700343 384.964862185,1607.04459199 374.817752405,1574.095684 "/>
  <polygon class="317985928" points="426.98693431,1573.02112829 430.535220581,1576.16480821 431.928186478,1577.55852731 398.857926184,1603.81421542 392.806726692,1599.46430587 426.98693431,1573.02112829 "/>
  <polygon class="27445721" points="483.184215424,1606.70173161 472.710486352,1614.1988139 457.833261434,1617.09143898 455.199208891,1602.3784156 432.928186478,1577.60058704 441.529207464,1573.02112829 456.021329963,1589.73334701 461.980657359,1593.25697194 483.184215424,1606.70173161 "/>
  <polygon class="321643536" points="484.246956897,1573.02112829 501.595337374,1573.64602064 518.999252938,1577.39537518 519.683513775,1579.18256779 516.657942525,1578.73889408 514.037930125,1580.61357178 506.495992076,1581.05724554 496.962729262,1579.45127158 488.422071328,1579.45127158 486.550114221,1574.98953926 484.184215424,1574.80832046 484.246956897,1573.02112829 "/>
  <polygon class="250151084" points="585.018062524,1585.77745295 577.25331858,1610.09012022 520.683513775,1595.75876766 528.424861965,1573.22737943 547.17321985,1573.02112829 570.291775308,1579.77116668 585.018062524,1585.77745295 "/>
  <polygon class="173032941" points="587.692225157,1601.28246698 588.710170966,1600.02029703 592.057892376,1595.88387927 593.220290084,1594.44675551 593.634366011,1594.6904417 602.54734235,1583.04349491 605.056496738,1584.56184645 607.223821982,1581.94378358 604.451501814,1580.37544539 605.745004122,1578.7821139 615.796285155,1584.61808169 625.161590838,1573.02112829 630.002168609,1575.78290208 611.91343065,1600.20149964 601.619913419,1610.95494069 596.668936289,1612.86694193 593.958431659,1613.07938652 591.302263052,1612.46704623 589.403770375,1611.45481028 587.17555096,1609.49282224 586.018062524,1606.36238954 586.683491604,1603.70683329 588.452460027,1601.73234936 587.692225157,1601.28246698 "/>
  <polygon class="116453231" points="631.002168609,1574.97706025 631.129896004,1573.02112829 655.253036466,1575.53946884 655.125313683,1577.49540108 631.002168609,1574.97706025 "/>
  <polygon class="151520446" points="656.253036466,1575.57676897 658.160405165,1580.40061985 658.458474441,1581.15668985 669.988841833,1578.60729689 667.782867635,1573.02112829 656.253036466,1575.57676897 "/>
  <polygon class="209563067" points="701.892210581,1601.98725518 670.988841833,1581.55160095 678.71351733,1573.02112829 710.429511508,1593.11305385 701.892210581,1601.98725518 "/>
  <polygon class="98436772" points="711.429511508,1573.02112829 713.322012485,1580.3384341 721.424063729,1579.05118794 719.986041441,1573.91470177 711.429511508,1573.02112829 "/>
  <polygon class="313682586" points="753.057031648,1586.80551931 740.507099084,1600.9210966 737.519322697,1604.30783703 722.424063729,1583.54375402 731.968946701,1573.02112829 737.873572058,1576.86401049 739.438589865,1577.93251934 753.057031648,1586.80551931 "/>
  <polygon class="224669957" points="770.8917719,1611.28797496 783.633664789,1579.26877113 774.971776818,1576.36986458 775.091815178,1574.69549636 769.740967774,1573.02112829 758.900050012,1603.81578099 755.209541418,1602.80990897 754.057031648,1606.48977647 770.8917719,1611.28797496 "/>
  <polygon class="332727010" points="0.0,1670.32632105 1.06220525759,1679.76347901 13.2508300792,1680.22596237 25.3364398497,1681.35092196 36.8793297248,1683.5320938 39.0519517835,1673.82619362 28.8713673185,1671.90751339 10.6809923101,1670.45756626 0.0,1670.32632105 "/>
  <polygon class="371375422" points="47.1664902249,1670.32632105 41.0519517835,1673.87518399 62.8340782534,1698.73598833 68.9541414909,1695.19336846 47.1664902249,1670.32632105 "/>
  <polygon class="33362216" points="77.7737193621,1670.32632105 69.9541414909,1692.08587849 94.6145951013,1700.65101734 104.499291056,1674.40584559 77.7737193621,1670.32632105 "/>
  <polygon class="334854847" points="108.210746586,1686.34219808 113.907895747,1687.46074797 111.27688825,1684.85496427 127.993755845,1670.32632105 136.798702087,1677.26882393 119.140034386,1692.67231651 117.311020388,1691.30381096 105.499291056,1688.54805351 108.210746586,1686.34219808 "/>
  <polygon class="215572245" points="137.798702087,1679.36757887 155.987380979,1670.32632105 205.360895991,1732.37805865 179.029855571,1743.09389251 137.798702087,1679.36757887 "/>
  <polygon class="166150129" points="223.780528119,1676.29301751 215.763918787,1670.32632105 213.017582435,1678.62971385 206.360895991,1681.07262397 206.833562932,1690.51937932 218.996963877,1691.17540418 220.306914191,1687.50791312 225.059997561,1688.25140784 229.053405667,1686.80190556 227.818019425,1681.65992211 223.780528119,1676.29301751 "/>
  <polygon class="26812368" points="249.644688675,1675.49983786 238.625067165,1670.32632105 230.053405667,1682.83523745 240.792114487,1688.74604715 249.644688675,1675.49983786 "/>
  <polygon class="185098472" points="250.644688675,1670.32632105 250.695791888,1678.54499686 282.69935084,1680.68247818 282.926653801,1672.45755145 250.644688675,1670.32632105 "/>
  <polygon class="31426382" points="314.890693973,1670.32632105 283.926653801,1713.26234334 293.304865166,1717.91218945 321.947932848,1677.83855512 314.890693973,1670.32632105 "/>
  <polygon class="208974230" points="343.877727333,1670.32632105 359.673254605,1681.31575613 345.151170569,1691.29309447 348.597211647,1693.34229176 347.825238482,1705.2501319 341.288304857,1705.18140877 322.947932848,1694.0045324 343.877727333,1670.32632105 "/>
  <polygon class="193191820" points="362.488536676,1680.44805812 360.673254605,1680.17939466 361.414720172,1676.16193913 362.214640937,1670.32632105 363.681956307,1670.60123235 375.960880089,1673.00670642 374.003049472,1681.89134332 373.894539823,1682.4849022 362.488536676,1680.44805812 "/>
  <polygon class="203348083" points="381.42155482,1670.32632105 383.977364594,1670.63251757 379.378027465,1731.8406836 376.960880089,1729.47233925 381.42155482,1670.32632105 "/>
  <polygon class="294137237" points="385.332605813,1677.71287945 389.332849388,1677.43166524 389.648971227,1680.85622967 407.454298137,1677.11295581 407.45078318,1670.86375243 407.41005995,1670.32632105 403.680021363,1670.56379073 397.949065279,1670.93249366 397.994495532,1671.23245537 393.31440109,1671.60115832 393.242474756,1671.28244899 388.914257221,1671.51366948 384.977364594,1671.71989317 385.332605813,1677.71287945 "/>
  <polygon class="94437517" points="429.77960784,1699.22096646 408.454298137,1694.15315223 413.092214941,1670.57002569 416.68193082,1670.32632105 418.970793184,1671.41986755 435.422489691,1679.14968102 429.77960784,1699.22096646 "/>
  <polygon class="140562353" points="442.641732122,1670.32632105 436.422489691,1675.42471566 450.108496376,1687.84581057 452.08001022,1689.64524556 454.049063829,1687.75833804 451.017814432,1685.50279653 455.504285765,1681.27287597 447.401985593,1674.45627049 445.820444409,1676.04327098 443.27172379,1674.13137277 445.647951181,1672.23197082 442.641732122,1670.32632105 "/>
  <polygon class="155299024" points="483.85347091,1683.49733979 479.166659106,1679.62350975 465.737016603,1673.23794011 459.683461695,1670.32632105 456.504285765,1673.03800058 457.477379965,1673.88149546 473.963057166,1688.72076358 474.734461674,1688.13344073 476.228866609,1689.42680064 483.85347091,1683.49733979 "/>
  <polygon class="32235012" points="508.964053986,1702.05367587 493.245635045,1744.86914056 484.85347091,1768.18843243 544.263807919,1761.01710663 542.133467781,1760.31746524 509.515169067,1750.09770669 522.650101559,1715.22813456 554.61700134,1724.81694775 558.002692383,1725.87890132 551.966472143,1671.79431121 549.790167803,1670.32632105 521.400317536,1676.39193225 517.618374123,1679.24045893 515.997194884,1683.37582084 535.86407581,1688.8854737 530.509263926,1704.96467444 510.234440219,1698.99275514 508.964053986,1702.05367587 "/>
  <polygon class="194998788" points="559.002692383,1684.38841661 565.109246623,1670.32632105 597.797915003,1675.96365759 597.121136396,1693.95064786 559.002692383,1684.38841661 "/>
  <polygon class="359373287" points="612.553199268,1672.43241396 601.97873003,1670.32632105 601.369188196,1673.81356108 598.797915003,1686.37513022 608.248163289,1688.38123237 609.227230222,1688.53122132 612.553199268,1672.43241396 "/>
  <polygon class="405711784" points="625.751710909,1670.32632105 617.468560028,1682.354698 613.553199268,1690.29655547 621.541320332,1693.76448017 622.390341773,1691.92116876 625.778137173,1693.46455152 628.18981043,1688.68443935 635.38744365,1691.63998568 638.905351601,1685.34773435 642.138540815,1679.63034802 625.751710909,1670.32632105 "/>
  <polygon class="353899712" points="670.419743375,1670.32632105 643.138540815,1681.35839096 648.558956243,1689.62932442 657.000654494,1685.91240143 655.13983047,1683.70723572 658.232648732,1682.27668928 660.467288865,1685.76872207 663.000013018,1684.30694082 664.664144468,1683.33866697 663.058477155,1680.50880889 665.896592986,1679.18446045 667.538431508,1681.3896256 675.211206449,1677.93507522 670.419743375,1670.32632105 "/>
  <polygon class="100483026" points="683.972763044,1670.32632105 676.211206449,1677.98122498 683.422109478,1683.45526441 683.972763044,1670.32632105 "/>
  <polygon class="409820435" points="684.972763044,1673.17572945 692.230373475,1676.01888961 697.772724852,1678.42464087 704.562929435,1681.68646516 709.155674658,1684.28592709 716.342245477,1688.69751478 720.135600213,1691.26573418 724.30057055,1694.34009949 726.94834682,1696.37717923 729.013917557,1698.30178239 731.686028596,1701.09495683 734.59374097,1704.66922094 736.129329301,1700.70128792 733.111031159,1697.40821662 730.195330377,1694.50256596 727.143733715,1691.99058449 722.909578287,1688.92246829 713.231777005,1683.08617538 707.240640157,1679.79310731 701.166353877,1676.69374967 693.124438258,1673.17572945 685.134291667,1670.32632105 684.972763044,1673.17572945 "/>
  <polygon class="28802954" points="760.030650252,1670.32632105 737.129329301,1688.86075811 749.411772173,1699.35903168 772.45375665,1680.60586992 760.030650252,1670.32632105 "/>
  <polygon class="284988964" points="28.6765401359,1769.16312421 84.985919125,1796.19834613 80.0591392847,1804.27705568 26.1838181699,1778.7538442 27.9734213564,1774.6363944 24.8755727193,1773.28057275 18.5641061301,1784.44579837 10.9209218645,1796.69194081 0.0,1791.23115993 13.302479824,1769.86290295 16.4929977053,1770.78761062 18.6062724045,1768.18843243 25.7214003435,1771.05627569 28.6765401359,1769.16312421 "/>
  <polygon class="347927881" points="87.7782003468,1768.18843243 86.985919125,1773.9122704 111.35462217,1776.93040841 105.231625461,1770.75666081 87.7782003468,1768.18843243 "/>
  <polygon class="107252018" points="125.476167035,1781.31589472 122.050175536,1783.75894088 120.85825617,1782.62801665 119.943389754,1783.28407766 118.669318341,1782.06567867 119.434463163,1781.5220853 116.062842687,1778.30426282 115.297698033,1778.84785609 112.35462217,1776.04241514 113.999248061,1775.01146255 117.447642886,1772.65589234 123.548696317,1768.18843243 124.175864269,1768.94446403 125.339154264,1770.03165002 120.493484819,1773.74932675 120.185522439,1775.97368496 125.476167035,1781.31589472 "/>
  <polygon class="367153733" points="126.476167035,1769.80671734 129.046610761,1768.18843243 134.836252786,1773.43067636 147.07297902,1786.60189912 154.339884162,1796.43658504 163.810224102,1814.88132188 160.457373964,1816.37464659 152.566436553,1804.30308803 151.100977738,1802.06622662 134.671084869,1779.54767092 126.476167035,1769.80671734 "/>
  <polygon class="196015325" points="181.979799411,1802.5242653 173.678275804,1812.82627753 170.700549958,1811.07074925 164.810224102,1818.37399792 224.26817501,1855.20265838 229.505317406,1849.04892442 186.169772594,1822.20992271 206.733679544,1798.62587048 243.130935427,1820.59183707 249.468408929,1820.89171393 252.096052856,1780.20846539 270.406963472,1774.77945782 266.975169824,1768.18843243 219.479366061,1783.43213465 207.430224163,1789.49838207 204.515842578,1792.84075408 201.668768062,1791.0414958 194.847266361,1798.8632727 191.39510979,1796.68292081 184.968127506,1804.0548853 181.979799411,1802.5242653 "/>
  <polygon class="374735214" points="280.449164905,1768.18843243 283.830131153,1785.14404559 274.782935394,1785.86875159 271.406963472,1768.91313775 280.449164905,1768.18843243 "/>
  <polygon class="100034454" points="287.159262273,1775.31287395 284.830131153,1770.41325772 295.250220878,1768.18843243 305.703842443,1790.96790666 295.529578498,1793.62395148 287.159262273,1775.31287395 "/>
  <polygon class="240894522" points="313.907678199,1768.18843243 324.245400699,1770.75645334 321.418419376,1781.37844157 316.996004352,1798.00498991 311.801817955,1796.77408746 306.703842443,1795.56192979 313.907678199,1768.18843243 "/>
  <polygon class="226261643" points="335.91011423,1769.12572644 334.54710833,1771.58143698 337.540608155,1772.86865434 334.512095593,1778.31745897 325.245400699,1774.31208752 328.070947807,1769.22570447 332.191767134,1771.00031461 333.753297584,1768.18843243 335.91011423,1769.12572644 "/>
  <polygon class="194340039" points="379.096137418,1770.38108819 377.863025401,1768.18843243 338.540608155,1776.95905709 338.693750417,1778.74566635 379.096137418,1770.38108819 "/>
  <polygon class="122111578" points="402.373007225,1771.44452424 404.857191698,1773.06319582 413.520199451,1783.1752092 414.364177577,1786.58754627 419.161232213,1791.78729924 404.357713936,1802.01181787 380.096137418,1778.78791963 380.347656015,1768.18843243 402.373007225,1771.44452424 "/>
  <polygon class="374738963" points="431.416819726,1768.18843243 443.294421823,1805.62971521 432.038252572,1807.47273049 431.655009536,1806.25446613 420.509405266,1771.13725078 420.161232213,1770.03769134 431.416819726,1768.18843243 "/>
  <polygon class="239022306" points="448.887227105,1768.18843243 469.643350169,1778.21662254 465.320604869,1785.50815122 444.294421823,1775.92981982 448.887227105,1768.18843243 "/>
  <polygon class="352867080" points="482.100894877,1768.18843243 470.643350169,1771.4994706 473.262180582,1776.84086365 473.558296545,1776.75340223 484.719731839,1773.52982449 482.100894877,1768.18843243 "/>
  <polygon class="355251287" points="488.716841884,1768.18843243 485.719731839,1776.73896353 499.105428941,1780.72046222 500.017829993,1778.37656571 501.038628619,1778.66408367 503.222640708,1772.68871145 488.716841884,1768.18843243 "/>
  <polygon class="48403109" points="505.090796853,1768.18843243 504.222640708,1772.9873386 553.869508111,1781.13548432 594.95621684,1787.88395137 595.739458151,1782.96631818 505.090796853,1768.18843243 "/>
  <polygon class="287526533" points="596.739458151,1791.5358155 648.50838348,1777.37868849 668.606484012,1772.74919793 719.380093166,1768.18843243 719.28510232,1769.28801414 716.450896866,1796.12157749 712.532867115,1838.14320609 718.452117521,1853.14381436 703.097422245,1857.76707809 687.956267055,1827.97203863 678.23076282,1807.52975889 665.92190501,1807.84214074 653.236412289,1783.87622111 622.544374764,1790.82358554 599.969505173,1797.68973343 596.739458151,1791.5358155 "/>
  <polygon class="250816800" points="738.0319099,1781.26435295 720.380093166,1776.32650423 723.148500776,1768.18843243 737.822070637,1772.25746787 740.592545999,1773.0262719 738.0319099,1781.26435295 "/>
  <polygon class="352869589" points="743.279997358,1768.71319439 741.592545999,1777.927767 748.48382145,1779.23342547 749.974613858,1770.97466872 746.084564423,1770.13130118 746.447261232,1768.50079073 744.245336866,1768.18843243 744.073928914,1768.80065471 743.279997358,1768.71319439 "/>
  <polygon class="204999910" points="750.974613858,1768.18843243 762.152396539,1769.17594997 761.770018914,1782.69494561 761.711296435,1786.36376402 760.173218241,1786.3200132 760.389964365,1789.3575704 755.569432357,1789.32006969 755.381454232,1786.15126004 752.119227039,1786.22001133 751.285597199,1779.18238082 751.185783261,1778.41361673 750.974613858,1768.18843243 "/>
  <polygon class="251555423" points="763.152396539,1778.0614274 770.172063333,1769.64438641 776.337071094,1768.18843243 782.743299019,1771.83144196 771.522426864,1784.29141499 763.152396539,1778.0614274 "/>
  <polygon class="318263756" points="13.3577217369,1877.00891379 5.41930615422,1876.54645956 0.0,1858.74822998 6.33213614733,1857.76707809 7.24511349304,1860.14184072 11.2571463655,1871.19074045 13.3577217369,1877.00891379 "/>
  <polygon class="332753255" points="15.3577217369,1862.4109468 17.2793181433,1868.57985635 18.2614124372,1868.41110195 18.6919241701,1869.55488176 22.4960596806,1868.94236579 23.0193502912,1870.41740428 42.2509907606,1867.19857044 43.1079116753,1859.83588083 42.4497102597,1857.76707809 39.1550085547,1858.33584257 15.3577217369,1862.4109468 "/>
  <polygon class="25004079" points="47.1283839514,1857.92324767 45.8237269004,1867.03105994 44.1079116753,1876.04517503 55.1725655355,1876.58239894 55.3437834172,1874.68962174 56.5126540024,1867.6557386 57.6717710142,1859.17260436 53.3031434013,1858.42923712 48.4885898209,1857.76707809 47.1283839514,1857.92324767 "/>
  <polygon class="153603275" points="65.53827079,1877.87606185 73.5851273977,1878.75090939 73.6921762728,1876.07012672 75.4491226001,1876.58878627 76.8040549022,1877.59486087 76.9942128843,1879.43204071 73.8587256456,1879.10084841 72.9641381038,1888.84290369 81.1642500008,1889.58652454 82.033690342,1878.2509965 96.5625698026,1879.86946451 96.4102475354,1881.83787175 120.199375579,1884.48741071 114.363601412,1876.3075853 114.498553968,1873.4268379 113.459479943,1867.20292534 113.550960447,1863.57231068 67.4015338836,1858.2669904 63.0366854054,1857.76707809 62.8982485699,1860.54784051 59.3289842844,1860.21039965 58.6717710142,1869.8149687 62.346900028,1870.10866738 62.4698224226,1871.32720451 62.7220737326,1872.72071116 63.3887909134,1873.83301701 64.3677339779,1874.63287743 65.7935141786,1875.35775097 65.53827079,1877.87606185 "/>
  <polygon class="203348089" points="122.515184752,1857.76707809 211.742570504,1910.10187594 210.495868403,1911.78284093 121.199375579,1859.27931727 122.515184752,1857.76707809 "/>
  <polygon class="332753257" points="213.374555787,1857.76707809 224.478284387,1858.93586019 223.593138104,1871.26745351 212.742570504,1870.32367694 213.374555787,1857.76707809 "/>
  <polygon class="239022309" points="239.598243534,1886.17102867 248.938567176,1882.98448555 234.818583366,1857.76707809 225.478284387,1860.95361672 239.598243534,1886.17102867 "/>
  <polygon class="19091617" points="254.472323261,1857.76707809 249.938567176,1861.46564618 264.731027107,1873.5484736 272.200104997,1878.42783901 285.201184793,1883.85074605 293.29234984,1884.57546647 308.783262467,1885.38765318 315.588090169,1884.27558216 321.893981453,1882.03894513 327.102557426,1878.49031489 329.173157463,1874.51060189 328.854415995,1870.18102501 326.492785891,1866.4137317 320.150568817,1862.6089537 313.459794661,1860.61597506 305.634400467,1859.3289733 281.464952972,1858.61050149 254.472323261,1857.76707809 "/>
  <polygon class="29972037" points="330.173157463,1892.09935703 333.348882421,1884.54562522 337.200056469,1878.36643755 353.08592587,1861.40960793 356.163888345,1857.76707809 365.652927988,1864.09620845 364.256636966,1865.92684579 377.594907442,1871.7436503 369.836651868,1903.82670381 365.890084813,1902.73956532 356.547259396,1899.91550472 355.456962581,1902.70207779 339.869491712,1897.88493046 340.947065482,1895.29829157 330.173157463,1892.09935703 "/>
  <polygon class="121806596" points="394.289235606,1857.76707809 396.317841241,1859.89185359 383.075860133,1867.6347876 378.871252155,1866.15994277 378.594907442,1865.8974704 387.959323996,1860.52303695 388.483868046,1861.18546703 389.043394411,1860.85425198 389.37732729,1861.26670846 389.811702739,1861.27920714 394.1124757,1858.79196977 394.098169692,1858.44825609 393.762978492,1858.07954506 394.289235606,1857.76707809 "/>
  <polygon class="203348084" points="397.317841241,1858.48570956 399.985895242,1857.76707809 471.726016274,1899.67896315 470.204004602,1901.28495204 397.317841241,1858.48570956 "/>
  <polygon class="435668046" points="472.726016274,1880.73414886 477.095476482,1882.52103319 482.357180134,1884.6702929 494.312324016,1861.69696923 489.44785063,1859.71015611 484.681707327,1857.76707809 472.726016274,1880.73414886 "/>
  <polygon class="24366160" points="495.946940297,1897.53882825 500.106961772,1877.14384867 502.348664597,1857.76707809 512.44467467,1862.80803475 523.343501945,1868.44866081 525.341450482,1871.6718765 525.055456717,1892.03561706 526.286144504,1907.56454654 525.665687047,1909.9070049 511.935800571,1908.51402296 495.312324016,1904.24762603 495.946940297,1897.53882825 "/>
  <polygon class="29139836" points="533.907301244,1883.64988507 536.476471452,1890.09716506 539.19122065,1896.90679471 542.427249155,1905.03462212 552.548497738,1903.19789523 549.225453681,1859.1352487 544.959555891,1860.58463503 543.906428015,1857.76707809 535.868251323,1858.93533335 528.896434801,1860.29100934 529.826495389,1863.00860899 527.286144504,1863.85824942 530.902779062,1876.82776576 533.907301244,1883.64988507 "/>
  <polygon class="60560967" points="650.424198489,1899.82539794 653.613252361,1892.88336271 636.634587235,1886.73488371 606.521266706,1875.8313362 564.295848609,1860.54138704 556.628958392,1857.76707809 553.548497738,1861.09749857 554.659425903,1865.22772071 557.569980412,1866.24621738 563.427930499,1868.36444072 563.729119461,1867.69585693 568.297101106,1869.3454469 569.818102217,1869.89531025 569.517449208,1870.57014258 582.563702765,1875.28147266 582.859911614,1874.61288861 587.340573252,1876.23123696 588.831165054,1876.77485208 588.529977206,1877.44343621 600.431050664,1881.74861875 600.731702283,1881.07378601 605.212905064,1882.6983834 606.707942248,1883.23575026 606.406755195,1883.90433464 619.459092136,1888.62816513 619.760278611,1887.95958058 624.18955164,1889.55918478 625.664137951,1890.09030339 625.362951739,1890.75888802 638.44571687,1895.48896878 638.746902502,1894.82038397 640.242478806,1895.36399965 644.723693639,1896.98859834 644.422508272,1897.65718323 650.424198489,1899.82539794 "/>
  <polygon class="159482571" points="654.613252361,1860.36030804 657.311667888,1859.17304609 660.494578675,1857.76707809 668.773625639,1869.72093396 662.892292436,1872.31416564 659.097923692,1866.82776268 654.613252361,1860.36030804 "/>
  <polygon class="29545092" points="669.773625639,1866.69158858 671.226473847,1857.76707809 685.323242584,1860.17319568 683.870937244,1869.10395702 671.380985673,1866.96657357 669.773625639,1866.69158858 "/>
  <polygon class="236570708" points="688.229203667,1857.76707809 703.725909307,1863.91492081 702.101155211,1866.91386924 686.323242584,1860.44738731 688.229203667,1857.76707809 "/>
  <polygon class="210879814" points="724.694786781,1865.85163933 710.189014166,1857.76707809 704.725909307,1865.02069122 719.231684878,1873.10525574 724.694786781,1865.85163933 "/>
  <polygon class="164892564" points="48.7022825912,1926.86095918 46.9552082878,1928.97302151 45.7079286996,1930.69766431 15.7862430262,1911.78284093 1.84838664816,1923.46791282 0.0,1925.09257582 56.3670666742,1959.41049178 77.0332204166,1936.57769771 54.8898166613,1920.46853535 48.7022825912,1926.86095918 "/>
  <polygon class="42099689" points="134.754117426,1916.28260085 131.422903654,1911.78284093 127.09487269,1913.95772475 79.0332204166,2028.38948216 80.6693703885,2031.28934608 85.3254731445,2033.03301447 134.754117426,1916.28260085 "/>
  <polygon class="60140892" points="140.097064118,1911.78284093 138.325055934,1915.68189925 135.754117426,1921.35553049 150.131252313,1926.60426583 151.333738224,1923.96115248 157.933963766,1926.3730715 159.399793094,1923.14259973 161.079391793,1919.44349156 140.097064118,1911.78284093 "/>
  <polygon class="37332432" points="169.414053551,1911.78284093 211.249833265,1927.66139559 218.040237295,1930.74212427 223.514784811,1934.74769724 222.55138028,1941.17161331 190.881840539,1933.70412354 189.225255063,1936.42241444 162.079391793,1928.91743298 169.414053551,1911.78284093 "/>
  <polygon class="330715517" points="224.514784811,1913.70080724 237.999323084,1911.78284093 240.701108554,1920.01073044 227.675049183,1921.93494509 224.514784811,1913.70080724 "/>
  <polygon class="294030698" points="241.701108554,1927.90799624 248.646423083,1936.52974352 279.339814871,1920.3983328 272.395010766,1911.78284093 241.701108554,1927.90799624 "/>
  <polygon class="26216808" points="334.300424288,1911.78284093 280.339814871,1963.65975075 285.028459727,1967.58973114 293.674789242,1970.75121042 303.59677078,1963.27237594 341.73638902,1920.41127955 340.889600545,1915.75654568 334.300424288,1911.78284093 "/>
  <polygon class="175774100" points="342.73638902,1914.70121736 348.564763895,1913.25140289 354.53099472,1911.78284093 358.728549763,1919.45061041 361.239555896,1923.6813208 363.148760829,1927.21837044 362.823039256,1927.31210851 372.422962438,1944.16622213 363.052873642,1947.95324428 360.101963706,1942.94137686 350.315825806,1926.94340542 342.73638902,1914.70121736 "/>
  <polygon class="31515797" points="382.655942182,1911.78284093 373.422962438,1924.78432034 405.881361551,1937.66085492 408.682191155,1935.54287989 413.874069416,1922.14778699 382.655942182,1911.78284093 "/>
  <polygon class="136447730" points="415.424914475,1962.7870321 441.644843775,1911.78284093 454.600423859,1917.05762132 429.680044182,1966.41189127 418.323077189,1975.09905673 414.874069416,1973.0803841 421.089026681,1967.48684964 415.424914475,1962.7870321 "/>
  <polygon class="330715501" points="455.600423859,1914.36927746 472.358086198,1951.42283327 477.441262952,1950.09837505 482.260997955,1948.83639137 472.48665525,1927.21400164 465.508273806,1911.78284093 460.678602567,1913.044822 455.600423859,1914.36927746 "/>
  <polygon class="83500452" points="501.788230964,1958.10619168 488.239178748,1961.14983748 487.815531341,1954.1813268 491.951573737,1954.20007615 489.913575741,1921.58873188 483.846082848,1921.52623415 483.260997955,1911.78284093 499.308177444,1911.98908333 501.788230964,1958.10619168 "/>
  <polygon class="216881776" points="507.122354638,1911.78284093 502.788230964,1923.03475426 634.487982475,1964.78122643 644.63384601,1963.62541887 641.673744114,1951.89241445 627.283533505,1947.60031093 507.122354638,1911.78284093 "/>
  <polygon class="317447718" points="648.123539021,1911.78284093 659.69346684,1914.38292376 657.204315721,1924.65200457 645.63384601,1922.04567005 648.123539021,1911.78284093 "/>
  <polygon class="240894520" points="667.222131783,1911.78284093 671.222092773,1912.73256634 677.753063345,1914.28211844 671.22939949,1939.30615366 665.918038497,1938.04401671 663.793387125,1937.53791232 660.69346684,1936.80687266 662.787533061,1928.78418303 667.222131783,1911.78284093 "/>
  <polygon class="281103314" points="678.753063345,1930.15610994 694.173719849,1932.89242296 697.342758051,1933.45467911 698.634043068,1915.21884696 682.810074237,1911.78284093 678.753063345,1930.15610994 "/>
  <polygon class="282379970" points="741.727067381,1929.53906082 744.913270962,1930.87608865 739.880732264,1940.69762323 720.810637559,1931.65706289 703.001470614,1920.94834703 705.015674091,1918.71788601 699.634043068,1915.23161977 700.957395329,1913.1885931 702.604194931,1911.78284093 707.893875997,1915.70645169 709.852303873,1913.63843381 724.014887917,1922.28537421 727.517952109,1924.24093284 733.242542173,1927.13990833 741.206094481,1930.48872543 741.727067381,1929.53906082 "/>
</svg>