<svg width="800" height="600"><path fill="none" stroke="#000" stroke-width="1" d="M0,102 L107,102"/><path fill="none" stroke="#000" stroke-width="1" d="M118,84 L225,84"/><path fill="none" stroke="#000" stroke-width="1" d="M236,165 L343,165"/><path fill="none" stroke="#000" stroke-width="1" d="M0,81 L107,81"/><path fill="none" stroke="#000" stroke-width="1" d="M118,116 L225,116"/><path fill="none" stroke="#000" stroke-width="1" d="M236,155 L343,155"/><path fill="none" stroke="#000" stroke-width="1" d="M0,148 L107,148"/><path fill="none" stroke="#000" stroke-width="1" d="M118,102 L225,102"/><path fill="none" stroke="#000" stroke-width="1" d="M236,102 L343,102"/><path fill="none" stroke="#000" stroke-width="1" d="M0,35 L107,35"/><path fill="none" stroke="#000" stroke-width="1" d="M118,130 L225,130"/><path fill="none" stroke="#000" stroke-width="1" d="M236,187 L343,187"/><path fill="none" stroke="#000" stroke-width="1" d="M0,99 L107,99"/><path fill="none" stroke="#000" stroke-width="1" d="M118,123 L225,123"/><path fill="none" stroke="#000" stroke-width="1" d="M236,130 L343,130"/><path fill="none" stroke="#000" stroke-width="1" d="M0,67 L107,67"/><path fill="none" stroke="#000" stroke-width="1" d="M118,106 L225,106"/><path fill="none" stroke="#000" stroke-width="1" d="M236,180 L343,180"/><path fill="none" stroke="#000" stroke-width="1" d="M0,88 L107,88"/><path fill="none" stroke="#000" stroke-width="1" d="M118,148 L225,148"/><path fill="none" stroke="#000" stroke-width="1" d="M236,116 L343,116"/><path fill="none" stroke="#000" stroke-width="1" d="M0,39 L107,39"/><path fill="none" stroke="#000" stroke-width="1" d="M118,56 L225,56"/><path fill="none" stroke="#000" stroke-width="1" d="M236,257 L343,257"/><path fill="none" stroke="#000" stroke-width="1" d="M0,92 L107,92"/><path fill="none" stroke="#000" stroke-width="1" d="M118,70 L225,70"/><path fill="none" stroke="#000" stroke-width="1" d="M236,190 L343,190"/><path fill="none" stroke="#000" stroke-width="1" d="M0,67 L107,67"/><path fill="none" stroke="#000" stroke-width="1" d="M118,42 L225,42"/><path fill="none" stroke="#000" stroke-width="1" d="M236,243 L343,243"/><path fill="none" stroke="#000" stroke-width="1" d="M0,35 L107,35"/><path fill="none" stroke="#000" stroke-width="1" d="M118,84 L225,84"/><path fill="none" stroke="#000" stroke-width="1" d="M236,232 L343,232"/><path fill="none" stroke="#000" stroke-width="1" d="M0,77 L107,77"/><path fill="none" stroke="#000" stroke-width="1" d="M118,95 L225,95"/><path fill="none" stroke="#000" stroke-width="1" d="M236,180 L343,180"/><path fill="none" stroke="#000" stroke-width="1" d="M0,95 L107,95"/><path fill="none" stroke="#000" stroke-width="1" d="M118,63 L225,63"/><path fill="none" stroke="#000" stroke-width="1" d="M236,194 L343,194"/><path fill="none" stroke="#000" stroke-width="1" d="M0,60 L107,60"/><path fill="none" stroke="#000" stroke-width="1" d="M118,120 L225,120"/><path fill="none" stroke="#000" stroke-width="1" d="M236,172 L343,172"/><path fill="none" stroke="#000" stroke-width="1" d="M0,92 L107,92"/><path fill="none" stroke="#000" stroke-width="1" d="M118,113 L225,113"/><path fill="none" stroke="#000" stroke-width="1" d="M236,148 L343,148"/><path fill="none" stroke="#000" stroke-width="1" d="M0,81 L107,81"/><path fill="none" stroke="#000" stroke-width="1" d="M118,123 L225,123"/><path fill="none" stroke="#000" stroke-width="1" d="M236,148 L343,148"/><path fill="none" stroke="#000" stroke-width="1" d="M0,109 L107,109"/><path fill="none" stroke="#000" stroke-width="1" d="M118,165 L225,165"/><path fill="none" stroke="#000" stroke-width="1" d="M236,77 L343,77"/><path fill="none" stroke="#000" stroke-width="1" d="M0,102 L107,102"/><path fill="none" stroke="#000" stroke-width="1" d="M118,53 L225,53"/><path fill="none" stroke="#000" stroke-width="1" d="M236,197 L343,197"/><path fill="none" stroke="#000" stroke-width="1" d="M0,109 L107,109"/><path fill="none" stroke="#000" stroke-width="1" d="M118,53 L225,53"/><path fill="none" stroke="#000" stroke-width="1" d="M236,190 L343,190"/><path fill="none" stroke="#000" stroke-width="1" d="M0,81 L107,81"/><path fill="none" stroke="#000" stroke-width="1" d="M118,81 L225,81"/><path fill="none" stroke="#000" stroke-width="1" d="M236,190 L343,190"/><path fill="none" stroke="#000" stroke-width="1" d="M0,77 L107,77"/><path fill="none" stroke="#000" stroke-width="1" d="M118,120 L225,120"/><path fill="none" stroke="#000" stroke-width="1" d="M236,155 L343,155"/><path fill="none" stroke="#000" stroke-width="1" d="M0,53 L107,53"/><path fill="none" stroke="#000" stroke-width="1" d="M118,106 L225,106"/><path fill="none" stroke="#000" stroke-width="1" d="M236,194 L343,194"/><path fill="none" stroke="#000" stroke-width="1" d="M0,67 L107,67"/><path fill="none" stroke="#000" stroke-width="1" d="M118,88 L225,88"/><path fill="none" stroke="#000" stroke-width="1" d="M236,197 L343,197"/><path fill="none" stroke="#000" stroke-width="1" d="M0,95 L107,95"/><path fill="none" stroke="#000" stroke-width="1" d="M118,95 L225,95"/><path fill="none" stroke="#000" stroke-width="1" d="M236,162 L343,162"/><path fill="none" stroke="#000" stroke-width="1" d="M0,95 L107,95"/><path fill="none" stroke="#000" stroke-width="1" d="M118,60 L225,60"/><path fill="none" stroke="#000" stroke-width="1" d="M236,197 L343,197"/><path fill="none" stroke="#000" stroke-width="1" d="M0,74 L107,74"/><path fill="none" stroke="#000" stroke-width="1" d="M118,88 L225,88"/><path fill="none" stroke="#000" stroke-width="1" d="M236,190 L343,190"/><path fill="none" stroke="#000" stroke-width="1" d="M0,60 L107,60"/><path fill="none" stroke="#000" stroke-width="1" d="M118,63 L225,63"/><path fill="none" stroke="#000" stroke-width="1" d="M236,229 L343,229"/><path fill="none" stroke="#000" stroke-width="1" d="M0,113 L107,113"/><path fill="none" stroke="#000" stroke-width="1" d="M118,120 L225,120"/><path fill="none" stroke="#000" stroke-width="1" d="M236,120 L343,120"/><path fill="none" stroke="#000" stroke-width="1" d="M0,102 L107,102"/><path fill="none" stroke="#000" stroke-width="1" d="M118,92 L225,92"/><path fill="none" stroke="#000" stroke-width="1" d="M236,158 L343,158"/><path fill="none" stroke="#000" stroke-width="1" d="M0,109 L107,109"/><path fill="none" stroke="#000" stroke-width="1" d="M118,70 L225,70"/><path fill="none" stroke="#000" stroke-width="1" d="M236,172 L343,172"/><path fill="none" stroke="#000" stroke-width="1" d="M0,77 L107,77"/><path fill="none" stroke="#000" stroke-width="1" d="M118,74 L225,74"/><path fill="none" stroke="#000" stroke-width="1" d="M236,201 L343,201"/><path fill="none" stroke="#000" stroke-width="1" d="M0,56 L107,56"/><path fill="none" stroke="#000" stroke-width="1" d="M118,127 L225,127"/><path fill="none" stroke="#000" stroke-width="1" d="M236,169 L343,169"/><path fill="none" stroke="#000" stroke-width="1" d="M0,88 L107,88"/><path fill="none" stroke="#000" stroke-width="1" d="M118,95 L225,95"/><path fill="none" stroke="#000" stroke-width="1" d="M236,169 L343,169"/><path fill="none" stroke="#000" stroke-width="1" d="M0,95 L107,95"/><path fill="none" stroke="#000" stroke-width="1" d="M118,95 L225,95"/><path fill="none" stroke="#000" stroke-width="1" d="M236,162 L343,162"/><path fill="none" stroke="#000" stroke-width="1" d="M0,92 L107,92"/><path fill="none" stroke="#000" stroke-width="1" d="M118,109 L225,109"/><path fill="none" stroke="#000" stroke-width="1" d="M236,151 L343,151"/><path fill="none" stroke="#000" stroke-width="1" d="M0,60 L107,60"/><path fill="none" stroke="#000" stroke-width="1" d="M118,42 L225,42"/><path fill="none" stroke="#000" stroke-width="1" d="M236,250 L343,250"/><path fill="none" stroke="#000" stroke-width="1" d="M0,123 L107,123"/><path fill="none" stroke="#000" stroke-width="1" d="M118,63 L225,63"/><path fill="none" stroke="#000" stroke-width="1" d="M236,165 L343,165"/><path fill="none" stroke="#000" stroke-width="1" d="M0,123 L107,123"/><path fill="none" stroke="#000" stroke-width="1" d="M118,63 L225,63"/><path fill="none" stroke="#000" stroke-width="1" d="M236,165 L343,165"/><path fill="none" stroke="#000" stroke-width="1" d="M0,95 L107,95"/><path fill="none" stroke="#000" stroke-width="1" d="M118,106 L225,106"/><path fill="none" stroke="#000" stroke-width="1" d="M236,151 L343,151"/><path fill="none" stroke="#000" stroke-width="1" d="M0,120 L107,120"/><path fill="none" stroke="#000" stroke-width="1" d="M118,49 L225,49"/><path fill="none" stroke="#000" stroke-width="1" d="M236,183 L343,183"/><path fill="none" stroke="#000" stroke-width="1" d="M0,70 L107,70"/><path fill="none" stroke="#000" stroke-width="1" d="M118,84 L225,84"/><path fill="none" stroke="#000" stroke-width="1" d="M236,197 L343,197"/><path fill="none" stroke="#000" stroke-width="1" d="M0,99 L107,99"/><path fill="none" stroke="#000" stroke-width="1" d="M118,56 L225,56"/><path fill="none" stroke="#000" stroke-width="1" d="M236,197 L343,197"/><path fill="none" stroke="#000" stroke-width="1" d="M0,67 L107,67"/><path fill="none" stroke="#000" stroke-width="1" d="M118,130 L225,130"/><path fill="none" stroke="#000" stroke-width="1" d="M236,155 L343,155"/><path fill="none" stroke="#000" stroke-width="1" d="M0,67 L107,67"/><path fill="none" stroke="#000" stroke-width="1" d="M118,92 L225,92"/><path fill="none" stroke="#000" stroke-width="1" d="M236,194 L343,194"/><path fill="none" stroke="#000" stroke-width="1" d="M0,56 L107,56"/><path fill="none" stroke="#000" stroke-width="1" d="M118,99 L225,99"/><path fill="none" stroke="#000" stroke-width="1" d="M236,197 L343,197"/><path fill="none" stroke="#000" stroke-width="1" d="M0,74 L107,74"/><path fill="none" stroke="#000" stroke-width="1" d="M118,120 L225,120"/><path fill="none" stroke="#000" stroke-width="1" d="M236,158 L343,158"/><path fill="none" stroke="#000" stroke-width="1" d="M0,77 L107,77"/><path fill="none" stroke="#000" stroke-width="1" d="M118,74 L225,74"/><path fill="none" stroke="#000" stroke-width="1" d="M236,201 L343,201"/><path fill="none" stroke="#000" stroke-width="1" d="M0,67 L107,67"/><path fill="none" stroke="#000" stroke-width="1" d="M118,155 L225,155"/><path fill="none" stroke="#000" stroke-width="1" d="M236,130 L343,130"/><path fill="none" stroke="#000" stroke-width="1" d="M0,109 L107,109"/><path fill="none" stroke="#000" stroke-width="1" d="M118,88 L225,88"/><path fill="none" stroke="#000" stroke-width="1" d="M236,155 L343,155"/><path fill="none" stroke="#000" stroke-width="1" d="M0,53 L107,53"/><path fill="none" stroke="#000" stroke-width="1" d="M118,53 L225,53"/><path fill="none" stroke="#000" stroke-width="1" d="M236,246 L343,246"/><path fill="none" stroke="#000" stroke-width="1" d="M0,151 L107,151"/><path fill="none" stroke="#000" stroke-width="1" d="M118,49 L225,49"/><path fill="none" stroke="#000" stroke-width="1" d="M236,151 L343,151"/><path fill="none" stroke="#000" stroke-width="1" d="M0,74 L107,74"/><path fill="none" stroke="#000" stroke-width="1" d="M118,113 L225,113"/><path fill="none" stroke="#000" stroke-width="1" d="M236,165 L343,165"/><path fill="none" stroke="#000" stroke-width="1" d="M0,92 L107,92"/><path fill="none" stroke="#000" stroke-width="1" d="M118,67 L225,67"/><path fill="none" stroke="#000" stroke-width="1" d="M236,194 L343,194"/><path fill="none" stroke="#000" stroke-width="1" d="M0,67 L107,67"/><path fill="none" stroke="#000" stroke-width="1" d="M118,88 L225,88"/><path fill="none" stroke="#000" stroke-width="1" d="M236,197 L343,197"/><path fill="none" stroke="#000" stroke-width="1" d="M0,106 L107,106"/><path fill="none" stroke="#000" stroke-width="1" d="M118,35 L225,35"/><path fill="none" stroke="#000" stroke-width="1" d="M236,211 L343,211"/><path fill="none" stroke="#000" stroke-width="1" d="M0,134 L107,134"/><path fill="none" stroke="#000" stroke-width="1" d="M118,60 L225,60"/><path fill="none" stroke="#000" stroke-width="1" d="M236,158 L343,158"/><path fill="none" stroke="#000" stroke-width="1" d="M0,113 L107,113"/><path fill="none" stroke="#000" stroke-width="1" d="M118,99 L225,99"/><path fill="none" stroke="#000" stroke-width="1" d="M236,141 L343,141"/><path fill="none" stroke="#000" stroke-width="1" d="M0,60 L107,60"/><path fill="none" stroke="#000" stroke-width="1" d="M118,95 L225,95"/><path fill="none" stroke="#000" stroke-width="1" d="M236,197 L343,197"/><path fill="none" stroke="#000" stroke-width="1" d="M0,137 L107,137"/><path fill="none" stroke="#000" stroke-width="1" d="M118,106 L225,106"/><path fill="none" stroke="#000" stroke-width="1" d="M236,109 L343,109"/><path fill="none" stroke="#000" stroke-width="1" d="M0,106 L107,106"/><path fill="none" stroke="#000" stroke-width="1" d="M118,81 L225,81"/><path fill="none" stroke="#000" stroke-width="1" d="M236,165 L343,165"/><path fill="none" stroke="#000" stroke-width="1" d="M0,60 L107,60"/><path fill="none" stroke="#000" stroke-width="1" d="M118,109 L225,109"/><path fill="none" stroke="#000" stroke-width="1" d="M236,183 L343,183"/><path fill="none" stroke="#000" stroke-width="1" d="M0,67 L107,67"/><path fill="none" stroke="#000" stroke-width="1" d="M118,95 L225,95"/><path fill="none" stroke="#000" stroke-width="1" d="M236,190 L343,190"/><path fill="none" stroke="#000" stroke-width="1" d="M0,63 L107,63"/><path fill="none" stroke="#000" stroke-width="1" d="M118,148 L225,148"/><path fill="none" stroke="#000" stroke-width="1" d="M236,141 L343,141"/><path fill="none" stroke="#000" stroke-width="1" d="M0,95 L107,95"/><path fill="none" stroke="#000" stroke-width="1" d="M118,74 L225,74"/><path fill="none" stroke="#000" stroke-width="1" d="M236,183 L343,183"/><path fill="none" stroke="#000" stroke-width="1" d="M0,99 L107,99"/><path fill="none" stroke="#000" stroke-width="1" d="M118,116 L225,116"/><path fill="none" stroke="#000" stroke-width="1" d="M236,137 L343,137"/><path fill="none" stroke="#000" stroke-width="1" d="M0,84 L107,84"/><path fill="none" stroke="#000" stroke-width="1" d="M118,81 L225,81"/><path fill="none" stroke="#000" stroke-width="1" d="M236,187 L343,187"/><path fill="none" stroke="#000" stroke-width="1" d="M0,151 L107,151"/><path fill="none" stroke="#000" stroke-width="1" d="M118,106 L225,106"/><path fill="none" stroke="#000" stroke-width="1" d="M236,95 L343,95"/><path fill="none" stroke="#000" stroke-width="1" d="M0,84 L107,84"/><path fill="none" stroke="#000" stroke-width="1" d="M118,102 L225,102"/><path fill="none" stroke="#000" stroke-width="1" d="M236,165 L343,165"/><path fill="none" stroke="#000" stroke-width="1" d="M0,18 L107,18"/><path fill="none" stroke="#000" stroke-width="1" d="M118,123 L225,123"/><path fill="none" stroke="#000" stroke-width="1" d="M236,211 L343,211"/><path fill="none" stroke="#000" stroke-width="1" d="M0,53 L107,53"/><path fill="none" stroke="#000" stroke-width="1" d="M118,116 L225,116"/><path fill="none" stroke="#000" stroke-width="1" d="M236,183 L343,183"/><path fill="none" stroke="#000" stroke-width="1" d="M0,120 L107,120"/><path fill="none" stroke="#000" stroke-width="1" d="M118,35 L225,35"/><path fill="none" stroke="#000" stroke-width="1" d="M236,197 L343,197"/><path fill="none" stroke="#000" stroke-width="1" d="M0,81 L107,81"/><path fill="none" stroke="#000" stroke-width="1" d="M118,116 L225,116"/><path fill="none" stroke="#000" stroke-width="1" d="M236,155 L343,155"/><path fill="none" stroke="#000" stroke-width="1" d="M0,113 L107,113"/><path fill="none" stroke="#000" stroke-width="1" d="M118,99 L225,99"/><path fill="none" stroke="#000" stroke-width="1" d="M236,141 L343,141"/><path fill="none" stroke="#000" stroke-width="1" d="M0,120 L107,120"/><path fill="none" stroke="#000" stroke-width="1" d="M118,120 L225,120"/><path fill="none" stroke="#000" stroke-width="1" d="M236,113 L343,113"/><path fill="none" stroke="#000" stroke-width="1" d="M0,77 L107,77"/><path fill="none" stroke="#000" stroke-width="1" d="M118,67 L225,67"/><path fill="none" stroke="#000" stroke-width="1" d="M236,208 L343,208"/><path fill="none" stroke="#000" stroke-width="1" d="M0,130 L107,130"/><path fill="none" stroke="#000" stroke-width="1" d="M118,116 L225,116"/><path fill="none" stroke="#000" stroke-width="1" d="M236,106 L343,106"/><path fill="none" stroke="#000" stroke-width="1" d="M0,106 L107,106"/><path fill="none" stroke="#000" stroke-width="1" d="M118,106 L225,106"/><path fill="none" stroke="#000" stroke-width="1" d="M236,141 L343,141"/><path fill="none" stroke="#000" stroke-width="1" d="M0,53 L107,53"/><path fill="none" stroke="#000" stroke-width="1" d="M118,109 L225,109"/><path fill="none" stroke="#000" stroke-width="1" d="M236,190 L343,190"/><path fill="none" stroke="#000" stroke-width="1" d="M0,99 L107,99"/><path fill="none" stroke="#000" stroke-width="1" d="M118,102 L225,102"/><path fill="none" stroke="#000" stroke-width="1" d="M236,151 L343,151"/><path fill="none" stroke="#000" stroke-width="1" d="M0,70 L107,70"/><path fill="none" stroke="#000" stroke-width="1" d="M118,77 L225,77"/><path fill="none" stroke="#000" stroke-width="1" d="M236,204 L343,204"/><path fill="none" stroke="#000" stroke-width="1" d="M0,116 L107,116"/><path fill="none" stroke="#000" stroke-width="1" d="M118,77 L225,77"/><path fill="none" stroke="#000" stroke-width="1" d="M236,158 L343,158"/><path fill="none" stroke="#000" stroke-width="1" d="M0,106 L107,106"/><path fill="none" stroke="#000" stroke-width="1" d="M118,99 L225,99"/><path fill="none" stroke="#000" stroke-width="1" d="M236,148 L343,148"/><path fill="none" stroke="#000" stroke-width="1" d="M0,113 L107,113"/><path fill="none" stroke="#000" stroke-width="1" d="M118,67 L225,67"/><path fill="none" stroke="#000" stroke-width="1" d="M236,172 L343,172"/><path fill="none" stroke="#000" stroke-width="1" d="M0,35 L107,35"/><path fill="none" stroke="#000" stroke-width="1" d="M118,74 L225,74"/><path fill="none" stroke="#000" stroke-width="1" d="M236,243 L343,243"/><path fill="none" stroke="#000" stroke-width="1" d="M0,56 L107,56"/><path fill="none" stroke="#000" stroke-width="1" d="M118,74 L225,74"/><path fill="none" stroke="#000" stroke-width="1" d="M236,222 L343,222"/><path fill="none" stroke="#000" stroke-width="1" d="M0,63 L107,63"/><path fill="none" stroke="#000" stroke-width="1" d="M118,49 L225,49"/><path fill="none" stroke="#000" stroke-width="1" d="M236,239 L343,239"/><path fill="none" stroke="#000" stroke-width="1" d="M0,81 L107,81"/><path fill="none" stroke="#000" stroke-width="1" d="M118,70 L225,70"/><path fill="none" stroke="#000" stroke-width="1" d="M236,201 L343,201"/><path fill="none" stroke="#000" stroke-width="1" d="M0,70 L107,70"/><path fill="none" stroke="#000" stroke-width="1" d="M118,151 L225,151"/><path fill="none" stroke="#000" stroke-width="1" d="M236,130 L343,130"/><path fill="none" stroke="#000" stroke-width="1" d="M0,123 L107,123"/><path fill="none" stroke="#000" stroke-width="1" d="M118,39 L225,39"/><path fill="none" stroke="#000" stroke-width="1" d="M236,190 L343,190"/><path fill="none" stroke="#000" stroke-width="1" d="M0,70 L107,70"/><path fill="none" stroke="#000" stroke-width="1" d="M118,77 L225,77"/><path fill="none" stroke="#000" stroke-width="1" d="M236,204 L343,204"/><path fill="none" stroke="#000" stroke-width="1" d="M0,67 L107,67"/><path fill="none" stroke="#000" stroke-width="1" d="M118,81 L225,81"/><path fill="none" stroke="#000" stroke-width="1" d="M236,204 L343,204"/><path fill="none" stroke="#000" stroke-width="1" d="M0,102 L107,102"/><path fill="none" stroke="#000" stroke-width="1" d="M118,113 L225,113"/><path fill="none" stroke="#000" stroke-width="1" d="M236,137 L343,137"/><path fill="none" stroke="#000" stroke-width="1" d="M0,77 L107,77"/><path fill="none" stroke="#000" stroke-width="1" d="M118,113 L225,113"/><path fill="none" stroke="#000" stroke-width="1" d="M236,162 L343,162"/><path fill="none" stroke="#000" stroke-width="1" d="M0,106 L107,106"/><path fill="none" stroke="#000" stroke-width="1" d="M118,67 L225,67"/><path fill="none" stroke="#000" stroke-width="1" d="M236,180 L343,180"/><path fill="none" stroke="#000" stroke-width="1" d="M0,102 L107,102"/><path fill="none" stroke="#000" stroke-width="1" d="M118,88 L225,88"/><path fill="none" stroke="#000" stroke-width="1" d="M236,162 L343,162"/><path fill="none" stroke="#000" stroke-width="1" d="M0,63 L107,63"/><path fill="none" stroke="#000" stroke-width="1" d="M118,84 L225,84"/><path fill="none" stroke="#000" stroke-width="1" d="M236,204 L343,204"/><path fill="none" stroke="#000" stroke-width="1" d="M0,60 L107,60"/><path fill="none" stroke="#000" stroke-width="1" d="M118,109 L225,109"/><path fill="none" stroke="#000" stroke-width="1" d="M236,183 L343,183"/><path fill="none" stroke="#000" stroke-width="1" d="M0,123 L107,123"/><path fill="none" stroke="#000" stroke-width="1" d="M118,42 L225,42"/><path fill="none" stroke="#000" stroke-width="1" d="M236,187 L343,187"/><path fill="none" stroke="#000" stroke-width="1" d="M0,102 L107,102"/><path fill="none" stroke="#000" stroke-width="1" d="M118,88 L225,88"/><path fill="none" stroke="#000" stroke-width="1" d="M236,162 L343,162"/><path fill="none" stroke="#000" stroke-width="1" d="M0,92 L107,92"/><path fill="none" stroke="#000" stroke-width="1" d="M118,60 L225,60"/><path fill="none" stroke="#000" stroke-width="1" d="M236,201 L343,201"/></svg>