<svg width="800" height="600"><path fill="none" stroke="#000" stroke-width="1" d="M0,74 L53.5,74 L171.5,84 L278.5,194 L332,194"/><path fill="none" stroke="#000" stroke-width="1" d="M0,84 L53.5,84 L171.5,102 L278.5,165 L332,165"/><path fill="none" stroke="#000" stroke-width="1" d="M0,67 L53.5,67 L171.5,102 L278.5,183 L332,183"/><path fill="none" stroke="#000" stroke-width="1" d="M0,56 L53.5,56 L171.5,127 L278.5,169 L332,169"/><path fill="none" stroke="#000" stroke-width="1" d="M0,130 L53.5,130 L171.5,74 L278.5,148 L332,148"/><path fill="none" stroke="#000" stroke-width="1" d="M0,95 L53.5,95 L171.5,84 L278.5,172 L332,172"/><path fill="none" stroke="#000" stroke-width="1" d="M0,92 L53.5,92 L171.5,95 L278.5,165 L332,165"/><path fill="none" stroke="#000" stroke-width="1" d="M0,106 L53.5,106 L171.5,99 L278.5,148 L332,148"/><path fill="none" stroke="#000" stroke-width="1" d="M0,113 L53.5,113 L171.5,60 L278.5,180 L332,180"/><path fill="none" stroke="#000" stroke-width="1" d="M0,116 L53.5,116 L171.5,46 L278.5,190 L332,190"/><path fill="none" stroke="#000" stroke-width="1" d="M0,60 L53.5,60 L171.5,95 L278.5,197 L332,197"/><path fill="none" stroke="#000" stroke-width="1" d="M0,102 L53.5,102 L171.5,88 L278.5,162 L332,162"/><path fill="none" stroke="#000" stroke-width="1" d="M0,84 L53.5,84 L171.5,123 L278.5,144 L332,144"/><path fill="none" stroke="#000" stroke-width="1" d="M0,84 L53.5,84 L171.5,81 L278.5,187 L332,187"/><path fill="none" stroke="#000" stroke-width="1" d="M0,95 L53.5,95 L171.5,74 L278.5,183 L332,183"/><path fill="none" stroke="#000" stroke-width="1" d="M0,92 L53.5,92 L171.5,99 L278.5,162 L332,162"/><path fill="none" stroke="#000" stroke-width="1" d="M0,95 L53.5,95 L171.5,77 L278.5,180 L332,180"/><path fill="none" stroke="#000" stroke-width="1" d="M0,106 L53.5,106 L171.5,35 L278.5,211 L332,211"/><path fill="none" stroke="#000" stroke-width="1" d="M0,70 L53.5,70 L171.5,116 L278.5,165 L332,165"/><path fill="none" stroke="#000" stroke-width="1" d="M0,127 L53.5,127 L171.5,42 L278.5,183 L332,183"/><path fill="none" stroke="#000" stroke-width="1" d="M0,109 L53.5,109 L171.5,77 L278.5,165 L332,165"/><path fill="none" stroke="#000" stroke-width="1" d="M0,77 L53.5,77 L171.5,109 L278.5,165 L332,165"/><path fill="none" stroke="#000" stroke-width="1" d="M0,99 L53.5,99 L171.5,84 L278.5,169 L332,169"/><path fill="none" stroke="#000" stroke-width="1" d="M0,88 L53.5,88 L171.5,113 L278.5,151 L332,151"/><path fill="none" stroke="#000" stroke-width="1" d="M0,60 L53.5,60 L171.5,106 L278.5,187 L332,187"/><path fill="none" stroke="#000" stroke-width="1" d="M0,99 L53.5,99 L171.5,81 L278.5,172 L332,172"/><path fill="none" stroke="#000" stroke-width="1" d="M0,74 L53.5,74 L171.5,77 L278.5,201 L332,201"/><path fill="none" stroke="#000" stroke-width="1" d="M0,70 L53.5,70 L171.5,99 L278.5,183 L332,183"/><path fill="none" stroke="#000" stroke-width="1" d="M0,70 L53.5,70 L171.5,84 L278.5,197 L332,197"/><path fill="none" stroke="#000" stroke-width="1" d="M0,116 L53.5,116 L171.5,56 L278.5,180 L332,180"/><path fill="none" stroke="#000" stroke-width="1" d="M0,56 L53.5,56 L171.5,137 L278.5,158 L332,158"/><path fill="none" stroke="#000" stroke-width="1" d="M0,39 L53.5,39 L171.5,123 L278.5,190 L332,190"/><path fill="none" stroke="#000" stroke-width="1" d="M0,109 L53.5,109 L171.5,74 L278.5,169 L332,169"/><path fill="none" stroke="#000" stroke-width="1" d="M0,95 L53.5,95 L171.5,95 L278.5,162 L332,162"/><path fill="none" stroke="#000" stroke-width="1" d="M0,60 L53.5,60 L171.5,113 L278.5,180 L332,180"/><path fill="none" stroke="#000" stroke-width="1" d="M0,70 L53.5,70 L171.5,81 L278.5,201 L332,201"/><path fill="none" stroke="#000" stroke-width="1" d="M0,123 L53.5,123 L171.5,56 L278.5,172 L332,172"/><path fill="none" stroke="#000" stroke-width="1" d="M0,123 L53.5,123 L171.5,60 L278.5,169 L332,169"/><path fill="none" stroke="#000" stroke-width="1" d="M0,102 L53.5,102 L171.5,74 L278.5,176 L332,176"/><path fill="none" stroke="#000" stroke-width="1" d="M0,53 L53.5,53 L171.5,95 L278.5,204 L332,204"/><path fill="none" stroke="#000" stroke-width="1" d="M0,99 L53.5,99 L171.5,49 L278.5,204 L332,204"/><path fill="none" stroke="#000" stroke-width="1" d="M0,130 L53.5,130 L171.5,46 L278.5,176 L332,176"/><path fill="none" stroke="#000" stroke-width="1" d="M0,67 L53.5,67 L171.5,99 L278.5,187 L332,187"/><path fill="none" stroke="#000" stroke-width="1" d="M0,74 L53.5,74 L171.5,99 L278.5,180 L332,180"/><path fill="none" stroke="#000" stroke-width="1" d="M0,60 L53.5,60 L171.5,120 L278.5,172 L332,172"/><path fill="none" stroke="#000" stroke-width="1" d="M0,70 L53.5,70 L171.5,95 L278.5,187 L332,187"/><path fill="none" stroke="#000" stroke-width="1" d="M0,116 L53.5,116 L171.5,63 L278.5,172 L332,172"/><path fill="none" stroke="#000" stroke-width="1" d="M0,77 L53.5,77 L171.5,81 L278.5,194 L332,194"/><path fill="none" stroke="#000" stroke-width="1" d="M0,84 L53.5,84 L171.5,95 L278.5,172 L332,172"/><path fill="none" stroke="#000" stroke-width="1" d="M0,88 L53.5,88 L171.5,99 L278.5,165 L332,165"/><path fill="none" stroke="#000" stroke-width="1" d="M0,88 L53.5,88 L171.5,109 L278.5,155 L332,155"/><path fill="none" stroke="#000" stroke-width="1" d="M0,92 L53.5,92 L171.5,67 L278.5,194 L332,194"/><path fill="none" stroke="#000" stroke-width="1" d="M0,84 L53.5,84 L171.5,60 L278.5,208 L332,208"/><path fill="none" stroke="#000" stroke-width="1" d="M0,88 L53.5,88 L171.5,77 L278.5,187 L332,187"/><path fill="none" stroke="#000" stroke-width="1" d="M0,123 L53.5,123 L171.5,49 L278.5,180 L332,180"/><path fill="none" stroke="#000" stroke-width="1" d="M0,95 L53.5,95 L171.5,81 L278.5,176 L332,176"/><path fill="none" stroke="#000" stroke-width="1" d="M0,92 L53.5,92 L171.5,84 L278.5,176 L332,176"/><path fill="none" stroke="#000" stroke-width="1" d="M0,53 L53.5,53 L171.5,102 L278.5,197 L332,197"/><path fill="none" stroke="#000" stroke-width="1" d="M0,70 L53.5,70 L171.5,95 L278.5,187 L332,187"/><path fill="none" stroke="#000" stroke-width="1" d="M0,77 L53.5,77 L171.5,81 L278.5,194 L332,194"/><path fill="none" stroke="#000" stroke-width="1" d="M0,113 L53.5,113 L171.5,74 L278.5,165 L332,165"/><path fill="none" stroke="#000" stroke-width="1" d="M0,109 L53.5,109 L171.5,74 L278.5,169 L332,169"/><path fill="none" stroke="#000" stroke-width="1" d="M0,113 L53.5,113 L171.5,49 L278.5,190 L332,190"/><path fill="none" stroke="#000" stroke-width="1" d="M0,113 L53.5,113 L171.5,84 L278.5,155 L332,155"/><path fill="none" stroke="#000" stroke-width="1" d="M0,74 L53.5,74 L171.5,88 L278.5,190 L332,190"/><path fill="none" stroke="#000" stroke-width="1" d="M0,49 L53.5,49 L171.5,95 L278.5,208 L332,208"/><path fill="none" stroke="#000" stroke-width="1" d="M0,106 L53.5,106 L171.5,84 L278.5,162 L332,162"/><path fill="none" stroke="#000" stroke-width="1" d="M0,46 L53.5,46 L171.5,109 L278.5,197 L332,197"/><path fill="none" stroke="#000" stroke-width="1" d="M0,144 L53.5,144 L171.5,77 L278.5,130 L332,130"/><path fill="none" stroke="#000" stroke-width="1" d="M0,88 L53.5,88 L171.5,102 L278.5,162 L332,162"/><path fill="none" stroke="#000" stroke-width="1" d="M0,102 L53.5,102 L171.5,46 L278.5,204 L332,204"/><path fill="none" stroke="#000" stroke-width="1" d="M0,81 L53.5,81 L171.5,116 L278.5,155 L332,155"/><path fill="none" stroke="#000" stroke-width="1" d="M0,116 L53.5,116 L171.5,81 L278.5,155 L332,155"/><path fill="none" stroke="#000" stroke-width="1" d="M0,88 L53.5,88 L171.5,106 L278.5,158 L332,158"/><path fill="none" stroke="#000" stroke-width="1" d="M0,81 L53.5,81 L171.5,123 L278.5,148 L332,148"/><path fill="none" stroke="#000" stroke-width="1" d="M0,102 L53.5,102 L171.5,88 L278.5,162 L332,162"/><path fill="none" stroke="#000" stroke-width="1" d="M0,70 L53.5,70 L171.5,113 L278.5,169 L332,169"/><path fill="none" stroke="#000" stroke-width="1" d="M0,92 L53.5,92 L171.5,92 L278.5,169 L332,169"/><path fill="none" stroke="#000" stroke-width="1" d="M0,77 L53.5,77 L171.5,88 L278.5,187 L332,187"/><path fill="none" stroke="#000" stroke-width="1" d="M0,95 L53.5,95 L171.5,70 L278.5,187 L332,187"/><path fill="none" stroke="#000" stroke-width="1" d="M0,70 L53.5,70 L171.5,77 L278.5,204 L332,204"/><path fill="none" stroke="#000" stroke-width="1" d="M0,95 L53.5,95 L171.5,74 L278.5,183 L332,183"/><path fill="none" stroke="#000" stroke-width="1" d="M0,81 L53.5,81 L171.5,109 L278.5,162 L332,162"/><path fill="none" stroke="#000" stroke-width="1" d="M0,49 L53.5,49 L171.5,120 L278.5,183 L332,183"/><path fill="none" stroke="#000" stroke-width="1" d="M0,77 L53.5,77 L171.5,81 L278.5,194 L332,194"/><path fill="none" stroke="#000" stroke-width="1" d="M0,60 L53.5,60 L171.5,92 L278.5,201 L332,201"/><path fill="none" stroke="#000" stroke-width="1" d="M0,39 L53.5,39 L171.5,113 L278.5,201 L332,201"/><path fill="none" stroke="#000" stroke-width="1" d="M0,92 L53.5,92 L171.5,84 L278.5,176 L332,176"/><path fill="none" stroke="#000" stroke-width="1" d="M0,81 L53.5,81 L171.5,92 L278.5,180 L332,180"/><path fill="none" stroke="#000" stroke-width="1" d="M0,56 L53.5,56 L171.5,123 L278.5,172 L332,172"/><path fill="none" stroke="#000" stroke-width="1" d="M0,81 L53.5,81 L171.5,63 L278.5,208 L332,208"/><path fill="none" stroke="#000" stroke-width="1" d="M0,109 L53.5,109 L171.5,70 L278.5,172 L332,172"/><path fill="none" stroke="#000" stroke-width="1" d="M0,53 L53.5,53 L171.5,109 L278.5,190 L332,190"/><path fill="none" stroke="#000" stroke-width="1" d="M0,95 L53.5,95 L171.5,92 L278.5,165 L332,165"/><path fill="none" stroke="#000" stroke-width="1" d="M0,123 L53.5,123 L171.5,84 L278.5,144 L332,144"/><path fill="none" stroke="#000" stroke-width="1" d="M0,109 L53.5,109 L171.5,56 L278.5,187 L332,187"/><path fill="none" stroke="#000" stroke-width="1" d="M0,95 L53.5,95 L171.5,81 L278.5,176 L332,176"/><path fill="none" stroke="#000" stroke-width="1" d="M0,113 L53.5,113 L171.5,70 L278.5,169 L332,169"/><path fill="none" stroke="#000" stroke-width="1" d="M0,81 L53.5,81 L171.5,109 L278.5,162 L332,162"/><path fill="none" stroke="#000" stroke-width="1" d="M0,74 L53.5,74 L171.5,74 L278.5,204 L332,204"/></svg>