<svg><g transform="translate(0 0)"><polygon id="4" class="bin" points="1.875,0.0 -0.77665042945,1.09834957055 -1.875,3.75 -1.875,1203.749999 -0.77665042945,1206.40164943 1.875,1207.499999 268.126727498,1207.499999 270.811754304,1206.36784755 271.875524054,1203.65500223 269.974818428,1128.64867779 271.518761146,1124.58007396 275.470570594,1122.75785051 298.290058552,1121.75245626 300.834378387,1120.59872701 301.874999,1118.00609064 301.874999,1069.59202238 300.77612416,1066.93984678 298.123513462,1065.84202267 249.133371488,1065.8614298 245.068798059,1064.17911773 243.385303681,1060.11503386 243.391826239,998.139205414 245.059125212,994.091659409 249.093171207,992.391957247 258.424122938,992.316148949 261.053969304,991.209233351 262.143652793,988.57220018 262.214244813,943.91242591 262.259645389,943.134508596 265.607724829,914.15189652 265.642921255,913.891107218 279.25240603,825.805391656 278.395871119,822.794995388 275.554339165,821.482808702 268.881798135,821.468644139 264.824626199,819.77944536 263.147765445,815.717158487 263.275468405,676.350888972 264.96865574,672.283309262 269.044923477,670.611146174 298.109073176,670.734579432 300.771012809,669.641888343 301.874999,666.98461325 301.874999,655.800960613 300.757819281,653.130612814 289.969308948,642.493717941 289.629647984,642.133816221 261.975583038,610.633633973 260.587941261,606.232959833 261.731739566,604.25629428 261.577932185,600.256270413 252.314611985,586.757826015 251.488058431,585.120432604 242.463334187,559.072174847 239.492474328,556.593772169 237.928938365,556.352240811 235.335864835,552.753100393 230.68059657,532.666017348 231.458133098,528.246400787 232.782938868,527.353815346 234.418072901,523.861722417 233.019835937,510.210811377 230.694875846,507.11628003 228.811087653,506.354709325 227.191867886,502.050426801 228.281297899,481.739664574 228.339242622,481.144679602 233.627683964,443.773572442 233.905001887,442.586114578 240.434286626,422.769018821 240.679462877,422.132910467 245.423886393,411.436891305 248.280609529,408.535224112 251.614267563,408.291425409 254.862750134,410.746603726 294.954779946,474.200080953 297.572270203,475.906072265 300.57344412,475.037385486 301.874999,472.197030492 301.874999,376.529840046 301.017692249,374.143456639 298.83775859,372.848199954 297.365096956,372.563095035 288.923988601,367.00925273 286.117334178,366.466827896 283.743861295,368.059988348 282.609769666,369.758917593 282.519848936,369.89030317 280.657911868,372.544362657 280.653452436,372.550733302 275.783891699,379.522653779 272.130848444,381.881715094 267.870724317,381.009225709 262.982218235,377.738104048 260.165251658,377.176759131 257.777450374,378.77325963 253.710316585,384.868298707 253.679082755,384.915884256 246.683075559,395.752887523 246.644499131,395.811975725 237.252071771,410.038486315 234.04062131,412.405872568 230.76921608,412.180308461 227.913075361,409.394560472 225.771389129,404.913362661 222.652566861,402.789750046 221.242287249,402.689984348 216.841977282,400.038837626 216.404314176,394.920267734 229.517150796,362.683638999 230.058582598,361.625442725 239.762995895,346.130463216 248.406674121,332.329995565 253.15659382,324.738551346 258.331160043,316.540868032 267.431810246,302.121292169 269.147208739,299.406169689 269.641455654,296.607107324 268.030402257,294.265411978 265.23961292,293.726408258 262.872420701,295.299758549 247.05165638,318.649859555 243.351200478,321.073997956 239.025310242,320.148528058 218.703408931,306.062406789 216.331814315,302.420898522 217.184813169,298.159744167 241.408440687,261.585736332 241.954230664,258.755322673 240.33019972,256.3737997 233.135468791,251.682549721 233.096827092,251.657689845 218.705470116,242.523278865 216.16707434,238.872416185 216.997315878,234.504012547 228.201560114,217.606241421 229.930953074,214.9988205 234.436381611,211.903844731 235.141164123,211.742790505 236.671410763,209.342989638 236.600613768,209.012196313 237.523151303,203.421440389 241.159147542,197.428609385 241.653852559,194.877678791 240.371674923,192.617590196 237.928240426,191.733504337 231.131216019,191.77856289 227.04467731,190.109501338 225.348960774,186.033951005 225.360645371,66.4036716673 227.17057132,62.2254546322 227.79468553,62.0014103884 229.589689731,60.6367860068 230.27763546,58.4894689699 230.464236859,18.5786067999 232.118322785,14.5689496939 234.380445893,13.5954944249 236.414024712,11.4551345403 237.112630641,9.57187622167 241.29540032,7.80087321565 260.608670018,7.93626824682 263.125134021,6.99020177277 264.361735017,4.60305895648 263.682903374,2.00174766207 261.437534797,0.52325085608 259.445903389,0.0868904627077 258.643327213,0.0 1.875,0.0 " moovel_rot="0" moovel_centroid="127.33887019111297,624.3647426876344" transform="translate(1.875 0)"></polygon><g transform="translate(441.9671773 -351.04685689999997) rotate(0)"><polygon id="32401743" class="tile" points="-278.446996335,1547.61013014 -288.312829177,1425.12910334 -278.500215589,1424.3294015 -285.167252919,1340.91880952 -345.692230191,1345.84937845 -346.048995979,1351.73498766 -351.679539564,1352.39912929 -343.316223243,1480.97239436 -339.74379957,1481.11311112 -339.094530537,1488.340249 -340.277834031,1491.47802436 -343.674935742,1493.85816844 -348.838851633,1493.97807483 -349.165152348,1489.84334044 -439.469102266,1492.31243871 -438.129113046,1526.31621589 -386.857770156,1523.93628706 -385.489292252,1534.93663941 -364.173286364,1534.64520687 -363.744519181,1538.87083032 -338.408989479,1536.86252394 -340.836204336,1500.93594767 -327.397419983,1499.19988412 -328.566426732,1491.69133937 -327.073123308,1486.70273943 -322.85181285,1486.41817369 -318.561119044,1551.0559876 -278.446996335,1547.61013014 " moovel_rot="-70.2" moovel_centroid="-330.494635686,1454.95216469"></polygon></g><g transform="translate(549.3004765000001 -595.2464582999999) rotate(0)"><polygon id="25699158" class="tile" points="-544.097680729,1555.39844796 -546.800763923,1728.52019722 -479.602945216,1729.67535159 -479.80742043,1573.85263598 -484.69384167,1558.06303685 -536.266314225,1551.0559876 -544.097680729,1555.39844796 " moovel_rot="64.1" moovel_centroid="-512.858420018,1642.786558"></polygon></g><g transform="translate(136.3769732 -354.30473010000003) rotate(0)"><polygon id="236682867" class="tile" points="-16.8983033044,1201.72783734 -18.1996011501,1201.68221155 -34.6766083101,1201.48896329 -39.3295250336,1201.31581232 -60.9427372532,1201.0 -61.6559927242,1285.34018713 -61.8753002731,1339.54465797 -1.0,1340.91880952 -1.11780468132,1238.32743021 -17.2780464228,1237.91730596 -16.8983033044,1201.72783734 " moovel_rot="-69.7" moovel_centroid="-32.91184887238923,1274.8577785626098"></polygon></g><g transform="translate(209.7104959 -1041.631976) rotate(0)"><polygon id="136584253" class="tile" points="0.0,1899.57268583 -21.711627609,1899.5467765 -21.7274102736,1916.43294691 -13.2450479297,1916.44452941 -13.2505272865,1923.2253749 -13.2571348728,1931.93735113 -25.971065623,1931.92613315 -25.9965466755,1962.83472012 -43.6447040747,1962.81861711 -43.6211689961,1932.12935849 -54.1656304782,1932.11622457 -54.1595776741,1923.31643229 -54.1574249452,1916.0086609 -47.9178237848,1916.0170346 -47.9087043661,1899.13040322 -69.2456824172,1899.10874524 -69.33553088,2026.49614432 -0.0956833641976,2026.56477881 0.0,1899.57268583 " moovel_rot="-4.0" moovel_centroid="-34.75251100876711,1971.00151975"></polygon></g><g transform="translate(508.6968672 -1204.2956662000001) rotate(0)"><polygon id="330477974" class="tile" points="-506.06674269,2160.17104739 -447.280276138,2119.44154365 -444.229463697,2053.11553022 -444.360235421,2039.8023383 -459.665916162,2031.79751045 -480.686731682,2026.56477881 -506.196874696,2047.89590493 -506.06674269,2160.17104739 " moovel_rot="-27.9" moovel_centroid="-477.457795173,2086.87837634"></polygon></g><g transform="translate(376.77444790000004 -481.6710184000001) rotate(0)"><polygon id="139744301" class="tile" points="-217.274728933,1571.51958699 -205.516253242,1551.0559876 -137.692099893,1551.80283339 -137.786954449,1649.65137343 -150.171023164,1649.87653589 -185.425792104,1647.57616553 -182.62056198,1632.66751676 -182.098839529,1622.39828379 -183.1610696,1612.37232661 -185.32707042,1603.41349291 -191.770727626,1592.50217119 -198.365623493,1584.87994166 -208.983795189,1577.49354608 -217.274728933,1571.51958699 " moovel_rot="-24.8" moovel_centroid="-167.215441098,1594.73204259"></polygon></g><g transform="translate(300.1521088 -1292.5177472) rotate(0)"><polygon id="350363363" class="tile" points="-96.9269339103,2127.51241185 -137.354082272,2084.92448135 -96.9684870761,2043.86722105 -113.795899443,2026.56477881 -184.862902036,2094.6495807 -125.033215015,2156.68449846 -96.9269339103,2127.51241185 " moovel_rot="-19.3" moovel_centroid="-136.36788631,2095.00175298"></polygon></g><g transform="translate(289.8683598 -1232.5436663) rotate(0)"><polygon id="172186430" class="tile" points="-63.2394122172,2026.56477881 -75.3703257676,2026.93575683 -74.4660083381,2297.41502546 -63.2912320416,2297.29666901 -63.2394122172,2026.56477881 " moovel_rot="-93.3" moovel_centroid="-69.0938257825,2160.20202425"></polygon></g><g transform="translate(312.58886689999997 -455.2943345) rotate(0)"><polygon id="132475260" class="tile" points="-246.023428203,1248.31487965 -264.792796531,1254.20283979 -261.304050542,1266.91542469 -310.058151378,1278.97710888 -310.088871652,1212.23156665 -304.838878849,1211.04200655 -260.532480187,1201.0 -246.023428203,1248.31487965 " moovel_rot="27.9" moovel_centroid="-282.509883199,1238.9735515888317"></polygon></g><g transform="translate(419.0919292 -1170.2869415999999) rotate(0)"><polygon id="240272613" class="tile" points="-313.700751187,1899.43517489 -312.002556852,1911.19539614 -306.366601208,1909.56526463 -294.446980095,1937.14030998 -299.641829761,1939.48536385 -297.350630222,1944.55246966 -317.621738284,1953.69274065 -316.210265932,1956.79666866 -309.722913283,1971.12792043 -294.466604744,2004.77679686 -308.058565185,2010.36855565 -311.04039903,2012.64793721 -342.693308299,1970.42526613 -338.452056823,1899.10874524 -313.700751187,1899.43517489 " moovel_rot="-40.9" moovel_centroid="-320.660355038,1950.51968893"></polygon></g><g transform="translate(386.7499487 -1090.6124101) rotate(0)"><polygon id="28119136" class="tile" points="-251.151783097,1729.67535159 -205.346675431,1822.57194366 -258.424891352,1853.91521154 -257.750301531,1769.12237462 -248.546227898,1763.19294204 -258.448988474,1741.79591263 -251.151783097,1729.67535159 " moovel_rot="41.8" moovel_centroid="-239.576917241,1800.63644976"></polygon></g><g transform="translate(196.3205281 -1639.2592432) rotate(0)"><polygon id="241084906" class="tile" points="-140.453624063,2372.90824585 -140.431068244,2297.41502546 -193.395910506,2300.5898919 -193.822235913,2312.12056303 -184.496886364,2313.68922724 -183.853509012,2365.01828899 -178.280061959,2363.30580859 -161.07467523,2383.73453975 -140.453624063,2372.90824585 " moovel_rot="27.7" moovel_centroid="-162.436346101,2335.79455925"></polygon></g><g transform="translate(225.0214864 -1382.2990484000002) rotate(0)"><polygon id="326746320" class="tile" points="-18.0717508726,2130.37142065 -0.0508217029274,2128.93090389 -3.57669044249,2063.40192962 0.0,2036.91680593 -56.1757270278,2026.56477881 -61.2394122172,2056.14128626 -54.2254957655,2056.90481398 -27.3604197085,2061.84572851 -34.547556052,2100.80484373 -20.4465411281,2099.85072746 -18.0717508726,2130.37142065 " moovel_rot="71.1" moovel_centroid="-22.826740760791992,2069.28824448"></polygon></g><g transform="translate(123.5347722 -707.8070004000001) rotate(0)"><polygon id="363763440" class="tile" points="-11.53873963,1340.91880952 -59.4473943125,1384.00894917 -10.3213361839,1438.81901009 -0.0269182104617,1430.57323012 0.0,1352.50011701 -11.53873963,1340.91880952 " moovel_rot="47.4" moovel_centroid="-20.9313693691617,1388.49452323"></polygon></g><g transform="translate(557.6128407 -735.0775193000001) rotate(0)"><polygon id="27429598" class="tile" points="-308.359193544,1720.11932388 -308.2687583,1551.11599164 -325.927702217,1551.0559876 -325.961435478,1618.72546341 -326.020450569,1720.07164817 -315.197243783,1720.10146669 -308.359193544,1720.11932388 " moovel_rot="-42.8" moovel_centroid="-317.143283579,1635.59327063"></polygon></g><g transform="translate(473.29953 -1162.599345) rotate(0)"><polygon id="31016300" class="tile" points="-470.799535133,1741.36206965 -470.799144481,1817.0832878 -468.708394182,1818.82499185 -429.439995091,1814.26952994 -431.198623348,1804.36169687 -432.737976455,1733.98709548 -436.632546502,1729.67535159 -462.906728375,1738.23359479 -470.799535133,1741.36206965 " moovel_rot="78.8" moovel_centroid="-451.016490357,1776.16788104"></polygon></g><g transform="translate(224.35001490000002 -663.7255306) rotate(0)"><polygon id="159576935" class="tile" points="-175.529487528,1317.41698742 -132.329902078,1300.56825563 -167.65129063,1201.0 -175.505493789,1203.62427569 -175.511558684,1242.9222385 -175.509167293,1245.71387242 -175.514416729,1248.42497332 -175.529487528,1317.41698742 " moovel_rot="-76.8" moovel_centroid="-160.724495981,1268.008099866075"></polygon></g><g transform="translate(160.5825588 -1161.2288147) rotate(0)"><polygon id="25906867" class="tile" points="-11.5881607579,1789.67722548 -11.6488996917,1743.47227521 -66.0480010619,1729.67535159 -66.4427893993,1789.2935661 -11.5881607579,1789.67722548 " moovel_rot="-51.8" moovel_centroid="-40.0906879198,1762.9125589"></polygon></g><g transform="translate(554.4608441 -1037.3816487) rotate(0)"><polygon id="182863191" class="tile" points="-345.926173402,1551.0559876 -368.545131986,1602.6542273 -367.896620308,1622.48155281 -345.597094924,1684.15723564 -327.077150135,1676.56726029 -347.845755964,1618.79631468 -349.996020394,1608.07648112 -347.14214212,1601.17196908 -327.020450569,1558.82838027 -345.926173402,1551.0559876 " moovel_rot="-8.7" moovel_centroid="-348.844543937,1617.41673817"></polygon></g><g transform="translate(428.95957369999996 -1042.9867371) rotate(0)"><polygon id="42210834" class="tile" points="-292.579812653,1616.94634288 -247.816851162,1618.52402442 -247.912623524,1553.8274174 -264.026565932,1552.73937782 -278.562661098,1551.75713146 -290.485588068,1551.0559876 -292.579812653,1616.94634288 " moovel_rot="-12.6" moovel_centroid="-269.776847349,1585.33675742"></polygon></g><g transform="translate(601.3520685 -211.1094440999999) rotate(0)"><polygon id="97946967" class="tile" points="-434.167760215,1201.0 -393.270320563,1201.52406654 -393.509589126,1270.79602647 -434.050807377,1269.70402618 -434.167760215,1201.0 " moovel_rot="80" moovel_centroid="-413.721292935,1235.7063695115637"></polygon></g><g transform="translate(616.4864762 -871.2308491000001) rotate(0)"><polygon id="40988438" class="tile" points="-485.06996299,1443.9923024 -484.962595185,1348.48679952 -502.523600982,1349.72552768 -503.284379061,1340.91880952 -518.660313153,1342.05939827 -519.768733863,1355.70194719 -512.91899634,1355.95510425 -513.906471032,1388.70823796 -515.605936176,1388.73716156 -516.715223019,1419.60305509 -516.856253948,1428.07450167 -514.496413727,1426.48301869 -512.033659496,1425.27961514 -503.224348978,1424.84012065 -501.307107333,1423.91386973 -499.663513711,1422.16874607 -498.150531128,1435.91019987 -485.06996299,1443.9923024 " moovel_rot="-32.2" moovel_centroid="-500.047044358,1388.97611727"></polygon></g><g transform="translate(344.4544372 -1537.0959051) rotate(0)"><polygon id="284166421" class="tile" points="-296.660233944,2072.12378168 -323.066080114,2075.51015101 -320.244545823,2097.78773566 -341.954434529,2099.17348644 -341.930832348,2026.56477881 -304.510060423,2028.10849459 -296.660233944,2072.12378168 " moovel_rot="29.1" moovel_centroid="-323.526107615,2058.58141629"></polygon></g><g transform="translate(582.007021 -1276.2743111) rotate(0)"><polygon id="50282585" class="tile" points="-360.269967231,1780.8732087 -360.394185607,1729.67535159 -408.251531304,1730.95516329 -408.333546858,1781.63259044 -360.269967231,1780.8732087 " moovel_rot="71.4" moovel_centroid="-384.271122208,1755.80143686"></polygon></g><g transform="translate(451.0897652 -1588.8113897) rotate(0)"><polygon id="23914318" class="tile" points="-406.604732651,2078.00539132 -373.728112455,2078.0556427 -373.735394179,2070.65497256 -359.168625149,2070.67869424 -359.18608964,2026.63858157 -406.629560091,2026.56477881 -406.604732651,2078.00539132 " moovel_rot="-25.5" moovel_centroid="-383.656542502,2051.30266388"></polygon></g><g transform="translate(406.4484897 -1623.909813) rotate(0)"><polygon id="358589964" class="tile" points="-242.70340823,2034.73552416 -242.647912523,2089.41095992 -287.764283856,2097.07113634 -290.463667816,2075.93622104 -284.58273326,2074.28799245 -284.987269451,2064.70492377 -281.982493291,2060.59064699 -274.105185551,2059.45634699 -274.444803709,2046.91405447 -268.988914629,2041.92657083 -257.406325303,2040.26561401 -257.362027253,2027.81776826 -251.732998245,2026.56477881 -242.70340823,2034.73552416 " moovel_rot="61.5" moovel_centroid="-262.650137566,2067.02733573"></polygon></g><g transform="translate(582.3869187 -1193.7089244) rotate(0)"><polygon id="219111640" class="tile" points="-384.112482368,1640.53225983 -381.477129571,1638.22164481 -378.612248991,1634.09798653 -378.759073505,1624.72729639 -380.774587203,1624.67857674 -379.187771348,1586.48565166 -382.363494394,1586.30219316 -381.649513285,1568.15962091 -383.669733284,1568.09839943 -383.43539149,1559.46209384 -378.760075603,1559.59564203 -378.687952796,1551.0559876 -383.882310875,1551.281649 -401.451038928,1558.23493487 -400.726933876,1559.97494756 -397.813380912,1567.04272511 -407.243918397,1570.94420165 -398.830745912,1591.30734787 -410.950518254,1596.3195371 -416.09129697,1598.4587557 -396.492962233,1642.83109066 -389.375543595,1642.87442044 -384.112482368,1640.53225983 " moovel_rot="-69.4" moovel_centroid="-392.984604271,1599.23128828"></polygon></g><g transform="translate(208.8600433 -809.57105) rotate(0)"><polygon id="374311905" class="tile" points="-176.633899973,1202.62728102 -176.529487528,1295.32202134 -206.391288284,1287.55325819 -192.578899019,1201.0 -176.633899973,1202.62728102 " moovel_rot="51.2" moovel_centroid="-188.317708424,1251.2586657910433"></polygon></g><g transform="translate(392.49697860000003 -1243.8498367000002) rotate(0)"><polygon id="26774610" class="tile" points="-144.187951299,1899.15868499 -162.53942767,1899.10874524 -162.528153522,2007.36256915 -144.181465562,2007.40784788 -144.187951299,1899.15868499 " moovel_rot="-46.0" moovel_centroid="-153.359315369,1953.25710771"></polygon></g><g transform="translate(585.8548216 -1371.2191333) rotate(0)"><polygon id="177128148" class="tile" points="-471.847646031,1730.95655169 -478.533185977,1729.67535159 -517.954842869,1758.78561808 -512.963347626,1767.03649532 -499.192293915,1768.53024851 -499.004796273,1784.40417719 -488.562501985,1784.93995148 -488.951483408,1809.08555753 -471.799535133,1809.39509006 -471.847646031,1730.95655169 " moovel_rot="84.5" moovel_centroid="-486.733464379,1767.34299472"></polygon></g><g transform="translate(460.04077229999996 -1414.0829542) rotate(0)"><polygon id="283586625" class="tile" points="-328.849929039,1826.95794677 -341.170283529,1810.1296814 -332.096752802,1803.3514994 -334.005345081,1800.80143918 -311.188506664,1783.71068188 -322.263505838,1768.96245717 -317.680730222,1765.52640101 -321.023565655,1761.07955917 -341.140831936,1734.90004995 -332.40722217,1729.67535159 -289.19771482,1785.29429243 -293.280093602,1791.02745545 -292.279849539,1796.01540797 -328.849929039,1826.95794677 " moovel_rot="-41.5" moovel_centroid="-316.032392929,1784.70885689"></polygon></g><g transform="translate(592.0270317000001 -1695.2890317000001) rotate(0)"><polygon id="303591168" class="tile" points="-550.921936023,2026.56477881 -550.913422242,2081.59291067 -569.607048736,2081.82150337 -589.178233728,2081.8076175 -589.527078076,2034.46449588 -574.879202243,2034.43146256 -574.941433146,2026.57559025 -550.921936023,2026.56477881 " moovel_rot="0.6" moovel_centroid="-569.467836334,2055.47546833"></polygon></g><g transform="translate(420.46272669999996 -1587.1050267) rotate(0)"><polygon id="416508738" class="tile" points="-372.395851323,1968.17642284 -352.180231882,1968.17836463 -352.1734162,1899.12278172 -399.650543761,1899.10874524 -399.656148031,1913.37892623 -372.389583921,1913.38147182 -372.393931552,1967.83022414 -372.395851323,1968.17642284 " moovel_rot="-27.9" moovel_centroid="-367.457296768,1927.67664296"></polygon></g><g transform="translate(358.206143 -1043.1011500000002) rotate(0)"><polygon id="320444638" class="tile" points="-179.323605691,1347.73141623 -182.752409728,1367.02159165 -177.51074692,1367.95328801 -181.538771603,1390.60927311 -143.076490872,1397.46923803 -135.623247653,1355.53337368 -165.043065557,1350.02348389 -163.990537963,1344.07644546 -181.689827967,1340.91880952 -182.748662046,1346.86364806 -179.323605691,1347.73141623 " moovel_rot="-19.2" moovel_centroid="-160.555049953,1370.54180934"></polygon></g><g transform="translate(299.7469545 -1625.3207468) rotate(0)"><polygon id="106886294" class="tile" points="-200.268637223,1916.32193209 -212.240091328,1914.15579617 -212.616404238,1908.49543066 -210.502254145,1905.06661629 -220.176575383,1899.10874524 -219.398449724,1941.96115238 -226.455687197,1942.2979182 -225.860654141,1977.93965996 -226.474488101,1984.11946331 -213.888496046,1981.50119705 -198.458622115,1982.01783153 -200.268637223,1916.32193209 " moovel_rot="-65.4" moovel_centroid="-212.036267825,1948.56287309"></polygon></g><g transform="translate(429.9647547 -1466.450124) rotate(0)"><polygon id="419410232" class="tile" points="-259.448988474,1729.67535159 -288.19771482,1731.03804273 -285.253187228,1795.88061067 -260.061678512,1795.16823221 -259.465427427,1789.2877171 -259.448988474,1729.67535159 " moovel_rot="74.4" moovel_centroid="-273.100092678,1762.31309601"></polygon></g><g transform="translate(592.6984253 -1291.3805821) rotate(0)"><polygon id="24826749" class="tile" points="-549.181603029,1551.0559876 -547.800763923,1593.32243383 -568.623597213,1597.68330179 -590.194311362,1602.13817245 -590.198442255,1562.20372089 -569.73833065,1556.79354327 -549.181603029,1551.0559876 " moovel_rot="-9.7" moovel_centroid="-569.116636162,1577.28051828"></polygon></g><g transform="translate(211.2088518 -1518.6930794999998) rotate(0)"><polygon id="32195977" class="tile" points="-97.3656688971,1819.48630943 -106.469098947,1819.1492778 -106.441569325,1729.67535159 -93.0936493139,1731.31752638 -91.4263057447,1754.9731562 -98.269508022,1766.26093044 -73.7184671942,1781.36109553 -97.3656688971,1819.48630943 " moovel_rot="-48.9" moovel_centroid="-96.3586553894,1777.77666373"></polygon></g><g transform="translate(303.254973 -210.54553080000005) rotate(0)"><polygon id="6198584" class="tile" points="-228.565228732,1339.03260288 -228.554137033,1329.68108128 -228.468323224,1213.90700137 -228.459270138,1201.0 -219.095332822,1201.00414412 -219.195452399,1339.03999196 -228.565228732,1339.03260288 " moovel_rot="-28.1" moovel_centroid="-223.827719285,1270.0227074347004"></polygon></g><g transform="translate(208.0344619 -1515.3485273000001) rotate(0)"><polygon id="60001366" class="tile" points="-160.239187126,1731.13275817 -134.38619353,1729.67535159 -133.353724039,1741.65924144 -146.973300567,1742.34967513 -143.400575748,1821.82640241 -155.175028059,1822.36439393 -156.530617583,1808.50846764 -158.733375953,1786.01855017 -160.240237846,1764.69184233 -160.245035183,1739.56425985 -160.239187126,1731.13275817 " moovel_rot="74.9" moovel_centroid="-150.799408811,1771.12701134"></polygon></g><g transform="translate(519.7775875 -1684.9495450999998) rotate(0)"><polygon id="28379273" class="tile" points="-480.24006061,1940.61618387 -517.277583464,1940.59475591 -517.254328694,1899.10874524 -480.216713354,1899.13020468 -480.231216608,1908.29753491 -480.24006061,1940.61618387 " moovel_rot="71.2" moovel_centroid="-498.749510067,1919.86294923"></polygon></g><g transform="translate(653.1246494 -993.1865992) rotate(0)"><polygon id="108734636" class="tile" points="-466.961927156,1201.0 -478.692340487,1210.9850788 -452.522100946,1242.28062917 -485.260657232,1235.38889787 -490.948460608,1249.73257664 -442.391696544,1259.37857741 -442.393301844,1229.77456889 -466.961927156,1201.0 " moovel_rot="11.6" moovel_centroid="-462.029871468,1235.2767915220013"></polygon></g><g transform="translate(201.88592390000002 -1349.856318) rotate(0)"><polygon id="270846373" class="tile" points="-75.1760812201,1600.0252609 -75.1652354274,1596.54335483 -75.164919371,1593.77012116 -74.6229636503,1593.27195191 -74.6453057418,1589.77772388 -75.1636977075,1589.28614752 -75.1651530087,1588.89192771 -75.1391454004,1551.44924868 -71.8627327839,1551.33291833 -59.9392671935,1551.51953554 -59.9823989401,1558.84487467 -43.5576467684,1558.92344559 -43.4878163379,1551.0559876 -38.5141841933,1552.06243415 -34.4872160416,1551.82227964 -33.6070170021,1555.4766575 -33.4149316093,1558.45768365 -32.6772697221,1565.23057047 -30.8924853502,1577.49026775 -75.1760812201,1600.0252609 " moovel_rot="-88.2" moovel_centroid="-56.2767538741,1572.27139952"></polygon></g><g transform="translate(625.2384918 -1182.4569053) rotate(0)"><polygon id="281982083" class="tile" points="-520.768733863,1358.44330955 -522.774805544,1378.78901375 -525.498738809,1381.04768414 -525.47704403,1412.43360214 -542.599278222,1408.57064304 -545.902904265,1404.65304473 -545.930976634,1340.91880952 -533.107331202,1341.29716059 -533.101005766,1345.64997558 -525.067188292,1345.34515337 -525.402709719,1355.22079933 -520.768733863,1358.44330955 " moovel_rot="-81.1" moovel_centroid="-534.978282902,1375.7082641"></polygon></g><g transform="translate(83.11663340000001 -1058.2266319) rotate(0)"><polygon id="168249469" class="tile" points="-28.8924853502,1558.57206494 0.0,1551.0559876 -0.0194736080244,1562.75937138 -0.080732976459,1616.49041226 -0.0944816032425,1625.03711114 -9.71782077122,1627.64054344 -28.8924853502,1558.57206494 " moovel_rot="72.5" moovel_centroid="-10.474563373873345,1584.62124558"></polygon></g><g transform="translate(566.3422349 -1052.5883618) rotate(0)"><polygon id="27073481" class="tile" points="-503.543666401,1201.0 -491.948460608,1213.98667368 -502.144218225,1222.92378407 -494.830219227,1231.31583854 -498.900739262,1235.02767257 -491.964205873,1246.19543119 -520.733457703,1263.62166736 -524.391638104,1262.83078441 -525.343677638,1261.56665727 -526.328059577,1259.31694825 -526.713974215,1256.79854704 -527.108500573,1232.68159854 -525.697906988,1218.27637256 -524.516653682,1218.47775366 -521.40698826,1216.70051454 -503.543666401,1201.0 " moovel_rot="28.0" moovel_centroid="-511.334138334,1233.5567355368053"></polygon></g><g transform="translate(289.7731729 -1751.9090204000001) rotate(0)"><polygon id="85266785" class="tile" points="-282.388494112,1899.10874524 -282.448106434,1961.07179906 -255.208225343,1960.41897703 -255.729640335,1913.64427271 -262.418794176,1911.45490664 -275.393228289,1904.15381534 -282.388494112,1899.10874524 " moovel_rot="-84.1" moovel_centroid="-269.595215071,1933.99335414"></polygon></g><g transform="translate(281.6446292 -1671.8979667) rotate(0)"><polygon id="447035880" class="tile" points="-67.6415655088,1899.10874524 -72.7184671942,1898.74605166 -72.6704340119,1729.82728926 -67.4427893993,1729.67535159 -67.6415655088,1899.10874524 " moovel_rot="-83.5" moovel_centroid="-70.1167000055,1813.9279464"></polygon></g><g transform="translate(205.0011136 -1265.7271247) rotate(0)"><polygon id="26496357" class="tile" points="-183.752409728,1340.91880952 -188.348196814,1340.92103668 -202.469148485,1340.94618587 -202.501109376,1408.34084251 -193.343198651,1408.32857423 -183.78441682,1408.31337268 -183.752409728,1340.91880952 " moovel_rot="26.3" moovel_centroid="-193.126720509,1374.62895806"></polygon></g><g transform="translate(418.4929735 -1104.5940194999998) rotate(0)"><polygon id="272795281" class="tile" points="-371.281296491,1201.0 -376.940491782,1202.05908961 -391.685912459,1204.81862008 -392.264892334,1218.79030252 -392.270320563,1257.86655759 -365.152996646,1252.04623542 -368.330414847,1236.22975331 -364.480140866,1235.45356311 -371.281296491,1201.0 " moovel_rot="10.6" moovel_centroid="-379.818200284,1229.8376084925544"></polygon></g><g transform="translate(225.1731112 -1652.0338546) rotate(0)"><polygon id="131333240" class="tile" points="-114.569959733,1730.19890033 -116.068554785,1858.51799198 -107.469098947,1858.9795908 -107.638110684,1729.67535159 -114.569959733,1730.19890033 " moovel_rot="50.7" moovel_centroid="-111.443381268,1796.65511371"></polygon></g><g transform="translate(194.21487009999998 -1811.3235307) rotate(0)"><polygon id="223253487" class="tile" points="-135.249870567,1941.64807846 -115.801549295,1941.68463353 -115.789959983,1929.43156614 -98.8464313441,1929.46938253 -98.8109994144,1899.13375595 -107.128063677,1899.11212054 -110.398560712,1899.10874524 -110.407620876,1903.27078455 -123.414197402,1903.24439299 -132.817039863,1903.22539988 -135.457055779,1904.38137458 -135.952878393,1907.12233609 -135.249870567,1941.64807846 " moovel_rot="-80.3" moovel_centroid="-118.355676803,1919.43892557"></polygon></g><g transform="translate(218.61741370000001 -1890.1189866) rotate(0)"><polygon id="31240468" class="tile" points="-76.3703257676,2026.57570082 -95.9202547407,2026.56477881 -95.9269339103,2086.71193515 -76.3836841067,2086.71193515 -76.3703257676,2026.57570082 " moovel_rot="0" moovel_centroid="-86.1505951081,2056.63937437"></polygon></g><g transform="translate(206.65506010000001 -1260.6063859) rotate(0)"><polygon id="158419828" class="tile" points="-84.0497266332,1392.05220316 -61.4473943125,1392.04560525 -61.7518385278,1366.86057764 -61.4631565196,1340.91880952 -84.0654888406,1340.92540707 -84.0497266332,1392.05220316 " moovel_rot="0.1" moovel_centroid="-72.8304484481,1366.48469482"></polygon></g><g transform="translate(274.9555844 -2239.6241889000003) rotate(0)"><polygon id="447035878" class="tile" points="-98.273118546,2438.9298533 -103.424447559,2438.78403348 -103.388995206,2297.41502546 -98.2907650382,2298.15846473 -98.273118546,2438.9298533 " moovel_rot="-83.5" moovel_centroid="-100.846162392,2368.44340354"></polygon></g><g transform="translate(579.4040921999999 -1996.8587827) rotate(0)"><polygon id="375398055" class="tile" points="-526.685215327,2090.85369326 -525.792573839,2089.66114235 -525.99684268,2089.05568768 -526.006651204,2088.40789607 -525.831003636,2087.79419865 -525.48791565,2087.27004548 -525.004414371,2086.86990554 -524.424795865,2086.62862248 -523.798612288,2086.57691868 -523.844820249,2028.09638754 -528.01652011,2026.56477881 -548.639578496,2066.86255403 -549.913422242,2070.99845547 -548.734976174,2076.44492372 -544.777124753,2079.93790182 -536.397553167,2085.03331172 -526.685215327,2090.85369326 " moovel_rot="-38.1" moovel_centroid="-533.458177717,2062.26170232"></polygon></g><g transform="translate(515.4920715999999 -1519.7525434) rotate(0)"><polygon id="275251366" class="tile" points="-436.550988012,1551.0559876 -454.932752338,1551.10029673 -454.8855118,1606.65605117 -443.990022455,1606.62975287 -436.522791432,1606.61797369 -436.545093598,1579.98212074 -435.688888731,1579.97589143 -435.698307015,1573.45952901 -436.529146495,1573.45736916 -436.550988012,1551.0559876 " moovel_rot="18.3" moovel_centroid="-445.671318678,1578.83781603"></polygon></g><g transform="translate(670.1448705 -1981.7222863999998) rotate(0)"><polygon id="171879617" class="tile" points="-507.212497644,2096.1770817 -507.196874696,2026.57210007 -522.786839758,2026.56477881 -522.791167087,2032.44374429 -522.798612288,2058.19739957 -518.642086587,2058.19640276 -518.639956796,2061.53086439 -518.644635924,2064.65671027 -519.934456966,2064.66004958 -519.942433724,2096.17188688 -507.212497644,2096.1770817 " moovel_rot="-1.8" moovel_centroid="-514.249150992,2059.59498269"></polygon></g><g transform="translate(597.2173451 -1441.5509298000002) rotate(0)"><polygon id="201540388" class="tile" points="-443.207154547,2031.43346469 -436.558312789,2031.43357749 -436.548898231,2027.85061451 -434.412243783,2027.85221116 -434.413204725,2026.56477881 -426.756222621,2026.57114837 -426.757349804,2027.79928008 -423.731063867,2027.80088952 -423.751202599,2080.85855584 -438.670426295,2080.85680658 -438.661212972,2082.02875582 -443.227874159,2082.02245312 -443.229463697,2081.48719521 -443.216348808,2049.23435636 -443.207154547,2031.43346469 " moovel_rot="44.5" moovel_centroid="-433.340414809,2054.80699011"></polygon></g><g transform="translate(182.6014373 -1878.4598596) rotate(0)"><polygon id="324118370" class="tile" points="-79.6822755608,1899.10874524 -97.7838737479,1918.94508698 -97.8109994144,1956.12308975 -71.33553088,1951.44270986 -79.0798790869,1923.61004489 -74.5129551814,1921.41226573 -79.6822755608,1899.10874524 " moovel_rot="48.6" moovel_centroid="-86.0948198609,1931.74436507"></polygon></g><g transform="translate(236.6866097 -1321.3597786) rotate(0)"><polygon id="219917211" class="tile" points="-203.501109376,1341.69647933 -203.526077763,1376.30719186 -232.053444194,1378.45094086 -234.191103508,1342.83757418 -212.408512867,1340.91880952 -212.274784245,1342.47008074 -203.501109376,1341.69647933 " moovel_rot="-46.4" moovel_centroid="-218.434208425,1359.4458723"></polygon></g><g transform="translate(358.59715 -2177.965452) rotate(0)"><polygon id="9866915" class="tile" points="-194.822235913,2366.82249753 -199.597235942,2367.16064424 -202.699413224,2367.23454914 -211.116406647,2367.43157598 -211.08013616,2337.64547384 -208.284356758,2337.67144159 -208.393189121,2297.41502546 -197.091625932,2297.43580239 -196.972241438,2300.50568304 -200.670578662,2300.40780267 -200.636047513,2301.4576667 -200.457808905,2305.66794448 -200.465318278,2306.9346545 -196.80922476,2306.89335258 -194.822235913,2366.82249753 " moovel_rot="-30.4" moovel_centroid="-202.904594215,2335.82610778"></polygon></g><g transform="translate(725.1417422 -617.3300654) rotate(0)"><polygon id="309059741" class="tile" points="-545.389565528,1729.69881903 -557.115175668,1729.67535159 -557.178813334,1806.87644878 -545.453211505,1806.89995434 -545.389565528,1729.69881903 " moovel_rot="-12.3" moovel_centroid="-551.284191022,1768.28763889"></polygon></g><g transform="translate(278.9433763 -2177.4059809) rotate(0)"><polygon id="27513108" class="tile" points="-86.6798119442,2297.41502546 -96.9892299184,2297.6118572 -97.273118546,2380.27031253 -86.5381677846,2380.37275885 -86.6798119442,2297.41502546 " moovel_rot="63.0" moovel_centroid="-91.8671326301,2339.1967174"></polygon></g><g transform="translate(449.74798250000003 -1302.7725515999998) rotate(0)"><polygon id="224942683" class="tile" points="-255.813232453,1341.11140881 -255.81636413,1417.9133968 -264.190824505,1417.23182643 -267.766422985,1410.07165617 -268.16663845,1348.44632453 -262.26612286,1340.91880952 -255.813232453,1341.11140881 " moovel_rot="30.7" moovel_centroid="-261.710209385,1379.34075832"></polygon></g><g transform="translate(370.36421199999995 -1877.4308517000002) rotate(0)"><polygon id="213962432" class="tile" points="-235.019401306,1899.10874524 -254.208225343,1899.11474628 -254.189797993,1949.7426723 -235.00173685,1949.72576137 -235.019401306,1899.10874524 " moovel_rot="4.0" moovel_centroid="-244.605135063,1924.42281464"></polygon></g><g transform="translate(283.3382994 -1699.8397472) rotate(0)"><polygon id="405912099" class="tile" points="-19.2932880199,2322.54398095 -41.2894847678,2297.41502546 -51.2097560352,2306.27391425 -48.210585486,2309.91765222 -50.7695990337,2312.312422 -51.1992585827,2345.76774565 -48.7524971524,2350.17920179 -19.2932880199,2322.54398095 " moovel_rot="35.4" moovel_centroid="-39.5143320023,2322.74520265"></polygon></g><g transform="translate(176.6475345 -1909.8114458999999) rotate(0)"><polygon id="195354202" class="tile" points="-115.489183586,2297.41502546 -115.507451035,2338.65499842 -139.05979083,2338.84408356 -139.431068244,2301.88952846 -115.489183586,2297.41502546 " moovel_rot="-24.5" moovel_centroid="-127.157249496,2319.12373453"></polygon></g><g transform="translate(339.0159784 -124.15707190000012) rotate(0)"><polygon id="382974407" class="tile" points="-89.9701386584,1201.0 -89.9415752882,1324.5674633 -94.8460592775,1319.94482702 -94.9428780297,1203.83361057 -93.2850763917,1201.83034079 -92.3380219251,1201.0043162 -89.9701386584,1201.0 " moovel_rot="-5.2" moovel_centroid="-92.4001834799,1261.8302165218934"></polygon></g><g transform="translate(800.8672807 -567.303876) rotate(0)"><polygon id="135786658" class="tile" points="-546.930976634,1340.93590472 -546.942694574,1378.29940971 -569.241588789,1378.28229376 -569.229873397,1340.91880952 -555.100302901,1340.93526172 -546.930976634,1340.93590472 " moovel_rot="-7.0" moovel_centroid="-558.08635747,1359.61050896"></polygon></g><g transform="translate(300.8436625 -1540.9853891) rotate(0)"><polygon id="94817764" class="tile" points="-95.3381483724,1593.75584516 -95.3074247092,1551.0559876 -76.2079498814,1551.2069376 -76.1760812201,1593.77340608 -95.3381483724,1593.75584516 " moovel_rot="69.1" moovel_centroid="-85.7623991694,1572.45964641"></polygon></g><g transform="translate(455.06940910000003 -1516.417253) rotate(0)"><polygon id="129434079" class="tile" points="-179.521298834,1949.20080494 -179.572770492,1899.10874524 -171.040444857,1899.47165476 -163.53942767,1899.62150648 -163.829452042,1949.31232514 -179.521298834,1949.20080494 " moovel_rot="-86.6" moovel_centroid="-171.626195791,1924.24354264"></polygon></g><g transform="translate(204.5894987 -1317.8072749) rotate(0)"><polygon id="122666824" class="tile" points="-112.449343449,1585.0534602 -116.246657729,1585.13369664 -122.239040102,1585.27063287 -136.692099893,1585.60343303 -136.651317644,1581.91668175 -136.64933339,1551.21179162 -121.396230047,1551.0559876 -112.52845318,1551.10708654 -112.48401007,1577.09888424 -112.449343449,1585.0534602 " moovel_rot="43.3" moovel_centroid="-124.599720104,1568.23020168"></polygon></g><g transform="translate(368.1419444 -850.6121635) rotate(0)"><polygon id="61670662" class="tile" points="-293.579812653,1555.20381249 -307.26513647,1551.0559876 -307.235952796,1553.40022849 -307.2687583,1605.59137722 -307.063980864,1608.0585548 -300.974050805,1607.92704647 -293.965087823,1603.94187446 -293.579812653,1555.20381249 " moovel_rot="6.6" moovel_centroid="-300.686270555,1579.88539933"></polygon></g><g transform="translate(500.8578119 -482.79429490000007) rotate(0)"><polygon id="310895901" class="tile" points="-218.318516934,1559.24582312 -218.274728933,1561.41222705 -225.584444405,1561.4279665 -225.07399719,1587.21059188 -246.796224735,1587.35139085 -246.816851162,1551.0559876 -237.817771243,1553.67555616 -218.318516934,1559.24582312 " moovel_rot="-10.4" moovel_centroid="-235.976451824,1570.37967524"></polygon></g><g transform="translate(605.245393 -789.5690478000001) rotate(0)"><polygon id="213271107" class="tile" points="-343.693308299,1899.10874524 -343.735908883,1979.40390063 -351.1734162,1979.41691407 -351.118705765,1899.12588873 -343.693308299,1899.10874524 " moovel_rot="39.7" moovel_centroid="-347.430309351,1939.27476777"></polygon></g><g transform="translate(548.3959973 -424.25929699999995) rotate(0)"><polygon id="242166087" class="tile" points="-363.480140866,1201.23018545 -363.476266355,1202.98123271 -363.460584089,1211.27478594 -363.476017644,1233.48726451 -346.330559627,1235.96009571 -343.986150908,1236.31194711 -341.980191759,1222.69312607 -339.909833648,1209.04926654 -339.3843858,1205.07678917 -341.291281973,1201.0 -348.829272682,1201.08029774 -363.480140866,1201.23018545 " moovel_rot="-18.1" moovel_centroid="-352.27138559,1217.4790388030215"></polygon></g><g transform="translate(411.77310620000003 -1335.4240588) rotate(0)"><polygon id="238609833" class="tile" points="-235.219710076,1340.97456792 -235.191103508,1381.96874084 -254.813232453,1371.88538599 -254.774227952,1340.91880952 -235.219710076,1340.97456792 " moovel_rot="51.4" moovel_centroid="-244.545448129,1359.06497565"></polygon></g><g transform="translate(797.4281647 -374.8967797999999) rotate(0)"><polygon id="382364607" class="tile" points="-543.06714705,1282.5318043 -543.089473704,1201.0 -536.612867056,1201.23526155 -536.841075412,1282.4489765 -543.06714705,1282.5318043 " moovel_rot="-84.5" moovel_centroid="-539.904351267,1241.5360745199803"></polygon></g><g transform="translate(575.1025572 -1173.1265182) rotate(0)"><polygon id="311251329" class="tile" points="-342.170283529,1765.76199589 -359.269967231,1765.58875992 -359.068118501,1729.67535159 -342.198102708,1729.90789876 -342.170283529,1765.76199589 " moovel_rot="-90.2" moovel_centroid="-350.679163602,1747.7738806"></polygon></g><g transform="translate(661.1443077 -1628.4026799) rotate(0)"><polygon id="310004789" class="tile" points="-452.248664592,1899.28156618 -479.216713354,1899.10874524 -479.214101132,1915.91852724 -466.830047686,1922.61976111 -464.20567426,1925.27437683 -460.129166077,1929.38694944 -453.497632434,1917.58531509 -451.983933175,1910.31513702 -452.248664592,1899.28156618 " moovel_rot="-8.1" moovel_centroid="-465.151097028,1910.82567652"></polygon></g><g transform="translate(406.2307131 -1486.9038599) rotate(0)"><polygon id="88628594" class="tile" points="-197.456134291,1929.90100108 -180.572770492,1929.89843281 -180.575258251,1899.10874524 -197.458622115,1899.11131617 -197.456134291,1929.90100108 " moovel_rot="-1.4" moovel_centroid="-189.015696166,1914.50487382"></polygon></g><g transform="translate(231.28929399999998 -1399.5352420000002) rotate(0)"><polygon id="382364605" class="tile" points="-137.062300219,1963.21237905 -136.952878393,1899.10874524 -143.181465562,1899.26395941 -143.132562576,1963.17850184 -137.062300219,1963.21237905 " moovel_rot="-84.7" moovel_centroid="-140.080735448,1931.05362548"></polygon></g><g transform="translate(506.50058789999997 -408.3403148) rotate(0)"><polygon id="30954309" class="tile" points="-440.469102266,1342.1604407 -441.660772208,1364.46179506 -451.745921088,1363.95841194 -461.290529945,1363.48473201 -461.445055145,1360.16261096 -461.46613798,1340.91880952 -450.856727991,1341.43591157 -440.469102266,1342.1604407 " moovel_rot="28.5" moovel_centroid="-451.264484789,1352.60807229"></polygon></g><g transform="translate(621.5691886 -1597.8885177) rotate(0)"><polygon id="327481154" class="tile" points="-538.942116627,1729.70837686 -538.944861512,1742.03108492 -538.951288433,1751.44713475 -518.96127983,1751.41036881 -518.954842869,1741.99433404 -518.957641603,1729.67535159 -538.942116627,1729.70837686 " moovel_rot="33.7" moovel_centroid="-528.951538905,1740.56083576"></polygon></g><g transform="translate(271.0848657 -866.8948857) rotate(0)"><polygon id="23321854" class="tile" points="-118.934411425,1370.27606067 -117.209622553,1363.39651191 -116.797355997,1359.6003694 -116.690792701,1356.25884679 -117.270818056,1349.89949643 -118.54054417,1340.91880952 -134.623247653,1343.45371127 -133.156772213,1356.6846399 -134.619159215,1365.35676624 -129.824857306,1366.10354998 -126.657769448,1368.38158188 -118.934411425,1370.27606067 " moovel_rot="-84.1" moovel_centroid="-125.252180289,1355.1167546"></polygon></g><g transform="translate(532.4600041 -752.0481899999999) rotate(0)"><polygon id="125813229" class="tile" points="-472.403796765,1552.34696503 -472.967342229,1579.64641453 -455.932752338,1580.37877369 -455.943479807,1564.509684 -465.20467097,1551.0559876 -468.295170971,1551.30328753 -472.403796765,1552.34696503 " moovel_rot="47.3" moovel_centroid="-465.000752479,1567.24187305"></polygon></g><g transform="translate(423.2205705 -2017.7293416) rotate(0)"><polygon id="27439211" class="tile" points="-241.637769034,2026.56477881 -224.807177124,2026.57042321 -224.820247183,2050.88431258 -241.647912523,2050.87266421 -241.637769034,2026.56477881 " moovel_rot="64.3" moovel_centroid="-233.227929859,2038.72269292"></polygon></g><g transform="translate(415.4564137 -1083.0091268) rotate(0)"><polygon id="185310361" class="tile" points="-218.06289697,1201.0 -213.094053054,1201.01175084 -213.126493146,1260.14071967 -218.095332822,1260.12895364 -218.06289697,1201.0 " moovel_rot="-15.6" moovel_centroid="-215.594693889,1230.5703518407913"></polygon></g><g transform="translate(775.9664699 -720.3043763) rotate(0)"><polygon id="385207111" class="tile" points="-539.951288433,1729.67535159 -544.343533611,1729.78342554 -544.389565528,1785.35326867 -539.987901199,1785.39316755 -539.951288433,1729.67535159 " moovel_rot="62.5" moovel_centroid="-542.167104772,1757.56134507"></polygon></g><g transform="translate(356.8640099 -21.46990329999994) rotate(0)"><polygon id="24862232" class="tile" points="-337.203629101,1201.0 -338.3843858,1220.79169792 -330.537886836,1221.15077614 -320.944390515,1221.4717546 -321.095304074,1213.89591634 -320.948657571,1201.71179838 -337.203629101,1201.0 " moovel_rot="-2.7" moovel_centroid="-329.417408361,1211.3684389294904"></polygon></g><g transform="translate(213.73816539999999 -999.1547899) rotate(0)"><polygon id="381753890" class="tile" points="-85.0654888406,1340.94060473 -94.6986378692,1340.91880952 -94.7226293062,1372.54336326 -85.0867994016,1372.55456375 -85.0654888406,1340.94060473 " moovel_rot="-14.2" moovel_centroid="-89.8936585148,1356.74006597"></polygon></g><g transform="translate(316.0273539 -22.634600800000044) rotate(0)"><polygon id="437198497" class="tile" points="-131.329902078,1201.39507781 -131.309828787,1222.63464852 -115.302787517,1222.5409875 -115.176832198,1205.2880697 -123.06701376,1201.0 -131.329902078,1201.39507781 " moovel_rot="65.7" moovel_centroid="-123.534688712,1212.309466485857"></polygon></g><g transform="translate(502.08432059999996 -711.1459017999999) rotate(0)"><polygon id="23966003" class="tile" points="-377.612248991,1551.0559876 -377.581910984,1586.48204118 -369.545131986,1586.6059447 -369.568791173,1551.17982273 -377.612248991,1551.0559876 " moovel_rot="0.6" moovel_centroid="-373.577019413,1568.82849672"></polygon></g><g transform="translate(638.9078897 -1324.2425325) rotate(0)"><polygon id="282584374" class="tile" points="-558.178813334,1731.55492269 -561.605658522,1729.67535159 -565.770948866,1735.85962702 -572.772304452,1738.84234813 -571.084895112,1757.04082876 -567.495529662,1756.75304968 -558.187096343,1755.9940851 -558.178813334,1731.55492269 " moovel_rot="5.8" moovel_centroid="-564.61425012,1745.02073249"></polygon></g><g transform="translate(294.7770188 -28.627101299999822) rotate(0)"><polygon id="24597019" class="tile" points="-88.9415752882,1201.0 -88.9102290044,1222.50290872 -74.8720799893,1222.67737052 -74.6456034478,1213.63644651 -74.0053176368,1201.46128934 -88.9415752882,1201.0 " moovel_rot="73.1" moovel_centroid="-81.7305856726,1211.7951742316848"></polygon></g><g transform="translate(255.44790600000002 -1615.0190725000002) rotate(0)"><polygon id="380427141" class="tile" points="-85.5381677846,2300.71189883 -68.9599829727,2297.41502546 -68.9636541435,2317.32675888 -81.9280706182,2319.89200913 -85.5381677846,2300.71189883 " moovel_rot="-17.3" moovel_centroid="-76.3833454563,2308.43761014"></polygon></g><g transform="translate(589.9588686 -1035.2131482999998) rotate(0)"><polygon id="185230168" class="tile" points="-483.962595185,1340.91880952 -478.358679501,1340.92511865 -478.331571893,1382.00853404 -483.942242941,1382.01311544 -483.962595185,1340.91880952 " moovel_rot="-0.4" moovel_centroid="-481.148893858,1361.47052337"></polygon></g><g transform="translate(367.42582430000004 -566.5083084) rotate(0)"><polygon id="337595240" class="tile" points="-95.9525666749,1215.01850632 -100.657054155,1215.00625358 -100.64440862,1215.66773239 -101.198722207,1216.18769804 -101.23191201,1216.21395387 -101.259142695,1218.16408124 -101.828339882,1218.18285252 -101.816020628,1222.78542091 -114.113222553,1222.74730483 -114.176832198,1206.1470625 -106.955382854,1206.12098292 -106.988124917,1210.81643958 -104.001147783,1210.81138962 -100.598489532,1210.81214403 -100.335395714,1210.77573883 -100.104652389,1210.7054828 -99.895227382,1210.59485016 -99.7294648269,1210.47692803 -99.574268176,1210.33213907 -99.4850781264,1210.21314771 -99.3623252366,1210.04118644 -99.2717363467,1209.8220173 -99.1899415055,1209.44908949 -99.126667616,1201.0 -97.5294901328,1201.01562243 -95.9428780297,1201.00437805 -95.9525666749,1215.01850632 " moovel_rot="-90.8" moovel_centroid="-105.953454218,1213.7766306878132"></polygon></g><g transform="translate(675.9553059 -1193.3134164) rotate(0)"><polygon id="390545087" class="tile" points="-535.612867056,1201.0 -533.523313068,1201.02791227 -528.108500573,1201.11277198 -528.152271007,1223.07553033 -528.18006773,1233.15142791 -535.604147369,1233.23058782 -535.612867056,1201.0 " moovel_rot="22.7" moovel_centroid="-531.878790045,1217.0946547004255"></polygon></g><g transform="translate(298.16022250000003 -1319.4026071) rotate(0)"><polygon id="385207048" class="tile" points="-291.473198238,2026.65610619 -295.463770492,2026.56477881 -295.660233944,2070.22110243 -291.463667816,2070.3428133 -291.473198238,2026.65610619 " moovel_rot="62.9" moovel_centroid="-293.515414218,2048.62938696"></polygon></g><g transform="translate(170.5369958 -1721.3699989000002) rotate(0)"><polygon id="149277988" class="tile" points="-117.068554785,1729.70212116 -117.076737904,1746.2313292 -132.353724039,1746.20455003 -132.345542788,1729.67535159 -117.068554785,1729.70212116 " moovel_rot="-11.0" moovel_centroid="-124.711139139,1737.95333783"></polygon></g><g transform="translate(549.9226149 -47.04645550000009) rotate(0)"><polygon id="353772758" class="tile" points="-435.190798188,1201.00620946 -435.167760215,1234.8555533 -441.368655743,1234.84933329 -441.391696544,1201.0 -435.190798188,1201.00620946 " moovel_rot="-15.0" moovel_centroid="-438.279727512,1217.927772722916"></polygon></g><g transform="translate(600.3419832 -1426.0478273) rotate(0)"><polygon id="447532161" class="tile" points="-440.932644566,1899.15096349 -435.860125366,1899.10874524 -433.227892736,1930.03246288 -440.974274858,1930.48575379 -440.932644566,1899.15096349 " moovel_rot="48.8" moovel_centroid="-437.708759838,1915.78205472"></polygon></g><g transform="translate(188.0551644 -1116.1726273999998) rotate(0)"><polygon id="324109669" class="tile" points="0.0,1755.65301968 -2.88017742466,1756.13963559 -9.58816075791,1757.28174812 -9.45915176757,1755.52242443 -9.23152347598,1744.50034904 -9.58047565743,1730.77332549 -3.03105760831,1729.67535159 -2.7944771871,1733.9693955 0.0,1755.65301968 " moovel_rot="-79.1" moovel_centroid="-5.462465421840096,1744.22185871"></polygon></g><g transform="translate(447.0718682 -915.3072113000001) rotate(0)"><polygon id="341796257" class="tile" points="-311.116786352,1222.45790999 -311.088871652,1201.0 -319.944390515,1203.37367518 -319.19671621,1226.52245562 -317.371893578,1226.586957 -315.402628895,1226.68740574 -315.599024541,1223.4717888 -311.116786352,1222.45790999 " moovel_rot="12.2" moovel_centroid="-315.446429069,1213.3033047149736"></polygon></g><g transform="translate(140.25538790000002 -2291.1451088000003) rotate(0)"><polygon id="285180239" class="tile" points="-62.7118281727,2300.95805895 -67.9599829727,2304.62475552 -62.6756449465,2312.94409201 -58.6164009986,2318.64753664 -53.6221039946,2319.90695657 -52.9202618756,2317.2521369 -52.2237216856,2314.71172335 -55.4612652909,2313.77329055 -52.2097560352,2298.05500177 -56.2190305442,2297.41502546 -57.4436327364,2305.34716251 -58.799651721,2306.24678248 -62.7118281727,2300.95805895 " moovel_rot="14.3" moovel_centroid="-58.6934624393,2308.80988841"></polygon></g><g transform="translate(649.672861 -667.363026) rotate(0)"><polygon id="130006867" class="tile" points="-473.967342229,1583.56940825 -478.602945216,1583.12878076 -478.432526117,1551.20205521 -473.997290626,1551.0559876 -473.967342229,1583.56940825 " moovel_rot="-33.0" moovel_centroid="-476.24348094,1567.35864686"></polygon></g><g transform="translate(134.22671889999998 -798.5107362000001) rotate(0)"><polygon id="257176874" class="tile" points="-95.734532329,1340.91880952 -95.7226293062,1360.21661778 -105.036155563,1360.23486162 -105.04298509,1340.94675807 -95.734532329,1340.91880952 " moovel_rot="27.6" moovel_centroid="-100.383684342,1350.58013601"></polygon></g><g transform="translate(390.35739010000003 -1456.2370805) rotate(0)"><polygon id="27609730" class="tile" points="-292.741112441,1899.10874524 -283.454984766,1900.04253363 -283.448106434,1916.91930247 -293.446980095,1916.39625514 -292.741112441,1899.10874524 " moovel_rot="19.2" moovel_centroid="-288.296740303,1908.21888158"></polygon></g><g transform="translate(318.36587330000003 -162.38461730000017) rotate(0)"><polygon id="179149608" class="tile" points="-269.16663845,1360.12310043 -277.446996335,1359.99302217 -277.201987865,1340.91880952 -269.175084396,1341.18518606 -269.16663845,1360.12310043 " moovel_rot="-90.9" moovel_centroid="-273.253074284,1350.60396695"></polygon></g><g transform="translate(266.7134933 -2020.6471639) rotate(0)"><polygon id="198832549" class="tile" points="-201.359293087,2026.5660585 -201.359670251,2046.98344738 -208.245391712,2046.98216037 -208.245016593,2026.56477881 -201.359293087,2026.5660585 " moovel_rot="-15.6" moovel_centroid="-204.802342705,2036.77411076"></polygon></g><g transform="translate(236.50057199999998 -719.0761321) rotate(0)"><polygon id="444566876" class="tile" points="-227.502030257,1917.3488242 -227.474488101,1899.10874524 -234.00173685,1899.61811303 -233.460719562,1917.31477439 -227.502030257,1917.3488242 " moovel_rot="-79.8" moovel_centroid="-230.596618731,1908.20888437"></polygon></g><g transform="translate(187.7987823 -1410.164072) rotate(0)"><polygon id="102424424" class="tile" points="-177.473038794,1729.67535159 -177.47425505,1744.32190672 -185.298276595,1744.3361466 -185.298788484,1729.67880231 -177.473038794,1729.67535159 " moovel_rot="9.1" moovel_centroid="-181.386569975,1737.00278265"></polygon></g><g transform="translate(530.1614964 -1326.1898018000002) rotate(0)"><polygon id="241271975" class="tile" points="-441.982405074,1899.10874524 -441.974274858,1912.09390977 -450.975794185,1912.11710287 -450.983933175,1899.1319299 -441.982405074,1899.10874524 " moovel_rot="46.1" moovel_centroid="-446.479102313,1905.61292089"></polygon></g><g transform="translate(153.06152509999998 -370.2021063000001) rotate(0)"><polygon id="106103422" class="tile" points="-62.8753002731,1212.06037491 -73.0053176368,1211.97314534 -72.8527551917,1201.0 -62.8758770861,1201.24247724 -62.8753002731,1212.06037491 " moovel_rot="-70.0" moovel_centroid="-67.9145374479,1206.5825316326373"></polygon></g><g transform="translate(220.27310690000002 -2291.7677501999997) rotate(0)"><polygon id="404354669" class="tile" points="-104.424447559,2308.51654992 -104.944263108,2297.41502546 -114.472371884,2297.73157026 -114.489183586,2308.90184035 -104.424447559,2308.51654992 " moovel_rot="7.3" moovel_centroid="-109.585043668,2303.19231571"></polygon></g><g transform="translate(552.8714600000001 -804.3981645) rotate(0)"><polygon id="188137381" class="tile" points="-544.089473704,1211.28960984 -550.371220371,1211.29053886 -550.371478805,1201.00092907 -544.089731364,1201.0 -544.089473704,1211.28960984 " moovel_rot="-86.7" moovel_centroid="-547.230476059,1206.1452693370961"></polygon></g><g transform="translate(214.59405429999998 -1138.5786878) rotate(0)"><polygon id="99252828" class="tile" points="-207.391288284,1201.08544371 -212.094053054,1201.0 -212.087335008,1208.76836564 -207.435249012,1208.79107136 -207.391288284,1201.08544371 " moovel_rot="3.5" moovel_centroid="-209.755095577,1204.904177653887"></polygon></g></g><g transform="translate(0 1327.7)"><polygon id="4" class="bin" points="1.875,0.0 -0.77665042945,1.09834957055 -1.875,3.75 -1.875,1203.749999 -0.77665042945,1206.40164943 1.875,1207.499999 268.126727498,1207.499999 270.811754304,1206.36784755 271.875524054,1203.65500223 269.974818428,1128.64867779 271.518761146,1124.58007396 275.470570594,1122.75785051 298.290058552,1121.75245626 300.834378387,1120.59872701 301.874999,1118.00609064 301.874999,1069.59202238 300.77612416,1066.93984678 298.123513462,1065.84202267 249.133371488,1065.8614298 245.068798059,1064.17911773 243.385303681,1060.11503386 243.391826239,998.139205414 245.059125212,994.091659409 249.093171207,992.391957247 258.424122938,992.316148949 261.053969304,991.209233351 262.143652793,988.57220018 262.214244813,943.91242591 262.259645389,943.134508596 265.607724829,914.15189652 265.642921255,913.891107218 279.25240603,825.805391656 278.395871119,822.794995388 275.554339165,821.482808702 268.881798135,821.468644139 264.824626199,819.77944536 263.147765445,815.717158487 263.275468405,676.350888972 264.96865574,672.283309262 269.044923477,670.611146174 298.109073176,670.734579432 300.771012809,669.641888343 301.874999,666.98461325 301.874999,655.800960613 300.757819281,653.130612814 289.969308948,642.493717941 289.629647984,642.133816221 261.975583038,610.633633973 260.587941261,606.232959833 261.731739566,604.25629428 261.577932185,600.256270413 252.314611985,586.757826015 251.488058431,585.120432604 242.463334187,559.072174847 239.492474328,556.593772169 237.928938365,556.352240811 235.335864835,552.753100393 230.68059657,532.666017348 231.458133098,528.246400787 232.782938868,527.353815346 234.418072901,523.861722417 233.019835937,510.210811377 230.694875846,507.11628003 228.811087653,506.354709325 227.191867886,502.050426801 228.281297899,481.739664574 228.339242622,481.144679602 233.627683964,443.773572442 233.905001887,442.586114578 240.434286626,422.769018821 240.679462877,422.132910467 245.423886393,411.436891305 248.280609529,408.535224112 251.614267563,408.291425409 254.862750134,410.746603726 294.954779946,474.200080953 297.572270203,475.906072265 300.57344412,475.037385486 301.874999,472.197030492 301.874999,376.529840046 301.017692249,374.143456639 298.83775859,372.848199954 297.365096956,372.563095035 288.923988601,367.00925273 286.117334178,366.466827896 283.743861295,368.059988348 282.609769666,369.758917593 282.519848936,369.89030317 280.657911868,372.544362657 280.653452436,372.550733302 275.783891699,379.522653779 272.130848444,381.881715094 267.870724317,381.009225709 262.982218235,377.738104048 260.165251658,377.176759131 257.777450374,378.77325963 253.710316585,384.868298707 253.679082755,384.915884256 246.683075559,395.752887523 246.644499131,395.811975725 237.252071771,410.038486315 234.04062131,412.405872568 230.76921608,412.180308461 227.913075361,409.394560472 225.771389129,404.913362661 222.652566861,402.789750046 221.242287249,402.689984348 216.841977282,400.038837626 216.404314176,394.920267734 229.517150796,362.683638999 230.058582598,361.625442725 239.762995895,346.130463216 248.406674121,332.329995565 253.15659382,324.738551346 258.331160043,316.540868032 267.431810246,302.121292169 269.147208739,299.406169689 269.641455654,296.607107324 268.030402257,294.265411978 265.23961292,293.726408258 262.872420701,295.299758549 247.05165638,318.649859555 243.351200478,321.073997956 239.025310242,320.148528058 218.703408931,306.062406789 216.331814315,302.420898522 217.184813169,298.159744167 241.408440687,261.585736332 241.954230664,258.755322673 240.33019972,256.3737997 233.135468791,251.682549721 233.096827092,251.657689845 218.705470116,242.523278865 216.16707434,238.872416185 216.997315878,234.504012547 228.201560114,217.606241421 229.930953074,214.9988205 234.436381611,211.903844731 235.141164123,211.742790505 236.671410763,209.342989638 236.600613768,209.012196313 237.523151303,203.421440389 241.159147542,197.428609385 241.653852559,194.877678791 240.371674923,192.617590196 237.928240426,191.733504337 231.131216019,191.77856289 227.04467731,190.109501338 225.348960774,186.033951005 225.360645371,66.4036716673 227.17057132,62.2254546322 227.79468553,62.0014103884 229.589689731,60.6367860068 230.27763546,58.4894689699 230.464236859,18.5786067999 232.118322785,14.5689496939 234.380445893,13.5954944249 236.414024712,11.4551345403 237.112630641,9.57187622167 241.29540032,7.80087321565 260.608670018,7.93626824682 263.125134021,6.99020177277 264.361735017,4.60305895648 263.682903374,2.00174766207 261.437534797,0.52325085608 259.445903389,0.0868904627077 258.643327213,0.0 1.875,0.0 " moovel_rot="0" moovel_centroid="127.33887019111297,624.3647426876344" transform="translate(1.875 0)"></polygon><g transform="translate(434.6575514 -759.6132063999996) rotate(0)"><polygon id="175866695" class="tile" points="-432.227892736,1948.78085781 -414.406200854,1899.10874524 -400.665915655,1906.82780242 -411.849846285,1938.82050587 -415.739080581,1937.55044041 -419.930405464,1949.47925959 -400.656148031,1956.59263627 -401.650861985,1959.70480264 -432.227892736,1948.78085781 " moovel_rot="-30.6" moovel_centroid="-415.755565761,1928.11421641"></polygon></g><g transform="translate(214.80479309999998 -586.8050002) rotate(0)"><polygon id="32900726" class="tile" points="-161.245035183,1778.99603376 -172.037857245,1779.0258284 -176.46011665,1779.03757323 -176.473038794,1760.95500212 -172.278661673,1760.93412566 -172.281986785,1757.77548917 -176.447827862,1757.78820325 -176.460746963,1736.29490258 -172.198632363,1736.28540887 -172.203633363,1733.25281302 -176.443172311,1733.26609923 -176.44532056,1729.71249425 -168.347472685,1729.68989353 -165.312537715,1729.68800506 -161.281296768,1729.67535159 -161.245035183,1778.99603376 " moovel_rot="63.5" moovel_centroid="-168.662891934,1754.62769216"></polygon></g><g transform="translate(44.9381685 -1198.4869254999999) rotate(0)"><polygon id="55596247" class="tile" points="-0.890093022538,2297.41502546 -17.2282616687,2298.10220212 -17.2932880199,2336.68732538 0.0,2336.21288066 -0.890093022538,2297.41502546 " moovel_rot="-26.8" moovel_centroid="-8.842067249645137,2317.286686"></polygon></g><g transform="translate(247.5232794 -108.83652219999999) rotate(0)"><polygon id="175020955" class="tile" points="-235.121754466,1244.08394845 -245.023428203,1243.90615544 -244.827566251,1225.58331629 -235.91597771,1225.65129904 -235.868686628,1217.59391099 -244.874738673,1211.6586852 -244.904060046,1201.13034152 -229.615007337,1201.0 -229.565228732,1244.11246471 -235.121754466,1244.08394845 " moovel_rot="74.8" moovel_centroid="-236.608046357,1223.041621445929"></polygon></g><g transform="translate(254.2838653 -624.9851704) rotate(0)"><polygon id="333902084" class="tile" points="-186.298788484,1762.78603172 -186.532070187,1729.70446221 -204.294886885,1729.67535159 -204.346675431,1762.86428551 -186.298788484,1762.78603172 " moovel_rot="-89.9" moovel_centroid="-195.372801815,1746.30154661"></polygon></g><g transform="translate(493.2185415 -409.0982365) rotate(0)"><polygon id="287236314" class="tile" points="-422.049939649,1557.61520586 -422.094899569,1551.0559876 -429.147949621,1553.22509114 -429.155425,1560.32894502 -434.688888731,1560.32151199 -434.663477045,1562.46456113 -434.652371994,1582.0503833 -429.232766201,1582.06477051 -429.236163658,1583.69312473 -429.239808804,1591.45282699 -417.113446397,1591.55933836 -417.09129697,1557.62442438 -422.049939649,1557.61520586 " moovel_rot="-2.0" moovel_centroid="-425.138528313,1572.51645782"></polygon></g><g transform="translate(586.7898726 -830.9427538) rotate(0)"><polygon id="202438445" class="tile" points="-518.936908682,1930.66394397 -526.435101129,1930.42211254 -526.777559659,1930.25371206 -527.014320729,1930.17010392 -527.276888128,1930.09341056 -527.514445086,1930.03263845 -527.733443185,1929.9895163 -527.911699829,1929.96941167 -528.089956473,1929.94930705 -528.367814699,1929.94457919 -528.597684003,1929.93830413 -528.831972926,1929.96714748 -529.03117609,1929.99790102 -529.227551406,1930.03920824 -529.453356785,1930.09971261 -529.634001089,1930.1481161 -529.886408684,1930.2383713 -529.854537953,1927.67345626 -531.813244669,1927.66665441 -531.791653761,1926.40530366 -537.318592774,1926.26871174 -537.300203004,1925.92444203 -537.356303932,1899.10874524 -518.277583464,1899.55054506 -518.936908682,1930.66394397 " moovel_rot="15.0" moovel_centroid="-527.679739323,1914.079989"></polygon></g><g transform="translate(381.0709162 -965.4537227999999) rotate(0)"><polygon id="213272592" class="tile" points="-358.168625149,2026.59873121 -358.160270093,2059.66295737 -342.954434529,2059.62896928 -342.962773473,2026.56477881 -358.168625149,2026.59873121 " moovel_rot="24.3" moovel_centroid="-350.561527181,2043.11385625"></polygon></g><g transform="translate(226.30564199999998 -980.1252936999999) rotate(0)"><polygon id="358042184" class="tile" points="-209.245391712,2067.30497097 -223.807177124,2066.18346941 -222.774771634,2036.71331508 -214.688810957,2037.15044108 -214.396387381,2026.56477881 -209.305705769,2026.66141167 -209.245391712,2067.30497097 " moovel_rot="-41.2" moovel_centroid="-215.752963441,2049.71867701"></polygon></g><g transform="translate(184.43338699999998 -457.57241049999993) rotate(0)"><polygon id="325000689" class="tile" points="-96.3739474462,1570.57168668 -105.27256198,1570.6092989 -105.254331146,1595.28542946 -111.396807361,1595.27491758 -111.449343449,1551.13189911 -96.390981332,1551.0559876 -96.3381483724,1551.71845596 -96.3739474462,1570.57168668 " moovel_rot="-70.2" moovel_centroid="-105.406149752,1568.35910663"></polygon></g><g transform="translate(496.2374603 -969.5472327) rotate(0)"><polygon id="327970217" class="tile" points="-407.638064628,2058.03179712 -422.731063867,2058.00902131 -422.722586312,2026.56477881 -407.629560091,2026.58754617 -407.638064628,2058.03179712 " moovel_rot="-72.6" moovel_centroid="-415.180318383,2042.29828117"></polygon></g><g transform="translate(281.4734695 -858.8006284999999) rotate(0)"><polygon id="326623456" class="tile" points="-185.862902036,2026.56477881 -185.914104134,2057.62259314 -200.305706533,2058.80907717 -200.359293087,2027.3521806 -185.862902036,2026.56477881 " moovel_rot="-29.4" moovel_centroid="-193.126145813,2042.56933192"></polygon></g><g transform="translate(199.8555012 -218.47626830000013) rotate(0)"><polygon id="191094664" class="tile" points="-106.04298509,1340.94560519 -115.667721769,1340.91880952 -115.690792701,1381.3007843 -106.072303247,1381.33660211 -106.04298509,1340.94560519 " moovel_rot="-34.7" moovel_centroid="-110.868269764,1361.1232677"></polygon></g><g transform="translate(519.2357092 -308.32195350000006) rotate(0)"><polygon id="218898382" class="tile" points="-477.331571893,1341.26612633 -462.46613798,1340.91880952 -462.46613798,1352.20660588 -466.746249238,1352.56728103 -466.60394381,1369.71270901 -475.941360222,1373.72688984 -477.331571893,1341.26612633 " moovel_rot="-90" moovel_centroid="-470.796445016,1354.85685181"></polygon></g><g transform="translate(441.7132809 -711.7330102) rotate(0)"><polygon id="286079651" class="tile" points="-411.081336206,1729.67535159 -425.933873169,1734.78814352 -424.524667747,1738.83388171 -428.439995091,1740.61576975 -413.805045694,1768.15568748 -409.362603284,1765.68997916 -423.112195174,1739.82761183 -409.333546858,1734.83279047 -411.081336206,1729.67535159 " moovel_rot="25.2" moovel_centroid="-418.401193443,1746.72850123"></polygon></g></g></svg>