<svg><g transform="translate(0 0)"><polygon id="9" class="bin" points="1.875,0.0 -0.77665042945,1.09834957055 -1.875,3.75 -1.875,1203.749999 -0.77665042945,1206.40164943 1.875,1207.499999 251.604682557,1207.499999 254.042624256,1206.59937442 255.309541836,1204.33010048 254.796892833,1201.78218459 251.114743292,1195.80896093 251.160464136,1081.96428908 252.408120161,1078.37227195 255.048551194,1076.68472756 258.832417151,1077.0610134 296.551440942,1094.49788922 298.997859933,1094.74100753 301.069122681,1093.41664239 301.874999,1091.09400687 301.874999,1080.88108052 300.085739449,1077.68452035 296.021171602,1075.19135202 293.06053145,1071.34937772 289.543546797,1059.67149986 289.26696084,1057.24243171 290.715140521,1035.25637142 289.762802617,1032.50372966 266.017288978,1006.0732128 264.542210141,1002.54155409 265.588617213,998.860045838 273.415324854,987.738157335 274.089081144,985.313337149 273.078127043,983.008630599 257.928374484,966.927051368 256.329880039,960.525972712 258.673236437,951.929718467 263.497287135,947.175392693 299.058492292,938.035368909 301.088367003,936.701446635 301.874999,934.403414852 301.874999,923.010773527 300.99195059,920.593525384 298.758685089,919.314702377 296.226979325,919.776577906 268.699209613,935.93152171 265.321403493,936.872248563 253.253555864,937.023552506 249.145486582,935.366414848 247.439032158,931.278585137 247.468162725,873.337753295 247.513946902,793.6468606 249.211587726,789.573214801 252.546659688,788.212477456 256.623908223,789.941901747 259.037392894,790.117517179 261.055642889,788.782445648 261.83824111,786.492622716 261.943660136,654.688198987 260.386093337,651.6428746 258.702385205,650.429521167 252.687609289,641.642486561 252.292329453,634.694551132 257.527774262,624.797987961 257.860913424,622.175277151 254.569766529,608.362181303 254.95994829,604.036069009 260.474001054,591.480043819 260.612705997,591.113193241 264.569755913,578.724496343 264.690023801,578.237839398 267.287484921,563.580104568 267.343399168,563.035783489 267.823303467,546.68434592 267.808336598,546.222080424 266.294549662,530.177916122 266.178478745,529.541587921 262.322576622,515.432333222 261.993434429,514.618082645 252.316734747,496.968634478 251.746931499,491.809377106 252.334462547,489.777819752 255.779785902,486.051210753 260.827185807,486.5818913 265.542551342,489.600508323 268.594459246,490.047977747 270.949435202,488.055878605 271.014155522,484.972020303 270.87379525,484.642670971 268.773014461,329.014893946 270.411650337,324.919221457 274.471206856,323.193051841 295.523904404,323.025297393 298.453435393,321.578541556 299.136390941,318.383416208 259.744206193,157.530560816 260.427405278,152.034895395 260.246636942,152.012423 260.815208053,150.001941609 258.957537827,144.000198553 258.892314066,143.808042835 249.345324996,117.998149101 248.934263115,115.172673546 250.062567607,97.9311013682 252.158734373,93.8662685159 256.56266888,92.6325172874 258.685060139,92.9264636218 261.573630152,92.1146912711 263.550610694,90.4977614659 267.416286938,88.9701752923 274.2164753,88.5130757925 274.879319846,88.4083404599 276.384705163,88.0298658722 278.819239764,86.0804959512 278.937360009,82.963919397 278.042109137,80.7920756845 277.789877482,3.73772472121 276.687204478,1.09401314993 274.039897573,0.0 1.875,0.0 " moovel_rot="0" moovel_centroid="132.1805999223887,597.9512493609233" transform="translate(1.875 0)"></polygon><g transform="translate(231.00988760000004 -1804.1474468) rotate(0)"><polygon id="229520016" class="tile" points="-208.951050469,1811.44080568 -228.48146479,1806.57323119 -228.509894486,1932.39855397 -150.003440055,1935.16484434 -149.035595769,1908.20029044 -146.782154047,1868.42267571 -145.854567151,1852.03825379 -151.43745016,1851.71046207 -186.259802559,1849.64795577 -185.980678737,1844.68119352 -190.941527608,1844.37865849 -189.142114414,1812.61010865 -208.951050469,1811.44080568 " moovel_rot="-49.8" moovel_centroid="-192.173969045,1880.25946662"></polygon></g><g transform="translate(556.7770558 -1495.0522835000002) rotate(0)"><polygon id="32765877" class="tile" points="-491.940850863,1806.57323119 -506.619937204,1802.52642044 -511.040877106,1800.62234354 -509.349516658,1796.27561727 -525.511477891,1782.16001416 -529.899071652,1778.9775674 -540.815956567,1762.97216921 -548.218845362,1748.02925291 -554.380546451,1727.28649635 -524.610403334,1632.06836351 -523.97438589,1629.28889818 -503.538439892,1635.54588133 -514.32467474,1672.70286749 -492.133954171,1679.25363622 -496.578088764,1693.61889411 -488.252019566,1696.75133119 -499.298554743,1736.00720727 -514.504874929,1787.26132262 -488.369767305,1794.90472328 -491.940850863,1806.57323119 " moovel_rot="15.2" moovel_centroid="-520.78520215,1716.15316157"></polygon></g><g transform="translate(292.290147 -1456.4942348999998) rotate(0)"><polygon id="141573841" class="tile" points="-199.719576742,1629.28889818 -199.611337157,1641.94243498 -164.940819935,1641.4863947 -163.841843013,1715.75411643 -163.57020818,1741.38057496 -169.083360741,1741.55508489 -168.651124401,1745.52223126 -238.296239331,1747.04315614 -238.299269533,1726.42001514 -226.658123735,1726.05388096 -207.485457824,1725.87851136 -207.488891063,1725.55653341 -206.410056845,1725.55446593 -206.439740867,1722.51470283 -207.481577514,1722.53217118 -207.596518732,1711.85870835 -207.603516539,1710.98912401 -207.771285541,1695.40228367 -208.033701123,1671.59598951 -209.923357345,1671.61671803 -211.314296681,1629.76944535 -199.719576742,1629.28889818 " moovel_rot="-22.6" moovel_centroid="-191.257598037,1696.73156098"></polygon></g><g transform="translate(172.1532378 -1194.8564984) rotate(0)"><polygon id="122552472" class="tile" points="-74.6863800939,1334.61400117 -58.6816416815,1283.77441443 -1.0,1276.86678204 -59.4156588472,1207.0052044 -76.7426911486,1201.0 -88.5600689229,1237.04286213 -67.991315084,1243.92888429 -80.3956503291,1283.7344031 -74.3401369872,1285.7411387 -88.56805909,1334.63501553 -74.6863800939,1334.61400117 " moovel_rot="42.6" moovel_centroid="-55.54146364391316,1259.5918033276325"></polygon></g><g transform="translate(298.07536949999997 -1858.2750271) rotate(0)"><polygon id="23156524" class="tile" points="-165.092004648,1949.87610466 -165.077930548,2090.48645352 -136.917705055,2090.25622452 -136.842029168,1949.69173817 -165.092004648,1949.87610466 " moovel_rot="74.4" moovel_centroid="-150.983186973,2020.04035204"></polygon></g><g transform="translate(711.5092102 -1101.8636734) rotate(0)"><polygon id="38320543" class="tile" points="-523.740791094,1339.09858968 -523.803615194,1415.51300977 -577.810715557,1415.47242712 -577.754340237,1339.06907564 -523.740791094,1339.09858968 " moovel_rot="1.2" moovel_centroid="-550.776712687,1377.28751673"></polygon></g><g transform="translate(128.7091964 -1041.5954839) rotate(0)"><polygon id="25653137" class="tile" points="-61.7391883805,1357.25961479 -58.2735252354,1411.63641944 -0.0465021975338,1409.0795566 0.0,1339.06907564 -23.448991121,1340.95308757 -39.9537707509,1344.63483215 -39.5745266525,1349.77314576 -61.7391883805,1357.25961479 " moovel_rot="77.3" moovel_centroid="-28.74384513003453,1377.31731877"></polygon></g><g transform="translate(321.8652004 -1028.5521634) rotate(0)"><polygon id="378342737" class="tile" points="-319.365190949,1339.06907564 -319.306900907,1373.8593955 -319.271841301,1395.22749615 -305.862484769,1395.7239724 -305.848665781,1435.18066071 -274.727179353,1434.64410888 -273.066411913,1340.69960554 -319.365190949,1339.06907564 " moovel_rot="-0.3" moovel_centroid="-294.447025705,1383.15872452"></polygon></g><g transform="translate(207.5462852 -1868.3957366) rotate(0)"><polygon id="60174062" class="tile" points="-34.8732122581,2294.56461424 -20.7616914222,2235.62754866 -54.1056897463,2228.89678932 -45.3361098481,2191.15040366 -70.0401333217,2186.97260158 -73.8892663425,2221.40688259 -73.8420339806,2285.62234553 -54.5203525942,2290.05610535 -34.8732122581,2294.56461424 " moovel_rot="-71.6" moovel_centroid="-52.9963304632,2246.54235114"></polygon></g><g transform="translate(587.8833946999999 -1575.6151441000002) rotate(0)"><polygon id="185569571" class="tile" points="-506.849173623,2033.42599533 -458.602357689,2033.01693842 -459.543616555,1967.48755196 -469.394085398,1950.3707438 -495.515962597,1949.69173817 -506.810672922,1963.30811973 -506.849173623,2033.42599533 " moovel_rot="-18.1" moovel_centroid="-483.105063623,1993.33154072"></polygon></g><g transform="translate(707.533355 -1443.8359119) rotate(0)"><polygon id="26299304" class="tile" points="-531.332523937,1629.28889818 -512.272333042,1619.06172818 -510.58567568,1467.80554859 -522.551983129,1447.07691415 -531.607642564,1446.32741135 -531.332523937,1629.28889818 " moovel_rot="-0.1" moovel_centroid="-521.749910823,1536.86345585"></polygon></g><g transform="translate(471.8840118 -1162.1851143000001) rotate(0)"><polygon id="159478164" class="tile" points="-239.139424501,1552.11269168 -267.274165681,1559.23904956 -263.592407516,1573.05827844 -262.03417657,1582.61018384 -278.259120512,1588.70246108 -284.480859395,1559.69703587 -280.211745032,1540.65646633 -280.150035527,1525.57786164 -284.48313882,1524.4098396 -270.065735602,1446.32741135 -253.929500461,1449.07846583 -262.520110572,1500.76066646 -253.728979296,1499.01064409 -239.139424501,1552.11269168 " moovel_rot="13.5" moovel_centroid="-265.999228441,1521.54626408"></polygon></g><g transform="translate(223.60161010000002 -1679.152539) rotate(0)"><polygon id="61907927" class="tile" points="-162.988851794,2091.77023291 -166.679114836,2091.68856108 -220.818633791,2090.48645352 -221.101632141,2149.50337284 -162.977234124,2151.22044657 -162.976042252,2148.15721101 -162.988851794,2091.77023291 " moovel_rot="50.5" moovel_centroid="-191.936496636,2120.77140215"></polygon></g><g transform="translate(556.1909138999999 -1018.7649183) rotate(0)"><polygon id="315038068" class="tile" points="-363.438569657,1201.0 -314.70158944,1201.59174379 -315.158604886,1271.34155698 -363.418014338,1271.35578132 -363.438569657,1201.0 " moovel_rot="-2.9" moovel_centroid="-339.213809879,1236.2643519494222"></polygon></g><g transform="translate(549.3674467000001 -2081.6100613) rotate(0)"><polygon id="137879519" class="tile" points="-296.925134939,2090.48645352 -342.152308471,2092.96564292 -340.039254016,2136.7246366 -347.934712488,2150.74381279 -345.949950825,2173.92403014 -294.781568098,2166.95344305 -294.789254163,2146.26801035 -295.58881167,2127.68513715 -318.20033636,2130.84499959 -319.144488611,2107.29924357 -296.503495913,2106.06971547 -296.925134939,2090.48645352 " moovel_rot="-90.1" moovel_centroid="-321.659557,2134.73553219"></polygon></g><g transform="translate(713.0587806999999 -1407.0280521) rotate(0)"><polygon id="49966754" class="tile" points="-498.250924241,1885.94047526 -491.970399079,1886.92858812 -485.832451325,1887.97185791 -478.631691795,1889.11504984 -480.57842789,1882.96600298 -461.3299623,1883.0403228 -459.745161239,1883.04175281 -458.294271541,1882.88604837 -458.629660227,1862.49053976 -450.466926077,1861.95774085 -452.201596056,1812.45230825 -457.4102003,1812.30112495 -462.520015221,1812.20697518 -466.542704816,1812.22382149 -466.548389131,1810.94779141 -486.906390247,1810.95660682 -486.901776574,1806.59778485 -498.238318095,1806.57323119 -498.250924241,1885.94047526 " moovel_rot="-24.5" moovel_centroid="-476.352635048,1846.5562393"></polygon></g><g transform="translate(605.4077949 -1660.7830479) rotate(0)"><polygon id="282430575" class="tile" points="-404.325667012,2090.48645352 -395.381740701,2110.72034063 -405.063172178,2113.44477448 -405.633078604,2111.40357705 -412.478971361,2113.32026629 -411.398715259,2117.19860235 -410.950011481,2117.07975201 -409.154809813,2123.53805789 -408.295928022,2123.30125167 -405.322158413,2133.97230184 -404.256542241,2137.78819846 -395.458575294,2167.7326154 -399.773243036,2168.82011323 -404.460081204,2170.04751064 -407.988187307,2156.36477239 -437.631854144,2164.08405196 -439.551750483,2156.61283583 -452.943783151,2160.10254317 -463.714524279,2118.3451268 -450.466520449,2114.84167633 -451.604529084,2110.53666235 -424.285379512,2103.31088297 -426.128039723,2096.25445629 -404.325667012,2090.48645352 " moovel_rot="60.0" moovel_centroid="-427.747803171,2131.09221521"></polygon></g><g transform="translate(359.72806360000004 -1631.1997849000002) rotate(0)"><polygon id="29409197" class="tile" points="-222.677424028,2090.48645352 -262.482515476,2108.85425433 -280.849905004,2121.47974961 -274.404364198,2131.62764948 -277.0540864,2133.30500362 -271.813548964,2141.56189707 -262.120512298,2135.40725469 -249.401005432,2155.42871109 -280.860153358,2175.39746168 -274.750296612,2186.97260158 -222.101632141,2155.18283428 -222.677424028,2090.48645352 " moovel_rot="-50.2" moovel_centroid="-246.989590235,2134.9796825"></polygon></g><g transform="translate(600.7274041000001 -1081.4908217) rotate(0)"><polygon id="181454192" class="tile" points="-339.280890454,1441.13885357 -339.344256125,1339.98322335 -369.243638588,1339.06907564 -369.290596669,1351.91875097 -369.794084893,1396.28346023 -369.93457527,1419.78583046 -370.005605987,1428.78761576 -369.787328715,1446.32741135 -344.433661154,1446.01761953 -344.435796907,1441.33397268 -342.550129166,1441.38481662 -339.280890454,1441.13885357 " moovel_rot="-88.5" moovel_centroid="-354.619617031,1392.70612694"></polygon></g><g transform="translate(311.6414974 -1473.8893094) rotate(0)"><polygon id="211683755" class="tile" points="-309.141524835,2072.62354478 -283.587416079,2073.81868842 -283.630506421,1949.99566571 -308.751035562,1949.69173817 -309.141524835,2072.62354478 " moovel_rot="12.3" moovel_centroid="-296.262837262,2011.70929494"></polygon></g><g transform="translate(204.417865 -1446.8059423) rotate(0)"><polygon id="52523268" class="tile" points="-2.45920274947,1979.26224678 -40.2867681177,1953.65073279 -46.1290219529,1949.69173817 -61.0056091106,1972.40646021 -28.0431019401,1994.63759163 -60.9861741121,2044.57645007 -55.5214490762,2048.14777652 -44.1700898331,2047.48095571 -43.138363475,2046.31106086 -37.9834079166,2049.20722157 -3.30222869273,1994.72819206 0.0,1988.77312963 -6.3215082692,1984.95768141 -2.45920274947,1979.26224678 " moovel_rot="-44.6" moovel_centroid="-31.84992215871785,1997.61501047"></polygon></g><g transform="translate(609.3375607 -1438.4331972) rotate(0)"><polygon id="236004221" class="tile" points="-402.213068623,2033.6364338 -358.835544046,2023.56744082 -358.822638183,1976.76130232 -370.607142244,1976.78492263 -370.495204996,1949.69173817 -395.005043047,1951.22531393 -395.12448066,1983.19203742 -395.42501013,1988.75248867 -404.628336997,1989.70933227 -402.213068623,2033.6364338 " moovel_rot="-8.6" moovel_centroid="-381.429059318,1994.57083759"></polygon></g><g transform="translate(448.57338029999994 -1399.7696452) rotate(0)"><polygon id="295819546" class="tile" points="-314.087422634,1949.69173817 -339.207817129,1949.69177133 -339.206857734,1957.89523171 -357.82173198,1957.89486319 -357.822638183,1961.20253177 -357.822252294,1969.07739795 -355.551338141,1969.07343445 -355.553016082,2040.82284432 -346.496056991,2040.81798929 -344.38544266,2040.81430557 -344.378990855,2002.41518826 -310.141524835,2002.41019476 -310.143354284,1951.61250501 -314.084077371,1951.60843032 -314.087422634,1949.69173817 " moovel_rot="0.1" moovel_centroid="-335.122522399,1984.32962764"></polygon></g><g transform="translate(83.7940569 -1329.7710088) rotate(0)"><polygon id="272638575" class="tile" points="-32.0845981319,1806.57323119 -32.2433437907,1948.84069875 -49.4125533998,1949.69173817 -50.7827200125,1807.14473115 -32.0845981319,1806.57323119 " moovel_rot="-54.5" moovel_centroid="-41.1386723649,1877.05196942"></polygon></g><g transform="translate(326.5399498 -1237.8992674) rotate(0)"><polygon id="53224315" class="tile" points="-88.7665225829,1415.69372049 -125.448441608,1411.47762552 -125.452974998,1339.06907564 -83.9373749027,1346.41903068 -88.7665225829,1415.69372049 " moovel_rot="22.1" moovel_centroid="-105.986751068,1377.4062848"></polygon></g><g transform="translate(233.2197845 -1504.6984081) rotate(0)"><polygon id="27800178" class="tile" points="-0.0521925972775,2158.43599772 -50.4908026479,2158.59610399 -50.5425344774,2090.48645352 -42.7184127225,2090.54656499 -31.6126785412,2090.56613444 -31.5773380006,2105.99467073 -21.3156534372,2105.89350558 -21.3614569539,2111.22827363 -11.8970912112,2120.07171801 0.0,2120.27291966 -0.0484084451571,2123.86358489 -0.0521925972775,2158.43599772 " moovel_rot="73.3" moovel_centroid="-28.54224049320084,2130.45665739"></polygon></g><g transform="translate(614.4623412999999 -842.7512757000001) rotate(0)"><polygon id="97504074" class="tile" points="-471.271326723,1446.32741135 -474.343996408,1457.77839798 -483.416345073,1491.62359866 -452.615826612,1500.55849594 -460.291036345,1526.0180257 -465.19152997,1524.5876401 -473.027480341,1553.2551345 -464.003829831,1557.34949544 -454.300337089,1561.75494379 -442.442429471,1520.88154845 -442.48163802,1468.72226634 -471.271326723,1446.32741135 " moovel_rot="60.8" moovel_centroid="-459.000072457,1500.07352072"></polygon></g><g transform="translate(212.71075390000001 -1346.4339295) rotate(0)"><polygon id="429447286" class="tile" points="-166.092004648,1985.84267114 -202.63629274,1956.03438217 -210.163250875,1949.69173817 -210.210753197,2023.33539852 -207.783522228,2033.60153278 -206.732806088,2036.36723973 -203.287759666,2040.0430802 -196.288886068,2045.43131602 -188.015918076,2034.72137076 -191.752780484,2031.73024349 -169.566815541,2003.20304305 -175.817258949,1998.41631633 -166.092004648,1985.84267114 " moovel_rot="-32.9" moovel_centroid="-194.059512389,1997.76767917"></polygon></g><g transform="translate(294.7992111 -955.8067221) rotate(0)"><polygon id="81003950" class="tile" points="-224.639277492,1446.32741135 -238.107583996,1447.40595671 -236.737694672,1492.83638096 -234.302183933,1568.19447505 -238.139424501,1582.37848973 -237.752952693,1585.19145961 -236.926161343,1592.36114834 -226.583582604,1588.27113898 -219.317497752,1573.99360008 -217.117825852,1549.2535108 -219.092402393,1522.19598494 -224.639277492,1446.32741135 " moovel_rot="36.5" moovel_centroid="-228.366306847,1519.7150024"></polygon></g><g transform="translate(654.8132642 -1320.1641997) rotate(0)"><polygon id="27168747" class="tile" points="-572.158311675,1949.77016155 -575.987548995,1949.72549707 -579.817663756,1949.69173817 -579.501621143,1959.25546805 -584.672403158,1959.31141212 -584.28304769,1996.52985724 -583.895149386,2079.15539292 -580.435023951,2078.87401728 -579.028557573,2079.38231115 -578.990989539,2080.16462238 -579.107753782,2084.86388415 -575.613154645,2084.90358347 -572.125213161,2084.94274712 -572.224072429,2079.84197986 -571.232282503,2078.75833222 -570.52218397,2078.7605859 -567.810194135,2078.61658273 -566.813347356,2077.71993192 -566.89030986,1973.99034369 -570.23405384,1973.9079068 -572.181490042,1972.96093775 -572.925536707,1971.29855638 -572.212741743,1969.43508087 -570.387141629,1968.23189869 -567.027450001,1968.28269002 -566.792093325,1958.44503155 -572.332040587,1958.59201137 -572.158311675,1949.77016155 " moovel_rot="-4.6" moovel_centroid="-575.626877116,2018.35585069"></polygon></g><g transform="translate(477.8048614 -925.5407045) rotate(0)"><polygon id="30978403" class="tile" points="-434.53095136,1629.28889818 -475.304863864,1629.65351691 -475.16103619,1682.63454455 -434.564380635,1682.02113769 -434.53095136,1629.28889818 " moovel_rot="-94.6" moovel_centroid="-454.906422768,1655.88055574"></polygon></g><g transform="translate(309.1961774 -554.9468395) rotate(0)"><polygon id="32298517" class="tile" points="-190.097154073,1201.01820462 -216.274916942,1201.0 -216.219793723,1280.80182147 -190.141747458,1276.89202341 -190.097154073,1201.01820462 " moovel_rot="23.1" moovel_centroid="-203.293488298,1239.9115210686246"></polygon></g><g transform="translate(372.063708 -675.3152428000001) rotate(0)"><polygon id="216859350" class="tile" points="-161.057772654,1339.06907564 -151.587081308,1359.35413669 -155.559368472,1360.75514065 -152.937928381,1366.68136186 -159.206431451,1369.34697346 -156.201858483,1376.41612548 -159.832389066,1377.78276947 -151.630005933,1398.89521505 -173.747940367,1407.74190783 -175.957507216,1402.37463562 -181.478567247,1404.69862504 -184.335301989,1397.75587077 -195.820841935,1368.87992808 -190.677494925,1366.87321928 -195.557059384,1355.52039798 -194.397610157,1355.05710984 -174.871562992,1347.22222707 -175.769373292,1344.96243174 -161.057772654,1339.06907564 " moovel_rot="-67.3" moovel_centroid="-172.433119638,1373.55101183"></polygon></g><g transform="translate(734.5289315 -787.5679659) rotate(0)"><polygon id="53190803" class="tile" points="-486.206952468,1451.58641455 -487.466041351,1511.40500943 -487.17991877,1523.69831367 -484.419733254,1529.46897492 -484.416345073,1532.58528909 -509.58567568,1532.06944979 -508.324609044,1446.32741135 -497.989876666,1446.49177832 -486.226678872,1446.61956339 -486.206952468,1451.58641455 " moovel_rot="26.4" moovel_centroid="-497.823574372,1489.73457178"></polygon></g><g transform="translate(323.9065739 -725.4669183) rotate(0)"><polygon id="121068796" class="tile" points="-144.604236516,1503.26528638 -176.516246191,1507.24334827 -184.517351839,1452.51201854 -141.96191264,1446.32741135 -141.959836563,1455.96734056 -148.405612103,1461.68941493 -147.03986455,1476.35496825 -145.109672313,1490.33809197 -144.604236516,1503.26528638 " moovel_rot="-54.9" moovel_centroid="-162.965488562,1476.1861688"></polygon></g><g transform="translate(433.16661799999997 -1077.0486968999999) rotate(0)"><polygon id="48269325" class="tile" points="-331.131935412,1806.57323119 -331.161365017,1863.23239906 -298.466747348,1863.25993153 -298.448146799,1818.12701738 -298.437292694,1806.60076204 -331.131935412,1806.57323119 " moovel_rot="-86.3" moovel_centroid="-314.800550749,1834.91699282"></polygon></g><g transform="translate(744.6728241000001 -1340.9419278999999) rotate(0)"><polygon id="35170082" class="tile" points="-517.641589252,2090.48645352 -517.66454646,2130.02213012 -522.405456084,2130.00428065 -522.423520703,2137.94168329 -528.719143203,2137.91854936 -528.705128585,2132.77850443 -537.639193399,2132.74945328 -543.792615751,2132.72431367 -560.379827993,2132.66816692 -560.357529733,2090.61646994 -548.909912977,2090.57877713 -522.610296982,2090.50261172 -517.641589252,2090.48645352 " moovel_rot="-86.5" moovel_centroid="-538.887372995,2111.92377444"></polygon></g><g transform="translate(331.7987126 -867.6617733) rotate(0)"><polygon id="230103543" class="tile" points="-263.174534315,1630.55153039 -298.447193831,1629.28889818 -298.430788865,1639.68537498 -298.407382232,1654.66250458 -298.403781178,1661.75952863 -298.384631975,1670.70465308 -298.374114404,1680.50984669 -263.447733611,1678.90887947 -263.174534315,1630.55153039 " moovel_rot="79.9" moovel_centroid="-281.028451957,1654.77400266"></polygon></g><g transform="translate(311.0615064 -879.6407) rotate(0)"><polygon id="396121093" class="tile" points="-75.6425972575,1629.59776489 -74.0123299496,1631.49923037 -72.7768356033,1634.98792128 -71.6171266289,1639.25158441 -71.5910151895,1790.28305136 -73.086700682,1800.76970924 -74.1713247348,1801.93293621 -75.5340619285,1802.23581458 -76.7602459848,1802.17542806 -77.7452884581,1801.42434147 -78.5560542548,1800.36366515 -79.1498136066,1793.44374633 -79.0242351666,1631.27943582 -78.5011810277,1630.1767479 -77.7364383709,1629.54572221 -76.3821523948,1629.28889818 -75.6425972575,1629.59776489 " moovel_rot="35.1" moovel_centroid="-75.3904389546,1716.19291219"></polygon></g><g transform="translate(373.9466247 -867.3380533999999) rotate(0)"><polygon id="48707923" class="tile" points="-361.830579899,1629.28889818 -371.413313781,1629.60045618 -371.446635712,1773.02095063 -361.932730591,1772.83721891 -361.830579899,1629.28889818 " moovel_rot="19.1" moovel_centroid="-366.655075371,1701.10074545"></polygon></g><g transform="translate(557.3778828000001 -1132.0574179) rotate(0)"><polygon id="52072607" class="tile" points="-524.274105492,1949.69173817 -528.410640457,1949.74300102 -539.526773211,1949.70860515 -540.464809411,2048.14711675 -524.191277843,2048.36072863 -524.274105492,1949.69173817 " moovel_rot="-4.3" moovel_centroid="-532.113879975,1999.5208731"></polygon></g><g transform="translate(277.7878965 -1132.1746881) rotate(0)"><polygon id="311133900" class="tile" points="-216.20316629,1949.69173817 -216.193041747,1957.61045126 -211.210753197,1957.67132443 -211.468914851,2027.45837608 -216.152667338,2027.56520705 -216.249120452,2031.63263156 -239.615787836,2031.72993815 -239.529350087,2026.84210838 -238.828757678,2026.90535371 -238.894434726,2014.23936084 -238.178748058,2014.16060792 -225.349021108,2014.31736041 -224.57349362,2014.2612129 -224.360577803,2014.32943712 -224.330506816,2009.1346605 -223.207955654,2009.10462712 -223.173226207,2008.99567993 -223.252400846,1998.52784707 -224.580253885,1998.41318889 -224.654387314,1998.46696902 -224.518125429,1993.32815856 -223.315296604,1993.28816868 -223.317158072,1990.706969 -223.663513695,1990.62617691 -223.589638397,1987.85996875 -224.585428422,1987.90248827 -224.684673218,1987.82471531 -224.573524385,1983.10120063 -223.447632972,1982.79777755 -223.597600087,1972.1102778 -224.625981808,1972.08677589 -224.743375464,1966.93390074 -238.377482361,1967.00793985 -238.898017866,1966.96876825 -238.880876711,1954.08488325 -239.675772168,1954.08610856 -239.650245028,1949.80994342 -216.20316629,1949.69173817 " moovel_rot="-0.7" moovel_centroid="-222.652078529,1991.0549583"></polygon></g><g transform="translate(198.5508615 -693.5494191999999) rotate(0)"><polygon id="32470409" class="tile" points="-135.947598531,1339.06907564 -150.587081308,1339.18903955 -148.971579884,1444.28836863 -136.096873699,1444.56417694 -135.947598531,1339.06907564 " moovel_rot="31.0" moovel_centroid="-142.904214975,1390.65025044"></polygon></g><g transform="translate(152.7578267 -981.1020646) rotate(0)"><polygon id="118395071" class="tile" points="-81.2157441522,1861.09719564 -51.8178748638,1861.06093076 -51.7827200125,1806.57323119 -81.1807008036,1806.60944783 -81.2157441522,1861.09719564 " moovel_rot="66.6" moovel_centroid="-66.4992621225,1833.83518413"></polygon></g><g transform="translate(235.4053433 -369.15894530000014) rotate(0)"><polygon id="29054724" class="tile" points="-129.421177674,1201.0 -129.465395037,1249.12174221 -96.5418731276,1250.09080664 -96.6040151599,1202.18291106 -129.421177674,1201.0 " moovel_rot="20.2" moovel_centroid="-113.020511256,1225.6114109587347"></polygon></g><g transform="translate(399.9395576 -1163.0747507) rotate(0)"><polygon id="27497436" class="tile" points="-256.195384675,1994.64619942 -253.496221833,2060.68341783 -240.681138566,2060.36030176 -240.675772168,1986.1899179 -248.944213875,1985.62443798 -249.561918575,1949.96944374 -255.099617042,1949.69173817 -252.679226975,1994.16184169 -256.195384675,1994.64619942 " moovel_rot="77.7" moovel_centroid="-248.274203487,2014.75799609"></polygon></g><g transform="translate(576.1776338 -1336.7201068000002) rotate(0)"><polygon id="32358577" class="tile" points="-407.185546272,1394.81853538 -413.960925846,1397.72254468 -430.209301754,1380.85082981 -438.171206229,1368.1471582 -444.856271798,1357.64012502 -445.095523259,1351.53296108 -410.882033499,1339.06907564 -407.16197386,1343.98891064 -407.185546272,1394.81853538 " moovel_rot="-69.5" moovel_centroid="-421.598869805,1365.62092481"></polygon></g><g transform="translate(564.9631218 -404.3474398000001) rotate(0)"><polygon id="30647950" class="tile" points="-368.535831262,1201.0 -398.49780046,1210.33973474 -400.159523913,1210.86469902 -401.167426349,1219.23947295 -399.71612592,1246.00928005 -364.458965668,1246.22134648 -364.438569657,1215.30575273 -368.535831262,1201.0 " moovel_rot="75.6" moovel_centroid="-381.979411048,1225.972657098876"></polygon></g><g transform="translate(600.0427812 -349.7559305000001) rotate(0)"><polygon id="54167545" class="tile" points="-410.63184844,1201.03084238 -427.389675947,1201.00861476 -435.725247083,1201.0 -435.784357639,1247.0449073 -430.030871857,1247.0473442 -402.188686539,1247.09399438 -402.167426349,1232.22149216 -406.743542649,1232.22108146 -406.729051143,1219.5545144 -406.710033396,1203.7926611 -406.705060508,1201.03771938 -410.63184844,1201.03084238 " moovel_rot="-3.3" moovel_centroid="-420.43135274,1224.7968625669923"></polygon></g><g transform="translate(432.3227569 -744.3404661999999) rotate(0)"><polygon id="23886880" class="tile" points="-326.475638501,1629.28889818 -360.566918528,1629.36107987 -360.830579899,1653.0696845 -360.536721362,1670.38248485 -326.44546379,1670.31022735 -326.475638501,1629.28889818 " moovel_rot="16.5" moovel_centroid="-343.576562209,1649.8401955"></polygon></g><g transform="translate(489.23171379999997 -1204.8509606) rotate(0)"><polygon id="43545429" class="tile" points="-378.350121808,2137.49254237 -378.379986676,2091.1065187 -360.334011799,2090.48645352 -348.934712488,2097.17086556 -349.111230674,2137.25948862 -378.350121808,2137.49254237 " moovel_rot="71.1" moovel_centroid="-363.977053417,2114.60439169"></polygon></g><g transform="translate(226.9192431 -727.4428257) rotate(0)"><polygon id="326633329" class="tile" points="-0.037261431478,1688.31141557 -8.43400264531,1688.51871599 -9.62912924644,1665.00840215 -24.2309268672,1665.08877546 -29.7836778112,1653.89167547 -30.1142296286,1629.79894579 0.0,1629.28889818 -0.037261431478,1688.31141557 " moovel_rot="53.6" moovel_centroid="-12.836639010827586,1651.86070037"></polygon></g><g transform="translate(612.025276 -541.8724997) rotate(0)"><polygon id="210562958" class="tile" points="-555.03047449,1446.32741135 -560.872634901,1447.13363575 -579.206107467,1465.55901132 -580.788964107,1468.34743815 -581.384583942,1470.44998644 -575.118963758,1471.89106659 -576.242196585,1478.34679277 -578.895930658,1478.16056513 -578.989327389,1492.15825525 -546.043092976,1492.45355577 -546.020345891,1455.40548413 -550.697401974,1448.47041829 -555.03047449,1446.32741135 " moovel_rot="80.8" moovel_centroid="-561.244063905,1472.05592733"></polygon></g><g transform="translate(597.3547604 -802.674361) rotate(0)"><polygon id="29387154" class="tile" points="-391.840709294,1629.54390445 -372.609620099,1629.28889818 -372.446635712,1632.28191358 -373.85531924,1689.64279049 -383.643693192,1695.29216511 -391.833840189,1700.16178674 -391.840709294,1629.54390445 " moovel_rot="-1.1" moovel_centroid="-382.728705645,1661.75295075"></polygon></g><g transform="translate(254.532005 -903.9672622000002) rotate(0)"><polygon id="380568894" class="tile" points="-82.2190672099,1807.57989054 -82.2157441522,1806.61261373 -83.1329142977,1806.62055237 -87.8196948438,1806.60380942 -90.3310093237,1806.60330767 -91.2960057583,1806.6069574 -100.673002947,1806.58386128 -101.637999316,1806.58751081 -109.280277378,1806.57323119 -109.277258553,1807.54260367 -109.276628017,1810.26348128 -109.282984953,1812.04825824 -109.279965815,1813.01762977 -109.277264402,1817.7105185 -109.291433142,1840.85448277 -109.283489412,1845.87186822 -109.28680971,1846.83913669 -109.276980868,1851.63810457 -109.276534177,1852.16854768 -101.758717683,1852.17627279 -100.793722184,1852.17262589 -91.4196379806,1852.18325831 -90.4546424167,1852.17961122 -87.8252167457,1852.18459749 -86.761131849,1852.17913645 -86.7628441641,1851.29090045 -86.7650636673,1846.85181558 -83.2443657786,1846.86335604 -82.221765676,1846.85570293 -82.2188945405,1840.27405025 -82.2234403237,1835.52292313 -82.2166821598,1834.54525952 -82.2202054067,1830.02502979 -82.2168836332,1829.05775687 -82.2195424557,1824.08820659 -82.2162203433,1823.12093264 -82.2205602993,1818.77334643 -82.2160820288,1812.12301897 -82.2190672099,1807.57989054 " moovel_rot="-18.3" moovel_centroid="-95.977689325,1828.98475336"></polygon></g><g transform="translate(354.94994760000003 -885.4812596) rotate(0)"><polygon id="107851314" class="tile" points="-352.342374708,1807.91871004 -352.44996485,1871.46351913 -332.161365017,1870.33702729 -336.946204996,1806.57323119 -352.342374708,1807.91871004 " moovel_rot="-37.1" moovel_centroid="-343.408764062,1840.5206584"></polygon></g><g transform="translate(315.5291622 -1328.5399203) rotate(0)"><polygon id="282493555" class="tile" points="-194.490555597,1508.61493001 -216.117825852,1508.56528687 -216.074263121,1476.12160567 -202.89478347,1446.34205297 -194.505759421,1446.32741135 -194.490555597,1508.61493001 " moovel_rot="0.1" moovel_centroid="-204.197233331,1481.10598397"></polygon></g><g transform="translate(165.4886904 -515.3580467999999) rotate(0)"><polygon id="409588138" class="tile" points="-79.8135503845,1446.7193929 -79.7046463763,1502.35563637 -59.6802366903,1503.26038794 -59.6081772285,1446.32741135 -79.8135503845,1446.7193929 " moovel_rot="81.1" moovel_centroid="-69.6629789824,1474.6239041"></polygon></g><g transform="translate(630.9580524 -1013.6388419) rotate(0)"><polygon id="122504247" class="tile" points="-453.646787293,1949.69173817 -453.620083774,1982.79127216 -441.205040996,1983.08867784 -440.790115634,2016.89179254 -430.005325758,2016.89697631 -428.941653981,1955.90428327 -444.066180165,1956.26960925 -448.069583723,1955.40021029 -451.640015019,1952.85665591 -453.646787293,1949.69173817 " moovel_rot="46.3" moovel_centroid="-439.368373978,1980.15954153"></polygon></g><g transform="translate(189.75758969999998 -1134.9457656) rotate(0)"><polygon id="35078550" class="tile" points="-128.281237305,2090.48645352 -128.257623675,2093.75281573 -128.281147629,2124.55257182 -161.976042252,2124.55073634 -161.975941351,2090.49553619 -148.876081275,2090.49631639 -140.819941946,2090.486804 -128.281237305,2090.48645352 " moovel_rot="1.0" moovel_centroid="-145.121416073,2107.51994628"></polygon></g><g transform="translate(268.74182199999996 -263.41091570000003) rotate(0)"><polygon id="52521263" class="tile" points="-157.869743735,1201.05234185 -130.465395037,1201.0 -130.475191293,1242.0542423 -151.44802864,1242.09172649 -157.879450418,1242.10664056 -157.869743735,1201.05234185 " moovel_rot="57.8" moovel_centroid="-144.172370866,1221.5526406385818"></polygon></g><g transform="translate(755.4933049 -275.8446369999999) rotate(0)"><polygon id="163651294" class="tile" points="-513.491971836,1338.96229457 -513.490235969,1201.0 -519.017205742,1203.7499087 -518.890377434,1331.69319926 -518.893114055,1339.06907564 -513.491971836,1338.96229457 " moovel_rot="-84.4" moovel_centroid="-516.212210435,1270.4102360842585"></polygon></g><g transform="translate(61.1081761 -451.96190920000004) rotate(0)"><polygon id="219917213" class="tile" points="-33.7381781196,1446.32741135 -58.568290396,1446.88303664 -58.6081772285,1489.37938354 -29.6951910568,1489.49052496 -29.6160649979,1482.09924664 -34.4520375805,1482.10331875 -34.1308696641,1465.88711266 -33.7381781196,1446.32741135 " moovel_rot="41.7" moovel_centroid="-45.8734232259,1468.49122377"></polygon></g><g transform="translate(107.0732178 -634.6831307) rotate(0)"><polygon id="173092017" class="tile" points="-55.5464248812,1697.79519629 -55.5279474316,1629.30524295 -63.5394664004,1629.28889818 -63.5364067644,1634.16727601 -70.5721458681,1634.15203128 -70.5757319715,1669.53659355 -70.5910151895,1697.76973051 -55.5464248812,1697.79519629 " moovel_rot="-67.1" moovel_centroid="-62.9198074652,1664.63219386"></polygon></g><g transform="translate(312.0661166 -813.4336892999999) rotate(0)"><polygon id="43064250" class="tile" points="-255.521859876,1811.83894692 -255.525210338,1849.05029348 -229.509894486,1848.50776116 -229.565158615,1806.57323119 -232.471425372,1806.5743542 -247.21306025,1806.6345853 -251.41231942,1811.47420791 -255.521859876,1811.83894692 " moovel_rot="41.5" moovel_centroid="-242.271170584,1828.2483723"></polygon></g><g transform="translate(511.3812852 -813.7642579) rotate(0)"><polygon id="221132974" class="tile" points="-407.688625614,1864.38793519 -407.672334243,1806.57323119 -423.882197786,1806.70878365 -423.271003944,1864.90629625 -407.688625614,1864.38793519 " moovel_rot="-33.1" moovel_centroid="-415.638551631,1835.4540528"></polygon></g><g transform="translate(252.8589082 -796.3325430000001) rotate(0)"><polygon id="119290256" class="tile" points="-125.109071888,1858.83158354 -144.830727572,1859.30135217 -144.8416865,1850.77828705 -144.854567151,1848.23343341 -144.131174927,1848.23588663 -144.164005712,1838.90796974 -143.659313907,1838.90220814 -132.517882961,1838.85839401 -132.632450092,1808.21576251 -132.633907663,1806.62902578 -128.379025788,1806.61113959 -119.605991376,1806.57323119 -119.566816143,1853.92062541 -125.148917608,1853.94845092 -125.109071888,1858.83158354 " moovel_rot="-93.9" moovel_centroid="-129.577850678,1836.46711816"></polygon></g><g transform="translate(292.6238487 -1198.5000372) rotate(0)"><polygon id="10632497" class="tile" points="-217.274916942,1238.44326476 -217.311254485,1201.13859508 -242.713699547,1201.0 -242.795347977,1238.34639746 -217.274916942,1238.44326476 " moovel_rot="-86.0" moovel_centroid="-230.026216524,1219.7464636727827"></polygon></g><g transform="translate(650.6636266 -217.35656970000002) rotate(0)"><polygon id="178321152" class="tile" points="-512.48228932,1201.0 -512.470497135,1207.46650357 -512.490235969,1209.57222793 -512.395190282,1233.35059589 -493.289925378,1233.5612179 -493.312094959,1229.29720178 -492.969423853,1228.53461491 -492.283701538,1228.27761693 -491.227614917,1228.63709792 -490.711149627,1229.36039374 -490.913790797,1234.74792783 -495.046681822,1234.85708149 -495.620293626,1246.24743916 -495.741481534,1248.61470209 -488.282850356,1248.51316169 -487.978227387,1206.02699808 -488.602948711,1205.88498067 -488.326760624,1201.06327369 -512.48228932,1201.0 " moovel_rot="68.8" moovel_centroid="-499.409161248,1219.8794824224362"></polygon></g><g transform="translate(665.5838104 -1082.2379446) rotate(0)"><polygon id="342876715" class="tile" points="-477.050699137,2140.59376465 -469.023549725,2135.23869012 -467.94762781,2136.62144519 -467.067288067,2137.64446167 -464.738425731,2135.9487101 -476.678253819,2117.32807169 -478.354455407,2118.65964878 -482.183223773,2114.53637806 -485.161305954,2109.59966279 -486.05154827,2106.68541136 -485.081801492,2104.37362612 -483.262420039,2103.59884108 -464.714524279,2102.24451266 -465.684469392,2090.48645352 -483.03618055,2091.954777 -482.455354043,2098.2815301 -483.490496636,2098.3088147 -485.691362574,2092.55902349 -488.304008799,2093.63313572 -490.774276498,2095.11099686 -493.015566623,2096.94842398 -494.95475276,2099.0794401 -496.512086658,2101.42710136 -490.74833181,2105.16855485 -490.750603396,2106.01035103 -498.302465366,2106.4653188 -498.183540469,2107.49232858 -497.965345247,2108.34390225 -496.248253028,2112.27052249 -489.95093091,2110.76169574 -489.458263856,2111.73208642 -493.290759266,2114.55080854 -485.663873689,2127.14853019 -481.478474671,2124.12025544 -480.772764018,2124.95834127 -484.817902403,2127.98588108 -477.050699137,2140.59376465 " moovel_rot="0.3" moovel_centroid="-480.372670226,2112.19313019"></polygon></g><g transform="translate(192.7213287 -1715.5458065) rotate(0)"><polygon id="12346079" class="tile" points="-127.257623675,2090.67885217 -116.872417688,2090.48645352 -116.927466962,2165.74732643 -126.959459325,2165.6496784 -127.257623675,2090.67885217 " moovel_rot="54.7" moovel_centroid="-122.001326558,2127.92369465"></polygon></g><g transform="translate(255.49005849999998 -1054.9137850999998) rotate(0)"><polygon id="281028620" class="tile" points="-87.0417495931,2090.48645352 -106.619261569,2092.41970867 -114.75083689,2092.81113442 -115.872417688,2092.86663272 -115.165286296,2107.45073353 -114.481856908,2121.68501854 -114.458842581,2121.96916842 -115.318804704,2122.13130779 -115.1914348,2126.00206343 -115.852407249,2126.03086157 -115.742940618,2128.82986835 -114.261577726,2129.96285483 -111.457854793,2129.80223613 -99.1903464561,2128.89716174 -95.6662290556,2128.64149402 -95.8782829721,2125.61386145 -96.0033549179,2123.87601273 -94.9034140194,2123.66760784 -96.2214588203,2105.60068697 -85.9827032059,2104.86998859 -87.0417495931,2090.48645352 " moovel_rot="0.6" moovel_centroid="-103.229187811,2108.80974723"></polygon></g><g transform="translate(484.3326115 -857.0251703) rotate(0)"><polygon id="23943476" class="tile" points="-393.930567083,1629.28889818 -410.761843368,1629.37702734 -410.776880374,1677.53052631 -408.193108884,1677.31996253 -393.01173678,1677.20763315 -392.840709294,1671.60218143 -393.930567083,1629.28889818 " moovel_rot="0.3" moovel_centroid="-402.050952348,1653.572633"></polygon></g><g transform="translate(315.5261664 -939.2644486999999) rotate(0)"><polygon id="95919796" class="tile" points="-86.8569864091,1989.91905856 -112.546714359,1987.06342136 -109.579107214,1961.07833077 -108.682879744,1949.69173817 -86.8967070876,1956.10690308 -86.8569864091,1989.91905856 " moovel_rot="-70.4" moovel_centroid="-98.9384937375,1971.1398483"></polygon></g><g transform="translate(343.8274452 -909.6336769999998) rotate(0)"><polygon id="201540389" class="tile" points="-268.846339871,2000.80820964 -282.587416079,1997.72579596 -276.624433458,1977.15451285 -282.568886953,1954.66023484 -272.789314973,1952.09366909 -263.846157283,1949.69173817 -263.584906022,1950.55650998 -261.412367571,1958.37882935 -257.195384675,1974.01898025 -261.443250944,1975.19355478 -262.088087081,1977.23586697 -262.889442676,1979.78036489 -263.687000307,1979.50144706 -264.379099141,1981.83871827 -264.896290085,1981.70081582 -266.092011,1986.10816033 -264.95812597,1986.40456318 -268.846339871,2000.80820964 " moovel_rot="-60.6" moovel_centroid="-270.879493871,1973.67715839"></polygon></g><g transform="translate(439.8989157 -1289.9242072000002) rotate(0)"><polygon id="126220269" class="tile" points="-193.229213159,1531.69543739 -193.490555597,1446.34112633 -185.517351839,1446.32741135 -185.530108764,1531.76045681 -193.229213159,1531.69543739 " moovel_rot="-16.5" moovel_centroid="-189.441560841,1488.78209058"></polygon></g><g transform="translate(436.0309437 -586.7880058999999) rotate(0)"><polygon id="246664706" class="tile" points="-411.81457832,1629.28889818 -428.896947978,1629.29534181 -428.873528021,1656.71863582 -433.53095136,1656.72746349 -433.51667278,1671.91626551 -411.776880374,1671.90100416 -411.778437677,1663.3679868 -411.81457832,1629.28889818 " moovel_rot="-3.4" moovel_centroid="-421.297583808,1651.81537599"></polygon></g><g transform="translate(693.5133839 -231.51761079999994) rotate(0)"><polygon id="304979987" class="tile" points="-463.603416784,1201.0 -486.978227387,1201.32877287 -486.309828311,1237.06081824 -463.641912143,1235.94010451 -463.603416784,1201.0 " moovel_rot="58.2" moovel_centroid="-475.178335218,1218.7443239075235"></polygon></g><g transform="translate(456.68163880000003 -655.1289379) rotate(0)"><polygon id="175860969" class="tile" points="-328.946270014,1446.55507642 -328.945077852,1481.07659429 -340.080473872,1480.19027877 -345.804796411,1478.18873292 -355.461091707,1469.5184928 -360.63436808,1462.06343567 -360.311204481,1459.1085574 -357.750134144,1456.71560121 -351.266416624,1451.85621743 -342.703997982,1447.74251458 -335.358388554,1446.32741135 -328.946270014,1446.55507642 " moovel_rot="-48.8" moovel_centroid="-341.654958542,1463.31715662"></polygon></g><g transform="translate(352.7332195 -1444.2254375999999) rotate(0)"><polygon id="42275708" class="tile" points="-80.8135503845,1518.43890631 -80.8478411874,1452.43471989 -87.9845468745,1446.32741135 -88.2903528528,1480.84967435 -92.9899545982,1482.89448541 -93.1518768569,1517.41466875 -80.8135503845,1518.43890631 " moovel_rot="50.3" moovel_centroid="-86.1036314217,1487.95731988"></polygon></g><g transform="translate(718.8387012 -362.07855399999994) rotate(0)"><polygon id="213963124" class="tile" points="-471.836261742,1339.08714141 -471.80395052,1431.6287165 -465.597487184,1431.61636699 -465.626343198,1339.06907564 -471.836261742,1339.08714141 " moovel_rot="59.3" moovel_centroid="-468.715980172,1385.34603053"></polygon></g><g transform="translate(281.4873167 -1574.3184001) rotate(0)"><polygon id="442908144" class="tile" points="-15.0692854973,1806.57323119 -6.44638043526,1815.09253862 -6.16543524805,1880.05098112 -15.0694403189,1888.25365442 -15.0692854973,1806.57323119 " moovel_rot="-3.0" moovel_centroid="-10.8538306187,1847.70790873"></polygon></g><g transform="translate(321.0482765 -390.8590975000002) rotate(0)"><polygon id="220871442" class="tile" points="-94.1518768569,1489.59641986 -94.1608562401,1446.32741135 -115.963505787,1446.59978195 -116.144187221,1453.30141297 -109.973727889,1453.51213883 -111.122305703,1489.13207804 -94.1518768569,1489.59641986 " moovel_rot="-77.1" moovel_centroid="-102.889651396,1467.15888552"></polygon></g><g transform="translate(743.5777108 -574.5859306999998) rotate(0)"><polygon id="335689349" class="tile" points="-562.717355715,1685.56242694 -574.33983703,1685.75442981 -574.332194428,1683.89053303 -574.61421456,1664.39340447 -579.686973727,1664.46433053 -581.193403349,1664.49649283 -578.127767564,1643.21134297 -570.583707155,1629.28889818 -565.921678997,1629.66611407 -562.773371691,1629.92235417 -565.058357773,1652.1796559 -562.717355715,1685.56242694 " moovel_rot="-70.7" moovel_centroid="-570.457304118,1657.53106194"></polygon></g><g transform="translate(165.084191 -881.6432890000001) rotate(0)"><polygon id="107615275" class="tile" points="-113.546714359,1983.30322375 -134.554930243,1984.49241294 -134.493503127,1975.80379732 -134.476631606,1969.90701273 -135.842029168,1969.89603329 -135.765438229,1949.69173817 -134.710145596,1949.69920575 -119.279723021,1949.77886081 -113.547203129,1949.8102702 -113.546714359,1983.30322375 " moovel_rot="-73.1" moovel_centroid="-124.484277104,1966.58479308"></polygon></g><g transform="translate(678.0287775 -737.6898983000001) rotate(0)"><polygon id="142701771" class="tile" points="-589.356309901,1806.57323119 -589.315174576,1848.42244276 -583.134742262,1848.19253673 -577.57495702,1846.39418692 -573.241906864,1842.87178827 -569.776938458,1839.35550153 -568.173989072,1834.16838593 -567.617562279,1822.21356303 -569.92408565,1816.15248042 -573.473756508,1812.47973874 -576.708243012,1809.55641224 -583.0523956,1807.68308548 -589.356309901,1806.57323119 " moovel_rot="63.9" moovel_centroid="-579.840566867,1827.75779771"></polygon></g><g transform="translate(675.9646095999999 -1147.729502) rotate(0)"><polygon id="51899482" class="tile" points="-551.936036703,1871.77439818 -541.447105401,1872.28415117 -541.480474125,1806.57323119 -551.208492352,1813.15114007 -551.936036703,1871.77439818 " moovel_rot="-3.8" moovel_centroid="-546.421021522,1841.32686184"></polygon></g><g transform="translate(333.5210684 -261.3636541000001) rotate(0)"><polygon id="376988444" class="tile" points="-218.431377985,1351.96351701 -217.698051204,1384.5755636 -200.269415669,1382.01692205 -200.50369962,1356.1567955 -196.820841935,1355.95414975 -196.839323593,1339.06907564 -199.519250256,1339.11095899 -202.303260406,1339.15536972 -202.074029397,1349.76134905 -207.095340652,1349.81368752 -207.037968314,1351.81971272 -218.431377985,1351.96351701 " moovel_rot="-69.9" moovel_centroid="-207.989131042,1364.62810151"></polygon></g><g transform="translate(782.1802119 -566.7305244000001) rotate(0)"><polygon id="179091393" class="tile" points="-582.226719766,1629.28889818 -591.012575891,1629.29288754 -590.970646559,1696.47740273 -582.193403349,1696.48291905 -582.226719766,1629.28889818 " moovel_rot="-10.8" moovel_centroid="-586.600735928,1662.8800319"></polygon></g><g transform="translate(263.030457 -1437.8056580000002) rotate(0)"><polygon id="211479421" class="tile" points="-80.1498136066,1629.28889818 -80.1548878987,1670.01656635 -96.8560677615,1670.02880036 -96.8509956718,1629.30111475 -80.1498136066,1629.28889818 " moovel_rot="7.2" moovel_centroid="-88.5029418304,1649.65884446"></polygon></g><g transform="translate(299.9372533 -716.1852842000001) rotate(0)"><polygon id="169827975" class="tile" points="-291.17520555,1840.00871003 -274.93048225,1839.49402232 -274.755195713,1807.20616798 -297.122063558,1806.57323119 -297.437292694,1806.63239517 -297.431809655,1815.93854262 -297.378003649,1818.15382319 -291.119052049,1839.56048101 -291.17520555,1840.00871003 " moovel_rot="-1.2" moovel_centroid="-285.249017986,1822.34920777"></polygon></g><g transform="translate(201.272879 -350.60813529999996) rotate(0)"><polygon id="154946440" class="tile" points="-140.959836563,1480.60348279 -140.669721678,1453.97977471 -140.946176904,1447.38621401 -118.36257153,1446.32741135 -117.144187221,1469.2035174 -140.959836563,1480.60348279 " moovel_rot="-28.0" moovel_centroid="-129.958913319,1461.21398118"></polygon></g><g transform="translate(262.2500222 -549.3147789) rotate(0)"><polygon id="49939327" class="tile" points="-106.096978925,1676.97503314 -106.079017227,1645.74649578 -108.920986881,1645.49040904 -107.969471746,1631.93778641 -111.456389757,1631.80471231 -117.486556702,1629.71657978 -120.558706864,1629.28889818 -120.381139877,1636.00164366 -120.53679068,1665.25285973 -118.294731251,1665.30120893 -118.390706718,1676.95185169 -106.096978925,1676.97503314 " moovel_rot="70.9" moovel_centroid="-113.435476731,1654.03058269"></polygon></g><g transform="translate(652.6172824 -1070.742155) rotate(0)"><polygon id="98318914" class="tile" points="-379.379986676,2090.48645352 -386.634472652,2090.49306264 -394.381740701,2090.49000735 -394.37862452,2132.01730066 -386.992795519,2132.01504863 -379.387812246,2132.01338385 -379.379986676,2090.48645352 " moovel_rot="-91.9" moovel_centroid="-386.88205666,2111.25040376"></polygon></g><g transform="translate(464.77620920000004 -1666.2156112999999) rotate(0)"><polygon id="91711652" class="tile" points="-390.943808342,1806.58409261 -390.946668813,1810.65061047 -387.151249249,1810.65676502 -387.156223433,1816.60193764 -390.938405022,1816.59399389 -390.951834981,1830.05377872 -386.497489455,1830.04818543 -386.499294216,1835.31890399 -390.288094483,1835.31185713 -390.293413381,1842.25147394 -406.672334243,1842.24510279 -406.635862211,1806.57323119 -390.943808342,1806.58409261 " moovel_rot="7.7" moovel_centroid="-397.99297316,1824.44503743"></polygon></g><g transform="translate(786.9991583000001 -99.53501740000002) rotate(0)"><polygon id="243689161" class="tile" points="-541.48867855,1241.28754069 -549.687040795,1240.63319456 -557.546907066,1240.01234069 -556.692492981,1201.22884779 -541.511415424,1201.0 -541.48867855,1241.28754069 " moovel_rot="-93.4" moovel_centroid="-549.2633068,1221.07125330829"></polygon></g><g transform="translate(298.6618787 -1310.1911171) rotate(0)"><polygon id="81812034" class="tile" points="-240.255010198,1629.28889818 -239.299269533,1658.19818359 -240.662017648,1717.74963611 -244.997458676,1717.63429862 -244.610506515,1659.38241787 -245.000271962,1630.07532539 -240.255010198,1629.28889818 " moovel_rot="22.3" moovel_centroid="-242.342138759,1672.66987317"></polygon></g><g transform="translate(552.7781176 -231.565157) rotate(0)"><polygon id="81145203" class="tile" points="-498.272151287,1341.12238292 -497.83539838,1365.5087047 -522.740791094,1367.05856568 -522.709576956,1343.50957624 -520.371793048,1340.07354691 -516.63132531,1339.06907564 -498.272151287,1341.12238292 " moovel_rot="36.4" moovel_centroid="-510.554688669,1353.26548082"></polygon></g><g transform="translate(261.9720565 -515.1654434) rotate(0)"><polygon id="316767855" class="tile" points="-162.52373322,1629.28889818 -162.050855414,1650.18879094 -162.57020818,1668.00524512 -156.239502823,1667.8898572 -144.569045636,1667.69141368 -140.198495475,1667.59424931 -140.346992888,1659.06690161 -139.034655802,1657.38061988 -142.132361204,1651.96438151 -147.476916735,1652.00392574 -148.975684278,1651.45374087 -150.288292517,1650.39856336 -151.491439289,1648.93494045 -152.064463372,1647.33569072 -152.246997212,1645.68231988 -151.330613685,1630.12305714 -159.941498659,1629.48825945 -162.52373322,1629.28889818 " moovel_rot="6.3" moovel_centroid="-153.62225461,1652.217339"></polygon></g><g transform="translate(486.5111199 -513.4920248999999) rotate(0)"><polygon id="103502100" class="tile" points="-302.154809251,1664.67968839 -325.44546379,1658.43420291 -319.934821326,1644.27127087 -324.165578623,1642.27014024 -325.437059248,1637.39109572 -308.501323301,1629.28889818 -299.447193831,1650.77688983 -302.154809251,1664.67968839 " moovel_rot="18.1" moovel_centroid="-312.059426081,1648.02447634"></polygon></g><g transform="translate(647.4832322 -702.9527239000001) rotate(0)"><polygon id="270465370" class="tile" points="-442.508810436,1806.6014929 -424.886226328,1806.57323119 -424.882197786,1841.2613109 -442.492384535,1841.2862589 -442.508810436,1806.6014929 " moovel_rot="73.6" moovel_centroid="-433.692265918,1823.92853892"></polygon></g><g transform="translate(456.2127372 -676.9836023999999) rotate(0)"><polygon id="148173817" class="tile" points="-385.497489455,1807.51789129 -366.02546071,1806.57323119 -364.534749258,1810.52011527 -361.135890432,1813.42565677 -372.984295239,1839.2010035 -385.49557704,1839.53553507 -385.497489455,1807.51789129 " moovel_rot="7.7" moovel_centroid="-375.663790369,1821.73837825"></polygon></g><g transform="translate(170.3967205 -1718.9634499) rotate(0)"><polygon id="185766644" class="tile" points="0.0,1898.59083416 -4.11558733787,1898.59931728 -4.16543524805,1806.5816841 -0.0498243894428,1806.57323119 0.0,1898.59083416 " moovel_rot="37.9" moovel_centroid="-2.0827118803520093,1852.58622289"></polygon></g><g transform="translate(219.2101261 -817.3306454000001) rotate(0)"><polygon id="180239932" class="tile" points="-63.0257830355,1949.69173817 -85.8569864091,1963.5238409 -85.3274029637,1973.8163395 -81.5638970673,1980.09648076 -71.8610551935,1986.17497948 -63.0056091106,1986.18530466 -63.0257830355,1949.69173817 " moovel_rot="27.9" moovel_centroid="-72.5418962625,1969.80179748"></polygon></g><g transform="translate(498.84151249999996 -210.74788089999993) rotate(0)"><polygon id="311133884" class="tile" points="-474.171691367,1339.06907564 -472.836261742,1365.34895899 -485.462885333,1366.02046773 -485.36390133,1370.29615527 -486.016053923,1370.36727203 -485.835029038,1376.28139558 -485.046478839,1389.83213127 -489.419787142,1389.96069808 -490.069833545,1376.52456161 -490.100190489,1376.43826711 -490.105481568,1366.42302183 -489.7493084,1364.39405195 -488.935490278,1362.5976556 -490.089501038,1341.44379556 -485.454297911,1341.18384738 -485.449848201,1339.6950136 -474.171691367,1339.06907564 " moovel_rot="2.4" moovel_centroid="-482.678724653,1357.89016109"></polygon></g><g transform="translate(97.900034 -491.87104380000005) rotate(0)"><polygon id="85683161" class="tile" points="-32.1142296286,1637.13836993 -34.820137208,1634.17064071 -39.4749820653,1629.28889818 -53.8466144048,1647.39361095 -54.5279474316,1655.96256099 -40.6281014115,1678.71866333 -35.6129562251,1673.71519929 -32.1284530042,1670.29257856 -43.050791334,1653.5691991 -39.9433713702,1646.73847188 -36.3789339749,1641.81624902 -32.1142296286,1637.13836993 " moovel_rot="-51.4" moovel_centroid="-43.4057979532,1653.91312283"></polygon></g><g transform="translate(630.9804526 -43.161851899999874) rotate(0)"><polygon id="126214428" class="tile" points="-520.017205742,1229.0365962 -520.023264809,1201.0 -540.48867855,1201.00225511 -540.482613873,1229.03885104 -520.017205742,1229.0365962 " moovel_rot="-87.3" moovel_centroid="-530.252940728,1215.0194249465717"></polygon></g><g transform="translate(587.3918033 -187.4007051000001) rotate(0)"><polygon id="282805917" class="tile" points="-381.379673737,1339.1281857 -389.596725084,1339.10358821 -398.081604757,1339.06907564 -398.118978824,1372.19222273 -381.046821979,1372.0678545 -381.379673737,1339.1281857 " moovel_rot="-31.4" moovel_centroid="-389.66428413,1355.67594301"></polygon></g><g transform="translate(619.0733871 -303.00284250000004) rotate(0)"><polygon id="395249464" class="tile" points="-407.737385523,1446.32741135 -394.748251858,1446.35147826 -394.740254988,1487.58472872 -407.729369282,1487.56062227 -407.737385523,1446.32741135 " moovel_rot="-26.1" moovel_centroid="-401.238814375,1466.95605503"></polygon></g><g transform="translate(181.9324909 -290.70482319999996) rotate(0)"><polygon id="185105559" class="tile" points="-0.00782129829749,1446.32741135 -20.7318384983,1446.36933065 -20.7220366926,1469.71088483 -20.724001589,1473.10957577 0.0,1473.06761878 -0.00782129829749,1446.32741135 " moovel_rot="22.5" moovel_centroid="-10.365177627924606,1459.7182435"></polygon></g><g transform="translate(681.7550761 -790.5036758000001) rotate(0)"><polygon id="390545050" class="tile" points="-551.781597651,1949.7141895 -551.780745108,1962.81648275 -549.032596099,1962.82278136 -549.032622605,1972.51802607 -551.980864466,1972.51438156 -551.9749434,1975.818295 -551.981843868,1978.51384454 -548.476374969,1978.51996436 -548.477534229,1983.82646876 -565.792093325,1983.79522901 -565.790816017,1949.69173817 -551.781597651,1949.7141895 " moovel_rot="-67.7" moovel_centroid="-558.081652166,1967.26777377"></polygon></g><g transform="translate(537.8496387 -299.8466103999999) rotate(0)"><polygon id="137308294" class="tile" points="-295.353478798,1446.36827665 -295.375864077,1485.63830345 -302.413858695,1485.62344992 -308.517047781,1485.60261057 -308.498888621,1446.32741135 -295.353478798,1446.36827665 " moovel_rot="-51.2" moovel_centroid="-301.936472181,1465.98416259"></polygon></g><g transform="translate(156.7213631 -469.89477369999986) rotate(0)"><polygon id="339477331" class="tile" points="-121.592315458,1662.57595821 -121.558706864,1629.28889818 -132.138350185,1629.57770542 -132.103422177,1633.74817208 -132.087316298,1635.91608596 -138.034655802,1635.96372537 -137.817949147,1662.49013222 -121.592315458,1662.57595821 " moovel_rot="-7.9" moovel_centroid="-129.345715625,1646.95042597"></polygon></g><g transform="translate(447.4687872 -726.600516) rotate(0)"><polygon id="84894624" class="tile" points="-320.378416352,1339.19363972 -320.365190949,1367.871125 -338.280890454,1367.42333962 -338.05336515,1339.06907564 -320.378416352,1339.19363972 " moovel_rot="10.1" moovel_centroid="-329.252980626,1353.42187126"></polygon></g><g transform="translate(511.4071586 -1436.8185456) rotate(0)"><polygon id="113631720" class="tile" points="-256.530083422,1806.59650446 -273.755195713,1806.57323119 -273.750313015,1835.51318145 -256.525210338,1835.53648396 -256.530083422,1806.59650446 " moovel_rot="-18.2" moovel_centroid="-265.140199171,1821.05484892"></polygon></g><g transform="translate(559.5023521 -1117.6525443) rotate(0)"><polygon id="192675307" class="tile" points="-393.740254988,1475.58217353 -393.598223785,1446.32741135 -377.067948138,1446.32741135 -377.067948138,1475.86269865 -393.740254988,1475.58217353 " moovel_rot="-90" moovel_centroid="-385.355498807,1461.04609161"></polygon></g><g transform="translate(465.1034241 -1062.0146564000001) rotate(0)"><polygon id="114033003" class="tile" points="-462.603306014,1201.02974959 -455.442842342,1201.0182116 -449.404994798,1201.0 -449.412318703,1234.90688763 -455.583112469,1234.92510552 -462.603416784,1234.94490579 -462.603306014,1201.02974959 " moovel_rot="41.1" moovel_centroid="-456.006289564,1217.9701003512591"></polygon></g><g transform="translate(598.7246776000001 -1573.4866996) rotate(0)"><polygon id="255217195" class="tile" points="-539.4655016,1829.21471322 -540.447105401,1832.25010262 -535.649630388,1833.36243552 -536.413752669,1835.5074591 -522.982664531,1838.08284491 -523.005997317,1813.89809584 -523.008456946,1809.32647161 -533.838698344,1806.57323119 -534.225405317,1807.98904518 -539.4655016,1829.21471322 " moovel_rot="-25.5" moovel_centroid="-530.140148241,1823.01259532"></polygon></g><g transform="translate(462.3782294 -225.68848550000007) rotate(0)"><polygon id="338392495" class="tile" points="-280.932057732,1201.56512839 -280.912625728,1230.68025591 -287.842574707,1230.54493071 -294.725824421,1230.41294969 -294.665439088,1201.0 -288.38560735,1201.25770902 -280.932057732,1201.56512839 " moovel_rot="40.4" moovel_centroid="-287.820773894,1215.9278408754715"></polygon></g><g transform="translate(445.0391313 -1177.217252) rotate(0)"><polygon id="314115148" class="tile" points="-427.93056061,1949.70607226 -418.750445277,1949.69173817 -418.761565926,1989.85525922 -427.941653981,1989.8696204 -427.93056061,1949.70607226 " moovel_rot="45.2" moovel_centroid="-423.346056963,1969.78066257"></polygon></g><g transform="translate(618.4680160999999 -1014.4961043) rotate(0)"><polygon id="104064431" class="tile" points="-547.476374969,1949.69466432 -547.442396881,2002.64608727 -541.464809411,2002.6548059 -541.504144651,1949.69173817 -547.476374969,1949.69466432 " moovel_rot="-6.7" moovel_centroid="-544.471819282,1976.17577484"></polygon></g><g transform="translate(735.0543009 -746.0184263) rotate(0)"><polygon id="329263850" class="tile" points="-491.111184028,1392.06456732 -491.105481568,1339.08115577 -496.83539838,1339.06907564 -496.833343102,1392.04467511 -491.111184028,1392.06456732 " moovel_rot="-44.8" moovel_centroid="-493.971281007,1365.5588874"></polygon></g><g transform="translate(228.2551974 -1136.4130675000001) rotate(0)"><polygon id="391484513" class="tile" points="-69.7115023881,2115.05978362 -69.7126162022,2090.48645352 -76.68452798,2090.49195168 -84.9827032059,2090.49638004 -84.9815945635,2115.0697098 -69.7115023881,2115.05978362 " moovel_rot="-93.8" moovel_centroid="-77.3471084057,2102.77832394"></polygon></g><g transform="translate(519.1416016000001 -1805.9995892) rotate(0)"><polygon id="192675306" class="tile" points="-499.502840449,2111.51804709 -516.641589252,2111.51804709 -516.641589252,2090.48645352 -499.302465366,2090.87977248 -499.502840449,2111.51804709 " moovel_rot="0" moovel_centroid="-508.048983555,2101.07990205"></polygon></g><g transform="translate(446.4294718 -278.7767576000001) rotate(0)"><polygon id="340283387" class="tile" points="-361.63436808,1470.30660912 -361.642378657,1446.34078958 -376.067948138,1446.32741135 -376.059920462,1470.2932264 -361.63436808,1470.30660912 " moovel_rot="-75.3" moovel_centroid="-368.851153609,1458.31700674"></polygon></g><g transform="translate(575.3977869 -352.4727081000001) rotate(0)"><polygon id="444578478" class="tile" points="-446.095523259,1339.07474989 -446.105357124,1357.73037549 -464.597487184,1357.72469231 -464.587676112,1339.06907564 -446.095523259,1339.07474989 " moovel_rot="-68.6" moovel_centroid="-455.34651018,1348.39972142"></polygon></g><g transform="translate(532.3270336 -1188.7416288) rotate(0)"><polygon id="271843827" class="tile" points="-309.521948181,1454.21579076 -309.535297349,1473.51705573 -315.326091952,1468.5603605 -320.067530547,1464.50022723 -323.827161754,1461.3323976 -327.945077852,1457.87022495 -325.244060603,1454.937804 -325.142509126,1449.70104698 -325.076501235,1446.32741135 -321.730956586,1446.42261519 -309.517047781,1446.73298085 -309.521948181,1454.21579076 " moovel_rot="5.7" moovel_centroid="-316.733886917,1457.06625271"></polygon></g><g transform="translate(666.3252226 -1409.1382493) rotate(0)"><polygon id="386544498" class="tile" points="-507.863978795,1971.9948091 -507.849173623,1950.61151972 -521.633086075,1949.69173817 -523.191277843,1955.4015873 -522.50347027,1972.69316386 -507.863978795,1971.9948091 " moovel_rot="-40.3" moovel_centroid="-515.396067156,1961.25665586"></polygon></g><g transform="translate(632.0323505 -642.6517778000001) rotate(0)"><polygon id="279590447" class="tile" points="-408.737385523,1446.37229854 -408.750096485,1464.28559067 -413.638433714,1464.2743063 -423.079658299,1464.24866675 -426.510724777,1464.23298789 -426.505810625,1446.32741135 -408.737385523,1446.37229854 " moovel_rot="-45.3" moovel_centroid="-417.625572,1455.30556216"></polygon></g><g transform="translate(374.00033080000003 -165.21635020000008) rotate(0)"><polygon id="258514866" class="tile" points="-219.431377985,1339.06907564 -235.707649345,1339.07418041 -235.722752191,1358.32694391 -219.446496216,1358.32183513 -219.431377985,1339.06907564 " moovel_rot="75.4" moovel_centroid="-227.577069216,1348.69800726"></polygon></g><g transform="translate(394.7613222 -913.0611352999999) rotate(0)"><polygon id="381724592" class="tile" points="-244.655650614,1339.06907564 -256.230775659,1339.89727838 -256.215665611,1343.79175971 -260.591676899,1343.69461783 -260.605520484,1361.72735634 -256.558507164,1362.04549747 -252.676432344,1359.40437933 -249.70105367,1357.379667 -244.151845676,1356.91620311 -244.655650614,1339.06907564 " moovel_rot="9.4" moovel_centroid="-252.585683895,1350.07839752"></polygon></g><g transform="translate(173.0961912 -499.2902541000001) rotate(0)"><polygon id="125148285" class="tile" points="-134.929250762,1339.06907564 -126.476390803,1339.25232566 -126.452974998,1373.63545178 -129.572816878,1373.45468567 -129.810481816,1370.4893901 -134.947598531,1370.31486916 -134.929250762,1339.06907564 " moovel_rot="43.7" moovel_centroid="-130.606885064,1355.42879655"></polygon></g><g transform="translate(595.0622382 -1041.1928787) rotate(0)"><polygon id="273155564" class="tile" points="-417.337372546,1949.69173817 -409.834824647,1950.74936049 -405.628336997,1951.34374509 -405.643003514,1979.13815662 -417.750445277,1970.57292865 -417.337372546,1949.69173817 " moovel_rot="84.3" moovel_centroid="-411.316587963,1962.8818212"></polygon></g><g transform="translate(282.5732524 -1604.0785606999998) rotate(0)"><polygon id="245467073" class="tile" points="-59.7062966619,2109.55936835 -52.5559500817,2109.66272266 -52.5425344774,2090.48645352 -66.5161458494,2090.48908771 -66.5259918492,2093.46800114 -68.705242466,2093.46614551 -68.7115023881,2106.91159756 -63.509761247,2106.9145165 -63.5070713043,2109.66642015 -59.7062966619,2109.55936835 " moovel_rot="-90.4" moovel_centroid="-60.2032756256,2099.83153546"></polygon></g><g transform="translate(354.7044734 -770.6264735000001) rotate(0)"><polygon id="381334987" class="tile" points="-272.003276942,1386.62221115 -272.066411913,1339.06907564 -267.143357954,1343.70562968 -267.205846843,1381.88911348 -272.003276942,1386.62221115 " moovel_rot="72.6" moovel_centroid="-269.693260442,1362.7301031"></polygon></g><g transform="translate(445.5272125 -880.9450826) rotate(0)"><polygon id="374813107" class="tile" points="-371.052508194,1339.06907564 -379.752025369,1339.09038491 -380.046821979,1366.32940292 -371.005605987,1366.61811761 -371.052508194,1339.06907564 " moovel_rot="-39.5" moovel_centroid="-375.456413763,1352.86516224"></polygon></g><g transform="translate(518.46478 -1431.4319384) rotate(0)"><polygon id="47450332" class="tile" points="-515.964777422,1806.57323119 -510.058662525,1806.61594836 -510.412048676,1837.88571353 -515.919395699,1837.45002051 -515.964777422,1806.57323119 " moovel_rot="-3.5" moovel_centroid="-513.081560072,1821.95147064"></polygon></g><g transform="translate(375.88699929999996 -547.8601851999999) rotate(0)"><polygon id="404887741" class="tile" points="-243.122845568,1367.35479774 -237.182958319,1367.75187362 -236.722752191,1339.21948364 -243.151845676,1339.06907564 -243.122845568,1367.35479774 " moovel_rot="81.8" moovel_centroid="-240.038819095,1353.16253428"></polygon></g><g transform="translate(740.9509257 -738.7154535) rotate(0)"><polygon id="26352674" class="tile" points="-499.25666741,1807.42618991 -508.302600383,1806.57323119 -509.058662525,1826.40531966 -499.250924241,1829.24604676 -499.25666741,1807.42618991 " moovel_rot="-6.7" moovel_centroid="-503.900743215,1817.57256134"></polygon></g><g transform="translate(518.1671574000001 -949.1993733) rotate(0)"><polygon id="335689357" class="tile" points="-487.252019566,1648.05823043 -482.16934267,1647.951675 -476.304863864,1647.79096648 -476.841319055,1629.28889818 -482.527717702,1629.44652063 -487.224628437,1629.58165915 -487.252019566,1648.05823043 " moovel_rot="-78.2" moovel_centroid="-481.902674919,1638.76506086"></polygon></g><g transform="translate(537.5972304 -1573.0686401999997) rotate(0)"><polygon id="26352677" class="tile" points="-281.860153358,2090.48645352 -293.781568098,2090.65737407 -293.533619421,2105.12480572 -281.869361941,2107.34528072 -281.860153358,2090.48645352 " moovel_rot="0.4" moovel_centroid="-287.60986474,2098.38614717"></polygon></g><g transform="translate(693.7654072 -1056.5584506) rotate(0)"><polygon id="165941675" class="tile" points="-449.466926077,1806.64054513 -443.508810436,1806.57323119 -443.563517842,1832.87815291 -449.064418124,1832.87526669 -449.466926077,1806.64054513 " moovel_rot="-2.2" moovel_centroid="-446.400846557,1819.56692647"></polygon></g><g transform="translate(550.5970561 -1216.6222975) rotate(0)"><polygon id="42766850" class="tile" points="-457.585659537,1949.69677571 -457.602357689,1985.28002692 -454.6570999,1985.27303077 -454.646787293,1949.69173817 -457.585659537,1949.69677571 " moovel_rot="17.0" moovel_centroid="-456.122991952,1967.49182791"></polygon></g><g transform="translate(489.4300961 -1194.2911476) rotate(0)"><polygon id="383431806" class="tile" points="-399.131052512,1339.08153995 -406.16197386,1339.06907564 -406.149888013,1360.78778927 -399.118978824,1360.80026312 -399.131052512,1339.08153995 " moovel_rot="-51.9" moovel_centroid="-402.640473046,1349.93466386"></polygon></g><g transform="translate(652.8095521 -1577.3581638) rotate(0)"><polygon id="395847320" class="tile" points="-574.931572055,2090.48645352 -565.694809306,2099.8861251 -574.94045483,2108.98963106 -572.796263751,2109.03679232 -568.848631608,2109.09951672 -566.599977902,2108.45777463 -564.780657775,2107.28200088 -563.250791022,2105.46241487 -562.248155796,2103.76488974 -561.379827993,2101.860178 -561.417150156,2098.8219893 -561.92308244,2097.39202883 -563.046050612,2095.23196433 -565.197070517,2093.22849655 -567.164701958,2092.09872577 -571.695058748,2091.56807854 -572.884706664,2091.35364671 -574.931572055,2090.48645352 " moovel_rot="0.2" moovel_centroid="-566.941346113,2100.67041559"></polygon></g><g transform="translate(234.9905712 -1710.795557) rotate(0)"><polygon id="190814277" class="tile" points="-110.291433142,1806.58987654 -118.557086552,1806.57323119 -118.562715094,1819.49604642 -118.566816143,1823.5737837 -110.301165246,1823.59043702 -110.291433142,1806.58987654 " moovel_rot="-17.5" moovel_centroid="-114.428683044,1815.08167496"></polygon></g><g transform="translate(630.6790113 -792.1962730000001) rotate(0)"><polygon id="308265770" class="tile" points="-521.964139143,1806.57323119 -521.982664531,1829.73100923 -516.964777422,1829.7503753 -516.966007949,1806.76088107 -521.964139143,1806.57323119 " moovel_rot="64.4" moovel_centroid="-519.472451215,1818.21137206"></polygon></g><g transform="translate(168.1091764 -788.1960872999999) rotate(0)"><polygon id="387753122" class="tile" points="-22.7318384983,1446.32741135 -22.7358511388,1464.6910157 -28.6160649979,1464.69595788 -28.6035780096,1446.33926504 -22.7318384983,1446.32741135 " moovel_rot="50.8" moovel_centroid="-25.6716495001,1455.51561963"></polygon></g><g transform="translate(564.2173453 -1445.8113934) rotate(0)"><polygon id="397269763" class="tile" points="-555.992534035,1642.76862076 -561.717355715,1642.92863777 -561.709437786,1635.56917911 -561.704655957,1633.47854875 -561.704523399,1631.51067899 -561.70548729,1629.28889818 -555.38772084,1629.69165865 -555.440904641,1630.97010208 -555.380546451,1636.14960479 -555.99524525,1636.14559966 -555.992534035,1642.76862076 " moovel_rot="-38.9" moovel_centroid="-558.721583362,1636.0112686"></polygon></g><g transform="translate(98.04186870000001 -932.7995084999999) rotate(0)"><polygon id="396521202" class="tile" points="-89.5740462834,1201.0 -89.56805909,1209.71967968 -95.5418731276,1212.55097105 -95.5319190624,1203.25224542 -89.5740462834,1201.0 " moovel_rot="-31.3" moovel_centroid="-92.5855564132,1206.6461697397058"></polygon></g><g transform="translate(569.2746582 -20.244131100000004) rotate(0)"><polygon id="131293452" class="tile" points="-566.774628619,1201.0 -564.404928736,1201.07165155 -564.531997,1206.69275142 -566.773851186,1206.65345717 -566.774628619,1201.0 " moovel_rot="78.7" moovel_centroid="-565.622056675,1203.8283272637245"></polygon></g></g><g transform="translate(0 1327.7)"><polygon id="9" class="bin" points="1.875,0.0 -0.77665042945,1.09834957055 -1.875,3.75 -1.875,1203.749999 -0.77665042945,1206.40164943 1.875,1207.499999 251.604682557,1207.499999 254.042624256,1206.59937442 255.309541836,1204.33010048 254.796892833,1201.78218459 251.114743292,1195.80896093 251.160464136,1081.96428908 252.408120161,1078.37227195 255.048551194,1076.68472756 258.832417151,1077.0610134 296.551440942,1094.49788922 298.997859933,1094.74100753 301.069122681,1093.41664239 301.874999,1091.09400687 301.874999,1080.88108052 300.085739449,1077.68452035 296.021171602,1075.19135202 293.06053145,1071.34937772 289.543546797,1059.67149986 289.26696084,1057.24243171 290.715140521,1035.25637142 289.762802617,1032.50372966 266.017288978,1006.0732128 264.542210141,1002.54155409 265.588617213,998.860045838 273.415324854,987.738157335 274.089081144,985.313337149 273.078127043,983.008630599 257.928374484,966.927051368 256.329880039,960.525972712 258.673236437,951.929718467 263.497287135,947.175392693 299.058492292,938.035368909 301.088367003,936.701446635 301.874999,934.403414852 301.874999,923.010773527 300.99195059,920.593525384 298.758685089,919.314702377 296.226979325,919.776577906 268.699209613,935.93152171 265.321403493,936.872248563 253.253555864,937.023552506 249.145486582,935.366414848 247.439032158,931.278585137 247.468162725,873.337753295 247.513946902,793.6468606 249.211587726,789.573214801 252.546659688,788.212477456 256.623908223,789.941901747 259.037392894,790.117517179 261.055642889,788.782445648 261.83824111,786.492622716 261.943660136,654.688198987 260.386093337,651.6428746 258.702385205,650.429521167 252.687609289,641.642486561 252.292329453,634.694551132 257.527774262,624.797987961 257.860913424,622.175277151 254.569766529,608.362181303 254.95994829,604.036069009 260.474001054,591.480043819 260.612705997,591.113193241 264.569755913,578.724496343 264.690023801,578.237839398 267.287484921,563.580104568 267.343399168,563.035783489 267.823303467,546.68434592 267.808336598,546.222080424 266.294549662,530.177916122 266.178478745,529.541587921 262.322576622,515.432333222 261.993434429,514.618082645 252.316734747,496.968634478 251.746931499,491.809377106 252.334462547,489.777819752 255.779785902,486.051210753 260.827185807,486.5818913 265.542551342,489.600508323 268.594459246,490.047977747 270.949435202,488.055878605 271.014155522,484.972020303 270.87379525,484.642670971 268.773014461,329.014893946 270.411650337,324.919221457 274.471206856,323.193051841 295.523904404,323.025297393 298.453435393,321.578541556 299.136390941,318.383416208 259.744206193,157.530560816 260.427405278,152.034895395 260.246636942,152.012423 260.815208053,150.001941609 258.957537827,144.000198553 258.892314066,143.808042835 249.345324996,117.998149101 248.934263115,115.172673546 250.062567607,97.9311013682 252.158734373,93.8662685159 256.56266888,92.6325172874 258.685060139,92.9264636218 261.573630152,92.1146912711 263.550610694,90.4977614659 267.416286938,88.9701752923 274.2164753,88.5130757925 274.879319846,88.4083404599 276.384705163,88.0298658722 278.819239764,86.0804959512 278.937360009,82.963919397 278.042109137,80.7920756845 277.789877482,3.73772472121 276.687204478,1.09401314993 274.039897573,0.0 1.875,0.0 " moovel_rot="0" moovel_centroid="132.1805999223887,597.9512493609233" transform="translate(1.875 0)"></polygon><g transform="translate(268.64337050000006 -1336.8686454) rotate(0)"><polygon id="445716424" class="tile" points="-261.605520484,1420.63160315 -266.143357954,1422.92675841 -266.068072584,1341.40115571 -261.743575012,1339.06907564 -261.605520484,1420.63160315 " moovel_rot="-83.7" moovel_centroid="-263.889334131,1381.33387374"></polygon></g><g transform="translate(460.377956 -1198.5000127) rotate(0)"><polygon id="53332464" class="tile" points="-436.78806209,1243.95424062 -436.784357639,1201.03700988 -448.389511746,1201.0 -448.404994798,1243.9222091 -436.78806209,1243.95424062 " moovel_rot="-35.6" moovel_centroid="-442.591845401,1222.4819924745468"></polygon></g><g transform="translate(201.09767520000003 -1150.6110064) rotate(0)"><polygon id="376561182" class="tile" points="-173.332454819,1203.64491343 -173.411984608,1232.96536692 -189.061898192,1233.14657308 -189.097154073,1201.0 -173.332454819,1203.64491343 " moovel_rot="-67.7" moovel_centroid="-181.345833631,1217.6607572945964"></polygon></g><g transform="translate(573.6127463 -1430.1794823) rotate(0)"><polygon id="26180633" class="tile" points="-545.020345891,1446.32855112 -545.004568823,1478.47963856 -532.607642564,1478.47847288 -532.623409736,1446.32741135 -545.020345891,1446.32855112 " moovel_rot="20.9" moovel_centroid="-538.813992587,1462.40351634"></polygon></g><g transform="translate(51.4850004 -2133.7462743) rotate(0)"><polygon id="242120621" class="tile" points="-18.7616914222,2198.25687562 -14.8564222198,2193.65810512 -12.4999978043,2186.97260158 0.0,2191.4054302 -0.0253365201876,2213.57373124 -17.5870231245,2211.23558049 -18.7616914222,2198.25687562 " moovel_rot="-74.1" moovel_centroid="-8.632386332861136,2201.22413766"></polygon></g><g transform="translate(325.88699180000003 -1198.5001601) rotate(0)"><polygon id="235452831" class="tile" points="-264.929590438,1201.16952827 -279.912625728,1201.0 -279.884028495,1227.06612641 -265.372611525,1227.75418311 -264.929590438,1201.16952827 " moovel_rot="9.1" moovel_centroid="-272.499326051,1214.1786473153104"></polygon></g><g transform="translate(288.05726599999997 -1118.1785935) rotate(0)"><polygon id="186052745" class="tile" points="-249.194914929,1201.0 -256.962005707,1204.45906699 -263.929590438,1207.55231574 -261.076394156,1216.24745687 -263.908154376,1225.11950182 -255.990393773,1225.72629465 -246.084675493,1226.47718419 -243.795347977,1210.76542868 -249.194914929,1201.0 " moovel_rot="13.1" moovel_centroid="-253.489351153,1214.8120968123274"></polygon></g><g transform="translate(350.7185739 -1412.1099967999999) rotate(0)"><polygon id="154384097" class="tile" points="-285.48313882,1449.5702917 -285.504143145,1484.61638595 -286.306852119,1486.33311789 -287.83028738,1487.46558243 -289.392020543,1487.93253529 -290.692954644,1488.09747766 -291.997045713,1487.59711401 -293.169167235,1486.72121952 -294.143835239,1484.69054306 -294.353478798,1449.82187816 -293.674351539,1448.39755656 -292.59267257,1447.2001287 -291.091066325,1446.32741135 -288.581368112,1446.47516946 -287.241867504,1447.21691554 -286.325761611,1448.06013346 -285.48313882,1449.5702917 " moovel_rot="17.8" moovel_centroid="-289.87479681,1467.09536822"></polygon></g><g transform="translate(633.6391361999999 -1163.5404468000002) rotate(0)"><polygon id="165951051" class="tile" points="-563.404928736,1254.64497562 -558.558901248,1254.64036517 -558.546907066,1201.0 -563.403660034,1201.00229151 -563.404928736,1254.64497562 " moovel_rot="77.8" moovel_centroid="-560.978615584,1227.812025242976"></polygon></g><g transform="translate(361.87090309999996 -1107.0701196) rotate(0)"><polygon id="381816883" class="tile" points="-306.872178115,1224.67734078 -313.70158944,1205.50332885 -301.905117742,1201.48538688 -295.728664073,1201.0 -295.725824421,1222.25401648 -295.726299644,1224.61919929 -306.872178115,1224.67734078 " moovel_rot="77.7" moovel_centroid="-302.987641573,1212.719685273537"></polygon></g><g transform="translate(85.3729051 -1228.4865685) rotate(0)"><polygon id="315766204" class="tile" points="-70.1447541449,1344.96918578 -71.0812777895,1340.65629511 -70.6189788196,1340.52580015 -64.1647777131,1339.06907564 -63.7489316255,1341.02455688 -66.5831646878,1341.80024672 -63.7391883805,1353.41678288 -65.3952474287,1354.1034835 -64.0169523917,1360.11020251 -79.3441304345,1363.47944328 -82.9373749027,1347.96549217 -70.1447541449,1344.96918578 " moovel_rot="57.1" moovel_centroid="-72.5477852399,1352.68316942"></polygon></g><g transform="translate(431.2784621 -1711.2944163) rotate(0)"><polygon id="126095398" class="tile" points="-360.135890432,1810.64314873 -353.44996485,1806.57323119 -353.467497098,1844.72943935 -359.63839124,1848.39316262 -360.135890432,1810.64314873 " moovel_rot="82.8" moovel_centroid="-356.673184641,1827.33023744"></polygon></g><g transform="translate(467.9997548 -1333.289814) rotate(0)"><polygon id="48959063" class="tile" points="-433.675257134,1463.41387467 -438.684287643,1463.61967424 -438.770221053,1462.16098189 -441.435811246,1462.27901174 -441.442429471,1446.32741135 -427.510724777,1446.48464057 -427.662509347,1468.12961793 -429.299494205,1468.26887782 -433.371707547,1468.61240593 -433.675257134,1463.41387467 " moovel_rot="-2.4" moovel_centroid="-434.020235907,1456.03674395"></polygon></g><g transform="translate(312.7283352 -1506.7416689) rotate(0)"><polygon id="245580844" class="tile" points="-261.892974245,1637.12538321 -262.174534315,1646.99588784 -246.000271962,1645.45650603 -246.939751962,1629.28889818 -262.151801495,1630.19472852 -261.892974245,1637.12538321 " moovel_rot="44.9" moovel_centroid="-254.290795672,1638.07275082"></polygon></g><g transform="translate(96.788064 -1793.1882992) rotate(0)"><polygon id="269068356" class="tile" points="-16.0727634406,1806.60672188 -22.3276473785,1806.57323119 -22.2652772358,1809.51373109 -23.6222731594,1809.48136833 -27.1301816615,1809.40191322 -31.0845981319,1810.8034702 -30.3866888136,1824.74250122 -16.0694403189,1824.94455289 -16.0727634406,1806.60672188 " moovel_rot="-84.3" moovel_centroid="-23.0252368151,1816.49068382"></polygon></g><g transform="translate(185.1263218 -1577.7128748) rotate(0)"><polygon id="185766624" class="tile" points="-105.064248777,1668.86489543 -100.49522275,1669.13268972 -97.8560677615,1646.26580814 -98.215179099,1639.63942666 -99.6636857525,1633.07436104 -100.847519472,1629.28889818 -105.079017227,1630.24068658 -103.609463957,1634.66088887 -102.492368214,1640.5163606 -102.344860906,1646.46276772 -105.064248777,1668.86489543 " moovel_rot="31.4" moovel_centroid="-101.262345794,1649.53541137"></polygon></g><g transform="translate(590.9151715 -1670.9995619) rotate(0)"><polygon id="71282839" class="tile" points="-566.617562279,1825.3590549 -553.868659825,1829.41867307 -552.936036703,1813.23724258 -566.614192359,1806.57323119 -566.617562279,1825.3590549 " moovel_rot="-3.7" moovel_centroid="-560.144966353,1818.48177398"></polygon></g><g transform="translate(178.17965199999998 -1061.0712706) rotate(0)"><polygon id="137481960" class="tile" points="-158.879450418,1201.0 -158.886808515,1217.48451727 -172.332454819,1217.49071546 -172.326341268,1211.04151695 -172.327549391,1205.75604334 -172.325098644,1201.00618907 -169.048200388,1201.00848316 -158.879450418,1201.0 " moovel_rot="11.9" moovel_centroid="-165.605296103,1209.2460939138414"></polygon></g></g></svg>