<svg><g transform="translate(0 0)"><polygon id="0" class="bin" points="253.801351782,3.75033716414 252.703121429,1.09846877876 250.051351797,0.0 1.875,0.0 -0.77665042945,1.09834957055 -1.875,3.75 -1.875,1203.75 -0.77665042945,1206.40165043 1.875,1207.5 298.124999,1207.5 300.776649429,1206.40165043 301.874999,1203.75 301.874999,1111.97159068 300.78085485,1109.32415235 298.136903158,1108.22160958 240.723604405,1108.03935346 238.443027393,1107.64157907 233.031753096,1105.71408012 226.035733624,1103.22060634 223.233666265,1101.0939555 222.167527188,1097.74170659 222.165916978,1096.26233384 222.171238726,1025.75916093 222.169599555,1016.59733575 222.184853492,1016.13840004 222.664994051,1008.94296611 222.673285545,1008.70817093 222.90991166,949.080927499 224.51279247,945.117373822 228.406360341,943.351272502 233.958209146,943.098435625 237.215973442,940.871793357 238.461441701,938.061664016 240.774023806,937.11314728 242.4656999,935.73196034 243.100988941,933.642497919 243.097240376,921.347334362 243.093014811,913.849993915 244.803260934,909.758296832 248.918447375,908.105369923 255.14828943,908.195908161 258.278089523,906.592227237 258.703272379,903.101287439 254.156200532,891.267248675 253.860002956,890.281456043 252.146659335,882.507427193 251.986548026,880.920202798 252.106968333,873.325978554 252.3644897,871.568859401 255.2081523,861.497589865 255.455544866,860.77685502 258.225682719,853.962464736 258.276560775,853.830196767 264.668299576,836.227937515 264.869723089,835.369540977 265.949098174,825.82817998 265.937329343,824.891613794 264.845208593,817.01513805 264.695231245,816.365294678 262.578570989,809.888376976 262.518747464,809.719147475 255.405431911,791.032641111 255.250835736,790.579689809 252.671407008,782.063241393 252.394132751,780.56419104 251.942179746,774.272102516 252.062841673,772.408983767 253.144422634,767.102051349 253.658893625,765.551093503 257.391934914,757.611921543 258.730441668,755.698874441 265.188157169,749.190399015 266.500497891,748.156290094 272.220566741,744.685119392 273.272363823,744.16410922 277.795776327,742.386650653 279.876125887,740.361862704 279.887811027,737.45884979 274.737372116,725.050190103 274.708254856,720.711513892 275.44874841,719.942833824 276.492551095,717.138253621 275.151800383,714.462887909 272.280304838,713.620446513 268.368043483,714.112266092 264.113125375,712.937886373 261.947596516,709.091591977 250.922516137,616.429788867 252.147582539,612.156175235 256.05666728,610.03871977 259.815604054,609.666001135 262.377316553,608.272560152 263.166116779,605.465098147 254.842723598,539.464973101 256.037131331,535.183584718 259.929923232,533.038108657 298.522536148,528.923725138 300.913660355,527.702019418 301.874999,525.194856111 301.874999,501.338623865 300.7315654,498.642643227 280.97431439,479.540656399 279.083630317,473.20149971 283.317524551,454.492091388 283.012152138,451.983444728 281.184384961,450.238214793 278.951190185,449.244623259 278.612105744,448.906513669 275.252532337,447.880141739 272.517529971,450.084667738 269.043383895,458.190271978 268.89315726,458.607255819 263.002460529,478.590404237 260.121295887,482.069760361 255.614707788,482.382318253 245.529894294,478.863465529 241.564681393,479.832978484 239.969931204,481.526129688 235.934679838,483.511705149 230.033965283,483.551866042 222.349530061,479.899752487 219.597245091,477.140124499 219.216179037,473.261283455 238.967557213,394.310236134 238.987215306,394.233536664 269.050959419,279.681488936 268.68563555,276.879445999 266.468188092,275.12792297 255.686570841,272.001493909 252.294937952,269.333192449 251.712077261,265.057297251 256.099289895,247.795115076 254.990496086,244.099493955 221.24354676,213.350602722 219.19397406,206.94716427 230.319516939,155.334424686 232.513412089,151.919902537 236.411552602,150.790018479 249.751153231,151.814743057 252.586331076,150.827198748 253.78837539,148.076095944 253.801351782,3.75033716414 " moovel_rot="0" moovel_centroid="126.88985832940031,608.8454765459607" moovel_centroidlatlon="0,0" transform="translate(1.875 0)"></polygon><g transform="translate(210.3385134 -917.3116650999996) rotate(0)"><polygon id="402034470" class="tile" points="-97.2668243654,1989.80078892 -100.747503369,1980.35873469 -99.804791778,1970.7766965 -97.224909531,1956.81829146 -75.6763187125,1826.45727751 -78.8099784829,1816.51077949 -79.9194731578,1812.53348701 -72.0623385206,1765.34602433 -68.5707944557,1746.18684951 -64.6662279122,1739.88525387 -59.4743704699,1725.74018984 -54.0433304574,1688.10288959 -50.822688695,1681.87303207 -47.2558793485,1663.63172719 -41.3776402876,1664.6318853 -1.21288275607,1670.59288588 -0.453309001029,1664.32511377 -14.8110404871,1657.90895782 -14.4249471501,1653.64599546 -24.9983156126,1652.02860645 -25.8238248892,1656.31079739 -35.9472075988,1654.67042556 -39.4583856739,1653.76425209 -43.5866939608,1652.86634186 -44.430109296,1640.79295852 -44.4990195628,1636.56044633 -56.1333325155,1634.76153901 -105.57132745,1652.93526231 -130.533851047,1662.61205992 -138.904512765,1666.87780806 -147.308337368,1674.56994462 -153.275676115,1681.19892362 -155.317723755,1685.53114435 -158.810442467,1693.29157404 -161.658470164,1702.6672935 -165.095328185,1723.68508678 -168.859486149,1746.31563272 -164.450463532,1747.13110458 -168.285567299,1767.78352542 -177.960353058,1766.43359554 -186.669763652,1814.56604533 -190.234216724,1825.49890585 -191.887280803,1833.09633184 -196.964331899,1863.12943399 -206.117596512,1926.22092596 -204.91610738,1932.62403216 -206.45489107,1944.38645247 -207.862941144,1953.54728374 -197.089846813,1955.19078262 -162.359485371,1960.35333924 -153.011282915,1964.59631325 -156.2338392,1974.68506904 -156.419918744,1978.97371279 -137.661549243,1981.89473203 -150.171249705,2008.2232286 -145.756848866,2010.6473634 -157.909231853,2019.58288185 -173.411872087,2013.25386329 -173.274583962,2020.43832202 -172.193490056,2026.21824958 -165.079058421,2042.28789392 -160.059612199,2039.96755234 -158.129173455,2044.16018812 -143.750988381,2037.69640047 -133.968233545,2033.08960636 -130.358098264,2041.16542914 -113.014961584,2079.96290546 -99.8217123549,2109.47594325 -97.1762712266,2115.17923444 -93.0006922368,2113.30037884 -91.1003690891,2117.53783136 -52.6260375671,2100.1118601 -4.19810177162,2077.82484394 -5.92362129316,2073.65058949 -5.20393661968,2072.73526472 -1.45373121276,2072.78276506 -0.151804960147,2055.26541873 0.0,2051.50679327 -1.50468825996,2047.80625287 -6.09923337176,2049.33859589 -8.17524143681,2045.36259011 -48.236955579,2063.06713234 -63.5653946299,2070.45405946 -77.7942527901,2039.11710882 -78.400581355,2030.85831032 -81.2151042961,2023.49059013 -82.8760706697,2019.66335686 -88.9524496369,2007.53361824 -97.2668243654,1989.80078892 " moovel_rot="-33.9" moovel_centroid="-118.42105667444343,1862.48175801" moovel_centroidlatlon="-71.06297725786592,42.32751442012924"></polygon></g><g transform="translate(464.4644775 -680.3789909999999) rotate(0)"><polygon id="292000219" class="tile" points="-377.154824179,1417.46734169 -393.059200154,1417.38863827 -434.307026436,1417.17318213 -445.214104647,1417.26363277 -461.93623901,1417.21055434 -461.94263135,1370.36851082 -461.943443721,1358.67662166 -461.956376168,1258.54682982 -461.959001949,1250.65372706 -461.964487244,1201.0 -377.182366021,1201.25556876 -377.154824179,1417.46734169 " moovel_rot="-30.1" moovel_centroid="-419.559504842,1309.2095800109223" moovel_centroidlatlon="-71.0302388730782,42.368407827404454"></polygon></g><g transform="translate(355.6245275 -922.0349707) rotate(0)"><polygon id="200984269" class="tile" points="-177.707057451,1417.46734169 -257.538917913,1417.79726509 -257.518114533,1452.61600832 -257.508791949,1463.67385121 -257.50622894,1472.45094544 -260.581689526,1472.45936063 -260.567680199,1501.93181833 -263.334904921,1501.93998115 -263.314819602,1530.60074517 -261.032320308,1530.59142111 -260.830627054,1553.40803343 -260.975803917,1634.76153901 -177.591803944,1634.41748931 -177.636943588,1550.48592363 -177.656200407,1516.15160418 -177.707057451,1417.46734169 " moovel_rot="49.5" moovel_centroid="-219.010078702,1526.96072329" moovel_centroidlatlon="-71.02631343281618,42.37555704700015"></polygon></g><g transform="translate(184.8659906 -1392.4273352999999) rotate(0)"><polygon id="325738698" class="tile" points="0.0,2522.69299878 -0.0436541430652,2364.61881608 -40.91769065,2364.47030464 -40.9188870896,2395.17894761 -60.8078604877,2395.11281344 -60.8031035174,2462.84145819 -39.0321377546,2462.9114863 -39.0255810745,2505.58469034 -33.2345945489,2505.60190698 -33.2342343315,2522.58368424 0.0,2522.69299878 " moovel_rot="-40.7" moovel_centroid="-25.364020506301095,2439.37238846" moovel_centroidlatlon="-71.04383542795442,42.34042481559091"></polygon></g><g transform="translate(553.2868661 -1322.5250799000003) rotate(0)"><polygon id="377541137" class="tile" points="-324.425020435,2142.73001289 -356.92748297,2119.43407097 -366.285841406,2117.53783136 -376.358728242,2119.94966942 -385.070157731,2127.89649902 -386.506182191,2132.83588249 -392.28082271,2132.0134764 -397.485275503,2153.55073228 -401.646317462,2152.98461281 -405.934496337,2156.07895615 -408.70758327,2164.45145145 -411.910037295,2194.03385434 -405.082081545,2214.12337815 -399.787404176,2214.09443064 -397.093057136,2221.91465722 -388.21576295,2224.86121541 -387.257393982,2228.47225842 -348.136931007,2213.27677553 -343.64809158,2211.40884724 -337.670255078,2227.25893833 -342.53431971,2228.9526514 -345.537690645,2249.9713558 -346.598710687,2255.33939833 -329.985013511,2259.91861416 -324.362064262,2228.8959046 -330.231106386,2225.61588345 -337.462839151,2205.49741654 -330.127573587,2201.52999308 -332.708526132,2195.90089071 -336.23985013,2188.43583989 -332.615913679,2187.06170804 -335.560964913,2167.51836656 -324.425020435,2142.73001289 " moovel_rot="-94.1" moovel_centroid="-366.592211591,2179.07204322" moovel_centroidlatlon="-71.1723217552727,42.27289912058119"></polygon></g><g transform="translate(232.57986480000002 -620.5743471) rotate(0)"><polygon id="325738677" class="tile" points="-1.1837259911,1350.43107653 -1.0,1201.0 -49.6170583811,1201.34856039 -49.6120135918,1207.21946254 -49.3887167588,1350.31387921 -1.1837259911,1350.43107653 " moovel_rot="-41.5" moovel_centroid="-25.285812877971686,1275.6665757924768" moovel_centroidlatlon="-71.04262282116807,42.34299254754074"></polygon></g><g transform="translate(214.6607387 -1835.3368461999999) rotate(0)"><polygon id="292338443" class="tile" points="-121.60399742,2260.13589651 -196.795393164,2259.91861416 -196.763037652,2335.5897695 -181.579563466,2335.63354204 -181.574569486,2351.05009984 -170.545086989,2351.07756915 -126.65172425,2351.20518854 -121.56693067,2351.2240569 -121.60399742,2260.13589651 " moovel_rot="-32.3" moovel_centroid="-158.119803925,2304.23366569" moovel_centroidlatlon="-71.03408807985545,42.34539760511783"></polygon></g><g transform="translate(161.699466 -1707.3333036000001) rotate(0)"><polygon id="320437262" class="tile" points="-0.387309909426,2117.62459197 -34.4225471579,2117.53783136 -55.5635909177,2118.7634192 -63.6035541572,2119.78462432 -63.6219511673,2183.18132694 -62.47829138,2187.89742208 -59.9998344753,2192.25000127 -56.2474163409,2195.59325844 -51.7399198841,2197.39497248 -47.8873075409,2198.06981866 -43.6507044028,2196.78846237 -40.2816483825,2194.93651094 0.0,2163.42155808 -0.387309909426,2117.62459197 " moovel_rot="51.5" moovel_centroid="-34.41462148230582,2152.41124381" moovel_centroidlatlon="-71.09202015691672,42.268212720329785"></polygon></g><g transform="translate(613.2815845 -1149.0520894) rotate(0)"><polygon id="117699201" class="tile" points="-430.286542272,1638.20243949 -430.337315199,1694.94576813 -417.764678217,1691.90616951 -419.18759503,1721.90339496 -390.9685047,1713.82140333 -400.099114859,1686.46163773 -365.461917792,1676.53421608 -376.805533165,1634.76153901 -418.503989363,1644.62654591 -430.286542272,1638.20243949 " moovel_rot="-54.2" moovel_centroid="-402.514573823,1671.91949647" moovel_centroidlatlon="-71.10202585795102,42.34690041592208"></polygon></g><g transform="translate(139.23560379999998 -73.22816190000003) rotate(0)"><polygon id="117701255" class="tile" points="-77.043174636,1201.0 -59.3228073724,1231.74613212 -60.2188752785,1273.22831679 -116.041799883,1272.70542968 -116.099767894,1220.85582162 -77.043174636,1201.0 " moovel_rot="-32.2" moovel_centroid="-87.8585189367,1242.2567366810708" moovel_centroidlatlon="-71.09601263272496,42.33920280742573"></polygon></g><g transform="translate(486.24408730000005 -806.5261141) rotate(0)"><polygon id="29869453" class="tile" points="-269.774067621,1265.98586282 -269.782929045,1201.0 -319.546955098,1201.00545493 -319.544591122,1265.99286986 -269.774067621,1265.98586282 " moovel_rot="12.4" moovel_centroid="-294.66223466,1233.4967539635736" moovel_centroidlatlon="-71.05091002138097,42.358409292519255"></polygon></g><g transform="translate(346.6008896 -1944.5143548) rotate(0)"><polygon id="29842313" class="tile" points="-276.830463199,2364.47030464 -261.684346415,2357.78849523 -250.074771668,2352.40333695 -268.462442968,2311.57786621 -260.447818088,2294.7860782 -250.081858495,2273.16163424 -277.771995622,2259.91861416 -306.326429908,2319.82298001 -294.27418939,2325.58589389 -276.830463199,2364.47030464 " moovel_rot="10.5" moovel_centroid="-275.624088595,2312.02402839" moovel_centroidlatlon="-71.06484885435847,42.36500691757555"></polygon></g><g transform="translate(644.3159682 -1791.9633460000002) rotate(0)"><polygon id="102521151" class="tile" points="-507.96155159,2196.19573245 -508.002727873,2117.53783136 -538.322306143,2118.61927638 -546.066943155,2129.31823661 -545.930824491,2135.79853066 -549.577658125,2135.38217789 -550.173258431,2180.9687601 -544.492987592,2191.34826706 -537.40792078,2198.34082637 -507.96155159,2196.19573245 " moovel_rot="-49.5" moovel_centroid="-527.911227899,2158.06151517" moovel_centroidlatlon="-71.06664147187549,42.33604089629163"></polygon></g><g transform="translate(505.8044421 -1315.9787988) rotate(0)"><polygon id="325738680" class="tile" points="-322.829968603,1705.45778413 -321.838003814,1640.39031858 -327.12858079,1640.42737759 -327.171880409,1635.36450186 -364.461917792,1634.76153901 -364.458474525,1704.07726259 -322.829968603,1705.45778413 " moovel_rot="-42.1" moovel_centroid="-343.514305297,1670.08446907" moovel_centroidlatlon="-71.04148315958952,42.3439833869144"></polygon></g><g transform="translate(261.9976215 -1117.2429103) rotate(0)"><polygon id="325738695" class="tile" points="-29.2735503424,1417.46734169 -57.6789019309,1417.88628152 -63.9826117126,1480.00171567 -63.9914145466,1498.84863174 -59.5258314613,1502.87982912 -53.6406036679,1504.1885762 -43.2751544815,1507.2637363 -41.8242133539,1494.72429665 -24.6827627998,1493.76256084 -29.2735503424,1417.46734169 " moovel_rot="51.3" moovel_centroid="-44.7950334724,1461.20239253" moovel_centroidlatlon="-71.04073917759847,42.345881831805606"></polygon></g><g transform="translate(800.5474346 -1010.4693262000001) rotate(0)"><polygon id="250053412" class="tile" points="-551.214265383,2122.19576031 -551.200364301,2156.37001966 -551.173258431,2202.31339352 -585.185314712,2202.3288102 -585.226321909,2122.21116622 -577.356200443,2122.21267191 -577.362045044,2117.53911088 -571.750127282,2117.53783136 -571.744486935,2122.20239173 -551.214265383,2122.19576031 " moovel_rot="1.3" moovel_centroid="-568.261059595,2161.85864153" moovel_centroidlatlon="-71.03626397001999,42.338658047752716"></polygon></g><g transform="translate(215.67730010000002 -929.4944532999999) rotate(0)"><polygon id="201018222" class="tile" points="-165.200686742,1273.19772152 -208.113179348,1291.96614347 -213.279614651,1274.46711463 -211.284479968,1271.28343982 -196.282866009,1267.24173486 -196.516813307,1266.35367684 -199.96146237,1254.35618955 -198.008740352,1253.82477876 -200.433951701,1245.31653067 -197.937980881,1244.61762866 -198.33813356,1243.29097686 -191.265479759,1241.12588005 -193.879307618,1231.81192612 -198.510787646,1233.8486296 -203.536428891,1236.09012289 -211.296426727,1218.07777573 -213.275855749,1213.525284 -197.04103267,1206.94848062 -195.994693229,1210.02484507 -172.8633369,1201.0 -167.446985398,1217.31564078 -166.388182564,1220.50486502 -179.373490775,1225.4125673 -180.764646592,1225.94245836 -165.200686742,1273.19772152 " moovel_rot="-83.7" moovel_centroid="-188.810437684,1245.8607062690708" moovel_centroidlatlon="-71.13682739492846,42.35816062677377"></polygon></g><g transform="translate(437.0407027 -1201.6430670999998) rotate(0)"><polygon id="249839415" class="tile" points="-297.91449698,1474.91426937 -324.97935461,1507.72584862 -328.833331596,1504.54431093 -330.359444056,1506.40073366 -333.153227394,1522.88626673 -336.524235098,1527.18308765 -352.819869895,1513.97023017 -346.866463793,1506.82274585 -345.641176339,1507.9140022 -321.068152423,1477.5439911 -317.17787298,1480.78817095 -315.908784356,1479.13982844 -315.644070511,1478.10444236 -315.72225553,1476.82058543 -316.471087763,1475.75728852 -318.89774926,1473.8813061 -321.550169427,1477.04221169 -335.50856381,1465.68697081 -326.572300452,1454.50135651 -341.829850963,1441.67206302 -338.747236413,1437.86575116 -344.961630761,1433.17452631 -352.885544929,1426.82177697 -345.420838811,1417.46734169 -293.721115387,1459.41952907 -296.209542586,1462.95127151 -301.522676465,1472.10545063 -297.91449698,1474.91426937 " moovel_rot="24.8" moovel_centroid="-324.089786599,1470.24711926" moovel_centroidlatlon="-70.999626356031,42.384503488176534"></polygon></g><g transform="translate(400.9733198 -1382.9760879) rotate(0)"><polygon id="29681236" class="tile" points="-209.862941144,1695.70115792 -210.284903898,1637.80886148 -225.683338368,1637.80556014 -225.677867544,1634.76200308 -249.011002139,1634.76153901 -249.025743272,1643.14479711 -253.607139663,1643.14224805 -253.605983488,1696.85786033 -250.85673315,1697.0024667 -209.862941144,1695.70115792 " moovel_rot="49.3" moovel_centroid="-231.888778567,1666.55358221" moovel_centroidlatlon="-71.10907510418333,42.336412520379376"></polygon></g><g transform="translate(305.6136384 -506.9109905999999) rotate(0)"><polygon id="409161380" class="tile" points="-119.298946872,1474.2407794 -126.054931598,1473.55259465 -129.732544231,1473.1843919 -170.797248899,1468.99481349 -166.125064959,1417.46734169 -119.303113615,1422.3420735 -119.300183641,1472.13323734 -119.298946872,1474.2407794 " moovel_rot="-39.3" moovel_centroid="-143.908429144,1446.17120409" moovel_centroidlatlon="-71.05397729575125,42.3620636101635"></polygon></g><g transform="translate(323.3378511 -1445.4374789) rotate(0)"><polygon id="345612599" class="tile" points="-320.581280246,1691.1203972 -313.536396426,1690.96626362 -312.236383625,1689.04020328 -304.395579053,1688.42498817 -304.130707248,1665.43357981 -299.174820276,1665.31090051 -299.254015179,1661.92344398 -301.744419516,1661.87183445 -301.320888132,1648.8750316 -318.029138008,1648.68291686 -318.082216601,1646.46870887 -320.790296973,1646.61152388 -320.655114609,1634.76153901 -281.733873255,1634.8036571 -281.699439435,1709.48297313 -286.546061118,1709.4422824 -286.709171437,1714.02937691 -320.838003814,1713.69767143 -320.581280246,1691.1203972 " moovel_rot="-18.0" moovel_centroid="-297.977004665,1675.88574675" moovel_centroidlatlon="-71.13634458140189,42.36184753697786"></polygon></g><g transform="translate(682.2231731 -2071.681107) rotate(0)"><polygon id="29630562" class="tile" points="-490.960185434,2272.37865359 -490.973543773,2289.67321455 -533.079027971,2319.33762907 -543.638794867,2319.32862624 -543.625436528,2260.44978693 -501.139239672,2259.91861416 -499.34922226,2261.70119375 -490.960185434,2272.37865359 " moovel_rot="0" moovel_centroid="-520.981071735,2285.31915199" moovel_centroidlatlon="-71.10523272952751,42.339235462254095"></polygon></g><g transform="translate(584.7911377 -449.53282260000003) rotate(0)"><polygon id="404478190" class="tile" points="-535.457122291,1216.55970733 -543.029241307,1214.04790359 -556.806552438,1209.46520143 -570.064750379,1205.05803261 -582.291116047,1201.0 -582.288476284,1260.7967546 -578.669581164,1260.82695631 -578.920838304,1263.90071084 -558.542748305,1270.30706833 -557.955259428,1268.45364637 -553.767343529,1269.76506188 -535.457122291,1216.55970733 " moovel_rot="-16.8" moovel_centroid="-563.197807951,1235.275663079587" moovel_centroidlatlon="-71.1026912859016,42.32340195155779"></polygon></g><g transform="translate(361.8530188 -1918.3447535000003) rotate(0)"><polygon id="404481471" class="tile" points="-279.55137211,2225.34807763 -279.461344598,2217.66382243 -279.163597533,2196.10491693 -288.791950496,2195.90113633 -288.06096646,2155.18132301 -287.906919312,2149.81621038 -291.454836076,2149.69678424 -291.560644508,2146.40655042 -296.315152008,2143.21501153 -296.424030798,2139.24986545 -296.317100635,2117.53783136 -307.898534294,2117.54599186 -307.129733548,2153.92546722 -307.850169611,2224.04999941 -304.075576797,2224.19867404 -282.60352505,2225.20771837 -279.55137211,2225.34807763 " moovel_rot="-28.1" moovel_centroid="-296.789749927,2180.386857" moovel_centroidlatlon="-71.10737026693418,42.30936562106335"></polygon></g><g transform="translate(310.537555 -1892.5819740999998) rotate(0)"><polygon id="29933813" class="tile" points="-81.7304496819,2184.51711622 -81.7463691322,2117.53783136 -114.594613269,2117.55050965 -114.578543936,2184.52991035 -81.7304496819,2184.51711622 " moovel_rot="52.3" moovel_centroid="-98.1624987475,2151.03381643" moovel_centroidlatlon="-71.10904249999999,42.33952695"></polygon></g><g transform="translate(612.5498763 -1054.2339514999999) rotate(0)"><polygon id="29590842" class="tile" points="-478.959019754,1273.32993984 -478.99045515,1201.0 -509.128107875,1201.04170277 -509.096667446,1273.3716861 -478.959019754,1273.32993984 " moovel_rot="6.6" moovel_centroid="-494.043564067,1237.185831178344" moovel_centroidlatlon="-71.11995834999999,42.364585600000005"></polygon></g><g transform="translate(325.8556946 -1084.0647580000002) rotate(0)"><polygon id="228878566" class="tile" points="-227.897197847,1203.16527742 -258.325861448,1201.0 -258.845316543,1206.89039404 -264.440117483,1206.54004008 -264.401212241,1212.54597797 -267.347227054,1212.27424458 -267.836319035,1217.76598893 -261.668879653,1217.83434897 -262.686637842,1237.4629623 -268.774067621,1237.24326036 -268.707721957,1256.05382619 -264.574763315,1256.79509467 -265.054938537,1277.97349507 -227.412453565,1280.19997217 -227.474995112,1269.22720397 -235.281361324,1268.41689065 -235.320282149,1262.41097963 -259.023094394,1260.42951704 -255.994029677,1224.83884138 -252.24334105,1225.16079426 -252.582190624,1230.73962742 -232.207641198,1232.03000305 -231.984927976,1226.99778616 -228.275380275,1226.67153354 -227.379182158,1219.77163502 -232.944890868,1219.01150567 -232.906271022,1215.73522118 -228.200663775,1216.1944782 -227.897197847,1203.16527742 " moovel_rot="-30.1" moovel_centroid="-248.906924239,1238.555991213029" moovel_centroidlatlon="-71.10043819605195,42.33752045712695"></polygon></g><g transform="translate(413.7638184 -2010.1081903999998) rotate(0)"><polygon id="327673955" class="tile" points="-229.631430261,2117.53783136 -197.466539313,2157.16307937 -197.470127784,2201.64843967 -209.981231891,2202.15173709 -236.099856629,2191.81643796 -227.778255696,2160.85702456 -229.631430261,2117.53783136 " moovel_rot="-66.1" moovel_centroid="-215.299151007,2168.66365189" moovel_centroidlatlon="-71.10102205350294,42.34730418382084"></polygon></g><g transform="translate(83.9383316 -1203.5690028) rotate(0)"><polygon id="448610063" class="tile" points="-67.471892859,2335.37648784 -81.4383309709,2335.61413507 -81.4337629102,2259.91861416 -71.180923719,2260.3546587 -45.5503827475,2273.1581037 -53.6515406583,2306.08312894 -67.471892859,2335.37648784 " moovel_rot="-66.0" moovel_centroid="-67.5699429491,2295.19072923" moovel_centroidlatlon="-71.02416676128632,42.38081633752598"></polygon></g><g transform="translate(445.92659679999997 -2142.4906924) rotate(0)"><polygon id="345236172" class="tile" points="-443.433221644,2271.92651986 -438.770489492,2264.16319674 -433.936966332,2259.91861416 -418.804867711,2268.46520841 -408.437481708,2274.07284081 -397.428652385,2281.40716967 -399.167138011,2284.8277501 -395.354635218,2287.02543683 -417.001121779,2326.85212058 -425.53413108,2322.05460601 -426.909591874,2324.21726213 -441.36550956,2315.57915491 -440.00039067,2312.63818212 -443.41391304,2310.13318771 -426.094282323,2281.58165171 -443.433221644,2271.92651986 " moovel_rot="52.1" moovel_centroid="-420.897872637,2293.96474745" moovel_centroidlatlon="-71.1339677961455,42.353621491823645"></polygon></g><g transform="translate(590.530114 -2020.6370195999998) rotate(0)"><polygon id="375532456" class="tile" points="-439.482669952,2204.36554505 -447.545327682,2201.9321696 -451.96407676,2198.53834835 -443.753765451,2187.86740335 -442.583943695,2167.19904826 -442.082990021,2144.72404662 -459.939216884,2144.25038138 -460.247246065,2117.84336419 -428.683792748,2117.53783136 -428.769922316,2192.66018301 -439.482669952,2204.36554505 " moovel_rot="48.9" moovel_centroid="-440.626078345,2153.14361444" moovel_centroidlatlon="-71.07458444643586,42.306230186858315"></polygon></g><g transform="translate(552.6475799 -1510.0955413) rotate(0)"><polygon id="265142462" class="tile" points="-342.48382974,2310.97041011 -341.780975436,2304.33267079 -338.067794281,2259.91861416 -307.342610312,2267.4825427 -307.326429908,2319.51431296 -342.48382974,2310.97041011 " moovel_rot="-21.6" moovel_centroid="-323.802771727,2290.04422271" moovel_centroidlatlon="-71.0697146150747,42.36171639678159"></polygon></g><g transform="translate(513.1139978 -1149.4197019) rotate(0)"><polygon id="87792267" class="tile" points="-323.143289757,2224.13197073 -315.929138008,2224.16834592 -308.946709639,2224.2598165 -308.898534294,2117.53783136 -323.295062062,2119.25052253 -323.362064262,2125.04412509 -323.330944264,2136.18098896 -323.305176998,2145.5377871 -323.283544465,2156.8567528 -323.25826724,2166.98365954 -323.22782387,2177.58192153 -323.210876934,2187.29817329 -323.186085784,2198.55643759 -323.160811557,2208.68334372 -323.136027009,2219.58035854 -323.143289757,2224.13197073 " moovel_rot="78.5" moovel_centroid="-316.063623423,2171.11507946" moovel_centroidlatlon="-71.08920656144045,42.34202874426743"></polygon></g><g transform="translate(708.8678678 -1329.9056041) rotate(0)"><polygon id="229090983" class="tile" points="-494.907216028,1466.16728106 -460.740585659,1466.05889066 -460.699286374,1417.4903327 -494.873458176,1417.46734169 -494.907216028,1466.16728106 " moovel_rot="-38.0" moovel_centroid="-477.812828796,1441.79506465" moovel_centroidlatlon="-71.1053176259981,42.3386082301093"></polygon></g><g transform="translate(187.5747309 -1124.8787060999998) rotate(0)"><polygon id="345612577" class="tile" points="-164.200686742,1243.22450553 -164.186901568,1201.14850617 -128.008669847,1201.0 -127.8701786,1242.86518764 -164.200686742,1243.22450553 " moovel_rot="72.3" moovel_centroid="-146.081685395,1222.074376125029" moovel_centroidlatlon="-71.13717484480902,42.359869634383834"></polygon></g><g transform="translate(479.1974556 -1359.5459414999998) rotate(0)"><polygon id="41920136" class="tile" points="-353.885544929,1487.80024836 -353.921849028,1448.80969636 -365.839335968,1417.46734169 -373.724174821,1424.47159999 -378.638710391,1438.87738983 -382.644152484,1438.94031234 -384.957169729,1473.37861486 -375.245097775,1473.22604544 -353.885544929,1487.80024836 " moovel_rot="-89.1" moovel_centroid="-368.067539682,1454.18083342" moovel_centroidlatlon="-71.16622637969358,42.33393634495455"></polygon></g><g transform="translate(440.8309539 -1162.2340681) rotate(0)"><polygon id="80792082" class="tile" points="-353.199359768,1274.13591873 -353.220144686,1201.0 -367.842271695,1201.02464862 -367.829940508,1238.74119574 -376.154824179,1238.76219156 -376.146361074,1274.18160924 -353.199359768,1274.13591873 " moovel_rot="11.5" moovel_centroid="-362.999175588,1241.6624869023988" moovel_centroidlatlon="-71.14232295389985,42.36259692008715"></polygon></g><g transform="translate(333.6396057 -2079.2387888999997) rotate(0)"><polygon id="29650708" class="tile" points="-151.57743501,2181.56126189 -124.656942412,2183.94969319 -124.674620858,2157.96996166 -124.821437767,2155.00475197 -124.956489131,2153.04156725 -125.135464649,2151.07937778 -125.332898219,2149.10939074 -125.581263805,2147.15698888 -125.857744131,2145.2024854 -126.17199588,2143.25157624 -126.511713555,2141.30945947 -126.892706598,2139.37923203 -127.301814401,2137.44690301 -127.746044832,2135.52906238 -128.228046722,2133.61481614 -128.74166732,2131.70676335 -129.280753881,2129.80750304 -129.864619789,2127.92842712 -130.476600493,2126.04724972 -131.11139836,2124.18575885 -131.790120477,2122.32526345 -132.501316468,2120.49015058 -133.237978462,2118.66383028 -145.900469443,2117.53783136 -151.57743501,2181.56126189 " moovel_rot="-22.9" moovel_centroid="-137.535760508,2153.70654077" moovel_centroidlatlon="-71.05867168196998,42.35134923671715"></polygon></g><g transform="translate(482.4775834 -1177.0989097) rotate(0)"><polygon id="228878550" class="tile" points="-352.152614505,1201.04434595 -332.449754095,1201.0 -332.496585896,1269.11436518 -352.199359768,1269.15875618 -352.152614505,1201.04434595 " moovel_rot="62.5" moovel_centroid="-342.32457964,1235.079341889243" moovel_centroidlatlon="-71.10200595,42.3375384"></polygon></g><g transform="translate(445.9694989 -2236.4695376) rotate(0)"><polygon id="184389456" class="tile" points="-197.795393164,2262.67744688 -200.361664097,2260.55862762 -219.230254261,2259.91861416 -219.282974167,2282.26187796 -222.194120319,2282.63045624 -222.114182517,2284.18981139 -221.646149435,2293.16849569 -220.66794161,2312.06644224 -216.485872781,2319.04176899 -197.85355205,2318.91144558 -197.795393164,2262.67744688 " moovel_rot="-29.1" moovel_centroid="-209.13263715,2289.85989623" moovel_centroidlatlon="-71.03945641136583,42.34962249218941"></polygon></g><g transform="translate(689.321269 -1187.0434058) rotate(0)"><polygon id="181031026" class="tile" points="-510.128107875,1202.96322963 -527.32451982,1201.0 -529.16920854,1204.88487795 -530.244889384,1207.15822656 -532.96579891,1209.55946501 -534.457122291,1213.49113993 -529.829356204,1213.48767453 -529.55724024,1265.16848137 -510.133552735,1265.2836094 -510.128107875,1202.96322963 " moovel_rot="61.6" moovel_centroid="-520.11252497,1233.2632757959984" moovel_centroidlatlon="-71.09170634810604,42.33677757659509"></polygon></g><g transform="translate(295.2210495 -1046.5738364) rotate(0)"><polygon id="96268219" class="tile" points="-292.375894693,1417.69357224 -292.721115387,1460.59514825 -288.565210813,1460.34668172 -284.607931769,1464.75648009 -282.144328094,1465.85980533 -273.619504379,1466.16785845 -270.878517269,1465.15707887 -268.137945989,1462.40491359 -264.334904921,1462.46317616 -264.357552833,1426.47873262 -268.496361138,1426.46180531 -268.484032768,1422.45459334 -279.41124392,1422.11134917 -287.820111268,1417.46734169 -292.375894693,1417.69357224 " moovel_rot="41.0" moovel_centroid="-278.814970776,1442.66377745" moovel_centroidlatlon="-71.1027727620227,42.34382817719068"></polygon></g><g transform="translate(264.7028503 -2091.6913244) rotate(0)"><polygon id="290697356" class="tile" points="-237.099856629,2117.53783136 -262.199658318,2117.57889928 -262.20285102,2162.98500976 -237.103060157,2162.94389709 -237.099856629,2117.53783136 " moovel_rot="13.6" moovel_centroid="-249.651358593,2140.26140774" moovel_centroidlatlon="-71.13247874999999,42.3520219"></polygon></g><g transform="translate(564.9664293000001 -1385.9924755999998) rotate(0)"><polygon id="185698238" class="tile" points="-501.958964875,1451.58502143 -501.978641304,1424.38857906 -506.46179282,1424.37400989 -506.467191731,1417.51845065 -532.363835736,1417.46734169 -532.357324953,1426.29644642 -532.336141589,1451.56935617 -527.806433933,1451.57781973 -527.804339506,1457.07495564 -506.02392029,1457.11628813 -506.034078262,1451.57887477 -501.958964875,1451.58502143 " moovel_rot="-66.0" moovel_centroid="-517.490701847,1437.02384872" moovel_centroidlatlon="-71.0701234566612,42.37453143250105"></polygon></g><g transform="translate(280.6634532 -1286.7136790999998) rotate(0)"><polygon id="250229178" class="tile" points="-263.237544988,2187.38159241 -263.20285102,2117.53783136 -269.85049272,2119.09600275 -278.163597533,2121.02824586 -277.429625696,2187.70213687 -269.835890495,2187.53069188 -263.237544988,2187.38159241 " moovel_rot="-18.8" moovel_centroid="-270.45539047,2153.10108492" moovel_centroidlatlon="-71.04654329908392,42.30757259043064"></polygon></g><g transform="translate(597.7398235 -1619.8592247) rotate(0)"><polygon id="117701254" class="tile" points="-473.303567141,1678.2606564 -505.201519464,1658.45748216 -504.52538202,1634.76153901 -472.455539322,1636.59236063 -472.423870446,1665.83871782 -473.303567141,1678.2606564 " moovel_rot="-62.1" moovel_centroid="-487.233230584,1652.62657323" moovel_centroidlatlon="-71.09493582976768,42.3385051941062"></polygon></g><g transform="translate(435.41217919999997 -1006.8645555) rotate(0)"><polygon id="311432386" class="tile" points="-152.57743501,2162.92609473 -152.60011562,2117.53783136 -158.932981015,2117.74774782 -165.216870492,2117.95411167 -169.620552533,2134.02718046 -170.236877417,2143.87443643 -180.620245316,2142.62042344 -181.068611231,2149.48661671 -178.777883532,2149.80168019 -179.798482829,2163.14784139 -152.57743501,2162.92609473 " moovel_rot="-43.0" moovel_centroid="-163.800542858,2143.73859323" moovel_centroidlatlon="-71.11490828941155,42.3123215818912"></polygon></g><g transform="translate(792.8910577 -721.2531517000001) rotate(0)"><polygon id="41920125" class="tile" points="-543.046730307,1470.84199746 -556.480152578,1471.40386249 -556.45357653,1417.46734169 -542.035871996,1418.42188935 -541.45089158,1431.89927142 -535.255335554,1439.76163139 -533.363835736,1446.97159985 -539.788924103,1453.98799838 -543.046730307,1470.84199746 " moovel_rot="-75.3" moovel_centroid="-547.732000528,1444.49442883" moovel_centroidlatlon="-71.16311493791488,42.34446592345222"></polygon></g><g transform="translate(749.5632914 -790.6626079000001) rotate(0)"><polygon id="41920140" class="tile" points="-506.202054854,1635.47119497 -506.201519464,1691.08871807 -522.049295897,1690.86043467 -521.01280288,1634.76153901 -506.202054854,1635.47119497 " moovel_rot="-65.1" moovel_centroid="-513.881055874,1663.35857021" moovel_centroidlatlon="-71.16690020987934,42.33908281317928"></polygon></g><g transform="translate(492.4601746 -1116.0317314000001) rotate(0)"><polygon id="317642900" class="tile" points="-474.74257613,2316.03173885 -474.730241266,2259.96054937 -489.950191899,2259.91861416 -489.960185434,2315.99605919 -474.74257613,2316.03173885 " moovel_rot="-69.9" moovel_centroid="-482.345939885,2287.97602076" moovel_centroidlatlon="-71.06947581435178,42.29965200121699"></polygon></g><g transform="translate(582.4625222 -660.7549469) rotate(0)"><polygon id="181013536" class="tile" points="-391.769898952,1417.46734169 -417.051227101,1420.61653695 -417.028948799,1452.78707921 -393.740949574,1450.69766609 -393.894523044,1440.77428783 -385.957169729,1438.63218445 -391.769898952,1417.46734169 " moovel_rot="48.3" moovel_centroid="-403.52101683,1434.85111261" moovel_centroidlatlon="-71.08391663511573,42.33792640486828"></polygon></g><g transform="translate(278.3909256 -1775.1099077) rotate(0)"><polygon id="41920132" class="tile" points="-28.9985667486,2289.63380014 -0.484775009751,2289.75125439 0.0,2260.25676207 -29.0441119429,2259.91861416 -28.9985667486,2289.63380014 " moovel_rot="-22.6" moovel_centroid="-14.649062155050203,2274.84436961" moovel_centroidlatlon="-71.1611556490694,42.34400149554714"></polygon></g><g transform="translate(761.2296381 -949.7184946000002) rotate(0)"><polygon id="337489367" class="tile" points="-503.953949209,2117.71218096 -478.924503324,2117.53783136 -478.920518812,2149.72380461 -506.96155159,2147.88091953 -506.710152176,2129.73370655 -503.953949209,2117.71218096 " moovel_rot="80.1" moovel_centroid="-492.449373969,2133.47372977" moovel_centroidlatlon="-71.10138324724763,42.34901533968406"></polygon></g><g transform="translate(667.0400928 -2256.3077826999997) rotate(0)"><polygon id="41920131" class="tile" points="-444.433221644,2262.07622906 -445.795585346,2289.73343415 -473.72982629,2290.09542325 -473.730241266,2259.91861416 -444.433221644,2262.07622906 " moovel_rot="-24.7" moovel_centroid="-459.623502456,2275.3298523" moovel_centroidlatlon="-71.1613392983238,42.34364776292492"></polygon></g><g transform="translate(267.4948832 -208.57937330000004) rotate(0)"><polygon id="141395721" class="tile" points="-50.6170583811,1314.88902653 -54.6126980633,1315.8250001 -55.7790952571,1310.17084436 -56.4748444729,1303.6779317 -58.3228073724,1272.30859524 -58.0531527564,1252.77556677 -54.9075445898,1201.0 -50.6451011624,1201.47411094 -54.2162309576,1262.00871627 -53.9693647817,1275.45104924 -52.6591394927,1302.97116629 -51.8703432046,1310.11092972 -50.6170583811,1314.88902653 " moovel_rot="-28.9" moovel_centroid="-54.8585362077,1257.2015187940895" moovel_centroidlatlon="-71.13415039898155,42.23870326547053"></polygon></g><g transform="translate(183.9478429 -2256.0248871999997) rotate(0)"><polygon id="373170673" class="tile" points="-120.56693067,2260.12454311 -120.448628072,2287.53796506 -98.4794631412,2287.87595204 -98.436162525,2259.91861416 -120.56693067,2260.12454311 " moovel_rot="-89.0" moovel_centroid="-109.44668678,2273.84739089" moovel_centroidlatlon="-71.15863283178484,42.34457222926206"></polygon></g><g transform="translate(503.4589531 -981.9318246) rotate(0)"><polygon id="395855217" class="tile" points="-500.896143255,1417.47623038 -500.958964875,1497.55283432 -495.966694492,1497.53816329 -495.907216028,1417.46734169 -500.896143255,1417.47623038 " moovel_rot="59.7" moovel_centroid="-498.432288063,1457.51310665" moovel_centroidlatlon="-71.09046366657927,42.33251967509938"></polygon></g><g transform="translate(663.5918759 -873.7690974) rotate(0)"><polygon id="75801544" class="tile" points="-418.051227101,1449.63804215 -418.089239999,1417.98989438 -436.210667193,1417.46734169 -436.482779652,1445.53944548 -432.306645619,1445.72726395 -432.565715662,1449.17654447 -418.051227101,1449.63804215 " moovel_rot="-66.0" moovel_centroid="-427.032380957,1433.24051441" moovel_centroidlatlon="-71.01194093046456,42.38104265880921"></polygon></g><g transform="translate(287.29801 -1180.1685626) rotate(0)"><polygon id="187745722" class="tile" points="-82.4743792325,2259.91861416 -97.1322390696,2263.17148557 -97.436162525,2295.83797523 -82.4383309709,2296.13485086 -82.4743792325,2259.91861416 " moovel_rot="5.9" moovel_centroid="-89.7419243363,2278.8214153" moovel_centroidlatlon="-71.05995987582318,42.3523032883737"></polygon></g><g transform="translate(335.4377189 -765.2516926999999) rotate(0)"><polygon id="304374263" class="tile" points="-98.9461484825,1417.49365263 -97.2047576832,1417.48981568 -86.3168330422,1417.46734169 -86.3110190837,1456.43594756 -98.9340642614,1456.47158122 -98.9461484825,1417.49365263 " moovel_rot="70.4" moovel_centroid="-92.6272727945,1436.96546681" moovel_centroidlatlon="-71.07071399708914,42.36489808385412"></polygon></g><g transform="translate(606.8930962 -1168.4900546) rotate(0)"><polygon id="404481475" class="tile" points="-431.337315199,1634.76153901 -451.087961464,1635.52563111 -450.266613409,1659.01151638 -437.604922171,1658.59193154 -431.372184742,1658.36016293 -431.337315199,1634.76153901 " moovel_rot="-28.2" moovel_centroid="-441.011467161,1646.83158566" moovel_centroidlatlon="-71.10691784691846,42.31022278799133"></polygon></g><g transform="translate(293.6586871 -1075.7550036) rotate(0)"><polygon id="345612617" class="tile" points="-126.844874586,1201.0 -117.12678219,1201.57962482 -117.099767894,1242.64399784 -126.8701786,1242.96891073 -126.844874586,1201.0 " moovel_rot="-18.7" moovel_centroid="-122.003105601,1222.066484306747" moovel_centroidlatlon="-71.13699498701264,42.36082786893759"></polygon></g><g transform="translate(663.2459587999999 -943.2353977) rotate(0)"><polygon id="228318359" class="tile" points="-461.265424661,2141.67406039 -472.289945129,2142.68991274 -475.903945555,2143.24981818 -477.117895482,2130.37923193 -477.920518812,2118.68318349 -461.247246065,2117.53783136 -461.265424661,2141.67406039 " moovel_rot="-33.8" moovel_centroid="-469.164760821,2129.99144418" moovel_centroidlatlon="-71.10950451860728,42.337649123631934"></polygon></g><g transform="translate(198.96653750000002 -2030.7816969) rotate(0)"><polygon id="406344075" class="tile" points="-182.0714663,2143.51684177 -182.068611231,2117.53783136 -196.463701178,2117.5652108 -196.466539313,2143.54422606 -182.0714663,2143.51684177 " moovel_rot="74.0" moovel_centroid="-189.267579731,2130.54102495" moovel_centroidlatlon="-71.06173375,42.34581175"></polygon></g><g transform="translate(547.370055 -1171.5125105) rotate(0)"><polygon id="325738690" class="tile" points="-452.676654458,1461.27284782 -452.696772452,1417.48297422 -459.699286374,1417.46734169 -459.673950689,1461.24984607 -452.676654458,1461.27284782 " moovel_rot="-35.3" moovel_centroid="-456.186569041,1439.36553089" moovel_centroidlatlon="-71.03649567770216,42.345288150219815"></polygon></g><g transform="translate(570.1255379 -1250.8207352000002) rotate(0)"><polygon id="102665169" class="tile" points="-533.661633825,1666.48207078 -523.110406349,1665.26066863 -523.049295897,1634.76153901 -534.258524221,1637.03207695 -533.661633825,1666.48207078 " moovel_rot="-62.2" moovel_centroid="-528.492832487,1650.72651852" moovel_centroidlatlon="-71.08886582768473,42.33858160785322"></polygon></g><g transform="translate(367.9050472 -516.1028751000001) rotate(0)"><polygon id="228319251" class="tile" points="-171.835910322,1417.76152575 -176.589065796,1417.46734169 -176.591803944,1465.517274 -171.797248899,1465.61590577 -171.835910322,1417.76152575 " moovel_rot="-37.7" moovel_centroid="-174.205130736,1441.62516033" moovel_centroidlatlon="-71.10541042308655,42.34042578438317"></polygon></g><g transform="translate(112.9210895 -2113.4328057000002) rotate(0)"><polygon id="402025631" class="tile" points="-65.8146326017,2117.53783136 -80.7234409407,2117.87823341 -80.7304496819,2137.90487616 -72.879533349,2137.60204964 -69.8440688517,2137.55587066 -65.6219511673,2137.36937654 -65.8146326017,2117.53783136 " moovel_rot="61.2" moovel_centroid="-73.2321410096,2127.69504823" moovel_centroidlatlon="-71.02345423650952,42.337052447438"></polygon></g><g transform="translate(165.31659789999998 -1970.7555141999997) rotate(0)"><polygon id="75801554" class="tile" points="-31.0441119429,2260.7124945 -31.0593209313,2288.75103585 -37.3637798764,2291.84270412 -39.9688071417,2286.07975937 -44.5503827475,2276.21388471 -32.8245390048,2259.91861416 -31.0441119429,2260.7124945 " moovel_rot="82.9" moovel_centroid="-36.0604631726,2276.86138132" moovel_centroidlatlon="-71.01165659108666,42.38280849798569"></polygon></g><g transform="translate(333.9497679 -987.2389054) rotate(0)"><polygon id="317748040" class="tile" points="-320.546955098,1225.65334488 -320.557029761,1201.0 -331.449754095,1201.00257414 -331.43967912,1225.65591902 -320.546955098,1225.65334488 " moovel_rot="-89.6" moovel_centroid="-325.998354518,1213.327959452875" moovel_centroidlatlon="-71.0396337,42.33340280000001"></polygon></g><g transform="translate(310.856323 -22.28844129999993) rotate(0)"><polygon id="410121168" class="tile" points="-226.367868237,1222.25294574 -214.279614651,1222.28850493 -214.290915242,1201.03554175 -226.379182158,1201.0 -226.367868237,1222.25294574 " moovel_rot="-37.4" moovel_centroid="-220.329394245,1211.6442461535887" moovel_centroidlatlon="-71.12195725,42.292508149999996"></polygon></g><g transform="translate(561.1957955 -2170.0963773999997) rotate(0)"><polygon id="312345068" class="tile" points="-387.097743359,2290.32250972 -387.095979834,2279.1199276 -387.084963759,2259.91861416 -394.347922619,2259.93570205 -394.354635218,2290.34626515 -387.097743359,2290.32250972 " moovel_rot="42.3" moovel_centroid="-390.722184651,2275.12838603" moovel_centroidlatlon="-71.15329116437701,42.286054351100965"></polygon></g><g transform="translate(497.4808755 -588.3083204) rotate(0)"><polygon id="401119762" class="tile" points="-459.93466294,1634.76153901 -452.098309542,1638.13367656 -452.087961464,1655.22438909 -466.417750295,1648.65090912 -459.93466294,1634.76153901 " moovel_rot="67.3" moovel_centroid="-457.778330374,1644.96235814" moovel_centroidlatlon="-71.11471666332672,42.30938984679682"></polygon></g><g transform="translate(473.9238578 -701.0125952000001) rotate(0)"><polygon id="141395748" class="tile" points="-467.417750295,1659.53496477 -467.429792856,1634.77552045 -471.423870446,1634.76153901 -471.404440406,1659.51584889 -467.417750295,1659.53496477 " moovel_rot="-55.2" moovel_centroid="-469.418896552,1647.14314746" moovel_centroidlatlon="-71.13332945364044,42.237998699849264"></polygon></g><g transform="translate(126.1569436 -1201.5265959) rotate(0)"><polygon id="422940763" class="tile" points="-123.651726197,2120.52512154 -123.656942412,2130.27562332 -119.692397657,2130.26019695 -119.689685426,2127.6355876 -115.598162501,2127.62163768 -115.594613269,2117.53783136 -123.647108278,2117.5615643 -123.651726197,2120.52512154 " moovel_rot="57.6" moovel_centroid="-119.857391591,2123.31556193" moovel_centroidlatlon="-71.08674936495346,42.3212831922361"></polygon></g></g><g transform="translate(0 1327.7)"><polygon id="0" class="bin" points="253.801351782,3.75033716414 252.703121429,1.09846877876 250.051351797,0.0 1.875,0.0 -0.77665042945,1.09834957055 -1.875,3.75 -1.875,1203.75 -0.77665042945,1206.40165043 1.875,1207.5 298.124999,1207.5 300.776649429,1206.40165043 301.874999,1203.75 301.874999,1111.97159068 300.78085485,1109.32415235 298.136903158,1108.22160958 240.723604405,1108.03935346 238.443027393,1107.64157907 233.031753096,1105.71408012 226.035733624,1103.22060634 223.233666265,1101.0939555 222.167527188,1097.74170659 222.165916978,1096.26233384 222.171238726,1025.75916093 222.169599555,1016.59733575 222.184853492,1016.13840004 222.664994051,1008.94296611 222.673285545,1008.70817093 222.90991166,949.080927499 224.51279247,945.117373822 228.406360341,943.351272502 233.958209146,943.098435625 237.215973442,940.871793357 238.461441701,938.061664016 240.774023806,937.11314728 242.4656999,935.73196034 243.100988941,933.642497919 243.097240376,921.347334362 243.093014811,913.849993915 244.803260934,909.758296832 248.918447375,908.105369923 255.14828943,908.195908161 258.278089523,906.592227237 258.703272379,903.101287439 254.156200532,891.267248675 253.860002956,890.281456043 252.146659335,882.507427193 251.986548026,880.920202798 252.106968333,873.325978554 252.3644897,871.568859401 255.2081523,861.497589865 255.455544866,860.77685502 258.225682719,853.962464736 258.276560775,853.830196767 264.668299576,836.227937515 264.869723089,835.369540977 265.949098174,825.82817998 265.937329343,824.891613794 264.845208593,817.01513805 264.695231245,816.365294678 262.578570989,809.888376976 262.518747464,809.719147475 255.405431911,791.032641111 255.250835736,790.579689809 252.671407008,782.063241393 252.394132751,780.56419104 251.942179746,774.272102516 252.062841673,772.408983767 253.144422634,767.102051349 253.658893625,765.551093503 257.391934914,757.611921543 258.730441668,755.698874441 265.188157169,749.190399015 266.500497891,748.156290094 272.220566741,744.685119392 273.272363823,744.16410922 277.795776327,742.386650653 279.876125887,740.361862704 279.887811027,737.45884979 274.737372116,725.050190103 274.708254856,720.711513892 275.44874841,719.942833824 276.492551095,717.138253621 275.151800383,714.462887909 272.280304838,713.620446513 268.368043483,714.112266092 264.113125375,712.937886373 261.947596516,709.091591977 250.922516137,616.429788867 252.147582539,612.156175235 256.05666728,610.03871977 259.815604054,609.666001135 262.377316553,608.272560152 263.166116779,605.465098147 254.842723598,539.464973101 256.037131331,535.183584718 259.929923232,533.038108657 298.522536148,528.923725138 300.913660355,527.702019418 301.874999,525.194856111 301.874999,501.338623865 300.7315654,498.642643227 280.97431439,479.540656399 279.083630317,473.20149971 283.317524551,454.492091388 283.012152138,451.983444728 281.184384961,450.238214793 278.951190185,449.244623259 278.612105744,448.906513669 275.252532337,447.880141739 272.517529971,450.084667738 269.043383895,458.190271978 268.89315726,458.607255819 263.002460529,478.590404237 260.121295887,482.069760361 255.614707788,482.382318253 245.529894294,478.863465529 241.564681393,479.832978484 239.969931204,481.526129688 235.934679838,483.511705149 230.033965283,483.551866042 222.349530061,479.899752487 219.597245091,477.140124499 219.216179037,473.261283455 238.967557213,394.310236134 238.987215306,394.233536664 269.050959419,279.681488936 268.68563555,276.879445999 266.468188092,275.12792297 255.686570841,272.001493909 252.294937952,269.333192449 251.712077261,265.057297251 256.099289895,247.795115076 254.990496086,244.099493955 221.24354676,213.350602722 219.19397406,206.94716427 230.319516939,155.334424686 232.513412089,151.919902537 236.411552602,150.790018479 249.751153231,151.814743057 252.586331076,150.827198748 253.78837539,148.076095944 253.801351782,3.75033716414 " moovel_rot="0" moovel_centroid="126.88985832940031,608.8454765459607" moovel_centroidlatlon="0,0" transform="translate(1.875 0)"></polygon><g transform="translate(361.3233336999999 -1119.0268552) rotate(0)"><polygon id="136694839" class="tile" points="-343.48382974,2259.92130811 -343.493236745,2312.93206976 -343.489032185,2319.0269189 -354.516574261,2319.02184612 -354.515050148,2314.97662318 -354.515112785,2308.28849684 -358.823323117,2308.29437706 -358.815674057,2268.92961473 -354.173576145,2268.93505476 -354.170034459,2262.68738415 -354.170742482,2259.91861416 -343.48382974,2259.92130811 " moovel_rot="-0.4" moovel_centroid="-350.569266956,2289.38699078" moovel_centroidlatlon="-71.12665369981751,42.24432876919789"></polygon></g><g transform="translate(141.1371668 -261.97057970000014) rotate(0)"><polygon id="448491880" class="tile" points="-99.9620788516,1417.46734169 -118.298946872,1417.48716876 -118.276347938,1461.97060724 -99.9461484825,1461.95115648 -99.9620788516,1417.46734169 " moovel_rot="3.3" moovel_centroid="-109.120868441,1439.71772014" moovel_centroidlatlon="-71.05684652634702,42.3641547149377"></polygon></g><g transform="translate(497.7957464 -275.24921170000016) rotate(0)"><polygon id="98649655" class="tile" points="-451.676654458,1417.74506062 -451.428174061,1475.40471011 -437.49195919,1470.24636608 -437.482779652,1417.46734169 -451.676654458,1417.74506062 " moovel_rot="66.9" moovel_centroid="-444.624676287,1445.15528117" moovel_centroidlatlon="-71.06620804370073,42.342581709479894"></polygon></g><g transform="translate(303.5387849 -526.5408206) rotate(0)"><polygon id="407736836" class="tile" points="-254.968255912,1634.76153901 -254.607139663,1663.13880924 -274.891601579,1668.88743415 -280.699439435,1669.19323787 -280.678309483,1635.52230431 -254.968255912,1634.76153901 " moovel_rot="64.7" moovel_centroid="-268.135230368,1651.01438504" moovel_centroidlatlon="-71.10838055668067,42.30793070143275"></polygon></g><g transform="translate(388.5849606 -1187.3578840000002) rotate(0)"><polygon id="41920133" class="tile" points="-386.070104474,2289.11408298 -360.785455546,2291.20677874 -359.823323117,2261.18485382 -386.084963759,2259.91861416 -386.070104474,2289.11408298 " moovel_rot="-23.1" moovel_centroid="-373.124986811,2275.26811496" moovel_centroidlatlon="-71.16099344181679,42.34434806114913"></polygon></g><g transform="translate(511.7073171 -143.84006109999996) rotate(0)"><polygon id="311826780" class="tile" points="-462.964487244,1247.06181472 -477.925866815,1247.07168074 -477.959019754,1201.00986631 -462.997640184,1201.0 -462.964487244,1247.06181472 " moovel_rot="-0.1" moovel_centroid="-470.461753491,1224.035840442162" moovel_centroidlatlon="-71.17775884999999,42.282147450000004"></polygon></g><g transform="translate(302.8012354 -1189.1734802) rotate(0)"><polygon id="220526898" class="tile" points="-249.027553439,2259.91861416 -223.194120319,2300.17615236 -249.074771668,2309.63530012 -249.027553439,2259.91861416 " moovel_rot="-38.4" moovel_centroid="-240.432148475,2289.91002222" moovel_centroidlatlon="-71.08563986666667,42.33999193333333"></polygon></g><g transform="translate(87.9850554 -262.2784765000001) rotate(0)"><polygon id="345241037" class="tile" points="-22.6275148295,1459.57156678 -22.6661423106,1417.46734169 -19.4393479932,1417.60114635 -17.2906391423,1418.98355664 -9.90589204207,1427.19894833 -11.0301270168,1433.65875487 -0.286542694643,1445.6350058 0.0,1451.05574196 -6.10455007665,1454.08269498 -9.66131445207,1456.13981345 -9.54410210922,1457.17707751 -18.7166209918,1462.27862885 -21.5321143627,1462.24223179 -22.6827627998,1461.16552415 -22.6275148295,1459.57156678 " moovel_rot="-58.0" moovel_centroid="-14.546711938297001,1441.92044236" moovel_centroidlatlon="-71.13250749767802,42.355924367323254"></polygon></g><g transform="translate(501.7388295 -1006.3612602000001) rotate(0)"><polygon id="95039325" class="tile" points="-415.539732206,2124.05210091 -412.910037295,2124.04352287 -412.954438549,2160.18938845 -415.958954296,2160.26051102 -427.47198534,2159.7978007 -427.683792748,2127.65617942 -414.218464794,2117.53783136 -415.539732206,2124.05210091 " moovel_rot="54.8" moovel_centroid="-420.03222881,2141.38433661" moovel_centroidlatlon="-71.06613238177745,42.374390241484235"></polygon></g><g transform="translate(160.5488111 -345.7022041) rotate(0)"><polygon id="217379950" class="tile" points="-65.6376195615,1453.02619422 -74.0198752189,1451.89199504 -79.480936457,1448.60815852 -83.3326329337,1443.83877744 -85.2657505436,1438.4514328 -85.3110190837,1432.32490642 -83.2683321225,1426.50275363 -79.3524455907,1421.72415121 -74.0199675646,1418.55474471 -67.7758384215,1417.46734169 -64.9994368969,1417.80562799 -65.4845383683,1425.60731486 -67.5929994721,1425.35309795 -71.295748922,1425.99650164 -74.2139831431,1427.73145594 -76.3808716038,1430.37235931 -77.5134875676,1433.59952693 -77.4877001703,1437.0419694 -76.4479691813,1439.94211658 -74.2851098305,1442.61914875 -71.3692495851,1444.37204683 -64.9914145466,1445.23794855 -65.6376195615,1453.02619422 " moovel_rot="58.2" moovel_centroid="-75.6647129943,1435.17324871" moovel_centroidlatlon="-71.03874536102035,42.31685512616352"></polygon></g></g></svg>