<svg xmlns="http://www.w3.org/2000/svg" version="1.1" width="592.5px" height="1200px">
  <polygon id="0" class="bin" points="181.196917573,596.641587677 179.00607156,599.252733135 179.980507567,602.639277816 180.90630632,603.595372144 182.57279975,606.483967702 188.643945439,627.817445548 188.925965792,628.525488905 199.938169451,649.634500364 200.713453735,652.661142433 201.899274999,709.993704016 201.868904223,710.796663478 194.455841487,787.544367676 192.948943578,790.918954269 189.625748749,792.749351492 187.769249778,795.243386385 188.432612708,798.280942656 191.159830729,799.773953152 195.855649631,800.119389899 196.238369251,800.127951279 203.562642498,799.917700686 207.725590228,801.537509286 209.465824423,805.651570375 209.50113691,894.232338569 207.63369904,898.7278844 206.777449425,899.43119134 206.155472117,901.549354201 206.968369382,963.319905347 205.832542924,967.183078679 203.43787812,970.797992415 198.894590618,973.746860149 191.994513102,974.900807434 190.916854832,974.994710251 179.527202216,975.087304488 176.892290087,976.199348778 175.80769714,978.845678798 175.902507595,1020.68244551 174.512875906,1024.82534281 173.74215398,1025.8401674 172.979390883,1028.02806671 169.957929437,1169.36763113 170.054407123,1170.29661987 174.87569069,1191.04316084 175.053715076,1192.53662136 175.15436284,1203.78355705 176.264453135,1206.41348822 178.904212693,1207.5 446.2499995,1207.5 448.901649929,1206.40165043 449.9999995,1203.75 449.9999995,3.75 448.901649929,1.09834957055 446.2499995,0.0 150.0000005,0.0 147.348350071,1.09834957055 146.2500005,3.75 146.2500005,17.5166697909 148.453904264,20.9331133262 174.606806441,32.7684921896 174.653552252,32.7892638506 210.561942779,48.452891959 214.584282792,54.1588590026 217.275095351,93.325854374 216.691152212,96.5980363408 161.297252709,220.046794222 158.14464455,223.048333542 153.792213631,222.981090702 151.472744794,221.990576722 149.055778649,221.81009597 147.033240319,223.145624835 146.2500005,225.439275643 146.2500005,238.439026341 147.094314544,240.809572507 149.247061367,242.112659782 151.738857302,241.761506893 184.720271852,224.50032022 189.228957599,224.153704026 189.694761729,224.574048663 191.871561913,225.524989632 194.182992235,224.97723272 202.50230192,219.819658831 206.8820577,219.119906508 210.453767468,221.749507872 212.545125175,225.241304645 213.361877179,228.59964233 212.132821707,231.829957871 204.48433372,241.59131176 204.285799468,241.87000169 195.886463676,254.878011156 195.595223699,255.422873312 189.224364888,270.144846321 189.036751434,270.689969397 184.791680197,287.006593173 182.373075375,290.378166872 178.317505059,291.255382866 176.264882404,290.935214052 173.447744567,291.6323416 171.971698722,294.131049481 171.869640147,294.875456622 171.834966164,295.360271018 171.737001025,310.325563065 171.755441177,310.722348072 171.818559537,311.355075571 173.203029992,313.907568629 175.994784472,314.706371594 178.686718824,314.384842188 182.639358275,315.356584976 184.970594551,318.693197045 190.055232465,338.614759427 190.305969165,339.305791861 199.403007929,358.320125248 199.806058939,358.978477478 211.940894297,374.859922768 212.952678063,379.639629217 209.884042231,383.44130967 157.317667545,408.693871315 155.326919718,411.075376506 155.812623872,414.141112202 158.442009407,415.790650195 159.575070747,415.942925163 162.189537614,419.8360263 165.891869392,441.603131316 165.96454098,441.937361846 169.757006196,456.2097765 169.777851036,456.285055337 174.105004908,471.302167709 174.106497495,471.307333711 177.390168699,482.641991111 177.903819112,484.429402636 184.198656109,506.256261084 190.052708948,526.560770832 190.301336231,528.982834008 188.983304659,546.265687115 188.96827324,546.435116841 187.340790796,562.516890126 187.301599714,562.831531356 184.864099909,579.29554418 184.854663644,579.363575859 183.08725378,593.024026341 181.196917573,596.641587677 " moovel_rot="0" moovel_centroid="318.5716875596245,605.4101291355402" moovel_centroidlatlon="0,0"/>
  <polygon id="305345582" class="tile" points="-5.50650530234,1474.51239684 -14.2010794969,1467.13363267 -20.1813005121,1434.86386732 -20.5531616,1340.84470456 -22.6439783953,1307.84204503 -15.3913221179,1273.76907802 -6.63475524001,1201.0 -1.0,1201.68225775 -6.09449754264,1297.68553682 -1.61046945024,1334.75461886 -1.14517386388,1451.57097682 -5.50650530234,1474.51239684 " moovel_rot="-86.6" moovel_centroid="-10.551148828149191,1353.6895043802626" moovel_centroidlatlon="16.416706145220598,48.19515101941572"/>
  <polygon id="29044561" class="tile" points="-23.6594692647,1250.09343485 -37.5778263299,1249.89933729 -48.054710133,1250.16138395 -48.0714641815,1206.52417132 -47.0012558083,1204.05106569 -26.9677474882,1201.24729217 -23.6439783953,1201.0 -23.6594692647,1250.09343485 " moovel_rot="-23.4" moovel_centroid="-35.7033915141,1226.2664530098716" moovel_centroidlatlon="16.351235166953263,48.146987875040125"/>
  <polygon id="228963723" class="tile" points="-91.3159077851,1210.00141102 -89.6655222181,1238.55443594 -89.2133271234,1251.56474413 -84.0605120502,1261.94868235 -57.1588268436,1247.84981608 -55.2313090649,1244.12483766 -49.0750398528,1214.32543319 -49.0714641815,1204.53702698 -58.0371287378,1201.0 -91.3159077851,1210.00141102 " moovel_rot="59.5" moovel_centroid="-71.1683240255,1228.7392274930176" moovel_centroidlatlon="16.467886824557,48.19449842634829"/>
  <polygon id="169952413" class="tile" points="-123.4598568,1201.03888278 -92.3159077851,1201.0 -92.3644821394,1260.58938608 -123.511189325,1260.63435358 -123.4598568,1201.03888278 " moovel_rot="64.4" moovel_centroid="-107.913124228,1230.816094937758" moovel_centroidlatlon="16.3333401829056,48.15547085038219"/>
  <polygon id="26764423" class="tile" points="-124.521600758,1201.0 -135.694504198,1220.73766494 -124.511189325,1229.88764456 -124.521600758,1201.0 " moovel_rot="42.9" moovel_centroid="-128.242431427,1217.2084364984185" moovel_centroidlatlon="16.260729299999998,48.1949587"/>
  <polygon id="325935071" class="tile" points="-136.694504198,1201.0 -136.694504198,1221.9779219 -137.048500178,1255.08711727 -147.447967008,1254.37820732 -146.265754016,1218.79279797 -147.447967008,1201.11981703 -136.694504198,1201.0 " moovel_rot="0" moovel_centroid="-141.822621717,1227.9102731494713" moovel_centroidlatlon="16.435177577773416,48.168587084896615"/>
  <polygon id="26457112" class="tile" points="-148.447967008,1212.3187702 -148.48163906,1297.60695402 -180.910549765,1299.17634063 -181.046489902,1292.21361365 -181.652314843,1259.77072024 -182.646687899,1228.6465609 -182.072233492,1222.95908515 -179.663431485,1216.72354878 -172.935873116,1206.80998855 -169.175208343,1201.0 -148.447967008,1212.3187702 " moovel_rot="-11.4" moovel_centroid="-165.020334073,1252.873332463665" moovel_centroidlatlon="16.302453311368286,48.235707006965214"/>
  <polygon id="375270705" class="tile" points="-183.646687899,1201.04004058 -183.6776764,1232.75626307 -193.922236187,1232.73086998 -193.913446684,1220.09686529 -197.42543178,1220.08862929 -197.405104813,1201.0 -183.646687899,1201.04004058 " moovel_rot="-73.9" moovel_centroid="-189.961036904,1215.8007952766684" moovel_centroidlatlon="16.446946587539745,48.27612545849416"/>
  <polygon id="239022313" class="tile" points="-228.412553396,1257.52490963 -198.452202878,1257.47440791 -198.42543178,1201.0 -228.385899029,1201.05044578 -228.382422248,1203.68131943 -228.410282014,1255.43744405 -228.412553396,1257.52490963 " moovel_rot="64.4" moovel_centroid="-213.417581922,1229.2629238365682" moovel_centroidlatlon="16.48331829744435,48.24176218483446"/>
  <polygon id="357207766" class="tile" points="-229.412553396,1201.0 -232.703357263,1201.06980939 -232.49412091,1224.24768647 -229.448876815,1226.52768174 -229.412553396,1201.0 " moovel_rot="23.5" moovel_centroid="-230.988870296,1213.0576673872724" moovel_centroidlatlon="16.27516782783711,48.17248315762474"/>
  <polygon id="191537832" class="tile" points="-233.711932228,1204.31132485 -236.531404522,1204.31736708 -237.056200344,1204.18541493 -237.72391341,1203.58005158 -238.126345194,1201.0 -245.186516154,1202.11023667 -243.456139221,1214.47389557 -246.215643875,1214.78140507 -244.363840167,1227.38787341 -238.890536074,1226.43169906 -236.30658791,1228.56106709 -235.484646438,1227.66939872 -233.703357263,1225.71911965 -237.988436791,1220.83018425 -233.816524574,1217.1635258 -233.711932228,1204.31132485 " moovel_rot="-1.3" moovel_centroid="-239.736624201,1214.4579042789958" moovel_centroidlatlon="16.341252631482483,48.25151060347931"/>
  <polygon id="354179330" class="tile" points="-261.504886082,1201.01850884 -247.215643875,1201.0 -247.243800896,1235.95299105 -261.521517671,1235.96800267 -261.504886082,1201.01850884 " moovel_rot="73.2" moovel_centroid="-254.371341986,1218.4825257583252" moovel_centroidlatlon="16.489402440874102,48.224254880626376"/>
  <polygon id="330939059" class="tile" points="-384.173390917,1519.17513535 -383.288259389,1485.43836089 -393.842427544,1485.41398753 -394.196201632,1448.68638159 -389.61579727,1448.28561353 -389.87236097,1451.20654738 -363.483147925,1449.64759232 -327.993484552,1449.57625513 -328.002497603,1398.11877363 -300.041383496,1398.06177528 -296.851660595,1404.8254352 -296.942451179,1423.59861534 -291.355527227,1419.6309484 -275.590541306,1419.59877493 -275.588249039,1396.57789781 -279.084726417,1396.58897687 -279.08963751,1354.7117294 -288.868782343,1354.73523311 -288.872010398,1347.451109 -310.295791927,1347.49153857 -310.719999691,1333.49291372 -319.171250094,1331.896824 -316.487722452,1322.47910006 -315.631257293,1310.73690139 -319.415721705,1302.66646722 -326.360246312,1296.14281941 -323.689130613,1288.59985307 -323.609785259,1283.06778403 -308.369832868,1283.24334855 -307.922077035,1249.94935189 -358.853977796,1249.35869461 -359.371541015,1288.18804449 -378.880781597,1284.2607652 -353.535721525,1201.0 -316.973607464,1216.47853282 -313.315617291,1221.72925552 -309.205009976,1224.50094445 -267.913237742,1240.12458335 -267.266137545,1273.5483282 -262.535692845,1296.09373707 -262.521517671,1516.41857919 -263.034343727,1516.83537735 -268.586949245,1521.31640705 -384.173390917,1519.17513535 " moovel_rot="71.0" moovel_centroid="-311.942719071,1389.317836598496" moovel_centroidlatlon="16.300522237812086,48.129433215659965"/>
  <polygon id="300708062" class="tile" points="-409.373614194,1292.99552882 -409.080722036,1246.65015396 -405.403365336,1246.68203509 -405.369840855,1241.4148523 -409.459023317,1241.38179522 -409.21145736,1201.0 -395.204761244,1201.1054027 -395.301613171,1216.64285467 -398.722297066,1216.60879987 -398.739215733,1220.03372873 -395.28659857,1220.05816194 -395.418646656,1241.53136148 -398.069854583,1241.5118046 -398.095865026,1246.25059952 -395.352822581,1246.27171475 -395.483078046,1267.79857486 -398.729779137,1267.77472086 -398.759478863,1271.56675134 -395.196201632,1271.59960587 -395.325873165,1293.10533305 -409.373614194,1292.99552882 " moovel_rot="-20.0" moovel_centroid="-402.383397308,1247.1290146887088" moovel_centroidlatlon="16.452280422602573,48.15421153784664"/>
  <polygon id="29128859" class="tile" points="-438.373645399,1201.0 -438.345690869,1292.23133723 -411.906532968,1292.17857813 -410.459023317,1269.03496811 -410.801892124,1267.32537276 -413.290441569,1267.1346726 -413.056938129,1201.69594745 -438.373645399,1201.0 " moovel_rot="66.4" moovel_centroid="-425.487838878,1247.412810183724" moovel_centroidlatlon="16.435101733521087,48.17682418982938"/>
  <polygon id="26274618" class="tile" points="-439.373645399,1294.4769977 -439.810828998,1201.0 -446.042036013,1201.10750321 -446.14992094,1294.50332886 -439.373645399,1294.4769977 " moovel_rot="-94.3" moovel_centroid="-442.842454882,1248.424332651264" moovel_centroidlatlon="16.223135862201357,48.21057303097485"/>
  <polygon id="202626420" class="tile" points="-452.677468219,1237.12438772 -458.230345139,1236.94283945 -457.291796651,1228.70643723 -458.182182038,1201.0 -454.354497778,1201.10802341 -452.296644461,1217.09558394 -447.14992094,1229.51511918 -452.677468219,1237.12438772 " moovel_rot="-22.4" moovel_centroid="-454.200653885,1221.6442248862472" moovel_centroidlatlon="16.23932990405244,48.199362144171445"/>
  <polygon id="251677057" class="tile" points="-478.569112925,1201.0 -459.339132243,1201.26039375 -463.796451277,1239.25716688 -463.760661602,1262.25091621 -463.047612636,1281.86115446 -459.230345139,1312.03833162 -475.602953702,1313.59616492 -479.359974291,1287.60831486 -480.540064975,1265.31473063 -479.587673522,1232.19682189 -478.569112925,1201.0 " moovel_rot="81.5" moovel_centroid="-470.700309055,1256.1895755934156" moovel_centroidlatlon="16.36790180475156,48.15903282681633"/>
  <polygon id="154259951" class="tile" points="-495.973517802,1222.86584211 -481.540064975,1222.36652014 -481.637632904,1208.99461522 -487.112107565,1201.0 -495.936364591,1201.00789464 -495.973517802,1222.86584211 " moovel_rot="4.6" moovel_centroid="-489.213799482,1212.447822516208" moovel_centroidlatlon="16.46414641076701,48.23383534797767"/>
  <polygon id="27754419" class="tile" points="-534.154480069,1202.24517816 -496.973517802,1201.0 -497.378813695,1219.01419589 -497.278919849,1229.70056483 -497.044184824,1254.97975328 -497.050995425,1257.48679565 -497.105165649,1274.35809994 -512.477929959,1275.01645393 -517.579925043,1271.69731437 -524.964709207,1266.79856145 -533.920362568,1235.57412408 -534.154480069,1202.24517816 " moovel_rot="73.4" moovel_centroid="-514.127059812,1235.4963623774042" moovel_centroidlatlon="16.327519422683753,48.22570586073049"/>
  <polygon id="239022311" class="tile" points="-535.154480069,1201.0 -535.156797211,1236.21569695 -565.21610948,1236.29342322 -565.220049862,1234.39713288 -565.220228381,1203.06526787 -565.222890369,1201.07338673 -535.154480069,1201.0 " moovel_rot="64.5" moovel_centroid="-550.188183945,1218.6452806004509" moovel_centroidlatlon="16.4820424493678,48.24217213199004"/>
  <polygon id="442834932" class="tile" points="-567.514389194,1201.0 -566.538945751,1203.14021752 -566.239861432,1209.74640363 -566.31045906,1219.33197139 -566.222890369,1239.78767044 -581.03306843,1239.44731217 -580.67406522,1222.00617238 -580.659527371,1214.97230668 -574.07550959,1214.1963 -574.127362921,1209.7324649 -572.040413287,1209.88013278 -569.094533002,1201.01093981 -567.514389194,1201.0 " moovel_rot="-10.9" moovel_centroid="-572.83003663,1224.1822281221075" moovel_centroidlatlon="16.36415361791324,48.17077775472529"/>
  <polygon id="224670364" class="tile" points="0.0,1521.31640705 -0.0664218898863,1608.10029173 -25.6690870089,1607.48621731 -26.2344200285,1551.10705934 -26.5336972207,1521.59336033 0.0,1521.31640705 " moovel_rot="10.3" moovel_centroid="-13.045376511487571,1564.36628375" moovel_centroidlatlon="16.43917231200931,48.266508621120096"/>
  <polygon id="325867041" class="tile" points="-38.572018325,1521.31640705 -28.5556156896,1522.0859823 -28.5336972207,1536.27863555 -32.4720972387,1535.89555909 -39.4511154426,1535.32571374 -38.572018325,1521.31640705 " moovel_rot="76.0" moovel_centroid="-33.7748785552,1528.84362653" moovel_centroidlatlon="16.36072397395476,48.169743245816804"/>
  <polygon id="26560118" class="tile" points="-83.3482488239,1522.12853861 -83.4845772296,1534.89675882 -83.4490971861,1545.77313204 -83.5710883079,1605.7277742 -40.4511154426,1605.46563652 -41.0874829698,1521.31640705 -83.3482488239,1522.12853861 " moovel_rot="55.5" moovel_centroid="-62.1055418225,1563.78914719" moovel_centroidlatlon="16.27024429827222,48.243650542211924"/>
  <polygon id="156546280" class="tile" points="-96.6258605795,1521.7010627 -85.8161160264,1521.31640705 -84.5710883079,1575.30030358 -96.7151029747,1576.60313499 -96.6258605795,1521.7010627 " moovel_rot="40.9" moovel_centroid="-90.9408020834,1549.26217298" moovel_centroidlatlon="16.386842538784617,48.14765317880752"/>
  <polygon id="141973412" class="tile" points="-102.852904988,1521.31640705 -102.859610461,1530.42418146 -97.7218124915,1532.94116271 -97.7151029747,1523.83339028 -102.852904988,1521.31640705 " moovel_rot="63.9" moovel_centroid="-100.287357728,1527.12878478" moovel_centroidlatlon="16.432654149999998,48.2572502"/>
  <polygon id="303247220" class="tile" points="-106.288400303,1522.3081796 -106.62245267,1531.76613522 -107.721647168,1531.68420602 -108.246034924,1537.3369344 -113.489483527,1536.88057433 -114.856362784,1557.90591618 -106.022181072,1558.4849598 -103.859610461,1558.74569507 -103.88066182,1573.72353557 -109.096310973,1573.69059054 -122.20332236,1573.61695982 -122.554821428,1561.57046498 -121.20348043,1533.40947201 -121.089333063,1529.79282354 -120.651807751,1521.31640705 -106.288400303,1522.3081796 " moovel_rot="-5.3" moovel_centroid="-114.649894628,1549.56227327" moovel_centroidlatlon="16.29761746087337,48.12985046065221"/>
  <polygon id="236834332" class="tile" points="-130.929183598,1521.31640705 -130.911525706,1548.6025547 -123.554821428,1550.29811412 -123.565258762,1522.20842784 -130.929183598,1521.31640705 " moovel_rot="18.4" moovel_centroid="-127.222368404,1535.60711857" moovel_centroidlatlon="16.412044075226152,48.259763736673726"/>
  <polygon id="119856656" class="tile" points="-152.734722835,1522.01120584 -152.732556237,1544.38599433 -150.301396111,1544.00072531 -150.428613356,1542.49467887 -149.171160482,1542.31686724 -148.915570905,1543.77834012 -135.481823486,1541.61769138 -135.602978828,1540.81163362 -131.929183598,1540.11026184 -132.375403115,1537.54568836 -134.644199134,1524.45216146 -135.145908218,1521.35650829 -145.561133322,1521.31640705 -147.756315322,1521.70237141 -149.823265484,1522.06044051 -152.734722835,1522.01120584 " moovel_rot="-53.7" moovel_centroid="-143.294818325,1532.3502236" moovel_centroidlatlon="16.354775875056927,48.18680168786522"/>
  <polygon id="26257489" class="tile" points="-179.406166937,1521.31640705 -187.103546186,1537.29499553 -182.643157945,1539.41214889 -183.139454294,1541.92392813 -188.840247993,1541.25545249 -188.936703828,1549.36380451 -185.296766084,1577.50550538 -164.995338886,1592.3654177 -162.541776429,1588.98937899 -158.690262416,1591.79235038 -153.752662533,1584.91902823 -173.247707178,1570.95757781 -153.734722835,1543.51765879 -164.092097317,1531.68080225 -179.406166937,1521.31640705 " moovel_rot="-58.1" moovel_centroid="-173.319398387,1555.79376303" moovel_centroidlatlon="16.22236651018547,48.207629083313094"/>
  <polygon id="331093767" class="tile" points="-209.078157511,1560.95966679 -201.75973134,1617.00905669 -197.721744595,1615.19109516 -195.209530301,1585.08044623 -189.949333956,1552.92284949 -189.936703828,1521.31640705 -213.599093797,1524.47021238 -209.078157511,1560.95966679 " moovel_rot="-85.6" moovel_centroid="-200.494156792,1558.25067252" moovel_centroidlatlon="16.29814477936223,48.19234075873152"/>
  <polygon id="239022312" class="tile" points="-214.612902831,1521.31640705 -228.817663456,1521.34950871 -228.817519082,1523.55670746 -228.808298124,1593.61345916 -228.80662549,1596.14617223 -214.599093797,1596.10699282 -214.612902831,1521.31640705 " moovel_rot="64.8" moovel_centroid="-221.709526162,1558.73145823" moovel_centroidlatlon="16.484527101206282,48.24146239679788"/>
  <polygon id="181497996" class="tile" points="-241.66776744,1521.52080448 -239.658358195,1521.87761888 -236.71020706,1522.40415339 -237.289150004,1527.35205882 -229.817663456,1527.56863561 -230.614937647,1582.43518216 -250.066479643,1582.66497798 -250.08419936,1526.75350507 -243.562132775,1521.31640705 -241.66776744,1521.52080448 " moovel_rot="10" moovel_centroid="-240.271993066,1553.27095676" moovel_centroidlatlon="16.383465165588365,48.26973614222388"/>
  <polygon id="60560967" class="tile" points="-251.153925787,1661.16016058 -263.363562886,1661.28063841 -263.373013805,1637.12002363 -263.387718313,1594.2694862 -263.409605783,1534.18310809 -263.410728831,1523.27420639 -256.707177775,1521.31640705 -251.08419936,1524.93123004 -251.136116507,1529.05360013 -251.137543104,1537.38780272 -252.310210171,1537.39210851 -252.314615724,1543.88985822 -252.315178967,1546.05374076 -251.133381112,1546.05350026 -251.145870275,1564.61123189 -252.315818554,1564.6094369 -252.319703316,1570.98312704 -252.313099765,1573.10633288 -251.140435488,1573.10202585 -251.140666673,1590.03480383 -252.322461061,1590.03504587 -252.317219201,1596.41279945 -252.322465356,1598.53804072 -251.149803064,1598.53373281 -251.146774944,1617.10568443 -252.319435785,1617.10999299 -252.323558071,1623.41046477 -252.327070676,1625.50723282 -251.154410491,1625.50292397 -251.15856584,1644.11554487 -252.331224572,1644.11985437 -252.327342329,1646.24915986 -252.32211114,1652.62690869 -251.149453076,1652.6225989 -251.153925787,1661.16016058 " moovel_rot="66.0" moovel_centroid="-257.445914313,1591.78454243" moovel_centroidlatlon="16.462482030526242,48.22418590583055"/>
  <polygon id="108893861" class="tile" points="-264.410728831,1571.8762756 -299.534206579,1571.31347781 -299.62631709,1568.94266631 -298.02331364,1568.93258822 -297.202404572,1523.18442249 -298.30958255,1523.03414577 -298.16196358,1521.31640705 -279.898576109,1521.63258389 -280.197156026,1539.45391082 -280.393880368,1550.94781225 -280.515408759,1555.80906615 -280.631236466,1561.72559243 -265.333069693,1561.68745706 -264.413252402,1561.6340494 -264.410728831,1571.8762756 " moovel_rot="-55.7" moovel_centroid="-286.422262132,1549.72334382" moovel_centroidlatlon="16.380303306206674,48.24360529708853"/>
  <polygon id="316508208" class="tile" points="-375.462170776,1533.65382731 -375.357771579,1596.41537233 -334.54446007,1588.53400744 -334.775325738,1590.2633289 -314.963079001,1587.25965545 -315.139432485,1604.64703121 -300.670970468,1600.78529946 -300.62631709,1521.31640705 -321.756272616,1525.65631356 -375.462170776,1533.65382731 " moovel_rot="80.1" moovel_centroid="-336.439996686,1560.79150803" moovel_centroidlatlon="16.33442750576581,48.16855217087323"/>
  <polygon id="312999303" class="tile" points="-376.462894434,1521.35088507 -390.147093829,1521.31640705 -390.149589739,1567.34748384 -376.462170776,1567.37255828 -376.462894434,1521.35088507 " moovel_rot="-18.9" moovel_centroid="-383.305670396,1544.3477353" moovel_centroidlatlon="16.31523419892602,48.129876015656784"/>
  <polygon id="299877906" class="tile" points="-391.149589739,1549.72122138 -391.632053198,1521.31640705 -395.240635214,1521.41361397 -395.275677912,1550.15489072 -391.149589739,1549.72122138 " moovel_rot="-84.0" moovel_centroid="-393.325375558,1535.97184043" moovel_centroidlatlon="16.4619159320257,48.23204183127175"/>
  <polygon id="155120099" class="tile" points="-396.275677912,1557.26135714 -402.75719425,1565.93109766 -410.41784868,1567.75267351 -438.272438791,1608.24892095 -435.290717739,1615.77118518 -437.498439243,1619.52593968 -457.806899229,1606.25466354 -427.608256115,1561.35980813 -457.85112429,1539.31627861 -445.799488721,1521.31640705 -396.275677912,1557.26135714 " moovel_rot="10.1" moovel_centroid="-431.227085874,1565.91960135" moovel_centroidlatlon="16.422923413717253,48.23792874658851"/>
  <polygon id="278569831" class="tile" points="-458.889475592,1521.72667693 -473.982628532,1521.31640705 -474.021893794,1528.68067518 -474.083606478,1542.94869575 -474.119137392,1550.59182248 -458.85112429,1550.89911543 -458.889475592,1521.72667693 " moovel_rot="74.1" moovel_centroid="-466.466203603,1536.16080904" moovel_centroidlatlon="16.44704271621831,48.239918129162966"/>
  <polygon id="367006579" class="tile" points="-485.080121043,1521.31640705 -475.119137392,1532.62707832 -476.863320735,1546.32596731 -486.853891977,1547.00515359 -489.361008152,1547.25630966 -489.346914792,1521.49174493 -485.080121043,1521.31640705 " moovel_rot="-19.6" moovel_centroid="-483.282283306,1535.43280433" moovel_centroidlatlon="16.268315244997595,48.13426066621101"/>
  <polygon id="100034454" class="tile" points="-490.452861096,1529.5543571 -490.361008152,1521.31640705 -504.998206148,1522.20394258 -504.945572325,1560.35278289 -490.368727611,1560.20672015 -490.452861096,1529.5543571 " moovel_rot="17.5" moovel_centroid="-497.667700615,1541.01822651" moovel_centroidlatlon="16.348710532525658,48.17527923952031"/>
  <polygon id="352598085" class="tile" points="-523.028009,1521.31640705 -523.294625013,1557.22068786 -505.998206148,1557.87647955 -506.043511079,1522.09466453 -523.028009,1521.31640705 " moovel_rot="67.2" moovel_centroid="-514.596655034,1539.68111676" moovel_centroidlatlon="16.386182153492282,48.27504159189886"/>
  <polygon id="333992272" class="tile" points="-533.309513967,1521.71255628 -529.927423144,1521.56720511 -524.294625013,1521.31640705 -524.348556629,1553.14242204 -533.242838971,1553.44001536 -533.309513967,1521.71255628 " moovel_rot="70.2" moovel_centroid="-528.796666413,1537.36791381" moovel_centroidlatlon="16.415847146679763,48.293640797373406"/>
  <polygon id="212760562" class="tile" points="-543.204763041,1537.38808688 -543.510117055,1552.53335647 -543.53368233,1576.29522457 -534.309513967,1575.88168051 -534.478393644,1565.22024061 -537.328312402,1537.09329114 -539.774889919,1521.37772005 -541.248046409,1521.31640705 -542.46376144,1528.89344873 -543.204763041,1537.38808688 " moovel_rot="83.2" moovel_centroid="-539.583142601,1553.64695685" moovel_centroidlatlon="16.44978739405412,48.24833678935977"/>
  <polygon id="332753256" class="tile" points="-556.689766565,1521.32795236 -556.69935635,1535.31776153 -544.543279179,1535.3062146 -544.53368233,1521.31640705 -556.689766565,1521.32795236 " moovel_rot="77.1" moovel_centroid="-550.616521223,1528.31708321" moovel_centroidlatlon="16.2829356,48.146461849999994"/>
  <polygon id="397837626" class="tile" points="-563.462977305,1521.33225191 -563.593202174,1528.71456822 -557.69935635,1528.80509772 -557.701824681,1521.31640705 -563.462977305,1521.33225191 " moovel_rot="79.4" moovel_centroid="-560.607570594,1525.05633075" moovel_centroidlatlon="16.531495541060387,48.245869082246"/>
  <polygon id="327417336" class="tile" points="-61.5083156311,1814.86303527 -61.542006794,1792.87724806 -61.7276237788,1669.47145722 -61.7567008716,1662.6094115 -51.0730674405,1662.56356151 -7.56239049006,1661.28063841 0.0,1667.60896004 -2.04088652059,1734.40078879 -2.20113618281,1741.64134213 -2.52452860717,1742.44677413 -3.01641015597,1742.99850581 -3.34417789718,1743.32221144 -3.98362215171,1743.5456383 -4.7049329767,1743.53809776 -7.36035822239,1756.00164792 -0.386832205206,1769.0359767 -2.1468956558,1798.4652804 -3.6623797249,1811.46204228 -3.95515435338,1812.16151923 -4.37393140979,1812.71086503 -4.7744305294,1813.07709069 -5.35740140928,1813.29684906 -5.96193361301,1813.33843497 -16.2297270941,1812.68619287 -16.5378566665,1819.55824338 -61.5083156311,1814.86303527 " moovel_rot="-41.2" moovel_centroid="-31.846424163466036,1738.66166062" moovel_centroidlatlon="16.406782140184657,48.1863944409843"/>
  <polygon id="28801358" class="tile" points="-75.0572201756,1661.36884245 -63.8698288058,1661.28063841 -63.7567008716,1738.20279309 -75.5837004784,1738.16333231 -75.0572201756,1661.36884245 " moovel_rot="43.0" moovel_centroid="-69.5662106771,1700.11009472" moovel_centroidlatlon="16.41675335521552,48.21449151363275"/>
  <polygon id="314980196" class="tile" points="-80.5665953238,1661.28063841 -76.5837004784,1661.28523991 -76.5847105374,1686.76984444 -80.5676053623,1686.7652436 -80.5665953238,1661.28063841 " moovel_rot="1.8" moovel_centroid="-78.5756529339,1674.02524158" moovel_centroidlatlon="16.2976106,48.1306682"/>
  <polygon id="422685639" class="tile" points="-90.9701486006,1661.28063841 -84.867966748,1661.58253226 -82.4711826675,1661.70825671 -81.5676053623,1700.04860321 -90.9764647793,1700.53118221 -90.9720763473,1686.95616364 -90.9701486006,1661.28063841 " moovel_rot="52.6" moovel_centroid="-86.509377787,1681.22309556" moovel_centroidlatlon="16.405057829605568,48.25677266886796"/>
  <polygon id="326286625" class="tile" points="-91.9941063832,1711.66120648 -91.9764647793,1661.29725476 -103.281017648,1661.28063841 -103.298653929,1711.6445667 -91.9941063832,1711.66120648 " moovel_rot="-12.8" moovel_centroid="-97.6375602459,1686.47091462" moovel_centroidlatlon="16.31398695,48.2116188"/>
  <polygon id="133174004" class="tile" points="-115.45854381,1698.00174101 -108.749889092,1697.09298102 -105.916502949,1693.91601363 -104.321932435,1689.27658246 -104.298653929,1661.28063841 -116.715246059,1661.88999965 -115.45854381,1698.00174101 " moovel_rot="-92.4" moovel_centroid="-110.367986332,1678.64744543" moovel_centroidlatlon="16.510878708394433,48.20622329006375"/>
  <polygon id="130644502" class="tile" points="-124.280968704,1700.56323709 -129.181008942,1705.19752335 -117.715246059,1720.27287972 -138.376292845,1731.21943639 -161.468558636,1689.56791296 -121.502959784,1661.28063841 -117.732012314,1665.57326906 -141.05336742,1680.91726126 -131.647861187,1693.63497234 -129.174004215,1695.96402053 -124.280968704,1700.56323709 " moovel_rot="1.2" moovel_centroid="-138.902669567,1700.49539267" moovel_centroidlatlon="16.33752784568722,48.25387483900006"/>
  <polygon id="356757356" class="tile" points="-162.497485656,1664.10014471 -162.468558636,1699.68652591 -194.734659529,1698.98206911 -193.397188173,1661.28063841 -184.647885105,1662.37516085 -162.497485656,1664.10014471 " moovel_rot="-13.5" moovel_centroid="-178.427066756,1681.20545442" moovel_centroidlatlon="16.39876562159458,48.15294121191458"/>
  <polygon id="105613762" class="tile" points="-195.932715586,1780.33321669 -209.569034925,1780.07283193 -210.10750567,1708.96895274 -210.466841817,1661.39568275 -195.734659529,1661.28063841 -195.932715586,1780.33321669 " moovel_rot="-52.6" moovel_centroid="-202.92441935,1720.00448248" moovel_centroidlatlon="16.300796922984873,48.17418582045753"/>
  <polygon id="343738198" class="tile" points="-211.466841817,1669.09995927 -211.792228792,1726.16859717 -217.805292089,1726.19828463 -217.873939803,1661.28063841 -215.342664582,1664.36471884 -211.466841817,1669.09995927 " moovel_rot="-12.2" moovel_centroid="-214.798287916,1695.30957137" moovel_centroidlatlon="16.35233792611311,48.23613872890849"/>
  <polygon id="166155595" class="tile" points="-239.645502281,1665.12539985 -218.906934284,1661.28063841 -218.873939803,1761.26172875 -239.577021522,1761.47844532 -239.645502281,1665.12539985 " moovel_rot="69.3" moovel_centroid="-229.187105052,1712.26555552" moovel_centroidlatlon="16.461045269225206,48.22027480248232"/>
  <polygon id="120473170" class="tile" points="-250.436154981,1715.33260823 -247.397507873,1717.43455427 -244.338822147,1711.15858881 -242.116944864,1703.18403113 -241.316176578,1699.17741042 -240.668737095,1692.54783514 -240.645502281,1686.9190144 -241.045114259,1680.47062369 -243.126253281,1670.54282618 -245.534019049,1664.62497682 -247.215536664,1661.28063841 -250.440590235,1662.65582195 -247.220578724,1671.78809616 -245.202853496,1679.36975761 -244.390260196,1686.77131088 -245.145076344,1696.88982683 -246.853315055,1704.67101434 -249.23326582,1712.35181381 -250.436154981,1715.33260823 " moovel_rot="81.5" moovel_centroid="-244.693938066,1689.35544814" moovel_centroidlatlon="16.419175736672347,48.184530582798644"/>
  <polygon id="104539421" class="tile" points="-255.931279725,1661.28063841 -305.732482505,1662.57678777 -317.319277012,1666.17701174 -320.80308828,1668.9139489 -322.81534992,1675.26498765 -322.820264365,1790.64031975 -298.98588179,1794.99616279 -258.292981733,1797.95321557 -257.683662676,1796.49218771 -251.440590235,1781.45212321 -253.698442884,1726.34230525 -255.671685493,1717.49410597 -255.931279725,1661.28063841 " moovel_rot="67.0" moovel_centroid="-287.989545603,1729.72374726" moovel_centroidlatlon="16.318819506079162,48.185535000700334"/>
  <polygon id="110188652" class="tile" points="-338.515345388,1661.28063841 -338.533437635,1687.83271447 -331.614144037,1687.83531627 -323.848248872,1687.83401676 -323.820264365,1661.28331337 -338.515345388,1661.28063841 " moovel_rot="82.1" moovel_centroid="-331.179391708,1674.55667754" moovel_centroidlatlon="16.304897785430217,48.127604877037335"/>
  <polygon id="236147578" class="tile" points="-354.381032683,1667.25866594 -343.679034063,1680.01695896 -339.533437635,1676.43274034 -339.543415562,1661.28063841 -349.658163903,1665.35152004 -354.381032683,1667.25866594 " moovel_rot="-84.7" moovel_centroid="-344.884472584,1670.12561163" moovel_centroidlatlon="16.451950926415165,48.23453303312917"/>
  <polygon id="26410677" class="tile" points="-400.094635623,1666.03755025 -400.139659479,1713.71374448 -360.776142541,1709.64424953 -355.381032683,1709.08691377 -361.439860345,1661.28063841 -400.094635623,1666.03755025 " moovel_rot="87.4" moovel_centroid="-379.168420536,1688.10035426" moovel_centroidlatlon="16.28158797008918,48.19246531206044"/>
  <polygon id="42099689" class="tile" points="-411.800087355,1666.34184344 -405.342566067,1661.28063841 -401.139659479,1666.85085748 -401.592444703,1865.40848318 -405.124100622,1868.93862269 -411.776995247,1869.12934425 -411.800087355,1666.34184344 " moovel_rot="-23.1" moovel_centroid="-406.586066689,1765.34771047" moovel_centroidlatlon="16.348198129735646,48.16728099021111"/>
  <polygon id="131839281" class="tile" points="-418.671815776,1671.97252994 -429.787879053,1663.51214251 -441.236197495,1661.28063841 -451.218135578,1662.88797183 -451.184912384,1730.28467893 -420.843180383,1731.8092546 -413.234345012,1705.20142489 -412.800087355,1683.73828378 -418.671815776,1671.97252994 " moovel_rot="31.3" moovel_centroid="-433.622173274,1697.31370349" moovel_centroidlatlon="16.39749056712813,48.14484196172776"/>
  <polygon id="318609439" class="tile" points="-459.663694591,1661.30315436 -452.240096849,1661.28063841 -452.229891286,1672.35278612 -452.224956183,1687.60972038 -452.218135578,1699.52809615 -459.641713543,1699.55062179 -459.663694591,1661.30315436 " moovel_rot="63.9" moovel_centroid="-455.940244584,1680.41443639" moovel_centroidlatlon="16.331128529724527,48.14471944924017"/>
  <polygon id="81962042" class="tile" points="-460.663694591,1661.28063841 -460.759389858,1747.74927806 -467.631186183,1749.46591286 -484.492908468,1665.57994754 -460.663694591,1661.28063841 " moovel_rot="74.6" moovel_centroid="-469.166161363,1698.21298" moovel_centroidlatlon="16.325072899915703,48.15769426728749"/>
  <polygon id="107252018" class="tile" points="-502.650320013,1673.45029909 -502.696225672,1679.6995253 -500.365370044,1679.73112899 -500.381985373,1681.40388052 -497.879190148,1681.42735832 -497.871336639,1680.03387592 -491.255761145,1680.10300188 -491.263615345,1681.49648483 -485.492908468,1681.56048508 -485.638885107,1678.71397009 -485.715235403,1672.53576305 -485.495032335,1661.28063841 -486.912188978,1661.43810725 -489.167429844,1661.38934122 -489.543093053,1670.5118469 -491.922346162,1673.24195985 -502.650320013,1673.45029909 " moovel_rot="-51.7" moovel_centroid="-492.127686002,1674.46873462" moovel_centroidlatlon="16.389171691273052,48.235777183189704"/>
  <polygon id="25634335" class="tile" points="-533.341920926,1699.1404807 -531.94389101,1698.46973594 -521.362669682,1693.43786738 -503.696225672,1683.04993729 -504.024794556,1666.9177062 -532.602155099,1661.42393672 -533.338855811,1661.28063841 -533.341920926,1699.1404807 " moovel_rot="52.0" moovel_centroid="-520.553439583,1678.18500024" moovel_centroidlatlon="16.254471286936067,48.151340792839"/>
  <polygon id="341306355" class="tile" points="-534.344119677,1661.28905633 -534.341920926,1675.20389038 -546.495678454,1675.1954686 -546.497877666,1661.28063841 -534.344119677,1661.28905633 " moovel_rot="-6.8" moovel_centroid="-540.4198989,1668.24226339" moovel_centroidlatlon="16.453524299999998,48.2711468"/>
  <polygon id="38686680" class="tile" points="-547.633835112,1661.52221443 -547.497877666,1676.58265661 -559.585333108,1676.79364393 -559.562185404,1661.28063841 -553.594583974,1661.40636425 -547.633835112,1661.52221443 " moovel_rot="1.0" moovel_centroid="-553.599383179,1669.06301864" moovel_centroidlatlon="16.52273787249532,48.214535797774964"/>
  <polygon id="131348969" class="tile" points="-64.3381250845,1876.00171563 -62.1238624105,1936.49569251 -61.9156369323,1958.6077239 -64.7421391664,1988.08579311 -44.624141369,1992.56743714 -34.8014796227,1965.57461851 -20.7788048448,1931.60770809 0.0,1886.78965488 -10.44249338,1881.90756287 -21.8803458374,1876.56497199 -30.721301722,1872.70644349 -35.4962743493,1871.597102 -61.8443597339,1869.12934425 -64.7385509921,1872.060296 -64.3381250845,1876.00171563 " moovel_rot="55.0" moovel_centroid="-40.77755666694302,1921.38024899" moovel_centroidlatlon="16.45915790865848,48.22083559435071"/>
  <polygon id="78883459" class="tile" points="-81.9416791485,1872.86445202 -81.9383587048,1890.08183623 -68.1112556345,1890.27908264 -68.1313873678,1886.43423993 -66.7421391664,1886.42696578 -66.7724897275,1869.14978951 -81.9411985226,1869.12934425 -81.9416791485,1872.86445202 " moovel_rot="0.3" moovel_centroid="-74.4524886805,1879.52145228" moovel_centroidlatlon="16.372213295826953,48.179096749933116"/>
  <polygon id="243320592" class="tile" points="-136.110393888,1876.72838934 -133.91154717,1871.35629385 -127.782531192,1873.18992392 -126.562672945,1869.12934425 -88.0302483661,1880.59985508 -89.1211427127,1886.61004701 -82.9416791485,1888.55201426 -103.756655436,1957.32344812 -136.087699465,1946.93384319 -133.716413012,1938.81398312 -123.008957759,1902.77948192 -120.484466155,1903.53362154 -114.453825383,1883.4565167 -136.110393888,1876.72838934 " moovel_rot="48.0" moovel_centroid="-109.852689909,1913.32022652" moovel_centroidlatlon="16.452576478434068,48.26092214558278"/>
  <polygon id="258552857" class="tile" points="-144.402435263,1869.59971065 -137.600336903,1869.12934425 -137.110393888,1872.77105601 -137.895600363,1878.9859817 -144.392913042,1878.74706646 -144.402435263,1869.59971065 " moovel_rot="13.4" moovel_centroid="-140.875146568,1874.05964271" moovel_centroidlatlon="16.43819690210172,48.19243948559994"/>
  <polygon id="26287336" class="tile" points="-166.865305932,1871.44825632 -166.884104753,1917.73383712 -145.402435263,1911.70652203 -151.499936822,1869.12934425 -166.865305932,1871.44825632 " moovel_rot="44.8" moovel_centroid="-157.655754706,1893.78304902" moovel_centroidlatlon="16.252535887114433,48.199459718530036"/>
  <polygon id="232102543" class="tile" points="-167.884104753,1870.01980336 -181.290895872,1869.12934425 -181.252439104,1902.57002375 -167.912395731,1903.17507248 -167.884104753,1870.01980336 " moovel_rot="-28.2" moovel_centroid="-174.594388562,1886.20919336" moovel_centroidlatlon="16.45668920106451,48.25211673202063"/>
  <polygon id="407903739" class="tile" points="-185.529152647,1869.13669089 -185.498671595,1914.88309346 -182.290895872,1914.87574527 -182.321370502,1869.12934425 -185.529152647,1869.13669089 " moovel_rot="76.4" moovel_centroid="-183.910022668,1892.00621084" moovel_centroidlatlon="16.37872570000001,48.18301530000001"/>
  <polygon id="124322456" class="tile" points="-187.520843921,1897.73684859 -194.074754096,1897.2529539 -197.63829219,1896.98689148 -197.685187195,1869.12934425 -195.939050317,1869.22720984 -186.529152647,1869.72882102 -187.520843921,1897.73684859 " moovel_rot="-7.8" moovel_centroid="-192.332624931,1883.17093437" moovel_centroidlatlon="16.306819571882887,48.25288626394556"/>
  <polygon id="236143006" class="tile" points="-198.685187195,1869.12934425 -210.794983524,1869.32083642 -210.739126172,1876.57487427 -210.718028102,1879.0349782 -207.684705097,1879.35633571 -207.511390494,1883.43164587 -198.692758864,1883.33597339 -198.685187195,1869.12934425 " moovel_rot="-15.1" moovel_centroid="-204.337112248,1875.88009549" moovel_centroidlatlon="16.444494768825823,48.23942898866584"/>
  <polygon id="163738586" class="tile" points="-211.82970163,1923.61015876 -211.794983524,1869.12934425 -214.595250464,1869.56510741 -247.015013209,1874.63905521 -243.17511775,1886.15236976 -247.497308156,1888.86360253 -228.04037008,1923.09307292 -211.82970163,1923.61015876 " moovel_rot="-86.7" moovel_centroid="-226.255551595,1894.65491854" moovel_centroidlatlon="16.418937329617158,48.259154180017426"/>
  <polygon id="47031008" class="tile" points="-248.497308156,1991.91524997 -252.210001262,1873.17376601 -260.757270229,1873.47124925 -260.899705712,1869.12934425 -278.085336614,1869.68260205 -277.799383469,1872.92483887 -278.817057524,1872.99761977 -282.605696027,1873.15402188 -285.548053831,1873.29110131 -285.496005276,1875.1509359 -290.241587468,1875.40792094 -288.352752091,1931.41850369 -258.95454708,1931.91619863 -258.064387328,1958.67618602 -260.44116894,1959.39100976 -259.684016103,1989.20122636 -290.421037638,1990.34417107 -290.44030342,2001.1202664 -254.06194076,1993.30335677 -248.497308156,1991.91524997 " moovel_rot="-24.6" moovel_centroid="-267.645665922,1921.16679468" moovel_centroidlatlon="16.459340207717798,48.22675377892947"/>
  <polygon id="378663336" class="tile" points="-341.510109035,1869.12934425 -341.325198355,1895.30944195 -338.7458565,1895.46605579 -338.884810921,1900.5289092 -341.336474535,1900.4115737 -341.713165257,1915.94656915 -337.030498634,1915.96718758 -336.983732715,1926.67301324 -341.717713527,1927.27349714 -341.370436553,1949.47311249 -335.192307548,1949.24382948 -334.23035423,1953.72652586 -295.016669886,1944.47008196 -295.917713773,1940.01654785 -291.494569496,1940.17658727 -291.44030342,1925.57607378 -313.178434666,1925.70643979 -313.295881574,1909.9150217 -317.055616631,1909.93819713 -317.148584042,1897.47447936 -314.725547116,1897.45771588 -314.88085483,1876.49673682 -317.680901174,1876.51237059 -317.738385184,1869.2486568 -341.510109035,1869.12934425 " moovel_rot="-17.1" moovel_centroid="-323.558569039,1915.1240109" moovel_centroidlatlon="16.389779327277687,48.14109056932204"/>
  <polygon id="32559818" class="tile" points="-342.717713527,1869.12934425 -357.986949464,1869.14977357 -357.996416431,1889.05721292 -365.404166015,1889.07302236 -372.811916064,1889.08883056 -372.823985465,1935.35736266 -370.383003922,1935.35914784 -370.389553878,1941.2835428 -372.820762491,1941.28877463 -372.832189545,1987.57799912 -366.331127736,1987.5608845 -357.766215291,1987.54833755 -357.767630374,2007.42024822 -342.748949987,2007.39764753 -342.735221613,1941.42870469 -345.429441787,1941.43659336 -345.426891913,1935.23578801 -342.732671361,1935.22790034 -342.717713527,1869.12934425 " moovel_rot="20.6" moovel_centroid="-356.512702109,1938.20658394" moovel_centroidlatlon="16.399667713650505,48.276587186067815"/>
  <polygon id="250816800" class="tile" points="-373.832189545,1893.54021748 -373.848598265,1869.12934425 -387.64022571,1869.33087104 -387.681809806,1889.6085927 -387.688824456,1893.43739031 -373.832189545,1893.54021748 " moovel_rot="71.2" moovel_centroid="-380.738176885,1881.36900976" moovel_centroidlatlon="16.31263711653724,48.13247213362209"/>
  <polygon id="332753255" class="tile" points="-388.739926503,1906.71698458 -398.767142652,1906.80667091 -398.764653983,1905.44393222 -400.643301612,1905.36297219 -400.697186194,1900.10186516 -403.111540753,1900.03940424 -403.195190289,1873.39024358 -392.05517253,1869.14131989 -388.688824456,1869.12934425 -388.701238329,1873.7021447 -388.739926503,1906.71698458 " moovel_rot="-78.7" moovel_centroid="-395.553433432,1888.1391967" moovel_centroidlatlon="16.281417041915397,48.14536492768406"/>
  <polygon id="227829990" class="tile" points="-416.596365838,1869.12934425 -417.502989745,1884.96052155 -404.195190289,1886.29761059 -404.221023176,1869.75264149 -416.596365838,1869.12934425 " moovel_rot="61.4" moovel_centroid="-410.589214029,1877.63805255" moovel_centroidlatlon="16.458578194894695,48.263386258736205"/>
  <polygon id="357207969" class="tile" points="-419.387818443,1869.12934425 -422.267155816,1871.35862537 -422.299779037,1895.49940795 -418.502989745,1893.09120191 -419.387818443,1869.12934425 " moovel_rot="27.8" moovel_centroid="-420.599524754,1882.812057" moovel_centroidlatlon="16.274631890020544,48.17326355037636"/>
  <polygon id="401930421" class="tile" points="-423.299779037,1940.8914884 -424.286688927,1897.36459416 -426.566997019,1886.64144061 -435.395688167,1874.42854806 -445.827061797,1869.51224244 -453.337564349,1869.12934425 -459.380200673,1873.54101633 -459.38306093,1875.26218348 -459.481104348,1941.42728003 -423.299779037,1940.8914884 " moovel_rot="-8.8" moovel_centroid="-442.52393556,1907.82176587" moovel_centroidlatlon="16.367927080259044,48.286382160793075"/>
  <polygon id="34641185" class="tile" points="-460.481104348,1892.70352773 -460.484276773,1886.34465599 -462.95425146,1869.3549408 -472.920692861,1869.12934425 -473.561364983,1892.38546439 -460.481104348,1892.70352773 " moovel_rot="-21.8" moovel_centroid="-467.283576943,1881.45714328" moovel_centroidlatlon="16.405278593544278,48.27194391926852"/>
  <polygon id="121806650" class="tile" points="-474.561364983,1892.03546271 -474.579006884,1869.12934425 -478.77596893,1871.44829952 -478.806526932,1895.00910638 -475.34617705,1894.48267212 -475.540651509,1892.21933778 -474.561364983,1892.03546271 " moovel_rot="34.9" moovel_centroid="-476.689327458,1882.28614445" moovel_centroidlatlon="16.361971015930013,48.18318824900422"/>
  <polygon id="158289569" class="tile" points="-479.806526932,1869.12934425 -479.827935602,1881.46430343 -479.833673934,1887.71593565 -479.845003451,1893.60369928 -479.85175341,1899.19245733 -479.865298025,1905.47302092 -479.881477565,1917.78860008 -523.347140975,1918.55657854 -523.422045659,1908.19385233 -523.376391555,1905.25559958 -523.494973768,1883.33756098 -523.64364699,1880.17086092 -523.637060921,1869.73687082 -501.396213036,1869.27766496 -479.806526932,1869.12934425 " moovel_rot="-15.1" moovel_centroid="-501.672322972,1893.72843793" moovel_centroidlatlon="16.383665426942247,48.22344140758945"/>
  <polygon id="250816798" class="tile" points="-545.099029611,1869.12934425 -545.130105991,1876.64537661 -545.234264161,1904.5813052 -524.64364699,1904.73171343 -524.681181481,1869.28883622 -545.099029611,1869.12934425 " moovel_rot="70.3" moovel_centroid="-534.915666402,1886.9574783" moovel_centroidlatlon="16.315257003674866,48.13182657731827"/>
  <polygon id="298885654" class="tile" points="-546.234264161,1869.12934425 -546.286435669,1903.30436691 -557.392742646,1902.148272 -557.821623984,1869.40254554 -546.234264161,1869.12934425 " moovel_rot="84.4" moovel_centroid="-551.893514469,1885.87750735" moovel_centroidlatlon="16.310133923654277,48.137719864545915"/>
  <polygon id="29235625" class="tile" points="-558.89415102,1900.818019 -558.821623984,1914.63764164 -573.551078013,1910.22192723 -573.086971103,1869.12934425 -560.709134029,1870.84614131 -559.480395989,1871.0849679 -558.872853404,1871.18135174 -558.89415102,1900.818019 " moovel_rot="50.3" moovel_centroid="-566.032651703,1891.41008891" moovel_centroidlatlon="16.389333896172825,48.15123903372318"/>
  <polygon id="287526533" class="tile" points="-5.80892579108,2007.42024822 -66.0841855466,2051.39699636 -88.306138045,2069.20918527 -134.74294403,2120.29306407 -133.17235833,2121.12803497 -94.4359109368,2140.94529417 -34.187389306,2172.54235303 -18.4793766959,2191.74471998 -0.0249993402511,2179.06301542 -28.5435344048,2137.25819867 -48.6354542378,2109.29346379 -38.4567517865,2096.2328679 -60.9949651513,2062.05782599 -27.2260844048,2034.75228532 0.0,2016.16612259 -5.80892579108,2007.42024822 " moovel_rot="53.8" moovel_centroid="-63.832598827144736,2112.27704526" moovel_centroidlatlon="16.42417972881698,48.26158547911379"/>
  <polygon id="435668046" class="tile" points="-136.74294403,2048.68730801 -143.082169729,2048.67857592 -150.714302739,2048.66435182 -150.730779296,2007.42024822 -143.674929087,2007.4336579 -136.76392482,2007.45208274 -136.74294403,2048.68730801 " moovel_rot="-26.9" moovel_centroid="-143.738232997,2028.05685923" moovel_centroidlatlon="16.403507247422933,48.252013216161544"/>
  <polygon id="361365171" class="tile" points="-167.167640999,2073.58200892 -167.177802507,2062.67163583 -162.909250788,2062.20102317 -163.97168291,2016.65756044 -165.380010996,2017.45737414 -165.783842179,2013.34304648 -163.6921412,2013.22408952 -162.992491766,2008.05546575 -160.15404173,2007.42024822 -151.730779296,2066.96576154 -167.167640999,2073.58200892 " moovel_rot="-66.8" moovel_centroid="-159.831790785,2045.40351422" moovel_centroidlatlon="16.369664902876686,48.23144448639936"/>
  <polygon id="236019836" class="tile" points="-183.533959735,2060.76557827 -183.502738779,2007.93611389 -183.494118853,2007.42024822 -174.223046555,2007.45282619 -168.181404858,2007.46124685 -168.177802507,2009.62407146 -168.190743239,2059.25021132 -168.188441659,2061.07291978 -177.369378206,2060.88437888 -183.533959735,2060.76557827 " moovel_rot="-27.9" moovel_centroid="-175.844873009,2034.18624977" moovel_centroidlatlon="16.452332570160305,48.23947431623843"/>
  <polygon id="104789116" class="tile" points="-208.818764232,2007.42024822 -208.851392708,2044.79498592 -184.533959735,2044.42998621 -184.833004022,2007.66236907 -208.818764232,2007.42024822 " moovel_rot="39.3" moovel_centroid="-196.79204183,2026.11968448" moovel_centroidlatlon="16.39272888534317,48.1785421261599"/>
  <polygon id="32314668" class="tile" points="-209.851392708,2044.36583316 -218.036453175,2038.26551726 -223.058379719,2028.05851232 -225.113322925,2015.97260558 -223.660089395,2011.5193676 -219.310217023,2007.44703572 -209.862156551,2007.42024822 -209.851392708,2044.36583316 " moovel_rot="-58.2" moovel_centroid="-216.162263643,2023.16987576" moovel_centroidlatlon="16.420971098353494,48.27142772920255"/>
  <polygon id="47034018" class="tile" points="-231.173752313,2007.42024822 -226.113322925,2021.1603911 -226.145528537,2065.91100359 -244.739594729,2065.5123598 -244.982998006,2061.83278928 -254.135452975,2061.84822633 -257.628400924,2061.85992442 -257.481589092,2047.40407935 -257.41851526,2040.71721981 -260.892869133,2036.34096365 -249.666343743,2026.99136891 -251.658554624,2024.28289887 -231.173752313,2007.42024822 " moovel_rot="-49.4" moovel_centroid="-240.348690774,2040.74252965" moovel_centroidlatlon="16.37282429502841,48.24121435482641"/>
  <polygon id="185763086" class="tile" points="-288.597751845,2007.42024822 -303.850296701,2008.07025687 -303.9401712,2083.8504019 -290.495744814,2083.56496076 -290.575427771,2077.74402447 -276.335182393,2077.33133555 -276.362224036,2085.19031417 -268.286308212,2085.10564444 -268.150052227,2080.47181237 -261.892869133,2080.36120936 -264.212529401,2019.3725284 -288.205720609,2020.46387482 -288.597751845,2007.42024822 " moovel_rot="-17.4" moovel_centroid="-284.393472356,2048.45638492" moovel_centroidlatlon="16.319313606685444,48.16172335759341"/>
  <polygon id="27479633" class="tile" points="-304.983329001,2074.96455074 -304.9401712,2007.43579196 -319.187838964,2007.42024822 -319.23085281,2074.95568462 -304.983329001,2074.96455074 " moovel_rot="-88.8" moovel_centroid="-312.085665355,2041.19401024" moovel_centroidlatlon="16.379877925890522,48.154444448836465"/>
  <polygon id="60561110" class="tile" points="-342.204338321,2064.95741132 -336.497868076,2065.001625 -336.469371238,2052.55499259 -321.926722236,2052.70209423 -322.110365533,2035.48091851 -320.247670416,2035.54001261 -320.23085281,2031.02181987 -322.071281688,2030.99464973 -322.214211455,2007.55644512 -350.850609619,2007.42024822 -350.877477884,2064.75244416 -342.204338321,2064.95741132 " moovel_rot="-24.2" moovel_centroid="-337.24898904,2033.52490767" moovel_centroidlatlon="16.45902134060731,48.222182462567744"/>
  <polygon id="313808984" class="tile" points="-351.877477884,2051.51720531 -372.748038856,2007.42024822 -383.74108658,2011.63447623 -400.029278865,2012.16379631 -400.074555815,2079.34256941 -389.60655538,2084.49158636 -351.877477884,2051.51720531 " moovel_rot="-67.4" moovel_centroid="-381.236341895,2044.51056985" moovel_centroidlatlon="16.413025867507724,48.282668055661766"/>
  <polygon id="100592709" class="tile" points="-401.074555815,2009.14354698 -407.155597539,2058.34869195 -411.763183554,2058.0367019 -414.779017761,2045.39758499 -414.781783471,2007.42024822 -401.074555815,2009.14354698 " moovel_rot="-35.3" moovel_centroid="-409.150189073,2029.96962647" moovel_centroidlatlon="16.429313697592004,48.20245857715296"/>
  <polygon id="317522377" class="tile" points="-415.781783471,2011.22078374 -419.633321763,2089.26944939 -421.332646117,2091.51685784 -450.607863102,2107.81543136 -455.792462063,2110.37017558 -461.672440718,2111.92368929 -465.474414327,2090.64193577 -468.601208379,2049.73489073 -468.606488961,2007.42024822 -415.781783471,2011.22078374 " moovel_rot="-5.5" moovel_centroid="-443.626818494,2054.57548704" moovel_centroidlatlon="16.434666460571467,48.245495651104505"/>
  <polygon id="406916996" class="tile" points="-469.727963042,2007.90441132 -469.606488961,2081.09136424 -481.091344829,2080.46103786 -478.14601401,2007.42024822 -469.727963042,2007.90441132 " moovel_rot="-28.2" moovel_centroid="-474.679496823,2046.09661248" moovel_centroidlatlon="16.458859024882628,48.26426173788619"/>
  <polygon id="179341982" class="tile" points="-483.72260464,2043.3706038 -489.078789367,2043.82051484 -496.168365656,2007.47354002 -505.962334895,2007.42024822 -505.773898881,2010.72079589 -507.129147252,2010.64646999 -507.150295215,2011.57991537 -512.044302799,2011.47233284 -512.78957759,2030.61528424 -512.797454892,2054.80228882 -489.535685009,2055.34704693 -489.27610266,2052.32196877 -482.091344829,2051.53388417 -483.72260464,2043.3706038 " moovel_rot="-11.6" moovel_centroid="-501.055453642,2034.25301691" moovel_centroidlatlon="16.33758725431852,48.170592241923885"/>
  <polygon id="352595344" class="tile" points="-528.08728808,2007.42024822 -536.561215778,2024.6930546 -537.41950357,2026.53418073 -541.894719197,2039.83493477 -544.074481406,2049.17186664 -544.234297642,2050.73202234 -546.264584845,2063.82035783 -546.270087446,2072.91556973 -542.571775843,2072.87933088 -545.666203853,2075.61184602 -534.981750163,2088.27094903 -516.175921616,2071.82618286 -517.176272083,2070.73358936 -513.797454892,2067.16361488 -531.115686215,2047.13876237 -534.145777853,2049.89898513 -533.181851382,2045.43443935 -528.871025397,2046.55647732 -523.58563183,2029.98306175 -516.575923061,2015.78123709 -520.286104629,2013.44161121 -519.469157288,2011.87357097 -528.08728808,2007.42024822 " moovel_rot="66.7" moovel_centroid="-531.812742614,2051.59624711" moovel_centroidlatlon="16.38392092282602,48.282076578299225"/>
  <polygon id="402409402" class="tile" points="-583.247645223,2102.28114207 -583.363431669,2019.7765288 -567.957799546,2007.42024822 -547.270087446,2030.75320131 -557.201612127,2038.88052179 -556.791773868,2102.44193101 -564.817045413,2102.68673716 -583.247645223,2102.28114207 " moovel_rot="16.4" moovel_centroid="-569.475904948,2056.93719736" moovel_centroidlatlon="16.389833022246542,48.27255420439354"/>
  <polygon id="105074775" class="tile" points="0.0,2192.50412167 -0.790712454356,2210.39850115 -2.82638315661,2213.75882147 -8.13676929669,2211.67711428 -14.5496112261,2214.17133172 -16.6294080664,2211.15201283 -16.6495584701,2191.74471998 0.0,2192.50412167 " moovel_rot="-6.7" moovel_centroid="-8.63222534856406,2202.33667264" moovel_centroidlatlon="16.361880783018474,48.17369832045938"/>
  <polygon id="27501145" class="tile" points="-50.5745920205,2194.8270358 -50.5133122739,2293.4116662 -18.6495584701,2292.76415087 -18.7481956371,2191.74471998 -50.5745920205,2194.8270358 " moovel_rot="76.4" moovel_centroid="-34.556610221,2243.19234514" moovel_centroidlatlon="16.37157672670773,48.16092853113023"/>
  <polygon id="61118216" class="tile" points="-66.3946787727,2191.76747012 -66.5413488437,2299.03908601 -51.5745920205,2298.69568731 -54.1562491494,2191.74471998 -66.3946787727,2191.76747012 " moovel_rot="45.4" moovel_centroid="-59.6493476598,2247.10421083" moovel_centroidlatlon="16.492446901522563,48.17659222249541"/>
  <polygon id="426492370" class="tile" points="-68.7021190084,2191.74471998 -78.6217440651,2196.94839145 -78.7782259612,2363.79191054 -67.5413488437,2356.98149969 -68.7021190084,2191.74471998 " moovel_rot="-28.6" moovel_centroid="-73.4101896154,2279.09561233" moovel_centroidlatlon="16.498304148366085,48.28496003288662"/>
  <polygon id="146337573" class="tile" points="-79.7782259612,2254.83656437 -79.7980257046,2240.15595583 -87.0335803979,2191.81246197 -93.4168851591,2191.74471998 -94.2194496441,2254.41787387 -79.7782259612,2254.83656437 " moovel_rot="-6.9" moovel_centroid="-87.9399777116,2227.37732895" moovel_centroidlatlon="16.351863002370948,48.218475643098216"/>
  <polygon id="228012275" class="tile" points="-110.124881146,2192.02773467 -102.223888547,2191.76572391 -95.266537626,2191.74471998 -95.2194496441,2240.93270188 -102.938664687,2240.90386136 -110.234357604,2240.86836078 -110.124881146,2192.02773467 " moovel_rot="64.7" moovel_centroid="-102.702302241,2216.40945635" moovel_centroidlatlon="16.452648935172565,48.25491682485232"/>
  <polygon id="437569903" class="tile" points="-111.234357604,2193.12526744 -114.471095392,2250.28982171 -111.234728024,2255.87624072 -148.220480209,2253.70682108 -154.753071553,2248.47036447 -151.633546231,2191.74471998 -111.234357604,2193.12526744 " moovel_rot="73.8" moovel_centroid="-132.907753437,2223.38051471" moovel_centroidlatlon="16.321551023736152,48.20784831260864"/>
  <polygon id="31723274" class="tile" points="-155.753071553,2300.13882513 -251.476894701,2216.94639228 -274.133723262,2200.49216015 -303.322782346,2191.74471998 -327.076183112,2217.81687732 -314.816722471,2228.85933636 -316.838016717,2243.03154032 -254.783409248,2296.29223375 -283.935612241,2330.40399854 -264.889623138,2346.74733189 -272.888569703,2356.10678327 -277.992803704,2361.59283316 -311.366647145,2400.63675113 -301.694882875,2408.94153637 -327.214906921,2438.8002649 -295.686739029,2464.61318798 -155.753071553,2300.13882513 " moovel_rot="-62.3" moovel_centroid="-251.404531075,2316.67543654" moovel_centroidlatlon="16.472792982218067,48.17069456343483"/>
  <polygon id="152975073" class="tile" points="-342.573637859,2191.99267377 -328.684933445,2191.74471998 -328.214906921,2263.97206608 -342.670721432,2264.71276795 -342.573637859,2191.99267377 " moovel_rot="62.0" moovel_centroid="-335.543133485,2228.348017" moovel_centroidlatlon="16.391065780375282,48.14831289703418"/>
  <polygon id="346889932" class="tile" points="-356.281781039,2192.14981563 -354.266285069,2191.99127825 -351.783752427,2191.74471998 -344.522777862,2193.17159597 -344.328830971,2197.20565043 -343.807769195,2197.56380365 -344.202995326,2199.53519949 -343.670721432,2199.78572849 -344.271528588,2202.06893908 -348.894688662,2201.47768352 -348.833045238,2206.40649009 -357.842011761,2206.37589406 -357.756655748,2205.44938259 -357.85017296,2192.41166413 -356.281781039,2192.14981563 " moovel_rot="27.8" moovel_centroid="-351.643369538,2198.75244691" moovel_centroidlatlon="16.37802557367041,48.23128573745477"/>
  <polygon id="350104384" class="tile" points="-371.841140825,2191.74471998 -405.903417142,2244.03076942 -400.082705903,2246.77027564 -394.847460412,2249.22855148 -363.880998232,2273.99679019 -358.871696135,2265.74755026 -374.105071017,2256.19085657 -375.519297042,2258.43978791 -386.806955615,2252.24046057 -360.413436473,2204.10577626 -358.85017296,2201.58650721 -371.841140825,2191.74471998 " moovel_rot="66.7" moovel_centroid="-380.186778166,2229.84061439" moovel_centroidlatlon="16.38104097674792,48.16418794347137"/>
  <polygon id="375966760" class="tile" points="-420.785899413,2191.75090249 -406.903417142,2191.74471998 -406.911326154,2218.44141483 -420.793800542,2218.44759822 -420.785899413,2191.75090249 " moovel_rot="83.7" moovel_centroid="-413.84861085,2205.09615762" moovel_centroidlatlon="16.454356999999998,48.275876149999995"/>
  <polygon id="282445422" class="tile" points="-439.638854664,2192.27537863 -432.900876002,2194.39853266 -432.869105047,2203.20568966 -428.471503907,2203.38241622 -428.381938825,2194.32976142 -423.033018345,2192.17531436 -421.793800542,2191.74471998 -421.889792352,2257.40222706 -426.051287665,2257.33474089 -427.903842479,2264.10794904 -427.876556598,2272.54037011 -433.105710669,2272.53379456 -433.419040108,2264.18351352 -435.044732107,2257.38248621 -439.467452862,2257.64036789 -439.638854664,2192.27537863 " moovel_rot="63.7" moovel_centroid="-430.683504005,2229.3345517" moovel_centroidlatlon="16.438720306737377,48.25517845969608"/>
  <polygon id="27342013" class="tile" points="-440.638854664,2192.61102677 -440.688570251,2238.76374938 -453.785106596,2238.70539804 -453.722706753,2205.65616081 -465.099744261,2205.65660562 -465.094535918,2199.30306196 -464.977463045,2191.74471998 -447.761344349,2192.38564577 -440.638854664,2192.61102677 " moovel_rot="66.4" moovel_centroid="-449.704934177,2212.15224926" moovel_centroidlatlon="16.319466942175655,48.22357524697501"/>
</svg>