<svg xmlns="http://www.w3.org/2000/svg" version="1.1" width="592.5px" height="1200px">
  <polygon id="3" class="bin" points="146.2500005,1203.749999 147.348350071,1206.40164943 150.0000005,1207.499999 446.2499995,1207.499999 448.901649929,1206.40164943 449.9999995,1203.749999 449.9999995,3.75 448.901649929,1.09834957055 446.2499995,0.0 150.0000005,0.0 147.348350071,1.09834957055 146.2500005,3.75 146.2500005,1203.749999 " moovel_rot="0" moovel_centroid="298.12499999999994,603.7499994999997" moovel_centroidlatlon="0,0"/>
  <polygon id="80787711" class="tile" points="-28.8094742935,1330.1723811 -21.9828694915,1328.94690401 -26.2164978944,1305.30465677 -23.2144827563,1303.4764654 -24.4020279355,1296.57717145 -17.9140692577,1295.43561951 -20.5272317043,1280.45271202 -18.6563625727,1278.23711114 -16.0010994408,1277.04521226 -13.4938757483,1276.89813492 -10.4104938105,1278.28729712 -7.98459370788,1281.45620407 -6.22913773414,1285.35266258 -5.45279686861,1289.8349236 -5.79762589801,1294.01476339 -1.94031551257,1291.94976942 -1.61231477149,1272.85698456 -1.24384100847,1251.24269951 -1.0,1236.44360572 -2.55069782007,1227.15515089 -4.64342056569,1219.82741151 -5.85711924136,1210.56101249 -5.77555627599,1201.21468893 -33.5445949594,1201.0 -33.1657530598,1225.70716607 -33.1285036379,1228.48910673 -32.3456717981,1280.18094536 -33.0101318656,1364.82530519 -28.339414872,1364.93309221 -28.5041105388,1373.33087175 -33.1748246735,1373.22308327 -33.4071649257,1391.6058597 -29.0074398769,1392.4536864 -27.6739647247,1393.30033355 -26.8313272005,1394.93992885 -27.6234876325,1401.26461612 -2.39393526372,1401.45522289 -2.36149081085,1398.28451281 -2.33986026142,1394.96165853 -21.7367233222,1394.86741565 -21.5669194214,1341.66468188 -26.8014492763,1341.74903039 -28.8094742935,1330.1723811 " moovel_rot="-62.8" moovel_centroid="-20.281201944852278,1277.3671775698629" moovel_centroidlatlon="16.369722599944353,48.18437060940593"/>
  <polygon id="94437517" class="tile" points="-63.6935885705,1242.67898895 -34.5552597751,1241.24012198 -34.5445949594,1202.49323291 -39.1674655713,1201.0 -42.4362469146,1202.02410557 -65.8977988382,1209.17891125 -63.6935885705,1242.67898895 " moovel_rot="-13.3" moovel_centroid="-49.2402684866,1222.958139658463" moovel_centroidlatlon="16.29612183427178,48.20618254776319"/>
  <polygon id="348422953" class="tile" points="-66.8977988382,1207.24552047 -82.5604516416,1201.0 -82.5577505638,1251.31302703 -74.0745732539,1227.44759885 -66.8977988382,1207.24552047 " moovel_rot="51.5" moovel_centroid="-77.3383044509,1219.8539791543812" moovel_centroidlatlon="16.39462854317016,48.16973522347094"/>
  <polygon id="31570132" class="tile" points="-103.032636602,1223.14533069 -83.5708867623,1223.22081059 -83.5604516416,1201.0 -103.311015981,1207.79038422 -103.032636602,1223.14533069 " moovel_rot="54.4" moovel_centroid="-92.7768890803,1213.6608056494185" moovel_centroidlatlon="16.421994754462855,48.27318723671268"/>
  <polygon id="236517370" class="tile" points="-115.106084947,1202.36531981 -109.922041052,1216.81956608 -115.121711822,1233.75288233 -109.621576191,1236.91902329 -104.311015981,1219.87892392 -110.532089157,1201.0 -115.106084947,1202.36531981 " moovel_rot="40.2" moovel_centroid="-109.80427087,1219.724096984995" moovel_centroidlatlon="16.458122921984103,48.23293404884125"/>
  <polygon id="100034454" class="tile" points="-116.213564766,1209.23795006 -116.121711822,1201.0 -130.758909818,1201.88753554 -130.706275995,1240.03637584 -116.129431281,1239.8903131 -116.213564766,1209.23795006 " moovel_rot="17.5" moovel_centroid="-123.428404285,1220.7018194630837" moovel_centroidlatlon="16.348710532525658,48.17527923952031"/>
  <polygon id="121609099" class="tile" points="-142.273446392,1242.10729226 -136.584658769,1242.44633316 -131.789760294,1242.79060452 -131.758909818,1223.27927211 -138.132889655,1223.29880979 -137.827170816,1201.68955046 -142.275468363,1201.0 -142.252943621,1234.70585634 -142.273446392,1242.10729226 " moovel_rot="34.3" moovel_centroid="-137.990631811,1226.2559929151862" moovel_centroidlatlon="16.35991889060185,48.186272038841665"/>
  <polygon id="333645548" class="tile" points="-143.781680463,1201.1496614 -143.275468363,1282.99421959 -146.510323627,1285.60314684 -160.200722557,1285.99733052 -160.181406419,1201.0 -143.781680463,1201.1496614 " moovel_rot="-25.6" moovel_centroid="-151.887450573,1243.524813863933" moovel_centroidlatlon="16.45284861392492,48.254338387263275"/>
  <polygon id="32847727" class="tile" points="-167.422885466,1201.0 -182.896211542,1203.29817524 -182.454534112,1207.81302593 -172.829526382,1216.60168002 -172.927626468,1220.2627215 -177.253735521,1219.77629486 -182.832453255,1252.4132237 -168.16643917,1256.01089613 -162.831213879,1223.8862723 -161.200722557,1208.34564367 -167.422885466,1201.0 " moovel_rot="76.8" moovel_centroid="-171.868232912,1227.5982857002077" moovel_centroidlatlon="16.411643003924816,48.280408253096645"/>
  <polygon id="233593660" class="tile" points="-183.896211542,1225.73472987 -213.61707095,1201.0 -249.624001979,1245.74039928 -246.273272574,1248.96318932 -251.858982187,1256.68789381 -219.029614664,1300.60434149 -190.534729813,1322.55829003 -183.956682225,1312.83295531 -227.060243102,1277.3265578 -183.896211542,1225.73472987 " moovel_rot="-66.4" moovel_centroid="-217.814570224,1252.462345860388" moovel_centroidlatlon="16.447883710897408,48.25372704083184"/>
  <polygon id="356696427" class="tile" points="-254.604108819,1216.58276554 -255.47738985,1219.96803395 -259.984808024,1218.7896384 -257.360574202,1208.67490142 -259.980511018,1204.87234064 -259.069907866,1201.0 -252.858982187,1209.67716621 -254.604108819,1216.58276554 " moovel_rot="82.1" moovel_centroid="-256.643162956,1211.6135571502882" moovel_centroidlatlon="16.458370803470494,48.209216546764125"/>
  <polygon id="413427964" class="tile" points="-280.768783313,1220.38077622 -280.86813112,1212.09421589 -283.198381294,1211.95227339 -283.001492418,1202.05142092 -280.659609197,1202.01572062 -280.56341405,1201.0 -260.999475398,1201.46917172 -260.997149012,1203.21301187 -260.993682402,1206.84507785 -260.994982296,1212.07099298 -260.984808024,1223.89463303 -280.897748958,1223.92317882 -280.768783313,1220.38077622 " moovel_rot="55.9" moovel_centroid="-271.47064266,1212.312043152961" moovel_centroidlatlon="16.338350219543393,48.2253507288864"/>
  <polygon id="28120576" class="tile" points="-284.21212679,1207.1165757 -289.250786443,1205.90690054 -288.688822461,1201.0 -340.869408186,1202.5333095 -341.385955765,1230.68880301 -316.896713062,1230.86004479 -316.843545206,1249.54264076 -319.730657252,1249.55014033 -319.642787538,1278.5238996 -307.755540425,1277.89521275 -307.745144284,1287.98820992 -284.198381294,1287.67903085 -284.207952474,1246.70339054 -284.21212679,1207.1165757 " moovel_rot="76.5" moovel_centroid="-306.394321331,1238.7972829051184" moovel_centroidlatlon="16.370115745785103,48.1664890581798"/>
  <polygon id="30404322" class="tile" points="-342.385955765,1203.53155086 -354.230343156,1203.49066328 -354.226106553,1201.02563066 -359.847516854,1201.0 -359.846190851,1203.81887849 -384.845974477,1203.72806081 -384.871749978,1245.23202835 -342.41125589,1245.38503281 -342.385955765,1203.53155086 " moovel_rot="-41.9" moovel_centroid="-363.53476366,1224.3118789696541" moovel_centroidlatlon="16.404749500566254,48.179368700541836"/>
  <polygon id="378663336" class="tile" points="-435.941555593,1201.0 -435.756644913,1227.1800977 -433.177303058,1227.33671154 -433.316257479,1232.39956495 -435.767921092,1232.28222946 -436.144611815,1247.8172249 -431.461945192,1247.83784333 -431.415179273,1258.54366899 -436.149160085,1259.14415289 -435.801883111,1281.34376824 -429.623754106,1281.11448523 -428.661800788,1285.59718161 -389.448116444,1276.34073771 -390.349160331,1271.88720361 -385.926016053,1272.04724302 -385.871749978,1257.44672953 -407.609881223,1257.57709554 -407.727328132,1241.78567745 -411.487063189,1241.80885288 -411.5800306,1229.34513511 -409.156993673,1229.32837163 -409.312301388,1208.36739257 -412.112347732,1208.38302634 -412.169831742,1201.11931255 -435.941555593,1201.0 " moovel_rot="-17.1" moovel_centroid="-417.990015597,1246.9946666546166" moovel_centroidlatlon="16.389779327277687,48.14109056932204"/>
  <polygon id="325386145" class="tile" points="-437.149160085,1201.50498888 -451.839483207,1201.0 -451.821752142,1221.87585359 -437.452964091,1221.5142614 -437.149160085,1201.50498888 " moovel_rot="-8.6" moovel_centroid="-444.616802279,1211.4351145371074" moovel_centroidlatlon="16.290080215989473,48.16886368152577"/>
  <polygon id="348340568" class="tile" points="-462.95613537,1229.06346445 -457.100959708,1229.02363936 -455.946221595,1229.0180751 -453.167097067,1204.29193418 -452.839483207,1201.71352704 -463.888553382,1201.0 -463.869843993,1214.88973663 -459.645101329,1214.99594117 -459.579108265,1216.94911204 -459.559326232,1217.65588417 -463.02287324,1217.6659312 -462.95613537,1229.06346445 " moovel_rot="-95.7" moovel_centroid="-458.812159596,1213.9695306431167" moovel_centroidlatlon="16.32731342995893,48.17900107843403"/>
  <polygon id="99177434" class="tile" points="-464.888958271,1201.0 -479.620884745,1201.69719753 -478.545284572,1218.09910081 -464.888553382,1215.38437041 -464.888958271,1201.0 " moovel_rot="-2.5" moovel_centroid="-472.153354301,1208.9744960470675" moovel_centroidlatlon="16.342122650584518,48.21348550841497"/>
  <polygon id="412507716" class="tile" points="-480.620884745,1225.11784026 -491.538091879,1225.2341757 -491.531870155,1209.58891016 -491.532640074,1201.14020928 -480.936323416,1201.0 -480.903842841,1203.48722604 -480.620884745,1225.11784026 " moovel_rot="-78.6" moovel_centroid="-486.15491222,1213.1830936837325" moovel_centroidlatlon="16.35742573769868,48.22199432660105"/>
  <polygon id="136284844" class="tile" points="-492.538091879,1228.22061079 -508.554284751,1228.20049137 -508.567719468,1201.0 -492.557809716,1201.01785349 -492.538091879,1228.22061079 " moovel_rot="-19.6" moovel_centroid="-500.554365118,1214.6106282859112" moovel_centroidlatlon="16.41376251897407,48.18684644196943"/>
  <polygon id="352598085" class="tile" points="-526.59752232,1201.0 -526.864138333,1236.90428081 -509.567719468,1237.5600725 -509.613024399,1201.77825748 -526.59752232,1201.0 " moovel_rot="67.2" moovel_centroid="-518.166168354,1219.3647097117278" moovel_centroidlatlon="16.386182153492282,48.27504159189886"/>
  <polygon id="313682586" class="tile" points="-561.248299883,1233.07523177 -534.30182786,1244.20795404 -527.864138333,1246.89383889 -527.871928535,1209.17867071 -548.183217189,1201.0 -551.855780801,1209.95837654 -552.786281994,1212.40043038 -561.248299883,1233.07523177 " moovel_rot="28.3" moovel_centroid="-541.53586625,1223.9594717568061" moovel_centroidlatlon="16.373631638324046,48.217617799999076"/>
  <polygon id="99660210" class="tile" points="-576.004780863,1204.05796727 -582.884675834,1201.0 -582.8352528,1329.29328204 -575.854265957,1332.69934643 -562.267001696,1332.01765866 -562.261772453,1258.61464241 -562.248299883,1253.74800586 -569.816485146,1254.13606638 -576.146480005,1254.4713498 -576.004780863,1204.05796727 " moovel_rot="66.9" moovel_centroid="-573.764912144,1281.3522759490093" moovel_centroidlatlon="16.349539102741378,48.16528402555546"/>
  <polygon id="126547920" class="tile" points="-4.66400392223,1440.52865511 -4.10129142143,1422.06722013 -10.0059088849,1422.00922536 -10.0320113741,1401.86021408 -5.05134890489,1401.74101461 -0.0259446146898,1401.45522289 0.0,1402.03264122 -3.81970818741,1402.16234009 -3.61374151446,1414.94901241 -0.115508691687,1415.99100392 -0.275943438336,1420.2940634 -0.501940556522,1437.44500317 -0.0138746495359,1437.45585319 -0.0745743264444,1440.61509961 -4.66400392223,1440.52865511 " moovel_rot="-56.2" moovel_centroid="-4.84521103342757,1418.99254098" moovel_centroidlatlon="16.36110164927375,48.18796503494872"/>
  <polygon id="11482621" class="tile" points="-96.6562535245,1403.28662147 -85.5777222808,1401.45522289 -31.3180181345,1447.57531889 -22.1081918832,1453.22792524 -12.0320113741,1461.39898909 -12.0330332186,1543.94340121 -23.7036634697,1553.03356183 -64.2545826161,1552.73183123 -64.4101187117,1532.47993756 -86.5599483117,1532.18928971 -86.7049331263,1511.66509259 -92.8968117006,1511.46410118 -93.1636218775,1488.41325528 -96.9963939324,1488.46518366 -96.6562535245,1403.28662147 " moovel_rot="70.7" moovel_centroid="-55.7413201461,1484.24074089" moovel_centroidlatlon="16.38599475985963,48.249161414729755"/>
  <polygon id="131839281" class="tile" points="-103.868122353,1412.14711442 -114.984185631,1403.68672699 -126.432504072,1401.45522289 -136.414442155,1403.06255631 -136.381218962,1470.45926341 -106.039486961,1471.98383908 -98.43065159,1445.37600937 -97.9963939324,1423.91286826 -103.868122353,1412.14711442 " moovel_rot="31.3" moovel_centroid="-118.818479852,1437.48828797" moovel_centroidlatlon="16.39749056712813,48.14484196172776"/>
  <polygon id="321241248" class="tile" points="-137.429149468,1417.05339309 -147.201289918,1418.55003362 -149.638107317,1403.85537392 -137.414442155,1401.45522289 -137.429149468,1417.05339309 " moovel_rot="88.0" moovel_centroid="-142.915588847,1409.9379458" moovel_centroidlatlon="16.507416999718213,48.21490654988158"/>
  <polygon id="101579314" class="tile" points="-153.884055103,1603.96861241 -155.991408455,1602.65022684 -158.799023905,1600.89488873 -158.945565747,1545.60694923 -158.898975985,1464.41811392 -158.762994098,1401.46799414 -155.707382382,1401.45522289 -151.202683884,1401.65063947 -150.638107317,1404.72615189 -150.657945711,1416.77391893 -150.714180019,1464.49363152 -150.801030269,1531.60485758 -150.727637182,1585.15280634 -150.866187027,1600.10243966 -153.884055103,1603.96861241 " moovel_rot="41.1" moovel_centroid="-154.81122972,1501.78769847" moovel_centroidlatlon="16.40454848344667,48.221846869907814"/>
  <polygon id="31515797" class="tile" points="-187.65150016,1406.44099384 -163.135524715,1401.45522289 -159.945565747,1448.19759236 -164.596645735,1450.62066835 -187.66443952,1450.39021427 -187.65150016,1406.44099384 " moovel_rot="67.8" moovel_centroid="-174.342809247,1427.5772654" moovel_centroidlatlon="16.399434905131287,48.25814846378711"/>
  <polygon id="222752589" class="tile" points="-200.146902839,1401.45522289 -191.228254206,1401.47612851 -188.710437997,1402.67063819 -188.66443952,1432.6717018 -197.931891824,1438.21800712 -199.406271502,1437.96810882 -200.724694753,1431.29006406 -200.146902839,1401.45522289 " moovel_rot="34.4" moovel_centroid="-194.721021437,1418.85102009" moovel_centroidlatlon="16.224018816066547,48.20607367194909"/>
  <polygon id="26358487" class="tile" points="-201.738115385,1420.3939588 -201.732023942,1413.64117799 -201.724694753,1402.90644043 -217.803054507,1401.45522289 -217.804982821,1407.92205727 -217.811119568,1413.10662033 -213.205301726,1418.60180488 -201.738115385,1420.3939588 " moovel_rot="11.3" moovel_centroid="-209.408278726,1410.42321927" moovel_centroidlatlon="16.25829965985359,48.17502916254973"/>
  <polygon id="294403472" class="tile" points="-218.843704308,1415.53603238 -220.799465406,1415.80255535 -220.614683326,1421.8716177 -218.823040505,1421.97815398 -218.811119568,1436.39191117 -222.491015778,1436.35780392 -230.314402213,1436.27542672 -230.458648829,1432.44610922 -233.277605292,1432.58235791 -233.184570389,1429.80239777 -233.125972797,1428.0198897 -230.378484593,1428.02983852 -230.467253611,1418.47642384 -230.441163107,1413.54154097 -230.503018646,1406.73648348 -230.619414605,1401.49371853 -219.017511688,1401.45522289 -218.843704308,1415.53603238 " moovel_rot="38.5" moovel_centroid="-225.017984915,1419.26500023" moovel_centroidlatlon="16.361378399965183,48.191435862413286"/>
  <polygon id="151520446" class="tile" points="-234.290347691,1417.74608487 -242.264122299,1417.73166942 -243.51360005,1417.73055728 -243.510541284,1401.45522289 -234.277605292,1401.46824613 -234.290347691,1417.74608487 " moovel_rot="-75.5" moovel_centroid="-238.897869622,1409.59835712" moovel_centroidlatlon="16.265729373625692,48.221392580673225"/>
  <polygon id="99861740" class="tile" points="-250.976875237,1402.03603512 -257.245019566,1401.60033276 -263.951482763,1401.45522289 -264.064354214,1582.32952666 -244.51360005,1581.67514905 -250.976875237,1402.03603512 " moovel_rot="45.6" moovel_centroid="-255.778959555,1497.93503232" moovel_centroidlatlon="16.396282039542896,48.174231133050625"/>
  <polygon id="25699368" class="tile" points="-265.064354214,1462.47021307 -284.549331814,1401.45522289 -319.389632757,1413.30141134 -319.470260386,1480.65078682 -265.064354214,1462.47021307 " moovel_rot="83.6" moovel_centroid="-296.750840892,1441.80564571" moovel_centroidlatlon="16.344279821758022,48.15890230732628"/>
  <polygon id="251555422" class="tile" points="-320.470260386,1401.45522289 -334.33890753,1412.48567668 -320.479296653,1430.42517671 -320.470260386,1401.45522289 " moovel_rot="51.6" moovel_centroid="-325.096154856,1414.78869209" moovel_centroidlatlon="16.40490426666667,48.211359699999996"/>
  <polygon id="31255585" class="tile" points="-336.215096927,1416.02899107 -335.33890753,1426.5216615 -335.997182437,1432.49812862 -338.118613932,1451.06984038 -338.818906524,1455.34717027 -339.820381535,1470.12905859 -370.00706668,1467.7505515 -371.735168594,1489.05778068 -373.185006902,1499.5058724 -390.19933643,1489.75497908 -400.779974899,1484.15040182 -400.826229996,1401.52781896 -392.382359074,1401.45522289 -392.1589601,1416.40048816 -367.581688371,1416.42051678 -367.401133264,1421.46476293 -348.463554105,1421.34099319 -348.169576156,1416.00263581 -336.215096927,1416.02899107 " moovel_rot="59.5" moovel_centroid="-372.683712318,1448.25875282" moovel_centroidlatlon="16.430682090401618,48.16626098267174"/>
  <polygon id="265944251" class="tile" points="-421.515524841,1405.87887908 -415.420129196,1406.79275673 -401.826229996,1401.45522289 -401.833958009,1494.3305688 -416.628798207,1488.9953867 -423.774059012,1488.66050463 -421.515524841,1405.87887908 " moovel_rot="-34.3" moovel_centroid="-412.020575625,1448.58181787" moovel_centroidlatlon="16.441334776063837,48.24549753142144"/>
  <polygon id="295621923" class="tile" points="-424.80221473,1431.71700052 -424.774059012,1401.46731136 -430.040590604,1401.45522289 -430.059167061,1431.70205635 -424.80221473,1431.71700052 " moovel_rot="-73.4" moovel_centroid="-427.418962555,1416.58080992" moovel_centroidlatlon="16.50302296557628,48.18177558854669"/>
  <polygon id="327419680" class="tile" points="-439.444877607,1454.8804765 -438.294607261,1457.06092244 -437.948659392,1458.96439775 -431.096018064,1459.02296051 -431.059167061,1401.45522289 -469.720422942,1403.06161759 -469.226012518,1451.29137557 -444.311139267,1451.89816925 -442.699713183,1452.14112046 -441.056341558,1453.05795061 -439.444877607,1454.8804765 " moovel_rot="74.6" moovel_centroid="-449.677020293,1427.78497429" moovel_centroidlatlon="16.41951787572919,48.186487702636505"/>
  <polygon id="123436263" class="tile" points="-498.151324234,1427.66199205 -470.729168822,1434.38123671 -470.720422942,1407.70061147 -472.491268578,1405.23815006 -487.815371763,1402.35899252 -491.611631299,1401.45522289 -498.151324234,1427.66199205 " moovel_rot="-31.6" moovel_centroid="-482.827557318,1417.98592035" moovel_centroidlatlon="16.35058280103861,48.222318985666284"/>
  <polygon id="202588313" class="tile" points="-512.909676677,1429.93785009 -513.19237517,1415.51031575 -503.404609902,1401.45522289 -499.151324234,1401.85657711 -499.162004156,1430.25236437 -512.909676677,1429.93785009 " moovel_rot="-50.3" moovel_centroid="-505.348154889,1417.75676514" moovel_centroidlatlon="16.395100203385923,48.18069946322499"/>
  <polygon id="306166657" class="tile" points="-514.19237517,1401.55925691 -528.128636292,1401.45522289 -528.196792953,1463.91522344 -521.909687708,1463.37979305 -516.608855835,1460.14823668 -514.193429823,1452.98773202 -514.19237517,1401.55925691 " moovel_rot="37.0" moovel_centroid="-521.335279464,1431.69436835" moovel_centroidlatlon="16.400786335819667,48.18706958596869"/>
  <polygon id="339039317" class="tile" points="-66.2360178228,1603.96861241 -66.2943876117,1685.66086011 -41.7824003292,1679.5012898 -42.0470175181,1675.92663152 0.0,1657.82193648 -4.52024103217,1644.57769845 -55.5858611086,1642.89975093 -54.3924748829,1604.62231117 -66.2360178228,1603.96861241 " moovel_rot="77.9" moovel_centroid="-43.72729602246013,1652.82132184" moovel_centroidlatlon="16.297944428207632,48.14833908663209"/>
  <polygon id="326098424" class="tile" points="-68.3032885176,1619.26470858 -68.2943876117,1603.96861241 -79.9284405958,1607.17003198 -79.6439955099,1610.68554977 -79.2528830593,1614.2869067 -78.6179759968,1619.60125387 -68.3032885176,1619.26470858 " moovel_rot="8.1" moovel_centroid="-73.6433604904,1612.32354623" moovel_centroidlatlon="16.35555501070529,48.254072432091945"/>
  <polygon id="352776124" class="tile" points="-95.1766531913,1607.90175091 -95.2563079024,1692.20742596 -80.9284405958,1691.8478434 -80.9645233962,1685.60245108 -81.4274064699,1606.83360979 -81.4472458194,1604.02459966 -91.1196112376,1603.96861241 -91.1473238809,1608.11741318 -95.1766531913,1607.90175091 " moovel_rot="-8.9" moovel_centroid="-88.1389587846,1648.88951982" moovel_centroidlatlon="16.44925586033474,48.284970542918366"/>
  <polygon id="28091154" class="tile" points="-96.2573614408,1655.4074959 -130.677563901,1638.45528502 -116.017817335,1603.96861241 -96.2563079024,1611.70948021 -96.2573614408,1655.4074959 " moovel_rot="-16.5" moovel_centroid="-110.008015477,1629.26187091" moovel_centroidlatlon="16.48773317362786,48.232974791965425"/>
  <polygon id="298495669" class="tile" points="-131.685387101,1617.67954048 -140.914023327,1619.55337836 -141.728977804,1605.89416873 -131.677563901,1603.96861241 -131.685387101,1617.67954048 " moovel_rot="-17.7" moovel_centroid="-136.510791545,1611.67824272" moovel_centroidlatlon="16.354618643245434,48.146237684976136"/>
  <polygon id="446888627" class="tile" points="-142.728977804,1695.88547028 -179.654009967,1695.98424044 -179.704844801,1603.96861241 -142.825136796,1604.36812029 -142.728977804,1695.88547028 " moovel_rot="60.0" moovel_centroid="-161.24493885,1650.06101796" moovel_centroidlatlon="16.45904504759879,48.14897742244562"/>
  <polygon id="240536149" class="tile" points="-213.32970737,1703.04926026 -181.626083658,1703.29547687 -180.704844801,1637.38407431 -191.978711478,1631.29107906 -192.32528787,1604.58952845 -213.410819368,1603.96861241 -213.32970737,1703.04926026 " moovel_rot="-89.6" moovel_centroid="-198.507642562,1657.55510911" moovel_centroidlatlon="16.43941556913018,48.29644464443557"/>
  <polygon id="172051346" class="tile" points="-239.659059441,1745.61311867 -248.096967852,1743.83854985 -254.672889254,1742.22093171 -233.159922393,1664.81625687 -230.358269958,1646.39758689 -231.720217118,1638.090369 -236.933798887,1628.06242167 -254.795668881,1605.19419893 -236.70086571,1603.96861241 -221.315247718,1622.09888786 -215.547267496,1634.41171205 -214.410819368,1647.18561468 -215.043900378,1654.37346568 -215.814066182,1657.38779375 -239.659059441,1745.61311867 " moovel_rot="-20" moovel_centroid="-233.069872308,1671.53940066" moovel_centroidlatlon="16.362365704826868,48.17985774403668"/>
  <polygon id="236815332" class="tile" points="-255.795668881,1603.96861241 -255.826034425,1606.77511606 -255.833354194,1708.98445699 -269.311247701,1710.31747204 -271.132848905,1693.3137446 -273.906289455,1667.33336786 -273.848176126,1646.65506291 -273.742575307,1611.29163807 -273.736126748,1609.20509541 -255.795668881,1603.96861241 " moovel_rot="66.1" moovel_centroid="-264.364154907,1656.16927319" moovel_centroidlatlon="16.22855200503962,48.21292496265616"/>
  <polygon id="309085346" class="tile" points="-302.19564931,1604.01745257 -274.951483787,1603.96861241 -274.906289455,1659.16265778 -279.168690569,1659.1384332 -279.175951515,1665.03234347 -302.248896722,1665.09304388 -302.207017851,1616.02720584 -302.19564931,1604.01745257 " moovel_rot="69.7" moovel_centroid="-288.751689788,1634.12336024" moovel_centroidlatlon="16.265791415491798,48.196756837024886"/>
  <polygon id="435668046" class="tile" points="-303.248896722,1645.2356722 -309.58812242,1645.2269401 -317.220255431,1645.21271601 -317.236731988,1603.96861241 -310.180881779,1603.98202209 -303.269877511,1604.00044693 -303.248896722,1645.2356722 " moovel_rot="-26.9" moovel_centroid="-310.244185689,1624.60522342" moovel_centroidlatlon="16.403507247422933,48.252013216161544"/>
  <polygon id="327123303" class="tile" points="-323.603096477,1604.1305289 -318.236731988,1603.96861241 -318.289846374,1650.96191179 -323.089651583,1653.70664251 -323.603096477,1604.1305289 " moovel_rot="77.1" moovel_centroid="-320.830966873,1627.76065891" moovel_centroidlatlon="16.393797693565897,48.19533984376386"/>
  <polygon id="161847048" class="tile" points="-324.603096477,1638.95341133 -330.752255943,1638.93252595 -330.750628294,1603.96861241 -324.606051209,1603.98463841 -324.603096477,1638.95341133 " moovel_rot="-46.5" moovel_centroid="-327.677936954,1621.46196943" moovel_centroidlatlon="16.437605350598826,48.20166198549728"/>
  <polygon id="188272870" class="tile" points="-331.754896025,1604.05873576 -331.752255943,1604.80654829 -331.755099828,1630.82538892 -347.100179976,1628.52387161 -347.033858406,1627.0750978 -346.236687568,1608.16493539 -343.149342062,1606.49621843 -342.374321149,1603.96861241 -331.754896025,1604.05873576 " moovel_rot="-12.7" moovel_centroid="-338.902624589,1617.34010509" moovel_centroidlatlon="16.360877081164805,48.17218350934101"/>
  <polygon id="348340567" class="tile" points="-353.304830296,1661.8669795 -351.02937737,1661.75143098 -351.084877491,1660.57401343 -348.100179976,1660.501069 -348.312253569,1605.62303418 -352.34526766,1605.72159893 -353.784472971,1603.96861241 -356.662335675,1604.03894586 -356.708969901,1662.00012293 -354.933329168,1661.93674798 -353.304830296,1661.8669795 " moovel_rot="1.4" moovel_centroid="-352.499698473,1633.33333502" moovel_centroidlatlon="16.32817391171554,48.178706934703406"/>
  <polygon id="207901595" class="tile" points="-382.179720896,1604.27763616 -358.305066069,1627.52092951 -357.708969901,1659.07088667 -393.101069003,1678.78022579 -393.03842252,1603.96861241 -382.179720896,1604.27763616 " moovel_rot="38.2" moovel_centroid="-377.912669326,1640.44129054" moovel_centroidlatlon="16.390640625499717,48.23129312459564"/>
  <polygon id="311308970" class="tile" points="-394.101069003,1620.8339078 -394.104238414,1603.98246661 -408.146000893,1603.96861241 -408.13633982,1620.82162515 -394.101069003,1620.8339078 " moovel_rot="-13.7" moovel_centroid="-401.122020956,1612.40100355" moovel_centroidlatlon="16.308265628896812,48.12608135606182"/>
  <polygon id="41981288" class="tile" points="-409.221211855,1603.96861241 -441.997057396,1604.89739743 -445.231477211,1711.8219402 -409.146000893,1734.68824558 -409.221211855,1603.96861241 " moovel_rot="-5.8" moovel_centroid="-425.86593177,1665.05663316" moovel_centroidlatlon="16.49519320103967,48.200746464502195"/>
  <polygon id="246487649" class="tile" points="-461.591053931,1603.96861241 -461.595230958,1628.86913376 -446.235653727,1628.8761756 -446.231477211,1603.97565425 -461.591053931,1603.96861241 " moovel_rot="-90.4" moovel_centroid="-453.913353957,1616.42239408" moovel_centroidlatlon="16.277606350000006,48.144680900000004"/>
  <polygon id="27481161" class="tile" points="-462.595230958,1655.96576848 -491.623192526,1625.124212 -491.092825169,1620.28410535 -462.609466464,1603.96861241 -464.178209542,1622.09969233 -462.595230958,1655.96576848 " moovel_rot="-42.4" moovel_centroid="-473.545615412,1627.41841004" moovel_centroidlatlon="16.32733527119724,48.27029330673408"/>
  <polygon id="242751320" class="tile" points="-507.998855342,1639.47585972 -507.993155944,1603.96861241 -492.623192526,1604.00386184 -492.628907959,1639.51114534 -507.998855342,1639.47585972 " moovel_rot="-23.9" moovel_centroid="-500.311026636,1621.73986675" moovel_centroidlatlon="16.42470875,48.28563425000001"/>
  <polygon id="65178212" class="tile" points="-510.038650978,1603.96861241 -515.865386119,1604.48821174 -523.64459081,1605.18541309 -523.645823761,1631.72729488 -515.813688731,1630.86593491 -512.637078428,1630.69391297 -508.998855342,1630.68190154 -510.038650978,1603.96861241 " moovel_rot="23.3" moovel_centroid="-516.573220691,1617.96516503" moovel_centroidlatlon="16.359323144903165,48.17725345641128"/>
  <polygon id="237247547" class="tile" points="-524.645823761,1603.96861241 -524.664542877,1644.76795459 -536.890382277,1645.43092456 -537.553640994,1604.41789789 -524.645823761,1603.96861241 " moovel_rot="-17.4" moovel_centroid="-530.946291765,1624.46215279" moovel_centroidlatlon="16.44647775960419,48.230819335157555"/>
  <polygon id="225525854" class="tile" points="-538.564839893,1606.65694259 -540.144054891,1620.15133189 -540.230617626,1632.51995512 -539.946864165,1645.48240986 -538.553640994,1662.37728349 -545.170953399,1663.58459275 -545.970268656,1658.70384582 -547.034248694,1645.74146105 -547.637518025,1630.54213435 -547.270565555,1618.58564911 -544.646797873,1603.96861241 -538.564839893,1606.65694259 " moovel_rot="53.8" moovel_centroid="-543.247101601,1634.23682618" moovel_centroidlatlon="16.392755316444028,48.212262711161145"/>
  <polygon id="271990519" class="tile" points="-549.20577737,1767.15156089 -562.553054185,1768.46124879 -562.886428094,1689.71831613 -562.798041202,1675.48348981 -564.137850169,1608.8579613 -559.476042677,1608.61610551 -558.904956238,1603.96861241 -548.637518025,1604.6729941 -548.697457206,1662.2168285 -548.871488289,1746.01587868 -549.20577737,1767.15156089 " moovel_rot="-53.8" moovel_centroid="-555.890726421,1684.9733324" moovel_centroidlatlon="16.34439466513853,48.17754998876238"/>
  <polygon id="356757356" class="tile" points="-0.0289270201698,1771.28075509 0.0,1806.86713628 -32.2661008934,1806.16267948 -30.9286295372,1768.46124879 -22.179326469,1769.55577122 -0.0289270201698,1771.28075509 " moovel_rot="-13.5" moovel_centroid="-15.958508120450693,1788.3860648" moovel_centroidlatlon="16.39876562159458,48.15294121191458"/>
  <polygon id="99660220" class="tile" points="-34.3378672283,1768.83724572 -34.2661008934,1818.3675743 -46.0081964863,1817.78689611 -42.3512989497,1768.46124879 -34.3378672283,1768.83724572 " moovel_rot="67.1" moovel_centroid="-39.2968663718,1794.91846684" moovel_centroidlatlon="16.35139630096291,48.166476305355914"/>
  <polygon id="50913964" class="tile" points="-83.1165869888,1773.13327255 -83.1266301989,1808.10579903 -47.0081964863,1806.7969854 -49.1126799965,1768.46124879 -58.8877916128,1769.7430192 -71.8495263998,1771.58142799 -83.1165869888,1773.13327255 " moovel_rot="-18.5" moovel_centroid="-65.3015532505,1789.26461958" moovel_centroidlatlon="16.472510423640465,48.21358678776135"/>
  <polygon id="133718871" class="tile" points="-97.0480026712,1769.9889278 -97.0815377119,1830.2836235 -92.8410556526,1833.6987275 -87.9633374942,1831.66297082 -84.1931671377,1829.15293352 -84.1266301989,1814.7281063 -85.9651700969,1815.92202355 -85.5988426264,1778.52612811 -86.63163855,1768.46124879 -97.0480026712,1769.9889278 " moovel_rot="52.7" moovel_centroid="-91.2266629653,1801.42357298" moovel_centroidlatlon="16.47281766374447,48.17851208586783"/>
  <polygon id="27007961" class="tile" points="-130.255161945,1846.34319326 -129.446510972,1809.0585399 -128.774080616,1777.93554466 -134.299074088,1772.06934741 -168.307981299,1768.46124879 -174.94325432,1778.34336243 -165.589118414,1819.1379666 -165.040832742,1855.44567673 -174.792479549,1952.09202598 -170.205285634,1965.68808505 -159.984566646,1973.03991063 -138.893882707,1975.73346582 -122.564813398,1952.64112408 -110.999829573,1924.65330191 -110.489973579,1909.33795448 -113.712407638,1891.55304246 -120.297408864,1875.48749323 -103.374919957,1878.27425889 -98.0815377119,1849.96426688 -130.255161945,1846.34319326 " moovel_rot="-15.7" moovel_centroid="-143.54401316,1876.80839347" moovel_centroidlatlon="16.39715820760571,48.15085912772509"/>
  <polygon id="174776689" class="tile" points="-196.27334836,1768.46124879 -191.105398132,1780.14278724 -189.374470398,1786.22569995 -188.355350046,1791.79138471 -188.942648795,1797.63165333 -190.863228258,1801.93526336 -194.046957065,1806.26210332 -195.756713835,1808.82596543 -196.31432851,1810.75681994 -195.847033205,1812.38064845 -184.21827359,1807.86777412 -184.569205009,1806.52828752 -181.219339761,1805.19510157 -178.48267841,1803.28727805 -177.262564867,1800.59414764 -176.502389411,1798.22302157 -175.94325432,1794.08113862 -176.341508712,1790.24487798 -176.917520849,1786.87506819 -177.458924252,1784.81768945 -179.195497963,1782.46768762 -187.061661165,1775.45596009 -196.27334836,1768.46124879 " moovel_rot="9.7" moovel_centroid="-185.294079176,1792.65558186" moovel_centroidlatlon="16.296405102223005,48.22695841808651"/>
  <polygon id="166150129" class="tile" points="-211.160615497,1769.59341584 -197.326299444,1768.46124879 -202.0422128,1781.72422894 -197.31432851,1790.5431267 -206.440751948,1802.60828252 -219.7581129,1793.24827703 -217.776528904,1787.30874585 -223.425681384,1784.29379671 -226.27662667,1779.02440132 -220.286315186,1773.27944735 -211.160615497,1769.59341584 " moovel_rot="-38.8" moovel_centroid="-210.131714774,1783.71032766" moovel_centroidlatlon="16.37291425726562,48.25158503889154"/>
  <polygon id="348060981" class="tile" points="-227.27662667,1787.04823367 -228.412218386,1768.46124879 -240.113644807,1770.08803327 -241.785381586,1777.62774464 -239.285741083,1779.04128605 -241.796466965,1793.74575324 -228.382197565,1798.06290996 -227.656599332,1790.81032328 -227.27662667,1787.04823367 " moovel_rot="-25.7" moovel_centroid="-234.037319339,1782.89666206" moovel_centroidlatlon="16.38493736242201,48.17087860237104"/>
  <polygon id="397836026" class="tile" points="-251.069319918,1768.46124879 -242.798057278,1768.55278256 -242.796466965,1777.2774218 -251.137090659,1777.12175381 -251.069319918,1768.46124879 " moovel_rot="-10.8" moovel_centroid="-246.945232481,1772.8594466" moovel_centroidlatlon="16.530425109211894,48.24537082400932"/>
  <polygon id="297168534" class="tile" points="-264.832517654,1768.98000927 -252.137090659,1768.46124879 -252.164743543,1790.5582699 -255.623187009,1794.55758878 -264.348247802,1794.7676232 -264.832517654,1768.98000927 " moovel_rot="73.0" moovel_centroid="-258.472458962,1781.33154514" moovel_centroidlatlon="16.271029905555586,48.199952077303266"/>
  <polygon id="193191820" class="tile" points="-265.945926279,1771.27519139 -265.832517654,1768.83518004 -272.425181395,1768.83052864 -281.919112788,1768.46124879 -281.919185608,1770.44755273 -281.753351363,1787.09497824 -267.079072418,1786.6891306 -266.105349223,1786.69117489 -265.945926279,1771.27519139 " moovel_rot="77.2" moovel_centroid="-273.986364541,1777.76286811" moovel_centroidlatlon="16.423915889366768,48.24548023424289"/>
  <polygon id="104859492" class="tile" points="-304.12180099,1768.46124879 -288.87780948,1772.78813505 -282.919185608,1797.90675698 -283.318831907,1804.27618844 -295.92930947,1808.28284109 -304.111903191,1805.71985548 -298.44754074,1795.78259828 -297.094300058,1790.05389934 -297.480294242,1783.25008678 -299.490039918,1776.80975496 -304.12180099,1768.46124879 " moovel_rot="-33.4" moovel_centroid="-292.766974684,1790.50447212" moovel_centroidlatlon="16.254958097920394,48.13174490449241"/>
  <polygon id="300708061" class="tile" points="-340.347837845,1781.79906853 -340.342358493,1785.24959739 -311.347864591,1785.29952404 -311.343211915,1798.74402226 -340.201358871,1798.69128797 -340.205603612,1802.14885257 -305.124379494,1802.20458133 -305.12180099,1815.21189313 -343.65333598,1815.14639658 -343.660717358,1768.46124879 -311.256937395,1768.51633632 -311.255251448,1781.85334327 -340.347837845,1781.79906853 " moovel_rot="-20.3" moovel_centroid="-326.608524564,1792.77599193" moovel_centroidlatlon="16.452752255160387,48.15702661741238"/>
  <polygon id="312108356" class="tile" points="-344.660717358,1768.49784699 -356.012318757,1768.46124879 -356.01343699,1770.02697977 -356.021573243,1793.16078233 -356.021617164,1794.89987998 -344.675830024,1794.93319089 -344.660717358,1768.49784699 " moovel_rot="-29.7" moovel_centroid="-350.343003352,1781.69690958" moovel_centroidlatlon="16.39105798835575,48.26877755791357"/>
  <polygon id="297175088" class="tile" points="-357.021617164,1814.03190391 -365.61440774,1813.70411791 -365.252688504,1768.46124879 -357.071097141,1769.06056826 -357.021617164,1814.03190391 " moovel_rot="-22.8" moovel_centroid="-361.245147574,1791.49804041" moovel_centroidlatlon="16.242250631574574,48.207550511155354"/>
  <polygon id="404084092" class="tile" points="-373.310724377,1768.46124879 -366.61440774,1773.74527778 -367.839241376,1778.26604558 -371.661068605,1780.79043196 -374.353639124,1782.57037203 -374.376180258,1781.82373831 -374.952706176,1781.36097532 -375.678402645,1781.06170174 -378.396614067,1780.8767818 -378.398854325,1768.59056696 -373.310724377,1768.46124879 " moovel_rot="52.8" moovel_centroid="-373.483075268,1775.10474348" moovel_centroidlatlon="16.263437187672974,48.1781674541526"/>
  <polygon id="31990141" class="tile" points="-425.309796227,1768.46124879 -379.605603886,1769.69073674 -379.398854325,1899.28392644 -432.879862204,1899.02820072 -432.450846882,1838.18207138 -426.566698611,1838.22868527 -425.309796227,1768.46124879 " moovel_rot="80.6" moovel_centroid="-404.4360555,1836.45387067" moovel_centroidlatlon="16.408057168782786,48.27034696459999"/>
  <polygon id="240894518" class="tile" points="-433.912025828,1768.46124879 -448.085969874,1768.52361535 -448.085830532,1769.69210863 -448.101358697,1797.44856528 -442.266209557,1797.46672791 -441.011241082,1797.46527836 -433.879862204,1797.48385856 -433.912025828,1768.46124879 " moovel_rot="-16.6" moovel_centroid="-440.990728395,1782.98784774" moovel_centroidlatlon="16.484968530058868,48.23524382991177"/>
  <polygon id="29545092" class="tile" points="-449.101358697,1768.46124879 -463.66465619,1768.47380929 -463.677971854,1787.49450931 -449.10490767,1787.4839714 -449.101875386,1770.63018428 -449.101358697,1768.46124879 " moovel_rot="78.3" moovel_centroid="-456.387122506,1777.97945683" moovel_centroidlatlon="16.355175465428147,48.16862042182767"/>
  <polygon id="352137104" class="tile" points="-465.323087173,1768.46124879 -464.677971854,1837.92614563 -479.153787355,1838.0476333 -479.075078132,1768.77312054 -465.323087173,1768.46124879 " moovel_rot="-30.2" moovel_centroid="-472.052856033,1803.59811363" moovel_centroidlatlon="16.4672735602288,48.15469855961305"/>
  <polygon id="25832188" class="tile" points="-482.858745042,1769.55849684 -490.096303334,1768.46124879 -493.241410184,1773.26221671 -493.399679085,1794.13650964 -480.153787355,1794.27220598 -480.18910424,1769.67130788 -482.858745042,1769.55849684 " moovel_rot="-59.4" moovel_centroid="-486.67372115,1781.90296652" moovel_centroidlatlon="16.386267792427848,48.256567043300954"/>
  <polygon id="185316443" class="tile" points="-498.116753627,1768.47066421 -498.112729449,1792.722736 -494.399679085,1792.71331542 -494.403696486,1768.46124879 -498.116753627,1768.47066421 " moovel_rot="52.7" moovel_centroid="-496.258214728,1780.59198742" moovel_centroidlatlon="16.3733647,48.21080709999999"/>
  <polygon id="336060967" class="tile" points="-547.914368728,1804.52233306 -551.899363765,1804.44252821 -547.137559875,1799.1572838 -546.756552334,1784.64157936 -513.727991861,1784.43062118 -514.13185407,1768.46124879 -499.155763087,1768.66039184 -499.116753627,1809.81384356 -500.235525687,1855.65423029 -500.388376455,1861.99982921 -512.691691615,1864.11685815 -520.497789519,1835.32601205 -526.825036047,1835.4191575 -527.157939504,1810.58463972 -530.167609397,1807.61743319 -535.770289831,1807.51537204 -535.718732631,1804.33864387 -547.914368728,1804.52233306 " moovel_rot="73.4" moovel_centroid="-515.827952819,1811.20881786" moovel_centroidlatlon="16.35596319436916,48.13639239952745"/>
  <polygon id="117921184" class="tile" points="-553.020211527,1768.46124879 -556.463106681,1769.76837332 -556.494942556,1803.97370666 -552.899363765,1801.32649505 -553.020211527,1768.46124879 " moovel_rot="-6.5" moovel_centroid="-554.730204346,1786.01118013" moovel_centroidlatlon="16.32115909245943,48.200255532619074"/>
  <polygon id="341306330" class="tile" points="-557.494942556,1768.51915726 -557.546747935,1816.94576353 -571.37712202,1816.78813027 -571.441893391,1768.46124879 -557.494942556,1768.51915726 " moovel_rot="-5.3" moovel_centroid="-564.462773502,1792.64475155" moovel_centroidlatlon="16.455619710956825,48.27220586383328"/>
  <polygon id="169952413" class="tile" points="-31.1439490149,1975.7723486 0.0,1975.73346582 -0.0485743543133,2035.3228519 -31.19528154,2035.3678194 -31.1439490149,1975.7723486 " moovel_rot="64.4" moovel_centroid="-15.597216443389568,2005.54956076" moovel_centroidlatlon="16.3333401829056,48.15547085038219"/>
  <polygon id="236572187" class="tile" points="-61.9000319164,1975.73346582 -33.19528154,1978.47590139 -33.265149403,2034.54384847 -48.30097673,2033.48446406 -47.880008083,1988.06343634 -62.7082607212,1986.63789191 -61.9000319164,1975.73346582 " moovel_rot="61.8" moovel_centroid="-42.9555999228,2002.1736912" moovel_centroidlatlon="16.437141442306878,48.25314163680983"/>
  <polygon id="67332167" class="tile" points="-91.8737256138,1975.73346582 -63.7287531981,1987.42916403 -63.7082607212,2015.30171844 -92.0001746401,2015.21039612 -91.8737256138,1975.73346582 " moovel_rot="75.7" moovel_centroid="-78.6399686414,1998.26184451" moovel_centroidlatlon="16.422349303305648,48.13135760181304"/>
  <polygon id="32046360" class="tile" points="-143.538662217,1995.92319447 -119.956988151,1996.38791621 -119.255408936,1975.73346582 -104.979005084,1976.29606868 -105.586654006,1999.07833314 -105.781612174,2023.59435703 -101.164145569,2023.51251405 -101.524944507,2037.51423399 -105.255908037,2036.89657699 -106.577892463,2087.20957821 -98.0979379868,2088.97223965 -93.0001746401,2124.70237541 -138.374659451,2144.27098594 -143.685944181,2140.88677999 -143.538662217,1995.92319447 " moovel_rot="80.6" moovel_centroid="-122.603269879,2065.73152782" moovel_centroidlatlon="16.41482543813382,48.27012889121933"/>
  <polygon id="165968137" class="tile" points="-168.316919219,2042.13008038 -168.366553234,2047.69246744 -148.767111242,2047.77473885 -148.576106319,2043.79679084 -144.685944181,2043.83846519 -145.238285742,1975.73346582 -158.617151117,1976.36645927 -159.161959065,2002.11162265 -168.354336268,2006.33313058 -168.316919219,2042.13008038 " moovel_rot="78.3" moovel_centroid="-155.393654521,2015.85129705" moovel_centroidlatlon="16.49551719435034,48.21720060012357"/>
  <polygon id="165885369" class="tile" points="-169.561629415,2022.61717908 -186.17701666,2022.69065016 -186.034279702,1994.88153973 -186.355273487,1976.70120907 -169.368153466,1975.73346582 -169.366553234,1983.0322884 -169.561629415,2022.61717908 " moovel_rot="-2.4" moovel_centroid="-177.768770289,1999.35323705" moovel_centroidlatlon="16.28185215441453,48.19300413958874"/>
  <polygon id="193191819" class="tile" points="-202.895573531,1975.78242396 -202.882012487,1991.53518153 -190.688499626,1991.49971869 -187.355273487,1991.48621591 -187.361687885,1985.10985459 -187.368818043,1975.73346582 -202.895573531,1975.78242396 " moovel_rot="65.6" moovel_centroid="-195.125512134,1983.6350535" moovel_centroidlatlon="16.426511310562148,48.24556439781469"/>
  <polygon id="31255508" class="tile" points="-259.126851417,2023.2023337 -244.967941377,1981.35629562 -242.587120048,1975.73346582 -220.698127194,1979.55502972 -204.32002544,1982.3851134 -203.897731603,1990.39096004 -203.895573531,2045.34159297 -246.188159088,2032.15774838 -245.06030702,2029.46965162 -259.126851417,2023.2023337 " moovel_rot="39.7" moovel_centroid="-227.199506631,2009.39537058" moovel_centroidlatlon="16.42874057254452,48.16297432775201"/>
  <polygon id="208974228" class="tile" points="-260.126851417,1976.24383111 -274.057490545,1975.73346582 -273.95175102,1978.19151608 -273.295443927,2006.18136181 -278.070060853,2007.18380267 -273.198085985,2043.8121252 -260.190681841,2043.82061629 -260.141483403,1992.45623096 -260.126851417,1976.24383111 " moovel_rot="-38.4" moovel_centroid="-267.534836976,2010.41028355" moovel_centroidlatlon="16.425957980138413,48.26484383842004"/>
  <polygon id="285034134" class="tile" points="-279.070060853,2015.88400151 -282.415180591,1975.73346582 -293.986402106,1976.40806169 -294.023851383,2016.68539892 -279.070060853,2015.88400151 " moovel_rot="-70.4" moovel_centroid="-287.337065139,1997.03170677" moovel_centroidlatlon="16.363049720223092,48.232997456392056"/>
  <polygon id="121861586" class="tile" points="-295.023851383,2001.7913406 -295.024979349,1987.9618181 -295.067654558,1979.9354815 -316.639091424,1980.79919195 -316.971836094,1975.73346582 -327.333289159,1976.14163641 -326.482767542,1998.52686344 -328.01959343,1998.61594801 -327.312232865,2012.30071898 -326.259952477,2014.80529851 -319.456181119,2015.15095363 -318.714431616,2004.93914263 -317.122156331,2004.97797585 -316.845885858,2000.21631232 -295.023851383,2001.7913406 " moovel_rot="-83.2" moovel_centroid="-313.288364392,1992.52328909" moovel_centroidlatlon="16.259847062513483,48.13286793279978"/>
  <polygon id="28801339" class="tile" points="-333.015144147,1978.16548774 -329.07068068,1975.73346582 -329.01959343,2078.90713236 -332.987449633,2081.60741366 -333.015144147,1978.16548774 " moovel_rot="43.1" moovel_centroid="-331.02400494,2028.65501343" moovel_centroidlatlon="16.420697037058304,48.21174537795085"/>
  <polygon id="388190303" class="tile" points="-354.213653435,2003.59770069 -354.207157929,1980.77768241 -353.664643394,1977.84127034 -353.069443309,1977.16615942 -352.350436494,1976.35668172 -350.195382662,1975.73346582 -334.015144147,1976.53425313 -334.047839784,2003.62891349 -342.496958842,2003.58846446 -352.981379976,2003.59333666 -354.213653435,2003.59770069 " moovel_rot="-64.1" moovel_centroid="-344.100820012,1989.92547842" moovel_centroidlatlon="16.38372310341078,48.26533693566225"/>
  <polygon id="173894822" class="tile" points="-371.245080662,1998.43158825 -355.213653435,1997.26581348 -355.521763205,1979.41765183 -371.073885807,1975.73346582 -371.241189925,1983.36579444 -371.245080662,1998.43158825 " moovel_rot="-27.7" moovel_centroid="-363.610287922,1987.73251475" moovel_centroidlatlon="16.271275553889758,48.21216940671864"/>
  <polygon id="31671369" class="tile" points="-385.192661772,2024.97617656 -379.039552512,2024.83006745 -372.280027524,2024.66433197 -372.245080662,1975.73346582 -385.951789836,1975.89819696 -385.192661772,2024.97617656 " moovel_rot="71.9" moovel_centroid="-378.922836353,2000.07544419" moovel_centroidlatlon="16.408417273054287,48.27491925497871"/>
  <polygon id="133174001" class="tile" points="-386.951789836,1975.73346582 -386.996817702,2149.96475526 -412.993868906,2150.8582768 -413.71239832,2092.85461765 -414.439136026,2034.38070582 -419.295148058,2034.02571642 -420.300935499,2018.50203396 -423.73019213,2018.75178509 -423.777658272,2017.5632822 -425.401233181,1978.89322422 -386.951789836,1975.73346582 " moovel_rot="1.0" moovel_centroid="-402.2187554,2057.06414916" moovel_centroidlatlon="16.510781392138213,48.20980889485106"/>
  <polygon id="298301574" class="tile" points="-450.362744409,1982.84615412 -446.987807867,1985.9095034 -450.442061742,1989.7081734 -442.616315012,1996.79884637 -444.390917068,1998.74477149 -451.956359146,2009.7459763 -444.681855033,2016.2549873 -429.823568941,1994.33548352 -428.809095027,1995.01712068 -426.401233181,1989.20892709 -441.085867663,1975.73346582 -444.196304763,1979.1329284 -447.313177454,1976.29652738 -451.960979139,1981.38662522 -450.362744409,1982.84615412 " moovel_rot="27.0" moovel_centroid="-440.566590917,1993.77712747" moovel_centroidlatlon="16.353264217674397,48.146768852469826"/>
  <polygon id="202626420" class="tile" points="-458.488526419,2011.85785354 -464.041403338,2011.67630526 -463.10285485,2003.43990304 -463.993240238,1975.73346582 -460.165555978,1975.84148923 -458.10770266,1991.82904976 -452.960979139,2004.248585 -458.488526419,2011.85785354 " moovel_rot="-22.4" moovel_centroid="-460.011712085,1996.37769071" moovel_centroidlatlon="16.23932990405244,48.199362144171445"/>
  <polygon id="74864586" class="tile" points="-470.75526444,2001.27703745 -469.841407532,2008.10690204 -468.128341501,2009.51978199 -465.041403338,2032.97925003 -470.074946208,2035.26938821 -484.730294348,2035.80142462 -489.299182438,2037.95387402 -491.260493185,2021.80018966 -488.163693822,2020.23930654 -487.442933077,2019.15693736 -487.60975784,2017.66879318 -487.85387877,2015.22320133 -488.227187174,2011.54163243 -484.580749369,2012.2611503 -480.606533713,2013.05324832 -480.396833376,2011.47506726 -475.991837824,2012.19321282 -476.744214187,2004.59473566 -469.000977147,1975.73346582 -465.09269119,1978.11686995 -470.75526444,2001.27703745 " moovel_rot="28.4" moovel_centroid="-476.377231505,2017.02222984" moovel_centroidlatlon="16.338937463397304,48.1875099070479"/>
  <polygon id="48403109" class="tile" points="-500.190026267,1975.92642546 -492.327041232,1975.73346582 -492.295176567,2042.67069993 -492.260493185,2098.06750361 -500.290260849,2098.12530675 -500.190026267,1975.92642546 " moovel_rot="78.8" moovel_centroid="-496.267376267,2037.17656554" moovel_centroidlatlon="16.471941460897618,48.21830756437096"/>
  <polygon id="78579483" class="tile" points="-501.290260849,2079.35573033 -501.468325561,1975.73346582 -529.825663768,1977.18371602 -529.906064765,2079.21009126 -501.290260849,2079.35573033 " moovel_rot="-17.3" moovel_centroid="-515.585561764,2027.94742112" moovel_centroidlatlon="16.31046852948453,48.128915051461334"/>
  <polygon id="105624278" class="tile" points="-542.980282657,2000.87085581 -530.908668817,2003.11239399 -530.906064765,1975.73346582 -535.005853522,1976.04541713 -538.579758064,1985.33659729 -542.980282657,2000.87085581 " moovel_rot="-77.9" moovel_centroid="-535.365963473,1991.03158247" moovel_centroidlatlon="16.32489074324006,48.172761014418484"/>
  <polygon id="31251660" class="tile" points="-29.5465756679,2150.8582768 -45.907981057,2154.51880879 -50.5707305106,2176.56554485 -46.6391301126,2177.7785976 -47.8669822231,2184.23063903 -32.8511704864,2187.832842 -41.4312912381,2223.58628909 -46.4516103978,2223.65207433 -48.6630789611,2232.85467283 -50.6171378405,2247.25382243 -29.9471653401,2246.78607713 0.0,2234.76206783 -29.5465756679,2150.8582768 " moovel_rot="-10.6" moovel_centroid="-28.492122806023218,2205.48405408" moovel_centroidlatlon="16.46492163679721,48.151862208608954"/>
  <polygon id="226095079" class="tile" points="-67.9949178635,2150.8582768 -68.0009386522,2181.62751957 -60.2445381106,2182.38097231 -52.6171378405,2161.76602942 -67.9949178635,2150.8582768 " moovel_rot="10.9" moovel_centroid="-62.2011680987,2167.47497159" moovel_centroidlatlon="16.379527365288226,48.16735920428152"/>
  <polygon id="34063096" class="tile" points="-79.55062,2153.0231163 -88.4969886842,2150.8582768 -91.3408604429,2154.07716882 -92.4019231671,2155.34353741 -99.4565618307,2164.40523582 -102.492623045,2168.54012186 -103.751227725,2172.28548614 -105.004611851,2177.10138684 -105.040126213,2180.74457895 -102.814387017,2185.97396293 -99.6787906903,2191.40136332 -95.5197887647,2197.87152734 -86.0716274497,2212.43420804 -78.0186124376,2222.93406022 -76.5141667874,2226.6426289 -76.7450982233,2229.87434561 -74.1719620365,2230.86224193 -71.7743190578,2231.685684 -69.0009386522,2230.85172945 -73.8811639463,2207.43175639 -74.5469063493,2201.2284742 -74.2690727566,2194.89705677 -73.2713467271,2186.9110566 -72.8853229224,2181.5792111 -72.625270798,2177.74300836 -71.7800694681,2175.14781944 -70.7911989958,2174.07260181 -69.0230166762,2166.02458769 -71.8271878255,2165.33017755 -71.981638169,2157.01803428 -73.269137681,2154.63169542 -79.55062,2153.0231163 " moovel_rot="80.6" moovel_centroid="-84.9178159861,2184.37421976" moovel_centroidlatlon="16.26745960809445,48.24546044652957"/>
  <polygon id="341306284" class="tile" points="-106.040126213,2151.2391334 -106.588202952,2185.90651802 -120.565748182,2186.27592643 -120.613536198,2150.8582768 -106.040126213,2151.2391334 " moovel_rot="-6.3" moovel_centroid="-113.476487281,2168.4469674" moovel_centroidlatlon="16.455798992925082,48.273291294926025"/>
  <polygon id="351535120" class="tile" points="-125.079281615,2150.8582768 -140.07639274,2152.26220038 -140.10609792,2204.74377065 -138.753709639,2204.592214 -121.613536198,2202.61762547 -125.079281615,2150.8582768 " moovel_rot="76.3" moovel_centroid="-131.698354753,2178.532204" moovel_centroidlatlon="16.373358714625045,48.167603563071125"/>
  <polygon id="29082049" class="tile" points="-185.56788555,2226.29049325 -195.595528639,2226.31727787 -195.585984829,2244.60559147 -200.066212345,2244.61812435 -200.056481596,2284.32231422 -204.831938663,2284.33138905 -204.824827283,2295.31089573 -141.10609792,2295.14487484 -141.154467753,2150.8582768 -169.571356869,2150.92563283 -176.054756876,2150.94313597 -185.587578554,2150.96960724 -185.56788555,2226.29049325 " moovel_rot="65.3" moovel_centroid="-167.236265496,2228.50905215" moovel_centroidlatlon="16.427278590883553,48.18484607065073"/>
  <polygon id="27007763" class="tile" points="-247.255530692,2246.23274732 -240.556107438,2192.86654868 -247.252641717,2177.4112843 -240.373517072,2158.91641433 -219.756996303,2150.8582768 -205.831938663,2207.74418757 -215.729107096,2249.35102178 -247.255530692,2246.23274732 " moovel_rot="17.6" moovel_centroid="-227.371454862,2203.34281254" moovel_centroidlatlon="16.398837367574124,48.14503359440403"/>
  <polygon id="172070481" class="tile" points="-248.255530692,2150.8582768 -248.26652697,2170.51299953 -258.741372422,2170.60866362 -262.471658853,2171.09557093 -262.94938815,2152.36548212 -248.255530692,2150.8582768 " moovel_rot="19.4" moovel_centroid="-255.421546722,2161.0661071" moovel_centroidlatlon="16.375967361894254,48.23319450108792"/>
  <polygon id="175599198" class="tile" points="-267.365467162,2150.8582768 -263.961505266,2153.03058685 -263.94938815,2167.16381137 -266.887885429,2165.37308784 -268.779892134,2164.22500667 -271.073286099,2162.83081897 -272.781349,2161.79435556 -267.365467162,2150.8582768 " moovel_rot="46.2" moovel_centroid="-267.218312889,2159.12921773" moovel_centroidlatlon="16.352769252016458,48.25155929690258"/>
  <polygon id="294946057" class="tile" points="-275.937437397,2206.68755632 -291.678015741,2207.66933076 -291.764480578,2186.20227335 -301.974940142,2186.56578414 -301.972698748,2182.06712097 -306.271763154,2182.06327412 -306.245243664,2153.04200269 -290.94816585,2153.08661129 -290.948324812,2150.8582768 -278.357368318,2150.89675706 -274.581770605,2156.81415372 -273.781349,2170.8085626 -277.986701868,2171.03634697 -275.937437397,2206.68755632 " moovel_rot="-22.0" moovel_centroid="-289.098281589,2175.31356934" moovel_centroidlatlon="16.353480658583187,48.14822316003427"/>
  <polygon id="374735198" class="tile" points="-307.271763154,2150.8582768 -317.181741219,2154.0555244 -316.482095191,2168.53693277 -307.275187336,2166.98729419 -307.271763154,2150.8582768 " moovel_rot="20.8" moovel_centroid="-311.978700457,2159.99231831" moovel_centroidlatlon="16.44654254128661,48.26881335737785"/>
  <polygon id="264448374" class="tile" points="-332.430610765,2237.49307904 -332.349389018,2150.8582768 -319.25034941,2152.40201004 -322.987274431,2187.4948767 -318.181741219,2187.29455193 -318.19862954,2235.35432566 -319.016851647,2236.84840031 -321.333651471,2237.80464712 -332.430610765,2237.49307904 " moovel_rot="62.3" moovel_centroid="-325.821834789,2196.56059262" moovel_centroidlatlon="16.346506503620038,48.14469042101764"/>
  <polygon id="123154356" class="tile" points="-346.265346529,2180.04442693 -333.465455184,2180.05462857 -333.430610765,2176.37914554 -333.868815618,2167.82648591 -333.91764176,2154.37848988 -333.923763439,2150.8582768 -343.695929337,2151.00668452 -343.611882686,2152.47289693 -340.585483075,2152.37607366 -341.086883146,2167.87029201 -346.262506848,2168.06805632 -346.265346529,2180.04442693 " moovel_rot="-56.5" moovel_centroid="-338.857678725,2167.48480283" moovel_centroidlatlon="16.358097691527355,48.18948703980043"/>
  <polygon id="232311058" class="tile" points="-353.324961942,2150.86733707 -347.27728299,2150.8582768 -347.265346529,2169.42232614 -358.379480128,2169.42627847 -358.378784544,2165.31241803 -363.626665276,2165.30959159 -364.662563988,2165.53914201 -364.593028348,2155.11061572 -358.325014333,2155.11312612 -353.325032264,2155.1117128 -353.324961942,2150.86733707 " moovel_rot="-5.6" moovel_centroid="-354.794048593,2160.78558291" moovel_centroidlatlon="16.378388999493016,48.1757233179426"/>
  <polygon id="241733367" class="tile" points="-389.547821443,2150.90295012 -371.557266017,2150.8582768 -365.662800565,2156.9846047 -365.662563988,2158.82289495 -365.666627377,2195.21613304 -365.666292462,2197.85101339 -389.548259944,2197.91358192 -389.5508365,2194.83322222 -389.549682918,2153.33746418 -389.547821443,2150.90295012 " moovel_rot="60.7" moovel_centroid="-377.770898099,2174.72915823" moovel_centroidlatlon="16.486993698851354,48.23714555544162"/>
  <polygon id="375270727" class="tile" points="-390.575896274,2189.02679613 -390.5508365,2150.87598122 -399.832236374,2150.8582768 -399.857285473,2189.00909001 -390.575896274,2189.02679613 " moovel_rot="-81.0" moovel_centroid="-395.204063618,2169.94253239" moovel_centroidlatlon="16.442381550000004,48.27070005"/>
  <polygon id="129343188" class="tile" points="-400.857285473,2150.8582768 -412.118887323,2151.64487348 -408.793905942,2271.25253219 -406.226095022,2295.65922266 -401.252604796,2295.71939058 -400.872544009,2239.48514436 -401.618842249,2183.18634446 -400.857285473,2150.8582768 " moovel_rot="36.4" moovel_centroid="-405.677863081,2217.18439013" moovel_centroidlatlon="16.397683776587026,48.24365652113864"/>
  <polygon id="36908889" class="tile" points="-414.298843551,2150.8582768 -473.346693972,2151.19612742 -473.474701654,2267.33322872 -413.118887323,2265.48414492 -413.836784496,2195.60847515 -414.298843551,2150.8582768 " moovel_rot="51.4" moovel_centroid="-443.622592892,2208.93080381" moovel_centroidlatlon="16.421136303389797,48.264245512695055"/>
  <polygon id="164964270" class="tile" points="-474.474701654,2150.8582768 -489.698673828,2150.88600749 -489.712388962,2206.23500637 -474.4906395,2206.21357436 -474.474701654,2150.8582768 " moovel_rot="71.0" moovel_centroid="-482.093956533,2178.54754303" moovel_centroidlatlon="16.47316931497041,48.265958400774565"/>
  <polygon id="32015816" class="tile" points="-490.716874669,2164.10203581 -490.712388962,2150.86923727 -495.849880378,2150.8582768 -495.847305317,2164.08398989 -490.716874669,2164.10203581 " moovel_rot="-44.9" moovel_centroid="-493.281382435,2157.47686951" moovel_centroidlatlon="16.327250413568322,48.22745983735357"/>
  <polygon id="308175400" class="tile" points="-496.850731999,2151.23348516 -496.849880378,2174.90638365 -498.805976865,2176.98926139 -500.194297231,2176.99200735 -506.232921515,2174.49571182 -505.625601607,2166.86040183 -504.6757563,2150.8582768 -496.850731999,2151.23348516 " moovel_rot="-9.4" moovel_centroid="-501.119457535,2163.91038812" moovel_centroidlatlon="16.30618075395451,48.12643224964144"/>
  <polygon id="155009479" class="tile" points="-521.35111808,2154.55745877 -517.469902933,2154.80540754 -517.111394047,2150.8937389 -513.024998588,2150.8582768 -507.232921515,2159.68854906 -508.733815782,2165.9169849 -509.245444711,2171.25604063 -515.82814083,2171.43463642 -516.581091533,2167.0218342 -521.348247727,2167.95988679 -521.35111808,2154.55745877 " moovel_rot="67.3" moovel_centroid="-514.553823616,2161.40386995" moovel_centroidlatlon="16.26201479069329,48.19464028073343"/>
  <polygon id="354474864" class="tile" points="-525.382066642,2150.8582768 -524.038074784,2177.18112469 -522.378974671,2180.59044729 -522.35111808,2191.68426256 -539.290091437,2191.98002004 -539.238675141,2150.92636931 -525.382066642,2150.8582768 " moovel_rot="-20.0" moovel_centroid="-531.572076001,2172.18514507" moovel_centroidlatlon="16.32218667874212,48.17459440861778"/>
  <polygon id="310382466" class="tile" points="-540.290091437,2243.95406038 -540.422741157,2150.8582768 -548.339230373,2151.00666627 -553.586639519,2151.10312487 -553.745340819,2244.00611791 -548.335788968,2243.98850728 -540.290091437,2243.95406038 " moovel_rot="-76.9" moovel_centroid="-547.00889438,2197.65115319" moovel_centroidlatlon="16.443152001679927,48.27334098558446"/>
  <polygon id="27898141" class="tile" points="-558.971700138,2245.77754551 -554.745340819,2245.78750775 -554.801520097,2151.30029577 -584.391425632,2150.8582768 -584.233898262,2158.65954665 -570.162248099,2158.61018919 -570.014547569,2189.15847622 -567.060262442,2189.35759831 -567.089375407,2202.50980168 -580.208834534,2202.44378403 -586.847860377,2202.63779376 -586.744443316,2207.34362882 -592.3234394,2207.36609079 -592.333512401,2245.92815428 -586.554532936,2245.87207918 -586.469201014,2249.93921072 -559.158716544,2251.01167725 -558.971700138,2245.77754551 " moovel_rot="-53.0" moovel_centroid="-570.17493154,2208.67446423" moovel_centroidlatlon="16.390109289230942,48.23647534391169"/>
  <polygon id="277445757" class="tile" points="-0.813309320435,2299.41767316 -0.0310238968581,2301.21280178 -15.069925331,2307.56540414 0.0,2344.58700335 -5.54959287085,2351.21469814 -35.6837743538,2323.55920609 -16.2510130914,2303.39695508 -10.3429333767,2300.45273293 -11.5162166772,2298.19381523 -6.22830164954,2295.71939058 -5.57213985957,2298.19253038 -2.43139348794,2296.77209597 -0.813309320435,2299.41767316 " moovel_rot="49.0" moovel_centroid="-15.638397916647628,2324.91216143" moovel_centroidlatlon="16.287481792778117,48.19208666783311"/>
  <polygon id="356695537" class="tile" points="-37.6837743538,2295.71939058 -37.6938330041,2327.90224645 -44.4706603481,2329.92175141 -53.4693485562,2298.06680948 -37.6837743538,2295.71939058 " moovel_rot="86.6" moovel_centroid="-43.6625312337,2310.82538099" moovel_centroidlatlon="16.45601047636904,48.209302960629415"/>
  <polygon id="242985580" class="tile" points="-54.4693485562,2343.60552373 -85.9078941481,2343.38237567 -85.4010031538,2295.71939058 -54.4896275159,2296.37404446 -54.4693485562,2343.60552373 " moovel_rot="-46.2" moovel_centroid="-70.0913409342,2319.83657107" moovel_centroidlatlon="16.459998236712284,48.19398901484399"/>
  <polygon id="275873097" class="tile" points="-109.796105486,2295.71939058 -86.9078941481,2295.79002999 -86.9669122971,2345.61454709 -112.234707243,2346.20153223 -113.131047546,2309.31938119 -109.796105486,2295.71939058 " moovel_rot="-15.5" moovel_centroid="-99.6857497319,2321.02129269" moovel_centroidlatlon="16.449477799118345,48.234005448311585"/>
  <polygon id="405071872" class="tile" points="-148.074677721,2377.54831284 -162.528303852,2381.89741293 -178.646562007,2296.22191707 -151.676590553,2295.71939058 -136.617404033,2374.72458627 -139.895558078,2377.01865086 -114.131047546,2450.68288723 -175.335602626,2474.64109531 -178.774319869,2460.30140078 -147.808175623,2449.60435739 -159.367381099,2413.66639976 -139.081343462,2407.02582606 -148.074677721,2377.54831284 " moovel_rot="-5.0" moovel_centroid="-149.803153015,2386.17943236" moovel_centroidlatlon="16.45654171613341,48.26708873797337"/>
  <polygon id="136915712" class="tile" points="-198.401893574,2295.76675521 -198.362069667,2424.92637056 -190.88024828,2424.90092017 -183.521422931,2424.8786149 -183.529051797,2392.76847363 -182.18260732,2392.7665724 -182.183325851,2395.8202242 -179.816259439,2395.81390618 -179.823111755,2382.37070951 -183.586470739,2382.38345801 -183.600835133,2331.14058838 -182.08651008,2331.13548204 -182.084862628,2334.32152573 -179.774319869,2334.31232301 -179.787661451,2320.592409 -183.735525955,2320.60986247 -183.741087162,2308.06646731 -183.743578763,2304.7197763 -183.740648931,2295.71939058 -198.401893574,2295.76675521 " moovel_rot="42.0" moovel_centroid="-190.551937073,2360.3088919" moovel_centroidlatlon="16.411466954532337,48.22050875968872"/>
  <polygon id="250706113" class="tile" points="-202.614541376,2295.71939058 -231.679503468,2296.72059074 -231.251010285,2300.50358856 -228.27206708,2327.05512358 -231.715296455,2332.4328201 -231.482167735,2335.17140096 -218.984423278,2334.53870772 -200.169567793,2333.01481147 -199.401893574,2320.07138211 -200.563266332,2306.93614583 -202.614541376,2295.71939058 " moovel_rot="73.8" moovel_centroid="-215.322786135,2315.27491522" moovel_centroidlatlon="16.37269084124587,48.138878820867504"/>
  <polygon id="246236950" class="tile" points="-232.737780447,2295.79246061 -247.397753101,2295.71939058 -247.18741546,2306.48211584 -250.432936023,2306.62020924 -250.429740988,2314.98042712 -247.028804002,2314.79405633 -246.831074643,2324.84818411 -246.745535552,2329.17162829 -245.953533313,2329.15450578 -232.715296455,2328.93184708 -232.717408922,2323.70165929 -232.737780447,2295.79246061 " moovel_rot="-8.2" moovel_centroid="-240.397505765,2312.19852418" moovel_centroidlatlon="16.337707574328476,48.211442572123126"/>
  <polygon id="105074775" class="tile" points="-251.432936023,2296.47879227 -252.223648477,2314.37317175 -254.259319179,2317.73349207 -259.569705319,2315.65178488 -265.982547249,2318.14600233 -268.062344089,2315.12668343 -268.082494493,2295.71939058 -251.432936023,2296.47879227 " moovel_rot="-6.7" moovel_centroid="-260.065161371,2306.31134324" moovel_centroidlatlon="16.361880783018474,48.17369832045938"/>
  <polygon id="352598074" class="tile" points="-269.096585352,2295.71939058 -269.094499179,2316.16348389 -269.089248933,2319.44167094 -269.082494493,2347.14016211 -273.801013321,2347.0310188 -283.433987902,2346.79902045 -283.14163604,2295.72717731 -269.096585352,2295.71939058 " moovel_rot="-21.8" moovel_centroid="-276.181212052,2321.4404845" moovel_centroidlatlon="16.387296173248725,48.27656772998221"/>
  <polygon id="227834109" class="tile" points="-284.478889169,2295.71939058 -284.433987902,2356.29546929 -327.273853597,2355.93187687 -327.24636234,2341.8681392 -318.703578709,2341.92140232 -318.608086199,2330.8442434 -323.451636732,2330.81654282 -323.260300178,2308.94712916 -305.580288739,2309.0523476 -305.512403779,2301.3321013 -305.259024795,2295.94074112 -284.478889169,2295.71939058 " moovel_rot="32.7" moovel_centroid="-302.84793823,2328.95889573" moovel_centroidlatlon="16.380512887967928,48.24629782176956"/>
  <polygon id="348060977" class="tile" points="-328.44051304,2295.75430755 -328.273853597,2305.63498608 -328.2820102,2308.61405605 -335.105728373,2308.46417067 -335.09896062,2302.90973809 -335.089524835,2295.71939058 -328.44051304,2295.75430755 " moovel_rot="-16.7" moovel_centroid="-331.71311506,2302.16952065" moovel_centroidlatlon="16.385818030135866,48.17112374445149"/>
  <polygon id="345762853" class="tile" points="-336.105728373,2295.71939058 -350.840666369,2297.84904636 -365.755340441,2299.99747614 -352.275009929,2387.71199882 -336.119731573,2385.53066644 -336.105728373,2295.71939058 " moovel_rot="-10.1" moovel_centroid="-347.890712263,2337.87731105" moovel_centroidlatlon="16.478106620675945,48.25341424585025"/>
  <polygon id="371475227" class="tile" points="-380.843913738,2310.76957114 -380.859175868,2295.71939058 -366.755340441,2296.30327269 -367.218770659,2307.91435219 -380.843913738,2310.76957114 " moovel_rot="58.4" moovel_centroid="-374.220459716,2302.65832821" moovel_centroidlatlon="16.370218904029198,48.24057698634382"/>
  <polygon id="166765299" class="tile" points="-383.243327554,2335.80841309 -410.009212931,2335.98912733 -410.012918574,2300.10665409 -406.289004798,2295.71939058 -382.364040071,2296.87438296 -381.859175868,2309.78852959 -383.124720288,2316.61220579 -385.626553543,2321.0930455 -386.347533413,2324.72228269 -385.595147162,2326.04793339 -382.438347152,2325.76672197 -383.243327554,2335.80841309 " moovel_rot="-22.9" moovel_centroid="-396.512529274,2315.94195158" moovel_centroidlatlon="16.47071704835647,48.158829999569384"/>
  <polygon id="26252689" class="tile" points="-428.51775251,2295.71939058 -434.863322412,2320.50197386 -411.012918574,2330.37799502 -411.028571387,2300.86266203 -428.51775251,2295.71939058 " moovel_rot="40.6" moovel_centroid="-421.292867926,2312.64496969" moovel_centroidlatlon="16.255164081035925,48.20201531764269"/>
  <polygon id="31615507" class="tile" points="-461.334607223,2313.91859443 -458.999056701,2320.63526544 -459.601316225,2384.21445448 -459.784843953,2402.56151652 -460.902257901,2514.13546429 -460.845585991,2532.38388974 -461.530502362,2590.24632608 -455.742775368,2590.91744479 -455.124039309,2584.87170714 -452.84589078,2585.00123814 -447.262381501,2585.15130294 -437.808146559,2463.91605265 -436.935788859,2429.91016068 -435.863322412,2404.15038541 -436.471102271,2367.08914437 -442.338699254,2295.71939058 -461.741180837,2295.93908149 -461.334607223,2313.91859443 " moovel_rot="40.2" moovel_centroid="-449.865312876,2434.9073536" moovel_centroidlatlon="16.40299975665481,48.22769389144223"/>
  <polygon id="185100096" class="tile" points="-475.612574595,2295.72679512 -462.74591493,2295.71939058 -462.741180837,2309.75270584 -475.608419551,2309.7667644 -475.612574595,2295.72679512 " moovel_rot="85.0" moovel_centroid="-469.177530719,2302.74146724" moovel_centroidlatlon="16.36073272646166,48.155446955025184"/>
  <polygon id="294141523" class="tile" points="-482.19170934,2304.71729816 -482.02113824,2320.17830682 -489.236639878,2320.10169493 -490.54402845,2318.9560775 -493.514842799,2297.7016683 -481.060794964,2296.2400193 -476.612574595,2295.71939058 -476.614487432,2299.84471438 -476.624130752,2304.52877842 -482.19170934,2304.71729816 " moovel_rot="-76.3" moovel_centroid="-485.702180721,2306.6297496" moovel_centroidlatlon="16.34787702938295,48.188883220789194"/>
  <polygon id="313003697" class="tile" points="-497.903229916,2335.62332456 -501.989188941,2333.33770831 -500.162429699,2330.23893903 -494.514842799,2325.38516911 -515.506894501,2302.91096132 -518.854280513,2306.05630039 -530.042248149,2295.71939058 -538.681507665,2303.8103442 -511.539867729,2332.62845099 -520.789714355,2346.07098646 -533.471240724,2369.95019999 -538.635734386,2383.40421806 -535.411816945,2395.00331495 -531.092183504,2397.39573807 -516.889314043,2370.407237 -514.380698564,2366.07257278 -497.903229916,2335.62332456 " moovel_rot="-33.5" moovel_centroid="-518.539205639,2342.4957958" moovel_centroidlatlon="16.317358545760122,48.136942623541906"/>
  <polygon id="105078373" class="tile" points="-549.727735388,2306.25048479 -549.642198158,2295.73873567 -539.711903015,2295.71939058 -539.681507665,2324.05949126 -550.021046491,2323.70344801 -549.727735388,2306.25048479 " moovel_rot="-7.4" moovel_centroid="-544.739603697,2309.90444456" moovel_centroidlatlon="16.366034894097773,48.1743868467579"/>
  <polygon id="64770639" class="tile" points="-568.552556909,2295.71939058 -563.823122535,2296.94831315 -557.877709931,2299.26144649 -551.021046491,2303.25453053 -551.226108404,2322.5385778 -560.240009349,2322.7637572 -568.518670112,2323.65196043 -568.552556909,2295.71939058 " moovel_rot="-4.8" moovel_centroid="-560.347482959,2310.7595093" moovel_centroidlatlon="16.361894742575064,48.17666529573052"/>
  <polygon id="27445843" class="tile" points="-569.552556909,2384.038307 -583.075978815,2362.45420623 -582.516056993,2320.17638899 -569.615259537,2295.71939058 -569.552556909,2384.038307 " moovel_rot="-60.7" moovel_centroid="-575.413443027,2340.84127747" moovel_centroidlatlon="16.295963246650267,48.26656042435623"/>
  <polygon id="27064235" class="tile" points="-0.0337105996907,2591.17355267 -16.6951668723,2590.91744479 -16.7110658406,2632.21410513 -2.9049247982,2632.23045473 0.0,2625.01490431 -0.0337105996907,2591.17355267 " moovel_rot="-4.8" moovel_centroid="-8.481122643350746,2611.36400681" moovel_centroidlatlon="16.2959658354644,48.201018448555644"/>
  <polygon id="27530528" class="tile" points="-18.7110658406,2591.4972985 -22.7977580437,2590.91744479 -24.4993068225,2604.78946539 -18.7130976961,2606.90318204 -18.7110658406,2591.4972985 " moovel_rot="48.1" moovel_centroid="-21.1760226544,2598.97006287" moovel_centroidlatlon="16.29931172126764,48.23192183230454"/>
  <polygon id="356757358" class="tile" points="-25.4993068225,2623.48602618 -25.5215172918,2592.02428909 -39.4522300257,2590.91744479 -41.0394458438,2622.61788478 -25.4993068225,2623.48602618 " moovel_rot="-75.2" moovel_centroid="-32.898661965,2607.54642326" moovel_centroidlatlon="16.401521927878353,48.153120621676635"/>
  <polygon id="130750437" class="tile" points="-42.0815610387,2731.30598456 -52.2796431922,2740.30647364 -72.1120178792,2717.90913083 -125.770131683,2656.74644719 -120.140707313,2651.82049249 -50.3078425444,2590.91744479 -42.0394458438,2601.66151763 -105.950790986,2657.23272605 -42.0815610387,2731.30598456 " moovel_rot="23.0" moovel_centroid="-81.667111522,2664.27081581" moovel_centroidlatlon="16.307797803133113,48.13238536803476"/>
  <polygon id="96087979" class="tile" points="-150.521726001,2590.91744479 -152.316549758,2594.83785987 -153.545729596,2597.33446322 -154.942578532,2597.85063997 -157.565427609,2597.83034266 -157.64510651,2657.22188154 -152.948123538,2657.27363069 -147.761439828,2657.14365089 -143.145141209,2656.65619324 -141.357943907,2656.46984836 -136.300932426,2655.94795529 -131.48431319,2655.44484259 -126.770131683,2655.30839812 -126.814026432,2595.84821775 -126.837349647,2594.47209034 -128.461861062,2594.26202982 -141.457858115,2592.56484652 -143.056088925,2593.26357948 -147.737676787,2593.30736919 -148.301936221,2591.98184222 -149.072121427,2591.55656118 -150.521726001,2590.91744479 " moovel_rot="52.8" moovel_centroid="-142.204599375,2625.17941045" moovel_centroidlatlon="16.407116907406994,48.28132359127395"/>
  <polygon id="152238214" class="tile" points="-160.394848092,2591.02250132 -168.255053578,2590.91744479 -167.910544692,2595.12543952 -224.220165114,2595.45425854 -224.23403226,2664.42245974 -166.124561647,2663.77383545 -160.029687845,2659.91163999 -158.64510651,2655.41098802 -159.422190238,2647.00983448 -160.394848092,2591.02250132 " moovel_rot="72.9" moovel_centroid="-191.889985673,2629.40973978" moovel_centroidlatlon="16.358001476353135,48.13620546158882"/>
  <polygon id="172470601" class="tile" points="-225.23403226,2598.78744179 -225.248676599,2614.35144972 -235.978891979,2604.23725283 -233.702250418,2590.91744479 -225.23403226,2598.78744179 " moovel_rot="15.3" moovel_centroid="-230.057093227,2602.36420271" moovel_centroidlatlon="16.355365181819128,48.27543333912456"/>
  <polygon id="226261643" class="tile" points="-246.171314606,2590.91744479 -246.175014085,2595.37626662 -250.556066579,2595.35554979 -250.559270305,2605.25159375 -236.98369467,2605.28552149 -236.978891979,2596.04866522 -243.011539332,2596.02401016 -243.008290404,2590.91795626 -246.171314606,2590.91744479 " moovel_rot="-28.3" moovel_centroid="-243.952266114,2599.7474658" moovel_centroidlatlon="16.46592717194685,48.21600903355448"/>
  <polygon id="326891814" class="tile" points="-267.613805048,2590.91744479 -267.687672127,2646.26416884 -263.053779069,2646.44205082 -262.895011668,2648.49165976 -251.559270305,2649.06702623 -251.561120685,2595.22270882 -256.093178656,2594.88435881 -256.119633872,2591.10552638 -267.613805048,2590.91744479 " moovel_rot="76.0" moovel_centroid="-259.647148577,2620.11611003" moovel_centroidlatlon="16.502813719268016,48.23848663854705"/>
  <polygon id="136726238" class="tile" points="-268.708051655,2590.91744479 -290.607336246,2591.09437323 -290.842058734,2601.65118517 -290.942887604,2603.1784743 -291.26120236,2613.54708532 -268.687672127,2615.51151866 -268.693201547,2609.70621707 -268.814968949,2601.86017764 -268.708051655,2590.91744479 " moovel_rot="-85.9" moovel_centroid="-279.661817867,2602.84329834" moovel_centroidlatlon="16.331010329506444,48.19042258604901"/>
  <polygon id="298495670" class="tile" points="-292.273125353,2590.92503074 -292.26120236,2617.47966853 -301.544817603,2617.47206784 -301.552110949,2608.01985097 -301.556746048,2590.91744479 -292.273125353,2590.92503074 " moovel_rot="-20.3" moovel_centroid="-296.909734203,2604.19876029" moovel_centroidlatlon="16.354658659598194,48.146740045398865"/>
  <polygon id="180869480" class="tile" points="-302.764025899,2590.91744479 -320.359234377,2591.09942425 -320.392791653,2627.58963081 -302.556746048,2627.48392162 -302.764025899,2590.91744479 " moovel_rot="63.3" moovel_centroid="-311.514939713,2609.31393013" moovel_centroidlatlon="16.3275965309078,48.14001870970455"/>
  <polygon id="33532034" class="tile" points="-372.251707981,2590.91744479 -372.213278035,2667.65467539 -347.688949276,2670.85062267 -350.026336318,2608.27230563 -321.392791653,2603.12209874 -324.078570134,2591.85539918 -340.004488124,2594.04974712 -372.251707981,2590.91744479 " moovel_rot="-14.7" moovel_centroid="-356.773565786,2626.17147999" moovel_centroidlatlon="16.424577809255872,48.27790796149221"/>
  <polygon id="120192466" class="tile" points="-394.041662548,2591.03312114 -394.049573634,2597.11267166 -394.056391752,2614.39928734 -383.3655227,2614.14057899 -373.251707981,2613.90503309 -374.005717596,2590.99508732 -376.618585277,2590.91744479 -383.470958447,2591.00307239 -394.041662548,2591.03312114 " moovel_rot="37.1" moovel_centroid="-383.866895939,2602.64364765" moovel_centroidlatlon="16.358037756181144,48.185297335999664"/>
  <polygon id="401932813" class="tile" points="-395.056391752,2613.73219396 -395.18116394,2623.91042003 -400.614530237,2628.74306364 -418.675355453,2630.58746781 -421.865994755,2633.08049873 -427.396655759,2631.08826995 -425.509474128,2612.99785133 -426.236220851,2607.62626547 -427.368270892,2595.21066785 -398.722766419,2590.91744479 -395.056391752,2613.73219396 " moovel_rot="0.2" moovel_centroid="-411.47216952,2611.7088831" moovel_centroidlatlon="16.367733268522123,48.28520868983641"/>
  <polygon id="139247443" class="tile" points="-428.419117087,2623.26312542 -438.782766174,2622.84662998 -439.835794268,2591.2237724 -428.396655759,2590.91744479 -428.419117087,2623.26312542 " moovel_rot="-47.2" moovel_centroid="-433.842179477,2606.79702515" moovel_centroidlatlon="16.414515852074345,48.25452917541"/>
</svg>