<svg><g transform="translate(0 0)"><polygon id="0" class="bin" points="0.0,0.0 600.0,0.0 600.0,75.4521477138 0.0,75.4521477138 0.0,0.0 " moovel_rot="0" moovel_centroid="300.0,37.72607385692167" moovel_centroidlatlon="0,0" transform="translate(0 0)"></polygon><g transform="translate(1.4887165999999965 -73.9670521) rotate(0)"><polygon id="431899264" class="tile" points="66.7844793244,116.201462573 57.0769538017,79.672386999 27.7175369986,76.4521477138 3.18821082076,80.4028137805 1.0,103.35641313 9.88413406119,120.934929074 43.5942573472,120.926338479 66.7844793244,116.201462573 " moovel_rot="166.9" moovel_centroid="32.40985457144248,99.4661984650411" moovel_centroidlatlon="4.864274771400317,52.33338874282174"></polygon></g><g transform="translate(-65.2846599 -24.525538399999995) rotate(0)"><polygon id="76823254" class="tile" points="177.510354172,88.8235580951 178.052168312,79.6291356562 178.243125421,76.4521477138 67.7844793244,76.5053231479 67.8939171979,85.4372570125 67.92594504,88.2062772605 113.743215082,88.4664040057 177.510354172,88.8235580951 " moovel_rot="44.5" moovel_centroid="123.377895938,82.49083359201076" moovel_centroidlatlon="4.955299677853273,52.35480677831348"></polygon></g><g transform="translate(-113.70644 -73.98091529999999) rotate(0)"><polygon id="376762657" class="tile" points="204.074154174,90.5340433674 201.028055637,109.317194559 208.502172153,109.411136302 215.219873198,102.354477493 221.432449153,98.6990877602 238.139042926,95.332208704 250.811692162,93.788945123 261.846931909,88.8907375196 258.043667523,82.9168645499 252.709889579,76.5019189033 250.578039119,78.7258156307 247.851764735,79.9874034937 243.458408686,80.1696341142 205.73912,80.2361662512 181.011170174,76.4521477138 179.243125421,86.5794644238 204.074154174,90.5340433674 " moovel_rot="158.5" moovel_centroid="220.062730867,88.90130565078616" moovel_centroidlatlon="4.903059818083925,52.377176172426935"></polygon></g><g transform="translate(-211.4881535 -42.153816899999995) rotate(0)"><polygon id="23148057" class="tile" points="411.931555695,87.157977324 314.424144637,89.0857197786 314.188611271,76.4521477138 412.874146634,76.4859591467 411.931555695,87.157977324 " moovel_rot="141.8" moovel_centroid="361.97052697,82.29656069054062" moovel_centroidlatlon="4.896994020876079,52.37924451534807"></polygon></g><g transform="translate(-66.19844959999998 -73.9521485) rotate(0)"><polygon id="167786077" class="tile" points="305.841347417,76.4612597825 313.188611271,96.3831687024 273.61506234,111.179091559 262.846931909,76.4521477138 305.841347417,76.4612597825 " moovel_rot="98.4" moovel_centroid="287.06624008,90.52448699610453" moovel_centroidlatlon="4.9398135585895036,52.313163617610705"></polygon></g><g transform="translate(-198.78987009999997 -36.852607899999995) rotate(0)"><polygon id="35099546" class="tile" points="456.125226999,76.5071171535 455.165975122,103.367655483 415.280629631,104.80638167 413.874146634,76.4521477138 456.125226999,76.5071171535 " moovel_rot="109.3" moovel_centroid="434.920345956,90.15469657535617" moovel_centroidlatlon="4.916617978255073,52.34654455598191"></polygon></g><g transform="translate(-206.38040450000005 -67.99433649999999) rotate(0)"><polygon id="67498390" class="tile" points="495.082399005,106.83180181 457.125226999,101.742352353 459.407899239,76.4877837613 498.213118287,76.4521477138 495.082399005,106.83180181 " moovel_rot="149.1" moovel_centroid="478.051115034,90.39652551475527" moovel_centroidlatlon="4.898694233055928,52.3809806610344"></polygon></g><g transform="translate(-237.16512739999996 -28.729453799999995) rotate(0)"><polygon id="276562552" class="tile" points="499.213118287,76.4741650076 547.979783444,76.4521477138 547.99045963,96.6595903266 499.22379449,96.6816057345 499.213118287,76.4741650076 " moovel_rot="0.5" moovel_centroid="523.601789342,86.5668771948667" moovel_centroidlatlon="4.839785050000002,52.3884074"></polygon></g><g transform="translate(295.2301548 -96.79852009999999) rotate(0)"><polygon id="386997399" class="tile" points="0.0,120.935138498 51.9050556542,120.934929074 51.9011504963,139.5286226 0.00296357574407,139.518030189 0.0,120.935138498 " moovel_rot="1.0" moovel_centroid="25.95480597412597,130.22897535" moovel_centroidlatlon="4.8407148625611764,52.388412027276914"></polygon></g><g transform="translate(99.00342459999999 -117.4524366) rotate(0)"><polygon id="132317203" class="tile" points="89.866419632,120.948191916 53.927698043,120.934929074 53.9050556542,146.759768092 89.8543149344,146.780290591 89.866419632,120.948191916 " moovel_rot="93.1" moovel_centroid="71.8892129705,133.856426616" moovel_centroidlatlon="4.873218233753869,52.33993468301261"></polygon></g><g transform="translate(293.1659545 -154.5418559) rotate(0)"><polygon id="386499101" class="tile" points="0.0,158.717083992 177.315642541,158.961431618 177.550123046,157.041861732 0.00321565526538,157.198879582 0.0,158.717083992 " moovel_rot="3.4" moovel_centroid="92.170250196306,157.9804997" moovel_centroidlatlon="4.8751852822526125,52.33972987169692"></polygon></g><g transform="translate(253.69580180000003 -89.0897065) rotate(0)"><polygon id="386787648" class="tile" points="110.494261273,121.307220993 103.645233373,120.934929074 103.227467861,124.126943755 102.475113054,129.846370595 98.6100427976,129.69020039 97.7257550584,140.977512397 91.7808010846,141.444760319 90.866419632,157.041861732 130.687710644,157.038326846 133.151133062,155.703452064 110.734412121,132.769387804 110.494261273,121.307220993 " moovel_rot="119.1" moovel_centroid="108.337145673,144.715363193" moovel_centroidlatlon="4.960780933161746,52.29420230422374"></polygon></g><g transform="translate(-60.108367300000026 -60.426330500000006) rotate(0)"><polygon id="431900721" class="tile" points="177.563183515,120.934929074 177.548401382,128.354310705 247.555180384,128.378474708 247.559467372,120.951778604 177.563183515,120.934929074 " moovel_rot="93.4" moovel_centroid="212.562303769,124.654967782" moovel_centroidlatlon="4.8688680213102264,52.33852662764767"></polygon></g><g transform="translate(219.71031720000002 -111.642168) rotate(0)"><polygon id="386787649" class="tile" points="165.721277683,120.941965504 163.637777094,123.813083441 134.151133062,120.934929074 135.338411558,125.433419093 148.409147057,140.903039987 155.625917425,135.830675062 159.32741522,140.147113901 164.149586016,138.072928862 168.713860532,138.147200362 172.148835026,137.92797231 176.548401382,134.862387633 170.807464177,127.695351362 165.721277683,120.941965504 " moovel_rot="170.9" moovel_centroid="155.350330306,130.233601226" moovel_centroidlatlon="4.960452620721663,52.294565465695904"></polygon></g><g transform="translate(48.038075400000025 -87.3187799) rotate(0)"><polygon id="57862628" class="tile" points="373.595381329,129.286992337 322.127963737,129.292417442 322.125546729,128.697882231 321.344883734,128.703081543 321.311054376,123.397450124 322.14882116,123.383839462 322.151618601,120.934929074 373.661917488,121.10698086 373.595381329,129.286992337 " moovel_rot="149.4" moovel_centroid="347.5320232,125.163270262" moovel_centroidlatlon="4.897718649492144,52.37931671989609"></polygon></g><g transform="translate(142.55174720000002 -73.9635006) rotate(0)"><polygon id="431900719" class="tile" points="276.508401056,120.946990571 276.505801456,138.752469494 248.559467372,138.751311742 248.561990848,120.934929074 276.508401056,120.946990571 " moovel_rot="-0.4" moovel_centroid="262.532489469,129.846420757" moovel_centroidlatlon="4.867920528656776,52.33476277513221"></polygon></g><g transform="translate(122.20747950000003 -111.553896) rotate(0)"><polygon id="374946798" class="tile" points="320.311054376,120.934929074 319.779451892,131.406044067 277.710287564,131.348015857 277.508401056,120.990281396 320.311054376,120.934929074 " moovel_rot="157.6" moovel_centroid="298.866042966,126.154854736" moovel_centroidlatlon="4.918357628463463,52.401600758482964"></polygon></g><g transform="translate(14.10963300000003 -74.69078099999999) rotate(0)"><polygon id="431900718" class="tile" points="409.949090965,131.352219754 409.950955025,120.939593535 450.106174763,120.934929074 450.110723165,127.367853089 445.856098707,127.375278817 445.856365404,131.354969222 409.949090965,131.352219754 " moovel_rot="-0.1" moovel_centroid="429.27412741,126.009789323" moovel_centroidlatlon="4.865651272081408,52.334728489079744"></polygon></g><g transform="translate(-154.55980550000004 -109.64106960000001) rotate(0)"><polygon id="243446057" class="tile" points="451.110723165,120.958286557 451.121486146,128.777682685 487.033177587,128.774744239 498.229167512,128.754326448 498.218404551,120.934929074 451.110723165,120.958286557 " moovel_rot="0.9" moovel_centroid="474.673863286,124.860022115" moovel_centroidlatlon="4.8743287595164055,52.33827501649036"></polygon></g><g transform="translate(51.73025050000001 -96.0989637) rotate(0)"><polygon id="239284260" class="tile" points="408.949090965,132.821456401 405.996949816,133.752591607 378.654425534,133.794308491 375.059658281,131.922832109 374.661917488,122.775759786 379.966607973,120.934929074 405.450607161,121.990076925 406.201962851,122.021564382 408.737005543,123.458594159 408.949090965,132.821456401 " moovel_rot="150.9" moovel_centroid="391.719265125,127.620482025" moovel_centroidlatlon="4.900615531279171,52.380234089772365"></polygon></g><g transform="translate(-38.42932410000003 -111.5288434) rotate(0)"><polygon id="243445322" class="tile" points="499.229167512,120.955353223 499.240742483,133.664605877 527.711477883,133.643847669 527.706573723,120.934929074 499.229167512,120.955353223 " moovel_rot="2.9" moovel_centroid="513.471926968,127.299435895" moovel_centroidlatlon="4.872718073852849,52.33821500224223"></polygon></g><g transform="translate(136.2628183 -109.31404360000002) rotate(0)"><polygon id="373939921" class="tile" points="200.903604162,169.707193694 180.033586567,169.701962224 179.550123046,157.212161464 200.068193595,157.041861732 200.903604162,169.707193694 " moovel_rot="143.8" moovel_centroid="190.164041188,163.433054022" moovel_centroidlatlon="4.916707873615474,52.407449763588964"></polygon></g><g transform="translate(263.48366180000005 -125.4387917) rotate(0)"><polygon id="376982204" class="tile" points="220.993313158,159.101004245 220.967776151,157.041861732 209.463957567,157.044693887 202.080768627,162.49277027 201.903604162,164.743858226 207.355709398,172.340068589 219.868790081,172.963778092 220.576760164,167.373338062 220.789649611,163.221122717 220.993313158,159.101004245 " moovel_rot="4.5" moovel_centroid="212.563879347,164.80247268" moovel_centroidlatlon="4.958578581643906,52.35567763168432"></polygon></g><g transform="translate(263.74873019999995 -105.3736425) rotate(0)"><polygon id="142388792" class="tile" points="243.252971285,157.061475922 221.993313158,157.041861732 226.951545082,173.544815744 240.948980165,167.265219843 243.252971285,157.061475922 " moovel_rot="25.0" moovel_centroid="232.425417792,163.462366419" moovel_centroidlatlon="4.9533401801177295,52.35660217301019"></polygon></g><g transform="translate(245.00325099999998 -129.9268344) rotate(0)"><polygon id="156094116" class="tile" points="244.82231632,170.373731092 262.960047121,169.383422669 262.647650355,157.044308611 244.252971285,157.041861732 244.82231632,170.373731092 " moovel_rot="106.2" moovel_centroid="253.55185188,163.450996502" moovel_centroidlatlon="4.8801590052214,52.36615072844349"></polygon></g><g transform="translate(230.31946519999997 -154.8751367) rotate(0)"><polygon id="295731028" class="tile" points="264.143574481,161.858806496 272.512402241,157.041861732 285.025103607,165.200982117 284.982794402,171.380332463 263.960047121,171.365859803 264.143574481,161.858806496 " moovel_rot="164.2" moovel_centroid="273.815809522,165.701534562" moovel_centroidlatlon="4.948216724465994,52.35686263693801"></polygon></g><g transform="translate(-193.02304409999996 -105.23052539999999) rotate(0)"><polygon id="386499107" class="tile" points="310.977568223,157.049621195 310.971253495,160.739241685 348.557601986,160.738156055 348.564183652,157.041861732 310.977568223,157.049621195 " moovel_rot="92.3" moovel_centroid="329.773312274,158.89221741" moovel_centroidlatlon="4.873306171557581,52.34084340186471"></polygon></g><g transform="translate(224.05190580000004 -96.59605389999999) rotate(0)"><polygon id="374996083" class="tile" points="286.025103607,164.539091842 287.891008293,164.541793046 307.876393243,164.551432821 309.960361495,164.548200908 309.971253495,157.050962742 286.035997481,157.041861732 286.025103607,164.539091842 " moovel_rot="166.9" moovel_centroid="297.998655933,160.796411831" moovel_centroidlatlon="4.890544297768355,52.36715686332754"></polygon></g><g transform="translate(-267.60501550000004 -105.0559834) rotate(0)"><polygon id="386499103" class="tile" points="428.145855468,157.041861732 428.146241937,160.564637505 456.378893901,160.582257334 456.378506599,157.059481526 428.145855468,157.041861732 " moovel_rot="92.3" moovel_centroid="442.262374498,158.812059533" moovel_centroidlatlon="4.873445299999999,52.3408071"></polygon></g><g transform="translate(-33.32130589999997 -92.63011080000001) rotate(0)"><polygon id="386499102" class="tile" points="457.378893901,157.041861732 457.379548376,160.557963715 485.611924029,160.582257 485.622432772,157.059918823 457.378893901,157.041861732 " moovel_rot="92.3" moovel_centroid="471.50237542,158.810387603" moovel_centroidlatlon="4.87313017080475,52.34079426321948"></polygon></g><g transform="translate(-157.11973120000002 -99.0568033) rotate(0)"><polygon id="364380123" class="tile" points="349.564183652,157.052559765 349.58304851,164.223286667 367.176758753,164.212598466 367.157899527,157.041861732 349.564183652,157.052559765 " moovel_rot="29.8" moovel_centroid="358.37047462,160.632576464" moovel_centroidlatlon="4.9562453500000005,52.32257875"></polygon></g><g transform="translate(95.91296160000002 -100.54499809999999) rotate(0)"><polygon id="394389222" class="tile" points="380.408229253,157.041861732 368.176758753,159.453794021 373.823187504,168.497147275 384.560169213,168.494941703 380.408229253,157.041861732 " moovel_rot="87.1" moovel_centroid="376.852801985,163.163496368" moovel_centroidlatlon="4.979735542104565,52.35705011029028"></polygon></g><g transform="translate(-312.9281913 -115.4069561) rotate(0)"><polygon id="211258066" class="tile" points="387.533402748,157.061006844 385.726808067,158.805870546 385.560169213,160.74036651 387.117839786,162.339202112 404.352804379,162.343926338 406.870710913,160.783080573 406.938523661,158.544747918 404.260256497,157.041861732 387.533402748,157.061006844 " moovel_rot="-1.0" moovel_centroid="396.185963048,159.706733568" moovel_centroidlatlon="4.892357334405748,52.367012472055826"></polygon></g><g transform="translate(102.95025760000004 -113.6810472) rotate(0)"><polygon id="431899265" class="tile" points="427.145855468,162.46692493 427.144143371,157.041861732 407.938523661,157.043555498 407.940236284,162.468618683 427.145855468,162.46692493 " moovel_rot="88.6" moovel_centroid="417.5421897,159.755240198" moovel_centroidlatlon="4.8670219999999995,52.333119249999996"></polygon></g><g transform="translate(494.18212330000006 -152.0749708) rotate(0)"><polygon id="307861957" class="tile" points="17.9081493869,177.238139665 17.712885862,173.586548561 39.9726420269,173.544815744 39.9803020856,177.264272493 17.9081493869,177.238139665 " moovel_rot="9.6" moovel_centroid="28.927403013,175.405806901" moovel_centroidlatlon="4.897195893956019,52.36590170065651"></polygon></g><g transform="translate(26.1923994 -126.85776230000002) rotate(0)"><polygon id="408640557" class="tile" points="503.829899757,162.642052007 503.694689901,157.041861732 486.622432772,157.206804263 486.67918101,162.638733058 503.829899757,162.642052007 " moovel_rot="155.0" moovel_centroid="495.250175671,159.884185832" moovel_centroidlatlon="4.921431769606376,52.40418970894844"></polygon></g><g transform="translate(456.2330824 -171.0448154) rotate(0)"><polygon id="436160676" class="tile" points="84.189816714,173.555570034 60.8552101052,173.544815744 60.9994212081,176.862000097 84.4186104544,176.453284094 84.189816714,173.555570034 " moovel_rot="119.2" moovel_centroid="72.3534549997,175.107366067" moovel_centroidlatlon="4.966745436047006,52.3268686649713"></polygon></g><g transform="translate(29.57244389999994 -146.5285859) rotate(0)"><polygon id="364391706" class="tile" points="504.829919658,163.133554677 519.739243288,163.138417754 519.744561626,157.041861732 504.829899757,157.046511287 504.829919658,163.133554677 " moovel_rot="29.3" moovel_centroid="512.287846651,160.089904787" moovel_centroidlatlon="4.956137373988949,52.32173853515782"></polygon></g><g transform="translate(13.866233099999931 -107.3614871) rotate(0)"><polygon id="364391699" class="tile" points="520.744647829,163.133273988 535.659214531,163.128794019 535.659132282,157.041861732 520.744561626,157.046348745 520.744647829,163.133273988 " moovel_rot="29.3" moovel_centroid="528.201890505,160.087569486" moovel_centroidlatlon="4.952867149999999,52.320614850000005"></polygon></g><g transform="translate(-1.8863655000000108 -120.83168300000001) rotate(0)"><polygon id="364391698" class="tile" points="536.659214531,157.041861732 536.665122684,163.134073928 551.565050581,163.131906907 551.568640873,157.04502499 536.659214531,157.041861732 " moovel_rot="119.3" moovel_centroid="544.113419978,160.087893492" moovel_centroidlatlon="4.953510253746151,52.32126811484222"></polygon></g><g transform="translate(-13.55114780000008 -95.18193050000002) rotate(0)"><polygon id="364391701" class="tile" points="552.572235408,157.044025877 552.568640873,163.130905414 567.478086428,163.134079454 567.472168427,157.041861732 552.572235408,157.044025877 " moovel_rot="119.3" moovel_centroid="560.023871585,160.088041996" moovel_centroidlatlon="4.953647946253849,52.32131538515777"></polygon></g><g transform="translate(-29.926845200000002 -130.72238610000002) rotate(0)"><polygon id="187266076" class="tile" points="568.478086428,157.041861732 585.720769297,157.050119694 585.73172411,161.939796805 568.483186178,161.928324871 568.478086428,157.041861732 " moovel_rot="28.7" moovel_centroid="577.104385681,159.490164487" moovel_centroidlatlon="4.9522373883723745,52.321560803034494"></polygon></g><g transform="translate(510.81515679999995 -171.0492791) rotate(0)"><polygon id="436160686" class="tile" points="41.0431685789,173.792223684 48.0561973223,173.544815744 49.1465851609,173.775058452 59.3682245493,174.221724105 59.8552101052,177.842894726 48.9254300843,177.90545933 40.9803020856,177.896692101 41.0431685789,173.792223684 " moovel_rot="28.4" moovel_centroid="50.0578495469,175.874785693" moovel_centroidlatlon="4.948236253521124,52.31909773041302"></polygon></g><g transform="translate(554.1503362 -130.3291949) rotate(0)"><polygon id="436160689" class="tile" points="0.00811316035688,178.778880573 12.2431661893,178.784024771 15.712885862,178.787354261 15.6832566842,173.544815744 12.242085031,173.557441201 0.0,173.609579007 0.00811316035688,178.778880573 " moovel_rot="119.2" moovel_centroid="7.869489760567168,176.179950275" moovel_centroidlatlon="4.958982212722134,52.32471532162085"></polygon></g><g transform="translate(393.54747729999997 -155.3630235) rotate(0)"><polygon id="436160684" class="tile" points="180.758182084,173.544815744 170.672092446,173.551673488 159.909307018,173.565265409 159.897285057,176.689630306 170.704683007,176.685494199 180.752460435,176.680309617 180.758182084,173.544815744 " moovel_rot="119.0" moovel_centroid="170.33555615,175.119494669" moovel_centroidlatlon="4.952287573003996,52.3218945728555"></polygon></g><g transform="translate(357.81696310000007 -119.542866) rotate(0)"><polygon id="436160682" class="tile" points="216.58388381,173.544815744 196.709384228,173.550466065 196.707810768,176.729014746 205.811626729,176.726533908 216.582315295,176.723367315 216.58388381,173.544815744 " moovel_rot="120.3" moovel_centroid="206.645845384,175.136942548" moovel_centroidlatlon="4.952160950391542,52.32186455008902"></polygon></g><g transform="translate(461.00927930000006 -111.3630828) rotate(0)"><polygon id="118729255" class="tile" points="97.9165184674,178.270337823 97.9599061358,173.54797055 112.780141667,173.544815744 112.801425662,178.279431004 97.9165184674,178.270337823 " moovel_rot="94.9" moovel_centroid="105.367696578,175.912355928" moovel_centroidlatlon="4.908841196524057,52.37555028054552"></polygon></g><g transform="translate(431.7467391 -139.5552246) rotate(0)"><polygon id="436160681" class="tile" points="143.496760363,173.544815744 143.344187608,177.948341751 127.304022484,177.403521267 127.605060193,173.553725557 143.496760363,173.544815744 " moovel_rot="119.7" moovel_centroid="135.614859494,175.61943084" moovel_centroidlatlon="4.9518731482359275,52.32229361934837"></polygon></g><g transform="translate(430.212934 -164.8095603) rotate(0)"><polygon id="436160683" class="tile" points="146.525492613,173.575620591 158.897285057,173.580670794 158.624260887,178.202623156 144.496760363,178.211036792 144.594739726,173.544815744 146.525492613,173.575620591 " moovel_rot="119.2" moovel_centroid="151.646820877,175.886485756" moovel_centroidlatlon="4.951696394255198,52.32230415602252"></polygon></g><g transform="translate(-44.8261437 -153.37624029999998) rotate(0)"><polygon id="374073230" class="tile" points="126.304022484,173.544815744 126.298489444,179.115094494 113.801425662,179.117963108 113.816353439,173.553218281 126.304022484,173.544815744 " moovel_rot="120.5" moovel_centroid="120.056107659,176.333121733" moovel_centroidlatlon="4.9414463466378535,52.31003958480188"></polygon></g><g transform="translate(489.7862242 -130.20994689999998) rotate(0)"><polygon id="364391700" class="tile" points="85.4287370865,173.547042698 85.4186104544,179.645574571 96.9159027758,179.648684909 96.9165184674,173.544815744 85.4287370865,173.547042698 " moovel_rot="119.3" moovel_centroid="91.1707795678,176.596950488" moovel_centroidlatlon="4.955044049361844,52.32139063358486"></polygon></g><g transform="translate(395.302307 -148.1867742) rotate(0)"><polygon id="436160675" class="tile" points="195.707810768,173.544815744 181.799200594,173.553256662 181.758182084,178.155391661 195.348352264,178.166619419 195.707810768,173.544815744 " moovel_rot="29.6" moovel_centroid="188.658666272,175.846144061" moovel_centroidlatlon="4.949885653070917,52.31827009473734"></polygon></g><g transform="translate(-141.17512800000003 -146.6524911) rotate(0)"><polygon id="436160685" class="tile" points="281.523658329,173.544815744 273.274170077,173.552932428 263.106074177,173.558575417 263.105669973,175.957406873 273.299323609,175.950963157 281.523257563,175.943649163 281.523658329,173.544815744 " moovel_rot="119.7" moovel_centroid="272.314616038,174.75189292" moovel_centroidlatlon="4.959216910551871,52.3242853031574"></polygon></g><g transform="translate(361.2002776 -115.222949) rotate(0)"><polygon id="192153624" class="tile" points="217.593538532,178.372203795 217.58388381,173.544815744 230.156851348,173.554894207 230.160495607,178.379369245 217.593538532,178.372203795 " moovel_rot="25.9" moovel_centroid="223.873060667,175.962628145" moovel_centroidlatlon="4.955249215220608,52.32260324905381"></polygon></g><g transform="translate(-25.066850200000033 -108.15845269999998) rotate(0)"><polygon id="374436389" class="tile" points="340.89100365,175.308116478 357.326055373,175.308116478 357.260620418,173.60492827 340.934626805,173.544815744 340.89100365,175.308116478 " moovel_rot="90" moovel_centroid="349.055581935,174.442372063" moovel_centroidlatlon="4.842704138142647,52.34503166450151"></polygon></g><g transform="translate(71.93621610000002 -147.8441703) rotate(0)"><polygon id="436160679" class="tile" points="339.861574447,173.544959374 328.374171478,173.544815744 328.675552939,176.562739167 339.89100365,176.309536793 339.861574447,173.544959374 " moovel_rot="118.4" moovel_centroid="334.116435747,174.985986002" moovel_centroidlatlon="4.959287989546005,52.32441152626468"></polygon></g><g transform="translate(-247.7072984 -142.80370670000002) rotate(0)"><polygon id="256868922" class="tile" points="327.308656844,178.360496916 319.239444507,178.233592697 319.370473557,173.544815744 327.374171478,173.544815744 327.308656844,178.360496916 " moovel_rot="90" moovel_centroid="323.340925259,175.924428058" moovel_centroidlatlon="4.79296612736865,52.39855296245539"></polygon></g><g transform="translate(135.90997750000002 -158.50149760000002) rotate(0)"><polygon id="330361072" class="tile" points="318.239444507,173.544815744 317.770810605,179.441310101 311.037357011,179.11656006 311.403137273,173.544987563 318.239444507,173.544815744 " moovel_rot="109.4" moovel_centroid="314.645318101,176.407120209" moovel_centroidlatlon="4.898455994963714,52.36393904248743"></polygon></g><g transform="translate(-183.0394524 -123.4083795) rotate(0)"><polygon id="436160680" class="tile" points="376.824171332,175.416743025 387.483338129,175.419997465 387.488863247,173.544815744 376.650829974,173.548106365 376.824171332,175.416743025 " moovel_rot="119.4" moovel_centroid="382.114815817,174.479815531" moovel_centroidlatlon="4.966467693927112,52.3273263623839"></polygon></g><g transform="translate(150.721426 -161.1963429) rotate(0)"><polygon id="291989024" class="tile" points="369.609310592,173.548469828 375.639694641,173.544815744 375.650829974,177.680776434 369.613788303,177.68496659 369.609310592,173.548469828 " moovel_rot="-4.6" moovel_centroid="372.628341955,175.615137576" moovel_centroidlatlon="4.954701073589998,52.357153596570846"></polygon></g><g transform="translate(-152.6763454 -141.6658912) rotate(0)"><polygon id="276902231" class="tile" points="394.643954529,176.290032272 388.492831745,176.292410867 388.488863247,173.547080138 394.650891001,173.544815744 394.643954529,176.290032272 " moovel_rot="90.6" moovel_centroid="391.569113239,174.918179543" moovel_centroidlatlon="4.843539143936929,52.34421127476036"></polygon></g><g transform="translate(-18.63304260000001 -126.57254600000002) rotate(0)"><polygon id="276902243" class="tile" points="401.78038723,176.049716941 395.650891001,176.044285313 395.653054922,173.546062636 401.782644365,173.544815744 401.774997392,174.092454252 401.78038723,176.049716941 " moovel_rot="90.8" moovel_centroid="398.716318337,174.796354397" moovel_centroidlatlon="4.843537677098649,52.34439204611096"></polygon></g><g transform="translate(177.3939891 -137.59441710000002) rotate(0)"><polygon id="276902219" class="tile" points="408.810660606,175.929376899 402.790459763,175.926447019 402.782644365,173.548450468 408.813820139,173.544815744 408.810660606,175.929376899 " moovel_rot="90.6" moovel_centroid="405.800780008,174.73691081" moovel_centroidlatlon="4.843535419367649,52.344270287653345"></polygon></g><g transform="translate(-192.96408980000004 -171.04481619999999) rotate(0)"><polygon id="432923352" class="tile" points="443.745129312,174.386800837 443.697978088,173.549973852 438.136990415,173.544815744 438.175803526,174.391347962 443.745129312,174.386800837 " moovel_rot="9.2" moovel_centroid="440.933633198,173.968345641" moovel_centroidlatlon="4.913035846311382,52.37662916616945"></polygon></g></g><g transform="translate(0 82.5)"><polygon id="0" class="bin" points="0.0,0.0 600.0,0.0 600.0,75.4521477138 0.0,75.4521477138 0.0,0.0 " moovel_rot="0" moovel_centroid="300.0,37.72607385692167" moovel_centroidlatlon="0,0" transform="translate(0 0)"></polygon><g transform="translate(-228.6604982 -171.0469971) rotate(0)"><polygon id="436160687" class="tile" points="248.131152095,175.824384535 241.724816143,175.822898484 241.728497293,173.546989614 240.292095378,173.544815744 231.169397108,173.54763959 231.160495607,177.506371281 240.321495179,177.501477879 248.129112533,177.501334204 248.131152095,175.824384535 " moovel_rot="118.4" moovel_centroid="238.17966707,175.757693415" moovel_centroidlatlon="4.966383486299707,52.32724700918866"></polygon></g><g transform="translate(-280.05621809999997 -162.1764283) rotate(0)"><polygon id="436160688" class="tile" points="298.805997177,173.558669659 292.976274921,176.231935336 291.115911242,175.960126883 283.267671228,173.544815744 282.523658329,175.485982626 290.021674557,178.828455686 293.952799935,178.290848572 300.15766942,175.215610496 298.805997177,173.558669659 " moovel_rot="143.3" moovel_centroid="291.019057094,176.221515034" moovel_centroidlatlon="4.949306601472907,52.319252391718514"></polygon></g><g transform="translate(-246.63184150000004 -151.93025189999997) rotate(0)"><polygon id="449441763" class="tile" points="261.960398826,177.638422657 262.105669973,173.544815744 249.215044065,173.580774685 249.131152095,177.145140863 261.960398826,177.638422657 " moovel_rot="147.8" moovel_centroid="255.75145109,175.478796918" moovel_centroidlatlon="4.907496332139565,52.41991908547691"></polygon></g><g transform="translate(-298.68449009999995 -142.987752) rotate(0)"><polygon id="307863331" class="tile" points="310.037357011,173.544815744 308.914876259,179.150347895 301.15766942,177.618762598 301.757947542,173.552839303 310.037357011,173.544815744 " moovel_rot="114.9" moovel_centroid="305.685086701,175.974952804" moovel_centroidlatlon="4.898132637198246,52.3638792952571"></polygon></g><g transform="translate(-355.8327435 -132.4343603) rotate(0)"><polygon id="436160677" class="tile" points="368.609310592,176.23898151 358.536075236,176.409082917 358.326055373,173.544815744 368.537732115,173.551556204 368.609310592,176.23898151 " moovel_rot="119.2" moovel_centroid="363.447980494,174.933593618" moovel_centroidlatlon="4.966816238838414,52.32696132883009"></polygon></g><g transform="translate(-394.3617719 -138.2535015) rotate(0)"><polygon id="276902235" class="tile" points="415.899529611,175.849345462 409.813820139,175.852409088 409.816140354,173.547993573 415.890944756,173.544815744 415.899529611,175.849345462 " moovel_rot="90.6" moovel_centroid="412.855135524,174.698985375" moovel_centroidlatlon="4.843535355151948,52.34433217527888"></polygon></g><g transform="translate(-399.1266667 -130.95059460000002) rotate(0)"><polygon id="276902224" class="tile" points="422.979880016,175.849149185 416.905253358,175.853494927 416.899529611,173.549085352 422.985061635,173.544815744 422.979880016,175.849149185 " moovel_rot="90.4" moovel_centroid="419.942412675,174.698791884" moovel_centroidlatlon="4.843398494845454,52.34440617480851"></polygon></g><g transform="translate(-411.9263322 -145.5557973) rotate(0)"><polygon id="276902216" class="tile" points="437.13467023,175.84923126 431.05993515,175.845730279 431.062185419,173.547993566 437.136990415,173.544815744 437.13467023,175.84923126 " moovel_rot="90.6" moovel_centroid="434.099914626,174.696940754" moovel_centroidlatlon="4.8433995247403026,52.34433646347213"></polygon></g><g transform="translate(-403.7698697 -155.0532608) rotate(0)"><polygon id="276902210" class="tile" points="430.05993515,175.849969627 423.985061635,175.8492237 423.991403841,173.544815744 430.055372516,173.545428437 430.05993515,175.849969627 " moovel_rot="90.7" moovel_centroid="427.022972127,174.697704417" moovel_centroidlatlon="4.843400905160227,52.34426832530309"></polygon></g></g></svg>