<svg xmlns="http://www.w3.org/2000/svg" version="1.1" width="600px" height="75.45214771384335px">
  <polygon id="76823254" points="112.225694272,64.2980196951 112.767508412,55.1035972562 112.958465521,51.9266093138 2.4998194244,51.9797847479 2.6092572979,60.9117186125 2.64128514,63.6807388605 48.458555182,63.9408656057 112.225694272,64.2980196951 " moovel_rot="44.5" moovel_centroid="58.09323603837519,57.965295191990954" moovel_centroidlatlon="4.955299677853273,52.35480677831348"/>
  <polygon id="432923352" points="250.781039512,3.341984637 250.733888288,2.505157652 245.172900615,2.499999544 245.211713726,3.346531762 250.781039512,3.341984637 " moovel_rot="9.2" moovel_centroid="247.96954339793288,2.92352944066383" moovel_centroidlatlon="4.913035846311382,52.37662916616945"/>
  <polygon id="431899264" points="68.2731959244,42.234410473 58.5656704017,5.705334899 29.2062535986,2.4850956138 4.67692742076,6.4357616805 2.4887166,29.38936103 11.3728506612,46.967876974 45.0829739472,46.959286379 68.2731959244,42.234410473 " moovel_rot="166.9" moovel_centroid="33.898571171446186,25.499146364941815" moovel_centroidlatlon="4.864274771400317,52.33338874282174"/>
  <polygon id="291989024" points="520.330736592,12.352126928 526.361120641,12.348472844 526.372255974,16.484433534 520.335214303,16.48862369 520.330736592,12.352126928 " moovel_rot="-4.6" moovel_centroid="523.3497679554466,14.41879467590822" moovel_centroidlatlon="4.954701073589998,52.357153596570846"/>
  <polygon id="408640557" points="530.022299157,35.784289707 529.887089301,30.184099432 512.814832172,30.349041963 512.87158041,35.780970758 530.022299157,35.784289707 " moovel_rot="155.0" moovel_centroid="521.4425750705097,33.026423531625014" moovel_centroidlatlon="4.921431769606376,52.40418970894844"/>
  <polygon id="373939921" points="337.166422462,60.393150094 316.296404867,60.387918624 315.812941346,47.898117864 336.331011895,47.727818132 337.166422462,60.393150094 " moovel_rot="143.8" moovel_centroid="326.4268594878826,54.11901042197359" moovel_centroidlatlon="4.916707873615474,52.407449763588964"/>
  <polygon id="276902231" points="241.967609129,34.624141072 235.816486345,34.626519667 235.812517847,31.881188938 241.974545601,31.878924544 241.967609129,34.624141072 " moovel_rot="90.6" moovel_centroid="238.8927678387262,33.25228834232905" moovel_centroidlatlon="4.843539143936929,52.34421127476036"/>
  <polygon id="386499102" points="424.057588001,64.411750932 424.058242476,67.927852915 452.290618129,67.9521462 452.301126872,64.429808023 424.057588001,64.411750932 " moovel_rot="92.3" moovel_centroid="438.1810695207148,66.18027680263057" moovel_centroidlatlon="4.87313017080475,52.34079426321948"/>
  <polygon id="386499103" points="160.540839968,51.985878332 160.541226437,55.508654105 188.773878401,55.526273934 188.773491099,52.003498126 160.540839968,51.985878332 " moovel_rot="92.3" moovel_centroid="174.65735899927878,53.75607613292592" moovel_centroidlatlon="4.873445299999999,52.3408071"/>
  <polygon id="256868922" points="79.601358444,35.556790216 71.532146107,35.429885997 71.663175157,30.741109044 79.666873078,30.741109044 79.601358444,35.556790216 " moovel_rot="90" moovel_centroid="75.63362685867702,33.12072135800048" moovel_centroidlatlon="4.79296612736865,52.39855296245539"/>
  <polygon id="142388792" points="507.001701485,51.687833422 485.742043358,51.668219232 490.700275282,68.171173244 504.697710365,61.891577343 507.001701485,51.687833422 " moovel_rot="25.0" moovel_centroid="496.1741479925438,58.08872391955378" moovel_centroidlatlon="4.9533401801177295,52.35660217301019"/>
  <polygon id="436160679" points="411.797790547,25.700789074 400.310387578,25.700645444 400.611769039,28.718568867 411.82721975,28.465366493 411.797790547,25.700789074 " moovel_rot="118.4" moovel_centroid="406.0526518474895,27.141815701532334" moovel_centroidlatlon="4.959287989546005,52.32441152626468"/>
  <polygon id="330361072" points="454.149422007,15.043318144 453.680788105,20.939812501 446.947334511,20.61506246 447.313114773,15.043489963 454.149422007,15.043318144 " moovel_rot="109.4" moovel_centroid="450.5552956013194,17.905622609239636" moovel_centroidlatlon="4.898455994963714,52.36393904248743"/>
  <polygon id="57862628" points="421.633456729,41.968212437 370.166039137,41.973637542 370.163622129,41.379102331 369.382959134,41.384301643 369.349129776,36.078670224 370.18689656,36.065059562 370.189694001,33.616149174 421.699992888,33.78820096 421.633456729,41.968212437 " moovel_rot="149.4" moovel_centroid="395.57009859991814,37.84449036236302" moovel_centroidlatlon="4.897718649492144,52.37931671989609"/>
  <polygon id="374996083" points="510.077009407,67.943037942 511.942914093,67.945739146 531.928299043,67.955378921 534.012267295,67.952147008 534.023159295,60.454908842 510.087903281,60.445807832 510.077009407,67.943037942 " moovel_rot="166.9" moovel_centroid="522.0505617325126,64.2003579314014" moovel_centroidlatlon="4.890544297768355,52.36715686332754"/>
  <polygon id="364391706" points="534.402363558,16.604968777 549.311687188,16.609831854 549.317005526,10.513275832 534.402343657,10.517925387 534.402363558,16.604968777 " moovel_rot="29.3" moovel_centroid="541.8602905505626,13.561318887194856" moovel_centroidlatlon="4.956137373988949,52.32173853515782"/>
  <polygon id="436160681" points="575.243499463,33.989591144 575.090926708,38.393117151 559.050761584,37.848296667 559.351799293,33.998500957 575.243499463,33.989591144 " moovel_rot="119.7" moovel_centroid="567.361598593727,36.06420623985443" moovel_centroidlatlon="4.9518731482359275,52.32229361934837"/>
  <polygon id="436160684" points="574.305659384,18.181792244 564.219569746,18.188649988 553.456784318,18.202241909 553.444762357,21.326606806 564.252160307,21.322470699 574.299937735,21.317286117 574.305659384,18.181792244 " moovel_rot="119.0" moovel_centroid="563.8830334506891,19.756471169082065" moovel_centroidlatlon="4.952287573003996,52.3218945728555"/>
  <polygon id="386787649" points="385.431594883,9.299797504 383.348094294,12.170915441 353.861450262,9.292761074 355.048728758,13.791251093 368.119464257,29.260871987 375.336234625,24.188507062 379.03773242,28.504945901 383.859903216,26.430760862 388.424177732,26.505032362 391.859152226,26.28580431 396.258718582,23.220219633 390.517781377,16.053183362 385.431594883,9.299797504 " moovel_rot="170.9" moovel_centroid="375.0606475060329,18.591433225846412" moovel_centroidlatlon="4.960452620721663,52.294565465695904"/>
  <polygon id="239284260" points="460.679341465,36.722492701 457.727200316,37.653627907 430.384676034,37.695344791 426.789908781,35.823868409 426.392167988,26.676796086 431.696858473,24.835965374 457.180857661,25.891113225 457.932213351,25.922600682 460.467256043,27.359630459 460.679341465,36.722492701 " moovel_rot="150.9" moovel_centroid="443.44951562546555,31.52151832513028" moovel_centroidlatlon="4.900615531279171,52.380234089772365"/>
  <polygon id="436160675" points="591.010117768,25.358041544 577.101507594,25.366482462 577.060489084,29.968617461 590.650659264,29.979845219 591.010117768,25.358041544 " moovel_rot="29.6" moovel_centroid="583.9609732720256,27.659369860975193" moovel_centroidlatlon="4.949885653070917,52.31827009473734"/>
  <polygon id="364391701" points="539.021087608,61.862095377 539.017493073,67.948974914 553.926938628,67.952148954 553.921020627,61.859931232 539.021087608,61.862095377 " moovel_rot="119.3" moovel_centroid="546.472723785286,64.90611149632736" moovel_centroidlatlon="4.953647946253849,52.32131538515777"/>
  <polygon id="364391699" points="534.610880929,55.771786888 549.525447631,55.767306919 549.525365382,49.680374632 534.610794726,49.684861645 534.610880929,55.771786888 " moovel_rot="29.3" moovel_centroid="542.068123605059,52.72608238608895" moovel_centroidlatlon="4.952867149999999,52.320614850000005"/>
  <polygon id="187266076" points="538.551241228,26.319475632 555.793924097,26.327733594 555.80487891,31.217410705 538.556340978,31.205938771 538.551241228,26.319475632 " moovel_rot="28.7" moovel_centroid="547.1775404814452,28.767778386789544" moovel_centroidlatlon="4.9522373883723745,52.321560803034494"/>
  <polygon id="276902243" points="383.14734463,49.477170941 377.017848401,49.471739313 377.020012322,46.973516636 383.149601765,46.972269744 383.141954792,47.519908252 383.14734463,49.477170941 " moovel_rot="90.8" moovel_centroid="380.08327573691787,48.22380839685436" moovel_centroidlatlon="4.843537677098649,52.34439204611096"/>
  <polygon id="436160683" points="576.738426613,8.766060291 589.110219057,8.771110494 588.837194887,13.393062856 574.709694363,13.401476492 574.807673726,8.735255444 576.738426613,8.766060291 " moovel_rot="119.2" moovel_centroid="581.8597548770084,11.076925455668414" moovel_centroidlatlon="4.951696394255198,52.32230415602252"/>
  <polygon id="386787648" points="364.190063073,32.217514493 357.341035173,31.845222574 356.923269661,35.037237255 356.170914854,40.756664095 352.305844598,40.60049389 351.421556858,51.887805897 345.476602885,52.355053819 344.562221432,67.952155232 384.383512444,67.948620346 386.846934862,66.613745564 364.430213921,43.679681304 364.190063073,32.217514493 " moovel_rot="119.1" moovel_centroid="362.03294747325396,55.62565669340353" moovel_centroidlatlon="4.960780933161746,52.29420230422374"/>
  <polygon id="374436389" points="315.82415345,67.149663778 332.259205173,67.149663778 332.193770218,65.44647557 315.867776605,65.386363044 315.82415345,67.149663778 " moovel_rot="90" moovel_centroid="323.98873173463465,66.2839193625535" moovel_centroidlatlon="4.842704138142647,52.34503166450151"/>
  <polygon id="436160676" points="540.422899114,2.510754634 517.088292505,2.500000344 517.232503608,5.817184697 540.651692854,5.408468694 540.422899114,2.510754634 " moovel_rot="119.2" moovel_centroid="528.5865373992999,4.062550666404957" moovel_centroidlatlon="4.966745436047006,52.3268686649713"/>
  <polygon id="276562552" points="262.047990887,47.7447112076 310.814656044,47.7226939138 310.82533223,67.9301365266 262.05866709,67.9521519345 262.047990887,47.7447112076 " moovel_rot="0.5" moovel_centroid="286.4366619420186,57.837423394832356" moovel_centroidlatlon="4.839785050000002,52.3884074"/>
  <polygon id="436160689" points="554.15844936,48.449685673 566.393502389,48.454829871 569.863222062,48.458159361 569.833592884,43.215620844 566.392421231,43.228246301 554.1503362,43.280384107 554.15844936,48.449685673 " moovel_rot="119.2" moovel_centroid="562.0198259606276,45.8507553747125" moovel_centroidlatlon="4.958982212722134,52.32471532162085"/>
  <polygon id="156094116" points="489.82556732,40.446896692 507.963298121,39.456588269 507.650901355,27.117474211 489.256222285,27.115027332 489.82556732,40.446896692 " moovel_rot="106.2" moovel_centroid="498.55510288001034,33.52416210151183" moovel_centroidlatlon="4.8801590052214,52.36615072844349"/>
  <polygon id="386997399" points="295.2301548,24.136618398 347.135210454,24.136408974 347.131305296,42.7301025 295.233118376,42.719510089 295.2301548,24.136618398 " moovel_rot="1.0" moovel_centroid="321.1849607740761,33.43045524976571" moovel_centroidlatlon="4.8407148625611764,52.388412027276914"/>
  <polygon id="243445322" points="460.799843412,9.426509823 460.811418383,22.135762477 489.282153783,22.115004269 489.277249623,9.406085674 460.799843412,9.426509823 " moovel_rot="2.9" moovel_centroid="475.0426028685493,15.77059249446934" moovel_centroidlatlon="4.872718073852849,52.33821500224223"/>
  <polygon id="243446057" points="296.550917665,11.317216957 296.561680646,19.136613085 332.473372087,19.133674639 343.669362012,19.113256848 343.658599051,11.293859474 296.550917665,11.317216957 " moovel_rot="0.9" moovel_centroid="320.114057786392,15.218952514808546" moovel_centroidlatlon="4.8743287595164055,52.33827501649036"/>
  <polygon id="276902219" points="586.204649706,38.334959799 580.184448863,38.332029919 580.176633465,35.954033368 586.207809239,35.950398644 586.204649706,38.334959799 " moovel_rot="90.6" moovel_centroid="583.1947691084816,37.14249371026654" moovel_centroidlatlon="4.843535419367649,52.344270287653345"/>
  <polygon id="295731028" points="494.463039681,6.983669796 502.831867441,2.166725032 515.344568807,10.325845417 515.302259602,16.505195763 494.279512321,16.490723103 494.463039681,6.983669796 " moovel_rot="164.2" moovel_centroid="504.1352747216448,10.826397861681402" moovel_centroidlatlon="4.948216724465994,52.35686263693801"/>
  <polygon id="376762657" points="90.367714174,16.5531280674 87.321615637,35.336279259 94.795732153,35.430221002 101.513433198,28.373562193 107.726009153,24.7181724602 124.432602926,21.351293404 137.105252162,19.808029823 148.140491909,14.9098222196 144.337227523,8.9359492499 139.003449579,2.5210036033 136.871599119,4.7449003307 134.145324735,6.0064881937 129.751968686,6.1887188142 92.03268,6.2552509512 67.304730174,2.4712324138 65.536685421,12.5985491238 90.367714174,16.5531280674 " moovel_rot="158.5" moovel_centroid="106.35629086647413,14.920390350785862" moovel_centroidlatlon="4.903059818083925,52.377176172426935"/>
  <polygon id="386499101" points="293.1659545,4.175228092 470.481597041,4.419575718 470.716077546,2.500005832 293.169170155,2.657023682 293.1659545,4.175228092 " moovel_rot="3.4" moovel_centroid="385.33620469855157,3.4386438002513597" moovel_centroidlatlon="4.8751852822526125,52.33972987169692"/>
  <polygon id="436160686" points="551.858325379,2.742944584 558.871354122,2.495536644 559.961741961,2.725779352 570.183381349,3.172445005 570.670366905,6.793615626 559.740586884,6.85618023 551.795458886,6.847413001 551.858325379,2.742944584 " moovel_rot="28.4" moovel_centroid="560.8730063464749,4.82550659269591" moovel_centroidlatlon="4.948236253521124,52.31909773041302"/>
  <polygon id="167786077" points="239.642897817,2.5091112825 246.990161671,22.4310202024 207.41661274,37.226943059 196.648482309,2.4999992138 239.642897817,2.5091112825 " moovel_rot="98.4" moovel_centroid="220.8677904803221,16.572338496197844" moovel_centroidlatlon="4.9398135585895036,52.313163617610705"/>
  <polygon id="132317203" points="188.869844232,3.495755316 152.931122643,3.482492474 152.908480254,29.307331492 188.857739534,29.327853991 188.869844232,3.495755316 " moovel_rot="93.1" moovel_centroid="170.8926375704833,16.403990016374944" moovel_centroidlatlon="4.873218233753869,52.33993468301261"/>
  <polygon id="35099546" points="257.335356899,39.6545092535 256.376105022,66.515047583 216.490759531,67.95377377 215.084276534,39.5995398138 257.335356899,39.6545092535 " moovel_rot="109.3" moovel_centroid="236.13047585582453,53.302088675409465" moovel_centroidlatlon="4.916617978255073,52.34654455598191"/>
  <polygon id="431900718" points="424.058723965,56.661438754 424.060588025,46.248812535 464.215807763,46.244148074 464.220356165,52.677072089 459.965731707,52.684497817 459.965998404,56.664188222 424.058723965,56.661438754 " moovel_rot="-0.1" moovel_centroid="443.3837604100885,51.31900832291372" moovel_centroidlatlon="4.865651272081408,52.334728489079744"/>
  <polygon id="374073230" points="81.477878784,20.168575444 81.472345744,25.738854194 68.975281962,25.741722808 68.990209739,20.176977981 81.477878784,20.168575444 " moovel_rot="120.5" moovel_centroid="75.22996395874063,22.956881432680824" moovel_centroidlatlon="4.9414463466378535,52.31003958480188"/>
  <polygon id="376982204" points="484.476974958,33.662212545 484.451437951,31.603070032 472.947619367,31.605902187 465.564430427,37.05397857 465.387265962,39.305066526 470.839371198,46.901276889 483.352451881,47.524986392 484.060421964,41.934546362 484.273311411,37.782331017 484.476974958,33.662212545 " moovel_rot="4.5" moovel_centroid="476.04754114719714,39.363680979701854" moovel_centroidlatlon="4.958578581643906,52.35567763168432"/>
  <polygon id="307861957" points="512.090272687,25.163168865 511.895009162,21.511577761 534.154765327,21.469844944 534.162425386,25.189301693 512.090272687,25.163168865 " moovel_rot="9.6" moovel_centroid="523.1095263127884,23.330836100803324" moovel_centroidlatlon="4.897195893956019,52.36590170065651"/>
  <polygon id="364391698" points="534.772849031,36.210178732 534.778757184,42.302390928 549.678685081,42.300223907 549.682275373,36.21334199 534.772849031,36.210178732 " moovel_rot="119.3" moovel_centroid="542.2270544783768,39.25621049216859" moovel_centroidlatlon="4.953510253746151,52.32126811484222"/>
  <polygon id="431899265" points="530.096113068,48.78587773 530.094400971,43.360814532 510.888781261,43.362508298 510.890493884,48.787571483 530.096113068,48.78587773 " moovel_rot="88.6" moovel_centroid="520.4924472998176,46.07419299836785" moovel_centroidlatlon="4.8670219999999995,52.333119249999996"/>
  <polygon id="431900719" points="419.060148256,46.983489971 419.057548656,64.788968894 391.111214572,64.787811142 391.113738048,46.971428474 419.060148256,46.983489971 " moovel_rot="-0.4" moovel_centroid="405.08423666921266,55.882920156787975" moovel_centroidlatlon="4.867920528656776,52.33476277513221"/>
  <polygon id="374946798" points="442.518533876,9.381033074 441.986931392,19.852148067 399.917767064,19.794119857 399.715880556,9.436385396 442.518533876,9.381033074 " moovel_rot="157.6" moovel_centroid="421.0735224668166,14.600958735741244" moovel_centroidlatlon="4.918357628463463,52.401600758482964"/>
  <polygon id="23148057" points="200.443402195,45.004160424 102.935991137,46.9319028786 102.700457771,34.2983308138 201.385993134,34.3321422467 200.443402195,45.004160424 " moovel_rot="141.8" moovel_centroid="150.48237347068104,40.14274379054545" moovel_centroidlatlon="4.896994020876079,52.37924451534807"/>
  <polygon id="431900721" points="117.454816215,60.508598574 117.440034082,67.927980205 187.446813084,67.952144208 187.451100072,60.525448104 117.454816215,60.508598574 " moovel_rot="93.4" moovel_centroid="152.4539364692163,64.2286372819861" moovel_centroidlatlon="4.8688680213102264,52.33852662764767"/>
  <polygon id="364380123" points="192.444452452,57.995756465 192.46331731,65.166483367 210.057027553,65.155795166 210.038168327,57.985058432 192.444452452,57.995756465 " moovel_rot="29.8" moovel_centroid="201.2507434195626,61.57577316411269" moovel_centroidlatlon="4.9562453500000005,52.32257875"/>
  <polygon id="436160685" points="140.348530329,26.892324644 132.099042077,26.900441328 121.930946177,26.906084317 121.930541973,29.304915773 132.124195609,29.298472057 140.348129563,29.291158063 140.348530329,26.892324644 " moovel_rot="119.7" moovel_centroid="131.13948803901502,28.099401819437034" moovel_centroidlatlon="4.959216910551871,52.3242853031574"/>
  <polygon id="118729255" points="558.925797767,66.907255023 558.969185436,62.18488775 573.789420967,62.181732944 573.810704962,66.916348204 558.925797767,66.907255023 " moovel_rot="94.9" moovel_centroid="566.3769758781339,64.5492731280623" moovel_centroidlatlon="4.908841196524057,52.37555028054552"/>
  <polygon id="436160680" points="193.784718932,52.008363525 204.443885729,52.011617965 204.449410847,50.136436244 193.611377574,50.139726865 193.784718932,52.008363525 " moovel_rot="119.4" moovel_centroid="199.07536341650413,51.071436030994114" moovel_centroidlatlon="4.966467693927112,52.3273263623839"/>
  <polygon id="192153624" points="578.793816132,63.149254795 578.78416141,58.321866744 591.357128948,58.331945207 591.360773207,63.156420245 578.793816132,63.149254795 " moovel_rot="25.9" moovel_centroid="585.0733382670971,60.73967914530037" moovel_centroidlatlon="4.955249215220608,52.32260324905381"/>
  <polygon id="394389222" points="476.321190853,56.496863632 464.089720353,58.908795921 469.736149104,67.952149175 480.473130813,67.949943603 476.321190853,56.496863632 " moovel_rot="87.1" moovel_centroid="472.7657635848432,62.61849826775561" moovel_centroidlatlon="4.979735542104565,52.35705011029028"/>
  <polygon id="436160682" points="574.40084691,54.001949744 554.526347328,54.007600065 554.524773868,57.186148746 563.628589829,57.183667908 574.399278395,57.180501315 574.40084691,54.001949744 " moovel_rot="120.3" moovel_centroid="564.4628084841343,55.594076547660514" moovel_centroidlatlon="4.952160950391542,52.32186455008902"/>
  <polygon id="67498390" points="288.701994505,38.83746531 250.744822499,33.748015853 253.027494739,8.4934472613 291.832713787,8.4578112138 288.701994505,38.83746531 " moovel_rot="149.1" moovel_centroid="271.67071053337816,22.402189014612002" moovel_centroidlatlon="4.898694233055928,52.3809806610344"/>
  <polygon id="386499107" points="117.954524123,51.819095795 117.948209395,55.508716285 155.534557886,55.507630655 155.541139552,51.811336332 117.954524123,51.819095795 " moovel_rot="92.3" moovel_centroid="136.7502681738217,53.66169201053101" moovel_centroidlatlon="4.873306171557581,52.34084340186471"/>
  <polygon id="211258066" points="74.605211448,41.654050744 72.798616767,43.398914446 72.631977913,45.33341041 74.189648486,46.932246012 91.424613079,46.936970238 93.942519613,45.376124473 94.010332361,43.137791818 91.332065197,41.634905632 74.605211448,41.654050744 " moovel_rot="-1.0" moovel_centroid="83.25777174754673,44.29977746852692" moovel_centroidlatlon="4.892357334405748,52.367012472055826"/>
  <polygon id="364391700" points="575.214961287,43.337095798 575.204834654,49.435627671 586.702126976,49.438738009 586.702742667,43.334868844 575.214961287,43.337095798 " moovel_rot="119.3" moovel_centroid="580.9570037679534,46.38700358749535" moovel_centroidlatlon="4.955044049361844,52.32139063358486"/>
</svg>