<svg><g transform="translate(0 0)"><polygon id="0" class="bin" points="222.089650735,3.75034191106 220.991422061,1.09847045712 218.339650751,0.0 1.875,0.0 -0.77665042945,1.09834957055 -1.875,3.75 -1.875,1203.75 -0.77665042945,1206.40165043 1.875,1207.5 230.80519605,1207.5 233.421309437,1206.43671747 234.553866734,1203.8498404 235.499815941,1168.33263312 236.923525401,1164.96816218 237.151936596,1162.79553663 236.13078767,1160.86428617 235.966878313,1160.69924146 235.610684499,1160.3120068 235.341933839,1159.99640349 235.096193112,1159.69055299 234.728709487,1159.20545424 234.402600014,1158.73556563 234.054558402,1158.18665037 233.769970752,1157.69381982 233.320372976,1156.83499271 233.036058586,1156.21987162 232.698966324,1155.38476029 230.681769661,1153.33437876 228.647122832,1152.474228 226.948717981,1148.53269918 226.291543456,1122.11416082 227.831056657,1118.0526988 229.213862818,1117.41164765 231.255815716,1114.99136619 231.31429503,1114.77582056 231.602446802,1114.00271101 231.618410071,1113.95905683 231.815886368,1113.40846995 231.897093479,1113.21196071 231.809151617,1110.15093556 231.400464793,1109.30341466 233.043568746,1105.05265396 239.085851718,1098.91953521 242.844364811,1097.20685647 244.807235737,1095.0934051 244.688911791,1092.21147199 242.559394799,1090.26604239 241.87268542,1090.01887086 232.526033327,1081.20508342 230.725342836,1077.10595206 231.412935687,1075.42238205 231.257424853,1072.25355519 231.047044001,1071.85512031 230.265864914,1070.15760137 230.123649745,1069.77639294 228.059359459,1067.62847175 226.413171063,1066.93872215 224.696326085,1063.02166483 223.687158372,1032.0879342 225.377940271,1027.63859666 227.008636943,1025.86372806 227.950413068,1023.12755458 233.36654507,1017.09732273 238.580213026,1014.64416631 239.089843496,1014.62382097 241.039057055,1012.46251807 242.076420573,1009.48572063 241.908910433,1006.61428107 241.187452905,1005.12783113 240.949816883,1004.57855386 239.868320195,1001.746394 239.421473853,999.551329678 239.404417839,999.089008594 239.400263097,999.003127081 239.351278852,998.185030064 239.340466781,997.916697445 239.320098076,996.934696437 239.338127406,996.274648314 239.396423547,995.502501686 239.461005179,994.948093222 239.6223912,993.925795442 239.677515438,993.621279276 239.848202738,992.786084657 239.933707279,992.419238794 240.158525967,991.561680708 240.494161617,990.586546088 240.755588646,989.97940767 240.823876677,989.809511916 240.937470431,989.505663167 241.326659128,988.648679213 241.611599378,988.120612932 241.582894879,984.506881859 241.290582084,983.985157734 242.829156118,979.558319726 265.538379191,955.525823412 269.835633824,953.737001574 271.006522604,954.294023683 274.134674234,954.337067429 276.20690026,951.993338632 276.614510224,950.645688983 280.648879523,948.611552182 293.178774125,947.834165757 296.81487095,949.189932305 300.263867838,948.756453147 301.874999,945.676235607 301.874999,699.277690188 301.580404268,697.820750095 300.064376173,694.225206605 299.790998186,693.697908209 292.703292216,682.331696997 292.61142802,682.191460939 284.039951865,669.723785465 284.011471827,669.682943196 274.200588981,655.81069435 273.663850805,654.914196117 269.149753369,645.87976342 268.783073618,644.997242866 264.441178997,632.077447585 264.233518776,631.317967849 261.241698552,617.253254572 261.091451405,615.86130206 261.006962864,600.367416985 260.504376089,514.225418422 260.568111371,513.250662006 262.577133478,498.615408121 262.735869191,497.81511736 265.241256571,488.211516756 265.407216304,487.668319215 269.385966545,476.342844955 269.687886948,475.618566594 274.084323531,466.565035258 274.63524557,465.627489058 279.44585623,458.751447365 284.969353424,455.865258627 296.872447814,455.833236185 299.690024753,454.546338968 300.578285498,451.578875891 298.93116971,448.955547121 236.147071968,407.427177616 233.689192769,403.795756202 234.507869867,399.487837974 242.930196094,386.610340466 243.251079379,386.005532354 252.12647158,364.79929948 252.375304551,363.910642029 255.746473116,341.553599386 255.768363673,340.607416972 252.447119049,308.600749389 252.303020335,307.890524119 245.121793805,284.422399771 244.973544411,284.021261527 233.925036924,258.674026036 233.561350302,255.165063804 235.290540644,252.090167925 251.759106861,236.725438172 252.108000626,236.491736311 253.625650336,234.410183204 253.442277689,231.840650475 250.423695577,225.114810166 250.162259799,221.081583729 252.606715391,217.862903716 265.706771698,209.574077394 269.3756228,208.702391949 272.805696979,210.269202419 295.361546111,231.679868444 295.461082378,231.780332044 298.113407427,232.890986898 300.772548017,231.796750321 301.874999,229.141004813 301.874999,216.201137763 299.876243738,212.885170051 225.661790475,173.6906778 222.074698857,167.739020399 222.089650735,3.75034191106 " moovel_rot="0" moovel_centroid="129.90275386448255,613.7594872361932" transform="translate(1.875 0)"></polygon><g transform="translate(450.77131689999965 -196.3978990999998) rotate(0)"><polygon id="376073232" class="tile" points="-378.056567198,1202.45674992 -402.541896057,1207.71514598 -403.349881966,1203.63857474 -427.61762121,1208.94861957 -426.780514523,1212.59544559 -430.629030875,1213.54143586 -437.872483719,1215.37169531 -448.207830213,1217.88336688 -445.165615259,1231.01646619 -447.619451827,1231.61595674 -447.88636982,1237.9820252 -445.857108011,1245.68742911 -447.727698529,1246.30867951 -446.642449541,1252.99571636 -445.018693053,1261.42545899 -448.086416252,1262.15401853 -445.482529492,1275.92078439 -448.247209243,1276.44648855 -444.900924611,1290.41957108 -447.031990588,1291.12579711 -448.214215336,1291.27428896 -448.024967583,1297.05596658 -445.779544291,1305.63322794 -447.572991569,1305.937771 -444.445840393,1319.58022199 -447.874715791,1320.62583122 -445.722893861,1331.04415172 -448.271761254,1331.91093569 -448.151869541,1338.2859278 -446.100636454,1345.79693145 -443.292929404,1359.8716494 -443.084702962,1363.05668912 -442.912946027,1365.63079247 -439.598478196,1366.91820177 -435.51040685,1369.51851334 -432.935445216,1371.90269305 -430.840896279,1374.27446894 -429.173865459,1377.56486913 -427.655242164,1382.80002333 -426.600233514,1388.87370898 -424.999622826,1396.45460362 -383.05887753,1387.31796618 -380.83570477,1386.88580504 -378.144018831,1384.58864085 -390.993726558,1325.66219852 -369.505278588,1320.81787126 -367.573661293,1325.62409193 -336.987229473,1318.53898614 -337.686311222,1313.19344246 -335.653259499,1312.74626823 -351.832665771,1236.45858757 -355.778050278,1237.41170046 -357.039909368,1231.57112793 -362.636357587,1228.47341814 -366.145734474,1229.29664446 -366.650753915,1228.1566389 -367.549943913,1222.277925 -363.57474376,1221.40717692 -366.83680073,1205.0373275 -370.60633652,1205.92678121 -371.500804468,1205.30037559 -372.42545556,1202.21624196 -373.62334449,1201.26183561 -375.344788421,1201.0 -378.056567198,1202.45674992 " moovel_rot="19.9" moovel_centroid="-400.618956536,1290.4288950084633"></polygon></g><g transform="translate(256.0092316 -535.0655529999999) rotate(0)"><polygon id="25163889" class="tile" points="-253.509227035,1535.47184754 -143.449034396,1534.3068677 -144.102856367,1398.6705609 -253.481573207,1396.45460362 -253.509227035,1535.47184754 " moovel_rot="-71.8" moovel_centroid="-198.860833183,1466.29677443"></polygon></g><g transform="translate(113.24183590000001 -841.248468) rotate(0)"><polygon id="354587915" class="tile" points="-19.9943793291,1535.47184754 -95.0670264171,1537.8117906 -94.3699531328,1611.48866548 -110.681919535,1611.80566971 -110.741835043,1697.64017587 0.0,1693.44785872 -0.665700322576,1611.68566764 -17.6881790025,1611.82437838 -19.9943793291,1535.47184754 " moovel_rot="62.2" moovel_centroid="-56.213326680196204,1623.43313367"></polygon></g><g transform="translate(399.266501 -1137.5787386) rotate(0)"><polygon id="59383258" class="tile" points="-255.552186113,2288.02405202 -283.042727338,1993.7485943 -223.317436626,1990.23526908 -223.522555048,2168.50695266 -223.651575988,2286.35642402 -255.552186113,2288.02405202 " moovel_rot="-32.5" moovel_centroid="-247.076027457,2124.64232743"></polygon></g><g transform="translate(175.58255730000002 -540.6633219) rotate(0)"><polygon id="285988332" class="tile" points="-5.49219247513,1216.71454769 -5.98605437875,1214.19309045 -6.68477565423,1212.79316575 -8.08547557369,1211.12899384 -9.45692799203,1209.93429282 -10.8768272251,1209.09190687 -12.6463360541,1208.82152379 -16.2647226773,1208.26271253 -16.8096955869,1201.85092607 -28.5310633391,1201.14198135 -46.9386966418,1201.0 -65.6257672083,1201.05019717 -65.6767166916,1206.26597051 -66.8018711869,1206.52678017 -68.0745045263,1207.02821391 -69.2817872502,1207.74864688 -70.2825985231,1208.50938909 -70.9865277834,1209.30372788 -72.1697708938,1210.80197352 -72.6679728474,1211.68067059 -72.9053944223,1212.84343403 -73.278540704,1213.86553061 -76.8519452281,1213.78859686 -76.8276227824,1251.6486581 -71.464161063,1251.7220922 -72.0417631179,1285.9151005 -67.8290084608,1287.13305832 -44.1032299958,1288.13866973 -46.0849522784,1295.40048776 -44.7314230647,1297.02739789 -43.887875776,1299.60180459 -44.1638828754,1303.99255073 -43.9773617946,1346.41053196 -34.6660913166,1348.92109254 -31.5208129041,1348.87197289 -28.1491612263,1351.1441751 -27.692815312,1352.7432333 -28.3061387606,1353.51983548 -31.5238386527,1350.30910455 -33.2573515628,1365.83488404 -30.0878384776,1370.01187241 -31.9145967402,1380.05183971 -31.5024255801,1383.32333705 -30.5659372088,1386.6853023 -27.9379392512,1389.27408515 -25.457845943,1389.92713889 -23.0317608714,1389.6894531 -21.1411027465,1388.76109517 -19.8354292993,1387.56044701 -18.5519070439,1385.78435223 -17.7476889491,1384.71215202 -17.5360116087,1384.44412202 -13.2098768484,1385.23832166 -8.92686703578,1356.19257567 -12.4009844534,1351.49604093 -12.0366215244,1350.67904651 -7.30490718633,1345.70066629 -6.54400069863,1342.16156151 -6.34999638312,1325.3305762 -5.96694561318,1293.85177565 -1.77884828113,1293.69998473 -1.65888694227,1264.27858435 -1.03970283233,1232.34991341 -1.0,1217.42780213 -4.65669147149,1217.5640949 -5.16193738431,1217.28782813 -5.49219247513,1216.71454769 " moovel_rot="-38.3" moovel_centroid="-33.52352705321265,1274.0296006057652"></polygon></g><g transform="translate(488.7733703 -990.8944819999999) rotate(0)"><polygon id="233333777" class="tile" points="-437.944970413,1544.47148761 -406.287761307,1631.33123552 -408.514347649,1639.91618428 -408.456942545,1641.31343429 -408.846722043,1642.21552818 -412.272101521,1651.45767025 -410.89186065,1656.57822936 -409.929525852,1660.49550807 -479.5153712,1685.42094779 -484.827878577,1670.10228842 -486.40108068,1657.97710821 -486.287025143,1656.19506113 -478.500764777,1656.18911788 -476.997897097,1601.10113781 -476.340584446,1586.02041131 -476.887434157,1578.27434171 -486.356873231,1551.31058301 -483.333587436,1550.33675033 -482.505674209,1549.91663665 -482.499301909,1548.85806664 -483.470616469,1545.84665247 -456.584983712,1535.47184754 -454.600606287,1541.44540641 -450.86699515,1540.53404963 -448.679234705,1546.75167627 -452.979144225,1548.76786959 -451.458577103,1553.36779765 -451.012681716,1553.65398644 -450.480806523,1553.60574769 -450.194266686,1553.23947017 -451.408396409,1549.4088799 -437.944970413,1544.47148761 " moovel_rot="-22.2" moovel_centroid="-449.820105506,1613.62225431"></polygon></g><g transform="translate(217.77757259999998 -1826.4389694000001) rotate(0)"><polygon id="157893723" class="tile" points="-130.385109307,2482.20742805 0.0,2480.00049613 -2.15330292732,2293.76979566 -129.743265186,2288.02405202 -129.873800601,2302.99613234 -21.026993214,2307.42752295 -19.3210071422,2465.89819501 -130.386806234,2467.56786375 -130.385109307,2482.20742805 " moovel_rot="-68.4" moovel_centroid="-41.32406928453719,2386.58594515"></polygon></g><g transform="translate(477.5612069 -1218.8564167) rotate(0)"><polygon id="285998679" class="tile" points="-346.193667819,1709.71898716 -403.071534839,1697.64017587 -404.081589036,1701.46369807 -404.757476091,1701.77112532 -405.621302083,1701.61815382 -409.410698513,1700.60057484 -411.428008019,1710.84826889 -407.872738823,1711.65088346 -407.185389631,1712.52633914 -411.491523158,1713.92923625 -403.130486799,1739.30373279 -399.894580094,1738.40389418 -399.332986197,1738.89253552 -411.51980544,1799.57686612 -334.675113758,1814.92878906 -329.86736694,1793.09241919 -317.175122286,1794.980103 -315.446437635,1785.54983893 -339.943565625,1780.38240338 -337.493016788,1763.71424656 -311.614998129,1768.9532038 -309.455315834,1758.9981607 -351.765387469,1749.29833871 -342.123294748,1710.18948062 -346.193667819,1709.71898716 " moovel_rot="40.2" moovel_centroid="-369.900585137,1758.89031828"></polygon></g><g transform="translate(667.6128499 -1133.2074503) rotate(0)"><polygon id="450419556" class="tile" points="-457.940422317,1837.45007196 -457.946493218,1845.2993798 -453.436936195,1845.28920002 -453.502545415,1905.06278918 -460.074129592,1905.07953486 -460.109130353,1937.58007677 -414.841392298,1937.47922154 -414.894990313,1982.26025784 -488.62867499,1982.42720172 -488.483256685,1854.34490253 -476.176609483,1854.3133199 -476.162160244,1837.49090062 -457.940422317,1837.45007196 " moovel_rot="59.4" moovel_centroid="-461.184013206,1925.64927894"></polygon></g><g transform="translate(408.260391 -1464.3862719) rotate(0)"><polygon id="281396281" class="tile" points="-405.81365556,1979.46212081 -354.474133078,1990.23526908 -343.687607705,1938.83493905 -354.649195413,1936.53245876 -364.035012279,1981.26168206 -376.487240906,1978.64714425 -376.16943275,1977.14655541 -372.040679527,1978.01351712 -368.674941618,1975.86467972 -358.513504122,1927.41335529 -362.068520504,1926.66780134 -345.862031405,1849.43170209 -402.979516139,1837.45007196 -405.700644891,1850.42855044 -399.453024252,1860.47155055 -401.980026555,1872.53928981 -384.165622201,1876.27877717 -403.753068664,1969.6418456 -405.81365556,1979.46212081 " moovel_rot="-4.2" moovel_centroid="-375.381664848,1913.60772478"></polygon></g><g transform="translate(334.5629586 -965.5739445999999) rotate(0)"><polygon id="393403105" class="tile" points="-113.402823751,1837.45007196 -78.9547953423,1885.93498496 -95.4800175579,1898.16132861 -88.2523692463,1907.12097738 -78.9540172111,1921.31921222 -132.102633199,1959.082825 -132.554760599,1984.93447386 -146.232131742,1986.27267874 -153.709690441,1895.44369959 -138.904282076,1888.57584819 -140.27761691,1851.84343231 -132.893747633,1851.80086043 -113.402823751,1837.45007196 " moovel_rot="34.1" moovel_centroid="-120.69269969,1906.24553291"></polygon></g><g transform="translate(528.1605188 -1189.6614368) rotate(0)"><polygon id="185021231" class="tile" points="-294.041643233,1577.70725593 -316.336121588,1581.68318778 -320.63612164,1606.48423426 -282.718823428,1613.65545074 -286.170461323,1638.37578046 -283.502453249,1652.83587496 -283.053620929,1655.17829231 -283.195888016,1657.29978254 -286.337008388,1656.72489086 -342.037208012,1646.53629608 -340.139537393,1632.75691626 -331.666121309,1571.77301843 -342.038529016,1570.09736843 -340.244029341,1561.33254962 -331.281804356,1562.62155706 -327.428269307,1535.47184754 -320.427391049,1536.75574671 -288.670552593,1542.55928205 -289.001846213,1544.34294387 -294.041643233,1577.70725593 " moovel_rot="68.9" moovel_centroid="-313.523540975,1600.38476775"></polygon></g><g transform="translate(285.3113704 -1377.7665899) rotate(0)"><polygon id="286996658" class="tile" points="-159.064592661,1811.21854885 -135.001748213,1836.00231887 -131.45603641,1837.45007196 -127.340303925,1836.22087293 -108.164516122,1813.23929572 -105.320461904,1808.62525943 -104.326473863,1803.30613765 -102.938122625,1761.65336117 -104.601897413,1758.84343495 -107.505309957,1756.29333679 -106.352309647,1724.38952897 -107.104706366,1719.95055094 -109.34487293,1716.30518532 -106.021762257,1712.26334479 -123.067166129,1697.64017587 -134.305395322,1713.07090582 -137.728501496,1714.9839626 -148.116584136,1722.53069719 -159.047649682,1732.7242078 -134.70075368,1758.3567153 -113.753142473,1723.20338394 -115.410587275,1763.1924578 -159.064592661,1811.21854885 " moovel_rot="-71.5" moovel_centroid="-126.615771424,1770.99916771"></polygon></g><g transform="translate(472.6045006 -1164.7855410000002) rotate(0)"><polygon id="219541902" class="tile" points="-358.128321667,1535.47184754 -353.871907728,1619.34895392 -366.836636998,1619.8494056 -366.811067184,1620.21574164 -367.706191074,1620.29408502 -372.606233641,1620.66186827 -373.210764894,1612.55601616 -383.908148359,1613.34796685 -383.315311705,1621.28162552 -405.287761307,1622.91225723 -405.254674004,1538.16840697 -358.128321667,1535.47184754 " moovel_rot="-31.6" moovel_centroid="-380.708909505,1578.75597807"></polygon></g><g transform="translate(338.9722033 -148.5162229) rotate(0)"><polygon id="166776565" class="tile" points="-131.141191746,1201.37272466 -156.636436637,1201.0 -159.227138189,1340.54712247 -159.183852932,1343.58390752 -159.146653337,1345.14338329 -158.641410974,1347.27689886 -158.188025067,1348.24477413 -132.002569166,1348.51640626 -131.614271908,1347.12523744 -131.089588187,1344.02556277 -130.898461687,1341.78835494 -131.769611532,1316.27912968 -131.141191746,1201.37272466 " moovel_rot="25.1" moovel_centroid="-144.720347211,1275.8947534065076"></polygon></g><g transform="translate(417.2701772 -1342.2400075) rotate(0)"><polygon id="43633113" class="tile" points="-169.648626635,1992.64845998 -198.146525322,2000.50920661 -198.059975301,2089.64667907 -161.301200552,2088.30669343 -156.029120692,2026.25519202 -165.158673288,2024.823563 -159.416589667,1990.23526908 -169.648626635,1992.64845998 " moovel_rot="-16.0" moovel_centroid="-178.660044712,2042.54965855"></polygon></g><g transform="translate(514.3720703 -905.556088) rotate(0)"><polygon id="310082522" class="tile" points="-449.271761254,1201.0 -449.279267371,1274.59818212 -456.514972607,1274.78013612 -480.335025769,1274.90158167 -480.577341505,1274.93616464 -480.528470566,1262.58997143 -485.133303491,1262.57538042 -485.124125157,1259.20209949 -485.066538898,1244.81511579 -497.035103484,1244.77000916 -496.986470298,1243.46254547 -496.965125813,1238.92822305 -511.872067435,1238.50153235 -511.869587286,1212.8475964 -499.593850437,1212.99641604 -499.358505561,1201.21891964 -449.271761254,1201.0 " moovel_rot="48.3" moovel_centroid="-474.777646696,1233.6737465807112"></polygon></g><g transform="translate(323.0633876 -1556.328569) rotate(0)"><polygon id="301013843" class="tile" points="-227.03394973,1918.79731588 -226.930376945,1922.20539016 -218.4716153,1921.95713454 -218.112151212,1918.58397611 -215.993799579,1918.20004337 -214.484680185,1917.99600242 -213.514592778,1915.7991824 -213.75022033,1910.06846847 -209.39227129,1910.19735608 -209.432425981,1837.71801834 -248.695117125,1837.45007196 -248.943808159,1840.99447963 -249.859009397,1843.54739681 -250.902190728,1845.85164844 -252.169662607,1848.54084858 -252.516388653,1850.66227805 -252.966618304,1876.74362325 -252.10526029,1879.77443546 -251.017143191,1881.79051093 -249.903014574,1883.3509258 -249.114754699,1886.48913845 -249.052682404,1892.33200128 -249.153400813,1898.9149759 -249.249397057,1902.89084297 -248.881065012,1906.26313146 -248.171231624,1908.87113899 -246.941838704,1912.33091047 -244.568815201,1916.12365713 -242.879378638,1918.59921228 -241.44678906,1920.47117804 -240.07967563,1921.90872144 -238.93291764,1923.01257273 -237.937681998,1923.69363619 -236.699939338,1923.52628682 -235.97353595,1922.16917435 -235.97245802,1920.1831594 -236.223189396,1918.32871015 -234.050978522,1918.44282833 -230.223722293,1918.63460224 -227.03394973,1918.79731588 " moovel_rot="7.7" moovel_centroid="-230.137943478,1877.45398352"></polygon></g><g transform="translate(652.4814581 -1124.7946327) rotate(0)"><polygon id="331125086" class="tile" points="-465.264320802,1465.63771999 -465.308287144,1396.45460362 -417.852032789,1396.47331497 -417.809438328,1465.66519199 -465.264320802,1465.63771999 " moovel_rot="-8.9" moovel_centroid="-441.55801909,1431.05754054"></polygon></g><g transform="translate(407.484828 -1062.9679904999998) rotate(0)"><polygon id="108185553" class="tile" points="-155.302549321,1638.40815733 -185.611808882,1638.28369779 -185.588902988,1535.47184754 -155.290414828,1535.5974031 -155.302549321,1638.40815733 " moovel_rot="-46.1" moovel_centroid="-170.448447536,1586.94332159"></polygon></g><g transform="translate(410.1696794 -1204.9994433) rotate(0)"><polygon id="301510359" class="tile" points="-251.124360109,1697.64017587 -254.177414929,1701.4380719 -255.657535164,1703.48736157 -276.526118984,1730.62028649 -274.005481546,1732.73222299 -245.497167738,1733.87724487 -242.25204994,1734.03995478 -236.474072665,1734.26770735 -240.682813431,1808.9574285 -239.41670935,1809.02524867 -240.045531401,1824.75785814 -227.347311067,1825.00959602 -225.322455744,1823.91891672 -223.996702831,1823.19680693 -222.233281843,1821.79345026 -221.134531973,1819.90916803 -220.627513078,1799.62798942 -223.607190549,1799.43371016 -222.461501923,1762.44006141 -220.904800347,1727.1128745 -220.589974868,1719.29050163 -221.039282447,1717.17735228 -222.357062902,1715.41202441 -238.509209753,1700.05074116 -245.353556547,1700.99024241 -251.124360109,1697.64017587 " moovel_rot="4.9" moovel_centroid="-237.614474495,1752.01258902"></polygon></g><g transform="translate(220.59321160000002 -1448.4033929) rotate(0)"><polygon id="246735404" class="tile" points="-58.3234217025,1697.64017587 -56.8625818301,1756.80449174 -68.4310277112,1756.85502808 -68.3904098131,1773.8405848 -101.938122625,1773.33642958 -101.885184548,1701.72140159 -58.3234217025,1697.64017587 " moovel_rot="-67.1" moovel_centroid="-80.4970717251,1735.07934061"></polygon></g><g transform="translate(214.85423889999998 -854.2961424) rotate(0)"><polygon id="283161987" class="tile" points="-92.3305730533,2054.29603967 -92.3035782143,1990.25212786 -134.395008548,1990.23526908 -135.211744573,1990.52619923 -135.586562056,1990.74807125 -136.260473542,1991.30136243 -136.543713561,1991.6348144 -136.783702831,1991.99599821 -137.137776723,1992.79367261 -137.296063223,1993.64233495 -137.321065609,2054.27739296 -92.3305730533,2054.29603967 " moovel_rot="26.0" moovel_centroid="-114.791560017,2022.29481725"></polygon></g><g transform="translate(801.5292632 -937.6830751) rotate(0)"><polygon id="185329229" class="tile" points="-563.480376452,1815.55501931 -545.065440324,1830.92631076 -522.469088246,1824.27703412 -522.472179193,1775.19538446 -522.47943687,1698.55418874 -524.30262016,1697.64017587 -550.50911653,1734.60228764 -530.929460772,1749.18556838 -534.548122219,1753.80500375 -529.058115536,1757.77711818 -536.152947885,1767.72504482 -531.646098871,1771.03522842 -563.480376452,1815.55501931 " moovel_rot="5.0" moovel_centroid="-535.048088562,1776.19295659"></polygon></g><g transform="translate(398.59872440000004 -1766.2559313000002) rotate(0)"><polygon id="245186346" class="tile" points="-356.494189094,2056.80021248 -356.4973409,2051.69499369 -352.434183339,2051.68629902 -352.44115938,1994.39643117 -357.306414449,1994.41192334 -357.302735442,1990.23526908 -369.75141031,1990.25899882 -369.752069638,1994.62283943 -374.407398783,1994.63253275 -379.750033059,1994.64418558 -379.749637131,1990.24462754 -392.157296779,1990.26917626 -392.158606772,1994.76727945 -396.098719294,1994.77842794 -396.087932028,2051.91560805 -391.929639239,2051.90596101 -391.929242267,2056.85971819 -356.494189094,2056.80021248 " moovel_rot="11.2" moovel_centroid="-374.276221164,2023.99795193"></polygon></g><g transform="translate(317.4550787 -1385.5641030000002) rotate(0)"><polygon id="182759596" class="tile" points="-248.44434265,1536.7288523 -265.850272795,1535.47184754 -266.550326906,1560.46102132 -260.4567624,1560.93771971 -258.375110991,1575.19926823 -258.888365509,1598.52659242 -264.282992479,1598.31526757 -264.538650112,1607.33058121 -265.138000107,1629.18785124 -266.051353287,1662.14397922 -266.381716497,1674.33145411 -258.895626294,1674.85127099 -250.805307736,1675.40202357 -246.578598127,1568.1147013 -249.420006243,1563.5529183 -248.44434265,1536.7288523 " moovel_rot="-90.4" moovel_centroid="-256.497680283,1606.5145272"></polygon></g><g transform="translate(430.5560397 -1221.1317459000002) rotate(0)"><polygon id="443296705" class="tile" points="-328.171725395,1398.76148966 -354.691825747,1396.45460362 -354.549556471,1497.26743939 -335.679574043,1496.44943203 -328.171725395,1398.76148966 " moovel_rot="-34.7" moovel_centroid="-343.222977257,1444.40466031"></polygon></g><g transform="translate(146.1470285 -1660.9554844) rotate(0)"><polygon id="364973779" class="tile" points="0.0,1842.39411524 -2.49316238388,1847.26028706 -5.57215422168,1846.88021904 -8.88535983302,1846.00465338 -11.3394620173,1846.05419258 -11.9739455011,1846.70908377 -11.1970543005,1847.05043232 -7.99633117318,1847.12801397 -6.79377381541,1855.65416646 -9.78021359369,1856.50721669 -9.93079572357,1858.02090011 -6.29953553081,1857.16232262 -0.576201653481,1891.80642805 -0.0110271066427,1896.09431798 -2.02080926746,1895.84658903 -3.33003569506,1896.30874989 -4.2004252173,1897.23923846 -4.33175038397,1898.62622327 -3.88216260821,1901.80218538 -17.6353899915,1906.35937027 -19.4142054029,1902.03840607 -19.818252096,1903.1832862 -20.1820327096,1905.1757833 -20.0987273835,1907.50937051 -28.8141864046,1909.47948422 -39.3714443296,1845.75566375 -33.1980732881,1844.34131029 -32.3026946437,1839.81143739 -27.75842086,1837.45007196 -20.4552402154,1838.29842701 0.0,1842.39411524 " moovel_rot="-55.5" moovel_centroid="-19.452135615413155,1871.79030641"></polygon></g><g transform="translate(568.463305 -1670.4122739) rotate(0)"><polygon id="412129499" class="tile" points="-524.525075126,1837.89169136 -553.536933037,1837.75953774 -553.741204134,1861.99633314 -549.39671071,1862.43164153 -549.546589668,1864.35398629 -553.392925659,1864.45406592 -553.695634232,1879.34191909 -555.289904721,1879.41913055 -555.545030932,1864.64210111 -559.652362222,1864.27518464 -559.672076404,1862.03569792 -556.473424404,1861.8856758 -555.553900816,1837.45007196 -559.152969064,1837.62293461 -565.96338717,1844.90538678 -565.584818688,1878.63224967 -565.645548354,1886.23148454 -558.481559383,1888.76817281 -550.11959416,1889.40961304 -524.563153902,1889.23236076 -524.534237829,1864.68180448 -528.812709918,1864.0086676 -529.1234308,1862.3437465 -524.553949124,1862.44232292 -524.525075126,1837.89169136 " moovel_rot="29.2" moovel_centroid="-544.369930786,1863.87042287"></polygon></g><g transform="translate(666.6915541000001 -1682.7385682) rotate(0)"><polygon id="266174997" class="tile" points="-489.62867499,1927.37875904 -515.6860085,1926.69655204 -515.228923959,1886.78819306 -515.14805588,1877.28895881 -515.098632109,1871.80320308 -513.582176767,1871.82237168 -513.587735406,1872.5672309 -505.578198794,1872.64107471 -505.566806258,1871.17764044 -502.407090066,1871.20588732 -502.112678097,1837.45007196 -490.088905478,1837.50816546 -489.639523326,1891.90028768 -489.62867499,1927.37875904 " moovel_rot="0.6" moovel_centroid="-501.004094109,1889.32590642"></polygon></g><g transform="translate(256.0561224 -1818.6234716000001) rotate(0)"><polygon id="450445971" class="tile" points="-44.0894852294,2058.94435618 -73.9932625908,2063.2504644 -73.9985855397,2029.68917152 -69.5768102204,2027.50442212 -68.772179128,2023.62340151 -69.0490912473,2017.97110302 -70.5356626818,2008.09696872 -71.0451111211,2001.49076639 -70.5899630215,1997.32370337 -67.3974600423,1994.2424096 -62.1698552789,1991.95746684 -52.7079963896,1990.23526908 -49.4045317674,2015.78093584 -45.691145228,2046.26587531 -44.0894852294,2058.94435618 " moovel_rot="-76.3" moovel_centroid="-60.0445759828,2030.12287071"></polygon></g><g transform="translate(804.9422322 -882.2430112000001) rotate(0)"><polygon id="437711628" class="tile" points="-509.810901913,1700.95108173 -512.967442138,1697.64017587 -520.675142409,1700.2917075 -520.142996988,1702.10264963 -521.469088246,1821.86654641 -509.650250994,1822.8035215 -509.810901913,1700.95108173 " moovel_rot="-5.0" moovel_centroid="-515.260643645,1762.06062837"></polygon></g><g transform="translate(336.3815616 -1574.3818709999998) rotate(0)"><polygon id="220775541" class="tile" points="-219.589974868,1745.88539334 -219.586355113,1722.61430985 -207.636518948,1722.66753424 -207.623156802,1697.64017587 -198.237021449,1697.68708537 -198.244968739,1708.0674096 -177.113330238,1708.15760291 -177.120837367,1714.20719257 -192.247866069,1714.14460341 -192.247969757,1721.61961123 -176.94725434,1721.68318064 -176.950781904,1746.06093019 -219.589974868,1745.88539334 " moovel_rot="-49.5" moovel_centroid="-197.815767724,1727.5473423"></polygon></g><g transform="translate(216.4534815 -1574.93426) rotate(0)"><polygon id="413357494" class="tile" points="0.0,1698.61506713 -0.0164040226489,1745.22017195 -4.81682999991,1745.40906294 -7.57517732643,1743.50024204 -9.74490930587,1741.99894297 -9.8044593282,1738.16270527 -15.0880445592,1738.20623622 -14.9996716294,1733.88912847 -20.130934348,1733.84926222 -22.327942244,1732.8127557 -24.5308090635,1731.7794561 -24.7979694486,1728.67668714 -28.8030885089,1728.83003068 -28.7886822503,1724.75334846 -37.4452100236,1724.71407098 -43.5294233032,1724.68607091 -42.8103274204,1697.64017587 0.0,1698.61506713 " moovel_rot="28.7" moovel_centroid="-19.059611366595952,1716.49121224"></polygon></g><g transform="translate(508.368415 -1862.2070270000002) rotate(0)"><polygon id="315149993" class="tile" points="-433.696977105,1990.33073538 -433.714160999,2008.97690567 -434.357700863,2008.97847822 -434.366249544,2032.51976045 -417.185259885,2032.68002337 -417.116764163,2023.38449483 -397.098719294,2023.54290773 -397.173665324,1990.23526908 -433.696977105,1990.33073538 " moovel_rot="68.2" moovel_centroid="-416.712300887,2009.35367114"></polygon></g><g transform="translate(557.1066816 -620.6823965) rotate(0)"><polygon id="283808777" class="tile" points="-303.51029501,1245.69343741 -334.653259499,1246.19935842 -334.579507129,1201.0 -306.573062188,1201.83572532 -304.715238771,1207.24625907 -303.890636259,1218.6586175 -303.51029501,1245.69343741 " moovel_rot="-18.6" moovel_centroid="-319.428648374,1223.9404121944588"></polygon></g><g transform="translate(572.765933 -991.1265135) rotate(0)"><polygon id="242113919" class="tile" points="-277.526118984,1697.64017587 -308.427847715,1697.6469363 -308.433492047,1702.3501045 -308.418791377,1714.25948184 -308.441757819,1718.59383639 -308.455315834,1746.35183838 -287.912346239,1746.3473423 -287.909903324,1744.52077296 -287.906936312,1728.35706284 -287.900867671,1727.22712361 -277.54211082,1727.22483676 -277.545348273,1726.06937428 -277.540465917,1718.648869 -277.564061038,1713.92221796 -277.530813808,1702.88144022 -277.526118984,1697.64017587 " moovel_rot="5.8" moovel_centroid="-294.54866098,1719.7568075"></polygon></g><g transform="translate(300.2305426 -1722.3094475999999) rotate(0)"><polygon id="220769451" class="tile" points="-253.978853451,1884.78630997 -253.966618304,1837.57544145 -284.43560955,1837.45007196 -284.441123623,1868.04009271 -265.265741057,1868.11611635 -265.272766448,1884.74790507 -253.978853451,1884.78630997 " moovel_rot="-39.2" moovel_centroid="-267.598011698,1856.77202581"></polygon></g><g transform="translate(224.3653908 -1765.0871073) rotate(0)"><polygon id="185193628" class="tile" points="-154.745544237,1837.45007196 -154.709690441,1910.27096903 -169.915575088,1910.19290034 -169.955775737,1851.99172586 -167.389734273,1851.98307254 -167.392577746,1839.72132473 -160.296430472,1839.70967247 -160.300591615,1837.45817033 -154.745544237,1837.45007196 " moovel_rot="4.7" moovel_centroid="-162.084917963,1875.40583031"></polygon></g><g transform="translate(534.1250272999999 -1917.7402414) rotate(0)"><polygon id="325008931" class="tile" points="-435.392346711,2040.69263071 -452.290269655,2040.84523868 -452.279117631,2036.45346403 -457.862135664,2036.30793337 -457.576259566,2007.73161586 -459.497510191,2007.66582654 -459.088392531,1992.68280867 -435.366249544,1990.23526908 -435.392346711,2040.69263071 " moovel_rot="-78.5" moovel_centroid="-446.540029873,2015.26544015"></polygon></g><g transform="translate(341.8145568 -1127.5552412000002) rotate(0)"><polygon id="185631124" class="tile" points="-199.488327071,1248.1195049 -199.486155385,1240.69256873 -199.4795777,1201.0901328 -182.868375284,1201.02950078 -176.179471283,1201.0 -176.182646546,1248.03601507 -199.488327071,1248.1195049 " moovel_rot="40" moovel_centroid="-187.832096969,1224.5631648515794"></polygon></g><g transform="translate(417.2024087 -1148.1815087) rotate(0)"><polygon id="324970102" class="tile" points="-200.488327071,1243.30713663 -225.360232298,1201.0 -238.252317824,1207.69498222 -217.1287985,1245.14627548 -238.270973757,1258.02352465 -234.21358535,1266.35194693 -214.748200177,1255.37709214 -216.135446201,1252.18291037 -200.488327071,1243.30713663 " moovel_rot="0.8" moovel_centroid="-220.906596176,1233.1103837571025"></polygon></g><g transform="translate(311.3271168 -1776.0452831) rotate(0)"><polygon id="377121569" class="tile" points="-285.441123623,1886.1860029 -308.809427476,1886.18579307 -308.827130666,1867.29818376 -303.290942285,1867.299605 -303.306339094,1851.17097555 -308.00819959,1851.17224841 -308.02675358,1837.45255973 -285.492753056,1837.45007196 -285.441123623,1886.1860029 " moovel_rot="-81.9" moovel_centroid="-296.258556633,1862.23419288"></polygon></g><g transform="translate(619.4741362 -1464.709643) rotate(0)"><polygon id="185193616" class="tile" points="-515.726757449,1559.23975007 -502.501365932,1559.28288171 -502.512651312,1535.47184754 -487.433089778,1535.52213057 -487.40108068,1582.97881825 -515.716974865,1582.88590485 -515.726757449,1559.23975007 " moovel_rot="-49.8" moovel_centroid="-499.261441802,1562.83304437"></polygon></g><g transform="translate(425.1839579 -1394.7843146999999) rotate(0)"><polygon id="288654454" class="tile" points="-310.678693799,1990.23526908 -310.712289455,2026.67586612 -340.427220384,2027.06829181 -340.526087935,2003.05082968 -335.236134836,2003.0458091 -335.219396866,1990.28518874 -310.678693799,1990.23526908 " moovel_rot="61.3" moovel_centroid="-324.807381729,2009.339823"></polygon></g><g transform="translate(257.422033 -42.10836640000002) rotate(0)"><polygon id="264015131" class="tile" points="-101.360640826,1202.39767356 -120.503754339,1201.0 -120.189342657,1217.83244057 -129.671634451,1217.92889691 -129.884245878,1227.98268373 -129.898461687,1242.10837957 -101.216209175,1241.96331505 -101.360640826,1202.39767356 " moovel_rot="-24.2" moovel_centroid="-114.150847182,1223.7506294689097"></polygon></g><g transform="translate(243.6292435 -1804.0935455) rotate(0)"><polygon id="253908601" class="tile" points="-13.596776328,2028.3138457 -13.3974149102,2030.96856218 -21.5941086927,2031.25584388 -28.2627199749,2031.47971531 -28.5963246793,1994.86820647 -26.5660483014,1994.82997978 -26.4094978441,1990.403513 -15.7829595705,1990.23526908 0.0,1990.431999 -0.0826909929514,2000.03211736 -0.0230919817463,2017.47550918 -0.796914089844,2017.47498314 -13.6325428482,2017.514724 -13.6244686369,2019.55118048 -15.8907191936,2019.56077167 -15.8696404623,2024.09323367 -13.6120464273,2024.08507555 -13.596776328,2028.3138457 " moovel_rot="-80.6" moovel_centroid="-15.570891285632225,2008.14845302"></polygon></g><g transform="translate(304.7172607 -640.5978953) rotate(0)"><polygon id="286996659" class="tile" points="-84.0176790932,1436.46477013 -84.0562232727,1439.94967925 -72.5932499694,1439.00302363 -67.3511957141,1438.56169528 -59.761893063,1437.8863868 -60.0086481368,1435.21262128 -61.7071852593,1417.59438468 -61.169290996,1417.63857006 -59.7135425614,1398.26356157 -83.7865856173,1396.45460362 -85.6314610338,1408.37483118 -81.6207032828,1408.71238512 -84.0176790932,1436.46477013 " moovel_rot="61.2" moovel_centroid="-72.2002070605,1418.00316956"></polygon></g><g transform="translate(409.95759080000005 -1380.18432) rotate(0)"><polygon id="181275815" class="tile" points="-297.987372885,1396.45460362 -312.722395606,1415.80372901 -327.171725395,1434.7879519 -297.996992719,1456.29900211 -297.987372885,1396.45460362 " moovel_rot="-86.6" moovel_centroid="-307.7191216,1429.17935155"></polygon></g><g transform="translate(76.7369855 -1380.0525444) rotate(0)"><polygon id="219622786" class="tile" points="-23.8813520994,1439.99502485 -46.312902046,1440.08531064 -46.309561453,1401.97818115 -24.078594704,1396.45460362 -23.8813520994,1439.99502485 " moovel_rot="-67.9" moovel_centroid="-34.8967848594,1419.62559634"></polygon></g><g transform="translate(339.2854532 -1972.3366554999998) rotate(0)"><polygon id="442637499" class="tile" points="-199.146525322,2038.12714192 -219.517345842,2038.10821093 -219.514576514,2018.95723604 -222.316950907,2018.95499401 -222.317436626,2002.40058959 -218.867124788,2002.40732719 -218.862483746,1990.23526908 -212.114338733,1990.23618662 -212.114743858,2002.75830155 -199.149603791,2002.76640811 -199.146525322,2038.12714192 " moovel_rot="-82.1" moovel_centroid="-210.576719522,2017.52595364"></polygon></g><g transform="translate(135.8007834 -1818.0010611999999) rotate(0)"><polygon id="184136304" class="tile" points="-59.4067168426,1877.99994752 -77.9451763105,1877.9316827 -77.9540172111,1837.45007196 -54.655576542,1837.53947383 -54.6576770514,1843.03765417 -54.6481300157,1859.89844024 -59.403683148,1859.88230408 -59.4067168426,1877.99994752 " moovel_rot="-49.1" moovel_centroid="-67.2333961383,1856.60696753"></polygon></g><g transform="translate(660.4216925 -595.1217968999999) rotate(0)"><polygon id="412123949" class="tile" points="-512.872067435,1201.0 -540.926071861,1201.06404666 -540.949903074,1230.41041816 -512.895928282,1230.34631891 -512.872067435,1201.0 " moovel_rot="29.4" moovel_centroid="-526.910996856,1215.705193353097"></polygon></g><g transform="translate(655.82902 -1362.2550718999998) rotate(0)"><polygon id="261699298" class="tile" points="-488.475757193,1430.69582638 -486.818969741,1430.69790152 -486.810219115,1418.00797388 -486.808873272,1408.37777125 -492.305933563,1408.38700983 -492.295289302,1396.45460362 -510.669531612,1396.46785626 -510.668967028,1400.54266571 -510.695154691,1426.77124446 -510.691836903,1430.71178352 -488.475757193,1430.69582638 " moovel_rot="10.3" moovel_centroid="-499.547345526,1414.55657034"></polygon></g><g transform="translate(282.08134739999997 -693.612867) rotate(0)"><polygon id="220789396" class="tile" points="-160.123459421,1697.65338602 -160.148387168,1700.61609852 -160.121726961,1714.23161905 -160.087440361,1727.89061383 -160.064592661,1741.23861589 -160.154416423,1743.58594882 -168.08726268,1743.75916046 -175.94725434,1743.76315726 -175.947168223,1697.99317148 -167.775934054,1697.64017587 -160.123459421,1697.65338602 " moovel_rot="47.2" moovel_centroid="-168.022597854,1720.74416097"></polygon></g><g transform="translate(470.6892074 -1388.9062796) rotate(0)"><polygon id="299606223" class="tile" points="-296.914762529,1400.55637746 -292.365164025,1396.45460362 -289.585285307,1398.7230083 -286.201965282,1401.49981003 -282.510493582,1404.51930334 -281.973171035,1408.70560356 -278.959320344,1408.44698767 -278.933335585,1411.52198667 -278.213295319,1412.43783865 -277.26465057,1412.7666712 -275.582842013,1417.10936716 -274.744852654,1419.2790854 -272.357635248,1426.75433477 -272.239930314,1430.89738823 -272.079051906,1436.71560912 -296.987372885,1437.62396855 -294.938044993,1433.95712804 -296.816778954,1404.59781054 -296.914762529,1400.55637746 " moovel_rot="-29.2" moovel_centroid="-285.940514569,1420.25057871"></polygon></g><g transform="translate(460.37753879999997 -538.254168) rotate(0)"><polygon id="219682491" class="tile" points="-263.609705246,1201.37587152 -263.204802953,1227.24831201 -263.073224606,1231.24330174 -254.735222503,1231.0664703 -256.242471385,1237.51035457 -280.804191244,1236.80167337 -280.789244991,1201.0 -263.609705246,1201.37587152 " moovel_rot="8.7" moovel_centroid="-271.150412184,1220.2795891192943"></polygon></g><g transform="translate(177.6794739 -1189.5405697) rotate(0)"><polygon id="376403773" class="tile" points="-175.179471283,1245.94847876 -160.231256115,1245.93566945 -160.227138189,1201.0 -175.175371029,1201.01280651 -175.179471283,1245.94847876 " moovel_rot="81.0" moovel_centroid="-167.703309232,1223.4742342514696"></polygon></g><g transform="translate(410.14849 -637.3856309999999) rotate(0)"><polygon id="285497491" class="tile" points="-135.390582231,1579.01120425 -149.471687874,1579.05815793 -149.477428913,1561.44737577 -146.322661132,1561.43725043 -146.326768097,1555.5366019 -150.227330165,1555.55053386 -150.231213955,1541.65028813 -154.287401403,1541.66642837 -154.284581695,1538.66324087 -154.290414828,1535.53121127 -135.246461842,1535.47184754 -135.241591355,1548.14577752 -140.156106161,1548.15827821 -140.150983511,1554.16223454 -135.400078633,1554.14828652 -135.390582231,1579.01120425 " moovel_rot="65.4" moovel_centroid="-143.051219649,1556.40952433"></polygon></g><g transform="translate(422.6556477 -1331.5246496) rotate(0)"><polygon id="232494205" class="tile" points="-391.772319341,1439.16693825 -375.54606748,1439.08105036 -375.855460621,1396.45460362 -391.769457439,1399.28696144 -391.772319341,1439.16693825 " moovel_rot="66.1" moovel_centroid="-383.645539321,1418.5538063"></polygon></g><g transform="translate(273.2293629 -1178.50906) rotate(0)"><polygon id="201149336" class="tile" points="-138.333377173,2025.57698228 -155.029120692,2025.59149965 -155.015229058,1990.25839558 -138.321065609,1990.23526908 -138.333377173,2025.57698228 " moovel_rot="10.4" moovel_centroid="-146.674359222,2007.91581554"></polygon></g><g transform="translate(684.3696759 -822.5790085000001) rotate(0)"><polygon id="314449215" class="tile" points="-562.946099,1201.26085976 -560.654443275,1201.23960018 -549.907720912,1201.0 -542.174493503,1201.46629357 -541.949903074,1225.52503585 -547.812674981,1225.58593073 -547.883827552,1231.20994248 -562.965042055,1231.20611587 -562.946099,1201.26085976 " moovel_rot="58.3" moovel_centroid="-552.929833194,1215.542834965498"></polygon></g><g transform="translate(368.4444491 -146.04536110000004) rotate(0)"><polygon id="220792578" class="tile" points="-239.270973757,1242.18389496 -244.770478368,1249.11998509 -251.66001508,1246.1683615 -252.894087488,1238.28026859 -253.302368844,1227.68029108 -253.735222503,1217.30759286 -249.938929495,1220.30802524 -247.500966467,1201.0 -243.611458633,1201.56117327 -241.819557583,1203.15568989 -239.274769427,1201.56609561 -239.742674646,1207.41726507 -240.238723602,1213.66738095 -240.881154596,1220.54318453 -240.816402642,1228.72639189 -240.260236572,1235.18194399 -239.270973757,1242.18389496 " moovel_rot="21.7" moovel_centroid="-246.048608175,1226.296650368407"></polygon></g><g transform="translate(189.9584188 -1146.8992301) rotate(0)"><polygon id="299944939" class="tile" points="0.0,1411.03106019 -10.2467889436,1411.24345116 -13.5442197852,1411.46221359 -13.4846089426,1429.94783526 -21.8558601994,1429.83055602 -21.8813520994,1396.59793531 -10.6491700407,1396.61081757 -0.307275969163,1396.45460362 0.0,1411.03106019 " moovel_rot="30.5" moovel_centroid="-13.212119823804093,1409.38382745"></polygon></g><g transform="translate(281.5338324 -1530.4600374) rotate(0)"><polygon id="266864174" class="tile" points="-112.741835043,1559.69629806 -112.760040095,1535.6237801 -134.068522258,1535.47184754 -134.241591355,1559.545919 -124.024204837,1559.61419206 -120.614121758,1559.62914426 -112.741835043,1559.69629806 " moovel_rot="61.2" moovel_centroid="-123.453722964,1547.60028477"></polygon></g><g transform="translate(214.802602 -682.9603382) rotate(0)"><polygon id="317378540" class="tile" points="-53.6481300157,1837.49789759 -53.621214788,1876.11479318 -41.3714443296,1876.06695061 -41.3983292455,1837.45007196 -53.6481300157,1837.49789759 " moovel_rot="60.8" moovel_centroid="-47.5097800512,1856.78242038"></polygon></g><g transform="translate(735.5685755 -964.0717793) rotate(0)"><polygon id="220769440" class="tile" points="-466.308287144,1421.74568834 -485.808873272,1427.8692179 -485.798127115,1402.60990051 -467.586899646,1396.45460362 -466.308287144,1421.74568834 " moovel_rot="-64.3" moovel_centroid="-476.344119349,1412.30355653"></polygon></g><g transform="translate(736.0826063000001 -1985.2926483) rotate(0)"><polygon id="187909074" class="tile" points="-520.700105199,2023.18459121 -520.661758653,1990.23526908 -538.56956426,1994.90494602 -538.24979412,2006.89337618 -531.300835962,2006.69164233 -530.089186354,2023.61085487 -520.700105199,2023.18459121 " moovel_rot="76.0" moovel_centroid="-527.737331806,2005.67769023"></polygon></g><g transform="translate(353.9338634 -1267.8323357) rotate(0)"><polygon id="330741649" class="tile" points="-341.531573454,1990.23526908 -341.526087935,2033.10948427 -350.84497396,2033.3784491 -351.434183339,1995.97887053 -341.531573454,1990.23526908 " moovel_rot="60.6" moovel_centroid="-346.230456648,2012.92580229"></polygon></g><g transform="translate(303.7869202 -832.6258522999999) rotate(0)"><polygon id="395655352" class="tile" points="-74.9985855397,1990.45992975 -81.1869597157,1990.35006124 -87.5181640046,1990.23526908 -87.6499370197,1993.85807206 -87.6123126965,1999.77965428 -91.3035782143,1999.79687646 -91.2679968588,2005.70525749 -86.8232780639,2005.67953427 -86.091588736,2006.39082792 -86.0722897068,2008.17890389 -86.8031272115,2008.90708801 -91.2478456516,2008.93281117 -91.1890473284,2018.08854747 -84.9971523702,2018.04917885 -85.0072823232,2016.20561358 -78.9571954288,2016.16792182 -78.9470657518,2018.01148713 -76.9779810563,2017.99728214 -75.0093930025,2018.03722387 -75.0103463892,2014.01592672 -74.9985855397,1990.45992975 " moovel_rot="-81.2" moovel_centroid="-82.380356808,2004.49075296"></polygon></g><g transform="translate(495.2177058 -1253.7093897) rotate(0)"><polygon id="299854159" class="tile" points="-330.469840973,1844.24236883 -333.865258773,1837.45007196 -335.399775283,1840.12325674 -339.109500003,1847.7281207 -339.854260281,1850.41796571 -341.742228605,1857.17729573 -342.687607705,1865.87212311 -342.069756105,1875.74900956 -339.425590099,1884.56644939 -337.826859248,1887.7797037 -335.049140452,1887.88578975 -330.483735541,1888.69933719 -332.154054117,1884.98131157 -334.33670545,1878.97430172 -335.45833839,1870.51490017 -335.1202204,1861.58963911 -333.774402251,1852.96160675 -332.154680332,1848.68194519 -330.469840973,1844.24236883 " moovel_rot="53.1" moovel_centroid="-337.161009138,1864.37641641"></polygon></g><g transform="translate(262.8947632 -699.6184169) rotate(0)"><polygon id="220792593" class="tile" points="-55.8625818301,1747.64303403 -49.0614506198,1743.05919397 -46.6872026399,1735.09190581 -45.5294233032,1721.10319875 -48.154791794,1707.27182743 -51.6114562854,1697.64017587 -55.8415338766,1707.43518991 -53.0981987845,1715.20320222 -52.9003056034,1727.65274685 -54.560202872,1738.90411427 -55.8625818301,1747.64303403 " moovel_rot="40.5" moovel_centroid="-50.6084183209,1723.33721632"></polygon></g><g transform="translate(323.39464680000003 -540.7445674) rotate(0)"><polygon id="299906229" class="tile" points="-127.868539367,1397.04096211 -135.612200431,1396.74102821 -142.449034396,1396.45460362 -142.434800757,1421.08773424 -135.782968262,1421.51308763 -127.987757254,1422.01353647 -127.868539367,1397.04096211 " moovel_rot="54.6" moovel_centroid="-135.168065985,1409.13384114"></polygon></g><g transform="translate(129.368536 -1048.3836068) rotate(0)"><polygon id="351235531" class="tile" points="-126.868539367,1396.45460362 -126.843979237,1416.50245589 -108.674156418,1416.49250081 -108.701468278,1398.92545997 -108.683629302,1396.48215236 -112.745395382,1396.45744476 -126.868539367,1396.45460362 " moovel_rot="-7.8" moovel_centroid="-117.774380923,1406.47821541"></polygon></g><g transform="translate(547.9505851 -863.6416541000001) rotate(0)"><polygon id="443326482" class="tile" points="-281.718823428,1535.51925461 -267.550326906,1535.47184754 -267.557141658,1560.63530375 -281.718176411,1560.68735536 -281.718823428,1535.51925461 " moovel_rot="58.1" moovel_centroid="-274.636336046,1548.07733625"></polygon></g><g transform="translate(426.318401 -508.3735566999999) rotate(0)"><polygon id="330741657" class="tile" points="-245.578598127,1555.5427701 -239.153081411,1555.73944857 -227.820764617,1556.09341242 -227.802466255,1535.54664112 -245.566184849,1535.47184754 -245.578598127,1555.5427701 " moovel_rot="-28.3" moovel_centroid="-236.657262804,1545.6631121"></polygon></g><g transform="translate(419.8157617 -871.6722376999999) rotate(0)"><polygon id="185515239" class="tile" points="-374.54606748,1409.41630422 -374.517320359,1413.24771908 -374.395005647,1420.45105733 -355.691825747,1420.2488974 -355.71249715,1396.47879839 -357.920628159,1396.46878637 -360.744529366,1396.45460362 -360.917699979,1409.64862402 -365.538978102,1409.57226953 -370.094190994,1409.49350982 -374.54606748,1409.41630422 " moovel_rot="-50.6" moovel_centroid="-363.434547738,1411.98678751"></polygon></g><g transform="translate(692.9738757 -1108.5142531) rotate(0)"><polygon id="273617494" class="tile" points="-511.695154691,1396.71560878 -524.259987891,1396.45460362 -524.241439098,1420.10838561 -512.336307906,1420.19516494 -511.695154691,1396.71560878 " moovel_rot="-70.2" moovel_centroid="-518.138949686,1408.26209835"></polygon></g><g transform="translate(511.15023590000004 -1172.2003817) rotate(0)"><polygon id="426140948" class="tile" points="-504.480601991,1698.05003631 -504.480601991,1698.05003631 -506.788672938,1697.9720436 -508.650250994,1697.64017587 -508.650250994,1697.64017587 -508.649627874,1699.40556423 -508.649627874,1699.40556423 -508.648924079,1701.11727975 -508.64370043,1702.73178958 -507.145745508,1702.74281821 -507.145745508,1702.74281821 -507.145745508,1702.74281821 -507.156986014,1703.67269502 -507.167480361,1704.83321606 -507.192504348,1706.92942707 -507.214239507,1709.01982475 -507.239263801,1711.11603559 -507.264288249,1713.21224634 -507.27631857,1715.39254951 -507.291638042,1717.57866583 -507.340270236,1719.37757942 -507.340270236,1719.37757942 -507.340270236,1719.37757942 -507.340270236,1719.37757942 -505.289003874,1719.35632351 -503.271050427,1718.94786474 -501.253097344,1718.53940578 -499.230786268,1718.14108652 -497.212833913,1717.73262714 -495.666455335,1717.53315642 -494.116788011,1717.32787231 -494.116788011,1717.32787231 -494.009033704,1715.47799365 -493.935723861,1713.99233068 -493.935723861,1713.99233068 -493.793525394,1711.77823614 -493.685771389,1709.92835731 -493.539133973,1707.6707298 -493.392496701,1705.41310221 -493.283916199,1703.74019456 -493.283916199,1703.74019456 -493.283916199,1703.74019456 -493.152573861,1701.47391351 -493.059288231,1699.79235244 -492.966002686,1698.11079133 -494.797473105,1698.11826857 -496.636591249,1698.12141894 -498.47135141,1698.134709 -500.30282297,1698.1421856 -502.66450506,1698.08757965 -502.66450506,1698.08757965 -504.480601991,1698.05003631 " moovel_rot="60.5" moovel_centroid="-500.711667093,1707.93733357"></polygon></g><g transform="translate(260.8351438 -737.6604294) rotate(0)"><polygon id="220892650" class="tile" points="-47.3154090425,1420.52317004 -47.312902046,1396.45460362 -58.7135425614,1396.48741475 -58.7115371693,1420.5660663 -47.3154090425,1420.52317004 " moovel_rot="61.3" moovel_centroid="-53.0137462135,1408.50702079"></polygon></g><g transform="translate(309.4245766 -1598.0647362999998) rotate(0)"><polygon id="299906166" class="tile" points="-198.805413843,1845.34543603 -203.221622407,1837.45007196 -205.730385377,1842.27805991 -207.754843547,1852.3370322 -208.39227129,1858.52435103 -208.099461797,1864.43817844 -207.931729293,1867.74727713 -207.212495319,1870.92105336 -198.810374483,1874.64063402 -200.337737018,1868.44486063 -201.250256789,1859.93549562 -200.556020609,1851.82803416 -198.805413843,1845.34543603 " moovel_rot="26.3" moovel_centroid="-203.822012065,1856.86372924"></polygon></g><g transform="translate(662.60072 -1618.7667635999999) rotate(0)"><polygon id="167246604" class="tile" points="-491.966002686,1697.64017587 -491.963514042,1720.95354009 -480.77309715,1720.99205991 -480.781195417,1697.67507025 -491.966002686,1697.64017587 " moovel_rot="-32.7" moovel_centroid="-486.370807869,1709.31618607"></polygon></g><g transform="translate(575.7922189 -774.2571345) rotate(0)"><polygon id="299669478" class="tile" points="-573.292258378,1201.0 -568.309332223,1201.16735814 -563.965042055,1201.63329064 -564.589900287,1206.75540686 -565.834756228,1229.30096831 -573.066061577,1228.80944263 -573.276318163,1215.27624283 -570.953695963,1215.31349651 -570.921708642,1211.30456393 -573.253877995,1211.28206789 -573.292258378,1201.0 " moovel_rot="-32.9" moovel_centroid="-568.986737851,1214.6511969877622"></polygon></g><g transform="translate(534.8011068999999 -1690.819646) rotate(0)"><polygon id="275609291" class="tile" points="-448.660388372,1697.64017587 -448.653567705,1716.94934074 -439.036673624,1720.26684307 -432.339508465,1703.73512182 -433.212881909,1703.41505843 -448.660388372,1697.64017587 " moovel_rot="77.3" moovel_centroid="-442.04740207,1708.86335814"></polygon></g><g transform="translate(439.2799418 -443.2281190000001) rotate(0)"><polygon id="377472331" class="tile" points="-222.110816628,1563.97658378 -226.802466255,1559.41364909 -224.704219279,1553.44481048 -224.351335574,1546.6211279 -225.261625894,1541.45931576 -226.776407894,1536.35687606 -219.030526765,1535.47184754 -216.369863983,1544.69456275 -215.739696401,1551.57071787 -216.521611199,1556.55110481 -218.566485537,1560.16177228 -222.110816628,1563.97658378 " moovel_rot="-82.5" moovel_centroid="-221.12471236,1549.17089349"></polygon></g><g transform="translate(472.9277389 -427.35781599999996) rotate(0)"><polygon id="185148196" class="tile" points="-352.871907728,1558.30911525 -352.860063456,1535.47184754 -343.038529016,1535.48384542 -343.049265686,1558.32769983 -347.218045398,1558.3215227 -352.871907728,1558.30911525 " moovel_rot="-80.4" moovel_centroid="-347.954696554,1546.89877025"></polygon></g><g transform="translate(469.03894039999994 -1875.0947265) rotate(0)"><polygon id="224291351" class="tile" points="-460.502965679,2022.44463644 -460.497510191,1990.23781689 -466.53349272,1990.23526908 -466.536432098,2011.78462143 -466.538945421,2022.4420884 -460.502965679,2022.44463644 " moovel_rot="-85.2" moovel_centroid="-463.518051238,2006.33984492"></polygon></g><g transform="translate(45.5894847 -805.2835012) rotate(0)"><polygon id="375468791" class="tile" points="-43.0894852294,1990.23526908 -43.08040794,2005.28369166 -30.9182123117,2005.13363699 -30.5963246793,1990.64800529 -43.0894852294,1990.23526908 " moovel_rot="-90.3" moovel_centroid="-36.9596536664,1997.79110715"></polygon></g><g transform="translate(488.6844271 -953.1987451) rotate(0)"><polygon id="301843493" class="tile" points="-281.804191244,1201.08836064 -286.133623763,1201.07841974 -292.188641275,1201.02109007 -293.78253447,1201.0 -293.760143404,1215.68172629 -287.735172694,1215.71656682 -281.841893776,1215.72510869 -281.804191244,1201.08836064 " moovel_rot="7.8" moovel_centroid="-287.800331217,1208.3771237693222"></polygon></g><g transform="translate(497.59944470000005 -1176.754511) rotate(0)"><polygon id="270200274" class="tile" points="-406.81365556,1837.58983812 -406.864575816,1859.81245344 -413.825826488,1859.58109097 -413.841392298,1837.45007196 -406.81365556,1837.58983812 " moovel_rot="26.3" moovel_centroid="-410.333894815,1848.5908816"></polygon></g><g transform="translate(394.6140118 -196.62294430000009) rotate(0)"><polygon id="369869155" class="tile" points="-302.497692124,1201.37011681 -300.360502146,1201.4096005 -295.029428161,1201.0 -294.78253447,1220.42853194 -302.51029501,1220.92129969 -302.497692124,1201.37011681 " moovel_rot="63.0" moovel_centroid="-298.705995851,1211.0215732297033"></polygon></g><g transform="translate(580.1203124 -946.1263075) rotate(0)"><polygon id="185193603" class="tile" points="-479.764549837,1710.11075135 -468.491859291,1710.60553364 -468.380110564,1697.71039291 -479.77309715,1697.64017587 -479.764549837,1710.11075135 " moovel_rot="39.0" moovel_centroid="-474.070524777,1704.00645036"></polygon></g><g transform="translate(176.01444750000002 -1201.6932752999999) rotate(0)"><polygon id="300863063" class="tile" points="-173.514449342,1837.45007196 -170.955775737,1837.5873066 -171.048426653,1861.99225355 -173.479446,1861.95321457 -173.514449342,1837.45007196 " moovel_rot="7.6" moovel_centroid="-172.250197892,1849.64132296"></polygon></g><g transform="translate(526.0250156 -1133.1997724) rotate(0)"><polygon id="324275924" class="tile" points="-516.704391189,1837.45007196 -520.715419967,1837.60704274 -523.438810396,1837.70908031 -523.453752825,1839.67600799 -523.525075126,1849.26089329 -520.027517112,1850.10071317 -516.6860085,1851.60392756 -516.704391189,1837.45007196 " moovel_rot="68.6" moovel_centroid="-519.973409128,1843.9522211"></polygon></g><g transform="translate(497.4672241 -983.6703263) rotate(0)"><polygon id="163806018" class="tile" points="-493.554642566,1999.74399726 -494.967216821,1999.75306173 -494.966499028,1990.24292162 -493.560453003,1990.23526908 -493.554642566,1999.74399726 " moovel_rot="12.2" moovel_centroid="-494.262218831,1994.99748354"></polygon></g></g><g transform="translate(0 1327.7)"><polygon id="0" class="bin" points="222.089650735,3.75034191106 220.991422061,1.09847045712 218.339650751,0.0 1.875,0.0 -0.77665042945,1.09834957055 -1.875,3.75 -1.875,1203.75 -0.77665042945,1206.40165043 1.875,1207.5 230.80519605,1207.5 233.421309437,1206.43671747 234.553866734,1203.8498404 235.499815941,1168.33263312 236.923525401,1164.96816218 237.151936596,1162.79553663 236.13078767,1160.86428617 235.966878313,1160.69924146 235.610684499,1160.3120068 235.341933839,1159.99640349 235.096193112,1159.69055299 234.728709487,1159.20545424 234.402600014,1158.73556563 234.054558402,1158.18665037 233.769970752,1157.69381982 233.320372976,1156.83499271 233.036058586,1156.21987162 232.698966324,1155.38476029 230.681769661,1153.33437876 228.647122832,1152.474228 226.948717981,1148.53269918 226.291543456,1122.11416082 227.831056657,1118.0526988 229.213862818,1117.41164765 231.255815716,1114.99136619 231.31429503,1114.77582056 231.602446802,1114.00271101 231.618410071,1113.95905683 231.815886368,1113.40846995 231.897093479,1113.21196071 231.809151617,1110.15093556 231.400464793,1109.30341466 233.043568746,1105.05265396 239.085851718,1098.91953521 242.844364811,1097.20685647 244.807235737,1095.0934051 244.688911791,1092.21147199 242.559394799,1090.26604239 241.87268542,1090.01887086 232.526033327,1081.20508342 230.725342836,1077.10595206 231.412935687,1075.42238205 231.257424853,1072.25355519 231.047044001,1071.85512031 230.265864914,1070.15760137 230.123649745,1069.77639294 228.059359459,1067.62847175 226.413171063,1066.93872215 224.696326085,1063.02166483 223.687158372,1032.0879342 225.377940271,1027.63859666 227.008636943,1025.86372806 227.950413068,1023.12755458 233.36654507,1017.09732273 238.580213026,1014.64416631 239.089843496,1014.62382097 241.039057055,1012.46251807 242.076420573,1009.48572063 241.908910433,1006.61428107 241.187452905,1005.12783113 240.949816883,1004.57855386 239.868320195,1001.746394 239.421473853,999.551329678 239.404417839,999.089008594 239.400263097,999.003127081 239.351278852,998.185030064 239.340466781,997.916697445 239.320098076,996.934696437 239.338127406,996.274648314 239.396423547,995.502501686 239.461005179,994.948093222 239.6223912,993.925795442 239.677515438,993.621279276 239.848202738,992.786084657 239.933707279,992.419238794 240.158525967,991.561680708 240.494161617,990.586546088 240.755588646,989.97940767 240.823876677,989.809511916 240.937470431,989.505663167 241.326659128,988.648679213 241.611599378,988.120612932 241.582894879,984.506881859 241.290582084,983.985157734 242.829156118,979.558319726 265.538379191,955.525823412 269.835633824,953.737001574 271.006522604,954.294023683 274.134674234,954.337067429 276.20690026,951.993338632 276.614510224,950.645688983 280.648879523,948.611552182 293.178774125,947.834165757 296.81487095,949.189932305 300.263867838,948.756453147 301.874999,945.676235607 301.874999,699.277690188 301.580404268,697.820750095 300.064376173,694.225206605 299.790998186,693.697908209 292.703292216,682.331696997 292.61142802,682.191460939 284.039951865,669.723785465 284.011471827,669.682943196 274.200588981,655.81069435 273.663850805,654.914196117 269.149753369,645.87976342 268.783073618,644.997242866 264.441178997,632.077447585 264.233518776,631.317967849 261.241698552,617.253254572 261.091451405,615.86130206 261.006962864,600.367416985 260.504376089,514.225418422 260.568111371,513.250662006 262.577133478,498.615408121 262.735869191,497.81511736 265.241256571,488.211516756 265.407216304,487.668319215 269.385966545,476.342844955 269.687886948,475.618566594 274.084323531,466.565035258 274.63524557,465.627489058 279.44585623,458.751447365 284.969353424,455.865258627 296.872447814,455.833236185 299.690024753,454.546338968 300.578285498,451.578875891 298.93116971,448.955547121 236.147071968,407.427177616 233.689192769,403.795756202 234.507869867,399.487837974 242.930196094,386.610340466 243.251079379,386.005532354 252.12647158,364.79929948 252.375304551,363.910642029 255.746473116,341.553599386 255.768363673,340.607416972 252.447119049,308.600749389 252.303020335,307.890524119 245.121793805,284.422399771 244.973544411,284.021261527 233.925036924,258.674026036 233.561350302,255.165063804 235.290540644,252.090167925 251.759106861,236.725438172 252.108000626,236.491736311 253.625650336,234.410183204 253.442277689,231.840650475 250.423695577,225.114810166 250.162259799,221.081583729 252.606715391,217.862903716 265.706771698,209.574077394 269.3756228,208.702391949 272.805696979,210.269202419 295.361546111,231.679868444 295.461082378,231.780332044 298.113407427,232.890986898 300.772548017,231.796750321 301.874999,229.141004813 301.874999,216.201137763 299.876243738,212.885170051 225.661790475,173.6906778 222.074698857,167.739020399 222.089650735,3.75034191106 " moovel_rot="0" moovel_centroid="129.90275386448255,613.7594872361932" transform="translate(1.875 0)"></polygon><g transform="translate(217.2396987 -365.1657711999999) rotate(0)"><polygon id="236572128" class="tile" points="-186.611808882,1535.47283272 -208.272196237,1535.47243696 -214.718407119,1535.47184754 -214.739696401,1554.48114425 -201.233156775,1554.48149904 -201.239946395,1561.93048245 -193.598544739,1561.93425221 -193.599616084,1565.16571533 -186.640961497,1565.16255973 -186.611808882,1535.47283272 " moovel_rot="8.3" moovel_centroid="-199.216711825,1547.76728028"></polygon></g><g transform="translate(102.71575969999999 -82.49391250000008) rotate(0)"><polygon id="285497542" class="tile" points="-77.8519452281,1201.0 -82.6605519926,1201.07144607 -85.0634087548,1201.11503081 -85.317509871,1214.4286002 -94.5446658652,1214.25771789 -99.9377291027,1214.15478613 -100.216209175,1228.83567609 -87.8020801011,1229.02592426 -87.829658867,1230.35564006 -87.7781519307,1247.41636496 -77.8694530781,1247.802636 -77.8628423505,1238.39411792 -77.8611352976,1229.01978156 -77.8540053211,1219.45196907 -77.8525990468,1210.05575378 -77.8519452281,1201.0 " moovel_rot="67.1" moovel_centroid="-85.9036862956,1224.4835530817584"></polygon></g><g transform="translate(419.3094478 -311.49839109999994) rotate(0)"><polygon id="412123941" class="tile" points="-392.791101514,1425.01115107 -392.772319341,1396.55014902 -416.793978809,1396.45460362 -416.809438328,1424.92139995 -392.791101514,1425.01115107 " moovel_rot="-60.6" moovel_centroid="-404.79211587,1410.73399589"></polygon></g><g transform="translate(589.4380935 -423.6628378999999) rotate(0)"><polygon id="393413919" class="tile" points="-547.645255602,1535.47184754 -547.550326931,1568.86705005 -543.595463913,1568.40144913 -543.885113045,1583.71618999 -547.608045061,1584.37204308 -547.636900087,1587.51864547 -550.717506034,1588.01036227 -558.519590997,1589.24000018 -558.48736214,1538.22870954 -549.959449504,1536.94181833 -547.645255602,1535.47184754 " moovel_rot="5.2" moovel_centroid="-552.332066386,1564.14275874"></polygon></g><g transform="translate(341.2012945 -909.5756463) rotate(0)"><polygon id="241844808" class="tile" points="-309.659183257,1990.26938456 -284.042727338,1990.23526908 -284.068593609,2016.58801005 -309.678693799,2016.62007195 -309.659183257,1990.26938456 " moovel_rot="18.2" moovel_centroid="-296.862133361,2003.42763893"></polygon></g><g transform="translate(517.1021309 -566.9007982) rotate(0)"><polygon id="437714023" class="tile" points="-451.493366431,1708.91134886 -449.660388372,1702.23060415 -467.380110564,1697.64017587 -465.973482276,1715.1530563 -467.315327159,1742.88940591 -456.744584911,1744.66012276 -452.54186297,1722.30115383 -451.493366431,1708.91134886 " moovel_rot="-17.0" moovel_centroid="-459.8186182,1720.23044402"></polygon></g><g transform="translate(548.5359781 -888.7848809999998) rotate(0)"><polygon id="442637483" class="tile" points="-467.538945421,1990.23526908 -492.554642566,2001.80966435 -483.99259128,2018.67442196 -477.842607794,2016.33734116 -467.555014579,2037.66366081 -467.538945421,1990.23526908 " moovel_rot="-81.8" moovel_centroid="-476.352964281,2008.91118981"></polygon></g><g transform="translate(607.5411718 -380.58963259999996) rotate(0)"><polygon id="255803441" class="tile" points="-526.759018612,1535.47184754 -529.43139151,1539.54351766 -542.595463913,1560.00261046 -526.830754196,1578.18315571 -524.680380593,1580.65618408 -519.151148636,1575.29976781 -516.735086023,1573.12400656 -525.907633798,1562.96571063 -527.974604114,1560.691549 -516.726757449,1546.58185358 -526.759018612,1535.47184754 " moovel_rot="-20.2" moovel_centroid="-528.660621328,1558.10233092"></polygon></g><g transform="translate(391.433647 -779.4136497) rotate(0)"><polygon id="185649646" class="tile" points="-329.291973811,1870.36567274 -328.874829688,1876.0950827 -309.867124397,1876.0951111 -309.860894296,1873.4312245 -309.829199635,1840.13993738 -309.827130666,1837.45007196 -328.482190278,1837.45567338 -329.469840973,1843.5787779 -319.528294935,1843.56638985 -319.457897775,1845.18836132 -313.861976119,1845.07315799 -313.752654931,1860.19866656 -321.484590011,1860.23881877 -321.338577852,1870.27229382 -329.291973811,1870.36567274 " moovel_rot="9.1" moovel_centroid="-317.122471021,1857.91019304"></polygon></g><g transform="translate(539.8440092 -957.2573353999999) rotate(0)"><polygon id="220530399" class="tile" points="-519.661758653,2037.49696352 -495.967216821,2027.14331506 -497.859252795,2022.91433964 -506.162380718,2017.87922465 -514.670921587,1990.23526908 -519.63879061,1991.48257759 -516.518085303,2003.85485819 -516.476949038,2017.2337107 -519.10916564,2029.66612576 -519.661758653,2037.49696352 " moovel_rot="7.0" moovel_centroid="-511.183912337,2018.14447086"></polygon></g><g transform="translate(232.39498679999997 -805.2839573000001) rotate(0)"><polygon id="361082473" class="tile" points="-177.144554111,1837.45007196 -174.514658271,1841.15060221 -174.514449342,1863.56543567 -176.438761831,1863.97107603 -175.954910685,1865.62262766 -178.17893814,1867.23715964 -176.529699224,1869.70472458 -181.96577198,1874.20702724 -197.805413843,1852.18179799 -177.144554111,1837.45007196 " moovel_rot="55.0" moovel_centroid="-183.211383099,1855.20512207"></polygon></g><g transform="translate(170.4957643 -371.3496182) rotate(0)"><polygon id="347320680" class="tile" points="-100.531158717,1398.57243796 -99.6914036786,1396.45460362 -86.650230805,1400.8734391 -86.6314610338,1425.07057391 -107.674156418,1417.06368154 -104.537306801,1408.95458125 -102.6600964,1404.08076005 -100.531158717,1398.57243796 " moovel_rot="-13.2" moovel_centroid="-95.2828968758,1410.76560122"></polygon></g><g transform="translate(356.8239377 -316.4776066000002) rotate(0)"><polygon id="309141147" class="tile" points="-254.523289195,1433.45005831 -258.058878902,1437.93962793 -264.770295732,1432.97695236 -269.265964182,1427.01710466 -271.079051906,1417.18552055 -269.075847486,1406.95835065 -262.978346873,1398.88011456 -258.770097393,1396.45460362 -254.509227035,1400.5712726 -257.316300827,1403.71114408 -260.435273957,1406.92147217 -262.466652286,1411.30076016 -264.213875825,1415.70238816 -262.367973067,1420.96657435 -260.1872755,1425.60582172 -257.415517964,1429.69768601 -254.523289195,1433.45005831 " moovel_rot="-20.6" moovel_centroid="-263.591018183,1417.31021086"></polygon></g><g transform="translate(517.3083592 -565.1055491) rotate(0)"><polygon id="185632364" class="tile" points="-412.51980544,1714.76443445 -412.523321542,1721.11266185 -421.936112739,1721.20200029 -421.924373294,1718.38370492 -431.339508465,1718.31895004 -431.281703842,1697.64017587 -422.955144305,1697.69528969 -417.358052526,1697.73727697 -417.404429911,1714.73116724 -412.51980544,1714.76443445 " moovel_rot="-50.4" moovel_centroid="-423.288900598,1709.40619421"></polygon></g></g></svg>