<svg><g transform="translate(0 0)"><polygon id="1" class="bin" points="-446.2499995,1207.499999 -448.901649929,1206.40164943 -449.9999995,1203.749999 -449.9999995,3.75 -448.901649929,1.09834957055 -446.2499995,0.0 -177.069430638,0.0 -174.219522442,1.31268112924 -173.364825291,4.33172091852 -175.137890613,15.6232304094 -175.212391411,17.0338334184 -174.600479719,29.2075046932 -175.228496152,31.480280591 -190.751114702,54.6932899101 -193.853692332,56.3587420131 -207.584055503,56.4124832269 -211.590510508,58.058894349 -213.312817584,62.0333137564 -214.578691754,117.222664999 -212.854563975,121.451458698 -208.586237166,123.075250246 -185.215065156,121.986574706 -182.749581895,122.763697427 -181.372781569,124.951606998 -171.097763507,173.211733503 -169.444955045,176.414914752 -147.238184315,200.592350874 -146.2500005,203.129055698 -146.2500005,230.710658924 -147.361534881,233.375428928 -150.037200062,234.460474411 -228.098675853,233.686075589 -232.166769961,235.316866787 -233.902444557,239.341329894 -236.751539246,417.4006069 -235.128021528,421.495637597 -231.08177437,423.237180052 -213.892997194,423.460520702 -211.192482515,424.6598704 -210.198931791,427.44268843 -211.529227453,430.081160087 -225.137171029,441.516041323 -227.162560255,445.378528675 -225.894382166,449.551385538 -192.510553631,490.494790333 -192.144664699,491.032868111 -146.72776389,572.169697252 -146.2500005,574.001354308 -146.2500005,646.486531762 -147.953717621,649.629019054 -195.245203685,680.423656959 -197.727677267,683.299840597 -223.590489784,739.6158522 -223.840929143,743.785643433 -221.210811623,747.031003294 -217.584466079,749.103483812 -215.820862672,751.396564196 -216.214069325,754.262554975 -223.000172,765.783071209 -223.676586806,769.89099408 -223.574623957,770.04831208 -223.490361327,773.991153376 -226.544682017,779.176360966 -227.078788431,783.776103509 -224.032887614,787.263995327 -200.846307638,798.072782592 -200.818059342,798.085873197 -189.138690229,803.466144201 -187.196039419,805.556558594 -187.287026274,808.4088289 -189.35895946,810.371178863 -192.813187962,811.702644579 -194.562460129,815.822425074 -194.716257177,995.031055523 -192.45879938,1000.09243618 -147.496820366,1040.39987427 -146.2500005,1043.19211158 -146.2500005,1056.37130897 -147.278915519,1058.95165711 -149.801038647,1060.11602714 -152.308102825,1060.24923079 -163.517866289,1064.50557975 -165.164853863,1064.73646811 -204.955435073,1061.37320067 -209.175839974,1062.73510275 -211.167286416,1066.69751815 -213.543243191,1100.955732 -212.192591232,1105.07347197 -208.351638069,1107.08024101 -206.618429382,1107.24585663 -203.713514964,1109.12835442 -191.048846688,1131.45061666 -190.76215826,1131.91237968 -190.567260993,1132.20024174 -189.969358182,1134.89368376 -191.37598189,1137.26718906 -196.791034251,1141.46198834 -198.961220683,1145.17849022 -197.947248931,1149.36106797 -196.099775777,1151.94332585 -195.458391241,1154.78675087 -197.047201511,1157.2305434 -216.453094515,1170.36932071 -218.901999661,1174.23799578 -217.732603473,1178.66476613 -199.718690069,1201.42257632 -198.920206092,1204.03929075 -200.111713011,1206.50202953 -202.659030811,1207.499999 -446.2499995,1207.499999 " moovel_rot="0" moovel_centroid="-321.2497672303668,605.8742049188895" transform="translate(450 0)"></polygon><g transform="translate(-341.2655644 -782.9903953000007) rotate(0)"><polygon id="185605923" class="tile" points="399.032052914,1795.49785426 343.858717846,1795.47329771 343.765561811,1968.31572369 348.854872086,1967.89338568 349.01072174,1982.28706579 435.217848139,1982.99042549 433.728896818,1925.13513466 438.874301133,1925.44464544 439.450439446,1851.91087455 399.032052914,1795.49785426 " moovel_rot="-49.6" moovel_centroid="388.620091738,1892.76862954"></polygon></g><g transform="translate(-422.5874043 -1196.8118883) rotate(0)"><polygon id="286087280" class="tile" points="425.348476047,2204.29576383 449.003647909,2203.69988498 447.327396214,2130.65907508 449.749749858,2129.17070974 457.116627979,2128.68693565 513.719436523,2128.96732754 514.89052998,2124.28164613 516.82017223,2021.39653894 518.904873363,1987.87555147 484.950288141,1985.39722627 482.333069594,2017.64526931 456.894088332,2014.87712411 454.928943211,1984.60195135 425.087258314,1982.99042549 426.131956167,2076.96767808 425.348476047,2204.29576383 " moovel_rot="55.2" moovel_centroid="466.691771421,2073.49658409"></polygon></g><g transform="translate(-414.1891058 -699.5981877000002) rotate(0)"><polygon id="449972490" class="tile" points="470.131777293,1671.43297728 475.72772232,1698.51956792 483.472879088,1717.05158079 498.913946013,1741.15290017 526.254728663,1771.70316106 533.944558016,1777.46921546 544.134318819,1783.06184727 579.200805206,1713.05614904 561.401917517,1704.39019273 584.626538146,1656.82880186 585.928560335,1654.04585415 557.558432645,1640.77436235 531.792689512,1648.86571492 506.872420722,1636.24155417 503.244312338,1643.04396659 491.05625094,1636.4655024 470.105043874,1645.70430441 470.131777293,1671.43297728 " moovel_rot="-64.6" moovel_centroid="526.246962225,1697.84420879"></polygon></g><g transform="translate(100.3105941 -411.6801852000001) rotate(0)"><polygon id="443136833" class="tile" points="71.64078693,1207.9735383 34.5012077656,1201.40202279 1.0,1201.0 1.11568436492,1309.2926658 5.88318585996,1317.93060046 6.15165472943,1349.66824451 63.1773108432,1346.98756074 71.64078693,1207.9735383 " moovel_rot="58.0" moovel_centroid="34.50547616906674,1273.0169505204542"></polygon></g><g transform="translate(9.445954099999994 -910.8635601999999) rotate(0)"><polygon id="241819964" class="tile" points="131.442421802,1982.99042549 132.455573312,2024.0609034 126.919509866,2026.60102525 126.996512138,2110.30462072 150.678638288,2110.86428916 158.787586622,2097.1928533 182.01240764,2095.27043648 201.551322852,2058.47981984 212.870125101,2062.15655231 219.283326759,2050.06997688 213.988337913,1983.41355982 131.442421802,1982.99042549 " moovel_rot="-88.0" moovel_centroid="168.335190068,2039.43069501"></polygon></g><g transform="translate(-29.983308800000003 -568.6828146) rotate(0)"><polygon id="255480856" class="tile" points="210.479616956,1400.84105954 207.489568583,1400.29767566 199.69525294,1484.01611694 220.112396008,1489.93399043 200.558410427,1554.05132031 212.645871879,1558.2141106 201.496225002,1598.42368423 199.55493987,1620.57389312 201.565240321,1626.47112652 211.630803598,1632.19680563 253.066326082,1636.24155417 254.622373399,1634.47780179 261.275840441,1575.22896445 258.687623719,1550.99527796 210.479616956,1400.84105954 " moovel_rot="10.3" moovel_centroid="227.777983217,1545.72983821"></polygon></g><g transform="translate(-187.2540574 -1559.7166161) rotate(0)"><polygon id="46419715" class="tile" points="275.782534499,2204.29576383 292.448866719,2204.47007576 295.72547892,2235.52038053 297.167391139,2273.04366505 297.004721959,2294.13272896 277.448052961,2327.10826764 242.661617775,2346.59821724 224.756003463,2349.89585315 224.70894779,2210.480046 258.934390414,2205.24089394 275.782534499,2204.29576383 " moovel_rot="80.7" moovel_centroid="258.293057758,2270.86993833"></polygon></g><g transform="translate(70.8102724 -998.7655302) rotate(0)"><polygon id="373350939" class="tile" points="131.437958552,1789.59370756 129.624025958,1792.51679874 127.18475448,1794.9987439 124.363308923,1795.47329771 92.908005657,1788.12160705 91.228575892,1786.97993537 89.9258808065,1785.05623498 89.6669834983,1783.89788625 89.7662440039,1781.93764555 90.1612755913,1780.49270831 90.0493520416,1779.67476567 89.2481297798,1779.26357264 85.8218043614,1778.50052898 89.9714607567,1740.47889982 94.2844822787,1740.43013392 93.2994659513,1722.57422101 90.9259740867,1704.97780459 86.1283098683,1669.19683729 85.7237868752,1666.83380216 85.8860237464,1664.5965069 86.3820849776,1662.99419026 88.0855138838,1661.02404506 129.362293251,1636.24155417 141.803586048,1657.59482705 149.64334051,1689.98710191 148.019568256,1694.15934445 141.219020684,1695.98442168 142.059122047,1700.20657941 137.946381781,1701.4236859 137.365436361,1702.32860139 138.190325693,1705.51710509 139.326908394,1705.71499138 142.984853902,1704.86469256 145.888065385,1716.31655841 147.438464949,1728.59054036 147.815919564,1735.43654317 147.978655248,1742.77966824 147.468465056,1749.36536077 146.672856321,1756.36310163 141.808870184,1755.72479562 140.587398232,1764.03656052 137.840855246,1773.19478412 134.964744869,1781.2697502 131.437958552,1789.59370756 " moovel_rot="-57.3" moovel_centroid="117.145224564,1717.92727804"></polygon></g><g transform="translate(-336.7091157 -734.7174439) rotate(0)"><polygon id="224011676" class="tile" points="488.601305594,1203.29843191 459.213736577,1201.0 458.209031349,1236.9753392 449.489574389,1295.34950705 458.266942571,1299.68964981 445.571861635,1377.30212068 467.490796101,1382.63257526 473.361475834,1397.88591476 488.633320297,1400.29767566 488.601305594,1203.29843191 " moovel_rot="80.2" moovel_centroid="471.465504459,1300.9443841694467"></polygon></g><g transform="translate(-302.3356878 -681.3114748000002) rotate(0)"><polygon id="284698715" class="tile" points="320.416403502,1336.90237763 370.935625316,1309.95623619 352.003780055,1277.67790162 351.057386351,1276.78130802 347.484074747,1276.30167889 345.603364779,1276.10041259 343.009390821,1275.01861358 340.727960569,1273.21323918 339.795864891,1270.34165969 339.427460284,1267.80147551 340.417198827,1264.52070355 346.756672353,1252.76456421 348.142170463,1249.6526845 348.254927883,1247.80195943 336.869425808,1228.70980836 334.208895235,1226.17999177 360.765754098,1226.43745193 369.822692914,1226.66800507 370.936718949,1209.09787502 370.03856583,1207.74752754 370.188327159,1205.98639028 369.966277954,1204.54225555 309.790312195,1201.0 305.369936198,1207.79812397 304.835139481,1208.93453423 304.838041309,1214.36809327 305.039252624,1223.00454265 305.288347764,1232.15947704 305.529449215,1242.2174488 306.677319941,1255.80836004 308.053727854,1255.60962633 308.440903221,1262.25247406 307.164240437,1262.3567032 307.20920333,1272.48819619 320.592711859,1272.7587569 321.422249247,1284.86266494 312.324562121,1285.63023479 312.489778448,1289.90045776 306.571296949,1289.78776513 306.732339847,1309.35128837 307.171964642,1318.0134624 307.884772052,1320.79471972 313.868097692,1334.94465926 318.406072178,1332.76112049 320.416403502,1336.90237763 " moovel_rot="-66.0" moovel_centroid="332.209067606,1265.0068476077747"></polygon></g><g transform="translate(-10.26450029999998 -1328.2764819000001) rotate(0)"><polygon id="443136829" class="tile" points="241.969216235,1795.64164506 241.961441585,1871.52354147 167.168800914,1871.34870965 167.178197919,1795.47329771 241.969216235,1795.64164506 " moovel_rot="73.7" moovel_centroid="204.569946475,1833.49693692"></polygon></g><g transform="translate(27.686364799999993 -1377.8961815) rotate(0)"><polygon id="157893342" class="tile" points="0.0,1849.15038702 33.2307078972,1849.21378059 33.199366048,1795.47329771 81.9267526181,1795.57120079 82.0154134948,1925.48153092 76.981962931,1925.47420188 76.9325138943,1842.56102119 43.2899272945,1842.48826014 43.3258120414,1893.8528836 0.0220035083592,1893.77234536 0.0,1849.15038702 " moovel_rot="21.2" moovel_centroid="44.49695544530194,1846.70909934"></polygon></g><g transform="translate(-396.2602942 -1029.5670684000002) rotate(0)"><polygon id="413778951" class="tile" points="399.859453479,1454.54327505 408.082787387,1453.99121275 407.039408012,1477.37874925 452.177025091,1496.06334279 448.985612387,1425.35180018 485.020801437,1425.10347706 484.050946447,1400.94120401 399.84745528,1400.29767566 399.859453479,1454.54327505 " moovel_rot="45.5" moovel_centroid="433.928908771,1437.431677"></polygon></g><g transform="translate(-16.0455585 -1902.0992032999998) rotate(0)"><polygon id="224013699" class="tile" points="223.575285181,2216.05407409 198.747039922,2204.29576383 167.465071817,2312.79465325 169.979030184,2313.22433183 158.713723494,2338.58490229 167.763905309,2342.9617356 176.461720635,2345.46745442 172.79781898,2357.72014239 197.462003597,2363.47425575 209.577270897,2364.38508613 223.70894779,2349.01376901 208.153048034,2333.33470445 193.227376466,2344.61164796 187.747143891,2342.85597778 223.575285181,2216.05407409 " moovel_rot="-78.5" moovel_centroid="193.444809194,2291.33422955"></polygon></g><g transform="translate(-226.4656245 -1122.557576) rotate(0)"><polygon id="375468809" class="tile" points="347.893677537,1540.93603613 321.108331265,1527.30872638 368.997922145,1434.55248932 366.957320887,1433.46762961 366.11794317,1434.96588082 329.300678288,1415.96568528 330.335025939,1414.24514007 321.15134733,1409.33641001 325.499986382,1400.29767566 334.609038127,1404.5124496 396.880505832,1436.46206543 394.765318178,1440.63948094 398.84745528,1442.67414731 347.893677537,1540.93603613 " moovel_rot="-62.5" moovel_centroid="358.718885634,1472.70868526"></polygon></g><g transform="translate(-70.1407853 -917.1964170000001) rotate(0)"><polygon id="277313511" class="tile" points="109.958814046,1201.0 72.64078693,1202.93386998 72.6545414174,1259.46752169 75.5882246656,1268.76174048 81.2401917605,1275.47643099 88.7761246217,1281.14575183 98.8414349614,1283.16396865 109.799474565,1282.51174958 117.667865113,1278.55966625 125.000340668,1271.65753483 128.331638091,1264.8027208 131.882130977,1253.88780166 132.407727374,1239.23894478 132.413521456,1214.84326363 130.73077734,1210.16892747 129.365131524,1209.04020279 127.314944205,1207.34187305 109.958814046,1201.0 " moovel_rot="-55.4" moovel_centroid="101.769831517,1240.2050132629877"></polygon></g><g transform="translate(-262.9552067 -1300.0493388) rotate(0)"><polygon id="413778949" class="tile" points="499.606786997,1966.10943889 524.523152243,1966.02857313 524.580296527,1813.9980102 510.048226489,1814.04768405 510.058288717,1795.47329771 499.669786406,1795.50968743 499.606786997,1966.10943889 " moovel_rot="-53.8" moovel_centroid="511.742802542,1885.9216629"></polygon></g><g transform="translate(193.94109960000003 -1182.4967165) rotate(0)"><polygon id="219559498" class="tile" points="0.0,1984.15748438 1.35735174045,2038.01578826 15.2461110916,2038.33095406 14.9969045866,2087.24912895 43.5134475337,2087.49269335 43.6728844095,1982.99042549 0.0,1984.15748438 " moovel_rot="8.4" moovel_centroid="24.88988157530063,2030.17320857"></polygon></g><g transform="translate(67.1647199 -1467.6625906) rotate(0)"><polygon id="219041312" class="tile" points="0.0285416655242,1657.85197083 5.30097697265,1636.24155417 11.1906539194,1637.49330833 16.1578233054,1638.54591492 27.6192290224,1646.19222553 37.712270231,1658.94430102 45.2400334474,1663.17687311 59.0901166867,1682.49245581 36.4318868671,1697.17799945 31.2232467502,1700.55594767 28.3929335654,1718.10957427 22.965565482,1717.33582878 21.0809318639,1730.45724995 26.2658647031,1731.29151223 17.4784931799,1785.81842626 14.9652658671,1787.44323646 0.0,1765.44233374 18.9714283995,1661.83533582 0.0285416655242,1657.85197083 " moovel_rot="65.2" moovel_centroid="22.0818603270561,1701.42052719"></polygon></g><g transform="translate(123.9357412 -1229.6762638) rotate(0)"><polygon id="285961421" class="tile" points="6.85140873268,1499.46488637 39.6377467711,1415.58486397 46.2528631266,1400.29767566 51.0902602807,1442.62975618 53.6294073712,1480.81018093 45.4435129993,1481.77579668 44.7637806382,1484.58055352 49.9950117432,1502.22968842 52.1287503093,1518.50633646 52.1279003441,1525.09183646 53.6153054047,1532.68373575 31.2137928709,1523.78687794 29.7508164357,1526.5412664 0.0,1514.12272243 6.85140873268,1499.46488637 " moovel_rot="-28.0" moovel_centroid="33.54463397543285,1480.51867664"></polygon></g><g transform="translate(-192.68775700000003 -1513.3382088) rotate(0)"><polygon id="275355509" class="tile" points="268.770856559,2106.72610381 268.774789633,2105.76582295 268.667602647,1983.01326183 291.487966465,1982.99042549 291.591054596,2106.70334162 289.819550773,2106.7055421 278.879129144,2106.71170117 268.770856559,2106.72610381 " moovel_rot="65.9" moovel_centroid="280.130575141,2044.85516521"></polygon></g><g transform="translate(-190.7213227 -1449.3913963) rotate(0)"><polygon id="293064511" class="tile" points="221.523012878,1728.80452259 218.103398679,1719.78566011 200.849081797,1671.78414305 193.071667064,1650.31594071 198.723885304,1640.30094614 219.859903269,1651.91948275 219.742165333,1658.81667123 237.969759575,1668.83226795 236.921320963,1647.87992408 228.360177743,1643.17497473 232.175633314,1636.24155417 250.372691299,1636.59953714 250.355069969,1678.55112849 221.523012878,1728.80452259 " moovel_rot="-75.7" moovel_centroid="224.685295088,1675.23956155"></polygon></g><g transform="translate(-358.67728079999995 -852.2258522) rotate(0)"><polygon id="443296707" class="tile" points="515.531104991,1400.29767566 522.989121341,1431.59410973 515.528214815,1463.81740977 551.312377411,1480.0957043 558.673907257,1451.85888598 559.698672704,1417.60820119 557.637593138,1400.93494089 515.531104991,1400.29767566 " moovel_rot="28.1" moovel_centroid="539.101577426,1436.34858165"></polygon></g><g transform="translate(-233.95934590000002 -1466.5706950000001) rotate(0)"><polygon id="338083162" class="tile" points="452.377960222,1692.95108652 455.884072145,1689.32286871 454.322412418,1687.77710479 454.448233353,1684.30222491 452.805759985,1682.59058066 458.568204412,1676.91562294 463.504924068,1681.75830709 469.105043874,1676.14567938 469.099056401,1640.09374356 466.433162791,1640.04574939 466.46216937,1636.8634619 424.676856958,1637.0838572 423.499984142,1636.24155417 422.450371686,1636.31289895 418.26171901,1640.5605437 429.28604966,1651.24390267 424.458066838,1656.15902661 414.456464691,1646.29984451 414.692287523,1690.05833494 417.960057938,1690.07971624 418.035387367,1693.16773105 452.377960222,1692.95108652 " moovel_rot="-23.9" moovel_centroid="441.346227892,1664.24235368"></polygon></g><g transform="translate(41.0170191 -731.0106852999999) rotate(0)"><polygon id="275731241" class="tile" points="103.664178973,1400.29767566 73.8699906014,1408.06154118 73.9258070111,1485.23520509 103.19570789,1495.44672064 103.790852411,1483.94584298 101.191519574,1473.96014421 97.3870202333,1462.14553202 95.6816618644,1452.76117113 96.2921500213,1443.27928038 99.2642176174,1432.83100828 103.395228072,1423.0554353 110.408634951,1413.27864075 105.094530635,1409.62666817 103.664178973,1400.29767566 " moovel_rot="11.4" moovel_centroid="88.2669086879,1446.01351486"></polygon></g><g transform="translate(-292.0680379 -713.125787) rotate(0)"><polygon id="185647480" class="tile" points="294.993297723,1458.72208966 295.02424176,1478.14155827 296.391040726,1485.33494148 302.261797013,1491.83284441 310.395703264,1495.30300833 316.972851586,1495.04354132 319.961417405,1494.92313247 320.108331265,1400.29767566 294.56798609,1401.85149108 294.953503946,1452.86444451 294.993297723,1458.72208966 " moovel_rot="-49.9" moovel_centroid="307.739909178,1446.58777471"></polygon></g><g transform="translate(-126.26209730000002 -1664.9940440999999) rotate(0)"><polygon id="185193581" class="tile" points="267.049250885,1872.71002705 288.078940191,1842.49711358 287.214567777,1831.43475633 285.109677853,1808.69054912 285.000476836,1795.47329771 278.367256411,1795.53821528 263.013994567,1795.68796979 247.38492416,1817.93722134 242.969216235,1824.21803866 259.236171437,1836.38148207 242.97918662,1858.14218159 245.873602281,1860.30619954 247.525554246,1858.09722075 267.049250885,1872.71002705 " moovel_rot="40.4" moovel_centroid="267.855599455,1831.11568371"></polygon></g><g transform="translate(-148.3897375 -1266.5238828) rotate(0)"><polygon id="59382652" class="tile" points="153.855825919,1400.29767566 153.419276457,1423.7433606 151.207335701,1423.88911081 150.889517637,1447.50124654 183.243538251,1448.20056457 198.55493987,1448.54441184 198.480276512,1400.58379412 153.855825919,1400.29767566 " moovel_rot="-26.1" moovel_centroid="175.467290481,1424.58640779"></polygon></g><g transform="translate(86.76209829999999 -1040.2207583) rotate(0)"><polygon id="276334135" class="tile" points="183.994691081,1263.1299761 181.250396529,1263.13179455 181.250861551,1266.76563677 153.37837535,1266.74954418 153.398641759,1201.0 181.277541236,1201.01422469 181.256708977,1248.18910586 183.997189069,1248.19765567 183.998786843,1254.46235351 183.994691081,1263.1299761 " moovel_rot="-17.0" moovel_centroid="167.660524908,1234.357191466575"></polygon></g><g transform="translate(-92.32942299999999 -1085.3875824) rotate(0)"><polygon id="243997136" class="tile" points="303.787386139,1207.66493189 263.895886845,1201.0 262.529916995,1236.60969632 267.012882222,1254.21928731 303.835139481,1242.88059535 303.787386139,1207.66493189 " moovel_rot="16.1" moovel_centroid="282.346933275,1226.5102080469592"></polygon></g><g transform="translate(57.455825000000004 -2093.5930734999997) rotate(0)"><polygon id="244091357" class="tile" points="25.2618073456,2204.31748096 25.2534530234,2259.44170137 54.2550529508,2259.41336333 54.2625262808,2204.29576383 25.2618073456,2204.31748096 " moovel_rot="-82.1" moovel_centroid="39.7579196208,2231.86721701"></polygon></g><g transform="translate(-373.80315509999997 -672.2029875000001) rotate(0)"><polygon id="393391807" class="tile" points="476.562243995,1795.47329771 498.606786997,1795.60742501 498.017008336,1859.95826456 476.627870116,1872.46375007 476.562243995,1795.47329771 " moovel_rot="-0.7" moovel_centroid="487.125380804,1830.77869194"></polygon></g><g transform="translate(-45.552605399999976 -1082.2539799) rotate(0)"><polygon id="255480858" class="tile" points="251.372691299,1654.00168647 272.383561536,1636.24155417 272.392905729,1701.60398063 251.80009987,1720.90699079 251.372691299,1654.00168647 " moovel_rot="30.1" moovel_centroid="261.936897804,1678.12405689"></polygon></g><g transform="translate(-183.81485780000003 -1119.04646) rotate(0)"><polygon id="240194175" class="tile" points="230.736507852,1201.0 230.145580406,1248.0718977 261.529916995,1248.35758768 261.513346702,1230.22949648 260.888291258,1201.02779809 249.790008039,1201.14926065 230.736507852,1201.0 " moovel_rot="-13.8" moovel_centroid="245.894697732,1224.8108658573003"></polygon></g><g transform="translate(175.11262899999997 -695.5898389) rotate(0)"><polygon id="377007926" class="tile" points="61.2681927096,1636.31447882 61.0901166867,1749.61014615 72.027961472,1749.5584519 71.7976503495,1636.24155417 61.2681927096,1636.31447882 " moovel_rot="7.9" moovel_centroid="66.5462494255,1693.29040235"></polygon></g><g transform="translate(-52.7626305 -2122.2944027000003) rotate(0)"><polygon id="323407714" class="tile" points="55.2625262808,2204.80656237 55.6827396501,2251.09347353 86.2812788576,2250.79090117 86.3114770755,2204.29576383 55.2625262808,2204.80656237 " moovel_rot="-29.9" moovel_centroid="70.8954672599,2227.68993013"></polygon></g><g transform="translate(-369.31163219999996 -1330.1644014) rotate(0)"><polygon id="244091361" class="tile" points="494.06877963,1400.34241601 494.101404708,1432.68965842 486.020801437,1432.70675837 486.046806293,1455.8373743 514.528214815,1455.7755295 514.469616423,1400.29767566 494.06877963,1400.34241601 " moovel_rot="-81.9" moovel_centroid="502.282128863,1430.35560791"></polygon></g><g transform="translate(-297.0999963 -1323.5978695) rotate(0)"><polygon id="244746749" class="tile" points="413.447662155,1636.64052178 399.802185646,1636.24155417 387.082120593,1639.77685098 387.199308462,1642.44166988 387.287857717,1647.30923466 388.378933494,1648.86917589 383.970380761,1651.94813237 388.463270873,1658.3833242 387.531290654,1659.03169082 388.979791593,1661.1078783 385.033651271,1663.86520341 389.130330165,1669.72977278 387.990580097,1670.5263402 389.477867192,1672.65690382 385.327246399,1675.55187923 390.068960633,1682.35106397 390.076815195,1686.52960519 407.454386429,1687.52356433 407.849914799,1678.25783377 413.456464691,1675.35808388 413.447662155,1636.64052178 " moovel_rot="54.5" moovel_centroid="400.106947818,1660.7433215"></polygon></g><g transform="translate(-160.42544510000002 -1564.5410475) rotate(0)"><polygon id="355898761" class="tile" points="366.072395524,1680.81846956 370.345774391,1677.59810513 376.326096497,1685.24347751 381.279909261,1686.16067242 382.970380761,1674.14050279 379.671368461,1673.61828706 382.966480675,1650.15398937 376.59447418,1649.07529867 377.536110536,1641.71968833 373.426163856,1636.24155417 351.542609574,1652.71812713 354.264119029,1656.28936834 349.943466695,1659.59397309 366.072395524,1680.81846956 " moovel_rot="29.3" moovel_centroid="369.038163,1661.10098195"></polygon></g><g transform="translate(-139.3782658 -1563.9050115999999) rotate(0)"><polygon id="301510360" class="tile" points="327.157848516,1848.64841971 339.634098377,1852.98910563 339.764376881,1832.70200871 342.74868652,1832.60141925 342.765561811,1795.59003768 331.054640021,1795.49705339 327.990786215,1795.47329771 324.916811963,1796.27991762 322.611128629,1797.53064787 321.685178709,1800.03156938 321.165879913,1803.65067696 321.414258777,1806.91764297 323.335129539,1809.74413838 325.165533445,1811.85229273 327.073359429,1813.24413633 327.24150287,1818.73981064 323.837888451,1818.51690577 324.094072556,1832.48005789 326.685801182,1832.68720591 327.157848516,1848.64841971 " moovel_rot="6.7" moovel_centroid="333.295425888,1820.63048782"></polygon></g><g transform="translate(-298.60078269999997 -596.1863151000001) rotate(0)"><polygon id="244091355" class="tile" points="371.953674192,1201.01799299 371.936718949,1235.77532747 399.862400254,1235.75733113 399.879378738,1201.0 371.953674192,1201.01799299 " moovel_rot="-81.8" moovel_centroid="385.908042809,1218.3876604880925"></polygon></g><g transform="translate(-538.1386728 -742.0910657) rotate(0)"><polygon id="244091365" class="tile" points="540.685274802,1201.00442753 540.638695408,1256.78529961 557.033701573,1256.78086885 557.080303068,1201.0 540.685274802,1201.00442753 " moovel_rot="-81.7" moovel_centroid="548.859493639,1228.8926427335111"></polygon></g><g transform="translate(-178.63088069999998 -1571.4368630000001) rotate(0)"><polygon id="247143603" class="tile" points="348.943466695,1682.39939031 348.917045907,1636.24155417 328.79790511,1636.31663811 328.832055516,1682.47872365 348.943466695,1682.39939031 " moovel_rot="-61.2" moovel_centroid="338.872461946,1659.35759955"></polygon></g><g transform="translate(-215.86526899999996 -2134.5715085) rotate(0)"><polygon id="225367724" class="tile" points="328.507798089,2204.3183496 298.167391139,2204.29576383 298.193470395,2235.32747257 328.525231482,2235.35188031 328.520599877,2218.93665295 328.507798089,2204.3183496 " moovel_rot="78.1" moovel_centroid="313.34976872,2219.82260784"></polygon></g><g transform="translate(-376.1089014 -1163.5552194) rotate(0)"><polygon id="181959273" class="tile" points="400.89943158,1230.13997465 400.879378738,1220.27030139 420.92875223,1219.73475016 420.594988223,1201.0 434.862265462,1201.7243604 434.842386359,1240.00156134 410.504149204,1241.04211083 410.234836585,1238.93677053 410.425503706,1230.38593106 400.89943158,1230.13997465 " moovel_rot="40.4" moovel_centroid="422.221728129,1223.7143517680383"></polygon></g><g transform="translate(-459.6423557 -264.13447759999997) rotate(0)"><polygon id="235742204" class="tile" points="490.846898508,1261.73997101 504.468355927,1261.6949836 504.486987256,1201.0 489.633320297,1204.25822449 490.846898508,1261.73997101 " moovel_rot="-92.1" moovel_centroid="497.416050682,1231.7292701167573"></polygon></g><g transform="translate(-31.550183300000015 -1066.2430904000003) rotate(0)"><polygon id="222664803" class="tile" points="298.121468456,1723.31208692 306.493135095,1723.48008159 306.460618735,1636.24155417 298.231329667,1637.27040164 298.121468456,1723.31208692 " moovel_rot="-39.3" moovel_centroid="302.336196867,1680.19984443"></polygon></g><g transform="translate(63.85966579999999 -1361.5628428) rotate(0)"><polygon id="314283525" class="tile" points="111.408634951,1400.29767566 135.466458037,1400.85444693 134.845841899,1437.7780389 120.956995836,1437.62508793 111.434163067,1437.53983656 111.417611178,1412.11201174 111.408634951,1400.29767566 " moovel_rot="-19.7" moovel_centroid="123.273393289,1419.02993859"></polygon></g><g transform="translate(-0.10210779999999886 -1183.4388968) rotate(0)"><polygon id="220953323" class="tile" points="210.069572629,1201.10563672 209.814712849,1250.24998826 229.145580406,1250.41944371 229.135324403,1244.08737635 225.462814039,1244.04633932 225.77574134,1201.0 210.069572629,1201.10563672 " moovel_rot="47.5" moovel_centroid="218.056514554,1226.295597583769"></polygon></g><g transform="translate(-147.970659 -1771.1169470000002) rotate(0)"><polygon id="305213058" class="tile" points="165.663299245,1795.47329771 150.5313418,1797.2467332 150.470663186,1848.63678745 166.168800914,1847.09146242 165.663299245,1795.47329771 " moovel_rot="-41.4" moovel_centroid="158.216411708,1822.26858856"></polygon></g><g transform="translate(-121.25285129999999 -1173.2714411) rotate(0)"><polygon id="315410691" class="tile" points="208.814712849,1201.79945519 208.218628579,1238.0001067 193.764523045,1237.57088133 185.01832459,1228.41403585 184.998786843,1201.0 208.814712849,1201.79945519 " moovel_rot="54.4" moovel_centroid="197.181629226,1218.731395926003"></polygon></g><g transform="translate(-446.76437169999997 -1385.7650707999999) rotate(0)"><polygon id="299906227" class="tile" points="575.721074615,1400.52211456 570.92388397,1400.29767566 568.448456671,1400.3035618 560.698672704,1400.71727807 561.040284563,1451.3608955 572.14594291,1450.84498814 573.26416986,1450.78238552 575.666191289,1450.77473363 575.480949633,1441.72777665 575.721074615,1400.52211456 " moovel_rot="58.3" moovel_centroid="568.222981141,1425.58771127"></polygon></g><g transform="translate(-391.6734332 -1783.8601705) rotate(0)"><polygon id="220970963" class="tile" points="528.863117497,1795.47329771 525.580296527,1816.05828978 525.999986354,1816.13298554 543.500078802,1818.81884014 543.919204445,1819.40550454 542.699253942,1831.48503755 541.237584066,1842.51529743 549.533161918,1843.73932474 551.514312836,1831.64572692 552.353215118,1824.75854674 548.581077955,1824.04890006 552.330946806,1799.27799609 528.863117497,1795.47329771 " moovel_rot="70.0" moovel_centroid="541.129773899,1814.41623979"></polygon></g><g transform="translate(-11.110610800000003 -1963.6737299) rotate(0)"><polygon id="376406579" class="tile" points="119.285512536,2028.41723107 103.669952134,2028.39928345 103.672691133,1982.99042549 119.288268037,1983.00837082 119.285512536,2028.41723107 " moovel_rot="82.1" moovel_centroid="111.479106027,2005.70382371"></polygon></g><g transform="translate(-230.1791554 -1669.6931868) rotate(0)"><polygon id="252080843" class="tile" points="450.573884122,1825.43743918 450.580128992,1796.27040413 464.863822551,1796.2886109 464.862688758,1795.47329771 475.562243995,1795.48500067 475.549242297,1825.47506236 474.388420821,1825.47199167 450.573884122,1825.43743918 " moovel_rot="8.4" moovel_centroid="463.151278581,1810.69287263"></polygon></g><g transform="translate(-64.3566329 -2198.2832592) rotate(0)"><polygon id="219042829" class="tile" points="87.3114770755,2249.48484412 88.106613485,2204.29576383 102.877194071,2206.05362532 102.914257969,2249.62980725 87.3114770755,2249.48484412 " moovel_rot="-81.0" moovel_centroid="95.253231811,2227.56224955"></polygon></g><g transform="translate(-74.48770679999998 -1791.0125057) rotate(0)"><polygon id="376403764" class="tile" points="320.165879913,1795.4920792 305.16476723,1795.47329771 305.152927577,1839.98366111 320.154023949,1840.00244498 320.165879913,1795.4920792 " moovel_rot="81.7" moovel_centroid="312.659399736,1817.73786672"></polygon></g><g transform="translate(-181.34206210000002 -1432.6452251) rotate(0)"><polygon id="376406584" class="tile" points="250.822565306,2027.015094 235.624663076,2027.00229784 235.618322203,1982.99042549 250.816241657,1983.00321898 250.822565306,2027.015094 " moovel_rot="81.2" moovel_centroid="243.220448137,2005.00275492"></polygon></g><g transform="translate(102.0884089 -1964.3931420000001) rotate(0)"><polygon id="374788775" class="tile" points="0.204404604435,2204.29576383 22.7522659399,2204.38087816 23.226353946,2218.5268502 23.2534530234,2234.62119322 0.254849832505,2234.12017161 0.0,2234.14074101 0.204404604435,2204.29576383 " moovel_rot="-37.9" moovel_centroid="11.639375265145746,2219.42905392"></polygon></g><g transform="translate(-239.99507909999994 -1414.0190221) rotate(0)"><polygon id="376406585" class="tile" points="534.68629448,2026.23570897 519.933603423,2026.22833652 519.904873363,1982.99042549 534.657580792,1982.9977954 534.68629448,2026.23570897 " moovel_rot="81.2" moovel_centroid="527.295588084,2004.6130626"></polygon></g><g transform="translate(-228.431079 -1560.8152005000002) rotate(0)"><polygon id="252080160" class="tile" points="347.690994204,2022.10655104 347.702426925,1987.51813604 352.626088471,1987.51762445 352.626440404,1982.99507086 362.406495655,1982.99042549 362.406921847,1985.1724679 362.394710445,2022.10138686 347.690994204,2022.10655104 " moovel_rot="-4.4" moovel_centroid="355.24604834,2003.24529769"></polygon></g><g transform="translate(-260.4613468 -888.8635228999999) rotate(0)"><polygon id="409726394" class="tile" points="387.443633131,1982.99042549 377.715949004,1983.02927331 374.148749055,1983.15089722 363.982757371,1983.19596656 363.446997105,1983.22566038 363.426928006,1994.40157529 363.446288483,1998.67500737 363.406921847,2007.13533305 387.59997528,2006.78358555 387.443633131,1982.99042549 " moovel_rot="61.0" moovel_centroid="375.470153219,1995.04238418"></polygon></g><g transform="translate(-28.893664 -1661.3678046) rotate(0)"><polygon id="324750257" class="tile" points="84.0154134948,1795.47329771 84.0345696639,1827.77559308 93.2990733713,1827.50757461 93.159544109,1815.33897453 105.46953236,1815.64809735 105.279258104,1795.93310095 84.0154134948,1795.47329771 " moovel_rot="67.4" moovel_centroid="93.3994952415,1808.95246514"></polygon></g><g transform="translate(-59.96878770000001 -237.2364024000001) rotate(0)"><polygon id="377184101" class="tile" points="275.293506111,1400.29767566 279.334212223,1402.52621266 279.353571047,1436.71043088 267.520402093,1437.2388875 264.509966936,1435.50778005 262.275840441,1432.30602099 262.367058456,1411.09222349 266.312358294,1411.27637145 266.851651252,1407.24390092 268.444825218,1404.38685309 275.293506111,1400.29767566 " moovel_rot="64.3" moovel_centroid="271.490678193,1420.38143609"></polygon></g><g transform="translate(102.5991969 -1978.4471592) rotate(0)"><polygon id="374110193" class="tile" points="79.2745305736,2012.33451807 79.2425833173,1990.2743277 87.9516793519,1990.23687395 87.9487456378,1983.04532828 102.653155864,1982.99042549 102.669952134,1995.54353412 94.5634504497,1995.58188969 94.5878224749,2012.27826287 79.2745305736,2012.33451807 " moovel_rot="-19.5" moovel_centroid="89.7812821557,1997.34160804"></polygon></g><g transform="translate(-76.51013019999999 -969.9438495) rotate(0)"><polygon id="376097629" class="tile" points="328.627771898,2012.62176123 345.841883379,2013.40553184 346.690994204,1987.79831931 339.781030401,1982.99042549 328.634483835,1983.28550127 328.627771898,2012.62176123 " moovel_rot="-50.3" moovel_centroid="337.318493332,1998.34993165"></polygon></g><g transform="translate(-300.42420749999997 -291.39966349999986) rotate(0)"><polygon id="224659159" class="tile" points="539.638695408,1225.02889287 520.038221177,1229.23647312 516.206639865,1207.71730501 516.158651451,1207.42567303 539.638610173,1201.0 539.638695408,1225.02889287 " moovel_rot="9.1" moovel_centroid="528.934384369,1215.2955859210313"></polygon></g><g transform="translate(-83.92174480000003 -1316.6811042) rotate(0)"><polygon id="174023894" class="tile" points="309.281773122,1982.99042549 327.627771898,1991.08093334 312.438351902,2022.92099645 309.318937896,2021.56724912 309.281773122,1982.99042549 " moovel_rot="-12.9" moovel_centroid="315.561966068,2000.47496317"></polygon></g><g transform="translate(-259.9488299 -1780.5165998999998) rotate(0)"><polygon id="315400368" class="tile" points="535.68629448,2007.31339427 554.046262993,2007.40804603 554.040053159,1999.69743028 554.027843235,1993.37862556 554.028517834,1986.95903788 553.926839757,1982.99042549 544.334478262,1983.13035741 535.806878408,1983.11061115 535.785693878,1987.19241559 535.757042908,1993.39781005 535.718692997,1999.79761555 535.68629448,2007.31339427 " moovel_rot="66.0" moovel_centroid="544.899572037,1995.24547438"></polygon></g><g transform="translate(-373.78358810000003 -1473.0736654) rotate(0)"><polygon id="220953326" class="tile" points="440.466037348,1838.8735246 449.558431836,1839.35837798 449.573884122,1795.65652169 441.03882569,1795.47329771 440.47757557,1816.36134497 440.450439446,1818.10106544 440.466037348,1838.8735246 " moovel_rot="48.7" moovel_centroid="445.087464929,1817.56548174"></polygon></g><g transform="translate(-34.9479041 -439.87447099999986) rotate(0)"><polygon id="324750357" class="tile" points="152.360692761,1201.78160665 134.323546442,1201.0 133.413521456,1223.96292232 152.37837535,1224.40317188 152.360692761,1201.78160665 " moovel_rot="-20.2" moovel_centroid="143.092037657,1212.880588254998"></polygon></g><g transform="translate(-265.98339020000003 -1379.699242) rotate(0)"><polygon id="284912839" class="tile" points="327.79790511,1666.12201568 322.322812343,1664.14419281 316.442695028,1662.02253199 307.493135095,1658.79778216 314.562330681,1639.20610595 315.627411509,1636.24155417 316.688949703,1636.62201292 318.861646562,1637.4070713 321.362598896,1638.31044036 325.51344221,1639.80364161 327.766842612,1640.6338747 327.79790511,1666.12201568 " moovel_rot="78.7" moovel_centroid="319.502139895,1651.45277213"></polygon></g><g transform="translate(-104.47544109999998 -1582.5452473) rotate(0)"><polygon id="329778943" class="tile" points="308.112855157,1982.99042549 308.281773122,2008.0555603 292.593244214,2009.50479595 292.591054596,1983.25192244 308.112855157,1982.99042549 " moovel_rot="79.2" moovel_centroid="300.335087743,1995.9773334"></polygon></g><g transform="translate(-169.9289705 -974.2859704) rotate(0)"><polygon id="261479135" class="tile" points="172.428967299,1636.24155417 192.071667064,1636.99699386 192.037109115,1656.81477646 172.436660666,1656.73338996 172.428967299,1636.24155417 " moovel_rot="19.1" moovel_centroid="182.188992359,1646.69185905"></polygon></g><g transform="translate(-38.4076139 -1788.9259111000001) rotate(0)"><polygon id="185632784" class="tile" points="289.091669388,1795.52167402 304.152927577,1795.47329771 304.140818117,1816.03011516 304.139645086,1817.07282161 304.140175491,1819.04666439 289.078940191,1819.09506018 289.087305705,1807.45478538 289.091669388,1795.52167402 " moovel_rot="-49.6" moovel_centroid="296.616169469,1807.28403003"></polygon></g><g transform="translate(-176.7417687 -1974.6508162) rotate(0)"><polygon id="314183854" class="tile" points="220.283326759,2007.10183493 220.290829795,1983.022657 234.618322203,1982.99042549 234.607073953,2007.06164444 220.283326759,2007.10183493 " moovel_rot="-25.2" moovel_centroid="227.449493255,1995.04361652"></polygon></g><g transform="translate(24.47585430000001 -1978.374006) rotate(0)"><polygon id="327029607" class="tile" points="63.0854506291,2001.89920617 63.0889392812,1982.99042549 58.5348612737,1983.36397939 58.5031332299,1988.62280093 53.0146686926,1988.58287141 53.0408975352,1983.32784067 45.6728844095,1983.63332029 45.8958460759,1987.50874738 45.9237599425,1994.14788184 46.060986444,2001.31010644 63.0854506291,2001.89920617 " moovel_rot="-34.6" moovel_centroid="54.4630807138,1993.11243873"></polygon></g><g transform="translate(-412.99651309999996 -1281.3215638000001) rotate(0)"><polygon id="185148203" class="tile" points="565.120080196,2011.71981134 567.692678755,2012.58414531 567.698308823,1985.30784136 559.244719109,1982.99042549 555.046262993,1996.73660414 557.910941343,2001.70069213 555.640640252,2007.82848207 565.120080196,2011.71981134 " moovel_rot="23.2" moovel_centroid="562.310147701,1997.60224437"></polygon></g><g transform="translate(-70.52796169999999 -1381.7686193) rotate(0)"><polygon id="59394586" class="tile" points="83.4622953476,1636.24155417 73.027961472,1636.43647257 73.0283231266,1662.43518077 84.7237868752,1661.95558321 83.4622953476,1636.24155417 " moovel_rot="21.0" moovel_centroid="78.5578380214,1649.51421752"></polygon></g><g transform="translate(23.826304300000004 -1173.2388687) rotate(0)"><polygon id="232491727" class="tile" points="149.470663186,1797.68808787 133.090869934,1795.47329771 133.114034186,1813.97585526 149.346571716,1815.73952443 149.470663186,1797.68808787 " moovel_rot="69.8" moovel_centroid="141.223379798,1805.70139784"></polygon></g><g transform="translate(108.719619 -1162.9799757) rotate(0)"><polygon id="253898026" class="tile" points="108.396540517,1816.62833348 108.395838875,1819.81757411 115.945999014,1819.82473653 119.812827359,1819.82382022 119.818277062,1796.41833402 119.817380429,1795.48797634 111.600235447,1795.47329771 111.594891704,1800.05279311 106.473425337,1800.05010127 106.46953236,1810.05169234 108.392404926,1810.05414437 108.396540517,1816.62833348 " moovel_rot="8.2" moovel_centroid="113.863929881,1807.98559192"></polygon></g><g transform="translate(113.91336160000003 -1270.3934531) rotate(0)"><polygon id="185632363" class="tile" points="149.889517637,1426.18479459 149.884627111,1422.19802989 146.293226954,1422.19044936 146.284681208,1413.91783951 146.282320228,1404.24218857 146.276822702,1400.45113706 136.467953748,1400.29767566 136.466458037,1426.14271357 149.889517637,1426.18479459 " moovel_rot="40.6" moovel_centroid="141.732451952,1413.85451951"></polygon></g><g transform="translate(55.106529300000005 -992.6462905000001) rotate(0)"><polygon id="315400367" class="tile" points="132.081980924,1795.50190806 121.981418054,1795.47329771 121.983193643,1805.87643184 120.818277062,1805.87598657 120.825405488,1819.29628833 123.56327008,1819.30560436 132.090869934,1819.32535062 132.081980924,1795.50190806 " moovel_rot="66.0" moovel_centroid="126.691954362,1807.71690299"></polygon></g><g transform="translate(-323.96994329999995 -1777.9485322) rotate(0)"><polygon id="326405377" class="tile" points="400.570745416,1996.66215124 400.574527635,1982.99042549 392.874069134,1983.54059481 393.043039989,1987.52879205 390.184442411,1987.47226028 390.509423823,1991.15560814 388.59997528,1991.30133315 390.687711897,2014.27141159 394.174435149,2014.31376113 393.43287467,1996.7175577 397.003371987,1996.64706683 400.570745416,1996.66215124 " moovel_rot="-57.0" moovel_centroid="394.208337446,1995.52371445"></polygon></g><g transform="translate(-302.08445149999994 -1439.1035759000001) rotate(0)"><polygon id="373012691" class="tile" points="568.718155878,2003.45639712 580.877529287,2003.40622866 580.894972691,1984.23132955 568.698308823,1982.99042549 568.756282163,1985.39907396 568.718155878,2003.45639712 " moovel_rot="-30.4" moovel_centroid="574.745432195,1993.51967157"></polygon></g><g transform="translate(-160.2756083 -1186.1980193) rotate(0)"><polygon id="201148567" class="tile" points="293.544084558,1400.29767566 280.353571047,1415.94460722 286.867366521,1421.29653512 293.56798609,1426.81276933 293.544084558,1400.29767566 " moovel_rot="-39.4" moovel_centroid="289.155661419,1414.35027658"></polygon></g><g transform="translate(-16.406578800000005 -1419.2582407999998) rotate(0)"><polygon id="300398882" class="tile" points="125.73947494,2005.69450145 122.947297391,2005.70713242 120.304133483,2005.7140646 120.288268037,1983.02097075 123.326216991,1983.00918786 125.722584679,1982.99042549 125.919509866,1991.79929582 125.73947494,2005.69450145 " moovel_rot="-42.6" moovel_centroid="123.06168799,1994.34246053"></polygon></g><g transform="translate(-433.36227429999997 -1193.3232293) rotate(0)"><polygon id="300396686" class="tile" points="435.86560932,1213.46149339 444.571861635,1213.42091847 444.563631309,1201.0 440.364921907,1201.01475132 435.862265462,1201.03602147 435.86560932,1213.46149339 " moovel_rot="-42.9" moovel_centroid="440.215582692,1207.2295334729292"></polygon></g><g transform="translate(-555.5803231 -963.4990796999999) rotate(0)"><polygon id="298133567" class="tile" points="558.080303068,1201.0 558.086212288,1207.45016538 558.090109267,1213.16607116 562.837889764,1213.03777867 562.774854518,1208.6641023 564.202470776,1208.64221075 564.217147893,1207.49351528 564.23648037,1206.35226994 564.247938328,1201.34156003 558.080303068,1201.0 " moovel_rot="-32.0" moovel_centroid="560.916688847,1206.7783478773363"></polygon></g></g><g transform="translate(0 1327.7)"><polygon id="1" class="bin" points="-446.2499995,1207.499999 -448.901649929,1206.40164943 -449.9999995,1203.749999 -449.9999995,3.75 -448.901649929,1.09834957055 -446.2499995,0.0 -177.069430638,0.0 -174.219522442,1.31268112924 -173.364825291,4.33172091852 -175.137890613,15.6232304094 -175.212391411,17.0338334184 -174.600479719,29.2075046932 -175.228496152,31.480280591 -190.751114702,54.6932899101 -193.853692332,56.3587420131 -207.584055503,56.4124832269 -211.590510508,58.058894349 -213.312817584,62.0333137564 -214.578691754,117.222664999 -212.854563975,121.451458698 -208.586237166,123.075250246 -185.215065156,121.986574706 -182.749581895,122.763697427 -181.372781569,124.951606998 -171.097763507,173.211733503 -169.444955045,176.414914752 -147.238184315,200.592350874 -146.2500005,203.129055698 -146.2500005,230.710658924 -147.361534881,233.375428928 -150.037200062,234.460474411 -228.098675853,233.686075589 -232.166769961,235.316866787 -233.902444557,239.341329894 -236.751539246,417.4006069 -235.128021528,421.495637597 -231.08177437,423.237180052 -213.892997194,423.460520702 -211.192482515,424.6598704 -210.198931791,427.44268843 -211.529227453,430.081160087 -225.137171029,441.516041323 -227.162560255,445.378528675 -225.894382166,449.551385538 -192.510553631,490.494790333 -192.144664699,491.032868111 -146.72776389,572.169697252 -146.2500005,574.001354308 -146.2500005,646.486531762 -147.953717621,649.629019054 -195.245203685,680.423656959 -197.727677267,683.299840597 -223.590489784,739.6158522 -223.840929143,743.785643433 -221.210811623,747.031003294 -217.584466079,749.103483812 -215.820862672,751.396564196 -216.214069325,754.262554975 -223.000172,765.783071209 -223.676586806,769.89099408 -223.574623957,770.04831208 -223.490361327,773.991153376 -226.544682017,779.176360966 -227.078788431,783.776103509 -224.032887614,787.263995327 -200.846307638,798.072782592 -200.818059342,798.085873197 -189.138690229,803.466144201 -187.196039419,805.556558594 -187.287026274,808.4088289 -189.35895946,810.371178863 -192.813187962,811.702644579 -194.562460129,815.822425074 -194.716257177,995.031055523 -192.45879938,1000.09243618 -147.496820366,1040.39987427 -146.2500005,1043.19211158 -146.2500005,1056.37130897 -147.278915519,1058.95165711 -149.801038647,1060.11602714 -152.308102825,1060.24923079 -163.517866289,1064.50557975 -165.164853863,1064.73646811 -204.955435073,1061.37320067 -209.175839974,1062.73510275 -211.167286416,1066.69751815 -213.543243191,1100.955732 -212.192591232,1105.07347197 -208.351638069,1107.08024101 -206.618429382,1107.24585663 -203.713514964,1109.12835442 -191.048846688,1131.45061666 -190.76215826,1131.91237968 -190.567260993,1132.20024174 -189.969358182,1134.89368376 -191.37598189,1137.26718906 -196.791034251,1141.46198834 -198.961220683,1145.17849022 -197.947248931,1149.36106797 -196.099775777,1151.94332585 -195.458391241,1154.78675087 -197.047201511,1157.2305434 -216.453094515,1170.36932071 -218.901999661,1174.23799578 -217.732603473,1178.66476613 -199.718690069,1201.42257632 -198.920206092,1204.03929075 -200.111713011,1206.50202953 -202.659030811,1207.499999 -446.2499995,1207.499999 " moovel_rot="0" moovel_centroid="-321.2497672303668,605.8742049188895" transform="translate(450 0)"></polygon><g transform="translate(-249.3225711 -822.6025356000002) rotate(0)"><polygon id="376406581" class="tile" points="267.649517008,2022.60247998 251.822565306,2022.57604601 251.840633548,1982.99042549 267.667602647,1983.01685655 267.649517008,2022.60247998 " moovel_rot="80.5" moovel_centroid="259.745079727,2002.79644838"></polygon></g><g transform="translate(-124.42516920000001 -1086.4577342000002) rotate(0)"><polygon id="415445394" class="tile" points="133.134399518,2218.67745874 152.969031722,2204.29576383 157.713723494,2209.38263335 142.811967487,2222.78246213 154.956666021,2237.72169468 152.81082624,2240.91678126 157.686224139,2243.99292948 155.708782897,2246.88868711 153.140185362,2248.15493198 137.120676913,2237.31180164 126.778885985,2223.59663601 133.134399518,2218.67745874 " moovel_rot="24.9" moovel_centroid="143.524725006,2226.71965404"></polygon></g><g transform="translate(-26.70349790000001 -847.0420573000001) rotate(0)"><polygon id="292846305" class="tile" points="64.9529161591,2030.14541503 75.4280801699,2030.71233162 75.4390210122,2010.55432584 78.2008624244,2010.55439794 78.2392656405,2006.04940354 78.2425833173,2001.56377435 73.6806014959,2001.56437457 73.6846147075,1983.24575678 64.0986079305,1982.99042549 64.0889392812,2002.33533058 64.9651010256,2002.33314561 64.9529161591,2030.14541503 " moovel_rot="-28.9" moovel_centroid="70.0674487076,2007.19941538"></polygon></g><g transform="translate(-246.2958488 -553.1775178) rotate(0)"><polygon id="393904291" class="tile" points="297.121468456,1669.31595682 297.098196231,1636.38638467 291.953895293,1636.34494124 285.832411587,1636.24155417 285.476217277,1656.92471832 273.526551073,1656.71962165 273.392905729,1666.50317674 287.75296012,1666.71208346 287.722731509,1669.17882097 297.121468456,1669.31595682 " moovel_rot="-80.5" moovel_centroid="288.561001238,1654.81913927"></polygon></g><g transform="translate(-399.0745243 -916.4677736000001) rotate(0)"><polygon id="201150239" class="tile" points="424.066431153,2015.66896812 424.087258314,1983.03825418 401.583451019,1982.99042549 401.574527635,1998.00283209 418.765273718,1998.03758049 418.758306969,2015.66573335 424.066431153,2015.66896812 " moovel_rot="10.7" moovel_centroid="414.69321353,1994.0635529"></polygon></g><g transform="translate(-73.9043139 -1151.3289236) rotate(0)"><polygon id="357540188" class="tile" points="103.9853007,2213.78218629 103.914257969,2204.29576383 113.084219076,2204.66035546 121.997197102,2204.98148939 122.614362181,2208.31453313 122.497930542,2214.02263604 124.330154803,2214.06069471 124.807318088,2213.36175228 125.778885985,2213.97288021 125.753419706,2215.19915697 125.330031743,2215.18379071 125.185922625,2222.58657274 125.605209094,2222.59415982 125.60816468,2223.61656365 124.625929636,2224.04496503 123.9563152,2223.43369881 122.306903751,2223.39866911 122.183182302,2229.50825754 103.919166745,2228.32155789 103.9853007,2213.78218629 " moovel_rot="-27.8" moovel_centroid="113.848953949,2216.88275201"></polygon></g><g transform="translate(-145.0264582 -601.2161908999999) rotate(0)"><polygon id="358906395" class="tile" points="169.365234036,1661.1860601 171.428967299,1639.29271618 150.64334051,1636.24155417 150.677744332,1662.75479669 169.365234036,1661.1860601 " moovel_rot="30.8" moovel_centroid="160.230523227,1649.62337128"></polygon></g><g transform="translate(-474.09976379999995 -190.25935479999987) rotate(0)"><polygon id="179004872" class="tile" points="515.158651451,1201.63065831 505.486987256,1201.0 505.492750726,1238.28092968 514.904264051,1237.9888175 515.158651451,1201.63065831 " moovel_rot="55.6" moovel_centroid="510.24112245,1219.6400959533626"></polygon></g><g transform="translate(-53.1323149 -389.20113130000004) rotate(0)"><polygon id="224659163" class="tile" points="55.6294073712,1401.11464907 58.5483840121,1400.80848457 72.8699906014,1400.29767566 72.8622338569,1413.04328674 56.5317356214,1419.8033702 55.6294073712,1401.11464907 " moovel_rot="5.9" moovel_centroid="63.9194377418,1408.58725512"></polygon></g></g></svg>