<svg><g transform="translate(0 0)"><polygon id="5" class="bin" points="1.875,0.0 -0.77665042945,1.09834957055 -1.875,3.75 -1.875,1203.749999 -0.77665042945,1206.40164943 1.875,1207.499999 248.463405909,1207.499999 251.273693528,1206.2328972 252.184823554,1203.28788353 249.615070846,1182.5936551 249.954306952,1179.46719093 251.752173494,1174.37997946 252.122833241,1173.52191434 254.758448143,1168.40720037 255.782431992,1166.93243947 258.471522001,1163.97565763 259.290560699,1163.26440226 260.572251088,1160.69996135 259.667745676,1157.97949129 257.105699329,1156.69302095 249.761195324,1156.15507481 245.907596549,1154.27024487 244.427215733,1150.24392148 244.765183147,1138.770843 245.062457101,1128.78392846 245.097751407,1128.26346353 245.508153186,1124.39379724 246.922610156,1111.2478263 248.525251575,1096.32551969 248.948378872,1092.40590087 249.234919104,1091.05136647 252.629481201,1080.43232307 252.631341149,1080.42648826 253.654525296,1077.20759574 253.810601409,1076.45962003 254.760851977,1067.32528362 256.126094768,1054.20030091 256.296983528,1052.54409745 256.316624473,1052.12429162 256.230573326,1042.8846743 256.036645488,1041.72879645 255.588643446,1040.39099563 252.319086753,1030.61551063 252.076609123,1029.67353671 251.148350903,1024.60462116 249.608235878,1016.13791037 249.535946527,1014.18273361 250.180272234,1008.12820301 251.663538292,994.386597075 251.663967316,994.382602367 251.795306076,993.153483762 251.809002558,992.517499819 251.102660873,981.38910427 250.980388234,979.428282394 250.903500134,978.871670188 248.067908629,965.713670132 245.93733899,955.821639758 245.802064933,954.882523428 245.433442558,949.908769439 245.433028266,949.903235043 244.537891891,938.063084597 244.559806757,936.791369591 244.8720527,933.962150869 244.872575743,933.957383698 246.475495692,919.26119529 246.491698693,919.064966548 247.212336285,906.239549314 248.026356497,891.540857107 248.442832515,884.176521805 248.446488473,884.116529369 248.943890576,876.502734125 249.912549054,861.560618673 250.837668973,847.426855341 251.154580113,842.532279125 251.136682711,841.85142258 250.086147399,832.930276794 249.137931711,824.892793497 249.096656727,823.799272983 249.331229906,818.21443916 249.772657001,807.495909161 249.807087332,807.035942998 250.369527426,801.861429996 251.973832711,787.044815796 253.507563527,772.906431863 254.004039403,768.347812805 254.015698228,768.220694823 254.749935622,758.375396324 255.81292009,744.104358935 256.475542557,735.318757494 256.699094311,734.024344654 257.956738413,729.422138225 261.298941533,717.236715628 261.428511633,716.417825788 261.466846962,715.587847968 262.026972167,703.422819089 262.460450454,694.114933024 262.334465407,692.961488078 261.088935669,688.355976193 258.567244228,679.021109891 258.357557527,676.616088375 258.893345504,670.672670852 260.117345332,657.036585142 261.130235182,645.829372901 261.136918761,645.744747421 261.403252805,641.804816052 262.361065586,627.469092311 263.147746279,615.681081645 263.164663429,615.474507558 263.831677789,608.604412862 265.684579602,605.039120467 265.984139629,602.357351015 264.405610793,600.168773779 235.396640499,581.249996818 235.262012317,581.159918105 228.607586679,576.593091473 228.321668103,576.385871134 216.609048129,567.429446756 216.083332086,566.983961039 208.472174425,559.848938101 207.761694144,559.072431979 204.694529078,555.155923473 204.537622037,554.968487974 202.033970918,552.168433571 201.357361178,551.274520063 197.160691118,544.672686226 196.790333261,544.012346604 195.593617673,541.572695354 195.278712873,540.821012047 193.34969024,535.322313718 193.203074229,534.850814937 191.974745972,530.33459059 191.857700381,529.829842764 190.752419403,524.087897009 190.640893643,523.201006768 190.229145927,516.348938193 190.221719691,515.675783436 190.453962818,509.559935887 190.51643166,508.860403654 191.112090181,504.638834555 191.14427291,504.433281538 192.209406808,498.24451937 192.258707934,497.98744437 194.358630221,488.062997057 194.419323887,487.801475835 196.501835488,479.562204414 196.526030707,479.460535414 198.854318156,469.033994516 198.930241345,468.54294647 199.52082984,461.779545774 199.535039224,461.446489751 199.524208228,455.510814682 199.500944366,455.10054316 198.730854896,448.220136892 198.576469461,447.4967008 193.856251409,432.71239511 193.713287548,432.195941358 191.812474086,424.116705675 191.678041122,423.355548353 190.934954874,417.117254325 190.918929903,416.969061656 190.358415842,411.201324075 190.331592054,410.264106999 190.645356594,402.355094688 190.658465079,402.123442028 191.53380521,390.219588966 191.594668009,389.682104125 193.511379013,377.178611472 193.59809907,376.718243459 242.93797615,156.354250083 242.200714263,153.184663422 239.981293664,152.127208325 240.00170909,152.078403024 235.173546307,150.058765817 233.539936106,145.895081424 234.744527354,100.394344205 234.618071351,99.3245621096 233.808677574,96.3037551903 233.57471843,94.5164931111 233.582065591,89.4957130619 233.582069303,89.4887172967 233.580894559,86.5678359936 233.796831102,84.8564815365 234.591271007,81.7636987041 234.708807144,80.7776581177 233.676462929,7.83786730073 234.750409453,5.13447627872 234.368101427,1.64397127812 231.265337656,0.0 1.875,0.0 " moovel_rot="0" moovel_centroid="117.47762230175404,621.1643281610939" transform="translate(1.875 0)"></polygon><g transform="translate(325.9110779 -1295.3385343) rotate(0)"><polygon id="226673018" class="tile" points="-275.242619797,2495.35300527 -323.476599303,2443.12043608 -240.359529487,2357.32462177 -289.655649456,2308.50155075 -289.867044377,2304.24001465 -323.455413071,2271.70035461 -314.279291744,2261.54124596 -319.449737492,2254.67175058 -259.108798804,2192.82122141 -296.552921794,2156.43318561 -285.854495141,2146.28789054 -249.811655357,2181.91602305 -195.119962206,2149.75916918 -179.308548968,2191.80947467 -246.447864459,2231.95562819 -253.580177822,2220.20948088 -260.029120168,2213.85854777 -278.003513153,2232.45487852 -267.652031103,2242.5545641 -287.754438144,2265.2385395 -264.029621261,2285.53959681 -234.238607243,2337.40343168 -189.386780721,2311.62686213 -176.371882841,2331.3347333 -169.444331045,2327.41721988 -164.188798527,2336.36646762 -159.796224201,2338.02419566 -155.642444617,2336.37071217 -151.56795034,2331.28274027 -146.611783361,2334.81510758 -154.322352342,2344.13133843 -150.616265056,2348.16177309 -167.499522796,2367.71698767 -183.290693582,2341.55400809 -233.16344772,2371.49529964 -296.878244327,2437.42614641 -282.246403446,2452.35264462 -278.720653049,2449.27451352 -256.678475849,2472.79848657 -275.242619797,2495.35300527 " moovel_rot="-54.2" moovel_centroid="-251.0975453,2297.52236677"></polygon></g><g transform="translate(200.8102888 -740.2153096000001) rotate(0)"><polygon id="309309712" class="tile" points="-50.0110586464,1756.34874795 -78.8312032124,1745.97307858 -64.8341429925,1703.35770664 -55.1919433471,1677.31968294 -50.2320845654,1654.4093626 -49.3513014827,1635.51261314 -50.3968211018,1614.37730628 -57.3842629815,1594.80574968 -69.6697908366,1573.63596467 -77.0112402057,1565.42862263 -78.8949347634,1562.55484584 -47.9069622092,1535.27690345 -41.0923981553,1539.65778601 -36.8955303373,1537.26711643 -26.2826526945,1551.53159292 -14.7894655276,1571.07225983 -6.34368499573,1592.27620713 -1.78893374875,1613.04456115 0.0,1633.31266562 -0.343363387696,1652.61344838 -5.00639271364,1678.56461084 -12.3490606232,1703.81914863 -16.0004696092,1713.45459846 -20.6645970566,1711.79209837 -23.9776766947,1720.92947393 -26.479764818,1723.45866921 -30.6552031333,1723.82227758 -37.8324407766,1721.46398091 -50.0110586464,1756.34874795 " moovel_rot="71.0" moovel_centroid="-36.43422663894894,1642.06886717"></polygon></g><g transform="translate(102.33157789999998 -1278.926559) rotate(0)"><polygon id="284466440" class="tile" points="-51.4700694038,2054.0858261 -58.7485574417,2034.87206596 -66.9479498455,2009.46738634 -68.5414415125,2006.16084564 -78.0306648687,1989.41701183 -96.0941195838,1961.22292144 -100.054092542,1954.65785047 -67.7449983906,1938.55221269 -12.0506911291,2019.67234295 -10.904811896,2022.42578278 -9.76882047839,2026.23713167 -7.24075283445,2029.89876471 -1.16215816811,2039.89436418 -0.527245756052,2042.37383079 -0.7639626313,2043.075993 -0.561668120697,2045.29733421 -0.639470795542,2047.40590912 0.0,2050.01429221 -1.46883194838,2052.91951553 -0.0906649198383,2055.82319886 -2.72720296159,2061.29930157 -8.59353957251,2058.77047495 -10.5936015682,2059.63262514 -18.6773679228,2067.03449606 -27.7002909953,2073.05186077 -28.6318757823,2073.6562084 -28.2062101688,2075.89126659 -20.0718733622,2088.97912614 -26.0428099707,2092.6111851 -25.0318153929,2095.37101723 -18.6605349166,2106.11958912 -21.3483588595,2107.68927337 -18.6472764865,2112.52658616 -22.7390281135,2114.09089568 -26.0162196871,2115.33034923 -30.3344710764,2116.74108205 -35.3481769122,2117.69010485 -41.7530479459,2118.45444233 -49.6549040638,2119.96481572 -61.5178038664,2124.04722881 -73.0575512957,2129.75563223 -80.6267323159,2135.19336862 -86.4592082988,2140.14236761 -89.1100334376,2143.06686439 -92.4229048971,2145.56110569 -93.5152784899,2146.28789054 -99.9737824369,2132.72596187 -95.9217506848,2131.71052267 -92.4527029194,2130.72543086 -61.357849592,2116.23583924 -59.9940474965,2114.746545 -61.5517523378,2112.02663902 -69.9286503464,2094.2414265 -72.6149106273,2095.88103944 -81.6559788549,2077.27211225 -77.6353387959,2075.67771268 -81.4861107493,2067.54271974 -68.1779382516,2061.22624942 -63.7730045328,2059.60400121 -50.8081971142,2056.19573733 -51.4700694038,2054.0858261 " moovel_rot="29.8" moovel_centroid="-49.146422830430375,2038.40637891"></polygon></g><g transform="translate(364.9952234 -1129.7438858) rotate(0)"><polygon id="296322568" class="tile" points="-272.243810688,1854.54582726 -230.320764212,1807.77720916 -251.225573768,1789.44366077 -224.436187264,1757.35750383 -218.18846292,1756.34874795 -166.94093275,1800.38538296 -188.43365415,1825.96109679 -182.638468418,1831.00119246 -177.551418186,1835.81162651 -209.194434075,1873.15785856 -166.871420253,1909.00262799 -184.966381025,1928.68688881 -197.504319924,1923.35818012 -212.541369494,1911.21861439 -230.843401523,1895.24468603 -243.046747088,1880.16430251 -272.243810688,1854.54582726 " moovel_rot="17.3" moovel_centroid="-215.012648062,1839.44951762"></polygon></g><g transform="translate(152.7006029 -121.3905787000001) rotate(0)"><polygon id="103109948" class="tile" points="-6.6402264256,1319.42908827 -2.82505313866,1307.2195782 -1.03604617789,1295.91839089 -1.0,1221.89934054 -2.39801916443,1210.50008242 -3.98728426285,1205.76496358 -5.54148854204,1203.60186586 -7.6652003549,1201.93794133 -10.0915339131,1201.0 -13.1309701618,1201.03799801 -73.8001856014,1227.01660481 -86.4977221128,1234.98175445 -92.6967792306,1238.50772666 -97.9662665676,1249.52435316 -101.317825116,1256.54673687 -87.2129600883,1281.53134691 -72.8353879858,1281.01185058 -71.1954564866,1290.94263864 -79.2349912107,1298.95041754 -70.2993736897,1321.25639843 -6.6402264256,1319.42908827 " moovel_rot="-57.9" moovel_centroid="-42.025231693936675,1264.7154349924238"></polygon></g><g transform="translate(424.9626078 -318.81664239999986) rotate(0)"><polygon id="287648860" class="tile" points="-201.774521313,1518.81663317 -201.844214237,1390.90488645 -203.087769963,1390.90763238 -259.69753764,1390.76206569 -259.633575385,1518.6703435 -201.774521313,1518.81663317 " moovel_rot="-26.8" moovel_centroid="-230.737540393,1454.79099138"></polygon></g><g transform="translate(601.5585326 -634.1501503) rotate(0)"><polygon id="241824860" class="tile" points="-393.852131714,1535.27690345 -363.785232234,1535.4873119 -363.652686135,1670.93263078 -381.744216589,1670.19677657 -385.713864434,1673.49879707 -384.669344938,1686.26215873 -401.493436247,1697.24663555 -440.500553963,1636.03950892 -401.245354377,1610.42120808 -402.807502656,1590.38932116 -395.182819023,1589.76489538 -396.434534808,1550.05577784 -392.913187059,1550.03994394 -393.852131714,1535.27690345 " moovel_rot="-26.2" moovel_centroid="-390.337623415,1620.32697943"></polygon></g><g transform="translate(498.8974938 -679.2947937000001) rotate(0)"><polygon id="364973316" class="tile" points="-400.799371529,1390.76206569 -405.983037029,1390.71101902 -405.838568504,1388.80892241 -405.851687925,1386.85106569 -406.501407288,1385.78551325 -407.253410146,1385.30215737 -410.194360633,1385.25245395 -426.599126144,1385.11066483 -426.931340056,1377.0506435 -421.946003916,1377.15074305 -421.941892131,1376.89444358 -421.881476224,1374.70856685 -410.970862512,1374.80939762 -410.942642808,1375.98262064 -410.980875393,1378.5080116 -410.613265395,1380.24775034 -410.29303424,1381.36793584 -409.416003939,1381.98652483 -407.977012977,1382.13765565 -406.726332793,1381.98445679 -406.031120401,1381.13963247 -405.761804171,1372.23877153 -405.589188819,1355.75824114 -405.435143582,1337.8167143 -405.160145222,1305.93310399 -406.470575216,1304.33033454 -408.206393377,1303.17983933 -410.213878127,1302.74993879 -411.725922258,1302.73935335 -412.84458033,1302.73388304 -413.889632225,1302.96578606 -414.505781941,1303.55112095 -414.405031354,1307.06385994 -435.304565958,1307.14157379 -435.483688708,1305.19703142 -435.745621709,1303.70267088 -436.427587586,1303.13824658 -438.220894544,1302.69610123 -439.636476515,1302.66578936 -449.59168049,1302.56801226 -450.962347785,1302.64198528 -453.11567039,1302.44942639 -454.607795487,1302.70660786 -456.391126432,1303.35100329 -457.092722634,1304.38038311 -457.619147567,1306.14881398 -457.714808072,1292.16911862 -457.06900867,1293.93449502 -456.235229685,1294.62988896 -455.320110844,1295.13753522 -452.611634824,1295.60006461 -450.468633933,1295.72434626 -451.044020448,1287.12182158 -449.721193122,1207.69186968 -449.081020371,1207.11800559 -447.641777783,1207.22539456 -444.671750962,1207.34257046 -442.177444672,1206.86467676 -441.039256583,1206.25086732 -440.228842709,1205.38551839 -439.626091349,1204.32598541 -439.250108777,1203.13867483 -439.181255581,1201.83637864 -439.197978625,1201.0 -433.601596047,1201.43326568 -433.830612666,1203.13906253 -433.731364221,1205.0089205 -433.333047831,1206.04457145 -432.784087675,1206.94262248 -431.473969487,1208.12373586 -429.262071939,1208.85103146 -412.095294479,1210.58451974 -410.112380772,1210.62502863 -409.058538308,1210.25843934 -407.045293464,1208.70780785 -405.838856155,1206.90104605 -405.338410951,1204.51839052 -405.471645565,1201.55051543 -400.663309386,1201.72684321 -400.616455948,1204.82645913 -400.366241924,1207.93303336 -399.847801807,1209.97869901 -399.203977224,1211.14132935 -398.240559615,1211.62817488 -396.748157341,1212.27990498 -391.249130672,1212.42057535 -391.269121676,1296.67090047 -391.204667227,1297.10856584 -394.602241004,1297.35005469 -394.256395839,1302.49530645 -395.541919374,1302.65623898 -396.848087739,1302.68061763 -398.286406049,1302.88553725 -399.438539275,1303.59989163 -400.359477458,1304.60737907 -401.157593468,1306.14375072 -401.317428447,1307.92156472 -400.799371529,1390.76206569 " moovel_rot="-66.7" moovel_centroid="-420.289188886,1265.681608013437"></polygon></g><g transform="translate(593.2377415000001 -1530.0868709000001) rotate(0)"><polygon id="223633970" class="tile" points="-399.676106542,1989.90554101 -453.80849261,2077.39155425 -456.116626139,2075.89120527 -488.179555598,2056.01894514 -482.500727179,2032.30180066 -464.556718661,1966.79253648 -488.223806918,1952.03247005 -481.137302143,1938.55221269 -399.676106542,1989.90554101 " moovel_rot="8.2" moovel_centroid="-450.37222651,2010.31213449"></polygon></g><g transform="translate(230.0841479 -1500.8837147) rotate(0)"><polygon id="245135709" class="tile" points="-221.353784693,1939.42444502 -171.137309571,1938.55221269 -157.206861818,1942.58232639 -158.735412721,1945.25015821 -153.609473881,1946.25847462 -153.704286972,2011.37444733 -171.402456191,2011.12238355 -172.27483028,2017.5094043 -181.016575107,2023.9987759 -227.218664852,2024.13826511 -227.584187566,1954.91157779 -222.078271533,1955.13035991 -221.353784693,1939.42444502 " moovel_rot="-25.7" moovel_centroid="-191.429097133,1980.71635999"></polygon></g><g transform="translate(357.9258305 -795.6887793999999) rotate(0)"><polygon id="324849966" class="tile" points="-106.803874714,1500.64831018 -106.894535714,1390.76242795 -154.960409892,1390.76206569 -154.861784317,1500.6402095 -106.803874714,1500.64831018 " moovel_rot="-82.8" moovel_centroid="-130.879870379,1445.70173466"></polygon></g><g transform="translate(236.11456399999997 -1046.4635658000002) rotate(0)"><polygon id="220738612" class="tile" points="-30.1068856202,1766.63367853 -26.3895698329,1766.44257302 -14.7144703081,1765.43575797 -14.3339404285,1760.50267737 -9.64345428944,1760.65680324 -9.5159655327,1756.51239596 -3.5514302535,1756.34874795 0.0,1757.21578794 -2.44340029098,1787.32189583 -4.76944630109,1808.95671111 -3.99782288354,1831.4746548 -2.0742804436,1859.75416555 -1.23543225713,1877.53154627 -0.0509251831099,1890.69879207 -0.441137486883,1908.92565581 -4.01394693106,1924.29718463 -8.99401841741,1938.55221269 -12.5682717735,1936.988545 -19.6288958648,1935.3922606 -20.06009595,1932.46127675 -22.5257954294,1929.25582465 -24.7510743286,1924.58460211 -26.276256153,1886.03300829 -30.2259523815,1885.5399572 -32.4034612158,1846.68279108 -33.5976693207,1806.47182381 -30.1068856202,1766.63367853 " moovel_rot="64.9" moovel_centroid="-16.174130925870084,1844.23387674"></polygon></g><g transform="translate(413.253556 -874.4624207) rotate(0)"><polygon id="448157971" class="tile" points="-355.128231719,1307.20903791 -313.224257063,1307.76787236 -313.354578313,1207.63437042 -334.408704502,1203.77148819 -339.337676064,1201.02435214 -358.774187804,1201.0 -359.185189944,1298.95827558 -355.304089417,1299.43522522 -355.128231719,1307.20903791 " moovel_rot="58.9" moovel_centroid="-336.267707657,1255.159410801092"></polygon></g><g transform="translate(339.3167904 -873.9890793000001) rotate(0)"><polygon id="373017715" class="tile" points="-154.527865074,1214.22417049 -154.412525156,1299.20633406 -158.19027785,1309.07962684 -205.986013325,1289.97638126 -204.848581471,1201.0 -179.166722896,1202.03514879 -179.438488851,1213.76210929 -172.348863168,1214.13176908 -165.229249404,1214.16797634 -154.527865074,1214.22417049 " moovel_rot="47.8" moovel_centroid="-180.001941554,1253.9315661145993"></polygon></g><g transform="translate(113.199634 -1476.251106) rotate(0)"><polygon id="25346392" class="tile" points="-76.0887540286,1909.74962573 -76.0848337645,1756.34874795 -108.693946416,1774.56373964 -110.701729734,1823.5780502 -106.483448531,1888.45941439 -76.0887540286,1909.74962573 " moovel_rot="21.2" moovel_centroid="-91.7427905076,1831.32153796"></polygon></g><g transform="translate(642.0361023 -1164.0753542999998) rotate(0)"><polygon id="443136831" class="tile" points="-489.143202594,1400.46762452 -524.126291863,1535.27690345 -537.108717467,1531.53792585 -531.34911303,1480.62504034 -537.262833853,1394.19783253 -517.119598642,1390.76206569 -489.143202594,1400.46762452 " moovel_rot="-30.6" moovel_centroid="-518.488061321,1448.76137523"></polygon></g><g transform="translate(602.7705454 -1695.3570665) rotate(0)"><polygon id="404068155" class="tile" points="-508.547250005,2016.97554554 -560.650429874,2016.83015362 -560.6604324,1938.55221269 -554.583127268,1938.57102824 -508.557012448,1938.69749621 -508.547250005,2016.97554554 " moovel_rot="-65.7" moovel_centroid="-534.603695555,1977.76428964"></polygon></g><g transform="translate(706.0375656 -1310.8004127) rotate(0)"><polygon id="292156929" class="tile" points="-529.997863972,1535.34004525 -524.735033516,1535.35846607 -499.826825287,1535.44526834 -499.865240605,1603.52221168 -508.051577391,1603.42315434 -508.056093024,1608.50888284 -508.047964794,1613.46395063 -522.655121672,1613.56391422 -522.641030193,1615.33928782 -524.08621968,1615.35030997 -523.933549612,1637.85455011 -529.994193242,1637.58918575 -530.16689771,1613.4822353 -548.120330581,1613.60960221 -548.129372546,1606.29735957 -548.237409003,1535.27690345 -529.997863972,1535.34004525 " moovel_rot="60.8" moovel_centroid="-524.569265538,1575.67508582"></polygon></g><g transform="translate(494.8977835 -1221.4482254) rotate(0)"><polygon id="274454577" class="tile" points="-350.934938491,1842.82083477 -334.117562144,1844.54771877 -334.111395844,1843.85920635 -333.731276707,1843.17646931 -332.89557706,1842.82995264 -321.763274703,1842.85993136 -320.636026138,1842.95004036 -319.112689239,1843.30134151 -317.840134531,1843.84258252 -317.29706802,1844.3492118 -316.96507303,1844.82108854 -316.644794789,1845.61303791 -316.590372129,1846.20659825 -315.597247312,1844.53997818 -313.860468977,1841.62090559 -312.336327065,1839.06987897 -312.871797246,1839.41586266 -313.487584466,1839.65563027 -314.130215245,1839.72858913 -314.87168735,1839.52128774 -315.483033536,1839.17968442 -315.901832469,1838.69878935 -316.029242826,1838.3588628 -315.994507256,1837.73001554 -315.870038438,1837.03016788 -299.542077979,1809.96211635 -299.098599254,1808.8087433 -298.026316359,1806.19995732 -297.591796187,1803.87118101 -297.109714152,1801.54329491 -296.806203816,1799.91301482 -296.730510052,1798.06534638 -296.995555787,1794.96460623 -297.194238816,1793.65136944 -297.483858858,1792.38200899 -298.33376883,1789.53639916 -298.374534299,1788.90982756 -298.132337094,1788.23435385 -294.600437884,1786.92325951 -295.710290645,1783.81777203 -297.388688682,1780.36162438 -299.294477369,1777.47651548 -301.408408014,1774.47663404 -303.420249235,1772.26831757 -305.050021032,1770.7841299 -307.543753354,1769.0583154 -316.283901109,1763.20806638 -322.73506009,1758.65601764 -325.599603083,1757.23862306 -327.303823074,1756.60798448 -328.639054734,1756.69876727 -331.540476533,1756.34874795 -335.442675658,1756.71419656 -338.173878225,1757.81486052 -341.980050063,1759.85750445 -344.405782559,1761.85456055 -347.363577988,1765.00456795 -349.198779131,1768.43184313 -350.142185137,1771.90046322 -350.55331513,1774.610345 -350.928291541,1777.1127109 -350.934938491,1842.82083477 " moovel_rot="-11.7" moovel_centroid="-326.905785254,1800.46307396"></polygon></g><g transform="translate(99.84234339999999 -1225.7239073) rotate(0)"><polygon id="224291340" class="tile" points="-0.0710674759001,1464.08747708 -0.00391376707703,1397.60345392 0.0,1390.92796679 -16.9870322362,1390.8049536 -26.9463442169,1390.76206569 -26.9822082449,1395.58438782 -47.9320037026,1395.67650973 -47.830327899,1459.36821471 -47.8229987042,1463.88806557 -0.0710674759001,1464.08747708 " moovel_rot="4.5" moovel_centroid="-23.54958409298367,1428.39781383"></polygon></g><g transform="translate(271.6182051 -1393.1874157) rotate(0)"><polygon id="329779763" class="tile" points="-116.332646877,1613.57196114 -102.798544089,1561.74701949 -162.300690028,1535.27690345 -158.629077026,1569.82260499 -156.75250819,1585.502754 -160.408000367,1600.16775079 -162.261655457,1610.49201001 -144.362044852,1615.333581 -142.073767664,1604.71143659 -116.332646877,1613.57196114 " moovel_rot="-56.3" moovel_centroid="-135.844846794,1577.83398013"></polygon></g><g transform="translate(547.4725893 -1830.7078305) rotate(0)"><polygon id="412123956" class="tile" points="-322.566908626,1946.2474269 -327.323073029,1938.55221269 -353.260826589,1953.27526556 -351.46191257,1956.87335927 -356.843573097,1959.86209646 -359.319716,1956.6836005 -383.438219868,1969.80300946 -380.318906547,1975.18921322 -383.794143564,1977.15089173 -343.260297925,2050.61968967 -322.654103638,2040.17861163 -352.941142694,1987.92471439 -363.276978372,1993.54622288 -364.134955904,1992.19321211 -353.977763318,1985.8370042 -363.366295778,1969.89584252 -360.84078292,1968.50623949 -351.212746351,1984.38775372 -335.523394743,1976.17092181 -345.118709626,1959.88846582 -339.533076039,1956.65424701 -335.9211901,1954.41639472 -333.973893659,1958.10470982 -323.019199417,1951.81248184 -325.004911529,1948.52161702 -322.566908626,1946.2474269 " moovel_rot="-31.3" moovel_centroid="-351.773098564,1993.75710674"></polygon></g><g transform="translate(314.7211628 -165.77776719999997) rotate(0)"><polygon id="285310128" class="tile" points="-289.614839592,1283.08593142 -288.794399688,1258.28300768 -268.703423122,1259.46857996 -268.700773794,1213.99879475 -268.704502176,1201.0 -311.088382874,1202.89427332 -312.224257063,1204.93296963 -310.127386989,1246.84040268 -309.892896613,1251.85304032 -301.211414546,1251.96341407 -300.496264244,1283.01302299 -289.614839592,1283.08593142 " moovel_rot="-67.1" moovel_centroid="-289.884699729,1233.8696353266575"></polygon></g><g transform="translate(438.74707029999996 -1272.9546594) rotate(0)"><polygon id="413619441" class="tile" points="-383.903905562,1434.28848248 -383.538471389,1397.91532711 -385.673047081,1397.59912714 -386.346488622,1391.03354615 -400.080870145,1390.76206569 -400.410423826,1396.92273453 -436.246180975,1396.82473902 -436.247067709,1409.47071659 -414.34894234,1410.17064759 -414.770444647,1415.93078124 -415.214860378,1418.28257788 -415.234670075,1422.4933539 -415.276221825,1429.47923264 -411.927724645,1429.50022559 -411.951810923,1433.93566158 -415.198742469,1433.92025012 -415.283653492,1449.57950345 -421.268223026,1449.54082202 -421.369352832,1468.48188379 -418.153361324,1471.57714421 -388.969814515,1437.87560506 -383.903905562,1434.28848248 " moovel_rot="-13.1" moovel_centroid="-404.898395443,1422.64475866"></polygon></g><g transform="translate(321.2751189 -832.7346122999999) rotate(0)"><polygon id="275731232" class="tile" points="-318.19004108,1444.91034231 -286.464686375,1444.92404431 -282.975029734,1440.8547221 -279.134937901,1440.80839267 -279.065921118,1390.76206569 -286.459039589,1390.88558016 -301.213641368,1391.13723388 -315.743472793,1391.38097708 -318.775280349,1391.43801324 -318.19004108,1444.91034231 " moovel_rot="25.0" moovel_centroid="-298.933764217,1417.65846606"></polygon></g><g transform="translate(209.1532688 -262.175349) rotate(0)"><polygon id="63406698" class="tile" points="-102.317825116,1201.0 -139.011040862,1204.44448499 -134.834169243,1264.04602349 -127.482220568,1263.39531925 -110.325663132,1261.86366635 -108.088146544,1258.70102766 -104.235431777,1258.740942 -102.35657808,1252.66359152 -102.317825116,1201.0 " moovel_rot="21.1" moovel_centroid="-119.815475978,1231.726888721823"></polygon></g><g transform="translate(324.41913969999996 -1503.1555005) rotate(0)"><polygon id="271129839" class="tile" points="-250.363070345,1663.13201318 -263.62583042,1663.80979827 -265.309322987,1561.66409823 -263.554783837,1537.07089018 -250.317414876,1535.27690345 -250.537948613,1598.88906408 -250.363070345,1663.13201318 " moovel_rot="-43.6" moovel_centroid="-257.447606553,1599.08538487"></polygon></g><g transform="translate(148.1085965 -1935.9082356999998) rotate(0)"><polygon id="285933030" class="tile" points="-144.440299391,2146.28789054 -145.611783361,2169.45783275 -144.014135744,2170.6580075 -143.722667077,2178.75834661 -145.287612737,2178.79384207 -145.596116083,2194.3671429 -142.440258227,2196.1912507 -143.015678577,2215.56834524 -116.719525355,2213.75032278 -115.712961498,2191.74327164 -116.171374224,2175.14055817 -115.722440369,2146.5002541 -144.440299391,2146.28789054 " moovel_rot="71.6" moovel_centroid="-130.268240282,2179.93749672"></polygon></g><g transform="translate(648.2824971 -1146.7834701000002) rotate(0)"><polygon id="281477531" class="tile" points="-521.701252612,1277.1063883 -552.231775521,1277.19619658 -552.232975004,1278.52037739 -558.2647326,1278.53595486 -558.283306686,1252.15141539 -553.45664061,1252.13850968 -553.469394619,1232.40787928 -558.486554894,1232.42373044 -558.50406836,1205.82420034 -552.562925583,1205.81312611 -552.561934325,1207.65858665 -515.86829766,1207.54360047 -515.870093547,1201.0 -560.840352397,1201.14190415 -565.554577036,1201.15182432 -569.188728787,1201.16655931 -569.167775427,1243.23053336 -569.163186001,1252.15960307 -569.140549703,1284.18263352 -565.116172092,1284.16799296 -558.02912537,1284.14745364 -521.694699921,1284.03973799 -521.701252612,1277.1063883 " moovel_rot="19.7" moovel_centroid="-554.441780406,1242.108060905364"></polygon></g><g transform="translate(198.761827 -1502.1443791000002) rotate(0)"><polygon id="413619428" class="tile" points="-167.912422617,1546.5316101 -167.3663616,1543.92757948 -169.130470608,1542.48564427 -191.057059223,1535.27690345 -196.397102397,1550.84282202 -194.298743689,1553.5928658 -191.933128231,1556.92943697 -191.557706809,1560.08782958 -192.53580475,1564.08716965 -193.310465443,1567.39660253 -190.656516128,1567.7443781 -191.345384344,1573.18920834 -194.009621685,1572.84543816 -195.960336532,1594.01458577 -193.877585479,1598.84818359 -180.894942684,1619.15649075 -175.702536707,1621.15264148 -173.036865017,1613.30008177 -170.772710281,1606.61406356 -178.408136494,1604.02819736 -173.785177362,1590.37387539 -167.045895057,1592.65804298 -163.305724755,1581.6075667 -172.943435259,1578.40305859 -163.300690028,1549.98665906 -167.524051412,1548.64621982 -167.912422617,1546.5316101 " moovel_rot="-31.5" moovel_centroid="-181.172586618,1574.1640475"></polygon></g><g transform="translate(198.61612259999998 -2081.7761676) rotate(0)"><polygon id="413378697" class="tile" points="-52.466893639,2222.90768493 -52.4499208853,2155.45536859 -62.9607353553,2146.28789054 -97.3608168121,2183.02485147 -52.466893639,2222.90768493 " moovel_rot="-70.0" moovel_centroid="-68.0836667039,2182.32651307"></polygon></g><g transform="translate(638.285586 -1143.9465939) rotate(0)"><polygon id="157929611" class="tile" points="-458.766662043,1268.93658248 -458.714808072,1209.07786522 -481.551506564,1209.05804516 -481.546217632,1201.00296377 -487.071215026,1201.0 -487.134439838,1277.42306287 -481.092022802,1277.42692971 -481.085941169,1268.91766549 -458.766662043,1268.93658248 " moovel_rot="-90.1" moovel_centroid="-473.525045067,1239.131539893383"></polygon></g><g transform="translate(330.5932237 -1732.5318948) rotate(0)"><polygon id="383828565" class="tile" points="-135.953137949,1843.24143309 -122.223675952,1841.35213676 -128.417886289,1779.19130027 -111.701729734,1776.64007769 -114.900185759,1756.34874795 -147.579206441,1762.64795217 -143.608131592,1777.56804922 -147.55410039,1791.77558463 -135.953137949,1843.24143309 " moovel_rot="33.0" moovel_centroid="-132.261154909,1794.60727581"></polygon></g><g transform="translate(406.6972134 -1930.2661804) rotate(0)"><polygon id="286087283" class="tile" points="-228.612793581,1981.50868567 -270.863420502,1981.32680888 -270.834891009,1938.55221269 -228.584187566,1938.73397119 -228.612793581,1981.50868567 " moovel_rot="-32.9" moovel_centroid="-249.723813397,1960.0304132"></polygon></g><g transform="translate(431.8804325 -589.6943864999998) rotate(0)"><polygon id="160062194" class="tile" points="-320.844061413,1391.99134833 -343.279274126,1390.76206569 -343.421659867,1414.95705082 -343.591295731,1443.3104424 -356.555792717,1443.92944902 -356.545515776,1456.63306701 -332.90286132,1457.02120917 -319.775280349,1448.80412375 -320.844061413,1391.99134833 " moovel_rot="23.5" moovel_centroid="-334.018117735,1426.21844765"></polygon></g><g transform="translate(117.2129577 -1415.5814002000002) rotate(0)"><polygon id="242317849" class="tile" points="-114.58357175,2259.57017171 -103.687850991,2260.19337489 -103.556007013,2146.36266731 -105.056305748,2146.34320607 -110.402867886,2146.34101805 -114.712961498,2146.28789054 -114.58357175,2259.57017171 " moovel_rot="-26.1" moovel_centroid="-109.130432357,2202.88330999"></polygon></g><g transform="translate(508.2478939 -882.3789478000001) rotate(0)"><polygon id="144630629" class="tile" points="-505.715992358,1756.34874795 -505.747904844,1814.70333289 -493.844931341,1814.42028577 -481.918551158,1814.26763106 -482.155519343,1758.51359712 -494.337359792,1757.4013527 -505.715992358,1756.34874795 " moovel_rot="-20.1" moovel_centroid="-493.97481399,1785.99527527"></polygon></g><g transform="translate(438.31651139999997 -1123.588029) rotate(0)"><polygon id="329776612" class="tile" points="-380.879924123,1756.34874795 -363.395843586,1756.59348298 -351.934938491,1779.61901146 -352.639755433,1794.98922285 -353.195810646,1807.77287056 -380.872348179,1807.72599939 -380.879924123,1756.34874795 " moovel_rot="79.7" moovel_centroid="-367.660785387,1783.68398413"></polygon></g><g transform="translate(375.5105304 -1526.9698074) rotate(0)"><polygon id="185148211" class="tile" points="-296.417837512,1535.48889778 -296.411895977,1553.64892697 -296.402181617,1576.35297217 -271.818040419,1575.82376911 -266.340293258,1575.82899487 -266.309322987,1535.27690345 -272.705016796,1535.32027013 -289.273358604,1535.4399329 -296.417837512,1535.48889778 " moovel_rot="8.5" moovel_centroid="-281.390727413,1555.70676598"></polygon></g><g transform="translate(330.7238203 -1086.5239984) rotate(0)"><polygon id="283167855" class="tile" points="-249.317414876,1578.78799421 -247.978341206,1578.78862407 -247.423449194,1579.53786811 -237.416286267,1579.54182937 -237.417840458,1579.03707852 -235.16731641,1579.0374361 -235.166713774,1579.30859179 -225.168860937,1579.30663651 -221.469550155,1575.56131852 -221.459415659,1539.18337829 -225.412433508,1535.29290213 -235.385237646,1535.28556526 -235.385332011,1535.63184431 -237.407995144,1535.63141412 -237.410945748,1535.27690345 -247.408808029,1535.27883321 -249.311662484,1539.18314081 -249.313086331,1540.68093963 -249.317414876,1578.78799421 " moovel_rot="20.3" moovel_centroid="-235.506952233,1557.40196461"></polygon></g><g transform="translate(409.20318829999997 -1370.7702797000002) rotate(0)"><polygon id="266174996" class="tile" points="-272.509685133,1938.55221269 -271.942407552,1985.61090753 -276.984084957,1985.95275743 -271.8929121,1992.96492933 -271.863420502,1994.65450183 -274.261611286,1994.82328595 -296.52095925,1994.78429236 -296.476453497,1968.71742633 -288.740865332,1968.58240114 -288.915363895,1939.00557955 -272.509685133,1938.55221269 " moovel_rot="-89.0" moovel_centroid="-282.792716644,1969.26298052"></polygon></g><g transform="translate(397.92341799999997 -1524.2264598) rotate(0)"><polygon id="275737159" class="tile" points="-345.076859464,1535.77788032 -345.005361742,1638.40091087 -360.156734125,1639.61005932 -360.045718314,1601.11089583 -357.223914122,1599.64089798 -355.084882647,1597.76227947 -356.04507754,1595.65579948 -357.743625459,1594.35410324 -360.672141727,1594.59690868 -362.652686135,1596.81936808 -362.408440921,1591.92929187 -362.115177052,1585.97850804 -360.738038896,1588.73489854 -359.235465095,1589.70692175 -357.506017623,1589.65431489 -356.296895484,1589.13170261 -355.124288208,1588.15343746 -354.459510341,1586.70044489 -355.32750468,1585.2914644 -356.811879608,1584.57545627 -358.835479809,1583.47169568 -359.744105987,1582.08745634 -360.13843978,1543.36577272 -356.597773727,1542.96677493 -356.547530177,1535.27690345 -345.076859464,1535.77788032 " moovel_rot="20.7" moovel_centroid="-352.375233268,1588.1601101"></polygon></g><g transform="translate(392.7046802 -580.4451597000001) rotate(0)"><polygon id="244091359" class="tile" points="-390.204667227,1201.05140167 -365.144185263,1201.0 -365.115864587,1237.99217688 -390.168429121,1238.05126395 -390.204667227,1201.05140167 " moovel_rot="8.6" moovel_centroid="-377.658722145,1219.522738235888"></polygon></g><g transform="translate(539.2728675 -820.3055331) rotate(0)"><polygon id="375378868" class="tile" points="-297.535140377,2007.00405101 -311.092049033,2006.98051561 -311.053691143,1938.55221269 -302.024414643,1938.56927498 -302.039935977,1975.30523208 -297.52095925,1975.31307608 -297.535140377,2007.00405101 " moovel_rot="-81.0" moovel_centroid="-305.282867547,1976.23621271"></polygon></g><g transform="translate(347.6315373 -272.22628699999996) rotate(0)"><polygon id="376406588" class="tile" points="-235.810912851,1245.88312976 -220.234061966,1245.86769357 -220.223635575,1201.0 -235.791818394,1201.01673165 -235.810912851,1245.88312976 " moovel_rot="81.5" moovel_centroid="-228.015070153,1223.4439699882837"></polygon></g><g transform="translate(447.2981707 -159.22432230000004) rotate(0)"><polygon id="395655362" class="tile" points="-207.213434733,1254.24343888 -207.164520323,1213.82579869 -206.986013325,1201.3136969 -207.081887284,1201.0 -216.804258185,1201.0222372 -219.223635575,1201.02384036 -219.212815272,1206.9003482 -219.203784799,1212.59065947 -219.146536315,1254.26163391 -207.213434733,1254.24343888 " moovel_rot="8.8" moovel_centroid="-213.172150899,1227.544744898893"></polygon></g><g transform="translate(577.1012299 -1038.6321487) rotate(0)"><polygon id="320632326" class="tile" points="-381.882131649,1756.34874795 -394.60159838,1757.40759893 -394.847801531,1768.54695315 -399.802591541,1768.43838872 -401.233670721,1768.40916269 -401.327296685,1772.69574548 -405.892977816,1772.59193072 -406.036458378,1779.24376503 -405.904151773,1788.67491066 -381.879924123,1788.86164069 -381.882131649,1756.34874795 " moovel_rot="82.4" moovel_centroid="-392.226502117,1775.04005823"></polygon></g><g transform="translate(128.0987776 -1409.0328819000001) rotate(0)"><polygon id="246735402" class="tile" points="-125.598776217,1938.5894702 -102.064627369,1938.55221269 -102.054092542,1962.33512754 -125.589457675,1962.36373073 -125.598776217,1938.5894702 " moovel_rot="8.0" moovel_centroid="-113.82602447,1950.46023639"></polygon></g><g transform="translate(327.4579496 -763.0310872) rotate(0)"><polygon id="374788448" class="tile" points="-197.414306075,1535.27690345 -197.397102397,1558.96926416 -220.453199347,1559.06522784 -220.459415659,1535.37301411 -197.414306075,1535.27690345 " moovel_rot="51.8" moovel_centroid="-208.930989776,1547.17204342"></polygon></g><g transform="translate(286.3391308 -458.2535773000001) rotate(0)"><polygon id="266175000" class="tile" points="-253.510601502,1201.0 -253.262164512,1235.69797555 -267.700773794,1236.40594907 -267.696557852,1201.45457796 -263.304588065,1201.07986393 -253.510601502,1201.0 " moovel_rot="1.8" moovel_centroid="-260.553833001,1218.6332542283362"></polygon></g><g transform="translate(51.53668210000001 -1145.4421780999999) rotate(0)"><polygon id="219682492" class="tile" points="-49.0338143533,2176.9637025 -49.0366810245,2146.28789054 -33.0214736626,2146.32937626 -33.0172691697,2176.89030775 -49.0338143533,2176.9637025 " moovel_rot="-81.9" moovel_centroid="-41.0323171144,2161.6180395"></polygon></g><g transform="translate(593.1318262 -1014.6747831) rotate(0)"><polygon id="185148191" class="tile" points="-469.767740959,1416.75683706 -469.753596682,1390.78694323 -488.137747695,1390.76206569 -488.135544004,1411.11263401 -488.143202594,1416.73075377 -469.767740959,1416.75683706 " moovel_rot="-82.1" moovel_centroid="-478.948880185,1403.75769623"></polygon></g><g transform="translate(487.1960616 -1342.8728945) rotate(0)"><polygon id="299944936" class="tile" points="-278.065921118,1393.70765051 -275.724406287,1393.1687019 -260.69753764,1390.76206569 -260.725234245,1394.26291869 -260.708827686,1403.57487447 -260.941271517,1418.71833469 -277.121353875,1418.42684758 -278.065921118,1393.70765051 " moovel_rot="60.9" moovel_centroid="-269.025704885,1405.19489522"></polygon></g><g transform="translate(144.6686275 -1785.4778844999998) rotate(0)"><polygon id="236776861" class="tile" points="-98.3608168121,2146.28789054 -102.556007013,2146.33646075 -101.856189808,2218.50445722 -98.4511832837,2218.25651288 -98.3608168121,2146.28789054 " moovel_rot="8.0" moovel_centroid="-100.312334414,2181.09909804"></polygon></g><g transform="translate(35.2886508 -2136.7467162) rotate(0)"><polygon id="375388301" class="tile" points="0.0,2148.23974491 -3.84092795234,2146.28789054 -21.8282082243,2146.30490695 -21.9068394581,2158.50695472 -9.16506952811,2171.06869223 -0.00922530535609,2167.50862498 0.0,2148.23974491 " moovel_rot="-82.8" moovel_centroid="-10.101737121799367,2156.89168344"></polygon></g><g transform="translate(562.2263884 -1376.7189865) rotate(0)"><polygon id="300398885" class="tile" points="-437.247067709,1390.76206569 -448.029623367,1390.78334426 -448.036819702,1394.38387053 -447.82523038,1422.84698568 -447.828930629,1425.98427724 -437.297516176,1425.95886819 -437.247067709,1390.76206569 " moovel_rot="49.4" moovel_centroid="-442.602597955,1408.29079968"></polygon></g><g transform="translate(774.9545733 -1380.4383359) rotate(0)"><polygon id="201150237" class="tile" points="-570.150926816,1545.41422082 -570.156326214,1535.27690345 -549.243756359,1535.3043954 -549.249786015,1540.61251714 -549.237409003,1557.27184955 -549.240347465,1558.35282449 -562.368433869,1558.34304838 -562.364162696,1557.03078975 -562.368912311,1545.41880846 -566.099206799,1545.41701613 -566.098454407,1543.70450359 -568.998698696,1543.70365949 -568.999450935,1545.41617199 -570.150926816,1545.41422082 " moovel_rot="-79.4" moovel_centroid="-557.842543089,1545.4957919"></polygon></g><g transform="translate(188.3027184 -534.7845669999999) rotate(0)"><polygon id="219808604" class="tile" points="-80.9081620771,1561.96403904 -99.084681214,1562.76877116 -101.798544089,1550.45513314 -81.1247776795,1535.27690345 -80.8949347634,1539.04205511 -80.9081620771,1561.96403904 " moovel_rot="-48.5" moovel_centroid="-89.6173440785,1551.84014389"></polygon></g><g transform="translate(168.3714138 -579.4024904) rotate(0)"><polygon id="377121562" class="tile" points="-165.859279655,1756.64754491 -165.871420253,1779.40264447 -148.579206441,1779.24984825 -148.772153677,1756.34874795 -165.859279655,1756.64754491 " moovel_rot="8.8" moovel_centroid="-157.261095216,1767.93470528"></polygon></g><g transform="translate(184.5334231 -322.7063287000001) rotate(0)"><polygon id="412123958" class="tile" points="-140.011040862,1205.4302754 -147.117669188,1201.0 -153.412525156,1205.66369101 -152.793308209,1230.81735347 -146.916047432,1226.15391085 -140.011962861,1230.92597414 -140.011040862,1205.4302754 " moovel_rot="30.3" moovel_centroid="-146.568991575,1215.799069333663"></polygon></g><g transform="translate(517.9785664 -1583.7130118) rotate(0)"><polygon id="299944957" class="tile" points="-506.797817775,1788.65416391 -506.747904844,1756.34874795 -515.479464054,1756.85626824 -514.601575634,1789.10640002 -506.797817775,1788.65416391 " moovel_rot="30.4" moovel_centroid="-510.910531605,1772.43953477"></polygon></g><g transform="translate(594.0526979 -1186.1707396) rotate(0)"><polygon id="201149342" class="tile" points="-556.67543592,1424.37177372 -556.66497317,1390.77242752 -550.875975733,1390.76334723 -548.710655772,1390.76206569 -548.714643666,1404.37472265 -549.705451475,1404.37649982 -549.711927662,1424.36318174 -556.67543592,1424.37177372 " moovel_rot="10.3" moovel_centroid="-552.971412745,1407.02230274"></polygon></g><g transform="translate(324.0051262 -1393.1001086) rotate(0)"><polygon id="382975217" class="tile" points="-309.881066043,1536.63292512 -321.505140265,1535.27690345 -321.485354497,1560.14557878 -313.351338675,1560.70620535 -312.246773536,1560.78039607 -309.881066043,1536.63292512 " moovel_rot="1.6" moovel_centroid="-316.274418889,1547.73602405"></polygon></g><g transform="translate(315.29857189999996 -1228.2124508000002) rotate(0)"><polygon id="220789416" class="tile" points="-284.262292842,1756.39919731 -280.86368624,1756.41489711 -273.257590332,1756.34874795 -273.243810688,1779.08268616 -280.483307818,1779.11508503 -284.254944802,1779.12717979 -284.262292842,1756.39919731 " moovel_rot="47.2" moovel_centroid="-278.753970909,1767.74915927"></polygon></g><g transform="translate(176.5495724 -1121.8771235) rotate(0)"><polygon id="222912933" class="tile" points="-74.4950033991,1439.34403854 -77.2912839482,1439.33908638 -77.3328513477,1390.76206569 -74.1182858158,1390.91057601 -74.4950033991,1439.34403854 " moovel_rot="-82.0" moovel_centroid="-75.8080964952,1414.52573999"></polygon></g><g transform="translate(254.76216110000001 -494.0700561) rotate(0)"><polygon id="351686226" class="tile" points="-236.905879324,1216.05128954 -252.25456672,1219.85393543 -252.262164512,1201.0 -236.810912851,1205.67601989 -236.905879324,1216.05128954 " moovel_rot="-14.0" moovel_centroid="-245.302556874,1210.6140937017324"></polygon></g><g transform="translate(372.5841305 -903.7340099) rotate(0)"><polygon id="182759608" class="tile" points="-321.566908626,1970.23957873 -312.092049033,1958.50988143 -312.72618971,1948.38734111 -321.56302649,1938.55221269 -321.566908626,1970.23957873 " moovel_rot="-87.9" moovel_centroid="-317.767725584,1954.18627309"></polygon></g><g transform="translate(431.2452082 -1306.7563358) rotate(0)"><polygon id="374848394" class="tile" points="-398.654236857,1952.60166152 -398.676106542,1938.55221269 -386.369907284,1938.57985158 -384.794143564,1938.58750317 -384.82053599,1944.03521101 -384.804853705,1952.62550473 -398.654236857,1952.60166152 " moovel_rot="-34.1" moovel_centroid="-391.738595708,1945.58846277"></polygon></g><g transform="translate(200.8452009 -978.5123933000001) rotate(0)"><polygon id="374156364" class="tile" points="-147.386413474,1938.55221269 -147.391211614,1955.14170362 -136.675944623,1955.13522622 -136.663914367,1938.55407021 -147.386413474,1938.55221269 " moovel_rot="3.7" moovel_centroid="-142.029819526,1946.84487021"></polygon></g><g transform="translate(130.4304531 -1746.0027040999998) rotate(0)"><polygon id="232494203" class="tile" points="-75.0727264205,1772.15896523 -75.0848337645,1756.34874795 -61.9830304379,1759.46076828 -65.5061086362,1774.37985207 -75.0727264205,1772.15896523 " moovel_rot="-37.0" moovel_centroid="-69.3695201451,1765.18614074"></polygon></g><g transform="translate(91.0020491 -1301.2691602) rotate(0)"><polygon id="185622703" class="tile" points="-32.0126093289,2163.98305266 -32.0172691697,2146.28789054 -23.9114900542,2146.31812816 -23.9068394581,2164.01329814 -27.6012845838,2164.0000912 -32.0126093289,2163.98305266 " moovel_rot="-49.6" moovel_centroid="-27.962049711,2155.15073529"></polygon></g><g transform="translate(327.419906 -710.3597464999999) rotate(0)"><polygon id="376403756" class="tile" points="-308.872523983,1535.74586506 -297.773922956,1535.27690345 -297.417837512,1547.30720804 -308.881066043,1547.56052267 -308.872523983,1535.74586506 " moovel_rot="83.6" moovel_centroid="-303.217958219,1541.50387331"></polygon></g><g transform="translate(214.7198835 -1795.4324071) rotate(0)"><polygon id="220530398" class="tile" points="-127.516929822,1938.55221269 -126.598776217,1952.25754925 -135.663914367,1955.67454303 -135.658283931,1940.52762391 -127.516929822,1938.55221269 " moovel_rot="-10.9" moovel_centroid="-131.411926863,1946.90487625"></polygon></g><g transform="translate(155.1094286 -823.6478923) rotate(0)"><polygon id="411700680" class="tile" points="-148.391211614,1959.90847676 -152.609473881,1959.7352618 -152.492641141,1938.55221269 -148.402743874,1938.78364844 -148.391211614,1959.90847676 " moovel_rot="-1.4" moovel_centroid="-150.475207973,1949.29925352"></polygon></g><g transform="translate(571.2296324 -374.0306820999999) rotate(0)"><polygon id="185632783" class="tile" points="-543.785806863,1390.81449365 -545.662084714,1390.83807665 -547.698705171,1390.8487603 -547.710655772,1402.48903197 -538.262833853,1402.34105088 -538.405762957,1390.76206569 -543.785806863,1390.81449365 " moovel_rot="-49.7" moovel_centroid="-543.023018008,1396.62760384"></polygon></g><g transform="translate(359.0818805 -703.567603) rotate(0)"><polygon id="185193595" class="tile" points="-293.600437884,1775.90608988 -293.594086514,1756.34874795 -285.262292842,1770.57449757 -293.600437884,1775.90608988 " moovel_rot="36.1" moovel_centroid="-290.81893908,1767.60977847"></polygon></g><g transform="translate(366.61587519999995 -103.2267984) rotate(0)"><polygon id="338908870" class="tile" points="-360.185189944,1213.16215843 -364.115864587,1213.13312704 -364.115104891,1201.0 -361.270497941,1201.06483258 -361.256127067,1204.99161377 -360.192011847,1205.02139205 -360.185189944,1213.16215843 " moovel_rot="-69.1" moovel_centroid="-362.292913609,1207.493028044059"></polygon></g><g transform="translate(53.9499207 -1205.3835402999998) rotate(0)"><polygon id="163806019" class="tile" points="-51.4492553907,2160.26089991 -50.0366810245,2160.25183596 -50.0420198219,2146.28881788 -51.4499208853,2146.28789054 -51.4492553907,2160.26089991 " moovel_rot="12.2" moovel_centroid="-50.7445523993,2153.2762204"></polygon></g></g><g transform="translate(0 1327.7)"><polygon id="5" class="bin" points="1.875,0.0 -0.77665042945,1.09834957055 -1.875,3.75 -1.875,1203.749999 -0.77665042945,1206.40164943 1.875,1207.499999 248.463405909,1207.499999 251.273693528,1206.2328972 252.184823554,1203.28788353 249.615070846,1182.5936551 249.954306952,1179.46719093 251.752173494,1174.37997946 252.122833241,1173.52191434 254.758448143,1168.40720037 255.782431992,1166.93243947 258.471522001,1163.97565763 259.290560699,1163.26440226 260.572251088,1160.69996135 259.667745676,1157.97949129 257.105699329,1156.69302095 249.761195324,1156.15507481 245.907596549,1154.27024487 244.427215733,1150.24392148 244.765183147,1138.770843 245.062457101,1128.78392846 245.097751407,1128.26346353 245.508153186,1124.39379724 246.922610156,1111.2478263 248.525251575,1096.32551969 248.948378872,1092.40590087 249.234919104,1091.05136647 252.629481201,1080.43232307 252.631341149,1080.42648826 253.654525296,1077.20759574 253.810601409,1076.45962003 254.760851977,1067.32528362 256.126094768,1054.20030091 256.296983528,1052.54409745 256.316624473,1052.12429162 256.230573326,1042.8846743 256.036645488,1041.72879645 255.588643446,1040.39099563 252.319086753,1030.61551063 252.076609123,1029.67353671 251.148350903,1024.60462116 249.608235878,1016.13791037 249.535946527,1014.18273361 250.180272234,1008.12820301 251.663538292,994.386597075 251.663967316,994.382602367 251.795306076,993.153483762 251.809002558,992.517499819 251.102660873,981.38910427 250.980388234,979.428282394 250.903500134,978.871670188 248.067908629,965.713670132 245.93733899,955.821639758 245.802064933,954.882523428 245.433442558,949.908769439 245.433028266,949.903235043 244.537891891,938.063084597 244.559806757,936.791369591 244.8720527,933.962150869 244.872575743,933.957383698 246.475495692,919.26119529 246.491698693,919.064966548 247.212336285,906.239549314 248.026356497,891.540857107 248.442832515,884.176521805 248.446488473,884.116529369 248.943890576,876.502734125 249.912549054,861.560618673 250.837668973,847.426855341 251.154580113,842.532279125 251.136682711,841.85142258 250.086147399,832.930276794 249.137931711,824.892793497 249.096656727,823.799272983 249.331229906,818.21443916 249.772657001,807.495909161 249.807087332,807.035942998 250.369527426,801.861429996 251.973832711,787.044815796 253.507563527,772.906431863 254.004039403,768.347812805 254.015698228,768.220694823 254.749935622,758.375396324 255.81292009,744.104358935 256.475542557,735.318757494 256.699094311,734.024344654 257.956738413,729.422138225 261.298941533,717.236715628 261.428511633,716.417825788 261.466846962,715.587847968 262.026972167,703.422819089 262.460450454,694.114933024 262.334465407,692.961488078 261.088935669,688.355976193 258.567244228,679.021109891 258.357557527,676.616088375 258.893345504,670.672670852 260.117345332,657.036585142 261.130235182,645.829372901 261.136918761,645.744747421 261.403252805,641.804816052 262.361065586,627.469092311 263.147746279,615.681081645 263.164663429,615.474507558 263.831677789,608.604412862 265.684579602,605.039120467 265.984139629,602.357351015 264.405610793,600.168773779 235.396640499,581.249996818 235.262012317,581.159918105 228.607586679,576.593091473 228.321668103,576.385871134 216.609048129,567.429446756 216.083332086,566.983961039 208.472174425,559.848938101 207.761694144,559.072431979 204.694529078,555.155923473 204.537622037,554.968487974 202.033970918,552.168433571 201.357361178,551.274520063 197.160691118,544.672686226 196.790333261,544.012346604 195.593617673,541.572695354 195.278712873,540.821012047 193.34969024,535.322313718 193.203074229,534.850814937 191.974745972,530.33459059 191.857700381,529.829842764 190.752419403,524.087897009 190.640893643,523.201006768 190.229145927,516.348938193 190.221719691,515.675783436 190.453962818,509.559935887 190.51643166,508.860403654 191.112090181,504.638834555 191.14427291,504.433281538 192.209406808,498.24451937 192.258707934,497.98744437 194.358630221,488.062997057 194.419323887,487.801475835 196.501835488,479.562204414 196.526030707,479.460535414 198.854318156,469.033994516 198.930241345,468.54294647 199.52082984,461.779545774 199.535039224,461.446489751 199.524208228,455.510814682 199.500944366,455.10054316 198.730854896,448.220136892 198.576469461,447.4967008 193.856251409,432.71239511 193.713287548,432.195941358 191.812474086,424.116705675 191.678041122,423.355548353 190.934954874,417.117254325 190.918929903,416.969061656 190.358415842,411.201324075 190.331592054,410.264106999 190.645356594,402.355094688 190.658465079,402.123442028 191.53380521,390.219588966 191.594668009,389.682104125 193.511379013,377.178611472 193.59809907,376.718243459 242.93797615,156.354250083 242.200714263,153.184663422 239.981293664,152.127208325 240.00170909,152.078403024 235.173546307,150.058765817 233.539936106,145.895081424 234.744527354,100.394344205 234.618071351,99.3245621096 233.808677574,96.3037551903 233.57471843,94.5164931111 233.582065591,89.4957130619 233.582069303,89.4887172967 233.580894559,86.5678359936 233.796831102,84.8564815365 234.591271007,81.7636987041 234.708807144,80.7776581177 233.676462929,7.83786730073 234.750409453,5.13447627872 234.368101427,1.64397127812 231.265337656,0.0 1.875,0.0 " moovel_rot="0" moovel_centroid="117.47762230175404,621.1643281610939" transform="translate(1.875 0)"></polygon><g transform="translate(203.27452090000008 -239.47375319999992) rotate(0)"><polygon id="377161285" class="tile" points="-175.566260173,1439.47374778 -200.130818755,1439.44525516 -200.134193345,1428.93140165 -196.260589789,1428.93338539 -196.252111527,1401.79049201 -200.773663864,1401.78175519 -200.774521313,1390.76206569 -175.554179544,1390.7895122 -175.566260173,1439.47374778 " moovel_rot="-82.3" moovel_centroid="-186.935896892,1414.97158286"></polygon></g><g transform="translate(564.4982892 -635.9320066999999) rotate(0)"><polygon id="412107601" class="tile" points="-517.717592471,1756.34874795 -532.103522124,1759.15464012 -531.921717661,1761.20694715 -533.916913337,1761.46128111 -533.492819643,1764.02953558 -532.165990057,1771.9164587 -527.757530058,1771.64316196 -527.858913449,1772.64567999 -532.200277408,1772.86386382 -531.752142193,1788.08879835 -527.605797012,1787.91731153 -527.62566678,1791.28147708 -531.410008474,1791.6095574 -531.556709865,1793.69337142 -527.310080806,1793.21253563 -527.85526259,1798.05226728 -528.715335501,1800.25675582 -528.967506921,1801.49661521 -527.566282936,1828.18372216 -526.882734567,1835.92939532 -518.306190259,1835.93199113 -516.572839002,1788.78478006 -524.41356054,1788.98348193 -524.435744512,1782.88479439 -516.483695594,1782.8216247 -516.479464054,1757.34045085 -517.717592471,1756.34874795 " moovel_rot="39.4" moovel_centroid="-523.664996306,1792.71602027"></polygon></g><g transform="translate(517.3682848 -120.68036760000018) rotate(0)"><polygon id="388292605" class="tile" points="-514.827559267,1240.26976302 -488.18564907,1241.17121057 -488.134439838,1201.0 -514.86829766,1201.05311488 -514.827559267,1240.26976302 " moovel_rot="65.8" moovel_centroid="-501.450420514,1220.8629926360938"></polygon></g><g transform="translate(107.349051 -322.7838335000001) rotate(0)"><polygon id="377285995" class="tile" points="-49.9323325342,1438.25943348 -73.1182858158,1438.23317043 -73.1141090861,1390.76206569 -50.664941529,1390.78910222 -50.6678300804,1407.96559496 -56.2977497328,1407.95975097 -56.2997095481,1421.2944471 -49.9320037026,1421.30612148 -49.9323325342,1438.25943348 " moovel_rot="-81.6" moovel_centroid="-62.3772554482,1414.69191103"></polygon></g><g transform="translate(643.8222386 -53.99007950000009) rotate(0)"><polygon id="201148560" class="tile" points="-590.707663313,1249.31973973 -590.924761616,1201.08810917 -583.88145282,1201.15630422 -570.188728787,1201.0 -570.22004404,1208.41785772 -570.239882212,1242.35988093 -570.242669058,1249.30859201 -590.707663313,1249.31973973 " moovel_rot="10.5" moovel_centroid="-580.518144839,1225.1537248479322"></polygon></g><g transform="translate(531.1419545 -299.2632151999999) rotate(0)"><polygon id="244768915" class="tile" points="-449.343080644,1411.13571235 -454.540240796,1411.11189265 -454.514014867,1390.8172059 -468.699642227,1390.76206569 -468.749869425,1434.59588244 -468.753596682,1441.32132777 -449.036819702,1440.8834191 -449.343080644,1411.13571235 " moovel_rot="-23.5" moovel_centroid="-459.857118602,1417.84564943"></polygon></g><g transform="translate(161.8928938 -352.6542101) rotate(0)"><polygon id="219559495" class="tile" points="-78.3362898072,1431.97027169 -78.3328513477,1395.13313723 -101.119294207,1390.76206569 -105.803874714,1415.50125459 -98.1671715554,1416.95116419 -100.253518454,1427.97811302 -78.3362898072,1431.97027169 " moovel_rot="-92.5" moovel_centroid="-90.3650507328,1410.91116152"></polygon></g><g transform="translate(584.5990294000001 -910.5618939000001) rotate(0)"><polygon id="329776611" class="tile" points="-581.789030074,1982.47580285 -582.099167583,1954.40948236 -574.705743594,1954.14818031 -574.370592235,1939.16703463 -561.6604324,1938.55221269 -561.66171955,1985.93089912 -581.789030074,1982.47580285 " moovel_rot="-10.8" moovel_centroid="-570.729936481,1963.64154206"></polygon></g><g transform="translate(508.852277 -736.7208991) rotate(0)"><polygon id="185148180" class="tile" points="-480.188964389,1789.16302488 -467.393339959,1789.14523872 -459.572644387,1789.12530263 -455.82991292,1789.12502564 -455.850410194,1756.34874795 -457.338743773,1756.3527502 -478.895339265,1756.39349411 -480.918551158,1756.39630001 -480.915840535,1764.43097306 -480.907540396,1781.84047605 -480.899466229,1789.16395301 -480.188964389,1789.16302488 " moovel_rot="9.3" moovel_centroid="-468.375468642,1772.75919199"></polygon></g><g transform="translate(533.4085393 -622.5827198) rotate(0)"><polygon id="185605918" class="tile" points="-439.434130201,1756.66818218 -439.372758078,1759.75922088 -439.25986066,1765.2575406 -439.150908591,1770.14900901 -439.038443172,1775.22514766 -438.939539532,1780.05513602 -438.816461688,1785.75564933 -438.695822915,1788.23046123 -438.610328317,1793.78838817 -438.545223135,1798.10854385 -438.531164526,1798.84723067 -438.45874663,1803.81817864 -438.382115237,1808.84405768 -438.317928534,1813.08285939 -452.059878526,1813.34231555 -454.823655545,1813.15203212 -454.828523069,1816.56030013 -454.82991292,1822.58297171 -453.607891549,1822.53884402 -448.293805091,1822.42881047 -443.484669283,1822.3343751 -438.750409597,1822.23622371 -431.621979964,1822.0942448 -430.504614194,1822.21378505 -432.132818162,1756.34874795 -439.434130201,1756.66818218 " moovel_rot="41.7" moovel_centroid="-437.768580772,1796.28299011"></polygon></g><g transform="translate(580.2636537000001 -453.78461189999985) rotate(0)"><polygon id="331933011" class="tile" points="-469.703959048,1564.57845191 -493.297705074,1564.88394685 -493.483319791,1560.65629192 -495.289838309,1559.47715104 -498.100994353,1559.36188871 -498.826825287,1540.26685001 -494.711800014,1540.00253238 -492.932708746,1537.47050444 -492.872767212,1536.45492603 -492.810701377,1535.27690345 -469.707581648,1535.31581362 -469.703959048,1564.57845191 " moovel_rot="-81.4" moovel_centroid="-483.358674934,1549.97532491"></polygon></g><g transform="translate(263.11105269999996 -362.26689999999985) rotate(0)"><polygon id="447197456" class="tile" points="-155.960409892,1438.61712122 -174.554179544,1438.76105056 -174.539501943,1408.65907911 -163.86056756,1408.95758208 -163.660368477,1390.76206569 -156.533522883,1390.92863448 -155.960409892,1438.61712122 " moovel_rot="-82.5" moovel_centroid="-164.339675342,1419.18355443"></polygon></g><g transform="translate(535.8946192 -528.9176270999999) rotate(0)"><polygon id="442637498" class="tile" points="-441.517702787,1564.10195529 -464.23843266,1564.06680516 -464.235749587,1550.45175923 -468.703959048,1550.44255011 -468.698213669,1535.27690345 -441.500553963,1535.32008365 -441.517702787,1564.10195529 " moovel_rot="-82.3" moovel_centroid="-454.14832797,1549.05124685"></polygon></g><g transform="translate(385.0384821 -405.21195639999996) rotate(0)"><polygon id="338220381" class="tile" points="-357.555792717,1390.86962828 -382.517473429,1390.76206569 -382.538471389,1419.9263528 -357.582567547,1420.03056247 -357.555792717,1390.86962828 " moovel_rot="-30.6" moovel_centroid="-370.048813193,1405.39658855"></polygon></g><g transform="translate(376.4670995 -553.3571686) rotate(0)"><polygon id="181275816" class="tile" points="-322.505140265,1535.27690345 -343.981763221,1535.34621026 -344.005361742,1568.02394378 -339.580904728,1568.01129972 -324.335827219,1567.9603144 -322.528778989,1567.95459263 -322.505140265,1535.27690345 " moovel_rot="42.2" moovel_centroid="-333.25533221,1551.65076137"></polygon></g><g transform="translate(606.9306834 -950.8483467000001) rotate(0)"><polygon id="277653273" class="tile" points="-489.232109896,1939.21122871 -506.850660395,1938.55221269 -507.547250005,1974.34065016 -489.223806918,1974.76837288 -489.232109896,1939.21122871 " moovel_rot="-32.1" moovel_centroid="-498.225179404,1956.83399473"></polygon></g><g transform="translate(131.571262 -782.9885595) rotate(0)"><polygon id="185148207" class="tile" points="-37.4752087301,1784.39359372 -60.9654293017,1783.19784281 -60.9830304379,1757.10162904 -56.8149398873,1756.34874795 -35.5976693207,1758.00083216 -36.0383976528,1764.17652568 -36.993714305,1777.6572147 -37.4752087301,1784.39359372 " moovel_rot="6.8" moovel_centroid="-48.7621072479,1770.27307054"></polygon></g><g transform="translate(536.3669108 -640.5397084000001) rotate(0)"><polygon id="337822365" class="tile" points="-411.566220691,1765.4186201 -407.036458378,1765.41190734 -407.040525655,1760.77502951 -411.117311815,1760.78107051 -411.12279285,1756.34874795 -415.639361469,1756.35336986 -416.03818954,1756.35434895 -429.504614194,1756.38167617 -429.483440533,1789.60497705 -429.478098706,1799.07458151 -419.681664349,1799.05992658 -419.705226337,1765.43727988 -411.566220691,1765.4186201 " moovel_rot="9.0" moovel_centroid="-422.634857865,1774.6368193"></polygon></g><g transform="translate(703.9279111000001 -506.3707859000001) rotate(0)"><polygon id="185193589" class="tile" points="-578.179261645,1570.76884305 -587.933899822,1556.31890016 -587.19354038,1554.00450054 -587.157319928,1549.33607394 -587.120129265,1544.46029896 -587.086493229,1540.16405914 -587.363603966,1535.27690345 -577.924120303,1535.39467265 -578.175614286,1554.75748682 -576.397982815,1557.12559636 -576.675666991,1557.43733079 -575.416808228,1559.12538269 -577.109815544,1560.40657913 -575.476048616,1562.9174242 -577.676471821,1564.53352638 -571.156326214,1573.41852745 -582.939964099,1581.92760405 -591.777363479,1582.80088016 -591.788591118,1570.14960419 -578.179261645,1570.76884305 " moovel_rot="-50.9" moovel_centroid="-582.434470002,1560.85858907"></polygon></g></g></svg>