<svg><g transform="translate(0 0)"><polygon id="8" class="bin" points="301.874999,3.75 300.776649429,1.09834957055 298.124999,0.0 1.875,0.0 -0.77665042945,1.09834957055 -1.875,3.75 -1.875,1142.75 -0.77665042945,1145.40165043 1.875,1146.5 298.124999,1146.5 300.776649429,1145.40165043 301.874999,1142.75 301.874999,3.75 " moovel_rot="0" moovel_centroid="149.99999949999997,573.2499999999999" transform="translate(1.875 0)"></polygon><g transform="translate(2.499998699999999 1276.1357981) rotate(0)"><polygon id="241819965" class="tile" points="136.152600733,-296.001159269 124.762666252,-192.686428921 35.3344814295,-205.976427463 26.3316789217,-137.106371123 4.79496937227,-140.440429913 0.102194350585,-209.774784663 0.0,-308.819526619 41.35982682,-303.288563395 78.601791824,-302.213761673 136.152600733,-296.001159269 " moovel_rot="81.2" moovel_centroid="59.72083726486145,-242.661413078"></polygon></g><g transform="translate(-446.2959165 1753.9807888) rotate(0)"><polygon id="443764996" class="tile" points="451.675441772,-968.293497737 488.91680726,-975.090821484 485.794321872,-991.877342081 505.762312334,-995.525368277 495.926255175,-1048.2828803 553.026240886,-1058.70456516 556.306301881,-1041.12143863 510.810433629,-1032.81632666 532.322769829,-917.361633315 556.005692404,-790.256418555 527.217266671,-785.003718292 520.918817055,-818.81088962 480.897202367,-811.50843384 451.675441772,-968.293497737 " moovel_rot="-26.9" moovel_centroid="505.558473489,-907.556735142"></polygon></g><g transform="translate(-270.51646159999996 840.6117224999999) rotate(0)"><polygon id="283808499" class="tile" points="409.418447556,-40.7000194645 409.359023383,-41.7983160101 410.634656012,-42.1244744804 412.439318552,-40.3979618017 413.344562506,-38.9651531972 422.621255242,-40.7091031905 423.217057886,-43.082451053 424.194899521,-44.9365576785 425.388028608,-46.2669147773 426.91795079,-47.3048708687 428.17050437,-47.5369308647 428.8043561,-46.2823269112 428.787311438,-44.8874828184 429.014429565,-43.0663064675 428.977476254,-38.0103136994 426.258726023,-37.9192355383 426.806566882,-32.5409977842 428.053848563,-32.3656330511 428.647640463,-27.3372299163 447.567710718,-27.6178838937 448.760838524,-28.9482432287 448.649395562,-32.1398815475 448.460017615,-36.1664652258 448.718050792,-40.702034018 449.150487366,-44.9330773123 449.600028608,-48.2741148526 450.225599653,-67.972986347 449.436096123,-85.3044336617 448.871404411,-90.2685853273 448.318385993,-91.8121160228 447.755943059,-92.7941967484 448.920929512,-93.4613907808 449.046220433,-96.3740652096 447.863402048,-97.1626132358 448.546802243,-97.9584014036 448.724022803,-102.20500732 448.783889484,-106.374291448 450.27132398,-136.95964659 444.560804946,-137.106371123 444.801404229,-132.694677064 432.452851721,-130.333840394 396.058539284,-129.801512919 396.601816085,-122.307775516 361.164684609,-121.676558058 360.439691072,-120.5233263 356.13161279,-120.492556629 357.281437867,-40.7363181885 358.32022044,-38.0758019263 361.01980854,-32.7975889493 362.170152248,-30.2110695034 362.867785039,-27.8505614482 358.2931827,-27.5863058161 358.33462509,-9.00750827938 358.45710158,-7.36904652454 360.765669657,-7.31620378047 363.032439597,-7.06755116172 364.564065731,-5.66995047498 364.947749986,-5.0 387.172422493,-13.178644542 410.515191568,-22.4020303674 411.331373698,-23.6782710824 410.408111883,-25.5860499777 409.82712572,-27.4472086471 409.884509451,-27.9249171106 410.632134979,-28.3935266942 412.707504733,-29.2585788988 413.396804324,-29.9768677574 412.967612438,-31.0757106332 409.418447556,-40.7000194645 " moovel_rot="29.8" moovel_centroid="402.04660268,-74.14052896499656"></polygon></g><g transform="translate(37.109540700000025 1600.4502926) rotate(0)"><polygon id="309309709" class="tile" points="126.670080343,-785.003718292 132.885028881,-771.625723331 136.386805208,-755.237471382 139.598927514,-728.771909577 140.394107951,-705.605450004 139.986504613,-682.743485482 138.512464719,-662.429459552 136.276725508,-642.271758888 133.435514612,-628.430738746 130.583434183,-616.990612581 77.6769090166,-648.031616641 78.1184900414,-655.252705494 74.043147636,-655.850206285 76.7229648827,-677.971430933 77.1464386407,-695.567207929 76.6581211342,-715.124124121 75.7258673852,-728.809390843 74.0409638653,-741.292864837 78.1144710686,-741.74685617 77.224647535,-754.082729815 126.670080343,-785.003718292 " moovel_rot="0.1" moovel_centroid="109.292278435,-701.14381977"></polygon></g><g transform="translate(-120.40527639999999 2197.704605) rotate(0)"><polygon id="377606815" class="tile" points="330.720258033,-1230.30739657 296.653987211,-1229.78937082 296.937384612,-1207.84431029 295.258375973,-1207.67820069 295.428626694,-1107.37012966 301.562881648,-1101.25901193 301.565966457,-1077.52873678 297.530057943,-1068.65009434 297.101106398,-1065.5589271 297.216485403,-1058.86854093 344.282365705,-1058.70456516 344.281027228,-1211.2417604 339.367084741,-1211.39702763 339.51736932,-1216.33072933 330.889231115,-1216.74840209 330.720258033,-1230.30739657 " moovel_rot="-81.4" moovel_centroid="320.053402153,-1143.74353657"></polygon></g><g transform="translate(86.472812 2200.3246077) rotate(0)"><polygon id="362875845" class="tile" points="149.247926987,-1309.4781943 119.019634103,-1309.40092019 115.001537745,-1311.44292718 96.6009099653,-1331.05025952 94.3587490413,-1335.96770619 94.3135382777,-1402.05636824 111.091844928,-1402.12699696 111.094095137,-1407.05563029 142.810232891,-1407.17173601 142.807575832,-1403.44445831 153.014288299,-1403.47590088 152.988605231,-1356.28757704 152.971355334,-1321.58395994 149.255969351,-1321.57847501 149.247926987,-1309.4781943 " moovel_rot="58.3" moovel_centroid="124.728017033,-1359.70731385"></polygon></g><g transform="translate(-72.09321880000002 926.0198251) rotate(0)"><polygon id="237475168" class="tile" points="254.037899505,-261.331095269 254.925139652,-264.289167434 269.296252035,-277.499223278 291.858295054,-277.130994088 291.77155946,-138.794514688 255.895477867,-137.106371123 255.332103413,-141.356810716 254.74355821,-145.745515023 254.037899505,-261.331095269 " moovel_rot="-76.1" moovel_centroid="273.357028452,-206.632405165"></polygon></g><g transform="translate(-460.3415956 1005.5524582999999) rotate(0)"><polygon id="180522738" class="tile" points="464.404472716,-309.017683243 462.839941551,-351.925217169 491.4391093,-396.35271397 499.267081941,-396.797373737 508.250586644,-397.296324251 508.531497316,-373.348264027 529.383320384,-373.521274535 537.896121823,-373.800365641 537.903544054,-336.462688818 533.354437721,-336.102552127 531.860246515,-311.229550811 531.477124077,-308.819526619 528.001432576,-308.829106224 515.335771122,-308.868726901 500.486204086,-308.912414441 486.46219389,-308.949719617 470.970459529,-308.998331899 464.404472716,-309.017683243 " moovel_rot="-59.8" moovel_centroid="500.110460913,-345.886360843"></polygon></g><g transform="translate(-275.6380393 1493.7757405) rotate(0)"><polygon id="274459121" class="tile" points="401.481147655,-897.755470809 420.28874595,-897.246832522 420.285084649,-893.797667089 420.630742569,-893.350000454 421.039203064,-893.174931265 423.130428828,-893.099700934 423.171260239,-887.875110553 421.47182071,-887.670243981 421.490731444,-883.270394139 414.856598322,-883.383198557 414.774500118,-887.947263931 414.207028027,-888.192495021 412.907875889,-887.954343889 412.376015558,-887.517287744 411.776614711,-886.552896489 411.571074708,-885.086038017 411.515070513,-883.03954213 411.277065331,-877.935034825 411.44762043,-877.248844827 411.720163163,-876.815014791 412.065886999,-876.445066904 412.496145706,-876.192947762 413.197265396,-876.195686956 413.716796789,-876.316134482 414.165548723,-876.538928653 414.490842336,-876.975010906 414.860903176,-877.752815991 414.960750901,-878.149826217 417.377722602,-878.151580724 427.41507587,-877.333789646 438.731664147,-876.375664198 438.36634535,-865.995819755 416.992144071,-866.101536637 417.032655114,-870.345101479 416.732215178,-870.775396832 416.295857332,-870.946931648 415.698864947,-871.051902653 415.089609285,-870.917984319 414.454465841,-870.480440706 414.225708811,-870.090197108 413.851368358,-869.601692118 413.563637267,-869.008645809 413.55302019,-851.902339891 414.015516889,-850.539036252 415.040950583,-849.812057201 416.265103989,-849.616437763 417.336736194,-850.037885991 417.227896918,-854.191122511 445.037140264,-853.878026037 445.120165317,-850.402014703 445.456742358,-849.911186299 445.929367419,-849.834559559 447.345167619,-849.827050443 447.451257993,-838.796993896 447.711852014,-834.900308651 448.086891796,-831.728035056 449.383694492,-827.361965947 450.675441772,-824.158835561 433.122905981,-806.530661892 431.094471088,-805.072218692 428.094444945,-803.822503255 425.75226872,-803.118226852 423.60362094,-803.049671926 414.65545302,-802.772650569 413.528349669,-801.829592226 413.046313302,-800.571317407 413.025006261,-788.626124129 408.770781044,-785.003718292 405.898179568,-787.378525636 404.773544193,-787.582561785 403.560934849,-787.162151953 402.080774635,-786.838057525 400.548064968,-786.780347125 398.944705297,-786.980425887 397.491535444,-787.37806559 396.327910017,-787.835501253 395.274445363,-788.403512172 394.450968421,-789.032173089 393.79344614,-789.77847972 393.3507952,-790.539413783 392.889460385,-791.495411129 392.462186305,-792.613249449 392.223313657,-793.645745558 392.121850365,-794.918289707 387.994663871,-795.357221841 387.992015649,-841.610195648 388.236684776,-864.498909251 388.483792861,-872.355975383 389.420495942,-874.587592062 390.281085383,-875.064207473 391.914417932,-875.548438647 392.610675547,-876.044134284 392.82165969,-876.814380807 392.776651711,-878.871178157 392.485754008,-879.888666661 392.069709778,-880.904997399 391.900261589,-882.009287132 391.942438191,-882.854754254 392.126254012,-885.379512159 392.395638375,-887.459347392 392.879369367,-888.932054536 393.475073462,-889.982088702 393.915979945,-890.735265318 394.712085914,-891.627969858 395.772044096,-892.510005917 397.134064214,-893.098474326 400.59100659,-893.526070037 401.126047685,-894.158857192 401.261407567,-897.330666056 401.481147655,-897.755470809 " moovel_rot="25.4" moovel_centroid="412.950189712,-839.854904749"></polygon></g><g transform="translate(9.793834799999985 1699.1149532) rotate(0)"><polygon id="448157974" class="tile" points="230.766118174,-1058.88186268 164.673283813,-1058.70456516 164.706843544,-1112.3280826 189.302554291,-1112.39388704 189.320300595,-1141.33513404 230.817116787,-1141.44680893 230.766118174,-1058.88186268 " moovel_rot="59.4" moovel_centroid="200.855416778,-1096.06174868"></polygon></g><g transform="translate(196.5286514 1366.9866924) rotate(0)"><polygon id="185158141" class="tile" points="49.9850719342,-478.2359538 43.8072258739,-474.801473033 38.0954095474,-462.757107393 34.0612707149,-450.868781154 32.3370940436,-430.439848562 32.7763072969,-397.808268919 32.9473047763,-384.498258218 32.3474089863,-338.926578438 33.9846700838,-323.438948335 37.9378666794,-315.386908961 41.4182663955,-313.47040318 47.7643784439,-309.968758356 55.6991592323,-308.819526619 61.2313310796,-348.300807332 56.9047981991,-398.268118366 49.9850719342,-478.2359538 " moovel_rot="72.7" moovel_centroid="45.3043457649,-385.820500729"></polygon></g><g transform="translate(-131.384096 1225.7224997) rotate(0)"><polygon id="265960051" class="tile" points="242.996781315,-616.990612581 242.94529816,-677.635317783 184.245456568,-677.816207168 184.296738578,-617.17127541 242.996781315,-616.990612581 " moovel_rot="-41.6" moovel_centroid="213.621050346,-647.403335958"></polygon></g><g transform="translate(-187.9457923 1068.2462074) rotate(0)"><polygon id="240971218" class="tile" points="304.816821791,-478.2359538 346.68499764,-478.359536605 355.699773396,-478.387304838 361.192189817,-489.839792303 361.181189427,-541.149880182 339.049229403,-541.55868443 305.24716294,-542.186064587 304.517076711,-507.560066481 304.816821791,-478.2359538 " moovel_rot="21.3" moovel_centroid="332.660592508,-510.196011965"></polygon></g><g transform="translate(-123.55401669999999 1833.6465595) rotate(0)"><polygon id="108331547" class="tile" points="169.925122361,-1230.30739657 169.980338236,-1309.19942211 126.109437641,-1309.40092019 126.054013195,-1230.50868239 169.925122361,-1230.30739657 " moovel_rot="-44.5" moovel_centroid="148.017217957,-1269.85407413"></polygon></g><g transform="translate(-220.67164659999997 1846.8673002) rotate(0)"><polygon id="321219466" class="tile" points="488.139819837,-1058.79735144 445.411344393,-1058.70456516 445.395983315,-1133.02285385 488.131143658,-1133.1069968 488.139819837,-1058.79735144 " moovel_rot="75.4" moovel_centroid="466.769157809,-1095.90890955"></polygon></g><g transform="translate(4.876288200000005 1031.0006331) rotate(0)"><polygon id="341511089" class="tile" points="173.336989462,-616.990612581 173.36343426,-481.753251128 177.118252864,-481.754083435 177.120986203,-478.257159115 199.883973073,-478.2359538 199.878020099,-522.296005551 255.376279923,-522.247573973 255.377747429,-530.153912339 181.297124833,-530.219743041 181.282013609,-616.982301963 173.336989462,-616.990612581 " moovel_rot="-81.6" moovel_centroid="191.325616405,-527.409641483"></polygon></g><g transform="translate(-67.61890299999999 998.1341970000001) rotate(0)"><polygon id="301843505" class="tile" points="93.192769355,-531.401249171 124.643332118,-553.661383166 126.278469114,-561.371421613 112.928191347,-581.95130248 110.839710509,-583.560539147 107.682533637,-583.697076311 83.9778435118,-566.772106304 80.2050525013,-562.567872443 76.9443006668,-558.598564941 74.1317118768,-553.09050575 71.9394840673,-547.426996796 70.7070548203,-541.784060518 70.1042125046,-536.248223501 70.6546194322,-531.028805078 71.9822256334,-526.288140219 74.8709234621,-520.914155066 78.5211302586,-515.750430182 82.4952652529,-510.766613644 86.4817669529,-505.912127775 90.8002858512,-501.734971594 95.2532376252,-497.554400118 105.30945568,-483.19163909 108.817322074,-480.700817816 113.293080643,-478.727994797 117.385913971,-478.2359538 121.821751142,-478.422271469 126.236802972,-481.356973312 124.319140481,-484.221210649 117.724623994,-493.755037995 113.661255744,-490.944103029 99.8471943676,-510.925111537 105.069951994,-514.539020601 98.1906737745,-524.473380704 93.192769355,-531.401249171 " moovel_rot="-47.4" moovel_centroid="97.3620469942,-537.643053344"></polygon></g><g transform="translate(57.93967860000001 985.3759845999999) rotate(0)"><polygon id="185021233" class="tile" points="52.5285310652,-535.274321994 52.5496394165,-478.2359538 0.0209918215871,-478.388548755 0.0108202379197,-508.976813808 0.0,-535.427110887 52.5285310652,-535.274321994 " moovel_rot="-31.0" moovel_centroid="26.275047115456157,-506.831465434"></polygon></g><g transform="translate(-87.92791840000001 526.0616008) rotate(0)"><polygon id="244091362" class="tile" points="248.626494648,-5.02426708657 203.412262785,-5.0 203.437573851,-75.8332366752 210.53772315,-76.9623570891 209.467376034,-83.659659666 232.754173175,-83.67738344 232.73990061,-42.5930550447 248.644334894,-42.6018611247 248.626494648,-5.02426708657 " moovel_rot="7.5" moovel_centroid="223.005315169,-39.4436337536975"></polygon></g><g transform="translate(163.027693 1112.7850547) rotate(0)"><polygon id="443136835" class="tile" points="73.0073514054,-620.587681467 73.0409638653,-685.296657381 67.2470254887,-686.470086097 66.4850393716,-689.508926831 31.3312112555,-678.542995794 32.0264647666,-674.031892763 28.1346947327,-674.076780809 28.8879937503,-616.990612581 73.0073514054,-620.587681467 " moovel_rot="73.3" moovel_centroid="51.2517964025,-651.406750584"></polygon></g><g transform="translate(-400.04718829999996 1725.9776047999999) rotate(0)"><polygon id="436396133" class="tile" points="543.296951259,-742.05692502 558.805671271,-742.247618506 558.794233599,-617.069805866 504.497333442,-616.990612581 504.303338556,-632.524536677 543.538145663,-632.095210454 543.296951259,-742.05692502 " moovel_rot="5.5" moovel_centroid="544.648195483,-666.706799525"></polygon></g><g transform="translate(-164.009571 805.2120097) rotate(0)"><polygon id="59384782" class="tile" points="432.238956733,-384.814366234 435.131893191,-375.807758621 440.207676647,-375.48917913 439.023824021,-350.283578064 437.076247952,-308.819526619 405.133861863,-310.186131096 405.070483458,-387.10926214 432.238956733,-384.814366234 " moovel_rot="-42.8" moovel_centroid="421.58601497,-347.490984309"></polygon></g><g transform="translate(166.6878969 709.7040377000001) rotate(0)"><polygon id="182103072" class="tile" points="100.655493989,-64.3409468262 58.0748504892,-64.4285674091 58.1132581616,-5.07816362306 100.69977032,-5.0 100.655493989,-64.3409468262 " moovel_rot="-68.7" moovel_centroid="79.3852775434,-34.71123823988896"></polygon></g><g transform="translate(163.1874545 1924.0037518) rotate(0)"><polygon id="263592312" class="tile" points="74.3414598014,-785.166635767 74.0847296767,-818.457966709 97.9480662514,-874.153425348 108.2864553,-874.493740974 108.322918716,-785.003718292 74.3414598014,-785.166635767 " moovel_rot="6.8" moovel_centroid="93.7976079504,-822.45400825"></polygon></g><g transform="translate(-73.97500029999998 614.6687118) rotate(0)"><polygon id="392494961" class="tile" points="340.25181852,-5.08960871845 319.627397804,-5.0 319.55100073,-100.858969602 340.179879335,-100.938609282 340.25181852,-5.08960871845 " moovel_rot="61.8" moovel_centroid="329.902343668,-52.97351952580602"></polygon></g><g transform="translate(69.60694190000001 1231.0345554) rotate(0)"><polygon id="375218636" class="tile" points="44.1376061339,-785.003718292 1.77526751272,-798.69345244 0.0280906286091,-801.781579007 12.8695211409,-810.430083847 0.0,-831.295596917 12.1446032356,-839.259159847 25.3576550826,-819.272219324 33.5222714972,-818.721808819 42.1793392014,-825.570066951 37.8566556612,-832.121099337 26.5043487858,-849.327460107 34.1703156436,-854.341113704 55.9853701115,-820.261643035 44.1376061339,-785.003718292 " moovel_rot="40.9" moovel_centroid="29.55760956732989,-814.196813242"></polygon></g><g transform="translate(-153.57548810000003 2114.4241492) rotate(0)"><polygon id="266173832" class="tile" points="398.006944952,-1230.30739657 398.037342795,-1286.97067861 398.155924464,-1293.30809441 402.046686847,-1293.56397565 404.441743184,-1298.08414938 410.662862945,-1300.31798756 418.977107066,-1299.51395424 425.588140945,-1295.8293532 430.605054002,-1295.80301247 431.529130044,-1244.4548923 426.612272408,-1244.49139423 426.789403197,-1238.98179777 413.161361027,-1238.58994772 412.912628627,-1234.39764836 408.144396203,-1230.96598264 398.006944952,-1230.30739657 " moovel_rot="0.8" moovel_centroid="413.884269747,-1266.59751118"></polygon></g><g transform="translate(-319.02602590000004 447.83924490000004) rotate(0)"><polygon id="364262715" class="tile" points="470.281009262,-73.1512480512 492.260902304,-73.0879751367 492.223455774,-5.0 468.803324287,-5.68171152454 468.480449325,-17.9340581017 451.276919877,-17.9235247657 451.27132398,-33.7451603061 468.068505415,-33.423627612 468.006175281,-63.4351816788 470.272657319,-63.3816077607 470.281009262,-73.1512480512 " moovel_rot="-82.2" moovel_centroid="477.45737443,-37.13110710615973"></polygon></g><g transform="translate(32.752226199999996 1752.1000972000002) rotate(0)"><polygon id="448157968" class="tile" points="252.907444748,-875.309706232 219.733107728,-862.574429623 234.296446714,-816.712506489 224.66427752,-793.918265696 226.689358958,-788.480708246 236.458040825,-785.003718292 247.680099733,-813.448049494 252.896061437,-844.054059873 252.907444748,-875.309706232 " moovel_rot="79.6" moovel_centroid="238.572516147,-835.656402298"></polygon></g><g transform="translate(-164.8587564 2021.3945903) rotate(0)"><polygon id="241824865" class="tile" points="366.681154905,-1059.33936757 382.453319829,-1058.70456516 382.431521599,-1103.2785769 365.689125421,-1119.41052976 352.486890316,-1112.25893127 346.933518351,-1103.22303478 345.282365705,-1069.59943766 366.592946009,-1067.32926587 366.681154905,-1059.33936757 " moovel_rot="-58.7" moovel_centroid="365.114746144,-1088.20032167"></polygon></g><g transform="translate(-284.1930402 1078.5438248) rotate(0)"><polygon id="302359513" class="tile" points="294.210454161,-308.819526619 323.381304016,-321.693721811 320.368821353,-340.765946385 321.120652289,-352.08830974 323.408815496,-359.632298429 291.722592044,-370.899434463 288.147275481,-359.429228333 286.681515698,-344.214769827 287.434648807,-330.988203604 290.469661389,-317.304825387 294.210454161,-308.819526619 " moovel_rot="74.4" moovel_centroid="303.871475938,-340.283658396"></polygon></g><g transform="translate(-452.54940320000003 1144.0000218) rotate(0)"><polygon id="185515256" class="tile" points="525.726458232,-57.418026902 525.716221077,-5.0 493.260902304,-5.13556640465 493.27550732,-57.5485382473 525.726458232,-57.418026902 " moovel_rot="-50.4" moovel_centroid="509.49503199,-31.274943779886993"></polygon></g><g transform="translate(245.57086120000002 599.3569483) rotate(0)"><polygon id="261915257" class="tile" points="44.1547442388,-5.01304508448 39.888712474,-5.00858745035 25.6945418321,-5.0 25.6980740706,-97.8203053545 30.2644382024,-98.193289889 46.1342838693,-73.5298856732 43.9380404733,-72.305169487 43.7703713421,-68.3746374754 44.1547442388,-5.01304508448 " moovel_rot="-66.8" moovel_centroid="34.435775008,-47.86595480043263"></polygon></g><g transform="translate(146.02015930000002 1009.3755654) rotate(0)"><polygon id="443296703" class="tile" points="140.970428447,-409.966015633 141.000485603,-308.819526619 126.364375101,-308.872817536 126.334401024,-410.019400784 140.970428447,-409.966015633 " moovel_rot="-41.4" moovel_centroid="133.667421418,-359.419392286"></polygon></g><g transform="translate(-68.71313490000003 906.442747) rotate(0)"><polygon id="288448676" class="tile" points="264.002827031,-478.2359538 262.776894988,-482.575647116 259.370078802,-494.63067087 258.199689837,-498.795264488 256.377747429,-505.066485083 256.94011527,-505.216110263 261.244398671,-506.431007574 262.703487585,-506.842376345 267.016254635,-508.064328722 264.468861987,-517.0722271 265.036481945,-517.986893109 264.765497545,-518.950929987 263.756304926,-519.508451499 262.822616044,-522.7980398 263.415687448,-523.733873174 262.159419668,-528.179701223 256.38756578,-526.546389069 296.896999495,-538.351612943 303.517076711,-514.91746044 297.777872447,-513.069269458 282.408224419,-508.729721973 288.969593287,-485.516342177 264.002827031,-478.2359538 " moovel_rot="-13.0" moovel_centroid="278.294698891,-509.794680454"></polygon></g><g transform="translate(-294.3678615 2091.10606) rotate(0)"><polygon id="315149996" class="tile" points="563.154321823,-1058.9148058 585.886287777,-1058.70456516 587.18559529,-1118.79440419 554.563495527,-1119.17229189 554.580102872,-1101.39704916 563.114633007,-1101.39800572 563.136683776,-1076.37900108 562.612249869,-1076.37892789 562.617907803,-1071.00451671 563.148551905,-1071.00213129 563.154321823,-1058.9148058 " moovel_rot="-21.6" moovel_centroid="573.261237187,-1091.17818627"></polygon></g><g transform="translate(-148.7163433 421.799999) rotate(0)"><polygon id="277176271" class="tile" points="151.216099771,-63.7413029084 178.116123042,-64.807972211 178.072474382,-5.85903308894 152.044016704,-5.0 151.216099771,-63.7413029084 " moovel_rot="-76.6" moovel_centroid="164.867692448,-35.014033062528725"></polygon></g><g transform="translate(-60.622241600000024 1643.7021895999999) rotate(0)"><polygon id="185622698" class="tile" points="324.659835975,-1238.7120881 324.656684966,-1235.83313948 324.629353707,-1233.23177121 324.585868428,-1230.30739657 304.642654935,-1230.35888301 304.766395476,-1235.12702749 311.027023294,-1235.01308264 311.234749326,-1276.10915997 293.70588604,-1276.27989783 293.855063713,-1279.3276241 293.934131995,-1294.49747031 306.609963097,-1294.48005318 306.602565509,-1292.56013146 306.547016652,-1282.79591565 336.754978143,-1282.75942171 340.510708886,-1282.7478166 340.510876522,-1273.47738242 340.398429021,-1260.84619841 324.775616246,-1260.86878418 324.741829767,-1254.36582151 324.659835975,-1238.7120881 " moovel_rot="40.1" moovel_centroid="318.203136183,-1265.37991087"></polygon></g><g transform="translate(-39.5867358 1454.2965593) rotate(0)"><polygon id="191322636" class="tile" points="73.9883028088,-1102.07520935 73.9720126376,-1058.71304208 106.42211373,-1058.70456516 106.438408465,-1102.06673235 73.9883028088,-1102.07520935 " moovel_rot="-91.1" moovel_centroid="90.2052094052,-1080.38988774"></polygon></g><g transform="translate(72.66586640000003 2045.2267817) rotate(0)"><polygon id="413778950" class="tile" points="199.769071942,-1292.59516625 205.895591406,-1252.82229088 185.240852545,-1251.57425417 184.895903197,-1239.99925312 220.272164313,-1230.30739657 220.285164061,-1271.40826941 215.519564401,-1297.48758904 199.769071942,-1292.59516625 " moovel_rot="15.4" moovel_centroid="207.959987775,-1259.96417185"></polygon></g><g transform="translate(80.45817199999999 1459.7888892) rotate(0)"><polygon id="443154949" class="tile" points="45.7195841566,-1058.70456516 35.0663108021,-1073.72191026 32.2370538734,-1086.99586173 35.0714178197,-1099.79157583 41.4264298713,-1112.19874912 60.9005691592,-1111.10417369 63.5138652362,-1101.53955804 63.5247038092,-1066.56212947 57.4535203904,-1058.96033905 45.7195841566,-1058.70456516 " moovel_rot="38.7" moovel_centroid="49.4434865488,-1086.09402231"></polygon></g><g transform="translate(-451.0500154 1433.0167285) rotate(0)"><polygon id="450419565" class="tile" points="522.897788113,-1103.85981826 531.199749003,-1103.82786201 553.558008827,-1103.75423295 553.563495527,-1062.89823087 549.332066345,-1062.91635301 549.333376378,-1058.70456516 527.488447741,-1058.77750546 527.488447143,-1063.97994491 522.904532323,-1063.99438101 522.897788113,-1103.85981826 " moovel_rot="-30.9" moovel_centroid="538.287470531,-1081.89966733"></polygon></g><g transform="translate(158.75274950000002 1682.8480771) rotate(0)"><polygon id="244999296" class="tile" points="16.9103141664,-1311.95639723 17.0468280843,-1314.64914988 16.9192759285,-1346.3392952 16.9277283983,-1355.32349386 16.8784570446,-1357.35349162 33.556538138,-1357.56648707 33.6051826337,-1349.02771611 36.2068860067,-1349.07329691 35.8850671874,-1357.70075704 51.2879150817,-1357.84423216 51.5030938046,-1330.470077 36.909944308,-1330.37101229 36.6501576195,-1344.42235241 33.2655678516,-1344.40047282 33.773305711,-1309.40092019 16.9103141664,-1311.95639723 " moovel_rot="-5.6" moovel_centroid="31.784736351,-1337.66415094"></polygon></g><g transform="translate(-395.9008137 1307.362432) rotate(0)"><polygon id="374156365" class="tile" points="478.456483751,-619.823557713 502.272083401,-616.990612581 503.303338556,-640.724119972 502.105440861,-668.016269341 478.473206971,-668.791993561 478.456483751,-619.823557713 " moovel_rot="-87.1" moovel_centroid="490.690762875,-643.333844841"></polygon></g><g transform="translate(-240.6365363 1586.2627195) rotate(0)"><polygon id="221214070" class="tile" points="492.085623303,-1282.04087981 492.063504218,-1231.09714458 520.59774147,-1230.30739657 521.650888159,-1256.02834432 508.150487236,-1256.25491559 508.626767183,-1281.35322805 492.085623303,-1282.04087981 " moovel_rot="-83.0" moovel_centroid="504.337726671,-1252.68379883"></polygon></g><g transform="translate(-98.1948261 661.2963023) rotate(0)"><polygon id="224707365" class="tile" points="124.512456587,-357.618284588 125.334401024,-309.217903628 100.694821494,-308.819526619 100.754839313,-357.188417301 124.512456587,-357.618284588 " moovel_rot="81.0" moovel_centroid="112.827227429,-333.064171803"></polygon></g><g transform="translate(-241.49678050000003 1579.3665706) rotate(0)"><polygon id="318665982" class="tile" points="268.452638161,-616.990612581 265.858707832,-617.010597166 255.20078495,-617.036446778 244.00033152,-617.028718766 244.000413123,-628.937344368 243.996781315,-631.789493856 247.212727495,-631.771384295 247.241504582,-636.57497803 244.000565914,-636.580197005 243.99962567,-664.458510912 244.004117632,-674.608131729 243.999434342,-677.255690958 249.808965324,-677.261984997 253.959328264,-677.322453237 253.920625832,-679.929015215 261.175517048,-680.033514495 261.227750241,-672.105836195 259.517209144,-672.14289529 247.744716251,-671.990203152 247.838975219,-664.433613808 259.611468462,-664.586303769 260.38308447,-664.541044289 260.406488144,-661.523223939 260.414082288,-660.884578453 260.42028859,-660.254597571 260.909062154,-629.24617653 261.672351141,-629.252904371 262.261391697,-629.249496171 262.98511006,-629.24988582 268.663783864,-629.270759987 268.625835247,-627.522825279 268.452638161,-616.990612581 " moovel_rot="9.1" moovel_centroid="253.546409689,-643.647270973"></polygon></g><g transform="translate(-24.87064680000003 486.1713844) rotate(0)"><polygon id="275609108" class="tile" points="309.61273091,-129.830198475 312.059299095,-130.746754099 317.316247328,-132.723617924 317.411142509,-130.270287837 318.55100073,-45.2224532478 315.223808237,-44.8346570605 315.249636068,-5.0 309.57230546,-5.57977004983 310.668613335,-43.5018247254 311.039346927,-85.1256552024 309.61273091,-129.830198475 " moovel_rot="-59.6" moovel_centroid="313.900983005,-72.82877721711245"></polygon></g><g transform="translate(-300.6841587 486.4636881) rotate(0)"><polygon id="265734940" class="tile" points="471.290771486,-137.242886472 447.312027813,-137.106371123 447.282980615,-138.319724607 447.112940174,-150.730121746 447.067419862,-163.724548418 446.930172071,-181.003863733 451.509764521,-181.043945706 451.478063378,-184.578877139 458.709920028,-184.626176651 458.722665801,-184.251150854 471.339678953,-184.436940072 471.290771486,-137.242886472 " moovel_rot="-14.6" moovel_centroid="459.320508092,-160.568692411"></polygon></g><g transform="translate(-64.91196620000005 1139.7549852) rotate(0)"><polygon id="236572126" class="tile" points="354.636814316,-12.6854693163 349.349968608,-15.4603227783 348.732028253,-17.4153168838 353.396979507,-24.4724019462 351.71100001,-88.9523726465 348.17904352,-88.8635545885 346.89922143,-90.0247490607 347.22800255,-91.6540879097 355.13161279,-95.7967121972 354.897773748,-102.638979828 341.25181852,-95.001394134 343.590602557,-12.6479300493 355.103486775,-5.0 354.636814316,-12.6854693163 " moovel_rot="9.3" moovel_centroid="347.680097408,-55.014161145739514"></polygon></g><g transform="translate(-525.2482629 1132.2580851) rotate(0)"><polygon id="359005797" class="tile" points="557.306301881,-785.003718292 557.309684489,-821.579154649 582.13161731,-821.736225216 586.421743894,-819.496203614 586.783228771,-785.421842958 557.306301881,-785.003718292 " moovel_rot="-8.3" moovel_centroid="571.874664225,-803.321278715"></polygon></g><g transform="translate(-22.187683399999997 1402.1883665) rotate(0)"><polygon id="381298068" class="tile" points="158.87625465,-1058.70456516 163.673283813,-1078.14488954 156.4935405,-1078.1980096 155.995134226,-1096.77417156 130.223745098,-1102.62788698 130.206572971,-1067.32720114 158.87625465,-1058.70456516 " moovel_rot="-83.8" moovel_centroid="144.80008348,-1080.43387996"></polygon></g><g transform="translate(81.2491372 653.0400705) rotate(0)"><polygon id="377285995" class="tile" points="142.000814435,-356.316894414 165.186767716,-356.29063136 165.182590987,-308.819526619 142.73342343,-308.846563149 142.736311981,-326.023055886 148.366231633,-326.017211897 148.368191449,-339.351908031 142.000485603,-339.363582408 142.000814435,-356.316894414 " moovel_rot="-81.6" moovel_centroid="154.445737349,-332.749371958"></polygon></g><g transform="translate(-151.84328810000002 941.6129228) rotate(0)"><polygon id="354586623" class="tile" points="371.780955745,-616.990612581 335.213766135,-635.080360539 338.545864874,-642.872565501 343.02203384,-650.888302574 346.268762578,-654.618687893 350.5667261,-658.932070497 354.526603054,-661.686989511 359.355558103,-664.536047518 363.957974608,-666.200749082 370.075338886,-668.364225134 373.803254203,-657.2357612 374.263755444,-654.597969777 367.701687632,-652.012688204 366.773635122,-651.845983141 363.802298215,-635.567052368 363.390206111,-634.042911454 359.343701578,-634.121131401 357.646620729,-630.904353865 374.245340113,-621.77851838 371.780955745,-616.990612581 " moovel_rot="50.9" moovel_centroid="356.189586788,-644.220331601"></polygon></g><g transform="translate(66.2947245 633.000007) rotate(0)"><polygon id="201148560" class="tile" points="20.5189345261,-357.139266351 20.7360328283,-308.907635786 13.6927240323,-308.975830837 0.0,-308.819526619 0.0313152529299,-316.237384338 0.0511534251273,-350.179407552 0.0539402710274,-357.128118634 20.5189345261,-357.139266351 " moovel_rot="10.5" moovel_centroid="10.329416051529268,-332.973251467"></polygon></g><g transform="translate(-455.73731489999994 802.5010519) rotate(0)"><polygon id="301843500" class="tile" points="558.400966871,-478.2359538 553.349246818,-478.341752068 547.776198831,-478.468434816 548.243751309,-528.282919096 547.797785442,-539.910337291 562.524122975,-540.405477265 563.913639333,-529.706793936 559.025467013,-529.071931197 560.049828541,-525.333478597 562.313811987,-523.200081844 565.166462375,-521.408916488 569.01755492,-521.005441108 572.353859187,-521.71338859 575.023365069,-523.406704948 574.905858466,-517.880979534 574.778031138,-512.123567223 569.47571796,-514.677412456 566.790424348,-514.505839202 563.804036193,-513.85219686 560.714515566,-511.918283422 558.832829306,-506.907601935 558.607182627,-491.790914575 558.400966871,-478.2359538 " moovel_rot="7.4" moovel_centroid="556.008574178,-512.208029555"></polygon></g><g transform="translate(-275.2251488 922.9831673) rotate(0)"><polygon id="264529120" class="tile" points="334.187754887,-660.352617557 334.213766135,-616.990612581 309.734486718,-627.025040404 310.304538542,-660.861928577 334.187754887,-660.352617557 " moovel_rot="74.7" moovel_centroid="322.5992429,-641.112699117"></polygon></g><g transform="translate(7.8034468000000174 1127.2204299) rotate(0)"><polygon id="201149332" class="tile" points="288.455686897,-870.241467971 272.072341696,-839.225367042 277.633259158,-836.28777717 288.46187329,-803.389284128 278.73149094,-785.003718292 272.01767628,-788.550788665 282.068493851,-807.534493602 283.708798547,-806.671172032 287.274438958,-813.403399486 255.673725227,-830.071476688 253.907444748,-831.001850607 267.604425272,-856.885389492 277.764992329,-876.018287657 288.455686897,-870.241467971 " moovel_rot="-17.4" moovel_centroid="273.58047878,-836.341999916"></polygon></g><g transform="translate(-108.34211710000002 607.0311967) rotate(0)"><polygon id="239584469" class="tile" points="232.595642185,-308.819526619 245.567056079,-309.556839627 246.699678907,-309.520246927 251.422052389,-310.889849924 255.625482206,-312.103319262 260.238799994,-313.438073786 261.462900942,-314.439025749 262.308805422,-315.442824213 262.617028818,-316.918533961 262.816887681,-323.682996596 262.705052934,-334.773168724 262.586036892,-340.059054477 262.58727779,-345.1515856 239.560519112,-345.105591926 239.376459041,-332.686171468 238.052632778,-332.649300225 238.057097463,-325.339762907 232.572567995,-325.356066202 232.595642185,-308.819526619 " moovel_rot="67.8" moovel_centroid="248.796718886,-326.751970133"></polygon></g><g transform="translate(-414.67551480000003 1357.7008924) rotate(0)"><polygon id="300593880" class="tile" points="421.195198512,-1107.60695172 438.622156985,-1105.69403849 443.832978201,-1082.29889336 444.25377981,-1077.25229942 444.395983315,-1072.67004776 444.28057004,-1067.29131739 443.717894051,-1058.70456516 421.889662007,-1061.2024401 421.14273755,-1061.44476541 421.362645569,-1070.47647046 428.343108428,-1069.39022695 421.195198512,-1107.60695172 " moovel_rot="-49.7" moovel_centroid="433.337793323,-1082.19202269"></polygon></g><g transform="translate(-110.456436 914.7024758) rotate(0)"><polygon id="185632362" class="tile" points="269.822221783,-674.80085799 276.170422785,-674.819501358 292.428938479,-674.869950507 292.393868096,-616.990612581 287.03717824,-617.159263185 287.322313663,-645.814268825 269.663783864,-645.92074439 269.822221783,-674.80085799 " moovel_rot="39.8" moovel_centroid="282.711434457,-654.936080497"></polygon></g><g transform="translate(107.04524620000001 287.7011692) rotate(0)"><polygon id="257713568" class="tile" points="119.472605082,-5.11794474069 150.216099771,-5.0 150.212580245,-47.8047397364 141.607144483,-47.8343316125 141.61156873,-43.9995299786 136.780039515,-44.0209507558 136.780726056,-21.488935196 119.468836015,-21.5490063755 119.472605082,-5.11794474069 " moovel_rot="-38.0" moovel_centroid="138.392540189,-21.557456604716283"></polygon></g><g transform="translate(-59.04885089999999 1501.2769821000002) rotate(0)"><polygon id="219559495" class="tile" points="246.022281731,-1271.51560257 246.018843271,-1234.67846811 268.80528613,-1230.30739657 273.489866638,-1255.04658547 265.853163479,-1256.49649507 267.939510377,-1267.5234439 246.022281731,-1271.51560257 " moovel_rot="-92.5" moovel_centroid="258.051042656,-1250.4564924"></polygon></g><g transform="translate(-290.5851714 1027.0144034999998) rotate(0)"><polygon id="108325087" class="tile" points="500.358237324,-513.305411076 525.337463648,-513.20205513 525.324167525,-478.2359538 500.344889257,-478.339255581 500.358237324,-513.305411076 " moovel_rot="-43.8" moovel_centroid="512.841186199,-495.770662853"></polygon></g><g transform="translate(-11.856867800000003 570.2710968) rotate(0)"><polygon id="252392180" class="tile" points="99.6948214935,-345.484519553 99.462179015,-324.734784185 99.5563150961,-316.679075398 99.6520289386,-309.079396681 75.4847351043,-308.819526619 75.3359362908,-334.474787204 75.2905875979,-343.437739674 99.6948214935,-345.484519553 " moovel_rot="-79.1" moovel_centroid="87.5772214753,-326.741323143"></polygon></g><g transform="translate(-20.59676010000001 740.0495384000001) rotate(0)"><polygon id="185148213" class="tile" points="134.649614857,-531.723546062 146.846129321,-531.805072571 146.852318795,-503.893986643 146.856135866,-478.2359538 132.373774782,-478.489222683 127.79141892,-499.749636526 127.278469114,-507.386341587 135.01275694,-507.454036098 134.649614857,-531.723546062 " moovel_rot="9.1" moovel_centroid="139.086502954,-503.173970059"></polygon></g><g transform="translate(-31.417870500000006 1557.6160776) rotate(0)"><polygon id="403560777" class="tile" points="52.5030938046,-1323.20083084 52.5086127402,-1338.41511133 60.1420370685,-1338.38114101 60.1477445316,-1348.34659301 78.5380565884,-1348.27975346 78.5306795564,-1339.62942759 72.9104357114,-1339.6561034 72.8978493987,-1329.95460968 78.9078613115,-1329.93152568 78.9099224752,-1314.30830019 72.819117211,-1314.33213935 72.8125887936,-1309.40092019 57.7323870113,-1309.45840163 57.7412455318,-1323.17485316 52.5030938046,-1323.20083084 " moovel_rot="-60.8" moovel_centroid="66.3837403494,-1328.76909196"></polygon></g><g transform="translate(-448.16268829999996 1617.2388815) rotate(0)"><polygon id="329776611" class="tile" points="546.466061322,-522.159543956 546.776198831,-494.093223469 539.382774842,-493.831921423 539.047623484,-478.850775742 526.337463648,-478.2359538 526.338750798,-525.614640231 546.466061322,-522.159543956 " moovel_rot="-10.8" moovel_centroid="535.406967729,-503.325283172"></polygon></g><g transform="translate(-95.84559479999999 1026.0783789) rotate(0)"><polygon id="185148180" class="tile" points="334.035524239,-817.817995217 321.239899809,-817.800209059 313.419204237,-817.780272965 309.676472769,-817.779995977 309.696970044,-785.003718292 311.185303622,-785.007720539 332.741899115,-785.048464452 334.765111007,-785.051270348 334.762400384,-793.085943402 334.754100246,-810.495446388 334.746026078,-817.818923352 334.035524239,-817.817995217 " moovel_rot="9.3" moovel_centroid="322.222028491,-801.414162327"></polygon></g><g transform="translate(-237.50043620000002 1487.1992132) rotate(0)"><polygon id="364262716" class="tile" points="368.750149156,-1277.10127277 385.587197585,-1277.09579467 385.623380835,-1230.30739657 368.78631375,-1230.31287202 368.750149156,-1277.10127277 " moovel_rot="-81.9" moovel_centroid="377.186760255,-1253.70432969"></polygon></g><g transform="translate(262.1798083 892.3633609999999) rotate(0)"><polygon id="395180437" class="tile" points="0.0795163672417,-617.83036968 1.85648225918,-672.078696289 0.0,-726.664009175 4.22587062232,-726.762281503 6.90743014142,-669.155964355 5.2076073233,-616.990612581 0.0795163672417,-617.83036968 " moovel_rot="-9.3" moovel_centroid="3.3990433725321667,-670.110112485"></polygon></g><g transform="translate(-452.5827951 825.2751568) rotate(0)"><polygon id="286996646" class="tile" points="455.082779712,-616.990612581 477.456483751,-618.300900078 477.262730954,-621.66227704 475.420201149,-648.454635741 474.630489416,-655.728396727 468.160105843,-655.512595793 455.114762417,-654.62267519 455.100252946,-642.048851022 455.082779712,-616.990612581 " moovel_rot="-20.2" moovel_centroid="465.650043432,-636.04284082"></polygon></g><g transform="translate(-453.48606259999997 341.383512) rotate(0)"><polygon id="324975281" class="tile" points="483.163194166,-137.106371123 483.165307266,-175.380134321 487.829456433,-174.872275584 487.380265458,-162.982849767 512.11514702,-161.620017285 510.909072296,-138.618798324 483.163194166,-137.106371123 " moovel_rot="62.5" moovel_centroid="496.209433409,-151.587353036"></polygon></g><g transform="translate(-292.67044 1006.1044224) rotate(0)"><polygon id="374110190" class="tile" points="378.881049471,-824.366142769 378.639361715,-805.959552742 375.224325119,-805.923116153 374.775781364,-792.211900935 367.929860003,-791.967100426 367.591595913,-785.003718292 356.306881408,-791.307335986 356.295779985,-827.326719083 366.327695212,-827.492301857 378.881049471,-824.366142769 " moovel_rot="70.0" moovel_centroid="366.491768189,-808.912539652"></polygon></g><g transform="translate(-364.68733299999997 701.7999204) rotate(0)"><polygon id="375129178" class="tile" points="455.749293816,-480.333282236 455.718774542,-527.075894338 457.430147552,-530.99374222 479.525186232,-521.548830364 461.500269388,-478.2359538 455.749293816,-480.333282236 " moovel_rot="-12.7" moovel_centroid="464.070782379,-507.698313506"></polygon></g><g transform="translate(-26.423784000000012 217.05806289999998) rotate(0)"><polygon id="214712411" class="tile" points="179.168498394,-8.21882008873 184.910579078,-7.92180723418 184.867576577,-5.20349051543 193.953229758,-5.0 194.574781556,-27.2574177416 194.615456403,-38.2464603141 196.192140233,-38.21049878 196.259729399,-39.4675852716 202.412262785,-39.4208850566 197.627777059,-50.4350744791 179.116123042,-50.8488599759 179.168498394,-8.21882008873 " moovel_rot="-23.9" moovel_centroid="187.776810611,-29.87693433403679"></polygon></g><g transform="translate(-21.481549700000016 988.2845959) rotate(0)"><polygon id="372749518" class="tile" points="149.452418414,-822.112136736 163.819364928,-822.49229069 164.069694397,-785.120758884 140.344812479,-785.003718292 140.378895051,-805.269915933 150.673884174,-805.091283216 150.598331897,-812.317845597 149.64519126,-812.473917223 149.452418414,-822.112136736 " moovel_rot="-82.0" moovel_centroid="153.763343293,-801.368356755"></polygon></g><g transform="translate(-215.66734670000002 362.12410120000004) rotate(0)"><polygon id="185021243" class="tile" points="409.501053924,-140.185042974 409.475002921,-180.923568121 403.704651415,-181.412024678 394.07296156,-176.91141482 388.219290533,-154.667042584 394.002629465,-142.137879626 401.998060898,-137.106371123 409.501053924,-140.185042974 " moovel_rot="80" moovel_centroid="400.606644843,-159.289630546"></polygon></g><g transform="translate(-459.2340365 1773.2893728) rotate(0)"><polygon id="442637498" class="tile" points="522.668036984,-1259.13244841 545.388766856,-1259.09729828 545.386083784,-1245.48225235 549.854293244,-1245.47304323 549.848547865,-1230.30739657 522.650888159,-1230.35057677 522.668036984,-1259.13244841 " moovel_rot="-82.3" moovel_centroid="535.298662166,-1244.08173997"></polygon></g><g transform="translate(-233.70737110000002 1433.5968799) rotate(0)"><polygon id="185148206" class="tile" points="432.537485981,-1264.73789251 453.28245845,-1264.70411254 453.282612245,-1257.63881005 453.276138477,-1241.09813434 453.273167046,-1230.30739657 442.587113725,-1230.31958981 432.529130044,-1230.33456318 432.537485981,-1264.73789251 " moovel_rot="-81.8" moovel_centroid="442.905590408,-1247.52090337"></polygon></g><g transform="translate(-332.10836860000006 713.1287790000001) rotate(0)"><polygon id="383830158" class="tile" points="577.312921219,-537.234859488 587.722433909,-535.788934278 587.755328262,-478.2359538 576.023365069,-478.740910775 577.312921219,-537.234859488 " moovel_rot="-66.2" moovel_centroid="582.180513635,-506.929043996"></polygon></g><g transform="translate(-138.62890850000002 313.69987790000005) rotate(0)"><polygon id="288448675" class="tile" points="434.872883343,-137.106371123 410.543517185,-137.194372682 410.571236128,-148.966088829 410.585458324,-155.295100633 410.501053924,-161.464973549 410.512575597,-167.482081886 418.400325923,-167.403067601 432.878655087,-167.370798549 434.879091712,-167.388691051 434.733840087,-155.31547776 424.433787924,-155.323010468 421.802463351,-155.327571006 414.067028557,-155.337095677 414.059621043,-149.164816179 421.919644199,-149.16238714 424.620937702,-149.157102706 434.726440735,-149.143193719 434.872883343,-137.106371123 " moovel_rot="60.9" moovel_centroid="422.304174675,-152.293198639"></polygon></g><g transform="translate(-116.93647140000002 1407.9486259) rotate(0)"><polygon id="373229508" class="tile" points="342.987134214,-1230.30739657 341.510876522,-1234.1588452 341.515069482,-1263.3410999 353.7738279,-1267.88093236 355.709761526,-1263.55701564 359.517983492,-1265.13674252 367.750149156,-1244.10405178 363.81288681,-1242.5799634 365.428665437,-1238.52622866 342.987134214,-1230.30739657 " moovel_rot="69.4" moovel_centroid="352.393152585,-1249.06000198"></polygon></g><g transform="translate(-344.11681730000004 1232.401776) rotate(0)"><polygon id="181275816" class="tile" points="383.453319829,-1058.70456516 404.929942784,-1058.77387197 404.953541306,-1091.45160549 400.529084292,-1091.43896143 385.284006783,-1091.38797611 383.476958553,-1091.38225434 383.453319829,-1058.70456516 " moovel_rot="42.2" moovel_centroid="394.203511774,-1075.07842308"></polygon></g><g transform="translate(-157.64275200000003 1232.6386975) rotate(0)"><polygon id="285497482" class="tile" points="231.817116787,-1058.70456516 231.873148112,-1065.61632697 231.852142853,-1075.55531078 234.361229484,-1078.01456099 243.758251615,-1078.07593196 243.716267225,-1084.88103469 234.641202294,-1084.82515253 231.836771343,-1087.69361359 231.820558699,-1096.40201572 238.583940116,-1102.83353775 257.839612643,-1082.1752225 249.009103355,-1073.43488782 252.082845556,-1070.44816829 242.112314115,-1060.31994135 239.317114242,-1060.50232009 237.345746374,-1060.31488728 236.529280594,-1060.23827174 231.817116787,-1058.70456516 " moovel_rot="-67.1" moovel_centroid="241.925624422,-1079.86295466"></polygon></g><g transform="translate(108.99268119999999 1031.2643352999999) rotate(0)"><polygon id="376403760" class="tile" points="179.876099578,-829.860747078 165.115930124,-830.126080384 165.069694397,-785.003718292 180.066733013,-785.067012336 179.876099578,-829.860747078 " moovel_rot="81.3" moovel_centroid="172.523102716,-807.454673024"></polygon></g><g transform="translate(168.2036659 1406.2220126) rotate(0)"><polygon id="285497542" class="tile" points="12.3541867327,-1230.30739657 17.1627934972,-1230.37884264 19.5656502593,-1230.42242738 19.8197513755,-1243.73599677 29.0469073698,-1243.56511445 34.4399706073,-1243.46218269 34.7184506794,-1258.14307266 22.3043216057,-1258.33332083 22.3319003716,-1259.66303663 22.2803934352,-1276.72376153 12.3716945827,-1277.11003257 12.365083855,-1267.70151448 12.3633768022,-1258.32717812 12.3562468257,-1248.75936564 12.3548405513,-1239.36315035 12.3541867327,-1230.30739657 " moovel_rot="67.1" moovel_centroid="20.4059278002,-1253.79094965"></polygon></g><g transform="translate(-171.2577163 1232.3594758) rotate(0)"><polygon id="393413919" class="tile" points="283.384040578,-1058.70456516 283.289111906,-1092.09976767 279.334248888,-1091.63416676 279.623898021,-1106.94890762 283.346830037,-1107.6047607 283.375685063,-1110.75136309 286.456291009,-1111.24307989 294.258375973,-1112.4727178 294.226147116,-1061.46142717 285.698234479,-1060.17453595 283.384040578,-1058.70456516 " moovel_rot="5.2" moovel_centroid="288.070851361,-1087.37547636"></polygon></g><g transform="translate(-548.3543091 1395.1620418999998) rotate(0)"><polygon id="376403752" class="tile" points="565.083274695,-1275.4775369 550.858463063,-1275.46057452 550.854293244,-1230.30739657 565.07808826,-1230.31775758 565.083274695,-1275.4775369 " moovel_rot="81.1" moovel_centroid="557.968703104,-1252.89108532"></polygon></g><g transform="translate(-61.65123070000001 297.9185701) rotate(0)"><polygon id="241844808" class="tile" points="215.242480442,-137.140486599 189.626024523,-137.106371123 189.651890794,-163.45911209 215.261990984,-163.491173989 215.242480442,-137.140486599 " moovel_rot="18.2" moovel_centroid="202.445430545,-150.298740974"></polygon></g><g transform="translate(-24.595597499999997 1373.3812948999998) rotate(0)"><polygon id="412123961" class="tile" points="221.301900778,-1258.5591429 221.285164061,-1230.39828731 245.002149365,-1230.30739657 245.018843271,-1258.46822804 221.301900778,-1258.5591429 " moovel_rot="-60.6" moovel_centroid="233.152012662,-1244.43325948"></polygon></g><g transform="translate(71.76812489999998 464.7010377) rotate(0)"><polygon id="324991431" class="tile" points="195.124941943,-309.582806778 194.824199937,-327.560925679 203.067259458,-328.077477922 203.090939203,-344.767051083 180.550038353,-344.502509305 181.206091897,-308.819526619 195.124941943,-309.582806778 " moovel_rot="62.2" moovel_centroid="190.296106912,-329.005870981"></polygon></g><g transform="translate(-36.24849489999997 878.8251017) rotate(0)"><polygon id="277653273" class="tile" points="308.714364529,-137.765387142 326.332915028,-137.106371123 327.029504638,-172.894808593 308.706061551,-173.32253131 308.714364529,-137.765387142 " moovel_rot="-32.1" moovel_centroid="317.707434037,-155.388153161"></polygon></g><g transform="translate(-41.56524380000002 470.24890550000003) rotate(0)"><polygon id="300396693" class="tile" points="204.122497659,-308.819526619 212.461349529,-308.860866245 217.128537306,-308.882734731 217.096940169,-355.656259511 212.87905499,-355.634284054 204.090939203,-355.593016572 204.122497659,-308.819526619 " moovel_rot="48.0" moovel_centroid="210.609712258,-332.2377097"></polygon></g><g transform="translate(-420.70447939999997 640.1075739) rotate(0)"><polygon id="244768464" class="tile" points="446.406258038,-478.384821248 454.712562668,-479.648774043 454.718774542,-528.204240515 448.588586979,-525.975441272 446.68191934,-531.159455566 444.055684804,-531.131026733 442.425633923,-508.46595586 443.019416546,-494.887538389 444.04452593,-478.2359538 446.406258038,-478.384821248 " moovel_rot="-1.3" moovel_centroid="448.821352886,-503.776980337"></polygon></g><g transform="translate(-324.958857 444.85356429999996) rotate(0)"><polygon id="443524678" class="tile" points="381.142615392,-309.721606107 363.970068988,-308.819526619 364.01624325,-343.073575686 379.466355261,-348.737201496 381.142615392,-309.721606107 " moovel_rot="77.9" moovel_centroid="372.344208929,-327.324750182"></polygon></g><g transform="translate(-204.1544554 137.76342540000002) rotate(0)"><polygon id="275609101" class="tile" points="279.267627634,-41.6099437591 289.194205118,-19.8435709417 291.1447784,-15.663186096 265.172320412,-5.0 266.984645549,-14.3240400951 265.170894957,-26.4770391205 269.391485963,-27.0537341608 267.700807435,-40.4047660194 279.267627634,-41.6099437591 " moovel_rot="-52.0" moovel_centroid="276.182279946,-23.44668464206795"></polygon></g><g transform="translate(-208.0008721 438.30748759999994) rotate(0)"><polygon id="246262120" class="tile" points="340.945795332,-358.201970092 341.079999197,-342.622695907 338.6774302,-340.160705011 336.022891638,-339.687234882 335.995459344,-308.819526619 362.970068988,-312.962478646 361.385050221,-318.472438354 341.302575976,-314.472889574 340.01244922,-331.932846369 345.244663495,-330.224490847 345.779752639,-344.321026145 348.717681122,-344.513688837 349.089420951,-359.118976875 340.945795332,-358.201970092 " moovel_rot="-72.2" moovel_centroid="344.278974311,-330.69056803"></polygon></g><g transform="translate(-463.3663215 266.1752426) rotate(0)"><polygon id="255803441" class="tile" points="563.86507471,-137.106371123 566.537447609,-141.178041247 579.701520011,-161.63713405 563.936810294,-179.8176793 561.786436691,-182.290707663 556.257204735,-176.9342914 553.841142122,-174.758530151 563.013689896,-164.60023422 565.080660212,-162.326072589 553.832813548,-148.216377172 563.86507471,-137.106371123 " moovel_rot="-20.2" moovel_centroid="565.766677427,-159.736854513"></polygon></g><g transform="translate(-173.82137400000002 731.897309) rotate(0)"><polygon id="261779549" class="tile" points="399.097636409,-651.809734256 399.244591879,-616.993341136 415.68231232,-616.990612581 415.735454606,-651.880579023 399.097636409,-651.809734256 " moovel_rot="-60.8" moovel_centroid="407.442844383,-634.453731997"></polygon></g><g transform="translate(-8.209147299999984 1419.8413685) rotate(0)"><polygon id="273363271" class="tile" points="154.024443501,-1309.40092019 154.014288299,-1319.87933863 154.019120294,-1331.48825953 155.668155263,-1338.88022979 163.537925115,-1340.09954447 170.360913886,-1334.6914891 178.671487656,-1318.0210552 177.906938689,-1310.52692506 154.024443501,-1309.40092019 " moovel_rot="66.4" moovel_centroid="164.62607829,-1322.98842459"></polygon></g><g transform="translate(-128.35808889999998 731.9845946999999) rotate(0)"><polygon id="374084940" class="tile" points="375.270567826,-650.921795772 375.263755444,-623.046496583 388.861438857,-623.009629727 388.857605497,-617.00865337 398.094287357,-616.990612581 398.097636409,-638.057721603 386.93038962,-638.0835962 386.937677061,-650.89273556 375.270567826,-650.921795772 " moovel_rot="-18.8" moovel_centroid="385.848352988,-633.283772881"></polygon></g><g transform="translate(-138.8941043 731.6760062000001) rotate(0)"><polygon id="273350116" class="tile" points="141.394107951,-617.02779791 154.879608682,-616.990612581 154.890613808,-634.820620698 167.105435072,-634.790844561 167.104146622,-643.190134673 167.108870904,-646.909252956 141.408574511,-646.976222299 141.394107951,-617.02779791 " moovel_rot="-72.9" moovel_centroid="151.591848038,-634.365752061"></polygon></g><g transform="translate(-168.12808540000003 436.9944979) rotate(0)"><polygon id="185193589" class="tile" points="448.230612078,-344.311466218 457.985250255,-329.861523335 457.244890813,-327.547123716 457.208670361,-322.87869711 457.171479698,-318.002922136 457.137843662,-313.706682311 457.4149544,-308.819526619 447.975470736,-308.937295827 448.226964719,-328.300109988 446.449333248,-330.668219531 446.727017424,-330.979953965 445.468158661,-332.668005859 447.161165977,-333.949202298 445.527399049,-336.46004737 447.727822254,-338.076149553 441.207676647,-346.961150619 452.991314532,-355.470227224 461.828713912,-356.343503329 461.839941551,-343.692227365 448.230612078,-344.311466218 " moovel_rot="-50.9" moovel_centroid="452.485820435,-334.401212244"></polygon></g><g transform="translate(176.8222845 1433.6360837) rotate(0)"><polygon id="299950349" class="tile" points="14.8446617587,-1355.70597803 0.491994951479,-1356.51679524 0.0,-1334.54641437 7.28811588697,-1334.1972714 7.23418696895,-1330.10713818 6.9601038035,-1310.26282352 6.9430001216,-1309.40092019 14.8784570446,-1309.45587806 14.8446617587,-1355.70597803 " moovel_rot="60.9" moovel_centroid="8.825126003866067,-1336.33739937"></polygon></g><g transform="translate(25.103098399999993 894.8633348) rotate(0)"><polygon id="292846305" class="tile" points="181.93070989,-832.158707833 192.405873901,-832.725624424 192.416814744,-812.567618645 195.178656156,-812.567690747 195.217059372,-808.062696342 195.220377049,-803.577067157 190.658395227,-803.577667372 190.662408439,-785.259049581 181.076401662,-785.003718292 181.066733013,-804.348623386 181.942894757,-804.34643841 181.93070989,-832.158707833 " moovel_rot="-28.9" moovel_centroid="187.045242439,-809.212708181"></polygon></g><g transform="translate(-36.6003429 1321.9790111) rotate(0)"><polygon id="224286668" class="tile" points="107.484188324,-1248.06010114 106.679136189,-1230.30739657 82.8956882834,-1230.89114944 82.923104189,-1241.29102887 79.1796996733,-1241.06560187 79.1815913292,-1265.89824945 81.8657162448,-1265.98233954 81.7031900348,-1247.90877637 107.484188324,-1248.06010114 " moovel_rot="7.6" moovel_centroid="92.9741322281,-1241.28981603"></polygon></g><g transform="translate(-0.9013115000000056 1149.3360952) rotate(0)"><polygon id="180522746" class="tile" points="107.443545317,-1087.79136323 107.438408465,-1080.20254342 110.343400343,-1065.86046299 111.787606427,-1058.70456516 128.669795026,-1061.93739359 129.206572971,-1084.13972731 120.473486798,-1091.14110934 107.443545317,-1087.79136323 " moovel_rot="-46.6" moovel_centroid="118.549172039,-1075.1689128"></polygon></g><g transform="translate(-203.949155 216.8327311) rotate(0)"><polygon id="274853189" class="tile" points="216.261990984,-137.106371123 216.271174116,-155.894241711 229.451762365,-155.888275214 229.448471452,-163.134702957 240.734151761,-163.127096278 241.529888419,-137.770252818 216.261990984,-137.106371123 " moovel_rot="42.6" moovel_centroid="229.663958789,-148.581625181"></polygon></g><g transform="translate(194.9348703 1314.6379906999998) rotate(0)"><polygon id="298417656" class="tile" points="53.0722572135,-1245.96364139 77.5996299794,-1230.30739657 78.1638464635,-1233.58411918 76.2031716986,-1233.92214272 73.3594337335,-1234.41252711 78.1796996733,-1262.44595993 64.1106446473,-1265.91136248 59.0790220754,-1267.88922437 57.4337548455,-1264.46305403 55.0633455789,-1259.53317095 56.935398181,-1258.69877229 60.8623969426,-1257.95902128 60.0479364919,-1253.64021231 58.4122143855,-1244.95459039 53.0722572135,-1245.96364139 " moovel_rot="-51.6" moovel_centroid="67.4461478601,-1251.54315454"></polygon></g><g transform="translate(-92.23036779999998 703.3753704000001) rotate(0)"><polygon id="252079923" class="tile" points="183.245456568,-619.306343355 173.247421206,-619.298389766 173.248686556,-616.995336182 168.113321939,-616.990612581 168.108870904,-649.814895005 172.470409194,-649.818815415 172.467665596,-654.163844869 183.239533371,-654.172601238 183.245456568,-619.306343355 " moovel_rot="-93.9" moovel_centroid="175.759182212,-635.755353728"></polygon></g><g transform="translate(147.5977496 89.3479605) rotate(0)"><polygon id="220530399" class="tile" points="24.6945418321,-52.2616944408 1.0,-41.90804598 2.892035974,-37.679070561 11.1951638972,-32.6439555719 19.7037047656,-5.0 24.6715737885,-6.24730850812 21.550868482,-18.6195891058 21.5097322168,-31.9984416181 24.1419488192,-44.4308566725 24.6945418321,-52.2616944408 " moovel_rot="7.0" moovel_centroid="16.216695516296173,-32.909201776483926"></polygon></g><g transform="translate(282.8231528 2098.9562843) rotate(0)"><polygon id="395655360" class="tile" points="0.107259571552,-1230.30739657 10.1632676739,-1230.43398675 10.178949067,-1235.43650364 10.2038223334,-1240.78502978 10.2272663875,-1246.20090636 10.2485170305,-1251.51509357 10.2717881508,-1256.81607613 10.2881597696,-1262.27816889 10.3541867327,-1269.2141106 9.99047586098,-1269.21251033 10.0273073355,-1279.12378414 6.7498681644,-1279.13579104 3.33061433863,-1279.14636798 3.37287409343,-1278.75417663 3.3670754984,-1274.55724493 0.437006274238,-1274.56159466 0.42644923199,-1269.23552997 0.0,-1269.23784322 0.00402700714767,-1262.07612924 0.0245427757502,-1256.72103478 0.0379863638431,-1251.41215652 0.0538692221045,-1246.02932547 0.0709349988028,-1240.75478606 0.0914503438398,-1235.39969153 0.107259571552,-1230.30739657 " moovel_rot="-81.3" moovel_centroid="5.248381072276963,-1253.95825"></polygon></g><g transform="translate(128.9495569 861.8262047000001) rotate(0)"><polygon id="239492646" class="tile" points="58.6021784045,-822.854425684 73.0847296767,-823.144536042 73.0839723807,-785.003718292 66.5622875351,-787.607327854 57.9853701115,-791.028087645 58.6021784045,-822.854425684 " moovel_rot="-33.6" moovel_centroid="65.9057891906,-805.333635037"></polygon></g><g transform="translate(-69.635817 80.0495904) rotate(0)"><polygon id="299666264" class="tile" points="308.544878198,-5.0 295.760241332,-6.78508966602 292.150695385,-7.0203122519 292.1447784,-40.2123998083 294.733072382,-39.6158630587 296.133019268,-39.6179767333 299.992659882,-38.6983774465 304.003469748,-37.7333457857 308.57230546,-36.9026942238 308.250978306,-28.2488454856 308.020240386,-21.652477609 307.85908649,-16.9929359041 308.544878198,-5.0 " moovel_rot="39.9" moovel_centroid="300.126576641,-22.416465431606234"></polygon></g><g transform="translate(-274.7114074 540.2777501) rotate(0)"><polygon id="442637468" class="tile" points="413.660429075,-478.2359538 418.517580458,-486.434848215 418.551445991,-505.516400453 395.389969735,-506.192414381 395.39851735,-487.023671328 413.660429075,-478.2359538 " moovel_rot="-17.6" moovel_centroid="407.355057582,-494.081374651"></polygon></g><g transform="translate(-4.298234199999996 547.1905916000001) rotate(0)"><polygon id="412099918" class="tile" points="54.5719172735,-478.285252659 69.1042125046,-478.2359538 69.0885210991,-512.365560626 64.5539715737,-512.636330342 54.5496394165,-512.40913397 54.5719172735,-478.285252659 " moovel_rot="-49.0" moovel_centroid="61.8321623346,-495.389638772"></polygon></g><g transform="translate(-304.46182439999995 1708.7691965000001) rotate(0)"><polygon id="185193614" class="tile" points="476.615553514,-1258.79006168 454.285443593,-1258.77994756 454.282612245,-1230.30751221 461.415418477,-1230.30739657 461.415653078,-1240.47921111 476.612957523,-1240.48943304 476.615553514,-1258.79006168 " moovel_rot="5.5" moovel_centroid="464.303525641,-1247.48702969"></polygon></g><g transform="translate(-49.65686200000002 1924.0037287999999) rotate(0)"><polygon id="201150239" class="tile" points="218.712280567,-817.682260924 218.733107728,-785.051546978 196.229300433,-785.003718292 196.220377049,-800.016124891 213.411123132,-800.050873289 213.404156383,-817.679026155 218.712280567,-817.682260924 " moovel_rot="10.7" moovel_centroid="209.339062944,-796.076845704"></polygon></g><g transform="translate(-269.2848156 1617.2359657999998) rotate(0)"><polygon id="335920898" class="tile" points="372.863854012,-480.491100518 372.919139948,-502.44431453 390.316887104,-502.123855111 390.466245149,-500.832991238 390.889546623,-500.254412648 391.616208127,-500.250102044 394.372849534,-500.250858775 394.389969735,-478.252971728 384.770282324,-478.2359538 384.768675258,-480.5161915 372.863854012,-480.491100518 " moovel_rot="6.6" moovel_centroid="383.741275679,-490.682972356"></polygon></g><g transform="translate(-261.3168946 362.6716291) rotate(0)"><polygon id="357540188" class="tile" points="263.887930413,-318.305949077 263.816887681,-308.819526619 272.986848789,-309.184118253 281.899826814,-309.505252179 282.516991894,-312.838295923 282.400560255,-318.546398832 284.232784516,-318.584457505 284.709947801,-317.88551507 285.681515698,-318.496643005 285.656049418,-319.722919761 285.232661456,-319.707553503 285.088552338,-327.110335532 285.507838806,-327.117922615 285.510794393,-328.14032644 284.528559348,-328.568727817 283.858944912,-327.9574616 282.209533464,-327.922431897 282.085812014,-334.032020333 263.821796458,-332.845320685 263.887930413,-318.305949077 " moovel_rot="-27.8" moovel_centroid="273.751583661,-321.406514795"></polygon></g><g transform="translate(-290.60786329999996 1278.3725806999998) rotate(0)"><polygon id="358906395" class="tile" points="584.805168221,-1255.2519025 586.868901484,-1233.35855858 566.083274695,-1230.30739657 566.117678517,-1256.82063909 584.805168221,-1255.2519025 " moovel_rot="30.8" moovel_centroid="575.670457413,-1243.68921368"></polygon></g><g transform="translate(-434.64796449999994 185.2938017) rotate(0)"><polygon id="252080545" class="tile" points="552.810418511,-167.976885701 552.832813548,-137.112292147 527.853187107,-137.106371123 527.831708452,-143.572702193 531.291476796,-143.620463863 531.289569414,-143.144951456 538.751975011,-143.144526304 538.747647043,-148.360002036 524.069136869,-148.357988949 524.064755717,-156.968068966 528.73169595,-156.973030212 531.305244346,-159.764227173 531.302110858,-167.979361158 552.810418511,-167.976885701 " moovel_rot="-86.0" moovel_centroid="540.738234556,-152.564981742"></polygon></g><g transform="translate(-21.76000110000001 1104.8500911) rotate(0)"><polygon id="223631877" class="tile" points="278.33342466,-1093.08692588 278.334248888,-1067.04235258 269.32035134,-1058.70456516 258.839612643,-1070.60597505 267.504513824,-1072.31111264 268.957617141,-1076.24165537 266.287962336,-1079.66695629 265.919776833,-1081.37030984 266.107025822,-1082.15727936 269.603332465,-1082.6539209 268.780876382,-1088.07015746 265.82013908,-1087.62002297 264.739240585,-1088.54236906 264.330693224,-1090.5459761 265.846892028,-1094.29432145 263.590676414,-1097.45635565 278.33342466,-1093.08692588 " moovel_rot="79.1" moovel_centroid="271.347088696,-1077.84707127"></polygon></g><g transform="translate(159.89961979999998 62.8806918) rotate(0)"><polygon id="330741648" class="tile" points="47.1342838693,-5.0 47.1471695339,-49.9969915204 57.0748504892,-51.2423374992 57.0747695144,-14.7243207477 47.1342838693,-5.0 " moovel_rot="60.7" moovel_centroid="51.9356767153,-30.14197995583828"></polygon></g><g transform="translate(-20.236035199999996 1203.7397283) rotate(0)"><polygon id="222912928" class="tile" points="31.006422295,-308.819526619 22.8040324148,-308.833815024 22.7360328283,-355.464877439 31.3370940436,-355.259209481 31.006422295,-308.819526619 " moovel_rot="-88.7" moovel_centroid="26.9686146522,-332.278649285"></polygon></g><g transform="translate(18.9486963 650.1177852) rotate(0)"><polygon id="221112276" class="tile" points="27.1346947327,-642.449920159 8.90743014142,-641.859238649 9.8087070629,-616.990612581 27.1053170092,-617.318470854 27.1346947327,-642.449920159 " moovel_rot="-36.3" moovel_centroid="18.2512549247,-629.764572554"></polygon></g><g transform="translate(-101.69185970000001 168.93945810000002) rotate(0)"><polygon id="295447861" class="tile" points="170.220116943,-161.148780712 170.202396956,-137.106371123 172.665942937,-137.112865747 188.610498659,-137.136491357 188.626024523,-141.295631201 188.410746738,-161.12887623 170.220116943,-161.148780712 " moovel_rot="-66.7" moovel_centroid="179.370536516,-149.103405084"></polygon></g><g transform="translate(-341.0905245 1090.8884491) rotate(0)"><polygon id="185632367" class="tile" points="489.163923601,-1060.25233697 489.156464745,-1058.79888288 492.048020335,-1058.7889989 503.695418353,-1058.722476 507.589638196,-1058.70456516 507.614541952,-1074.36971379 507.622387397,-1082.50271464 489.139819837,-1082.43969404 489.228755824,-1069.01686311 489.163923601,-1060.25233697 " moovel_rot="-49.2" moovel_centroid="498.408009368,-1070.61827628"></polygon></g><g transform="translate(-295.03944809999996 1752.4589689) rotate(0)"><polygon id="429404973" class="tile" points="355.295779985,-806.01695761 335.765111007,-806.063930856 335.768411359,-785.053506128 355.290812537,-785.003718292 355.295779985,-806.01695761 " moovel_rot="-71.2" moovel_centroid="345.530248307,-795.535269059"></polygon></g><g transform="translate(23.3708704 172.46080750000002) rotate(0)"><polygon id="347320680" class="tile" points="162.059399255,-139.224205471 161.219644217,-137.106371123 148.178471343,-141.525206607 148.159701572,-165.722341421 169.202396956,-157.715449051 166.06554734,-149.606348755 164.188336938,-144.73252756 162.059399255,-139.224205471 " moovel_rot="-13.2" moovel_centroid="156.811137414,-151.41736873"></polygon></g><g transform="translate(-228.0334115 166.4470086) rotate(0)"><polygon id="442637471" class="tile" points="356.926422995,-137.123058393 371.076408811,-137.106371123 371.083409825,-160.268424073 349.588038493,-160.294909536 349.582284083,-152.129145825 356.927678207,-152.119348765 356.926422995,-137.123058393 " moovel_rot="-82.5" moovel_centroid="362.341753221,-149.857965901"></polygon></g><g transform="translate(-382.00753169999996 1771.8048526999999) rotate(0)"><polygon id="376403749" class="tile" points="491.03948672,-1259.66904574 477.615553514,-1259.64786914 477.63850412,-1230.30739657 491.063504218,-1230.33516658 491.03948672,-1259.66904574 " moovel_rot="80.9" moovel_centroid="484.339010949,-1244.98967379"></polygon></g><g transform="translate(-109.9233628 1275.9896916) rotate(0)"><polygon id="321207165" class="tile" points="390.528373484,-308.819526619 404.058792302,-308.879707181 404.070483458,-347.062216836 401.967901999,-347.155233495 400.053596984,-347.237495656 400.059991432,-343.607085603 397.911366947,-343.598135797 397.948854049,-324.513744191 390.478048858,-324.50714704 390.624828581,-320.439126853 390.528373484,-308.819526619 " moovel_rot="-81.0" moovel_centroid="398.768683024,-323.816535582"></polygon></g><g transform="translate(230.2467174 1699.0268070000002) rotate(0)"><polygon id="288448678" class="tile" points="16.8909469694,-1058.70456516 31.2370538734,-1059.01861371 31.2141319096,-1082.95012024 15.5793758642,-1083.20536511 15.4265801642,-1080.41286957 15.3674804758,-1067.46519037 15.3173481062,-1065.88319623 16.9246663108,-1065.87040319 16.8909469694,-1058.70456516 " moovel_rot="-29.2" moovel_centroid="23.4905214335,-1071.19960596"></polygon></g><g transform="translate(-506.1223755 1578.009015) rotate(0)"><polygon id="185193615" class="tile" points="512.213110918,-1089.9671192 508.626038435,-1087.23578158 508.622387397,-1058.97967862 521.406562893,-1058.70456516 521.717388334,-1063.66708995 521.897788113,-1076.31716506 512.213110918,-1089.9671192 " moovel_rot="-51.1" moovel_centroid="514.634284449,-1072.13299964"></polygon></g><g transform="translate(-441.25561690000006 1187.3781761) rotate(0)"><polygon id="318665999" class="tile" points="541.794107373,-308.819526619 542.920535627,-308.836043879 543.54779549,-308.845449764 544.304504426,-308.848480713 545.963094828,-308.877276016 545.966751928,-328.151842815 545.887493032,-350.459880828 539.061201059,-350.447867153 539.182288909,-339.70186543 541.234467434,-339.721240301 541.27120263,-336.68046892 539.219024082,-336.661094203 539.341094951,-325.995159211 541.216275668,-326.022344306 541.251498145,-323.336609607 538.903544054,-323.306446429 538.998508048,-314.9722164 541.725495472,-314.999559932 541.794107373,-308.819526619 " moovel_rot="8.9" moovel_centroid="542.780186873,-330.56789035"></polygon></g><g transform="translate(3.8458903000000078 338.468333) rotate(0)"><polygon id="442637487" class="tile" points="231.572567995,-332.575986403 218.138485842,-332.598073996 218.128537306,-308.83593854 231.553162323,-308.819526619 231.572567995,-332.575986403 " moovel_rot="-83.7" moovel_centroid="224.847922531,-320.70877659"></polygon></g><g transform="translate(148.9667201 2397.3961715) rotate(0)"><polygon id="442637491" class="tile" points="79.9108385591,-1344.37244284 93.3135382777,-1331.38279297 85.4746790146,-1309.40092019 79.9099224752,-1310.99327018 79.9108385591,-1344.37244284 " moovel_rot="-37.7" moovel_centroid="84.8075359588,-1326.21694724"></polygon></g><g transform="translate(-321.9088135 553.930829) rotate(0)"><polygon id="442637485" class="tile" points="334.990581525,-308.825503726 334.995459344,-336.818015084 324.41369429,-336.81203103 324.408815496,-308.819526619 334.990581525,-308.825503726 " moovel_rot="8.0" moovel_centroid="329.702137882,-322.8187689"></polygon></g><g transform="translate(-19.149112799999997 636.8214641) rotate(0)"><polygon id="246731436" class="tile" points="101.703645426,-5.03070196807 101.69977032,-23.1580956014 118.464946715,-23.1273891842 118.468836015,-5.0 101.703645426,-5.03070196807 " moovel_rot="-72.6" moovel_centroid="110.084299274,-14.079045409926255"></polygon></g><g transform="translate(-338.3505049 804.2058827999999) rotate(0)"><polygon id="222912942" class="tile" points="382.395134891,-344.423248807 389.423271974,-344.37244003 389.478048858,-308.819526619 382.142615392,-309.055920686 382.395134891,-344.423248807 " moovel_rot="-87.2" moovel_centroid="385.862443024,-326.541077775"></polygon></g><g transform="translate(106.59541580000001 1306.3843811) rotate(0)"><polygon id="292846303" class="tile" points="171.082749122,-1230.30739657 183.309047681,-1230.37174284 183.246099622,-1242.19022479 183.895903197,-1242.19489618 183.84475621,-1253.00570716 183.892945603,-1253.90041759 182.80212861,-1253.89690941 176.377908855,-1253.85984707 176.395055872,-1250.88693931 170.980338236,-1250.85785356 171.037380168,-1244.68932718 171.068159301,-1236.12230104 171.082749122,-1230.30739657 " moovel_rot="-28.7" moovel_centroid="177.517722311,-1241.67347759"></polygon></g><g transform="translate(115.8596229 890.5649975000001) rotate(0)"><polygon id="292846308" class="tile" points="62.23507408,-332.10971877 74.2905875979,-332.104729481 74.2864731831,-317.245818041 74.2893367799,-308.819526619 62.4024390409,-309.032268588 62.2359654618,-311.735304607 62.2313310796,-316.507525248 62.240701426,-327.256628134 62.23507408,-332.10971877 " moovel_rot="-29.0" moovel_centroid="68.2760534667,-320.525283567"></polygon></g><g transform="translate(-247.1443329 28.9224256) rotate(0)"><polygon id="319966214" class="tile" points="264.165192008,-5.04504207335 264.170894957,-25.3133626997 255.108537294,-25.288047554 249.644479022,-18.7398947928 249.644334894,-5.0 264.165192008,-5.04504207335 " moovel_rot="59.2" moovel_centroid="257.257061794,-14.645897943872288"></polygon></g><g transform="translate(-109.57049289999999 908.8412675) rotate(0)"><polygon id="185193605" class="tile" points="157.025710898,-498.376935886 170.798215459,-478.2359538 172.333249162,-478.65966579 172.336989462,-508.455032407 157.025710898,-498.376935886 " moovel_rot="38.1" moovel_centroid="167.193738952,-494.412822218"></polygon></g><g transform="translate(113.71779450000002 524.4517438) rotate(0)"><polygon id="299854203" class="tile" points="156.002904548,-508.340844656 151.4471816,-515.346435409 149.919062781,-511.676609534 148.015562549,-501.051991597 147.856135866,-489.414824669 149.311080221,-480.267211837 156.025710898,-478.2359538 154.722842786,-482.515673237 154.103402778,-488.759110346 154.04838714,-496.273289732 154.448304807,-501.541436644 156.002904548,-508.340844656 " moovel_rot="-9.2" moovel_centroid="151.592826255,-496.084245086"></polygon></g><g transform="translate(-508.7224191 646.7745692) rotate(0)"><polygon id="252080063" class="tile" points="569.328035382,-641.333131196 569.332442609,-625.515185452 569.33835257,-617.000169706 564.730799872,-616.991590369 559.807237763,-616.990612581 559.805671271,-641.32299285 569.328035382,-641.333131196 " moovel_rot="-93.8" moovel_centroid="564.569273593,-629.15901993"></polygon></g><g transform="translate(-203.271751 552.8578248) rotate(0)"><polygon id="194665127" class="tile" points="475.832332947,-161.254917418 482.163194166,-161.246674026 482.16156098,-137.106371123 479.963325507,-137.109511008 477.369559401,-137.111084131 474.916700945,-137.109365026 472.340426823,-137.11219199 472.339678953,-156.25687938 475.830426742,-156.252639637 475.832332947,-161.254917418 " moovel_rot="-85.9" moovel_centroid="477.502539658,-148.420713504"></polygon></g><g transform="translate(-214.229096 1297.8413544) rotate(0)"><polygon id="220792590" class="tile" points="386.262164274,-789.104014788 379.924221613,-785.003718292 380.728834167,-795.415107217 380.700023926,-806.91179251 379.881049471,-815.153088514 385.391950519,-821.330892233 386.992015649,-810.00421478 386.606823624,-796.531811701 386.262164274,-789.104014788 " moovel_rot="59.9" moovel_centroid="383.524888323,-802.971416527"></polygon></g><g transform="translate(28.289544500000005 1315.9853156) rotate(0)"><polygon id="240073954" class="tile" points="72.9720126376,-1081.98309324 64.5376216363,-1082.01575382 64.5247038092,-1058.73721331 69.4252031144,-1058.71720153 72.9591016132,-1058.70456516 72.9720126376,-1081.98309324 " moovel_rot="-28.7" moovel_centroid="68.7483645038,-1070.35989411"></polygon></g><g transform="translate(56.30492939999999 1686.8268736999999) rotate(0)"><polygon id="221190745" class="tile" points="126.201447651,-785.003718292 126.192729351,-804.33315954 132.565319643,-804.303248087 139.344812479,-790.931440698 126.201447651,-785.003718292 " moovel_rot="0.6" moovel_centroid="131.111432719,-795.035454943"></polygon></g><g transform="translate(-414.2354436 1251.836595) rotate(0)"><polygon id="285497395" class="tile" points="423.195114342,-616.990612581 419.477262878,-617.406095094 416.748729807,-617.71215435 416.735454606,-638.46617983 425.373137354,-637.576651715 425.275415465,-636.306316532 425.152693975,-634.694185452 424.651695475,-630.161286407 424.158000543,-625.707117449 423.671609198,-621.331678763 423.195114342,-616.990612581 " moovel_rot="-5.3" moovel_centroid="420.563120869,-628.195076721"></polygon></g><g transform="translate(-315.0365027 1971.4670551) rotate(0)"><polygon id="331120032" class="tile" points="396.720000598,-1241.03271552 396.983682861,-1231.33809479 388.354983199,-1230.30739657 386.623380835,-1246.53049092 397.006944952,-1247.11735584 396.720000598,-1241.03271552 " moovel_rot="87.3" moovel_centroid="392.131621228,-1239.05141611"></polygon></g><g transform="translate(-382.7810326 762.2988597) rotate(0)"><polygon id="375468810" class="tile" points="445.921179896,-148.049348097 445.930172071,-137.106371123 435.879091712,-137.563540649 436.425187884,-148.751605153 445.921179896,-148.049348097 " moovel_rot="-92.3" moovel_centroid="441.017219007,-142.8171917"></polygon></g></g><g transform="translate(0 1260.6000000000001)"><polygon id="8" class="bin" points="301.874999,3.75 300.776649429,1.09834957055 298.124999,0.0 1.875,0.0 -0.77665042945,1.09834957055 -1.875,3.75 -1.875,1142.75 -0.77665042945,1145.40165043 1.875,1146.5 298.124999,1146.5 300.776649429,1145.40165043 301.874999,1142.75 301.874999,3.75 " moovel_rot="0" moovel_centroid="149.99999949999997,573.2499999999999" transform="translate(1.875 0)"></polygon><g transform="translate(-403.4744377 2197.7091842) rotate(0)"><polygon id="301013827" class="tile" points="407.182097546,-1058.70456516 405.953541306,-1058.77921122 411.148071216,-1098.71326068 405.957536673,-1102.32515536 408.320106961,-1108.85221685 418.440417811,-1102.52958406 417.166083148,-1099.42516579 420.14273755,-1098.54922848 416.360351549,-1071.66431375 415.681119017,-1067.29038359 415.369297107,-1065.55374777 414.902569905,-1064.34841749 413.988523408,-1063.56745342 412.097445718,-1062.71512884 409.563689125,-1061.42308824 408.289079307,-1060.24277226 407.182097546,-1058.70456516 " moovel_rot="-91.3" moovel_centroid="412.834153765,-1084.53667928"></polygon></g><g transform="translate(-286.97619699999996 1874.6685017) rotate(0)"><polygon id="299598641" class="tile" points="291.461695668,-812.816466132 295.652104007,-812.499128886 298.234852757,-812.097061555 300.733933949,-811.710518577 308.663220994,-810.991253949 308.325126682,-807.481809269 307.73060632,-807.547226482 307.494824713,-805.09494024 308.047511576,-805.037285448 306.877473489,-792.845758124 308.676472769,-792.671898575 307.937991032,-785.003718292 300.990804098,-785.668417998 301.742641418,-793.481444858 289.46187329,-794.208375652 291.461695668,-812.816466132 " moovel_rot="-48.8" moovel_centroid="299.864591182,-800.768736403"></polygon></g><g transform="translate(-417.05145330000005 1536.0476218000001) rotate(0)"><polygon id="323057184" class="tile" points="419.56622228,-504.181871878 419.551445991,-484.873935423 430.723770304,-484.879864896 430.711404856,-478.2359538 436.612250848,-478.240181237 436.622589142,-487.162466865 441.424922219,-487.166940349 441.425633923,-490.18633821 439.750862438,-490.183618164 439.763677341,-497.420583402 429.769945995,-497.41706052 429.772319817,-504.183641494 419.56622228,-504.181871878 " moovel_rot="82.3" moovel_centroid="429.118073335,-492.024660841"></polygon></g><g transform="translate(19.9290423 2197.7046041) rotate(0)"><polygon id="330741680" class="tile" points="0.0,-1087.00366061 0.0107087608427,-1058.74968131 13.3173481062,-1058.70456516 13.3051199589,-1086.96945384 0.0,-1087.00366061 " moovel_rot="-29.4" moovel_centroid="6.658722192723983,-1072.85657083"></polygon></g><g transform="translate(-335.507061 1583.9599671) rotate(0)"><polygon id="179004872" class="tile" points="371.863854012,-478.866612112 362.192189817,-478.2359538 362.197953287,-515.516883477 371.609466612,-515.224771298 371.863854012,-478.866612112 " moovel_rot="55.6" moovel_centroid="366.946325011,-496.876049753"></polygon></g><g transform="translate(-84.4324916 2293.618148) rotate(0)"><polygon id="309141147" class="tile" points="108.498250484,-1267.30285126 112.033840191,-1271.79242088 118.745257021,-1266.82974531 123.240925471,-1260.86989761 125.054013195,-1251.0383135 123.050808775,-1240.8111436 116.953308162,-1232.73290751 112.745058682,-1230.30739657 108.484188324,-1234.42406555 111.291262116,-1237.56393703 114.410235246,-1240.77426512 116.441613575,-1245.15355311 118.188837114,-1249.55518111 116.342934356,-1254.8193673 114.162236789,-1259.45861467 111.390479253,-1263.55047896 108.498250484,-1267.30285126 " moovel_rot="-20.6" moovel_centroid="117.565979472,-1251.16300381"></polygon></g><g transform="translate(-471.86780949999996 1232.7100567) rotate(0)"><polygon id="294248636" class="tile" points="523.064755717,-174.334642806 516.477797147,-175.014811843 513.11514702,-175.363090837 513.171826632,-170.687826248 513.163385964,-152.561651562 513.154081936,-137.711868429 515.255624884,-137.556328341 521.304879798,-137.106371123 523.064755717,-174.334642806 " moovel_rot="-37.1" moovel_centroid="517.682110999,-156.738815998"></polygon></g><g transform="translate(-388.1299487 1749.0101350999998) rotate(0)"><polygon id="314283721" class="tile" points="442.804247561,-616.990612581 426.373137354,-617.062684008 426.380517573,-622.261395635 426.541060212,-627.104083212 426.533217534,-632.261642007 427.594450182,-632.261993971 427.577724016,-640.360329724 442.777129279,-639.827059831 442.804247561,-616.990612581 " moovel_rot="-20.3" moovel_centroid="434.783183541,-628.362342955"></polygon></g><g transform="translate(-247.8638229 1669.7732118) rotate(0)"><polygon id="286996655" class="tile" points="308.734486718,-617.046140034 293.445427293,-616.990612581 293.428938479,-640.926090481 303.16488041,-640.963335514 308.721232896,-640.987461464 308.734486718,-617.046140034 " moovel_rot="60.8" moovel_centroid="301.082805178,-628.98754291"></polygon></g><g transform="translate(-367.6691928 1164.3520174) rotate(0)"><polygon id="327029576" class="tile" points="387.219290533,-137.106371123 387.10412733,-142.326582867 387.182273502,-160.612672735 381.78674008,-160.636880512 380.877219061,-160.729935167 372.184997594,-160.762592699 372.107843602,-142.454416404 372.102566125,-141.517541649 372.090586656,-139.324144088 372.083409825,-137.961071936 376.199702203,-137.729225866 377.475516936,-137.661363689 379.760792199,-137.527694054 387.219290533,-137.106371123 " moovel_rot="-34.6" moovel_centroid="379.677571289,-149.106473085"></polygon></g><g transform="translate(-447.2215384 1502.0570975) rotate(0)"><polygon id="185632364" class="tile" points="480.525186232,-495.360212376 480.528702335,-501.70843978 489.941493531,-501.797778219 489.929754086,-498.979482848 499.344889257,-498.914727966 499.287084634,-478.2359538 490.960525098,-478.29106762 485.363433318,-478.333054903 485.409810703,-495.326945171 480.525186232,-495.360212376 " moovel_rot="-50.4" moovel_centroid="491.29428139,-490.001972138"></polygon></g><g transform="translate(-273.3215897 1242.4316462000002) rotate(0)"><polygon id="307958486" class="tile" points="330.663741849,-137.106371123 328.029504638,-141.511800841 331.273611717,-143.715571493 328.912696951,-147.157261878 332.596527026,-149.27794323 328.037795843,-157.060471606 334.941109767,-161.398504825 332.731068042,-164.883214372 336.604886546,-167.289901216 348.582284083,-147.974277552 331.301462481,-137.495570805 330.663741849,-137.106371123 " moovel_rot="-10.7" moovel_centroid="337.009492689,-151.395630577"></polygon></g><g transform="translate(-217.4855101 2254.1901927999997) rotate(0)"><polygon id="298607593" class="tile" points="275.012238245,-1230.30739657 287.314014706,-1233.63018225 292.70588604,-1235.08268808 285.855235122,-1258.22094861 276.055147935,-1255.53146433 275.304169501,-1253.06067255 274.511867908,-1250.46861325 276.293651394,-1244.13715308 280.347532458,-1245.2757179 280.711784456,-1243.9860164 283.328030305,-1234.64056717 274.489866638,-1232.16258759 275.012238245,-1230.30739657 " moovel_rot="63.3" moovel_centroid="283.454150642,-1245.13984983"></polygon></g><g transform="translate(-182.8821568 1273.7063035) rotate(0)"><polygon id="223868481" class="tile" points="253.011388957,-137.653758961 242.656721401,-137.106371123 242.529888419,-164.04699776 253.037899505,-164.083378011 253.011388957,-137.653758961 " moovel_rot="-81.8" moovel_centroid="247.792128348,-150.75464019"></polygon></g><g transform="translate(-378.6002062 1691.1422503) rotate(0)"><polygon id="299906170" class="tile" points="454.075394222,-646.226220101 451.165115123,-653.858677056 447.847645238,-648.347842279 446.987426753,-646.924423633 444.445929455,-638.788268377 443.804247561,-629.927851367 444.8200481,-623.620726879 446.217995029,-618.590947011 447.129651391,-617.026213636 454.082779712,-616.990612581 452.495751347,-620.708965644 451.24843826,-624.741326303 450.519499063,-628.276877806 450.530572229,-632.047865716 450.728660598,-636.236743028 451.908101651,-640.707538453 454.075394222,-646.226220101 " moovel_rot="53.7" moovel_centroid="448.631538791,-633.831386325"></polygon></g><g transform="translate(-95.8527529 1783.6903999) rotate(0)"><polygon id="376406583" class="tile" points="125.192729351,-802.449137384 109.322918716,-802.071424424 110.040480303,-785.003718292 125.183739201,-785.238823419 125.192729351,-802.449137384 " moovel_rot="82.7" moovel_centroid="117.443244188,-793.758131011"></polygon></g><g transform="translate(-93.59067909999999 1135.6923027) rotate(0)"><polygon id="299906179" class="tile" points="138.887220692,-142.6568194 147.159701572,-137.106371123 146.196161972,-140.266601502 145.001447253,-148.485650299 145.272590864,-157.475718579 147.147618615,-165.864110533 142.150400313,-171.646034417 140.858211948,-167.08984693 139.397689534,-161.382538638 138.58823145,-155.709807011 138.417572921,-150.812857707 138.152600733,-147.576015951 138.887220692,-142.6568194 " moovel_rot="-12.6" moovel_centroid="142.497637675,-154.214312776"></polygon></g><g transform="translate(20.845929000000005 2219.9028824) rotate(0)"><polygon id="309141142" class="tile" points="35.7368999222,-1230.85427751 37.0342163064,-1234.8012415 40.6093770588,-1235.08889211 43.9258729242,-1236.34281652 46.1929229669,-1238.31431105 47.6549928032,-1241.29625514 47.6269111577,-1243.89390553 46.8871650511,-1246.42548234 44.0613176605,-1249.15055726 41.2701010019,-1250.36253976 38.2777831474,-1250.65939125 35.7184506794,-1254.56925394 38.0134740405,-1255.02711738 40.6180970863,-1255.05160247 43.092280909,-1254.44866624 45.775107378,-1253.5011742 47.8680456033,-1252.05674546 49.6511048332,-1250.04977624 50.8948940685,-1247.99941759 51.7348926645,-1245.38777496 52.0722572135,-1242.2774009 51.6465261357,-1239.74018256 50.5373120902,-1236.78662765 48.924967712,-1234.50646501 46.6579177676,-1232.53496925 43.9954230526,-1230.98113302 41.4415266892,-1230.32617457 39.017364805,-1230.30739657 35.7368999222,-1230.85427751 " moovel_rot="4.6" moovel_centroid="44.8842212841,-1242.47630104"></polygon></g><g transform="translate(-290.3583092 1113.8861095) rotate(0)"><polygon id="201148568" class="tile" points="292.885032906,-156.675880153 292.858295054,-137.106371123 307.706061551,-137.360783506 307.61345896,-142.333551469 303.899364176,-142.269557078 303.792218611,-148.156138671 298.213639031,-148.052006912 298.059670389,-156.550466152 295.902631527,-156.599722606 292.885032906,-156.675880153 " moovel_rot="-79.7" moovel_centroid="298.416191121,-144.716212428"></polygon></g><g transform="translate(-138.89173269999998 1285.1045522) rotate(0)"><polygon id="275739630" class="tile" points="179.550038353,-314.866066817 179.540348725,-308.819526619 166.186767716,-308.870151961 166.194239694,-312.150938855 166.213457177,-331.904521475 169.215639525,-331.895098563 169.200974843,-314.901011575 179.550038353,-314.866066817 " moovel_rot="-69.6" moovel_centroid="170.86974789,-316.335563845"></polygon></g></g></svg>