<svg xmlns="http://www.w3.org/2000/svg" version="1.1" width="592.5px" height="1200px">
  <polygon id="1" class="bin" points="-1.875,0.0 0.77665042945,1.09834957055 1.875,3.75 1.875,1203.749999 0.77665042945,1206.40164943 -1.875,1207.499999 -298.124999,1207.499999 -300.776649429,1206.40164943 -301.874999,1203.749999 -301.874999,1179.46215881 -301.086267571,1177.16142231 -299.051858493,1175.82850618 -296.627559702,1176.0241106 -296.314690026,1176.16038075 -296.132860549,1176.24543681 -289.687545467,1179.47342419 -289.212719438,1179.75682752 -283.676589422,1183.64182631 -278.606120886,1184.77553707 -278.376702181,1184.73569363 -273.223527747,1180.47761896 -272.493649877,1178.54793049 -272.088261231,1176.84665597 -268.730555758,1145.36110773 -268.686008599,1145.0599318 -267.026759094,1136.31220234 -266.086181308,1134.45477915 -238.975696042,1105.3559989 -238.924435188,1105.30206156 -230.696584352,1096.81485183 -229.076462407,1093.14244001 -230.030008993,1089.98545472 -233.412222339,1087.82396528 -250.749880366,1084.05142526 -257.05085886,1085.97041733 -267.60441522,1096.95730869 -267.720053471,1097.08069739 -277.580006642,1107.86429563 -277.863502564,1108.19478351 -280.410895376,1111.36213675 -282.875524005,1112.73392101 -285.599016161,1111.99990683 -292.42933958,1106.82007021 -293.877299354,1104.351094 -293.161634402,1101.57976675 -272.44096156,1073.9969609 -271.450830586,1070.22695516 -270.729837824,1068.80937108 -270.612014304,1068.66490986 -270.004062019,1068.07171352 -268.243378887,1066.70632037 -266.142520049,1063.40258955 -266.62345693,1059.51711083 -268.164431221,1056.46786843 -268.428451367,1055.78831187 -269.236973016,1052.90296994 -269.363254325,1051.58147188 -269.106484463,1048.48258906 -269.128516311,1047.12590554 -269.302352227,1045.62288525 -274.065098949,1039.96218945 -276.198056271,1039.33261323 -277.297761975,1038.80053556 -279.77411752,1037.05404897 -281.339494097,1033.57192754 -281.323554551,1033.42968278 -283.528814502,1030.12750756 -300.339739835,1017.82402966 -301.874999,1014.79790622 -301.874999,1007.60290615 -301.171976813,1005.41694499 -300.196125867,1004.05672129 -298.377267866,994.258040235 -298.372133255,994.230934713 -292.960577777,966.227112936 -292.928765919,966.050092699 -289.419971466,944.942653199 -289.386678238,944.719871359 -286.644958624,924.064038434 -286.62823015,923.927557437 -283.851324633,899.228898629 -283.838432728,899.103965869 -283.07101511,890.937122918 -283.052215431,890.688873663 -282.339980555,878.310914167 -282.335114002,878.214552343 -281.331917917,855.136792411 -281.326339572,854.949958056 -280.60765148,810.736979557 -281.159711895,807.928470119 -283.444803455,802.589909983 -283.746649812,801.186249447 -284.131191999,781.154704925 -284.129433165,780.94720844 -283.982047807,776.871592871 -283.899060981,776.211203749 -283.617970491,774.91699587 -283.474903726,773.031579814 -284.836976349,751.231250225 -284.705536602,749.986821675 -284.045412416,747.62791294 -283.809825662,745.278946926 -290.311374602,656.306463693 -290.319952691,656.135408154 -291.957046825,596.112993438 -291.958250849,596.048502854 -292.391997641,552.965044957 -291.321412511,550.303507147 -288.682838115,549.177513725 -267.051117985,548.943009531 -262.94292805,547.145877804 -262.466573006,545.862334413 -260.51243055,543.757688424 -258.16479334,542.682441746 -256.570772805,538.729729853 -256.458231614,512.780448402 -256.405235526,512.168283016 -255.397518277,506.240008067 -255.300341146,505.089181157 -255.278929756,305.171730916 -256.491703666,301.620032605 -259.074646071,299.91506485 -262.817179147,300.195827421 -272.439941446,304.310120387 -273.941311423,304.611965006 -285.18630959,304.530626816 -287.512702841,303.700220789 -288.817911453,301.603053601 -288.535609029,299.149080277 -234.734342371,187.816098707 -234.479176721,183.432544255 -237.393871803,180.148459644 -299.765930384,149.795346365 -301.874999,146.423426409 -301.874999,135.920680033 -300.776131442,133.268511717 -298.123534053,132.170680319 -240.291278619,132.193272646 -236.228772681,130.513113953 -234.542957292,126.452952108 -234.422541736,6.29751469971 -234.883444119,5.18211491724 -234.53480081,1.66528550392 -231.417676259,0.0 -1.875,0.0 " moovel_rot="0" moovel_centroid="-134.939306357066,619.7016702188297" moovel_centroidlatlon="0,0"/>
  <polygon id="35969861" class="tile" points="58.1098531112,1281.81185019 58.1379361928,1242.45905914 36.2801499102,1242.35563078 36.2819526117,1238.24444055 29.897328905,1238.2123485 29.9109475028,1218.39369568 35.0544504687,1218.41920904 35.0560480952,1217.7707449 35.0699194778,1201.16703115 1.04266536459,1201.0 1.0,1263.34956687 7.17952794954,1263.38036546 7.16817061156,1281.5701027 58.1098531112,1281.81185019 " moovel_rot="44.6" moovel_centroid="25.62422836260637,1246.1976442762068" moovel_centroidlatlon="-122.41028820661231,37.78052108158049"/>
  <polygon id="388709129" class="tile" points="59.1535848238,1202.88484649 67.8301403299,1201.21434397 72.8428070646,1201.0 73.5283895973,1225.7561141 59.1379361928,1226.05755113 59.1535848238,1202.88484649 " moovel_rot="-1.2" moovel_centroid="66.2503779576,1213.8969557987273" moovel_centroidlatlon="-122.44796682350419,37.72689940790185"/>
  <polygon id="32775050" class="tile" points="74.5283895973,1201.0 74.530048262,1222.41816848 78.2646525431,1222.41872788 78.2629938874,1201.00055911 74.5283895973,1201.0 " moovel_rot="1.3" moovel_centroid="76.3965210767,1211.7093638646425" moovel_centroidlatlon="-122.45257779999999,37.7942784"/>
  <polygon id="257816320" class="tile" points="93.4898155078,1201.00194346 93.4767941587,1223.10065486 91.2665237986,1223.09805665 91.2653543688,1227.49915237 83.22515499,1227.49679273 83.230239201,1220.85186243 79.2646525431,1220.85487716 79.273754929,1201.0 93.4898155078,1201.00194346 " moovel_rot="-85.6" moovel_centroid="86.6004274254,1213.1658178837415" moovel_centroidlatlon="-122.4202853932098,37.75195586400949"/>
  <polygon id="25169841" class="tile" points="94.4970886137,1201.0 102.642330764,1201.00824983 102.635483231,1229.26321689 94.4898155078,1229.263368 94.4970886137,1201.0 " moovel_rot="2.9" moovel_centroid="98.5659777022,1215.1338310079364" moovel_centroidlatlon="-122.42130145292587,37.76522397342619"/>
  <polygon id="388983619" class="tile" points="103.642735299,1208.96355356 103.642330764,1201.0551005 107.723355932,1201.0 107.826695162,1208.5269813 103.642735299,1208.96355356 " moovel_rot="-1.6" moovel_centroid="105.692147772,1204.9038170606732" moovel_centroidlatlon="-122.44834693118615,37.73386637360767"/>
  <polygon id="109022550" class="tile" points="135.054363831,1267.17242297 135.114060617,1201.0 127.721617615,1205.10014579 108.826695162,1204.97184979 109.358280222,1266.92092162 135.054363831,1267.17242297 " moovel_rot="-62.3" moovel_centroid="122.189239227,1235.6336043642696" moovel_centroidlatlon="-122.36872145609519,37.81921250592145"/>
  <polygon id="194910040" class="tile" points="136.114060617,1250.98523379 136.18622098,1204.34863204 138.773414656,1202.14567443 162.231685763,1201.0 162.423819289,1214.8265916 156.464569658,1214.94603629 156.53077712,1218.29325723 145.975575283,1218.54770639 146.030731921,1249.20707338 156.419447703,1249.57952513 156.423238429,1253.82642828 161.858282681,1254.08169254 162.388905233,1271.86450661 136.114060617,1250.98523379 " moovel_rot="-87.1" moovel_centroid="147.51481332,1230.557116510528" moovel_centroidlatlon="-122.42891800776079,37.730530294955386"/>
  <polygon id="151183383" class="tile" points="209.206401555,1262.61840435 204.090926683,1212.33425927 166.606707876,1201.0 163.423819289,1210.5667628 163.448051692,1294.23556739 171.22468682,1293.72229348 170.22053966,1266.97063117 209.206401555,1262.61840435 " moovel_rot="73.5" moovel_centroid="182.890490916,1239.6505758484445" moovel_centroidlatlon="-122.39956081341971,37.72985302564757"/>
  <polygon id="142843006" class="tile" points="210.206401555,1201.0 210.214030496,1242.90871229 239.813272911,1242.9307963 239.805645479,1201.02206678 210.206401555,1201.0 " moovel_rot="5.0" moovel_centroid="225.009838625,1221.965393664662" moovel_centroidlatlon="-122.39209735000001,37.7659711"/>
  <polygon id="247757132" class="tile" points="249.4354879,1210.48094231 249.433691102,1201.21748405 256.346037938,1201.1309485 263.094786099,1201.0 263.095194738,1259.07055772 249.308773732,1259.33029962 249.280612366,1258.02308264 249.199870579,1241.63178214 241.025036576,1241.74118935 240.813272911,1230.96137425 249.691325434,1230.81402574 249.479889778,1219.74394034 259.011583197,1219.37578801 258.853794059,1214.85592323 249.469494546,1215.20533122 249.4354879,1210.48094231 " moovel_rot="-81.6" moovel_centroid="255.148895031,1231.5680921752157" moovel_centroidlatlon="-122.41263253228523,37.78817014077898"/>
  <polygon id="222868623" class="tile" points="282.156231467,1234.75175446 282.174412557,1216.27253942 264.095194738,1216.27198358 264.108371785,1201.00202681 286.652746958,1201.0 286.620312046,1234.76248667 282.156231467,1234.75175446 " moovel_rot="-85.4" moovel_centroid="277.118506244,1211.8997938406533" moovel_centroidlatlon="-122.43462301333346,37.76172546976272"/>
  <polygon id="26766090" class="tile" points="354.932659646,1201.0 337.149476207,1210.07854927 314.409327938,1230.25590563 304.392670595,1245.95783524 290.823162223,1277.08399893 287.652746958,1306.29507032 289.223667139,1334.83321357 302.387149562,1368.1947955 315.410396965,1389.9737562 331.036558839,1409.10055292 357.022289494,1428.07933107 359.935326065,1418.97229579 336.744345401,1400.62016789 322.177607024,1380.58035096 312.960332509,1364.47489745 303.113426658,1333.0852699 300.211064548,1313.83090879 301.858566775,1296.74602165 305.968686749,1280.9677335 315.85893225,1256.89089772 327.920328424,1236.78497015 359.77144756,1210.44532355 354.932659646,1201.0 " moovel_rot="9.1" moovel_centroid="315.255823999,1305.2340779000847" moovel_centroidlatlon="-122.449316141325,37.80289339466142"/>
  <polygon id="380426665" class="tile" points="365.14630302,1219.06238382 360.955083657,1219.02183454 360.935326065,1201.0 364.013790669,1201.02373655 364.005038251,1202.4552325 373.520945777,1202.52931557 373.4121956,1214.67143659 370.615281348,1214.64397522 370.51112355,1218.94667963 365.14630302,1219.06238382 " moovel_rot="-81.2" moovel_centroid="366.785617087,1210.153201696161" moovel_centroidlatlon="-122.44920402777974,37.76861364506545"/>
  <polygon id="436478195" class="tile" points="404.720798818,1201.0 404.869972371,1302.22017896 403.432441781,1304.04336072 398.62198968,1305.11781416 374.520945777,1292.39710192 379.379574992,1282.00566887 382.06585548,1282.83157494 385.198320325,1276.53147583 383.098252372,1275.49025404 386.024073787,1267.80591714 382.238706741,1249.07520701 404.720798818,1201.0 " moovel_rot="33.8" moovel_centroid="394.710401196,1263.1220451855631" moovel_centroidlatlon="-122.39627984028854,37.79706514737146"/>
  <polygon id="154647391" class="tile" points="434.868968716,1201.13466685 405.885398035,1201.0 405.869972371,1240.38811512 423.07730002,1240.46501568 423.082977564,1221.44009276 434.865107937,1221.49195112 434.868968716,1201.13466685 " moovel_rot="44.9" moovel_centroid="418.26973018,1218.2644335264567" moovel_centroidlatlon="-122.42027420660983,37.77384515552251"/>
  <polygon id="256785001" class="tile" points="450.43104568,1231.0423959 450.719477842,1201.43177991 435.868968716,1201.0 435.882963564,1230.84211201 450.43104568,1231.0423959 " moovel_rot="-85.5" moovel_centroid="443.216579565,1216.027731157926" moovel_centroidlatlon="-122.43368066932477,37.750687304954276"/>
  <polygon id="25821951" class="tile" points="461.345386571,1257.97752302 482.741047982,1257.9921413 482.686349654,1201.1552992 451.758737874,1201.0 451.719477842,1233.95132359 461.379383403,1233.96096702 461.345386571,1257.97752302 " moovel_rot="-85.7" moovel_centroid="468.830629855,1227.0620444664346" moovel_centroidlatlon="-122.41575273615186,37.764283233928154"/>
  <polygon id="32775555" class="tile" points="490.46106006,1202.14106396 492.68990192,1201.0 495.898616635,1205.99735164 500.06883916,1212.29011135 503.930737644,1218.11837186 512.65580203,1228.39740033 516.766541575,1233.24371492 517.310188801,1255.34103113 515.51564077,1256.49760956 510.982298101,1258.74286858 509.98381541,1261.28212642 509.48650851,1264.45118143 507.295277229,1267.47896777 503.092158945,1270.40071705 497.414297633,1271.28811556 493.431876007,1270.56501785 489.568320382,1267.51661997 485.912251489,1263.99730046 483.741047982,1260.23284341 483.797560088,1210.37015387 486.557642001,1205.40276359 490.46106006,1202.14106396 " moovel_rot="70.4" moovel_centroid="498.151330272,1239.6052477970939" moovel_centroidlatlon="-122.51188816643678,37.778863447792354"/>
  <polygon id="200033114" class="tile" points="518.310188801,1239.87322597 518.330605259,1201.0 539.453763032,1216.54053413 533.801083398,1224.2079295 528.459685474,1220.47299002 521.32519242,1230.87865114 527.437866309,1235.12226775 526.497559058,1236.49140038 527.675854969,1237.37862599 519.766101219,1240.96648535 518.310188801,1239.87322597 " moovel_rot="-82.3" moovel_centroid="525.052184433,1219.543488328644" moovel_centroidlatlon="-122.43593624456967,37.72367333858575"/>
  <polygon id="170806683" class="tile" points="540.453763032,1201.03916576 565.980027715,1201.0 565.998565019,1228.115519 561.167894086,1228.12355892 561.1679052,1232.61774023 544.468632213,1232.64153153 544.473123574,1228.01960198 540.469149535,1228.01941159 540.453763032,1201.03916576 " moovel_rot="-7.0" moovel_centroid="553.193163113,1216.1151181079101" moovel_centroidlatlon="-122.48104189625107,37.78988516279902"/>
  <polygon id="31759376" class="tile" points="25.5062764071,1496.3021471 27.0842669506,1480.55602409 27.602586899,1464.45901946 27.6441876367,1463.12485058 27.3256168641,1453.98163584 27.105247204,1447.82246816 25.7071973797,1432.26229197 0.0,1428.07933107 1.33421061784,1445.67837721 1.94180958308,1461.36860406 1.43171879277,1477.65779669 0.0490822277963,1492.15542881 25.5062764071,1496.3021471 " moovel_rot="-36.2" moovel_centroid="14.026916489791265,1462.30601796" moovel_centroidlatlon="-122.39184088023177,37.79006970664846"/>
  <polygon id="257593328" class="tile" points="31.389585397,1503.96720117 35.6659325153,1507.67068315 34.7500516742,1499.58430061 33.9140612535,1488.28324276 33.5248799719,1476.42778409 33.4827084243,1465.06239057 33.9062665798,1453.47817184 34.6469358027,1442.35247539 35.6370969847,1432.05357745 32.2473687448,1428.07933107 31.4157410868,1434.84823272 30.820183111,1442.02773847 30.0700884625,1453.27123818 29.6441876367,1464.99200415 29.681655382,1476.48769699 30.0787217513,1488.48297826 30.5925658427,1496.45709391 31.389585397,1503.96720117 " moovel_rot="69.3" moovel_centroid="32.2910676367,1467.90228817" moovel_centroidlatlon="-122.49849623212395,37.7340700090373"/>
  <polygon id="43798397" class="tile" points="36.6659325153,1429.801678 36.8070203774,1475.14298067 41.1919562113,1475.2069509 46.0562856037,1473.24472638 50.7212704271,1473.1963949 50.7576682236,1428.07933107 41.0497984126,1428.11815176 36.6659325153,1429.801678 " moovel_rot="-39.7" moovel_centroid="43.6983557701,1451.23390851" moovel_centroidlatlon="-122.41949835972146,37.71321404017557"/>
  <polygon id="43100829" class="tile" points="102.165623715,1428.07933107 78.5339688994,1428.15890634 51.7576682236,1428.26268244 52.4819760911,1522.32500236 83.338292722,1522.21556204 102.089654088,1522.15257454 102.165623715,1428.07933107 " moovel_rot="-45.6" moovel_centroid="77.1236432355,1475.07729626" moovel_centroidlatlon="-122.41153836119622,37.77081743639736"/>
  <polygon id="114711559" class="tile" points="109.002615601,1483.76505034 130.536886072,1483.87041008 130.547783353,1467.2456931 130.553590339,1461.99690113 130.580583231,1428.21517858 103.181127517,1428.07933107 103.165623715,1455.85358133 109.026024619,1455.87940718 109.002615601,1483.76505034 " moovel_rot="45.2" moovel_centroid="118.154499059,1454.31356715" moovel_centroidlatlon="-122.39670713174412,37.77760768453608"/>
  <polygon id="427296605" class="tile" points="131.991575806,1457.52860895 138.145947199,1460.28121341 140.804939209,1461.47189854 139.939172844,1454.17708747 139.577039266,1442.97951995 140.834397376,1437.09745594 140.475842304,1429.4343027 134.00552158,1428.07933107 131.580583231,1438.97879805 131.946529512,1452.54186934 131.991575806,1457.52860895 " moovel_rot="-81.3" moovel_centroid="136.218093143,1444.29639186" moovel_centroidlatlon="-122.41467529615912,37.72264131760028"/>
  <polygon id="27369592" class="tile" points="171.162332609,1497.86142623 141.834397376,1498.31785518 141.836968267,1494.979452 141.862656991,1430.2159243 145.423576209,1428.07933107 170.005926981,1459.22643617 171.56058187,1484.08537732 171.162332609,1497.86142623 " moovel_rot="3.6" moovel_centroid="154.895756416,1469.45468806" moovel_centroidlatlon="-122.3859597662512,37.769994102535264"/>
  <polygon id="201515520" class="tile" points="177.105310723,1442.77125163 177.106264425,1428.07933107 172.56058187,1428.25764774 172.586253715,1442.30445961 177.105310723,1442.77125163 " moovel_rot="-80.9" moovel_centroid="174.856575866,1435.34653163" moovel_centroidlatlon="-122.44471256163975,37.782853038330884"/>
  <polygon id="162518056" class="tile" points="178.131889695,1469.18541537 185.102890307,1442.11091412 178.106264425,1440.31269187 181.250726077,1428.07933107 192.501466232,1430.96879399 189.338938256,1443.20340015 201.094842689,1446.2260373 194.117851564,1473.29161567 178.131889695,1469.18541537 " moovel_rot="-72.3" moovel_centroid="188.572094283,1452.38265131" moovel_centroidlatlon="-122.46612821598977,37.78240821837038"/>
  <polygon id="50259918" class="tile" points="202.201242834,1446.15065291 218.510252066,1442.9204386 216.85196372,1428.49108546 223.993324368,1428.07933107 227.785493017,1457.00393327 202.094842689,1458.84329507 202.099064617,1448.82244725 202.201242834,1446.15065291 " moovel_rot="-19.2" moovel_centroid="216.319128574,1447.3960219" moovel_centroidlatlon="-122.46543591732856,37.74037091443749"/>
  <polygon id="172111626" class="tile" points="228.785501097,1429.33255611 228.785493017,1428.07933107 235.638026003,1428.08943127 235.616138461,1435.03402946 235.601899914,1438.71466235 235.57342099,1445.65818114 235.565233847,1448.67481407 235.639960434,1455.52420858 230.226773556,1455.52556908 230.220533164,1448.29510386 228.786435525,1448.29301395 228.785501097,1429.33255611 " moovel_rot="9.2" moovel_centroid="232.352147023,1441.19618884" moovel_centroidlatlon="-122.41987928903842,37.78329151819511"/>
  <polygon id="330872990" class="tile" points="236.643062054,1483.32557759 265.478367548,1483.3095063 271.168900922,1483.31606808 272.029888924,1447.83796913 269.783001304,1447.77298687 270.075217725,1430.99884441 267.128879536,1430.92878943 261.365792939,1430.870684 261.360818258,1428.07933107 236.639960434,1428.09374694 236.643062054,1483.32557759 " moovel_rot="-86.3" moovel_centroid="253.678456302,1456.3008615" moovel_centroidlatlon="-122.47120727235949,37.764552573213024"/>
  <polygon id="28691881" class="tile" points="289.101751179,1446.82208477 288.652711619,1477.67159653 287.925288958,1495.9594462 283.605433302,1533.17202628 283.167403365,1538.89381863 274.487861678,1538.5524074 273.044187344,1533.52105252 273.565193753,1520.26847992 276.460106805,1496.21962758 277.716569489,1475.63164463 274.567075528,1463.14363598 273.029888924,1446.0427369 273.20269958,1428.33936092 284.661204281,1428.07933107 285.023921337,1444.06286194 289.101751179,1446.82208477 " moovel_rot="-1.3" moovel_centroid="280.855563657,1481.06259731" moovel_centroidlatlon="-122.50716076013383,37.734592290155035"/>
  <polygon id="106018203" class="tile" points="311.364870322,1533.42788677 311.330436568,1518.54274302 305.404863084,1518.56183845 305.290093521,1472.05607654 305.185770572,1431.60863622 290.136389229,1428.07933107 290.101751179,1533.49949723 311.364870322,1533.42788677 " moovel_rot="-85.4" moovel_centroid="298.241223669,1484.16370103" moovel_centroidlatlon="-122.39448745454449,37.74830688529879"/>
  <polygon id="42916780" class="tile" points="312.364870322,1428.77246628 322.151244152,1428.07933107 328.851416175,1441.91861998 334.034198657,1450.82111502 348.091972586,1460.35867263 351.297616482,1464.9849841 351.661204257,1482.34206085 347.894453873,1487.12123066 312.364971061,1487.44658135 312.364870322,1428.77246628 " moovel_rot="-10.7" moovel_centroid="328.505900973,1463.98810966" moovel_centroidlatlon="-122.41815283138567,37.77039133293961"/>
  <polygon id="16648105" class="tile" points="352.661204257,1554.41845777 352.766233714,1428.07933107 385.174289427,1428.70240795 385.686831893,1485.54774394 428.894092781,1486.37702331 428.861470935,1514.31506865 385.654255525,1513.48586557 385.957388419,1553.17903467 352.661204257,1554.41845777 " moovel_rot="-30.8" moovel_centroid="377.757307628,1493.2876449" moovel_centroidlatlon="-122.45818391206774,37.79826995096091"/>
  <polygon id="451613589" class="tile" points="443.853007672,1480.49600377 443.810370054,1429.49403879 439.307504124,1429.57859258 433.756704107,1428.07933107 429.931417653,1429.50619407 429.894092781,1470.79810966 434.340256565,1470.79645493 434.292401408,1480.52390661 443.853007672,1480.49600377 " moovel_rot="-85.8" moovel_centroid="437.147908669,1453.47399693" moovel_centroidlatlon="-122.43452556742731,37.76763879845723"/>
  <polygon id="264335388" class="tile" points="444.853007672,1459.02606702 444.871570249,1428.09423049 475.554740324,1428.07933107 475.536154842,1459.01116406 444.853007672,1459.02606702 " moovel_rot="-81.2" moovel_centroid="460.203867979,1443.55269624" moovel_centroidlatlon="-122.4027286,37.7990626"/>
  <polygon id="148546180" class="tile" points="476.567491286,1460.28372355 485.214930679,1453.60160956 494.818863706,1446.21512381 480.743184141,1428.07933107 476.554740324,1431.34082351 476.567491286,1460.28372355 " moovel_rot="7.6" moovel_centroid="482.906666487,1443.93044595" moovel_centroidlatlon="-122.41629630575743,37.77827088923848"/>
  <polygon id="43798394" class="tile" points="496.325512134,1428.07933107 510.110153033,1430.23827971 510.140293994,1461.26757628 495.818863706,1460.11818166 496.325512134,1428.07933107 " moovel_rot="28.0" moovel_centroid="503.058155672,1445.02001937" moovel_centroidlatlon="-122.42048232408435,37.71180978449906"/>
  <polygon id="32651751" class="tile" points="511.140293994,1428.07933107 517.683884604,1431.63626075 517.438762418,1472.37119636 511.168166655,1471.71213019 511.140293994,1428.07933107 " moovel_rot="6.0" moovel_centroid="514.322661257,1450.7843004" moovel_centroidlatlon="-122.44806058176306,37.79712758599343"/>
  <polygon id="16650146" class="tile" points="530.392470281,1435.73698591 530.725028494,1431.91620375 542.812402396,1433.02423178 548.174409713,1428.07933107 548.193252429,1475.38319577 518.683884604,1471.6662429 523.855875181,1437.68969312 524.240015996,1435.16611865 530.392470281,1435.73698591 " moovel_rot="43.8" moovel_centroid="535.267152726,1453.92875314" moovel_centroidlatlon="-122.48376290741516,37.790799283259645"/>
  <polygon id="32862942" class="tile" points="549.193252429,1428.17813181 564.367043312,1428.07933107 564.206616815,1553.22878366 551.312547967,1553.31381121 549.300151647,1543.08791174 549.193252429,1428.17813181 " moovel_rot="44.5" moovel_centroid="556.806400232,1490.1858251" moovel_centroidlatlon="-122.39432869447083,37.79109182240905"/>
  <polygon id="219783501" class="tile" points="577.649355811,1447.60359527 567.350812459,1447.66926079 565.382794165,1447.66534965 565.367043312,1428.14107198 577.63361881,1428.07933107 577.649355811,1447.60359527 " moovel_rot="-45.8" moovel_centroid="571.507713927,1437.87579274" moovel_centroidlatlon="-122.40736209220803,37.77249482551474"/>
  <polygon id="427296598" class="tile" points="0.0,1554.41845777 31.832694038,1554.4366684 31.8436502215,1603.9732152 0.00517937801778,1603.9459284 0.0,1554.41845777 " moovel_rot="5.9" moovel_centroid="15.920866935821092,1579.19431659" moovel_centroidlatlon="-122.41502836662887,37.71973986672598"/>
  <polygon id="32864968" class="tile" points="33.8643518303,1554.45409941 68.8980539467,1554.41845777 68.8991436165,1592.25838902 33.8436502215,1592.01938364 33.8643518303,1554.45409941 " moovel_rot="-80.4" moovel_centroid="51.397568196,1573.28960425" moovel_centroidlatlon="-122.41177567678726,37.781829746793036"/>
  <polygon id="420832776" class="tile" points="76.0615305137,1578.03346687 74.4642370395,1554.41845777 69.9370666757,1554.73949322 69.8991436165,1578.47857814 76.0615305137,1578.03346687 " moovel_rot="-45.8" moovel_centroid="72.6102466668,1567.02125086" moovel_centroidlatlon="-122.47751232424073,37.79638260606446"/>
  <polygon id="160283097" class="tile" points="114.044843705,1634.65197157 93.8094320323,1658.98254624 96.581735782,1661.35994959 77.0615305137,1684.85740947 81.1904199626,1688.37559725 107.825592737,1711.09561138 111.97242978,1714.6314979 121.425485713,1722.69648851 123.98435823,1719.61033289 126.764437755,1716.26391086 131.94987375,1716.21816327 131.849996589,1640.20318081 131.817095302,1616.65379011 131.760980979,1574.60189801 131.758653228,1568.2771369 131.743256513,1558.13099984 125.604576834,1555.97973277 124.102514128,1559.77972646 120.998975353,1558.22948409 116.497030456,1554.41845777 98.9750495423,1575.15865606 95.5623673175,1579.19451888 99.3740416672,1582.31546547 96.7990169365,1585.44197592 118.308992654,1603.25794747 120.950976932,1600.07552144 123.300504325,1602.27052349 123.925972662,1626.78886569 123.21244135,1628.7586744 121.71606837,1630.791362 116.772609412,1636.96669342 114.044843705,1634.65197157 " moovel_rot="-45.4" moovel_centroid="114.687678955,1647.39065594" moovel_centroidlatlon="-122.42813134414087,37.768705451590236"/>
  <polygon id="191862960" class="tile" points="132.956207375,1554.42051595 141.664766798,1554.41845777 141.658432345,1566.60214071 140.07494032,1566.60494087 132.94987375,1566.60419893 132.956207375,1554.42051595 " moovel_rot="-87.2" moovel_centroid="137.307411689,1560.51193472" moovel_centroidlatlon="-122.42570140900209,37.75194879855993"/>
  <polygon id="243571720" class="tile" points="158.847243105,1554.47654873 158.867927805,1574.96291137 142.679720304,1574.9109449 142.664766798,1554.41845777 158.847243105,1554.47654873 " moovel_rot="43.1" moovel_centroid="150.764510583,1564.69281949" moovel_centroidlatlon="-122.40355824823325,37.773638316453635"/>
  <polygon id="360264169" class="tile" points="170.31852458,1586.37230998 160.721067257,1586.57305131 159.867927805,1586.58142515 159.878021691,1579.17342374 160.054975098,1568.90478946 160.151310913,1554.41845777 167.498502269,1554.8253348 167.629450313,1574.87740248 170.310481695,1574.89160674 170.31852458,1586.37230998 " moovel_rot="-81.1" moovel_centroid="164.37326832,1571.8589186" moovel_centroidlatlon="-122.41731499399538,37.783900974832896"/>
  <polygon id="33925304" class="tile" points="171.319489174,1554.41845777 171.31852458,1588.93349158 195.940345875,1589.03717563 195.941359227,1554.52209357 171.319489174,1554.41845777 " moovel_rot="45.3" moovel_centroid="183.629932595,1571.72779895" moovel_centroidlatlon="-122.40487755,37.78108140000001"/>
  <polygon id="387313434" class="tile" points="200.45423977,1597.78775737 196.941359227,1594.13976933 197.043305603,1554.46137133 197.979833124,1554.41845777 225.245254896,1554.50436061 225.266982018,1597.74951193 200.45423977,1597.78775737 " moovel_rot="-80.7" moovel_centroid="211.183627395,1576.02501524" moovel_centroidlatlon="-122.4166806928293,37.78124637050895"/>
  <polygon id="252221830" class="tile" points="226.287279847,1576.57583757 226.266982018,1554.41845777 246.149866832,1561.6152705 230.482346829,1579.85971181 226.287279847,1576.57583757 " moovel_rot="-47.2" moovel_centroid="233.217771626,1566.11274946" moovel_centroidlatlon="-122.42646025866016,37.76915245434987"/>
  <polygon id="35266472" class="tile" points="247.151349193,1568.00830436 260.344618388,1567.98656983 260.343140319,1554.41845777 247.149866832,1554.44019165 247.151349193,1568.00830436 " moovel_rot="-81.3" moovel_centroid="253.747243629,1561.21338053" moovel_centroidlatlon="-122.40206470000004,37.79645575"/>
  <polygon id="95934133" class="tile" points="284.207933265,1554.41845777 284.203599015,1586.00372453 261.344618388,1586.06308328 261.346452849,1554.46974101 284.207933265,1554.41845777 " moovel_rot="-17.2" moovel_centroid="272.775163542,1570.23846487" moovel_centroidlatlon="-122.37682495567829,37.82745997994533"/>
  <polygon id="43798388" class="tile" points="285.207933265,1558.63552376 296.24900664,1554.41845777 300.412772865,1556.38293154 300.378923931,1579.37867412 286.953564072,1583.17813597 285.207933265,1558.63552376 " moovel_rot="-34.9" moovel_centroid="293.178525853,1568.4898535" moovel_centroidlatlon="-122.41865994051305,37.71001392517617"/>
  <polygon id="194904855" class="tile" points="319.460281143,1606.09761081 311.527321921,1612.66349216 301.412772865,1597.45726689 301.453398803,1554.41845777 316.268156286,1555.50805691 316.005048152,1590.10920119 320.372183178,1584.48588107 326.580595785,1592.33104721 318.142471211,1603.39241427 319.460281143,1606.09761081 " moovel_rot="78.1" moovel_centroid="310.623275957,1583.04795616" moovel_centroidlatlon="-122.4330759633238,37.733600095793875"/>
  <polygon id="132605501" class="tile" points="354.213338549,1554.41845777 370.012254273,1627.3092052 346.234768191,1632.98705377 351.950319666,1658.57769765 331.427902499,1663.12430327 327.591922352,1644.51862416 327.580595785,1620.62526356 337.58214225,1582.09944791 354.213338549,1554.41845777 " moovel_rot="-7.9" moovel_centroid="346.198636155,1613.47739896" moovel_centroidlatlon="-122.41213318910513,37.7678111318947"/>
  <polygon id="156123224" class="tile" points="371.287370436,1741.41260345 406.684145072,1741.04797737 406.676151971,1554.41845777 371.012254273,1554.62136187 371.287370436,1741.41260345 " moovel_rot="-45.2" moovel_centroid="388.912293383,1647.75819859" moovel_centroidlatlon="-122.40508601312398,37.78337835002104"/>
  <polygon id="350438433" class="tile" points="411.616415446,1626.47127461 409.456934473,1626.54172391 407.866157237,1625.2844447 407.684145072,1617.41966765 407.70606721,1555.82429952 408.057818669,1554.86833222 409.29204716,1554.41845777 411.276961996,1556.34072292 420.301005977,1556.73459652 420.381370334,1625.82522473 411.616415446,1626.47127461 " moovel_rot="-53.0" moovel_centroid="413.988085564,1591.17192375" moovel_centroidlatlon="-122.45272125270249,37.74476914433945"/>
  <polygon id="160958824" class="tile" points="421.386010692,1571.98603742 428.265070289,1572.00747489 435.781111564,1572.03022593 435.776477489,1554.46263235 421.381370334,1554.41845777 421.386010692,1571.98603742 " moovel_rot="24.3" moovel_centroid="428.581242523,1563.22441795" moovel_centroidlatlon="-122.46755689951965,37.79558524912849"/>
  <polygon id="288633745" class="tile" points="471.443486222,1563.91340783 471.554995983,1581.31205339 473.657245181,1581.29102404 473.782300522,1592.38890994 470.830770975,1592.41683153 471.018336322,1617.59129888 461.553149085,1617.68769533 461.638106044,1628.59461688 457.231107915,1628.62945313 450.584559653,1629.0264652 448.396246821,1629.16597004 446.334488662,1629.55502333 443.735108286,1629.23919148 441.428838232,1628.29000952 439.516699037,1626.74993122 437.929498892,1624.33288126 437.925973395,1624.31749288 437.226079581,1621.58133053 436.926775075,1618.87222243 436.781111564,1608.92772857 436.785328704,1587.50747882 444.971559415,1560.13473255 445.914451996,1558.12955726 447.656745989,1556.23448315 448.994199362,1555.39362921 450.971351386,1554.63525686 452.696445603,1554.41845777 454.427140673,1554.72023257 456.376614366,1555.21185269 458.469315046,1556.312704 459.607690362,1557.56766027 460.600893605,1558.9062388 461.447837114,1561.12066965 461.616071176,1563.97495339 471.443486222,1563.91340783 " moovel_rot="-70.7" moovel_centroid="454.215363272,1593.41874172" moovel_centroidlatlon="-122.45851637793777,37.7640599519418"/>
  <polygon id="97565663" class="tile" points="474.782300522,1599.31763053 498.19199912,1596.97455216 497.114535521,1587.57960276 502.815601066,1583.88972916 498.077532966,1563.65503586 490.072187927,1554.41845777 474.807441004,1554.62550615 474.782300522,1599.31763053 " moovel_rot="54.1" moovel_centroid="486.683314755,1577.04489937" moovel_centroidlatlon="-122.5076483404728,37.7694770917924"/>
  <polygon id="360213406" class="tile" points="504.140226235,1566.16618049 512.205473085,1565.92861168 512.221632668,1554.41845777 507.982841563,1554.53564618 504.276187202,1554.60736186 503.815601066,1555.80545174 504.172579487,1558.65404061 504.140226235,1566.16618049 " moovel_rot="-87.7" moovel_centroid="508.155941325,1560.26025371" moovel_centroidlatlon="-122.49760763532092,37.741756412151176"/>
  <polygon id="344321941" class="tile" points="530.460038646,1587.97053382 520.454987743,1590.7828268 513.221632668,1563.7164768 521.377615921,1561.60733427 526.260238456,1554.41845777 530.459938394,1557.56100053 524.917072662,1566.91793454 530.460038646,1587.97053382 " moovel_rot="-15.7" moovel_centroid="522.46458394,1573.61769014" moovel_centroidlatlon="-122.49974339204904,37.71251837874394"/>
  <polygon id="247955660" class="tile" points="537.919174476,1600.26056253 551.314479767,1596.95394924 544.678868518,1569.61426862 551.31971712,1567.9731535 548.030021203,1554.41845777 537.303901596,1557.0733638 540.766424917,1571.36064949 531.460038646,1573.66354089 537.919174476,1600.26056253 " moovel_rot="-58.5" moovel_centroid="542.23782144,1578.65465557" moovel_centroidlatlon="-122.40912360248045,37.774730699243364"/>
  <polygon id="360070872" class="tile" points="552.31971712,1556.35497512 556.075993882,1555.35298556 559.572356461,1554.41845777 560.824153563,1558.61136438 566.709802582,1561.35833133 560.300971523,1576.13211872 552.321509405,1572.69108057 553.821226702,1567.83263371 553.861418841,1565.39576437 553.942618726,1563.63457075 553.608244548,1561.83533196 553.241708898,1557.99088566 552.31971712,1556.35497512 " moovel_rot="-66.1" moovel_centroid="558.590370193,1565.0752845" moovel_centroidlatlon="-122.46074792861613,37.74954424579177"/>
  <polygon id="32016357" class="tile" points="0.0,1872.71028932 26.2890131459,1872.6108839 26.3053050097,1741.41260345 7.26828394756,1741.48447848 7.26108228229,1794.46461909 0.00889951474965,1794.49201145 0.0,1872.71028932 " moovel_rot="-54.1" moovel_centroid="14.345095264384957,1811.95952476" moovel_centroidlatlon="-122.39457118562039,37.79829025264892"/>
  <polygon id="25448711" class="tile" points="51.4541262541,1741.41260345 51.2172244322,1771.59992458 51.3719085101,1806.41241384 47.4725147564,1806.39322432 47.5222436603,1810.86663917 35.5430171624,1810.9441603 34.8993559159,1806.54257585 34.6396204308,1799.19423588 32.210336237,1799.1369876 32.0425927002,1789.98711313 31.6023812365,1782.13915105 30.7361540824,1776.00360834 29.7996410292,1770.48662195 30.6736070435,1767.52717711 29.0007086195,1765.2972183 28.3482491005,1758.08043283 28.3053050097,1745.91969687 32.5143646769,1745.91847016 32.3952707466,1741.49319873 51.4541262541,1741.41260345 " moovel_rot="50.7" moovel_centroid="41.0214467492,1773.95999937" moovel_centroidlatlon="-122.47208004192049,37.80703912051265"/>
  <polygon id="32775171" class="tile" points="52.4654016607,1756.73300878 58.1756280687,1756.71793553 58.1621608939,1741.41260345 52.4541262541,1741.43579976 52.4654016607,1756.73300878 " moovel_rot="-15.1" moovel_centroid="55.3145824111,1749.07532408" moovel_centroidlatlon="-122.4525220482396,37.79574511862528"/>
  <polygon id="197052359" class="tile" points="118.028934273,1741.41260345 118.190065181,1880.95096393 108.962026386,1892.78605001 63.2020998932,1892.6058654 63.1593858879,1879.2253109 59.3866517302,1879.2627922 59.1756280687,1841.27127741 66.1545590337,1841.21695798 65.7848367728,1791.98602711 65.8762128424,1741.70936721 118.028934273,1741.41260345 " moovel_rot="-86.0" moovel_centroid="90.8326000201,1818.30739562" moovel_centroidlatlon="-122.40928126207879,37.76612749962913"/>
  <polygon id="257593334" class="tile" points="122.495394031,1853.78164542 123.195684746,1849.58213281 124.67661677,1840.08338113 125.813266633,1830.50159481 126.580058831,1821.11760175 127.189371239,1810.63607511 127.542482938,1799.58533425 127.547103315,1789.32360599 127.186926249,1779.79931542 126.585854818,1769.75078161 125.754247062,1759.52770439 124.602067856,1749.9408046 123.601107873,1744.39086305 119.263538146,1741.41260345 120.394495855,1749.00319674 121.620932294,1759.19358223 122.536111921,1770.02549157 123.120204818,1779.96175607 123.461563477,1790.5426916 123.461938001,1800.83744007 123.130620445,1810.68247325 122.527582414,1820.81178467 121.763439953,1830.10080529 120.642704402,1839.28163263 119.190065181,1848.91120785 122.495394031,1853.78164542 " moovel_rot="81.4" moovel_centroid="124.071121871,1797.28271347" moovel_centroidlatlon="-122.50211205846675,37.73540338233485"/>
  <polygon id="25169769" class="tile" points="128.547103315,1741.41260345 142.66095848,1741.55482811 142.662052987,1743.090288 150.023299016,1743.16687585 149.744429014,1771.77019028 128.563187625,1771.92726759 128.547103315,1741.41260345 " moovel_rot="4.2" moovel_centroid="139.074266378,1756.90235291" moovel_centroidlatlon="-122.42097042664771,37.76436335174189"/>
  <polygon id="243571762" class="tile" points="175.350850806,1749.9304191 175.364076448,1779.65434091 151.023299016,1779.26457433 151.3169324,1741.41260345 175.347462868,1741.47986891 175.350850806,1749.9304191 " moovel_rot="46.1" moovel_centroid="163.279664523,1760.49381565" moovel_centroidlatlon="-122.40712675937006,37.781751005548"/>
  <polygon id="27570851" class="tile" points="180.632617925,1827.35294748 180.62918301,1823.31973108 176.364076448,1823.32585399 176.365763994,1805.78134957 176.366819803,1794.66464057 180.350216589,1794.66025409 180.34769977,1783.40764229 192.341565538,1783.38802429 192.343686649,1752.94043114 195.576556348,1752.93627754 195.579244483,1741.44092526 202.958735165,1741.42499069 208.344876091,1741.55307226 214.577913965,1741.50707564 222.976428672,1741.41260345 222.973716596,1809.66967206 222.97581398,1827.29598401 180.632617925,1827.35294748 " moovel_rot="-80.8" moovel_centroid="203.313886112,1789.09647795" moovel_centroidlatlon="-122.41172160233931,37.808107199213765"/>
  <polygon id="162470924" class="tile" points="237.938980423,1741.41260345 237.983228143,1781.4357917 223.976428672,1781.27733511 224.124437881,1741.4134749 237.938980423,1741.41260345 " moovel_rot="-86.4" moovel_centroid="231.01030127,1761.43088085" moovel_centroidlatlon="-122.49715203429693,37.7512685618281"/>
  <polygon id="32863065" class="tile" points="238.998507462,1741.47826381 255.302582601,1741.41260345 255.30013603,1768.2827383 288.445213564,1768.15274678 288.432253305,1804.70728621 238.983228143,1804.90306693 238.998507462,1741.47826381 " moovel_rot="-44.7" moovel_centroid="260.481450265,1780.3533771" moovel_centroidlatlon="-122.39496247824707,37.79244216020836"/>
  <polygon id="338710979" class="tile" points="303.354991522,1747.32794551 305.095263357,1748.18234021 303.940290373,1750.45115871 307.172514123,1752.0955818 298.756455732,1768.59398964 298.383642296,1769.32838549 293.162354066,1779.56260603 290.071320172,1777.97513224 289.464335642,1777.67099646 302.134364767,1752.82697358 294.264312906,1748.76979944 294.698802042,1747.79850593 289.445213564,1745.21732333 291.360913285,1741.41260345 300.680604606,1746.00522738 302.165538322,1742.99904669 304.01437204,1746.10483387 303.354991522,1747.32794551 " moovel_rot="55.5" moovel_centroid="298.119664491,1757.92481279" moovel_centroidlatlon="-122.47887264429676,37.7292090199676"/>
  <polygon id="79377168" class="tile" points="308.172828508,1741.41260345 328.084620737,1741.49880476 328.087068764,1747.56772745 331.125563224,1747.58654669 331.123408299,1755.51214455 331.126976649,1761.57037694 331.12700832,1765.24565541 323.686782237,1765.21590092 316.630647194,1765.18532232 316.627528661,1760.48219977 308.172514123,1760.4481706 308.172828508,1741.41260345 " moovel_rot="44.4" moovel_centroid="319.863404452,1752.88851632" moovel_centroidlatlon="-122.40109463188728,37.78836086512331"/>
  <polygon id="32945927" class="tile" points="370.642278605,1741.41260345 371.256132583,1751.10110457 368.029294908,1751.29096212 369.303079094,1771.47267945 363.653189462,1771.81075479 364.240915742,1787.5767511 370.756216047,1788.00433634 371.262397448,1796.08078972 352.587500268,1795.55737278 352.557004073,1788.67700453 336.028146239,1790.05222506 334.685890863,1788.11194981 343.840839252,1772.57299462 332.12700832,1766.78214776 344.749787701,1742.13235426 370.642278605,1741.41260345 " moovel_rot="41.5" moovel_centroid="353.748721375,1767.32859741" moovel_centroidlatlon="-122.41838892778038,37.7740759994705"/>
  <polygon id="360070873" class="tile" points="381.567357175,1741.41260345 383.460301131,1748.91452414 384.20526541,1752.20281573 384.742048319,1755.70166351 385.289148406,1761.9569063 385.35478921,1766.77268138 385.51520739,1774.4836947 386.113877467,1785.9100537 386.936828916,1791.84309917 387.657587537,1797.34270639 388.645990212,1804.22760348 389.210973809,1809.05001478 388.71827156,1812.40367454 388.413177432,1814.10267337 387.771258531,1816.0708195 384.881996522,1820.68329179 377.508472276,1817.44337861 374.159678768,1814.65144682 372.262397448,1812.86544454 373.231582347,1801.03249296 372.27234882,1800.83786121 372.811747649,1792.26308032 373.843411295,1780.19418781 375.337377722,1762.74585222 375.969360965,1757.38129322 375.772924424,1752.70239133 375.70851462,1748.78137513 376.210281813,1745.2549772 376.710097093,1744.14815942 381.567357175,1741.41260345 " moovel_rot="16.4" moovel_centroid="380.291722751,1785.71169077" moovel_centroidlatlon="-122.46113676052198,37.75033021918701"/>
  <polygon id="57884808" class="tile" points="405.35638113,1741.41322731 405.3936168,1768.62191276 397.946152609,1768.63366928 394.85485829,1768.6280791 394.869099199,1763.2504368 390.210973809,1763.24421196 390.269037318,1741.41260345 397.92571056,1741.42592274 405.35638113,1741.41322731 " moovel_rot="-86.8" moovel_centroid="398.145154771,1754.33448652" moovel_centroidlatlon="-122.49849318126878,37.7415547277539"/>
  <polygon id="162093421" class="tile" points="442.868319572,1855.42440651 444.66404726,1854.8594982 484.788448491,1812.68432904 482.740228368,1807.94031626 487.674047397,1805.97278416 464.827759709,1783.78849934 472.555118622,1775.74329034 436.488729796,1741.41260345 408.187129025,1771.31524741 406.933179342,1773.30133638 406.429258199,1776.05330917 407.013891828,1778.92909686 408.889794745,1781.27974865 424.097933516,1795.72954296 426.560303823,1797.3977542 429.159462865,1798.37066246 443.282040587,1800.03340098 446.166330287,1799.59229927 448.955726672,1798.71131634 449.514083322,1799.4327484 449.507661518,1800.25293869 440.345356565,1809.66872748 421.821476937,1808.41817169 418.252648256,1810.87337878 406.3936168,1823.24839852 409.247103303,1825.97199819 406.534249523,1828.93955582 430.217612724,1851.25144154 433.530714783,1847.87013612 437.158109014,1849.02584456 440.164061286,1851.16825502 441.632278687,1853.1632563 442.868319572,1855.42440651 " moovel_rot="41.1" moovel_centroid="443.287451443,1800.42871906" moovel_centroidlatlon="-122.47574754762768,37.72772399832101"/>
  <polygon id="214060551" class="tile" points="488.687403756,1769.03010142 488.674047397,1741.42823242 499.325985525,1741.41260345 499.339335594,1769.0144716 488.687403756,1769.03010142 " moovel_rot="-82.3" moovel_centroid="494.00669304,1755.22135086" moovel_centroidlatlon="-122.42709905000001,37.787264750000006"/>
  <polygon id="162093420" class="tile" points="500.339335594,1756.0343756 500.609149438,1791.44563466 507.880117409,1793.85940067 528.691851405,1793.96878944 534.827223514,1784.60279299 536.946592193,1787.54503713 547.179809641,1774.46708016 544.570028683,1770.65352288 544.77998715,1769.47922111 547.805679697,1771.03131832 548.892039559,1769.53842289 548.900460728,1750.25725903 544.507619372,1748.14577159 544.34258182,1746.71626921 543.653161043,1745.40695922 542.44447532,1744.48509169 540.716187035,1743.943996 538.736665509,1743.59619605 531.235243614,1743.61506406 526.922007426,1741.41260345 508.719675803,1741.61910625 504.720851885,1743.79455948 502.755583727,1743.89411567 502.736598054,1755.81930724 500.339335594,1756.0343756 " moovel_rot="87.1" moovel_centroid="522.869456673,1766.85011837" moovel_centroidlatlon="-122.47603670889102,37.72859106653194"/>
  <polygon id="251511537" class="tile" points="549.950608233,1741.43544527 587.51831217,1741.41260345 587.602402967,1805.12754088 549.920845392,1805.14983193 549.900460728,1787.70194512 549.975583784,1757.80344749 549.950608233,1741.43544527 " moovel_rot="4.5" moovel_centroid="568.748693328,1773.30376968" moovel_centroidlatlon="-122.39012688894658,37.77244526004437"/>
  <polygon id="147508672" class="tile" points="17.9961748995,1913.51862113 18.0213601649,1892.78605001 0.0,1893.59575775 0.118308962882,1905.19342648 5.82809480354,1905.01471999 6.00015998036,1913.86923095 17.9961748995,1913.51862113 " moovel_rot="-46.2" moovel_centroid="10.04415427739171,1902.48756789" moovel_centroidlatlon="-122.39229130144186,37.78275992563553"/>
  <polygon id="399186359" class="tile" points="29.3806860048,1892.79215841 20.0213601649,1892.78605001 20.0302955989,1913.56206505 20.0315610707,1914.91824432 29.390886049,1914.92435798 29.3806860048,1892.79215841 " moovel_rot="9.3" moovel_centroid="24.7059634575,1903.85531313" moovel_centroidlatlon="-122.43381920209592,37.78674999839642"/>
  <polygon id="112593518" class="tile" points="51.4498578317,1892.78605001 54.5429492578,1916.42055598 57.6588822909,1927.74410104 63.7557604507,1938.51750373 68.4986023139,1947.19988314 35.7204243075,1977.66079292 30.390886049,1971.09494439 60.8626780808,1947.84177794 30.4196870171,1903.25757337 51.4498578317,1892.78605001 " moovel_rot="-39.7" moovel_centroid="48.6409999672,1930.17501367" moovel_centroidlatlon="-122.41925522929172,37.76946763091535"/>
  <polygon id="256784864" class="tile" points="78.8771063037,1916.17595202 90.6068377133,1916.18665352 90.6065174844,1900.39251355 82.4851056043,1900.38958892 82.486848744,1892.80042551 69.498624137,1892.78605001 69.4986023139,1917.87281359 78.8785070427,1917.8794172 78.8771063037,1916.17595202 " moovel_rot="4.0" moovel_centroid="78.9498213468,1906.02003427" moovel_centroidlatlon="-122.42899442068095,37.75136399770387"/>
  <polygon id="243353689" class="tile" points="91.6068377133,1898.47733308 100.886439181,1959.3781112 105.949694484,2007.34146918 109.512991821,2082.56583016 110.092578735,2088.84036309 113.707801655,2088.9324127 116.32503594,2038.67312132 119.071277257,1978.44360782 119.124628198,1892.78605001 91.6068377133,1898.47733308 " moovel_rot="-54.0" moovel_centroid="109.456292931,1966.00861476" moovel_centroidlatlon="-122.40199789754696,37.77784589332747"/>
  <polygon id="132605458" class="tile" points="120.124628198,1952.87375724 145.219523608,1926.54049773 120.174461465,1902.68805709 131.59802972,1892.78605001 164.030098268,1922.75914246 165.020385155,1939.78633893 137.95189187,1968.78424215 120.124628198,1952.87375724 " moovel_rot="40.8" moovel_centroid="143.171413326,1932.4069694" moovel_centroidlatlon="-122.41390672083469,37.76911641437472"/>
  <polygon id="401531145" class="tile" points="166.020385155,1924.98448566 170.357280307,1925.15555311 172.850161581,1925.25890066 172.64588051,1919.61867802 174.995513539,1919.53307931 173.544249274,1892.78605001 167.485319462,1892.99661625 166.125476384,1894.14836597 166.032665046,1896.15699819 166.020385155,1924.98448566 " moovel_rot="7.6" moovel_centroid="170.071124244,1908.97500333" moovel_centroidlatlon="-122.40570378629624,37.79550699706881"/>
  <polygon id="398988821" class="tile" points="175.995513539,1892.87843343 176.063829409,1899.65355216 176.210770119,1914.68665461 182.780994761,1914.74381656 185.915992601,1914.76531831 186.000915573,1901.62142309 186.00301246,1892.78605001 175.995513539,1892.87843343 " moovel_rot="2.7" moovel_centroid="181.046231441,1903.7230128" moovel_centroidlatlon="-122.48018411659196,37.76368197441622"/>
  <polygon id="132605487" class="tile" points="187.103478483,1898.34013813 196.35990837,1896.41333526 227.714130642,1892.78605001 228.224503081,1896.1607305 236.512999585,1895.2044386 236.746086711,1897.36460196 241.868542454,1896.79931213 248.51733519,1955.61713241 244.881732252,1955.99808763 245.13615588,1958.74947483 249.876861632,1967.64504833 245.696106802,1972.24258435 247.356546907,1975.28796567 233.662148093,1982.92526885 230.257919824,1984.55470501 211.663783072,1987.92747888 210.864899481,1984.67073794 209.70815441,1984.56196408 207.337367064,1988.46695072 200.39631721,1983.98424134 187.00301246,1973.91812083 196.335763101,1958.93563599 198.839027908,1960.5768341 199.853867748,1958.5656956 198.480545201,1949.31622107 187.103478483,1898.34013813 " moovel_rot="81.4" moovel_centroid="219.086805172,1939.74299839" moovel_centroidlatlon="-122.4126246839417,37.76895776426279"/>
  <polygon id="35029503" class="tile" points="250.901322018,1924.08362446 276.719860659,1924.10313514 276.69679295,1892.79723837 250.876861632,1892.78605001 250.901322018,1924.08362446 " moovel_rot="9.5" moovel_centroid="263.799281319,1908.442371" moovel_centroidlatlon="-122.41019909192222,37.7931219777669"/>
  <polygon id="112864752" class="tile" points="291.521545402,1892.78605001 279.864602184,1911.35428743 278.106336426,1916.56639549 277.719860659,1922.81749008 279.572664294,1927.69079748 281.986608975,1932.60729429 287.292995403,1936.89467558 292.905087428,1940.77695205 298.158025188,1932.28119587 297.750626085,1929.49503084 296.692777149,1916.65699763 298.171033358,1916.2911662 291.521545402,1892.78605001 " moovel_rot="-13.9" moovel_centroid="288.772045455,1919.05135154" moovel_centroidlatlon="-122.39467462764433,37.78435089172638"/>
  <polygon id="172111624" class="tile" points="299.171033358,1906.72743577 312.452625163,1906.75339326 312.461523153,1892.81200283 300.451749407,1892.78965251 299.179930581,1892.78605001 299.171033358,1906.72743577 " moovel_rot="9.3" moovel_centroid="305.816349974,1899.76999987" moovel_centroidlatlon="-122.41943714826687,37.783250246860334"/>
  <polygon id="370362420" class="tile" points="313.764070101,1892.96872397 325.807186003,1892.78605001 325.805524893,1900.50627724 325.811402565,1904.84946511 325.814514683,1912.10096545 313.461523153,1910.20073965 313.578997142,1906.41053121 313.630097827,1903.01696818 313.646409217,1901.79189726 313.764070101,1892.96872397 " moovel_rot="-85.3" moovel_centroid="319.838367358,1902.06118393" moovel_centroidlatlon="-122.42120462203543,37.75486257996018"/>
  <polygon id="61154429" class="tile" points="326.814514683,1963.46809351 369.052961055,1955.67970989 363.954772463,1927.93140118 357.240111335,1892.78605001 326.833692373,1898.61078929 333.826888701,1933.68098315 334.529583987,1939.46175384 326.814514683,1963.46809351 " moovel_rot="-1.6" moovel_centroid="347.109246537,1928.84631099" moovel_centroidlatlon="-122.42235789401607,37.78029342050597"/>
  <polygon id="436474249" class="tile" points="370.067617369,1892.78605001 387.165098564,1892.81396359 387.150440324,1923.86355962 370.052961055,1923.83563345 370.067617369,1892.78605001 " moovel_rot="8.7" moovel_centroid="378.609029906,1908.32480138" moovel_centroidlatlon="-122.4178489,37.78968855"/>
  <polygon id="35176285" class="tile" points="388.165098564,1926.01444324 388.198770151,1892.78975031 400.249528375,1892.78605001 400.237647054,1907.49903113 414.414429189,1907.49499019 414.410279449,1915.74272473 418.58550861,1915.74433658 418.576178822,1926.00952626 388.165098564,1926.01444324 " moovel_rot="-81.7" moovel_centroid="400.437846656,1912.83316172" moovel_centroidlatlon="-122.41841229309132,37.7772145950388"/>
  <polygon id="195525273" class="tile" points="419.58550861,1892.78605001 428.906526104,1894.2206901 426.167813447,1918.14906135 419.593071233,1917.03658785 419.58550861,1892.78605001 " moovel_rot="-18.7" moovel_centroid="423.605668451,1904.85663787" moovel_centroidlatlon="-122.43734582901862,37.72336210214836"/>
  <polygon id="97659520" class="tile" points="429.906526104,1892.78605001 429.907427809,1930.16551383 452.176203466,1929.93701547 452.523125901,1896.61837162 429.906526104,1892.78605001 " moovel_rot="10.5" moovel_centroid="440.915271146,1912.31136908" moovel_centroidlatlon="-122.4988076647125,37.77099397744458"/>
  <polygon id="398988822" class="tile" points="453.526503645,1918.28216226 453.554845908,1904.559183 453.523125901,1892.78605001 462.952481396,1892.91236313 470.462347906,1893.01165179 470.503600442,1914.89135942 466.105231649,1914.90163077 464.201160984,1914.90216768 464.199312307,1918.15260189 453.526503645,1918.28216226 " moovel_rot="-87.0" moovel_centroid="461.722747832,1905.00015809" moovel_centroidlatlon="-122.47855669307164,37.76393317697804"/>
  <polygon id="170845469" class="tile" points="472.768979906,1944.06272025 487.66368489,1926.19207426 486.870668618,1925.53721814 487.595899396,1924.67023831 471.503600442,1911.26637495 473.887822958,1908.36685324 480.526567261,1913.90682791 486.800649144,1906.38862575 492.170870487,1899.95435742 498.154274324,1892.78605001 515.825111543,1907.52001485 497.820336079,1929.08364656 515.814599128,1944.09992166 498.227803591,1965.17665683 472.768979906,1944.06272025 " moovel_rot="-47.1" moovel_centroid="495.13268554,1929.67273454" moovel_centroidlatlon="-122.46495455289802,37.78202382956313"/>
  <polygon id="84808580" class="tile" points="516.904283766,1892.85130925 516.825111543,1955.86706489 574.949201604,1955.98500828 574.841503114,1892.78605001 516.904283766,1892.85130925 " moovel_rot="4.4" moovel_centroid="545.894061068,1924.38929562" moovel_centroidlatlon="-122.3881887210687,37.7693749120841"/>
  <polygon id="258866775" class="tile" points="18.3066172309,2095.28321456 14.7093442574,2094.68915096 16.0638932861,2089.70811557 11.4318878464,2088.9324127 0.0,2112.7089325 6.09874026328,2115.66280445 0.0197442144156,2141.25148072 11.035255795,2143.96770491 12.6889616791,2139.03733869 16.6637547623,2139.82341782 20.8200564031,2122.24720846 16.0096118532,2121.01631183 16.6983110212,2117.68755096 13.6740618713,2116.97570754 18.3066172309,2095.28321456 " moovel_rot="85.6" moovel_centroid="10.277836146878617,2119.02820183" moovel_centroidlatlon="-122.40388766175182,37.74400076913393"/>
  <polygon id="25478378" class="tile" points="22.8729900964,2088.9324127 53.8458832402,2088.99137689 53.7929422949,2152.20194582 22.8200564031,2152.14293477 22.8729900964,2088.9324127 " moovel_rot="8.8" moovel_centroid="38.3329699237,2120.56716632" moovel_centroidlatlon="-122.3996303,37.7992626"/>
  <polygon id="430134685" class="tile" points="57.5137462556,2088.9324127 54.8467899743,2105.37971496 54.8458832402,2127.14540621 62.9901051957,2123.3851495 70.1443215016,2108.43198296 68.0271247532,2096.80955525 63.2431131687,2090.99530175 57.5137462556,2088.9324127 " moovel_rot="47.8" moovel_centroid="61.3122139387,2107.66821439" moovel_centroidlatlon="-122.42505859513395,37.714803182790405"/>
  <polygon id="256806246" class="tile" points="71.1443215016,2088.9324127 71.1695289914,2112.02915156 91.1932140786,2112.56224878 91.9455037799,2089.36725677 71.1443215016,2088.9324127 " moovel_rot="-84.9" moovel_centroid="81.3728656818,2100.64967616" moovel_centroidlatlon="-122.4256403220817,37.7694509371138"/>
  <polygon id="162591450" class="tile" points="102.965381319,2144.191211 92.9782769531,2144.19882328 92.9455037799,2088.93956964 102.94101596,2088.9324127 102.965381319,2144.191211 " moovel_rot="-86.9" moovel_centroid="97.957535545,2116.56162917" moovel_centroidlatlon="-122.47773719210974,37.77989607759496"/>
  <polygon id="430248188" class="tile" points="117.248324501,2117.38555546 114.246015768,2088.9324127 104.000167505,2090.42588145 105.758473268,2113.88732689 103.965381319,2119.89229678 110.989462825,2118.04319126 117.248324501,2117.38555546 " moovel_rot="64.6" moovel_centroid="110.315836477,2104.36400697" moovel_centroidlatlon="-122.41248233235306,37.71518674838531"/>
  <polygon id="225312218" class="tile" points="118.469224541,2120.71926613 132.370171824,2120.87843285 132.401008946,2088.97372209 118.394986539,2088.9324127 118.248324501,2095.57156115 118.469224541,2120.71926613 " moovel_rot="-80.5" moovel_centroid="125.372553343,2104.83802675" moovel_centroidlatlon="-122.42128152959727,37.79525794966604"/>
  <polygon id="32611972" class="tile" points="133.401008946,2089.27570172 134.195763194,2089.19735768 139.143298863,2088.9324127 139.196717785,2105.0304849 139.194121983,2108.34002852 139.167030512,2120.63975125 133.424445333,2120.71070936 133.401008946,2089.27570172 " moovel_rot="8.4" moovel_centroid="136.298566795,2104.88282032" moovel_centroidlatlon="-122.40988874835786,37.79969300556235"/>
  <polygon id="151827258" class="tile" points="140.24404037,2127.35598613 140.196717785,2089.70833393 171.878149578,2088.9324127 171.895625153,2101.39254651 165.839025087,2101.71437938 165.795512984,2127.18575414 140.24404037,2127.35598613 " moovel_rot="-87.1" moovel_centroid="154.195322332,2107.37423142" moovel_centroidlatlon="-122.41902205011944,37.76574131020923"/>
  <polygon id="43798403" class="tile" points="172.948149429,2094.56687591 172.895625153,2134.58838554 187.320748322,2130.89620446 185.213376585,2088.9324127 172.948149429,2094.56687591 " moovel_rot="-36.9" moovel_centroid="179.680435311,2112.75635375" moovel_centroidlatlon="-122.4206017089005,37.7106290064129"/>
  <polygon id="257593333" class="tile" points="188.320748322,2088.93410115 188.353217897,2151.9124869 192.015730221,2155.56544106 192.240133749,2091.27882678 189.750490943,2088.9324127 188.320748322,2088.93410115 " moovel_rot="-89.8" moovel_centroid="190.239545362,2121.35251315" moovel_centroidlatlon="-122.50459386268203,37.73546563939001"/>
  <polygon id="242418182" class="tile" points="197.448877751,2166.55337915 193.318364291,2254.71843458 223.59264905,2253.25338012 222.890659451,2242.07920019 229.813362259,2241.14643428 231.324758951,2191.28839071 231.445142191,2170.9845387 234.395825408,2155.81524339 237.519016243,2134.62700537 231.803131529,2111.39457479 225.035955595,2107.85945247 223.523744304,2103.92773043 225.825966677,2096.36974373 221.883101612,2094.92765541 200.297770525,2088.9324127 196.070490361,2090.74611581 193.240133749,2096.39016015 201.997433169,2126.09823386 197.545452016,2163.57616057 197.448877751,2166.55337915 " moovel_rot="11.8" moovel_centroid="213.939131588,2173.520808" moovel_centroidlatlon="-122.49447079372753,37.70798138072749"/>
  <polygon id="370814349" class="tile" points="239.297817487,2136.4910717 238.519016243,2089.06673449 244.132245404,2088.9324127 244.072131832,2136.49865452 239.297817487,2136.4910717 " moovel_rot="-81.3" moovel_centroid="241.501659894,2112.10714523" moovel_centroidlatlon="-122.43977333545902,37.77322994339535"/>
  <polygon id="95934095" class="tile" points="268.018204276,2089.02744164 268.015650328,2118.16495072 245.132245404,2118.06989292 245.134757828,2088.9324127 268.018204276,2089.02744164 " moovel_rot="55.2" moovel_centroid="256.575216359,2103.5486701" moovel_centroidlatlon="-122.37608025000003,37.8288343"/>
  <polygon id="160699007" class="tile" points="269.050744951,2204.96631751 277.914837871,2204.96342809 286.208990657,2204.96632253 286.081902348,2088.9324127 278.148632229,2088.94105249 270.778643748,2088.94338331 270.819328059,2126.47924604 274.524627976,2126.47546051 274.551287237,2150.14319067 271.301411428,2150.14905797 271.322638524,2169.71447364 275.127816978,2169.71855078 275.135776088,2175.57647305 269.018204276,2175.5845241 269.050744951,2204.96631751 " moovel_rot="4.5" moovel_centroid="278.6388666,2148.33409402" moovel_centroidlatlon="-122.43379461477055,37.76826914308762"/>
  <polygon id="436480427" class="tile" points="287.208990657,2088.9324127 287.230162796,2115.95357005 312.004278342,2115.97512401 311.98442527,2088.94563841 287.208990657,2088.9324127 " moovel_rot="9.0" moovel_centroid="299.607600473,2102.45156626" moovel_centroidlatlon="-122.42291869089125,37.78098187758634"/>
  <polygon id="212214155" class="tile" points="313.004278342,2118.92982235 313.02871158,2088.9324127 326.865714404,2088.93390324 326.841082836,2114.19493505 326.84233861,2118.92471794 313.004278342,2118.92982235 " moovel_rot="-80.8" moovel_centroid="319.933772106,2103.92979321" moovel_centroidlatlon="-122.42365352237097,37.786746618256394"/>
  <polygon id="349736602" class="tile" points="327.866656329,2088.97925822 341.689400168,2088.9324127 341.688452106,2104.69402461 327.865714404,2104.74088261 327.866656329,2088.97925822 " moovel_rot="-26.2" moovel_centroid="334.777554838,2096.83664396" moovel_centroidlatlon="-122.4524186,37.8016261"/>
  <polygon id="35065990" class="tile" points="342.689400168,2088.97492889 342.698668776,2106.75598254 353.838350254,2106.99118443 353.864128603,2100.14789116 353.951756265,2099.14732751 353.67699054,2090.56692795 351.377331351,2088.9324127 342.689400168,2088.97492889 " moovel_rot="9.2" moovel_centroid="348.228323968,2098.01557134" moovel_centroidlatlon="-122.41149139759037,37.80090070116407"/>
  <polygon id="242771875" class="tile" points="354.951756265,2112.23679978 355.776378967,2088.9324127 372.645218057,2089.77187056 372.648531375,2112.78756699 354.951756265,2112.23679978 " moovel_rot="-44.2" moovel_centroid="363.983834029,2101.02317781" moovel_centroidlatlon="-122.40448250726477,37.780795903851406"/>
  <polygon id="243464474" class="tile" points="398.488425091,2089.06601408 398.455075942,2122.39754109 381.99205559,2122.31417672 382.013180847,2101.94246705 373.648531375,2101.89219126 373.660719356,2088.9324127 398.488425091,2089.06601408 " moovel_rot="42.8" moovel_centroid="388.193925897,2103.99729011" moovel_centroidlatlon="-122.40208319955195,37.776863787896204"/>
  <polygon id="288443738" class="tile" points="404.040752508,2088.93665024 399.500392732,2088.9324127 399.488425091,2104.69022109 404.028784806,2104.69445945 404.040752508,2088.93665024 " moovel_rot="4.2" moovel_centroid="401.764588804,2096.81343585" moovel_centroidlatlon="-122.47342025,37.8035871"/>
  <polygon id="358409384" class="tile" points="405.087400444,2088.9324127 412.032200519,2089.03426527 415.200233166,2089.08502312 415.208813217,2119.08392817 405.040752508,2118.96192457 405.053969803,2117.05038423 405.087400444,2088.9324127 " moovel_rot="3.2" moovel_centroid="410.136005485,2104.02652396" moovel_centroidlatlon="-122.47115731555887,37.74296397409501"/>
  <polygon id="286117170" class="tile" points="416.208813217,2209.91288737 438.222692054,2210.14963625 446.044948095,2210.22952575 445.559044756,2132.09099545 482.558314741,2132.06064999 482.241365092,2088.9324127 445.18429769,2089.67565541 445.366589534,2094.69943507 416.257085866,2094.148108 416.208813217,2209.91288737 " moovel_rot="4.1" moovel_centroid="441.422299733,2139.24101675" moovel_centroidlatlon="-122.38843302343483,37.76798231997485"/>
  <polygon id="424957086" class="tile" points="483.558314741,2088.9324127 487.593699988,2090.51984513 495.937283613,2094.60799387 501.032639237,2103.92535206 500.862942296,2108.86002351 499.462339777,2149.7365803 483.589579016,2150.59057106 483.568283651,2109.24629426 483.560967814,2097.40889837 483.558314741,2088.9324127 " moovel_rot="-25.5" moovel_centroid="491.613728321,2121.36384434" moovel_centroidlatlon="-122.42321808316558,37.72211913774682"/>
  <polygon id="198001187" class="tile" points="502.032639237,2088.9324127 506.139912013,2089.03888716 505.933627059,2152.61033722 502.114360381,2152.69378215 502.128928067,2152.08268988 502.032639237,2088.9324127 " moovel_rot="8.9" moovel_centroid="504.058345037,2120.41206357" moovel_centroidlatlon="-122.412417619766,37.7911410059323"/>
  <polygon id="430142478" class="tile" points="507.147823418,2088.97296874 517.903975685,2088.9324127 517.903217165,2102.3651449 507.139912013,2102.40130045 507.147823418,2088.97296874 " moovel_rot="-58.4" moovel_centroid="512.524027316,2095.66869983" moovel_centroidlatlon="-122.41692790716901,37.72101541736902"/>
  <polygon id="137318983" class="tile" points="535.628819358,2088.99068234 535.648119495,2112.60577947 518.923298244,2112.54748718 518.903975685,2088.9324127 535.628819358,2088.99068234 " moovel_rot="44.7" moovel_centroid="527.276054535,2100.76908779" moovel_centroidlatlon="-122.40551255000003,37.7816351"/>
  <polygon id="361097161" class="tile" points="539.722570712,2108.74581037 544.520702492,2108.72143561 544.368303303,2097.78171468 544.515362934,2088.98977119 540.523346926,2088.9324127 540.518359463,2089.40060861 537.08254638,2089.34575256 536.648119495,2106.49220655 539.468102169,2106.55409048 539.63488785,2106.97315637 539.722570712,2108.74581037 " moovel_rot="-86.3" moovel_centroid="540.776816426,2098.64870064" moovel_centroidlatlon="-122.46701812339118,37.753507939554645"/>
  <polygon id="170806681" class="tile" points="569.034150088,2127.25284542 573.19534657,2127.25019137 573.203108141,2115.88421877 568.837173803,2115.88754357 568.846079642,2088.9324127 552.013129268,2088.94638396 552.007901459,2096.1380165 545.536417915,2096.13862715 545.520702492,2131.61131117 569.163887304,2137.34874221 569.034150088,2127.25284542 " moovel_rot="-80.8" moovel_centroid="558.465246369,2113.06872677" moovel_centroidlatlon="-122.48054966741364,37.790738002599"/>
  <polygon id="79375248" class="tile" points="0.0107143063098,2292.06818714 0.0,2254.71843458 31.5844432186,2254.74882196 31.5951528288,2292.09860383 0.0107143063098,2292.06818714 " moovel_rot="9.1" moovel_centroid="15.797579654332148,2273.40851142" moovel_centroidlatlon="-122.41068390000001,37.784509699999994"/>
  <polygon id="350719351" class="tile" points="33.5951528288,2254.71843458 47.8113038629,2254.84348328 47.2169197883,2277.61823871 33.6207219765,2277.8323071 33.6703581654,2275.23096099 33.5951528288,2254.71843458 " moovel_rot="46.0" moovel_centroid="40.5580404941,2266.16145431" moovel_centroidlatlon="-122.41279054320225,37.772507356184335"/>
  <polygon id="386283729" class="tile" points="77.9482244298,2273.16645625 60.3101719726,2293.98095206 48.8113038629,2289.96259939 48.8263599426,2257.99023168 56.784576739,2254.71843458 77.9482244298,2273.16645625 " moovel_rot="48.2" moovel_centroid="59.7372779733,2274.51832954" moovel_centroidlatlon="-122.4734592434296,37.7137619134549"/>
  <polygon id="80296746" class="tile" points="85.4670925278,2254.7499198 85.4550717577,2274.95952163 78.9482244298,2274.92802892 78.9602376807,2254.71843458 85.4670925278,2254.7499198 " moovel_rot="45.1" moovel_centroid="82.2076568022,2264.83897429" moovel_centroidlatlon="-122.39877804999999,37.78819084999999"/>
  <polygon id="350438438" class="tile" points="86.7013484433,2254.71843458 86.814009729,2266.53080335 86.4670925278,2279.01890861 86.4678564198,2280.32354963 99.3313839115,2280.30234275 99.2682653408,2261.08531754 99.3027730428,2257.49647563 99.3335798383,2254.94379998 86.7013484433,2254.71843458 " moovel_rot="37.5" moovel_centroid="92.9821349612,2267.62536616" moovel_centroidlatlon="-122.45198465861897,37.74458371768669"/>
  <polygon id="27956168" class="tile" points="156.284642974,2254.9631557 143.045981489,2254.71843458 139.047760079,2254.99100597 136.221292737,2255.75731647 132.944612249,2258.26674714 100.369931421,2295.11552189 128.874282914,2318.26801936 100.333579838,2350.85146968 156.417772404,2400.28942621 156.284642974,2254.9631557 " moovel_rot="-3.9" moovel_centroid="135.815773048,2321.8452828" moovel_centroidlatlon="-122.3885108560238,37.78620427884954"/>
  <polygon id="54354580" class="tile" points="157.446042145,2254.71843458 157.417772404,2283.90509042 176.240825586,2283.61040936 176.212918371,2254.84946679 157.446042145,2254.71843458 " moovel_rot="9.3" moovel_centroid="166.806389867,2269.27816681" moovel_centroidlatlon="-122.42893197213249,37.785406845036"/>
  <polygon id="162591451" class="tile" points="177.240825586,2276.58125947 177.252329643,2254.71843458 186.951619185,2254.72971407 186.947189055,2255.76617084 192.686361912,2255.77518625 192.679287819,2276.6015573 177.240825586,2276.58125947 " moovel_rot="3.2" moovel_centroid="184.877770268,2265.84676761" moovel_centroidlatlon="-122.48105900995459,37.780565525636426"/>
  <polygon id="105026964" class="tile" points="193.733510759,2318.0360237 193.686361912,2255.81724635 201.887473914,2254.71843458 225.394896622,2283.51240369 208.138007422,2295.83998315 213.980422832,2303.82263152 193.733510759,2318.0360237 " moovel_rot="-36.2" moovel_centroid="204.258381045,2284.31466563" moovel_centroidlatlon="-122.36153846006694,37.812063386610234"/>
  <polygon id="30198536" class="tile" points="226.394896622,2284.00756923 233.539385472,2283.89642057 242.893814181,2289.22517162 251.044849904,2297.28364305 251.06794913,2280.31642014 250.579341452,2265.72011077 248.085557446,2258.58706431 239.707267514,2254.71843458 232.704248273,2257.35306427 229.054010034,2265.73912102 227.238278364,2274.0778799 226.394896622,2284.00756923 " moovel_rot="-48.3" moovel_centroid="240.254786068,2273.60826483" moovel_centroidlatlon="-122.45850910890758,37.79204284261434"/>
  <polygon id="111586252" class="tile" points="292.778199016,2286.71741106 292.966420631,2254.71843458 252.534523671,2255.20731724 252.06794913,2281.06896215 252.538766527,2304.08749162 252.95725774,2324.88850277 292.807743252,2324.30389475 292.955840291,2297.85296271 292.778199016,2286.71741106 " moovel_rot="-81.3" moovel_centroid="272.649458147,2289.69136263" moovel_centroidlatlon="-122.40746549845437,37.787940070230626"/>
  <polygon id="32652548" class="tile" points="314.76388968,2254.78814781 314.531442567,2274.29475318 318.531758101,2278.78798566 318.533784778,2294.90848408 293.981765802,2294.82027608 293.966420631,2254.71843458 314.76388968,2254.78814781 " moovel_rot="59.7" moovel_centroid="305.274510983,2275.65592173" moovel_centroidlatlon="-122.45617662902562,37.80098659377638"/>
  <polygon id="93422632" class="tile" points="363.450476956,2327.24246264 369.871166286,2321.9830476 370.551716507,2281.97642453 358.294548645,2281.6218527 358.680009747,2254.86303464 339.071649826,2254.71843458 338.498134403,2281.21674341 319.533784778,2281.41326754 319.546480099,2327.24961778 363.450476956,2327.24246264 " moovel_rot="-80.8" moovel_centroid="345.378423013,2297.45606075" moovel_centroidlatlon="-122.41679633666901,37.80752918066069"/>
  <polygon id="32775002" class="tile" points="377.449446373,2268.05024821 371.568674295,2288.67326634 385.952060999,2292.8340599 390.434116841,2276.82057186 380.985730439,2265.82783476 374.656375704,2254.71843458 371.551716507,2257.69272393 377.449446373,2268.05024821 " moovel_rot="-30.3" moovel_centroid="380.526895089,2277.74165281" moovel_centroidlatlon="-122.4511156252469,37.793253338173784"/>
  <polygon id="37191367" class="tile" points="391.434116841,2284.14494058 405.58119299,2284.17008714 405.602486207,2254.74357205 391.45540878,2254.71843458 391.434116841,2284.14494058 " moovel_rot="8.0" moovel_centroid="398.518301569,2269.44425837" moovel_centroidlatlon="-122.4181026,37.782559"/>
  <polygon id="32609898" class="tile" points="406.607756381,2254.71843458 417.600368597,2254.7337221 417.595097075,2284.97019514 406.602486207,2284.9548993 406.607756381,2254.71843458 " moovel_rot="9.2" moovel_centroid="412.101427317,2269.84431247" moovel_centroidlatlon="-122.4094381,37.79917765"/>
  <polygon id="32864906" class="tile" points="418.600368597,2286.7456312 434.779062342,2286.67801841 434.781679093,2254.71843458 418.602955538,2254.78601818 418.600368597,2286.7456312 " moovel_rot="-45.6" moovel_centroid="426.691015156,2270.73202069" moovel_centroidlatlon="-122.41024755000001,37.779109150000004"/>
  <polygon id="30130561" class="tile" points="437.758538684,2340.56102733 441.612456403,2340.29978279 478.641570976,2339.33751803 478.71891842,2254.71843458 435.781679093,2255.68683926 436.755734697,2285.75789056 437.758538684,2340.56102733 " moovel_rot="-28.2" moovel_centroid="457.781566962,2297.20520753" moovel_centroidlatlon="-122.45214565806165,37.80108201489451"/>
  <polygon id="392871258" class="tile" points="491.323833281,2255.24113874 479.71891842,2254.71843458 479.719383512,2265.59046778 485.858554812,2265.87832425 484.870582819,2285.44771981 489.868472061,2285.80704071 491.323833281,2255.24113874 " moovel_rot="13.1" moovel_centroid="486.481947943,2267.20963641" moovel_centroidlatlon="-122.40985829178315,37.797821673650695"/>
  <polygon id="259001376" class="tile" points="492.354417322,2254.71843458 509.333483495,2254.72732219 509.302359704,2292.42738974 495.737014639,2292.42956646 495.729623294,2294.8260312 492.323833281,2294.82221694 492.354417322,2254.71843458 " moovel_rot="-86.0" moovel_centroid="500.742958887,2273.82778002" moovel_centroidlatlon="-122.40622764580314,37.73656795192831"/>
  <polygon id="112774491" class="tile" points="510.34725372,2254.82925098 538.231547719,2254.71843458 538.217695712,2305.66594002 510.333483495,2305.77683678 510.34725372,2254.82925098 " moovel_rot="-45.5" moovel_centroid="524.282491484,2280.24760315" moovel_centroidlatlon="-122.39611829999998,37.784478"/>
  <polygon id="288959627" class="tile" points="543.068307281,2254.76664191 554.011031389,2254.71843458 554.011039755,2297.6477339 543.062628164,2297.6897993 543.066265335,2285.98573883 539.233621612,2286.00511286 539.231547719,2282.86698052 543.069905234,2282.85377682 543.068307281,2254.76664191 " moovel_rot="-42.8" moovel_centroid="548.355090014,2276.4125515" moovel_centroidlatlon="-122.48292561690722,37.72162419955538"/>
  <polygon id="436480425" class="tile" points="581.726498147,2282.67934083 555.029945721,2282.73684033 555.011039755,2254.7759302 581.707613383,2254.71843458 581.726498147,2282.67934083 " moovel_rot="-79.6" moovel_centroid="568.368773937,2268.72763463" moovel_centroidlatlon="-122.42248924999998,37.78103745"/>
  <polygon id="162651486" class="tile" points="14.9550698061,2421.27519619 0.0122069433331,2421.27593905 0.0,2400.29002487 7.33778209873,2400.28942621 7.69852140807,2400.49492466 14.9525241639,2404.63143652 14.9550698061,2421.27519619 " moovel_rot="1.9" moovel_centroid="7.205296810442506,2411.284637" moovel_centroidlatlon="-122.47462542447727,37.73204997639557"/>
  <polygon id="195523230" class="tile" points="16.9550698061,2400.28942621 36.7732072141,2400.80407221 37.1365853947,2428.92826177 50.5102938637,2428.49110263 49.8998468719,2452.33181262 21.3580182258,2453.06021455 16.9579138886,2446.87180474 16.9550698061,2400.28942621 " moovel_rot="-91.1" moovel_centroid="30.903276304,2429.7200581" moovel_centroidlatlon="-122.47673336103229,37.73049848831226"/>
  <polygon id="28136665" class="tile" points="51.6073728874,2400.28942621 59.7878031749,2402.6219143 60.2335512701,2415.94025709 66.2376954809,2420.82419529 67.3620986402,2430.43804527 67.9111994259,2440.44359428 67.769259027,2567.69515628 67.4252539828,2574.83123471 66.6252849106,2582.10015109 64.2775333766,2598.7206402 59.2000767712,2607.04127158 59.1106427941,2620.20524271 51.5102938637,2623.04489637 51.5561605878,2606.69761485 51.6569744188,2571.78861366 51.7548359726,2537.18350656 51.8528727852,2502.71350423 51.9530005898,2467.87994578 52.0545157537,2433.5113607 52.1265582439,2408.13601658 51.6073728874,2400.28942621 " moovel_rot="5.6" moovel_centroid="59.2801189197,2510.16032383" moovel_centroidlatlon="-122.511551350092,37.774969027957574"/>
  <polygon id="252142990" class="tile" points="96.8752539825,2454.49860916 100.478050267,2441.22843294 100.479440734,2401.62066595 86.5424064353,2400.28942621 83.9336901173,2411.33967252 76.526407906,2416.41911939 73.3968976349,2419.92549347 70.803211483,2423.99803802 68.9111994259,2427.44439484 70.7661409315,2430.75689163 78.9493817359,2441.69650433 81.9782942146,2445.70575756 83.6088969395,2448.88572368 84.3817474056,2451.60986765 96.8752539825,2454.49860916 " moovel_rot="17.5" moovel_centroid="88.4853889454,2427.25131027" moovel_centroidlatlon="-122.47656806988708,37.81034880305424"/>
  <polygon id="32775419" class="tile" points="107.14144366,2400.33399568 116.92100715,2400.28942621 116.95250534,2437.6357081 101.496945948,2437.70247579 101.479440734,2407.61097688 107.145649499,2407.58441099 107.14144366,2400.33399568 " moovel_rot="-27.4" moovel_centroid="109.587283938,2420.15079858" moovel_centroidlatlon="-122.4574637284267,37.7944345001863"/>
  <polygon id="27211231" class="tile" points="117.95250534,2456.41811522 143.515141911,2446.10386556 138.808694764,2400.99527737 130.146597227,2400.28942621 118.010860753,2405.15394437 117.95250534,2456.41811522 " moovel_rot="7.1" moovel_centroid="129.419474107,2427.52179136" moovel_centroidlatlon="-122.50765130808465,37.76730215116519"/>
  <polygon id="338711164" class="tile" points="210.404359046,2499.74036373 210.397852397,2500.11777569 146.166630487,2500.12762044 144.533812758,2500.12937248 144.539386168,2499.94417176 144.534025408,2489.66204668 144.537765872,2488.28814673 144.53599861,2483.77168205 144.532446421,2475.46480557 144.52232432,2416.60076391 144.526091881,2413.04866619 144.523365101,2409.2084261 144.52245567,2407.94851419 144.51600419,2404.81662493 144.515141911,2400.28942621 210.403586499,2400.30259994 210.402450329,2412.17228429 210.400511612,2416.73155515 210.405629207,2484.78504366 210.403674037,2489.16276977 210.406434833,2490.21975625 210.404359046,2499.74036373 " moovel_rot="-33.5" moovel_centroid="177.464569796,2450.20757287" moovel_centroidlatlon="-122.48089763251275,37.724655208842854"/>
  <polygon id="71515229" class="tile" points="211.794615849,2429.84389468 211.406434833,2400.37599377 219.001262959,2400.28942621 218.978698585,2429.84130715 211.794615849,2429.84389468 " moovel_rot="8.4" moovel_centroid="215.296105883,2414.95078406" moovel_centroidlatlon="-122.41423111172692,37.788786035300525"/>
  <polygon id="23865235" class="tile" points="247.744718796,2476.38508032 247.841439138,2450.57485813 247.937490348,2422.9188962 220.001262959,2422.62758257 220.082076053,2416.72474092 247.79562296,2416.75132443 248.696225774,2405.99432011 253.926594103,2400.28942621 254.040410788,2406.47288707 258.497738862,2408.969197 278.459869442,2408.7622234 278.449232128,2476.02820515 250.058473664,2476.35529174 247.744718796,2476.38508032 " moovel_rot="-81.1" moovel_centroid="260.823530102,2440.31616585" moovel_centroidlatlon="-122.42943798659532,37.80402579266129"/>
</svg>