<svg xmlns="http://www.w3.org/2000/svg" version="1.1" width="592.5px" height="1200px">
  <polygon id="3" class="bin" points="1.875,0.0 -0.77665042945,1.09834957055 -1.875,3.75 -1.875,1203.749999 -0.77665042945,1206.40164943 1.875,1207.499999 298.124999,1207.499999 300.776649429,1206.40164943 301.874999,1203.749999 301.874999,1145.47000514 301.17557938,1143.28907429 299.338220684,1141.92168255 289.953255509,1138.71283021 288.90713246,1138.25486375 279.475610928,1133.15336273 278.210250951,1132.27216616 273.210291084,1127.87993639 272.520696272,1127.18077298 267.775121317,1121.62604004 266.399835793,1117.6215732 268.1323201,1113.75819862 269.978445214,1111.95708889 271.046276164,1109.95980456 270.769407375,1107.71197199 265.832412693,1096.92772441 263.734007063,1094.97540079 260.869592595,1095.07541811 260.692246064,1095.15611629 256.302550008,1095.30927874 253.086991933,1092.31710955 247.176943867,1079.40382655 247.008189919,1074.22519027 247.562668423,1072.74478353 247.410421927,1069.28397389 250.29368434,1066.05033648 278.243857486,1052.32257934 280.030590508,1050.44979687 280.178462015,1047.86564071 279.511543498,1045.67247449 279.262690003,1042.8711575 279.945159162,1037.11441391 280.427087543,1035.27831517 282.481559872,1030.35557844 283.085880221,1029.22014952 284.845338052,1026.55123013 285.430250113,1023.98186274 284.180381558,1021.66203527 281.712891561,1020.73723042 264.809311272,1020.74429569 260.745384327,1019.06279482 259.061022605,1015.00005276 259.028370714,900.86803376 257.214586522,897.657632018 256.159543048,897.021540515 254.85061216,893.354433931 254.832965802,769.272705064 258.339818468,763.361490365 264.248233535,760.135511098 265.888440486,758.343357516 266.08600614,755.921981644 264.75801132,753.88764562 262.954174533,752.48018097 262.904362971,752.422437933 262.069249257,751.213882642 262.056481759,751.190374337 261.226516889,747.926147267 261.178109737,636.571985153 261.180678945,636.381037849 261.3966468,628.48459806 261.533802258,627.293809103 262.644512169,621.870424161 263.039760204,620.590955401 266.323711051,612.763202855 266.423253458,612.498335553 266.808794282,611.341722708 266.829114735,611.278925019 266.985114131,610.781939591 267.118871858,610.193894293 267.178744801,609.778532892 269.123813152,606.226911456 272.922098492,604.823225525 298.110408776,604.921227093 300.771485979,603.828059321 301.874999,601.171255476 301.874999,597.702055678 300.71163994,594.986951877 297.943378388,593.956456399 296.553691725,594.633353043 296.427116028,594.378381312 291.771638817,596.68950135 287.574134958,595.233971058 248.912388038,560.56009103 247.136107595,557.578844562 247.369930568,554.116427844 248.492088608,551.221645926 248.592911551,548.807038625 247.199688071,546.8323432 244.891057311,546.117698046 244.452324882,546.12993476 239.739837587,543.815049313 238.9800435,538.619960856 245.25627657,520.835621629 249.601926141,516.632428566 249.819710208,516.563640392 251.708536177,515.213188764 260.278277092,503.590243394 260.813661666,502.562306973 275.665070716,458.48895247 278.04397828,455.719100747 278.745988297,454.493456663 293.718924188,410.879227723 293.20474176,407.455768441 290.106068305,405.912175281 269.455462235,406.275930324 265.329179823,404.629422226 263.613205039,400.531541555 263.721506726,250.113672338 264.86311802,246.657837827 267.835639855,244.557794384 294.763151583,236.324567907 297.017390076,234.42226198 297.198568727,231.478194502 296.866843226,231.119920293 294.738295544,225.822448285 294.788541711,205.560415265 293.998043651,203.248092631 287.847974831,195.344972693 287.742617537,195.205981481 284.965534975,191.444168911 284.098149656,189.875183031 282.790072718,186.543283973 282.3312867,184.502706387 282.088839996,180.95349717 282.072861657,180.493119244 282.024426369,139.517520465 280.817840514,136.766312066 279.86741676,135.889086532 277.681925391,130.883803436 277.922160598,14.0193069511 277.92216744,14.0144448488 277.929957106,3.75284665575 276.83261487,1.09935620641 274.179958187,0.0 1.875,0.0 " moovel_rot="0" moovel_centroid="133.97653883863345,600.6442397010436" moovel_centroidlatlon="0,0"/>
  <polygon id="325485657" class="tile" points="-19.5640624058,1201.0 -51.763502891,1221.82470277 -59.410754532,1230.74606196 -64.370612571,1229.19787967 -71.030306438,1246.53122443 -72.0925147682,1275.83844575 -68.783513457,1290.57675202 -66.6210580099,1295.43812227 -49.5874546345,1294.88885761 -22.1216861736,1296.91833751 -10.5348591711,1295.73575092 -3.22604675032,1296.99433418 -1.00508909263,1279.19808064 -1.0,1255.69132514 -6.55840155371,1228.27354477 -13.9785436485,1209.77679861 -19.5640624058,1201.0 " moovel_rot="31.7" moovel_centroid="-34.89210552412008,1256.4240723171029" moovel_centroidlatlon="-122.56014300794412,45.51194680560835"/>
  <polygon id="323358373" class="tile" points="-115.469605456,1248.89669498 -73.105653245,1248.91579655 -73.0925147682,1201.01245556 -115.446953012,1201.0 -115.469605456,1248.89669498 " moovel_rot="-89.8" moovel_centroid="-94.2781924479,1224.957133726165" moovel_centroidlatlon="-122.70148318845666,45.46664153012039"/>
  <polygon id="331334437" class="tile" points="-116.471373989,1236.3813885 -117.37411893,1236.13723523 -123.398008306,1220.09006372 -118.807388819,1215.5246139 -119.450204229,1201.10099532 -151.72216083,1201.0 -151.717139941,1240.90079766 -151.710196011,1252.93201104 -148.281784029,1252.94594722 -140.39997282,1252.97128482 -116.469605456,1253.04990966 -116.471373989,1236.3813885 " moovel_rot="-47.7" moovel_centroid="-135.209822544,1227.5930240216715" moovel_centroidlatlon="-122.68387056643911,45.49927414942566"/>
  <polygon id="107531559" class="tile" points="-175.38125826,1226.15783792 -152.72216083,1228.5641164 -152.724559667,1226.30420184 -153.176901816,1209.06171465 -152.730795598,1203.39106212 -172.684201144,1201.0 -175.38125826,1226.15783792 " moovel_rot="-96.7" moovel_centroid="-163.515597851,1215.0609714734078" moovel_centroidlatlon="-122.66348546645636,45.522715100664904"/>
  <polygon id="107502321" class="tile" points="-176.38125826,1201.01068591 -176.396928461,1219.4828622 -189.66855631,1219.47217649 -189.652886109,1201.0 -176.38125826,1201.01068591 " moovel_rot="0.2" moovel_centroid="-183.024907297,1210.2414311492626" moovel_centroidlatlon="-122.65989895000003,45.524816"/>
  <polygon id="419052349" class="tile" points="-205.97100413,1212.0493547 -216.438460128,1212.03928024 -216.435438875,1208.29720868 -216.423848278,1201.0 -190.66855631,1201.03077193 -190.698613117,1227.24558353 -205.976947493,1227.22460406 -205.97100413,1212.0493547 " moovel_rot="-88.3" moovel_centroid="-201.207500385,1212.4254432512034" moovel_centroidlatlon="-122.68811674400757,45.52908398785017"/>
  <polygon id="319618209" class="tile" points="-225.389684172,1249.40180677 -225.384227224,1211.91431134 -217.442490454,1211.91585311 -217.438460128,1201.01240553 -261.916219977,1201.0 -261.920612612,1213.76500807 -244.654518382,1213.76793665 -244.665324286,1240.92197968 -241.421926049,1243.39722823 -240.243534362,1245.71593403 -240.244524375,1249.40104038 -225.389684172,1249.40180677 " moovel_rot="0.4" moovel_centroid="-237.188830945,1220.1197605120287" moovel_centroidlatlon="-122.611890209145,45.49794287337026"/>
  <polygon id="212505602" class="tile" points="-262.92677736,1201.0 -285.077524419,1201.01092386 -285.073110057,1227.3673109 -275.967856555,1227.36155224 -275.966106716,1223.40075963 -262.920612612,1223.39559443 -262.92677736,1201.0 " moovel_rot="-90.3" moovel_centroid="-274.441603605,1213.0965137348282" moovel_centroidlatlon="-122.61308920826038,45.4795682883034"/>
  <polygon id="418816413" class="tile" points="-297.575137392,1223.17555861 -286.077524419,1217.61248146 -294.114759199,1201.0 -297.56291259,1202.66689659 -291.046079049,1216.16404709 -296.332461967,1218.72303624 -297.575137392,1223.17555861 " moovel_rot="-64.3" moovel_centroid="-292.298879665,1212.6258853502645" moovel_centroidlatlon="-122.53826083312889,45.533343766672076"/>
  <polygon id="40790377" class="tile" points="-298.575137392,1230.59430958 -313.173299209,1227.5711756 -311.298939278,1218.75079161 -318.176541667,1203.90665122 -332.212229507,1201.0 -334.1814712,1210.50910845 -329.68821978,1211.43961609 -332.12182758,1223.19106367 -328.753524114,1223.88860578 -334.198773907,1250.18272246 -303.884042716,1256.46060149 -298.575137392,1230.59430958 " moovel_rot="-11.7" moovel_centroid="-318.503697044,1231.7676278718345" moovel_centroidlatlon="-122.64710759295363,45.52322917612414"/>
  <polygon id="397207003" class="tile" points="-350.701234296,1201.0 -350.614448748,1255.86677328 -335.727811078,1256.96912625 -335.198773907,1201.86413432 -350.701234296,1201.0 " moovel_rot="49.5" moovel_centroid="-343.053419838,1228.740048763844" moovel_centroidlatlon="-122.72248875000899,45.50966103215928"/>
  <polygon id="444996203" class="tile" points="-358.635252494,1201.0 -385.741398587,1237.34450563 -381.172960551,1246.85512728 -359.61270557,1262.81426293 -351.701234296,1252.1602711 -358.537537227,1247.09902186 -361.349284013,1244.07162598 -363.212253032,1240.39639367 -363.996528675,1236.34217135 -363.638010014,1232.22354877 -361.588818187,1224.33479526 -358.268972967,1215.93363434 -351.73282509,1205.95743565 -358.635252494,1201.0 " moovel_rot="34.8" moovel_centroid="-367.733648298,1234.6852008576734" moovel_centroidlatlon="-122.7390670131769,45.58993942177411"/>
  <polygon id="399566753" class="tile" points="-388.031881392,1202.11516353 -386.741398587,1279.80663402 -448.477206208,1284.77076472 -448.437561502,1248.35331239 -447.063694546,1235.61855807 -447.417258466,1225.15766962 -427.790728985,1215.01344039 -419.561660354,1209.29188265 -405.31914343,1210.56095915 -395.734257545,1201.0 -388.031881392,1202.11516353 " moovel_rot="0.4" moovel_centroid="-416.386787381,1247.0111094361496" moovel_centroidlatlon="-122.55926959006342,45.53174896747565"/>
  <polygon id="107446699" class="tile" points="-471.564444903,1206.45280877 -449.477206208,1201.0 -449.478684277,1232.28135499 -452.979689946,1232.63155011 -459.202839582,1227.5210901 -468.630007191,1225.07686185 -467.635446705,1216.56399296 -468.294136381,1211.20698133 -471.564444903,1206.45280877 " moovel_rot="-60.2" moovel_centroid="-458.201056102,1215.9661378691687" moovel_centroidlatlon="-122.63018123067357,45.53166837442665"/>
  <polygon id="107541573" class="tile" points="-472.571124074,1201.0 -472.564444903,1227.07055784 -482.135694721,1227.07055784 -482.135694721,1201.00950095 -472.571124074,1201.0 " moovel_rot="0" moovel_centroid="-477.351448685,1214.0391700726898" moovel_centroidlatlon="-122.66203892935562,45.51816765904457"/>
  <polygon id="107445446" class="tile" points="-483.135694721,1227.46711867 -500.093241384,1254.96240447 -525.759925798,1253.43497812 -525.714204149,1201.0 -483.135694721,1227.46711867 " moovel_rot="-92.2" moovel_centroid="-509.429586497,1231.7384696598729" moovel_centroidlatlon="-122.62806411539285,45.532065247786676"/>
  <polygon id="207147902" class="tile" points="-553.312706341,1201.0 -553.323499415,1227.66168589 -526.768860814,1227.67288203 -526.759925798,1208.83398087 -542.831460135,1208.82859127 -542.829599925,1201.00580649 -553.312706341,1201.0 " moovel_rot="-88.9" moovel_centroid="-541.173087802,1216.370047716678" moovel_centroidlatlon="-122.67525526590374,45.52642272528026"/>
  <polygon id="186238384" class="tile" points="-554.536679697,1243.38741211 -554.323499415,1240.24783391 -558.126549801,1239.98150615 -557.489167948,1230.8300986 -567.390670655,1230.14373941 -565.438149394,1201.98261313 -579.521877151,1201.0 -581.415784542,1228.25445299 -578.646224889,1228.4422299 -581.423495416,1268.52107914 -576.548424801,1268.8542689 -574.690403889,1241.98600996 -554.536679697,1243.38741211 " moovel_rot="-92.5" moovel_centroid="-572.322879671,1229.189502237155" moovel_centroidlatlon="-122.69932674788429,45.53521081428544"/>
  <polygon id="450240960" class="tile" points="-1.72178765461,1316.61365331 -15.8092251543,1316.58480712 -15.7958559617,1296.99474996 -4.07697940618,1296.99433418 0.0,1305.7703397 -1.64339532852,1307.02889374 -1.72178765461,1316.61365331 " moovel_rot="-89.9" moovel_centroid="-8.766837709012623,1306.95068498" moovel_centroidlatlon="-122.68600014292257,45.58354671303999"/>
  <polygon id="297372793" class="tile" points="-33.037979706,1296.99433418 -33.0486241832,1324.91852533 -22.916286331,1324.92538057 -22.9158762872,1320.98102235 -17.8196346946,1320.9798027 -17.8092251543,1304.60358675 -23.0456952773,1304.59481246 -23.0459035564,1297.00069966 -33.037979706,1296.99433418 " moovel_rot="-0.2" moovel_centroid="-26.2516332833,1311.4069942" moovel_centroidlatlon="-122.57920935726436,45.53881780892491"/>
  <polygon id="32550291" class="tile" points="-34.7974301409,1296.99433418 -45.7291587666,1297.30330085 -45.7881800395,1332.18164427 -34.0486241832,1331.8219516 -34.7974301409,1296.99433418 " moovel_rot="-41.2" moovel_centroid="-40.0895282733,1314.78237867" moovel_centroidlatlon="-122.77718920702797,45.54326711995449"/>
  <polygon id="101641313" class="tile" points="-46.7881800395,1347.17878485 -81.7673634112,1362.92720102 -84.88058859,1358.20558591 -84.8134296134,1303.73309799 -64.3065862726,1296.99433418 -46.7881800395,1347.17878485 " moovel_rot="-91.2" moovel_centroid="-69.8074931531,1330.78963462" moovel_centroidlatlon="-122.6906621943205,45.520207164998524"/>
  <polygon id="225499348" class="tile" points="-85.88058859,1297.00913634 -85.9016981527,1334.97095093 -103.434676356,1334.95617262 -103.406887665,1296.99433418 -85.88058859,1297.00913634 " moovel_rot="0.2" moovel_centroid="-94.655964602,1315.98385386" moovel_centroidlatlon="-122.61065692490871,45.49796693730897"/>
  <polygon id="355389220" class="tile" points="-125.086840905,1318.99950266 -104.434676356,1318.98609588 -104.451419256,1296.99433418 -125.103583809,1297.00774131 -125.086840905,1318.99950266 " moovel_rot="-0.2" moovel_centroid="-114.769130054,1307.99691851" moovel_centroidlatlon="-122.65947409999998,45.51031570000001"/>
  <polygon id="35567194" class="tile" points="-127.417076932,1332.86045052 -126.737076751,1353.63392744 -158.710755837,1385.44552613 -171.245261201,1378.26897569 -171.24109966,1306.49120542 -165.94075934,1298.8885689 -147.4672527,1296.99433418 -140.148413285,1300.14499476 -126.103583809,1320.43934904 -127.417076932,1332.86045052 " moovel_rot="51.0" moovel_centroid="-151.369322165,1337.97987562" moovel_centroidlatlon="-122.77802895199754,45.542225441488874"/>
  <polygon id="115828083" class="tile" points="-215.851823041,1336.38331182 -211.739469453,1339.56008194 -215.430914356,1344.32831103 -182.492312518,1369.82174995 -172.248163438,1356.57965183 -196.167306536,1338.06068173 -172.245261201,1307.1489432 -185.365964551,1296.99433418 -215.851823041,1336.38331182 " moovel_rot="-38.0" moovel_centroid="-193.080231428,1334.55410109" moovel_centroidlatlon="-122.57925169935623,45.490584811450496"/>
  <polygon id="107665881" class="tile" points="-251.685782551,1349.8180757 -251.732682003,1297.02287286 -216.88587909,1296.99433418 -216.851823041,1331.36120505 -228.153459704,1331.36712115 -228.170018227,1317.95681658 -239.585196448,1317.96174209 -239.559930121,1341.85502315 -239.55587748,1349.80988419 -251.685782551,1349.8180757 " moovel_rot="-0.5" moovel_centroid="-236.342911343,1317.58287482" moovel_centroidlatlon="-122.6199278917552,45.534222583522975"/>
  <polygon id="107522609" class="tile" points="-252.746835836,1306.134445 -252.732682003,1324.28080302 -258.416731386,1327.69873011 -258.417494466,1296.99433418 -252.746835836,1306.134445 " moovel_rot="-59.5" moovel_centroid="-255.821847946,1313.66058672" moovel_centroidlatlon="-122.65232072261573,45.52346661495344"/>
  <polygon id="212506494" class="tile" points="-259.417494466,1310.57373846 -259.768411312,1297.0112764 -274.096241935,1296.99433418 -274.11692517,1313.15234762 -270.451848474,1313.16072237 -270.450365146,1310.58240606 -259.417494466,1310.57373846 " moovel_rot="-89.4" moovel_centroid="-267.099110018,1304.18748979" moovel_centroidlatlon="-122.61163558649017,45.47898240098078"/>
  <polygon id="115828075" class="tile" points="-280.393643408,1296.99767977 -280.387578366,1323.33432905 -275.11692517,1323.33104975 -275.132486574,1296.99433418 -280.393643408,1296.99767977 " moovel_rot="-90.4" moovel_centroid="-277.75765555,1310.16830607" moovel_centroidlatlon="-122.5783356092541,45.491480925320744"/>
  <polygon id="107520830" class="tile" points="-281.393643408,1297.01362696 -281.420666407,1329.5136097 -304.979591544,1329.4942486 -304.959247365,1296.99433418 -281.393643408,1297.01362696 " moovel_rot="0.6" moovel_centroid="-293.188282163,1313.25318718" moovel_centroidlatlon="-122.65428337519698,45.526304308077826"/>
  <polygon id="40775801" class="tile" points="-305.979591544,1349.16547315 -306.028701635,1296.99433418 -332.458023395,1297.01311898 -332.418412641,1349.18429111 -305.979591544,1349.16547315 " moovel_rot="-89.8" moovel_centroid="-319.22118209,1323.09086671" moovel_centroidlatlon="-122.65416582339301,45.51316047494484"/>
  <polygon id="36805715" class="tile" points="-364.476088826,1332.8666635 -352.861014259,1332.85589469 -333.458023395,1332.84103674 -333.480512679,1296.99433418 -363.710437315,1297.01858517 -363.695802787,1309.2304276 -352.074032475,1309.22915054 -352.067044364,1317.05992448 -364.490313788,1317.06260045 -364.476088826,1332.8666635 " moovel_rot="0.1" moovel_centroid="-347.933365664,1315.21640349" moovel_centroidlatlon="-122.66134613718103,45.532464722329046"/>
  <polygon id="41375066" class="tile" points="-378.628157127,1318.77510575 -365.490313788,1318.77510575 -365.490313788,1296.99433418 -378.628157127,1296.99433418 -378.628157127,1318.77510575 " moovel_rot="-90.0" moovel_centroid="-372.059235457,1307.88471996" moovel_centroidlatlon="-122.66123445,45.550305099999996"/>
  <polygon id="331334469" class="tile" points="-379.628157127,1299.23797156 -379.630094516,1331.54787213 -383.782356407,1331.48825698 -388.386793599,1330.9027154 -393.983697321,1329.49224652 -389.667990597,1313.58034748 -394.808464164,1311.93320324 -391.16802182,1300.50469821 -390.453440128,1300.711937 -389.245825033,1296.99433418 -383.967289061,1298.70637652 -379.628157127,1299.23797156 " moovel_rot="59.8" moovel_centroid="-385.965349971,1314.91838014" moovel_centroidlatlon="-122.68503077120532,45.50018362072037"/>
  <polygon id="425379528" class="tile" points="-413.050448966,1296.99433418 -395.808464164,1309.75378323 -403.665606604,1320.36643514 -396.719548146,1325.50920159 -404.911710311,1336.57229812 -413.042158552,1330.5525527 -413.050448966,1296.99433418 " moovel_rot="55.3" moovel_centroid="-406.444855709,1317.42304171" moovel_centroidlatlon="-122.61677374223969,45.531097876192035"/>
  <polygon id="39414123" class="tile" points="-463.29712306,1297.14317966 -466.660392706,1297.15815642 -466.707690761,1362.4205536 -416.215930447,1363.63208138 -414.050448966,1358.38310198 -414.092679914,1296.99433418 -418.149523252,1297.0068899 -463.29712306,1297.14317966 " moovel_rot="-90.2" moovel_centroid="-440.324698011,1330.02116977" moovel_centroidlatlon="-122.62230784310576,45.51621600607108"/>
  <polygon id="107396378" class="tile" points="-467.707690761,1297.50148212 -467.846130567,1323.6106127 -480.765246267,1323.19226102 -480.644558551,1299.31392264 -480.787273752,1296.99433418 -467.707690761,1297.50148212 " moovel_rot="-90.7" moovel_centroid="-474.244783906,1310.31832126" moovel_centroidlatlon="-122.64173907409871,45.526794658826326"/>
  <polygon id="213949790" class="tile" points="-481.787273752,1322.71585941 -487.978785154,1322.71173236 -487.990881337,1296.99686971 -481.789862175,1296.99433418 -481.787273752,1322.71585941 " moovel_rot="-90.1" moovel_centroid="-484.886567751,1309.8514097" moovel_centroidlatlon="-122.63927637575043,45.49018522633856"/>
  <polygon id="107539924" class="tile" points="-488.990881337,1320.10135934 -501.041636242,1320.11145879 -501.045613855,1302.91658835 -499.639043074,1302.91441939 -499.640388546,1297.00243053 -489.00570605,1296.99433418 -488.990881337,1320.10135934 " moovel_rot="-91.0" moovel_centroid="-494.857445917,1308.81888225" moovel_centroidlatlon="-122.63753433827942,45.52541039792673"/>
  <polygon id="207232896" class="tile" points="-515.333838502,1322.82509457 -502.045613855,1322.82456603 -502.047816189,1305.67999987 -502.056638963,1296.99433418 -515.344865276,1296.99486276 -515.333838502,1322.82509457 " moovel_rot="-88.5" moovel_centroid="-508.693960312,1309.90944275" moovel_centroidlatlon="-122.68083339643978,45.523985713528845"/>
  <polygon id="261138691" class="tile" points="-516.344865276,1313.17128258 -525.779349497,1313.12452839 -525.693840652,1297.03440919 -521.798436245,1297.02773002 -516.354366273,1296.99433418 -516.344865276,1313.17128258 " moovel_rot="-90" moovel_centroid="-521.038853895,1305.09727711" moovel_centroidlatlon="-122.65824771662493,45.51851509474828"/>
  <polygon id="107531827" class="tile" points="-549.827613559,1297.00256624 -526.816926798,1296.99433418 -526.779349497,1348.5615912 -549.790119155,1348.57932239 -549.791147982,1342.5741249 -545.028666918,1342.56817701 -545.044335778,1322.16745182 -549.806816839,1322.17339989 -549.827613559,1297.00256624 " moovel_rot="-0.5" moovel_centroid="-537.49000522,1321.92906318" moovel_centroidlatlon="-122.66040696741602,45.521868701978924"/>
  <polygon id="321768740" class="tile" points="-550.836936875,1323.19929908 -550.827613559,1297.02625874 -564.194010041,1296.99433418 -564.199920467,1323.15848363 -550.836936875,1323.19929908 " moovel_rot="-21.0" moovel_centroid="-557.514241287,1310.09403848" moovel_centroidlatlon="-122.68206745231132,45.52176088187085"/>
  <polygon id="39241921" class="tile" points="-565.199920467,1325.65465028 -565.199920467,1300.43410644 -569.200931614,1296.99433418 -573.772154435,1296.99433418 -573.772154435,1325.65465028 -565.199920467,1325.65465028 " moovel_rot="-90" moovel_centroid="-569.571114846,1311.70438853" moovel_centroidlatlon="-122.6511671377751,45.533770704786555"/>
  <polygon id="369326547" class="tile" points="0.0,1385.44552613 -0.00207710713148,1394.59323 -0.0146228425205,1407.61034432 -0.0185617871583,1412.54648618 -8.38438275307,1412.54662414 -8.39603926241,1422.19049208 -8.39297144115,1426.23993148 -16.1164305724,1427.21133518 -38.5662788115,1429.90938256 -38.9950500593,1421.35632008 -40.4391515359,1392.44057177 -40.696360635,1387.23818311 -39.2955459371,1387.16144144 -31.7017978281,1386.78103877 -31.6491101459,1387.74900504 -19.4777999975,1387.13875815 -19.5112518176,1386.42662061 -14.3668460146,1386.16368395 0.0,1385.44552613 " moovel_rot="4.3" moovel_centroid="-21.19324603486674,1406.05139355" moovel_centroidlatlon="-122.69471985784371,45.523553972215296"/>
  <polygon id="427286110" class="tile" points="-51.5863071326,1422.87040378 -51.5966820747,1397.28714876 -50.3334071379,1397.289224 -42.696360635,1397.26897842 -42.7323744755,1385.44552613 -49.0966484401,1385.467963 -52.1741107058,1385.46376118 -52.1909942169,1393.06501703 -58.1653876033,1393.05213942 -58.1715576228,1394.33456028 -65.9886178624,1394.31920814 -67.1854097079,1394.31794518 -67.1829378981,1422.88023555 -51.5863071326,1422.87040378 " moovel_rot="-90.7" moovel_centroid="-56.9811406937,1405.01518606" moovel_centroidlatlon="-122.67851387990385,45.499606506433835"/>
  <polygon id="423695807" class="tile" points="-79.7616277982,1402.56686045 -79.8957366005,1386.53434748 -74.7136073191,1386.57000541 -74.6961364511,1385.4937517 -68.1854097079,1385.44552613 -68.1872277182,1402.7380095 -79.7616277982,1402.56686045 " moovel_rot="-88.4" moovel_centroid="-73.9041129205,1394.27550346" moovel_centroidlatlon="-122.68873475953656,45.53012875094852"/>
  <polygon id="107531831" class="tile" points="-80.9064885102,1385.44552613 -80.8957366005,1439.60565609 -92.6045659754,1439.61138653 -133.789244809,1439.62336398 -133.799996745,1385.46323043 -117.255301197,1385.46174686 -80.9064885102,1385.44552613 " moovel_rot="0.4" moovel_centroid="-107.347661012,1412.53591025" moovel_centroidlatlon="-122.65919900293007,45.52185613455517"/>
  <polygon id="446734099" class="tile" points="-134.806785041,1397.13883374 -144.472233045,1397.14585581 -144.492516792,1391.3350138 -144.475018559,1385.45724779 -143.030466856,1385.44552613 -134.799996745,1385.47022993 -134.806785041,1397.13883374 " moovel_rot="-89.8" moovel_centroid="-139.645273866,1391.29867357" moovel_centroidlatlon="-122.64239100924588,45.53531710397368"/>
  <polygon id="302451347" class="tile" points="-145.49887334,1385.44552613 -145.492516792,1394.66715761 -151.343743678,1394.67307661 -151.350100227,1385.45144522 -145.49887334,1385.44552613 " moovel_rot="-0.5" moovel_centroid="-148.421308504,1390.05930139" moovel_centroidlatlon="-122.60191955000002,45.49282095"/>
  <polygon id="186069305" class="tile" points="-177.962607558,1411.22044102 -177.962607558,1385.44552613 -152.350100227,1385.44552613 -152.350100227,1411.22044102 -177.962607558,1411.22044102 " moovel_rot="-90" moovel_centroid="-165.156353893,1398.33298358" moovel_centroidlatlon="-122.61643204999999,45.5137899"/>
  <polygon id="39378623" class="tile" points="-189.815735183,1385.44552613 -193.816751243,1385.44552613 -193.816751243,1400.92116174 -178.962607558,1400.92116174 -178.962607558,1399.20461519 -178.962607558,1385.44552613 -189.815735183,1385.44552613 " moovel_rot="-90.0" moovel_centroid="-186.3896794,1393.18334393" moovel_centroidlatlon="-122.63869174999999,45.53392135"/>
  <polygon id="39273999" class="tile" points="-194.827704542,1411.84990143 -194.830805395,1410.07324506 -194.816751243,1385.45376445 -216.884734876,1385.44552613 -216.895699592,1411.83498395 -194.827704542,1411.84990143 " moovel_rot="-89.9" moovel_centroid="-205.856716612,1398.645714" moovel_centroidlatlon="-122.66335642004692,45.535316894807686"/>
  <polygon id="107665887" class="tile" points="-217.902259105,1460.67935017 -218.740785623,1423.40057613 -218.594662779,1407.15367659 -217.895699592,1385.44552613 -250.152972699,1437.34689742 -243.327081155,1441.82693427 -242.290939327,1445.62092005 -217.902259105,1460.67935017 " moovel_rot="57.8" moovel_centroid="-229.093870428,1428.59286063" moovel_centroidlatlon="-122.61616031922641,45.53195367130426"/>
  <polygon id="132500785" class="tile" points="-251.152972699,1401.53246177 -263.024164003,1401.56994717 -263.0220741,1385.44552613 -251.235439285,1385.49576019 -251.152972699,1401.53246177 " moovel_rot="-89.4" moovel_centroid="-257.114018547,1393.5205248" moovel_centroidlatlon="-122.63600801789815,45.49352461754587"/>
  <polygon id="185665448" class="tile" points="-268.971190278,1452.35802944 -264.024164003,1418.74183831 -269.021844022,1417.92438509 -269.920126373,1385.58660296 -285.11658948,1385.44552613 -285.141564753,1449.64431309 -268.971190278,1452.35802944 " moovel_rot="-8.0" moovel_centroid="-276.376987489,1419.44187201" moovel_centroidlatlon="-122.60138131310882,45.49067269530814"/>
  <polygon id="31732608" class="tile" points="-286.141564753,1437.85829528 -301.545622664,1437.90302687 -301.574221743,1385.48746701 -286.181393238,1385.44552613 -286.141564753,1437.85829528 " moovel_rot="68.7" moovel_centroid="-293.860766068,1411.6767648" moovel_centroidlatlon="-122.68243363001497,45.51308241340335"/>
  <polygon id="117449377" class="tile" points="-312.210450388,1385.44552613 -308.626134552,1389.87862184 -302.726629278,1391.93658009 -302.574221743,1422.2061153 -319.596162951,1422.28999339 -319.555469068,1385.68142388 -312.210450388,1385.44552613 " moovel_rot="-0.9" moovel_centroid="-311.443935149,1405.01309852" moovel_centroidlatlon="-122.67970597648556,45.47094822419707"/>
  <polygon id="36800065" class="tile" points="-330.347750343,1396.30834042 -330.347750343,1385.44552613 -320.596162951,1385.44552613 -320.596162951,1396.30834042 -330.347750343,1396.30834042 " moovel_rot="0" moovel_centroid="-325.471956647,1390.87693327" moovel_centroidlatlon="-122.65636709999998,45.53488385000001"/>
  <polygon id="388367433" class="tile" points="-396.767247359,1452.42486109 -331.389836612,1452.66238574 -331.347750343,1404.36785754 -338.14592887,1385.63981602 -357.705859919,1385.56894717 -357.712109418,1390.1946883 -370.6126615,1390.14877047 -370.606414312,1385.52303349 -390.980565095,1385.44552613 -390.993857587,1399.21681133 -396.726088251,1404.54400876 -396.767247359,1452.42486109 " moovel_rot="-29.1" moovel_centroid="-363.836204685,1420.48022509" moovel_centroidlatlon="-122.68677050456225,45.6143229580251"/>
  <polygon id="344846722" class="tile" points="-434.100363611,1386.19010539 -421.581290464,1385.44552613 -420.830311085,1399.57505054 -404.953308498,1397.98687051 -401.91775623,1398.54033813 -398.349266308,1400.25845383 -397.767247359,1428.67738271 -400.507474431,1436.00918411 -413.575283276,1453.73392884 -421.78082855,1460.72075081 -434.132475777,1457.43136906 -432.208550218,1437.05043877 -434.100363611,1386.19010539 " moovel_rot="53.6" moovel_centroid="-417.941904757,1423.19198631" moovel_centroidlatlon="-122.75096165896467,45.466949763298"/>
  <polygon id="146414770" class="tile" points="-435.132475777,1420.95954458 -453.286917473,1421.08234561 -453.373338554,1405.92922671 -461.006174405,1405.96862423 -461.007145479,1396.55974144 -460.966639411,1385.44552613 -453.217314168,1385.48265738 -453.247336949,1393.60279809 -451.260036822,1393.61385181 -451.266041397,1395.23787995 -439.608996994,1395.28585552 -435.140720386,1395.28576607 -435.132475777,1420.95954458 " moovel_rot="-88.2" moovel_centroid="-447.520504037,1404.94531484" moovel_centroidlatlon="-122.69812392860342,45.52602378881334"/>
  <polygon id="107541137" class="tile" points="-462.541479034,1385.44552613 -462.007145479,1409.90899243 -480.101015511,1410.44101219 -480.101015511,1385.80654121 -462.541479034,1385.44552613 " moovel_rot="0" moovel_centroid="-471.196530094,1397.9622724" moovel_centroidlatlon="-122.66345511725393,45.51488784997911"/>
  <polygon id="423697875" class="tile" points="-494.701329092,1385.44552613 -494.63535781,1398.6566525 -494.697330739,1412.11779113 -494.669287886,1424.54076153 -494.681276451,1428.13408354 -494.752372637,1437.95478665 -481.16138368,1438.04559085 -481.104252815,1429.96469683 -481.101015511,1419.80332383 -481.10806652,1412.13259282 -481.524236578,1411.45764474 -481.494591228,1397.16075709 -481.479540202,1385.45916313 -494.701329092,1385.44552613 " moovel_rot="1.3" moovel_centroid="-487.990695512,1411.9267045" moovel_centroidlatlon="-122.68808275026781,45.530342308468285"/>
  <polygon id="420106910" class="tile" points="-495.757506316,1385.57699023 -495.752372637,1411.547687 -501.228500855,1411.52404798 -501.198434375,1385.44552613 -495.757506316,1385.57699023 " moovel_rot="-88.5" moovel_centroid="-498.48610361,1398.53750063" moovel_centroidlatlon="-122.6891629078636,45.529362926172695"/>
  <polygon id="379696760" class="tile" points="-536.338502124,1395.14180378 -503.296175306,1385.74807728 -502.232483408,1385.44552613 -502.228500855,1393.76753548 -502.466454739,1410.28135526 -502.252764498,1448.89486317 -518.598798985,1453.9886005 -522.478091112,1441.11242865 -533.74304291,1403.75515635 -536.338502124,1395.14180378 " moovel_rot="-3.7" moovel_centroid="-515.442964189,1417.29996424" moovel_centroidlatlon="-122.69325620294713,45.52184867179875"/>
  <polygon id="210896837" class="tile" points="-537.346159114,1385.44552613 -546.349080609,1385.44908357 -546.341505476,1397.26550873 -537.338502124,1397.25527262 -537.346159114,1385.44552613 " moovel_rot="-90.7" moovel_centroid="-541.844235982,1391.35385751" moovel_centroidlatlon="-122.59474237522306,45.48911579553496"/>
  <polygon id="395484894" class="tile" points="-547.375156637,1417.44020757 -568.811485398,1417.42549325 -568.785409024,1385.44552613 -547.349080609,1385.46024044 -547.375156637,1417.44020757 " moovel_rot="-90.2" moovel_centroid="-558.080282917,1401.44286689" moovel_centroidlatlon="-122.62240334999998,45.5485331"/>
  <polygon id="369930099" class="tile" points="-1.47892290205,1525.41752259 -0.0385417588055,1530.57635234 0.0,1533.33484928 -3.68990463316,1539.06798579 -40.478629199,1513.30824352 -4.62992093861,1460.72075081 -0.0429176229984,1463.80214494 -31.2176751293,1509.73109312 -30.1358813111,1510.61903347 -18.7135719482,1518.50286795 -3.80783740282,1528.79320795 -2.69695732892,1527.19015654 -1.47892290205,1525.41752259 " moovel_rot="55.0" moovel_centroid="-18.708357988072244,1505.99918805" moovel_centroidlatlon="-122.68389769295422,45.470731803890416"/>
  <polygon id="115711238" class="tile" points="-42.4966771521,1460.72075081 -51.7740459509,1460.72745036 -51.7626771577,1513.16389255 -42.478629199,1513.15718125 -42.4966771521,1460.72075081 " moovel_rot="0.1" moovel_centroid="-47.1280065849,1486.94546354" moovel_centroidlatlon="-122.58689927492952,45.46829051687063"/>
  <polygon id="363362550" class="tile" points="-65.7845102627,1460.90090332 -65.7702103335,1480.31226222 -52.8798554655,1480.00535062 -52.7740459509,1468.51458177 -52.8828754317,1460.72075081 -57.4940012846,1460.78513845 -65.7845102627,1460.90090332 " moovel_rot="-89.2" moovel_centroid="-59.3095357924,1470.48049607" moovel_centroidlatlon="-122.67572296446349,45.56202688413561"/>
  <polygon id="371454820" class="tile" points="-66.829043103,1546.85085412 -87.1329851046,1594.05598904 -114.518989477,1590.87271147 -114.136678195,1587.50567789 -113.717575017,1583.83652857 -94.9094539542,1586.02411009 -94.4677950285,1582.15251716 -92.5804655485,1582.37466699 -91.8099079028,1575.64366358 -98.4339903746,1574.8726116 -98.5552973587,1575.94460711 -101.673711911,1575.58491378 -100.764988438,1567.6193448 -87.6675519183,1569.14723147 -86.5838624801,1559.64496536 -86.997661256,1559.60089846 -85.9041122768,1550.00736761 -89.6063715737,1549.56863895 -90.699919517,1559.16216782 -92.8887125745,1558.91159633 -92.2495342236,1553.30086705 -107.855004455,1551.48474185 -108.763735112,1559.45032462 -112.839857769,1558.97760353 -111.272245185,1545.21879178 -110.511755839,1538.53605929 -109.734176379,1531.73370732 -109.302586104,1527.91038598 -107.258598446,1528.1498271 -106.722325131,1523.46002393 -108.658362703,1523.24465179 -108.396035592,1520.91814271 -114.185065519,1520.24983352 -114.309223903,1521.34177146 -116.370985223,1521.09307839 -115.422594343,1512.80540492 -102.365073882,1514.32317994 -102.033545374,1511.4008579 -100.857088213,1511.542086 -100.32958044,1506.86912129 -108.005946374,1505.97867479 -107.193095585,1498.86266312 -104.562415808,1499.16120486 -102.295104842,1479.21252762 -100.191340208,1460.72075081 -85.5154549804,1462.42768406 -80.9250321455,1462.95391993 -81.09561508,1464.48219734 -82.4168811917,1464.32984569 -82.8964497332,1468.57802621 -75.6294867869,1469.41596156 -75.1512269478,1465.19922493 -76.5405105028,1465.0328841 -76.3585357394,1463.4248634 -66.7845102627,1464.5320808 -67.1808684025,1468.04181773 -70.9738817938,1501.32163931 -87.9109546147,1499.35855371 -91.6401344746,1532.12519864 -92.9721561082,1543.81137026 -66.829043103,1546.85085412 " moovel_rot="-27.5" moovel_centroid="-91.1329023219,1521.61749937" moovel_centroidlatlon="-122.67957379506967,45.50683218219549"/>
  <polygon id="115712547" class="tile" points="-117.377506213,1460.72075081 -167.889155734,1460.72078817 -167.877936969,1517.20722657 -135.247641571,1517.19761388 -135.259249933,1489.71874915 -117.370985223,1489.70942421 -117.377506213,1460.72075081 " moovel_rot="-0.7" moovel_centroid="-146.024979925,1485.94367289" moovel_centroidlatlon="-122.61792173768829,45.47963167211971"/>
  <polygon id="36805555" class="tile" points="-203.71047008,1514.52813987 -217.899329899,1514.53481904 -217.918337053,1460.72742997 -196.250136746,1460.72075081 -196.240633131,1489.94211714 -179.656797251,1489.93543797 -179.675804542,1461.94971798 -168.908163064,1461.94971798 -168.889155734,1502.46555985 -203.719973683,1502.47891819 -203.71047008,1514.52813987 " moovel_rot="-90" moovel_centroid="-196.818168198,1486.19502492" moovel_centroidlatlon="-122.6600765988812,45.533946022280965"/>
  <polygon id="213949774" class="tile" points="-218.918996639,1482.8622301 -232.602945044,1482.8650638 -232.611781463,1460.72356793 -218.918337053,1460.72075081 -218.918996639,1482.8622301 " moovel_rot="-90.1" moovel_centroid="-225.763016241,1471.79162317" moovel_centroidlatlon="-122.63926123083603,45.48988942496392"/>
  <polygon id="39379701" class="tile" points="-246.897553732,1487.96393235 -233.611781463,1487.56655514 -234.482425201,1460.72075081 -243.957751118,1461.14674007 -245.727503347,1469.79638869 -246.897823816,1478.38704949 -246.897553732,1487.96393235 " moovel_rot="2.0" moovel_centroid="-240.075589797,1475.08925749" moovel_centroidlatlon="-122.62757520285632,45.53938697067636"/>
  <polygon id="31742358" class="tile" points="-300.346050184,1501.38517527 -294.866748426,1501.37071995 -294.860485427,1491.14131478 -294.865181167,1480.67214515 -294.867397006,1475.54471182 -300.355593685,1475.55580603 -300.355551062,1472.2499531 -300.353147763,1468.93785209 -294.609729071,1468.92323676 -294.602617692,1460.81476362 -253.904342493,1460.72075081 -253.900251763,1469.28328354 -247.901656192,1469.26513004 -247.902796363,1472.1707223 -247.910462405,1475.06670855 -253.797137694,1475.08431257 -253.799814976,1480.57404235 -253.794613707,1491.47180935 -253.795251046,1502.43877119 -247.899698536,1502.42452159 -247.900682915,1507.37224302 -247.897823816,1515.42736284 -247.897938132,1524.43099319 -264.028982696,1524.46893036 -264.031237747,1515.47154481 -264.031478158,1507.62447757 -294.982075537,1507.69611593 -300.34945652,1507.71002196 -300.346050184,1501.38517527 " moovel_rot="69.3" moovel_centroid="-272.236102744,1488.15581808" moovel_centroidlatlon="-122.67707924548112,45.512160028800686"/>
  <polygon id="419052353" class="tile" points="-301.355593685,1460.7490944 -311.823016156,1460.72075081 -311.762837045,1471.72395257 -311.809441077,1475.84122747 -301.388022832,1475.92431028 -301.355593685,1460.7490944 " moovel_rot="-88.4" moovel_centroid="-306.578308327,1468.30059519" moovel_centroidlatlon="-122.68821983309056,45.52897684268125"/>
  <polygon id="41691038" class="tile" points="-312.823016156,1486.52238238 -312.823016156,1460.72075081 -329.389814036,1460.72075081 -329.389814036,1467.02588677 -325.958599672,1467.02588677 -325.958599672,1486.52238238 -312.823016156,1486.52238238 " moovel_rot="-90.0" moovel_centroid="-319.887835916,1473.0366434" moovel_centroidlatlon="-122.65013019256313,45.540692870739136"/>
  <polygon id="225499335" class="tile" points="-343.509106299,1460.73064471 -330.404163185,1460.72075081 -330.389814036,1486.85735715 -343.488078229,1486.86719328 -343.509106299,1460.73064471 " moovel_rot="0.5" moovel_centroid="-336.947788985,1473.79287615" moovel_centroidlatlon="-122.6069776251671,45.4950024616908"/>
  <polygon id="445118734" class="tile" points="-375.488860297,1460.78440322 -375.485799288,1481.92179685 -368.305112405,1481.90671409 -368.299310836,1493.00479969 -348.684113435,1492.95742982 -348.689795994,1488.38521312 -344.509106299,1488.37769946 -344.514465569,1460.72075081 -375.488860297,1460.78440322 " moovel_rot="70.5" moovel_centroid="-359.230282533,1475.63684821" moovel_centroidlatlon="-122.74692264107249,45.58922877836925"/>
  <polygon id="107535788" class="tile" points="-376.488860297,1460.72575928 -376.50352956,1483.93748807 -393.842863497,1483.93221069 -395.60614006,1483.92297811 -395.591520547,1460.72075081 -376.488860297,1460.72575928 " moovel_rot="-0.3" moovel_centroid="-386.047303617,1472.32871305" moovel_centroidlatlon="-122.66209310328301,45.519877454288256"/>
  <polygon id="433216940" class="tile" points="-399.645579689,1472.77309677 -396.608301565,1472.75810661 -396.60614006,1460.72075081 -399.643420734,1460.73573871 -399.645579689,1472.77309677 " moovel_rot="48.5" moovel_centroid="-398.12586056,1466.74692238" moovel_centroidlatlon="-122.67359535,45.607790200000004"/>
  <polygon id="39986439" class="tile" points="-439.057483181,1460.72075081 -448.802391407,1460.72075081 -448.802391407,1499.57233105 -451.667755099,1499.57233105 -451.667755099,1559.57017449 -400.645579689,1559.57017449 -400.645579689,1540.14463953 -406.950715646,1540.14463953 -406.950715646,1523.57154982 -403.510943382,1523.57154982 -401.219988261,1523.57154982 -401.219988261,1505.28689339 -407.525124221,1505.28689339 -407.525124221,1498.43131953 -439.057483181,1498.43131953 -439.057483181,1469.85840943 -439.057483181,1460.72075081 " moovel_rot="0" moovel_centroid="-429.19594889,1523.90356152" moovel_centroidlatlon="-122.63011784636639,45.56196530662628"/>
  <polygon id="39376152" class="tile" points="-452.667755099,1484.22474809 -452.667755099,1460.72075081 -457.239104361,1460.72075081 -457.239104361,1484.22474809 -452.667755099,1484.22474809 " moovel_rot="-90" moovel_centroid="-454.95342973,1472.47274945" moovel_centroidlatlon="-122.63471715,45.53529585"/>
  <polygon id="370754979" class="tile" points="-458.264746211,1481.58096972 -458.335609848,1479.48046236 -458.267911461,1464.79167162 -458.247981815,1463.2751102 -458.239104361,1460.72075081 -475.829353112,1461.86232289 -474.174722697,1486.80787108 -463.714962821,1484.99230253 -463.683005306,1482.38857462 -458.264746211,1481.58096972 " moovel_rot="4.3" moovel_centroid="-466.958173593,1472.82134527" moovel_centroidlatlon="-122.6978222423927,45.52363158890724"/>
  <polygon id="107747916" class="tile" points="-476.829353112,1460.72075081 -502.452924928,1460.80410417 -502.668010993,1481.34255953 -492.638339631,1481.62819203 -492.418939029,1512.34159767 -476.833508966,1512.14361958 -476.829353112,1460.72075081 " moovel_rot="-0.6" moovel_centroid="-487.309854721,1483.34573444" moovel_centroidlatlon="-122.67452504265519,45.53999161684592"/>
  <polygon id="315564688" class="tile" points="-534.286647143,1460.72075081 -534.30605453,1477.27840321 -522.499014806,1477.29233123 -522.515134799,1491.96646072 -503.694047059,1491.98595139 -503.668010993,1460.75415292 -534.286647143,1460.72075081 " moovel_rot="-90.1" moovel_centroid="-516.909487431,1474.52535918" moovel_centroidlatlon="-122.73077582705616,45.46090994044356"/>
  <polygon id="39335668" class="tile" points="-538.288959466,1484.12143039 -538.29987318,1471.55042993 -535.30605453,1471.54838459 -535.316217239,1460.72075081 -541.332361915,1460.72454294 -541.326584129,1462.89545255 -546.287812654,1462.90361261 -546.27251446,1484.13133724 -538.288959466,1484.12143039 " moovel_rot="-90.6" moovel_centroid="-541.358994095,1471.99717811" moovel_centroidlatlon="-122.65889926794446,45.53379276186324"/>
  <polygon id="41936734" class="tile" points="-571.67329497,1500.63123747 -560.820870399,1499.42143371 -547.287812654,1486.46833359 -547.871801311,1462.53134387 -571.674072462,1460.72075081 -571.67329497,1500.63123747 " moovel_rot="-77.6" moovel_centroid="-560.567364802,1479.23358297" moovel_centroidlatlon="-122.59624881500318,45.515618735596576"/>
  <polygon id="432715740" class="tile" points="-577.782906011,1460.72823735 -572.681720602,1460.72075081 -572.674072462,1470.27358812 -577.775255948,1470.2810751 -577.782906011,1460.72823735 " moovel_rot="77.3" moovel_centroid="-575.228488775,1465.50091255" moovel_centroidlatlon="-122.55480259999999,45.475984000000004"/>
  <polygon id="107395184" class="tile" points="-25.9591107633,1594.05918368 -0.00652900189161,1594.05598904 0.0,1634.24895363 -2.52972554192,1635.27875654 -26.4960611455,1620.99397383 -25.9591107633,1594.05918368 " moovel_rot="-1.0" moovel_centroid="-12.177106403972967,1611.75887685" moovel_centroidlatlon="-122.64010143655928,45.528325999085965"/>
  <polygon id="405571514" class="tile" points="-28.51312185,1594.06632421 -28.4960611455,1620.40038869 -33.1192460068,1620.43898234 -33.4586847946,1611.13160449 -30.2800535522,1610.94384935 -30.4258763492,1603.61604948 -33.3914344229,1603.50936178 -33.3722129107,1594.05598904 -28.51312185,1594.06632421 " moovel_rot="-50.8" moovel_centroid="-30.723762875,1607.13894934" moovel_centroidlatlon="-122.69355755538568,45.467865311582884"/>
  <polygon id="375175003" class="tile" points="-34.4597712915,1619.6541863 -45.9815610252,1619.63708157 -45.9405896991,1594.07906086 -38.1014097288,1594.08522433 -34.6406665955,1594.05598904 -34.5586635858,1604.78746114 -34.4586847946,1617.06806529 -34.4597712915,1619.6541863 " moovel_rot="1.9" moovel_centroid="-40.2501113154,1606.90653743" moovel_centroidlatlon="-122.69933638303698,45.527148897620165"/>
  <polygon id="451750320" class="tile" points="-58.5274100754,1608.42984064 -58.5292534068,1599.73351547 -58.5205585144,1594.0561565 -56.3725813724,1594.06201704 -46.9919141419,1594.05598904 -46.9815610252,1605.1901962 -47.646850501,1605.19251851 -47.6422259569,1609.24010371 -58.5245656867,1609.24469435 -58.5274100754,1608.42984064 " moovel_rot="-89.8" moovel_centroid="-52.8408754991,1601.56592882" moovel_centroidlatlon="-122.64603253186762,45.53728728364131"/>
  <polygon id="326325857" class="tile" points="-59.6108714961,1666.51558964 -70.7211380579,1677.93833193 -79.8381448731,1681.84724143 -97.8723231517,1681.43029188 -98.1092889555,1596.87066434 -85.7955185436,1597.26764582 -81.6697468542,1594.05598904 -59.5292534068,1594.13327426 -59.6108714961,1666.51558964 " moovel_rot="-90.2" moovel_centroid="-79.1303589001,1636.90065525" moovel_centroidlatlon="-122.59636723041794,45.52680549700929"/>
  <polygon id="39378873" class="tile" points="-99.1279342677,1615.63626997 -99.1092889555,1594.06255234 -110.523547713,1594.05598904 -110.542181411,1615.62302751 -99.1279342677,1615.63626997 " moovel_rot="-90.1" moovel_centroid="-104.825443555,1604.84445905" moovel_centroidlatlon="-122.62169317498224,45.535958853099025"/>
  <polygon id="368336186" class="tile" points="-111.542181411,1634.59711456 -111.570658815,1597.60144551 -123.785578416,1594.05598904 -124.111950739,1634.25678285 -111.542181411,1634.59711456 " moovel_rot="-21.2" moovel_centroid="-117.840123994,1615.20300305" moovel_centroidlatlon="-122.68788108516259,45.52262982926286"/>
  <polygon id="246961531" class="tile" points="-125.647816885,1597.10639838 -125.120258868,1623.9250312 -125.111950739,1649.68861201 -168.453736461,1646.66087004 -167.484814083,1619.46642067 -166.471171563,1594.05598904 -125.647816885,1597.10639838 " moovel_rot="-90.7" moovel_centroid="-146.388758629,1622.1419151" moovel_centroidlatlon="-122.67083689558231,45.52304715000621"/>
  <polygon id="253254968" class="tile" points="-169.457368056,1594.63802212 -169.453736461,1617.00971942 -170.778483286,1672.62090882 -196.737073175,1672.58560109 -196.314579365,1633.07264099 -222.227747801,1633.11409357 -222.621702148,1607.07985152 -195.185136816,1606.63768564 -195.185968652,1594.05598904 -169.457368056,1594.63802212 " moovel_rot="-1.0" moovel_centroid="-189.646696588,1630.06953976" moovel_centroidlatlon="-122.56822023129395,45.47798605084166"/>
  <polygon id="216657067" class="tile" points="-223.623433987,1594.05598904 -223.621702148,1608.15885032 -235.564362777,1608.16094516 -235.565981457,1598.82551682 -229.915389772,1594.05954659 -223.623433987,1594.05598904 " moovel_rot="-0.4" moovel_centroid="-229.23858652,1601.5838325" moovel_centroidlatlon="-122.60366691925302,45.49287262062758"/>
  <polygon id="216696466" class="tile" points="-236.565981457,1616.51708088 -236.569770173,1600.12413807 -236.818045239,1594.05598904 -249.347925021,1594.14721516 -261.890964141,1594.29547331 -262.038594149,1605.57922319 -246.811440395,1605.165159 -247.038934782,1622.27121616 -236.565981457,1616.51708088 " moovel_rot="0.2" moovel_centroid="-246.854524528,1604.08018107" moovel_centroidlatlon="-122.64099721171016,45.498592525064915"/>
  <polygon id="39274266" class="tile" points="-263.038594149,1594.05598904 -274.506728091,1594.05598904 -274.506728091,1615.20202352 -263.038594149,1615.20202352 -263.038594149,1594.05598904 " moovel_rot="0" moovel_centroid="-268.77266112,1604.62900628" moovel_centroidlatlon="-122.64825594999999,45.53524355000001"/>
  <polygon id="39375583" class="tile" points="-275.540219162,1594.05598904 -291.311575866,1594.06853788 -291.260634791,1673.81803146 -280.328232067,1673.8771872 -280.364567333,1629.33367489 -275.506728091,1629.33547425 -275.540219162,1594.05598904 " moovel_rot="-90.1" moovel_centroid="-284.529906415,1630.30779349" moovel_centroidlatlon="-122.67153289331335,45.55098430228914"/>
  <polygon id="158936308" class="tile" points="-314.666200894,1594.05598904 -292.311575866,1594.22053269 -292.356235218,1667.8070575 -302.516573188,1657.82773111 -302.409275036,1656.46997943 -302.39149054,1655.62468846 -302.87697439,1655.2232011 -306.122658106,1655.13971569 -306.347322173,1640.64350443 -301.858086613,1640.49603317 -301.583633634,1619.97068471 -302.144541626,1618.6664172 -305.699197853,1615.08576699 -314.789674574,1606.15681069 -314.666200894,1594.05598904 " moovel_rot="-0.3" moovel_centroid="-300.078182194,1623.82883247" moovel_centroidlatlon="-122.70704814177023,45.50458916428331"/>
  <polygon id="425379530" class="tile" points="-315.789674574,1605.08851751 -326.289698285,1594.05598904 -326.240647461,1636.35052847 -317.497593241,1636.36003371 -315.840460505,1631.59870729 -315.789674574,1605.08851751 " moovel_rot="-90.5" moovel_centroid="-321.352448557,1617.61940928" moovel_centroidlatlon="-122.61611393117592,45.53061681619838"/>
  <polygon id="257044243" class="tile" points="-327.310495005,1595.29120917 -327.306394825,1594.05598904 -340.444898785,1594.06485666 -340.436958747,1612.28967208 -340.436867448,1613.80998256 -340.428202241,1620.47090982 -327.289698285,1620.46204282 -327.310495005,1595.29120917 " moovel_rot="-0.5" moovel_centroid="-333.869532925,1607.26456996" moovel_centroidlatlon="-122.66012236669476,45.52200328800393"/>
  <polygon id="420147036" class="tile" points="-342.72766684,1613.33575577 -380.766704015,1595.74543365 -382.499086132,1599.47253909 -389.880122874,1596.06000347 -390.368268194,1594.72806986 -394.281676481,1594.05598904 -402.020338555,1638.13745041 -398.10092169,1639.47268237 -399.013697978,1646.33856168 -403.23579364,1648.64810025 -374.604833131,1703.02784924 -370.775748573,1701.00023731 -356.181334978,1701.53184806 -341.452675185,1685.93259641 -350.66745223,1677.09309728 -365.50186289,1647.57909108 -341.444898785,1621.39054779 -344.853096972,1617.8470471 -342.72766684,1613.33575577 " moovel_rot="47.0" moovel_centroid="-373.759566017,1646.37677546" moovel_centroidlatlon="-122.67779024627443,45.595351694421964"/>
  <polygon id="450283453" class="tile" points="-428.556789501,1603.50550738 -420.044158759,1594.05598904 -405.65545928,1606.8920216 -408.85711509,1610.69365431 -404.23579364,1614.80145425 -418.158101682,1630.53148592 -427.647756728,1621.44274699 -428.552565264,1620.18016725 -420.351900027,1610.81262281 -428.556789501,1603.50550738 " moovel_rot="48.8" moovel_centroid="-417.076516532,1612.30855741" moovel_centroidlatlon="-122.68727184942011,45.58430543269565"/>
  <polygon id="339789637" class="tile" points="-461.638219643,1594.05598904 -462.456508043,1627.62708573 -429.556789501,1628.04032705 -430.008692225,1621.30670624 -429.590031705,1599.154665 -429.702968186,1597.03431857 -430.235906298,1595.91275428 -431.048291637,1595.08027949 -432.168659101,1594.63133207 -433.746590362,1594.35407163 -461.638219643,1594.05598904 " moovel_rot="-1.1" moovel_centroid="-445.947660018,1611.12079999" moovel_centroidlatlon="-122.64795777934663,45.49373071444381"/>
  <polygon id="376448097" class="tile" points="-471.171919204,1594.06343382 -471.172745595,1602.72765062 -471.179801186,1605.04579862 -471.169490812,1610.53673226 -473.393285753,1610.54214781 -473.384784079,1617.56287582 -467.711109275,1617.55736407 -467.704584118,1620.10908156 -463.456508043,1620.10173299 -463.473962611,1594.05598904 -471.171919204,1594.06343382 " moovel_rot="-89.0" moovel_centroid="-467.601119434,1607.11015062" moovel_centroidlatlon="-122.69678013771062,45.52657947608037"/>
  <polygon id="363253084" class="tile" points="-490.844763755,1652.90009776 -498.023718969,1699.388607 -494.67236854,1699.90802727 -495.049722588,1702.30995053 -489.398212246,1703.18454356 -487.654927415,1691.90935018 -483.759259541,1692.51406082 -474.393285753,1631.89902799 -482.447978899,1630.65183718 -487.028652506,1594.05598904 -498.025936104,1595.4542475 -490.844763755,1652.90009776 " moovel_rot="80.4" moovel_centroid="-487.67536301,1648.29012562" moovel_centroidlatlon="-122.67975366666292,45.505119294201506"/>
  <polygon id="107542051" class="tile" points="-499.053550998,1642.8843574 -505.950559616,1642.88164073 -505.941499101,1635.70816185 -528.978973307,1635.70108425 -528.960417768,1594.05598904 -499.025936104,1594.06578331 -499.053550998,1642.8843574 " moovel_rot="-90.3" moovel_centroid="-513.56466107,1615.81443841" moovel_centroidlatlon="-122.66127525438645,45.5119832596524"/>
  <polygon id="107502283" class="tile" points="-529.978973307,1605.59441042 -537.914427228,1605.59264036 -537.916226858,1594.05598904 -529.980772638,1594.0577591 -529.978973307,1605.59441042 " moovel_rot="-89.0" moovel_centroid="-533.947600007,1599.82519969" moovel_centroidlatlon="-122.6588837,45.5247634"/>
  <polygon id="305176144" class="tile" points="-538.916226858,1601.51877004 -562.268466476,1594.05598904 -562.286519453,1621.07350528 -538.923764602,1621.08896532 -538.916226858,1601.51877004 " moovel_rot="-90.3" moovel_centroid="-551.221136228,1609.33520744" moovel_centroidlatlon="-122.67915849009349,45.47201461336758"/>
  <polygon id="369326546" class="tile" points="-577.469941143,1594.43985509 -577.488455117,1611.63933477 -565.281780608,1611.35427871 -565.418017218,1605.39456782 -563.286519453,1605.34780767 -563.549566358,1594.05598904 -577.469941143,1594.43985509 " moovel_rot="3.3" moovel_centroid="-570.746916153,1602.60221298" moovel_centroidlatlon="-122.6952194550099,45.52373406694638"/>
  <polygon id="132500778" class="tile" points="-578.493333403,1594.31762811 -578.488455117,1607.93949916 -588.696337523,1607.6223578 -588.348388214,1594.05598904 -578.493333403,1594.31762811 " moovel_rot="-1.3" moovel_centroid="-583.504346024,1601.02385792" moovel_centroidlatlon="-122.63804037274866,45.49319510456604"/>
  <polygon id="107395083" class="tile" points="-0.0199248131365,1703.18454356 0.0,1744.74968913 -13.6170134682,1744.75186183 -13.6197195735,1728.9353576 -13.6249684419,1711.78966712 -13.6369726449,1703.19339535 -0.0199248131365,1703.18454356 " moovel_rot="-90.3" moovel_centroid="-6.816105976199389,1723.97089034" moovel_centroidlatlon="-122.63764414005098,45.52629282501553"/>
  <polygon id="39371259" class="tile" points="-20.2083490822,1719.80899632 -15.6369726449,1719.80899632 -15.6369726449,1703.18454356 -28.2106243469,1703.18454356 -27.6403913539,1704.33336071 -27.6403913539,1712.92945179 -31.641524893,1712.92945179 -31.641524893,1719.80899632 -20.2083490822,1719.80899632 " moovel_rot="-90" moovel_centroid="-22.6162319453,1712.07513253" moovel_centroidlatlon="-122.64692150921069,45.53557856419974"/>
  <polygon id="115712531" class="tile" points="-122.782323239,1811.62559311 -147.78161181,1811.63140428 -147.852907583,1821.8436055 -46.6125558224,1822.00938206 -46.4227594022,1768.98348863 -32.673761392,1768.89913433 -32.641524893,1738.44160448 -47.9937969189,1738.33442366 -48.2854916967,1754.27595322 -75.2409407336,1754.26810759 -75.354762172,1770.5715629 -108.748385526,1770.69911158 -108.817424676,1754.74838425 -133.453528916,1754.40272637 -133.374725871,1743.11520508 -136.765433732,1743.27855439 -136.4760256,1703.18454356 -147.917361587,1703.23825332 -147.921299736,1754.12137866 -136.311260365,1754.38277532 -136.529138409,1759.75143732 -122.383531291,1759.94370454 -122.782323239,1811.62559311 " moovel_rot="-90.4" moovel_centroid="-89.0903164751,1782.77035539" moovel_centroidlatlon="-122.61674697020003,45.479919728213545"/>
  <polygon id="319618208" class="tile" points="-151.19558457,1756.35222609 -160.168373182,1756.55377953 -160.280864905,1751.53226806 -165.237297571,1751.64201243 -165.665986719,1732.73134612 -164.96325046,1732.71962578 -165.62251796,1703.55227633 -149.538133463,1703.18454356 -148.921299736,1730.36861086 -151.19558457,1756.35222609 " moovel_rot="-88.5" moovel_centroid="-157.313897101,1728.6686866" moovel_centroidlatlon="-122.6231539683813,45.497034030976174"/>
  <polygon id="427238079" class="tile" points="-166.665986719,1729.69795599 -166.67180674,1703.18454356 -181.414314482,1703.22593735 -181.40611079,1729.73311038 -166.665986719,1729.69795599 " moovel_rot="69.3" moovel_centroid="-174.039265941,1716.4600286" moovel_centroidlatlon="-122.68669998149953,45.517337548473186"/>
  <polygon id="402808763" class="tile" points="-182.437650851,1703.18454356 -182.414314482,1743.37208543 -193.709272329,1743.37807095 -193.732608703,1703.19052987 -182.437650851,1703.18454356 " moovel_rot="-0.5" moovel_centroid="-188.073461573,1723.28130745" moovel_centroidlatlon="-122.60487225,45.54023445"/>
  <polygon id="271946849" class="tile" points="-219.802103264,1750.06784053 -194.767299697,1750.0761916 -194.732608703,1703.19957342 -219.767340177,1703.18454356 -219.802103264,1750.06784053 " moovel_rot="-90.6" moovel_centroid="-207.267635185,1726.63204762" moovel_centroidlatlon="-122.57819867519636,45.5361673968739"/>
  <polygon id="39380940" class="tile" points="-220.802103264,1717.5180412 -220.802103264,1703.18454356 -233.366422997,1703.18454356 -233.366422997,1717.5180412 -220.802103264,1717.5180412 " moovel_rot="-90.0" moovel_centroid="-227.084263131,1710.35129238" moovel_centroidlatlon="-122.662418,45.536350299999995"/>
  <polygon id="260720418" class="tile" points="-234.374354709,1715.57841641 -239.210220902,1715.57421975 -239.202289191,1703.18454356 -234.366422997,1703.18874013 -234.374354709,1715.57841641 " moovel_rot="-0.5" moovel_centroid="-236.788321947,1709.38147997" moovel_centroidlatlon="-122.66120534999999,45.5184301"/>
  <polygon id="52134996" class="tile" points="-267.455274288,1752.92771188 -267.455092235,1716.44403658 -243.774833087,1703.18454356 -240.210220902,1741.42838337 -267.455274288,1752.92771188 " moovel_rot="-83.3" moovel_centroid="-254.510124543,1728.81790411" moovel_centroidlatlon="-122.67698930746184,45.52278141397292"/>
  <polygon id="40769376" class="tile" points="-268.455274288,1739.39994798 -268.465203692,1703.18454356 -292.163127191,1717.54274984 -276.129850659,1743.80142175 -268.455274288,1739.39994798 " moovel_rot="-59.3" moovel_centroid="-276.97614133,1723.30113232" moovel_centroidlatlon="-122.65220571780544,45.523122992302"/>
  <polygon id="52136482" class="tile" points="-299.334861726,1725.953485 -293.82106913,1735.44631488 -293.441315662,1739.82310629 -293.335599516,1755.78995946 -293.163127191,1767.95033684 -310.733403575,1777.91540369 -329.650089109,1782.45782619 -329.611918686,1703.18454356 -319.431651641,1706.32542475 -312.745595537,1710.03926247 -299.334861726,1725.953485 " moovel_rot="-0.1" moovel_centroid="-313.769837846,1745.09170522" moovel_centroidlatlon="-122.65934478116505,45.46942892340292"/>
  <polygon id="362324156" class="tile" points="-330.650089109,1733.42825443 -340.774494511,1733.42867677 -340.777747397,1703.18496591 -330.653342307,1703.18454356 -330.650089109,1733.42825443 " moovel_rot="-90.3" moovel_centroid="-335.713918331,1718.30661025" moovel_centroidlatlon="-122.6752187,45.5500259"/>
  <polygon id="451657841" class="tile" points="-341.777747397,1703.18454356 -349.561521522,1703.18499733 -349.566771442,1715.29442364 -341.782974073,1715.300649 -341.787310598,1714.05833105 -341.777747397,1703.18454356 " moovel_rot="-89.8" moovel_centroid="-345.673113927,1709.24065374" moovel_centroidlatlon="-122.6451140674746,45.53586649096619"/>
  <polygon id="257680742" class="tile" points="-419.725777988,1740.40273799 -406.591283916,1703.18454356 -392.155183854,1717.07689151 -383.725636092,1714.79438504 -376.898868287,1729.74841662 -392.973176051,1739.55181228 -379.46052571,1763.51290689 -382.98835514,1772.29580215 -367.199454848,1777.04036052 -367.30517329,1769.94503851 -353.258856086,1767.33127059 -350.566771442,1782.42022191 -354.064634981,1796.21159623 -360.904209115,1812.42095756 -365.566037877,1810.60033435 -366.829763964,1814.86289848 -417.090878055,1797.26057572 -415.348841356,1792.57358094 -419.760223059,1791.02436699 -408.573061124,1760.1364855 -419.725777988,1740.40273799 " moovel_rot="-19.7" moovel_centroid="-389.882365209,1767.65906438" moovel_centroidlatlon="-122.67113552408522,45.545463974215224"/>
  <polygon id="107522129" class="tile" points="-420.760223059,1729.69292108 -446.31280691,1730.5905369 -446.276417646,1703.18454356 -421.184443196,1703.94744452 -420.760223059,1729.69292108 " moovel_rot="-89.5" moovel_centroid="-433.764921007,1716.89555497" moovel_centroidlatlon="-122.65229160703352,45.52240151279766"/>
  <polygon id="107522688" class="tile" points="-447.31280691,1703.20220279 -447.341152807,1750.71171754 -474.305237016,1750.69405721 -474.276891124,1703.18454356 -447.31280691,1703.20220279 " moovel_rot="-0.3" moovel_centroid="-460.809021912,1726.94813028" moovel_centroidlatlon="-122.6508962,45.52328645"/>
  <polygon id="39981598" class="tile" points="-489.12208278,1751.34135528 -489.587711757,1743.446577 -489.587711757,1708.47444577 -475.305237016,1708.47444577 -475.305237016,1703.31144778 -502.834363905,1703.18454356 -502.834363905,1751.34135528 -489.12208278,1751.34135528 " moovel_rot="-90.0" moovel_centroid="-494.764877753,1725.1076259" moovel_centroidlatlon="-122.66011643074258,45.5281104184853"/>
  <polygon id="257066315" class="tile" points="-507.585446257,1715.04330189 -516.542248593,1715.05617292 -516.550645012,1708.38630994 -518.514334422,1708.39238387 -518.519136057,1703.4897466 -503.858315119,1703.4773297 -503.834363905,1735.67691938 -530.050163554,1735.68817113 -530.071336223,1709.55036353 -530.07358412,1703.18454356 -522.906829637,1703.1875507 -522.902558647,1708.39422618 -522.890077288,1724.20424514 -507.574698739,1724.1929708 -507.585446257,1715.04330189 " moovel_rot="-0.1" moovel_centroid="-517.053169686,1720.49534295" moovel_centroidlatlon="-122.6614466926642,45.51961564310828"/>
  <polygon id="371437295" class="tile" points="-539.256126933,1713.47467906 -533.951643714,1713.48019224 -533.948609417,1714.9500979 -531.077619107,1714.95676694 -531.07358412,1703.19004922 -539.248871626,1703.18454356 -539.256126933,1713.47467906 " moovel_rot="-88.4" moovel_centroid="-535.03693251,1708.61496781" moovel_centroidlatlon="-122.69461543294595,45.52599721267268"/>
  <polygon id="213962867" class="tile" points="-540.28144451,1703.43345576 -540.256126933,1719.55015682 -550.169314283,1719.22298516 -554.662697977,1718.90453473 -554.478348483,1718.0272643 -554.403867289,1714.17195521 -554.188872689,1708.97223024 -553.939979531,1703.18454356 -540.28144451,1703.43345576 " moovel_rot="-2.0" moovel_centroid="-547.24346744,1711.36067278" moovel_centroidlatlon="-122.60218547070677,45.49184781683142"/>
  <polygon id="451750317" class="tile" points="-555.662697977,1738.52797167 -565.955455588,1738.53110396 -565.977436828,1703.18454356 -559.465186594,1703.19012898 -559.460234432,1711.17377705 -555.679776819,1711.17456305 -555.662697977,1738.52797167 " moovel_rot="-0.3" moovel_centroid="-561.114192664,1722.09651396" moovel_centroidlatlon="-122.64642889367926,45.53712068438209"/>
  <polygon id="40775554" class="tile" points="-566.977436828,1728.89266677 -566.977436828,1703.66544376 -591.43033622,1703.18454356 -591.43033622,1728.41176657 -566.977436828,1728.89266677 " moovel_rot="-90" moovel_centroid="-579.203886524,1716.03860517" moovel_centroidlatlon="-122.65398114999999,45.51245240000001"/>
  <polygon id="39273646" class="tile" points="-0.0141711138189,1822.00938206 -13.1988646958,1822.01338596 -13.1846935831,1845.44036396 0.0,1845.43635998 -0.0141711138189,1822.00938206 " moovel_rot="0.1" moovel_centroid="-6.599432352059135,1833.72487299" moovel_centroidlatlon="-122.6497013,45.53527205000001"/>
  <polygon id="107521518" class="tile" points="-15.2801708497,1883.46036819 -42.8913793463,1883.29679042 -42.8782073095,1822.10201105 -15.1988646958,1822.00938206 -15.2801708497,1883.46036819 " moovel_rot="-0.3" moovel_centroid="-29.052517447,1852.70459216" moovel_centroidlatlon="-122.65320739331473,45.52548170755975"/>
  <polygon id="255498814" class="tile" points="-43.8940276701,1822.00938206 -43.8913793463,1835.22094646 -52.093332183,1835.21713735 -52.095945638,1822.01225203 -43.8940276701,1822.00938206 " moovel_rot="-89.7" moovel_centroid="-47.9933255818,1828.614934" moovel_centroidlatlon="-122.63166427509498,45.53531360363642"/>
  <polygon id="243501540" class="tile" points="-105.793706745,1875.28785139 -53.095945638,1875.25134117 -53.1393491544,1822.00938206 -105.83711997,1822.04589247 -105.793706745,1875.28785139 " moovel_rot="-88.9" moovel_centroid="-79.4665303628,1848.64861596" moovel_centroidlatlon="-122.6888041,45.5246248"/>
  <polygon id="36803741" class="tile" points="-110.060302812,1822.00938206 -106.866896906,1822.00942687 -106.83711997,1869.98884357 -131.728741834,1870.00871009 -131.733774692,1863.22892866 -137.845035487,1863.23840424 -137.852117763,1844.85624785 -133.423185793,1844.85587246 -133.428939352,1847.22036784 -110.048466104,1847.19803511 -110.060302812,1822.00938206 " moovel_rot="-90.6" moovel_centroid="-120.369153153,1855.43796754" moovel_centroidlatlon="-122.65931447902094,45.53411551658204"/>
  <polygon id="210898470" class="tile" points="-138.865388504,1822.00938206 -138.852117763,1841.1313546 -149.245116134,1841.13745072 -149.246636395,1837.09277995 -157.889668734,1837.09615331 -157.894740212,1822.01880451 -138.865388504,1822.00938206 " moovel_rot="0.4" moovel_centroid="-147.823424072,1830.77460846" moovel_centroidlatlon="-122.58975626811072,45.4793467403985"/>
  <polygon id="410390721" class="tile" points="-187.227969467,1851.7748761 -158.894740212,1851.76919135 -158.904405031,1822.00938206 -170.459463722,1822.01658684 -170.462235525,1834.2913162 -187.227047834,1834.28984325 -187.227969467,1851.7748761 " moovel_rot="-0.2" moovel_centroid="-171.196445592,1839.71769032" moovel_centroidlatlon="-122.65401529106185,45.55884060068706"/>
  <polygon id="321591364" class="tile" points="-188.227969467,1873.08120227 -188.233758879,1822.00938206 -208.180016931,1822.05638057 -208.183129197,1829.45449223 -211.614203586,1829.46376807 -211.614163889,1873.13425112 -206.079276848,1873.12305551 -188.227969467,1873.08120227 " moovel_rot="70" moovel_centroid="-199.705720669,1848.04771263" moovel_centroidlatlon="-122.68455362202657,45.520894028298095"/>
  <polygon id="300880521" class="tile" points="-212.614203586,1830.74731607 -228.949895012,1822.00938206 -228.935096021,1852.19438023 -224.729781222,1854.45864953 -212.614203586,1830.74731607 " moovel_rot="61.3" moovel_centroid="-223.211302675,1837.20147786" moovel_centroidlatlon="-122.5820982485315,45.48382095219829"/>
  <polygon id="107531584" class="tile" points="-247.248969466,1822.00938206 -250.165273368,1835.7677458 -244.279124147,1837.25928355 -245.234168277,1841.2681392 -243.496487119,1841.68211325 -250.160125658,1869.6531401 -237.893463845,1872.85698096 -230.191195467,1840.52624237 -229.949895012,1836.80737721 -230.743806638,1832.84188975 -232.01472915,1829.68968479 -234.298046047,1826.56407108 -237.306786662,1824.55646252 -241.847877288,1823.19997842 -247.248969466,1822.00938206 " moovel_rot="76.6" moovel_centroid="-240.178089723,1846.30900899" moovel_centroidlatlon="-122.66230932618703,45.52239024116605"/>
  <polygon id="39460061" class="tile" points="-251.165273368,1849.87481036 -268.465514396,1824.15552458 -290.45772539,1822.00938206 -290.413858527,1883.3413166 -272.029472764,1897.04461543 -251.198621431,1869.09788438 -251.165273368,1849.87481036 " moovel_rot="-36.7" moovel_centroid="-273.1970771,1857.64638107" moovel_centroidlatlon="-122.64931096458791,45.528940771469664"/>
  <polygon id="39403452" class="tile" points="-296.359128306,1850.70464921 -291.45772539,1850.69691683 -291.478494272,1822.00938206 -296.379862057,1822.01043537 -296.375798056,1824.8625011 -296.372803657,1835.17529577 -296.367823123,1841.48054424 -296.369403449,1847.22470043 -296.359128306,1850.70464921 " moovel_rot="-90.3" moovel_centroid="-293.919858078,1836.35884749" moovel_centroidlatlon="-122.64509992750699,45.5046415890803"/>
  <polygon id="226431885" class="tile" points="-297.686367627,1822.00938206 -309.539452451,1822.30454265 -309.382287499,1834.12301466 -323.726963907,1834.40626093 -323.749779775,1848.81104492 -297.379862057,1848.08831137 -297.686367627,1822.00938206 " moovel_rot="0.6" moovel_centroid="-308.701307094,1837.7106828" moovel_centroidlatlon="-122.65498783248682,45.51953466658105"/>
  <polygon id="405571513" class="tile" points="-324.749779775,1822.00938206 -334.094427336,1829.53355603 -328.622794032,1836.33570687 -340.727173197,1846.07747846 -346.371143404,1839.06250939 -354.896979542,1845.92362294 -331.830338468,1874.57445518 -324.769881919,1874.04807924 -324.749779775,1822.00938206 " moovel_rot="-51.0" moovel_centroid="-334.664925424,1851.58165078" moovel_centroidlatlon="-122.70277046244927,45.46244824158729"/>
  <polygon id="369465568" class="tile" points="-355.896979542,1822.09182401 -355.913063057,1848.70449643 -366.543080531,1848.62205445 -366.526998441,1822.00938206 -355.896979542,1822.09182401 " moovel_rot="-88.5" moovel_centroid="-361.220030391,1835.35693894" moovel_centroidlatlon="-122.69283605000001,45.52961215"/>
  <polygon id="115828102" class="tile" points="-415.770382101,1906.74005743 -415.869861199,1822.36043228 -380.864242611,1822.00938206 -367.543080531,1835.15712519 -368.072137896,1908.99358544 -382.743829242,1908.93012246 -382.771860525,1912.46998402 -409.199669181,1912.33160707 -409.340593721,1906.60006325 -415.770382101,1906.74005743 " moovel_rot="-90.3" moovel_centroid="-392.207748675,1867.10705423" moovel_centroidlatlon="-122.57759637875186,45.4908638358404"/>
  <polygon id="107397462" class="tile" points="-454.666109536,1874.48324342 -454.661796888,1856.70474392 -454.661459133,1822.06926728 -439.973838627,1822.00938206 -439.638720658,1836.6528673 -439.106560473,1837.89858329 -416.978572136,1837.97521272 -416.869861199,1848.39929596 -426.380950836,1848.36369161 -426.253744732,1859.67148695 -431.48359278,1859.70036774 -431.53314965,1861.30614474 -441.866140735,1861.47815323 -441.732499124,1853.79114233 -449.520548096,1853.86306907 -449.463027877,1874.48282239 -454.666109536,1874.48324342 " moovel_rot="-0.1" moovel_centroid="-440.821462265,1845.06365417" moovel_centroidlatlon="-122.64497271190726,45.52541376366025"/>
  <polygon id="39944741" class="tile" points="-455.679164606,1822.00938206 -455.666109536,1874.48498865 -507.311089227,1874.50204376 -507.330589618,1822.03608722 -455.679164606,1822.00938206 " moovel_rot="1.4" moovel_centroid="-481.495947076,1848.25757917" moovel_centroidlatlon="-122.67496168705667,45.52415668054319"/>
  <polygon id="333373417" class="tile" points="-508.343657031,1841.94506211 -522.690469968,1841.92670135 -522.693712491,1822.00938206 -509.79107106,1822.01854308 -509.793775098,1829.01163942 -508.330589618,1829.01419317 -508.343657031,1841.94506211 " moovel_rot="-90.1" moovel_centroid="-515.752130088,1832.21247071" moovel_centroidlatlon="-122.65798607821407,45.51978424732117"/>
  <polygon id="39380287" class="tile" points="-523.693712491,1822.01061086 -535.288766168,1822.00938206 -535.292999691,1893.31892308 -523.824766608,1881.7914761 -523.698177215,1870.49131609 -523.693712491,1822.01061086 " moovel_rot="-0.1" moovel_centroid="-529.671136303,1854.81506349" moovel_centroidlatlon="-122.63088676381146,45.536966130715285"/>
  <polygon id="39706246" class="tile" points="-536.292999691,1854.683879 -536.292999691,1822.00938206 -556.286372864,1822.00938206 -556.286372864,1854.683879 -536.292999691,1854.683879 " moovel_rot="-90.0" moovel_centroid="-546.289686277,1838.34663053" moovel_centroidlatlon="-122.64582759999999,45.52770639999999"/>
  <polygon id="450504647" class="tile" points="-557.286372864,1835.90599885 -564.214497201,1835.98902958 -564.205201829,1828.68854863 -562.874651518,1828.68158182 -562.947604163,1822.00938206 -557.349540509,1822.02682523 -557.286372864,1835.90599885 " moovel_rot="-89.7" moovel_centroid="-560.490909727,1829.35192811" moovel_centroidlatlon="-122.65582452310488,45.53660024400347"/>
  <polygon id="107484317" class="tile" points="-565.214497201,1843.07799441 -581.017214853,1822.00938206 -587.012097349,1827.11838298 -573.582334627,1843.47856233 -587.033294966,1853.207409 -583.767022604,1857.03048146 -565.214497201,1843.07799441 " moovel_rot="-53.5" moovel_centroid="-576.949053245,1839.21831423" moovel_centroidlatlon="-122.64583844399972,45.52316278689026"/>
  <polygon id="379696756" class="tile" points="-13.385313623,1935.47738471 -13.3735640578,1934.21398357 -13.2587812755,1917.096603 -10.3237837605,1917.37248798 -10.4911751635,1912.46998402 -0.00945045948029,1916.31696886 0.0,1938.85982791 -13.385313623,1935.47738471 " moovel_rot="70.6" moovel_centroid="-6.466735340182044,1926.08251875" moovel_centroidlatlon="-122.69365827962505,45.522263462403956"/>
  <polygon id="395700044" class="tile" points="-24.9295434009,1937.58695558 -15.385313623,1937.57697692 -15.4101211753,1912.46998402 -24.9448564608,1912.47326693 -24.9295434009,1937.58695558 " moovel_rot="-89.9" moovel_centroid="-20.167668769,1925.02887984" moovel_centroidlatlon="-122.66194740619578,45.549182622751566"/>
  <polygon id="273089456" class="tile" points="-41.0264861494,1922.8025074 -28.3364251792,1912.46998402 -25.9654715091,1935.07429114 -25.9448564608,2002.19009398 -74.4395469211,1990.12280327 -79.8283011787,1988.25182333 -87.2791265555,1979.11620883 -82.0729834143,1974.56852058 -78.8562531374,1978.51262157 -28.5316040285,1937.76188189 -41.0264861494,1922.8025074 " moovel_rot="-50.8" moovel_centroid="-45.7797806384,1970.57114609" moovel_centroidlatlon="-122.66884685250523,45.53120004192368"/>
  <polygon id="40790414" class="tile" points="-88.573306058,1940.77252947 -88.2791265555,1912.6814831 -116.128967346,1912.46998402 -116.110183615,1936.99075625 -111.968082574,1937.0875701 -112.244216831,1963.45548523 -100.813877406,1963.57518784 -100.717845912,1954.40519102 -100.663780113,1949.24247612 -100.573763702,1940.64685638 -88.573306058,1940.77252947 " moovel_rot="-90.6" moovel_centroid="-103.160997167,1932.921921" moovel_centroidlatlon="-122.64589975489982,45.52477582186872"/>
  <polygon id="34814274" class="tile" points="-160.238048086,1912.46998402 -163.382066927,1923.1198666 -165.290742756,1934.67982755 -165.870631368,1948.60793871 -164.972273792,1961.09366302 -161.213289843,1976.75439514 -157.828963292,1986.32132591 -154.096179039,1994.6944384 -144.09139709,2010.74275578 -136.518834301,2019.16681486 -129.038912975,2026.01306039 -120.430569969,2015.9209121 -124.870706145,2007.73626647 -129.451893164,1994.65324861 -125.569828139,1985.07499203 -126.29525411,1966.04050657 -117.128967346,1963.14976237 -120.75373688,1948.41745658 -119.925783637,1940.10209705 -119.198268356,1935.01397557 -117.143301322,1927.66232103 -160.238048086,1912.46998402 " moovel_rot="71.1" moovel_centroid="-141.936786984,1962.32524508" moovel_centroidlatlon="-122.66701866873025,45.53260007805721"/>
  <polygon id="107748102" class="tile" points="-166.870631368,1914.95315377 -168.440469613,1963.67536383 -216.580508541,1963.79494589 -216.618411016,1912.46998402 -166.870631368,1914.95315377 " moovel_rot="-51.7" moovel_centroid="-192.334329378,1938.57803964" moovel_centroidlatlon="-122.67055679839979,45.5346737646525"/>
  <polygon id="156415938" class="tile" points="-217.618411016,1912.47289084 -230.21303738,1912.46998402 -230.215770994,1917.2135293 -234.612392243,1917.20508146 -234.633085895,1958.00502679 -234.636749484,1964.75429485 -223.612185159,1964.76028844 -223.607905978,1958.79999276 -217.6412228,1958.80534963 -217.618411016,1912.47289084 " moovel_rot="1.5" moovel_centroid="-226.204797032,1938.2205141" moovel_centroidlatlon="-122.68105409833869,45.52833010642238"/>
  <polygon id="419607398" class="tile" points="-235.645626761,1956.61812317 -235.636749484,1935.56370132 -240.28435545,1935.56036835 -240.272484313,1927.19727903 -256.904971019,1927.18674393 -256.901476488,1924.36120169 -252.291896062,1924.36499925 -252.285016953,1912.48178591 -266.626976971,1912.46998402 -266.63576252,1926.5307924 -262.444312076,1926.53969864 -262.44699923,1936.43231971 -266.638367977,1936.43009214 -266.648593671,1956.59613463 -235.645626761,1956.61812317 " moovel_rot="-89.3" moovel_centroid="-252.758714991,1938.39733333" moovel_centroidlatlon="-122.55894128985439,45.53319678417921"/>
  <polygon id="39378694" class="tile" points="-274.941656972,1937.28005722 -274.945322444,1936.02423486 -279.735525828,1936.01914592 -279.728720476,1927.68300347 -274.929014097,1927.68820851 -274.919434447,1919.12499124 -267.648593671,1919.13366972 -267.761506529,1913.59484543 -306.250400845,1912.46998402 -306.470560487,1921.93238362 -293.508909354,1922.13082595 -293.708583131,1938.47353384 -294.03147203,1964.9010349 -267.83738754,1967.25837066 -267.670897523,1937.29541438 -274.941656972,1937.28005722 " moovel_rot="-90.7" moovel_centroid="-283.447097789,1939.07786787" moovel_centroidlatlon="-122.62451527027895,45.534886442233606"/>
  <polygon id="255968966" class="tile" points="-314.953887305,1912.47452884 -345.501569169,1912.46998402 -345.499213716,1917.72264389 -350.148535578,1917.71969293 -350.159644852,1958.25949489 -344.815625895,1958.26103057 -344.818588087,1954.67065404 -307.470560487,1954.68234835 -307.471836482,1949.92362986 -314.966730209,1949.92738724 -314.953887305,1912.47452884 " moovel_rot="0.9" moovel_centroid="-331.997795235,1934.60073968" moovel_centroidlatlon="-122.62117124804149,45.49702477489072"/>
  <polygon id="252223193" class="tile" points="-351.159644852,1912.4747301 -351.163689944,1926.00361071 -361.14916011,1925.99882954 -361.138435942,1912.46998402 -351.159644852,1912.4747301 " moovel_rot="-0.3" moovel_centroid="-356.152731162,1919.23754294" moovel_centroidlatlon="-122.6559024750822,45.51564254206005"/>
  <polygon id="107530155" class="tile" points="-362.165275626,1912.46998402 -387.916864274,1912.48357757 -387.914707259,1918.2994417 -371.715540587,1918.28783494 -371.707272177,1930.51829356 -387.939830567,1930.52937514 -387.934140442,1946.75099845 -362.14916011,1946.73793216 -362.165275626,1912.46998402 " moovel_rot="-0.9" moovel_centroid="-373.660542175,1931.12244897" moovel_centroidlatlon="-122.65941160145465,45.52321711922389"/>
  <polygon id="107395283" class="tile" points="-388.939830567,1936.5819042 -403.668922278,1936.72682758 -403.620922716,1942.31047971 -414.539415049,1942.4220639 -414.67184949,1928.98395539 -408.096035543,1928.92092611 -408.256568461,1912.87802373 -388.947973552,1912.46998402 -388.939830567,1936.5819042 " moovel_rot="-89.8" moovel_centroid="-400.806350082,1926.97925974" moovel_centroidlatlon="-122.63747281073162,45.52974398087791"/>
  <polygon id="107522289" class="tile" points="-415.793914422,1951.32636305 -428.078197581,1951.26561432 -428.829996514,1912.88349545 -415.67184949,1912.46998402 -415.793914422,1951.32636305 " moovel_rot="1.8" moovel_centroid="-422.082615263,1931.76416118" moovel_centroidlatlon="-122.65198369222612,45.5225785588165"/>
  <polygon id="39274962" class="tile" points="-429.829996514,1937.69052786 -429.829996514,1912.46998402 -448.685398029,1912.46998402 -448.685398029,1937.69052786 -429.829996514,1937.69052786 " moovel_rot="-90" moovel_centroid="-439.257697271,1925.08025594" moovel_centroidlatlon="-122.63882380000001,45.53462559999999"/>
  <polygon id="216696460" class="tile" points="-465.912493107,1912.46998402 -449.685398029,1916.56229096 -462.035501742,1967.57634954 -465.892795066,1966.24893053 -465.912493107,1912.46998402 " moovel_rot="75.8" moovel_centroid="-460.243170228,1935.36677358" moovel_centroidlatlon="-122.64976278727181,45.49980629575451"/>
  <polygon id="39335847" class="tile" points="-466.912493107,2018.53004751 -466.927386625,1912.46998402 -505.210496726,1912.84394874 -505.291526595,1928.31937222 -503.013185945,1930.62228821 -501.887807219,1933.50026297 -501.335609332,1936.94297371 -500.789391574,1941.52780678 -504.802383393,1943.80446039 -508.242121965,1945.50301988 -510.540962817,1948.93080249 -512.266587862,1951.78717002 -512.867316666,1955.79826045 -512.311631656,1960.38982235 -516.318564727,1961.51099553 -516.414632509,1979.8584225 -540.420286468,1979.73272804 -540.372270064,1970.5623541 -560.367395421,1970.45765891 -560.502456859,1996.25225772 -506.333015761,2018.32364025 -466.912493107,2018.53004751 " moovel_rot="-90.3" moovel_centroid="-500.067494535,1973.36449977" moovel_centroidlatlon="-122.66471799402996,45.53389844819861"/>
  <polygon id="369463306" class="tile" points="-567.764024256,1912.46998402 -567.783026745,1932.31730939 -565.169018864,1932.30363197 -561.593894634,1932.25246218 -561.502456859,1937.81372042 -584.261393038,1938.30840391 -584.250352332,1912.8291368 -578.512368137,1912.70072832 -567.764024256,1912.46998402 " moovel_rot="2.8" moovel_centroid="-575.14626906,1926.13127243" moovel_centroidlatlon="-122.69072381406289,45.528727804795054"/>
  <polygon id="225499327" class="tile" points="0.0,2077.60408733 -0.0227228354663,2026.27161758 -16.4204840194,2026.01306039 -16.428507451,2052.17003813 -19.2875470519,2052.22693121 -19.3707480434,2077.40122991 0.0,2077.60408733 " moovel_rot="-90.6" moovel_centroid="-8.991978940033787,2052.87815366" moovel_centroidlatlon="-122.59383523536928,45.489045086102614"/>
  <polygon id="430001098" class="tile" points="-57.6100714408,2026.01306039 -21.3707480434,2048.51245558 -29.2873520099,2061.2690054 -26.1133720063,2063.23976855 -48.3822173983,2099.12573345 -55.1381806172,2102.5502107 -66.162664815,2095.7057538 -41.1456483338,2055.39939923 -66.1997649089,2039.84611559 -57.6100714408,2026.01306039 " moovel_rot="59.7" moovel_centroid="-45.1140681001,2063.05096535" moovel_centroidlatlon="-122.69370551379555,45.53086813147275"/>
  <polygon id="370523975" class="tile" points="-67.2343896646,2026.01306039 -67.1997649089,2047.00739112 -78.4907159273,2046.94596856 -78.3553985417,2026.21165356 -76.9955041073,2026.11424401 -67.2343896646,2026.01306039 " moovel_rot="2.1" moovel_centroid="-72.8108541737,2036.55275626" moovel_centroidlatlon="-122.6875881833264,45.52733740981342"/>
  <polygon id="444996202" class="tile" points="-119.650704643,2026.01306039 -79.4907159273,2062.80010132 -89.837970712,2075.59777606 -102.280694809,2120.60429751 -105.231173129,2123.83548357 -123.305925349,2107.09910561 -98.7163617022,2078.04045716 -93.4133786015,2072.37162387 -115.376769561,2052.31629195 -107.846565687,2044.06966645 -123.274701084,2029.9818429 -119.650704643,2026.01306039 " moovel_rot="-42.4" moovel_centroid="-102.644944454,2077.73609702" moovel_centroidlatlon="-122.72019009319953,45.58456351267879"/>
  <polygon id="372224461" class="tile" points="-126.296958669,2050.98239483 -126.288147179,2037.62894932 -124.305925349,2036.16161147 -124.319956343,2032.8485551 -124.313055499,2026.02817328 -139.509629519,2026.01306039 -139.52623444,2050.96977711 -126.296958669,2050.98239483 " moovel_rot="-89.1" moovel_centroid="-132.441783852,2038.07036455" moovel_centroidlatlon="-122.68908476088706,45.5272514767692"/>
  <polygon id="363363322" class="tile" points="-140.52623444,2049.56107564 -140.529625895,2026.01684806 -156.922269367,2026.01306039 -156.928409862,2049.56393391 -140.52623444,2049.56107564 " moovel_rot="-90.2" moovel_centroid="-148.727020633,2037.78987014" moovel_centroidlatlon="-122.67467689209718,45.56231162098505"/>
  <polygon id="362200863" class="tile" points="-165.98670602,2026.01306039 -166.001787838,2043.41245634 -175.219444267,2043.41094719 -175.216451091,2051.91366212 -157.940498235,2051.92396849 -157.928409862,2026.02185761 -165.98670602,2026.01306039 " moovel_rot="-90.3" moovel_centroid="-164.324487076,2041.34299903" moovel_centroidlatlon="-122.6590037852262,45.52814103658756"/>
  <polygon id="331780186" class="tile" points="-176.262480732,2026.08033463 -228.17983127,2026.01306039 -228.174944706,2034.01278554 -228.136734109,2078.88426256 -176.219444267,2078.95169658 -176.226709659,2070.92061595 -176.262480732,2026.08033463 " moovel_rot="-20.8" moovel_centroid="-202.200200261,2052.48219288" moovel_centroidlatlon="-122.67876854106508,45.51340514918188"/>
  <polygon id="107445520" class="tile" points="-255.12197291,2090.63335155 -255.011609741,2076.30444518 -247.945928368,2076.17808846 -248.042171212,2048.91427975 -255.103555191,2048.99165215 -255.105369987,2026.26454106 -229.954894279,2026.01306039 -229.18401475,2086.33445889 -229.17983127,2087.65620141 -229.199812717,2088.89919531 -229.642544428,2089.77845181 -230.39074196,2090.41875659 -231.369702761,2090.72207501 -232.550870288,2090.84976143 -255.12197291,2090.63335155 " moovel_rot="-59.6" moovel_centroid="-241.082909024,2058.04117266" moovel_centroidlatlon="-122.62746538586038,45.53273116213511"/>
  <polygon id="353077297" class="tile" points="-271.097442564,2026.01306039 -256.131929138,2044.65416233 -267.426934401,2053.7214775 -256.12197291,2067.79799304 -269.084849781,2078.20353737 -284.753833081,2058.69681726 -268.123242927,2045.34502984 -278.72789821,2032.14531018 -271.097442564,2026.01306039 " moovel_rot="-50.9" moovel_centroid="-269.279362863,2054.07342381" moovel_centroidlatlon="-122.70237059800338,45.53568573814348"/>
  <polygon id="271946848" class="tile" points="-285.779752562,2158.66806337 -313.066586354,2158.17298435 -312.987270654,2144.83877186 -317.648213011,2144.72616423 -318.452556035,2146.35927554 -319.737088899,2147.93815684 -321.404331468,2149.17902343 -321.469260407,2150.48028313 -331.282127051,2150.49533856 -335.254470309,2146.51436097 -335.237225743,2110.35795546 -321.986145055,2097.08398369 -321.787284302,2089.53981831 -335.290347534,2075.8922107 -335.328103296,2029.80175875 -332.336962928,2026.55476754 -312.599287114,2026.64027371 -312.590528996,2026.01306039 -303.788905254,2026.18348765 -303.950173842,2034.3841183 -295.429180569,2034.56013197 -295.499383792,2043.893123 -285.753833081,2043.91514475 -285.779752562,2158.66806337 " moovel_rot="-0.8" moovel_centroid="-309.765293851,2092.49429233" moovel_centroidlatlon="-122.57982009257815,45.536445678660776"/>
  <polygon id="115829170" class="tile" points="-361.008796133,2087.25212596 -361.396107807,2058.10650061 -336.328103296,2057.55376425 -337.040230899,2026.01306039 -366.042013065,2026.34630819 -366.07009875,2087.33637183 -361.008796133,2087.25212596 " moovel_rot="-89.5" moovel_centroid="-353.006323982,2046.16746323" moovel_centroidlatlon="-122.57558005275192,45.49451483572971"/>
  <polygon id="362200862" class="tile" points="-380.478473571,2026.01306039 -380.493394637,2052.45617658 -367.084984532,2052.45959088 -367.07009875,2026.02315377 -380.478473571,2026.01306039 " moovel_rot="-90.3" moovel_centroid="-373.782020139,2039.23800044" moovel_centroidlatlon="-122.65897417509679,45.528292497029916"/>
  <polygon id="39981510" class="tile" points="-381.493394637,2049.39346082 -381.504483552,2026.10281964 -398.647080771,2026.01306039 -398.767838705,2049.07591634 -381.493394637,2049.39346082 " moovel_rot="-90.3" moovel_centroid="-390.08923747,2037.66133783" moovel_centroidlatlon="-122.66100902383313,45.528440897752205"/>
  <polygon id="332810287" class="tile" points="-446.351658813,2077.86501843 -399.790518358,2077.8738315 -399.767838705,2026.02187319 -446.328968262,2026.01306039 -446.351658813,2077.86501843 " moovel_rot="-91.4" moovel_centroid="-423.059746015,2051.94344689" moovel_centroidlatlon="-122.6702344,45.498208399999996"/>
  <polygon id="409153725" class="tile" points="-462.513874644,2026.01306039 -462.515813901,2040.77761399 -454.714260308,2040.77914731 -454.716576506,2050.22919137 -447.362593188,2050.23632602 -447.351658813,2026.0217862 -462.513874644,2026.01306039 " moovel_rot="-0.5" moovel_centroid="-454.011474598,2036.2679845" moovel_centroidlatlon="-122.66128433227861,45.552434314750556"/>
  <polygon id="377575339" class="tile" points="-469.822434289,2026.66056665 -464.894756184,2026.01306039 -463.515813901,2038.11588148 -469.82940907,2039.28469133 -469.012245855,2035.77755331 -468.906659311,2033.51818872 -469.159410021,2030.94581468 -469.360348647,2028.76918786 -469.822434289,2026.66056665 " moovel_rot="6.5" moovel_centroid="-466.732660646,2032.73289796" moovel_centroidlatlon="-122.69921127067111,45.522422621498954"/>
  <polygon id="319047101" class="tile" points="-470.842884027,2064.27325028 -470.82940907,2028.26614941 -478.107532027,2026.01306039 -478.9185876,2027.52970839 -479.919518898,2028.77921883 -481.288057753,2030.332897 -482.475161365,2031.48742208 -483.36599924,2032.68481285 -483.585039961,2034.12619848 -483.022661435,2036.59350878 -478.896015454,2044.36252629 -473.912890249,2055.92744545 -470.842884027,2064.27325028 " moovel_rot="-19.2" moovel_centroid="-475.494959763,2040.11466062" moovel_centroidlatlon="-122.68469447247072,45.46369394800052"/>
  <polygon id="388367440" class="tile" points="-498.094346911,2026.01306039 -485.971949019,2039.37154081 -484.585039961,2043.44721145 -484.59014644,2079.19756141 -487.461816689,2091.1362157 -501.665734594,2091.27971498 -506.063288256,2090.44219297 -514.528491087,2083.38081007 -516.905240048,2073.3847514 -517.097501042,2062.12587358 -513.889870514,2055.8955704 -498.484196401,2042.29760523 -501.36256573,2028.45561523 -498.094346911,2026.01306039 " moovel_rot="-68.8" moovel_centroid="-498.690403599,2064.49306833" moovel_centroidlatlon="-122.68223260309567,45.60957543739127"/>
  <polygon id="370817706" class="tile" points="-524.230901641,2026.01306039 -524.230393614,2038.96558985 -518.250731615,2039.05314568 -518.12461812,2028.94973963 -518.097501042,2026.10797288 -524.230901641,2026.01306039 " moovel_rot="0.8" moovel_centroid="-521.200779318,2032.50693124" moovel_centroidlatlon="-122.69900580484799,45.52465591952477"/>
  <polygon id="107529957" class="tile" points="-525.230901641,2038.373771 -534.295851785,2038.3695548 -534.288911872,2026.01306039 -525.233463696,2026.01729317 -525.230901641,2038.373771 " moovel_rot="-89.9" moovel_centroid="-529.762283724,2032.19449975" moovel_centroidlatlon="-122.65990066616841,45.52457892496465"/>
  <polygon id="419592828" class="tile" points="-535.309124156,2026.01306039 -540.85303144,2026.02187532 -540.839759064,2067.1735529 -535.295851785,2067.16473833 -535.309124156,2026.01306039 " moovel_rot="-0.4" moovel_centroid="-538.074441607,2046.59330673" moovel_centroidlatlon="-122.55755224999997,45.53385004999999"/>
  <polygon id="70510072" class="tile" points="-565.574095705,2026.10616894 -570.995445272,2026.01306039 -571.044591969,2029.39203446 -571.303366378,2029.99927523 -571.789134533,2030.19673058 -576.42560223,2030.25529879 -576.747446428,2044.70410547 -576.733400205,2049.56549648 -574.627699699,2049.95197317 -572.722951758,2051.6938695 -572.329553809,2053.39462211 -573.065339296,2056.01071409 -574.275671772,2058.29153189 -574.757528159,2130.20062611 -574.942714464,2149.16816103 -576.663508739,2155.53240505 -576.708154349,2171.30970458 -571.905592811,2171.18885866 -571.177631053,2171.45963863 -571.101232971,2172.06641905 -571.170637961,2175.36736253 -565.963665268,2175.29953552 -553.293091399,2178.62202783 -551.550481459,2178.46341183 -548.321854177,2178.24851784 -545.49882678,2178.31404133 -544.908169887,2166.88999337 -542.046941319,2152.29262275 -541.85303144,2120.68945408 -543.11971983,2119.41093402 -544.085609151,2118.06237547 -544.580141267,2115.80995651 -543.943698762,2055.54953337 -557.170446979,2042.7266951 -558.271038973,2041.38586697 -558.90632607,2039.93163383 -559.169984698,2038.44189792 -559.143705695,2032.62136636 -565.206689256,2032.42672861 -565.547524109,2032.25516009 -565.604151047,2031.81203166 -565.574095705,2026.10616894 " moovel_rot="-4.8" moovel_centroid="-559.844583085,2107.78910086" moovel_centroidlatlon="-122.5666912152927,45.49088571147841"/>
</svg>