<svg xmlns="http://www.w3.org/2000/svg" version="1.1" width="592.5px" height="1200px">
  <polygon id="0" class="bin" points="-169.795514373,1137.4041686 -167.574767035,1137.67873677 -165.869713904,1140.43581035 -166.950974247,1143.49187596 -188.617599457,1165.088133 -190.61746063,1169.86670545 -190.810378848,1203.77133725 -191.916222333,1206.40918359 -194.560318144,1207.5 -446.2499995,1207.5 -448.901649929,1206.40165043 -449.9999995,1203.75 -449.9999995,3.75 -448.901649929,1.09834957055 -446.2499995,0.0 -185.604498413,0.0 -182.952847984,1.09834957055 -181.854498413,3.75 -181.854498413,107.743563717 -184.169435542,111.208111964 -184.742362712,111.445426168 -186.425304119,115.508406138 -186.425304119,135.166010423 -184.115181968,140.26736501 -147.526287688,172.381748317 -146.2500005,175.200124609 -146.2500005,191.347463447 -148.517642126,194.792040874 -177.317549702,207.185951328 -180.364022008,210.28336548 -180.374914626,214.627884934 -171.548973508,236.421374413 -171.560197738,239.264030468 -173.562284103,241.282066547 -193.48606215,249.720375087 -196.563425017,252.83442628 -196.554992868,257.212485889 -183.949160281,287.652012095 -176.58333735,305.330733758 -174.358654133,307.839719553 -173.414588921,310.302657615 -173.399374817,312.587279708 -146.541651884,376.647443858 -146.2500005,378.09738346 -146.2500005,408.909367379 -147.348040912,411.560708614 -149.999126018,412.659367277 -159.412371834,412.661562401 -163.475012596,414.345507705 -165.156945629,418.408981961 -165.156849721,418.774948228 -167.468694775,422.239196877 -168.657613955,422.732907119 -170.338355238,426.793323844 -170.339706688,442.271106445 -171.437862107,444.92223529 -174.088830118,446.020778909 -182.831179953,446.022822419 -186.893688061,447.706630551 -187.768007577,449.81863084 -191.231979929,452.134267553 -191.543772522,452.134339526 -192.82724689,451.90817487 -194.668480101,451.238001142 -198.914589266,451.359005532 -201.923595416,454.357332916 -211.141375261,475.588227893 -211.297031369,475.905030399 -224.060485404,499.060328535 -224.54110827,503.452181297 -222.92979164,505.442551362 -222.118367683,508.225282615 -222.376122476,510.494777003 -219.520174063,513.953431985 -212.038479794,517.83795117 -208.845774172,518.608120455 -151.801388025,518.295473884 -149.138591762,519.384393679 -148.030840295,522.039410995 -147.896455308,605.938085243 -147.161858248,609.013129547 -146.652195519,610.022992989 -146.2500005,611.712579273 -146.2500005,620.073996578 -147.745398276,623.070539388 -151.038943866,623.677203023 -151.706466426,623.484730528 -153.652580358,622.15131106 -155.624571411,619.557893111 -159.859169993,618.885159308 -179.277993845,623.309575402 -180.906212491,622.701669444 -180.976384914,623.084151398 -186.632056101,622.046528192 -188.239606381,622.367653772 -191.895991752,624.816753907 -192.746959218,629.134519513 -191.639303404,634.643391447 -191.753542933,636.55450711 -192.101033565,637.61075576 -189.882723943,647.787924562 -188.219623126,650.75645771 -185.182844681,652.291407237 -176.119969155,653.865214235 -175.195993338,654.152359159 -173.102037534,655.114410882 -171.571742637,656.405824781 -167.494840142,662.370236177 -166.627812554,663.403928615 -162.779991055,667.168894867 -161.653321,669.777073181 -162.678780118,672.426679403 -178.094032857,688.717608132 -178.875446353,689.347893043 -180.182737733,690.139522991 -183.420597976,695.359009084 -184.199320269,704.588091447 -183.372254669,708.465705736 -153.68160149,762.24205828 -153.221008518,763.833344813 -152.691050621,772.800705935 -153.357262127,775.165065638 -155.343884267,776.609837953 -190.287604372,787.23188752 -193.268238235,789.333611763 -194.410379895,792.79727102 -194.404035946,804.636679962 -194.042671266,806.830543114 -191.89782923,813.175810071 -190.760166146,815.259125602 -185.6752082,821.628942401 -185.54373858,821.788643483 -174.531437817,834.762881186 -174.292402003,835.03005834 -163.018043694,846.989019347 -162.738643746,847.322125903 -155.836459523,856.593702976 -155.411078959,857.324886555 -153.886779326,860.795127326 -153.686550422,863.230262453 -155.028903615,865.271845811 -157.343967643,866.053160885 -174.610926368,865.943538537 -176.749349889,865.257477505 -178.112286449,863.472557667 -178.231971246,863.142669056 -181.103490993,861.521321395 -185.041242972,862.29803561 -187.551276878,863.833931669 -190.776087825,869.622273311 -190.515664655,920.867068777 -189.224379477,923.913651705 -189.397116849,927.194892442 -190.676827952,929.503884912 -190.434084295,942.824892997 -188.829786279,946.506862461 -189.001942771,949.848108867 -190.406824974,952.337037847 -190.374710036,969.519058799 -189.349498495,973.107855572 -188.923030838,973.796240525 -183.831873538,976.969312202 -174.390615193,977.902619743 -172.202522242,979.248155929 -165.901975733,982.682864358 -160.693470539,982.652087467 -158.264701457,983.526135308 -156.976195951,985.76279184 -157.438454011,988.30231864 -159.432455587,989.941475922 -191.497791191,1001.16477675 -194.321300069,1003.28898638 -195.396478225,1006.65476427 -195.4754609,1094.89639229 -194.811203264,1097.84552863 -177.528723394,1134.18011695 -174.569867513,1137.01570235 -169.787641883,1137.20107664 -169.795514373,1137.4041686 " moovel_rot="0" moovel_centroid="-313.1894224885386,598.3218636108919" moovel_centroidlatlon="0,0"/>
  <polygon id="421836311" class="tile" points="18.8139781475,1322.3738672 18.8139781475,1359.59019936 23.0082910519,1359.59019936 23.0082910519,1367.02411496 55.953980507,1367.02411496 55.953980507,1362.86299239 60.2814158559,1362.86299239 60.2814158559,1325.19247671 62.2977141976,1325.19247671 62.2977141976,1288.73756986 64.3520551167,1288.73756986 64.3520551167,1211.21245008 44.21757764,1211.21245008 44.21757764,1201.0 34.5735448316,1201.0 34.5735448316,1204.72029738 29.6659237742,1204.72029738 27.6591239326,1205.46836436 25.9376504786,1206.75076489 24.6441672936,1208.46063227 23.873783778,1210.45770394 23.6835656084,1212.60171733 23.6835656084,1268.67334484 6.89678529352,1268.67334484 6.89678529352,1273.42223432 1.0,1273.42223432 1.0,1283.54117603 6.89678529352,1283.54117603 6.89678529352,1299.21718673 23.0082910519,1299.21718673 23.0082910519,1322.3738672 18.8139781475,1322.3738672 " moovel_rot="-90" moovel_centroid="40.052735358742254,1286.4746279368621" moovel_centroidlatlon="-122.68062461928317,45.57660318975231"/>
  <polygon id="40995792" class="tile" points="80.1319655854,1233.99720247 65.3520551167,1233.98868141 65.3699690621,1201.0 77.3650022849,1201.01156295 77.362406509,1213.88240995 80.1472834084,1213.87936806 80.1319655854,1233.99720247 " moovel_rot="-90.2" moovel_centroid="72.275575177,1218.2972941810262" moovel_centroidlatlon="-122.66120813306385,45.54026038096535"/>
  <polygon id="39706227" class="tile" points="94.8593130693,1226.79495241 81.1472834084,1226.79495241 81.1472834084,1201.0 94.8593130693,1201.0 94.8593130693,1226.79495241 " moovel_rot="-90.0" moovel_centroid="88.0032982389,1213.8974762033672" moovel_centroidlatlon="-122.64416070000001,45.52707284999999"/>
  <polygon id="100853315" class="tile" points="95.8593130693,1201.0 95.8823758412,1241.28798162 112.152183527,1241.49853456 123.63040123,1210.60474567 95.8593130693,1201.0 " moovel_rot="-88.6" moovel_centroid="106.813360911,1221.830011062486" moovel_centroidlatlon="-122.62242546519893,45.533600116694714"/>
  <polygon id="41375067" class="tile" points="137.768180926,1222.78077157 124.63040123,1222.78077157 124.63040123,1201.0 137.768180926,1201.0 137.768180926,1222.78077157 " moovel_rot="-90" moovel_centroid="131.199291078,1211.8903857845812" moovel_centroidlatlon="-122.66123445,45.5500346"/>
  <polygon id="286682404" class="tile" points="138.773228988,1201.0 138.768180926,1247.44337614 153.86029625,1247.44395036 153.865344382,1201.00057123 138.773228988,1201.0 " moovel_rot="1.3" moovel_centroid="146.316762717,1224.2219744179522" moovel_centroidlatlon="-122.6377434,45.484424000000004"/>
  <polygon id="189609745" class="tile" points="165.607446849,1201.01057958 154.880365445,1201.0 154.865344382,1226.59354724 165.599104789,1226.60407978 165.607446849,1201.01057958 " moovel_rot="-0.4" moovel_centroid="160.238062887,1213.8033791736664" moovel_centroidlatlon="-122.59966172517564,45.49152818602132"/>
  <polygon id="371785343" class="tile" points="194.444863259,1252.43917955 178.45395054,1252.45591984 166.607446849,1252.473735 166.655499002,1201.02624405 178.855201903,1201.01659653 192.009672186,1201.0 191.982279624,1228.35125698 194.46555303,1228.34302502 194.461294359,1233.71115786 194.444863259,1252.43917955 " moovel_rot="-20.8" moovel_centroid="179.917857725,1227.3345618632284" moovel_centroidlatlon="-122.6822875499281,45.521199391970356"/>
  <polygon id="325447262" class="tile" points="195.755293635,1201.0 231.256781535,1201.23217148 231.309017069,1245.65042965 195.46555303,1245.16351848 195.755293635,1201.0 " moovel_rot="-0.3" moovel_centroid="213.463432031,1223.29715268858" moovel_centroidlatlon="-122.57975502670163,45.51951044914995"/>
  <polygon id="216696459" class="tile" points="248.659623875,1210.33623696 249.982099427,1206.74610912 234.225938701,1201.0 232.322375408,1206.18574504 232.309017069,1222.93015828 252.914254815,1222.93965595 252.920933983,1218.48524828 248.659623875,1218.48524828 248.659623875,1210.33623696 " moovel_rot="0" moovel_centroid="240.868699645,1213.6002220699268" moovel_centroidlatlon="-122.64439184508733,45.499045033790956"/>
  <polygon id="408057303" class="tile" points="253.920933983,1214.037958 253.928672585,1201.0 262.422327317,1201.00228175 265.358070761,1201.00694788 265.350332323,1214.04490588 253.920933983,1214.037958 " moovel_rot="-90.3" moovel_centroid="259.639605191,1207.521732615093" moovel_centroidlatlon="-122.65692908922341,45.51613214887851"/>
  <polygon id="99618867" class="tile" points="266.49742787,1201.0 291.840044893,1202.42822251 292.405561534,1220.2841255 287.569242136,1220.44777786 287.588827682,1222.49073468 287.633948233,1226.78570627 266.358070761,1227.52859365 266.374766405,1224.65910883 266.441640353,1216.98188157 273.789942341,1216.64646312 273.707943605,1213.34904595 266.367282595,1213.4089385 266.49742787,1201.0 " moovel_rot="0.2" moovel_centroid="278.935452645,1213.9635133410675" moovel_centroidlatlon="-122.69510660252047,45.52305102504309"/>
  <polygon id="315259931" class="tile" points="324.856007439,1274.61579587 293.471133958,1274.63714052 293.405561534,1201.05715902 360.799806004,1201.0 360.821333032,1233.2813629 328.553482781,1233.30990177 328.538645318,1209.59148948 318.900051242,1209.59767096 318.949517381,1267.80171725 333.37672451,1247.02284728 344.745024613,1254.97046763 333.493076084,1271.16276622 324.856007439,1274.61579587 " moovel_rot="-89.6" moovel_centroid="321.24764883,1233.3111757351164" moovel_centroidlatlon="-122.71097048234641,45.488431133861276"/>
  <polygon id="388367455" class="tile" points="393.756781292,1233.79123099 361.846287779,1233.90732977 361.821333032,1203.45615036 372.478370577,1203.41713134 372.475365628,1201.07700866 393.728861164,1201.0 393.756781292,1233.79123099 " moovel_rot="-29.1" moovel_centroid="378.047571207,1217.8244489649655" moovel_centroidlatlon="-122.6864182484775,45.61340486697108"/>
  <polygon id="107444937" class="tile" points="418.000224702,1201.0 414.218816164,1201.0039434 414.217220772,1208.89398223 410.478738071,1208.89987854 410.476356307,1221.86167243 408.406089269,1225.14622609 395.974349156,1217.30275471 394.756781292,1222.19495339 395.303844594,1223.55358833 417.071541892,1234.977192 417.983445989,1234.47452815 418.000224702,1201.0 " moovel_rot="-59.6" moovel_centroid="411.023613401,1220.6027967506898" moovel_centroidlatlon="-122.63520389732595,45.5301359363564"/>
  <polygon id="226431270" class="tile" points="419.013283347,1227.09837415 419.000224702,1201.0159283 445.00367625,1201.0 445.005193357,1213.99115471 445.016735501,1227.08244585 435.031497858,1227.08797408 419.013283347,1227.09837415 " moovel_rot="-90.3" moovel_centroid="432.007221702,1214.049042436624" moovel_centroidlatlon="-122.65803494773539,45.516292013235734"/>
  <polygon id="285197118" class="tile" points="470.773352269,1203.95042367 470.76908813,1201.03591955 452.403596835,1201.0 452.402582924,1207.74288131 446.021837606,1207.72371379 446.016735501,1252.68987405 479.22723431,1252.76269145 479.228775331,1247.79059305 482.946234357,1247.80288028 482.871740359,1210.27691947 475.609475471,1209.06541121 470.773352269,1203.95042367 " moovel_rot="69.9" moovel_centroid="463.995227226,1228.3053086960867" moovel_centroidlatlon="-122.6885789442266,45.51774340766272"/>
  <polygon id="247340388" class="tile" points="509.10775685,1227.04552035 509.127342487,1201.13340337 499.747647361,1201.0 491.233452274,1201.04392148 483.968851419,1201.02138408 483.946234357,1226.97773161 509.10775685,1227.04552035 " moovel_rot="68.6" moovel_centroid="496.537785501,1214.0269233297713" moovel_centroidlatlon="-122.67431174382355,45.52120681986045"/>
  <polygon id="416662347" class="tile" points="521.627908536,1202.58486028 523.208811781,1206.7923763 532.63024956,1203.96087819 531.113232331,1214.87265226 526.847615353,1214.28326619 526.56454751,1216.32817753 531.243996709,1216.97782358 530.332626536,1223.55582473 523.279549941,1222.5826308 524.760463616,1226.75365342 511.239115993,1224.88168475 510.127342487,1220.45243801 512.05862635,1206.44794129 510.129876577,1201.0 521.627908536,1202.58486028 " moovel_rot="-80.8" moovel_centroid="520.380051845,1214.0668667278028" moovel_centroidlatlon="-122.68621708335853,45.531951444700695"/>
  <polygon id="444996211" class="tile" points="551.345304831,1201.0 533.63024956,1212.41736852 537.518450159,1218.42162112 534.569658914,1220.32340034 545.448632349,1237.12171377 553.948432585,1231.63968038 541.831060398,1212.91780264 553.949890129,1205.1056123 551.345304831,1201.0 " moovel_rot="38.3" moovel_centroid="543.895429357,1219.981524058932" moovel_centroidlatlon="-122.73798579809107,45.589644977569215"/>
  <polygon id="423988670" class="tile" points="554.949890129,1201.00922656 554.960922137,1218.19873205 567.463142784,1218.19900562 567.452392734,1201.0 554.949890129,1201.00922656 " moovel_rot="1.7" moovel_centroid="561.207162567,1209.601707849064" moovel_centroidlatlon="-122.68872324140149,45.53094497552894"/>
  <polygon id="207451803" class="tile" points="568.463142784,1201.00274057 580.796638218,1201.0 580.807040046,1214.5165566 568.473312469,1214.52879585 568.468775121,1207.33330225 568.463142784,1201.00274057 " moovel_rot="1.4" moovel_centroid="574.634529594,1207.762050531328" moovel_centroidlatlon="-122.68448855753087,45.52619997458346"/>
  <polygon id="37861726" class="tile" points="10.9675287522,1401.580252 10.9758454084,1367.02411496 0.0,1368.10070011 0.725402849168,1399.3688735 10.9675287522,1401.580252 " moovel_rot="-64.7" moovel_centroid="5.754452761380381,1383.82420766" moovel_centroidlatlon="-122.78907651205849,45.5745129434692"/>
  <polygon id="160836258" class="tile" points="12.9758454084,1468.42726551 13.0233570799,1367.02411496 30.8307016674,1367.16437752 37.8433962204,1419.61589519 36.73162819,1452.46405053 33.4818433795,1463.41788842 29.8994759478,1468.30704046 12.9758454084,1468.42726551 " moovel_rot="-90.0" moovel_centroid="24.2253215425,1419.06166103" moovel_centroidlatlon="-122.66269490208178,45.52629761329519"/>
  <polygon id="363596412" class="tile" points="254.883678876,1367.02411496 82.8727044359,1371.75087808 67.7525466699,1393.777716 44.698987237,1438.36878723 38.8433962204,1507.40614782 45.3957450762,1518.97046364 45.3080514383,1540.63510921 72.0687415481,1614.76689817 108.641179458,1718.52685432 135.847360729,1802.9081252 141.745487754,1807.33315517 156.03094824,1839.48450057 149.445057222,1843.917685 185.497119704,1931.38094582 199.186076266,1938.80540875 207.627484658,1939.41147184 220.111344383,1934.65910878 227.673857497,1924.25560081 227.557952577,1915.17913254 224.857900528,1906.89228796 219.615292076,1900.06338125 209.998168651,1895.05299531 254.621372279,1893.9831438 239.160616037,1452.07033889 254.883678876,1367.02411496 " moovel_rot="60.3" moovel_centroid="163.980092797,1606.41323719" moovel_centroidlatlon="-122.75135942842725,45.60695855583696"/>
  <polygon id="39706234" class="tile" points="269.025564525,1419.76283692 255.883678876,1419.76283692 255.883678876,1367.02411496 283.887354083,1367.02411496 283.887354083,1381.92534199 289.256212847,1387.74957775 294.976654617,1381.88526698 304.336500371,1382.6667298 302.740101451,1393.39347594 302.740101451,1419.76283692 281.597272854,1419.76283692 281.597272854,1393.96788451 269.025564525,1393.96788451 269.025564525,1419.76283692 " moovel_rot="-90" moovel_centroid="277.791296911,1394.05377471" moovel_centroidlatlon="-122.6449853860881,45.52692315210677"/>
  <polygon id="107445431" class="tile" points="305.336500371,1367.02411496 305.343220254,1393.1788075 331.329227091,1394.06614688 331.409442346,1367.28329006 305.336500371,1367.02411496 " moovel_rot="-0.6" moovel_centroid="318.406241187,1380.38193426" moovel_centroidlatlon="-122.62934582586713,45.532617909078255"/>
  <polygon id="185949396" class="tile" points="353.243207552,1403.41890928 353.252707652,1408.10100706 332.456943044,1408.12104457 332.409442346,1367.05083163 357.850755168,1367.02411496 357.869755355,1386.93471908 344.512606361,1386.94807742 342.878585828,1386.95475659 342.89758607,1403.43226762 344.531606596,1403.43226762 353.243207552,1403.41890928 " moovel_rot="-90" moovel_centroid="343.195005866,1384.63990485" moovel_centroidlatlon="-122.62243164215528,45.51339026915339"/>
  <polygon id="40941293" class="tile" points="358.869755355,1367.59852353 397.72587886,1367.02411496 397.72587886,1424.9258349 358.869755355,1425.50024347 358.869755355,1367.59852353 " moovel_rot="-90" moovel_centroid="378.297817107,1396.26217921" moovel_centroidlatlon="-122.66887984999998,45.5416314"/>
  <polygon id="107665977" class="tile" points="435.054594494,1367.04315852 435.014403786,1420.59776376 398.72587886,1420.57868734 398.759390479,1367.02411496 435.054594494,1367.04315852 " moovel_rot="-0.3" moovel_centroid="416.888569524,1393.81010981" moovel_centroidlatlon="-122.6182953748946,45.53477145864195"/>
  <polygon id="321594445" class="tile" points="441.297742511,1367.02411496 441.150800782,1371.50938484 436.201536221,1371.65192513 436.35515712,1398.1073375 442.499993011,1398.1073375 442.419842977,1401.87038113 442.353051283,1405.28182495 436.054594494,1405.43386697 436.201536221,1429.79854338 436.35515712,1431.73706977 437.403786721,1433.83713924 439.501045929,1435.62362301 442.353051283,1436.22228499 444.897814842,1435.62362301 468.228153722,1421.75935283 468.228153722,1367.02411496 451.837471898,1367.02411496 441.297742511,1367.02411496 " moovel_rot="0" moovel_centroid="452.027025807,1399.20113589" moovel_centroidlatlon="-122.65823656207932,45.52819488848694"/>
  <polygon id="39379082" class="tile" points="469.437246234,1418.80771568 469.228153722,1394.20165544 469.247162133,1367.02411496 481.811706553,1367.02411496 481.811706553,1392.81906737 495.526224503,1392.81906737 508.10021087,1392.81906737 508.10021087,1418.62069894 469.437246234,1418.80771568 " moovel_rot="-90" moovel_centroid="485.475815375,1399.44797811" moovel_centroidlatlon="-122.62052744770848,45.537244647008094"/>
  <polygon id="40343888" class="tile" points="509.10021087,1391.02480778 509.10021087,1367.02411496 532.604208156,1367.02411496 532.604208156,1391.02480778 509.10021087,1391.02480778 " moovel_rot="0" moovel_centroid="520.852209513,1379.02446137" moovel_centroidlatlon="-122.65534045,45.5212844"/>
  <polygon id="107396986" class="tile" points="533.604208156,1367.02411496 533.606526501,1392.65346912 546.900590103,1391.69934557 547.090206775,1367.15674571 533.604208156,1367.02411496 " moovel_rot="-90.6" moovel_centroid="540.251890335,1379.60430742" moovel_centroidlatlon="-122.63397468156512,45.52665803208414"/>
  <polygon id="156415937" class="tile" points="548.097477368,1392.65711378 563.840365414,1392.64917357 563.82414319,1367.02411496 553.100662711,1367.03194266 553.10980259,1382.36018882 548.090206775,1382.36697786 548.097477368,1392.65711378 " moovel_rot="-88.4" moovel_centroid="557.225506304,1381.05375226" moovel_centroidlatlon="-122.68509362721115,45.52875958998369"/>
  <polygon id="188983529" class="tile" points="43.3093828227,1939.41147184 30.4334909186,1946.20644452 15.1662326474,1954.22881525 0.0,1962.35957647 2.00943434201,1964.95425405 6.19658708721,1970.70492837 26.3139571097,1956.06408719 38.6421848796,1973.00664911 20.1269236576,1986.47584972 35.6275648534,2007.76802735 24.8798180759,2015.59408938 9.04868898019,1993.84029023 3.75976110175,1997.69250622 0.385794391483,2000.19017357 43.1976409961,2059.98912815 40.8109053031,2022.10425024 43.3093828227,1939.41147184 " moovel_rot="54.4" moovel_centroid="28.804738280880752,1995.93715111" moovel_centroidlatlon="-122.59971508857642,45.49060610297385"/>
  <polygon id="107748106" class="tile" points="112.592501479,2019.5891599 74.718414985,2064.80523353 45.3170974258,2040.48234834 45.3093828227,1995.52895412 55.1552035484,1959.17086732 60.3355124425,1960.21237895 64.2043468278,1942.33300539 81.964438064,1939.41147184 89.6098841917,1945.62532245 79.0924770486,1958.06624593 74.8954952244,1954.42151504 65.728833684,1966.06793779 62.8810375992,1977.66250992 70.2242865819,1983.88538928 76.5782982226,1976.21518699 88.2405428607,1986.13439704 82.555535534,1993.38361201 112.592501479,2019.5891599 " moovel_rot="39.6" moovel_centroid="71.5378204925,2009.54446081" moovel_centroidlatlon="-122.6694380697792,45.53595698301765"/>
  <polygon id="82360500" class="tile" points="118.233113158,1991.00926603 118.234562352,1985.68409261 113.592501479,1985.68127805 113.598707772,1970.23823785 117.920170464,1970.24217156 117.917956905,1958.12736608 153.71183942,1958.12604204 153.713306,1939.41173466 159.237011871,1939.41147184 159.238497229,1985.75967367 154.990538146,1985.76499267 154.988823408,1991.01409302 118.233113158,1991.00926603 " moovel_rot="-0.2" moovel_centroid="138.544315799,1972.72715095" moovel_centroidlatlon="-122.6608471487753,45.56674561035087"/>
  <polygon id="368826361" class="tile" points="167.958168241,1973.71632594 161.894919126,1975.19780797 160.238497229,1940.80972799 167.984074793,1939.41147184 167.958168241,1973.71632594 " moovel_rot="78.6" moovel_centroid="164.495226357,1956.5921878" moovel_centroidlatlon="-122.7144013710215,45.46746109556721"/>
  <polygon id="160973342" class="tile" points="168.984074793,1965.70524626 182.596234536,1965.7004776 182.593306509,1944.88842222 198.102364058,1944.8898375 198.099481677,1939.41147184 202.981963677,1939.41244488 202.990315529,2005.42784513 197.373126009,2005.42815452 197.367508462,2002.20954021 182.272558787,2002.20740249 182.271074767,1974.56893299 168.986193829,1974.57313046 168.984074793,1965.70524626 " moovel_rot="-0.1" moovel_centroid="191.448040006,1973.12494001" moovel_centroidlatlon="-122.7285365656691,45.48032563919019"/>
  <polygon id="427271967" class="tile" points="215.872557978,1961.8270877 215.885916317,1941.63404137 215.892595485,1939.42097001 204.003673868,1939.41147184 203.990315529,1961.81758958 215.872557978,1961.8270877 " moovel_rot="0" moovel_centroid="209.938611268,1950.61882199" moovel_centroidlatlon="-122.67918114258374,45.50174620481985"/>
  <polygon id="107502336" class="tile" points="216.913003841,1939.87168975 233.478514338,1939.41147184 234.002021366,1964.04526224 216.892595485,1964.34390838 216.913003841,1939.87168975 " moovel_rot="-1.0" moovel_centroid="225.332140157,1951.98373931" moovel_centroidlatlon="-122.65841393338206,45.52555750719791"/>
  <polygon id="107667108" class="tile" points="235.008373594,1967.66005653 241.139395387,1971.98143467 254.073840088,1952.67727649 235.002021366,1939.41147184 235.008373594,1967.66005653 " moovel_rot="-56.2" moovel_centroid="241.861437689,1955.90315156" moovel_centroidlatlon="-122.61758534937515,45.53693999629385"/>
  <polygon id="430252196" class="tile" points="255.07391434,1939.4133232 255.073840088,1948.01877022 255.080757705,1956.16818909 266.776965061,1956.15684081 266.770254306,1939.41147184 255.07391434,1939.4133232 " moovel_rot="-0.8" moovel_centroid="260.92402274,1947.78745335" moovel_centroidlatlon="-122.67411747170816,45.49708857524354"/>
  <polygon id="377925946" class="tile" points="281.752119051,1960.23695639 267.785819128,1960.24361 267.776965061,1939.41812519 281.743264988,1939.41147184 281.752119051,1960.23695639 " moovel_rot="-0.3" moovel_centroid="274.764542043,1949.82754086" moovel_centroidlatlon="-122.62324190000004,45.490517200000006"/>
  <polygon id="107768588" class="tile" points="282.786081558,1939.41147184 282.752119051,1989.32331857 298.247863565,1989.32991035 298.281792913,1939.42756291 282.786081558,1939.41147184 " moovel_rot="0.2" moovel_centroid="290.516718479,1964.3730729" moovel_centroidlatlon="-122.66407075367977,45.51118292491744"/>
  <polygon id="300880462" class="tile" points="324.631739401,1978.28943679 324.292456541,1939.41147184 299.294628776,1939.80996903 299.281792913,1978.59749493 324.631739401,1978.28943679 " moovel_rot="-90.5" moovel_centroid="311.880496793,1959.0722336" moovel_centroidlatlon="-122.58136972650992,45.48327512288564"/>
  <polygon id="395013577" class="tile" points="358.821447451,2000.41490485 361.896968124,1979.73018446 360.09430971,1972.75037401 361.922494781,1941.4582998 356.824671917,1941.11877646 326.770310765,1939.41147184 325.631739401,1950.9018471 329.781515253,1967.19680686 348.057277186,1968.19976971 346.051685885,1999.46523801 358.821447451,2000.41490485 " moovel_rot="81.2" moovel_centroid="347.090984422,1963.32567389" moovel_centroidlatlon="-122.65788242891585,45.600717800606226"/>
  <polygon id="57903209" class="tile" points="366.502529606,2047.25960531 410.57836879,2047.25960531 410.57836879,2043.32683947 415.594425045,2043.32683947 415.594425045,2031.99399797 412.007711052,2031.99399797 411.199531549,2031.54752342 410.845535567,2030.6545742 411.112702345,2029.40064526 412.455215405,2026.27532108 412.548723777,1963.1604781 411.653715072,1961.72604114 410.304522841,1959.58863435 409.857018489,1957.80271157 410.217693639,1956.10228453 411.379869123,1955.12382627 412.815890554,1954.94333395 415.861591823,1954.94333395 415.861591823,1944.58876426 410.665197992,1944.58876426 410.665197992,1939.41147184 367.130371532,1939.41147184 367.130371532,1944.32277505 362.922494781,1944.32277505 362.922494781,2035.11931879 366.328871199,2035.11931879 366.502529606,2047.25960531 " moovel_rot="0" moovel_centroid="388.164796682,1993.22507527" moovel_centroidlatlon="-122.66641077422271,45.50990141286205"/>
  <polygon id="443492968" class="tile" points="416.861591823,1939.41147184 425.130403598,1939.5540623 424.889953499,1991.59932345 416.868270992,1991.50426408 416.861591823,1939.41147184 " moovel_rot="0" moovel_centroid="420.937278026,1965.38557037" moovel_centroidlatlon="-122.63677367914623,45.547868360548854"/>
  <polygon id="404734555" class="tile" points="426.135558904,1965.8632848 426.130403598,1939.41147184 447.506644005,1939.47092796 447.517350332,1971.43789068 436.679000938,1971.41317087 436.678574199,1965.89006977 426.135558904,1965.8632848 " moovel_rot="32.8" moovel_centroid="437.326569255,1954.19734427" moovel_centroidlatlon="-122.75624047788357,45.58867910719762"/>
  <polygon id="355401828" class="tile" points="466.468760594,1939.42442593 466.453492169,1963.72365741 448.517350332,1963.70402425 448.532654211,1939.41147184 466.468760594,1939.42442593 " moovel_rot="-90.3" moovel_centroid="457.493475217,1951.56589971" moovel_centroidlatlon="-122.65601967510402,45.51203694567511"/>
  <polygon id="213945483" class="tile" points="467.490657989,1966.38665421 481.507432223,1966.3775589 481.485535755,1939.41147184 467.468760594,1939.42056714 467.490657989,1966.38665421 " moovel_rot="-89.3" moovel_centroid="474.48809664,1952.89906288" moovel_centroidlatlon="-122.637873,45.487216149999995"/>
  <polygon id="396107714" class="tile" points="482.507432223,1967.70734895 500.765222586,1965.04471862 500.496782041,1939.41147184 482.519324175,1939.78676522 482.507432223,1967.70734895 " moovel_rot="-90.6" moovel_centroid="491.44476822,1953.03413504" moovel_centroidlatlon="-122.66831082705926,45.562112295152474"/>
  <polygon id="226445943" class="tile" points="501.765222586,1964.84582643 501.787330668,1939.41147184 525.812620732,1939.43633156 525.790512953,1964.87068614 501.765222586,1964.84582643 " moovel_rot="-90.1" moovel_centroid="513.788921735,1952.14107902" moovel_centroidlatlon="-122.6594668,45.51200810000001"/>
  <polygon id="212506497" class="tile" points="526.812620732,1987.60983753 558.78128284,1987.63500571 558.802404479,1962.36692988 536.670291372,1962.34745087 536.699494238,1939.41724389 526.853449649,1939.41147184 526.812620732,1987.60983753 " moovel_rot="-89.5" moovel_centroid="540.396213846,1969.72338834" moovel_centroidlatlon="-122.61199754107896,45.4797573799749"/>
  <polygon id="207306158" class="tile" points="559.813078961,1939.41147184 572.728195326,1939.41696776 577.218044061,1939.42047059 581.520940137,1939.41907789 585.836941231,1939.42753402 585.826515403,1965.59629747 559.802404479,1965.58973112 559.813078961,1939.41147184 " moovel_rot="1.5" moovel_centroid="572.819224358,1952.50523815" moovel_centroidlatlon="-122.683985108047,45.526716835594485"/>
  <polygon id="189781408" class="tile" points="26.3341446307,2064.88313132 26.3246138614,2077.97596092 26.318488742,2091.5161848 0.0,2091.4382721 0.0156155895442,2064.80523353 8.09827134423,2064.8277599 21.1725220185,2064.8696704 26.3341446307,2064.88313132 " moovel_rot="69.7" moovel_centroid="13.16640628299507,2078.16073664" moovel_centroidlatlon="-122.68467535294513,45.522455143396456"/>
  <polygon id="361835582" class="tile" points="61.0822948355,2064.88116369 60.9305278778,2134.82744131 28.443080575,2134.87463661 28.3341446307,2064.80523353 61.0822948355,2064.88116369 " moovel_rot="-0.1" moovel_centroid="44.6927501912,2099.80048089" moovel_centroidlatlon="-122.67956239507379,45.548567865696675"/>
  <polygon id="369721286" class="tile" points="74.6803554174,2064.80523353 74.6784480046,2093.93996681 62.0857494604,2093.91220508 62.0822948355,2069.5010051 74.6803554174,2064.80523353 " moovel_rot="69.7" moovel_centroid="68.566854693,2080.5043205" moovel_centroidlatlon="-122.67975830869509,45.52183433133823"/>
  <polygon id="330417748" class="tile" points="83.8536396999,2144.70898974 79.3885265477,2145.70640207 75.6924169816,2129.35126972 75.6803554174,2068.39957327 86.0590608776,2068.40375035 86.0620538373,2064.80523353 102.832039642,2064.80948771 102.837391432,2068.59022624 116.828524317,2068.58904794 116.824783059,2071.13743487 135.04447985,2071.14575718 135.061521912,2149.23274461 83.8534677479,2149.205044 83.8536396999,2144.70898974 " moovel_rot="5.8" moovel_centroid="105.360526123,2108.25643505" moovel_centroidlatlon="-122.6856585019236,45.49504665222815"/>
  <polygon id="450519815" class="tile" points="136.061521912,2089.40147484 136.061521912,2064.80523353 147.56973087,2064.80523353 147.56973087,2089.40147484 136.061521912,2089.40147484 " moovel_rot="0" moovel_centroid="141.815626391,2077.10335418" moovel_centroidlatlon="-122.64418955000001,45.53595779999999"/>
  <polygon id="186822777" class="tile" points="154.428411112,2069.19953855 153.397052111,2081.41451884 149.328663487,2081.07766442 148.574126969,2090.06416061 163.153913401,2091.29446754 164.843250854,2071.22920127 160.255908204,2070.84552646 160.683238335,2065.79868422 148.899476801,2064.80523353 148.56973087,2068.70641983 154.428411112,2069.19953855 " moovel_rot="6.2" moovel_centroid="157.135691397,2079.09784771" moovel_centroidlatlon="-122.61993379873262,45.51228389364156"/>
  <polygon id="450240951" class="tile" points="165.843250854,2072.22992152 177.62566798,2066.25023018 178.906253215,2064.80523353 178.906167907,2068.60497226 178.884282461,2099.11021633 172.941394922,2102.09207661 167.686294975,2091.50212654 166.378614014,2088.87770352 172.653719188,2085.7092999 165.843250854,2072.22992152 " moovel_rot="63.7" moovel_centroid="173.982986602,2083.63289792" moovel_centroidlatlon="-122.685106451781,45.58329029987508"/>
  <polygon id="451751814" class="tile" points="189.313260985,2066.03726256 189.309817266,2078.9013565 189.307357566,2080.31065911 179.926694102,2080.32100346 179.906253215,2064.80523353 189.305855145,2064.8349973 189.313260985,2066.03726256 " moovel_rot="-89.9" moovel_centroid="184.611766944,2072.56476128" moovel_centroidlatlon="-122.64580415190345,45.5372999476712"/>
  <polygon id="107481874" class="tile" points="190.731321657,2083.90832992 190.313260985,2065.53844557 206.994208768,2064.80523353 206.99008434,2083.71477077 190.731321657,2083.90832992 " moovel_rot="-91.6" moovel_centroid="198.795619895,2074.45023216" moovel_centroidlatlon="-122.6422773205163,45.524124683835765"/>
  <polygon id="388367431" class="tile" points="231.017522455,2075.81817851 214.229265324,2107.51230778 208.013828928,2104.21708513 214.928409198,2091.17026364 208.114479043,2087.56080662 210.575567332,2082.9216817 208.506513838,2081.82482856 213.69736679,2072.03098369 207.994208768,2069.00908205 210.220954323,2064.80523353 231.017522455,2075.81817851 " moovel_rot="-60.6" moovel_centroid="217.523946496,2084.15952637" moovel_centroidlatlon="-122.67944247720278,45.608944503012424"/>
  <polygon id="107445529" class="tile" points="232.017522455,2076.5168466 234.558023756,2072.6400294 257.451346544,2064.80523353 258.36179119,2067.42502437 246.022260698,2080.718713 258.367848815,2091.90163964 252.11605283,2097.96208925 232.017522455,2076.5168466 " moovel_rot="72.8" moovel_centroid="246.180090041,2079.93185044" moovel_centroidlatlon="-122.62796475521161,45.53300723475775"/>
  <polygon id="107531474" class="tile" points="259.367848815,2064.80523353 272.34385482,2065.1574836 271.865586917,2082.52545652 259.372908106,2082.27930671 259.367848815,2064.80523353 " moovel_rot="-89.3" moovel_centroid="265.732530538,2073.63648718" moovel_centroidlatlon="-122.66401204679137,45.52276618494038"/>
  <polygon id="444996210" class="tile" points="314.732187092,2064.81606417 314.758532264,2150.53864572 301.647479596,2150.50402046 301.63057106,2116.85383399 273.362174174,2116.78808894 273.34385482,2070.32261936 310.922582806,2070.41360666 310.919781474,2064.80523353 314.732187092,2064.81606417 " moovel_rot="62.5" moovel_centroid="296.832474405,2100.7872571" moovel_centroidlatlon="-122.72281293870729,45.580936550939086"/>
  <polygon id="451669863" class="tile" points="331.21423526,2085.73642607 331.181357242,2064.83693638 318.490913079,2064.85272209 315.758950363,2064.80523353 315.758532264,2085.73335214 331.21423526,2085.73642607 " moovel_rot="-0.2" moovel_centroid="323.478175947,2075.2922067" moovel_centroidlatlon="-122.64566357713284,45.536693575388114"/>
  <polygon id="414220232" class="tile" points="332.230699169,2093.51337088 358.449019292,2093.49901791 358.432555712,2064.80523353 332.21423526,2064.81958649 332.230699169,2093.51337088 " moovel_rot="-89.9" moovel_centroid="345.331627358,2079.15930217" moovel_centroidlatlon="-122.62074895,45.549468149999996"/>
  <polygon id="450027896" class="tile" points="359.595648475,2313.47433267 359.449019292,2064.82005942 399.259218148,2064.80523353 399.405778995,2313.4528279 359.595648475,2313.47433267 " moovel_rot="-90.8" moovel_centroid="379.427327098,2189.1380799" moovel_centroidlatlon="-122.560989074286,45.514842300931285"/>
  <polygon id="210898469" class="tile" points="400.405778995,2064.95625957 438.383664622,2064.80523353 438.307448341,2117.30260523 400.712083662,2117.65917925 400.405778995,2064.95625957 " moovel_rot="-0.5" moovel_centroid="419.439688302,2091.13658246" moovel_centroidlatlon="-122.589708657194,45.479878217061284"/>
  <polygon id="99657570" class="tile" points="463.475266964,2064.85329254 463.47622444,2094.55066886 463.473823668,2111.67197131 440.317740326,2112.08999794 439.383664622,2101.70270892 439.437712363,2069.44442066 440.526940155,2064.80523353 443.742108728,2064.90891106 445.296963959,2064.95595036 459.58931493,2065.41490311 463.475266964,2064.85329254 " moovel_rot="69.0" moovel_centroid="451.47976815,2088.46762721" moovel_centroidlatlon="-122.6936331919974,45.52143087062515"/>
  <polygon id="220741029" class="tile" points="476.181585066,2064.8357707 476.167439561,2091.0310243 464.47622444,2091.00048038 464.490352101,2064.80523353 476.181585066,2064.8357707 " moovel_rot="69.3" moovel_centroid="470.328900546,2077.9181239" moovel_centroidlatlon="-122.68730414999999,45.516215499999994"/>
  <polygon id="361360469" class="tile" points="498.248789599,2064.80523353 484.771975209,2064.82907573 477.198173784,2064.83601743 477.193910692,2088.23391586 477.181585066,2101.62098088 498.232183472,2101.59015162 498.239518719,2085.26396071 498.248789599,2064.80523353 " moovel_rot="-21.0" moovel_centroid="487.716799147,2083.21387477" moovel_centroidlatlon="-122.67893548163894,45.517164636235734"/>
  <polygon id="152294655" class="tile" points="524.999288649,2096.63434345 519.273895345,2096.64508501 519.273303656,2101.85542681 519.277155299,2106.96274728 508.072336172,2106.99412542 508.078354233,2116.59106634 499.271360946,2116.61257242 499.248789599,2064.8541052 519.140950495,2064.80523353 519.149107955,2077.66538512 524.98791457,2077.65301848 524.994520799,2090.77726019 524.999288649,2096.63434345 " moovel_rot="-20.4" moovel_centroid="510.142511073,2088.17487407" moovel_centroidlatlon="-122.6802239356677,45.51686996375005"/>
  <polygon id="107527781" class="tile" points="526.008646823,2064.80523353 525.999288649,2086.68359056 535.906702393,2086.68514695 535.916060587,2064.80679077 526.008646823,2064.80523353 " moovel_rot="-1.2" moovel_centroid="530.957674581,2075.74519045" moovel_centroidlatlon="-122.65684594999999,45.523832"/>
  <polygon id="257064466" class="tile" points="536.916060587,2090.84196742 536.918126778,2064.80652166 549.136823458,2064.80523353 549.135878666,2069.70775302 549.144258659,2090.84066271 536.916060587,2090.84196742 " moovel_rot="-90.1" moovel_centroid="543.028230814,2077.8255425" moovel_centroidlatlon="-122.66144157912231,45.520371031209166"/>
  <polygon id="185666775" class="tile" points="550.179835962,2090.63355902 563.254034943,2090.5840235 563.266058973,2064.80904836 550.144258659,2064.80523353 550.206896292,2084.36176213 550.179835962,2090.63355902 " moovel_rot="-90.1" moovel_centroid="556.717705919,2077.69710904" moovel_centroidlatlon="-122.660024387623,45.52236965472048"/>
  <polygon id="39241920" class="tile" points="564.266058973,2064.80523353 581.4649203,2064.80523353 581.4649203,2079.66894096 587.195647687,2079.66894096 587.195647687,2115.65908834 564.266058973,2115.65908834 564.266058973,2064.80523353 " moovel_rot="0" moovel_centroid="575.053165212,2091.65028361" moovel_centroidlatlon="-122.64921799625613,45.53394312810795"/>
  <polygon id="370815648" class="tile" points="1.69677497707,2387.82562961 0.0,2316.75630299 6.10107238926,2316.44921278 6.01249890625,2313.47433267 16.2676011857,2313.67231556 16.2375147309,2382.88534255 1.69677497707,2387.82562961 " moovel_rot="-34.6" moovel_centroid="8.520740922505478,2349.37602015" moovel_centroidlatlon="-122.69989921449788,45.524179300993445"/>
  <polygon id="369463301" class="tile" points="25.9199946314,2366.63945374 25.9850564994,2364.99087277 25.9668204878,2354.07234374 21.8027113356,2354.08298335 18.2955231972,2354.05851824 18.2676011857,2343.14640043 19.9979143478,2343.14127826 19.9860108875,2337.44139206 18.3126917869,2337.44810622 18.2895093024,2329.42932919 21.7458581001,2329.23187567 26.1763129946,2329.21531221 26.1486143909,2317.27420736 25.9781389572,2313.50760647 31.2456214949,2313.47433267 31.2822792143,2366.61550977 25.9199946314,2366.63945374 " moovel_rot="-88.4" moovel_centroid="26.1445665775,2340.84459386" moovel_centroidlatlon="-122.69196235808283,45.52862621689858"/>
  <polygon id="399566755" class="tile" points="63.0793916278,2439.96395382 48.1690098166,2437.76621592 37.7501226179,2434.58005149 32.2822792143,2429.14295243 34.3600541443,2413.87440969 38.6268433906,2398.04124859 48.9156212702,2329.84733548 32.3343252271,2326.32287221 34.8741718054,2313.47433267 83.069369743,2323.91285488 86.2425086707,2330.99005595 87.4848479994,2339.79432295 91.9064636685,2361.10817195 92.6831980482,2381.25857174 90.7406858303,2397.72188021 84.391808331,2429.45425223 63.0793916278,2439.96395382 " moovel_rot="12.0" moovel_centroid="63.7324929312,2379.69411258" moovel_centroidlatlon="-122.56124014530307,45.53275846189408"/>
  <polygon id="107667193" class="tile" points="93.6831980482,2365.51275968 93.6979954243,2313.86064646 118.065131459,2313.47433267 118.693509267,2364.79354122 93.6831980482,2365.51275968 " moovel_rot="-90.5" moovel_centroid="106.022900639,2339.52270739" moovel_centroidlatlon="-122.66429500601394,45.51745383723253"/>
  <polygon id="210898471" class="tile" points="119.750502419,2313.47433267 119.693509267,2381.76261858 153.73088575,2381.78889813 153.787878913,2313.50061027 119.750502419,2313.47433267 " moovel_rot="0.3" moovel_centroid="136.740694168,2347.63161491" moovel_centroidlatlon="-122.58020614999997,45.49069425"/>
  <polygon id="391130845" class="tile" points="154.787878913,2313.47433267 158.855794149,2313.4762887 158.866496265,2346.18590052 154.798584399,2346.18394402 154.787878913,2313.47433267 " moovel_rot="82.1" moovel_centroid="156.827188436,2329.83011422" moovel_centroidlatlon="-122.62417565000001,45.527084800000004"/>
  <polygon id="107445480" class="tile" points="159.866496265,2313.47433267 186.633175195,2314.75258672 187.040913308,2333.26482518 174.793398842,2333.25800949 173.221643098,2352.46008536 159.869321908,2351.67303999 159.866496265,2313.47433267 " moovel_rot="31.2" moovel_centroid="171.090733419,2330.09958785" moovel_centroidlatlon="-122.62869671428325,45.5321773443075"/>
  <polygon id="239365770" class="tile" points="198.881221985,2326.45582034 198.883825024,2313.48373754 188.050212095,2313.47433267 188.040913308,2326.45590711 198.881221985,2326.45582034 " moovel_rot="0.1" moovel_centroid="193.463382057,2319.96811685" moovel_centroidlatlon="-122.65881768487972,45.53236576796467"/>
  <polygon id="225499321" class="tile" points="211.57590655,2336.22482268 199.884641276,2336.22702615 199.883825024,2313.47653614 211.575089776,2313.47433267 211.57590655,2336.22482268 " moovel_rot="-90.6" moovel_centroid="205.729865656,2324.85067949" moovel_centroidlatlon="-122.60510550000002,45.494252800000005"/>
  <polygon id="444857992" class="tile" points="212.576729807,2313.47734035 221.282321692,2313.47433267 221.281474981,2338.22080328 212.57590655,2338.21713183 212.576729807,2313.47734035 " moovel_rot="-89.8" moovel_centroid="216.929304089,2325.84739654" moovel_centroidlatlon="-122.64596527490801,45.535338247939656"/>
  <polygon id="159115485" class="tile" points="231.38766795,2325.88050025 232.019957121,2325.07567825 233.195517573,2324.60865396 233.194218145,2313.47433267 228.596215183,2313.47837019 228.600681734,2317.96013094 222.283140441,2317.95981351 222.282321692,2335.94706768 231.383371857,2335.94616909 231.38766795,2325.88050025 " moovel_rot="-90.3" moovel_centroid="227.612810741,2325.42493351" moovel_centroidlatlon="-122.6432409834477,45.51224430998402"/>
  <polygon id="107529951" class="tile" points="234.195517573,2313.48912203 234.225855505,2339.23998951 240.484298655,2339.23332937 240.455987629,2318.64213331 246.293645667,2318.63400424 246.291618761,2313.47433267 234.195517573,2313.48912203 " moovel_rot="0.2" moovel_centroid="238.28951692,2324.73875251" moovel_centroidlatlon="-122.66013741743463,45.52486755970824"/>
  <polygon id="160952406" class="tile" points="264.604152405,2380.12638466 264.578096334,2313.61319948 247.5201554,2313.47433267 247.293645667,2379.62402017 264.604152405,2380.12638466 " moovel_rot="21.3" moovel_centroid="256.006634972,2346.79104555" moovel_centroidlatlon="-122.63451282507118,45.479512028710744"/>
  <polygon id="115796838" class="tile" points="265.609684621,2388.90099385 265.604152405,2313.47880754 294.522713913,2313.47433267 294.528248249,2388.89651896 265.609684621,2388.90099385 " moovel_rot="-90.3" moovel_centroid="280.066199797,2351.18766372" moovel_centroidlatlon="-122.5490398,45.494678900000004"/>
  <polygon id="286355938" class="tile" points="295.528248249,2323.1336262 295.669143027,2435.40936695 296.289289674,2439.10298872 298.202962034,2442.61212232 302.141085227,2444.89640324 306.972788763,2444.64425752 357.666468813,2433.3464251 362.016552268,2430.16725394 364.382495428,2426.08284386 365.545574289,2418.75719982 368.241490577,2384.63179562 369.386908028,2379.3240776 371.050932749,2375.19350084 373.308750023,2351.00310797 314.083168914,2313.47433267 309.112381298,2318.97286589 304.351743714,2320.26950251 295.528248249,2323.1336262 " moovel_rot="-12.7" moovel_centroid="329.566634529,2382.1361366" moovel_centroidlatlon="-122.63802115612448,45.462204128329745"/>
  <polygon id="365806211" class="tile" points="388.364262689,2313.47433267 374.308750023,2313.50647259 374.317345997,2329.88655049 388.37615016,2329.84325054 388.364262689,2313.47433267 " moovel_rot="-18.6" moovel_centroid="381.340829664,2321.6779739" moovel_centroidlatlon="-122.74646143784584,45.59636272445593"/>
  <polygon id="207427278" class="tile" points="389.37615016,2339.93288283 389.382244867,2317.75683749 394.266526975,2317.7516604 394.271629399,2313.47433267 415.124352074,2313.47856841 415.117352198,2318.84897546 415.118379929,2326.71952143 415.112906119,2339.94144365 389.37615016,2339.93288283 " moovel_rot="1.5" moovel_centroid="402.579093518,2327.0579684" moovel_centroidlatlon="-122.68292684024595,45.52558038491233"/>
  <polygon id="414216740" class="tile" points="416.124352074,2313.47965017 416.13266366,2327.94778361 425.217173929,2327.94451051 425.223669903,2341.80424306 428.590306732,2341.80476308 428.595322706,2348.38286804 434.045762793,2354.58073494 434.050040708,2350.10333973 437.93092345,2350.09667898 437.922119319,2317.41499066 432.845516354,2317.41933544 432.843868709,2313.47433267 416.124352074,2313.47965017 " moovel_rot="-0.8" moovel_centroid="429.118544552,2329.31960532" moovel_centroidlatlon="-122.60524918205031,45.54287876115403"/>
  <polygon id="338074812" class="tile" points="453.117459209,2321.39785381 452.082225249,2365.24330551 438.953206215,2366.66033967 438.93092345,2318.77430894 443.018771074,2313.47433267 447.290031089,2316.43283322 453.117459209,2321.39785381 " moovel_rot="47.7" moovel_centroid="445.639841499,2341.04306886" moovel_centroidlatlon="-122.49758230129561,45.4909014319869"/>
  <polygon id="115702135" class="tile" points="489.940730812,2313.47433267 494.149856687,2321.12245147 496.248391741,2350.97648105 466.391078296,2367.15051855 476.978069752,2386.52187988 463.89825921,2393.73246932 454.144673287,2375.28790766 454.117459209,2333.64831259 489.940730812,2313.47433267 " moovel_rot="60.8" moovel_centroid="472.857851827,2349.1899253" moovel_centroidlatlon="-122.5775487977723,45.4826265360248"/>
  <polygon id="363253088" class="tile" points="507.557327269,2313.47459787 507.569954898,2332.93436226 497.252487335,2332.93873614 497.248391741,2317.38684226 503.395136829,2317.38238554 503.396102425,2313.47433267 507.557327269,2313.47459787 " moovel_rot="-91.1" moovel_centroid="502.690312656,2324.26479167" moovel_centroidlatlon="-122.6840116212635,45.505361109746865"/>
  <polygon id="450027895" class="tile" points="508.577104536,2313.48340354 508.569954898,2333.20626151 513.439380316,2333.19718646 513.446536803,2313.47433267 508.577104536,2313.48340354 " moovel_rot="-58.6" moovel_centroid="511.008244053,2323.34029373" moovel_centroidlatlon="-122.55970920000001,45.51372980000001"/>
  <polygon id="107535783" class="tile" points="514.446536803,2313.48471448 514.477468398,2365.31495624 532.791947712,2365.30457359 532.761016121,2313.47433267 514.446536803,2313.48471448 " moovel_rot="-0.3" moovel_centroid="523.619242234,2339.39464424" moovel_centroidlatlon="-122.66207619999999,45.5204411"/>
  <polygon id="213945485" class="tile" points="533.797855291,2313.47433267 552.458506787,2313.47521817 552.452679741,2338.82448686 533.791947712,2338.83028004 533.797855291,2313.47433267 " moovel_rot="-89.3" moovel_centroid="543.12483773,2326.15108843" moovel_centroidlatlon="-122.63988467521142,45.48801435431254"/>
  <polygon id="223595616" class="tile" points="553.458506787,2313.48219139 564.03173581,2313.47433267 564.055179004,2349.84244272 553.481949983,2349.85030177 553.458506787,2313.48219139 " moovel_rot="-0.3" moovel_centroid="558.756842888,2331.66231714" moovel_centroidlatlon="-122.65591050000002,45.51534885"/>
  <polygon id="50048897" class="tile" points="565.055179004,2362.76276265 590.918344986,2362.77854904 590.954321326,2313.49036795 565.08165055,2313.47433267 565.055179004,2362.76276265 " moovel_rot="-88.5" moovel_centroid="578.002364293,2338.12499386" moovel_centroidlatlon="-122.67801167743019,45.52396877551721"/>
  <polygon id="278719236" class="tile" points="0.490026880056,2444.89640324 0.0,2560.30740921 61.9710438274,2561.97475248 61.7814813215,2445.46282854 0.490026880056,2444.89640324 " moovel_rot="2.2" moovel_centroid="31.10871278219957,2503.26799925" moovel_centroidlatlon="-122.70578686890562,45.5382514626013"/>
  <polygon id="325072184" class="tile" points="63.9904122297,2479.7820204 63.9710438274,2444.90864356 87.3168458,2444.89640324 87.3295356549,2479.76987128 63.9904122297,2479.7820204 " moovel_rot="-0.8" moovel_centroid="75.6519638879,2462.33840314" moovel_centroidlatlon="-122.68060447475693,45.551547058744774"/>
  <polygon id="226810347" class="tile" points="88.3303916931,2444.89640324 113.424176901,2444.89849017 113.425084801,2494.38796667 101.549428056,2494.39401623 101.551517474,2474.66099468 94.2444511246,2474.66399037 94.2406309314,2460.45083051 88.3295356549,2460.44919837 88.3303916931,2444.89640324 " moovel_rot="0.2" moovel_centroid="103.501415889,2465.51344651" moovel_centroidlatlon="-122.65392568442103,45.516873653336866"/>
  <polygon id="450027893" class="tile" points="114.425084801,2551.77833171 115.268923209,2525.48089572 119.491225071,2526.2131737 122.495558991,2521.95938407 131.57169333,2511.31277895 133.069218722,2499.37675438 130.839868504,2497.30360487 127.476564415,2486.9742988 121.043184204,2473.7688296 114.465742941,2460.35844905 125.826848274,2454.7352114 123.027006927,2446.23688929 127.052201485,2444.89640324 136.444694948,2468.91735884 146.576216307,2493.51743451 143.299244496,2495.8879039 144.374431972,2500.66250491 142.213854986,2517.85175282 135.82163213,2517.97687103 131.301002695,2521.1194209 127.935718376,2524.84036455 127.407008843,2527.11225315 130.491610948,2527.6233847 132.472795913,2550.63919546 114.425084801,2551.77833171 " moovel_rot="-79.0" moovel_centroid="129.470573498,2500.72333802" moovel_centroidlatlon="-122.5582569713452,45.511975180116536"/>
  <polygon id="369939733" class="tile" points="158.553460186,2444.89640324 160.684074707,2448.10483554 162.392287164,2450.81102313 165.048539145,2454.93473846 165.873548126,2456.09118685 173.015158593,2467.28381115 151.21053397,2481.14314483 147.576216307,2475.58873608 158.358798335,2468.69959037 147.585515311,2451.77194247 158.553460186,2444.89640324 " moovel_rot="59.1" moovel_centroid="159.218429622,2462.59148531" moovel_centroidlatlon="-122.68799006059676,45.525972173186375"/>
  <polygon id="40790446" class="tile" points="192.868418564,2492.47880639 179.726259029,2478.71971733 174.015158593,2458.65549231 177.445620657,2454.0669029 180.876080504,2451.2015392 183.156717402,2451.2015392 183.156717402,2444.89640324 208.300674285,2444.89640324 208.300674285,2483.87603614 203.159761567,2492.47880639 192.868418564,2492.47880639 " moovel_rot="-90" moovel_centroid="193.734092133,2467.00815551" moovel_centroidlatlon="-122.65303895543579,45.52817088994839"/>
  <polygon id="257066313" class="tile" points="228.683215926,2470.79884804 209.300674285,2470.79260192 209.312486134,2444.89740191 213.71156493,2444.89640324 213.708766196,2454.1804678 222.763457077,2454.18470191 222.757359817,2456.135033 228.695632833,2456.1380271 228.683215926,2470.79884804 " moovel_rot="-90.1" moovel_centroid="217.904896578,2461.22483155" moovel_centroidlatlon="-122.66150017718076,45.519908265304494"/>
  <polygon id="39274943" class="tile" points="239.870377689,2444.89640324 239.883894137,2463.53129079 229.695632833,2463.42884745 229.863049776,2445.00069868 239.870377689,2444.89640324 " moovel_rot="-90.1" moovel_centroid="234.837511556,2454.24211129" moovel_centroidlatlon="-122.63957409147935,45.534996627939705"/>
  <polygon id="257680507" class="tile" points="240.883894137,2444.8998439 240.895287814,2514.90943635 266.155951144,2514.90599632 266.144557465,2444.89640324 240.883894137,2444.8998439 " moovel_rot="0.1" moovel_centroid="253.519922659,2479.90291995" moovel_centroidlatlon="-122.66917320000003,45.54618790000001"/>
  <polygon id="152299869" class="tile" points="293.247966315,2444.99365637 293.318875299,2497.3570734 267.155951144,2497.27933041 267.311211421,2471.36767117 267.209817516,2444.89640324 293.247966315,2444.99365637 " moovel_rot="68.9" moovel_centroid="280.26445979,2471.15240728" moovel_centroidlatlon="-122.67435589064968,45.52150770358663"/>
  <polygon id="451267590" class="tile" points="294.322993434,2444.89640324 294.318875299,2466.67798877 315.35839626,2466.68057296 315.355835269,2444.89901106 294.322993434,2444.89640324 " moovel_rot="-0.2" moovel_centroid="304.839023077,2455.78907033" moovel_centroidlatlon="-122.6511626250595,45.53177269393569"/>
  <polygon id="39378750" class="tile" points="317.864681996,2448.62581287 322.21585887,2444.89640324 366.397693149,2497.32688795 353.339091224,2508.51946347 363.75440267,2520.67121584 337.201066871,2543.43017717 316.376597479,2519.13385183 335.967036018,2502.34281524 349.025637941,2491.15023972 337.86807434,2478.1324869 335.692485903,2479.99719171 316.35839626,2457.43972227 321.581837031,2452.96269207 317.864681996,2448.62581287 " moovel_rot="-40.6" moovel_centroid="340.628586501,2501.88924001" moovel_centroidlatlon="-122.62345618995002,45.535585402565694"/>
</svg>