<svg xmlns="http://www.w3.org/2000/svg" version="1.1" width="792.5px" height="800px">
  <polygon class="421830822" points="446.479839743,105.694285065 483.25799855,74.670895586 490.707493819,79.1999929124 454.543813041,110.576141998 456.053504968,111.489521797 437.785740733,126.853205291 432.987932967,128.742957959 422.595662217,132.169709856 407.629824612,135.067331338 400.666128397,135.243708309 364.118648276,114.028087906 328.516756349,93.0518551605 301.792506181,27.7547904462 333.704083006,-2.5 353.00893005,44.2963602195 359.622563523,39.9247484801 361.560100596,42.2239389904 360.553433496,49.0900161101 390.419154904,81.1149383618 387.116470334,83.35744047 388.007906035,84.3653066566 398.742815589,86.9605622869 402.323880495,84.7180598317 420.210236539,102.506905477 423.518680733,101.738406907 446.479839743,105.694285065 "/>
  <polygon class="57781297" points="299.046880043,222.785081655 298.734937995,226.320414882 314.240272168,227.30350229 327.31675732,228.009308659 336.444862911,227.977799446 347.773286853,227.297200447 360.538505241,225.999020929 367.111107683,225.009631734 371.378691793,224.385749396 376.396290949,223.446774999 382.025799287,222.18640674 388.987392573,220.535324422 395.319815654,218.928355101 400.773316067,217.333989568 406.284048628,215.600983676 416.37948921,212.286216396 422.415062962,210.105780377 431.183110401,206.791013867 483.166671937,187.041064844 486.689125352,185.345872156 488.237381445,184.217844376 489.197938188,183.25996608 489.955656137,182.106731077 490.496275307,180.714026585 491.092862735,176.113691064 492.057483355,168.028446005 492.771452808,158.764762543 493.765062005,140.243708309 450.043304876,156.559124158 447.370683148,157.907714461 445.319155478,159.319323084 443.809165228,160.655309894 426.343983676,185.030780592 424.947327201,186.618842118 424.104420798,187.387665594 422.735545936,188.452675204 421.677790667,189.114367589 420.1415422,189.984020465 418.293806345,190.866277041 414.833458563,192.227472964 408.638015983,194.199946824 397.139755144,197.590333587 393.643011159,198.485194115 390.682046049,196.481210726 375.889327557,200.035445532 375.188626629,202.045731057 372.835963721,201.793657628 368.96434633,200.816873114 343.03543889,201.768450285 338.849115772,202.077240236 335.966343634,202.587688939 332.849566894,203.652699233 329.980908947,202.480557729 300.932166034,213.477263902 299.046880043,222.785081655 "/>
  <polygon class="419607401" points="404.634017398,233.059712855 400.580809889,239.983990336 407.264903142,239.933586125 404.257184787,245.068515684 400.661937316,245.093717794 395.161741512,254.481506034 392.072889754,254.506708155 373.880333374,285.562042481 376.969194181,285.536840326 374.805649088,289.228956245 369.998523009,292.020095456 363.224403787,305.213430665 358.691025147,316.812734841 362.507551291,316.220483429 360.934142882,320.460751841 357.33511165,321.368030769 353.164653695,336.583859675 356.781137948,335.638776846 358.513789075,343.4514627 362.159418888,343.035626129 362.040213816,345.284924031 357.969131792,345.165213493 353.91728537,347.181391057 350.802722319,349.78352048 348.41075132,353.570154855 341.614212426,372.396226332 351.104159372,371.860678575 341.933459338,390.447343179 358.530957241,390.630059615 419.580173954,277.982495743 438.29410088,262.1807553 450.885787574,253.240301602 449.636943979,251.230432635 422.466130278,251.583262285 426.814204768,243.594192235 411.091806124,243.770607002 413.186332688,240.160405076 417.616953907,240.110000865 419.48144336,236.903033134 406.290863181,237.054245748 408.639261515,233.009308659 404.634017398,233.059712855 "/>
  <polygon class="31798893" points="376.52528505,396.638139696 391.594588104,396.682243201 462.451841413,396.890159724 466.44990353,396.902760725 439.397194741,441.982886632 355.00464327,441.730866121 357.213050216,438.051366965 342.53867555,438.007263383 338.408580334,444.893723734 335.35370462,444.88742322 339.48886582,438.000962871 326.05009647,437.956859289 333.547955039,425.462947843 330.893137068,425.456647335 342.57373833,405.988084515 345.407123672,402.806330637 349.017666233,399.977405276 353.11318278,397.728126333 357.361948281,396.24120816 361.438101996,395.630059615 374.517277036,395.674163118 376.52528505,396.638139696 "/>
  <polygon class="115828078" points="450.675276743,449.956735745 391.658201314,548.961415273 341.824723257,548.929909135 363.704258985,512.231588459 341.857955929,473.308998591 355.816148715,449.893723734 450.675276743,449.956735745 "/>
  <polygon class="363596412" points="335.603554445,553.961415273 214.122894023,654.415264947 213.436641406,670.333463521 217.479576695,698.213959432 245.19017656,724.223607164 255.247917746,724.248804221 265.201891878,731.404769563 318.717562875,740.330831528 392.986645151,753.332525652 451.561949189,765.3641386 457.848351512,763.42396185 482.984696123,765.75469368 480.299676372,770.995691509 546.659830899,778.951679652 559.934162746,773.515402424 566.283174846,768.860236722 573.060792547,760.123142039 573.687337541,752.362437758 569.407244275,749.45217432 563.634439583,748.286809192 556.707835152,749.061619513 547.477102185,752.948270053 579.063358594,726.938590231 363.62147023,590.89376098 335.603554445,553.961415273 "/>
  <polygon class="112758476" points="375.708546518,876.008947692 301.69970527,875.769542885 357.742653093,783.951679652 414.980878336,793.653838387 395.963391435,818.740867469 403.539284658,820.158392517 437.419566013,798.39151736 490.80029473,810.456222797 453.922837371,876.481457187 437.082437406,876.481457187 440.626790263,869.620620251 403.669277033,870.565638993 395.902855336,865.361736258 398.528312371,850.921857245 393.840217897,841.459079231 397.872859915,824.656672569 388.556848085,822.054726159 377.267581954,835.543269886 381.650609362,865.122331559 375.708546518,876.008947692 "/>
  <polygon class="39460066" points="375.171713668,881.481457187 391.255243129,881.481457187 389.449069878,884.512037518 440.30261201,884.512037518 475.513195405,884.512037518 452.483982429,923.153546169 319.044846431,923.153546169 316.986804595,917.854747564 375.171713668,881.481457187 "/>
  <polygon class="226410209" points="347.034512286,1004.32319897 326.300318278,1038.19955835 373.579975625,1038.33186337 374.003128156,1041.74029281 399.121975846,1041.97970192 400.808402545,1039.85652121 466.199681722,928.380353701 418.556622376,928.153546169 378.534268773,994.652348432 402.841543346,994.885456834 396.904034175,1004.66341137 347.034512286,1004.32319897 "/>
  <polygon class="33002135" points="356.398911799,1046.97970192 290.169690852,1158.39307365 389.390706229,1158.72064966 369.917355183,1195.12571155 426.270050384,1191.50347149 430.419117711,1164.17605071 443.828187257,1156.33942419 452.75631254,1144.70418052 502.330309148,1056.64944932 445.561449416,1056.32187475 451.396407492,1046.98600143 356.398911799,1046.97970192 "/>
  <polygon class="421495801" points="479.713928218,1205.72144507 402.081628873,1206.79270051 405.647496797,1200.61722863 354.330305027,1200.12571155 344.110645923,1210.90758216 400.021022627,1210.34674833 390.700449961,1231.80967964 388.078158214,1237.99146118 361.088133422,1239.74328132 355.962795072,1247.0404328 351.900429421,1247.77140837 348.057654272,1253.66332439 339.263845353,1254.05401834 333.517905161,1264.23096781 342.061262281,1264.72878774 360.919178957,1268.36476402 353.83592436,1278.71186074 336.53029738,1297.42108673 346.682583721,1299.34305251 312.786071782,1329.5210866 324.572726575,1335.41932453 328.317565095,1332.02279631 331.744740696,1333.7368142 339.32770093,1328.07173348 373.038303833,1301.15789248 367.961144516,1297.60383101 412.671388846,1259.05742205 412.454161818,1252.18246835 402.593916301,1252.56055925 414.410816091,1228.58960855 444.425466483,1228.07918636 449.306091588,1219.55954852 461.450968412,1219.35159881 472.456000185,1216.42139866 477.156563661,1211.43690849 479.713928218,1205.72144507 "/>
  <polygon class="450027896" points="310.705773183,1340.41932453 497.918752938,1342.62460892 481.789647954,1369.02502947 294.581247062,1366.81974261 310.705773183,1340.41932453 "/>
  <polygon class="161386094" points="354.873403944,1385.63143352 390.192542359,1374.02502947 457.585516093,1374.49130184 448.55437724,1418.61709189 442.863292439,1428.24500623 334.914483907,1427.57710105 336.0384783,1415.42249029 338.585396386,1403.58293508 341.649375194,1402.82681681 346.219870975,1402.03289264 351.570819613,1400.58366606 354.873403944,1385.63143352 "/>
  <polygon class="109821728" points="317.102342823,1687.24361265 314.237481937,1687.30032033 310.27324592,1685.60539098 307.924409705,1685.58648842 382.922990335,1562.12791148 398.24156295,1536.7923308 409.55158284,1520.68115877 422.561167225,1501.88585549 458.809557169,1449.92318938 462.538810225,1444.17056953 470.472604512,1433.24500623 484.575590295,1433.3836235 466.437636645,1463.24936236 454.807005665,1482.58650339 438.248942117,1509.31450357 415.665178123,1546.42627507 368.29808657,1624.45569837 363.410005799,1627.07684628 345.23909206,1656.82941589 343.462903387,1659.41276233 340.783536029,1661.93940145 336.962765753,1664.55425269 326.759852889,1671.32136303 317.102342823,1687.24361265 "/>
  <polygon class="115829198" points="366.786696269,1856.52160123 322.911945926,1856.69173361 420.817271031,1692.30032033 469.588054074,1692.46415036 434.799526966,1749.62199962 431.258794389,1749.59679494 428.151084321,1754.87717649 395.74705494,1754.91498352 362.438173372,1810.787542 394.353297159,1810.71192776 366.786696269,1856.52160123 "/>
  <polygon class="115938456" points="422.309162678,1934.27431601 434.247528466,1939.84451388 449.404565524,1934.9422356 459.862009341,1927.53841108 465.580186574,1922.6235331 477.605690646,1925.37712487 480.948636222,1925.37712487 497.806116241,1897.99244855 481.756846027,1897.90423289 429.229471789,1873.10304415 426.158050421,1875.79361901 420.242657758,1879.71291126 408.19969489,1878.55350641 371.771208436,1861.69173361 346.345647219,1885.75567986 354.183887464,1889.78209275 332.971909862,1910.09690003 328.391225364,1915.07478662 318.914246085,1930.569253 326.712551145,1935.88740485 297.039914289,1964.63317057 299.905478756,1966.54871605 294.693883759,1977.22914516 303.549684755,1981.86048318 331.851946836,1955.7044623 362.395461653,1969.25820498 365.607577294,1968.67850035 368.300091364,1967.86565365 372.704835347,1965.69176147 379.750792246,1967.66401727 388.089733062,1970.34830178 397.021438442,1974.44404165 394.530360988,1976.66204261 418.090273804,1987.73944827 406.977135869,1997.95360224 411.885582999,2000.43625353 390.028331627,2020.93388957 423.01933925,2037.16566072 436.264244269,2037.28538268 453.347744067,2008.14255605 452.351545574,1994.99206423 435.637292348,1982.90647258 392.053099241,1962.33325598 422.309162678,1934.27431601 "/>
  <polygon class="156412036" points="414.603779696,2128.1582645 424.351283913,2123.29479302 432.029208963,2116.89416371 433.048553086,2115.89879041 435.796057164,2117.13985713 451.289012511,2104.19370759 450.099178714,2103.53222569 452.880128762,2100.99339534 450.660044133,2099.90352532 450.376055922,2099.60743347 450.680169664,2099.02154961 454.625834528,2095.45584819 457.097527042,2089.83010482 459.565660749,2087.68816482 430.251074266,2069.12259304 417.492967889,2071.69291903 371.806826822,2042.28538268 363.704202866,2047.07323954 359.588525604,2049.49866741 357.741688,2050.97282369 342.232441214,2063.76774814 332.934339251,2073.62066371 342.270631376,2078.91251266 345.637999011,2080.75206044 344.020853799,2082.1128219 352.622748369,2088.21105015 358.915124802,2091.56255644 369.937354708,2099.00894996 388.654401432,2109.80685476 390.194312991,2112.74887519 392.243746907,2114.09073903 414.603779696,2128.1582645 "/>
  <polygon class="413975294" points="405.566469578,2134.09706735 410.334576016,2133.42919418 414.476403303,2133.1582645 418.622922436,2133.17716657 449.656827431,2133.51740384 433.564083578,2160.71749939 461.298958314,2160.58518474 445.950612115,2186.05891856 440.010559359,2186.10932419 435.487206869,2193.61346427 332.404151032,2193.56935932 334.347289134,2190.30559366 331.201041686,2190.29929296 342.996074325,2170.1307434 346.291747311,2165.21619786 349.653448803,2160.49697497 353.586481961,2155.9919767 357.497951332,2151.99103491 373.813083964,2157.32772435 378.323823374,2153.72372615 383.435900133,2150.11342782 392.769323734,2145.00986566 403.366019412,2141.56968736 405.566469578,2134.09706735 "/>
  <polygon class="39375944" points="517.478194397,2198.81507983 492.66037678,2240.56844042 496.196928809,2240.48023346 486.637743248,2256.62211385 476.480886154,2273.66497776 456.308334855,2278.42816116 443.071958,2254.10821372 448.405001972,2251.06507181 442.833026916,2240.82046033 437.496223607,2243.86990141 435.455123771,2240.1148046 426.916427298,2244.98508967 426.400080833,2244.08411836 421.031236627,2247.07685537 420.513684878,2245.99947 417.207103623,2247.8770188 414.136142546,2241.99235293 411.787403128,2243.23985157 408.734398715,2237.75841865 387.735860879,2249.85537576 387.242666538,2248.82209376 380.88279369,2252.40707844 380.395179491,2251.44940234 371.31503311,2256.56540933 371.866101293,2257.73100222 365.826839402,2261.17737719 366.246866581,2262.24846275 332.111958896,2281.87453917 341.305424193,2299.26394964 339.602008327,2300.27833232 341.638596866,2304.10904493 336.903978308,2306.91277413 337.439281532,2307.80744734 335.645679126,2308.77772677 338.668759396,2313.9441504 316.630080085,2326.29946811 323.992186246,2341.33251515 293.018682312,2358.57705749 275.021805603,2354.21709163 287.656901731,2333.38125436 295.288028679,2320.7550106 281.039431736,2320.59119711 313.893529587,2267.84331047 330.002874562,2256.85523242 336.003775704,2246.30189396 350.178158082,2232.26438603 354.566634224,2228.45258663 356.877078456,2226.9719705 405.665692124,2198.61346427 427.720671441,2198.67016865 517.478194397,2198.81507983 "/>
</svg>