<svg xmlns="http://www.w3.org/2000/svg" version="1.1" width="592.5px" height="1200px">
  <polygon id="6" class="bin" points="-215.547057074,1204.68421688 -216.256031892,1206.40009587 -218.909234974,1207.499999 -446.2499995,1207.499999 -448.901649929,1206.40164943 -449.9999995,1203.749999 -449.9999995,3.75 -448.901649929,1.09834957055 -446.2499995,0.0 -196.721256178,0.0 -194.072561199,1.09539741124 -192.971265485,3.7416453844 -192.939125386,18.167811516 -190.343529398,23.4854645272 -188.675677798,24.7928878908 -187.243670844,27.5609296704 -188.398622498,30.4555429237 -191.34282979,31.4774737585 -193.415777109,31.2811118116 -197.715202081,32.6596187011 -199.68353256,36.7229930942 -201.554640139,77.0357147901 -201.350061173,79.0466839453 -198.867336695,88.8045354532 -197.4593835,91.5387159017 -175.292127375,117.754430168 -174.825786873,118.253392955 -156.882738697,135.634151565 -156.449687694,136.019596439 -147.627128275,143.229081194 -146.2500005,146.132867929 -146.2500005,264.555259066 -147.083363801,266.912318753 -149.497077129,269.899058934 -154.275496109,284.057976943 -154.28892883,284.097067011 -157.180955124,292.364514099 -158.62951268,294.239132327 -160.91266219,294.871382915 -189.523841915,293.404357333 -193.781955542,294.989900008 -195.547096531,299.176754976 -194.987918086,363.431521736 -193.437704292,367.315879196 -189.670031278,369.131377955 -174.802876212,370.29354832 -172.587112754,371.244243865 -171.408159507,373.347455449 -168.165452067,390.809058089 -167.410939323,392.089617075 -166.939324092,393.398281788 -166.795713725,394.291939263 -166.671541993,394.892319671 -161.515262892,415.208347029 -161.301540575,415.896779407 -158.635727999,423.121803436 -159.049878533,426.524088461 -162.056953793,428.168643852 -190.452306939,428.90288796 -194.468148709,430.687755729 -196.048282911,434.788476883 -195.279071521,466.069357643 -195.279942202,466.284123406 -195.748149097,480.600050407 -195.751753338,480.793831964 -196.026538163,541.842305876 -194.382368308,545.893183194 -190.364379391,547.616165093 -149.94362825,548.223862746 -147.328493815,549.341794653 -146.2500005,551.973439012 -146.2500005,555.842043395 -146.914018909,557.972587368 -148.670916563,559.348613784 -203.63696918,580.18221742 -207.195677034,583.275295439 -209.966910308,588.323143876 -210.764101878,590.803918728 -211.411815461,596.185540065 -210.548823713,600.409587638 -196.31132853,625.11278098 -195.544273105,626.189102667 -162.42088092,664.299223198 -162.34401127,664.390562278 -147.092777607,683.109465143 -146.2500005,685.478126168 -146.2500005,698.074658674 -147.332846707,700.710714561 -149.956022176,701.824400786 -163.274825402,701.980608498 -163.435098543,701.984357587 -163.981034915,702.003499076 -167.938456477,703.778412197 -169.531369892,707.812532778 -169.249782257,734.647796868 -170.300802313,737.290818802 -172.904436721,738.435937126 -179.713926994,738.60875243 -183.684728843,740.341398031 -185.320683362,744.353003809 -185.436675717,845.366100309 -187.392481352,848.654722321 -187.98266813,848.976292759 -199.227178427,864.527261631 -199.330138188,864.663045573 -216.496452519,886.264512606 -217.705923014,890.497738111 -215.563984749,894.344180302 -211.810715778,897.314696342 -211.728068767,897.379089022 -171.651304375,928.116189867 -170.215471228,930.602893291 -170.95962083,933.376258055 -173.839096512,937.124676153 -173.843675936,937.130625178 -206.249430448,979.141137165 -207.39784853,983.389860182 -205.202916774,987.204671574 -179.844265846,1006.70877218 -178.89452662,1007.78625791 -175.845111722,1012.9935456 -168.135973705,1018.73150114 -168.126791703,1018.73835719 -167.465125154,1019.23398861 -165.994912831,1021.74966046 -166.769666583,1024.5585545 -169.854872831,1028.46770094 -169.9035667,1028.53013502 -216.350125766,1088.79518886 -217.482394337,1093.12976373 -215.153299352,1096.95675837 -208.904821654,1101.4456551 -204.710782609,1102.46545589 -200.987477575,1100.28211973 -152.971650877,1037.90047753 -150.323101887,1036.45173426 -147.465156343,1037.42426503 -146.2500005,1040.18778906 -146.2500005,1141.11990812 -147.34693799,1143.77014572 -149.996005469,1144.86990599 -195.248339565,1144.91811522 -199.309452213,1146.60530768 -200.988146636,1150.66994043 -200.943137038,1194.5264851 -202.038880237,1197.17937716 -204.689613686,1198.28033203 -209.418434007,1198.28477256 -213.480260989,1199.97198342 -215.443623332,1204.72692569 -215.547057074,1204.68421688 " moovel_rot="0" moovel_centroid="-313.9710661076443,600.1333791208145" moovel_centroidlatlon="0,0"/>
  <polygon id="168913328" class="tile" points="34.3756554587,1214.06684916 32.8879514715,1211.99707732 31.2232002746,1211.23630802 29.0674539851,1211.35356511 26.6059207704,1212.39466194 25.5100913189,1213.62933461 24.522523552,1215.75075977 24.6549160568,1217.57617257 27.2589281289,1217.90968173 27.8539536085,1218.61529937 27.868693416,1219.95909594 28.4153037544,1277.99974305 27.6445188116,1279.56893336 26.8018738778,1279.75648722 24.3775019471,1279.83415873 24.1414204195,1282.91093813 25.4331308745,1285.43137595 26.7534275917,1286.07927979 28.8367715644,1286.29467182 30.5033707239,1285.88411463 31.7663600098,1285.0370001 32.4909810007,1284.60209618 26.9930798536,1298.30580388 26.7713464199,1296.66340708 26.249801499,1295.13377898 25.339131305,1293.68850282 23.9617405385,1292.79132686 22.1723510964,1292.2170824 20.3105288614,1292.39834003 18.6321480395,1292.95102085 17.0585901214,1294.19595008 15.8484731788,1295.98922322 15.487992725,1296.92679826 17.9656409252,1297.13816504 19.3326396143,1298.08612407 19.9002360629,1299.53861734 19.8184580425,1300.27639464 20.9544948872,1361.71364606 21.0585164497,1370.22879987 21.1164842363,1372.10100303 20.4824272512,1373.95298584 19.8397656009,1375.31871254 18.8166949525,1376.19789616 17.2192975819,1377.11561485 17.7061227594,1379.6602356 19.7868167335,1381.93835476 22.0819694446,1382.55551753 24.2501448359,1382.46190995 26.1151130596,1381.86370737 27.5512038257,1380.80451624 28.764382169,1379.44001658 29.2256520038,1377.98871112 29.4992770145,1376.65144087 32.7147563694,1389.21175543 29.805866874,1388.06495487 26.0012768675,1388.06241229 22.4399918377,1388.70930744 19.9198360348,1387.92385029 16.3432360711,1386.00404531 14.0811286047,1383.85177727 12.4692192171,1381.09997626 12.0084451182,1377.68839584 11.6914439827,1356.24554505 11.4866700258,1344.46122193 9.51831403114,1343.85297462 8.26559681501,1342.55783675 7.93864395656,1340.66888949 7.27760813348,1298.7186215 7.86383329313,1297.48080896 9.19841805343,1297.19244849 11.1052196791,1297.21399569 11.0773166465,1295.89224062 10.5176930368,1294.33738518 9.59142568111,1293.07399763 8.06414264161,1292.1274897 6.22663612328,1291.55596251 1.12935936898,1291.61582228 1.0,1205.3950928 1.19898579177,1202.85886725 1.89668710195,1201.66798923 3.65055878703,1201.0 26.0954837957,1201.1112763 27.3957016712,1201.81507047 28.2638311597,1202.89769218 28.2311465748,1204.19853687 27.6715730106,1205.369443 29.7310548544,1205.4690549 31.1335354315,1204.93347857 32.7143660862,1203.8432787 34.3715170572,1201.32351842 34.3718419336,1207.80936335 34.3756554587,1214.06684916 " moovel_rot="62.2" moovel_centroid="15.137074380224474,1273.8536506847431" moovel_centroidlatlon="13.558170774530783,52.55693956215618"/>
  <polygon id="121104964" class="tile" points="35.3766123082,1202.12511936 35.3756554587,1226.26228323 46.0090422684,1224.26285904 45.8887577223,1221.82607885 44.8943780754,1201.0 41.5044148382,1201.39998441 35.3766123082,1202.12511936 " moovel_rot="72.9" moovel_centroid="40.3934929479,1213.6377716791578" moovel_centroidlatlon="13.345620132814773,52.47106029100935"/>
  <polygon id="328812620" class="tile" points="47.0090422684,1203.02743848 91.2119526766,1201.0 91.1913740587,1218.26606943 83.8946182167,1217.832241 61.1536118346,1218.79640472 63.6957653602,1279.13082402 65.065770089,1296.00603491 66.9399180179,1319.14843265 53.6617823775,1315.23650595 47.0090422684,1203.02743848 " moovel_rot="-7.4" moovel_centroid="61.7257294136,1246.683262357807" moovel_centroidlatlon="13.462250418925484,52.56217380163742"/>
  <polygon id="126095400" class="tile" points="99.0842371851,1204.38883771 92.2119526766,1201.0 92.2340864029,1267.80943455 98.9095907699,1271.90358915 99.0842371851,1204.38883771 " moovel_rot="82.7" moovel_centroid="95.6169878566,1236.117418057618" moovel_centroidlatlon="13.262953091401089,52.536901296905704"/>
  <polygon id="150029782" class="tile" points="100.084237185,1222.18432219 100.090355967,1206.57888292 102.876609254,1206.58739229 104.507382422,1203.33017091 107.383076049,1201.53082886 109.848814657,1201.0 112.182891047,1201.09616443 114.253632747,1201.89914411 116.3214496,1203.40257437 117.569310294,1204.98076053 118.326796945,1206.45055304 119.222607648,1206.47243357 119.233869708,1208.84687943 120.564231412,1208.88002657 120.555398748,1222.18741337 102.188883968,1222.18760265 100.084237185,1222.18432219 " moovel_rot="-1.4" moovel_centroid="110.284792896,1212.7583015383545" moovel_centroidlatlon="13.345852424337446,52.48294915620511"/>
  <polygon id="214614427" class="tile" points="178.673152007,1262.69722375 159.351485099,1244.96057019 178.675928245,1222.03370312 161.409608692,1205.54989203 156.646187708,1201.0 121.564231412,1240.67067799 128.1941501,1255.48442308 161.095222241,1284.57088217 178.673152007,1262.69722375 " moovel_rot="-50.5" moovel_centroid="152.155699435,1242.8385015010615" moovel_centroidlatlon="13.592950687593925,52.44702834216113"/>
  <polygon id="238065175" class="tile" points="229.851973532,1282.72501471 225.155672365,1273.94563952 229.314115647,1271.75206493 216.214615702,1246.85229235 214.085669106,1248.04687691 211.684530534,1249.24801379 201.492976128,1230.10013012 223.909250732,1218.74087132 229.840952309,1215.48890322 221.849194289,1201.0 198.787971438,1213.43429602 201.14108747,1217.92281385 192.685712831,1222.27273198 189.891925214,1231.39454504 181.583836357,1236.09829453 183.722999292,1240.40304883 179.675928245,1242.84679774 205.18818282,1290.14490835 209.745184409,1287.76170854 212.113644338,1292.11328469 229.851973532,1282.72501471 " moovel_rot="-22.6" moovel_centroid="206.56806475,1249.7194798224025" moovel_centroidlatlon="13.2800071659261,52.52367477960921"/>
  <polygon id="51576910" class="tile" points="232.308559434,1436.90770318 239.524978362,1437.47395337 239.385025954,1447.48121973 231.826466082,1446.84158944 230.851973532,1498.36248559 239.010469923,1498.85107187 245.921499095,1499.94328881 246.125053014,1497.68772803 249.748862227,1368.36648718 250.578218728,1349.32941842 251.941122898,1315.93910275 238.109080365,1230.24624934 236.564272678,1201.0 233.44112831,1201.8274428 230.926331959,1202.26444948 231.601531387,1231.34984393 243.958209315,1317.80275484 245.023775348,1341.29301041 242.599364404,1371.49692971 235.517882626,1371.29191588 232.308559434,1436.90770318 " moovel_rot="-57.8" moovel_centroid="241.184435665,1378.1076243353298" moovel_centroidlatlon="13.482900448597537,52.53949746546286"/>
  <polygon id="25309697" class="tile" points="252.941122898,1201.0 286.604219649,1201.42133696 286.251059099,1236.68569197 284.738435896,1239.9070118 281.737377942,1241.55594297 258.295673887,1241.98922278 255.061566627,1240.16322251 252.991656949,1237.10317422 252.941122898,1201.0 " moovel_rot="-81.3" moovel_centroid="269.648396693,1221.2046363719935" moovel_centroidlatlon="13.192777614730293,52.546783567461205"/>
  <polygon id="45580475" class="tile" points="287.615577728,1201.16253969 306.58679229,1201.0 306.579851107,1220.01306538 306.575383665,1245.77066521 287.604219649,1245.93327222 287.609039915,1220.29850805 287.615577728,1201.16253969 " moovel_rot="-36.9" moovel_centroid="297.094546108,1223.466631510423" moovel_centroidlatlon="13.485106688369957,52.49568670507523"/>
  <polygon id="330713653" class="tile" points="307.58679229,1232.99772466 307.591690952,1201.03580521 322.265407651,1201.0 324.419158661,1225.34544198 319.124471123,1231.68688875 307.58679229,1232.99772466 " moovel_rot="-42.9" moovel_centroid="315.282302038,1216.533005653001" moovel_centroidlatlon="13.341777204509542,52.56141505121767"/>
  <polygon id="130005963" class="tile" points="332.083135174,1213.4724809 332.074164617,1201.0 325.419158661,1201.00570651 325.428131023,1213.47818759 332.083135174,1213.4724809 " moovel_rot="-84.0" moovel_centroid="328.75114736,1207.2390934680234" moovel_centroidlatlon="13.275727500000004,52.47745005000001"/>
  <polygon id="51086895" class="tile" points="333.120279645,1201.0 403.99225782,1201.19947379 403.95440099,1339.54301297 333.083135174,1339.34280921 333.120279645,1201.0 " moovel_rot="44.3" moovel_centroid="368.537549688,1270.2712082330436" moovel_centroidlatlon="13.41577235,52.42811875"/>
  <polygon id="284561377" class="tile" points="415.420328856,1201.86961275 404.99225782,1201.0 405.084768638,1269.02492509 415.183130087,1270.07116016 421.713813119,1269.57716055 422.049920868,1267.81406226 422.20554075,1207.76925862 415.420328856,1201.86961275 " moovel_rot="56.7" moovel_centroid="413.466216341,1236.0894179315537" moovel_centroidlatlon="13.204844452061549,52.54355009975809"/>
  <polygon id="29036176" class="tile" points="428.418922038,1269.82880883 430.873010336,1269.43055886 429.167624793,1250.65520474 456.756505379,1247.51179767 455.072291438,1234.12658027 476.599965528,1231.28569031 474.223368604,1217.21591315 471.898799908,1201.0 423.215230617,1206.20171751 427.056449604,1233.144163 423.20554075,1233.7299015 425.117654957,1257.87207167 426.414064574,1270.15927942 428.418922038,1269.82880883 " moovel_rot="-7.2" moovel_centroid="446.54415534,1225.865584798787" moovel_centroidlatlon="13.421035825579654,52.48818817493711"/>
  <polygon id="88220697" class="tile" points="494.210261189,1201.0 496.988499732,1231.2275743 477.599965528,1234.88893327 477.610653885,1213.56561776 481.470250275,1203.01688839 494.210261189,1201.0 " moovel_rot="-39.2" moovel_centroid="486.869026269,1218.4958519902489" moovel_centroidlatlon="13.313443066092221,52.419686061784425"/>
  <polygon id="219572060" class="tile" points="515.487841878,1201.01579668 515.497994517,1224.18382091 497.996788525,1224.16161035 497.988499732,1201.0 515.487841878,1201.01579668 " moovel_rot="73.6" moovel_centroid="506.743184908,1212.5905127374924" moovel_centroidlatlon="13.510088779694945,52.48483035299939"/>
  <polygon id="4752093" class="tile" points="519.611483595,1202.56197922 556.566914931,1201.0 556.55589451,1204.47860913 556.559277533,1244.58920049 531.758838215,1245.36223499 533.032928181,1280.49154873 520.308821719,1281.93979193 517.454873238,1251.10740817 516.497994517,1222.11589682 519.611483595,1202.56197922 " moovel_rot="70.7" moovel_centroid="534.417813611,1232.5289103813598" moovel_centroidlatlon="13.249755616827835,52.50066058428983"/>
  <polygon id="132707050" class="tile" points="557.566914931,1202.3035741 580.851437989,1201.0 580.896129965,1251.51471028 579.272586559,1251.51369833 579.281037178,1269.64772436 579.619093059,1281.64240573 560.14749949,1287.91536091 557.643208087,1277.58468527 557.566914931,1202.3035741 " moovel_rot="-90.2" moovel_centroid="568.90846228,1242.4633324249032" moovel_centroidlatlon="13.220876142213049,52.601312789919334"/>
  <polygon id="337366536" class="tile" points="39.7231817341,1499.94328881 30.2266137706,1500.50516235 31.2441127364,1518.81378784 0.0,1520.48479956 1.05172529323,1537.24847435 27.6864534614,1535.82022256 26.8262073057,1545.26790752 21.6476534127,1544.78811842 20.0520425471,1552.84089697 24.4385500057,1553.75615956 17.2704494805,1570.56180863 28.8124887527,1575.74525819 33.3289198001,1565.9491801 31.6617702152,1565.00608353 34.6386912064,1559.1553872 31.2073516245,1557.87501569 33.1331454459,1552.32742446 36.8206260312,1553.66364098 40.3050316726,1538.92616687 39.6260013354,1521.25050756 34.6128024671,1521.42120065 34.4765831332,1515.61341591 40.2977857433,1515.42262979 39.7231817341,1499.94328881 " moovel_rot="-2.2" moovel_centroid="25.149040372873966,1535.67984534" moovel_centroidlatlon="13.355937218718257,52.479179471850706"/>
  <polygon id="272795281" class="tile" points="49.1061872977,1499.94328881 54.7653825887,1501.00237842 69.510803266,1503.76190889 70.0897831404,1517.73359133 70.0952113701,1556.8098464 42.9778874527,1550.98952423 46.1553056534,1535.17304212 42.3050316726,1534.39685192 49.1061872977,1499.94328881 " moovel_rot="10.6" moovel_centroid="57.6430910904,1528.7808973" moovel_centroidlatlon="13.377747954629944,52.46781277328028"/>
  <polygon id="38705100" class="tile" points="125.872622568,1559.60774526 124.522652345,1515.3138142 124.483304173,1513.95752886 114.542224803,1513.22812182 79.4546758544,1499.94328881 78.2681010302,1535.8947417 71.0995082466,1542.76764272 71.0952113701,1563.4541299 125.872622568,1559.60774526 " moovel_rot="80" moovel_centroid="98.8484248416,1535.81905208" moovel_centroidlatlon="13.40395298981562,52.44788732803435"/>
  <polygon id="88810690" class="tile" points="135.108761167,1560.89667173 143.645433093,1560.90660919 143.69505083,1499.94813323 126.915409204,1499.94328881 126.872622568,1560.89093077 135.108761167,1560.89667173 " moovel_rot="0.8" moovel_centroid="135.282380253,1530.41968548" moovel_centroidlatlon="13.469378028227437,52.42418144841569"/>
  <polygon id="391137142" class="tile" points="144.714377142,1499.94328881 144.69505083,1518.5446982 149.354656559,1518.56092815 149.366409286,1517.12131338 149.360029361,1514.46047211 149.376987157,1502.66708606 149.373989666,1499.95951297 144.714377142,1499.94328881 " moovel_rot="49.6" moovel_centroid="147.036432503,1509.25238648" moovel_centroidlatlon="13.38915907179076,52.53600156164356"/>
  <polygon id="142202880" class="tile" points="154.956920795,1499.94328881 157.58631355,1500.90237521 195.598130895,1514.82849895 198.539081027,1506.65505593 214.130780957,1504.70091251 224.753012425,1508.65216313 224.25245628,1592.91798278 224.722579829,1603.98260504 193.334501991,1605.66102617 193.837304323,1597.45484101 194.960806697,1585.80507518 199.297797171,1586.25999337 200.016686939,1580.71112944 195.536124232,1580.02964381 196.659975224,1568.38654805 150.376987157,1563.5419159 154.956920795,1499.94328881 " moovel_rot="-93.0" moovel_centroid="192.766695322,1546.87230445" moovel_centroidlatlon="13.466664718317055,52.56183549952645"/>
  <polygon id="234354372" class="tile" points="230.166145269,1564.95327163 255.802107699,1562.26164387 260.064855843,1510.5902785 254.165035693,1510.15152885 225.753012425,1499.94328881 231.438522024,1535.44200518 225.79572205,1535.97261028 230.166145269,1564.95327163 " moovel_rot="-88.4" moovel_centroid="242.548234052,1533.90799139" moovel_centroidlatlon="13.146697802477814,52.41754272995576"/>
  <polygon id="108965691" class="tile" points="266.319311211,1499.94503597 261.07113373,1499.94328881 261.071175528,1527.96672635 261.064855843,1545.0916885 281.488662002,1545.11733832 281.487858069,1530.40401167 266.313677652,1530.38662931 266.319311211,1499.94503597 " moovel_rot="77.3" moovel_centroid="268.646226837,1529.91033276" moovel_centroidlatlon="13.311165621008431,52.571381312479254"/>
  <polygon id="55502655" class="tile" points="322.434398844,1506.83644287 317.546068213,1532.35611584 320.277236309,1532.85916802 322.464543687,1533.25634603 315.644205635,1570.51115488 291.493207883,1566.2259145 283.804425368,1564.68760057 287.52679051,1544.33345568 282.488662002,1543.4089974 287.361492914,1516.76599873 282.508374813,1515.87473412 285.41922492,1499.94328881 287.617253597,1500.34752445 289.637227271,1501.14653673 322.434398844,1506.83644287 " moovel_rot="-88.0" moovel_centroid="302.19763978,1534.8822934" moovel_centroidlatlon="13.384496481534976,52.50040624765754"/>
  <polygon id="244081950" class="tile" points="323.464543687,1499.95115596 323.472609941,1560.6196197 327.836286392,1560.61173634 327.828225814,1499.94328881 323.464543687,1499.95115596 " moovel_rot="-19.3" moovel_centroid="325.65041636,1530.28144363" moovel_centroidlatlon="13.609761700000002,52.533823850000005"/>
  <polygon id="280995489" class="tile" points="328.836286392,1558.00290734 328.849935159,1500.64772337 340.669430448,1499.94328881 341.006241728,1557.67033964 328.836286392,1558.00290734 " moovel_rot="-88.2" moovel_centroid="334.847587771,1529.2054421" moovel_centroidlatlon="13.35676506759984,52.59752137025947"/>
  <polygon id="228927664" class="tile" points="342.006241728,1565.97803032 342.020946691,1499.94328881 353.681632707,1499.94337985 353.656015943,1565.97724342 342.006241728,1565.97803032 " moovel_rot="-85.4" moovel_centroid="347.841197922,1532.95533362" moovel_centroidlatlon="13.336091926783174,52.45944692887768"/>
  <polygon id="363799588" class="tile" points="359.096615827,1556.23713041 385.956416282,1524.30540972 357.838547142,1499.94328881 354.707933582,1503.88635023 354.681632707,1554.76667676 359.096615827,1556.23713041 " moovel_rot="-45.8" moovel_centroid="365.350732061,1527.51464529" moovel_centroidlatlon="13.342844373414865,52.59961407291133"/>
  <polygon id="256251154" class="tile" points="386.956416282,1499.98393056 386.970796367,1535.65318508 402.93575424,1535.61250027 402.921396568,1499.94328881 386.956416282,1499.98393056 " moovel_rot="-27.5" moovel_centroid="394.946089254,1517.79822202" moovel_centroidlatlon="13.320453449999999,52.58302254999999"/>
  <polygon id="301971812" class="tile" points="403.93575424,1538.62278697 404.659724134,1499.97447754 416.395278756,1499.94328881 416.420262892,1538.90961971 403.93575424,1538.62278697 " moovel_rot="-36.4" moovel_centroid="410.359010754,1519.56337978" moovel_centroidlatlon="13.273888540974072,52.50140723903864"/>
  <polygon id="242097633" class="tile" points="417.420262892,1499.94328881 417.448529455,1545.01339107 433.609780559,1545.02158066 433.581521695,1499.95144557 417.420262892,1499.94328881 " moovel_rot="13.2" moovel_centroid="425.51502463,1522.48242473" moovel_centroidlatlon="13.355685049999998,52.431260499999986"/>
  <polygon id="428036218" class="tile" points="434.609780559,1508.38932771 435.859499899,1505.34309903 435.747080878,1499.94328881 437.815547763,1500.02559503 437.825483558,1510.07882562 434.609780559,1508.38932771 " moovel_rot="69.9" moovel_centroid="436.688738508,1505.04380049" moovel_centroidlatlon="13.364314058493518,52.47552285967096"/>
  <polygon id="23154750" class="tile" points="438.825483558,1570.78139565 439.319560811,1516.40178464 444.391450712,1516.33463053 444.32983551,1505.26939017 456.267004822,1505.26718346 455.869867841,1499.94328881 490.696039201,1500.34984172 490.512760722,1505.48584922 502.710688902,1505.68265448 502.653204141,1670.29368879 497.491796265,1670.22736908 497.40884712,1570.81378756 438.825483558,1570.78139565 " moovel_rot="-86.0" moovel_centroid="474.459053766,1546.01200014" moovel_centroidlatlon="13.284891656479857,52.58169947053052"/>
  <polygon id="171372961" class="tile" points="519.293974265,1499.94328881 503.710688902,1500.6188515 503.89389601,1512.31350894 504.476520176,1550.57667008 517.941590309,1551.79203864 519.237644126,1537.14668592 519.293974265,1499.94328881 " moovel_rot="-90.2" moovel_centroid="511.636498419,1525.25871328" moovel_centroidlatlon="13.273476081959574,52.53273762108514"/>
  <polygon id="286009809" class="tile" points="520.384731686,1502.61988785 520.293974265,1567.87157109 525.15502481,1567.82898419 525.172589427,1568.99672226 552.501314253,1568.84867387 552.507172036,1499.94328881 539.553703561,1500.07774554 539.45980927,1514.72473065 536.300419963,1514.9195846 533.427386389,1515.0898082 533.336987208,1502.52973088 528.461326085,1502.56309293 520.384731686,1502.61988785 " moovel_rot="-7.1" moovel_centroid="536.605533345,1536.11084944" moovel_centroidlatlon="13.149369617603725,52.532238054882924"/>
  <polygon id="382468606" class="tile" points="559.1102472,1499.94328881 559.246430439,1587.05407572 553.507172036,1586.74264739 554.500803561,1505.09513874 559.1102472,1499.94328881 " moovel_rot="-32.0" moovel_centroid="556.613843634,1546.27124371" moovel_centroidlatlon="13.334670241551363,52.50349923413695"/>
  <polygon id="98318914" class="tile" points="560.246430439,1499.94328881 567.500916414,1499.94989793 575.248184463,1499.94684264 575.245068283,1541.47413595 567.859239281,1541.47188392 560.254256008,1541.47021914 560.246430439,1499.94328881 " moovel_rot="-91.9" moovel_centroid="567.748500422,1520.70723905" moovel_centroidlatlon="13.206201470694168,52.53064672443856"/>
  <polygon id="346147390" class="tile" points="37.023389561,1687.6716934 5.75975812851,1753.26366448 0.0,1750.27889168 0.0184499627911,1670.29368879 37.023389561,1687.6716934 " moovel_rot="-41.8" moovel_centroid="12.61003725498784,1706.54530537" moovel_centroidlatlon="13.327429172348147,52.42807375645827"/>
  <polygon id="282811452" class="tile" points="39.0290216775,1670.29368879 67.5250122684,1670.35134701 67.5193441852,1701.91147952 39.023389561,1701.85375308 39.0290216775,1670.29368879 " moovel_rot="27.8" moovel_centroid="53.2741970619,1686.10256379" moovel_centroidlatlon="13.422796349999999,52.415670999999996"/>
  <polygon id="256051196" class="tile" points="68.5343983496,1670.30480615 75.5739237532,1670.29368879 75.5645322454,1690.33286213 68.5250122684,1690.3439901 68.5343983496,1670.30480615 " moovel_rot="-27.1" moovel_centroid="72.0494663441,1680.31883551" moovel_centroidlatlon="13.322541149999998,52.51576365"/>
  <polygon id="50832507" class="tile" points="76.5795417767,1670.32903879 76.5739237532,1695.8517872 92.7569875908,1695.81971434 92.7689115836,1672.16836915 92.7684256679,1670.29368879 76.5795417767,1670.32903879 " moovel_rot="-29.7" moovel_centroid="84.6702240651,1683.07264291" moovel_centroidlatlon="13.445035088339257,52.44435975495373"/>
  <polygon id="391137134" class="tile" points="111.834806562,1740.4477572 107.904934379,1740.71969289 107.625322598,1740.60362618 107.536368066,1740.58161509 107.248173196,1740.33430163 107.057248142,1739.9292978 106.98807761,1738.29197724 106.931997528,1737.10201278 107.249243984,1736.65990883 107.6514138,1736.47650335 111.534786891,1736.30326737 110.801112813,1725.28032508 110.771451362,1725.26147147 112.482296805,1725.13541415 111.666997384,1712.75333218 110.826180595,1700.23662632 110.796519116,1700.21777273 112.528550697,1700.1002436 111.872263678,1690.39670456 107.984636348,1690.56479145 107.743238377,1690.56427608 107.556805334,1690.4581071 107.183968896,1690.28031901 107.120347162,1690.16835084 107.005673889,1689.78714869 106.952829049,1687.4276461 106.923004547,1687.21876808 106.982164514,1687.06645081 107.261258416,1686.57789368 107.316312289,1686.57588972 107.756580285,1686.3698336 111.580705645,1686.22797714 110.847109006,1675.2568326 110.817447498,1675.23797904 112.528300137,1675.1119158 112.227719793,1670.29368879 94.1451450611,1671.55920591 95.5048513396,1691.5931233 93.8109322535,1691.70527715 95.4797701484,1716.60225883 93.7689115836,1716.71103981 95.4589245312,1741.56469742 98.7366572047,1741.36168289 100.101246215,1742.41897411 100.3882545,1746.20247851 98.9883705983,1748.41551406 94.2327033202,1748.71749844 95.4431052329,1767.39600696 110.446569795,1766.00612635 111.882096914,1765.83826767 110.77184646,1750.31882903 112.520813791,1750.20467583 111.834806562,1740.4477572 " moovel_rot="50.6" moovel_centroid="103.16051576,1718.07704379" moovel_centroidlatlon="13.388099854541936,52.53606833846899"/>
  <polygon id="363338078" class="tile" points="113.528550697,1670.29368879 125.159542881,1670.29816684 125.16057605,1681.35021491 130.325920269,1681.34696345 130.3326082,1715.25981808 113.536273032,1715.25857817 113.534982578,1713.53708721 113.52962704,1700.79623124 113.528550697,1670.29368879 " moovel_rot="5.3" moovel_centroid="121.453909052,1694.16451576" moovel_centroidlatlon="13.423539163110707,52.39140948948837"/>
  <polygon id="326550921" class="tile" points="131.3326082,1692.05785813 131.38229307,1679.79523999 131.339701035,1670.58564631 148.971029861,1670.29368879 149.000702236,1673.07112937 149.138062548,1691.01948487 147.894871611,1691.24123175 148.057987592,1691.76077178 142.329459288,1691.70318834 142.069207841,1690.99988636 141.637106407,1690.64652842 138.536708713,1690.52964145 137.721434444,1691.57147836 137.737147724,1691.91763577 131.3326082,1692.05785813 " moovel_rot="-70.3" moovel_centroid="140.191103083,1681.00663291" moovel_centroidlatlon="13.45918778238594,52.549505082760575"/>
  <polygon id="40801954" class="tile" points="150.208645794,1783.82654552 172.240919313,1795.5506081 214.632962986,1712.81640495 156.770598565,1670.29368879 150.138062548,1678.7833665 168.15235488,1692.14530673 151.355940411,1723.30964651 159.004276884,1727.2857798 156.948203294,1733.50098682 170.767699478,1742.39117906 150.208645794,1783.82654552 " moovel_rot="-12.3" moovel_centroid="178.087673579,1731.92509971" moovel_centroidlatlon="13.457533659208346,52.48572120933872"/>
  <polygon id="38704665" class="tile" points="215.632962986,1733.74252531 215.704980923,1727.14063087 215.707216082,1686.18465647 220.952063621,1686.18446053 220.971781897,1675.83925062 220.492945004,1670.29368879 224.127886507,1671.86744571 251.238485895,1672.3109769 259.897080695,1672.65874778 259.938518911,1682.79089142 259.888861969,1690.58279825 260.136566714,1733.6213012 215.632962986,1733.74252531 " moovel_rot="-30.3" moovel_centroid="238.321210547,1703.57168019" moovel_centroidlatlon="13.424193986746696,52.457703052965016"/>
  <polygon id="442908146" class="tile" points="268.721931718,1670.29368879 262.123045669,1677.54861002 261.136566714,1772.53340689 268.801257612,1779.88342298 268.721931718,1670.29368879 " moovel_rot="9.6" moovel_centroid="265.274523367,1726.41656668" moovel_centroidlatlon="13.449661638819427,52.45068995304234"/>
  <polygon id="25333501" class="tile" points="290.230620717,1671.47090445 269.896908254,1670.29368879 269.801257612,1727.46246718 291.339501013,1727.18805053 290.230620717,1671.47090445 " moovel_rot="84.2" moovel_centroid="280.273845723,1699.37638886" moovel_centroidlatlon="13.179334195291265,52.46494502982045"/>
  <polygon id="438471554" class="tile" points="292.356714666,1687.24018072 292.339501013,1701.85559602 308.790106771,1701.58536019 308.410306597,1670.88008391 298.222759585,1670.29368879 297.563734713,1686.88076638 292.356714666,1687.24018072 " moovel_rot="11.0" moovel_centroid="301.626511489,1687.87631956" moovel_centroidlatlon="13.61340175405199,52.506367353904366"/>
  <polygon id="137231900" class="tile" points="309.790106771,1692.61591699 309.79277198,1670.30696599 314.921085672,1670.30269296 325.112092919,1670.29368879 325.209791141,1692.32280851 324.148732112,1692.38219413 324.15027087,1692.16178691 309.790106771,1692.61591699 " moovel_rot="-89.6" moovel_centroid="317.453251156,1681.35579826" moovel_centroidlatlon="13.426335882477396,52.45929193664517"/>
  <polygon id="291483549" class="tile" points="326.209791141,1690.68058058 326.213030118,1670.29419442 342.109035054,1670.29368879 342.116683993,1690.67326226 326.209791141,1690.68058058 " moovel_rot="-90.7" moovel_centroid="334.161692475,1680.48659474" moovel_centroidlatlon="13.216093157667821,52.600084379164066"/>
  <polygon id="396599934" class="tile" points="360.150485375,1670.32819708 360.138877415,1696.49780252 343.116683993,1696.46328595 343.128266171,1670.29368879 360.150485375,1670.32819708 " moovel_rot="72.2" moovel_centroid="351.633578692,1683.39574028" moovel_centroidlatlon="13.263058899999997,52.43836795"/>
  <polygon id="426866571" class="tile" points="369.966840288,1759.00739321 369.893271723,1768.08576661 361.151598889,1768.36268762 361.150485375,1670.56801808 370.670440982,1670.4141177 377.963079565,1670.29368879 378.123029801,1759.02509163 369.966840288,1759.00739321 " moovel_rot="-12.2" moovel_centroid="369.392293283,1717.29511817" moovel_centroidlatlon="13.59229646724629,52.51907636749298"/>
  <polygon id="242358898" class="tile" points="439.058925812,1747.9312686 395.772849405,1766.05764018 379.123029801,1726.37472327 418.2999789,1709.96920603 416.64948961,1706.05226394 401.097053242,1712.56284187 390.163996727,1686.52884995 428.941052709,1670.29368879 439.0124771,1694.28509517 419.897087747,1702.2887554 439.058925812,1747.9312686 " moovel_rot="56.3" moovel_centroid="411.064299781,1720.45118141" moovel_centroidlatlon="13.330735756399026,52.566606020614834"/>
  <polygon id="285024629" class="tile" points="440.075224133,1670.29368879 440.074922417,1681.05396041 440.068236159,1686.72277929 440.058925812,1700.79182282 449.971975192,1700.81414171 449.985899657,1670.30976455 440.075224133,1670.29368879 " moovel_rot="69.0" moovel_centroid="445.024197965,1685.55364959" moovel_centroidlatlon="13.20704534957204,52.54524735590757"/>
  <polygon id="129802210" class="tile" points="451.004855182,1708.38151932 466.244154077,1708.37774032 466.230676515,1675.87797737 462.464779336,1675.88217123 462.459296749,1670.29410382 450.985899657,1670.29368879 451.004855182,1708.38151932 " moovel_rot="-92.3" moovel_centroid="458.400119225,1689.9474307" moovel_centroidlatlon="13.281931027941653,52.47863948741665"/>
  <polygon id="43164517" class="tile" points="508.60658534,1734.67755202 517.821168396,1734.75197353 518.988236532,1714.40301818 490.363624697,1697.99410281 498.769223303,1682.6101124 493.018785575,1679.54139768 482.007352012,1673.5903072 469.924332211,1670.29368879 467.257922772,1706.63697564 467.244154077,1780.55474337 480.607611053,1792.53434833 487.740633778,1783.34304553 497.684606843,1779.03729659 523.294579654,1750.53725275 516.239643066,1744.49320532 508.117737268,1744.27661221 508.60658534,1734.67755202 " moovel_rot="-35.9" moovel_centroid="488.500631936,1733.16070441" moovel_centroidlatlon="13.411059073243177,52.51779939910796"/>
  <polygon id="282696051" class="tile" points="527.902590106,1670.31262676 543.327631994,1670.30392211 555.843996169,1670.29368879 555.841260357,1699.73014064 555.839376128,1701.59022475 555.840518662,1704.501551 524.295453192,1704.51950783 524.294579654,1674.91752183 527.903291583,1674.90673606 527.902590106,1670.31262676 " moovel_rot="-8.2" moovel_centroid="540.286996739,1687.63843985" moovel_centroidlatlon="13.163231424652627,52.55095287285516"/>
  <polygon id="317858296" class="tile" points="583.426824528,1715.0593594 581.439242195,1717.32718286 576.898156532,1722.74636569 564.516413075,1718.41002097 556.843996169,1715.62200787 556.992555523,1712.57920808 557.249179286,1688.33616036 556.872222461,1688.32440223 556.931989617,1685.25165289 557.234511887,1685.26302987 557.500233158,1676.69677979 557.414460387,1673.76774401 563.939563669,1673.76480784 563.924611439,1672.12845193 563.941038712,1670.40380879 570.837318342,1670.29368879 574.63701585,1670.99321543 577.126020793,1672.15873005 579.507417334,1673.72956804 581.035407186,1675.83654576 582.528884578,1678.42292662 583.07327771,1681.34840702 583.426824528,1715.0593594 " moovel_rot="-25.9" moovel_centroid="570.253634166,1695.94741645" moovel_centroidlatlon="13.462541769493445,52.5303654175501"/>
  <polygon id="333672480" class="tile" points="32.6319170304,1795.57939836 0.0270462244749,1795.5506081 0.0,1856.15804775 32.6165575242,1856.19205544 32.6319170304,1795.57939836 " moovel_rot="82.6" moovel_centroid="16.31911298949641,1825.87183799" moovel_centroidlatlon="13.228546502451064,52.60334587496633"/>
  <polygon id="230854004" class="tile" points="34.6319170304,1795.59720641 51.1074926484,1795.5506081 51.1362881593,1837.21594732 45.7919298841,1837.22605761 45.7804928157,1825.95610879 34.6521176171,1825.98655234 34.6319170304,1795.59720641 " moovel_rot="-65.2" moovel_centroid="43.4794531161,1813.00519397" moovel_centroidlatlon="13.336876167450972,52.58872738158299"/>
  <polygon id="44115871" class="tile" points="52.1362881593,1864.39402518 52.9580159917,1795.5506081 85.2847816642,1795.68014705 85.3403043106,1864.9327174 52.1362881593,1864.39402518 " moovel_rot="84.3" moovel_centroid="68.9448156218,1830.29398154" moovel_centroidlatlon="13.564451775705615,52.52894254577622"/>
  <polygon id="154364414" class="tile" points="88.7237534868,1795.5506081 86.3403043106,1817.77037853 104.419092441,1819.79532165 104.384460588,1796.39506933 88.7237534868,1795.5506081 " moovel_rot="41.1" moovel_centroid="96.0124030917,1807.66102478" moovel_centroidlatlon="13.315686625459705,52.475907572542084"/>
  <polygon id="24589659" class="tile" points="105.758054522,1796.10091341 114.928024527,1795.5506081 114.956972943,1851.29045871 105.419092441,1850.65223667 105.469327975,1843.18865086 105.733619474,1800.519307 105.758054522,1796.10091341 " moovel_rot="-4.8" moovel_centroid="110.283326525,1823.58096621" moovel_centroidlatlon="13.285301186876865,52.51173200097192"/>
  <polygon id="59999162" class="tile" points="115.956972943,1796.86011018 134.703976188,1795.5506081 134.667637628,1818.59305732 116.92984138,1819.74716056 115.956972943,1796.86011018 " moovel_rot="36.3" moovel_centroid="125.568212407,1807.58128675" moovel_centroidlatlon="13.177449600000001,52.51990135296367"/>
  <polygon id="10632497" class="tile" points="135.703976188,1832.99387287 135.740313731,1795.68920318 161.142758794,1795.5506081 161.224407224,1832.89700556 135.703976188,1832.99387287 " moovel_rot="-86.0" moovel_centroid="148.455275771,1814.29707177" moovel_centroidlatlon="13.284684462432809,52.585137193898284"/>
  <polygon id="26496234" class="tile" points="164.900153587,1795.5506081 192.695285725,1796.54521743 198.923405024,1796.7624049 198.970178305,1842.39390133 162.224407224,1841.36976451 164.900153587,1795.5506081 " moovel_rot="2.5" moovel_centroid="181.228291052,1819.31206728" moovel_centroidlatlon="13.559474648713751,52.47097196407443"/>
  <polygon id="202207151" class="tile" points="222.412749758,1820.09744303 215.041388017,1819.6475739 215.187255341,1816.7614865 209.620040899,1816.45484436 209.438364492,1819.31988167 204.103584832,1819.00106237 200.002305285,1818.75706692 200.024423651,1812.91203127 199.970178305,1795.5506081 211.754456,1795.82837 222.607646329,1796.09082907 222.412749758,1820.09744303 " moovel_rot="45.7" moovel_centroid="211.288335749,1807.27704039" moovel_centroidlatlon="13.3434682018201,52.43543108000077"/>
  <polygon id="113476912" class="tile" points="223.607646329,1965.67890969 223.684793216,1863.23999681 223.749350464,1795.5506081 233.539237779,1795.55713611 246.187216224,1795.56552558 246.045630189,1965.70050531 223.607646329,1965.67890969 " moovel_rot="-90.9" moovel_centroid="234.895490673,1880.62291342" moovel_centroidlatlon="13.484283140164667,52.519092217850606"/>
  <polygon id="28251240" class="tile" points="247.415072722,1906.77908795 247.187216224,1795.76455903 267.443011914,1795.5506081 267.277935913,1907.30407704 247.415072722,1906.77908795 " moovel_rot="-87.6" moovel_centroid="257.341893413,1851.167752" moovel_centroidlatlon="13.206500601785235,52.55554584342037"/>
  <polygon id="254871726" class="tile" points="268.65566713,1795.66841412 304.355875381,1795.5506081 304.34849432,1823.19521574 304.379751817,1855.41757096 280.776600972,1855.64807014 274.83979344,1829.01993232 273.812867253,1822.56504434 273.739999443,1812.12766905 268.443011914,1812.0879809 268.65566713,1795.66841412 " moovel_rot="-0.4" moovel_centroid="289.005337232,1823.36458592" moovel_centroidlatlon="13.267438471445663,52.53185603076272"/>
  <polygon id="51899482" class="tile" points="315.868683118,1860.75177509 305.379751817,1861.26152808 305.41312054,1795.5506081 315.141138768,1802.12851697 315.868683118,1860.75177509 " moovel_rot="-3.8" moovel_centroid="310.353667938,1830.30423875" moovel_centroidlatlon="13.420118122663721,52.60699654230563"/>
  <polygon id="286457173" class="tile" points="316.868683118,1795.5506081 316.909816305,1832.90350572 321.224887377,1832.91653985 321.238673212,1834.1651116 332.720984809,1834.20313389 332.772231407,1795.64713301 316.868683118,1795.5506081 " moovel_rot="0.9" moovel_centroid="324.867873428,1814.70289318" moovel_centroidlatlon="13.198280852494527,52.51907754924274"/>
  <polygon id="285859674" class="tile" points="337.497906264,1795.76756094 340.832686988,1796.30644 346.117996399,1797.54348959 346.379622177,1795.5506081 351.583788865,1796.29858547 348.129123138,1818.88141763 351.193929072,1819.30214005 351.624563423,1821.02956219 349.845269392,1822.02060138 342.985326399,1821.28813756 343.169949022,1819.62625004 341.289537832,1819.42370089 341.115942656,1821.07903506 337.274816052,1820.66859248 337.259835852,1820.14020422 333.772231407,1819.7186725 337.497906264,1795.76756094 " moovel_rot="27.9" moovel_centroid="342.891355564,1808.83898921" moovel_centroidlatlon="13.189231840261533,52.528347060768986"/>
  <polygon id="23990424" class="tile" points="354.409811767,1985.67626523 352.713476065,1941.43122178 352.697901677,1933.91040271 354.650000544,1934.65990759 354.543518341,1932.51221499 352.694868349,1932.39401907 352.647539573,1925.86641135 354.915928766,1925.64927907 354.678274932,1922.72229477 352.643936775,1922.64378363 352.635599509,1921.9216885 352.624563423,1891.68496164 355.19033284,1891.72114328 355.008090678,1888.73665556 352.647882589,1888.90924905 353.584522983,1847.35046038 353.697211809,1840.50642312 354.080181781,1818.0863335 356.889146855,1818.25003571 356.888054796,1815.36775022 354.126653643,1815.24702209 354.462724588,1795.5506081 360.161704368,1795.74378517 364.311864218,1795.88221715 369.977333884,1796.07585977 369.127309138,1839.71061365 369.13795577,1847.61115357 368.730864503,1909.64847627 368.534925322,1933.4361876 368.029805546,1940.8246337 370.044344497,1982.7371328 367.209378209,1982.88799336 367.364285871,1985.48666421 364.148416247,1985.53156556 360.272083825,1985.59441565 354.409811767,1985.67626523 " moovel_rot="-79.3" moovel_centroid="361.228870817,1890.71345629" moovel_centroidlatlon="13.32883990891314,52.49507228792384"/>
  <polygon id="27073481" class="tile" points="382.63955029,1795.5506081 371.044344497,1808.53728178 381.240102114,1817.47439217 373.926103117,1825.86644664 377.996623152,1829.57828067 371.060089763,1840.74603929 399.829341593,1858.17227546 403.487521994,1857.38139251 404.439561528,1856.11726537 405.423943467,1853.86755635 405.809858105,1851.34915514 406.204384463,1827.23220665 404.793790878,1812.82698066 403.612537571,1813.02836176 400.502872149,1811.25112265 382.63955029,1795.5506081 " moovel_rot="28.0" moovel_centroid="390.430022224,1828.10734364" moovel_centroidlatlon="13.575942923536266,52.445976281348884"/>
  <polygon id="331035331" class="tile" points="412.734779354,1847.07818514 412.774352602,1795.55898602 407.243995852,1795.5506081 407.204384463,1847.0807336 412.734779354,1847.07818514 " moovel_rot="0.2" moovel_centroid="409.989280319,1821.31715126" moovel_centroidlatlon="13.460082248537693,52.42878627478599"/>
  <polygon id="266926628" class="tile" points="413.774352602,1795.5506081 420.225272347,1804.81562409 423.790755727,1802.35144766 441.628760279,1830.03303333 436.653538193,1831.41278453 440.048233644,1837.65526838 416.025810637,1850.95643094 413.786818379,1846.23198815 416.224331803,1812.38280435 413.774352602,1795.5506081 " moovel_rot="-15.5" moovel_centroid="424.743302491,1826.82828129" moovel_centroidlatlon="13.450401809143306,52.46745249902823"/>
  <polygon id="26585083" class="tile" points="442.663298805,1795.5634523 449.832949192,1795.56137509 458.678264411,1795.5506081 458.649728835,1841.25859153 449.746747591,1841.27257528 442.628760279,1841.27436479 442.663298805,1795.5634523 " moovel_rot="-25.5" moovel_centroid="450.65491942,1818.41540421" moovel_centroidlatlon="13.494814700193203,52.63245597030512"/>
  <polygon id="42271453" class="tile" points="459.678264411,1842.68494697 470.67014585,1839.76449184 479.55382808,1837.40667175 477.708951992,1795.5506081 459.746333348,1795.58785933 459.678264411,1842.68494697 " moovel_rot="1.7" moovel_centroid="469.003939016,1818.22602077" moovel_centroidlatlon="13.398673898105292,52.577209514130885"/>
  <polygon id="42110606" class="tile" points="480.636041942,1795.5506081 514.793993996,1795.58295984 514.735123964,1865.17995606 514.700551824,1904.17725693 497.254981507,1904.15972337 497.255779789,1899.82230188 497.26618774,1889.97814595 491.105397789,1889.97454528 480.55382808,1889.96345172 480.636041942,1795.5506081 " moovel_rot="-10.1" moovel_centroid="498.266432212,1846.64300478" moovel_centroidlatlon="13.540587123179831,52.5184112541555"/>
  <polygon id="213286330" class="tile" points="526.017802147,1795.57785579 526.007436199,1812.40813143 515.793993996,1812.38087008 515.804351169,1795.5506081 526.017802147,1795.57785579 " moovel_rot="32.7" moovel_centroid="520.905896571,1803.97936515" moovel_centroidlatlon="13.312776150000003,52.418327399999995"/>
  <polygon id="61907919" class="tile" points="528.132119263,1795.5506081 564.217993821,1796.39958282 564.324088568,1862.34036051 527.017802147,1862.02500647 528.132119263,1795.5506081 " moovel_rot="-41.3" moovel_centroid="545.896070524,1829.26134172" moovel_centroidlatlon="13.448589894032338,52.48869108447538"/>
  <polygon id="105782863" class="tile" points="0.631007188372,2050.17545359 17.0861862162,2050.1410627 17.1582306292,2047.66065339 19.0511764806,2047.62863413 19.144806521,2041.27641417 24.6675269566,2041.20773148 24.6312683422,2039.77728738 27.9853948468,2039.75147007 27.9687671911,2033.40358868 32.5466498969,2033.33094494 32.5857616497,1999.16887001 27.9276598318,1999.14779638 27.9142227346,1985.67626523 21.1764955893,1985.68526642 21.1637543036,1989.04847464 0.693419034407,1989.12805506 0.666049638391,2002.02658642 0.405667386577,2002.11910808 0.158361534029,2002.31993209 0.0,2002.64199764 0.0558741152287,2004.23489534 0.176444075815,2004.50617447 0.360352806374,2004.67543373 0.680731796846,2004.78889584 0.65781602785,2042.36347001 0.631007188372,2050.17545359 " moovel_rot="-85.3" moovel_centroid="15.404849944588557,2017.58625037" moovel_centroidlatlon="13.153278006503315,52.53533505173225"/>
  <polygon id="183972774" class="tile" points="34.5857616497,2065.27537919 34.6202680818,2006.79617201 39.0518816666,2006.72338423 39.428971529,1998.73137034 39.9303401067,1985.67626523 49.9500547499,1986.03427362 59.2075476668,1985.97771902 66.6672809962,1986.34946461 67.3582152651,2040.83418023 60.6599274007,2041.16194731 60.7040354684,2055.62398952 50.3535065862,2055.71261856 50.4322015785,2064.81256403 45.904988151,2064.86156267 43.5837797335,2064.98446657 34.5857616497,2065.27537919 " moovel_rot="-27.8" moovel_centroid="50.3200020767,2023.53804439" moovel_centroidlatlon="13.437146321539354,52.49179574235613"/>
  <polygon id="376558140" class="tile" points="78.2546401722,1985.67626523 78.2640721865,2001.20787328 68.3701705334,2001.23451919 68.3582152651,1985.70909536 78.2546401722,1985.67626523 " moovel_rot="-67.9" moovel_centroid="73.3121023036,1993.45660674" moovel_centroidlatlon="13.521234831427513,52.640010648363535"/>
  <polygon id="222676081" class="tile" points="102.661689654,1985.67626523 98.0029207667,1985.86050196 92.0725314402,1988.80024323 79.2640721865,1990.89586473 79.949130048,2085.32177069 102.566565513,2085.13758677 102.661689654,1985.67626523 " moovel_rot="-12.0" moovel_centroid="91.2247698874,2036.51864264" moovel_centroidlatlon="13.593094645124307,52.52202934476392"/>
  <polygon id="323562900" class="tile" points="103.724824501,2039.34102121 103.661689654,1985.67626523 124.308032903,1997.24422847 115.01929788,2018.70030038 114.860376498,2039.4930735 103.724824501,2039.34102121 " moovel_rot="-63.1" moovel_centroid="110.808852036,2012.00316025" moovel_centroidlatlon="13.355662098734737,52.53165244910857"/>
  <polygon id="310004789" class="tile" points="125.57276432,1985.84908616 152.540813083,1985.67626523 152.538200861,2002.48604723 140.154147415,2009.1872811 137.529773988,2011.84189682 133.453265806,2015.95446943 126.821732162,2004.15283507 125.308032903,1996.882657 125.57276432,1985.84908616 " moovel_rot="-8.1" moovel_centroid="138.475196756,1997.39319651" moovel_centroidlatlon="13.339190493996684,52.57385456621694"/>
  <polygon id="282493551" class="tile" points="153.540813083,2030.27474043 177.002653251,2031.61383987 176.997188395,1986.97369454 155.400400005,1985.67626523 153.540813083,2030.27474043 " moovel_rot="-41.5" moovel_centroid="165.72603798,2008.94204936" moovel_centroidlatlon="13.434825371696428,52.41668774813399"/>
  <polygon id="48118973" class="tile" points="211.91532618,1985.67626523 212.569070167,2073.62176351 178.002653251,2074.36366228 178.040805966,2037.16144884 186.383658397,2036.54436438 186.063375841,2026.49972203 185.854654588,2020.24196232 183.930729591,1987.44071831 209.761609014,1985.80955778 211.91532618,1985.67626523 " moovel_rot="-74.2" moovel_centroid="197.020770195,2032.80468278" moovel_centroidlatlon="13.385875937210395,52.50846739963776"/>
  <polygon id="32479811" class="tile" points="213.571810412,1985.68636486 230.202267726,1985.67626523 230.200404028,2021.04817755 213.569070167,2021.04738273 213.570833376,2002.24744523 213.571810412,1985.68636486 " moovel_rot="-4.6" moovel_centroid="221.886391581,2003.36470635" moovel_centroidlatlon="13.308085557319318,52.4801778231835"/>
  <polygon id="239310802" class="tile" points="232.966897683,1985.67626523 243.11046832,1991.09849744 249.400796983,1994.46173687 287.893718947,2019.42396281 283.689028048,2030.33118276 281.720634529,2073.18469328 285.782699419,2073.10548919 285.671030058,2081.27070947 286.012756082,2084.77622771 283.284597341,2085.3171927 284.809199854,2095.12753832 286.950623704,2114.99509719 283.088871524,2116.36338733 283.054219154,2121.25104716 261.941991453,2132.22840264 236.846224165,2134.90203234 233.218233433,2102.83743736 238.236346763,2101.97301309 236.581065925,2083.42914978 236.823079506,2056.38312359 234.179477778,2056.25364814 231.202389832,2056.35923709 232.023413427,2029.13882846 232.375247693,2017.6214694 232.992110119,1999.74902667 233.055629845,1995.13065731 233.665858109,1993.01797268 231.202267726,1988.55904015 232.966897683,1985.67626523 " moovel_rot="-46.0" moovel_centroid="257.779890308,2064.24785979" moovel_centroidlatlon="13.371072954207776,52.49339270846241"/>
  <polygon id="206198091" class="tile" points="288.937367256,1985.67626523 288.893718947,2020.13562156 295.689938419,2019.81968424 302.535139459,2019.94005119 302.241324679,1985.73675778 295.558937556,1985.706117 288.937367256,1985.67626523 " moovel_rot="-63.2" moovel_centroid="295.643628883,2002.88898941" moovel_centroidlatlon="13.278545044450055,52.44016302304587"/>
  <polygon id="294468186" class="tile" points="303.535139459,1995.10222584 303.546703937,1985.82345501 307.895771718,1985.67626523 308.05720131,1995.05026053 303.535139459,1995.10222584 " moovel_rot="-41.4" moovel_centroid="305.762873748,1990.44313597" moovel_centroidlatlon="13.346562948956242,52.44851129333584"/>
  <polygon id="199573089" class="tile" points="309.05720131,2030.95487898 309.069756261,1989.7084627 309.88269502,1988.53356351 329.615296592,1985.67626523 332.813194071,2008.10109991 330.691184294,2008.13971697 318.232426369,2027.17036885 318.120178791,2031.4540318 309.05720131,2030.95487898 " moovel_rot="-60.6" moovel_centroid="318.934880026,2006.12873749" moovel_centroidlatlon="13.226923724486236,52.54915518918283"/>
  <polygon id="137303718" class="tile" points="333.813194071,2000.02526108 370.656042682,1985.67626523 370.647217656,1994.99518079 370.605589822,2060.47346648 370.600456493,2069.65784389 335.915077135,2069.58615547 335.612176495,2066.52323786 335.713803257,2046.08319791 338.844065667,2046.10563206 338.968028649,2019.44107554 334.52998954,2019.41466835 334.14377362,2009.09140103 333.813194071,2000.02526108 " moovel_rot="28.1" moovel_centroid="353.990024211,2030.63796824" moovel_centroidlatlon="13.572829857899787,52.46998648311798"/>
  <polygon id="243582803" class="tile" points="409.651752924,1987.26854934 380.47381662,1986.04824092 371.656042682,1985.67626523 371.65843508,2019.84229503 395.391004296,2019.99495607 394.890704473,2028.8852399 408.004915445,2029.09907105 409.651752924,1987.26854934 " moovel_rot="50.6" moovel_centroid="391.189922789,2004.94392249" moovel_centroidlatlon="13.302840546466195,52.573419130859136"/>
  <polygon id="106797737" class="tile" points="410.704723064,1985.67626523 416.906702476,1985.68145657 416.720523646,2169.52618614 410.651752924,2169.53099315 410.704723064,1985.67626523 " moovel_rot="4.3" moovel_centroid="413.74611409,2077.27107002" moovel_centroidlatlon="13.306739729387441,52.515807629950075"/>
  <polygon id="331217756" class="tile" points="448.348857895,1985.70450385 448.364582447,2032.28415083 417.922502731,2032.25589035 417.906702476,1985.67626523 448.348857895,1985.70450385 " moovel_rot="73.9" moovel_centroid="433.135662578,2008.98019291" moovel_centroidlatlon="13.50596135,52.49532995"/>
  <polygon id="105537835" class="tile" points="449.364582447,1985.68158738 457.453093601,1985.67626523 457.460199597,2008.4588505 449.372452644,2008.45324408 449.364582447,1985.68158738 " moovel_rot="4.0" moovel_centroid="453.412905407,1997.06730662" moovel_centroidlatlon="13.178362154639837,52.53263767684655"/>
  <polygon id="97062908" class="tile" points="458.460199597,1986.42251102 469.035571723,1985.67626523 481.7187518,1990.96570055 480.985045771,2112.80524887 458.675791652,2136.25517144 458.460199597,1986.42251102 " moovel_rot="-5.1" moovel_centroid="469.565627297,2055.56063658" moovel_centroidlatlon="13.349072894087495,52.45480200026932"/>
  <polygon id="60827388" class="tile" points="499.136758054,2026.59539817 482.7187518,2026.58202477 482.744585091,1985.67626523 499.169251644,1985.69014047 499.136758054,2026.59539817 " moovel_rot="4.4" moovel_centroid="490.94232103,2006.13457451" moovel_centroidlatlon="13.379820073173608,52.45024656259779"/>
  <polygon id="108734636" class="tile" points="524.739482256,1985.67626523 536.469895587,1995.66134403 510.299656047,2026.9568944 543.038212332,2020.0651631 548.726015708,2034.40884187 500.169251644,2044.05484264 500.170856944,2014.45083412 524.739482256,1985.67626523 " moovel_rot="11.6" moovel_centroid="519.807426568,2019.95305675" moovel_centroidlatlon="13.476318656986807,52.512124233135"/>
  <polygon id="40755997" class="tile" points="50.6234192222,2338.46730762 17.4388980122,2346.50939731 0.0,2263.06607664 10.2828513492,2204.06690221 15.8664480323,2187.0968129 24.4459880625,2169.53099315 25.6810120219,2172.39823212 50.6341140895,2240.15521726 29.7548070357,2245.57677375 50.6234192222,2338.46730762 " moovel_rot="-22.2" moovel_centroid="24.2317466689074,2265.55004425" moovel_centroidlatlon="13.527161648468002,52.529755995454465"/>
  <polygon id="23943476" class="tile" points="53.7239718781,2169.53099315 70.5552481638,2169.61912231 70.5702851689,2217.77262128 67.9865136793,2217.5620575 52.805141575,2217.44972812 52.6341140895,2211.8442764 53.7239718781,2169.53099315 " moovel_rot="0.3" moovel_centroid="61.8443571438,2193.81472797" moovel_centroidlatlon="13.179214079763538,52.50757534717836"/>
  <polygon id="37276050" class="tile" points="71.5702851689,2169.53099315 90.0149614623,2169.95735723 89.7734399897,2176.49496698 88.0984519739,2205.12690117 71.8106103643,2204.99936087 71.582438703,2177.86712777 71.5702851689,2169.53099315 " moovel_rot="-23.6" moovel_centroid="80.3895387533,2187.02277166" moovel_centroidlatlon="13.534149251939976,52.46351953328045"/>
  <polygon id="29431041" class="tile" points="147.059795688,2169.53099315 128.762537351,2172.87192013 130.372694466,2183.84183325 91.0149614623,2189.59126136 92.0653037558,2241.255223 147.018143195,2239.0107441 147.059795688,2169.53099315 " moovel_rot="72.1" moovel_centroid="120.942320626,2210.43651254" moovel_centroidlatlon="13.436442203997414,52.518847484528614"/>
  <polygon id="339879057" class="tile" points="148.081800109,2169.53099315 194.418351959,2217.86795173 196.680515401,2225.05732655 186.90672,2228.44864677 178.256121407,2233.87442125 151.682523359,2261.30252232 148.059795688,2257.42467386 152.974958613,2238.0604919 155.667066067,2226.31970823 156.96479035,2216.1092286 148.081800109,2169.53099315 " moovel_rot="50.5" moovel_centroid="167.27246194,2217.76342501" moovel_centroidlatlon="13.240311373908606,52.55872297398819"/>
  <polygon id="378270186" class="tile" points="206.995937641,2172.9405729 209.129702932,2172.5376116 225.139051548,2169.53099315 226.757752996,2178.20599057 230.451926041,2177.71885365 230.432575982,2180.24662451 230.444704267,2189.85667764 211.554881734,2193.28019343 211.292394295,2190.6610714 203.915414325,2192.72271407 202.6412586,2193.93797452 202.590036202,2196.77307808 204.094382253,2199.77475304 208.03713967,2201.81146801 208.383744541,2204.37616761 213.968832349,2208.80398029 223.010621729,2209.99205117 223.132201314,2217.9022153 212.299610286,2218.8891979 212.653720124,2216.73132832 209.000575827,2215.95385909 209.663058831,2209.67375375 206.459130449,2209.93496989 202.504980157,2210.512105 200.730841294,2200.25651444 200.011600643,2195.22213958 197.680515401,2182.86368988 208.079486115,2180.99739105 207.159261808,2175.91057022 206.738837524,2173.57606646 206.5241,2172.99820187 206.995937641,2172.9405729 " moovel_rot="-32.9" moovel_centroid="214.282548663,2190.39320153" moovel_centroidlatlon="13.418418266633257,52.49143271191036"/>
  <polygon id="31484796" class="tile" points="239.249480446,2210.58317542 231.451926041,2179.47192903 244.359034285,2170.98596571 251.647448702,2169.53099315 251.472203144,2182.9383653 245.961830276,2184.38607296 251.43526047,2205.87037072 251.636426937,2206.99501342 249.844423608,2207.77525214 239.249480446,2210.58317542 " moovel_rot="-14.5" moovel_centroid="242.617758226,2189.43076544" moovel_centroidlatlon="13.295265716619502,52.53743175610666"/>
  <polygon id="249159369" class="tile" points="257.371632951,2169.53964501 257.374960971,2184.50392635 252.647448702,2184.49008659 252.648327472,2169.53099315 257.371632951,2169.53964501 " moovel_rot="50.9" moovel_centroid="255.010728894,2177.01727295" moovel_centroidlatlon="13.347892689202789,52.555131344566995"/>
  <polygon id="122689282" class="tile" points="292.448806977,2180.86951428 284.111595072,2181.50748668 284.238177662,2187.27554475 262.870653189,2187.26766266 263.314641985,2182.47494332 258.374960971,2182.3884776 258.44683591,2175.26775407 265.801129785,2175.38633345 265.806188433,2169.9823428 292.900878279,2169.53099315 293.234470784,2173.67011681 297.323886446,2177.22313607 297.314564572,2210.40187306 294.96349595,2211.70501788 292.375850279,2213.48739488 281.786459717,2217.12698385 282.836872918,2228.99967993 279.511431764,2230.52495621 266.170845767,2231.08350518 268.310712075,2212.40024973 272.118835578,2212.50245417 273.102217717,2208.90648989 288.659659021,2204.98312156 290.829343789,2204.42846015 292.774258167,2201.23128085 292.70104984,2198.39423597 292.448806977,2180.86951428 " moovel_rot="-64.9" moovel_centroid="279.902181267,2196.02930919" moovel_centroidlatlon="13.468511976929266,52.50761264727278"/>
  <polygon id="330713637" class="tile" points="298.323886446,2209.61026384 298.332452058,2169.53099315 312.708959752,2170.9729246 314.491026322,2209.03307601 298.323886446,2209.61026384 " moovel_rot="-47.5" moovel_centroid="305.905507688,2190.17667196" moovel_centroidlatlon="13.343248204014845,52.56161509078269"/>
  <polygon id="162865287" class="tile" points="315.530528309,2234.61807272 330.830911617,2234.58101322 332.694594178,2233.98883852 335.777767093,2233.98161835 341.197182905,2206.05697604 342.880023241,2206.0558121 342.88348188,2201.62208521 321.082689582,2201.6656923 321.075955287,2188.46561563 344.648345388,2188.40894493 344.648839822,2193.57196802 348.501259224,2193.563572 348.49238932,2169.53099315 340.133784326,2169.54991723 320.576762622,2169.5919311 315.491026322,2169.61028997 315.497048987,2179.08562616 315.530528309,2234.61807272 " moovel_rot="-21.8" moovel_centroid="329.104092971,2199.78284077" moovel_centroidlatlon="13.348177675804644,52.5029872549009"/>
  <polygon id="10271280" class="tile" points="392.429613474,2243.64094796 387.04589122,2245.3411019 353.832027247,2224.38451061 349.501259224,2223.26896701 349.76724162,2170.1684573 392.366960828,2169.53099315 392.429613474,2243.64094796 " moovel_rot="-87.1" moovel_centroid="372.408424707,2202.85019054" moovel_centroidlatlon="13.541616568269715,52.53874947905154"/>
  <polygon id="24901990" class="tile" points="422.864065985,2314.61862047 395.385030031,2314.36003967 394.95532305,2304.94171326 393.527996838,2273.81153163 393.429613474,2201.95412061 409.381880489,2183.22956044 418.33862993,2169.64137807 422.867107467,2169.53099315 422.864065985,2314.61862047 " moovel_rot="59.1" moovel_centroid="409.009935812,2248.32162078" moovel_centroidlatlon="13.575078971944851,52.52650524022995"/>
  <polygon id="281844286" class="tile" points="423.867107467,2169.53099315 423.879908304,2193.4898028 432.680197566,2195.19092647 438.271330641,2172.22006006 423.867107467,2169.53099315 " moovel_rot="0.8" moovel_centroid="429.789645846,2181.66544612" moovel_centroidlatlon="13.380991899735355,52.558111339074976"/>
  <polygon id="178537516" class="tile" points="439.88776851,2169.53099315 439.271330641,2187.27418803 453.086975294,2187.58770887 453.073764582,2169.62260241 439.88776851,2169.53099315 " moovel_rot="1.3" moovel_centroid="446.342165781,2178.57385925" moovel_centroidlatlon="13.476226181472612,52.421009287075925"/>
  <polygon id="385207014" class="tile" points="454.115862969,2171.69762897 456.992392855,2169.53099315 481.450487254,2169.67413153 481.676105611,2183.57853586 477.772689028,2183.61209599 477.833604403,2194.3538105 481.873987716,2194.32424429 481.821650155,2226.70591977 477.255068651,2226.58549197 471.329821639,2226.50556578 471.303866416,2216.72990466 463.490907944,2216.65259411 463.692519553,2207.11758816 454.086975294,2206.92063306 454.115862969,2171.69762897 " moovel_rot="-27.0" moovel_centroid="468.920582952,2194.38574839" moovel_centroidlatlon="13.549614982392601,52.55146506868855"/>
  <polygon id="176300943" class="tile" points="482.946912083,2169.53099315 482.873987716,2272.43933514 495.33665766,2272.4484091 495.409569709,2169.54006767 482.946912083,2169.53099315 " moovel_rot="-92.6" moovel_centroid="489.14178178,2220.98970974" moovel_centroidlatlon="13.502620750000002,52.519812"/>
  <polygon id="124810967" class="tile" points="496.409569709,2189.27455314 506.818168701,2187.12616178 506.535298203,2169.87119036 496.410233318,2169.53099315 496.409569709,2189.27455314 " moovel_rot="-83.5" moovel_centroid="501.429800642,2179.00614485" moovel_centroidlatlon="13.15807795817963,52.5335704724745"/>
  <polygon id="24740882" class="tile" points="507.926671171,2203.41593446 526.938450574,2199.76555112 526.968591976,2169.53099315 507.818168701,2170.85622017 507.926671171,2203.41593446 " moovel_rot="29.6" moovel_centroid="517.29429487,2185.88903456" moovel_centroidlatlon="13.243084931856533,52.616201440648034"/>
  <polygon id="135459222" class="tile" points="559.431837817,2242.42163336 559.433882958,2169.53099315 527.968591976,2170.33282618 527.998424039,2237.16391038 536.180708443,2237.15917941 536.176945083,2242.42170511 559.431837817,2242.42163336 " moovel_rot="-92.7" moovel_centroid="543.961797214,2205.52307906" moovel_centroidlatlon="13.305435039628215,52.48893924416787"/>
  <polygon id="124810758" class="tile" points="570.393276848,2198.57453446 570.348850554,2169.53099315 567.252637245,2169.78062885 560.521277987,2176.46454274 560.433882958,2198.28829787 570.393276848,2198.57453446 " moovel_rot="-83.2" moovel_centroid="565.673714143,2185.16465869" moovel_centroidlatlon="13.157021592732518,52.53350448354284"/>
  <polygon id="219917210" class="tile" points="62.927616577,2350.13836005 62.2913981382,2367.45623583 61.0416556651,2367.4099966 60.5542580478,2380.51650674 60.4854784833,2381.57881194 60.3900585685,2384.09081864 62.9654751733,2384.19522206 61.1003354,2422.74182602 55.5265866537,2432.39570096 50.4842204014,2429.76346641 55.4029747954,2420.7279141 25.2874561407,2404.24086982 31.4149427561,2391.61042641 27.9704980345,2389.40796271 0.0,2374.10005334 15.017157834,2346.50939731 37.195562792,2359.51730759 36.9992288724,2365.61355989 44.727769557,2365.87521488 44.9285973681,2359.6469705 48.554010638,2359.22969729 48.4622456381,2349.66695694 62.927616577,2350.13836005 " moovel_rot="67.5" moovel_centroid="38.94724965253222,2381.71399118" moovel_centroidlatlon="13.365604866251122,52.449673900984685"/>
  <polygon id="391001912" class="tile" points="95.1558793882,2373.82273698 95.1533541119,2364.51006774 95.7914855106,2362.82454398 95.6055158064,2362.74914186 95.7810834525,2362.25054619 95.6783440681,2362.2022007 100.793265312,2348.64997493 94.9577009995,2346.50939731 90.0146440322,2359.90032298 89.7564866515,2360.5901177 89.2980306042,2360.43492752 89.180349627,2360.7791339 88.7869934211,2360.6424688 88.9093393035,2360.28834899 86.0657226034,2359.24085024 85.9373332357,2359.59212618 85.4137773532,2359.4184109 84.7751170285,2361.15211947 87.193781423,2362.03597667 85.7197978469,2366.12525388 85.7263217358,2373.82935889 81.647216869,2373.82302634 81.6482602343,2373.03646263 78.3390041651,2373.04124563 78.3440043828,2373.830653 75.5222520368,2373.83477516 75.5172517432,2373.04536795 72.1852006346,2373.05153209 72.1841575252,2373.83809525 69.9927245682,2373.83610947 69.9517276203,2380.19800396 64.9654751733,2380.23702668 64.9848949455,2416.51099782 69.9994509941,2416.52163539 69.9993996929,2422.89063752 74.2380642349,2422.88731401 74.2370239284,2423.67387122 77.5630258488,2423.66487533 77.5640662458,2422.87831793 89.6497440701,2422.87444772 89.6487033473,2423.66100581 92.9184070896,2423.66184114 92.9254913943,2422.87812671 105.06142775,2422.86157325 105.06038661,2423.64813223 108.381725339,2423.64904613 108.382766568,2422.86248696 112.638185591,2422.85493222 112.623401982,2416.45470817 117.642626746,2416.45542421 117.621364867,2380.2167416 112.579338492,2380.21742066 112.575283127,2373.81008486 110.371761756,2373.80241441 110.368140991,2373.02576248 107.05283989,2373.0277049 107.051795839,2373.81427007 104.217955194,2373.81270731 104.218999169,2373.02614231 100.874859523,2373.02662204 100.873815638,2373.81318685 95.1558793882,2373.82273698 " moovel_rot="25.2" moovel_centroid="91.3913344779,2395.42492274" moovel_centroidlatlon="13.39053920991195,52.54666936451406"/>
  <polygon id="385207009" class="tile" points="119.787805543,2346.50939731 118.642626746,2451.57067486 120.979494645,2448.7496288 124.403408762,2447.16951705 127.767632531,2447.32988434 127.379302116,2451.15467729 151.813507226,2452.11063748 151.753740971,2351.73874193 124.190850743,2350.31025022 122.424729024,2349.67081522 121.000257524,2348.53909235 119.787805543,2346.50939731 " moovel_rot="63.4" moovel_centroid="135.538731499,2401.0434823" moovel_centroidlatlon="13.554652451057498,52.548366377442775"/>
  <polygon id="27527876" class="tile" points="198.953514219,2346.52860679 209.741219505,2346.50939731 209.738387408,2357.15414484 216.070892635,2357.14653235 216.067359868,2415.8264913 152.813507226,2415.93051904 152.857437867,2346.59901315 198.953514219,2346.52860679 " moovel_rot="-68.6" moovel_centroid="184.007773983,2381.67693358" moovel_centroidlatlon="13.39218799560826,52.45639937290149"/>
  <polygon id="106103420" class="tile" points="217.070892635,2362.98839907 228.32534234,2362.9479304 228.229059853,2346.57199983 217.081996063,2346.50939731 217.070892635,2362.98839907 " moovel_rot="-70" moovel_centroid="222.670994362,2354.76758325" moovel_centroidlatlon="13.297121635105993,52.50224310893596"/>
  <polygon id="85683161" class="tile" points="229.32534234,2354.35886906 232.03124992,2351.39113985 236.686094777,2346.50939731 251.057727116,2364.61411009 251.739060143,2373.18306013 237.839214123,2395.93916247 232.824068937,2390.93569843 229.339565716,2387.51307769 240.261904046,2370.78969824 237.154484082,2363.95897102 233.590046686,2359.03674815 229.32534234,2354.35886906 " moovel_rot="-51.4" moovel_centroid="240.616910665,2371.13362197" moovel_centroidlatlon="13.285658591623651,52.591320413631486"/>
  <polygon id="380225181" class="tile" points="252.739060143,2566.52489215 252.852304379,2349.70407215 256.262562788,2346.50939731 256.327118605,2355.27997875 253.240661538,2357.48136579 253.080662083,2360.34904898 256.480181508,2357.75625477 256.464465395,2383.1121288 253.277171086,2386.1996612 253.121252698,2389.30110418 256.437822153,2386.86456331 256.326054532,2407.39112069 253.299688529,2409.84591999 253.184969293,2412.92525904 256.594808379,2410.76160532 256.509827241,2425.07662891 253.457372352,2428.20362142 253.493208431,2431.04077622 256.473027577,2428.4991674 256.621281602,2440.98768636 253.310052886,2443.5331277 253.351229075,2446.47918179 256.677945408,2444.37251914 256.628581476,2463.98365575 253.425620601,2466.5331357 253.456648157,2469.1493083 256.643349555,2466.99353325 256.720600481,2474.20475051 253.517810159,2476.85348857 253.424194598,2478.94038265 256.704535132,2476.84616953 256.805239906,2492.53929903 253.617934014,2495.62680983 253.684817298,2498.11197302 256.675699641,2495.57686268 256.750494641,2516.33828356 253.531983717,2519.2686572 253.562457046,2521.99687049 256.925953339,2519.43583345 256.701507433,2531.95011876 253.42644544,2534.97290515 253.446230139,2537.48330417 256.794009365,2535.2039093 256.855181933,2539.93990842 253.471679617,2542.85939449 253.761148492,2545.44872368 256.932507456,2543.36327514 256.723522418,2556.31628924 253.541478093,2558.18392962 253.598346636,2560.84829545 256.764672528,2559.2622947 256.66805674,2563.03970816 253.508575789,2566.03776936 252.739060143,2566.52489215 " moovel_rot="-28.2" moovel_centroid="254.65056542,2458.09880749" moovel_centroidlatlon="13.364689333004755,52.501789617082004"/>
  <polygon id="176956917" class="tile" points="257.932507456,2381.51114659 257.976090425,2346.50939731 267.069269504,2347.10250644 270.892734988,2350.39647292 275.259410517,2354.1561296 275.62452751,2381.08021471 257.932507456,2381.51114659 " moovel_rot="58.4" moovel_centroid="266.337482692,2364.94195953" moovel_centroidlatlon="13.140507347645555,52.45245179588814"/>
  <polygon id="409220216" class="tile" points="276.630086388,2352.74574237 276.62452751,2346.5114227 280.077459602,2346.50939731 280.082056322,2352.73093207 276.630086388,2352.74574237 " moovel_rot="-35.7" moovel_centroid="278.352941622,2349.62423198" moovel_centroidlatlon="13.510340819053113,52.48940757920037"/>
  <polygon id="79650600" class="tile" points="281.336842129,2394.35164774 281.082056322,2349.69718704 297.199785097,2346.50939731 297.197431367,2393.22073518 281.336842129,2394.35164774 " moovel_rot="-85.6" moovel_centroid="289.262813818,2370.87422663" moovel_centroidlatlon="13.152848470116504,52.53039048922367"/>
  <polygon id="213276310" class="tile" points="298.199785097,2350.93670194 298.200880739,2372.14719804 302.959995404,2368.50984989 302.855439905,2346.50939731 298.199785097,2350.93670194 " moovel_rot="78.6" moovel_centroid="300.570038718,2359.55090182" moovel_centroidlatlon="13.318537841016058,52.49616977307749"/>
  <polygon id="326740877" class="tile" points="303.959995404,2370.48532977 304.144321489,2347.01416493 315.142983759,2346.64025958 319.069078606,2346.50939731 319.07605261,2370.89788673 303.959995404,2370.48532977 " moovel_rot="-53.3" moovel_centroid="311.610326997,2358.7519165" moovel_centroidlatlon="13.503362501375127,52.57416451169114"/>
  <polygon id="69923096" class="tile" points="320.07605261,2377.73709671 320.089319861,2365.17166216 320.10194023,2346.53623627 327.15476051,2346.51825299 335.177502235,2346.50939731 335.162159432,2377.71747373 326.743248216,2377.72397371 320.07605261,2377.73709671 " moovel_rot="-24.1" moovel_centroid="327.630422492,2362.1243037" moovel_centroidlatlon="13.493847893331848,52.439218077455024"/>
  <polygon id="180541167" class="tile" points="336.198870143,2367.20089969 347.087894758,2367.1677679 347.090367283,2362.54832042 347.088014512,2361.43978343 347.076518965,2346.50939731 336.177502235,2346.53799648 336.183247249,2347.34736856 336.195612044,2362.80621402 336.198870143,2367.20089969 " moovel_rot="-65.6" moovel_centroid="341.637254081,2356.85356454" moovel_centroidlatlon="13.395220818835995,52.53992610958827"/>
  <polygon id="380568894" class="tile" points="348.093690341,2347.51605665 348.090367283,2346.54877985 349.007537429,2346.55671849 353.694317975,2346.53997553 356.205632455,2346.53947379 357.170628889,2346.54312352 366.547626078,2346.52002739 367.512622447,2346.52367692 375.154900509,2346.50939731 375.151881684,2347.47876979 375.151251148,2350.1996474 375.157608084,2351.98442436 375.154588946,2352.95379589 375.151887533,2357.64668462 375.166056273,2380.79064889 375.158112543,2385.80803434 375.161432841,2386.7753028 375.151604,2391.57427069 375.151157308,2392.1047138 367.633340814,2392.1124389 366.668345315,2392.10879201 357.294261112,2392.11942443 356.329265548,2392.11577734 353.699839877,2392.1207636 352.63575498,2392.11530256 352.637467295,2391.22706657 352.639686798,2386.7879817 349.11898891,2386.79952216 348.096388807,2386.79186905 348.093517672,2380.21021637 348.098063455,2375.45908925 348.091305291,2374.48142563 348.094828538,2369.96119591 348.091506764,2368.99392299 348.094165587,2364.02437271 348.090843474,2363.05709876 348.09518343,2358.70951255 348.09070516,2352.05918509 348.093690341,2347.51605665 " moovel_rot="-18.3" moovel_centroid="361.852312456,2368.92091948" moovel_centroidlatlon="13.362684049164908,52.50314805620645"/>
  <polygon id="11643367" class="tile" points="401.911858406,2346.50939731 406.175049671,2355.01103086 422.375133339,2395.71462025 447.747181298,2436.59640059 447.586960396,2440.23268904 420.676007916,2481.78414337 414.512244302,2486.62635508 379.365475143,2498.86028374 376.171072994,2478.47912146 376.166056273,2423.90259922 376.610052115,2393.32582378 379.944266865,2390.64319663 385.086892046,2373.5757132 382.257841665,2356.97050676 401.911858406,2346.50939731 " moovel_rot="20.7" moovel_centroid="403.910202499,2429.01017677" moovel_centroidlatlon="13.524838299119905,52.49674715054958"/>
</svg>