<svg xmlns="http://www.w3.org/2000/svg" version="1.1" width="592.5px" height="1200px">
  <polygon id="3" class="bin" points="1.875,0.0 -0.77665042945,1.09834957055 -1.875,3.75 -1.875,1203.749999 -0.77665042945,1206.40164943 1.875,1207.499999 258.990733614,1207.499999 261.475049164,1206.55903375 262.712615598,1204.20835967 262.923170524,1202.49865672 263.298989273,1200.95333096 266.051157348,1193.51996539 266.844053657,1191.99675596 270.272606912,1187.04178972 270.372851277,1186.88909796 272.257037266,1183.86084198 272.760264687,1182.56306955 273.310417542,1179.59439266 273.3711587,1179.03475147 275.747486626,1107.01820042 275.724312143,1106.46039592 275.235978239,1102.2705776 274.882862375,1101.06326549 273.016226923,1097.2290357 272.881451076,1096.93479044 270.16618527,1090.618136 270.00214999,1090.28343869 267.356941341,1085.50312191 267.187336626,1085.22573041 262.56163568,1078.34905863 261.672838121,1074.11945414 263.558390285,1071.13135818 265.962244608,1070.5486013 268.026737632,1069.22187932 268.828737999,1066.90258675 268.762770557,910.151721632 271.035991767,904.689744766 271.070132198,901.892879585 270.235720091,899.741401395 269.956875007,719.762388813 267.747934264,716.3494782 265.492329007,715.332720278 264.876359783,714.468321543 264.702866603,713.856985666 263.3182229,711.860643939 261.000537029,711.131980314 255.366883963,711.274429746 251.318600468,709.750077116 249.476602417,705.836090226 247.775469441,674.633646995 249.256613517,670.462163999 253.26476141,668.583385507 255.310718278,668.496003355 257.946601024,667.248509445 258.891699749,664.489722157 255.805203899,620.027973547 248.188403902,510.187790315 247.720345657,503.431266514 249.087421519,499.295728442 252.96147755,497.304934274 264.556532465,496.302202666 267.443417799,494.504845043 267.690509363,491.113157099 267.382332542,490.379918492 267.15605117,317.939551939 268.836719662,314.825970793 269.22220206,312.351771333 267.964409408,310.18654218 265.624172747,309.295726815 217.294643211,308.169109613 213.313103643,306.436943846 211.676968597,302.414989386 211.681756841,295.46657235 211.684947548,280.204285183 211.698011425,263.65766314 211.714459063,247.225209249 211.719406019,231.631648197 211.737503839,215.505914271 211.749379038,199.227442232 211.762300879,183.457622599 211.771319685,167.260092579 211.779286292,150.557805727 211.77206613,135.909440114 213.450710065,131.847802967 217.508712059,130.160390275 248.593519237,130.108575943 258.987608035,130.096489819 262.045310073,128.511272551 262.520001967,125.099949766 262.187117297,124.155472357 263.622844978,120.962517411 268.033749138,119.165854168 269.731473098,117.78476195 270.369136476,115.691184205 270.366275604,109.458677656 270.366434293,109.4087041 270.508303102,88.5763436495 270.508078456,88.5024652316 270.349807068,76.2258659239 270.349236533,76.1404044748 270.336755488,49.0229975204 270.328566328,36.9624322452 270.317406068,11.6078722069 270.312061794,3.74745033684 269.212811495,1.09744828167 266.562062661,0.0 1.875,0.0 " moovel_rot="0" moovel_centroid="128.77024429280178,616.9995841908084" moovel_centroidlatlon="0,0"/>
  <polygon id="85260490" class="tile" points="-1.04006849341,1201.0 -1.0,1309.84564715 -56.2090436025,1311.99491423 -66.9709362777,1296.47247404 -67.4255148792,1283.59212941 -46.9182425233,1247.31181019 -37.0572705409,1229.86825853 -29.8122756652,1220.74855071 -24.143972604,1213.61201071 -9.19300920125,1204.85954372 -1.04006849341,1201.0 " moovel_rot="5.2" moovel_centroid="-27.711102398894017,1267.112642733229" moovel_centroidlatlon="13.3611190848023,52.60464438451123"/>
  <polygon id="165951052" class="tile" points="-68.4667488416,1201.0 -73.2500559746,1201.00832034 -73.2088103251,1257.89486296 -68.4255148792,1257.88654006 -68.4667488416,1201.0 " moovel_rot="77.6" moovel_centroid="-70.8377825317,1229.4474192583496" moovel_centroidlatlon="13.3141588,52.57131160000001"/>
  <polygon id="286535957" class="tile" points="-92.1452182797,1217.84550111 -92.1543505297,1231.48729109 -74.2596175513,1231.46569671 -74.2500559746,1208.2829898 -78.5697457192,1208.28406948 -78.5648651353,1206.72874749 -78.5675798812,1201.0 -92.1426589639,1201.02049919 -92.13949137,1214.55116813 -92.1452182797,1217.84550111 " moovel_rot="66.6" moovel_centroid="-83.614952978,1216.9526133386796" moovel_centroidlatlon="13.194001609783898,52.5233479450138"/>
  <polygon id="95937624" class="tile" points="-96.7415898781,1201.0 -93.1667734529,1201.13497201 -93.1543505297,1215.12801325 -96.7546839814,1215.18724276 -96.7415898781,1201.0 " moovel_rot="-33.8" moovel_centroid="-94.9584759408,1208.1208634078441" moovel_centroidlatlon="13.485465407150638,52.6164809161736"/>
  <polygon id="254302023" class="tile" points="-102.719620361,1228.84463097 -97.7546839814,1225.69478606 -112.352952273,1201.0 -131.074586828,1201.52804202 -131.031051033,1206.34719438 -136.659677157,1206.5067039 -136.639008134,1242.85173346 -131.485531757,1252.2212748 -129.604027703,1251.27096797 -115.838830253,1243.12968618 -118.688929309,1238.28705193 -102.719620361,1228.84463097 " moovel_rot="-94.3" moovel_centroid="-121.56264701,1223.562175320605" moovel_centroidlatlon="13.600316413107468,52.478947310968664"/>
  <polygon id="31867439" class="tile" points="-147.680477084,1351.48050017 -137.706449429,1351.47528708 -137.659677157,1201.0 -147.633740816,1201.00520887 -147.680477084,1351.48050017 " moovel_rot="83.3" moovel_centroid="-142.670086131,1276.2402037639438" moovel_centroidlatlon="13.406926549999984,52.5511389"/>
  <polygon id="43641143" class="tile" points="-168.741646226,1201.0 -168.717200454,1216.4386392 -168.696175106,1231.30781911 -149.83077732,1231.65901392 -148.680477084,1201.35016901 -168.741646226,1201.0 " moovel_rot="-1.0" moovel_centroid="-158.982913428,1216.1741513627585" moovel_centroidlatlon="13.543413950324677,52.51199396724529"/>
  <polygon id="27474843" class="tile" points="-212.348919153,1201.0 -212.326993911,1259.79866663 -186.09092234,1259.00574325 -175.779535001,1251.43976447 -170.328317716,1242.621156 -169.741646226,1229.94741776 -172.294893358,1221.7304117 -182.167859462,1211.00173226 -212.348919153,1201.0 " moovel_rot="13.3" moovel_centroid="-193.715568571,1232.8339372303658" moovel_centroidlatlon="13.376383750544097,52.40662227792806"/>
  <polygon id="28119132" class="tile" points="-223.458911448,1201.0 -213.348919153,1204.61548953 -213.356248944,1233.3408845 -233.467669124,1227.66663872 -231.359533229,1219.31655685 -228.732773645,1209.91699318 -226.182486015,1210.63599835 -223.458911448,1201.0 " moovel_rot="-2.4" moovel_centroid="-221.517140501,1218.1664983944743" moovel_centroidlatlon="13.375036290781077,52.40638759521428"/>
  <polygon id="37247501" class="tile" points="-234.519715097,1281.90256218 -234.467669124,1201.0 -254.092202639,1201.34264893 -254.106420765,1282.8333717 -234.519715097,1281.90256218 " moovel_rot="-76.7" moovel_centroid="-244.30835612,1241.7568925339822" moovel_centroidlatlon="13.297194251280699,52.53038904639782"/>
  <polygon id="391126575" class="tile" points="-262.472623892,1263.14587667 -256.43185695,1263.15580456 -255.129614352,1263.17272082 -255.106420765,1270.4268833 -255.10845803,1275.45803916 -256.444711785,1275.47180621 -289.723385255,1275.41689671 -292.677694966,1274.04229889 -292.593809101,1201.89115577 -287.672502686,1201.99031323 -287.652542213,1201.0 -262.384199763,1201.4881748 -262.406995416,1202.47244046 -257.485666371,1202.57158731 -257.509114098,1231.44353673 -262.423359261,1231.43695515 -262.472623892,1263.14587667 " moovel_rot="-64.9" moovel_centroid="-275.815933858,1238.268511416278" moovel_centroidlatlon="13.38755663388467,52.538867629181986"/>
  <polygon id="421668892" class="tile" points="-317.021634084,1201.0 -293.67994654,1201.30708624 -293.677694966,1241.03270878 -317.100730424,1240.82317592 -317.021634084,1201.0 " moovel_rot="-0.7" moovel_centroid="-305.3748357,1221.052207326471" moovel_centroidlatlon="13.522208870274966,52.51799696975845"/>
  <polygon id="62300507" class="tile" points="-318.100730424,1250.8362806 -329.189965545,1226.5088574 -330.307152047,1226.90594889 -336.845361158,1212.67193825 -341.604963903,1201.46285884 -352.471498289,1206.34287896 -355.160629629,1201.0 -366.236208806,1205.63694663 -365.681048889,1211.18547914 -368.526995738,1212.44402855 -371.506502118,1218.24889123 -364.913981383,1234.05722794 -370.933424626,1231.69339923 -392.932588957,1281.45950317 -384.275935716,1285.19350668 -381.068955769,1292.01154728 -373.949222693,1294.16020809 -364.385571737,1314.69884614 -356.806300261,1321.04225565 -348.96056407,1317.55356081 -340.758935671,1335.13182939 -334.294931066,1332.13562059 -329.531016355,1342.27498017 -318.167249091,1336.57963195 -348.963048887,1265.68237191 -318.100730424,1250.8362806 " moovel_rot="-49.3" moovel_centroid="-353.059946588,1266.9053443740158" moovel_centroidlatlon="13.324748915740818,52.52078584864543"/>
  <polygon id="103260497" class="tile" points="-393.932588957,1356.05494362 -394.515385228,1357.71914853 -395.399947625,1358.35768158 -397.359043177,1358.22361299 -406.979506329,1356.92102471 -409.528227884,1356.41770372 -410.376560038,1355.36339548 -410.419645754,1201.0510146 -394.156093899,1201.0 -393.932588957,1356.05494362 " moovel_rot="70.7" moovel_centroid="-402.20303956,1279.3750132758487" moovel_centroidlatlon="13.358318400773186,52.49858979959137"/>
  <polygon id="270846373" class="tile" points="-455.703241624,1249.9692733 -455.692395831,1246.48736723 -455.692079775,1243.71413356 -455.150124054,1243.2159643 -455.172466145,1239.72173627 -455.690858111,1239.23015992 -455.692313412,1238.83594011 -455.666305804,1201.39326107 -452.389893187,1201.27693072 -440.466427597,1201.46354794 -440.509559344,1208.78888706 -424.084807172,1208.86745798 -424.014976741,1201.0 -419.041344597,1202.00644654 -415.014376445,1201.76629203 -414.134177406,1205.4206699 -413.942092013,1208.40169605 -413.204430126,1215.17458287 -411.419645754,1227.43428015 -455.703241624,1249.9692733 " moovel_rot="-88.2" moovel_centroid="-436.803914278,1222.2154119166928" moovel_centroidlatlon="13.4342390356611,52.43513543265491"/>
  <polygon id="352958155" class="tile" points="-471.027165122,1230.87581935 -456.709511769,1230.90562346 -456.703241624,1201.02977251 -471.020910458,1201.0 -471.027165122,1230.87581935 " moovel_rot="-26.1" moovel_centroid="-463.865205979,1215.9528011415762" moovel_centroidlatlon="13.3216474,52.58331594999999"/>
  <polygon id="27807632" class="tile" points="-472.042190293,1201.63876902 -518.053526236,1201.0 -518.226620902,1208.42572812 -518.403627549,1217.388365 -517.278351182,1259.25800055 -496.346148523,1257.85247209 -472.027165122,1255.95610818 -472.574715224,1221.06748892 -472.042190293,1201.63876902 " moovel_rot="42.2" moovel_centroid="-495.39623079,1229.4205423585245" moovel_centroidlatlon="13.283118025903516,52.41151559677659"/>
  <polygon id="92838181" class="tile" points="-542.003857263,1227.53849996 -522.535157149,1227.89501127 -522.547585343,1227.31085954 -520.56705197,1227.44295209 -519.403627549,1201.94310409 -528.466052216,1202.13251977 -542.023370599,1201.0 -542.003857263,1227.53849996 " moovel_rot="-36.9" moovel_centroid="-531.067744663,1214.600441205875" moovel_centroidlatlon="13.331691769920166,52.50101882875763"/>
  <polygon id="376678315" class="tile" points="-543.023370599,1201.0 -548.120732975,1201.01496087 -548.130364181,1214.28967341 -543.032198607,1214.30757731 -543.023370599,1201.0 " moovel_rot="1.4" moovel_centroid="-545.575616294,1207.6532326686968" moovel_centroidlatlon="13.200158334345328,52.555509473125774"/>
  <polygon id="285170525" class="tile" points="-570.656051229,1201.12295335 -564.892022569,1201.72498634 -558.312839692,1202.46121341 -554.596389269,1203.47315102 -554.582802904,1209.83845278 -555.089223211,1217.47795995 -549.151562684,1217.79488611 -549.130364181,1239.39930588 -578.758261208,1237.7977089 -578.362341278,1228.85657122 -577.745008167,1216.63890531 -577.309307953,1201.0 -575.919480861,1201.02830165 -570.656051229,1201.12295335 " moovel_rot="47.3" moovel_centroid="-564.604899682,1221.2974350362535" moovel_centroidlatlon="13.204327042133096,52.5367449964797"/>
  <polygon id="23724412" class="tile" points="-0.0889539726544,1358.35768158 -17.7677493308,1358.55778719 -17.7830335965,1421.42603882 0.0,1421.80579363 -0.0889539726544,1358.35768158 " moovel_rot="0.4" moovel_centroid="-8.896362804092014,1390.06773538" moovel_centroidlatlon="13.289203975044531,52.53944119196838"/>
  <polygon id="448765388" class="tile" points="-20.0969717935,1358.55965193 -19.7830335965,1497.38009737 -24.6242919827,1497.4912107 -24.4556915158,1358.35768158 -20.0969717935,1358.55965193 " moovel_rot="71.9" moovel_centroid="-22.2402384665,1429.1624602" moovel_centroidlatlon="13.196245222456943,52.53234002952939"/>
  <polygon id="24973953" class="tile" points="-29.7643094871,1358.35768158 -25.6242919827,1379.31651112 -36.2463717733,1383.80609842 -48.7609204645,1389.08593443 -48.7598501276,1374.08656265 -43.2917353668,1358.70939635 -36.0723036926,1358.52498957 -29.7643094871,1358.35768158 " moovel_rot="5.9" moovel_centroid="-38.0723328281,1372.69310697" moovel_centroidlatlon="13.207186790455248,52.53974152416194"/>
  <polygon id="374917637" class="tile" points="-54.6881188464,1358.35768158 -54.6984358941,1370.49366467 -49.7712376357,1370.49694395 -49.7609204645,1358.36096209 -54.6881188464,1358.35768158 " moovel_rot="5.7" moovel_centroid="-52.2296782521,1364.42731305" moovel_centroidlatlon="13.3192006,52.5118751"/>
  <polygon id="177008575" class="tile" points="-55.6984358941,1559.25870374 -55.9080379116,1363.86034098 -146.421461593,1358.35768158 -148.702825915,1500.10006129 -55.6984358941,1559.25870374 " moovel_rot="67.7" moovel_centroid="-99.2964166438,1446.6668088" moovel_centroidlatlon="13.114114949000934,52.45807086559583"/>
  <polygon id="326550939" class="tile" points="-149.726252467,1358.55865577 -149.702825915,1379.50425711 -162.362791308,1379.42283951 -162.109586153,1358.35768158 -160.724648978,1358.37429591 -149.726252467,1358.55865577 " moovel_rot="19.2" moovel_centroid="-155.981880955,1368.99790908" moovel_centroidlatlon="13.460574449565444,52.55006950021307"/>
  <polygon id="86384855" class="tile" points="-176.692660715,1366.27407556 -171.751554815,1358.35768158 -168.41244761,1359.27272047 -168.251632768,1370.94065954 -163.362791308,1375.62053717 -163.584831614,1508.55128739 -167.908579463,1508.59917194 -170.501902652,1508.53399275 -172.685718914,1508.65969988 -176.674282459,1508.35374726 -176.692660715,1366.27407556 " moovel_rot="71.8" moovel_centroid="-170.191037935,1436.65532346" moovel_centroidlatlon="13.389601224293658,52.49252186567446"/>
  <polygon id="31262087" class="tile" points="-177.692660715,1401.69877245 -177.724044515,1358.35768158 -198.710630466,1358.37546037 -198.685925662,1401.71650312 -177.692660715,1401.69877245 " moovel_rot="-0.4" moovel_centroid="-188.203312426,1380.03825363" moovel_centroidlatlon="13.549457524837154,52.53312118950754"/>
  <polygon id="30951622" class="tile" points="-199.809897305,1390.73837913 -210.398514207,1390.64747837 -210.45826895,1384.73419455 -210.479502747,1358.35768158 -199.710630466,1358.43272951 -199.809897305,1390.73837913 " moovel_rot="-70" moovel_centroid="-205.110366895,1374.50580554" moovel_centroidlatlon="13.358937818177488,52.41814622747241"/>
  <polygon id="338392495" class="tile" points="-211.49893475,1358.92280998 -211.479502747,1388.03793749 -218.409451726,1387.90261229 -225.29270144,1387.77063127 -225.232316107,1358.35768158 -218.952484369,1358.6153906 -211.49893475,1358.92280998 " moovel_rot="40.4" moovel_centroid="-218.387650913,1373.28552246" moovel_centroidlatlon="13.376409513063852,52.4795988275079"/>
  <polygon id="74098544" class="tile" points="-242.89175061,1358.35768158 -233.315458948,1359.40213356 -226.29270144,1360.60385474 -227.669581278,1428.95419851 -242.776228687,1428.03055309 -242.558539314,1424.79844779 -242.89175061,1358.35768158 " moovel_rot="-32.7" moovel_centroid="-234.867810705,1393.30054982" moovel_centroidlatlon="13.443281172852608,52.544315665388716"/>
  <polygon id="405397492" class="tile" points="-249.18277797,1358.35789647 -249.177154146,1375.71897407 -243.89175061,1375.71876491 -243.897372385,1358.35768158 -249.18277797,1358.35789647 " moovel_rot="-19.7" moovel_centroid="-246.537263633,1367.03832869" moovel_centroidlatlon="13.268975,52.449582600000014"/>
  <polygon id="341385400" class="tile" points="-272.642629726,1358.35768158 -273.193299859,1369.20958917 -274.3815538,1384.84353409 -267.189876086,1384.71768211 -267.360222101,1404.79703752 -250.18277797,1404.55305812 -250.467739832,1392.03547524 -250.392076881,1385.89614468 -250.330367255,1380.87824306 -250.185695848,1369.45822031 -257.808995977,1369.35707706 -260.074974634,1369.32255779 -269.516869161,1369.26653305 -269.559352562,1358.4004348 -271.134876654,1358.37849369 -272.642629726,1358.35768158 " moovel_rot="52.8" moovel_centroid="-261.047080235,1384.52180363" moovel_centroidlatlon="13.324091459523835,52.4537975287006"/>
  <polygon id="213267372" class="tile" points="-280.758580392,1358.36522271 -280.780013324,1392.28631922 -275.402413485,1392.2897163 -275.3815538,1358.35768158 -280.758580392,1358.36522271 " moovel_rot="3.0" moovel_centroid="-278.080495963,1375.32503988" moovel_centroidlatlon="13.591631248081287,52.543120922151004"/>
  <polygon id="43351255" class="tile" points="-281.780013324,1374.30015642 -289.166588398,1381.14149491 -306.235199708,1393.27994389 -307.461936018,1386.18955201 -307.450827049,1358.76579297 -299.934638062,1358.35768158 -281.780013324,1374.30015642 " moovel_rot="85.1" moovel_centroid="-298.352418151,1374.36325663" moovel_centroidlatlon="13.510738934990677,52.504181506658036"/>
  <polygon id="107105177" class="tile" points="-329.218695862,1358.61280279 -345.115912545,1360.42165762 -332.911731631,1405.87254779 -336.453727317,1407.06536584 -329.927305445,1428.06107719 -345.175125283,1441.25911237 -337.484397911,1451.80903656 -315.583330291,1433.44400562 -316.530258021,1424.0503346 -308.461936018,1421.18244093 -325.503806412,1358.35768158 -329.218695862,1358.61280279 " moovel_rot="35.3" moovel_centroid="-327.545111633,1402.74772065" moovel_centroidlatlon="13.180507790213811,52.52909866878716"/>
  <polygon id="37480138" class="tile" points="-346.175125283,1388.52495316 -350.884892953,1382.980349 -417.68449502,1358.35768158 -422.61781933,1372.00480065 -388.131796405,1384.73882427 -422.473807781,1478.18978317 -384.353805955,1492.68335947 -380.755057294,1484.11749363 -346.77564559,1392.31049671 -346.175125283,1388.52495316 " moovel_rot="-21.8" moovel_centroid="-385.510622313,1425.799044" moovel_centroidlatlon="13.598429163378006,52.43929618031875"/>
  <polygon id="382966752" class="tile" points="-423.659759775,1396.03786792 -423.61781933,1358.35768158 -428.722147226,1358.63445156 -428.42069379,1396.22971337 -423.659759775,1396.03786792 " moovel_rot="43.6" moovel_centroid="-426.1051091,1377.09639121" moovel_centroidlatlon="13.356759643742048,52.54548289449117"/>
  <polygon id="316767855" class="tile" points="-453.211224643,1358.35768158 -452.738346838,1379.25757435 -453.257699603,1397.07402852 -446.926994246,1396.95864061 -435.25653706,1396.76019708 -430.885986898,1396.66303271 -431.034484311,1388.13568501 -429.722147226,1386.44940329 -432.819852628,1381.03316491 -438.164408158,1381.07270914 -439.663175701,1380.52252428 -440.97578394,1379.46734676 -442.178930713,1378.00372385 -442.751954795,1376.40447413 -442.934488636,1374.75110328 -442.018105109,1359.19184055 -450.628990082,1358.55704285 -453.211224643,1358.35768158 " moovel_rot="6.3" moovel_centroid="-444.309746034,1381.28612241" moovel_centroidlatlon="13.332508302443552,52.49646082342998"/>
  <polygon id="140382416" class="tile" points="-454.257699603,1358.51828463 -469.418662499,1358.35768158 -476.993038345,1358.35955944 -476.914153546,1489.61284779 -455.513622267,1489.61988764 -454.257699603,1358.51828463 " moovel_rot="-0.4" moovel_centroid="-465.918925478,1423.35214433" moovel_centroidlatlon="13.529442910081183,52.526964343199296"/>
  <polygon id="326482797" class="tile" points="-494.601420211,1413.03802529 -499.026064751,1413.03572566 -499.026139688,1419.58338891 -496.831239164,1419.58680572 -496.836572405,1423.17645637 -494.600265613,1423.17658067 -494.608716488,1474.70008907 -488.955602659,1474.71219136 -486.461788952,1474.71651054 -478.013919254,1474.72309629 -477.993038345,1358.38061712 -483.619904701,1358.37349997 -488.112209504,1358.36954223 -494.587849124,1358.35768158 -494.601420211,1413.03802529 " moovel_rot="-10.7" moovel_centroid="-486.49466956,1416.5577493" moovel_centroidlatlon="13.39288175238974,52.41551931430853"/>
  <polygon id="175902086" class="tile" points="-500.041403656,1409.07286327 -500.026139688,1358.36270286 -505.354414267,1358.35768158 -505.370030727,1409.07451185 -500.041403656,1409.07286327 " moovel_rot="-93.0" moovel_centroid="-502.69805557,1383.71721783" moovel_centroidlatlon="13.500784520833317,52.51855914959832"/>
  <polygon id="47042187" class="tile" points="-506.377432442,1358.35768158 -518.879618547,1358.48663685 -519.903767104,1387.34371421 -506.370030727,1387.98780282 -506.37247219,1386.64378067 -506.376215146,1359.98797317 -506.377432442,1358.35768158 " moovel_rot="-5.6" moovel_centroid="-512.858508389,1373.23953389" moovel_centroidlatlon="13.307902728616385,52.570500120954165"/>
  <polygon id="146267612" class="tile" points="-557.908596305,1409.06388159 -547.936348859,1409.05578656 -543.934740724,1409.05583536 -526.895598552,1409.04025185 -526.885003598,1396.54215573 -520.916071082,1396.54046941 -520.903767104,1378.17873649 -521.933162818,1378.18157439 -521.91417469,1359.79397444 -528.764743504,1359.79531835 -528.769548456,1362.17420179 -527.525460308,1362.1716958 -527.528637004,1370.27020188 -548.196369316,1370.28562077 -548.19100278,1361.82893738 -535.709379383,1361.82131297 -535.700001379,1360.69231603 -535.706773481,1359.80060445 -546.729614144,1359.80605534 -546.728072699,1358.35768158 -562.319128276,1358.36832535 -565.291354928,1358.36543497 -565.298451948,1384.40010932 -557.509893979,1384.39988384 -557.522751741,1402.45792123 -557.908080029,1402.4617523 -557.908596305,1409.06388159 " moovel_rot="75.5" moovel_centroid="-542.973425077,1384.11944503" moovel_centroidlatlon="13.363082242733551,52.498243945765694"/>
  <polygon id="211217283" class="tile" points="-566.298451948,1434.11448278 -566.88575862,1358.35768158 -573.538095239,1361.50586163 -573.595931257,1437.79856291 -566.298451948,1434.11448278 " moovel_rot="-67.9" moovel_centroid="-570.07919486,1398.53165493" moovel_centroidlatlon="13.33836079755597,52.525518159516565"/>
  <polygon id="382974339" class="tile" points="-0.0559831732884,1559.39221809 -0.0393028690014,1560.75652774 -0.0384786844254,1570.54890861 0.0,1576.68495547 -0.0242034170777,1586.31017328 -17.8980908497,1585.65065916 -25.7189398466,1582.78482787 -25.7207774565,1576.76202849 -25.7135710468,1570.86093712 -25.7093463813,1566.24542487 -21.4907201633,1566.24469167 -21.4627618109,1564.38988576 -19.2671774285,1563.69949001 -10.3470360386,1563.69800844 -10.3387272005,1559.25870374 -6.85802979749,1559.33368641 -0.0559831732884,1559.39221809 " moovel_rot="-5.2" moovel_centroid="-11.820892994513255,1573.79290593" moovel_centroidlatlon="13.320487377465536,52.502353726044085"/>
  <polygon id="138265430" class="tile" points="-27.7207774565,1581.80581168 -27.7307357308,1559.27340523 -38.0139268523,1559.25870374 -38.0013105586,1581.79723771 -27.7207774565,1581.80581168 " moovel_rot="-66.7" moovel_centroid="-32.8669207529,1570.53330441" moovel_centroidlatlon="13.279804383013275,52.42011644978409"/>
  <polygon id="137481957" class="tile" points="-50.838016412,1595.19182171 -50.8216274858,1586.58217104 -50.837112773,1559.39069143 -39.6068539412,1559.25870374 -39.0139268523,1595.08701846 -45.3382558297,1595.1453784 -50.838016412,1595.19182171 " moovel_rot="12.3" moovel_centroid="-45.0677728798,1577.38420986" moovel_centroidlatlon="13.43108859453544,52.45996267835072"/>
  <polygon id="27835175" class="tile" points="-51.838016412,1559.53875107 -52.0169649273,1760.13263888 -69.8178158541,1759.63303972 -69.4697091508,1678.7738459 -68.8058201318,1645.70002813 -69.7608221647,1559.25870374 -51.838016412,1559.53875107 " moovel_rot="4.9" moovel_centroid="-60.6668720159,1659.86913079" moovel_centroidlatlon="13.350923310285367,52.598329151595074"/>
  <polygon id="241859201" class="tile" points="-70.8623091985,1559.25870374 -70.8178158541,1596.47011441 -76.5230109689,1596.5547523 -87.3704325525,1589.3002558 -86.5340058235,1560.82447712 -70.8623091985,1559.25870374 " moovel_rot="-10.0" moovel_centroid="-78.5361041343,1577.3595661" moovel_centroidlatlon="13.32337358651863,52.561133792635836"/>
  <polygon id="259590270" class="tile" points="-94.9168450713,1559.25870374 -100.828822544,1561.05692687 -104.345665576,1562.12043975 -104.33495047,1581.24303184 -88.3704325525,1573.19429921 -91.9530758223,1565.56225794 -94.9168450713,1559.25870374 " moovel_rot="15.8" moovel_centroid="-97.9816358474,1569.77103648" moovel_centroidlatlon="13.44699730628903,52.56503702776435"/>
  <polygon id="243582802" class="tile" points="-107.416246936,1561.95870107 -114.930475199,1559.25870374 -116.389146486,1582.84573927 -118.332024689,1614.21008496 -108.457948975,1618.56216461 -105.345665576,1616.04335096 -105.372404258,1595.90450971 -107.416246936,1561.95870107 " moovel_rot="33.8" moovel_centroid="-111.354894111,1591.14226561" moovel_centroidlatlon="13.299995167165203,52.57035175966284"/>
  <polygon id="26843038" class="tile" points="-119.351246829,1560.56373541 -119.332024689,1601.33522096 -152.742804124,1600.42846994 -151.51274041,1559.25870374 -119.351246829,1560.56373541 " moovel_rot="39.7" moovel_centroid="-135.765971729,1580.52496065" moovel_centroidlatlon="13.533430388432263,52.429699503367324"/>
  <polygon id="31159041" class="tile" points="-202.62697617,1611.64645612 -153.763783665,1611.75154782 -153.742804124,1559.36771621 -202.595992032,1559.25870374 -202.62697617,1611.64645612 " moovel_rot="-68.6" moovel_centroid="-178.182695873,1585.50699904" moovel_centroidlatlon="13.335348839045398,52.430095369308496"/>
  <polygon id="106374640" class="tile" points="-203.62697617,1581.14177689 -234.483223078,1580.72972433 -234.200767842,1559.71972672 -240.8486773,1559.25870374 -242.113049939,1600.0637299 -238.733384072,1600.47661013 -239.716053612,1626.44593386 -203.667864283,1634.5025031 -203.62697617,1581.14177689 " moovel_rot="-10.1" moovel_centroid="-222.736564644,1602.77568336" moovel_centroidlatlon="13.16653447186415,52.53388134651016"/>
  <polygon id="387648855" class="tile" points="-243.113049939,1594.78106434 -243.113976876,1559.26345053 -249.102023447,1559.25870374 -249.10108883,1594.77631616 -243.113049939,1594.78106434 " moovel_rot="-79.7" moovel_centroid="-246.107534753,1577.01987989" moovel_centroidlatlon="13.446196950000004,52.438073599999996"/>
  <polygon id="383434739" class="tile" points="-250.102023447,1569.14501743 -255.714539167,1569.13481466 -255.711146058,1567.99167157 -255.712506376,1566.87781527 -255.717490695,1562.63480223 -255.7162458,1561.61250859 -255.720956371,1559.25870374 -250.11257585,1559.26366137 -250.102023447,1569.14501743 " moovel_rot="-51.7" moovel_centroid="-252.911123471,1564.20088293" moovel_centroidlatlon="13.353753558078607,52.486072658150604"/>
  <polygon id="342376708" class="tile" points="-263.324049421,1840.58547672 -256.720956371,1582.29905105 -264.480648873,1559.25870374 -269.779049269,1561.37882753 -262.791522752,1582.15521021 -269.384149593,1840.4451785 -263.324049421,1840.58547672 " moovel_rot="71.3" moovel_centroid="-263.080500805,1700.46850728" moovel_centroidlatlon="13.17442855948154,52.54972109579163"/>
  <polygon id="103502100" class="tile" points="-273.48666469,1594.64949395 -296.777319228,1588.40400848 -291.266676764,1574.24107644 -295.497434061,1572.23994581 -296.768914686,1567.36090129 -279.833178739,1559.25870374 -270.779049269,1580.7466954 -273.48666469,1594.64949395 " moovel_rot="18.1" moovel_centroid="-283.39128152,1577.9942819" moovel_centroidlatlon="13.321037382641054,52.484272127930105"/>
  <polygon id="370330910" class="tile" points="-297.780905192,1559.25870374 -297.777319228,1576.17526992 -306.073380411,1576.18672412 -306.070803411,1567.55221154 -307.696579282,1567.5530667 -307.696102511,1559.27028837 -297.780905192,1559.25870374 " moovel_rot="6.2" moovel_centroid="-302.359577058,1567.34568483" moovel_centroidlatlon="13.404150726858136,52.40534560984621"/>
  <polygon id="146222296" class="tile" points="-311.150331128,1559.25870374 -347.135985431,1559.57399825 -353.052963736,1559.35424941 -353.34457867,1855.39877502 -349.693414059,1855.55912253 -310.2415854,1858.18540204 -308.696579282,1741.49804593 -311.150331128,1559.25870374 " moovel_rot="-44.3" moovel_centroid="-331.429181407,1709.02610765" moovel_centroidlatlon="13.556811724959184,52.40524930963492"/>
  <polygon id="291724727" class="tile" points="-354.438619672,1625.22400323 -370.659659879,1626.45297902 -373.49000576,1591.36262534 -373.467256999,1559.25870374 -354.34457867,1559.27097844 -354.40235654,1605.48484244 -354.413900809,1611.6878297 -354.438619672,1625.22400323 " moovel_rot="-78.9" moovel_centroid="-363.620662752,1591.67792113" moovel_centroidlatlon="13.363998419904126,52.55999871480823"/>
  <polygon id="24920342" class="tile" points="-374.49000576,1560.1719247 -374.692122127,1590.5310353 -400.810400757,1590.35900167 -400.828758751,1559.25870374 -374.49000576,1560.1719247 " moovel_rot="80.5" moovel_centroid="-387.757647557,1575.05734154" moovel_centroidlatlon="13.324085292294171,52.56157728025014"/>
  <polygon id="36056451" class="tile" points="-434.131602356,1618.48697761 -433.597463565,1658.60606106 -425.265304957,1654.46150903 -424.420534849,1645.1078712 -419.205065896,1644.26674167 -419.366422272,1639.73082343 -405.89262967,1640.19171028 -405.250243052,1634.93483311 -401.828758751,1635.11172145 -401.859917288,1559.2786831 -408.229276463,1559.25870374 -407.756973356,1618.326455 -422.810763768,1618.40487041 -434.131602356,1618.48697761 " moovel_rot="-84.1" moovel_centroid="-415.70883208,1619.41874579" moovel_centroidlatlon="13.412714370198813,52.40179393729091"/>
  <polygon id="223398421" class="tile" points="-435.131602356,1560.60607691 -436.496169978,1581.37645482 -449.051419322,1580.52512387 -448.737289522,1570.51605422 -452.64109927,1568.21656868 -452.651732056,1559.25870374 -435.131602356,1560.60607691 " moovel_rot="-32.3" moovel_centroid="-443.353984245,1569.63004895" moovel_centroidlatlon="13.616585661505459,52.52011051111141"/>
  <polygon id="72136503" class="tile" points="-494.993356387,1645.02155217 -453.651732056,1646.85052816 -453.658492881,1638.02809816 -461.269209799,1599.77879065 -460.972240356,1587.66134282 -478.6128481,1586.1541511 -479.773430868,1559.83018027 -494.414685675,1559.25870374 -494.993356387,1645.02155217 " moovel_rot="-71.1" moovel_centroid="-477.80473365,1610.61641371" moovel_centroidlatlon="13.42653907975059,52.42088886709985"/>
  <polygon id="233634333" class="tile" points="-507.441539175,1559.25870374 -496.003663474,1561.00945008 -497.976276228,1566.18461339 -495.993356387,1571.83120302 -497.535939862,1576.27235961 -507.57538772,1574.07148797 -506.046808054,1568.67887798 -508.576406058,1568.06061493 -507.441539175,1559.25870374 " moovel_rot="31.2" moovel_centroid="-502.199259437,1567.55005928" moovel_centroidlatlon="13.616508371628646,52.51379641377986"/>
  <polygon id="382364613" class="tile" points="-509.576406058,1606.60526375 -510.473469697,1605.96695454 -514.566274693,1605.93831298 -514.311277364,1559.25870374 -509.619322215,1559.34372475 -509.576406058,1606.60526375 " moovel_rot="-84.5" moovel_centroid="-512.016786727,1582.89641446" moovel_centroidlatlon="13.308125134710423,52.49895246768397"/>
  <polygon id="251962462" class="tile" points="-515.968868902,1559.25870374 -542.916105626,1559.37788937 -542.957223583,1635.45584318 -536.383941658,1635.41584784 -537.004558837,1604.20486895 -520.297059109,1603.52309591 -515.566274693,1599.02012959 -515.968868902,1559.25870374 " moovel_rot="-0.7" moovel_centroid="-530.931212534,1586.88361854" moovel_centroidlatlon="13.32069444554749,52.46761434897023"/>
  <polygon id="329263851" class="tile" points="-543.961975592,1559.28060373 -543.957223583,1577.65795826 -556.718193614,1577.63148524 -556.718077437,1559.25870374 -543.961975592,1559.28060373 " moovel_rot="-43.0" moovel_centroid="-550.338603414,1568.45777244" moovel_centroidlatlon="13.495363316128346,52.633842047725956"/>
  <polygon id="418102389" class="tile" points="-557.718193614,1559.27172526 -567.329011635,1559.25870374 -567.334114456,1570.49605702 -565.688307141,1570.4994793 -557.724799568,1570.49824604 -557.718193614,1559.27172526 " moovel_rot="7.9" moovel_centroid="-562.527445116,1564.88179726" moovel_centroidlatlon="13.147828664834536,52.455185720585234"/>
  <polygon id="146979100" class="tile" points="-0.0334720311686,1916.94761557 0.0,1858.28609568 -30.810893495,1858.18540204 -30.8525995726,1916.85388024 -0.0334720311686,1916.94761557 " moovel_rot="-49.8" moovel_centroid="-15.424547830728212,1887.56955303" moovel_centroidlatlon="13.427248987836943,52.58781071501674"/>
  <polygon id="68486185" class="tile" points="-68.1956570027,1962.74107986 -113.315074077,1922.59673246 -110.369648107,1919.58313221 -74.0327176074,1883.77745307 -52.7166206468,1861.24191456 -50.1415519055,1858.18540204 -43.3550512457,1869.51283583 -32.9292998567,1869.45993349 -32.8525995726,1963.24793352 -68.1956570027,1962.74107986 " moovel_rot="-92.5" moovel_centroid="-62.3155617251,1917.35133885" moovel_centroidlatlon="13.3044808647508,52.47648420358097"/>
  <polygon id="165951051" class="tile" points="-119.173095748,1911.83037766 -114.327068259,1911.82576721 -114.315074077,1858.18540204 -119.171827045,1858.18769355 -119.173095748,1911.83037766 " moovel_rot="77.8" moovel_centroid="-116.746782595,1884.99742728" moovel_centroidlatlon="13.320233055576198,52.570492494177756"/>
  <polygon id="286807893" class="tile" points="-120.216827811,1873.23062865 -126.792116053,1873.21016911 -126.79509516,1858.18540204 -120.173095748,1858.20874119 -120.216827811,1873.23062865 " moovel_rot="-48.0" moovel_centroid="-123.494371397,1865.69987182" moovel_centroidlatlon="13.55964992448227,52.42368252867749"/>
  <polygon id="445724815" class="tile" points="-127.817216302,1860.47632617 -127.79509516,1882.87274232 -145.113504095,1881.32584359 -144.480543152,1858.18540204 -127.817216302,1860.47632617 " moovel_rot="-55.4" moovel_centroid="-136.353347318,1870.78127159" moovel_centroidlatlon="13.555157074244804,52.43812386622514"/>
  <polygon id="293392098" class="tile" points="-146.113504095,1858.18540204 -150.238520299,1858.19031027 -162.905068791,1858.2109576 -162.931577143,1896.77578647 -146.140062572,1896.75020301 -146.132671415,1891.71687971 -146.113504095,1858.18540204 " moovel_rot="60.9" moovel_centroid="-154.521547793,1877.48078877" moovel_centroidlatlon="13.41908914542677,52.51489759104194"/>
  <polygon id="312215755" class="tile" points="-163.931577143,1858.22138875 -176.032184496,1858.18540204 -176.025530959,1883.13116693 -164.082643545,1883.13110485 -164.085838503,1880.9879572 -163.931577143,1858.22138875 " moovel_rot="-5.1" moovel_centroid="-170.023375389,1870.63765306" moovel_centroidlatlon="13.317880919812803,52.50462606509328"/>
  <polygon id="341796257" class="tile" points="-177.060099196,1879.64331203 -177.032184496,1858.18540204 -185.887703359,1860.55907722 -185.140029054,1883.70785766 -183.315206422,1883.77235904 -181.345941739,1883.87280778 -181.542337385,1880.65719084 -177.060099196,1879.64331203 " moovel_rot="12.2" moovel_centroid="-181.389741913,1870.48870675" moovel_centroidlatlon="13.349237194498652,52.495677426354206"/>
  <polygon id="309260994" class="tile" points="-186.887703359,1965.48618478 -195.434708622,1965.81748822 -195.357142498,1944.83119938 -195.248319379,1858.18540204 -191.028202199,1858.41662362 -186.895585568,1858.64692886 -186.887703359,1965.48618478 " moovel_rot="-90.6" moovel_centroid="-191.111596133,1912.21195391" moovel_centroidlatlon="13.333744111659714,52.47689818758834"/>
  <polygon id="126095395" class="tile" points="-196.441659724,1922.29412863 -201.570528283,1917.30733524 -201.015973165,1858.18540204 -196.434708622,1862.23544387 -196.441659724,1922.29412863 " moovel_rot="82.3" moovel_centroid="-198.865478691,1890.57041409" moovel_centroidlatlon="13.250998380088367,52.53785893193072"/>
  <polygon id="35608070" class="tile" points="-202.947088879,1954.07701086 -206.973800673,1956.41603515 -212.37074583,1963.4176372 -218.247839709,1977.02607292 -217.714220128,1964.69748917 -217.135450115,1922.43684336 -220.229342906,1897.0340431 -219.257350589,1858.18540204 -202.570528283,1858.5168155 -203.778920989,1893.21677501 -204.247521484,1909.34692306 -202.825478194,1922.48554181 -202.610320562,1925.60457842 -202.947088879,1954.07701086 " moovel_rot="71.3" moovel_centroid="-211.197652161,1908.96639355" moovel_centroidlatlon="13.36531196631862,52.497176570030305"/>
  <polygon id="424766959" class="tile" points="-242.490788914,1881.85032374 -233.391071549,1881.21787682 -233.390547339,1858.21112902 -221.229342906,1858.18540204 -221.230622316,1968.62214014 -233.531854743,1967.65030257 -243.15787964,1967.31432452 -242.490788914,1881.85032374 " moovel_rot="78.3" moovel_centroid="-231.377942749,1917.64245624" moovel_centroidlatlon="13.59314300347715,52.52472174561583"/>
  <polygon id="103623834" class="tile" points="-244.176046028,1905.88961623 -290.27952857,1905.87845311 -290.261367959,1858.18540204 -244.15787964,1858.19656509 -244.176046028,1905.88961623 " moovel_rot="-89.3" moovel_centroid="-267.218705543,1882.03750862" moovel_centroidlatlon="13.437355699999998,52.41885605000001"/>
  <polygon id="29432167" class="tile" points="-291.27952857,1859.21542799 -324.647830543,1858.18540204 -324.562839879,1927.99387054 -324.446753044,2024.15134766 -319.218171253,2034.11203451 -319.209843456,2048.45884446 -301.490995261,2048.2236948 -299.894001301,2026.66218029 -298.384302828,1997.35804099 -297.578272736,1981.63782277 -296.729331373,1965.18354629 -295.905156937,1949.10171122 -295.068714159,1932.81166905 -294.201456759,1916.02856642 -292.577131028,1884.37938922 -291.588622029,1865.24075973 -291.27952857,1859.21542799 " moovel_rot="0.3" moovel_centroid="-309.996169048,1946.15429222" moovel_centroidlatlon="13.519886635788188,52.529805177625235"/>
  <polygon id="119495740" class="tile" points="-325.647830543,1881.28459546 -325.654564499,1858.21498351 -340.451180098,1858.25827269 -344.585935522,1858.18540204 -344.58149316,1869.79167329 -344.581777497,1881.2877443 -325.647830543,1881.28459546 " moovel_rot="-4.5" moovel_centroid="-335.116614211,1869.76004036" moovel_centroidlatlon="13.327794366574906,52.507185572111624"/>
  <polygon id="330713642" class="tile" points="-345.61197705,1858.20089969 -355.965619025,1858.18540204 -355.939570685,1888.28554229 -345.585935522,1888.30105918 -345.61197705,1858.20089969 " moovel_rot="-19.5" moovel_centroid="-350.77577502,1873.24322415" moovel_centroidlatlon="13.3433778,52.562970800000016"/>
  <polygon id="391126583" class="tile" points="-357.013330213,1858.21363252 -386.033439609,1858.18540204 -385.985605015,1916.10533833 -356.965619025,1916.1336282 -357.013330213,1858.21363252 " moovel_rot="-64.3" moovel_centroid="-371.499495998,1887.15947974" moovel_centroidlatlon="13.39016825,52.53966105000001"/>
  <polygon id="373627011" class="tile" points="-406.68935705,1887.80132436 -408.011183805,1870.04492791 -408.367659253,1865.12176635 -406.57990868,1861.85658922 -399.510721705,1858.18540204 -394.818298543,1860.91774576 -393.031562125,1865.22812217 -397.898471682,1872.50177649 -401.603193742,1870.09156596 -402.692224116,1871.43159278 -400.668645811,1874.83295664 -398.56372746,1873.6322628 -394.919153025,1878.57470649 -389.221845682,1873.72860197 -387.033439609,1877.55571432 -406.074747075,1891.93381289 -406.613951066,1891.27551962 -408.378968456,1888.97172064 -406.68935705,1887.80132436 " moovel_rot="10.2" moovel_centroid="-400.67790529,1874.2933724" moovel_centroidlatlon="13.440488105866805,52.45039667260525"/>
  <polygon id="184760651" class="tile" points="-420.172452944,1960.40642515 -409.378968456,1960.39384808 -409.436822124,1858.18540204 -420.230335935,1858.19797529 -420.172452944,1960.40642515 " moovel_rot="82.6" moovel_centroid="-414.804644912,1909.2958895" moovel_centroidlatlon="13.255168199999993,52.5380165"/>
  <polygon id="275251363" class="tile" points="-421.230335935,1899.1083001 -435.363608934,1899.11656736 -435.370868882,1858.18540204 -421.237538515,1858.18809097 -421.230335935,1899.1083001 " moovel_rot="0.3" moovel_centroid="-428.300903371,1878.6495768" moovel_centroidlatlon="13.182605454719342,52.54526097513659"/>
  <polygon id="26418934" class="tile" points="-436.370868882,1858.18540204 -436.376183584,1881.20992428 -448.423925458,1881.23875039 -448.418632902,1858.21421122 -436.370868882,1858.18540204 " moovel_rot="52.6" moovel_centroid="-442.397403446,1869.71206845" moovel_centroidlatlon="13.466396,52.44503724999999"/>
  <polygon id="73675397" class="tile" points="-495.724132774,1933.33360428 -449.699312125,1897.76889557 -449.423925458,1871.81828083 -471.615353638,1858.18540204 -495.798018056,1860.59915284 -495.724132774,1933.33360428 " moovel_rot="-84.3" moovel_centroid="-476.007178407,1889.61137296" moovel_centroidlatlon="13.35972084990191,52.59005679157561"/>
  <polygon id="359146087" class="tile" points="-501.348950716,1858.18816932 -501.34717701,1869.38830671 -496.798018056,1869.38553924 -496.799791759,1858.18540204 -501.348950716,1858.18816932 " moovel_rot="1.0" moovel_centroid="-499.073484391,1863.78685433" moovel_centroidlatlon="13.319325099999999,52.50914160000001"/>
  <polygon id="58010249" class="tile" points="-502.360316322,1858.35440968 -502.348950716,1878.27919708 -512.103004095,1877.66304411 -511.768649349,1862.12455694 -507.659540414,1858.18540204 -502.360316322,1858.35440968 " moovel_rot="40.7" moovel_centroid="-506.964374979,1868.55942658" moovel_centroidlatlon="13.329919692705477,52.56006000003891"/>
  <polygon id="26774610" class="tile" points="-513.109489833,1858.23534179 -531.460966204,1858.18540204 -531.449692056,1966.43922595 -513.103004095,1966.48450468 -513.109489833,1858.23534179 " moovel_rot="-46.0" moovel_centroid="-522.280853903,1912.33376451" moovel_centroidlatlon="13.162067450272348,52.463755214043424"/>
  <polygon id="24920989" class="tile" points="0.0,2122.87521711 -0.369093582965,2048.57083553 -48.3960033998,2048.45884446 -48.3837720959,2061.14246316 -63.3153436214,2061.1182313 -63.3751814129,2130.46080653 -26.5224934118,2130.01192423 -26.3216098001,2123.20941911 0.0,2122.87521711 " moovel_rot="-95.2" moovel_centroid="-31.56175184333565,2089.30861609" moovel_centroidlatlon="13.328148460566347,52.5612943488791"/>
  <polygon id="387222694" class="tile" points="-77.4952892305,2053.15078363 -77.5536915127,2050.69460047 -77.5812892569,2049.12896773 -69.3218905417,2048.45884446 -65.386854215,2050.91595647 -65.3751814129,2095.39501049 -77.5565074058,2105.02571679 -77.5697575429,2102.71817453 -77.5775298622,2100.5547999 -70.4630597861,2093.89986178 -70.8311289301,2093.00825791 -71.0663887037,2092.45364045 -71.8141157316,2092.08442084 -75.4919802062,2092.87695904 -75.4319953956,2056.47991192 -71.0273180278,2056.38553314 -70.5281172374,2056.01092135 -70.4077045096,2054.38277049 -71.9904830309,2052.74558638 -77.4952892305,2053.15078363 " moovel_rot="26.8" moovel_centroid="-70.6055708155,2074.35145251" moovel_centroidlatlon="13.432688643019858,52.44008333572335"/>
  <polygon id="272948115" class="tile" points="-91.1986264146,2048.45884446 -78.862780549,2049.32749965 -78.8218613514,2051.35600858 -78.5852245779,2084.82317183 -78.5812892569,2096.25422426 -94.1007704078,2095.30213277 -91.1986264146,2048.45884446 " moovel_rot="-11.2" moovel_centroid="-85.6928989695,2073.22813306" moovel_centroidlatlon="13.358208907928802,52.52167166731324"/>
  <polygon id="206197711" class="tile" points="-100.521667987,2048.47410465 -100.533548052,2064.01597234 -95.1126540097,2064.00070569 -95.1007704078,2048.45884446 -100.521667987,2048.47410465 " moovel_rot="28.7" moovel_centroid="-97.8171603015,2056.23740594" moovel_centroidlatlon="13.2771735,52.43291579999999"/>
  <polygon id="237343469" class="tile" points="-101.544248441,2068.39181753 -101.533548052,2048.45884446 -116.029059354,2051.66922839 -115.535368492,2059.10718736 -111.794760796,2060.62334636 -109.147581493,2063.37221663 -106.557281782,2068.46292076 -101.544248441,2068.39181753 " moovel_rot="-73.1" moovel_centroid="-107.380641215,2057.63589907" moovel_centroidlatlon="13.441204684311566,52.614486303723815"/>
  <polygon id="28241814" class="tile" points="-142.956158764,2104.99768895 -121.240384708,2106.47808373 -117.029059354,2097.08022176 -127.7668724,2096.12468092 -129.779682699,2065.69292957 -132.106824849,2048.53240828 -142.960641117,2048.45884446 -142.956158764,2104.99768895 " moovel_rot="-77.3" moovel_centroid="-134.786152632,2080.72350187" moovel_centroidlatlon="13.27393214789444,52.58968993530185"/>
  <polygon id="211681406" class="tile" points="-148.687077097,2048.47496548 -148.689993768,2057.47029089 -143.963559332,2057.45416673 -143.960641117,2048.45884446 -148.687077097,2048.47496548 " moovel_rot="26.2" moovel_centroid="-146.325317966,2052.96456665" moovel_centroidlatlon="13.29283965,52.579985449999995"/>
  <polygon id="37247517" class="tile" points="-167.790525641,2105.52288107 -149.726780413,2105.43251161 -149.719477567,2102.2736905 -149.689993768,2048.45884446 -161.748658978,2048.57781881 -161.70272358,2053.19965358 -168.242109691,2053.38657554 -167.790525641,2105.52288107 " moovel_rot="-76.7" moovel_centroid="-158.683906144,2077.66186978" moovel_centroidlatlon="13.300306078906518,52.5308553413745"/>
  <polygon id="268629254" class="tile" points="-169.242109691,2048.46001205 -169.245204042,2074.95468883 -174.004346382,2074.95352599 -174.001261481,2048.45884446 -169.242109691,2048.46001205 " moovel_rot="63.3" moovel_centroid="-171.62323047,2061.70676345" moovel_centroidlatlon="13.387983499999997,52.55946"/>
  <polygon id="397052754" class="tile" points="-180.532381424,2050.22056826 -180.217401744,2084.0835687 -175.057027266,2080.8659038 -175.004346382,2048.45884446 -180.532381424,2050.22056826 " moovel_rot="-41.2" moovel_centroid="-177.725358319,2065.73074953" moovel_centroidlatlon="13.3475265194872,52.482689627749814"/>
  <polygon id="383559549" class="tile" points="-185.184958991,2075.81185011 -181.532381424,2076.50069707 -190.773330273,2139.99499186 -209.325928762,2138.49506179 -212.155805579,2135.98496102 -205.691789451,2087.52155544 -209.165204013,2087.07020482 -207.098293211,2071.8619467 -203.979876058,2072.18747112 -205.175179484,2069.56877997 -212.448788813,2068.29656449 -214.933140255,2070.63604306 -211.206957183,2071.2049935 -213.211048752,2086.32679794 -224.897703861,2084.70486101 -222.609456198,2069.65741353 -219.446761884,2070.0151072 -220.944867264,2067.36630342 -224.883556248,2066.6429584 -222.196797654,2048.45884446 -209.769197539,2049.84305415 -199.217652304,2064.83219042 -181.876308842,2066.93815555 -182.207109137,2071.75043043 -183.735787967,2072.51387125 -184.987070144,2074.329211 -185.184958991,2075.81185011 " moovel_rot="54.0" moovel_centroid="-201.52802012,2092.68495232" moovel_centroidlatlon="13.499269800335389,52.499528888670824"/>
  <polygon id="32606197" class="tile" points="-231.150176822,2279.0263875 -242.237499363,2278.48051717 -239.155282002,2223.55724087 -237.655103251,2194.96998306 -237.317958058,2166.48759441 -237.806449556,2124.17632031 -237.583223949,2084.45780564 -242.233881052,2048.45884446 -237.41392488,2048.46936466 -234.560452981,2065.79760189 -229.469931488,2096.7773156 -226.402331343,2123.32538397 -225.897703861,2188.77257826 -231.150176822,2279.0263875 " moovel_rot="-37.3" moovel_centroid="-233.480454563,2174.96222735" moovel_centroidlatlon="13.410463902933868,52.51801456213557"/>
  <polygon id="106989129" class="tile" points="-245.319721202,2048.66768696 -281.855921131,2048.45884446 -281.680949147,2074.85308727 -282.733590819,2074.87884364 -282.573010829,2089.37571448 -286.052741822,2089.48330167 -286.085105531,2095.37388772 -286.086298191,2108.40195378 -285.17229786,2108.40926235 -285.134876637,2112.64602692 -286.082295112,2112.64141218 -286.103824977,2124.6117189 -286.106653327,2153.23320266 -272.240061123,2152.3452345 -273.149911957,2139.5175612 -243.237499363,2137.43240698 -245.319721202,2048.66768696 " moovel_rot="-73.9" moovel_centroid="-265.10792991,2097.62703415" moovel_centroidlatlon="13.191329292603186,52.52884362579852"/>
  <polygon id="316894762" class="tile" points="-339.617008383,2076.65059316 -339.478992828,2060.21473851 -339.388471761,2053.32875649 -325.208930341,2052.77609929 -325.33281753,2049.82695311 -309.747564017,2050.81526258 -305.999439056,2053.17015577 -302.996759875,2048.45884446 -302.780938577,2059.86729764 -302.777345193,2064.45928714 -302.841632961,2066.97610176 -302.764163036,2076.48399024 -303.149621056,2076.48240978 -303.58002321,2093.4060933 -290.287870776,2093.3585302 -287.106653327,2096.08460426 -299.613983939,2110.97853949 -301.371305881,2113.04604156 -303.257164816,2115.25149475 -303.079945175,2126.30315797 -328.289685876,2126.43501722 -338.213095889,2126.49011743 -339.605323809,2126.4762505 -339.612659835,2122.4787523 -339.594041602,2110.08882067 -339.570380372,2093.53166249 -339.617008383,2076.65059316 " moovel_rot="74.7" moovel_centroid="-319.652378373,2089.72191135" moovel_centroidlatlon="13.449607492835586,52.51231408976748"/>
  <polygon id="213887948" class="tile" points="-349.518992912,2152.21786331 -372.28799734,2152.2649532 -372.473328093,2095.53835722 -365.342372097,2095.17008986 -364.336139912,2095.10505427 -364.666903753,2090.3756178 -366.465365309,2055.61402815 -366.879572173,2048.56677072 -340.698366157,2048.45884446 -340.722872517,2100.09553934 -340.618222253,2146.65628312 -340.617008383,2152.22672104 -349.518992912,2152.21786331 " moovel_rot="-90.1" moovel_centroid="-355.208775291,2103.26446336" moovel_centroidlatlon="13.3872100765426,52.46669889100247"/>
  <polygon id="123802223" class="tile" points="-386.907352649,2049.13221286 -387.147025597,2061.30584311 -373.510607416,2061.47045356 -373.473328093,2089.19399896 -386.186840857,2088.7074043 -385.916765279,2069.13562045 -396.096243203,2068.99654398 -396.366318692,2088.56833006 -412.051782232,2087.98193117 -411.213302927,2083.89361154 -410.224085819,2052.43576145 -410.250124214,2048.45884446 -386.907352649,2049.13221286 " moovel_rot="2.3" moovel_centroid="-394.046756295,2069.13350047" moovel_centroidlatlon="13.284609022167515,52.52117889871629"/>
  <polygon id="154862747" class="tile" points="-413.065543762,2091.44655126 -415.619467105,2091.44226667 -419.20618104,2091.43559207 -447.24181521,2093.90335489 -446.596653488,2103.74493685 -457.162082588,2104.12399603 -457.627373213,2056.48492804 -446.824319841,2056.25276508 -446.754162249,2049.43108263 -413.051782232,2048.45884446 -413.065543762,2091.44655126 " moovel_rot="-79.7" moovel_centroid="-435.674803311,2073.05536788" moovel_centroidlatlon="13.572831839192974,52.40902823229319"/>
  <polygon id="219537543" class="tile" points="-485.486361537,2048.45884446 -496.698323113,2086.43970286 -480.394236929,2084.96455372 -479.476377601,2096.83649804 -458.627373213,2096.36227888 -458.678097854,2050.51863029 -474.430812165,2051.4130574 -485.486361537,2048.45884446 " moovel_rot="73.3" moovel_centroid="-474.244417295,2072.74997531" moovel_centroidlatlon="13.582949979011454,52.50478185171292"/>
  <polygon id="24597018" class="tile" points="-497.698665209,2049.27641829 -497.698323113,2069.87319899 -512.234132844,2069.39567784 -511.356291414,2048.45884446 -497.698665209,2049.27641829 " moovel_rot="74.6" moovel_centroid="-504.770607072,2059.35687093" moovel_centroidlatlon="13.325883222143021,52.569409877517266"/>
  <polygon id="365489672" class="tile" points="-513.234132844,2094.43508179 -513.235558513,2065.47764871 -521.498526499,2065.47529606 -521.502360514,2048.4632587 -528.548983326,2048.45884446 -528.543718936,2094.42831471 -513.234132844,2094.43508179 " moovel_rot="-87.7" moovel_centroid="-521.770115835,2075.06018921" moovel_centroidlatlon="13.390890674557422,52.5218819087452"/>
  <polygon id="168967379" class="tile" points="-529.809847957,2068.35411985 -529.672251749,2053.1787836 -529.548983326,2048.59665123 -532.874429625,2048.56905934 -546.263701672,2048.45884446 -546.202798751,2058.28381139 -546.247517928,2070.26633768 -538.601226299,2070.31310498 -529.809847957,2068.35411985 " moovel_rot="-89.9" moovel_centroid="-538.108478016,2059.13548448" moovel_centroidlatlon="13.374089337321163,52.4775061828736"/>
  <polygon id="294263899" class="tile" points="-547.27337045,2048.45884446 -547.263701672,2069.43992668 -554.103020157,2069.48667664 -554.112688935,2048.50559447 -547.27337045,2048.45884446 " moovel_rot="0.3" moovel_centroid="-550.688195302,2058.97276056" moovel_centroidlatlon="13.37835535,52.47807065"/>
  <polygon id="312515451" class="tile" points="-569.49072431,2048.45884446 -577.789199969,2060.65591286 -574.224990385,2078.18984293 -565.807709579,2085.27170284 -555.112688935,2073.38746497 -562.086242018,2067.48719234 -555.115586822,2058.14899945 -569.49072431,2048.45884446 " moovel_rot="30.6" moovel_centroid="-567.015638132,2066.60795971" moovel_centroidlatlon="13.329208524086871,52.521624127347835"/>
  <polygon id="213963124" class="tile" points="-585.027974527,2048.47691023 -584.995663305,2141.01848532 -578.789199969,2141.00613581 -578.818055983,2048.45884446 -585.027974527,2048.47691023 " moovel_rot="59.3" moovel_centroid="-581.907692957,2094.73579935" moovel_centroidlatlon="13.415831670201246,52.41373841956952"/>
  <polygon id="241084906" class="tile" points="-0.0225558187813,2354.5196079 0.0,2279.0263875 -52.9648422617,2282.20125394 -53.391167669,2293.73192507 -44.06581812,2295.30058929 -43.422440768,2346.62965104 -37.8489937155,2344.91717064 -20.6436069857,2365.3459018 -0.0225558187813,2354.5196079 " moovel_rot="27.7" moovel_centroid="-22.005277857061625,2317.40592129" moovel_centroidlatlon="13.291889808380736,52.58161137976923"/>
  <polygon id="136886304" class="tile" points="-71.8996894298,2279.08689777 -71.9252060039,2297.10737387 -62.5927209809,2296.83837976 -55.391167669,2296.6430577 -55.700420443,2279.0263875 -71.8996894298,2279.08689777 " moovel_rot="69.9" moovel_centroid="-63.7594600339,2287.99534012" moovel_centroidlatlon="13.499177469634114,52.628854267472796"/>
  <polygon id="236535507" class="tile" points="-72.9419962929,2279.0263875 -73.1856544744,2295.81255316 -72.9252060039,2315.37751496 -90.9211409254,2315.37957234 -90.9379312485,2279.02844705 -72.9419962929,2279.0263875 " moovel_rot="-0.9" moovel_centroid="-81.9942725385,2297.20624554" moovel_centroidlatlon="13.518062037913744,52.52636801119381"/>
  <polygon id="183383759" class="tile" points="-91.9888476535,2353.66429857 -117.069294769,2309.1122716 -91.9379312485,2286.924261 -98.1839876348,2279.0263875 -121.903639168,2296.30433447 -135.088115397,2304.88125606 -102.877307944,2358.85668464 -91.9888476535,2353.66429857 " moovel_rot="-59.9" moovel_centroid="-111.979567959,2317.25134714" moovel_centroidlatlon="13.270114257686082,52.44679354119539"/>
  <polygon id="243689164" class="tile" points="-136.088115397,2313.76886585 -144.134451596,2313.55074276 -151.604130988,2313.33925837 -151.96962478,2279.46423354 -144.172001229,2279.25191906 -136.088366063,2279.0263875 -136.088115397,2313.76886585 " moovel_rot="-82.0" moovel_centroid="-143.904841125,2296.33414525" moovel_centroidlatlon="13.285446278518204,52.57670282871519"/>
  <polygon id="357279445" class="tile" points="-160.78089567,2279.03240495 -152.97503285,2279.0263875 -152.96962478,2310.59422964 -160.775474481,2310.60025085 -160.78089567,2279.03240495 " moovel_rot="74.0" moovel_centroid="-156.875257024,2294.81331381" moovel_centroidlatlon="13.317233499999999,52.5285504"/>
  <polygon id="98885716" class="tile" points="-161.788194048,2296.41572129 -172.02431516,2296.40037126 -172.017017005,2279.0263875 -161.78089567,2279.04173469 -161.788194048,2296.41572129 " moovel_rot="-4.5" moovel_centroid="-166.902605332,2287.72105365" moovel_centroidlatlon="13.29621625,52.48992935000001"/>
  <polygon id="435986956" class="tile" points="-173.074787331,2353.07196153 -185.217565419,2353.04965335 -185.169232327,2279.0263875 -173.02431516,2279.0550233 -173.074787331,2353.07196153 " moovel_rot="-71.8" moovel_centroid="-179.121560781,2316.04966757" moovel_centroidlatlon="13.225841340506262,52.43172975228793"/>
  <polygon id="310363645" class="tile" points="-206.739383389,2279.38067955 -186.373286792,2279.0263875 -186.222668408,2289.5705648 -186.217565419,2306.77181525 -207.567954205,2307.47801045 -207.636501015,2303.09754817 -206.378014945,2303.07802193 -206.510560612,2294.02604922 -206.739383389,2279.38067955 " moovel_rot="54.8" moovel_centroid="-196.50766923,2293.2374558" moovel_centroidlatlon="13.341078424296418,52.46902641856467"/>
  <polygon id="396521208" class="tile" points="-208.886639402,2279.0263875 -208.636501015,2287.98691788 -214.771362939,2290.63856215 -214.770464044,2281.74057861 -208.886639402,2279.0263875 " moovel_rot="-31.2" moovel_centroid="-211.756079412,2284.87455094" moovel_centroidlatlon="13.33010808979327,52.466565366335224"/>
  <polygon id="100146255" class="tile" points="-215.776039756,2293.99037511 -237.770305723,2279.0263875 -264.10777969,2313.87486364 -260.820684128,2316.83856569 -237.786548268,2339.21901375 -234.479855717,2336.4984954 -220.911227978,2347.59595998 -215.771362939,2343.06489885 -237.316349269,2323.59551336 -215.776039756,2293.99037511 " moovel_rot="-27.7" moovel_centroid="-238.748024404,2310.25607204" moovel_centroidlatlon="13.364650515003925,52.56487618269835"/>
  <polygon id="51005750" class="tile" points="-265.152748123,2311.15188128 -288.363876345,2311.11447351 -288.466653111,2317.26110619 -294.972907716,2317.22363515 -295.095919607,2279.30279903 -265.10777969,2279.0263875 -265.152748123,2311.15188128 " moovel_rot="-87.8" moovel_centroid="-280.532381175,2295.9023352" moovel_centroidlatlon="13.443406985961792,52.41999138035683"/>
  <polygon id="30877006" class="tile" points="-332.534708461,2412.87294525 -380.117288269,2317.84661457 -296.142321467,2279.0263875 -296.095919607,2394.56678449 -332.534708461,2412.87294525 " moovel_rot="-29.1" moovel_centroid="-327.863431422,2344.25327301" moovel_centroidlatlon="13.289668535187255,52.45415209552649"/>
  <polygon id="385207027" class="tile" points="-393.264030819,2290.55077396 -393.812825916,2327.79930731 -389.888487048,2327.84737944 -390.588359752,2329.53089703 -391.97825329,2330.30755175 -393.123766154,2330.54132092 -394.189396615,2330.76383514 -397.137716393,2330.49946074 -397.831999773,2330.26747199 -398.459097255,2329.59635057 -398.970510055,2329.08299536 -398.866494747,2339.26307339 -398.044353505,2338.03413766 -396.880292928,2337.33602418 -396.029650119,2336.81399217 -392.56157206,2336.9565798 -381.117288269,2337.02067507 -381.133861098,2306.50570611 -381.238977724,2281.97088458 -392.858444009,2281.9589232 -394.250228515,2282.07256042 -395.310082745,2281.6886935 -397.010852638,2280.58892674 -398.138524495,2279.0263875 -398.811364435,2289.58618975 -398.147031603,2288.75693559 -397.127836675,2287.88592992 -395.870145312,2287.50718348 -391.782412612,2287.40673323 -390.666288657,2288.01536954 -389.786809116,2288.93768381 -389.386556565,2289.64168301 -389.342754869,2290.60478156 -393.264030819,2290.55077396 " moovel_rot="62.6" moovel_centroid="-388.103671085,2309.80684004" moovel_centroidlatlon="13.55168240251797,52.549972809593484"/>
  <polygon id="93399657" class="tile" points="-399.970510055,2318.22287726 -425.899300788,2317.58796269 -424.987880543,2295.78796211 -424.95353216,2295.0559351 -425.323574778,2280.35828073 -425.381843474,2279.0263875 -400.034751463,2279.39067124 -399.970510055,2318.22287726 " moovel_rot="-26.9" moovel_centroid="-412.646332598,2298.65116745" moovel_centroidlatlon="13.417087021750989,52.5492184570316"/>
  <polygon id="33878494" class="tile" points="-465.103435806,2384.2062319 -465.059730082,2279.0263875 -458.044514659,2279.03082726 -450.524976536,2279.02894952 -450.343557548,2325.69670927 -450.743600375,2344.14078767 -433.353086713,2344.51721724 -433.474139693,2350.04641834 -426.899300788,2350.19166494 -426.957891656,2384.21785279 -465.103435806,2384.2062319 " moovel_rot="-90.8" moovel_centroid="-450.858361301,2343.95244078" moovel_centroidlatlon="13.41149119614936,52.56354852872599"/>
  <polygon id="267160628" class="tile" points="-466.103435806,2311.71207184 -466.435279976,2317.41250858 -475.183768411,2317.07125963 -483.373338461,2316.75869867 -483.338385075,2279.0263875 -475.662003762,2279.45371352 -467.646884822,2279.89894772 -466.103435806,2311.71207184 " moovel_rot="-51.0" moovel_centroid="-475.073072446,2298.58307327" moovel_centroidlatlon="13.325302573768642,52.543336089836394"/>
  <polygon id="275748782" class="tile" points="-501.401798557,2279.0263875 -532.346574285,2281.08418676 -531.096254902,2303.79011026 -526.541377584,2303.62724691 -526.904238067,2307.78158416 -517.775694876,2307.48937807 -531.347990833,2323.922188 -528.151731991,2327.16339383 -532.324537568,2333.41511083 -523.491392219,2340.2178573 -531.980079657,2351.83680673 -518.105827477,2362.79349561 -484.373338461,2317.24991153 -489.765575047,2313.56525639 -506.247811901,2301.02249093 -504.404772281,2298.58723426 -506.960479292,2296.63988608 -500.593191069,2288.26501788 -501.401798557,2279.0263875 " moovel_rot="60.7" moovel_centroid="-513.324854233,2317.59017433" moovel_centroidlatlon="13.5371670707949,52.457762290552935"/>
  <polygon id="224654576" class="tile" points="-573.506016524,2279.0955927 -573.560270814,2346.28914379 -533.401012835,2346.21972959 -533.346574285,2279.0263875 -573.506016524,2279.0955927 " moovel_rot="41.4" moovel_centroid="-553.453479019,2312.6576877" moovel_centroidlatlon="13.5180427,52.44335615"/>
  <polygon id="180016904" class="tile" points="-0.00449589975178,2412.87294525 0.0,2451.07159889 -25.5357042259,2451.81927688 -29.0034170019,2450.863538 -34.7334068824,2422.39015791 -39.1384294683,2419.49975997 -35.8662098955,2413.36246227 -0.00449589975178,2412.87294525 " moovel_rot="23.0" moovel_centroid="-16.675209111052858,2431.37564838" moovel_centroidlatlon="13.472632391878374,52.54020758355987"/>
  <polygon id="185230168" class="tile" points="-46.7694527604,2412.87294525 -41.1655370761,2412.87925438 -41.1384294683,2453.96266977 -46.7491005163,2453.96725118 -46.7694527604,2412.87294525 " moovel_rot="-0.4" moovel_centroid="-43.9557514328,2433.4246591" moovel_centroidlatlon="13.385374826387196,52.473432387243584"/>
  <polygon id="280454606" class="tile" points="-47.7694527604,2470.29497186 -48.0577836642,2460.5998287 -50.3626495605,2434.57712165 -51.3972797412,2426.44376898 -56.4771472033,2426.82060895 -60.7294364562,2418.11880749 -63.0183810588,2418.13655722 -65.1720480837,2413.27692617 -71.1714925652,2412.87294525 -71.5525130047,2419.5689709 -68.2391346686,2419.74318291 -68.8536395425,2427.10041712 -66.2694372509,2427.32734209 -66.5622193929,2430.71727672 -67.3090459004,2430.6505665 -69.5012009684,2456.16007655 -70.3465691429,2463.53880323 -71.6365436476,2471.4030432 -47.7694527604,2470.29497186 " moovel_rot="-76.4" moovel_centroid="-59.8722215615,2446.54393196" moovel_centroidlatlon="13.39331453611183,52.42692645169049"/>
  <polygon id="270587226" class="tile" points="-72.6648803934,2412.87294525 -91.8342855286,2412.89464429 -91.8059486816,2446.68105714 -72.6365436476,2446.65935448 -72.6583893672,2415.73665108 -72.6648803934,2412.87294525 " moovel_rot="1.6" moovel_centroid="-82.2343928096,2429.77650038" moovel_centroidlatlon="13.435565984497762,52.42857910431191"/>
  <polygon id="126930959" class="tile" points="-104.140998035,2421.56472473 -104.109981507,2469.5160534 -100.302501859,2473.01908219 -99.8362182493,2473.85150935 -102.014938505,2479.13494425 -102.258422255,2485.52848007 -98.0360522356,2484.32845777 -98.2702700286,2482.88688995 -97.9422317729,2479.3110894 -92.9202485271,2474.29964481 -92.8342855286,2421.63490315 -96.8103381124,2425.3140049 -96.9188132298,2421.85339964 -96.296945767,2419.11870304 -94.846018768,2417.56680283 -93.4700400616,2417.72205359 -97.8939913134,2412.87294525 -97.6936661292,2414.19758773 -98.231174478,2416.3093965 -99.6649922709,2420.8731213 -100.00854291,2425.09802017 -104.140998035,2421.56472473 " moovel_rot="42.2" moovel_centroid="-98.4217584344,2449.43036432" moovel_centroidlatlon="13.388401009971899,52.481524286334654"/>
  <polygon id="177430990" class="tile" points="-105.140998035,2417.05787792 -154.913966581,2412.87294525 -154.892735696,2439.1246209 -147.971100373,2452.3785083 -138.5459449,2465.72213317 -138.048204161,2482.24228313 -128.234671053,2484.23269551 -126.522045196,2522.3769293 -108.40655729,2522.75765857 -105.140998035,2417.05787792 " moovel_rot="-20.4" moovel_centroid="-125.621383942,2457.75097967" moovel_centroidlatlon="13.622970630027217,52.52951225348642"/>
</svg>