<svg xmlns="http://www.w3.org/2000/svg" version="1.1" width="592.5px" height="1200px">
  <polygon id="6" class="bin" points="1.875,0.0 -0.77665042945,1.09834957055 -1.875,3.75 -1.875,1203.749999 -0.77665042945,1206.40164943 1.875,1207.499999 229.265188998,1207.499999 231.915433443,1206.40305467 233.015186891,1203.75397467 233.052836481,1168.24149233 233.117793165,1103.55158767 234.804662334,1099.4904422 238.869057662,1097.81141843 251.78869419,1097.82339396 255.850207269,1099.51020121 257.52927352,1103.57492061 257.505708043,1127.66397754 258.601139897,1130.31637733 261.251122728,1131.41764323 268.151183783,1131.42607699 272.21135449,1133.11318882 273.890184957,1137.17679076 273.886985635,1141.09501941 274.982840107,1143.74723561 277.632989354,1144.84807924 298.121003969,1144.86990599 300.775236596,1143.77297063 301.874999,1141.11990812 301.874999,1040.18778647 301.096649377,1037.90047493 278.673002743,1008.767916 278.564436881,1008.62295752 262.691490252,986.836934154 262.66207866,986.797120768 253.897368778,975.095052341 253.662489332,974.761244501 231.363738572,940.98252462 230.523774165,935.309553408 232.165672415,929.796975706 235.118529067,925.943604126 251.981520393,915.545180809 252.19798825,915.401106001 267.823438538,904.200564335 268.064850825,904.012130859 285.574175653,889.155843889 285.611129911,889.124073705 300.588108258,876.077918382 301.874999,873.250270458 301.874999,854.282272206 300.806403022,851.660713038 298.209627017,850.533227248 268.311223924,849.858324016 264.320907637,848.120982365 262.690372205,844.085844909 262.906681606,790.622402196 262.906871169,790.592078731 263.605844232,707.940740813 262.677806325,705.439253989 260.321308278,704.18801155 259.378442959,704.070101992 258.785698896,704.043284268 242.536878626,704.595690937 238.354034172,702.986243414 236.60504834,698.85979729 236.663835421,552.148254398 237.972816958,548.482543658 241.306013567,546.472402305 255.241552659,543.646120524 259.999081157,544.839962954 261.163688179,547.359225549 262.784452455,549.084610262 265.115780765,549.495387039 267.443946522,549.151339642 270.870281463,549.522104686 285.715223571,555.148734672 288.474750844,555.108622398 290.459514428,553.190990191 290.594517,550.434475349 288.806637808,548.332074872 283.105232023,545.296579778 253.886368887,500.433773665 252.778815119,496.773558164 252.600978305,479.646372009 252.599456259,479.571604319 252.060739578,461.812539844 252.059632495,461.43606703 252.768566212,432.439624468 253.619473262,430.521316147 253.65235852,427.556688677 252.784628846,425.477183373 252.572809038,213.165463838 250.319827103,209.73097268 248.233096419,208.822404203 246.596309784,204.8052882 246.552328668,57.5663823061 248.135759832,53.5985477855 252.01701538,51.8133810115 275.813086172,50.5964962795 278.355669229,49.4179430257 279.371294072,46.8060045596 279.2867795,39.8234468757 280.824147437,35.836292287 284.68575222,34.0062894494 296.629294299,33.2596737702 296.773599524,33.2521744885 298.280250082,33.1897451963 300.830982329,32.0391409932 301.874999,29.4429602944 301.874999,23.5432091579 300.560988158,20.6921642932 277.395315547,0.898955135282 274.959326389,0.0 1.875,0.0 " moovel_rot="0" moovel_centroid="128.98753517563355,609.1027178223248" moovel_centroidlatlon="0,0"/>
  <polygon id="120819398" class="tile" points="-20.2633764891,1306.01673658 -38.8475064462,1304.18615993 -38.1504772261,1296.76402193 -37.4643842567,1257.49995021 -63.118580809,1257.60411074 -62.9388953909,1253.16718658 -63.1231591208,1243.88041513 -61.1907773783,1243.84681099 -61.188377763,1208.04226992 -56.3990610283,1208.11838023 -56.6438546965,1201.4504635 -44.1727799796,1201.55048311 -44.1287167259,1207.06170943 -35.1061437616,1206.88051728 -34.7568383181,1201.02016951 -13.4622444965,1201.0 -13.5027776234,1206.53421066 -8.05072311014,1206.37488868 -7.19079643097,1235.99282218 -12.0034460936,1236.16529682 -12.1455757352,1240.23903097 -6.2497739641,1240.16678456 -6.20894663632,1243.28411998 -6.0732979415,1248.7981483 -1.04068508409,1248.76662871 -1.0,1254.18187465 -25.7847129853,1254.60350579 -25.3737925768,1287.45801696 -20.4521296876,1287.3943501 -20.2633764891,1306.01673658 " moovel_rot="-74.8" moovel_centroid="-33.74700128544608,1240.4866836722695" moovel_centroidlatlon="13.37002011742982,52.54923685221417"/>
  <polygon id="291847412" class="tile" points="-64.1510028864,1201.03622893 -79.3093878001,1201.0 -79.3054648945,1223.66923777 -89.6789381998,1223.64581871 -89.6765286244,1237.91790707 -73.9030597555,1237.94470273 -73.9001845855,1258.14689783 -64.1231591208,1258.16655997 -64.1510028864,1201.03622893 " moovel_rot="-37.7" moovel_centroid="-73.220538554,1227.5642182351914" moovel_centroidlatlon="13.372414755634281,52.57062033140569"/>
  <polygon id="87803058" class="tile" points="-121.490942314,1201.5367932 -96.3487762291,1201.50275123 -90.6789381998,1201.0 -90.7611076137,1265.74760591 -120.078952973,1266.8777829 -121.490942314,1201.5367932 " moovel_rot="-85.0" moovel_centroid="-105.78905615,1233.6257139739598" moovel_centroidlatlon="13.357471206094917,52.59154352380159"/>
  <polygon id="229236503" class="tile" points="-122.490942314,1206.60872209 -122.491146452,1227.61357284 -141.013031356,1229.50401963 -141.321810482,1227.96659039 -141.763017937,1222.63405828 -141.749144585,1216.38979379 -141.102898944,1210.12292529 -139.925633666,1203.82205895 -138.961216813,1201.0 -122.490942314,1206.60872209 " moovel_rot="68.4" moovel_centroid="-132.311572898,1216.2543889253172" moovel_centroidlatlon="13.311182899654835,52.46907592262397"/>
  <polygon id="423204294" class="tile" points="-159.562669652,1201.13861767 -159.623698854,1290.0036692 -142.783812547,1289.77296427 -142.763017937,1201.0 -159.562669652,1201.13861767 " moovel_rot="-12.1" moovel_centroid="-151.184754154,1245.4965154241618" moovel_centroidlatlon="13.592579540729387,52.51906291407005"/>
  <polygon id="266151508" class="tile" points="-160.626829632,1229.19612778 -188.479003172,1229.18697378 -188.486753762,1201.0 -184.072823316,1201.0011681 -160.623698854,1201.00777936 -160.626829632,1229.19612778 " moovel_rot="-82.8" moovel_centroid="-174.553961565,1215.0967866603266" moovel_centroidlatlon="13.298595263641268,52.51226222705962"/>
  <polygon id="279371930" class="tile" points="-192.801836179,1201.0 -192.269239109,1208.53176935 -191.25711842,1222.90677532 -189.486753762,1247.89393251 -208.824312941,1248.70578141 -208.364069104,1241.08373311 -206.185552039,1240.97413551 -208.719653785,1208.17505505 -204.579016331,1208.03179358 -204.698201209,1201.91161903 -192.801836179,1201.0 " moovel_rot="44.8" moovel_centroid="-199.214106738,1226.0893550461285" moovel_centroidlatlon="13.354189407740078,52.550612759819444"/>
  <polygon id="58421725" class="tile" points="-227.925387506,1205.94359023 -225.16417646,1201.0 -219.40908616,1204.58453132 -214.495013136,1209.31761257 -210.818491961,1214.32728588 -209.824312941,1219.61419806 -210.397842123,1225.9738743 -211.425466884,1230.45113477 -223.213702021,1250.85613341 -227.905075339,1248.05859925 -215.622393711,1225.45480517 -215.336707502,1219.74762782 -217.107566032,1214.86907412 -221.520113594,1209.95005783 -227.925387506,1205.94359023 " moovel_rot="-34.6" moovel_centroid="-217.966809123,1225.2188565586177" moovel_centroidlatlon="13.321980698144547,52.50623521177825"/>
  <polygon id="164634308" class="tile" points="-228.932794914,1201.0 -241.022357105,1201.01290143 -241.014943757,1244.4170794 -228.925387506,1244.4041536 -228.932794914,1201.0 " moovel_rot="13.7" moovel_centroid="-234.973871387,1222.7085318312834" moovel_centroidlatlon="13.12912965,52.411464"/>
  <polygon id="257176879" class="tile" points="-242.048057297,1238.50208913 -245.975399842,1238.49257054 -245.946919271,1201.0 -242.022357105,1201.00344562 -242.048057297,1238.50208913 " moovel_rot="-65.3" moovel_centroid="-243.998132031,1219.7517427834264" moovel_centroidlatlon="13.425621344415552,52.58735449194703"/>
  <polygon id="381816883" class="tile" points="-258.121753535,1224.67734078 -264.95116486,1205.50332885 -253.154693163,1201.48538688 -246.978239493,1201.0 -246.975399842,1222.25401648 -246.975875064,1224.61919929 -258.121753535,1224.67734078 " moovel_rot="77.7" moovel_centroid="-254.237216993,1212.719685273537" moovel_centroidlatlon="13.396230090824382,52.49565769547532"/>
  <polygon id="175020955" class="tile" points="-271.507690595,1244.08394845 -281.409364331,1243.90615544 -281.213502379,1225.58331629 -272.301913838,1225.65129904 -272.254622756,1217.59391099 -281.260674801,1211.6586852 -281.289996174,1201.13034152 -266.000943465,1201.0 -265.95116486,1244.11246471 -271.507690595,1244.08394845 " moovel_rot="74.8" moovel_centroid="-272.993982485,1223.041621445929" moovel_centroidlatlon="13.29899081180647,52.46679826342198"/>
  <polygon id="197576016" class="tile" points="-282.409364331,1201.0 -314.465316093,1208.60297508 -321.224233432,1210.08681679 -321.153382642,1389.01179087 -282.526797045,1380.36368922 -282.459754263,1267.14783105 -282.409364331,1201.0 " moovel_rot="73.4" moovel_centroid="-301.821921456,1295.0668722092933" moovel_centroidlatlon="13.441335500430007,52.50724574473384"/>
  <polygon id="219959902" class="tile" points="-322.260706559,1219.78427747 -322.224233432,1201.45728438 -328.715506915,1201.0 -328.696532852,1220.2114186 -322.260706559,1219.78427747 " moovel_rot="48.7" moovel_centroid="-325.499615696,1210.5996686389262" moovel_centroidlatlon="13.21388349801799,52.60725833038354"/>
  <polygon id="254871720" class="tile" points="-329.761611466,1201.00195987 -337.789715159,1201.0 -337.743646812,1332.34790888 -329.715506915,1332.34318968 -329.761611466,1201.00195987 " moovel_rot="-90.3" moovel_centroid="-333.75265409,1266.6733171713686" moovel_centroidlatlon="13.270073374235556,52.53137379969198"/>
  <polygon id="137311039" class="tile" points="-338.789715159,1201.0 -343.900101263,1201.01268924 -343.912904553,1291.65658719 -338.798223566,1291.65391866 -338.789715159,1201.0 " moovel_rot="23.2" moovel_centroid="-341.350189754,1246.3371463918484" moovel_centroidlatlon="13.57233593691827,52.47134792131796"/>
  <polygon id="96681170" class="tile" points="-362.845371855,1201.0 -344.912904553,1202.13983521 -346.033642307,1241.14960086 -362.787648264,1240.54584028 -362.845371855,1201.0 " moovel_rot="-58.3" moovel_centroid="-354.159399443,1220.9843123915816" moovel_centroidlatlon="13.318857798850038,52.41272451700348"/>
  <polygon id="268629258" class="tile" points="-376.646275959,1201.0 -372.248820769,1204.34247507 -367.217263592,1210.98121173 -363.845371855,1212.94508812 -363.856935159,1257.68892628 -371.692381899,1256.62377586 -371.248478294,1242.33486395 -377.916524537,1240.61739482 -376.646275959,1201.0 " moovel_rot="64.2" moovel_centroid="-370.316948072,1229.3992200132009" moovel_centroidlatlon="13.389268564167487,52.55903861941571"/>
  <polygon id="231098232" class="tile" points="-380.040718242,1201.0 -391.760129121,1201.21986081 -391.887480418,1212.86668396 -391.872695684,1226.40722546 -379.924020066,1222.28656717 -378.916524537,1216.48616895 -380.040718242,1201.0 " moovel_rot="-14.8" moovel_centroid="-385.834180807,1212.8161252830942" moovel_centroidlatlon="13.505443870605697,52.49349577726017"/>
  <polygon id="188137356" class="tile" points="-392.909572642,1233.88770385 -395.510799252,1232.01752768 -396.640145691,1227.22767093 -397.444715444,1218.16032358 -396.867485586,1210.11075789 -395.63585483,1203.44482364 -392.887480418,1201.0 -393.008209058,1204.14315651 -394.528731665,1209.48656382 -395.495164996,1214.92801092 -395.110997764,1222.25835837 -393.222482654,1231.26889855 -392.909572642,1233.88770385 " moovel_rot="-87.0" moovel_centroid="-395.403957951,1217.5281867173176" moovel_centroidlatlon="13.32204355224227,52.57802228955485"/>
  <polygon id="46115664" class="tile" points="-398.484805824,1201.69445218 -398.444715444,1237.66945005 -427.683336084,1237.16595952 -427.36210002,1201.0 -398.484805824,1201.69445218 " moovel_rot="84.1" moovel_centroid="-413.007203337,1219.4194879981308" moovel_centroidlatlon="13.44514742211671,52.567967162458324"/>
  <polygon id="401848536" class="tile" points="-440.852738933,1258.97322387 -428.701369743,1258.98073184 -428.683336084,1201.00671187 -440.828073697,1201.0 -440.852738933,1258.97322387 " moovel_rot="-6.7" moovel_centroid="-434.766366752,1229.9928043187847" moovel_centroidlatlon="13.275149820204737,52.4513838760459"/>
  <polygon id="40988438" class="tile" points="-441.960106738,1304.07349288 -441.852738933,1208.56799 -459.413744729,1209.80671816 -460.174522809,1201.0 -475.550456901,1202.14058875 -476.658877611,1215.78313768 -469.809140088,1216.03629473 -470.79661478,1248.78942844 -472.496079924,1248.81835204 -473.605366766,1279.68424557 -473.746397696,1288.15569215 -471.386557475,1286.56420917 -468.923803244,1285.36080562 -460.114492726,1284.92131114 -458.197251081,1283.99506022 -456.553657459,1282.24993655 -455.040674876,1295.99139035 -441.960106738,1304.07349288 " moovel_rot="-32.2" moovel_centroid="-456.937188106,1249.0573077524527" moovel_centroidlatlon="13.375481775506431,52.49092202177395"/>
  <polygon id="78391425" class="tile" points="-484.165476693,1201.0 -493.997363687,1202.21831709 -498.082812626,1202.51004293 -491.230919783,1259.27836679 -516.671857357,1262.35470723 -516.759020719,1261.57068152 -541.140527815,1264.24857869 -547.826545232,1267.94505888 -544.965646523,1291.97677349 -534.343623947,1291.62362915 -513.136603706,1289.26583678 -513.671605771,1286.75777339 -508.470418147,1286.05472957 -506.995833638,1295.63034238 -491.748384481,1294.43001178 -491.02730616,1296.39075923 -480.249215935,1294.70618569 -477.661365375,1272.7093075 -477.658877611,1262.14541387 -485.091723526,1208.37727413 -483.22985495,1208.1778056 -483.38431885,1206.90441445 -483.788973869,1203.95542725 -484.165476693,1201.0 " moovel_rot="35.2" moovel_centroid="-504.485857511,1264.7545274927936" moovel_centroidlatlon="13.429426025258044,52.58908576592064"/>
  <polygon id="60000639" class="tile" points="-62.2532819789,1624.76990502 -54.5204198822,1544.03009559 -41.6787087092,1545.16274258 -32.159693573,1488.07185364 -13.276764898,1488.01603036 -0.312590753473,1392.33772786 -40.4353115352,1389.01179087 -47.4254775831,1454.3382997 -54.7074278545,1484.10136984 -95.7368084393,1555.17212585 -128.897068631,1595.19130806 -36.1192032812,1667.39803791 -3.33107128087,1671.31568186 0.0,1629.52005014 -62.2532819789,1624.76990502 " moovel_rot="65.5" moovel_centroid="-51.93524329437354,1541.44200949" moovel_centroidlatlon="13.159025393548697,52.52478601570367"/>
  <polygon id="338316774" class="tile" points="-133.407856041,1453.90438481 -138.800203903,1443.98272972 -144.162877296,1428.14595599 -145.295016943,1412.26077341 -144.400140654,1403.19456966 -131.534744496,1403.53036113 -130.897068631,1390.32990872 -156.237165226,1389.01179087 -156.232199973,1399.2130755 -155.916295885,1406.6048137 -155.386013395,1414.58924703 -153.232751176,1427.04719507 -149.761347605,1437.70516982 -142.776430316,1453.84079036 -139.988909028,1458.54375177 -133.407856041,1453.90438481 " moovel_rot="-3.2" moovel_centroid="-145.51047967,1415.53038311" moovel_centroidlatlon="13.366517488165131,52.48204304854027"/>
  <polygon id="328585505" class="tile" points="-172.623020754,1389.97865115 -172.637976699,1389.01590679 -158.650701716,1389.01179087 -158.64861949,1401.41572113 -157.239419913,1401.43293861 -157.237165226,1405.07537655 -162.828014565,1405.07269703 -162.828818703,1405.68522441 -166.903476108,1405.69013142 -166.900023592,1410.32795269 -169.625322216,1410.32746968 -169.627302487,1405.02243842 -171.517633617,1405.02121885 -171.222894338,1418.07403292 -172.919811252,1418.09705268 -174.489432553,1418.08881331 -174.49685536,1405.02857164 -174.484533194,1397.45950615 -174.473279859,1389.97792125 -172.623020754,1389.97865115 " moovel_rot="-0.7" moovel_centroid="-167.269839319,1399.62638237" moovel_centroidlatlon="13.326730893915652,52.47183699553761"/>
  <polygon id="79990125" class="tile" points="-192.053738172,1389.43997451 -192.949934778,1427.20654568 -189.273873872,1440.02384155 -181.928391255,1448.28067734 -175.49685536,1450.69569771 -175.512286243,1436.7005008 -175.555508376,1389.01179087 -192.053738172,1389.43997451 " moovel_rot="66.8" moovel_centroid="-183.524597659,1417.20990264" moovel_centroidlatlon="13.277590842986358,52.5045565309457"/>
  <polygon id="300129439" class="tile" points="-199.854507443,1389.01179087 -199.861987161,1430.86700284 -193.950743422,1430.871082 -193.949934778,1389.01554127 -199.854507443,1389.01179087 " moovel_rot="-2.8" moovel_centroid="-196.904289776,1409.94529278" moovel_centroidlatlon="13.499199972068622,52.52080686407419"/>
  <polygon id="309956829" class="tile" points="-200.882862681,1411.10756076 -207.081300366,1411.63407142 -207.234369807,1401.13270267 -207.401198296,1389.615296 -200.861987161,1389.01179087 -200.882862681,1411.10756076 " moovel_rot="-13.3" moovel_centroid="-204.056504805,1400.24365957" moovel_centroidlatlon="13.325582859480392,52.526704076203835"/>
  <polygon id="385207111" class="tile" points="-208.401198296,1389.01179087 -212.793443475,1389.11986482 -212.839475392,1444.68970795 -208.437811063,1444.72960683 -208.401198296,1389.01179087 " moovel_rot="62.5" moovel_centroid="-210.617014636,1416.89778435" moovel_centroidlatlon="13.552705751927267,52.551974924770015"/>
  <polygon id="95812481" class="tile" points="-214.309819212,1422.07057087 -213.839475392,1422.08020021 -213.959748386,1435.95684749 -214.057465163,1448.02906664 -278.207464894,1449.13126322 -277.987890165,1479.78922437 -287.458884655,1480.01479222 -287.519750842,1451.93245996 -287.552246689,1389.01813532 -280.70880066,1389.01179087 -280.941863885,1421.76075467 -271.439398513,1421.56347462 -214.309819212,1422.07057087 " moovel_rot="-92.8" moovel_centroid="-257.725458406,1435.98021554" moovel_centroidlatlon="13.36932484134724,52.46643089041216"/>
  <polygon id="213278659" class="tile" points="-313.697612455,1389.01467624 -313.729370121,1448.68510771 -288.561839044,1448.67244175 -288.552246689,1432.07280443 -301.113462732,1432.07088918 -301.096532577,1390.29114638 -301.096609967,1389.01179087 -313.697612455,1389.01467624 " moovel_rot="6.9" moovel_centroid="-304.681508239,1423.52262347" moovel_centroidlatlon="13.344065457893949,52.518582021780276"/>
  <polygon id="27569506" class="tile" points="-314.872003067,1389.01179087 -346.546067257,1389.28733636 -346.617188107,1446.89090966 -314.729370121,1446.78599746 -314.872003067,1389.01179087 " moovel_rot="52.8" moovel_centroid="-330.683244876,1418.02627912" moovel_centroidlatlon="13.263798438439945,52.49995728898361"/>
  <polygon id="28856709" class="tile" points="-365.375099425,1420.85052361 -356.775127507,1421.68607529 -350.713349254,1422.27012865 -349.900656053,1414.52113936 -347.617188107,1391.30436068 -354.307963079,1391.0678922 -365.378443467,1389.01179087 -365.375099425,1420.85052361 " moovel_rot="67.6" moovel_centroid="-357.275747792,1405.52115155" moovel_centroidlatlon="13.279717897673095,52.5341428660202"/>
  <polygon id="76903165" class="tile" points="-366.418229825,1449.69582145 -376.642065114,1449.67486926 -376.602318893,1389.01179087 -366.378443467,1389.03272789 -366.418229825,1449.69582145 " moovel_rot="-69.3" moovel_centroid="-371.510264097,1419.35378253" moovel_centroidlatlon="13.314742999999995,52.55913700000001"/>
  <polygon id="387407638" class="tile" points="-404.795596699,1482.53463118 -404.857777157,1475.20561446 -428.938896526,1474.11410167 -428.093200907,1451.66634639 -424.555498715,1451.82365605 -424.064046318,1440.61957878 -425.540642152,1440.55546621 -424.886365379,1425.53144433 -424.377856552,1414.00086231 -422.872929878,1414.07050741 -422.710470982,1410.31749132 -424.235053606,1410.25173792 -424.088092808,1406.93625826 -429.464505302,1406.70854428 -429.213113717,1401.06634361 -425.848067663,1401.2801296 -425.651475443,1396.87420734 -429.025932659,1396.78482735 -428.800653557,1391.52655653 -428.686812264,1389.07542621 -425.383505957,1389.01179087 -397.456720836,1390.199746 -394.132740824,1390.343682 -388.865404546,1390.57071553 -377.655414107,1391.20299325 -377.779534618,1427.23286094 -385.296596835,1427.09480842 -390.93028888,1426.84006301 -397.19029464,1426.62020892 -400.747653391,1426.4667879 -400.920263093,1430.47802319 -408.054636313,1430.17507403 -408.493960036,1440.23254641 -414.160411453,1439.98428993 -414.711647441,1452.5370221 -398.360019066,1453.24293069 -397.646501852,1436.97067231 -397.606831089,1436.10502206 -391.339353058,1436.15629086 -391.399688042,1437.60532255 -385.778916326,1437.82920269 -385.716827008,1436.45780538 -377.670161191,1436.69151386 -377.642065114,1483.49679766 -404.795596699,1482.53463118 " moovel_rot="11.2" moovel_centroid="-402.016283886,1434.50545105" moovel_centroidlatlon="13.253598709214586,52.43447989367143"/>
  <polygon id="395574464" class="tile" points="-430.471636919,1442.75602052 -430.464505302,1436.62084867 -455.968467645,1436.59005453 -455.961324841,1434.28272324 -455.926147334,1399.9428981 -431.512236054,1399.98077521 -431.508914873,1393.93287669 -443.020944853,1393.92240633 -443.015237359,1389.04484322 -470.82560985,1389.01179087 -470.891225765,1447.32359858 -430.473053141,1447.38217347 -430.471636919,1442.75602052 " moovel_rot="-2.5" moovel_centroid="-456.522347464,1419.44799578" moovel_centroidlatlon="13.303649879556449,52.427591416456806"/>
  <polygon id="100129147" class="tile" points="-486.954173296,1451.84710066 -486.990111279,1410.50205935 -487.011782337,1389.01179087 -471.935992979,1389.03454961 -471.891225765,1451.87100511 -474.115331344,1451.8721261 -486.954173296,1451.84710066 " moovel_rot="-53.7" moovel_centroid="-479.447715325,1420.43802806" moovel_centroidlatlon="13.291837756683302,52.45745239584135"/>
  <polygon id="177128148" class="tile" points="-488.059893235,1390.29299096 -494.745433181,1389.01179087 -534.167090073,1418.12205736 -529.175594829,1426.3729346 -515.404541119,1427.86668779 -515.217043477,1443.74061646 -504.774749189,1444.27639075 -505.163730611,1468.42199681 -488.011782337,1468.73152933 -488.059893235,1390.29299096 " moovel_rot="84.5" moovel_centroid="-502.945711583,1426.679434" moovel_centroidlatlon="13.59689562833237,52.51926907555524"/>
  <polygon id="312107352" class="tile" points="-535.179869676,1389.82292582 -551.017124798,1389.01179087 -551.803603346,1470.51349019 -535.167090073,1470.78110896 -535.179869676,1389.82292582 " moovel_rot="-20.3" moovel_centroid="-543.302997757,1430.36409287" moovel_centroidlatlon="13.270817882205765,52.451839418542235"/>
  <polygon id="240267190" class="tile" points="-553.235683514,1389.01179087 -569.489032641,1389.19110914 -569.527539133,1434.65060802 -552.803603346,1434.5629126 -553.140225922,1409.9672754 -553.235683514,1389.01179087 " moovel_rot="23.7" moovel_centroid="-561.286414437,1411.9646726" moovel_centroidlatlon="13.288743298229809,52.41882743078853"/>
  <polygon id="109074538" class="tile" points="-32.0484754264,1671.31568186 0.0,1673.01019805 -0.908886360191,1702.46392397 -9.89918554402,1702.20887947 -10.0503380125,1696.44757039 -21.1573235204,1695.6965769 -21.7553120686,1710.08933305 -28.8630786336,1709.66929072 -32.0408625444,1704.45926752 -32.0484754264,1671.31568186 " moovel_rot="-7.7" moovel_centroid="-17.163361959015692,1687.64320839" moovel_centroidlatlon="13.29822589727389,52.48486773716831"/>
  <polygon id="221100262" class="tile" points="-34.0516037455,1681.02625802 -34.0484754264,1671.32426473 -38.9235389275,1671.31568186 -38.9266639259,1681.01767154 -34.0516037455,1681.02625802 " moovel_rot="-42.5" moovel_centroid="-36.4875703541,1676.17096849" moovel_centroidlatlon="13.366218399999998,52.55181055"/>
  <polygon id="27474867" class="tile" points="-39.9266639259,1744.35895368 -57.1200754954,1752.36677179 -94.0034007397,1711.50257653 -54.4492419704,1671.31568186 -39.9646582042,1685.28538165 -69.7275485277,1715.69382295 -39.9266639259,1744.35895368 " moovel_rot="-29.7" moovel_centroid="-65.0968393448,1711.53716411" moovel_centroidlatlon="13.383182010702408,52.40475147022291"/>
  <polygon id="211216612" class="tile" points="-103.880258972,1671.31568186 -103.890233385,1724.42048995 -95.0133751581,1724.42417239 -95.0034007397,1671.31936503 -103.880258972,1671.31568186 " moovel_rot="0.4" moovel_centroid="-99.4468170737,1697.8699273" moovel_centroidlatlon="13.331586300000001,52.49198085"/>
  <polygon id="125691437" class="tile" points="-109.436827119,1671.31568186 -119.21818164,1671.32369476 -119.200213058,1683.72252612 -122.336262586,1683.89152463 -122.380991125,1718.99339907 -120.333775866,1722.65319453 -104.890233385,1710.80374264 -109.474504458,1705.10826145 -109.794352154,1694.34454401 -109.650766734,1682.52958272 -106.851586184,1681.0016398 -106.930901293,1673.41252313 -109.436827119,1671.31568186 " moovel_rot="-10" moovel_centroid="-115.250200783,1696.10541515" moovel_centroidlatlon="13.290322465524666,52.47616038481673"/>
  <polygon id="180016902" class="tile" points="-123.392289596,1671.31568186 -123.380991125,1691.33237647 -141.207908934,1691.33807041 -141.21252833,1671.32134046 -132.115394782,1671.31753195 -123.392289596,1671.31568186 " moovel_rot="0.3" moovel_centroid="-132.298430371,1681.32726245" moovel_centroidlatlon="13.477193125043673,52.54601134639337"/>
  <polygon id="229236035" class="tile" points="-142.21252833,1779.17832297 -142.279448844,1671.31568186 -151.764142858,1671.33723392 -165.513065617,1671.36352062 -177.248012926,1671.3843526 -187.892904782,1671.40339098 -187.825921616,1779.26627261 -177.685914163,1779.24325954 -165.059381524,1779.2271185 -151.703672828,1779.20160859 -142.21252833,1779.17832297 " moovel_rot="14.6" moovel_centroid="-165.052528373,1725.29281159" moovel_centroidlatlon="13.27417735456585,52.40739058270482"/>
  <polygon id="326746307" class="tile" points="-188.917652283,1679.53354269 -197.892511315,1671.31568186 -201.70169488,1675.59452324 -206.314756663,1671.38398192 -241.455081303,1710.75683747 -234.330669324,1717.73947304 -237.474024292,1721.42712425 -233.645298511,1725.16881776 -210.217332959,1746.86046931 -206.583846741,1742.98416049 -204.639737782,1740.9237899 -202.718664177,1738.79700283 -198.611887827,1742.70471974 -198.238572014,1743.05006457 -188.892904782,1732.7986906 -195.099467412,1726.93047877 -194.816708008,1726.61431619 -215.118339747,1707.45297162 -188.917652283,1679.53354269 " moovel_rot="-52.7" moovel_centroid="-213.951326039,1710.73454856" moovel_centroidlatlon="13.477533528776084,52.56621982620531"/>
  <polygon id="213281281" class="tile" points="-242.455081303,1697.57575764 -242.458318009,1671.31597594 -259.15153745,1671.31568186 -259.148796596,1697.5821243 -242.455081303,1697.57575764 " moovel_rot="-94.2" moovel_centroid="-250.803786138,1684.44745011" moovel_centroidlatlon="13.400672373653073,52.50520384682827"/>
  <polygon id="269005097" class="tile" points="-260.15153745,1699.02162306 -260.153641197,1697.12120319 -260.155046984,1694.49564305 -264.027745757,1694.5064262 -264.04632866,1675.77662619 -260.159419208,1675.77566204 -260.164204272,1671.31568186 -268.694717261,1671.32489039 -276.930540696,1671.33184323 -276.903662655,1699.04761 -260.15153745,1699.02162306 " moovel_rot="4.7" moovel_centroid="-269.732037049,1685.18513434" moovel_centroidlatlon="13.342196581876802,52.51907171481513"/>
  <polygon id="102698077" class="tile" points="-277.930540696,1748.56124015 -284.869684197,1748.57877211 -284.815766722,1671.35033389 -278.175041664,1671.31568186 -277.930540696,1748.56124015 " moovel_rot="63.0" moovel_centroid="-281.44727552,1710.23436642" moovel_centroidlatlon="13.311360320583152,52.51589024799628"/>
  <polygon id="98886041" class="tile" points="-285.869684197,1690.83623138 -296.441438345,1690.84156573 -296.450309038,1671.32101825 -285.878554794,1671.31568186 -285.869684197,1690.83623138 " moovel_rot="-2.7" moovel_centroid="-291.159996501,1681.07862429" moovel_centroidlatlon="13.293478499999999,52.4899882"/>
  <polygon id="391245005" class="tile" points="-297.767643121,1695.28691979 -297.648725705,1695.30159688 -297.615425376,1699.27939599 -297.725032581,1699.31570055 -297.71646182,1701.31929034 -297.597544444,1701.33396748 -297.57267468,1705.2184411 -297.676310057,1705.21672399 -297.663224696,1707.66936278 -297.544307363,1707.68403998 -297.525172363,1711.67854227 -297.618619715,1711.68546514 -297.620470088,1713.60840328 -297.501552795,1713.62308052 -297.49482961,1717.54960515 -297.574107789,1717.53982031 -297.551944941,1719.97142865 -297.570596358,1722.03809767 -302.015611293,1722.00256298 -304.482480866,1721.97862812 -307.79769486,1721.95334194 -309.832750345,1721.93656171 -333.538140843,1721.73856022 -333.49190918,1712.25581741 -331.779939023,1712.27148086 -331.81585005,1710.91972841 -331.761056939,1688.1881294 -331.768924903,1686.40057049 -333.897429747,1686.39071549 -333.866093923,1677.62774922 -333.811244758,1671.39806531 -325.756490265,1671.42139294 -325.745659448,1671.31568186 -321.917354363,1671.34522394 -321.931461539,1671.69231124 -320.668572743,1671.70052763 -320.650484324,1671.32809252 -316.758181808,1671.35445794 -316.74354274,1671.4817692 -306.98587864,1671.54177076 -306.967963071,1671.42770563 -303.080751584,1671.44974754 -303.081394592,1671.56409886 -301.847955653,1671.5760614 -301.880055428,1676.37449621 -297.450309038,1676.39705501 -297.751310455,1694.99916816 -297.767643121,1695.28691979 " moovel_rot="-40.3" moovel_centroid="-315.351610303,1696.82405318" moovel_centroidlatlon="13.39017309917926,52.536093765310405"/>
  <polygon id="91711649" class="tile" points="-359.127383793,1720.05399942 -354.93405387,1725.84244377 -341.061133908,1714.97889983 -336.713785898,1711.83201423 -345.218216445,1696.27034848 -334.897429747,1690.65920702 -345.49110229,1671.31568186 -353.367664408,1675.13686459 -356.25772567,1676.53120314 -354.138660258,1680.01387914 -359.121562689,1682.63287259 -344.382743099,1709.09738872 -346.300366386,1710.53363227 -359.127383793,1720.05399942 " moovel_rot="-45.8" moovel_centroid="-347.229935225,1695.4711654" moovel_centroidlatlon="13.323065975879157,52.52085081663308"/>
  <polygon id="405912099" class="tile" points="-360.127383793,1696.44463736 -382.123580541,1671.31568186 -392.043851809,1680.17457066 -389.044681259,1683.81830863 -391.603694807,1686.2130784 -392.033354356,1719.66840206 -389.586592926,1724.0798582 -360.127383793,1696.44463736 " moovel_rot="35.4" moovel_centroid="-380.348427776,1696.64585906" moovel_centroidlatlon="13.321009323491404,52.410928244797496"/>
  <polygon id="185994631" class="tile" points="-424.709737352,1671.37280181 -424.706699269,1688.69814853 -404.762652169,1688.65972492 -404.760892075,1733.45279766 -393.043851809,1733.43406408 -393.048571541,1671.31568186 -424.709737352,1671.37280181 " moovel_rot="64.6" moovel_centroid="-404.000955943,1695.18436806" moovel_centroidlatlon="13.318116652504301,52.51710405341995"/>
  <polygon id="175963497" class="tile" points="-442.321853286,1671.31568186 -442.330237503,1723.12702083 -425.718167334,1723.130845 -425.709737352,1671.31951915 -442.321853286,1671.31568186 " moovel_rot="74.0" moovel_centroid="-434.019999217,1697.22325482" moovel_centroidlatlon="13.618634099999998,52.504776350000014"/>
  <polygon id="222374234" class="tile" points="-443.347193339,1671.31568186 -443.330237503,1745.34675831 -459.69602232,1745.30951255 -461.337245385,1745.30975942 -460.613770889,1724.17449525 -506.731961004,1726.01909939 -506.658072372,1717.86839111 -506.470274098,1694.97236866 -454.432925958,1692.12863663 -454.219045016,1672.42106277 -443.347193339,1671.31568186 " moovel_rot="50.9" moovel_centroid="-469.291563045,1710.46335134" moovel_centroidlatlon="13.507277030620614,52.63614030496306"/>
  <polygon id="445062314" class="tile" points="-507.731961004,1806.07023933 -570.307728044,1804.51169731 -565.930543067,1671.31568186 -507.838576118,1672.77035903 -507.731961004,1806.07023933 " moovel_rot="-85.0" moovel_centroid="-537.965731133,1739.49217265" moovel_centroidlatlon="13.509280359694998,52.53420559529649"/>
  <polygon id="30611498" class="tile" points="-0.0092180326581,1841.81930162 -18.2921768177,1842.29200956 -18.1005629808,1831.78752684 -23.7981679063,1831.73493698 -23.5569716369,1811.39112804 -19.0001134539,1806.07023933 0.0,1806.08500119 -0.0092180326581,1841.81930162 " moovel_rot="-1.3" moovel_centroid="-11.035153109917816,1823.41506821" moovel_centroidlatlon="13.566795888345576,52.543608366931245"/>
  <polygon id="48956627" class="tile" points="-26.0407910667,1806.6153151 -25.7981679063,1848.60846839 -29.7407158158,1861.43500079 -54.8979867446,1861.61336245 -54.856073608,1806.07023933 -26.0407910667,1806.6153151 " moovel_rot="-36.9" moovel_centroid="-40.630266347,1833.60495975" moovel_centroidlatlon="13.443495955057086,52.44317789326223"/>
  <polygon id="177914367" class="tile" points="-86.9163214924,1851.14170214 -55.8979867446,1851.06436451 -55.9155722842,1806.07023933 -86.9340114421,1806.14752444 -86.9367997135,1808.17221666 -86.9163214924,1851.14170214 " moovel_rot="63.3" moovel_centroid="-71.4168722745,1828.60555298" moovel_centroidlatlon="13.677747400786076,52.44462335894067"/>
  <polygon id="131333240" class="tile" points="-95.0376604995,1806.59378807 -96.5362555517,1934.91287972 -87.9367997135,1935.37447853 -88.1058114501,1806.07023933 -95.0376604995,1806.59378807 " moovel_rot="50.7" moovel_centroid="-91.9110820341,1873.05000145" moovel_centroidlatlon="13.437026105489766,52.48321403737249"/>
  <polygon id="199611931" class="tile" points="-97.5623496789,1830.10549919 -97.5362555517,1806.07023933 -110.925491623,1806.07602134 -116.038864504,1808.16926831 -115.939639053,1830.54535828 -97.5623496789,1830.10549919 " moovel_rot="12.0" moovel_centroid="-106.707741304,1818.32378331" moovel_centroidlatlon="13.436766357388278,52.472257749589524"/>
  <polygon id="390545090" class="tile" points="-117.052058418,1836.26381294 -117.038864504,1808.71402556 -119.589485595,1808.70779371 -119.589222706,1806.07615376 -124.427020021,1806.07023933 -124.422278309,1808.68534734 -126.88930608,1808.68063741 -126.910041192,1836.24077794 -117.052058418,1836.26381294 " moovel_rot="-67.5" moovel_centroid="-121.974416092,1821.80280602" moovel_centroidlatlon="13.418954730903858,52.519165708105454"/>
  <polygon id="101372169" class="tile" points="-147.00407804,1813.71485245 -144.83958727,1823.36992851 -144.262363121,1825.95889317 -135.551427014,1831.24101776 -132.390514509,1833.08533084 -127.921317796,1832.53150467 -127.910041192,1809.14657808 -136.135650599,1806.07023933 -137.124816601,1812.86093741 -137.365384787,1818.65342826 -147.00407804,1813.71485245 " moovel_rot="75.3" moovel_centroid="-135.12222337,1820.55121716" moovel_centroidlatlon="13.27832886119576,52.516920183981576"/>
  <polygon id="164244565" class="tile" points="-149.080539854,1854.26635047 -148.00407804,1806.7415051 -158.841369134,1806.07023933 -158.791329923,1854.36156195 -149.080539854,1854.26635047 " moovel_rot="35.7" moovel_centroid="-153.687736669,1829.91874626" moovel_centroidlatlon="13.374033097948049,52.47464164516456"/>
  <polygon id="122634304" class="tile" points="-160.048871571,1806.21142047 -159.841369134,1825.0784578 -172.155192269,1827.37080782 -172.125252515,1806.07023933 -160.048871571,1806.21142047 " moovel_rot="-1.5" moovel_centroid="-166.164552462,1816.22754385" moovel_centroidlatlon="13.146892906610246,52.46980928622947"/>
  <polygon id="79430876" class="tile" points="-185.898943889,1809.79713901 -181.926114752,1815.92016737 -185.839280356,1819.07327174 -180.819794751,1826.29476183 -173.161586163,1825.76798476 -173.155192269,1806.07023933 -180.018360797,1806.6630364 -185.898943889,1809.79713901 " moovel_rot="76.1" moovel_centroid="-178.442201402,1816.14654127" moovel_centroidlatlon="13.309658659513444,52.4793350875983"/>
  <polygon id="290089432" class="tile" points="-186.909337749,1806.12993071 -192.38987827,1806.07023933 -192.432438276,1820.04769068 -186.898943889,1820.07689498 -186.909337749,1806.12993071 " moovel_rot="19.6" moovel_centroid="-189.658678531,1813.09236124" moovel_centroidlatlon="13.470197345624168,52.530117632046704"/>
  <polygon id="47943155" class="tile" points="-193.432438276,1881.78751296 -210.265876599,1813.85781898 -228.454696978,1806.07023933 -237.93469699,1822.8175222 -242.452977271,1833.6580552 -247.312128561,1853.32138264 -249.607550198,1869.72871992 -249.604278088,1878.21176315 -249.581853585,1897.01793634 -205.22879505,1891.72508868 -206.461801533,1885.37662933 -199.115855531,1883.73070797 -193.432438276,1881.78751296 " moovel_rot="-76.1" moovel_centroid="-224.018736637,1856.95143784" moovel_centroidlatlon="13.338987263520416,52.479406226771125"/>
  <polygon id="51197208" class="tile" points="-271.291146726,1806.07023933 -271.3154566,1839.97831142 -250.63191623,1839.99705468 -250.607550198,1806.08894583 -271.291146726,1806.07023933 " moovel_rot="-56.8" moovel_centroid="-260.961515562,1823.03363015" moovel_centroidlatlon="13.292722099999997,52.4569333"/>
  <polygon id="335689355" class="tile" points="-289.00338058,1806.10295376 -288.995646701,1832.41762141 -272.3154566,1832.39721797 -272.319712925,1806.07023933 -289.00338058,1806.10295376 " moovel_rot="15.7" moovel_centroid="-280.657899381,1819.24654947" moovel_centroidlatlon="13.438354563761761,52.45995932741947"/>
  <polygon id="191094666" class="tile" points="-301.288119243,1806.09605946 -298.716316552,1806.08956101 -290.00338058,1806.07023933 -290.006629713,1845.22608729 -301.300324057,1845.24570622 -301.288119243,1806.09605946 " moovel_rot="55.3" moovel_centroid="-295.649472466,1825.66195799" moovel_centroidlatlon="13.394564178888759,52.46718226120916"/>
  <polygon id="357670054" class="tile" points="-302.300324057,1807.21107793 -314.974033994,1806.07023933 -314.949103927,1827.47288067 -304.034314485,1835.37269972 -302.300324057,1807.21107793 " moovel_rot="47.5" moovel_centroid="-308.764400868,1818.87954208" moovel_centroidlatlon="13.154562285294443,52.46188859216937"/>
  <polygon id="106766938" class="tile" points="-325.006903316,1873.91168531 -326.097223167,1858.95170389 -323.264182034,1811.45765383 -316.04077567,1806.07023933 -317.16818496,1857.88487978 -315.974033994,1872.0538617 -325.006903316,1873.91168531 " moovel_rot="19.4" moovel_centroid="-320.734940731,1842.37954493" moovel_centroidlatlon="13.307270159949356,52.51305991115541"/>
  <polygon id="126937242" class="tile" points="-327.118178467,1806.1021547 -327.097223167,1840.73874705 -345.737442768,1840.70678554 -345.758446859,1806.07023933 -327.118178467,1806.1021547 " moovel_rot="-46.6" moovel_centroid="-336.427820747,1823.4044741" moovel_centroidlatlon="13.38940955,52.481572899999996"/>
  <polygon id="395577877" class="tile" points="-346.772361735,1824.09104015 -346.758446859,1806.08008168 -358.432144218,1806.07023933 -358.446410911,1824.08786769 -346.772361735,1824.09104015 " moovel_rot="-93.0" moovel_centroid="-352.602701169,1815.08235158" moovel_centroidlatlon="13.30104482405867,52.42694059672855"/>
  <polygon id="326746319" class="tile" points="-440.783802594,1818.12830698 -433.407393256,1806.07023933 -365.987206449,1806.28852124 -359.446410911,1806.31160153 -359.472554417,1842.00029309 -365.333324849,1841.79721787 -402.606685884,1842.02783244 -407.556722994,1823.10077906 -426.639491749,1828.05698091 -405.489389313,1908.92751245 -415.93357744,1912.0132558 -420.214138736,1895.87192596 -436.525092006,1834.2335551 -440.783802594,1818.12830698 " moovel_rot="-8.1" moovel_centroid="-402.025978955,1835.56155356" moovel_centroidlatlon="13.468734133962982,52.56367695299503"/>
  <polygon id="446126549" class="tile" points="-476.985955622,1807.22957843 -443.021969663,1806.07023933 -441.783802594,1854.8900272 -477.048584865,1856.13590051 -476.985955622,1807.22957843 " moovel_rot="19.4" moovel_centroid="-459.710676249,1831.23460096" moovel_centroidlatlon="13.537366620084551,52.54146263299649"/>
  <polygon id="242119704" class="tile" points="-484.186600466,1806.0746275 -478.048584865,1806.07023933 -478.069849477,1844.13815503 -484.214432961,1844.1437574 -484.186600466,1806.0746275 " moovel_rot="10.4" moovel_centroid="-481.129885381,1825.11008716" moovel_centroidlatlon="13.358228634440593,52.433558819489775"/>
  <polygon id="168686799" class="tile" points="-485.25040338,1806.0966985 -499.842427591,1806.07023933 -499.817221148,1856.96819474 -485.214432961,1856.98777746 -485.25040338,1806.0966985 " moovel_rot="-25.9" moovel_centroid="-492.531284153,1831.53385587" moovel_centroidlatlon="13.332223106702001,52.51541524857746"/>
  <polygon id="49133357" class="tile" points="-505.461316596,1852.56480219 -502.061896497,1852.3428686 -500.842427591,1852.25707018 -533.987598375,1922.74625396 -563.470988071,1923.74420162 -563.461186338,1919.46449325 -563.2795412,1861.03428194 -563.392050931,1858.24936315 -563.487940727,1806.13698497 -552.816855133,1806.07023933 -551.982061065,1853.01097308 -548.828665571,1852.9442101 -505.461316596,1852.56480219 " moovel_rot="3.0" moovel_centroid="-542.034209418,1876.3054392" moovel_centroidlatlon="13.43426151815508,52.439667489778586"/>
  <polygon id="397052765" class="tile" points="-564.487940727,1818.30002079 -564.49191861,1806.53592218 -568.875202427,1806.07023933 -568.418978786,1809.56516398 -570.72118383,1809.61962403 -569.928756815,1817.97811925 -564.487940727,1818.30002079 " moovel_rot="-40.7" moovel_centroid="-567.22596563,1812.51231373" moovel_centroidlatlon="13.347828384913358,52.482741587707245"/>
  <polygon id="333827382" class="tile" points="-572.502511635,1827.38681263 -581.985813756,1827.37444627 -581.977866693,1806.07023933 -572.528039879,1806.0820753 -572.534293989,1814.61112872 -571.72118383,1814.61524719 -571.721248437,1819.60967682 -572.499647004,1819.6126525 -572.502511635,1827.38681263 " moovel_rot="-79.4" moovel_centroid="-577.150094111,1816.74484887" moovel_centroidlatlon="13.422334111634063,52.47451753215914"/>
  <polygon id="30885242" class="tile" points="-1.38002789989,1935.37447853 -13.593004827,1936.09980442 -13.4417696401,1939.02250061 -12.044664529,1962.58551002 -13.5941315671,1970.06769442 -3.35060169585,1968.57083285 0.0,1965.04112882 -0.687528322823,1950.21003406 -1.38002789989,1935.37447853 " moovel_rot="-41.7" moovel_centroid="-6.829889008294079,1952.30979313" moovel_centroidlatlon="13.357703649800156,52.54519839353952"/>
  <polygon id="48405829" class="tile" points="-41.7326726822,1981.55471286 -15.6277937317,1981.57117224 -15.5941315671,1935.39093791 -41.6990093816,1935.37447853 -41.7326726822,1981.55471286 " moovel_rot="-90.3" moovel_centroid="-28.6634018406,1958.47282555" moovel_centroidlatlon="13.5868983,52.540375399999995"/>
  <polygon id="164122381" class="tile" points="-50.5790790602,1935.37447853 -42.7326726822,1958.91886278 -48.979975093,1973.40221141 -48.4566712527,1978.31709139 -54.1143781085,1979.86211845 -55.2957643718,1973.81402675 -47.8016260881,1958.38149722 -55.2771675596,1937.28982209 -50.5790790602,1935.37447853 " moovel_rot="-21.1" moovel_centroid="-49.3945187129,1958.45617718" moovel_centroidlatlon="13.371578147045819,52.473455219869194"/>
  <polygon id="122959015" class="tile" points="-67.9237475515,1935.37556932 -67.9194748015,1974.84103829 -56.5077906123,1974.83994752 -56.5071526651,1946.21618522 -56.2957643718,1946.00574618 -56.5120648487,1935.37447853 -67.9237475515,1935.37556932 " moovel_rot="-90.9" moovel_centroid="-62.2001704397,1955.07534961" moovel_centroidlatlon="13.47477163883652,52.52373908778573"/>
  <polygon id="235326980" class="tile" points="-74.7503193476,1935.37447853 -87.9317224078,1935.3938164 -87.9396674255,1942.65061153 -87.9392510014,1945.16471231 -85.0344371176,1945.1585664 -85.0409407765,1957.32781169 -68.9332636608,1957.29461126 -68.9237475515,1940.20793834 -74.7585826708,1940.21566254 -74.7503193476,1935.37447853 " moovel_rot="48.3" moovel_centroid="-78.15561525,1946.54057913" moovel_centroidlatlon="13.26745033747549,52.45475781443231"/>
  <polygon id="126225314" class="tile" points="-102.295464355,2059.66505676 -102.342302716,1935.37447853 -95.5389799709,1935.46042569 -88.9863794607,1935.3994913 -88.9396674255,2059.69013641 -102.295464355,2059.66505676 " moovel_rot="-62.1" moovel_centroid="-95.6409583453,1997.55049252" moovel_centroidlatlon="13.636272557908452,52.39522337153013"/>
  <polygon id="338392481" class="tile" points="-109.577068944,1996.28653677 -117.442491016,1993.01886608 -117.521448899,1935.37567779 -103.342302716,1935.37447853 -103.345484841,1990.67932708 -109.577068944,1996.28653677 " moovel_rot="-90.4" moovel_centroid="-110.448672015,1964.74323639" moovel_centroidlatlon="13.377553561206494,52.48410632050932"/>
  <polygon id="441045982" class="tile" points="-119.973392481,2033.30889647 -118.521448899,1936.08047327 -156.18144795,1935.37447853 -156.140790586,2011.66324083 -132.785177409,2011.64018839 -133.573623837,2032.36730916 -119.973392481,2033.30889647 " moovel_rot="-14.6" moovel_centroid="-136.625806527,1977.9555332" moovel_centroidlatlon="13.510068569428825,52.497102914099415"/>
  <polygon id="277648795" class="tile" points="-157.18144795,1940.45614388 -162.390601437,1939.96649757 -161.849211903,1936.01975642 -172.755603801,1935.37447853 -172.72917484,1972.64502694 -158.287546104,1970.95983387 -157.18144795,1940.45614388 " moovel_rot="-59.5" moovel_centroid="-165.511773497,1954.16036325" moovel_centroidlatlon="13.691517012821635,52.43193346405616"/>
  <polygon id="229520016" class="tile" points="-236.852087119,1940.24205302 -256.38250144,1935.37447853 -256.410931136,2061.19980131 -177.904476705,2063.96609168 -176.936632419,2037.00153778 -174.683190697,1997.22392305 -173.755603801,1980.83950113 -179.33848681,1980.51170941 -214.160839208,1978.44920311 -213.881715386,1973.48244086 -218.842564257,1973.17990583 -217.043151063,1941.41135599 -236.852087119,1940.24205302 " moovel_rot="-49.8" moovel_centroid="-220.075005694,2009.06071397" moovel_centroidlatlon="13.283239894901447,52.415665962333776"/>
  <polygon id="41764115" class="tile" points="-285.865521207,1935.37447853 -285.859532549,1996.98690456 -257.410931136,1996.98396362 -257.510305707,1935.65040015 -285.865521207,1935.37447853 " moovel_rot="73.6" moovel_centroid="-271.672312233,1966.26577189" moovel_centroidlatlon="13.471181287440155,52.52710692561993"/>
  <polygon id="110862376" class="tile" points="-286.909743723,1935.37447853 -298.017023374,1935.38647841 -297.972800264,1989.9267515 -286.865521207,1989.91476034 -286.909743723,1935.37447853 " moovel_rot="-3.9" moovel_centroid="-292.441271995,1962.65061695" moovel_centroidlatlon="13.32305855,52.57546495"/>
  <polygon id="380225184" class="tile" points="-299.017023374,2035.71186956 -304.015862395,2035.49586996 -303.968320004,1935.76058467 -301.523894054,1935.37447853 -301.443726286,1947.41623937 -299.0640553,1948.73111602 -299.017023374,2035.71186956 " moovel_rot="-28.0" moovel_centroid="-301.598794956,1988.61189612" moovel_centroidlatlon="13.364026590383192,52.501382296285215"/>
  <polygon id="46549322" class="tile" points="-334.289649882,1935.37447853 -305.015862395,1938.66231911 -305.048569279,2002.66366553 -337.973454066,1996.64308406 -336.431891803,1977.49438551 -334.615234442,1955.00619276 -342.219971489,1954.40700032 -341.997588576,1942.8528054 -341.007496263,1939.41888676 -334.64976264,1939.91631911 -334.289649882,1935.37447853 " moovel_rot="50.5" moovel_centroid="-321.299704735,1967.8510748" moovel_centroidlatlon="13.313218585514539,52.42232446737834"/>
  <polygon id="315766207" class="tile" points="-368.867123698,1935.37754891 -351.123018356,1935.37447853 -351.123755114,1942.17393921 -349.230540406,1942.17021496 -349.231880697,1943.42271696 -355.450314924,1943.42359489 -355.462160663,1951.33152729 -344.467041675,1951.32881947 -344.466155213,1947.33798271 -343.219971489,1947.33722992 -343.227399619,1954.71166537 -343.240140782,1966.61043155 -354.372541084,1966.60970616 -363.46617401,1966.61848029 -363.458645047,1956.8508072 -368.892765127,1956.8521475 -368.867123698,1935.37754891 " moovel_rot="71.6" moovel_centroid="-357.0690717,1951.81879243" moovel_centroidlatlon="13.22446811649566,52.5090161237643"/>
  <polygon id="219111640" class="tile" points="-375.392998505,2024.85075076 -372.757645707,2022.54013574 -369.892765127,2018.41647746 -370.039589641,2009.04578732 -372.055103339,2008.99706767 -370.468287484,1970.80414259 -373.64401053,1970.62068409 -372.930029421,1952.47811185 -374.950249421,1952.41689036 -374.715907627,1943.78058477 -370.040591739,1943.91413296 -369.968468933,1935.37447853 -375.162827012,1935.60013993 -392.731555064,1942.5534258 -392.007450013,1944.29343849 -389.093897048,1951.36121604 -398.524434534,1955.26269258 -390.111262049,1975.6258388 -402.231034391,1980.63802803 -407.371813106,1982.77724663 -387.773478369,2027.14958159 -380.656059732,2027.19291137 -375.392998505,2024.85075076 " moovel_rot="-69.4" moovel_centroid="-384.265120407,1983.54977921" moovel_centroidlatlon="13.392729152549302,52.453309953074665"/>
  <polygon id="375398055" class="tile" points="-411.258416145,1999.66339299 -410.365774657,1998.47084208 -410.570043498,1997.86538741 -410.579852021,1997.2175958 -410.404204454,1996.60389838 -410.061116468,1996.07974521 -409.577615189,1995.67960527 -408.997996683,1995.4383222 -408.371813106,1995.38661841 -408.418021066,1936.90608727 -412.589720928,1935.37447853 -433.212779314,1975.67225375 -434.48662306,1979.8081552 -433.308176992,1985.25462345 -429.350325571,1988.74760155 -420.970753985,1993.84301145 -411.258416145,1999.66339299 " moovel_rot="-38.1" moovel_centroid="-418.031378535,1971.07140205" moovel_centroidlatlon="13.356602637345112,52.524049507225676"/>
  <polygon id="122302398" class="tile" points="-451.049873482,2001.11394408 -435.48662306,2001.75354533 -435.491140094,1994.98582726 -438.300155153,1994.87498632 -437.663959115,1976.30300844 -445.71101232,1976.38199853 -444.201763802,1935.37447853 -449.545038261,1935.42230293 -451.049873482,2001.11394408 " moovel_rot="-83.1" moovel_centroid="-445.30283326,1976.47603908" moovel_centroidlatlon="13.259096568004628,52.42860730515832"/>
  <polygon id="381646556" class="tile" points="-461.82349357,1935.37447853 -462.159615307,1957.85969947 -457.168520436,1957.96668637 -457.051523626,1963.80908604 -452.049873482,1963.8636925 -452.069060362,1935.61066449 -458.1230389,1935.45970249 -461.82349357,1935.37447853 " moovel_rot="78.6" moovel_centroid="-456.743638334,1948.43927103" moovel_centroidlatlon="13.380549113163141,52.497650801728156"/>
  <polygon id="59858988" class="tile" points="-470.885028581,1935.37447853 -463.980162379,1945.16568595 -463.159615307,1965.40176347 -468.142140075,1968.23512693 -491.518663458,1968.07192536 -491.500570063,1935.82170154 -470.885028581,1935.37447853 " moovel_rot="-0.4" moovel_centroid="-478.074471344,1952.34984469" moovel_centroidlatlon="13.530896262821674,52.509979075214424"/>
  <polygon id="344005562" class="tile" points="-492.518663458,1935.37447853 -492.532414506,1979.784991 -517.929792098,1979.2251858 -518.192293922,1937.09611115 -492.518663458,1935.37447853 " moovel_rot="-73.6" moovel_centroid="-505.181523674,1957.82771388" moovel_centroidlatlon="13.625032837517725,52.53416431338237"/>
  <polygon id="160953284" class="tile" points="-12.1998895403,2092.205071 -15.3742615845,2063.96609168 -88.6456814568,2070.21005669 -88.7380087224,2192.57153721 -82.1752503254,2193.00812372 -32.3868473366,2162.43387477 -35.2479402049,2157.48975433 0.0,2135.62622988 -9.17999259755,2119.9860462 -12.1998895403,2092.205071 " moovel_rot="22.6" moovel_centroid="-52.439013947738566,2120.82232746" moovel_centroidlatlon="13.509706548039507,52.54449869324742"/>
  <polygon id="150776188" class="tile" points="-91.4959541279,2097.50183126 -90.7380087224,2064.37088234 -107.209969262,2063.96609168 -107.12857906,2080.11693495 -100.747448395,2080.28494293 -101.081695666,2093.91959549 -106.729553368,2093.77387686 -107.040727149,2106.20347656 -107.150863413,2112.69183729 -97.8187825765,2112.52043937 -97.4657141429,2097.35817265 -91.4959541279,2097.50183126 " moovel_rot="-71.5" moovel_centroid="-99.1945739226,2085.58439164" moovel_centroidlatlon="13.396419779826436,52.42407268769265"/>
  <polygon id="59307637" class="tile" points="-112.505642539,2063.97702225 -108.23630896,2063.96609168 -108.209969262,2104.00118798 -112.488566066,2104.00628519 -112.505642539,2063.97702225 " moovel_rot="57.8" moovel_centroid="-110.360065734,2083.99487455" moovel_centroidlatlon="13.307218291257335,52.5744380393839"/>
  <polygon id="178320506" class="tile" points="-113.505642539,2064.76512519 -140.221279204,2063.96609168 -140.171028861,2096.78827113 -135.467880239,2096.99322854 -135.515133429,2099.2898296 -131.256222716,2099.40117089 -124.344860962,2099.59895783 -115.354641799,2099.84413292 -114.302793024,2099.87274503 -113.505642539,2064.76512519 " moovel_rot="-21.6" moovel_centroid="-126.922982886,2081.65233515" moovel_centroidlatlon="13.25766300226364,52.43254451452886"/>
  <polygon id="48500536" class="tile" points="-170.933204462,2092.25303967 -170.815848601,2096.9263686 -164.494955488,2096.99186912 -144.790919834,2097.1896588 -141.221279204,2097.22342067 -141.223256623,2076.14418762 -141.224461814,2073.05788153 -141.230246447,2064.43787847 -168.796822243,2063.96609168 -170.933204462,2092.25303967 " moovel_rot="-59.2" moovel_centroid="-155.638504633,2080.85770604" moovel_centroidlatlon="13.268958493901053,52.590994792166974"/>
  <polygon id="24315047" class="tile" points="-225.647797431,2063.96609168 -213.265453376,2070.93775994 -171.933204462,2097.05271729 -173.277075939,2099.21438884 -175.498031949,2102.78161145 -173.813587862,2103.78401019 -174.277628372,2132.14460458 -174.504014346,2136.27855085 -180.061037124,2136.22789767 -225.613620251,2134.3186059 -225.535313178,2067.41999053 -225.647797431,2063.96609168 " moovel_rot="56.9" moovel_centroid="-202.099297613,2106.6740672" moovel_centroidlatlon="13.423707917576749,52.48800724177396"/>
  <polygon id="221826634" class="tile" points="-280.187480231,2127.5543804 -274.279237507,2127.42158405 -269.590085036,2127.31937358 -269.499271603,2133.44714637 -226.647797431,2133.06291493 -226.664841318,2117.13022524 -240.880085512,2116.48489407 -241.008128365,2122.19202525 -247.752502494,2121.71963711 -247.80503472,2119.95088485 -242.645429881,2120.20096142 -243.10461801,2070.15461013 -268.717268691,2070.17236679 -268.462900222,2063.96609168 -272.654071151,2064.08954435 -279.578008323,2064.27389435 -280.187480231,2127.5543804 " moovel_rot="12.8" moovel_centroid="-258.825313399,2102.51509174" moovel_centroidlatlon="13.566558559637333,52.406316441315475"/>
  <polygon id="9922727" class="tile" points="-281.21693713,2073.76527518 -295.756932726,2073.69425594 -295.73101252,2063.96609168 -310.554250119,2064.03568995 -310.766077207,2075.88795478 -315.121084016,2075.86591651 -315.244659862,2098.08771039 -303.267135688,2097.87385642 -302.758536955,2108.82769568 -285.564268909,2108.8222039 -285.473411369,2103.31337624 -281.187480231,2103.27562799 -281.21693713,2073.76527518 " moovel_rot="-12.2" moovel_centroid="-297.767161116,2086.97610068" moovel_centroidlatlon="13.322113994263761,52.56510008398557"/>
  <polygon id="338412108" class="tile" points="-316.249796772,2063.96816123 -316.244659862,2125.77456456 -328.444949726,2125.77249092 -328.450086744,2063.96609168 -316.249796772,2063.96816123 " moovel_rot="-1.5" moovel_centroid="-322.347373209,2094.87032705" moovel_centroidlatlon="13.370054249999997,52.48729319999998"/>
  <polygon id="126197307" class="tile" points="-349.516896145,2063.99202416 -349.471679923,2118.03438307 -329.450086744,2118.00844778 -329.495277894,2063.96609168 -349.516896145,2063.99202416 " moovel_rot="83.6" moovel_centroid="-339.483485269,2091.00023103" moovel_centroidlatlon="13.261177,52.541564"/>
  <polygon id="272988200" class="tile" points="-354.93962505,2083.39389534 -350.516896145,2086.12835861 -350.522896746,2115.87209034 -356.629654476,2124.13214317 -366.736920597,2111.57105936 -362.812275948,2106.05332752 -365.524166509,2105.59716451 -372.715012137,2101.28362417 -367.30618061,2097.8516496 -362.10408351,2092.71511189 -364.957206791,2089.59416005 -360.097310488,2082.95124873 -359.82103574,2070.45790713 -362.365916244,2070.45300728 -362.142473294,2064.1853194 -357.035491627,2063.96609168 -354.62873865,2064.02641161 -351.413520866,2064.20235884 -351.719731269,2081.10247059 -354.93962505,2083.39389534 " moovel_rot="-4.3" moovel_centroid="-357.697075076,2095.06556773" moovel_centroidlatlon="13.370763765764318,52.46942628975683"/>
  <polygon id="314115148" class="tile" points="-382.895127469,2063.98042577 -373.715012137,2063.96609168 -373.726132786,2104.12961273 -382.90622084,2104.1439739 -382.895127469,2063.98042577 " moovel_rot="45.2" moovel_centroid="-378.310623822,2084.05501607" moovel_centroidlatlon="13.3468989,52.51915089999999"/>
  <polygon id="64328551" class="tile" points="-383.90622084,2063.97284654 -397.658738096,2063.96609168 -411.558157956,2063.97080168 -411.562141391,2194.85734022 -397.669362436,2194.86360398 -383.910204284,2194.85938239 -383.90622084,2063.97284654 " moovel_rot="0.2" moovel_centroid="-397.734180179,2129.41496767" moovel_centroidlatlon="13.529449949978703,52.52980470114127"/>
  <polygon id="52521263" class="tile" points="-439.96649009,2064.01843353 -412.562141391,2063.96609168 -412.571937648,2105.02033398 -433.544774995,2105.05781817 -439.976196773,2105.07273223 -439.96649009,2064.01843353 " moovel_rot="57.8" moovel_centroid="-426.269117221,2084.51873232" moovel_centroidlatlon="13.418307341073994,52.54713740259013"/>
  <polygon id="37901735" class="tile" points="-441.188593385,2063.96609168 -441.102396575,2080.39780704 -440.976196773,2105.79785764 -446.91169962,2105.92809104 -445.990001949,2163.23016805 -475.408246576,2163.01063422 -474.875930385,2124.94333919 -475.489035951,2075.15875631 -475.409038273,2071.14033347 -441.188593385,2063.96609168 " moovel_rot="-43.7" moovel_centroid="-459.385518773,2113.34214166" moovel_centroidlatlon="13.391071728525686,52.418874343197686"/>
  <polygon id="324998096" class="tile" points="-476.489035951,2064.0437797 -476.646661451,2105.42467495 -476.829141656,2106.37033541 -477.227727487,2107.65093442 -477.901253575,2109.10453863 -478.852095495,2110.45808541 -479.884332838,2111.5739677 -481.461426673,2112.78440403 -480.753706564,2064.8189473 -481.523288425,2063.98134214 -479.746157946,2063.96609168 -476.489035951,2064.0437797 " moovel_rot="1.9" moovel_centroid="-478.895995647,2087.5647362" moovel_centroidlatlon="13.40566849272942,52.400969149920456"/>
  <polygon id="42780002" class="tile" points="-482.646902042,2208.44012316 -482.523288425,2063.98884319 -504.250838428,2063.96609168 -504.185652876,2069.24618591 -504.300254839,2202.88498904 -504.374452034,2208.41737462 -482.646902042,2208.44012316 " moovel_rot="0.2" moovel_centroid="-493.415383663,2136.2034648" moovel_centroidlatlon="13.583828648665333,52.54150914567619"/>
  <polygon id="141105457" class="tile" points="-505.374452034,2116.84646156 -506.246813693,2088.97949829 -505.413513843,2064.59318927 -520.842896496,2063.96609168 -521.905479013,2089.53879239 -520.450823709,2117.61940692 -513.077356735,2117.23882651 -505.374452034,2116.84646156 " moovel_rot="-92.6" moovel_centroid="-513.582775238,2090.65786084" moovel_centroidlatlon="13.575393415216647,52.52929657967884"/>
  <polygon id="40800398" class="tile" points="-565.96582861,2063.96609168 -565.993778806,2087.56322615 -546.978469034,2087.62851657 -547.050793455,2150.40452057 -529.87787353,2150.46819201 -523.005917723,2150.49027867 -522.905479013,2064.11694114 -565.96582861,2063.96609168 " moovel_rot="-39.5" moovel_centroid="-538.796886959,2101.67169301" moovel_centroidlatlon="13.452564742442872,52.48205681819922"/>
  <polygon id="270465370" class="tile" points="-584.620391455,2063.99435338 -566.997807347,2063.96609168 -566.993778806,2098.65417138 -584.603965554,2098.67911938 -584.620391455,2063.99435338 " moovel_rot="73.6" moovel_centroid="-575.803846937,2081.3213994" moovel_centroidlatlon="13.361041495267505,52.41349707902187"/>
  <polygon id="218914680" class="tile" points="-16.9756580411,2267.26047014 0.0,2267.28081756 -0.00605810601264,2208.46045353 -16.9817718884,2208.44012316 -16.9756580411,2267.26047014 " moovel_rot="-73.0" moovel_centroid="-8.490871599072953,2237.86045" moovel_centroidlatlon="13.322992,52.522588299999995"/>
  <polygon id="56897524" class="tile" points="-34.8865299758,2208.45609348 -34.8782281691,2238.14147072 -18.9817718884,2238.13643804 -18.996733785,2208.44012316 -34.8865299758,2208.45609348 " moovel_rot="-0.1" moovel_centroid="-26.935327454,2223.2945672" moovel_centroidlatlon="13.31424966765931,52.425366415527"/>
  <polygon id="273570048" class="tile" points="-41.8523634769,2250.05380087 -41.6406723631,2235.8055715 -41.7878953687,2221.84776127 -41.7445285229,2208.44012316 -35.9563588652,2208.46390845 -35.8865299758,2250.07683104 -41.8523634769,2250.05380087 " moovel_rot="-25.3" moovel_centroid="-38.8319353792,2229.29338629" moovel_centroidlatlon="13.330880748614888,52.50999864757339"/>
  <polygon id="53575100" class="tile" points="-42.8523634769,2249.95204575 -42.8808524421,2208.44012316 -58.1904111466,2208.50599081 -59.3510354147,2249.02120444 -42.8523634769,2249.95204575 " moovel_rot="-33.9" moovel_centroid="-50.7910802735,2229.23908812" moovel_centroidlatlon="13.299703617315881,52.45504694753768"/>
  <polygon id="253105924" class="tile" points="-119.968899155,2232.88297199 -116.998209035,2242.45394267 -118.557822978,2243.41651864 -120.948729164,2239.53281357 -142.31711983,2253.53761971 -139.760881543,2257.34847431 -143.591579137,2259.91077602 -117.674454472,2297.95796312 -107.115334575,2291.3875131 -92.1216449691,2342.23973977 -60.3838930026,2333.54972115 -89.763682632,2229.32938612 -60.3510354147,2220.55290348 -63.6851285426,2208.44012316 -92.1462623139,2216.68932546 -98.853347845,2223.35416066 -103.787830888,2224.99249556 -101.376131348,2233.05231834 -108.266882378,2235.60128455 -112.144634426,2227.69811282 -119.968899155,2232.88297199 " moovel_rot="20.3" moovel_centroid="-97.0320715292,2275.52217573" moovel_centroidlatlon="13.443637201878708,52.56475023847345"/>
  <polygon id="43125667" class="tile" points="-173.704182246,2288.3761521 -151.494539603,2264.7800076 -153.120995683,2261.50784326 -147.924032409,2257.54657617 -144.591579137,2253.48725503 -158.073672376,2215.82878254 -167.957045784,2208.44012316 -173.623352376,2210.44305078 -179.705300709,2212.59158233 -173.13533782,2231.60926663 -164.422060857,2228.59577111 -157.594257141,2248.15647445 -167.076520192,2261.03627096 -179.736047659,2273.32487636 -173.704182246,2288.3761521 " moovel_rot="-64.6" moovel_centroid="-162.857124853,2246.25982469" moovel_centroidlatlon="13.338560049143204,52.51497960637438"/>
  <polygon id="274983260" class="tile" points="-196.814906889,2208.44012316 -200.508175118,2216.71276425 -200.434380639,2276.41728923 -193.340560985,2276.41135054 -183.981639766,2276.39574772 -183.568943307,2242.67169279 -189.296515472,2242.70787556 -189.309176543,2240.02021698 -183.401865918,2239.9856574 -183.423998156,2235.77833596 -183.489924476,2233.07798782 -180.736047659,2227.89787494 -185.45621788,2225.78465441 -180.89031041,2215.55021999 -196.814906889,2208.44012316 " moovel_rot="76.6" moovel_centroid="-192.062098326,2243.59312726" moovel_centroidlatlon="13.298114089083434,52.52758959247696"/>
  <polygon id="79883411" class="tile" points="-237.902968138,2267.43671902 -218.098013962,2264.03544779 -201.508175118,2229.43922063 -237.918094095,2208.44012316 -237.902968138,2267.43671902 " moovel_rot="49.2" moovel_centroid="-224.280295488,2239.30196234" moovel_centroidlatlon="13.189626459983057,52.45466322635937"/>
  <polygon id="88633438" class="tile" points="-271.755751515,2208.44012316 -239.006321691,2209.17313416 -238.978616646,2229.57935864 -238.94844549,2256.4755057 -238.918094095,2276.2134614 -271.8663021,2275.83407908 -271.755751515,2208.44012316 " moovel_rot="-92.1" moovel_centroid="-255.401772193,2242.44820379" moovel_centroidlatlon="13.351276047921985,52.40918574740744"/>
  <polygon id="391137102" class="tile" points="-289.219297488,2215.87837169 -286.114471347,2215.84012884 -286.14236643,2213.60822103 -286.161031058,2211.26250732 -290.507789585,2211.31604605 -290.54845743,2209.0038266 -290.310328663,2209.00042239 -290.295458551,2208.65857398 -275.22925007,2208.44625578 -272.8663021,2208.44012316 -272.896456148,2235.7584796 -276.490349986,2235.80310745 -285.852426809,2235.91054354 -286.044089814,2220.40143325 -289.093960124,2220.43581895 -289.219297488,2215.87837169 " moovel_rot="56.7" moovel_centroid="-280.01584904,2221.59924395" moovel_centroidlatlon="13.388801037341565,52.535698696842616"/>
  <polygon id="38579442" class="tile" points="-291.54845743,2208.46811494 -331.786273571,2208.44012316 -334.156491895,2249.35804415 -302.282969829,2249.87915747 -302.301982078,2286.33320923 -291.594598074,2286.34164016 -291.54845743,2208.46811494 " moovel_rot="0.6" moovel_centroid="-309.382073806,2236.49306507" moovel_centroidlatlon="13.41372998239946,52.56120260950244"/>
  <polygon id="122552475" class="tile" points="-366.762055051,2278.15323291 -360.117006329,2278.16559499 -352.923596871,2289.40608436 -335.156491895,2278.32770483 -335.185644141,2229.25649667 -342.574045703,2229.08191412 -342.504932086,2223.20524873 -371.919910628,2208.44012316 -373.352378913,2259.38429138 -366.762055051,2278.15323291 " moovel_rot="-54.8" moovel_centroid="-354.409451254,2249.5471279" moovel_centroidlatlon="13.144303566784643,52.45518174350018"/>
  <polygon id="211681402" class="tile" points="-378.907259323,2208.54642203 -378.938071019,2227.95251958 -374.352378913,2227.80623263 -374.733969973,2208.44012316 -378.907259323,2208.54642203 " moovel_rot="63.4" moovel_centroid="-376.732071415,2218.33856066" moovel_centroidlatlon="13.293872507362247,52.578878571362885"/>
  <polygon id="213272596" class="tile" points="-379.943178507,2223.6315392 -379.938071019,2272.29431341 -403.169024929,2272.24958736 -403.180304004,2208.44012316 -390.333401685,2208.46097691 -390.337062777,2223.61267691 -379.943178507,2223.6315392 " moovel_rot="-63.0" moovel_centroid="-392.320476662,2243.25396068" moovel_centroidlatlon="13.353723764987736,52.41729939291386"/>
  <polygon id="303591107" class="tile" points="-418.626183369,2215.2543334 -418.659630575,2208.44770046 -409.120718831,2208.44012316 -409.096769413,2219.74487729 -404.180304004,2219.74425104 -404.454997323,2251.58445743 -439.004681429,2251.53623697 -443.514283392,2251.49764051 -443.525567562,2234.19548883 -441.675665871,2234.16642825 -441.648436853,2234.19883231 -441.269661827,2234.07249875 -440.925137922,2233.89198358 -440.891574316,2233.90240026 -440.58147341,2233.65676223 -440.319152195,2233.34621116 -440.117623603,2232.99283932 -439.990072448,2232.60779778 -439.949683542,2232.20223758 -439.982584558,2231.80877262 -440.095625719,2231.41656657 -440.281269288,2231.08022072 -440.288635148,2231.03656067 -440.540030899,2230.76691136 -440.554246984,2230.71241498 -440.844509656,2230.51998382 -440.872082432,2230.46569726 -441.201555783,2230.32860178 -441.235635026,2230.28536137 -441.591306123,2230.18150926 -441.625041608,2230.16015134 -443.52871382,2230.16816872 -443.536264985,2215.2297811 -440.390076758,2215.22413273 -418.626183369,2215.2543334 " moovel_rot="0.9" moovel_centroid="-423.568599441,2232.66579655" moovel_centroidlatlon="13.329994782982139,52.49274781249518"/>
</svg>