<svg xmlns="http://www.w3.org/2000/svg" version="1.1" width="592.5px" height="1200px">
  <polygon id="14" class="bin" points="1.875,0.0 -0.77665042945,1.09834957055 -1.875,3.75 -1.875,1203.749999 -0.77665042945,1206.40164943 1.875,1207.499999 244.957461673,1207.499999 247.59488197,1206.4158036 248.707246828,1203.79013989 249.70643118,1110.45074711 251.370454732,1106.46469869 255.339099816,1104.75958503 260.450565083,1104.65204752 262.988519615,1103.58889528 264.117524497,1101.079542 264.293855329,1097.34078789 264.400139635,1096.41842981 267.966806708,1077.07321881 268.611056549,1075.18214592 272.839653301,1066.94696405 273.391378504,1066.04931136 279.203109867,1058.04215319 280.142616675,1056.99338525 297.94141574,1040.81839698 299.501307176,1040.20294306 301.225293797,1038.82429911 301.874999,1036.71463748 301.874999,1036.62904002 299.97408679,1033.36662154 274.661931139,1019.02008744 271.24645911,1013.148738 271.47565951,851.83914666 270.376808643,849.181662977 267.718906578,848.08382448 266.966157818,848.085180778 262.895677158,846.404839101 261.210511722,842.336353092 261.280401881,728.959900304 262.960890007,724.902645425 267.015953819,723.216877065 273.78826735,723.203886229 276.432356471,722.105911477 277.531064972,719.462127169 278.07016674,473.941527528 279.774243856,469.87079424 283.862842011,468.210037354 289.734207768,468.259491437 292.406058933,467.172610336 293.515792583,464.510169651 293.523525466,411.321641381 294.508180427,408.968867131 294.318515728,405.68478854 279.265884545,378.883615185 279.242524692,378.841680816 264.232337173,351.673524376 263.379906482,348.50413459 262.610446368,311.38258956 262.609925383,311.3605752 262.458238516,305.658829009 262.457404144,305.624181007 261.878138717,278.755920712 260.821337116,276.226410048 258.325707273,275.091912137 220.385364769,273.099098341 216.447822615,271.242103974 214.939878556,267.158138864 216.076113936,234.234016904 217.825868279,230.296588876 221.351373257,228.86693662 223.689961312,225.519785144 224.99375156,187.340798578 223.992453563,184.659551687 221.391255259,183.465629599 220.517914658,183.431760693 216.591548482,181.66914174 214.985347515,177.676236109 215.04842802,92.0324128058 216.786053854,87.9225996012 220.942499244,86.2996794445 256.354766364,87.2565540026 259.072884313,86.1939454528 260.20605653,83.5044802939 260.132850198,3.74655803933 259.03328501,1.0971329328 256.382851777,0.0 1.875,0.0 " moovel_rot="0" moovel_centroid="131.03853554041143,614.6242606791986" moovel_centroidlatlon="0,0"/>
  <polygon id="32469974" class="tile" points="-1.0,1262.75823078 -1.0019595867,1201.0 -49.865174282,1202.68009465 -47.3165668994,1301.7554722 -17.5368524466,1301.65669377 -17.6524835439,1297.25461558 -18.512459255,1262.96163556 -1.0,1262.75823078 " moovel_rot="-58.5" moovel_centroid="-27.200092153640323,1246.3490404233723" moovel_centroidlatlon="13.457114931475271,52.53322211787752"/>
  <polygon id="48992257" class="tile" points="-94.8837165469,1259.9620333 -50.865174282,1259.90195888 -50.8771185353,1201.44336359 -94.9673522139,1201.0 -94.8971215129,1253.77364774 -94.8837165469,1259.9620333 " moovel_rot="-91.8" moovel_centroid="-72.9309672765,1230.569190596505" moovel_centroidlatlon="13.373229874139083,52.465787299601686"/>
  <polygon id="295408081" class="tile" points="-95.9673522139,1257.67067562 -115.54396552,1256.38830218 -115.44255966,1201.0 -96.0533671338,1202.12336432 -96.0361116819,1213.1886997 -95.9673522139,1257.67067562 " moovel_rot="-75.7" moovel_centroid="-105.747471545,1229.3403068301718" moovel_centroidlatlon="13.131360584961696,52.53520146251932"/>
  <polygon id="367310023" class="tile" points="-116.54396552,1201.0 -129.658022557,1201.22563401 -129.447580228,1212.08658435 -129.298443399,1221.97507537 -116.569307389,1221.79830347 -116.54396552,1201.0 " moovel_rot="4.0" moovel_centroid="-123.010081207,1211.4478328481998" moovel_centroidlatlon="13.30560088594687,52.51314451841752"/>
  <polygon id="251950874" class="tile" points="-133.085383506,1201.0 -157.346883553,1216.91777028 -140.986131807,1244.15418714 -137.065757033,1242.25102352 -130.658022557,1238.11078099 -132.248784254,1228.73866519 -130.67848917,1204.59039796 -133.085383506,1201.0 " moovel_rot="31.8" moovel_centroid="-140.922508403,1222.3459444538553" moovel_centroidlatlon="13.31574193346288,52.46688587464022"/>
  <polygon id="43684177" class="tile" points="-158.358466263,1279.55256808 -174.821602662,1288.8164969 -180.931765414,1292.33935736 -222.074859707,1244.00325154 -167.243075385,1201.0 -161.579382246,1211.12818426 -162.626335664,1211.88956118 -184.048482654,1227.30759397 -200.880279953,1240.17187375 -196.623725496,1246.15407491 -182.076497126,1237.87481349 -173.2539244,1230.45292668 -161.889201872,1223.84723431 -160.413149904,1226.23365335 -158.346883553,1230.59694821 -176.626072306,1240.97281167 -175.716900766,1242.82450719 -178.521128017,1244.43101833 -158.358466263,1279.55256808 " moovel_rot="-59.6" moovel_centroid="-186.162801806,1250.8497168015508" moovel_centroidlatlon="13.40757750760447,52.39274967812605"/>
  <polygon id="32597927" class="tile" points="-238.021636826,1202.08057731 -223.076427028,1201.0 -223.074859707,1217.15229623 -236.643471243,1217.87331828 -238.021636826,1202.08057731 " moovel_rot="49.4" moovel_centroid="-230.18947718,1209.3956533119408" moovel_centroidlatlon="13.20090574456463,52.57078812577272"/>
  <polygon id="101326361" class="tile" points="-256.292238456,1201.0 -257.108498168,1220.67531399 -242.824346737,1221.74795271 -243.585646354,1233.56878133 -239.029827757,1234.03900091 -239.021636826,1210.64133006 -241.421210564,1206.77239391 -245.49901708,1202.19395331 -256.292238456,1201.0 " moovel_rot="78.5" moovel_centroid="-247.412731966,1214.3213249233518" moovel_centroidlatlon="13.164026937343714,52.55031774861209"/>
  <polygon id="190972012" class="tile" points="-258.112690635,1208.54090469 -273.915158359,1208.51124165 -293.210720475,1201.0 -293.632080325,1242.34839661 -304.456474044,1242.24841482 -304.521678097,1248.73372346 -304.619183932,1251.17705047 -289.565586371,1251.86401236 -289.535693593,1267.20785826 -258.108498168,1267.12248475 -258.112690635,1208.54090469 " moovel_rot="15.2" moovel_centroid="-276.793096273,1236.6198184229395" moovel_centroidlatlon="13.647309720400925,52.52121506535397"/>
  <polygon id="89863908" class="tile" points="-305.619183932,1201.04690008 -322.144181336,1201.0 -322.164965988,1238.24588146 -305.640017827,1238.29281426 -305.619183932,1201.04690008 " moovel_rot="-56.4" moovel_centroid="-313.892086051,1219.6463897089138" moovel_centroidlatlon="13.1400581,52.404350349999994"/>
  <polygon id="38816927" class="tile" points="-323.164965988,1221.01830142 -327.064360988,1257.03229902 -354.745059852,1254.77218454 -363.217118255,1253.71667324 -362.629082159,1250.42221485 -361.443328977,1246.23321523 -357.614233509,1217.98076129 -359.636125211,1217.53716325 -358.704457843,1210.84547552 -363.254404171,1210.30123146 -362.882138211,1206.95105172 -362.79110224,1205.89320804 -362.793062369,1204.82558983 -362.337248993,1201.0 -351.718234089,1202.52326102 -347.913621881,1203.06619724 -348.784988634,1210.27043052 -337.315319287,1211.43192438 -338.241594662,1219.15857831 -323.164965988,1221.01830142 " moovel_rot="-6.0" moovel_centroid="-344.280793863,1232.6242910394915" moovel_centroidlatlon="13.329096549224497,52.49803486248074"/>
  <polygon id="37285230" class="tile" points="-375.919429658,1244.16471107 -364.254404171,1240.63343234 -364.259946648,1201.0 -386.039320499,1206.91732491 -375.919429658,1244.16471107 " moovel_rot="15.2" moovel_centroid="-372.88842191,1221.257446648529" moovel_centroidlatlon="13.399853585631417,52.38462623555509"/>
  <polygon id="125509231" class="tile" points="-387.045954541,1226.50668762 -387.039320499,1201.0607285 -434.049363638,1201.0 -434.053543642,1211.38431293 -434.064894453,1274.71560735 -425.799126592,1274.7266812 -425.805876437,1278.40479281 -392.008121815,1278.44660272 -391.99234437,1226.49881697 -387.045954541,1226.50668762 " moovel_rot="-78.8" moovel_centroid="-411.991103085,1238.4140574182654" moovel_centroidlatlon="13.448910260743824,52.421669844438455"/>
  <polygon id="303770872" class="tile" points="-435.069749496,1204.47849599 -435.064894453,1249.1834212 -446.673542723,1249.18787947 -446.728137391,1245.19480958 -455.551257977,1245.23452565 -455.541990764,1217.86008482 -451.561226402,1217.84323442 -451.552112085,1207.6680031 -452.298777817,1201.17422651 -450.850579076,1201.0 -450.246429993,1206.21466847 -435.069749496,1204.47849599 " moovel_rot="0.4" moovel_centroid="-444.563169196,1227.1744942072369" moovel_centroidlatlon="13.336467503529216,52.485363666092795"/>
  <polygon id="298889688" class="tile" points="-473.333781914,1201.0 -483.406132,1209.08675208 -494.834416931,1215.78203989 -494.801197112,1258.76056657 -478.267551251,1257.52922381 -478.890734593,1246.22712184 -456.551257977,1233.94994016 -473.333781914,1201.0 " moovel_rot="-66.5" moovel_centroid="-479.793533462,1230.487759603015" moovel_centroidlatlon="13.622423193391663,52.44693074012951"/>
  <polygon id="383545092" class="tile" points="-519.668083705,1201.0 -519.879473367,1235.93522061 -519.872553732,1245.53535449 -511.045349512,1243.42404015 -495.834416931,1239.54268534 -505.060799216,1206.59429144 -506.026651255,1201.20821856 -519.668083705,1201.0 " moovel_rot="36.0" moovel_centroid="-510.382276318,1223.9757786722855" moovel_centroidlatlon="13.519461918550066,52.501277897388285"/>
  <polygon id="185776168" class="tile" points="-520.900265856,1201.0 -520.879473367,1232.96010585 -524.997755231,1232.96725104 -525.018550905,1201.00714481 -520.900265856,1201.0 " moovel_rot="83.3" moovel_centroid="-522.949011345,1216.983623366547" moovel_centroidlatlon="13.503805950000002,52.575522050000004"/>
  <polygon id="52083671" class="tile" points="-535.297158829,1214.61040005 -542.857134562,1215.13585739 -542.701128684,1223.43852237 -531.830308294,1222.8646496 -526.018550905,1222.48652631 -526.058456221,1211.67515484 -526.084983417,1202.63587792 -526.038332527,1201.0 -532.257308849,1201.16050477 -535.53645921,1201.23698871 -535.297158829,1214.61040005 " moovel_rot="-92.4" moovel_centroid="-532.692038682,1213.601611138214" moovel_centroidlatlon="13.323586923534252,52.50930819133452"/>
  <polygon id="33373285" class="tile" points="-543.859609006,1204.48612454 -543.857134562,1234.99912595 -543.875945459,1242.51309378 -554.309148295,1242.53056846 -560.547954577,1239.50646917 -560.542759857,1234.07394943 -560.526891288,1211.17209973 -560.524055685,1209.33200119 -560.521239717,1204.35953661 -554.607877144,1201.0 -543.859609006,1204.48612454 " moovel_rot="2.2" moovel_centroid="-552.147031482,1222.3423616143343" moovel_centroidlatlon="13.351691349862346,52.49926857025753"/>
  <polygon id="282493549" class="tile" points="-561.547954577,1228.08264365 -583.417323949,1227.08713552 -581.611011785,1201.0 -561.551489745,1201.52833019 -561.547954577,1228.08264365 " moovel_rot="-46.6" moovel_centroid="-572.011868978,1214.6162851599272" moovel_centroidlatlon="13.435229132478453,52.4169596023522"/>
  <polygon id="396117861" class="tile" points="-589.702382902,1201.0 -589.694070262,1219.08393144 -584.901901264,1219.34714206 -584.417323949,1202.1672813 -586.094225587,1201.03371742 -589.702382902,1201.0 " moovel_rot="49.5" moovel_centroid="-587.186594755,1210.0536980647967" moovel_centroidlatlon="13.33968751178084,52.446593108419854"/>
  <polygon id="236004221" class="tile" points="-43.3904304396,1385.70016782 -0.0129058627412,1375.63117485 0.0,1328.82503634 -11.7845040606,1328.84865665 -11.6725668127,1301.7554722 -36.182404864,1303.28904795 -36.3018424771,1335.25577144 -36.6023719473,1340.81622269 -45.8056988136,1341.77306629 -43.3904304396,1385.70016782 " moovel_rot="-8.6" moovel_centroid="-22.606421134555305,1346.63457161" moovel_centroidlatlon="13.179744983436382,52.53942908668949"/>
  <polygon id="27890373" class="tile" points="-47.8477147651,1341.75941978 -78.0195876258,1342.32185548 -78.0041055215,1301.7554722 -47.8056988136,1301.80508053 -47.8477147651,1341.75941978 " moovel_rot="13.8" moovel_centroid="-62.9575287727,1321.90778416" moovel_centroidlatlon="13.382516796585382,52.40580003229724"/>
  <polygon id="9871851" class="tile" points="-96.0576841467,1307.87590865 -89.4739008338,1307.96798265 -89.7407387006,1301.7554722 -88.8058557007,1301.757102 -79.0206437965,1301.78214574 -79.0195876258,1305.86131889 -79.0356927543,1334.5747881 -90.0538335747,1334.19985001 -90.0569992536,1332.36844767 -95.7492064943,1332.06034789 -96.0576841467,1307.87590865 " moovel_rot="57.5" moovel_centroid="-86.9055466828,1318.68228054" moovel_centroidlatlon="13.307025730653592,52.574744531268536"/>
  <polygon id="37901737" class="tile" points="-138.860635538,1382.48921466 -138.846921047,1335.69783328 -135.023392862,1335.69985127 -135.017557904,1318.27135278 -164.343752712,1318.19829334 -167.453052731,1318.18741363 -167.453212491,1301.7554722 -97.0576841467,1301.94270332 -97.071295999,1385.89611597 -138.851791175,1385.77801548 -138.860635538,1382.48921466 " moovel_rot="-44.0" moovel_centroid="-121.863439764,1340.08173725" moovel_centroidlatlon="13.390495894773043,52.41935372718692"/>
  <polygon id="36794514" class="tile" points="-168.898620684,1316.28434957 -168.506335099,1322.83862107 -168.453212491,1366.07393421 -169.389650973,1373.69823431 -224.578227487,1354.82101817 -204.485994312,1301.7554722 -168.898620684,1316.28434957 " moovel_rot="-7.6" moovel_centroid="-192.093479745,1338.62354428" moovel_centroidlatlon="13.576203386292736,52.490032895521615"/>
  <polygon id="43383941" class="tile" points="-225.578227487,1340.86594752 -243.943923122,1340.8280204 -243.94432513,1324.32549546 -243.955559658,1301.7554722 -225.589807258,1301.79335285 -225.578227487,1340.86594752 " moovel_rot="-50.7" moovel_centroid="-234.765749455,1321.31056625" moovel_centroidlatlon="13.22965679069002,52.54663315869602"/>
  <polygon id="391126580" class="tile" points="-266.325105435,1318.45817078 -258.396362281,1317.84403035 -257.680053634,1317.79805156 -245.521284654,1316.96508992 -245.227527541,1321.16786803 -244.955559658,1324.91443689 -257.656032869,1325.55377065 -258.376032329,1325.65677842 -258.832257987,1325.70833019 -265.861797946,1326.34483114 -262.9989881,1367.74528316 -289.986926431,1369.6405226 -290.327313483,1364.73064272 -295.247051281,1365.08093509 -296.367931397,1349.13666349 -299.184213342,1349.33764877 -299.359925842,1347.13648267 -299.491700014,1345.04934933 -296.649757097,1344.84835084 -299.48795321,1304.43449469 -287.755657195,1303.80707716 -279.574683325,1303.10157571 -267.600826293,1301.7554722 -266.325105435,1318.45817078 " moovel_rot="-58.6" moovel_centroid="-279.315736865,1334.74487126" moovel_centroidlatlon="13.386482900783006,52.540087917104685"/>
  <polygon id="221882942" class="tile" points="-310.708221706,1301.7554722 -310.706653638,1310.83442717 -314.937678842,1310.83510783 -314.934006391,1318.85824073 -300.491700014,1318.85796169 -300.496925115,1301.75588923 -310.708221706,1301.7554722 " moovel_rot="45.0" moovel_centroid="-306.775296156,1311.04566687" moovel_centroidlatlon="13.36328401606726,52.55089266619491"/>
  <polygon id="289115698" class="tile" points="-319.731230244,1335.77508626 -319.817391628,1330.21460901 -316.840252926,1330.17586824 -316.969056869,1321.62679346 -315.943194357,1321.61359123 -315.937678842,1301.7554722 -332.419151513,1302.22691394 -334.873530207,1302.67349599 -334.358346853,1335.97528341 -325.951969635,1335.86140736 -320.556198311,1335.78655737 -319.731230244,1335.77508626 " moovel_rot="-78.0" moovel_centroid="-325.644307638,1318.276694" moovel_centroidlatlon="13.443047265950682,52.469699880486765"/>
  <polygon id="104505900" class="tile" points="-343.76688362,1301.7554722 -346.077673347,1305.30945976 -343.268507093,1307.25540014 -348.85212913,1315.69785749 -338.182657401,1322.67964455 -335.873530207,1318.81617698 -335.879200251,1306.69239106 -343.76688362,1301.7554722 " moovel_rot="42.3" moovel_centroid="-341.057743837,1312.51977795" moovel_centroidlatlon="13.180403864098672,52.53650416912171"/>
  <polygon id="133039331" class="tile" points="-349.85212913,1301.76894998 -355.018600465,1301.7554722 -355.02316457,1313.79183207 -349.866191754,1313.81072772 -349.85212913,1301.76894998 " moovel_rot="-60.3" moovel_centroid="-352.439825414,1307.77990075" moovel_centroidlatlon="13.284317322525167,52.440180784915874"/>
  <polygon id="287236315" class="tile" points="-360.725759554,1301.7554722 -360.778888737,1308.12576289 -356.02758515,1308.14696421 -356.02316457,1327.71192405 -356.026261567,1332.71776267 -363.43141702,1332.70854844 -366.599619805,1332.71260594 -366.603621061,1326.6244342 -367.686520809,1326.6284462 -367.682965164,1324.34419897 -372.301175307,1324.33880748 -372.30311299,1308.53387452 -367.042932447,1308.53001524 -367.045449594,1303.1304628 -360.725759554,1301.7554722 " moovel_rot="-2.1" moovel_centroid="-363.467438896,1318.12998764" moovel_centroidlatlon="13.354692637122133,52.41308746845842"/>
  <polygon id="99252829" class="tile" points="-373.30311299,1301.7554722 -377.844900335,1301.81260969 -377.815153492,1309.31942401 -373.315542503,1309.33102839 -373.30311299,1301.7554722 " moovel_rot="3.9" moovel_centroid="-375.566260659,1305.54874237" moovel_centroidlatlon="13.178499167964862,52.5320138515427"/>
  <polygon id="331035332" class="tile" points="-378.844900335,1301.7554722 -415.677275607,1301.82254654 -415.715663154,1364.58052164 -378.890974255,1364.50534755 -378.844900335,1301.7554722 " moovel_rot="43.5" moovel_centroid="-397.282599456,1333.16488054" moovel_centroidlatlon="13.463975943202954,52.426885134532"/>
  <polygon id="91711650" class="tile" points="-416.715663154,1331.70297028 -416.744963314,1302.11499494 -428.230395957,1301.89778844 -435.913151774,1301.7554722 -436.123292668,1312.53776455 -436.487658651,1331.33656587 -425.412448091,1331.54899183 -416.715663154,1331.70297028 " moovel_rot="-74.6" moovel_centroid="-426.466468869,1316.8052917" moovel_centroidlatlon="13.323728806512452,52.52099437655998"/>
  <polygon id="28955595" class="tile" points="-452.786073876,1301.7554722 -437.487658651,1381.8006242 -497.232406149,1385.84266371 -497.958059029,1424.4919547 -535.807486707,1422.44904832 -531.957576386,1331.70677475 -535.681658748,1306.39679065 -452.786073876,1301.7554722 " moovel_rot="43.5" moovel_centroid="-493.493323552,1355.21155532" moovel_centroidlatlon="13.22809420883184,52.4474666137873"/>
  <polygon id="27719375" class="tile" points="-537.453633065,1301.7554722 -536.807486707,1365.08049833 -543.811616258,1365.14355155 -543.747784173,1302.22676064 -537.453633065,1301.7554722 " moovel_rot="-50.2" moovel_centroid="-540.448713317,1334.1114808" moovel_centroidlatlon="13.127687122727663,52.444446866016825"/>
  <polygon id="91711651" class="tile" points="-550.025541932,1301.78797904 -545.57271481,1301.7554722 -544.811616258,1303.03531992 -545.089673166,1310.38235376 -550.014081553,1310.61685417 -550.025541932,1301.78797904 " moovel_rot="63.0" moovel_centroid="-547.510984506,1306.1318882" moovel_centroidlatlon="13.323640956376265,52.52002532689129"/>
  <polygon id="312744211" class="tile" points="-586.038651917,1342.15476413 -584.115837613,1332.25502478 -579.07248383,1333.10389179 -571.561207599,1334.63940946 -570.591029797,1330.24534876 -564.829643762,1331.08041481 -559.366272357,1301.7554722 -551.025541932,1303.45253151 -551.025623369,1362.82996835 -563.98078125,1366.88888817 -562.157716991,1357.73705365 -582.603618365,1353.29262085 -584.51341178,1350.41135249 -583.067791217,1342.70039672 -586.038651917,1342.15476413 " moovel_rot="74.9" moovel_centroid="-563.4980985,1338.3609543" moovel_centroidlatlon="13.405280346677772,52.510201630644964"/>
  <polygon id="221109262" class="tile" points="-30.2754496694,1424.4919547 -36.1980522159,1432.02824709 -38.0509120915,1434.38722512 -34.0285625864,1437.53980595 -36.9111378718,1441.21643227 -30.893833036,1445.93816407 -38.0555374838,1455.05592017 -34.1465203816,1458.12034416 -37.0626724312,1461.82950593 -27.2745105268,1469.52108016 -32.5135813812,1476.04473239 -27.5802680321,1479.53269923 -10.3830322366,1457.65952161 -7.41205826215,1459.7751556 -4.10476359297,1455.51944838 -2.03772109151,1452.89200644 -2.87976455726,1452.29182088 0.0,1448.6026964 -5.7805895431,1443.71253429 -30.2754496694,1424.4919547 " moovel_rot="44.1" moovel_centroid="-22.22205483930956,1450.37434616" moovel_centroidlatlon="13.401760684752679,52.46436758223144"/>
  <polygon id="105510498" class="tile" points="-53.7723248837,1450.63238373 -40.1541051866,1451.42075203 -40.0555374838,1424.52847642 -53.7751623199,1424.4919547 -53.7723248837,1450.63238373 " moovel_rot="12.4" moovel_centroid="-46.9068261324,1437.75319746" moovel_centroidlatlon="13.284762701543576,52.57145719678672"/>
  <polygon id="25993094" class="tile" points="-54.7751623199,1424.4919547 -67.0781924423,1424.4919547 -67.0781924423,1449.7475875 -54.7751623199,1449.38585411 -54.7751623199,1424.4919547 " moovel_rot="0" moovel_centroid="-60.9414678704,1437.02955519" moovel_centroidlatlon="13.343295821442622,52.5687936230164"/>
  <polygon id="103715883" class="tile" points="-82.9057936736,1424.51533453 -68.0962860454,1424.4919547 -68.0781924423,1448.60294694 -82.8876929386,1448.62632746 -82.9057936736,1424.51533453 " moovel_rot="84.5" moovel_centroid="-75.4919913114,1436.55913994" moovel_centroidlatlon="13.29326455,52.458526850000005"/>
  <polygon id="26995766" class="tile" points="-117.782415201,1482.49305014 -117.762043955,1424.76904299 -102.511701671,1424.4919547 -102.28668064,1451.69066607 -83.9057936736,1451.56882743 -85.2384673337,1488.49504612 -87.8072197801,1490.05275694 -99.5312380845,1490.32776233 -107.405834632,1490.50788886 -111.666148667,1490.50674218 -116.611973265,1490.211775 -117.782415201,1482.49305014 " moovel_rot="-86.6" moovel_centroid="-103.360185062,1462.75140594" moovel_centroidlatlon="13.529332544275302,52.452482597499966"/>
  <polygon id="88508626" class="tile" points="-169.979135001,1498.31114693 -145.806035473,1424.4919547 -118.782415201,1434.62009506 -122.629561305,1446.22190986 -118.80688264,1448.38828967 -118.796856045,1473.79963672 -118.790378864,1515.14180319 -169.979135001,1498.31114693 " moovel_rot="56.1" moovel_centroid="-139.184477659,1472.29696741" moovel_centroidlatlon="13.379340874258926,52.42461965452297"/>
  <polygon id="382974417" class="tile" points="-171.00916668,1424.4919547 -171.430347519,1540.76790223 -170.979135001,1547.6011139 -173.347018268,1547.6054301 -172.969262401,1546.25500252 -173.034979214,1540.78672739 -176.15494324,1537.33751234 -176.053122505,1429.80308771 -171.00916668,1424.4919547 " moovel_rot="-5.2" moovel_centroid="-173.594898454,1484.18191745" moovel_centroidlatlon="13.32227525807425,52.50413036229633"/>
  <polygon id="305248553" class="tile" points="-181.027776953,1471.59222162 -177.15494324,1472.1414392 -182.739434962,1494.8305816 -182.539065501,1494.81553134 -187.606334986,1514.10972507 -187.814364695,1514.05752865 -191.427508421,1514.38580221 -195.11796458,1514.72207012 -196.053470366,1518.52692119 -204.770547322,1519.25824768 -205.579118981,1515.71785356 -201.317129202,1513.1027216 -201.508774718,1509.89447942 -205.459053198,1444.83269599 -205.506674416,1444.06178977 -205.653013997,1441.37521747 -201.202798154,1435.16669328 -193.798764531,1424.4919547 -192.434078937,1425.41771799 -187.481553429,1428.77811594 -187.111505243,1429.04129868 -184.801236438,1456.56976684 -181.027776953,1471.59222162 " moovel_rot="-74.2" moovel_centroid="-193.416462206,1472.70123532" moovel_centroidlatlon="13.341521826064248,52.477243863007985"/>
  <polygon id="144531568" class="tile" points="-245.028115389,1424.50379638 -249.086724487,1426.42556401 -248.680298182,1446.86415546 -253.21734004,1446.95668759 -252.375096322,1507.27079192 -206.712140408,1507.21697743 -206.653013997,1424.4919547 -245.028115389,1424.50379638 " moovel_rot="10.2" moovel_centroid="-229.228398037,1466.53848086" moovel_centroidlatlon="13.428821832988229,52.56025958713385"/>
  <polygon id="97022763" class="tile" points="-254.237330368,1424.4919547 -269.997897469,1424.530891 -269.975144501,1467.55627289 -254.21734004,1467.52982872 -254.237330368,1424.4919547 " moovel_rot="19.0" moovel_centroid="-262.10654734,1446.02660599" moovel_centroidlatlon="13.256967166532899,52.54426062928156"/>
  <polygon id="106886294" class="tile" points="-272.807912577,1441.70514154 -284.779366682,1439.53900562 -285.155679592,1433.87864012 -283.041529499,1430.44982574 -292.715850738,1424.4919547 -291.937725078,1467.34436183 -298.994962552,1467.68112765 -298.399929495,1503.32286941 -299.013763455,1509.50267276 -286.427771401,1506.88440651 -270.997897469,1507.40104099 -272.807912577,1441.70514154 " moovel_rot="-65.4" moovel_centroid="-284.57554318,1473.94608255" moovel_centroidlatlon="13.470165245314199,52.50799254608155"/>
  <polygon id="87719978" class="tile" points="-300.013763455,1455.09167521 -311.627338633,1455.05937153 -311.709272445,1433.08321463 -300.021739291,1424.4919547 -300.013763455,1455.09167521 " moovel_rot="-49.8" moovel_centroid="-305.525769748,1441.79833937" moovel_centroidlatlon="13.308937482406103,52.4779881512256"/>
  <polygon id="240130327" class="tile" points="-312.709272445,1424.4919547 -361.43410027,1456.86100103 -361.41102422,1495.16512431 -355.366893569,1495.05697081 -312.761075837,1494.31416681 -312.709272445,1424.4919547 " moovel_rot="51.5" moovel_centroid="-334.71503888,1466.89490918" moovel_centroidlatlon="13.428578840669061,52.60769907711746"/>
  <polygon id="122618015" class="tile" points="-377.018182586,1424.52325221 -362.43410027,1424.4919547 -362.449218037,1451.79825173 -377.033268642,1451.82957402 -377.018182586,1424.52325221 " moovel_rot="52.0" moovel_centroid="-369.733693487,1438.16075322" moovel_centroidlatlon="13.15383865,52.471200249999995"/>
  <polygon id="43657081" class="tile" points="-410.283012383,1426.6173191 -410.277610851,1424.53716145 -378.033268642,1424.4919547 -378.043663967,1461.23279107 -383.184680694,1461.24307526 -383.178504391,1464.0121131 -409.906427939,1464.04477782 -409.902578941,1462.15656978 -409.898466065,1450.62769472 -391.190385117,1450.60570763 -391.186804442,1443.240988 -410.293088643,1443.26383862 -410.283012383,1426.6173191 " moovel_rot="69.5" moovel_centroid="-393.431601091,1443.63748996" moovel_centroidlatlon="13.31651933066576,52.56608471583927"/>
  <polygon id="198832549" class="tile" points="-411.293088643,1424.49323439 -411.293465807,1444.91062328 -418.179187269,1444.90933626 -418.178812149,1424.4919547 -411.293088643,1424.49323439 " moovel_rot="-15.6" moovel_centroid="-414.736138261,1434.70128665" moovel_centroidlatlon="13.275198049999998,52.520503649999995"/>
  <polygon id="295151303" class="tile" points="-466.225124191,1424.4919547 -419.179187269,1426.34676051 -421.129320584,1460.00084694 -438.333511247,1459.48812841 -439.049790651,1486.59360375 -444.27274697,1486.3562745 -452.126772298,1486.0083197 -451.528219032,1464.86050006 -466.18664593,1464.55126005 -466.225124191,1424.4919547 " moovel_rot="73.2" moovel_centroid="-444.247999826,1448.4745802" moovel_centroidlatlon="13.416167138008644,52.51199789796544"/>
  <polygon id="181322848" class="tile" points="-467.331990902,1424.80879362 -467.225124191,1456.88589528 -475.767781914,1456.98422394 -475.767781914,1452.88719473 -475.767781914,1424.4919547 -467.331990902,1424.80879362 " moovel_rot="0" moovel_centroid="-471.53224097,1440.82668592" moovel_centroidlatlon="13.473164185813648,52.424054289083244"/>
  <polygon id="379377515" class="tile" points="-491.045655179,1428.53836451 -476.767781914,1459.68012381 -497.094846506,1468.74662247 -500.033388891,1468.5950241 -502.090183416,1466.0253635 -502.033563499,1459.29764948 -502.079636897,1424.50271228 -497.210628215,1424.4919547 -497.544896946,1463.63669579 -483.358561972,1457.52563314 -494.440186349,1432.75042969 -491.045655179,1428.53836451 " moovel_rot="-84.6" moovel_centroid="-492.882957055,1448.92883388" moovel_centroidlatlon="13.343369459131914,52.50042495381663"/>
  <polygon id="272006964" class="tile" points="-539.792461462,1501.00596786 -534.429297703,1531.94747238 -529.699628404,1531.82540953 -529.189023706,1536.51536764 -506.459053544,1532.28958218 -507.782128605,1519.96013819 -503.114551855,1519.03199679 -508.805693748,1482.66519283 -510.981845019,1468.55919762 -503.090183416,1466.74916872 -509.42391556,1427.21469241 -519.223119272,1429.32308579 -519.818214259,1424.4919547 -526.840369634,1425.98599288 -523.312586794,1445.19873601 -525.134858779,1445.53552768 -523.663686733,1453.56028833 -520.510405011,1452.97629265 -516.780436572,1473.30722937 -514.885533399,1484.0169205 -534.739383701,1488.08002144 -532.495933223,1499.43712318 -539.792461462,1501.00596786 " moovel_rot="30.9" moovel_centroid="-518.709615598,1489.26445174" moovel_centroidlatlon="13.574963475505486,52.57419813928604"/>
  <polygon id="27811404" class="tile" points="-0.047603979148,1548.73056292 0.0,1626.39091631 -5.75471191015,1637.06216113 -66.4637172818,1580.33012657 -61.23444965,1547.6054301 -0.047603979148,1548.73056292 " moovel_rot="-85.9" moovel_centroid="-27.432580008441597,1582.19650896" moovel_centroidlatlon="13.356633547160474,52.58668399680048"/>
  <polygon id="131293467" class="tile" points="-74.2882242184,1547.85149862 -73.9889360957,1555.53985415 -73.2090927564,1559.36692281 -68.4774327017,1559.32477677 -68.4637172818,1547.6054301 -74.2882242184,1547.85149862 " moovel_rot="78.7" moovel_centroid="-71.2155189282,1553.36993579" moovel_centroidlatlon="13.224659705601377,52.624018994726526"/>
  <polygon id="174198763" class="tile" points="-75.2882242184,1574.12703733 -96.6780375419,1574.0984046 -96.6947636342,1547.6054301 -75.3049218044,1547.63405519 -75.2882242184,1574.12703733 " moovel_rot="-75.0" moovel_centroid="-85.9914862851,1560.86622886" moovel_centroidlatlon="13.38704215,52.503161399999996"/>
  <polygon id="140972660" class="tile" points="-97.7385820681,1603.95758273 -97.6947636342,1547.61878844 -115.967015658,1547.6054301 -115.967015658,1552.55469466 -116.010833924,1603.94422439 -100.597733995,1603.94422439 -97.7385820681,1603.95758273 " moovel_rot="-90" moovel_centroid="-106.852044144,1575.77950515" moovel_centroidlatlon="13.560213379962113,52.540668706889136"/>
  <polygon id="51105289" class="tile" points="-117.010833924,1547.69074669 -117.044054429,1601.97046484 -149.122538734,1601.89514691 -149.085237852,1547.6054301 -140.547598133,1547.63207178 -117.010833924,1547.69074669 " moovel_rot="-22.2" moovel_centroid="-133.06606958,1574.7920036" moovel_centroidlatlon="13.460637746833077,52.42450651034385"/>
  <polygon id="135081874" class="tile" points="-150.122538734,1609.38360005 -150.187367445,1554.08569746 -150.617898948,1550.03638999 -152.678011383,1548.43370998 -154.476607877,1547.71203701 -158.301667746,1547.6054301 -161.095531942,1548.82255517 -162.403905072,1551.62206704 -163.143373375,1608.74831879 -162.538971209,1611.58966563 -160.263088295,1613.68846306 -157.90244131,1613.99078255 -154.650163566,1614.28110175 -152.055215488,1613.24488989 -150.597884669,1611.78984339 -150.122538734,1609.38360005 " moovel_rot="15.7" moovel_centroid="-156.467811984,1581.27911288" moovel_centroidlatlon="13.343429393961426,52.479506824433045"/>
  <polygon id="284806016" class="tile" points="-164.144334723,1547.63973931 -168.469313847,1547.63350243 -188.71963642,1547.6054301 -188.718663052,1584.43512234 -170.734697407,1584.46080503 -164.143373375,1584.46947672 -164.144334723,1547.63973931 " moovel_rot="-14.9" moovel_centroid="-176.431478229,1566.03752656" moovel_centroidlatlon="13.232544149364431,52.5267950992943"/>
  <polygon id="229320874" class="tile" points="-189.71963642,1547.61075554 -189.727696415,1563.25629409 -201.898728296,1563.25096928 -201.890668312,1547.6054301 -189.71963642,1547.61075554 " moovel_rot="0.9" moovel_centroid="-195.809182402,1555.43086225" moovel_centroidlatlon="13.402949300000003,52.38849474999999"/>
  <polygon id="52072607" class="tile" points="-202.981555945,1547.6054301 -207.118090911,1547.65669294 -218.234223665,1547.62229707 -219.172259865,1646.06080867 -202.898728296,1646.27442055 -202.981555945,1547.6054301 " moovel_rot="-4.3" moovel_centroid="-210.821330428,1597.43456503" moovel_centroidlatlon="13.529363709120602,52.51230974663544"/>
  <polygon id="124129742" class="tile" points="-220.172259865,1553.45718724 -220.191590213,1568.40639812 -223.36304914,1570.74705837 -231.886848124,1572.54111573 -230.695629892,1584.9935662 -254.678666837,1588.96852511 -254.696354258,1547.6054301 -220.172259865,1553.45718724 " moovel_rot="37.7" moovel_centroid="-240.093336569,1567.08158839" moovel_centroidlatlon="13.24772362921624,52.446177028677184"/>
  <polygon id="40071053" class="tile" points="-255.696354258,1604.10854487 -255.732173293,1567.6278559 -287.716438087,1564.98693329 -286.30928216,1547.97099161 -291.820194061,1547.6054301 -292.321586881,1553.76564866 -296.619238656,1600.69607646 -282.957286596,1602.41668625 -267.701345041,1603.27695529 -255.696354258,1604.10854487 " moovel_rot="-86.5" moovel_centroid="-276.263467954,1582.88863029" moovel_centroidlatlon="13.400917709011523,52.548916060041314"/>
  <polygon id="32388477" class="tile" points="-297.647406554,1588.37479502 -297.622217912,1553.68247882 -297.619238656,1547.6054301 -314.644514164,1547.75660956 -314.405577923,1587.85477143 -297.647406554,1588.37479502 " moovel_rot="-21.7" moovel_centroid="-306.055548269,1567.84435834" moovel_centroidlatlon="13.45633681758932,52.501177884375636"/>
  <polygon id="258870664" class="tile" points="-341.655625127,1636.97563372 -378.247993472,1636.98880316 -378.295082602,1547.62806537 -329.403270934,1547.6054301 -329.386346333,1576.7842669 -315.654653894,1576.77488538 -315.644514164,1595.14280044 -345.611621125,1595.15799926 -345.595419558,1626.26788911 -341.659612098,1626.26486045 -341.655625127,1636.97563372 " moovel_rot="-88.4" moovel_centroid="-354.519632565,1588.26396832" moovel_centroidlatlon="13.581407000270362,52.43731908261786"/>
  <polygon id="309059741" class="tile" points="-379.295082602,1547.62889754 -391.020692741,1547.6054301 -391.084330407,1624.80652729 -379.358728579,1624.83003284 -379.295082602,1547.62889754 " moovel_rot="-12.3" moovel_centroid="-385.189708096,1586.2177174" moovel_centroidlatlon="13.594989649999999,52.52701035"/>
  <polygon id="256893782" class="tile" points="-400.55704788,1641.78037462 -392.088761174,1640.51154658 -396.380513809,1589.35953287 -392.084330407,1548.55691431 -398.971815689,1547.6054301 -404.214263727,1590.15431274 -402.801518344,1624.9852696 -400.55704788,1641.78037462 " moovel_rot="58.7" moovel_centroid="-398.315057225,1597.04496434" moovel_centroidlatlon="13.458375067228133,52.566590253465236"/>
  <polygon id="243689159" class="tile" points="-405.214263727,1613.50840762 -416.331559952,1613.68811129 -416.281842194,1547.94485951 -405.493748109,1547.6054301 -405.362093381,1579.06413633 -405.23369105,1608.65935712 -405.214263727,1613.50840762 " moovel_rot="-89.9" moovel_centroid="-410.827998657,1580.85207989" moovel_centroidlatlon="13.29065707391947,52.5785412188451"/>
  <polygon id="164199812" class="tile" points="-417.697326056,1547.6054301 -423.613438818,1547.71345876 -429.215829391,1547.82579655 -435.280124345,1547.93667586 -435.281066543,1570.1265087 -429.238968631,1570.04071746 -423.236728999,1569.95717108 -417.331559952,1569.86809749 -417.697326056,1547.6054301 " moovel_rot="-30" moovel_centroid="-426.391518647,1558.92312343" moovel_centroidlatlon="13.373655005672966,52.47298754405113"/>
  <polygon id="249629286" class="tile" points="-436.282635651,1547.6054301 -441.939648491,1547.61190381 -441.948631279,1555.23673673 -436.281066543,1555.23312991 -436.282635651,1547.6054301 " moovel_rot="74.8" moovel_centroid="-439.112818104,1551.42298446" moovel_centroidlatlon="13.301265366418306,52.46918152059466"/>
  <polygon id="14352199" class="tile" points="-454.365699644,1547.6054301 -454.338083061,1586.08317616 -443.04605074,1586.16673266 -442.948631279,1547.68379523 -454.365699644,1547.6054301 " moovel_rot="76.9" moovel_centroid="-448.67443458,1566.84947411" moovel_centroidlatlon="13.31724770957176,52.57141454637821"/>
  <polygon id="30951610" class="tile" points="-482.764405044,1547.6054301 -480.742642687,1557.87688407 -463.488961437,1570.06264262 -461.670922729,1569.0517379 -455.365699644,1573.89297255 -464.068020748,1583.14102276 -462.159143365,1584.85713599 -484.830509005,1610.29209124 -489.798871747,1605.66459496 -489.788145297,1557.06591923 -482.764405044,1547.6054301 " moovel_rot="-16.5" moovel_centroid="-478.105710584,1579.95812093" moovel_centroidlatlon="13.358352950761414,52.41701263925771"/>
  <polygon id="272988202" class="tile" points="-492.649915274,1559.11989734 -495.475802497,1559.12563059 -495.485834054,1547.61447933 -490.8089039,1547.6054301 -490.798871747,1559.11658139 -492.649915274,1559.11989734 " moovel_rot="-93.0" moovel_centroid="-493.14235498,1553.36546409" moovel_centroidlatlon="13.37091875099092,52.46990644995059"/>
  <polygon id="154930099" class="tile" points="-496.485834054,1548.9595652 -497.015782266,1562.55924672 -496.490333635,1571.96469475 -511.137485597,1572.67851224 -511.466830353,1562.63747072 -510.269139382,1547.6054301 -496.485834054,1548.9595652 " moovel_rot="-81.8" moovel_centroid="-504.003522967,1560.41675713" moovel_centroidlatlon="13.57610897103803,52.53095373999099"/>
  <polygon id="221349085" class="tile" points="-522.553971361,1547.94146757 -512.476854077,1547.6054301 -512.466830353,1576.64862328 -522.769481595,1576.2353371 -522.741386002,1557.75104416 -522.553971361,1547.94146757 " moovel_rot="43.1" moovel_centroid="-517.572724936,1562.15306121" moovel_centroidlatlon="13.357083628891324,52.55101973484167"/>
  <polygon id="245314471" class="tile" points="-523.769481595,1560.38574109 -535.623958185,1560.39627629 -535.625903518,1547.61596551 -523.771429505,1547.6054301 -523.769481595,1560.38574109 " moovel_rot="-94.7" moovel_centroid="-529.697693184,1554.00085348" moovel_centroidlatlon="13.372897599999998,52.43647645"/>
  <polygon id="56647273" class="tile" points="-17.9015495645,1646.27442055 -52.9894832544,1751.30933055 -59.9204819698,1774.10644964 -56.2001081754,1794.91855731 -16.217759159,1843.74643672 0.0,1834.34815409 -25.9956392325,1807.58039891 -29.713578558,1809.80741018 -41.2300224155,1796.66611717 -37.1869240718,1793.33500222 -41.1046771958,1785.25526881 -42.2335193496,1777.97741181 -40.6104417052,1770.7102704 -0.0196075525135,1651.59861947 -10.0354755901,1648.61836811 -17.9015495645,1646.27442055 " moovel_rot="80.7" moovel_centroid="-31.004926963094693,1744.25320966" moovel_centroidlatlon="13.283102353133462,52.55254920995019"/>
  <polygon id="380426765" class="tile" points="-61.926556991,1659.20785011 -61.9204819698,1646.27442055 -64.664974311,1646.27606641 -64.6710473714,1659.20949655 -61.926556991,1659.20785011 " moovel_rot="73.2" moovel_centroid="-63.2957651709,1652.74195763" moovel_centroidlatlon="13.36262535,52.50371485000001"/>
  <polygon id="177434353" class="tile" points="-117.574268984,1646.27442055 -118.152579495,1665.25384557 -90.7218671691,1665.35020209 -90.8365221614,1689.62577599 -96.3967531068,1689.6061656 -96.5189637652,1714.86926835 -96.0151415393,1721.04933105 -75.4360885447,1725.73324291 -65.7120216362,1714.29541131 -65.6710473714,1646.80198463 -117.574268984,1646.27442055 " moovel_rot="70.8" moovel_centroid="-84.5843516981,1680.39865107" moovel_centroidlatlon="13.610629452970793,52.53395389692934"/>
  <polygon id="213269343" class="tile" points="-131.569800974,1646.27528691 -131.603359187,1686.13465804 -119.186158508,1686.13378718 -119.152579495,1646.27442055 -131.569800974,1646.27528691 " moovel_rot="77.8" moovel_centroid="-125.377974653,1666.2045326" moovel_centroidlatlon="13.28973375,52.5367561"/>
  <polygon id="286198280" class="tile" points="-146.06164421,1646.27442055 -132.603819315,1646.80471813 -132.603359187,1674.06861596 -146.076210438,1674.02879398 -146.06164421,1646.27442055 " moovel_rot="66.0" moovel_centroid="-139.356278552,1660.29625011" moovel_centroidlatlon="13.40972285087491,52.42538333451047"/>
  <polygon id="34879792" class="tile" points="-147.111292829,1646.28612981 -154.302451785,1646.27442055 -154.301226968,1652.47383393 -172.281704587,1652.44244039 -172.247730191,1723.28027761 -147.076210438,1723.32352519 -147.111292829,1646.28612981 " moovel_rot="-38.9" moovel_centroid="-159.459652217,1686.94346105" moovel_centroidlatlon="13.356669527681593,52.47613004273413"/>
  <polygon id="267600125" class="tile" points="-180.587695515,1667.67126003 -173.469734293,1668.72352276 -173.281704587,1646.35069711 -180.599725118,1646.27442055 -180.587695515,1667.67126003 " moovel_rot="-11.2" moovel_centroid="-176.957269643,1657.20756419" moovel_centroidlatlon="13.433938209792673,52.513733098505405"/>
  <polygon id="131293452" class="tile" points="-183.969425,1646.27442055 -181.599725118,1646.3460721 -181.726793382,1651.96717198 -183.968647567,1651.92787773 -183.969425,1646.27442055 " moovel_rot="78.7" moovel_centroid="-182.816853057,1649.10274782" moovel_centroidlatlon="13.223121443323992,52.62423845296469"/>
  <polygon id="48707923" class="tile" points="-184.969425,1646.27442055 -194.552158882,1646.58597856 -194.585480813,1790.006473 -185.071575692,1789.82274128 -184.969425,1646.27442055 " moovel_rot="19.1" moovel_centroid="-189.793920472,1718.08626783" moovel_centroidlatlon="13.390687667709589,52.43301206733372"/>
  <polygon id="33727516" class="tile" points="-195.600780305,1747.25459423 -195.585480813,1646.73154467 -251.336842473,1646.27442055 -251.487487828,1668.9533907 -213.53738344,1669.26592292 -213.404019382,1747.10362172 -195.600780305,1747.25459423 " moovel_rot="-71.3" moovel_centroid="-213.569056773,1684.21424213" moovel_centroidlatlon="13.391471561429316,52.39761053161385"/>
  <polygon id="162789815" class="tile" points="-252.49528222,1646.27442055 -262.050403001,1646.29552006 -262.046401245,1658.91499761 -252.487487828,1658.88840016 -252.49528222,1646.27442055 " moovel_rot="55.3" moovel_centroid="-257.270239832,1652.59375298" moovel_centroidlatlon="13.35511678311064,52.48065950041631"/>
  <polygon id="326747486" class="tile" points="-263.093150676,1690.29102778 -279.615441631,1691.41686604 -279.633097659,1682.92996223 -279.597786591,1674.32231165 -278.640551408,1674.29876028 -278.616867477,1674.32471843 -278.625771445,1671.18007429 -279.612503948,1671.17437878 -279.599624019,1660.54466677 -279.121652486,1660.51368718 -279.097968568,1660.53964535 -279.101830746,1651.78421132 -279.780680962,1651.77689054 -279.770831847,1649.35867719 -270.607323415,1649.34392849 -269.066614646,1649.37420069 -269.056778777,1646.27781722 -266.79868082,1646.27442055 -264.768373143,1646.28028959 -264.778209598,1649.37667409 -263.597703161,1649.3789721 -263.050403001,1649.37465715 -263.093150676,1690.29102778 " moovel_rot="-29.5" moovel_centroid="-271.214048875,1669.74295423" moovel_centroidlatlon="13.33939851371197,52.443590533792836"/>
  <polygon id="25041155" class="tile" points="-315.78493352,1646.27442055 -315.864698173,1747.88233153 -280.780680962,1746.45767667 -282.066041176,1648.03864028 -315.78493352,1646.27442055 " moovel_rot="-28.7" moovel_centroid="-298.713668771,1697.49821098" moovel_centroidlatlon="13.565498818061682,52.569483102084234"/>
  <polygon id="338046071" class="tile" points="-364.16199892,1685.84001611 -361.858658372,1681.5951787 -365.724916966,1679.49110753 -361.613012832,1671.95175014 -357.170484143,1674.37113546 -355.051505763,1670.4677087 -349.876707346,1673.28269597 -349.258999749,1669.23203075 -344.609622332,1669.70840494 -343.68964006,1651.60278436 -343.364242964,1646.27442055 -321.083101266,1647.57596229 -321.355351409,1652.12930517 -316.871182433,1652.39425564 -316.864698173,1656.577985 -316.86811469,1660.15179597 -316.934404722,1724.5088126 -321.043544212,1724.30205969 -320.055616587,1728.95626449 -346.297719006,1739.49804902 -356.869848226,1743.74529595 -357.794039785,1740.63594934 -359.807263353,1733.82964693 -353.358323253,1722.13675891 -350.936758461,1723.37557426 -349.755782619,1721.05945278 -346.972147206,1722.48180589 -344.220471977,1717.13260893 -343.806817799,1696.26097411 -364.16199892,1685.84001611 " moovel_rot="58.4" moovel_centroid="-335.553202881,1692.86673346" moovel_centroidlatlon="13.42464656707846,52.45841687217282"/>
  <polygon id="188137371" class="tile" points="-366.724916966,1646.27442055 -369.119579058,1648.83487891 -369.112710012,1660.78074562 -366.739529709,1663.7296551 -366.724916966,1646.27442055 " moovel_rot="-87.6" moovel_centroid="-367.849706752,1654.90069958" moovel_centroidlatlon="13.320766166511483,52.577991755309036"/>
  <polygon id="231807395" class="tile" points="-370.151112249,1676.6898461 -388.932061129,1676.12031451 -392.117436549,1648.92721898 -370.119579058,1646.27442055 -370.151112249,1676.6898461 " moovel_rot="-70.5" moovel_centroid="-380.171973577,1661.595394" moovel_centroidlatlon="13.439248211841344,52.42435045903152"/>
  <polygon id="395847320" class="tile" points="-406.669180611,1646.27442055 -397.432417862,1655.67409214 -406.678063386,1664.77759809 -404.533872307,1664.82475935 -400.586240164,1664.88748376 -398.337586458,1664.24574166 -396.518266331,1663.06996792 -394.988399578,1661.25038191 -393.985764352,1659.55285677 -393.117436549,1657.64814504 -393.154758712,1654.60995633 -393.660690996,1653.17999586 -394.783659168,1651.01993137 -396.934679073,1649.01646359 -398.902310514,1647.8866928 -403.432667304,1647.35604557 -404.62231522,1647.14161374 -406.669180611,1646.27442055 " moovel_rot="0.2" moovel_centroid="-398.678954669,1656.45838262" moovel_centroidlatlon="13.311830203930164,52.43888056364672"/>
  <polygon id="374498793" class="tile" points="-407.701063332,1646.27442055 -441.730167534,1646.28580196 -441.708907196,1705.64331976 -407.678063386,1705.62119768 -407.701063332,1646.27442055 " moovel_rot="-9.2" moovel_centroid="-424.705063413,1675.95643866" moovel_centroidlatlon="13.480845757018136,52.51206402194468"/>
  <polygon id="344008527" class="tile" points="-451.883839083,1768.07797289 -442.74801569,1766.68148881 -450.893848392,1704.03687624 -449.158325009,1688.65658974 -442.730167534,1661.80416113 -447.33138432,1660.18398251 -445.960438393,1653.28526873 -469.281675603,1646.27442055 -472.963424437,1685.07299522 -463.639949025,1770.59315001 -451.883839083,1768.07797289 " moovel_rot="-82.8" moovel_centroid="-458.298623894,1706.46156617" moovel_centroidlatlon="13.587377478570028,52.559990394470695"/>
  <polygon id="99719342" class="tile" points="-485.924204819,1646.27442055 -485.958499453,1716.18457933 -473.995584626,1716.21233757 -473.963424437,1646.29584962 -485.924204819,1646.27442055 " moovel_rot="-70.9" moovel_centroid="-479.96033865,1681.24283802" moovel_centroidlatlon="13.258036259478633,52.54495239758698"/>
  <polygon id="218035609" class="tile" points="-487.01912136,1651.27867131 -492.023999653,1651.27783346 -492.031094065,1646.27442055 -499.070445928,1646.28114549 -499.066455791,1651.29698796 -504.045676556,1651.31101744 -504.008716142,1708.65202806 -504.009179885,1711.26377977 -504.007516549,1714.17267807 -503.98502695,1743.19100704 -498.395751179,1743.18049329 -498.39489018,1748.65539222 -497.261052242,1748.65515291 -491.317309942,1748.63664231 -491.318170258,1743.16174555 -486.958499453,1743.15857253 -486.97411155,1714.65356656 -491.994836199,1714.66916886 -491.996043403,1708.25508207 -486.981691719,1708.24147893 -487.01912136,1651.27867131 " moovel_rot="17.4" moovel_centroid="-495.608240476,1697.05878521" moovel_centroidlatlon="13.379933379081146,52.44348692698882"/>
  <polygon id="199999681" class="tile" points="-552.614502272,1646.81435095 -506.346249439,1646.27442055 -505.045676556,1698.39734639 -514.424145731,1698.66262657 -552.655049575,1699.73907161 -552.614502272,1646.81435095 " moovel_rot="55.3" moovel_centroid="-529.221505902,1672.93362321" moovel_centroidlatlon="13.429459620819516,52.54538923450299"/>
  <polygon id="79421349" class="tile" points="-584.859325795,1646.27442055 -553.655049575,1647.07697822 -553.963722126,1713.76479881 -561.338561647,1713.66787547 -573.738771174,1713.50177476 -573.417502844,1671.34131983 -584.846663743,1670.80177237 -584.859325795,1646.27442055 " moovel_rot="-78.2" moovel_centroid="-566.395101213,1676.45083315" moovel_centroidlatlon="13.164485716826928,52.419794158693534"/>
  <polygon id="232363034" class="tile" points="-10.3300319206,1875.47620899 -10.3412216239,1843.77076937 -0.00812237653881,1843.74643672 0.0,1875.45780961 -1.87741092704,1875.45745992 -10.3300319206,1875.47620899 " moovel_rot="62.9" moovel_centroid="-5.169747382287427,1859.6110977" moovel_centroidlatlon="13.364091751650069,52.420525406308634"/>
  <polygon id="122387249" class="tile" points="-32.6998966027,1868.64853174 -12.9734831437,1947.34103883 -44.4679990421,1954.55723546 -53.520917014,1920.12888933 -82.2859435907,1926.96668129 -77.4472059116,1872.67073391 -82.338426239,1859.64286563 -77.6581928045,1858.48975851 -17.8777218267,1843.74643672 -15.4061353875,1852.145406 -12.3412216239,1862.53510697 -32.6998966027,1868.64853174 " moovel_rot="1.5" moovel_centroid="-47.0919674348,1896.43843728" moovel_centroidlatlon="13.216023294425248,52.56009925298861"/>
  <polygon id="130006867" class="tile" points="-83.338426239,1876.25985737 -87.9740292261,1875.81922988 -87.8036101271,1843.89250433 -83.3683746359,1843.74643672 -83.338426239,1876.25985737 " moovel_rot="-33.0" moovel_centroid="-85.6145649507,1860.04909598" moovel_centroidlatlon="13.280953867620411,52.48270584077745"/>
  <polygon id="213945431" class="tile" points="-88.9740292261,1934.81921223 -108.728089885,1934.86845287 -108.753078456,1843.79553392 -88.9989235702,1843.74643672 -88.9740292261,1934.81921223 " moovel_rot="33.3" moovel_centroid="-98.8635328913,1889.30737276" moovel_centroidlatlon="13.51620235,52.42038659999999"/>
  <polygon id="211299499" class="tile" points="-111.011298535,1921.02755726 -110.462840537,1887.86677308 -109.753078456,1845.72357893 -126.423531724,1843.74643672 -126.419525779,1852.39449354 -126.318582853,1920.67114418 -111.011298535,1921.02755726 " moovel_rot="-78.3" moovel_centroid="-118.402458888,1882.24198104" moovel_centroidlatlon="13.430685069495722,52.46722983886168"/>
  <polygon id="301660182" class="tile" points="-164.603166593,1893.57854745 -153.19542356,1846.1163674 -152.622196186,1844.89866496 -151.511562271,1844.07773327 -150.110253832,1843.74643672 -148.792243535,1844.33705071 -136.794585358,1851.26831421 -134.48414311,1853.56159273 -132.996479912,1855.13356026 -131.997556611,1856.66609809 -130.596183004,1860.55589618 -128.623077642,1871.45392511 -127.898206969,1877.52284534 -127.439266661,1883.87257124 -127.423531724,1901.81643138 -164.603166593,1893.57854745 " moovel_rot="-35.5" moovel_centroid="-144.181464596,1875.3611218" moovel_centroidlatlon="13.378801869014085,52.49826367917133"/>
  <polygon id="287811088" class="tile" points="-171.886527074,1843.74643672 -165.603166593,1843.98375179 -165.662319438,1853.97113052 -166.122556443,1853.9845311 -166.090360515,1882.85792758 -171.851310971,1882.86405239 -171.886527074,1843.74643672 " moovel_rot="79.1" moovel_centroid="-168.926003603,1863.0494703" moovel_centroidlatlon="13.468186607977417,52.56610977660301"/>
  <polygon id="423164104" class="tile" points="-189.246922409,1843.74643672 -190.222765905,1940.59495336 -172.886527074,1941.07531086 -172.908216302,1843.85412014 -189.246922409,1843.74643672 " moovel_rot="-12.8" moovel_centroid="-181.313330868,1892.79770128" moovel_centroidlatlon="13.592410767296544,52.52016750574766"/>
  <polygon id="138265420" class="tile" points="-191.222765905,1843.74643672 -206.968054958,1843.76772861 -206.977437235,1882.35170477 -191.226027143,1882.32773963 -191.222765905,1843.74643672 " moovel_rot="23.2" moovel_centroid="-199.098662145,1863.04965216" moovel_centroidlatlon="13.275777133622977,52.41933828977662"/>
  <polygon id="384850021" class="tile" points="-223.01699923,1843.75473549 -223.015227142,1880.50600003 -207.977437235,1880.49769926 -207.979194316,1843.74643672 -223.01699923,1843.75473549 " moovel_rot="82.4" moovel_centroid="-215.49721455,1862.12621482" moovel_centroidlatlon="13.55858325,52.52720684999999"/>
  <polygon id="317966076" class="tile" points="-228.086909406,1843.76150622 -228.096597231,1900.53361324 -224.020351612,1900.52745858 -224.01699923,1843.74643672 -228.086909406,1843.76150622 " moovel_rot="35.4" moovel_centroid="-226.055161821,1872.14961414" moovel_centroidlatlon="13.514834613326917,52.56014291986337"/>
  <polygon id="38701456" class="tile" points="-229.096597231,1843.74643672 -245.422227263,1845.8141634 -273.572688318,1879.08664087 -270.62650487,1910.70178514 -260.273875607,1923.20160284 -232.657549107,1924.73302888 -229.101122347,1910.30370719 -229.096597231,1843.74643672 " moovel_rot="27.3" moovel_centroid="-248.221779958,1887.40512948" moovel_centroidlatlon="13.540218945885249,52.52303561130065"/>
  <polygon id="395133115" class="tile" points="-279.282754479,1924.82980173 -274.572688318,1921.82539403 -279.480889449,1911.83766088 -283.012691055,1890.88306041 -280.770083046,1870.21853348 -274.602232127,1845.368313 -280.220976812,1843.74643672 -286.501880381,1869.18511087 -288.911220622,1889.64713402 -284.580490184,1914.56795531 -279.282754479,1924.82980173 " moovel_rot="-20.5" moovel_centroid="-282.492095205,1883.87967509" moovel_centroidlatlon="13.387649419484065,52.4839460253189"/>
  <polygon id="57899052" class="tile" points="-305.766625667,1843.74643672 -307.150818747,2101.10854483 -289.911220622,2101.33893057 -289.974271981,2097.91990071 -289.971094369,1843.84130868 -305.766625667,1843.74643672 " moovel_rot="-3.2" moovel_centroid="-298.219700755,1974.30921662" moovel_centroidlatlon="13.59321456567107,52.44372621883684"/>
  <polygon id="220041377" class="tile" points="-308.150818747,1869.87700212 -313.647446659,1869.89612097 -317.876110941,1869.90379785 -317.871034058,1866.04961834 -317.878586968,1843.77321944 -308.15327451,1843.74643672 -308.156563522,1847.39539899 -308.150818747,1869.87700212 " moovel_rot="57.3" moovel_centroid="-313.014261774,1856.82582926" moovel_centroidlatlon="13.334491205552785,52.467899493092354"/>
  <polygon id="221259968" class="tile" points="-318.878586968,1844.33701984 -319.020059719,1871.86370798 -338.977514961,1871.52296627 -338.978325487,1843.74643672 -332.573324476,1843.93509058 -321.860512608,1844.24457676 -318.878586968,1844.33701984 " moovel_rot="-42.6" moovel_centroid="-328.978173606,1857.85002693" moovel_centroidlatlon="13.366510362772392,52.550158227671304"/>
  <polygon id="110372104" class="tile" points="-371.597536866,1894.29925319 -339.994183454,1894.12686407 -339.978325487,1843.74643672 -372.959425538,1844.66427873 -371.597536866,1894.29925319 " moovel_rot="39.7" moovel_centroid="-356.095923536,1869.02950023" moovel_centroidlatlon="13.304769761576978,52.48595940085701"/>
  <polygon id="246664703" class="tile" points="-373.959425538,1872.30899139 -375.281665134,1844.19957865 -384.240727395,1843.74643672 -387.368562672,1846.90096381 -387.400366729,1876.06993282 -373.959425538,1872.30899139 " moovel_rot="-75.3" moovel_centroid="-381.07262499,1859.54363762" moovel_centroidlatlon="13.33919929075333,52.57251978644316"/>
  <polygon id="362682697" class="tile" points="-394.579331998,1843.87171993 -391.008854384,1843.79601343 -388.400366729,1843.74643672 -388.411567917,1857.54664118 -390.873483913,1857.47825016 -394.292015897,1857.38827266 -394.579331998,1843.87171993 " moovel_rot="70.4" moovel_centroid="-391.410936246,1850.58004822" moovel_centroidlatlon="13.34005560421838,52.502023468356384"/>
  <polygon id="387589511" class="tile" points="-450.345127252,1843.74643672 -450.34908474,1898.90089776 -395.583691625,1898.91460043 -395.579331998,1843.74917251 -450.345127252,1843.74643672 " moovel_rot="-2.1" moovel_centroid="-422.963401523,1871.32774331" moovel_centroidlatlon="13.488479786470732,52.52730267560846"/>
  <polygon id="28119163" class="tile" points="-467.951962157,1843.77032429 -467.941850058,1895.36297762 -451.34908474,1895.34969804 -451.361626395,1843.74643672 -467.951962157,1843.77032429 " moovel_rot="12.9" moovel_centroid="-459.650846373,1869.55798788" moovel_centroidlatlon="13.378624347942694,52.407556968785016"/>
  <polygon id="30784535" class="tile" points="-497.411092485,1844.85975603 -497.450491398,1886.43222687 -468.951962157,1885.98720703 -469.538141368,1843.74643672 -497.411092485,1844.85975603 " moovel_rot="74.8" moovel_centroid="-483.299000142,1865.33229977" moovel_centroidlatlon="13.235284293833626,52.608038451266864"/>
  <polygon id="311787927" class="tile" points="-510.760049145,1844.1905217 -510.185999995,1856.88994121 -505.915742118,1856.64680191 -498.464227805,1856.02543562 -498.450491398,1843.74643672 -510.760049145,1844.1905217 " moovel_rot="-10.5" moovel_centroid="-504.503528281,1850.18277339" moovel_centroidlatlon="13.29099734706268,52.47560495859201"/>
  <polygon id="281982100" class="tile" points="-511.761093085,1884.28170072 -511.760049145,1878.44951904 -511.807185233,1872.85863234 -512.050174434,1843.7854499 -515.187423511,1843.74643672 -527.995899501,1843.93020019 -524.448213696,1878.99514774 -532.70745568,1879.28661362 -532.189379186,1884.39761127 -515.266191863,1884.34885903 -511.761093085,1884.28170072 " moovel_rot="-74.9" moovel_centroid="-519.624122127,1864.495013" moovel_centroidlatlon="13.134017483859422,52.472508718654474"/>
  <polygon id="242121199" class="tile" points="-535.516820049,1843.91022179 -542.595918512,1843.74643672 -544.896438047,1844.00235049 -544.965817373,1890.3954103 -533.70745568,1889.91700004 -535.516820049,1843.91022179 " moovel_rot="3.1" moovel_centroid="-539.767443265,1867.70507992" moovel_centroidlatlon="13.359126112703434,52.43206296895235"/>
  <polygon id="32195774" class="tile" points="-0.325794306211,2169.61487108 0.0,2102.70842584 -69.210913948,2101.33893057 -69.1677047387,2181.52578171 -20.1704572733,2181.33113574 -20.3533459269,2169.88221149 -0.325794306211,2169.61487108 " moovel_rot="-52.3" moovel_centroid="-35.88336534151187,2140.18182427" moovel_centroidlatlon="13.46065762336581,52.46486822072263"/>
  <polygon id="228868066" class="tile" points="-100.213884841,2101.33893057 -85.9762173296,2101.89063132 -74.0491711729,2114.22971713 -71.2335367256,2120.04229027 -71.210913948,2147.78441104 -103.012653979,2146.34728656 -100.213884841,2101.33893057 " moovel_rot="-3.1" moovel_centroid="-87.3467520868,2126.37407522" moovel_centroidlatlon="13.550859766100002,52.53465742033969"/>
  <polygon id="133468069" class="tile" points="-104.012653979,2152.79590118 -104.016047577,2142.45728874 -104.015492949,2118.88763601 -104.01309648,2106.62735721 -120.003029438,2106.47748081 -119.874954597,2101.6950253 -138.12824013,2101.33893057 -138.698220386,2114.63976144 -138.777199504,2127.23391185 -138.786983133,2131.09048156 -138.843218333,2152.11996446 -135.788486251,2152.36746281 -104.012653979,2152.79590118 " moovel_rot="-82.3" moovel_centroid="-121.775314829,2128.1946969" moovel_centroidlatlon="13.286369038572007,52.59078455357087"/>
  <polygon id="26284445" class="tile" points="-139.932608763,2101.33893057 -149.500505033,2101.44601439 -174.005523216,2101.52891421 -173.987371661,2125.42302139 -173.529299609,2183.13383056 -173.344208183,2205.59619832 -158.338278271,2205.4089855 -158.255705003,2216.58063887 -149.161239887,2216.52180028 -149.382291276,2190.00170842 -157.312988021,2190.05906654 -157.918033998,2114.81310187 -139.843218333,2114.69083613 -139.932608763,2101.33893057 " moovel_rot="-75.3" moovel_centroid="-162.523410706,2153.67089526" moovel_centroidlatlon="13.45361716301073,52.45302106090694"/>
  <polygon id="28116242" class="tile" points="-175.005523216,2101.33893057 -193.430788482,2107.73867117 -177.442600132,2151.96545433 -175.079623675,2151.81881063 -175.005523216,2101.33893057 " moovel_rot="37.8" moovel_centroid="-181.255724894,2122.03850751" moovel_centroidlatlon="13.377619688289276,52.40815131675963"/>
  <polygon id="38915512" class="tile" points="-237.791457306,2101.42432132 -237.77801098,2159.34327217 -212.669841603,2159.29544223 -194.430788482,2159.25781221 -194.444065211,2101.33893057 -237.791457306,2101.42432132 " moovel_rot="67.8" moovel_centroid="-216.111068222,2130.341483" moovel_centroidlatlon="13.523795505644769,52.40599394842835"/>
  <polygon id="242122582" class="tile" points="-245.294171767,2105.01945229 -245.14392446,2101.75126139 -238.791457306,2101.33893057 -238.796640222,2145.59474219 -244.932889078,2144.40827437 -244.880823044,2107.53433848 -245.294171767,2105.01945229 " moovel_rot="15.2" moovel_centroid="-241.849787611,2123.18568657" moovel_centroidlatlon="13.359889146148502,52.43392061430047"/>
  <polygon id="378270185" class="tile" points="-257.542224849,2102.73891552 -258.027283578,2118.46941545 -258.426680567,2131.61212742 -258.543074897,2137.60108958 -246.297000574,2137.98035179 -246.294171767,2148.12060854 -268.86710938,2147.44935751 -267.699936676,2131.33769 -267.260372844,2131.3949604 -266.98454434,2120.67680405 -266.241799986,2120.67447965 -266.065868814,2117.53812963 -266.869099777,2117.56150395 -266.234427715,2103.14672431 -267.04846993,2103.09652903 -266.990823077,2101.33893057 -264.248994689,2101.41300773 -264.198534314,2101.95247358 -260.90398802,2102.1507721 -260.99271472,2101.42525394 -257.541174595,2101.63053877 -257.542224849,2102.73891552 " moovel_rot="62.3" moovel_centroid="-260.388978916,2129.27434918" moovel_centroidlatlon="13.417587367365478,52.49168910874908"/>
  <polygon id="125955245" class="tile" points="-269.86710938,2101.33893057 -274.175755051,2101.70568948 -277.143893381,2105.36386609 -276.547280967,2115.27819107 -273.699028985,2118.58202934 -269.869538634,2118.5862994 -269.86710938,2101.33893057 " moovel_rot="-68.9" moovel_centroid="-273.112345151,2109.95155905" moovel_centroidlatlon="13.241686889182098,52.540732558484294"/>
  <polygon id="50119550" class="tile" points="-291.120734528,2181.83779206 -291.847291465,2186.84677719 -293.558687721,2198.65397152 -299.956598773,2197.91707282 -299.424335203,2192.73588353 -305.399580632,2191.68850607 -335.068475639,2149.52746702 -330.811404018,2114.8496412 -335.072877385,2114.06828187 -334.239782846,2108.55837213 -333.144072464,2101.33893057 -306.206815551,2103.73731459 -296.413162059,2120.90855246 -278.143893381,2123.79833521 -278.907253993,2132.1162244 -300.744388469,2129.5184986 -304.451814526,2161.364318 -301.523164233,2161.47551113 -304.378342911,2179.31090232 -291.120734528,2181.83779206 " moovel_rot="-53.7" moovel_centroid="-313.025193997,2141.07302673" moovel_centroidlatlon="13.46473073091859,52.42621620620662"/>
  <polygon id="42778814" class="tile" points="-336.072877385,2121.00386902 -346.018866394,2128.01722626 -356.47210255,2114.3444377 -355.931074962,2101.33893057 -336.080635305,2103.92514615 -336.072877385,2121.00386902 " moovel_rot="-56.1" moovel_centroid="-345.826137051,2113.06594232" moovel_centroidlatlon="13.298114588386026,52.48846127636159"/>
  <polygon id="179170863" class="tile" points="-357.47210255,2121.2536767 -373.551806231,2120.84961827 -373.259989009,2101.33893057 -357.502863687,2101.90294243 -357.47210255,2121.2536767 " moovel_rot="-0.7" moovel_centroid="-365.458497308,2111.36863645" moovel_centroidlatlon="13.479407570841982,52.423951177654075"/>
  <polygon id="170490498" class="tile" points="-414.361144147,2222.38108668 -414.409725648,2101.35362937 -374.611369544,2101.33893057 -374.551806231,2222.359747 -410.165503102,2222.37569466 -414.361144147,2222.38108668 " moovel_rot="-90.2" moovel_centroid="-394.483624374,2161.86034592" moovel_centroidlatlon="13.587833945102407,52.54072132403225"/>
  <polygon id="69675464" class="tile" points="-415.613510761,2101.62026456 -415.409725648,2137.94132884 -424.509643966,2137.98581329 -424.480281272,2101.33893057 -420.008826475,2101.47513509 -415.613510761,2101.62026456 " moovel_rot="-9.9" moovel_centroid="-420.009851749,2119.79926287" moovel_centroidlatlon="13.298565046821526,52.4875387152972"/>
  <polygon id="247238058" class="tile" points="-425.541145379,2162.71858055 -431.315789176,2162.71336582 -431.285367211,2101.33893057 -425.509643966,2101.35073667 -425.541145379,2162.71858055 " moovel_rot="-80.8" moovel_centroid="-428.413037625,2132.02944447" moovel_centroidlatlon="13.295436239143509,52.5647839009226"/>
  <polygon id="137481960" class="tile" points="-432.315789176,2101.33893057 -432.323147272,2117.82344784 -445.768793576,2117.82964603 -445.762680025,2111.38044752 -445.763888148,2106.09497391 -445.761437401,2101.34511964 -442.484539146,2101.34741373 -432.315789176,2101.33893057 " moovel_rot="11.9" moovel_centroid="-439.041634861,2109.58502448" moovel_centroidlatlon="13.43097699265226,52.46132379215109"/>
  <polygon id="213282011" class="tile" points="-451.386679243,2101.33893057 -452.528257115,2257.94060849 -446.768793576,2260.39224224 -446.873269329,2103.17472626 -451.386679243,2101.33893057 " moovel_rot="63.7" moovel_centroid="-449.39947451,2183.88461269" moovel_centroidlatlon="13.407735458458351,52.50223646322542"/>
  <polygon id="280722512" class="tile" points="-453.528257115,2140.15654735 -470.406223366,2140.14967807 -470.407303414,2101.33893057 -453.529323711,2101.34579851 -453.528823316,2119.97925502 -453.528257115,2140.15654735 " moovel_rot="-84.3" moovel_centroid="-461.967779775,2120.74773613" moovel_centroidlatlon="13.324707400002936,52.513356299974234"/>
  <polygon id="104664713" class="tile" points="-484.670073611,2101.56226796 -484.677833705,2126.66332993 -484.672735371,2133.16685292 -484.678535447,2169.45081957 -471.407303414,2169.03117183 -471.91803932,2145.09756743 -474.756339814,2143.91226039 -474.939516885,2137.66291256 -474.803373661,2130.54200615 -474.854493039,2126.5990329 -475.035167888,2115.23558631 -475.692682308,2115.22406121 -476.105033064,2101.33893057 -484.670073611,2101.56226796 " moovel_rot="63.1" moovel_centroid="-479.161314063,2138.27714889" moovel_centroidlatlon="13.20014879940737,52.54328972999851"/>
  <polygon id="240932303" class="tile" points="-485.704763071,2101.35878677 -485.678535447,2128.7713759 -507.975687023,2120.39958252 -507.644439302,2116.89794417 -506.167039276,2101.33893057 -485.704763071,2101.35878677 " moovel_rot="33.4" moovel_centroid="-495.780972029,2113.28026048" moovel_centroidlatlon="13.58602639917832,52.403283154156426"/>
  <polygon id="330713654" class="tile" points="-525.529928086,2101.34994764 -525.559953671,2137.98532122 -516.62468928,2137.98168742 -509.005748687,2137.97429207 -508.975687023,2101.33893057 -525.529928086,2101.34994764 " moovel_rot="71.5" moovel_centroid="-517.267823348,2119.66269604" moovel_centroidlatlon="13.339853958194489,52.56374979826697"/>
  <polygon id="43877374" class="tile" points="-526.559953671,2103.96200987 -550.472204448,2101.33893057 -550.676700822,2106.26401486 -555.558405086,2105.9804368 -555.440144098,2166.94545222 -551.657077579,2166.95519626 -551.649599192,2162.94109051 -526.573043749,2163.20445498 -526.559953671,2103.96200987 " moovel_rot="-2.3" moovel_centroid="-541.086986927,2133.38602828" moovel_centroidlatlon="13.597630442981579,52.441124671151115"/>
  <polygon id="27993027" class="tile" points="-559.571608437,2106.61359905 -559.412350953,2156.00988864 -556.558405086,2156.01494872 -556.588506422,2166.14556391 -559.449557807,2166.11879925 -559.450110735,2167.09509438 -559.250375052,2167.08729581 -559.259984022,2169.4977659 -562.409584715,2169.48556314 -562.400689986,2168.99799511 -580.294735265,2168.89034559 -580.292507657,2167.60004107 -581.221453893,2167.58429082 -581.143780294,2101.33893057 -574.109800246,2101.52731143 -574.237946135,2105.44951351 -573.369714438,2106.14461316 -559.571608437,2106.61359905 " moovel_rot="-43.2" moovel_centroid="-570.241724034,2137.38035216" moovel_centroidlatlon="13.368097426015536,52.541951894952426"/>
  <polygon id="114697179" class="tile" points="-582.276187398,2102.81136525 -584.307249214,2102.44568429 -590.506048992,2101.33893057 -590.724993557,2114.58241713 -591.540459153,2151.90587641 -588.791227934,2151.86628453 -582.221453893,2152.21795859 -582.276187398,2102.81136525 " moovel_rot="40.9" moovel_centroid="-586.645578892,2127.55791153" moovel_centroidlatlon="13.52975963037244,52.42882049683635"/>
  <polygon id="7737659" class="tile" points="-102.029266576,2351.85648799 -80.0522401029,2363.72962853 -68.0278176371,2356.32605964 -68.0305236183,2341.86009052 -60.524927767,2342.46279808 -60.8897611504,2368.09604619 -59.2675336003,2370.10238946 -57.7274508471,2372.02148399 -48.87333383,2374.52958811 -38.1152461426,2371.74417795 -17.9230109721,2359.6110332 -7.27074584775,2351.93396498 -1.25281623043,2340.31294625 0.0,2328.92852921 -1.33424556758,2295.11033435 -10.4710084207,2280.96632669 -42.3251568239,2262.17391166 -54.6452050835,2260.39224224 -85.2737184752,2279.34372392 -83.4456974231,2283.46373968 -89.7085986553,2289.40377131 -101.954006711,2282.80713867 -102.029266576,2351.85648799 " moovel_rot="-80" moovel_centroid="-51.0280444706779,2317.3838712" moovel_centroidlatlon="13.293283284891968,52.553470191752616"/>
</svg>