<svg xmlns="http://www.w3.org/2000/svg" version="1.1" width="592.5px" height="1200px">
  <polygon id="15" class="bin" points="1.875,0.0 -0.77665042945,1.09834957055 -1.875,3.75 -1.875,1203.749999 -0.77665042945,1206.40164943 1.875,1207.499999 298.124999,1207.499999 300.776649429,1206.40164943 301.874999,1203.749999 301.874999,1018.00975682 300.837886979,1015.42079201 298.300204967,1014.26385201 279.395346351,1013.37962131 275.460566647,1011.56039509 273.912971643,1007.51107107 274.060554311,1000.57624482 273.185457732,998.08765914 270.888130243,996.791071646 269.592712825,996.589445624 266.026572332,994.558722667 264.709739078,990.671931713 266.42996662,943.670931703 264.329292682,940.16472484 261.366912922,938.716691124 259.919122896,934.604769763 263.434978612,864.710859443 263.438332046,864.649636701 266.769026047,808.433571488 266.160323032,806.153637057 264.31029489,804.688708308 261.924142152,803.818586804 260.12919172,799.647800615 260.23301663,691.168714286 261.770232643,687.254754851 265.556653934,685.425786469 267.425372394,685.282179753 270.333662519,683.505473287 270.602548016,680.108042212 269.634982814,677.772321594 269.734687438,534.219930496 269.736190737,534.080862723 269.739212912,533.936449747 271.443350875,529.968117434 274.294946992,528.776630624 276.415760707,526.47505195 276.052320721,523.36651104 273.457778078,521.616235725 269.073558166,520.895179814 265.445849617,518.728923265 264.2706028,514.670385145 267.62930801,478.831554177 266.766405407,476.068897824 264.193437352,474.743489806 262.551670334,474.612712176 258.926463761,472.942694682 257.245529669,469.322536992 253.903121368,428.901533507 255.278084245,424.677733551 259.255024229,422.699108437 298.366534815,420.174711826 300.860712737,418.997331913 301.874999,416.432498517 301.874999,399.361976578 300.826924411,396.761572941 298.26854616,395.614725024 277.883594851,394.833832193 273.939219284,393.054166046 272.350866889,389.028939731 272.933333086,329.06345237 272.288786017,326.924706302 270.542420617,325.531909276 269.003396221,324.933533029 267.288526537,320.747945239 268.243219985,263.650993526 267.452058032,261.28376581 265.350359467,259.937449563 263.768299091,260.110255222 263.761742225,260.039611784 259.082995264,260.473875992 256.388924083,258.556789756 255.426991285,254.648251668 257.880532603,233.255891683 257.882814682,233.235501714 264.951904041,168.47212687 264.958709378,168.404023803 267.192879309,143.776464661 266.680421744,141.519359067 264.940458094,139.99303508 263.184197998,139.237306486 260.279338976,136.869330978 257.210390162,132.47176417 256.026436069,129.363474432 255.395691658,124.068931192 256.302939353,119.779791104 259.46416859,114.451489395 262.184527186,111.876699532 263.090517767,111.404451469 264.851969691,109.438832145 264.872792249,107.617717215 264.934656771,107.617949293 265.149638273,50.3106331629 265.126605875,49.8813437522 264.753148727,46.5292733175 263.50070682,44.1268093711 262.74817151,43.4659308168 260.417335736,42.5363695044 253.88960971,42.2861067979 249.943550602,40.5043931518 248.357352081,36.4757630807 248.707246817,3.79014089378 247.623266264,1.11257970279 244.957461662,0.0 1.875,0.0 " moovel_rot="0" moovel_centroid="135.01081518656952,615.5558729657242" moovel_centroidlatlon="0,0"/>
  <polygon id="133090797" class="tile" points="-9.84686153047,1201.78347634 -54.5700267735,1201.0 -54.647013754,1267.70621263 -54.0583514094,1287.72804434 -7.52443868909,1287.31622208 -1.10598680275,1288.70017844 -1.14201913136,1285.2490094 -1.0,1264.89877532 -10.7130432521,1264.74214054 -9.84686153047,1201.78347634 " moovel_rot="-24.6" moovel_centroid="-31.054713233828362,1246.0227875136927" moovel_centroidlatlon="13.446307979795595,52.55307034827287"/>
  <polygon id="337672659" class="tile" points="-55.6909458097,1264.3938595 -55.647013754,1201.002695 -65.9442489488,1201.0 -65.9883065134,1264.3844865 -55.6909458097,1264.3938595 " moovel_rot="-88.9" moovel_centroid="-60.817538401,1232.6953270642405" moovel_centroidlatlon="13.289499173953034,52.578535600811996"/>
  <polygon id="191192880" class="tile" points="-71.4050416305,1201.0033512 -71.3582894346,1265.6314373 -66.9883065134,1265.62810878 -67.0350420547,1201.0 -71.4050416305,1201.0033512 " moovel_rot="-36.3" moovel_centroid="-69.1966697955,1233.315703773935" moovel_centroidlatlon="13.553045749999997,52.431744050000006"/>
  <polygon id="362325112" class="tile" points="-75.197793043,1278.79437496 -73.7969141576,1276.33494349 -72.4050416305,1273.88172508 -76.6675452964,1271.19091025 -79.9029778266,1247.22994873 -77.3719979083,1234.22941862 -74.7893479602,1219.16467057 -73.6601433964,1212.59207952 -72.4522474156,1204.86165908 -89.6733875362,1201.0 -92.494638271,1244.08571464 -85.9291774096,1272.8737925 -81.3793845607,1275.4800199 -75.197793043,1278.79437496 " moovel_rot="-55.4" moovel_centroid="-83.3073238502,1235.8799900334373" moovel_centroidlatlon="13.334607518367854,52.49400248837348"/>
  <polygon id="72549638" class="tile" points="-112.978127542,1201.0 -113.411097541,1228.95743171 -113.593351145,1272.87249922 -93.494638271,1273.75777091 -93.5694262133,1229.95210784 -93.6322243958,1201.25545878 -112.978127542,1201.0 " moovel_rot="-86.5" moovel_centroid="-103.457644905,1237.4361027138038" moovel_centroidlatlon="13.36656419709572,52.59746315468751"/>
  <polygon id="356671765" class="tile" points="-116.710757073,1201.0 -114.593351145,1201.00399523 -114.620633413,1246.9738528 -116.738039339,1246.96985736 -116.710757073,1201.0 " moovel_rot="-0.7" moovel_centroid="-115.665695242,1223.9869263437606" moovel_centroidlatlon="13.38202315,52.469009050000004"/>
  <polygon id="111565357" class="tile" points="-117.738039339,1201.0 -117.750748734,1217.35762754 -130.830295885,1217.19339365 -130.722372761,1221.88706334 -134.204531647,1221.82822453 -134.25425518,1204.89032939 -132.597503018,1204.8268583 -130.831803217,1204.77277169 -130.866853088,1201.10686417 -117.738039339,1201.0 " moovel_rot="18.7" moovel_centroid="-126.044057055,1210.061707267069" moovel_centroidlatlon="13.355393990206155,52.54139435661226"/>
  <polygon id="121068796" class="tile" points="-137.898655133,1257.93787503 -169.810664808,1261.91593693 -177.811770456,1207.18460719 -135.256331257,1201.0 -135.25425518,1210.63992921 -141.70003072,1216.36200358 -140.334283167,1231.02755691 -138.40409093,1245.01068062 -137.898655133,1257.93787503 " moovel_rot="-54.9" moovel_centroid="-156.259907179,1230.858757448918" moovel_centroidlatlon="13.359679069974666,52.526899906976645"/>
  <polygon id="140518369" class="tile" points="-183.312550574,1219.2239721 -181.448905842,1209.14068105 -215.379078081,1201.0 -217.559210455,1212.45354843 -219.566946926,1219.85296119 -205.072159275,1223.0645661 -219.573934999,1296.04806568 -211.627977546,1304.67784219 -215.954118313,1310.06570626 -203.009634812,1320.34733425 -201.370005007,1313.95582434 -186.835229916,1317.72906234 -184.3112939,1308.47832451 -178.811770456,1283.3766434 -200.957192182,1279.06669042 -197.362159521,1264.11312548 -194.271028414,1264.84870594 -183.312550574,1219.2239721 " moovel_rot="41.3" moovel_centroid="-200.294642183,1261.8183328034715" moovel_centroidlatlon="13.524303209886005,52.48222384805542"/>
  <polygon id="47042188" class="tile" points="-236.936072772,1218.77808245 -236.942515085,1201.0 -229.156841249,1201.0033769 -227.878109432,1201.00265256 -220.574458911,1201.00613066 -220.573934999,1218.77282635 -236.936072772,1218.77808245 " moovel_rot="-3.9" moovel_centroid="-228.757569218,1209.8886909022356" moovel_centroidlatlon="13.307774887889034,52.57010597966683"/>
  <polygon id="387212522" class="tile" points="-242.816375749,1208.74223482 -237.944053539,1208.73954057 -237.942515085,1201.0 -242.814837661,1201.00269262 -242.816375749,1208.74223482 " moovel_rot="12.6" moovel_centroid="-240.379445594,1204.8711169549647" moovel_centroidlatlon="13.42426385,52.4433993"/>
  <polygon id="249159370" class="tile" points="-246.822262601,1201.0 -246.877327898,1214.66009143 -243.816375749,1214.77032253 -243.835781211,1201.15996591 -246.822262601,1201.0 " moovel_rot="47.9" moovel_centroid="-245.338953946,1207.9255101102967" moovel_centroidlatlon="13.346803645326201,52.555102086092944"/>
  <polygon id="107166434" class="tile" points="-280.704503782,1348.54180541 -280.932070928,1201.0 -259.425453229,1201.02258181 -247.877327898,1201.07596509 -248.01529094,1228.55734218 -249.132145597,1348.5865561 -280.704503782,1348.54180541 " moovel_rot="-59.4" moovel_centroid="-264.635737967,1274.2083109086618" moovel_centroidlatlon="13.374750165884258,52.5353103319347"/>
  <polygon id="277786465" class="tile" points="-306.655549188,1201.0 -311.057575775,1249.66666988 -310.412186821,1260.27764632 -305.991024662,1259.97492092 -305.143714897,1265.63876572 -282.94404853,1263.49291013 -281.933646542,1253.79620646 -282.008518988,1227.88335432 -286.438546807,1227.29487551 -286.49547164,1222.35383215 -282.027558366,1222.04888359 -282.04705465,1214.70288577 -281.932070928,1208.75584285 -286.61786627,1208.81351523 -286.487791174,1205.52032755 -295.244976678,1201.56206932 -306.655549188,1201.0 " moovel_rot="47.2" moovel_centroid="-296.095726295,1234.439557937236" moovel_centroidlatlon="13.694075425253102,52.4382995164001"/>
  <polygon id="156580750" class="tile" points="-312.069195575,1267.6034527 -356.950059552,1268.53748158 -356.887856255,1271.3400081 -362.717344402,1271.32841868 -363.080713543,1250.57398456 -338.734167273,1201.0 -312.057575775,1201.57561258 -312.069195575,1267.6034527 " moovel_rot="-69.8" moovel_centroid="-334.085200429,1238.4662721562727" moovel_centroidlatlon="13.46433482531904,52.545730639622256"/>
  <polygon id="115001530" class="tile" points="-376.291958264,1261.41324581 -395.624061864,1232.14482133 -379.731561661,1220.27715163 -376.685232721,1201.42465196 -364.112390141,1201.0 -364.080713543,1252.76347042 -376.291958264,1261.41324581 " moovel_rot="-71.5" moovel_centroid="-375.151740212,1231.6773935873703" moovel_centroidlatlon="13.469363979394512,52.529189227046054"/>
  <polygon id="79292056" class="tile" points="-396.630103078,1201.0 -396.624061864,1245.07090271 -432.079131076,1238.06377737 -434.169269344,1237.37282131 -433.043954568,1201.35354403 -427.922231314,1201.49492776 -396.630103078,1201.0 " moovel_rot="-0.6" moovel_centroid="-414.518709272,1221.4814714493646" moovel_centroidlatlon="13.454525200950577,52.59309085966468"/>
  <polygon id="258350490" class="tile" points="-435.185000827,1221.01547677 -446.766222396,1220.99267129 -446.76124349,1201.0 -435.169269344,1201.0205983 -435.185000827,1221.01547677 " moovel_rot="-78.4" moovel_centroid="-440.97032565,1211.0056407414809" moovel_centroidlatlon="13.446697322325909,52.59093567879881"/>
  <polygon id="444926837" class="tile" points="-447.766222396,1201.0 -447.768072435,1234.26765131 -461.498993861,1234.49379484 -461.452910705,1201.19421695 -447.766222396,1201.0 " moovel_rot="24.2" moovel_centroid="-454.622628848,1217.7478771329154" moovel_centroidlatlon="13.51491891973653,52.539438404392286"/>
  <polygon id="222726300" class="tile" points="-462.958011268,1284.08172268 -509.645730765,1284.0989302 -509.599859871,1225.72954771 -509.619972687,1201.0 -483.921283084,1201.58874964 -484.138856783,1236.16063754 -462.498993861,1236.54897407 -462.958011268,1284.08172268 " moovel_rot="-35.7" moovel_centroid="-489.23686002,1248.348963738125" moovel_centroidlatlon="13.471535097180107,52.61617999145697"/>
  <polygon id="24666592" class="tile" points="-516.095327388,1265.80735172 -538.153718081,1264.26970016 -540.412214893,1257.72403128 -546.401481353,1245.92966147 -548.934875799,1234.09167436 -548.583226178,1220.45801183 -548.911622254,1210.86381585 -543.203025285,1203.6807724 -532.594326513,1201.0 -521.888385049,1202.49383831 -516.8273817,1206.47277987 -511.625334313,1214.21807671 -510.645730765,1228.4725888 -516.095327388,1265.80735172 " moovel_rot="-45.5" moovel_centroid="-529.710994737,1232.3597160903153" moovel_centroidlatlon="13.277747160254794,52.50272956583356"/>
  <polygon id="381753887" class="tile" points="-549.94654178,1201.00025193 -559.582136462,1201.0 -559.570467613,1226.79739313 -549.934875799,1226.79765674 -549.94654178,1201.00025193 " moovel_rot="-13.8" moovel_centroid="-554.75850505,1213.898824807815" moovel_centroidlatlon="13.397018200000003,52.496894250000004"/>
  <polygon id="30708280" class="tile" points="-560.582136462,1201.0 -592.098420147,1201.67850774 -592.141104612,1263.12347706 -560.624821094,1262.44498298 -560.582136462,1201.0 " moovel_rot="-0.7" moovel_centroid="-576.361619995,1232.0617419061368" moovel_centroidlatlon="13.281394549999996,52.57720655"/>
  <polygon id="444929790" class="tile" points="-0.291291908361,1349.2723965 -21.6533146424,1348.5865561 -21.7148770748,1406.77842534 0.0,1406.66186566 -0.291291908361,1349.2723965 " moovel_rot="29.4" moovel_centroid="-10.939779921644876,1377.90373477" moovel_centroidlatlon="13.455563330031023,52.53321878374418"/>
  <polygon id="42121597" class="tile" points="-53.638043125,1348.5865561 -53.9449214242,1505.55159846 -23.7148770748,1506.26053258 -23.9866260177,1349.77168845 -53.638043125,1348.5865561 " moovel_rot="-57.2" moovel_centroid="-38.8290175121,1427.79472627" moovel_centroidlatlon="13.59442556403289,52.53249799150616"/>
  <polygon id="53333137" class="tile" points="-54.9700695774,1348.5865561 -54.9449214242,1381.80622443 -79.4913478849,1381.88444694 -79.4988223203,1376.51716915 -84.0373473655,1376.52789074 -84.0550967524,1348.67544682 -54.9700695774,1348.5865561 " moovel_rot="54.8" moovel_centroid="-69.183857728,1364.88072042" moovel_centroidlatlon="13.385869315843939,52.53829698676453"/>
  <polygon id="142032240" class="tile" points="-115.990288818,1377.48469763 -114.447089452,1371.98826317 -123.249987221,1369.52528901 -117.399011963,1348.5865561 -85.0550967524,1357.61960688 -86.578153562,1389.79035683 -87.0684224801,1400.05085054 -85.0982801376,1400.24113393 -89.5846228641,1432.47593542 -118.278639775,1428.87953304 -113.390735313,1411.35212763 -108.940098635,1412.59398357 -100.360122058,1381.84682421 -115.990288818,1377.48469763 " moovel_rot="66.6" moovel_centroid="-100.590622815,1389.5157888" moovel_centroidlatlon="13.570776447078044,52.52897412053719"/>
  <polygon id="23209856" class="tile" points="-144.847845416,1348.5865561 -158.700596259,1349.08402805 -158.737071249,1370.53161845 -158.75676291,1408.50375958 -147.837556089,1408.29394126 -147.744905685,1405.87537616 -145.88326646,1405.8089446 -140.285479621,1405.88341269 -132.071447472,1405.71919768 -131.972068905,1393.28158728 -124.249987221,1390.11510729 -133.84428153,1366.73095377 -139.830747992,1365.89775535 -140.661108635,1356.78626398 -144.947051382,1356.3419534 -144.847845416,1348.5865561 " moovel_rot="-89.6" moovel_centroid="-145.613811401,1380.96294099" moovel_centroidlatlon="13.297312055253325,52.53546744338048"/>
  <polygon id="107105174" class="tile" points="-172.845220443,1348.59962413 -172.844772792,1357.89930887 -176.224515159,1357.90542702 -176.229387517,1382.34242711 -159.762264111,1382.31436503 -159.75676291,1363.99180176 -165.892737546,1364.0028916 -165.88751241,1348.5865561 -172.845220443,1348.59962413 " moovel_rot="19.6" moovel_centroid="-168.651136781,1368.37047858" moovel_centroidlatlon="13.181937941178244,52.527149477778444"/>
  <polygon id="131333230" class="tile" points="-177.334254734,1472.02954072 -184.740072768,1472.02705114 -184.63104744,1348.5865561 -177.229387517,1348.5942735 -177.334254734,1472.02954072 " moovel_rot="50.7" moovel_centroid="-180.983721759,1410.31512618" moovel_centroidlatlon="13.438935393318719,52.48227261622573"/>
  <polygon id="384712897" class="tile" points="-196.470386209,1391.2450335 -185.740072768,1372.27565942 -189.70900957,1359.29862959 -206.871605626,1348.5865561 -208.653094872,1352.59792471 -203.738014333,1375.03601178 -208.68528953,1382.66332336 -196.470386209,1391.2450335 " moovel_rot="-78.0" moovel_centroid="-198.014692662,1369.98780227" moovel_centroidlatlon="13.29972131396011,52.57871663248349"/>
  <polygon id="213277461" class="tile" points="-209.68528953,1351.49363541 -214.249460325,1348.5865561 -214.24518896,1366.70428233 -209.914931119,1368.50417361 -209.68528953,1351.49363541 " moovel_rot="-9.9" moovel_centroid="-212.043889716,1358.73216278" moovel_centroidlatlon="13.317179954185999,52.49236712853372"/>
  <polygon id="300487379" class="tile" points="-215.257120508,1348.62752573 -236.649916195,1348.5865561 -236.649816309,1353.61594831 -236.648023184,1477.50647373 -229.610218043,1477.52402399 -219.391237874,1477.53655288 -215.249460325,1477.55082102 -215.257120508,1348.62752573 " moovel_rot="-28.3" moovel_centroid="-225.951168079,1413.07039594" moovel_centroidlatlon="13.561976156869074,52.56551817880804"/>
  <polygon id="113826184" class="tile" points="-237.649916195,1374.6355369 -258.526642159,1374.63862991 -258.519365414,1348.5865561 -237.650751628,1348.59071621 -237.649916195,1374.6355369 " moovel_rot="-48.2" moovel_centroid="-248.087153296,1361.61370332" moovel_centroidlatlon="13.475345895395755,52.475559616514424"/>
  <polygon id="52868891" class="tile" points="-260.061418646,1348.6387825 -281.12877073,1348.5865561 -281.159655033,1397.73866516 -271.336132509,1398.05263396 -259.526642159,1373.21998187 -260.061418646,1348.6387825 " moovel_rot="45.2" moovel_centroid="-271.503953238,1370.77930822" moovel_centroidlatlon="13.446882428666207,52.507721850976516"/>
  <polygon id="380594753" class="tile" points="-282.362362482,1348.62422711 -287.317531073,1348.5865561 -287.320976582,1358.10276975 -282.159655033,1358.02936859 -282.362362482,1348.62422711 " moovel_rot="-16.2" moovel_centroid="-284.794707203,1353.36806034" moovel_centroidlatlon="13.364311955747736,52.503578679685596"/>
  <polygon id="49879297" class="tile" points="-387.059138525,1472.72097115 -387.479926201,1465.16457916 -387.800526334,1405.55627451 -379.13764356,1405.51246876 -378.883835122,1377.1810151 -385.609758755,1377.1919666 -385.382666994,1348.5865561 -288.327655751,1349.37506894 -288.320976582,1412.83897509 -343.611141269,1412.81707225 -355.68707963,1416.56245682 -354.384641588,1466.44588125 -360.823360935,1470.57451899 -362.994091006,1470.59642156 -377.260796946,1470.97971666 -387.059138525,1472.72097115 " moovel_rot="0" moovel_centroid="-344.283036277,1395.28190301" moovel_centroidlatlon="13.520684260765096,52.528198014574414"/>
  <polygon id="274259164" class="tile" points="-388.800526334,1348.59902917 -392.951353988,1348.59374491 -404.253242089,1348.59258721 -414.6843771,1348.5865561 -414.688201951,1381.29194089 -412.820100764,1381.29104762 -388.803589347,1381.29351917 -388.800526334,1348.59902917 " moovel_rot="-4.0" moovel_centroid="-401.744614748,1364.94231022" moovel_centroidlatlon="13.337833057070592,52.45694202883337"/>
  <polygon id="207517676" class="tile" points="-415.688201951,1381.60447443 -415.692246823,1348.67446411 -422.711312265,1348.5865561 -444.601286389,1348.70917932 -444.988211974,1380.78622731 -415.688201951,1381.60447443 " moovel_rot="-88.7" moovel_centroid="-430.175763747,1364.95729579" moovel_centroidlatlon="13.522315497124662,52.43101440761185"/>
  <polygon id="41435767" class="tile" points="-463.947399192,1391.09781203 -463.905303731,1349.19405974 -446.671784109,1348.5865561 -446.504700245,1351.1469741 -446.616525618,1366.61966755 -446.210988034,1382.38252573 -445.988211974,1390.89878765 -463.947399192,1391.09781203 " moovel_rot="0.6" moovel_centroid="-455.154874962,1370.06853377" moovel_centroidlatlon="13.522450769208909,52.51752891796929"/>
  <polygon id="202214132" class="tile" points="-464.947399192,1348.5865561 -480.877189658,1348.60631084 -488.086928701,1348.61637045 -490.115929191,1348.62075006 -496.567586046,1348.6228748 -496.595666006,1383.57537469 -488.109291475,1383.56541696 -464.97553122,1383.53896899 -464.947399192,1348.5865561 " moovel_rot="30.9" moovel_centroid="-480.771293354,1366.08174931" moovel_centroidlatlon="13.340291302883758,52.43656669244225"/>
  <polygon id="29174162" class="tile" points="-525.341557694,1368.67784165 -525.470641262,1414.99902714 -521.740973607,1415.0148189 -504.801650619,1415.08362906 -501.12707357,1415.10303295 -498.497626298,1372.80245145 -497.595666006,1358.5614964 -525.098737636,1348.5865561 -525.471191266,1357.1264381 -525.341557694,1368.67784165 " moovel_rot="-79.3" moovel_centroid="-512.683083163,1383.50785573" moovel_centroidlatlon="13.293262638704817,52.57725373573011"/>
  <polygon id="330770030" class="tile" points="-526.471191266,1368.26559889 -543.081727249,1368.27937828 -543.095617193,1348.6003355 -526.485080188,1348.5865561 -526.471191266,1368.26559889 " moovel_rot="-89.1" moovel_centroid="-534.783403973,1358.43296709" moovel_centroidlatlon="13.29260015,52.458263299999984"/>
  <polygon id="184341427" class="tile" points="-551.926635503,1350.49666778 -544.125630139,1351.38521612 -544.095617193,1397.49726436 -556.682928333,1397.32278219 -556.625866878,1396.14912427 -556.277816605,1389.41456111 -560.722978074,1389.34092144 -569.619956097,1388.66557489 -569.378139314,1378.55215258 -568.65432844,1348.5865561 -551.926635503,1350.49666778 " moovel_rot="-86.9" moovel_centroid="-556.154083695,1371.91115114" moovel_centroidlatlon="13.285282576037686,52.52165037275936"/>
  <polygon id="199999045" class="tile" points="-20.617867614,1540.4688192 -49.7433312541,1520.9460532 -39.0870526325,1506.26053258 0.0,1533.70412037 -4.20802945867,1548.41890773 -5.16483699381,1551.44896095 -0.324854246713,1552.50020386 -11.5734721547,1582.85732324 -16.8624706065,1580.8260723 -20.1897951879,1591.00753528 -15.7236474216,1592.49728013 -20.7647037869,1607.19157709 -24.4428926742,1606.04446594 -31.0425768044,1622.2178698 -49.7496888103,1613.65470628 -48.0369109143,1609.88312303 -49.7235801453,1609.34677584 -46.3618833683,1597.98332332 -26.8437548401,1547.54583094 -24.0558439571,1548.47801642 -20.617867614,1540.4688192 " moovel_rot="39.7" moovel_centroid="-25.359538406030723,1564.27510803" moovel_centroidlatlon="13.430199095861878,52.54763386555891"/>
  <polygon id="189349895" class="tile" points="-52.0733099204,1506.5750437 -90.3591044903,1506.26053258 -90.3753168708,1533.44172742 -90.3151701178,1544.90626573 -66.2450564517,1545.2844056 -64.7230038298,1545.3124783 -64.5789640419,1524.79351268 -51.7496888103,1524.52637111 -52.0733099204,1506.5750437 " moovel_rot="-84.0" moovel_centroid="-73.8810194307,1523.82733028" moovel_centroidlatlon="13.31946044387998,52.513058319373165"/>
  <polygon id="5083142" class="tile" points="-91.4045129732,1506.32222851 -91.4036991055,1519.65168847 -91.3753168708,1601.45069636 -119.599541148,1601.39318226 -119.631574649,1519.44595448 -119.633952654,1506.26053258 -91.4045129732,1506.32222851 " moovel_rot="-41.1" moovel_centroid="-105.504851631,1553.85536928" moovel_centroidlatlon="13.201406054175587,52.53465454949654"/>
  <polygon id="424766987" class="tile" points="-144.707017237,1506.34663447 -144.711465219,1587.68999013 -133.601886459,1587.08539288 -120.633952654,1586.14759374 -122.454816055,1512.30867682 -136.144805984,1512.58254215 -135.909891415,1506.26053258 -144.707017237,1506.34663447 " moovel_rot="-10.2" moovel_centroid="-133.371448685,1548.98064151" moovel_centroidlatlon="13.594188731517793,52.52406494814602"/>
  <polygon id="38053043" class="tile" points="-147.078214221,1588.49760299 -180.1096338,1579.74070351 -199.619239774,1573.63384421 -198.951551159,1571.43736589 -205.016104172,1569.56560021 -200.223670744,1555.39528802 -199.343167166,1548.84713665 -198.38592124,1540.57619591 -199.655236111,1525.28678723 -200.149696028,1517.65092081 -201.036717058,1512.65201817 -168.792843937,1506.44896529 -162.937949798,1508.90561895 -147.878507586,1506.26053258 -145.711465219,1549.04096933 -145.717129825,1564.41242237 -145.724750261,1577.26623271 -147.078214221,1588.49760299 " moovel_rot="-29.0" moovel_centroid="-172.078310668,1545.59141851" moovel_centroidlatlon="13.320858105289552,52.5233846151319"/>
  <polygon id="318034578" class="tile" points="-206.041194015,1547.28714214 -218.088402776,1552.31307152 -219.960801941,1548.72460138 -224.583827111,1538.0005742 -226.370526192,1533.84106077 -228.639490166,1528.58488564 -232.075681789,1520.88686759 -233.961564422,1516.2747149 -222.586942867,1511.28144926 -220.086439077,1511.80591382 -207.138701505,1506.26053258 -206.609193187,1507.54335385 -206.016104172,1508.9963431 -219.050729359,1514.11280407 -219.269180987,1515.66296054 -206.041194015,1547.28714214 " moovel_rot="-62.6" moovel_centroid="-219.498072929,1530.06002898" moovel_centroidlatlon="13.384024106821757,52.44886203219803"/>
  <polygon id="175860969" class="tile" points="-234.962756584,1506.48819765 -234.961564422,1541.00971552 -246.096960442,1540.1234 -251.821282981,1538.12185415 -261.477578277,1529.45161403 -266.650854651,1521.9965569 -266.327691051,1519.04167863 -263.766620714,1516.64872244 -257.282903194,1511.78933866 -248.720484552,1507.67563581 -241.374875125,1506.26053258 -234.962756584,1506.48819765 " moovel_rot="-48.8" moovel_centroid="-247.671445112,1523.25027785" moovel_centroidlatlon="13.586724704699249,52.51250140054434"/>
  <polygon id="284757861" class="tile" points="-273.168469086,1544.64432829 -267.650854651,1536.73798617 -267.858778709,1516.83814134 -274.255545178,1516.88523715 -274.366901241,1506.32290227 -281.107504831,1506.26053258 -281.006667283,1531.2100062 -287.195964989,1531.19077627 -287.204355047,1545.75284492 -280.747687069,1545.57586599 -273.168469086,1544.64432829 " moovel_rot="-19.4" moovel_centroid="-276.777407251,1529.06588989" moovel_centroidlatlon="13.205986337858395,52.54398388263706"/>
  <polygon id="60541813" class="tile" points="-300.597953063,1506.26053258 -288.839057223,1518.09769417 -288.204355047,1554.85421056 -321.892479517,1556.71603799 -321.851486485,1507.07095725 -300.597953063,1506.26053258 " moovel_rot="0.5" moovel_centroid="-305.843468231,1532.18357175" moovel_centroidlatlon="13.272005019347647,52.5762593785203"/>
  <polygon id="385207017" class="tile" points="-336.688509709,1520.61647223 -341.712338488,1520.67224176 -340.453446092,1517.89557478 -337.798617994,1516.07281234 -331.211766371,1515.81488796 -327.839427209,1515.70753176 -324.918167826,1516.48930238 -322.892479517,1518.40154283 -323.188992585,1506.26053258 -325.311374131,1508.96770258 -326.826133214,1510.30003058 -328.205585963,1510.43560352 -350.530341232,1510.01905884 -350.51618824,1555.15033926 -349.813349102,1564.36460459 -345.835663055,1564.17124892 -341.027316711,1563.92018399 -341.28937404,1554.92953194 -336.259595461,1554.87679744 -336.688509709,1520.61647223 " moovel_rot="-26.9" moovel_centroid="-342.279385234,1533.63869078" moovel_centroidlatlon="13.554571138728647,52.546513613876456"/>
  <polygon id="365890518" class="tile" points="-351.543142458,1549.00561342 -385.698529784,1548.9586475 -385.68879654,1511.40341321 -385.689176261,1506.26053258 -351.530341232,1506.3197754 -351.538546206,1513.22378417 -351.543142458,1549.00561342 " moovel_rot="-15.9" moovel_centroid="-368.6172725,1527.63633101" moovel_centroidlatlon="13.50802160268758,52.492336868370884"/>
  <polygon id="51218883" class="tile" points="-410.69267555,1506.64704842 -413.707202511,1560.90520905 -410.949057262,1566.58559001 -411.015381251,1614.800356 -386.790306589,1615.36976016 -386.698529784,1512.18934516 -394.887147504,1506.26053258 -410.69267555,1506.64704842 " moovel_rot="82.8" moovel_centroid="-399.287094554,1560.80029558" moovel_centroidlatlon="13.533561682979908,52.510676233098806"/>
  <polygon id="175902082" class="tile" points="-414.707202511,1592.18811177 -439.223911764,1591.06112436 -441.367893166,1588.26276824 -442.752220221,1584.85494828 -443.929078684,1581.02460425 -444.4601354,1577.21004328 -443.727869535,1572.79164668 -442.056211491,1568.92402027 -440.452059625,1563.78532292 -439.06126264,1558.86188969 -438.334054918,1554.65048556 -438.936911793,1506.27080699 -435.256675103,1506.26053258 -414.748165848,1546.36100785 -414.707202511,1592.18811177 " moovel_rot="-91.4" moovel_centroid="-428.792535669,1557.63195222" moovel_centroidlatlon="13.50031236531799,52.51873478360849"/>
  <polygon id="49896481" class="tile" points="-445.4601354,1548.06545415 -459.10720844,1548.2524709 -459.10720844,1506.26053258 -445.4601354,1506.26721175 -445.4601354,1548.06545415 " moovel_rot="-90" moovel_centroid="-452.288929859,1527.21145208" moovel_centroidlatlon="13.406118924479875,52.39276865184004"/>
  <polygon id="368042926" class="tile" points="-460.10720844,1519.23156143 -460.111812375,1506.26191893 -464.315641563,1506.26053258 -464.311036246,1519.2301749 -460.10720844,1519.23156143 " moovel_rot="-82.9" moovel_centroid="-462.211424651,1512.7460466" moovel_centroidlatlon="13.343098950000002,52.516831750000016"/>
  <polygon id="337595232" class="tile" points="-465.315641563,1534.89694746 -476.113729252,1534.90839268 -476.11763054,1526.06492959 -480.734408572,1526.06609454 -480.719153075,1519.17980952 -468.531734026,1519.17806382 -468.540104076,1506.27353554 -466.953753752,1506.27125187 -465.618969582,1506.26053258 -465.621585807,1519.17166349 -465.326400173,1519.20044164 -465.315641563,1534.89694746 " moovel_rot="-90.4" moovel_centroid="-471.168658923,1524.20102452" moovel_centroidlatlon="13.36101392282618,52.4822514174822"/>
  <polygon id="388826375" class="tile" points="-482.118841279,1536.08572341 -481.734408572,1507.39437365 -513.912128239,1506.26053258 -513.824293102,1568.26568248 -504.280844168,1626.19411448 -499.062171726,1657.85061487 -485.799633418,1658.74646679 -483.288615156,1582.27479616 -482.118841279,1536.08572341 " moovel_rot="70.9" moovel_centroid="-496.91402664,1572.7028565" moovel_centroidlatlon="13.267693532849963,52.53325844948186"/>
  <polygon id="327970217" class="tile" points="-514.920632777,1537.7275509 -530.013632015,1537.70477508 -530.00515446,1506.26053258 -514.912128239,1506.28329994 -514.920632777,1537.7275509 " moovel_rot="-72.6" moovel_centroid="-522.462886532,1521.99403494" moovel_centroidlatlon="13.253518050000002,52.4445983"/>
  <polygon id="378025207" class="tile" points="-535.955718314,1506.30568756 -535.908586229,1528.29871615 -531.038350886,1528.42008274 -531.013632015,1506.26053258 -535.955718314,1506.30568756 " moovel_rot="-8.4" moovel_centroid="-533.475991273,1517.29430463" moovel_centroidlatlon="13.338629638316739,52.52942174754781"/>
  <polygon id="72545200" class="tile" points="-536.955718314,1506.72602874 -537.690140733,1533.32622264 -557.804970066,1533.50313271 -557.839215038,1506.26053258 -536.955718314,1506.72602874 " moovel_rot="4.6" moovel_centroid="-547.611821355,1519.86866444" moovel_centroidlatlon="13.363719509205806,52.59538875406397"/>
  <polygon id="165966669" class="tile" points="-558.928643013,1649.77274189 -558.839215038,1506.26300234 -560.96923572,1506.26464786 -565.833571748,1506.26053258 -565.923349478,1649.76360211 -558.928643013,1649.77274189 " moovel_rot="-86.9" moovel_centroid="-562.381172288,1578.01617426" moovel_centroidlatlon="13.311870356681665,52.5776259496013"/>
  <polygon id="244328023" class="tile" points="-568.45496478,1506.44838395 -566.923349478,1595.07204784 -580.152189749,1595.40931366 -579.889157204,1506.26053258 -568.45496478,1506.44838395 " moovel_rot="-53.2" moovel_centroid="-573.853152025,1551.87780274" moovel_centroidlatlon="13.582476583197755,52.51481575213264"/>
  <polygon id="266009525" class="tile" points="-17.2746994254,1658.74646679 -14.5209803274,1671.36853477 -0.213390193507,1668.25284796 -0.013946160581,1673.71633358 -0.331468095817,1682.96688161 0.0,1695.73800157 -29.7521461171,1702.68772806 -30.6724726827,1698.76367875 -35.8122952024,1699.93583445 -37.3973974122,1692.00317281 -33.9728731882,1676.96333971 -32.7340013696,1661.79088817 -17.2746994254,1658.74646679 " moovel_rot="11.3" moovel_centroid="-19.070435499415073,1682.20759449" moovel_centroidlatlon="13.307207192108844,52.50856364482088"/>
  <polygon id="205131614" class="tile" points="-68.5538894118,1733.93984723 -39.3973974122,1673.1429595 -68.6549338574,1658.74646679 -68.5538894118,1733.93984723 " moovel_rot="-26.2" moovel_centroid="-58.8687402271,1688.60975784" moovel_centroidlatlon="13.454807333333333,52.432804833333336"/>
  <polygon id="225969938" class="tile" points="-83.6010892885,1658.74646679 -69.7124872254,1664.34218248 -69.6549338574,1774.43333164 -84.9717498735,1772.5136831 -83.6010892885,1658.74646679 " moovel_rot="38.7" moovel_centroid="-77.0342230491,1718.39475988" moovel_centroidlatlon="13.226241042667903,52.62660278084805"/>
  <polygon id="50434006" class="tile" points="-111.038399209,1658.74646679 -120.27608464,1679.16018191 -120.661729132,1726.1113419 -113.366802491,1726.26122877 -85.9717498735,1726.72187916 -86.0026130652,1696.04415018 -91.7535030692,1696.02688624 -91.1684602558,1667.31309291 -91.1923585512,1667.36623644 -94.2221770362,1666.00803949 -111.038399209,1658.74646679 " moovel_rot="-4.1" moovel_centroid="-104.229444306,1696.87095044" moovel_centroidlatlon="13.523115107159564,52.49506785446151"/>
  <polygon id="360469907" class="tile" points="-121.662366528,1689.47850365 -121.661729132,1658.74646679 -127.940891082,1658.78827185 -127.850033934,1689.61460718 -121.662366528,1689.47850365 " moovel_rot="-94.5" moovel_centroid="-124.780423711,1674.11939478" moovel_centroidlatlon="13.257943183784707,52.550844532917615"/>
  <polygon id="126252010" class="tile" points="-147.322211361,1762.50702698 -147.397013745,1768.10992216 -129.369647327,1768.39849609 -128.940891082,1738.77442844 -132.509331395,1738.71841044 -132.467213009,1735.58155723 -129.402968969,1735.63191719 -129.011852404,1707.98821908 -133.130332015,1707.92603072 -133.08331428,1704.7668682 -129.319126851,1704.82827566 -128.948055174,1679.2641852 -133.262282307,1679.1966075 -133.220399602,1676.44952046 -129.502042758,1676.51041196 -129.255767088,1659.03423808 -147.214485776,1658.74646679 -147.305800997,1664.9178599 -141.464717903,1665.01215748 -142.041061871,1704.95068906 -138.162290477,1705.01338421 -138.215895496,1708.50154033 -141.050958799,1708.45375203 -141.837324564,1762.59414158 -147.322211361,1762.50702698 " moovel_rot="-73.7" moovel_centroid="-135.902120921,1713.74402528" moovel_centroidlatlon="13.570756441110266,52.57154483566071"/>
  <polygon id="26314008" class="tile" points="-153.125285738,1658.74646679 -230.466858457,1738.38491833 -231.96629203,1794.17310439 -155.234077589,1923.31791974 -149.74468165,1919.19486388 -148.437653022,1914.46025573 -162.315868761,1887.4392707 -162.497133798,1869.26593128 -162.989948452,1831.93405233 -159.155100871,1736.00856803 -156.022386171,1705.31680237 -148.397013745,1659.49363187 -153.125285738,1658.74646679 " moovel_rot="81.5" moovel_centroid="-186.983128639,1778.80060385" moovel_centroidlatlon="13.435006325038465,52.6372676724346"/>
  <polygon id="298716471" class="tile" points="-232.981619695,1658.74646679 -232.96629203,1672.64678429 -245.339469154,1672.09617384 -245.298454016,1658.91523956 -232.981619695,1658.74646679 " moovel_rot="39.5" moovel_centroid="-239.091875454,1665.6072226" moovel_centroidlatlon="13.291339127091685,52.49644594002416"/>
  <polygon id="137879519" class="tile" points="-248.483035995,1658.74646679 -293.710209527,1661.2256562 -291.597155072,1704.98464987 -299.492613544,1719.00382607 -297.507851881,1742.18404342 -246.339469154,1735.21345632 -246.347155218,1714.52802362 -247.146712725,1695.94515043 -269.758237415,1699.10501287 -270.702389667,1675.55925685 -248.061396969,1674.32972875 -248.483035995,1658.74646679 " moovel_rot="-90.1" moovel_centroid="-273.217458056,1702.99554547" moovel_centroidlatlon="13.563170560990477,52.51106386231905"/>
  <polygon id="283033821" class="tile" points="-300.492613544,1730.1442342 -300.497124887,1659.66886503 -325.261249238,1658.74646679 -325.649636244,1729.25109947 -300.492613544,1730.1442342 " moovel_rot="-58.5" moovel_centroid="-312.976692709,1694.54505557" moovel_centroidlatlon="13.450037507223529,52.52883824707531"/>
  <polygon id="16110303" class="tile" points="-326.657031047,1709.11296176 -326.649636244,1658.74646679 -350.639396391,1658.88316309 -350.170914811,1691.915293 -357.079543744,1699.46662069 -352.058247396,1705.17625638 -350.312379902,1707.47311078 -326.657031047,1709.11296176 " moovel_rot="-32.8" moovel_centroid="-339.035007364,1684.17172771" moovel_centroidlatlon="13.39119645918241,52.496333101096376"/>
  <polygon id="187663935" class="tile" points="-358.079543744,1758.51999416 -374.861945539,1758.42235374 -374.81836482,1729.45529692 -374.327999381,1658.77104292 -366.155096135,1658.74646679 -358.093135281,1658.78190919 -358.079543744,1758.51999416 " moovel_rot="-9.0" moovel_centroid="-366.368230011,1708.91447748" moovel_centroidlatlon="13.484277251908239,52.513439588415686"/>
  <polygon id="15241907" class="tile" points="-414.5203343,1658.85529648 -382.819301257,1658.74646679 -382.450287956,1663.32397826 -375.88866787,1663.00058846 -375.861945539,1705.64664764 -378.253249867,1710.15342824 -382.457351958,1710.07631046 -389.731229644,1718.34261237 -393.479501143,1719.75443314 -409.893249437,1721.28641716 -414.654541192,1716.43384447 -414.593499606,1696.24733485 -420.946993998,1696.50525934 -421.016035377,1684.28188362 -414.579610044,1684.09952773 -414.5203343,1658.85529648 " moovel_rot="76.1" moovel_centroid="-396.873776884,1688.5483051" moovel_centroidlatlon="13.311001874224234,52.56751065011412"/>
  <polygon id="415472355" class="tile" points="-432.958716051,1658.74646679 -422.055143991,1659.34726415 -422.016035377,1779.94942212 -433.317004803,1779.82222723 -432.958716051,1658.74646679 " moovel_rot="-1.2" moovel_centroid="-427.590925994,1719.82608494" moovel_centroidlatlon="13.306040300086146,52.52397216474305"/>
  <polygon id="167228108" class="tile" points="-434.335304736,1658.7491877 -441.474306914,1658.74646679 -441.462584712,1704.48155827 -434.317004803,1704.48543887 -434.335304736,1658.7491877 " moovel_rot="-9.9" moovel_centroid="-437.897284087,1681.61917275" moovel_centroidlatlon="13.414366665725723,52.462240768396185"/>
  <polygon id="187445976" class="tile" points="-442.505841523,1668.56733069 -442.818128454,1679.80084367 -463.106875733,1706.85952172 -481.28171155,1707.28831413 -481.296235953,1658.74646679 -466.395312681,1658.86863971 -466.416348184,1666.82512882 -442.474306914,1666.45617538 -442.505841523,1668.56733069 " moovel_rot="-81.6" moovel_centroid="-465.484590736,1682.58949998" moovel_centroidlatlon="13.244358871115226,52.5414783919796"/>
  <polygon id="15373976" class="tile" points="-482.299678815,1677.38067613 -482.296235953,1658.74792129 -492.28980197,1658.74646679 -492.29324618,1677.37922158 -482.299678815,1677.38067613 " moovel_rot="-92.0" moovel_centroid="-487.294740727,1668.06357166" moovel_centroidlatlon="13.317912999999999,52.575215299999996"/>
  <polygon id="168019556" class="tile" points="-493.29324618,1661.81232986 -493.298875949,1691.13690176 -506.774622616,1690.73633644 -507.62025269,1723.67307904 -519.497001955,1725.80934609 -522.061251805,1718.92159256 -528.705890095,1678.32868547 -527.527127101,1670.26740872 -523.307814606,1664.90417394 -519.800930306,1662.79727168 -502.044025811,1658.74646679 -501.060281968,1663.44860975 -493.29324618,1661.81232986 " moovel_rot="78.6" moovel_centroid="-512.063317618,1687.44918411" moovel_centroidlatlon="13.48345570686431,52.50853409599647"/>
  <polygon id="229733063" class="tile" points="-0.00514037590474,2042.25882864 -25.0904834915,2051.06221206 -69.7834608464,1995.48943482 -60.3490406636,1985.46678718 -52.3259844555,1981.13261171 -34.7760774795,1947.85441066 -49.376640836,1956.92607841 -56.5741900435,1944.75402137 -31.0898926629,1927.74843621 -31.777290703,1925.57161939 -31.0450879036,1923.31791974 -17.1741715997,1927.06167728 -24.9378560353,1950.74633792 -28.9896768982,1949.54102872 -42.88390515,1978.12626579 0.0,1966.51948336 -0.00514037590474,2042.25882864 " moovel_rot="-86.9" moovel_centroid="-28.44058172203689,1995.42478269" moovel_centroidlatlon="13.254228292887346,52.46641722322052"/>
  <polygon id="430353346" class="tile" points="-71.7834608464,2001.44127264 -72.3435369577,1996.50885552 -71.8700902587,1925.16429767 -72.7901190231,1924.35250164 -74.1721542611,1923.62057903 -75.2722673754,1923.37843607 -77.1510937808,1923.31791974 -78.476397545,1923.89123337 -79.4335884388,1924.83798811 -79.7123856649,1998.56465706 -79.3369572154,2003.60210166 -78.085838156,2008.33465809 -71.7834608464,2001.44127264 " moovel_rot="-25.9" moovel_centroid="-75.8715694511,1964.3873255" moovel_centroidlatlon="13.33352618278796,52.50701359633948"/>
  <polygon id="318658500" class="tile" points="-80.7123856649,1923.32480272 -93.6848249966,1923.31791974 -93.6935632349,1960.01843021 -91.3088785016,1960.02307468 -91.0617797198,1960.02695642 -84.0685212172,1960.07118101 -80.7284894799,1960.06895518 -80.729582441,1958.01239642 -80.7123856649,1923.32480272 " moovel_rot="-0.9" moovel_centroid="-87.2036288526,1941.68293694" moovel_centroidlatlon="13.384900257134372,52.47335784642227"/>
  <polygon id="385321158" class="tile" points="-108.537598556,1923.31791974 -111.458047894,1927.05940676 -101.554174678,1934.8007632 -111.469110586,1947.48317354 -107.54137666,1950.55452349 -94.6935632349,1934.13382583 -108.537598556,1923.31791974 " moovel_rot="44.2" moovel_centroid="-103.797022439,1936.52321466" moovel_centroidlatlon="13.250503452513149,52.5375611015337"/>
  <polygon id="68695339" class="tile" points="-112.491173331,1923.31791974 -112.881017419,1933.25240229 -113.061750091,1937.26952387 -113.230497316,1940.73643998 -113.821477241,1953.28323234 -112.472988545,1953.64227844 -112.469110586,1960.70497471 -112.550267839,1965.56352249 -118.782903325,1964.89471899 -122.847299656,1964.00390575 -122.744233265,1959.80958401 -126.474140332,1959.94904505 -127.981259008,1954.03482903 -131.182668687,1953.65021521 -131.024521723,1949.43858767 -130.321699541,1929.47703705 -126.946778284,1929.58965521 -126.785711967,1924.9632907 -112.491173331,1923.31791974 " moovel_rot="39.7" moovel_centroid="-121.02197069,1943.67748712" moovel_centroidlatlon="13.307775180105187,52.47716941168853"/>
  <polygon id="339538919" class="tile" points="-132.182668687,1946.72402684 -151.245230979,1946.30041355 -150.983486826,1923.31791974 -132.189203805,1924.08739658 -132.182668687,1946.72402684 " moovel_rot="-37.8" moovel_centroid="-141.674795344,1935.13340875" moovel_centroidlatlon="13.258679953284565,52.498212624430224"/>
  <polygon id="99252834" class="tile" points="-156.602917083,1928.68308289 -152.245230979,1928.62730494 -152.298827102,1923.31791974 -156.600320722,1923.38927881 -156.602917083,1928.68308289 " moovel_rot="-85.4" moovel_centroid="-154.435679991,1926.01010614" moovel_centroidlatlon="13.178324088418348,52.5321463812305"/>
  <polygon id="23886298" class="tile" points="-157.602917083,1984.86148951 -157.618079497,1923.54793655 -165.683708964,1923.41640037 -173.610229152,1923.31791974 -174.453617994,1984.36882598 -166.607679645,1984.49933044 -157.602917083,1984.86148951 " moovel_rot="-40.8" moovel_centroid="-165.817210063,1954.26229319" moovel_centroidlatlon="13.497163548695195,52.63385830580273"/>
  <polygon id="270730067" class="tile" points="-175.479609626,1923.6385006 -175.453617994,2004.67520841 -183.172408652,2004.69194584 -191.260969129,2004.71200012 -191.281338732,1933.90104767 -191.280237467,1931.929343 -191.017279054,1923.31791974 -175.479609626,1923.6385006 " moovel_rot="67.1" moovel_centroid="-183.368461471,1964.11956093" moovel_centroidlatlon="13.276317371766035,52.506386382267266"/>
  <polygon id="117589611" class="tile" points="-197.675906548,1960.62012781 -192.609653127,1957.00466566 -192.281338732,1923.50466481 -197.681851187,1923.31791974 -197.675906548,1960.62012781 " moovel_rot="-41.4" moovel_centroid="-195.109544969,1940.92917517" moovel_centroidlatlon="13.301729340387153,52.573099914144414"/>
  <polygon id="284699688" class="tile" points="-229.509905887,1982.0236235 -198.681851187,1982.01609262 -198.688862823,1923.31791974 -229.523594661,1923.32561566 -229.509905887,1982.0236235 " moovel_rot="1.5" moovel_centroid="-214.101046674,1952.66975353" moovel_centroidlatlon="13.51093907447417,52.5284343596677"/>
  <polygon id="316448127" class="tile" points="-230.523594661,1960.95082014 -234.404253433,1962.20940367 -254.022337186,1968.00277671 -250.158951265,1981.09240527 -251.401379824,1981.58919104 -255.97846433,1968.7456007 -256.183883046,1963.25674914 -256.147731492,1936.85690227 -251.769771443,1926.15513954 -242.882318077,1923.31791974 -230.523594661,1960.95082014 " moovel_rot="-72.5" moovel_centroid="-246.06515833,1948.42674241" moovel_centroidlatlon="13.384520401257394,52.470442310311206"/>
  <polygon id="26928082" class="tile" points="-290.296316354,2205.16980635 -263.050056431,2208.87482231 -262.601900322,2200.19668279 -257.183883046,2200.14060467 -257.204158235,1989.91817243 -283.106303256,1988.87731391 -283.29071438,1929.38836119 -319.846395737,1923.31791974 -329.661424742,2020.86649234 -325.19028106,2020.80951548 -292.46411961,2020.42971425 -292.07689685,2046.45060419 -291.743904998,2068.76079919 -291.553988692,2085.99530915 -291.412508026,2091.37934677 -286.415107876,2091.42888926 -286.179543926,2106.95246592 -286.094426991,2112.32161511 -286.015619517,2117.71893805 -285.760515454,2134.15196631 -290.642150399,2134.28090859 -290.296316354,2205.16980635 " moovel_rot="55.1" moovel_centroid="-284.58528289,2054.42650259" moovel_centroidlatlon="13.43904927460932,52.51005527527694"/>
  <polygon id="275251366" class="tile" points="-331.523524023,1923.31791974 -349.90528835,1923.36222887 -349.858047812,1978.91798331 -338.962558466,1978.89168501 -331.495327444,1978.87990583 -331.51762961,1952.24405288 -330.661424742,1952.23782357 -330.670843027,1945.72146115 -331.501682507,1945.7193013 -331.523524023,1923.31791974 " moovel_rot="18.3" moovel_centroid="-340.643854689,1951.09974817" moovel_centroidlatlon="13.179026147399055,52.54361357307363"/>
  <polygon id="35988981" class="tile" points="-350.912055717,1923.31791974 -373.529939333,1923.31871951 -373.52317192,1973.54190748 -350.90528835,1973.54111103 -350.912055717,1923.31791974 " moovel_rot="-0.8" moovel_centroid="-362.217613706,1948.42991443" moovel_centroidlatlon="13.387203499999998,52.39011965"/>
  <polygon id="24964658" class="tile" points="-374.529939333,1973.49309995 -375.361262913,1989.44882056 -418.757364517,1987.0530007 -418.430291008,1977.60231491 -403.582449597,1978.32621023 -401.620663969,1947.34641823 -411.200974999,1946.39047243 -418.720672128,1935.45327379 -411.576554455,1930.43746172 -413.729737911,1927.35759121 -407.444870728,1923.31791974 -374.529939333,1973.49309995 " moovel_rot="-20.6" moovel_centroid="-396.424267598,1964.34328979" moovel_centroidlatlon="13.370483138938008,52.543964762228065"/>
  <polygon id="150591185" class="tile" points="-419.757364517,1923.31976186 -423.926894461,1923.31791974 -423.96607541,1981.0224144 -419.799570748,1981.0137061 -419.757364517,1923.31976186 " moovel_rot="16.0" moovel_centroid="-421.862537342,1952.164952" moovel_centroidlatlon="13.444582736457345,52.571425655794094"/>
  <polygon id="203618077" class="tile" points="-424.96607541,1923.32898204 -429.798123833,1923.31791974 -429.827334014,1964.30578843 -424.995952987,1964.30593891 -424.96607541,1923.32898204 " moovel_rot="3.5" moovel_centroid="-427.396978415,1943.81417986" moovel_centroidlatlon="13.435088951160191,52.4408858794186"/>
  <polygon id="224414255" class="tile" points="-430.849347679,1923.32551467 -430.827334014,1971.69728052 -454.921924354,1971.68450971 -454.932227741,1923.31791974 -430.849347679,1923.32551467 " moovel_rot="-82.4" moovel_centroid="-442.882493191,1947.50826544" moovel_centroidlatlon="13.346817845419219,52.541141624574315"/>
  <polygon id="24064640" class="tile" points="-455.93273542,1924.03268653 -468.769778719,1923.31791974 -469.23748654,1942.24667786 -469.602851178,1956.97863752 -455.932227741,1957.49178509 -455.93273542,1924.03268653 " moovel_rot="-13.8" moovel_centroid="-462.569282857,1940.63014821" moovel_centroidlatlon="13.318396319114429,52.572589829196055"/>
  <polygon id="403836780" class="tile" points="-482.404514157,1939.93026567 -470.627562771,1939.62546031 -470.602851178,1923.31791974 -482.649160352,1923.63073616 -482.404514157,1939.93026567 " moovel_rot="-61.8" moovel_centroid="-476.57116677,1931.59537039" moovel_centroidlatlon="13.55620620641538,52.56851073128097"/>
  <polygon id="229377170" class="tile" points="-483.66376545,1974.6428225 -483.649160352,1923.31791974 -493.990072179,1924.18988265 -493.276874594,1975.62633714 -483.66376545,1974.6428225 " moovel_rot="-84.0" moovel_centroid="-488.649986318,1949.13268956" moovel_centroidlatlon="13.507412846750137,52.54659827668518"/>
  <polygon id="14669347" class="tile" points="-494.990072179,1923.31791974 -497.1425911,1929.94354948 -497.977399323,1932.71799098 -498.731776907,1936.1866307 -499.601016297,1940.13381643 -500.527596243,1945.59474667 -500.858718072,1949.34331384 -501.289067572,1954.12871923 -501.411431225,1958.78876959 -501.191151925,1963.71980176 -500.932419392,1967.59365437 -500.452412831,1972.62965166 -498.970731419,1981.79417578 -497.143605839,1990.31085762 -494.993583784,1998.76729051 -508.837580487,2002.12299596 -508.985201897,2001.47844703 -510.822579167,2001.93352315 -516.341594633,1979.20831463 -519.85039285,1964.57413629 -520.650314856,1959.61140941 -520.960063863,1955.90683963 -521.089705724,1948.52940231 -520.4145929,1941.52952446 -519.185142649,1935.08789724 -517.419021892,1929.07837685 -507.922136648,1932.07664167 -494.990072179,1923.31791974 " moovel_rot="-77.1" moovel_centroid="-508.590023953,1963.08834026" moovel_centroidlatlon="13.387228645994378,52.4820241635416"/>
  <polygon id="213553320" class="tile" points="-557.175187028,2004.78246663 -557.175366922,2008.97721316 -564.273557173,2008.96967372 -564.240738118,1971.37091101 -563.792290826,1971.36892778 -563.786820166,1965.62458437 -564.246203486,1965.62645308 -564.232139682,1952.7952123 -562.165019364,1952.79682132 -554.519954241,1952.80340829 -554.511840797,1937.40716349 -548.977634833,1937.41168339 -548.972224343,1923.31791974 -522.550755623,1923.6079739 -522.556225817,1929.35231731 -522.107984492,1929.37037053 -522.089705724,1984.02252297 -531.747277041,1984.01489892 -531.760445516,2001.98271203 -557.167543257,2001.96378261 -557.175187028,2004.78246663 " moovel_rot="-90.6" moovel_centroid="-542.611435548,1965.0192082" moovel_centroidlatlon="13.3828955828072,52.46911524948414"/>
  <polygon id="41108247" class="tile" points="0.0,2286.05165413 -5.86523583904,2208.87482231 -69.0438891817,2211.75334398 -69.1630191648,2295.73573139 -64.6498655654,2294.9812099 -65.2265691815,2287.68198591 -60.0420504715,2287.29014271 -61.4050540561,2269.70010977 -32.3715066953,2267.48964656 -32.7575791296,2262.48328124 -18.004660384,2261.35870141 -17.657521192,2265.89372775 -10.4854106393,2265.35511658 -8.86179159544,2286.7089222 0.0,2286.05165413 " moovel_rot="-66.4" moovel_centroid="-36.651123798026205,2242.42391757" moovel_centroidlatlon="13.33192564645724,52.44454232773168"/>
  <polygon id="83823043" class="tile" points="-84.6611859309,2208.89795605 -84.6504684562,2312.2239455 -84.6456723619,2386.15591732 -84.6430021647,2425.62995617 -71.1630191648,2425.60676534 -71.1700056667,2313.55866045 -71.1810302978,2208.87482231 -84.6611859309,2208.89795605 " moovel_rot="71.7" moovel_centroid="-77.9109756508,2317.25224311" moovel_centroidlatlon="13.40273779703032,52.48988869075203"/>
  <polygon id="42778581" class="tile" points="-85.6611859309,2208.87482231 -85.6795993567,2273.7651362 -96.2834073281,2274.06177403 -102.67243514,2274.23519456 -102.927238885,2250.92815496 -123.878226982,2252.58285997 -126.857336731,2211.53051735 -85.6611859309,2208.87482231 " moovel_rot="44.1" moovel_centroid="-103.294757969,2236.7298969" moovel_centroidlatlon="13.300029517775677,52.48640052885368"/>
  <polygon id="97716918" class="tile" points="-127.884782044,2212.04209683 -133.349023054,2212.04779625 -133.354833293,2208.88419864 -144.835935692,2208.87482231 -144.82774691,2236.58254333 -132.539289219,2236.54286485 -132.548568414,2233.93995797 -127.857336731,2233.92488181 -127.884782044,2212.04209683 " moovel_rot="5.8" moovel_centroid="-136.750901492,2222.85592916" moovel_centroidlatlon="13.384429624690947,52.44431007071703"/>
  <polygon id="402755965" class="tile" points="-156.221893934,2209.26301698 -145.859879514,2208.87482231 -145.835935692,2254.83922563 -156.836465267,2254.74394965 -156.221893934,2209.26301698 " moovel_rot="-10.3" moovel_centroid="-151.180438801,2232.15902749" moovel_centroidlatlon="13.2866301431829,52.53956598343626"/>
  <polygon id="435776216" class="tile" points="-157.854260814,2208.87482231 -157.836465267,2234.58260601 -159.910462023,2232.52367721 -159.762524658,2211.19597379 -157.854260814,2208.87482231 " moovel_rot="-68.7" moovel_centroid="-158.810426693,2221.96731605" moovel_centroidlatlon="13.276995470213794,52.5894017109397"/>
  <polygon id="445716424" class="tile" points="-160.910462023,2290.43734982 -165.448299493,2292.73250508 -165.373014123,2211.20690237 -161.048516551,2208.87482231 -160.910462023,2290.43734982 " moovel_rot="-83.7" moovel_centroid="-163.19427567,2251.13962041" moovel_centroidlatlon="13.336933561325914,52.5135990547361"/>
  <polygon id="40346186" class="tile" points="-190.201291533,2269.28669347 -166.448299493,2269.33985656 -166.520574745,2212.58410105 -190.197196745,2208.87482231 -190.19989739,2227.95875312 -190.201291533,2269.28669347 " moovel_rot="-64.7" moovel_centroid="-178.465733661,2240.02758608" moovel_centroidlatlon="13.441749858252253,52.52430437779241"/>
  <polygon id="319894486" class="tile" points="-215.06217636,2219.3264297 -215.085850134,2239.21489525 -191.201291533,2235.86404753 -192.097664223,2208.87482231 -215.06217636,2219.3264297 " moovel_rot="82.7" moovel_centroid="-202.749934927,2225.7054946" moovel_centroidlatlon="13.353605409912662,52.45393078243549"/>
  <polygon id="49056885" class="tile" points="-245.476690775,2208.87482231 -235.043881358,2216.35810746 -216.085850134,2250.43018467 -217.951180747,2266.09769912 -229.669064162,2284.59493705 -245.486075536,2281.12372986 -245.476690775,2208.87482231 " moovel_rot="30.8" moovel_centroid="-233.733254753,2251.1147312" moovel_centroidlatlon="13.273969898643946,52.476292333167876"/>
  <polygon id="23548152" class="tile" points="-291.775547736,2211.05083434 -259.120014782,2208.87482231 -246.486075536,2245.90267847 -270.23444688,2260.81604791 -284.204589452,2289.61778573 -291.781873105,2283.62747754 -286.798301908,2260.21701824 -285.810280631,2239.48258106 -280.311555593,2235.83803338 -291.775547736,2211.05083434 " moovel_rot="75.1" moovel_centroid="-271.953942505,2241.2240137" moovel_centroidlatlon="13.259470952235377,52.48933012800253"/>
  <polygon id="76253621" class="tile" points="-292.800059196,2208.87482231 -292.781873105,2257.65042748 -315.542936226,2255.04790581 -315.124847508,2248.57552482 -328.243343631,2244.78013926 -320.546816416,2209.76008972 -292.800059196,2208.87482231 " moovel_rot="79.9" moovel_centroid="-307.866861768,2232.336136" moovel_centroidlatlon="13.34565137664403,52.56646119131431"/>
  <polygon id="160957859" class="tile" points="-329.243343631,2208.87482231 -357.636938441,2220.7555579 -357.755180415,2351.30953474 -347.902268892,2355.777984 -334.7174155,2355.63166374 -329.265330264,2350.70777764 -329.243343631,2208.87482231 " moovel_rot="-2.6" moovel_centroid="-343.25868467,2284.65252885" moovel_centroidlatlon="13.562175854573944,52.50386327815638"/>
  <polygon id="416508738" class="tile" points="-378.977615538,2277.94249991 -358.761996097,2277.94444169 -358.755180415,2208.88885879 -406.232307976,2208.87482231 -406.237912247,2223.1450033 -378.971348136,2223.14754888 -378.975695767,2277.59630121 -378.977615538,2277.94249991 " moovel_rot="-27.9" moovel_centroid="-374.039060984,2237.44272003" moovel_centroidlatlon="13.56154468800757,52.55928868095835"/>
  <polygon id="399678304" class="tile" points="-407.256275193,2241.08116621 -410.368547486,2239.5916521 -428.694065672,2215.54642788 -421.621054702,2209.90333479 -407.607002799,2208.87482231 -407.237912247,2214.01360023 -422.565743572,2215.7060437 -407.370015825,2236.8058245 -407.256275193,2241.08116621 " moovel_rot="-79.8" moovel_centroid="-416.876650247,2220.9368491" moovel_centroidlatlon="13.47988623903431,52.46162813395586"/>
  <polygon id="103302871" class="tile" points="-453.085803086,2208.88596898 -453.09400911,2234.45866512 -429.694065672,2234.44873552 -429.696710089,2208.87482231 -453.085803086,2208.88596898 " moovel_rot="83.6" moovel_centroid="-441.392553942,2221.66803637" moovel_centroidlatlon="13.271771764568916,52.45158247314405"/>
  <polygon id="32651654" class="tile" points="-454.09400911,2309.28518139 -454.273181786,2270.27511797 -454.211737801,2239.21616915 -454.187430981,2229.89403446 -455.967234883,2227.29610908 -461.386658338,2219.4285058 -468.623984845,2208.87482231 -473.608432298,2212.1401282 -477.89554318,2214.95421506 -480.454349015,2215.81501596 -483.007975042,2217.63177075 -485.109361814,2220.04579734 -486.566196136,2222.64245333 -487.392991884,2226.6391202 -486.454697426,2242.54733465 -485.087052705,2242.54556782 -485.432329032,2258.30469332 -486.830980868,2258.25774781 -486.921414955,2264.30715109 -487.085149342,2268.21844652 -485.624226389,2268.24061483 -485.893705811,2283.80286885 -487.322437137,2283.83598617 -487.453020913,2288.48782359 -487.58357236,2293.69614202 -486.065238232,2293.72833971 -486.339701388,2309.38650038 -454.09400911,2309.28518139 " moovel_rot="-79.8" moovel_centroid="-470.514754487,2262.87367544" moovel_centroidlatlon="13.30802732338727,52.50600123877396"/>
  <polygon id="233154344" class="tile" points="-493.386684392,2208.88607675 -488.588581102,2208.87482231 -488.58357236,2219.31174548 -493.385678462,2219.31283819 -493.386684392,2208.88607675 " moovel_rot="21.5" moovel_centroid="-490.985739022,2214.09709458" moovel_centroidlatlon="13.374661048538146,52.42321866752422"/>
  <polygon id="188137381" class="tile" points="-494.386684392,2219.16443215 -500.668431058,2219.16536117 -500.668689493,2208.87575138 -494.386942052,2208.87482231 -494.386684392,2219.16443215 " moovel_rot="-86.7" moovel_centroid="-497.527686746,2214.02009165" moovel_centroidlatlon="13.321494800000002,52.5779956"/>
  <polygon id="312001347" class="tile" points="-520.479822937,2209.70992601 -518.540865029,2269.9770321 -501.746328334,2268.5114242 -501.668689493,2208.87482231 -520.479822937,2209.70992601 " moovel_rot="73.0" moovel_centroid="-510.636468143,2238.7069124" moovel_centroidlatlon="13.499690282993525,52.51012756490851"/>
  <polygon id="12481907" class="tile" points="-521.520030758,2208.87482231 -539.498160955,2208.95451934 -539.525770487,2244.46656398 -521.479822937,2244.62756754 -521.520030758,2208.87482231 " moovel_rot="-13.0" moovel_centroid="-530.495811317,2226.74206415" moovel_centroidlatlon="13.315081564455888,52.57154347127266"/>
  <polygon id="50828366" class="tile" points="-542.124862198,2209.4034878 -545.771715732,2209.70990558 -545.440869558,2210.84427719 -546.590058982,2211.32075596 -547.185267335,2210.94052988 -549.369318337,2208.87482231 -548.224135028,2310.65345834 -547.900163414,2351.60650281 -547.807168239,2360.25291923 -544.833420142,2362.6878178 -547.146548415,2365.27988732 -549.560206516,2366.6676515 -549.369253253,2370.74849473 -547.501020104,2369.6813428 -547.444683185,2373.02187769 -540.525770487,2372.61122778 -540.635161453,2262.77259204 -541.518184708,2214.65830003 -542.124862198,2209.4034878 " moovel_rot="19.5" moovel_centroid="-544.633576173,2289.96759616" moovel_centroidlatlon="13.400444346249527,52.41579973027577"/>
  <polygon id="81246312" class="tile" points="-550.560206516,2248.73796049 -581.993780357,2247.25393814 -580.537862409,2208.87482231 -550.565995626,2211.32823363 -550.560206516,2248.73796049 " moovel_rot="-34.3" moovel_centroid="-565.988989501,2229.19239305" moovel_centroidlatlon="13.485587134794542,52.63057158624449"/>
  <polygon id="282823271" class="tile" points="-26.9209875262,2425.63309301 -26.9305639087,2459.19229062 -9.02056591306,2459.2010616 -9.0205406419,2455.43824493 -9.0131991908,2438.30188617 -0.00168828768656,2438.30083371 0.0,2428.7016095 -0.000523880403489,2425.62995617 -26.9209875262,2425.63309301 " moovel_rot="5.5" moovel_centroid="-15.821051968861328,2440.74637906" moovel_centroidlatlon="13.413837365278102,52.40153299239885"/>
  <polygon id="223252026" class="tile" points="-28.9847771085,2425.72969581 -28.9305901061,2498.51469559 -28.9305639087,2502.24789686 -92.2063215658,2502.16133376 -100.978652761,2502.14772578 -100.989790018,2490.96704661 -101.033118079,2425.62995617 -28.9847771085,2425.72969581 " moovel_rot="-30.3" moovel_centroid="-64.9819673543,2463.93955717" moovel_centroidlatlon="13.350149297033202,52.427038443038384"/>
  <polygon id="23597175" class="tile" points="-121.179061403,2499.57536885 -121.23165777,2425.66749843 -102.139876955,2425.62995617 -102.033118079,2557.1511307 -121.126669127,2557.19511488 -121.136929679,2552.66875558 -121.179061403,2499.57536885 " moovel_rot="73.4" moovel_centroid="-111.635177475,2491.4155789" moovel_centroidlatlon="13.273809003033985,52.51946635825672"/>
  <polygon id="327511237" class="tile" points="-126.256875616,2445.88010554 -125.854395204,2446.23939676 -122.23165777,2442.07582245 -141.032916526,2425.62995617 -144.656584995,2429.80014446 -130.232343201,2442.40867307 -144.630112097,2458.94778007 -140.654633574,2462.41921406 -126.256875616,2445.88010554 " moovel_rot="82.1" moovel_centroid="-134.357583885,2443.45403334" moovel_centroidlatlon="13.196501491455297,52.433932576468784"/>
  <polygon id="104064655" class="tile" points="-151.663835018,2425.62995617 -151.632743066,2475.95984891 -145.656584995,2475.9660782 -145.687676002,2425.63617789 -151.663835018,2425.62995617 " moovel_rot="-7.1" moovel_centroid="-148.660209696,2450.79801463" moovel_centroidlatlon="13.262066600000002,52.452767650000006"/>
  <polygon id="98298267" class="tile" points="-187.065723198,2425.66324831 -187.116095447,2492.32428561 -161.859360859,2492.30494565 -161.860948559,2488.93236571 -161.835963225,2483.5439954 -161.845901574,2479.15875077 -152.698971256,2479.15162932 -152.663835018,2437.01917562 -162.185828488,2437.02475558 -162.179107936,2425.62995617 -180.061977056,2425.67392252 -187.065723198,2425.66324831 " moovel_rot="68.9" moovel_centroid="-171.27416356,2458.87487325" moovel_centroidlatlon="13.194038989729023,52.52791739726278"/>
  <polygon id="396521207" class="tile" points="-188.116095447,2425.62995617 -188.122348599,2435.18837739 -194.338816373,2437.80934244 -194.371352398,2428.38254813 -188.116095447,2425.62995617 " moovel_rot="-33.4" moovel_centroid="-191.230873028,2431.74490644" moovel_centroidlatlon="13.329836034545707,52.46630484000139"/>
  <polygon id="330713720" class="tile" points="-203.66434346,2425.62995617 -203.654232257,2443.32742626 -195.371352398,2443.33565399 -195.381460212,2425.63817465 -203.66434346,2425.62995617 " moovel_rot="-20.1" moovel_centroid="-199.517846721,2434.48280216" moovel_centroidlatlon="13.33748635,52.56424115"/>
  <polygon id="229635423" class="tile" points="-224.829744336,2425.62995617 -229.771918395,2425.72145373 -234.253293343,2425.79960184 -234.368477572,2426.76263385 -234.915625857,2428.14352161 -236.789219271,2430.04537844 -272.941006418,2430.62839107 -275.829996383,2428.67491465 -276.008540522,2426.4666382 -280.135752552,2426.57574197 -283.755354663,2426.68218787 -284.028010128,2429.46153441 -285.025801206,2434.07110123 -287.47202017,2436.31499089 -233.488068526,2435.45268546 -232.921521925,2472.2186663 -241.94927801,2480.36994022 -246.197395898,2484.17623479 -244.09207076,2486.9868429 -243.464331316,2488.24125953 -243.178141048,2489.32247943 -243.017421697,2490.67776969 -243.01146639,2491.81513907 -243.078064741,2493.12787271 -243.379003445,2494.33246764 -243.787437285,2495.41732324 -244.456126114,2496.54728742 -245.192121085,2497.579175 -246.195508224,2498.56871632 -247.066172742,2499.39351462 -248.144003201,2500.19752446 -249.069589167,2500.73826048 -250.09599119,2501.15922259 -251.436882498,2501.47246613 -252.725142856,2501.63232279 -253.860986935,2501.56171447 -255.016868247,2501.49121106 -256.41428435,2501.21417844 -257.190374422,2500.96670208 -258.040506975,2500.61024817 -259.025309072,2500.04670541 -259.823211514,2499.46031093 -260.575047561,2498.74243684 -260.911578267,2498.25205519 -261.169506126,2497.46597562 -261.233740727,2496.67888174 -286.556280353,2497.67545738 -286.404656841,2536.83821629 -283.770711257,2539.831945 -276.277175067,2533.3402085 -204.70630055,2464.95120684 -204.66434346,2429.59281766 -223.431922438,2429.8113889 -224.703143972,2428.12285875 -224.865409526,2426.47226824 -224.829744336,2425.62995617 " moovel_rot="0.3" moovel_centroid="-243.667464875,2474.23190637" moovel_centroidlatlon="13.37568714462415,52.46812020269484"/>
  <polygon id="134415912" class="tile" points="-288.482703683,2425.62995617 -288.47202017,2447.32047602 -294.125500178,2447.32670255 -298.902296413,2447.33578646 -298.913630626,2425.63431409 -288.482703683,2425.62995617 " moovel_rot="3.4" moovel_centroid="-293.693094907,2436.47950375" moovel_centroidlatlon="13.350489905898709,52.59838518096154"/>
  <polygon id="210596479" class="tile" points="-299.941003252,2509.83770768 -306.360502032,2460.06177018 -299.913630626,2425.62995617 -310.551530237,2426.86493106 -341.505506766,2449.28693828 -323.613543502,2514.22789536 -299.941003252,2509.83770768 " moovel_rot="-10.9" moovel_centroid="-317.937200232,2470.00932634" moovel_centroidlatlon="13.440216635526836,52.44087309701246"/>
</svg>