<svg><g transform="translate(0 0)"><polygon id="1" class="bin" points="-1.875,0.0 0.77665042945,1.09834957055 1.875,3.75 1.875,1203.749999 0.77665042945,1206.40164943 -1.875,1207.499999 -194.765236194,1207.499999 -197.42213795,1206.39638768 -198.515206721,1203.7351313 -198.460686891,1189.9839975 -200.289739625,1185.76678118 -204.630695045,1184.25467888 -208.147001175,1184.5295103 -208.43266176,1184.54090647 -263.299194213,1184.63666673 -264.77170526,1184.33825809 -267.441035007,1183.2045337 -283.384673736,1183.00527409 -286.005925436,1181.89065031 -287.087810829,1179.25571755 -287.088436631,1163.67589977 -285.982467977,1161.01650146 -283.316766938,1159.92581175 -267.943813846,1160.01464716 -262.803102428,1158.11418112 -262.728686748,1158.3154736 -261.2543245,1157.4402556 -207.841961909,1157.57056732 -204.330765118,1157.56999594 -200.268353041,1155.88665552 -198.585793815,1151.82390508 -198.587095437,1097.25740683 -200.324331688,1093.14402728 -204.484103741,1091.52101234 -211.698655342,1091.72009009 -213.809746068,1092.11447488 -219.909710763,1094.28452705 -220.756464918,1094.47894123 -224.839795533,1094.92822943 -226.361422552,1094.78221778 -229.236808463,1093.88986256 -230.762467232,1092.97444284 -233.80748888,1089.96245613 -233.901305354,1089.87140587 -236.455575138,1087.43918181 -240.724852293,1085.57275855 -248.605109431,1085.07288921 -249.106574703,1085.05941989 -253.064294449,1085.09757859 -255.737870097,1084.01355642 -256.850446608,1081.35173668 -256.961008369,977.278574042 -257.832614268,975.189265429 -257.603458367,971.843294382 -254.789347348,970.018790654 -248.806049351,969.348243212 -245.614163005,967.939066768 -243.800128728,964.958597621 -237.800855728,940.71666017 -237.692222147,940.190203118 -228.384510166,884.079309116 -228.354321102,883.918998341 -222.056509708,854.062450738 -222.032765937,853.957382475 -215.20652978,825.648113754 -215.049536807,823.355508817 -215.197247866,821.881416879 -218.295918401,816.843973829 -219.206274376,816.26337484 -221.329307535,815.368179657 -278.305488401,802.006937111 -278.316797686,802.004266526 -298.992478276,797.08805879 -301.067408496,795.764581037 -301.874999,793.439774302 -301.874999,768.138790832 -300.835659955,765.547494403 -298.293763168,764.392590269 -295.658318013,765.314258143 -294.742567293,766.113988626 -294.401628608,766.392991207 -278.104644836,778.879376127 -275.984299062,779.979951333 -265.120146126,783.385616649 -263.464217919,783.688502986 -254.389093355,784.215869876 -249.698252043,782.701240009 -249.54596625,782.577412815 -247.073825461,778.022049162 -246.223635518,770.05566957 -246.184827264,769.334535113 -246.076345011,679.499878003 -246.077309354,679.376130599 -247.459697869,597.064220357 -247.460119689,596.972931879 -246.977469838,533.059881794 -250.394251369,527.147433193 -263.542760569,519.702176588 -268.280961778,519.296859533 -271.680213964,522.622504912 -284.989786497,557.302373839 -285.066444951,557.487216554 -294.700636904,579.071411493 -297.220069265,581.182109772 -300.434654114,580.497251473 -301.874999,577.542933742 -301.874999,479.471437651 -301.410752657,477.664140523 -292.417763075,461.314450179 -292.052865661,460.540546974 -233.203576531,312.474056839 -233.349291932,307.908251902 -234.451141696,306.944833702 -235.696929608,304.638974022 -236.038487107,302.186112141 -239.099078513,299.525843892 -280.674221856,284.015039248 -281.889735571,283.272921244 -290.766044654,275.181399832 -294.694903537,273.676982389 -295.761272793,274.104493601 -299.62232848,273.4492418 -300.5906289,272.60425419 -301.874999,269.778803926 -301.874999,197.837018825 -300.83385426,195.24383484 -298.28854397,194.090586784 -295.652420888,195.017647002 -260.308234584,226.014360784 -258.798861704,227.019570514 -249.23576428,231.6992856 -245.594121299,232.188167329 -242.387091357,230.394978023 -225.743049661,212.141710152 -224.252439284,207.962589342 -226.185553433,203.96883926 -280.972210895,155.596581096 -282.233983326,153.001890483 -281.279591568,150.279093131 -257.803921395,124.153020727 -257.761266546,124.106347671 -247.277925532,112.827871918 -247.141643249,112.676831906 -230.44706407,93.6147912553 -229.034541468,89.467659959 -230.96765727,85.5036606217 -231.083014468,82.4776068084 -229.688250538,78.9603504393 -229.040328307,65.9289477868 -228.125668416,63.6555824879 -225.668633301,60.8278042 -224.272850827,56.670366537 -226.215844392,52.7387927245 -233.502867789,46.343136808 -234.739245571,42.9787364886 -234.705383022,42.7486340861 -236.898567127,36.7180248245 -270.631073639,6.70766658813 -270.620744872,6.69605675744 -271.832835282,5.81443500318 -272.418151252,3.24549453158 -271.169083526,0.925606657479 -268.702242987,0.0 -1.875,0.0 " moovel_rot="0" moovel_centroid="-127.02700077034959,590.9549175982893" moovel_centroidlatlon="0,0" transform="translate(301.875 0)"></polygon><g transform="translate(-342.26000306441307 -864.202828600542) rotate(0)"><polygon id="378749242" class="tile" points="485.607310601,1201.0 392.51597098,1226.91527426 392.603336408,1368.27987061 411.34652342,1438.33894363 426.597001554,1438.87427978 435.897216798,1475.342076 449.487872782,1471.33119665 459.952839176,1510.21645082 464.215820051,1508.77445121 422.237777773,1349.18197499 425.919933234,1348.29921761 413.023996235,1298.68890371 505.856214574,1273.75072154 485.607310601,1201.0 " moovel_rot="74.8" moovel_centroid="434.369907552,1306.0656759876947" moovel_centroidlatlon="-118.59585482239405,34.17021067341985"></polygon></g><g transform="translate(-345.2466209 -1652.5320391999999) rotate(0)"><polygon id="24794714" class="tile" points="488.286456225,2307.08495942 467.993887844,2281.26728121 472.842730432,2277.31107902 472.989354702,2276.17814504 471.505119361,2274.40573319 503.123445964,2250.56522891 506.366694896,2250.41668656 509.545841167,2248.92983822 512.597104849,2245.2242194 523.847378035,2236.65825654 506.409453459,2213.83196308 504.220406949,2209.98071915 486.829182996,2166.59039129 482.196580021,2168.1137689 451.621014746,2090.62113292 451.942098686,2084.9857053 458.630103325,2080.68015268 464.504911843,2080.46770394 494.720833669,2096.57522093 502.574214892,2102.52974496 522.753228302,2125.7308284 535.58349922,2143.2431274 568.319293163,2185.75980644 536.799077054,2211.38368417 559.861848984,2239.9694675 558.596811159,2240.94273935 556.614284659,2242.47170926 573.113855724,2263.99250498 546.547558573,2282.15758059 527.145815679,2291.59416826 510.940990812,2303.88216984 506.003476779,2308.20565555 500.98264037,2314.03209854 463.315073814,2361.36729527 451.737654733,2352.26910781 488.286456225,2307.08495942 " moovel_rot="-62.9" moovel_centroid="510.585095546,2206.98149" moovel_centroidlatlon="-118.3625526202221,34.14050266891984"></polygon></g><g transform="translate(-274.76692390000005 -1003.4102363999999) rotate(0)"><polygon id="158552049" class="tile" points="493.323064645,1804.93289711 416.54600245,1804.99451441 416.503533924,1750.04679253 375.192863623,1750.0786796 375.23653934,1805.71806992 362.579504442,1805.72407529 362.509299532,1715.75017257 389.466428477,1715.72725181 389.474561213,1728.04072912 429.790036779,1728.01057912 429.7426567,1674.07563258 493.221498746,1674.02918366 493.323064645,1804.93289711 " moovel_rot="-0.1" moovel_centroid="442.626844689,1743.68400802" moovel_centroidlatlon="-118.53259501857862,34.24361194175214"></polygon></g><g transform="translate(56.2150537 -1813.2653670999998) rotate(0)"><polygon id="345463999" class="tile" points="112.142543517,2081.31886508 112.318078486,2257.64110246 112.338095649,2268.58866771 166.960088382,2268.42230211 167.219410945,2080.46770394 112.142543517,2081.31886508 " moovel_rot="-89.6" moovel_centroid="139.679495976,2174.57178887" moovel_centroidlatlon="-118.50283766322462,34.18409658115294"></polygon></g><g transform="translate(76.9783366 -1049.2057318000002) rotate(0)"><polygon id="424453801" class="tile" points="9.99456112497,1260.35091799 9.90240937509,1249.00315266 37.1761376932,1248.59487527 36.6268400513,1201.0 72.3741564132,1201.2982848 72.4466230992,1380.98812765 70.5013859961,1381.01823945 37.5367799167,1381.536637 37.2850805823,1357.07124135 1.83559302688,1357.1130749 1.0,1260.62710449 9.99456112497,1260.35091799 " moovel_rot="-90.1" moovel_centroid="41.68261176074079,1295.870460045378" moovel_centroidlatlon="-118.61094832276812,34.19867756372017"></polygon></g><g transform="translate(-173.22921900000003 -1817.5266175) rotate(0)"><polygon id="232849277" class="tile" points="327.451575974,1986.71694932 346.33031777,1944.1396387 383.363734513,1963.03632993 362.494511935,2010.6023971 403.472515728,2032.19325479 398.925602872,2042.37465517 385.779709687,2070.33558135 356.893444575,2054.48698047 350.839339304,2064.50846897 355.927086215,2067.97745048 349.323892596,2080.46770394 327.390600145,2063.83196223 354.506659241,2004.8716522 327.451575974,1986.71694932 " moovel_rot="-89.0" moovel_centroid="360.670164688,2015.51871136" moovel_centroidlatlon="-118.18311227234187,34.115624545177575"></polygon></g><g transform="translate(178.5548045 -1323.8133782999998) rotate(0)"><polygon id="285596370" class="tile" points="44.7467567779,1944.44337851 85.1419049963,1944.1396387 85.1035098493,2071.38934371 45.1352101997,2071.33846413 44.7467567779,1944.44337851 " moovel_rot="-0.1" moovel_centroid="65.0409994584,2007.71505839" moovel_centroidlatlon="-118.52495561000401,34.24180155044547"></polygon></g><g transform="translate(17.988418499999995 -1251.2011631) rotate(0)"><polygon id="35565739" class="tile" points="239.503788068,1669.3499417 239.765671488,1669.34692491 240.036692947,1510.21645082 209.944112465,1511.40637848 211.662734068,1535.0663269 212.71952366,1605.07714611 214.98176343,1605.33024382 214.845282206,1635.20781185 210.284821493,1635.24746567 210.363481813,1673.63232672 231.945263828,1674.02918366 232.459572595,1669.45153862 239.503788068,1669.3499417 " moovel_rot="37.1" moovel_centroid="225.872180272,1591.44367532" moovel_centroidlatlon="-118.48087906410063,33.994669037495576"></polygon></g><g transform="translate(-33.52306980000003 -1678.1223184) rotate(0)"><polygon id="385316372" class="tile" points="248.688165897,1879.5285905 308.021784519,1879.08445457 319.94397737,1816.78851689 311.930369063,1808.35208499 256.472225834,1807.7209578 248.629623785,1807.16625631 248.688165897,1879.5285905 " moovel_rot="-89.9" moovel_centroid="281.418921044,1842.70101351" moovel_centroidlatlon="-118.59530916590501,34.1777530189916"></polygon></g><g transform="translate(-276.0721184 -1060.342478) rotate(0)"><polygon id="432157587" class="tile" points="507.207536767,1592.01747027 503.620507335,1592.02556091 503.610666722,1582.04415408 498.046215429,1582.04309265 498.035566626,1570.73455905 502.537782031,1570.72817803 502.496053116,1518.74556342 505.802592049,1518.74187961 505.802188824,1514.88917206 542.775420831,1514.85529085 542.769442657,1510.22247366 545.200865695,1510.21645082 545.205311266,1514.32648107 553.481676117,1514.31711424 553.485346988,1517.95260283 557.987688727,1517.95426357 558.04284973,1591.20279905 554.78973757,1591.2056441 554.788228636,1594.51140325 544.601351721,1594.51861165 544.601747338,1594.96902183 533.613342649,1594.98077849 533.61654085,1599.43663175 531.218383228,1599.4340893 531.211917339,1595.19545238 507.204259343,1595.21065307 507.207536767,1592.01747027 " moovel_rot="-0.9" moovel_centroid="530.020900839,1555.05740501" moovel_centroidlatlon="-118.52513339041003,34.2380837636089"></polygon></g><g transform="translate(37.68113579999999 -1055.1751453000002) rotate(0)"><polygon id="51162972" class="tile" points="193.962307627,1862.66523286 224.772251238,1850.44979548 210.193036609,1814.31472844 228.267982033,1807.16625631 235.334516824,1825.75849463 238.815583162,1824.33629828 247.629623785,1842.70506875 241.859903745,1846.10709624 241.215562338,1860.7111564 245.940952663,1871.38971883 229.128042689,1878.07782436 246.039512403,1916.51243006 240.286706205,1918.53585853 247.503506973,1936.43296773 231.956277831,1943.37981055 229.849860484,1944.1396387 228.317224042,1943.70280433 226.501375211,1942.79929303 225.810116434,1940.86613687 193.962307627,1862.66523286 " moovel_rot="-22.1" moovel_centroid="225.197480101,1876.70765082" moovel_centroidlatlon="-118.53557300729062,34.25634156273175"></polygon></g><g transform="translate(-143.3663566 -872.8468344000001) rotate(0)"><polygon id="401896498" class="tile" points="244.810459073,1699.4364447 246.979416129,1686.38399078 248.136841695,1679.3925497 248.936503486,1674.75879868 250.050043584,1674.02918366 267.175985761,1676.50555093 266.18110158,1682.51515909 269.712956735,1683.00507285 270.575992239,1677.25121043 283.902930091,1679.17989753 290.739058875,1681.04277962 298.170047209,1683.14631169 296.294731008,1694.08095291 294.070332635,1707.12422858 319.310531163,1711.06576365 310.513719032,1763.26909073 273.818201003,1757.54623112 244.746931288,1753.0043167 247.533043346,1736.17477804 255.082691534,1737.51262519 254.767414869,1740.54758657 298.748338399,1747.82858124 303.840871583,1715.98571315 301.623787853,1715.71345839 301.85817894,1714.8383012 299.823258847,1714.59620344 299.327056107,1717.05283646 259.900808611,1710.62064459 259.432820329,1713.44753264 251.585521301,1712.23643171 253.508882095,1701.20819307 244.742824404,1699.84499262 244.810459073,1699.4364447 " moovel_rot="-80.6" moovel_centroid="280.655895113,1717.53419031" moovel_centroidlatlon="-118.28758416711943,34.09028447199755"></polygon></g><g transform="translate(-308.6630391 -867.4930673) rotate(0)"><polygon id="378736923" class="tile" points="519.821926892,1799.28303571 501.386400886,1779.68429736 518.583871527,1753.30589581 520.91520165,1729.23978065 518.278276888,1715.24154033 514.141556438,1705.61994302 502.562694648,1687.48920001 501.42170612,1680.91670303 504.255614562,1676.74833071 509.679252739,1674.02918366 526.627964902,1674.38751423 531.221528085,1679.00339171 549.305832954,1710.09102073 550.17512618,1724.06039608 546.612546549,1740.09476413 543.63173041,1751.36469719 538.554046467,1766.75180949 531.529973546,1781.68651675 525.146503478,1792.58495432 519.821926892,1799.28303571 " moovel_rot="-67.1" moovel_centroid="526.640511506,1731.2319155" moovel_centroidlatlon="-118.57873412083205,34.182693330491624"></polygon></g><g transform="translate(-275.54346449999997 -1195.932696) rotate(0)"><polygon id="229125389" class="tile" points="369.257706977,1897.80109951 374.953532783,1812.65893849 333.282017361,1807.16625631 333.300973088,1841.38456305 334.110321919,1904.39302583 369.257706977,1897.80109951 " moovel_rot="29.6" moovel_centroid="352.437992916,1854.14395532" moovel_centroidlatlon="-118.28507431479582,34.13394955979627"></polygon></g><g transform="translate(-13.293068800000015 -1834.3869362000003) rotate(0)"><polygon id="420118684" class="tile" points="299.525095383,2080.46770394 305.180943114,2084.11729952 306.210810176,2087.92515405 306.32303652,2090.33619896 292.061292164,2156.80239753 306.252089351,2201.40005331 293.650830118,2205.61092681 304.11899933,2235.93022024 292.302824395,2239.511944 306.450675071,2280.46353099 297.494260304,2283.79162876 287.559141364,2283.15532258 280.740725483,2254.16017156 277.030711887,2233.29439551 275.84304317,2224.74133497 282.876950595,2211.58731509 276.546661606,2196.4514974 299.525095383,2080.46770394 " moovel_rot="72.3" moovel_centroid="291.271515653,2200.20114232" moovel_centroidlatlon="-118.29355149031782,34.0815062514377"></polygon></g><g transform="translate(-235.75304410000007 -1400.1296618) rotate(0)"><polygon id="195249445" class="tile" points="467.697071268,1944.1396387 467.74425554,2008.85596068 490.252447706,2008.94244367 490.242692742,1995.03720201 523.620960945,1995.15763465 523.586259349,1944.33629885 467.697071268,1944.1396387 " moovel_rot="53.9" moovel_centroid="494.006063517,1972.85286049" moovel_centroidlatlon="-118.2475826692634,34.0543084787751"></polygon></g><g transform="translate(61.371581 -1611.2693328) rotate(0)"><polygon id="206909150" class="tile" points="0.0566445339471,1793.28583184 0.199728048965,1795.81544142 14.5924207237,1807.16625631 34.2353964206,1805.15805801 34.4051029254,1789.37295413 33.4070027232,1741.71709892 63.5345294606,1741.13291501 62.3754124392,1709.89067898 33.3682955436,1710.50890283 32.3673008557,1674.04423929 28.9719227582,1674.02918366 29.6625171091,1718.47196581 29.4840417791,1718.47505652 3.03387326673,1718.81660768 0.0,1723.53642327 0.18028293997,1748.89500544 27.9283067208,1749.01134177 27.9007868774,1760.10508802 30.436535332,1760.1368325 30.4864443976,1793.28728133 2.60263146646,1793.28197444 0.0566445339471,1793.28583184 " moovel_rot="80.4" moovel_centroid="30.079267373325298,1740.50137374" moovel_centroidlatlon="-118.23519755517813,34.03088712634619"></polygon></g><g transform="translate(132.8079392 -1890.4291508000001) rotate(0)"><polygon id="379039835" class="tile" points="25.9739321664,2007.8815466 22.7811683469,2007.91058774 22.8180729132,2008.81892082 21.8696646854,2008.80757303 21.8934073783,2009.65959961 25.981118343,2009.64975686 26.0513634402,2037.3622252 0.0357641693205,2037.38393365 0.00458386614919,2009.96094148 4.04551287442,2009.95897263 4.00919745751,2008.88186047 3.10743091218,2008.90282431 3.10361338444,2008.08301602 0.064469524473,2008.1125934 0.0672322075814,1967.13880193 0.0,1948.13043224 4.9495991271,1948.04322506 4.90856847949,1946.40347695 5.99053122774,1946.42332829 5.98261967115,1948.6898132 16.308721057,1948.67763458 16.3044506773,1944.16066838 35.6074413881,1944.1396387 35.6132267475,1948.22259725 39.320199316,1948.21946252 39.328882391,1959.12606997 35.9692245159,1959.13041704 35.9663067844,1959.96628233 35.1581322066,1959.96346126 35.1547936477,1960.91988392 39.1890435264,1960.91789164 39.1735631693,1971.09300438 42.7467567779,1971.14566348 42.6875525158,1980.45258633 39.1876329381,1980.45644374 39.1918472908,1984.98945985 25.9936644305,1985.00768719 25.9739321664,2007.8815466 " moovel_rot="0.2" moovel_centroid="16.93173027404555,1986.9658897" moovel_centroidlatlon="-118.60730427158245,34.185912040373836"></polygon></g><g transform="translate(107.1016971 -1135.2676686999998) rotate(0)"><polygon id="184954671" class="tile" points="73.4466230992,1201.0 122.974381428,1201.20329872 122.998778057,1259.37869238 73.4711564984,1259.17523409 73.4466230992,1201.0 " moovel_rot="40.6" moovel_centroid="98.2227461259,1230.1892929507771" moovel_centroidlatlon="-118.41532615,34.06143575"></polygon></g><g transform="translate(-180.97041310000003 -1172.5309449000001) rotate(0)"><polygon id="379320939" class="tile" points="449.628517349,1920.64945825 474.667676042,1919.62051708 472.877365644,1807.16625631 449.672860826,1809.52598726 449.628517349,1920.64945825 " moovel_rot="-53.2" moovel_centroid="461.743336422,1864.94284714" moovel_centroidlatlon="-118.57464041049099,34.183629598973724"></polygon></g><g transform="translate(68.91118610000001 -1453.6706934) rotate(0)"><polygon id="206910641" class="tile" points="166.269812602,1512.78075168 206.807340195,1510.21645082 208.944112465,1575.6885341 166.188510571,1578.41425813 166.269812602,1512.78075168 " moovel_rot="83.6" moovel_centroid="187.055919051,1544.56605224" moovel_centroidlatlon="-118.23800758865112,34.034572513642246"></polygon></g><g transform="translate(-317.2705573 -925.3990247999999) rotate(0)"><polygon id="161624114" class="tile" points="393.01674289,1808.67726891 408.00102107,1807.16625631 411.184815135,1816.93000202 431.077483734,1812.37612544 430.197269795,1829.07970361 426.20077403,1842.38922618 418.589941784,1865.48265811 399.755447548,1914.59492005 393.052885122,1915.42487854 393.01674289,1808.67726891 " moovel_rot="-38.9" moovel_centroid="407.154626411,1851.62355448" moovel_centroidlatlon="-118.24116414144376,34.05822098497008"></polygon></g><g transform="translate(-218.16302100000001 -1175.7782051) rotate(0)"><polygon id="259782840" class="tile" points="329.066602858,2149.21065343 337.855671317,2151.69237083 385.99158354,2161.32866104 385.941392403,2114.65331184 346.510068515,2113.70088357 341.655528136,2081.37460277 335.959099576,2080.46770394 331.630829925,2126.18634327 329.066602858,2149.21065343 " moovel_rot="6.9" moovel_centroid="357.112185433,2130.88763076" moovel_centroidlatlon="-118.28310230195592,33.78686422239744"></polygon></g><g transform="translate(219.79132520000002 -1155.3491632) rotate(0)"><polygon id="406923972" class="tile" points="8.95367381908,2142.849766 8.99945042767,2141.24441904 7.52451587766,2141.20411128 7.4964112021,2142.07385768 6.40672655962,2142.04051848 6.4618517831,2139.99145239 0.809776350483,2139.83470001 0.893923803046,2136.83218874 0.0,2136.80823106 0.0203106790781,2084.0871088 4.26222964972,2084.01781775 4.20965415984,2080.46770394 36.1588668387,2080.5004176 36.160562348,2083.90359836 41.6863289472,2083.90813615 41.6830564532,2088.46378179 43.5559028674,2088.46650249 43.5547286879,2091.19795726 44.4636338789,2091.19881994 44.4232311253,2140.14074708 40.3158692401,2140.13849285 40.3125972401,2143.70317206 8.95367381908,2142.849766 " moovel_rot="62.0" moovel_centroid="22.15686344778672,2112.04143764" moovel_centroidlatlon="-118.28195576437597,34.01766945925176"></polygon></g><g transform="translate(55.84844940000002 -843.8485565000001) rotate(0)"><polygon id="104105194" class="tile" points="116.994645819,1881.15510146 116.974031205,1807.76584152 145.819997183,1807.16625631 158.875677959,1818.62936539 159.206622149,1836.50679305 159.284468357,1859.32358766 143.111482649,1871.63142579 116.994645819,1881.15510146 " moovel_rot="-90.7" moovel_centroid="136.459767011,1840.97163965" moovel_centroidlatlon="-118.39401668163569,34.17905550118833"></polygon></g><g transform="translate(24.342552800000007 -690.6151233) rotate(0)"><polygon id="431855471" class="tile" points="107.61842966,1734.72279643 65.5425699722,1734.72279643 65.5345294606,1674.03586283 107.61842966,1674.02918366 107.642551041,1676.94130154 107.642551041,1679.65972351 107.61842966,1734.72279643 " moovel_rot="-90" moovel_centroid="86.5851768019,1704.37397947" moovel_centroidlatlon="-118.43041651989776,34.22023279183172"></polygon></g><g transform="translate(113.2343127 -218.21977589999995) rotate(0)"><polygon id="27826312" class="tile" points="147.567858586,1286.56830236 173.928486975,1289.14521877 181.535005659,1225.86094138 174.175385372,1201.0 166.925486693,1203.09861318 167.664326785,1205.86299258 147.471738685,1211.48130181 152.022163647,1228.869742 147.567858586,1286.56830236 " moovel_rot="-15.9" moovel_centroid="164.237387897,1246.4207020678857" moovel_centroidlatlon="-118.4768853004736,34.179372224428406"></polygon></g><g transform="translate(-409.9178824 -954.3751294000001) rotate(0)"><polygon id="371841636" class="tile" points="547.142351217,2040.83553718 546.635444306,2004.02550625 548.323904376,1999.27414468 551.16978718,1999.42827218 551.607661635,1994.60918131 549.104755653,1994.65423063 546.870907969,1966.72056407 550.849166333,1965.85909667 550.181658534,1958.29117948 550.711439559,1950.58743642 551.034623799,1945.95611392 573.814046647,1944.1396387 575.488689682,1970.81894057 572.456700031,1970.83533574 572.57306201,1974.92190181 575.436855,1974.44823728 576.451217249,1993.42623422 571.656311173,1993.33377533 571.448086921,1999.10844663 579.489125188,2003.54393034 579.067785951,2008.6515419 577.116446545,2008.45890469 579.458522717,2027.26800557 575.476250271,2027.31320275 573.85047457,2007.59975229 559.347380545,2006.6872026 554.72182418,2006.43669142 554.974240125,2021.52058325 555.531151754,2040.92865467 553.224980122,2040.90409124 547.142351217,2040.83553718 " moovel_rot="-86.9" moovel_centroid="561.073033957,1985.10638615" moovel_centroidlatlon="-118.58792076929252,34.09339657352017"></polygon></g><g transform="translate(189.32801460000002 -809.5838498999999) rotate(0)"><polygon id="282417095" class="tile" points="18.0497262325,1853.21923318 24.9919964496,1831.70945806 32.6599180236,1833.76447806 37.8904182892,1814.35930055 42.6968285453,1816.43301457 44.4163771097,1807.16625631 69.5048910271,1815.43714991 59.3133950166,1847.23210401 33.466092677,1840.96585328 25.0108673938,1877.15210618 48.003025632,1883.44529952 69.5570566442,1891.85363857 66.7408669829,1901.48007684 19.3668657433,1886.26800408 25.2522072904,1860.2563427 18.0497262325,1853.21923318 " moovel_rot="2.2" moovel_centroid="44.2108833762,1849.36439221" moovel_centroidlatlon="-118.21520742151493,34.13853175460624"></polygon></g><g transform="translate(102.4417027 -1283.6279057000002) rotate(0)"><polygon id="337511288" class="tile" points="102.062012921,2400.8273636 101.859993714,2361.36729527 61.0446900755,2361.57656024 61.0663170978,2365.47046426 60.7547404267,2365.97917184 60.5302618112,2366.12021884 57.8466884069,2366.1229071 57.8038272332,2411.38806383 61.3230202787,2411.3891379 61.3192236029,2417.20674319 77.4127220973,2417.22403736 77.6989819597,2416.36809923 83.7572000697,2416.39370644 83.8257823057,2403.81651435 84.1922242016,2402.91354185 84.7518916458,2402.12344144 85.320199775,2401.50697033 86.0573033318,2400.90994764 102.062012921,2400.8273636 " moovel_rot="-90.2" moovel_centroid="78.4342261526,2386.49487256" moovel_centroidlatlon="-118.4304787814615,34.15911215082021"></polygon></g><g transform="translate(-154.52711420000003 -867.1884487) rotate(0)"><polygon id="46648505" class="tile" points="450.561369289,2002.24718569 434.981861594,1944.1396387 418.033752773,1948.77151014 421.226886335,1961.05753742 409.180347772,1964.74767612 409.604902737,1983.7858262 404.472515728,1985.7115156 404.480983035,2015.29596795 450.561369289,2002.24718569 " moovel_rot="-31.8" moovel_centroid="425.788290088,1983.1008749" moovel_centroidlatlon="-118.18382267019334,34.104828740699695"></polygon></g><g transform="translate(-2.8942761000000132 -582.6100331) rotate(0)"><polygon id="84832220" class="tile" points="108.646215958,1674.02918366 108.642551041,1720.46904708 154.549493224,1720.61766863 154.555728814,1674.18397082 108.646215958,1674.02918366 " moovel_rot="68.3" moovel_centroid="131.597990029,1697.32474913" moovel_centroidlatlon="-118.18562968074652,34.14185474506066"></polygon></g><g transform="translate(-30.819067100000012 -515.1814376000001) rotate(0)"><polygon id="401898690" class="tile" points="109.34861265,1510.21645082 111.974528091,1511.88169495 114.636210569,1547.42215458 114.389045103,1570.11961007 114.223155698,1600.32878497 111.654920968,1598.09421347 111.327953697,1587.85625173 107.07733894,1584.00818608 108.874292798,1582.27238144 98.9468938425,1572.56283155 96.2995351024,1575.69846851 87.5230161753,1566.85476646 86.8651834518,1562.2573141 85.3110780444,1560.51098769 85.2859881204,1559.11394284 81.7900403846,1558.34964351 83.5386405237,1550.7410447 83.2733152367,1546.89094404 81.8271007247,1518.21654103 85.3633247122,1518.16031467 84.8363365684,1513.81197046 109.34861265,1510.21645082 " moovel_rot="44.0" moovel_centroid="99.8919612144,1545.20216086" moovel_centroidlatlon="-118.28599968252865,34.09699171907432"></polygon></g><g transform="translate(149.63639500000002 -1050.6899695) rotate(0)"><polygon id="402312737" class="tile" points="119.388063103,1944.29978186 144.931331463,1944.1396387 144.802313651,2019.63554915 119.797335324,2019.29069393 119.388063103,1944.29978186 " moovel_rot="-28.7" moovel_centroid="132.243702571,1981.70768858" moovel_centroidlatlon="-118.28324583049148,34.06002810304099"></polygon></g><g transform="translate(-315.3164504 -1576.0284215000001) rotate(0)"><polygon id="386471661" class="tile" points="450.002173584,2157.12841634 450.621014746,2095.88181334 445.954379054,2096.5262981 443.429423648,2090.50241397 443.061033671,2083.06666329 440.133842931,2081.63888031 435.372889967,2080.46770394 429.629600151,2082.2183879 426.570415446,2085.23872085 425.601993975,2087.9918622 421.206871421,2088.19165713 421.521729376,2123.31953033 421.211885603,2132.67574308 428.18298769,2136.37444457 423.550580534,2148.99283258 427.776884561,2149.47591689 427.331105416,2153.9490368 450.002173584,2157.12841634 " moovel_rot="41.0" moovel_centroid="436.253759235,2119.15151125" moovel_centroidlatlon="-118.45042817611606,34.08068589311552"></polygon></g><g transform="translate(209.3536313 -720.0305864999998) rotate(0)"><polygon id="160678945" class="tile" points="0.0,1807.90174085 16.0497262325,1807.16625631 15.8823318623,1912.88842594 0.635791217163,1917.57074784 0.0,1807.90174085 " moovel_rot="-59.2" moovel_centroid="8.091517200423915,1860.93479911" moovel_centroidlatlon="-118.45907198887718,34.00628264383015"></polygon></g><g transform="translate(-77.19307280000001 -801.1625532) rotate(0)"><polygon id="195508228" class="tile" points="182.988279164,1944.25933347 219.424784547,1944.1396387 219.372230681,1998.37895347 188.616417806,1998.48010289 188.645579641,1968.42367765 182.964956734,1968.44232543 182.988279164,1944.25933347 " moovel_rot="-34.2" moovel_centroid="202.635579731,1970.17097399" moovel_centroidlatlon="-118.24425586640999,34.04970979052012"></polygon></g><g transform="translate(-182.35520290000002 -1933.2969037) rotate(0)"><polygon id="439991754" class="tile" points="281.963303637,2027.70485362 307.605058018,2013.92312975 295.059302408,1944.1396387 282.041396207,1947.63064821 281.963303637,2027.70485362 " moovel_rot="-0.9" moovel_centroid="291.920160763,1987.59099032" moovel_centroidlatlon="-118.64114601160428,34.15727186648926"></polygon></g><g transform="translate(94.9171378 -367.2230886) rotate(0)"><polygon id="442088899" class="tile" points="80.7837911371,1510.31317246 80.7900403846,1564.32699033 52.3236506283,1564.23631591 52.3145641692,1510.21645082 80.7837911371,1510.31317246 " moovel_rot="65.6" moovel_centroid="66.5527463436,1537.27278302" moovel_centroidlatlon="-118.26425693260894,34.051716899221994"></polygon></g><g transform="translate(-248.14866109999997 -1598.4383596) rotate(0)"><polygon id="386471660" class="tile" points="518.70327328,1817.00347029 493.737515902,1807.16625631 481.702963604,1828.92875171 475.667676042,1830.41238695 478.954285879,1850.18386606 500.378844955,1846.3282216 506.996884542,1852.80752661 507.730458663,1851.80269654 509.559352584,1853.49035877 511.266463865,1851.88848442 518.709763915,1859.53137173 518.70327328,1817.00347029 " moovel_rot="23.1" moovel_centroid="500.052929206,1832.405999" moovel_centroidlatlon="-118.45091046811481,34.079630543069456"></polygon></g><g transform="translate(-362.19447 -1190.0130700000002) rotate(0)"><polygon id="380703175" class="tile" points="568.626027379,1202.09709984 538.923741423,1201.0 538.911346186,1246.43026591 569.327440955,1245.89077067 568.626027379,1202.09709984 " moovel_rot="-13.2" moovel_centroid="553.855560769,1223.9435303245798" moovel_centroidlatlon="-118.59216118910821,34.1678443819407"></polygon></g><g transform="translate(-248.26909179999998 -1505.7479826) rotate(0)"><polygon id="379873865" class="tile" points="492.366884197,1510.80224313 492.354059051,1514.00192 497.035566626,1514.00459397 497.03040031,1544.48553714 495.744381545,1544.48328972 495.748722013,1542.71843771 482.052937738,1542.71703934 482.053405436,1560.23340412 476.159741348,1560.23111835 476.16494537,1542.60959192 462.803988234,1542.60777685 462.806522368,1544.557441 461.647655531,1544.55391332 459.740838944,1520.32077219 459.740432984,1513.93139138 463.8055761,1513.93098485 463.807381118,1510.21645082 489.009545617,1510.22694917 492.366884197,1510.80224313 " moovel_rot="-4.2" moovel_centroid="478.701071641,1528.79996933" moovel_centroidlatlon="-118.6015880887981,34.16956098211618"></polygon></g><g transform="translate(214.0734963 -417.7874448) rotate(0)"><polygon id="314549466" class="tile" points="27.6601949234,1609.78642664 27.7125214495,1510.22393528 20.1740202848,1510.21645082 16.3146001894,1514.56492303 16.2640622754,1609.77915663 27.6601949234,1609.78642664 " moovel_rot="-90.4" moovel_centroid="22.0210757845,1560.36115696" moovel_centroidlatlon="-118.41681023734647,34.179155073316835"></polygon></g><g transform="translate(63.6246357 -2076.5103301) rotate(0)"><polygon id="37891517" class="tile" points="216.78648775,2081.0815929 216.812319437,2128.08344435 190.054713138,2127.96022562 190.36108777,2080.46770394 216.78648775,2081.0815929 " moovel_rot="7.3" moovel_centroid="203.480278528,2104.44689012" moovel_centroidlatlon="-118.40752395457457,33.94363541081395"></polygon></g><g transform="translate(-99.69838289999998 -1191.1298992999998) rotate(0)"><polygon id="327325499" class="tile" points="224.006242964,1202.80278532 232.282434176,1202.83488603 234.196999627,1201.4557697 262.341902225,1201.0 262.651351411,1223.83867876 258.27258429,1223.64186095 245.643682447,1223.06828994 245.299680489,1235.88741127 244.235753587,1235.98922627 244.338124964,1243.51914191 223.980469291,1238.34033879 224.006242964,1202.80278532 " moovel_rot="1.0" moovel_centroid="240.962902706,1218.5233431765282" moovel_centroidlatlon="-118.37664965725348,34.05386331123944"></polygon></g><g transform="translate(-197.31984359999998 -449.33543110000005) rotate(0)"><polygon id="181651931" class="tile" points="302.821053177,1201.0 330.13892685,1201.01663012 330.108776014,1244.97163717 302.784223183,1244.95501913 302.821053177,1201.0 " moovel_rot="-0.1" moovel_centroid="316.463243288,1222.9867170659377" moovel_centroidlatlon="-118.4833003250458,34.20031288886046"></polygon></g><g transform="translate(52.50717199999997 -531.5130657) rotate(0)"><polygon id="392115956" class="tile" points="213.844107237,1693.48254441 215.041449031,1690.0209705 214.686752616,1689.86314281 218.767362288,1680.3967579 222.454585397,1681.34619831 230.716402311,1677.97557023 233.429201611,1674.02918366 239.9588274,1676.93586237 237.420595999,1682.86479188 243.487591578,1682.81575623 243.584051401,1697.78346631 239.221395742,1697.92747253 239.351149945,1700.39791958 239.258745587,1703.27735688 243.742824404,1703.25941026 243.734352356,1718.16105959 237.890121569,1717.88793207 240.808677794,1723.8455587 233.710342514,1726.96092873 232.335501347,1724.56596749 223.154679138,1719.46693895 218.891968395,1721.26672181 214.918189126,1711.50256344 215.278450047,1711.30634767 213.84778955,1707.82304498 217.429321795,1706.29519101 217.238110175,1695.02181316 213.844107237,1693.48254441 " moovel_rot="-90.4" moovel_centroid="229.910019163,1700.63014669" moovel_centroidlatlon="-118.59619098998728,34.17388300230434"></polygon></g><g transform="translate(-181.1529408 -615.4637887) rotate(0)"><polygon id="195249370" class="tile" points="313.702930823,1547.89285224 343.814179073,1547.76256556 343.826875243,1510.21645082 313.710715496,1510.34029023 313.702930823,1547.89285224 " moovel_rot="-37.3" moovel_centroid="328.763243033,1529.052531" moovel_centroidlatlon="-118.2482084005258,34.05392563322376"></polygon></g><g transform="translate(-471.12255819999996 -1802.95511) rotate(0)"><polygon id="384621965" class="tile" points="564.112839784,1860.70493772 564.113672156,1823.08149652 563.830224118,1807.16625631 538.522204313,1807.32849768 538.445408279,1836.06398267 551.680136906,1836.34298066 551.5033985,1860.75283205 564.112839784,1860.70493772 " moovel_rot="-62.4" moovel_centroid="553.205339133,1829.60163682" moovel_centroidlatlon="-118.4139183754572,33.98041099621906"></polygon></g><g transform="translate(-172.21006260000001 -1832.8825659999998) rotate(0)"><polygon id="200857105" class="tile" points="217.813925937,2080.46770394 217.812319437,2119.16184288 245.45346522,2119.12912566 245.505530829,2080.92955097 217.813925937,2080.46770394 " moovel_rot="52.0" moovel_centroid="231.616680702,2099.91594268" moovel_centroidlatlon="-118.25096212018346,34.05025203084629"></polygon></g><g transform="translate(-167.85873580000003 -151.892376) rotate(0)"><polygon id="310454736" class="tile" points="263.675148832,1236.29396689 263.651351411,1201.14662898 293.105053438,1201.0 293.122358259,1236.14249848 263.675148832,1236.29396689 " moovel_rot="-53.3" moovel_centroid="278.388137372,1218.6451299269802" moovel_centroidlatlon="-118.4323895953635,34.05273343312277"></polygon></g><g transform="translate(-38.149155 -1606.3029890999999) rotate(0)"><polygon id="390143636" class="tile" points="65.4206814539,2080.49610284 65.4266852457,2089.86414319 50.7439068537,2089.93736697 50.7438993257,2092.67221781 46.4636338789,2092.69274798 46.4770559993,2118.22206252 80.9090965766,2118.05251332 80.9117122244,2112.69076813 83.4918025102,2112.67540604 83.4857382793,2099.47036088 71.5692520466,2099.52846745 71.5599011909,2080.46770394 65.4206814539,2080.49610284 " moovel_rot="-54.9" moovel_centroid="63.634399784,2103.98615157" moovel_centroidlatlon="-118.44511261401455,34.03976366665606"></polygon></g><g transform="translate(-542.5638097000001 -1444.7640783) rotate(0)"><polygon id="195249369" class="tile" points="551.197804198,1709.88389178 551.17512618,1679.63817735 570.779223694,1679.53481679 570.774475044,1674.08664737 582.053813978,1674.02918366 582.081197492,1709.72301128 551.197804198,1709.88389178 " moovel_rot="-37.5" moovel_centroid="567.232237035,1693.5755608" moovel_centroidlatlon="-118.24776470310992,34.05361669252975"></polygon></g><g transform="translate(-175.9201995 -1188.8055289) rotate(0)"><polygon id="400856022" class="tile" points="234.114197482,1952.42735979 234.113930486,1984.44165262 244.321101977,1994.26998635 255.200285047,1982.88781326 253.642937809,1945.00965065 243.875865898,1944.1396387 239.234031472,1951.68669715 234.114197482,1952.42735979 " moovel_rot="-45.3" moovel_centroid="244.645216361,1968.40705473" moovel_centroidlatlon="-118.61833385257867,34.17954239672933"></polygon></g><g transform="translate(-179.15362320000003 -677.7264774000001) rotate(0)"><polygon id="373799746" class="tile" points="360.070778182,1510.24358583 359.962500562,1596.6446089 359.920343333,1628.46021341 359.911066243,1636.43726222 364.009466003,1636.39265962 363.739652799,1510.21645082 360.070778182,1510.24358583 " moovel_rot="-49.2" moovel_centroid="361.933399044,1574.48651397" moovel_centroidlatlon="-118.39415058819624,34.27119041392723"></polygon></g><g transform="translate(18.820954399999998 -2218.9348967) rotate(0)"><polygon id="207068990" class="tile" points="30.124192892,2361.36729527 56.7530664422,2361.7766183 56.8038272332,2392.61292793 30.0259233385,2392.36727237 30.124192892,2361.36729527 " moovel_rot="5.2" moovel_centroid="43.4148303084,2377.04524951" moovel_centroidlatlon="-118.2315612584761,34.03999511001115"></polygon></g><g transform="translate(67.7879612 -2046.0513237999999) rotate(0)"><polygon id="154824817" class="tile" points="6.05424578413,2361.37885586 6.08703483604,2364.18517245 0.0,2364.48584885 0.016561525315,2389.52765364 5.26468582526,2389.31135287 5.20621920079,2392.34060838 24.3482250664,2391.99787101 24.6138924435,2389.86451741 27.5954175219,2389.93555161 28.0259233385,2365.41762344 25.0077428006,2365.15524448 24.9654565584,2361.36729527 6.05424578413,2361.37885586 " moovel_rot="52.2" moovel_centroid="14.055499131282392,2376.85323318" moovel_centroidlatlon="-118.28898861328882,34.099806915619446"></polygon></g><g transform="translate(-99.75207209999999 -1226.9226973999998) rotate(0)"><polygon id="389918044" class="tile" points="157.960771081,1977.0558193 181.964956734,1977.56222395 181.952978872,1944.64008374 159.086983981,1944.1396387 157.960771081,1977.0558193 " moovel_rot="-89.7" moovel_centroid="170.238071901,1960.98261551" moovel_centroidlatlon="-118.431628494105,33.95945408310348"></polygon></g><g transform="translate(-4.93301910000001 -1343.8589757) rotate(0)"><polygon id="398072016" class="tile" points="112.894425253,1841.91948378 93.4540104862,1841.99549561 93.4767324779,1809.87435802 93.5923021957,1807.34045232 111.809952857,1807.16625631 115.459467514,1807.47563857 115.974031205,1839.48735755 112.894425253,1841.91948378 " moovel_rot="51.7" moovel_centroid="104.55053654,1824.60617429" moovel_centroidlatlon="-118.25578914988891,34.05794471671436"></polygon></g><g transform="translate(81.80168009999998 -899.8549496) rotate(0)"><polygon id="258034004" class="tile" points="92.7446241487,1972.64977142 92.7646690376,1944.17259784 101.598514324,1944.16475864 118.388063103,1944.1396387 118.37453152,1972.61533287 92.7446241487,1972.64977142 " moovel_rot="-12.6" moovel_centroid="105.567942798,1958.39581913" moovel_centroidlatlon="-118.20588448024921,34.120630182037935"></polygon></g><g transform="translate(-146.1278211 -1646.6250010000003) rotate(0)"><polygon id="409100585" class="tile" points="168.219410945,2080.46770394 168.241157867,2115.25840351 187.818363128,2116.17561653 189.054713138,2081.12702334 187.899371221,2081.23329364 168.219410945,2080.46770394 " moovel_rot="-45.8" moovel_centroid="178.344217909,2098.11353475" moovel_centroidlatlon="-118.25271632034885,34.040823801608795"></polygon></g><g transform="translate(58.47107600000001 -67.06425599999989) rotate(0)"><polygon id="402079579" class="tile" points="132.689569315,1231.66230641 132.764740281,1231.83355065 142.440316006,1227.527915 131.473079411,1202.76357941 135.723263565,1201.0 137.471360853,1205.22197883 136.493567201,1205.65120023 137.779197807,1208.79967534 138.352640674,1208.54795152 142.546766298,1217.66298265 143.085308428,1217.33175255 146.462015322,1225.92298827 141.594898532,1228.35857179 142.870779801,1230.82565704 141.203773684,1231.46259493 141.762846072,1232.29674408 138.3717974,1233.88013701 139.378551391,1236.17358662 138.400759294,1236.60280734 144.63052945,1249.91571388 141.51967846,1251.47822961 142.085815714,1252.98765267 143.75281993,1252.35071561 146.471738685,1258.98403831 144.589673578,1259.81020714 145.201780003,1261.2046245 137.275495993,1264.88096754 123.998778057,1235.29493814 132.689569315,1231.66230641 " moovel_rot="66.3" moovel_centroid="136.73423606,1239.1857225767233" moovel_centroidlatlon="-118.29879431906883,34.100203363335226"></polygon></g><g transform="translate(223.4315051 -757.674048) rotate(0)"><polygon id="425993569" class="tile" points="0.121582506225,1555.26707182 0.113988671824,1538.8592459 0.0,1510.59647037 0.102688890696,1510.59699614 0.105438252166,1510.48218255 14.2640622754,1510.21645082 14.2472573329,1555.30386286 14.1856941495,1555.30146009 14.1846942522,1555.34321032 0.183630751446,1555.46363964 0.183145724237,1555.26947463 0.121582506225,1555.26707182 " moovel_rot="-38.4" moovel_centroid="7.17144310103538,1532.83715938" moovel_centroidlatlon="-118.24599198813878,34.05464518360998"></polygon></g><g transform="translate(-97.12306619999998 -1049.9565815) rotate(0)"><polygon id="94563901" class="tile" points="286.244400822,1517.43932224 286.46256008,1510.21645082 302.365192379,1510.34787768 302.397113636,1511.90522176 306.878774902,1511.92868789 312.702930823,1511.95918338 312.694187621,1548.07109346 308.573196562,1548.0495158 306.153983487,1548.30172787 306.163985826,1546.39143943 300.520165008,1546.36188818 298.095911895,1546.30103484 298.141678172,1520.97716731 295.276353757,1520.96216437 295.195577604,1519.80590035 294.838647784,1519.08965735 294.034682041,1518.28278014 292.875338282,1517.73892242 291.353895409,1517.46607573 286.244400822,1517.43932224 " moovel_rot="0.3" moovel_centroid="303.427080257,1526.98080087" moovel_centroidlatlon="-118.32323449775913,34.07510034838147"></polygon></g><g transform="translate(-283.4852133 -1304.5735049) rotate(0)"><polygon id="392387430" class="tile" points="559.04284973,1542.98578705 559.059425769,1510.21645082 577.390157131,1510.5982153 577.506864658,1523.80454849 575.515539966,1524.96579773 574.779505312,1523.76309826 572.776759937,1522.31168871 570.359945446,1521.7390307 567.910824276,1522.1360697 565.786335663,1523.44159368 564.328337976,1525.45662383 563.745221983,1527.87852699 564.131396099,1530.32979758 565.42569099,1532.4506037 567.435141359,1533.90641761 569.851954626,1534.47907482 572.301073892,1534.08203456 574.41885621,1532.77210538 575.876853723,1530.75707511 577.429528638,1532.10463431 577.617194701,1541.68159041 574.327134367,1541.85387806 572.517469705,1543.11847308 559.04284973,1542.98578705 " moovel_rot="-56.7" moovel_centroid="567.490239003,1526.19232361" moovel_centroidlatlon="-118.40862451576643,34.02711332094303"></polygon></g><g transform="translate(-72.89871499999998 -1194.5742913) rotate(0)"><polygon id="401659011" class="tile" points="312.293128934,2080.57782535 328.066602858,2080.46770394 328.042273716,2105.72910824 328.040585599,2114.68610453 312.362831554,2114.70872636 312.342070167,2105.98566342 312.313869229,2092.74742385 312.293128934,2080.57782535 " moovel_rot="-90.4" moovel_centroid="320.191596213,2097.59226891" moovel_centroidlatlon="-118.2879972582731,34.08401418837269"></polygon></g><g transform="translate(-135.8963101 -1480.4877999999999) rotate(0)"><polygon id="46618820" class="tile" points="395.400459852,2080.46770394 420.206871421,2080.50296481 420.172453963,2107.87646402 407.087980943,2107.85362729 407.112605006,2093.74509302 404.581203641,2093.74067489 404.591790882,2087.67463881 395.394574537,2087.66662113 395.400459852,2080.46770394 " moovel_rot="0.1" moovel_centroid="411.104502513,2092.20095103" moovel_centroidlatlon="-118.413073474023,34.15794780541275"></polygon></g><g transform="translate(-430.6548074 -643.509751) rotate(0)"><polygon id="444352774" class="tile" points="572.081757558,1241.35228707 570.327440955,1225.06151625 570.596016224,1217.25161977 571.01627536,1207.3276171 571.120170425,1201.51434161 577.495015536,1201.0 577.482496417,1203.41033197 582.841159389,1203.52773534 582.540700923,1214.07262568 582.120776996,1232.26019931 582.860687277,1239.55885531 572.081757558,1241.35228707 " moovel_rot="-58.6" moovel_centroid="576.573454779,1221.0943534604485" moovel_centroidlatlon="-118.37442108043366,34.1426240631386"></polygon></g><g transform="translate(-370.2253591 -1685.2494964999999) rotate(0)"><polygon id="308686734" class="tile" points="524.672454411,1992.47389651 531.488399658,1992.49164206 532.878928806,1992.49771973 532.933920522,1972.29934651 532.931501262,1970.30226013 532.926892924,1954.07168002 532.923113736,1944.1396387 529.636017669,1944.19024635 524.620960945,1944.2632602 524.672454411,1992.47389651 " moovel_rot="-90.3" moovel_centroid="528.784916383,1968.29997879" moovel_centroidlatlon="-118.45355699734897,34.1887004596531"></polygon></g><g transform="translate(-242.21464600000002 -866.6518895999999) rotate(0)"><polygon id="212596660" class="tile" points="350.829568612,1510.21645082 344.833311662,1510.2402732 344.826875243,1546.63537584 358.911066243,1545.91465352 358.53945252,1541.94136638 358.794592382,1520.53912702 349.320718786,1521.0031061 349.230151257,1512.50879944 350.829568612,1510.21645082 " moovel_rot="-34.6" moovel_centroid="351.176917766,1531.31512934" moovel_centroidlatlon="-118.24982779420377,34.02825095025316"></polygon></g><g transform="translate(-136.75980099999998 -1101.2654355) rotate(0)"><polygon id="321030968" class="tile" points="220.43126558,1960.69918888 220.424784547,1951.11743632 220.429320127,1947.44398969 221.531387882,1947.45134014 221.537552041,1944.1396387 233.113332175,1944.16462612 233.104318443,1951.98578239 232.712776288,1959.45594107 233.113930486,1977.12970949 233.094795438,1978.02169153 232.240057304,1978.00171808 220.582788308,1978.07205146 220.43126558,1960.69918888 " moovel_rot="0.8" moovel_centroid="226.762972574,1961.17052103" moovel_centroidlatlon="-118.44774051289335,34.18939533605405"></polygon></g><g transform="translate(74.0388652 -663.474983) rotate(0)"><polygon id="174862267" class="tile" points="115.636210569,1510.22503028 122.475683666,1510.22111358 129.742622953,1510.21645082 129.748236338,1540.22086969 115.641809956,1540.22142884 115.636210569,1510.22503028 " moovel_rot="-0.1" moovel_centroid="122.692534524,1525.22100778" moovel_centroidlatlon="-118.2861425452919,34.01080937420923"></polygon></g><g transform="translate(-307.9918159 -930.8052628) rotate(0)"><polygon id="444149125" class="tile" points="365.009466003,1531.38232575 365.022412592,1510.21645082 385.153586839,1510.22644441 385.151015325,1513.31665258 385.939180534,1513.32192784 385.930715559,1526.20446084 378.383187993,1526.19870089 378.381249876,1531.38380804 365.009466003,1531.38232575 " moovel_rot="-0.2" moovel_centroid="374.7618454,1520.07821505" moovel_centroidlatlon="-118.34439549827032,34.073807411090016"></polygon></g><g transform="translate(-277.7402406 -654.3562468) rotate(0)"><polygon id="402081912" class="tile" points="537.445408279,1811.69350793 536.870999706,1833.60728922 536.884358047,1838.81681868 526.691945468,1839.01749385 526.551682909,1824.74546098 524.581327923,1824.74546098 524.494498721,1823.09992093 524.942003073,1823.09992093 524.895248887,1813.20259112 524.494498721,1813.24272631 524.494498721,1807.20639154 527.947629324,1807.19033745 533.017118936,1807.16625631 533.725110896,1807.22244563 534.406386181,1807.38298651 535.060944785,1807.65590602 535.662070037,1808.03317707 536.189724422,1808.49071854 536.643907946,1809.03655744 537.004583096,1809.64661263 537.258391534,1810.29680297 537.412012431,1810.98712844 537.445408279,1811.69350793 " moovel_rot="0" moovel_centroid="531.265559833,1822.37531114" moovel_centroidlatlon="-118.30941212419636,34.080015826899945"></polygon></g><g transform="translate(106.59439429999999 -1440.3703466000002) rotate(0)"><polygon id="402081414" class="tile" points="98.598200893,2105.99912652 84.4918025102,2105.94881298 84.5297345873,2093.81843292 84.5628277861,2080.46770394 98.5560193319,2080.46905748 98.598200893,2105.99912652 " moovel_rot="0.4" moovel_centroid="91.5554702861,2093.23828415" moovel_centroidlatlon="-118.30028397443954,34.09055983717379"></polygon></g><g transform="translate(-227.0009892 -1507.5092611) rotate(0)"><polygon id="394990271" class="tile" points="326.390600145,1944.92857816 308.605058018,1944.1396387 308.659108409,1962.95034242 308.621067059,1964.20185387 325.786371702,1964.51918482 326.390600145,1944.92857816 " moovel_rot="-55.7" moovel_centroid="317.328299314,1954.38392467" moovel_centroidlatlon="-118.39401250562432,34.02555460173144"></polygon></g><g transform="translate(-259.1680732 -1221.3091051) rotate(0)"><polygon id="402079566" class="tile" points="391.992387501,1807.17265594 392.01674289,1830.81049924 391.836406414,1830.80986974 391.821722122,1829.2762572 378.857533208,1829.23100346 378.905707694,1826.91075624 375.953532783,1826.90045116 375.987136807,1817.27364628 377.690791092,1817.14309793 377.652753508,1814.64590464 377.071669307,1814.64387627 377.117799602,1807.16890848 380.958354691,1807.16625631 391.705184965,1807.17165341 391.992387501,1807.17265594 " moovel_rot="0.2" moovel_centroid="384.410248241,1818.23729636" moovel_centroidlatlon="-118.29673234024429,34.10149176416366"></polygon></g><g transform="translate(90.247636 -1152.2307976999998) rotate(0)"><polygon id="257708805" class="tile" points="99.602359733,2108.1603277 99.598200893,2080.46770394 111.110964336,2080.82339245 111.142543517,2108.14568933 99.602359733,2108.1603277 " moovel_rot="-72.0" moovel_centroid="105.350574872,2094.40458785" moovel_centroidlatlon="-118.20931853551795,34.12536635781833"></polygon></g><g transform="translate(0.003918100000021241 -651.6604179999999) rotate(0)"><polygon id="301879628" class="tile" points="222.942919451,1226.81238758 222.980469291,1201.0 209.722693984,1202.18068558 211.76206158,1227.60483821 222.942919451,1226.81238758 " moovel_rot="-63.9" moovel_centroid="216.846539187,1214.0344100799655" moovel_centroidlatlon="-118.19291365283344,34.11010648657124"></polygon></g><g transform="translate(135.54119559999998 -1888.5965694000001) rotate(0)"><polygon id="402081794" class="tile" points="145.931331463,1961.16484162 146.485212049,1961.17819996 146.477184796,1960.87763733 146.429021267,1944.7941973 150.306184127,1944.7941973 150.490810874,1944.48027634 150.490810874,1944.17971371 156.960771081,1944.1396387 156.960771081,1946.31704794 156.960771081,1973.10051742 147.456509779,1973.10051742 147.448482525,1972.12535868 147.376237245,1971.88490858 147.111337874,1971.65781682 147.111337874,1970.04813698 146.846438494,1970.04813698 146.846438494,1968.18464871 145.931331463,1968.20468621 145.931331463,1961.16484162 " moovel_rot="-90" moovel_centroid="151.719295844,1958.68739191" moovel_centroidlatlon="-118.28717840781734,34.08233509603932"></polygon></g><g transform="translate(-258.1394049 -717.8438623) rotate(0)"><polygon id="428021867" class="tile" points="320.310531163,1709.2798125 320.334487166,1674.02918366 325.554186203,1674.02935048 325.571146596,1677.10153462 325.840578373,1677.09541359 327.005869741,1677.0790845 327.11325972,1709.25237979 325.818671269,1709.25911315 320.310531163,1709.2798125 " moovel_rot="52.2" moovel_centroid="323.639146219,1692.0151228" moovel_centroidlatlon="-118.25752709892636,34.04685875613438"></polygon></g><g transform="translate(-381.4898289 -1868.4433159) rotate(0)"><polygon id="202467261" class="tile" points="456.697628101,1944.1396387 456.695760535,1970.54687674 465.105970974,1970.74319264 466.697071268,1962.35112378 466.685483843,1945.04636276 456.697628101,1944.1396387 " moovel_rot="6.7" moovel_centroid="461.554721236,1957.35758887" moovel_centroidlatlon="-118.23246198769412,34.03764393717734"></polygon></g><g transform="translate(-184.73427850000002 -1113.1465566000002) rotate(0)"><polygon id="402081385" class="tile" points="320.955386348,1807.16625631 332.064988621,1807.2800129 332.282017361,1820.60409378 328.982568914,1820.58658281 328.979404583,1821.22782552 326.530843922,1821.21848667 326.477084332,1831.19774748 330.202036638,1831.21600545 328.473098463,1832.75567064 320.94397737,1832.65765028 320.955386348,1807.16625631 " moovel_rot="-89.0" moovel_centroid="325.739530585,1818.15968906" moovel_centroidlatlon="-118.30245691765163,34.08373122116571"></polygon></g><g transform="translate(-379.5690311 -1761.3529941) rotate(0)"><polygon id="297437207" class="tile" points="533.933920522,1944.1396387 533.967456391,1965.56353663 545.586040015,1965.8466369 545.635444306,1944.26359215 533.933920522,1944.1396387 " moovel_rot="1.0" moovel_centroid="539.787976701,1954.94074035" moovel_centroidlatlon="-118.28440754459471,34.09546085862926"></polygon></g><g transform="translate(-404.63411490000004 -1397.6750725) rotate(0)"><polygon id="402080675" class="tile" points="448.330071621,1807.180653 448.628517349,1820.34206597 448.626851433,1827.03839585 448.513307109,1827.03780133 448.509276546,1826.53194193 432.077483734,1826.68677986 432.078587313,1823.92474739 433.154002934,1823.91431994 433.129567325,1820.9273354 432.080868017,1820.93790275 432.082938526,1817.99120163 433.291935705,1817.9814736 433.300711504,1818.85670117 439.098571514,1818.80676708 439.090552433,1817.78701805 440.105856354,1817.77627584 440.049002853,1812.05116326 439.494597349,1812.05628957 439.446729866,1807.16625631 448.330071621,1807.180653 " moovel_rot="0.3" moovel_centroid="442.078365412,1818.36825878" moovel_centroidlatlon="-118.30653072176632,34.1014647556595"></polygon></g><g transform="translate(-419.10828200000003 -1659.0596974) rotate(0)"><polygon id="48679658" class="tile" points="520.266979895,1807.40504604 519.709763915,1853.43142034 523.494498721,1853.59883043 523.437616028,1807.16625631 520.266979895,1807.40504604 " moovel_rot="47.4" moovel_centroid="521.726106072,1831.0831113" moovel_centroidlatlon="-118.4142915619816,34.3194770492221"></polygon></g><g transform="translate(-261.1421318 -1062.3023767) rotate(0)"><polygon id="374998742" class="tile" points="294.12568028,1221.71961034 301.779510829,1221.71260514 301.784223183,1201.0 294.122358259,1201.00649972 294.12568028,1221.71961034 " moovel_rot="-86.4" moovel_centroid="297.952927407,1211.3578678686963" moovel_centroidlatlon="-118.41354837296016,34.30612582660751"></polygon></g><g transform="translate(-201.80679819999997 -1258.2085475) rotate(0)"><polygon id="206842427" class="tile" points="361.509299532,1674.02918366 361.505904881,1692.63166614 350.380159733,1696.18789328 348.405911957,1686.85499307 359.021360426,1683.73753152 359.246463264,1674.58707009 361.509299532,1674.02918366 " moovel_rot="72.7" moovel_centroid="356.157710752,1687.92208705" moovel_centroidlatlon="-118.23710553316376,34.02689320501609"></polygon></g><g transform="translate(-376.81660639999996 -1563.5903797) rotate(0)"><polygon id="322551687" class="tile" points="394.394574537,2096.57838786 394.381632236,2080.46770394 387.443244969,2080.49833904 386.99158354,2091.89451506 390.040570073,2098.88701228 394.394574537,2096.57838786 " moovel_rot="23.2" moovel_centroid="390.91548443,2088.82564111" moovel_centroidlatlon="-118.48335540274627,34.08545789390191"></polygon></g><g transform="translate(-267.40554979999996 -1293.1004696) rotate(0)"><polygon id="392385899" class="tile" points="285.235161876,1522.71554087 285.244400822,1510.21645082 275.94334297,1510.46089109 275.952821714,1511.03452421 275.933807474,1522.9755642 285.235161876,1522.71554087 " moovel_rot="-57.9" moovel_centroid="280.590691822,1516.59311364" moovel_centroidlatlon="-118.40524420067239,34.02717160237314"></polygon></g><g transform="translate(-139.456644 -835.0648887) rotate(0)"><polygon id="427942822" class="tile" points="191.881469395,1824.71367262 190.127198618,1824.76513502 190.141659383,1823.76923772 189.930750672,1823.77334736 189.918483121,1824.75903739 188.348465469,1824.75939021 188.30223957,1823.77712703 187.682142505,1823.77955351 187.677466896,1823.01933797 186.786304827,1822.9881669 186.711061251,1820.77249549 187.667031278,1820.7952885 187.666477054,1820.04032896 186.835471177,1820.04686515 186.821902666,1817.51971952 187.648787375,1817.50792716 187.644521587,1817.11235597 186.826144551,1817.10898989 186.772158858,1814.45227146 187.628157841,1814.45160089 187.627748273,1814.08695634 186.815685589,1814.07863917 186.829761836,1811.30065277 187.61271051,1811.29784794 187.612035863,1810.95887396 186.774980191,1810.94469108 186.815447493,1808.23937476 187.594805275,1808.17997253 187.596130922,1808.05161948 187.026284169,1808.0401074 187.045204092,1807.21895273 192.448940443,1807.16625631 192.471354039,1807.62398597 192.951665369,1807.61233947 192.962307627,1823.7643363 191.853656917,1823.76789692 191.881469395,1824.71367262 " moovel_rot="51.9" moovel_centroid="189.947849958,1815.73642968" moovel_centroidlatlon="-118.24854813240968,34.05003236936812"></polygon></g><g transform="translate(-404.07215240000005 -896.2819618999999) rotate(0)"><polygon id="402081811" class="tile" points="455.695760535,1962.90533518 454.486805406,1962.90703249 451.561369289,1962.8917148 451.572725435,1944.1396387 452.374214782,1944.14383532 454.58674718,1946.3710006 455.682994764,1947.48453051 455.686678134,1951.88359781 455.695760535,1962.90533518 " moovel_rot="0.3" moovel_centroid="453.554693696,1954.1679757" moovel_centroidlatlon="-118.28700734038644,34.08334050380679"></polygon></g><g transform="translate(-298.418481 -1615.8231590999999) rotate(0)"><polygon id="374998725" class="tile" points="307.504475513,2094.44881217 307.450675071,2080.52708582 311.293128934,2080.46770394 311.288607476,2094.45605086 307.504475513,2094.44881217 " moovel_rot="41.2" moovel_centroid="309.385698221,2087.45708111" moovel_centroidlatlon="-118.41406275921761,34.3078499537691"></polygon></g><g transform="translate(-73.7107635 -1164.1643832999998) rotate(0)"><polygon id="374998728" class="tile" points="86.1419049963,1955.23748591 89.9939009249,1955.22298009 89.9936585102,1953.1253226 91.7375131186,1953.11903464 91.7446241487,1944.14248007 90.2753282927,1944.1396387 86.1487703718,1944.16327103 86.1419049963,1955.23748591 " moovel_rot="-49.0" moovel_centroid="88.8224584248,1949.40652116" moovel_centroidlatlon="-118.41388968365422,34.30795309318119"></polygon></g><g transform="translate(-477.0363046 -511.6214132) rotate(0)"><polygon id="216267887" class="tile" points="494.323248778,1681.97596873 494.323064645,1674.02918366 499.128348298,1674.45977241 500.386400886,1674.59763653 499.710272086,1683.4165167 494.323248778,1681.97596873 " moovel_rot="64.4" moovel_centroid="497.245744904,1678.43188366" moovel_centroidlatlon="-118.24634414674429,34.0301367423519"></polygon></g></g><g transform="translate(0 1327.7)"><polygon id="1" class="bin" points="-1.875,0.0 0.77665042945,1.09834957055 1.875,3.75 1.875,1203.749999 0.77665042945,1206.40164943 -1.875,1207.499999 -194.765236194,1207.499999 -197.42213795,1206.39638768 -198.515206721,1203.7351313 -198.460686891,1189.9839975 -200.289739625,1185.76678118 -204.630695045,1184.25467888 -208.147001175,1184.5295103 -208.43266176,1184.54090647 -263.299194213,1184.63666673 -264.77170526,1184.33825809 -267.441035007,1183.2045337 -283.384673736,1183.00527409 -286.005925436,1181.89065031 -287.087810829,1179.25571755 -287.088436631,1163.67589977 -285.982467977,1161.01650146 -283.316766938,1159.92581175 -267.943813846,1160.01464716 -262.803102428,1158.11418112 -262.728686748,1158.3154736 -261.2543245,1157.4402556 -207.841961909,1157.57056732 -204.330765118,1157.56999594 -200.268353041,1155.88665552 -198.585793815,1151.82390508 -198.587095437,1097.25740683 -200.324331688,1093.14402728 -204.484103741,1091.52101234 -211.698655342,1091.72009009 -213.809746068,1092.11447488 -219.909710763,1094.28452705 -220.756464918,1094.47894123 -224.839795533,1094.92822943 -226.361422552,1094.78221778 -229.236808463,1093.88986256 -230.762467232,1092.97444284 -233.80748888,1089.96245613 -233.901305354,1089.87140587 -236.455575138,1087.43918181 -240.724852293,1085.57275855 -248.605109431,1085.07288921 -249.106574703,1085.05941989 -253.064294449,1085.09757859 -255.737870097,1084.01355642 -256.850446608,1081.35173668 -256.961008369,977.278574042 -257.832614268,975.189265429 -257.603458367,971.843294382 -254.789347348,970.018790654 -248.806049351,969.348243212 -245.614163005,967.939066768 -243.800128728,964.958597621 -237.800855728,940.71666017 -237.692222147,940.190203118 -228.384510166,884.079309116 -228.354321102,883.918998341 -222.056509708,854.062450738 -222.032765937,853.957382475 -215.20652978,825.648113754 -215.049536807,823.355508817 -215.197247866,821.881416879 -218.295918401,816.843973829 -219.206274376,816.26337484 -221.329307535,815.368179657 -278.305488401,802.006937111 -278.316797686,802.004266526 -298.992478276,797.08805879 -301.067408496,795.764581037 -301.874999,793.439774302 -301.874999,768.138790832 -300.835659955,765.547494403 -298.293763168,764.392590269 -295.658318013,765.314258143 -294.742567293,766.113988626 -294.401628608,766.392991207 -278.104644836,778.879376127 -275.984299062,779.979951333 -265.120146126,783.385616649 -263.464217919,783.688502986 -254.389093355,784.215869876 -249.698252043,782.701240009 -249.54596625,782.577412815 -247.073825461,778.022049162 -246.223635518,770.05566957 -246.184827264,769.334535113 -246.076345011,679.499878003 -246.077309354,679.376130599 -247.459697869,597.064220357 -247.460119689,596.972931879 -246.977469838,533.059881794 -250.394251369,527.147433193 -263.542760569,519.702176588 -268.280961778,519.296859533 -271.680213964,522.622504912 -284.989786497,557.302373839 -285.066444951,557.487216554 -294.700636904,579.071411493 -297.220069265,581.182109772 -300.434654114,580.497251473 -301.874999,577.542933742 -301.874999,479.471437651 -301.410752657,477.664140523 -292.417763075,461.314450179 -292.052865661,460.540546974 -233.203576531,312.474056839 -233.349291932,307.908251902 -234.451141696,306.944833702 -235.696929608,304.638974022 -236.038487107,302.186112141 -239.099078513,299.525843892 -280.674221856,284.015039248 -281.889735571,283.272921244 -290.766044654,275.181399832 -294.694903537,273.676982389 -295.761272793,274.104493601 -299.62232848,273.4492418 -300.5906289,272.60425419 -301.874999,269.778803926 -301.874999,197.837018825 -300.83385426,195.24383484 -298.28854397,194.090586784 -295.652420888,195.017647002 -260.308234584,226.014360784 -258.798861704,227.019570514 -249.23576428,231.6992856 -245.594121299,232.188167329 -242.387091357,230.394978023 -225.743049661,212.141710152 -224.252439284,207.962589342 -226.185553433,203.96883926 -280.972210895,155.596581096 -282.233983326,153.001890483 -281.279591568,150.279093131 -257.803921395,124.153020727 -257.761266546,124.106347671 -247.277925532,112.827871918 -247.141643249,112.676831906 -230.44706407,93.6147912553 -229.034541468,89.467659959 -230.96765727,85.5036606217 -231.083014468,82.4776068084 -229.688250538,78.9603504393 -229.040328307,65.9289477868 -228.125668416,63.6555824879 -225.668633301,60.8278042 -224.272850827,56.670366537 -226.215844392,52.7387927245 -233.502867789,46.343136808 -234.739245571,42.9787364886 -234.705383022,42.7486340861 -236.898567127,36.7180248245 -270.631073639,6.70766658813 -270.620744872,6.69605675744 -271.832835282,5.81443500318 -272.418151252,3.24549453158 -271.169083526,0.925606657479 -268.702242987,0.0 -1.875,0.0 " moovel_rot="0" moovel_centroid="-127.02700077034959,590.9549175982893" moovel_centroidlatlon="0,0" transform="translate(301.875 0)"></polygon><g transform="translate(-378.90324621155685 -1124.522028656188) rotate(0)"><polygon id="28738246" class="tile" points="419.404321577,1639.16195606 431.956580333,1639.20577189 431.83773355,1510.21645082 419.852569082,1510.7490266 419.404321577,1639.16195606 " moovel_rot="-89.8" moovel_centroid="425.766834552,1575.32960975" moovel_centroidlatlon="-118.41484278044118,33.95957540306681"></polygon></g><g transform="translate(-270.1364108 -1249.2123055) rotate(0)"><polygon id="306199440" class="tile" points="328.125389404,1674.02918366 341.491035923,1674.30677738 347.264439448,1724.97591824 347.405911957,1744.90257132 342.569800165,1770.94223368 328.11325972,1764.50740047 333.262026321,1744.17359464 333.040783694,1726.89219052 329.903276024,1706.16638702 328.125389404,1674.02918366 " moovel_rot="-32.0" moovel_centroid="338.024907458,1721.52780508" moovel_centroidlatlon="-118.18909765707899,34.142573151348"></polygon></g><g transform="translate(-448.8900006 -857.7215921000001) rotate(0)"><polygon id="208645755" class="tile" points="506.856214574,1277.83707723 506.935030014,1201.0 533.528881843,1251.2637962 537.911346186,1259.48630532 535.400926006,1260.73351716 514.05127908,1271.4704295 515.026532151,1273.63857668 506.856214574,1277.83707723 " moovel_rot="-29.7" moovel_centroid="517.110788848,1245.7147761112471" moovel_centroidlatlon="-118.24129595620268,34.028689084448864"></polygon></g><g transform="translate(-176.13925520000004 -1184.6939144) rotate(0)"><polygon id="206911427" class="tile" points="241.036692947,1530.26447181 261.947130712,1529.76443122 262.394873875,1548.90138639 274.923083789,1549.08810646 274.933807474,1510.33749535 270.817595453,1510.33837781 241.125721524,1510.21645082 241.036692947,1530.26447181 " moovel_rot="-3.7" moovel_centroid="260.77954225,1525.28620297" moovel_centroidlatlon="-118.23418931776436,34.03422374234751"></polygon></g><g transform="translate(-281.0913886 -787.9724696999999) rotate(0)"><polygon id="402079578" class="tile" points="367.542813729,1201.00289465 391.025817951,1201.00744501 391.021903732,1208.81565725 380.882070386,1208.81400077 380.880146948,1209.03440497 380.875401127,1217.85788237 380.878358022,1218.43901804 391.51597098,1218.43833915 391.515946213,1226.72082442 391.510350756,1227.36200027 379.98962404,1227.36165177 379.989841494,1228.25669646 381.169983127,1228.26031597 381.16158546,1232.90244221 382.614729536,1232.90176476 382.615121845,1233.7767727 391.494476725,1233.780788 391.495377892,1235.51744604 373.24690322,1235.51182076 373.251532387,1226.7017012 367.519282291,1226.69843257 361.626413022,1226.70044167 361.627229027,1226.60693686 361.627668366,1224.71666377 358.785651528,1224.71190013 358.79187176,1201.0 367.542813729,1201.00289465 " moovel_rot="-89.5" moovel_centroid="374.320202666,1215.8767594318463" moovel_centroidlatlon="-118.3015597963992,34.09114356533081"></polygon></g><g transform="translate(-164.3311482 -1628.5328873) rotate(0)"><polygon id="206923590" class="tile" points="247.011687369,2080.46770394 255.309801751,2081.00015512 274.806637969,2082.25644474 274.84304317,2114.97440624 246.505530829,2113.89098467 247.011687369,2080.46770394 " moovel_rot="-3.2" moovel_centroid="260.739483321,2097.947104" moovel_centroidlatlon="-118.23473699747397,34.03615401759314"></polygon></g><g transform="translate(-100.33016680000001 -709.6864025) rotate(0)"><polygon id="402079574" class="tile" points="184.771240239,1201.0 195.070568882,1201.00383641 204.521620149,1201.01274055 208.569116124,1201.04292662 208.722693984,1233.58408843 202.89787715,1233.74038853 203.039930939,1244.70815554 182.535005659,1244.63657956 182.538435381,1234.08681566 182.546301448,1229.91991796 184.369983852,1229.84599623 184.364070486,1231.54004376 198.964029387,1231.76764012 198.969942753,1230.07359263 199.691596938,1229.98779533 200.410635681,1228.73781858 200.268890265,1217.68171013 199.738903914,1216.43539993 199.744817292,1214.74134859 182.551506753,1215.0345986 182.559392698,1203.20822609 184.771240239,1201.0 " moovel_rot="0.2" moovel_centroid="196.359196611,1221.5091268904507" moovel_centroidlatlon="-118.30283713526941,34.097725458212764"></polygon></g><g transform="translate(-243.11243180000002 -894.6915357999999) rotate(0)"><polygon id="207072953" class="tile" points="331.364102562,1201.0 332.15944495,1201.02086823 357.768547744,1201.49324935 357.785651528,1219.36352668 356.899577823,1256.20480358 346.896833911,1256.01861049 347.591915296,1211.95449871 344.316571389,1211.892948 344.255621137,1215.37779234 331.13892685,1215.13630214 331.364102562,1201.0 " moovel_rot="72.9" moovel_centroid="348.633833212,1222.8125942475426" moovel_centroidlatlon="-118.23994883307226,34.02513431370455"></polygon></g><g transform="translate(-75.8823643 -980.7366703000001) rotate(0)"><polygon id="210612027" class="tile" points="143.715019115,1544.39310947 150.700507572,1524.44232377 151.611767992,1524.89771144 152.167736435,1523.4525639 150.383067409,1522.6215043 153.012500057,1516.04443868 136.683738844,1510.3700193 134.72537505,1510.21645082 132.933602555,1510.81858214 131.375499549,1512.34882266 130.759011308,1514.07137517 131.203732717,1530.05003884 130.748236338,1564.1733868 148.002693331,1570.53602432 151.251914217,1560.1567731 165.188510571,1521.31951691 158.614917459,1518.18876363 155.376108245,1526.19192862 157.802690677,1527.02013299 154.921786889,1534.57803848 156.413730075,1535.10404918 153.133772587,1543.97041846 151.823591229,1543.5001955 150.826625104,1547.03747779 143.715019115,1544.39310947 " moovel_rot="-25.4" moovel_centroid="142.976145923,1539.07351053" moovel_centroidlatlon="-118.24415313073949,34.031406749637135"></polygon></g><g transform="translate(-341.15054680000003 -970.2657292) rotate(0)"><polygon id="209231920" class="tile" points="432.956580333,1510.3394481 458.733508056,1510.21645082 458.734045133,1516.26257707 458.740432984,1540.72690055 432.963539333,1540.84994223 432.956580333,1510.3394481 " moovel_rot="-37.5" moovel_centroid="445.848303249,1525.53323281" moovel_centroidlatlon="-118.24447075295716,34.02536740108821"></polygon></g><g transform="translate(-66.88429090000001 -1437.9607677) rotate(0)"><polygon id="176593350" class="tile" points="185.706216891,1838.42595077 178.976787047,1838.43585658 176.305843586,1838.44657082 167.426799674,1838.46901067 160.601080349,1838.48525957 160.571002342,1835.61309422 160.493545591,1827.93173218 160.284468357,1807.4057896 163.107973919,1807.34885344 176.214416772,1807.19422744 185.422318504,1807.16625631 185.711061251,1807.16726422 185.668113706,1807.98197794 185.703838013,1834.51192532 185.706216891,1838.42595077 " moovel_rot="-89.8" moovel_centroid="173.076882385,1822.82274785" moovel_centroidlatlon="-118.28235315152754,34.0137226374452"></polygon></g><g transform="translate(-86.0870932 -1098.6361846999998) rotate(0)"><polygon id="392388711" class="tile" points="187.639877629,1715.97041581 177.258316103,1723.23654436 155.555728814,1693.69244407 168.598536535,1683.45968773 181.788344197,1674.02918366 187.663464302,1682.3622341 171.411512478,1694.56887239 187.639877629,1715.97041581 " moovel_rot="-3.8" moovel_centroid="173.047170483,1698.33460104" moovel_centroidlatlon="-118.41134810147527,34.02935261006401"></polygon></g><g transform="translate(-293.3866575 -917.4109979000001) rotate(0)"><polygon id="203135489" class="tile" points="395.938785258,1562.31434751 418.404321577,1528.26343646 413.961362942,1525.25227353 390.976395091,1510.21645082 386.939180534,1516.15382617 405.437430653,1528.37535367 386.959939012,1556.3782084 395.938785258,1562.31434751 " moovel_rot="-61.3" moovel_centroid="401.499172138,1536.16095688" moovel_centroidlatlon="-118.2336378605841,34.03542365489868"></polygon></g><g transform="translate(-131.0318543 -1060.3713846) rotate(0)"><polygon id="428435722" class="tile" points="203.523878182,1714.31115326 212.844107237,1680.47172624 188.668050966,1674.02918366 188.663464302,1697.5347563 195.256046356,1699.4082295 191.933469134,1711.06342999 203.523878182,1714.31115326 " moovel_rot="-53.0" moovel_centroid="199.333181398,1692.34527073" moovel_centroidlatlon="-118.22671781120903,34.11989338267817"></polygon></g><g transform="translate(42.726525800000005 -1319.027136) rotate(0)"><polygon id="392711786" class="tile" points="71.4092551902,1809.38336734 71.4758554827,1819.61041175 70.5570566442,1819.88735154 70.7133908372,1827.89692179 71.3037122201,1832.03002278 71.4416481435,1838.73278247 92.4518935639,1838.40085887 92.4540104862,1818.36703416 92.2837504886,1807.16625631 71.4336191509,1807.98051239 71.4092551902,1809.38336734 " moovel_rot="31.3" moovel_centroid="81.813886778,1823.11509005" moovel_centroidlatlon="-118.4133803865747,34.02851772046394"></polygon></g><g transform="translate(81.4772599 -942.6278271) rotate(0)"><polygon id="48217369" class="tile" points="28.9458643936,1536.82626189 46.0201088805,1549.12929202 51.3145641692,1541.67533891 51.3145641692,1510.21645082 44.2499253273,1511.39866381 28.7125214495,1528.66431683 28.9458643936,1536.82626189 " moovel_rot="-90.0" moovel_centroid="42.1638397653,1529.86672861" moovel_centroidlatlon="-118.4680189023958,34.28043442594649"></polygon></g><g transform="translate(-141.61598930000002 -1538.8791572999999) rotate(0)"><polygon id="391409475" class="tile" points="259.576628098,1986.52531957 280.963303637,1968.32356261 259.921807761,1944.1396387 256.200285047,1946.88170692 273.430070652,1967.46001876 267.368845262,1972.57458802 262.244366119,1977.09211433 256.205124283,1982.19010438 259.576628098,1986.52531957 " moovel_rot="82.0" moovel_centroid="267.781629068,1966.38739738" moovel_centroidlatlon="-118.4051806725275,34.02279533042813"></polygon></g></g></svg>