<svg><g transform="translate(0 0)"><polygon id="1" class="bin" points="195.136427863,385.298826979 195.077923746,385.143974139 189.487490123,387.25606572 176.509150136,386.824561093 173.781916802,387.872701444 172.63456057,390.559702287 172.564272561,411.171361988 172.851827654,412.624332538 184.96323337,441.742034423 188.385214667,444.051633629 193.405528793,444.105778264 197.188314662,445.57016357 199.076933375,449.160012121 200.179131209,457.879373066 200.432750261,458.838761196 205.035650149,470.000182665 205.101292252,470.165384278 214.792072111,495.504005075 213.691890514,502.204023363 207.289107173,509.949283248 205.862645117,511.249132418 189.55115776,522.360072245 185.226141457,523.252170962 183.645811703,522.203820558 181.223578161,521.595046776 179.413285105,521.764374356 176.039269612,519.031136589 153.285754157,477.664144159 150.702141703,475.78776137 147.609449257,476.582191427 146.2500005,479.471441287 146.2500005,577.542938223 146.575638404,579.071415974 168.846465149,628.966401279 168.889794357,629.05999523 201.258929851,696.529954494 201.603926146,700.618096896 199.1470096,703.903746273 187.025862934,711.597830996 185.500987379,713.511088398 176.528545041,738.826010796 174.579629755,741.694554807 147.533319513,765.314256397 146.2500005,768.138789085 146.2500005,793.439773826 147.675193764,796.382183322 150.867479776,797.088058314 224.512987294,779.576827561 228.926514341,780.321978553 231.461759336,784.010745801 232.886022133,790.985086255 232.119975238,795.200274141 228.654637837,797.719415553 201.083949405,804.682184955 198.792830851,806.37825695 198.356190678,809.195210943 209.070572498,853.729275707 217.329066292,888.572778764 217.337787602,888.608781587 224.581993216,917.881258329 225.098720443,919.055614065 228.201739174,923.726056765 231.013004259,937.21556472 231.034246565,937.321667223 232.791331619,946.471579579 232.004803903,950.634646214 228.584326831,953.134663466 200.456377009,960.458215839 200.452634794,960.459192244 190.465815371,963.070418044 188.30289149,964.605406081 187.696438768,967.187390412 188.949820617,969.524795367 191.436062862,970.44839024 207.428970623,970.356118546 207.464502013,970.356005366 243.716530684,970.334209271 247.780069964,972.014230212 249.465967868,976.075334754 249.658460925,1203.75316948 250.757930328,1206.40277013 253.408459585,1207.499999 446.2499995,1207.499999 448.901649929,1206.40164943 449.9999995,1203.749999 449.9999995,3.75 448.901649929,1.09834957055 446.2499995,0.0 167.735254145,0.0 165.375332217,0.835678724788 164.067216448,2.97025680259 163.787411641,4.28650372099 164.081471773,6.70294340543 165.797257577,8.42971240604 166.25144345,8.65362648351 222.469958348,72.8070405121 223.88645029,76.9219639009 222.014854893,80.8508536406 220.59623338,82.14147395 216.365977045,83.9070545706 214.53381772,84.0035018882 212.30925983,84.8851162168 208.134767879,88.4158940423 202.285975259,90.2097342833 202.315790081,90.3069451211 200.427232606,90.8934756743 199.123002325,93.56814642 198.532714454,106.472840663 199.466938628,109.125313061 215.721679893,127.54685743 217.147212754,131.715012319 215.201889527,135.667401046 147.527422388,195.017645248 146.2500005,197.837017071 146.2500005,269.77880218 147.289018186,272.369762407 149.830307111,273.524960767 152.4656304,272.604252445 155.145061741,270.266045996 156.337246191,268.266969849 156.120249578,265.949531246 156.014539063,265.705591015 157.933968797,261.48124917 194.227247678,229.22269594 198.288411287,227.774135633 202.215957503,229.553393211 208.537880569,236.185696322 209.71440295,236.836316982 209.680252898,236.893984126 213.49393088,239.152415723 214.863679183,242.697635669 215.558338057,262.550145588 215.561540847,262.907916474 214.911335705,300.987927368 213.193874813,304.989668651 208.562784674,306.886424303 206.542580069,308.86715775 206.481316678,311.69572248 207.951113645,313.267277616 209.659390611,317.600708348 209.285170787,378.726645349 207.53778041,382.815812701 203.394311883,384.430226319 196.790384546,384.257296396 195.136427863,385.298826979 " moovel_rot="0" moovel_centroid="323.1445071798469,578.3902319984146" moovel_centroidlatlon="0,0" transform="translate(-146.25 0)"></polygon><g transform="translate(417.16703357378907 -1262.055026184218) rotate(0)"><polygon id="308210290" class="tile" points="-292.922093798,1708.36729421 -294.962798182,1715.0794982 -297.858713785,1718.675774 -301.436240333,1721.023294 -319.480882367,1722.76985596 -320.786609349,1760.4898642 -317.847745593,1772.73426927 -317.79930522,1796.58063629 -320.241895793,1849.45846107 -320.006855207,1868.81419552 -310.873260718,1875.90524098 -314.714359545,1881.75728562 -305.325146803,1889.2291299 -304.629374298,1888.30609567 -294.130717445,1895.78850813 -292.559938279,1895.43013938 -286.133148712,1897.42111495 -285.831914075,1895.11278567 -277.405558781,1894.45413878 -275.912780964,1910.23318673 -291.192543787,1910.13247796 -297.749434532,1924.20801273 -305.122356688,1925.52587284 -304.594624192,1938.42665248 -308.474459298,1958.4596707 -331.536351574,1967.80195793 -329.556771725,1974.03661987 -342.928608108,1979.81061206 -347.168230991,1977.3116116 -352.825714213,1976.44990105 -357.727434865,1980.98225993 -363.345103399,1980.25710788 -358.504179033,1956.13661357 -355.364861693,1930.97738881 -353.670502064,1911.79246827 -351.824136836,1906.81742255 -344.525678862,1904.5003336 -346.187831311,1894.86635749 -348.623161106,1828.92596962 -353.478149557,1777.31215377 -335.916818165,1771.86013571 -331.846878391,1771.7724135 -330.001003721,1720.68555162 -331.706807321,1719.31986977 -358.690208468,1722.01650703 -363.346633977,1676.6777768 -359.327549373,1676.51258604 -359.618425382,1672.56454294 -346.03951214,1671.66743378 -342.283936702,1667.5389361 -338.180144679,1664.8686062 -320.832055392,1663.56927363 -315.579998609,1669.56697226 -302.721162833,1660.63916797 -287.725388081,1682.3020253 -285.978631148,1691.26552699 -294.514966296,1696.35439918 -292.922093798,1708.36729421 " moovel_rot="79.4" moovel_centroid="-328.365708105,1822.43268717" moovel_centroidlatlon="-118.34944844545049,34.14182959190223"></polygon></g><g transform="translate(268.28166799999997 -1489.5323658) rotate(0)"><polygon id="299214310" class="tile" points="-60.144782757,1984.07485681 -53.7866347712,1992.93088554 -53.6783461377,2003.2713104 -72.1308249347,2002.92743203 -72.1084444162,1988.48107651 -79.2661907427,1988.74041965 -75.6677164737,1990.48244757 -74.8402457435,2035.05462393 -81.6488475434,2035.48667613 -81.5106658783,2078.02153716 -53.7405484065,2078.97329419 -53.6521720245,2094.42838734 -163.991924606,2095.65605415 -163.877745468,1987.28561843 -160.137615661,1987.24645045 -160.164561955,1984.67336294 -160.192851378,1981.97202078 -133.416437969,1981.79582611 -80.3378061768,1981.44840271 -65.6811069489,1980.98225993 -60.144782757,1984.07485681 " moovel_rot="0.6" moovel_centroid="-116.859002441,2038.06507483" moovel_centroidlatlon="-118.41765986092176,33.96679083339053"></polygon></g><g transform="translate(357.0845687 -1798.1110816999999) rotate(0)"><polygon id="133641824" class="tile" points="-115.805739991,2532.44268739 -115.821770937,2502.40133978 -167.647645539,2473.5654315 -163.316314855,2464.44553577 -150.967384048,2438.44850911 -150.892566048,2437.68448424 -175.439955942,2423.21266846 -175.756875392,2413.21698648 -177.367974768,2413.01927489 -178.487913494,2412.37610482 -179.048386639,2411.50399559 -179.068416603,2408.63496124 -206.98739391,2408.72539589 -206.940367388,2411.63442631 -207.276900969,2412.22346953 -207.788210846,2412.6529949 -208.380847038,2412.91431313 -210.758012355,2413.01127814 -211.056003114,2531.05829749 -206.118490285,2536.05483524 -119.045573086,2536.21846987 -115.805739991,2532.44268739 " moovel_rot="0.4" moovel_centroid="-174.610658583,2484.03946156" moovel_centroidlatlon="-118.60222475885186,34.18004277578136"></polygon></g><g transform="translate(388.87337890000003 -1080.7612734999998) rotate(0)"><polygon id="93747323" class="tile" points="-209.135401295,1439.88483508 -234.870593543,1404.33306135 -239.026656472,1402.69935276 -269.246637508,1424.3605887 -251.611625956,1448.95516815 -237.396816107,1468.93446141 -215.943562235,1499.36511367 -220.060468389,1502.26280207 -249.239619291,1523.21182997 -246.545009036,1526.97536422 -262.564671688,1538.47272046 -269.289305698,1543.34054366 -251.319164493,1568.1790121 -197.619055549,1529.51275269 -208.640246233,1514.16434566 -201.642323944,1509.13992205 -191.672079442,1523.02281188 -181.186893,1515.49052095 -191.180636285,1501.57516862 -179.911080225,1493.48333425 -178.649634123,1487.92800314 -175.76202927,1485.83772583 -197.298754605,1456.08590667 -200.693641233,1458.54339474 -212.458748146,1442.29053699 -209.135401295,1439.88483508 " moovel_rot="-54.1" moovel_centroid="-224.641090145,1484.74805328" moovel_centroidlatlon="-118.3082897708729,34.097469400474985"></polygon></g><g transform="translate(263.1049499 -915.7812397000001) rotate(0)"><polygon id="76559158" class="tile" points="-5.49933855161,1380.90397098 -5.35274695754,1378.83446127 -7.27720799148,1369.22846028 -7.43377549872,1368.44092216 -7.96025789082,1365.48608835 -7.21467129923,1364.11654555 -7.86364352405,1359.67512661 -6.4643865414,1358.10143587 -1.0,1355.75516227 -11.3253932726,1329.1314867 -35.8006065838,1266.03278175 -61.0194836624,1201.0 -78.0250022922,1207.8328172 -68.0618857745,1280.3283882 -42.5537863404,1299.37119241 -33.3992908474,1368.45170357 -78.0387669686,1375.13958235 -74.5962472282,1402.69935276 -29.3743892383,1395.10922931 -13.3670439824,1390.94122359 -12.0367746852,1390.22641744 -9.48132701479,1388.3258097 -7.91757919006,1386.41273398 -6.68603736311,1384.44404168 -5.94905346632,1382.59702774 -5.49933855161,1380.90397098 " moovel_rot="-82.2" moovel_centroid="-42.34303782432707,1315.5578198091732" moovel_centroidlatlon="-118.44725233077536,34.21092787184801"></polygon></g><g transform="translate(275.041897 -1805.2262483) rotate(0)"><polygon id="422876614" class="tile" points="-17.9261826385,2303.94983007 -17.8802507814,2296.06038948 -20.2181979798,2295.99631899 -20.2372876815,2292.44098974 -20.5602391083,2291.767956 -21.0623784028,2291.42460252 -21.6700390466,2291.4668523 -21.9967840735,2291.62048169 -22.31609357,2291.99077974 -22.488294147,2292.40871863 -50.6677905008,2292.43485249 -51.3454361223,2291.56241367 -51.7269028623,2291.3470506 -52.2543019015,2291.42112313 -52.7743774697,2291.67976183 -53.0336588524,2292.02577317 -53.0597542204,2296.03070089 -55.4241938151,2296.03092865 -55.4319971301,2406.68870696 -55.3813212175,2407.81211265 -55.018351087,2408.46894392 -54.2964168806,2408.63496124 -53.7760611523,2408.45658191 -53.4438696194,2407.94981024 -53.3253261633,2407.46786109 -5.00688390993,2407.7646814 -4.53710374832,2408.40508865 -4.07551549226,2408.61214269 -3.50108240359,2408.61816312 -3.10195951089,2408.15128579 -2.82384533957,2407.46011433 -2.78849328719,2404.19357524 -0.457393307984,2404.20951492 -0.380614708364,2395.58975422 0.0,2351.55179511 -4.32827153653,2351.5107241 -4.26224606708,2343.63732044 -6.62009057812,2343.61344824 -6.54704510495,2339.66456469 -6.80918399021,2339.19196518 -7.2379649207,2338.81625538 -7.80619512834,2338.6737768 -8.17335110642,2338.73123812 -8.63275422938,2339.15017664 -8.97162487172,2339.65697677 -14.0679401871,2339.63463799 -13.9251603942,2304.00006951 -17.9261826385,2303.94983007 " moovel_rot="0.2" moovel_centroid="-30.595933112312466,2354.49846811" moovel_centroidlatlon="-118.44725636910087,34.06513671215293"></polygon></g><g transform="translate(700.1156088 -975.9535085) rotate(0)"><polygon id="137483344" class="tile" points="-443.759257063,1298.77626577 -474.570277921,1307.85302806 -487.655377582,1264.79510033 -490.954831721,1254.01159489 -529.679992151,1264.86669538 -542.566002601,1221.18073648 -510.122398076,1217.49659482 -511.016097437,1205.2307441 -463.276702701,1201.88035886 -463.288776949,1203.74286913 -458.041355523,1203.50635158 -458.087806792,1201.7530673 -443.74308412,1201.0 -443.918743513,1203.27879071 -464.242352587,1214.522427 -463.147226065,1218.79101291 -467.230843354,1219.98514617 -466.760930195,1221.63971888 -459.54509651,1246.29214814 -457.774565927,1252.18030796 -443.759257063,1298.77626577 " moovel_rot="16.3" moovel_centroid="-487.657792866,1246.275965188066" moovel_centroidlatlon="-118.603166785282,34.18565996377942"></polygon></g><g transform="translate(602.9937289000001 -1799.4739061) rotate(0)"><polygon id="32019665" class="tile" points="-510.576357276,2147.78019251 -489.508405471,2144.93039313 -478.561271653,2117.80943869 -482.46411447,2116.76921346 -517.400613428,2101.24305553 -480.891901663,2012.73804317 -488.239514039,2009.60402091 -478.567299909,1986.92783222 -494.362121287,1980.98225993 -497.464261362,1983.23168189 -531.34890326,2067.28647975 -519.986143147,2147.61510782 -518.643041113,2172.31027938 -501.728989107,2172.12539213 -501.505929482,2162.86788325 -506.305127692,2155.21506972 -509.382627473,2155.15136144 -510.576357276,2147.78019251 " moovel_rot="66.9" moovel_centroid="-506.451090526,2077.70076189" moovel_centroidlatlon="-118.3253328288869,34.260718117814996"></polygon></g><g transform="translate(396.5870789 -2042.1125625000002) rotate(0)"><polygon id="140790314" class="tile" points="-215.285430392,2262.65413605 -232.669134707,2281.5995162 -267.262978522,2281.72263949 -267.199653179,2201.4497304 -215.38337154,2172.31027938 -215.285430392,2262.65413605 " moovel_rot="-88.9" moovel_centroid="-240.606233017,2232.47797367" moovel_centroidlatlon="-118.2905845104411,34.02502012882994"></polygon></g><g transform="translate(533.8277617 -2157.2029621) rotate(0)"><polygon id="37891516" class="tile" points="-296.388514357,2378.13610502 -296.32492827,2351.37829057 -296.181965257,2291.45579252 -347.543937168,2291.3470506 -347.385507572,2345.55473081 -347.529176451,2374.91920471 -344.316258431,2374.85333798 -344.242113707,2378.13430726 -296.388514357,2378.13610502 " moovel_rot="-83.1" moovel_centroid="-321.822930419,2334.63380633" moovel_centroidlatlon="-118.40698625603797,33.943073236427026"></polygon></g><g transform="translate(787.9649554 -794.0074647000001) rotate(0)"><polygon id="103497313" class="tile" points="-516.639399048,1483.70505496 -516.708619672,1402.69935276 -577.102265345,1403.98468139 -576.933398462,1458.73475636 -587.997403172,1463.48512921 -529.104459346,1479.58054612 -516.639399048,1483.70505496 " moovel_rot="-90.2" moovel_centroid="-545.909696984,1439.46756155" moovel_centroidlatlon="-118.2807381134761,33.790993873712594"></polygon></g><g transform="translate(141.2108872 -1469.6479541999997) rotate(0)"><polygon id="41840709" class="tile" points="-3.66663568653,2172.31027938 -67.2118167724,2192.71982945 -35.2152227338,2291.3470506 -0.0896657332778,2280.37438939 -28.4196349673,2192.61061804 0.0,2183.1737767 -3.66663568653,2172.31027938 " moovel_rot="12.9" moovel_centroid="-32.18192816952266,2231.94143426" moovel_centroidlatlon="-118.3416452300787,34.20827056406823"></polygon></g><g transform="translate(290.2170765 -457.9448785000001) rotate(0)"><polygon id="216664812" class="tile" points="-121.90422168,1288.78843237 -120.247791383,1290.45832548 -120.012727217,1300.83773046 -138.867442189,1301.23041516 -143.118979712,1296.13225157 -146.715882905,1203.47858372 -143.768523252,1203.53842338 -79.0387669686,1201.0 -79.0792399313,1242.17762061 -94.8312546067,1243.49047554 -123.581607075,1244.54276466 -121.90422168,1288.78843237 " moovel_rot="-7.1" moovel_centroid="-118.732518109,1238.2564261959449" moovel_centroidlatlon="-118.23422450974519,34.04939740978128"></polygon></g><g transform="translate(274.11165459999995 -1660.5935657000002) rotate(0)"><polygon id="428849475" class="tile" points="-21.2054093096,2488.61862639 0.0,2483.81431457 -16.9039380591,2408.63496124 -46.4596091833,2415.28443316 -58.1397479374,2445.72442442 -62.2203697599,2460.25554389 -63.7919624224,2474.49711784 -63.7890810471,2488.33231243 -62.0907619838,2501.97005565 -20.3386313573,2492.45804955 -21.2054093096,2488.61862639 " moovel_rot="78.4" moovel_centroid="-34.06122658695002,2457.97124453" moovel_centroidlatlon="-118.2293454755384,34.06152200865468"></polygon></g><g transform="translate(282.8859003 -1433.0667772) rotate(0)"><polygon id="424923547" class="tile" points="0.0,1667.40568339 -0.247129268199,1828.96426095 -21.5603589758,1829.02051326 -21.7273382127,1660.63916797 0.0,1667.40568339 " moovel_rot="0" moovel_centroid="-10.957106482506012,1746.23036512" moovel_centroidlatlon="-118.50167915107622,34.175102522437115"></polygon></g><g transform="translate(483.9190603 -2142.2479372000003) rotate(0)"><polygon id="393582932" class="tile" points="-241.253324877,2358.69311614 -238.552809228,2362.16628425 -195.440858836,2362.68725947 -191.848183814,2357.07675713 -191.69547499,2298.79432453 -196.911684968,2291.3470506 -234.807449419,2291.93481751 -241.317622855,2295.11410216 -241.253324877,2358.69311614 " moovel_rot="-90" moovel_centroid="-216.549336069,2327.15387607" moovel_centroidlatlon="-118.62527969697648,34.18689476765517"></polygon></g><g transform="translate(500.2305784 -407.1260614999999) rotate(0)"><polygon id="391798811" class="tile" points="-266.34013763,1254.12603345 -267.446961625,1258.95948567 -265.505879722,1275.44611098 -263.212154263,1275.71059592 -263.158374136,1285.86682837 -259.691225959,1286.43792433 -259.876467734,1290.41730382 -242.123967399,1296.463878 -223.521214097,1299.96198833 -207.938879932,1302.18799822 -208.097258544,1257.11638102 -212.684160588,1239.07925089 -207.960008467,1216.44319036 -211.764226961,1215.14345861 -208.950024555,1201.0 -215.797165191,1201.32667291 -219.215750085,1219.9412115 -221.800958842,1233.34305959 -227.050215223,1242.51468019 -234.352199288,1247.78103719 -243.242005102,1251.12088527 -251.213317509,1251.4842396 -259.087428345,1249.85048296 -263.813181829,1248.07070812 -266.34013763,1254.12603345 " moovel_rot="-54.2" moovel_centroid="-232.129776763,1266.0051054526705" moovel_centroidlatlon="-118.61812996227012,34.27258690327108"></polygon></g><g transform="translate(494.3144883 -1356.9687558) rotate(0)"><polygon id="31374721" class="tile" points="-368.676940618,2180.86761822 -368.676940618,2189.43297369 -367.528123474,2190.57287959 -365.237168354,2190.57287959 -365.811576925,2237.36504772 -413.393980071,2236.79509875 -421.990071151,2236.79509875 -421.990071151,2172.31027938 -419.124707456,2172.31027938 -415.11052662,2172.31027938 -411.10302495,2172.31027938 -411.10302495,2175.16807855 -403.649071847,2183.15546025 -380.719483133,2183.72541376 -372.691121457,2180.86761822 -368.676940618,2180.86761822 " moovel_rot="0" moovel_centroid="-394.783649277,2208.66447293" moovel_centroidlatlon="-118.31998353248414,34.08480002888496"></polygon></g><g transform="translate(620.1763369 -611.9999866) rotate(0)"><polygon id="384741917" class="tile" points="-439.739563106,1493.40657101 -407.97400902,1492.97343781 -407.596263991,1488.83632016 -403.995515946,1488.71155308 -400.430897737,1488.63291829 -400.419974252,1484.19943177 -400.362881688,1464.73802659 -415.140087223,1464.50995481 -415.341937916,1402.69935276 -444.989141702,1403.28780346 -444.961673964,1489.04933446 -439.641391157,1489.15363701 -439.739563106,1493.40657101 " moovel_rot="27.7" moovel_centroid="-427.204993155,1451.61872231" moovel_centroidlatlon="-118.42509768447071,33.97524972251313"></polygon></g><g transform="translate(297.5671009 -1885.2335218) rotate(0)"><polygon id="256733565" class="tile" points="-191.457751407,2062.5324374 -191.45664396,2061.89791727 -178.132716124,2061.91449276 -178.05561598,1999.34407264 -191.291252828,1999.32765125 -191.27785854,1991.65329724 -211.935467436,1981.024064 -220.579872858,1980.98225993 -220.617685304,2057.83283465 -220.039783555,2057.83384328 -220.041567129,2058.85575465 -219.882111331,2059.47051748 -219.081370059,2060.56062132 -217.806918606,2061.5647226 -217.141332209,2061.91320161 -215.873251465,2061.96884826 -215.898263308,2062.50313898 -191.457751407,2062.5324374 " moovel_rot="-90.1" moovel_centroid="-200.517806255,2025.3374595" moovel_centroidlatlon="-118.37886255722607,34.07397761354859"></polygon></g><g transform="translate(531.5782585 -1936.7515111) rotate(0)"><polygon id="27826198" class="tile" points="-257.864655513,2006.78823016 -255.263021823,2041.74110939 -250.283535505,2042.93498426 -250.279500275,2065.81704955 -252.763185145,2070.711428 -256.79912241,2075.02705871 -269.659448346,2081.25021554 -275.135358271,2080.8191379 -284.072024602,2076.46177095 -288.41123003,2071.18423627 -291.092450723,2065.50737611 -291.497996878,2061.07963897 -290.279604961,2053.65651574 -286.025227859,2044.93561873 -283.048611148,2036.15597687 -281.78623357,2027.50093177 -281.681190923,2020.39075599 -282.187662623,2014.26573098 -286.438723641,1999.0700646 -285.747795016,1993.26025093 -283.297989273,1986.33567325 -272.324817031,1980.98225993 -265.123150172,1981.59680249 -259.045912271,1984.02192269 -254.663003924,1988.28363671 -252.697752903,1992.25569862 -251.659049626,1996.89575024 -256.641450937,1998.4285594 -257.864655513,2006.78823016 " moovel_rot="53.4" moovel_centroid="-269.98342542,2033.65831056" moovel_centroidlatlon="-118.47217904862542,34.17989401417701"></polygon></g><g transform="translate(624.4531454 -1002.1211544000001) rotate(0)"><polygon id="336759205" class="tile" points="-335.067942113,1660.53165384 -335.059050756,1656.4105845 -334.956725961,1604.45306764 -334.140221969,1602.28758837 -333.532797484,1600.1291532 -333.994125416,1570.80168065 -334.917554738,1566.99615996 -337.399771172,1402.69935276 -344.427560956,1403.21923623 -344.382269335,1604.26246376 -344.399536261,1654.26951172 -343.671085372,1656.94659136 -342.234417298,1659.92299801 -340.802050477,1660.43479488 -339.26567405,1660.63916797 -335.067942113,1660.53165384 " moovel_rot="-89.9" moovel_centroid="-339.918171831,1538.60394512" moovel_centroidlatlon="-118.52971758391878,34.2357061348409"></polygon></g><g transform="translate(700.8341723999999 -1615.7970461) rotate(0)"><polygon id="391799536" class="tile" points="-540.087280155,1735.45701078 -556.918890268,1745.01180204 -559.609369472,1742.4666368 -564.350131034,1736.4659573 -568.71809109,1732.7476835 -573.574464579,1729.1147532 -577.179933095,1727.10906344 -580.055699618,1722.9818194 -580.203398445,1715.96658828 -580.687840152,1710.51043223 -580.69155264,1703.81859972 -578.764994422,1697.68531306 -575.05417882,1690.61670428 -570.334018368,1680.41249323 -564.83195938,1672.44067452 -558.519428339,1664.18727158 -555.31758103,1660.63916797 -551.440522851,1662.64726772 -547.780875959,1667.99323096 -541.294591891,1679.29381257 -530.261363788,1696.98082045 -526.490492651,1703.54545776 -524.846936816,1707.99232724 -525.035425384,1714.28531184 -527.362792123,1721.52177392 -529.286271822,1726.20047388 -532.72751686,1731.13218069 -540.087280155,1735.45701078 " moovel_rot="24.0" moovel_centroid="-553.786977515,1705.94411418" moovel_centroidlatlon="-118.61560724443186,34.275148755310816"></polygon></g><g transform="translate(673.0864787 -1633.9865757999999) rotate(0)"><polygon id="319143491" class="tile" points="-430.95666886,1677.97231922 -465.716361934,1660.63916797 -474.524098339,1678.13817316 -475.894133052,1680.85863181 -484.639765701,1698.23928298 -486.063291614,1701.06509062 -487.368622464,1703.65709954 -494.98665337,1718.78773481 -474.545581488,1729.29206789 -473.092392886,1730.03232038 -469.998242126,1731.62798831 -468.503708801,1732.39302654 -440.335553696,1746.3084885 -437.487597462,1740.61206336 -433.866214849,1742.38378815 -432.742967416,1740.23360269 -430.965775309,1736.81346412 -437.111912763,1733.72649708 -454.784543667,1724.84817838 -451.388817747,1718.17205609 -434.312704683,1684.57631351 -430.95666886,1677.97231922 " moovel_rot="25.4" moovel_centroid="-461.219885323,1702.55581447" moovel_centroidlatlon="-118.24851122508498,34.05872273089415"></polygon></g><g transform="translate(357.0065644 -1565.2163205000002) rotate(0)"><polygon id="427532831" class="tile" points="-222.84123043,2595.95487153 -212.320713228,2595.86908123 -212.056003114,2408.63496124 -214.48458862,2408.90596856 -223.063080208,2409.73423922 -222.84123043,2595.95487153 " moovel_rot="45.2" moovel_centroid="-217.565516532,2501.85202879" moovel_centroidlatlon="-118.24041477028794,34.03156827228331"></polygon></g><g transform="translate(225.5707394 -516.3102353000002) rotate(0)"><polygon id="380016281" class="tile" points="-32.9409591023,1402.69935276 -27.6337791469,1407.63981166 -28.0530422989,1453.99996797 -31.7666659433,1454.00489382 -34.7256041463,1453.99111092 -37.8448133837,1453.98592467 -54.9236542158,1453.95713219 -75.6223583948,1454.00527301 -75.6810126163,1402.7601345 -32.9409591023,1402.69935276 " moovel_rot="0.2" moovel_centroid="-51.8517291908,1428.43691719" moovel_centroidlatlon="-118.58693072607787,34.18583869181181"></polygon></g><g transform="translate(642.0747567 -1099.0654118) rotate(0)"><polygon id="210609858" class="tile" points="-426.363443827,1985.5839773 -424.987539907,1980.98225993 -372.250605488,1997.6096235 -414.062956538,2129.80283995 -426.140882005,2125.78167413 -385.58157429,1996.56751305 -399.53780296,1992.27415413 -409.475451746,1989.2547538 -420.924818477,1985.88527777 -424.506214259,1984.61716478 -426.363443827,1985.5839773 " moovel_rot="-62.5" moovel_centroid="-399.678447696,2056.28851954" moovel_centroidlatlon="-118.24316765635821,34.029888385003154"></polygon></g><g transform="translate(492.20403969999995 -1038.2895442) rotate(0)"><polygon id="384621977" class="tile" points="-293.036517756,2060.17910918 -306.262431371,2060.61410587 -336.389705236,2060.77944113 -342.322571599,2060.23351784 -342.393824223,1980.98225993 -292.847413937,1981.96713408 -292.497996878,1989.31749776 -292.58597063,2000.57000608 -303.602177164,2000.60908462 -303.697924739,1993.0369311 -319.596777374,1993.65632155 -319.21573165,2000.719376 -329.197513331,2000.80923594 -328.710335356,2050.6310037 -292.964073964,2050.55119437 -293.036517756,2060.17910918 " moovel_rot="27.4" moovel_centroid="-324.092191599,2018.21917981" moovel_centroidlatlon="-118.41664230531168,33.97965310429934"></polygon></g><g transform="translate(334.9748204 -770.3213430999999) rotate(0)"><polygon id="216267096" class="tile" points="-210.096545698,1667.98851726 -246.185644349,1660.63916797 -245.800479785,1694.39990359 -246.153106935,1731.92550838 -219.46157054,1737.07299219 -210.096545698,1667.98851726 " moovel_rot="-38.9" moovel_centroid="-230.276614296,1697.66091945" moovel_centroidlatlon="-118.24592824054092,34.02991798114117"></polygon></g><g transform="translate(410.78344400000003 -731.8516808) rotate(0)"><polygon id="104357814" class="tile" points="-114.524785315,1729.81020331 -119.61830727,1668.7606548 -124.246279555,1660.63916797 -144.910924208,1663.26246081 -147.499584685,1667.38714334 -147.54916834,1735.09465142 -117.596929891,1732.84923703 -114.524785315,1729.81020331 " moovel_rot="6.0" moovel_centroid="-132.404583814,1699.34092441" moovel_centroidlatlon="-118.28157615569253,33.96068245629154"></polygon></g><g transform="translate(616.3098627 -2275.1596764) rotate(0)"><polygon id="133752155" class="tile" points="-501.049705735,2366.37917575 -501.212172166,2313.91341299 -501.098381411,2292.82754378 -529.143602249,2291.3470506 -529.185369488,2298.70739437 -529.507349765,2358.71229434 -529.549653243,2366.22625808 -525.177413426,2366.24819935 -520.596225411,2366.2775492 -501.049705735,2366.37917575 " moovel_rot="-90.2" moovel_centroid="-515.284881798,2329.30346557" moovel_centroidlatlon="-118.59581455271677,34.187256377216"></polygon></g><g transform="translate(411.32262919999994 -953.5225653) rotate(0)"><polygon id="161830870" class="tile" points="-281.380128182,1201.0 -315.308051333,1242.86635039 -273.317113521,1276.63066517 -268.737658821,1271.57429877 -268.447498483,1254.19391512 -268.446961625,1210.90161572 -281.380128182,1201.0 " moovel_rot="50.8" moovel_centroid="-285.165775541,1238.711977431664" moovel_centroidlatlon="-118.23865722768662,34.047684111653545"></polygon></g><g transform="translate(365.1140768 -1175.9927895) rotate(0)"><polygon id="103941137" class="tile" points="-77.503913223,2203.39240696 -107.105443691,2201.84105649 -106.874749115,2172.42541687 -121.061363115,2172.31027938 -123.610460205,2231.03201199 -83.4950982995,2237.56501181 -77.4720739625,2237.88066514 -77.503913223,2203.39240696 " moovel_rot="-3.0" moovel_centroid="-102.948559547,2211.56232971" moovel_centroidlatlon="-118.47933246875365,34.263957828620995"></polygon></g><g transform="translate(568.5288226 -375.6518019) rotate(0)"><polygon id="31374802" class="tile" points="-357.51120593,1467.18417213 -364.390750459,1467.18417213 -364.390750459,1458.62690436 -399.362881688,1458.62690436 -399.362881688,1434.65686376 -381.015203216,1434.65686376 -380.701282252,1431.10871252 -380.801469792,1407.17068407 -381.015203216,1406.12710612 -381.015203216,1402.69935276 -375.284475831,1402.69935276 -357.51120593,1402.69935276 -357.51120593,1467.18417213 " moovel_rot="0" moovel_centroid="-374.042605709,1435.64331875" moovel_centroidlatlon="-118.3193286930722,34.084842510781876"></polygon></g><g transform="translate(203.4532886 -1642.9374763) rotate(0)"><polygon id="228744764" class="tile" points="-143.00668592,2287.15870887 -149.809377289,2288.83929458 -153.049927736,2285.35284246 -157.966338208,2286.13444112 -173.614387892,2207.46955612 -157.069457525,2172.31027938 -149.51120244,2174.36886613 -142.974223237,2177.42831124 -159.169809459,2211.5225734 -143.00668592,2287.15870887 " moovel_rot="-65.8" moovel_centroid="-158.256999667,2229.32628519" moovel_centroidlatlon="-118.30817643386078,34.160363229321554"></polygon></g><g transform="translate(788.5544763 -966.0713660999999) rotate(0)"><polygon id="168911605" class="tile" points="-496.025457994,1724.96846307 -521.063975853,1724.95396237 -523.846936816,1724.95457132 -523.808130488,1660.63955232 -520.99299835,1660.63916797 -495.98665337,1660.65344405 -496.025457994,1724.96846307 " moovel_rot="-90.4" moovel_centroid="-509.916787932,1692.80306089" moovel_centroidlatlon="-118.52499778581958,34.24680360000152"></polygon></g><g transform="translate(577.3761935 -165.26521409999987) rotate(0)"><polygon id="226335707" class="tile" points="-442.710039043,1261.83499744 -442.74308412,1201.0 -413.235445306,1201.00034418 -413.202989936,1261.84337192 -442.710039043,1261.83499744 " moovel_rot="-4.2" moovel_centroid="-427.97256509,1231.41957636682" moovel_centroidlatlon="-118.35937860472221,34.136799476558764"></polygon></g><g transform="translate(196.288054 -2123.7929529) rotate(0)"><polygon id="401910466" class="tile" points="-131.702317384,2291.36344739 -161.638969912,2291.3470506 -161.660692654,2344.20842646 -131.723984113,2344.21680005 -131.702317384,2291.36344739 " moovel_rot="-0.4" moovel_centroid="-146.681869693,2317.78393873" moovel_centroidlatlon="-118.30621649433033,34.058128774872316"></polygon></g><g transform="translate(395.1155812 -1396.1277146000002) rotate(0)"><polygon id="210155551" class="tile" points="-190.69547499,2291.49160564 -190.650531115,2347.50068928 -162.660692654,2347.35604534 -162.705572886,2291.3470506 -190.69547499,2291.49160564 " moovel_rot="35.6" moovel_centroid="-176.678071636,2319.42383713" moovel_centroidlatlon="-118.44492900000002,34.04621435"></polygon></g><g transform="translate(314.7597371 -689.3213083999999) rotate(0)"><polygon id="372983417" class="tile" points="-209.096545698,1749.48798212 -205.665411605,1707.36526424 -209.022678026,1661.58659827 -193.125013417,1660.63916797 -190.954109268,1684.82439364 -189.938549498,1708.11731256 -191.068535047,1732.2879906 -192.404968023,1752.24520351 -209.096545698,1749.48798212 " moovel_rot="-76.2" moovel_centroid="-199.217885699,1706.31695971" moovel_centroidlatlon="-118.384117684346,34.273035132136854"></polygon></g><g transform="translate(680.7479046999999 -938.8143918000001) rotate(0)"><polygon id="372460164" class="tile" points="-427.363443827,2033.1365903 -427.48254628,2030.23801808 -427.811965496,2021.84425907 -441.441557844,2022.12222741 -441.871319938,2000.13631043 -441.888582954,1997.50220242 -451.861116386,1997.42224005 -451.945102363,1995.43380762 -453.770363709,1995.39275701 -453.915652758,1986.90200969 -452.606063415,1986.88986225 -452.720998432,1980.98225993 -464.705623822,1981.19867754 -464.709783515,1989.90180801 -464.738017379,2045.74610645 -452.638696654,2044.37282221 -427.363443827,2033.1365903 " moovel_rot="-77.1" moovel_centroid="-451.610554364,2017.73215193" moovel_centroidlatlon="-118.34024154131389,34.27309497921626"></polygon></g><g transform="translate(530.9633228 -1190.1637337999998) rotate(0)"><polygon id="385316367" class="tile" points="-374.709196556,2292.06582233 -421.426863773,2291.3470506 -422.21918354,2294.69414203 -425.06619594,2295.00873331 -425.128246719,2347.67971454 -404.228508971,2350.16794441 -403.374125972,2354.1022549 -373.216742793,2354.00299286 -373.161681871,2340.93596131 -418.96583025,2340.51128989 -418.985396521,2297.04970841 -374.90894124,2297.04743458 -374.709196556,2292.06582233 " moovel_rot="-0.3" moovel_centroid="-403.241393134,2327.78497606" moovel_centroidlatlon="-118.59173282436059,34.17772427954557"></polygon></g><g transform="translate(517.6323717 -99.43818069999998) rotate(0)"><polygon id="179779206" class="tile" points="-316.32792684,1201.0 -354.861671013,1201.01700368 -354.827563976,1255.27807189 -346.732088272,1255.27645827 -346.746319786,1233.1802575 -319.607645595,1233.16016157 -316.308051333,1233.16486936 -316.32792684,1201.0 " moovel_rot="-0.5" moovel_centroid="-337.502780658,1220.513052280375" moovel_centroidlatlon="-118.32616993315861,34.09876007006036"></polygon></g><g transform="translate(563.3161938000001 -338.2868490999999) rotate(0)"><polygon id="394989380" class="tile" points="-305.110562987,1521.23479297 -306.221170869,1518.43043856 -309.346923859,1510.44079414 -309.826957058,1499.848198 -308.033984151,1499.75747415 -308.137910464,1495.71635135 -304.277954292,1492.02098242 -304.056715814,1483.25695883 -305.108945187,1482.18694726 -304.879474921,1472.16214551 -305.937295925,1471.02422322 -305.962893273,1458.81177576 -304.440450829,1457.45716503 -303.929993457,1434.68860227 -304.926141358,1433.54271849 -305.014875058,1421.29149931 -303.442103353,1420.22229488 -302.980006403,1403.09479714 -295.017818922,1402.69935276 -295.263429027,1495.8500546 -294.995756258,1514.18386068 -297.834066606,1517.65785558 -305.110562987,1521.23479297 " moovel_rot="-57.2" moovel_centroid="-300.472727678,1465.48508989" moovel_centroidlatlon="-118.39155271196086,34.02723386264648"></polygon></g><g transform="translate(418.6981186 -1057.9984433000002) rotate(0)"><polygon id="402082259" class="tile" points="-202.820102951,2172.31027938 -203.839039559,2192.09484078 -214.199489151,2191.63774762 -214.27165519,2191.63447058 -214.285430392,2191.76088005 -212.377948328,2191.86755646 -212.4533707,2193.17459779 -207.918258874,2193.45408259 -208.202515939,2198.12141114 -212.641709293,2197.85296803 -212.797845599,2200.40663594 -211.980569544,2200.45712033 -213.168337269,2220.06686385 -211.333323595,2220.17693554 -211.681489503,2225.89775827 -213.396226381,2225.79314831 -214.23098042,2239.5753124 -206.206020924,2239.97315394 -206.143929966,2238.95969353 -197.249492362,2239.49730862 -197.299323051,2240.41772104 -192.737720255,2240.64492037 -192.685021865,2239.83830106 -189.920464714,2240.00395518 -187.089243213,2193.40370087 -193.467406233,2193.0137794 -192.248289219,2172.89063342 -202.820102951,2172.31027938 " moovel_rot="-92.6" moovel_centroid="-200.137641018,2210.998052" moovel_centroidlatlon="-118.3029777121793,34.0769098489725"></polygon></g><g transform="translate(429.7534431 -932.5981042) rotate(0)"><polygon id="340025437" class="tile" points="-367.407043334,1660.63916797 -364.671629642,1663.29882538 -364.346633977,1693.09589412 -366.65680302,1704.98068355 -369.190105697,1708.21214193 -394.037965116,1708.52198035 -394.013500617,1661.00005703 -367.407043334,1660.63916797 " moovel_rot="-11.0" moovel_centroid="-379.529986129,1684.33909203" moovel_centroidlatlon="-118.46581593638565,34.152903132881704"></polygon></g><g transform="translate(571.9778963 -1192.0690224) rotate(0)"><polygon id="104357815" class="tile" points="-387.546239425,1202.38647684 -411.108527448,1201.0 -412.202989936,1245.74820955 -407.725881226,1253.26047227 -397.913777024,1258.20771926 -389.843171417,1255.89264387 -385.937222315,1250.01441419 -385.951482711,1206.35127873 -387.546239425,1202.38647684 " moovel_rot="-0.7" moovel_centroid="-398.73966108,1228.5523779812527" moovel_centroidlatlon="-118.28131431154895,33.98868889198818"></polygon></g><g transform="translate(561.1629163 -1105.6868799) rotate(0)"><polygon id="111204661" class="tile" points="-268.262978522,2172.67095453 -268.262978522,2241.64005825 -272.309286527,2242.5684628 -271.875753643,2232.30257936 -287.852224823,2232.30257936 -287.852224823,2172.31027938 -268.262978522,2172.67095453 " moovel_rot="-90" moovel_centroid="-277.824117257,2203.47701132" moovel_centroidlatlon="-118.32730702584259,34.094160408235794"></polygon></g><g transform="translate(647.3976153 -1028.2546524999998) rotate(0)"><polygon id="200857460" class="tile" points="-477.500986546,2189.09800316 -477.494567509,2215.79017018 -447.9239807,2215.65383007 -447.937995882,2172.31027938 -461.903836041,2172.37350749 -461.898045463,2182.3210177 -464.519914956,2182.33055452 -464.518050222,2189.03446988 -477.500986546,2189.09800316 " moovel_rot="54.7" moovel_centroid="-460.97757258,2197.23685484" moovel_centroidlatlon="-118.23566910475256,34.044731014374705"></polygon></g><g transform="translate(651.2155851 -1060.4245563999998) rotate(0)"><polygon id="387291152" class="tile" points="-501.566586057,2172.50213226 -501.536706061,2205.15001284 -534.22068758,2204.95862312 -534.173603518,2172.31027938 -501.566586057,2172.50213226 " moovel_rot="-38.3" moovel_centroid="-517.87447373,2188.73667562" moovel_centroidlatlon="-118.25733693357645,34.04226113658801"></polygon></g><g transform="translate(826.8019928000001 -1962.9035454) rotate(0)"><polygon id="51130618" class="tile" points="-543.893398592,2064.71238302 -532.412250886,2064.67898626 -532.34890326,1981.2024888 -543.93501468,1980.98225993 -543.910273215,1985.94484721 -542.213675338,1986.02871541 -541.698512401,2055.4712468 -543.796971952,2055.46823013 -543.893398592,2064.71238302 " moovel_rot="-89.9" moovel_centroid="-537.360509584,2022.92503041" moovel_centroidlatlon="-118.60247003470867,34.21570246135324"></polygon></g><g transform="translate(773.8504045 -1030.4934297999998) rotate(0)"><polygon id="189966789" class="tile" points="-478.500986546,2215.21789687 -500.520111368,2215.22283064 -500.536706061,2172.31517106 -478.509540202,2172.31027938 -478.500986546,2215.21789687 " moovel_rot="-90.3" moovel_centroid="-489.516838305,2193.76523896" moovel_centroidlatlon="-118.55950708045235,34.235197624886894"></polygon></g><g transform="translate(439.84203779999996 -1152.7936341) rotate(0)"><polygon id="282406487" class="tile" points="-424.933732821,1660.65756165 -424.920548603,1674.11367726 -414.354555993,1674.14471336 -414.336420365,1693.73795543 -411.365833912,1694.939805 -411.616155011,1709.52711256 -416.272333464,1708.18283347 -416.261701753,1722.59494591 -429.908928065,1722.55361805 -429.95666886,1660.63916797 -424.933732821,1660.65756165 " moovel_rot="-61.0" moovel_centroid="-422.319871607,1695.45079281" moovel_centroidlatlon="-118.19423808114456,34.108274500383395"></polygon></g><g transform="translate(352.2410741 -1389.7871638) rotate(0)"><polygon id="205295298" class="tile" points="-270.289305698,1445.51852117 -277.42658798,1445.8313543 -285.521937136,1444.80827347 -292.07945101,1428.96025617 -293.995756258,1424.91459521 -293.084477111,1402.69935276 -270.296257804,1404.30996503 -270.289305698,1445.51852117 " moovel_rot="76.5" moovel_centroid="-281.166344812,1423.19887451" moovel_centroidlatlon="-118.23547961820934,34.03021268884827"></polygon></g><g transform="translate(453.69796139999994 -1324.1321036) rotate(0)"><polygon id="93744732" class="tile" points="-261.422219508,2320.52001494 -264.98699897,2320.52623666 -264.972135856,2329.04216473 -285.276984246,2329.02416997 -285.272078419,2295.03381632 -280.992749945,2295.02634748 -280.369479149,2293.32206886 -279.568164969,2292.42566023 -278.589751589,2291.79610969 -277.699339736,2291.3470506 -263.745086296,2291.46295858 -263.758649189,2292.89232669 -263.744578775,2300.95407193 -260.115405145,2301.04124634 -260.041268399,2320.51760472 -261.422219508,2320.52001494 " moovel_rot="-89.9" moovel_centroid="-273.396909105,2310.47765152" moovel_centroidlatlon="-118.31184023385417,34.098367571522395"></polygon></g><g transform="translate(567.1508649 -2166.3672351) rotate(0)"><polygon id="184485695" class="tile" points="-446.9239807,2207.32378794 -446.893165136,2172.73803346 -423.012676105,2172.31027938 -422.990071151,2206.93680686 -425.936350219,2207.14474209 -446.9239807,2207.32378794 " moovel_rot="35.3" moovel_centroid="-434.945628922,2189.87365333" moovel_centroidlatlon="-118.44695693751585,34.06186801052305"></polygon></g><g transform="translate(253.7034804 -2219.9542296) rotate(0)"><polygon id="206225162" class="tile" points="-224.140328114,2454.28905959 -240.976872972,2454.52415738 -241.609184163,2409.24114716 -224.063080208,2408.63496124 -224.140328114,2454.28905959 " moovel_rot="0.8" moovel_centroid="-232.687180396,2431.51519283" moovel_centroidlatlon="-118.29768631033643,34.06317993104781"></polygon></g><g transform="translate(370.9261133 -2285.2068378999998) rotate(0)"><polygon id="422876620" class="tile" points="-127.694782791,2324.45526807 -108.19191737,2324.34512468 -108.190299808,2313.17335461 -108.177570432,2291.36743267 -122.678352796,2291.3470506 -130.686777298,2291.34885438 -130.702317384,2315.16924127 -127.689969211,2315.1695199 -127.687489933,2315.64302292 -127.687064983,2318.27544803 -127.694782791,2324.45526807 " moovel_rot="0.3" moovel_centroid="-119.068847063,2307.41498469" moovel_centroidlatlon="-118.44205628090083,34.06503905860149"></polygon></g><g transform="translate(350.0458913 -866.7896132999999) rotate(0)"><polygon id="432103757" class="tile" points="-138.381020064,1450.68246756 -138.374985801,1440.6100767 -141.412463627,1440.60890876 -141.416502555,1435.43239809 -138.266530723,1435.4343514 -138.267379776,1420.59286929 -139.215590244,1420.59292876 -139.215028006,1413.60635118 -138.459664436,1413.60494537 -138.465196852,1412.09537766 -136.850010709,1412.09329531 -136.848732618,1402.70216313 -151.602206234,1402.69935276 -151.615731631,1450.67690166 -138.381020064,1450.68246756 " moovel_rot="-90.4" moovel_centroid="-144.993827139,1426.06631966" moovel_centroidlatlon="-118.60855104914552,34.168149168184115"></polygon></g><g transform="translate(470.38761 -873.8741585) rotate(0)"><polygon id="206911868" class="tile" points="-233.804364489,1981.00746137 -233.766439486,2032.28626754 -221.617685304,2032.26211167 -221.663552189,1980.98225993 -233.804364489,1981.00746137 " moovel_rot="82.5" moovel_centroid="-227.71298713,2006.63731922" moovel_centroidlatlon="-118.2372881585082,34.031944820159545"></polygon></g><g transform="translate(401.564736 -1807.3565175999997) rotate(0)"><polygon id="174866910" class="tile" points="-324.44748559,2175.78465004 -323.886064076,2175.78758966 -323.898560786,2176.64246963 -323.03243745,2176.66036321 -323.242247155,2187.62661121 -323.87574658,2187.6032564 -327.581477454,2187.65064567 -327.640335646,2189.70087062 -324.207644971,2189.71884431 -324.334244259,2195.51577998 -321.928081714,2195.51502021 -321.833819914,2192.83045085 -321.860585428,2191.81506303 -321.785604884,2191.28111475 -321.281304533,2191.47077459 -320.287065691,2191.52941455 -319.782520423,2191.67232085 -319.310790782,2191.9553198 -318.824629186,2192.54564033 -318.671753616,2192.45293114 -318.489069959,2192.79452999 -317.977635095,2191.62165794 -316.886977113,2191.64740645 -316.917577806,2192.89626803 -312.907908202,2193.01077246 -312.869497007,2191.80202734 -308.932042903,2191.9228329 -308.170426681,2191.9869341 -308.196259144,2198.4523235 -308.153557509,2204.08316411 -336.216971377,2204.00301569 -336.175577268,2176.18411034 -335.955881882,2175.58412718 -331.063885885,2175.68321372 -331.046225081,2172.31027938 -328.568057114,2172.34329294 -327.004133003,2172.35816097 -327.021828779,2175.73777438 -324.44748559,2175.78465004 " moovel_rot="-90.3" moovel_centroid="-325.257988267,2192.14785109" moovel_centroidlatlon="-118.28319954867789,34.01079106271619"></polygon></g><g transform="translate(292.27982959999997 -735.1865605) rotate(0)"><polygon id="200857115" class="tile" points="-153.722431067,1431.33754138 -174.735374118,1430.38437528 -174.76202927,1402.69935276 -152.615731631,1403.5668316 -153.722431067,1431.33754138 " moovel_rot="-38.9" moovel_centroid="-163.947882557,1416.87631348" moovel_centroidlatlon="-118.25145679336349,34.050574131857026"></polygon></g><g transform="translate(562.7343946 -1205.1296345) rotate(0)"><polygon id="401896500" class="tile" points="-348.830964256,2210.27571505 -348.815016666,2172.31027938 -364.237168354,2172.41794806 -364.011995512,2197.77112114 -363.900108524,2210.34752257 -348.830964256,2210.27571505 " moovel_rot="-89.6" moovel_centroid="-356.445025069,2191.26461762" moovel_centroidlatlon="-118.2922198784369,34.09421261620163"></polygon></g><g transform="translate(230.8498908 -1366.8449080999999) rotate(0)"><polygon id="206085122" class="tile" points="-54.5993416533,1660.68647563 -66.0895529322,1660.63916797 -73.7407818712,1665.44136389 -77.5402341925,1671.26971198 -79.1177007966,1675.98889876 -78.0687582865,1680.93544033 -74.0266240589,1686.54960473 -69.7237872109,1689.13426729 -63.509878087,1690.42625494 -54.6219830669,1690.89416456 -54.5993416533,1660.68647563 " moovel_rot="-33.1" moovel_centroid="-65.1183985694,1675.76432524" moovel_centroidlatlon="-118.23852934670877,34.05555041334765"></polygon></g><g transform="translate(205.97331179999998 -1340.8637235) rotate(0)"><polygon id="94562686" class="tile" points="-77.7739687275,2408.8002126 -100.240018076,2408.63496124 -100.213626422,2426.36835629 -100.24428519,2435.1514106 -77.689640104,2435.23014149 -77.6790086221,2432.18445877 -77.7739687275,2408.8002126 " moovel_rot="-90.2" moovel_centroid="-88.9807243202,2421.9634718" moovel_centroidlatlon="-118.32400256376556,34.0756922533157"></polygon></g><g transform="translate(496.2006753 -1959.0488166999999) rotate(0)"><polygon id="265224065" class="tile" points="-242.320263068,2329.68036981 -242.317622855,2291.3470506 -259.041268399,2292.68394898 -256.449835174,2327.85829972 -242.320263068,2329.68036981 " moovel_rot="-50.7" moovel_centroid="-249.939193036,2309.85676153" moovel_centroidlatlon="-118.4250035764507,33.9684068804824"></polygon></g><g transform="translate(599.1750622 -1036.6789458) rotate(0)"><polygon id="94560697" class="tile" points="-471.977107503,1402.82625698 -492.749811194,1402.69935276 -492.621386638,1427.59929646 -492.749811194,1430.4780185 -471.535646722,1430.39786846 -471.535646722,1430.10398501 -471.65604512,1423.56507812 -471.736310717,1417.69408817 -471.977107503,1402.82625698 " moovel_rot="-90" moovel_centroid="-482.2341098,1416.63730013" moovel_centroidlatlon="-118.32401167785115,34.07500481152018"></polygon></g><g transform="translate(814.8740748 -788.9647284) rotate(0)"><polygon id="214235649" class="tile" points="-549.131530276,1275.11646577 -543.598941603,1274.89089735 -543.566002601,1201.02369741 -547.379482054,1201.0 -547.42371411,1204.82720614 -551.677316229,1204.79859552 -551.784182096,1217.79558492 -547.678395497,1217.81925674 -547.7814045,1226.91700164 -548.345354412,1240.16551434 -548.603443708,1248.46094773 -549.131530276,1275.11646577 " moovel_rot="58.3" moovel_centroid="-546.44755779,1236.5480090990418" moovel_centroidlatlon="-118.24774391091707,34.02901026748937"></polygon></g><g transform="translate(112.370012 -1468.459339) rotate(0)"><polygon id="201889728" class="tile" points="-42.7607022919,1692.04134294 -28.1565920085,1692.34878476 -28.4446513738,1688.34728719 -28.6608464863,1682.94436246 -27.5755062044,1680.3933056 -25.6975820635,1679.0893322 -23.8434706334,1678.67489098 -23.7273382127,1665.97684032 -25.7125963598,1665.71909798 -27.4910582483,1664.41513601 -28.180933252,1662.66735554 -28.3432595246,1661.22185997 -37.9062893704,1660.63916797 -37.822616452,1665.56970202 -42.7962866358,1665.3252811 -42.7607022919,1692.04134294 " moovel_rot="-28.3" moovel_centroid="-34.1062725236,1676.57088733" moovel_centroidlatlon="-118.25810457702663,34.06172485660666"></polygon></g><g transform="translate(423.30544169999996 -1292.8036706) rotate(0)"><polygon id="377681123" class="tile" points="-164.997699473,2017.43303409 -164.991924606,1985.8470695 -173.285311085,1985.61106449 -173.317375568,1980.98225993 -177.05561598,1981.27645462 -177.017382669,2027.88411644 -173.070205463,2027.59733029 -173.39593911,2017.30353043 -164.997699473,2017.43303409 " moovel_rot="-90.2" moovel_centroid="-171.551570532,2002.72222655" moovel_centroidlatlon="-118.60223879481279,34.183741515072754"></polygon></g><g transform="translate(309.8851184 -1680.1547994999999) rotate(0)"><polygon id="102508995" class="tile" points="-19.6363034457,1980.98225993 -22.1009252269,1980.98713566 -22.1638444066,2076.12375851 -19.7059017047,2076.11891763 -19.6363034457,1980.98225993 " moovel_rot="0.3" moovel_centroid="-20.9017286657,2028.53150395" moovel_centroidlatlon="-118.29320702691157,34.10008086795047"></polygon></g><g transform="translate(46.8450584 -1013.3007557000001) rotate(0)"><polygon id="206908784" class="tile" points="-12.4107793137,1402.69935276 -2.09713504538,1405.40404188 -1.13072195873,1406.21846817 -0.619203848764,1406.98379568 0.0,1408.29937046 -0.0343204636127,1433.26425264 -14.3546024658,1430.54288881 -14.3735732518,1421.98362812 -16.9524299797,1422.15462488 -17.2044826336,1413.12533761 -16.4313004285,1409.84818927 -14.7429250192,1410.41651802 -12.4107793137,1402.69935276 " moovel_rot="72.9" moovel_centroid="-7.796854578734228,1418.09527882" moovel_centroidlatlon="-118.23883749547868,34.02562479175968"></polygon></g><g transform="translate(364.33846070000004 -1925.211069) rotate(0)"><polygon id="381602459" class="tile" points="-69.2184959412,2172.31027938 -76.4720739625,2172.31027938 -76.4720739625,2221.03863018 -69.2118167724,2221.03863018 -69.2184959412,2172.31027938 " moovel_rot="0" moovel_centroid="-72.8436149035,2196.67819219" moovel_centroidlatlon="-118.60559442500383,34.156465103482134"></polygon></g><g transform="translate(505.084877 -1588.7008361) rotate(0)"><polygon id="321184330" class="tile" points="-359.516918748,2011.1368467 -355.772915486,1985.53928821 -355.647005191,1983.26209404 -356.453789809,1981.70189898 -357.819058242,1980.98225993 -371.250605488,1981.32264685 -371.232301715,2007.25865569 -367.797331631,2010.3172405 -363.385867222,2009.89224404 -360.998354863,2009.63136269 -359.516918748,2011.1368467 " moovel_rot="-7.7" moovel_centroid="-364.159580489,1994.79618234" moovel_centroidlatlon="-118.4408978373138,34.149311525257545"></polygon></g><g transform="translate(30.715527800000004 -1224.6523954) rotate(0)"><polygon id="43232029" class="tile" points="0.0,2003.96951579 -0.000326929986477,1980.98225993 -17.3099132515,1981.25129925 -17.6363034457,2003.7719547 0.0,2003.96951579 " moovel_rot="35.0" moovel_centroid="-8.706990494673132,1992.52951491" moovel_centroidlatlon="-118.44175155651344,34.0391192479555"></polygon></g><g transform="translate(457.0600237 -1320.2271680000003) rotate(0)"><polygon id="216268801" class="tile" points="-306.459249343,2199.12996093 -306.320778031,2201.50613472 -288.852224823,2201.6511651 -288.853984633,2172.78665301 -296.827421153,2172.31027938 -297.210404005,2185.66957444 -294.015068283,2185.81129802 -293.68441741,2190.47426008 -297.346271337,2190.30491843 -307.153557509,2190.02755665 -306.459249343,2199.12996093 " moovel_rot="-31.0" moovel_centroid="-295.796922167,2189.9311738" moovel_centroidlatlon="-118.24972800149935,34.03059394009524"></polygon></g><g transform="translate(594.1593023 -239.29067170000008) rotate(0)"><polygon id="428024386" class="tile" points="-356.51120593,1435.63028956 -345.427560956,1435.59714693 -345.619883973,1405.04257439 -345.589440319,1402.69935276 -356.180885596,1402.70008829 -356.183468647,1404.955032 -356.473757932,1404.94963819 -356.51120593,1435.63028956 " moovel_rot="52.2" moovel_centroid="-351.001393787,1419.2442492" moovel_centroidlatlon="-118.26187740928717,34.04221001127263"></polygon></g><g transform="translate(181.52925860000002 -626.2856384999999) rotate(0)"><polygon id="202904931" class="tile" points="-154.713167451,1201.0 -171.062171393,1201.44300664 -170.872541212,1207.51333015 -164.107970999,1207.26041525 -163.594709213,1233.46233939 -154.758055869,1232.70815464 -154.713167451,1201.0 " moovel_rot="6.9" moovel_centroid="-160.349305646,1215.3712705345308" moovel_centroidlatlon="-118.23148337805777,34.03491840498219"></polygon></g><g transform="translate(672.124998 -816.6205123) rotate(0)"><polygon id="402081416" class="tile" points="-566.226803378,1981.24335869 -566.235226987,2006.72924859 -552.804529079,2006.24423239 -552.918160344,1989.87275244 -550.743187281,1989.83099082 -550.889005522,1980.98225993 -566.226803378,1981.24335869 " moovel_rot="-88.9" moovel_centroid="-559.165992711,1993.3949322" moovel_centroidlatlon="-118.30879102832115,34.081844338728224"></polygon></g><g transform="translate(451.39569129999995 -231.9754746000001) rotate(0)"><polygon id="391416441" class="tile" points="-325.668371492,1427.51002639 -326.098276731,1407.20502309 -322.972997383,1407.1532396 -323.066377905,1402.90400932 -310.826957058,1402.69935276 -310.829895911,1426.3668522 -325.668371492,1427.51002639 " moovel_rot="-55.3" moovel_centroid="-318.193763571,1415.18633227" moovel_centroidlatlon="-118.40347581438462,34.02032437308367"></polygon></g><g transform="translate(588.6879274 -1119.2187192000001) rotate(0)"><polygon id="319058126" class="tile" points="-443.113646059,2291.34799035 -436.340796629,2291.3470506 -433.836056906,2291.34846262 -433.855418611,2292.20832079 -433.915744072,2297.02225282 -426.762752353,2297.1043402 -426.128246719,2297.10876995 -426.303718188,2313.63224341 -431.126297667,2313.64679868 -436.369317911,2313.6101949 -443.122130318,2313.61127438 -443.115086824,2300.16491603 -443.113646059,2291.34799035 " moovel_rot="-0.4" moovel_centroid="-435.273210032,2303.56527827" moovel_centroidlatlon="-118.44815196053023,34.185168873842926"></polygon></g><g transform="translate(715.9139327 -1145.0292217999997) rotate(0)"><polygon id="258034005" class="tile" points="-535.231938994,2197.55501866 -546.764246062,2197.57417212 -546.743549515,2172.32499107 -535.22068758,2172.31027938 -535.231938994,2197.55501866 " moovel_rot="75.4" moovel_centroid="-540.990275107,2184.94283889" moovel_centroidlatlon="-118.2065068993615,34.12179617162642"></polygon></g><g transform="translate(248.9998079 -2192.1698953) rotate(0)"><polygon id="207189397" class="tile" points="-57.4542441193,2291.3470506 -57.4319971301,2317.64817913 -68.3170053035,2317.64731302 -68.3397142183,2291.3541957 -57.4542441193,2291.3470506 " moovel_rot="-3.3" moovel_centroid="-62.8854639361,2304.49909016" moovel_centroidlatlon="-118.24087345404659,34.02813182637329"></polygon></g><g transform="translate(181.1193145 -1944.4457186) rotate(0)"><polygon id="308823661" class="tile" points="-111.129332367,2433.95517779 -111.108885616,2416.06138953 -114.805739991,2416.05561819 -114.794116817,2408.63496124 -101.24428519,2408.64940646 -101.268318529,2433.96390778 -111.129332367,2433.95517779 " moovel_rot="-90.4" moovel_centroid="-106.855583239,2420.41631933" moovel_centroidlatlon="-118.40490535549759,34.17921990155678"></polygon></g><g transform="translate(428.9970249 -1194.2749151) rotate(0)"><polygon id="392791353" class="tile" points="-206.934664503,1222.95468358 -206.938879932,1201.0 -193.776634939,1201.05923825 -193.772435925,1223.01393299 -206.934664503,1222.95468358 " moovel_rot="-55.8" moovel_centroid="-200.355653264,1212.0069614258812" moovel_centroidlatlon="-118.40160660000001,34.02092545"></polygon></g><g transform="translate(374.1679045 -1256.8639784) rotate(0)"><polygon id="347030447" class="tile" points="-249.26342574,2001.46727263 -247.744381857,2003.03019828 -238.959639863,2003.02351911 -238.959639863,2002.38231884 -234.804364489,1986.40574552 -238.36488107,1980.98225993 -249.279500275,1980.9889391 -249.26342574,2001.46727263 " moovel_rot="-90.0" moovel_centroid="-242.986609003,1991.56330203" moovel_centroidlatlon="-118.45282111853511,34.18688359631905"></polygon></g><g transform="translate(201.1733006 -2280.5723809) rotate(0)"><polygon id="38511003" class="tile" points="-76.6790086221,2408.63496124 -68.0829175424,2408.63496124 -66.3596918248,2410.35281355 -65.7919624224,2426.32721355 -66.9341003969,2428.60697408 -76.6790086221,2437.7420631 -76.6790086221,2408.63496124 " moovel_rot="0" moovel_centroid="-71.7855473928,2421.00288779" moovel_centroidlatlon="-118.32639106450809,34.08322572732813"></polygon></g><g transform="translate(495.6442349 -1907.2073618999998) rotate(0)"><polygon id="444347586" class="tile" points="-337.216971377,2179.18630582 -344.056236936,2179.16225169 -344.057452122,2172.3257672 -347.805555684,2172.31027938 -347.815016666,2199.04106001 -337.227652963,2199.0806139 -337.216971377,2179.18630582 " moovel_rot="-24.4" moovel_centroid="-342.887380674,2187.66220421" moovel_centroidlatlon="-118.36876100891217,34.13951954571112"></polygon></g><g transform="translate(178.87233279999998 -842.2067493000001) rotate(0)"><polygon id="209234904" class="tile" points="-125.529289543,1402.81126072 -117.362351028,1402.69935276 -117.306767628,1429.40079298 -125.550299628,1429.42817806 -125.529289543,1402.81126072 " moovel_rot="52.3" moovel_centroid="-121.434978966,1416.10560061" moovel_centroidlatlon="-118.24584029981888,34.026051170457244"></polygon></g><g transform="translate(219.4156107 -876.9319601999999) rotate(0)"><polygon id="220903471" class="tile" points="-153.667994827,1237.06249283 -153.713167451,1201.27159594 -148.217480231,1201.0 -147.715882905,1210.07871583 -150.41865163,1210.16267855 -150.173218852,1218.8821443 -148.949216511,1218.84162184 -148.051345412,1236.85386583 -153.667994827,1237.06249283 " moovel_rot="62.5" moovel_centroid="-151.163051329,1219.2284731205002" moovel_centroidlatlon="-118.25251735758842,34.032627350668825"></polygon></g><g transform="translate(265.1642263 -1561.4708876) rotate(0)"><polygon id="28677489" class="tile" points="-43.8209655043,2010.34178243 -52.0433616742,2011.13374249 -52.6521720245,2011.19691799 -52.6352028146,1980.98225993 -41.7263604492,1994.08577324 -52.128658022,1981.55901596 -46.4071845908,1982.49041056 -42.6481152866,1983.09911483 -45.4423435032,1982.70068076 -44.0238886856,2006.85894778 -43.8209655043,2010.34178243 " moovel_rot="12.7" moovel_centroid="-48.6723574634,1996.91648131" moovel_centroidlatlon="-118.5599798320277,34.04707671569828"></polygon></g><g transform="translate(209.2494571 -1820.7816799999998) rotate(0)"><polygon id="401896484" class="tile" points="-107.177570432,2302.59477195 -107.177570432,2307.91139083 -107.177570432,2309.36744977 -100.201205451,2307.97818252 -94.8705833826,2306.91619458 -91.6272510216,2302.96212627 -91.6352790732,2294.82689788 -91.6352790732,2292.66284698 -104.953804704,2292.84318455 -105.010000959,2291.3470506 -107.025037787,2294.90036874 -107.081234024,2295.00055629 -107.177570432,2302.59477195 " moovel_rot="-90" moovel_centroid="-99.7746070878,2300.22606906" moovel_centroidlatlon="-118.28650463597263,34.09063641379967"></polygon></g><g transform="translate(97.18452429999999 -1651.3573552) rotate(0)"><polygon id="204858942" class="tile" points="-53.5993416533,1660.87821396 -43.7962866358,1660.63916797 -43.8336812463,1683.85704138 -53.1202408098,1681.11428799 -53.1894221686,1678.97297358 -53.5993416533,1660.87821396 " moovel_rot="0.6" moovel_centroid="-48.4810085391,1671.53489086" moovel_centroidlatlon="-118.22805235629906,34.029367799122895"></polygon></g><g transform="translate(702.0601502 -1370.0470482) rotate(0)"><polygon id="319058878" class="tile" points="-580.92315908,1996.4954138 -567.23700996,1996.4942912 -567.235226987,1980.98225993 -580.921376113,1980.98338281 -580.92315908,1996.4954138 " moovel_rot="-0.5" moovel_centroid="-574.079193015,1988.73883693" moovel_centroidlatlon="-118.45070084999999,34.18426315"></polygon></g><g transform="translate(377.1194255 -2163.7890163) rotate(0)"><polygon id="154824819" class="tile" points="-174.634548501,2172.32657355 -174.614387892,2189.58280832 -186.089243213,2189.59074363 -186.069413135,2172.31027938 -174.634548501,2172.32657355 " moovel_rot="0.2" moovel_centroid="-180.353238317,2180.95762463" moovel_centroidlatlon="-118.28721302967332,34.10976716249959"></polygon></g><g transform="translate(284.2255842 -1746.149463) rotate(0)"><polygon id="401898705" class="tile" points="-40.5729640551,2009.13903004 -29.9028106853,2009.12850086 -29.888657606,1980.98225993 -31.9199043971,1980.98935035 -31.5564239103,1981.61592731 -31.4262636572,1982.1030553 -31.5414363723,1999.70985526 -40.7263604492,1999.69516236 -40.5729640551,2009.13903004 " moovel_rot="-89.8" moovel_centroid="-34.2324054885,2001.21012742" moovel_centroidlatlon="-118.29224782121055,34.09738191803098"></polygon></g><g transform="translate(88.7254816 -1312.6888134) rotate(0)"><polygon id="374998733" class="tile" points="-19.2044826336,1424.70084058 -19.2172775038,1402.69946116 -26.6337791469,1402.69935276 -26.6209829334,1424.70073211 -19.2044826336,1424.70084058 " moovel_rot="-86.8" moovel_centroid="-22.9191305525,1413.70009632" moovel_centroidlatlon="-118.41357905,34.306766350000004"></polygon></g><g transform="translate(393.1314876 -597.6460327) rotate(0)"><polygon id="402081809" class="tile" points="-332.28394951,1402.70603193 -332.532797484,1415.59682897 -332.227758029,1430.13738085 -330.413575733,1430.14406002 -327.106304091,1426.83787115 -327.098276731,1402.69935276 -332.28394951,1402.70603193 " moovel_rot="-90.0" moovel_centroid="-329.808813487,1415.89231995" moovel_centroidlatlon="-118.2902022240688,34.083472333759204"></polygon></g><g transform="translate(160.9837072 -1546.0979093) rotate(0)"><polygon id="373798426" class="tile" points="-86.2233204551,2318.34491768 -90.6272510216,2318.33381164 -90.6166909434,2291.3470506 -86.2048318565,2291.35677289 -86.2233204551,2318.34491768 " moovel_rot="-80.1" moovel_centroid="-88.4180023032,2304.84159342" moovel_centroidlatlon="-118.39273299042063,34.270704783900754"></polygon></g><g transform="translate(597.7049376 -2276.8361181) rotate(0)"><polygon id="373798433" class="tile" points="-444.140623352,2318.33833802 -448.544558045,2318.3272327 -448.532845196,2291.3470506 -444.122130318,2291.35019246 -444.140623352,2318.33833802 " moovel_rot="-80.1" moovel_centroid="-446.334928754,2304.83724655" moovel_centroidlatlon="-118.392749324321,34.27078528373672"></polygon></g><g transform="translate(398.5893231 -1331.7713238000001) rotate(0)"><polygon id="207072948" class="tile" points="-343.516629591,1987.95611244 -343.393824223,1996.33069421 -354.647005191,1996.44412491 -354.625441057,1980.98225993 -348.332776349,1981.03027736 -348.029071431,1988.13553657 -343.516629591,1987.95611244 " moovel_rot="-16.8" moovel_centroid="-349.826943761,1989.71504174" moovel_centroidlatlon="-118.24116846634865,34.02493817220031"></polygon></g><g transform="translate(754.5559101 -1095.1444809000002) rotate(0)"><polygon id="376603384" class="tile" points="-552.80118346,1224.31514087 -557.990799069,1224.31038404 -557.973797655,1201.0 -552.784182096,1201.00475683 -552.80118346,1224.31514087 " moovel_rot="-90.2" moovel_centroid="-555.38749057,1212.6575704543516" moovel_centroidlatlon="-118.37121409999999,34.27629255"></polygon></g><g transform="translate(785.1216262 -1913.6364122) rotate(0)"><polygon id="216267889" class="tile" points="-544.93501468,2007.35277104 -545.568749665,1980.98225993 -548.306617186,1981.25206421 -549.733453256,1981.39588178 -549.000348462,1990.47030521 -549.359199207,1998.81893366 -549.743187281,2007.74980237 -544.93501468,2007.35277104 " moovel_rot="64.0" moovel_centroid="-547.311592936,1994.8162482" moovel_centroidlatlon="-118.24657560175724,34.03022273149755"></polygon></g><g transform="translate(93.0151517 -1839.4023759) rotate(0)"><polygon id="208645757" class="tile" points="-28.888657606,2001.97251824 -23.1784611952,2001.97762017 -23.1638444066,1980.98736181 -28.8740399636,1980.98225993 -28.888657606,2001.97251824 " moovel_rot="-92.8" moovel_centroid="-26.0262507921,1991.4799403" moovel_centroidlatlon="-118.2418399,34.027193749999995"></polygon></g><g transform="translate(640.6918487 -1506.1987272) rotate(0)"><polygon id="391416454" class="tile" points="-477.555565699,1993.27746409 -477.561271653,1983.20036131 -477.281646246,1981.15372389 -467.915840437,1980.98225993 -467.976252311,1981.49014428 -468.000429013,1985.08290525 -465.738017379,1985.09614906 -465.802214316,1993.06666373 -468.514979418,1993.0589547 -477.555565699,1993.27746409 " moovel_rot="33.0" moovel_centroid="-471.982790891,1987.38419549" moovel_centroidlatlon="-118.40505483004169,34.02030107858902"></polygon></g><g transform="translate(319.0133322 -1679.7286975) rotate(0)"><polygon id="392710000" class="tile" points="-286.292901881,2291.44188468 -286.276984246,2302.92315805 -287.853616897,2303.05561945 -294.876655512,2302.85699204 -295.181965257,2302.32913283 -294.820375767,2291.37875449 -292.807273182,2291.3470506 -286.292901881,2291.44188468 " moovel_rot="31.3" moovel_centroid="-290.639454932,2297.21227639" moovel_centroidlatlon="-118.41092651176751,34.02414708473943"></polygon></g><g transform="translate(219.07059320000002 -603.7305276) rotate(0)"><polygon id="220362782" class="tile" points="-126.550299628,1414.09893391 -135.848732618,1414.07409354 -135.825529811,1402.69935276 -130.044109691,1402.71299802 -130.050357981,1403.60798491 -130.041871613,1408.14331074 -126.556883535,1408.14092361 -126.550299628,1414.09893391 " moovel_rot="-90.4" moovel_centroid="-131.828045626,1409.05079166" moovel_centroidlatlon="-118.28722237309277,34.10782313480175"></polygon></g></g><g transform="translate(0 1327.7)"><polygon id="1" class="bin" points="195.136427863,385.298826979 195.077923746,385.143974139 189.487490123,387.25606572 176.509150136,386.824561093 173.781916802,387.872701444 172.63456057,390.559702287 172.564272561,411.171361988 172.851827654,412.624332538 184.96323337,441.742034423 188.385214667,444.051633629 193.405528793,444.105778264 197.188314662,445.57016357 199.076933375,449.160012121 200.179131209,457.879373066 200.432750261,458.838761196 205.035650149,470.000182665 205.101292252,470.165384278 214.792072111,495.504005075 213.691890514,502.204023363 207.289107173,509.949283248 205.862645117,511.249132418 189.55115776,522.360072245 185.226141457,523.252170962 183.645811703,522.203820558 181.223578161,521.595046776 179.413285105,521.764374356 176.039269612,519.031136589 153.285754157,477.664144159 150.702141703,475.78776137 147.609449257,476.582191427 146.2500005,479.471441287 146.2500005,577.542938223 146.575638404,579.071415974 168.846465149,628.966401279 168.889794357,629.05999523 201.258929851,696.529954494 201.603926146,700.618096896 199.1470096,703.903746273 187.025862934,711.597830996 185.500987379,713.511088398 176.528545041,738.826010796 174.579629755,741.694554807 147.533319513,765.314256397 146.2500005,768.138789085 146.2500005,793.439773826 147.675193764,796.382183322 150.867479776,797.088058314 224.512987294,779.576827561 228.926514341,780.321978553 231.461759336,784.010745801 232.886022133,790.985086255 232.119975238,795.200274141 228.654637837,797.719415553 201.083949405,804.682184955 198.792830851,806.37825695 198.356190678,809.195210943 209.070572498,853.729275707 217.329066292,888.572778764 217.337787602,888.608781587 224.581993216,917.881258329 225.098720443,919.055614065 228.201739174,923.726056765 231.013004259,937.21556472 231.034246565,937.321667223 232.791331619,946.471579579 232.004803903,950.634646214 228.584326831,953.134663466 200.456377009,960.458215839 200.452634794,960.459192244 190.465815371,963.070418044 188.30289149,964.605406081 187.696438768,967.187390412 188.949820617,969.524795367 191.436062862,970.44839024 207.428970623,970.356118546 207.464502013,970.356005366 243.716530684,970.334209271 247.780069964,972.014230212 249.465967868,976.075334754 249.658460925,1203.75316948 250.757930328,1206.40277013 253.408459585,1207.499999 446.2499995,1207.499999 448.901649929,1206.40164943 449.9999995,1203.749999 449.9999995,3.75 448.901649929,1.09834957055 446.2499995,0.0 167.735254145,0.0 165.375332217,0.835678724788 164.067216448,2.97025680259 163.787411641,4.28650372099 164.081471773,6.70294340543 165.797257577,8.42971240604 166.25144345,8.65362648351 222.469958348,72.8070405121 223.88645029,76.9219639009 222.014854893,80.8508536406 220.59623338,82.14147395 216.365977045,83.9070545706 214.53381772,84.0035018882 212.30925983,84.8851162168 208.134767879,88.4158940423 202.285975259,90.2097342833 202.315790081,90.3069451211 200.427232606,90.8934756743 199.123002325,93.56814642 198.532714454,106.472840663 199.466938628,109.125313061 215.721679893,127.54685743 217.147212754,131.715012319 215.201889527,135.667401046 147.527422388,195.017645248 146.2500005,197.837017071 146.2500005,269.77880218 147.289018186,272.369762407 149.830307111,273.524960767 152.4656304,272.604252445 155.145061741,270.266045996 156.337246191,268.266969849 156.120249578,265.949531246 156.014539063,265.705591015 157.933968797,261.48124917 194.227247678,229.22269594 198.288411287,227.774135633 202.215957503,229.553393211 208.537880569,236.185696322 209.71440295,236.836316982 209.680252898,236.893984126 213.49393088,239.152415723 214.863679183,242.697635669 215.558338057,262.550145588 215.561540847,262.907916474 214.911335705,300.987927368 213.193874813,304.989668651 208.562784674,306.886424303 206.542580069,308.86715775 206.481316678,311.69572248 207.951113645,313.267277616 209.659390611,317.600708348 209.285170787,378.726645349 207.53778041,382.815812701 203.394311883,384.430226319 196.790384546,384.257296396 195.136427863,385.298826979 " moovel_rot="0" moovel_centroid="323.1445071798469,578.3902319984146" moovel_centroidlatlon="0,0" transform="translate(-146.25 0)"></polygon><g transform="translate(387.4372252000002 -670.405176634729) rotate(0)"><polygon id="428021744" class="tile" points="-355.872761841,1245.07775939 -356.062966299,1203.42458038 -355.878004836,1203.42491209 -355.861671013,1201.63717601 -375.745939289,1201.44909993 -375.738089145,1201.0 -384.937222315,1201.05129541 -384.674331985,1243.49845894 -384.911039305,1243.48876159 -384.923310681,1245.24925992 -355.872761841,1245.07775939 " moovel_rot="-37.5" moovel_centroid="-370.437710205,1223.262008827784" moovel_centroidlatlon="-118.26107466129952,34.0467300988288"></polygon></g><g transform="translate(150.0972176 -1134.941101) rotate(0)"><polygon id="210678927" class="tile" points="-113.524785315,1660.63916797 -113.495487568,1712.41081778 -80.508494487,1693.01915905 -80.7772044927,1691.72193594 -104.857392342,1691.65647787 -104.831174259,1679.59452312 -80.7509863254,1679.65997935 -80.1177007966,1660.85508502 -113.524785315,1660.63916797 " moovel_rot="-2.6" moovel_centroid="-99.7831701555,1681.11193911" moovel_centroidlatlon="-118.23952773101941,34.03920095999261"></polygon></g><g transform="translate(180.983804 -894.9457628) rotate(0)"><polygon id="312564354" class="tile" points="-115.472869185,1414.36125187 -116.306767628,1413.80559165 -115.65033747,1408.45760674 -115.939777761,1404.52020438 -116.253773277,1403.59797634 -113.005675653,1402.69935276 -78.4387595832,1414.46689087 -76.6810126163,1415.06527675 -107.752032534,1475.93125388 -113.879089792,1473.18297998 -116.216681778,1472.13240895 -90.4141370274,1423.05330834 -115.472869185,1414.36125187 " moovel_rot="-18.8" moovel_centroid="-98.4352287478,1432.62023431" moovel_centroidlatlon="-118.49732677583602,34.2145499037063"></polygon></g><g transform="translate(690.2895482000001 -692.5628938) rotate(0)"><polygon id="209359740" class="tile" points="-559.578059999,1203.68628285 -585.211651332,1201.0 -585.299931411,1203.54872691 -585.441950535,1207.73030145 -583.328522644,1207.74849806 -571.973123249,1207.67779981 -571.831243325,1221.25851112 -583.181287928,1221.33320157 -585.055291997,1221.27371289 -585.389671618,1262.61923224 -574.310235539,1262.38221725 -574.472961434,1256.79053846 -566.848133655,1257.03470881 -567.627115212,1218.29245946 -558.990799069,1218.12115331 -559.578059999,1203.68628285 " moovel_rot="-36.8" moovel_centroid="-574.529023405,1231.908145100342" moovel_centroidlatlon="-118.24415206951676,34.02659955171349"></polygon></g><g transform="translate(552.4780168 -828.3849306) rotate(0)"><polygon id="319313510" class="tile" points="-462.018456372,1444.54569646 -455.558520094,1444.60826879 -452.210869968,1444.69473199 -450.61669421,1444.73739522 -450.683317176,1442.03245937 -448.089677878,1442.01428713 -448.017763381,1444.72329864 -446.339165563,1444.68917814 -446.300645057,1441.23468695 -445.989141702,1407.04820309 -446.510214015,1405.22894678 -447.477235155,1403.97781998 -449.155291486,1402.8070835 -450.516876554,1402.80174756 -470.535646722,1402.69935276 -470.241302695,1427.12270826 -470.477663475,1444.18926101 -462.018456372,1444.54569646 " moovel_rot="-37.6" moovel_centroid="-458.353855309,1423.53643043" moovel_centroidlatlon="-118.25093724932198,34.05468179337011"></polygon></g><g transform="translate(257.17511690000003 -1602.8717771999998) rotate(0)"><polygon id="306069434" class="tile" points="-141.974223237,2178.70454012 -135.951973978,2232.15397687 -124.662685644,2232.05566417 -124.610460205,2172.4673611 -136.188419424,2172.31027938 -136.330399014,2178.00810505 -141.974223237,2178.70454012 " moovel_rot="48.5" moovel_centroid="-131.797471181,2201.01365657" moovel_centroidlatlon="-118.24750450136901,34.098190548298724"></polygon></g><g transform="translate(226.7267688 -1081.5227577) rotate(0)"><polygon id="319017000" class="tile" points="-187.399583557,1710.34672821 -173.803281786,1709.60679223 -175.135681148,1682.6413374 -178.691961676,1682.81759515 -178.874995139,1679.06154232 -179.275008037,1672.50669137 -177.746571294,1670.90785546 -177.232603518,1670.88721238 -177.091310731,1675.00590764 -165.596621752,1674.61107878 -165.757213882,1670.01187074 -161.596206426,1669.87148564 -161.698889734,1666.91435215 -161.797262999,1664.46507171 -165.411642628,1664.59687108 -166.036176298,1664.46821019 -166.305769493,1663.96432747 -166.399103118,1660.63916797 -183.8831283,1661.11412411 -183.780680969,1664.66619242 -184.014880624,1665.24378599 -184.662936682,1665.73104887 -188.934483906,1665.92266559 -188.704252852,1671.25437765 -185.010650699,1671.09265815 -184.622462796,1671.74552237 -184.561005309,1674.67757344 -188.938549498,1675.03387675 -187.399583557,1710.34672821 " moovel_rot="-87.7" moovel_centroid="-179.065836305,1683.17663176" moovel_centroidlatlon="-118.45684704659084,34.18629137256793"></polygon></g><g transform="translate(429.67913500000003 -1671.0228313999999) rotate(0)"><polygon id="401896496" class="tile" points="-360.717857702,2295.61009917 -359.33519398,2295.62935779 -359.586339373,2313.61370883 -356.694360692,2313.5795289 -356.692455065,2314.1254484 -360.706667497,2314.12340405 -362.463306383,2314.12150758 -362.46521201,2313.57558808 -360.701893995,2313.57746124 -360.715980095,2296.14799188 -363.721644084,2296.14242697 -363.649219745,2292.01560259 -367.289344916,2292.02830908 -367.280629452,2294.52509561 -368.175632707,2294.52821977 -368.170027908,2296.13386979 -371.703287019,2296.14620324 -372.161681871,2319.81532851 -367.953830755,2319.80064028 -367.939818814,2323.81474953 -360.693076209,2323.75734026 -348.543937168,2323.6587334 -348.546337479,2315.31731833 -350.523331565,2315.33224769 -350.550543074,2313.27709143 -348.553343457,2313.31026149 -348.567111878,2294.05835539 -348.609923588,2291.36097892 -360.71938019,2291.3470506 -360.717857702,2295.61009917 " moovel_rot="0.2" moovel_centroid="-359.747373589,2308.06734997" moovel_centroidlatlon="-118.29058287888003,34.093155891623056"></polygon></g><g transform="translate(558.296555 -1670.1761709) rotate(0)"><polygon id="402081405" class="tile" points="-465.614443728,2299.97076913 -465.571475669,2302.6755987 -464.054227319,2302.66500613 -464.039212774,2304.81564628 -465.507688338,2304.91272966 -465.302587106,2308.99236975 -464.458738788,2309.12006513 -464.488899025,2310.54965278 -465.290696706,2310.69551645 -465.271625436,2313.42723019 -464.154832953,2313.55302002 -464.147978486,2314.534834 -462.991979543,2314.52676348 -462.970195059,2323.39676458 -472.824234003,2324.04666177 -472.733401893,2330.15761661 -460.747620064,2330.12069403 -449.717123603,2330.09044071 -449.548540077,2330.08926376 -449.544558045,2299.61144305 -450.612253669,2299.61889709 -450.716095435,2291.64449938 -460.768787733,2291.44082894 -465.514086429,2291.3470506 -465.573948177,2295.42186117 -464.240405944,2295.54613778 -464.226044206,2297.60327184 -465.645700324,2297.79352504 -465.614443728,2299.97076913 " moovel_rot="-89.6" moovel_centroid="-458.14813779,2312.01172471" moovel_centroidlatlon="-118.30088895227136,34.089904354235415"></polygon></g><g transform="translate(388.3263764 -1027.8817743999998) rotate(0)"><polygon id="204763037" class="tile" points="-274.912780964,1706.53635937 -273.038366016,1709.42270528 -247.185644349,1693.10246155 -254.39572175,1681.87728118 -250.287827641,1679.23828014 -258.098975688,1667.1120591 -250.955114154,1662.41538788 -252.10860485,1660.63916797 -259.457486127,1665.27766953 -259.752917219,1664.6755838 -274.887718569,1674.15031321 -260.413988558,1697.0633404 -274.912780964,1706.53635937 " moovel_rot="33.0" moovel_centroid="-260.869132633,1683.62209865" moovel_centroidlatlon="-118.2311402887156,34.03086140730732"></polygon></g><g transform="translate(574.2779062 -745.0590681) rotate(0)"><polygon id="402081798" class="tile" points="-515.507052547,1435.75538973 -504.590012306,1435.76502033 -493.753189377,1435.78175021 -493.749811194,1402.69935276 -500.876837365,1402.91701017 -500.858092432,1406.49699592 -500.015468318,1406.45250835 -499.699960528,1423.78353865 -500.727415263,1423.78891844 -500.636775262,1424.23595433 -500.761919735,1424.86446012 -501.432444825,1425.58265195 -501.427303958,1426.56447639 -505.61809017,1426.45283428 -505.43840058,1425.51011762 -507.934792105,1425.52318881 -507.945108812,1423.55286084 -508.571213295,1423.55613914 -508.502473037,1402.95693827 -515.639399048,1402.81396743 -515.507052547,1435.75538973 " moovel_rot="-89.7" moovel_centroid="-504.800394698,1421.06240722" moovel_centroidlatlon="-118.28599216015606,34.08072943801921"></polygon></g><g transform="translate(280.7023346 -536.0859586999999) rotate(0)"><polygon id="209233130" class="tile" points="-192.772435925,1201.10999458 -172.088429728,1201.0 -172.062171393,1231.97708671 -192.746141285,1232.08710904 -192.760402492,1223.53402116 -192.772435925,1201.10999458 " moovel_rot="52.6" moovel_centroid="-182.41904615,1216.5439435502672" moovel_centroidlatlon="-118.24755427931049,34.02722531430656"></polygon></g><g transform="translate(218.14921099999998 -1761.3824130000003) rotate(0)"><polygon id="195249252" class="tile" points="-72.5494605325,2291.3470506 -85.2048318565,2291.4543442 -85.1412947048,2326.11860733 -69.3588760559,2327.17740531 -69.3397142183,2291.38541904 -72.5494605325,2291.3470506 " moovel_rot="52.2" moovel_centroid="-77.2177473787,2309.00668222" moovel_centroidlatlon="-118.24581114599823,34.050163780497876"></polygon></g><g transform="translate(547.8858657 -1069.0494445) rotate(0)"><polygon id="372656986" class="tile" points="-409.39641815,1688.54709742 -410.365833912,1681.78490729 -409.559451244,1671.09744483 -409.209391741,1666.35102055 -408.283155251,1660.63916797 -395.03907783,1662.62167987 -395.99239684,1670.46443607 -396.557409243,1680.74932069 -396.194972319,1689.23379692 -395.037965116,1695.95025718 -408.336182485,1698.22954638 -409.39641815,1688.54709742 " moovel_rot="-76.3" moovel_centroid="-402.834868859,1679.29261017" moovel_centroidlatlon="-118.36737615142151,34.26962208128617"></polygon></g><g transform="translate(306.5162952 -1027.8614704000001) rotate(0)"><polygon id="319045175" class="tile" points="-160.596206426,1699.33827575 -160.564059587,1661.74123093 -160.114003849,1660.91301392 -148.573278512,1660.63916797 -148.54916834,1661.64772255 -148.581315236,1699.34495492 -160.596206426,1699.33827575 " moovel_rot="-90" moovel_centroid="-154.562564721,1680.06930956" moovel_centroidlatlon="-118.44919900655306,34.1810666759554"></polygon></g><g transform="translate(616.7949438 -1620.0383784) rotate(0)"><polygon id="401658995" class="tile" points="-481.29261923,2295.50760766 -497.408724999,2308.07943652 -497.071936659,2308.50283749 -500.049705735,2310.82025496 -496.172619272,2315.7331078 -483.954091617,2330.92625804 -481.050062899,2331.13396685 -473.839849614,2325.43284224 -488.407488452,2307.2606633 -473.824234003,2295.88251593 -476.449431843,2292.44033647 -475.611809424,2291.79113051 -475.954788779,2291.3470506 -481.29261923,2295.50760766 " moovel_rot="-51.5" moovel_centroid="-486.063930654,2313.79865364" moovel_centroidlatlon="-118.2913093491869,34.08789444773327"></polygon></g></g></svg>