<svg><g transform="translate(0 0)"><polygon id="3" class="bin" points="-1.875,0.0 0.77665042945,1.09834957055 1.875,3.75 1.875,1203.749999 0.77665042945,1206.40164943 -1.875,1207.499999 -247.045825344,1207.499999 -249.736153058,1206.36239958 -250.794205974,1203.63980529 -250.773901265,1202.94911454 -251.7763936,1199.17980104 -256.038035676,1192.2175966 -256.589569422,1190.2848109 -256.869749749,1148.22473744 -255.804584423,1145.58162671 -253.189067181,1144.4503968 -246.892101906,1144.3341195 -242.908273907,1142.62772684 -241.245915899,1138.62532416 -240.461560492,1033.1461695 -242.081697469,1028.68441622 -255.23290731,1013.19878286 -256.11829487,1010.5543103 -255.917989994,1007.09913116 -257.441200303,1002.8644603 -261.551993237,1001.03307056 -298.184675739,1000.45003165 -300.797665063,999.330973426 -301.874999,996.700506526 -301.874999,994.684313701 -301.229280657,992.580522982 -299.800557198,991.431331772 -298.011732322,987.231149515 -297.823762654,964.673710903 -296.712569427,962.040397219 -294.068534242,960.954962153 -197.873553217,961.092421099 -195.487607812,961.953790408 -194.195870841,964.136932219 -193.843687655,965.975532628 -193.777330076,966.613857675 -193.527587788,980.556432245 -193.505833436,980.993437758 -193.138382644,985.488250167 -191.876993775,988.920728317 -190.478812615,990.86780482 -187.802792825,993.082858117 -184.915931484,994.423739798 -181.983092287,995.061208288 -135.555066186,994.746652877 -135.535349626,994.74657113 -84.0170460238,994.668406737 -82.6893841161,994.536854611 -80.2700974221,994.056484579 -76.9493432458,992.360821977 -75.8607838422,991.350347479 -73.7703125223,987.45825048 -73.1778991542,983.860539754 -73.0865900712,982.748266147 -73.0035136248,848.265485223 -73.0035759121,848.231666559 -73.5844443218,713.189092237 -75.2211802537,709.194151926 -79.175640405,707.461899777 -113.757151216,706.481900521 -114.381570181,706.411537419 -152.965428004,698.747001191 -153.658250997,698.538196702 -190.291721669,683.507432904 -190.86259075,683.213811925 -214.568869363,668.326304322 -215.205793683,667.822479788 -232.675313353,650.618536775 -232.85758405,650.42587369 -252.787324092,627.808669373 -253.278540531,627.305606492 -267.778169439,613.901827484 -267.908382638,613.775478089 -290.877002158,590.383326858 -291.981586992,589.471492747 -300.19781207,584.021758716 -301.874999,580.89670736 -301.874999,529.795770497 -300.958328669,527.339199108 -217.504211389,431.085930182 -217.226845424,430.798499104 -210.715446722,424.73330822 -208.982073614,417.540855151 -212.412378236,408.081401981 -215.368702439,404.840290419 -219.750495508,404.629230122 -241.586079966,412.438479803 -244.428646882,412.308514266 -246.361604442,410.220272714 -251.954222346,395.255546155 -255.801313371,391.324405762 -262.294616005,388.736478443 -266.384881228,387.111081159 -271.414619838,387.11218708 -277.793080963,389.650113936 -280.690729718,389.597786755 -282.685740509,387.49563586 -287.236473411,375.49706577 -290.188543657,372.321433098 -294.519156646,372.108941336 -296.883650768,372.938415271 -300.293805599,372.459046381 -301.874999,369.399834402 -301.874999,273.860611927 -300.573515498,271.020318463 -297.572456621,270.151542378 -246.451765504,277.767023271 -241.875485621,276.435564304 -239.907589891,272.094768646 -240.264773997,205.693035894 -240.332274507,191.570258192 -240.331148734,191.458723473 -239.995732287,178.026444749 -239.993966361,177.782880929 -240.815231752,99.3104190587 -240.815340138,99.2442076401 -240.612691249,71.0652088035 -240.612533512,71.0484701701 -240.465914768,58.469354824 -240.465674772,58.4521510365 -239.755867171,14.7575819417 -241.206739404,10.8378873498 -245.549510531,8.60575144071 -245.445873605,8.40411880242 -246.539870927,7.86956998602 -247.578917509,5.51338110207 -246.853349703,3.04259272306 -246.096127738,2.01726083211 -246.070721644,2.03602358853 -245.268455303,0.797018539519 -242.957091962,0.0 -1.875,0.0 " moovel_rot="0" moovel_centroid="-121.70307107648945,557.3303376698128" moovel_centroidlatlon="0,0" transform="translate(301.875 0)"></polygon><g transform="translate(-235.3502839562399 -203.72134195930323) rotate(0)"><polygon id="249389072" class="tile" points="299.107123302,1201.0 299.147345977,1402.96130446 439.221402055,1403.10066893 439.605404589,1201.7399703 299.107123302,1201.0 " moovel_rot="7.0" moovel_centroid="369.235621725,1302.1494973000567" moovel_centroidlatlon="-118.42503970905636,33.938773328638455"></polygon></g><g transform="translate(11.908981799999992 -1342.8136657) rotate(0)"><polygon id="158587750" class="tile" points="193.61429306,1985.509372 75.6690189421,2004.48032544 75.719156152,1944.01489537 79.2186175827,1886.51130853 95.9654863738,1873.08025129 101.598151842,1870.54218671 159.526764343,1867.99685856 164.665997631,1877.37944239 184.395167739,1904.6108437 193.61429306,1985.509372 " moovel_rot="74.7" moovel_centroid="130.167804102,1936.35733195" moovel_centroidlatlon="-118.33733577509076,34.11064039985563"></polygon></g><g transform="translate(208.1390682 -203.67928529999995) rotate(0)"><polygon id="378588374" class="tile" points="1.11604945995,1201.7055395 62.8494738996,1201.0 62.7399432089,1332.89872117 17.8893881045,1332.76836528 18.6533078507,1302.9543981 1.0,1302.95841122 1.14957695864,1250.154546 1.16542391218,1244.57676212 1.11604945995,1201.7055395 " moovel_rot="0.3" moovel_centroid="33.48567392528092,1263.6659095392547" moovel_centroidlatlon="-118.58237731376575,34.185498693801236"></polygon></g><g transform="translate(56.84346370000003 -994.9095871999999) rotate(0)"><polygon id="285841308" class="tile" points="148.311676166,1670.63707315 164.688332403,1671.53503466 164.771775543,1695.43963647 208.196610968,1694.02568387 210.684414561,1693.93684924 210.634847867,1550.97520843 167.717361779,1550.57064489 148.311676166,1670.63707315 " moovel_rot="-90.2" moovel_centroid="184.508556634,1624.60923974" moovel_centroidlatlon="-118.36026727069842,34.07088981485275"></polygon></g><g transform="translate(34.15299679999998 -942.8541131) rotate(0)"><polygon id="380703169" class="tile" points="158.027116835,1404.19608638 213.005346529,1403.10066893 215.251520629,1433.60389398 234.043302566,1431.63636016 234.830328346,1454.05692675 212.70907872,1456.48641789 212.008443001,1493.7220485 157.957869469,1490.36611104 158.027116835,1404.19608638 " moovel_rot="-83.4" moovel_centroid="189.21916616,1447.23775801" moovel_centroidlatlon="-118.58636516968726,34.16714292251812"></polygon></g><g transform="translate(-400.9281701 -1029.7332794) rotate(0)"><polygon id="299220256" class="tile" points="491.714810422,1412.92185579 485.969218203,1415.74580071 484.875207435,1419.30760703 492.709842313,1428.26344927 489.835199289,1430.02815332 541.863745629,1484.15800959 542.518634077,1495.57742759 535.682809276,1501.24160539 534.984262913,1550.46112092 557.432685681,1550.57064489 557.470125014,1403.10066893 502.970096222,1410.23097885 491.714810422,1412.92185579 " moovel_rot="0.3" moovel_centroid="534.849094135,1459.65446682" moovel_centroidlatlon="-118.41412064160394,33.97252988709311"></polygon></g><g transform="translate(-274.5046085 -1190.5184023) rotate(0)"><polygon id="426405586" class="tile" points="514.965927674,1639.95997579 514.308005214,1640.50644558 512.875661838,1640.48741935 512.382408588,1639.96659621 512.345600254,1639.29182572 511.965480535,1639.29414829 511.951554982,1639.94751386 511.326691313,1640.41707444 510.058279515,1640.41227501 509.536229938,1639.82225274 509.577429288,1639.29026756 509.197309532,1639.29259008 509.175916603,1639.84983532 508.517994151,1640.39630512 507.234727418,1640.37256049 506.696605028,1639.80533822 506.762866805,1639.29449174 506.542031646,1639.29428994 506.518122919,1639.76172983 505.865152076,1640.31451465 504.566116999,1640.30313372 504.058921988,1639.73205618 504.092124944,1639.29811887 503.748188691,1639.29246489 503.69860859,1639.75963868 502.884830775,1640.36712928 501.621370208,1640.36864439 501.123084732,1639.66820974 501.154460842,1639.29689019 500.805268479,1639.29535746 500.727885749,1639.83531928 500.05419509,1640.39415296 498.550701687,1640.34933336 497.978831047,1639.70659654 498.016376573,1639.29984672 495.987724271,1639.29969106 495.78784946,1639.81332821 495.595427042,1643.06427012 493.657345993,1642.95230757 493.598183494,1644.10003517 492.849673721,1644.05469207 491.518140809,1645.3332915 488.174075917,1645.35499091 488.131578818,1645.75542575 487.409061199,1646.40353256 486.207455309,1646.39733703 485.487420812,1645.72800891 485.523443949,1645.37344054 485.256217417,1645.37902127 485.232004501,1645.85689781 484.509486892,1646.50500463 483.307880884,1646.49880895 482.582590163,1645.83360192 482.600633574,1645.39115553 482.287320206,1645.39208255 482.294034862,1645.86610407 481.571517264,1646.51421091 480.375167206,1646.50389378 479.649876325,1645.83868655 479.657103074,1645.41491898 479.318118232,1645.41557977 479.295427728,1645.8412749 478.572910143,1646.48938175 477.371303883,1646.48318574 476.656220524,1645.82017204 476.662533845,1645.42771334 476.333756653,1645.43056783 476.331177121,1645.87108682 475.613915619,1646.5150724 474.412309238,1646.50887624 473.691969646,1645.84998362 473.698587373,1645.44708854 473.457032184,1645.45293532 473.418269112,1645.90143077 472.695751549,1646.54953764 471.499401116,1646.53922004 470.779061368,1645.88032722 470.780727429,1645.47111705 470.498341458,1645.46818882 470.480298276,1645.9106355 469.767988412,1646.56093614 468.561430167,1646.54842464 467.841090259,1645.88953161 467.868123267,1645.49102389 467.549553668,1645.496072 467.52625447,1645.94264004 466.803736926,1646.59074694 465.60738625,1646.58042903 464.882094564,1645.91522077 464.878504444,1645.51013174 463.599578729,1645.51357263 462.542447805,1644.25196043 461.436443825,1644.31356751 461.593700229,1639.27501535 460.382798509,1639.2353152 460.29655941,1642.01549986 458.623875836,1641.96057152 458.499884806,1646.03486035 452.313366163,1645.96026526 450.562037226,1647.72099182 444.815666206,1647.69898139 443.249205403,1645.93934117 436.81991015,1645.91233356 436.83317088,1643.16897139 436.005415232,1642.31896297 437.137216775,1641.19697166 436.004671252,1640.05567175 437.178825779,1638.89027376 436.025864574,1637.74458597 437.166270909,1636.50367351 436.003710581,1635.3349189 437.151280247,1634.20056362 436.035111003,1633.02602612 437.133164234,1631.82852018 436.015472558,1630.70616408 437.184066453,1629.55532357 437.153266045,1617.23011599 436.058727961,1616.01821811 437.135756581,1614.83719691 436.03596214,1613.62941995 437.070028872,1612.51267808 436.093335696,1611.31035352 437.159243243,1610.15844751 436.096321726,1609.09511777 436.995637972,1608.19620801 436.028847619,1607.00651298 437.209090023,1605.63238706 437.193331124,1592.43874504 436.015606198,1591.26147491 437.165610544,1590.04362785 436.011426033,1588.93967834 437.176894145,1587.71990374 435.997951037,1586.58437842 437.152602559,1585.38328272 436.003369187,1584.28564763 437.184605434,1583.05350907 436.030724534,1581.93912216 437.143022998,1580.78143305 437.229181274,1567.96673674 436.051453438,1566.7894629 437.188814443,1565.65291263 436.031197442,1564.49046247 437.179070559,1563.34566959 436.056419446,1562.21698848 437.215109066,1561.05351658 436.02747704,1559.86361146 437.222959136,1558.6712905 436.055437949,1557.49620908 437.160958003,1556.39482277 436.04447533,1555.23071015 439.526713113,1551.70486354 443.130943033,1551.74434976 444.510773486,1550.57064489 450.90916675,1550.60154015 452.2362773,1551.76366135 458.437595941,1551.6839379 458.582419778,1562.39015437 460.319095595,1562.36432596 460.341459735,1563.88664346 461.65162225,1563.86891732 461.581079389,1558.53984199 462.644429901,1558.53208297 463.707901668,1557.46366733 469.284190099,1557.5069047 470.686567406,1558.90573701 472.099070868,1557.49226185 477.65524658,1557.52067312 479.072782354,1558.92801314 480.490846413,1557.49998045 486.794924729,1557.59460969 486.816923421,1557.0164878 486.226782418,1556.9999262 486.334015793,1553.49961881 488.124854516,1553.55369152 488.164813258,1552.35982325 489.073220599,1552.38177458 490.383727959,1551.11965869 493.162423781,1551.11299049 494.548117889,1552.55549355 496.001452498,1551.15079386 501.667089401,1551.12396328 503.018425372,1552.51182319 504.40868721,1551.15657907 510.02328383,1551.11877743 511.399681575,1552.52777519 512.842808656,1551.12088197 518.378258141,1551.15533392 519.477971457,1552.18981374 520.448537381,1552.1936174 520.42598092,1557.54467863 521.425442772,1558.49460144 520.464351987,1559.57451773 520.530233228,1564.88682327 519.420493778,1564.90036791 518.445156842,1565.9404662 512.863015242,1565.92223783 511.353310361,1564.50559624 510.054613274,1565.89102037 504.474073003,1565.9939049 502.939304491,1564.55612308 501.672143973,1565.91681967 498.610455249,1565.94143481 498.564468367,1566.81370157 496.591614701,1568.42180242 496.514395764,1569.30836049 495.740516298,1569.25231143 495.756303652,1569.94357129 493.834369393,1569.98209675 493.854965795,1571.03670176 492.960805495,1571.05456957 491.639176853,1572.34580038 488.84410644,1572.38570831 487.477612306,1570.9893411 486.050253442,1572.38387046 480.510155698,1572.33266576 479.153563956,1570.94892753 477.694364344,1572.37862112 472.05005676,1572.37853096 470.723478478,1571.02224571 469.32240018,1572.3961689 463.709322977,1572.3817853 462.637105125,1571.2849503 461.686953538,1571.28553279 461.659395083,1566.59580616 458.428209086,1566.62074551 458.47604114,1574.31309432 462.082091433,1574.28995452 462.090573794,1575.23168848 464.42264549,1575.21829886 468.730934482,1579.46803395 468.751910478,1585.96789925 474.806969059,1591.95826495 474.084798344,1608.61640457 472.590023421,1610.03320109 472.575751362,1611.9309543 467.887818711,1616.64692163 466.456689177,1616.58614505 466.481134789,1619.26934985 465.071146458,1620.77262952 466.461095889,1622.06901513 466.427419423,1624.80798935 465.128417371,1626.20384916 463.896490785,1626.18063341 463.891924174,1626.33717847 461.762077682,1628.22134156 458.238002006,1628.25160602 458.286953997,1633.08768749 460.336633816,1633.07136212 460.371320496,1637.16400184 461.62983143,1637.15617423 461.58025468,1631.63734588 462.519891578,1631.64500272 463.552436769,1630.58044337 486.180342723,1630.60213459 486.218715753,1626.64596978 488.154282845,1626.66812934 488.162325121,1625.33613505 489.024947031,1625.34299247 490.31161061,1624.01799367 518.257142844,1623.96953028 519.425866376,1625.1028467 520.350646815,1625.09155639 520.424055718,1630.67325283 521.428157516,1631.63991778 520.415113595,1632.74017262 520.451951976,1638.1669829 519.3629359,1638.17448322 518.251853356,1639.29042463 514.990669931,1639.28793146 514.965927674,1639.95997579 " moovel_rot="-38.1" moovel_centroid="467.802292118,1599.5294409" moovel_centroidlatlon="-118.2533653731754,34.05767271273095"></polygon></g><g transform="translate(-346.8795894 -1580.5273309) rotate(0)"><polygon id="428955536" class="tile" points="503.480738718,1948.91744206 446.672327115,1948.67777078 446.676399979,1946.03503351 445.980255138,1946.03476946 445.98872496,1929.17099711 436.179406161,1929.13239901 436.201781005,1872.50156449 438.331015893,1872.51130034 438.332078908,1867.99685856 447.148691594,1868.03845235 447.155297549,1868.97542206 449.546481336,1868.98479323 449.550962836,1872.53339764 448.6173171,1872.52834879 448.617666331,1874.16821474 503.514169323,1874.39834619 503.507175637,1898.64156479 503.480738718,1948.91744206 " moovel_rot="62.6" moovel_centroid="470.606284827,1909.86825969" moovel_centroidlatlon="-118.20625776085174,34.05951113669316"></polygon></g><g transform="translate(-40.64435329999998 -1371.1337583) rotate(0)"><polygon id="44328030" class="tile" points="262.512794555,1769.33259646 296.854180353,1806.51754472 310.863043452,1827.4405905 314.603002811,1867.99685856 323.987243372,1867.44635935 325.6393207,1793.63781222 325.599070549,1703.47344862 322.956492994,1699.75498076 319.185052137,1695.43963647 315.619257899,1704.26972582 307.136754062,1724.99845474 298.076959592,1741.9400912 286.921519094,1751.96651307 262.512794555,1769.33259646 " moovel_rot="-35.4" moovel_centroid="307.035110112,1777.52528757" moovel_centroidlatlon="-118.47783460402819,34.12479691777119"></polygon></g><g transform="translate(231.1574326 -1163.6001752) rotate(0)"><polygon id="285608133" class="tile" points="0.00638477057219,1879.46700231 14.034872504,1879.25516048 11.3368769377,1871.39554659 22.5864201296,1867.99685856 58.208024767,1938.35271785 41.912498644,1944.2837716 45.3197395664,1970.4204342 0.0,1971.41099513 0.00638477057219,1879.46700231 " moovel_rot="33.4" moovel_centroid="22.375789243040835,1925.91050812" moovel_centroidlatlon="-118.46924472234478,34.00144486257469"></polygon></g><g transform="translate(-52.990973800000006 -550.7240873) rotate(0)"><polygon id="126713267" class="tile" points="303.68295417,1403.10066893 296.896194856,1414.17290696 290.458443868,1422.38712219 283.8436026,1428.6351722 291.080093852,1437.9732755 296.235682277,1445.20406365 300.192258008,1454.29102508 301.817807133,1463.38204266 302.910270255,1473.18832204 302.92863547,1483.71080437 302.23076166,1493.33557378 300.809381315,1501.72554227 297.960509986,1511.17746183 293.676866144,1521.34621087 283.855924795,1539.02113501 287.624388334,1543.65373138 299.258833684,1535.60717152 309.271949469,1524.71410604 318.441109713,1512.45802747 328.20912197,1495.07207331 335.701544061,1478.83781078 338.25058159,1469.80373881 338.716730022,1461.35118708 337.320720866,1449.83580571 334.790683483,1439.14107406 330.116944133,1428.62664738 322.164550053,1418.5834577 303.68295417,1403.10066893 " moovel_rot="-0.1" moovel_centroid="312.683945514,1465.74804102" moovel_centroidlatlon="-118.23833237521887,34.0727299825735"></polygon></g><g transform="translate(-23.64573200000001 -1605.8250221) rotate(0)"><polygon id="32515962" class="tile" points="248.953264956,1867.99685856 258.132360216,1912.7854064 251.208650281,1950.11163962 247.226178544,1949.37489441 245.720987333,1957.46768213 238.606906822,1956.15111047 237.908347375,1959.91425855 237.479858685,1960.47666353 236.925534837,1960.69640768 236.192803283,1960.63848568 235.189745446,1960.29401985 234.434771394,1963.979895 231.297927548,1963.37386978 230.549387132,1967.25598436 210.437627712,1963.39414393 211.145342728,1959.67684483 207.762965973,1959.03133624 216.491217348,1913.55249922 213.255718875,1897.72951704 210.744516303,1898.24492724 209.939547138,1894.33948536 208.254469297,1894.68300835 207.810467323,1892.95313642 207.917281872,1892.29835052 208.572823018,1891.92896822 207.735107154,1887.90065685 209.780062104,1887.4716009 209.838956191,1887.76633702 211.263984353,1887.47477709 208.91312264,1876.20200471 248.953264956,1867.99685856 " moovel_rot="78.7" moovel_centroid="232.570833307,1916.60519071" moovel_centroidlatlon="-118.59577630841571,34.174818469276765"></polygon></g><g transform="translate(-430.65553279999995 -1242.6726497) rotate(0)"><polygon id="317289954" class="tile" points="498.052794803,1695.46667083 536.503627656,1695.43963647 536.507748922,1702.40601362 549.857787084,1702.39607175 549.894971878,1765.14689938 498.102137649,1765.18386159 498.052794803,1695.46667083 " moovel_rot="-90.1" moovel_centroid="523.468199404,1731.13572832" moovel_centroidlatlon="-118.41262989767549,34.18788105966005"></polygon></g><g transform="translate(239.3387677 -1458.2753699) rotate(0)"><polygon id="432824395" class="tile" points="0.138476936147,1762.31103118 0.109247482941,1774.45372871 3.88796821721,1778.1405518 38.7748784211,1777.62703156 42.2041351698,1774.32682284 42.2498924643,1702.06485838 38.8481792115,1698.79280243 38.8539262824,1695.49997691 4.28143774197,1695.43963647 4.28105304949,1695.66004873 1.98264327496,1695.65603724 1.97417555451,1695.90315211 1.73308357447,1695.90273133 1.72803594433,1698.79480729 0.0805621895939,1698.79861109 0.0803523570299,1698.91883595 0.0,1698.91201653 0.0757710210979,1701.54374555 0.0770345069468,1705.42435111 0.138476936147,1762.31103118 " moovel_rot="-89.9" moovel_centroid="21.08592277685782,1736.7708943" moovel_centroidlatlon="-118.60366966829129,34.17765389761735"></polygon></g><g transform="translate(-178.85661789999997 -1374.5321442) rotate(0)"><polygon id="228444322" class="tile" points="315.498463225,1552.97207552 341.565470815,1550.57064489 356.481839085,1635.29472656 358.036443225,1657.75330145 349.252804954,1659.64574288 330.6889957,1563.8974041 329.148467276,1663.40486742 315.487850363,1661.26913377 315.498463225,1552.97207552 " moovel_rot="-7.6" moovel_centroid="332.529490855,1604.81833101" moovel_centroidlatlon="-118.53285171515427,34.04776635986477"></polygon></g><g transform="translate(-50.1241792 -1804.7236596) rotate(0)"><polygon id="316623440" class="tile" points="115.185364943,2087.78060797 114.404969058,2038.87399804 114.912321892,2004.9247388 155.121642283,2004.48032544 155.125608876,2086.89102142 115.185364943,2087.78060797 " moovel_rot="-90.5" moovel_centroid="134.912449054,2045.95712248" moovel_centroidlatlon="-118.50337322330016,34.17262648078533"></polygon></g><g transform="translate(-205.6780718 -1238.479342) rotate(0)"><polygon id="420190658" class="tile" points="421.659641458,1497.5104605 395.613937258,1497.50099023 395.840463979,1441.97080033 396.59804391,1439.89083762 392.192346799,1436.40791203 389.484756026,1439.82687514 375.924295481,1429.01562039 396.445435174,1403.10066893 406.471795489,1411.10148791 421.694232482,1411.16783461 421.659641458,1497.5104605 " moovel_rot="-89.7" moovel_centroid="405.735901033,1449.38694119" moovel_centroidlatlon="-118.28874335682396,34.09848986849473"></polygon></g><g transform="translate(87.90115010000002 -1049.6142672) rotate(0)"><polygon id="308684176" class="tile" points="145.557323676,1201.17446377 165.931095981,1201.38349517 165.922914814,1210.61427518 165.856617573,1277.6743078 165.850933116,1281.9423614 133.091053613,1281.76040591 133.851795245,1213.0888231 132.549815172,1213.07305409 128.193836446,1213.01592579 128.197456494,1211.34611801 128.221461597,1201.0 145.557323676,1201.17446377 " moovel_rot="-89.6" moovel_centroid="149.230846514,1240.815117927958" moovel_centroidlatlon="-118.45493169836567,34.18794945219688"></polygon></g><g transform="translate(-366.4414551 -877.2631837) rotate(0)"><polygon id="398072015" class="tile" points="422.694611031,1503.21329775 422.694232482,1403.10066893 431.506941672,1403.74219489 452.43571474,1423.00074992 447.028435139,1502.61436578 422.694611031,1503.21329775 " moovel_rot="-27.5" moovel_centroid="435.794366391,1454.74161478" moovel_centroidlatlon="-118.25823753455862,34.055427105589686"></polygon></g><g transform="translate(77.5370206 -561.3220079999999) rotate(0)"><polygon id="205290639" class="tile" points="189.957358327,1757.05433152 191.289845664,1736.99012915 191.557686593,1724.1406334 191.522331092,1695.65340009 158.350659764,1695.43963647 158.467973491,1722.0637851 131.407540541,1722.18258689 131.44107439,1738.76068829 158.180897038,1738.58677368 158.222990903,1756.59428176 165.778397845,1756.92772962 189.957358327,1757.05433152 " moovel_rot="-89.7" moovel_centroid="169.376296741,1726.85035432" moovel_centroidlatlon="-118.23279940797764,34.03092901457864"></polygon></g><g transform="translate(-454.0657512 -1727.5078089) rotate(0)"><polygon id="31354102" class="tile" points="539.085144736,1875.85283193 554.958213791,1875.34816892 563.949588557,1875.24162507 564.055915511,1870.26613236 567.027201037,1870.05459524 569.47833683,1867.99685856 579.616787769,1868.04994385 580.979029352,1870.04749638 584.485756118,1870.2929526 584.54754491,1872.29037516 585.695863387,1872.21623667 585.70601157,1922.404257 538.344990811,1922.15627301 538.372024081,1916.9933458 534.374417597,1916.97241419 534.572498379,1879.14211701 538.570104864,1879.16304862 539.085144736,1875.85283193 " moovel_rot="-89.7" moovel_centroid="561.268891474,1897.37650987" moovel_centroidlatlon="-118.32011410731708,34.083949449510186"></polygon></g><g transform="translate(124.527567 -1321.5616343000002) rotate(0)"><polygon id="384621953" class="tile" points="51.3010477312,1496.12216572 55.4307336655,1491.30012832 59.4419615787,1486.71731901 51.1047098458,1479.59046344 26.939437275,1457.87996907 59.4378913343,1419.20390535 39.6658580784,1403.10066893 34.3845984969,1409.3569503 0.790375619754,1448.28317774 2.99073116742,1450.12780835 0.0,1453.57284354 51.3010477312,1496.12216572 " moovel_rot="-22.3" moovel_centroid="31.34303697285069,1446.2469888" moovel_centroidlatlon="-118.41437711185444,33.98209919762663"></polygon></g><g transform="translate(258.8236633 -1390.178846) rotate(0)"><polygon id="238680410" class="tile" points="32.746795724,1551.07946677 32.3479784612,1622.41414736 0.00313625447452,1622.38754871 0.0,1550.57064489 32.746795724,1551.07946677 " moovel_rot="62.0" moovel_centroid="16.256535179692257,1586.53889432" moovel_centroidlatlon="-118.26642955482694,34.039500335724114"></polygon></g><g transform="translate(-203.7104582 -908.6593765999999) rotate(0)"><polygon id="182938617" class="tile" points="262.061238225,1201.900731 261.709148972,1283.97872647 268.739615389,1292.78461219 287.271643573,1289.95694893 287.260804737,1201.0 262.061238225,1201.900731 " moovel_rot="-27.6" moovel_centroid="274.656858738,1246.135167575155" moovel_centroidlatlon="-118.27871230847441,34.01759912590648"></polygon></g><g transform="translate(258.8322402 -1920.9894574) rotate(0)"><polygon id="157803102" class="tile" points="4.63221276216,2076.38158454 29.6026796054,2076.38158454 29.6026796054,2004.48032544 0.0,2004.48032544 0.0,2076.38158454 4.63221276216,2076.38158454 " moovel_rot="-90" moovel_centroid="14.801339802704753,2040.43095499" moovel_centroidlatlon="-118.52403615000001,34.236171250000005"></polygon></g><g transform="translate(51.127341900000005 -1181.3555486) rotate(0)"><polygon id="158467344" class="tile" points="221.342935444,1695.44631564 221.375106179,1807.04187877 237.878672267,1807.03519961 237.846501611,1707.28848307 237.846501611,1695.43963647 221.342935444,1695.44631564 " moovel_rot="-90" moovel_centroid="229.609950398,1751.24227411" moovel_centroidlatlon="-118.52812127270545,34.24293891061186"></polygon></g><g transform="translate(-161.9244449 -1612.9715761999998) rotate(0)"><polygon id="204836844" class="tile" points="350.84569073,1756.53282965 386.257117996,1759.44706605 389.940064321,1714.59351442 380.793444682,1713.84016073 381.391263007,1706.55090412 367.974957371,1705.44811921 368.174754203,1703.01170843 363.593170971,1702.63773037 364.161643032,1695.72135423 360.667208818,1695.43963647 359.860684867,1705.27849971 351.297326419,1704.57774949 350.790691225,1710.7084132 354.580517972,1711.02007868 351.488713727,1748.77144331 350.84569073,1756.53282965 " moovel_rot="-85.5" moovel_centroid="369.76203948,1731.69138196" moovel_centroidlatlon="-118.22893570164437,34.03090322592876"></polygon></g><g transform="translate(92.05444500000002 -570.3137022000001) rotate(0)"><polygon id="414913471" class="tile" points="180.48833991,1282.1027051 180.44973258,1201.0 188.619941457,1201.03193506 188.617249247,1202.28161642 203.547103037,1210.67825635 203.754462277,1232.22167408 202.012749556,1232.23289833 202.182848057,1250.01332871 203.030385612,1250.00943885 203.283398534,1276.03991425 193.277384091,1282.14577361 180.48833991,1282.1027051 " moovel_rot="26.8" moovel_centroid="191.361352964,1242.4787565264028" moovel_centroidlatlon="-118.36453497744336,34.14753287863641"></polygon></g><g transform="translate(-331.11071519999996 -1803.0042729) rotate(0)"><polygon id="240573790" class="tile" points="404.912459182,1867.99685856 417.564254829,1869.76265364 410.995020329,1918.12651865 424.276967286,1920.04176998 423.774269064,1922.52582066 435.150579272,1923.14982135 435.179406161,1945.90037777 395.054593325,1941.67794515 402.61891725,1904.13729929 401.000571413,1902.35357482 399.438769299,1901.98198903 404.912459182,1867.99685856 " moovel_rot="69.5" moovel_centroid="412.790177903,1916.09519249" moovel_centroidlatlon="-118.20487507410363,34.09761010347593"></polygon></g><g transform="translate(27.924760699999993 -1634.7864121) rotate(0)"><polygon id="188822970" class="tile" points="69.5977449477,1695.43963647 99.344583977,1695.60554957 98.0177271023,1746.32218624 100.790786401,1746.15850434 100.392329252,1750.61354966 69.5340663597,1749.39119172 69.5977449477,1695.43963647 " moovel_rot="-48.2" moovel_centroid="84.250971491,1722.71085063" moovel_centroidlatlon="-118.20700835130124,34.0612941843922"></polygon></g><g transform="translate(-228.31337569999997 -1154.3592793999999) rotate(0)"><polygon id="31374648" class="tile" points="444.918769045,1201.57440857 472.878705218,1201.0 475.736504387,1201.0 483.723886081,1208.4539531 484.293839588,1231.38354182 481.436044051,1239.41190349 481.436044051,1243.42608433 449.486449583,1243.42608433 447.198595922,1242.27726719 445.488725836,1241.13512921 444.918769045,1238.26308635 444.918769045,1201.57440857 " moovel_rot="-90.0" moovel_centroid="464.026345405,1222.4174926407939" moovel_centroidlatlon="-118.32005986102362,34.08536317464098"></polygon></g><g transform="translate(229.2322484 -1974.6371817) rotate(0)"><polygon id="385375432" class="tile" points="31.6026796054,2052.59760533 32.0362914022,2004.48032544 64.4382865086,2005.58346437 64.4959739905,2053.22918885 31.6026796054,2052.59760533 " moovel_rot="-88.9" moovel_centroid="48.115540423,2029.0317276" moovel_centroidlatlon="-118.61822789238954,34.17354868136057"></polygon></g><g transform="translate(-339.1763346 -1668.2059008) rotate(0)"><polygon id="202627768" class="tile" points="471.430989445,1752.16646842 494.084772309,1751.61007462 497.038740009,1749.55940805 497.052794803,1698.26905326 493.940045128,1695.43963647 471.464896722,1695.56365671 471.430989445,1752.16646842 " moovel_rot="-84.5" moovel_centroid="484.168004452,1723.70504272" moovel_centroidlatlon="-118.22975976205132,34.03665937383313"></polygon></g><g transform="translate(-55.91423400000002 -1175.9121043) rotate(0)"><polygon id="307093417" class="tile" points="224.803469741,1201.58372617 251.31211486,1201.0 251.586452039,1254.85759379 224.716194278,1254.90449129 224.803469741,1201.58372617 " moovel_rot="-0.1" moovel_centroid="238.127119994,1228.1465356771503" moovel_centroidlatlon="-118.33474871377143,34.02471607551018"></polygon></g><g transform="translate(194.02595509999998 -590.8447342) rotate(0)"><polygon id="420446971" class="tile" points="63.1407971896,1403.28100403 94.3473900225,1403.37761026 94.3355193589,1407.17804762 98.1412677992,1407.1378613 98.1286887486,1440.20681667 97.3980749194,1440.20967041 97.3948073383,1442.36705461 94.3841094002,1442.36464901 94.3844089549,1443.84076726 66.3486770339,1443.82755639 66.3438310992,1443.21971826 64.2724396881,1443.2222309 64.2726448592,1440.11637561 62.5786217,1440.11418491 62.59804857,1413.40392187 61.4419615787,1413.39786856 61.445904066,1406.5115711 62.3932881191,1406.50985238 62.3950670205,1403.10343858 63.14174143,1403.10066893 63.1407971896,1403.28100403 " moovel_rot="-89.7" moovel_centroid="80.0894888554,1423.48847925" moovel_centroidlatlon="-118.29426441194533,34.095104977636765"></polygon></g><g transform="translate(-167.0824609 -1415.6960357) rotate(0)"><polygon id="339831633" class="tile" points="205.231057673,1758.15852773 193.119815072,1756.02821187 192.557686593,1722.47232787 192.860391554,1695.43963647 220.342935444,1695.81605594 220.340617176,1730.52408023 205.620919214,1730.32331514 205.231057673,1758.15852773 " moovel_rot="0.5" moovel_centroid="204.628470858,1720.92715588" moovel_centroidlatlon="-118.4534042860212,34.15231164267504"></polygon></g><g transform="translate(-502.0946162 -1053.848551) rotate(0)"><polygon id="140622102" class="tile" points="553.103458188,1550.5777428 531.390742019,1550.57064489 531.335365693,1609.16761796 553.347536923,1608.89834984 553.103458188,1550.5777428 " moovel_rot="62.5" moovel_centroid="542.285826643,1579.87046591" moovel_centroidlatlon="-118.2592897700696,34.07679954681146"></polygon></g><g transform="translate(-280.2569161 -1854.019795) rotate(0)"><polygon id="340038194" class="tile" points="373.625237148,1913.10413884 373.66404014,1868.06557773 365.651254571,1868.04981671 344.693214997,1867.99685856 344.654446635,1913.03541319 373.625237148,1913.10413884 " moovel_rot="79.4" moovel_centroid="359.159156649,1890.55130375" moovel_centroidlatlon="-118.4521059382868,34.15081134718496"></polygon></g><g transform="translate(-84.06875340000002 -895.6887039) rotate(0)"><polygon id="211777832" class="tile" points="244.920786304,1589.71169344 269.886863399,1589.68811726 276.647392252,1589.68051178 276.649367106,1550.57064489 270.204379121,1550.57514122 244.922758906,1550.60180647 244.920786304,1589.71169344 " moovel_rot="-6.4" moovel_centroid="260.785185678,1570.1409456" moovel_centroidlatlon="-118.3716860979856,34.02595250255135"></polygon></g><g transform="translate(-3.0622302999999818 -1685.720499) rotate(0)"><polygon id="424953469" class="tile" points="127.167869423,1697.13621789 128.832999162,1695.43963647 130.382270795,1696.96719489 129.265441117,1698.09997074 129.208532131,1738.54709431 130.407540541,1739.84091066 128.652797418,1741.58155348 127.087523298,1739.89385104 101.790786401,1739.6769482 102.174531033,1696.84190632 127.167869423,1697.13621789 " moovel_rot="35.9" moovel_centroid="115.683200521,1718.44491663" moovel_centroidlatlon="-118.44242811302593,34.035728511998286"></polygon></g><g transform="translate(-229.72118570000004 -1203.3175473) rotate(0)"><polygon id="49417587" class="tile" points="339.770352311,1478.31576244 346.248739387,1479.68121621 349.916947597,1480.09559207 352.721864167,1476.70078823 354.885109144,1420.2966674 353.693846421,1403.24756307 346.193656732,1403.20895349 339.716730022,1403.10066893 340.653119096,1426.97996443 339.770352311,1478.31576244 " moovel_rot="-42.5" moovel_centroid="347.04899173,1440.45196198" moovel_centroidlatlon="-118.29543516751592,33.78718911211304"></polygon></g><g transform="translate(-259.2635986 -1224.4459511999999) rotate(0)"><polygon id="402079587" class="tile" points="420.885445507,1695.4568936 420.873609638,1698.41145531 423.950422922,1695.89579593 423.977910264,1695.45426222 427.931986566,1695.45313463 427.890734537,1696.12747829 428.157270331,1696.48923756 428.604395658,1696.70679437 433.934364759,1696.71609693 434.342101756,1696.54017592 434.523139695,1696.13905403 434.524358808,1695.44055423 438.59865998,1695.43963647 438.632204975,1699.18109533 442.090318874,1696.32889393 441.918676993,1718.13466361 438.058188076,1721.91748584 438.139103771,1725.30574887 438.231603082,1725.88397832 438.498152894,1726.2377073 439.526813487,1726.19935904 439.754297258,1725.97495187 439.582984163,1720.80415401 441.820740736,1720.67157126 441.911838772,1722.05267136 445.004317544,1722.04201131 444.998782511,1725.21334789 445.002663315,1734.47046565 442.424535863,1734.44990854 442.429510378,1731.59972395 442.028760821,1731.59902451 441.534040613,1731.86310865 441.399518574,1732.40079774 441.393997563,1735.56410075 441.573788371,1735.87753425 441.927321391,1736.1430987 444.752689841,1736.09985765 444.650773985,1740.91690392 441.878768745,1741.0003816 441.517940006,1741.08806757 441.336902072,1741.48918678 441.37828932,1744.5642517 424.266045044,1744.67087306 424.365466634,1741.28293453 423.958584413,1740.96910494 423.423775238,1741.24114745 420.768617806,1743.25974633 420.827895828,1716.94974456 420.754425076,1716.94961633 420.751862323,1695.45666045 420.885445507,1695.4568936 " moovel_rot="0.1" moovel_centroid="431.877159318,1720.6884148" moovel_centroidlatlon="-118.30122657383649,34.09767027352278"></polygon></g><g transform="translate(-139.45356749999996 -417.97384090000014) rotate(0)"><polygon id="418111051" class="tile" points="434.997951037,1551.13068286 413.510885183,1550.57064489 413.565396382,1598.73052546 434.238230871,1599.63022158 434.284601387,1596.59094873 434.960620236,1553.26936303 434.997951037,1551.13068286 " moovel_rot="1.0" moovel_centroid="424.091410868,1574.86136733" moovel_centroidlatlon="-118.45762796625621,34.229191269577655"></polygon></g><g transform="translate(5.140813999999978 -437.0109202) rotate(0)"><polygon id="94559984" class="tile" points="282.30790856,1486.54863231 282.8436026,1430.6699116 278.896237507,1430.65613264 278.860148955,1416.1199138 278.818765146,1403.10066893 276.399995948,1403.35710294 274.155808686,1403.34926922 274.152222406,1404.37665884 270.765736019,1404.41299719 270.797824157,1416.26835528 270.74677584,1430.89256159 270.826123786,1433.03592628 271.504920418,1456.70853372 272.492983193,1456.84040698 272.51171951,1464.86698369 270.895370353,1464.86134155 270.812036498,1477.25396534 275.198991322,1477.62244439 275.139153244,1481.37060593 273.081981587,1481.36342501 273.021527135,1485.28816493 270.870063184,1485.50539637 270.960292942,1486.44480965 282.30790856,1486.54863231 " moovel_rot="0.2" moovel_centroid="276.487832863,1446.86366901" moovel_centroidlatlon="-118.32318841114376,34.07429286944045"></polygon></g><g transform="translate(-21.147382400000026 -794.5039810000001) rotate(0)"><polygon id="390143830" class="tile" points="314.215655702,1871.59961556 316.707216927,1874.55341948 316.736823415,1918.37612601 311.0098328,1922.24579109 298.90019136,1922.19603164 298.800488755,1900.1214027 297.045629202,1900.06856744 297.657197641,1867.99685856 314.215655702,1871.59961556 " moovel_rot="35.3" moovel_centroid="307.09170667,1895.4461439" moovel_centroidlatlon="-118.43881063691238,34.051417958890525"></polygon></g><g transform="translate(-396.8375744 -1105.5911896) rotate(0)"><polygon id="384621957" class="tile" points="577.062166857,1403.10066893 558.470125014,1403.90005415 558.506892313,1453.08987422 572.5309847,1452.72136045 577.09812885,1452.60425716 577.062166857,1403.10066893 " moovel_rot="26.7" moovel_centroid="567.794142898,1428.1725964" moovel_centroidlatlon="-118.41314940122396,33.980953392380094"></polygon></g><g transform="translate(-26.36053670000001 -1764.9653772) rotate(0)"><polygon id="206918298" class="tile" points="273.139320001,1867.99685856 273.272110675,1872.06424751 278.011294598,1872.05592801 277.866905605,1877.65380331 278.490097488,1905.96093833 277.697340549,1910.78348674 259.132360216,1911.52329589 259.183152774,1869.04313516 273.139320001,1867.99685856 " moovel_rot="84.4" moovel_centroid="268.484856037,1890.34145541" moovel_centroidlatlon="-118.2375356552521,34.03515788258106"></polygon></g><g transform="translate(-50.3062282 -1203.6416625) rotate(0)"><polygon id="393127870" class="tile" points="103.30593669,1582.718556 103.29735501,1550.65707666 90.2612502247,1550.57064489 90.1868508071,1557.0117717 90.2787574433,1559.9159936 76.180235403,1559.45018808 76.0602163374,1578.94944984 76.5431797765,1579.97629884 77.2170372963,1581.03671757 78.0029906362,1581.77724229 79.1271255702,1582.44981535 103.30593669,1582.718556 " moovel_rot="-55.6" moovel_centroid="90.9224022896,1568.50858438" moovel_centroidlatlon="-118.39829590450334,34.02315596095708"></polygon></g><g transform="translate(-292.4014871 -1296.9623465) rotate(0)"><polygon id="304921671" class="tile" points="326.489143666,1867.99685856 343.654446635,1870.1189882 343.651215741,1900.73624557 334.858218694,1905.31658258 327.091308591,1904.03366876 317.736823415,1894.97266363 326.489143666,1867.99685856 " moovel_rot="-47.5" moovel_centroid="332.522032496,1886.93262249" moovel_centroidlatlon="-118.28761659971495,33.70663816547495"></polygon></g><g transform="translate(-15.907416600000005 -1545.5016564) rotate(0)"><polygon id="219013327" class="tile" points="223.416912851,1550.59368194 223.436804875,1567.70247882 222.242507162,1577.23143943 216.33829367,1577.18201538 216.342101219,1581.6158587 216.513362847,1583.42079407 217.749478384,1583.42362595 232.705758348,1583.4727549 232.70820908,1587.46985608 243.920786304,1587.50394344 243.889571638,1560.40217102 231.441107382,1559.851523 231.462972371,1556.49243859 229.633293665,1556.41467249 228.790170562,1550.57064489 223.416912851,1550.59368194 " moovel_rot="52.5" moovel_centroid="232.259127468,1571.77473755" moovel_centroidlatlon="-118.24933452005375,34.05068813160566"></polygon></g><g transform="translate(-232.0862265 -1168.8505381999998) rotate(0)"><polygon id="321032805" class="tile" points="238.922529196,1695.46099749 249.709441564,1695.43963647 249.711519494,1698.07595593 249.806200935,1716.53834051 249.77751171,1729.14915468 261.512794555,1729.16963663 261.455899953,1738.8065043 260.647721682,1738.80509376 250.962618087,1738.9730525 250.96790847,1739.76877396 249.411636303,1739.78213274 247.267584091,1739.80250315 238.878672267,1739.72356175 238.978307156,1728.55964329 238.922529196,1695.46099749 " moovel_rot="0.1" moovel_centroid="246.524474486,1720.80692469" moovel_centroidlatlon="-118.44703392206921,34.18928992003905"></polygon></g><g transform="translate(156.98401969999998 -1193.5279931) rotate(0)"><polygon id="203750120" class="tile" points="77.5688283641,1205.10510424 76.0167336177,1229.21403529 81.8815596286,1232.06519434 87.4575272117,1235.24944623 90.4184009325,1234.76283207 93.3842148554,1229.8856031 94.6632385086,1232.43975432 98.1078002561,1230.51742484 98.0886072893,1203.2110372 97.129761434,1201.69902208 92.3276811395,1203.69990659 90.1390490133,1201.0 77.5688283641,1205.10510424 " moovel_rot="-26.6" moovel_centroid="87.6336757668,1217.8679683281555" moovel_centroidlatlon="-118.24145271967404,34.047229610104125"></polygon></g><g transform="translate(-95.13768619999999 -1258.0069171) rotate(0)"><polygon id="216268809" class="tile" points="108.128734547,1550.91730659 108.342712113,1560.32160637 106.169283022,1559.8921135 106.231075137,1568.92257172 112.350916537,1569.35625267 111.54243836,1586.5134018 110.21042565,1586.22843666 109.655880985,1594.77577713 109.70849789,1604.07096754 106.101042194,1603.8177995 105.975566527,1612.79169218 115.850743508,1613.08346714 115.824029788,1622.18589491 104.30593669,1622.83534984 104.414408056,1550.57064489 105.758840828,1550.69599236 108.128734547,1550.91730659 " moovel_rot="61.0" moovel_centroid="108.009749417,1591.37075698" moovel_centroidlatlon="-118.24913323617031,34.03018143048758"></polygon></g><g transform="translate(-318.7615341 -439.5731318999999) rotate(0)"><polygon id="205295502" class="tile" points="374.905017373,1405.24686566 374.903919138,1403.10066893 355.885109144,1403.15604805 355.905488838,1433.09522037 374.924295481,1433.03982507 374.905017373,1405.24686566 " moovel_rot="-11.7" moovel_centroid="365.404611709,1418.09798116" moovel_centroidlatlon="-118.23538450145595,34.02979404972795"></polygon></g><g transform="translate(179.0393269 -737.8502465) rotate(0)"><polygon id="448951382" class="tile" points="52.5118478138,1550.65331486 68.6140208952,1550.57064489 68.6294394508,1581.40219442 52.3191724379,1581.31011402 52.5118478138,1550.65331486 " moovel_rot="-89.7" moovel_centroid="60.526198792,1566.01704611" moovel_centroidlatlon="-118.60250849315953,34.20170580357627"></polygon></g><g transform="translate(42.80033370000001 -689.5356379) rotate(0)"><polygon id="385316357" class="tile" points="235.830328346,1408.12852826 235.86060644,1430.27072595 241.95197922,1430.42012176 244.853309509,1432.75142615 244.783001072,1449.72979779 249.396288523,1449.76200514 249.464852185,1403.10066893 240.877858374,1408.13037058 235.830328346,1408.12852826 " moovel_rot="-89.6" moovel_centroid="243.816739792,1423.12534544" moovel_centroidlatlon="-118.59119029096662,34.1869910327851"></polygon></g><g transform="translate(39.53757919999998 -1348.2760924) rotate(0)"><polygon id="207189378" class="tile" points="113.404969058,2004.48032544 95.5202056888,2009.2625473 95.5908491824,2034.72336867 101.678880228,2033.3867359 113.398710505,2030.47244662 113.404969058,2004.48032544 " moovel_rot="73.5" moovel_centroid="104.506102586,2019.74752543" moovel_centroidlatlon="-118.24088117385992,34.026148282210855"></polygon></g><g transform="translate(179.8640493 -1369.9597623999998) rotate(0)"><polygon id="209232969" class="tile" points="68.5094100527,1725.52434248 56.1971121848,1725.57096526 56.2217518754,1695.48623845 68.5340663597,1695.43963647 68.5094100527,1725.52434248 " moovel_rot="-38.6" moovel_centroid="62.365584409,1710.50529228" moovel_centroidlatlon="-118.24686280000002,34.0274227"></polygon></g><g transform="translate(141.2134294 -805.5994001999999) rotate(0)"><polygon id="321030976" class="tile" points="64.140563323,1201.06952788 63.8494738996,1233.91036752 75.0167336177,1234.0986458 74.9609556586,1201.0 64.140563323,1201.06952788 " moovel_rot="0.1" moovel_centroid="69.4987331009,1217.6065879430894" moovel_centroidlatlon="-118.44722974589675,34.1893983683148"></polygon></g><g transform="translate(-70.4964995 -744.3367669999998) rotate(0)"><polygon id="206545612" class="tile" points="279.490097488,1899.89230686 279.51203049,1867.99864864 284.995994111,1867.99685856 290.536108307,1868.00213982 290.520431881,1900.14965635 284.419233284,1900.00687127 279.490097488,1899.89230686 " moovel_rot="-89.6" moovel_centroid="285.021950289,1884.01133317" moovel_centroidlatlon="-118.3285224589004,34.100761884234466"></polygon></g><g transform="translate(-86.0636034 -439.63506169999994) rotate(0)"><polygon id="402079596" class="tile" points="118.189147093,1405.91417437 118.006849834,1424.14683593 104.616223508,1423.90008672 104.579054708,1422.06930667 103.864393374,1422.06556468 103.78853738,1419.9696283 99.1723697115,1420.1220934 99.1449538294,1416.42866089 99.1412677992,1403.10066893 114.081230002,1403.39567559 114.295496914,1405.84561366 118.189147093,1405.91417437 " moovel_rot="0.3" moovel_centroid="108.787541205,1413.40885074" moovel_centroidlatlon="-118.3030003706369,34.0983903405373"></polygon></g><g transform="translate(196.55431919999998 -640.9279883999999) rotate(0)"><polygon id="214235652" class="tile" points="40.5087304145,1550.58862445 40.5106703334,1607.77133579 39.1708714392,1607.79197037 39.5790745795,1598.70852267 34.746795724,1598.46696764 35.8020115968,1566.39888057 37.9639665805,1566.54746635 38.1429113775,1559.17693368 35.7004982166,1559.06662155 36.0625509668,1550.57064489 40.5087304145,1550.58862445 " moovel_rot="61.5" moovel_centroid="38.1331936607,1577.7109546" moovel_centroidlatlon="-118.2480404063997,34.02955455352698"></polygon></g><g transform="translate(-458.40345690000004 -237.4497290999999) rotate(0)"><polygon id="315103040" class="tile" points="519.57423448,1201.0 538.272645201,1201.01124915 538.257429545,1220.27518943 519.558948281,1220.25726148 519.57423448,1201.0 " moovel_rot="-90.6" moovel_centroid="528.916354689,1210.635931945345" moovel_centroidlatlon="-118.42888552518771,34.16241069327671"></polygon></g><g transform="translate(-270.19665039999995 -1345.9502985) rotate(0)"><polygon id="347038524" class="tile" points="521.877227837,1896.86679016 530.686982808,1896.91431522 533.338595013,1896.92698044 533.374417597,1895.53659334 533.347763186,1880.1933581 533.362307964,1868.03293714 521.900898704,1867.99685856 521.935244199,1886.58720204 521.877227837,1896.86679016 " moovel_rot="0.1" moovel_centroid="527.636899914,1882.46088675" moovel_centroidlatlon="-118.45192484321295,34.186982363222135"></polygon></g><g transform="translate(-421.330424 -235.84198700000002) rotate(0)"><polygon id="47812240" class="tile" points="506.198055642,1201.1219619 518.558948281,1201.0 518.518120016,1227.9499129 506.517730916,1228.2344742 506.198055642,1201.1219619 " moovel_rot="-2.2" moovel_centroid="512.441539521,1214.5101847595315" moovel_centroidlatlon="-118.38571658668712,33.947891081122755"></polygon></g><g transform="translate(-69.1393685 -403.68923070000005) rotate(0)"><polygon id="402081387" class="tile" points="126.259328806,1582.61664219 118.752923885,1582.70450272 118.737415024,1580.32655218 116.850743508,1580.3534565 116.862780518,1556.78217714 116.898118307,1550.57064489 126.217364916,1550.68246188 126.264187514,1568.12252519 124.971809975,1568.11350255 124.964549844,1571.45311797 126.265001198,1571.45551765 126.259328806,1582.61664219 " moovel_rot="-89.6" moovel_centroid="121.547994127,1566.39610237" moovel_centroidlatlon="-118.30428094571599,34.083817999979146"></polygon></g><g transform="translate(220.193584 -1085.0294935) rotate(0)"><polygon id="402081791" class="tile" points="74.6348697655,1889.44835585 61.7843742602,1890.04482249 62.7307636574,1889.97467659 61.0826600038,1890.04890502 60.3143677719,1873.91585433 60.7757342875,1873.75271623 61.2267920166,1873.33291179 61.4495609842,1872.72143229 61.3704900615,1872.25061609 60.98055906,1871.69588012 60.309775991,1871.30506581 60.208024767,1868.2723889 74.6690189421,1867.99685856 74.6348697655,1889.44835585 " moovel_rot="-2.3" moovel_centroid="67.6461839061,1878.87172173" moovel_centroidlatlon="-118.29198699479105,34.082698546375156"></polygon></g><g transform="translate(22.794423100000003 -1405.8491385) rotate(0)"><polygon id="402080671" class="tile" points="41.5357670903,1550.57064489 51.2907235343,1550.60469625 51.3191724379,1581.55625534 45.257312429,1581.57517063 45.3320637647,1573.96113201 41.5106703334,1573.86096304 41.5357670903,1550.57064489 " moovel_rot="-89.8" moovel_centroid="46.7297761009,1564.86234771" moovel_centroidlatlon="-118.30738970150932,34.09874928697892"></polygon></g><g transform="translate(-205.83206020000003 -1744.7344971999999) rotate(0)"><polygon id="391409470" class="tile" points="379.625540612,1890.00409839 387.662884402,1890.06905018 387.733306418,1888.65724388 387.883040609,1869.07131285 387.894923467,1868.09815914 383.524287983,1868.06436455 374.66404014,1867.99685856 374.68464509,1889.91981862 379.625540612,1890.00409839 " moovel_rot="32.6" moovel_centroid="381.241772358,1879.00000816" moovel_centroidlatlon="-118.40760017801988,34.024377221894206"></polygon></g><g transform="translate(-125.5782754 -1547.9639518) rotate(0)"><polygon id="321032809" class="tile" points="398.292717636,1572.77491493 385.681926126,1572.81225587 385.621581713,1553.22234317 385.636438186,1550.57064489 398.311902257,1550.63994556 398.251753792,1561.03968571 398.292717636,1572.77491493 " moovel_rot="-90.2" moovel_centroid="391.957841547,1561.6881282" moovel_centroidlatlon="-118.4468186794397,34.18926453447742"></polygon></g><g transform="translate(-9.414989600000006 -1538.6430315000002) rotate(0)"><polygon id="376910202" class="tile" points="65.4988808256,2004.48032544 65.4959739905,2052.60523823 69.1766982961,2052.62811076 69.1799427096,2004.49273646 65.4988808256,2004.48032544 " moovel_rot="41.5" moovel_centroid="67.337940662,2028.55123593" moovel_centroidlatlon="-118.39537577779807,34.27574627887547"></polygon></g><g transform="translate(-414.5986727 -1444.9699028) rotate(0)"><polygon id="317269988" class="tile" points="504.65282588,1892.74825911 504.558822201,1893.33927038 504.514169323,1890.89489079 505.173107844,1890.88086528 505.085419504,1886.29944874 506.708350993,1886.25512853 506.614632344,1883.01707734 505.04814359,1883.06630623 504.994410045,1872.65671154 508.073671724,1872.64013144 508.049620139,1868.03666764 509.79430862,1868.02861586 515.695551825,1867.99685856 515.7283376,1892.58062374 504.65282588,1892.74825911 " moovel_rot="-91.8" moovel_centroid="510.668852159,1880.85314387" moovel_centroidlatlon="-118.41412712435319,34.18646623621948"></polygon></g><g transform="translate(-51.93861940000002 -1158.1408466) rotate(0)"><polygon id="206908051" class="tile" points="260.638834006,1201.0 252.61612988,1203.13266874 252.586452039,1232.29535445 260.709148972,1229.74972846 260.638834006,1201.0 " moovel_rot="71.7" moovel_centroid="256.628743175,1216.5769917549364" moovel_centroidlatlon="-118.2383534290409,34.02608066725251"></polygon></g><g transform="translate(-47.27833829999997 -849.3751718000001) rotate(0)"><polygon id="384745251" class="tile" points="250.487743513,1427.74682707 260.317289233,1427.66357955 260.395671872,1403.19768682 250.464852185,1403.10066893 250.487743513,1427.74682707 " moovel_rot="27.8" moovel_centroid="255.41037113,1415.40616884" moovel_centroidlatlon="-118.42298127648715,33.97742949691601"></polygon></g><g transform="translate(110.79332699999998 -1196.8298602) rotate(0)"><polygon id="204841427" class="tile" points="166.938990016,1201.0 179.44973258,1201.00265321 179.43940597,1222.39914735 171.537625686,1222.38860147 171.546569047,1210.6915735 166.931095981,1210.68335223 166.938990016,1201.0 " moovel_rot="0.6" moovel_centroid="174.187254116,1210.4741437174002" moovel_centroidlatlon="-118.22948030011426,34.03038175476888"></polygon></g><g transform="translate(109.0331294 -1344.2399679999999) rotate(0)"><polygon id="207068109" class="tile" points="69.8170277826,1583.38749199 69.6294394508,1550.64789976 75.0602163374,1550.57064489 75.0161810648,1583.56719191 69.8170277826,1583.38749199 " moovel_rot="-2.0" moovel_centroid="72.3839476056,1566.92368456" moovel_centroidlatlon="-118.23822698914397,34.03884906366425"></polygon></g><g transform="translate(-24.612511299999994 -1096.3192972000002) rotate(0)"><polygon id="402081424" class="tile" points="279.887496305,1550.63197951 287.891274824,1550.57064489 287.891881004,1550.74430223 287.546631473,1550.73214897 287.872281567,1570.42800293 277.805334077,1570.50321861 277.649367106,1551.12069521 279.880843884,1551.02607613 279.887496305,1550.63197951 " moovel_rot="-90.2" moovel_centroid="282.738231335,1560.61108699" moovel_centroidlatlon="-118.3013262544872,34.09049782432689"></polygon></g><g transform="translate(-322.3870882 -1691.4488473) rotate(0)"><polygon id="216267909" class="tile" points="470.430989445,1695.59813829 470.43042608,1713.72662461 455.751913003,1712.70189146 454.208255546,1712.59407052 454.56878359,1703.44982041 468.051960786,1704.62327698 468.094607018,1695.43963647 470.430989445,1695.59813829 " moovel_rot="62.8" moovel_centroid="463.265351833,1707.55265751" moovel_centroidlatlon="-118.24657584936546,34.0300289401943"></polygon></g><g transform="translate(-135.22863099999998 -1197.5586248000002) rotate(0)"><polygon id="402081810" class="tile" points="298.107123302,1219.99040813 288.271643573,1219.75003418 288.47434814,1208.7221287 288.576217769,1201.0 297.904232149,1201.22797176 297.525174898,1218.37826895 298.107069805,1218.35234149 298.107123302,1219.99040813 " moovel_rot="1.4" moovel_centroid="293.093046288,1210.5190166477287" moovel_centroidlatlon="-118.28718551256024,34.08334812777274"></polygon></g><g transform="translate(-218.0559626 -1079.6066541999999) rotate(0)"><polygon id="216267899" class="tile" points="261.395671872,1420.63007453 261.470626339,1403.10066893 266.587787976,1403.78081525 269.719124567,1404.20103626 269.74677584,1421.62917405 265.3572705,1421.25853659 261.395671872,1420.63007453 " moovel_rot="64.3" moovel_centroid="265.578181918,1412.44582916" moovel_centroidlatlon="-118.2475732566261,34.03066341981298"></polygon></g><g transform="translate(-87.49829100000002 -1102.9745844) rotate(0)"><polygon id="48679660" class="tile" points="215.33829367,1550.86429446 215.26035393,1580.34199337 211.723802227,1580.17637318 211.684414561,1550.57064489 215.33829367,1550.86429446 " moovel_rot="47.5" moovel_centroid="213.500546179,1565.40785507" moovel_centroidlatlon="-118.41454075007299,34.31983621459479"></polygon></g><g transform="translate(-85.4768947 -1205.3824673999998) rotate(0)"><polygon id="202467281" class="tile" points="206.71687553,1867.99685856 206.735107154,1883.27604317 199.887878152,1883.14727567 199.808930526,1880.42711857 194.61429306,1880.7663531 194.788534789,1878.2005822 198.300999742,1878.06104095 198.214141981,1868.03642623 206.71687553,1867.99685856 " moovel_rot="-85.4" moovel_centroid="202.205801701,1875.66107899" moovel_centroidlatlon="-118.23161689508005,34.036722585063536"></polygon></g><g transform="translate(-450.8898034 -920.1931421) rotate(0)"><polygon id="209231089" class="tile" points="522.462669823,1551.16786855 530.335365693,1550.57064489 530.328695892,1569.96883238 526.34829566,1569.98598354 526.346355291,1564.94889061 522.428157516,1564.96211066 522.462669823,1551.16786855 " moovel_rot="-34.6" moovel_centroid="526.709867818,1559.37269482" moovel_centroidlatlon="-118.2491027128927,34.02630854477268"></polygon></g><g transform="translate(28.41663460000001 -1547.5407224) rotate(0)"><polygon id="391416443" class="tile" points="139.265899702,1551.91327775 139.257483393,1550.57064489 147.308829925,1550.58032125 147.311676166,1551.91926825 147.24724271,1555.3202786 147.265492153,1559.61288012 147.206327221,1565.54720909 147.212311986,1567.57118989 143.998743365,1567.74314925 139.279361033,1567.7456771 139.322360194,1565.74450028 139.265899702,1551.91327775 " moovel_rot="33.5" moovel_centroid="143.265981383,1559.11506477" moovel_centroidlatlon="-118.40272704709447,34.01974605489755"></polygon></g><g transform="translate(153.3287959 -1016.5088794999999) rotate(0)"><polygon id="232932140" class="tile" points="46.9984872777,1715.47340646 55.1971121848,1701.35681129 44.2506027322,1695.43963647 44.2498924643,1715.79801871 45.1737705909,1714.29855249 46.9984872777,1715.47340646 " moovel_rot="1.6" moovel_centroid="48.0652455449,1704.97930765" moovel_centroidlatlon="-118.28404852176405,34.054968793806175"></polygon></g><g transform="translate(-329.78159489999996 -936.209918) rotate(0)"><polygon id="373838127" class="tile" points="485.446772308,1201.0 490.17210677,1202.35926791 490.202538669,1225.39493619 485.293839588,1224.97489996 485.446772308,1201.0 " moovel_rot="-48.1" moovel_centroid="487.762012377,1213.5027403433112" moovel_centroidlatlon="-118.39694957826927,34.26948389549689"></polygon></g><g transform="translate(-317.11281210000004 -1420.04572) rotate(0)"><polygon id="347038532" class="tile" points="326.6393207,1707.62039444 326.717536804,1695.46021634 337.584954001,1695.43963647 337.58621265,1707.69681941 336.450781515,1707.68889248 331.354699418,1707.65331453 326.6393207,1707.62039444 " moovel_rot="0.4" moovel_centroid="332.139189336,1701.56172677" moovel_centroidlatlon="-118.45175769167521,34.18708655780768"></polygon></g><g transform="translate(-167.30640070000004 -1385.6330285) rotate(0)"><polygon id="373798432" class="tile" points="291.536108307,1891.69356083 296.027227832,1891.68983315 296.045629202,1867.99685856 291.554507065,1868.00058578 291.536108307,1891.69356083 " moovel_rot="-80.2" moovel_centroid="293.790868095,1879.84520843" moovel_centroidlatlon="-118.39319125,34.27084575"></polygon></g><g transform="translate(-265.2950795 -1691.8863944000002) rotate(0)"><polygon id="210610709" class="tile" points="446.017680192,1695.43963647 446.004317544,1712.09723375 453.194886664,1712.13910596 453.208255546,1695.48150243 446.017680192,1695.43963647 " moovel_rot="44.9" moovel_centroid="449.606285214,1703.78936845" moovel_centroidlatlon="-118.2418658,34.02948235"></polygon></g><g transform="translate(-285.58366379999995 -1314.2144327) rotate(0)"><polygon id="206841982" class="tile" points="339.815003859,1695.43963647 338.58621265,1708.81343242 349.175747743,1712.60578197 349.790691225,1703.02235697 338.590797149,1699.34559598 339.815003859,1695.43963647 " moovel_rot="1.2" moovel_centroid="344.363816987,1706.18868549" moovel_centroidlatlon="-118.2367760401122,34.02645122086722"></polygon></g><g transform="translate(-300.3350589 -1514.3954953000002) rotate(0)"><polygon id="319058135" class="tile" points="394.054593325,1885.13785147 388.894923467,1885.08209188 388.956890948,1867.99685856 394.036237482,1868.02576124 394.054593325,1885.13785147 " moovel_rot="-89.9" moovel_centroid="391.486286307,1876.5830115" moovel_centroidlatlon="-118.44930028491572,34.184101241737665"></polygon></g><g transform="translate(-135.968692 -827.2172638000001) rotate(0)"><polygon id="207072918" class="tile" points="156.945335883,1412.5608872 156.957869469,1403.10066893 149.53132176,1403.21923374 148.502039893,1403.24104083 148.626078464,1411.39471403 148.681436201,1412.59053229 156.945335883,1412.5608872 " moovel_rot="72.2" moovel_centroid="152.771253661,1407.85628066" moovel_centroidlatlon="-118.24062506926596,34.024857084842594"></polygon></g><g transform="translate(-294.920278 -1364.8845096) rotate(0)"><polygon id="209359774" class="tile" points="367.446991104,1551.34185509 368.010819353,1559.67652368 360.698797486,1559.81634462 359.036443225,1560.11413975 359.099434087,1553.67358247 359.045268381,1550.57064489 367.446991104,1551.34185509 " moovel_rot="56.3" moovel_centroid="363.311699275,1555.42276341" moovel_centroidlatlon="-118.24375212063008,34.026731086974856"></polygon></g><g transform="translate(-429.25883610000005 -1771.8147192) rotate(0)"><polygon id="374998745" class="tile" points="516.960920392,1883.0511042 520.863247276,1882.92673007 520.877227837,1867.99685856 516.7283376,1868.03242362 516.960920392,1883.0511042 " moovel_rot="-88.0" moovel_centroid="518.854777936,1875.4256032" moovel_centroidlatlon="-118.41317071158426,34.306162991000285"></polygon></g><g transform="translate(-401.4206268 -404.62426360000006) rotate(0)"><polygon id="256123298" class="tile" points="453.43571474,1403.10308217 453.447844715,1416.91247015 457.204454391,1416.90905019 457.200293422,1403.10066893 453.43571474,1403.10308217 " moovel_rot="-82.8" moovel_centroid="455.322052391,1410.00387955" moovel_centroidlatlon="-118.47175186383181,34.125460429106326"></polygon></g><g transform="translate(-432.84330470000003 -216.5727713) rotate(0)"><polygon id="373799748" class="tile" points="443.918769045,1201.0 443.91444966,1206.92532042 440.605404589,1206.93879359 440.60972287,1201.01347225 443.918769045,1201.0 " moovel_rot="-50" moovel_centroid="442.262086498,1203.969396400865" moovel_centroidlatlon="-118.39572590000002,34.269885450000004"></polygon></g></g><g transform="translate(0 1327.7)"><polygon id="3" class="bin" points="-1.875,0.0 0.77665042945,1.09834957055 1.875,3.75 1.875,1203.749999 0.77665042945,1206.40164943 -1.875,1207.499999 -247.045825344,1207.499999 -249.736153058,1206.36239958 -250.794205974,1203.63980529 -250.773901265,1202.94911454 -251.7763936,1199.17980104 -256.038035676,1192.2175966 -256.589569422,1190.2848109 -256.869749749,1148.22473744 -255.804584423,1145.58162671 -253.189067181,1144.4503968 -246.892101906,1144.3341195 -242.908273907,1142.62772684 -241.245915899,1138.62532416 -240.461560492,1033.1461695 -242.081697469,1028.68441622 -255.23290731,1013.19878286 -256.11829487,1010.5543103 -255.917989994,1007.09913116 -257.441200303,1002.8644603 -261.551993237,1001.03307056 -298.184675739,1000.45003165 -300.797665063,999.330973426 -301.874999,996.700506526 -301.874999,994.684313701 -301.229280657,992.580522982 -299.800557198,991.431331772 -298.011732322,987.231149515 -297.823762654,964.673710903 -296.712569427,962.040397219 -294.068534242,960.954962153 -197.873553217,961.092421099 -195.487607812,961.953790408 -194.195870841,964.136932219 -193.843687655,965.975532628 -193.777330076,966.613857675 -193.527587788,980.556432245 -193.505833436,980.993437758 -193.138382644,985.488250167 -191.876993775,988.920728317 -190.478812615,990.86780482 -187.802792825,993.082858117 -184.915931484,994.423739798 -181.983092287,995.061208288 -135.555066186,994.746652877 -135.535349626,994.74657113 -84.0170460238,994.668406737 -82.6893841161,994.536854611 -80.2700974221,994.056484579 -76.9493432458,992.360821977 -75.8607838422,991.350347479 -73.7703125223,987.45825048 -73.1778991542,983.860539754 -73.0865900712,982.748266147 -73.0035136248,848.265485223 -73.0035759121,848.231666559 -73.5844443218,713.189092237 -75.2211802537,709.194151926 -79.175640405,707.461899777 -113.757151216,706.481900521 -114.381570181,706.411537419 -152.965428004,698.747001191 -153.658250997,698.538196702 -190.291721669,683.507432904 -190.86259075,683.213811925 -214.568869363,668.326304322 -215.205793683,667.822479788 -232.675313353,650.618536775 -232.85758405,650.42587369 -252.787324092,627.808669373 -253.278540531,627.305606492 -267.778169439,613.901827484 -267.908382638,613.775478089 -290.877002158,590.383326858 -291.981586992,589.471492747 -300.19781207,584.021758716 -301.874999,580.89670736 -301.874999,529.795770497 -300.958328669,527.339199108 -217.504211389,431.085930182 -217.226845424,430.798499104 -210.715446722,424.73330822 -208.982073614,417.540855151 -212.412378236,408.081401981 -215.368702439,404.840290419 -219.750495508,404.629230122 -241.586079966,412.438479803 -244.428646882,412.308514266 -246.361604442,410.220272714 -251.954222346,395.255546155 -255.801313371,391.324405762 -262.294616005,388.736478443 -266.384881228,387.111081159 -271.414619838,387.11218708 -277.793080963,389.650113936 -280.690729718,389.597786755 -282.685740509,387.49563586 -287.236473411,375.49706577 -290.188543657,372.321433098 -294.519156646,372.108941336 -296.883650768,372.938415271 -300.293805599,372.459046381 -301.874999,369.399834402 -301.874999,273.860611927 -300.573515498,271.020318463 -297.572456621,270.151542378 -246.451765504,277.767023271 -241.875485621,276.435564304 -239.907589891,272.094768646 -240.264773997,205.693035894 -240.332274507,191.570258192 -240.331148734,191.458723473 -239.995732287,178.026444749 -239.993966361,177.782880929 -240.815231752,99.3104190587 -240.815340138,99.2442076401 -240.612691249,71.0652088035 -240.612533512,71.0484701701 -240.465914768,58.469354824 -240.465674772,58.4521510365 -239.755867171,14.7575819417 -241.206739404,10.8378873498 -245.549510531,8.60575144071 -245.445873605,8.40411880242 -246.539870927,7.86956998602 -247.578917509,5.51338110207 -246.853349703,3.04259272306 -246.096127738,2.01726083211 -246.070721644,2.03602358853 -245.268455303,0.797018539519 -242.957091962,0.0 -1.875,0.0 " moovel_rot="0" moovel_centroid="-121.70307107648945,557.3303376698128" moovel_centroidlatlon="0,0" transform="translate(301.875 0)"></polygon><g transform="translate(-116.6891479 -872.5481563350103) rotate(0)"><polygon id="456841043" class="tile" points="143.436804507,1403.10066893 147.502039893,1421.64618521 141.497241457,1423.13885137 145.834758862,1445.26087918 119.189147093,1449.86484721 119.189416277,1408.18498232 143.436804507,1403.10066893 " moovel_rot="-3.5" moovel_centroid="131.932052739,1426.5039473" moovel_centroidlatlon="-118.23776521791832,34.043661915425304"></polygon></g><g transform="translate(-38.12031209999999 -1486.4483592) rotate(0)"><polygon id="229441461" class="tile" points="70.1799427096,2007.32408637 71.8894262422,2017.35033265 79.3685439587,2019.04546969 80.2096454784,2023.73984241 70.9828036211,2042.40588473 70.1856112063,2048.1479937 72.4270883217,2059.5766874 81.2186047502,2065.26323445 89.9659599058,2063.11077161 85.2395958707,2054.84827043 81.7622714698,2037.37586196 94.5202056888,2034.89453429 88.4732725341,2004.48032544 70.1799427096,2007.32408637 " moovel_rot="24.3" moovel_centroid="81.2912992497,2033.29053136" moovel_centroidlatlon="-118.449537896823,34.06064258047779"></polygon></g><g transform="translate(-155.87601850000001 -711.4800326999998) rotate(0)"><polygon id="207068986" class="tile" points="223.046889099,1201.0 213.867042232,1202.40890911 206.05263327,1213.40926753 204.754462277,1216.26922559 204.977121596,1219.81468695 206.795555715,1222.03268468 209.310738474,1225.29559063 213.258125091,1230.3880912 216.275160424,1236.3883067 217.830776991,1241.86848916 218.871701088,1248.37495724 218.770099555,1255.13051677 215.167768925,1266.334482 210.814718287,1276.6570802 210.981709948,1280.14487753 215.98749462,1279.41487854 215.583871426,1276.15559362 217.465667202,1270.16933752 223.643628974,1269.48659281 221.57876945,1254.89734768 219.810683645,1237.20811463 215.292529736,1206.7148364 223.716194278,1205.51619633 223.046889099,1201.0 " moovel_rot="46.0" moovel_centroid="215.30038944,1234.5542575807847" moovel_centroidlatlon="-118.2335580898831,34.04205193899115"></polygon></g><g transform="translate(-352.12573019999996 -1116.2083589000001) rotate(0)"><polygon id="207068134" class="tile" points="408.246388095,1695.43963647 390.940064321,1720.10176601 414.138433579,1740.20604847 419.751862323,1730.99785878 415.215317809,1728.07617345 414.063999873,1711.85447667 419.75020306,1703.30102944 408.246388095,1695.43963647 " moovel_rot="39.7" moovel_centroid="407.207920675,1717.43995588" moovel_centroidlatlon="-118.23415826059586,34.036909248194654"></polygon></g><g transform="translate(-34.093012 -658.2715853) rotate(0)"><polygon id="385340768" class="tile" points="127.172535119,1201.0435515 127.193836446,1242.95864186 105.674076919,1242.80840315 105.652946254,1229.57071747 99.1078002561,1229.48483613 99.2354190502,1223.64255528 120.933716247,1224.05123654 120.934342878,1201.0 127.172535119,1201.0435515 " moovel_rot="0.4" moovel_centroid="117.377520883,1227.8850361635705" moovel_centroidlatlon="-118.60688994112158,34.185865891151614"></polygon></g><g transform="translate(-393.06988570000004 -913.3006166999999) rotate(0)"><polygon id="399539419" class="tile" points="483.870493681,1430.83896115 472.456753807,1436.06870688 468.11734487,1434.31752237 458.204454391,1413.79381172 483.875207435,1403.10066893 483.870493681,1430.83896115 " moovel_rot="-78.8" moovel_centroid="473.608131953,1419.94185631" moovel_centroidlatlon="-118.45259440018542,34.032878566310096"></polygon></g><g transform="translate(-221.52278379999996 -961.0804074) rotate(0)"><polygon id="209234920" class="tile" points="307.06975067,1591.96653457 314.486626163,1586.48050452 314.091937374,1585.91084909 300.007461599,1565.4627132 314.487850363,1555.38809658 311.167353938,1550.57064489 288.891881004,1566.10511056 307.06975067,1591.96653457 " moovel_rot="-72.8" moovel_centroid="302.733057348,1571.52136356" moovel_centroidlatlon="-118.24629758592579,34.02656690880934"></polygon></g><g transform="translate(-327.9940502 -1088.6700298) rotate(0)"><polygon id="154643996" class="tile" points="399.311902257,1575.55879007 412.510885183,1575.72005409 412.504829536,1550.5843896 405.992757774,1550.57830202 399.352222328,1550.57064489 399.311902257,1575.55879007 " moovel_rot="-89.3" moovel_centroid="405.926403875,1563.11605865" moovel_centroidlatlon="-118.2921233124358,34.102494318593365"></polygon></g><g transform="translate(-401.6874839 -739.9533463) rotate(0)"><polygon id="234204270" class="tile" points="491.202538669,1224.93729679 491.964303177,1201.0 505.179609739,1201.1358463 505.198055642,1225.26512349 491.202538669,1224.93729679 " moovel_rot="-75.7" moovel_centroid="498.39277181,1213.1999671619606" moovel_centroidlatlon="-118.30866062468282,34.1596741650917"></polygon></g><g transform="translate(-31.482174200000017 -1039.6017688000002) rotate(0)"><polygon id="154824809" class="tile" points="138.257483393,1578.76988717 138.227549636,1566.21976091 138.111910806,1550.57064489 127.288097098,1550.64964864 127.265001198,1578.82246859 132.492246663,1578.79330778 138.257483393,1578.76988717 " moovel_rot="-90.1" moovel_centroid="132.740316749,1564.73913427" moovel_centroidlatlon="-118.28708318882168,34.10716820505873"></polygon></g><g transform="translate(-275.0073561 -958.5158888) rotate(0)"><polygon id="210612026" class="tile" points="384.591799024,1579.02524009 371.774565693,1580.6469398 369.010819353,1558.15544956 384.621581713,1550.57064489 377.090765415,1556.39572768 373.043750644,1558.77486051 374.790989459,1573.74349148 379.006665329,1573.32111858 379.365515519,1576.39272038 384.218002033,1575.84122671 384.591799024,1579.02524009 " moovel_rot="37.4" moovel_centroid="374.757493472,1569.5001629" moovel_centroidlatlon="-118.24485198538622,34.03023606631047"></polygon></g></g></svg>