<svg xmlns="http://www.w3.org/2000/svg" version="1.1" width="592.5px" height="1200px">
  <polygon id="1" class="bin" points="446.2499995,1207.499999 448.901649929,1206.40164943 449.9999995,1203.749999 449.9999995,3.75 448.901649929,1.09834957055 446.2499995,0.0 175.033750068,0.0 172.381934388,1.09851483087 171.283750097,3.75046741219 171.303222566,159.976084089 171.276926516,171.991267975 170.911167568,172.983686746 171.288168082,176.328081096 174.195702202,178.023176461 180.993491469,178.448371631 184.81981422,180.239028411 186.397026112,184.158160988 186.486252127,196.269967717 186.485593215,196.428428798 185.957166975,230.11971492 185.956794107,230.204257366 186.136418801,256.379521357 186.469102825,352.951764445 185.551065591,355.210581194 185.635304608,358.2261836 187.913350777,360.20392467 190.910900553,359.863851999 198.299814118,355.565015116 202.088609252,354.844942217 204.890143471,356.340732219 206.399641554,359.889660097 210.07549063,418.117594955 210.069084772,419.075314551 207.509819602,452.498654491 207.505625705,453.009880406 210.010361207,494.694762004 208.525184308,498.902783585 204.474394891,500.774761454 149.874075671,502.609272288 147.304196528,503.750408302 146.2500005,506.357157416 146.2500005,532.665960891 147.223794983,535.186909706 201.310546908,594.750173412 202.796919004,598.876947501 200.939118681,602.850377298 147.466152029,651.863031529 146.2500005,654.627468528 146.2500005,670.213030716 147.347741776,672.864072711 149.998279785,673.963030321 166.482865529,673.970594394 170.543104515,675.653316891 172.226424452,679.713308223 172.420111291,999.325583779 173.516288052,1001.97278779 176.161691884,1003.07330181 176.565186668,1003.07420765 180.620119501,1004.76174622 182.298803326,1008.82035279 182.310944864,1203.75023258 183.40937701,1206.40173201 186.060944857,1207.499999 446.2499995,1207.499999 " moovel_rot="0" moovel_centroid="314.31698169725126,605.5312888684766" moovel_centroidlatlon="0,0"/>
  <polygon id="359626230" class="tile" points="-5.37024562936,1301.20511544 -48.5567028694,1320.38369113 -60.9714062124,1322.00450349 -60.9747360576,1283.19682286 -60.0412690835,1251.32651951 -46.5579135796,1215.75562065 -40.8114486866,1203.34914335 -34.1781564768,1201.0 -1.0,1293.81281916 -5.37024562936,1301.20511544 " moovel_rot="-73.6" moovel_centroid="-36.24440811684695,1269.7029475475379" moovel_centroidlatlon="9.098967969161938,48.727006828795254"/>
  <polygon id="145830109" class="tile" points="-61.9757233614,1222.40272856 -61.9747360576,1201.05968276 -82.1132881876,1201.0 -82.1142555514,1222.34301351 -61.9757233614,1222.40272856 " moovel_rot="-31.7" moovel_centroid="-72.0444982461,1211.701354453175" moovel_centroidlatlon="9.163241450000001,48.8302243"/>
  <polygon id="186728712" class="tile" points="-87.3027382398,1235.87250583 -87.3154314945,1234.5692219 -83.1142555514,1233.04797028 -83.1844522443,1231.88749768 -83.4852618998,1211.12135028 -83.533737408,1207.13978351 -86.9893325692,1205.43224329 -87.9402307777,1207.36140903 -90.0169286907,1206.28783753 -89.0196013905,1204.42549118 -93.9340961142,1201.99359273 -95.9370217603,1201.0 -95.9334908796,1239.4129064 -93.9712934196,1238.5782653 -92.0090963138,1237.74362403 -90.0468995618,1236.9089826 -87.3027382398,1235.87250583 " moovel_rot="64.3" moovel_centroid="-90.0814259432,1220.505365571852" moovel_centroidlatlon="9.216537425435614,48.8276367266253"/>
  <polygon id="53161089" class="tile" points="-96.9727323491,1201.0 -102.095840068,1201.01670311 -109.699825193,1201.04573036 -109.669339482,1260.52764541 -96.9370217603,1260.49047477 -96.9727323491,1201.0 " moovel_rot="31.4" moovel_centroid="-103.319569933,1230.7675687309209" moovel_centroidlatlon="9.158040710576872,48.72202736047809"/>
  <polygon id="144217143" class="tile" points="-112.920909646,1383.64054022 -119.855290143,1382.05894921 -119.314133454,1279.57598847 -118.657049424,1265.07941402 -117.844441291,1251.83537601 -117.897532278,1237.49762201 -118.166154945,1224.77206685 -120.09678881,1203.65422361 -112.538500602,1201.0 -110.699825193,1243.38037699 -112.208664407,1264.31260275 -112.574247742,1307.31487057 -112.920909646,1383.64054022 " moovel_rot="-91.2" moovel_centroid="-115.687748628,1292.4378297829994" moovel_centroidlatlon="9.190267312898499,48.72635588055531"/>
  <polygon id="145124056" class="tile" points="-126.680574468,1220.41020085 -125.80560327,1206.65709963 -130.113667564,1206.61661951 -127.595620682,1201.0 -121.09678881,1201.46552186 -121.09678881,1220.47092086 -126.680574468,1220.41020085 " moovel_rot="0" moovel_centroid="-124.195900322,1210.1318533900762" moovel_centroidlatlon="9.156518099644407,48.84678576448045"/>
  <polygon id="25335631" class="tile" points="-147.342145593,1264.21242281 -145.857191876,1240.48128518 -147.32576871,1201.0 -135.689875915,1224.60084952 -131.113667564,1243.171021 -132.533242234,1265.69140327 -147.342145593,1264.21242281 " moovel_rot="-83.5" moovel_centroid="-140.085229179,1240.4119032284518" moovel_centroidlatlon="9.100614349342775,48.75588634957966"/>
  <polygon id="95166243" class="tile" points="-154.271190795,1235.62672283 -154.270253793,1201.0 -148.342145593,1201.00471408 -148.343152965,1235.62475812 -154.271190795,1235.62672283 " moovel_rot="-89.4" moovel_centroid="-151.306781078,1218.314014394896" moovel_centroidlatlon="9.217077525526287,48.73987014905996"/>
  <polygon id="145077933" class="tile" points="-155.271190795,1229.8844768 -168.375613136,1229.08446587 -168.375161046,1226.10381027 -173.028966185,1225.86267171 -172.231378619,1201.0 -155.310590805,1202.02651983 -155.307124874,1204.7086649 -155.271190795,1229.8844768 " moovel_rot="-24.5" moovel_centroid="-163.786531395,1215.1982637678927" moovel_centroidlatlon="9.1521813949722,48.85247014900188"/>
  <polygon id="97756634" class="tile" points="-174.028966185,1201.72549643 -205.196244168,1201.0 -205.069104377,1278.31918039 -184.669780873,1278.81041983 -178.336202314,1278.58001563 -174.807574666,1265.21098227 -174.028966185,1201.72549643 " moovel_rot="-38.0" moovel_centroid="-189.960976477,1239.4226260503647" moovel_centroidlatlon="9.138110687720996,48.75440721798969"/>
  <polygon id="102489866" class="tile" points="-206.264913668,1350.13735086 -206.196244168,1201.00729134 -211.551875319,1201.0 -211.60992866,1350.13592383 -206.264913668,1350.13735086 " moovel_rot="-85.5" moovel_centroid="-208.905747481,1275.5454764666051" moovel_centroidlatlon="9.094837042722824,48.80173974404795"/>
  <polygon id="145553085" class="tile" points="-213.824289964,1201.84885086 -212.60992866,1234.25184315 -216.925236898,1254.10233788 -223.851044317,1252.51560383 -224.818673227,1252.29728179 -229.111020036,1246.68069444 -229.104130313,1232.27789652 -229.085091517,1201.0 -220.284002862,1201.4892037 -213.824289964,1201.84885086 " moovel_rot="47.4" moovel_centroid="-221.275280651,1226.245785964818" moovel_centroidlatlon="9.147240783018706,48.837898997892935"/>
  <polygon id="27289077" class="tile" points="-263.622215046,1328.37356456 -230.23614272,1312.52768945 -270.00996339,1230.69862054 -263.138192406,1228.16568843 -255.925858999,1242.99396912 -252.109052612,1240.77018912 -245.377373434,1237.23741831 -252.726056072,1221.35370739 -230.111020036,1208.97272949 -233.750492171,1201.0 -306.540563756,1234.09969352 -263.622215046,1328.37356456 " moovel_rot="-60.9" moovel_centroid="-266.309912721,1265.8535128668705" moovel_centroidlatlon="9.08957085965443,48.779711418341186"/>
  <polygon id="95333289" class="tile" points="-326.058219878,1246.55478387 -326.091304856,1201.0 -320.801428663,1201.00701858 -317.68149848,1201.00522744 -307.575370264,1201.0103416 -307.540563756,1246.57157912 -318.485960071,1246.56062649 -326.058219878,1246.55478387 " moovel_rot="-74.7" moovel_centroid="-316.816050441,1223.7848281519027" moovel_centroidlatlon="9.171276714238479,48.748384851274906"/>
  <polygon id="391711109" class="tile" points="-327.091304856,1203.11698741 -327.335000344,1227.59121042 -332.750669105,1224.3828468 -332.750362601,1201.0 -327.091304856,1203.11698741 " moovel_rot="-18.4" moovel_centroid="-329.958152173,1213.9485064834362" moovel_centroidlatlon="9.141228439479718,48.811297220646516"/>
  <polygon id="145830559" class="tile" points="-333.835594602,1201.0 -333.750669105,1236.8336943 -333.783348395,1276.32657371 -341.299306161,1276.35064626 -346.630780517,1276.3687625 -346.596123616,1237.77895042 -346.683100005,1201.04214228 -341.95405325,1201.02933494 -333.835594602,1201.0 " moovel_rot="57.6" moovel_centroid="-340.202812127,1238.684071035528" moovel_centroidlatlon="9.161557452976052,48.83049854786778"/>
  <polygon id="24770133" class="tile" points="-347.683100005,1249.75474472 -347.724720597,1201.25806173 -354.37479732,1201.0 -354.494379386,1206.62326384 -366.1753708,1206.5726881 -366.498918768,1248.00105529 -357.386002948,1249.52808017 -347.683100005,1249.75474472 " moovel_rot="-59.2" moovel_centroid="-356.699913736,1226.9159731459554" moovel_centroidlatlon="9.257220338137397,48.79089266862666"/>
  <polygon id="7979581" class="tile" points="-370.866223925,1201.0 -391.38021989,1203.26476624 -391.405328273,1250.08732501 -367.498918768,1247.20428669 -370.866223925,1201.0 " moovel_rot="6.3" moovel_centroid="-380.275272958,1225.9835771617238" moovel_centroidlatlon="9.105760267169066,48.72228373308757"/>
  <polygon id="136082213" class="tile" points="-399.742634396,1238.84833941 -399.874801622,1229.31187986 -400.112134202,1220.93746901 -392.405328273,1213.02430158 -404.957021418,1201.0 -410.084666244,1206.34431654 -414.777465038,1206.36341187 -414.769099743,1238.75104942 -407.255868433,1238.79969611 -399.742634396,1238.84833941 " moovel_rot="-38.9" moovel_centroid="-406.229312928,1220.7633906731041" moovel_centroidlatlon="9.235008212698471,48.789511038293405"/>
  <polygon id="145797133" class="tile" points="-415.777465038,1201.0 -415.781929901,1231.6260436 -431.834111027,1231.65973242 -431.829660295,1201.03365632 -415.777465038,1201.0 " moovel_rot="23.5" moovel_centroid="-423.805792986,1216.3298558406002" moovel_centroidlatlon="9.204623850000003,48.723033850000014"/>
  <polygon id="341696697" class="tile" points="-432.834111027,1237.57458627 -432.837305675,1201.0 -434.485680509,1201.07038195 -434.640621067,1221.11645672 -435.191914101,1237.22448075 -432.834111027,1237.57458627 " moovel_rot="-62.4" moovel_centroid="-433.788198155,1220.326855103143" moovel_centroidlatlon="9.213526463665593,48.70118771168362"/>
  <polygon id="436386549" class="tile" points="-436.192961016,1209.61214636 -439.467140324,1209.60833696 -439.466094333,1201.0 -436.191914101,1201.00380924 -436.192961016,1209.61214636 " moovel_rot="-80.2" moovel_centroid="-437.829527438,1205.3060729393253" moovel_centroidlatlon="9.143213100000002,48.807680999999995"/>
  <polygon id="386185258" class="tile" points="-440.48405332,1206.91156362 -455.14946202,1201.0 -457.171746958,1215.19291784 -457.341580489,1222.2408672 -455.956940598,1229.77454881 -452.595547384,1235.47485391 -441.013175421,1240.513813 -440.467140324,1231.92548227 -443.65631595,1230.96533398 -440.48405332,1206.91156362 " moovel_rot="-86.7" moovel_centroid="-448.97646789,1220.1254884295508" moovel_centroidlatlon="9.169338809337326,48.7098965552094"/>
  <polygon id="369944841" class="tile" points="-466.113102612,1201.0 -458.372002016,1201.96976927 -458.341580489,1292.59646261 -463.284841086,1293.10699821 -466.068690751,1293.24121907 -469.204595843,1284.30565091 -466.113102612,1201.0 " moovel_rot="50.8" moovel_centroid="-463.064969599,1249.2986455260836" moovel_centroidlatlon="9.235881337811305,48.79640958880493"/>
  <polygon id="25946981" class="tile" points="-470.221992779,1315.13590711 -472.708744471,1302.07311901 -470.204595843,1210.54494864 -473.042463365,1209.52187289 -502.418523431,1201.0 -508.692173727,1204.05970805 -524.432083397,1229.37470892 -527.831286115,1296.15911984 -527.333997989,1314.6182131 -523.999173102,1342.08271905 -488.650647161,1369.69651278 -471.390229674,1371.14619997 -470.607266649,1341.86358479 -470.221992779,1315.13590711 " moovel_rot="-22.9" moovel_centroid="-497.22840578,1284.817790002779" moovel_centroidlatlon="9.09273139976072,48.821210415266215"/>
  <polygon id="246797537" class="tile" points="-542.721869917,1201.82402238 -529.636260588,1201.0 -528.831286115,1224.84040337 -542.749755522,1226.03913237 -542.721869917,1201.82402238 " moovel_rot="35.7" moovel_centroid="-535.997391335,1213.5512425004545" moovel_centroidlatlon="9.168818798357021,48.73226321457701"/>
  <polygon id="108374152" class="tile" points="-570.667298249,1256.43474739 -568.756933732,1201.53723398 -553.022971624,1201.0 -543.808738433,1211.54139645 -543.749755522,1257.36868916 -570.667298249,1256.43474739 " moovel_rot="-41.5" moovel_centroid="-557.036599079,1230.2601830218066" moovel_centroidlatlon="9.181402524562206,48.79811273627232"/>
  <polygon id="298164957" class="tile" points="-571.680449896,1201.01184199 -576.362709538,1201.0 -576.359503775,1213.32977454 -571.667298249,1213.3346878 -571.680449896,1201.01184199 " moovel_rot="-21.7" moovel_centroid="-574.017709043,1207.1712563092415" moovel_centroidlatlon="9.209939815972511,48.84220610417883"/>
  <polygon id="145423195" class="tile" points="0.0,1388.4822897 -15.0873309731,1384.77459521 -15.7711102042,1387.53400363 -31.6281327255,1383.64054022 -37.1843816388,1405.98736968 -20.646381209,1410.2168177 -13.2277850837,1443.05226069 -6.52574387547,1441.6867541 -0.0542907340452,1439.94220554 -6.24007610735,1413.58847542 0.0,1388.4822897 " moovel_rot="42.6" moovel_centroid="-15.552058258767977,1407.92923877" moovel_centroidlatlon="9.139740774113132,48.83885976234703"/>
  <polygon id="372485162" class="tile" points="-39.1843816388,1402.095438 -43.7586085703,1402.29014762 -43.7387833846,1383.69179718 -39.269005832,1383.64054022 -39.1843816388,1402.095438 " moovel_rot="-11.6" moovel_centroid="-41.4904922727,1392.96530321" moovel_centroidlatlon="9.124366608183228,48.726002196838984"/>
  <polygon id="145830493" class="tile" points="-44.7586085703,1384.21205576 -48.3389954459,1384.09328995 -62.1431589165,1383.64054022 -62.1157802623,1401.39333072 -56.917309364,1401.58971928 -56.5670342888,1407.90754931 -47.0054424958,1407.73464429 -45.4239314806,1407.70386897 -44.7586085703,1384.21205576 " moovel_rot="-9.2" moovel_centroid="-53.1195932786,1394.97420514" moovel_centroidlatlon="9.153068108050014,48.82451376093408"/>
  <polygon id="243660687" class="tile" points="-63.1431589165,1400.4735771 -63.1569927884,1383.64869207 -66.6823414147,1383.64054022 -66.6685037737,1400.46542374 -63.1431589165,1400.4735771 " moovel_rot="-68.1" moovel_centroid="-64.912749198,1392.05705678" moovel_centroidlatlon="9.197554400000003,48.8336282"/>
  <polygon id="94932307" class="tile" points="-82.6670832401,1383.64054022 -82.947421465,1416.31320117 -78.6335877131,1416.3366786 -78.816282505,1422.87036946 -75.1089459099,1424.1605422 -67.6823414147,1424.56664071 -67.6896605389,1383.73725768 -75.6427989671,1383.72630468 -82.6670832401,1383.64054022 " moovel_rot="67.3" moovel_centroid="-74.9228237699,1403.05458654" moovel_centroidlatlon="9.233920805753762,48.738443357726645"/>
  <polygon id="116346009" class="tile" points="-98.523926907,1388.17775459 -98.5997964278,1415.78168485 -98.8099089688,1440.19934607 -92.1173289889,1439.99859689 -92.0695851435,1444.78834016 -83.947421465,1444.79228509 -84.2418023213,1436.4336361 -84.5368084566,1427.87096368 -84.7507229188,1402.51051735 -84.0865424599,1391.47100203 -83.9477856981,1389.20718981 -85.7814375262,1388.95507491 -85.492869422,1383.71161692 -93.1186140103,1383.64054022 -93.4937442377,1388.29362062 -98.523926907,1388.17775459 " moovel_rot="7.7" moovel_centroid="-91.3125397951,1414.38628065" moovel_centroidlatlon="9.112622480396931,48.810823018192764"/>
  <polygon id="210464258" class="tile" points="-105.18988834,1383.64233923 -99.8262345007,1383.64054022 -99.8099089688,1407.34551196 -111.667109828,1407.34251924 -111.677276736,1383.64799229 -105.18988834,1383.64233923 " moovel_rot="-2.9" moovel_centroid="-105.74469055,1395.49477257" moovel_centroidlatlon="9.18545051791479,48.831924718985306"/>
  <polygon id="367534210" class="tile" points="-112.677276736,1385.26670947 -126.686397259,1383.64054022 -123.994597905,1391.73499905 -126.661021276,1402.43606559 -121.363169692,1403.67248799 -120.478172976,1400.48980855 -115.815717449,1401.77694442 -113.380142177,1393.43934359 -112.677276736,1385.26670947 " moovel_rot="-0.9" moovel_centroid="-119.754902523,1392.98149015" moovel_centroidlatlon="9.2250282383147,48.819776636083894"/>
  <polygon id="43126125" class="tile" points="-167.950344848,1664.00405633 -131.42215321,1662.82817489 -128.10095036,1600.88864009 -127.686397259,1590.55826026 -133.889807653,1587.72835891 -133.497747874,1545.23890383 -133.153210602,1502.90111426 -135.505245074,1466.12350176 -140.792900502,1383.64054022 -183.344950993,1383.84006766 -186.916463683,1470.61738804 -186.893256383,1628.73900208 -186.87903813,1632.61081812 -177.879876631,1632.35392262 -167.740280775,1632.05612786 -167.950344848,1664.00405633 " moovel_rot="50.2" moovel_centroid="-159.310523987,1524.57690098" moovel_centroidlatlon="9.13609942051069,48.842950071984426"/>
  <polygon id="24691914" class="tile" points="-187.916463683,1391.05250039 -187.918660956,1383.68859176 -194.220935835,1383.64054022 -194.630090814,1390.76655365 -187.916463683,1391.05250039 " moovel_rot="-33.7" moovel_centroid="-191.155620741,1387.3262362" moovel_centroidlatlon="9.084652101187132,48.78562858980257"/>
  <polygon id="429859467" class="tile" points="-195.641404766,1425.15157424 -207.503678695,1425.15063484 -207.508561439,1422.72254235 -207.492364744,1383.64054022 -195.630090814,1383.64147928 -195.633547065,1386.54506318 -195.641404766,1425.15157424 " moovel_rot="-0.2" moovel_centroid="-201.56893775,1404.39815281" moovel_centroidlatlon="9.145943430627442,48.831706929215045"/>
  <polygon id="437976862" class="tile" points="-220.346339346,1383.64054022 -208.508561439,1387.04992174 -210.309791117,1392.98872144 -211.145015022,1399.59047873 -211.118445648,1421.79290024 -220.342383014,1425.86065003 -220.346339346,1383.64054022 " moovel_rot="72.1" moovel_centroid="-215.663583803,1403.88706727" moovel_centroidlatlon="9.158066407622384,48.83295884737737"/>
  <polygon id="386187537" class="tile" points="-241.408952918,1383.66917119 -229.597505141,1383.73246416 -221.778150843,1383.64054022 -221.346339346,1396.45782893 -234.564183858,1396.8614417 -233.516472626,1419.4699543 -241.407133944,1420.08960801 -241.408952918,1383.66917119 " moovel_rot="25.8" moovel_centroid="-233.986308631,1397.49064181" moovel_centroidlatlon="9.166199410610414,48.71128669491743"/>
  <polygon id="63220290" class="tile" points="-242.41585971,1383.96817637 -242.408952918,1391.5967429 -247.990410067,1391.34090087 -247.971789963,1383.64054022 -242.41585971,1383.96817637 " moovel_rot="-94.2" moovel_centroid="-245.201183087,1387.63927954" moovel_centroidlatlon="9.083088529985414,48.74716685820662"/>
  <polygon id="425969600" class="tile" points="-248.990410067,1413.05211667 -249.015823606,1386.55303342 -254.387517236,1383.71789602 -270.123716018,1383.64054022 -271.312529164,1412.50161538 -248.990410067,1413.05211667 " moovel_rot="-75.1" moovel_centroid="-259.946459532,1398.5373257" moovel_centroidlatlon="9.156539285604838,48.83707144539201"/>
  <polygon id="261364176" class="tile" points="-277.003132533,1398.65242078 -276.997516573,1383.65368634 -272.312529164,1383.64054022 -272.318148306,1398.6392694 -277.003132533,1398.65242078 " moovel_rot="31.2" moovel_centroid="-274.657831781,1391.14647834" moovel_centroidlatlon="9.25240375,48.785276499999995"/>
  <polygon id="391710591" class="tile" points="-281.255993327,1455.266704 -293.744020187,1454.6302032 -293.721182265,1425.0446422 -288.585274169,1425.19390679 -290.327759774,1416.2064227 -294.605207647,1415.9181179 -297.016425143,1384.64956196 -278.003132533,1383.64054022 -278.008070799,1395.18449115 -282.485361454,1394.23163438 -282.737113997,1404.82092791 -278.683349705,1404.3605814 -278.253065101,1416.12498857 -283.728234776,1416.91704564 -284.031780929,1433.82760011 -279.427841157,1434.36073792 -281.255993327,1455.266704 " moovel_rot="-80.8" moovel_centroid="-287.431717399,1416.91539943" moovel_centroidlatlon="9.141622889254519,48.80819974969596"/>
  <polygon id="298164959" class="tile" points="-325.50321064,1383.64054022 -306.893385899,1386.20366123 -300.513575126,1415.57320766 -298.016425143,1422.95448609 -303.190139864,1424.06963882 -326.127668439,1429.00129299 -326.129897192,1419.60665772 -325.424939616,1387.4070683 -325.50321064,1383.64054022 " moovel_rot="18.2" moovel_centroid="-314.533550156,1407.00718821" moovel_centroidlatlon="9.218024147947252,48.84399638630091"/>
  <polygon id="58685030" class="tile" points="-327.129897192,1416.62834359 -327.139084533,1400.08780736 -327.154957205,1383.64054022 -335.54966477,1383.64816401 -342.62807084,1383.65639317 -342.603018098,1416.64419603 -327.129897192,1416.62834359 " moovel_rot="-94.1" moovel_centroid="-334.878144707,1400.14212276" moovel_centroidlatlon="9.079700904584147,48.746671408132414"/>
  <polygon id="156604376" class="tile" points="-343.632687779,1399.70057537 -343.63293743,1391.23862358 -343.62807084,1383.64054022 -353.608603448,1383.7754076 -356.984861508,1385.65034732 -357.707976793,1391.60461952 -357.846112316,1394.97597562 -357.737161061,1401.00400589 -343.632687779,1399.70057537 " moovel_rot="-54.7" moovel_centroid="-350.600103092,1392.24784138" moovel_centroidlatlon="9.152843045600807,48.76023344238169"/>
  <polygon id="368062769" class="tile" points="-358.86922908,1383.64054022 -405.543584834,1383.73352557 -405.494455746,1475.55892742 -367.569056372,1475.48335647 -363.36503536,1453.88990204 -358.846112316,1408.34771029 -358.86922908,1383.64054022 " moovel_rot="80.8" moovel_centroid="-383.444708973,1428.08047149" moovel_centroidlatlon="9.227065719502102,48.79510488357114"/>
  <polygon id="282487015" class="tile" points="-425.442246119,1407.11497181 -425.40298546,1383.94814026 -418.595164425,1383.64054022 -418.232112194,1388.70132429 -411.626702073,1388.70301342 -411.580117855,1392.34372917 -406.804857453,1391.94135886 -406.543584834,1406.47405081 -425.442246119,1407.11497181 " moovel_rot="29.1" moovel_centroid="-416.988947347,1397.00807837" moovel_centroidlatlon="9.251300821422069,48.78090850162506"/>
  <polygon id="171422872" class="tile" points="-469.010175525,1383.73744798 -429.599983666,1383.64054022 -428.645742884,1391.87090517 -426.442246119,1444.27871176 -458.100922473,1448.16887911 -465.958978546,1454.99759301 -471.245887196,1456.43279593 -468.172621152,1440.1256713 -471.261869905,1403.62128535 -469.010175525,1383.73744798 " moovel_rot="48.3" moovel_centroid="-449.360808696,1416.15454541" moovel_centroidlatlon="9.187067274992076,48.7993190987247"/>
  <polygon id="94932357" class="tile" points="-478.283145236,1400.4196646 -472.268792461,1397.4727394 -472.261869905,1383.64054022 -483.363750073,1389.74756359 -478.283145236,1400.4196646 " moovel_rot="47.6" moovel_centroid="-476.64762124,1392.1897129" moovel_centroidlatlon="9.233254797267652,48.74628388875003"/>
  <polygon id="383386637" class="tile" points="-484.422191878,1384.2450801 -484.363750073,1420.87931024 -490.721089763,1420.63099316 -507.238357997,1420.14079042 -514.04902685,1419.88882548 -513.616777182,1383.64054022 -484.422191878,1384.2450801 " moovel_rot="38.2" moovel_centroid="-499.091355225,1402.21269877" moovel_centroidlatlon="9.209738052146381,48.818096185232854"/>
  <polygon id="24815989" class="tile" points="-515.099812032,1383.64054022 -521.951252357,1383.66117045 -530.601977224,1383.70232449 -530.791410061,1418.83168034 -524.753282187,1419.11412662 -524.601119223,1423.00218084 -515.04902685,1423.02778191 -515.099812032,1383.64054022 " moovel_rot="45.2" moovel_centroid="-522.684020039,1402.65853125" moovel_centroidlatlon="9.111833451650137,48.73806608599884"/>
  <polygon id="137985973" class="tile" points="-532.552050042,1426.2247996 -532.091998592,1400.72408386 -531.791410061,1383.94104355 -547.356697866,1383.64054022 -547.353154828,1423.92141681 -532.552050042,1426.2247996 " moovel_rot="-80.9" moovel_centroid="-539.698098643,1404.26849969" moovel_centroidlatlon="9.130490311840047,48.78140524305587"/>
  <polygon id="92476831" class="tile" points="0.0,1669.39688081 -0.0161814099178,1711.62459019 -4.49634690229,1731.29776377 -9.43396401387,1734.22557714 -16.6327628285,1733.65901939 -30.7985020839,1734.09181059 -31.047372555,1711.47372187 -40.0456505695,1711.21443016 -42.6475244522,1707.66644668 -43.4997446498,1700.06207489 -47.2643769862,1700.07398374 -48.2331917072,1687.76386 -26.50807606,1683.4438232 -17.1825629616,1677.61193068 -8.49093988705,1669.26461517 -3.65379025787,1664.00405633 0.0,1669.39688081 " moovel_rot="-94.5" moovel_centroid="-18.95576834572107,1702.34040721" moovel_centroidlatlon="9.183909725543813,48.81472430456821"/>
  <polygon id="269306144" class="tile" points="-50.2630466529,1664.00405633 -50.2331917072,1689.63405794 -62.2247365782,1689.12370778 -61.9271716679,1676.40866004 -56.5893850732,1675.42983519 -56.2916796809,1664.53550798 -50.2630466529,1664.00405633 " moovel_rot="5.9" moovel_centroid="-55.2395268986,1678.77419904" moovel_centroidlatlon="9.20324494408925,48.836709249906704"/>
  <polygon id="428764395" class="tile" points="-78.3603760342,1688.6996314 -78.4024714221,1664.00405633 -63.2247365782,1664.27404057 -63.2785453131,1688.18245435 -78.3603760342,1688.6996314 " moovel_rot="-46.2" moovel_centroid="-70.8574087908,1676.27751715" moovel_centroidlatlon="9.240994583950975,48.84722826912404"/>
  <polygon id="26715794" class="tile" points="-79.4055493447,1693.5319118 -79.4024714221,1664.00959428 -96.7140830165,1664.01245972 -107.248429579,1664.00405633 -107.251543309,1693.53305293 -79.4055493447,1693.5319118 " moovel_rot="-90.3" moovel_centroid="-93.3274028814,1678.77123395" moovel_centroidlatlon="9.104230701312067,48.74784669607732"/>
  <polygon id="24642146" class="tile" points="-130.396535177,1690.10570246 -108.251543309,1690.1518725 -108.267929911,1664.0501825 -130.41295115,1664.00405633 -130.396535177,1690.10570246 " moovel_rot="-33.8" moovel_centroid="-119.332236782,1677.07795057" moovel_centroidlatlon="9.08463715,48.7859257"/>
  <polygon id="270250700" class="tile" points="-174.831961704,1664.11987617 -164.501003098,1664.08221503 -141.570029265,1664.00405633 -141.557382849,1697.58733029 -137.52049211,1697.57089052 -137.517667266,1710.74275095 -131.430193997,1710.72066185 -131.41295115,1738.32636132 -135.571017083,1738.33939473 -174.801881918,1738.46912088 -174.822893728,1688.97816891 -174.831961704,1664.11987617 " moovel_rot="47.0" moovel_centroid="-155.671263897,1703.61425024" moovel_centroidlatlon="9.23674110822895,48.783465359198864"/>
  <polygon id="149385955" class="tile" points="-175.831961704,1699.27531248 -182.351431284,1698.97936502 -181.907169679,1664.00405633 -175.845476377,1664.19455272 -175.831961704,1699.27531248 " moovel_rot="-1.8" moovel_centroid="-178.984004452,1681.82604349" moovel_centroidlatlon="9.127254674881774,48.813986172665224"/>
  <polygon id="436386722" class="tile" points="-187.517157369,1674.1043681 -187.512880395,1664.00405633 -183.351431284,1664.01436106 -183.355710589,1674.11467358 -187.517157369,1674.1043681 " moovel_rot="-72.0" moovel_centroid="-185.434294883,1669.0593643" moovel_centroidlatlon="9.081371800000001,48.8173067"/>
  <polygon id="385198339" class="tile" points="-201.677045185,1685.01428736 -201.670501629,1664.00405633 -196.353801705,1664.02533624 -196.355579889,1670.33125732 -195.073122547,1670.31933244 -188.517157369,1670.3557113 -188.527477788,1685.04787271 -195.084320197,1685.03391381 -201.677045185,1685.01428736 " moovel_rot="-65.5" moovel_centroid="-195.677187,1676.12710698" moovel_centroidlatlon="9.15689422612919,48.76212991991891"/>
  <polygon id="344549132" class="tile" points="-257.568841647,1783.52905829 -228.428099437,1778.98361992 -231.432823897,1758.89270551 -232.60410035,1751.04330981 -240.587950314,1752.37843442 -242.950252473,1739.14102511 -244.050712244,1681.64246531 -202.677045185,1676.84871504 -203.217290682,1672.45576277 -203.74971743,1664.00405633 -220.817776666,1665.23829043 -257.557056595,1666.65107222 -256.903177905,1734.92786641 -257.568841647,1783.52905829 " moovel_rot="-9.2" moovel_centroid="-242.524963894,1719.31733826" moovel_centroidlatlon="9.128123066993354,48.723619113179325"/>
  <polygon id="91215630" class="tile" points="-258.568841647,1664.03476909 -269.273672316,1664.00405633 -269.304006985,1706.50248663 -258.6085508,1706.53706327 -258.568841647,1664.03476909 " moovel_rot="-67.6" moovel_centroid="-263.938683715,1685.26649223" moovel_centroidlatlon="9.26083844231942,48.78635833742456"/>
  <polygon id="383719791" class="tile" points="-270.334547214,1664.00405633 -298.647579987,1664.11126042 -298.609018951,1711.97425362 -278.099487235,1711.89817622 -278.107421029,1707.36639075 -270.304006985,1707.33516776 -270.310515604,1701.47993828 -270.324783792,1683.28246439 -270.327371645,1671.34444627 -270.334547214,1664.00405633 " moovel_rot="42.1" moovel_centroid="-284.748809307,1687.40915759" moovel_centroidlatlon="9.212597655784286,48.81485994116831"/>
  <polygon id="123856217" class="tile" points="-304.556123876,1690.51202617 -304.558670407,1664.01273594 -299.650125104,1664.00405633 -299.647579987,1690.5033408 -304.556123876,1690.51202617 " moovel_rot="13.8" moovel_centroid="-302.103124933,1677.25803917" moovel_centroidlatlon="9.210854700000002,48.787554650000004"/>
  <polygon id="376282222" class="tile" points="-305.820928638,1698.34251797 -305.558670407,1677.5725267 -309.852681792,1677.78987591 -309.962142048,1669.82570153 -311.940961567,1667.49580376 -315.428641146,1664.03848881 -319.417859606,1664.00405633 -319.428187779,1679.98394647 -319.372683762,1698.08919914 -312.813621966,1698.29657064 -305.820928638,1698.34251797 " moovel_rot="-85.5" moovel_centroid="-313.262644896,1683.19904939" moovel_centroidlatlon="9.187847369568663,48.80985448695613"/>
  <polygon id="142728110" class="tile" points="-320.428187779,1664.01262634 -320.430638716,1705.83449209 -350.36837594,1705.82591264 -350.365925366,1664.00405633 -320.428187779,1664.01262634 " moovel_rot="-2.2" moovel_centroid="-335.398281387,1684.91927181" moovel_centroidlatlon="9.206485650000001,48.720669050000005"/>
  <polygon id="231552740" class="tile" points="-351.36837594,1671.54986518 -351.586650268,1664.29161965 -356.305417797,1664.00405633 -356.309589775,1671.7287573 -351.36837594,1671.54986518 " moovel_rot="-70.8" moovel_centroid="-353.917285264,1667.92290921" moovel_centroidlatlon="9.086605832226098,48.731079072701654"/>
  <polygon id="15245291" class="tile" points="-357.309589775,1703.66899556 -357.31329426,1670.17399033 -357.321490689,1664.57088337 -381.714598411,1664.00405633 -383.108431866,1678.90092838 -365.953808258,1679.33415931 -364.241286433,1703.9652436 -360.497568751,1703.75356476 -357.309589775,1703.66899556 " moovel_rot="23.1" moovel_centroid="-366.964140908,1678.32194845" moovel_centroidlatlon="9.231330867971074,48.806768827127776"/>
  <polygon id="26172928" class="tile" points="-457.891103063,1665.37421437 -397.851670875,1665.50337021 -397.852582127,1664.00405633 -389.414823625,1664.02748085 -389.408035184,1668.9768832 -384.132532027,1668.98500021 -384.108431866,1701.48628451 -389.651915885,1701.47446566 -389.623601351,1736.29717456 -398.782485978,1736.27586591 -398.780429189,1747.33114178 -406.218450497,1747.31739429 -457.830420526,1747.20314305 -457.891103063,1665.37421437 " moovel_rot="-37.9" moovel_centroid="-423.038491785,1704.96048868" moovel_centroidlatlon="9.233760771457595,48.78239176368796"/>
  <polygon id="197351766" class="tile" points="-465.232369815,1743.40995948 -460.120194377,1744.66396774 -460.122258253,1727.57827464 -459.795510738,1722.98449241 -459.233944909,1678.77422883 -459.058974172,1672.26273415 -458.891103063,1665.94143444 -463.728245924,1665.1403567 -469.136788753,1664.00405633 -473.689182068,1665.22218939 -472.240853054,1724.96721532 -473.616694671,1724.85912821 -473.22490176,1741.99953464 -472.802064588,1747.64534792 -464.60869194,1749.03232234 -464.905019519,1746.37169954 -465.232369815,1743.40995948 " moovel_rot="-33.9" moovel_centroid="-466.423129396,1704.97758096" moovel_centroidlatlon="9.173176127088407,48.818605822050486"/>
  <polygon id="363474161" class="tile" points="-474.689182068,1700.66534328 -474.707723215,1664.01689404 -489.894591771,1664.00405633 -489.87603263,1700.6525025 -474.689182068,1700.66534328 " moovel_rot="-80.3" moovel_centroid="-482.291882316,1682.33469542" moovel_centroidlatlon="9.2097871,48.71221445"/>
  <polygon id="166020352" class="tile" points="-492.984977821,1668.85525478 -492.985755125,1664.00405633 -490.894591771,1664.01566756 -490.898353303,1668.86196598 -492.984977821,1668.85525478 " moovel_rot="-47.2" moovel_centroid="-491.941094435,1666.43335714" moovel_centroidlatlon="9.202970986434549,48.792490454637246"/>
  <polygon id="234155419" class="tile" points="-495.136831231,1732.65477066 -513.327344794,1732.87015184 -523.159897179,1732.28526051 -523.131775389,1664.00405633 -515.749289163,1665.61326514 -501.009785332,1666.05309959 -501.042469073,1673.18640638 -494.253581289,1672.92440887 -493.985755125,1681.77478932 -495.136831231,1732.65477066 " moovel_rot="-90.1" moovel_centroid="-509.139916768,1699.69871147" moovel_centroidlatlon="9.147296048886709,48.83116021813281"/>
  <polygon id="429291706" class="tile" points="-524.159897179,1681.52346055 -524.160971863,1668.34454124 -524.16072362,1664.00405633 -534.542559927,1664.01075659 -534.536528197,1681.49742412 -529.55468804,1681.48559417 -524.159897179,1681.52346055 " moovel_rot="-32.8" moovel_centroid="-529.348375013,1672.75214548" moovel_centroidlatlon="9.227815335439596,48.782171139689765"/>
  <polygon id="26120013" class="tile" points="-547.324329333,1664.00405633 -548.507186219,1691.72859376 -535.542559927,1698.86818728 -535.551340485,1666.86165849 -547.324329333,1664.00405633 " moovel_rot="59.4" moovel_centroid="-541.606232023,1680.67290091" moovel_centroidlatlon="9.121454031356219,48.80630611302352"/>
  <polygon id="339418264" class="tile" points="-550.991581366,1703.78151012 -570.345251754,1699.93844084 -570.381365462,1664.00405633 -549.507186219,1664.59363412 -550.991581366,1703.78151012 " moovel_rot="-54.7" moovel_centroid="-560.149642309,1682.86981937" moovel_centroidlatlon="9.1264478551974,48.74853704031329"/>
  <polygon id="114730873" class="tile" points="-571.894497531,1664.00405633 -585.52957785,1665.27118245 -585.555593603,1694.93478011 -571.381365462,1694.75449521 -571.894497531,1664.00405633 " moovel_rot="26.7" moovel_centroid="-578.546735752,1679.8348823" moovel_centroidlatlon="9.163272773559493,48.79873937811648"/>
  <polygon id="100624548" class="tile" points="-14.4811562268,1790.2575777 -14.5254029358,1835.4448418 -0.377342122234,1835.91006458 0.0,1822.69556956 -6.70355071351,1815.75549011 -0.947597298212,1808.69835437 -0.857424517348,1783.61542773 -5.17783200201,1783.52905829 -5.13570718132,1789.9467907 -14.4811562268,1790.2575777 " moovel_rot="84.6" moovel_centroid="-7.663716480882411,1811.81569981" moovel_centroidlatlon="9.171763328451386,48.709319845483336"/>
  <polygon id="43125655" class="tile" points="-43.6046489668,1833.53644455 -16.6028901735,1834.80618397 -16.5254029358,1783.72340654 -43.6821037256,1783.52905829 -43.3900071206,1795.58665817 -43.6046489668,1833.53644455 " moovel_rot="-2.2" moovel_centroid="-29.9877776712,1808.89936128" moovel_centroidlatlon="9.100338739437198,48.74077136326902"/>
  <polygon id="298112445" class="tile" points="-59.5567921978,1786.30970975 -58.4573146488,1792.09761098 -60.6420186005,1792.69185465 -59.8349700482,1796.95270098 -62.1000433023,1800.34954042 -58.6114070951,1803.10738164 -57.4212946289,1810.2871242 -45.45452926,1807.26248248 -44.6821037256,1807.59017832 -46.8352405784,1794.46549228 -47.4633228111,1790.65139727 -48.0236458191,1785.74648814 -44.6937526823,1784.86809005 -45.0329200988,1783.52905829 -49.2162962562,1784.33352855 -59.5567921978,1786.30970975 " moovel_rot="54.6" moovel_centroid="-52.9183828234,1797.18800697" moovel_centroidlatlon="9.232398384499348,48.83060732411637"/>
  <polygon id="389708877" class="tile" points="-63.1000433023,2017.5009477 -77.4697758974,2017.18377719 -77.2802640959,1784.43289751 -63.3115720858,1783.52905829 -63.1000433023,2017.5009477 " moovel_rot="50.9" moovel_centroid="-70.2841677861,1901.21187694" moovel_centroidlatlon="9.233843887714562,48.78970599214824"/>
  <polygon id="124383952" class="tile" points="-83.0601662034,1783.61683712 -83.0668364719,1820.77774401 -78.4697758974,1820.83135672 -78.5184561366,1783.52905829 -83.0601662034,1783.61683712 " moovel_rot="23.9" moovel_centroid="-80.7773393249,1802.22627263" moovel_centroidlatlon="9.082684432514991,48.815477729877315"/>
  <polygon id="149673932" class="tile" points="-84.0831297557,1810.60418582 -84.0668364719,1783.54052256 -88.6867403529,1783.52905829 -88.7128402107,1810.59516661 -84.0831297557,1810.60418582 " moovel_rot="-76.0" moovel_centroid="-86.387425569,1797.07201473" moovel_centroidlatlon="9.112904330640246,48.81039846318176"/>
  <polygon id="42712909" class="tile" points="-90.8089637351,1783.52905829 -101.510812713,1792.55507747 -92.0797285366,1804.10304364 -89.7228126298,1798.38966099 -89.7128402107,1788.12623682 -90.8089637351,1783.52905829 " moovel_rot="31.1" moovel_centroid="-93.9756519879,1793.55650002" moovel_centroidlatlon="9.127423144028324,48.72574085280279"/>
  <polygon id="91615119" class="tile" points="-102.510812713,1869.74020012 -102.538882824,1783.53179243 -117.159348642,1783.52905829 -117.121224613,1869.7363027 -102.510812713,1869.74020012 " moovel_rot="-83.4" moovel_centroid="-109.832552628,1826.62939633" moovel_centroidlatlon="9.153418073270524,48.71135023075536"/>
  <polygon id="138366160" class="tile" points="-118.159348642,1808.85862397 -118.17021289,1783.9313816 -136.671936391,1783.52905829 -137.1272476,1808.62413415 -118.159348642,1808.85862397 " moovel_rot="-70.2" moovel_centroid="-127.543614954,1796.28730178" moovel_centroidlatlon="9.234194282418144,48.80820719612451"/>
  <polygon id="371275495" class="tile" points="-146.65151715,1783.52905829 -154.994230128,1783.81575335 -162.202538025,1783.83237649 -162.214756144,1811.97570045 -151.101073721,1812.30760679 -144.606522109,1812.59325474 -139.439320327,1809.69528806 -138.1272476,1806.60965645 -138.344493075,1803.18300672 -140.603530134,1796.29215974 -146.65151715,1783.52905829 " moovel_rot="-8.5" moovel_centroid="-151.540683917,1798.79111907" moovel_centroidlatlon="9.20792642136304,48.803098267998955"/>
  <polygon id="447071901" class="tile" points="-168.240627198,1809.73734525 -163.239693727,1809.76333749 -163.214756144,1783.54773438 -168.222681085,1783.52905829 -168.240627198,1809.73734525 " moovel_rot="-43.7" moovel_centroid="-165.729320148,1796.64132037" moovel_centroidlatlon="9.24829648020205,48.78103774759413"/>
  <polygon id="439747585" class="tile" points="-169.240627198,1783.52905829 -175.612946674,1783.53310963 -175.612958067,1799.47983149 -169.240638594,1799.47578038 -169.240627198,1783.52905829 " moovel_rot="-0.6" moovel_centroid="-172.426792626,1791.50444495" moovel_centroidlatlon="9.212256850000001,48.80484860000002"/>
  <polygon id="190286421" class="tile" points="-177.0631622,1805.66499025 -176.612958067,1788.59460999 -186.536020926,1783.67939321 -191.544290983,1783.52905829 -191.542973814,1806.29262972 -177.0631622,1805.66499025 " moovel_rot="53.4" moovel_centroid="-184.549433712,1795.50656789" moovel_centroidlatlon="9.23586572582268,48.743778683577865"/>
  <polygon id="144530883" class="tile" points="-192.544290983,1783.55525061 -192.564509485,1816.19364188 -200.869888408,1816.16743576 -200.849690537,1783.52905829 -192.544290983,1783.55525061 " moovel_rot="-56.2" moovel_centroid="-196.707094555,1799.86133988" moovel_centroidlatlon="9.2294661,48.813088"/>
  <polygon id="360369047" class="tile" points="-201.933205137,1784.42722828 -230.8807972,1783.52905829 -232.147846182,1820.88565741 -201.869888408,1821.89691722 -201.933205137,1784.42722828 " moovel_rot="35.2" moovel_centroid="-216.705561557,1802.82505004" moovel_centroidlatlon="9.210290507094188,48.79935902716889"/>
  <polygon id="25215306" class="tile" points="-233.239628548,1784.66580505 -233.147846182,1900.15085783 -258.927889674,1900.24676872 -258.939165353,1889.20269092 -267.252888381,1889.22949815 -267.2420832,1900.79380621 -294.397149057,1900.89692544 -294.415355106,1877.95877624 -294.433898152,1853.36466594 -289.978637567,1853.34965366 -289.973834593,1850.64803757 -290.274489199,1835.22601029 -289.999245588,1831.84338987 -293.833621575,1831.85727506 -293.861485264,1783.61518532 -267.339546846,1783.52905829 -267.337276664,1795.28287081 -260.253208677,1795.25941931 -260.261680718,1784.76377964 -233.239628548,1784.66580505 " moovel_rot="51.5" moovel_centroid="-263.427887975,1842.36689251" moovel_centroidlatlon="9.230064954867867,48.79062967718658"/>
  <polygon id="143097041" class="tile" points="-295.433898152,1783.53680526 -301.839733243,1783.53511797 -309.870616484,1783.52905829 -309.884680391,1812.01397031 -301.913843045,1812.0228595 -295.447962242,1812.0217134 -295.433898152,1783.53680526 " moovel_rot="2.7" moovel_centroid="-302.659278273,1797.77697788" moovel_centroidlatlon="9.213604100954536,48.82053823428178"/>
  <polygon id="29103571" class="tile" points="-357.061086156,1830.87695722 -357.033572041,1783.52905829 -311.873737682,1787.49142422 -310.884680391,1813.48072712 -343.7265511,1814.34898039 -343.468485317,1831.05709904 -357.061086156,1830.87695722 " moovel_rot="-57.0" moovel_centroid="-337.136046742,1803.1636474" moovel_centroidlatlon="9.181474807796796,48.83619293814783"/>
  <polygon id="24810969" class="tile" points="-375.738846815,1783.7025393 -368.489138669,1783.85463224 -358.826907215,1783.52905829 -358.061086156,1801.84350752 -375.751920895,1802.56751195 -375.738846815,1783.7025393 " moovel_rot="-77.4" moovel_centroid="-367.131071847,1793.03801826" moovel_centroidlatlon="9.189666282853103,48.835486999470675"/>
  <polygon id="145553084" class="tile" points="-393.224704096,1783.52905829 -393.261313023,1785.37115278 -393.66498725,1809.61346527 -376.751920895,1810.22200818 -376.7689817,1785.76816735 -376.771378052,1783.76768415 -393.224704096,1783.52905829 " moovel_rot="78.1" moovel_centroid="-385.08590762,1796.8434797" moovel_centroidlatlon="9.145390431745216,48.83867325916426"/>
  <polygon id="85031201" class="tile" points="-394.673244636,1814.87575163 -401.291524476,1814.85817909 -410.613771747,1814.83856357 -410.605545656,1783.52905829 -394.66498725,1783.56623409 -394.673244636,1814.87575163 " moovel_rot="-68.6" moovel_centroid="-402.639402006,1799.2018636" moovel_centroidlatlon="9.263703507522225,48.78596990178624"/>
  <polygon id="365273833" class="tile" points="-411.702468438,1783.52905829 -421.394129994,1783.90024145 -421.599530682,1822.9466874 -421.66722184,1835.19837265 -411.613771747,1835.74166179 -411.702468438,1783.52905829 " moovel_rot="-13.2" moovel_centroid="-416.57957838,1809.75069252" moovel_centroidlatlon="9.122384042546619,48.727879606424224"/>
  <polygon id="103058721" class="tile" points="-422.66722184,1784.06396968 -422.769476165,1830.80965367 -433.835652246,1830.76535332 -433.855720991,1783.52905829 -422.66722184,1784.06396968 " moovel_rot="14.0" moovel_centroid="-428.291598272,1807.24856066" moovel_centroidlatlon="9.140268281807673,48.80762498979958"/>
  <polygon id="168821368" class="tile" points="-468.195573308,1888.16450908 -442.086181561,1886.58398304 -434.855720991,1886.31660325 -437.005843075,1783.52905829 -468.125775197,1783.58822796 -467.815023181,1818.84852416 -446.113106935,1818.95488717 -446.270572805,1878.07284724 -467.694748482,1878.46565934 -468.195573308,1888.16450908 " moovel_rot="-40.2" moovel_centroid="-448.732987479,1827.89057079" moovel_centroidlatlon="9.233667506527906,48.778948232846496"/>
  <polygon id="24737877" class="tile" points="-469.22051723,1783.52905829 -499.000281242,1783.59147136 -498.981759906,1825.66193623 -469.195573308,1825.59768859 -469.22051723,1783.52905829 " moovel_rot="15.4" moovel_centroid="-484.099639957,1804.59579497" moovel_centroidlatlon="9.246974429508064,48.81415384304272"/>
  <polygon id="143438139" class="tile" points="-506.959316721,1783.54667901 -506.874516631,1905.98990956 -500.000281242,1905.96366722 -500.079652007,1783.52905829 -506.959316721,1783.54667901 " moovel_rot="32.2" moovel_centroid="-503.47848748,1844.74928182" moovel_centroidlatlon="9.205065586850713,48.815878492069125"/>
  <polygon id="264573672" class="tile" points="-513.143889203,1783.54331524 -513.129307234,1802.92544734 -507.959316721,1802.90362501 -507.967181832,1783.52905829 -513.143889203,1783.54331524 " moovel_rot="41.6" moovel_centroid="-510.55009379,1793.22326676" moovel_centroidlatlon="9.193665081100255,48.782789141599146"/>
  <polygon id="25948443" class="tile" points="-518.422467946,1783.52905829 -526.981506865,1783.53618837 -526.972140717,1794.73197127 -530.213431481,1794.73463173 -537.678668846,1794.73794478 -537.638573303,1851.94117767 -537.579088446,1927.4894989 -533.466613761,1927.48799997 -533.466074307,1932.33032666 -514.380952698,1932.35343316 -514.325788243,1898.80853919 -514.143889203,1788.82270434 -514.504376289,1787.16282443 -515.368552722,1785.55609511 -516.583108719,1784.22188516 -518.422467946,1783.52905829 " moovel_rot="-87.0" moovel_centroid="-525.678291836,1859.92408897" moovel_centroidlatlon="9.091574072260888,48.8249484439127"/>
  <polygon id="296620371" class="tile" points="-542.804346383,1783.52905829 -542.929263496,1793.52766918 -538.678668846,1795.67250154 -538.685702811,1785.79910755 -542.804346383,1783.52905829 " moovel_rot="-46.5" moovel_centroid="-540.781465168,1789.65436934" moovel_centroidlatlon="9.254923629805747,48.77811529818054"/>
  <polygon id="159470249" class="tile" points="-543.929263496,1783.52905829 -551.338722181,1789.01473059 -550.402405741,1824.31966582 -543.96840304,1817.65630137 -543.929263496,1783.52905829 " moovel_rot="57.7" moovel_centroid="-547.448238546,1803.26242039" moovel_centroidlatlon="9.140025182348676,48.727688817841944"/>
  <polygon id="423294687" class="tile" points="-552.343653169,1821.18781225 -557.244776268,1821.18675766 -557.239845474,1783.52905829 -552.338722181,1783.53011288 -552.343653169,1821.18781225 " moovel_rot="-89.7" moovel_centroid="-554.791749273,1802.35843514" moovel_centroidlatlon="9.1515766,48.77400885"/>
  <polygon id="132813409" class="tile" points="-6.94543809034,2023.1031507 -7.18216576986,2021.59777929 -7.92642639074,2018.94381999 -9.03195616007,2017.5009477 -29.1414915595,2017.89654291 -31.499564226,2018.60948815 -33.8370905869,2020.32448188 -35.2091539795,2023.0985553 -35.675779595,2026.50444718 -35.6840776836,2040.49086836 -35.6846837729,2044.53644406 -33.9489268044,2055.34632088 -31.0515359441,2065.14802246 -29.495994563,2066.26312314 -27.0888337215,2066.51735391 -23.7722864896,2065.40095459 -16.4459168823,2061.85846161 -19.1368819764,2055.97221503 -13.0057418609,2053.16725689 -14.626558445,2049.62659978 -17.3779922068,2043.60643004 -3.72855120096,2037.41415733 0.0,2035.59141145 -0.398432089202,2034.63540134 -0.831642394513,2033.57783908 -4.91425102763,2034.88623102 -7.32559263892,2029.49664748 -4.73502871301,2027.63076068 -6.94543809034,2023.1031507 " moovel_rot="-65.7" moovel_centroid="-22.290127869057955,2038.4252468" moovel_centroidlatlon="9.165001963903359,48.71409256805701"/>
  <polygon id="212402222" class="tile" points="-37.6846837729,2072.38376925 -43.1148092974,2072.37124396 -43.1427697735,2017.5009477 -37.7163468642,2017.50791397 -37.6846837729,2072.38376925 " moovel_rot="-56.1" moovel_centroid="-40.4146049618,2044.94408533" moovel_centroidlatlon="9.089198685637596,48.810140833094096"/>
  <polygon id="145822212" class="tile" points="-44.1837016013,2084.14052027 -70.6776833033,2084.08972897 -70.6368313378,2017.5009477 -44.1427697735,2017.55171909 -44.1837016013,2084.14052027 " moovel_rot="-76.0" moovel_centroid="-57.4102458284,2050.82071228" moovel_centroidlatlon="9.136258749999998,48.807583900000004"/>
  <polygon id="143484274" class="tile" points="-71.6889644073,2114.68729539 -71.6776833033,2017.50894432 -76.5299149706,2017.5009477 -76.5384014978,2114.68904461 -71.6889644073,2114.68729539 " moovel_rot="16.0" moovel_centroid="-74.1087811007,2066.0918907" moovel_centroidlatlon="9.201170481361125,48.81597346936058"/>
  <polygon id="38880652" class="tile" points="-107.104394638,2017.5009477 -96.152679439,2022.16030948 -77.5384014978,2071.35870201 -81.3046164974,2098.19675107 -107.129718493,2095.52290919 -103.737106935,2077.48126941 -107.104394638,2017.5009477 " moovel_rot="22.9" moovel_centroid="-94.1288977119,2063.74886937" moovel_centroidlatlon="9.165576280581858,48.74180804037682"/>
  <polygon id="107011239" class="tile" points="-124.477017783,2073.22464523 -124.437309446,2017.5009477 -112.239240389,2017.50359391 -112.259860221,2033.57799783 -108.129718493,2033.57889986 -108.141874657,2047.93985292 -113.001057372,2047.9415352 -113.01655184,2063.94264725 -117.45030255,2063.94060124 -117.461878753,2073.22642154 -124.477017783,2073.22464523 " moovel_rot="-94.0" moovel_centroid="-117.994838945,2043.13408544" moovel_centroidlatlon="9.098431185994729,48.739988348275645"/>
  <polygon id="108157267" class="tile" points="-128.299814892,2017.5009477 -135.011144981,2019.60415106 -137.629311329,2030.03356962 -134.504297407,2065.64643955 -125.499905849,2056.52113382 -125.477017783,2021.81808868 -128.299814892,2017.5009477 " moovel_rot="17.4" moovel_centroid="-131.057575085,2039.67151967" moovel_centroidlatlon="9.169178562068916,48.79433718603244"/>
  <polygon id="107833343" class="tile" points="-160.724189317,2017.50568517 -160.724102121,2022.15809396 -160.729623641,2040.31301982 -138.639790536,2040.30528209 -138.629311329,2022.85547843 -145.248172099,2022.8584762 -145.253202102,2017.5009477 -160.724189317,2017.50568517 " moovel_rot="80.5" moovel_centroid="-150.266011642,2029.56612831" moovel_centroidlatlon="9.139091648663042,48.77098342142066"/>
  <polygon id="138279189" class="tile" points="-175.267186719,2115.7103275 -213.150896697,2097.8319589 -211.821289924,2094.29919857 -216.362174101,2092.19350727 -211.143119201,2078.96872991 -209.898248256,2068.83558037 -209.969878918,2055.51869969 -212.116392082,2045.14788648 -216.312877995,2035.38100877 -171.360024105,2017.5009477 -164.097694105,2042.90350639 -161.729623641,2066.91101866 -164.553193077,2085.54184642 -169.139191109,2101.81976866 -175.267186719,2115.7103275 " moovel_rot="-37.6" moovel_centroid="-187.29616582,2066.12939275" moovel_centroidlatlon="9.233761912407617,48.810956668723826"/>
  <polygon id="93785408" class="tile" points="-217.362174101,2058.22944356 -217.620129133,2017.5009477 -224.283335605,2017.55593004 -231.788617931,2017.60560325 -231.852251029,2058.52510206 -217.362174101,2058.22944356 " moovel_rot="30.7" moovel_centroid="-224.661073144,2038.04323617" moovel_centroidlatlon="9.264512363928098,48.76835176317344"/>
  <polygon id="123306634" class="tile" points="-239.000638993,2017.5009477 -233.663270159,2018.23684317 -232.852251029,2018.72644315 -232.880461033,2040.02757156 -247.673875512,2040.25565199 -247.703183571,2021.83986633 -239.000638993,2017.5009477 " moovel_rot="-84.3" moovel_centroid="-240.067917044,2029.50321906" moovel_centroidlatlon="9.10033317847329,48.80602470841354"/>
  <polygon id="101796528" class="tile" points="-248.717222839,2017.5009477 -267.298679235,2017.51315646 -267.284639967,2044.69147691 -248.703183571,2044.67926804 -248.717222839,2017.5009477 " moovel_rot="0.1" moovel_centroid="-258.000931409,2031.09621228" moovel_centroidlatlon="9.086769349999999,48.80222640000001"/>
  <polygon id="126916506" class="tile" points="-268.31366626,2017.5009477 -285.505317505,2017.51389014 -285.490329691,2035.21520536 -268.298679235,2035.20226294 -268.31366626,2017.5009477 " moovel_rot="-89.2" moovel_centroid="-276.901998172,2026.35807647" moovel_centroidlatlon="9.093430999999997,48.7185276"/>
  <polygon id="124383985" class="tile" points="-286.505317505,2026.94587363 -291.236914334,2027.04227537 -291.226317022,2017.80538043 -286.530088355,2017.5009477 -286.505317505,2026.94587363 " moovel_rot="26.2" moovel_centroid="-288.865843328,2022.32905875" moovel_centroidlatlon="9.084630892524743,48.816140463255465"/>
  <polygon id="106960512" class="tile" points="-292.236914334,2017.5009477 -292.275047113,2104.79635606 -296.37474264,2104.48701702 -296.713959365,2017.83391293 -292.236914334,2017.5009477 " moovel_rot="0.9" moovel_centroid="-294.398638157,2060.51490979" moovel_centroidlatlon="9.110051376704705,48.74793060714726"/>
  <polygon id="210464256" class="tile" points="-297.724126273,2017.5009477 -297.713959365,2041.19547465 -310.62151799,2041.20005274 -310.631685054,2017.50552887 -297.724126273,2017.5009477 " moovel_rot="-2.9" moovel_centroid="-304.17282203,2029.35050097" moovel_centroidlatlon="9.18563565,48.8319185"/>
  <polygon id="128511099" class="tile" points="-311.631685054,2034.38023851 -324.439668998,2034.6912655 -324.412900868,2018.06696154 -316.705258986,2017.5009477 -315.068459253,2019.6242955 -312.116341103,2025.29430458 -311.631685054,2034.38023851 " moovel_rot="-85.8" moovel_centroid="-318.577579466,2026.68668198" moovel_centroidlatlon="9.091155694277036,48.82553379011633"/>
  <polygon id="330854239" class="tile" points="-325.440498941,2039.71654599 -325.439668998,2017.5009477 -333.439507215,2020.68757776 -341.161765194,2020.01681348 -341.793653362,2038.21472554 -335.372041999,2039.58330826 -325.440498941,2039.71654599 " moovel_rot="-73.8" moovel_centroid="-333.205915655,2029.58639659" moovel_centroidlatlon="9.138633182018886,48.72658873019555"/>
  <polygon id="92378066" class="tile" points="-342.7957444,2017.5009477 -347.740244633,2017.51409578 -347.738146869,2035.97343781 -342.793653362,2035.96028596 -342.7957444,2017.5009477 " moovel_rot="60.7" moovel_centroid="-345.266947401,2026.73718972" moovel_centroidlatlon="9.254408600000001,48.7817548"/>
  <polygon id="145340916" class="tile" points="-354.840922977,2017.80975434 -361.385535482,2017.5009477 -363.270127583,2047.45614937 -362.077241385,2089.01948756 -359.42225939,2089.1331982 -348.812094595,2089.59062031 -348.740244633,2038.80205787 -354.840922977,2017.80975434 " moovel_rot="-75.2" moovel_centroid="-355.990787009,2055.66104766" moovel_centroidlatlon="9.212250192268176,48.80229367672949"/>
  <polygon id="145553009" class="tile" points="-394.536894974,2200.55186363 -417.463951284,2086.22502526 -418.274290831,2082.89669162 -432.318040111,2025.71653838 -425.262942092,2023.37278717 -421.04676777,2022.49038272 -375.972363673,2017.5009477 -364.270127583,2017.53889935 -364.368012666,2089.33418292 -364.374820949,2092.27731897 -364.478585083,2095.38695084 -376.955269952,2096.16252798 -375.337947967,2164.82108795 -372.801220879,2198.48607849 -394.536894974,2200.55186363 " moovel_rot="-57.0" moovel_centroid="-392.704454844,2091.10776545" moovel_centroidlatlon="9.144666590559156,48.83333635609255"/>
  <polygon id="423294675" class="tile" points="-433.383112174,2055.26873625 -437.849784057,2055.25204833 -437.865553135,2017.5009477 -433.318040111,2017.51721233 -433.383112174,2055.26873625 " moovel_rot="-89.7" moovel_centroid="-435.604078371,2036.32830953" moovel_centroidlatlon="9.14831184479786,48.77399780335908"/>
  <polygon id="143717280" class="tile" points="-442.705136088,2017.5009477 -439.644585973,2018.95468402 -438.865553135,2030.96391486 -439.177360295,2043.06976673 -442.689904666,2041.1879965 -442.050901081,2027.85544796 -442.705136088,2017.5009477 " moovel_rot="-58.5" moovel_centroid="-440.751044154,2030.65833903" moovel_centroidlatlon="9.256879450653953,48.793114076445214"/>
  <polygon id="92476821" class="tile" points="-443.727015863,2054.32943367 -448.287793808,2054.18560152 -449.314038511,2035.13572471 -448.144761371,2017.5009477 -443.705136088,2017.63758206 -444.967866483,2035.8221555 -443.727015863,2054.32943367 " moovel_rot="-93.4" moovel_centroid="-446.550935002,2035.95675946" moovel_centroidlatlon="9.187139882632284,48.81565725376526"/>
  <polygon id="24267650" class="tile" points="-463.042862477,2031.05456336 -463.078709885,2081.74253511 -454.262316755,2081.73038057 -450.36185262,2081.71893845 -450.314038511,2017.5009477 -456.499241695,2017.50917131 -463.030957794,2017.52449779 -463.042862477,2031.05456336 " moovel_rot="53.1" moovel_centroid="-456.696822969,2049.62149905" moovel_centroidlatlon="9.101830651417066,48.771853554709786"/>
  <polygon id="387473158" class="tile" points="-464.078709885,2021.73410225 -472.083980314,2017.68204718 -475.27604649,2017.59647127 -478.466376522,2017.5009477 -478.41086295,2051.01982055 -478.444146734,2054.93997387 -464.299812345,2060.41196575 -464.078709885,2021.73410225 " moovel_rot="-9.9" moovel_centroid="-471.277926264,2038.17312136" moovel_centroidlatlon="9.158014265248749,48.73786377095548"/>
  <polygon id="438666574" class="tile" points="-479.773145547,2041.68983421 -479.466376522,2017.87480823 -501.430497197,2017.5009477 -501.405169262,2042.0775019 -494.296783267,2041.95050329 -485.928080823,2041.80318658 -479.773145547,2041.68983421 " moovel_rot="-48.0" moovel_centroid="-490.575650809,2029.75523876" moovel_centroidlatlon="9.195033209304121,48.789452984113574"/>
  <polygon id="42712908" class="tile" points="-508.349127271,2017.5009477 -519.683749731,2017.50176501 -519.678793009,2025.64899951 -519.662896068,2057.45033456 -510.385445266,2057.44233665 -502.430497197,2057.43981793 -502.439938552,2035.26977093 -508.344394093,2035.27944738 -508.349127271,2017.5009477 " moovel_rot="-0.2" moovel_centroid="-512.074290598,2039.46496166" moovel_centroidlatlon="9.127270424594634,48.726174112084045"/>
  <polygon id="449160746" class="tile" points="-533.591469678,2017.59114402 -520.698798012,2017.5009477 -520.683749731,2034.01455491 -534.821379744,2032.3409604 -533.591469678,2017.59114402 " moovel_rot="57.2" moovel_centroid="-527.332207911,2025.49533441" moovel_centroidlatlon="9.100653408241373,48.801620315396654"/>
  <polygon id="374060807" class="tile" points="-538.215429695,2017.5009477 -544.838546961,2020.86410679 -551.941459215,2021.82933996 -551.931134688,2043.95460436 -545.224084006,2043.79616437 -536.091820034,2043.92356803 -535.821379744,2022.92880923 -538.215429695,2017.5009477 " moovel_rot="-3.4" moovel_centroid="-543.763873379,2032.00253236" moovel_centroidlatlon="9.189999948254876,48.786942529003106"/>
  <polygon id="102910107" class="tile" points="-588.815502828,2017.5009477 -552.941459215,2019.10545626 -554.263854761,2055.93856978 -588.760341267,2055.23286883 -588.815502828,2017.5009477 " moovel_rot="-40.9" moovel_centroid="-571.260293644,2036.81933882" moovel_centroidlatlon="9.113991362180498,48.804205364298014"/>
  <polygon id="147045536" class="tile" points="0.0,2200.57223162 -13.2657646671,2200.55186363 -13.2836160813,2235.13844398 -0.00800347700715,2235.15657457 0.0,2200.57223162 " moovel_rot="-77.2" moovel_centroid="-6.639418854525852,2217.85691693" moovel_centroidlatlon="9.20454216895947,48.839820069605686"/>
  <polygon id="42712905" class="tile" points="-15.3764697596,2200.55186363 -33.9836903664,2200.55498119 -33.9639969208,2213.92652017 -58.3666057412,2213.93080793 -58.325828963,2252.13569473 -64.0815422423,2252.14251351 -64.0606386507,2271.19393371 -76.0633142028,2271.19883292 -76.0452069229,2287.56791856 -38.6149104748,2287.56190794 -15.2836160813,2287.54795871 -15.3764697596,2200.55186363 " moovel_rot="-8.1" moovel_centroid="-39.0458430544,2250.40242663" moovel_centroidlatlon="9.126657878073862,48.72593460427203"/>
  <polygon id="94510440" class="tile" points="-77.0633142028,2200.55186363 -81.7907202773,2200.55748614 -81.7926748466,2223.1565328 -77.0652758655,2223.1509072 -77.0633142028,2200.55186363 " moovel_rot="66.5" moovel_centroid="-79.4279963517,2211.85419462" moovel_centroidlatlon="9.237231499999998,48.74997015"/>
  <polygon id="390224663" class="tile" points="-98.6293560991,2200.59859526 -82.901705763,2200.55186363 -82.7926748466,2330.55834958 -89.7783976002,2330.58340233 -92.3942456128,2330.58695891 -92.4046781905,2323.94571828 -98.5245963815,2323.96125789 -98.6293560991,2200.59859526 " moovel_rot="24.0" moovel_centroid="-90.6142517702,2264.32613652" moovel_centroidlatlon="9.268288750600501,48.758603635342304"/>
  <polygon id="95166237" class="tile" points="-99.6293560991,2250.42508027 -99.6538548218,2200.55186363 -111.925000353,2200.55949287 -122.751918529,2200.56976988 -122.717326418,2250.44314508 -119.020847551,2250.44109407 -99.6293560991,2250.42508027 " moovel_rot="-90.9" moovel_centroid="-111.188148221,2225.49538751" moovel_centroidlatlon="9.215007681096562,48.7398701743376"/>
  <polygon id="121915531" class="tile" points="-142.239379585,2200.55186363 -134.293798306,2200.60129126 -130.042268665,2200.60845384 -129.908790179,2205.25106388 -128.429350375,2207.90296397 -126.949910566,2210.55486406 -126.712438737,2220.28590955 -125.239639969,2222.74024787 -123.754815685,2225.19613254 -123.751918529,2230.67622407 -145.03465299,2230.7270768 -145.034976695,2223.0441951 -144.952324299,2210.74654013 -144.397282232,2208.17640958 -143.890239392,2205.09428645 -142.129948342,2205.1913791 -142.239379585,2200.55186363 " moovel_rot="-63.9" moovel_centroid="-135.531617966,2217.01081021" moovel_centroidlatlon="9.231879423892819,48.841350471137886"/>
  <polygon id="166515651" class="tile" points="-146.55101661,2209.6058797 -158.876549033,2200.55186363 -158.869943807,2252.71781281 -149.105041835,2260.27897741 -149.820447491,2233.25344669 -146.034976695,2236.09182421 -146.55101661,2209.6058797 " moovel_rot="-3.7" moovel_centroid="-153.257823396,2229.08699325" moovel_centroidlatlon="9.182934182358055,48.797774230322155"/>
  <polygon id="301790414" class="tile" points="-159.876549033,2204.1338161 -205.898944266,2200.55186363 -205.889315371,2253.2440521 -170.10288019,2257.78438351 -162.840258148,2252.79660653 -160.043504945,2206.87658939 -159.876549033,2204.1338161 " moovel_rot="18.8" moovel_centroid="-183.712865946,2228.59607173" moovel_centroidlatlon="9.22008896464828,48.69755902152183"/>
  <polygon id="101941988" class="tile" points="-218.473950264,2202.13990026 -218.48487417,2224.15291706 -214.589423389,2224.07059655 -212.01210323,2224.02148283 -211.892907204,2217.25387561 -206.898944266,2217.13870951 -207.241419701,2200.55186363 -214.415346493,2201.56672056 -218.473950264,2202.13990026 " moovel_rot="-13.2" moovel_centroid="-213.185684719,2211.55878422" moovel_centroidlatlon="9.242300214657467,48.75201267014184"/>
  <polygon id="33852114" class="tile" points="-264.206129274,2200.65596134 -219.48487417,2200.55186363 -219.504644815,2252.31312424 -264.217309666,2252.42295094 -264.217658812,2247.22841408 -264.205171007,2209.76871024 -264.206129274,2200.65596134 " moovel_rot="56.3" moovel_centroid="-241.853298048,2226.48549652" moovel_centroidlatlon="9.174399044694061,48.81639132797368"/>
  <polygon id="103232361" class="tile" points="-265.810193869,2227.3480463 -265.217658812,2201.45137306 -272.112594778,2201.03958985 -280.341072211,2200.55186363 -280.308781517,2224.79537082 -272.239848208,2226.21912647 -265.810193869,2227.3480463 " moovel_rot="-75.8" moovel_centroid="-272.833596727,2213.46147557" moovel_centroidlatlon="9.114633351061162,48.809766855199165"/>
  <polygon id="128507998" class="tile" points="-284.656350829,2226.69351177 -291.666549883,2226.11046014 -291.687290238,2200.55186363 -281.341072211,2200.97457356 -281.383930405,2226.99411474 -284.656350829,2226.69351177 " moovel_rot="-85.3" moovel_centroid="-286.504433757,2213.64067024" moovel_centroidlatlon="9.095144736148628,48.82181496436267"/>
  <polygon id="107020763" class="tile" points="-302.557894242,2200.93094417 -302.615135729,2241.33520724 -292.687290238,2241.21997063 -292.968804012,2200.55186363 -302.557894242,2200.93094417 " moovel_rot="-1.9" moovel_centroid="-297.701492613,2221.12636151" moovel_centroidlatlon="9.095760505373438,48.740652820285405"/>
  <polygon id="27742046" class="tile" points="-333.865745547,2296.068569 -303.674480759,2296.00330108 -303.645022248,2244.94226064 -303.64408034,2238.15282515 -303.632755265,2222.73526607 -303.615135729,2200.55186363 -334.04619993,2200.61893804 -334.063733136,2227.44017601 -361.147032632,2227.50066638 -383.088917975,2227.55025072 -383.100301241,2258.00811656 -383.106454868,2266.35388688 -383.127322777,2290.60362072 -351.850280178,2290.41188709 -342.92843122,2290.51223188 -333.862766591,2290.49133045 -333.865745547,2296.068569 " moovel_rot="46.3" moovel_centroid="-339.338504762,2253.80929312" moovel_centroidlatlon="9.243411586209563,48.78674289085313"/>
  <polygon id="284122445" class="tile" points="-384.160162269,2200.55186363 -384.127322777,2246.7991777 -388.8009868,2246.80889833 -388.833829182,2200.56157376 -384.160162269,2200.55186363 " moovel_rot="15.4" moovel_centroid="-386.480575347,2223.68037598" moovel_centroidlatlon="9.14804285,48.729919949999996"/>
  <polygon id="123068486" class="tile" points="-394.407281086,2218.53199056 -394.422282916,2200.56813257 -389.84882587,2200.55186363 -389.833829182,2218.51571961 -394.407281086,2218.53199056 " moovel_rot="68.7" moovel_centroid="-392.128054808,2209.54192491" moovel_centroidlatlon="9.210461100000002,48.7836668"/>
  <polygon id="94249198" class="tile" points="-402.118922591,2201.02047369 -400.428557799,2224.4229717 -402.105171063,2241.13489205 -398.355273293,2241.58028097 -395.982936723,2230.59284215 -395.422282916,2222.44407415 -397.607753367,2200.55186363 -402.118922591,2201.02047369 " moovel_rot="59.0" moovel_centroid="-398.855232506,2220.82301985" moovel_centroidlatlon="9.213856268295556,48.7420443055218"/>
  <polygon id="392882047" class="tile" points="-433.785266214,2248.95502127 -433.762231837,2200.55186363 -415.208929236,2201.30321281 -409.911198582,2201.54540488 -403.291870369,2201.85298147 -403.118922591,2228.2886051 -411.737531688,2228.06592067 -412.058769598,2246.80596381 -426.619154091,2245.97147591 -427.062859252,2249.38973983 -433.785266214,2248.95502127 " moovel_rot="-93.7" moovel_centroid="-420.132634205,2222.44234634" moovel_centroidlatlon="9.083387509049548,48.74623345712338"/>
  <polygon id="100624513" class="tile" points="-434.785266214,2200.55186363 -451.153102047,2200.55759372 -451.168960224,2221.61866354 -434.796910083,2221.60157444 -434.785266214,2200.55186363 " moovel_rot="13.1" moovel_centroid="-442.976795687,2211.08287526" moovel_centroidlatlon="9.166581887252528,48.71432857229099"/>
  <polygon id="426535547" class="tile" points="-470.003855467,2201.60659032 -452.168960224,2200.55186363 -452.192133318,2233.49267453 -469.774548675,2236.27954011 -474.470748389,2210.09991844 -468.893214228,2209.68812153 -470.003855467,2201.60659032 " moovel_rot="56.7" moovel_centroid="-461.99809866,2218.09366294" moovel_centroidlatlon="9.1842663066469,48.76769058968576"/>
  <polygon id="440514956" class="tile" points="-482.001371902,2200.55827639 -475.470748389,2200.55186363 -475.479885237,2222.10027929 -482.01298025,2222.11289714 -482.001371902,2200.55827639 " moovel_rot="68.2" moovel_centroid="-478.7414034,2211.33150807" moovel_centroidlatlon="9.20893813534464,48.84113124893856"/>
  <polygon id="367534217" class="tile" points="-483.01298025,2213.06810856 -483.013842849,2207.58549262 -483.015142341,2200.5701936 -488.949844358,2200.55186363 -488.956023893,2206.06724196 -491.11482899,2205.96109245 -491.1150614,2207.61200199 -491.118061575,2209.44844337 -491.112798096,2213.04974688 -483.01298025,2213.06810856 " moovel_rot="-65.0" moovel_centroid="-486.673291405,2207.27475698" moovel_centroidlatlon="9.22603527123114,48.82068170861384"/>
  <polygon id="247918376" class="tile" points="-492.118061575,2201.40709716 -517.581996356,2200.55186363 -517.576363705,2245.04401796 -492.733568231,2246.98238097 -492.118061575,2201.40709716 " moovel_rot="-85.3" moovel_centroid="-504.94987695,2223.40768405" moovel_centroidlatlon="9.240903358288355,48.80311339051131"/>
  <polygon id="39790029" class="tile" points="-518.581996356,2226.15411951 -529.012211624,2225.95608982 -528.34783273,2207.46017742 -528.18799412,2200.55186363 -518.616738233,2200.66537515 -518.611908667,2204.01845149 -518.581996356,2226.15411951 " moovel_rot="-89.4" moovel_centroid="-523.584347212,2213.52127651" moovel_centroidlatlon="9.091773511839833,48.72055915778113"/>
  <polygon id="107473477" class="tile" points="-530.012211624,2230.69760341 -530.024015379,2200.55186363 -536.534728046,2200.55304436 -536.522921205,2230.69878391 -530.012211624,2230.69760341 " moovel_rot="-85.4" moovel_centroid="-533.273469059,2215.62532264" moovel_centroidlatlon="9.174675050000001,48.79137210000002"/>
  <polygon id="33914725" class="tile" points="-552.662801455,2200.55186363 -537.534728046,2204.57096766 -546.336597851,2254.6229157 -544.903998325,2300.40700289 -537.633871616,2332.01187938 -548.449729318,2339.18515863 -562.503444427,2318.48603367 -561.701588131,2287.43195253 -555.846573737,2283.500607 -575.337980147,2255.31571909 -571.919304253,2252.91282366 -582.519682064,2237.83150212 -564.554101608,2225.46866724 -559.413696044,2232.39477984 -552.662801455,2200.55186363 " moovel_rot="-16.1" moovel_centroid="-554.689831341,2265.70712433" moovel_centroidlatlon="9.237640436868025,48.81696449807832"/>
  <polygon id="331215400" class="tile" points="-34.9534500858,2348.94158949 -32.8995156605,2360.32143924 -31.568304015,2371.30931306 -31.9480589043,2375.86319501 -33.0759786364,2383.29679647 -25.2347960975,2386.76309718 -29.7292798882,2395.49367553 -34.0522560082,2402.34480052 -34.9408427786,2410.79582227 -30.1118164094,2412.13455438 -12.3551727237,2400.23711125 -17.4685643043,2397.84026909 -0.320352087356,2387.9135893 -3.90998863187,2378.83689257 0.0,2377.52683279 -11.5795046462,2339.18515863 -34.9534500858,2348.94158949 " moovel_rot="47.9" moovel_centroid="-18.9563164656562,2373.87371414" moovel_centroidlatlon="9.17843159395521,48.81773427917782"/>
  <polygon id="175291421" class="tile" points="-50.2602345582,2364.735914 -43.7626594424,2364.77898657 -36.9943006013,2364.93869832 -36.9534500858,2339.18515863 -43.8357712422,2339.2980254 -50.4551024791,2339.41354706 -50.2602345582,2364.735914 " moovel_rot="73.2" moovel_centroid="-43.6470443357,2352.01575629" moovel_centroidlatlon="9.221124565463308,48.756072822936446"/>
  <polygon id="250798974" class="tile" points="-65.871294004,2339.20409959 -65.8819671124,2371.42423473 -51.465786045,2371.40526565 -51.4551024791,2339.18515863 -65.871294004,2339.20409959 " moovel_rot="20.4" moovel_centroid="-58.6685384584,2355.3046877" moovel_centroidlatlon="9.099397349999998,48.8259253"/>
  <polygon id="110770087" class="tile" points="-66.8819671124,2348.98719122 -73.2513113763,2343.97186108 -78.1710134177,2340.69971386 -82.8739236517,2339.45785848 -86.6241847368,2339.18515863 -89.8119441042,2339.85450481 -91.8461544897,2341.03472905 -94.2594726818,2344.6639672 -94.2206573812,2373.30279065 -94.2432020493,2376.19346453 -93.1614927016,2378.46721725 -91.2922140412,2380.81385941 -88.2826705957,2382.13525278 -86.160263136,2382.65550747 -70.5750007072,2384.27126065 -70.1935556289,2381.3553592 -67.5598473338,2354.8145256 -66.8819671124,2348.98719122 " moovel_rot="-68.7" moovel_centroid="-81.4595696487,2361.73534375" moovel_centroidlatlon="9.248032154595034,48.768957752902345"/>
  <polygon id="145596136" class="tile" points="-95.273633017,2367.57081422 -100.305606138,2348.01617304 -95.2594726818,2346.62724145 -97.2714459749,2339.18515863 -115.454456743,2344.27626748 -111.810578281,2355.04240518 -116.766943659,2355.95463464 -115.925313123,2368.61720511 -111.079444803,2366.92713943 -110.084089006,2370.91929348 -99.541491393,2366.85204727 -98.8124932053,2369.14839911 -95.273633017,2367.57081422 " moovel_rot="-76.0" moovel_centroid="-105.955802753,2355.56404655" moovel_centroidlatlon="9.156221515770646,48.848620085805635"/>
  <polygon id="141800006" class="tile" points="-117.766943659,2376.55821662 -117.796540573,2339.19511594 -131.117660838,2339.18515863 -131.088058113,2376.54823651 -123.357492319,2376.56033475 -117.766943659,2376.55821662 " moovel_rot="-14.3" moovel_centroid="-124.442268772,2357.87325727" moovel_centroidlatlon="9.144401443714708,48.71973063494147"/>
  <polygon id="208978552" class="tile" points="-149.349880039,2408.19090469 -137.611965095,2404.82119601 -134.019770075,2385.89076916 -132.132205931,2364.39828856 -132.117660838,2339.18515863 -169.120922622,2354.9590922 -149.349880039,2408.19090469 " moovel_rot="-11.4" moovel_centroid="-146.840851087,2371.64892552" moovel_centroidlatlon="9.169073715139808,48.81683867880727"/>
  <polygon id="265037846" class="tile" points="-170.189605683,2340.6279515 -170.120922622,2381.53607961 -196.877482336,2380.68750063 -195.491730967,2339.18515863 -170.189605683,2340.6279515 " moovel_rot="-62.9" moovel_centroid="-183.20760565,2360.69812955" moovel_centroidlatlon="9.18979698835337,48.74910424067302"/>
  <polygon id="108047169" class="tile" points="-220.33238441,2339.18637194 -222.718639259,2339.18723595 -222.724519285,2371.20758242 -214.04907113,2371.20625254 -197.881152235,2371.20407795 -197.877482336,2353.12333762 -198.666140317,2353.11920818 -198.656592991,2351.29581992 -200.021647613,2351.30203097 -200.025751683,2346.29256372 -200.028985578,2339.18581308 -205.256507737,2339.18515863 -220.33238441,2339.18637194 " moovel_rot="-90.3" moovel_centroid="-210.70710528,2355.53893962" moovel_centroidlatlon="9.214915128559872,48.80290424049649"/>
  <polygon id="239599071" class="tile" points="-236.929245871,2357.483245 -245.612383283,2344.38839412 -235.621473788,2339.18515863 -223.724519285,2359.91386583 -228.547737929,2365.56188997 -233.684738219,2368.08092578 -227.345929762,2380.45179805 -223.731778109,2387.39283427 -246.05322971,2398.99310489 -249.421220175,2392.28653771 -253.283864842,2384.56525721 -255.607740207,2385.68742368 -259.891367924,2377.68689304 -263.465399265,2370.98315089 -236.929245871,2357.483245 " moovel_rot="-78.0" moovel_centroid="-240.887671731,2372.18269706" moovel_centroidlatlon="9.24690555203737,48.78015014873408"/>
  <polygon id="128629555" class="tile" points="-272.297275345,2352.8773691 -272.547074867,2345.78108705 -272.546736439,2343.38273213 -271.07499844,2341.2074199 -269.86800229,2339.43181067 -264.471560587,2339.18515863 -264.470118738,2345.53173132 -264.465399265,2353.00058197 -272.297275345,2352.8773691 " moovel_rot="-88.8" moovel_centroid="-268.292617221,2346.38192382" moovel_centroidlatlon="9.120767372311107,48.81294653492335"/>
  <polygon id="339388383" class="tile" points="-273.547074867,2352.366512 -275.227632444,2350.95108879 -289.206238048,2339.18515863 -295.123847821,2363.4159868 -308.419121883,2417.8592141 -317.065585555,2450.63114758 -323.682717935,2468.05045481 -277.909531058,2499.15071545 -273.776584474,2488.92925238 -273.569277469,2483.18869742 -274.132763074,2474.54044538 -275.482953037,2468.23544199 -283.99857436,2453.71998353 -290.611454472,2431.70705166 -290.398724767,2418.57710278 -283.144863575,2388.35759357 -273.547074867,2352.366512 " moovel_rot="10.9" moovel_centroid="-294.827081355,2430.19707872" moovel_centroidlatlon="9.173589003635954,48.769899258082376"/>
  <polygon id="37848523" class="tile" points="-324.892456025,2339.18515863 -324.682717935,2356.64729067 -331.940538536,2356.71949532 -338.952834082,2356.80597715 -338.927889614,2340.43603019 -331.509045123,2339.91292934 -324.892456025,2339.18515863 " moovel_rot="51.9" moovel_centroid="-331.786932424,2348.31972243" moovel_centroidlatlon="9.252261315422645,48.75497291261279"/>
  <polygon id="124420624" class="tile" points="-344.106802121,2360.62518407 -343.999321957,2339.18515863 -339.954467912,2339.35729173 -339.952834082,2360.73965266 -344.106802121,2360.62518407 " moovel_rot="-87.8" moovel_centroid="-342.004454557,2350.02421315" moovel_centroidlatlon="9.084369591609478,48.81439769616221"/>
  <polygon id="363474158" class="tile" points="-346.113335339,2339.18515863 -354.835101484,2339.2161493 -354.855892808,2455.76040001 -345.106802121,2455.44197836 -346.113335339,2339.18515863 " moovel_rot="10.2" moovel_centroid="-350.224980893,2398.48115407" moovel_centroidlatlon="9.2110637977426,48.71412751155084"/>
  <polygon id="242890998" class="tile" points="-355.855892808,2339.23029642 -357.844471326,2339.18515863 -357.837731942,2344.58705538 -355.901194002,2344.40579192 -355.855892808,2339.23029642 " moovel_rot="58.9" moovel_centroid="-356.86683712,2341.84044694" moovel_centroidlatlon="9.105491180170594,48.718169319010215"/>
  <polygon id="436386723" class="tile" points="-363.01770543,2352.69444582 -363.012636968,2339.18515863 -358.844471326,2339.18895901 -358.849542778,2352.69824711 -363.01770543,2352.69444582 " moovel_rot="-73.0" moovel_centroid="-360.931089102,2345.94170183" moovel_centroidlatlon="9.081014249999994,48.81723294999999"/>
  <polygon id="31578108" class="tile" points="-378.832369645,2342.19438983 -370.387814738,2339.18515863 -367.809418341,2344.73585303 -365.754945915,2351.60538125 -364.493863244,2359.19250967 -364.01770543,2367.33571847 -364.086827779,2374.3975985 -365.704317085,2382.28934487 -368.5364852,2390.25913442 -378.842612251,2386.41909106 -375.11120439,2376.98817361 -373.636356858,2368.1171841 -373.733817326,2359.63953594 -375.580636087,2350.59443441 -378.832369645,2342.19438983 " moovel_rot="-3.0" moovel_centroid="-370.525269443,2365.32083897" moovel_centroidlatlon="9.15197287597118,48.79067483517478"/>
  <polygon id="190113454" class="tile" points="-386.790829892,2368.3254005 -379.861672785,2367.70845298 -379.85227326,2353.77969916 -379.842612251,2339.18515863 -389.383597957,2341.4331001 -387.750840851,2344.96456563 -387.361025349,2354.38695634 -386.790829892,2368.3254005 " moovel_rot="-34.9" moovel_centroid="-383.648111329,2353.56019021" moovel_centroidlatlon="9.175160390300464,48.81826700738102"/>
  <polygon id="95333478" class="tile" points="-390.616186243,2356.95479165 -397.502091414,2356.7342386 -403.783913136,2356.53403054 -403.780325447,2339.18515863 -397.169989607,2340.6923103 -390.383597957,2341.84557131 -390.616186243,2356.95479165 " moovel_rot="-66.4" moovel_centroid="-397.292728913,2348.63597642" moovel_centroidlatlon="9.166589050893727,48.74873069931057"/>
  <polygon id="428305247" class="tile" points="-404.793101957,2339.18515863 -415.121485048,2339.20496242 -415.110351243,2352.82668477 -404.783913136,2352.79696732 -404.793101957,2339.18515863 " moovel_rot="11.1" moovel_centroid="-409.95283987,2346.00323189" moovel_centroidlatlon="9.166620158598388,48.73544767824817"/>
  <polygon id="405780513" class="tile" points="-416.121485048,2339.22988159 -429.90627599,2339.18515863 -429.905512926,2355.60969851 -416.12421891,2355.64873085 -416.121485048,2339.22988159 " moovel_rot="-58.6" moovel_centroid="-423.014770475,2347.41801896" moovel_centroidlatlon="9.189357632535756,48.81863704842757"/>
  <polygon id="196076472" class="tile" points="-430.909178586,2339.18515863 -430.90627599,2373.3597979 -452.349506767,2373.3967963 -452.352448707,2339.22214477 -430.909178586,2339.18515863 " moovel_rot="72.7" moovel_centroid="-441.629353157,2356.29096918" moovel_centroidlatlon="9.129718249999998,48.7223122"/>
  <polygon id="43945786" class="tile" points="-454.52669355,2398.28815313 -462.536523013,2397.99801601 -462.440011637,2402.00575186 -511.823368024,2401.25131098 -511.827897675,2339.18515863 -453.352448707,2341.42127269 -454.52669355,2398.28815313 " moovel_rot="-56.8" moovel_centroid="-483.221319933,2370.62271117" moovel_centroidlatlon="9.226907432329789,48.8148926733433"/>
  <polygon id="151503855" class="tile" points="-512.827897675,2388.59339762 -518.457636991,2395.27269654 -524.482616512,2393.06550012 -526.916445741,2389.23509611 -526.916661804,2387.99796224 -526.883231187,2367.24267439 -526.846873396,2339.18515863 -524.255417409,2339.37877351 -516.975102655,2339.92208058 -515.396763216,2342.82793998 -513.576803487,2346.17359436 -512.827897675,2388.59339762 " moovel_rot="-92.8" moovel_centroid="-520.172494001,2366.90846173" moovel_centroidlatlon="9.206452505939161,48.78884294785137"/>
  <polygon id="409084878" class="tile" points="-527.916661804,2339.18515863 -539.389454254,2339.20937986 -539.412640486,2379.00994828 -527.939882156,2378.98569873 -527.916661804,2339.18515863 " moovel_rot="50.3" moovel_centroid="-533.664660352,2359.09753651" moovel_centroidlatlon="9.096973749999998,48.7160739"/>
  <polygon id="48523686" class="tile" points="-540.41624314,2339.18515863 -544.248497963,2339.61748624 -571.714236425,2341.32816301 -568.470371351,2376.51892904 -545.364612003,2375.05301172 -544.885977307,2368.40126461 -540.412640486,2344.84771063 -540.41624314,2339.18515863 " moovel_rot="50.2" moovel_centroid="-556.387168396,2357.06284573" moovel_centroidlatlon="9.143272701480225,48.76900457963927"/>
  <polygon id="101961016" class="tile" points="-1.15645253495,2502.80598463 -0.7454926359,2511.79343969 -0.158067486668,2524.48238009 0.0,2528.00268452 -13.1876820132,2528.64847813 -10.7440176019,2579.40106518 -25.7146718121,2571.66844526 -32.4385244686,2555.6253666 -32.4380067523,2500.32755925 -9.31715612873,2499.15071545 -1.15645253495,2502.80598463 " moovel_rot="7.9" moovel_centroid="-18.991327734543027,2532.41749921" moovel_centroidlatlon="9.105975923210327,48.80377896605696"/>
  <polygon id="179534593" class="tile" points="-37.9334879227,2512.41114083 -34.4385244686,2512.4100434 -34.4417308573,2499.15071545 -37.9300314563,2499.15134633 -37.9334879227,2512.41114083 " moovel_rot="4.0" moovel_centroid="-36.1859538979,2505.78292003" moovel_centroidlatlon="9.144582977354597,48.810128379207114"/>
  <polygon id="110117521" class="tile" points="-39.2123380404,2500.12741924 -51.4073576151,2499.15071545 -51.4176337342,2522.17335489 -38.9334879227,2522.01158754 -39.2123380404,2500.12741924 " moovel_rot="-43.9" moovel_centroid="-45.2950220832,2510.9089159" moovel_centroidlatlon="9.21167029145746,48.78391020845784"/>
  <polygon id="404522741" class="tile" points="-52.4176337342,2499.1542504 -58.7868973833,2499.15071545 -58.7939458159,2529.88570917 -52.4271495447,2529.89906717 -52.4176337342,2499.1542504 " moovel_rot="-14.1" moovel_centroid="-55.6062367188,2514.52144429" moovel_centroidlatlon="9.206710751147364,48.84201893490092"/>
  <polygon id="121402414" class="tile" points="-60.9431651812,2551.54265175 -77.7051565008,2551.585419 -90.8928216321,2538.24067725 -90.9560856539,2499.15071545 -59.7939458159,2499.56292318 -60.9431651812,2551.54265175 " moovel_rot="23.5" moovel_centroid="-75.0301267388,2524.0150434" moovel_centroidlatlon="9.179138375192093,48.81523294967254"/>
  <polygon id="103232274" class="tile" points="-97.5985020773,2499.15081784 -97.5825804822,2553.29288263 -91.9560856539,2553.29316817 -91.9786751434,2499.15071545 -97.5985020773,2499.15081784 " moovel_rot="-3.3" moovel_centroid="-94.7789555798,2526.22724603" moovel_centroidlatlon="9.110054720310824,48.80979599718428"/>
  <polygon id="380920278" class="tile" points="-98.5985020773,2570.10022547 -137.805554239,2579.53363355 -137.809086098,2499.18496809 -124.051186404,2499.15071545 -116.50892064,2544.47398113 -105.732788706,2542.05341198 -98.5985020773,2570.10022547 " moovel_rot="-53.4" moovel_centroid="-123.970590318,2544.87540111" moovel_centroidlatlon="9.107954482320988,48.82047100880797"/>
</svg>