<svg xmlns="http://www.w3.org/2000/svg" version="1.1" width="592.5px" height="1200px">
  <polygon id="0" class="bin" points="222.089650735,3.75034191106 220.991422061,1.09847045712 218.339650751,0.0 1.875,0.0 -0.77665042945,1.09834957055 -1.875,3.75 -1.875,1203.75 -0.77665042945,1206.40165043 1.875,1207.5 249.571525799,1207.5 252.017517406,1206.59246813 253.279607497,1204.30913336 255.746473116,1187.94928106 255.768363673,1187.00309864 252.447119049,1154.99643106 252.303020335,1154.28620579 245.121793805,1130.81808144 244.973544411,1130.4169432 233.925036924,1105.06970771 233.561350302,1101.56074547 235.290540644,1098.48584959 251.759106861,1083.12111984 252.108000626,1082.88741798 253.625650336,1080.80586487 253.442277689,1078.23633215 250.423695577,1071.51049184 250.162259799,1067.4772654 252.606715391,1064.25858539 255.546956375,1062.39820049 257.284957401,1059.45687421 255.916150742,1056.32663201 252.849080342,1053.81784935 250.365182181,1048.42502465 251.901821939,978.382502138 253.640941248,974.387110257 257.682674804,972.758588804 261.028226067,972.777273422 263.65213075,971.72679315 264.797389519,969.142849083 265.04202946,961.204943975 264.033433116,958.528770569 261.431389493,957.341951427 255.754162069,957.133524409 251.79633666,955.348388577 250.214003163,951.305207577 250.282855552,946.382935472 251.016828177,943.392340796 254.879893894,935.737255114 254.774375774,932.163725529 250.866658297,925.438800039 252.302366872,891.509108868 254.95297132,886.412591023 256.044048402,885.57638306 257.511346512,882.708567697 257.933414301,868.138253995 259.678542362,864.175297818 263.692904265,862.551908736 274.245720832,862.568364348 276.85071983,861.521498929 277.998910035,858.95954533 278.029062581,858.159185836 277.013033647,855.448489806 274.369348667,854.269033368 265.601793039,854.064102532 261.547880227,852.251555082 259.999393592,848.089617254 262.519475565,786.491976752 264.388475089,782.482684521 266.126930926,781.860041569 267.923533326,780.495867129 268.612445564,778.347809398 269.029786301,692.181732813 267.932604562,689.513043998 265.264846938,688.413600037 263.383632004,688.421116604 259.305333268,686.745344756 257.615964614,682.672659473 257.667884502,603.926994982 259.382782497,599.837718167 263.49936226,598.189436925 298.06658874,598.727923765 300.755917236,597.650600473 301.874999,594.978378694 301.874999,590.984066217 301.540979298,589.436946763 221.301078181,412.270328734 221.569101444,406.157044543 301.392472466,264.417463651 301.874999,262.577323127 301.874999,216.201137763 299.876243738,212.885170051 225.661790475,173.6906778 222.074698857,167.739020399 222.089650735,3.75034191106 " mydata_rot="0" mydata_centroid="127.5792571512186,608.3318375793048"/>
  <polygon id="284676962" class="tile" points="-13.1872137401,1290.04797109 -34.5790618852,1298.30516537 -35.6482904471,1300.91432018 -33.9294698834,1308.32276324 -25.7209449898,1334.97862353 -5.36739519387,1389.82220903 -1.15636111572,1402.44271699 -1.36125498749,1407.74204516 -4.30346070006,1410.50683146 -51.6223167181,1428.81075329 -53.3177216809,1428.90497437 -103.557787633,1287.77518338 -101.993959211,1283.49877179 -96.7822019324,1281.23057815 -92.2960010976,1279.0118407 -90.8206537243,1277.77825882 -88.929168414,1273.23658985 -88.9244429059,1271.80480562 -90.941631189,1270.96661001 -95.3300795332,1263.8836427 -92.3353569873,1259.62099352 -93.1542902283,1256.68390748 -92.610151099,1253.26879477 -90.813680657,1251.10503358 -87.4819048274,1249.86025156 -83.5005015809,1248.61208727 -78.7537602518,1243.43301987 -71.3661562145,1233.96504297 -72.3620093402,1228.98189747 -73.5882389057,1222.545886 -40.5476953607,1210.28632183 -39.4852458116,1207.87437374 -38.7719796542,1204.10019141 -37.1524424329,1201.97118746 -35.2516194399,1201.0 -32.4511424799,1201.2964465 -31.7711720258,1202.16444235 -30.2190680303,1206.14269936 -25.0060843587,1204.10855038 -22.5185349531,1212.35430724 -19.9369084924,1211.55391517 -17.496444191,1217.66246646 -3.20833407007,1212.08005686 -1.0,1218.41752434 -9.08250161819,1221.60596194 -28.4888691906,1229.88335255 -29.26039178,1231.99981015 -28.7841274261,1234.23960004 -22.3787364267,1250.77149837 -23.482223025,1253.24387766 -24.0552419838,1254.96799668 -10.3003744721,1288.24363976 -13.1872137401,1290.04797109 " mydata_rot="-50.1" mydata_centroid="-50.28571435949041,1314.871611349654"/>
  <polygon id="326257588" class="tile" points="-113.761810528,1237.61137499 -113.706583089,1234.13188675 -113.679442308,1207.21933259 -113.903725908,1201.22281295 -109.705072479,1201.12418635 -107.929190109,1201.07838399 -104.557787633,1201.0 -104.593405285,1237.75307754 -108.706163565,1237.63496182 -113.761810528,1237.61137499 " mydata_rot="55.3" mydata_centroid="-109.137077718,1219.35348438827"/>
  <polygon id="245082045" class="tile" points="-120.832938929,1213.25264011 -121.635059075,1218.1916559 -114.903725908,1219.25590444 -124.089307148,1278.8138163 -147.722809284,1268.64612745 -154.537997705,1265.60320585 -151.53644751,1217.60730044 -152.382229333,1211.72906682 -154.518810418,1207.84797179 -153.496472372,1204.11774605 -152.496486761,1201.0 -140.544062287,1206.54389734 -120.832938929,1213.25264011 " mydata_rot="-17.9" mydata_centroid="-136.181901231,1239.6990314153309"/>
  <polygon id="219559498" class="tile" points="-155.537997705,1202.16705889 -156.895349446,1256.02536277 -170.784108797,1256.34052857 -170.534902292,1305.25870346 -199.051445239,1305.50226786 -199.210882115,1201.0 -155.537997705,1202.16705889 " mydata_rot="8.4" mydata_centroid="-180.42787928,1248.1827830843806"/>
  <polygon id="252545601" class="tile" points="-207.743776233,1227.53446212 -200.215864833,1227.51471769 -200.210882115,1255.52340881 -220.406895862,1255.57004632 -220.41096148,1247.49575926 -219.073732229,1247.49753423 -219.074749295,1244.32496795 -220.265021401,1244.32084357 -220.26533091,1234.59871733 -220.271799654,1201.01233403 -213.381618783,1201.0 -213.381473904,1203.34033072 -213.38109384,1227.54873296 -208.425073782,1227.53776853 -207.743776233,1227.53446212 " mydata_rot="18.3" mydata_centroid="-211.830541611,1234.8162042485137"/>
  <polygon id="185148209" class="tile" points="-221.793412916,1243.36851108 -228.472950585,1243.31677546 -245.290935851,1243.20354424 -251.903110233,1243.15154136 -251.917020293,1223.35803385 -251.927190924,1201.0 -221.41096148,1201.23276495 -221.793412916,1243.36851108 " mydata_rot="7.7" mydata_centroid="-236.760252679,1222.1412494739434"/>
  <polygon id="331125086" class="tile" points="-300.382073399,1270.18311638 -300.426039741,1201.0 -252.969785386,1201.01871135 -252.927190924,1270.21058837 -300.382073399,1270.18311638 " mydata_rot="-8.9" mydata_centroid="-276.675771687,1235.6029369259913"/>
  <polygon id="181275816" class="tile" points="-301.426039741,1201.0 -322.902662696,1201.06930681 -322.926261218,1233.74704034 -318.501804204,1233.73439628 -303.256726694,1233.68341095 -301.449678465,1233.67768919 -301.426039741,1201.0 " mydata_rot="42.2" mydata_centroid="-312.176231686,1217.3738579233845"/>
  <polygon id="288641700" class="tile" points="-335.781881274,1201.015044 -347.722342496,1201.0 -347.67860733,1248.55459623 -347.676762473,1256.71132161 -345.333941898,1256.73816654 -323.992923669,1256.71653575 -323.926261218,1225.04602189 -335.681383328,1225.09514414 -335.719581855,1214.42357387 -335.781881274,1201.015044 " mydata_rot="61.1" mydata_centroid="-337.459124613,1233.1668361251063"/>
  <polygon id="265042511" class="tile" points="-348.727456603,1226.01286194 -348.722342496,1201.00564978 -349.182525931,1201.00257557 -367.234900009,1201.0 -367.239984498,1226.00722857 -366.198302214,1226.01189333 -348.727456603,1226.01286194 " mydata_rot="61.0" mydata_centroid="-357.981238019,1213.5067852347038"/>
  <polygon id="447197456" class="tile" points="-368.239984498,1248.85505553 -386.83375415,1248.99898487 -386.819076549,1218.89701343 -376.140142166,1219.19551639 -375.939943084,1201.0 -368.81309749,1201.16656879 -368.239984498,1248.85505553 " mydata_rot="-82.5" mydata_centroid="-376.619249948,1229.4214887424482"/>
  <polygon id="201032952" class="tile" points="-412.787196694,1251.56154424 -412.789031096,1201.0 -401.205494688,1201.01379447 -387.83375415,1201.04005043 -387.84182607,1251.59668479 -399.602685266,1251.58951802 -412.787196694,1251.56154424 " mydata_rot="-79.2" mydata_centroid="-400.313145327,1226.2990474990072"/>
  <polygon id="25430198" class="tile" points="-449.966272861,1201.0 -413.789031096,1224.17310544 -423.028330127,1246.44904053 -429.143301663,1266.50531605 -432.543876711,1289.01209678 -429.651317611,1314.57605977 -423.547895578,1338.46672643 -413.805248491,1356.00221263 -451.715817694,1380.50729851 -459.698783577,1366.73824231 -469.735329154,1340.00339421 -476.140634075,1306.90565043 -475.661836757,1273.29525097 -469.547911562,1242.25942561 -449.966272861,1201.0 " mydata_rot="9.0" mydata_centroid="-447.629280526,1290.939481759067"/>
  <polygon id="252080092" class="tile" points="-477.140634075,1240.61974378 -477.142212843,1201.00189785 -488.236489331,1201.0 -488.235488638,1203.85818385 -492.9021719,1203.85724275 -492.903201826,1236.9056575 -492.901593316,1240.61689754 -477.140634075,1240.61974378 " mydata_rot="-4.0" mydata_centroid="-484.900958395,1221.2110805036014"/>
  <polygon id="404110993" class="tile" points="-493.903201826,1288.78012462 -528.910590836,1290.63704012 -543.113665778,1281.25624752 -569.607683754,1274.34594376 -562.939283242,1234.84591366 -568.987348298,1208.44086406 -556.709618318,1203.51225218 -550.456331376,1201.0 -493.978994708,1203.38209374 -494.297686738,1218.30661569 -535.357129293,1216.74429576 -535.956402421,1229.0610626 -541.502929418,1230.54725003 -540.30616395,1254.96076376 -528.505840229,1256.12061719 -527.929879009,1272.04316405 -494.588378977,1272.38206278 -493.903201826,1288.78012462 " mydata_rot="-75.0" mydata_centroid="-537.349047033,1244.5636381192198"/>
  <polygon id="299598650" class="tile" points="-580.577873721,1281.14617436 -585.903008785,1280.36187949 -585.542554714,1279.79965828 -583.004079591,1262.21923644 -581.84432481,1253.86813698 -581.336278979,1245.53567361 -581.403136871,1239.84032854 -583.456751513,1219.55705275 -583.565716261,1215.85276883 -584.311132329,1211.63657667 -584.402923979,1210.76233757 -585.851336879,1202.13221019 -580.223930629,1201.23481222 -574.699772772,1201.0 -572.0484554,1215.54535817 -570.858898881,1227.06349034 -570.75762038,1234.44296165 -570.607683754,1242.70401846 -570.613069172,1244.1336662 -570.660390621,1245.3173784 -570.72849119,1246.14269055 -571.199643885,1256.81197422 -573.09409369,1271.20195834 -574.829877034,1281.89099096 -580.577873721,1281.14617436 " mydata_rot="-14.0" mydata_centroid="-577.57384347,1240.875289368363"/>
  <polygon id="264854016" class="tile" points="-14.8203209734,1429.17469727 -14.8000171697,1461.96629199 -8.87815707922,1462.19595693 -9.03767351713,1456.89850747 -7.41277254894,1456.85287561 -8.03902783748,1444.76902109 0.0,1444.30486052 -0.445109888725,1431.7387514 -4.52717488389,1431.86056669 -4.61521293987,1428.90497437 -14.8203209734,1429.17469727 " mydata_rot="59.6" mydata_centroid="-9.08574158377198,1442.80148942"/>
  <polygon id="377437722" class="tile" points="-17.7546806822,1428.90497437 -17.7452671589,1432.77146211 -17.744924082,1437.74619476 -17.7351593157,1442.56565576 -16.8330006091,1442.56220861 -16.8203209734,1453.98255398 -23.6467900695,1453.74445095 -30.4943730446,1453.65515908 -30.4930026861,1451.69017589 -30.3884019392,1438.39892609 -30.3781350063,1436.86008047 -30.5007172467,1428.9695465 -23.6824672291,1428.93230937 -17.7546806822,1428.90497437 " mydata_rot="-28.9" mydata_centroid="-23.8595124258,1441.58324845"/>
  <polygon id="240187601" class="tile" points="-36.726923907,1500.90022161 -31.5388487108,1500.87117838 -31.5007172467,1428.90497437 -36.6526914641,1429.23240427 -36.726923907,1500.90022161 " mydata_rot="-83.1" mydata_centroid="-34.1030306786,1465.01919404"/>
  <polygon id="231847175" class="tile" points="-50.4028912557,1429.38950964 -60.1634111522,1428.90497437 -60.6725301547,1488.52587491 -37.726923907,1489.64525936 -37.7281285709,1484.38192133 -50.4028912557,1429.38950964 " mydata_rot="-22.6" mydata_centroid="-51.5065034794,1463.29800329"/>
  <polygon id="219559495" class="tile" points="-61.6759686142,1470.11318038 -61.6725301547,1433.27604591 -84.4589730136,1428.90497437 -89.1435535213,1453.64416327 -81.5068503624,1455.09407288 -83.5931972608,1466.12102171 -61.6759686142,1470.11318038 " mydata_rot="-92.5" mydata_centroid="-73.7047295398,1449.05407021"/>
  <polygon id="354590309" class="tile" points="-125.553834993,1429.59786724 -90.1435535213,1428.90497437 -90.2865251966,1440.67369417 -90.2603469919,1451.5963419 -91.9828484276,1451.60076177 -91.9824112672,1453.0457329 -103.109270414,1453.06722532 -103.097597093,1460.61841226 -91.9674950268,1460.59108075 -91.9614246352,1462.26086511 -90.2389243785,1462.25644458 -90.2091477703,1473.8231964 -91.368408295,1473.82770558 -91.3537102617,1479.18673012 -107.809907033,1479.22313564 -107.824400835,1469.99632917 -108.649028616,1469.99599098 -108.66195009,1464.76026026 -109.09612003,1464.76321437 -109.096898127,1462.86705379 -113.771169627,1462.87965701 -113.767142646,1464.76998183 -114.160849372,1464.77252529 -114.148488052,1470.29841861 -125.21218137,1470.07988243 -125.553834993,1429.59786724 " mydata_rot="60.9" mydata_centroid="-107.583111844,1451.34764937"/>
  <polygon id="185021232" class="tile" points="-174.754908073,1496.14536468 -126.553834993,1496.80602517 -126.562254898,1446.54627559 -174.089786188,1428.90497437 -174.754908073,1496.14536468 " mydata_rot="-53.8" mydata_centroid="-151.650888173,1466.9379384"/>
  <polygon id="222789631" class="tile" points="-176.509330113,1428.90497437 -183.882363666,1429.02426721 -183.952444011,1505.48884173 -175.754908073,1505.08022299 -176.509330113,1428.90497437 " mydata_rot="40.5" mydata_centroid="-180.023958875,1467.79916554"/>
  <polygon id="238383868" class="tile" points="-307.400554825,1587.22949589 -305.741787376,1587.3908974 -304.616582036,1587.67798473 -304.35149291,1588.38625047 -304.39950602,1589.11879556 -304.055544356,1590.16437198 -303.378916607,1590.57317814 -302.533229148,1590.57373702 -284.660080104,1590.83969891 -283.363882753,1590.60110183 -283.102384958,1589.34088825 -283.02155912,1584.21393612 -282.79903092,1582.89341658 -281.891217102,1581.72865996 -280.759807156,1580.94001629 -279.43579558,1580.55930441 -244.428765475,1581.2747647 -243.399792325,1582.09785115 -242.896407345,1583.13874986 -243.010685838,1584.89323222 -232.003974364,1585.1580259 -231.997675506,1583.34783928 -231.356309718,1582.16514373 -230.003209145,1581.68643171 -214.339616572,1582.05547833 -210.480966712,1583.25174125 -207.660135315,1585.3468707 -205.758233372,1588.0371185 -204.710408584,1591.35811188 -204.842041533,1606.52677315 -205.0221091,1610.61054203 -206.872328673,1613.58501099 -209.867794578,1615.57753542 -212.856690558,1616.13813041 -213.136128194,1628.02520427 -184.952444011,1628.75962325 -186.855504954,1614.96434442 -189.68747638,1615.06479947 -189.930313336,1528.62755133 -188.685258178,1528.6439699 -189.018250772,1490.90129549 -185.040086895,1428.90497437 -189.493247228,1429.4111246 -190.398669275,1436.19470824 -194.152000199,1435.70039946 -196.667423925,1475.93010415 -198.208951875,1475.77705142 -198.76847083,1490.68284164 -195.294689856,1491.07424775 -195.361261173,1503.89169095 -209.733848801,1503.47488091 -220.031695642,1496.25357342 -224.549320346,1493.96983974 -230.172534908,1492.81732041 -269.638142265,1491.50261686 -270.885716644,1491.21434561 -271.612398825,1489.99197122 -271.941561447,1485.77042547 -271.008271505,1468.33464037 -281.090074479,1467.8679603 -283.130889896,1469.58263374 -287.256510258,1469.82633577 -304.485889478,1468.83327289 -304.536685275,1473.71175088 -304.766919803,1477.71643268 -299.990263245,1478.1008637 -294.330947873,1479.21443176 -289.696097263,1481.6901142 -287.419081673,1484.10883267 -286.110170806,1486.89303769 -297.709239368,1486.56068231 -297.859751201,1489.27220601 -297.937610801,1490.99876662 -293.709836169,1491.34670097 -285.31749949,1491.69485923 -285.735358252,1503.76380386 -286.943927626,1505.7502348 -289.129387487,1506.87525244 -304.039240494,1505.9008722 -306.539290778,1569.6992607 -305.868048348,1569.7369532 -306.335257786,1575.85107889 -306.536538074,1578.46140803 -304.517380676,1578.57837466 -304.749585228,1583.25128925 -307.199414143,1583.13924001 -307.312800153,1585.47764017 -307.400554825,1587.22949589 " mydata_rot="-35.6" mydata_centroid="-243.657381199,1538.68390262"/>
  <polygon id="359863729" class="tile" points="-325.79385091,1429.04744643 -317.320350565,1428.90497437 -316.939594481,1433.29800262 -316.302844584,1434.0398459 -314.532854082,1433.86574863 -311.539579319,1440.09209128 -308.400554825,1442.7064157 -322.581974246,1469.30748968 -329.859278083,1465.66817222 -329.881630929,1433.69470205 -325.696424342,1433.67745669 -325.79385091,1429.04744643 " mydata_rot="56.5" mydata_centroid="-321.605978771,1447.57910218"/>
  <polygon id="59385053" class="tile" points="-348.151430491,1510.06674581 -330.88850547,1510.47148261 -330.881630929,1428.90497437 -349.843202429,1429.60500611 -348.151430491,1510.06674581 " mydata_rot="38.5" mydata_centroid="-339.927497378,1469.12450331"/>
  <polygon id="376131194" class="tile" points="-350.843202429,1527.23679808 -367.535427021,1542.83329221 -366.04217767,1540.17712117 -365.774181253,1538.52541973 -366.526829796,1537.25030015 -367.853409105,1536.33856745 -371.87142036,1536.17079367 -371.791046376,1429.14586251 -362.062123062,1428.90497437 -361.618399723,1474.41398101 -362.24101669,1475.6618678 -362.799905493,1476.79344516 -362.521544804,1478.28697028 -361.566799721,1479.668972 -361.451106374,1491.90602006 -361.334740702,1494.59041672 -360.609332687,1495.74008087 -359.023143946,1496.28587169 -353.96510017,1488.60798322 -351.923507211,1490.22460859 -350.843202429,1527.23679808 " mydata_rot="-34.5" mydata_centroid="-363.968599597,1491.74652154"/>
  <polygon id="237465294" class="tile" points="-372.894811306,1428.90497437 -391.151229644,1428.93600651 -391.133850925,1448.84450912 -391.133145745,1453.45837445 -372.87142036,1453.41766488 -372.872855045,1451.51018117 -372.894811306,1428.90497437 " mydata_rot="8.5" mydata_centroid="-382.012480552,1441.17969759"/>
  <polygon id="285497482" class="tile" points="-392.151229644,1428.90497437 -392.207260969,1435.81673618 -392.18625571,1445.75571999 -394.695342341,1448.2149702 -404.092364472,1448.27634117 -404.050380082,1455.0814439 -394.975315151,1455.02556174 -392.1708842,1457.89402281 -392.154671557,1466.60242494 -398.918052973,1473.03394697 -418.1737255,1452.37563171 -409.343216212,1443.63529704 -412.416958413,1440.64857751 -402.446426973,1430.52035056 -399.651227099,1430.70272931 -397.679859231,1430.5152965 -396.863393451,1430.43868095 -392.151229644,1428.90497437 " mydata_rot="-67.1" mydata_centroid="-402.259737279,1450.06336387"/>
  <polygon id="307958490" class="tile" points="-449.899926892,1471.0178907 -442.631275434,1470.88840996 -426.636995005,1470.59745205 -419.555829201,1470.47610461 -419.519271802,1468.97828778 -419.460614499,1449.43867322 -419.1737255,1438.10744303 -419.208192323,1432.19444246 -419.357518364,1430.49653872 -422.955384809,1430.28971331 -422.963943517,1428.90497437 -434.005490334,1428.93851638 -449.912725664,1430.25861134 -449.911429995,1434.80047282 -449.910727849,1440.8918064 -449.905260302,1455.30298917 -449.902614187,1460.25640593 -449.901680622,1464.73410642 -449.899926892,1471.0178907 " mydata_rot="47.1" mydata_centroid="-434.653326789,1450.04808367"/>
  <polygon id="412123950" class="tile" points="-450.912725664,1428.90497437 -465.562695664,1429.20307418 -465.116822596,1457.6478843 -460.764335225,1458.05708118 -461.019584923,1463.01791323 -460.733867122,1468.29740019 -472.556907897,1468.35642643 -472.557612822,1462.87537676 -467.89918377,1462.93010827 -468.235243053,1456.13743663 -494.34600425,1456.55159021 -494.51268169,1466.07723115 -475.576504309,1466.43740323 -475.323363468,1468.34972618 -480.292055296,1468.2891619 -480.337437184,1486.76432466 -450.942545462,1486.33595164 -451.115974744,1455.47001598 -455.108532029,1455.6834295 -455.053570614,1453.59679031 -451.076794877,1452.98925848 -450.912725664,1428.90497437 " mydata_rot="29.5" mydata_centroid="-465.716668347,1462.42580773"/>
  <polygon id="326464534" class="tile" points="-514.065816867,1490.1210726 -502.717433293,1489.93970008 -495.51268169,1430.44506769 -514.066506974,1428.90497437 -514.065816867,1490.1210726 " mydata_rot="-69.7" mydata_centroid="-506.472982156,1457.39954655"/>
  <polygon id="252079923" class="tile" points="-530.203092638,1431.22070515 -520.205057276,1431.21275156 -520.206322627,1428.90969797 -515.07095801,1428.90497437 -515.066506974,1461.7292568 -519.428045264,1461.73317721 -519.425301666,1466.07820666 -530.197169441,1466.08696303 -530.203092638,1431.22070515 " mydata_rot="-93.9" mydata_centroid="-522.716818282,1447.66971552"/>
  <polygon id="266170548" class="tile" points="-549.435573841,1453.04955764 -531.203092638,1453.17875795 -531.294238136,1445.87563441 -531.235925991,1431.03171182 -531.21191542,1429.05088693 -540.551092879,1428.9468145 -549.258861388,1428.90497437 -549.435573841,1453.04955764 " mydata_rot="-29.3" mydata_centroid="-540.303183467,1441.05705321"/>
  <polygon id="236776861" class="tile" points="-550.435573841,1428.90497437 -554.630764042,1428.95354458 -553.930946836,1501.12154105 -550.525940312,1500.87359671 -550.435573841,1428.90497437 " mydata_rot="8.0" mydata_centroid="-552.387091443,1463.71618187"/>
  <polygon id="103109950" class="tile" points="-5.20082264878,1769.84468043 -2.33055572659,1782.79477728 -0.25897942856,1797.20262492 -0.200198216736,1818.28552644 -0.301729831472,1840.7940543 -10.2275834475,1862.40705952 -16.6269633483,1863.03110045 -24.7637971468,1863.78364339 -25.937491364,1865.49730575 -27.3924900647,1867.62414123 -30.0631523386,1871.52711595 -35.5801093943,1870.33358832 -38.9842943877,1867.98810337 -41.8155878518,1865.12571253 -46.1232754581,1858.35256305 -72.2578131985,1787.06767101 -95.6022470802,1687.82086682 -88.1152601771,1656.03055336 -77.1232657012,1652.88077687 -76.2152323287,1651.71934557 -75.8751529533,1649.87484556 -76.5624982975,1647.70094396 -73.5226981737,1646.48468737 -71.8002905756,1651.40109061 -65.3639501888,1649.5573403 -62.7985214096,1648.8177203 -64.0381668113,1643.86012566 -55.1335557103,1641.16382669 -40.3183087818,1687.09401273 -12.6244952716,1679.44999126 -15.8965986192,1668.60977955 -6.53619486205,1665.92924602 -16.6914810799,1632.50776051 -2.48802423924,1628.75962325 0.0,1645.73929277 -4.38744061925,1666.98017817 -16.0933056816,1689.99491564 -22.2906834975,1713.65019917 -15.7636444643,1735.10970703 -14.3621884268,1739.72558896 -6.11155689396,1766.83313128 -5.20082264878,1769.84468043 " mydata_rot="-13.1" mydata_centroid="-43.738126240883226,1752.46006856"/>
  <polygon id="288437716" class="tile" points="-97.6022470802,1648.94869031 -110.196609985,1648.95963294 -110.198591074,1644.11225139 -114.713055756,1644.1084966 -114.659080376,1643.08475168 -114.655936998,1637.97931948 -114.817037515,1636.40539477 -114.818779733,1631.1567881 -114.234286177,1631.14833239 -114.235514408,1628.75962325 -101.759611869,1628.78360565 -97.6132032424,1629.02565957 -97.6022470802,1648.94869031 " mydata_rot="-28.9" mydata_centroid="-105.724395444,1638.38077907"/>
  <polygon id="375468809" class="tile" points="-142.604126006,1769.39798373 -115.818779733,1755.77067398 -163.708370614,1663.01443692 -161.667769356,1661.92957721 -160.828391638,1663.42782842 -124.011126757,1644.42763288 -125.045474408,1642.70708767 -115.861795799,1637.79835761 -120.210434851,1628.75962325 -129.319486596,1632.9743972 -191.590954301,1664.92401302 -189.475766646,1669.10142854 -193.557903749,1671.13609491 -142.604126006,1769.39798373 " mydata_rot="-62.5" mydata_centroid="-153.429334103,1701.17063285"/>
  <polygon id="163806021" class="tile" points="-199.309740935,1630.29057603 -199.210690988,1641.90074501 -195.605281355,1642.09253344 -194.56122495,1643.15954422 -194.557903749,1628.75962325 -195.990927481,1629.94981411 -199.309740935,1630.29057603 " mydata_rot="11.6" mydata_centroid="-196.843883021,1635.9873876"/>
  <polygon id="201148566" class="tile" points="-200.309740935,1629.90514891 -208.042839384,1629.18961498 -216.31696604,1628.75962325 -216.126492107,1753.64607432 -205.379633026,1752.7240127 -200.309740935,1629.90514891 " mydata_rot="7.7" mydata_centroid="-209.469888214,1687.12388371"/>
  <polygon id="285497562" class="tile" points="-230.491859446,1636.47184863 -228.476711775,1634.32927864 -224.917271529,1633.54298085 -224.982307057,1628.81686663 -218.432673848,1628.75962325 -218.550777535,1635.25811156 -217.31696604,1635.11404742 -217.420787697,1639.5690909 -219.056917308,1639.73349735 -219.307639119,1642.75271714 -217.467754739,1642.77987377 -217.59554289,1646.83050143 -219.204647462,1646.51804917 -219.436763953,1649.93203701 -217.320639161,1649.98562807 -217.523889044,1654.88574749 -219.444218913,1654.82327777 -219.702902091,1657.64205513 -217.471720741,1658.32970101 -217.690602209,1662.15068823 -219.227593285,1662.54826674 -219.260567486,1664.393853 -218.010837023,1664.65067205 -217.961728721,1668.97589946 -219.28373241,1674.65413835 -221.711267893,1675.28810985 -224.452639809,1676.00314749 -224.411705169,1674.35800324 -227.814855689,1673.45496749 -227.161815027,1670.41540571 -224.139242498,1664.40409958 -226.899026127,1664.26490968 -226.753980615,1657.48647375 -225.54710961,1657.62235783 -225.590188325,1651.73149056 -223.508962817,1651.86458854 -224.312095041,1648.38275917 -225.617346714,1646.24150709 -228.53170606,1643.78780137 -230.52922368,1642.32740391 -231.324398633,1639.04601517 -230.491859446,1636.47184863 " mydata_rot="66.3" mydata_centroid="-222.759628341,1650.97132786"/>
  <polygon id="201276051" class="tile" points="-232.348704665,1702.16301143 -240.4706498,1702.05691115 -242.83957368,1702.02767395 -248.405191233,1702.12397923 -248.60143532,1692.09666953 -248.840539765,1676.35945359 -251.692350301,1676.24442872 -251.495025964,1679.80994807 -281.927164276,1679.94201017 -290.677203457,1678.46417647 -287.2403729,1672.12811114 -282.54227986,1663.45655823 -252.487698763,1662.87647881 -252.494835048,1667.32878047 -243.56364379,1667.27705378 -242.387837699,1665.79732083 -242.53324051,1649.42078483 -244.295332831,1633.72078417 -241.787073435,1628.75962325 -237.351124341,1629.04991969 -237.541046201,1649.76149596 -237.5566611,1651.4005135 -232.615669658,1651.53352988 -232.326701191,1666.50402457 -232.324398633,1670.12285355 -232.348704665,1702.16301143 " mydata_rot="-78.5" mydata_centroid="-251.70269277,1672.58995893"/>
  <polygon id="185193628" class="tile" points="-291.713057253,1628.75962325 -291.677203457,1701.58052032 -306.883088104,1701.50245164 -306.923288753,1643.30127715 -304.357247289,1643.29262383 -304.360090762,1631.03087602 -297.263943488,1631.01922376 -297.268104631,1628.76772162 -291.713057253,1628.75962325 " mydata_rot="4.7" mydata_centroid="-299.052430979,1666.7153816"/>
  <polygon id="283808777" class="tile" points="-307.923288753,1673.45306067 -339.066253242,1673.95898167 -338.992500872,1628.75962325 -310.986055931,1629.59534857 -309.128232514,1635.00588232 -308.303630002,1646.41824075 -307.923288753,1673.45306067 " mydata_rot="-18.6" mydata_centroid="-323.841642116,1651.70003545"/>
  <polygon id="393413919" class="tile" points="-344.116044932,1628.75962325 -344.02111626,1662.15482577 -340.066253242,1661.68922485 -340.355902375,1677.00396571 -344.078834391,1677.6598188 -344.107689416,1680.80642119 -347.188295363,1681.29813799 -354.990380327,1682.52777589 -354.95815147,1631.51648526 -346.430238833,1630.22959405 -344.116044932,1628.75962325 " mydata_rot="5.2" mydata_centroid="-348.802855715,1657.43053446"/>
  <polygon id="325008928" class="tile" points="-355.998968773,1628.99197181 -355.990380327,1654.82461684 -371.494424307,1654.66249392 -371.237726577,1649.43703855 -372.771502541,1649.41290019 -372.598379316,1628.75962325 -355.998968773,1628.99197181 " mydata_rot="6.0" mydata_centroid="-364.218261401,1641.65693936"/>
  <polygon id="240737271" class="tile" points="-416.863026431,1628.75962325 -373.845099393,1628.82900612 -373.77683836,1668.79484755 -373.771502541,1672.03150306 -382.685896187,1672.06175873 -416.93706216,1672.19684115 -416.863026431,1628.75962325 " mydata_rot="8.4" mydata_centroid="-395.373762491,1650.46567261"/>
  <polygon id="285943989" class="tile" points="-528.845587641,1937.43478174 -544.050871514,1972.63784444 -543.555285401,2000.77609794 -491.197433556,1997.93848579 -486.926215066,1998.43334167 -475.188697232,2004.01333528 -464.552928325,2131.31498562 -462.148299712,2148.00721584 -456.978094429,2191.79863196 -456.970943818,2206.27139426 -452.227003692,2250.37186781 -449.02039981,2289.75940538 -448.022931229,2301.63619263 -449.862677846,2310.8446187 -442.579952805,2306.91890019 -429.826230576,2274.84787559 -422.406481642,2238.50902617 -418.264731146,2196.44732028 -418.489538621,2156.246054 -418.347847613,2117.84647014 -418.301755461,2074.93752716 -419.102476537,2028.41536522 -419.688404153,1937.8883929 -417.93706216,1870.5304483 -423.081441246,1819.7566854 -420.048058062,1767.42873231 -420.701026669,1730.16194592 -420.866530807,1709.17945823 -423.171319055,1677.28083855 -427.403407993,1628.75962325 -442.596983178,1632.4087565 -449.531886323,1662.08196802 -455.807093411,1693.97762751 -465.573944111,1737.95916684 -472.200289765,1766.30716862 -484.707999888,1806.89866783 -492.795434236,1833.41355126 -503.236766596,1864.94443409 -513.114972614,1894.31651166 -517.790791533,1909.35482835 -521.608442149,1920.15117301 -517.824127822,1923.19394643 -524.638986893,1936.67148514 -528.845587641,1937.43478174 " mydata_rot="81.7" mydata_centroid="-456.034265332,1950.2412777"/>
  <polygon id="217991140" class="tile" points="-48.5504479861,2310.93741345 0.0,2310.8446187 -0.0385983880609,2360.78584448 -48.5864661539,2360.87247692 -48.5504479861,2310.93741345 " mydata_rot="68.5" mydata_centroid="-24.29337911062276,2335.85986669"/>
  <polygon id="315400368" class="tile" points="-50.5864661539,2335.16758748 -68.9464346668,2335.26223924 -68.9402248332,2327.55162348 -68.9280149093,2321.23281877 -68.9286895083,2314.81323109 -68.8270114304,2310.8446187 -59.2346499359,2310.98455062 -50.7070500815,2310.96480436 -50.6858655516,2315.0466088 -50.6572145822,2321.25200326 -50.6188646706,2327.65180875 -50.5864661539,2335.16758748 " mydata_rot="66.0" mydata_centroid="-59.7997437104,2323.09966759"/>
  <polygon id="259448705" class="tile" points="-104.094175599,2322.33289578 -127.162614226,2322.49743688 -127.126896674,2324.97256263 -131.648357115,2325.03890959 -131.564190622,2404.75090313 -94.741902338,2405.15245299 -94.6243218407,2399.81651382 -90.3303426353,2399.9145455 -90.6947428789,2346.57478166 -69.9464346668,2346.21250166 -70.6208733587,2310.8446187 -103.994670886,2311.93338986 -104.094175599,2322.33289578 " mydata_rot="48.5" mydata_centroid="-105.42936361,2356.12405016"/>
  <polygon id="266174996" class="tile" points="-133.294621746,2310.8446187 -132.727344164,2357.90331354 -137.76902157,2358.24516344 -132.677848713,2365.25733534 -132.648357115,2366.94690784 -135.046547899,2367.11569196 -157.305895863,2367.07669837 -157.26139011,2341.00983234 -149.525801945,2340.87480715 -149.700300507,2311.29798556 -133.294621746,2310.8446187 " mydata_rot="-89.0" mydata_centroid="-143.577653257,2341.55538653"/>
  <polygon id="178999285" class="tile" points="-158.313169452,2318.51807541 -180.831182767,2310.8446187 -182.311081069,2325.0704073 -166.955145285,2325.84482568 -167.341323679,2332.83605514 -167.823904664,2341.76920969 -168.356102968,2351.49775787 -168.87145022,2361.08350309 -160.331186428,2361.21337285 -158.305895863,2361.30849071 -158.313169452,2318.51807541 " mydata_rot="50.0" mydata_centroid="-166.601234312,2333.69136111"/>
  <polygon id="286996658" class="tile" points="-239.437551105,2424.42299167 -215.374706657,2449.2067617 -211.828994855,2450.65451479 -207.71326237,2449.42531575 -188.537474567,2426.44373855 -185.693420349,2421.82970226 -184.699432307,2416.51058048 -183.311081069,2374.857804 -184.974855858,2372.04787778 -187.878268401,2369.49777962 -186.725268092,2337.5939718 -187.47766481,2333.15499377 -189.717831375,2329.50962815 -186.394720701,2325.46778762 -203.440124574,2310.8446187 -214.678353767,2326.27534865 -218.10145994,2328.18840543 -228.48954258,2335.73514002 -239.420608126,2345.92865063 -215.073712124,2371.56115813 -194.126100918,2336.40782677 -195.78354572,2376.39690063 -239.437551105,2424.42299167 " mydata_rot="-71.5" mydata_centroid="-206.988729868,2384.20361054"/>
  <polygon id="255803281" class="tile" points="-240.470192867,2339.44428824 -240.443670128,2320.91514265 -240.437551105,2310.8446187 -260.494165324,2317.68318466 -251.779540429,2342.35812994 -240.470192867,2339.44428824 " mydata_rot="-63.0" mydata_centroid="-248.443771637,2326.30006438"/>
  <polygon id="336165150" class="tile" points="-261.525455073,2310.88949174 -261.494165324,2350.83211006 -276.144091166,2350.79483544 -276.171046855,2310.8446187 -261.525455073,2310.88949174 " mydata_rot="-29.7" mydata_centroid="-268.833921443,2330.84124956"/>
  <polygon id="240194175" class="tile" points="-277.7619743,2310.8446187 -277.171046855,2357.9165164 -308.555383443,2358.20220638 -308.53881315,2340.07411518 -307.913757706,2310.87241679 -296.815474487,2310.99387935 -277.7619743,2310.8446187 " mydata_rot="-13.8" mydata_centroid="-292.92016418,2334.65548456"/>
  <polygon id="158042024" class="tile" points="-323.850609173,2313.49168101 -314.596616912,2313.45961588 -314.592281039,2310.86067983 -309.555383443,2310.8446187 -309.573261167,2340.42596949 -323.864133463,2340.47412199 -323.850609173,2313.49168101 " mydata_rot="33.8" mydata_centroid="-316.558990995,2326.47195881"/>
  <polygon id="296687394" class="tile" points="-324.886447699,2310.8446187 -324.885505891,2317.15978794 -324.864133463,2361.69160738 -328.662121716,2361.63784699 -346.238202214,2335.82061475 -344.179400267,2333.59940806 -324.886447699,2310.8446187 " mydata_rot="7.3" mydata_centroid="-332.0786559,2337.54538781"/>
  <polygon id="286087282" class="tile" points="-347.276201168,2443.31056222 -366.285919419,2443.00004286 -373.383192041,2435.57602666 -373.947637539,2433.17719919 -372.305688065,2432.18364084 -370.621348392,2433.2320642 -369.797861693,2437.63232646 -351.950426756,2437.25127387 -352.213965946,2432.17581181 -347.238202214,2431.93089836 -347.366738856,2314.14614382 -352.047969082,2314.11310201 -352.204375673,2310.8446187 -372.234872655,2311.17960135 -372.596510327,2315.34719247 -375.221332418,2315.95428162 -380.146729447,2315.85106679 -401.743687582,2338.31566296 -402.538834169,2340.16681969 -402.312456389,2357.86094175 -400.211595029,2357.46777623 -400.286383477,2363.16813262 -403.103098159,2362.78616222 -403.637635069,2361.7453612 -410.196509105,2362.06371657 -410.108571282,2383.88355545 -411.115902773,2384.92769706 -414.256663603,2381.87015609 -425.6444458,2392.9853785 -421.377385702,2397.19578222 -424.677032558,2399.97017716 -360.142181762,2464.82705615 -351.960804742,2456.07672533 -347.600075202,2456.79360953 -347.276201168,2443.31056222 " mydata_rot="10.6" mydata_centroid="-376.355128624,2383.00685201"/>
  <polygon id="266149315" class="tile" points="-444.647657077,2310.8446187 -445.410684896,2310.84479839 -445.402373671,2335.0293123 -426.6444458,2335.01999694 -426.655383653,2310.85406159 -444.647657077,2310.8446187 " mydata_rot="-28.9" mydata_centroid="-436.029456183,2322.93718608"/>
  <polygon id="395655360" class="tile" points="-446.517944468,2310.8446187 -456.57395257,2310.97120888 -456.589633963,2315.97372578 -456.614507229,2321.32225191 -456.637951284,2326.73812849 -456.659201927,2332.05231571 -456.682473047,2337.35329827 -456.698844666,2342.81539102 -456.764871629,2349.75133273 -456.401160757,2349.74973247 -456.437992232,2359.66100628 -453.16055306,2359.67301317 -449.741299235,2359.68359012 -449.78355899,2359.29139877 -449.777760394,2355.09446707 -446.84769117,2355.09881679 -446.837134128,2349.7727521 -446.410684896,2349.77506535 -446.414711903,2342.61335137 -446.435227672,2337.25825691 -446.44867126,2331.94937866 -446.464554118,2326.5665476 -446.481619895,2321.2920082 -446.50213524,2315.93691367 -446.517944468,2310.8446187 " mydata_rot="-81.3" mydata_centroid="-451.659065968,2334.49547213"/>
  <polygon id="220792586" class="tile" points="-465.855553604,2310.8446187 -465.888254907,2331.39512225 -457.764871629,2330.7525904 -458.483665104,2311.14525239 -465.855553604,2310.8446187 " mydata_rot="61.1" mydata_centroid="-462.025038081,2321.20076972"/>
  <polygon id="108325092" class="tile" points="-466.93136861,2378.55250863 -476.55409475,2378.51149782 -476.527291509,2350.62280258 -499.311234002,2350.52060711 -499.279271552,2310.8446187 -466.888254907,2310.98493452 -466.93136861,2378.55250863 " mydata_rot="-43.4" mydata_centroid="-481.135369663,2336.59648448"/>
  <polygon id="383663645" class="tile" points="-533.759284636,2310.8446187 -529.447979036,2311.01048535 -529.560609496,2313.49982398 -521.372239654,2313.7558578 -517.75737647,2313.03203714 -516.5763289,2317.73595758 -507.524681641,2315.84034779 -500.311234002,2350.21730401 -508.055412363,2352.40057237 -506.827553062,2356.53192783 -524.571047662,2366.54558389 -526.48134304,2363.16547354 -530.228158784,2357.67529744 -534.259128139,2357.52135681 -534.257210271,2334.21337256 -533.759284636,2310.8446187 " mydata_rot="86.2" mydata_centroid="-519.631505686,2337.99636625"/>
  <polygon id="392694297" class="tile" points="0.0,2547.06603052 -29.2817150423,2505.22510657 -33.6433773531,2498.64123898 -57.7086013209,2464.82705615 -73.9912605101,2476.33024304 -76.7657542599,2478.21661648 -79.1791839341,2479.85190497 -96.6167460686,2492.2263889 -63.0621142326,2539.89584386 -61.8061701536,2539.1099479 -55.6467242433,2537.88274258 -48.3703539653,2540.77357927 -41.1778089339,2551.44271677 -42.3236888045,2555.15979488 -96.5630103657,2593.64380722 -93.187014675,2598.31278823 -91.4476712896,2600.71967868 -89.5420968069,2603.35639672 -86.0216057511,2600.76180963 -82.7486718329,2605.23753167 -66.707564774,2593.95534729 -59.1058688192,2604.82702701 -38.9639204895,2590.74356224 -46.6226933755,2579.84162276 0.0,2547.06603052 " mydata_rot="44.0" mydata_centroid="-51.63249547610237,2533.29777195"/>
  <polygon id="184999234" class="tile" points="-113.331980071,2519.23818928 -113.324674304,2513.12710612 -113.297076665,2465.49118723 -113.297145869,2464.82705615 -98.6167460686,2464.82755572 -98.6416971195,2507.36252478 -98.6515829748,2519.23866985 -113.331980071,2519.23818928 " mydata_rot="8.1" mydata_centroid="-105.972845767,2492.03259877"/>
  <polygon id="412450780" class="tile" points="-117.223217225,2599.8806987 -130.806131124,2600.00897953 -130.03974383,2531.2427651 -125.809100812,2531.15796412 -125.554475112,2523.90690843 -135.947729243,2523.861294 -136.155113134,2520.908803 -139.344388672,2521.02908114 -139.319488613,2465.00111618 -132.081550323,2465.15589129 -123.898451458,2464.82705615 -124.534359634,2508.35222702 -117.682995849,2507.8430348 -114.331980071,2511.31841648 -114.415972579,2518.93303476 -115.580297786,2519.78176753 -117.223217225,2599.8806987 " mydata_rot="-61.1" mydata_centroid="-126.626133008,2529.95176753"/>
  <polygon id="375388301" class="tile" points="-140.344388672,2466.77891053 -144.185316625,2464.82705615 -162.172596897,2464.84407256 -162.25122813,2477.04612033 -149.5094582,2489.60785785 -140.353613978,2486.0477906 -140.344388672,2466.77891053 " mydata_rot="-82.8" mydata_centroid="-150.446125794,2475.43084905"/>
  <polygon id="315569670" class="tile" points="-163.254298318,2464.83306825 -163.25122813,2477.89250025 -168.32684244,2477.88481315 -168.323446895,2464.82705615 -163.254298318,2464.83306825 " mydata_rot="-14.5" mydata_centroid="-165.788900027,2471.36074667"/>
  <polygon id="395180438" class="tile" points="-169.32684244,2489.11243674 -195.637196757,2511.0393468 -198.224421093,2507.9470511 -182.120443295,2494.52078973 -198.214000275,2475.31701521 -194.866025976,2472.53015837 -196.533569945,2470.54413115 -189.680984346,2464.82705615 -169.32684244,2489.11243674 " mydata_rot="-29.2" mydata_centroid="-185.042790593,2485.1021344"/>
  <polygon id="280403703" class="tile" points="-199.345278373,2656.32938623 -199.224421093,2464.82705615 -265.474619425,2469.10138875 -265.663728165,2492.63632263 -265.904885628,2522.60501264 -268.708659218,2524.10407561 -264.869459513,2531.29329636 -271.005513646,2534.56595268 -265.141255164,2545.56581776 -265.095129495,2564.60499308 -265.008607969,2601.74934216 -236.640743541,2640.72440116 -211.04970439,2651.43746693 -199.345278373,2656.32938623 " mydata_rot="-8.7" mydata_centroid="-230.634259956,2552.28188147"/>
  <polygon id="330741650" class="tile" points="-278.344968429,2512.48867142 -278.344933389,2508.38394079 -272.010722216,2508.40813325 -272.005513646,2464.86434931 -281.635973778,2464.82705615 -281.641202215,2512.47554324 -278.344968429,2512.48867142 " mydata_rot="-28.9" mydata_centroid="-276.922311561,2487.36176706"/>
  <polygon id="392694269" class="tile" points="-282.64807342,2464.82705615 -286.32995683,2464.83120862 -286.329687816,2473.75260773 -282.641202215,2473.74744414 -282.64807342,2464.82705615 " mydata_rot="8.7" mydata_centroid="-284.487264058,2469.29091114"/>
  <polygon id="306425803" class="tile" points="-314.158598696,2509.39801788 -312.794418615,2465.11325885 -287.394106447,2464.82705615 -287.369114475,2484.38340617 -287.356319149,2490.19450485 -287.344286706,2504.30747997 -287.33370087,2507.93854287 -287.32995683,2510.25947826 -314.158598696,2509.39801788 " mydata_rot="42.2" mydata_centroid="-300.368113403,2487.60656144"/>
  <polygon id="364968387" class="tile" points="-315.158598696,2525.00451097 -315.760529092,2513.4910128 -315.677823094,2475.62956854 -315.199386796,2464.82705615 -327.345870718,2472.77842476 -328.914328789,2473.63673425 -330.384751319,2475.42521559 -330.681077615,2477.49355607 -331.690661805,2509.03970138 -330.968735971,2511.64949901 -329.953093775,2514.52675971 -317.321778272,2523.77933958 -315.158598696,2525.00451097 " mydata_rot="-67.1" mydata_centroid="-322.804642204,2494.88741541"/>
  <polygon id="220953297" class="tile" points="-337.057167413,2470.4366751 -332.690661805,2470.39951692 -332.741087667,2466.37015797 -332.73771905,2464.85159797 -337.054310486,2464.82705615 -337.057167413,2470.4366751 " mydata_rot="-43.8" mydata_centroid="-334.892978056,2467.63488446"/>
  <polygon id="241824865" class="tile" points="-359.455956612,2465.46185856 -375.228121537,2464.82705615 -375.206323307,2509.4010679 -358.463927128,2525.53302076 -345.261692023,2518.38142227 -339.708320059,2509.34552577 -338.057167413,2475.72192865 -359.367747716,2473.45175686 -359.455956612,2465.46185856 " mydata_rot="-58.7" mydata_centroid="-357.889547851,2494.32281266"/>
  <polygon id="185610603" class="tile" points="-376.2313185,2474.04330419 -380.264244202,2474.0206941 -380.385706224,2464.86389124 -376.228121537,2464.82705615 -376.2313185,2474.04330419 " mydata_rot="40.2" mydata_centroid="-378.275297805,2469.41535829"/>
  <polygon id="185632366" class="tile" points="-404.355328907,2464.91929219 -404.357370872,2474.52251074 -392.201956382,2474.47995537 -392.203343387,2483.04521856 -396.597220349,2483.06340756 -396.602719505,2489.07333021 -387.144363957,2489.04051308 -381.388351032,2489.02310174 -381.385706224,2464.82705615 -404.355328907,2464.91929219 " mydata_rot="40.5" mydata_centroid="-390.603276603,2475.44954496"/>
  <polygon id="219041284" class="tile" points="-428.79801758,2465.76549627 -414.145927107,2464.82705615 -413.301678513,2489.27539679 -405.601100085,2492.28853303 -405.357370872,2499.16857821 -428.815522963,2499.83370648 -427.978171809,2490.17754026 -428.79801758,2465.76549627 " mydata_rot="-79.7" mydata_centroid="-419.667161612,2483.99649323"/>
  <polygon id="393391808" class="tile" points="-429.905878149,2464.89952821 -451.828478472,2464.82705615 -451.860399854,2500.87719686 -429.815522963,2500.82002019 -429.905878149,2464.89952821 " mydata_rot="-0.9" mydata_centroid="-440.859158766,2482.87264202"/>
  <polygon id="201148567" class="tile" points="-466.050913365,2464.82705615 -452.860399854,2480.47398772 -459.374195328,2485.82591561 -466.074814897,2491.34214983 -466.050913365,2464.82705615 " mydata_rot="-39.4" mydata_centroid="-461.662490226,2478.87965707"/>
  <polygon id="421260510" class="tile" points="0.0,2746.50536039 -113.245295453,2732.68893745 -116.323593774,2751.19711384 -121.657308465,2752.24329306 -121.424095146,2733.1423869 -118.452827963,2716.03561289 -127.064170877,2714.72399265 -120.397615878,2660.99654858 -136.340978818,2656.32938623 -140.001887858,2706.73537059 -138.828704227,2711.84812575 -137.221356765,2718.83755979 -133.930741083,2775.0167636 -139.850313154,2850.04808591 -83.9336669387,2856.77617475 -82.7830500785,2848.40145493 -78.2482138082,2849.28363488 -58.5940238535,2853.12592459 -59.2665988466,2860.27981315 -16.5165943556,2851.08213711 -3.36537633408,2769.07466386 0.0,2746.50536039 " mydata_rot="51.9" mydata_centroid="-77.0409756585873,2788.35293881"/>
  <polygon id="379656952" class="tile" points="-142.023135253,2656.36401 -142.021389958,2668.28939077 -142.001887858,2671.92599318 -151.876688539,2671.94385241 -151.882922544,2670.63108987 -151.883801821,2656.32938623 -144.552855642,2656.35437814 -142.023135253,2656.36401 " mydata_rot="-29.3" mydata_centroid="-146.954167712,2664.1420876"/>
  <polygon id="314183372" class="tile" points="-176.815778847,2656.32938623 -177.028605267,2700.73512847 -152.883801821,2700.8159193 -152.928750897,2656.41331871 -176.815778847,2656.32938623 " mydata_rot="62.9" mydata_centroid="-164.914490725,2678.61315417"/>
  <polygon id="270200274" class="tile" points="-178.028605267,2656.46915239 -178.079525523,2678.69176771 -185.040776196,2678.46040524 -185.056342006,2656.32938623 -178.028605267,2656.46915239 " mydata_rot="26.3" mydata_centroid="-181.548844522,2667.47019587"/>
  <polygon id="185515239" class="tile" points="-204.910583739,2669.29108683 -204.881836617,2673.1225017 -204.759521906,2680.32583994 -186.056342006,2680.12368001 -186.077013408,2656.353581 -188.285144417,2656.34356898 -191.109045625,2656.32938623 -191.282216237,2669.52340664 -195.903494361,2669.44705215 -200.458707252,2669.36829243 -204.910583739,2669.29108683 " mydata_rot="-50.6" mydata_centroid="-193.799063996,2671.86157012"/>
  <polygon id="343290227" class="tile" points="-231.7151569,2661.14536935 -231.720148573,2699.41074752 -216.299177437,2698.11692425 -205.910583739,2695.31149952 -216.525678299,2656.32938623 -231.7151569,2661.14536935 " mydata_rot="63.4" mydata_centroid="-221.06120214,2679.94811288"/>
  <polygon id="185193618" class="tile" points="-232.771468689,2777.42494339 -232.720148573,2661.87869262 -232.722228679,2656.32938623 -249.605511643,2656.37646971 -249.631047068,2725.4570238 -267.87784896,2725.51692878 -267.90135843,2777.53205094 -232.771468689,2777.42494339 " mydata_rot="58.6" mydata_centroid="-246.760136163,2727.86759934"/>
</svg>