<svg xmlns="http://www.w3.org/2000/svg" version="1.1" width="592.5px" height="1200px">
  <polygon id="1" class="bin" points="1.875,0.0 -0.77665042945,1.09834957055 -1.875,3.75 -1.875,1203.749999 -0.77665042945,1206.40164943 1.875,1207.499999 123.181133383,1207.499999 125.840121178,1206.3942917 126.931075797,1203.72921708 126.439187828,1114.97169138 128.544163262,1110.01703813 151.360994726,1088.2537337 156.043819567,1086.37275271 269.799703441,1086.13029789 275.288643986,1088.92002576 283.23031375,1099.85304021 284.327924101,1102.19246944 286.498999874,1110.72516263 287.819702701,1112.75177503 290.1030547,1113.55034713 298.094849587,1113.61460199 300.765968491,1112.52701171 301.874999,1109.86472319 301.874999,1080.01963818 300.75936759,1077.35081782 298.076277864,1076.2699547 217.19413921,1077.32088864 213.024798447,1075.60113649 211.388975712,1071.39815732 213.421440263,1009.90761705 215.154132667,1005.9781133 219.12459656,1004.34145842 243.746638544,1004.12652569 246.388767706,1003.0049017 247.463757924,1000.34345793 247.44327548,998.030759995 246.321903545,995.389351468 243.661383971,994.314107488 219.05314203,994.524358609 214.994404493,992.895296806 213.256540013,988.881941627 211.492613456,893.091662263 213.116810309,888.982431566 217.178380539,887.242477655 258.530995485,886.832244362 261.338585403,885.525720263 262.206243053,882.553055369 260.542291234,879.941383354 235.396640499,863.542147083 235.262012317,863.45206837 228.607586679,858.885241738 228.321668103,858.678021399 216.609048129,849.721597022 216.083332086,849.276111304 208.472174425,842.141088367 207.761694144,841.364582244 204.694529078,837.448073739 204.537622037,837.260638239 202.033970918,834.460583836 201.357361178,833.566670328 197.160691118,826.964836492 196.790333261,826.304496869 195.593617673,823.86484562 195.278712873,823.113162313 193.34969024,817.614463984 193.203074229,817.142965202 191.974745972,812.626740856 191.857700381,812.12199303 190.752419403,806.380047274 190.640893643,805.493157033 190.229145927,798.641088458 190.221719691,797.967933702 190.453962818,791.852086153 190.51643166,791.15255392 191.112090181,786.930984821 191.14427291,786.725431804 192.209406808,780.536669635 192.258707934,780.279594636 194.358630221,770.355147322 194.419323887,770.093626101 196.501835488,761.85435468 196.526030707,761.752685679 198.854318156,751.326144781 198.930241345,750.835096736 199.52082984,744.07169604 199.535039224,743.738640017 199.524208228,737.802964948 199.500944366,737.392693426 198.730854896,730.512287157 198.576469461,729.788851065 193.856251409,715.004545375 193.713287548,714.488091624 191.812474086,706.408855941 191.678041122,705.647698618 190.934954874,699.40940459 190.918929903,699.261211922 190.358415842,693.49347434 190.331592054,692.556257264 190.645356594,684.647244953 190.658465079,684.415592293 191.53380521,672.511739232 191.594668009,671.974254391 193.511379013,659.470761738 193.59809907,659.010393725 243.402535882,436.571562635 246.899474621,432.031895358 250.009984588,430.419158532 251.83104097,428.30668865 251.689968347,425.521213132 250.365182181,422.64495207 251.901821939,352.602429563 253.640941248,348.607037682 257.682674804,346.978516229 261.028226067,346.997200847 263.65213075,345.946720575 264.797389519,343.362776508 265.04202946,335.4248714 264.033433116,332.748697994 261.431389493,331.561878852 255.754162069,331.353451833 251.79633666,329.568316002 250.214003163,325.525135002 250.282855552,320.602862897 251.016828177,317.612268221 254.879893894,309.957182539 254.774375774,306.383652954 250.866658297,299.658727464 252.302366872,265.729036292 254.95297132,260.632518448 256.044048402,259.796310485 257.511346512,256.928495121 257.933414301,242.35818142 259.678542362,238.395225243 263.692904265,236.77183616 274.245720832,236.788291773 276.85071983,235.741426354 277.998910035,233.179472755 278.029062581,232.37911326 277.013033647,229.66841723 274.369348667,228.488960792 265.601793039,228.284029957 261.547880227,226.471482507 259.999393592,222.309544679 262.519475565,160.711904177 264.388475089,156.702611946 266.126930926,156.079968993 267.923533326,154.715794554 268.612445564,152.567736823 269.029786301,66.4016602381 267.932604562,63.7329714225 265.264846938,62.6335274622 263.383632004,62.6410440284 259.305333268,60.9652721806 257.615964614,56.8925868975 257.651001829,3.75247251125 256.553527095,1.09922387943 253.901002644,0.0 1.875,0.0 " moovel_rot="0" moovel_centroid="113.69228937077722,554.879179264915"/>
  <polygon id="160741320" class="tile" points="-5.10313958805,1201.0 -1.06666306239,1212.69789862 -10.2008470146,1216.6106543 -4.41429050416,1236.06936598 -8.93656413835,1236.86082687 -4.92741469294,1247.66617436 -1.0,1294.92272489 -6.78770558778,1301.46877594 -5.79535772819,1306.17520336 -38.3314313179,1314.56573583 -22.8505084498,1365.27605587 -45.0689749571,1386.6364243 -54.7161752297,1375.81346472 -57.822181358,1362.7569713 -69.7510454835,1366.53109851 -95.931630159,1277.04679985 -90.2245838182,1274.96895846 -91.6753342206,1270.23620993 -16.2013549244,1247.26878306 -26.4561350381,1210.59428828 -22.9472550439,1209.52960786 -23.6551716572,1206.54336912 -5.10313958805,1201.0 " moovel_rot="69.8" moovel_centroid="-44.7855860922952,1299.3265905574535"/>
  <polygon id="389713125" class="tile" points="-121.652942989,1201.0 -97.6327480558,1201.14524094 -97.6421333209,1205.60414964 -96.9600049531,1205.62454648 -96.931630159,1216.02862057 -99.9541305656,1215.95157155 -100.191613563,1283.17122453 -97.6741529526,1283.2347142 -97.7972502956,1293.73029341 -99.2237804277,1293.69305911 -99.3529500119,1301.36459952 -121.819495611,1301.08273652 -121.65057416,1285.57522552 -120.33028871,1285.56861291 -120.185678168,1215.24728686 -121.829475328,1215.25729266 -121.652942989,1201.0 " moovel_rot="60.9" moovel_centroid="-109.993346015,1250.867776055022"/>
  <polygon id="299950349" class="tile" points="-137.674137087,1247.30505784 -123.32147028,1248.11587506 -122.829475328,1226.14549418 -130.117591215,1225.79635121 -130.063662297,1221.70621799 -129.789579132,1201.86190333 -129.77247545,1201.0 -137.707932373,1201.05495787 -137.674137087,1247.30505784 " moovel_rot="60.9" moovel_centroid="-131.654601332,1227.936479181214"/>
  <polygon id="241824864" class="tile" points="-138.707932373,1201.36009434 -156.567345812,1201.0 -163.526217245,1203.75909962 -170.459253758,1210.65669547 -170.47111631,1249.67897075 -138.739263444,1250.49166707 -138.707932373,1201.36009434 " moovel_rot="-26.3" moovel_centroid="-154.153661915,1226.3492166079825"/>
  <polygon id="220792590" class="tile" points="-177.852231113,1205.1002965 -171.514288452,1201.0 -172.318901007,1211.41138892 -172.290090765,1222.90807422 -171.47111631,1231.14937022 -176.982017358,1237.32717394 -178.582082488,1226.00049649 -178.196890463,1212.52809341 -177.852231113,1205.1002965 " moovel_rot="59.9" moovel_centroid="-175.114955162,1218.9676982344442"/>
  <polygon id="270200275" class="tile" points="-183.816740121,1201.39848601 -183.822520522,1216.84684267 -179.582082488,1216.74278462 -179.712086769,1201.0 -183.816740121,1201.39848601 " moovel_rot="47.8" moovel_centroid="-181.726445398,1209.0385399611607"/>
  <polygon id="253898026" class="tile" points="-186.74952868,1222.15503577 -186.748827037,1225.3442764 -194.298987177,1225.35143882 -198.165815521,1225.35052251 -198.171265225,1201.94503631 -198.170368592,1201.01467863 -189.953223609,1201.0 -189.947879867,1205.5794954 -184.8264135,1205.57680356 -184.822520522,1215.57839463 -186.745393089,1215.58084666 -186.74952868,1222.15503577 " moovel_rot="8.2" moovel_centroid="-192.216918044,1213.5122942086036"/>
  <polygon id="450419566" class="tile" points="-220.217696075,1201.67036019 -209.203070573,1201.0 -209.541807241,1264.08159612 -199.171265225,1268.02359948 -199.737178021,1273.63834619 -206.661323269,1272.29356519 -213.387703314,1275.07946175 -217.018236016,1278.81652912 -219.975665788,1275.98305608 -216.981152573,1272.24205927 -216.478112036,1269.69336889 -220.278679731,1269.66611105 -220.217696075,1201.67036019 " moovel_rot="46.6" moovel_centroid="-213.98566452,1240.442563898425"/>
  <polygon id="220953297" class="tile" points="-225.645185339,1206.60961895 -221.278679731,1206.57246077 -221.329105593,1202.54310182 -221.325736975,1201.02454182 -225.642328412,1201.0 -225.645185339,1206.60961895 " moovel_rot="-43.8" moovel_centroid="-223.480995982,1203.8078283072505"/>
  <polygon id="301510370" class="tile" points="-240.465474069,1230.02652156 -240.277284705,1206.89609443 -241.207690341,1204.01957682 -243.167978981,1201.95303877 -245.717303501,1201.6419912 -271.144246148,1201.11726615 -271.267982135,1203.74439642 -275.60262311,1203.7442544 -275.754864158,1201.0629658 -299.771404568,1201.0 -301.943177879,1203.88222845 -304.091440079,1207.65570863 -308.653083383,1215.23568498 -308.706129171,1225.67143431 -309.919394927,1240.57205652 -310.172955107,1248.69548691 -310.148746989,1257.58994996 -307.466291032,1267.50783542 -287.457629749,1292.61980601 -283.374976177,1294.27145237 -278.137598446,1300.81670481 -262.802932568,1286.51227055 -263.26873584,1272.34325565 -253.513124057,1263.66489926 -226.645185339,1263.76220877 -226.660663583,1237.2133883 -234.982893986,1237.08135165 -240.465474069,1230.02652156 " moovel_rot="7.1" moovel_centroid="-273.005413781,1242.828782878164"/>
  <polygon id="108324451" class="tile" points="-311.21033391,1269.28891868 -332.033786872,1256.28700053 -311.172955107,1221.31426047 -324.882668319,1210.6161127 -330.523391693,1203.62725372 -335.146043173,1201.0 -361.037567195,1243.87632396 -347.292890955,1254.01027514 -349.339152652,1258.66719483 -319.646012047,1277.575357 -311.21033391,1269.28891868 " moovel_rot="-74.5" moovel_centroid="-334.628707466,1238.0734796821987"/>
  <polygon id="222789631" class="tile" points="-362.791989235,1201.0 -370.165022787,1201.11929284 -370.235103133,1277.58386736 -362.037567195,1277.17524862 -362.791989235,1201.0 " moovel_rot="40.5" moovel_centroid="-366.306617997,1239.894191164371"/>
  <polygon id="25346338" class="tile" points="-371.235103133,1343.64425974 -459.0038113,1346.00577491 -458.962107225,1291.88229252 -455.319997031,1288.81566907 -417.875857018,1207.43579741 -411.037368161,1201.0 -387.053326616,1202.73549853 -379.150382815,1210.91664357 -375.861644543,1216.95434284 -371.235103133,1343.64425974 " moovel_rot="-66.7" moovel_centroid="-411.053764964,1283.0441988870298"/>
  <polygon id="315569670" class="tile" points="-460.006881487,1201.0060121 -460.0038113,1214.06544409 -465.07942561,1214.057757 -465.076030064,1201.0 -460.006881487,1201.0060121 " moovel_rot="-14.5" moovel_centroid="-462.541483197,1207.533690517931"/>
  <polygon id="271129833" class="tile" points="-466.126683009,1335.72706881 -466.099746741,1257.90531887 -466.07942561,1201.0 -477.150064394,1202.47581699 -478.444832229,1209.09414769 -483.466985327,1253.2753095 -483.724718538,1255.54020841 -482.884455699,1311.16808709 -480.961938658,1338.80180095 -466.126683009,1335.72706881 " moovel_rot="-43.2" moovel_centroid="-474.154009141,1271.8882588320594"/>
  <polygon id="375388301" class="tile" points="-484.724718538,1202.95185437 -488.565646491,1201.0 -506.552926763,1201.01701641 -506.631557996,1213.21906418 -493.889788066,1225.78080169 -484.733943844,1222.22073445 -484.724718538,1202.95185437 " moovel_rot="-82.8" moovel_centroid="-494.82645566,1211.6037928964656"/>
  <polygon id="375468804" class="tile" points="-518.219954201,1225.8131145 -518.044213344,1201.0 -507.631557996,1201.05343336 -507.631557996,1226.13371463 -518.219954201,1225.8131145 " moovel_rot="-90" moovel_centroid="-512.87268317,1213.5352078057253"/>
  <polygon id="221190745" class="tile" points="-519.228672501,1201.0 -519.219954201,1220.32944125 -525.592544493,1220.29952979 -532.372037329,1206.92772241 -519.228672501,1201.0 " moovel_rot="0.6" moovel_centroid="-524.138657569,1211.0317366511965"/>
  <polygon id="217991140" class="tile" points="-581.922485315,1201.09279475 -533.372037329,1201.0 -533.410635717,1250.94122578 -581.958503483,1251.02785822 -581.922485315,1201.09279475 " moovel_rot="68.5" moovel_centroid="-557.665416439,1226.0152479900976"/>
  <polygon id="185193574" class="tile" points="-591.69968801,1237.01280417 -591.690335839,1227.1146285 -591.685706631,1222.70537042 -591.688355895,1218.42408628 -591.683080031,1214.0839379 -591.680798385,1209.87688758 -591.67658216,1205.87717087 -591.67461686,1201.0 -589.094450411,1201.01051452 -583.122386041,1201.03192205 -582.958503483,1236.95638679 -591.69968801,1237.01280417 " moovel_rot="-50.1" moovel_centroid="-587.36491139,1219.0655977525823"/>
  <polygon id="324849966" class="tile" points="0.0,1496.52266879 -0.0906609993428,1386.63678656 -48.1565351777,1386.6364243 -48.0579096023,1496.51456811 0.0,1496.52266879 " moovel_rot="-82.8" moovel_centroid="-24.075995664999315,1441.57609327"/>
  <polygon id="317167965" class="tile" points="-50.9406503858,1405.14877877 -83.7106505487,1386.6364243 -95.1554154828,1406.07823969 -96.1564516455,1407.67653764 -95.7975806244,1430.29683241 -100.627696181,1430.50259922 -100.168725993,1441.84712585 -59.1506414665,1441.29952536 -50.1567304034,1441.17594093 -50.1565351777,1416.63299355 -50.9406503858,1405.14877877 " moovel_rot="6.5" moovel_centroid="-74.3910111319,1419.00200624"/>
  <polygon id="271129822" class="tile" points="-101.627696181,1409.47397885 -101.660854456,1386.6364243 -112.449369089,1386.73105465 -112.633450387,1407.00989166 -101.627696181,1409.47397885 " moovel_rot="-73.1" moovel_centroid="-106.986227799,1397.51171942"/>
  <polygon id="438253029" class="tile" points="-124.200526787,1387.5938441 -122.382508241,1386.6364243 -115.955575339,1389.90180899 -115.927957612,1431.98240889 -114.689667392,1456.44185078 -113.633450387,1476.95742258 -124.202800231,1478.67944814 -124.200526787,1387.5938441 " moovel_rot="-6.9" moovel_centroid="-119.780982114,1434.9273099"/>
  <polygon id="46419715" class="tile" points="-176.27638694,1386.6364243 -192.94271916,1386.81073623 -196.219331361,1417.861041 -197.66124358,1455.38432552 -197.4985744,1476.47338943 -177.941905402,1509.44892811 -143.155470217,1528.93887771 -125.249855905,1532.23651362 -125.202800231,1392.82070647 -159.428242855,1387.58155441 -176.27638694,1386.6364243 " moovel_rot="80.7" moovel_centroid="-158.7869102,1453.2105988"/>
  <polygon id="253908447" class="tile" points="-222.71238187,1453.52811147 -222.726475123,1386.6364243 -198.674249729,1386.66122166 -198.66124358,1453.54631859 -222.71238187,1453.52811147 " moovel_rot="-81.0" moovel_centroid="-210.693785074,1420.0927672"/>
  <polygon id="59382170" class="tile" points="-269.01169003,1457.47880202 -267.034734466,1386.6364243 -223.757958164,1387.79979737 -223.726475123,1458.31410662 -269.01169003,1457.47880202 " moovel_rot="-43.1" moovel_centroid="-245.905870447,1422.82330396"/>
  <polygon id="314181436" class="tile" points="-286.748670666,1386.6364243 -273.727269516,1386.95913079 -273.726984609,1389.25366466 -270.06598754,1389.24807515 -270.01169003,1427.15766671 -286.79440621,1427.50822313 -286.748670666,1386.6364243 " moovel_rot="-27.0" moovel_centroid="-278.512400714,1407.34197506"/>
  <polygon id="181959269" class="tile" points="-314.689128682,1456.13267959 -296.44684426,1429.83368777 -315.623519126,1417.4041837 -289.257254065,1386.6364243 -287.8090888,1387.24897503 -287.79440621,1475.39363425 -314.689128682,1456.13267959 " moovel_rot="5.0" moovel_centroid="-297.268914796,1432.39387073"/>
  <polygon id="298611913" class="tile" points="-316.623519126,1407.77497691 -316.65421096,1386.6364243 -342.211351952,1386.83407703 -342.185251256,1423.86012378 -330.961194381,1423.58096691 -325.49908182,1423.44921301 -325.1523881,1411.03073125 -325.160398786,1408.47278725 -325.230268504,1407.67635988 -316.623519126,1407.77497691 " moovel_rot="47.6" moovel_centroid="-330.862392999,1403.3863438"/>
  <polygon id="346383187" class="tile" points="-361.355084846,1388.78496616 -361.359911895,1409.86341589 -354.213354391,1409.64844186 -343.211351952,1400.40060853 -348.392424976,1394.05380547 -345.511373397,1391.38112426 -349.094635293,1387.17177701 -351.412906162,1386.6364243 -361.355084846,1388.78496616 " moovel_rot="65.5" moovel_centroid="-354.062517902,1398.08172992"/>
  <polygon id="300863062" class="tile" points="-371.083079624,1386.93384019 -370.867776607,1398.54134934 -362.361370801,1398.4633099 -362.359911895,1386.6364243 -371.083079624,1386.93384019 " moovel_rot="8.6" moovel_centroid="-366.655112034,1392.6186538"/>
  <polygon id="201148567" class="tile" points="-385.273593135,1386.6364243 -372.083079624,1402.28335587 -378.596875098,1407.63528376 -385.297494667,1413.15151797 -385.273593135,1386.6364243 " moovel_rot="-39.4" moovel_centroid="-380.885169996,1400.68902522"/>
  <polygon id="247141745" class="tile" points="-425.131239226,1386.6364243 -425.619181841,1419.544882 -400.980917018,1422.57932874 -399.800103798,1435.47164844 -386.306426945,1434.55348641 -386.297494667,1391.50285708 -425.131239226,1386.6364243 " moovel_rot="-70.2" moovel_centroid="-404.478957215,1408.19354066"/>
  <polygon id="266173832" class="tile" points="-426.619181841,1386.6364243 -426.649579684,1443.29970634 -426.768161353,1449.63712215 -430.658923737,1449.89300338 -433.053980074,1454.41317712 -439.275099835,1456.64701529 -447.589343955,1455.84298198 -454.200377835,1452.15838093 -459.217290892,1452.13204021 -460.141366934,1400.78392003 -455.224509298,1400.82042196 -455.401640086,1395.31082551 -441.773597917,1394.91897545 -441.524865517,1390.72667609 -436.756633092,1387.29501037 -426.619181841,1386.6364243 " moovel_rot="0.8" moovel_centroid="-442.496506637,1422.92653891"/>
  <polygon id="324162242" class="tile" points="-468.95637849,1408.3667062 -469.48779963,1386.74583869 -461.141366934,1386.6364243 -461.175775975,1407.99884596 -465.706950848,1408.16477242 -468.95637849,1408.3667062 " moovel_rot="-33.5" moovel_centroid="-465.200290398,1397.30044985"/>
  <polygon id="223870848" class="tile" points="-476.750415456,1386.9460625 -470.48779963,1399.26571808 -470.967153621,1558.51557273 -536.65138008,1558.58048219 -538.433722896,1532.99426524 -545.015993009,1495.05733745 -551.812968106,1462.12082713 -554.060509554,1404.06859023 -552.888807046,1390.57909049 -533.457766775,1386.6364243 -476.750415456,1386.9460625 " moovel_rot="-16.2" moovel_centroid="-509.289092936,1469.23842197"/>
  <polygon id="155075645" class="tile" points="-555.091961442,1386.77944019 -555.060509554,1405.83665433 -568.350683674,1405.53664381 -567.847160772,1386.72854241 -562.567164893,1386.6364243 -555.091961442,1386.77944019 " moovel_rot="-30.1" moovel_centroid="-561.57528924,1396.25775022"/>
  <polygon id="180522737" class="tile" points="-0.00294645968825,1559.25862488 -31.8768992867,1558.58048219 -39.8546617594,1591.90757413 -35.9573388766,1592.83497923 -35.8104246592,1598.91239827 -13.4878660876,1598.14841963 -12.4972361142,1613.5797933 -15.2400994029,1613.96795787 -15.1177960798,1624.63306327 -0.0419097835198,1624.17359521 -0.0256126156077,1590.49167057 0.0,1562.98203253 -0.00294645968825,1559.25862488 " moovel_rot="-60" moovel_centroid="-15.879424822682152,1585.80880831"/>
  <polygon id="264529120" class="tile" points="-66.3079299288,1601.94248716 -66.3339411765,1558.58048219 -41.8546617594,1568.61491001 -42.4247135831,1602.45179818 -66.3079299288,1601.94248716 " moovel_rot="74.7" moovel_centroid="-54.7194179419,1582.70256872"/>
  <polygon id="412123961" class="tile" points="-67.3506778937,1586.83222853 -67.3339411765,1558.67137293 -91.0509264808,1558.58048219 -91.0676203871,1586.74131366 -67.3506778937,1586.83222853 " moovel_rot="-60.6" moovel_centroid="-79.2007897776,1572.7063451"/>
  <polygon id="437711633" class="tile" points="-92.0676203871,1558.59390717 -92.1193097176,1662.82912879 -101.580912487,1662.82273018 -110.045419717,1662.81568442 -109.993731573,1558.58048219 -101.335352636,1558.59057173 -92.0676203871,1558.59390717 " moovel_rot="-3.5" moovel_centroid="-101.056519404,1610.70587575"/>
  <polygon id="321207165" class="tile" points="-111.095744343,1558.58048219 -124.626163162,1558.64066275 -124.637854317,1596.82317241 -122.535272859,1596.91618906 -120.620967844,1596.99845122 -120.627362292,1593.36804117 -118.478737806,1593.35909137 -118.516224908,1574.27469976 -111.045419717,1574.26810261 -111.19219944,1570.20008242 -111.095744343,1558.58048219 " moovel_rot="-81.0" moovel_centroid="-119.336053884,1573.57749115"/>
  <polygon id="318665999" class="tile" points="-128.528417636,1558.58048219 -129.65484589,1558.59699945 -130.282105753,1558.60640533 -131.038814689,1558.60943628 -132.697405091,1558.63823158 -132.701062191,1577.91279838 -132.621803295,1600.2208364 -125.795511322,1600.20882272 -125.916599172,1589.462821 -127.968777697,1589.48219587 -128.005512893,1586.44142449 -125.953334345,1586.42204977 -126.075405214,1575.75611478 -127.950585931,1575.78329988 -127.985808408,1573.09756518 -125.637854317,1573.067402 -125.732818311,1564.73317197 -128.459805735,1564.7605155 -128.528417636,1558.58048219 " moovel_rot="8.9" moovel_centroid="-129.514497136,1580.32884592"/>
  <polygon id="263713952" class="tile" points="-133.89769704,1558.58048219 -135.923048982,1558.61030044 -137.190388974,1558.61035907 -137.19233194,1576.03437142 -136.097603395,1576.03334758 -133.701062191,1575.99948207 -133.89769704,1558.58048219 " moovel_rot="54.2" moovel_centroid="-135.494939152,1567.39650451"/>
  <polygon id="448157971" class="tile" points="-180.096306595,1664.7895201 -138.19233194,1665.34835454 -138.322653189,1565.21485261 -159.376779378,1561.35197038 -164.305750941,1558.60483433 -183.742262681,1558.58048219 -184.15326482,1656.53875777 -180.272164293,1657.0157074 -180.096306595,1664.7895201 " moovel_rot="58.9" moovel_centroid="-161.235782533,1612.73989299"/>
  <polygon id="248773493" class="tile" points="-208.423606461,1582.88471763 -205.224641149,1582.87794557 -185.15326482,1582.87181605 -185.173667818,1558.58048219 -208.439674296,1558.60349302 -208.440828012,1563.25641454 -208.423606461,1582.88471763 " moovel_rot="60.6" moovel_centroid="-196.797515448,1570.73402712"/>
  <polygon id="412123947" class="tile" points="-209.445895585,1587.32616793 -209.440828012,1558.65972888 -231.760155525,1558.58048219 -231.76186256,1587.25269361 -209.445895585,1587.32616793 " moovel_rot="-60.2" moovel_centroid="-220.602559091,1572.95440705"/>
  <polygon id="108190305" class="tile" points="-232.76186256,1661.07299579 -236.181943781,1660.95040203 -239.984770895,1660.70280986 -245.169942988,1661.64903365 -251.26359182,1662.00104363 -254.940839794,1660.91663859 -273.956603234,1654.22328296 -287.339654823,1647.83949461 -295.087247866,1643.21217745 -302.446149534,1638.07407851 -308.90866446,1632.41292103 -315.443870451,1626.49912383 -317.772925961,1622.57429825 -318.766204895,1618.97456939 -319.860312891,1616.3316512 -318.353211008,1616.324143 -318.420697973,1600.75303302 -314.920638196,1600.72904745 -314.968519753,1589.45920142 -315.154810188,1588.3306333 -315.315555064,1587.37574852 -315.447893852,1583.44664226 -310.513181077,1581.61833821 -309.447390236,1581.22567879 -308.696195785,1580.95057712 -288.921404484,1573.62652656 -287.737887688,1573.2752312 -286.623095795,1572.93971763 -267.183126886,1565.40268637 -266.147191613,1565.1382898 -264.964215302,1564.82473677 -248.022710084,1558.58048219 -245.020698634,1561.60177913 -242.667759002,1560.68610428 -241.327242287,1561.3332963 -239.85222162,1562.04621485 -238.661657744,1562.61925733 -236.407311046,1563.70382641 -236.429740129,1565.82167024 -232.847216063,1566.34473419 -232.82457613,1601.31309009 -232.817897137,1604.66398848 -232.819514752,1608.26901508 -232.76186256,1661.07299579 " moovel_rot="61.4" moovel_centroid="-269.641405622,1610.55573906"/>
  <polygon id="371137436" class="tile" points="-320.860312891,1592.30542667 -320.861231677,1558.58048219 -337.811832702,1559.51068316 -338.697348812,1568.92222652 -340.602873422,1582.46226439 -340.700095279,1585.82194405 -335.618307807,1585.97207229 -335.687661847,1588.39406181 -334.566336696,1588.4269116 -334.673582471,1591.91770167 -333.978508849,1592.44852193 -320.860312891,1592.30542667 " moovel_rot="-25.2" moovel_centroid="-329.713051219,1575.40357647"/>
  <polygon id="253898030" class="tile" points="-341.700095279,1581.98596839 -349.849880106,1581.99980418 -356.334259356,1582.00399257 -356.337089713,1574.81951522 -357.471480878,1574.81465684 -357.471827098,1571.90885662 -357.471427664,1560.39169604 -357.472850791,1558.60231846 -353.182032401,1558.59529523 -345.746757964,1558.58697418 -341.705544982,1558.58048219 -341.700095279,1581.98596839 " moovel_rot="8.2" moovel_centroid="-349.421653639,1570.11141124"/>
  <polygon id="277182905" class="tile" points="-358.720066789,1590.47868803 -358.472850791,1578.69266018 -358.824242342,1572.35007762 -360.192142513,1560.96775792 -365.668486668,1561.57077456 -368.399517945,1561.66912791 -369.801893252,1560.87893004 -370.975400687,1558.58048219 -379.307453993,1563.51684949 -381.59997057,1566.11597772 -383.441247913,1569.38371857 -384.341345285,1573.17167808 -384.967414804,1577.94274975 -384.965444828,1581.21826671 -383.882701135,1583.67779425 -381.909347269,1586.01257076 -378.941665087,1587.68477373 -376.02887393,1588.71967594 -363.903774894,1591.65082842 -360.576033371,1592.30306483 -359.322187005,1591.57449099 -358.720066789,1590.47868803 " moovel_rot="-29.4" moovel_centroid="-370.641150994,1575.95489427"/>
  <polygon id="274853189" class="tile" points="-385.967414804,1558.58048219 -385.976597936,1577.36835278 -399.157186185,1577.36238628 -399.153895272,1584.60881402 -410.439575581,1584.60120734 -411.235312239,1559.24436388 -385.967414804,1558.58048219 " moovel_rot="42.6" moovel_centroid="-399.369382609,1570.05573625"/>
  <polygon id="276516890" class="tile" points="-426.804326972,1563.33962674 -426.799451837,1560.45671429 -426.80165196,1558.59867159 -433.633429052,1558.5970156 -456.835822789,1558.58048219 -456.857927299,1586.98607225 -456.715235649,1587.22939329 -456.735383154,1619.18969394 -412.269651731,1619.22334636 -412.2699929,1612.83148957 -412.25944478,1603.61560388 -412.235312239,1563.35112659 -426.804326972,1563.33962674 " moovel_rot="-21.0" moovel_centroid="-434.910487585,1589.6096843"/>
  <polygon id="389581951" class="tile" points="-472.076693285,1578.21006454 -472.088222616,1558.58707405 -457.865989702,1558.58048219 -457.857927299,1573.80960104 -461.53198439,1573.80698353 -461.528670818,1578.20964093 -472.076693285,1578.21006454 " moovel_rot="-1.0" moovel_centroid="-465.295773652,1567.92857947"/>
  <polygon id="185193615" class="tile" points="-476.678946137,1589.84303623 -473.091873653,1587.11169861 -473.088222616,1558.85559565 -485.872398112,1558.58048219 -486.183223553,1563.54300698 -486.363623331,1576.19308209 -476.678946137,1589.84303623 " moovel_rot="-51.1" moovel_centroid="-479.100119668,1572.00891667"/>
  <polygon id="201276050" class="tile" points="-488.9520418,1606.65910788 -495.527702785,1606.21951773 -499.813785003,1605.92022922 -499.820651379,1592.07424817 -499.822858808,1559.41876508 -492.520650335,1558.58048219 -488.379345243,1566.41859019 -487.363623331,1573.33533386 -488.028231172,1577.3126079 -488.942274803,1579.77459537 -488.824786393,1582.06188583 -488.9520418,1606.65910788 " moovel_rot="-50.1" moovel_centroid="-494.273778928,1582.83605434"/>
  <polygon id="236798986" class="tile" points="-500.823360015,1558.58048219 -505.918871792,1558.60135545 -505.91836629,1573.98799136 -500.822858808,1573.96711305 -500.823360015,1558.58048219 " moovel_rot="40.4" moovel_centroid="-503.370864366,1566.28423443"/>
  <polygon id="222912948" class="tile" points="-506.949947519,1651.60366854 -512.760212089,1652.07422721 -515.519852385,1612.75042126 -515.973919797,1603.71920053 -513.33881359,1558.58048219 -506.918871792,1559.03449337 -509.508693035,1604.56467209 -506.949947519,1651.60366854 " moovel_rot="-83.4" moovel_centroid="-511.404066454,1604.61442859"/>
  <polygon id="201026323" class="tile" points="-530.02085336,1558.58048219 -529.907183911,1565.36958747 -530.012651937,1575.24387158 -522.485533392,1575.50862897 -521.798372485,1580.36844106 -520.394817972,1580.78161487 -517.724548024,1580.91973613 -516.973919797,1558.77520514 -530.02085336,1558.58048219 " moovel_rot="10.7" moovel_centroid="-523.228936573,1568.09365379"/>
  <polygon id="286087282" class="tile" points="-0.0379989545792,1797.81429807 -19.0477172054,1797.5037787 -26.1449898273,1790.0797625 -26.7094353257,1787.68093504 -25.0674858509,1786.68737669 -23.3831461782,1787.73580005 -22.5596594794,1792.13606231 -4.71222454235,1791.75500971 -4.97576373182,1786.67954766 0.0,1786.43463421 -0.128536642715,1668.64987966 -4.8097668685,1668.61683785 -4.96617345884,1665.34835454 -24.9966704417,1665.68333719 -25.3583081134,1669.85092831 -27.9831302047,1670.45801746 -32.9085272335,1670.35480263 -54.5054853687,1692.81939881 -55.3006319555,1694.67055553 -55.0742541756,1712.36467759 -52.9733928155,1711.97151207 -53.0481812635,1717.67186847 -55.8648959449,1717.28989806 -56.3994328553,1716.24909705 -62.9583068915,1716.56745242 -62.870369068,1738.38729129 -63.8777005596,1739.43143291 -67.0184613889,1736.37389194 -78.4062435865,1747.48911435 -74.1391834885,1751.69951806 -77.4388303444,1754.473913 -12.9039795488,1819.330792 -4.72260252815,1810.58046118 -0.361872988008,1811.29734538 -0.0379989545792,1797.81429807 " moovel_rot="10.6" moovel_centroid="-29.116926410586373,1737.51058786"/>
  <polygon id="443524679" class="tile" points="-80.4062435865,1700.96558824 -101.126940082,1700.89514386 -101.134641656,1665.34835454 -80.4138967033,1665.41876734 -80.4062435865,1700.96558824 " moovel_rot="-56.9" moovel_centroid="-90.7704289661,1683.15695657"/>
  <polygon id="185631121" class="tile" points="-109.351521564,1679.01699335 -104.272003584,1679.07973692 -102.134641656,1679.10593025 -102.157556072,1665.5760711 -109.227636951,1665.34835454 -109.351521564,1679.01699335 " moovel_rot="-50.4" moovel_centroid="-105.72413946,1672.28494154"/>
  <polygon id="288448676" class="tile" points="-117.976601165,1665.34835454 -116.750669122,1669.68804786 -113.343852937,1681.74307161 -112.173463971,1685.90766523 -110.351521564,1692.17888583 -110.913889404,1692.32851101 -115.218172806,1693.54340832 -116.67726172,1693.95477709 -120.99002877,1695.17672947 -118.442636121,1704.18462784 -119.01025608,1705.09929385 -118.739271679,1706.06333073 -117.730079061,1706.62085224 -116.796390178,1709.91044054 -117.389461583,1710.84627392 -116.133193802,1715.29210197 -110.361339915,1713.65878981 -150.870773629,1725.46401369 -157.490850846,1702.02986118 -151.751646581,1700.1816702 -136.381998554,1695.84212272 -142.943367422,1672.62874292 -117.976601165,1665.34835454 " moovel_rot="-13.0" moovel_centroid="-132.268473026,1696.9070812"/>
  <polygon id="275609101" class="tile" points="-172.587583523,1701.9582983 -182.514161007,1680.19192549 -184.464734289,1676.01154064 -158.4922763,1665.34835454 -160.304601437,1674.67239464 -158.490850846,1686.82539366 -162.711441851,1687.4020887 -161.020763323,1700.75312056 -172.587583523,1701.9582983 " moovel_rot="-52.0" moovel_centroid="-169.502235834,1683.79503919"/>
  <polygon id="443296706" class="tile" points="-185.555755338,1830.03936293 -201.314046581,1829.96773638 -201.228889287,1665.34835454 -185.464734289,1665.41318787 -185.555755338,1830.03936293 " moovel_rot="-40.8" moovel_centroid="-193.390799242,1747.68706003"/>
  <polygon id="201109395" class="tile" points="-203.343208521,1665.34835454 -202.314046581,1684.89854802 -220.982309777,1685.34250438 -220.978441632,1665.76453889 -203.343208521,1665.34835454 " moovel_rot="12.3" moovel_centroid="-211.902324873,1675.43128416"/>
  <polygon id="315410691" class="tile" points="-245.798235782,1666.14780974 -245.202151513,1702.34846124 -230.748045979,1701.91923588 -222.001847524,1692.76239039 -221.982309777,1665.34835454 -245.798235782,1666.14780974 " moovel_rot="54.4" moovel_centroid="-234.16515216,1683.07975047"/>
  <polygon id="292846307" class="tile" points="-246.802073552,1689.02621668 -246.798235782,1665.35059387 -258.331486722,1665.35402345 -263.90310295,1665.34835454 -263.995752136,1667.85756962 -263.99831618,1689.02350034 -246.802073552,1689.02621668 " moovel_rot="-29.0" moovel_centroid="-255.395953473,1677.19141276"/>
  <polygon id="300089557" class="tile" points="-293.357421494,1749.93294618 -277.994475878,1770.78308084 -268.997079286,1747.84744485 -266.329526897,1741.68216322 -283.316126156,1734.78821566 -264.99831618,1691.33068852 -270.914289316,1672.73583323 -280.853093356,1669.30480845 -282.689046172,1669.09208163 -284.462772799,1668.08384776 -288.848407156,1665.34835454 -292.885752382,1670.2059196 -298.063253095,1674.71604004 -284.32196746,1694.8567726 -283.140101573,1697.26848201 -283.572360606,1698.79626945 -284.238321281,1700.23029376 -298.006045063,1725.01822989 -285.664561123,1743.67327458 -288.364252817,1745.86949963 -293.357421494,1749.93294618 " moovel_rot="22.4" moovel_centroid="-281.262556787,1713.23103615"/>
  <polygon id="375378868" class="tile" points="-299.077434223,1733.80019287 -312.634342879,1733.77665747 -312.595984988,1665.34835454 -303.566708488,1665.36541683 -303.582229822,1702.10137393 -299.063253095,1702.10921793 -299.077434223,1733.80019287 " moovel_rot="-81.0" moovel_centroid="-306.825161392,1703.03235457"/>
  <polygon id="239492646" class="tile" points="-314.251151172,1703.19906194 -328.733702444,1703.48917229 -328.732945148,1665.34835454 -322.211260302,1667.95196411 -313.634342879,1671.3727239 -314.251151172,1703.19906194 " moovel_rot="-33.6" moovel_centroid="-321.554761958,1685.67827129"/>
  <polygon id="309154409" class="tile" points="-329.847117367,1665.34835454 -393.635000003,1667.21770097 -417.976788017,1748.14125779 -366.615797717,1765.64515129 -379.974777213,1815.83698946 -329.733702444,1815.54033535 -329.847117367,1665.34835454 " moovel_rot="3.6" moovel_centroid="-363.639371761,1733.72512872"/>
  <polygon id="284868932" class="tile" points="-430.260997769,1672.67438556 -430.26042409,1670.78416346 -432.192994248,1670.78784572 -432.194943309,1665.34835454 -435.192478325,1665.35054482 -435.185590758,1670.78276921 -437.176581177,1670.78923411 -437.171630057,1672.68320959 -447.873578835,1672.68583274 -447.839202475,1736.16112706 -477.798443862,1736.18309224 -477.761868708,1801.09297965 -466.729808162,1801.09180988 -466.730063908,1802.38742014 -463.907884895,1805.29314068 -462.624647074,1805.29429152 -462.630427517,1801.08437471 -456.102920354,1801.0808068 -451.928545578,1801.08184992 -443.857082268,1801.07604966 -438.905497854,1801.07422002 -433.985884889,1801.07190341 -433.985634095,1805.27807398 -432.76081528,1805.28200561 -429.734767335,1802.31467131 -429.737100978,1801.07040274 -418.976788017,1801.06507947 -419.048071291,1672.66850302 -422.263889073,1672.67104887 -430.260997769,1672.67438556 " moovel_rot="-34.2" moovel_centroid="-443.514574446,1747.66710022"/>
  <polygon id="295447865" class="tile" points="-478.83270883,1665.34835454 -478.798443862,1715.4610457 -491.474061301,1714.80228399 -491.230555862,1670.97448245 -486.011986951,1665.42913938 -482.199189118,1665.38345077 -478.83270883,1665.34835454 " moovel_rot="23.3" moovel_centroid="-484.956473792,1690.91738002"/>
  <polygon id="298794355" class="tile" points="-492.474061301,1843.30447282 -494.404132594,1665.93313777 -518.643118461,1665.34835454 -518.681130778,1698.99296656 -524.640377426,1699.06521077 -524.811552931,1843.68766147 -492.474061301,1843.30447282 " moovel_rot="-65.3" moovel_centroid="-508.612957041,1758.30324171"/>
  <polygon id="370606184" class="tile" points="-525.88073578,1665.34913998 -551.699768685,1665.34835454 -551.785745605,1713.34143408 -525.811552931,1713.63794526 -525.846991596,1689.57696845 -525.88073578,1665.34913998 " moovel_rot="-62.3" moovel_centroid="-538.781480342,1689.44333724"/>
  <polygon id="201149333" class="tile" points="-574.961888658,1710.59801549 -575.337453404,1727.78852171 -552.785745605,1728.49831579 -552.832637331,1666.04636126 -554.111551891,1665.71152968 -566.410482261,1665.47344569 -573.372872174,1665.34835454 -574.329696337,1694.57421747 -559.156584038,1695.13751516 -559.271399517,1698.23022359 -557.405955424,1698.30124562 -557.998534882,1713.48344924 -572.199364191,1712.94926421 -572.109574442,1710.70466221 -574.961888658,1710.59801549 " moovel_rot="9.2" moovel_centroid="-562.888202954,1695.46568464"/>
  <polygon id="266149315" class="tile" points="-18.003211277,1843.68766147 -18.7662390959,1843.68784117 -18.7579278711,1867.87235507 0.0,1867.86303971 -0.010937852785,1843.69710436 -18.003211277,1843.68766147 " moovel_rot="-28.9" moovel_centroid="-9.385010383033023,1855.78022885"/>
  <polygon id="182759615" class="tile" points="-20.9054423423,1948.84637837 -26.8015614897,1948.85830208 -37.8189893628,1948.86585667 -45.4601513879,1948.87505777 -45.9670467839,1881.98752702 -46.0911872648,1864.90372253 -31.0992473911,1843.68766147 -20.7662390959,1843.92920392 -20.9054423423,1948.84637837 " moovel_rot="2.5" moovel_centroid="-32.8449298305,1898.9167729"/>
  <polygon id="281336888" class="tile" points="-86.5364822645,1883.62990564 -86.4194730822,1887.86429976 -85.4241763132,1892.10199904 -81.93247301,1892.19935843 -81.5079593847,1908.77431148 -47.0911872648,1908.75879851 -47.1272942539,1843.86827263 -74.7148923263,1843.68766147 -74.7675720217,1883.61074496 -86.474999092,1883.67314845 -86.5364822645,1883.62990564 " moovel_rot="75.7" moovel_centroid="-62.8784870169,1878.23366515"/>
  <polygon id="364262523" class="tile" points="-123.74500954,1843.68766147 -87.5406730814,1844.71983291 -87.5364822645,1884.39096715 -112.66686657,1883.61455677 -112.720316977,1878.56463195 -124.526266723,1878.19771049 -123.74500954,1843.68766147 " moovel_rot="67.8" moovel_centroid="-105.308877347,1863.36693553"/>
  <polygon id="219804918" class="tile" points="-125.526266723,1843.68766147 -125.581513314,1894.28368708 -134.039740038,1896.6908992 -134.58491652,1878.7016179 -147.802976173,1878.63927774 -148.169529954,1849.71758398 -125.526266723,1843.68766147 " moovel_rot="-66.3" moovel_centroid="-135.331967131,1866.7456467"/>
  <polygon id="378472020" class="tile" points="-166.660588097,1890.9957877 -149.251580808,1891.22407662 -149.169529954,1843.68766147 -181.059956522,1844.66423794 -180.886241122,1853.68505189 -175.832038107,1856.8678534 -175.735052217,1866.6533475 -165.958919338,1867.13449822 -166.660588097,1890.9957877 " moovel_rot="57.8" moovel_centroid="-161.431240189,1864.2766795"/>
  <polygon id="373350939" class="tile" points="-227.774128199,1997.03981487 -225.960195605,1999.96290604 -223.520924126,2002.4448512 -220.699478569,2002.91940501 -189.244175304,1995.56771436 -187.564745539,1994.42604268 -186.262050453,1992.50234228 -186.003153145,1991.34399355 -186.102413651,1989.38375285 -186.497445238,1987.93881561 -186.385521688,1987.12087298 -185.584299427,1986.70967995 -182.157974008,1985.94663628 -186.307630403,1947.92500712 -190.620651925,1947.87624122 -189.635635598,1930.02032831 -187.262143733,1912.4239119 -182.464479515,1876.64294459 -182.059956522,1874.27990946 -182.222193393,1872.0426142 -182.718254624,1870.44029756 -184.421683531,1868.47015236 -225.698462898,1843.68766147 -238.139755695,1865.04093435 -245.979510156,1897.43320921 -244.355737903,1901.60545175 -237.55519033,1903.43052899 -238.395291694,1907.65268672 -234.282551427,1908.8697932 -233.701606008,1909.77470869 -234.52649534,1912.96321239 -235.66307804,1913.16109869 -239.321023548,1912.31079986 -242.224235031,1923.76266572 -243.774634596,1936.03664766 -244.152089211,1942.88265048 -244.314824894,1950.22577554 -243.804634703,1956.81146808 -243.009025968,1963.80920893 -238.145039831,1963.17090292 -236.923567878,1971.48266783 -234.177024892,1980.64089142 -231.300914515,1988.7158575 -227.774128199,1997.03981487 " moovel_rot="-57.3" moovel_centroid="-213.481394211,1925.37338534"/>
  <polygon id="443296705" class="tile" points="-246.979510156,1845.99454751 -273.499610509,1843.68766147 -273.357341233,1944.50049725 -254.487358805,1943.68248988 -246.979510156,1845.99454751 " moovel_rot="-34.7" moovel_centroid="-262.030762019,1891.63771817"/>
  <polygon id="208172694" class="tile" points="-279.354107858,1946.34248851 -294.457078262,1956.97201034 -326.556845986,1962.00211625 -326.59887898,1845.43781653 -278.687624453,1843.68766147 -274.499610509,1937.20692764 -279.354107858,1946.34248851 " moovel_rot="-49.3" moovel_centroid="-302.095354685,1901.07048349"/>
  <polygon id="237871136" class="tile" points="-341.318666978,1845.55901908 -336.860821017,1845.54140512 -336.724133248,1843.68766147 -334.743271802,1843.72383727 -332.847828526,1843.83321906 -332.840172195,1845.61820925 -333.081056821,1853.85091712 -330.801021719,1853.8340219 -330.841297825,1858.37764174 -327.604596634,1858.40914151 -327.59887898,1859.45114371 -327.635850523,1863.29399379 -327.600817592,1867.49279403 -333.201351164,1867.98965688 -333.210309027,1862.22150909 -338.095724481,1862.6907574 -341.663124882,1862.9509188 -341.318666978,1845.55901908 " moovel_rot="58.8" moovel_centroid="-335.281006854,1856.05745969"/>
  <polygon id="185148198" class="tile" points="-357.889402068,1872.02956934 -357.888733645,1843.96131476 -342.663124882,1843.68766147 -342.695988875,1872.11550899 -349.487795899,1872.07648357 -357.889402068,1872.02956934 " moovel_rot="8.8" moovel_centroid="-350.268186364,1857.94331216"/>
  <polygon id="448157972" class="tile" points="-363.915198545,1843.92061956 -358.909249911,1843.68766147 -358.889402068,1879.73717858 -363.92279114,1879.25155347 -363.915198545,1843.92061956 " moovel_rot="58.9" moovel_centroid="-361.400743572,1861.66565064"/>
  <polygon id="375468813" class="tile" points="-379.635649529,1843.68766147 -364.92279114,1843.98437554 -365.273993842,1870.23827458 -379.624885889,1870.97154051 -379.635649529,1843.68766147 " moovel_rot="-0.3" moovel_centroid="-372.410815732,1857.1645916"/>
  <polygon id="266170672" class="tile" points="-396.051286641,1868.34670312 -380.635649529,1868.3385895 -380.653511343,1843.68766147 -396.067559432,1843.706717 -396.051286641,1868.34670312 " moovel_rot="-28.9" moovel_centroid="-388.351431203,1856.02012797"/>
  <polygon id="242317849" class="tile" points="-408.095124168,1956.96994264 -397.199403409,1957.59314581 -397.067559432,1843.76243824 -398.567858166,1843.742977 -403.914420305,1843.74078897 -408.224513916,1843.68766147 -408.095124168,1956.96994264 " moovel_rot="-26.1" moovel_centroid="-402.641984775,1900.28308092"/>
  <polygon id="309750072" class="tile" points="-409.265308171,1843.68766147 -409.224513916,1907.59670127 -467.888427142,1907.74312176 -467.931316174,1843.82542319 -409.265308171,1843.68766147 " moovel_rot="13.6" moovel_centroid="-438.578054173,1875.71303886"/>
  <polygon id="273839232" class="tile" points="-475.606721926,1843.71512195 -468.931316174,1843.68766147 -468.932428556,1866.32720984 -475.607829334,1866.35467975 -475.606721926,1843.71512195 " moovel_rot="27.8" moovel_centroid="-472.26957423,1855.02116685"/>
  <polygon id="338084346" class="tile" points="-516.775395504,1843.68766147 -482.189609046,1843.7193817 -482.198701894,1845.40038658 -480.57945338,1845.38175133 -480.58310874,1846.94113904 -478.752113063,1846.98627687 -478.798404806,1852.42213492 -476.613566269,1852.51318356 -476.607829334,1890.46823909 -486.994895598,1879.94185212 -491.952280314,1885.00900844 -481.315766493,1895.33853226 -485.138432074,1899.26256523 -523.399558005,1899.19306479 -523.430805244,1897.71318254 -530.797753847,1897.60859716 -530.773508473,1893.11862214 -532.577665164,1893.01232223 -532.543617398,1859.85982887 -526.386980261,1853.37151435 -521.768009127,1857.94483136 -515.24680544,1851.49984067 -519.865773332,1846.92652508 -516.775395504,1843.68766147 " moovel_rot="66.3" moovel_centroid="-504.340761706,1872.00935284"/>
  <polygon id="443764996" class="tile" points="0.0,2186.20918446 -37.2413654879,2193.0065082 -34.1188800998,2209.7930288 -54.0868705619,2213.441055 -44.2508134034,2266.19856702 -101.350799115,2276.62025188 -104.630860109,2259.03712535 -59.1349918574,2250.73201338 -80.6473280568,2135.27732004 -104.330250632,2008.17210528 -75.5418248992,2002.91940501 -69.2433752831,2036.72657634 -29.2217605948,2029.42412056 0.0,2186.20918446 " moovel_rot="-26.9" moovel_centroid="-53.88303171713205,2125.47242186"/>
</svg>