<svg xmlns="http://www.w3.org/2000/svg" version="1.1" width="592.5px" height="4800px">
  <polygon id="8" class="bin" points="301.874999,3.75 300.776649429,1.09834957055 298.124999,0.0 1.875,0.0 -0.77665042945,1.09834957055 -1.875,3.75 -1.875,4803.75 -0.77665042945,4806.40165043 1.875,4807.5 298.124999,4807.5 300.776649429,4806.40165043 301.874999,4803.75 301.874999,3.75 " moovel_rot="0" moovel_centroid="149.9999995,2403.7499999999995"/>
  <polygon id="318665982" class="tile" points="25.4558568459,-5.0 22.8619265169,-5.01998458505 12.2040036352,-5.04583419729 1.00355020538,-5.03810618538 1.00363180768,-16.9467317872 1.0,-19.7988812754 4.21594618056,-19.7807717137 4.24472326748,-24.5843654497 1.0037845986,-24.5895844238 1.0028443547,-52.4678983308 1.00733631663,-62.6175191483 1.00265302714,-65.2650783774 6.81218400951,-65.2713724161 10.9625469489,-65.3318406563 10.9238445174,-67.9384026347 18.1787357327,-68.0429019142 18.2309689257,-60.1152236141 16.5204278294,-60.1522827093 4.74793493599,-59.999590571 4.84219390415,-52.4430012275 16.6146871474,-52.5956911886 17.3863031553,-52.5504317077 17.4097068293,-49.5326113585 17.4173009733,-48.893965872 17.4235072747,-48.2639849901 17.9122808395,-17.2555639489 18.6755698262,-17.2622917902 19.2646103822,-17.2588835899 19.9883287448,-17.2592732394 25.667002549,-17.2801474065 25.6290539322,-15.5322126983 25.4558568459,-5.0 " moovel_rot="9.1" moovel_centroid="10.54962837443566,-31.65665839227744"/>
  <polygon id="338075889" class="tile" points="26.6807269398,-7.48410379291 26.667002549,-63.5450734295 38.4249918487,-63.6527053464 62.6587409262,-38.7488003686 58.8826080084,-34.8827213284 61.0339176208,-32.5642685905 57.5929488655,-29.3095131349 58.5787941251,-28.2519260116 35.0546769872,-5.0 33.048054843,-7.18638204224 26.6807269398,-7.48410379291 " moovel_rot="21.3" moovel_centroid="40.0813646054,-35.588243826916646"/>
  <polygon id="266034075" class="tile" points="63.6587409262,-46.2759147424 63.6825383171,-10.9315534145 63.6890561275,-5.0 87.8990478566,-5.01713457145 87.8718966387,-46.2989319861 80.7464193458,-46.2956950907 73.6177200051,-46.2866075754 66.5699135642,-46.2786404982 63.6587409262,-46.2759147424 " moovel_rot="61.1" moovel_centroid="75.7795406168,-25.648922183992514"/>
  <polygon id="299950365" class="tile" points="97.3368494196,-19.9001565598 89.1594687568,-19.8686527453 88.8990478566,-12.2741723876 90.9336067477,-10.9217933705 90.8491452934,-5.0 97.3317796713,-5.70194298737 97.3368494196,-19.9001565598 " moovel_rot="-29.9" moovel_centroid="93.5059285534,-13.04455711955476"/>
  <polygon id="252080574" class="tile" points="114.908054992,-52.9821711767 98.3368494196,-52.9961029626 98.3416322218,-5.00494394824 115.017676393,-5.0 115.015633467,-25.2449063683 110.88840739,-25.246372756 110.891001741,-27.3716583617 109.9669189,-27.3728805482 109.965727885,-30.9793525655 110.836826649,-30.9802917108 110.837034837,-32.4148948036 112.614174271,-32.4197686713 112.608032967,-34.5443053668 114.913870731,-34.5408753155 114.911746488,-39.5952599104 114.908054992,-52.9821711767 " moovel_rot="-85.1" moovel_centroid="106.347226392,-28.933916542585497"/>
  <polygon id="59389843" class="tile" points="180.367662024,-99.3255950943 190.016311307,-91.6526832592 191.028545557,-28.0669483945 182.713558565,-27.2299368143 180.986480592,-16.8472041413 116.149391455,-5.0 116.017676393,-20.8567960557 116.025395836,-102.84426944 126.250998786,-102.282864599 180.367662024,-99.3255950943 " moovel_rot="-64.2" moovel_centroid="151.395167467,-56.37343718337683"/>
  <polygon id="243544148" class="tile" points="192.032822181,-5.0 192.028545557,-13.173143271 192.456150666,-21.546140263 192.584032558,-31.0720284028 199.213224512,-30.9664213771 205.784759644,-31.1235087121 205.798968812,-7.03352423403 195.186631833,-5.52409757134 192.032822181,-5.0 " moovel_rot="-26.0" moovel_centroid="198.946504672,-18.419286064791855"/>
  <polygon id="280170299" class="tile" points="206.798968812,-26.3413612735 207.048949356,-22.8566937951 207.728576655,-13.2423495967 208.337856523,-5.0 251.167066187,-5.17758682761 251.151661387,-78.6084695138 235.297952191,-78.1185747929 234.430469028,-90.17073237 219.585522937,-89.1458492748 219.522636579,-46.7968816567 207.486182277,-46.9152825031 206.798968812,-26.3413612735 " moovel_rot="-55.9" moovel_centroid="231.163800362,-41.52228926369337"/>
  <polygon id="259448704" class="tile" points="252.167066187,-5.0 302.436947918,-17.6279823953 288.943431458,-68.1638707763 252.226558216,-58.4541441066 254.762548842,-29.0068936314 252.167066187,-5.0 " moovel_rot="-26.5" moovel_centroid="274.793813161,-36.13419964080506"/>
  <polygon id="301843492" class="tile" points="333.632242548,-67.4848811284 333.553598107,-10.2079898421 331.010871723,-10.2716113538 330.597353141,-8.85019414797 330.005138244,-6.85412242543 329.167871523,-5.82057596557 328.061949834,-5.38106955569 318.948153272,-5.0 318.153164676,-14.202892736 316.760442553,-13.8951794896 316.366877072,-15.8282455161 315.537763212,-30.5395592207 303.923455582,-29.8299130257 303.436947918,-65.9995604509 322.348630359,-66.298799054 333.632242548,-67.4848811284 " moovel_rot="-81.3" moovel_centroid="320.38437104,-40.385561962456805"/>
  <polygon id="364262716" class="tile" points="334.632242548,-51.7938762078 351.469290977,-51.7883980993 351.505474227,-5.0 334.668407142,-5.00547545422 334.632242548,-51.7938762078 " moovel_rot="-81.9" moovel_centroid="343.068853647,-28.396933119917758"/>
  <polygon id="237475168" class="tile" points="352.505474227,-129.224724146 353.392714373,-132.18279631 367.763826757,-145.392852154 390.325869776,-145.024622965 390.239134181,-6.68814356476 354.363052588,-5.0 353.799678135,-9.25043959264 353.211132932,-13.6391438995 352.505474227,-129.224724146 " moovel_rot="-76.1" moovel_centroid="371.824603174,-74.52603404173792"/>
  <polygon id="185193605" class="tile" points="391.325869776,-25.1409820862 405.098374338,-5.0 406.63340804,-5.42371199019 406.637148341,-35.2190786067 391.325869776,-25.1409820862 " moovel_rot="38.1" moovel_centroid="401.49389783,-21.176868417900238"/>
  <polygon id="374424032" class="tile" points="433.534325442,-156.993673002 427.101431352,-138.922144413 422.54500107,-144.814248035 407.637148341,-145.295264852 408.134543211,-110.547626274 431.773116945,-110.224561086 431.451948571,-92.631992822 434.760274939,-91.8386286363 434.686566275,-84.9144417997 432.177598886,-84.504034837 432.024300204,-73.2174908388 422.291155309,-68.1656486271 414.359500143,-68.7823045891 414.190037815,-73.1242184771 407.853159832,-73.2932693198 408.360270206,-10.6682468278 418.309828626,-5.0 455.677327791,-32.1306032596 455.794281988,-148.666460933 433.534325442,-156.993673002 " moovel_rot="-32.0" moovel_centroid="433.384028675,-81.06014317385525"/>
  <polygon id="300396686" class="tile" points="456.797625846,-17.4614933902 465.503878161,-17.420918474 465.495647835,-5.0 461.296938434,-5.01475131586 456.794281988,-5.03602147419 456.797625846,-17.4614933902 " moovel_rot="-42.9" moovel_centroid="461.147599218,-11.229533472929134"/>
  <polygon id="104903380" class="tile" points="466.503878161,-5.0 471.539929129,-5.53310040757 474.194763262,-12.0373440091 475.707044401,-17.4796076581 475.04345617,-24.5276620384 474.918540903,-31.3914711777 474.208897396,-35.5801945116 472.197944382,-37.5233943418 470.163199767,-39.2718230262 466.529179456,-40.1712130774 468.653247998,-27.5380930845 469.877975633,-27.0720810376 468.62337556,-25.7844303217 468.866864509,-20.4816181771 468.144042229,-15.492940475 467.244979558,-9.12814444862 466.503878161,-5.0 " moovel_rot="19.3" moovel_centroid="471.173980523,-22.42020154649113"/>
  <polygon id="374333730" class="tile" points="491.776971137,-36.3009813333 476.740450572,-36.4977328494 476.707044401,-5.80087941848 490.432472557,-5.0 491.107958684,-10.5249640532 494.685748297,-10.4168157373 504.143087053,-17.271040591 491.776971137,-36.3009813333 " moovel_rot="-86.7" moovel_centroid="487.358107337,-20.981623060052954"/>
  <polygon id="450419529" class="tile" points="515.584246342,-5.03327337727 505.143087053,-5.0 505.156682936,-42.8826511588 515.597816668,-42.9159394704 515.584246342,-5.03327337727 " moovel_rot="59.7" moovel_centroid="510.370458592,-23.957958273910744"/>
  <polygon id="436396133" class="tile" points="555.591429371,-130.066312439 571.100149383,-130.257005925 571.088711711,-5.07919328511 516.791811554,-5.0 516.597816668,-20.5339240961 555.832623775,-20.1045978736 555.591429371,-130.066312439 " moovel_rot="5.5" moovel_centroid="556.942673595,-54.7161869440043"/>
  <polygon id="442637481" class="tile" points="572.100149383,-28.9215966171 589.756213223,-28.9161106413 589.767881483,-7.52511183564 585.9919663,-7.52682367731 585.996808067,-5.0 580.572413221,-5.00124673825 580.567352291,-10.9384515163 572.111590288,-10.9409778062 572.100149383,-28.9215966171 " moovel_rot="-82.3" moovel_centroid="581.388673737,-18.486657675647955"/>
  <polygon id="443361973" class="tile" points="28.2018985324,-156.993673002 28.3180688169,-263.309283822 0.0496283775195,-263.317137472 0.0,-217.995136106 3.60031593908,-217.998988399 3.5906808788,-213.403268401 16.9760897404,-213.401647436 16.9137657238,-156.994202036 28.2018985324,-156.993673002 " moovel_rot="7.9" moovel_centroid="16.90033279266681,-221.877173199"/>
  <polygon id="277176271" class="tile" points="30.3180688169,-215.73497591 57.2180920888,-216.801645213 57.1744434286,-157.852706091 31.1459857499,-156.993673002 30.3180688169,-215.73497591 " moovel_rot="-76.6" moovel_centroid="43.9696614941,-187.007706064"/>
  <polygon id="278749393" class="tile" points="102.061221945,-156.993673002 58.8432364678,-158.261813871 58.5711750112,-164.332185972 58.2229458002,-172.214083414 58.2180920888,-179.201597099 58.2202371905,-194.747287458 58.2230567012,-209.377756825 58.2235489201,-225.098425215 58.221390076,-238.845130196 58.219024713,-254.022414274 58.2233620534,-269.058873266 58.2215075087,-283.901916181 58.2206249423,-290.473837615 67.7832707427,-290.868030946 67.7950492915,-287.094352992 67.8516193796,-286.779768777 68.0995687164,-286.623179793 68.4487606913,-286.525066424 68.7894671693,-286.47414068 77.0013228614,-286.653004869 94.9125464626,-277.08169465 94.6555307686,-276.501490445 94.5747960906,-275.976800776 94.6697182618,-275.573244256 94.8711243588,-275.240450502 95.1457803162,-274.811060656 98.0304679479,-273.457193723 93.2244908743,-263.598460552 89.6090539958,-265.452814218 89.3107742261,-265.267802168 89.2159810837,-264.531267673 89.1042667307,-261.630799358 119.659136833,-261.174745492 119.517407619,-256.079621392 119.584839088,-255.186755727 119.797769189,-254.769171437 120.057659958,-254.484045615 120.544870339,-254.239925897 123.870856039,-253.808819867 106.281824531,-161.365602767 102.888859481,-161.796232407 102.613746132,-161.710259677 102.454643787,-161.538497181 102.320582734,-161.26891716 102.061221945,-156.993673002 " moovel_rot="66.9" moovel_centroid="85.3291149906,-220.325676391"/>
  <polygon id="395678165" class="tile" points="125.018067679,-206.102659347 148.297988293,-206.178334896 148.34738383,-156.993673002 124.870856039,-157.168603764 124.939729586,-176.664263693 124.959104153,-186.309843832 124.975337462,-191.541378675 124.999601195,-203.427300808 125.018067679,-206.102659347 " moovel_rot="-29.2" moovel_centroid="136.644364547,-181.578567819"/>
  <polygon id="448157974" class="tile" points="215.44021819,-157.170970527 149.34738383,-156.993673002 149.38094356,-210.617190444 173.976654307,-210.682994887 173.994400612,-239.624241885 215.491216804,-239.735916775 215.44021819,-157.170970527 " moovel_rot="59.4" moovel_centroid="185.529516794,-194.350856522"/>
  <polygon id="324162267" class="tile" points="216.491216804,-163.397338523 216.523583374,-160.876535311 216.527028821,-156.993673002 230.99909334,-156.995786823 230.995215645,-186.512979093 221.557531745,-187.090707454 221.524072208,-163.455318322 216.491216804,-163.397338523 " moovel_rot="50" moovel_centroid="225.511135086,-170.691653467"/>
  <polygon id="201148563" class="tile" points="238.999720858,-172.938704741 239.003567168,-156.993673002 234.927355562,-159.42247559 231.99909334,-161.169833223 238.999720858,-172.938704741 " moovel_rot="69.1" moovel_centroid="236.667333698,-163.70031628"/>
  <polygon id="314183372" class="tile" points="263.935544194,-156.993673002 264.148370614,-201.399415241 240.003567168,-201.48020607 240.048516243,-157.077605479 263.935544194,-156.993673002 " moovel_rot="62.9" moovel_centroid="252.034256071,-179.277440937"/>
  <polygon id="359863729" class="tile" points="282.541666699,-157.13614506 274.068166354,-156.993673002 273.687410269,-161.386701249 273.050660373,-162.128544532 271.28066987,-161.95444726 268.287395108,-168.180789909 265.148370614,-170.795114328 279.329790034,-197.396188312 286.607093871,-193.75687085 286.629446717,-161.783400678 282.44424013,-161.766155319 282.541666699,-157.13614506 " moovel_rot="56.5" moovel_centroid="278.353794559,-175.667800811"/>
  <polygon id="244091357" class="tile" points="287.63780104,-157.015390128 287.629446717,-212.139610547 316.631046645,-212.111272503 316.638519975,-156.993673002 287.63780104,-157.015390128 " moovel_rot="-82.1" moovel_centroid="302.133913315,-184.565126183"/>
  <polygon id="214712411" class="tile" points="317.690895326,-160.212493091 323.43297601,-159.915480236 323.389973509,-157.197163517 332.47562669,-156.993673002 333.097178489,-179.251090743 333.137853336,-190.240133316 334.714537165,-190.204171782 334.782126331,-191.461258273 340.934659718,-191.414558058 336.150173991,-202.428747481 317.638519975,-202.842532978 317.690895326,-160.212493091 " moovel_rot="-23.9" moovel_centroid="326.299207544,-181.870607336"/>
  <polygon id="331933011" class="tile" points="341.934659718,-186.295221466 365.528405744,-186.600716406 365.714020461,-182.373061473 367.520538979,-181.193920598 370.331695023,-181.078658261 371.057525957,-161.98361956 366.942500684,-161.719301937 365.163409416,-159.187273991 365.103467882,-158.17169559 365.041402047,-156.993673002 341.938282318,-157.03258317 341.934659718,-186.295221466 " moovel_rot="-81.4" moovel_centroid="355.589375604,-171.692094464"/>
  <polygon id="301013832" class="tile" points="383.951748558,-197.087934102 393.470019964,-189.673963107 397.402957745,-184.004444254 397.400657192,-173.642266992 388.005912046,-156.993673002 372.653869614,-169.587427109 372.057525957,-182.858028051 383.951748558,-197.087934102 " moovel_rot="-32.4" moovel_centroid="384.984207483,-177.444228235"/>
  <polygon id="298417656" class="tile" points="398.402957745,-172.649917827 422.930330511,-156.993673002 423.494546995,-160.270395616 421.53387223,-160.608419159 418.690134265,-161.098803548 423.510400205,-189.132236371 409.441345179,-192.597638916 404.409722607,-194.575500807 402.764455377,-191.149330465 400.394046111,-186.219447383 402.266098713,-185.385048723 406.193097474,-184.645297712 405.378637024,-180.326488743 403.742914917,-171.640866829 398.402957745,-172.649917827 " moovel_rot="-51.6" moovel_centroid="412.776848392,-178.229430975"/>
  <polygon id="450419568" class="tile" points="425.918403092,-156.993673002 439.554229732,-157.423739433 439.57999909,-200.03396364 424.510400205,-199.491446177 425.918403092,-156.993673002 " moovel_rot="-28.8" moovel_centroid="432.38679485,-178.840268802"/>
  <polygon id="413778948" class="tile" points="440.57999909,-235.379696065 460.564032088,-228.124869231 458.093170631,-156.993673002 440.630412296,-157.459862091 440.57999909,-235.379696065 " moovel_rot="55.9" moovel_centroid="449.850223938,-195.386443848"/>
  <polygon id="299666254" class="tile" points="475.499405442,-156.993673002 474.886396409,-158.640016525 471.652903887,-167.056316979 465.488546008,-182.129007315 461.564032088,-192.248575538 464.657685961,-193.509064321 462.364663859,-199.120853599 478.467532577,-205.368035764 482.819589969,-211.054475745 483.613443513,-209.152820279 483.49901798,-206.803493342 483.148748747,-204.223022361 481.879193513,-202.01535142 479.641584349,-199.549558317 476.557738929,-196.064246575 474.14406237,-193.177759822 472.966358908,-189.669368777 473.721788121,-185.832346928 476.626725949,-178.656259761 479.820964587,-170.179832631 483.568442145,-160.246610311 479.103836111,-158.469780779 475.499405442,-156.993673002 " moovel_rot="78.4" moovel_centroid="472.962976538,-184.028757863"/>
  <polygon id="185148208" class="tile" points="510.805581587,-157.035225232 503.658645839,-157.022935341 484.642407095,-156.993673002 484.613443513,-205.578627289 492.604221259,-205.59596492 504.663688069,-205.606597181 510.776613113,-205.620211502 510.805581587,-157.035225232 " moovel_rot="8.7" moovel_centroid="497.709256376,-181.306909829"/>
  <polygon id="324975289" class="tile" points="511.820501103,-157.282037885 537.97784917,-156.993673002 538.014648872,-177.045433758 526.383783489,-177.190024824 526.503197894,-185.901841398 511.805581587,-186.076402032 511.820501103,-157.282037885 " moovel_rot="-7.3" moovel_centroid="523.774393167,-169.999964428"/>
  <polygon id="314364902" class="tile" points="562.80425563,-157.065297417 562.828137874,-186.981328044 539.038577629,-186.909666097 539.014648872,-156.993673002 562.80425563,-157.065297417 " moovel_rot="51.1" moovel_centroid="550.921407494,-171.98748627"/>
  <polygon id="223631878" class="tile" points="580.285372668,-238.276486012 586.785857245,-238.441570062 586.789216787,-157.130837229 564.155433598,-156.993673002 563.828137874,-189.830750262 574.413385033,-189.628124545 574.114754883,-209.970888129 580.088889662,-210.506022225 580.285372668,-238.276486012 " moovel_rot="4.7" moovel_centroid="577.761998181,-187.129052311"/>
  <polygon id="279672694" class="tile" points="0.0,-291.447543776 24.0201953351,-290.868030946 23.9267520133,-346.104305781 0.857440368645,-346.263059356 1.67082722392,-323.750910046 0.71455920618,-322.989358422 0.0,-291.447543776 " moovel_rot="-65.7" moovel_centroid="12.366126084479381,-318.368076756"/>
  <polygon id="281839230" class="tile" points="26.570779991,-322.832263643 26.0201953351,-290.951008289 33.5108490521,-290.868030946 33.4705990413,-322.581733585 26.570779991,-322.832263643 " moovel_rot="7.6" moovel_centroid="29.8879469681,-306.591287141"/>
  <polygon id="245135709" class="tile" points="102.255159864,-291.740263276 52.038684742,-290.868030946 38.1082369896,-294.898144651 39.6367878919,-297.565976464 34.5108490521,-298.574292873 34.6056621434,-363.690265591 52.3038313625,-363.438201805 53.1762054512,-369.825222554 61.9179502783,-376.314594158 108.120040023,-376.454083371 108.485562737,-307.227396051 102.979646704,-307.446178169 102.255159864,-291.740263276 " moovel_rot="-25.7" moovel_centroid="72.330472304,-333.032178249"/>
  <polygon id="246832536" class="tile" points="109.493645597,-290.868030946 116.966235577,-291.007519319 123.649072938,-291.125892263 123.930048971,-333.85694512 118.703630148,-333.779976171 118.759293365,-336.611853477 116.832996825,-336.544349367 109.485562737,-336.126297353 109.489046447,-308.8042858 109.493645597,-290.868030946 " moovel_rot="-12.0" moovel_centroid="116.544004622,-313.324839264"/>
  <polygon id="252080751" class="tile" points="159.177258066,-290.868030946 199.347943252,-355.550034508 204.185856121,-364.078227789 213.650345076,-367.128961043 218.756331526,-379.496448979 226.243854213,-379.604894972 229.45405188,-408.267890606 225.826128423,-438.152693903 215.23684872,-474.333002601 209.528474226,-471.967768932 199.119357456,-489.924437638 182.083020291,-463.111285354 152.181306617,-482.93078311 142.928131484,-469.580212828 132.115122315,-476.007617969 124.930048971,-464.789531091 164.974386003,-440.49819032 167.696233408,-443.953433496 170.642434139,-440.495778562 165.172999922,-431.205801067 195.017844598,-412.296811495 181.703881565,-390.46251927 193.072021741,-383.889866903 180.396499841,-366.667670226 150.545789571,-385.573460381 124.982496082,-342.532136597 164.560688896,-319.857340813 150.444494592,-296.157354091 159.177258066,-290.868030946 " moovel_rot="30.1" moovel_centroid="182.342147714,-401.621816975"/>
  <polygon id="219722822" class="tile" points="234.606263775,-290.868030946 250.4575588,-292.846755184 250.485949256,-318.977646468 230.45405188,-315.338827738 234.606263775,-290.868030946 " moovel_rot="-72.6" moovel_centroid="241.518821054,-305.017793322"/>
  <polygon id="246735402" class="tile" points="275.030632932,-290.905288454 251.496484083,-290.868030946 251.485949256,-314.650945795 275.021314389,-314.679548987 275.030632932,-290.905288454 " moovel_rot="8.0" moovel_centroid="263.257881185,-302.776054649"/>
  <polygon id="220792590" class="tile" points="282.411747734,-294.968327442 276.073805073,-290.868030946 276.878417628,-301.27941987 276.849607386,-312.776105164 276.030632932,-321.017401168 281.541533979,-327.195204887 283.141599109,-315.868527433 282.756407084,-302.396124355 282.411747734,-294.968327442 " moovel_rot="59.9" moovel_centroid="279.674471783,-308.83572918"/>
  <polygon id="374110193" class="tile" points="284.173546366,-320.21212353 284.141599109,-298.151933161 292.850695144,-298.114479409 292.84776143,-290.922933741 307.552171656,-290.868030946 307.568967927,-303.421139575 299.462466242,-303.459495143 299.486838267,-320.155868327 284.173546366,-320.21212353 " moovel_rot="-19.5" moovel_centroid="294.680297948,-305.219213501"/>
  <polygon id="371137436" class="tile" points="308.568967927,-324.592975428 308.569886713,-290.868030946 325.520487738,-291.798231913 326.406003848,-301.209775279 328.311528457,-314.749813148 328.408750314,-318.109492808 323.326962843,-318.259621047 323.396316883,-320.681610563 322.274991731,-320.714460361 322.382237506,-324.205250431 321.687163884,-324.736070691 308.568967927,-324.592975428 " moovel_rot="-25.2" moovel_centroid="317.421706255,-307.691125231"/>
  <polygon id="185021243" class="tile" points="350.690513705,-293.946702796 350.664462702,-334.685227943 344.894111197,-335.173684501 335.262421341,-330.673074642 329.408750314,-308.428702406 335.192089246,-295.899539449 343.187520679,-290.868030946 350.690513705,-293.946702796 " moovel_rot="80" moovel_centroid="341.796104625,-313.051290369"/>
  <polygon id="331125086" class="tile" points="399.14539618,-360.051147323 399.189362522,-290.868030946 351.733108167,-290.886742297 351.690513705,-360.078619318 399.14539618,-360.051147323 " moovel_rot="-8.9" moovel_centroid="375.439094468,-325.470967872"/>
  <polygon id="185169185" class="tile" points="400.189362522,-347.638407448 407.587270497,-347.638403077 407.599051281,-290.87677957 400.201433674,-290.868030946 400.189362522,-347.638407448 " moovel_rot="1.9" moovel_centroid="403.894184395,-319.255589704"/>
  <polygon id="251716640" class="tile" points="408.599051281,-313.086251657 439.730189658,-367.37018587 447.24803054,-367.479989568 447.337564241,-290.868030946 408.599051281,-313.086251657 " moovel_rot="-85.7" moovel_centroid="434.090423916,-326.87315065"/>
  <polygon id="314183854" class="tile" points="448.337564241,-314.979440391 448.345067277,-290.900262459 462.672559685,-290.868030946 462.661311435,-314.939249892 448.337564241,-314.979440391 " moovel_rot="-25.2" moovel_centroid="455.503730737,-302.921221978"/>
  <polygon id="377007924" class="tile" points="463.672559685,-291.06932537 474.192248298,-290.868030946 474.127610778,-409.240488733 464.2836905,-409.476381727 463.672559685,-291.06932537 " moovel_rot="7.4" moovel_centroid="469.067164359,-349.508878138"/>
  <polygon id="181959264" class="tile" points="496.806249611,-354.954476373 501.813028388,-349.589927278 506.604135695,-344.453593246 492.876741605,-330.900175295 501.043968749,-314.542302058 506.573171619,-303.462684967 502.120781438,-301.391109628 503.486634128,-298.764848415 502.059558969,-296.009956259 500.380381659,-292.754894528 496.471794297,-290.868030946 475.192248298,-334.186471325 487.821355752,-346.534741573 496.806249611,-354.954476373 " moovel_rot="31.1" moovel_centroid="492.3222763,-324.716707534"/>
  <polygon id="229748765" class="tile" points="0.0,-620.693950176 9.39099985175,-632.316367998 17.5885845311,-636.122944189 68.0693344412,-652.603278285 82.0660480388,-651.204697513 108.328521404,-660.601683432 113.911663483,-649.703171769 79.927887647,-638.304737202 107.648418342,-556.185287575 105.956273171,-539.828005079 113.843049346,-516.781257283 106.519394276,-507.288849703 54.9721681874,-489.924437638 41.3282064613,-498.920885903 0.0,-620.693950176 " moovel_rot="13.4" moovel_centroid="60.0619028123226,-574.650533832"/>
  <polygon id="223633970" class="tile" points="115.911663483,-541.277765954 170.044049551,-628.7637792 172.35218308,-627.263430216 204.415112539,-607.391170092 198.73628412,-583.67402561 180.792275602,-518.164761425 204.459363859,-503.404695001 197.372859084,-489.924437638 115.911663483,-541.277765954 " moovel_rot="8.2" moovel_centroid="166.607783451,-561.684359442"/>
  <polygon id="448352514" class="tile" points="216.918610512,-489.940967841 216.900545505,-514.038770205 205.459363859,-514.023094284 205.470804552,-489.924437638 216.918610512,-489.940967841 " moovel_rot="7.4" moovel_centroid="211.187298379,-501.980654974"/>
  <polygon id="329370064" class="tile" points="225.419663418,-489.924437638 229.684344984,-489.975979734 229.79486178,-496.353608566 232.40057746,-496.384358989 232.422895546,-494.845955185 241.095706414,-494.955503245 241.105622605,-522.282681991 226.269674752,-522.407184014 226.473972298,-505.82220808 222.734308256,-505.774697672 222.635906378,-500.989354814 217.918610512,-500.706492535 217.928470031,-497.691071855 225.445424489,-497.620191537 225.419663418,-489.924437638 " moovel_rot="24.1" moovel_centroid="232.407519645,-507.194443119"/>
  <polygon id="252079921" class="tile" points="257.157264542,-523.15170587 242.123423478,-523.152863452 242.105622605,-489.925594844 257.139458036,-489.924437638 257.157264542,-523.15170587 " moovel_rot="-93.8" moovel_centroid="249.631442152,-506.538651489"/>
  <polygon id="383663645" class="tile" points="291.605315177,-489.924437638 287.294009577,-490.09030429 287.406640036,-492.579642923 279.218270194,-492.835676743 275.60340701,-492.111856082 274.422359441,-496.815776518 265.370712181,-494.920166724 258.157264542,-529.297122946 265.901442903,-531.480391313 264.673583602,-535.611746769 282.417078202,-545.625402832 284.32737358,-542.245292475 288.074189324,-536.755116378 292.10515868,-536.601175754 292.103240811,-513.2931915 291.605315177,-489.924437638 " moovel_rot="86.2" moovel_centroid="277.477536226,-517.076185189"/>
  <polygon id="322428253" class="tile" points="293.10515868,-489.924437638 293.107267928,-501.553894877 293.141451653,-586.996758877 316.959423256,-587.06674899 316.923277821,-489.994345969 293.10515868,-489.924437638 " moovel_rot="61.0" moovel_centroid="305.031769609,-538.49494298"/>
  <polygon id="185632365" class="tile" points="320.72103084,-516.000243385 319.268277614,-515.994142659 317.959423256,-515.98514041 317.961807305,-490.071233668 321.005041691,-489.924437638 341.679804765,-490.335794141 341.79759854,-508.225403792 341.707930987,-516.102265206 320.72103084,-516.000243385 " moovel_rot="40.9" moovel_centroid="329.830067933,-503.085092036"/>
  <polygon id="395655360" class="tile" points="342.904858112,-489.924437638 352.960866214,-490.051027819 352.976547607,-495.053544716 353.001420874,-500.402070847 353.024864928,-505.81794743 353.046115571,-511.132134645 353.069386691,-516.433117206 353.08575831,-521.895209962 353.151785273,-528.831151669 352.788074401,-528.829551407 352.824905876,-538.740825215 349.547466705,-538.752832108 346.128212879,-538.763409056 346.170472634,-538.371217705 346.164674039,-534.174286006 343.234604815,-534.178635733 343.224047772,-528.852571039 342.79759854,-528.854884289 342.801625548,-521.693170312 342.822141316,-516.338075848 342.835584904,-511.029197597 342.851467763,-505.646366538 342.868533539,-500.371827135 342.889048884,-495.016732606 342.904858112,-489.924437638 " moovel_rot="-81.3" moovel_centroid="348.045979613,-513.575291069"/>
  <polygon id="395180438" class="tile" points="354.151785273,-514.209818227 380.462139589,-536.136728284 383.049363925,-533.044432586 366.945386127,-519.618171221 383.038943107,-500.4143967 379.690968809,-497.627539854 381.358512778,-495.641512634 374.505927179,-489.924437638 354.151785273,-514.209818227 " moovel_rot="-29.2" moovel_centroid="369.867733426,-510.199515886"/>
  <polygon id="201026323" class="tile" points="397.096297489,-489.924437638 396.98262804,-496.713542921 397.088096065,-506.587827028 389.560977521,-506.85258442 388.873816614,-511.712396512 387.470262101,-512.125570322 384.799992152,-512.26369158 384.049363925,-490.119160594 397.096297489,-489.924437638 " moovel_rot="10.7" moovel_centroid="390.304380701,-499.43760924"/>
  <polygon id="323057186" class="tile" points="404.868631561,-531.354776002 404.870401178,-521.148678466 398.103820202,-521.151052289 398.107343085,-511.157320942 398.096297489,-508.084644711 408.529019495,-508.029555169 408.454192289,-490.028730652 426.78621388,-489.924437638 426.88499032,-511.890970736 428.339385024,-511.880373506 429.03934326,-512.521054716 429.035874138,-531.338578341 404.868631561,-531.354776002 " moovel_rot="-7.7" moovel_centroid="415.694480147,-512.28570148"/>
  <polygon id="370626651" class="tile" points="453.428422578,-516.756436924 430.03934326,-516.654669422 430.099890875,-489.934104034 446.154999344,-489.924437638 448.894236708,-494.259059124 453.399976285,-494.08508633 453.428422578,-516.756436924 " moovel_rot="-18.5" moovel_centroid="441.387998441,-503.80350717"/>
  <polygon id="369869155" class="tile" points="462.143580231,-490.294554449 460.006390254,-490.334038136 454.675316269,-489.924437638 454.428422578,-509.352969582 462.156183117,-509.845737326 462.143580231,-490.294554449 " moovel_rot="63.0" moovel_centroid="458.351883958,-499.946010868"/>
  <polygon id="285497482" class="tile" points="463.156183117,-489.924437638 463.212214442,-496.836199447 463.191209183,-506.775183259 465.700295814,-509.23443347 475.097317945,-509.295804438 475.055333555,-516.100907168 465.980268624,-516.045025007 463.175837673,-518.913486075 463.15962503,-527.621888204 469.923006446,-534.053410235 489.178678973,-513.395094976 480.348169685,-504.6547603 483.421911887,-501.668040775 473.451380446,-491.539813828 470.656180573,-491.722192575 468.684812704,-491.534759762 467.868346924,-491.458144219 463.156183117,-489.924437638 " moovel_rot="-67.1" moovel_centroid="473.264690752,-511.082827136"/>
  <polygon id="252080163" class="tile" points="520.788756739,-558.213754749 490.178678973,-521.839388757 493.044108762,-519.422829986 490.406694477,-516.287219934 521.711122705,-489.924437638 530.974881199,-500.928349658 506.97132728,-521.141966549 530.95505199,-549.648021382 520.788756739,-558.213754749 " moovel_rot="-43.9" moovel_centroid="511.555255708,-522.865176791"/>
  <polygon id="255480858" class="tile" points="531.974881199,-507.684569939 552.985751436,-489.924437638 552.995095629,-555.286864099 532.402289769,-574.589874262 531.974881199,-507.684569939 " moovel_rot="30.1" moovel_centroid="542.539087703,-531.806940366"/>
  <polygon id="448157971" class="tile" points="41.9039746553,-766.810721341 0.0,-767.369555787 0.130321249366,-667.236053851 21.1844474383,-663.373171625 26.1134190006,-660.626035577 45.5499307411,-660.601683432 45.9609328805,-758.559959012 42.0798323533,-759.036908649 41.9039746553,-766.810721341 " moovel_rot="58.9" moovel_centroid="23.04345059343536,-714.761094233"/>
  <polygon id="392694269" class="tile" points="47.9678040864,-660.601683432 51.6496874958,-660.605835901 51.6494184814,-669.527235015 47.9609328805,-669.522071419 47.9678040864,-660.601683432 " moovel_rot="8.7" moovel_centroid="49.8069947234,-665.065538418"/>
  <polygon id="46421827" class="tile" points="73.7965024587,-760.623715201 64.0102569401,-758.857362366 52.6502970122,-754.718989087 52.6496874958,-662.054930425 70.7016244613,-660.601683432 80.4079166651,-674.294488418 87.4375237551,-709.18323241 88.0049581032,-748.096857118 85.8875032984,-754.750368232 73.7965024587,-760.623715201 " moovel_rot="-34.1" moovel_centroid="68.9575354431,-712.660413685"/>
  <polygon id="181959273" class="tile" points="89.0250109455,-689.741658086 89.0049581032,-679.871984819 109.054331595,-679.336433588 108.720567588,-660.601683432 122.987844828,-661.32604383 122.967965724,-699.603244775 98.62972857,-700.643794258 98.3604159502,-698.538453962 98.5510830713,-689.987614494 89.0250109455,-689.741658086 " moovel_rot="40.4" moovel_centroid="110.347307494,-683.3160352"/>
  <polygon id="243544155" class="tile" points="123.987844828,-660.601683432 123.988112822,-676.897352572 125.490319296,-676.899599842 125.497658244,-690.268611231 123.995452967,-690.266363405 124.005258288,-693.479734103 139.215272889,-693.510691045 140.289075241,-694.050525538 140.542631059,-695.243561449 140.466535054,-708.599756389 143.608279946,-708.628867558 153.820955642,-708.409592447 154.027271367,-667.688476857 153.993106677,-664.088775421 154.018464493,-660.763354876 142.779291559,-660.649110848 123.987844828,-660.601683432 " moovel_rot="65.1" moovel_centroid="140.628264087,-681.086072915"/>
  <polygon id="63406831" class="tile" points="170.153939336,-705.695038539 155.996689604,-707.103168457 155.027271367,-660.797217233 170.218522511,-660.601683432 170.208949358,-663.990931829 170.153939336,-705.695038539 " moovel_rot="-67.1" moovel_centroid="162.811369971,-683.287077888"/>
  <polygon id="238142698" class="tile" points="177.410851354,-660.841734178 183.406933578,-660.601683432 183.374476862,-681.061784255 183.471886937,-685.647814633 183.466462293,-705.311365332 171.218522511,-705.270756084 171.225852448,-683.46170718 177.410965183,-683.468451672 177.410851354,-660.841734178 " moovel_rot="-28.8" moovel_centroid="178.378603573,-686.860970038"/>
  <polygon id="364566686" class="tile" points="190.597983173,-693.384562948 196.008182882,-695.79489767 209.262516629,-696.100616995 209.297389061,-660.601683432 207.476092451,-660.988094106 203.253857895,-661.885309834 184.471886937,-665.611480551 190.597983173,-693.384562948 " moovel_rot="62.2" moovel_centroid="198.746053667,-678.452082493"/>
  <polygon id="376131194" class="tile" points="210.297389061,-758.93350714 226.989613654,-774.530001271 225.496364302,-771.873830231 225.228367886,-770.22212879 225.981016429,-768.94700921 227.307595737,-768.035276511 231.325606993,-767.867502727 231.245233008,-660.842571565 221.516309695,-660.601683432 221.072586356,-706.110690065 221.695203322,-707.358576858 222.254092126,-708.490154216 221.975731437,-709.983679344 221.020986354,-711.365681065 220.905293007,-723.602729121 220.788927334,-726.287125777 220.06351932,-727.436789928 218.477330579,-727.982580747 213.419286803,-720.304692282 211.377693843,-721.921317649 210.297389061,-758.93350714 " moovel_rot="-34.5" moovel_centroid="223.42278623,-723.443230603"/>
  <polygon id="248143116" class="tile" points="232.32743065,-694.443625776 232.325606993,-660.604050877 235.965254764,-660.604143797 253.696794312,-660.601683432 255.244475483,-660.603171328 255.249558373,-694.448576495 254.591572326,-694.447109346 243.462803735,-694.451173294 232.32743065,-694.443625776 " moovel_rot="60.3" moovel_centroid="243.787096055,-677.526064396"/>
  <polygon id="283155489" class="tile" points="258.303899426,-724.509822504 257.759902173,-724.140650062 257.104068497,-723.489657407 256.601408323,-722.712550296 256.268502322,-721.848490027 256.249558373,-665.62168707 260.167054261,-665.622030148 260.169824805,-660.625848537 312.39349648,-660.601683432 313.226930095,-660.749387316 313.629494571,-660.890575105 314.006689978,-661.077909057 314.689201764,-661.583324433 314.987040319,-661.887279396 315.456536583,-662.586068599 315.767983653,-663.37824825 315.887242077,-664.215003517 315.889325199,-722.025275945 315.599505395,-722.857470446 315.131492353,-723.611733023 314.510654906,-724.241917949 313.759758596,-724.720479132 312.929209097,-725.025050408 312.049249804,-725.142212101 311.605050753,-725.118350176 310.73487556,-724.940428988 261.691945526,-724.960252687 260.779140716,-725.109431585 260.312176586,-725.113114902 259.399074223,-724.9716851 258.958788986,-724.829789703 258.303899426,-724.509822504 " moovel_rot="28.8" moovel_centroid="286.198992013,-692.915107496"/>
  <polygon id="185632362" class="tile" points="317.047763118,-718.411928842 323.395964121,-718.43057221 339.654479814,-718.481021358 339.619409432,-660.601683432 334.262719576,-660.770334036 334.547854998,-689.425339676 316.889325199,-689.531815242 317.047763118,-718.411928842 " moovel_rot="39.8" moovel_centroid="329.936975793,-698.547151349"/>
  <polygon id="283424655" class="tile" points="340.727738383,-661.367190243 352.759985221,-661.164423053 386.262001719,-660.601683432 386.805959004,-707.55220981 371.722020243,-708.671447792 371.765286602,-701.858875898 364.498855533,-701.724117058 364.752558783,-709.330650362 340.654479814,-709.248601396 340.727738383,-661.367190243 " moovel_rot="10.3" moovel_centroid="363.429572872,-684.491615508"/>
  <polygon id="232491728" class="tile" points="387.805959004,-660.601683432 404.729235792,-660.753087148 404.487145372,-701.493985475 387.843833844,-701.353701287 387.805959004,-660.601683432 " moovel_rot="63.8" moovel_centroid="396.216387294,-680.993965735"/>
  <polygon id="376097629" class="tile" points="405.729235792,-690.233019173 422.943347274,-691.016789785 423.792458099,-665.409577255 416.882494296,-660.601683432 405.73594773,-660.896759209 405.729235792,-690.233019173 " moovel_rot="-50.3" moovel_centroid="414.419957227,-675.961189591"/>
  <polygon id="443361971" class="tile" points="424.792458099,-660.601683432 452.216935236,-663.321884502 450.959409315,-694.393906174 424.829119883,-693.407385067 424.792458099,-660.601683432 " moovel_rot="11.6" moovel_centroid="438.087283165,-677.79151828"/>
  <polygon id="242109830" class="tile" points="459.337760087,-684.136849579 453.216935236,-684.33901141 453.2213384,-660.601683432 459.006813046,-660.646167876 459.004467093,-664.062259651 459.337760087,-684.136849579 " moovel_rot="6.1" moovel_centroid="456.179008212,-672.554795924"/>
  <polygon id="374110190" class="tile" points="482.923029574,-699.964107909 482.681341818,-681.557517882 479.266305221,-681.521081293 478.817761466,-667.809866075 471.971840105,-667.565065566 471.633576015,-660.601683432 460.34886151,-666.905301126 460.337760087,-702.924684223 470.369675315,-703.090266997 482.923029574,-699.964107909 " moovel_rot="70.0" moovel_centroid="470.533748292,-684.510504793"/>
  <polygon id="240194177" class="tile" points="483.938208862,-660.641061507 493.53111999,-660.62760026 513.379498289,-660.601683432 513.363692358,-707.677287505 490.13141071,-707.716600593 490.129823817,-710.08464007 483.923029574,-710.09326417 483.925010872,-704.658994835 483.938208862,-660.641061507 " moovel_rot="-14.5" moovel_centroid="498.528895332,-684.420948948"/>
  <polygon id="354589536" class="tile" points="514.383671967,-685.88086176 514.379498289,-660.843964754 532.885266194,-660.601683432 532.868672347,-685.953599587 514.383671967,-685.88086176 " moovel_rot="-29.6" moovel_centroid="523.648543451,-673.317590433"/>
  <polygon id="300593880" class="tile" points="533.937727156,-709.504069995 551.36468563,-707.591156766 556.575506845,-684.196011633 556.996308454,-679.149417695 557.13851196,-674.567166036 557.023098684,-669.188435669 556.460422696,-660.601683432 534.632190652,-663.099558379 533.885266194,-663.341883689 534.105174214,-672.373588735 541.085637072,-671.287345224 533.937727156,-709.504069995 " moovel_rot="-49.7" moovel_centroid="546.080321967,-684.089140968"/>
  <polygon id="412123945" class="tile" points="558.41585022,-680.314869443 558.70292373,-660.601683432 582.467094628,-660.805124092 582.470863103,-689.704135965 570.152019865,-689.604003646 570.542895261,-682.179836544 565.420650682,-682.097941883 558.13851196,-682.192243253 558.41585022,-680.314869443 " moovel_rot="-59.9" moovel_centroid="571.377412783,-673.631469853"/>
  <polygon id="306796261" class="tile" points="1.56156529784,-891.09320612 0.0,-880.367767404 47.4234444849,-774.530001271 58.3699612342,-779.97146761 58.3543558471,-900.588368854 32.3453091234,-889.013677613 26.7685376398,-902.663299975 1.56156529784,-891.09320612 " moovel_rot="-25.6" moovel_centroid="36.62001743389232,-849.519880658"/>
  <polygon id="185605917" class="tile" points="80.7810397688,-793.473531028 84.4815597326,-793.458447489 84.4865131781,-774.530001271 60.392298454,-774.614945679 60.3699612342,-822.848145592 83.7649261367,-822.769641996 83.7695806712,-806.704191222 80.6078228459,-806.724562898 72.5976733912,-806.750603589 72.6015336767,-793.494862154 80.7810397688,-793.473531028 " moovel_rot="-49.3" moovel_centroid="71.3291608754,-798.284093275"/>
  <polygon id="185021235" class="tile" points="105.228935261,-774.530001271 85.5302682225,-776.605591625 89.7214231946,-808.445790851 85.4865131781,-815.566704105 109.32401743,-812.581176507 105.228935261,-774.530001271 " moovel_rot="-84.5" moovel_centroid="97.4316936049,-794.920542148"/>
  <polygon id="222789631" class="tile" points="111.07843947,-774.530001271 118.451473023,-774.64929411 118.521553368,-851.113868626 110.32401743,-850.705249888 111.07843947,-774.530001271 " moovel_rot="40.5" moovel_centroid="114.593068232,-813.424192436"/>
  <polygon id="276142255" class="tile" points="187.812377064,-858.642099661 187.882376631,-774.530001271 119.838366812,-774.889991489 119.521553368,-807.583914089 126.250369392,-807.568872707 125.244473832,-830.543521976 129.968146893,-830.590878617 130.051275788,-836.772990631 125.236384778,-836.758349745 125.152548834,-838.337222958 123.398230093,-838.584706884 123.071728129,-862.215320126 151.852103917,-861.806304159 151.777975828,-858.772561196 187.812377064,-858.642099661 " moovel_rot="26.7" moovel_centroid="155.094217833,-816.75600247"/>
  <polygon id="315149996" class="tile" points="197.473202927,-774.740241914 220.205168882,-774.530001271 221.504476394,-834.619840302 188.882376631,-834.997728001 188.898983976,-817.222485272 197.433514111,-817.223441835 197.45556488,-792.204437197 196.931130974,-792.204364003 196.936788907,-786.829952819 197.467433009,-786.827567402 197.473202927,-774.740241914 " moovel_rot="-21.6" moovel_centroid="207.580118291,-807.003622386"/>
  <polygon id="296322568" class="tile" points="327.876866829,-872.727080576 285.953820354,-825.95846248 306.858629909,-807.624914087 280.069243405,-775.538757151 273.821519062,-774.530001271 222.573988892,-818.566636283 244.066710291,-844.142350105 238.27152456,-849.182445776 233.184474328,-853.992879825 264.827490216,-891.339111879 222.504476394,-927.183881309 240.599437166,-946.868142128 253.137376065,-941.539433439 268.174425636,-929.39986771 286.476457665,-913.42593935 298.679803229,-898.345555827 327.876866829,-872.727080576 " moovel_rot="17.3" moovel_centroid="270.645704204,-857.630770941"/>
  <polygon id="377121562" class="tile" points="346.156940044,-774.828798224 346.169080641,-797.583897789 328.876866829,-797.431101571 329.069814066,-774.530001271 346.156940044,-774.828798224 " moovel_rot="8.8" moovel_centroid="337.558755604,-786.115958596"/>
  <polygon id="413778951" class="tile" points="347.181078841,-828.775600663 355.404412748,-828.223538361 354.361033373,-851.61107486 399.498650452,-870.295668409 396.307237748,-799.584125791 432.342426798,-799.33580268 431.372571808,-775.173529623 347.169080641,-774.530001271 347.181078841,-828.775600663 " moovel_rot="45.5" moovel_centroid="381.250534132,-811.664002615"/>
  <polygon id="393413919" class="tile" points="437.392218487,-774.530001271 437.297289816,-807.925203787 433.342426798,-807.459602869 433.63207593,-822.774343729 437.355007946,-823.430196812 437.383862972,-826.576799203 440.464468919,-827.068516004 448.266553882,-828.298153911 448.234325025,-777.28686328 439.706412389,-775.999972065 437.392218487,-774.530001271 " moovel_rot="5.2" moovel_centroid="442.079029271,-803.200912478"/>
  <polygon id="305092842" class="tile" points="489.562571443,-825.320773268 489.498125817,-777.865904155 462.265063422,-774.530001271 460.701709691,-786.159910116 449.478577405,-786.010790932 449.266553882,-820.415726673 464.768723452,-820.176436064 464.910063491,-825.327394234 489.562571443,-825.320773268 " moovel_rot="-30.4" moovel_centroid="470.810825412,-801.121750168"/>
  <polygon id="377437722" class="tile" points="491.496931152,-774.530001271 491.487517629,-778.396489011 491.487174552,-783.371221658 491.477409785,-788.190682662 490.575251079,-788.187235504 490.562571443,-799.60758088 497.389040539,-799.369477853 504.236623514,-799.280185979 504.235253156,-797.315202784 504.130652409,-784.023952985 504.120385476,-782.48510737 504.242967716,-774.5945734 497.424717699,-774.557336271 491.496931152,-774.530001271 " moovel_rot="-28.9" moovel_centroid="497.601762896,-787.208275348"/>
  <polygon id="167246605" class="tile" points="505.242967716,-774.634407585 505.264161463,-800.334170862 529.183423003,-800.229724465 529.162254399,-774.530001271 505.242967716,-774.634407585 " moovel_rot="-32.1" moovel_centroid="517.213198526,-787.432073811"/>
  <polygon id="309141147" class="tile" points="530.197485163,-811.525455969 533.733074869,-816.01502558 540.4444917,-811.05235001 544.94016015,-805.092502316 546.753247874,-795.260918204 544.750043454,-785.0337483 538.652542841,-776.955512217 534.44429336,-774.530001271 530.183423003,-778.646670253 532.990496794,-781.786541732 536.109469925,-784.996869825 538.140848253,-789.376157815 539.888071792,-793.777785816 538.042169035,-799.041972006 535.861471468,-803.681219379 533.089713932,-807.773083662 530.197485163,-811.525455969 " moovel_rot="-20.6" moovel_centroid="539.26521415,-795.385608517"/>
  <polygon id="298417639" class="tile" points="577.316441388,-777.805937386 569.939850887,-774.530001271 568.595647941,-777.287567907 567.086823697,-776.553550303 563.703067562,-783.526555597 555.461096067,-800.467569871 557.3728423,-801.391927962 552.582795251,-811.236599041 550.449919066,-816.030675398 547.753247874,-822.101411447 549.803864512,-823.075791185 563.381645669,-829.519560801 573.799435187,-833.645831858 577.340409032,-835.091516367 577.328742384,-827.110189817 577.316441388,-777.805937386 " moovel_rot="70.5" moovel_centroid="566.677532254,-806.944958351"/>
  <polygon id="309309713" class="tile" points="59.1031563861,-1008.86042415 59.4029813318,-947.153245296 0.0,-946.868142128 0.0574543649331,-1004.52928055 20.5165068939,-1008.66902133 59.1031563861,-1008.86042415 " moovel_rot="-0.9" moovel_centroid="29.90295559801934,-977.494614188"/>
  <polygon id="223633973" class="tile" points="61.4036632068,-1087.41525096 110.410565241,-1088.66550347 109.982242867,-1074.23378209 127.384990234,-1065.14224256 150.103176555,-1053.28010302 153.473687399,-1053.41966183 152.923491597,-969.243700571 148.259486699,-969.128590256 148.209730149,-946.868142128 61.4029813318,-947.148723315 61.4069345865,-950.687323591 61.4036632068,-1087.41525096 " moovel_rot="40.0" moovel_centroid="104.403565398,-1012.8643168"/>
  <polygon id="373350939" class="tile" points="200.187859076,-1100.22029552 198.373926482,-1103.1433867 195.934655003,-1105.62533186 193.113209446,-1106.09988567 161.657906181,-1098.74819502 159.978476416,-1097.60652333 158.67578133,-1095.68282294 158.416884022,-1094.52447421 158.516144527,-1092.56423351 158.911176115,-1091.11929627 158.799252565,-1090.30135364 157.998030303,-1089.8901606 154.571704885,-1089.12711694 158.72136128,-1051.10548778 163.034382802,-1051.05672188 162.049366475,-1033.20080897 159.67587461,-1015.60439256 154.878210392,-979.823425248 154.473687399,-977.460390123 154.63592427,-975.223094858 155.131985501,-973.62077822 156.835414407,-971.650633017 198.112193774,-946.868142128 210.553486572,-968.221415008 218.393241033,-1000.61368987 216.769468779,-1004.78593241 209.968921207,-1006.61100964 210.80902257,-1010.83316738 206.696282304,-1012.05027386 206.115336885,-1012.95518935 206.940226217,-1016.14369305 208.076808917,-1016.34157935 211.734754425,-1015.49128052 214.637965908,-1026.94314638 216.188365473,-1039.21712832 216.565820087,-1046.06313113 216.728555771,-1053.4062562 216.218365579,-1059.99194873 215.422756845,-1066.98968959 210.558770708,-1066.35138358 209.337298755,-1074.66314849 206.590755769,-1083.82137208 203.714645392,-1091.89633816 200.187859076,-1100.22029552 " moovel_rot="-57.3" moovel_centroid="185.895125088,-1028.553866"/>
  <polygon id="356330310" class="tile" points="259.112782321,-1020.19605386 259.114179776,-1008.6037053 248.200965684,-1008.63786154 248.203196871,-1013.97198543 227.457697929,-1014.04154175 227.456870641,-956.484054908 247.840994856,-956.421432641 247.842729682,-961.475586893 259.945893176,-961.433337161 259.946818744,-946.868142128 219.393241033,-946.996437661 219.393685555,-1020.32006986 259.112782321,-1020.19605386 " moovel_rot="-28.6" moovel_centroid="234.777545165,-981.054541289"/>
  <polygon id="389713125" class="tile" points="285.668131574,-946.868142128 261.647936641,-947.013383064 261.657321906,-951.472291768 260.975193538,-951.492688612 260.946818744,-961.8967627 263.969319151,-961.819713673 264.206802148,-1029.03936666 261.689341538,-1029.10285633 261.812438881,-1039.59843554 263.238969013,-1039.56120124 263.368138597,-1047.23274164 285.834684196,-1046.95087865 285.665762745,-1031.44336764 284.345477295,-1031.43675504 284.200866753,-961.115428992 285.844663913,-961.125434787 285.668131574,-946.868142128 " moovel_rot="60.9" moovel_centroid="274.0085346,-996.735918183"/>
  <polygon id="395655354" class="tile" points="290.309992181,-947.590331142 290.265841606,-946.868142128 301.120609791,-946.884409226 301.120392804,-949.348710581 301.865202753,-949.350668972 301.888824064,-981.147433678 301.887831995,-983.496843407 300.441617909,-983.499336238 300.442116964,-987.280305005 290.197951564,-987.333949087 290.191552527,-986.536315554 290.185758677,-981.289468077 292.332405439,-981.289132171 292.32829082,-975.610430366 286.863741978,-975.613687799 286.858175553,-973.729169884 286.844663913,-962.647801771 291.413900389,-962.640616478 292.088517992,-961.916540341 292.094358859,-960.134980881 291.410544477,-959.419608509 290.363751154,-959.420318281 290.313705788,-953.51203127 290.309992181,-947.590331142 " moovel_rot="-81.6" moovel_centroid="295.484996464,-966.977978568"/>
  <polygon id="375719859" class="tile" points="303.448125202,-976.486949017 311.909325689,-976.43934965 311.956434828,-946.868142128 302.888824064,-946.957084888 303.448125202,-976.486949017 " moovel_rot="-29.6" moovel_centroid="307.55010509,-961.517401448"/>
  <polygon id="220770143" class="tile" points="336.713326315,-971.708146569 313.663124386,-971.571042294 312.956434828,-947.277569271 336.745518617,-946.868142128 336.713326315,-971.708146569 " moovel_rot="1.8" moovel_centroid="325.061778405,-959.290734636"/>
  <polygon id="234554439" class="tile" points="367.502498858,-947.073961933 371.90905321,-951.690522176 371.946524524,-1015.12928009 337.745518617,-987.968009333 338.139783673,-983.531097182 358.314226656,-986.231323348 359.678163133,-977.67076345 360.249064087,-973.287180822 361.037982772,-967.239138238 361.811594278,-961.332990077 363.654889225,-946.868142128 367.502498858,-947.073961933 " moovel_rot="-73.2" moovel_centroid="362.213774659,-983.916003976"/>
  <polygon id="252080092" class="tile" points="372.946524524,-986.487885903 372.948103292,-946.870039976 384.04237978,-946.868142128 384.041379087,-949.726325979 388.708062349,-949.725384878 388.709092275,-982.773799629 388.707483765,-986.485039666 372.946524524,-986.487885903 " moovel_rot="-4.0" moovel_centroid="380.706848844,-967.079222631"/>
  <polygon id="285310128" class="tile" points="410.623158073,-1028.95407354 409.802718169,-1004.15114981 389.711741603,-1005.33672208 389.709092275,-959.866936881 389.712820657,-946.868142128 432.096701355,-948.762415451 433.232575544,-950.801111755 431.13570547,-992.70854481 430.901215094,-997.721182451 422.219733027,-997.8315562 421.504582725,-1028.88116512 410.623158073,-1028.95407354 " moovel_rot="-67.1" moovel_centroid="410.89301821,-979.737777454"/>
  <polygon id="266175000" class="tile" points="434.481012534,-946.868142128 434.232575544,-981.566117677 448.671184826,-982.274091199 448.666968884,-947.322720092 444.274999098,-946.948006061 434.481012534,-946.868142128 " moovel_rot="1.8" moovel_centroid="441.524244034,-964.501396356"/>
  <polygon id="283808499" class="tile" points="502.958019592,-982.568161592 502.898595419,-983.666458138 504.174228049,-983.992616608 505.978890588,-982.266103929 506.884134543,-980.833295325 516.160827279,-982.577245318 516.756629922,-984.950593181 517.734471557,-986.804699806 518.927600644,-988.135056905 520.457522827,-989.173012996 521.710076406,-989.405072992 522.343928136,-988.150469039 522.326883475,-986.755624946 522.554001602,-984.934448595 522.517048291,-979.878455827 519.798298059,-979.787377666 520.346138919,-974.409139912 521.5934206,-974.233775179 522.187212499,-969.205372044 541.107282754,-969.486026021 542.30041056,-970.816385356 542.188967599,-974.008023675 541.999589651,-978.034607353 542.257622829,-982.570176146 542.690059402,-986.80121944 543.139600644,-990.14225698 543.765171689,-1009.84112847 542.97566816,-1027.17257579 542.410976447,-1032.13672745 541.857958029,-1033.68025815 541.295515096,-1034.66233888 542.460501548,-1035.32953291 542.58579247,-1038.24220734 541.402974085,-1039.03075536 542.08637428,-1039.82654353 542.26359484,-1044.07314945 542.32346152,-1048.24243358 543.810896016,-1078.82778872 538.100376982,-1078.97451325 538.340976265,-1074.56281919 525.992423757,-1072.20198252 489.59811132,-1071.66965505 490.141388121,-1064.17591764 454.704256646,-1063.54470019 453.979263108,-1062.39146843 449.671184826,-1062.36069876 450.821009903,-982.604460316 451.859792476,-979.943944054 454.559380577,-974.665731077 455.709724285,-972.079211631 456.407357075,-969.718703576 451.832754736,-969.454447944 451.874197126,-950.875650407 451.996673616,-949.237188652 454.305241693,-949.184345908 456.572011634,-948.935693289 458.103637767,-947.538092603 458.487322022,-946.868142128 480.71199453,-955.04678667 504.054763605,-964.270172495 504.870945734,-965.54641321 503.94768392,-967.454192105 503.366697756,-969.315350775 503.424081487,-969.793059238 504.171707016,-970.261668822 506.24707677,-971.126721026 506.93637636,-971.845009885 506.507184474,-972.943852761 502.958019592,-982.568161592 " moovel_rot="29.8" moovel_centroid="495.586174717,-1016.00867109"/>
  <polygon id="108295745" class="tile" points="10.9735741485,-1166.90752908 56.5604311913,-1155.05011897 54.2256735586,-1140.55461603 56.544636067,-1112.8138276 3.73201449662,-1106.09988567 0.0,-1126.90303097 7.36783711128,-1163.78782237 10.9735741485,-1166.90752908 " moovel_rot="-56.7" moovel_centroid="27.711858065208087,-1135.01205618"/>
  <polygon id="299598614" class="tile" points="75.2665137863,-1106.33369412 70.5127610303,-1106.12996421 68.4755751172,-1106.09988567 68.5049123863,-1106.97850435 68.4422101269,-1108.88996574 66.6884428244,-1108.83295457 66.6808139598,-1109.13666296 64.1675252568,-1109.05676829 64.1008085927,-1111.12807571 60.8904105604,-1111.02578626 60.9535972435,-1108.94880869 58.5651321169,-1108.86989182 58.7071719101,-1113.15573432 58.7047166098,-1118.22384515 58.5604311913,-1129.81574134 60.145405256,-1133.37651837 70.9458899088,-1126.74821713 71.3423964966,-1118.27215058 75.0188820001,-1118.0921935 75.3019048899,-1111.79521794 75.2665137863,-1106.33369412 " moovel_rot="58.1" moovel_centroid="66.0853329875,-1118.43030035"/>
  <polygon id="288448675" class="tile" points="100.673734309,-1106.09988567 76.3443681512,-1106.18788723 76.3720870938,-1117.95960338 76.3863092903,-1124.28861518 76.3019048899,-1130.4584881 76.313426563,-1136.47559643 84.2011768889,-1136.39658215 98.6795060534,-1136.3643131 100.679942678,-1136.3822056 100.534691053,-1124.30899231 90.2346388897,-1124.31652502 87.6033143174,-1124.32108555 79.867879523,-1124.33061022 79.8604720088,-1118.15833073 87.7204951655,-1118.15590169 90.4217886675,-1118.15061725 100.527291701,-1118.13670827 100.673734309,-1106.09988567 " moovel_rot="60.9" moovel_centroid="88.1050256406,-1121.28671319"/>
  <polygon id="185169188" class="tile" points="101.734963257,-1106.67266935 101.679942678,-1177.02629805 108.43061772,-1176.99606187 114.372686268,-1176.96529584 113.796448558,-1106.09988567 108.76978971,-1106.33631983 101.734963257,-1106.67266935 " moovel_rot="1.9" moovel_centroid="107.904832772,-1141.99001816"/>
  <polygon id="220772336" class="tile" points="134.446382934,-1140.42840939 115.390713327,-1137.30792382 115.372686268,-1107.57737537 124.568872709,-1106.09988567 122.941265088,-1120.87476348 137.031976346,-1122.61393618 134.446382934,-1140.42840939 " moovel_rot="9.3" moovel_centroid="124.231954259,-1125.9654983"/>
  <polygon id="376406579" class="tile" points="153.647536748,-1151.52669125 138.031976346,-1151.50874363 138.034715345,-1106.09988567 153.650292249,-1106.117831 153.647536748,-1151.52669125 " moovel_rot="82.1" moovel_centroid="145.841130239,-1128.81328389"/>
  <polygon id="383830159" class="tile" points="182.500495899,-1106.66984819 161.89245495,-1106.09988567 154.650292249,-1115.93539646 155.375378848,-1171.37671049 182.458284957,-1171.55807458 182.500495899,-1106.66984819 " moovel_rot="24.5" moovel_centroid="168.937585945,-1139.31690141"/>
  <polygon id="185610604" class="tile" points="183.500495899,-1106.09988567 183.804710406,-1112.63823483 183.52030143,-1129.54867605 192.145083462,-1129.98948183 202.560706944,-1130.52384567 203.196515139,-1106.59583516 183.500495899,-1106.09988567 " moovel_rot="-48.0" moovel_centroid="193.303672673,-1118.14260154"/>
  <polygon id="185148213" class="tile" points="211.567660882,-1159.58747793 223.764175346,-1159.66900444 223.77036482,-1131.75791851 223.774181891,-1106.09988567 209.291820807,-1106.35315455 204.709464945,-1127.6135684 204.196515139,-1135.25027346 211.930802965,-1135.31796797 211.567660882,-1159.58747793 " moovel_rot="9.1" moovel_centroid="216.004548979,-1131.03790193"/>
  <polygon id="294992644" class="tile" points="224.774181891,-1147.1354282 225.483799604,-1150.02757243 227.086433478,-1152.30686964 229.700902813,-1154.3588972 239.567429531,-1158.06044601 241.552505257,-1158.04539007 243.013123242,-1157.14836576 245.495217095,-1153.94457793 245.474849158,-1106.347822 240.017538719,-1106.09988567 238.054363883,-1111.40374113 225.581965566,-1144.97636759 224.774181891,-1147.1354282 " moovel_rot="-82.7" moovel_centroid="237.774334372,-1135.70819939"/>
  <polygon id="263999827" class="tile" points="246.495217095,-1106.10448506 246.511116578,-1129.23868561 264.30634608,-1129.22741027 264.290654218,-1106.09988567 246.495217095,-1106.10448506 " moovel_rot="-91.8" moovel_centroid="255.40040547,-1117.66759485"/>
  <polygon id="201149342" class="tile" points="273.271126229,-1139.7095937 273.260663478,-1106.1102475 267.471666042,-1106.10116721 265.30634608,-1106.09988567 265.310333975,-1119.71254263 266.301141783,-1119.7143198 266.307617971,-1139.70100172 273.271126229,-1139.7095937 " moovel_rot="10.3" moovel_centroid="269.567103054,-1122.36012272"/>
  <polygon id="219804228" class="tile" points="284.601997468,-1106.09988567 274.271126229,-1142.665374 297.818843018,-1148.90159978 285.909687132,-1192.96491213 315.187864884,-1175.50866537 336.723079793,-1173.61623804 336.776495128,-1120.95864908 331.675045517,-1119.16957412 284.601997468,-1106.09988567 " moovel_rot="67.0" moovel_centroid="308.688674753,-1144.42191567"/>
  <polygon id="326405377" class="tile" points="349.747265263,-1119.77161142 349.751047482,-1106.09988567 342.050588981,-1106.65005499 342.219559837,-1110.63825224 339.360962258,-1110.58172046 339.68594367,-1114.26506832 337.776495128,-1114.41079333 339.864231744,-1137.38087178 343.350954996,-1137.42322131 342.609394517,-1119.82701788 346.179891835,-1119.75652701 349.747265263,-1119.77161142 " moovel_rot="-57.0" moovel_centroid="343.384857293,-1118.63317463"/>
  <polygon id="375129181" class="tile" points="373.234387774,-1135.0013655 350.751047482,-1131.91800149 355.378517221,-1106.09988567 373.200033885,-1108.87508196 373.234387774,-1135.0013655 " moovel_rot="19.6" moovel_centroid="363.073445313,-1120.96736624"/>
  <polygon id="447593422" class="tile" points="393.611316436,-1150.50195216 393.541123355,-1106.29907465 374.931637087,-1106.09988567 374.234387774,-1149.83148033 393.611316436,-1150.50195216 " moovel_rot="-79.3" moovel_centroid="384.094886462,-1128.33214167"/>
  <polygon id="325008931" class="tile" points="394.637413604,-1156.5572473 411.535336547,-1156.70985527 411.524184524,-1152.31808061 417.107202556,-1152.17254996 416.821326458,-1123.59623245 418.742577084,-1123.53044313 418.333459423,-1108.54742526 394.611316436,-1106.09988567 394.637413604,-1156.5572473 " moovel_rot="-78.5" moovel_centroid="405.785096765,-1131.13005674"/>
  <polygon id="263713952" class="tile" points="419.939211933,-1106.09988567 421.964563875,-1106.12970392 423.231903867,-1106.12976256 423.233846833,-1123.55377491 422.139118288,-1123.55275106 419.742577084,-1123.51888555 419.939211933,-1106.09988567 " moovel_rot="54.2" moovel_centroid="421.536454044,-1114.91590799"/>
  <polygon id="299606243" class="tile" points="424.240996245,-1106.23923349 441.038392766,-1106.15062673 444.007758013,-1106.09988567 444.062458921,-1127.03351783 441.38405544,-1127.20294565 437.720299711,-1127.18001749 426.0547684,-1127.25718249 424.233846833,-1127.23838381 424.302607977,-1109.33267488 424.27257435,-1107.88188912 424.240996245,-1106.23923349 " moovel_rot="56.2" moovel_centroid="434.151062837,-1116.70290534"/>
  <polygon id="354586347" class="tile" points="447.470882252,-1121.91025392 445.139602345,-1124.40037809 445.062458921,-1134.86239964 446.65559097,-1134.86893776 446.601237426,-1141.33035269 445.325061898,-1141.32367866 445.316866938,-1142.29355749 467.897098892,-1142.46940346 469.08092119,-1141.14517681 469.173354026,-1129.74049227 461.627792184,-1122.05138516 461.023087017,-1122.14718784 460.28352384,-1122.1475051 460.283448273,-1122.4285801 459.051541755,-1122.41799887 459.056876672,-1121.21370696 460.289202594,-1121.2176222 460.289584199,-1121.35149372 461.11146464,-1121.16227654 461.676973998,-1120.84985186 462.443034059,-1120.14850223 462.818741789,-1119.07459021 462.510975,-1119.06861191 462.518100872,-1117.41604353 465.867342873,-1113.85895267 459.260253553,-1107.20597605 456.743558687,-1108.1652657 454.252211082,-1106.48266183 445.296107308,-1106.09988567 445.082620931,-1117.32964479 445.918649445,-1117.33539661 445.904662586,-1119.65677087 447.610580372,-1121.08918844 449.837624474,-1121.09545467 449.831870279,-1122.30641258 448.344810377,-1122.2931632 447.470882252,-1121.91025392 " moovel_rot="-86.4" moovel_centroid="455.827107926,-1125.87621825"/>
  <polygon id="157929611" class="tile" points="470.225207998,-1174.03646815 470.173354026,-1114.17775089 493.010052519,-1114.15793083 493.004763586,-1106.10284944 498.52976098,-1106.09988567 498.592985793,-1182.52294854 492.550568757,-1182.52681538 492.544487124,-1174.01755116 470.225207998,-1174.03646815 " moovel_rot="-90.1" moovel_centroid="484.983591022,-1144.23142556"/>
  <polygon id="254594901" class="tile" points="499.592985793,-1106.35340717 499.613347928,-1151.37440742 526.780902334,-1132.98753074 524.934330234,-1106.09988567 513.61175211,-1107.14326179 499.592985793,-1106.35340717 " moovel_rot="56.4" moovel_centroid="511.669958281,-1125.0671009"/>
  <polygon id="241844808" class="tile" points="553.397358253,-1106.13400115 527.780902334,-1106.09988567 527.806768605,-1132.45262664 553.416868796,-1132.48468854 553.397358253,-1106.13400115 " moovel_rot="18.2" moovel_centroid="540.600308357,-1119.29225552"/>
  <polygon id="358906395" class="tile" points="573.138762322,-1131.0443916 575.202495585,-1109.15104769 554.416868796,-1106.09988567 554.451272618,-1132.6131282 573.138762322,-1131.0443916 " moovel_rot="30.8" moovel_centroid="564.004051513,-1119.48170278"/>
  <polygon id="285141593" class="tile" points="9.69635712281,-1316.08277175 6.01657358967,-1316.25656449 5.13975787126,-1315.16394087 3.76611397192,-1316.7705521 0.0970315866172,-1315.92397939 0.0,-1199.08787747 5.8905667942,-1198.67407056 5.58766051121,-1193.52790163 38.180849709,-1192.96491213 37.8205991484,-1198.94039429 34.3459468704,-1203.04138245 57.7491534367,-1220.97060522 52.6390294567,-1226.91644683 70.19588238,-1241.79486848 51.2353701141,-1265.52751122 52.871560647,-1272.51606332 57.0062065825,-1275.11481959 57.8707618017,-1283.99445881 66.5202028077,-1291.54498579 57.4659074116,-1302.25681095 54.2211514056,-1301.67808109 47.6581405286,-1309.54041851 47.4523288753,-1280.9903189 48.8144370407,-1280.21459447 48.9960278403,-1277.87354263 47.8277450435,-1277.04613382 47.1770142417,-1277.17455441 46.9432698704,-1278.08873859 14.2333922356,-1277.8784105 12.4900329407,-1276.40907658 11.2374745332,-1276.01503729 10.8370835457,-1276.67660922 9.6845937185,-1284.37167074 9.69635712281,-1316.08277175 " moovel_rot="-42.3" moovel_centroid="27.99800618711608,-1246.19362206"/>
  <polygon id="317378540" class="tile" points="84.472568066,-1193.01273775 84.4456528384,-1231.62963334 72.19588238,-1231.58179078 72.2227672959,-1192.96491213 84.472568066,-1193.01273775 " moovel_rot="60.8" moovel_centroid="78.3342181015,-1212.29726054"/>
  <polygon id="299906229" class="tile" points="85.472568066,-1193.55127062 93.2162291296,-1193.25133671 100.053063095,-1192.96491213 100.038829456,-1217.59804275 93.386996961,-1218.02339614 85.591785953,-1218.52384498 85.472568066,-1193.55127062 " moovel_rot="54.6" moovel_centroid="92.7720946831,-1205.64414965"/>
  <polygon id="185605923" class="tile" points="156.319554198,-1192.98946867 101.14621913,-1192.96491213 101.053063095,-1365.8073381 106.14237337,-1365.3850001 106.298223024,-1379.7786802 192.505349423,-1380.48203991 191.016398102,-1322.62674908 196.161802417,-1322.93625985 196.73794073,-1249.40248896 156.319554198,-1192.98946867 " moovel_rot="-49.6" moovel_centroid="145.907593022,-1290.26024396"/>
  <polygon id="299944948" class="tile" points="208.377447637,-1244.00267234 197.73794073,-1210.86617129 197.764220731,-1202.30565228 201.725246022,-1200.80248684 219.10251168,-1194.59215354 223.629791899,-1192.96491213 226.911638403,-1207.32691092 226.915810013,-1212.58409066 226.372952076,-1218.19599758 225.268533108,-1222.95665224 223.223501527,-1227.84079907 220.118598367,-1232.98371166 217.020225924,-1237.29538323 212.419742955,-1241.71634897 208.377447637,-1244.00267234 " moovel_rot="-48.6" moovel_centroid="213.024465754,-1216.00515219"/>
  <polygon id="275609077" class="tile" points="235.058838178,-1212.42947156 234.497882614,-1216.35896645 230.197465165,-1215.85928828 227.915810013,-1236.08623164 230.417442709,-1236.46859539 247.6617062,-1239.09173374 248.365001004,-1239.20091807 249.390801357,-1239.35282837 250.493341829,-1239.5249121 248.834704386,-1250.61249192 250.989296711,-1254.10738835 250.211868098,-1258.56185345 254.140914183,-1259.24758177 253.60432351,-1263.34405214 253.365269228,-1265.17364641 254.294081326,-1269.4580692 256.984330248,-1269.83267098 256.964866104,-1274.23635854 260.660606273,-1274.62372351 259.774725845,-1284.70710916 265.209353911,-1285.35049774 262.709264682,-1291.75531364 267.214721915,-1304.5695927 282.413496949,-1303.94062059 285.298297234,-1300.28787905 286.715906557,-1297.07064498 286.664010968,-1292.87146731 301.418666711,-1295.19570215 301.829190926,-1292.12814983 306.563637808,-1291.57129654 304.44179047,-1246.29617288 306.524892543,-1194.91377906 305.393102176,-1193.52972724 285.685138383,-1192.96491213 282.346464022,-1219.29933688 235.058838178,-1212.42947156 " moovel_rot="-80.1" moovel_centroid="276.91010585,-1247.91042592"/>
  <polygon id="292846308" class="tile" points="307.567380808,-1216.25510428 319.622894326,-1216.25011499 319.618779912,-1201.39120355 319.621643508,-1192.96491213 307.734745769,-1193.17765409 307.56827219,-1195.88069011 307.563637808,-1200.65291075 307.573008155,-1211.40201364 307.567380808,-1216.25510428 " moovel_rot="-29.0" moovel_centroid="313.608360195,-1204.67066907"/>
  <polygon id="266170672" class="tile" points="336.038531438,-1217.62395377 320.622894326,-1217.61584015 320.640756141,-1192.96491213 336.054804229,-1192.98396766 336.038531438,-1217.62395377 " moovel_rot="-28.9" moovel_centroid="328.338676001,-1205.29737863"/>
  <polygon id="252080545" class="tile" points="365.800467024,-1223.8354267 365.82286206,-1192.97083315 340.84323562,-1192.96491213 340.821756964,-1199.4312432 344.281525309,-1199.47900487 344.279617927,-1199.00349246 351.742023524,-1199.00306731 351.737695556,-1204.21854304 337.059185382,-1204.21652995 337.054804229,-1212.82660997 341.721744462,-1212.83157121 344.295292858,-1215.62276818 344.29215937,-1223.83790216 365.800467024,-1223.8354267 " moovel_rot="-86.0" moovel_centroid="353.728283068,-1208.42352274"/>
  <polygon id="442637488" class="tile" points="380.403454712,-1259.87525706 398.837622023,-1245.55497248 378.917876371,-1219.96822394 398.81677626,-1204.51637189 389.828042942,-1192.96491213 381.911538848,-1199.11611207 386.674489979,-1205.22790383 366.82286206,-1220.64159877 380.238547077,-1237.88103808 369.673621515,-1246.08829612 380.403454712,-1259.87525706 " moovel_rot="-30.6" moovel_centroid="383.417948548,-1229.62898325"/>
  <polygon id="240187601" class="tile" points="405.063828683,-1264.96015936 399.875753487,-1264.93111614 399.837622023,-1192.96491213 404.989596241,-1193.29234203 405.063828683,-1264.96015936 " moovel_rot="-83.1" moovel_centroid="402.439935455,-1229.07913179"/>
  <polygon id="319650194" class="tile" points="406.063828683,-1193.16987123 406.399621596,-1227.07312768 431.458107424,-1234.35027057 431.526170544,-1192.96491213 406.063828683,-1193.16987123 " moovel_rot="21.0" moovel_centroid="419.283505297,-1211.89510149"/>
  <polygon id="327029576" class="tile" points="447.662051251,-1192.96491213 447.546888048,-1198.18512387 447.62503422,-1216.47121374 442.229500799,-1216.49542151 441.319979779,-1216.58847617 432.627758313,-1216.6211337 432.55060432,-1198.31295741 432.545326844,-1197.37608265 432.533347374,-1195.18268509 432.526170544,-1193.81961294 436.642462921,-1193.58776687 437.918277654,-1193.51990469 440.203552917,-1193.38623506 447.662051251,-1192.96491213 " moovel_rot="-34.6" moovel_centroid="440.120332007,-1204.96501409"/>
  <polygon id="329776611" class="tile" points="468.790648925,-1236.88850228 469.100786434,-1208.82218179 461.707362445,-1208.56087975 461.372211087,-1193.57973407 448.662051251,-1192.96491213 448.663338401,-1240.34359856 468.790648925,-1236.88850228 " moovel_rot="-10.8" moovel_centroid="457.731555332,-1218.0542415"/>
  <polygon id="315400368" class="tile" points="470.100786434,-1217.28788091 488.460754947,-1217.38253267 488.454545114,-1209.67191691 488.44233519,-1203.35311219 488.443009789,-1196.93352452 488.341331711,-1192.96491213 478.748970216,-1193.10484405 470.221370362,-1193.08509778 470.200185832,-1197.16690222 470.171534863,-1203.37229668 470.133184951,-1209.77210218 470.100786434,-1217.28788091 " moovel_rot="66.0" moovel_centroid="479.314063991,-1205.21996102"/>
  <polygon id="219802845" class="tile" points="500.313509551,-1193.86746474 489.460754947,-1192.96491213 489.472731498,-1217.43965515 498.880836569,-1218.32636241 498.996270291,-1210.29647899 500.198542122,-1210.43365975 500.313509551,-1193.86746474 " moovel_rot="9.0" moovel_centroid="494.668885967,-1205.30395998"/>
  <polygon id="376403758" class="tile" points="514.532975079,-1235.65255034 501.335439618,-1235.64792751 501.313509551,-1192.96491213 514.50239393,-1192.97095162 514.532975079,-1235.65255034 " moovel_rot="80.7" moovel_centroid="507.921044398,-1214.31141793"/>
  <polygon id="133016766" class="tile" points="0.0,-1397.89525602 77.6487990987,-1400.27369273 78.0843221549,-1380.48203991 130.999038962,-1381.70745844 129.058242297,-1449.8018873 128.323790267,-1467.8178613 120.775992959,-1477.09333081 120.250619682,-1490.02447084 122.091038797,-1491.92399698 126.218741496,-1494.68473333 130.932735934,-1501.94348724 130.659082534,-1512.86027607 129.491953072,-1521.45931088 126.550370336,-1527.13339932 121.909191649,-1531.40964558 116.765043177,-1532.02217366 98.0562279241,-1533.03909461 67.4935580336,-1532.75339409 53.1854166711,-1531.68392098 39.9761504766,-1527.60182483 30.0361142211,-1518.91095023 23.3677716281,-1507.04978191 0.0,-1397.89525602 " moovel_rot="0.7" moovel_centroid="73.28899417353117,-1457.51621509"/>
  <polygon id="450358503" class="tile" points="133.001902259,-1387.73331534 138.149450881,-1383.10801815 147.073026873,-1380.48203991 163.143684754,-1403.52553502 138.746390535,-1420.62448994 132.999038962,-1413.64964363 134.301911641,-1412.51711773 145.744601058,-1402.91315109 133.001902259,-1387.73331534 " moovel_rot="-27.2" moovel_centroid="146.74578122,-1399.6545336"/>
  <polygon id="324274225" class="tile" points="164.1505201,-1381.26156623 164.143684754,-1392.4420752 170.010623451,-1390.51415452 173.311626931,-1389.42899807 172.18403059,-1380.48203991 164.1505201,-1381.26156623 " moovel_rot="50.5" moovel_centroid="168.314685041,-1386.05575909"/>
  <polygon id="237871136" class="tile" points="188.031414928,-1382.35339752 183.573568968,-1382.33578356 183.436881198,-1380.48203991 181.456019753,-1380.5182157 179.560576477,-1380.62759749 179.552920145,-1382.41258769 179.793804772,-1390.64529556 177.513769669,-1390.62840034 177.554045776,-1395.17202017 174.317344584,-1395.20351995 174.311626931,-1396.24552214 174.348598473,-1400.08837223 174.313565543,-1404.28717247 179.914099115,-1404.78403532 179.923056977,-1399.01588753 184.808472431,-1399.48513584 188.375872832,-1399.74529724 188.031414928,-1382.35339752 " moovel_rot="58.8" moovel_centroid="181.993754805,-1392.85183812"/>
  <polygon id="323014156" class="tile" points="189.375872832,-1380.48203991 189.400634474,-1404.52962085 201.828972573,-1404.53117046 203.509921321,-1404.5333851 208.04001522,-1404.54242313 208.028047016,-1380.526918 189.375872832,-1380.48203991 " moovel_rot="83.0" moovel_centroid="198.708883328,-1392.51706033"/>
  <polygon id="223870848" class="tile" points="215.302631046,-1380.79167811 209.04001522,-1393.11133369 209.51936921,-1552.36118834 275.20359567,-1552.42609779 276.985938486,-1526.83988084 283.568208599,-1488.90295305 290.365183696,-1455.96644273 292.612725144,-1397.91420583 291.441022636,-1384.42470609 272.009982365,-1380.48203991 215.302631046,-1380.79167811 " moovel_rot="-16.2" moovel_centroid="247.841308526,-1463.08403757"/>
  <polygon id="288641700" class="tile" points="305.4683452,-1380.49708391 317.408806422,-1380.48203991 317.365071256,-1428.03663613 317.3632264,-1436.19336151 315.020405825,-1436.22020644 293.679387596,-1436.19857566 293.612725144,-1404.5280618 305.367847254,-1404.57718405 305.406045782,-1393.90561377 305.4683452,-1380.49708391 " moovel_rot="61.1" moovel_centroid="307.14558854,-1412.64887603"/>
  <polygon id="426140948" class="tile" points="329.923405727,-1380.89190034 329.923405727,-1380.89190034 332.231476674,-1380.81390763 334.09305473,-1380.48203991 334.09305473,-1380.48203991 334.09243161,-1382.24742826 334.09243161,-1382.24742826 334.091727815,-1383.95914378 334.086504166,-1385.57365362 332.588549244,-1385.58468224 332.588549244,-1385.58468224 332.588549244,-1385.58468224 332.59978975,-1386.51455906 332.610284097,-1387.67508009 332.635308084,-1389.77129111 332.657043243,-1391.86168878 332.682067537,-1393.95789963 332.707091985,-1396.05411038 332.719122306,-1398.23441355 332.734441778,-1400.42052987 332.783073972,-1402.21944346 332.783073972,-1402.21944346 332.783073972,-1402.21944346 332.783073972,-1402.21944346 330.73180761,-1402.19818754 328.713854163,-1401.78972878 326.69590108,-1401.38126982 324.673590004,-1400.98295055 322.655637649,-1400.57449118 321.109259071,-1400.37502045 319.559591747,-1400.16973635 319.559591747,-1400.16973635 319.45183744,-1398.31985768 319.378527597,-1396.83419471 319.378527597,-1396.83419471 319.23632913,-1394.62010018 319.128575126,-1392.77022134 318.981937709,-1390.51259383 318.835300437,-1388.25496624 318.726719935,-1386.5820586 318.726719935,-1386.5820586 318.726719935,-1386.5820586 318.595377597,-1384.31577755 318.502091967,-1382.63421648 318.408806422,-1380.95265536 320.240276841,-1380.96013261 322.079394985,-1380.96328297 323.914155146,-1380.97657304 325.745626706,-1380.98404964 328.107308796,-1380.92944368 328.107308796,-1380.92944368 329.923405727,-1380.89190034 " moovel_rot="60.5" moovel_centroid="326.154470829,-1390.77919761"/>
  <polygon id="292693069" class="tile" points="338.895537307,-1381.25955584 358.970569946,-1380.48203991 357.128585726,-1398.93823866 361.792101818,-1398.98896231 362.216811332,-1399.04331131 361.746358318,-1403.07065212 366.701565401,-1403.64664666 367.019034218,-1404.57205783 366.365337384,-1416.81658907 366.245099526,-1418.92316513 366.094002886,-1420.8600155 366.056388872,-1423.07337167 365.666865644,-1428.62291625 335.130941442,-1428.03781737 335.382381523,-1425.93478712 335.769439778,-1422.71214634 336.049493774,-1420.23456985 336.189958802,-1419.01053767 336.63340382,-1413.73857668 337.044500113,-1408.8490988 336.132801124,-1403.69606594 335.09305473,-1397.84255807 338.327678081,-1397.13359659 338.469893039,-1391.21545389 338.552329758,-1388.16955897 338.618610447,-1387.05611575 338.745362887,-1384.70039157 338.895537307,-1381.25955584 " moovel_rot="25.2" moovel_centroid="350.216347474,-1406.920266"/>
  <polygon id="231965397" class="tile" points="368.019034218,-1380.48203991 382.079167264,-1380.65574624 381.438344947,-1408.12680683 371.861507549,-1410.03155667 368.027020031,-1386.35348001 368.019034218,-1380.48203991 " moovel_rot="-35.3" moovel_centroid="375.512736537,-1393.90264755"/>
  <polygon id="238072582" class="tile" points="387.18572828,-1380.48203991 392.572757223,-1381.91978066 396.462942961,-1384.06401221 401.750546425,-1389.13133925 406.480009996,-1395.9429307 408.470392966,-1403.25908603 408.521484556,-1408.94540878 414.702271821,-1411.11462434 414.081110958,-1413.49488976 413.687829585,-1416.34288498 407.203159273,-1417.95581758 403.408201452,-1420.51233422 399.805554026,-1437.93480657 383.115585688,-1434.39655507 386.851586521,-1415.30022652 396.533951198,-1416.93492611 395.767192793,-1411.48727914 394.287040871,-1406.92959723 392.303349346,-1403.23732061 386.798450901,-1398.20269419 383.079167264,-1396.36004425 385.228475299,-1388.04040259 387.18572828,-1380.48203991 " moovel_rot="79.7" moovel_centroid="396.524612382,-1409.73133076"/>
  <polygon id="241844813" class="tile" points="439.613225476,-1380.48203991 415.744681888,-1384.66872992 420.875460873,-1430.3495665 415.702271821,-1446.43702064 455.718239706,-1441.42032522 454.685950959,-1429.46081333 444.31872584,-1429.83873879 439.613225476,-1380.48203991 " moovel_rot="9.6" moovel_centroid="432.016174943,-1415.7903287"/>
  <polygon id="275100163" class="tile" points="457.160116144,-1422.56151538 466.038209963,-1422.60919583 466.088520232,-1380.48203991 456.718239706,-1380.80993752 457.160116144,-1422.56151538 " moovel_rot="29.8" moovel_centroid="461.507059968,-1401.42638349"/>
  <polygon id="223631877" class="tile" points="486.582332249,-1414.86440063 486.583156477,-1388.81982733 477.569258929,-1380.48203991 467.088520232,-1392.38344979 475.753421413,-1394.08858739 477.20652473,-1398.01913011 474.536869925,-1401.44443103 474.168684422,-1403.14778459 474.355933411,-1403.93475411 477.852240054,-1404.43139565 477.029783971,-1409.84763221 474.069046669,-1409.39749772 472.988148174,-1410.31984381 472.579600813,-1412.32345085 474.095799617,-1416.0717962 471.839584003,-1419.2338304 486.582332249,-1414.86440063 " moovel_rot="79.1" moovel_centroid="479.595996285,-1399.62454602"/>
  <polygon id="325936164" class="tile" points="487.591893789,-1431.37545944 500.9898621,-1441.02101499 526.142403736,-1405.06261387 516.717643298,-1396.34712139 503.152048101,-1380.48203991 487.583156477,-1392.55153701 502.622269623,-1410.74244223 487.591893789,-1431.37545944 " moovel_rot="-48.7" moovel_centroid="505.191720144,-1409.6147029"/>
  <polygon id="220789412" class="tile" points="527.142403736,-1400.3989858 534.650129974,-1400.43777189 536.982338908,-1400.44502772 536.997347599,-1380.52807063 534.037484116,-1380.51863892 527.157399949,-1380.48203991 527.142403736,-1400.3989858 " moovel_rot="48.1" moovel_centroid="532.069878273,-1390.46554671"/>
  <polygon id="232494204" class="tile" points="537.997347599,-1415.00042825 553.227014073,-1415.08880687 553.175759706,-1380.57513668 538.021167271,-1380.48203991 537.997347599,-1415.00042825 " moovel_rot="65.6" moovel_centroid="545.605138307,-1397.800816"/>
  <polygon id="220792596" class="tile" points="566.936604699,-1425.68494187 559.574751442,-1428.63826135 555.585573051,-1417.96376299 554.227014073,-1410.10228573 554.28949326,-1401.95571752 555.457342706,-1395.08321983 557.210681762,-1388.51718285 559.954653556,-1380.48203991 566.950717027,-1384.04616821 563.752776339,-1391.46656891 561.511988445,-1402.307664 562.079250499,-1412.78551607 563.750021723,-1419.33823491 566.936604699,-1425.68494187 " moovel_rot="-27.9" moovel_centroid="559.761216482,-1404.8306481"/>
  <polygon id="299906170" class="tile" points="578.221863688,-1409.71764743 575.311584589,-1417.35010438 571.994114704,-1411.8392696 571.133896219,-1410.41585096 568.592398921,-1402.2796957 567.950717027,-1393.41927869 568.966517566,-1387.1121542 570.364464495,-1382.08237434 571.276120858,-1380.51764096 578.229249178,-1380.48203991 576.642220813,-1384.20039297 575.394907726,-1388.23275363 574.665968529,-1391.76830513 574.677041695,-1395.53929304 574.875130064,-1399.72817035 576.054571117,-1404.19896578 578.221863688,-1409.71764743 " moovel_rot="53.7" moovel_centroid="572.778008258,-1397.32281365"/>
  <polygon id="180522738" class="tile" points="1.56453116499,-1552.62425442 0.0,-1595.53178834 28.5991677493,-1639.95928515 36.4271403909,-1640.40394491 45.4106450938,-1640.90289543 45.6915557653,-1616.9548352 66.5433788337,-1617.12784571 75.0561802726,-1617.40693682 75.0636025038,-1580.06925999 70.5144961707,-1579.7091233 69.0203049649,-1554.83612199 68.6371825263,-1552.42609779 65.1614910252,-1552.4356774 52.4958295718,-1552.47529808 37.6462625351,-1552.51898562 23.6222523395,-1552.55629079 8.13051797859,-1552.60490307 1.56453116499,-1552.62425442 " moovel_rot="-59.8" moovel_centroid="37.270519362433795,-1589.49293202"/>
</svg>