<svg xmlns="http://www.w3.org/2000/svg" version="1.1" width="592.5px" height="1200px">
  <polygon id="4" class="bin" points="1.875,0.0 -0.77665042945,1.09834957055 -1.875,3.75 -1.875,1203.749999 -0.77665042945,1206.40164943 1.875,1207.499999 298.124999,1207.499999 300.776649429,1206.40164943 301.874999,1203.749999 301.874999,962.974122182 300.648270638,960.200027692 297.770678872,959.240898742 295.124902866,960.724250366 292.866070794,963.736294571 287.515350539,966.445316193 285.339894545,966.467066162 285.335879554,966.467108453 282.296365185,966.500752024 280.139060398,965.939006704 279.094451279,965.81931847 248.36113611,966.636286232 246.775789266,966.493932534 245.843344628,966.299393688 245.666093915,966.266836926 244.854954086,966.137915226 244.183808707,965.996597378 243.256753063,965.752519436 242.513283141,965.51080252 241.283031014,965.031876994 240.350966552,964.585661685 239.258441471,963.957584396 239.100065285,963.8636924 238.548998002,963.526943602 237.852915877,963.040060664 237.368234183,962.654331509 237.147942258,962.471392873 236.696428043,962.080267554 236.319773842,961.728425552 235.966878313,961.37308561 235.610684499,960.985850958 235.341933839,960.670247649 235.096193112,960.364397148 234.728709487,959.879298398 234.402600014,959.409409781 234.054558402,958.860494523 233.769970752,958.367663973 233.320372976,957.508836868 233.036058586,956.893715778 232.698966324,956.05860444 230.681769661,954.008222916 228.647122832,953.148072154 226.948717981,949.206543334 226.291543456,922.788004979 227.831056657,918.726542959 229.213862818,918.085491809 231.255815716,915.665210345 231.31429503,915.449664719 231.602446802,914.676555168 231.618410071,914.632900984 231.815886368,914.082314107 231.897093479,913.885804868 231.809151617,910.82477971 231.400464793,909.97725881 233.043568746,905.726498117 239.085851718,899.593379367 242.844364811,897.880700626 244.807235737,895.767249254 244.688911791,892.885316149 242.559394799,890.939886542 241.87268542,890.69271501 232.526033327,881.878927577 230.725342836,877.779796218 231.412935687,876.096226204 231.257424853,872.927399349 231.047044001,872.528964468 230.265864914,870.831445521 230.123649745,870.450237093 228.059359459,868.302315903 226.413171063,867.612566306 224.696326085,863.69550898 223.687158372,832.761778356 225.377940271,828.312440819 227.008636943,826.537572214 227.950413068,823.801398732 233.36654507,817.771166889 238.580213026,815.318010463 239.089843496,815.29766512 241.039057055,813.136362229 242.076420573,810.159564781 241.908910433,807.288125229 241.187452905,805.801675286 240.949816883,805.252398018 239.868320195,802.420238152 239.421473853,800.225173833 239.404417839,799.762852748 239.400263097,799.676971235 239.351278852,798.858874218 239.340466781,798.5905416 239.320098076,797.608540592 239.338127406,796.948492469 239.396423547,796.176345841 239.461005179,795.621937376 239.6223912,794.599639597 239.677515438,794.295123431 239.848202738,793.459928811 239.933707279,793.093082948 240.158525967,792.235524862 240.494161617,791.260390242 240.755588646,790.653251824 240.823876677,790.483356071 240.937470431,790.179507322 241.326659128,789.322523367 241.611599378,788.794457087 241.582894879,785.180726013 241.290582084,784.659001888 242.829156118,780.23216388 265.538379191,756.199667566 269.835633824,754.410845729 271.006522604,754.967867837 274.134674234,755.010911584 276.20690026,752.667182786 276.614510224,751.319533137 280.648879523,749.285396337 293.178774125,748.508009912 296.81487095,749.86377646 300.263867838,749.430297301 301.874999,746.350079761 301.874999,745.492115054 300.407323722,742.516632931 295.184603436,738.510578405 292.593388897,734.242076951 292.066666262,732.92122889 281.145373012,716.403413948 280.659314523,715.81040739 280.268482138,715.422397119 278.88410843,713.452782408 268.117064243,690.359090342 267.791538107,689.522008717 260.285607603,665.721818091 260.108449183,665.040083264 254.901504027,639.741071743 254.773898745,638.786033528 253.322252801,615.653186937 253.255503435,615.146197241 252.439119448,611.100989859 252.310484488,609.430187324 253.417811709,585.090602375 253.4757901,584.459347506 260.70145143,532.32324164 260.707706282,532.275895073 268.507342496,470.193826902 268.518512305,470.094161296 271.74545601,437.350599157 271.284330467,435.148580995 269.645946446,433.606757869 269.082133779,433.334139505 267.650570114,429.146989987 268.377858396,418.152400359 270.14596883,414.365298962 272.184512432,413.521373292 274.172989757,411.5883764 274.289567099,408.817649278 272.470490481,406.72445093 270.398754118,405.654811088 268.982821813,401.65691267 272.467592596,306.27918935 272.747926456,305.527969803 272.391191811,302.192456503 269.508518601,300.476908851 249.761195324,299.030521684 245.907596549,297.145691745 244.427215733,293.119368355 244.765183147,281.646289876 245.062457101,271.659375332 245.097751407,271.138910404 245.508153186,267.269244112 246.922610156,254.12327317 248.525251575,239.200966557 248.948378872,235.28134774 249.234919104,233.926813338 252.629481201,223.307769939 252.631341149,223.301935133 253.654525296,220.083042607 253.810601409,219.335066906 254.760851977,210.200730486 256.126094768,197.075747779 256.296983528,195.419544321 256.316624473,194.999738488 256.230573326,185.760121167 256.036645488,184.60424332 255.588643446,183.2664425 252.319086753,173.490957505 252.076609123,172.548983582 251.148350903,167.480068033 249.608235878,159.01335724 249.535946527,157.058180485 250.180272234,151.003649884 251.663538292,137.262043946 251.663967316,137.258049238 251.795306076,136.028930632 251.809002558,135.392946689 251.102660873,124.264551141 250.980388234,122.303729265 250.903500134,121.747117059 248.067908629,108.589117003 245.93733899,98.6970866288 245.802064933,97.7579702989 245.433442558,92.7842163093 245.433028266,92.7786819135 244.537891891,80.9385314675 244.559806757,79.6668164619 244.8720527,76.8375977396 244.872575743,76.832830569 246.475495692,62.1366421608 246.491698693,61.9404134183 247.212336285,49.1149961851 248.026356497,34.4163039776 248.442832515,27.0519686758 248.446488473,26.9919762401 248.943890576,19.3781809956 249.912549054,4.43606554355 249.941423365,3.99493065657 248.936307583,1.18640779005 246.199430717,0.0 1.875,0.0 " mydata_rot="0" mydata_centroid="132.04516710326516,618.4263135003526"/>
  <polygon id="412129496" class="tile" points="-10.5588277474,1353.47692242 -13.9824164532,1335.84740315 -3.39378400408,1333.09558606 -1.0,1327.95000697 -1.74487491213,1322.44314869 -27.8758969225,1327.95229011 -27.751898146,1331.63926202 -30.0960066166,1332.4803244 -31.320989687,1328.32315066 -51.1139976878,1332.15546992 -50.3752956774,1336.01770559 -53.0729069535,1336.44921879 -53.9809045777,1333.20957159 -66.0627710339,1335.60036278 -66.3089995805,1333.67767096 -54.0833522305,1331.1715947 -54.9056460392,1326.67565218 -52.8337336984,1326.06954319 -51.9965004403,1330.31436212 -31.4450133085,1326.54202586 -32.5328546174,1322.27529779 -30.4609372027,1321.66918442 -29.3730963968,1325.93591292 -2.8779882323,1320.58013392 -8.59728956707,1292.38553504 -34.4517982312,1297.66481981 -33.8502466068,1301.63661725 -35.7678100854,1301.87126766 -36.907109325,1298.36364152 -58.2536271956,1302.58400169 -58.4954876028,1300.66636267 -36.8811383467,1296.20599337 -37.8361984842,1291.82465167 -36.1543065339,1291.31697105 -35.0814105574,1295.83482779 -9.07481637411,1290.19486138 -14.6739789665,1262.12596647 -38.3022504959,1266.42770445 -37.6409687534,1271.30085706 -40.1948151764,1271.61709903 -41.5183215652,1267.07733519 -52.0555105608,1269.07006286 -52.5695606537,1267.38737167 -41.3960912161,1265.3130546 -42.2631928742,1261.5704738 -40.65824803,1260.42335078 -38.9490770027,1264.85962278 -14.8793087084,1259.7003386 -21.234835862,1231.58728197 -44.4990616996,1236.04241729 -44.0259326983,1240.13388943 -45.4422748316,1240.4123536 -46.9543826517,1236.7412475 -60.5489410639,1239.01721339 -60.7138453797,1237.739009 -47.0485164601,1234.45786609 -47.8021424334,1230.84674065 -46.3515519936,1230.07108098 -44.9765871633,1233.85174247 -21.1939124558,1229.17849903 -26.6558756057,1201.0 -51.0792356387,1205.74981176 -50.1391302682,1210.38229027 -52.3288987782,1210.85190177 -53.5152548861,1206.20257625 -77.2979036387,1210.87579728 -61.7744050734,1289.76764495 -64.7890363917,1291.18748713 -67.0029554356,1297.36012872 -66.4229760449,1301.58877501 -70.3095516156,1302.81716972 -69.0783760231,1308.61894914 -71.6515133325,1309.1812475 -73.8869984545,1315.61073263 -73.06470249,1320.10667329 -75.2760267828,1320.83311945 -74.4172112003,1324.8210808 -75.8211754285,1330.29458814 -75.1598691482,1335.16771958 -76.4455292862,1337.2215612 -75.8655398373,1341.45019882 -77.4753074229,1348.05426369 -73.8242812764,1366.20214885 -46.1918577816,1360.80875514 -47.0075168323,1356.30708566 -40.8542501185,1355.24854297 -39.545668922,1360.0394181 -10.5588277474,1353.47692242 " mydata_rot="-49.2" mydata_centroid="-42.53034856976799,1287.4436402165368"/>
  <polygon id="373545746" class="tile" points="-78.4753074229,1236.02302112 -92.3522618458,1234.9930038 -88.5727578238,1201.0 -78.4805511203,1202.19809979 -78.4753074229,1236.02302112 " mydata_rot="7.6" mydata_centroid="-84.5347388658,1219.4377029615553"/>
  <polygon id="236798985" class="tile" points="-93.3522618458,1230.27361186 -102.304099547,1230.30802244 -102.303645649,1201.04106807 -93.3574739143,1201.0 -93.3522618458,1230.27361186 " mydata_rot="40.4" mydata_centroid="-97.8291998848,1215.6572190717934"/>
  <polygon id="288606240" class="tile" points="-103.304099547,1313.76411332 -103.754335936,1201.0 -109.706853738,1201.79111317 -109.72491545,1314.63512811 -103.304099547,1313.76411332 " mydata_rot="-77.9" mydata_centroid="-106.621265668,1258.509204666698"/>
  <polygon id="358933096" class="tile" points="-124.108203307,1206.91381252 -138.34516796,1201.0 -140.517229707,1229.62392749 -157.013073928,1230.42410769 -156.968354801,1263.41337487 -110.809663686,1258.02113347 -110.72491545,1236.5209081 -117.249709262,1236.3293571 -117.160680305,1231.92735237 -114.384224211,1232.04940012 -114.538125303,1225.37962285 -123.904741148,1225.29866698 -124.108203307,1206.91381252 " mydata_rot="8.8" mydata_centroid="-134.026858357,1238.9712246964395"/>
  <polygon id="320736273" class="tile" points="-176.323782486,1350.49092541 -158.168690843,1350.54631298 -158.013073928,1201.05683443 -176.368961306,1201.0 -176.436606267,1263.78680202 -166.59374692,1263.81925267 -166.612727712,1280.37487151 -176.250774554,1280.35426037 -176.323782486,1350.49092541 " mydata_rot="-15.7" mydata_centroid="-166.948963953,1275.7891664177448"/>
  <polygon id="299674962" class="tile" points="-179.024108708,1251.49590933 -183.506875328,1248.13246109 -187.134943795,1244.78114801 -186.605509938,1233.77360811 -186.462671764,1222.49060446 -186.378468743,1210.65825403 -187.12191345,1201.0 -177.436606267,1209.1487364 -177.570546323,1229.26056866 -179.024108708,1251.49590933 " mydata_rot="-7.9" mydata_centroid="-182.276461103,1226.4495860244056"/>
  <polygon id="252080574" class="tile" points="-204.706149367,1248.98217118 -188.134943795,1248.99610296 -188.139726597,1201.00494395 -204.815770768,1201.0 -204.813727842,1221.24490637 -200.686501765,1221.24637276 -200.689096116,1223.37165836 -199.765013275,1223.37288055 -199.76382226,1226.97935257 -200.634921024,1226.98029171 -200.635129212,1228.4148948 -202.412268646,1228.41976867 -202.406127342,1230.54430537 -204.711965106,1230.54087532 -204.709840863,1235.59525991 -204.706149367,1248.98217118 " mydata_rot="-85.1" mydata_centroid="-196.145320767,1224.9339165425854"/>
  <polygon id="185021235" class="tile" points="-225.55819285,1201.0 -205.859525812,1203.07559035 -210.050680784,1234.91578958 -205.815770768,1242.03670283 -229.65327502,1239.05117524 -225.55819285,1201.0 " mydata_rot="-84.5" mydata_centroid="-217.760951194,1221.3905408768705"/>
  <polygon id="314181436" class="tile" points="-247.390255655,1201.0 -234.368854505,1201.32270649 -234.368569599,1203.61724036 -230.707572529,1203.61165085 -230.65327502,1241.52124241 -247.435991199,1241.87179883 -247.390255655,1201.0 " mydata_rot="-27.0" mydata_centroid="-239.153985703,1221.7055507564178"/>
  <polygon id="220970963" class="tile" points="-251.718812169,1201.0 -248.435991199,1221.58499207 -248.855681026,1221.65968783 -266.355773473,1224.34554243 -266.774899116,1224.93220683 -265.554948613,1237.01173984 -264.093278737,1248.04199972 -272.388856589,1249.26602703 -274.370007508,1237.17242921 -275.208909789,1230.28524903 -271.436772626,1229.57560235 -275.186641478,1204.80469838 -251.718812169,1201.0 " mydata_rot="70.0" mydata_centroid="-263.98546857,1219.9429420819781"/>
  <polygon id="220792591" class="tile" points="-283.0204368,1205.40745541 -283.297827949,1218.62233587 -283.191907954,1229.22231833 -282.018993637,1236.98509573 -276.208909789,1232.27449248 -277.318291074,1221.43398626 -276.99494846,1210.55509484 -276.219920425,1201.0 -283.0204368,1205.40745541 " mydata_rot="44.9" mydata_centroid="-279.961199001,1219.039523031569"/>
  <polygon id="193769124" class="tile" points="-285.16856307,1215.77010469 -323.754720639,1216.309307 -328.723468476,1206.88537201 -338.509443729,1201.66472521 -371.135358968,1201.0 -371.43132423,1248.34507612 -365.664236107,1255.05863424 -330.842268077,1256.01455536 -330.443975932,1309.47984295 -328.103490136,1314.12014425 -327.991776724,1335.31249018 -323.463835761,1335.70410912 -323.998557514,1361.14120367 -332.458374357,1360.83078477 -333.229123257,1376.18304192 -303.721672621,1388.94529367 -294.73902909,1392.90636993 -291.386218822,1385.12771797 -284.905363642,1326.47766844 -284.330972981,1300.51055917 -284.297827949,1235.9477734 -285.16856307,1215.77010469 " mydata_rot="74.3" mydata_centroid="-317.259712047,1281.8910187854874"/>
  <polygon id="222912947" class="tile" points="-372.43132423,1201.12305387 -379.065351609,1201.0 -378.923965773,1338.89294228 -379.035689727,1350.03489047 -376.648452186,1350.08859134 -376.734130361,1339.04850722 -373.182747372,1339.05341593 -372.43132423,1201.12305387 " mydata_rot="-87.6" mydata_centroid="-375.953119264,1270.5825268898298"/>
  <polygon id="295411029" class="tile" points="-380.065351609,1201.15569241 -387.950095093,1201.0 -387.946597809,1233.08712109 -384.049655879,1233.09468848 -380.497753944,1233.06883118 -380.065351609,1201.15569241 " mydata_rot="75.6" mydata_centroid="-384.11733866,1216.9300708223689"/>
  <polygon id="157893651" class="tile" points="-388.967281541,1267.668979 -388.950095093,1201.11054124 -430.001965838,1201.0 -430.010807272,1267.55530107 -388.967281541,1267.668979 " mydata_rot="-69.4" mydata_centroid="-409.482374837,1234.3325782682148"/>
  <polygon id="258619246" class="tile" points="-431.010807272,1225.30959342 -443.389847499,1225.35891295 -443.385807428,1201.0 -431.11296714,1201.0324979 -431.010807272,1225.30959342 " mydata_rot="-28.9" mydata_centroid="-437.228274854,1213.1927408056"/>
  <polygon id="220953312" class="tile" points="-444.389847499,1201.0 -448.932406717,1201.02159175 -448.935043025,1205.88849412 -444.39248516,1205.86690104 -444.389847499,1201.0 " mydata_rot="45.5" mydata_centroid="-446.662445704,1203.444246605432"/>
  <polygon id="350880635" class="tile" points="-449.935043025,1201.06214004 -464.03602508,1201.0 -464.112794897,1316.61003139 -474.87837828,1316.5128273 -475.183182791,1322.64220111 -480.722983057,1323.34479002 -480.626701526,1371.92007139 -449.979459603,1372.05368811 -449.947326296,1316.74043356 -450.006531029,1316.73593055 -449.935043025,1201.06214004 " mydata_rot="-51.9" mydata_centroid="-461.075951212,1302.2725498367795"/>
  <polygon id="201146432" class="tile" points="-498.441536568,1225.29312035 -498.438098764,1221.41538434 -498.393002988,1205.00055558 -481.962979506,1201.0 -481.722983057,1225.20250112 -498.441536568,1225.29312035 " mydata_rot="-79.1" mydata_centroid="-489.886544408,1214.1247043191452"/>
  <polygon id="383830158" class="tile" points="-500.731092718,1259.99890569 -511.140605408,1258.55298048 -511.173499762,1201.0 -499.441536568,1201.50495697 -500.731092718,1259.99890569 " mydata_rot="-66.2" mydata_centroid="-505.598685134,1229.6930901957478"/>
  <polygon id="313670397" class="tile" points="-517.289060527,1201.0 -551.996634267,1203.13157722 -552.007043428,1247.24383901 -512.173499762,1246.52161575 -513.341061579,1215.80518017 -517.289060527,1201.0 " mydata_rot="23.0" mydata_centroid="-532.655703605,1224.858076398704"/>
  <polygon id="59382170" class="tile" points="-45.2852149073,1463.74874765 -43.3082593426,1392.90636993 -0.03148304075,1394.069743 0.0,1464.58405224 -45.2852149073,1463.74874765 " mydata_rot="-43.1" mydata_centroid="-22.179395323449224,1429.09324959"/>
  <polygon id="242107186" class="tile" points="-70.7034910481,1393.11493235 -70.7225725228,1428.3909048 -50.645408928,1428.47892164 -50.76600665,1422.20403683 -47.2852149073,1422.11184891 -48.0067747992,1393.00493672 -52.4827100735,1392.90636993 -59.8626248032,1392.99264603 -63.1904771483,1393.03296459 -70.7034910481,1393.11493235 " mydata_rot="-83.2" mydata_centroid="-59.4057025427,1410.43421958"/>
  <polygon id="241819965" class="tile" points="-207.875173256,1551.80115807 -196.485238775,1448.48642772 -107.057053952,1461.77642627 -98.0542514445,1392.90636993 -76.5175418951,1396.24042872 -71.8247668734,1465.57478347 -71.7225725228,1564.61952542 -113.082399343,1559.0885622 -150.324364347,1558.01376048 -207.875173256,1551.80115807 " mydata_rot="81.2" mydata_centroid="-131.443409788,1498.46141188"/>
  <polygon id="181275814" class="tile" points="-215.188622866,1467.56275502 -216.264613971,1476.81702455 -239.971568866,1475.39792757 -265.711626251,1435.24852886 -267.076550153,1423.3408044 -267.075135888,1392.90636993 -208.875173256,1399.11767234 -209.394141966,1408.64876358 -222.874264555,1408.00070262 -223.808401403,1421.00306819 -209.300746666,1421.63511321 -209.823556443,1429.02385751 -213.175702889,1428.52747532 -215.188622866,1467.56275502 " mydata_rot="-17.5" mydata_centroid="-238.242779079,1431.61701061"/>
  <polygon id="219917091" class="tile" points="-287.146053428,1440.2853737 -268.076550153,1440.46825349 -268.087433297,1393.24958973 -285.834423372,1392.90636993 -286.58304239,1398.58871439 -287.574738859,1435.28360553 -287.146053428,1440.2853737 " mydata_rot="-82.8" mydata_centroid="-277.553482852,1416.99865151"/>
  <polygon id="221148222" class="tile" points="-288.574738859,1433.79873535 -291.246835317,1419.97236597 -297.334434297,1408.37201385 -305.260613354,1399.23192504 -317.11018682,1393.1812701 -331.170046537,1392.90636993 -338.266859031,1395.73912263 -345.251735445,1399.51857475 -349.993329398,1405.70376049 -353.855048639,1412.69532031 -357.58580715,1423.66347143 -359.827689202,1430.4552443 -359.812212485,1444.78835125 -358.646178241,1453.79497944 -353.642331291,1452.35327043 -351.562292609,1466.38095471 -344.179833436,1474.97420775 -333.374542317,1481.33668373 -322.988609217,1483.45590799 -308.220197646,1479.28867097 -298.986539187,1471.30922794 -292.125415434,1461.06373663 -289.461223723,1450.46966223 -288.574738859,1433.79873535 " mydata_rot="-57.0" mydata_centroid="-323.936361735,1437.70169055"/>
  <polygon id="412123949" class="tile" points="-360.827689202,1392.90636993 -388.881693628,1392.97041658 -388.905524841,1422.31678808 -360.85155005,1422.25268884 -360.827689202,1392.90636993 " mydata_rot="29.4" mydata_centroid="-374.866618623,1407.61156328"/>
  <polygon id="322428253" class="tile" points="-389.905524841,1392.90636993 -389.907634089,1404.53582717 -389.941817814,1489.97869117 -413.759789417,1490.04868128 -413.723643982,1392.97627826 -389.905524841,1392.90636993 " mydata_rot="61.0" mydata_centroid="-401.83213577,1441.47687527"/>
  <polygon id="274454577" class="tile" points="-471.094290024,1479.37845674 -454.276913677,1481.10534075 -454.270747377,1480.41682832 -453.89062824,1479.73409128 -453.054928594,1479.38757461 -441.922626236,1479.41755334 -440.795377671,1479.50766233 -439.272040772,1479.85896348 -437.999486064,1480.40020449 -437.456419553,1480.90683377 -437.124424564,1481.37871052 -436.804146322,1482.17065989 -436.749723662,1482.76422022 -435.756598845,1481.09760015 -434.01982051,1478.17852757 -432.495678598,1475.62750095 -433.03114878,1475.97348463 -433.646935999,1476.21325225 -434.289566778,1476.28621111 -435.031038883,1476.07890971 -435.642385069,1475.73730639 -436.061184002,1475.25641132 -436.188594359,1474.91648477 -436.153858789,1474.28763752 -436.029389971,1473.58778985 -419.701429512,1446.51973832 -419.257950787,1445.36636527 -418.185667892,1442.7575793 -417.75114772,1440.42880298 -417.269065685,1438.10091689 -416.96555535,1436.47063679 -416.889861585,1434.62296835 -417.15490732,1431.52222821 -417.353590349,1430.20899142 -417.643210391,1428.93963096 -418.493120364,1426.09402113 -418.533885832,1425.46744953 -418.291688627,1424.79197582 -414.759789417,1423.48088148 -415.869642179,1420.375394 -417.548040215,1416.91924635 -419.453828902,1414.03413745 -421.567759547,1411.03425602 -423.579600768,1408.82593954 -425.209372565,1407.34175187 -427.703104887,1405.61593737 -436.443252642,1399.76568835 -442.894411623,1395.21363962 -445.758954616,1393.79624504 -447.463174607,1393.16560646 -448.798406267,1393.25638924 -451.699828066,1392.90636993 -455.602027191,1393.27181854 -458.333229758,1394.37248249 -462.139401596,1396.41512642 -464.565134092,1398.41218253 -467.522929521,1401.56218992 -469.358130665,1404.9894651 -470.30153667,1408.4580852 -470.712666663,1411.16796697 -471.087643074,1413.67033287 -471.094290024,1479.37845674 " mydata_rot="-11.7" mydata_centroid="-447.065136787,1437.02069594"/>
  <polygon id="220769451" class="tile" points="-472.106525172,1440.24260794 -472.094290024,1393.03173941 -502.563281271,1392.90636993 -502.568795344,1423.49639067 -483.393412778,1423.57241431 -483.400438168,1440.20420304 -472.106525172,1440.24260794 " mydata_rot="-39.2" mydata_centroid="-485.725683419,1412.22832377"/>
  <polygon id="292156929" class="tile" points="-533.739834029,1392.96951173 -528.477003573,1392.98793255 -503.568795344,1393.07473482 -503.607210662,1461.15167816 -511.793547447,1461.05262082 -511.798063081,1466.13834932 -511.789934851,1471.09341711 -526.397091728,1471.1933807 -526.38300025,1472.96875429 -527.828189737,1472.97977645 -527.675519668,1495.48401658 -533.736163299,1495.21865223 -533.908867766,1471.11170178 -551.862300638,1471.23906868 -551.871342602,1463.92682605 -551.97937906,1392.90636993 -533.739834029,1392.96951173 " mydata_rot="60.8" mydata_centroid="-528.311235595,1433.3045523"/>
  <polygon id="288767465" class="tile" points="-553.249487873,1392.90636993 -553.005165188,1409.30593788 -552.97937906,1428.10823122 -575.593115852,1428.15336337 -575.5905707,1393.00230945 -553.249487873,1392.90636993 " mydata_rot="61.2" mydata_centroid="-564.32059935,1410.57685249"/>
  <polygon id="251716641" class="tile" points="-577.824896509,1434.690003 -591.963079734,1450.24872078 -592.012961794,1392.90636993 -580.976762226,1403.29822346 -576.593115852,1398.6419818 -577.824896509,1434.690003 " mydata_rot="-38.6" mydata_centroid="-585.318437326,1420.46762343"/>
  <polygon id="389581944" class="tile" points="-20.5950787794,1691.75863645 -40.9841311533,1687.71656983 -47.9129447054,1686.34261179 -62.0658842644,1683.5377539 -62.1736875666,1564.61952542 0.0,1577.91252336 -20.5950787794,1691.75863645 " mydata_rot="-80.1" mydata_centroid="-35.89474723483209,1625.56406556"/>
  <polygon id="309154409" class="tile" points="-64.2871024894,1564.61952542 -128.074985126,1566.48887185 -152.41677314,1647.41242867 -101.05578284,1664.91632217 -114.414762336,1715.10816034 -64.1736875666,1714.81150623 -64.2871024894,1564.61952542 " mydata_rot="3.6" mydata_centroid="-98.0793568837,1632.99629959"/>
  <polygon id="299944957" class="tile" points="-153.466686071,1596.92494138 -153.41677314,1564.61952542 -162.14833235,1565.12704571 -161.27044393,1597.37717749 -153.466686071,1596.92494138 " mydata_rot="30.4" mydata_centroid="-157.579399902,1580.71031224"/>
  <polygon id="220530398" class="tile" points="-164.066485955,1564.61952542 -163.14833235,1578.32486199 -172.2134705,1581.74185576 -172.207840064,1566.59493665 -164.066485955,1564.61952542 " mydata_rot="-10.9" mydata_centroid="-167.961482996,1572.97218898"/>
  <polygon id="285310128" class="tile" points="-194.127536298,1646.70545684 -193.307096395,1621.9025331 -173.216119828,1623.08810538 -173.2134705,1577.61832018 -173.217198882,1564.61952542 -215.601079581,1566.51379875 -216.73695377,1568.55249505 -214.640083695,1610.4599281 -214.405593319,1615.47256575 -205.724111252,1615.58293949 -205.00896095,1646.63254841 -194.127536298,1646.70545684 " mydata_rot="-67.1" mydata_centroid="-194.397396436,1597.48916075"/>
  <polygon id="377285995" class="tile" points="-217.737282601,1612.11689322 -240.923235883,1612.09063016 -240.919059153,1564.61952542 -218.469891596,1564.64656195 -218.472780147,1581.82305469 -224.1026998,1581.8172107 -224.104659615,1595.15190683 -217.73695377,1595.16358121 -217.737282601,1612.11689322 " mydata_rot="-81.6" mydata_centroid="-230.182205515,1588.54937076"/>
  <polygon id="218731115" class="tile" points="-241.935924393,1615.4396458 -275.270315501,1615.38763689 -275.24800791,1564.61952542 -241.923235883,1564.66623396 -241.935924393,1615.4396458 " mydata_rot="-81.4" mydata_centroid="-258.59408216,1590.02948224"/>
  <polygon id="266034075" class="tile" points="-276.270315501,1605.89544016 -276.294112892,1570.55107884 -276.300630703,1564.61952542 -300.510622432,1564.63665999 -300.483471214,1605.91845741 -293.357993921,1605.91522051 -286.22929458,1605.906133 -279.181488139,1605.89816592 -276.270315501,1605.89544016 " mydata_rot="61.1" mydata_centroid="-288.391115192,1585.26844761"/>
  <polygon id="231971612" class="tile" points="-301.534994396,1564.61952542 -312.260867876,1564.66797747 -312.231756691,1596.64191513 -308.712271911,1596.6263501 -308.716991854,1591.13994698 -301.510622432,1591.10704254 -301.534994396,1564.61952542 " mydata_rot="47.9" mydata_centroid="-307.114200966,1578.90612998"/>
  <polygon id="241844809" class="tile" points="-344.323424915,1564.67362725 -344.361174487,1614.86717502 -313.295892986,1614.8213112 -313.260867876,1564.61952542 -344.323424915,1564.67362725 " mydata_rot="18.3" mydata_centroid="-328.809915277,1589.74577673"/>
  <polygon id="371391137" class="tile" points="-355.686617652,1633.90176853 -345.361174487,1579.88200311 -350.556310514,1579.02453376 -354.920568317,1574.1928684 -354.627886569,1564.61952542 -391.266589635,1565.00684726 -391.279794172,1620.45972811 -385.798532832,1634.77398249 -355.686617652,1633.90176853 " mydata_rot="7.6" mydata_centroid="-370.906007825,1598.74364675"/>
  <polygon id="108144470" class="tile" points="-400.499079591,1586.40398395 -394.235429178,1586.40469901 -394.237443026,1577.96253498 -392.279794172,1577.96061539 -392.287695612,1564.62373003 -400.518608635,1564.61952542 -400.499079591,1586.40398395 " mydata_rot="-82.1" mydata_centroid="-396.714258832,1574.83308722"/>
  <polygon id="442637487" class="tile" points="-414.962639324,1588.37598521 -401.528557171,1588.3980728 -401.518608635,1564.63593734 -414.943233652,1564.61952542 -414.962639324,1588.37598521 " mydata_rot="-83.7" mydata_centroid="-408.23799386,1576.50877539"/>
  <polygon id="375468794" class="tile" points="-522.899104901,1565.06181211 -445.695918704,1564.61952542 -444.818518337,1579.61133964 -446.886430227,1579.38277783 -445.693812798,1687.06449295 -435.193913322,1687.6642899 -415.962639324,1687.24229317 -415.975819943,1698.39082002 -494.536859162,1699.21039891 -494.825661552,1694.99237733 -497.077170879,1694.83953504 -497.012198226,1682.89549491 -503.503104594,1683.15515127 -503.451941758,1687.34267797 -505.510184347,1695.09620122 -505.51124994,1699.32444406 -526.51080338,1699.56097576 -526.506193551,1687.71118849 -517.164629255,1687.7373271 -516.890758688,1664.12135476 -518.627008247,1575.95759178 -523.117958381,1575.91894647 -522.899104901,1565.06181211 " mydata_rot="-89.3" mydata_centroid="-480.593632004,1633.35461588"/>
  <polygon id="284469844" class="tile" points="-527.578538675,1565.83541394 -527.51080338,1680.06753833 -552.798278099,1679.78134189 -554.002436815,1678.97107875 -554.55776748,1677.32566464 -551.827375352,1564.61952542 -529.449814005,1564.9865658 -527.578538675,1565.83541394 " mydata_rot="65.6" mydata_centroid="-540.394959898,1623.42083686"/>
  <polygon id="257713567" class="tile" points="-555.55776748,1613.11523928 -583.824065571,1613.24051919 -583.863665616,1564.74473579 -555.59727723,1564.61952542 -555.55776748,1613.11523928 " mydata_rot="52.4" mydata_centroid="-569.710697382,1588.92999203"/>
  <polygon id="328909458" class="tile" points="-73.0002726143,1721.32321163 -73.0621875158,1804.90723442 -0.0762368403375,1804.71099749 0.0,1715.10816034 -51.8395309651,1715.25251308 -51.8498543294,1721.26595438 -73.0002726143,1721.32321163 " mydata_rot="57.6" mydata_centroid="-36.019640830172506,1760.83590105"/>
  <polygon id="222912930" class="tile" points="-75.0621875158,1772.66159233 -82.6001187641,1772.8344929 -82.5150628787,1715.10816034 -75.6300804658,1715.31337634 -75.0621875158,1772.66159233 " mydata_rot="-83.4" mydata_centroid="-78.9540009943,1744.41458992"/>
  <polygon id="185021243" class="tile" points="-104.881882155,1718.18683219 -104.855831152,1758.92535734 -99.0854796465,1759.4138139 -89.4537897913,1754.91320404 -83.6001187641,1732.6688318 -89.3834576961,1720.13966884 -97.3788891289,1715.10816034 -104.881882155,1718.18683219 " mydata_rot="80" mydata_centroid="-95.9874730744,1737.29141976"/>
  <polygon id="309136120" class="tile" points="-106.220177157,1715.72135566 -121.323835184,1715.10816034 -121.334044503,1731.06349477 -121.332769295,1740.64835503 -121.335771647,1749.52154933 -121.343987788,1767.82959638 -121.343768886,1777.31747429 -121.348378368,1786.15315044 -121.355247172,1795.98226046 -121.360713643,1808.4394523 -113.869223027,1808.16830193 -105.881882155,1807.85414847 -106.220177157,1715.72135566 " mydata_rot="-42.9" mydata_centroid="-113.712414447,1761.9723621"/>
  <polygon id="265261979" class="tile" points="-134.211556115,1740.86832197 -122.360713643,1740.87057154 -122.364463819,1739.14144873 -122.361876844,1724.5332769 -123.607854837,1724.53544742 -123.606141716,1720.88148067 -123.605696679,1715.10816034 -134.214829185,1715.11143998 -134.211708952,1721.05742798 -134.214076719,1733.07514878 -134.211556115,1740.86832197 " mydata_rot="-29.0" mydata_centroid="-128.49952969,1728.31539778"/>
  <polygon id="185193605" class="tile" points="-135.214829185,1735.24914243 -148.987333747,1715.10816034 -150.522367449,1715.53187233 -150.52610775,1745.32723895 -135.214829185,1735.24914243 " mydata_rot="38.1" mydata_centroid="-145.382857239,1731.28502876"/>
  <polygon id="243997129" class="tile" points="-209.534363121,1801.89310331 -151.52610775,1787.43129027 -171.09102839,1715.10816034 -195.548953127,1721.25611037 -204.61908916,1728.7442433 -209.487597639,1740.33927621 -209.534363121,1801.89310331 " mydata_rot="87.6" mydata_centroid="-184.653901717,1760.47401117"/>
  <polygon id="252081019" class="tile" points="-226.0096059,1739.69877824 -210.534363121,1739.70913982 -210.550695392,1715.10912971 -211.915302059,1715.11047107 -216.373424338,1715.10816034 -216.372501135,1718.61301058 -213.917944699,1718.61085552 -213.91764019,1725.72884002 -226.024716903,1725.72160384 -226.0096059,1739.69877824 " mydata_rot="-81.5" mydata_centroid="-217.344707731,1730.50408311"/>
  <polygon id="220789412" class="tile" points="-227.024716903,1735.02510623 -234.532443141,1735.06389232 -236.864652075,1735.07114815 -236.879660765,1715.15419107 -233.919797282,1715.14475935 -227.039713116,1715.10816034 -227.024716903,1735.02510623 " mydata_rot="48.1" mydata_centroid="-231.95219144,1725.09166715"/>
  <polygon id="226673018" class="tile" points="-366.510497201,2064.17327508 -414.744476707,2011.94070588 -331.627406891,1926.14489157 -380.92352686,1877.32182055 -381.134921781,1873.06028445 -414.723290475,1840.52062441 -405.547169148,1830.36151576 -410.717614896,1823.49202038 -350.376676208,1761.64149122 -387.820799198,1725.25345542 -377.122372544,1715.10816034 -341.079532761,1750.73629285 -286.38783961,1718.57943898 -270.576426372,1760.62974447 -337.715741863,1800.77589799 -344.848055226,1789.02975069 -351.296997572,1782.67881757 -369.271390557,1801.27514832 -358.919908507,1811.3748339 -379.022315548,1834.0588093 -355.297498665,1854.35986661 -325.506484647,1906.22370148 -280.654658125,1880.44713193 -267.639760245,1900.1550031 -260.712208449,1896.23748968 -255.456675931,1905.18673742 -251.064101605,1906.84446546 -246.910322021,1905.19098198 -242.835827744,1900.10301007 -237.879660765,1903.63537738 -245.590229745,1912.95160823 -241.88414246,1916.98204289 -258.767400199,1936.53725747 -274.558570986,1910.37427789 -324.431325124,1940.31556944 -388.146121731,2006.24641621 -373.51428085,2021.17291442 -369.988530452,2018.09478332 -347.946353252,2041.61875637 -366.510497201,2064.17327508 " mydata_rot="-54.2" mydata_centroid="-342.365422704,1866.34263657"/>
  <polygon id="244091365" class="tile" points="-415.791056101,1715.11258787 -415.744476707,1770.89345995 -432.139482873,1770.8890292 -432.186084367,1715.10816034 -415.791056101,1715.11258787 " mydata_rot="-81.7" mydata_centroid="-423.965274938,1743.00080307"/>
  <polygon id="299674961" class="tile" points="-434.262128113,1761.29568543 -443.233932825,1754.31896569 -442.943806337,1744.52738767 -442.695738015,1736.25891912 -443.227836974,1715.10816034 -438.460006687,1717.66644256 -433.186084367,1720.8820728 -434.262128113,1761.29568543 " mydata_rot="-14.5" mydata_centroid="-438.30433699,1737.57973209"/>
  <polygon id="241796739" class="tile" points="-494.048369092,1715.10816034 -444.233932825,1715.12435968 -444.245980175,1743.5199488 -464.413595574,1743.51243052 -464.421909307,1768.29484193 -494.068730061,1768.28616745 -494.048369092,1715.10816034 " mydata_rot="1.0" mydata_centroid="-472.597574379,1738.4021742"/>
  <polygon id="201146424" class="tile" points="-517.259700309,1795.99047153 -518.483366808,1795.99605932 -516.931056174,1784.13446571 -519.465839624,1721.4227798 -518.461383274,1715.14379516 -516.835825842,1715.14049272 -496.225159301,1715.10960906 -495.068730061,1715.10816034 -495.073453898,1727.16040352 -512.026230803,1727.17708836 -512.040624544,1779.57475282 -507.531388844,1779.56478995 -507.539142854,1795.9770041 -517.259700309,1795.99047153 " mydata_rot="11.0" mydata_centroid="-511.584962654,1748.02160363"/>
  <polygon id="219722822" class="tile" points="-524.618051519,1715.10816034 -540.469346544,1717.08688458 -540.497737001,1743.21777586 -520.465839624,1739.57895713 -524.618051519,1715.10816034 " mydata_rot="-72.6" mydata_centroid="-531.530608798,1729.25792272"/>
  <polygon id="383830159" class="tile" points="-569.34794065,1715.67812286 -548.739899701,1715.10816034 -541.497737001,1724.94367113 -542.222823599,1780.38498516 -569.305729709,1780.56634925 -569.34794065,1715.67812286 " mydata_rot="24.5" mydata_centroid="-555.785030696,1748.32517608"/>
  <polygon id="329736425" class="tile" points="-1.3797144793,2163.74836436 -17.2717365101,2160.18695204 -16.9810728125,2151.8234581 -22.2969490763,2151.0277745 -26.0567977913,2148.42837305 -28.2211629666,2146.5459228 -31.929447588,2146.00443719 -31.1648186121,2131.13899974 -9.91555608362,2131.60515705 -9.85119003765,2128.78566578 -7.777710196,2128.83206912 -5.24800346643,2128.73414277 -4.85907665156,2103.90387605 -9.30157465562,2103.90946178 -32.3853867967,2103.40247435 -32.3315124717,2064.17327508 -19.4647432353,2064.60417929 -0.3351118505,2065.60754281 0.0,2099.51319412 -0.562050160021,2132.8774122 -1.3797144793,2163.74836436 " mydata_rot="-55.4" mydata_centroid="-14.633558875570474,2107.68434365"/>
  <polygon id="448157976" class="tile" points="-49.4094716333,2064.17327508 -34.3881043326,2064.23100527 -34.3853867967,2104.07681341 -49.5154095162,2104.04810178 -49.4094716333,2064.17327508 " mydata_rot="59.5" mydata_centroid="-41.9255484711,2084.15622838"/>
  <polygon id="415563733" class="tile" points="-94.726002213,2163.71770217 -102.760173761,2160.24078049 -97.9843967177,2153.71583064 -94.1317677269,2147.86751353 -91.6447443265,2142.83579388 -89.7421989586,2136.5090364 -87.843520366,2131.47355939 -86.7011177927,2122.58492788 -85.7455946323,2113.70346207 -86.6765894562,2104.78027265 -87.7907575518,2095.96072262 -89.1358924655,2090.69849309 -92.1422895497,2084.47242882 -94.1067178432,2079.4447795 -97.8905687319,2073.5120698 -102.769654474,2066.73430972 -98.75063625,2064.17327508 -89.951074036,2067.21682175 -56.5951748908,2078.75909808 -50.5154095162,2108.26582727 -64.3450556668,2123.57058073 -78.1116990494,2140.51534258 -78.6016946375,2141.1577764 -87.9102636281,2153.39908726 -94.726002213,2163.71770217 " mydata_rot="2.2" mydata_centroid="-76.1903635882,2105.27546176"/>
  <polygon id="412123958" class="tile" points="-103.769654474,2068.60355047 -110.876282799,2064.17327508 -117.171138767,2068.83696608 -116.55192182,2093.99062854 -110.674661043,2089.32718593 -103.770576473,2094.09924922 -103.769654474,2068.60355047 " mydata_rot="30.3" mydata_centroid="-110.327605186,2078.97234441"/>
  <polygon id="247141747" class="tile" points="-129.023152489,2064.17327508 -118.171138767,2082.73003468 -131.298151781,2105.86471085 -145.084842332,2098.74408576 -133.705029376,2085.19070286 -145.062292829,2066.154877 -129.023152489,2064.17327508 " mydata_rot="-3.6" mydata_centroid="-131.64671452,2083.73671892"/>
  <polygon id="59383258" class="tile" points="-178.319591819,2361.96205801 -205.810133044,2067.6866003 -146.084842332,2064.17327508 -146.289960754,2242.44495865 -146.418981694,2360.29443002 -178.319591819,2361.96205801 " mydata_rot="-32.5" mydata_centroid="-169.843433163,2198.58033343"/>
  <polygon id="302064286" class="tile" points="-233.533148939,2159.35230601 -224.700627466,2160.48354293 -218.531197995,2158.25808514 -218.896651017,2128.04740955 -218.048666211,2123.35372264 -215.969638094,2119.97382704 -212.75366728,2116.37831214 -210.62357903,2111.97625122 -211.234366454,2103.2119715 -206.810133044,2103.42519447 -207.340030025,2088.38035318 -207.569306578,2086.17845022 -208.568384782,2084.72812813 -210.256186359,2083.39226804 -212.708725989,2082.81234443 -214.901429483,2082.3400366 -214.767857542,2080.39229356 -217.822919261,2078.58726164 -218.157315558,2072.65636193 -211.510081544,2072.48726277 -207.310114768,2067.32780128 -207.129168172,2064.77188086 -236.611341766,2064.31548426 -240.400666049,2064.17327508 -240.451531388,2139.92507064 -237.979005305,2150.23269311 -233.533148939,2159.35230601 " mydata_rot="-40.7" mydata_centroid="-226.52270468,2107.68277377"/>
  <polygon id="251110316" class="tile" points="-269.667265302,2117.25052722 -269.673547191,2064.17327508 -241.451531388,2064.65138814 -241.811419212,2097.81400103 -241.875171522,2104.36527669 -264.600333873,2103.98865605 -264.821162085,2117.3243537 -269.667265302,2117.25052722 " mydata_rot="-34.1" mydata_centroid="-256.315609893,2085.7008712"/>
  <polygon id="182759595" class="tile" points="-270.673547191,2121.07728561 -283.692871866,2121.01330626 -283.636481493,2123.98546643 -299.532910621,2123.86657791 -300.017345471,2097.02940255 -300.113254945,2092.5013991 -312.612124831,2092.52527407 -312.867237619,2076.00594182 -305.627474243,2065.94891244 -276.175795814,2066.16559811 -276.248241678,2064.18989174 -270.691428294,2064.17327508 -270.673547191,2121.07728561 " mydata_rot="-87.9" mydata_centroid="-288.564260172,2092.00446993"/>
  <polygon id="275314796" class="tile" points="-322.08287579,2173.30847334 -313.986490534,2172.83048103 -315.284968279,2149.32457307 -317.084086249,2129.02360814 -313.867237619,2065.1533821 -322.167618984,2064.17327508 -323.167186701,2071.0610163 -329.003781086,2075.33068959 -327.845745911,2076.8947856 -343.321468493,2088.32689032 -345.460893584,2089.79752221 -345.748925574,2091.98441986 -346.408667408,2096.85853626 -357.396104845,2093.76051632 -359.041079162,2096.4697722 -360.007249992,2098.80231492 -333.631944689,2143.64081906 -322.08287579,2173.30847334 " mydata_rot="67.5" mydata_centroid="-329.673823168,2114.67208524"/>
  <polygon id="285961421" class="tile" points="-367.858658725,2163.34048579 -400.644996763,2079.46046339 -407.260113119,2064.17327508 -412.097510273,2106.5053556 -414.636657364,2144.68578035 -406.450762992,2145.6513961 -405.771030631,2148.45615294 -411.002261735,2166.10528784 -413.136000302,2182.38193588 -413.135150336,2188.96743588 -414.622555397,2196.55933517 -392.221042863,2187.66247736 -390.758066428,2190.41686582 -361.007249992,2177.99832185 -367.858658725,2163.34048579 " mydata_rot="-28.0" mydata_centroid="-394.551883968,2144.39427606"/>
  <polygon id="299606222" class="tile" points="-440.076295768,2187.42428713 -438.879847996,2190.48453908 -436.39940132,2187.73118167 -434.025419643,2184.16801841 -436.03798091,2183.79671287 -437.146611689,2182.37195065 -437.119550429,2181.08263829 -433.367679457,2173.61408226 -429.334190873,2175.10998638 -422.585793631,2161.13239895 -425.117407693,2159.82492192 -425.708303042,2158.39683861 -425.766606108,2156.95604209 -424.755978688,2155.89044768 -423.278186421,2155.38292847 -420.062629366,2156.83487295 -415.672589867,2146.77405888 -420.630871153,2144.24289616 -416.627200754,2134.83723298 -436.018260282,2125.64210961 -437.281584186,2127.88679644 -438.811575719,2128.6406658 -440.498377258,2128.32418601 -442.05164907,2127.52819752 -444.186294245,2125.99347286 -444.769761402,2124.56069364 -443.860781775,2122.82448215 -440.079552364,2124.46405411 -426.543755511,2095.78095441 -415.636657364,2087.9375459 -420.428292918,2081.8874159 -423.680111158,2077.7796527 -431.605914292,2064.17327508 -442.665265749,2070.49304585 -440.765522351,2074.45201474 -440.97646465,2075.96029649 -441.912816559,2076.97893587 -443.058176251,2077.17357531 -444.269782659,2076.77004077 -446.604156657,2073.89972903 -447.846310279,2074.97735603 -449.468749416,2076.37440849 -448.913163147,2084.60463837 -450.116521854,2085.36537017 -453.155547711,2083.89665002 -457.075624834,2092.13530066 -471.889121023,2123.25391852 -452.875783286,2132.62461254 -452.771838896,2133.77579331 -451.316932812,2138.57701115 -453.591662701,2137.4785277 -462.478551033,2157.8257158 -442.125813135,2167.63768491 -448.43261802,2183.3826998 -440.076295768,2187.42428713 " mydata_rot="-57.7" mydata_centroid="-441.377876466,2124.4829593"/>
  <polygon id="182103072" class="tile" points="-515.469764522,2123.5142219 -472.889121023,2123.60184248 -472.927528695,2064.2514387 -515.514040854,2064.17327508 -515.469764522,2123.5142219 " mydata_rot="-68.7" mydata_centroid="-494.199548077,2093.88451332"/>
  <polygon id="334212042" class="tile" points="-540.678916037,2098.39687454 -516.514040854,2103.25844253 -516.54629192,2064.69851457 -519.131427156,2064.17327508 -521.493082063,2077.2977304 -529.553786461,2075.67471813 -529.684454091,2076.42430845 -532.139041112,2087.91983305 -532.350161474,2089.08699133 -533.723431035,2088.76387549 -538.421817471,2087.76825489 -538.598053613,2087.78031021 -540.267300555,2096.48998284 -540.678916037,2098.39687454 " mydata_rot="-92.6" mydata_centroid="-525.40059959,2088.56075559"/>
  <polygon id="224707316" class="tile" points="-86.3482105158,2497.58354093 -76.4768999152,2479.56230557 -81.3724346118,2476.8557641 -60.9286623163,2439.83274948 -54.2993220191,2431.57816844 -41.0740522144,2420.48709682 -55.8701679239,2401.9714183 -82.886589144,2404.0809238 -86.2516783761,2361.96205801 -21.549740782,2410.74475138 -11.1518821131,2418.37495725 0.0,2428.46866133 -33.9434918409,2457.24358679 -60.7027149182,2505.5376633 -86.3482105158,2497.58354093 " mydata_rot="58.6" mydata_centroid="-51.03363088893086,2437.25306291"/>
  <polygon id="389581951" class="tile" points="-102.566976502,2381.59164036 -102.578505833,2361.96864987 -88.3562729193,2361.96205801 -88.3482105158,2377.19117687 -92.022267607,2377.18855935 -92.0189540351,2381.59121675 -102.566976502,2381.59164036 " mydata_rot="-1.0" mydata_centroid="-95.7860568692,2371.31015529"/>
  <polygon id="285961418" class="tile" points="-166.679034077,2361.96205801 -148.897423704,2375.40066341 -134.034232123,2384.66453464 -113.58271297,2395.5835582 -103.578505833,2401.35420015 -103.674831427,2421.24522172 -166.048989255,2422.06076814 -166.695583933,2465.40829111 -180.233363431,2465.63469216 -180.336104213,2362.05954371 -166.679034077,2361.96205801 " mydata_rot="40.6" mydata_centroid="-152.623227232,2405.58962214"/>
  <polygon id="255480856" class="tile" points="-192.260781299,2362.50544189 -189.270732926,2361.96205801 -181.476417283,2445.6804993 -201.893560351,2451.59837279 -182.33957477,2515.71570266 -194.427036222,2519.87849295 -183.277389345,2560.08806658 -181.336104213,2582.23827547 -183.346404664,2588.13550887 -193.411967941,2593.86118799 -234.847490426,2597.90593652 -236.403537742,2596.14218414 -243.057004784,2536.8933468 -240.468788063,2512.65966031 -192.260781299,2362.50544189 " mydata_rot="10.3" mydata_centroid="-209.55914756,2507.39422056"/>
  <polygon id="185632363" class="tile" points="-257.480064384,2387.84917695 -257.475173858,2383.86241224 -253.883773701,2383.85483172 -253.875227955,2375.58222186 -253.872866975,2365.90657092 -253.867369449,2362.11551941 -244.058500494,2361.96205801 -244.057004784,2387.80709592 -257.480064384,2387.84917695 " mydata_rot="40.6" mydata_centroid="-249.322998699,2375.51890186"/>
  <polygon id="108324451" class="tile" points="-258.517443187,2430.25097669 -279.340896148,2417.24905854 -258.480064384,2382.27631848 -272.189777596,2371.57817071 -277.83050097,2364.58931173 -282.453152449,2361.96205801 -308.344676471,2404.83838197 -294.600000231,2414.97233315 -296.646261929,2419.62925284 -266.953121324,2438.53741501 -258.517443187,2430.25097669 " mydata_rot="-74.5" mydata_centroid="-281.935816743,2399.03553769"/>
  <polygon id="164842325" class="tile" points="-342.186252224,2361.96205801 -309.344676471,2362.0177256 -309.36039616,2410.83893128 -340.908289659,2410.44082427 -340.499547826,2382.04012877 -342.483159995,2381.96152835 -342.186252224,2361.96205801 " mydata_rot="60.5" mydata_centroid="-325.356263338,2386.0376454"/>
  <polygon id="437714017" class="tile" points="-343.483159995,2362.26930696 -353.078419562,2361.96205801 -353.047125288,2391.74426894 -347.968984539,2391.64137059 -349.886380431,2394.96078525 -347.67129613,2396.5903275 -344.277518317,2391.451834 -343.483159995,2362.26930696 " mydata_rot="-4.3" mydata_centroid="-348.425387601,2377.50791233"/>
  <polygon id="185632785" class="tile" points="-362.868739741,2365.64030249 -362.796529104,2363.9461079 -362.80125544,2361.96205801 -354.078419562,2361.99224812 -354.082225774,2369.66179479 -354.12662824,2386.18557657 -362.814082764,2386.11440115 -362.834355155,2376.38559644 -362.853859352,2371.02059708 -362.868739741,2365.64030249 " mydata_rot="39.9" mydata_centroid="-358.464858829,2374.04682742"/>
  <polygon id="323057186" class="tile" points="-370.641073813,2403.39239637 -370.64284343,2393.18629884 -363.876262454,2393.18867266 -363.879785337,2383.19494131 -363.868739741,2380.12226508 -374.301461747,2380.06717554 -374.226634541,2362.06635102 -392.558656131,2361.96205801 -392.657432572,2383.92859111 -394.111827276,2383.91799388 -394.811785512,2384.55867509 -394.808316389,2403.37619871 -370.641073813,2403.39239637 " mydata_rot="-7.7" mydata_centroid="-381.466922398,2384.32332185"/>
</svg>