<svg xmlns="http://www.w3.org/2000/svg" version="1.1" width="592.5px" height="1200px">
  <polygon id="1" class="bin" points="1.875,0.0 -0.77665042945,1.09834957055 -1.875,3.75 -1.875,1203.749999 -0.77665042945,1206.40164943 1.875,1207.499999 219.902689159,1207.499999 222.080727174,1206.80264546 223.448705178,1204.96994588 223.554475678,1204.66250308 226.402128549,1201.39833777 230.719506677,1201.04599116 250.701364035,1207.32740373 251.825941925,1207.499999 266.984990693,1207.499999 269.653452256,1206.38473103 270.734687312,1203.70229921 269.585566889,1201.04823967 268.970641887,1200.45634413 268.418561003,1200.01705793 235.396640499,1178.48115567 235.262012317,1178.39107696 228.607586679,1173.82425033 228.321668103,1173.61702999 216.609048129,1164.66060561 216.083332086,1164.21511989 208.472174425,1157.08009695 207.761694144,1156.30359083 204.694529078,1152.38708233 204.537622037,1152.19964683 202.033970918,1149.39959242 201.357361178,1148.50567892 197.160691118,1141.90384508 196.790333261,1141.24350546 195.593617673,1138.80385421 195.278712873,1138.0521709 193.34969024,1132.55347257 193.203074229,1132.08197379 191.974745972,1127.56574944 191.857700381,1127.06100162 190.752419403,1121.31905586 190.640893643,1120.43216562 190.229145927,1113.58009705 190.221719691,1112.90694229 190.453962818,1106.79109474 190.51643166,1106.09156251 191.112090181,1101.86999341 191.14427291,1101.66444039 192.209406808,1095.47567822 192.258707934,1095.21860322 194.358630221,1085.29415591 194.419323887,1085.03263469 196.501835488,1076.79336327 196.526030707,1076.69169427 198.854318156,1066.26515337 198.930241345,1065.77410532 199.52082984,1059.01070463 199.535039224,1058.67764861 199.524208228,1052.74197354 199.500944366,1052.33170201 198.730854896,1045.45129575 198.576469461,1044.72785965 193.856251409,1029.94355396 193.713287548,1029.42710021 191.812474086,1021.34786453 191.678041122,1020.58670721 190.934954874,1014.34841318 190.918929903,1014.20022051 190.358415842,1008.43248293 190.331592054,1007.49526585 190.645356594,999.586253542 190.658465079,999.354600882 191.53380521,987.45074782 191.594668009,986.913262979 193.511379013,974.409770326 193.59809907,973.949402313 243.402535882,751.510571224 245.251138724,749.11074599 245.842536086,745.650445441 243.312268364,743.217098779 223.917667589,737.665780324 222.242479615,736.933084251 210.436981537,729.762385926 209.344612039,728.939629859 194.338244794,715.092942237 192.631522298,713.514716614 191.611048352,712.328259354 178.769463939,693.402463892 178.15024698,692.275593493 167.499199942,667.685948749 167.076542613,666.351300529 162.210231058,642.902336077 162.070751845,641.73687451 160.564497462,596.922384402 160.559658651,596.820065782 153.061280296,473.875664155 153.060883445,473.869247854 148.397931683,399.512852035 148.394505481,399.463442836 142.318432144,319.496235855 142.305485851,319.281371656 140.676617487,282.722227341 140.669804156,282.415503728 140.673809634,244.513583148 140.895789196,242.782386103 147.575163351,217.153622593 147.885352322,216.234749967 157.500948074,193.247203044 157.753589218,192.709710344 170.059733894,169.221283762 170.908593851,167.962588028 189.566077928,145.993597884 190.52059504,145.068338702 215.107213059,125.471546206 216.468023223,124.62586911 239.510562806,113.801911822 240.083078332,113.563873781 260.474377375,106.145482362 261.832987472,105.803239792 275.234062285,103.851453653 275.438218809,103.824834848 289.496715227,102.205520128 290.623420756,102.16881825 297.076526227,102.488849004 300.002454639,101.303511339 300.986418381,98.3038617245 299.331083138,95.6157494334 236.147071968,53.8228582866 233.689192769,50.1914368718 234.507869867,45.8835186441 242.930196094,33.0060211359 243.251079379,32.4012130239 252.12647158,11.1949801504 252.375304551,10.3063226993 253.279607346,4.30913336377 252.413993776,1.30400839271 249.571525648,0.0 1.875,0.0 " mydata_rot="0" mydata_centroid="97.64631865655706,616.1693822643754"/>
  <polygon id="277443897" class="tile" points="-1.30425662436,1425.98499311 -31.2410654508,1425.49267177 -29.6540985942,1391.92270935 -29.5608025882,1334.91060979 -35.1976696689,1335.09898726 -36.7666384827,1302.55185146 -63.8029489823,1303.27875425 -63.8840247635,1232.56096597 -59.5783118431,1226.94785043 -58.552102115,1201.81370685 -1.0,1201.0 -1.30425662436,1425.98499311 " mydata_rot="21.0" mydata_centroid="-26.076510144867957,1293.7241176771254"/>
  <polygon id="354589536" class="tile" points="-64.8881984416,1226.27917833 -64.8840247635,1201.24228132 -83.3897926688,1201.0 -83.3731988218,1226.35191615 -64.8881984416,1226.27917833 " mydata_rot="-29.6" mydata_centroid="-74.1530699254,1213.715907000598"/>
  <polygon id="220953324" class="tile" points="-84.3897926688,1213.41686439 -88.9591408616,1216.05628977 -89.9544969337,1208.34206743 -88.7545793379,1201.0 -84.391511392,1204.18386157 -85.9405855536,1208.17940875 -84.3897926688,1213.41686439 " mydata_rot="-80.9" mydata_centroid="-87.4094316467,1208.668090260289"/>
  <polygon id="180338804" class="tile" points="-136.050508371,1202.10285271 -136.107208499,1249.76577781 -90.9544969337,1242.0407587 -91.0882850841,1201.0 -136.050508371,1202.10285271 " mydata_rot="6.7" mydata_centroid="-114.109110283,1223.798204349325"/>
  <polygon id="104903380" class="tile" points="-137.107208499,1201.0 -142.143259467,1201.53310041 -144.7980936,1208.03734401 -146.310374739,1213.47960766 -145.646786508,1220.52766204 -145.521871241,1227.39147118 -144.812227734,1231.58019451 -142.80127472,1233.52339434 -140.766530105,1235.27182303 -137.132509794,1236.17121308 -139.256578336,1223.53809308 -140.481305971,1223.07208104 -139.226705898,1221.78443032 -139.470194847,1216.48161818 -138.747372566,1211.49294048 -137.848309896,1205.12814445 -137.107208499,1201.0 " mydata_rot="19.3" mydata_centroid="-141.777310861,1218.4202015464912"/>
  <polygon id="299906171" class="tile" points="-155.131710694,1232.7995841 -147.310374739,1236.26095147 -149.427995333,1230.19864787 -150.367043502,1221.66200346 -149.857338328,1214.19399615 -147.315444966,1202.23380242 -153.469759671,1201.0 -155.153468329,1205.85040836 -156.0664979,1212.41564802 -156.498314992,1219.11254272 -156.525335167,1225.79246454 -155.131710694,1232.7995841 " mydata_rot="29.5" mydata_centroid="-152.454878559,1217.8815445344958"/>
  <polygon id="283424655" class="tile" points="-157.598593736,1201.76550681 -169.630840573,1201.56273962 -203.132857071,1201.0 -203.676814356,1247.95052638 -188.592875596,1249.06976436 -188.636141954,1242.25719247 -181.369710885,1242.12243363 -181.623414136,1249.72896693 -157.525335167,1249.64691796 -157.598593736,1201.76550681 " mydata_rot="10.3" mydata_centroid="-180.300428224,1224.8899320754579"/>
  <polygon id="185193594" class="tile" points="-218.033380632,1201.0 -204.76509584,1210.22322049 -204.676814356,1220.77312232 -225.82868988,1220.23548502 -231.208708635,1227.20639289 -231.249047199,1234.38873833 -233.054741184,1234.19725493 -232.814542415,1273.85474776 -223.692144814,1273.69575838 -223.530173859,1329.50315125 -242.549074703,1329.62221719 -242.156650614,1359.51860608 -238.20859458,1359.60056339 -237.872876334,1433.9199874 -252.891457959,1433.38645549 -253.0507484,1210.54762414 -242.609768141,1217.94957198 -239.104176581,1212.92200048 -230.628508125,1218.87018738 -218.033380632,1201.0 " mydata_rot="4.8" mydata_centroid="-240.226256478,1305.444204126781"/>
  <polygon id="185193578" class="tile" points="-285.002469307,1244.44066544 -254.0507484,1223.95577553 -258.766317744,1217.65224224 -266.982838208,1206.66736253 -273.724527475,1201.0 -279.487322076,1201.50672831 -282.478699732,1203.12099401 -284.841437739,1204.39406304 -287.531571442,1215.99843291 -287.53680963,1222.11441612 -287.539786588,1238.12186149 -285.002469307,1244.44066544 " mydata_rot="-50.2" mydata_centroid="-274.797575821,1221.2481914516295"/>
  <polygon id="108144474" class="tile" points="-335.218859821,1240.78129347 -334.778240669,1207.76140494 -335.867430156,1206.47219613 -335.85419689,1201.39234914 -314.642627276,1201.09379073 -309.443398178,1201.02613631 -308.170340607,1201.0 -308.114785356,1202.82022427 -307.993868213,1207.18710911 -307.994748761,1207.75539102 -308.118896642,1231.62764222 -305.214518966,1226.93987678 -303.4205653,1225.94630443 -301.375586165,1225.09186513 -298.932694096,1224.76243647 -296.507903831,1224.93290494 -293.771030791,1225.64151774 -291.42188641,1227.03974706 -289.622496318,1229.65838968 -288.574168685,1232.75592712 -288.592226903,1255.51105519 -288.590202653,1258.12952542 -288.601489057,1265.73902364 -288.622200555,1298.76530935 -288.539786588,1309.72485386 -291.520293339,1316.74113848 -298.588250227,1316.73967786 -298.576389407,1313.28465754 -309.042116638,1308.38807082 -308.959879512,1267.81566186 -310.500977194,1267.9005704 -351.208968347,1268.04887735 -351.468539008,1261.98106822 -357.283315902,1261.86772738 -357.002733797,1243.8750087 -349.68776555,1243.94521341 -349.121568195,1243.49460562 -344.549594345,1243.47854386 -343.633222122,1245.00724261 -338.136717781,1245.11602502 -338.163837081,1240.78807553 -335.218859821,1240.78129347 " mydata_rot="8.7" mydata_centroid="-314.626711176,1252.490771648361"/>
  <polygon id="266175002" class="tile" points="-358.283315902,1201.0 -369.469581239,1207.02281579 -380.997970161,1210.2184746 -398.504080382,1213.77563742 -397.788851952,1269.44469777 -371.585580899,1269.15110652 -371.990718325,1256.85221926 -358.335470795,1256.27655545 -358.283315902,1201.0 " mydata_rot="6.9" mydata_centroid="-378.549878333,1237.007808315857"/>
  <polygon id="236798986" class="tile" points="-399.504581588,1201.0 -404.600093365,1201.02087326 -404.599587863,1216.40750917 -399.504080382,1216.38663087 -399.504581588,1201.0 " mydata_rot="40.4" mydata_centroid="-402.052085939,1208.7037522421765"/>
  <polygon id="241819963" class="tile" points="-513.5905506,1201.0 -513.624256701,1310.59698872 -505.367335255,1311.56787804 -504.759518578,1353.52331367 -478.680336068,1349.30086495 -487.626973859,1293.15296493 -405.600093365,1279.87679719 -408.662884508,1255.62386764 -407.834074571,1244.13202576 -461.124694652,1216.65724927 -486.509639236,1203.69848654 -513.5905506,1201.0 " mydata_rot="2.7" mydata_centroid="-472.832903306,1263.5064494337362"/>
  <polygon id="273350116" class="tile" points="-514.624256701,1201.03718533 -528.109757433,1201.0 -528.120762558,1218.83000812 -540.335583822,1218.80023198 -540.334295372,1227.19952209 -540.339019654,1230.91864038 -514.638723261,1230.98560972 -514.624256701,1201.03718533 " mydata_rot="-72.9" mydata_centroid="-524.821996788,1218.3751394802855"/>
  <polygon id="247143604" class="tile" points="-570.295878803,1201.10781495 -541.343673612,1201.0 -541.339019654,1250.19633292 -567.351692002,1250.28923918 -567.354607596,1241.77596466 -570.288366705,1241.78751382 -570.295878803,1201.10781495 " mydata_rot="31.1" mydata_centroid="-555.58395827,1225.286345697193"/>
  <polygon id="181959273" class="tile" points="-0.0200528422371,1463.05996205 0.0,1453.19028879 -20.049373492,1452.65473756 -19.7156094851,1433.9199874 -33.9828867244,1434.6443478 -33.9630076211,1472.92154874 -9.6247704668,1473.96209823 -9.35545784701,1471.85675793 -9.54612496812,1463.30591846 -0.0200528422371,1463.05996205 " mydata_rot="40.4" mydata_centroid="-21.34234939099049,1456.63433917"/>
  <polygon id="185148180" class="tile" points="-60.3419381939,1466.73426432 -47.5463137638,1466.71647817 -39.7256181916,1466.69654207 -35.9828867244,1466.69626508 -36.0033839986,1433.9199874 -37.4917175774,1433.92398965 -59.0483130697,1433.96473356 -61.0715249622,1433.96753946 -61.0688143391,1442.00221251 -61.0605142009,1459.4117155 -61.0524400331,1466.73519246 -60.3419381939,1466.73426432 " mydata_rot="9.3" mydata_centroid="-48.528442446,1450.33043143"/>
  <polygon id="231965394" class="tile" points="-84.6994034233,1433.9199874 -62.0715249622,1460.84070822 -62.4375908056,1522.62675573 -63.5521245377,1522.62073303 -95.1861177625,1522.61824153 -95.1751413384,1435.93116663 -91.9820121562,1439.84855809 -84.6994034233,1433.9199874 " mydata_rot="-25.5" mydata_centroid="-79.5957029665,1482.89493313"/>
  <polygon id="228873051" class="tile" points="-111.275870023,1433.9199874 -143.646493947,1440.48248723 -143.688165784,1512.94004265 -96.1861177625,1502.76580244 -111.275870023,1433.9199874 " mydata_rot="-81.6" mydata_centroid="-123.481198594,1474.76887197"/>
  <polygon id="163806018" class="tile" points="-144.688165784,1443.42871557 -146.100740039,1443.43778004 -146.100022246,1433.92763994 -144.69397622,1433.9199874 -144.688165784,1443.42871557 " mydata_rot="12.2" mydata_centroid="-145.395742049,1438.68220186"/>
  <polygon id="443136829" class="tile" points="-221.90115536,1434.08833475 -221.89338071,1509.97023116 -147.100740039,1509.79539934 -147.110137044,1433.9199874 -221.90115536,1434.08833475 " mydata_rot="73.7" mydata_centroid="-184.501885599,1471.94362661"/>
  <polygon id="300398885" class="tile" points="-222.90115536,1433.9199874 -233.683711017,1433.94126597 -233.690907353,1437.54179224 -233.479318031,1466.00490739 -233.483018279,1469.14219895 -222.951603827,1469.1167899 -222.90115536,1433.9199874 " mydata_rot="49.4" mydata_centroid="-228.256685605,1451.44872139"/>
  <polygon id="299950331" class="tile" points="-246.655376679,1454.11369612 -234.690907353,1454.46393916 -234.773168199,1440.79088058 -234.763547586,1439.44240955 -234.715570801,1434.47491236 -246.559893342,1433.9199874 -246.655376679,1454.11369612 " mydata_rot="-28.8" mydata_centroid="-240.682280459,1444.26258515"/>
  <polygon id="273613777" class="tile" points="-248.56950883,1451.0133914 -248.730586662,1446.4720347 -247.655376679,1446.39586076 -247.75055625,1442.5635025 -247.970335242,1433.9199874 -250.865305819,1436.08967226 -261.001966544,1443.86465339 -261.000320476,1451.37978161 -248.56950883,1451.0133914 " mydata_rot="-7.7" mydata_centroid="-253.672918382,1444.58724276"/>
  <polygon id="443136833" class="tile" points="-332.642753474,1440.8935257 -295.503174309,1434.32201019 -262.001966544,1433.9199874 -262.117650909,1542.2126532 -266.885152404,1550.85058786 -267.153621273,1582.58823191 -324.179277387,1579.90754814 -332.642753474,1440.8935257 " mydata_rot="58.0" mydata_centroid="-295.507442713,1505.93693792"/>
  <polygon id="347320680" class="tile" points="-347.542451157,1436.03782175 -346.702696119,1433.9199874 -333.661523245,1438.33882288 -333.642753474,1462.5359577 -354.685448858,1454.52906533 -351.548599241,1446.41996503 -349.67138884,1441.54614384 -347.542451157,1436.03782175 " mydata_rot="-13.2" mydata_centroid="-342.294189316,1448.23098501"/>
  <polygon id="220789400" class="tile" points="-355.74084976,1436.74542607 -355.749586111,1450.04860078 -355.714933947,1463.47333713 -355.724671238,1477.19298446 -355.730130782,1479.39288821 -363.800624822,1479.66623831 -366.828302218,1479.62242221 -367.096635364,1433.97057443 -363.30950523,1433.94147339 -355.685448858,1433.9199874 -355.737228514,1436.40395304 -355.74084976,1436.74542607 " mydata_rot="47.4" mydata_centroid="-361.351704193,1456.66714683"/>
  <polygon id="376403758" class="tile" points="-381.316100893,1476.60762561 -368.118565431,1476.60300278 -368.096635364,1433.9199874 -381.285519744,1433.9260269 -381.316100893,1476.60762561 " mydata_rot="80.7" mydata_centroid="-374.704170211,1455.2664932"/>
  <polygon id="298133567" class="tile" points="-382.316100893,1433.9199874 -382.322010113,1440.37015278 -382.325907092,1446.08605856 -387.073687589,1445.95776607 -387.010652343,1441.5840897 -388.438268601,1441.56219815 -388.452945718,1440.41350268 -388.472278195,1439.27225734 -388.483736153,1434.26154743 -382.316100893,1433.9199874 " mydata_rot="-32.0" mydata_centroid="-385.152486672,1439.69833528"/>
  <polygon id="300398902" class="tile" points="-396.120997021,1433.9199874 -389.484395977,1433.96482725 -389.483736153,1437.08535643 -389.491232471,1456.80594135 -389.501087709,1481.72460297 -389.5012014,1485.83976849 -396.177635599,1486.26677018 -396.120997021,1433.9199874 " mydata_rot="-38.2" mydata_centroid="-392.825951602,1460.02198729"/>
  <polygon id="259672582" class="tile" points="-417.6815234,1433.98298437 -417.690818843,1458.99875263 -410.211623913,1458.97282611 -410.209076642,1457.05956681 -404.928247654,1457.04969797 -404.928637853,1453.47830633 -397.188823961,1453.45641607 -397.177635599,1433.9199874 -417.6815234,1433.98298437 " mydata_rot="53.0" mydata_centroid="-408.019739796,1445.30694409"/>
  <polygon id="62235492" class="tile" points="-479.470291207,1433.9199874 -479.429382471,1503.74520783 -470.172902923,1504.34004366 -431.124753317,1506.8514964 -420.958558377,1503.7451076 -418.894026852,1494.41093087 -418.690818843,1437.38955538 -479.470291207,1433.9199874 " mydata_rot="64.6" mydata_centroid="-449.333688134,1470.35375896"/>
  <polygon id="442637490" class="tile" points="-480.472245837,1457.97902278 -499.875835732,1457.95972489 -499.873891169,1433.9199874 -480.470291207,1433.93928401 -480.472245837,1457.97902278 " mydata_rot="-82.7" mydata_centroid="-490.173065899,1445.94950373"/>
  <polygon id="389691035" class="tile" points="-501.203243098,1434.10931698 -500.875835732,1477.53619782 -516.043213992,1479.00090607 -516.044301136,1476.68557343 -515.956529538,1433.9199874 -508.288811447,1434.01445704 -501.203243098,1434.10931698 " mydata_rot="3.5" mydata_centroid="-508.566919679,1456.24707827"/>
  <polygon id="374110192" class="tile" points="-528.855909947,1433.94621343 -517.044301136,1433.9199874 -517.05387806,1457.66684221 -533.447870408,1457.70417592 -533.444844381,1449.1084566 -528.864542461,1449.10369546 -528.855909947,1433.94621343 " mydata_rot="71.7" mydata_centroid="-523.964726494,1446.74161385"/>
  <polygon id="185329229" class="tile" points="-575.459158613,1551.83483084 -557.044222485,1567.20612229 -534.447870408,1560.55684565 -534.450961354,1511.47519599 -534.458219031,1434.83400027 -536.281402321,1433.9199874 -562.487898692,1470.88209917 -542.908242934,1485.46537991 -546.526904381,1490.08481528 -541.036897697,1494.05692971 -548.131730046,1504.00485635 -543.624881032,1507.31503995 -575.459158613,1551.83483084 " mydata_rot="5.0" mydata_centroid="-547.026870723,1512.47276812"/>
  <polygon id="59386207" class="tile" points="-91.3770072319,1750.85981063 0.0,1743.63307069 -3.60516022816,1672.51252455 -14.8521885373,1626.86203411 -19.4755999513,1610.36127001 -32.3362902727,1609.31968944 -37.0318601388,1602.94910881 -34.1955716148,1593.2408496 -26.4198092099,1590.1778709 -18.3087302595,1594.47172133 -15.9567656837,1598.49288828 -9.02855808735,1582.58823191 -91.2988493621,1586.44563191 -91.3770072319,1750.85981063 " mydata_rot="-48.4" mydata_centroid="-49.93840139291774,1670.77770008"/>
  <polygon id="277980027" class="tile" points="-123.344489077,1583.63098618 -116.004332514,1583.37327165 -93.7786043193,1582.58823191 -93.3770072319,1644.7031099 -117.188402468,1645.43932138 -141.145572472,1645.71979168 -141.127425944,1631.68949213 -129.418598077,1608.20889501 -123.507658984,1596.34357656 -123.344489077,1583.63098618 " mydata_rot="62.0" mydata_centroid="-113.640375685,1617.43897846"/>
  <polygon id="281839230" class="tile" points="-142.696157127,1614.5524646 -142.145572472,1582.67120925 -149.636226189,1582.58823191 -149.595976178,1614.30193455 -142.696157127,1614.5524646 " mydata_rot="7.6" mydata_centroid="-146.013324105,1598.3114881"/>
  <polygon id="271457747" class="tile" points="-150.636226189,1597.11626426 -193.4056802,1582.58823191 -193.287060064,1670.80253269 -170.858711733,1673.89049502 -154.010784943,1636.96088525 -150.636226189,1597.11626426 " mydata_rot="-3.3" mydata_centroid="-175.065787495,1627.45092642"/>
  <polygon id="185622702" class="tile" points="-194.4056802,1609.12477836 -194.426953593,1584.2406948 -198.998722274,1582.58823191 -207.595194461,1603.4854957 -201.607208071,1606.10014625 -194.4056802,1609.12477836 " mydata_rot="16.9" mydata_centroid="-199.196316032,1596.74874914"/>
  <polygon id="331122537" class="tile" points="-208.595194461,1583.32470752 -225.761158422,1582.58823191 -225.749686673,1600.33025383 -209.286118641,1601.87474353 -208.595194461,1583.32470752 " mydata_rot="-41.0" mydata_centroid="-217.280894278,1591.97223166"/>
  <polygon id="59382165" class="tile" points="-257.943607609,1583.24035022 -240.604198102,1582.58823191 -233.554637792,1587.62921821 -228.980083525,1593.96085842 -226.761158422,1626.07552281 -233.887862969,1626.86605546 -233.404475478,1646.88340851 -257.985737363,1649.26771404 -257.943607609,1583.24035022 " mydata_rot="-39.8" mydata_centroid="-244.230784847,1615.13322205"/>
  <polygon id="330741675" class="tile" points="-259.000043991,1582.61927615 -258.985737363,1617.80720051 -269.699112007,1621.66319104 -269.712336946,1582.58823191 -259.000043991,1582.61927615 " mydata_rot="-29.0" mydata_centroid="-264.442750875,1601.18688522"/>
  <polygon id="203011292" class="tile" points="-270.742352966,1582.58823191 -270.712336946,1639.95455683 -319.43529344,1638.56728749 -318.551490071,1583.34820335 -315.766134661,1583.53832155 -270.742352966,1582.58823191 " mydata_rot="-9.5" mydata_centroid="-294.693642787,1611.26391492"/>
  <polygon id="326405345" class="tile" points="-326.111446002,1598.07265635 -326.111181444,1599.29094035 -320.43529344,1598.95145029 -320.726258754,1585.23026536 -326.064798252,1582.58823191 -325.994635374,1584.07776102 -326.111446002,1598.07265635 " mydata_rot="58.2" mydata_centroid="-323.408623918,1591.60307158"/>
  <polygon id="285497439" class="tile" points="-333.713596786,1582.58823191 -350.98998121,1592.89574848 -352.250391104,1590.77850378 -354.747488737,1592.43381879 -357.097751965,1593.99386567 -355.35745132,1598.46300127 -358.668833482,1600.51874422 -357.992998376,1604.64582323 -357.825715202,1608.76714946 -358.665596627,1612.93766558 -327.249164745,1614.666003 -327.111446002,1608.68746596 -328.332104899,1599.99343086 -328.713924346,1598.36441726 -330.002070739,1592.89534606 -331.838543211,1586.02038136 -333.713596786,1582.58823191 " mydata_rot="9.3" mydata_centroid="-341.964354682,1601.43192917"/>
  <polygon id="313670396" class="tile" points="-359.668833482,1731.85055519 -359.809503812,1706.04155375 -359.780152674,1701.92587045 -382.87288348,1702.76568041 -384.909612323,1674.7785831 -367.26602487,1674.14825119 -361.802424801,1668.52947265 -359.692100075,1582.72173875 -368.810210536,1582.58823191 -373.305681067,1585.1745208 -381.448044217,1582.66326535 -392.35897087,1607.04685147 -398.989227227,1637.18845586 -401.114173816,1655.45083742 -396.014918557,1655.69374538 -396.345256693,1667.35061412 -400.505518555,1668.20684948 -397.812999099,1715.87900336 -393.009884492,1733.58992823 -359.668833482,1731.85055519 " mydata_rot="-56.1" mydata_centroid="-379.524109758,1657.74855152"/>
  <polygon id="108402490" class="tile" points="-139.278044413,1764.65687992 -23.8988100568,1764.90279468 0.0,1787.69811925 -0.974362333864,1963.51455576 -26.8488605769,2021.84886685 -34.5645817017,2028.52136362 -68.2717898743,2057.6712312 -126.592348887,2074.03839531 -158.582315876,2083.01290724 -284.884384858,2119.31421172 -315.084328711,2110.21024039 -332.99843862,2085.96449599 -333.380361022,1778.20429954 -246.119179701,1750.85981063 -211.658680337,1757.05316853 -190.142638513,1778.1149946 -191.268877771,1792.34113822 -151.882080842,1792.02446431 -147.959605664,1776.60847668 -139.278044413,1764.65687992 " mydata_rot="68.0" mydata_centroid="-177.1208823532938,1924.57103131"/>
</svg>