<svg xmlns="http://www.w3.org/2000/svg" version="1.1" width="592.5px" height="1200px">
  <polygon class="bin" points="146.2500005,1203.749999 147.348350071,1206.40164943 150.0000005,1207.499999 446.2499995,1207.499999 448.901649929,1206.40164943 449.9999995,1203.749999 449.9999995,3.75 448.901649929,1.09834957055 446.2499995,0.0 175.372496474,0.0 172.841082744,0.983333319186 171.637254861,3.41762958788 171.312562951,7.06657873973 171.310147564,7.09494233123 170.830510053,12.9919169416 170.830056533,12.9975452429 169.7136263,26.9842746163 168.50288444,42.1275361331 167.301776125,57.1462821296 166.715274404,64.4346667342 166.713983811,64.4511597011 166.213645163,71.0317792623 165.029738829,86.7394123145 164.873698667,88.7766028911 165.367243285,90.9416171821 168.803019204,96.8772650459 178.564200467,113.756551446 186.933642354,128.221923013 190.744918323,134.810309908 191.521674601,135.754842689 195.001924815,138.799739619 196.919109224,139.68658899 198.743319839,139.958100251 202.436544606,142.112712233 203.626145422,146.219671189 202.13757361,161.294103264 200.713321579,175.646500245 199.199359819,190.936877971 198.759310947,195.364411268 196.557731196,199.735289584 187.107572221,208.306520242 177.32205119,217.175565737 176.411802419,217.871622052 169.13894228,222.526751471 156.913732188,230.348103511 156.34234682,230.676174031 148.290772869,234.799216484 146.2500005,238.137036268 146.2500005,240.369671831 147.275872793,242.946807495 149.792202225,244.113910055 153.499231812,244.31964332 153.757348888,244.325067483 161.548527539,244.220513332 162.706432684,244.020878395 168.598413816,242.015588917 168.954895898,241.873522007 173.080742049,239.97921124 178.292219255,240.241930496 181.058886469,244.666189597 186.097417847,309.088352287 186.105296446,309.20097598 190.374717896,378.38791811 190.38249927,378.54219265 195.79807687,516.76081748 195.803347719,517.028845089 195.830047073,679.474696438 195.155485263,682.440320068 193.065023151,686.795958585 192.793357155,689.268309635 194.128463871,691.366835829 196.483008172,692.168361412 228.098675853,691.854722251 232.166769961,693.485513449 233.902444557,697.509976556 236.751539246,875.569253562 235.128021528,879.664284259 231.08177437,881.405826714 149.951279364,882.459987651 147.331180137,883.575302547 146.2500005,886.209671137 146.2500005,1203.749999 "/>
  <polygon class="286120221" points="-1.0,1211.09590587 -73.9164928591,1201.236623 -84.2959221805,1201.0 -194.635801456,1208.93124698 -247.755236072,1213.74257274 -243.654226031,1251.98765081 -80.6758123402,1243.56569258 -83.8150219804,1205.81133233 -82.7263173606,1205.08393626 -75.9669978801,1205.68863902 -75.1254225297,1206.76658727 -77.8972778503,1243.08368628 -4.9807849912,1238.87708411 -1.0,1211.09590587 "/>
  <polygon class="412123943" points="-258.426673432,1249.00563275 -261.652712275,1246.85705153 -260.397028419,1244.54184476 -257.170989576,1246.50626268 -248.935573647,1231.86957921 -253.230279602,1229.7297614 -248.755236072,1227.40577805 -256.816993595,1210.45382607 -260.751024399,1211.87452958 -258.787348582,1206.53373494 -269.353794648,1201.0 -272.83364193,1207.71765536 -265.793797333,1212.27793916 -267.924452386,1215.45259615 -271.86516236,1213.84772833 -277.595889747,1224.37144367 -273.835517348,1226.16047338 -274.910863629,1228.12489753 -278.671236028,1226.16047338 -294.434075924,1253.10985915 -290.49336595,1255.24966834 -291.749049806,1257.02991883 -295.3357638,1254.8901103 -298.495010948,1261.02013347 -291.528637214,1264.30000015 -290.693741033,1262.83546098 -282.792283576,1267.38693181 -286.198659995,1274.34129171 -268.819461092,1285.04906034 -266.849106105,1280.94485652 -264.157400818,1282.1989191 -261.652712275,1276.48109308 -263.442729687,1275.59535572 -262.013387425,1271.84193255 -271.324149636,1267.20276832 -272.579833491,1269.52673574 -274.550188478,1268.27267041 -272.579833491,1263.99306084 -268.104789961,1265.95747218 -258.426673432,1249.00563275 "/>
  <polygon class="265734940" points="-334.099787854,1207.17641368 -310.929749041,1201.0 -310.595790569,1202.16685138 -307.302960031,1214.13364452 -303.983412816,1226.6969961 -299.495010948,1243.38375203 -303.916621122,1244.57691465 -302.994895738,1247.98970933 -309.98130698,1249.85841096 -310.088173692,1249.49870788 -322.250941255,1252.85886022 -334.099787854,1207.17641368 "/>
  <polygon class="381503668" points="-337.764776463,1201.0 -336.46901759,1203.37108572 -335.099787854,1205.89146096 -352.098274098,1215.05086417 -354.749904369,1210.17697452 -343.535578865,1204.13510202 -337.764776463,1201.0 "/>
  <polygon class="275739630" points="-376.368500453,1215.61516121 -382.032436145,1213.4984244 -377.330300853,1201.0 -374.257882908,1202.15059395 -355.749904369,1209.05415289 -356.805213142,1211.86475977 -372.728353105,1205.92735114 -376.368500453,1215.61516121 "/>
  <polygon class="331125086" points="-429.920205668,1276.6668297 -440.666989309,1208.32348938 -393.779219786,1201.0 -383.032436145,1269.35220773 -429.920205668,1276.6668297 "/>
  <polygon class="274853189" points="-441.666989309,1217.6145512 -454.390807107,1231.43803217 -464.088961145,1222.51201679 -468.991471519,1227.84831869 -477.293679143,1220.20371363 -460.715980574,1201.0 -441.666989309,1217.6145512 "/>
  <polygon class="220789412" points="-493.108076977,1221.60559256 -498.150849911,1216.04340785 -499.713775561,1214.31236349 -484.899377727,1201.0 -482.915664401,1203.19676176 -478.293679143,1208.29324583 -493.108076977,1221.60559256 "/>
  <polygon class="443719774" points="-500.713775561,1221.27837525 -507.145815739,1228.23645313 -529.267224951,1207.96686551 -522.835184771,1201.0 -500.713775561,1221.27837525 "/>
  <polygon class="223868484" points="-534.03427652,1226.15895706 -539.925303972,1225.18591231 -536.645831773,1201.0 -530.267224951,1201.92921777 -534.03427652,1226.15895706 "/>
  <polygon class="281342939" points="-39.0397454219,1285.04906034 -68.5149201924,1341.33324443 -29.4751747716,1361.77773081 0.0,1305.50252733 -4.70213529132,1303.03476636 -5.43016476072,1304.43111522 -7.18010715656,1303.51778015 -6.44539851677,1302.12143107 -17.118711294,1296.53603137 -21.88095911,1294.04192033 -39.0397454219,1285.04906034 "/>
  <polygon class="255477267" points="-126.4128893,1285.04906034 -70.5149201924,1290.13129751 -74.8897761809,1335.44918032 -109.641494817,1333.22462043 -111.825583226,1362.51312501 -131.268645487,1361.30852717 -126.4128893,1285.04906034 "/>
  <polygon class="412097224" points="-132.268645487,1355.3681242 -135.5013635,1361.3836574 -164.342017175,1393.51316363 -166.853384887,1393.51316363 -169.71874858,1392.79411003 -247.651297695,1326.22865286 -249.080639956,1327.29847654 -245.680942708,1330.15718475 -256.788401498,1343.36334616 -260.368436322,1341.5744655 -262.512449716,1344.30163139 -289.569765148,1321.58982494 -288.314081291,1318.73988156 -290.277757109,1316.6353071 -264.836800684,1285.94350945 -260.896090709,1288.80223802 -257.496393461,1285.04906034 -230.619415604,1307.54178282 -212.171549589,1285.40859382 -132.448983062,1352.68480854 -132.268645487,1355.3681242 "/>
  <polygon class="219722822" points="-315.870459014,1285.04906034 -318.722464369,1300.76672458 -293.79580399,1308.60801833 -291.277757109,1288.40461876 -315.870459014,1285.04906034 "/>
  <polygon class="326405397" points="-319.722464369,1289.28974793 -335.845979415,1287.50373258 -331.638102663,1285.04906034 -323.262424176,1285.90247697 -319.722464369,1289.28974793 "/>
  <polygon class="283424654" points="-398.768559363,1393.36444198 -356.315758353,1403.16255102 -336.845979415,1298.35613668 -340.365901714,1297.22455392 -339.330630449,1291.75962012 -374.122424101,1285.04906034 -375.157695366,1289.07539714 -378.891351086,1288.55785073 -398.768559363,1393.36444198 "/>
  <polygon class="170529939" points="-404.77125728,1285.04906034 -406.901912334,1286.4862477 -408.932379847,1287.8971447 -412.886448159,1291.00812755 -404.216886216,1301.93598935 -399.768559363,1298.16776346 -404.77125728,1285.04906034 "/>
  <polygon class="239436982" points="-452.118014077,1285.04906034 -471.233797037,1289.80923201 -457.755233091,1310.56248088 -413.886448159,1299.57547603 -416.705057666,1293.96340076 -448.564695931,1301.77112215 -452.118014077,1285.04906034 "/>
  <polygon class="329778920" points="-486.867857296,1345.17865235 -524.865652283,1352.23821891 -532.934088976,1306.83381664 -561.040034012,1311.33827236 -562.99035149,1299.8971236 -478.558970503,1285.04906034 -472.233797037,1319.66228659 -490.287592054,1322.29646582 -486.867857296,1345.17865235 "/>
  <polygon class="180522736" points="0.0,1419.71063522 -10.1523375599,1437.80210098 -29.0009537403,1427.08578633 -30.4636918494,1422.45549041 -22.8961928654,1409.42399383 -20.4850126952,1410.79203926 -15.5758231513,1403.16255102 -3.9607474817,1410.19571181 -5.0761687791,1411.90576831 -2.75181781221,1412.85287632 -4.98933957741,1416.79915801 0.0,1419.71063522 "/>
  <polygon class="266034075" points="-68.5846402233,1444.32372147 -37.6534065107,1427.22158052 -32.4636918494,1424.34925914 -44.178955061,1403.16255102 -80.3065826036,1423.13708639 -76.8601311678,1429.37362466 -73.4070005639,1435.61015622 -69.9939449761,1441.77641041 -68.5846402233,1444.32372147 "/>
  <polygon class="265512009" points="-107.488926838,1438.66375385 -81.3065826036,1424.15413464 -88.3330688618,1411.47136267 -92.9350166112,1403.16255102 -119.150756693,1417.75127054 -107.488926838,1438.66375385 "/>
  <polygon class="412123959" points="-120.150756693,1417.17672651 -144.990587869,1403.16255102 -156.899546994,1424.09610357 -132.053036649,1438.11022854 -120.150756693,1417.17672651 "/>
  <polygon class="265884364" points="-181.203169197,1409.52164793 -179.35971843,1412.83294286 -176.434242212,1418.08533785 -171.952519511,1426.1132367 -169.6816019,1430.19744793 -169.421114292,1430.65417675 -157.899546994,1424.27753652 -158.320334669,1423.53095973 -160.430952215,1419.73659147 -167.838151132,1406.45628303 -169.67492273,1403.16255102 -177.836867795,1407.66837593 -181.203169197,1409.52164793 "/>
  <polygon class="375468808" points="-182.690748567,1403.63705381 -221.530118904,1403.16255102 -221.616948107,1404.59484636 -225.918333232,1404.68271723 -226.218895857,1451.10471051 -236.611683517,1451.55284833 -236.845454448,1452.94998365 -299.850059848,1452.97634469 -299.943568219,1513.48340347 -295.688937282,1513.43946886 -295.902670704,1526.18049138 -217.275487966,1526.89223044 -187.473033891,1526.94495184 -187.412921366,1522.05064577 -182.203169197,1521.93641596 -182.690748567,1403.63705381 "/>
  <polygon class="182759598" points="-381.340730859,1421.35621338 -381.561143451,1429.01207547 -381.774876874,1436.41390052 -305.485403443,1439.28703244 -305.39857424,1435.19632285 -301.290885031,1435.3715139 -300.943568219,1420.13863256 -305.572232645,1420.0510368 -305.311745038,1415.00551922 -377.754016866,1403.16255102 -378.114692017,1406.60507311 -378.80264647,1413.26236195 -363.988248635,1415.76760288 -314.402094656,1424.14175705 -361.850914411,1422.17085365 -381.340730859,1421.35621338 "/>
  <polygon class="273839232" points="-388.692621004,1403.16255102 -382.774876874,1406.25158006 -393.334643771,1426.27757504 -399.252387901,1423.18855666 -388.692621004,1403.16255102 "/>
  <polygon class="299669470" points="-405.528931764,1403.16255102 -402.302892921,1407.80260065 -400.252387901,1410.82566128 -409.182437452,1416.31813659 -414.312039589,1419.4642241 -419.141079099,1412.20537157 -405.528931764,1403.16255102 "/>
  <polygon class="319650194" points="-420.141079099,1412.47878407 -432.604409287,1444.00986327 -458.606415948,1441.82350324 -443.838772299,1403.16255102 -420.141079099,1412.47878407 "/>
  <polygon class="324274225" points="-459.606415948,1409.85724492 -468.229223704,1416.97419749 -470.473424639,1411.22081501 -471.735787665,1407.98343519 -464.114855325,1403.16255102 -459.606415948,1409.85724492 "/>
  <polygon class="448157975" points="-576.216159916,1443.53578775 -563.786225574,1466.2965915 -472.735787665,1412.40728393 -478.693606812,1403.16255102 -532.941821064,1413.99485044 -573.624642171,1437.59779075 -571.233499509,1441.16760652 -576.216159916,1443.53578775 "/>
  <polygon class="252081019" points="-2.29763428923,1545.86864104 0.0,1530.56491198 -24.3322142981,1526.94495184 -24.5325893808,1528.29476775 -25.1938271552,1532.70357986 -21.7273382133,1533.22071665 -21.3666630624,1530.79280285 -14.3268184651,1531.84460679 -16.1235150458,1543.81762814 -2.29763428923,1545.86864104 "/>
  <polygon class="240194175" points="-38.9959195685,1526.94495184 -27.1938271552,1572.51712936 -57.6040856499,1580.28078701 -61.9121499434,1562.67202365 -68.2707192585,1534.16415667 -57.4638230918,1531.63480126 -38.9959195685,1526.94495184 "/>
  <polygon class="163806019" points="-73.5988210615,1540.60253393 -72.2162329864,1540.89218667 -69.2707192585,1527.24338265 -70.646628166,1526.94495184 -73.5988210615,1540.60253393 "/>
  <polygon class="236798985" points="-93.5676622922,1555.00822375 -100.407131806,1549.23256456 -81.438290575,1526.94495184 -74.5988210615,1532.71186888 -93.5676622922,1555.00822375 "/>
  <polygon class="108329317" points="-137.982263702,1526.94495184 -150.95321077,1533.56972484 -161.633202716,1542.61068266 -158.260222145,1566.79012345 -150.639289805,1591.14518489 -118.245317985,1668.97174742 -101.407131806,1701.87507671 -103.317374269,1670.23692562 -115.76734612,1579.73205738 -137.982263702,1526.94495184 "/>
  <polygon class="448157965" points="-394.73434102,1651.71177209 -378.757767702,1679.11187321 -166.360179268,1553.79306837 -166.360179268,1548.44275123 -162.633202716,1546.66223476 -169.746518178,1530.19900982 -172.99259453,1531.50589513 -177.761521515,1526.94495184 -394.73434102,1651.71177209 "/>
  <polygon class="257713567" points="-434.132886175,1578.88445056 -451.47868923,1556.56579426 -413.080144076,1526.94495184 -395.73434102,1549.26372212 -434.132886175,1578.88445056 "/>
  <polygon class="314364598" points="-452.59891428,1529.54228307 -452.47868923,1529.91082322 -456.018649037,1553.50611872 -474.059085715,1550.59290781 -471.233797039,1531.88514504 -470.338788333,1526.94495184 -465.456315468,1527.62938383 -458.423150039,1528.68235597 -452.59891428,1529.54228307 "/>
  <polygon class="438251675" points="-483.254426627,1526.94495184 -476.314769571,1526.94495184 -475.059085715,1568.05896932 -483.862231048,1567.69862969 -483.949060249,1554.17269423 -484.075964469,1534.23967911 -483.254426627,1526.94495184 "/>
  <polygon class="415445394" points="-488.769545174,1548.34087263 -500.705220978,1526.94495184 -507.150619495,1529.56128123 -499.275878715,1547.98968868 -516.581606754,1556.42687712 -515.980481504,1560.22843668 -521.697850552,1560.96592138 -521.123441979,1564.42507459 -519.326745398,1566.65508597 -500.230999946,1563.56467627 -485.075964469,1555.47868174 -488.769545174,1548.34087263 "/>
  <polygon class="443296707" points="-522.697850552,1546.21545926 -544.017759429,1570.31007025 -552.613850508,1602.24928455 -591.847291843,1599.75403974 -585.041218177,1571.37821567 -569.812711835,1540.68208974 -560.141274475,1526.94495184 -522.697850552,1546.21545926 "/>
  <polygon class="372749518" points="0.0,1716.05854172 -1.6230381757,1730.3385773 -38.6657119319,1725.38535862 -35.4797481062,1701.87507671 -15.4155230848,1704.72933717 -17.0252029214,1714.8992753 -9.85845410451,1715.83020138 -9.57124981843,1714.90805762 0.0,1716.05854172 "/>
  <polygon class="218403206" points="-106.435493483,1701.87507671 -51.7865290629,1708.80131189 -52.7416502932,1716.32447559 -40.6657119319,1717.71147553 -44.2257092476,1743.41480682 -76.4660601711,1739.69274677 -73.9880883053,1715.38517797 -107.343860528,1711.6894354 -106.435493483,1701.87507671 "/>
  <polygon class="180522737" points="-164.542392259,1701.87507671 -181.066657472,1729.13965824 -156.19343045,1752.71214917 -153.441612639,1749.8006711 -148.10495625,1752.71214917 -137.605301878,1732.99825705 -123.746025274,1739.85603317 -124.781296539,1742.42550474 -115.483892667,1747.65213965 -108.343860528,1734.36630511 -137.505114336,1717.51122902 -161.316353416,1703.73422883 -164.542392259,1701.87507671 "/>
  <polygon class="284698715" points="-182.94162867,1768.15848073 -228.106172474,1803.35010323 -249.893623212,1772.92622054 -250.327769226,1771.6969694 -249.312535471,1768.23750407 -248.731447729,1766.43752764 -248.664656034,1763.62780722 -249.386006334,1760.80930505 -251.630207269,1758.78981668 -253.800937339,1757.42007634 -257.200634588,1756.98983731 -270.518898467,1757.9995819 -273.925274885,1757.9995819 -275.661858941,1757.34983323 -288.472505942,1739.18318209 -289.70147312,1735.72369736 -300.267919187,1760.08931363 -303.741087299,1768.45701336 -320.245315004,1762.32831107 -321.113607032,1760.95857156 -322.783399394,1760.37906628 -324.012366573,1759.58883173 -302.772607729,1703.17458642 -294.764283562,1701.90141813 -293.508599705,1701.87507671 -288.545976806,1704.08775523 -280.738027721,1707.78433134 -272.475895114,1711.73553836 -263.385545497,1716.04674116 -251.436511354,1722.62329486 -252.177899163,1723.79987378 -246.266834202,1726.85546566 -245.652350613,1725.73156998 -236.415059268,1729.89349508 -241.611453097,1742.22998546 -230.891386133,1747.9109085 -226.489813468,1739.91195653 -222.655970205,1741.79974531 -220.351656746,1736.3471072 -202.544990998,1744.45142898 -194.810512779,1748.3762698 -192.559632674,1750.15869104 -182.066657472,1761.3800299 -185.907179904,1764.63755065 -182.94162867,1768.15848073 "/>
  <polygon class="346383188" points="-361.033127403,1709.03696333 -347.975351133,1701.87507671 -325.012366573,1743.41213594 -338.063463673,1750.57397111 -361.033127403,1709.03696333 "/>
  <polygon class="287650135" points="-434.775961857,1752.56767743 -441.468489644,1726.91351158 -417.757438105,1715.26528622 -369.914547351,1701.87507671 -362.033127403,1726.86072511 -434.775961857,1752.56767743 "/>
  <polygon class="230255295" points="-8.32224513162,1810.16449671 -60.7203294486,1852.22587844 -62.8910595194,1853.30459627 -65.7430648729,1853.97989108 -68.7954453103,1853.16427527 -107.788436546,1803.35010323 -180.471158474,1859.04898462 -137.524098927,1908.16108045 -129.782941537,1914.79995153 -116.444640149,1914.46669266 -106.272265081,1913.30028646 -97.3689322075,1910.73068402 -90.7231586063,1907.24900245 -12.8106470006,1845.42030439 -9.90520829055,1842.92083254 -7.52742396835,1840.15825714 -5.94446080886,1837.1325778 -4.09433087166,1833.58069136 -2.37778432444,1829.37104535 -1.05530877337,1824.63518995 0.0,1819.76777897 -8.32224513162,1810.16449671 "/>
  <polygon class="182759612" points="-212.367120922,1808.75476303 -215.359388834,1812.14471727 -182.471158474,1813.40609509 -192.797154441,1803.88443773 -198.127131659,1803.44645863 -207.230839617,1803.35010323 -212.367120922,1808.75476303 "/>
  <polygon class="299669466" points="-223.292366721,1803.35010323 -225.676830214,1805.02858809 -230.853186535,1808.83373785 -224.50797556,1818.24554094 -220.066327878,1815.74978885 -216.359388834,1813.44736873 -223.292366721,1803.35010323 "/>
  <polygon class="180522744" points="-239.066689539,1830.19332927 -264.594475168,1817.19704911 -256.926788642,1803.35010323 -231.853186535,1817.83721744 -239.066689539,1830.19332927 "/>
  <polygon class="377339429" points="-275.927150303,1803.35010323 -301.889081946,1819.33793848 -291.556406811,1835.99335069 -265.594475168,1820.0055614 -275.927150303,1803.35010323 "/>
  <polygon class="422898042" points="-328.21649249,1803.35010323 -324.689891023,1804.96515231 -320.368468391,1806.95763072 -318.157663303,1807.98459069 -316.173949977,1808.89744384 -313.909711535,1809.92440347 -311.812452327,1810.86358861 -309.695155613,1811.81155103 -307.831667337,1812.64540673 -305.747766469,1813.575814 -303.784090651,1814.45355658 -302.889081946,1814.86609554 -304.852757764,1819.10559 -305.747766469,1821.08928614 -307.771554812,1825.57454348 -308.118871623,1825.41655013 -312.420256747,1823.46796512 -314.377253396,1822.5814465 -316.407720908,1821.65104067 -318.618525995,1820.65041537 -320.615597659,1819.74634148 -322.879836103,1818.71938359 -324.863549428,1817.83286425 -327.01424199,1816.85857055 -329.144897044,1815.89305411 -331.24883542,1814.93631494 -333.145719544,1814.07612729 -331.168685387,1809.75763226 -330.266997512,1807.79148712 -328.21649249,1803.35010323 "/>
  <polygon class="282431894" points="-348.879967345,1803.35010323 -355.585853471,1805.65729412 -362.345172951,1807.98202927 -347.61092515,1850.52890423 -340.824888991,1848.20418612 -334.145719544,1845.90578467 -348.879967345,1803.35010323 "/>
  <polygon class="285497395" points="-371.760926455,1803.35010323 -368.020591564,1803.42038931 -365.275452922,1803.47310386 -363.345172951,1824.13717338 -372.028093232,1824.0493161 -372.048130742,1822.77538535 -372.074847418,1821.15881076 -371.994697385,1816.5990137 -371.914547351,1812.11828477 -371.834397318,1807.71662415 -371.760926455,1803.35010323 "/>
  <polygon class="236031432" points="-399.551075108,1803.35010323 -390.607667219,1836.55607022 -380.642346403,1833.9006515 -373.074847418,1862.00596243 -403.097714085,1870.01599497 -410.498233833,1842.53294886 -399.971862784,1839.71978534 -409.075570741,1805.89160648 -399.551075108,1803.35010323 "/>
  <polygon class="281336888" points="-459.761912261,1803.35010323 -463.836205624,1804.50937813 -467.696765565,1806.5205439 -466.928661079,1809.928107 -482.885196889,1814.43346442 -474.369255843,1847.78002634 -411.498233833,1831.71714227 -418.137328263,1804.93971497 -456.836436043,1814.74962972 -459.788628938,1803.42036232 -459.761912261,1803.35010323 "/>
  <polygon class="294248636" points="-492.441212951,1838.53803709 -486.77727726,1835.10722296 -483.885196889,1833.35662727 -486.750560582,1829.66190096 -497.677681798,1815.19966387 -506.627768858,1803.35010323 -508.397748762,1804.49371445 -513.49395505,1807.78379468 -492.441212951,1838.53803709 "/>
  <polygon class="280532171" points="-74.3792309683,1947.8818903 -73.6044473117,1947.40766155 -69.5635497959,1954.56499862 -61.141117123,1969.48560292 -58.9369912047,1968.24734352 -59.8119624032,1966.6929324 -50.6548210904,1961.52034101 -51.2225504939,1960.51041176 0.0,1932.1269369 -8.00832416788,1917.67168558 -29.2881580275,1914.79995153 -49.1520079644,1926.01463576 -51.169117138,1922.44034173 -79.6624540005,1938.52903851 -74.3792309683,1947.8818903 "/>
  <polygon class="109864793" points="-140.259502163,1914.79995153 -161.050770038,1919.61009199 -162.406708382,1919.92762302 -177.809909901,1935.31076955 -193.854074527,1950.64247885 -192.900893974,1950.6003159 -191.868442459,1950.93353842 -191.205832771,1951.53169913 -190.670302091,1952.24132973 -190.527842759,1953.05415745 -191.034760925,1953.78973813 -212.954969118,1975.57591171 -219.548909141,1981.33226069 -220.706729913,1981.2132091 -221.684744465,1980.92859866 -222.24723311,1980.03882961 -222.614791341,1978.93242844 -222.438267672,1976.78674656 -224.148466771,1980.43125577 -224.756160072,1983.5448367 -224.999553902,1986.33471406 -224.506195653,1989.79003556 -222.031812207,1997.99147233 -212.292529367,2028.1469756 -204.585411877,2057.6878197 -204.588850104,2062.55720951 -204.147387269,2066.11793399 -205.129780843,2076.88850754 -206.138845214,2086.74192284 -207.564587546,2104.06093301 -210.012873457,2121.29988512 -212.320756735,2132.71114502 -218.500232442,2151.38518044 -224.975386063,2164.76666934 -230.800109516,2174.78969134 -235.142886025,2181.09463483 -260.383982777,2212.9396436 -283.946212741,2243.57799288 -285.325829199,2246.24548486 -286.305668062,2248.73289105 -287.214208644,2252.42054171 -287.483189231,2255.86992021 -286.924309878,2261.69130627 -286.029750012,2264.64380597 -284.280436873,2267.94842683 -281.7727666,2271.91516895 -279.050458905,2275.6839528 -276.375025439,2279.37858896 -273.765229246,2282.41941656 -270.875817588,2285.19007715 -267.628800757,2288.26392241 -165.723955147,2366.37687044 -161.399899704,2365.05463686 -158.29022974,2362.06142662 -124.557286556,2340.06181678 -117.844937627,2335.45523831 -106.019356184,2326.41243438 -98.234686514,2319.11475391 -94.9029376596,2314.86039445 -92.1069799501,2311.73342774 -87.7726821035,2304.91508992 -86.4814572848,2302.28277003 -84.4933058713,2296.61552452 -83.2287474841,2291.96609198 -82.087033597,2286.03487689 -81.6624540005,2278.96926753 -81.901820454,2272.66583563 -82.5148348507,2268.32126145 -83.5908362776,2262.06935553 -85.705727878,2252.07416171 -87.8270924591,2243.68117194 -90.3085698256,2232.56861569 -90.9835628882,2224.83861657 -90.9711453959,2218.03349914 -90.0511859449,2209.81407137 -85.0449629961,2194.13396303 -83.1032431412,2185.88085843 -82.3452732198,2179.51761426 -81.7704079267,2173.60220127 -82.0905025477,2165.53362763 -82.9735752858,2153.52461794 -84.9111516519,2140.88501197 -134.911096955,1917.572992 -140.259502163,1914.79995153 "/>
  <polygon class="371149489" points="-298.368360015,1914.79995153 -288.483189231,1930.22579773 -334.162029083,1960.58570983 -345.610125517,1942.93870103 -348.682543464,1938.19770444 -347.072863625,1937.20560652 -337.154296997,1930.77013532 -326.460946711,1924.29075874 -322.480161721,1930.43650906 -298.368360015,1914.79995153 "/>
  <polygon class="300089557" points="-399.849785185,1991.28404844 -393.591403412,2016.41532121 -376.532804643,1998.63891123 -371.717123471,1993.95534975 -384.79493725,1981.1084881 -351.29890247,1947.9103785 -349.682543464,1928.46417668 -357.563963411,1921.50465253 -359.180322418,1920.60834957 -360.436006273,1919.00027626 -363.448311695,1914.79995153 -369.032097353,1917.75248137 -375.537608395,1919.94930319 -370.5081938,1943.80673448 -370.334535396,1946.48684493 -371.316373304,1947.73463363 -372.478548788,1948.80667723 -394.653391355,1966.47779358 -390.352006231,1988.42821509 -393.684911784,1989.42995372 -399.849785185,1991.28404844 "/>
  <polygon class="307958492" points="-400.849785185,1918.55116809 -402.365956649,1929.87508346 -405.632070509,1953.10265751 -407.709292207,1964.54949504 -413.927598963,1963.67978216 -414.021107335,1964.32987059 -416.712812623,1963.95211651 -417.026733586,1966.20985563 -418.395963323,1966.28013543 -439.455384592,1963.2756731 -436.44975834,1942.19168312 -436.182591562,1940.21505512 -436.008933157,1938.88851773 -433.076777769,1939.35412361 -431.533889627,1929.71695291 -428.975767728,1914.79995153 -400.849785185,1918.55116809 "/>
  <polygon class="185021232" points="-469.456338333,1982.9830131 -440.455384592,1944.47684996 -481.017980647,1914.79995153 -523.323839928,1942.73373053 -469.456338333,1982.9830131 "/>
  <polygon class="444095697" points="-526.173969864,1917.56814064 -537.702216331,1914.79995153 -542.123826506,1914.89631256 -542.123826506,1919.40775926 -546.845999305,1919.63552153 -545.897557244,1939.2055228 -539.759400521,1939.50336475 -538.830995968,1959.28353982 -528.130966513,1958.7666982 -528.231154055,1955.07872524 -524.323839928,1954.97360484 -526.173969864,1917.56814064 "/>
  <polygon class="301013827" points="-50.1605625506,2368.590751 -50.1138083646,2367.36081746 -10.0721875269,2371.64801325 -6.57898190562,2366.37687044 0.0,2368.590751 -6.09140253626,2378.85190066 -9.22393300775,2377.64832497 -10.0321125096,2380.64408589 -36.9959195707,2377.47262047 -41.3841338966,2376.89279558 -43.1273971226,2376.62045356 -44.3430059619,2376.18119222 -45.1445062961,2375.28509899 -46.0395150024,2373.41384501 -47.3887072312,2370.91005354 -48.5976369012,2369.66255002 -50.1605625506,2368.590751 "/>
  <polygon class="295447822" points="-63.6821298482,2369.23074372 -52.1605625506,2419.94164238 -52.7015752759,2419.65186708 -60.6230702415,2417.33366413 -61.2776288467,2417.31610198 -62.0123374859,2417.5092856 -62.3730126368,2418.1854282 -73.7142423578,2366.37687044 -63.6821298482,2369.23074372 "/>
  <polygon class="157929611" points="-83.2502209123,2366.37687044 -143.108937502,2366.42948966 -143.088899994,2389.26618797 -151.143978348,2389.2749578 -151.137299178,2394.79995196 -74.7142423578,2394.72979333 -74.7209215282,2388.68737875 -83.2301834039,2388.69614859 -83.2502209123,2366.37687044 "/>
  <polygon class="185515256" points="-172.929553669,2424.71810578 -213.311812149,2391.29771007 -192.519557659,2366.37687044 -152.143978348,2399.79740942 -172.929553669,2424.71810578 "/>
  <polygon class="185148208" points="-240.180235419,2366.37687044 -233.113674144,2367.44577332 -214.311812149,2370.29325955 -221.632181863,2418.32357091 -229.53363932,2417.13201745 -241.455956784,2415.31840254 -247.500605134,2414.40721415 -240.180235419,2366.37687044 "/>
  <polygon class="448157972" points="-251.285818794,2366.37687044 -248.500605134,2370.54296886 -279.358367982,2389.180741 -281.542456391,2384.61997405 -251.285818794,2366.37687044 "/>
  <polygon class="241824860" points="-369.531959277,2379.46279179 -342.461285506,2366.37687044 -282.542456391,2487.84779656 -299.100117452,2495.17506179 -301.204055828,2499.89045008 -294.631753093,2510.88132169 -304.877599024,2528.16517023 -366.900366515,2490.46843435 -342.988939892,2450.15079913 -353.234785826,2432.86671854 -346.669162258,2428.94010483 -365.324082525,2393.86340661 -362.171514546,2392.29450387 -369.531959277,2379.46279179 "/>
  <polygon class="438314978" points="-393.047439484,2366.37687044 -370.531959277,2408.55288987 -400.494713418,2424.43363274 -408.69005433,2409.08019803 -424.53304426,2417.47317969 -426.369815858,2414.02810387 -441.351192929,2421.97286747 -446.988411943,2411.41793027 -472.4226892,2424.89063189 -479.268837884,2412.0594882 -393.047439484,2366.37687044 "/>
  <polygon class="325936165" points="-480.268837884,2399.87191986 -486.988082348,2459.4357516 -502.897863972,2458.49656831 -497.180494925,2404.15533991 -534.423543765,2400.16157747 -518.807645596,2372.59137536 -483.561668421,2366.37687044 -480.596117187,2387.0391958 -480.268837884,2399.87191986 "/>
  <polygon class="299674963" points="-535.423543765,2375.12058692 -540.706766798,2370.66524761 -544.647476771,2366.37687044 -544.086426537,2390.16502096 -544.620760094,2409.43625116 -546.771452656,2433.88329176 -548.140682393,2444.9028802 -544.981435243,2447.62701765 -541.15427115,2451.06294403 -539.270745366,2441.87117734 -536.138214895,2409.91956892 -535.423543765,2391.98405911 -535.423543765,2375.12058692 "/>
  <polygon class="286996651" points="-583.625234251,2390.58667558 -589.770070142,2377.06544153 -564.182171989,2366.37687044 -561.062999856,2372.58768041 -555.839889349,2370.85463637 -550.997491499,2381.55199634 -549.140682393,2385.6514728 -555.746380975,2388.39618502 -553.422030009,2394.28147704 -562.372117069,2398.31936451 -554.604243001,2415.54413386 -558.451444603,2417.2771645 -557.128969052,2420.2066009 -561.523862549,2421.83406493 -576.471843772,2387.84196439 -583.625234251,2390.58667558 "/>
  <polygon class="185622703" points="-5.27654386517,2545.78347201 -18.7551078105,2534.31843394 -13.4785639465,2528.16517023 0.0,2539.63022045 -2.4045010021,2542.43512225 -5.27654386517,2545.78347201 "/>
  <polygon class="445183605" points="-20.7551078105,2528.70916493 -22.351429308,2539.94001172 -22.7388211371,2542.5020456 -24.502121871,2542.23882299 -26.5860227378,2541.92295584 -25.9314641327,2537.63242544 -24.5154802095,2528.16517023 -22.0642250219,2528.52490866 -20.7551078105,2528.70916493 "/>
  <polygon class="218731115" points="-27.5860227378,2535.77013566 -32.6221165007,2568.7219504 -82.8160748994,2561.10826665 -77.7866603063,2528.16517023 -27.5860227378,2535.77013566 "/>
  <polygon class="270200279" points="-114.573650206,2548.93223391 -104.668441915,2528.16517023 -84.2769375917,2538.25906085 -86.5812510507,2541.35744288 -83.8160748994,2543.77119544 -92.8930661792,2561.62415591 -97.1810929637,2570.05031285 -119.295823004,2559.83359598 -114.573650206,2548.93223391 "/>
  <polygon class="244091365" points="-175.49915849,2528.16517023 -120.295823004,2536.1713935 -122.66692816,2552.39403531 -177.870263643,2544.38783437 -175.49915849,2528.16517023 "/>
  <polygon class="241796737" points="-178.870263643,2528.16517023 -178.870263643,2580.49259333 -217.562692253,2580.49259333 -217.562692253,2528.16517023 -178.870263643,2528.16517023 "/>
  <polygon class="299669478" points="-240.196522093,2532.69975243 -235.921853646,2530.13367147 -232.02121869,2528.16517023 -229.763659416,2532.80520778 -218.562692253,2552.41108297 -224.901224058,2555.92624856 -232.428648026,2544.67771118 -230.458293039,2543.44740107 -232.608985601,2540.06404695 -234.579340587,2541.31193363 -240.196522093,2532.69975243 "/>
  <polygon class="33406920" points="-244.382485919,2528.16517023 -361.829001485,2533.79956788 -358.649716829,2599.74443189 -241.196522093,2594.11887452 -244.382485919,2528.16517023 "/>
  <polygon class="185632361" points="-381.183359127,2528.16517023 -383.140355776,2530.53165406 -387.394986714,2535.66779712 -369.040629071,2550.7431396 -362.829001485,2543.24929692 -364.625698067,2541.76805669 -381.183359127,2528.16517023 "/>
  <polygon class="201149342" points="-402.240904979,2561.22119349 -396.222973306,2528.16517023 -390.525641768,2529.19132184 -388.394986714,2529.57722496 -390.832883563,2542.96980142 -391.808042302,2542.79439132 -395.388077126,2562.45783066 -402.240904979,2561.22119349 "/>
  <polygon class="185021224" points="-439.328457505,2567.84906294 -409.906716088,2561.81937232 -403.240904979,2560.46093825 -409.906716088,2528.16517023 -422.410121294,2530.73306283 -424.600888873,2531.18003378 -426.798335622,2531.6270047 -422.5837797,2551.52155774 -441.572658439,2555.51798837 -440.48395382,2561.49510099 -439.328457505,2567.84906294 "/>
  <polygon class="370925179" points="-482.133379077,2528.16517023 -474.61263428,2582.60297363 -446.513368413,2579.57329806 -442.572658439,2604.55709715 -490.07491155,2611.87219263 -502.444733368,2531.27390837 -482.133379077,2528.16517023 "/>
  <polygon class="251110316" points="-519.23428994,2587.53927164 -548.996669,2543.59162634 -525.359088325,2528.16517023 -507.064843207,2555.82758171 -503.444733368,2561.28817526 -522.473687124,2573.71692282 -515.180034086,2584.88348998 -519.23428994,2587.53927164 "/>
  <polygon class="354586623" points="-9.02355792448,2611.87219263 0.0,2651.65879515 -8.14858672656,2653.98728705 -17.1921821583,2655.56890366 -22.1347675502,2655.40195526 -28.1927742379,2654.78688217 -32.8281178348,2653.45129466 -38.0846241899,2651.5006334 -42.2791426035,2648.97883161 -47.8161740759,2645.59592505 -41.5310756257,2635.68443678 -39.7744540611,2633.66347521 -33.6296181696,2637.12546982 -32.9149470381,2637.74054478 -18.4077909976,2629.77971231 -16.9650903968,2629.1382761 -14.4737601925,2632.32788283 -10.907083708,2631.61615256 -14.2934226181,2612.97933236 -9.02355792448,2611.87219263 "/>
  <polygon class="274454577" points="-94.1992550557,2701.08587218 -77.3811063858,2699.36652613 -77.5146897763,2698.69106861 -77.280918845,2697.94543359 -76.5328518666,2697.43664729 -65.6257681586,2695.20851366 -64.5036676913,2695.06815875 -62.9407420414,2695.10324748 -61.5848706428,2695.3751851 -60.950349546,2695.76116106 -60.52956187,2696.15590917 -60.0553408397,2696.8664557 -59.8816824347,2697.43664729 -59.2471613362,2695.60326181 -58.1384192081,2692.39264276 -57.1632604694,2689.58554269 -57.6174439913,2690.03292436 -58.1718150556,2690.3925841 -58.786298644,2690.59434444 -59.5544031313,2690.54171131 -60.2223200761,2690.33117878 -60.7299369538,2689.94520247 -60.9236328684,2689.63817583 -61.0171412399,2689.01535032 -61.0371787483,2688.30480283 -50.5375243766,2658.48804639 -50.3371492933,2657.26870535 -49.8161740759,2654.49667726 -49.8629282625,2652.1281712 -49.8629282625,2649.75089192 -49.89632411,2648.09293643 -50.1968867347,2646.26830761 -51.0852162717,2643.28574004 -51.5460789628,2642.04007901 -52.0870916886,2640.85582356 -53.4963964414,2638.24168845 -53.6633756783,2637.63640197 -53.5631881364,2636.92584819 -50.3705451408,2634.92577042 -52.0870916886,2632.10987028 -54.431480165,2629.06588946 -56.8827353515,2626.62719474 -59.5610823005,2624.11832069 -61.9789416401,2622.36386267 -63.8758257644,2621.24100926 -66.6677185928,2620.05674957 -76.4126268174,2616.10044321 -83.6528464986,2612.95118633 -86.7453019528,2612.14413415 -88.5419985335,2611.87219263 -89.8310782371,2612.23185722 -92.7431961158,2612.47748181 -96.4902101763,2613.62665383 -98.9414653633,2615.25830226 -102.25433341,2618.03034909 -104.224688396,2620.47781971 -106.482247669,2624.16218214 -107.584310628,2627.89040365 -107.80472322,2631.47826632 -107.657781492,2634.2152163 -107.517518934,2636.74163053 -94.1992550557,2701.08587218 "/>
  <polygon class="330741659" points="-124.814692387,2611.87219263 -108.80472322,2640.53300199 -121.01424497,2647.2984084 -137.024214136,2618.6464188 -124.814692387,2611.87219263 "/>
  <polygon class="300398882" points="-142.038394974,2632.25190349 -139.974531615,2630.37124323 -138.024214136,2628.58725185 -153.372945527,2611.87219263 -155.617146461,2613.91983392 -157.393805534,2615.5280667 -151.576248945,2622.14554442 -142.038394974,2632.25190349 "/>
  <polygon class="275609077" points="-243.633366025,2616.07149123 -239.665939373,2616.19448319 -239.418810103,2611.87219263 -219.100776643,2613.10211304 -219.154209999,2615.63223419 -219.534922658,2633.0707128 -219.548280997,2633.78230703 -219.574997675,2634.81895033 -219.595035183,2635.93465943 -208.387388849,2636.20699784 -205.314970904,2638.93038123 -200.793173187,2638.93038123 -200.793173187,2642.91881782 -196.665446469,2643.09451981 -194.821995702,2643.17358571 -190.761060678,2644.82518412 -190.85456905,2647.53977837 -186.513108909,2648.27772611 -186.766917348,2651.98503352 -176.681371482,2652.84597187 -176.981934108,2658.31029188 -170.242652134,2656.9486049 -158.393805534,2663.59012031 -161.626523547,2678.45443674 -165.720854418,2680.66826783 -169.133910006,2681.51163184 -173.261636725,2680.73854817 -173.508765995,2695.67310075 -176.601221449,2695.55011048 -177.963772016,2700.11831897 -222.199911267,2690.24395609 -273.175332491,2683.46191063 -274.344187145,2682.1090146 -271.512219299,2662.59740751 -244.995916593,2663.83610222 -243.633366025,2616.07149123 "/>
  <polygon class="323407714" points="-298.053363266,2611.87219263 -275.344187145,2652.20763665 -302.020789918,2667.19833431 -325.224224579,2626.90690434 -298.053363266,2611.87219263 "/>
</svg>