<svg xmlns="http://www.w3.org/2000/svg" version="1.1" width="592.5px" height="1200px">
  <polygon id="4" class="bin" points="-146.2500005,1203.749999 -147.348350071,1206.40164943 -150.0000005,1207.499999 -446.2499995,1207.499999 -448.901649929,1206.40164943 -449.9999995,1203.749999 -449.9999995,3.75 -448.901649929,1.09834957055 -446.2499995,0.0 -180.416599389,0.0 -177.886192329,0.982412583408 -176.681600595,3.41491194215 -176.120579731,9.66823014129 -172.152025903,54.2344875345 -171.312562951,63.6685310111 -171.310147564,63.6968946026 -170.830510053,69.593869213 -170.830056533,69.5994975143 -169.7136263,83.5862268876 -168.50288444,98.7294884045 -167.301776125,113.748234401 -166.715274404,121.036619006 -166.713983811,121.053111972 -166.213645163,127.633731534 -165.029738829,143.341364586 -164.873698667,145.378555162 -165.367243285,147.543569453 -168.803019204,153.479217317 -178.564200467,170.358503717 -186.933642354,184.823875285 -190.744918323,191.412262179 -191.521674601,192.35679496 -195.001924815,195.40169189 -196.919109224,196.288541261 -198.743319839,196.560052523 -202.436544606,198.714664505 -203.626145422,202.82162346 -202.13757361,217.896055535 -200.713321579,232.248452516 -199.199359819,247.538830242 -198.759310947,251.966363539 -196.557731196,256.337241856 -187.107572221,264.908472513 -177.32205119,273.777518009 -176.411802419,274.473574323 -169.13894228,279.128703742 -156.913732188,286.950055782 -156.34234682,287.278126303 -148.290772869,291.401168756 -146.2500005,294.738988539 -146.2500005,296.971624102 -147.275872793,299.548759767 -149.792202225,300.715862326 -153.499231812,300.921595591 -153.757348888,300.927019754 -161.548527539,300.822465603 -162.706432684,300.622830666 -168.598413816,298.617541188 -168.954895898,298.475474278 -173.080742049,296.581163512 -178.292219255,296.843882768 -181.058886469,301.268141869 -186.097417847,365.690304558 -186.105296446,365.802928251 -190.374717896,434.989870381 -190.38249927,435.144144921 -195.79807687,573.362769751 -195.803347719,573.63079736 -195.830047073,736.076648709 -195.155485263,739.042272339 -191.319491188,747.03486089 -189.266949784,749.540862949 -185.907791407,752.072170349 -181.770949066,753.446334533 -168.743866946,753.38963116 -164.619979572,751.980154115 -154.770423456,744.425114462 -152.111039566,743.669601224 -149.656591467,744.941924871 -148.741098613,747.550563551 -149.862141407,750.077693541 -212.635941168,811.652347781 -212.803952441,811.481064546 -214.007057289,812.259975721 -213.846210516,812.595237017 -221.077586829,816.06460122 -223.723066879,818.629734567 -224.293821104,822.270162206 -223.028424145,829.770682836 -222.97669432,830.331820205 -222.944698458,832.245134337 -222.920676031,832.715742361 -222.697625779,835.324863448 -222.685491403,835.538435909 -222.51863389,841.447707585 -222.518455271,841.652870224 -224.336753189,910.283375941 -224.128131975,912.154415355 -223.985044997,912.718149059 -223.129332613,914.704391326 -222.407578263,915.842897194 -222.368267115,915.869552716 -221.135113969,917.719331958 -216.084349645,922.823989534 -213.1224852,924.08303716 -211.097121402,926.168268234 -211.170369122,929.074283017 -213.017553843,933.175149174 -212.165149093,935.505561068 -212.207660391,935.979100283 -210.179021836,941.92380783 -201.8270169,950.743800499 -201.399622968,951.287991743 -200.789600119,952.232697122 -200.731910191,952.324947782 -199.521484716,954.324463449 -199.445571138,954.455790197 -198.329357732,956.480210825 -198.292003715,956.549675744 -197.75143232,957.580793417 -197.606159092,957.891717118 -196.867761422,959.681362696 -190.919385183,963.829493537 -178.528917378,964.305735888 -178.396193291,964.30955414 -167.037992544,964.526562443 -166.558973365,964.519017997 -164.816333485,964.43076422 -163.59916802,964.259031561 -162.042011624,963.894871195 -161.039887889,963.577971194 -158.881462656,962.70879723 -157.825704416,962.173766518 -155.972586844,961.02409965 -154.9724539,960.269156192 -153.484914654,958.916602806 -150.607485988,957.957959044 -147.962045375,959.44127882 -146.999904366,960.724247699 -146.2500005,962.974119515 -146.2500005,1203.749999 " mydata_rot="0" mydata_centroid="-314.9893153232907,610.3539714449247"/>
  <polygon id="296322568" class="tile" points="106.372390435,1299.19707931 64.4493439596,1252.42846121 85.354153515,1234.09491282 58.5647670109,1202.00875588 52.3170426678,1201.0 1.06951249763,1245.03663501 22.5622338969,1270.61234883 16.7670481658,1275.6524445 11.6799979335,1280.46287855 43.3230138222,1317.80911061 1.0,1353.65388004 19.0949607721,1373.33814086 31.6328996712,1368.00943217 46.6699492417,1355.86986644 64.9719812704,1339.89593808 77.1753268354,1324.81555456 106.372390435,1299.19707931 " mydata_rot="17.3" mydata_centroid="49.141227809611436,1284.1007696703005"/>
  <polygon id="358906395" class="tile" points="126.094283962,1225.94450593 128.158017224,1204.05116201 107.372390435,1201.0 107.406794257,1227.51324253 126.094283962,1225.94450593 " mydata_rot="30.8" mydata_centroid="116.959573153,1214.3818171109397"/>
  <polygon id="299606243" class="tile" points="129.165166636,1201.13934782 145.962563157,1201.05074106 148.931928404,1201.0 148.986629313,1221.93363216 146.308225832,1222.10305998 142.644470103,1222.08013182 130.978938791,1222.15729682 129.158017224,1222.13849814 129.226778368,1204.23278921 129.196744741,1202.78200345 129.165166636,1201.13934782 " mydata_rot="56.2" mydata_centroid="139.075233229,1211.6030196734428"/>
  <polygon id="220953323" class="tile" points="150.241489093,1201.10563672 149.986629313,1250.24998826 169.317496871,1250.41944371 169.307240867,1244.08737635 165.634730503,1244.04633932 165.947657805,1201.0 150.241489093,1201.10563672 " mydata_rot="47.5" mydata_centroid="158.228431018,1226.295597583769"/>
  <polygon id="185605917" class="tile" points="190.728575405,1219.94352976 194.429095369,1219.92844622 194.434048815,1201.0 170.339834091,1201.08494441 170.317496871,1249.31814432 193.712461773,1249.23964072 193.717116308,1233.17418995 190.555358483,1233.19456163 182.545209028,1233.22060232 182.549069313,1219.96486088 190.728575405,1219.94352976 " mydata_rot="-49.3" mydata_centroid="181.276696512,1224.7540920042284"/>
  <polygon id="224707884" class="tile" points="200.149687783,1203.61791031 200.315112605,1313.64001578 195.434048815,1311.88215778 196.127758356,1201.0 200.149687783,1203.61791031 " mydata_rot="-94.2" mydata_centroid="197.998117128,1259.3030025600813"/>
  <polygon id="286271801" class="tile" points="201.371371853,1201.39081067 211.472122462,1201.0 213.284877204,1253.76123904 201.315112605,1255.30774733 201.784264839,1242.6382598 202.317047976,1225.58572824 202.047028558,1212.23413072 201.371371853,1201.39081067 " mydata_rot="-31.5" mydata_centroid="207.131539648,1228.7525288142547"/>
  <polygon id="220792578" class="tile" points="214.284877204,1242.18389496 219.784381816,1249.11998509 226.673918528,1246.1683615 227.907990935,1238.28026859 228.316272291,1227.68029108 228.74912595,1217.30759286 224.952832943,1220.30802524 222.514869914,1201.0 218.625362081,1201.56117327 216.83346103,1203.15568989 214.288672875,1201.56609561 214.756578094,1207.41726507 215.25262705,1213.66738095 215.895058043,1220.54318453 215.830306089,1228.72639189 215.27414002,1235.18194399 214.284877204,1242.18389496 " mydata_rot="21.7" mydata_centroid="221.062511623,1226.296650368407"/>
  <polygon id="181963437" class="tile" points="241.591765596,1201.0 246.004956806,1201.14534646 245.989467378,1220.87717924 244.640936679,1220.82537526 231.831912541,1220.2947152 231.71894252,1210.85512352 229.74912595,1209.35699227 234.124795172,1203.40222844 237.817699683,1206.13178445 241.591765596,1201.0 " mydata_rot="40.3" mydata_centroid="239.15509125,1211.8084867370512"/>
  <polygon id="374848394" class="tile" points="260.865050098,1215.04944883 260.886919783,1201.0 248.580720525,1201.02763889 247.004956806,1201.03529048 247.031349231,1206.48299833 247.015666947,1215.07329204 260.865050098,1215.04944883 " mydata_rot="-34.1" mydata_centroid="253.949408949,1208.0362500775452"/>
  <polygon id="415563735" class="tile" points="264.004775988,1323.00384467 266.83149524,1321.58911099 269.160543641,1318.47580773 269.784495399,1312.91411433 269.973077668,1289.97158987 269.756617386,1258.49432042 268.283745335,1240.33722941 265.645998837,1225.30942146 261.985810458,1201.0 279.723097268,1202.94644571 278.627800564,1224.88213167 283.076997891,1248.82816893 284.82537687,1271.40037257 285.536446739,1286.76245342 285.287368116,1299.12635514 282.601112411,1306.63083026 280.409265747,1315.43683172 278.083306934,1319.57181369 272.241481725,1328.57380268 261.886919783,1324.65293152 264.004775988,1323.00384467 " mydata_rot="36.8" mydata_centroid="275.014606041,1262.4364708681671"/>
  <polygon id="185631121" class="tile" points="293.753326647,1214.6686388 288.673808668,1214.73138238 286.536446739,1214.75757571 286.559361156,1201.22771656 293.629442034,1201.0 293.753326647,1214.6686388 " mydata_rot="-50.4" mydata_centroid="290.125944544,1207.9365869992612"/>
  <polygon id="76090449" class="tile" points="313.317283327,1201.10833351 353.586040257,1201.0 356.274843347,1202.73529684 358.811591055,1207.04183987 359.996301489,1236.58365313 359.507326723,1687.56026349 353.116895856,1688.01584476 348.219124073,1686.75480084 346.032021781,1678.10686411 344.191199032,1665.09865961 343.568887774,1641.44658453 341.570004665,1475.68593517 340.016378808,1452.57155041 337.84908269,1441.83848911 333.651328219,1431.88273116 326.092292458,1419.76067117 317.377073015,1407.08391331 307.450221876,1393.04768931 302.813983235,1383.76880542 298.396272491,1370.62341075 295.34223564,1356.26621365 295.256693497,1340.5791143 294.753326647,1254.30345982 296.795641102,1239.425679 299.348706708,1229.63931918 303.388645655,1218.13967186 307.896776684,1208.85612943 313.317283327,1201.10833351 " mydata_rot="-30.5" mydata_centroid="335.064510746,1370.4170083284175"/>
  <polygon id="275609108" class="tile" points="361.036726939,1325.83019847 363.483295124,1326.7467541 368.740243356,1328.72361792 368.835138538,1326.27028784 369.974996759,1241.22245325 366.647804265,1240.83465706 366.673632096,1201.0 360.996301489,1201.57977005 362.092609364,1239.50182473 362.463342956,1281.1256552 361.036726939,1325.83019847 " mydata_rot="-59.6" mydata_centroid="365.324979033,1268.8287772171125"/>
  <polygon id="246731436" class="tile" points="370.978871864,1201.03070197 370.974996759,1219.1580956 387.740173153,1219.12738918 387.744062453,1201.0 370.978871864,1201.03070197 " mydata_rot="-72.6" mydata_centroid="379.359525712,1210.0790454099263"/>
  <polygon id="283166087" class="tile" points="431.548478601,1255.35703832 429.989673964,1255.3587512 429.996676109,1259.01607331 428.934182596,1259.57734399 427.806701132,1259.81553804 390.065648404,1259.8495554 389.437788973,1259.51551279 388.933961392,1258.83291452 388.744062453,1258.14955838 388.744755379,1257.24016921 390.137257214,1257.23792802 390.133230807,1255.92352739 388.829299742,1255.92499451 388.778594953,1202.27776695 389.090597503,1201.59002468 389.560004574,1201.25632137 390.081996845,1201.11277182 391.112357265,1201.10972597 391.112721802,1203.0039415 392.424518115,1203.00637872 392.425375959,1201.03074487 427.754529871,1201.0 427.757156755,1202.11982835 428.647755739,1202.12197261 428.652815893,1201.06561477 430.4074599,1201.06417863 430.893814244,1201.32797751 431.37999788,1202.32246089 431.385247356,1203.89100085 430.225966842,1203.89716167 430.227721613,1205.31483026 431.505096281,1205.30763725 431.526355515,1229.30680939 431.526205764,1234.73530658 431.548478601,1255.35703832 " mydata_rot="-63.6" mydata_centroid="410.115167791,1230.393794537842"/>
  <polygon id="396249563" class="tile" points="465.46294167,1314.87964006 475.754887617,1308.63955715 481.912948614,1300.2960813 487.443144786,1275.97041716 489.032532177,1255.98854666 488.984655112,1201.0 435.547230424,1202.28337713 432.548478601,1251.77000761 435.355371651,1297.34189308 435.423633684,1302.99299575 443.866365687,1311.43621806 452.111696154,1314.97894221 460.636925076,1316.13061716 465.46294167,1314.87964006 " mydata_rot="-35.5" mydata_centroid="460.747465116,1255.1179720168802"/>
  <polygon id="385279566" class="tile" points="490.108959504,1201.0 557.610418967,1201.19910882 557.575056197,1265.83639286 550.156500232,1266.4192819 548.924796278,1270.9540542 534.08256001,1270.13613811 534.003794014,1267.2248002 523.552888332,1266.84868033 522.965613035,1263.32629134 505.328963535,1263.2015604 507.792158755,1271.68198013 521.420354759,1271.79643404 520.056585693,1285.3506905 498.600892684,1285.76165271 497.075246669,1232.54652433 490.032532177,1232.28517478 490.108959504,1201.0 " mydata_rot="-82.0" mydata_centroid="524.669938818,1236.4283781519007"/>
  <polygon id="299666264" class="tile" points="575.010518765,1201.0 562.225881899,1202.78508967 558.616335951,1203.02031225 558.610418967,1236.21239981 561.198712949,1235.61586306 562.598659835,1235.61797673 566.458300449,1234.69837745 570.469110314,1233.73334579 575.037946027,1232.90269422 574.716618873,1224.24884549 574.485880953,1217.65247761 574.324727056,1212.9929359 575.010518765,1201.0 " mydata_rot="39.9" mydata_centroid="566.592217207,1218.4164654316062"/>
  <polygon id="222912933" class="tile" points="576.41466361,1249.58197285 579.210944159,1249.57702069 579.252511559,1201.0 576.037946027,1201.14851032 576.41466361,1249.58197285 " mydata_rot="-82.0" mydata_centroid="577.727756706,1224.7636743015566"/>
  <polygon id="324975289" class="tile" points="0.0149195160717,1688.30420965 26.1722675823,1688.01584476 26.2090672843,1708.06760552 14.5782019012,1708.21219658 14.6976163063,1716.92401316 0.0,1717.09857379 0.0149195160717,1688.30420965 " mydata_rot="-7.3" mydata_centroid="11.968811579508671,1701.02213619"/>
  <polygon id="185193574" class="tile" points="36.9502518114,1724.02864893 36.9408996403,1714.13047326 36.9362704325,1709.72121518 36.9389196962,1705.43993104 36.9336438324,1701.09978267 36.9313621867,1696.89273234 36.927145962,1692.89301563 36.9251806617,1688.01584476 34.3450142123,1688.02635928 28.3729498427,1688.04776682 28.2090672843,1723.97223155 36.9502518114,1724.02864893 " mydata_rot="-50.1" mydata_centroid="32.615475192,1706.08144251"/>
  <polygon id="448157973" class="tile" points="37.9502518114,1814.24945607 61.1775957316,1814.53544822 61.1019972581,1688.31498213 46.5381519902,1688.01584476 42.0623500921,1689.06932707 38.4758352555,1694.69114575 37.9502518114,1814.24945607 " mydata_rot="-30.9" mydata_centroid="49.7345626087,1751.88676745"/>
  <polygon id="255477273" class="tile" points="72.1944438875,1688.01584476 62.1775957316,1697.20889376 62.2027692886,1768.75178665 65.2734965464,1769.57791418 89.9110354407,1750.14468977 91.5818915296,1715.53215417 88.8323027471,1705.46626721 84.5011800442,1699.39915657 72.1944438875,1688.01584476 " mydata_rot="28.0" mydata_centroid="75.1782712951,1728.07474339"/>
  <polygon id="393413918" class="tile" points="107.494988151,1688.01584476 107.105483023,1713.86824992 103.824748777,1721.20881143 92.5818915296,1728.50174654 95.8375986246,1749.95027658 103.778135462,1739.98869264 103.821161265,1748.53339221 112.197148262,1748.59772806 111.129328486,1761.06845068 110.844471828,1764.42262508 120.337242841,1766.16629603 123.744389553,1768.94223657 125.728513066,1774.50663264 125.193172882,1796.82079343 155.206632495,1798.64268602 156.699397738,1770.30307331 190.187239199,1771.05133559 190.225325424,1692.52543333 107.494988151,1688.01584476 " mydata_rot="1.1" mydata_centroid="146.326421015,1735.76427494"/>
  <polygon id="185169185" class="tile" points="191.225325424,1744.78622126 198.6232334,1744.78621689 198.635014183,1688.02459339 191.237396576,1688.01584476 191.225325424,1744.78622126 " mydata_rot="1.9" mydata_centroid="194.930147297,1716.40340352"/>
  <polygon id="357523237" class="tile" points="199.673894003,1735.57373239 199.803430254,1732.5135645 199.846221972,1714.50202421 199.635014183,1688.11213724 217.156167352,1688.01584476 231.267067957,1702.26050142 227.503699799,1706.33761315 219.633082746,1698.17837853 218.933783921,1702.67965174 214.466891927,1701.74193629 214.584251758,1698.58540173 209.465123408,1703.25678895 213.769004382,1703.44753388 213.548006424,1711.56579794 209.285158008,1712.28613416 209.102085255,1735.26743433 199.673894003,1735.57373239 " mydata_rot="-81.5" mydata_centroid="208.987283912,1706.7906583"/>
  <polygon id="337822365" class="tile" points="236.796830269,1697.08571691 232.267067957,1697.07900415 232.271135234,1692.44212632 236.347921393,1692.44816732 236.353402428,1688.01584476 240.869971048,1688.02046667 241.268799118,1688.02144575 254.735223773,1688.04877298 254.714050111,1721.27207386 254.708708285,1730.74167832 244.912273927,1730.72702339 244.935835915,1697.10437669 236.796830269,1697.08571691 " mydata_rot="9.0" mydata_centroid="247.865467444,1706.30391611"/>
  <polygon id="224659159" class="tile" points="279.215267729,1712.04473763 259.614793498,1716.25231788 255.783212187,1694.73314977 255.735223773,1694.4415178 279.215182495,1688.01584476 279.215267729,1712.04473763 " mydata_rot="9.1" mydata_centroid="268.510956691,1702.31143068"/>
  <polygon id="445049771" class="tile" points="343.973541219,1688.01584476 352.064201246,1688.0694261 359.835048919,1696.79991422 359.836845762,1793.21734478 344.813541048,1805.39712748 283.921753242,1737.14710048 280.215267729,1723.8577706 312.473659937,1701.09483428 343.973541219,1688.01584476 " mydata_rot="21.1" mydata_centroid="330.074657699,1740.49369265"/>
  <polygon id="412123957" class="tile" points="360.863740316,1688.01584476 389.380178432,1688.138629 389.357571658,1717.95128229 360.836845762,1717.83607669 360.863740316,1688.01584476 " mydata_rot="29.5" mydata_centroid="375.108978247,1702.98582868"/>
  <polygon id="239085023" class="tile" points="400.72428829,1794.92210463 390.529352969,1795.51928497 390.380178432,1688.01584476 401.619789595,1688.46247263 400.72428829,1794.92210463 " mydata_rot="64.8" mydata_centroid="395.807668745,1740.85792822"/>
  <polygon id="251110317" class="tile" points="402.619789595,1709.40181519 410.954211146,1709.10123108 419.398512572,1708.8091124 419.398794273,1707.06678688 418.460733356,1707.0690663 418.443020366,1688.85563828 418.400820027,1688.01584476 410.96736282,1690.08029159 402.645714082,1692.36931564 402.619789595,1709.40181519 " mydata_rot="57.1" mydata_centroid="410.851966377,1699.66496229"/>
  <polygon id="315400367" class="tile" points="431.662498135,1688.04445511 421.561935265,1688.01584476 421.563710854,1698.41897889 420.398794273,1698.41853362 420.405922699,1711.83883538 423.143787291,1711.84815141 431.671387145,1711.86789768 431.662498135,1688.04445511 " mydata_rot="66.0" mydata_centroid="426.272471573,1700.25945004"/>
  <polygon id="446154780" class="tile" points="432.671387145,1765.15303922 494.303358976,1745.1847676 492.165648388,1688.01584476 432.72632388,1689.25503084 432.671387145,1765.15303922 " mydata_rot="27.9" mydata_centroid="461.583098541,1722.37219954"/>
  <polygon id="278033599" class="tile" points="534.284062892,1777.44193079 527.174695614,1777.38844631 495.303358976,1777.16568511 495.45391975,1760.70959029 495.312739264,1749.73356252 496.16478284,1748.75517406 497.123180197,1747.87262734 498.156011826,1747.09574212 499.240322897,1746.44076315 500.922548345,1745.73040222 502.038645183,1745.45132627 503.122008377,1745.33842972 502.406775992,1689.92823011 502.384484887,1688.01584476 512.494586284,1689.3960481 533.952316778,1692.31752632 534.012186888,1707.32241352 534.115308564,1734.3251993 534.451470491,1759.76854916 534.327238938,1772.60765935 534.284062892,1777.44193079 " mydata_rot="-17.1" mydata_centroid="516.89414164,1735.92963712"/>
  <polygon id="278749393" class="tile" points="43.8431298567,1814.53544822 0.625144379027,1815.80358909 0.353082922474,1821.87396119 0.00485371146351,1829.75585863 0.0,1836.74337232 0.0021451016888,1852.28906268 0.00496461242437,1866.91953205 0.00545683130622,1882.64020044 0.00329798720777,1896.38690542 0.000932624191046,1911.56418949 0.00526996459812,1926.60064849 0.00341541990638,1941.4436914 0.00253285355866,1948.01561284 9.56517865397,1948.40980617 9.5769572027,1944.63612821 9.63352729082,1944.321544 9.88147662766,1944.16495501 10.2306686025,1944.06684164 10.5713750806,1944.0159159 18.7832307726,1944.19478009 36.6944543738,1934.62346987 36.4374386799,1934.04326567 36.3567040019,1933.518576 36.451626173,1933.11501948 36.6530322701,1932.78222572 36.9276882274,1932.35283588 39.8123758592,1930.99896894 35.0063987855,1921.14023577 31.3909619071,1922.99458944 31.0926821373,1922.80957739 30.997888995,1922.07304289 30.8861746419,1919.17257458 61.4410447441,1918.71652071 61.2993155306,1913.62139661 61.3667469995,1912.72853095 61.5796771003,1912.31094666 61.8395678692,1912.02582084 62.3267782498,1911.78170112 65.6527639501,1911.35059509 48.0637324423,1818.90737799 44.6707673918,1819.33800763 44.395654043,1819.2520349 44.2365516979,1819.0802724 44.1024906456,1818.81069238 43.8431298567,1814.53544822 " mydata_rot="66.9" mydata_centroid="27.111022901872367,1877.86745161"/>
  <polygon id="288654454" class="tile" points="67.6527639501,1814.53544822 67.6863596059,1850.97604526 97.4012905348,1851.36847095 97.5001580857,1827.35100882 92.2102049865,1827.34598824 92.1934670165,1814.58536788 67.6527639501,1814.53544822 " mydata_rot="61.3" mydata_centroid="81.7814518797,1833.64000214"/>
  <polygon id="381296334" class="tile" points="98.5133119538,1814.54384123 110.447349497,1814.53544822 110.434190753,1831.77081803 98.5001580857,1831.77921173 98.5133119538,1814.54384123 " mydata_rot="-81.9" mydata_centroid="104.473752533,1823.15732922"/>
  <polygon id="285141593" class="tile" points="121.14370662,1937.65330785 117.463923087,1937.82710059 116.587107369,1936.73447696 115.213463469,1938.3410882 111.544381084,1937.49451549 111.447349497,1820.65841357 117.337916292,1820.24460666 117.035010009,1815.09843773 149.628199206,1814.53544822 149.267948646,1820.51093038 145.793296368,1824.61191855 169.196502934,1842.54114132 164.086378954,1848.48698293 181.643231877,1863.36540458 162.682719611,1887.09804731 164.318910144,1894.08659942 168.45355608,1896.68535569 169.318111299,1905.56499491 177.967552305,1913.11552189 168.913256909,1923.82734704 165.668500903,1923.24861719 159.105490026,1931.11095461 158.899678373,1902.56085499 160.261786538,1901.78513056 160.443377338,1899.44407873 159.275094541,1898.61666991 158.624363739,1898.74509051 158.390619368,1899.65927468 125.680741733,1899.4489466 123.937382438,1897.97961268 122.68482403,1897.58557339 122.284433043,1898.24714531 121.131943216,1905.94220684 121.14370662,1937.65330785 " mydata_rot="-42.3" mydata_centroid="139.445355684,1867.76415816"/>
  <polygon id="442637494" class="tile" points="203.304583393,1814.53544822 203.322637472,1833.42213657 193.650120126,1833.43870744 193.65629365,1838.16401587 182.658791123,1838.18498884 182.643231877,1814.574334 203.304583393,1814.53544822 " mydata_rot="-81.2" mydata_centroid="192.414551358,1825.38619146"/>
  <polygon id="377339427" class="tile" points="204.326582562,1814.5943931 204.322637472,1881.20301558 227.870610018,1881.12442872 227.878097364,1833.06823002 221.587377065,1833.09127706 221.589581916,1814.53544822 204.326582562,1814.5943931 " mydata_rot="-31.6" mydata_centroid="215.406168085,1849.79131945"/>
  <polygon id="235742205" class="tile" points="229.300060491,1814.53544822 243.24172558,1815.12826169 243.309737192,1877.31782558 228.878097364,1872.60907443 229.300060491,1814.53544822 " mydata_rot="-85.7" mydata_centroid="236.260961692,1845.08967699"/>
  <polygon id="266941952" class="tile" points="244.338809384,1821.51570015 244.345922126,1814.53544822 275.153071368,1814.56325484 275.11683396,1862.74472551 244.309737192,1862.71701395 244.322126615,1852.07008683 244.32587166,1844.48945593 244.331750341,1829.33909547 244.338809384,1821.51570015 " mydata_rot="-28.9" mydata_centroid="259.731582804,1838.63933243"/>
  <polygon id="376268932" class="tile" points="298.787400772,1837.81268048 278.985293983,1814.53544822 276.164224948,1827.93169091 285.072140366,1829.90663453 276.153071368,1869.21232658 291.516753168,1872.55942378 298.787400772,1837.81268048 " mydata_rot="19.8" mydata_centroid="287.034129711,1847.21239888"/>
  <polygon id="185632784" class="tile" points="299.800129969,1814.58382453 314.861388157,1814.53544822 314.849278698,1835.09226568 314.848105667,1836.13497212 314.848636072,1838.1088149 299.787400772,1838.15721069 299.795766286,1826.51693589 299.800129969,1814.58382453 " mydata_rot="-49.6" mydata_centroid="307.32463005,1826.34618055"/>
  <polygon id="450419556" class="tile" points="358.960418176,1814.53544822 358.966489077,1822.38475606 354.456932054,1822.37457628 354.522541274,1882.14816544 361.094125451,1882.16491113 361.129126212,1914.66545303 315.861388157,1914.56459781 315.914986173,1959.3456341 389.648670849,1959.51257798 389.503252544,1831.4302788 377.196605342,1831.39869616 377.182156103,1814.57627688 358.960418176,1814.53544822 " mydata_rot="59.4" mydata_centroid="362.204009066,1902.7346552"/>
  <polygon id="443754791" class="tile" points="390.685067478,1814.65779717 390.648670849,1898.48509997 459.202138356,1898.2648102 459.223502739,1826.58263563 428.335081569,1826.68738009 428.345314378,1814.53544822 390.685067478,1814.65779717 " mydata_rot="-35.2" mydata_centroid="423.624595621,1858.97012606"/>
  <polygon id="241819964" class="tile" points="464.746414675,1814.53544822 465.759566185,1855.60592614 460.223502739,1858.14604799 460.300505011,1941.84964346 483.982631161,1942.4093119 492.091579495,1928.73787604 515.316400514,1926.81545921 534.855315725,1890.02484258 546.174117974,1893.70157504 552.587319632,1881.61499962 547.292330787,1814.95858256 464.746414675,1814.53544822 " mydata_rot="-88.0" mydata_centroid="501.639182942,1870.97571774"/>
  <polygon id="450419529" class="tile" points="564.028478921,1814.5687216 553.587319632,1814.53544822 553.600915515,1852.41809938 564.042049247,1852.45138769 564.028478921,1814.5687216 " mydata_rot="59.7" mydata_centroid="558.814691171,1833.4934065"/>
  <polygon id="59384782" class="tile" points="27.1684732754,2035.5074176 30.0614097331,2026.50080999 35.1371931888,2026.18223049 33.9533405632,2000.97662943 32.0057644945,1959.51257798 0.0633784051985,1960.87918246 0.0,2037.8023135 27.1684732754,2035.5074176 " mydata_rot="-42.8" mydata_centroid="16.515531511751533,1998.18403567"/>
  <polygon id="298794355" class="tile" points="37.1371931888,2137.46869626 39.0672644814,1960.09736121 63.3062503491,1959.51257798 63.3442626661,1993.15719 69.3035093136,1993.22943421 69.474684819,2137.85188491 37.1371931888,2137.46869626 " mydata_rot="-65.3" mydata_centroid="53.2760889289,2052.46746515"/>
  <polygon id="343290229" class="tile" points="70.5217749305,1960.40367195 80.1684208207,1959.51257798 80.4963527776,1989.63439716 70.474684819,1989.8380263 70.5217749305,1960.40367195 " mydata_rot="1.6" mydata_centroid="75.4352394379,1974.93987237"/>
  <polygon id="223631878" class="tile" points="97.9535875717,2040.79539099 104.454072149,2040.96047504 104.457431691,1959.64974221 81.8236485017,1959.51257798 81.4963527776,1992.34965524 92.081599937,1992.14702953 91.782969787,2012.48979311 97.7571045659,2013.02492721 97.9535875717,2040.79539099 " mydata_rot="4.7" mydata_centroid="95.430213085,1989.64795729"/>
  <polygon id="222912929" class="tile" points="106.029331168,2009.72195039 114.351056099,2009.47698731 114.389903935,1959.51257798 105.457431691,1960.0187783 106.029331168,2009.72195039 " mydata_rot="-86.9" mydata_centroid="110.058739477,1984.38782751"/>
  <polygon id="413357494" class="tile" points="115.389903935,1960.48746924 115.406307958,2007.09257406 120.206733935,2007.28146505 122.965081262,2005.37264415 125.134813241,2003.87134508 125.194363264,2000.03510738 130.477948495,2000.07863834 130.389575565,1995.76153058 135.520838283,1995.72166433 137.717846179,1994.68515782 139.920712999,1993.65185821 140.187873384,1990.54908925 144.192992444,1990.7024328 144.178586186,1986.62575058 152.835113959,1986.58647309 158.919327239,1986.55847303 158.200231356,1959.51257798 115.389903935,1960.48746924 " mydata_rot="28.7" mydata_centroid="134.449515302,1978.36361436"/>
  <polygon id="201148563" class="tile" points="166.919954756,1975.45760972 166.923801066,1959.51257798 162.84758946,1961.94138057 159.919327239,1963.6887382 166.919954756,1975.45760972 " mydata_rot="69.1" mydata_centroid="164.587567596,1966.21922126"/>
  <polygon id="255477271" class="tile" points="208.92365098,2023.30815537 209.289939326,1992.84073831 209.314099654,1991.3364739 177.450592374,1991.29935029 178.014409168,1959.51257798 172.482578735,1961.17894968 167.923801066,1961.80229875 167.939570177,2023.16568018 208.92365098,2023.30815537 " mydata_rot="-86.4" mydata_centroid="185.64527268,2001.46194483"/>
  <polygon id="238072592" class="tile" points="210.728232654,1972.47511581 210.314099654,1967.02414833 212.347243597,1963.57709571 213.625578834,1961.41721433 218.428155,1964.0337852 220.876646952,1959.51257798 230.514409876,1965.75414837 235.464921696,1968.96519398 237.830817103,1971.49728151 240.545698369,1975.22062152 239.36021015,1980.1745513 224.511261268,2006.24482906 217.394554073,2001.99268059 210.318886466,1997.76109924 219.655215978,1982.97929047 219.912062745,1978.86947951 216.706771784,1975.40789044 210.728232654,1972.47511581 " mydata_rot="-80.3" mydata_centroid="224.575847051,1981.45100965"/>
  <polygon id="185148199" class="tile" points="241.550185928,1959.51257798 253.033919454,1959.52835623 259.874515551,1959.53536984 259.870026506,1979.6390543 258.194226868,1979.63381071 241.545698369,1979.61625295 241.550185928,1959.51257798 " mydata_rot="8.9" mydata_centroid="250.709882586,1969.57539747"/>
  <polygon id="241824860" class="tile" points="291.07396113,1959.51257798 261.00706165,1959.72298643 260.874515551,2095.16830531 278.966046005,2094.4324511 282.93569385,2097.7344716 281.891174354,2110.49783327 298.715265663,2121.48231009 337.72238338,2060.27518345 298.467183794,2034.65688261 300.029332072,2014.6249957 292.404648439,2014.00056991 293.656364224,1974.29145237 290.135016475,1974.27561847 291.07396113,1959.51257798 " mydata_rot="-26.2" mydata_centroid="287.559452831,2044.56265396"/>
  <polygon id="185021224" class="tile" points="338.741569333,1996.34864001 338.732042427,1966.31539266 338.72238338,1959.51257798 371.698865834,1959.54827567 371.697580525,1972.31264845 371.700253835,1974.54854614 371.704270211,1976.79098657 351.368604313,1976.66286727 351.272044039,1996.06749686 345.198097993,1996.20289414 338.741569333,1996.34864001 " mydata_rot="78.4" mydata_centroid="352.137499398,1973.65960516"/>
  <polygon id="324162242" class="tile" points="380.519281767,1981.24285988 381.050702908,1959.62199238 372.704270211,1959.51257798 372.738679253,1980.87499964 377.269854126,1981.0409261 380.519281767,1981.24285988 " mydata_rot="-33.5" mydata_centroid="376.763193676,1970.17660353"/>
  <polygon id="335987175" class="tile" points="382.050702908,1959.51257798 382.057690951,1978.57393245 393.926747129,1978.58023944 393.91975961,1959.5188805 382.050702908,1959.51257798 " mydata_rot="6.7" mydata_centroid="387.988725382,1969.04640752"/>
  <polygon id="319966214" class="tile" points="409.447604243,1959.55762006 409.453307192,1979.82594068 400.390949529,1979.80062554 394.926891257,1973.25247278 394.926747129,1959.51257798 409.447604243,1959.55762006 " mydata_rot="59.2" mydata_centroid="402.539474029,1969.15847593"/>
  <polygon id="255480859" class="tile" points="459.832752649,2003.56814371 419.066241034,1959.51257798 413.913676668,1964.06323787 410.453307192,2043.47968582 459.864096686,2047.01137263 459.832752649,2003.56814371 " mydata_rot="-14.2" mydata_centroid="433.436965224,2011.24062404"/>
  <polygon id="59379572" class="tile" points="460.864096686,2025.07300645 497.530581963,2034.42345736 511.912340691,1975.08012539 460.890836499,1959.51257798 460.864096686,2025.07300645 " mydata_rot="31.3" mydata_centroid="482.878192421,1996.75557911"/>
  <polygon id="442637466" class="tile" points="512.920021758,1959.52376384 536.405599957,1959.51257798 536.397907203,1984.27858531 512.912340691,1984.28977257 512.920021758,1959.52376384 " mydata_rot="-83.2" mydata_centroid="524.658967292,1971.9011739"/>
  <polygon id="319966215" class="tile" points="537.405599957,1970.03986039 537.414382475,1959.51257798 551.522691063,1959.51726556 551.51259907,1974.12971625 550.425873794,1976.36712769 537.405599957,1970.03986039 " mydata_rot="-85.8" mydata_centroid="544.99352704,1966.56107916"/>
  <polygon id="292846307" class="tile" points="552.526528833,1983.19044012 552.522691063,1959.51481731 564.055942002,1959.51824689 569.627558231,1959.51257798 569.720207416,1962.02179306 569.722771461,1983.18772378 552.526528833,1983.19044012 " mydata_rot="-29.0" mydata_centroid="561.120408754,1971.3556362"/>
  <polygon id="443524678" class="tile" points="587.895317865,1960.41465747 570.722771461,1959.51257798 570.768945722,1993.76662705 586.219057733,1999.43025286 587.895317865,1960.41465747 " mydata_rot="77.9" mydata_centroid="579.096911402,1978.01780155"/>
  <polygon id="413357499" class="tile" points="0.00263634994626,2219.32552594 45.7881104618,2223.19994418 47.8424367093,2198.96195656 47.5095654309,2159.99303343 12.1641928548,2162.74978181 10.1020019643,2154.0086228 8.92858705781,2150.36737862 7.86250065174,2137.85188491 0.0,2139.57327118 1.56948715914,2161.19657436 3.31597520001,2189.33701039 0.00263634994626,2219.32552594 " mydata_rot="34.9" mydata_centroid="23.696691828976984,2188.65290572"/>
  <polygon id="309309707" class="tile" points="98.2731290143,2137.85188491 144.62577766,2167.83875813 107.395365976,2226.48524322 105.620807904,2231.4546191 100.173309051,2229.77603222 99.2364228282,2235.69302693 98.9892337926,2238.30145044 99.2515429914,2241.52586287 99.9002740119,2245.02412775 101.041246692,2248.72946816 102.9375737,2251.96091515 107.988360656,2249.44513646 113.073125551,2255.15293601 144.632598378,2276.07879411 116.721352832,2319.57792899 114.533899545,2322.99148224 97.2192983482,2312.55384363 80.0036218908,2300.39828406 66.6147325221,2287.40910734 57.9759960245,2276.48265833 51.0321824286,2259.01591162 49.8424367093,2233.83235963 51.0467068497,2221.00044532 54.0786082122,2208.08603492 58.2650670968,2199.8562624 61.653543428,2194.03768893 75.2027978089,2174.06170798 98.2731290143,2137.85188491 " mydata_rot="-57.1" mydata_centroid="94.5646386278,2231.6432968"/>
  <polygon id="298607599" class="tile" points="147.652873778,2137.85188491 145.632598378,2141.13389456 145.633687941,2145.35895262 145.638446891,2153.89462957 146.941604238,2155.60619249 150.014534467,2156.69334615 151.282948161,2149.05594236 155.65978276,2149.78490911 157.225893125,2150.16285447 158.216072223,2144.19389928 157.215092904,2141.81339072 156.160543926,2139.31650471 147.652873778,2137.85188491 " mydata_rot="57.4" mydata_centroid="150.927849105,2145.89202726"/>
  <polygon id="450419551" class="tile" points="173.670266593,2137.90623207 167.959779172,2137.88553246 159.216072223,2137.85188491 159.220616553,2195.20830176 173.679083989,2195.25253981 173.670266593,2137.90623207 " mydata_rot="60.4" mydata_centroid="166.446293972,2166.55634485"/>
  <polygon id="426140945" class="tile" points="189.874659874,2147.40585305 189.874659874,2147.40585305 190.016313236,2149.40547136 189.995935571,2151.3939272 189.975557742,2153.38238244 189.957453825,2155.37932402 189.953635034,2157.79086704 189.95619835,2159.24558789 189.956267585,2160.20068045 189.958899891,2162.61049296 189.961531958,2165.02030456 190.023541045,2166.87752436 190.085549986,2168.73474361 190.14528471,2170.58347537 188.206945614,2170.57526752 186.268606506,2170.56705962 186.268606506,2170.56705962 178.611232144,2170.60856839 176.750682599,2170.60680548 174.679083989,2170.79803724 174.679083989,2170.79803724 174.816803835,2168.55073749 174.808360907,2166.50633439 174.799917804,2164.46193063 174.785022944,2162.41925492 174.769386622,2160.32219937 174.74957261,2158.2353588 174.727484338,2156.14003059 174.727484338,2156.14003059 174.712959417,2154.12454184 174.704885909,2152.10732375 174.695920479,2150.49967824 174.695920479,2150.49967824 174.703645233,2147.74142387 174.716929588,2145.39101316 174.730213713,2143.04060158 174.76302267,2141.33079692 174.802283091,2139.61926311 174.84154339,2137.90772884 175.79553609,2137.90680466 176.507804822,2137.90697586 176.507804822,2137.90697586 177.151009563,2137.90746003 178.851802978,2137.90655052 180.52224189,2137.89558177 182.192680793,2137.88461299 183.856668105,2137.87537288 186.271633616,2137.85593169 188.289666514,2137.85188491 188.522273608,2142.56512944 188.522273608,2142.56512944 187.888165246,2142.59859341 187.321167328,2142.80509799 186.747717824,2143.01333126 186.747717824,2143.01333126 185.830230547,2143.95049173 185.641250993,2145.12907246 185.641250993,2145.12907246 185.984637041,2146.41060663 186.865137403,2147.19346481 187.834998374,2147.40659978 189.874659874,2147.40585305 189.874659874,2147.40585305 " mydata_rot="-15.0" mydata_centroid="182.039385892,2154.82285251"/>
  <polygon id="246732891" class="tile" points="215.803645408,2139.34430563 191.251745263,2137.85188491 191.14528471,2233.06663165 196.853244415,2233.21555152 214.579637169,2212.48251488 214.705534509,2204.03449878 219.480516942,2204.06850859 219.422831938,2158.81528405 215.466286404,2158.43892177 215.803645408,2139.34430563 " mydata_rot="12.9" mydata_centroid="203.883160642,2181.87354348"/>
  <polygon id="275608481" class="tile" points="220.480516942,2188.1009765 221.220057576,2180.83764116 223.660245117,2157.07458779 220.514899305,2151.07735466 241.954100459,2137.85188491 257.808994403,2178.9337674 246.779164954,2181.69018908 245.213279808,2190.86537696 220.480516942,2188.1009765 " mydata_rot="6.6" mydata_centroid="236.875302051,2167.25087599"/>
  <polygon id="180522736" class="tile" points="258.80909864,2144.66042613 258.808994403,2165.40581336 280.490669737,2165.28462664 284.032264263,2161.96252621 283.810266677,2146.89475726 281.038053115,2146.90779838 280.490637421,2137.85188491 266.919581364,2138.30107411 267.055434356,2140.33822945 264.564941262,2140.02667667 264.584974233,2144.56311155 258.80909864,2144.66042613 " mydata_rot="29.3" mydata_centroid="271.405809148,2152.77295309"/>
  <polygon id="299854197" class="tile" points="289.121991436,2177.1144345 293.932753107,2170.4275387 292.591585691,2164.21837836 292.04682024,2147.74508685 293.907667051,2137.85188491 286.08705477,2141.5775687 285.383192147,2148.45419342 285.032264263,2153.90053927 285.617231404,2159.74978624 286.282471552,2165.776336 287.300886978,2170.9479109 289.121991436,2177.1144345 " mydata_rot="38.8" mydata_centroid="289.363286264,2156.64071728"/>
  <polygon id="299598618" class="tile" points="309.269301829,2152.5412903 307.137608566,2152.65235045 294.932753107,2152.31866986 295.251432792,2140.72020993 297.69525193,2140.7914671 297.775717782,2137.85188491 309.222864143,2138.0707306 309.080742287,2143.18819606 309.245220651,2147.4732361 309.269301829,2152.5412903 " mydata_rot="57.8" mydata_centroid="302.370502871,2145.48300493"/>
  <polygon id="185633513" class="tile" points="310.288397915,2137.92152719 310.287964918,2143.31907073 310.272986723,2158.89952912 310.269301829,2165.53064816 332.833412612,2165.46097216 332.85254903,2137.85188491 310.288397915,2137.92152719 " mydata_rot="-50.1" mydata_centroid="321.561358343,2151.69159852"/>
  <polygon id="252080161" class="tile" points="333.880014491,2148.54344324 343.137863755,2137.85188491 373.738820341,2164.33791027 370.659907582,2167.8960732 373.550832116,2170.3983983 343.724538383,2204.81563205 333.85254903,2196.26910923 357.48931081,2168.98828402 333.880014491,2148.54344324 " mydata_rot="36.8" mydata_centroid="352.920748364,2170.2812538"/>
  <polygon id="279672694" class="tile" points="374.738820341,2138.43139774 398.759015676,2137.85188491 398.665572354,2193.08815974 375.596260709,2193.24691332 376.409647565,2170.73476401 375.453379547,2169.97321238 374.738820341,2138.43139774 " mydata_rot="-65.7" mydata_centroid="387.104946425,2165.35193072"/>
  <polygon id="283808776" class="tile" points="498.809788333,2260.94070979 500.701298136,2146.53374697 498.403094236,2144.34797806 494.971801598,2143.39779221 490.052261276,2141.8214501 487.543182019,2139.8459767 410.245475243,2138.09565133 402.237178333,2137.85188491 400.585977506,2138.82755411 399.759015676,2143.90493236 399.843907118,2216.90281593 402.600383358,2218.35924236 475.481699819,2217.51981854 477.774201361,2218.85544064 478.291146677,2222.07012212 478.003225614,2260.92623694 498.809788333,2260.94070979 " mydata_rot="-18.7" mydata_centroid="453.514769124,2184.83855504"/>
  <polygon id="412123956" class="tile" points="501.701298136,2145.54709911 506.457462539,2137.85188491 532.395216099,2152.57493778 530.59630208,2156.17303149 535.977962606,2159.16176868 538.45410551,2155.98327272 562.572609378,2169.10268168 559.453296056,2174.48888544 562.928533074,2176.45056395 522.394687435,2249.91936189 501.788493148,2239.47828384 532.075532204,2187.22438661 542.411367882,2192.8458951 543.269345414,2191.49288433 533.112152828,2185.13667642 542.500685288,2169.19551474 539.97517243,2167.80591171 530.34713586,2183.68742593 514.657784253,2175.47059403 524.253099135,2159.18813804 518.667465548,2155.95391923 515.05557961,2153.71606694 513.108283169,2157.40438204 502.153588927,2151.11215406 504.139301039,2147.82128924 501.701298136,2145.54709911 " mydata_rot="-31.3" mydata_centroid="530.907488074,2193.05677896"/>
  <polygon id="371137434" class="tile" points="573.176830263,2176.78951256 572.328344047,2157.85473282 566.508402315,2158.07473795 566.313654031,2153.71419054 564.046117945,2153.52383576 564.084252989,2150.60006259 563.928533074,2138.56169635 565.537093789,2138.14643805 588.37989053,2137.85188491 588.33025616,2178.87388909 573.176830263,2176.78951256 " mydata_rot="-33.6" mydata_centroid="578.13311644,2155.69645342"/>
  <polygon id="253908447" class="tile" points="24.0511382896,2389.88316942 24.0652315428,2322.99148224 0.0130061488599,2323.0162796 0.0,2389.90137653 24.0511382896,2389.88316942 " mydata_rot="-81.0" mydata_centroid="12.032541493523745,2356.44782514"/>
  <polygon id="315149993" class="tile" points="62.6634893542,2323.08694854 62.6806732476,2341.73311883 63.3242131123,2341.73469138 63.332761793,2365.27597361 46.1517721342,2365.43623653 46.0832764117,2356.14070799 26.0652315428,2356.29912089 26.1401775729,2322.99148224 62.6634893542,2323.08694854 " mydata_rot="68.2" mydata_centroid="45.6788131361,2342.1098843"/>
  <polygon id="247143606" class="tile" points="64.3381854711,2332.34090378 64.332761793,2350.274387 86.1543260196,2350.20544528 86.1585371353,2322.99148224 76.9373175899,2323.02368878 76.9308674002,2332.30000807 64.3381854711,2332.34090378 " mydata_rot="-61.5" mydata_centroid="76.3762774474,2338.8279012"/>
  <polygon id="327029576" class="tile" points="102.294417843,2322.99148224 102.17925464,2328.21169399 102.257400811,2346.49778385 96.8618673902,2346.52199163 95.9523463707,2346.61504629 87.2601249043,2346.64770382 87.1829709116,2328.33952752 87.1776934352,2327.40265277 87.1657139655,2325.20925521 87.1585371353,2323.84618306 91.2748295125,2323.61433699 92.5506442457,2323.54647481 94.8359195087,2323.41280517 102.294417843,2322.99148224 " mydata_rot="-34.6" mydata_centroid="94.7526985986,2334.9915842"/>
  <polygon id="270200275" class="tile" points="107.529075476,2323.38996825 107.534855877,2338.83832491 103.294417843,2338.73426686 103.424422123,2322.99148224 107.529075476,2323.38996825 " mydata_rot="47.8" mydata_centroid="105.438780753,2331.0300222"/>
  <polygon id="448157968" class="tile" points="141.709192897,2413.29747018 108.534855877,2400.56219357 123.098194863,2354.70027044 113.46602567,2331.90602965 115.491107108,2326.4684722 125.259788974,2322.99148224 136.481847882,2351.43581345 141.697809586,2382.04182382 141.709192897,2413.29747018 " mydata_rot="79.6" mydata_centroid="127.374264296,2373.64416625"/>
  <polygon id="244984383" class="tile" points="142.724136858,2375.89275797 142.709192897,2322.99148224 156.841690804,2323.12894299 170.605463933,2323.37632754 170.318817828,2333.16968652 176.390422539,2335.37400179 180.605392454,2339.19284056 184.036269421,2348.14257307 178.887611348,2350.76433188 178.929594683,2359.35576341 157.06589592,2359.44952337 157.002669476,2364.62442074 160.228467558,2364.66383326 160.238085303,2375.90429267 142.724136858,2375.89275797 " mydata_rot="0.7" mydata_centroid="158.625543766,2346.94093344"/>
  <polygon id="167246604" class="tile" points="196.229174958,2322.99148224 196.226686314,2346.30484647 185.036269421,2346.34336628 185.044367688,2323.02637662 196.229174958,2322.99148224 " mydata_rot="-32.7" mydata_centroid="190.63398014,2334.66749245"/>
  <polygon id="246832536" class="tile" points="197.237257818,2322.99148224 204.709847798,2323.13097062 211.392685159,2323.24934356 211.673661191,2365.98039642 206.447242368,2365.90342747 206.502905586,2368.73530477 204.576609046,2368.66780066 197.229174958,2368.24974865 197.232658668,2340.9277371 197.237257818,2322.99148224 " mydata_rot="-12.0" mydata_centroid="204.287616843,2345.44829056"/>
  <polygon id="230255295" class="tile" points="239.533480271,2323.74785539 238.061875267,2390.92339745 238.527527609,2393.30223521 239.727971077,2395.97597661 242.233214082,2397.90107738 305.490882927,2398.51135067 305.548426992,2490.08176153 240.440668377,2485.90711802 230.461179793,2483.80713359 222.605728416,2473.02227249 217.338551085,2464.24192165 213.95714812,2455.61415792 212.673661191,2448.22219778 214.29553342,2348.77111986 214.509778742,2344.9444983 215.253973784,2341.37632582 216.690759674,2338.27855983 218.382372904,2334.6485016 220.677142297,2330.72400354 223.629276898,2326.79180704 226.848422373,2322.99148224 239.533480271,2323.74785539 " mydata_rot="52.5" mydata_centroid="254.926295974,2427.44068522"/>
  <polygon id="255352373" class="tile" points="306.565295394,2347.11520082 330.631260325,2347.10503245 330.62952895,2335.34162887 330.474483109,2322.99148224 306.548426992,2323.00070966 306.565295394,2347.11520082 " mydata_rot="61.1" mydata_centroid="318.573533094,2335.06494931"/>
  <polygon id="442637468" class="tile" points="349.901719665,2322.99148224 354.758871048,2331.19037666 354.792736581,2350.2719289 331.631260325,2350.94794282 331.63980794,2331.77919977 349.901719665,2322.99148224 " mydata_rot="-17.6" mydata_centroid="343.596348173,2338.83690309"/>
  <polygon id="221214062" class="tile" points="355.92345939,2340.55996393 367.48074339,2336.26431972 367.484551636,2322.99148224 355.792736581,2323.10924063 355.92345939,2340.55996393 " mydata_rot="8.0" mydata_centroid="361.405459605,2330.76862577"/>
  <polygon id="201018716" class="tile" points="386.305260624,2427.46623183 377.982182678,2427.44673625 368.558437512,2427.42457055 368.484551636,2324.60621574 386.118038211,2324.52821384 386.060171409,2322.99979161 392.913476799,2322.99148224 392.973802248,2334.68753235 392.87311675,2366.51776886 386.365878551,2366.493269 386.334368142,2397.30987482 386.311476103,2421.24581061 386.307866509,2422.20023765 386.305260624,2427.46623183 " mydata_rot="10.7" mydata_centroid="379.082979668,2371.72169667"/>
  <polygon id="201149333" class="tile" points="416.149945302,2368.24114319 416.525510048,2385.43164941 393.973802248,2386.14144348 394.020693975,2323.68948896 395.299608535,2323.35465738 407.598538904,2323.11657339 414.560928817,2322.99148224 415.51775298,2352.21734517 400.344640681,2352.78064286 400.45945616,2355.87335129 398.594012068,2355.94437332 399.186591526,2371.12657694 413.387420835,2370.59239191 413.297631085,2368.34778991 416.149945302,2368.24114319 " mydata_rot="9.2" mydata_centroid="404.076259597,2353.10881234"/>
  <polygon id="229891249" class="tile" points="439.226000802,2323.56751553 420.808351208,2322.99148224 417.525510048,2338.11775093 417.624747581,2341.29702315 419.022390287,2342.97610902 422.249318685,2344.70021825 427.516501427,2345.07613959 439.249327175,2345.0087759 439.226000802,2323.56751553 " mydata_rot="56.7" mydata_centroid="429.061525981,2334.27856108"/>
  <polygon id="273617494" class="tile" points="440.249327175,2323.25248741 452.814160375,2322.99148224 452.795611582,2346.64526423 440.89048039,2346.73204356 440.249327175,2323.25248741 " mydata_rot="-70.2" mydata_centroid="446.69312217,2334.79897697"/>
  <polygon id="376406582" class="tile" points="468.964080852,2323.02254681 453.848708273,2322.99148224 453.814160375,2366.3271522 468.928646563,2366.35159666 468.964080852,2323.02254681 " mydata_rot="82.5" mydata_centroid="461.388706803,2344.67298109"/>
  <polygon id="422898042" class="tile" points="469.964080852,2323.04948073 469.978024974,2326.92828299 470.007343673,2331.68683363 470.029285964,2334.12441942 470.041125652,2336.30805841 470.040994074,2338.79430494 470.029907566,2341.09222617 470.0185368,2343.41202117 470.0081003,2345.45353898 469.994538323,2347.73566881 469.982680964,2349.88655564 469.988641397,2350.87204712 474.660682911,2350.83511358 476.836934631,2350.83951744 481.757621142,2350.84936614 481.757217292,2350.46780264 481.75959401,2345.74563239 481.76069997,2343.59720275 481.752189707,2341.36373439 481.754229969,2338.93702758 481.755903803,2336.74485011 481.756036965,2334.25860431 481.768179043,2332.08584392 481.769366315,2329.72475831 481.770269313,2327.38554644 481.768128841,2325.07429095 481.768381239,2322.99148224 477.018876811,2323.00794552 474.855849301,2323.01687467 469.964080852,2323.04948073 " mydata_rot="-65.6" mydata_centroid="475.885682698,2336.92302264"/>
  <polygon id="442637499" class="tile" points="482.770269313,2370.88335508 503.141089833,2370.86442409 503.138320505,2351.7134492 505.940694897,2351.71120717 505.941180616,2335.15680275 502.490868778,2335.16354035 502.486227736,2322.99148224 495.738082724,2322.99239978 495.738487849,2335.51451471 482.773347782,2335.52262127 482.770269313,2370.88335508 " mydata_rot="-82.1" mydata_centroid="494.200463513,2350.2821668"/>
  <polygon id="301510370" class="tile" points="520.761469347,2352.01800381 520.573279983,2328.88757667 521.503685619,2326.01105906 523.463974259,2323.94452101 526.013298779,2323.63347345 551.440241426,2323.10874839 551.563977413,2325.73587866 555.898618387,2325.73573664 556.050859436,2323.05444804 580.067399846,2322.99148224 582.239173157,2325.87371069 584.387435357,2329.64719087 588.94907866,2337.22716722 589.002124449,2347.66291655 590.215390205,2362.56353876 590.468950385,2370.68696915 590.444742267,2379.58143221 587.76228631,2389.49931766 567.753625027,2414.61128826 563.670971455,2416.26293461 558.433593724,2422.80818705 543.098927846,2408.50375279 543.564731118,2394.33473789 533.809119335,2385.6563815 506.941180616,2385.75369102 506.956658861,2359.20487054 515.278889264,2359.07283389 520.761469347,2352.01800381 " mydata_rot="7.1" mydata_centroid="553.301409058,2364.82026512"/>
  <polygon id="373350939" class="tile" points="45.7141716767,2643.43391492 43.9002390828,2646.3570061 41.4609676044,2648.83895126 38.6395220473,2649.31350507 7.18421878181,2641.96181441 5.50478901677,2640.82014273 4.20209393129,2638.89644234 3.94319662303,2637.73809361 4.04245712869,2635.77785291 4.4374887161,2634.33291566 4.3255651664,2633.51497303 3.52434290461,2633.10378 0.0980174861848,2632.34073634 4.24767388143,2594.31910718 8.56069540344,2594.27034128 7.57567907609,2576.41442837 5.20218721144,2558.81801195 0.404522993043,2523.03704465 0.0,2520.67400952 0.162236871198,2518.43671426 0.658298102394,2516.83439762 2.3617270086,2514.86425242 43.6385063756,2490.08176153 56.079799173,2511.43503441 63.9195536345,2543.82730927 62.2957813807,2547.99955181 55.4952338085,2549.82462904 56.3353351716,2554.04678677 52.2225949053,2555.26389326 51.6416494858,2556.16880875 52.4665388178,2559.35731245 53.6031215183,2559.55519874 57.2610670265,2558.70489992 60.1642785095,2570.15676577 61.714678074,2582.43074772 62.0921326887,2589.27675053 62.2548683725,2596.6198756 61.7446781807,2603.20556813 60.949069446,2610.20330899 56.0850833092,2609.56500298 54.8636113565,2617.87676788 52.1170683704,2627.03499148 49.2409579933,2635.10995756 45.7141716767,2643.43391492 " mydata_rot="-57.3" mydata_centroid="31.421437689168588,2571.7674854"/>
</svg>