<svg xmlns="http://www.w3.org/2000/svg" version="1.1" width="592.5px" height="1200px">
  <polygon id="1" class="bin" points="-146.2500005,1203.749999 -147.348350071,1206.40164943 -150.0000005,1207.499999 -446.2499995,1207.499999 -448.901649929,1206.40164943 -449.9999995,1203.749999 -449.9999995,3.75 -448.901649929,1.09834957055 -446.2499995,0.0 -186.139021877,0.0 -183.914279819,0.731221641742 -182.557153516,2.63972118598 -171.46438248,38.4260886344 -171.41632619,38.5950136229 -167.53913959,53.5457099854 -167.459877467,53.9353089104 -164.498396866,73.8439398419 -162.815922386,77.140731952 -159.48389334,78.7522967287 -149.527718468,80.0162602163 -147.186323402,81.2573447879 -146.2500005,83.7364013 -146.2500005,202.051418187 -147.340492937,204.695188132 -155.201766239,212.603257383 -157.755462682,213.707994342 -160.367411179,212.749070821 -211.233481938,167.051436577 -215.278512626,165.580792856 -219.212508845,167.326856992 -263.276261415,212.781490023 -264.892887352,216.929988014 -263.05723023,220.98632601 -210.569792624,269.644392083 -206.94673469,271.179829793 -203.178952171,270.044958591 -196.576536177,265.136691187 -194.143999264,264.401278512 -191.801133655,265.385681059 -147.461874825,306.153000165 -146.2500005,308.913510635 -146.2500005,376.012803429 -147.30706506,378.622515811 -159.825433259,391.540091556 -161.440998096,395.695995198 -159.593884329,399.754289859 -149.387651282,409.162378718 -148.202601991,411.502227538 -148.840614909,414.046274283 -150.9895805,415.549996734 -153.598246294,415.277788913 -153.977571032,415.089269864 -157.064673701,414.373665574 -220.22576737,414.731813744 -224.288843083,416.4481808 -225.937398976,420.539239781 -225.389045831,470.562047285 -224.963093225,472.867781905 -215.467757277,498.529922665 -215.304561002,500.551595547 -217.614511457,512.352825496 -217.733214516,513.315827998 -218.697438082,531.843499777 -219.619268264,534.116923162 -221.749280595,535.333998443 -228.178973871,536.543191636 -230.748322675,537.599061641 -240.687292162,544.310406756 -243.652974541,550.186238239 -241.749644321,595.445428949 -241.752397968,595.816188604 -242.37174273,606.692480732 -240.774527281,610.994528578 -236.531090723,612.741514278 -188.176389055,611.68556295 -185.472768392,612.753450829 -184.344518181,615.432443304 -184.215786342,832.316958612 -182.640752323,836.271410627 -178.780376292,838.064709207 -149.788469909,839.70269725 -147.27458863,840.870948891 -146.2500005,843.446726471 -146.2500005,877.312391737 -147.349299528,879.964991284 -150.002685492,881.062390776 -156.263090471,881.057908339 -160.325845186,882.736431034 -161.844939571,886.39045567 -165.309950112,888.70090588 -207.626553351,888.674681508 -211.689770255,890.354254055 -213.376144996,894.41465253 -213.386792204,904.507237158 -213.673591981,905.941599085 -214.461109569,907.837792722 -214.481373799,926.009039388 -214.509458627,984.593705771 -212.828859698,988.657118532 -208.767400124,990.342432352 -149.997445841,990.382468945 -147.347447016,991.481721007 -146.2500005,994.132468074 -146.2500005,1203.749999 " moovel_rot="0" moovel_centroid="-313.52994746326743,611.4180510868373" moovel_centroidlatlon="0,0"/>
  <polygon id="386765802" class="tile" points="53.5962321129,1371.4967754 70.3834674176,1363.55678443 90.8448650679,1318.27223407 90.9750946628,1215.43305236 82.8123183554,1201.0 1.0,1238.15499106 50.4462528273,1363.50677998 53.5962321129,1371.4967754 " moovel_rot="-83.2" moovel_centroid="55.99936099489455,1278.3394155741792" moovel_centroidlatlon="4.956382392711322,52.29211965401619"/>
  <polygon id="448022256" class="tile" points="108.929995354,1288.72421152 115.755552608,1288.28338634 119.691692233,1286.85404408 121.120041271,1202.1154213 91.9750946628,1201.0 91.9750946628,1255.54209771 102.453339397,1255.94284788 109.169871332,1256.00963957 108.929995354,1288.72421152 " moovel_rot="-90" moovel_centroid="107.788205556,1236.5473487974048" moovel_centroidlatlon="4.879672487727882,52.3355465716219"/>
  <polygon id="181176617" class="tile" points="123.775287591,1201.0 155.591122334,1203.06077452 155.681300635,1232.39740273 153.283980606,1264.92207945 122.162239261,1264.12474858 122.120041271,1230.92090835 123.775287591,1201.0 " moovel_rot="31.8" moovel_centroid="138.726317727,1233.1431022022136" moovel_centroidlatlon="4.967823439354409,52.303457580643645"/>
  <polygon id="180890971" class="tile" points="162.584137351,1214.7498809 162.578949647,1201.00096766 156.681300635,1201.0 156.686491513,1214.74890711 162.584137351,1214.7498809 " moovel_rot="27.4" moovel_centroid="159.632720005,1207.8749383018871" moovel_centroidlatlon="4.954774199999999,52.30754114999999"/>
  <polygon id="192252073" class="tile" points="163.6279205,1201.0 210.39133783,1201.51467528 211.015717443,1232.27366973 204.572527603,1232.10494887 204.587602324,1265.71998835 210.150379048,1265.31960981 211.258407371,1277.86395983 178.257453103,1299.34385086 163.584137351,1298.61015029 163.6279205,1201.0 " moovel_rot="1.5" moovel_centroid="185.057202446,1246.7974939309856" moovel_centroidlatlon="4.834410676375546,52.39091868321238"/>
  <polygon id="230165258" class="tile" points="220.845844454,1201.0 247.015266796,1202.14883512 247.038176708,1242.23433704 244.108895014,1252.12100523 212.481179338,1244.01023633 212.258407371,1226.43729563 220.883861025,1225.93136107 220.845844454,1201.0 " moovel_rot="30.6" moovel_centroid="232.062832851,1226.4728549651134" moovel_centroidlatlon="4.970549589944483,52.298780555275286"/>
  <polygon id="89433992" class="tile" points="248.077788341,1260.11254941 248.038176708,1201.0 265.628365553,1202.06013407 265.449660183,1258.81192551 248.077788341,1260.11254941 " moovel_rot="-38.8" moovel_centroid="256.739169544,1230.4354857495646" moovel_centroidlatlon="4.8932644767459195,52.40228329825752"/>
  <polygon id="309038335" class="tile" points="266.628365553,1201.03116585 274.032611151,1201.0 281.371628391,1201.51846711 281.235830951,1225.6271315 273.727763305,1225.5054403 266.660211838,1224.58502918 266.628365553,1201.03116585 " moovel_rot="-15.2" moovel_centroid="274.001893227,1213.203650575476" moovel_centroidlatlon="4.893422551059441,52.407523841392"/>
  <polygon id="179918188" class="tile" points="282.37205903,1206.87494843 282.371628391,1201.0 305.800123377,1205.36948488 294.223128494,1265.26436363 289.551329507,1263.89190596 298.99502999,1210.82871155 282.37205903,1206.87494843 " moovel_rot="-19.6" moovel_centroid="295.972689319,1226.769543935953" moovel_centroidlatlon="4.925323411019012,52.388011722103485"/>
  <polygon id="157151075" class="tile" points="343.259420137,1254.96397367 313.064859868,1201.0 306.888744411,1204.54440441 323.2653923,1232.3771412 324.042943537,1234.32528662 323.779098904,1237.56057672 323.488504551,1239.89457582 322.114504493,1241.73284291 321.823910007,1244.06684201 321.903762792,1246.75736257 323.056715161,1249.22893519 323.659744097,1251.54309428 324.654025404,1254.91477895 324.548655934,1257.61079677 324.279656901,1260.3049889 321.547114435,1264.86978502 319.660240574,1267.43157757 316.33001541,1269.86247292 312.653107047,1271.26793045 308.580598308,1273.67408148 307.402122603,1276.22153138 306.800123377,1279.82100953 307.075505267,1283.22071275 307.895462369,1286.59757124 309.275851229,1291.22071539 309.551428627,1294.25957884 309.271532961,1296.95409437 308.981135536,1299.29476974 309.066140114,1302.15887227 309.16184457,1305.3834912 309.394820629,1306.98696527 315.602928292,1317.38049387 322.948768393,1335.97929763 337.785698109,1327.73424276 329.645144714,1314.32429697 327.225738025,1310.33338009 319.280496397,1297.25842522 318.145177843,1295.38103708 315.947846259,1292.9939178 315.286363294,1288.71027099 316.433133699,1285.0946244 317.928359836,1281.46195378 345.469866985,1264.77452847 347.004905261,1261.74874831 343.259420137,1254.96397367 " moovel_rot="-91.7" moovel_centroid="324.04635167,1273.5362846742073" moovel_centroidlatlon="4.968006793323302,52.32250684021654"/>
  <polygon id="420524996" class="tile" points="354.34631864,1201.14854802 348.124250073,1201.0 348.004905261,1315.20815906 354.31180928,1315.52343377 354.34631864,1201.14854802 " moovel_rot="18.6" moovel_centroid="351.197481068,1258.3492109560088" moovel_centroidlatlon="4.791644576329292,52.361618279583325"/>
  <polygon id="254310733" class="tile" points="355.405039307,1201.00265046 360.985722569,1201.0 360.927001234,1268.91536707 355.34631864,1268.91802472 355.405039307,1201.00265046 " moovel_rot="-5.3" moovel_centroid="358.166020389,1234.9590098775984" moovel_centroidlatlon="4.8404167,52.368643500000005"/>
  <polygon id="26367857" class="tile" points="424.653740501,1201.09907461 378.236890718,1201.0 376.14024982,1209.97928313 361.985722569,1324.25043192 362.854248323,1336.76496624 371.06467045,1341.0214177 406.919606566,1348.18793794 424.382465457,1352.20899422 424.706717091,1352.46829008 424.337233877,1268.04646577 424.653740501,1201.09907461 " moovel_rot="20.3" moovel_centroid="396.888660734,1276.8885885920547" moovel_centroidlatlon="4.961460396501456,52.28719972020967"/>
  <polygon id="191754796" class="tile" points="425.706717091,1201.03889436 425.717603386,1222.48849478 441.403681254,1222.44610395 441.387104001,1201.0 425.706717091,1201.03889436 " moovel_rot="-31.3" moovel_centroid="433.553564689,1211.744022641875" moovel_centroidlatlon="4.943639717246742,52.399216995903956"/>
  <polygon id="162943746" class="tile" points="443.635020092,1201.00961634 447.965260767,1201.0 447.863059081,1344.81247375 447.89703909,1371.94575647 442.838431172,1372.15575685 442.403681254,1266.28516569 443.635020092,1201.00961634 " moovel_rot="29.6" moovel_centroid="445.33114775,1287.8569981488206" moovel_centroidlatlon="4.959682544650616,52.31984037180364"/>
  <polygon id="421455312" class="tile" points="448.965260767,1214.75376767 460.167626651,1214.19359807 465.234906388,1214.26464854 464.832608959,1201.79240985 474.025214889,1201.0 474.500983686,1206.59835218 474.768455494,1239.87617259 474.743911447,1241.80447332 471.262347352,1241.83249619 470.107501495,1251.97497987 470.224554091,1264.87738036 470.27197206,1270.73617019 470.792934028,1275.0038555 449.005834521,1275.54096469 448.965260767,1214.75376767 " moovel_rot="-61.3" moovel_centroid="461.460193613,1240.609989143995" moovel_centroidlatlon="4.9859708781677705,52.31131068547367"/>
  <polygon id="254313208" class="tile" points="476.209777251,1278.44491976 492.394010883,1278.24340046 506.284482405,1278.21024674 506.413334283,1201.0 475.768455494,1201.43378582 476.209777251,1278.44491976 " moovel_rot="-89.2" moovel_centroid="491.174874774,1239.6327187129812" moovel_centroidlatlon="4.837514964872049,52.362726314126355"/>
  <polygon id="230125056" class="tile" points="508.889932148,1203.0630538 507.413334283,1226.97182511 514.055334348,1227.13592916 512.137130499,1289.80521468 511.791582912,1294.51987367 542.403733322,1295.54764977 542.424177804,1201.0 508.889932148,1203.0630538 " moovel_rot="-61.3" moovel_centroid="527.077748998,1247.4027487435324" moovel_centroidlatlon="4.975365273328046,52.299083416251584"/>
  <polygon id="391615677" class="tile" points="573.273150792,1245.24949759 573.273150792,1201.35399598 543.424177804,1201.0 543.424177804,1226.43427726 551.644110732,1226.43427726 552.003868749,1246.49850228 573.273150792,1245.24949759 " moovel_rot="-90" moovel_centroid="559.780810374,1221.757386637477" moovel_centroidlatlon="4.865355621971407,52.32861766316958"/>
  <polygon id="323875515" class="tile" points="0.0,1478.88941643 31.8244353656,1478.41825191 29.8742385674,1372.15575685 0.0840753016993,1372.29855935 0.0,1478.88941643 " moovel_rot="-88.9" moovel_centroid="15.443397184921311,1426.02697954" moovel_centroidlatlon="4.888369645094392,52.32620696771996"/>
  <polygon id="406512507" class="tile" points="77.7265057383,1450.25733516 79.3968843991,1375.296337 33.8244353656,1372.15575685 33.8408604698,1440.6191274 43.3926832087,1441.29757214 44.1389554076,1449.75457656 50.7487244179,1449.90757614 50.9454859482,1445.68978148 70.8752065096,1445.97933684 70.8821333535,1450.15716943 77.7265057383,1450.25733516 " moovel_rot="78.9" moovel_centroid="56.4206063103,1409.7432753" moovel_centroidlatlon="4.818324461596544,52.42233732290738"/>
  <polygon id="181176615" class="tile" points="80.3968843991,1372.15575685 90.573281601,1372.17246513 90.5869042927,1415.66285109 80.4159083856,1415.63663481 80.3968843991,1372.15575685 " moovel_rot="29.6" moovel_centroid="85.4934295399,1393.90500218" moovel_centroidlatlon="4.9694202882149945,52.30402994113986"/>
  <polygon id="188626535" class="tile" points="131.826467958,1372.15575685 131.736061738,1440.37633666 122.67769534,1440.34229608 91.5869042927,1383.31619939 131.826467958,1372.15575685 " moovel_rot="18.6" moovel_centroid="117.900861846,1402.21059032" moovel_centroidlatlon="4.808846321750335,52.340196147843955"/>
  <polygon id="284529466" class="tile" points="132.908507434,1385.82219456 132.826467958,1437.90231432 174.489810868,1436.83076011 173.746548706,1372.31040211 156.83325623,1372.15575685 156.47759609,1385.86623056 132.908507434,1385.82219456 " moovel_rot="22.4" moovel_centroid="154.623406915,1408.45215785" moovel_centroidlatlon="4.918986294483858,52.33506420222859"/>
  <polygon id="33462611" class="tile" points="204.070251728,1444.89561954 175.489810868,1416.10079433 219.681258043,1372.69020825 253.318609088,1372.15575685 256.919035573,1377.58626558 256.683503316,1564.42301102 225.670323522,1442.71129162 204.070251728,1444.89561954 " moovel_rot="-76.2" moovel_centroid="230.948591278,1432.20962576" moovel_centroidlatlon="4.9306244405870086,52.3837258870362"/>
  <polygon id="353543213" class="tile" points="257.919035573,1427.24384278 260.203678847,1372.15575685 308.224227607,1375.1858534 308.255681453,1428.88065604 257.919035573,1427.24384278 " moovel_rot="-64.9" moovel_centroid="283.533145395,1401.07175837" moovel_centroidlatlon="4.963633020929569,52.390665527172665"/>
  <polygon id="185682296" class="tile" points="309.255681453,1372.15575685 316.412845205,1372.1666157 316.422123134,1405.28330149 309.264969514,1405.27242436 309.255681453,1372.15575685 " moovel_rot="29.0" moovel_centroid="312.838905155,1388.71952069" moovel_centroidlatlon="4.9186470500000015,52.3858683"/>
  <polygon id="46879243" class="tile" points="317.435325785,1372.15575685 368.345746583,1372.15732153 368.338509804,1440.35656241 317.422123134,1440.34399085 317.435325785,1372.15575685 " moovel_rot="-60.7" moovel_centroid="342.886110986,1406.25407408" moovel_centroidlatlon="4.955819870995049,52.313087016319614"/>
  <polygon id="187059559" class="tile" points="369.345746583,1399.12795269 369.363122507,1372.15806258 374.180462374,1372.15575685 374.173788544,1399.13266575 369.345746583,1399.12795269 " moovel_rot="-88.2" moovel_centroid="371.765882314,1385.64859904" moovel_centroidlatlon="4.853528450375712,52.39461642262779"/>
  <polygon id="441953519" class="tile" points="375.241083628,1408.92831729 375.180462374,1372.15575685 387.612566741,1372.44326958 387.29324429,1408.69570409 375.241083628,1408.92831729 " moovel_rot="-70.2" moovel_centroid="381.317666755,1390.46083949" moovel_centroidlatlon="4.9649882651807635,52.28352254266261"/>
  <polygon id="438408446" class="tile" points="413.123514085,1373.42110988 388.612566741,1372.15575685 388.647337754,1408.35193002 412.427903868,1408.7333101 413.123514085,1373.42110988 " moovel_rot="34.4" moovel_centroid="400.655341884,1390.5727724" moovel_centroidlatlon="4.948709553768734,52.421167579900604"/>
  <polygon id="112689093" class="tile" points="414.31798858,1372.15575685 445.80111353,1372.30400249 445.851789192,1421.29968798 425.506741808,1421.8401038 418.939403052,1418.38930825 414.123514085,1418.53290917 414.31798858,1372.15575685 " moovel_rot="1.8" moovel_centroid="430.188401327,1396.56147089" moovel_centroidlatlon="4.855530570837001,52.396550051661094"/>
  <polygon id="157151077" class="tile" points="461.87293924,1393.26921954 461.885662876,1372.15575685 446.867736653,1372.1747788 446.851789192,1393.29409119 461.87293924,1393.26921954 " moovel_rot="-60.9" moovel_centroid="454.369185284,1382.72383934" moovel_centroidlatlon="4.966830017502151,52.32253680107454"/>
  <polygon id="174998125" class="tile" points="463.390217141,1502.10624266 462.885662876,1372.30186054 468.874342715,1372.15575685 468.677030602,1501.64156273 463.390217141,1502.10624266 " moovel_rot="52.3" moovel_centroid="465.953928389,1435.70723091" moovel_centroidlatlon="4.887745302276809,52.41174822899746"/>
  <polygon id="216268750" class="tile" points="469.882318273,1372.15575685 469.874342715,1414.29630113 501.962086183,1414.35172937 501.970087469,1372.21110637 469.882318273,1372.15575685 " moovel_rot="18.1" moovel_centroid="485.922213658,1393.25372063" moovel_centroidlatlon="4.788880699999999,52.35781914999999"/>
  <polygon id="317495534" class="tile" points="514.003669738,1372.15575685 513.99188695,1447.05618098 507.888551303,1447.36006134 507.94680223,1439.84679048 503.464310175,1439.81275823 502.970087469,1387.69287879 508.100074493,1387.6734306 508.232040249,1372.2319041 514.003669738,1372.15575685 " moovel_rot="28.9" moovel_centroid="509.077524831,1411.12606181" moovel_centroidlatlon="4.960284107419128,52.324214677624425"/>
  <polygon id="28683601" class="tile" points="0.24220676478,1817.75418795 0.819694332406,1783.7019138 0.607502852753,1779.41570276 0.0,1565.0901076 63.0226123452,1564.42301102 63.3321466103,1603.97024532 78.9946087796,1603.96368153 79.0160613086,1608.52680703 79.2913680704,1651.56055322 62.649963369,1652.56374124 60.6657601984,1817.81879376 0.24220676478,1817.75418795 " moovel_rot="-88.9" moovel_centroid="33.14725907528823,1687.1726969" moovel_centroidlatlon="4.830431853286503,52.341743100318915"/>
  <polygon id="370462513" class="tile" points="81.3459851321,1617.6868053 87.5434707319,1617.72285027 91.1076174557,1617.74505761 92.0566211635,1564.60363921 81.2913680704,1564.42301102 81.3459851321,1617.6868053 " moovel_rot="-68.9" moovel_centroid="86.4522642633,1590.68043985" moovel_centroidlatlon="4.967579949640988,52.29234721892155"/>
  <polygon id="147496480" class="tile" points="119.700172538,1689.48915176 118.385846634,1580.32094286 93.0566211635,1581.65465555 124.77187461,1564.42301102 124.722623303,1689.97406652 119.700172538,1689.48915176 " moovel_rot="-61.5" moovel_centroid="119.70827979,1616.50672054" moovel_centroidlatlon="4.927487428655509,52.338961796382996"/>
  <polygon id="277712460" class="tile" points="125.793043818,1564.44268004 125.77187461,1592.618888 142.026518295,1592.59918242 142.047711699,1564.42301102 125.793043818,1564.44268004 " moovel_rot="-33.5" moovel_centroid="133.909785349,1578.52093687" moovel_centroidlatlon="4.777545800000001,52.35220820000001"/>
  <polygon id="192250192" class="tile" points="143.047711699,1643.64161857 143.112525463,1564.42301102 159.670183759,1564.43548891 159.605361636,1643.6540962 143.047711699,1643.64161857 " moovel_rot="-88.2" moovel_centroid="151.358945638,1604.03855034" moovel_centroidlatlon="4.848055149999995,52.38933409999999"/>
  <polygon id="255761053" class="tile" points="160.695998508,1564.42301102 165.040822962,1564.63739141 166.102070763,1657.58070757 160.670183759,1657.61827571 160.695998508,1564.42301102 " moovel_rot="1.1" moovel_centroid="163.135687451,1612.7919355" moovel_centroidlatlon="4.835965522421629,52.365309900288544"/>
  <polygon id="171470009" class="tile" points="172.69866544,1579.02861237 167.104401494,1579.01514177 167.102070763,1564.42301102 172.696341069,1564.43647797 172.69866544,1579.02861237 " moovel_rot="60.2" moovel_centroid="169.900369808,1571.7258094" moovel_centroidlatlon="4.8605426000000005,52.39619079999999"/>
  <polygon id="386513619" class="tile" points="190.995999689,1564.42301102 180.65535716,1565.13798554 177.244639151,1572.06795149 173.69866544,1573.62031557 177.843384266,1613.12237947 184.417286761,1610.08839667 190.929938442,1613.32571301 190.995999689,1564.42301102 " moovel_rot="-77.6" moovel_centroid="183.503927068,1588.22990198" moovel_centroidlatlon="4.867337992810353,52.34408802002132"/>
  <polygon id="405596860" class="tile" points="193.564193984,1564.49269956 208.505397166,1564.42301102 211.048063663,1567.04614702 211.005628448,1623.09715173 205.813676128,1629.47336582 198.48582017,1629.01734134 192.330699116,1623.12974566 191.995999689,1569.12912379 193.564193984,1564.49269956 " moovel_rot="-0.1" moovel_centroid="201.62080261,1596.00907226" moovel_centroidlatlon="4.870591699177771,52.33253560232277"/>
  <polygon id="296423586" class="tile" points="212.048063663,1565.51749954 228.576883428,1564.42301102 228.563036886,1590.52019497 213.352392177,1590.82147212 212.048063663,1565.51749954 " moovel_rot="24.3" moovel_centroid="220.668357098,1577.6384985" moovel_centroidlatlon="4.836155807267559,52.35459904649773"/>
  <polygon id="179917471" class="tile" points="229.576883428,1564.4624825 235.140384204,1564.42301102 236.818399909,1666.97042511 236.558828431,1703.35687435 229.58722329,1702.29911215 230.134902627,1602.47068888 229.576883428,1564.4624825 " moovel_rot="-15.3" moovel_centroid="233.035762041,1637.23045318" moovel_centroidlatlon="4.945566467037656,52.38512643547009"/>
  <polygon id="146735239" class="tile" points="282.861768117,1564.42301102 284.878598161,1614.87409003 237.818399909,1617.45581892 237.846314417,1566.87234047 282.861768117,1564.42301102 " moovel_rot="54.2" moovel_centroid="260.853383224,1591.09341273" moovel_centroidlatlon="4.935248415604905,52.39760903819069"/>
  <polygon id="147561244" class="tile" points="285.924104829,1717.73047382 291.65851552,1718.07105505 291.430133818,1733.03068723 311.239824796,1732.90217341 311.289569195,1718.17322964 316.493659039,1717.00819224 317.500033256,1577.44993405 312.174655625,1575.56000897 310.579291459,1564.42301102 290.004631907,1565.86084927 288.574908421,1575.86953403 285.878598161,1576.53724976 285.924104829,1717.73047382 " moovel_rot="-89.0" moovel_centroid="301.395848377,1647.62019619" moovel_centroidlatlon="4.944124968289638,52.368121842784966"/>
  <polygon id="391615680" class="tile" points="318.534299627,1626.77655843 318.500033256,1564.61249684 351.195432655,1564.42301102 351.240013282,1624.61674462 318.534299627,1626.77655843 " moovel_rot="-89.7" moovel_centroid="334.779701541,1595.1121606" moovel_centroidlatlon="4.865723343888032,52.32813330461434"/>
  <polygon id="179918962" class="tile" points="358.117985424,1748.19251644 352.355812878,1748.17168797 352.604784219,1628.16461604 352.240013282,1564.6908383 357.517263907,1564.42301102 358.172149327,1677.77680192 358.117985424,1748.19251644 " moovel_rot="-40.6" moovel_centroid="355.213992457,1658.17670862" moovel_centroidlatlon="4.914917543683027,52.38284747534912"/>
  <polygon id="191747034" class="tile" points="364.117764424,1610.60142721 359.172149327,1610.40819867 359.234541838,1564.42301102 364.066881326,1564.48309251 364.117764424,1610.60142721 " moovel_rot="-38.2" moovel_centroid="361.648975088,1587.56789168" moovel_centroidlatlon="4.932030614665802,52.399339553219015"/>
  <polygon id="230165079" class="tile" points="371.006252713,1564.42301102 365.117764424,1593.18929936 373.25275735,1594.58860325 367.035583465,1621.21643677 399.494057517,1628.35818222 404.739177272,1603.4711927 398.887990427,1602.10896839 404.723887242,1571.44679555 371.006252713,1564.42301102 " moovel_rot="39.6" moovel_centroid="385.500364823,1596.00438044" moovel_centroidlatlon="4.971374200859159,52.299773445050086"/>
  <polygon id="148003437" class="tile" points="411.015421608,1638.86606786 438.944310705,1648.1962732 438.93534316,1564.42301102 412.257694671,1566.25013463 411.825746656,1574.58467646 408.120150614,1574.92990259 405.739177272,1613.32316568 411.794258191,1613.80114969 411.015421608,1638.86606786 " moovel_rot="-40.4" moovel_centroid="424.304347749,1603.97778842" moovel_centroidlatlon="4.909810757754282,52.370024751284035"/>
  <polygon id="207763517" class="tile" points="439.944310705,1631.32063879 440.032777239,1564.42301102 452.114809696,1564.79233008 452.11902437,1631.68146108 439.944310705,1631.32063879 " moovel_rot="-60.2" moovel_centroid="446.052533152,1598.09695002" moovel_centroidlatlon="4.957325294819871,52.308281382190415"/>
  <polygon id="148315277" class="tile" points="458.303983875,1566.17468029 456.140007414,1569.28382553 453.911736098,1574.05635287 453.11902437,1578.73426917 455.573238821,1583.1990118 458.520023209,1587.38578604 462.134079653,1589.26750986 464.569932813,1590.64281115 467.194167814,1591.07489199 472.184685911,1589.43633895 474.84123545,1586.0492426 475.573818974,1582.23582443 475.572597703,1575.0195755 474.178349685,1570.37328497 470.286623102,1565.99240922 466.905828584,1564.42301102 464.699154072,1564.45821866 458.303983875,1566.17468029 " moovel_rot="-10.3" moovel_centroid="465.072330773,1577.61734974" moovel_centroidlatlon="4.94145016997771,52.348138379403785"/>
  <polygon id="392378677" class="tile" points="492.036430625,1564.42301102 495.051634378,1574.99136004 491.254423088,1620.12664153 476.605160388,1619.7509986 476.573818974,1564.72878166 492.036430625,1564.42301102 " moovel_rot="55.1" moovel_centroid="484.961200581,1591.48417101" moovel_centroidlatlon="4.978446183661523,52.303081136370984"/>
  <polygon id="27688145" class="tile" points="496.051634378,1597.72207742 496.313855127,1564.73585691 535.516423982,1564.42301102 535.548671255,1605.81563274 521.980302367,1606.73409395 521.769072628,1596.77249479 496.051634378,1597.72207742 " moovel_rot="-45.2" moovel_centroid="516.964501965,1582.75780759" moovel_centroidlatlon="4.924481300083465,52.370037140832174"/>
  <polygon id="99889939" class="tile" points="544.242460651,1781.57339549 536.601643421,1781.27582036 536.573260837,1569.51306834 536.548671255,1564.42301102 545.254404197,1564.48240145 545.562528984,1577.7161505 544.242460651,1781.57339549 " moovel_rot="-69.6" moovel_centroid="540.769999676,1669.97910005" moovel_centroidlatlon="4.969106066950535,52.29180088894557"/>
  <polygon id="148701625" class="tile" points="551.030054993,1660.87225806 546.665731988,1659.92865803 554.920203658,1617.9789515 547.519740796,1616.40624879 556.650962057,1574.84427367 546.562528984,1572.47857279 548.337711815,1564.42301102 562.357943838,1567.20145305 566.481416633,1569.56901497 568.502414657,1573.86006302 568.213511909,1578.91588995 551.030054993,1660.87225806 " moovel_rot="-77.8" moovel_centroid="556.886942231,1601.41690615" moovel_centroidlatlon="4.786368487978297,52.3912614508615"/>
  <polygon id="7374044" class="tile" points="0.0109028024599,1924.49180901 66.0160243023,1924.48512984 66.0051216496,1817.81879376 52.6711572099,1817.81879376 52.6820598934,1894.00140048 20.6498664094,1894.00140048 20.6498664094,1820.16318223 0.0,1820.1698614 0.0109028024599,1924.49180901 " moovel_rot="-90" moovel_centroid="31.289962741751772,1879.87775983" moovel_centroidlatlon="4.888332357936611,52.33262630758153"/>
  <polygon id="197334479" class="tile" points="98.0880033812,1854.19016569 98.0614174053,1821.61850609 92.8810972482,1818.45491524 87.4615921142,1817.81879376 82.2939461675,1818.51586267 77.8150210101,1821.14552487 74.3297316784,1824.85950757 70.8109959669,1829.21969488 68.6641140396,1835.25519064 68.0160243023,1839.30924974 69.1175406856,1844.43188635 71.0268125717,1848.47527601 73.6653632917,1852.36739655 78.1833460452,1856.74541513 83.5528076662,1858.27385614 88.1489574224,1859.02042925 92.8289391352,1857.5725612 98.0880033812,1854.19016569 " moovel_rot="55.6" moovel_centroid="84.7370625175,1838.40192071" moovel_centroidlatlon="4.773273028608689,52.35376228258776"/>
  <polygon id="26221076" class="tile" points="115.550999507,1851.06746357 115.548725643,1817.81879376 99.0880033812,1817.83947993 99.0903049529,1851.08815721 109.006025429,1851.07250993 115.550999507,1851.06746357 " moovel_rot="-74.9" moovel_centroid="107.319481125,1834.45267358" moovel_centroidlatlon="4.853703561397986,52.367507602138375"/>
  <polygon id="76823260" class="tile" points="153.520459518,1817.81879376 117.714329753,1817.89500749 116.550999507,1864.3716397 153.550462569,1865.19956199 153.520459518,1817.81879376 " moovel_rot="45.1" moovel_centroid="135.390142414,1841.4512015" moovel_centroidlatlon="4.9545936208708214,52.3555631481161"/>
  <polygon id="179919306" class="tile" points="162.479895654,1934.18791226 154.550462569,1934.80082337 154.739757043,1817.89627944 161.477655525,1817.81879376 162.479895654,1934.18791226 " moovel_rot="-40.2" moovel_centroid="158.314942702,1877.75749448" moovel_centroidlatlon="4.916810900014002,52.38421309018838"/>
  <polygon id="128801016" class="tile" points="163.534537075,1846.08648903 163.479895654,1817.92243836 172.14034807,1817.81879376 172.098825756,1846.19703001 170.344923953,1846.11026022 166.863893667,1846.24348288 163.534537075,1846.08648903 " moovel_rot="-60.5" moovel_centroid="167.816049588,1831.99270043" moovel_centroidlatlon="4.945701720211516,52.311746889771776"/>
  <polygon id="373939919" class="tile" points="173.14034807,1817.81879376 201.071156019,1818.56192618 200.44839061,1852.67372649 173.149732217,1852.80051164 173.14034807,1817.81879376 " moovel_rot="54.0" moovel_centroid="186.895527567,1835.39639666" moovel_centroidlatlon="4.915146358816933,52.40806549102582"/>
  <polygon id="386513618" class="tile" points="207.707846832,1817.81879376 203.905461287,1823.34519842 202.100088012,1829.01502293 202.071156019,1856.45718558 214.477613237,1856.05828912 212.130927401,1822.36733265 207.707846832,1817.81879376 " moovel_rot="-81.3" moovel_centroid="207.816023703,1839.36002439" moovel_centroidlatlon="4.868573642202094,52.3442351417553"/>
  <polygon id="282420132" class="tile" points="230.161188428,1927.28402458 235.01054981,1926.99059278 243.120887816,1922.99953922 246.050622484,1919.94082081 248.187849773,1914.93956321 248.747584535,1834.76476702 245.74264244,1825.19234315 242.215539089,1821.76125949 234.323978219,1817.81879376 229.790492516,1818.11443082 221.367657081,1821.61571145 217.789616793,1825.47810297 215.477613237,1832.10789743 215.575988906,1911.63271362 217.773023841,1919.91038602 221.306560709,1923.98273049 230.161188428,1927.28402458 " moovel_rot="-89.6" moovel_centroid="231.977894222,1872.59180441" moovel_centroidlatlon="4.976156517537955,52.29157152710661"/>
  <polygon id="367295825" class="tile" points="249.768115596,1818.2946061 249.747584535,1858.89331856 280.598078514,1855.88436342 280.432517316,1832.79243265 275.246642169,1832.84210621 274.650315555,1817.81879376 249.768115596,1818.2946061 " moovel_rot="52.2" moovel_centroid="264.031860305,1838.6476331" moovel_centroidlatlon="4.921288468994651,52.40556707541254"/>
  <polygon id="188626501" class="tile" points="290.293158324,1817.81879376 320.17020763,1886.50391164 315.015882246,1889.24791893 316.724007234,1892.64664355 283.665287988,1907.69430736 281.598078514,1902.68094507 296.011416254,1892.38959815 300.940072493,1874.36898064 281.682567526,1822.45127381 290.293158324,1817.81879376 " moovel_rot="-68.0" moovel_centroid="300.227166971,1866.99685306" moovel_centroidlatlon="4.807771838930611,52.33922708710804"/>
  <polygon id="156082976" class="tile" points="321.17020763,1817.83660073 321.247253669,1926.20526714 327.2493572,1926.18743232 327.172361399,1817.81879376 321.17020763,1817.83660073 " moovel_rot="-61.0" moovel_centroid="324.209794791,1872.01194793" moovel_centroidlatlon="4.957669349999999,52.30512595"/>
  <polygon id="361257177" class="tile" points="328.26279728,1896.60841448 402.91915636,1896.4919863 402.914548024,1817.81879376 328.2493572,1817.92555801 328.262325291,1864.42054838 328.26279728,1896.60841448 " moovel_rot="-73.1" moovel_centroid="365.586955931,1857.21033163" moovel_centroidlatlon="4.8766158390152805,52.397673422857864"/>
  <polygon id="160097300" class="tile" points="417.825194299,1817.81879376 403.91915636,1900.69701544 420.802200468,1911.04743208 424.603256271,1920.57542116 425.472266655,1928.6243067 444.792859855,1932.53094498 448.777531812,1909.93877439 448.786484813,1886.33180198 430.873911109,1819.76012575 417.825194299,1817.81879376 " moovel_rot="-78.2" moovel_centroid="428.037873186,1878.79924258" moovel_centroidlatlon="4.8523560670996115,52.33066502210476"/>
  <polygon id="179918194" class="tile" points="455.981945635,1865.2766744 449.786484813,1865.2850597 449.818282287,1817.83354376 456.002665559,1817.81879376 455.981945635,1865.2766744 " moovel_rot="-28.6" moovel_centroid="452.897410065,1841.56059715" moovel_centroidlatlon="4.924702225071258,52.388046767712154"/>
  <polygon id="270961048" class="tile" points="457.025816297,1855.85715432 459.086690725,1841.44256365 457.002665559,1817.81879376 473.760952029,1820.03344105 474.445919628,1841.94003945 464.23203256,1855.00908914 457.025816297,1855.85715432 " moovel_rot="-86.8" moovel_centroid="465.382971349,1835.35852716" moovel_centroidlatlon="5.017765809834224,52.304553620669594"/>
  <polygon id="349189487" class="tile" points="493.126448022,1868.96894483 493.064565232,1817.81879376 475.810819559,1817.82478043 475.445919628,1868.81699275 493.126448022,1868.96894483 " moovel_rot="-36.8" moovel_centroid="484.366079865,1843.46149658" moovel_centroidlatlon="4.886016840768015,52.403217288720164"/>
  <polygon id="296423577" class="tile" points="494.127089966,1877.16558514 508.343953341,1877.17325468 513.319230248,1877.17993622 513.361756677,1817.8606191 494.126448022,1817.81879376 494.127089966,1877.16558514 " moovel_rot="-89.0" moovel_centroid="503.73285729,1847.49438134" moovel_centroidlatlon="4.8395698772058955,52.359139708989126"/>
  <polygon id="147496479" class="tile" points="514.361756677,1846.02521714 545.027003875,1858.85952206 545.020046239,1824.7836778 526.118797728,1817.81879376 524.655447948,1821.32863349 514.361756677,1846.02521714 " moovel_rot="50.6" moovel_centroid="532.467558568,1838.15389836" moovel_centroidlatlon="4.926774396190837,52.33964582250318"/>
  <polygon id="146480233" class="tile" points="546.027003875,1817.97773858 565.814941741,1817.81879376 565.735138413,1867.2961458 551.484141168,1866.64859359 546.098637975,1857.76100896 546.027003875,1817.97773858 " moovel_rot="-4.6" moovel_centroid="556.156829249,1841.81619097" moovel_centroidlatlon="4.80133135084507,52.34104784950569"/>
  <polygon id="373330835" class="tile" points="574.279498749,1840.22767372 578.936107545,1822.73592575 566.814941741,1817.81879376 566.824396461,1836.48326672 574.279498749,1840.22767372 " moovel_rot="62.0" moovel_centroid="571.841967665,1828.63178983" moovel_centroidlatlon="4.909858075990335,52.38341745685215"/>
  <polygon id="156082322" class="tile" points="580.02797907,1918.05836814 585.067143769,1918.15082663 585.042092022,1818.15308342 579.936107545,1817.81879376 580.02797907,1918.05836814 " moovel_rot="-61.4" moovel_centroid="582.517257359,1867.9355519" moovel_centroidlatlon="4.982759108672898,52.317475590237635"/>
  <polygon id="422581369" class="tile" points="0.0,1959.37842828 0.00965713821352,1934.80504334 8.58316683043,1934.80082337 8.56285846699,1959.37178841 0.0,1959.37842828 " moovel_rot="-77.2" moovel_centroid="4.288851647921995,1947.08647504" moovel_centroidlatlon="4.863513186907725,52.37483393077943"/>
  <polygon id="380689076" class="tile" points="26.3436880847,1965.78416805 13.3960489586,1967.56393564 10.5831668304,1936.87317473 26.3495645477,1934.80082337 26.3440598635,1942.72769081 26.3468552539,1959.58468545 26.3436880847,1965.78416805 " moovel_rot="-93.9" moovel_centroid="19.1414554427,1950.75296703" moovel_centroidlatlon="4.975563158996707,52.29256768039691"/>
  <polygon id="232732469" class="tile" points="27.4040378725,2001.12497598 27.3495645477,1934.84089839 93.0221581299,1934.80082337 93.0657361949,2001.0782218 27.4040378725,2001.12497598 " moovel_rot="-90" moovel_centroid="60.2098214695,1967.96031424" moovel_centroidlatlon="4.987864438708064,52.29972788007332"/>
  <polygon id="157558853" class="tile" points="100.25246883,2072.08303003 94.2838600839,2072.33680422 94.0657361949,1934.80082337 100.284206765,1935.16987026 100.25246883,2072.08303003 " moovel_rot="-15.0" moovel_centroid="97.218954064,2003.1295003" moovel_centroidlatlon="4.902987526135266,52.40896272120907"/>
  <polygon id="194818755" class="tile" points="101.405232553,1934.80082337 107.234313655,1935.16130278 107.884395359,2048.16717117 101.284206765,2048.54840951 101.405232553,1934.80082337 " moovel_rot="-67.3" moovel_centroid="104.451396266,1992.8443674" moovel_centroidlatlon="4.915283991806716,52.33144437130532"/>
  <polygon id="174996482" class="tile" points="108.91057575,1967.19042023 108.884395359,1934.80243147 114.395926073,1934.80082337 114.422098325,1967.18881406 108.91057575,1967.19042023 " moovel_rot="76.6" moovel_centroid="111.653248901,1950.9956183" moovel_centroidlatlon="4.900058250000001,52.403270699999986"/>
  <polygon id="296423597" class="tile" points="115.449221436,1981.31606577 125.866757696,1981.3078956 125.845965839,1951.54900463 149.647993155,1951.53401455 149.630758454,1934.80082337 115.422098325,1934.82413587 115.449221436,1981.31606577 " moovel_rot="-89.2" moovel_centroid="128.358574428,1951.34744235" moovel_centroidlatlon="4.841538642908514,52.35071159157011"/>
  <polygon id="171877115" class="tile" points="155.948726823,1934.80082337 156.236539062,1955.72879899 150.647993155,1955.8502964 150.679953706,1935.31922358 155.948726823,1934.80082337 " moovel_rot="-83.9" moovel_centroid="153.387995856,1945.5251902" moovel_centroidlatlon="4.845377970670071,52.375524388922834"/>
  <polygon id="240341199" class="tile" points="189.552748559,1934.89440849 189.534131825,1966.86052254 173.174675613,1966.81231056 173.162707554,2000.93680574 157.236539062,2000.89131716 157.267007601,1934.80082337 189.552748559,1934.89440849 " moovel_rot="45.2" moovel_centroid="170.574788963,1962.22078023" moovel_centroidlatlon="4.947720793453562,52.35699344610223"/>
  <polygon id="188736709" class="tile" points="206.11919381,1978.64540818 206.097936505,1934.80082337 190.552748559,1934.8474011 190.574040001,1978.69203991 206.11919381,1978.64540818 " moovel_rot="-32.3" moovel_centroid="198.335978116,1956.74641013" moovel_centroidlatlon="4.7939203,52.348242750000004"/>
  <polygon id="367295824" class="tile" points="256.734940169,1935.80690734 256.732227823,1975.57157678 251.961284153,1975.80187244 251.589382626,1987.05712513 242.414529034,1988.31933583 242.035719285,2024.97991886 209.067579809,2027.71073983 207.11919381,1943.20654076 213.610306802,1943.16569653 216.392945271,1942.86871162 216.926959476,1934.80082337 256.734940169,1935.80690734 " moovel_rot="65.4" moovel_centroid="229.749936735,1977.32241399" moovel_centroidlatlon="4.92073316722232,52.404567174094936"/>
  <polygon id="179372174" class="tile" points="264.020639073,1972.09161967 257.734940169,1972.11043703 257.738409986,1934.81118332 264.031055884,1934.80082337 264.020639073,1972.09161967 " moovel_rot="-39.4" moovel_centroid="260.881142841,1953.45008235" moovel_centroidlatlon="4.894294131190428,52.40567494992833"/>
  <polygon id="44898248" class="tile" points="265.051806545,1977.91433045 265.031055884,1934.80265545 271.000463054,1934.80082337 271.02919503,1977.92247067 267.193188063,1977.9540939 265.051806545,1977.91433045 " moovel_rot="-70.2" moovel_centroid="268.028132486,1956.37408451" moovel_centroidlatlon="4.919312227456815,52.34017883141471"/>
  <polygon id="304635023" class="tile" points="272.02919503,1941.70467433 272.030860451,1934.80178158 276.770351359,1934.80082337 276.779558889,1941.7028222 272.02919503,1941.70467433 " moovel_rot="-94.7" moovel_centroid="274.402441128,1938.25384352" moovel_centroidlatlon="4.947636980393864,52.35823692644955"/>
  <polygon id="157092930" class="tile" points="341.653650092,2020.48653527 277.877381576,2013.09969797 277.779558889,1934.80082337 347.249677125,1939.71060613 341.653650092,2020.48653527 " moovel_rot="-56.7" moovel_centroid="311.368207423,1976.48752534" moovel_centroidlatlon="4.952922743317982,52.29170035520074"/>
  <polygon id="414801233" class="tile" points="349.813890371,2156.88145927 350.75305566,2045.64760041 348.249677125,2045.78863402 348.981405775,2022.1529518 353.636213731,2021.33095623 354.646030448,1934.80082337 367.337091983,1934.82651066 366.800466154,2037.12218177 362.151642601,2036.86879238 361.881494629,2054.06553193 367.42287426,2054.51330253 367.192656313,2091.41665029 349.813890371,2156.88145927 " moovel_rot="-89.1" moovel_centroid="358.631395727,2036.34059241" moovel_centroidlatlon="4.807816279347747,52.405164706453824"/>
  <polygon id="75577219" class="tile" points="419.280614885,1934.88025464 368.42287426,1934.80082337 368.473795895,1992.97273183 419.323525536,1993.06000804 419.280614885,1934.88025464 " moovel_rot="45.6" moovel_centroid="393.875774448,1963.9276911" moovel_centroidlatlon="4.9372926978837235,52.34153538340708"/>
  <polygon id="180883342" class="tile" points="420.332452971,1934.80082337 430.588683597,1934.82870138 430.579750748,1947.69396061 420.323525536,1947.66607254 420.332452971,1934.80082337 " moovel_rot="28.3" moovel_centroid="425.456103882,1941.24738891" moovel_centroidlatlon="4.9549249,52.3052656"/>
  <polygon id="169492277" class="tile" points="444.463701066,1993.43344181 431.588683597,1993.41549298 431.628173399,1934.80082337 444.503217965,1934.81876733 444.463701066,1993.43344181 " moovel_rot="79.8" moovel_centroid="438.045944104,1964.11712109" moovel_centroidlatlon="4.7488409,52.406242500000005"/>
  <polygon id="179372996" class="tile" points="445.525612234,1996.13685146 451.40354498,1996.15231698 451.393904717,1934.81487305 445.503217965,1934.80082337 445.525612234,1996.13685146 " moovel_rot="52.3" moovel_centroid="448.456578655,1965.46513717" moovel_centroidlatlon="4.89707179413004,52.40520478696083"/>
  <polygon id="150905257" class="tile" points="452.40354498,1968.47722069 452.418630681,1934.80082337 461.648289771,1934.80357382 471.227454733,1934.80693428 480.915838126,1934.80380617 480.911663098,1968.48690171 471.594660315,1968.48399882 452.40354498,1968.47722069 " moovel_rot="-89.9" moovel_centroid="466.662791845,1951.64432235" moovel_centroidlatlon="4.787425893054058,52.41279692155443"/>
  <polygon id="23624790" class="tile" points="498.81544687,1934.80082337 525.451649716,1935.02141657 525.462357707,1949.37463199 525.309274953,1949.37490095 525.342331352,1984.84707342 515.349685377,1984.82935947 515.331106702,1991.79438555 498.703517287,1991.73256124 498.657131863,2005.88283273 488.195384853,2005.83877258 488.196249914,2006.86161894 481.93212053,2006.83973534 481.915838126,1948.79290826 498.693219139,1948.93454606 498.81544687,1934.80082337 " moovel_rot="-87.6" moovel_centroid="503.097063658,1968.28676897" moovel_centroidlatlon="4.887654275463134,52.41880230366959"/>
  <polygon id="146736632" class="tile" points="548.050763481,1960.62524528 548.033994962,1934.80082337 542.146539606,1934.88275521 538.002183708,1937.0646308 533.913834633,1939.08104136 530.732754086,1941.20859723 528.06412697,1943.50960699 527.177755402,1945.50330405 526.462357707,1947.11687554 548.050763481,1960.62524528 " moovel_rot="18.7" moovel_centroid="540.043648978,1946.15618079" moovel_centroidlatlon="4.936610192328917,52.39316591787909"/>
  <polygon id="160205965" class="tile" points="559.817220951,1934.93876742 549.090520593,1934.80082337 549.100643542,1935.19536833 549.050763481,2080.69016219 578.732725154,2080.67569944 580.085400407,1998.68625727 559.817220951,1934.93876742 " moovel_rot="-88.3" moovel_centroid="562.879295451,2015.89161911" moovel_centroidlatlon="4.797924473514196,52.3681538400248"/>
  <polygon id="373379506" class="tile" points="581.798621081,1969.9143817 590.609197142,1969.66278978 590.638273664,1934.80082337 581.085400407,1935.02586151 581.798621081,1969.9143817 " moovel_rot="-73.9" moovel_centroid="586.02956488,1952.11617477" moovel_centroidlatlon="4.905412788562225,52.39055717550685"/>
  <polygon id="254471206" class="tile" points="25.7390491488,2163.33298441 25.8097019868,2226.52037119 25.9772049087,2243.51025608 17.0959056767,2243.72789933 17.7320176469,2287.59111603 0.0,2288.34250768 0.0541291770525,2196.00496346 0.0699708444066,2163.95218254 1.76037304059,2156.88145927 25.7390491488,2163.33298441 " moovel_rot="-0.7" moovel_centroid="11.701772120162705,2218.82459428" moovel_centroidlatlon="4.830927400420179,52.37190009337441"/>
  <polygon id="280064490" class="tile" points="107.570231853,2195.93830239 107.592753129,2206.8042081 116.235735821,2206.80461624 116.274346805,2266.95095908 116.273341147,2270.89007719 35.7995797549,2238.58325898 34.903440972,2238.16751239 34.8776814087,2238.15450489 34.4649963805,2237.92914742 34.0347836382,2237.68362661 33.5646015224,2237.37550079 33.2062215199,2237.12948664 32.0528646189,2236.18508751 31.9745219036,2236.11159001 31.6167997352,2235.74995419 31.3549479988,2235.4819792 30.9299008452,2234.99301838 30.7102723583,2234.72373923 30.1276015603,2233.92044925 30.021371225,2233.76499426 29.6113175332,2233.07715011 29.2829244631,2232.43336929 29.1652702029,2232.18164512 28.8736544373,2231.49704429 28.7587860708,2231.19864846 28.694246981,2231.02465179 28.4062007965,2230.04489842 28.3100500138,2229.66828173 28.1938373017,2229.05245501 28.129549902,2228.61273996 28.0653883589,2228.04016571 28.0334963678,2227.55458979 28.0170040692,2227.02022718 28.010920266,2206.829847 27.9875259657,2182.37997123 27.9772049087,2166.70676746 28.0396767099,2156.95287656 41.0096202492,2156.92660925 103.622235214,2156.88145927 116.263771728,2156.89287221 116.206677943,2166.686338 116.212509411,2182.35459452 116.183080197,2195.92065599 107.570231853,2195.93830239 " moovel_rot="49.0" moovel_centroid="74.4855889899,2205.58874004" moovel_centroidlatlon="5.003764772326221,52.35153293339864"/>
  <polygon id="185687673" class="tile" points="117.274346805,2156.88145927 122.221808698,2156.88252917 122.241839712,2197.3601917 117.291813988,2197.35295428 117.274346805,2156.88145927 " moovel_rot="67.3" moovel_centroid="119.757515928,2177.12102912" moovel_centroidlatlon="4.930021199605714,52.394890544334565"/>
  <polygon id="197362950" class="tile" points="123.245728108,2156.88165223 137.002857276,2156.88145927 136.997091501,2164.75628411 132.814506064,2164.75598213 133.043916329,2171.30443512 132.8134321,2176.27895333 138.446043888,2176.2735368 138.442032461,2197.60456095 123.241839712,2197.59972954 123.245728108,2156.88165223 " moovel_rot="1.5" moovel_centroid="130.134893555,2178.37178858" moovel_centroidlatlon="4.8497016311211505,52.39620739622113"/>
  <polygon id="183589428" class="tile" points="144.187558264,2156.88145927 139.632349509,2162.11862669 139.446043888,2283.32610123 146.238833767,2283.12956374 144.187558264,2156.88145927 " moovel_rot="52.9" moovel_centroid="142.429485638,2225.33546484" moovel_centroidlatlon="4.898105758404886,52.401970525103984"/>
  <polygon id="156082318" class="tile" points="153.49351165,2275.7625831 147.238833767,2275.9626397 147.28155572,2157.57179274 153.398287459,2156.88145927 153.49351165,2275.7625831 " moovel_rot="-60.8" moovel_centroid="150.35526926,2216.76475847" moovel_centroidlatlon="4.9830666380154875,52.31731382141891"/>
  <polygon id="435644414" class="tile" points="156.606773434,2233.30985635 179.436006863,2233.99254311 179.236375991,2229.33817992 175.056721236,2228.59564566 173.63980418,2220.62853951 173.466870124,2203.81016094 172.701140504,2187.50182956 175.988503413,2170.49885265 179.504546889,2156.88145927 154.506704352,2158.17575731 156.103102125,2171.36171118 156.933934457,2188.20756555 154.49351165,2204.59963825 155.651687722,2221.43925743 156.606773434,2233.30985635 " moovel_rot="-94.6" moovel_centroid="165.416381707,2195.0210902" moovel_centroidlatlon="4.979901732047482,52.293161996349625"/>
  <polygon id="367301553" class="tile" points="205.260236435,2156.88145927 191.020313892,2156.89847353 180.504546889,2156.9329997 180.512998869,2163.7281059 180.759288776,2254.79630466 193.160457192,2254.73750675 205.13088057,2254.7248468 205.260236435,2156.88145927 " moovel_rot="-62.4" moovel_centroid="192.910849297,2205.69503498" moovel_centroidlatlon="4.917859171754499,52.39849631243966"/>
  <polygon id="136416316" class="tile" points="206.709492114,2158.90317089 206.260236435,2200.94164259 247.616948498,2201.15962761 247.593556063,2169.92931234 234.06870617,2169.49729895 218.412480604,2156.88145927 206.709492114,2158.90317089 " moovel_rot="-13.7" moovel_centroid="225.512844745,2182.1124313" moovel_centroidlatlon="4.840751914685252,52.371597254307495"/>
  <polygon id="193133916" class="tile" points="268.073856486,2156.88145927 248.616948498,2163.8131257 268.029794278,2220.96573608 268.064731677,2168.84287726 268.073856486,2156.88145927 " moovel_rot="-23.0" moovel_centroid="261.573232961,2180.55336273" moovel_centroidlatlon="4.8433744295630925,52.35696823510468"/>
  <polygon id="405936290" class="tile" points="283.304129793,2156.88145927 271.545920694,2157.0182061 269.073856486,2160.02779856 269.100843675,2193.82145769 271.582711325,2200.70778202 283.322697962,2200.48613965 283.304129793,2156.88145927 " moovel_rot="77.9" moovel_centroid="276.324944908,2178.63694983" moovel_centroidlatlon="4.8251668816815965,52.42134489203436"/>
  <polygon id="192251593" class="tile" points="284.542105507,2156.88145927 290.279083878,2156.95155317 290.40711058,2263.46911276 284.322697962,2262.85979792 284.542105507,2156.88145927 " moovel_rot="0.7" moovel_centroid="287.389932689,2210.56139682" moovel_centroidlatlon="4.833880352966531,52.390856254077526"/>
  <polygon id="340243725" class="tile" points="292.058536697,2213.07599718 291.40711058,2156.96481427 296.130311111,2156.89317483 300.211907978,2156.88145927 300.210996622,2213.45788107 292.058536697,2213.07599718 " moovel_rot="-61.3" moovel_centroid="295.976007699,2184.72546426" moovel_centroidlatlon="4.947906081005864,52.31324469730711"/>
  <polygon id="46891621" class="tile" points="307.217148635,2310.03835185 307.247902308,2306.06527645 307.521627003,2217.74989525 301.318910796,2217.24844019 301.211907978,2201.61000826 301.226672611,2163.71395448 343.45990893,2163.79381759 343.449266326,2161.00763203 343.440559478,2156.88220959 354.535175575,2156.88145927 354.532247737,2163.78822482 359.742623918,2163.80939453 359.741360398,2226.94939535 359.736069915,2284.88668244 336.288486653,2310.06175511 321.365136838,2310.05077836 307.217148635,2310.03835185 " moovel_rot="-60.7" moovel_centroid="331.768459399,2231.75261446" moovel_centroidlatlon="4.950347227411825,52.30185192506352"/>
</svg>