<svg xmlns="http://www.w3.org/2000/svg" version="1.1" width="592.5px" height="1200px">
  <polygon id="0" class="bin" points="-170.818282606,886.812821191 -170.608459938,886.891105988 -172.42592388,891.762360003 -173.860884105,978.05873071 -175.128700091,980.807759353 -178.013814888,981.724617286 -205.522006522,978.747831098 -209.954207612,980.175605314 -211.854160387,984.426855149 -211.913083614,1053.61815394 -210.204558747,1057.7098379 -206.090818011,1059.36454996 -196.343057171,1059.22838626 -193.523662674,1060.44698956 -192.560551233,1063.36356216 -195.839205023,1095.08464281 -195.872262548,1095.57616185 -196.779096492,1124.52394809 -196.772148153,1125.11569484 -195.437671758,1149.44334715 -195.332175738,1150.32330717 -190.246503315,1177.67510414 -190.054152824,1178.45366704 -182.557153826,1202.63972119 -183.120243829,1205.97474206 -186.139022187,1207.5 -446.2499995,1207.5 -448.901649929,1206.40165043 -449.9999995,1203.75 -449.9999995,3.75 -448.901649929,1.09834957055 -446.2499995,0.0 -150.0000005,0.0 -147.348350071,1.09834957055 -146.2500005,3.75 -146.2500005,9.01838640658 -146.917953394,11.15461805 -148.683859505,12.529835236 -159.332275149,16.521012964 -160.862286322,17.3270071995 -185.580971304,34.6435070357 -187.007615152,35.9836093594 -199.002723264,51.0117450466 -199.848685965,52.370590792 -208.213143787,70.1351739813 -208.595053108,71.1455516621 -214.179688687,90.3699484336 -214.441094274,91.8925645904 -215.403074932,108.653133327 -215.357356284,109.930104352 -212.306638272,133.464942968 -212.242968876,133.863813593 -204.882364113,172.623108007 -204.611598432,173.6271714 -199.058111551,189.369830578 -195.883905225,193.0900013 -174.233427857,204.838761493 -173.283784664,205.264440478 -162.207397716,209.252627468 -160.787035605,209.598715937 -149.504953476,211.101242294 -147.178748443,212.347989949 -146.2500005,214.818422468 -146.2500005,244.372994193 -147.250495013,246.923037247 -149.718117608,248.11238479 -152.336152089,247.306404453 -201.517263102,208.138841623 -205.807637928,206.933661337 -209.667153858,209.161645283 -234.233326559,241.573295154 -235.365831255,245.700158154 -233.338079852,249.468684306 -147.594471614,321.166166895 -146.2500005,324.042958646 -146.2500005,326.736535645 -147.079739196,329.089103161 -233.970401531,436.947193146 -235.204093441,441.200284717 -233.044835472,445.066599327 -198.385081283,472.280830912 -197.073766804,474.278394191 -197.179188216,475.835302718 -197.144909659,556.175591261 -197.120697159,615.097691966 -198.26318669,617.794300797 -200.996045386,618.847137377 -220.68951984,618.188489755 -224.872235677,619.801023146 -226.618073657,623.929875948 -226.549256272,674.591298617 -224.898955524,678.615622226 -220.903000873,680.333475394 -171.627641425,681.230552808 -169.006784471,682.366283532 -167.946097658,685.018399469 -170.00174812,885.400366601 -170.818282606,886.812821191 " moovel_rot="0" moovel_centroid="-319.94520842379615,607.3847574260116" moovel_centroidlatlon="0,0"/>
  <polygon id="157092929" class="tile" points="80.4602786752,1201.0 44.0053948962,1201.30816939 22.6390240666,1210.70219711 8.11191573627,1219.71156382 1.0,1254.96838284 1.5948476335,1278.73854085 3.64200724671,1298.22418086 48.2191247794,1296.35006613 50.0216428914,1305.19268249 82.169546466,1303.81233688 82.2212824717,1250.54445794 81.1947606337,1203.32401123 80.4602786752,1201.0 " moovel_rot="27.9" moovel_centroid="44.5840338120885,1253.5543350480689" moovel_centroidlatlon="4.952224983127931,52.29257199751364"/>
  <polygon id="296423589" class="tile" points="83.2212824717,1247.05703652 84.4860786423,1201.16027485 108.412376959,1201.0 108.478786128,1247.55133548 83.2212824717,1247.05703652 " moovel_rot="-63.3" moovel_centroid="96.1755280454,1224.4021828167731" moovel_centroidlatlon="4.836390664915108,52.35322672270622"/>
  <polygon id="384694841" class="tile" points="109.478786128,1283.1531616 140.002829317,1283.08933108 139.915594207,1201.55037349 118.210548675,1201.0 109.912426585,1201.19132681 109.522577332,1252.33547808 109.478786128,1283.1531616 " moovel_rot="28.7" moovel_centroid="124.780422603,1242.2971398143948" moovel_centroidlatlon="4.952942300549016,52.31997910670815"/>
  <polygon id="262514792" class="tile" points="154.778750322,1201.03699972 141.040031675,1201.0 141.024624138,1224.31998558 141.002829317,1276.75309282 151.942313234,1276.77906797 151.948397448,1262.08684395 158.048054576,1262.10112509 158.058893058,1223.97071893 158.064488172,1217.02516333 150.396800108,1216.99894182 150.399418901,1207.5317384 154.783075728,1207.5389879 154.778750322,1201.03699972 " moovel_rot="29.1" moovel_centroid="148.654281189,1238.844539777366" moovel_centroidlatlon="4.973721270704595,52.32324851152404"/>
  <polygon id="405595125" class="tile" points="159.064488172,1232.06070311 159.34659432,1201.59745723 165.354498818,1201.01349602 192.063812385,1201.0 192.088455474,1255.58897805 189.835769188,1253.31412529 165.437626468,1253.3249759 165.431136459,1232.05845666 159.064488172,1232.06070311 " moovel_rot="-89.9" moovel_centroid="176.79385079,1225.9590813400469" moovel_centroidlatlon="4.867559416087513,52.328612369237504"/>
  <polygon id="420524997" class="tile" points="199.072108969,1201.0 193.088455474,1201.1195831 194.207262885,1318.67567818 199.020768487,1318.6367882 199.072108969,1201.0 " moovel_rot="17.9" moovel_centroid="196.337748953,1257.733389311029" moovel_centroidlatlon="4.792982214260975,52.36189465478008"/>
  <polygon id="148700980" class="tile" points="200.09594282,1255.95266602 205.472848053,1255.94653588 205.449014205,1201.0 200.072108969,1201.00613064 200.09594282,1255.95266602 " moovel_rot="0.4" moovel_centroid="202.772478516,1228.4763331320755" moovel_centroidlatlon="4.793154299999999,52.38993555"/>
  <polygon id="179918191" class="tile" points="206.472848053,1201.01900283 206.476588172,1230.26602208 212.216815086,1230.25979572 212.212650896,1201.0 206.472848053,1201.01900283 " moovel_rot="-33.4" moovel_centroid="209.344934505,1215.6363840683953" moovel_centroidlatlon="4.926463026109073,52.385683422548176"/>
  <polygon id="185678147" class="tile" points="213.216815086,1232.04973667 213.245517642,1210.2981921 230.09843423,1201.0 231.776107509,1230.18061031 213.216815086,1232.04973667 " moovel_rot="-42.9" moovel_centroid="222.546803288,1218.4119482205788" moovel_centroidlatlon="4.911891819582306,52.38294644000984"/>
  <polygon id="386621405" class="tile" points="239.924483025,1201.34882076 249.266323664,1201.79579031 249.298492448,1206.87479965 247.953660647,1213.56025079 244.86119619,1218.10999869 238.402478562,1222.79406631 232.776107509,1224.06611707 232.784676463,1201.0 239.924483025,1201.34882076 " moovel_rot="46.4" moovel_centroid="239.999840067,1211.0340231718683" moovel_centroidlatlon="4.856318287397372,52.3491740624751"/>
  <polygon id="193000874" class="tile" points="250.315526,1201.18724573 255.637308826,1201.0 255.792169133,1221.8501788 250.298492448,1221.98288884 250.315526,1201.18724573 " moovel_rot="17.6" moovel_centroid="253.01234661,1211.5601344936813" moovel_centroidlatlon="4.946800545257883,52.32218347262563"/>
  <polygon id="280076760" class="tile" points="269.879128743,1254.64722127 268.232303563,1249.53475349 266.597212696,1244.44500939 264.983184809,1239.38363863 263.358774097,1234.3394055 261.743689165,1229.30082027 260.128601392,1224.26223332 258.513510781,1219.22364464 256.792169133,1213.85521677 266.402511283,1210.76587149 274.033668347,1208.31290245 281.641651897,1205.8771333 289.195016118,1203.44732835 296.835487071,1201.0 298.556807794,1206.3684152 310.276271677,1202.59644904 312.123045042,1201.98920136 312.411007764,1201.91372363 312.404236726,1207.67234566 312.401058141,1213.21450347 312.399235266,1218.79652516 312.397410902,1224.37854596 312.390767905,1229.92641421 312.391214872,1235.73625902 312.361121988,1269.3651509 312.364178147,1269.99168717 301.080493646,1273.94948503 297.899245814,1275.0760027 287.114741,1278.88321762 284.238751658,1279.90568941 278.614350698,1281.88734259 274.15622677,1267.94306977 273.04996959,1264.48543805 287.548228659,1259.78830858 286.132565555,1255.34682011 281.411596125,1256.86830568 271.591117286,1260.00998471 269.879128743,1254.64722127 " moovel_rot="-58.8" moovel_centroid="289.338458112,1238.070843319029" moovel_centroidlatlon="5.009342707984642,52.345714414990326"/>
  <polygon id="145119463" class="tile" points="313.535800288,1201.0 324.388138546,1201.78701184 377.28686727,1247.32077483 377.126560938,1383.18017773 313.411007764,1382.93492618 313.535800288,1201.0 " moovel_rot="-0.8" moovel_centroid="343.68303124,1301.1447504131736" moovel_centroidlatlon="4.964430084049578,52.37026679185874"/>
  <polygon id="46879195" class="tile" points="382.402676112,1201.02887907 429.178047281,1201.0 429.189449306,1257.31528972 428.994605654,1257.32849239 429.01856953,1257.68659482 428.9946578,1261.64819176 428.986934177,1263.91091837 428.988320273,1264.2869867 429.179895155,1264.27960867 429.18751556,1264.66683452 428.995940684,1264.67421256 428.975554562,1267.64977832 429.173363713,1267.65355779 429.177715392,1268.0466083 428.979906247,1268.04282884 428.993567297,1269.17636653 378.28686727,1269.19721674 378.292275241,1201.02758554 382.402676112,1201.02887907 " moovel_rot="-60.7" moovel_centroid="403.721959343,1235.0856538679805" moovel_centroidlatlon="4.958373541910487,52.31004214132044"/>
  <polygon id="153401720" class="tile" points="430.189449306,1220.35113219 462.471903206,1288.43453709 465.1453137,1286.94765976 471.06493479,1276.60789221 471.111464486,1201.0 430.189449306,1220.35113219 " moovel_rot="-46.5" moovel_centroid="456.813164727,1239.7986417044413" moovel_centroidlatlon="4.971448978958207,52.32793255299337"/>
  <polygon id="174441113" class="tile" points="491.56905169,1266.1301792 472.111464486,1266.17037534 472.120187919,1201.04012637 491.577876628,1201.0 491.56905169,1266.1301792 " moovel_rot="-55.5" moovel_centroid="481.844643442,1233.5851419154183" moovel_centroidlatlon="4.905549899999998,52.383434"/>
  <polygon id="165420894" class="tile" points="510.06142963,1201.0 492.577876628,1283.96790411 517.781896009,1290.14817756 517.661935188,1201.94750382 513.169705398,1202.11988487 510.06142963,1201.0 " moovel_rot="41.7" moovel_centroid="508.750684447,1252.0835516087523" moovel_centroidlatlon="4.941264728627926,52.31660094327181"/>
  <polygon id="437363893" class="tile" points="523.133614384,1201.0 520.719533911,1203.97792778 520.439739395,1206.13222622 520.509208046,1214.67261599 519.940437835,1218.42959989 519.039358935,1223.55246936 518.781896009,1227.34987783 519.275252803,1327.99461963 519.382282228,1331.99339582 520.125514075,1336.74628065 522.063532788,1333.23327242 523.040635992,1330.74028631 523.153022563,1328.63034936 522.526221011,1205.67666992 522.70188474,1203.07952584 523.133614384,1201.0 " moovel_rot="7.4" moovel_centroid="521.001553669,1272.072651275126" moovel_centroidlatlon="4.838050795733345,52.38767074393838"/>
  <polygon id="256601326" class="tile" points="524.619669079,1238.70951772 524.153022563,1201.33379722 555.192110585,1201.0 555.163322104,1218.47743508 541.10641588,1218.54005827 539.89362397,1231.5518391 545.285787056,1231.88018372 544.604342791,1239.69815868 524.619669079,1238.70951772 " moovel_rot="-42.5" moovel_centroid="537.241265627,1217.7424593225558" moovel_centroidlatlon="4.780001002252169,52.37353271657512"/>
  <polygon id="372324396" class="tile" points="568.275247176,1201.06926893 556.645159894,1201.0 556.192110585,1237.93419399 562.806333882,1282.29112745 570.362473068,1313.39965593 579.059459262,1310.97900429 578.707855438,1278.93687841 579.157489834,1208.15250879 571.605827622,1204.94879911 568.275247176,1201.06926893 " moovel_rot="77.5" moovel_centroid="569.005854889,1250.692008871994" moovel_centroidlatlon="4.9079523048708,52.3771125248127"/>
  <polygon id="183593570" class="tile" points="587.352091637,1201.46434664 586.594387647,1280.89098024 580.289272719,1280.60457597 580.157489834,1201.0 587.352091637,1201.46434664 " moovel_rot="-10.6" moovel_centroid="583.600840573,1240.1162243093556" moovel_centroidlatlon="4.896418343626603,52.39984828595972"/>
  <polygon id="228044615" class="tile" points="12.5927879406,1490.59500579 0.0041220956482,1425.73539705 0.0,1383.18017773 22.1274528435,1385.32098692 15.4913510936,1487.47986552 12.5927879406,1490.59500579 " moovel_rot="-24.9" moovel_centroid="10.774141321825097,1425.01057248" moovel_centroidlatlon="4.923712027589345,52.40082679203213"/>
  <polygon id="174996488" class="tile" points="24.1274528435,1431.29082452 30.1330367395,1431.30660758 30.1356835964,1383.19594316 24.130076643,1383.18017773 24.1274528435,1431.29082452 " moovel_rot="52.6" moovel_centroid="27.1315626405,1407.24337285" moovel_centroidlatlon="4.8989735,52.404323100000006"/>
  <polygon id="171028649" class="tile" points="31.7804293485,1383.18017773 31.1356835964,1418.01054377 61.0781563218,1420.45276998 61.055470964,1387.31729123 31.7804293485,1383.18017773 " moovel_rot="32.7" moovel_centroid="46.1335506895,1402.28822835" moovel_centroidlatlon="4.95671248965302,52.304794189942555"/>
  <polygon id="211950870" class="tile" points="62.0781563218,1383.18017773 64.6116114756,1502.75405309 62.1729920328,1584.62796049 128.654749002,1584.72523143 130.488530169,1484.15324444 132.746307981,1447.52022138 110.414485204,1386.44112238 62.0781563218,1383.18017773 " moovel_rot="29.9" moovel_centroid="95.5548115439,1487.73200349" moovel_centroidlatlon="4.951703403821405,52.30293708948756"/>
  <polygon id="146736629" class="tile" points="133.768803629,1383.18017773 158.18712761,1383.25814942 158.164499141,1451.91563123 133.746307981,1451.83757751 133.768803629,1383.18017773 " moovel_rot="58.3" moovel_centroid="145.966687044,1417.54785287" moovel_centroidlatlon="4.939125949999998,52.39636495"/>
  <polygon id="46879745" class="tile" points="187.537638186,1383.22438043 207.855865543,1383.25562342 207.851694625,1384.44692747 208.713332167,1384.44643547 208.716484255,1387.76895118 207.854846935,1387.76944331 207.880003175,1440.34935624 208.69055381,1440.35091876 208.741522514,1443.67720376 207.879888926,1443.67769797 207.876767705,1444.77777059 159.214515903,1444.71360139 159.18712761,1383.18017773 187.537638186,1383.22438043 " moovel_rot="-60.8" moovel_centroid="183.579883805,1413.98143118" moovel_centroidlatlon="4.9804700178217,52.31008560547893"/>
  <polygon id="43266351" class="tile" points="223.1347328,1383.18017773 209.746234079,1383.26210112 209.741522514,1435.29036525 223.819523152,1434.75750522 223.1347328,1383.18017773 " moovel_rot="63.8" moovel_centroid="216.602311908,1409.34038865" moovel_centroidlatlon="4.906196247619437,52.3383376254532"/>
  <polygon id="185693680" class="tile" points="232.432197728,1423.31026399 224.837070022,1423.32900406 224.819523152,1383.19889371 232.414665669,1383.18017773 232.432197728,1423.31026399 " moovel_rot="-31.6" moovel_centroid="228.625863759,1403.25457836" moovel_centroidlatlon="4.9444239,52.400330700000005"/>
  <polygon id="185110594" class="tile" points="233.487700579,1383.18017773 258.532046898,1383.21886227 258.47649636,1500.53506444 233.432197728,1500.49621993 233.487700579,1383.18017773 " moovel_rot="16.6" moovel_centroid="245.982113247,1441.85756251" moovel_centroidlatlon="4.90186335,52.3891246"/>
  <polygon id="277104780" class="tile" points="296.770221243,1413.52777694 295.501775005,1415.28934157 294.304778388,1417.11011299 293.201493028,1418.98508266 292.175824156,1420.90805228 291.240557183,1422.87941849 290.398549749,1424.88217271 289.643634851,1426.92752185 288.981979376,1429.00425906 288.423059457,1431.10697925 287.954089591,1433.23528586 287.581236658,1435.37797205 287.307809853,1437.54083959 287.13666679,1439.70687993 287.058331241,1441.8814982 287.069028133,1443.0672385 287.08227933,1444.05928932 287.20520175,1446.2344516 287.42378921,1448.4011833 287.73473241,1450.55368273 288.150816733,1452.69234653 288.665423636,1454.80557125 307.050606239,1517.64402559 298.400668938,1520.24800442 298.923999113,1522.15633164 287.921460028,1526.77886935 271.996710276,1471.88719929 265.341891712,1473.93756938 259.532046898,1455.09856926 265.127195098,1453.41425613 264.776981369,1450.73052652 264.512956252,1448.04377161 264.354072061,1445.34318117 264.29747123,1442.64576375 264.339844564,1439.94571757 264.484501383,1437.24884432 264.731441756,1434.55514399 265.074498864,1431.87582334 265.523148922,1429.20547725 266.061748956,1426.56071762 266.712560598,1423.93653592 267.45332236,1421.3379406 268.287343566,1418.77073335 269.224100453,1416.22950901 270.247950014,1413.7308795 271.368368489,1411.26943967 272.579189028,1408.85639634 273.877102442,1406.48594772 270.368891129,1403.7042507 285.564058319,1383.18017773 307.033040182,1399.76936661 296.770221243,1413.52777694 " moovel_rot="60.3" moovel_centroid="283.659144129,1452.67844134" moovel_centroidlatlon="4.8843717017805055,52.35909839804251"/>
  <polygon id="174767574" class="tile" points="312.932435342,1383.19104278 308.050606239,1383.18017773 308.052281232,1409.26487345 312.931089324,1409.26978157 312.932435342,1383.19104278 " moovel_rot="63.2" moovel_centroid="310.491510215,1396.22512332" moovel_centroidlatlon="4.973150306447944,52.35645345478385"/>
  <polygon id="157554448" class="tile" points="313.974868728,1383.18017773 320.052036615,1383.19707181 320.018442384,1443.59897002 313.932435342,1443.58842752 313.974868728,1383.18017773 " moovel_rot="54.3" moovel_centroid="316.994387708,1413.39847454" moovel_centroidlatlon="4.909440988699384,52.40549528536167"/>
  <polygon id="190064489" class="tile" points="321.113234766,1447.50405854 356.018065989,1447.13021987 356.077591856,1383.18017773 321.052036615,1383.36519996 321.113234766,1447.50405854 " moovel_rot="18.2" moovel_centroid="338.556597781,1415.27655626" moovel_centroidlatlon="4.809115691291272,52.35445751007444"/>
  <polygon id="179640837" class="tile" points="362.138948358,1383.43011944 362.008809218,1495.09882978 357.207707817,1495.15520215 357.077591856,1383.18017773 362.138948358,1383.43011944 " moovel_rot="11.0" moovel_centroid="359.607157457,1438.7242593" moovel_centroidlatlon="4.9190936537229915,52.38235239612398"/>
  <polygon id="188736240" class="tile" points="366.214117547,1383.55935761 376.784168144,1383.18017773 377.629682405,1437.52799353 377.659401016,1446.81929686 377.490753528,1488.50985221 363.138948358,1488.01720392 363.158202408,1419.15720041 366.537761476,1418.54644578 366.214117547,1383.55935761 " moovel_rot="-30.3" moovel_centroid="370.739194501,1439.17940295" moovel_centroidlatlon="4.792418653741091,52.34226220249986"/>
  <polygon id="148698733" class="tile" points="378.659401016,1455.4363406 398.783272915,1464.7204852 400.831110864,1465.83565908 397.235309137,1476.39929758 426.527970684,1491.00318922 418.226239255,1508.08958495 389.232723169,1494.99851047 383.697540663,1505.08222105 378.684141448,1516.18566951 431.829432077,1538.6060725 458.914499458,1476.78883373 424.864028808,1462.53570891 457.576361374,1387.11471187 448.716257823,1383.18017773 424.933722106,1436.80768992 393.162637789,1422.57242198 378.659401016,1455.4363406 " moovel_rot="-65.7" moovel_centroid="419.290205655,1474.02457631" moovel_centroidlatlon="4.797302386938425,52.389835224561345"/>
  <polygon id="179373944" class="tile" points="461.095635681,1393.48897099 461.374969884,1385.78088279 493.847505775,1383.18017773 495.328086228,1423.45887797 459.918879423,1427.63571314 459.914499458,1421.4304791 488.941645155,1418.9133923 485.444571212,1390.74784024 461.095635681,1393.48897099 " moovel_rot="46.2" moovel_centroid="481.622913955,1403.93979383" moovel_centroidlatlon="4.895233551566562,52.404393131003516"/>
  <polygon id="230165312" class="tile" points="496.36934279,1383.18017773 528.117119826,1383.27593668 528.070014517,1443.71552199 496.328086228,1443.62299315 496.36934279,1383.18017773 " moovel_rot="30.4" moovel_centroid="512.221000902,1413.44772861" moovel_centroidlatlon="4.97022101617665,52.300836706562244"/>
  <polygon id="174996478" class="tile" points="534.145386188,1383.18017773 529.117119826,1383.18908949 529.122703587,1401.2965011 534.150964199,1401.2875821 534.145386188,1383.18017773 " moovel_rot="-38.5" moovel_centroid="531.634043282,1392.23833588" moovel_centroidlatlon="4.899530349999999,52.40317400000001"/>
  <polygon id="192250404" class="tile" points="535.165842171,1458.63371865 535.150964199,1383.3509923 540.880219767,1383.18017773 540.884183885,1458.46254203 535.165842171,1458.63371865 " moovel_rot="-88.1" moovel_centroid="538.020296649,1420.89489582" moovel_centroidlatlon="4.850001828941707,52.38960432868549"/>
  <polygon id="26221078" class="tile" points="556.001540783,1418.11248423 556.023925085,1383.18017773 541.904860362,1383.18812733 541.884183885,1418.11397664 556.001540783,1418.11248423 " moovel_rot="-75.4" moovel_centroid="548.953845224,1400.64834013" moovel_centroidlatlon="4.853598930840627,52.36776674886761"/>
  <polygon id="450311328" class="tile" points="0.0,1584.72523143 52.8172358243,1584.73062776 52.8628312239,1643.51234851 0.045711039193,1643.50693032 0.0,1584.72523143 " moovel_rot="79.3" moovel_centroid="26.43144615052213,1614.11877378" moovel_centroidlatlon="4.835353600000001,52.4164886"/>
  <polygon id="215543484" class="tile" points="58.8313914575,1595.13025476 54.8628312239,1595.13463505 54.8663176911,1584.72960999 58.834881098,1584.72523143 58.8313914575,1595.13025476 " moovel_rot="-61.4" moovel_centroid="56.8488553127,1589.92993211" moovel_centroidlatlon="4.908779949999999,52.38646634999999"/>
  <polygon id="65204154" class="tile" points="76.4225503838,1611.39166288 76.7294696694,1614.64776803 70.1114103461,1607.1738862 59.834881098,1605.55924415 61.1213029454,1584.72523143 76.6989153508,1584.87433946 76.669490454,1587.52909599 76.6415111331,1590.17733166 76.613531753,1592.82556732 76.5841066735,1595.48032381 76.556127171,1598.12855944 76.5373605218,1600.78567885 76.5079352606,1603.4404353 76.4799555738,1606.08867089 76.4505301908,1608.74342731 76.4225503838,1611.39166288 " moovel_rot="-77.5" moovel_centroid="68.9682200543,1596.71244465" moovel_centroidlatlon="4.927037910613801,52.39154156314254"/>
  <polygon id="174996479" class="tile" points="77.7294696694,1584.72523143 77.7318089832,1630.00917175 85.2498148479,1630.02004998 85.2474925773,1584.73610512 77.7294696694,1584.72523143 " moovel_rot="75.1" moovel_centroid="81.4896465821,1607.37263102" moovel_centroidlatlon="4.8988323500000055,52.40600935"/>
  <polygon id="86983907" class="tile" points="93.6888395695,1629.08999954 111.171229204,1629.05333356 111.165933393,1584.72523143 86.2562098776,1584.78881363 86.2498148479,1629.11193002 93.6888395695,1629.08999954 " moovel_rot="-35.2" moovel_centroid="98.7111155681,1606.92044957" moovel_centroidlatlon="4.9159869735077635,52.406970668576214"/>
  <polygon id="189331346" class="tile" points="112.206175275,1644.47331216 112.171229204,1584.72553806 127.793226716,1584.72523143 127.828172636,1644.47301095 112.206175275,1644.47331216 " moovel_rot="1.6" moovel_centroid="119.999701076,1614.5992731" moovel_centroidlatlon="4.84516435,52.371560650000006"/>
  <polygon id="297025404" class="tile" points="128.828172636,1586.4926926 129.455438413,1673.91052469 196.352292694,1674.3141967 196.353667837,1584.72523143 128.828172636,1586.4926926 " moovel_rot="29.3" moovel_centroid="162.884137472,1629.78944893" moovel_centroidlatlon="4.942980088471012,52.2953181840326"/>
  <polygon id="146736627" class="tile" points="242.673911217,1666.17601503 242.623830584,1584.72523143 228.335089358,1586.6057504 228.783612141,1602.21303576 215.694449217,1602.46787636 215.038169046,1613.74975582 197.353667837,1614.16720016 198.199562082,1667.19984325 242.673911217,1666.17601503 " moovel_rot="-34.0" moovel_centroid="222.362775668,1633.0381539" moovel_centroidlatlon="4.931702728945835,52.39685313323035"/>
  <polygon id="215836513" class="tile" points="251.692070463,1584.72523143 243.673911217,1584.79393401 244.869900397,1691.60147921 251.514614793,1691.79567875 251.692070463,1584.72523143 " moovel_rot="28.9" moovel_centroid="247.931235504,1636.55804061" moovel_centroidlatlon="4.94709745045738,52.324328641960676"/>
  <polygon id="155838119" class="tile" points="257.63892382,1660.60176525 257.744603407,1584.80581034 252.692070463,1584.72523143 252.807257731,1660.36798989 257.63892382,1660.60176525 " moovel_rot="23.8" moovel_centroid="255.221567602,1622.34321694" moovel_centroidlatlon="4.962345833082254,52.392921591198025"/>
  <polygon id="147496481" class="tile" points="287.438587747,1737.38520038 287.042602724,1605.89556199 258.744603407,1605.60916812 258.933822089,1585.17394271 292.745958871,1584.72523143 292.734515197,1737.4620382 287.438587747,1737.38520038 " moovel_rot="-60.7" moovel_centroid="283.026963145,1633.56293207" moovel_centroidlatlon="4.928571633786926,52.338363740331445"/>
  <polygon id="180878683" class="tile" points="298.478111532,1625.73497336 293.745958871,1625.73952992 293.766138737,1584.73562711 298.501534274,1584.72523143 298.478111532,1625.73497336 " moovel_rot="-61.1" moovel_centroid="296.122993219,1605.23150162" moovel_centroidlatlon="4.953702005930055,52.3071097598639"/>
  <polygon id="174996476" class="tile" points="299.501534274,1698.11254947 299.532886875,1584.72523143 305.109702385,1584.93021052 305.520904939,1697.71220503 299.501534274,1698.11254947 " moovel_rot="52.2" moovel_centroid="302.41491348,1642.09101515" moovel_centroidlatlon="4.8999153928139005,52.40469029345996"/>
  <polygon id="171470012" class="tile" points="310.798583833,1593.06741929 306.521255165,1592.97498343 306.520904939,1584.72523143 310.822136636,1585.1702921 310.798583833,1593.06741929 " moovel_rot="56.5" moovel_centroid="308.650181391,1588.97967923" moovel_centroidlatlon="4.85975931164252,52.39652305559902"/>
  <polygon id="183921719" class="tile" points="311.822136636,1606.23596791 311.839699096,1584.72523143 327.06162922,1584.73356887 327.044063133,1606.24430516 311.822136636,1606.23596791 " moovel_rot="-86.9" moovel_centroid="319.44188201,1595.48476791" moovel_centroidlatlon="4.935231800000002,52.369092200000004"/>
  <polygon id="189535191" class="tile" points="328.06162922,1590.01498482 343.279287939,1584.72523143 343.184764776,1655.55809628 328.885686258,1655.9437286 328.06162922,1590.01498482 " moovel_rot="-90.1" moovel_centroid="335.935837592,1621.17977542" moovel_centroidlatlon="4.843629498150304,52.35185030800531"/>
  <polygon id="295731024" class="tile" points="344.329260028,1584.92770765 344.279287939,1654.05338305 356.895226352,1655.52198466 377.472270718,1638.28795929 377.32730332,1608.54123775 358.355262457,1584.72523143 344.329260028,1584.92770765 " moovel_rot="47.0" moovel_centroid="358.829391709,1620.52725853" moovel_centroidlatlon="4.949325965429132,52.35680284934114"/>
  <polygon id="282340372" class="tile" points="417.780808361,1651.69419972 450.754665453,1677.69031346 441.252976741,1689.39863601 408.157607652,1665.6481328 378.472270718,1644.33682513 425.289343647,1584.72523143 450.726172857,1604.60720822 420.692858167,1647.53179503 417.780808361,1651.69419972 " moovel_rot="-22.6" moovel_centroid="418.010831465,1634.67539766" moovel_centroidlatlon="4.954943099001269,52.30050130236499"/>
  <polygon id="108933767" class="tile" points="451.806851237,1586.42789138 470.45516768,1584.72523143 495.438521228,1646.85202806 484.45118289,1791.39333007 478.490126963,1792.40486344 451.754665453,1658.95623846 451.806851237,1586.42789138 " moovel_rot="77.9" moovel_centroid="473.28436737,1673.71688147" moovel_centroidlatlon="4.839987954439212,52.33673378887596"/>
  <polygon id="190720131" class="tile" points="527.857676613,1651.31459948 527.905763699,1584.72523143 496.438521228,1585.10390234 496.753206158,1651.54562127 519.154305693,1652.24017832 527.857676613,1651.31459948 " moovel_rot="0.8" moovel_centroid="512.259297168,1618.32271146" moovel_centroidlatlon="4.835334288402893,52.34740217398707"/>
  <polygon id="180881809" class="tile" points="528.91931666,1604.48134683 528.905763699,1584.76741033 542.920728224,1584.72523143 542.931011508,1604.44499211 528.91931666,1604.48134683 " moovel_rot="-60.9" moovel_centroid="535.919549199,1594.60436042" moovel_centroidlatlon="4.954737182511812,52.30560434894043"/>
  <polygon id="215543648" class="tile" points="543.951944641,1682.16061916 548.124352637,1682.07225294 549.367959734,1585.01981696 543.931011508,1584.72523143 543.951944641,1682.16061916 " moovel_rot="-60.3" moovel_centroid="546.355784137,1631.3578794" moovel_centroidlatlon="4.910313524651316,52.387002351972605"/>
  <polygon id="152280117" class="tile" points="586.777433686,1584.73818136 550.367959734,1584.72523143 550.38659295,1644.84716105 586.805847162,1644.85197257 586.79749353,1636.52126535 586.777433686,1584.73818136 " moovel_rot="81.9" moovel_centroid="568.582943849,1614.79154318" moovel_centroidlatlon="4.990764485371682,52.29261696004874"/>
  <polygon id="185678155" class="tile" points="0.0,1792.40486344 6.46842464246,1792.49923106 5.5950602157,1873.62933519 0.0786481657997,1872.71617946 0.0,1792.40486344 " moovel_rot="-40.7" moovel_centroid="3.0463276272553936,1831.74916256" moovel_centroidlatlon="4.9115235527185845,52.38177682033533"/>
  <polygon id="215836505" class="tile" points="13.1042181866,1864.08938191 8.46842464246,1863.93762625 8.91226731651,1792.75850843 13.007428875,1792.40486344 13.1042181866,1864.08938191 " moovel_rot="-60.5" moovel_centroid="10.873927487,1829.03644135" moovel_centroidlatlon="4.948333127961137,52.324077055466766"/>
  <polygon id="146990222" class="tile" points="14.1042181866,1849.26062297 61.2122260926,1847.38330421 64.8445549797,1847.23721272 63.0144128697,1793.51049668 14.1469384605,1792.40486344 14.1042181866,1849.26062297 " moovel_rot="62.0" moovel_centroid="38.7969524008,1820.78368213" moovel_centroidlatlon="4.9505140140233355,52.39864320977622"/>
  <polygon id="23636963" class="tile" points="65.8445549797,1792.54918442 66.0332724327,1800.78829442 66.1289887775,1804.76510269 66.1513449941,1810.23601636 66.3447822833,1858.62446964 66.3755498661,1865.99503357 101.40535932,1864.52286606 101.430858853,1792.40486344 65.8445549797,1792.54918442 " moovel_rot="-62.2" moovel_centroid="83.7587220047,1828.79597809" moovel_centroidlatlon="4.949774040808615,52.30315220162523"/>
  <polygon id="216536617" class="tile" points="102.430858853,1883.57705368 141.21986909,1888.90111037 141.19535604,1837.0102783 131.739974548,1800.63429613 104.940691782,1792.40486344 102.430858853,1883.57705368 " moovel_rot="-71.1" moovel_centroid="121.420940493,1843.97618508" moovel_centroidlatlon="4.974678329969536,52.38388102091395"/>
  <polygon id="179373937" class="tile" points="142.21986909,1837.6574571 142.230681695,1792.40486344 149.845038281,1792.42564972 149.834198289,1837.67826501 142.21986909,1837.6574571 " moovel_rot="51.7" moovel_centroid="146.032447146,1815.04154526" moovel_centroidlatlon="4.894733849999997,52.40473795"/>
  <polygon id="111090481" class="tile" points="182.9669351,1794.24336785 183.017932335,1879.40554471 150.845038281,1878.61405069 151.506258541,1792.40486344 182.9669351,1794.24336785 " moovel_rot="79.2" moovel_centroid="167.050171046,1836.32455933" moovel_centroidlatlon="4.773377523138286,52.42463192513794"/>
  <polygon id="4362323" class="tile" points="277.708243737,1792.71379536 236.875129806,1792.40486344 236.09202009,1868.23953163 184.019475983,1867.01720575 184.017932335,1937.82302468 257.831508247,1933.67490992 266.534396287,1909.54022787 287.234670765,1909.22859721 285.772846912,1869.84566549 282.612726906,1856.3386439 282.221567017,1825.73620385 277.708243737,1792.71379536 " moovel_rot="45.5" moovel_centroid="240.718131853,1875.64870144" moovel_centroidlatlon="4.930368667825173,52.372111342829136"/>
  <polygon id="242707930" class="tile" points="292.815109493,1792.40486344 292.886384369,1797.74831339 288.234670765,1797.93884863 288.24206608,1792.61426181 292.815109493,1792.40486344 " moovel_rot="84.2" moovel_centroid="290.546207614,1795.18407096" moovel_centroidlatlon="4.9545462641988465,52.35715933310032"/>
  <polygon id="237281595" class="tile" points="296.111377867,1793.0806525 295.832422151,1824.55710681 293.902953934,1824.3523781 293.886384369,1792.40486344 296.111377867,1793.0806525 " moovel_rot="62.4" moovel_centroid="294.932621385,1808.22016138" moovel_centroidlatlon="4.9090482972937375,52.37212095190482"/>
  <polygon id="247425016" class="tile" points="297.111377867,1854.1775692 306.885666022,1854.55831598 306.791959048,1792.47357415 297.524120012,1792.40486344 297.111377867,1854.1775692 " moovel_rot="-72.0" moovel_centroid="302.08141694,1823.67860232" moovel_centroidlatlon="4.810730073172841,52.35374396848043"/>
  <polygon id="309038413" class="tile" points="307.885666022,1792.46796885 316.756361823,1792.40553083 325.274241018,1792.40486344 325.256545141,1811.43515128 316.515209863,1811.44228605 307.989534546,1811.50325078 307.885666022,1792.46796885 " moovel_rot="-18.7" moovel_centroid="316.601097736,1801.92728566" moovel_centroidlatlon="4.893429591877352,52.40710857252813"/>
  <polygon id="179918190" class="tile" points="332.125329184,1841.91939788 326.274241018,1841.92794181 326.296279465,1792.41689417 332.153064497,1792.40486344 332.125329184,1841.91939788 " moovel_rot="-31.7" moovel_centroid="329.212264814,1817.16326014" moovel_centroidlatlon="4.925586556967202,52.38508198103445"/>
  <polygon id="178444038" class="tile" points="357.972373378,1826.6894136 357.989558656,1792.40486344 333.175354524,1792.44392756 333.153064497,1826.71891737 357.972373378,1826.6894136 " moovel_rot="-28.1" moovel_centroid="345.573164617,1809.56486793" moovel_centroidlatlon="4.922699303499526,52.367249967711615"/>
  <polygon id="375488644" class="tile" points="360.939141502,1847.57065665 366.489522446,1847.75502131 366.542037315,1792.40486344 358.989558656,1795.67624105 360.939141502,1847.57065665 " moovel_rot="-91.2" moovel_centroid="363.245530855,1819.44314576" moovel_centroidlatlon="4.846300807360799,52.385894279705944"/>
  <polygon id="193001196" class="tile" points="373.371825654,1817.54649684 367.543028903,1817.5626203 367.542037315,1792.41522516 373.367455621,1792.40486344 373.371825654,1817.54649684 " moovel_rot="-59.5" moovel_centroid="370.45597588,1804.98351677" moovel_centroidlatlon="4.9461922084262095,52.32233414519822"/>
  <polygon id="185687676" class="tile" points="379.085209328,1844.05003705 379.119735873,1792.40486344 374.410294261,1792.41639195 374.371825654,1844.05140231 379.085209328,1844.05003705 " moovel_rot="-21.2" moovel_centroid="376.746841041,1818.23428077" moovel_centroidlatlon="4.931118031485155,52.39422049390181"/>
  <polygon id="230125383" class="tile" points="381.135346712,1859.54650332 380.119735873,1793.41664486 414.788254652,1792.40486344 414.67335613,1863.62579892 381.135346712,1859.54650332 " moovel_rot="-61.6" moovel_centroid="397.890738859,1827.06265152" moovel_centroidlatlon="4.977943728182454,52.299997627769166"/>
  <polygon id="159333119" class="tile" points="415.788254652,1792.40486344 427.171935764,1792.40914805 427.20307151,1829.56043132 415.817087487,1829.56679809 415.788254652,1792.40486344 " moovel_rot="12.2" moovel_centroid="421.4948159,1810.98593892" moovel_centroidlatlon="4.92113039801344,52.38494696883471"/>
  <polygon id="152379406" class="tile" points="438.428322299,1843.42580444 434.592752492,1842.68833926 428.20307151,1890.40052703 483.255769822,1903.2493174 483.23429432,1798.79523863 452.934063717,1792.40486344 438.428322299,1843.42580444 " moovel_rot="-32.5" moovel_centroid="460.403755051,1851.1324953" moovel_centroidlatlon="4.955070491654945,52.344743131157394"/>
  <polygon id="25217121" class="tile" points="484.255769822,1829.50690873 486.205411887,1792.40486344 502.094705656,1793.36952563 502.153271253,1829.94714982 500.503703827,1829.9506208 484.255769822,1829.50690873 " moovel_rot="-87.8" moovel_centroid="493.646049329,1811.6797252" moovel_centroidlatlon="4.845947407415572,52.38356980495094"/>
  <polygon id="148698738" class="tile" points="503.153271253,1939.51412238 503.251929767,1792.40486344 515.981296875,1792.40922223 515.882613946,1939.5251603 503.153271253,1939.51412238 " moovel_rot="-89.8" moovel_centroid="509.567326134,1865.96332292" moovel_centroidlatlon="4.797646425273663,52.39040369955932"/>
  <polygon id="181176001" class="tile" points="516.981296875,1826.15474959 517.111155723,1792.40486344 551.27794071,1792.607519 551.14203427,1828.41222118 551.297039854,1864.7589601 517.122312938,1864.83688982 516.98357429,1831.07777817 516.981296875,1826.15474959 " moovel_rot="28.5" moovel_centroid="534.11885929,1828.6533615" moovel_centroidlatlon="4.96927353927476,52.301865799809576"/>
  <polygon id="156596073" class="tile" points="56.426384585,2010.76320736 56.3229774663,1977.73806644 46.7028182913,1977.14896148 45.084244691,1961.61061032 51.4622872006,1956.31414129 56.288321388,1957.24265994 56.5384587379,1939.5251603 0.0,1941.11720373 1.87324868739,2018.01809548 56.426384585,2010.76320736 " moovel_rot="-45.9" moovel_centroid="27.07948104892638,1977.70099397" moovel_centroidlatlon="4.925559005823667,52.349147780447694"/>
  <polygon id="185680299" class="tile" points="81.4982832365,2000.65833144 58.5384587379,1957.74525749 97.6873437285,1939.5251603 97.6752156002,1997.02743321 81.4982832365,2000.65833144 " moovel_rot="-67.7" moovel_centroid="83.2481581404,1969.99793387" moovel_centroidlatlon="4.916582554195193,52.382592455561245"/>
  <polygon id="277712458" class="tile" points="98.7152104542,1939.85608448 98.6873437285,1989.13330994 116.38663352,1988.59142266 115.90042448,1939.5251603 98.7152104542,1939.85608448 " moovel_rot="56.6" moovel_centroid="107.417111723,1964.39762768" moovel_centroidlatlon="4.772088770663501,52.35299544808897"/>
  <polygon id="148695780" class="tile" points="117.38663352,2034.28369628 117.413351401,1939.5251603 130.47034142,1939.52673455 130.44358729,2034.29194961 117.38663352,2034.28369628 " moovel_rot="-89.7" moovel_centroid="123.928555104,1986.90686443" moovel_centroidlatlon="4.808119125305182,52.390411449298426"/>
  <polygon id="181179181" class="tile" points="131.486658598,1958.09526791 131.47034142,1939.5413427 136.683982871,1939.5251603 136.687533876,1958.07981908 131.486658598,1958.09526791 " moovel_rot="-61.8" moovel_centroid="134.082143411,1948.80660668" moovel_centroidlatlon="4.968608225091478,52.304782991315435"/>
  <polygon id="332118310" class="tile" points="137.691015494,1939.5251603 168.84505638,1948.38699279 153.453120894,2001.44204189 137.687533876,1996.86275178 137.691015494,1939.5251603 " moovel_rot="-52.6" moovel_centroid="149.843780768,1968.54160531" moovel_centroidlatlon="4.907405492859167,52.35929715575022"/>
  <polygon id="448803151" class="tile" points="169.84505638,1977.39838315 169.878156865,1939.5251603 181.999346887,1939.53403708 181.966435648,1977.41393642 173.696436903,1977.40439452 169.84505638,1977.39838315 " moovel_rot="-91.6" moovel_centroid="175.922416314,1958.46819759" moovel_centroidlatlon="4.868487270175909,52.34454444854723"/>
  <polygon id="192250882" class="tile" points="183.012251677,1983.82392431 182.999346887,1939.5315475 193.991188206,1939.5251603 194.004088897,1983.81753694 183.012251677,1983.82392431 " moovel_rot="-87.7" moovel_centroid="188.501718913,1961.67454089" moovel_centroidlatlon="4.84630355,52.3910232"/>
  <polygon id="108334783" class="tile" points="227.935296093,1939.59277231 227.997949685,2088.97477475 195.057987583,2088.91286999 195.004088897,1939.5251603 227.935296093,1939.59277231 " moovel_rot="56.9" moovel_centroid="211.498726681,2014.25470409" moovel_centroidlatlon="4.93669134248567,52.40022690687249"/>
  <polygon id="139705717" class="tile" points="234.231030867,1939.5386688 234.239862608,2015.96463705 229.006812377,2015.95111125 228.997949685,1939.5251603 234.231030867,1939.5386688 " moovel_rot="60.8" moovel_centroid="231.618913979,1977.74485668" moovel_centroidlatlon="4.909870650000012,52.37238359999999"/>
  <polygon id="410080250" class="tile" points="239.135875135,1939.5251603 235.239862608,1976.35313838 258.263164489,1979.02710419 258.205641158,1940.5045854 239.135875135,1939.5251603 " moovel_rot="23.2" moovel_centroid="247.743205431,1959.45792399" moovel_centroidlatlon="4.88001841214772,52.36639466573287"/>
  <polygon id="171708535" class="tile" points="259.567012864,2219.08498066 265.72660378,2218.9231831 266.284057865,2098.5939724 266.651540407,1966.05266521 266.463861128,1940.06538899 259.263164489,1939.5251603 259.559236371,2045.12773729 259.373188769,2113.33081509 259.567012864,2219.08498066 " moovel_rot="34.0" moovel_centroid="262.865323652,2075.81471432" moovel_centroidlatlon="4.986240960763336,52.36370995573437"/>
  <polygon id="240341197" class="tile" points="283.980704785,1996.24335186 284.131676291,1944.67756748 274.587151092,1939.5251603 267.651540407,1939.96081101 267.727467538,1996.55289056 276.492558115,1996.30435468 283.980704785,1996.24335186 " moovel_rot="-94.2" moovel_centroid="275.74027568,1968.64331504" moovel_centroidlatlon="4.951846651669291,52.3569853067512"/>
  <polygon id="296423584" class="tile" points="355.079575265,1966.31998602 296.49097478,1966.40622922 296.497533557,1968.53064312 296.849874517,2048.35166601 297.016976991,2062.52993934 300.192490207,2062.49184551 347.861219456,2062.34191881 355.040151748,2062.3336238 355.067808914,2077.62505431 285.328726287,2077.73043109 285.131676291,1939.63416854 355.045420341,1939.5251603 355.079575265,1966.31998602 " moovel_rot="-89.0" moovel_centroid="312.187995393,2000.64585556" moovel_centroidlatlon="4.839509846835897,52.35565394491949"/>
  <polygon id="151052486" class="tile" points="356.932268361,1939.5251603 363.281891319,1939.75255957 363.319885796,2086.76484904 362.605640481,2088.44521468 360.60651666,2089.47246144 358.466736254,2089.73962097 356.447492054,2088.57557654 356.079575265,2086.58326606 356.932268361,1939.5251603 " moovel_rot="-55.6" moovel_centroid="359.892002877,2015.9762078" moovel_centroidlatlon="4.980540392781396,52.36082670819685"/>
  <polygon id="446630632" class="tile" points="364.494505946,1963.42815341 364.319885796,1953.49079459 367.878340418,1946.86285919 372.813167171,1939.5251603 384.373524529,1944.78341011 381.04008619,1952.53659314 381.498295172,1958.3188184 384.371965402,1968.48707064 364.494505946,1963.42815341 " moovel_rot="-63.1" moovel_centroid="374.34428224,1954.51398665" moovel_centroidlatlon="4.90881584180128,52.400344491444535"/>
  <polygon id="169492276" class="tile" points="389.788991745,1965.5260757 385.373524529,1965.52248526 385.380622258,1939.5251603 389.796090458,1939.52875545 389.788991745,1965.5260757 " moovel_rot="-11.8" moovel_centroid="387.584807181,1952.5256187" moovel_centroidlatlon="4.748741600000001,52.40715285"/>
  <polygon id="157054693" class="tile" points="390.796090458,2006.27307513 409.824546445,2005.54280404 410.194517511,1985.84972749 414.586356701,1981.23374356 414.32066801,1945.49485453 409.42922963,1940.79170504 394.872971159,1939.5251603 390.859982094,1940.85116265 390.796090458,2006.27307513 " moovel_rot="56.6" moovel_centroid="401.843282573,1971.90136359" moovel_centroidlatlon="4.78218892710864,52.36005657359143"/>
  <polygon id="439935078" class="tile" points="415.586356701,1983.49834647 446.845122345,1984.4629146 446.784472451,1939.5251603 433.198700147,1945.79381837 416.150925346,1945.51337947 415.586356701,1983.49834647 " moovel_rot="-8.1" moovel_centroid="431.765024225,1964.1765668" moovel_centroidlatlon="4.989312469730371,52.29337228083016"/>
  <polygon id="192153722" class="tile" points="448.372243498,1942.78636053 452.86733891,1939.87412783 459.031584524,1939.5251603 467.023403162,1939.66945126 475.632683121,1939.85801143 475.688520867,1984.88652923 466.5641255,1984.51102154 466.515005069,1991.23263597 449.75311427,1990.59812362 447.845122345,1980.0177655 448.372243498,1942.78636053 " moovel_rot="29.1" moovel_centroid="461.653907202,1964.41890126" moovel_centroidlatlon="4.956069766069615,52.32286945089019"/>
  <polygon id="148704393" class="tile" points="508.292571557,2120.95757662 517.976520378,2036.80871461 495.42536589,1939.5251603 480.516975422,1941.22774678 476.688520867,1973.06957473 485.868903294,2024.98985603 476.815091005,2118.55075251 508.292571557,2120.95757662 " moovel_rot="-84.1" moovel_centroid="495.828961505,2037.05231182" moovel_centroidlatlon="4.7963849862874435,52.40131771685807"/>
  <polygon id="405595124" class="tile" points="518.976520378,1999.21508654 519.991781425,1939.5251603 555.549275642,1940.05424985 555.56806265,1999.83751523 518.976520378,1999.21508654 " moovel_rot="-88.9" moovel_centroid="537.52408534,1969.80084503" moovel_centroidlatlon="4.867834237532985,52.3281476753098"/>
  <polygon id="254471186" class="tile" points="556.56806265,1940.44431858 557.394848548,1989.59663556 573.691891401,1990.44809727 573.775600255,1939.5251603 556.56806265,1940.44431858 " moovel_rot="0.5" moovel_centroid="565.405240992,1964.77355353" moovel_centroidlatlon="4.8322796831885535,52.366044936684986"/>
  <polygon id="282932476" class="tile" points="0.0,2276.75433602 2.11005237121,2223.13387736 4.02992274379,2219.08498066 27.5803775294,2220.93885513 34.0039547645,2220.86217136 34.0391404672,2281.89980155 9.15139478724,2280.09374033 0.0,2276.75433602 " moovel_rot="29.9" moovel_centroid="17.66874583091741,2250.65010771" moovel_centroidlatlon="4.967152300434188,52.30177904572223"/>
  <polygon id="157113868" class="tile" points="36.0741060652,2219.08498066 43.7298590498,2219.10517794 43.7007109729,2275.63039625 36.0391404672,2275.60691732 36.0741060652,2219.08498066 " moovel_rot="29.1" moovel_centroid="39.8859889754,2247.36044723" moovel_centroidlatlon="4.9658977515951115,52.31679832136755"/>
  <polygon id="185676547" class="tile" points="52.2923903368,2330.72882831 44.7298590498,2330.0662992 46.2155887627,2219.08498066 52.1715836934,2219.71079756 52.2923903368,2330.72882831 " moovel_rot="-39.9" moovel_centroid="48.8382539335,2277.09521772" moovel_centroidlatlon="4.909467908193258,52.382339462292244"/>
  <polygon id="153401686" class="tile" points="86.5663420126,2331.48972834 86.5662802039,2219.09130649 82.0793244731,2219.08498066 55.2927078141,2289.30407933 53.551782592,2295.0797089 53.2923903368,2300.66211501 54.6532634439,2307.86927994 58.1568055946,2315.79344763 63.1290967308,2322.26682036 70.1919115085,2328.30830879 75.8215228466,2331.97739633 86.5663420126,2331.48972834 " moovel_rot="68.6" moovel_centroid="74.027478519,2284.83579073" moovel_centroidlatlon="4.970028260209538,52.327589261967624"/>
  <polygon id="184393086" class="tile" points="87.5825171453,2219.08498066 94.557524387,2219.09943458 94.5413436856,2251.7754628 87.5663420126,2251.76099422 87.5825171453,2219.08498066 " moovel_rot="20.8" moovel_centroid="91.0619320697,2235.4302159" moovel_centroidlatlon="4.9859977,52.32076695"/>
  <polygon id="179918187" class="tile" points="96.6024398094,2219.28235884 101.741531996,2219.08498066 103.228026087,2304.24787937 103.167202879,2396.37611239 96.2362877319,2396.08375631 95.557524387,2314.2325098 96.6024398094,2219.28235884 " moovel_rot="57.8" moovel_centroid="99.4371781988,2311.62425278" moovel_centroidlatlon="4.926154810639227,52.38677990443005"/>
  <polygon id="191825957" class="tile" points="104.261532007,2219.08498066 111.485592311,2219.35111783 112.834235327,2404.15879913 108.752193261,2475.79189936 104.228026087,2475.09001745 104.707072086,2371.09071289 104.261532007,2219.08498066 " moovel_rot="-40.7" moovel_centroid="108.187469793,2343.54091993" moovel_centroidlatlon="4.915677975100883,52.38850303061341"/>
</svg>