<svg xmlns="http://www.w3.org/2000/svg" version="1.1" width="592.5px" height="1315px">
  <polygon id="3" class="bin" points="301.874999,3.75 300.776649429,1.09834957055 298.124999,0.0 1.875,0.0 -0.77665042945,1.09834957055 -1.875,3.75 -1.875,1318.75 -0.77665042945,1321.40165043 1.875,1322.5 298.124999,1322.5 300.776649429,1321.40165043 301.874999,1318.75 301.874999,3.75 " moovel_rot="0" moovel_centroid="149.99999950000006,661.2500000000001" moovel_centroidlatlon="0,0"/>
  <polygon id="148308603" class="tile" points="3.1922970267,1372.37353073 48.5552004898,1362.59372223 41.4718157478,1349.65048361 48.589630297,1329.45819535 4.53852820341,1320.0 1.0,1334.46829046 1.04544287585,1358.25689884 3.1922970267,1372.37353073 " moovel_rot="-79.7" moovel_centroid="21.956873318349952,1346.0744264064638" moovel_centroidlatlon="4.94051403582117,52.35792606678268"/>
  <polygon id="193003234" class="tile" points="49.589630297,1320.0 54.4365255594,1320.00665389 54.4389564418,1353.77195539 49.5920680593,1353.76528894 49.589630297,1320.0 " moovel_rot="28.7" moovel_centroid="52.0142952395,1336.8859705583682" moovel_centroidlatlon="4.95035105,52.3225277"/>
  <polygon id="157114380" class="tile" points="55.4860066096,1377.11559139 55.4389564418,1320.0 61.377689725,1320.00827303 61.4247251764,1377.12389065 55.4860066096,1377.11559139 " moovel_rot="29.3" moovel_centroid="58.4318447059,1348.5619269584631" moovel_centroidlatlon="4.97217665,52.3167638"/>
  <polygon id="28763431" class="tile" points="62.4247251764,1348.81524091 83.9449032413,1441.91097126 147.898132454,1428.61914796 147.881237426,1320.0 88.4632834932,1333.87367104 63.2496814502,1338.7472917 62.4247251764,1348.81524091 " moovel_rot="78.3" moovel_centroid="109.866195486,1379.96022532925" moovel_centroidlatlon="4.804304349911651,52.392496663202934"/>
  <polygon id="57852930" class="tile" points="148.93842123,1375.82204152 148.898132454,1320.01238682 181.459977364,1320.0 181.491141778,1400.38119598 148.951268594,1400.44411992 148.93842123,1375.82204152 " moovel_rot="-60.8" moovel_centroid="165.199276619,1360.2046359649646" moovel_centroidlatlon="4.975529180761711,52.32390557810218"/>
  <polygon id="183589431" class="tile" points="182.491141778,1371.34216593 182.514134394,1320.0 189.330121383,1320.017386 189.3198986,1371.35931352 182.491141778,1371.34216593 " moovel_rot="57.4" moovel_centroid="185.91381845,1345.6877246254735" moovel_centroidlatlon="4.905612126183236,52.40035428535617"/>
  <polygon id="146736623" class="tile" points="190.330121383,1321.73383153 233.494491505,1320.0 233.458423943,1384.10780636 192.518205055,1388.18456464 190.330121383,1321.73383153 " moovel_rot="-37.1" moovel_centroid="212.311784824,1353.233397747757" moovel_centroidlatlon="4.932926812681067,52.39634886044289"/>
  <polygon id="211950429" class="tile" points="234.498939721,1320.0 252.689519568,1320.04280267 252.690223202,1338.68051919 234.494491505,1338.64728454 234.498939721,1320.0 " moovel_rot="28.3" moovel_centroid="243.592514463,1329.3430898139336" moovel_centroidlatlon="4.960057892821495,52.3064009680507"/>
  <polygon id="352797304" class="tile" points="253.833229818,1320.0 266.921661318,1320.22392924 266.926978417,1391.48966124 253.690223202,1390.78346339 253.833229818,1320.0 " moovel_rot="17.6" moovel_centroid="260.350325165,1355.6914271859655" moovel_centroidlatlon="4.966373483281097,52.38475728367101"/>
  <polygon id="216268663" class="tile" points="267.926978417,1367.06828642 274.654974674,1367.06078062 274.663464659,1320.0 267.935450126,1320.00749993 267.926978417,1367.06828642 " moovel_rot="-72.2" moovel_centroid="271.295216901,1343.5341310898202" moovel_centroidlatlon="4.786671299999999,52.35828364999999"/>
  <polygon id="26311676" class="tile" points="275.695427082,1320.0 275.663464659,1417.83280921 289.627420396,1417.64341487 289.550868388,1320.36943746 275.695427082,1320.0 " moovel_rot="15.7" moovel_centroid="282.627661179,1369.0248677772652" moovel_centroidlatlon="4.854209336488406,52.36959067364364"/>
  <polygon id="148698728" class="tile" points="290.636654278,1346.33991115 290.627420396,1320.00135791 305.119377599,1320.0 305.117696058,1346.33826741 290.636654278,1346.33991115 " moovel_rot="-88.5" moovel_centroid="297.875273693,1333.1682303159475" moovel_centroidlatlon="4.801793074742115,52.390409775519046"/>
  <polygon id="247425016" class="tile" points="306.119377599,1381.77270576 315.893665754,1382.15345254 315.79995878,1320.06871071 306.532119744,1320.0 306.119377599,1381.77270576 " moovel_rot="-72.0" moovel_centroid="311.089416672,1351.2737388762373" moovel_centroidlatlon="4.810730073172841,52.35374396848043"/>
  <polygon id="289338222" class="tile" points="316.893665754,1367.37817439 316.922233598,1320.00225398 322.390743344,1320.0 322.351917344,1367.37220702 316.893665754,1367.37817439 " moovel_rot="-70.1" moovel_centroid="319.639609523,1343.6807444187036" moovel_centroidlatlon="4.9695923040598835,52.290746548395816"/>
  <polygon id="215836514" class="tile" points="323.390743344,1396.92075287 327.634584247,1397.04288339 327.632610752,1320.0 323.678035761,1320.45378337 323.390743344,1396.92075287 " moovel_rot="-60.7" moovel_centroid="325.585766848,1359.0573126249246" moovel_centroidlatlon="4.948432748443393,52.324005827092854"/>
  <polygon id="157026387" class="tile" points="328.634584247,1371.74073517 329.616103352,1320.0 345.308252679,1321.25673426 345.350711984,1377.05116618 328.634584247,1371.74073517 " moovel_rot="44.9" moovel_centroid="337.321284211,1347.8241110030137" moovel_centroidlatlon="4.921157467440122,52.346681556376765"/>
  <polygon id="181176618" class="tile" points="346.384789244,1375.72870969 379.586453885,1375.63777013 379.552519622,1320.0 346.350711984,1320.09085964 346.37166381,1349.08647801 346.384789244,1375.72870969 " moovel_rot="-60.8" moovel_centroid="362.969412775,1347.8642938672408" moovel_centroidlatlon="4.96615840607244,52.303000093733075"/>
  <polygon id="169471414" class="tile" points="380.604931101,1320.0 394.826164945,1320.07385158 395.002798609,1379.54459366 380.586453885,1379.92234963 380.604931101,1320.0 " moovel_rot="-11.4" moovel_centroid="387.74619185,1349.9532874457432" moovel_centroidlatlon="4.751357867955189,52.40870402994634"/>
  <polygon id="163858159" class="tile" points="412.090452199,1336.95497763 411.485683008,1392.48956862 410.957633064,1395.81745637 409.678330031,1398.07140267 407.595144252,1399.26600301 404.937496859,1399.24752694 401.893805839,1398.12314044 399.207715498,1396.04010673 397.597298222,1394.11622539 396.045865818,1391.62841686 396.002798609,1321.86340539 396.340215154,1320.70934932 397.517848274,1320.09165 398.898046169,1320.0 400.035695116,1320.66874039 405.313893192,1325.02722163 410.481445733,1330.58083862 411.285564888,1332.09065066 411.78959915,1333.66288984 411.946089415,1335.28992397 412.090452199,1336.95497763 " moovel_rot="74.5" moovel_centroid="403.736864813,1360.6312097933044" moovel_centroidlatlon="4.807190763425217,52.41552278281204"/>
  <polygon id="151052487" class="tile" points="419.659081735,1390.74596648 419.687379009,1321.28842141 418.296891934,1320.14807185 416.456710435,1320.0 414.62609826,1320.50782247 413.090452199,1321.85313747 413.461858929,1391.35973309 419.659081735,1390.74596648 " moovel_rot="-56.4" moovel_centroid="416.472686042,1355.4113979461026" moovel_centroidlatlon="4.982016136562499,52.361435457424534"/>
  <polygon id="68914878" class="tile" points="442.534052331,1320.59227425 442.318505509,1347.39362554 420.690356674,1347.28907822 420.687379009,1320.0 442.534052331,1320.59227425 " moovel_rot="64.7" moovel_centroid="431.525232562,1333.7953704575573" moovel_centroidlatlon="4.945162476734563,52.39078964864601"/>
  <polygon id="189331362" class="tile" points="466.342257567,1380.96515447 464.986846602,1320.0 443.608114786,1320.75753519 443.534052331,1381.64878919 466.342257567,1380.96515447 " moovel_rot="-0.1" moovel_centroid="454.624909834,1351.1709703664192" moovel_centroidlatlon="4.84478794760339,52.37148861820593"/>
  <polygon id="188340286" class="tile" points="473.242484465,1404.34020864 467.404475023,1403.80090098 467.342257567,1320.0 473.666960067,1320.30303528 473.242484465,1404.34020864 " moovel_rot="-25.9" moovel_centroid="470.416880955,1361.5521466104399" moovel_centroidlatlon="4.945331668054792,52.39430974324797"/>
  <polygon id="230125374" class="tile" points="474.666960067,1321.47386201 475.071127636,1391.88956181 509.117522994,1393.04128325 509.172667733,1320.0 474.666960067,1321.47386201 " moovel_rot="-60.5" moovel_centroid="492.111339604,1356.519473677985" moovel_centroidlatlon="4.976813732996592,52.29960313610137"/>
  <polygon id="75132461" class="tile" points="510.172667733,1372.22285705 543.853376255,1373.21510094 543.771916023,1321.40487668 510.382107152,1320.0 510.172667733,1372.22285705 " moovel_rot="7.6" moovel_centroid="527.022244218,1346.7474303604326" moovel_centroidlatlon="5.002801209732994,52.38219866392272"/>
  <polygon id="255761053" class="tile" points="544.879191004,1320.0 549.224015457,1320.21438039 550.285263259,1413.15769655 544.853376255,1413.1952647 544.879191004,1320.0 " moovel_rot="1.1" moovel_centroid="547.318879947,1368.3689244810546" moovel_centroidlatlon="4.835965522421629,52.365309900288544"/>
  <polygon id="194818757" class="tile" points="551.675129496,1345.47583657 568.157614569,1345.37044461 568.16894313,1320.0 554.516842483,1320.78975746 551.285263259,1325.85328223 551.675129496,1345.47583657 " moovel_rot="-67.7" moovel_centroid="559.994116748,1333.0980305765913" moovel_centroidlatlon="4.9139197211311805,52.33397438497528"/>
  <polygon id="184393139" class="tile" points="569.16894313,1320.0 573.631048524,1320.96004638 573.571957496,1335.12537752 569.176156945,1334.67036261 569.16894313,1320.0 " moovel_rot="37.6" moovel_centroid="571.37440591,1327.6686967988144" moovel_centroidlatlon="4.981763015316057,52.31923200154169"/>
  <polygon id="197362950" class="tile" points="574.63493692,1320.00019296 588.392066088,1320.0 588.386300313,1327.87482484 584.203714876,1327.87452286 584.433125141,1334.42297585 584.202640912,1339.39749406 589.835252699,1339.39207753 589.831241272,1360.72310168 574.631048524,1360.71827027 574.63493692,1320.00019296 " moovel_rot="1.5" moovel_centroid="581.524102367,1341.4903293162072" moovel_centroidlatlon="4.8497016311211505,52.39620739622113"/>
  <polygon id="184393087" class="tile" points="0.0,1449.04080302 1.12432636488,1441.91097126 11.5875683885,1442.91193187 11.5843169577,1498.49959187 4.32679227591,1497.71567165 5.89497067966,1449.81969457 0.0,1449.04080302 " moovel_rot="-66.7" moovel_centroid="7.868050456063441,1469.06088101" moovel_centroidlatlon="4.986180200663759,52.31995124773276"/>
  <polygon id="193459184" class="tile" points="29.0000647519,1444.27368005 29.3621306829,1468.40550009 19.7129796872,1469.01124625 13.5875683885,1468.86048755 13.6144874746,1441.91097126 29.0000647519,1444.27368005 " moovel_rot="83.2" moovel_centroid="21.2446060384,1455.99238993" moovel_centroidlatlon="4.872967169034326,52.35120137587948"/>
  <polygon id="146979907" class="tile" points="30.3621306829,1559.69343888 30.5105654106,1441.95169673 67.3541363681,1441.91097126 67.2425880952,1530.52693979 83.2201781284,1530.50304286 83.1843463076,1559.64116264 30.3621306829,1559.69343888 " moovel_rot="-37.5" moovel_centroid="51.412314011,1505.09425698" moovel_centroidlatlon="4.932634268661029,52.401153925858104"/>
  <polygon id="191044200" class="tile" points="97.0956222489,1505.42595887 108.511995263,1495.35669927 110.989570685,1492.39568514 114.099384424,1487.44186507 115.220752076,1483.47247958 115.150018653,1444.78624113 103.132985917,1441.91097126 92.0317626171,1442.53586896 84.2615023522,1443.82001507 84.2201781284,1493.07905634 89.2566517971,1493.23034956 91.5806526273,1500.82848816 97.0956222489,1505.42595887 " moovel_rot="-71.8" moovel_centroid="99.4026819287,1470.39044962" moovel_centroidlatlon="4.786286195030754,52.349454534948165"/>
  <polygon id="52707721" class="tile" points="116.220752076,1555.246707 159.030968099,1579.37554554 183.647465027,1589.56480434 200.90092408,1588.47201948 210.828997436,1578.81938594 184.071910328,1550.18434116 176.868190178,1538.89431389 175.879663902,1490.5124642 210.674451046,1453.37194259 197.583909352,1441.91097126 159.934037273,1480.51936443 118.846173086,1536.59962 116.220752076,1555.246707 " moovel_rot="-36.0" moovel_centroid="163.97839175,1530.59583038" moovel_centroidlatlon="4.815435499207208,52.337143852564644"/>
  <polygon id="179372172" class="tile" points="211.879667644,1499.52993301 218.622447712,1499.53734595 218.575706202,1441.92378588 211.828997436,1441.91097126 211.879667644,1499.52993301 " moovel_rot="54.3" moovel_centroid="215.226649749,1470.72271548" moovel_centroidlatlon="4.895420090822206,52.40598821439785"/>
  <polygon id="72591919" class="tile" points="219.622447712,1494.24018399 247.830962483,1494.31945319 247.777321269,1442.61612836 230.654919429,1443.46434532 219.927599394,1441.91097126 219.622447712,1494.24018399 " moovel_rot="-59.3" moovel_centroid="233.773196749,1468.6445817" moovel_centroidlatlon="4.970762674024502,52.320851357532156"/>
  <polygon id="216268548" class="tile" points="248.830962483,1481.70060497 255.581902455,1481.69345061 255.602122581,1441.91097126 248.851167121,1441.91812065 248.830962483,1481.70060497 " moovel_rot="-72.2" moovel_centroid="252.216538593,1461.80577927" moovel_centroidlatlon="4.787844599999999,52.3591949"/>
  <polygon id="191747034" class="tile" points="261.547737678,1488.08938745 256.602122581,1487.89615892 256.664515091,1441.91097126 261.496854579,1441.97105275 261.547737678,1488.08938745 " moovel_rot="-38.2" moovel_centroid="259.078948341,1465.05585192" moovel_centroidlatlon="4.932030614665802,52.399339553219015"/>
  <polygon id="150904704" class="tile" points="262.547737678,1497.79397887 269.243961732,1497.79396438 284.252953792,1497.80314845 297.295750936,1497.80491693 304.833066613,1497.80328742 304.848647813,1441.92680592 262.574326961,1441.91097126 262.547737678,1497.79397887 " moovel_rot="-89.2" moovel_centroid="283.70077828,1469.86091051" moovel_centroidlatlon="4.788395392775966,52.4125883262492"/>
  <polygon id="179373938" class="tile" points="305.848647813,1484.44834807 305.852278033,1441.91097126 314.332573519,1441.93174754 314.324589168,1484.48119548 305.848647813,1484.44834807 " moovel_rot="51.2" moovel_centroid="310.089723073,1463.19124615" moovel_centroidlatlon="4.895949255791329,52.40417743680241"/>
  <polygon id="171470011" class="tile" points="315.334261135,1441.92208747 320.858052096,1441.91097126 320.849930607,1451.27028041 315.332573519,1451.27960313 315.334261135,1441.92208747 " moovel_rot="-15.6" moovel_centroid="318.093792396,1446.59482665" moovel_centroidlatlon="4.821781279930797,52.41851890779579"/>
  <polygon id="296423592" class="tile" points="370.366495651,1497.48052243 370.35908273,1467.39534695 365.195521991,1467.39960364 365.192349293,1463.79981009 345.186227196,1463.80407048 345.184660649,1441.91097126 321.858705735,1441.91250984 321.858052096,1442.9160719 321.871010278,1497.4796657 370.366495651,1497.48052243 " moovel_rot="0.8" moovel_centroid="342.9004398,1474.09728068" moovel_centroidlatlon="4.835923232606075,52.35084114569653"/>
  <polygon id="153401723" class="tile" points="371.366495651,1455.96630582 371.383231539,1489.97948691 371.380269561,1492.20248838 419.337204682,1492.25929033 419.311412861,1441.91275428 412.173779168,1441.91097126 412.181279342,1456.00875293 371.366495651,1455.96630582 " moovel_rot="69.7" moovel_centroid="396.46882483,1472.73439911" moovel_centroidlatlon="4.97187824653729,52.328489995681004"/>
  <polygon id="185681587" class="tile" points="420.337204682,1465.66559871 452.293507442,1441.91097126 452.310877151,1497.32634712 445.82854414,1500.12467198 420.337204682,1465.66559871 " moovel_rot="12.3" moovel_centroid="441.339793087,1471.06898281" moovel_centroidlatlon="4.9172206650777746,52.383049922919795"/>
  <polygon id="439959239" class="tile" points="453.365313574,1443.26767754 471.058081215,1441.91097126 479.238868957,1447.98640322 480.844956071,1486.91801182 469.715949172,1488.35748393 467.403793064,1493.8032818 453.310877151,1494.36153657 453.365313574,1443.26767754 " moovel_rot="26.5" moovel_centroid="466.072197666,1467.64977098" moovel_centroidlatlon="4.9646846411916155,52.30321126729857"/>
  <polygon id="187943023" class="tile" points="481.844956071,1476.98823862 482.064065131,1466.31768404 482.624195146,1441.91097126 494.08398967,1442.50432733 493.732739071,1456.86315581 509.36361752,1457.29972095 509.385388802,1477.88085722 481.844956071,1476.98823862 " moovel_rot="3.4" moovel_centroid="494.000531759,1463.14738083" moovel_centroidlatlon="4.850125582344639,52.385501776909166"/>
  <polygon id="144674659" class="tile" points="520.220496525,1567.28613222 522.949494889,1563.69810877 536.466661413,1562.18312297 555.644432042,1578.17632852 559.219762876,1581.15850318 561.640913033,1586.84935467 566.94870468,1581.90520313 562.667028257,1574.65112075 584.2638566,1545.88461896 585.05982263,1454.58611675 581.87771368,1450.0265574 579.536939136,1447.06294414 579.533662337,1442.1512863 557.866243015,1441.91097126 557.313922138,1446.96841055 515.205761944,1446.113258 514.205226611,1451.46177116 510.385388802,1451.80805178 510.530681476,1547.83913508 513.652167568,1547.73930546 513.599603397,1557.17095687 512.136927526,1559.82512493 520.220496525,1567.28613222 " moovel_rot="57.0" moovel_centroid="547.847901681,1506.00328971" moovel_centroidlatlon="4.791804284294891,52.351224734363264"/>
  <polygon id="44898420" class="tile" points="31.9032335809,1590.38840576 31.8562424275,1693.07685342 31.1628664814,1713.76223968 1.24141770573,1714.17322416 0.0,1618.45302447 0.324669613224,1589.56480434 5.71262809401,1589.60818715 31.9032335809,1590.38840576 " moovel_rot="28.2" moovel_centroid="16.136680371618656,1651.42861356" moovel_centroidlatlon="4.925689123580697,52.33607750027228"/>
  <polygon id="211918123" class="tile" points="59.7753191085,1589.56480434 60.9576447586,1663.01040762 33.9032335809,1675.81885415 34.0029140244,1601.56571668 52.636031668,1592.88668003 59.7753191085,1589.56480434 " moovel_rot="-5.7" moovel_centroid="47.1558946068,1632.79122346" moovel_centroidlatlon="4.933117419078843,52.358155305488424"/>
  <polygon id="387922064" class="tile" points="86.1795413686,1663.88059146 114.039648381,1663.3949251 114.018207503,1589.56480434 63.9431902077,1591.35431734 61.9576447586,1627.6492016 86.6398893691,1628.71779884 86.1795413686,1663.88059146 " moovel_rot="4.3" moovel_centroid="92.5802554636,1621.75259592" moovel_centroidlatlon="4.851225569640857,52.33590578418328"/>
  <polygon id="380688954" class="tile" points="115.039648381,1638.34648434 143.483903524,1638.52038124 146.211965321,1638.19719959 145.326868602,1696.43196656 152.099197195,1696.67991521 152.181996912,1597.94981482 149.382477989,1594.22176573 144.75903777,1590.76429477 138.5304927,1589.56480434 132.605553634,1590.59151355 126.536691628,1592.52740615 122.68382537,1594.14030022 119.856299346,1598.62885277 116.346894259,1605.92219512 115.947546621,1620.69936989 115.039648381,1638.34648434 " moovel_rot="-69.4" moovel_centroid="137.131408449,1625.40960044" moovel_centroidlatlon="4.973341178264256,52.29136883942314"/>
  <polygon id="155838119" class="tile" points="158.128850269,1665.44133817 158.234529856,1589.64538325 153.181996912,1589.56480434 153.29718418,1665.20756281 158.128850269,1665.44133817 " moovel_rot="23.8" moovel_centroid="155.71149405,1627.18278986" moovel_centroidlatlon="4.962345833082254,52.392921591198025"/>
  <polygon id="24413366" class="tile" points="159.273134359,1592.34662302 159.234529856,1686.80766731 220.891940382,1685.69284681 219.716471015,1589.56480434 159.273134359,1592.34662302 " moovel_rot="-62.2" moovel_centroid="189.871000943,1638.75667883" moovel_centroidlatlon="4.95781430613096,52.29565804472853"/>
  <polygon id="242707302" class="tile" points="231.43578977,1620.30456862 231.424172351,1589.56480434 222.283165141,1589.59924954 221.891940382,1619.82929539 231.43578977,1620.30456862 " moovel_rot="85.3" moovel_centroid="226.770852412,1604.93516909" moovel_centroidlatlon="4.9694276415108165,52.324921402291345"/>
  <polygon id="179918761" class="tile" points="232.453427892,1589.57034657 232.43578977,1638.44482319 239.614808936,1638.43927867 239.632459697,1589.56480434 232.453427892,1589.57034657 " moovel_rot="-79.7" moovel_centroid="236.034121548,1614.00480602" moovel_centroidlatlon="4.923259149999999,52.3841845"/>
  <polygon id="207745180" class="tile" points="240.632459697,1687.86091697 287.437165795,1642.12679491 240.657594954,1589.56480434 240.632459697,1687.86091697 " moovel_rot="-15.7" moovel_centroid="256.242406815,1639.85083874" moovel_centroidlatlon="4.946565199999999,52.31100456666666"/>
  <polygon id="180987811" class="tile" points="302.181176835,1589.57058615 302.108246757,1707.73612367 288.437165795,1707.730342 288.510089027,1589.56480434 302.181176835,1589.57058615 " moovel_rot="-88.8" moovel_centroid="295.309169605,1648.65045911" moovel_centroidlatlon="4.857142700000008,52.39051580000001"/>
  <polygon id="82489028" class="tile" points="303.261441604,1703.15798947 303.181176835,1589.60797686 325.560837531,1589.56480434 325.64300742,1703.10841336 303.261441604,1703.15798947 " moovel_rot="-72.1" moovel_centroid="314.411511308,1646.36060362" moovel_centroidlatlon="4.8911284121267045,52.402046398454786"/>
  <polygon id="216269425" class="tile" points="326.64300742,1589.56480434 326.69302398,1659.07354265 333.665866785,1659.08207635 333.625641167,1589.56506549 326.64300742,1589.56480434 " moovel_rot="18.4" moovel_centroid="330.156948811,1624.3132396" moovel_centroidlatlon="4.7903950375093345,52.36151004584784"/>
  <polygon id="152280128" class="tile" points="371.059262466,1639.38636131 334.665866785,1639.37215834 334.680657714,1616.02853336 334.695427659,1589.56480434 371.088669151,1589.58568471 371.059262466,1639.38636131 " moovel_rot="-88.6" moovel_centroid="352.877133997,1614.47726253" moovel_centroidlatlon="4.994737474766473,52.29361195158069"/>
  <polygon id="228955252" class="tile" points="372.088669151,1589.58998353 386.21013767,1589.56480434 386.216720312,1698.29112376 372.105869153,1698.32363393 372.088669151,1589.58998353 " moovel_rot="-24.2" moovel_centroid="379.155268778,1643.93557203" moovel_centroidlatlon="4.917733165549221,52.401645331954455"/>
  <polygon id="185687673" class="tile" points="387.216720312,1589.56480434 392.164182206,1589.56587424 392.18421322,1630.04353678 387.234187496,1630.03629936 387.216720312,1589.56480434 " moovel_rot="67.3" moovel_centroid="389.699889436,1609.8043742" moovel_centroidlatlon="4.930021199605714,52.394890544334565"/>
  <polygon id="148700979" class="tile" points="399.974568247,1589.56480434 393.544473454,1589.56480434 393.18421322,1692.03662201 400.149239632,1692.57763473 399.974568247,1589.56480434 " moovel_rot="-90" moovel_centroid="396.715326964,1641.62051252" moovel_centroidlatlon="4.79191562603114,52.38999605481741"/>
  <polygon id="280783030" class="tile" points="433.119589695,1597.14606941 433.122091867,1606.35836998 433.149251829,1665.70773764 416.940777618,1665.73430595 416.949955592,1651.56773154 413.462561262,1651.54904194 413.468185172,1651.61726923 413.03133395,1651.60854954 413.027255645,1651.40345524 406.171279466,1651.36794361 406.175440159,1651.61294018 405.967078462,1651.6139565 405.962753206,1651.28915524 402.184781991,1651.28553084 402.216948535,1642.06643975 402.085347306,1642.06498153 402.080134737,1642.19626601 401.646950803,1642.19312864 401.646292612,1641.87390985 401.187521851,1641.87159733 401.149239632,1589.58583459 417.3614485,1589.56480434 417.364993657,1592.1756237 418.430521049,1592.14697042 420.877911041,1592.15357395 420.881085407,1591.91974171 433.114297419,1591.90726705 433.119589695,1597.14606941 " moovel_rot="56.7" moovel_centroid="417.929170978,1624.97905686" moovel_centroidlatlon="4.93880562817842,52.39944988275285"/>
  <polygon id="185651263" class="tile" points="440.796967817,1618.26546634 434.149251829,1618.27706735 434.15019579,1589.58009601 440.803478704,1589.56480434 440.796967817,1618.26546634 " moovel_rot="-33.7" moovel_centroid="437.475044848,1603.91985663" moovel_centroidlatlon="4.923258092491366,52.38745561486487"/>
  <polygon id="23624785" class="tile" points="461.381089879,1589.57998121 485.17461352,1589.75210151 485.20372035,1604.07723781 485.050890755,1604.07136669 485.13422429,1639.46685734 475.109263521,1639.46273068 475.061341348,1646.68639767 458.345237265,1646.69258705 458.340424396,1660.76242463 447.88864114,1660.76863749 447.893334459,1661.78480041 441.803877674,1661.78481044 441.803478704,1603.74010384 458.464294594,1603.75184279 458.55013764,1589.56480434 461.381089879,1589.57998121 " moovel_rot="-87.8" moovel_centroid="462.912913934,1623.07690261" moovel_centroidlatlon="4.8874845370281195,52.42026921746324"/>
  <polygon id="296423599" class="tile" points="486.213836118,1623.83879166 486.20372035,1589.58056733 515.24995858,1589.56480434 515.27098255,1623.82295251 486.213836118,1623.83879166 " moovel_rot="-90.4" moovel_centroid="500.734619924,1606.70285089" moovel_centroidlatlon="4.8413579339539705,52.35029657510963"/>
  <polygon id="185676547" class="tile" points="523.833513837,1701.208652 516.27098255,1700.54612288 517.756712263,1589.56480434 523.712707193,1590.19062124 523.833513837,1701.208652 " moovel_rot="-39.9" moovel_centroid="520.379377434,1647.5750414" moovel_centroidlatlon="4.909467908193258,52.382339462292244"/>
  <polygon id="440682327" class="tile" points="537.114746218,1637.00128986 537.123966827,1589.56480434 524.833513837,1599.14539354 526.173075905,1631.33975181 531.134808768,1638.15368635 537.114746218,1637.00128986 " moovel_rot="17.1" moovel_centroid="531.658479367,1614.78238018" moovel_centroidlatlon="4.966936305144596,52.38326766049711"/>
  <polygon id="174996475" class="tile" points="538.15877172,1589.56480434 543.563484898,1589.58204399 543.52866245,1630.07821884 538.123966827,1630.06096668 538.15877172,1589.56480434 " moovel_rot="54.5" moovel_centroid="540.843721623,1609.82149751" moovel_centroidlatlon="4.901115350000001,52.40417460000001"/>
  <polygon id="162607703" class="tile" points="544.608071095,1591.94417727 544.563484898,1646.31677492 549.932687353,1644.66150143 549.814308818,1589.56480434 544.608071095,1591.94417727 " moovel_rot="63.7" moovel_centroid="547.23606078,1618.2595175" moovel_centroidlatlon="4.956300041168574,52.39803029387056"/>
  <polygon id="391614636" class="tile" points="582.383868512,1642.59740976 583.637550837,1589.92547949 550.932687353,1589.56480434 550.932687353,1644.02675202 582.383868512,1642.59740976 " moovel_rot="-90" moovel_centroid="566.883386986,1616.35270767" moovel_centroidlatlon="4.863495333625779,52.32814158507687"/>
  <polygon id="194818743" class="tile" points="0.0,1824.3575075 35.7752056366,1834.99782529 97.1846803257,1833.51178336 97.5664017772,1855.66253531 114.42601265,1855.8453218 114.315484405,1714.17322416 96.688418819,1718.31616566 97.6770617589,1802.45246529 0.449685256183,1805.99942326 0.0,1824.3575075 " moovel_rot="-68.2" moovel_centroid="76.93121671977522,1803.24594172" moovel_centroidlatlon="4.914254422404856,52.3331922658179"/>
  <polygon id="373921577" class="tile" points="157.6016906,1714.49903932 132.53532088,1714.24090187 125.692548191,1714.17322416 125.474317556,1730.1240626 119.07450459,1730.20061412 116.42601265,1789.98473719 132.387568685,1790.714633 157.707589253,1791.87350317 157.6016906,1714.49903932 " moovel_rot="57.3" moovel_centroid="138.447302789,1754.22223656" moovel_centroidlatlon="4.9347179452797505,52.39917974963723"/>
  <polygon id="183757065" class="tile" points="163.574520438,1761.80902798 158.707589253,1761.81521407 158.741318169,1714.17577363 163.602646966,1714.17322416 163.574520438,1761.80902798 " moovel_rot="-32.8" moovel_centroid="161.156484838,1737.99788039" moovel_centroidlatlon="4.909947787428792,52.39463891490556"/>
  <polygon id="282932473" class="tile" points="167.111004792,1714.71553543 200.460844204,1714.17322416 201.003806577,1758.83145337 200.959364351,1771.6380678 164.624258263,1772.78616163 164.602646966,1754.86833707 167.111004792,1714.71553543 " moovel_rot="28.6" moovel_centroid="183.093404109,1743.79163659" moovel_centroidlatlon="4.968241776825456,52.30082610679412"/>
  <polygon id="405170734" class="tile" points="205.014563432,1714.17322416 202.003806577,1785.96188328 246.424412133,1788.06972354 246.39578576,1735.77797948 229.273610403,1727.15214667 214.519514201,1719.37450415 205.014563432,1714.17322416 " moovel_rot="-9.1" moovel_centroid="223.784478259,1756.07408216" moovel_centroidlatlon="4.892997966572665,52.40009201829123"/>
  <polygon id="23625214" class="tile" points="248.490650463,1781.617847 247.424412133,1744.63413066 283.092656595,1714.17322416 314.305552257,1715.6208059 313.956917192,1760.50755917 314.248782824,1781.97247839 291.108689362,1781.74676208 248.490650463,1781.617847 " moovel_rot="-88.3" moovel_centroid="283.811781169,1751.29826645" moovel_centroidlatlon="4.893817130990483,52.4176287366803"/>
  <polygon id="150425437" class="tile" points="315.305552257,1714.17322416 352.79136977,1726.68961416 341.475889123,1766.68634218 315.357586478,1758.91979209 315.305552257,1714.17322416 " moovel_rot="55.1" moovel_centroid="331.334977148,1740.31766541" moovel_centroidlatlon="4.866166444171791,52.39398570428243"/>
  <polygon id="179918764" class="tile" points="353.79136977,1716.65738059 359.191341678,1714.17322416 364.441110326,1728.50198629 366.364982904,1742.06074111 367.712378202,1752.38050966 360.348817493,1808.03798581 353.86261616,1807.12077504 361.166647132,1751.0680657 360.291323232,1739.38501669 359.145492387,1731.78565345 353.79136977,1716.65738059 " moovel_rot="-70.9" moovel_centroid="361.071182109,1762.31597822" moovel_centroidlatlon="4.924613199593358,52.38437140817249"/>
  <polygon id="174997411" class="tile" points="368.712378202,1714.18859397 374.47095081,1714.17322416 374.48609453,1734.97159329 368.727523543,1734.98696911 368.712378202,1714.18859397 " moovel_rot="-15.1" moovel_centroid="371.599236632,1724.58009464" moovel_centroidlatlon="4.897804,52.40726514999999"/>
  <polygon id="174996476" class="tile" points="375.48609453,1827.5605422 375.517447131,1714.17322416 381.09426264,1714.37820326 381.505465195,1827.16019776 375.48609453,1827.5605422 " moovel_rot="52.2" moovel_centroid="378.399473735,1771.53900789" moovel_centroidlatlon="4.8999153928139005,52.40469029345996"/>
  <polygon id="162606923" class="tile" points="382.529496863,1788.12303845 382.505465195,1714.18304621 389.05317858,1714.17322416 389.077192748,1788.11318067 382.529496863,1788.12303845 " moovel_rot="-26.1" moovel_centroid="385.791333077,1751.14810591" moovel_centroidlatlon="4.9546217,52.39905445"/>
  <polygon id="193001194" class="tile" points="390.100024644,1714.17322416 390.077192748,1775.64911087 404.602325884,1775.67720508 404.625184796,1714.20125625 390.100024644,1714.17322416 " moovel_rot="23.5" moovel_centroid="397.351183246,1744.92518957" moovel_centroidlatlon="4.946553249999999,52.3219964"/>
  <polygon id="34515391" class="tile" points="423.44144148,1808.80395934 484.321786472,1810.98203251 489.218254463,1811.20885114 490.361404246,1718.0847225 482.818707485,1718.41652075 473.17999655,1717.78190274 440.572571668,1714.75707113 405.631306934,1714.17322416 405.626223365,1719.4711267 405.625184796,1756.8459736 426.354076366,1757.20858211 423.44144148,1808.80395934 " moovel_rot="-60.1" moovel_centroid="452.201264189,1759.87632558" moovel_centroidlatlon="4.945320080296123,52.29985482317804"/>
  <polygon id="156082976" class="tile" points="491.361404246,1714.19103113 491.438450285,1822.55969754 497.440553816,1822.54186272 497.363558015,1714.17322416 491.361404246,1714.19103113 " moovel_rot="-61.0" moovel_centroid="494.400991407,1768.36637833" moovel_centroidlatlon="4.957669349999999,52.30512595"/>
  <polygon id="171722906" class="tile" points="498.558696675,1858.43753964 503.503320359,1858.42226963 503.37529041,1714.41353994 498.440553816,1714.17322416 498.558696675,1858.43753964 " moovel_rot="49.2" moovel_centroid="500.968755713,1786.38619945" moovel_centroidlatlon="4.982552172869867,52.36228944721293"/>
  <polygon id="437363893" class="tile" points="508.855038734,1714.17322416 506.440958262,1717.15115194 506.161163745,1719.30545038 506.230632396,1727.84584015 505.661862185,1731.60282405 504.760783285,1736.72569352 504.503320359,1740.52310199 504.996677153,1841.16784379 505.103706578,1845.16661998 505.846938426,1849.91950481 507.784957138,1846.40649658 508.762060342,1843.91351047 508.874446913,1841.80357352 508.247645361,1718.84989408 508.42330909,1716.25275 508.855038734,1714.17322416 " moovel_rot="7.4" moovel_centroid="506.722978019,1785.24587544" moovel_centroidlatlon="4.838050795733345,52.38767074393838"/>
  <polygon id="296423591" class="tile" points="509.874446913,1714.17322416 541.109497165,1714.64207089 539.185549014,1801.51982005 528.891296143,1801.90739165 529.116938277,1776.73371764 509.907907615,1776.55114698 509.874446913,1714.17322416 " moovel_rot="1.0" moovel_centroid="526.243942591,1750.59701366" moovel_centroidlatlon="4.835313863011451,52.35093382947499"/>
  <polygon id="148700982" class="tile" points="547.093118302,1758.3196307 547.055333491,1714.17322416 542.109497165,1714.17548735 542.136365469,1758.32204631 547.093118302,1758.3196307 " moovel_rot="-90.8" moovel_centroid="544.59858317,1736.25570831" moovel_centroidlatlon="4.793553628577637,52.38998792599552"/>
  <polygon id="179918193" class="tile" points="553.768715241,1729.3862691 548.102308285,1729.40285998 548.093118302,1714.19350437 553.765093047,1714.17322416 553.768715241,1729.3862691 " moovel_rot="-33.6" moovel_centroid="550.932422216,1721.78771876" moovel_centroidlatlon="4.925922686730152,52.3854063589205"/>
  <polygon id="185698260" class="tile" points="554.786026836,1750.61288683 560.359996156,1750.62532186 560.342700831,1714.18564785 554.768715241,1714.17322416 554.786026836,1750.61288683 " moovel_rot="55.1" moovel_centroid="557.564359907,1732.39926131" moovel_centroidlatlon="4.941863049999999,52.4006138"/>
  <polygon id="179640837" class="tile" points="566.421352659,1714.42316587 566.291213519,1826.09187622 561.490112118,1826.14824858 561.359996156,1714.17322416 566.421352659,1714.42316587 " moovel_rot="11.0" moovel_centroid="563.889561758,1769.71730573" moovel_centroidlatlon="4.9190936537229915,52.38235239612398"/>
  <polygon id="179373942" class="tile" points="567.452042679,1749.86958276 567.421352659,1714.17322416 572.123172374,1714.17927179 572.153849249,1749.87564153 567.452042679,1749.86958276 " moovel_rot="49.7" moovel_centroid="569.787604356,1732.02442174" moovel_centroidlatlon="4.893713149999999,52.40523439999999"/>
  <polygon id="291731151" class="tile" points="573.153849249,1714.17322416 587.409419077,1714.55300761 588.384215805,1730.27327095 587.939835813,1870.92678615 587.677156941,1877.93878801 573.310343443,1877.42612016 573.153849249,1714.17322416 " moovel_rot="1.0" moovel_centroid="580.678772231,1795.64148202" moovel_centroidlatlon="4.841710432753441,52.3650895408115"/>
  <polygon id="184261491" class="tile" points="0.0327713409439,1936.96168014 20.1334848415,1936.89656617 20.0960275926,1877.93878801 0.0,1877.99914082 0.0327713409439,1936.96168014 " moovel_rot="-44.4" moovel_centroid="10.065436792965688,1907.45019044" moovel_centroidlatlon="4.951965761359944,52.355417043196134"/>
  <polygon id="284529465" class="tile" points="22.1416485609,1923.01873661 39.625144762,1922.97408419 39.617040268,1877.93878801 22.1334848415,1877.98338404 22.1416485609,1923.01873661 " moovel_rot="-46.4" moovel_centroid="30.8793277763,1900.47873551" moovel_centroidlatlon="4.921458999999999,52.349834099999995"/>
  <polygon id="442553345" class="tile" points="40.625144762,1877.93878801 41.2519723258,1877.95165503 46.4268594598,1878.36282 56.4066370656,1879.73889258 50.9904770337,1913.93556236 50.1770783326,1919.14020427 40.6761088463,1918.8643267 40.625144762,1877.93878801 " moovel_rot="30.3" moovel_centroid="47.0743675997,1897.16109998" moovel_centroidlatlon="4.958243567651741,52.31316996678078"/>
  <polygon id="174997410" class="tile" points="57.4066370656,1916.20063811 57.4216710919,1877.93878801 62.8330431764,1877.95047768 62.8179981424,1916.21233094 57.4066370656,1916.20063811 " moovel_rot="74.0" moovel_centroid="60.1198374091,1897.0755522" moovel_centroidlatlon="4.897266549999999,52.40722515000001"/>
  <polygon id="184393162" class="tile" points="63.8330431764,1877.93878801 69.1192892381,1878.42514187 67.8269023082,1893.24458876 63.8549073837,1893.10174958 63.8330431764,1877.93878801 " moovel_rot="37.8" moovel_centroid="66.167165744,1885.31954641" moovel_centroidlatlon="4.980877041764455,52.31972681896917"/>
  <polygon id="276828428" class="tile" points="112.370745477,1938.22923786 102.055942424,1942.36874052 85.6343126007,1940.41648588 85.5434961475,1940.91235511 78.7183133285,1940.11601869 78.7143116014,1940.08088974 78.2049638053,1940.01706147 78.2025355507,1940.05038304 70.1212724048,1939.08233332 70.1192892381,1878.96215304 71.156249758,1877.93878801 112.915448804,1882.85318999 112.911812241,1926.33249115 112.713531747,1926.32209605 112.326217077,1926.56460431 112.346660885,1934.95806437 112.391146281,1934.94789917 112.370745477,1938.22923786 " moovel_rot="15.7" moovel_centroid="91.2162809811,1910.40196109" moovel_centroidlatlon="4.85106575372978,52.3695901427779"/>
  <polygon id="328913345" class="tile" points="141.371549461,2005.30834976 160.259347384,2006.60486867 166.253467255,1919.34066885 166.259069681,1886.56715406 160.109964062,1881.96077849 151.789820261,1881.09445501 116.186625348,1877.93878801 113.915448804,1912.05363112 145.113237371,1915.49025072 144.51075988,1924.49683039 141.371549461,2005.30834976 " moovel_rot="-57.7" moovel_centroid="146.996293183,1929.40791726" moovel_centroidlatlon="4.965103132305483,52.300406226817245"/>
  <polygon id="187059560" class="tile" points="167.259069681,1947.16049739 167.285600417,1878.16176485 172.293653637,1877.93878801 172.25950235,1947.64555565 167.259069681,1947.16049739 " moovel_rot="-88.5" moovel_centroid="169.778718803,1912.71831986" moovel_centroidlatlon="4.854329976335876,52.39462818797182"/>
  <polygon id="279859640" class="tile" points="197.225741579,1877.93878801 197.226198537,1904.8784962 197.510352474,1904.87671469 197.50668144,1905.05333855 197.53493521,1939.42674765 197.563608139,1973.66325614 197.589091072,2007.91667546 197.612588026,2042.92287534 173.406041999,2042.88301321 173.293653637,1891.97980433 174.388659873,1892.01036247 174.372328725,1877.99492624 197.225741579,1877.93878801 " moovel_rot="61.6" moovel_centroid="185.472016854,1960.85590883" moovel_centroidlatlon="4.916466125432459,52.339318618816534"/>
  <polygon id="256868924" class="tile" points="200.799057414,1930.64222845 209.353104884,1927.60445639 209.979664555,1913.05190162 203.140172906,1877.93878801 198.636433661,1878.75180406 205.303800889,1915.6837386 198.612588026,1916.93463257 200.799057414,1930.64222845 " moovel_rot="-11.6" moovel_centroid="204.461648214,1907.75517988" moovel_centroidlatlon="4.79415981789679,52.398750078711494"/>
  <polygon id="148698735" class="tile" points="210.979664555,2020.96839179 210.997117798,1877.93878801 224.599953207,1877.94322033 224.582532863,2020.96614503 210.979664555,2020.96839179 " moovel_rot="-89.7" moovel_centroid="217.789764167,1949.4541644" moovel_centroidlatlon="4.800188724547824,52.39040775048347"/>
  <polygon id="212688856" class="tile" points="226.367165435,1877.93878801 255.638427385,1878.02397832 255.645665092,1912.94582909 227.177616564,1913.65403547 225.621558026,1907.50920778 225.599953207,1882.59408247 226.367165435,1877.93878801 " moovel_rot="-3.4" moovel_centroid="240.658269986,1895.60301997" moovel_centroidlatlon="4.893666804077179,52.33866051812518"/>
  <polygon id="364590673" class="tile" points="306.755608061,1987.36899539 291.716393281,1924.41802906 292.463549371,1891.37297467 299.176606994,1889.49199486 360.120818509,1877.93878801 367.835230827,1879.26349865 367.323637052,1975.32021476 367.640655925,1984.25611401 367.880967105,2270.37220856 367.761089509,2280.1251618 360.635920624,2388.79328286 341.470525451,2389.39045702 324.224498384,2385.972807 307.527708468,2366.39472424 298.297629246,2341.76853827 286.027731167,2295.45049355 266.230575374,2200.69400781 259.720604734,2144.63875456 256.645665092,2033.47273902 259.607848632,2029.21972096 264.594411031,2025.56486085 305.458694394,2015.26396146 310.008639093,2005.93266575 310.570996932,2001.1024994 306.755608061,1987.36899539 " moovel_rot="30.2" moovel_centroid="322.128456462,2132.97137994" moovel_centroidlatlon="4.932927399699065,52.31437894028332"/>
  <polygon id="46879099" class="tile" points="417.451245812,1893.11054243 417.43955502,1898.53657869 417.528946696,1898.53297746 417.531090157,1900.00326476 417.473825641,1979.99837317 417.384434514,1980.00197471 417.37351492,1985.35957841 417.465900676,1985.37295353 417.4604934,1988.59886749 401.454355403,1988.58264808 401.458234306,1988.79905812 368.880967105,1988.77221968 368.954324816,1889.69559531 379.861424142,1889.70076746 379.858559565,1887.74038069 379.695803961,1887.74123774 379.694248771,1877.93878801 396.951533942,1877.95031129 396.943564236,1887.74743774 396.777550522,1887.7541254 396.780412521,1889.71451073 401.535100276,1889.71674294 401.529732071,1889.90503043 417.535992296,1889.92131815 417.537379029,1893.11277162 417.451245812,1893.11054243 " moovel_rot="-60.8" moovel_centroid="392.98712878,1937.00880194" moovel_centroidlatlon="4.955212488037373,52.30722623962557"/>
  <polygon id="174996487" class="tile" points="418.559105286,1877.9508618 424.38503391,1877.93878801 424.366129253,1941.60986768 418.537379029,1941.6114111 418.559105286,1877.9508618 " moovel_rot="-15.0" moovel_centroid="421.461991394,1909.78030403" moovel_centroidlatlon="4.898508341168392,52.406565702023734"/>
  <polygon id="388777184" class="tile" points="440.642685627,1879.65590956 440.369489976,1905.99534328 432.457416962,1905.98066329 430.985533529,1899.86064187 425.389226326,1900.02587857 425.38503391,1877.93878801 440.642685627,1879.65590956 " moovel_rot="71.6" moovel_centroid="433.308835897,1891.24130721" moovel_centroidlatlon="4.96650682910107,52.407481297179146"/>
  <polygon id="151235497" class="tile" points="454.624400576,1877.93878801 441.920065913,1878.15901635 443.062885333,2015.23210832 443.959358191,2088.41275828 441.642685627,2128.3716997 455.688392218,2127.45207291 455.012662471,1982.72183353 454.624400576,1877.93878801 " moovel_rot="77.3" moovel_centroid="448.970485047,2002.55962728" moovel_centroidlatlon="4.90719155821605,52.37770913109686"/>
  <polygon id="57853223" class="tile" points="489.273685657,1888.15860785 489.221980985,1958.39316271 456.688392218,1958.3645593 456.758910406,1877.93878801 489.289433218,1877.97332987 489.273685657,1888.15860785 " moovel_rot="-60.7" moovel_centroid="472.987676405,1918.16919697" moovel_centroidlatlon="4.978076637068828,52.32478185802681"/>
  <polygon id="277087195" class="tile" points="506.689179186,1880.35476703 506.686498958,1900.14554417 512.822226421,1900.14466596 512.830791511,1929.59473242 514.894746557,1929.59377219 514.902441995,1958.59983318 506.715101096,1958.60512073 506.723232873,1986.41019075 512.858932555,1986.4093204 512.862428373,2022.97578771 514.926373298,2022.97483034 514.932290336,2051.97445314 506.744989586,2051.97972933 506.751099492,2069.63699991 490.298820409,2069.77365429 490.289433218,2069.17934756 490.309893465,1985.52237744 490.345838766,1892.05972545 490.354653005,1880.34703781 492.169395845,1880.34718321 492.168402004,1877.93878801 500.018900496,1877.94552009 500.018074738,1880.34748875 506.689179186,1880.35476703 " moovel_rot="74.2" moovel_centroid="501.103062131,1975.48881895" moovel_centroidlatlon="4.930624155285637,52.3753449948225"/>
  <polygon id="277270889" class="tile" points="556.499731081,2047.45479577 523.404603835,2047.80079962 515.978544165,2047.45919783 516.129688496,1996.09059718 515.932978352,1996.09371004 515.932290336,1995.56425636 516.129559381,1995.56779924 516.133460613,1994.44142196 522.146418448,1988.37998082 523.240868833,1988.38191473 523.275366766,1958.8202137 523.425817782,1958.78747195 523.425000842,1957.73522031 529.511801002,1951.64076775 530.521559077,1951.67662417 530.558856879,1922.14820142 537.891125847,1914.85662762 537.922249921,1881.7360886 541.740767346,1877.95015489 556.403380505,1877.93878801 552.506303283,1881.83185872 552.518446818,1928.89033196 548.030252671,1933.30222751 552.494990426,1937.73313219 552.489892963,1944.18823787 546.067206358,1944.19805448 546.075595917,1959.0236708 545.365373113,1959.03639114 545.392821596,1966.40032789 546.103603211,1966.39426331 546.09137841,1981.23501602 552.558644027,1981.23486136 552.550752476,1987.65668829 548.07566515,1992.09429394 552.54263437,1996.55182194 552.607440581,2043.58576494 556.499731081,2047.45479577 " moovel_rot="85.2" moovel_centroid="537.142908295,1979.08930069" moovel_centroidlatlon="4.886458177474965,52.33990377214029"/>
  <polygon id="316977579" class="tile" points="72.1158567259,2500.79864507 58.2865409698,2501.79599838 13.5845981967,2504.40276449 0.011041713506,2505.14613786 0.0122007675469,2402.18589955 0.0,2390.53534318 15.0679576954,2389.39045702 19.4294009814,2390.00116683 22.7975035731,2392.1066071 26.0540257199,2395.33945251 74.3522573372,2480.31663763 72.1158567259,2500.79864507 " moovel_rot="45.2" moovel_centroid="29.04070013941676,2456.48812388" moovel_centroidlatlon="4.956500030468767,52.40093242283722"/>
  <polygon id="148819797" class="tile" points="76.3522573372,2483.12423718 122.249411324,2484.33733333 123.394712886,2428.33040879 90.5645991449,2389.39045702 76.4016264403,2389.48036485 76.3522573372,2483.12423718 " moovel_rot="1.8" moovel_centroid="97.6190761092,2442.14535332" moovel_centroidlatlon="4.828651176712938,52.37322844782673"/>
  <polygon id="139705717" class="tile" points="129.627794067,2389.40396551 129.636625809,2465.82993376 124.403575577,2465.81640797 124.394712886,2389.39045702 129.627794067,2389.40396551 " moovel_rot="60.8" moovel_centroid="127.015677179,2427.61015339" moovel_centroidlatlon="4.909870650000012,52.37238359999999"/>
  <polygon id="171877114" class="tile" points="130.636625809,2389.85346878 142.960663093,2468.29735033 142.525013143,2494.18856308 139.971692658,2517.54688744 130.735722899,2551.79724724 134.852802472,2553.19563496 137.457743698,2548.36337213 144.290613001,2517.71268723 147.396277938,2500.97605982 148.157132959,2487.48317365 148.177631438,2462.97912556 143.559161214,2432.6325503 136.695242579,2389.39045702 130.636625809,2389.85346878 " moovel_rot="-80.7" moovel_centroid="140.764889292,2467.42453083" moovel_centroidlatlon="4.845871181747569,52.375501547721264"/>
  <polygon id="244834978" class="tile" points="149.177631438,2416.29580079 149.195780442,2399.45833714 153.869416744,2389.39045702 167.153715891,2393.85704501 165.736711228,2402.71421746 167.348638025,2414.08117742 149.177631438,2416.29580079 " moovel_rot="-3.6" moovel_centroid="157.839956739,2403.7023531" moovel_centroidlatlon="4.827969874762584,52.36641430587173"/>
  <polygon id="147496486" class="tile" points="168.348638025,2447.61722363 168.356909937,2389.39045702 193.373861989,2433.33760227 168.348638025,2447.61722363 " moovel_rot="-90.7" moovel_centroid="176.69313665,2423.44842764" moovel_centroidlatlon="4.934815999999999,52.33544776666667"/>
  <polygon id="149559145" class="tile" points="194.456779528,2487.22324109 194.373861989,2389.39045702 251.377515341,2390.03140958 250.944956871,2404.17917523 235.584763621,2404.08474692 235.461691476,2400.50201852 219.37477162,2400.75563524 219.294817844,2477.26910008 205.350318643,2477.37974784 198.919163385,2486.78007772 194.456779528,2487.22324109 " moovel_rot="-89.0" moovel_centroid="211.032603014,2429.16018572" moovel_centroidlatlon="4.820997514744728,52.38836046442918"/>
  <polygon id="185678155" class="tile" points="252.377515341,2389.39045702 258.845939984,2389.48482463 257.972575557,2470.61492877 252.456163507,2469.70177304 252.377515341,2389.39045702 " moovel_rot="-40.7" moovel_centroid="255.423842969,2428.73475614" moovel_centroidlatlon="4.9115235527185845,52.38177682033533"/>
  <polygon id="174996474" class="tile" points="259.845939984,2424.71149499 259.868022184,2389.39045702 266.311193355,2389.40097656 266.28910052,2424.72201713 259.845939984,2424.71149499 " moovel_rot="76.3" moovel_centroid="263.078564053,2407.05623157" moovel_centroidlatlon="4.900369850000005,52.40359065"/>
  <polygon id="57853147" class="tile" points="316.878021346,2419.77832499 312.293918976,2425.3200008 289.964928708,2452.29782745 333.776939429,2488.30459433 330.396201946,2492.40072354 330.148575047,2492.20426535 326.984105661,2495.78476848 322.923897023,2500.68037803 296.35952909,2478.51759643 267.311193355,2454.46304799 313.38854047,2398.76817257 321.102941349,2389.39045702 333.798690443,2399.89829038 326.074128731,2409.26822693 325.778036554,2409.02038168 316.878021346,2419.77832499 " moovel_rot="-21.1" moovel_centroid="302.989913646,2446.91753525" moovel_centroidlatlon="4.944051832513183,52.31096053164996"/>
  <polygon id="193000875" class="tile" points="334.823193983,2389.44111604 334.798690443,2412.27899004 341.529877074,2411.77260551 341.222579409,2389.39045702 334.823193983,2389.44111604 " moovel_rot="17.4" moovel_centroid="338.083501682,2400.81726128" moovel_centroidlatlon="4.946962812852121,52.32189905279481"/>
  <polygon id="179641723" class="tile" points="342.529877074,2389.39045702 349.698361509,2389.39665399 349.712264718,2464.56556328 342.550336389,2464.56064271 342.529877074,2389.39045702 " moovel_rot="11.2" moovel_centroid="346.122698514,2426.97259787" moovel_centroidlatlon="4.919204958173346,52.38433195145337"/>
  <polygon id="179640939" class="tile" points="350.712264718,2519.96657552 356.957146327,2519.70217231 356.14691068,2389.39045702 350.842113679,2389.4675225 350.712264718,2519.96657552 " moovel_rot="10.8" moovel_centroid="353.668637171,2456.40153732" moovel_centroidlatlon="4.918733449530983,52.38353430466307"/>
  <polygon id="23847744" class="tile" points="357.957146327,2446.81624512 358.013678978,2389.39045702 385.681525376,2390.04306744 389.81678901,2441.66085917 387.106241143,2445.85137704 379.797683471,2446.90836082 362.519335752,2447.24228803 357.957146327,2446.81624512 " moovel_rot="-93.3" moovel_centroid="372.842302605,2418.89648211" moovel_centroidlatlon="4.855924790689955,52.385575940361065"/>
  <polygon id="215837477" class="tile" points="390.81678901,2481.45290966 391.865205669,2389.39045702 397.280236576,2389.963036 397.287561317,2481.59163848 390.81678901,2481.45290966 " moovel_rot="-60.7" moovel_centroid="394.302083417,2436.95540031" moovel_centroidlatlon="4.968870720080744,52.3160310193153"/>
  <polygon id="171028648" class="tile" points="398.293894652,2389.39045702 417.618502624,2389.4418802 417.606361637,2409.70867758 398.287561317,2409.66055344 398.293894652,2389.39045702 " moovel_rot="29.9" moovel_centroid="407.951319398,2399.54988357" moovel_centroidlatlon="4.958014267801799,52.30544475282989"/>
  <polygon id="415775030" class="tile" points="423.192410686,2389.39045702 423.661197736,2393.80544175 423.253531221,2399.40666763 418.625430952,2398.9924549 418.618502624,2389.86140225 423.192410686,2389.39045702 " moovel_rot="-22.4" moovel_centroid="421.073289989,2394.41082989" moovel_centroidlatlon="4.973102223627316,52.30708041379874"/>
  <polygon id="183921718" class="tile" points="424.687331476,2431.05271838 424.661197736,2389.39112395 429.660756848,2389.39045702 429.69798335,2431.04567952 424.687331476,2431.05271838 " moovel_rot="-88.4" moovel_centroid="427.176759495,2410.22769205" moovel_centroidlatlon="4.93681130976399,52.36906612356016"/>
  <polygon id="115023661" class="tile" points="450.032529856,2389.41597863 430.69798335,2389.39045702 430.706096016,2417.93116895 450.038806321,2417.95026868 450.032529856,2389.41597863 " moovel_rot="74.3" moovel_centroid="440.36849139,2403.67174224" moovel_centroidlatlon="4.9007424203220324,52.37312799734994"/>
  <polygon id="179640574" class="tile" points="454.938348573,2389.39045702 451.481150809,2412.56097281 451.038806321,2427.13228983 451.585283047,2445.183113 452.691355423,2461.22602036 453.296940139,2467.90740543 456.532236522,2484.73184484 461.560497168,2484.16442595 458.65918496,2452.92148938 457.080081911,2434.72804174 459.10758087,2413.62148943 461.495896622,2390.05678669 454.938348573,2389.39045702 " moovel_rot="-51.3" moovel_centroid="455.930118083,2435.40161383" moovel_centroidlatlon="4.918264863536303,52.38518156269088"/>
  <polygon id="185687678" class="tile" points="462.560497168,2389.40168249 467.161623721,2389.39045702 467.195922335,2436.83395509 462.59480107,2436.84519456 462.560497168,2389.40168249 " moovel_rot="-20.7" moovel_centroid="464.878210957,2413.11781776" moovel_centroidlatlon="4.93034755,52.394419799999994"/>
  <polygon id="190720122" class="tile" points="490.22754091,2429.98813412 502.8854636,2415.94476472 477.474254552,2390.62156849 468.224018758,2389.39045702 468.195922335,2439.74324223 478.450560759,2439.79026819 478.032416556,2416.96430094 490.22754091,2429.98813412 " moovel_rot="44.5" moovel_centroid="480.39796739,2413.79007167" moovel_centroidlatlon="4.839104550840159,52.34414156339479"/>
  <polygon id="52523758" class="tile" points="504.461791019,2391.90936826 503.8854636,2459.9010667 507.39387518,2465.45539482 512.194525254,2467.0406723 515.748519218,2468.29500106 521.197615413,2468.90502752 526.26124496,2466.16820497 528.957234692,2461.82191525 528.852154116,2396.43113848 515.41720242,2389.39045702 504.461791019,2391.90936826 " moovel_rot="-92.3" moovel_centroid="516.463453793,2429.37953555" moovel_centroidlatlon="4.838683040384614,52.34534982942533"/>
  <polygon id="158053068" class="tile" points="61.0212755213,2571.22120244 47.7931988155,2577.06893678 43.7482459389,2572.2739443 37.7450339187,2569.4516304 32.0441177644,2568.24947438 25.4317313064,2569.01143747 18.1737552524,2572.69797345 14.3001342706,2578.73838452 13.2613918852,2587.01810392 43.0106155816,2727.09949556 46.0881288154,2737.52879844 46.4614800978,2739.39746847 47.548496357,2740.02000855 49.15156416,2738.66748636 49.3093130507,2735.87146418 51.1046401598,2594.65185321 49.5406665305,2581.57954181 62.2773798745,2577.31306909 63.5005959414,2576.97451984 63.2804924972,2715.79426742 62.9951654065,2745.77221517 61.8550698979,2748.83691549 59.9860710511,2753.54695837 56.6750786494,2756.80770873 52.36337681,2759.29522604 45.9336649379,2759.73847421 41.8789749943,2757.83196806 37.2900516791,2755.41168524 35.1072917266,2751.68318071 33.4591366081,2745.5746028 27.2588162066,2715.39211054 14.8354985252,2664.09656996 0.0,2589.32924066 0.45828059949,2578.44647989 2.31833483074,2572.69991966 5.88002237789,2566.48086262 10.7230594296,2561.61909638 16.7180758059,2557.61719629 22.8025387337,2554.90573577 29.2139908377,2553.42063542 33.8744363962,2553.19563496 42.5863342619,2554.88298342 54.2559600798,2562.18969616 57.794675616,2566.07130875 61.0212755213,2571.22120244 " moovel_rot="-60.2" moovel_centroid="38.166715707406574,2653.31962864" moovel_centroidlatlon="4.946684210144549,52.29257409897333"/>
  <polygon id="254310731" class="tile" points="65.5107389372,2553.19563496 70.8428521132,2553.20124816 70.8243017038,2620.45648993 65.5005959414,2620.46053386 65.5107389372,2553.19563496 " moovel_rot="-9.6" moovel_centroid="68.1695603212,2586.81962988" moovel_centroidlatlon="4.83935279617193,52.36872730501629"/>
  <polygon id="245830809" class="tile" points="80.8267693622,2553.47499871 71.8428521132,2553.19563496 72.0744447795,2696.91344984 80.5659372609,2696.76859657 80.8267693622,2553.47499871 " moovel_rot="74.4" moovel_centroid="76.3254363179,2624.41414069" moovel_centroidlatlon="4.933307348202746,52.37501486747446"/>
  <polygon id="73702535" class="tile" points="88.8417942222,2558.59954602 86.7165803846,2564.07124877 86.6950985044,2596.89048997 81.8919489501,2597.65587895 81.8267693622,2686.172905 129.500173676,2685.70155557 129.921694817,2654.54201866 129.426346917,2553.19563496 93.7388823118,2555.00708267 88.8417942222,2558.59954602 " moovel_rot="-50.6" moovel_centroid="106.609354531,2621.92442782" moovel_centroidlatlon="4.989497121264582,52.31226908205523"/>
  <polygon id="179918189" class="tile" points="130.921694817,2553.19563496 138.123447508,2553.20614526 138.130789603,2570.37789837 130.929046799,2570.3673815 130.921694817,2553.19563496 " moovel_rot="56.4" moovel_centroid="134.526244911,2561.78676306" moovel_centroidlatlon="4.9255944,52.38453185"/>
  <polygon id="166285486" class="tile" points="139.130789603,2635.85449534 185.750668221,2635.86846838 185.777385864,2553.209494 139.168393033,2553.19563496 139.130789603,2635.85449534 " moovel_rot="-89.4" moovel_centroid="162.456813759,2594.53363178" moovel_centroidlatlon="4.985011275900193,52.2992730748032"/>
  <polygon id="185696484" class="tile" points="186.777385864,2553.19563496 186.784206422,2620.95184584 193.15024225,2620.96211351 193.147084059,2553.21148833 186.777385864,2553.19563496 " moovel_rot="57.1" moovel_centroid="189.96468572,2587.07702367" moovel_centroidlatlon="4.942165534207898,52.399007065661216"/>
  <polygon id="240341201" class="tile" points="200.496829704,2592.7447919 223.909009889,2593.15484874 228.4401967,2573.09481274 222.16093231,2565.48879226 218.249737672,2560.89879208 215.197796238,2557.29146424 211.765345219,2553.19563496 208.353836333,2556.24820451 194.15024225,2568.94992084 194.173169211,2591.21901585 200.496829704,2592.7447919 " moovel_rot="45.0" moovel_centroid="210.370012794,2576.55398722" moovel_centroidlatlon="4.954740816956747,52.35702214673619"/>
  <polygon id="350669098" class="tile" points="251.66129036,2553.19563496 285.75838273,2561.07967473 289.880729491,2565.08537987 293.470238259,2570.52997266 293.011708947,2577.92559012 291.401924914,2585.02085203 278.301938737,2584.59008766 254.118161645,2580.28855971 249.230663716,2601.07860436 248.066849073,2607.37882939 261.987281939,2610.15384695 261.161339221,2614.40196182 265.3531855,2616.12471182 262.814497955,2622.65086847 267.329391197,2633.60558088 265.246957459,2644.54845922 271.710385073,2652.69493474 268.521473521,2664.09456331 286.97345702,2664.88903509 293.513108757,2677.3409583 229.4401967,2664.19708447 242.42055704,2598.28234612 251.66129036,2553.19563496 " moovel_rot="40.7" moovel_centroid="258.549648474,2617.77120385" moovel_centroidlatlon="4.9494514516496295,52.30674902469476"/>
  <polygon id="435644413" class="tile" points="294.513108757,2592.15313988 327.215984362,2591.77420782 330.1983147,2583.84650044 330.297402629,2567.88765499 328.819093957,2553.19563496 294.534725688,2554.69450782 294.513108757,2592.15313988 " moovel_rot="-91.6" moovel_centroid="312.191500692,2572.89539064" moovel_centroidlatlon="4.978929622820969,52.29316753524346"/>
  <polygon id="185687680" class="tile" points="331.297402629,2613.85077965 331.343196822,2553.19563496 337.548972919,2553.20976281 337.513305118,2613.86089817 331.297402629,2613.85077965 " moovel_rot="68.4" moovel_centroid="334.425679458,2583.53750756" moovel_centroidlatlon="4.93102636474957,52.39464864681244"/>
  <polygon id="363026150" class="tile" points="338.601025336,2606.32115115 354.277564272,2607.07392527 354.349040792,2553.19563496 338.548972919,2556.85816425 338.601025336,2606.32115115 " moovel_rot="-60.6" moovel_centroid="346.555940271,2580.81831531" moovel_centroidlatlon="4.958767219089476,52.3181184790834"/>
  <polygon id="146979911" class="tile" points="389.091295243,2621.63190104 355.349040792,2589.57124823 363.616536601,2580.68311327 389.040365977,2553.19563496 389.091295243,2621.63190104 " moovel_rot="-84.2" moovel_centroid="377.831621601,2588.14051662" moovel_centroidlatlon="4.931352627498983,52.3999182833241"/>
  <polygon id="157151715" class="tile" points="396.719374,2603.91319015 390.106535709,2603.9322575 390.091295243,2553.20922069 396.713589841,2553.19563496 396.719374,2603.91319015 " moovel_rot="-59.9" moovel_centroid="393.407637593,2578.55653689" moovel_centroidlatlon="4.966543277547809,52.32127565319207"/>
  <polygon id="215836509" class="tile" points="397.731616209,2619.41051397 397.719374,2553.19563496 403.14970162,2553.37285954 402.76621985,2619.57942183 397.731616209,2619.41051397 " moovel_rot="-60.6" moovel_centroid="400.342929151,2585.97233745" moovel_centroidlatlon="4.94569015121877,52.323058519468134"/>
  <polygon id="261686624" class="tile" points="404.90764412,2553.24889982 404.14970162,2600.4382048 411.182685934,2601.05884225 410.981665266,2607.68997868 415.537255813,2607.97181773 415.597218523,2600.85120446 422.551747807,2601.24140246 422.544254191,2555.06100471 417.904098173,2554.93172582 411.084677035,2553.19563496 404.90764412,2553.24889982 " moovel_rot="29.0" moovel_centroid="413.469671994,2578.56455974" moovel_centroidlatlon="4.97166637207431,52.323894256859646"/>
  <polygon id="148701627" class="tile" points="437.552517285,2682.69209805 438.99800104,2579.22883173 438.944129157,2554.20093527 423.551747807,2553.19563496 423.569606886,2589.84085562 432.511099693,2590.72228711 430.414220122,2682.53319782 437.552517285,2682.69209805 " moovel_rot="1.1" moovel_centroid="433.113262261,2606.29064284" moovel_centroidlatlon="4.787966388808176,52.39060942321596"/>
  <polygon id="185687688" class="tile" points="439.99800104,2553.21196389 446.585868909,2553.19563496 446.61312688,2597.43473756 440.025265413,2597.45108446 439.99800104,2553.21196389 " moovel_rot="-19.6" moovel_centroid="443.305565335,2575.32335164" moovel_centroidlatlon="4.9312256,52.39414845"/>
  <polygon id="296423587" class="tile" points="447.90059089,2553.87371138 447.61312688,2599.40995095 472.709875713,2599.54275197 472.668153625,2553.19563496 447.90059089,2553.87371138 " moovel_rot="-63.7" moovel_centroid="460.259635916,2576.5559924" moovel_centroidlatlon="4.836369640737669,52.35394909327219"/>
  <polygon id="216269427" class="tile" points="479.152803336,2554.17215646 478.736226693,2600.04547806 473.709875713,2599.33504009 474.171905612,2637.96009567 504.357091871,2637.70372005 504.303496492,2553.19563496 479.152803336,2554.17215646 " moovel_rot="-71.8" moovel_centroid="490.405398334,2597.66655132" moovel_centroidlatlon="4.789151502831912,52.36188410251492"/>
  <polygon id="425635343" class="tile" points="520.047836461,2553.19563496 505.357091871,2554.9045136 507.520123085,2654.42781625 506.922858136,2726.49488826 505.877578161,2739.48341955 516.712037398,2738.52859074 518.682533726,2719.77925164 519.91844271,2707.98389967 519.991547287,2693.28640351 519.839943808,2649.81034741 519.75655081,2624.07784941 520.047836461,2553.19563496 " moovel_rot="57.5" moovel_centroid="513.194837772,2643.1018722" moovel_centroidlatlon="4.914265238699789,52.39102257811041"/>
  <polygon id="180890395" class="tile" points="537.929932499,2637.41327128 536.189132735,2560.95207085 521.047836461,2560.75303591 521.121482943,2554.22491354 543.133024691,2553.19563496 543.095079473,2638.37614343 537.929932499,2637.41327128 " moovel_rot="-61.6" moovel_centroid="538.133421243,2587.32416493" moovel_centroidlatlon="4.95527782322825,52.30756409170573"/>
  <polygon id="26351573" class="tile" points="58.8495672058,2759.73847421 54.2287616992,2760.13710264 28.5139071995,2768.82214404 0.0,2787.4934834 0.378327667527,2862.76973422 10.8028920399,2898.91485854 54.3492587445,2845.62382844 54.4188494224,2823.99897761 58.8854661182,2822.58096893 58.8495672058,2759.73847421 " moovel_rot="50.9" moovel_centroid="28.153059962657863,2821.91932777" moovel_centroidlatlon="4.906929925028705,52.32751035015488"/>
  <polygon id="268395763" class="tile" points="60.9399846796,2822.00803041 77.0140553217,2837.17492935 77.160457572,2774.26839286 60.8854661182,2759.73847421 60.9399846796,2822.00803041 " moovel_rot="-72.5" moovel_centroid="69.0177164537,2798.24909041" moovel_centroidlatlon="4.808666120090228,52.41455897832924"/>
  <polygon id="174996483" class="tile" points="78.160457572,2821.13688245 78.2074624026,2759.73847421 83.7553428244,2759.74976837 83.7188391013,2821.14524465 78.160457572,2821.13688245 " moovel_rot="74.4" moovel_centroid="80.9604966576,2790.45226579" moovel_centroidlatlon="4.8981052896137935,52.40698785088571"/>
  <polygon id="272576117" class="tile" points="135.187687317,2924.85173845 84.7930865925,2924.73684752 84.7650058741,2805.80820678 84.7553428244,2759.73847421 135.150605926,2759.85285135 135.187687317,2924.85173845 " moovel_rot="52.2" moovel_centroid="109.971474837,2842.29469118" moovel_centroidlatlon="4.887829847369342,52.40301099920246"/>
  <polygon id="192250405" class="tile" points="143.553444813,2906.48288283 137.305369513,2906.50493871 136.20236763,2843.37140017 136.187687317,2760.41224541 143.736867393,2759.73847421 143.772778287,2867.53316364 143.553444813,2906.48288283 " moovel_rot="1.6" moovel_centroid="140.078047406,2831.38466018" moovel_centroidlatlon="4.847426092919475,52.390310841888926"/>
  <polygon id="185693679" class="tile" points="161.180892898,2759.73847421 144.772778287,2759.77890607 144.784179265,2779.86588639 161.192279349,2779.82542896 161.180892898,2759.73847421 " moovel_rot="-29.6" moovel_centroid="152.982530706,2769.80217243" moovel_centroidlatlon="4.94403245,52.40003455"/>
  <polygon id="236482088" class="tile" points="178.477896098,2790.26173189 162.192279349,2790.22889842 162.194394664,2759.73847421 192.573673912,2759.8034483 192.571530563,2790.29393698 178.477896098,2790.26173189 " moovel_rot="23.5" moovel_centroid="177.382962841,2775.01567907" moovel_centroidlatlon="4.958893046794665,52.3963903542302"/>
  <polygon id="27733716" class="tile" points="193.573673912,2854.13389791 196.078818192,2899.18269922 304.955255595,2898.36427902 304.967468409,2759.73847421 253.148878892,2760.25416992 252.114440474,2850.41462147 193.573673912,2854.13389791 " moovel_rot="-32.3" moovel_centroid="263.93526195,2841.87919823" moovel_centroidlatlon="4.94139407953644,52.39706162277667"/>
  <polygon id="179372993" class="tile" points="305.97491542,2813.93013586 305.967468409,2759.73847421 312.000731451,2759.74831667 311.999582216,2813.94676723 305.97491542,2813.93013586 " moovel_rot="51.7" moovel_centroid="308.985737111,2786.83448395" moovel_centroidlatlon="4.897867675146847,52.404835911885336"/>
  <polygon id="28683610" class="tile" points="313.007403501,2819.12094998 313.321850264,2771.54213478 313.000731451,2762.33904331 319.171577852,2759.73847421 340.839293645,2806.13390945 313.007403501,2819.12094998 " moovel_rot="-88.4" moovel_centroid="322.7395749,2792.41413921" moovel_centroidlatlon="4.830094464735272,52.341224926771936"/>
  <polygon id="254313231" class="tile" points="347.583268627,2992.68810313 350.49712709,2992.68233342 357.927767946,2992.2100035 358.060748246,2874.37307496 357.984780954,2759.73847421 348.41698457,2760.12595329 347.865066562,2777.61765496 342.363603492,2777.68279287 341.839293645,2874.6078185 343.059858158,2972.11052544 347.847254204,2972.2709328 347.583268627,2992.68810313 " moovel_rot="-88.8" moovel_centroid="350.45296314,2875.34707492" moovel_centroidlatlon="4.8385478348616315,52.36388542686715"/>
  <polygon id="311388471" class="tile" points="359.060748246,2822.13932179 390.060363396,2822.26956646 389.981336402,2765.36151062 359.212724228,2759.73847421 359.060748246,2822.13932179 " moovel_rot="-88.5" moovel_centroid="374.340880039,2792.39170071" moovel_centroidlatlon="4.9862818149780646,52.295885529734036"/>
  <polygon id="57852840" class="tile" points="414.107528821,2761.67026033 440.489244335,2761.73143372 441.443903847,2762.65777212 441.441617234,2821.44689274 440.477553024,2822.43002406 425.369986135,2822.43055436 425.37042956,2825.27994731 424.37755249,2826.26988657 418.313719582,2826.29824957 418.296341974,2822.32114112 414.865230722,2822.35639261 411.77925739,2822.35555678 405.833020527,2822.41927564 392.129669065,2822.41127997 391.060363396,2821.46655909 391.085541201,2762.85878217 391.962024541,2761.74225387 407.059017614,2761.8276977 407.076824578,2760.72713702 408.059898912,2759.75467369 414.104462476,2759.73847421 414.107528821,2761.67026033 " moovel_rot="-60.7" moovel_centroid="416.28969653,2792.21487436" moovel_centroidlatlon="4.947278681289744,52.31011336286812"/>
  <polygon id="174996485" class="tile" points="442.443903847,2810.31910053 448.049949746,2810.33441286 448.082586863,2759.75376873 442.476518415,2759.73847421 442.443903847,2810.31910053 " moovel_rot="51.7" moovel_centroid="445.263239894,2785.03642214" moovel_centroidlatlon="4.8997569,52.403949450000006"/>
  <polygon id="35393685" class="tile" points="449.082586863,2984.27285774 483.193380764,2986.96848411 483.177333976,2972.49779574 483.158587121,2960.87623982 466.366033815,2958.30201295 468.69441855,2851.26797139 471.141805156,2759.73847421 452.353682001,2760.40053342 449.082586863,2984.27285774 " moovel_rot="-37.5" moovel_centroid="461.124564107,2880.98755826" moovel_centroidlatlon="4.817001105303135,52.37007514554287"/>
  <polygon id="207746729" class="tile" points="484.270880752,2761.30641508 484.193380764,2867.46742208 497.632368677,2867.59789513 559.472747907,2819.81373693 533.21631013,2768.31755896 527.405962575,2764.10667336 521.392077404,2759.73847421 484.270880752,2761.30641508 " moovel_rot="1.3" moovel_centroid="513.052158261,2809.82510147" moovel_centroidlatlon="4.813558580457036,52.336090024107236"/>
  <polygon id="179918766" class="tile" points="560.472747907,2759.8218169 560.565495537,2867.11219291 566.556838533,2867.17084037 566.680431986,2759.73847421 560.472747907,2759.8218169 " moovel_rot="-79.1" moovel_centroid="563.569594239,2813.14352995" moovel_centroidlatlon="4.921465641390898,52.38396486817817"/>
  <polygon id="160526047" class="tile" points="567.680431986,2759.73847421 573.417825111,2759.75639433 573.444904845,2810.20961977 567.702091965,2810.20112489 567.680431986,2759.73847421 " moovel_rot="29.9" moovel_centroid="570.561225926,2784.9803766" moovel_centroidlatlon="4.974207378585752,52.31497019291802"/>
  <polygon id="179373939" class="tile" points="574.444904845,2782.5412555 578.727174476,2782.55430842 578.74398964,2759.75671156 574.457508942,2759.73847421 574.444904845,2782.5412555 " moovel_rot="51.0" moovel_centroid="576.593314739,2771.14581814" moovel_centroidlatlon="4.898592552537859,52.40296576018457"/>
</svg>