<svg xmlns="http://www.w3.org/2000/svg" version="1.1" width="592.5px" height="1200px">
  <polygon class="bin" points="-434.767359271,1207.499999 -437.4190097,1206.40164943 -438.517359271,1203.749999 -438.517359271,3.75 -437.4190097,1.09834957055 -434.767359271,0.0 -169.423210448,0.0 -166.770254353,1.09965587913 -165.673212267,3.75369388851 -165.840642351,173.727018437 -164.526684939,177.007328017 -164.538009131,179.824057603 -165.891632947,183.126223123 -165.816391235,212.98748785 -163.745367625,217.924333233 -163.698291501,220.707894894 -164.243319126,222.141152247 -163.463768045,396.064012336 -163.464056436,396.130270602 -165.883976312,579.625779034 -165.18857759,581.232855712 -165.422695314,584.664875034 -168.355916338,586.462034504 -182.941031421,587.531660797 -186.956486764,589.616499514 -188.209148024,593.964059044 -184.873449731,620.477295561 -184.857321687,620.630998698 -182.419190735,649.609025044 -179.963492912,677.565151045 -179.962776525,677.573411276 -177.351366707,708.075722655 -177.350211774,708.089512037 -174.97065771,737.144758158 -174.967485523,737.182231586 -172.385993331,766.716400908 -172.38010633,766.780311993 -169.570400814,795.799657956 -169.56719736,795.834431177 -167.064290916,824.46179874 -167.06256021,824.482238078 -164.770093808,852.465998561 -164.729203154,852.83943188 -161.913463719,873.355931615 -161.395944644,875.187194526 -157.937834165,883.047755318 -157.732640729,885.468629541 -159.05437705,887.507195078 -161.348244122,888.307763758 -185.729047331,888.451500739 -189.803687612,890.181699915 -191.437133428,894.296081689 -189.005357842,1031.41072305 -187.317029633,1035.38150206 -186.359500224,1035.78653459 -184.070419348,1039.23651892 -183.906290767,1203.74625769 -185.003316048,1206.40032635 -187.656288901,1207.499999 -434.767359271,1207.499999 "/>
  <polygon class="334086183" points="8.60126086138,1201.0 31.9181726344,1203.1220052 39.7523671292,1203.83497275 45.2117882406,1201.46802742 47.8217799099,1205.83692673 50.569179108,1211.11703853 69.1993509296,1252.87206522 71.5545005767,1272.38849001 71.5462868687,1288.21572406 57.291802337,1287.11296073 41.7904640429,1285.91013836 25.7524731778,1284.67189032 9.03145345971,1283.06967706 1.0,1282.58690809 8.60126086138,1201.0 "/>
  <polygon class="132075775" points="72.5545005767,1260.46257347 80.1813242769,1260.33192932 89.3195989599,1260.26230752 88.874784036,1233.31119333 79.5568085132,1233.4578561 79.0736561997,1201.11718896 72.5999159129,1201.0 72.5545005767,1260.46257347 "/>
  <polygon class="56897527" points="100.804005904,1201.05016439 90.8984657535,1201.0 90.3195989599,1233.18882342 100.83497295,1233.35407252 100.804005904,1201.05016439 "/>
  <polygon class="30951787" points="135.164453337,1201.0 135.458863899,1251.83053249 101.83497295,1252.5473451 101.835246834,1244.38435124 101.846293483,1236.38189298 101.845231838,1235.78368201 101.86191646,1227.79753194 101.852908824,1227.18928051 101.873699711,1219.3185118 101.866998255,1218.70399196 101.876760806,1210.73664579 101.886017179,1202.89721775 135.164453337,1201.0 "/>
  <polygon class="309059749" points="136.458863899,1296.4262748 148.411807908,1296.44219698 148.449692327,1210.50443915 140.462261607,1210.49304044 140.464833819,1201.00451508 136.499278528,1201.0 136.458863899,1296.4262748 "/>
  <polygon class="148738461" points="149.449692327,1311.86490339 149.458665871,1305.73157047 149.564091561,1201.99235451 178.914647446,1201.0 181.28311763,1308.74507466 149.449692327,1311.86490339 "/>
  <polygon class="382974327" points="182.28311763,1201.00247858 185.740535872,1201.03348921 198.212204387,1201.05267676 201.386837437,1201.0 201.41827578,1216.9575096 204.617915584,1216.95747227 204.597570439,1237.63528605 184.214340891,1245.17604663 182.646403094,1240.63892691 182.308330004,1239.67002048 182.430491691,1217.12511126 182.374042944,1211.7442578 182.28311763,1201.00247858 "/>
  <polygon class="23971003" points="217.071395303,1210.27808778 220.165314664,1201.0 251.824043115,1209.59201984 251.86629097,1244.09174414 244.818738167,1249.70813902 215.376934453,1250.54083355 207.595212832,1246.03523527 205.662024463,1239.45842168 205.617915584,1234.21266893 217.071395303,1210.27808778 "/>
  <polygon class="254871726" points="253.078946185,1201.11780602 288.779154437,1201.0 288.771773375,1228.64460763 288.803030872,1260.86696286 265.199880027,1261.09746204 259.263072496,1234.46932422 258.236146308,1228.01443624 258.163278499,1217.57706095 252.86629097,1217.5373728 253.078946185,1201.11780602 "/>
  <polygon class="176300944" points="289.869930228,1201.71473534 289.803030872,1247.86605005 304.163549685,1247.63180421 303.253197363,1201.0 289.869930228,1201.71473534 "/>
  <polygon class="24704564" points="314.711089555,1201.0 315.82254307,1201.5826201 317.194344378,1201.4956973 318.79398838,1203.08723856 318.358745492,1274.07919485 318.269374205,1349.68739878 318.93168871,1356.52130132 318.696324661,1369.71205277 314.41230873,1373.67938045 313.651532668,1375.56966637 314.083562546,1377.86308992 316.452200558,1381.10349796 312.148180356,1380.83542028 305.21837105,1369.88309859 305.163549685,1203.1380832 306.718180911,1201.62197031 309.03547667,1201.44173192 314.711089555,1201.0 "/>
  <polygon class="29595841" points="319.93168871,1255.35512797 319.948514423,1201.0 349.198747897,1201.01935013 349.187601486,1215.58461629 352.287635451,1215.59007753 352.281981733,1255.3799375 319.93168871,1255.35512797 "/>
  <polygon class="51787097" points="353.287635451,1287.2991493 353.302120492,1201.01467994 388.645832617,1201.02389357 392.276796555,1201.00408553 394.014727797,1201.0 393.999520193,1287.29110971 353.287635451,1287.2991493 "/>
  <polygon class="10271280" points="437.943082046,1275.10995481 432.559359792,1276.81010875 399.345495819,1255.85351747 395.014727797,1254.73797386 395.280710192,1201.63746415 437.880429401,1201.0 437.943082046,1275.10995481 "/>
  <polygon class="187241520" points="490.462330623,1265.07802815 438.943082046,1235.03958682 459.352562503,1201.64218468 490.443731374,1201.0 490.462330623,1265.07802815 "/>
  <polygon class="44823070" points="508.698561657,1201.0 508.648217959,1285.82929823 491.462330623,1285.8525726 491.502378762,1201.01546695 508.698561657,1201.0 "/>
  <polygon class="119398870" points="510.410580131,1229.14789561 509.698561657,1201.80724773 514.700042533,1201.0 519.374894628,1201.62145264 519.362378021,1229.15107946 510.410580131,1229.14789561 "/>
  <polygon class="37276050" points="520.374894628,1201.0 538.819570921,1201.42636408 538.578049448,1207.96397383 536.903061433,1236.59590803 520.615219823,1236.46836773 520.387048162,1209.33613462 520.374894628,1201.0 "/>
  <polygon class="382364610" points="546.509103618,1201.1362641 541.039993015,1201.0 539.819570921,1265.2911468 546.522127906,1265.52543774 546.509103618,1201.1362641 "/>
  <polygon class="28512502" points="547.522127906,1201.22029114 558.014939261,1201.0 558.002858625,1217.82550769 548.195365411,1218.04270858 547.522127906,1201.22029114 "/>
  <polygon class="206344260" points="564.357172523,1201.04878153 559.014939261,1201.0 559.03593991,1216.92230921 564.315590631,1217.05239122 564.357172523,1201.04878153 "/>
  <polygon class="30708280" points="0.0,1381.10349796 31.5162836848,1381.7820057 31.5589681503,1443.22697502 0.0426846323535,1442.54848094 0.0,1381.10349796 "/>
  <polygon class="72843211" points="58.4924997006,1381.10349796 58.4960355709,1385.85412738 58.5134442699,1410.35257812 58.5154908765,1412.75828309 54.3742980134,1412.76738151 33.5868799516,1412.82921681 33.5687239322,1385.16689474 33.5589681503,1381.16460542 58.4924997006,1381.10349796 "/>
  <polygon class="42069259" points="59.538408347,1412.45673793 59.5154908765,1437.58044614 78.5338579176,1437.63962815 93.8850196877,1437.68983125 93.9283325264,1381.21273426 59.5586683044,1381.10349796 59.538408347,1412.45673793 "/>
  <polygon class="14670968" points="104.114000985,1381.10349796 106.634654753,1381.35099642 140.252889084,1388.40796998 148.436037468,1390.14808928 153.987657838,1391.48970001 153.074657947,1395.87147386 159.25961005,1397.07267276 153.759964815,1418.80774067 148.365542296,1446.93605703 144.867973125,1472.3177814 138.502392806,1471.64294256 138.269791569,1481.48793222 143.382162954,1481.83849871 140.987279814,1566.17981297 135.748694639,1566.35194381 135.922746807,1571.63688793 131.344510661,1571.61578282 130.76075998,1566.70465831 125.947655657,1568.01906154 103.971136413,1483.83227621 110.187245029,1481.92717935 108.326517614,1472.32971679 102.323632386,1473.80163799 94.9374664302,1443.5657098 96.6586856743,1439.07481046 102.807455101,1431.14036512 95.9595388689,1404.2167283 98.4688531327,1403.36669045 95.9326868719,1395.08980725 96.4622533102,1388.38537668 94.9283325264,1383.74712274 99.9815807503,1382.29849121 104.114000985,1381.10349796 "/>
  <polygon class="229520910" points="189.556172649,1421.60550119 189.546256755,1405.14680315 189.534871109,1398.30940527 183.820813517,1398.3253414 183.81915227,1381.10349796 160.25961005,1381.18350057 160.289608594,1430.46126333 166.37640693,1430.43813095 183.404441128,1430.38682653 189.556172649,1421.60550119 "/>
  <polygon class="107004943" points="190.566243462,1381.10349796 190.556172649,1414.31873455 219.474210878,1414.34333961 219.49090851,1381.12893802 190.566243462,1381.10349796 "/>
  <polygon class="106103420" points="220.49090851,1397.58249972 231.745358215,1397.54203104 231.649075728,1381.16610048 220.502011938,1381.10349796 220.49090851,1397.58249972 "/>
  <polygon class="98886041" points="232.745358215,1400.62404748 243.317112363,1400.62938182 243.325983056,1381.10883435 232.754228812,1381.10349796 232.745358215,1400.62404748 "/>
  <polygon class="178538737" points="244.325983056,1449.57955484 272.403242141,1449.42368386 271.748671978,1381.10349796 244.425626936,1381.47846552 244.325983056,1449.57955484 "/>
  <polygon class="329809885" points="273.571986996,1391.05913979 273.403242141,1388.9433913 284.341311506,1381.10349796 293.079192019,1390.77339405 287.599575542,1394.72442454 292.280074375,1402.65459061 288.378417526,1404.93416463 283.760526373,1398.04290368 275.650189136,1402.50909571 273.406751461,1396.51867455 275.301546919,1393.33620044 273.571986996,1391.05913979 "/>
  <polygon class="382974339" points="294.135175192,1381.23701231 294.118494888,1382.60132196 294.117670703,1392.39370283 294.079192019,1398.52974969 294.103395436,1408.1549675 311.977282868,1407.49545338 319.798131865,1404.62962209 319.799969475,1398.60682271 319.792763065,1392.70573133 319.7885384,1388.09021908 315.569912182,1388.08948589 315.54195383,1386.23467998 313.346369447,1385.54428423 304.426228057,1385.54280266 304.417919219,1381.10349796 300.937221816,1381.17848063 294.135175192,1381.23701231 "/>
  <polygon class="430072602" points="320.806267181,1381.10349796 320.799969475,1396.38732111 326.083915329,1396.38280385 326.090041214,1381.10991827 320.806267181,1381.10349796 "/>
  <polygon class="28119132" points="337.20003351,1381.10349796 327.090041214,1384.71898749 327.097371006,1413.44438246 347.208791185,1407.77013668 345.10065529,1399.42005481 342.473895707,1390.02049114 339.923608076,1390.73949631 337.20003351,1381.10349796 "/>
  <polygon class="396599848" points="367.333130463,1381.10349796 370.914558028,1381.12986964 370.88410271,1409.79223584 370.941976515,1434.46333565 348.208791185,1433.62628544 349.020535554,1417.63724389 350.275348423,1417.66136349 350.494493743,1414.38251187 365.564270332,1415.20255644 366.11678595,1404.8682645 367.42807565,1404.93209248 367.333130463,1381.10349796 "/>
  <polygon class="28235304" points="374.340407242,1412.44961104 371.941976515,1412.4583046 371.961748573,1439.26214288 377.058907095,1439.26147147 377.066861772,1446.84934092 388.376814861,1446.84752156 388.388712756,1457.70922306 397.387258475,1457.70681911 409.345391905,1457.69554782 409.331100702,1435.12921973 412.885024951,1435.13176392 429.385837872,1435.12012253 429.376372078,1421.69631726 422.969707121,1421.70469265 422.961358202,1412.39775685 414.878110348,1412.39583877 414.85285935,1381.35439056 395.579651065,1381.36754905 374.414531717,1381.10349796 374.340407242,1412.44961104 "/>
  <polygon class="106374641" points="430.385837872,1381.2878842 468.319060619,1381.10349796 467.964596635,1386.59331484 473.266886269,1386.79433618 473.160501437,1443.70429908 462.177156028,1444.2762903 460.714972097,1468.07500739 430.499206681,1470.95478704 430.385837872,1381.2878842 "/>
  <polygon class="339538915" points="485.278831824,1422.53189696 501.224149882,1414.08940924 501.199704737,1385.5459777 495.614201421,1381.10349796 485.5342191,1388.26393884 488.929645803,1393.19723555 474.266886269,1401.37911227 485.278831824,1422.53189696 "/>
  <polygon class="142886904" points="502.224149882,1393.35106628 511.464529013,1391.17146726 511.061405054,1381.57384406 502.226518497,1381.10349796 502.224149882,1393.35106628 "/>
  <polygon class="370330910" points="512.468114977,1381.10349796 512.464529013,1398.02006414 520.760590195,1398.03151834 520.758013195,1389.39700576 522.383789067,1389.39786092 522.383312296,1381.11508259 512.468114977,1381.10349796 "/>
  <polygon class="98018288" points="528.467035658,1528.86576887 528.466379762,1381.10349796 523.383789067,1381.83316807 524.696253229,1529.66628431 528.467035658,1528.86576887 "/>
  <polygon class="326746320" points="547.538786531,1484.9101398 529.517857361,1483.46962304 533.043726101,1417.94064877 529.467035658,1391.45552509 585.642762686,1381.10349796 590.706447875,1410.68000541 583.692531424,1411.44353313 556.827455367,1416.38444767 564.01459171,1455.34356288 549.913576786,1454.38944662 547.538786531,1484.9101398 "/>
  <polygon class="121860172" points="12.9996293692,1653.69583121 17.6224658938,1651.61414409 36.3028785418,1580.1548026 22.5464768984,1576.90901571 0.217894764058,1571.63688793 0.0071717266459,1573.6145533 0.0,1601.78882668 0.903022447648,1616.91412552 4.79276963552,1636.6136289 5.00014470834,1642.71866218 5.35367726446,1648.72432666 12.9996293692,1653.69583121 "/>
  <polygon class="374917637" points="43.2300769237,1571.63688793 43.2403939714,1583.77287102 38.313195713,1583.7761503 38.3028785418,1571.64016844 43.2300769237,1571.63688793 "/>
  <polygon class="270437705" points="58.4599134068,1725.27506224 83.2951459353,1653.82179796 84.3165237102,1641.7585354 57.7828180188,1641.55178064 58.0503064939,1614.17456219 84.6225029129,1614.38269552 84.9353110019,1599.22006502 58.4271385958,1599.01414543 58.69456785,1571.63688793 44.2403939714,1572.25070339 44.29602112,1645.66762945 48.5987388752,1648.34473981 54.4315983179,1723.93095378 58.4599134068,1725.27506224 "/>
  <polygon class="357670054" points="85.9353110019,1572.77772653 98.6090209387,1571.63688793 98.5840908715,1593.03952927 87.6693014301,1600.93934832 85.9353110019,1572.77772653 "/>
  <polygon class="285859674" points="103.334695796,1571.85384077 106.66947652,1572.39271983 111.954785931,1573.62976942 112.216411709,1571.63688793 117.420578397,1572.38486529 113.96591267,1594.96769746 117.030718604,1595.38841988 117.461352955,1597.11584202 115.682058924,1598.10688121 108.822115931,1597.37441739 109.006738554,1595.71252987 107.126327364,1595.50998072 106.952732188,1597.16531489 103.111605584,1596.75487231 103.096625384,1596.22648404 99.6090209387,1595.80495233 103.334695796,1571.85384077 "/>
  <polygon class="83888861" points="156.134286397,1582.80079573 136.18529276,1579.46101122 135.479440146,1583.70223405 133.961293646,1582.47970863 134.530640924,1574.52600513 128.21695054,1573.42967081 119.297378569,1571.63688793 118.461352955,1612.92420555 118.51546767,1637.30688416 156.113615723,1637.28898105 156.134286397,1582.80079573 "/>
  <polygon class="388826374" points="157.134286397,1573.81101769 157.144053549,1598.90077527 196.434949031,1721.22095013 212.786657597,1717.68303938 210.838473652,1683.56791638 212.757996397,1630.76006742 212.479755861,1600.59352435 212.961991494,1571.63688793 157.134286397,1573.81101769 "/>
  <polygon class="319894487" points="213.961991494,1572.75449224 243.299970182,1571.63688793 243.269192639,1608.12027312 215.165748073,1608.53397985 213.961991494,1572.75449224 "/>
  <polygon class="185766645" points="248.797037696,1634.59829816 244.338825751,1634.59651909 244.299970182,1571.63688793 248.758199417,1571.63864454 248.797037696,1634.59829816 "/>
  <polygon class="48811575" points="249.797037696,1640.7728346 249.817983987,1597.76580621 261.372799202,1597.80469859 271.135848274,1597.83053948 271.141578078,1592.79249418 282.955319412,1592.82958329 282.959590873,1571.63688793 300.618062151,1571.68444346 300.600814707,1614.79325027 296.221611676,1614.78533447 296.21424396,1624.26072416 301.02329357,1624.27837379 301.015917322,1641.11405617 296.263852723,1641.10023795 296.267696256,1647.07304476 264.841639537,1646.98476163 264.840323349,1640.81737022 249.797037696,1640.7728346 "/>
  <polygon class="27426656" points="302.07390349,1571.97726008 302.02329357,1617.80991681 318.430051213,1617.93814803 318.456771417,1571.63688793 302.07390349,1571.97726008 "/>
  <polygon class="153260865" points="319.542366923,1654.46211226 319.456771417,1584.83782107 319.600044955,1580.07436085 322.361565734,1577.77147368 322.751401863,1572.32730949 365.90029959,1571.63688793 366.446929544,1577.12747483 371.203140367,1577.28705712 371.649667626,1597.81690908 354.395120536,1598.0597163 355.76955415,1588.91653895 324.14840859,1589.44650954 324.454315506,1632.67686431 322.246086824,1633.17404138 322.333812511,1654.10933374 319.542366923,1654.46211226 "/>
  <polygon class="30951610" points="400.048373027,1571.63688793 398.02661067,1581.90834191 380.77292942,1594.09410045 378.954890711,1593.08319573 372.649667626,1597.92443039 381.35198873,1607.17248059 379.443111348,1608.88859383 402.114476988,1634.32354908 407.082839729,1629.6960528 407.07211328,1581.09737706 400.048373027,1571.63688793 "/>
  <polygon class="304533016" points="416.392382423,1571.63688793 475.325992445,1634.9087264 471.194571139,1640.72908336 464.762881973,1649.79141189 440.600581475,1683.83837308 436.246005634,1689.97144032 440.508560549,1692.91747079 439.119254766,1696.0729101 441.775564408,1698.20582796 438.055554119,1704.25164121 408.082839729,1680.29630746 414.527530724,1673.40232029 431.349884859,1685.93538981 435.707056786,1680.18769352 432.936864009,1677.52089192 461.686133566,1640.55563023 463.407897308,1642.173657 465.709987288,1638.91897446 408.152531653,1579.08099321 409.899935851,1575.59615127 416.392382423,1571.63688793 "/>
  <polygon class="23318238" points="482.982206779,1571.64409647 482.977333005,1667.68321356 476.325992445,1667.67599964 476.330840251,1571.63688793 482.982206779,1571.64409647 "/>
  <polygon class="284514075" points="483.982206779,1634.67480547 487.932356353,1634.65237685 487.807567536,1571.63688793 484.001626212,1571.64611247 483.982206779,1634.67480547 "/>
  <polygon class="447532161" points="496.637108183,1571.67910618 491.564588983,1571.63688793 488.932356353,1602.56060557 496.678738475,1603.01389648 496.637108183,1571.67910618 "/>
  <polygon class="216859350" points="507.149429821,1571.63688793 497.678738475,1591.92194898 501.65102564,1593.32295294 499.029585548,1599.24917415 505.298088618,1601.91478575 502.29351565,1608.98393777 505.924046233,1610.35058176 497.7216631,1631.46302734 519.839597534,1640.30972012 522.049164383,1634.94244791 527.570224414,1637.26643733 530.426959156,1630.32368306 541.912499102,1601.44774037 536.769152093,1599.44103157 541.648716551,1588.08821027 540.489267324,1587.62492213 520.96322016,1579.79003936 521.861030459,1577.53024403 507.149429821,1571.63688793 "/>
  <polygon class="271412610" points="0.0315479239449,1730.92962549 8.75018913634,1725.27506224 24.4501173919,1725.91295648 55.0388924925,1775.03898967 87.0093813915,1755.05538374 93.9137345793,1765.50390559 42.409665503,1797.81552429 24.1940882022,1808.85250773 60.0046531918,1865.79673138 50.4199875494,1872.14954652 18.5429337507,1821.96821589 11.5325630045,1818.63082212 6.35452485513,1819.66246282 0.0,1775.36425832 19.9974442994,1762.70080392 0.0315479239449,1730.92962549 "/>
  <polygon class="242832771" points="98.9960831989,1779.63586626 96.6841006281,1778.26529744 95.9137345793,1726.62265742 99.010747757,1725.27506224 98.9960831989,1779.63586626 "/>
  <polygon class="28487111" points="100.010747757,1725.27506224 116.432435827,1725.29139143 116.477411141,1780.83435454 100.060906231,1780.80827725 100.010747757,1725.27506224 "/>
  <polygon class="126220269" points="125.189272461,1810.64308828 125.450614899,1725.28877723 117.477411141,1725.27506224 117.490168066,1810.7081077 125.189272461,1810.64308828 "/>
  <polygon class="231802741" points="126.450614899,1780.44590661 172.86453731,1780.4700521 172.892887654,1725.29920775 126.478968316,1725.27506224 126.463921393,1768.36305377 126.450614899,1780.44590661 "/>
  <polygon class="206198091" points="173.936535963,1725.27506224 173.892887654,1759.73441857 180.689107126,1759.41848125 187.534308166,1759.53884821 187.240493386,1725.3355548 180.558106262,1725.30491401 173.936535963,1725.27506224 "/>
  <polygon class="338078802" points="189.053017481,1725.27506224 188.746099063,1748.47314274 188.925108659,1748.62407763 188.863406931,1754.36251198 188.667211092,1754.66663787 188.534308166,1764.77618419 205.514582108,1764.99826324 205.500814757,1766.62906253 209.324860713,1766.67951018 209.326292225,1763.41221913 205.897049886,1763.36952014 206.386616813,1725.50700751 189.053017481,1725.27506224 "/>
  <polygon class="291543114" points="236.753798957,1725.38993253 211.392483,1725.27506224 210.326292225,1774.48659161 236.786126088,1775.02038485 236.753798957,1725.38993253 "/>
  <polygon class="315766207" points="263.433278297,1725.27813262 245.689172956,1725.27506224 245.689909714,1732.07452292 243.796695006,1732.07079867 243.798035296,1733.32330067 250.016469523,1733.3241786 250.028315262,1741.232111 239.033196275,1741.22940317 239.032309812,1737.23856642 237.786126088,1737.23781363 237.793554218,1744.61224908 237.806295382,1756.51101526 248.938695683,1756.51028987 258.032328609,1756.519064 258.024799647,1746.75139091 263.458919727,1746.75273121 263.433278297,1725.27813262 "/>
  <polygon class="390545074" points="264.458919727,1760.65818504 264.833831135,1725.27506224 274.915730395,1725.29831118 274.939503007,1760.76651191 264.458919727,1760.65818504 "/>
  <polygon class="302429286" points="275.955760451,1754.04870903 275.939503007,1725.27506224 290.370106744,1734.69029532 290.218886791,1754.29569872 275.955760451,1754.04870903 "/>
  <polygon class="12486540" points="291.370106744,1754.71219607 309.374037099,1754.36742138 308.738555117,1725.27506224 303.0352783,1725.50068129 298.762024946,1725.66603161 291.417199371,1725.95909242 291.370106744,1754.71219607 "/>
  <polygon class="375431530" points="336.898908953,1786.18281407 334.904993657,1725.70374185 368.829375394,1725.27506224 368.870478108,1801.69989152 332.777282528,1818.53558788 311.155106187,1819.30586572 310.374037099,1787.02922283 336.898908953,1786.18281407 "/>
  <polygon class="51005746" points="369.870478108,1725.2862893 369.888535351,1763.15367822 402.340788797,1763.13814399 402.322255538,1725.28165765 394.908287854,1725.27506224 379.845374527,1725.28441601 369.870478108,1725.2862893 "/>
  <polygon class="182863191" points="422.246511631,1725.27506224 444.865470214,1776.87330194 444.216958536,1796.70062745 421.917433152,1858.37631028 403.397488363,1850.78633493 424.166094192,1793.01538932 426.316358622,1782.29555576 423.462480348,1775.39104372 403.340788797,1733.04745491 422.246511631,1725.27506224 "/>
  <polygon class="391484507" points="452.271325246,1725.27506224 451.891389774,1729.4622439 446.361334099,1729.53432058 445.865470214,1761.99373513 448.658354197,1762.01181462 448.293591475,1768.51798659 448.290973045,1773.49586668 446.954973995,1773.50197133 446.604260281,1798.85785537 455.612907067,1799.00829768 455.619288416,1774.43638719 454.880423475,1773.92673136 455.127188451,1766.25242817 455.626281766,1725.33607047 452.271325246,1725.27506224 "/>
  <polygon class="142886790" points="466.938457713,1760.23038744 456.633631404,1729.63826214 460.290976819,1728.5822543 460.663926391,1729.75454246 466.722509536,1727.81541791 466.448977073,1726.92761634 471.599319085,1725.27506224 473.462447566,1731.08851377 474.013408894,1730.90526284 476.049272536,1737.19095915 475.264019223,1737.51352525 476.383108183,1740.94730853 476.022220452,1741.07927367 479.015597155,1750.11595655 480.798923333,1753.11454774 481.625641213,1756.09453042 481.898513079,1756.60201853 493.829848931,1753.75627071 498.59052715,1756.11754341 501.751414329,1757.0841127 501.067017489,1760.84539909 501.760897161,1761.107848 499.618606801,1767.31715941 492.330121097,1786.5303947 486.298550667,1801.03921075 484.545841903,1805.71137259 479.490098288,1819.68016913 477.787313691,1824.11748341 476.98646965,1826.18759999 476.151967487,1828.34289656 475.313865922,1830.52683645 473.588106215,1835.00494005 468.813121164,1848.58667072 466.626026455,1847.78626996 465.639587937,1842.87082639 463.88531588,1841.9951493 456.626281766,1813.24464807 458.917467103,1812.70945519 460.013145245,1813.28549043 462.239234743,1812.76094372 462.771350341,1811.79412225 465.06253867,1811.25892856 467.086258616,1810.78206732 468.267675478,1811.50791924 470.398732548,1811.00901426 471.142520755,1809.81904638 472.432411309,1809.51943342 473.615569177,1810.25173361 475.744888715,1809.74637942 476.490418014,1808.56285979 478.524702484,1808.08314803 474.047555353,1789.13895116 475.794991405,1788.72971901 477.375749321,1786.35923112 475.021969339,1784.81514998 474.95561131,1784.65318595 474.042264637,1784.8788717 471.042581292,1772.54398976 473.064567926,1772.06067818 472.148811256,1768.24688418 470.104205177,1768.64636456 468.01379832,1759.93332024 466.938457713,1760.23038744 "/>
  <polygon class="271274642" points="503.128821679,1725.3072473 523.440922071,1725.27506224 523.264355084,1863.46239757 507.219832448,1863.48384807 507.092904521,1798.84813509 507.379500971,1737.34158859 502.760897161,1737.33832106 502.951603362,1728.65517693 503.128821679,1725.3072473 "/>
  <polygon class="52868891" points="524.975698558,1725.32728865 546.043050642,1725.27506224 546.073934945,1774.4271713 536.250412421,1774.74114011 524.440922071,1749.90848802 524.975698558,1725.32728865 "/>
  <polygon class="97022763" points="547.093925273,1725.27506224 562.854492374,1725.31399855 562.831739406,1768.33938044 547.073934945,1768.31293627 547.093925273,1725.27506224 "/>
  <polygon class="312515451" points="578.232527749,1725.27506224 586.531003408,1737.47213064 582.966793824,1755.00606071 574.549513018,1762.08792062 563.854492374,1750.20368275 570.828045458,1744.30341012 563.857390261,1734.96521723 578.232527749,1725.27506224 "/>
  <polygon class="24909167" points="0.0,1928.24205931 0.0758055640385,1896.16961193 0.0198760486208,1887.98394172 44.6909894175,1872.14954652 47.5887440935,1916.6731902 41.4427603531,1925.29315443 0.0,1928.24205931 "/>
  <polygon class="123748225" points="49.5887440935,1872.17667278 67.9879431324,1872.14954652 67.9939829513,1898.75852369 49.5960191205,1898.77908598 49.5887440935,1872.17667278 "/>
  <polygon class="25037562" points="69.222517853,2046.92010926 68.9939829513,1872.14954652 87.8353005426,1872.46354071 86.3931734947,1992.96073355 85.8747086065,2014.84224134 85.8579085004,2030.06092534 86.4090773575,2053.06905321 74.9141394736,2050.44984274 75.1763335068,2047.58301047 69.222517853,2046.92010926 "/>
  <polygon class="23852005" points="89.4567054791,1948.09191456 88.8353005426,1873.85009951 138.029415944,1874.40449602 140.77343029,1872.20206923 147.696391508,1872.14954652 147.687613089,1943.94853306 147.630375051,1948.4860016 139.279201364,1948.44175378 89.4567054791,1948.09191456 "/>
  <polygon class="294443336" points="155.181278653,1873.58772206 155.226601109,1874.00371931 155.597326536,1873.9813997 156.696645038,1884.66935058 149.321513488,1885.46098716 149.383709132,1885.7329691 148.696391508,1885.80595047 148.88940292,1888.15103978 149.704230087,1897.84325009 168.883234851,1895.60702807 168.885971368,1872.14954652 155.181278653,1873.58772206 "/>
  <polygon class="79430876" points="182.629722989,1875.87644619 178.656893852,1881.99947455 182.570059456,1885.15257893 177.550573851,1892.37406902 169.892365263,1891.84729194 169.885971368,1872.14954652 176.749139897,1872.74234359 182.629722989,1875.87644619 "/>
  <polygon class="88644315" points="196.568270135,1872.69562843 183.779229499,1872.14954652 183.629722989,1878.00339503 186.74235106,1883.46894289 186.768198121,1900.74459058 196.530390867,1900.4977084 196.568270135,1872.69562843 "/>
  <polygon class="30983064" points="204.781698269,1872.31392424 205.256961325,1913.56826716 197.568270135,1913.79333073 197.572558326,1872.14954652 204.781698269,1872.31392424 "/>
  <polygon class="33447831" points="206.491303478,1872.14954652 214.033541181,1872.1823757 217.835939336,1873.2809195 217.579119344,1886.2901992 232.547013912,1886.01713874 232.579759045,1890.92290396 249.89174406,1890.25206798 257.02198466,1898.83804631 257.0098333,1963.54605138 245.870836093,1963.62762279 236.644550279,1963.62191631 236.05117808,1926.71001629 240.96963527,1926.77464002 240.82958507,1912.68344352 217.255084709,1912.90345167 217.377761102,1916.35737892 206.256961325,1916.92014876 206.491303478,1872.14954652 "/>
  <polygon class="154364414" points="260.405433836,1872.14954652 258.02198466,1894.36931694 276.100772791,1896.39426006 276.066140938,1872.99400775 260.405433836,1872.14954652 "/>
  <polygon class="363799588" points="281.51575591,1928.44338812 308.375556365,1896.51166743 280.257687226,1872.14954652 277.127073665,1876.09260794 277.100772791,1926.97293447 281.51575591,1928.44338812 "/>
  <polygon class="284552752" points="309.377614648,1872.14954652 317.419816521,1872.15595482 317.407924174,1890.16690718 309.375556365,1890.15225649 309.377614648,1872.14954652 "/>
  <polygon class="382974407" points="318.448379891,1872.14954652 318.419816521,1995.71700981 323.32430051,1991.09437353 323.421119262,1874.98315708 321.763317624,1872.9798873 320.816263158,1872.15386272 318.448379891,1872.14954652 "/>
  <polygon class="79418381" points="324.421119262,1879.08716325 353.071903385,1873.38232419 366.447466951,1872.14954652 366.793112469,1878.18141035 367.209403833,1885.53349343 341.475091116,1889.49190234 341.360359687,1900.97662987 361.478921345,1913.63379513 355.847883121,1925.75703673 324.431097831,1904.90805022 324.421119262,1879.08716325 "/>
  <polygon class="146979100" points="368.242875865,1930.91176005 368.209403833,1872.25024016 399.020297328,1872.14954652 399.062003406,1930.81802472 368.242875865,1930.91176005 "/>
  <polygon class="223253486" points="402.878448258,1995.47866244 409.560454975,1995.50090675 457.229134834,1994.45553169 457.333049146,1872.14954652 400.062003406,1875.1219071 402.04258223,1971.6245741 402.878448258,1995.47866244 "/>
  <polygon class="70766267" points="458.333049146,1877.07629304 470.454298775,1872.14954652 488.85079561,1873.74723554 488.846579024,1914.36928376 482.108218986,1915.01237943 469.304284476,1916.05211252 465.248758927,1916.61520057 458.333049146,1877.07629304 "/>
  <polygon class="281982083" points="489.85079561,1889.67404655 491.856867291,1910.01975075 494.580800555,1912.27842114 494.559105777,1943.66433914 511.681339969,1939.80138003 514.984966012,1935.88378173 515.01303838,1872.14954652 502.189392949,1872.52789759 502.183067513,1876.88071258 494.149250039,1876.57589037 494.484771466,1886.45153633 489.85079561,1889.67404655 "/>
  <polygon class="310847466" points="523.567602232,1914.83631558 522.230018869,1947.31305807 542.445658569,1948.01763672 543.758714938,1918.564042 545.340441813,1918.65422309 545.648193069,1910.55272364 544.114363696,1910.518503 545.647386282,1872.71416826 531.554064132,1872.14954652 531.367957173,1876.72037875 528.13603526,1880.09165384 516.393574161,1879.81392669 516.01303838,1887.35892759 521.059540092,1887.51155157 520.522510194,1902.81751011 538.744753488,1903.57658309 538.515418745,1910.18430906 535.294140565,1913.42915114 535.248583509,1915.34279754 523.567602232,1914.83631558 "/>
  <polygon class="218898382" points="561.513626981,1872.49686333 546.648193069,1872.14954652 546.648193069,1883.43734288 550.928304326,1883.79801803 550.785998898,1900.943446 560.12341531,1904.95762684 561.513626981,1872.49686333 "/>
  <polygon class="330512524" points="580.639864442,1873.73419517 570.129318372,1872.14954652 562.513626981,1917.44012814 580.668614175,1919.13195641 580.639864442,1873.73419517 "/>
  <polygon class="186703711" points="0.0,2053.14944731 32.48636475,2053.06905321 32.4907185559,2057.00452003 32.4943014388,2075.24354834 32.5057210306,2094.39854992 0.0253636892885,2094.47602254 0.0,2053.14944731 "/>
  <polygon class="177432267" points="72.9600672199,2053.06905321 85.1909244789,2064.18269083 85.2220968726,2117.06083586 65.8713228787,2116.958832 65.7529507129,2095.40566015 58.2501426541,2095.4689298 58.2874733665,2088.00442093 34.5057210306,2088.99719622 34.6430920258,2084.36743222 34.6653041509,2053.09057926 41.3151550118,2053.08534998 72.9600672199,2053.06905321 "/>
  <polygon class="108857057" points="88.6096923835,2119.97199133 111.549328582,2119.86791116 112.37187861,2119.88530879 124.662972667,2119.93901517 124.703145324,2060.81154883 122.313262597,2060.81607389 122.336274947,2053.35041683 88.6576669713,2053.06905321 88.6552402443,2060.92741062 86.2331813908,2060.92538937 86.2220968726,2068.27760113 88.6548747492,2068.28180319 88.5940488442,2105.01449866 88.5947450898,2112.14417915 88.6096923835,2119.97199133 "/>
  <polygon class="448827956" points="139.461817933,2053.06905321 125.719096113,2053.3803915 125.703145324,2073.07752737 139.762412293,2072.95808273 139.461817933,2053.06905321 "/>
  <polygon class="359130691" points="151.937516265,2087.10007063 140.774286732,2087.10877692 140.762412293,2053.07775863 151.925650057,2053.06905321 151.937516265,2087.10007063 "/>
  <polygon class="19794808" points="187.712195503,2087.86178894 187.722127437,2053.06905321 152.937516265,2056.6126375 153.800601203,2093.69631396 187.712195503,2087.86178894 "/>
  <polygon class="24593818" points="189.074504872,2054.39630271 239.720538972,2053.15012208 243.172295938,2053.06905321 243.324660848,2056.24872927 246.682226394,2056.4393819 247.426867982,2076.87683932 248.232702035,2142.8883783 239.929450348,2142.97677692 188.722127437,2143.7096552 188.790254782,2069.76818781 189.074504872,2054.39630271 "/>
  <polygon class="138265440" points="249.232702035,2053.06905321 260.538439728,2053.08926883 260.539190894,2069.43185327 249.239597737,2069.41425608 249.232702035,2053.06905321 "/>
  <polygon class="94700564" points="261.588058569,2053.06905321 273.602360436,2053.25843625 301.583812841,2053.72071883 301.719638973,2105.42094435 268.865173662,2105.11142561 261.539190894,2105.55260745 261.588058569,2053.06905321 "/>
  <polygon class="32630745" points="340.136804941,2155.29934082 313.03054625,2139.05423647 327.82358621,2114.46851175 306.83631536,2101.89482164 310.425896564,2095.92076553 302.719638973,2091.30508073 325.726190585,2053.06905321 334.503579834,2058.32818491 348.805763726,2066.90777691 357.279537095,2071.98997793 336.992407393,2105.69807736 346.996988905,2111.70114783 343.027895593,2118.29838575 357.262838637,2126.84113039 340.136804941,2155.29934082 "/>
  <polygon class="391137102" points="374.632532483,2060.50730175 371.527706342,2060.46905889 371.555601425,2058.23715109 371.574266053,2055.89143738 375.92102458,2055.94497611 375.961692425,2053.63275666 375.723563658,2053.62935245 375.708693546,2053.28750403 360.642485065,2053.07518583 358.279537095,2053.06905321 358.309691142,2080.38740966 361.903584981,2080.4320375 371.265661804,2080.5394736 371.457324809,2065.03036331 374.507195119,2065.064749 374.632532483,2060.50730175 "/>
  <polygon class="270663515" points="399.18626185,2056.20249739 426.058347669,2053.06905321 426.09883515,2141.43004768 383.396340509,2141.29639071 376.961692425,2134.06176793 379.009580687,2110.73923885 387.453006557,2109.73295436 388.043655808,2090.08476893 396.516225714,2090.41754484 395.197304018,2063.21288713 399.18626185,2056.20249739 "/>
  <polygon class="245181341" points="427.09883515,2075.89159738 427.145317386,2053.06905321 435.595442105,2053.07441546 435.603610367,2075.90350538 427.09883515,2075.89159738 "/>
  <polygon class="221991739" points="436.611025721,2068.85484181 436.609682362,2055.96430407 436.608713426,2053.08030399 453.140161735,2053.06905321 453.145517547,2061.33228354 453.145939408,2070.73521606 436.603610367,2070.74547662 436.611025721,2068.85484181 "/>
  <polygon class="14352199" points="465.563007772,2053.06905321 465.53539119,2091.54679927 454.243358869,2091.63035577 454.145939408,2053.14741835 465.563007772,2053.06905321 "/>
  <polygon class="282695877" points="489.16892497,2053.09297404 466.563007772,2094.19466177 466.955883268,2122.5531642 530.099375828,2122.04893471 530.104063839,2083.20960067 496.274772044,2083.46959692 496.021711073,2053.06905321 489.16892497,2053.09297404 "/>
  <polygon class="367643926" points="531.133209428,2101.39845933 558.607310032,2075.58937336 555.257356694,2072.0231678 548.70014208,2064.34426907 543.884088919,2059.26950611 538.007473202,2053.06905321 531.539617735,2058.79017036 531.104063839,2066.30525392 531.999390955,2082.57505335 531.133209428,2101.39845933 "/>
  <polygon class="53757173" points="586.469503511,2053.50226214 560.193207909,2053.06905321 560.090954375,2069.82534872 559.607310032,2090.08153752 582.914528457,2090.23229605 586.48995065,2090.3651246 586.469503511,2053.50226214 "/>
  <polygon class="135742626" points="0.0,2157.36655892 5.24757989757,2315.3715212 6.0741208015,2360.42818542 29.4758016737,2359.46280168 29.6750654032,2155.29934082 0.0,2157.36655892 "/>
  <polygon class="161452008" points="31.6750654032,2224.97987225 35.9186207594,2224.98344627 35.9482488928,2155.30291504 31.7046970017,2155.29934082 31.6750654032,2224.97987225 "/>
  <polygon class="338316785" points="36.9797186226,2175.20731123 38.7959077958,2175.20482044 38.7909303501,2177.14189677 38.8060967272,2183.89466186 40.311355303,2183.36721004 41.7267021747,2182.56668648 42.9646742284,2181.50053391 43.9709786894,2180.21598208 44.7023795558,2178.77352313 45.1695257049,2177.13966701 48.3105802819,2177.25252334 48.3097059919,2177.15233961 48.156543573,2177.15367624 48.1246435286,2172.24457815 50.6408826454,2172.22261926 50.7146297095,2156.85262156 42.7054301128,2156.80896659 42.7141378451,2155.29934082 38.7972585931,2155.30012579 36.9482488928,2155.302903 36.9797186226,2175.20731123 "/>
  <polygon class="380426670" points="71.6001131514,2155.29934082 56.0892380904,2155.32505784 56.0950646045,2160.33905936 51.7146297095,2160.34599738 51.7789461391,2204.77597695 66.799744175,2204.76293852 66.7550528228,2171.81180544 71.6190133529,2171.8032804 71.6478418471,2169.33231104 71.6294620451,2156.46588747 71.6001131514,2155.29934082 "/>
  <polygon class="172947018" points="83.802040853,2158.46685888 79.0162733268,2155.29934082 73.6736011309,2155.33718209 72.6478418471,2189.31605987 83.7958010005,2198.73178991 83.802040853,2158.46685888 "/>
  <polygon class="48269325" points="117.496683571,2155.29934082 117.526113176,2211.95850869 84.8314955072,2211.98604115 84.8128949583,2166.85312701 84.802040853,2155.32687167 117.496683571,2155.29934082 "/>
  <polygon class="269798710" points="118.526113176,2179.76139029 121.744393915,2179.75882882 139.833970928,2179.32946218 139.35873164,2164.13768268 139.087302381,2155.29934082 133.787297046,2155.68088096 118.538267342,2156.12682831 118.526113176,2179.76139029 "/>
  <polygon class="106196804" points="143.76115635,2155.29934082 142.824939954,2168.84656003 140.853561366,2204.701144 140.833970928,2206.33595212 156.906851779,2207.47651632 156.827416431,2155.33120811 143.76115635,2155.29934082 "/>
  <polygon class="51038800" points="157.949616915,2216.1079629 174.688623969,2216.06014233 174.673181003,2186.41277106 174.650640332,2155.29934082 157.906851779,2155.35182613 157.949616915,2216.1079629 "/>
  <polygon class="391137117" points="175.688623969,2155.29934082 175.713969803,2194.99394412 180.5852877,2195.13394755 180.649551977,2155.54724982 175.688623969,2155.29934082 "/>
  <polygon class="12481907" points="181.689759798,2155.29934082 199.667889994,2155.37903785 199.695499527,2190.89108249 181.649551977,2191.05208605 181.689759798,2155.29934082 "/>
  <polygon class="211217201" points="201.750332239,2155.29934082 206.435359527,2156.99529702 206.482253849,2223.30047451 200.695499527,2221.20569869 201.750332239,2155.29934082 "/>
  <polygon class="93562144" points="213.162933197,2275.33960012 207.482253849,2162.62545222 214.625709351,2155.54892318 229.327145926,2155.29934082 235.405304688,2281.04209091 233.359032861,2304.7078922 226.790291584,2328.23828349 207.554409586,2325.07298735 213.162933197,2275.33960012 "/>
  <polygon class="33285897" points="236.405304688,2155.29934082 236.405316712,2190.29339263 255.434437693,2190.60895193 256.664963437,2155.81172841 236.405304688,2155.29934082 "/>
  <polygon class="34075789" points="257.664963437,2194.16351004 300.4050386,2252.27669267 317.274117906,2240.3718865 317.313671117,2184.01849019 317.189556151,2155.29934082 257.664963437,2194.16351004 "/>
  <polygon class="275748782" points="335.342131213,2155.29934082 366.286906942,2157.35714008 365.036587558,2180.06306358 360.48171024,2179.90020023 360.844570723,2184.05453748 351.716027532,2183.76233139 365.288323489,2200.19514132 362.092064647,2203.43634715 366.264870224,2209.68806415 357.431724875,2216.49081062 365.920412313,2228.10976005 352.046160133,2239.06644893 318.313671117,2193.52286485 323.705907704,2189.83820971 340.188144557,2177.29544425 338.345104937,2174.86018758 340.900811949,2172.9128394 334.533523725,2164.5379712 335.342131213,2155.29934082 "/>
  <polygon class="42780006" points="371.793904694,2300.17855354 371.805012337,2275.24373502 367.762152578,2275.28303813 367.442421374,2230.95644165 371.447260204,2230.86951577 371.771491809,2198.9155081 367.286906942,2198.90759791 367.291096539,2179.23879118 372.128973928,2179.23509102 372.137547961,2155.29934082 389.071642995,2155.30851818 389.022602346,2300.18912148 371.793904694,2300.17855354 "/>
  <polygon class="106371122" points="405.913396012,2209.22547696 405.888004854,2155.29934082 394.439546815,2155.55354949 394.534942527,2171.25438577 390.083270355,2171.24408377 390.071642995,2209.25466452 405.913396012,2209.22547696 "/>
  <polygon class="110372110" points="427.137857221,2209.51941285 427.118008781,2155.29934082 416.448802601,2155.34334428 416.227788776,2164.90309424 410.594758443,2164.96952435 410.005887881,2192.07606596 407.237860079,2192.23986637 406.913396012,2209.02709359 427.137857221,2209.51941285 "/>
  <polygon class="53333137" points="428.163005374,2155.29934082 428.137857221,2188.51900915 452.684283681,2188.59723167 452.691758117,2183.22995388 457.230283162,2183.24067546 457.248032549,2155.38823154 428.163005374,2155.29934082 "/>
  <polygon class="445160412" points="458.280802963,2155.3804569 468.372156362,2155.29934082 468.707500227,2175.00151548 458.248032549,2175.24810009 458.280802963,2155.3804569 "/>
  <polygon class="131293468" points="476.24808682,2155.29934082 476.827842927,2158.41851898 475.669443751,2158.5056944 476.361882403,2163.60002946 469.709848093,2164.45723213 469.707500227,2156.40692597 476.24808682,2155.29934082 "/>
  <polygon class="27513108" points="477.969487086,2155.29934082 488.27890506,2155.49617257 488.562793688,2238.1546279 477.827842927,2238.25707421 477.969487086,2155.29934082 "/>
</svg>