<svg xmlns="http://www.w3.org/2000/svg" version="1.1" width="592.5px" height="1200px">
  <polygon class="bin" points="1.875,0.0 -0.77665042945,1.09834957055 -1.875,3.75 -1.875,1203.749999 -0.77665042945,1206.40164943 1.875,1207.499999 273.799461824,1207.499999 276.443822231,1206.40891947 277.549405292,1203.77058995 278.360142773,1056.12227533 278.361449267,1056.02078697 280.06298009,972.023917261 279.81705404,972.018935518 279.831424956,970.420467442 277.780741372,968.369049076 276.547328149,967.864249258 274.65668949,966.151767845 270.763243922,964.739837757 268.754082992,961.587450575 267.410376286,956.089214017 267.690880221,952.473462971 270.059367265,949.727082224 271.709641721,948.733295302 272.169121497,948.407187273 273.33085841,947.443618019 274.09336448,946.581800924 275.024997698,945.129273991 275.238653092,944.74921246 276.540567542,942.081107977 276.669137901,941.830755904 277.257446504,940.740701409 277.582498403,937.999891246 275.370919004,929.646495145 275.210640235,929.171852824 272.308710767,922.16216005 271.998927443,921.569682674 267.512865086,914.586656322 267.498600247,914.564621575 262.934658172,907.568544083 262.705133616,907.253744643 256.401154764,899.489472802 256.303945321,899.374538388 235.533055139,875.793012754 233.073259719,874.538424423 232.719898397,874.504893915 228.281776961,872.25827254 214.436878198,856.731432836 212.991452926,852.550843983 214.946299757,848.582827949 223.337872212,841.256494813 223.442095339,841.16199878 227.311074584,837.519564522 231.420465103,835.95972825 234.282767788,837.245371561 236.449402232,837.521272991 238.402272224,836.543149681 240.50138892,834.548687688 241.468049892,830.620879753 240.499374786,827.777406917 242.553011411,823.787719146 245.793267726,821.093868989 245.912687213,820.990252901 255.23833864,812.547619632 259.377525606,811.068238659 263.351265094,812.947289294 264.634453295,814.362227954 265.168263323,814.847542028 279.603232618,825.628848067 279.771195776,825.747269051 285.911804269,829.829432768 286.458044868,830.130297919 294.450376609,833.70143122 297.567594659,833.675107627 299.587849775,831.301016103 301.732664274,823.739819598 301.874999,822.716466643 301.874999,756.587640442 300.779651296,753.938995282 298.133494368,752.837650065 258.376241548,752.747582508 254.321672325,751.060309892 252.642696594,747.002297952 252.632667963,701.41657829 252.631850143,679.3015634 254.243462073,675.307202105 258.175931107,673.549959245 288.110675498,672.450780133 290.684940224,671.293337894 291.722910939,668.668623011 291.493221633,643.83491987 291.191622569,612.003656092 290.163136604,609.45911235 287.676979587,608.296567934 256.435329976,606.333320852 252.596982357,604.527575004 251.03490051,600.583778505 251.022469684,521.569840912 252.709681847,517.501960255 256.781256184,515.823681268 295.455311378,515.91465652 298.41161986,514.483032578 299.106499455,511.272666665 259.744206193,350.541869264 260.427405278,345.046203842 260.246636942,345.023731448 260.815208053,343.013250056 258.957537827,337.011507001 258.892314066,336.819351283 249.345324996,311.009457548 248.934263115,308.183981994 250.062567607,290.942409816 252.158734373,286.877576964 256.56266888,285.643825735 258.685060139,285.937772069 261.573630152,285.125999719 263.550610694,283.509069914 267.416286938,281.98148374 274.2164753,281.52438424 274.879319846,281.419648908 284.942840839,278.889541224 285.041777028,278.865444884 288.149021512,278.132995143 290.627464793,276.190293793 290.718892896,273.868865776 290.793218237,273.868381649 290.67765042,256.12589563 292.33091069,252.05508935 296.37703616,250.34231325 298.155564243,250.327816464 300.787433944,249.218762905 301.874999,246.577941031 301.874999,225.006564486 300.766568434,222.344871242 298.096539839,221.256672477 296.961785626,221.265284499 292.889689624,219.616909642 291.17202222,215.573554079 290.610817706,156.420830555 289.491098221,153.783391085 286.835887476,152.706490634 241.679841886,153.008729689 241.637026995,153.009260717 219.402265547,153.412006477 215.293587565,151.786638236 213.554785634,147.724665251 213.237067563,114.811737683 214.887236512,110.726425492 218.945725527,109.011345267 249.212967308,108.821024056 249.307883587,108.819225552 273.706354712,108.047875281 273.954880421,108.044513385 292.966583038,108.131038251 295.642034367,107.025976058 296.733475495,104.34493922 296.721165621,103.067611835 298.358156617,98.9950890232 299.602355672,98.4617927888 301.874999,95.0150672031 301.874999,71.447311533 300.790196286,68.8092775247 298.163413171,67.6975082913 247.574988978,67.1792644603 247.354924634,67.1734853166 228.926849758,66.3941349853 225.014626531,64.6265078236 223.413389788,60.6432883653 223.406332236,3.74953482035 222.307818224,1.09818510981 219.656332265,0.0 1.875,0.0 "/>
  <polygon class="60193516" points="-40.595140956,1202.91225475 -1.54924049638,1201.0 -1.0,1258.12386911 -10.023609034,1258.06587261 -10.6687904883,1328.529012 -40.6529094568,1328.32398907 -40.5254192019,1314.04669806 -40.0145408597,1258.70846636 -40.595140956,1202.91225475 "/>
  <polygon class="110862376" points="-41.6971319735,1201.0 -52.8044116244,1201.01199987 -52.7601885141,1255.55227297 -41.6529094568,1255.5402818 -41.6971319735,1201.0 "/>
  <polygon class="171672074" points="-65.8458227411,1202.10806691 -68.6744237725,1280.09936437 -61.7005037013,1280.73595709 -53.8044116244,1280.75975762 -53.8570939936,1201.31932558 -60.438040101,1201.0 -65.8458227411,1202.10806691 "/>
  <polygon class="185310363" points="-84.4151464751,1206.67297299 -84.596149002,1221.17120819 -79.0395825291,1221.44891813 -78.9735240769,1227.62316034 -69.6744237725,1225.50024876 -69.6815985564,1206.48370362 -75.4081255142,1206.43446933 -75.9886646539,1201.0 -79.3572154248,1201.19915945 -78.9859790262,1207.07332357 -84.4151464751,1206.67297299 "/>
  <polygon class="176090908" points="-102.435218482,1201.02779384 -102.386176035,1260.78574456 -85.596149002,1260.75794507 -85.6451576797,1201.0 -90.3438607248,1201.00603592 -94.3890477421,1201.01308021 -102.435218482,1201.02779384 "/>
  <polygon class="85257994" points="-128.475185697,1201.0 -128.468029123,1217.46831967 -128.45666574,1254.57150952 -106.712202424,1267.4479614 -103.435218482,1202.56492152 -128.475185697,1201.0 "/>
  <polygon class="157664922" points="-129.475185697,1201.0 -159.43187498,1201.88629429 -158.958786649,1245.54161484 -129.518986867,1245.92226591 -129.475185697,1201.0 "/>
  <polygon class="365890518" points="-160.444676205,1243.74508084 -194.600063531,1243.69811492 -194.590330287,1206.14288063 -194.590710009,1201.0 -160.43187498,1201.05924282 -160.440079953,1207.96325159 -160.444676205,1243.74508084 "/>
  <polygon class="393000716" points="-195.600063531,1239.32429293 -195.613873877,1207.67082049 -195.713146546,1203.68945985 -221.458227648,1201.0 -226.101692509,1235.44369671 -195.600063531,1239.32429293 "/>
  <polygon class="329971942" points="-241.564996054,1212.96089806 -237.556759367,1213.07280054 -237.705675484,1217.84179149 -232.132062854,1218.0077549 -232.260093434,1222.15986042 -228.414998318,1224.70211916 -227.101692509,1222.7281844 -227.103957411,1204.80260767 -231.565094455,1201.1235766 -235.730107997,1201.0 -235.874557312,1205.91717155 -238.864640396,1205.82698042 -238.910302019,1207.35755296 -241.381770916,1207.28359153 -241.564996054,1212.96089806 "/>
  <polygon class="388125375" points="-249.674590378,1201.0 -242.564996054,1201.33559328 -242.579827919,1237.38587885 -249.690952732,1237.31903139 -249.674590378,1201.0 "/>
  <polygon class="27719375" points="-251.337099089,1201.0 -250.690952732,1264.32502614 -257.695082282,1264.38807935 -257.631250197,1201.47128845 -251.337099089,1201.0 "/>
  <polygon class="326742307" points="-258.695082282,1201.0 -294.884840288,1201.26301752 -294.419259026,1333.90983413 -258.795756414,1334.00259775 -258.695082282,1201.0 "/>
  <polygon class="48378476" points="-337.87417722,1271.26433011 -295.884840288,1271.79403626 -296.681000874,1224.19225481 -295.923577329,1206.8750046 -331.698488134,1205.62864992 -335.00038611,1201.77909249 -339.905383543,1201.0 -341.309954345,1265.03984438 -337.87417722,1271.26433011 "/>
  <polygon class="175902090" points="-342.319775217,1201.00154584 -347.877717678,1201.0 -347.867705703,1226.06687518 -342.309954345,1226.05747277 -342.319775217,1201.00154584 "/>
  <polygon class="42485241" points="-348.886531275,1201.03626614 -383.82816055,1201.0040196 -386.980862746,1201.0 -386.980825674,1253.86201268 -348.877717678,1253.88902227 -348.886531275,1201.03626614 "/>
  <polygon class="31629105" points="-388.004569164,1201.0 -387.980862746,1205.52887694 -389.634874195,1223.27377687 -389.460895326,1229.98686983 -409.474664929,1230.2043077 -409.517208455,1201.0167634 -388.004569164,1201.0 "/>
  <polygon class="179084757" points="-410.56795927,1201.0 -410.517208455,1233.46114181 -422.688804335,1233.14651991 -421.542881255,1201.46713455 -410.56795927,1201.0 "/>
  <polygon class="217784122" points="-428.54804461,1201.00538105 -423.689711094,1201.0 -423.688804335,1250.8033569 -428.536284371,1250.81018611 -428.54804461,1201.00538105 "/>
  <polygon class="325281712" points="-432.580548815,1269.26632226 -435.845601982,1272.58576002 -435.862835462,1274.3921539 -434.724858156,1275.52238232 -429.54804461,1278.02207514 -435.965326753,1295.5420741 -441.421558132,1297.85787418 -483.001781967,1283.16758782 -479.737959687,1278.71958993 -486.074938273,1276.3365015 -491.099721749,1271.93422415 -494.586192573,1268.87549995 -504.700100239,1255.89117046 -503.408160811,1254.6276364 -501.957676436,1253.21674807 -502.446344092,1252.34914469 -500.478982441,1250.01280664 -475.923060664,1259.10907029 -476.939223525,1261.8683531 -464.401228997,1266.49589942 -460.10781053,1261.55910296 -460.87471552,1259.13940427 -465.881612312,1257.46654041 -464.977433434,1255.44475389 -462.688811003,1249.25076436 -459.71744422,1241.25924799 -455.766577469,1242.48840891 -451.713843938,1229.48262458 -450.403450798,1229.74208941 -444.743701305,1214.32855145 -446.473335026,1210.47813624 -444.767991018,1204.13507279 -442.03582132,1204.67605696 -441.192192113,1201.0 -429.610820967,1204.99128758 -444.10410995,1244.35077143 -446.698656936,1244.28390552 -447.465236924,1244.1321186 -454.206989383,1264.42558897 -454.443263232,1265.6188591 -453.110357164,1266.89940192 -451.447353036,1266.54721487 -448.379356929,1263.08821142 -432.580548815,1269.26632226 "/>
  <polygon class="219111688" points="-505.700100239,1201.0 -522.671802988,1201.01919874 -522.705282229,1297.50917891 -505.744295674,1297.48275777 -505.700100239,1201.0 "/>
  <polygon class="113552644" points="-530.359132642,1201.22166451 -523.705282229,1201.0 -523.735848976,1247.82172758 -530.386759317,1248.03739476 -530.359132642,1201.22166451 "/>
  <polygon class="28406023" points="-535.741913457,1201.40445462 -545.535424981,1201.0 -545.601929186,1209.24239275 -546.387767744,1257.49666201 -531.386759317,1257.71877083 -531.405097231,1209.67286986 -536.150532881,1209.75512453 -535.741913457,1201.40445462 "/>
  <polygon class="222676078" points="-547.387767744,1201.36092804 -572.729400449,1201.0 -572.700424594,1273.76200471 -563.67183797,1273.69057951 -547.621932301,1273.55346493 -547.387767744,1201.36092804 "/>
  <polygon class="424177681" points="-39.9183159387,1340.80760119 -52.5911456952,1345.65122284 -59.9288851937,1347.64216358 -54.6850091726,1366.33129835 -32.2548382005,1449.85222562 -22.0149013728,1488.01782654 -18.9970476961,1499.24940184 -60.2014983125,1573.3609462 -52.3253121642,1579.30165791 -40.8217384581,1586.38856508 -10.0655833924,1532.21436054 -21.8752268113,1524.91454311 -15.4860557321,1513.50012088 -3.28400168382,1520.52065559 -1.68993147667,1517.83102352 0.0,1508.10926213 -0.408440049179,1497.35642332 -3.42594763599,1483.34320925 -15.016710199,1486.26355604 -25.2251074679,1448.06972138 -12.8131562334,1445.1307081 -2.51663775444,1442.42518793 -30.0343957974,1334.00259775 -40.9620548755,1336.80474767 -39.9183159387,1340.80760119 "/>
  <polygon class="275029266" points="-62.2014983125,1334.00259775 -62.2602322123,1358.521561 -70.7090436993,1360.22064295 -80.8291234043,1362.23732608 -81.3245085322,1334.76483434 -73.5004563286,1334.57553537 -62.2014983125,1334.00259775 "/>
  <polygon class="24736835" points="-92.3835961224,1405.67129703 -111.552722876,1407.79879345 -111.647517202,1337.57197502 -83.4512364895,1334.00259775 -82.3245085322,1347.33217769 -83.5447351011,1347.47196832 -97.4151943012,1348.94151319 -95.6871511283,1362.68258571 -97.4549961607,1365.09126259 -92.3835961224,1405.67129703 "/>
  <polygon class="402752227" points="-121.604521942,1379.82927672 -121.619313857,1362.84023733 -127.820053868,1362.84018721 -127.827827283,1354.32353441 -121.653562855,1354.32000341 -121.662571093,1341.02691358 -127.303686833,1341.02531713 -127.305456934,1334.00960317 -112.672095334,1334.00259775 -112.647517202,1357.89821294 -115.411081571,1357.89960403 -115.390544413,1379.83111942 -121.604521942,1379.82927672 "/>
  <polygon class="28723042" points="-128.828729299,1352.12027488 -128.827827283,1334.0316924 -142.030914385,1334.00259775 -142.035197605,1352.08542008 -128.828729299,1352.12027488 "/>
  <polygon class="76887729" points="-143.049533815,1367.50741047 -143.035197605,1334.00259775 -154.563965083,1334.00651665 -164.084890343,1334.0038477 -164.099237217,1367.50865964 -152.66965694,1367.5108512 -143.049533815,1367.50741047 "/>
  <polygon class="42719523" points="-165.112716568,1346.96441968 -165.099237217,1405.66146568 -207.651348888,1402.70404314 -207.899583694,1394.67668545 -211.735429441,1390.69964121 -213.842778902,1390.47106766 -213.545386511,1386.30303111 -213.51659371,1381.11594617 -211.451110989,1380.75298219 -209.599927538,1380.0910529 -208.710423671,1377.98790136 -208.352923859,1376.09898594 -209.231986441,1350.4215543 -210.050602306,1349.23653263 -211.129561323,1348.55810408 -213.515266874,1348.4559168 -213.51837033,1343.70318246 -213.550093468,1339.96552849 -208.7829007,1339.69125479 -208.758820646,1334.00259775 -176.930509002,1336.45793102 -176.767593514,1341.35791637 -173.344794172,1341.5469893 -173.797553549,1346.48990646 -165.112716568,1346.96441968 "/>
  <polygon class="267502644" points="-226.862468011,1334.00459985 -214.844927402,1334.00259775 -214.842778902,1388.50716105 -226.85008306,1388.51689725 -226.862468011,1334.00459985 "/>
  <polygon class="183258392" points="-257.585040244,1334.00259775 -267.119514585,1335.27007113 -269.272006985,1382.62765583 -227.862468011,1384.70684742 -227.922651423,1346.16047427 -231.956761947,1346.10078883 -241.434810332,1343.42228474 -250.756295666,1339.46641265 -257.585040244,1334.00259775 "/>
  <polygon class="371737624" points="-311.365673072,1420.58947279 -311.426143072,1334.00259775 -305.144090959,1335.78539341 -303.293530956,1336.22333579 -280.119329028,1344.96449974 -270.272006985,1348.48523297 -292.394656644,1396.44370405 -300.089476403,1404.43570338 -307.24005646,1411.12690001 -311.365673072,1420.58947279 "/>
  <polygon class="444577027" points="-312.426143072,1368.56685968 -312.429234882,1345.18146852 -318.904074137,1345.17955157 -318.903899329,1334.01623838 -320.577752999,1334.01774919 -327.547435695,1334.00259775 -327.550855048,1368.54918959 -320.00289488,1368.55904049 -312.426143072,1368.56685968 "/>
  <polygon class="41221694" points="-357.136962265,1334.19451086 -328.583804339,1334.00259775 -328.550855048,1368.18866834 -357.445661059,1367.80193812 -357.136962265,1334.19451086 "/>
  <polygon class="32765877" points="-362.134492355,1511.28693077 -376.813578696,1507.24012001 -381.234518599,1505.33604312 -379.54315815,1500.98931685 -395.705119383,1486.87371373 -400.092713144,1483.69126698 -411.00959806,1467.68586878 -418.412486854,1452.74295249 -424.574187943,1432.00019592 -394.804044826,1336.78206309 -394.168027382,1334.00259775 -373.732081385,1340.2595809 -384.518316232,1377.41656706 -362.327595663,1383.96733579 -366.771730256,1398.33259368 -358.445661059,1401.46503077 -369.492196235,1440.72090684 -384.698516421,1491.97502219 -358.563408798,1499.61842285 -362.134492355,1511.28693077 "/>
  <polygon class="28044928" points="-444.096835393,1416.33179239 -452.435887008,1411.77487829 -456.458032745,1408.39808669 -458.813802685,1398.90349162 -458.821053975,1347.82079181 -451.5935978,1340.10634138 -442.463589564,1334.00259775 -440.362100206,1335.03495046 -438.273682194,1336.0700573 -431.903286703,1340.1925665 -425.760263789,1344.56414842 -426.168883514,1350.20461384 -425.826724079,1362.25819384 -425.574187943,1371.10085076 -425.801416082,1398.13800471 -427.899308594,1406.87242537 -434.408203698,1413.42955484 -440.072354439,1418.45641456 -444.096835393,1416.33179239 "/>
  <polygon class="95916839" points="-465.921432576,1334.0779306 -462.498306759,1334.00259775 -459.821053975,1334.25301655 -459.826658191,1350.38474915 -472.767085897,1350.58102208 -473.033329271,1344.09527344 -466.234973969,1343.94954997 -465.921432576,1334.0779306 "/>
  <polygon class="175860969" points="-474.034521433,1334.23026282 -474.033329271,1368.75178069 -485.168725291,1367.86546517 -490.89304783,1365.86391932 -500.549343126,1357.1936792 -505.722619499,1349.73862207 -505.3994559,1346.7837438 -502.838385563,1344.39078761 -496.354668043,1339.53140383 -487.792249401,1335.41770098 -480.446639973,1334.00259775 -474.034521433,1334.23026282 "/>
  <polygon class="25993094" points="-506.722619499,1334.00259775 -519.025649622,1334.00259775 -519.025649622,1359.25823055 -506.722619499,1358.89649717 -506.722619499,1334.00259775 "/>
  <polygon class="355449229" points="-520.025649622,1365.94247632 -520.049554594,1342.66792029 -532.936484797,1342.68823819 -532.943470336,1334.00259775 -537.55650271,1334.01297731 -537.486356064,1400.96060474 -532.164189909,1400.95200613 -532.203433848,1365.96453786 -520.025649622,1365.94247632 "/>
  <polygon class="28095275" points="-551.91355819,1360.20779228 -538.55650271,1353.93034561 -547.122984516,1334.00259775 -551.921114136,1336.41053196 -551.91355819,1360.20779228 "/>
  <polygon class="242121199" points="-554.730478505,1334.16638282 -561.809576968,1334.00259775 -564.110096503,1334.25851152 -564.179475829,1380.65157133 -552.921114136,1380.17316107 -554.730478505,1334.16638282 "/>
  <polygon class="55526859" points="-0.0115276568569,1588.96998593 -1.95142111201,1602.41319778 -3.65907525513,1623.96674224 0.0,1649.15744478 -60.0885939678,1641.91957804 -55.5325175855,1618.60696653 -49.816325451,1612.34526612 -26.9674828716,1588.13668535 -22.054543963,1587.74734257 -5.12337643225,1586.38856508 -0.0115276568569,1588.96998593 "/>
  <polygon class="337672660" points="-62.1228123533,1632.01868705 -62.0885939678,1586.39757456 -72.0569664529,1586.38856508 -72.0911829395,1632.00967752 -62.1228123533,1632.01868705 "/>
  <polygon class="185766655" points="-73.0911829395,1625.1478061 -77.3861323552,1625.18067292 -77.331408531,1586.38856508 -73.3803936342,1586.50242005 -73.0911829395,1625.1478061 "/>
  <polygon class="214791514" points="-78.3861323552,1608.78386248 -95.8191114942,1608.78683206 -95.8335045742,1591.96863265 -91.4819396762,1586.39243341 -78.3907917127,1586.38856508 -78.3861323552,1608.78386248 "/>
  <polygon class="51086895" points="-96.8706490457,1586.38856508 -167.74262722,1586.58803886 -167.704770391,1724.93157805 -96.8335045742,1724.73137428 -96.8706490457,1586.38856508 "/>
  <polygon class="359130690" points="-175.05558727,1614.84164385 -168.74262722,1614.76721733 -168.79443658,1586.51497764 -175.052132782,1586.38856508 -175.05558727,1614.84164385 "/>
  <polygon class="213267372" points="-181.432613862,1586.39610621 -181.454046793,1620.31720272 -176.076446954,1620.3205998 -176.05558727,1586.38856508 -181.432613862,1586.39610621 "/>
  <polygon class="157311321" points="-192.099920093,1624.23872592 -206.306778164,1624.20347862 -206.295425547,1586.38856508 -192.774363536,1586.4213203 -182.454046793,1586.43836186 -182.459527257,1624.25645897 -192.099920093,1624.23872592 "/>
  <polygon class="126894077" points="-213.984515224,1590.86480032 -218.128352482,1588.55057186 -247.926655018,1586.38856508 -249.081007506,1597.08408926 -245.992418151,1601.79019448 -249.031864899,1659.91707469 -217.732799015,1662.01117295 -207.306778164,1600.08365463 -213.984515224,1590.86480032 "/>
  <polygon class="387222697" points="-255.604493656,1586.38856508 -251.168632267,1587.80819023 -250.107286685,1588.71633823 -250.081007506,1617.76276395 -251.171686388,1617.77874309 -255.657827925,1617.9033698 -255.604493656,1586.38856508 "/>
  <polygon class="174043494" points="-272.090907251,1586.46853754 -272.16874629,1595.84933274 -272.19145788,1616.05806668 -256.657827925,1616.05026122 -256.672116911,1586.38856508 -272.090907251,1586.46853754 "/>
  <polygon class="32651654" points="-273.19145788,1686.79892416 -273.370630556,1647.78886074 -273.309186571,1616.72991192 -273.284879751,1607.40777723 -275.064683653,1604.80985185 -280.484107108,1596.94224857 -287.721433615,1586.38856508 -292.705881068,1589.65387097 -296.99299195,1592.46795782 -299.551797785,1593.32875872 -302.105423812,1595.14551352 -304.206810585,1597.55954011 -305.663644906,1600.15619609 -306.490440654,1604.15286297 -305.552146196,1620.06107742 -304.184501475,1620.05931059 -304.529777802,1635.81843608 -305.928429638,1635.77149058 -306.018863725,1641.82089386 -306.182598112,1645.73218929 -304.721675159,1645.7543576 -304.991154581,1661.31661161 -306.419885907,1661.34972894 -306.550469683,1666.00156636 -306.681021131,1671.20988479 -305.162687003,1671.24208248 -305.437150158,1686.90024315 -273.19145788,1686.79892416 "/>
  <polygon class="51005751" points="-307.690935043,1618.41794021 -330.705976604,1618.51974761 -330.692301745,1625.21514963 -337.621674405,1625.219075 -337.883302387,1586.63605098 -307.681021131,1586.38856508 -307.690935043,1618.41794021 "/>
  <polygon class="150591182" points="-342.947251138,1596.96658949 -338.884444978,1596.79590823 -338.883302387,1586.38856508 -342.946110791,1586.55924696 -342.947251138,1596.96658949 "/>
  <polygon class="98298267" points="-378.349139318,1586.42185721 -378.399511568,1653.08289452 -353.14277698,1653.06355455 -353.144364679,1649.69097461 -353.119379345,1644.3026043 -353.129317694,1639.91735968 -343.982387376,1639.91023822 -343.947251138,1597.77778453 -353.469244608,1597.78336448 -353.462524056,1586.38856508 -371.345393176,1586.43253143 -378.349139318,1586.42185721 "/>
  <polygon class="249629285" points="-379.39989993,1586.38856508 -384.951482665,1586.39464503 -384.951092116,1594.00527253 -379.399511568,1593.99919197 -379.39989993,1586.38856508 "/>
  <polygon class="59453962" points="-390.429872837,1586.38856508 -442.032161795,1594.45448142 -442.055823215,1656.78794656 -430.596386389,1656.36197725 -409.355773895,1653.76725507 -385.951482665,1650.92501263 -387.563445213,1629.04699512 -390.429872837,1586.38856508 "/>
  <polygon class="392850782" points="-443.060033691,1586.38856508 -443.055823215,1615.79747709 -454.410800212,1615.88908107 -454.432553846,1614.46723296 -459.007527988,1614.38564296 -458.999528888,1589.13273906 -453.995601634,1588.78929276 -453.960753583,1586.45988198 -443.060033691,1586.38856508 "/>
  <polygon class="26843038" points="-460.026750127,1587.69359674 -460.007527988,1628.46508229 -493.418307422,1627.55833127 -492.188243708,1586.38856508 -460.026750127,1587.69359674 "/>
  <polygon class="157982114" points="-494.418307422,1623.70457593 -506.6152219,1623.72832313 -506.632919119,1586.4016648 -494.433409067,1586.38856508 -494.418307422,1623.70457593 "/>
  <polygon class="192640128" points="-551.990293334,1592.43674135 -549.818163434,1608.02049106 -547.257798814,1623.78581532 -551.99222043,1624.60915927 -550.368226436,1634.42044883 -548.764250434,1642.82697394 -546.852852807,1644.14275505 -545.775717743,1646.91214393 -531.938440799,1652.9946161 -525.276995304,1639.84302101 -517.666306026,1624.29996006 -517.988098004,1619.84296852 -519.411560939,1609.92611945 -507.632919119,1608.25513108 -510.595709233,1587.25193781 -510.392116523,1586.65086647 -522.22811784,1589.3583829 -522.478056697,1586.38856508 -551.990293334,1592.43674135 "/>
  <polygon class="378950558" points="-553.057301563,1586.38856508 -552.99222043,1634.54068317 -588.882442993,1633.10427517 -588.679944067,1586.41721095 -553.057301563,1586.38856508 "/>
  <polygon class="218035610" points="-16.3393835234,1740.87181285 -16.327510396,1765.2431412 -16.3171999002,1778.98437839 -0.161265975796,1778.98285626 -0.172791653126,1771.86131347 -5.56173812784,1771.86215168 -5.57008561715,1766.46396002 -0.00515523813665,1766.46722634 0.0,1763.26762701 -0.0125883445144,1744.3154354 -0.0203766446561,1724.93357355 -7.22056133263,1724.93157805 -10.9301094325,1724.93383478 -10.9171842255,1740.87465517 -16.3393835234,1740.87181285 "/>
  <polygon class="335683922" points="-18.357783998,1745.93043497 -18.3393835234,1724.93157805 -35.7836164949,1725.84681619 -35.1179648427,1748.93836835 -19.6726391546,1747.7924258 -18.357783998,1745.93043497 "/>
  <polygon class="345088324" points="-49.2070373224,1807.39928322 -43.8874090914,1805.00146139 -40.3300412357,1802.36986862 -37.6373856543,1798.91005885 -36.9149656065,1795.47696575 -36.7836164949,1791.73663086 -36.8055080144,1724.93157805 -55.8948743038,1728.9858339 -56.2889200542,1731.14320564 -65.5708772309,1737.33479571 -57.5367313804,1763.18318147 -91.260351201,1778.17791688 -88.4144852875,1784.55652371 -83.839205005,1782.5260562 -82.9088245081,1784.67006959 -82.1207373591,1786.41333281 -86.6960192828,1788.45715866 -73.1890739193,1818.25293357 -49.2070373224,1807.39928322 "/>
  <polygon class="72546389" points="-92.260351201,1729.15438406 -95.8403860248,1776.33987448 -102.292463711,1776.33987448 -102.292463711,1797.78268522 -143.135584883,1797.78268522 -140.984892321,1745.59587116 -148.458882933,1744.94874232 -148.458882933,1724.93157805 -92.260351201,1729.15438406 "/>
  <polygon class="100129147" points="-164.521830464,1787.76688784 -164.557768447,1746.42184653 -164.579439504,1724.93157805 -149.503650147,1724.95433679 -149.458882933,1787.79079229 -151.682988511,1787.79191328 -164.521830464,1787.76688784 "/>
  <polygon class="35416417" points="-165.579439504,1814.77561269 -165.613367846,1724.93157805 -200.298815779,1727.57505634 -201.717339251,1813.05685282 -165.579439504,1814.77561269 "/>
  <polygon class="26134072" points="-256.90642193,1913.85825387 -263.433647062,1815.3370025 -261.537208967,1805.16282023 -246.440480249,1804.38545903 -247.194590868,1794.33383474 -255.105974385,1788.00560984 -260.607561353,1779.35001549 -260.310138771,1769.62029881 -256.565361968,1750.70454474 -240.579430045,1754.46806324 -243.125560901,1772.15028056 -242.106196601,1776.42472645 -240.631443434,1778.28470617 -236.912716874,1778.67033038 -234.666970004,1778.20167413 -232.531717951,1774.89294959 -230.998887119,1764.7109841 -230.396248694,1755.44354497 -229.028587979,1747.72390721 -224.589397484,1728.57853544 -218.514048517,1724.93157805 -202.717339251,1729.16126725 -207.600524015,1751.0956084 -210.86527399,1786.97421939 -210.059261527,1803.02953394 -202.764433529,1910.52158501 -256.90642193,1913.85825387 "/>
  <polygon class="29431041" points="-320.478481288,1724.93157805 -302.181222951,1728.27250503 -303.791380066,1739.24241816 -264.433647062,1744.99184626 -265.483989356,1796.6558079 -320.436828795,1794.411329 -320.478481288,1724.93157805 "/>
  <polygon class="229037182" points="-352.136363541,1725.29880795 -352.552363643,1751.20830908 -359.397298729,1758.61022638 -330.228088023,1792.70661324 -321.533698231,1790.9676649 -321.478481288,1741.9313511 -345.881714151,1743.56419748 -346.100871503,1724.93157805 -352.136363541,1725.29880795 "/>
  <polygon class="103851351" points="-360.397298729,1758.90225192 -372.406445395,1758.90225192 -372.419803734,1724.94251872 -360.410657068,1724.93157805 -360.397298729,1758.90225192 "/>
  <polygon class="175772747" points="-393.454311675,1798.55533586 -374.805403554,1799.41113113 -373.419803734,1725.9140018 -420.677984889,1724.93157805 -420.667962348,1758.0298622 -391.786339992,1760.04544513 -393.454311675,1798.55533586 "/>
  <polygon class="257246523" points="-421.677984889,1745.87005317 -421.684932833,1724.93766091 -429.852257796,1724.93157805 -429.847495934,1745.85765901 -421.677984889,1745.87005317 "/>
  <polygon class="390843198" points="-430.867155189,1752.58371955 -435.483863337,1752.60879364 -435.467224304,1757.56552138 -450.63508184,1757.67261027 -450.646017551,1752.72796216 -453.817373193,1752.7347221 -453.769866511,1771.52157189 -458.910799413,1771.56542449 -459.013531807,1759.12123779 -461.296358999,1759.13648391 -461.496923962,1734.43787684 -458.773441631,1734.40641646 -458.778249603,1733.39656233 -459.080075573,1733.39886686 -459.120281752,1729.44324275 -436.595603584,1729.16094153 -436.571427862,1729.18645266 -436.618029007,1725.01221781 -430.852257796,1724.93157805 -430.867155189,1752.58371955 "/>
  <polygon class="133171544" points="-467.282040382,1753.59751069 -468.31075346,1742.73876051 -485.368410601,1743.29369439 -485.451080041,1727.32114072 -462.496923962,1724.93157805 -462.514403215,1753.3781043 -467.282040382,1753.59751069 "/>
  <polygon class="123843321" points="-486.451080041,1724.94345444 -492.126756352,1724.93157805 -492.134362084,1732.95843737 -486.456313471,1732.959613 -486.451080041,1724.94345444 "/>
  <polygon class="282496053" points="-495.595345043,1791.80048253 -516.981144362,1788.81266247 -513.017702606,1770.82453406 -512.503507657,1766.31495992 -516.899639455,1725.81381051 -514.141682058,1724.93157805 -493.134362084,1777.02098925 -495.595345043,1791.80048253 "/>
  <polygon class="205062535" points="-517.981144362,1792.7370636 -519.018019532,1725.15390992 -533.067228184,1724.93157805 -533.022244555,1744.44917756 -550.186581261,1745.28865368 -548.636444508,1776.98350319 -564.030274592,1776.82693428 -564.057000535,1804.06501553 -517.981144362,1792.7370636 "/>
  <polygon class="66135875" points="-0.0341697156429,1913.85825387 -5.57439503465,1913.86495019 -33.8402109812,1913.87744799 -33.8034873919,2010.11361072 0.0,2010.10522025 -0.0341697156429,1913.85825387 "/>
  <polygon class="49133357" points="-40.4590999862,1960.35281673 -37.0596798874,1960.13088314 -35.8402109812,1960.04508472 -68.9853817651,2030.5342685 -98.4687714614,2031.53221616 -98.4589697279,2027.25250779 -98.2773245896,1968.82229648 -98.3898343212,1966.03737769 -98.4857241168,1913.9249995 -87.8146385231,1913.85825387 -86.9798444555,1960.79898762 -83.8264489613,1960.73222464 -40.4590999862,1960.35281673 "/>
  <polygon class="138265422" points="-99.4966274269,1913.85825387 -108.527588231,1913.87362392 -108.522796215,1930.33537842 -99.4857241168,1930.31731328 -99.4966274269,1913.85825387 "/>
  <polygon class="405397493" points="-129.199585868,1915.56370411 -112.98251828,1949.17735962 -129.220437995,1963.27624262 -126.254327685,1966.43619577 -110.551485332,1953.01799381 -109.527588231,1946.24421766 -125.499107758,1913.85825387 -129.199585868,1915.56370411 "/>
  <polygon class="25767930" points="-151.286610186,1975.14494289 -130.239707831,1975.19071159 -130.220437995,1913.90392786 -151.267386135,1913.85825387 -151.286610186,1975.14494289 "/>
  <polygon class="263828307" points="-152.317498539,1983.81454403 -152.286610186,1913.85825387 -172.370064909,1914.06013743 -172.15415048,1984.7724482 -152.317498539,1983.81454403 "/>
  <polygon class="206197709" points="-178.407975127,1913.86869992 -178.393099219,1946.91763079 -173.370064909,1946.90943689 -173.378652792,1913.85825387 -178.407975127,1913.86869992 "/>
  <polygon class="81041469" points="-189.383471805,1913.86908781 -179.407975127,1913.85825387 -179.492876923,2064.48096569 -189.462350106,2064.48891092 -189.383471805,1913.86908781 "/>
  <polygon class="45985336" points="-210.371017952,1944.23545404 -210.383156195,1913.85825387 -190.462350106,1914.51778367 -191.377872716,1944.55727818 -208.47511739,1944.30031616 -210.371017952,1944.23545404 "/>
  <polygon class="328372968" points="-216.139275699,1913.85825387 -216.266961824,1931.07692417 -211.383156195,1931.22515903 -211.40768545,1913.91148686 -216.139275699,1913.85825387 "/>
  <polygon class="424177693" points="-226.459017541,1914.22115876 -217.266961824,1914.41528906 -218.249271462,1939.70679168 -225.783664267,1939.78597854 -225.090192069,1965.95072207 -231.491563514,1965.78766028 -231.463261281,1954.58572443 -231.545221988,1913.85825387 -226.459017541,1914.22115876 "/>
  <polygon class="297530558" points="-233.82336777,1991.60532623 -256.467431781,1996.55009875 -259.097104343,1987.90115948 -264.296783091,1970.80215931 -269.336168615,1954.21420111 -271.017014838,1948.68137839 -247.851816727,1941.73148589 -247.609153127,1913.85825387 -232.545221988,1914.1891082 -232.590532396,1975.77194057 -234.235976265,1975.88899453 -233.82336777,1991.60532623 "/>
  <polygon class="315766210" points="-272.115087291,1913.85825387 -278.726710286,1913.86152448 -278.732619057,1938.82613321 -272.017014838,1938.78658 -272.115087291,1913.85825387 "/>
  <polygon class="23198662" points="-364.761167605,2015.17596774 -368.284229342,2040.73622359 -373.19239014,2069.82483942 -381.605264663,2102.26927875 -385.289792172,2115.93633931 -382.237090822,2121.93422626 -380.677801477,2124.99908759 -288.167411501,2033.86405697 -280.910861362,2021.27808016 -279.732619057,2011.18218039 -284.177412831,2003.43963349 -358.707389467,1913.85825387 -360.56015345,1925.82307149 -368.38275395,1935.45597735 -385.267119826,1944.94756369 -372.641578882,1972.59448795 -367.241454776,1995.24385896 -364.761167605,2015.17596774 "/>
  <polygon class="391245000" points="-386.289792172,1913.85825387 -386.298216689,1942.71138915 -390.205606302,1942.72871208 -390.209724682,1944.38849915 -390.286147471,1947.40488104 -393.064299318,1947.42728822 -393.023443125,1942.73882621 -397.330197006,1942.76147567 -398.865604836,1945.71854703 -398.814903804,1947.4911808 -399.499961887,1947.5223029 -399.527875448,1947.49153244 -399.317653015,1961.45719507 -403.83535051,1961.47532277 -403.830478969,1959.77706049 -403.464913204,1959.75020102 -403.425481124,1959.77532202 -403.469983929,1948.69457375 -403.462168707,1946.55660594 -406.399903906,1942.80186599 -408.738753474,1942.81841151 -408.603630516,1948.70993014 -408.067556737,1948.71377061 -408.08655662,1949.39000626 -412.211784974,1949.46335461 -412.220194411,1948.73069501 -411.119376796,1948.73066596 -411.305703309,1942.83250384 -424.36787778,1942.57624688 -424.409175367,1935.39380025 -421.163305217,1935.37065119 -421.187945657,1931.69246104 -424.667550052,1931.70956949 -424.779380609,1925.79392011 -424.477040193,1925.79171858 -424.522616018,1918.82731438 -419.690800373,1918.78849781 -419.725272709,1913.87021002 -386.289792172,1913.85825387 "/>
  <polygon class="383081925" points="-426.165081924,1931.20408954 -425.779380609,1914.77634983 -427.120295842,1915.31284043 -430.225493933,1913.85825387 -430.210508141,1929.02514791 -426.165081924,1931.20408954 "/>
  <polygon class="221239512" points="-431.225493933,1913.89810507 -439.172270407,1913.85825387 -451.292618583,1914.11374082 -451.261634082,1923.12804142 -443.663818204,1926.2133024 -435.777879612,1938.59875185 -431.256998094,1938.20552294 -431.225493933,1913.89810507 "/>
  <polygon class="396599926" points="-458.03771372,1913.86150376 -458.029394631,1929.47770601 -452.292951872,1929.46500691 -452.292618583,1913.85825387 -458.03771372,1913.86150376 "/>
  <polygon class="201855212" points="-463.327718273,1918.82205622 -459.039678894,1918.81858264 -459.03771372,1913.86573788 -463.325733974,1913.85825387 -463.327718273,1918.82205622 "/>
  <polygon class="368311660" points="-464.436554528,1924.13806742 -500.66498441,1993.9675541 -464.327718273,2014.3984293 -467.86407542,2021.19618807 -527.37312164,1986.9733966 -491.551817263,1927.83618073 -485.042230051,1913.85825387 -464.436554528,1924.13806742 "/>
  <polygon class="26496332" points="-528.391962448,1942.50761459 -528.37312164,1913.87318584 -535.734117261,1913.86446212 -541.541962924,1913.85825387 -541.571740072,1942.49275898 -528.391962448,1942.50761459 "/>
  <polygon class="339538919" points="-542.571740072,1937.26436096 -561.634302364,1936.84074768 -561.372558211,1913.85825387 -542.57827519,1914.6277307 -542.571740072,1937.26436096 "/>
  <polygon class="24064640" points="-562.634810042,1914.57302066 -575.471853342,1913.85825387 -575.939561162,1932.78701199 -576.3049258,1947.51897164 -562.634302364,1948.03211921 -562.634810042,1914.57302066 "/>
  <polygon class="47042187" points="-577.312327515,1913.85825387 -589.814513621,1913.98720914 -590.838662177,1942.8442865 -577.3049258,1943.48837511 -577.307367263,1942.14435296 -577.311110219,1915.48854546 -577.312327515,1913.85825387 "/>
  <polygon class="221349085" points="-10.0871410081,2125.33512507 -0.0100237235427,2124.99908759 0.0,2154.04228077 -10.302651242,2153.6289946 -10.2745556485,2135.14470166 -10.0871410081,2125.33512507 "/>
  <polygon class="25115164" points="-12.302651242,2125.2254263 -41.5119977769,2124.99908759 -41.2836501416,2299.69888885 -14.3775312371,2298.92417291 -12.302651242,2125.2254263 "/>
  <polygon class="106347199" points="-42.5137871051,2125.00055112 -48.0690700818,2124.99908759 -48.0672798391,2194.97283891 -42.5119977769,2194.97429388 -42.5137871051,2125.00055112 "/>
  <polygon class="61589578" points="-49.0929752691,2124.99908759 -49.0690700818,2184.90841722 -95.749566791,2185.02307666 -95.7794631431,2125.11670956 -49.0929752691,2124.99908759 "/>
  <polygon class="338616042" points="-104.443761192,2161.79689009 -118.700783156,2156.21192761 -126.43296015,2152.77969828 -123.590164614,2143.98046948 -126.421781056,2135.10982414 -119.496717907,2131.87046988 -110.866814551,2127.87021734 -104.679384993,2124.99908759 -99.2742335007,2136.71293198 -96.7794631431,2141.72877357 -100.435847046,2151.50560175 -104.443761192,2161.79689009 "/>
  <polygon class="71321055" points="-136.828233848,2124.99908759 -133.072189525,2128.38386435 -127.43296015,2133.15023682 -128.084358067,2167.35046103 -136.775895204,2166.72603466 -136.828233848,2124.99908759 "/>
  <polygon class="30954309" points="-137.828233848,2126.24071878 -139.01990379,2148.54207313 -149.10505267,2148.03869002 -158.649661527,2147.56501008 -158.804186727,2144.24288903 -158.825269562,2124.99908759 -148.215859573,2125.51618964 -137.828233848,2126.24071878 "/>
  <polygon class="326472938" points="-163.792041248,2147.09702598 -165.33856412,2147.31499823 -166.204902097,2141.87321733 -161.221112173,2141.00467497 -164.471871334,2124.99908759 -168.340535823,2125.79785818 -170.725231137,2126.66876902 -172.194882234,2128.00306397 -173.181215602,2129.14574218 -173.828365862,2130.43119985 -174.305420672,2131.68701463 -174.491972574,2133.49357588 -174.33296157,2135.03372994 -171.178444212,2152.13856139 -174.485587497,2157.07485659 -169.064745072,2163.83629325 -165.621197988,2160.33240543 -162.525670112,2156.21047787 -159.825269562,2150.83868906 -161.993641221,2150.38754683 -163.621283492,2148.67378936 -163.792041248,2147.09702598 "/>
  <polygon class="48869250" points="-175.491972574,2124.99908759 -194.477281258,2125.025709 -202.996977886,2125.03792177 -203.002359982,2130.94657545 -203.047762243,2195.05607137 -175.537365432,2195.01329027 -175.491972574,2124.99908759 "/>
  <polygon class="131293450" points="-206.620834579,2124.99908759 -206.616271591,2130.83573658 -204.13541052,2130.96216638 -204.047762243,2125.08819747 -206.620834579,2124.99908759 "/>
  <polygon class="322936853" points="-207.620834579,2124.99908759 -221.331533562,2125.0280321 -221.356578607,2181.3685127 -207.650889027,2181.34398674 -207.620834579,2124.99908759 "/>
  <polygon class="40071053" points="-222.356578607,2181.50220236 -222.392397641,2145.02151339 -254.376662435,2142.38059078 -252.969506509,2125.36464911 -258.480418409,2124.99908759 -258.98181123,2131.15930615 -263.279463004,2178.08973395 -249.617510945,2179.81034375 -234.361569389,2180.67061278 -222.356578607,2181.50220236 "/>
  <polygon class="220066670" points="-281.788314698,2176.29140832 -282.155792325,2134.43493199 -279.890779683,2133.05201946 -266.598105369,2124.99908759 -264.279463004,2127.4973883 -264.283427133,2137.97736962 -264.300702414,2151.23587506 -264.333657302,2176.31682376 -269.802267699,2176.349253 -274.384547137,2176.32930233 -281.788314698,2176.29140832 "/>
  <polygon class="25898004" points="-283.511072034,2255.63384806 -283.155792325,2237.1828421 -294.605416128,2237.38989231 -308.15694441,2223.38165317 -305.053419365,2153.00946194 -304.526455052,2125.62253467 -367.725183636,2124.99908759 -374.20898649,2136.10586084 -375.237421404,2178.03911499 -375.97185968,2221.71818595 -380.284282557,2221.58827849 -388.094231186,2221.25447371 -392.446876792,2221.08772472 -392.468743807,2255.73349689 -283.511072034,2255.63384806 "/>
  <polygon class="255676019" points="-393.493306276,2125.00386183 -403.787649333,2124.99908759 -403.763081165,2171.18101196 -398.770986524,2171.1839057 -393.468743807,2171.18580889 -393.493306276,2125.00386183 "/>
  <polygon class="26389749" points="-404.787649333,2125.00388594 -410.410665855,2124.99908759 -410.41750575,2136.69829303 -410.417718127,2145.23257714 -404.799870213,2145.23314501 -404.787649333,2125.00388594 "/>
  <polygon class="27429598" points="-411.50815337,2294.06242387 -411.417718127,2125.05909162 -429.076662044,2124.99908759 -429.110395304,2192.6685634 -429.169410396,2294.01474816 -418.34620361,2294.04456667 -411.50815337,2294.06242387 "/>
  <polygon class="122679152" points="-447.686280317,2148.96404989 -447.687166147,2154.29853484 -430.171887142,2154.31809755 -430.169410396,2125.14526982 -438.065958555,2124.99908759 -447.686819785,2125.13646633 -447.686280317,2148.96404989 "/>
  <polygon class="283033821" points="-448.687166147,2196.396855 -448.69167749,2125.92148583 -473.455801841,2124.99908759 -473.844188847,2195.50372027 -448.687166147,2196.396855 "/>
  <polygon class="131630957" points="-474.844188847,2124.99908759 -523.796920473,2131.56648708 -528.848329708,2131.82147598 -528.039195087,2188.98625223 -521.477137772,2188.76011223 -474.89368004,2187.76413172 -474.844188847,2124.99908759 "/>
  <polygon class="322160107" points="-531.976896223,2125.09395817 -531.873684685,2136.70180746 -534.130139983,2138.35546793 -534.125663844,2150.0416724 -529.848329708,2147.87645544 -529.862113159,2124.99908759 -531.976896223,2125.09395817 "/>
  <polygon class="40899579" points="-535.130139983,2125.39913088 -535.138330021,2154.44461078 -545.149970848,2155.05030262 -554.721120876,2155.47033562 -555.988894929,2145.52348212 -554.247498497,2145.33252573 -553.94010475,2124.99908759 -535.130139983,2125.39913088 "/>
  <polygon class="8045206" points="-556.988894929,2124.99908759 -566.430290811,2125.41619221 -562.792088674,2245.44130607 -557.133808726,2245.09051443 -556.988894929,2124.99908759 "/>
  <polygon class="107330059" points="-567.449094801,2154.33973545 -567.430290811,2125.66630598 -583.077774912,2124.99908759 -583.073474427,2148.89721632 -578.402130534,2148.90811391 -578.40615617,2154.39298325 -567.449094801,2154.33973545 "/>
  <polygon class="211925882" points="-0.0280772945378,2299.69888885 -6.85904458975,2302.73428646 -8.04646637547,2326.40831227 -12.6733849098,2335.08737538 -12.318850982,2338.44381077 0.0,2338.87488332 -0.0280772945378,2299.69888885 "/>
  <polygon class="102948549" points="-14.6733849098,2392.55864734 -20.219168899,2400.40822016 -36.4964163,2394.40714039 -86.5513873084,2376.94744018 -89.9175402767,2371.03482076 -79.4181119044,2344.54526353 -61.6492514429,2299.69888885 -48.2370055325,2303.78066427 -16.1779718596,2323.35565315 -14.6984885194,2328.35225262 -28.539667344,2349.85211068 -24.5099884441,2352.9731692 -37.7835380066,2372.37627325 -14.6733849098,2392.55864734 "/>
  <polygon class="385315692" points="-113.096575542,2299.87939508 -113.189028513,2363.47208986 -97.2269524962,2363.92579613 -94.9239244747,2365.03181124 -93.1456124384,2366.36094251 -91.7889042292,2368.28364273 -90.9175402767,2370.30684231 -91.2721935979,2356.01248041 -93.8100349321,2357.76829421 -94.933635185,2358.19082598 -97.770952311,2357.82296389 -99.9824881999,2357.32250544 -101.626694644,2355.4529993 -102.75689417,2352.78951586 -102.045506728,2351.23952751 -99.4726710167,2349.2985138 -99.2674326672,2347.93612715 -99.4484902448,2325.12545424 -100.662916912,2323.78210491 -102.402393102,2322.47327652 -103.052216381,2322.17877813 -103.153463182,2309.43381878 -101.323944042,2306.99869288 -98.5405928972,2306.02693308 -96.8476202056,2306.05279871 -94.2018140795,2306.97624584 -92.2831490361,2308.43904658 -90.9669027439,2311.62185563 -91.2258188835,2299.69888885 -113.096575542,2299.87939508 "/>
  <polygon class="23597441" points="-147.881604209,2334.87642728 -140.553493433,2299.69888885 -123.401109309,2304.42806103 -117.392606417,2319.09401108 -114.591818116,2331.19953285 -114.189028513,2347.21019109 -114.191547238,2360.95901509 -155.327935209,2353.25063122 -147.881604209,2334.87642728 "/>
  <polygon class="338412116" points="-156.330819734,2334.20851496 -156.327935209,2300.95727994 -175.187232647,2299.69888885 -185.800357454,2308.88720019 -185.00213275,2326.94350565 -177.852859156,2333.77442659 -156.330819734,2334.20851496 "/>
  <polygon class="312744213" points="-188.032368952,2299.94936807 -186.906295922,2303.14189193 -186.826204867,2318.23194257 -187.401347003,2318.2166035 -187.403038597,2322.78649089 -186.800357454,2322.79315686 -186.874412037,2334.53057586 -188.431089346,2337.34400212 -192.918406208,2337.14296133 -192.965112745,2336.50187394 -197.085876556,2336.48541202 -199.839708174,2336.4738785 -199.835011703,2337.0565101 -204.685159337,2336.94584322 -206.184072266,2333.08486823 -206.129080107,2322.53229816 -205.658354297,2322.59379739 -205.616484816,2318.10418466 -206.069075453,2318.06617956 -206.164020517,2304.58978144 -204.097759652,2299.69888885 -199.754364456,2299.77798593 -199.731289692,2300.46103647 -196.803492541,2300.47619095 -193.34048771,2300.50333098 -193.365151041,2299.91901822 -188.032368952,2299.94936807 "/>
  <polygon class="361889874" points="-221.460802695,2299.73579602 -218.604295449,2299.721041 -213.202831567,2299.69888885 -212.957011632,2322.85315219 -207.210073462,2323.04425706 -207.46228915,2331.88953221 -213.312188472,2331.77115321 -213.199613503,2351.76889927 -207.377013505,2351.86472425 -207.416912585,2361.56747467 -213.414363936,2361.44485244 -213.52857125,2381.25253838 -207.184072266,2381.21793916 -207.3016034,2390.03542727 -213.188547968,2390.10842341 -213.186642992,2413.5292221 -217.153286618,2413.65104654 -221.352482271,2413.78398714 -221.460802695,2299.73579602 "/>
  <polygon class="31824307" points="-225.833594155,2373.89886927 -226.08221646,2370.87146341 -222.573095312,2370.59970411 -222.786273721,2360.87309145 -228.659806183,2361.21558493 -234.687533542,2307.91158969 -222.684940801,2306.33292668 -222.460802695,2299.69888885 -268.585461432,2304.60612189 -267.391131879,2315.00848823 -264.507749171,2340.75489136 -259.315977836,2340.21581778 -255.630247248,2377.951425 -225.833594155,2373.89886927 "/>
  <polygon class="46345258" points="-269.585461432,2359.30205608 -283.506921897,2359.30630572 -283.546943171,2397.2035435 -291.512790241,2398.22182333 -291.895656884,2396.38135259 -291.902072533,2365.57587503 -288.225147272,2365.57139 -288.232119653,2347.90184661 -292.686574778,2347.89884562 -292.700119304,2299.70937311 -271.861148253,2299.69888885 -269.607322378,2299.70290144 -269.585461432,2359.30205608 "/>
  <polygon class="47346523" points="-316.105075432,2414.11541103 -293.703800285,2413.57197384 -293.700119304,2299.89338414 -304.076762969,2299.69888885 -304.90682463,2322.76831413 -325.603614255,2322.72115393 -326.140387738,2344.22915306 -323.755709276,2368.34426323 -316.105075432,2414.11541103 "/>
</svg>