<svg xmlns="http://www.w3.org/2000/svg" version="1.1" width="592.5px" height="1200px">
  <polygon class="bin" points="257.603433107,3.70539319927 256.489530783,1.08262530728 253.853698419,0.0 1.875,0.0 -0.77665042945,1.09834957055 -1.875,3.75 -1.875,1203.75 -0.77665042945,1206.40165043 1.875,1207.5 236.913011749,1207.5 239.322741001,1206.62327425 240.605712024,1204.40304263 240.162024165,1201.87745672 237.576175787,1197.39080288 236.713184039,1193.16675531 237.360897622,1187.78513397 238.158089192,1185.30435912 240.929322466,1180.25651069 244.48803032,1177.16343267 299.454082937,1156.32982903 301.210980591,1154.95380261 301.874999,1152.82325864 301.874999,1148.65945441 300.767845903,1145.99902959 298.100140201,1144.90953681 231.131216019,1145.35348443 227.04467731,1143.68442288 225.348960774,1139.60887255 225.360645371,1019.97859321 227.17057132,1015.80037618 227.79468553,1015.57633193 229.589689731,1014.21170755 230.27763546,1012.06439051 230.464236859,972.153528343 232.118322785,968.143871237 234.380445893,967.170415968 236.414024712,965.030056083 237.112630641,963.146797765 241.29540032,961.375794759 265.236611322,961.543633818 269.20104105,963.164432327 269.431606111,963.680014039 272.814874251,965.898925196 275.276200517,965.925195812 277.577371328,965.167015941 278.934652728,963.160025402 278.781463696,960.742018591 278.419133551,959.866080891 278.378243944,951.889808012 277.255394003,949.233056917 274.57839918,948.159363716 267.738672827,948.250374856 263.607242417,946.573148248 261.923306021,942.444448144 262.472357965,895.442132863 264.190379486,891.410450437 265.58224547,890.845340862 267.921414778,887.402818051 268.237817308,850.348026706 269.96191812,846.293509051 274.744482196,844.373979272 274.713154666,844.295925823 276.489547028,843.585784209 277.622061496,840.952662783 278.965185066,745.241792181 280.682136137,741.22394916 284.727784684,739.573582124 298.115690199,739.606815655 300.773356226,738.511766756 301.874999,735.856827209 301.874999,735.784603137 300.879425063,733.239875831 298.421325899,732.046329422 277.9187713,730.421125144 274.021238207,728.446746867 272.637210043,724.302666771 274.459649543,697.327711725 273.616468124,694.695352773 271.198622875,693.355840582 269.810633633,693.176535857 266.948904045,693.998740165 265.58842414,696.647251179 262.767122719,739.149178488 260.778389593,743.124788909 256.547527341,744.48873256 217.926620679,741.171144372 214.031504113,739.157830704 212.689771234,734.983490292 221.794046974,621.956941116 220.91328735,619.227009468 218.360758733,617.91824594 218.003726548,617.889148769 214.093497404,615.885008412 212.74243407,611.703968064 219.290608299,529.780459635 221.070758168,526.300509642 221.418985082,523.906965721 220.233433145,521.798700774 218.007318474,520.852800166 211.530862723,520.37639748 207.775191019,518.600628095 206.185635794,514.76243307 203.749829922,414.927291921 203.74779189,414.7696231 203.45619029,214.654881112 205.096488935,210.624633779 209.090045086,208.896923598 298.201231332,207.085041568 300.803466028,205.960376342 301.874999,203.335816497 301.874999,186.761000275 300.780708841,184.113415481 298.136489539,183.011017879 276.268764954,182.944011715 272.176473844,181.211527812 270.546723409,177.077249094 270.943079328,158.99043013 273.248094128,153.959777432 273.362908464,151.115524075 271.447164461,149.010082458 268.604733838,148.856630048 267.557277128,149.221703978 254.289692695,151.996448672 253.261518397,152.375000156 244.33185674,157.246198969 243.906119175,157.517118758 238.361230186,161.594536019 234.130073764,162.91803868 231.649836808,162.849214217 227.685402638,161.109610618 226.056396533,157.09846389 226.055296846,44.6350669712 227.12737688,40.9594472882 233.398171991,31.1244802197 237.202196801,28.5693137906 241.662013463,29.6226492462 251.967349589,37.3538845118 254.586434352,38.0860303343 257.011631658,36.8555586642 257.967500278,34.309589756 257.603433107,3.70539319927 "/>
  <polygon class="27958112" points="-1.66419964451,1201.0 -1.0,1261.20553243 -6.39346947917,1264.54160169 -35.6950995372,1282.65165025 -64.3312293217,1300.34777987 -64.2556016188,1201.12449731 -1.66419964451,1201.0 "/>
  <polygon class="116676562" points="-74.0603854646,1201.0 -65.3678552907,1201.01979771 -65.3312293217,1280.68334284 -74.0226737214,1280.6762514 -74.0603854646,1201.0 "/>
  <polygon class="118377521" points="-75.0791258908,1201.60084924 -97.9796191822,1201.0 -98.7569137837,1217.12941726 -111.50425682,1216.85052068 -111.578034596,1254.36727741 -75.0603854646,1255.2576523 -75.0791258908,1201.60084924 "/>
  <polygon class="275608974" points="-112.578034596,1222.07494871 -123.76086316,1222.15177308 -123.871058972,1209.71831949 -123.08535644,1201.0 -112.581323989,1202.20465445 -112.578034596,1222.07494871 "/>
  <polygon class="230101625" points="-143.311589549,1271.07350147 -125.447383281,1270.9963896 -124.871058972,1209.76459636 -125.121519995,1201.0 -138.156496459,1201.3651785 -143.372563928,1201.50446649 -143.311589549,1271.07350147 "/>
  <polygon class="46346730" points="-170.96573553,1239.69192483 -170.077354475,1201.0 -152.838135996,1201.11743727 -144.373403137,1201.04225603 -144.372563928,1240.10968375 -170.96573553,1239.69192483 "/>
  <polygon class="54832906" points="-173.87480439,1201.0 -180.604687902,1201.90610632 -191.480485087,1203.03386681 -191.526564207,1248.05253005 -171.96573553,1247.05955411 -173.096562164,1218.63629653 -173.87480439,1201.0 "/>
  <polygon class="199202469" points="-192.529002793,1206.00902183 -192.526564207,1201.00992532 -197.009774075,1201.0 -197.012211632,1205.99909626 -192.529002793,1206.00902183 "/>
  <polygon class="136699059" points="-198.012211632,1304.70778725 -198.101953169,1206.57059236 -203.171427476,1201.0 -217.080137204,1201.2223841 -222.315697716,1211.80140704 -223.321873356,1220.79023206 -228.440904618,1225.34573141 -228.712332235,1264.92710921 -225.564951197,1267.39470989 -225.816903106,1300.85751956 -223.779988987,1302.22551667 -223.634523699,1327.11745776 -198.312537169,1326.61344818 -198.012211632,1304.70778725 "/>
  <polygon class="124818020" points="-229.726074046,1201.02852857 -229.712332235,1238.88812881 -243.42021962,1238.85955927 -243.43398644,1201.0 -229.726074046,1201.02852857 "/>
  <polygon class="313252340" points="-244.454079229,1239.1964804 -250.480013215,1239.18125186 -250.450592319,1201.0 -244.43398644,1201.02092244 -244.454079229,1239.1964804 "/>
  <polygon class="326610392" points="-251.480013215,1212.35866841 -254.684834619,1248.78494514 -266.301761381,1247.61934461 -262.943599457,1211.43755111 -261.64768267,1211.77061977 -262.280225572,1210.30357423 -263.137905257,1208.70717007 -264.467379852,1206.78767257 -266.303461012,1204.76400388 -265.628043852,1201.0 -263.806926178,1202.21378154 -262.319380944,1203.52813545 -261.12270015,1204.85317702 -260.011734907,1206.38089522 -259.066472024,1208.12026765 -258.533639445,1209.39446997 -258.079260345,1210.80465671 -257.813673088,1211.99356965 -251.480013215,1212.35866841 "/>
  <polygon class="113476912" points="-267.303461012,1371.12830159 -267.380607899,1268.68938871 -267.445165146,1201.0 -277.235052462,1201.00652801 -289.883030907,1201.01491748 -289.741444871,1371.14989721 -267.303461012,1371.12830159 "/>
  <polygon class="96594104" points="-290.883030907,1229.07553212 -307.464135319,1230.95822707 -307.461591104,1213.88909039 -294.857130461,1201.0 -293.162387249,1202.61731982 -290.883030907,1229.07553212 "/>
  <polygon class="23971946" points="-323.33531374,1201.02283805 -323.361690934,1247.0583993 -308.490567307,1247.03552085 -308.464135319,1201.0 -323.33531374,1201.02283805 "/>
  <polygon class="42275710" points="-324.361690934,1201.34142078 -334.915069471,1201.0 -334.843514437,1204.0558014 -341.690419489,1203.91469789 -340.930693451,1223.80038446 -336.083097082,1224.78046758 -336.495380426,1229.10451667 -332.798475294,1234.64565701 -330.126989744,1238.64360498 -324.385921105,1238.86023716 -324.361690934,1201.34142078 "/>
  <polygon class="30351211" points="-345.3524012,1203.2262503 -342.690419489,1214.76421589 -344.591498087,1234.90013911 -359.314855138,1232.39160098 -357.843589746,1218.72984488 -359.309975673,1206.32826651 -347.914426708,1201.0 -345.3524012,1203.2262503 "/>
  <polygon class="25094240" points="-360.314855138,1201.00966568 -360.50832708,1347.95210137 -367.417319586,1348.07364969 -367.658664345,1201.0 -360.314855138,1201.00966568 "/>
  <polygon class="316133659" points="-368.658664345,1203.30305411 -388.563379423,1201.0 -388.535401254,1234.75341532 -380.477103316,1235.82926859 -375.89330972,1236.42585147 -368.658664345,1203.30305411 "/>
  <polygon class="381334994" points="-389.563379423,1201.0 -389.567404395,1248.81399307 -394.56508003,1244.32621439 -394.426623577,1205.79534165 -389.563379423,1201.0 "/>
  <polygon class="88628594" points="-412.448443828,1231.79225584 -395.56508003,1231.78968757 -395.567567788,1201.0 -412.450931652,1201.00257093 -412.448443828,1231.79225584 "/>
  <polygon class="390998936" points="-431.014928681,1202.79752017 -425.751775629,1202.84915575 -425.242213614,1202.3546397 -425.223610559,1201.0 -418.731975216,1201.061894 -418.738403724,1202.41103591 -418.23817127,1202.91839179 -414.388823305,1202.97132286 -414.3985507,1205.96869079 -414.445173398,1210.65349185 -414.471102327,1210.67721918 -413.484078541,1210.68831967 -413.545601877,1218.1804934 -414.377740767,1218.17158007 -414.969827782,1218.77547625 -414.979445042,1220.47463144 -414.417449171,1221.08631671 -413.597485195,1221.10072701 -413.649107569,1228.74467461 -414.631163251,1228.64719302 -414.668777198,1233.35194626 -414.718108106,1237.96582647 -414.739528926,1237.99953816 -413.752506027,1238.01063667 -413.826218702,1245.50827543 -414.629499051,1245.49835386 -415.227674137,1246.10499716 -415.237294691,1247.80414506 -414.640355295,1248.41206811 -413.855337274,1248.43023524 -413.909443712,1255.9550663 -414.879783076,1255.9484563 -414.923493544,1260.65593795 -415.019387286,1268.98090933 -415.040808158,1269.0146209 -413.450931652,1269.02997409 -413.500044599,1273.59564491 -418.975784342,1273.54387254 -421.644230159,1276.15504193 -421.656070819,1279.91057277 -424.358995211,1279.8809287 -426.934313805,1279.8417474 -426.691378263,1258.51702613 -431.558179396,1258.46675451 -431.014928681,1202.79752017 "/>
  <polygon class="206198255" points="-451.455004675,1201.04181398 -451.471484498,1245.12266837 -432.574725038,1245.0808007 -432.558179396,1201.0 -451.455004675,1201.04181398 "/>
  <polygon class="171871706" points="-452.679491047,1215.2799386 -455.447232225,1201.91321323 -461.656534078,1201.0 -464.146976363,1215.70340454 -464.167003046,1232.96403942 -460.238800299,1236.76208947 -453.584374896,1237.59968662 -452.471484498,1229.75484438 -452.679491047,1215.2799386 "/>
  <polygon class="229236040" points="-521.610246746,1201.0 -521.528699881,1263.20383544 -511.150204866,1263.16999561 -465.973361758,1263.40649022 -465.770995109,1253.74642864 -465.40092624,1216.03620758 -465.167003046,1202.20550602 -521.610246746,1201.0 "/>
  <polygon class="51963294" points="-522.612278101,1201.0 -522.610246746,1255.07542731 -556.538044031,1255.04574886 -556.560662469,1201.03567749 -542.958318192,1201.02502486 -522.612278101,1201.0 "/>
  <polygon class="221259968" points="-557.560662469,1201.59058311 -557.70213522,1229.11727125 -577.659590462,1228.77652954 -577.660400988,1201.0 -571.255399977,1201.18865386 -560.542588109,1201.49814004 -557.560662469,1201.59058311 "/>
  <polygon class="363338078" points="0.0,1371.14989721 -11.6309921837,1371.15437526 -11.6320253528,1382.20642334 -16.7973695721,1382.20317188 -16.8040575025,1416.1160265 -0.00772233456373,1416.11478659 -0.00643188105896,1414.39329564 -0.00107634309679,1401.65243967 0.0,1371.14989721 "/>
  <polygon class="381742506" points="-22.6877397969,1371.16034228 -22.6785453479,1390.00188144 -18.8040575025,1389.88170156 -18.8041478368,1371.14989721 -22.6877397969,1371.16034228 "/>
  <polygon class="337967644" points="-23.7308051932,1371.26445062 -23.6877397969,1400.41504432 -23.70028782,1413.54538256 -31.0142790419,1413.50707989 -31.0478664152,1413.94423614 -34.0736724558,1413.92952927 -34.0667984643,1413.49195338 -41.4542514862,1413.45249667 -41.4710684915,1371.14989721 -39.3069408615,1371.16200966 -23.7308051932,1371.26445062 "/>
  <polygon class="102249745" points="-58.6017475885,1371.14989721 -58.8677450818,1435.17720309 -42.4710684915,1435.70631715 -42.4959593627,1371.31506705 -58.6017475885,1371.14989721 "/>
  <polygon class="387648857" points="-59.8677450818,1395.33915154 -59.8689535326,1371.15777136 -75.7273833799,1371.14989721 -75.7154842402,1395.32892689 -59.8677450818,1395.33915154 "/>
  <polygon class="187125353" points="-93.6962312398,1372.96869903 -93.3272694695,1409.35931185 -89.3039094661,1408.9232169 -89.1919173826,1410.34944772 -89.1480317057,1411.4955717 -88.1855061379,1411.45544585 -88.0325883237,1412.72168121 -87.8858707854,1414.26390814 -76.7893212304,1413.22623371 -76.7273833799,1371.14989721 -93.6962312398,1372.96869903 "/>
  <polygon class="257176872" points="-94.710038289,1371.14989721 -104.40227126,1371.17496786 -104.388458247,1388.4058754 -94.6962312398,1388.38079248 -94.710038289,1371.14989721 "/>
  <polygon class="72210129" points="-135.165284714,1424.14016424 -149.378676095,1412.7835633 -149.39048051,1401.70796364 -149.387955559,1397.93464059 -149.41695605,1380.5986437 -149.426002647,1371.3041448 -116.135072762,1371.18445398 -109.339437656,1371.1668294 -105.757762024,1371.14989721 -105.40227126,1375.68480906 -105.959043797,1423.75995957 -135.165284714,1424.14016424 "/>
  <polygon class="138265423" points="-150.426002647,1371.14989721 -154.812148184,1371.15527007 -154.843887164,1419.45003177 -150.457748004,1419.44464417 -150.426002647,1371.14989721 "/>
  <polygon class="19607287" points="-161.908395093,1371.14989721 -161.774261354,1374.91572925 -161.200813095,1376.32458977 -156.110498239,1376.31492173 -155.843887164,1640.41125827 -162.29161856,1640.76402983 -165.321149499,1636.40165364 -173.611629577,1628.69460264 -172.93628437,1535.9821533 -172.018126386,1524.23705075 -171.738551491,1371.40846437 -163.730530182,1371.18370481 -161.908395093,1371.14989721 "/>
  <polygon class="128396867" points="-174.644819088,1396.27171102 -174.614166882,1387.97305048 -174.611629577,1371.15336118 -184.715913489,1371.14989721 -184.731909522,1391.88508912 -184.737107215,1396.23521169 -179.652646408,1396.25466551 -174.644819088,1396.27171102 "/>
  <polygon class="282805917" points="-186.069958973,1371.20900727 -194.28701032,1371.18440978 -202.771889993,1371.14989721 -202.80926406,1404.2730443 -185.737107215,1404.14867607 -186.069958973,1371.20900727 "/>
  <polygon class="302871258" points="-203.80926406,1403.40092401 -204.773911293,1403.42029608 -209.745309651,1403.42071663 -220.169923676,1403.53534311 -220.320888357,1375.6685778 -213.987392031,1375.71621492 -213.956976852,1371.14989721 -203.810004858,1371.65414576 -203.80926406,1403.40092401 "/>
  <polygon class="80194827" points="-224.771978964,1426.05979023 -228.96097687,1425.80024813 -229.894600344,1396.41094665 -229.326650411,1372.06715349 -224.781729695,1371.14989721 -224.296613793,1373.78915753 -221.320888357,1376.17771053 -221.353100517,1376.36305588 -221.873858119,1392.62963984 -221.323694461,1412.44535246 -225.295547119,1416.57790029 -224.979432035,1421.4553737 -224.771978964,1426.05979023 "/>
  <polygon class="381334983" points="-230.933198425,1371.14989721 -230.894600344,1432.14443944 -235.84094907,1427.23560338 -235.45505937,1375.96065529 -230.933198425,1371.14989721 "/>
  <polygon class="30382747" points="-240.04062512,1460.94173638 -236.84094907,1478.03980736 -248.301962551,1480.7340668 -252.349583408,1460.5668655 -248.842651138,1459.06952574 -249.63354824,1453.66264854 -253.313919824,1453.71729091 -255.055131287,1443.56325061 -256.287338861,1426.74738604 -255.708586702,1413.69841402 -253.937029725,1398.45801505 -250.146830003,1371.14989721 -244.420871559,1372.33074051 -236.871236293,1373.22906992 -244.125577122,1430.46286398 -243.436333386,1436.46068479 -240.04062512,1460.94173638 "/>
  <polygon class="390545090" points="-257.300532776,1401.34347082 -257.287338861,1373.79368344 -259.837959953,1373.78745159 -259.837697064,1371.15581165 -264.675494379,1371.14989721 -264.670752667,1373.76500522 -267.137780438,1373.76029529 -267.15851555,1401.32043582 -257.300532776,1401.34347082 "/>
  <polygon class="153097083" points="-305.849855837,1371.14989721 -306.428767762,1423.48383578 -268.15851555,1423.72468163 -268.159894143,1371.36615444 -305.849855837,1371.14989721 "/>
  <polygon class="132707050" points="-307.428767762,1372.45347131 -330.71329082,1371.14989721 -330.757982796,1421.66460749 -329.13443939,1421.66359554 -329.142890009,1439.79762157 -329.480945889,1451.79230294 -310.009352321,1458.06525812 -307.505060917,1447.73458248 -307.428767762,1372.45347131 "/>
  <polygon class="340574256" points="-331.757982796,1371.14989721 -334.345235071,1371.37482164 -350.290923299,1443.3112506 -350.88161149,1450.55904395 -349.196673635,1458.24159263 -333.840590557,1493.39371949 -331.814218775,1492.35735707 -347.277258581,1458.63816091 -348.865234899,1450.04707186 -348.136781058,1441.6928393 -331.757982796,1371.14989721 "/>
  <polygon class="396521205" points="-352.057567853,1371.14989721 -351.88161149,1379.28684818 -358.075827239,1381.87840649 -358.075225768,1373.83683336 -352.057567853,1371.14989721 "/>
  <polygon class="223252026" points="-359.130040439,1371.24963684 -359.075853436,1444.03463663 -359.075827239,1447.7678379 -422.351584896,1447.6812748 -431.123916091,1447.66766682 -431.135053348,1436.48698765 -431.178381409,1371.14989721 -359.130040439,1371.24963684 "/>
  <polygon class="211681416" points="-435.064285659,1375.74278919 -432.204897207,1375.74637922 -432.178381409,1371.1669716 -435.067773931,1371.14989721 -435.064285659,1375.74278919 "/>
  <polygon class="381246686" points="-452.590160892,1371.14989721 -452.561822599,1396.26617932 -438.952581571,1397.62649989 -436.067773931,1372.95596284 -452.590160892,1371.14989721 "/>
  <polygon class="92838181" points="-476.190390606,1397.68839717 -456.721690492,1398.04490848 -456.734118686,1397.46075675 -454.753585313,1397.5928493 -453.590160892,1372.0930013 -462.652585558,1372.28241698 -476.209903941,1371.14989721 -476.190390606,1397.68839717 "/>
  <polygon class="380426765" points="-477.215978963,1384.08332676 -477.209903941,1371.14989721 -479.954396282,1371.15154307 -479.960469343,1384.08497321 -477.215978963,1384.08332676 "/>
  <polygon class="180239932" points="-480.980643268,1371.14989721 -503.811846641,1384.98199994 -503.282263196,1395.27449854 -499.5187573,1401.55463979 -489.815915426,1407.63313851 -480.960469343,1407.6434637 -480.980643268,1371.14989721 "/>
  <polygon class="178950050" points="-504.862160647,1372.33631288 -510.601264473,1371.70614071 -515.72598234,1371.14989721 -518.524485229,1401.79740042 -513.514844048,1401.10344746 -513.74447901,1407.72605759 -511.321829893,1408.37758645 -504.811846641,1410.11714986 -504.862160647,1372.33631288 "/>
  <polygon class="24973047" points="-520.077674077,1456.88321063 -519.524485229,1382.61004684 -534.484306986,1382.87479268 -534.469768193,1371.87850751 -540.292445884,1371.14989721 -540.302457488,1456.96777468 -520.077674077,1456.88321063 "/>
  <polygon class="103259917" points="-541.302457488,1447.67949567 -557.612231806,1446.38833962 -557.052215242,1371.14989721 -541.39795544,1371.41263161 -541.302457488,1447.67949567 "/>
  <polygon class="270706675" points="-558.618119472,1371.19764922 -585.212384337,1371.14989721 -585.199759812,1406.94066025 -558.612231806,1406.99716026 -558.618119472,1371.19764922 "/>
  <polygon class="363338666" points="-11.7957004303,1640.77012842 -2.28803899856,1640.76498408 0.0,1640.76402983 -0.00189901096746,1667.5039816 -11.7975988431,1667.5100864 -11.7957004303,1640.77012842 "/>
  <polygon class="199611931" points="-13.8236929703,1664.79928969 -13.7975988431,1640.76402983 -27.1868349141,1640.76981185 -32.3002077949,1642.86305881 -32.2009823446,1665.23914878 -13.8236929703,1664.79928969 "/>
  <polygon class="10271261" points="-61.64960169,1660.08097569 -61.3176112977,1714.30081512 -44.970720183,1713.92590488 -44.6797339085,1727.02969253 -61.074017466,1728.1515174 -59.6348458509,1783.86478258 -42.8921162593,1783.35511509 -42.8225357498,1793.17312934 -59.5925694485,1793.40931572 -59.5884168017,1895.22153721 -41.7344918028,1895.60255044 -42.2167423694,1907.76566145 -59.8832402294,1907.16078115 -61.8951953159,1955.97526342 -34.9751380856,1957.77375218 -33.3002077949,1908.74502015 -37.0827400415,1908.32764969 -36.8103365033,1906.40185713 -35.0448742588,1904.02910453 -33.5885612528,1640.76402983 -45.6314027167,1645.66660472 -46.0478701022,1659.78602228 -61.64960169,1660.08097569 "/>
  <polygon class="201855223" points="-67.4642022294,1640.8172618 -67.4919212217,1686.61163313 -62.9223901425,1686.61851141 -62.9180237689,1677.07357672 -62.8951953159,1640.76402983 -67.4642022294,1640.8172618 "/>
  <polygon class="335689358" points="-69.0913432644,1661.47534773 -84.6561737838,1661.29485766 -84.7110679316,1641.03410833 -68.4919212217,1640.76402983 -68.4987162496,1651.85341746 -68.5165230011,1652.40983005 -68.5161305062,1656.1011885 -69.0931991138,1656.11939394 -69.0913432644,1661.47534773 "/>
  <polygon class="94119290" points="-85.7110679316,1640.78593461 -113.970633864,1640.76402983 -114.02406722,1740.10114284 -85.7645012872,1740.112095 -85.7110679316,1640.78593461 "/>
  <polygon class="274259164" points="-115.02406722,1640.77650291 -119.174894874,1640.77121865 -130.476782975,1640.77006094 -140.907917986,1640.76402983 -140.911742837,1673.46941462 -139.04364165,1673.46852136 -115.027130233,1673.47099291 -115.02406722,1640.77650291 "/>
  <polygon class="29449670" points="-142.092215674,1640.76402983 -141.911742837,1679.04518143 -142.179127481,1734.60590148 -163.011596138,1734.7534753 -162.986935881,1641.00762375 -142.092215674,1640.76402983 "/>
  <polygon class="390164744" points="-190.411187414,1640.76402983 -183.015425954,1640.78864763 -181.59749288,1641.84028611 -181.440602977,1641.91750763 -178.818190069,1643.64867849 -178.679536842,1675.52318829 -175.033724141,1675.61053915 -168.44136293,1675.52914662 -164.011596138,1675.49204472 -166.496709763,1708.73858658 -189.158602114,1708.88270035 -190.434768694,1708.87394433 -190.411187414,1640.76402983 "/>
  <polygon class="275251360" points="-191.434768694,1645.94471943 -192.825430785,1645.93933838 -193.124554377,1640.76402983 -197.715017499,1640.94736773 -197.533237774,1647.31115843 -202.809231217,1653.019582 -201.822325519,1705.51405093 -199.317725873,1710.84521033 -191.501241176,1711.07138227 -191.600246618,1652.12153115 -191.434768694,1645.94471943 "/>
  <polygon class="444656551" points="-203.869833292,1646.1954185 -203.809231217,1655.17687023 -208.807736555,1655.17651507 -208.804863781,1656.31113078 -208.801994279,1657.62247838 -203.884518014,1657.66533357 -203.829007526,1673.68980866 -208.72507164,1678.41465185 -216.381356488,1678.48825588 -216.185276476,1671.57228143 -216.162114035,1670.92895334 -216.146807694,1670.36188058 -216.108335682,1668.97474786 -215.994851855,1657.43858301 -217.13337233,1657.42259857 -217.122188858,1656.24454276 -217.111833184,1655.12102222 -215.662430966,1655.1326438 -215.623449172,1648.50465291 -216.882684932,1648.49788315 -216.824686116,1641.85270425 -216.818878422,1640.76402983 -204.01814631,1640.873923 -203.925604454,1644.13276285 -203.869833292,1646.1954185 "/>
  <polygon class="188860510" points="-218.13337233,1661.24633014 -220.21162352,1640.76402983 -232.765173125,1642.33516868 -232.786716339,1667.2888841 -221.762764448,1662.73949065 -218.13337233,1661.24633014 "/>
  <polygon class="27361821" points="-235.198356342,1681.6167146 -240.145841903,1681.22823474 -240.508966579,1687.64331242 -259.915223005,1686.65531929 -256.938253617,1681.53235383 -270.562593915,1680.18158829 -270.352127613,1671.82650728 -271.654320509,1668.88835943 -272.079814283,1666.41406952 -272.302073742,1664.22304929 -271.661791483,1662.07700658 -271.067056126,1659.56237605 -263.867098892,1659.36777778 -247.314664125,1661.18186198 -247.903816002,1658.24004553 -245.62106316,1640.76402983 -235.846159653,1641.39407461 -236.682537182,1650.39406158 -233.786716339,1651.10892447 -236.809972185,1671.10533936 -233.79499369,1672.94467667 -235.198356342,1681.6167146 "/>
  <polygon class="158419825" points="-277.930620038,1640.76402983 -288.871102042,1640.77217446 -325.726779366,1640.79269926 -325.692663041,1690.95496689 -325.691735882,1695.31307322 -325.687082023,1701.80641957 -278.719138447,1701.77919497 -278.732249344,1686.61344382 -273.302073742,1686.6149164 -273.325983296,1657.60822838 -277.921244877,1657.61624863 -277.930620038,1640.76402983 "/>
  <polygon class="47943155" points="-326.726779366,1716.48130347 -343.560217689,1648.55160949 -361.749038068,1640.76402983 -371.22903808,1657.5113127 -375.747318361,1668.35184571 -380.606469651,1688.01517315 -382.901891288,1704.42251043 -382.898619178,1712.90555365 -382.876194675,1731.71172685 -338.52313614,1726.41887918 -339.756142623,1720.07041983 -332.410196621,1718.42449847 -326.726779366,1716.48130347 "/>
  <polygon class="241859201" points="-383.946384632,1640.76402983 -383.901891288,1677.97544051 -389.607086403,1678.06007839 -400.454507986,1670.8055819 -399.618081257,1642.32980321 -383.946384632,1640.76402983 "/>
  <polygon class="256251152" points="-401.469733567,1640.78302013 -401.454507986,1661.60665968 -412.692770032,1661.59708859 -412.702425104,1640.76402983 -401.469733567,1640.78302013 "/>
  <polygon class="421630765" points="-413.71487351,1692.38298192 -435.262255878,1706.12472213 -444.455959061,1685.06190701 -445.097083533,1683.43107416 -445.774652467,1681.68779334 -439.480998121,1656.12425205 -442.18587502,1651.03492734 -422.667397385,1640.76402983 -421.927278608,1643.02958416 -419.747691047,1649.66833071 -413.702425104,1668.15222955 -419.630372947,1671.60919507 -425.932398187,1675.29523191 -420.358847069,1683.50779254 -413.71487351,1692.38298192 "/>
  <polygon class="48202913" points="-511.552058143,1679.50200552 -512.232483557,1684.64647162 -504.383135626,1684.59429041 -504.1277917,1686.69084276 -504.116114958,1691.72954278 -476.208725272,1691.68888636 -475.870811633,1695.15256644 -468.041849807,1704.01774704 -463.706261037,1703.99185024 -463.362537311,1713.54596498 -458.149242671,1723.56407751 -446.84135449,1723.67327835 -446.774652467,1640.99888086 -451.715830814,1641.1173157 -476.292806734,1640.76402983 -475.675671509,1646.98095872 -475.483546552,1661.97255361 -475.432700099,1676.67203258 -489.812407814,1677.13621358 -489.834347676,1675.0225909 -511.59651116,1675.25286705 -511.552058143,1679.50200552 "/>
  <polygon class="51105831" points="-524.656101629,1695.68894715 -546.757404592,1695.60120167 -546.71498946,1640.76402983 -513.232483557,1640.84833597 -513.27244532,1695.69818293 -524.656101629,1695.68894715 "/>
  <polygon class="36338286" points="-553.004011762,1828.78565304 -547.757404592,1825.89109987 -548.069025359,1640.76402983 -552.75921278,1643.7123504 -553.004011762,1828.78565304 "/>
  <polygon class="256251157" points="-554.02212999,1640.77898737 -554.006037536,1668.953802 -554.004011762,1672.21151597 -568.791767708,1672.18370465 -568.809177554,1640.76402983 -554.02212999,1640.77898737 "/>
  <polygon class="224654576" points="-40.1594422381,1957.84295738 -40.2136965282,2025.03650847 -0.0544385494664,2024.96709426 0.0,1957.77375218 -40.1594422381,1957.84295738 "/>
  <polygon class="423164100" points="-56.4590922039,1958.08272713 -57.6639294873,2054.39784806 -42.2136965282,2054.57652389 -42.3668300446,1957.77375218 -56.4590922039,1958.08272713 "/>
  <polygon class="138265427" points="-58.6724143839,1980.46478969 -58.6639294873,1957.92314171 -75.0087914337,1957.77375218 -75.0172511556,1980.31538963 -58.6724143839,1980.46478969 "/>
  <polygon class="318665508" points="-76.0172511556,1957.77375218 -85.5251571973,1960.87503913 -84.9400418106,1970.4205677 -85.3049231379,1979.13118471 -77.3553037071,1975.12923375 -76.0173154694,1966.54447788 -76.0172511556,1957.77375218 "/>
  <polygon class="56647273" points="-104.426706762,1957.77375218 -139.514640452,2062.80866218 -146.445639167,2085.60578127 -142.725265373,2106.41788894 -102.742916356,2155.24576835 -86.5251571973,2145.84748572 -112.52079643,2119.07973054 -116.238735755,2121.3067418 -127.755179613,2108.1654488 -123.712081269,2104.83433384 -127.629834393,2096.75460044 -128.758676547,2089.47674344 -127.135598902,2082.20960202 -86.5447647498,1963.0979511 -96.5606327874,1960.11769973 -104.426706762,1957.77375218 "/>
  <polygon class="176006623" points="-147.451150023,1983.11677296 -147.445639167,1957.77375218 -151.93341995,1957.86923001 -151.163394738,1982.88993475 -147.451150023,1983.11677296 "/>
  <polygon class="126252010" points="-171.314740228,2061.53431237 -171.389542612,2067.13720754 -153.362176194,2067.42578147 -152.93341995,2037.80171383 -156.501860262,2037.74569583 -156.459741876,2034.60884262 -153.395497836,2034.65920258 -153.004381271,2007.01550447 -157.122860882,2006.9533161 -157.075843147,2003.79415359 -153.311655718,2003.85556104 -152.940584041,1978.29147058 -157.254811174,1978.22389288 -157.212928469,1975.47680585 -153.494571625,1975.53769735 -153.248295955,1958.06152347 -171.207014643,1957.77375218 -171.298329864,1963.94514529 -165.45724677,1964.03944287 -166.033590738,2003.97797444 -162.154819344,2004.0406696 -162.208424363,2007.52882571 -165.043487667,2007.48103741 -165.829853431,2061.62142697 -171.314740228,2061.53431237 "/>
  <polygon class="26299304" points="-193.13639087,2140.735239 -174.076199974,2130.50806901 -172.389542612,1979.25188942 -184.355850062,1958.52325498 -193.411509497,1957.77375218 -193.13639087,2140.735239 "/>
  <polygon class="316767857" points="-198.137966822,2018.85743777 -194.613472696,2010.58544267 -194.411509497,2009.46798756 -195.974149887,2006.32339654 -211.986038774,1994.59748391 -214.854000569,1998.10480194 -222.597854902,1992.4207114 -208.680454946,1971.52770267 -205.902023167,1971.17516037 -200.332952329,1975.39987436 -196.268654037,1969.93706412 -197.390926592,1969.04858672 -194.462953061,1964.9132614 -204.679012767,1957.77375218 -211.003997767,1966.30230121 -212.49881301,1967.85869631 -214.95108003,1969.12604154 -217.672396374,1969.81402295 -219.951239122,1969.46097036 -221.430024057,1968.52120527 -223.062675958,1970.75773122 -224.354709701,1972.52474339 -223.446990755,1973.20767157 -221.19829598,1974.84006356 -220.256827112,1976.61961687 -219.94183731,1978.78696264 -220.19442203,1980.6463063 -228.819210847,1995.57845624 -227.381645632,1996.70358156 -226.335058343,1998.11505923 -226.085477964,2000.236084 -228.872323981,2003.89468369 -218.538314064,2011.39929703 -207.681869234,2019.28722393 -204.229869131,2018.52661664 -202.545770386,2021.64992641 -198.755100682,2020.02956827 -198.137966822,2018.85743777 "/>
  <polygon class="150294595" points="-229.872323981,2029.17129693 -230.380509614,1990.64405279 -258.402076832,1990.50102307 -258.219358301,1965.95689471 -258.297999573,1957.77375218 -274.529831246,1958.47215542 -274.556386852,2030.06494152 -229.872323981,2029.17129693 "/>
  <polygon class="112598469" points="-275.556386852,1973.62101657 -276.172128938,1958.74375077 -302.912648296,1957.77375218 -302.903040822,1987.32430505 -295.899624003,1987.69431951 -294.17864789,1987.68566557 -294.133167347,1987.30372771 -293.783354373,1986.81413467 -293.12072319,1986.56409958 -293.131335636,1979.84978928 -284.359159316,1979.92269196 -283.434905176,1973.78015759 -275.556386852,1973.62101657 "/>
  <polygon class="102943809" points="-308.734791999,1960.38267544 -303.912648296,1957.77375218 -303.940984705,2004.52652927 -308.600233386,2007.21907098 -308.734791999,1960.38267544 "/>
  <polygon class="32811512" points="-309.734791999,2061.80854597 -325.204633926,2061.8197739 -325.286120108,1957.79086949 -309.813124616,1957.77375218 -309.734791999,2061.80854597 "/>
  <polygon class="381241331" points="-326.3616268,2011.07483486 -336.315437863,2011.09001349 -336.405148186,1957.77375218 -326.286120108,1958.13677329 -326.3616268,2011.07483486 "/>
  <polygon class="442908147" points="-344.738488973,1957.77375218 -337.443157248,1964.93080415 -337.405148186,2060.54176406 -344.770507127,2068.63908897 -344.738488973,1957.77375218 "/>
  <polygon class="74098544" points="-362.369556296,1957.77375218 -352.793264634,1958.81820416 -345.770507127,1960.01992534 -347.147386965,2028.3702691 -362.254034374,2027.44662369 -362.036345001,2024.21451839 -362.369556296,1957.77375218 "/>
  <polygon class="177201050" points="-363.382418764,2036.41728854 -363.376259054,2029.39331505 -363.374444247,1967.22597217 -363.369556296,1957.83835846 -404.048010601,1957.77375218 -404.044889554,1985.74147873 -412.117805499,1985.73085059 -412.12317455,2036.33864619 -399.249350785,2036.35818222 -372.801508675,2036.39692579 -363.382418764,2036.41728854 "/>
  <polygon class="387212531" points="-417.93263172,1957.77375218 -417.928104491,1965.10950287 -413.12317455,1965.109981 -413.127700254,1957.77422996 -417.93263172,1957.77375218 "/>
  <polygon class="402755723" points="-418.937602788,1987.52060208 -418.93263172,1957.77375218 -428.906170616,1957.78031155 -428.912066491,1981.61009394 -425.405552861,1981.60990037 -425.414065777,1987.51829032 -418.937602788,1987.52060208 "/>
  <polygon class="272638573" points="-430.010923567,1958.55673779 -463.521637553,1957.77375218 -466.464821889,2022.06652555 -429.912066491,2023.44351624 -430.010923567,1958.55673779 "/>
  <polygon class="25632141" points="-467.464821889,1993.2809659 -471.244412465,1958.2958005 -481.163927206,1957.77375218 -491.274728524,1963.05004264 -493.503561632,1961.41751392 -501.115669525,1966.54173503 -501.111222554,2017.52161744 -495.561778595,2017.86299848 -495.676312619,1995.71621031 -474.370988669,1994.02449311 -467.464821889,1993.2809659 "/>
  <polygon class="185776168" points="-502.136462014,1957.77375218 -502.115669525,1989.73385803 -506.233951388,1989.74100322 -506.254747062,1957.78089699 -502.136462014,1957.77375218 "/>
  <polygon class="125813229" points="-523.725791489,1959.06472961 -524.289336953,1986.3641791 -507.254747062,1987.09653826 -507.265474531,1971.22744858 -516.526665695,1957.77375218 -519.617165695,1958.0210521 -523.725791489,1959.06472961 "/>
  <polygon class="373625572" points="-530.473114074,1990.40922794 -530.436342593,1958.30760545 -526.806555505,1957.77375218 -525.289336953,1989.53617849 -530.473114074,1990.40922794 "/>
  <polygon class="25377476" points="-550.438962107,1957.77375218 -531.473114074,1959.56358856 -534.10552342,2000.58782858 -550.393112963,2014.34742903 -550.438962107,1957.77375218 "/>
  <polygon class="47656371" points="-587.78491363,1982.6170489 -566.730407952,1978.98059236 -570.47866974,1961.69589284 -551.453077694,1957.77375218 -551.438962107,2012.79402526 -554.434229109,2012.84711059 -579.809265643,2012.31990954 -584.422454568,2012.23079013 -587.78491363,1982.6170489 "/>
  <polygon class="353604953" points="-20.6700427886,2202.89955933 -4.30612051561,2205.06597108 0.0,2170.38384761 -2.54268413298,2155.24576835 -20.6957521889,2156.81929856 -16.4727561017,2172.09538456 -20.6700427886,2202.89955933 "/>
  <polygon class="91711652" points="-27.1420710755,2155.25662977 -27.1449315472,2159.32314762 -23.3495119831,2159.32930217 -23.3544861662,2165.2744748 -27.1366677562,2165.26653104 -27.1500977147,2178.72631587 -22.6957521889,2178.72072259 -22.6975569502,2183.99144114 -26.4863572164,2183.98439429 -26.4916761145,2190.92401109 -42.8705969765,2190.91763994 -42.8341249451,2155.24576835 -27.1420710755,2155.25662977 "/>
  <polygon class="4751061" points="-78.149997631,2311.73328609 -78.1016768365,2246.97850684 -78.0990134812,2241.71257557 -78.0900203791,2224.52839498 -78.0842741224,2219.38788559 -78.0495490604,2155.25516324 -46.610678359,2155.25024485 -44.8501076245,2155.24576835 -44.7752916195,2180.32359115 -43.9766494629,2180.34649863 -43.9544734919,2181.8691487 -43.9267472095,2183.38023037 -44.6593483835,2183.33832736 -44.735276392,2231.99987008 -43.8705969765,2232.00378445 -43.9142704326,2233.50548567 -43.9451181435,2235.00682175 -44.7200180504,2235.00035186 -44.6924197731,2283.88136769 -43.9226990257,2283.819525 -43.9127797089,2285.2227107 -43.8936724671,2286.61992969 -44.6237518628,2286.82327291 -44.7396532548,2311.58692923 -78.149997631,2311.73328609 "/>
  <polygon class="391126585" points="-84.2670516792,2155.24955278 -84.2835182755,2196.88058487 -79.1712393568,2196.86692261 -79.149997631,2155.24576835 -84.2670516792,2155.24955278 "/>
  <polygon class="37130611" points="-85.4965810187,2225.32052447 -85.3482394791,2219.65846531 -85.2835182755,2163.48948207 -90.3599675532,2163.46729613 -90.3285303443,2155.4173773 -122.85833379,2155.24576835 -122.877826891,2160.69036121 -143.220775842,2160.57117959 -143.243945089,2166.72164976 -143.270832353,2174.26127403 -137.334712963,2174.28977036 -137.353753232,2179.49052641 -121.922735181,2179.57052092 -122.095797907,2231.33013773 -111.701607942,2231.38297953 -91.5592119285,2231.50162584 -91.5371277748,2225.27746047 -85.4965810187,2225.32052447 "/>
  <polygon class="79430881" points="-144.288460982,2155.24576835 -154.566567765,2157.50230546 -164.361015226,2168.20220995 -145.25223158,2183.38470424 -144.270832353,2175.60353785 -144.288460982,2155.24576835 "/>
  <polygon class="137577671" points="-165.396177577,2156.20392489 -165.361015226,2233.5148548 -172.465208872,2232.64659905 -171.387488538,2155.24576835 -165.396177577,2156.20392489 "/>
  <polygon class="26519947" points="-173.478443872,2195.5902801 -180.24103169,2195.59640792 -180.246601164,2202.25655752 -187.26155473,2202.26010297 -191.126818919,2202.2573421 -191.11119102,2155.26507028 -182.240291564,2155.25214191 -173.465208872,2155.24576835 -173.478443872,2195.5902801 "/>
  <polygon class="329263002" points="-192.126818919,2155.24576835 -203.619376581,2155.35929362 -203.023939226,2191.54144886 -192.145606332,2191.16636356 -192.126818919,2155.24576835 "/>
  <polygon class="98862004" points="-206.688680394,2159.60096438 -204.619376581,2158.37120576 -205.537628759,2157.05540248 -206.78495572,2155.24576835 -207.963717185,2156.09299887 -208.36817446,2155.34391064 -215.194086724,2160.10009314 -232.788809221,2160.89723303 -230.743010478,2190.55506363 -209.300856031,2189.13562818 -209.253588994,2190.18372277 -207.145484526,2190.10040696 -204.664116091,2189.91986605 -204.98782832,2180.79062265 -205.192000286,2177.48166646 -206.688680394,2159.60096438 "/>
  <polygon class="391001905" points="-233.807145152,2184.81097995 -242.715918353,2200.75155048 -264.272796892,2200.86669973 -264.663590813,2169.72562923 -264.08350275,2162.97466195 -259.483036911,2162.81460456 -259.397025179,2155.46345621 -249.132702381,2155.35965926 -249.119092282,2156.1233852 -244.632628616,2156.0549796 -244.638803021,2155.33212839 -236.868691411,2155.24576835 -235.235917172,2155.25593947 -235.001615183,2165.43091935 -233.788809221,2165.55343093 -233.807145152,2184.81097995 "/>
  <polygon class="380120754" points="-270.985675044,2155.24576835 -265.663590813,2157.06504266 -265.787527222,2191.64057835 -270.950558407,2191.77317521 -270.96225937,2175.39287968 -270.985675044,2155.24576835 "/>
  <polygon class="376561192" points="-308.725551123,2155.24576835 -315.575940046,2164.03119933 -296.804350358,2177.08124358 -315.540014764,2207.96079283 -295.636529013,2219.62121802 -271.985675044,2180.25503337 -308.725551123,2155.24576835 "/>
  <polygon class="415472354" points="-316.755586572,2155.24576835 -316.575940046,2202.26392981 -321.097744665,2204.53215033 -321.082057494,2158.52811434 -316.755586572,2155.24576835 "/>
  <polygon class="107135350" points="-377.18971011,2308.81773339 -323.242501365,2309.00108211 -322.097744665,2161.14719668 -325.348534831,2156.15895719 -377.410509677,2155.24576835 -377.18971011,2308.81773339 "/>
  <polygon class="48687666" points="-378.410509677,2156.88202812 -386.014721719,2156.129339 -395.011877728,2155.24576835 -394.946012735,2205.84141566 -385.262554749,2205.21293054 -378.410509677,2156.88202812 "/>
  <polygon class="387212526" points="-401.119391337,2162.83461867 -396.011877728,2162.83590128 -396.01697675,2155.24705059 -401.124492036,2155.24576835 -401.119391337,2162.83461867 "/>
  <polygon class="380594777" points="-402.130982426,2155.36174824 -414.139101771,2155.24576835 -419.861370158,2181.46903251 -419.058064387,2181.62189474 -412.544638087,2182.86607601 -409.221604744,2183.49851136 -402.124492036,2184.8535798 -402.130982426,2155.36174824 "/>
  <polygon class="382190508" points="-438.221275519,2158.41212441 -437.731532191,2179.49563399 -437.666531733,2185.60795387 -420.883270532,2185.71196695 -420.861370158,2155.24576835 -428.71581616,2156.05866111 -434.665490325,2157.20688331 -438.221275519,2158.41212441 "/>
  <polygon class="242119704" points="-445.359291119,2155.25015652 -439.221275519,2155.24576835 -439.24254013,2193.31368405 -445.387123615,2193.31928642 -445.359291119,2155.25015652 "/>
  <polygon class="181454192" points="-446.387123615,2257.31554628 -446.450489286,2156.15991605 -476.34987175,2155.24576835 -476.39682983,2168.09544368 -476.900318054,2212.46015293 -477.040808431,2235.96252316 -477.111839148,2244.96430847 -476.893561876,2262.50410405 -451.539894316,2262.19431223 -451.542030068,2257.51066539 -449.656362327,2257.56150932 -446.387123615,2257.31554628 "/>
  <polygon class="26991796" points="-478.111839148,2155.24576835 -483.568265948,2155.34826945 -489.445841226,2155.45494762 -490.257015871,2175.07155878 -530.06827213,2175.73477433 -529.474421958,2232.50790437 -478.172941093,2231.37684567 -478.111839148,2155.24576835 "/>
  <polygon class="95920915" points="-531.324759116,2187.22362344 -531.06827213,2187.39604116 -540.278485876,2187.09964057 -539.284868467,2155.24576835 -531.071700141,2155.57401652 -531.324759116,2187.22362344 "/>
  <polygon class="186151799" points="-566.170104271,2156.50296187 -541.278485876,2155.24576835 -541.288484266,2206.18486115 -565.377234503,2207.1397168 -566.170104271,2156.50296187 "/>
  <polygon class="316767849" points="-567.170313021,2192.73760393 -586.940386353,2200.4336624 -586.945268729,2155.24576835 -584.767252098,2155.25255587 -582.819114124,2155.25547236 -582.955525842,2176.33817109 -575.507668471,2176.80158626 -570.618846022,2175.63303017 -569.612559479,2180.06271464 -567.170104271,2179.31814847 -567.170313021,2192.73760393 "/>
  <polygon class="205131614" points="-29.1564919997,2386.92666653 0.0,2326.1297788 -29.2575364452,2311.73328609 -29.1564919997,2386.92666653 "/>
  <polygon class="218249454" points="-32.8038289772,2405.79128711 -42.9360717602,2405.66840801 -50.1874226669,2404.35478731 -58.5710486727,2403.55545152 -64.6882919112,2403.2115575 -67.065844257,2402.5894079 -102.48641539,2379.99312344 -106.729075497,2376.92986071 -111.156665789,2373.8855633 -114.8899799,2371.30952295 -119.597670422,2368.29949165 -105.522241693,2347.11878872 -103.460761753,2327.06212031 -108.01107243,2313.62274801 -65.5948960843,2315.8180942 -65.3685625279,2311.73328609 -31.2866530897,2312.84750106 -31.4814830691,2316.48579949 -38.2986412589,2316.15910645 -38.5015004823,2320.69389997 -55.7157716069,2319.86702222 -55.8718948973,2323.28682752 -85.5252421748,2321.86043634 -86.4919515461,2343.02546209 -60.8383700388,2344.26129399 -62.2788438495,2375.69736167 -48.6024486944,2376.35479786 -48.435283253,2372.69480793 -32.8818231467,2373.44112194 -31.2575364452,2373.54604438 -31.4026727134,2376.46879652 -32.6286620693,2402.22230035 -32.8038289772,2405.79128711 "/>
  <polygon class="380426998" points="-120.629671891,2323.61113253 -120.597670422,2361.01888232 -153.400451479,2349.87886073 -152.862872611,2343.98407562 -151.865705134,2331.82444137 -150.21157999,2311.73328609 -138.873566313,2312.33030003 -133.601961227,2322.66531745 -123.732324237,2322.42493032 -120.629671891,2323.61113253 "/>
  <polygon class="286356051" points="-154.400451479,2324.03670437 -154.413103378,2311.73328609 -166.107411805,2311.73847441 -166.104730083,2323.9015571 -154.400451479,2324.03670437 "/>
  <polygon class="185766663" points="-168.677225077,2369.21678305 -172.362368939,2368.09073261 -170.568773619,2355.94268934 -172.310336805,2311.989216 -168.41352604,2311.73328609 -167.107411805,2356.13242799 -168.677225077,2369.21678305 "/>
  <polygon class="98512647" points="-185.946936556,2311.73328609 -173.362368939,2335.90441592 -185.896875881,2388.76740542 -189.111170546,2388.32168412 -177.18417453,2340.09806624 -177.008116543,2335.72328485 -189.117182367,2313.33296821 -185.946936556,2311.73328609 "/>
  <polygon class="137728461" points="-190.117182367,2340.35633339 -192.368957211,2340.30210273 -202.125984384,2340.61039098 -202.09386312,2312.02848426 -192.818846949,2311.79446286 -190.718740721,2311.73328609 -190.117182367,2340.35633339 "/>
  <polygon class="55596247" points="-204.016077406,2311.73328609 -220.354246053,2312.42046276 -220.419272404,2351.00558602 -203.125984384,2350.5311413 -204.016077406,2311.73328609 "/>
  <polygon class="114033003" points="-234.61758362,2311.76303568 -227.457119948,2311.75149769 -221.419272404,2311.73328609 -221.426596309,2345.64017372 -227.597390075,2345.65839161 -234.61769439,2345.67819188 -234.61758362,2311.76303568 "/>
  <polygon class="282044676" points="-240.561259185,2311.73328609 -240.581522483,2363.2999011 -235.637972446,2363.31211646 -235.61769439,2311.74549671 -240.561259185,2311.73328609 "/>
  <polygon class="133142886" points="-259.862096705,2311.73328609 -243.385469527,2323.31391818 -241.581522483,2344.58851977 -254.324557553,2357.82347793 -259.870126277,2352.14185806 -257.11017363,2349.02046227 -259.367785564,2317.57094188 -259.862096705,2311.73328609 "/>
  <polygon class="95937624" points="-264.457365625,2311.73328609 -260.8825492,2311.86825811 -260.870126277,2325.86129935 -264.470459728,2325.92052885 -264.457365625,2311.73328609 "/>
  <polygon class="87822464" points="-265.510470112,2313.22043393 -281.181432329,2311.73328609 -283.49753161,2359.85062238 -265.470459728,2361.10715072 -265.510470112,2313.22043393 "/>
  <polygon class="102036401" points="-285.831881236,2311.73328609 -284.49753161,2401.65263214 -300.97253178,2407.19808313 -316.025041019,2411.92714167 -337.452711767,2418.2187115 -356.245903087,2420.41240886 -376.13260671,2421.18431777 -376.164912567,2385.44118464 -368.230327948,2385.13929226 -367.804393282,2334.22632349 -351.558446654,2314.58817693 -285.831881236,2311.73328609 "/>
</svg>