<svg xmlns="http://www.w3.org/2000/svg" version="1.1" width="592.5px" height="1200px">
  <polygon class="bin" points="-146.2500005,1203.749999 -147.348350071,1206.40164943 -150.0000005,1207.499999 -446.2499995,1207.499999 -448.901649929,1206.40164943 -449.9999995,1203.749999 -449.9999995,3.75 -448.901649929,1.09834957055 -446.2499995,0.0 -150.0000005,0.0 -147.348350071,1.09834957055 -146.2500005,3.75 -146.2500005,1203.749999 "/>
  <polygon class="20134681" points="39.4807799833,1201.0 53.0598860396,1240.55296952 88.2800375393,1366.8486703 14.1740444886,1469.95815576 1.05828966014,1460.53913012 51.5433472991,1392.5839885 1.0,1354.16287439 40.3141167907,1304.08650184 17.8613859195,1227.86905143 21.6197039805,1223.64948437 20.8607627111,1220.58915208 21.507422494,1217.07191122 23.4281004755,1213.93078956 25.7264940886,1212.20304503 28.0283157632,1211.05804056 29.7177229641,1209.39160864 30.4256546816,1207.34651811 30.2577587903,1205.69971215 39.4807799833,1201.0 "/>
  <polygon class="242166087" points="113.375792605,1201.23018545 113.371918094,1202.98123271 113.356235828,1211.27478594 113.371669383,1233.48726451 96.226211366,1235.96009571 93.8818026469,1236.31194711 91.8758434974,1222.69312607 89.8054853873,1209.04926654 89.2800375393,1205.07678917 91.1869337116,1201.0 98.7249244208,1201.08029774 113.375792605,1201.23018545 "/>
  <polygon class="104664714" points="114.694095774,1201.13364523 126.652202823,1201.19054141 139.286134126,1201.0 138.533312265,1229.55650773 139.230710004,1238.56843708 127.0212461,1238.67425516 115.016551923,1238.71300094 115.030501183,1227.86932488 114.829218072,1220.09929801 114.375792605,1202.74733818 114.694095774,1201.13364523 "/>
  <polygon class="104664713" points="153.548904323,1201.22333739 153.556664417,1226.32439936 153.551566083,1232.82792236 153.557366159,1269.111889 140.286134126,1268.69224126 140.796870032,1244.75863687 143.635170526,1243.57332982 143.818347597,1237.32398199 143.682204373,1230.20307558 143.733323751,1226.26010233 143.9139986,1214.89665575 144.57151302,1214.88513064 144.983863776,1201.0 153.548904323,1201.22333739 "/>
  <polygon class="202438445" points="155.216691377,1232.55519873 162.714883824,1232.3133673 163.057342354,1232.14496682 163.294103423,1232.06135868 163.556670823,1231.98466532 163.794227781,1231.92389321 164.01322588,1231.88077105 164.191482523,1231.86066643 164.369739168,1231.8405618 164.647597394,1231.83583395 164.877466697,1231.82955889 165.111755621,1231.85840224 165.310958785,1231.88915578 165.507334101,1231.930463 165.73313948,1231.99096737 165.913783784,1232.03937086 166.166191379,1232.12962606 166.134320648,1229.56471102 168.093027364,1229.55790916 168.071436456,1228.29655842 173.598375468,1228.1599665 173.579985698,1227.81569679 173.636086627,1201.0 154.557366159,1201.44179982 155.216691377,1232.55519873 "/>
  <polygon class="322067157" points="187.629473557,1206.08235773 189.618210597,1205.82605403 188.957096933,1201.0 177.771692365,1202.10703113 179.486096821,1215.28932917 174.636086627,1215.91530388 176.877419352,1234.61273772 184.977441322,1233.25288943 183.544638833,1222.26078695 189.631634372,1221.4739203 187.629473557,1206.08235773 "/>
  <polygon class="117589609" points="200.556912102,1201.0 200.94185388,1214.52329501 195.090825935,1214.65116577 195.182627462,1217.43558281 190.63447317,1217.39150022 190.631634372,1201.30843682 200.556912102,1201.0 "/>
  <polygon class="284757865" points="201.94185388,1201.63070478 202.357852699,1231.61526584 208.801792341,1233.75117443 213.810990721,1218.20404223 218.217976969,1217.85877456 218.219538518,1201.0 201.94185388,1201.63070478 "/>
  <polygon class="27489340" points="220.955820584,1201.0 219.219538518,1250.440103 261.368897693,1251.88695932 261.313662648,1201.28585764 220.955820584,1201.0 "/>
  <polygon class="387212518" points="267.151712891,1201.00508805 267.153352036,1211.49982278 262.370537322,1211.49473256 262.368897693,1201.0 267.151712891,1201.00508805 "/>
  <polygon class="219905388" points="268.153352036,1260.76909057 268.174247702,1201.0 283.951102444,1201.04945861 283.930132714,1260.81861132 268.153352036,1260.76909057 "/>
  <polygon class="129207715" points="284.951102444,1249.28541491 294.235948471,1249.26686884 294.255037628,1201.0 284.972929341,1201.01245367 284.951102444,1249.28541491 "/>
  <polygon class="112393594" points="295.255037628,1287.54489424 347.725128334,1287.53130468 347.777594303,1201.0 295.307356391,1201.01356571 295.255037628,1287.54489424 "/>
  <polygon class="102943812" points="353.721069912,1203.53450812 349.060022258,1201.0 348.777594303,1496.25956756 353.61498253,1498.8992637 353.721069912,1203.53450812 "/>
  <polygon class="32470409" points="354.721069912,1201.0 369.360552689,1201.11996391 367.745051265,1306.21929299 354.87034508,1306.49510129 354.721069912,1201.0 "/>
  <polygon class="54871680" points="370.392468335,1202.63242242 371.780853527,1211.86832903 370.360552689,1239.74613251 377.750022552,1240.07414374 386.122730693,1240.30595728 385.677557212,1238.03442433 385.478681928,1235.94728882 384.212516103,1226.06144525 387.610823403,1225.61914601 384.429088257,1201.0 379.556476875,1201.42067731 375.450467706,1201.97239233 370.392468335,1202.63242242 "/>
  <polygon class="312249567" points="388.610823403,1201.00732939 399.147708958,1201.0 399.172922046,1231.88632598 392.855191391,1231.8992911 392.855527918,1234.70422977 391.237357174,1234.70101254 388.629700867,1234.69890019 388.610823403,1201.00732939 "/>
  <polygon class="25267152" points="400.213323291,1202.75884196 421.594025342,1201.62977187 440.539293101,1201.0 442.259282545,1232.71473499 435.398773831,1233.23075399 434.214013805,1210.79962365 431.454395542,1211.0434247 433.010242414,1243.99478525 432.88340651,1246.06574313 417.759605729,1247.04711629 416.892299234,1210.51253664 414.494700524,1210.22057941 414.472391608,1271.435981 405.309143812,1272.24642432 400.172922046,1272.52896662 400.213323291,1202.75884196 "/>
  <polygon class="35139660" points="443.259282545,1227.08938643 449.677368123,1201.0 455.945451175,1202.0883426 460.109649407,1202.48398687 490.241538764,1205.37736943 490.213739203,1287.93611152 474.256836646,1284.14767356 455.506665509,1279.67253492 455.549866729,1279.34424164 457.570181875,1271.15821853 462.846429541,1272.48995733 465.623548233,1261.2607429 465.137837915,1261.15333159 469.959693716,1241.6170387 471.843148839,1234.18498014 467.014869814,1232.97987754 443.259282545,1227.08938643 "/>
  <polygon class="179091387" points="500.857756021,1237.29318471 491.298509199,1236.05066815 491.241538764,1201.0 505.36012112,1202.98769253 500.857756021,1237.29318471 "/>
  <polygon class="95785958" points="537.22518611,1236.34955428 537.229434857,1202.75488347 509.390958225,1201.0 506.813389639,1206.16990003 506.36012112,1209.09223536 509.439019964,1211.67272773 513.55626871,1213.45204313 513.610552011,1234.80399289 537.22518611,1236.34955428 "/>
  <polygon class="178540279" points="556.112191769,1201.0 538.274299735,1203.99527869 538.47925737,1220.89688377 538.229434857,1241.74369839 565.012161478,1237.47715893 562.498416314,1219.07816978 556.112191769,1201.0 "/>
  <polygon class="286598068" points="566.012161478,1250.67143329 582.96260455,1250.65488995 582.986834128,1201.0 566.036340565,1201.01652625 566.012161478,1250.67143329 "/>
  <polygon class="258350537" points="0.0,1567.67875614 0.994705809653,1579.80966874 10.5217762755,1578.59802879 9.89728957303,1573.73019165 17.8247917235,1574.20779561 19.9483932842,1565.719993 14.798877997,1563.21058568 12.042792361,1528.14560459 15.4698901478,1520.43283093 9.74897578564,1498.8992637 0.0855079410598,1503.11013057 5.38813912198,1567.23203194 0.0,1567.67875614 "/>
  <polygon class="84787446" points="21.9483932842,1498.8992637 61.0028785141,1499.90249844 60.1730573921,1697.61877927 22.1522137954,1697.2091006 22.0473591045,1593.76586415 21.9483932842,1498.8992637 "/>
  <polygon class="357279444" points="62.0028785141,1499.00108139 67.3554346364,1498.8992637 67.3477442466,1506.33820892 62.0609386909,1506.37662553 62.0028785141,1499.00108139 "/>
  <polygon class="222611862" points="69.0436707596,1530.1577388 68.3554346364,1500.36452714 82.6381249188,1498.8992637 82.6294251945,1529.75545566 74.6049871447,1529.99235526 69.0436707596,1530.1577388 "/>
  <polygon class="287118652" points="109.607882833,1609.47809606 83.6381249188,1609.45841492 83.7064306392,1498.8992637 110.115080071,1498.91790244 110.046822267,1609.47704989 109.607882833,1609.47809606 "/>
  <polygon class="378342692" points="122.329540059,1568.45377083 125.885965152,1566.53522639 116.974112056,1548.53988424 115.807037762,1540.3433543 116.944069179,1527.93579234 125.867789421,1500.08222413 121.151797093,1498.8992637 112.139173446,1527.93288031 111.115080071,1536.23712809 111.705528319,1545.2193536 112.262925905,1549.60542252 122.329540059,1568.45377083 "/>
  <polygon class="317966076" points="130.955875328,1498.91433319 130.965563153,1555.68644021 126.889317534,1555.68028555 126.885965152,1498.8992637 130.955875328,1498.91433319 "/>
  <polygon class="39144827" points="149.987233805,1502.77902707 151.370587453,1498.8992637 158.048978274,1500.95974116 156.484273643,1505.31458869 160.246625718,1506.5854156 148.262680083,1540.18716366 161.035852762,1544.49675359 159.313599992,1549.5430475 160.672518053,1549.9332277 154.632920117,1566.30136568 158.433603838,1567.74278457 144.425969346,1604.46156147 147.16158477,1605.53245216 149.31576434,1599.48394567 155.244094804,1601.47831557 152.189865436,1610.14729215 152.516116215,1623.3119452 158.834255375,1623.13594067 160.88609015,1660.59468245 153.318922039,1661.02920487 148.088194545,1661.32467698 147.723433847,1654.82432458 143.176119896,1655.08396775 141.820569256,1630.40394448 145.732307179,1630.18531951 145.387920324,1623.90706113 149.264636839,1623.68311097 148.920819833,1609.80038123 147.974459886,1609.50839329 145.804866923,1615.62547036 135.596037681,1611.67037798 137.720167553,1605.90721761 135.221948901,1604.99339556 135.932804731,1603.13881772 155.258043757,1551.94649664 148.815574118,1549.66119004 146.441652849,1556.09968817 131.965563153,1550.84493889 133.474503846,1546.94672985 136.199684244,1540.1966402 137.624723079,1536.65276139 133.775268698,1535.31445932 146.137774608,1501.44072213 149.987233805,1502.77902707 "/>
  <polygon class="330713648" points="162.035852762,1498.91051824 170.021411196,1498.8992637 170.025645201,1511.90430127 162.040088811,1511.91556196 162.035852762,1498.91051824 "/>
  <polygon class="368027128" points="171.025645201,1543.33038012 171.042155698,1513.05320353 171.154028208,1498.8992637 188.84472385,1498.98697463 188.58313425,1517.97748336 209.674153627,1517.68670999 209.806417314,1542.94698257 171.025645201,1543.33038012 "/>
  <polygon class="49939481" points="210.806417314,1499.3004006 216.156638113,1498.8992637 222.577738345,1499.03700906 222.518355068,1508.79867022 222.561108801,1522.57026679 210.851577144,1522.97454218 210.806417314,1499.3004006 "/>
  <polygon class="213276576" points="235.842262306,1498.8992637 235.835579614,1535.49577691 223.577738345,1535.51235152 223.590854055,1498.9140416 235.842262306,1498.8992637 "/>
  <polygon class="441793438" points="236.953844845,1498.8992637 248.013598025,1499.20559345 248.031740713,1518.48040357 236.842262306,1518.14220083 236.953844845,1498.8992637 "/>
  <polygon class="408709120" points="249.031740713,1573.36875993 249.035222737,1498.8992637 301.891084132,1498.91112301 301.879138273,1573.37307824 249.031740713,1573.36875993 "/>
  <polygon class="382974342" points="305.478456817,1498.8992637 323.635019647,1505.20018425 323.628564154,1534.56888839 323.643782451,1535.07024233 323.256999423,1535.07195807 321.494720681,1535.05709517 319.282966045,1535.0729543 319.518638388,1534.16167696 318.798049341,1532.94656862 313.543978458,1533.06872317 312.761162396,1534.41505212 311.692469634,1533.50559191 304.253094611,1529.13976772 303.979631017,1529.39688909 302.891084132,1528.99101716 303.678393542,1501.27129763 304.654173726,1501.28624603 305.478456817,1498.8992637 "/>
  <polygon class="424177696" points="344.124992434,1576.07812034 325.300626863,1574.33252944 324.99670599,1539.42212622 324.643782451,1499.17641625 334.88600884,1499.02775336 344.161909221,1498.8992637 344.124992434,1576.07812034 "/>
  <polygon class="195133798" points="375.935058791,1499.23276984 375.939103941,1531.89121922 345.161909221,1531.81823192 345.164913591,1499.15152862 349.104652286,1498.8992637 372.176304476,1499.22170739 375.935058791,1499.23276984 "/>
  <polygon class="88508626" points="428.135823741,1572.71845593 403.962724213,1498.8992637 376.939103941,1509.02740406 380.786250045,1520.62921886 376.96357138,1522.79559867 376.953544785,1548.20694571 376.947067604,1589.54911219 428.135823741,1572.71845593 "/>
  <polygon class="48956627" points="429.378446902,1499.44433947 429.135823741,1541.43749276 433.078371651,1554.26402516 458.23564258,1554.44238681 458.193729443,1498.8992637 429.378446902,1499.44433947 "/>
  <polygon class="25309697" points="459.23564258,1498.8992637 492.898739331,1499.32060066 492.545578781,1534.58495567 491.032955578,1537.8062755 488.031897624,1539.45520667 464.590193569,1539.88848647 461.356086309,1538.06248621 459.286176631,1535.00243792 459.23564258,1498.8992637 "/>
  <polygon class="396521210" points="493.898739331,1498.8992637 493.900972741,1507.99171695 499.559349571,1510.53976936 499.73966561,1501.54067958 493.898739331,1498.8992637 "/>
  <polygon class="131172421" points="506.490138791,1498.90583482 506.495293345,1508.06683248 500.744824073,1508.06025943 500.73966561,1498.8992637 506.490138791,1498.90583482 "/>
  <polygon class="273078886" points="507.495293345,1526.07443789 507.496122923,1516.72216179 516.312362171,1516.72191806 516.310317675,1511.59157023 516.307537779,1498.8992637 519.621868005,1498.90153353 525.659803686,1498.90302396 525.663799722,1526.0779544 518.849251038,1526.07665943 516.267793193,1526.07495764 509.496970913,1526.07289942 507.495293345,1526.07443789 "/>
  <polygon class="390545089" points="544.323748284,1498.8992637 538.758939319,1499.00409219 532.604214266,1499.18390356 526.748279748,1499.34879368 526.663799722,1548.56988705 532.63525085,1548.66551203 539.195101852,1548.77262762 544.377679499,1548.85918126 544.323748284,1498.8992637 "/>
  <polygon class="318034578" points="545.402769342,1539.92587325 557.449978103,1544.95180263 559.322377268,1541.3633325 563.945402438,1530.63930531 565.73210152,1526.47979189 568.001065493,1521.22361676 571.437257117,1513.52559871 573.323139749,1508.91344602 561.948518194,1503.92018038 559.448014404,1504.44464493 546.500276833,1498.8992637 545.970768514,1500.18208497 545.377679499,1501.63507422 558.412304686,1506.75153519 558.630756314,1508.30169165 545.402769342,1539.92587325 "/>
  <polygon class="223188536" points="9.67521044835,1697.61877927 76.8083975201,1697.81892341 76.6735254155,1810.45640546 70.6476500038,1819.8196857 54.3852686819,1820.80785832 48.0822088692,1817.0475345 11.6327642089,1749.16791063 17.7570025256,1746.5166485 10.9295247462,1733.37968752 0.173564774171,1714.14473767 0.0,1705.64557701 9.67521044835,1697.61877927 "/>
  <polygon class="246383862" points="88.796404501,1697.97718343 78.8083975201,1697.61877927 78.8334619067,1719.74258238 88.4652612232,1724.56228741 88.796404501,1697.97718343 "/>
  <polygon class="24806223" points="89.796404501,1697.64742524 109.102629551,1697.61877927 109.108616791,1715.65731588 109.119766565,1737.77390131 89.803003261,1737.79968409 89.796404501,1697.64742524 "/>
  <polygon class="183383759" points="110.17068297,1772.25669034 135.251130086,1727.70466336 110.119766565,1705.51665276 116.365822951,1697.61877927 140.085474484,1714.89672624 153.269950714,1723.47364782 121.059143261,1777.4490764 110.17068297,1772.25669034 "/>
  <polygon class="91274680" points="154.302756097,1746.53455295 154.269950714,1697.61877927 208.587810808,1698.85938469 208.242748253,1712.93994913 207.620767821,1740.62159339 207.084432978,1759.07007549 154.302756097,1746.53455295 "/>
  <polygon class="122689282" points="243.661656815,1708.95730041 235.324444909,1709.59527281 235.451027499,1715.36333087 214.083503026,1715.35544878 214.527491823,1710.56272944 209.587810808,1710.47626372 209.659685748,1703.35554019 217.013979622,1703.47411958 217.019038271,1698.07012892 244.113728117,1697.61877927 244.447320622,1701.75790294 248.536736284,1705.31092219 248.527414409,1738.48965919 246.176345787,1739.792804 243.588700117,1741.575181 232.999309554,1745.21476997 234.049722755,1757.08746605 230.724281601,1758.61274233 217.383695604,1759.1712913 219.523561912,1740.48803585 223.331685415,1740.5902403 224.315067554,1736.99427601 239.872508858,1733.07090769 242.042193626,1732.51624628 243.987108005,1729.31906697 243.913899678,1726.48202209 243.661656815,1708.95730041 "/>
  <polygon class="43545429" points="278.952145604,1744.62486812 278.982010472,1698.23884445 260.936035595,1697.61877927 249.536736284,1704.30319131 249.71325447,1744.39181437 278.952145604,1744.62486812 "/>
  <polygon class="286081689" points="279.994881338,1718.29330162 286.320782857,1718.46583258 286.996845682,1699.31328712 279.982010472,1697.61877927 279.994881338,1718.29330162 "/>
  <polygon class="330713645" points="297.801715088,1697.64694648 297.78137757,1721.52952842 287.996845682,1721.50135583 288.017168426,1697.61877927 297.801715088,1697.64694648 "/>
  <polygon class="32401646" points="298.801715088,1697.9791649 332.63817782,1697.61877927 332.627695351,1733.63163144 298.892890239,1733.42131446 298.801715088,1697.9791649 "/>
  <polygon class="115639375" points="333.63817782,1697.61877927 351.528397543,1698.53175439 372.900162987,1712.12718857 372.304083357,1772.05436796 333.641913725,1771.8829925 333.63817782,1697.61877927 "/>
  <polygon class="41987129" points="383.670913483,1697.61877927 393.29852021,1700.3996759 393.312350801,1732.49191472 373.900162987,1727.49256581 383.670913483,1697.61877927 "/>
  <polygon class="328790106" points="449.071043061,1785.44600614 449.050127258,1743.42813675 449.035269695,1726.64059719 437.43781197,1727.22978485 442.218215963,1707.24038861 396.21056563,1697.61877927 394.312350801,1780.84324911 394.415041386,1784.75927233 449.071043061,1785.44600614 "/>
  <polygon class="387222698" points="453.675771554,1698.56242558 454.366560127,1749.53352001 454.978838686,1755.94924491 455.665881968,1772.43408081 452.05186542,1776.19469059 450.071043061,1774.61109761 450.153513006,1697.61877927 453.675771554,1698.56242558 "/>
  <polygon class="50064525" points="456.665881968,1759.66031476 489.744844422,1759.76860438 489.786935924,1697.71410849 456.707474568,1697.61877927 456.665881968,1759.66031476 "/>
  <polygon class="275029265" points="506.892402283,1698.09191069 494.436810648,1697.61877927 490.786935924,1719.57661944 499.178447911,1721.19167897 506.908342451,1722.61093911 506.892402283,1698.09191069 "/>
  <polygon class="446126549" points="543.110495479,1698.77811837 509.146509519,1697.61877927 507.908342451,1746.43856714 543.173124722,1747.68444045 543.110495479,1698.77811837 "/>
  <polygon class="363387066" points="551.749994251,1697.61877927 586.773511932,1697.75015966 586.840193185,1768.2117972 551.966529521,1767.9395642 552.009065633,1743.24728357 544.173124722,1743.21654911 544.209084668,1737.42529631 551.473534791,1737.42804874 551.749994251,1697.61877927 "/>
  <polygon class="27439217" points="0.0207951134071,1820.80785832 29.228592081,1820.83060665 29.2137414176,1851.09823279 0.0,1851.07853082 0.0207951134071,1820.80785832 "/>
  <polygon class="38422344" points="32.0403052667,1865.60569734 31.228592081,1867.43244248 55.7892103397,1867.23271766 55.7468488147,1862.95751473 60.1825578926,1862.90130906 59.735158029,1820.80785832 31.2661633933,1821.0453667 32.0403052667,1865.60569734 "/>
  <polygon class="140368427" points="61.1896000213,1820.80785832 69.0916718822,1820.80987766 80.4404731211,1820.81359234 80.4334309703,1856.866854 61.1825578926,1856.86112179 61.1896000213,1820.80785832 "/>
  <polygon class="213277091" points="81.4699935666,1861.16522766 81.4404731211,1820.80785832 98.1604679688,1821.47755558 96.5967985976,1863.80366322 81.4699935666,1861.16522766 "/>
  <polygon class="126252020" points="99.1604679688,1864.66630278 99.1917952017,1824.43406067 103.458181895,1824.43505436 103.457397179,1820.81209833 113.119188152,1820.80785832 113.080874716,1868.05906903 108.916625764,1868.06244666 102.910882001,1868.07027004 102.920636415,1864.6678795 99.1604679688,1864.66630278 "/>
  <polygon class="137154251" points="153.579512165,1839.3139219 136.579315402,1821.48904928 114.119188152,1820.80785832 114.184927598,1896.1799528 122.344896006,1910.02877915 152.986795945,1912.07275074 153.407852104,1897.50247596 153.579512165,1839.3139219 "/>
  <polygon class="48477267" points="197.693312938,2036.15041424 189.419512331,2018.12046488 166.299959437,2028.72971157 164.524408705,2030.00986718 167.024533585,2034.8106651 158.116691522,2038.90789813 155.996537908,2034.9979282 154.579512165,1967.33814817 163.897041148,1967.29955088 164.244833817,1972.35761109 177.370684585,1972.17594755 176.792442957,1967.30331865 181.32846861,1967.0241334 180.798070037,1948.89360986 185.784932651,1843.40811131 190.09870524,1820.80785832 205.620446394,1823.06067574 202.35817076,1845.66989395 199.388046983,1948.48709793 201.742055192,2014.88311738 197.829814297,2015.20121366 205.770405175,2032.42204879 202.523694978,2033.93759281 197.693312938,2036.15041424 "/>
  <polygon class="310363691" points="206.770405175,1820.80785832 206.772245287,1830.04674482 211.397598037,1830.23882793 211.332554948,1831.69794338 210.200861708,1831.64226073 209.921886147,1837.22227356 218.081964141,1837.6446857 218.506303278,1829.28098658 220.407899231,1829.37590597 220.399469738,1822.49820304 220.028093527,1822.50251986 220.016029731,1822.14765752 219.255086294,1821.40322841 218.743261113,1821.39934393 218.740102182,1820.97947449 206.770405175,1820.80785832 "/>
  <polygon class="133397643" points="233.026059601,1820.90524338 222.724516856,1820.80785832 221.407899231,1838.95696425 233.037280261,1845.10987468 233.026059601,1820.90524338 "/>
  <polygon class="395574466" points="234.037280261,1845.26817572 234.049687445,1820.80785832 250.751699309,1820.82160479 250.728388899,1845.28255087 234.037280261,1845.26817572 "/>
  <polygon class="23943476" points="252.841557098,1820.80785832 269.672833384,1820.89598748 269.687870389,1869.04948645 267.104098899,1868.83892267 251.922726795,1868.72659329 251.751699309,1863.12114157 252.841557098,1820.80785832 "/>
  <polygon class="41592898" points="270.687870389,1820.99679336 270.716826879,1855.05235187 287.356457156,1854.87007371 287.328045854,1820.80785832 270.687870389,1820.99679336 "/>
  <polygon class="385516865" points="292.61496846,1820.80964475 292.613904216,1834.40088584 288.356457156,1834.39910131 288.357521088,1820.80785832 292.61496846,1820.80964475 "/>
  <polygon class="390401055" points="295.024148151,1820.93003348 300.186656472,1820.80785832 300.25376117,1872.85605742 293.61496846,1872.56948888 295.024148151,1820.93003348 "/>
  <polygon class="201855215" points="306.376728661,1820.80785832 306.378641979,1826.27580481 301.255674489,1826.2807132 301.25376117,1820.81276669 306.376728661,1820.80785832 "/>
  <polygon class="316133664" points="307.378641979,1848.70281514 307.403489726,1846.138111 307.646465096,1820.88510223 311.725900711,1820.84186829 315.509160169,1820.80785832 315.522257314,1848.92340598 307.378641979,1848.70281514 "/>
  <polygon class="159744995" points="318.473610209,1820.80785832 316.522257314,1841.13260491 321.742998495,1841.32249744 321.787891069,1845.51463086 332.177784981,1846.8214234 332.168319399,1822.12853808 318.473610209,1820.80785832 "/>
  <polygon class="201855218" points="337.399688094,1832.66757473 333.185138591,1832.67493051 333.177784981,1820.80785832 337.399032768,1820.81144846 337.399688094,1832.66757473 "/>
  <polygon class="44647436" points="383.054791667,1825.81607187 371.795334563,1824.55206372 346.806418454,1821.75100784 338.408033006,1820.80785832 338.399688094,1914.93116316 347.600345067,1915.67656449 362.028336231,1916.8504935 373.979399494,1917.81781457 383.054791667,1825.81607187 "/>
  <polygon class="211681411" points="384.054791667,1825.40698456 388.544476572,1825.41984832 388.539345563,1820.82572668 384.061481556,1820.80785832 384.054791667,1825.40698456 "/>
  <polygon class="287243507" points="391.096452545,1850.45335043 392.976087781,1850.44786128 392.980453709,1855.58043768 414.258863989,1855.55916921 414.214743167,1820.80785832 392.400992233,1820.83445481 392.411082942,1830.82554728 392.426853082,1843.48305445 392.42954201,1846.37680377 389.544476572,1846.38398711 389.546619712,1848.63616439 389.544527297,1850.45407892 391.096452545,1850.45335043 "/>
  <polygon class="246644875" points="415.259670837,1820.80962919 415.258863989,1822.60751517 415.265245486,1839.78596399 432.785045322,1839.77327717 432.784786345,1823.47180053 432.786226214,1820.80785832 415.259670837,1820.80962919 "/>
  <polygon class="380225190" points="436.556943284,1910.68763779 439.073950252,1909.90497972 439.048365836,1820.80785832 434.019418945,1825.47614244 433.786226214,1901.86655149 436.609807097,1903.57006882 436.556943284,1910.68763779 "/>
  <polygon class="376677921" points="440.080124753,1871.95159103 440.073950252,1820.80845719 447.613375576,1820.80785832 447.619549643,1871.95099216 440.080124753,1871.95159103 "/>
  <polygon class="31867439" points="458.64034957,1971.28835849 448.666321915,1971.28314539 448.619549643,1820.80785832 458.593613301,1820.81306719 458.64034957,1971.28835849 "/>
  <polygon class="306900087" points="459.655028361,1889.4601336 459.64034957,1820.80785832 476.720015854,1821.3175727 492.085992788,1821.7776512 491.326376003,1890.82190438 476.905777867,1890.19876952 459.655028361,1889.4601336 "/>
  <polygon class="389181890" points="500.506763826,1859.38821516 498.991846552,1859.7146394 499.690862775,1863.13518787 502.30609406,1875.7067301 503.819124162,1875.40025431 504.285762141,1877.55768194 507.815953948,1876.84478806 508.041206338,1878.06698165 511.419066289,1877.45374021 512.314974137,1866.34790988 512.154678965,1865.60148263 511.82592039,1864.89280245 511.091926635,1864.05189106 510.093924182,1863.56172436 510.548158952,1856.89571821 510.645164892,1855.28803247 512.350814304,1822.47480415 512.382447829,1821.20980399 504.110755866,1822.89008133 503.658994303,1820.80785832 493.085992788,1823.10921585 493.843054258,1827.07867568 495.948907398,1837.24722817 500.506763826,1859.38821516 "/>
  <polygon class="335689357" points="524.329603531,1839.57719057 519.246926635,1839.47063514 513.382447829,1839.30992662 513.91890302,1820.80785832 519.605301667,1820.96548078 524.302212402,1821.1006193 524.329603531,1839.57719057 "/>
  <polygon class="126936764" points="525.334102566,1854.31924855 525.329603531,1820.8534967 542.882924007,1820.80785832 542.891976355,1854.26872322 525.334102566,1854.31924855 "/>
  <polygon class="442908146" points="551.477341359,1820.80785832 544.87845531,1828.06277955 543.891976355,1923.04757642 551.556667253,1930.39759252 551.477341359,1820.80785832 "/>
  <polygon class="141520975" points="553.106078134,2121.09504192 552.556667253,2192.86012865 558.334739515,2193.34530352 558.517724526,2163.84766016 573.204492371,2163.78540396 572.282376196,2059.91487962 572.628286283,2006.78339426 572.587968343,1879.26178046 560.426924153,1879.53170505 560.848569856,1821.36743156 555.603510654,1820.80785832 552.673377784,1972.53724185 553.106078134,2121.09504192 "/>
  <polygon class="106345085" points="37.4126254046,2194.45174683 0.0,2193.34530352 0.0404589386657,2235.90308455 19.3435931398,2236.28555014 19.5796888316,2241.62941046 36.330661864,2242.21514346 37.4126254046,2194.45174683 "/>
  <polygon class="91271962" points="39.4391231397,2238.40004457 61.2842536325,2238.3742537 61.2577702623,2193.34530352 39.4126254046,2193.37109338 39.4391231397,2238.40004457 "/>
  <polygon class="372568779" points="62.2915472358,2202.69635766 62.2842536325,2193.35125797 67.0193780227,2193.34530352 67.0188260352,2202.6828003 62.2915472358,2202.69635766 "/>
  <polygon class="285188931" points="68.0244633898,2193.34530352 82.6659180894,2193.58919487 82.7090982895,2197.35642739 82.4196453596,2206.57272311 68.0193780227,2210.69372869 68.0705106758,2199.8296051 68.0244633898,2193.34530352 "/>
  <polygon class="221100262" points="83.7122266086,2203.05587968 83.7090982895,2193.35388638 88.5841617906,2193.34530352 88.587286789,2203.04729319 83.7122266086,2203.05587968 "/>
  <polygon class="24041393" points="90.1952091582,2218.63967397 89.9365605813,2193.41209808 109.865756298,2193.34530352 110.040299715,2303.75887366 89.587286789,2303.16771329 90.1952091582,2218.63967397 "/>
  <polygon class="126095395" points="111.047250816,2257.45403011 116.176119375,2252.46723672 115.621564258,2193.34530352 111.040299715,2197.39534535 111.047250816,2257.45403011 "/>
  <polygon class="310371808" points="131.889400709,2193.34530352 117.185094137,2193.36501834 117.176119375,2206.09442156 128.908673817,2210.7811871 128.936128349,2210.76322136 128.482125162,2206.89363592 129.12991219,2206.80498582 129.737486031,2206.61493627 130.306683674,2206.30632088 130.813707842,2205.90269431 131.236598226,2205.41044483 131.564366312,2204.85272741 131.791517834,2204.24111953 131.916215786,2203.59278757 131.889400709,2193.34530352 "/>
  <polygon class="24950832" points="132.936424127,2193.63488665 145.465035422,2193.34530352 149.268952775,2269.69128733 159.486404618,2276.10672148 168.564859234,2283.30845014 188.003363336,2296.26906352 172.381521841,2305.88911556 153.297942196,2317.2619226 142.910252295,2320.05871783 136.433511292,2317.04730352 132.916215786,2309.38887081 137.605500308,2263.37648386 132.936424127,2193.63488665 "/>
  <polygon class="100594618" points="212.930974792,2223.79111695 189.015828259,2223.74613134 189.003363336,2193.34530352 212.918551851,2193.39023091 212.930974792,2223.79111695 "/>
  <polygon class="106347198" points="213.973925833,2193.34530352 217.959803461,2193.36463821 217.936786224,2266.29414387 213.930974792,2266.40496028 213.973925833,2193.34530352 "/>
  <polygon class="25037563" points="220.109880654,2278.0069179 267.511608456,2268.91403463 267.154555864,2259.55299705 266.880431122,2256.47567305 265.625590685,2225.47671131 266.320103942,2210.47141511 267.533392546,2197.27481326 231.898891224,2193.34530352 220.992907325,2194.1476061 218.959803461,2215.79526561 219.02608322,2237.22823963 220.109880654,2278.0069179 "/>
  <polygon class="15378994" points="268.551950028,2193.39680153 273.073383417,2193.34530352 273.264444394,2212.54531579 268.533392546,2212.60038636 268.551950028,2193.39680153 "/>
  <polygon class="326624302" points="274.264444394,2370.162985 286.10817298,2370.02737641 283.615666816,2193.34530352 274.398343134,2193.59747534 274.569542466,2279.32245644 274.264444394,2370.162985 "/>
  <polygon class="180596550" points="293.257552999,2225.05918246 287.144508627,2224.98753222 287.10817298,2221.98167899 287.112727842,2193.34530352 293.308275563,2193.36518157 293.257552999,2225.05918246 "/>
  <polygon class="126489057" points="294.308275563,2193.34530352 294.33887817,2267.85148659 311.420693398,2268.81241255 314.186510175,2195.36339093 294.308275563,2193.34530352 "/>
  <polygon class="52083813" points="325.110665316,2246.12053729 315.186510175,2230.379943 317.872750463,2227.98756595 316.685971049,2214.69527209 320.956671751,2193.34530352 337.574622497,2197.70175709 337.627589822,2238.19880873 332.92679982,2241.20669656 327.215641996,2245.00554915 325.110665316,2246.12053729 "/>
  <polygon class="286165787" points="393.721904574,2193.34530352 394.575292737,2237.61924182 392.310788963,2237.59675145 394.51984323,2347.78813908 388.017030649,2348.03483044 386.753419444,2238.56731909 338.627589822,2239.61760876 338.642020173,2218.01840632 385.157285137,2217.15533548 385.154268343,2199.17938374 385.234549074,2193.36868785 393.721904574,2193.34530352 "/>
  <polygon class="28119163" points="412.178170154,2193.36919109 412.168058054,2244.96184441 395.575292737,2244.94856484 395.587834391,2193.34530352 412.178170154,2193.36919109 "/>
  <polygon class="126252016" points="413.178170154,2227.5766345 426.416184272,2227.56713484 426.447225566,2193.34530352 413.198654977,2193.35175621 413.178170154,2227.5766345 "/>
  <polygon class="180403457" points="432.438428454,2237.83359197 434.131096954,2259.40683465 430.437745525,2260.05476944 428.950824732,2251.94350898 427.80241539,2243.00281047 427.447225566,2230.6134277 428.536085641,2193.34530352 434.169958354,2193.45594356 432.438428454,2237.83359197 "/>
  <polygon class="309805143" points="435.188371625,2193.37450293 435.179500171,2213.24998333 435.169958354,2225.15275058 443.129702444,2225.14436599 451.920621215,2225.12867027 451.94332506,2193.34530352 435.188371625,2193.37450293 "/>
  <polygon class="114185463" points="452.947111117,2193.3619451 456.866827727,2193.34530352 456.867823722,2198.34753662 452.94332506,2198.35432995 452.947111117,2193.3619451 "/>
  <polygon class="37466607" points="458.047921501,2193.34530352 462.823755361,2194.67387997 471.120879997,2198.72270817 470.904736923,2527.45330445 457.867823722,2527.90529161 458.047921501,2193.34530352 "/>
  <polygon class="176947905" points="511.410860614,2193.34530352 515.444209782,2193.34759386 515.461501518,2242.0330304 472.12812976,2242.04163966 472.120879997,2193.36015876 511.410860614,2193.34530352 "/>
  <polygon class="326550921" points="516.461501518,2215.10947286 516.511186388,2202.84685472 516.468594353,2193.63726104 534.09992318,2193.34530352 534.129595554,2196.1227441 534.266955866,2214.0710996 533.023764929,2214.29284648 533.186880911,2214.81238651 527.458352606,2214.75480307 527.19810116,2214.05150109 526.765999725,2213.69814315 523.665602031,2213.58125618 522.850327762,2214.6230931 522.866041042,2214.96925051 516.461501518,2215.10947286 "/>
  <polygon class="247238053" points="535.266955866,2260.30148814 540.036996021,2260.296469 540.042294843,2193.34530352 535.272244722,2193.35032112 535.266955866,2260.30148814 "/>
  <polygon class="25692834" points="558.926010815,2193.34530352 558.927979185,2243.08829783 541.044279526,2243.11503381 541.042294843,2193.37198839 558.926010815,2193.34530352 "/>
  <polygon class="319690717" points="569.418048125,2225.28565896 559.927979185,2222.40217672 565.11599771,2203.06658958 559.928417447,2201.55142483 562.07429956,2193.34530352 573.117020158,2196.61698454 571.129066601,2203.62939681 576.156200333,2205.75065084 571.542520707,2223.86861759 569.673258646,2223.43481047 569.418048125,2225.28565896 "/>
  <polygon class="439176521" points="592.417135767,2193.34530352 577.156200333,2193.35062499 577.182669977,2229.67097205 592.443570816,2229.66569486 592.417135767,2193.34530352 "/>
  <polygon class="113373785" points="0.0,2535.84184332 5.38938721698,2535.84375442 5.39274873454,2527.90529161 0.00158561971039,2527.90981926 0.0,2535.84184332 "/>
  <polygon class="105738076" points="7.39274873454,2528.27907973 27.4101520631,2527.90529161 29.934763549,2529.82489254 31.0340354589,2532.29651613 31.0321939474,2555.17207557 12.9413331614,2555.45518848 7.40306684547,2546.76148946 7.40406497787,2540.32634641 7.39274873454,2528.27907973 "/>
  <polygon class="126300578" points="32.0515143863,2527.90922867 36.9748532572,2527.90529161 36.9500124835,2621.87402718 32.0340354589,2621.88851117 32.0515143863,2527.90922867 "/>
  <polygon class="256051197" points="42.1439018168,2527.90529161 38.0066607442,2527.91341728 37.9748532572,2564.50735122 42.1180019984,2564.49610931 42.1439018168,2527.90529161 "/>
  <polygon class="124810761" points="43.1669932571,2527.90529161 48.3302717981,2528.36552663 48.352655609,2600.66099261 43.1439018168,2594.55950348 43.1669932571,2527.90529161 "/>
  <polygon class="26415741" points="111.956429198,2527.90529161 154.595124447,2552.59955284 151.348259249,2576.339484 149.806021798,2597.57913436 149.310534287,2621.86717119 151.449145622,2644.35261407 154.707826531,2664.77443698 137.900722537,2694.05457624 49.352655609,2643.98804165 52.9603128654,2636.87435602 70.421982623,2605.62157177 93.8292614361,2560.57187639 111.956429198,2527.90529161 "/>
  <polygon class="114669155" points="164.140185625,2527.90529161 155.707826531,2528.28785989 158.095181027,2573.79079413 164.075311484,2572.49589724 164.140185625,2527.90529161 "/>
  <polygon class="183786036" points="165.171976831,2538.31283638 165.140185625,2527.90529161 185.933024709,2527.93363545 185.939989405,2563.9738564 165.150677047,2563.95778889 165.171976831,2538.31283638 "/>
  <polygon class="232405818" points="186.939989405,2650.99274126 193.398198847,2653.95923987 194.102865382,2623.91153677 194.292819559,2615.86832926 199.543538992,2616.06731895 199.721009618,2549.82076048 219.381383245,2549.9244398 218.611646125,2545.17563441 217.117715898,2536.56951419 186.943662624,2527.90529161 186.939989405,2650.99274126 "/>
  <polygon class="35988981" points="220.388150612,2527.90529161 243.006034228,2527.90609137 242.999266815,2578.12927934 220.381383245,2578.12848289 220.388150612,2527.90529161 "/>
  <polygon class="40571020" points="279.492166133,2578.56622757 254.33095517,2578.55010686 254.332821293,2560.43962853 249.254581544,2560.43605943 249.248633397,2543.68358697 244.006309829,2543.68164226 244.006034228,2527.90529161 279.509286615,2527.91915035 279.502448739,2535.77758425 279.496339791,2552.07590159 279.498974121,2570.05908499 279.492166133,2578.56622757 "/>
  <polygon class="341385400" points="302.969138371,2527.90529161 303.519808504,2538.7571992 304.708062446,2554.39114412 297.516384731,2554.26529214 297.686730746,2574.34464755 280.509286615,2574.10066815 280.794248478,2561.58308526 280.718585527,2555.4437547 280.6568759,2550.42585309 280.512204493,2539.00583034 288.135504623,2538.90468709 290.401483279,2538.87016782 299.843377807,2538.81414308 299.885861207,2527.94804482 301.4613853,2527.92610371 302.969138371,2527.90529161 "/>
  <polygon class="441163709" points="321.284939421,2562.65104234 313.541513245,2562.59486154 305.708062446,2562.79610662 305.774898933,2552.25713379 305.784617517,2534.54587979 305.721860346,2527.90529161 318.154182655,2527.98884124 321.355322917,2558.37395534 321.284939421,2562.65104234 "/>
  <polygon class="277631775" points="331.061488748,2654.7264137 322.355322917,2582.19370954 331.366706043,2527.90529161 333.282078887,2528.37698332 324.511256956,2581.86570286 333.217413698,2654.39841131 331.061488748,2654.7264137 "/>
  <polygon class="129123099" points="334.282078887,2527.90529161 345.219975029,2528.23993928 344.410576468,2541.99461896 353.210723254,2555.26221529 334.301559085,2568.24901632 334.282078887,2527.90529161 "/>
  <polygon class="286770432" points="368.721172859,2527.93766565 366.475765768,2527.98158778 363.278838133,2528.04252691 361.161226568,2531.70165101 354.461813949,2531.85434591 354.210723254,2539.37270061 354.503670756,2556.37568469 367.827157786,2556.15062262 368.993706107,2556.1585707 370.283409469,2556.17299787 372.806637286,2556.19770925 372.799573857,2527.90529161 368.721172859,2527.93766565 "/>
  <polygon class="169827966" points="407.32626487,2569.42950349 405.041644073,2569.39627047 405.05845416,2563.22936471 399.648718266,2563.35392287 392.477497415,2563.58203601 392.486132386,2561.51142745 376.579557569,2562.03018642 373.806637286,2559.01636885 375.280440036,2558.01571945 376.289603201,2557.97359542 377.413254788,2559.12047913 378.826864025,2557.98250272 379.724400708,2557.89607977 380.714714716,2558.70349952 381.590159684,2557.76046548 382.650063197,2557.75749357 380.502105594,2554.89267641 380.292914922,2543.24276376 382.866211199,2543.138107 382.996052474,2537.16946191 386.040786575,2532.48348969 388.553219827,2532.792046 388.995247225,2527.90529161 401.604275767,2528.95914348 401.220687297,2533.89531614 400.148883533,2533.84438588 402.687136524,2539.15978266 405.432806144,2542.93589102 405.606286899,2547.87345682 407.322987346,2547.86229013 407.32626487,2569.42950349 "/>
  <polygon class="62300507" points="408.32626487,2577.7415722 419.41549999,2553.41414901 420.532686492,2553.8112405 427.070895603,2539.57722985 431.830498348,2528.36815044 442.697032735,2533.24817057 445.386164074,2527.90529161 456.461743251,2532.54223824 455.906583334,2538.09077075 458.752530183,2539.34932016 461.732036563,2545.15418283 455.139515828,2560.96251955 461.158959071,2558.59869083 483.158123402,2608.36479478 474.501470162,2612.09879828 471.294490215,2618.91683889 464.174757138,2621.06549969 454.611106182,2641.60413774 447.031834706,2647.94754726 439.186098515,2644.45885241 430.984470116,2662.037121 424.520465511,2659.04091219 419.7565508,2669.18027178 408.392783536,2663.48492356 439.188583332,2592.58766352 408.32626487,2577.7415722 "/>
  <polygon class="260573089" points="484.18011013,2569.62156303 523.857774583,2569.5113415 523.825403428,2527.90529161 509.740815811,2527.94588531 509.751298533,2539.95116011 484.158123402,2540.02074126 484.18011013,2569.62156303 "/>
  <polygon class="154862750" points="541.007033287,2566.69024139 530.802483206,2566.69708351 530.798849037,2563.75343756 524.88442962,2563.75808974 524.857774583,2532.29835898 529.979830264,2532.29813605 529.980781502,2527.90580069 540.975952209,2527.90529161 541.007033287,2566.69024139 "/>
  <polygon class="267429584" points="550.983209238,2528.1937344 550.828361334,2543.39009038 542.010109826,2543.49259503 542.007033287,2527.90529161 550.983209238,2528.1937344 "/>
  <polygon class="174286315" points="551.984946574,2528.07685332 551.983209238,2576.87381198 563.169145684,2578.05955891 566.598942733,2577.86844846 566.581906703,2527.90529161 551.984946574,2528.07685332 "/>
  <polygon class="79593891" points="1.41732362341,2694.05457624 0.0,2729.66955093 28.1708022002,2731.15440103 28.1507708671,2695.28162431 1.41732362341,2694.05457624 "/>
  <polygon class="385207180" points="30.2324778113,2784.48069896 35.3437626084,2784.4632214 35.3334909099,2771.4250369 35.3035112971,2722.40359932 35.2821051484,2694.05457624 30.1708022002,2694.07201893 30.2324778113,2784.48069896 "/>
  <polygon class="352964068" points="51.9187655491,2747.76295554 36.3437626084,2747.79529705 37.5168433681,2694.05457624 43.8657644441,2694.10567281 44.0288198224,2709.99628345 49.6981788578,2710.3910135 49.8411619578,2720.61826243 56.190075442,2720.66934343 56.235893749,2747.97537838 51.9187655491,2747.76295554 "/>
  <polygon class="27260176" points="57.235893749,2694.05457624 99.6392054033,2713.38485815 95.5595746581,2722.22050876 93.4540463479,2721.24868166 89.3548777105,2730.13210199 91.5145945202,2731.1134078 84.6160007367,2745.86658265 57.2597649549,2746.23070392 57.258831338,2742.20146633 57.235893749,2694.05457624 "/>
  <polygon class="221141598" points="130.221098995,2729.16630601 103.856253643,2725.9140564 100.639205403,2700.43587131 130.338084947,2694.05457624 130.347668676,2727.52826685 130.221098995,2729.16630601 "/>
  <polygon class="221132974" points="131.363960047,2751.86928024 131.347668676,2694.05457624 147.557532219,2694.19012869 146.946338376,2752.3876413 131.363960047,2751.86928024 "/>
  <polygon class="230115783" points="165.038679507,2694.07676213 165.904875384,2708.02853793 168.700116819,2707.99047895 168.506181698,2758.72358011 148.638356767,2759.33346593 148.557532219,2694.05457624 165.038679507,2694.07676213 "/>
  <polygon class="104671744" points="169.700116819,2777.9234969 172.569407509,2705.0909564 179.30893212,2699.64775302 205.169434996,2696.4127468 224.06803956,2694.05457624 224.195463586,2780.02899432 169.700116819,2777.9234969 "/>
  <polygon class="201855227" points="225.195463586,2694.05457624 231.56094781,2694.05533681 231.560934383,2704.77228166 225.930130823,2704.77793243 225.93283746,2702.93701018 225.198061175,2702.94155589 225.195463586,2694.05457624 "/>
  <polygon class="378699805" points="233.584101996,2694.30609128 268.893123505,2694.05457624 268.960621758,2772.49193871 232.56094781,2770.93289259 233.584101996,2694.30609128 "/>
  <polygon class="221109262" points="300.236071427,2694.05457624 306.158673974,2701.59086863 308.011533849,2703.94984667 303.989184344,2707.10242749 306.871759629,2710.77905382 300.854454794,2715.50078561 308.016159241,2724.61854172 304.107142139,2727.6829657 307.023294189,2731.39212747 297.235132284,2739.08370171 302.474203139,2745.60735394 297.54088979,2749.09532077 280.343653994,2727.22214315 277.37268002,2729.33777714 274.065385351,2725.08206992 271.998342849,2722.45462799 272.840386315,2721.85444242 269.960621758,2718.16531794 275.741211301,2713.27515583 300.236071427,2694.05457624 "/>
  <polygon class="54730864" points="310.154310069,2694.05457624 309.023696767,2729.4992777 309.016159241,2733.599287 324.92351006,2734.12813258 327.006171405,2734.19940526 326.620710818,2765.71175962 335.944500127,2763.29438122 358.420066522,2757.31863131 358.434500931,2713.09912578 333.805217923,2702.86177904 310.154310069,2694.05457624 "/>
  <polygon class="32606197" points="364.686973892,2924.62211928 375.774296433,2924.07624895 372.692079072,2869.15297265 371.191900321,2840.56571484 370.854755128,2812.08332619 371.343246626,2769.77205209 371.120021019,2730.05353742 375.770678122,2694.05457624 370.95072195,2694.06509644 368.097250051,2711.39333367 363.006728558,2742.37304738 359.939128413,2768.92111575 359.434500931,2834.36831004 364.686973892,2924.62211928 "/>
  <polygon class="266137445" points="384.771169496,2702.74254561 384.769879117,2694.06305792 376.774296433,2694.05457624 376.775590249,2702.73406303 384.771169496,2702.74254561 "/>
  <polygon class="31016300" points="427.130709537,2705.7412943 427.130318885,2781.46251244 425.039568586,2783.2042165 385.771169496,2778.64875458 387.529797753,2768.74092152 389.069150859,2698.36632013 392.963720907,2694.05457624 419.23790278,2702.61281944 427.130709537,2705.7412943 "/>
  <polygon class="326746325" points="435.483611055,2736.89244233 428.130709537,2706.28599738 444.646240892,2698.97046359 455.738777975,2694.05457624 457.922676516,2701.09031862 451.476418707,2702.98366614 457.909962084,2731.31997016 435.483611055,2736.89244233 "/>
  <polygon class="317776310" points="458.922676516,2694.05457624 458.931578276,2769.66879402 499.134362257,2771.06841824 502.606931371,2696.2861559 458.922676516,2694.05457624 "/>
  <polygon class="110960669" points="521.866243161,2706.64829109 521.361025759,2695.77085511 539.198959044,2694.40215117 542.718192297,2694.05457624 542.651337591,2700.89311342 543.227294211,2707.05739828 540.070314964,2707.33512945 541.311622442,2720.63557271 541.873518912,2720.58481983 543.208088357,2736.92310925 541.820591659,2737.03605899 538.569947218,2737.2875977 525.197760086,2738.40136736 506.075968336,2739.94781815 503.606931371,2708.06244065 508.035540833,2707.64016487 507.947362363,2704.81466824 510.224539455,2704.63868201 510.440815401,2707.37342052 515.372337389,2707.14328297 515.478089346,2703.17430695 516.210038119,2703.11561848 517.962282339,2702.97962074 517.824439674,2706.87478225 521.866243161,2706.64829109 "/>
  <polygon class="390545087" points="551.731660694,2694.05457624 549.642106706,2694.08248851 544.227294211,2694.16734822 544.271064645,2716.13010657 544.298861368,2726.20600415 551.722941006,2726.28516406 551.731660694,2694.05457624 "/>
  <polygon class="37901737" points="41.8029513909,3005.35586175 41.7892369003,2958.56448037 37.965708715,2958.56649835 37.959873757,2941.13799987 67.2860685649,2941.06494043 70.3953685842,2941.05406072 70.3955283442,2924.62211928 0.0,2924.8093504 0.0136118522845,3008.76276305 41.7941070286,3008.64466257 41.8029513909,3005.35586175 "/>
  <polygon class="131333240" points="79.4963891302,2925.14566802 80.9949841824,3053.46475967 72.3955283442,3053.92635849 72.5645400808,2924.62211928 79.4963891302,2925.14566802 "/>
  <polygon class="331035331" points="87.5253790738,2976.14969631 87.5649523218,2924.6304972 82.034595571,2924.62211928 81.9949841824,2976.15224477 87.5253790738,2976.14969631 "/>
  <polygon class="291847412" points="88.5927960874,2924.65834821 103.751181001,2924.62211928 103.747258095,2947.29135705 114.120731401,2947.26793799 114.118321825,2961.54002635 98.3448529564,2961.56682201 98.3419777865,2981.76901711 88.5649523218,2981.78867925 88.5927960874,2924.65834821 "/>
  <polygon class="381646628" points="115.189666163,2924.83852134 115.236876544,2962.70736153 115.120731401,2983.03728894 131.80291705,2983.11071771 131.633780928,2968.44567129 133.839415601,2968.46711928 136.538401259,2968.47417625 136.458101711,2959.54869183 126.903761496,2959.65551908 126.757818579,2927.10492514 123.200894828,2927.12481464 123.187801557,2924.62211928 119.522770086,2924.7179101 117.981616817,2924.76138142 116.220311602,2924.79038311 115.189666163,2924.83852134 "/>
  <polygon class="69675464" points="137.742186371,2924.90345327 137.538401259,2961.22451755 146.638319577,2961.26900201 146.608956883,2924.62211928 142.137502085,2924.7583238 137.742186371,2924.90345327 "/>
  <polygon class="105537829" points="147.638319577,2950.23525144 147.646764603,2924.62211928 153.960115482,2924.62402629 153.951669171,2950.2371584 147.638319577,2950.23525144 "/>
  <polygon class="286198280" points="168.418400505,2924.62211928 154.960575609,2925.15241686 154.960115482,2952.41631469 168.432966732,2952.37649271 168.418400505,2924.62211928 "/>
  <polygon class="330840122" points="169.442007554,2924.62211928 183.878322712,2924.63747597 183.869281389,2939.13047837 176.18431562,2939.12164756 169.432966732,2939.11511706 169.442007554,2924.62211928 "/>
  <polygon class="120392813" points="234.206211033,2980.3671488 184.896090524,2980.25267738 184.878322712,2924.62211928 234.197089623,2924.72941232 234.206211033,2980.3671488 "/>
  <polygon class="396521203" points="235.21014189,2924.62211928 235.206211033,2932.6068448 241.350195177,2935.29273504 241.578963402,2927.55438738 235.21014189,2924.62211928 "/>
  <polygon class="32132141" points="242.62554681,2974.8039678 242.578963402,2933.04115109 242.683481986,2929.70469595 243.579954038,2926.52927731 246.722486645,2924.79554684 247.586274096,2924.761074 250.81155819,2924.62211928 253.238491671,2927.19518486 274.140040212,2930.66633566 273.186730378,2936.8897541 274.743687745,2937.45300763 272.107371375,2944.67296429 268.822586469,2953.57237898 269.429840787,2974.83704484 242.62554681,2974.8039678 "/>
</svg>