<svg xmlns="http://www.w3.org/2000/svg" version="1.1" width="592.5px" height="1200px">
  <polygon class="bin" points="-446.2499995,1207.499999 -448.901649929,1206.40164943 -449.9999995,1203.749999 -449.9999995,3.75 -448.901649929,1.09834957055 -446.2499995,0.0 -150.0000005,0.0 -147.348350071,1.09834957055 -146.2500005,3.75 -146.2500005,1203.749999 -147.348350071,1206.40164943 -150.0000005,1207.499999 -446.2499995,1207.499999 "/>
  <polygon class="27475120" points="1.16643789001,1201.0 16.4509084251,1201.01790647 22.6611373693,1201.02383495 22.440867612,1482.55895372 1.0,1482.52322528 1.16643789001,1201.0 "/>
  <polygon class="52929522" points="23.6611373693,1201.0 38.3438357705,1203.45141512 51.5303986913,1205.71425702 50.4769395078,1227.8268197 38.6310025197,1228.10882011 39.3630939985,1242.06557097 35.3085135857,1239.72782213 23.7130515834,1235.6110711 24.9451981703,1227.19718715 23.6611373693,1201.0 "/>
  <polygon class="32013075" points="52.5303986913,1262.83197472 78.3498978317,1262.53753888 80.8982222535,1262.45487823 86.665248877,1262.20090191 86.7763761582,1258.90130517 85.5137701247,1206.70639254 85.5334612722,1201.0788443 85.1161681054,1201.06118912 73.0668820549,1201.05042287 64.0368468817,1201.0 52.5552812196,1201.08617734 52.5303986913,1262.83197472 "/>
  <polygon class="24380219" points="107.867204244,1202.14398801 107.908134781,1243.76001794 87.7763761582,1232.08381307 88.3706193184,1201.0 107.867204244,1202.14398801 "/>
  <polygon class="415472357" points="109.806275944,1201.0 108.908134781,1242.6558382 108.933651041,1327.77578171 120.473170636,1328.12659066 120.531809063,1215.63959019 109.806275944,1201.0 "/>
  <polygon class="35419213" points="157.164785821,1251.7082011 121.531809063,1237.00972608 142.619520687,1201.0 157.121958355,1209.58291688 157.164785821,1251.7082011 "/>
  <polygon class="45727594" points="172.011258522,1201.0 198.753346446,1204.7167172 193.687479681,1232.84188329 198.791835991,1267.15991899 188.670506486,1269.06145165 190.596708352,1281.34311609 177.165814368,1278.87384285 179.396205306,1267.5244099 158.164785821,1263.73735104 159.494181522,1255.04884298 163.215961373,1248.99076043 172.011258522,1201.0 "/>
  <polygon class="284527355" points="252.752064224,1265.74181819 199.829023001,1265.7081448 199.791835991,1201.0 252.704477462,1201.03647946 252.752064224,1265.74181819 "/>
  <polygon class="244328023" points="255.283679526,1201.18785137 253.752064224,1289.81151527 266.980904495,1290.14878108 266.71787195,1201.0 255.283679526,1201.18785137 "/>
  <polygon class="29184671" points="267.983737096,1259.13767953 267.980904495,1239.43276947 303.435456753,1201.0 307.866127795,1256.6986051 267.983737096,1259.13767953 "/>
  <polygon class="396521206" points="308.872503346,1201.0 308.866127795,1208.74133479 314.748151429,1211.44914501 314.741368705,1203.53550306 308.872503346,1201.0 "/>
  <polygon class="401848421" points="315.748151429,1201.02534524 338.770998018,1201.0 338.772542198,1222.73565015 338.776661065,1229.63153704 315.759093269,1229.64522502 315.748151429,1201.02534524 "/>
  <polygon class="7004981" points="392.14409576,1317.20797742 340.829905612,1317.25292561 339.776661065,1211.62852742 345.177654057,1211.04524173 344.9774895,1201.45975884 352.57662295,1201.38079864 367.746868494,1201.21317096 382.291877654,1201.06138672 392.272170042,1201.0 392.14409576,1317.20797742 "/>
  <polygon class="92916372" points="404.13813053,1237.25472437 404.790645972,1244.62086609 406.024191294,1251.06486954 408.440627158,1258.34209844 411.439831114,1264.37193762 408.961348148,1264.24064166 399.643704948,1263.69121371 397.202956722,1257.67724401 395.253671662,1250.93875581 393.585260662,1243.81526535 393.272170042,1236.14920945 393.8795344,1227.26110106 395.358127659,1218.39801358 398.543916562,1209.10336 402.671733509,1201.0 411.48091476,1205.7972006 410.726940881,1206.88337109 408.156151716,1213.11091842 405.611077356,1219.96382585 404.324685534,1226.02613312 403.965361204,1231.77925359 404.13813053,1237.25472437 "/>
  <polygon class="137280616" points="416.808449866,1260.03010777 412.48091476,1260.05170451 412.621977024,1209.55668823 412.554043466,1201.0 419.138774439,1202.11275845 419.167029044,1210.00948753 418.976686955,1217.34671777 419.621681825,1256.01703588 416.808449866,1260.03010777 "/>
  <polygon class="25041611" points="453.15326264,1201.08315583 420.651701581,1201.0 420.621681825,1261.16703407 453.132780444,1261.24514002 453.15326264,1201.08315583 "/>
  <polygon class="70130329" points="454.155240642,1201.0 457.606528236,1201.00808644 463.401342666,1201.02098518 463.404294076,1217.63099833 458.045191776,1217.615624 454.15326264,1217.60550622 454.155240642,1201.0 "/>
  <polygon class="33170620" points="515.475489868,1245.45218421 515.47507312,1239.15921841 515.495804279,1201.0 507.156000572,1201.00151387 473.574140896,1201.01674753 464.42668105,1201.0194145 464.408828765,1241.04734973 464.404294076,1247.21821308 464.406557199,1252.3176071 480.942480381,1252.31462028 480.941744928,1245.86647907 499.424667373,1245.86058796 499.426328984,1252.30211453 515.475605931,1252.29818213 515.475489868,1245.45218421 "/>
  <polygon class="268629251" points="516.495804279,1201.0 516.500262548,1217.57880438 522.349052369,1217.58338744 522.354666274,1201.00024529 516.495804279,1201.0 "/>
  <polygon class="326746307" points="523.379413775,1209.21786082 532.354272807,1201.0 536.163456372,1205.27884138 540.776518155,1201.06830006 575.916842795,1240.4411556 568.792430816,1247.42379118 571.935785784,1251.11144239 568.107060003,1254.8531359 544.679094451,1276.54478744 541.045608233,1272.66847863 539.101499274,1270.60810803 537.180425669,1268.48132097 533.073649319,1272.38903787 532.700333506,1272.73438271 523.354666274,1262.48300873 529.561228904,1256.61479691 529.2784695,1256.29863432 549.580101239,1237.13728976 523.379413775,1209.21786082 "/>
  <polygon class="187957721" points="19.9968988661,1546.48991802 10.6452048847,1519.50212148 0.0,1489.41199908 20.090927742,1482.55895372 19.9968988661,1546.48991802 "/>
  <polygon class="8084681" points="22.1021937908,1482.67911879 32.9640507,1482.55895372 32.9839877801,1489.69833428 39.0197961718,1489.78039846 38.6331158623,1519.30174756 33.6560763364,1519.23910334 27.017566067,1519.15207472 27.101293542,1512.99473655 22.090927742,1512.93424688 22.1381178038,1509.31693605 22.1021937908,1482.67911879 "/>
  <polygon class="222676082" points="65.3149028655,1483.32003197 40.0197961718,1482.55895372 40.1396489521,1603.50535266 42.5579973953,1611.06535074 49.3866537055,1608.46515134 54.0531641006,1604.29693172 64.8960822551,1604.04462077 65.3149028655,1483.32003197 "/>
  <polygon class="287236315" points="71.0174978495,1482.55895372 71.0706270329,1488.92924442 66.3193234458,1488.95044574 66.3149028655,1508.51540557 66.3179998626,1513.52124419 73.7231553156,1513.51202996 76.8913581003,1513.51608746 76.8953593569,1507.42791572 77.9782591044,1507.43192772 77.9747034596,1505.14768049 82.5929136022,1505.142289 82.5948512859,1489.33735604 77.3346707426,1489.33349676 77.3371878897,1483.93394432 71.0174978495,1482.55895372 "/>
  <polygon class="40755686" points="83.736912007,1483.27678641 156.042370954,1482.55895372 156.994144314,1575.30780574 135.865660767,1576.16681303 135.554479391,1591.95968648 131.70930883,1595.58009335 89.0641996771,1595.52476845 83.5948512859,1586.21462602 83.736912007,1483.27678641 "/>
  <polygon class="152859980" points="158.221101013,1482.55895372 158.223465011,1486.64287073 158.247900436,1553.99140745 163.122331496,1554.04217386 163.147442223,1571.0902311 157.994144314,1573.82487136 157.994769702,1577.36471391 162.2884087,1577.36788087 161.46200051,1578.10250762 161.87063717,1578.51121677 165.719851584,1581.66194035 168.485345627,1582.98766057 171.423777475,1583.81924237 171.24535893,1585.24460667 173.360703389,1585.12469365 173.35667214,1588.05349288 175.514244195,1588.05123181 175.492706799,1585.54004433 177.421883513,1585.35735612 178.72092218,1585.09705652 179.851869436,1584.78794108 181.579151019,1584.12942116 181.824020693,1584.03504834 182.986350649,1583.44239778 184.626792083,1582.39284685 184.661491255,1582.3872463 185.708095849,1581.54324252 186.642552533,1580.68147605 187.120664035,1580.22457552 187.79534271,1579.46591683 189.092037164,1577.64065573 190.399535861,1577.62581555 190.392575093,1574.04058045 190.386029407,1568.70217723 185.220811293,1568.69412434 185.199855889,1558.79280616 190.374578121,1558.86894125 190.371844159,1551.20087272 190.046618672,1551.20484428 190.044681417,1482.5614602 158.221101013,1482.55895372 "/>
  <polygon class="43963438" points="191.437745328,1482.55895372 207.481783163,1489.71040754 207.988191725,1512.7620244 204.543735811,1520.66240148 199.118523173,1519.4172862 191.399535861,1517.84263946 191.437745328,1482.55895372 "/>
  <polygon class="102424343" points="208.996595633,1482.55895372 208.988191725,1499.91532639 219.411071751,1499.92310294 219.424157748,1482.57864062 208.996595633,1482.55895372 "/>
  <polygon class="387753111" points="220.429302731,1482.55895372 220.424157748,1535.69030978 224.598539263,1535.69831186 224.607859765,1482.57216894 220.429302731,1482.55895372 "/>
  <polygon class="291847409" points="241.771582195,1482.5848535 225.607859765,1482.55895372 225.615091462,1486.95967271 225.613978649,1494.62343913 225.630378523,1510.51603819 241.794064697,1510.54196442 241.771582195,1482.5848535 "/>
  <polygon class="25333501" points="263.223427802,1483.73616938 242.889715338,1482.55895372 242.794064697,1539.72773212 264.332308098,1539.45331546 263.223427802,1483.73616938 "/>
  <polygon class="263378952" points="265.335349719,1482.56231302 288.385748656,1482.55895372 288.38270703,1507.8695639 265.332308098,1507.87292234 265.335349719,1482.56231302 "/>
  <polygon class="154384099" points="289.583565483,1615.91817332 290.676894438,1617.15846204 292.124437126,1618.13715664 293.293588264,1618.3743101 294.616931598,1618.43983712 296.1493447,1617.90544348 297.498387226,1616.80519356 298.248747695,1613.95909106 298.33675402,1501.83038254 298.202828328,1485.60487208 297.384582297,1483.92049093 295.798057215,1482.82166591 294.031216962,1482.55895372 291.983817506,1482.8070643 290.931203257,1483.38975061 290.193183655,1484.08661696 289.385748656,1485.78850672 289.583565483,1615.91817332 "/>
  <polygon class="442908145" points="308.917373887,1482.55895372 300.477386119,1490.35703652 299.33675402,1556.65100086 308.923808853,1566.27352491 308.917373887,1482.55895372 "/>
  <polygon class="42212725" points="309.923808853,1577.23305227 309.960666782,1483.98162745 329.618500841,1482.55895372 330.508485315,1576.92352386 309.923808853,1577.23305227 "/>
  <polygon class="40648291" points="331.508485315,1512.31380303 331.526751733,1482.55895372 361.026853103,1482.56746112 361.009378742,1512.31567836 331.508485315,1512.31380303 "/>
  <polygon class="224942682" points="362.026853103,1482.55895372 362.070042964,1574.90814319 411.60607485,1575.00133536 411.563100525,1482.65178575 362.026853103,1482.55895372 "/>
  <polygon class="267293561" points="417.313168872,1509.12165189 412.606538081,1509.11689029 412.60607485,1482.55895372 417.312711367,1482.56371395 417.313168872,1509.12165189 "/>
  <polygon class="104983987" points="418.313168872,1482.56360128 418.313684689,1498.02384343 423.766322323,1498.01812527 423.759213697,1482.55895372 418.313168872,1482.56360128 "/>
  <polygon class="309956834" points="431.564139626,1482.55895372 424.766322323,1482.56916888 424.774073453,1508.0654892 431.571888849,1508.05526609 431.641117733,1501.56275303 431.564139626,1482.55895372 "/>
  <polygon class="23597175" points="451.787061057,1556.50436639 451.839657424,1482.59649597 432.747876608,1482.55895372 432.641117733,1614.08012824 451.73466878,1614.12411242 451.744929332,1609.59775312 451.787061057,1556.50436639 "/>
  <polygon class="270646329" points="452.839657424,1518.92454322 452.84600291,1507.21614535 452.854039202,1501.68609918 460.901304402,1501.67951503 460.912220507,1482.56590403 472.686827068,1482.55895372 472.674081973,1507.66250179 480.448805038,1507.65515172 480.446738972,1518.90662612 452.839657424,1518.92454322 "/>
  <polygon class="42766851" points="484.483679927,1482.55895372 484.506631676,1518.10534071 481.474832945,1518.09756846 481.448805038,1482.5617011 484.483679927,1482.55895372 "/>
  <polygon class="242119706" points="505.229116749,1482.55895372 485.514548886,1482.56584398 485.506631676,1504.2478362 496.93522261,1504.50718117 505.210537114,1504.23846471 505.229116749,1482.55895372 "/>
  <polygon class="14343645" points="542.845259921,1538.92257888 542.833500807,1535.94387881 542.950155713,1534.37244497 542.847042808,1514.83719369 542.848619099,1482.55895372 526.988179885,1482.56790013 526.991399506,1525.95183868 523.692263907,1525.94701583 523.693234226,1521.48620155 506.229116749,1521.49981713 506.232670303,1538.96042695 535.48563944,1538.92906985 542.845259921,1538.92257888 "/>
  <polygon class="412127494" points="0.16342016235,1682.26071638 0.0,1622.2511445 54.1316977406,1618.43983712 54.1371135173,1681.98038284 0.16342016235,1682.26071638 "/>
  <polygon class="304515361" points="85.3549964979,1619.94683834 95.98922309,1669.95355568 56.1401432786,1685.68820855 56.1371135173,1618.43983712 85.3549964979,1619.94683834 "/>
  <polygon class="370263441" points="102.707579681,1629.8455354 96.98922309,1626.65412611 97.0033454429,1660.75839901 107.627264989,1666.31482316 107.912155374,1671.00327198 112.748404,1672.25558185 112.747220541,1663.0233553 112.717883246,1618.43983712 102.00165587,1618.88072863 102.707579681,1629.8455354 "/>
  <polygon class="84788974" points="113.748404,1809.32585471 157.508378089,1784.52338554 157.272394504,1618.43983712 113.86715635,1622.9740614 115.278429596,1698.88353447 113.748404,1809.32585471 "/>
  <polygon class="221991723" points="176.174540943,1618.43983712 176.179442526,1631.28260559 174.241255319,1631.281838 174.252241283,1645.31056565 167.772228407,1645.32453457 158.52723855,1645.28444409 158.508378089,1618.4456148 167.91131061,1618.44519294 176.174540943,1618.43983712 "/>
  <polygon class="33561450" points="197.228224313,1623.12467441 234.325867694,1693.33614949 226.347030886,1697.73746335 182.241501835,1719.71849459 177.183687884,1707.32950266 203.82846296,1698.07290093 192.103656376,1666.12955781 181.026115281,1633.97860413 180.430648879,1630.80028739 177.179442526,1623.93751184 188.806221354,1618.43983712 192.062012514,1625.30746973 197.228224313,1623.12467441 "/>
  <polygon class="237526794" points="235.470042291,1618.43983712 235.325867694,1653.21822232 246.525017197,1653.9425297 246.497374877,1619.37707955 235.470042291,1618.43983712 "/>
  <polygon class="376563136" points="271.608245671,1618.43983712 271.608650449,1664.25617751 267.271795199,1665.06712577 248.197990505,1665.89554226 247.525017197,1645.52756887 247.941682762,1634.3317073 257.903870319,1634.01135235 257.346869467,1619.2344057 271.608245671,1618.43983712 "/>
  <polygon class="47661069" points="284.800095867,1624.04924412 307.859407288,1618.43983712 318.744477625,1663.52498327 320.183582732,1669.49952796 272.614641625,1680.59929275 276.576771331,1675.41309257 276.135821432,1672.75328511 277.477825101,1671.18893446 275.288656064,1664.1010878 275.62046591,1662.74125418 272.608650449,1653.52756137 273.827647361,1648.76391566 281.449839724,1646.70729032 289.604289042,1644.59778734 284.800095867,1624.04924412 "/>
  <polygon class="38577619" points="326.404955476,1628.81649628 324.721921641,1618.43983712 321.183582732,1627.15362825 322.712541428,1641.83879224 322.4275574,1657.43036597 321.189187317,1676.26484623 325.425404799,1687.70952524 327.112629154,1671.77056222 327.668046558,1655.56087391 327.388426543,1642.33951873 326.404955476,1628.81649628 "/>
  <polygon class="176463777" points="328.729714402,1618.43983712 338.074090006,1618.45568056 347.765864754,1618.46360508 347.751892765,1636.13774572 341.840670651,1636.12996157 341.821172174,1660.56046429 372.065402103,1660.58349023 378.637932369,1660.58609523 378.616413874,1693.66731664 328.668046558,1693.62563985 328.698346186,1660.30358635 328.729714402,1618.43983712 "/>
  <polygon class="182868087" points="379.637932369,1652.00491934 379.786620378,1618.43983712 399.327663895,1618.63153384 399.330455851,1625.19979623 399.330334593,1639.32506429 399.335041157,1652.10074873 397.682835186,1652.02118957 379.637932369,1652.00491934 "/>
  <polygon class="186177757" points="401.446125888,1668.30755122 417.700909227,1666.71500675 417.745947485,1618.43983712 411.435865357,1618.60526383 400.335041157,1618.88662129 401.325849122,1663.17988335 401.446125888,1668.30755122 "/>
  <polygon class="363763439" points="452.884972101,1622.63873391 435.918165655,1618.43983712 418.802604641,1618.96010301 418.745947485,1714.76610302 455.203856244,1713.86398225 452.884972101,1622.63873391 "/>
  <polygon class="60001366" points="483.089319331,1619.8972437 457.236325735,1618.43983712 456.203856244,1630.42372698 469.823432772,1631.11416066 466.250707954,1710.59088795 478.025160264,1711.12887946 479.380749788,1697.27295317 481.583508158,1674.7830357 483.090370052,1653.45632786 483.095167388,1628.32874538 483.089319331,1619.8972437 "/>
  <polygon class="236682867" points="499.993470692,1619.16767447 501.294768538,1619.12204868 517.771775698,1618.92880041 522.424692422,1618.75564945 544.037904641,1618.43983712 544.751160112,1702.78002425 544.970467661,1756.98449509 484.095167388,1758.35864664 484.212972069,1655.76726734 500.373213811,1655.35714309 499.993470692,1619.16767447 "/>
  <polygon class="108754566" points="0.0,1851.95117874 0.0132930133492,1868.28321857 43.3809139095,1868.15797544 43.3817793243,1864.09174221 58.9645654667,1864.04533731 58.9548713526,1849.06069589 58.9477804223,1842.78730296 58.9236635534,1809.32585471 14.6213947317,1809.45092828 14.6249878334,1815.27163252 42.2524241181,1815.19199498 41.3981556801,1822.18025698 42.2865725163,1849.83383641 42.2827437093,1851.83576485 0.0,1851.95117874 "/>
  <polygon class="31309060" points="69.4705127949,1895.60163977 103.647660521,1895.50617841 112.071144184,1895.47887993 112.039023243,1834.9841076 106.062100036,1835.0026411 106.07038362,1852.97167818 70.6738542059,1853.06609621 70.6497000543,1809.32585471 60.9645654667,1809.35363891 61.0079770101,1893.1792443 66.7097757017,1893.16199208 66.7105417809,1895.60785328 69.4705127949,1895.60163977 "/>
  <polygon class="221141597" points="123.189831308,1950.60976151 131.041744371,1952.72477856 134.968000801,1940.04243649 136.687409996,1940.41331987 144.212721072,1910.20346911 141.338598539,1909.53029258 141.956460025,1906.93363625 123.359033471,1902.12935917 129.441612628,1876.28922503 148.375918857,1881.25749768 151.28614307,1869.59083134 152.649113053,1864.92608195 143.171899019,1862.5269465 152.606446812,1819.80503059 139.585893536,1816.13310991 131.57866723,1858.67622298 127.774074028,1857.09252368 128.557681176,1812.3154387 114.862423549,1809.32585471 113.071144184,1854.64664391 117.626077055,1872.60756568 123.189831308,1950.60976151 "/>
  <polygon class="14996037" points="153.649113053,1830.32547841 165.019750974,1830.19162112 164.989774178,1809.32585471 178.536461383,1809.54850577 178.54995523,1867.05223288 154.033211535,1866.27286034 153.649113053,1830.32547841 "/>
  <polygon class="28049352" points="197.844196962,1809.32585471 179.602782551,1809.65522924 179.54995523,1862.88432832 198.091950906,1862.54453673 197.8172124,1840.09439058 197.844196962,1809.32585471 "/>
  <polygon class="104543711" points="233.14659414,1817.60918389 214.566988999,1823.07798322 209.934564881,1809.32585471 199.149563182,1813.05936307 199.108346463,1852.33087483 199.091950906,1873.03482483 208.723176446,1869.68571754 210.04241229,1873.34230833 246.291456634,1862.40191527 235.321986548,1825.02694214 233.14659414,1817.60918389 "/>
  <polygon class="41981290" points="247.291456634,1854.74556345 272.988803316,1859.15446855 276.57681579,1839.06027659 279.628976516,1836.27922524 280.952403026,1830.02872373 274.122794029,1828.30059801 276.223329187,1817.40664514 270.816827644,1816.19509699 272.001227162,1811.23075787 264.565896489,1809.32585471 261.860501859,1819.82297348 248.368087451,1816.46758192 247.306911689,1821.1405495 253.748836239,1822.58392031 247.291456634,1854.74556345 "/>
  <polygon class="385207017" points="295.748433218,1823.68179436 300.772261997,1823.73756389 299.513369601,1820.96089691 296.858541503,1819.13813447 290.27168988,1818.88021009 286.899350718,1818.77285389 283.978091334,1819.55462452 281.952403026,1821.46686496 282.248916094,1809.32585471 284.371297639,1812.03302472 285.886056723,1813.36535272 287.265509472,1813.50092565 309.590264741,1813.08438097 309.576111749,1858.21566139 308.87327261,1867.42992672 304.895586564,1867.23657105 300.08724022,1866.98550613 300.349297549,1857.99485408 295.31951897,1857.94211957 295.748433218,1823.68179436 "/>
  <polygon class="282493551" points="310.590264741,1853.92432991 334.05210491,1855.26342935 334.046640054,1810.62328402 312.449851664,1809.32585471 310.590264741,1853.92432991 "/>
  <polygon class="380426999" points="349.249498161,1821.63055361 349.217913827,1814.48044725 348.642579511,1814.45556737 348.602433336,1809.32585471 335.081921343,1809.34473701 335.05210491,1832.74132781 348.718148055,1832.66861178 348.68790077,1827.45890605 349.29328075,1827.45509648 349.274549336,1824.86463562 349.249498161,1821.63055361 "/>
  <polygon class="215827362" points="355.641130981,1809.32585471 359.376730456,1821.22249154 359.358738039,1836.71512948 359.46145398,1887.05033715 355.870554709,1892.33596573 350.29328075,1888.1421685 350.297619656,1874.80739289 351.512787464,1849.30879532 351.560957786,1825.20967566 355.641130981,1809.32585471 "/>
  <polygon class="289151706" points="402.329295399,1810.1085848 402.504121452,1819.77017298 378.348164353,1819.56996652 378.100154716,1848.48271544 377.965327757,1864.20276369 377.918240136,1869.58404174 378.174783734,1869.58881053 378.165372653,1870.85551118 378.149394509,1873.3949559 398.425651055,1873.35393252 402.02426458,1873.35834646 401.970272517,1931.04227746 360.556057287,1927.28532815 360.583967842,1914.91521459 360.61021246,1911.67705824 360.621619055,1906.14279112 360.656633917,1883.5456684 360.610394791,1875.52136473 360.46145398,1809.32585471 402.329295399,1810.1085848 "/>
  <polygon class="69162075" points="403.525020973,1839.44514611 403.504121452,1809.35270128 425.957821646,1809.32585471 425.962175678,1815.06544411 432.337973808,1815.06006081 432.355086277,1839.40626117 403.525020973,1839.44514611 "/>
  <polygon class="207540686" points="433.371230048,1809.60150248 433.446582653,1815.01947302 433.355086277,1826.03864223 446.271089981,1826.03120962 446.248430208,1809.32585471 433.371230048,1809.60150248 "/>
  <polygon class="7428818" points="447.271089981,1814.61169827 459.669199776,1814.18176296 459.723597173,1809.38130315 464.396175554,1809.32585471 464.39669027,1869.11326121 453.657037273,1869.28870808 453.635853744,1862.84567033 448.429131013,1862.919071 447.271089981,1814.61169827 "/>
  <polygon class="41767261" points="503.449672548,1889.74939536 501.474636411,1809.32585471 465.406573035,1809.95040363 465.404125732,1828.4068882 465.39669027,1890.6537701 503.449672548,1889.74939536 "/>
  <polygon class="401848536" points="516.619075397,1867.29907858 504.467706206,1867.30658655 504.449672548,1809.33256658 516.59441016,1809.32585471 516.619075397,1867.29907858 "/>
  <polygon class="289597989" points="527.854631538,1809.40995431 530.070939385,1809.32585471 530.768020812,1832.00391754 517.619075397,1832.25166731 517.647779099,1809.69527955 527.854631538,1809.40995431 "/>
  <polygon class="48518677" points="531.776301604,1809.32585471 531.768020812,1818.91240287 540.709941906,1818.92769693 540.707523133,1809.34352081 531.776301604,1809.32585471 "/>
  <polygon class="88633441" points="574.205856619,1809.34378181 541.739215708,1809.32585471 541.709941906,1864.12574263 574.187381911,1864.13678198 574.205856619,1809.34378181 "/>
  <polygon class="37035368" points="0.0,1976.24617153 19.184930844,2007.69374566 19.2230029408,1952.73645554 0.0107740522362,1952.72477856 0.0,1976.24617153 "/>
  <polygon class="14669347" points="21.2230029408,1952.72477856 23.3755218612,1959.35040829 24.2103300843,1962.1248498 24.9647076685,1965.59348951 25.833947059,1969.54067525 26.7605270049,1975.00160548 27.0916488331,1978.75017265 27.5219983339,1983.53557805 27.644361986,1988.1956284 27.4240826868,1993.12666057 27.1653501533,1997.00051318 26.6853435921,2002.03651047 25.2036621805,2011.20103459 23.3765366001,2019.71771644 21.2265145453,2028.17414933 35.0705112489,2031.52985477 35.2181326587,2030.88530585 37.0555099281,2031.34038196 42.5745253948,2008.61517344 46.0833236119,1993.9809951 46.8832456175,1989.01826823 47.1929946242,1985.31369845 47.3226364857,1977.93626113 46.6475236619,1970.93638327 45.4180734109,1964.49475605 43.6519526539,1958.48523566 34.1550674096,1961.48350048 21.2230029408,1952.72477856 "/>
  <polygon class="385328466" points="48.3226364857,1952.74289652 48.3245842751,1957.87462369 52.9009967923,1957.85119119 52.8950033801,1952.72477856 48.3226364857,1952.74289652 "/>
  <polygon class="316688858" points="53.9303226452,2097.31797643 89.4032476442,2097.32511435 89.373300942,1952.72526567 53.9009967923,1952.72477856 53.9293237783,2084.05726584 53.9303226452,2097.31797643 "/>
  <polygon class="304841292" points="90.4499978075,1952.73126217 96.2000549919,1952.72477856 96.1533027204,2017.1699488 90.4032476442,2017.17644487 90.4499978075,1952.73126217 "/>
  <polygon class="315366969" points="97.2028104668,1952.72477856 97.2000549919,1990.12445464 113.487934848,1990.12650345 113.489623235,1952.73771037 97.2028104668,1952.72477856 "/>
  <polygon class="370330905" points="114.489623235,1952.75682201 129.56996325,1952.72477856 129.58238993,1971.70919319 114.502064364,1971.74124052 114.489623235,1952.75682201 "/>
  <polygon class="177434451" points="132.045862649,2022.51274667 130.58238993,2016.13066609 138.228402248,1997.0776895 139.98267528,1985.4844193 139.815991563,1967.89271527 136.764451215,1963.94737095 141.934337232,1952.72477856 180.31958939,1974.68064059 178.523458517,1979.02801978 173.201141073,1987.97316382 170.965425119,1986.64970077 152.788812501,2017.19967347 165.998186986,2025.03598693 167.546591081,2023.03735897 180.305032607,2030.11163167 171.985369316,2044.95408968 132.045862649,2022.51274667 "/>
  <polygon class="409588136" points="189.602754272,1953.71090399 189.598794233,1974.03392198 181.31958939,1969.61508425 184.977181049,1952.72477856 189.602754272,1953.71090399 "/>
  <polygon class="107105174" points="203.691211806,1952.73784659 203.690764154,1962.03753133 207.070506521,1962.04364948 207.07537888,1986.48064957 190.608255474,1986.45258749 190.602754272,1968.13002422 196.738728908,1968.14111406 196.733503773,1952.72477856 203.691211806,1952.73784659 "/>
  <polygon class="262676486" points="208.07537888,2022.9006603 217.759099438,2036.1028486 243.636984196,2042.26504445 246.451288151,2029.15029432 233.970202402,2009.97787561 230.386722991,2012.31413452 225.72976249,2005.16019923 229.43658709,2002.73864159 225.260368999,1996.32002401 246.458255779,1982.47581257 227.428649895,1954.20199236 222.326876453,1952.72477856 208.07537888,2022.9006603 "/>
  <polygon class="99252830" points="247.46792358,1952.75855462 251.867487926,1952.72477856 251.978501283,1970.98381457 247.458255779,1971.02076057 247.46792358,1952.75855462 "/>
  <polygon class="301660182" points="290.158136152,2002.55688928 278.75039312,1955.09470923 278.177165745,1953.8770068 277.066531831,1953.05607511 275.665223391,1952.72477856 274.347213094,1953.31539254 262.349554918,1960.24665605 260.039112669,1962.53993457 258.551449472,1964.11190209 257.55252617,1965.64443993 256.151152563,1969.53423802 254.178047201,1980.43226694 253.453176528,1986.50118717 252.99423622,1992.85091307 252.978501283,2010.79477321 290.158136152,2002.55688928 "/>
  <polygon class="334355485" points="291.205525728,1961.08316405 291.158136152,1991.08445817 297.816762389,1991.81866717 306.815623262,1992.79440573 306.990409024,1956.83070943 291.160290866,1952.72477856 291.205525728,1961.08316405 "/>
  <polygon class="238511439" points="307.990409024,1952.73004764 323.980627913,1952.72477856 323.980469497,2035.84685544 307.991739526,2035.86299389 307.990409024,1952.73004764 "/>
  <polygon class="353000417" points="325.074244946,2133.00453169 334.199935535,2133.12960608 334.803910112,2150.27920508 340.192781611,2160.73609193 344.402831319,2160.94758744 344.505163327,1953.17371575 324.980627913,1952.72477856 325.074244946,2133.00453169 "/>
  <polygon class="206427156" points="345.505163327,1952.72477856 345.545830781,1987.28567958 369.182868299,1991.52897438 371.01118545,1990.14768287 373.778521267,1988.05556559 375.031095511,1987.11958595 380.061292671,1959.18851582 372.254691661,1954.22141377 345.505163327,1952.72477856 "/>
  <polygon class="282584376" points="381.061292671,1952.72835565 389.704826707,1952.72477856 389.743436918,2027.7443283 381.099902902,2027.74790369 381.061292671,1952.72835565 "/>
  <polygon class="107615274" points="421.932880857,1952.72477856 420.537441217,1953.04337136 391.02061767,1971.93421241 390.743436918,1972.10820375 399.218297514,1988.59470148 413.033253387,2016.03480341 429.265839068,2000.88615737 423.140076648,1993.47048357 422.639355545,1994.35797733 420.274280259,1993.04317849 420.803328281,1992.09831882 411.084628299,1986.40437544 417.347448359,1975.76906324 414.691960013,1974.24704041 417.402400854,1969.68764666 420.095074865,1971.21957929 429.245553952,1955.90095862 425.576842113,1955.72588844 424.26395349,1955.64748634 421.932880857,1952.72477856 "/>
  <polygon class="106766219" points="430.756160672,2007.99043254 438.890356051,2016.92505656 438.969128715,1952.72477856 430.265839068,1952.9108142 430.756160672,2007.99043254 "/>
  <polygon class="108506697" points="439.969128715,2013.10790452 441.039084334,1952.72477856 463.547455006,1953.23520584 463.557413599,2013.47266323 439.969128715,2013.10790452 "/>
  <polygon class="295293328" points="464.570656216,1952.7535403 464.557413599,1980.70161884 488.610666691,1981.28851442 488.716709449,1960.5866356 476.955215872,1960.7091773 476.714566266,1952.72477856 464.570656216,1952.7535403 "/>
  <polygon class="19781397" points="490.456496482,1952.72477856 499.864306007,1953.36415108 500.052246968,2065.29533334 491.67442856,2064.93596058 489.716709449,2064.83168956 490.456496482,1952.72477856 "/>
  <polygon class="367643927" points="514.211747068,1991.21533224 515.377943589,1968.88814854 515.954631196,1955.30379344 516.111451734,1953.47045711 501.052246968,1952.72477856 501.782940869,1964.09690663 501.410265563,1975.82781045 501.250731134,1987.083568 501.087106198,1990.55612984 514.211747068,1991.21533224 "/>
  <polygon class="270730814" points="518.325989732,1953.66176458 531.576461609,1952.94217104 535.280858484,1952.7917959 535.827182946,1952.72477856 535.869240266,1991.82959029 535.885429494,2006.4235932 535.896130753,2015.76769493 517.111451734,2015.23237814 518.325989732,1953.66176458 "/>
  <polygon class="30978403" points="536.896130753,1952.72477856 577.670043257,1953.08939729 577.526215583,2006.07042493 536.929560028,2005.45701807 536.896130753,1952.72477856 "/>
  <polygon class="402756475" points="15.613567109,2160.94758744 0.0226999620907,2165.73738696 0.0,2218.96624678 28.8448929065,2210.68266439 15.613567109,2160.94758744 "/>
  <polygon class="7004979" points="30.8988577901,2167.60224328 80.7501341118,2160.94758744 90.3037458803,2235.37896593 78.3971642983,2252.01718375 69.1998326684,2252.90032477 54.463215893,2254.67555382 39.587777835,2256.53864382 32.100412308,2257.53741445 30.8448929065,2248.1821291 40.8512873293,2246.83958791 30.8988577901,2167.60224328 "/>
  <polygon class="265761732" points="91.3081743373,2160.94758744 98.5254436637,2161.1944853 98.990897936,2180.53538215 91.3037458803,2181.03443834 91.3081743373,2160.94758744 "/>
  <polygon class="282779521" points="112.306024906,2160.95800731 110.581803893,2160.95840314 99.990897936,2160.94758744 99.9987729313,2176.19269217 107.932595417,2176.19851677 110.139918554,2176.19902967 112.313889142,2176.20311545 112.306024906,2160.95800731 "/>
  <polygon class="50434006" points="138.380538478,2160.94758744 147.618223908,2181.36130256 148.0038684,2228.31246255 140.70894176,2228.46234941 113.313889142,2228.92299981 113.344752334,2198.24527083 119.095642338,2198.22800689 118.510599524,2169.51421356 118.53449782,2169.56735708 121.564316305,2168.20916014 138.380538478,2160.94758744 "/>
  <polygon class="213277461" points="149.0038684,2163.85466675 153.568039195,2160.94758744 153.56376783,2179.06531367 149.23350999,2180.86520495 149.0038684,2163.85466675 "/>
  <polygon class="337595232" points="154.568039195,2189.58400232 165.366126884,2189.59544754 165.370028172,2180.75198445 169.986806204,2180.75314939 169.971550707,2173.86686438 157.784131657,2173.86511868 157.792501708,2160.9605904 156.206151384,2160.95830673 154.871367214,2160.94758744 154.873983439,2173.85871835 154.578797805,2173.8874965 154.568039195,2189.58400232 "/>
  <polygon class="424766953" points="192.51625195,2251.78243567 170.986806204,2251.03732858 171.014063969,2161.5282757 192.509702035,2160.94758744 192.51625195,2251.78243567 "/>
  <polygon class="303254199" points="193.548457352,2201.69089209 203.152918512,2201.76732095 203.156920694,2200.55130601 208.101878159,2200.55789938 208.140260572,2171.68187501 208.185606532,2166.45542702 208.115687216,2160.94758744 193.51625195,2161.20562278 193.548457352,2201.69089209 "/>
  <polygon class="390401057" points="210.270571052,2161.15728493 216.591863953,2160.94758744 216.601782442,2261.36584716 209.185606532,2261.17007449 209.50441367,2229.38737928 210.165273245,2163.73418871 210.270571052,2161.15728493 "/>
  <polygon class="103302725" points="217.601782442,2206.41778881 217.620654218,2160.94758744 256.324896734,2160.98520331 256.305976481,2206.45541124 250.590327377,2206.44636402 217.601782442,2206.41778881 "/>
  <polygon class="26284445" points="257.414287163,2160.94758744 266.982183433,2161.05467126 291.487201616,2161.13757108 291.469050061,2185.03167826 291.01097801,2242.74248743 290.825886584,2265.20485519 275.819956671,2265.01764237 275.737383404,2276.18929574 266.642918287,2276.13045715 266.863969676,2249.61036529 274.794666422,2249.66772341 275.399712398,2174.42175874 257.324896734,2174.299493 257.414287163,2160.94758744 "/>
  <polygon class="395847363" points="300.529761467,2234.75594953 300.575173268,2232.89753729 301.533208712,2186.54111093 300.557598467,2164.54209855 300.294348691,2160.94758744 292.487201616,2161.3760176 293.849300156,2191.77342055 292.488804021,2234.34259945 300.529761467,2234.75594953 "/>
  <polygon class="415222778" points="342.474477589,2160.94758744 342.511266451,2348.03824156 302.993567328,2348.3231333 302.533208712,2314.457148 313.084933236,2314.32133291 311.421997893,2162.08307331 342.474477589,2160.94758744 "/>
  <polygon class="178409951" points="343.511266451,2198.15077559 343.55801354,2161.1141237 366.085968014,2160.94758744 366.212855113,2196.75962004 343.511266451,2198.15077559 "/>
  <polygon class="31264997" points="399.706147099,2160.94758744 399.70647975,2165.98294583 399.699534193,2196.96748532 379.102455196,2195.70853853 367.212855113,2171.46224808 383.029782391,2166.34802251 399.706147099,2160.94758744 "/>
  <polygon class="229376367" points="400.707235311,2229.55660949 400.70647975,2161.02161584 414.571221906,2160.94758744 414.495495107,2230.52224073 400.707235311,2229.55660949 "/>
  <polygon class="55596238" points="415.571221906,2160.94758744 432.404000655,2161.32027851 432.033738784,2208.05671763 415.619953364,2207.74646166 415.571221906,2160.94758744 "/>
  <polygon class="238015143" points="440.896713668,2186.52191293 440.878005906,2160.94934213 433.404000655,2160.94758744 433.425624717,2186.32159362 440.896713668,2186.52191293 "/>
  <polygon class="435776213" points="443.906818398,2199.81826701 441.937468578,2197.69582188 441.896713668,2162.94576501 443.885451615,2160.94758744 443.906818398,2199.81826701 "/>
  <polygon class="286770427" points="461.068421112,2161.05995383 461.098356883,2187.88936714 458.161511731,2187.71176962 446.927979276,2187.47346362 446.969258515,2184.90196589 446.880706586,2184.89999624 446.930077845,2181.37103972 444.906818398,2181.34419878 445.000304678,2175.77546227 458.322224337,2176.03215058 458.614638976,2160.94758744 459.780112589,2160.99827684 461.068421112,2161.05995383 "/>
  <polygon class="199793477" points="462.352021539,2161.15883375 462.098356883,2187.13108421 477.734978978,2187.83903971 477.708949067,2160.94758744 472.769380586,2161.02212199 462.352021539,2161.15883375 "/>
  <polygon class="178320506" points="478.734978978,2161.74662095 505.450615644,2160.94758744 505.400365301,2193.76976689 500.697216678,2193.9747243 500.744469869,2196.27132536 496.485559155,2196.38266665 489.574197402,2196.58045359 480.583978239,2196.82562868 479.532129464,2196.85424079 478.734978978,2161.74662095 "/>
  <polygon class="125542256" points="506.459139555,2160.97533975 528.498648903,2160.94758744 528.490109394,2184.43919329 506.450615644,2184.46698166 506.459139555,2160.97533975 "/>
  <polygon class="283006433" points="529.505184555,2234.60190098 575.312813645,2244.67006107 576.114119896,2240.42807365 576.328799631,2226.80095952 556.304245323,2160.94758744 538.933617647,2166.08229848 535.457266534,2177.64811691 540.706038842,2178.98682901 537.9922576,2189.38257727 533.488621449,2188.8799403 529.498648903,2208.9899537 534.772466806,2210.47678007 529.505184555,2234.60190098 "/>
  <polygon class="24315061" points="0.0,2355.05726817 5.43062156048,2433.18156752 6.21394400848,2444.11711167 33.0328525535,2444.24465966 32.8772968043,2440.78808704 43.1262498518,2440.77691916 43.138204382,2444.27874428 71.4886418793,2444.28597295 94.5387189534,2444.31935403 94.561156739,2348.3231333 0.0,2355.05726817 "/>
  <polygon class="409220216" points="96.5667156175,2354.55947835 96.561156739,2348.32515868 100.014088832,2348.3231333 100.018685552,2354.54466806 96.5667156175,2354.55947835 "/>
  <polygon class="170262103" points="101.018685552,2415.88027613 132.688630966,2415.38364603 131.674161773,2348.3231333 145.521662801,2348.88866563 146.422118295,2395.12148438 172.228820439,2396.8657316 172.235550571,2416.49020565 172.016141018,2431.47868597 101.850443131,2431.07573382 101.258902434,2422.69878627 101.018685552,2415.88027613 "/>
  <polygon class="45898997" points="198.509024346,2349.21377812 198.833223083,2396.62631491 173.235550571,2397.1742257 173.256437935,2348.3231333 198.509024346,2349.21377812 "/>
  <polygon class="131293452" points="202.202922965,2348.3231333 199.833223083,2348.39478484 199.960291347,2354.01588472 202.202145532,2353.97659047 202.202922965,2348.3231333 "/>
  <polygon class="53502429" points="203.202922965,2366.41701043 203.207269298,2348.3231333 214.065536495,2348.35257209 214.066985245,2366.43717515 203.202922965,2366.41701043 "/>
  <polygon class="326228580" points="222.104091098,2435.35272355 215.066985245,2435.34341649 215.123473023,2348.3231333 222.148998358,2348.32699912 222.104091098,2435.35272355 "/>
  <polygon class="78391425" points="229.655597439,2348.3231333 239.487484433,2349.54145038 243.572933373,2349.83317622 236.721040529,2406.60150008 262.161978103,2409.67784052 262.249141466,2408.89381481 286.630648561,2411.57171198 293.316665979,2415.26819218 290.45576727,2439.29990678 279.833744694,2438.94676245 258.626724453,2436.58897008 259.161726518,2434.08090668 253.960538894,2433.37786287 252.485954385,2442.95347568 237.238505228,2441.75314507 236.517426906,2443.71389253 225.739336682,2442.02931899 223.151486121,2420.0324408 223.148998358,2409.46854717 230.581844272,2355.70040742 228.719975696,2355.50093889 228.874439597,2354.22754775 229.279094615,2351.27856055 229.655597439,2348.3231333 "/>
  <polygon class="160618101" points="338.149974614,2348.36955613 338.148524265,2400.72810081 294.316665979,2400.68165184 294.318009121,2348.3231333 338.149974614,2348.36955613 "/>
  <polygon class="272638575" points="339.149974614,2348.3231333 339.308720272,2490.59060085 356.477929881,2491.44164028 357.848096494,2348.89463325 339.149974614,2348.3231333 "/>
  <polygon class="26256907" points="358.919189291,2349.07403834 394.844853878,2348.3231333 394.907098951,2403.94423984 385.112237844,2403.67931302 385.090535057,2399.70577221 358.848096494,2399.27694156 358.919189291,2349.07403834 "/>
  <polygon class="28100849" points="420.3323368,2348.34598661 402.482043278,2348.38961374 402.491630428,2364.57583481 395.907098951,2364.59450741 395.918233908,2380.98566217 398.835527578,2380.97366342 398.842268008,2398.89154153 416.630197212,2398.84128099 416.64538127,2420.25211214 429.601970854,2420.21922809 429.564089386,2348.3231333 420.3323368,2348.34598661 "/>
  <polygon class="11643367" points="456.347772986,2348.3231333 460.610964251,2356.82476684 476.811047919,2397.52835624 502.183095878,2438.41013657 502.022874976,2442.04642503 475.111922496,2483.59787936 468.948158882,2488.44009106 433.801389723,2500.67401973 430.606987574,2480.29285744 430.601970854,2425.7163352 431.045966695,2395.13955977 434.380181445,2392.45693261 439.522806626,2375.38944919 436.693756245,2358.78424274 456.347772986,2348.3231333 "/>
  <polygon class="213277311" points="503.183095878,2348.3272743 516.73256372,2348.3231333 516.73590572,2363.0377643 503.193088845,2363.04129215 503.183095878,2348.3272743 "/>
  <polygon class="201855205" points="520.818790458,2379.73271972 523.020818584,2361.1916774 524.026395107,2352.76562656 519.620908847,2352.23559983 517.73590572,2352.01366493 518.320907163,2348.3231333 529.701618691,2350.12005284 529.020484512,2354.43881472 526.119866623,2378.82570411 531.157545352,2379.41921526 527.935045398,2406.48364968 517.77551555,2405.27266011 520.818790458,2379.73271972 "/>
  <polygon class="221033295" points="532.168324496,2366.91399546 533.478730019,2366.90807492 533.487063367,2369.46694604 545.435178794,2369.43976277 545.427751217,2348.3231333 532.15906709,2348.35215153 532.157545352,2349.7336808 532.168324496,2366.91399546 "/>
  <polygon class="102687050" points="546.435178794,2383.89481077 552.72732276,2383.89772962 552.739341197,2348.32604345 546.447180316,2348.3231333 546.435178794,2383.89481077 "/>
  <polygon class="256251155" points="553.739341197,2534.23279231 558.804093036,2534.22396592 558.917893848,2348.3231333 553.853104483,2348.3318882 553.739341197,2534.23279231 "/>
  <polygon class="38095009" points="0.0,2534.23279231 45.1327393319,2543.74643796 26.6676628454,2591.67202494 0.0511292756069,2582.76024295 0.0,2534.23279231 "/>
  <polygon class="245181342" points="47.1359982829,2555.24483572 47.1327393319,2534.25054792 48.1118534186,2534.24690582 57.2566768949,2534.23279231 57.2599259899,2555.22707773 47.1359982829,2555.24483572 "/>
  <polygon class="222676935" points="85.3485086226,2634.62588628 60.6170568571,2635.4096974 60.5048411905,2630.8896863 58.2599259899,2535.69983505 85.470354638,2534.23279231 85.3485086226,2634.62588628 "/>
  <polygon class="124810758" points="96.4297485273,2563.27633362 96.3853222332,2534.23279231 93.2891089243,2534.48242802 86.5577496668,2541.1663419 86.470354638,2562.99009704 96.4297485273,2563.27633362 "/>
  <polygon class="223253487" points="133.86861968,2576.77212553 114.420298408,2576.8086806 114.408709096,2564.55561321 97.465180457,2564.59342959 97.4297485273,2534.25780302 105.746812789,2534.23616761 109.017309825,2534.23279231 109.026369989,2538.39483162 122.032946514,2538.36844006 131.435788976,2538.34944695 134.075804891,2539.50542164 134.571627505,2542.24638315 133.86861968,2576.77212553 "/>
  <polygon class="24856367" points="141.233819921,2629.46074161 150.027729865,2629.54704723 157.764236718,2629.77139973 156.684926505,2598.41033919 152.912425156,2598.66349458 152.217149934,2582.14547623 156.313606667,2581.83537293 156.038314414,2573.77203362 184.973650956,2572.55146875 183.466561044,2534.23832335 178.89542588,2535.35266444 175.881756318,2534.23279231 143.072975534,2542.57944936 135.611602982,2547.82618305 135.571627505,2588.33649329 139.337117603,2588.25585676 141.233819921,2629.46074161 "/>
</svg>