<svg xmlns="http://www.w3.org/2000/svg" version="1.1" width="792.5px" height="800px">
  <polygon class="bin" points="239.561004052,467.764466595 239.440700573,468.951590824 240.773471495,471.030599546 263.047083597,488.503620394 265.224190971,492.676636606 264.713618593,493.998508307 264.589232681,496.319142439 265.856101626,498.267438542 266.810950655,499.038327498 268.923209696,503.505079494 266.738401051,507.936797313 241.971988013,527.273298949 237.63855442,528.710436749 235.565343212,530.405308998 235.151237841,533.050930549 236.607400293,535.298237286 261.835772989,553.721816043 264.161833648,558.087186194 262.184008168,562.620972815 259.307804569,565.088045079 207.575489461,609.455216003 197.558950023,618.044378974 196.2500005,620.891091564 196.2500005,665.080651704 196.39753358,666.122156427 199.257758634,676.015405985 200.80617305,678.111315534 203.346437245,678.692247426 242.760819399,673.538414901 246.7651692,674.495164242 249.11410378,677.87639079 268.31830668,755.475166625 267.124182326,760.507693273 262.333783537,762.45816421 252.774528309,761.605972836 246.243755848,761.025625649 243.75834813,761.690884667 242.286674625,763.801334425 242.521515089,766.363495826 244.027898168,769.550280165 244.579931859,778.311311343 246.621584492,781.417549308 247.611004519,781.921110083 251.096207138,786.239846536 251.948124482,789.468699758 252.165136464,790.84502762 252.884409601,803.955425572 254.050780407,806.473310371 256.628778696,807.499999 596.2499995,807.499999 598.901649929,806.401649429 599.9999995,803.749999 599.9999995,3.75 598.901649929,1.09834957055 596.2499995,0.0 258.350346881,0.0 255.451212705,1.37144560052 254.672614428,4.48265544998 255.187036642,7.0649160049 254.132113811,11.6383972817 250.007348574,13.8780188818 236.593544504,14.8737239632 228.877223711,15.4503946186 226.029729796,15.6599353571 225.258821725,15.7161849443 221.45769456,14.6423937987 219.230136635,11.3805567636 218.180801846,7.28831413174 218.080176815,6.83193803147 217.383424084,3.06750965811 216.094298126,0.86713347672 213.696052807,0.0 200.0000005,0.0 197.348350071,1.09834957055 196.2500005,3.75 196.2500005,17.5983323892 197.026513553,19.8832558844 199.034467369,21.2219004888 212.13840449,24.7135653602 212.347848325,24.8815124864 215.099601084,25.6839056909 215.582632508,25.6313253636 243.532716115,33.0771901959 247.14131921,35.977211573 247.421829723,40.5981913543 247.075200924,41.530452116 246.594784903,42.8238185414 246.779311276,45.8524422592 249.144485969,47.7531158977 249.588493269,47.8714376204 253.195066958,50.7679765665 253.480423942,55.3848892828 241.004129121,89.0939212389 241.18930989,92.1167574734 243.547467382,94.0170006307 244.598049736,94.2994169318 251.434367991,97.9112375984 254.385376974,102.059508784 252.780390772,106.993202761 253.279539499,110.311197012 256.23400636,111.901593462 271.758583015,112.367274144 275.654570604,114.046848281 277.344482196,117.938363074 278.272305425,146.352270462 279.072645516,170.836410328 275.931347932,176.758979211 273.060290256,178.570153538 269.157544536,179.619003933 214.036135283,177.539935915 211.400739112,178.486879659 210.156163351,180.995474207 210.996451189,183.666790696 259.863474711,243.18862351 261.028561063,247.981640579 258.006423272,251.879989204 214.954465381,273.33796112 211.281505778,273.84632665 208.049318317,272.029177242 202.784925887,266.191218011 200.129014667,264.954750479 197.394362682,266.005652421 196.2500005,268.702530535 196.2500005,301.690622786 197.23880331,304.22800137 199.683755207,305.427264181 202.295482696,304.655966187 208.015399242,300.228159752 211.43921401,299.013071663 214.915924719,300.067315125 235.252907454,314.346093264 238.380758552,314.898580866 241.91294722,313.949568248 245.18870355,315.123266451 293.672350907,351.77545397 295.923527904,356.253183233 293.746126523,360.767247971 235.510738568,406.312168645 235.330608978,406.448337222 226.072996647,413.210592784 222.609064845,414.32963193 219.158650097,413.169584428 202.24770221,400.506598936 199.643880628,399.775269091 197.225297856,400.985718409 196.2500005,403.508321279 196.2500005,429.810245594 197.746369493,432.807518903 200.103312435,434.579689522 200.147475816,434.61317519 237.091212863,462.859988765 239.561004052,467.764466595 "/>
  <polygon class="262817506" points="-1.0,865.406568653 -21.5204178507,868.814494942 -39.0519161569,801.0 -13.4969015505,804.150013525 -1.0,865.406568653 "/>
  <polygon class="48992632" points="-67.0361050071,803.364041754 -64.8857589445,827.894838071 -57.8570173289,827.188694351 -57.0826889703,842.404564916 -40.0519161569,840.906310527 -40.2868258346,838.216821524 -43.5482331827,801.0 -67.0361050071,803.364041754 "/>
  <polygon class="421668892" points="-84.9124841618,801.0 -68.0361050071,801.012277616 -69.5200895334,823.283889724 -86.4590203722,823.326861449 -84.9124841618,801.0 "/>
  <polygon class="390545090" points="-87.4590203722,806.91778147 -105.373130162,801.0 -106.190997653,802.319836919 -107.90252525,801.755069477 -109.449945627,804.259690496 -107.747573096,804.81831927 -108.537779654,806.095185129 -90.6193323742,812.019107709 -87.4590203722,806.91778147 "/>
  <polygon class="326228580" points="-173.709832465,806.392061255 -173.471347198,810.322494555 -110.449945627,804.924290373 -110.684139171,801.0 -173.709832465,806.392061255 "/>
  <polygon class="363338078" points="-174.709832465,801.601962685 -183.042459809,801.0 -184.286824917,807.191617513 -187.986772297,806.921348433 -191.807601212,825.920049857 -179.774990641,826.792283176 -179.580356984,825.827912539 -178.142867844,818.690343536 -174.709832465,801.601962685 "/>
  <polygon class="168686799" points="-206.81696784,801.0 -216.605280862,804.560551347 -202.601262701,830.227244414 -192.807601212,826.660547118 -206.81696784,801.0 "/>
  <polygon class="23368377" points="-217.605280862,804.283565163 -260.517717798,801.0 -264.210942613,818.682161695 -221.293079542,821.959593838 -217.605280862,804.283565163 "/>
  <polygon class="285024629" points="-265.210942613,806.180486931 -272.646408014,808.341069772 -276.562209794,809.482741533 -286.282147756,812.312369288 -288.447532846,807.131879899 -267.371510067,801.0 -265.210942613,806.180486931 "/>
  <polygon class="47982816" points="-289.447532846,807.461607956 -289.667082395,805.712739386 -289.973473882,801.0 -304.255724515,802.74886793 -304.326049489,804.264553661 -304.953731706,809.069339973 -289.447532846,807.461607956 "/>
  <polygon class="219121421" points="-306.61008688,809.989982082 -305.953731706,808.338133816 -314.822512103,807.011742795 -320.107369515,805.875713555 -335.518667338,801.0 -336.933312645,803.775594898 -342.33764666,803.038711238 -346.627485618,810.14964029 -306.130937214,814.902543222 -307.169495695,811.8751772 -306.61008688,809.989982082 "/>
  <polygon class="57130378" points="-347.627485618,802.847919139 -351.609987562,822.35238406 -352.40236432,822.297130576 -363.059970468,821.511303286 -376.660088364,820.50446214 -374.663635535,810.718461415 -372.682353254,801.0 -347.627485618,802.847919139 "/>
  <polygon class="185569571" points="-411.416264969,851.7639972 -377.660088364,843.145766468 -390.218050305,808.402814756 -400.232935897,801.0 -418.672671482,805.186334193 -424.120202046,814.406095505 -411.416264969,851.7639972 "/>
  <polygon class="235326980" points="-425.120202046,806.520441379 -431.027721539,801.0 -435.169460354,803.708024899 -436.602939726,804.647543874 -435.300013412,805.86339206 -442.242437969,810.407472143 -435.017989052,817.149907409 -425.270053308,810.769770488 -427.884581927,808.325792016 -425.120202046,806.520441379 "/>
  <polygon class="221109262" points="-445.073493526,801.0 -452.00231227,801.724562995 -454.170650388,801.951756485 -453.900176948,804.794745626 -457.27712885,805.150886858 -456.875498735,809.406161302 -465.256494324,810.28423398 -464.994003527,813.047400135 -468.404776431,813.403541594 -467.757299037,820.329880861 -473.809859329,820.91321634 -473.275113271,824.247439635 -453.161292208,822.147431493 -452.847338677,824.161474382 -448.952779547,823.737788505 -446.53604957,823.486033135 -446.624728586,822.914978289 -443.242437969,822.552696196 -443.438348975,818.321978939 -445.073493526,801.0 "/>
  <polygon class="154862747" points="-477.595062746,805.330086975 -478.045062742,806.742739774 -478.677502643,808.72659592 -481.847832122,824.486900355 -474.809859329,825.11952404 -476.392284135,831.003539981 -509.995093151,826.470759198 -508.267690542,820.470047766 -513.055501994,819.74529468 -507.840983653,801.0 -477.595062746,805.330086975 "/>
  <polygon class="383094293" points="-524.174352249,801.497267408 -517.396387934,801.0 -518.164049509,810.319162755 -514.142223229,810.214797917 -514.055501994,834.372210634 -517.25818486,840.185958105 -534.310726949,841.063852617 -534.688953585,835.747373476 -561.577492835,837.779422405 -561.78113712,828.761056627 -523.135015566,825.053030585 -524.174352249,801.497267408 "/>
  <polygon class="379833799" points="-563.623379624,801.0 -562.78113712,803.837779357 -573.146776095,805.827910702 -573.66660247,803.899203159 -573.372299228,803.192829449 -572.728627508,802.707581444 -565.025777738,801.245695158 -563.623379624,801.0 "/>
  <polygon class="331035333" points="-604.562203646,829.907798429 -613.196283207,822.746863418 -583.301179187,801.0 -574.66660247,808.154781614 -604.562203646,829.907798429 "/>
  <polygon class="286535957" points="-629.011511729,804.744578953 -638.309576435,807.777074832 -633.897732817,816.978923966 -618.098158317,811.822449997 -619.160341214,809.600255895 -618.099311026,809.256491096 -614.196283207,807.979650493 -617.545959844,801.0 -626.765273383,804.01407904 -629.011511729,804.744578953 "/>
  <polygon class="30885242" points="-653.350014115,801.0 -659.988446298,805.855171763 -658.596504178,807.021395339 -647.273158011,816.357325769 -644.813788498,820.064692516 -639.642801375,815.620762965 -639.309576435,812.895480957 -646.327387549,806.94773911 -653.350014115,801.0 "/>
  <polygon class="335685329" points="-688.946632428,801.251759424 -691.525201194,801.0 -696.063132026,814.011670229 -693.091908736,817.554727568 -685.844516125,818.432816451 -683.745737099,811.733552416 -663.722721254,814.595015826 -662.340408557,810.216854254 -661.057996226,806.115015578 -660.988446298,805.500967984 -678.997229167,802.762316065 -680.467143951,802.541258985 -682.570105549,808.878230113 -686.912216727,808.215058571 -684.8092516,801.878087766 -688.946632428,801.251759424 "/>
  <polygon class="330713720" points="-706.46101222,802.589602961 -702.816399187,811.894001053 -697.063132026,810.304396946 -700.707750269,801.0 -706.46101222,802.589602961 "/>
  <polygon class="213279629" points="-707.46101222,810.294087615 -731.892476468,814.646473078 -733.941054123,805.346243576 -709.514943806,801.0 -707.46101222,810.294087615 "/>
  <polygon class="326742308" points="-67.0086237646,868.814494942 0.0,906.473274154 -21.180766963,928.825554575 -89.1206959657,891.043963129 -67.0086237646,868.814494942 "/>
  <polygon class="390164744" points="-91.3330004652,868.814494942 -91.1206959657,872.939912061 -91.8377809388,873.793235111 -91.8887942752,873.885320335 -93.0602656578,875.450769253 -116.127609957,877.427532471 -116.077401205,879.465686167 -115.813371928,883.136819234 -115.648688212,885.604705258 -139.790815856,886.200190266 -140.60019345,873.572230575 -140.633559906,872.860104872 -91.3330004652,868.814494942 "/>
  <polygon class="222676074" points="-181.523117336,887.948826521 -184.885559745,885.462650944 -177.09023095,877.463921403 -171.901516612,875.161908828 -165.07508185,873.142276799 -142.36349314,868.814494942 -141.633559906,871.484828258 -163.491180936,875.530230813 -172.797483494,878.746909922 -177.753594934,883.136082134 -181.523117336,887.948826521 "/>
  <polygon class="32401646" points="-185.885559745,872.345128991 -209.644427237,868.814494942 -215.834719565,888.721143288 -192.049145659,891.926349851 -185.885559745,872.345128991 "/>
  <polygon class="381724592" points="-216.834719565,869.416047007 -225.137849731,868.814494942 -225.765605351,870.969033591 -228.837378264,870.514800343 -231.803236164,880.483382347 -228.99982766,881.029690327 -225.827691106,879.924797807 -223.39636408,879.077713607 -219.404883986,879.329383544 -216.834719565,869.416047007 "/>
  <polygon class="106985783" points="-255.937979753,925.24690514 -272.188082219,918.905689813 -263.028831134,898.470177717 -264.334916048,893.761850124 -272.182535071,895.511358874 -272.525698335,893.356700763 -277.204148216,894.308187919 -280.440809077,879.035292864 -269.285876398,877.23053877 -270.430789557,870.52103001 -261.071110304,869.182811844 -258.506348979,868.814494942 -255.036374081,881.730147233 -251.48052758,894.958882401 -252.829716165,897.561660656 -255.92740696,903.528409008 -252.407916035,904.676333131 -234.793107106,910.440509817 -232.803236164,912.294377624 -255.937979753,925.24690514 "/>
  <polygon class="15373976" points="-281.440809077,868.814494942 -294.927588269,869.176586429 -295.131481309,874.767525749 -281.644692677,874.405434106 -281.440809077,868.814494942 "/>
  <polygon class="137308294" points="-317.122432433,868.814494942 -296.131481309,882.650316007 -299.583543897,885.72699193 -302.58135251,888.392216771 -323.577144034,874.556389604 -317.122432433,868.814494942 "/>
  <polygon class="381334983" points="-324.577144034,870.410765397 -367.437658565,880.8356442 -364.859617311,877.354544163 -328.755272745,868.814494942 -324.577144034,870.410765397 "/>
  <polygon class="397052761" points="-368.437658565,868.814494942 -424.162294352,869.133766734 -424.328658038,871.417788246 -368.599175891,871.098516397 -368.437658565,868.814494942 "/>
  <polygon class="395574464" points="-425.418895206,898.668011118 -425.328658038,895.222662518 -443.813459386,895.830665146 -443.776286575,894.534821195 -443.274596393,875.250713177 -425.580005895,874.673418663 -425.493738686,871.277207842 -433.837467858,871.553572161 -433.765695879,868.814494942 -453.922082374,869.477769194 -454.77829988,902.223906619 -425.484066173,901.265841415 -425.418895206,898.668011118 "/>
  <polygon class="315255106" points="-455.77829988,872.043610893 -457.005453109,870.275577725 -461.131216101,871.773494699 -462.166469722,869.784457443 -466.479803938,871.509517515 -467.457105,869.5204803 -471.640001567,871.067509217 -472.676572855,869.03549905 -476.928449059,870.717585995 -478.144569525,868.814494942 -484.691214837,870.625500936 -485.889177565,872.344422115 -460.828930945,874.695661097 -458.920040576,874.087899544 -457.674446672,873.559945087 -455.77829988,872.043610893 "/>
  <polygon class="48797950" points="-512.600967637,868.814494942 -500.995070835,872.792183691 -486.889177565,877.598559228 -516.721236944,922.470427187 -524.430428097,920.236037742 -530.691589551,918.124417302 -548.207646771,907.805718888 -535.946357421,904.527799758 -512.600967637,868.814494942 "/>
  <polygon class="385515297" points="-549.207646771,869.723054911 -602.126542647,876.132087851 -600.914578882,874.842914304 -550.446416421,868.814494942 -549.207646771,869.723054911 "/>
  <polygon class="223398421" points="-609.465518422,868.814494942 -603.126542647,879.066208016 -611.406940542,882.424106217 -614.680065031,877.586768682 -617.960713014,877.666572459 -621.07563452,873.424695446 -609.465518422,868.814494942 "/>
  <polygon class="281012946" points="-622.07563452,868.814494942 -622.601471683,876.296420305 -622.921389104,880.887464428 -634.80875438,880.967255317 -633.962981691,868.894285756 -622.07563452,868.814494942 "/>
  <polygon class="112598469" points="-644.775571101,868.814494942 -655.547361084,868.955658655 -657.941200405,883.912883418 -636.622141339,884.311824816 -635.911535629,880.396062087 -635.80875438,879.432465484 -636.081411797,879.401777695 -636.412454528,879.199238292 -636.550857566,878.824847282 -641.395385002,878.738921477 -640.787067734,873.828876474 -645.159875491,873.22739609 -644.775571101,868.814494942 "/>
  <polygon class="285188927" points="-664.941538346,884.024453759 -658.941200405,880.679243364 -673.362289644,868.814494942 -675.928293984,871.300382872 -681.978869268,877.42610381 -684.546005939,875.971398274 -685.949697947,877.334033834 -687.316132491,878.653703546 -688.678234003,879.979511391 -690.044669265,881.299181372 -691.411104888,882.618851488 -692.77803545,883.944659739 -694.144471791,885.264330125 -695.511403074,886.590138648 -700.680619829,891.064743417 -699.371509554,892.194136361 -697.608943646,892.009996201 -696.06514546,892.863178967 -690.168155131,889.542518302 -690.260899241,889.31541215 -687.962286884,888.050983382 -687.79008124,888.130777427 -687.218331311,888.824371837 -668.998857182,879.433229438 -664.941538346,884.024453759 "/>
  <polygon class="315366971" points="-701.680619829,870.92629899 -726.722309716,868.814494942 -728.88230492,878.57545258 -708.071017908,880.331197942 -706.607457171,873.731806644 -702.381855661,874.08786674 -701.680619829,870.92629899 "/>
  <polygon class="282493555" points="-732.809987298,903.834644052 -748.454542599,903.78551014 -746.892320414,885.54455795 -735.952260098,868.814494942 -729.88230492,868.814494942 -732.809987298,903.834644052 "/>
  <polygon class="307091580" points="-779.738212078,872.964150607 -775.138130972,892.889882579 -774.197920707,896.947467617 -762.84024896,894.860358664 -751.629438803,892.797804264 -752.67277785,888.285967661 -752.861356419,887.45726315 -749.454542599,886.831130887 -749.847523075,885.13075225 -753.249507573,885.75688443 -753.717950275,883.73730133 -754.264190153,881.367821257 -755.514757012,875.959760848 -752.059161954,875.327490596 -752.452140202,873.627113469 -755.913062115,874.265522184 -757.169790065,868.814494942 -762.095933031,869.71686078 -779.738212078,872.964150607 "/>
  <polygon class="69675464" points="-783.774222236,868.814494942 -780.738212078,888.872887737 -787.288582243,889.775424046 -790.182577909,869.514419972 -786.951336672,869.158317759 -783.774222236,868.814494942 "/>
  <polygon class="326297267" points="-0.292994766869,928.825554575 -16.9097435821,929.955419109 -16.6167681785,939.522428174 0.0,938.392562808 -0.292994766869,928.825554575 "/>
  <polygon class="137231892" points="-18.9097435821,930.36068079 -20.6086723085,937.256469983 -21.6716713933,941.57324816 -23.9914048825,941.346049273 -31.2036470604,940.627609575 -37.1364962285,940.038120621 -35.3030401803,932.442312227 -34.3745461291,928.825554575 -29.1845184372,929.341356963 -22.044252873,930.053655533 -18.9097435821,930.36068079 "/>
  <polygon class="47127803" points="-58.673325491,981.824922116 -132.395747824,960.137756024 -114.835278804,928.825554575 -38.1364962285,951.249281807 -53.2719531497,979.848337685 -58.673325491,981.824922116 "/>
  <polygon class="122666824" points="-151.342758412,951.997098498 -153.264297531,950.566148528 -156.30206344,948.312249107 -163.630196743,942.877098159 -161.656623876,941.384735075 -145.38695348,928.825554575 -137.756716785,934.641466973 -133.395747824,938.080656096 -147.145252497,948.729865319 -151.342758412,951.997098498 "/>
  <polygon class="326746325" points="-164.630196743,945.004093444 -172.331574462,928.825554575 -185.238972939,931.102578358 -193.909115519,932.630823655 -192.437707854,936.515881791 -187.781788883,935.196312151 -180.425167958,950.049150302 -164.630196743,945.004093444 "/>
  <polygon class="376562604" points="-194.909115519,941.421319249 -212.02187149,961.839613783 -222.068588574,957.139967396 -218.981121124,949.501511854 -233.506098995,942.715867608 -221.863888558,928.825554575 -194.909115519,941.421319249 "/>
  <polygon class="237803811" points="-239.550265541,928.825554575 -239.139516441,932.042278955 -234.506098995,936.842811864 -237.936099021,938.709004165 -243.882219143,932.527243197 -243.663352189,929.347351414 -239.550265541,928.825554575 "/>
  <polygon class="170766289" points="-259.568950636,944.703970406 -284.008531716,939.63416872 -281.183046398,932.428424952 -277.399373142,932.563455888 -274.6795223,928.825554575 -244.882219143,931.630514901 -259.568950636,944.703970406 "/>
  <polygon class="315766209" points="-286.799169497,928.825554575 -285.522886046,932.582682802 -286.875341462,932.944889667 -285.051635196,938.298185513 -285.008531716,938.482358574 -287.015671234,938.99804316 -287.225475889,938.365715635 -290.553500448,939.15152072 -290.458865647,939.654927128 -301.052049273,942.319297952 -301.001267255,942.528027486 -303.039739541,943.013016713 -303.220071827,942.374549887 -306.584380172,943.191050736 -306.454455512,943.676039988 -316.658207198,946.242185947 -316.622903695,946.463193757 -318.62088327,946.985017766 -318.840224107,946.291298792 -322.079466276,947.113938995 -321.918091026,947.568232861 -332.599708806,950.251022635 -332.55870694,950.521143376 -334.585664855,951.042967549 -334.810823977,950.361526574 -338.062577432,951.159610602 -337.942687452,951.589348176 -348.21605006,954.180052139 -348.094928926,954.474729401 -350.008337469,954.965858184 -350.275970082,954.272138783 -353.603511859,955.051805723 -356.419228242,946.30971611 -288.697090637,929.304404191 -286.799169497,928.825554575 "/>
  <polygon class="178320505" points="-390.909752159,944.510434995 -388.503508205,950.086740024 -386.839771423,949.589294214 -385.764599885,952.076523454 -385.207646432,952.18092568 -363.090549631,945.46847842 -362.766313834,945.222826253 -363.730587823,942.858424382 -363.362110088,942.723315716 -362.405183766,941.402935651 -363.200548954,939.400871249 -359.952397295,938.191034934 -361.862860675,933.357832098 -364.847118568,934.291309507 -365.301723221,934.236037817 -365.598368348,933.959679367 -357.419228242,931.404899313 -358.559459153,928.825554575 -392.321065762,938.700762911 -391.899208265,939.941305781 -390.277354012,941.102011841 -368.930922683,934.837885127 -368.446004687,935.955601633 -368.062581435,936.833807527 -367.736411162,937.583046169 -390.909752159,944.510434995 "/>
  <polygon class="98041061" points="-393.321065762,953.890218408 -424.05649964,928.825554575 -427.715059904,931.335701134 -396.877256517,956.62744958 -393.321065762,953.890218408 "/>
  <polygon class="392220427" points="-431.8408632,928.825554575 -453.760865139,929.660645555 -455.007044425,940.608938893 -428.715059904,940.940519429 -430.517755834,933.958908806 -431.8408632,928.825554575 "/>
  <polygon class="387222696" points="-456.007044425,929.488782273 -459.982617407,928.825554575 -469.079871324,952.769324135 -464.904041014,953.524668185 -456.007044425,929.488782273 "/>
  <polygon class="31611528" points="-470.079871324,941.664204971 -472.011168214,936.948716406 -491.626194438,932.939324481 -490.318527719,929.56234909 -496.895847414,928.825554575 -502.275929125,929.764967588 -501.731934358,936.635578554 -499.288972374,948.203264211 -470.079871324,941.664204971 "/>
  <polygon class="107166434" points="-516.163671233,986.728219874 -604.62663217,944.748301326 -595.852342607,934.380712646 -591.116224982,928.825554575 -574.712533,936.731680813 -503.275929125,971.51132768 -516.163671233,986.728219874 "/>
  <polygon class="30951622" points="-605.62663217,935.09009706 -608.761663329,940.666770745 -612.707239296,939.561262556 -630.235443996,934.500492932 -627.058588949,928.825554575 -605.62663217,935.09009706 "/>
  <polygon class="363338041" points="-631.235443996,931.251834275 -633.700894599,943.352527106 -666.47898277,940.926245158 -664.013481414,928.825554575 -631.235443996,931.251834275 "/>
  <polygon class="267293559" points="-671.852744086,928.825554575 -681.306523479,930.716245006 -676.932779502,947.609699043 -667.47898277,945.719006144 -671.852744086,928.825554575 "/>
  <polygon class="391245000" points="-692.393973716,928.825554575 -682.306523479,942.464771107 -684.778832382,943.64945621 -684.200851889,944.435154161 -683.194195928,945.883784886 -684.948477214,946.730865639 -686.562584778,944.502675081 -689.286339526,945.810125692 -689.225832876,947.67002045 -688.57360799,948.49254825 -688.997238683,948.713525877 -689.025707131,948.70738761 -684.007181278,955.244644111 -686.866317622,956.613478519 -687.457279903,955.809365014 -687.234804898,955.686599598 -687.201006656,955.686599598 -691.105276594,950.462932224 -691.848179464,949.450117995 -695.02492573,948.560069192 -696.502619345,949.272108229 -694.356065166,952.015914196 -694.014701792,951.856319202 -693.790206189,952.181647461 -696.381092331,953.458407499 -696.642710077,953.114664399 -695.944495312,952.783197848 -698.125850395,950.051668254 -706.500547037,953.863533307 -709.039150775,950.481347029 -706.98846194,949.49308587 -708.290715789,947.762094456 -710.491770036,948.817876425 -712.631984539,946.055656338 -712.440986575,945.963582346 -714.906027424,942.685748631 -711.854889384,941.212565208 -713.597159648,938.898439923 -692.393973716,928.825554575 "/>
  <polygon class="326686608" points="-715.906027424,942.101748625 -744.533259898,958.631028236 -758.01960338,944.164071254 -731.455251299,928.825554575 -729.955753879,930.433673517 -727.892884027,929.242928938 -715.906027424,942.101748625 "/>
  <polygon class="292395128" points="-759.01960338,931.447700193 -761.459266038,928.825554575 -768.514481422,933.062745651 -765.836761671,935.54979323 -759.01960338,931.447700193 "/>
  <polygon class="284699690" points="0.0,987.047424824 -28.3036171391,986.728219874 -30.6487245062,1009.91970766 -2.34502412109,1010.23891318 0.0,987.047424824 "/>
  <polygon class="51005746" points="-32.6487245062,987.526637769 -35.5946483725,1008.79528015 -58.9869332916,1007.99071927 -56.0414479923,986.728219874 -50.6965290566,986.906328478 -39.8390511493,987.280970719 -32.6487245062,987.526637769 "/>
  <polygon class="350667886" points="-59.9869332916,1018.3356241 -72.8281047775,1002.26478162 -74.9224849683,1002.05598976 -85.0762326888,989.927644709 -95.3136328253,986.728219874 -100.475095483,990.105731719 -98.6946947502,994.207874558 -81.2340590402,1004.72729766 -70.4930190849,1010.45065343 -62.6237319854,1020.03052496 -59.9869332916,1018.3356241 "/>
  <polygon class="357279445" points="-102.693151581,986.728219874 -101.475095483,990.933095322 -123.807979171,995.813207957 -125.026025307,991.608330923 -102.693151581,986.728219874 "/>
  <polygon class="220073283" points="-126.026025307,986.728219874 -135.109532465,986.7466406 -135.850578501,996.29472025 -126.76706042,996.276299511 -126.026025307,986.728219874 "/>
  <polygon class="29431840" points="-150.933228487,986.728219874 -136.850578501,991.859870679 -169.499364036,1056.27576574 -197.25012734,1046.01855344 -150.933228487,986.728219874 "/>
  <polygon class="12346063" points="-202.96860482,986.728219874 -198.25012734,1008.46630256 -217.774043167,1011.89088245 -222.492972602,990.158931225 -202.96860482,986.728219874 "/>
  <polygon class="164199806" points="-223.492972602,996.012056523 -230.15712612,990.172817222 -233.460931631,986.728219874 -238.725001879,988.846555034 -263.152841801,998.087412448 -264.927078745,998.756684104 -276.713995747,1004.50996573 -274.46335858,1009.02294722 -257.469411566,1007.78264467 -255.846843476,1011.11058545 -233.111124497,1003.07318011 -227.409806092,998.492659503 -223.492972602,996.012056523 "/>
  <polygon class="133039331" points="-285.004507618,986.728219874 -287.068266557,989.246058962 -279.777256517,992.599084454 -277.713995747,990.08738579 -285.004507618,986.728219874 "/>
  <polygon class="88633438" points="-337.816421413,1006.57906306 -336.660163009,988.159297597 -321.869388579,987.723218102 -302.37473275,987.152015407 -288.068266557,986.728219874 -288.971898256,1005.25239686 -337.816421413,1006.57906306 "/>
  <polygon class="291724727" points="-338.816421413,993.890783601 -340.9401225,1002.93759213 -366.039662742,1000.70964616 -388.522412921,997.235769734 -384.995350332,986.728219874 -352.635884424,991.742627824 -348.293177166,992.417762458 -338.816421413,993.890783601 "/>
  <polygon class="275251360" points="-392.418316482,991.153764577 -392.836178981,990.466301223 -389.522412921,988.944061068 -391.034030451,986.728219874 -395.165157889,988.508258476 -400.519001553,987.421821094 -434.751782492,1001.85241774 -437.499779281,1004.50406464 -435.280002161,1008.42015527 -396.531675181,992.712833391 -392.418316482,991.153764577 "/>
  <polygon class="32063597" points="-456.293577435,1013.30094469 -438.499779281,1012.76077326 -445.833329786,986.728219874 -455.177445468,987.268390221 -456.293577435,1013.30094469 "/>
  <polygon class="161202030" points="-458.632321389,986.728219874 -457.293577435,988.925477658 -527.75425522,1017.07864328 -529.092987885,1014.88138071 -458.632321389,986.728219874 "/>
  <polygon class="330713649" points="-531.127592907,986.728219874 -530.092987885,1001.75887546 -552.052683313,1008.0436464 -551.078176477,990.63164692 -531.127592907,986.728219874 "/>
  <polygon class="258350537" points="-597.534713518,1007.0155007 -606.04433946,1009.20009788 -607.549882637,1004.03929446 -604.080042882,1003.27836762 -606.345269143,999.314184949 -601.08115131,996.337980494 -598.111162079,998.424391792 -573.542890544,992.048565385 -569.125861175,988.575306129 -553.052683313,986.728219874 -553.557456104,992.625396518 -598.548733144,1004.14975159 -597.534713518,1007.0155007 "/>
  <polygon class="133039336" points="-623.611743293,986.728219874 -625.711192999,989.20920461 -610.537099158,996.001209795 -608.549882637,993.35441531 -623.611743293,986.728219874 "/>
  <polygon class="177201050" points="-626.711192999,1000.23248657 -631.449448727,999.022690391 -673.400392048,988.343326977 -679.733985757,986.728219874 -690.546393952,1008.4799833 -671.672514912,1013.28232558 -673.816826765,1017.59952226 -639.667251099,1026.29533101 -636.246013944,1019.41114861 -629.218415312,1005.2681876 -626.711192999,1000.23248657 "/>
  <polygon class="331734984" points="-691.913061513,986.728219874 -691.546393952,989.239571966 -696.705078838,990.424635591 -696.895276236,988.060648674 -691.913061513,986.728219874 "/>
  <polygon class="13523395" points="-699.958543852,986.728219874 -697.895276236,996.676765543 -720.586723599,1000.64759375 -722.547211171,991.631912926 -711.561605598,989.741628024 -710.717338899,993.012803045 -704.498654872,991.926502806 -705.524909198,987.747009516 -699.958543852,986.728219874 "/>
  <polygon class="215596650" points="-727.195023724,987.047590028 -723.547211171,1013.71502543 -744.037624903,1017.03156888 -740.7917429,1037.41604615 -751.338613008,1038.92077683 -752.793472748,1014.28620785 -752.946770985,1011.65754056 -750.91350317,989.768378381 -747.594879875,989.608693271 -748.051472418,986.728219874 -727.195023724,987.047590028 "/>
  <polygon class="130637647" points="-754.417573442,993.242690033 -773.080297802,993.334789069 -772.609480043,986.820318864 -753.946770985,986.728219874 -754.417573442,993.242690033 "/>
  <polygon class="249629285" points="-774.080297802,989.730792329 -774.914407847,986.728219874 -780.311165747,987.870302567 -779.477057431,990.872875286 -774.080297802,989.730792329 "/>
  <polygon class="399678304" points="0.0,1059.28458516 -1.58798426301,1060.85654008 -21.6874511104,1068.59350843 -24.4318861075,1064.12325949 -22.7251003557,1056.27576574 -19.0448228618,1056.5827881 -20.5122419001,1065.22240023 -3.02837432362,1058.92229871 0.0,1059.28458516 "/>
  <polygon class="203844130" points="-32.8121780993,1056.27576574 -46.361708294,1062.03037594 -39.9819245602,1071.82611633 -26.4318861075,1066.06536028 -32.8121780993,1056.27576574 "/>
  <polygon class="213278659" points="-59.5819035291,1056.27576574 -67.4901427981,1089.48664162 -49.5622134309,1091.17481226 -47.361708294,1081.93591744 -56.3085120237,1081.0887633 -50.7751696482,1057.83501753 -50.6061554627,1057.12291827 -59.5819035291,1056.27576574 "/>
  <polygon class="272988867" points="-72.6588627512,1056.27576574 -68.4901427981,1060.07655001 -68.5618138231,1061.72826436 -70.3893811494,1062.63701435 -75.4694422643,1058.22220924 -72.6588627512,1056.27576574 "/>
  <polygon class="219121423" points="-91.5303749166,1056.27576574 -94.7771324364,1059.4197959 -102.402219862,1078.59102751 -102.689027305,1079.91741741 -99.8263595547,1080.5990345 -98.7645579118,1082.39211746 -99.2532618237,1083.35006599 -98.4729788167,1084.56592385 -83.8193330087,1086.52480619 -83.2026050732,1084.35099947 -78.412419385,1067.35970358 -80.8169387393,1066.80704164 -79.6859190092,1064.72534852 -80.0542674117,1064.62095684 -79.8311579241,1064.13584257 -78.1636119001,1060.92426373 -78.0144857804,1060.63565152 -77.7445964259,1060.70319906 -76.4694422643,1058.21622177 -91.5303749166,1056.27576574 "/>
  <polygon class="312249567" points="-103.689027305,1056.27576574 -111.32174535,1056.53975097 -111.731037445,1073.8461431 -107.154692892,1073.69266311 -107.190446637,1075.26429828 -106.018217007,1075.22132388 -104.129226602,1075.15379268 -103.689027305,1056.27576574 "/>
  <polygon class="31701252" points="-186.103077021,1111.50481881 -206.984180634,1117.00502417 -207.899928234,1114.57412955 -211.320082394,1115.49492291 -212.821494422,1111.09353123 -209.848141299,1110.26481748 -211.630389409,1105.08996172 -211.504933958,1103.22382207 -215.139517977,1103.20540622 -214.965547289,1088.02461574 -214.980360239,1065.13989932 -211.115735539,1064.69792022 -211.086479812,1061.62248271 -118.226168838,1056.27576574 -118.095273892,1059.16090551 -116.553213175,1059.320509 -112.731037445,1059.16704411 -112.788834999,1067.47870567 -120.544652296,1071.28463815 -189.426007182,1089.46718908 -189.297657746,1103.04580218 -186.103077021,1111.50481881 "/>
  <polygon class="324109668" points="-217.223607123,1077.65582926 -219.254695458,1077.20759666 -226.463699496,1075.62343227 -225.033937209,1056.27576574 -221.88961523,1056.28190591 -216.139517977,1074.24803389 -217.223607123,1077.65582926 "/>
  <polygon class="25272085" points="-238.571146648,1059.63892014 -229.338293627,1056.27576574 -227.463699496,1064.89845351 -237.315401114,1068.27388445 -237.957581135,1068.51323323 -239.477950833,1059.74938873 -238.571146648,1059.63892014 "/>
  <polygon class="184341427" points="-274.954435158,1060.61582936 -273.656312608,1056.27576574 -240.477950833,1057.65697395 -241.666535999,1064.69806874 -242.506119077,1064.63054297 -247.321986102,1064.23152703 -247.750381788,1066.71770344 -248.987660123,1071.67778026 -256.243465471,1071.23579314 -277.741453867,1069.92210928 -274.954435158,1060.61582936 "/>
  <polygon class="211216779" points="-278.741453867,1056.37400053 -279.87016942,1067.29648537 -287.194830359,1067.20439018 -286.070436078,1056.27576574 -278.741453867,1056.37400053 "/>
  <polygon class="381753887" points="-291.505414643,1056.27576574 -298.377228885,1057.56504455 -295.066655225,1071.61819189 -288.194830359,1070.32891168 -291.505414643,1056.27576574 "/>
  <polygon class="384712897" points="-299.377228885,1064.3582498 -310.517017432,1056.27576574 -320.340195193,1056.93856607 -331.153105039,1065.08855803 -328.702471927,1066.53076346 -312.09681405,1066.45098188 -307.740887407,1070.04729059 -299.377228885,1064.3582498 "/>
  <polygon class="140518375" points="-332.153105039,1062.28052394 -335.959136874,1064.68120003 -340.305006167,1067.41956767 -346.476181878,1061.4148071 -338.329111494,1056.27576574 -332.153105039,1062.28052394 "/>
  <polygon class="361889903" points="-349.619829015,1056.27576574 -348.758260839,1059.84373493 -347.476181878,1065.1434913 -368.109002814,1068.91411882 -369.112344,1064.76888505 -370.92660891,1065.15577347 -371.988457122,1060.35958597 -351.724007673,1056.66265392 -349.619829015,1056.27576574 "/>
  <polygon class="177431906" points="-372.988457122,1097.54400875 -400.680509055,1106.73316244 -404.944535971,1098.60594803 -421.937326156,1065.56924227 -398.11392932,1056.27576574 -372.988457122,1097.54400875 "/>
  <polygon class="310847466" points="-427.969785615,1078.50095316 -422.937326156,1096.03554778 -437.275267534,1099.08691348 -441.910599379,1083.19771725 -443.028036169,1083.45557886 -444.26490436,1079.07807179 -443.174622403,1078.85704763 -449.015431942,1058.44302682 -439.02900812,1056.27576574 -438.322271878,1058.74386479 -435.592590808,1060.15596147 -427.247773124,1058.45530592 -426.028836415,1062.51968886 -429.610973221,1063.26871425 -427.305863173,1071.54483378 -440.214385001,1074.36289052 -439.221038938,1077.93611367 -436.514821715,1079.28067727 -436.242026871,1080.31826298 -427.969785615,1078.50095316 "/>
  <polygon class="14353777" points="-476.198600183,1056.27576574 -480.134456176,1056.30031415 -480.206301231,1068.6849932 -491.137591259,1069.20051033 -491.409981082,1104.91853278 -487.474761412,1104.78351602 -487.593755278,1101.02759564 -458.93573004,1100.12543846 -458.879570276,1102.34094022 -455.19335786,1102.3593516 -455.299735591,1095.24642622 -450.022820385,1094.99480425 -450.015431942,1089.68619565 -474.459257244,1090.64358617 -474.353792395,1074.2881745 -466.150993177,1073.90767361 -466.153422534,1058.34396949 -476.300067766,1058.41147763 -476.198600183,1056.27576574 "/>
  <polygon class="56643623" points="-504.672020196,1086.58390436 -492.409981082,1111.09193478 -497.228059488,1121.32357556 -500.71218137,1125.17195124 -517.828509881,1139.53432037 -527.378108323,1147.98602966 -532.370049643,1153.99490985 -535.022793193,1163.0051665 -546.479999561,1164.98153153 -557.503148908,1137.93850079 -639.451415686,1199.5311418 -664.41217833,1138.5952419 -628.965872184,1109.49611871 -606.798067194,1091.24858976 -621.463960226,1056.27576574 -524.604615573,1070.15931495 -515.881894042,1072.78626582 -504.672020196,1086.58390436 "/>
  <polygon class="31824307" points="-680.870791995,1098.84187059 -680.511438912,1097.14757243 -677.997972621,1097.3562903 -676.431974294,1091.97259788 -680.619163586,1091.56130106 -675.451423988,1061.56122342 -666.739898363,1061.91727059 -665.41217833,1058.28313443 -698.685084901,1056.27576574 -699.680941622,1062.13212664 -702.196782954,1076.61957169 -698.45393345,1076.85284424 -702.520959289,1098.03155405 -680.870791995,1098.84187059 "/>
  <polygon class="301904692" points="-721.679182595,1066.3011211 -731.961786249,1087.81299366 -739.199812324,1086.24134879 -741.321679087,1090.56337263 -752.279403225,1087.8682468 -749.185919492,1080.48888464 -735.814498787,1075.25211853 -730.981514264,1068.57877486 -738.101966375,1059.16120097 -730.808642235,1058.61480999 -703.520959289,1056.27576574 -703.646948706,1069.12516626 -721.679182595,1066.3011211 "/>
  <polygon class="246664702" points="-771.081696443,1056.63786033 -753.279403225,1056.27576574 -753.7472412,1066.22416474 -771.550056695,1066.59239681 -771.081696443,1056.63786033 "/>
  <polygon class="206197712" points="-75.6985510956,1202.67548215 -75.1803645245,1206.55063702 -41.4564088857,1202.84129699 -40.0357647467,1203.32031767 -2.65229788427,1221.31431211 0.0,1218.09013039 -38.3767529,1199.5311418 -40.8750041799,1199.5311418 -75.6985510956,1202.67548215 "/>
  <polygon class="69678189" points="-91.3766772044,1199.5311418 -98.8841802143,1214.87448569 -79.2598696137,1212.02562014 -77.6985510956,1209.44690618 -91.3766772044,1199.5311418 "/>
  <polygon class="74597706" points="-116.653348034,1201.13347504 -120.797081651,1201.13347504 -122.967119473,1202.3367599 -127.920301386,1199.5311418 -131.030515733,1199.5311418 -135.723565122,1199.93019029 -141.134551324,1202.73580848 -142.369247363,1205.14237861 -143.245643485,1209.55033221 -140.853361052,1211.95690361 -144.063588624,1219.57566958 -124.226334145,1232.51100611 -99.8841802143,1210.71064337 -116.653348034,1201.13347504 "/>
  <polygon class="338392698" points="-145.063588624,1199.5311418 -160.34631845,1199.58640006 -161.931289437,1200.83892056 -162.190044647,1203.18432693 -160.573896055,1203.20888616 -159.112317002,1203.23344539 -159.868263729,1216.59981391 -149.829212733,1216.51999632 -149.701021429,1212.33878359 -146.175226893,1212.28352528 -145.063588624,1199.5311418 "/>
  <polygon class="42050743" points="-166.706556603,1211.1510047 -163.190044647,1201.85143055 -203.580803815,1199.5311418 -204.655019484,1208.08183757 -166.706556603,1211.1510047 "/>
  <polygon class="272996518" points="-205.849155424,1200.9802428 -208.750487584,1199.5311418 -217.914835505,1199.77061187 -218.197097183,1203.35652318 -219.262656285,1216.92036446 -216.186711778,1216.87738259 -215.966470153,1215.83353736 -208.595034259,1215.83967762 -205.655019484,1215.68617098 -205.814714319,1203.22757772 -205.849155424,1200.9802428 "/>
  <polygon class="28665135" points="-220.262656285,1202.57711915 -239.627574214,1199.5311418 -243.309892598,1211.58609263 -244.611213657,1219.61863866 -244.31215522,1227.46081567 -232.275249082,1229.23559249 -231.131238037,1226.28172533 -229.355910438,1226.61334448 -220.262656285,1202.57711915 "/>
  <polygon class="25993123" points="-245.611213657,1199.5311418 -253.363491576,1199.5311418 -255.98548699,1222.75470482 -247.917749071,1222.67491978 -245.611213657,1199.5311418 "/>
  <polygon class="44647436" points="-326.064904865,1224.72583126 -325.598780954,1218.37190276 -324.561244001,1204.27048997 -324.21379949,1199.5311418 -256.98548699,1205.0440107 -257.571669481,1210.21923385 -258.48729818,1218.3350684 -259.249359993,1225.05734065 -326.064904865,1224.72583126 "/>
  <polygon class="183383759" points="-327.064904865,1218.35906748 -364.017334425,1217.99675554 -367.29524813,1199.5311418 -374.569548734,1200.34173686 -373.685346943,1216.73787516 -373.813219556,1225.56232218 -328.310871301,1225.11403767 -327.064904865,1218.35906748 "/>
  <polygon class="103502110" points="-378.521633952,1205.4253477 -417.724006812,1205.72005806 -421.054901615,1199.62323875 -378.193151729,1199.5311418 -376.096887837,1200.54420825 -375.569548734,1202.55806179 -376.675646543,1204.70085141 -378.521633952,1205.4253477 "/>
  <polygon class="441045982" points="-422.054901615,1252.52048215 -434.398558653,1199.5311418 -461.287184214,1204.47336634 -450.76268409,1245.88375647 -434.150482031,1242.56846463 -431.859767256,1253.93255188 -422.054901615,1252.52048215 "/>
  <polygon class="444929792" points="-462.287184214,1202.74148585 -510.219112093,1257.79010966 -517.796116861,1254.21758927 -470.569855984,1199.5311418 -462.287184214,1202.74148585 "/>
  <polygon class="267293562" points="-534.349849083,1199.5311418 -518.796116861,1214.03697745 -528.885990797,1219.59253878 -545.134925875,1205.02530955 -534.349849083,1199.5311418 "/>
  <polygon class="273377988" points="-548.289588922,1199.5311418 -551.126919242,1200.03453566 -550.305589897,1203.80385129 -550.066195065,1204.89044573 -548.967430121,1209.93052625 -546.134925875,1209.42713201 -548.084594101,1200.80190439 -548.289588922,1199.5311418 "/>
  <polygon class="179245507" points="-552.126919242,1203.20177296 -562.194971565,1218.11142095 -572.063762084,1214.74155665 -561.821448514,1199.5311418 -557.003469722,1201.31121364 -552.126919242,1203.20177296 "/>
  <polygon class="230103543" points="-573.063762084,1219.1263987 -575.01906191,1199.5311418 -582.502381547,1200.56247037 -593.282848453,1202.04807477 -598.39186236,1202.747905 -604.830103795,1203.63803999 -611.888230912,1204.60798026 -607.899561918,1223.73055171 -573.063762084,1219.1263987 "/>
  <polygon class="418102389" points="-612.888230912,1200.28029932 -619.712979736,1199.5311418 -621.334063864,1205.78230997 -620.165528584,1205.91126337 -614.508818202,1206.52532721 -612.888230912,1200.28029932 "/>
  <polygon class="283399120" points="-622.334063864,1199.5311418 -622.396071382,1200.58718216 -622.484842733,1202.20808147 -626.136190099,1202.26333941 -625.985410004,1199.58639972 -622.334063864,1199.5311418 "/>
  <polygon class="396091639" points="-757.405315324,1199.59868963 -756.25899359,1202.00584878 -627.136190099,1206.88771628 -628.994658353,1204.14895768 -753.747206251,1199.5311418 -757.405315324,1199.59868963 "/>
  <polygon class="113631711" points="-97.2005230116,1273.66544228 -87.303898511,1274.35914442 -89.4576275897,1278.9940579 -47.5742855221,1282.50554312 -5.54922925187,1285.75919286 -1.93943057726,1280.14204335 -0.432468212117,1278.35560614 0.0,1276.00438504 -2.45184514867,1272.83668313 -5.64116793349,1270.06801408 -8.42545339158,1268.85250102 -11.6627942083,1268.04215905 -15.4439969839,1267.26865085 -122.113845883,1257.79010966 -124.497044647,1258.53292254 -125.821652691,1259.26345757 -126.706174263,1261.0560311 -128.488862506,1268.79111148 -128.40412953,1272.62181966 -131.158940439,1275.32296073 -122.729556157,1276.06577462 -102.303292588,1277.86448943 -100.546005857,1277.51456878 -98.0254100755,1275.55624112 -97.162909706,1274.8072883 -96.9701496571,1274.2179484 -97.2005230116,1273.66544228 "/>
  <polygon class="15240407" points="-154.112607009,1281.57563088 -158.552958803,1261.60488171 -137.603663304,1257.79010966 -133.158940439,1277.76699596 -144.389560134,1279.81260136 -154.112607009,1281.57563088 "/>
  <polygon class="327633464" points="-167.98623279,1257.79010966 -159.552958803,1273.34763858 -166.221779071,1275.76660884 -167.818405077,1277.16641924 -164.656456006,1283.06649898 -169.596391121,1287.38872351 -187.781774816,1275.1035408 -167.98623279,1257.79010966 "/>
  <polygon class="387212518" points="-192.111564571,1257.79010966 -194.238810964,1263.54420972 -190.909018762,1264.12760314 -188.781774816,1258.37350282 -192.111564571,1257.79010966 "/>
  <polygon class="110372104" points="-237.035018704,1279.70898593 -220.283078803,1290.96314603 -195.238810964,1269.21616351 -213.087740178,1257.79010966 -237.035018704,1279.70898593 "/>
  <polygon class="25046604" points="-247.0232526,1257.79010966 -256.799033605,1266.10195587 -247.810795086,1272.32663593 -238.035018704,1264.01478572 -247.0232526,1257.79010966 "/>
  <polygon class="378342755" points="-257.799033605,1257.79010966 -299.23899974,1259.15342215 -299.380901346,1266.18492354 -257.932264433,1264.71721245 -257.799033605,1257.79010966 "/>
  <polygon class="27800178" points="-343.112306313,1295.85033122 -351.480522299,1268.79072995 -303.422941402,1257.79010966 -302.184780914,1262.00128351 -300.380901346,1267.9681386 -311.263277973,1270.47274526 -309.512344172,1275.96692087 -313.284674495,1276.80179022 -317.976601409,1283.30886199 -316.171384314,1289.7299945 -318.71330352,1290.28248215 -343.112306313,1295.85033122 "/>
  <polygon class="42857216" points="-382.558927067,1289.2395051 -386.945224831,1285.9416446 -391.45057196,1282.5639485 -360.37136158,1257.79010966 -352.480522299,1263.71027906 -356.339234588,1266.84846123 -373.003795928,1280.01532383 -371.971200833,1280.79526434 -382.558927067,1289.2395051 "/>
  <polygon class="154928828" points="-434.429994273,1257.79010966 -412.866710773,1260.77956088 -392.45057196,1262.69477435 -393.12793831,1268.13349107 -403.31911806,1267.29251554 -412.983465005,1266.32876992 -422.692532309,1265.08879159 -435.735870242,1263.06308467 -434.429994273,1257.79010966 "/>
  <polygon class="242099998" points="-436.735870242,1260.22857162 -445.772620165,1257.79010966 -459.939269725,1284.37981142 -449.164673919,1287.19909691 -436.735870242,1260.22857162 "/>
  <polygon class="168619633" points="-460.939269725,1258.84596551 -476.412387433,1257.79010966 -478.889069358,1271.14178159 -468.128199945,1271.89070337 -467.395575251,1268.09084661 -462.705458828,1268.37322688 -460.939269725,1258.84596551 "/>
  <polygon class="115727321" points="-517.163777058,1344.04979183 -536.570579799,1343.64446948 -533.612846734,1335.91264092 -530.032028466,1327.17365357 -531.910509715,1325.9699706 -512.306442587,1281.69171006 -500.843867036,1257.79010966 -480.952537776,1265.54645668 -482.957415685,1268.51266186 -479.889069358,1269.82074014 -486.591753117,1278.14822748 -494.905884929,1293.45828999 -498.137884728,1313.12250419 -504.740113477,1312.78473636 -507.247140463,1328.88091838 -514.514686913,1328.88091838 -517.163777058,1344.04979183 "/>
  <polygon class="98847439" points="-537.570579799,1261.60989675 -553.751163075,1257.79010966 -560.355218672,1270.29346835 -560.624642206,1270.21977465 -561.22502691,1271.36202706 -564.448945451,1270.48384375 -563.854392561,1269.35387369 -568.78898991,1268.00282266 -569.942603366,1270.1829278 -576.536228118,1268.37743225 -575.36994805,1266.16048058 -589.596720329,1262.26085736 -591.963542602,1261.59761447 -597.15243047,1271.67522533 -546.805493701,1284.94009977 -542.774508008,1274.54313916 -547.325051567,1273.22279331 -543.2328417,1265.15947482 -539.300955571,1266.18504514 -537.570579799,1261.60989675 "/>
  <polygon class="245954291" points="-601.599701611,1257.79010966 -598.15243047,1261.60386867 -602.328884042,1263.86387454 -600.875492297,1264.82192063 -602.671156709,1267.10035103 -604.49601076,1269.44019505 -608.349697193,1264.57012646 -604.673700821,1262.1074569 -606.195749974,1260.09924542 -601.599701611,1257.79010966 "/>
  <polygon class="222374234" points="-609.349697193,1276.82812574 -652.998975536,1302.9279848 -659.845780787,1295.81708706 -660.534751887,1295.10538396 -647.767541633,1287.96994908 -668.21118921,1268.61901319 -663.373675368,1265.77834243 -649.793004986,1257.79010966 -626.27586747,1279.35589539 -614.564500534,1272.50269583 -609.349697193,1276.82812574 "/>
  <polygon class="316133668" points="-669.21118921,1265.08713261 -670.219058785,1264.71890595 -678.431985324,1261.71785909 -685.000939298,1257.79010966 -693.623313392,1258.82114377 -693.452813656,1263.31964475 -684.63564966,1267.67699372 -675.1877426,1271.51882657 -672.687667137,1272.17549779 -669.21118921,1265.08713261 "/>
  <polygon class="131981028" points="-696.402279048,1275.65564138 -694.623313392,1271.76328633 -753.403080457,1257.79010966 -753.514773649,1261.84822312 -696.402279048,1275.65564138 "/>
  <polygon class="400484709" points="-92.856926751,1373.68009364 -91.765827152,1375.99429243 0.0,1346.35784688 -1.09161834698,1344.04979183 -92.856926751,1373.68009364 "/>
  <polygon class="136086635" points="-133.174386977,1344.04979183 -96.4577348252,1346.1181455 -95.0467167284,1347.16152878 -94.856926751,1348.32152559 -98.9158435892,1367.40318113 -103.120584735,1369.93799308 -119.928517364,1368.86392016 -138.701403976,1367.26201728 -133.174386977,1344.04979183 "/>
  <polygon class="213965006" points="-154.893460436,1345.92240911 -150.867911534,1345.8978502 -150.601889715,1344.04979183 -143.280622547,1344.18486586 -143.478276126,1346.49954367 -139.701403976,1346.44428611 -140.432642888,1355.15042542 -144.199985431,1355.44513264 -144.230082576,1354.74520301 -154.446312524,1355.64160412 -154.893460436,1345.92240911 "/>
  <polygon class="316133661" points="-155.893460436,1346.30211045 -156.45271983,1346.23460226 -175.167583004,1344.04979183 -176.790247865,1349.94755341 -157.515612512,1352.19373595 -155.893460436,1346.30211045 "/>
  <polygon class="179084757" points="-177.790247865,1347.54439387 -193.061343895,1362.15540268 -199.618687844,1357.90537237 -184.056754819,1344.04979183 -177.790247865,1347.54439387 "/>
  <polygon class="337620056" points="-201.096556897,1344.04979183 -201.118710793,1344.2032877 -200.618687844,1344.17258853 -200.670996914,1345.46809371 -201.242475492,1345.48651322 -201.728539757,1350.68695478 -201.792171025,1351.35005728 -212.896284274,1351.39917599 -212.48632614,1345.4128352 -212.386711282,1344.12960968 -201.096556897,1344.04979183 "/>
  <polygon class="295548381" points="-283.054381458,1360.34261357 -240.986272719,1344.82944033 -239.034181638,1344.04979183 -213.896284274,1389.83426914 -259.09777845,1406.9866076 -261.024132766,1403.26637765 -282.072557043,1364.92228757 -284.310071466,1360.81531443 -283.054381458,1360.34261357 "/>
  <polygon class="27908240" points="-285.310071466,1344.66978159 -303.771914533,1344.04979183 -312.198749045,1416.72384297 -293.205659258,1417.11057142 -285.310071466,1344.66978159 "/>
  <polygon class="204912044" points="-326.042993958,1346.03830367 -324.307943864,1356.80941474 -313.198749045,1354.71042829 -315.589643522,1344.04979183 -326.042993958,1346.03830367 "/>
  <polygon class="47450332" points="-331.319648417,1344.22777048 -327.042993958,1344.04979183 -327.339760329,1361.53467087 -331.327155739,1361.47943604 -331.319648417,1344.22777048 "/>
  <polygon class="27579009" points="-379.426445599,1344.10505081 -379.573717923,1345.43740633 -381.700588718,1378.57442127 -352.617774066,1378.47004292 -353.102195198,1387.0781899 -340.285572421,1387.05977018 -333.334088365,1387.05363027 -332.327155739,1360.36348134 -341.409503018,1360.43716007 -341.491244624,1362.50630471 -364.290311331,1362.67822178 -363.259079255,1346.2969906 -366.165654656,1346.33996982 -365.998258236,1344.04979183 -366.655693241,1344.05593172 -379.426445599,1344.10505081 "/>
  <polygon class="445716424" points="-383.772832557,1348.99163847 -382.700588718,1351.66207812 -440.872051842,1346.6035906 -441.99722277,1344.04979183 -383.772832557,1348.99163847 "/>
  <polygon class="30725786" points="-448.57327877,1344.24018721 -442.99722277,1360.73703615 -447.975742457,1361.57846199 -450.819203541,1362.07594737 -451.488212991,1360.7923123 -454.432355063,1361.16081996 -460.387744862,1345.22901488 -456.097060843,1344.04979183 -453.542245653,1345.32114168 -448.57327877,1344.24018721 "/>
  <polygon class="199202469" points="-461.387744862,1344.70046899 -464.85010131,1344.04979183 -465.806591721,1346.49290057 -462.344234194,1347.14357785 -461.387744862,1344.70046899 "/>
  <polygon class="197576018" points="-466.806591721,1358.66718289 -470.115348335,1352.95774217 -473.48698114,1347.13165956 -500.443740501,1344.04979183 -518.723969636,1351.42294671 -503.606848311,1374.21774763 -466.806591721,1358.66718289 "/>
  <polygon class="219122539" points="-519.723969636,1357.48561068 -522.644208757,1365.69571339 -523.831847011,1369.71786732 -531.160398002,1368.58183899 -541.220477895,1366.51856616 -541.259421575,1365.92905969 -541.010504692,1365.72027616 -542.720233927,1364.28949498 -542.886845503,1364.43687158 -543.307338962,1364.32019844 -543.232854016,1364.11755562 -545.651257031,1364.38774604 -545.629455125,1364.7132027 -546.486816419,1365.1553325 -557.302477473,1361.51390276 -557.120687301,1361.1208986 -565.582665088,1358.41899532 -565.943389812,1358.87340628 -573.95072022,1356.34344272 -572.944978793,1354.49509587 -579.026444954,1352.64060859 -574.38587003,1345.0200196 -573.113902251,1345.41916396 -572.306618676,1344.04979183 -565.409002878,1346.20517134 -565.70175826,1346.71484803 -551.121992346,1351.0624524 -548.88759101,1347.12013312 -545.277761947,1348.23773753 -544.561292388,1347.03416356 -530.83700656,1351.32650187 -529.300307281,1351.73792779 -530.640261363,1353.89330858 -522.513976358,1356.56450748 -519.723969636,1357.48561068 "/>
  <polygon class="366282637" points="-580.026444954,1350.31731696 -590.84224722,1354.03117999 -594.036900078,1347.76365307 -583.221103584,1344.04979183 -580.026444954,1350.31731696 "/>
  <polygon class="57686559" points="-627.145729446,1348.16156295 -595.036900078,1344.04979183 -614.022557818,1383.41851985 -621.597878474,1384.39430123 -627.145729446,1348.16156295 "/>
  <polygon class="126943120" points="-647.318578842,1490.79426319 -642.866996625,1480.39315693 -637.581725502,1480.1475583 -630.597542601,1479.38620258 -631.174915478,1471.65598851 -628.145729446,1468.45092891 -629.610193682,1458.09282024 -631.518525661,1447.55052132 -636.10175237,1430.18061358 -640.570545181,1416.38417107 -644.170014952,1406.02610393 -647.013454594,1399.19236291 -649.486809466,1393.68484918 -652.803840075,1394.85143495 -659.822396095,1382.35055292 -668.503955071,1365.77892088 -674.663541761,1352.75617486 -679.509438384,1347.37761879 -684.566026425,1344.04979183 -696.480304585,1345.91632198 -701.895283064,1348.46438165 -697.220252794,1355.64193075 -693.243154712,1361.95989641 -689.276265996,1368.64012001 -685.388008899,1375.4554252 -683.660217355,1378.67274168 -681.981933669,1382.14179566 -676.098474102,1380.12790226 -672.841426646,1386.56867827 -678.705066989,1388.57643274 -673.683736031,1399.32744131 -671.467855668,1404.49726128 -667.86893615,1413.85451787 -664.933292321,1422.22325109 -659.232801113,1420.85404492 -657.090599419,1427.63867781 -662.766766377,1428.94648528 -660.417364952,1436.92227172 -657.744862885,1447.45228211 -655.993746587,1455.36054043 -654.255894441,1464.02401838 -648.293108918,1463.17056424 -647.160320661,1470.24993737 -653.12794154,1471.10339198 -652.069375256,1479.98177923 -650.739959264,1495.66940086 -647.318578842,1490.79426319 "/>
  <polygon class="123216727" points="-748.557158527,1382.37487285 -737.94268732,1387.55859437 -712.390855231,1357.96718804 -708.941385779,1359.65619344 -702.895283064,1352.66064157 -708.953224985,1349.70027747 -707.4599802,1347.96828052 -710.16113937,1346.64778655 -715.465439657,1344.04979183 -748.557158527,1382.37487285 "/>
  <polygon class="175357039" points="-7.30429824376,1495.66940086 -26.0267251003,1517.45872098 -27.3032872605,1518.99404649 -43.2076404717,1511.44638803 -40.3634155051,1507.54052255 -45.0217757645,1504.96117807 -65.2645949346,1525.2029047 -39.5908568919,1537.69432572 -34.4246819752,1540.03416551 0.0,1499.21292648 -7.30429824376,1495.66940086 "/>
  <polygon class="131333240" points="-70.5015919773,1495.66940086 -146.679995832,1540.63132066 -143.318415365,1544.53011526 -67.2645949346,1498.4937146 -70.5015919773,1495.66940086 "/>
  <polygon class="268098661" points="-153.086439154,1495.66940086 -163.905738789,1499.51769804 -157.868710908,1511.70704882 -150.274168242,1509.09855134 -150.827643693,1507.7789587 -147.679995832,1506.65577064 -153.086439154,1495.66940086 "/>
  <polygon class="79990122" points="-164.905738789,1495.66940086 -187.280067764,1500.01594803 -183.657803492,1514.21590679 -172.891857107,1510.38504739 -166.409018758,1505.82976412 -165.373790409,1501.45251903 -164.905738789,1495.66940086 "/>
  <polygon class="142886881" points="-188.280067764,1539.06803708 -192.072722335,1538.36191776 -205.472173648,1495.66940086 -201.722185869,1496.42463905 -188.280067764,1539.06803708 "/>
  <polygon class="119398870" points="-207.852621161,1511.41819493 -206.472173648,1496.06849287 -210.067419454,1495.66940086 -213.471405512,1496.06849287 -214.3333226,1511.51643309 -207.852621161,1511.41819493 "/>
  <polygon class="187663935" points="-215.3333226,1550.90762593 -227.445656438,1552.32572527 -229.371529375,1536.27849761 -233.793900082,1497.08749416 -227.900197309,1496.35696123 -222.082466284,1495.66940086 -215.3333226,1550.90762593 "/>
  <polygon class="339538919" points="-234.793900082,1505.70115828 -246.387800549,1512.06770603 -255.593597935,1501.79036821 -244.019544686,1495.66940086 -234.793900082,1505.70115828 "/>
  <polygon class="367085402" points="-283.345983189,1495.66940086 -287.421466565,1514.89725621 -278.362667656,1515.62781705 -278.664529731,1517.02754718 -277.783872292,1517.12577386 -276.984320169,1517.2117222 -276.483802996,1515.74446122 -262.717111885,1516.42590877 -260.505388929,1511.7233075 -259.04678713,1512.07937908 -256.956598999,1507.5057018 -258.474349072,1507.04526458 -256.593597935,1497.43133917 -283.345983189,1495.66940086 "/>
  <polygon class="23312331" points="-288.421466565,1495.69393987 -350.323320406,1495.66940086 -346.780558345,1500.84099853 -306.258170814,1501.57103443 -288.961720768,1501.88390697 -288.421466565,1495.69393987 "/>
  <polygon class="25792933" points="-364.759909053,1495.66940086 -385.481109535,1498.99005371 -375.206161155,1543.55194704 -429.430456236,1552.43365405 -428.050631223,1559.38802877 -400.182366449,1554.76610058 -397.167378516,1561.03915623 -351.323320406,1554.59423609 -364.759909053,1495.66940086 "/>
  <polygon class="33170620" points="-442.776790013,1527.46606632 -447.241215313,1526.97499753 -474.31594218,1524.01017013 -473.094023159,1519.38184879 -468.167252057,1500.74581306 -466.826288874,1495.66940086 -438.426340714,1498.78154208 -434.04783047,1499.2603331 -430.430456236,1499.65932564 -432.853181701,1508.83615729 -437.427637715,1508.33281251 -440.137444477,1518.59000088 -435.567810843,1519.09334606 -437.919976546,1528.00010364 -442.776790013,1527.46606632 "/>
  <polygon class="173816791" points="-475.31594218,1521.43190468 -494.365235487,1536.21389354 -513.874425168,1522.93036893 -529.008104188,1535.99280841 -544.082573595,1523.42780997 -512.651309056,1495.66940086 -505.85274363,1500.36130479 -475.31594218,1521.43190468 "/>
  <polygon class="28856709" points="-569.487714859,1502.47068222 -568.052563277,1507.1051314 -567.037625148,1510.37073103 -561.53465948,1509.13692355 -545.082573595,1505.36184171 -546.482714923,1501.84457133 -547.657848616,1495.66940086 -569.487714859,1502.47068222 "/>
  <polygon class="45580479" points="-591.13631127,1495.66940086 -600.101584662,1501.029175 -590.459007674,1510.99357197 -579.453496495,1522.35778267 -570.487714859,1516.99186022 -581.493227976,1505.62765423 -591.13631127,1495.66940086 "/>
  <polygon class="47042188" points="-612.949824755,1506.21940972 -613.021159368,1496.28926734 -607.383339661,1495.99467733 -606.45737976,1495.94557899 -601.168605622,1495.66940086 -601.101584662,1505.59340546 -612.949824755,1506.21940972 "/>
  <polygon class="94646587" points="-615.298464486,1508.62257285 -620.227539293,1508.60415601 -648.682694087,1507.51756241 -679.919532823,1505.55923859 -678.581891476,1495.66940086 -614.021159368,1498.81867798 -615.298464486,1508.62257285 "/>
  <polygon class="256078282" points="-688.023914959,1515.05719997 -708.137584222,1510.21485046 -701.187231122,1495.66940086 -697.854319545,1496.4672521 -686.607371782,1499.17994669 -680.919532823,1500.63449131 -688.023914959,1515.05719997 "/>
  <polygon class="137481955" points="-709.137584222,1497.24135925 -720.753575281,1495.66940086 -724.504938033,1506.33538789 -713.133441171,1508.23893284 -709.137584222,1497.24135925 "/>
  <polygon class="203844225" points="-772.847773431,1495.66940086 -725.504938033,1499.30843561 -726.486002687,1503.9968394 -730.788100724,1503.66546002 -731.089687338,1505.11371071 -741.540469534,1504.30980882 -741.887041494,1505.95443259 -758.543920863,1504.6718715 -758.181682998,1502.95360804 -774.11962507,1501.7324138 -772.847773431,1495.66940086 "/>
  <polygon class="54499710" points="-47.4197462881,1568.98803957 -58.0906742943,1573.53026081 -57.060779834,1575.10162421 -49.4009225696,1586.78864546 0.0,1565.77779498 -1.26575550875,1563.84428284 -3.10218072608,1561.03915623 -41.8374849769,1577.51391292 -47.4197462881,1568.98803957 "/>
  <polygon class="113373785" points="-60.0906742943,1562.21749705 -61.3602242898,1565.12652641 -66.7960593882,1563.94818533 -65.5216804559,1561.03915623 -60.0906742943,1562.21749705 "/>
  <polygon class="175608028" points="-75.5410466282,1664.37077499 -78.6189121085,1665.56767117 -77.4586372857,1667.53180872 -74.3304604827,1666.31036065 -73.0814991283,1668.42794658 -70.3354892284,1667.15739498 -67.7960593882,1665.9911883 -100.441562487,1610.80518112 -152.160799086,1561.03915623 -154.587393982,1562.35880045 -167.444317226,1567.49620735 -135.112839897,1599.57896069 -129.024758656,1595.43588017 -109.106693004,1614.93599076 -82.1943177973,1657.55153787 -81.0661322415,1657.10346931 -79.7130720954,1656.56333188 -75.5410466282,1664.37077499 "/>
  <polygon class="446126549" points="-191.408465374,1561.03915623 -168.444317226,1566.74761083 -181.472668638,1592.77942339 -205.328355181,1586.874537 -191.408465374,1561.03915623 "/>
  <polygon class="91711649" points="-214.357161179,1585.5695236 -209.290221056,1586.14656484 -207.13041788,1576.3245899 -206.328355181,1573.34730522 -218.464236119,1570.68309642 -215.655253456,1564.34179057 -230.752477033,1561.03915623 -233.120578299,1565.69844916 -233.99323983,1567.40501537 -231.161440063,1567.91452979 -232.561458835,1570.94092305 -211.774786143,1575.36080902 -212.10515246,1576.69291383 -214.357161179,1585.5695236 "/>
  <polygon class="106369568" points="-234.99323983,1573.3987186 -242.717322827,1581.26390077 -264.7636846,1568.76311385 -256.968923813,1561.03915623 -234.99323983,1573.3987186 "/>
  <polygon class="47346520" points="-266.29971067,1565.13241828 -279.664744838,1561.03915623 -289.060511196,1577.18514945 -282.646362694,1579.14893564 -284.979664425,1583.15628775 -274.755594976,1586.28607358 -265.7636846,1570.83353055 -269.032006273,1569.83322757 -266.29971067,1565.13241828 "/>
  <polygon class="27439211" points="-294.63767886,1561.03915623 -290.060511196,1569.53355106 -306.381432266,1575.43175768 -310.95376121,1566.93735898 -294.63767886,1561.03915623 "/>
  <polygon class="396117861" points="-313.576828026,1561.03915623 -324.056236026,1567.64060808 -322.12356682,1569.78377782 -311.95376121,1563.72272277 -312.026331116,1562.59279995 -313.576828026,1561.03915623 "/>
  <polygon class="301172755" points="-325.056236026,1584.94454405 -375.783204332,1561.03915623 -380.878078732,1567.09068283 -379.870061239,1567.56940412 -379.684060187,1567.65532846 -331.354759706,1590.4314352 -330.151078783,1590.99608185 -325.056236026,1584.94454405 "/>
  <polygon class="312001347" points="-385.613115474,1561.03915623 -427.773593387,1571.96050724 -423.931422271,1580.72706209 -381.878078732,1570.99053865 -385.613115474,1561.03915623 "/>
  <polygon class="12486540" points="-428.773593387,1576.65838784 -441.645474641,1578.89233842 -444.957133865,1562.99692922 -440.864530238,1562.35252115 -437.798573334,1561.86768081 -432.527691583,1561.03915623 -428.773593387,1576.65838784 "/>
  <polygon class="315006754" points="-452.143454974,1561.03915623 -445.957133865,1564.73352155 -455.023894151,1573.49076715 -456.453807582,1574.87155274 -462.640133815,1571.17718452 -461.304581991,1569.88845167 -452.143454974,1561.03915623 "/>
  <polygon class="43887834" points="-475.942430516,1565.92489293 -471.951902241,1585.84840615 -463.640133815,1584.57786696 -467.659427196,1564.59297709 -471.993108995,1565.33565825 -472.633000005,1564.72187216 -473.319370042,1564.14491326 -474.501110617,1563.31016427 -475.741225576,1562.59817251 -477.141382837,1561.95369726 -478.892674688,1561.35218705 -480.141464618,1561.03915623 -479.801144092,1563.06464986 -478.450906521,1563.49430007 -477.206311739,1564.03443178 -476.42042078,1564.45794415 -475.46240057,1565.07786809 -474.552594419,1565.81441142 -474.555118598,1565.84510073 -475.942430516,1565.92489293 "/>
  <polygon class="424177681" points="-657.88793967,1579.30208665 -655.420496089,1586.52746153 -654.577592299,1590.68957395 -640.699288192,1588.24632785 -578.758696627,1577.8901617 -550.455249735,1573.16328364 -542.125614344,1571.76977576 -492.080968919,1596.80383002 -487.169800939,1592.54963347 -481.141464618,1586.29418683 -517.67198544,1567.63836341 -523.878266847,1574.0595487 -531.582504291,1570.17982642 -525.545723345,1563.53150757 -527.353978536,1562.56771648 -534.217664339,1561.36451241 -541.992597303,1561.30926325 -552.324979202,1562.62910445 -551.155127554,1569.19761844 -579.476351243,1573.90607865 -580.59353133,1566.87715237 -581.712843584,1561.03915623 -661.992045011,1573.58686095 -660.854012441,1579.78091341 -657.88793967,1579.30208665 "/>
  <polygon class="298244905" points="-662.992045011,1565.2507621 -664.443134893,1568.37570087 -682.425731874,1564.16409399 -680.974634934,1561.03915623 -662.992045011,1565.2507621 "/>
  <polygon class="189349895" points="-709.567057378,1561.03915623 -714.419227344,1582.37202516 -695.005546808,1583.97429386 -686.809107542,1584.61274581 -683.629748158,1571.21140043 -683.425731874,1570.36422469 -698.065081302,1569.08118327 -696.705270231,1561.91088717 -709.567057378,1561.03915623 "/>
  <polygon class="284757863" points="-715.419227344,1562.48774159 -718.50348513,1561.03915623 -721.704689608,1564.87545255 -718.615107829,1566.31790026 -715.419227344,1562.48774159 "/>
  <polygon class="385321158" points="-723.639774146,1561.03915623 -727.068165145,1561.40131238 -726.401243835,1568.38049297 -738.029952733,1569.60200342 -737.766129321,1572.37035164 -722.704689608,1570.79282276 -723.639774146,1561.03915623 "/>
  <polygon class="26352675" points="-739.029952733,1561.03915623 -747.92099679,1561.32761337 -748.189427809,1569.47806449 -739.592174716,1570.48459646 -739.029952733,1561.03915623 "/>
  <polygon class="392335515" points="-749.189427809,1573.97404269 -764.969044844,1561.03915623 -770.527368163,1565.10317707 -754.948165114,1578.18540386 -749.189427809,1573.97404269 "/>
  <polygon class="48792660" points="-785.30873619,1590.37247643 -776.162521117,1590.48300612 -775.951806766,1586.93991576 -772.342693484,1587.05658596 -771.527368163,1580.65200733 -775.639734632,1575.85011055 -774.819700367,1564.87084429 -778.066122817,1564.80943902 -777.855064452,1561.32162038 -781.0201925,1561.21109093 -785.880918953,1561.03915623 -789.010981717,1586.88465092 -785.02970291,1586.93991576 -785.30873619,1590.37247643 "/>
  <polygon class="205062535" points="-4.43939080951,1669.69875506 -53.1818821221,1668.42794658 -54.4752495174,1676.29222714 -40.4192311099,1676.80177866 -41.199379829,1686.44028708 -18.2544748292,1686.44028708 -19.6089200274,1695.05969814 0.0,1695.82095694 -4.43939080951,1669.69875506 "/>
  <polygon class="396521211" points="-59.5739198537,1668.42794658 -56.4752495174,1672.27177145 -59.4492175088,1675.4033229 -62.3573769043,1671.29546439 -59.5739198537,1668.42794658 "/>
  <polygon class="28495371" points="-63.3573769043,1676.91361627 -91.8087006102,1691.08095434 -98.4519334258,1682.77934638 -69.9854113297,1668.42794658 -63.3573769043,1676.91361627 "/>
  <polygon class="210596479" points="-99.4519334258,1714.8911323 -108.631833429,1688.10999219 -107.153095298,1668.42794658 -114.68916693,1670.23955328 -134.891216556,1685.89921491 -116.071512115,1719.8285464 -99.4519334258,1714.8911323 "/>
  <polygon class="289989831" points="-135.891216556,1696.86823954 -158.172700551,1672.97151252 -161.580278006,1674.94243824 -162.917036787,1673.51182858 -159.458639174,1671.5102033 -162.33141598,1668.42794658 -209.882851967,1695.95952455 -183.397199831,1724.37531789 -135.891216556,1696.86823954 "/>
  <polygon class="61123770" points="-235.925397999,1700.7263412 -210.882851967,1690.49001813 -245.619588741,1669.78419523 -248.87647742,1670.83973727 -250.364746215,1668.42794658 -254.517697552,1669.93761704 -235.925397999,1700.7263412 "/>
  <polygon class="108013994" points="-255.517697552,1677.20372539 -257.869419708,1679.9979739 -261.648161466,1684.4871964 -280.142387571,1675.71141269 -274.011909889,1668.42794658 -272.918513908,1668.94994866 -256.518420646,1676.73085262 -255.517697552,1677.20372539 "/>
  <polygon class="114972677" points="-281.142387571,1671.44806573 -299.626399003,1705.17891584 -310.317966032,1702.19561964 -291.647398594,1668.42794658 -289.123645523,1669.15228404 -284.883156916,1670.37383628 -281.142387571,1671.44806573 "/>
  <polygon class="43090238" points="-325.598821342,1668.42794658 -311.317966032,1672.57349817 -316.307897383,1682.1604751 -329.252666892,1686.11564253 -332.79845189,1682.65794175 -331.372875993,1679.51346155 -331.111394287,1678.97300409 -327.382035642,1679.99864497 -322.281619481,1670.65733194 -326.151448796,1669.57641778 -325.598821342,1668.42794658 "/>
  <polygon class="208507339" points="-333.79845189,1670.39353642 -363.974666323,1668.42794658 -367.599349754,1687.56789023 -337.418227764,1689.53348295 -336.704180196,1685.75585971 -336.322888859,1683.74727023 -334.920312784,1676.32716255 -334.484977048,1674.011451 -333.79845189,1670.39353642 "/>
  <polygon class="213960925" points="-375.750327407,1668.42794658 -368.599349754,1669.51504741 -369.478396572,1672.17445263 -376.629877686,1671.0934934 -375.750327407,1668.42794658 "/>
  <polygon class="240267188" points="-414.740281259,1672.41405761 -414.271301629,1670.07398304 -436.93599699,1668.42794658 -437.524027526,1671.34536208 -437.860342144,1673.05896012 -438.598376272,1676.81782113 -411.887631957,1678.81394873 -406.016818437,1679.25002588 -379.281892312,1681.24615386 -378.732171643,1678.38401353 -377.629877686,1672.68430247 -396.676607487,1671.30236859 -397.153881049,1673.68543688 -411.021301755,1672.68430247 -414.740281259,1672.41405761 "/>
  <polygon class="220871440" points="-439.598376272,1671.22825321 -455.808352194,1668.42794658 -457.955411644,1674.32332965 -441.749755328,1677.11749651 -439.598376272,1671.22825321 "/>
  <polygon class="374917637" points="-462.477643258,1668.42794658 -463.906443244,1675.19925324 -460.384208563,1675.4755079 -458.955411644,1668.70420109 -462.477643258,1668.42794658 "/>
  <polygon class="221033296" points="-464.906443244,1672.84917196 -466.724776469,1672.27809693 -479.131754752,1668.42794658 -484.703124736,1677.9213018 -485.808568365,1679.80646437 -471.58323734,1684.22769361 -469.401018459,1680.51263283 -464.906443244,1672.84917196 "/>
  <polygon class="164244564" points="-508.40114559,1693.58390291 -514.242904457,1689.74634235 -493.633423997,1668.42794658 -486.808568365,1672.5909255 -508.40114559,1693.58390291 "/>
  <polygon class="131333252" points="-572.442325895,1672.73225127 -581.103430439,1693.72573493 -517.724330677,1703.48258928 -515.242904457,1694.65291209 -522.278015222,1693.72573493 -518.357272167,1679.4128297 -516.927629623,1675.28658967 -516.229680076,1672.308575 -531.679806672,1668.42794658 -534.094741916,1674.14450561 -538.379263386,1673.25417134 -541.705478818,1681.13209676 -551.191295064,1679.1610799 -550.411938964,1677.31286809 -572.442325895,1672.73225127 "/>
  <polygon class="167228105" points="-591.741501704,1669.04812978 -586.449116435,1668.42794658 -582.103430439,1696.0844615 -587.595238651,1697.31254967 -591.741501704,1669.04812978 "/>
  <polygon class="87544694" points="-603.716626483,1683.55283088 -607.647012604,1670.9641115 -596.672398361,1668.42794658 -592.741501704,1681.01052266 -603.716626483,1683.55283088 "/>
  <polygon class="309059744" points="-616.31315927,1668.42794658 -625.861307185,1670.25721865 -618.195193606,1701.90121101 -608.647012604,1700.07193447 -616.31315927,1668.42794658 "/>
  <polygon class="9922727" points="-630.075507801,1672.07358303 -640.494366468,1673.75524059 -641.528412202,1668.42794658 -652.134865436,1670.2200775 -651.004112194,1676.73189776 -654.124845269,1677.2351677 -651.808901515,1689.41185125 -643.255672251,1687.87749029 -641.706265142,1693.81239949 -629.395097979,1691.77476748 -629.926113199,1688.74900729 -626.861307185,1688.22118713 -630.075507801,1672.07358303 "/>
  <polygon class="242097304" points="-660.188411792,1668.42794658 -680.458440905,1671.44334594 -676.64736728,1690.90527836 -655.124845269,1686.98709588 -660.188411792,1668.42794658 "/>
  <polygon class="272638573" points="-681.458440905,1679.26670441 -700.410621437,1668.42794658 -730.408379579,1697.52373728 -709.965915205,1709.5907105 -681.458440905,1679.26670441 "/>
  <polygon class="10303651" points="-731.408379579,1668.69802345 -758.983531637,1668.42794658 -759.799890315,1676.65915546 -783.11539589,1676.43204523 -784.41743693,1689.59830722 -738.890971889,1690.04025192 -733.52615759,1690.08935688 -731.674308981,1671.38651621 -731.408379579,1668.69802345 "/>
  <polygon class="213271107" points="0.0,1727.01987577 -39.8755961751,1761.54643891 -43.8008130209,1758.89573805 -3.92088006497,1724.37531789 0.0,1727.01987577 "/>
  <polygon class="162847807" points="-45.8008130209,1724.37531789 -45.9636185813,1726.37672186 -46.3747506977,1737.42742418 -49.3945295168,1739.3428802 -57.2027928071,1741.40567932 -68.0482995824,1741.2644758 -74.3347949372,1741.54074356 -80.2923804178,1747.03540357 -85.7183550555,1742.49233255 -87.938872105,1740.63826889 -75.3730810309,1733.58423441 -45.8008130209,1724.37531789 "/>
  <polygon class="223244313" points="-115.780731252,1724.37531789 -107.124824335,1728.64975099 -88.938872105,1737.62238019 -101.79855563,1752.87770646 -113.419016443,1746.96350177 -118.330374208,1744.48236166 -128.472305637,1739.04719252 -126.696377155,1736.8731255 -115.780731252,1724.37531789 "/>
  <polygon class="35078550" points="-129.472305637,1724.70082828 -129.646532339,1726.5371984 -131.467285683,1743.85068055 -155.816607814,1743.51902796 -153.822070741,1724.37531789 -144.355597922,1724.50429371 -138.533330247,1724.57799417 -129.472305637,1724.70082828 "/>
  <polygon class="42878421" points="-177.057789176,1801.06246848 -282.881138001,1745.4880214 -261.61291637,1724.37531789 -156.816607814,1782.85881872 -177.057789176,1801.06246848 "/>
  <polygon class="171938173" points="-287.125575839,1724.37531789 -293.830428499,1726.86807388 -294.128875237,1732.54124448 -293.97864891,1741.41939306 -292.359119588,1748.98362956 -288.194373508,1757.67759513 -285.796507061,1755.46112454 -283.881138001,1752.05353199 -286.396453993,1742.56139601 -287.125575839,1724.37531789 "/>
  <polygon class="376561179" points="-302.809157332,1724.37531789 -295.128875237,1726.76805185 -301.124179464,1736.89729722 -303.786268003,1736.06904246 -309.473097589,1745.67680104 -314.496130818,1744.11231879 -302.809157332,1724.37531789 "/>
  <polygon class="93625867" points="-342.957918896,1724.37531789 -315.496130818,1743.4218077 -325.730518892,1753.22434658 -332.614440834,1759.54045103 -357.966254274,1743.03510782 -346.499804005,1733.1036768 -349.972967863,1730.46429901 -342.957918896,1724.37531789 "/>
  <polygon class="286079649" points="-358.966254274,1724.37531789 -373.305544879,1724.60243661 -374.261649194,1743.80932862 -368.600576291,1743.66200815 -366.269199721,1741.32329593 -365.886778404,1726.86134732 -359.039027085,1726.48690829 -358.966254274,1724.37531789 "/>
  <polygon class="218895496" points="-375.261649194,1735.80033161 -379.496589513,1736.89924534 -376.304705539,1747.08415408 -401.883277114,1752.97777581 -402.750781312,1747.0227622 -404.986674229,1747.4279486 -408.404366631,1730.88898649 -378.070454718,1724.37531789 -375.261649194,1735.80033161 "/>
  <polygon class="88630584" points="-409.404366631,1724.37531789 -410.265749071,1742.43251369 -457.989279648,1743.41521894 -456.981802859,1725.34573798 -409.404366631,1724.37531789 "/>
  <polygon class="213264388" points="-466.100003358,1724.37531789 -481.076459451,1784.26517512 -473.961361782,1784.98333949 -458.989279648,1725.0873408 -466.100003358,1724.37531789 "/>
  <polygon class="330713658" points="-482.076459451,1740.64586761 -488.266640617,1724.37531789 -547.236014245,1740.28989157 -545.573846062,1744.65366742 -500.617403856,1732.51979646 -496.785161822,1742.59759845 -491.271461469,1741.10618146 -490.575731255,1742.93516199 -482.076459451,1740.64586761 "/>
  <polygon class="106347194" points="-548.236014245,1727.63440995 -552.930986495,1747.07236407 -577.368754173,1744.7155029 -578.164114861,1744.641851 -586.69001326,1743.81940476 -581.994455562,1724.37531789 -548.236014245,1727.63440995 "/>
  <polygon class="219121429" points="-587.69001326,1728.93784933 -598.756752901,1747.05903642 -617.557750604,1745.1247167 -604.706627051,1724.37531789 -598.861050632,1725.92277117 -593.82896837,1727.25530054 -587.69001326,1728.93784933 "/>
  <polygon class="24064641" points="-627.655091678,1725.47388554 -620.822390257,1724.37531789 -618.557750604,1734.09672429 -625.23765872,1735.27507707 -627.655091678,1725.47388554 "/>
  <polygon class="35000285" points="-639.059323207,1724.37531789 -673.099768094,1729.63530512 -666.740497732,1766.61485571 -687.39078863,1769.56094893 -685.018860154,1787.77764032 -675.292824782,1792.28271554 -628.655091678,1785.77674911 -639.059323207,1724.37531789 "/>
  <polygon class="380120752" points="-688.39078863,1727.08798669 -690.506351715,1724.37531789 -715.017145676,1728.51796844 -714.321401189,1731.4761286 -688.39078863,1727.08798669 "/>
  <polygon class="325281715" points="-716.017145676,1729.10129778 -723.91824347,1724.37531789 -730.443758594,1727.41958526 -732.775443499,1727.41958526 -734.312057802,1728.84965465 -735.911638163,1730.34110059 -724.25004982,1737.24594511 -716.017145676,1729.10129778 "/>
  <polygon class="80858332" points="-69.3670122733,1816.20602571 -6.06302522616,1829.88923902 0.0,1816.05876251 -23.05152938,1811.07635846 -22.4750759408,1809.75712619 -62.7279199233,1801.06246848 -65.2934708082,1806.91617528 -69.3670122733,1816.20602571 "/>
  <polygon class="36056451" points="-100.120378637,1822.54168 -71.3670122733,1824.5624598 -73.3311222763,1819.66099445 -79.9185809129,1818.64753379 -79.8943328977,1815.68085852 -83.157338208,1815.50887737 -81.2111953099,1807.99698844 -84.8933245275,1807.33363296 -84.3563271905,1805.42955724 -138.58835194,1801.06246848 -139.366849055,1804.62493177 -97.0707569891,1807.77586994 -98.820825771,1816.20294418 -100.120378637,1822.54168 "/>
  <polygon class="95920915" points="-140.517797762,1802.72002437 -140.366849055,1802.58496426 -141.563280539,1807.71724972 -164.281824935,1805.63609544 -163.16908753,1801.06246848 -140.517797762,1802.72002437 "/>
  <polygon class="381753888" points="-168.077481931,1801.06246848 -173.477740645,1801.89742932 -170.682093229,1817.46700313 -165.281824935,1816.63204128 -168.077481931,1801.06246848 "/>
  <polygon class="286645784" points="-184.238113303,1801.06246848 -198.25456813,1805.82033202 -188.493724934,1825.26312928 -174.477740645,1820.5113978 -184.238113303,1801.06246848 "/>
  <polygon class="309479811" points="-240.124102734,1847.7460863 -241.147630702,1843.22811146 -242.766183151,1836.34679683 -247.698996285,1837.21233219 -248.949563143,1831.80427178 -245.493968086,1831.17200153 -245.886946334,1829.4716244 -249.347868247,1830.11003312 -250.604596197,1824.65900588 -245.723229293,1823.89168804 -240.655201291,1823.20417129 -242.32180848,1813.82448219 -247.936627395,1814.5856609 -252.697451938,1815.23634596 -254.270739028,1815.46347188 -254.994070712,1810.63858149 -246.060506426,1809.50295233 -246.897153512,1803.87391631 -224.355466548,1801.06246848 -223.968491955,1804.14401177 -235.514491294,1805.51904327 -232.937687159,1825.86216034 -227.61441817,1825.06414971 -212.051022578,1822.97704523 -213.548263996,1812.70112983 -214.109497525,1808.85226756 -202.958290426,1807.40357329 -199.509956344,1835.80046603 -199.25456813,1836.93609749 -206.666601484,1838.24360844 -206.022652187,1841.66891942 -240.124102734,1847.7460863 "/>
  <polygon class="99252843" points="-256.461103329,1804.08256152 -255.994070712,1801.51671007 -265.406897184,1801.06246848 -265.844961964,1803.62831984 -256.461103329,1804.08256152 "/>
  <polygon class="335066795" points="-267.45964397,1801.08088319 -271.267946068,1801.18523323 -272.170631136,1827.36484201 -268.309205354,1827.26049177 -268.230289556,1824.8542981 -268.005029936,1818.43369168 -267.929732625,1816.13184981 -267.363332328,1816.11343507 -267.194068896,1811.15987277 -266.951701757,1804.22979931 -266.844961964,1801.06246848 -267.45964397,1801.08088319 "/>
  <polygon class="60541810" points="-290.014216998,1801.06246848 -292.296470142,1806.70245982 -275.448045356,1809.99808157 -273.170631136,1804.3580888 -290.014216998,1801.06246848 "/>
  <polygon class="55962876" points="-293.296470142,1811.53430774 -327.770027553,1850.96500374 -370.533403605,1829.00172285 -369.033114429,1827.50311107 -355.22287586,1812.62141412 -335.326133453,1822.64490768 -313.924897557,1801.06246848 -297.564970652,1809.3662371 -293.296470142,1811.53430774 "/>
  <polygon class="287449981" points="-371.533403605,1801.06246848 -371.713689881,1808.98370179 -411.794431841,1810.4144367 -411.618434288,1802.48706202 -371.533403605,1801.06246848 "/>
  <polygon class="106345085" points="-430.175485328,1801.06246848 -412.794431841,1816.27196642 -437.039027243,1832.14436714 -445.899577259,1824.2265778 -449.047343812,1826.12316411 -456.880879882,1819.34701237 -430.175485328,1801.06246848 "/>
  <polygon class="368368609" points="-457.880879882,1801.86642653 -470.978298763,1801.06246848 -472.753663413,1806.46310367 -460.435782969,1808.42697157 -457.880879882,1801.86642653 "/>
  <polygon class="60105351" points="-484.290465729,1817.37298811 -487.985666998,1818.34904168 -480.532803559,1838.47172237 -490.059480384,1840.98859433 -492.898551434,1833.40728636 -500.89057333,1834.13165406 -499.789768104,1836.90021232 -520.542331105,1842.46802417 -524.839860576,1830.85972233 -528.264061406,1831.76825114 -527.398684772,1834.10096051 -538.222974329,1836.96159942 -544.723310453,1819.41103717 -534.102345414,1816.55654083 -529.945165569,1827.7473978 -527.994690123,1827.69214945 -528.766847664,1825.64182167 -505.549107611,1819.44173068 -505.259641482,1821.67007987 -497.765087806,1820.405507 -500.333545624,1813.60382593 -505.983473814,1815.16919445 -505.153275033,1817.45892993 -524.391581525,1822.51108228 -527.510579286,1814.86839813 -508.797849197,1809.92674532 -507.699327076,1812.90401418 -500.915692338,1811.11151408 -491.843158314,1808.71742188 -493.11718567,1805.27975179 -477.123365331,1801.06246848 -475.520009222,1805.39024831 -473.753663413,1810.15387715 -485.775665487,1813.13728476 -485.017200873,1815.29810716 -484.290465729,1817.37298811 "/>
  <polygon class="335988775" points="-565.519007769,1812.87403475 -563.192383888,1801.06246848 -545.723310453,1802.70159891 -548.01143065,1813.92381585 -565.519007769,1812.87403475 "/>
  <polygon class="32485392" points="-614.81258559,1841.67974521 -625.345833362,1817.87785827 -569.513940686,1801.06246848 -566.519007769,1808.47867275 -593.091272808,1817.07975603 -586.423375768,1832.36035275 -614.81258559,1841.67974521 "/>
  <polygon class="379695794" points="-641.503810336,1804.67231837 -639.500722206,1809.84766614 -626.345833362,1806.23781481 -628.348928121,1801.06246848 -641.503810336,1804.67231837 "/>
  <polygon class="380426998" points="-647.551401239,1804.6661754 -642.503810336,1824.99306576 -667.354242751,1823.48282152 -667.763322645,1820.20448709 -668.686714301,1813.45750553 -670.207768833,1802.30872476 -662.055458854,1801.06246848 -656.914090474,1805.94926721 -649.919675667,1804.45130358 -647.551401239,1804.6661754 "/>
  <polygon class="126929792" points="-684.443899233,1801.2712287 -698.300229019,1801.06246848 -698.46824264,1802.88605049 -697.661190981,1817.10017489 -671.902050882,1817.72031631 -671.207768833,1813.11530648 -685.474041125,1812.83900594 -684.443899233,1801.2712287 "/>
  <polygon class="337784289" points="-699.46824264,1816.73773559 -705.364326255,1811.18722757 -706.34884918,1811.77052199 -710.071208668,1807.88393962 -716.694805606,1801.06246848 -719.367584023,1802.38869481 -728.676584839,1802.10011778 -729.971757412,1809.35752522 -731.456262473,1817.16139172 -719.733788451,1817.94730458 -719.001827295,1813.63706433 -716.823886317,1815.90270326 -713.187079577,1813.88880197 -712.081130746,1814.90189252 -706.425715317,1820.67958012 -704.450500472,1819.55597011 -699.46824264,1816.73773559 "/>
  <polygon class="163218487" points="-733.160601477,1801.06246848 -770.73371023,1804.9297426 -766.756236466,1849.114966 -749.009645798,1847.29181612 -752.050235575,1813.54824335 -745.236519983,1812.8423118 -745.474007799,1810.22729615 -732.456262473,1808.88909586 -733.160601477,1801.06246848 "/>
  <polygon class="41108247" points="0.0,1865.30409332 -51.6963551549,1850.96500374 -70.7764983117,1884.13837331 -16.6757126117,1903.08935877 -15.666588924,1900.59612969 -20.5632352161,1899.25126001 -19.0978330859,1896.49397055 -30.8891347249,1893.23926438 -22.6932023359,1877.79477352 -26.0485457954,1876.86749055 -21.8848073709,1869.01936322 -18.8462220525,1869.86067241 -16.8168073693,1866.04714721 -2.51282422249,1870.014196 0.0,1865.30409332 "/>
  <polygon class="113631720" points="-78.0618853033,1850.96500374 -90.1388209037,1853.96643235 -84.8534528337,1869.36641134 -72.7764983117,1866.36497916 -78.0618853033,1850.96500374 "/>
  <polygon class="45205288" points="-115.458752224,1856.98033614 -98.2576579449,1868.96190451 -92.6328984603,1864.21101491 -91.1388209037,1862.95270464 -108.339403503,1850.96500374 -115.458752224,1856.98033614 "/>
  <polygon class="201855224" points="-116.458752224,1851.33327205 -120.068815087,1850.96500374 -121.307539761,1855.91207556 -118.46340207,1856.20055252 -117.696973942,1856.27420621 -116.458752224,1851.33327205 "/>
  <polygon class="399658713" points="-122.307539761,1866.34654603 -124.742105231,1861.16410021 -132.351044913,1854.39745012 -134.263302281,1855.15271126 -141.591154072,1850.96500374 -148.780085286,1859.0334033 -142.717413382,1862.21409795 -140.981760576,1861.25620527 -136.122861401,1865.68338934 -133.92640779,1870.70618808 -122.307539761,1866.34654603 "/>
</svg>