<svg><g transform="translate(0 0)"><polygon id="0" class="bin" points="-229.607839964,4.94514036524 -229.098405074,1.56131047995 -226.053386489,0.0 -1.875,0.0 0.77665042945,1.09834957055 1.875,3.75 1.875,1203.75 0.77665042945,1206.40165043 -1.875,1207.5 -298.124999,1207.5 -300.776649429,1206.40165043 -301.874999,1203.75 -301.874999,287.160903595 -300.695110868,284.430148207 -297.897919006,283.417785286 -288.833110381,283.967710914 -285.724169334,283.428161858 -270.381659473,276.864202642 -268.604492949,275.75641212 -267.086082702,274.449828918 -264.731815685,269.649910244 -263.849726724,252.624863147 -262.645741845,250.061022744 -259.992084737,249.070587916 -250.859108832,249.345103299 -246.829016192,247.864400126 -244.944518709,244.006577189 -227.991312517,9.75283640685 -229.607839964,4.94514036524 " moovel_rot="0" moovel_centroid="-143.98684894621522,627.5553502492437" moovel_centroidlatlon="0,0" transform="translate(301.875 0)"></polygon><g transform="translate(2.4999988999999943 -621.9117527999999) rotate(0)"><polygon id="97825250" class="tile" points="35.9537475429,1819.92579884 84.8290129605,1821.91385017 85.0745255336,1628.17890967 82.8664792621,1567.89053575 43.8346623584,1569.15795392 36.3722597156,1569.80686604 37.9655045601,1617.62744964 0.0335004092194,1620.79009139 0.0,1657.02307155 5.93023754982,1657.01409662 5.85347902039,1707.27756718 16.9054404194,1707.4867976 16.2222642744,1738.8811168 27.9415828882,1739.10101207 27.4075290911,1763.39992124 30.027451138,1763.45392432 29.8343651491,1772.18580964 36.91491137,1772.31930971 35.9537475429,1819.92579884 " moovel_rot="-35.9" moovel_centroid="51.42779217419649,1691.40593019" moovel_centroidlatlon="16.463682953823614,48.24681832180289"></polygon></g><g transform="translate(-73.9006228 -999.0807666) rotate(0)"><polygon id="113516215" class="tile" points="166.312497471,2133.50309438 183.24122457,2112.19956038 198.040845056,2110.68323567 210.102310275,2119.67118516 241.242925972,2077.15529783 223.786669459,2055.27809089 208.626994386,2044.24574392 204.976401915,2029.12816721 166.296692965,2000.70213079 195.812935091,1962.03203914 234.155581607,2003.59570986 285.392665377,2063.29011688 232.505911707,2136.32313048 238.197213596,2140.38648579 232.310054405,2148.39973836 226.153907133,2144.3493415 215.339496581,2158.51622076 179.042726315,2134.2445038 175.640860356,2139.45945054 166.312497471,2133.50309438 " moovel_rot="10.8" moovel_centroid="223.978394369,2061.06802665" moovel_centroidlatlon="16.340571964861073,48.15924158075844"></polygon></g><g transform="translate(163.2490952 -346.02671499999997) rotate(0)"><polygon id="28209020" class="tile" points="1.04431129028,1347.62335043 47.5647550758,1349.42502963 50.5598406265,1347.51047191 55.4662144524,1322.78879975 59.4575921678,1296.17413921 64.5151366876,1252.89995724 63.7856993189,1236.73536488 59.6817270494,1218.11258292 53.8180039997,1201.0 1.0,1205.60526134 1.04431129028,1347.62335043 " moovel_rot="-34.2" moovel_centroid="30.44334252069908,1274.0871836188012" moovel_centroidlatlon="16.433093287859776,48.244367073253606"></polygon></g><g transform="translate(-342.23592870000004 -978.6368394) rotate(0)"><polygon id="371514352" class="tile" points="496.021853122,1936.54594726 495.926542458,1821.91385017 433.116481465,1822.44577042 432.972439677,1934.6848003 433.937892622,1935.97080401 436.485045436,1936.74643486 496.021853122,1936.54594726 " moovel_rot="37.6" moovel_centroid="464.533464,1879.43380655" moovel_centroidlatlon="16.475119159924503,48.22599437155758"></polygon></g><g transform="translate(196.8957074 -1573.2217461999999) rotate(0)"><polygon id="159538072" class="tile" points="35.4585481396,2773.30151656 52.5799619098,2768.86951513 50.1090933805,2477.19974598 35.7559228697,2481.20629814 35.7296355077,2508.06586481 35.6042440941,2626.05270367 35.5992588145,2634.87741539 35.4585481396,2773.30151656 " moovel_rot="-26.2" moovel_centroid="43.4928730644,2629.42003373" moovel_centroidlatlon="16.428746412396375,48.2840490903201"></polygon></g><g transform="translate(-299.6391628 -1658.3689932000002) rotate(0)"><polygon id="131348969" class="tile" points="366.245390923,2484.07211736 364.031128249,2544.56609424 363.82290277,2566.67812564 366.649405005,2596.15619484 346.531407207,2600.63783887 336.708745461,2573.64502024 322.686070683,2539.67810982 301.907265838,2494.86005661 312.349759218,2489.97796461 323.787611676,2484.63537372 332.62856756,2480.77684522 337.403540187,2479.66750373 363.751625572,2477.19974598 366.64581683,2480.13069773 366.245390923,2484.07211736 " moovel_rot="55.0" moovel_centroid="342.684822505,2529.45065073" moovel_centroidlatlon="16.45915790865848,48.22083559435071"></polygon></g><g transform="translate(-219.3570488 -797.2887491999999) rotate(0)"><polygon id="316508208" class="tile" points="452.844502459,1580.22795601 452.740103261,1642.98950104 411.926791753,1635.10813614 412.157657421,1636.8374576 392.345410684,1633.83378415 392.521764168,1651.22115991 378.053302151,1647.35942816 378.008648773,1567.89053575 399.138604299,1572.23044227 452.844502459,1580.22795601 " moovel_rot="80.1" moovel_centroid="413.822328368,1607.36563674" moovel_centroidlatlon="16.33442750576581,48.16855217087323"></polygon></g><g transform="translate(-425.3427836999999 -1451.3053307) rotate(0)"><polygon id="218429284" class="tile" points="493.03721548,2267.01887942 517.163172818,2193.87849555 528.224273972,2161.34482786 529.145664102,2158.51622076 532.537244364,2159.73615927 562.155351331,2169.66208349 528.543761978,2271.44259988 562.134368261,2282.61435224 559.888649222,2289.79803825 527.089465527,2283.17017884 497.270124133,2273.18904221 498.59671433,2268.92744433 493.03721548,2267.01887942 " moovel_rot="88.6" moovel_centroid="528.279140414,2224.90193027" moovel_centroidlatlon="16.47377960875112,48.258027622703025"></polygon></g><g transform="translate(-29.860498699999994 -367.89003949999994) rotate(0)"><polygon id="339439322" class="tile" points="302.492555987,1567.89053575 294.916614231,1521.70832028 300.656788101,1378.63663058 304.449799273,1278.81547596 302.640988063,1201.0 296.320086184,1201.38215803 284.329882272,1202.11259557 283.680893868,1210.46688019 294.975817785,1211.5174129 296.257049982,1273.17904501 295.412752967,1313.33285709 295.082288879,1320.62596452 292.032901963,1388.09729995 289.892018916,1434.93820165 289.191986411,1452.88231025 285.955752242,1524.69565275 284.160543538,1567.53742706 302.492555987,1567.89053575 " moovel_rot="-20.8" moovel_centroid="295.437027306,1393.757917027195" moovel_centroidlatlon="16.437826236038436,48.17319666757281"></polygon></g><g transform="translate(93.52455370000001 -1133.4594732) rotate(0)"><polygon id="30617884" class="tile" points="145.481455548,1821.91385017 176.903950741,1822.16646483 176.95214941,1962.03203914 144.915778912,1944.73437046 145.481455548,1821.91385017 " moovel_rot="-12.6" moovel_centroid="161.402431938,1888.02880547" moovel_centroidlatlon="16.538933793948907,48.18240118524326"></polygon></g><g transform="translate(-377.0167379 -1588.0248529) rotate(0)"><polygon id="98621679" class="tile" points="391.588696747,2312.26733769 393.045990845,2307.75351897 395.468834498,2305.63007552 398.619063152,2305.15255542 421.725971968,2310.62999574 421.249110554,2312.92769515 426.518355442,2314.35737357 428.181923219,2314.19721635 427.994480802,2306.52899272 431.4830575,2306.44880975 432.469428647,2339.11837151 425.987695252,2368.89615872 429.585383401,2369.69949036 430.73119612,2370.57042041 431.758352308,2371.80112333 432.385035276,2373.69323377 432.439151976,2375.73547461 426.773551744,2403.2793887 404.258727923,2398.61860325 402.486471012,2399.015983 401.638425722,2402.52633448 393.067231583,2400.38359399 387.766239033,2379.23837657 385.687881855,2374.65987411 381.854801858,2369.24444227 381.213869987,2364.8198767 382.401613272,2349.51915145 383.367196565,2344.91203565 379.445765877,2343.71943233 381.924154277,2333.5406828 386.744559029,2334.45708575 391.588696747,2312.26733769 " moovel_rot="-7.9" moovel_centroid="408.057642494,2353.91919761" moovel_centroidlatlon="16.34135991992583,48.25421586433305"></polygon></g><g transform="translate(-12.749609499999991 -1611.5282025000001) rotate(0)"><polygon id="301646807" class="tile" points="155.306213677,2374.98248381 153.224598781,2348.38855843 158.080078177,2347.92319094 157.534968733,2342.11783038 153.532946743,2342.50908764 154.517788963,2329.70220544 153.218894554,2310.7742135 217.103887139,2305.15255542 219.328971392,2326.1920503 215.434463052,2332.57164846 217.234501052,2349.92918305 215.674796511,2350.00244147 217.284688776,2366.92235592 209.361999312,2376.60845266 195.73630202,2371.8357301 155.306213677,2374.98248381 " moovel_rot="-13.0" moovel_centroid="186.067126414,2340.41020133" moovel_centroidlatlon="16.290607883738435,48.15137626528035"></polygon></g><g transform="translate(44.1434332 -1552.2003357000003) rotate(0)"><polygon id="80043341" class="tile" points="0.0,2255.06766978 22.224298153,2274.75280162 28.1140926836,2279.63113649 38.4760917119,2285.01833491 41.4613119397,2284.73024145 46.8850311281,2282.36970335 46.7818909407,2159.20319922 29.7143752215,2158.51622076 14.4011286227,2208.25639507 0.0,2255.06766978 " moovel_rot="-44.3" moovel_centroid="29.76665675225604,2225.98684675" moovel_centroidlatlon="16.44169984486652,48.212847732789875"></polygon></g><g transform="translate(-249.80585639999998 -304.7723229999999) rotate(0)"><polygon id="61118225" class="tile" points="529.401959411,1201.0 538.57340337,1201.03246585 538.393689382,1504.77233007 529.22244342,1504.73967698 529.401959411,1201.0 " moovel_rot="46.6" moovel_centroid="533.897874692,1352.8855720916579" moovel_centroidlatlon="16.487549800000004,48.17987314999999"></polygon></g><g transform="translate(-229.61264160000002 -1547.4881309) rotate(0)"><polygon id="31251419" class="tile" points="270.193682569,2169.43980802 283.678157099,2167.03663462 283.290994277,2159.20318983 232.112636358,2158.51622076 232.201583734,2248.32187899 275.685856328,2228.11479623 273.551937273,2217.50432783 270.937809369,2198.80505068 273.899358415,2198.45811578 270.193682569,2169.43980802 " moovel_rot="59.4" moovel_centroid="252.346665077,2198.34156085" moovel_centroidlatlon="16.430868038496275,48.16674948939064"></polygon></g><g transform="translate(-398.55038339999993 -956.1765661) rotate(0)"><polygon id="129908380" class="tile" points="531.265920659,1567.98780173 524.070600195,1569.02748984 523.755942006,1581.91673189 523.808774842,1593.25202601 525.008754769,1665.92352015 534.21814908,1665.66188769 533.178041093,1611.42359888 580.62471309,1611.33069186 579.843063909,1569.65268985 580.612780027,1567.89053575 531.265920659,1567.98780173 " moovel_rot="-18.5" moovel_centroid="548.222925236,1598.01148758" moovel_centroidlatlon="16.30844772674365,48.13431102626655"></polygon></g><g transform="translate(-59.54340719999999 -1228.449742) rotate(0)"><polygon id="333995279" class="tile" points="347.211924205,1825.56633551 342.058077519,1825.43467774 342.000215652,1829.40567269 323.058387873,1829.45194505 323.056175995,1858.15922426 320.477947377,1858.14118771 320.210377751,1876.90526647 347.156192921,1876.88357041 347.15798447,1909.346591 343.626539471,1909.51201558 343.247119567,1913.83470325 330.309724997,1912.17713587 331.32170751,1907.53342213 327.582408798,1909.70731619 298.456944563,1864.41665169 302.224024513,1861.84361947 295.615916455,1851.77853105 291.913152862,1854.14944125 288.965340375,1849.94074377 288.919505097,1825.20264046 293.547454461,1825.13287917 293.691603445,1824.31818431 301.682609683,1822.73524509 347.237221952,1821.91385017 347.211924205,1825.56633551 " moovel_rot="79.5" moovel_centroid="318.505333904,1862.67412473" moovel_centroidlatlon="16.41085184791812,48.28201656237309"></polygon></g><g transform="translate(-248.36880759999997 -1632.4496510999998) rotate(0)"><polygon id="159555220" class="tile" points="431.217533811,2234.35199082 438.186609903,2248.76897209 467.6005017,2252.76727382 470.410503732,2230.01362897 484.934303222,2213.82289398 458.334984841,2158.51622076 431.257315318,2171.5751608 455.60399232,2221.98636643 431.217533811,2234.35199082 " moovel_rot="-31.4" moovel_centroid="457.110380165,2207.34636166" moovel_centroidlatlon="16.428531049557666,48.26771036127363"></polygon></g><g transform="translate(-234.95262699999998 -102.34801149999998) rotate(0)"><polygon id="57837699" class="tile" points="443.936716295,1301.50086636 423.16211287,1302.35012277 410.650315512,1285.67063239 426.956367773,1268.31532944 401.237635642,1237.49272761 433.082548261,1201.0 444.00209101,1216.83830494 443.936716295,1301.50086636 " moovel_rot="-67.9" moovel_centroid="428.819632448,1253.3868067894084" moovel_centroidlatlon="16.37777368189801,48.297120661655796"></polygon></g><g transform="translate(95.5122346 -1453.1649900999998) rotate(0)"><polygon id="26447860" class="tile" points="0.0634419165552,2058.56626672 24.4135354847,1979.28327844 0.0,1971.77093283 2.46404030398,1963.72581263 2.98976334874,1962.03203914 21.8054336071,1967.82673567 43.1323500641,1975.14190077 45.5119996503,1981.38068226 50.4045369409,1982.90549949 24.8220697353,2066.18715577 0.0634419165552,2058.56626672 " moovel_rot="-78.9" moovel_centroid="24.48387096830963,2013.9853444" moovel_centroidlatlon="16.280323365571345,48.19251682874631"></polygon></g><g transform="translate(-120.13368200000001 -691.9140076000001) rotate(0)"><polygon id="32057209" class="tile" points="195.827402442,1292.85972946 190.723173468,1201.0 165.613901862,1203.3101681 165.610193009,1298.56834746 195.827402442,1292.85972946 " moovel_rot="-21.2" moovel_centroid="179.41822579,1250.4039731406456" moovel_centroidlatlon="16.418303914140235,48.292351154492636"></polygon></g><g transform="translate(-100.62366079999998 -1440.2014606000002) rotate(0)"><polygon id="59275891" class="tile" points="348.680071483,1962.51106844 365.517520699,1964.62966602 365.840842853,1962.03203914 391.834535752,1965.17785944 396.65397247,1965.79543258 393.0514398,1991.5917545 390.849228359,2011.34549462 396.702363007,2020.57559766 383.098520065,2029.01080485 377.283607744,2020.01994534 339.197118354,2014.21470169 340.607125096,2003.47492877 361.505191301,2005.89936679 362.993515128,1991.73774674 344.475646337,1988.92014976 348.680071483,1962.51106844 " moovel_rot="-17.0" moovel_centroid="371.569549632,1991.86315716" moovel_centroidlatlon="16.47655214025112,48.23758462126343"></polygon></g><g transform="translate(-157.194275 -1463.2886276) rotate(0)"><polygon id="204440321" class="tile" points="316.987194743,2032.55566634 316.849542098,2022.06612484 317.319301564,1962.03203914 332.533254459,1962.99326134 332.547065976,2064.48967753 325.693632843,2064.49772487 325.693408405,2070.02938018 296.088310467,2070.05502985 296.081284874,2032.56595227 316.987194743,2032.55566634 " moovel_rot="-7.7" moovel_centroid="318.784056581,2026.96735879" moovel_centroidlatlon="16.42897446969041,48.26315465177572"></polygon></g><g transform="translate(-8.531420400000002 -2036.2746300000001) rotate(0)"><polygon id="155120099" class="tile" points="189.50037102,2513.14469607 195.981887357,2521.81443659 203.642541787,2523.63601244 231.497131898,2564.13225989 228.515410846,2571.65452412 230.723132351,2575.40927862 251.031592337,2562.13800248 220.832949222,2517.24314706 251.075817398,2495.19961754 239.024181828,2477.19974598 189.50037102,2513.14469607 " moovel_rot="10.1" moovel_centroid="224.451778981,2521.80294028" moovel_centroidlatlon="16.422923413717253,48.23792874658851"></polygon></g><g transform="translate(-253.5652683 -1062.8019115) rotate(0)"><polygon id="28169224" class="tile" points="270.659026623,1668.9007255 286.142437633,1669.23331653 286.201956192,1567.89053575 256.03603542,1574.11017113 270.659026623,1668.9007255 " moovel_rot="-34.0" moovel_centroid="274.449910286,1614.64248702" moovel_centroidlatlon="16.402829613751685,48.212542409128496"></polygon></g><g transform="translate(29.364688599999994 -1191.5198628) rotate(0)"><polygon id="217187377" class="tile" points="199.527712156,1919.26747422 202.60950372,1918.6537809 203.792822384,1880.52720292 203.813018735,1821.91385017 183.993439806,1822.90244717 180.198454078,1825.14911892 177.95214941,1829.77423337 180.295565864,1871.78057347 182.43347195,1910.01735773 184.417018702,1918.15490545 187.57046551,1920.11557323 199.527712156,1919.26747422 " moovel_rot="68.7" moovel_centroid="191.996924337,1868.88301679" moovel_centroidlatlon="16.452971420714935,48.15131806939189"></polygon></g><g transform="translate(-405.0329397 -1520.06211) rotate(0)"><polygon id="28801278" class="tile" points="407.915293944,1969.79521192 407.532860967,2020.0617816 449.447179054,2020.26037867 449.425233378,1962.03203914 429.862996051,1963.07397949 429.307461103,1970.38080502 407.915293944,1969.79521192 " moovel_rot="-47.1" moovel_centroid="429.32758238,1993.24132785" moovel_centroidlatlon="16.420764180547195,48.21246043144093"></polygon></g><g transform="translate(-203.68652690000005 -1533.1795230999999) rotate(0)"><polygon id="336060965" class="tile" points="452.13480487,2050.41623598 476.385831708,2049.86441752 476.458995165,2023.79674995 476.479916364,1962.45463652 472.19196683,1962.03203914 450.447179054,1962.78885619 450.790865499,1980.77783807 455.410933195,1980.63533339 455.53019602,1984.37559576 450.869962533,1984.52303205 451.506624255,2017.69477396 454.850921968,2018.5153163 457.357497756,2021.03990398 458.139881256,2024.13791497 457.451690615,2027.29536411 455.222160807,2029.71122112 451.758521679,2030.84168826 452.13480487,2050.41623598 " moovel_rot="73.5" moovel_centroid="464.246214168,2005.37855337" moovel_centroidlatlon="16.355093868539576,48.136000870937416"></polygon></g><g transform="translate(-213.2691645 -1711.9625511) rotate(0)"><polygon id="31568880" class="tile" points="290.683212932,2158.51622076 304.066311409,2158.56423093 330.03386057,2158.54465891 330.021270211,2167.06970152 329.329930475,2170.91433329 290.724074127,2254.5492969 290.683212932,2158.51622076 " moovel_rot="80.9" moovel_centroid="305.131800478,2190.92516536" moovel_centroidlatlon="16.41423583030492,48.27375086065545"></polygon></g><g transform="translate(-351.89530030000003 -1299.4151741) rotate(0)"><polygon id="426492370" class="tile" points="568.333293466,2305.15255542 578.252918522,2310.35622689 578.409400418,2477.19974598 567.172523301,2470.38933513 568.333293466,2305.15255542 " moovel_rot="-28.6" moovel_centroid="573.041364073,2392.50344777" moovel_centroidlatlon="16.498304148366085,48.28496003288662"></polygon></g><g transform="translate(-261.62488499999995 -1406.5453955) rotate(0)"><polygon id="166155595" class="tile" points="416.739127439,1825.7586116 396.000559442,1821.91385017 395.96756496,1921.89494051 416.670646679,1922.11165708 416.739127439,1825.7586116 " moovel_rot="69.3" moovel_centroid="406.28073021,1872.89876728" moovel_centroidlatlon="16.461045269225206,48.22027480248232"></polygon></g><g transform="translate(-319.21296279999996 -1593.8220274) rotate(0)"><polygon id="237477810" class="tile" points="520.595447517,2049.69825162 519.5154442,2033.89981631 496.374444993,2034.89264337 492.427028496,1992.4552743 520.690303327,1975.82600658 512.41680541,1962.03203914 478.88230477,1981.52890665 477.479916364,1990.91650004 482.358399636,2050.39564339 520.595447517,2049.69825162 " moovel_rot="-45.8" moovel_centroid="495.414751877,2010.63239391" moovel_centroidlatlon="16.438425880128495,48.23996383588838"></polygon></g><g transform="translate(-304.2121895 -1188.9550491999998) rotate(0)"><polygon id="402409403" class="tile" points="369.996044383,1642.64725522 377.008648773,1634.47747109 376.985771816,1568.01431338 364.290694274,1567.89053575 332.388296096,1610.65174699 345.556818205,1622.24461896 369.996044383,1642.64725522 " moovel_rot="16.9" moovel_centroid="361.204880979,1604.724539" moovel_centroidlatlon="16.388493209990827,48.27540180222072"></polygon></g><g transform="translate(-331.71160779999997 -1959.7981648999998) rotate(0)"><polygon id="304913646" class="tile" points="450.51630263,2305.15255542 461.023639537,2307.12594128 461.075096199,2397.3385267 461.078260346,2402.52067513 433.469428647,2399.99895355 434.664844686,2389.11746982 439.994878967,2360.80857464 438.624119604,2360.55599131 450.51630263,2305.15255542 " moovel_rot="-4.1" moovel_centroid="450.488527062,2360.44385781" moovel_centroidlatlon="16.37273119821405,48.23821243241704"></polygon></g><g transform="translate(-189.3293761 -943.8325619000001) rotate(0)"><polygon id="226204756" class="tile" points="481.225064835,1463.82987713 483.531548642,1464.14076085 485.579368724,1464.41640368 485.498750274,1201.0 483.255834599,1201.10215779 481.217679269,1201.18963261 481.225064835,1463.82987713 " moovel_rot="42.8" moovel_centroid="483.381335331,1332.9808900033395" moovel_centroidlatlon="16.423168524298372,48.21012612415079"></polygon></g><g transform="translate(-79.88570399999999 -1842.5414039) rotate(0)"><polygon id="190810920" class="tile" points="96.0977005764,2158.7702172 82.3857063235,2158.51622076 82.403844454,2287.29231775 93.2632615813,2286.80678406 93.0713221253,2270.6257455 96.9660252939,2270.50172732 96.0977005764,2158.7702172 " moovel_rot="79.6" moovel_centroid="89.2904251221,2221.58761261" moovel_centroidlatlon="16.437918448703122,48.28755199374253"></polygon></g><g transform="translate(-464.91931370000003 -918.3179117) rotate(0)"><polygon id="136447730" class="tile" points="486.579368724,1292.19609604 486.724159677,1201.0 505.493399605,1201.02501551 505.894347455,1288.99994788 497.607588052,1308.66986107 492.233959845,1307.75428182 496.253687441,1295.7481199 486.579368724,1292.19609604 " moovel_rot="-26.6" moovel_centroid="496.243321397,1250.1963162911509" moovel_centroidlatlon="16.33292863170877,48.164388007105565"></polygon></g><g transform="translate(-95.07688160000001 -277.31011309999997) rotate(0)"><polygon id="241010315" class="tile" points="97.6000719087,1265.17279792 102.819712482,1269.12085947 104.313268986,1269.11457683 121.592046584,1269.06137338 123.085600755,1269.0550887 128.228609193,1265.06218575 128.225101274,1247.96205811 128.2100809,1212.19244751 128.213060502,1210.89901739 123.49508709,1207.21259271 123.486421495,1201.0 112.213177827,1201.03772695 101.445725831,1201.07439221 101.454401455,1207.2869937 97.5768801488,1211.00293856 97.5763175546,1212.83998018 97.5899974886,1248.26221522 97.6000719087,1265.17279792 " moovel_rot="-48.8" moovel_centroid="112.86511136,1235.7633337459065" moovel_centroidlatlon="16.419902741557173,48.23015448546043"></polygon></g><g transform="translate(-48.966427700000004 -1537.2288849) rotate(0)"><polygon id="59275892" class="tile" points="133.494724976,1829.91612924 132.747598591,1832.17883149 118.678829753,1878.08446543 124.775487327,1892.47948139 133.455678472,1894.93979718 133.379568162,1906.16258737 119.538391502,1911.43922105 94.4180833263,1852.36679724 96.392069347,1851.05896512 105.495096403,1821.91385017 133.494724976,1829.91612924 " moovel_rot="82.4" moovel_centroid="114.965140777,1860.94466744" moovel_centroidlatlon="16.477497585039323,48.23752585506937"></polygon></g><g transform="translate(-270.9375427 -1876.6224337) rotate(0)"><polygon id="140560349" class="tile" points="429.941577482,2158.51622076 430.217533811,2195.77651113 410.825597547,2195.43150179 410.274107924,2241.27609426 429.90053926,2241.49065502 429.360913785,2259.34120261 405.274185121,2266.9043447 405.250991741,2161.75380285 429.941577482,2158.51622076 " moovel_rot="46.5" moovel_centroid="416.043021737,2207.60317421" moovel_centroidlatlon="16.457965559728752,48.24247335550057"></polygon></g><g transform="translate(-224.6276937 -2018.8565166) rotate(0)"><polygon id="31482598" class="tile" points="314.109064139,2307.48323493 318.762518347,2305.15255542 321.555319025,2305.59396693 328.470318005,2306.90305463 329.463078557,2308.42147744 324.572474833,2362.6587326 329.277066183,2368.26611486 329.516552504,2387.74174335 327.731744679,2389.65173235 327.413233738,2403.30131935 324.906119516,2404.86398832 325.203964088,2434.03744534 314.122864969,2429.49927946 314.109064139,2307.48323493 " moovel_rot="-29.8" moovel_centroid="320.726572268,2366.83640068" moovel_centroidlatlon="16.421049348195883,48.27444556729909"></polygon></g><g transform="translate(97.72093149999999 -2201.5586876) rotate(0)"><polygon id="28370675" class="tile" points="86.698454491,2478.17753797 86.7914724004,2565.26349587 65.8399449616,2565.09543027 66.9008336796,2504.62354908 67.2640010414,2477.19974598 86.698454491,2478.17753797 " moovel_rot="74.7" moovel_centroid="76.6480611748,2521.9918212" moovel_centroidlatlon="16.438814728773426,48.15735107161979"></polygon></g><g transform="translate(92.4167793 -790.4321423000001) rotate(0)"><polygon id="168163526" class="tile" points="0.0,1831.81343916 1.49105765093,1833.63311823 1.47931003324,1895.83035263 26.8257309082,1897.54641183 26.8787943993,1821.91385017 10.7537568179,1827.54399816 0.0,1831.81343916 " moovel_rot="-28.2" moovel_centroid="14.484459387783653,1861.47097888" moovel_centroidlatlon="16.468547092696863,48.20854543423929"></polygon></g><g transform="translate(-62.656437100000005 -2200.586822) rotate(0)"><polygon id="27007838" class="tile" points="280.917109578,2481.36072874 281.073283746,2478.66573064 252.075817398,2477.19974598 252.15679069,2539.53012581 280.917806476,2540.21318298 280.917109578,2481.36072874 " moovel_rot="78.1" moovel_centroid="266.488661938,2508.88134997" moovel_centroidlatlon="16.406398937115927,48.14132805851452"></polygon></g><g transform="translate(-125.95926670000003 -1827.4576862000001) rotate(0)"><polygon id="352776107" class="tile" points="349.242270099,2158.5227905 349.22183674,2261.03563226 349.220868272,2263.54859801 351.337372198,2263.54774279 354.386170915,2263.54107881 363.400628269,2263.54198367 363.402302903,2255.95261937 363.417556212,2164.25192673 363.422037159,2158.51622076 357.248739322,2158.52125423 349.242270099,2158.5227905 " moovel_rot="-9.0" moovel_centroid="356.320820802,2211.0336299" moovel_centroidlatlon="16.451025687709166,48.285444388784036"></polygon></g><g transform="translate(136.22058289999998 -1298.9066445) rotate(0)"><polygon id="32427489" class="tile" points="109.653145473,1567.89053575 119.785893554,1589.30028151 117.58071019,1625.21830575 87.0745255336,1624.74498764 88.5113937849,1580.38236409 87.0957687262,1575.17785525 100.53837675,1571.34430134 109.653145473,1567.89053575 " moovel_rot="63.9" moovel_centroid="103.014564204,1598.98804435" moovel_centroidlatlon="16.25729668578119,48.16650706458636"></polygon></g><g transform="translate(-203.14713010000003 -1981.3510494) rotate(0)"><polygon id="250816799" class="tile" points="462.099021166,2405.20017546 462.078260346,2305.62425538 476.065795984,2305.15255542 476.112238057,2405.22219849 462.099021166,2405.20017546 " moovel_rot="70.6" moovel_centroid="469.094609263,2355.31486357" moovel_centroidlatlon="16.313957117208,48.13218140431981"></polygon></g><g transform="translate(-102.8683645 -1905.9217500999998) rotate(0)"><polygon id="28371178" class="tile" points="227.489318204,2158.51622076 227.596621348,2160.94833424 230.739176668,2230.87163983 231.112636358,2242.44314901 225.603122203,2245.39922676 209.746298926,2248.65858987 209.745767348,2240.57535205 214.294377603,2240.29386875 211.526585639,2163.12914602 227.489318204,2158.51622076 " moovel_rot="-43.5" moovel_centroid="220.994614166,2204.56407353" moovel_centroidlatlon="16.404489096645683,48.19245027923772"></polygon></g><g transform="translate(-105.05387309999999 -1928.5944527) rotate(0)"><polygon id="29132093" class="tile" points="164.528882681,2207.56118865 208.745767348,2210.5379797 208.679524666,2159.63555675 169.41417113,2158.51622076 168.691237038,2166.72135932 184.556428654,2166.94922743 193.987301357,2167.51460097 193.295979198,2195.99565264 165.512269949,2194.2298093 164.528882681,2207.56118865 " moovel_rot="-23.6" moovel_centroid="192.008769918,2186.44004188" moovel_centroidlatlon="16.43245531602831,48.17204595244612"></polygon></g><g transform="translate(-265.33966999999996 -2080.0341394) rotate(0)"><polygon id="147188639" class="tile" points="522.958869931,2305.53339464 551.661479815,2305.15255542 553.337177069,2330.03410395 550.981112411,2345.25257659 549.878979267,2345.24034924 549.933791005,2349.60016969 538.782236692,2349.64520897 538.820987931,2361.9168959 522.951675487,2362.20377552 522.979744235,2354.68014995 522.927343903,2320.24181136 522.958869931,2305.53339464 " moovel_rot="-24.0" moovel_centroid="536.684937228,2331.06853488" moovel_centroidlatlon="16.411059038994264,48.185634450015705"></polygon></g><g transform="translate(89.8731636 -2083.5906698999997) rotate(0)"><polygon id="194350741" class="tile" points="54.2319294943,2360.53688561 51.6860667145,2360.94226978 47.286126685,2361.63271308 43.985921187,2359.1710821 36.3035190012,2316.92368808 53.2398459798,2312.8064158 54.2541353222,2316.18613263 57.7547235975,2314.45631961 59.7324427351,2311.37454669 59.7277220456,2305.37545635 66.9065586481,2305.15255542 66.6195544565,2311.25293077 70.8683529446,2311.14746066 70.8298220934,2357.90952478 54.2319294943,2360.53688561 " moovel_rot="-88.9" moovel_centroid="55.7926250719,2334.87900801" moovel_centroidlatlon="16.280173025507356,48.19864181127848"></polygon></g><g transform="translate(8.209653799999998 -1861.8751734000002) rotate(0)"><polygon id="177044577" class="tile" points="87.7914724004,2559.40112626 105.473744293,2558.32968767 103.341186401,2477.31511098 87.8754078023,2477.19974598 87.7914724004,2559.40112626 " moovel_rot="-30.9" moovel_centroid="96.1129434969,2518.97721954" moovel_centroidlatlon="16.401711312052335,48.25443748139625"></polygon></g><g transform="translate(16.2896681 -1341.0312786) rotate(0)"><polygon id="33362216" class="tile" points="149.446758965,1574.53636318 149.872268832,1611.72548599 184.764602768,1612.96482684 184.818769479,1567.89053575 149.446758965,1574.53636318 " moovel_rot="-21.1" moovel_centroid="167.783804215,1591.68607996" moovel_centroidlatlon="16.40378959957411,48.274065910785204"></polygon></g><g transform="translate(-15.169550600000008 -1368.4356114) rotate(0)"><polygon id="231600070" class="tile" points="244.924701976,1569.85076248 233.564284308,1567.89053575 223.463464491,1569.04711405 220.909809246,1569.89380494 218.451092932,1570.70904404 217.190959476,1578.43057488 220.088243543,1591.50671436 222.883298122,1603.27090243 225.291994988,1612.10638518 227.75970756,1624.43815379 231.110541578,1638.59050977 240.720352414,1639.00278852 240.336999013,1626.04228207 241.88753373,1612.9472807 244.270664925,1601.79631602 244.913036019,1587.85995081 244.924701976,1569.85076248 " moovel_rot="75.5" moovel_centroid="232.820966233,1597.66736969" moovel_centroidlatlon="16.372253829829287,48.13871047501066"></polygon></g><g transform="translate(128.66356240000002 -511.71056569999996) rotate(0)"><polygon id="282445422" class="tile" points="164.610193009,1201.53065865 157.872214346,1203.65381268 157.840443391,1212.46096968 153.442842251,1212.63769624 153.35327717,1203.58504144 148.004356689,1201.43059438 146.765138886,1201.0 146.861130696,1266.65750708 151.022626009,1266.59002091 152.875180824,1273.36322906 152.847894942,1281.79565013 158.077049013,1281.78907458 158.390378452,1273.43879354 160.016070451,1266.63776623 164.438791207,1266.89564791 164.610193009,1201.53065865 " moovel_rot="63.7" moovel_centroid="155.654842349,1238.5898317184965" moovel_centroidlatlon="16.438720306737377,48.25517845969608"></polygon></g><g transform="translate(-125.6902618 -1030.019573) rotate(0)"><polygon id="26565440" class="tile" points="128.20671343,2207.05617563 128.190093137,2189.32463769 128.882342914,2158.51622076 145.246132259,2159.37668474 146.506478705,2202.37971006 147.024130662,2229.44204075 128.19025798,2230.02077743 128.20671343,2207.05617563 " moovel_rot="58.3" moovel_centroid="137.257183103,2195.14721622" moovel_centroidlatlon="16.376800803829806,48.2098988809375"></polygon></g><g transform="translate(51.935421800000015 -1793.2559808) rotate(0)"><polygon id="295019513" class="tile" points="52.4045369409,1992.9570697 54.0969270952,2007.28254395 84.2653433419,2002.96192271 83.7536101037,1998.60401754 87.7570298243,1996.17204519 86.3237346038,2006.23133482 83.3344166955,2008.56140547 82.51303004,2005.93085142 54.4845967985,2008.88704211 55.7758993906,2018.57916094 56.3335868454,2022.78587375 80.7799249461,2019.87213704 80.6345978503,2015.75969454 83.7032246164,2015.09294348 89.365828376,2011.3068849 91.8311604582,2004.94677157 91.8507303682,1987.90421192 90.021832501,1972.00766398 89.2346743879,1967.06140625 90.4443049152,1964.20615318 91.3894923251,1962.03203914 81.9328201093,1962.21856786 84.0812568977,1965.17582956 86.8878562836,1989.08489714 83.4616563085,1992.04762537 82.9336496643,1989.27971761 57.1320726889,1992.21800331 52.4045369409,1992.9570697 " moovel_rot="-10.8" moovel_centroid="73.7558855036,2000.82751091" moovel_centroidlatlon="16.25075482805205,48.2070973899137"></polygon></g><g transform="translate(-189.7307059 -1019.4159086) rotate(0)"><polygon id="169561667" class="tile" points="253.459590716,1201.0 282.621723671,1201.42807524 282.680893868,1245.07888117 251.847532454,1244.27759906 253.459590716,1201.0 " moovel_rot="-12.6" moovel_centroid="267.668305386,1223.149058125937" moovel_centroidlatlon="16.369442269188244,48.16594345684066"></polygon></g><g transform="translate(-244.46178109999997 -1049.3977284) rotate(0)"><polygon id="173238563" class="tile" points="392.792804373,1821.91385017 367.165168742,1825.92253771 367.562580365,1833.53774026 367.888741717,1845.15069317 367.156558967,1870.91225895 394.96756496,1870.00146737 392.792804373,1821.91385017 " moovel_rot="58.9" moovel_centroid="380.873373074,1847.49175595" moovel_centroidlatlon="16.25264702913418,48.150497877564945"></polygon></g><g transform="translate(-42.649638100000004 -803.9521546999999) rotate(0)"><polygon id="306854491" class="tile" points="135.030323164,2003.95323929 165.296692965,2003.05823022 164.532331927,1962.03203914 135.031322908,1962.38673713 135.030323164,2003.95323929 " moovel_rot="-80.9" moovel_centroid="149.941876112,1982.9469182" moovel_centroidlatlon="16.436949756017782,48.270294637628005"></polygon></g><g transform="translate(-495.4661169 -1114.7019119) rotate(0)"><polygon id="305394301" class="tile" points="580.027449453,2041.91230097 566.472071689,2041.89425396 566.437252289,1962.03203914 579.992685486,1962.05006972 580.027449453,2041.91230097 " moovel_rot="73.5" moovel_centroid="573.232364951,2001.97213873" moovel_centroidlatlon="16.459533149999995,48.17632695000001"></polygon></g><g transform="translate(-354.3853253000001 -1652.5210148) rotate(0)"><polygon id="71175257" class="tile" points="516.43852076,1821.91385017 515.392032848,1871.4242134 538.788542275,1873.06382897 538.768747956,1822.47782964 516.43852076,1821.91385017 " moovel_rot="-11.6" moovel_centroid="527.383919117,1847.41823286" moovel_centroidlatlon="16.359605345061812,48.17139935516035"></polygon></g><g transform="translate(-48.54203100000001 -2098.8375106) rotate(0)"><polygon id="157688024" class="tile" points="283.366484619,2362.7381758 283.293204576,2305.27017259 313.084033046,2305.15255542 313.109064139,2310.03481265 313.090010045,2319.24474669 299.130323576,2319.25817629 299.076682577,2349.7652679 296.095992824,2349.76483648 296.071650676,2362.80201873 283.366484619,2362.7381758 " moovel_rot="-57.0" moovel_centroid="293.736122999,2329.13203269" moovel_centroidlatlon="16.37936033273644,48.24773816260979"></polygon></g><g transform="translate(42.37292830000001 -1719.7970501) rotate(0)"><polygon id="338934349" class="tile" points="240.921181305,1822.72200711 226.934805257,1821.91385017 229.727359778,1828.05061058 233.814266096,1849.92199761 234.348686701,1869.3440301 233.050136227,1908.21936634 230.577615106,1922.85030441 227.070940865,1934.77784421 231.51476023,1940.14449702 233.764397882,1939.59193302 237.464065765,1908.98530234 239.607824204,1892.22049698 241.43122675,1865.94686591 242.039392415,1838.49302032 240.921181305,1822.72200711 " moovel_rot="76.2" moovel_centroid="235.934310908,1871.94718201" moovel_centroidlatlon="16.343918012822858,48.16998950269409"></polygon></g><g transform="translate(-380.1912962 -1074.9592012) rotate(0)"><polygon id="108893861" class="tile" points="445.00209101,1251.55986855 480.125568758,1250.99707076 480.217679269,1248.62625927 478.614675819,1248.61618117 477.793766751,1202.86801544 478.90094473,1202.71773872 478.753325759,1201.0 460.489938289,1201.31617684 460.788518206,1219.13750377 460.985242547,1230.6314052 461.106770939,1235.4926591 461.222598646,1241.40918538 445.924431872,1241.37105001 445.004614581,1241.31764235 445.00209101,1251.55986855 " moovel_rot="-55.7" moovel_centroid="467.013624311,1229.4069367712157" moovel_centroidlatlon="16.380303306206674,48.24360529708853"></polygon></g><g transform="translate(-276.6846363 -2040.4435603999998) rotate(0)"><polygon id="130750436" class="tile" points="379.936289519,2204.54838729 404.250991741,2204.76912738 404.203353704,2158.85934099 380.501623833,2158.51622076 379.936289519,2204.54838729 " moovel_rot="-17.7" moovel_centroid="392.216875663,2181.77089652" moovel_centroidlatlon="16.307353042351973,48.13139606165696"></polygon></g><g transform="translate(91.4294638 -2053.9584443000003) rotate(0)"><polygon id="134990940" class="tile" points="107.438195737,2158.54756233 97.9788355443,2158.51622076 97.9660252939,2254.80979471 107.420393309,2254.83669811 107.438195737,2158.54756233 " moovel_rot="42.4" moovel_centroid="102.700826947,2206.67333234" moovel_centroidlatlon="16.428657782342867,48.20877418068994"></polygon></g><g transform="translate(-53.264360400000015 -1445.1306275) rotate(0)"><polygon id="26257407" class="tile" points="212.698938586,1570.0452264 212.290167779,1580.84658789 216.190959476,1580.98914167 215.986479575,1609.54063315 190.869057245,1607.92015091 190.97717162,1602.68594499 185.823211098,1602.23697374 185.818769479,1579.93700827 190.736116774,1580.04088117 190.603575065,1567.89053575 212.698938586,1570.0452264 " moovel_rot="63.8" moovel_centroid="201.430236405,1589.60072804" moovel_centroidlatlon="16.251728414191774,48.203175992224885"></polygon></g><g transform="translate(140.88982199999998 -2021.6254771) rotate(0)"><polygon id="320770705" class="tile" points="67.2522650846,2215.33548957 62.9613014835,2215.28244464 63.3988554503,2158.8919312 81.3798431856,2158.51622076 81.3857063235,2216.10458687 73.6817365001,2216.13184866 73.6740843399,2215.31576462 67.2522650846,2215.33548957 " moovel_rot="-50.1" moovel_centroid="72.3223332981,2187.2966781" moovel_centroidlatlon="16.388155843382027,48.18401303201813"></polygon></g><g transform="translate(150.6448343 -1705.3136449) rotate(0)"><polygon id="28995962" class="tile" points="74.3407070471,1824.94850974 93.4180833263,1821.91385017 88.4496448487,1857.0317745 93.3562821573,1903.92734451 85.2931759523,1906.89184734 74.3407070471,1824.94850974 " moovel_rot="56.6" moovel_centroid="84.9957444749,1858.52362397" moovel_centroidlatlon="16.33151648161101,48.26723876731351"></polygon></g><g transform="translate(65.3471514 -1171.3311132000001) rotate(0)"><polygon id="9381558" class="tile" points="120.785893554,1568.1606703 120.882985194,1606.16885958 148.437331622,1606.64627457 148.44047611,1602.97590929 148.446758965,1567.89053575 120.785893554,1568.1606703 " moovel_rot="-15.9" moovel_centroid="134.683627288,1587.2045318" moovel_centroidlatlon="16.447158502970524,48.23349961656206"></polygon></g><g transform="translate(-5.974377000000004 -1312.8468503000001) rotate(0)"><polygon id="313711335" class="tile" points="166.40996817,2511.19737882 166.430557381,2477.56081786 142.079857319,2477.19974598 133.148825227,2486.66115973 134.640194613,2510.98582782 166.40996817,2511.19737882 " moovel_rot="70.7" moovel_centroid="150.586936943,2494.61026" moovel_centroidlatlon="16.41350531629842,48.18610117238889"></polygon></g><g transform="translate(117.8925466 -1083.7518124) rotate(0)"><polygon id="153341567" class="tile" points="130.940505658,1202.21485929 129.228609193,1264.34507971 145.765138886,1265.00684771 145.680579014,1201.0 130.940505658,1202.21485929 " moovel_rot="57.1" moovel_centroid="137.935254582,1233.7530276223686" moovel_centroidlatlon="16.386333841728334,48.15245521347579"></polygon></g><g transform="translate(-309.2231894 -2201.2681791) rotate(0)"><polygon id="304975879" class="tile" points="477.18330841,2365.80995988 492.460941945,2365.66895299 492.613766426,2305.2638223 477.112238057,2305.15255542 477.18330841,2365.80995988 " moovel_rot="-88.7" moovel_centroid="484.837263839,2335.40038549" moovel_centroidlatlon="16.384320372392356,48.1482643447802"></polygon></g><g transform="translate(-31.91134009999996 -1310.9598783000001) rotate(0)"><polygon id="27683466" class="tile" points="289.549863888,2163.99280588 286.736559639,2158.51622076 284.678157099,2304.94310895 289.683212932,2305.15255542 289.549863888,2163.99280588 " moovel_rot="57.6" moovel_centroid="287.602446061,2239.71818247" moovel_centroidlatlon="16.352420038168283,48.16875625501825"></polygon></g><g transform="translate(-178.38648919999997 -789.3853159) rotate(0)"><polygon id="209563067" class="tile" points="453.844502459,1618.83729024 454.960160328,1567.89053575 472.681016353,1568.23881949 472.698777621,1619.72511527 453.844502459,1618.83729024 " moovel_rot="51.4" moovel_centroid="463.558174576,1593.93922047" moovel_centroidlatlon="16.29106710353009,48.178929255789"></polygon></g><g transform="translate(-185.30360740000003 -2233.9087977) rotate(0)"><polygon id="200751232" class="tile" points="256.903146698,2357.80982602 282.293204576,2350.01032623 270.538510172,2313.75909489 277.879728418,2310.96105138 280.274059484,2305.15255542 256.913946733,2313.05506789 257.391273603,2316.85454708 255.794294315,2320.14177398 256.362224733,2323.88712283 258.69168575,2324.94871938 259.452494665,2332.12903493 257.162499438,2332.86171827 255.192833049,2336.07452264 257.448901871,2347.73841798 255.186007881,2352.02870058 256.903146698,2357.80982602 " moovel_rot="-65.5" moovel_centroid="267.031985198,2333.86896005" moovel_centroidlatlon="16.39719655449758,48.24554631255324"></polygon></g><g transform="translate(111.54092409999998 -2246.5696582) rotate(0)"><polygon id="32314779" class="tile" points="102.076502816,2378.72118339 95.0887541883,2352.94507741 90.7336027429,2347.42048181 91.5238718896,2324.10465272 92.2104138974,2309.77765501 96.5175700447,2305.15255542 102.556825722,2305.44513169 107.631776746,2310.90775701 105.892906046,2349.79046555 101.887273781,2353.45297428 107.65332473,2377.13922352 102.076502816,2378.72118339 " moovel_rot="-8.1" moovel_centroid="99.5693896598,2335.93650199" moovel_centroidlatlon="16.422449895043783,48.272798991180125"></polygon></g><g transform="translate(-120.94263609999999 -1136.7104309000001) rotate(0)"><polygon id="27146866" class="tile" points="220.536170648,1245.02786167 226.97925959,1249.54195269 250.024577429,1235.30424489 250.847532454,1229.29394005 232.56979964,1204.71596576 225.854010713,1201.0 223.829804699,1204.46482205 220.544498288,1209.53717549 220.536170648,1245.02786167 " moovel_rot="2.3" moovel_centroid="232.349528997,1226.6710066059798" moovel_centroidlatlon="16.310227996483725,48.14960562001811"></polygon></g><g transform="translate(-406.3527442999999 -1755.664991) rotate(0)"><polygon id="119991939" class="tile" points="541.643109079,1822.00271398 559.653785465,1821.91385017 559.668338258,1870.91817659 545.245544984,1870.58788445 542.5821188,1870.52885468 542.690626086,1866.91875052 539.788542275,1866.84899626 541.418812732,1846.37230785 540.116385335,1846.01551404 541.643109079,1822.00271398 " moovel_rot="38.4" moovel_centroid="550.28169982,1846.38617844" moovel_centroidlatlon="16.401215020900946,48.187307106488724"></polygon></g><g transform="translate(-137.69507139999996 -1137.9620372) rotate(0)"><polygon id="224610180" class="tile" points="398.880793391,1201.0 361.113228251,1218.37109182 392.476749911,1251.08895307 400.221173781,1247.31203582 387.159410376,1218.51943084 399.663982544,1212.49990523 400.237635642,1204.28691036 398.880793391,1201.0 " moovel_rot="-76.3" moovel_centroid="384.277099178,1224.6721376315008" moovel_centroidlatlon="16.402696282456656,48.1666823518537"></polygon></g><g transform="translate(-390.4810733 -1921.0482253999999) rotate(0)"><polygon id="175774100" class="tile" points="548.777988389,1962.03203914 557.016017311,1963.13264244 565.437252289,1964.28129633 564.8424349,1977.41440088 564.753515197,1984.76613852 564.445914859,1990.80960788 563.976002454,1990.76610978 563.126929346,2019.83522705 548.791861249,2020.12849127 548.926286227,2011.43223741 548.905344914,1983.47504313 548.777988389,1962.03203914 " moovel_rot="23.8" moovel_centroid="556.507242001,1990.75701634" moovel_centroidlatlon="16.334163432933117,48.18945560896398"></polygon></g><g transform="translate(31.917547400000018 -2114.8490287) rotate(0)"><polygon id="374736576" class="tile" points="163.514404148,2158.53087048 163.528882681,2213.83347047 148.045171643,2213.82006435 148.039787274,2212.4125809 148.026355192,2160.29000496 148.024130662,2158.51622076 163.514404148,2158.53087048 " moovel_rot="11.0" moovel_centroid="155.777322582,2186.1750617" moovel_centroidlatlon="16.44439096261446,48.268788399339066"></polygon></g><g transform="translate(-18.85240859999999 -1528.4137363) rotate(0)"><polygon id="105071162" class="tile" points="297.166420997,1568.94837117 297.853543452,1576.63178546 298.63329195,1577.38311234 299.387145164,1583.71426818 296.131635941,1587.80000517 301.268717323,1626.32943036 311.998025053,1624.79501686 311.4949166,1621.16748913 315.100065461,1620.81776864 310.961656791,1583.73783274 315.126365879,1583.34856383 313.233925195,1569.77929478 306.659567661,1570.643283 306.382894689,1567.89053575 300.926814511,1568.51415087 297.166420997,1568.94837117 " moovel_rot="29.5" moovel_centroid="305.760573891,1596.42186471" moovel_centroidlatlon="16.38282313884633,48.23795236902452"></polygon></g><g transform="translate(176.2044004 -1790.5522626) rotate(0)"><polygon id="332170636" class="tile" points="73.3407070471,1822.70193561 47.6842622219,1821.91385017 43.9941005426,1829.73829683 43.2855855189,1847.08094345 47.7466221325,1852.92988453 73.3364318099,1853.47355938 73.3407070471,1822.70193561 " moovel_rot="56.4" moovel_centroid="58.8937078936,1837.81323604" moovel_centroidlatlon="16.28333774624359,48.133843091660054"></polygon></g><g transform="translate(-9.45083169999998 -1197.9086732) rotate(0)"><polygon id="326224759" class="tile" points="290.346260439,1683.58054715 287.712575994,1649.16028912 287.201956192,1625.54246671 288.755577824,1598.71759085 291.547441511,1567.89053575 295.131635941,1568.5327204 292.385482221,1603.22790122 292.114057075,1625.6876734 292.633338422,1641.26439585 295.112347308,1683.73653106 290.346260439,1683.58054715 " moovel_rot="38.9" moovel_centroid="290.984393141,1629.64523751" moovel_centroidlatlon="16.376234147038506,48.274088725324546"></polygon></g><g transform="translate(121.38570999999999 -569.0891818) rotate(0)"><polygon id="405322928" class="tile" points="65.5151366876,1257.05813226 79.2365960508,1258.05480635 79.1432480941,1201.25074818 65.8103537728,1201.0 65.5151366876,1257.05813226 " moovel_rot="-5.6" moovel_centroid="72.4406327226,1229.4771256673746" moovel_centroidlatlon="16.452218689073526,48.266386631034"></polygon></g><g transform="translate(-60.3986099 -2298.118205) rotate(0)"><polygon id="32595750" class="tile" points="146.710746044,2305.15255542 137.331808987,2307.78934317 134.788860113,2330.67757655 137.857007567,2358.99617349 140.351685274,2368.40680981 144.945845262,2366.9602417 152.188802795,2365.16409578 143.546692159,2330.99517109 152.218894554,2328.83648128 151.617583094,2326.29555301 146.710746044,2305.15255542 " moovel_rot="27.4" moovel_centroid="142.747138938,2336.34936637" moovel_centroidlatlon="16.40712906319887,48.22462876233483"></polygon></g><g transform="translate(-377.9900848 -1552.6462651000002) rotate(0)"><polygon id="258552856" class="tile" points="496.830205233,1610.28075553 478.481378154,1612.43010749 473.698777621,1590.54553104 475.757434551,1574.96431972 478.839734251,1567.89053575 496.840206558,1572.38307671 492.246957229,1581.88173106 491.890759725,1592.67057958 494.044619754,1602.1799498 496.830205233,1610.28075553 " moovel_rot="-82.0" moovel_centroid="484.533541054,1590.50068278" moovel_centroidlatlon="16.43888444114325,48.19288355610317"></polygon></g><g transform="translate(-206.15217939999997 -1193.4650527) rotate(0)"><polygon id="228012275" class="tile" points="344.731466262,1201.28301469 336.830473663,1201.02100393 329.873122742,1201.0 329.82603476,1250.1879819 337.545249803,1250.15914138 344.84094272,1250.1236408 344.731466262,1201.28301469 " moovel_rot="64.7" moovel_centroid="337.308887357,1225.66473637038" moovel_centroidlatlon="16.452648935172565,48.25491682485232"></polygon></g><g transform="translate(-48.789131200000014 -1417.8936586) rotate(0)"><polygon id="31347897" class="tile" points="188.50037102,2477.19974598 188.484329918,2525.07349911 174.467759218,2525.00976056 173.063804596,2477.54460635 188.50037102,2477.19974598 " moovel_rot="68.5" moovel_centroid="181.133636164,2500.82221461" moovel_centroidlatlon="16.409922841472262,48.27748647647891"></polygon></g><g transform="translate(-448.4302966 -1099.2145233) rotate(0)"><polygon id="250816798" class="tile" points="518.295589179,1567.89053575 518.326665558,1575.40656812 518.430823728,1603.3424967 497.840206558,1603.49290493 497.877741049,1568.05002772 518.295589179,1567.89053575 " moovel_rot="70.3" moovel_centroid="508.11222597,1585.7186698" moovel_centroidlatlon="16.315257003674866,48.13182657731827"></polygon></g><g transform="translate(-95.92789539999998 -463.7734171000001) rotate(0)"><polygon id="180191460" class="tile" points="305.452948465,1206.77108528 327.370902806,1201.0 328.82603476,1232.37261869 305.449799273,1238.28377247 305.452948465,1206.77108528 " moovel_rot="-16.9" moovel_centroid="316.792886872,1219.7713296770178" moovel_centroidlatlon="16.52210836657408,48.23110679869731"></polygon></g><g transform="translate(-113.4781625 -350.34865990000003) rotate(0)"><polygon id="341306336" class="tile" points="345.972253752,1201.0 345.84094272,1248.60960572 360.113228251,1248.73251234 360.03837149,1201.14204572 345.972253752,1201.0 " moovel_rot="-5.3" moovel_centroid="352.990642252,1224.9287492580463" moovel_centroidlatlon="16.455174036895112,48.27220057618436"></polygon></g><g transform="translate(198.83345849999998 -366.18957980000005) rotate(0)"><polygon id="156546280" class="tile" points="92.2913683224,1201.38465565 81.4816237693,1201.0 80.2365960508,1254.98389653 92.3806107176,1256.28672794 92.2913683224,1201.38465565 " moovel_rot="40.9" moovel_centroid="86.6063098263,1228.9457659365669" moovel_centroidlatlon="16.386842538784617,48.14765317880752"></polygon></g><g transform="translate(135.975422 -2112.2690402000003) rotate(0)"><polygon id="189749977" class="tile" points="117.406553956,2535.30987215 114.509461649,2533.90236282 113.736069262,2533.89483119 113.255172337,2534.34341316 113.163149966,2535.09381717 113.452597776,2536.80252825 107.957852479,2536.3428636 106.778240345,2524.13316867 106.473744293,2506.97739701 106.785054226,2493.2028165 108.200357956,2477.19974598 117.441597571,2478.70146246 116.46952592,2491.99806234 115.971644184,2506.8835031 116.487742498,2524.71765911 117.406553956,2535.30987215 " moovel_rot="60.5" moovel_centroid="111.709921707,2506.88456151" moovel_centroidlatlon="16.399170294466526,48.20241487024334"></polygon></g><g transform="translate(-330.4947599000001 -1948.8175915000002) rotate(0)"><polygon id="211278941" class="tile" points="523.563298435,1962.03203914 537.486606995,1962.60751867 539.831147752,1965.15721739 540.390558076,1967.66486802 546.22615564,1967.64290437 547.777988389,1970.36831661 547.775627297,1982.48344363 542.361396503,1992.10860913 539.527133095,1995.64428186 528.055940887,1988.17030143 530.445111278,1981.16781683 521.690303327,1980.61012947 522.766369021,1968.46541282 523.563298435,1962.03203914 " moovel_rot="-21.7" moovel_centroid="535.293441905,1976.83600563" moovel_centroidlatlon="16.444024924779765,48.18189654987676"></polygon></g><g transform="translate(-58.5140614 -1743.6678074000001) rotate(0)"><polygon id="100592709" class="tile" points="118.441597571,2478.92304474 124.522639295,2528.1281897 129.13022531,2527.81619966 132.146059517,2515.17708275 132.148825227,2477.19974598 118.441597571,2478.92304474 " moovel_rot="-35.3" moovel_centroid="126.517230829,2499.74912422" moovel_centroidlatlon="16.429313697592004,48.20245857715296"></polygon></g><g transform="translate(-418.61424939999995 -1276.7830834000001) rotate(0)"><polygon id="216883843" class="tile" points="498.12204119,1856.25716065 514.386823526,1856.10390092 514.392032848,1844.24742925 514.390503445,1821.91385017 497.021853122,1824.12171209 498.12204119,1856.25716065 " moovel_rot="34.0" moovel_centroid="506.061672447,1839.40669135" moovel_centroidlatlon="16.40558527365926,48.25885605006311"></polygon></g><g transform="translate(230.4531313 -2033.8523515000002) rotate(0)"><polygon id="149211653" class="tile" points="58.7749551072,2160.85643079 61.9613014835,2158.51622076 61.8858743441,2252.20749734 58.734958716,2255.53290881 58.7749551072,2160.85643079 " moovel_rot="-12.6" moovel_centroid="60.3364746704,2206.69150884" moovel_centroidlatlon="16.320634217531413,48.20671862863085"></polygon></g><g transform="translate(47.40706750000001 -1804.3724757) rotate(0)"><polygon id="350390284" class="tile" points="204.813018735,1827.82097197 225.934805257,1821.91385017 225.910415441,1853.4928013 223.966794447,1854.1681283 213.179592455,1857.90573251 204.813018735,1827.82097197 " moovel_rot="72.7" moovel_centroid="217.243313397,1839.04516907" moovel_centroidlatlon="16.39092028855455,48.16038294607611"></polygon></g><g transform="translate(-94.37871340000004 -1695.4867794000002) rotate(0)"><polygon id="238401536" class="tile" points="378.397980941,2338.78525253 363.566672323,2338.93565492 362.892457217,2305.76576154 378.445765877,2305.15255542 378.397980941,2338.78525253 " moovel_rot="-81.8" moovel_centroid="370.841321642,2322.02633846" moovel_centroidlatlon="16.2449174111156,48.13626351100593"></polygon></g><g transform="translate(-504.3943481 -326.4716603999999) rotate(0)"><polygon id="275898705" class="tile" points="506.895451987,1201.0 506.894347455,1244.364435 517.508011775,1245.2219307 517.524912893,1201.43619295 506.895451987,1201.0 " moovel_rot="-20.2" moovel_centroid="512.214259391,1223.000791360123" moovel_centroidlatlon="16.439975995587396,48.24257014084057"></polygon></g><g transform="translate(47.22292540000001 -2022.1684728999999) rotate(0)"><polygon id="175583021" class="tile" points="236.440304978,2305.15910652 230.66315956,2305.15255542 230.715133015,2370.26508993 236.501886545,2370.26894032 236.440304978,2305.15910652 " moovel_rot="74.3" moovel_centroid="233.580108839,2337.72044175" moovel_centroidlatlon="16.33483913019058,48.24496745043004"></polygon></g><g transform="translate(5.18941820000002 -1687.2787558999999) rotate(0)"><polygon id="352776112" class="tile" points="122.717832235,2158.51622076 117.19325597,2158.87956285 113.441606165,2159.12564791 112.624499036,2160.00568872 112.84268467,2162.82306586 108.438195737,2162.84180526 108.774479544,2183.75097825 112.824202491,2184.05133532 113.524085617,2191.88217064 114.012936054,2197.41263193 122.679686245,2197.74953391 122.717832235,2158.51622076 " moovel_rot="57.7" moovel_centroid="116.506010615,2176.98051552" moovel_centroidlatlon="16.449885472987546,48.286815049323685"></polygon></g><g transform="translate(140.11655869999998 -1816.9634502999997) rotate(0)"><polygon id="60140892" class="tile" points="16.8063695876,2477.24033639 9.95929837804,2477.22003591 0.000103971920907,2477.19974598 0.0,2497.68134619 4.64220787324,2497.69666621 4.63863467574,2507.10060123 10.3103155637,2507.11458697 16.8053996371,2507.13197764 16.8063695876,2477.24033639 " moovel_rot="65.8" moovel_centroid="8.981898425176352,2491.19088326" moovel_centroidlatlon="16.46199028995549,48.2222273835264"></polygon></g><g transform="translate(-102.32331029999997 -1555.2519402) rotate(0)"><polygon id="188272877" class="tile" points="255.03603542,1567.89053575 255.028466539,1569.85521433 254.980945068,1612.4529113 254.987827175,1614.82596878 251.506576053,1614.90080747 246.168601865,1616.67053157 245.924701976,1572.92692852 250.860186263,1571.3209815 250.906176659,1567.91280131 255.03603542,1567.89053575 " moovel_rot="76.7" moovel_centroid="250.602844813,1592.63834865" moovel_centroidlatlon="16.359305515425458,48.17331408082217"></polygon></g><g transform="translate(143.9543588 -1818.0142145999998) rotate(0)"><polygon id="232102543" class="tile" points="28.8787943993,1822.80430928 42.2855855189,1821.91385017 42.2471287507,1855.35452967 28.907085378,1855.9595784 28.8787943993,1822.80430928 " moovel_rot="-28.2" moovel_centroid="35.5890782084,1838.99369928" moovel_centroidlatlon="16.45668920106451,48.25211673202063"></polygon></g><g transform="translate(53.26927649999999 -1638.1114912000003) rotate(0)"><polygon id="28939191" class="tile" points="127.676192205,2328.77939042 108.856506447,2329.53062425 108.65332473,2305.57813989 119.027482897,2305.24602926 127.710382183,2305.15255542 127.676192205,2328.77939042 " moovel_rot="80.4" moovel_centroid="118.202478154,2317.21089674" moovel_centroidlatlon="16.291442668531964,48.16872816877718"></polygon></g><g transform="translate(-96.80280040000002 -1469.1055125) rotate(0)"><polygon id="302720764" class="tile" points="296.205570816,2504.75539473 296.205136411,2500.48701966 300.894793961,2500.49597337 300.907265838,2477.24598209 282.080850002,2477.19974598 282.073283746,2492.73034166 286.891509626,2492.74136396 286.893217111,2500.73621826 290.932954639,2500.7445875 290.92912963,2504.74375466 296.205570816,2504.75539473 " moovel_rot="69.6" moovel_centroid="292.206751491,2488.92988292" moovel_centroidlatlon="16.364965152990063,48.1586163135783"></polygon></g><g transform="translate(-135.7835267 -1076.7470894) rotate(0)"><polygon id="32314668" class="tile" points="316.126365879,1604.83612069 324.311426346,1598.73580479 329.33335289,1588.52879985 331.388296096,1576.44289311 329.935062565,1571.98965512 325.585190194,1567.91732324 316.137129722,1567.89053575 316.126365879,1604.83612069 " moovel_rot="-58.2" moovel_centroid="322.437236814,1583.64016329" moovel_centroidlatlon="16.420971098353494,48.27142772920255"></polygon></g><g transform="translate(-348.8665164 -1976.2995365000002) rotate(0)"><polygon id="239022316" class="tile" points="493.613766426,2336.01220915 493.633949755,2305.15255542 500.351780774,2305.16994022 507.070708991,2305.17738672 507.048852014,2334.22619806 505.405358411,2336.02642845 493.613766426,2336.01220915 " moovel_rot="6.3" moovel_centroid="500.319100155,2320.540158" moovel_centroidlatlon="16.480441265905235,48.239099967805956"></polygon></g><g transform="translate(157.33087569999998 -1813.9741202) rotate(0)"><polygon id="126547980" class="tile" points="57.4207467387,2201.85665172 56.4216088891,2181.2463563 56.1582826536,2169.51995937 57.734958716,2169.57074467 57.5867825807,2158.51622076 55.1385555568,2158.72593709 52.156178646,2158.90761524 48.8850311281,2158.92812895 49.0200391044,2197.90470111 48.9662257879,2199.63696112 48.8997385329,2202.12431424 49.3194216627,2202.10787424 55.0256541447,2201.93314762 57.4207467387,2201.85665172 " moovel_rot="-56.2" moovel_centroid="52.9656053378,2180.19501618" moovel_centroidlatlon="16.361541295553856,48.18741960740199"></polygon></g><g transform="translate(-125.95484669999996 -1817.8019706) rotate(0)"><polygon id="92277616" class="tile" points="350.669415597,1821.98063656 360.176027167,1821.91385017 366.128366731,1821.93238442 366.156558967,1844.6625161 357.144428295,1844.43906614 348.237221952,1843.87322439 348.249258545,1831.81521219 350.669415597,1821.98063656 " moovel_rot="-13.2" moovel_centroid="357.502030246,1833.39609486" moovel_centroidlatlon="16.28797256680948,48.145456907413994"></polygon></g><g transform="translate(-159.7294649 -1928.4118200999997) rotate(0)"><polygon id="154259953" class="tile" points="237.501886545,2305.16521262 241.913619947,2305.15255542 241.942475687,2362.37179832 237.530750865,2362.38447303 237.501886545,2305.16521262 " moovel_rot="-26.1" moovel_centroid="239.722183144,2333.76850059" moovel_centroidlatlon="16.465272349999996,48.2338415"></polygon></g><g transform="translate(-268.48622040000004 -1224.3923516) rotate(0)"><polygon id="310504317" class="tile" points="561.164427007,1894.15522157 561.151625709,1893.44403465 560.907712364,1876.57083974 560.668338258,1862.38576277 560.775787137,1847.94078793 560.713274133,1834.82423304 560.790345672,1826.80220817 560.942883623,1821.91385017 562.711237868,1824.5341882 562.578957652,1830.06288938 562.102382168,1857.99174338 562.613236238,1859.84487973 564.482188841,1862.30627084 564.478115091,1893.7866767 561.53954944,1893.91305266 561.164427007,1894.15522157 " moovel_rot="-4.8" moovel_centroid="562.298241554,1864.60973171" moovel_centroidlatlon="16.361200830913493,48.229914765610694"></polygon></g><g transform="translate(-348.00850180000003 -1835.8135796) rotate(0)"><polygon id="250816800" class="tile" points="508.070708991,2329.56342865 508.087117711,2305.15255542 521.878745156,2305.35408221 521.920329252,2325.63180387 521.927343903,2329.46060148 508.070708991,2329.56342865 " moovel_rot="71.2" moovel_centroid="514.976696331,2317.39222093" moovel_centroidlatlon="16.31263711653724,48.13247213362209"></polygon></g><g transform="translate(-366.29214679999995 -1065.0424921) rotate(0)"><polygon id="444183448" class="tile" points="373.409816538,2158.5225454 368.829913815,2158.51622076 368.792142804,2188.57589866 378.936289519,2188.13466376 378.824998464,2180.35895282 378.777556299,2174.46975301 378.72586915,2170.20163159 378.769875499,2163.18504654 378.743628888,2161.2835007 378.717794802,2159.80570236 376.043386815,2159.77356969 373.422029344,2159.7503784 373.409816538,2158.5225454 " moovel_rot="77.7" moovel_centroid="373.737167064,2173.82325529" moovel_centroidlatlon="16.362318566716034,48.171780559972866"></polygon></g><g transform="translate(259.5346685 -2467.4569926) rotate(0)"><polygon id="120248097" class="tile" points="28.4309004672,2490.51484139 28.4211132955,2491.40953642 28.2788628642,2494.54340635 28.2993010321,2498.32561835 28.3130514121,2501.4513332 28.3240487602,2501.95237323 26.2082967618,2501.92569321 18.8089933094,2501.91603573 18.8063695876,2477.19974598 28.8210987804,2477.38573827 29.8089793972,2477.40081392 29.7688887289,2485.45569494 30.2274745878,2486.14245336 30.938743113,2486.47603477 34.4585481396,2486.41264882 34.4352297403,2488.07394394 34.4441603463,2489.60911172 29.35648177,2489.681325 28.7960385191,2489.92871263 28.4309004672,2490.51484139 " moovel_rot="-53.1" moovel_centroid="24.4204443845,2489.10171258" moovel_centroidlatlon="16.358550267322453,48.18569790416085"></polygon></g><g transform="translate(-333.4956669 -1871.0217324999999) rotate(0)"><polygon id="265626437" class="tile" points="348.207532615,2158.53205005 335.995673811,2158.51622076 336.009013952,2181.99676439 348.220868272,2182.01260854 348.207532615,2158.53205005 " moovel_rot="16.8" moovel_centroid="342.108272806,2170.26441021" moovel_centroidlatlon="16.38190885,48.16626214999999"></polygon></g><g transform="translate(-519.7222782 -1476.6016312) rotate(0)"><polygon id="350621873" class="tile" points="565.507838441,1857.40191856 568.397695689,1857.70963592 576.956534228,1833.40439214 575.035946369,1832.59588858 573.253858917,1831.8504119 575.213429363,1826.50686754 565.482188841,1821.91385017 565.507838441,1857.40191856 " moovel_rot="-88.8" moovel_centroid="569.565711415,1838.38755404" moovel_centroidlatlon="16.39719999148024,48.17041115747247"></polygon></g><g transform="translate(-52.6620568 -1706.7870848) rotate(0)"><polygon id="99683744" class="tile" points="106.229686053,1962.03203914 92.8602808506,1963.29003627 92.8507303682,1984.49471404 102.163845545,1984.23435965 102.447411161,1979.2415387 106.587407908,1979.05035204 106.229686053,1962.03203914 " moovel_rot="65.4" moovel_centroid="99.3256526016,1972.88906593" moovel_centroidlatlon="16.355648167318783,48.16475205677427"></polygon></g><g transform="translate(23.195767099999983 -1814.3664136) rotate(0)"><polygon id="188272871" class="tile" points="139.946091472,1822.41623471 143.901174173,1823.74467082 143.915778912,1851.64057535 139.542236533,1849.38737427 134.494724976,1848.65388817 134.557717013,1828.68485065 136.24320999,1821.91385017 138.466741583,1822.22309054 139.946091472,1822.41623471 " moovel_rot="77.0" moovel_centroid="139.345635131,1836.4150151" moovel_centroidlatlon="16.358561894621076,48.17323500509973"></polygon></g><g transform="translate(51.418514 -2304.5291814) rotate(0)"><polygon id="121499085" class="tile" points="59.2377294068,2497.80905658 64.8399449616,2497.77308556 64.7396520938,2477.22367623 53.6074395509,2477.19974598 53.5799619098,2497.90399709 59.2377294068,2497.80905658 " moovel_rot="33.8" moovel_centroid="59.184783603,2487.53750135" moovel_centroidlatlon="16.358495291406282,48.18807885823248"></polygon></g><g transform="translate(-326.3599027 -1829.4365728) rotate(0)"><polygon id="255959673" class="tile" points="566.172523301,2305.19011307 566.158544579,2324.78892365 554.337177069,2324.75134875 554.351141825,2305.15255542 566.172523301,2305.19011307 " moovel_rot="39.0" moovel_centroid="560.254847564,2314.9707333" moovel_centroidlatlon="16.3972321,48.17952699999999"></polygon></g><g transform="translate(-338.149811 -1004.5975371) rotate(0)"><polygon id="149265494" class="tile" points="367.792142804,2198.54031868 367.598552086,2158.51622076 364.437355695,2161.19942189 364.422037159,2201.5601551 367.792142804,2198.54031868 " moovel_rot="76.9" moovel_centroid="366.061955718,2180.16955399" moovel_centroidlatlon="16.328240141023784,48.20622410558871"></polygon></g><g transform="translate(-51.715456700000004 -1606.9984832) rotate(0)"><polygon id="185100094" class="tile" points="84.749697859,2305.16574315 71.872505521,2305.15255542 71.8683529446,2319.19252448 84.7449600732,2319.19905873 84.749697859,2305.16574315 " moovel_rot="85.0" moovel_centroid="78.3083705044,2312.1774167" moovel_centroidlatlon="16.36026297353895,48.155472494970795"></polygon></g><g transform="translate(-520.7969711 -2061.6492053) rotate(0)"><polygon id="236143006" class="tile" points="579.409400418,2305.15255542 591.519196748,2305.34404759 591.463339396,2312.59808544 591.442241325,2315.05818937 588.408918321,2315.37954688 588.235603718,2319.45485704 579.416972088,2319.35918456 579.409400418,2305.15255542 " moovel_rot="-15.1" moovel_centroid="585.061325472,2311.90330666" moovel_centroidlatlon="16.444494768825823,48.23942898866584"></polygon></g><g transform="translate(88.1335374 -1778.1428707999999) rotate(0)"><polygon id="346889921" class="tile" points="0.573332568258,2318.99069433 0.281243305653,2317.81995191 0.0758735731244,2316.0542801 0.0,2313.07143735 0.445743533224,2312.73916183 1.22756716255,2306.58941407 3.11651842073,2306.97484411 3.30269114804,2305.94940879 5.2358706627,2306.29243129 5.55084685888,2305.15255542 12.7803412171,2306.39269631 12.038613956,2311.17245992 12.4757362923,2314.34184546 12.7913925575,2317.70468784 5.51534694526,2318.47478867 0.573332568258,2318.99069433 " moovel_rot="-73.1" moovel_centroid="6.42092625693777,2312.30598314" moovel_centroidlatlon="16.377282111639996,48.23110877092788"></polygon></g><g transform="translate(-331.05135240000004 -1162.2089505999998) rotate(0)"><polygon id="418591915" class="tile" points="336.219038913,1991.88033782 336.999422949,1986.30812808 337.813089987,1979.2856624 338.197118354,1973.72296864 338.170133117,1969.75843677 337.735627013,1965.44826732 337.076810334,1962.03203914 333.562964715,1963.59918937 333.841636352,1972.36698861 334.147288693,1980.43995325 334.067235567,1986.56735538 333.547065976,1990.66720093 334.923515272,1991.46161587 336.219038913,1991.88033782 " moovel_rot="-57.6" moovel_centroid="335.790477948,1975.99313905" moovel_centroidlatlon="16.2620577952857,48.177519666766614"></polygon></g><g transform="translate(-133.1290355 -1880.0370165) rotate(0)"><polygon id="352869589" class="tile" points="220.355173207,2306.41709539 220.328971392,2321.54777546 229.66315956,2321.6044442 229.658335747,2308.04958678 224.364084714,2307.84868503 224.452671841,2305.15255542 221.495018934,2305.30096249 221.415628708,2306.32361335 220.355173207,2306.41709539 " moovel_rot="-12.6" moovel_centroid="224.827535397,2314.18880927" moovel_centroidlatlon="16.456875164651144,48.282922159670754"></polygon></g><g transform="translate(-83.2496948 -1592.4995912) rotate(0)"><polygon id="314980196" class="tile" points="89.7325927045,2305.15255542 85.749697859,2305.15715691 85.750707918,2330.64176145 89.7336027429,2330.6371606 89.7325927045,2305.15255542 " moovel_rot="1.8" moovel_centroid="87.7416503146,2317.89715859" moovel_centroidlatlon="16.2976106,48.1306682"></polygon></g><g transform="translate(-105.5478613 -238.05256429999997) rotate(0)"><polygon id="106153774" class="tile" points="209.20188596,1201.0 209.147742252,1204.99403995 209.027209991,1207.34239624 209.196514785,1214.28731153 201.822957057,1213.34062101 196.827402442,1209.0288018 196.985524913,1203.18178132 198.797577869,1202.8547892 204.835899294,1201.7720441 209.20188596,1201.0 " moovel_rot="77.9" moovel_centroid="203.679186049,1207.520533784843" moovel_centroidlatlon="16.372966623607752,48.25594284424259"></polygon></g><g transform="translate(-238.98823969999998 -1337.4635948999999) rotate(0)"><polygon id="284666494" class="tile" points="286.392665377,1963.27749316 294.258300418,1962.03203914 295.081284874,1968.49221088 292.240934207,1969.0582198 290.41989997,1982.09010356 287.518698616,1982.20602375 286.394692826,1969.93628189 286.397019112,1964.42943462 286.392665377,1963.27749316 " moovel_rot="82.3" moovel_centroid="289.855481735,1970.5606669" moovel_centroidlatlon="16.294333806418877,48.25665225258666"></polygon></g><g transform="translate(-495.2058555 -1574.0584138) rotate(0)"><polygon id="292146434" class="tile" points="575.640207198,2158.5238081 586.368580817,2158.51622076 586.366706332,2170.26578157 575.641135474,2170.28295361 575.640207198,2158.5238081 " moovel_rot="-16.3" moovel_centroid="581.003428307,2164.39693588" moovel_centroidlatlon="16.292214490600376,48.14171492950146"></polygon></g><g transform="translate(-240.44417710000002 -1725.0731274999998) rotate(0)"><polygon id="357207969" class="tile" points="243.827304386,2305.15255542 246.706641759,2307.38183654 246.73926498,2331.52261912 242.942475687,2329.11441309 243.827304386,2305.15255542 " moovel_rot="27.8" moovel_centroid="245.039010697,2318.83526817" moovel_centroidlatlon="16.274631890020544,48.17326355037636"></polygon></g><g transform="translate(-176.0535304 -1685.9263081) rotate(0)"><polygon id="357207766" class="tile" points="243.039392415,1821.91385017 246.330196282,1821.98365955 246.120959929,1845.16153664 243.075715834,1847.44153191 243.039392415,1821.91385017 " moovel_rot="23.5" moovel_centroid="244.615709315,1833.97151755" moovel_centroidlatlon="16.27516782783711,48.17248315762474"></polygon></g><g transform="translate(-305.2286178 -945.2981469) rotate(0)"><polygon id="208448280" class="tile" points="403.911015371,1962.03203914 406.531144041,1962.22050913 406.532860967,1978.14686517 397.768512092,1978.17713271 397.702363007,1975.58404881 403.911015371,1962.03203914 " moovel_rot="-5.3" moovel_centroid="403.096675284,1971.60323593" moovel_centroidlatlon="16.38541792325219,48.20940978043525"></polygon></g><g transform="translate(-149.3169866 -1574.6678774000002) rotate(0)"><polygon id="130050199" class="tile" points="172.05581708,2477.2713688 172.063804596,2493.37690668 167.430557381,2493.34767733 167.584385792,2477.19974598 172.05581708,2477.2713688 " moovel_rot="-18.1" moovel_centroid="169.782386112,2485.34662383" moovel_centroidlatlon="16.346749485269207,48.15034237465747"></polygon></g><g transform="translate(-106.77636659999999 -1910.7562741) rotate(0)"><polygon id="48702233" class="tile" points="129.067464278,2305.15255542 133.769775601,2305.17608471 133.788860113,2320.20264188 128.710382183,2320.03408467 129.067464278,2305.15255542 " moovel_rot="-61.3" moovel_centroid="131.336782981,2312.73766637" moovel_centroidlatlon="16.370460904135037,48.19625421358521"></polygon></g><g transform="translate(-273.3282341 -1357.7355904) rotate(0)"><polygon id="211291690" class="tile" points="331.117813747,2158.51622076 334.986605979,2158.60068783 334.995673811,2171.7913262 331.03386057,2171.68863142 331.117813747,2158.51622076 " moovel_rot="-28.1" moovel_centroid="333.03381048,2165.17533635" moovel_centroidlatlon="16.386792345053635,48.159519417671525"></polygon></g><g transform="translate(-443.7453807 -1322.1112549) rotate(0)"><polygon id="175583284" class="tile" points="519.432472764,1583.7154828 522.755942006,1580.06535273 522.681276496,1567.89053575 519.430823728,1570.45885344 519.432472764,1583.7154828 " moovel_rot="77.8" moovel_centroid="521.053448223,1575.5776498" moovel_centroidlatlon="16.331989441303804,48.243704242778996"></polygon></g><g transform="translate(-227.07905929999998 -1874.5453617) rotate(0)"><polygon id="351541094" class="tile" points="247.73926498,2305.15501489 254.185925979,2305.15255542 254.186007881,2312.43246169 247.745920776,2312.43373996 247.73926498,2305.15501489 " moovel_rot="-10.2" moovel_centroid="250.964366606,2308.79282401" moovel_centroidlatlon="16.382739877920315,48.21010835594216"></polygon></g><g transform="translate(-436.53851149999997 -1707.1358223000002) rotate(0)"><polygon id="397836733" class="tile" points="485.934303222,2158.5565885 492.03721548,2158.51622076 492.031700044,2166.07531682 485.994657591,2166.25299128 485.934303222,2158.5565885 " moovel_rot="79.6" moovel_centroid="488.990261169,2162.34359855" moovel_centroidlatlon="16.531532326734904,48.2460062214924"></polygon></g></g><g transform="translate(0 1327.7)"><polygon id="0" class="bin" points="-229.607839964,4.94514036524 -229.098405074,1.56131047995 -226.053386489,0.0 -1.875,0.0 0.77665042945,1.09834957055 1.875,3.75 1.875,1203.75 0.77665042945,1206.40165043 -1.875,1207.5 -298.124999,1207.5 -300.776649429,1206.40165043 -301.874999,1203.75 -301.874999,287.160903595 -300.695110868,284.430148207 -297.897919006,283.417785286 -288.833110381,283.967710914 -285.724169334,283.428161858 -270.381659473,276.864202642 -268.604492949,275.75641212 -267.086082702,274.449828918 -264.731815685,269.649910244 -263.849726724,252.624863147 -262.645741845,250.061022744 -259.992084737,249.070587916 -250.859108832,249.345103299 -246.829016192,247.864400126 -244.944518709,244.006577189 -227.991312517,9.75283640685 -229.607839964,4.94514036524 " moovel_rot="0" moovel_centroid="-143.98684894621522,627.5553502492437" moovel_centroidlatlon="0,0" transform="translate(301.875 0)"></polygon><g transform="translate(-560.6553379 -1032.1835015000001) rotate(0)"><polygon id="406916996" class="tile" points="563.276825412,2159.00038385 563.155351331,2232.18733677 574.640207198,2231.55701039 571.69487638,2158.51622076 563.276825412,2159.00038385 " moovel_rot="-28.2" moovel_centroid="568.228359193,2197.19258501" moovel_centroidlatlon="16.458859024882628,48.26426173788619"></polygon></g><g transform="translate(-103.10603470000001 -833.7436048) rotate(0)"><polygon id="78488788" class="tile" points="122.088715463,2033.85063924 133.703086471,2024.14187797 134.030323164,1970.55784614 122.101627484,1962.03203914 122.088715463,2033.85063924 " moovel_rot="-0.4" moovel_centroid="127.695810652,1997.49845152" moovel_centroidlatlon="16.369760846576217,48.18050419328345"></polygon></g><g transform="translate(-381.93350929999997 -678.2123472999999) rotate(0)"><polygon id="347336249" class="tile" points="431.972439677,1821.91385017 417.739127439,1829.06995298 425.49587476,1878.22161479 430.219787251,1877.81491006 431.948456376,1872.88364793 426.44382332,1836.63922993 431.287551292,1828.85585693 431.972439677,1821.91385017 " moovel_rot="54.7" moovel_centroid="425.497745013,1848.86799676" moovel_centroidlatlon="16.310283440290537,48.251413521142005"></polygon></g><g transform="translate(-294.5980403 -1200.8324116) rotate(0)"><polygon id="352603818" class="tile" points="342.186973422,2305.15255542 333.866602836,2305.47147908 330.563408828,2305.84260436 330.516552504,2342.10189673 344.134809903,2339.64824852 342.816857211,2311.87516403 342.186973422,2305.15255542 " moovel_rot="53.7" moovel_centroid="336.874750368,2323.58107126" moovel_centroidlatlon="16.38499037871484,48.27907668534339"></polygon></g><g transform="translate(-92.3781244 -870.5003816000001) rotate(0)"><polygon id="320883467" class="tile" points="107.587407908,1962.04069442 121.07384478,1962.03203914 121.088715463,1994.19143236 107.595600088,1994.20018202 107.587407908,1962.04069442 " moovel_rot="-0.8" moovel_centroid="114.336389386,1978.11741378" moovel_centroidlatlon="16.308695474683223,48.146013686707455"></polygon></g><g transform="translate(-244.83020069999998 -757.3733459999999) rotate(0)"><polygon id="33696965" class="tile" points="247.348321951,1850.30790017 247.330196282,1821.91385017 256.708393623,1822.2654212 268.457626616,1832.90577417 258.721555898,1841.97818022 251.852817595,1853.09922745 247.348321951,1850.30790017 " moovel_rot="-52.5" moovel_centroid="254.711663891,1835.2752132" moovel_centroidlatlon="16.40055587051288,48.274644077493306"></polygon></g><g transform="translate(-311.435923 -1236.6214641000001) rotate(0)"><polygon id="348060974" class="tile" points="361.892457217,2335.98780862 361.840858732,2305.15255542 345.371268726,2321.48204484 345.134809903,2335.75440326 361.892457217,2335.98780862 " moovel_rot="81.0" moovel_centroid="354.587003999,2324.1368906" moovel_centroidlatlon="16.385318343193145,48.16900750204295"></polygon></g><g transform="translate(-156.2168774 -49.10084619999998) rotate(0)"><polygon id="91235376" class="tile" points="219.524640246,1201.01329187 210.20188596,1201.0 210.215320013,1238.51665473 219.536170648,1238.52354443 219.524640246,1201.01329187 " moovel_rot="73.6" moovel_centroid="214.869371473,1219.762734928091" moovel_centroidlatlon="16.334890615363364,48.24475750050952"></polygon></g><g transform="translate(-244.5806528 -773.6570892) rotate(0)"><polygon id="250706111" class="tile" points="283.684761247,1846.63139753 287.919505097,1825.84832468 269.457626616,1821.91385017 269.481154277,1844.11263807 283.684761247,1846.63139753 " moovel_rot="81.2" moovel_centroid="277.646411285,1834.14652088" moovel_centroidlatlon="16.37308234702087,48.13874574139213"></polygon></g><g transform="translate(-464.1814615 -99.5941166) rotate(0)"><polygon id="26252204" class="tile" points="528.217615057,1234.89789238 528.22244342,1201.0 518.529735423,1201.0181864 518.524912893,1234.91609672 528.217615057,1234.89789238 " moovel_rot="-18.0" moovel_centroid="523.37367627,1217.9580421755022" moovel_centroidlatlon="16.226416299999997,48.210776900000006"></polygon></g><g transform="translate(31.633856099999996 -1264.6974725999999) rotate(0)"><polygon id="337962666" class="tile" points="35.2735451803,2305.15255542 26.9308246758,2311.57791643 18.3083338974,2320.99554535 16.9195420109,2324.70248439 14.7913925575,2325.99824327 30.5077053215,2333.12491707 35.3035190012,2333.65257145 35.2735451803,2305.15255542 " moovel_rot="-90" moovel_centroid="28.194119197,2321.44160542" moovel_centroidlatlon="16.28934672164633,48.202193355966244"></polygon></g><g transform="translate(-55.4130842 -1021.8888923999998) rotate(0)"><polygon id="202880394" class="tile" points="127.165753499,2158.51622076 127.190093137,2216.21236388 123.733700469,2216.15134103 123.717832235,2158.54832175 127.165753499,2158.51622076 " moovel_rot="84.8" moovel_centroid="125.452313455,2187.3688077" moovel_centroidlatlon="16.310411975842666,48.19679454401109"></polygon></g><g transform="translate(-24.35245839999999 -127.69967550000001) rotate(0)"><polygon id="202880390" class="tile" points="96.5763175546,1201.26146806 96.312023577,1252.81784989 93.4042334833,1252.62979985 93.3806107176,1201.0 96.5763175546,1201.26146806 " moovel_rot="84.6" moovel_centroid="94.9189854957,1226.521460432912" moovel_centroidlatlon="16.309381277107118,48.196860789146214"></polygon></g></g></svg>