<svg><g transform="translate(0 0)"><polygon id="2" class="bin" points="446.2499995,1207.499999 448.901649929,1206.40164943 449.9999995,1203.749999 449.9999995,3.75 448.901649929,1.09834957055 446.2499995,0.0 150.0000005,0.0 147.348350071,1.09834957055 146.2500005,3.75 146.2500005,1203.749999 147.348350071,1206.40164943 150.0000005,1207.499999 446.2499995,1207.499999 " moovel_rot="0" moovel_centroid="298.12500000000006,603.7499995000001" moovel_centroidlatlon="0,0" transform="translate(-146.25 0)"></polygon><g transform="translate(378.16778469999997 -767.6955094) rotate(0)"><polygon id="237746298" class="tile" points="-316.041500767,1964.89623663 -336.229836895,1967.71963867 -337.463061284,1963.09669271 -339.434204789,1950.26974814 -342.635257015,1929.49448962 -344.264848064,1918.90635258 -345.301741397,1912.13939854 -345.957324175,1907.90844202 -368.982517815,1911.4980578 -375.69670448,1867.74901287 -369.403276857,1866.39210632 -328.363184754,1860.38541902 -326.910209812,1834.22601285 -317.013305703,1823.54840061 -279.310225958,1824.80558659 -279.496524573,1829.64165055 -279.734202439,1835.58689588 -309.750688078,1833.90095507 -311.713272612,1867.08652123 -314.664871161,1866.91352303 -315.451317601,1880.19074688 -302.126948067,1880.93493504 -282.209562674,1884.35943995 -285.142310322,1923.7509276 -279.254438661,1958.12532786 -316.041500767,1964.89623663 " moovel_rot="28.5" moovel_centroid="-321.625715814,1902.27420556" moovel_centroidlatlon="16.410443004636747,48.259787928050955"></polygon></g><g transform="translate(294.37621320000005 -1321.9456452999998) rotate(0)"><polygon id="8080618" class="tile" points="-190.431542029,2312.24714881 -157.058440746,2316.98267935 -154.721110068,2395.42177557 -159.62518168,2462.04459933 -161.457537043,2513.44563848 -161.755312343,2521.95524309 -172.217764308,2521.0351434 -190.50124959,2519.41861421 -190.431542029,2312.24714881 " moovel_rot="54.9" moovel_centroid="-174.039061731,2414.34834008" moovel_centroidlatlon="16.41801704710333,48.241141722094085"></polygon></g><g transform="translate(128.30734230000002 -400.1393581000001) rotate(0)"><polygon id="31767288" class="tile" points="-59.1755645383,1357.9861512 -1.17127604075,1379.94015041 -3.47269915082,1388.41159949 -71.263094514,1363.41889697 -64.9397574645,1347.25736769 -57.488347565,1327.42364728 -62.4652346211,1325.70947473 -51.4316161839,1297.09899342 -103.229891758,1276.80045805 -97.0159545481,1258.3492292 -108.856293245,1253.59955582 -117.667365998,1270.89982336 -125.877225619,1267.95932113 -119.106725831,1249.50579342 -122.893652359,1247.71969737 -118.124673112,1236.41024394 -39.8908073995,1268.59986895 -13.1255717311,1201.0 -1.0,1204.29317752 -21.4494767813,1259.11010361 -7.4709262399,1264.52389122 -21.0325487711,1304.20178092 -40.3251655031,1296.80667521 -45.4122736935,1309.97674693 -41.4221095951,1311.49784721 -59.1755645383,1357.9861512 " moovel_rot="52.5" moovel_centroid="-52.3860512457512,1284.1639351099282" moovel_centroidlatlon="16.401188457654957,48.26661787739835"></polygon></g><g transform="translate(113.5215453 -740.6679932) rotate(0)"><polygon id="355716256" class="tile" points="-110.998373597,1710.66347939 -110.55295501,1680.55215913 -101.565119385,1685.14636189 -89.5596917647,1693.6661226 -77.7071666648,1703.29378229 -69.4594678803,1714.28856174 -63.6166581692,1723.61514964 -61.4090248373,1732.59948341 -56.7565962744,1742.31947325 -51.2042109589,1750.38343727 -38.5502354968,1766.25032318 -38.36659911,1767.59839859 -39.5018559698,1780.06577681 -54.2441772105,1791.80312489 -76.7448855044,1807.5070709 -90.977922815,1818.37948598 -90.7310040286,1815.96355341 -96.4121347313,1810.15106129 -102.993960403,1800.70804157 -106.075949051,1793.85767788 -109.343808803,1794.90005841 -111.021548914,1794.64820379 -111.00604174,1738.34579894 -111.006243497,1732.35308783 -110.998373597,1710.66347939 " moovel_rot="-8.2" moovel_centroid="-83.0154578068,1754.08941448" moovel_centroidlatlon="16.50736789163196,48.17276072540278"></polygon></g><g transform="translate(510.8681038 -1310.7377992000002) rotate(0)"><polygon id="196015325" class="tile" points="-416.957415066,2105.00591586 -416.972591914,2125.59812665 -412.250740121,2125.61955049 -412.255853263,2140.22185845 -508.078653728,2142.19212601 -508.368759244,2129.66810917 -438.531841794,2128.23655 -440.172735419,2079.84200118 -498.329069639,2080.26642567 -505.398281493,2075.57771696 -472.93865542,2018.49572378 -487.904078268,1996.44226272 -478.500696712,1990.29495732 -440.690085912,2049.06799252 -433.005180948,2066.94935545 -432.772607405,2073.80797844 -428.153194948,2073.66528322 -427.607530905,2089.71677055 -422.007495214,2089.54551002 -421.495608404,2104.67209013 -416.957415066,2105.00591586 " moovel_rot="-36.8" moovel_centroid="-459.220912691,2079.31824226" moovel_centroidlatlon="16.42255335404017,48.27098044066176"></polygon></g><g transform="translate(437.2796391 -756.4597981000001) rotate(0)"><polygon id="28825208" class="tile" points="-319.334733114,1388.41159949 -338.188241706,1391.56082669 -338.373456177,1556.81227024 -329.749162795,1558.08854431 -310.689602967,1539.57821613 -306.04239872,1528.79043287 -299.40602964,1513.37337385 -298.035678587,1510.19758262 -298.672120001,1499.97791208 -299.6379673,1484.41162267 -305.65988454,1484.38197584 -306.150833067,1481.81564251 -302.264934777,1480.08848797 -302.565477107,1475.07507752 -305.629695589,1459.23587271 -311.080178856,1431.08192901 -319.334733114,1388.41159949 " moovel_rot="-25.0" moovel_centroid="-322.448113308,1476.55857866" moovel_centroidlatlon="16.419139103131204,48.208217249031485"></polygon></g><g transform="translate(283.552493 -1550.7674442) rotate(0)"><polygon id="430652169" class="tile" points="-245.345579011,2147.42321464 -189.460521367,2142.19212601 -189.463567306,2188.46974838 -190.358293023,2233.32401594 -241.914831847,2235.50749431 -245.157174566,2152.1514514 -245.345579011,2147.42321464 " moovel_rot="74.6" moovel_centroid="-216.525500123,2188.99132054" moovel_centroidlatlon="16.34425302416871,48.148881215688725"></polygon></g><g transform="translate(602.5477666 -1264.6312166000002) rotate(0)"><polygon id="362241601" class="tile" points="-423.251974163,2242.09849583 -469.184412973,2252.25734824 -486.186981305,2156.68053339 -424.457528419,2142.19212601 -423.124053649,2150.85308617 -425.048621175,2154.60851661 -440.856205357,2160.6633186 -423.251974163,2242.09849583 " moovel_rot="-34.5" moovel_centroid="-454.295405463,2197.43540611" moovel_centroidlatlon="16.39497528802126,48.18566417652219"></polygon></g><g transform="translate(181.2571439 -996.7329819000001) rotate(0)"><polygon id="31516116" class="tile" points="-66.352375026,1566.6349236 -35.0361700326,1566.57497577 -35.0358302766,1572.68799625 0.0,1572.61851924 -0.000875254534185,1640.18171421 -56.0224754786,1640.29508138 -56.018420591,1623.70960464 -66.3579266075,1623.72219843 -66.352375026,1566.6349236 " moovel_rot="69.1" moovel_centroid="-32.85652872377046,1603.92933577" moovel_centroidlatlon="16.404711828010228,48.271198753967596"></polygon></g><g transform="translate(530.8494409 -914.7025248) rotate(0)"><polygon id="243320593" class="tile" points="-342.697867712,1689.12746995 -374.536938393,1765.90949242 -339.391587331,1779.27528614 -344.666163842,1790.25582157 -386.422366362,1774.04780498 -393.081755612,1768.91852266 -397.688911342,1763.44734935 -400.230943492,1757.64959247 -400.934709888,1751.24548031 -397.417497717,1699.2409463 -394.325047266,1692.89651805 -389.763154429,1687.19795334 -383.912824458,1684.1286123 -377.592108848,1681.61787217 -369.120260817,1680.55215913 -339.433509129,1680.7681396 -342.697867712,1689.12746995 " moovel_rot="40.1" moovel_centroid="-374.458816174,1727.39579637" moovel_centroidlatlon="16.45822778907419,48.26514938773289"></polygon></g><g transform="translate(255.2507729 -1349.6749688) rotate(0)"><polygon id="103523046" class="tile" points="-53.202711975,1990.29495732 -50.7197711368,1996.08782411 -79.9937197814,2013.39974012 -63.5714827115,2060.86532587 -50.6818320189,2086.30652134 -84.3942046766,2097.60168175 -124.906986781,2019.98625847 -112.317889499,2013.55894398 -85.9566503749,2002.74901239 -79.0824997625,2000.3733704 -72.0502953783,1997.64731094 -70.7744967291,1998.43530986 -53.202711975,1990.29495732 " moovel_rot="3.7" moovel_centroid="-85.9515181341,2045.92881223" moovel_centroidlatlon="16.345817042505857,48.16916134289203"></polygon></g><g transform="translate(511.7701948 -480.46203820000005) rotate(0)"><polygon id="349511352" class="tile" points="-367.180942787,1648.66964268 -370.54861414,1645.19830968 -368.154528233,1568.21251385 -364.79396244,1566.57497577 -338.902496242,1568.19342841 -334.745756151,1575.25658027 -334.651668843,1675.81180436 -351.82866722,1680.55215913 -354.958571249,1677.67285062 -358.174612682,1671.5808887 -365.155858558,1653.26476597 -367.180942787,1648.66964268 " moovel_rot="70.8" moovel_centroid="-351.31479957,1620.48854381" moovel_centroidlatlon="16.295356023523127,48.15175493493569"></polygon></g><g transform="translate(706.8746186000001 -862.9148243000001) rotate(0)"><polygon id="309413810" class="tile" points="-519.201537713,1823.54840061 -491.028718932,1829.9286636 -505.907061733,1864.76758582 -512.598610551,1883.2908187 -513.073657805,1901.20877165 -512.629660033,1919.27158774 -507.809154091,1944.93077344 -499.607017884,1966.62741175 -491.140835917,1978.63380903 -504.443454825,1990.29495732 -526.479116591,1954.08786107 -531.675038175,1883.71144706 -519.201537713,1823.54840061 " moovel_rot="19.9" moovel_centroid="-514.847992018,1900.92224351" moovel_centroidlatlon="16.398372220699045,48.14383384507545"></polygon></g><g transform="translate(549.1178015 -322.03406970000003) rotate(0)"><polygon id="29044754" class="tile" points="-314.713815196,1201.08799165 -314.692253213,1278.80734664 -361.133580271,1277.72302471 -359.644556323,1201.0 -314.713815196,1201.08799165 " moovel_rot="75.1" moovel_centroid="-337.499925562,1239.8692893351556" moovel_centroidlatlon="16.354597229116635,48.13237864987725"></polygon></g><g transform="translate(276.7027238 -692.5545744) rotate(0)"><polygon id="363030074" class="tile" points="-48.8638180573,1549.08496967 -47.9538000457,1553.13728731 -48.477273315,1557.53279274 -49.9560089206,1560.7610443 -52.7525112979,1563.85964115 -54.5160775604,1565.04043428 -59.582339743,1566.57497577 -62.1305385614,1566.53048277 -66.631148936,1565.12620178 -70.1060045322,1562.39184011 -71.9522349712,1559.70409551 -73.054780327,1556.68477413 -73.3161919843,1552.72053713 -71.5509475777,1547.31153469 -69.3587202661,1544.58629593 -66.9782078786,1542.81187048 -62.6808056582,1541.21449778 -66.5639358817,1539.99143247 -69.8706144145,1537.3993986 -71.6187044689,1534.85980577 -72.6532533508,1532.0016272 -72.897370691,1528.25803054 -71.2149306677,1523.08180478 -69.1444212368,1520.50203158 -66.9253562938,1518.85254726 -72.5126527991,1518.85775851 -72.4448436825,1513.30778293 -67.9777237557,1513.36236181 -67.3158245955,1415.01233822 -70.8813211555,1414.78842426 -70.6116778333,1407.44408399 -67.3937525708,1407.48340032 -66.4561820058,1403.55385138 -65.7203640686,1401.41198846 -64.9944195619,1400.07824473 -64.0741908338,1398.38617267 -63.3549756939,1396.78516 -63.3927420562,1394.96782889 -62.5220297452,1392.42015435 -60.8067596769,1390.28357863 -58.1798319442,1388.79270991 -55.4765061297,1388.41159949 -52.8547211198,1388.97800567 -50.5237712739,1390.44261362 -48.6860584898,1393.01002012 -48.039133665,1395.68979138 -48.3516757581,1398.36451961 -49.5505470689,1400.77459138 -51.4517007805,1402.58159227 -52.1321198715,1459.08994952 -49.2761551974,1459.30519448 -49.5216458684,1464.67264813 -51.4825935626,1464.82904048 -52.1192031089,1521.0239886 -49.7063928071,1524.78740249 -48.8436502265,1528.61871347 -49.3346130086,1532.80754641 -50.4124667227,1537.58369921 -50.8225830207,1541.70004357 -50.4978197148,1544.56958905 -48.8638180573,1549.08496967 " moovel_rot="-90.7" moovel_centroid="-59.8498494568,1482.93210748" moovel_centroidlatlon="16.399125752055077,48.21765279904512"></polygon></g><g transform="translate(240.8287594 -1285.2057442999999) rotate(0)"><polygon id="31251774" class="tile" points="-28.8193625389,1823.54840061 0.0,1902.98163699 -47.546317882,1924.06137769 -54.5745765222,1927.63374311 -53.7556311223,1907.67109453 -54.5354893795,1871.06155771 -50.2679803757,1871.16365063 -50.216798111,1868.32993764 -51.7948058152,1868.25358489 -51.8093173213,1864.99442951 -50.6413093084,1865.09467014 -51.3020853567,1847.76191177 -28.8193625389,1823.54840061 " moovel_rot="-9.3" moovel_centroid="-32.29167103269109,1880.05903277" moovel_centroidlatlon="16.464317575240685,48.15099835365859"></polygon></g><g transform="translate(613.2284716 -1213.2563742999998) rotate(0)"><polygon id="208448279" class="tile" points="-374.099129412,2371.58622814 -364.392879204,2356.53780367 -349.938000848,2334.33388873 -361.913234015,2325.48556759 -379.804397044,2312.24714881 -395.495098413,2334.71851086 -377.066253443,2347.58630978 -387.241048138,2362.42419405 -405.770254789,2349.14606343 -426.714445391,2379.50966821 -395.538849565,2399.32958065 -391.383991796,2402.09848466 -353.921717014,2413.31439396 -349.883582222,2402.74534986 -384.059634338,2393.60864704 -385.465114901,2389.24649563 -374.099129412,2371.58622814 " moovel_rot="-40" moovel_centroid="-385.011007297,2364.49355626" moovel_centroidlatlon="16.385343707835645,48.20870797929375"></polygon></g><g transform="translate(244.9426782 -386.6489778) rotate(0)"><polygon id="250151084" class="tile" points="-41.0691858446,1467.18001629 -0.0837659027427,1466.07918162 0.0,1388.41159949 -38.1990055723,1390.13025851 -45.9538000457,1414.06807293 -44.5953269329,1446.13373418 -41.0691858446,1467.18001629 " moovel_rot="72.8" moovel_centroid="-21.83933083454595,1428.21925368" moovel_centroidlatlon="16.30105963307301,48.15095478224116"></polygon></g><g transform="translate(39.8665422 -1136.5780895) rotate(0)"><polygon id="58486976" class="tile" points="-37.0450019294,1680.55215913 -13.5090956548,1694.15243975 -13.4662469713,1814.06909197 -30.3126470437,1823.54840061 -34.6758372726,1775.4378527 -37.36659911,1727.82973437 -37.0450019294,1680.55215913 " moovel_rot="64.7" moovel_centroid="-24.7901484136,1749.72302928" moovel_centroidlatlon="16.383752177198815,48.15347345589867"></polygon></g><g transform="translate(532.2396028000001 -1425.033323) rotate(0)"><polygon id="26576757" class="tile" points="-268.801179316,2070.64404621 -268.652149909,2064.94959692 -264.478228522,2049.54703153 -263.306890526,2039.12363063 -263.100818415,2030.1411555 -263.839167215,2016.73162965 -265.38126219,2010.34148187 -266.32683473,2007.68246239 -266.656487954,2003.43248479 -261.581789471,1995.91411062 -281.934319242,1990.29495732 -283.560790403,2007.29411459 -291.322196322,2006.54058379 -292.981613733,2023.88673875 -282.069287818,2024.95299783 -278.718182356,2026.97403236 -276.028282072,2021.66949243 -273.552496101,2020.82663677 -276.731994756,2055.81384174 -277.646210729,2056.26774276 -279.664882896,2053.8902457 -284.550038996,2051.06325323 -295.334472464,2050.01177855 -296.987093274,2067.38377122 -289.096146738,2068.15855921 -290.749772814,2085.44795331 -310.855636384,2083.48598677 -315.09839958,2083.1075334 -320.844449243,2082.59176009 -321.207020536,2095.58577735 -296.652167982,2099.73649674 -290.118176499,2091.40025714 -285.404195904,2091.44793317 -285.387400642,2094.42656992 -259.331780104,2097.56210293 -259.334386145,2088.9658227 -264.95522204,2079.8685726 -268.801179316,2070.64404621 " moovel_rot="-75.3" moovel_centroid="-281.176912689,2054.3516152" moovel_centroidlatlon="16.28524036196187,48.219674594545076"></polygon></g><g transform="translate(607.2526369 -1434.0134424) rotate(0)"><polygon id="27479387" class="tile" points="-350.80263779,2256.32691196 -350.816094743,2142.1929189 -374.840733489,2142.19212601 -374.817284142,2256.32587485 -350.80263779,2256.32691196 " moovel_rot="-88.6" moovel_centroid="-362.819183891,2199.25550119" moovel_centroidlatlon="16.377534609143638,48.15638842600367"></polygon></g><g transform="translate(773.9309513000001 -1139.2662176999997) rotate(0)"><polygon id="33615429" class="tile" points="-512.357101381,1990.29495732 -522.439822184,1991.33052336 -522.118861901,1997.42592245 -524.178686289,1997.5489864 -535.971114979,1998.27733119 -533.844501015,2027.65766806 -533.113354245,2054.36941859 -534.019927622,2088.74635439 -536.072684577,2119.92726914 -531.937935956,2120.42227221 -529.82727416,2101.35586036 -524.734229369,2101.65118206 -510.621892474,2102.47440665 -509.368759244,2074.69463739 -509.416863557,2045.36737984 -510.109307771,2023.93580394 -512.357101381,1990.29495732 " moovel_rot="48.8" moovel_centroid="-522.233528778,2050.34799962" moovel_centroidlatlon="16.236920704530107,48.203999479545395"></polygon></g><g transform="translate(383.7269129 -1301.77133) rotate(0)"><polygon id="89205478" class="tile" points="-87.4880564926,2371.95774144 -110.040830477,2418.71054685 -119.530750507,2417.57287534 -133.837454828,2392.11849819 -133.829251772,2344.69503586 -133.226459427,2319.06837986 -132.538081661,2312.24714881 -120.795716659,2337.37029389 -97.35445153,2352.74800164 -96.1005820777,2362.40289203 -87.4880564926,2371.95774144 " moovel_rot="-76.0" moovel_centroid="-115.734987867,2372.88019478" moovel_centroidlatlon="16.42887051072603,48.20565656785166"></polygon></g><g transform="translate(441.86270249999995 -1311.4127034) rotate(0)"><polygon id="226559301" class="tile" points="-173.935268803,2127.64833804 -159.7073462,2127.9024239 -159.6892505,1990.29495732 -206.711974854,1991.08160876 -206.422008666,2003.08855152 -204.503699009,2002.88495031 -202.615918324,2000.81837212 -176.042514378,2000.74864712 -175.597664338,2003.09077988 -174.205771466,2002.76500439 -174.564620993,2054.26317586 -180.2299703,2053.82998674 -180.285836853,2056.39756479 -173.129276001,2056.48465599 -173.453902472,2064.04543169 -180.476371303,2063.81597096 -180.065925334,2065.73161119 -174.521934229,2065.82465618 -173.935268803,2127.64833804 " moovel_rot="74.1" moovel_centroid="-170.386932091,2050.0174806" moovel_centroidlatlon="16.445071032097353,48.22160973777977"></polygon></g><g transform="translate(458.73557489999996 -1054.2010163) rotate(0)"><polygon id="29458854" class="tile" points="-371.54861414,1593.00657815 -395.543442182,1643.73548811 -427.370828811,1632.23196981 -427.362311679,1579.06405417 -422.568457925,1566.57497577 -399.237253904,1575.7776818 -401.570754524,1581.61184956 -371.54861414,1593.00657815 " moovel_rot="-21.8" moovel_centroid="-405.300542616,1605.79529778" moovel_centroidlatlon="16.288378086317422,48.19389316180932"></polygon></g><g transform="translate(718.6927261999999 -1399.1686557999997) rotate(0)"><polygon id="125522994" class="tile" points="-430.057057803,2313.58796896 -447.649168758,2312.24714881 -448.962188822,2347.30465258 -450.080475819,2355.54474875 -451.669854233,2431.50399458 -435.461342918,2427.13892899 -427.714445391,2431.84884945 -427.842431852,2341.3980738 -430.057057803,2313.58796896 " moovel_rot="-18.0" moovel_centroid="-439.104190574,2373.64256508" moovel_centroidlatlon="16.367536575625536,48.13670559698495"></polygon></g><g transform="translate(721.6135994 -1489.8876781000001) rotate(0)"><polygon id="294030700" class="tile" points="-537.085550279,2054.84070132 -578.225169721,2054.72143763 -578.209130057,1990.29495732 -537.072684577,1990.40833979 -537.085550279,2054.84070132 " moovel_rot="-59.7" moovel_centroid="-557.647821301,2022.56677432" moovel_centroidlatlon="16.408158516988106,48.2604563004197"></polygon></g><g transform="translate(546.8463512999999 -1061.1037181000002) rotate(0)"><polygon id="227310126" class="tile" points="-322.52133441,1567.32919328 -274.511882471,1566.57497577 -274.583847004,1621.16563473 -321.486927125,1621.80357094 -322.52133441,1567.32919328 " moovel_rot="63.7" moovel_centroid="-298.269678502,1594.1122074" moovel_centroidlatlon="16.43845530869316,48.25314516341546"></polygon></g><g transform="translate(584.4176088 -1091.1786746999999) rotate(0)"><polygon id="301627292" class="tile" points="-454.381896115,1620.60181914 -455.295861393,1656.05460037 -492.295782198,1654.97663232 -492.348600675,1603.45517465 -492.275490231,1566.57497577 -470.783046318,1566.90964438 -470.952763983,1574.28413814 -471.330017111,1620.54612972 -454.381896115,1620.60181914 " moovel_rot="44.5" moovel_centroid="-477.319103319,1617.28841578" moovel_centroidlatlon="16.303046670256165,48.15623832801664"></polygon></g><g transform="translate(522.008025 -1377.068565) rotate(0)"><polygon id="202618926" class="tile" points="-434.825186924,1849.47545829 -435.16746567,1874.46533746 -439.291051583,1874.46631172 -442.073526017,1880.64131172 -441.973459092,1885.07871386 -486.204357092,1884.51102445 -486.362265044,1880.49041565 -490.028718932,1877.19672569 -489.995252163,1827.76722177 -469.276321792,1823.54840061 -468.956581513,1846.31049352 -448.90348465,1846.30816322 -448.860650587,1843.52917949 -439.511435144,1843.50482986 -439.571723027,1849.31581624 -434.825186924,1849.47545829 " moovel_rot="82.1" moovel_centroid="-465.733214852,1859.74828331" moovel_centroidlatlon="16.396690647265615,48.17606373217651"></polygon></g><g transform="translate(226.9491452 -1885.7427658) rotate(0)"><polygon id="403617964" class="tile" points="-34.1657188503,2312.24714881 -16.7305626541,2313.08129424 0.0,2314.94955841 -0.00928072971292,2361.10600742 -4.73512962693,2387.29496801 -12.5130066735,2393.2205576 -31.2398099156,2389.62552798 -37.408854233,2389.13122324 -37.2603496299,2364.83340337 -25.6466236233,2362.85313455 -21.4149453747,2352.79164511 -20.8850917825,2334.71338965 -38.7994076076,2334.70185195 -34.1657188503,2312.24714881 " moovel_rot="-26.6" moovel_centroid="-17.095914263813693,2352.01282804" moovel_centroidlatlon="16.451796700829146,48.25267089802753"></polygon></g><g transform="translate(652.9448192 -1414.0373147) rotate(0)"><polygon id="29128859" class="tile" points="-421.001719801,1823.54840061 -420.973765271,1914.77973784 -394.53460737,1914.72697874 -393.087097718,1891.58336872 -393.429966526,1889.87377338 -395.918515971,1889.68307322 -395.685012531,1824.24434807 -421.001719801,1823.54840061 " moovel_rot="66.4" moovel_centroid="-408.11591328,1869.9612108" moovel_centroidlatlon="16.435101733521087,48.17682418982938"></polygon></g><g transform="translate(524.3473473 -993.4901133) rotate(0)"><polygon id="136886535" class="tile" points="-339.373456177,1471.64039951 -367.764782867,1449.40633637 -339.462540311,1397.50327773 -352.393204484,1388.41159949 -391.583885705,1461.08420132 -379.474765084,1466.9466251 -382.489195525,1473.31346521 -367.993315689,1484.95594285 -365.87038655,1482.42593442 -362.158228259,1485.46265355 -355.600554133,1486.66686043 -352.625033558,1488.98126497 -339.373456177,1471.64039951 " moovel_rot="-40" moovel_centroid="-363.662419659,1446.10922751" moovel_centroidlatlon="16.256759379358723,48.13424643914867"></polygon></g><g transform="translate(212.0444444 -984.9836178) rotate(0)"><polygon id="29234496" class="tile" points="-151.599914235,1448.40457735 -160.054679252,1394.89004724 -115.756997835,1388.41159949 -115.755414729,1442.78397283 -151.599914235,1448.40457735 " moovel_rot="-83.8" moovel_centroid="-135.891389113,1417.6817467" moovel_centroidlatlon="16.401439789322477,48.164945150550366"></polygon></g><g transform="translate(336.16912840000003 -1919.5363905999998) rotate(0)"><polygon id="154884433" class="tile" points="-290.218062009,2312.24714881 -333.660315345,2313.02527448 -333.657604063,2317.12914385 -333.669128177,2362.80085278 -289.445657071,2362.18148206 -290.218062009,2312.24714881 " moovel_rot="-50.3" moovel_centroid="-311.734323646,2337.63767139" moovel_centroidlatlon="16.418173389091567,48.23363028463099"></polygon></g><g transform="translate(501.99148360000004 -1441.8126569) rotate(0)"><polygon id="173719072" class="tile" points="-207.711974854,1990.29495732 -207.868344071,2110.00945332 -223.927967574,2111.0371028 -226.614644027,2005.59120737 -207.711974854,1990.29495732 " moovel_rot="-0.5" moovel_centroid="-216.38216975,2052.55197198" moovel_centroidlatlon="16.3173011704997,48.14931620652488"></polygon></g><g transform="translate(270.9758748 -1242.0151336) rotate(0)"><polygon id="224677268" class="tile" points="-167.635540953,1673.23462845 -169.986151416,1641.30735079 -128.358226286,1640.43689918 -128.713150923,1566.57497577 -123.263318493,1566.78313354 -123.222226942,1671.91052773 -167.635540953,1673.23462845 " moovel_rot="-25.3" moovel_centroid="-141.796499408,1645.24221984" moovel_centroidlatlon="16.45435545253943,48.265637061697646"></polygon></g><g transform="translate(570.923767 -1235.8879212000002) rotate(0)"><polygon id="55072303" class="tile" points="-531.898076406,1566.64310809 -531.907396424,1623.72253969 -568.423786421,1623.65231077 -568.408123776,1566.57497577 -531.898076406,1566.64310809 " moovel_rot="-17.3" moovel_centroid="-550.159234811,1595.14906009" moovel_centroidlatlon="16.488501019798505,48.20913879237293"></polygon></g><g transform="translate(770.6327605 -1761.8651195) rotate(0)"><polygon id="251677057" class="tile" points="-506.525749091,2142.19212601 -487.295768409,2142.45251975 -491.753087443,2180.44929289 -491.717297768,2203.44304222 -491.004248802,2223.05328047 -487.186981305,2253.23045763 -503.559589867,2254.78829093 -507.316610457,2228.80044087 -508.496701141,2206.50685664 -507.544309688,2173.3889479 -506.525749091,2142.19212601 " moovel_rot="81.5" moovel_centroid="-498.656945221,2197.3817016" moovel_centroidlatlon="16.36790180475156,48.15903282681633"></polygon></g><g transform="translate(473.2928316 -1889.2000692999998) rotate(0)"><polygon id="224669958" class="tile" points="-256.514849806,2142.81571377 -256.632505514,2312.24714881 -246.345579011,2312.08497966 -247.390865675,2142.19212601 -256.514849806,2142.81571377 " moovel_rot="70.5" moovel_centroid="-251.71390045,2229.02699621" moovel_centroidlatlon="16.47293592123302,48.261321861717356"></polygon></g><g transform="translate(343.7123685 -943.7467541) rotate(0)"><polygon id="28739586" class="tile" points="-144.175268469,1201.0 -143.954178045,1365.28952481 -154.183043753,1365.23631273 -153.676244638,1201.44127085 -144.175268469,1201.0 " moovel_rot="53.2" moovel_centroid="-148.995512817,1284.251004738884" moovel_centroidlatlon="16.253986186118507,48.200319784603124"></polygon></g><g transform="translate(186.8722391 -927.9932205) rotate(0)"><polygon id="150184874" class="tile" points="-142.954178045,1202.09986687 -126.877225619,1201.0 -126.956083689,1315.74434079 -142.738323467,1315.69924312 -142.954178045,1202.09986687 " moovel_rot="61.9" moovel_centroid="-134.868359859,1258.4589949643926" moovel_centroidlatlon="16.393813622762657,48.148941168578446"></polygon></g><g transform="translate(347.61547410000003 -1364.0763247) rotate(0)"><polygon id="46340823" class="tile" points="-281.689197316,1688.29644091 -275.631865535,1688.46110158 -275.141825862,1680.55215913 -258.643692568,1681.42486629 -258.840789889,1691.71714268 -253.67127222,1691.93751999 -253.645059188,1762.8170346 -267.002265044,1762.80164688 -267.723278697,1736.98499641 -282.689268184,1736.47280638 -282.326522077,1719.01288728 -281.689197316,1688.29644091 " moovel_rot="69.2" moovel_centroid="-266.548844739,1718.21489122" moovel_centroidlatlon="16.472818047506188,48.25539896489164"></polygon></g><g transform="translate(588.9062513 -1371.4645189999999) rotate(0)"><polygon id="211374392" class="tile" points="-465.873265741,1680.55215913 -465.716776093,1735.9237183 -471.794838649,1736.33080879 -471.626678002,1761.04118034 -489.93732131,1766.21571645 -489.94792384,1680.74139506 -465.873265741,1680.55215913 " moovel_rot="64.7" moovel_centroid="-478.74769505,1719.72550407" moovel_centroidlatlon="16.41814622036583,48.25718229535213"></polygon></g><g transform="translate(363.8011652 -1423.5440382) rotate(0)"><polygon id="228963723" class="tile" points="-238.294921314,1689.55357015 -236.644535747,1718.10659506 -236.192340653,1731.11690326 -231.039525579,1741.50084147 -204.137840373,1727.4019752 -202.210322594,1723.67699679 -196.054053382,1693.87759231 -196.050477711,1684.0891861 -205.016142267,1680.55215913 -238.294921314,1689.55357015 " moovel_rot="59.5" moovel_centroid="-218.147337555,1708.29138662" moovel_centroidlatlon="16.467886824557,48.19449842634829"></polygon></g><g transform="translate(493.16087400000004 -863.5806566) rotate(0)"><polygon id="163137096" class="tile" points="-235.280974645,1247.98389724 -234.827786271,1238.75212829 -223.867251489,1238.97757694 -222.667644406,1209.15585735 -244.546386424,1208.40538815 -243.749626795,1201.94532079 -261.009909303,1201.0 -261.423576952,1205.10511464 -258.833043787,1205.16141302 -261.376233762,1260.57255821 -247.673632859,1261.69822411 -236.371063731,1262.63063369 -235.280974645,1247.98389724 " moovel_rot="40.6" moovel_centroid="-244.306381213,1231.1161502456641" moovel_centroidlatlon="16.431537850484332,48.204990359385405"></polygon></g><g transform="translate(229.6653595 -1109.4954877) rotate(0)"><polygon id="95839151" class="tile" points="-227.150731921,1648.84274274 -227.165365475,1567.20710866 -204.107465522,1566.57497577 -203.533883001,1592.63643484 -209.033755032,1599.94075142 -206.475322917,1648.3302888 -227.150731921,1648.84274274 " moovel_rot="74.6" moovel_centroid="-216.672257906,1606.29692641" moovel_centroidlatlon="16.356033517521468,48.136081486243775"></polygon></g><g transform="translate(224.4944291 -2042.7481015) rotate(0)"><polygon id="28801324" class="tile" points="-221.994436033,2312.24714881 -221.935576408,2367.93418666 -191.574610141,2368.49210791 -191.50124959,2312.68243444 -221.994436033,2312.24714881 " moovel_rot="42.9" moovel_centroid="-206.745789471,2340.3188768" moovel_centroidlatlon="16.42302795806086,48.21307265843614"></polygon></g><g transform="translate(205.443426 -1560.8820113) rotate(0)"><polygon id="38838971" class="tile" points="-96.8714399124,1823.57070116 -131.663198214,1823.60077059 -134.683068274,1823.54840061 -134.601655369,1833.30694094 -140.448385354,1833.22130758 -140.450320363,1869.41849596 -131.537099187,1869.41863369 -131.53869246,1872.42998479 -114.31459111,1872.4418739 -114.301032185,1849.75171938 -110.563047491,1849.74791219 -96.7490731471,1849.7590566 -96.8714399124,1823.57070116 " moovel_rot="-2.7" moovel_centroid="-120.842475774,1845.16358863" moovel_centroidlatlon="16.51127466530708,48.21439847543637"></polygon></g><g transform="translate(47.2921255 -1249.6645081000001) rotate(0)"><polygon id="211278942" class="tile" points="-3.72929179408,2145.55138706 -1.39336710367,2149.2085231 -0.0127009453252,2154.41930848 -2.23805758394,2160.10874485 -5.20085038338,2166.97730698 -5.77632280625,2174.07749528 -3.2486986706,2181.66417542 -0.510167134367,2188.4622258 0.0,2194.84321945 -2.07381697185,2200.79143417 -44.8452453565,2183.98425926 -43.3907386556,2179.73995907 -38.4566226264,2166.72878554 -34.8392811466,2162.24737341 -26.3132596862,2151.66659831 -21.3215209583,2145.46699049 -17.4545473667,2143.13461642 -13.5041279415,2142.19212601 -10.2950162128,2142.67919813 -7.58923433963,2143.22841829 -3.72929179408,2145.55138706 " moovel_rot="27.8" moovel_centroid="-18.755898169973015,2171.55431841" moovel_centroidlatlon="16.444504781500253,48.18143886008845"></polygon></g><g transform="translate(486.8494436 -1117.1266846) rotate(0)"><polygon id="76114090" class="tile" points="-255.415445971,1390.37701996 -235.271521862,1388.41159949 -214.506488872,1427.49902896 -255.456864537,1449.85403847 -255.415445971,1390.37701996 " moovel_rot="17.3" moovel_centroid="-240.085107349,1417.37822169" moovel_centroidlatlon="16.357085375613376,48.16947085518266"></polygon></g><g transform="translate(857.2473553 -1568.0156267999998) rotate(0)"><polygon id="338444816" class="tile" points="-562.245024966,1824.22399584 -563.680870692,1836.63185313 -565.975966403,1851.76422614 -567.880232117,1868.16011363 -567.779901351,1884.8474697 -567.724618985,1902.75951498 -565.313739262,1922.38969529 -562.15295363,1939.62941062 -573.174387266,1943.97196689 -575.815463129,1933.05859396 -571.366941432,1932.22171894 -572.243720968,1927.71598029 -576.28873857,1928.87866463 -579.249483357,1912.15943983 -580.21060131,1885.55120749 -576.582152948,1885.21839862 -576.017110368,1878.57487673 -580.205690763,1878.45210304 -579.961869621,1871.38040742 -575.722718894,1871.4922107 -575.269217508,1866.25023326 -579.768916842,1866.04704549 -579.756963658,1863.79552921 -576.173051981,1840.19080112 -573.675634977,1826.0208136 -569.491008358,1826.31083065 -569.15708199,1823.54840061 -562.245024966,1824.22399584 " moovel_rot="-62.8" moovel_centroid="-571.727123294,1883.3946638" moovel_centroidlatlon="16.364025857939026,48.23649332711746"></polygon></g><g transform="translate(184.051449 -1415.2575208) rotate(0)"><polygon id="406738501" class="tile" points="-11.3274933234,1680.78477655 -0.713003385253,1680.55215913 0.0,1802.99523795 -11.4662469713,1805.63100288 -11.3274933234,1680.78477655 " moovel_rot="84.1" moovel_centroid="-5.891881611479959,1743.29290147" moovel_centroidlatlon="16.455020744242248,48.267475026895326"></polygon></g><g transform="translate(789.8231507 -1465.2996452) rotate(0)"><polygon id="27211468" class="tile" points="-519.310512401,1724.45174601 -529.724736682,1684.03404869 -554.723147782,1680.55215913 -554.754613825,1683.79988004 -558.791622164,1683.6777613 -558.798861654,1688.20771237 -558.824973793,1729.9429609 -558.827040612,1733.59021123 -519.310512401,1724.45174601 " moovel_rot="-55.9" moovel_centroid="-542.136288624,1707.13759139" moovel_centroidlatlon="16.39863355073076,48.15986430172149"></polygon></g><g transform="translate(493.8354244 -1152.2088373) rotate(0)"><polygon id="265944249" class="tile" points="-349.80263779,2205.17749742 -324.219524921,2206.0167212 -324.323727528,2142.46703448 -348.279207434,2142.19212601 -349.80263779,2205.17749742 " moovel_rot="59.7" moovel_centroid="-336.642962152,2174.31144292" moovel_centroidlatlon="16.46900779950464,48.25066500382257"></polygon></g><g transform="translate(161.1892543 -1774.1706693) rotate(0)"><polygon id="28092011" class="tile" points="-125.938837782,2038.74855043 -154.57605992,2038.68776175 -158.6892505,2038.66979488 -158.678466718,2017.3968192 -158.660160351,1990.29495732 -137.366833437,1990.34248174 -125.906986781,1990.36402081 -125.938837782,2038.74855043 " moovel_rot="-15.9" moovel_centroid="-142.299150927,2014.52169592" moovel_centroidlatlon="16.48494864522818,48.22696965128753"></polygon></g><g transform="translate(453.31034339999997 -1019.0155684000001) rotate(0)"><polygon id="23682133" class="tile" points="-164.253730293,2143.94953797 -185.800453772,2142.19212601 -188.460521367,2202.25992059 -181.241347518,2212.22207102 -164.440249534,2213.26227518 -164.160180023,2207.57187669 -166.859603106,2203.20128308 -164.253730293,2143.94953797 " moovel_rot="-88.9" moovel_centroid="-176.17077733,2177.46534497" moovel_centroidlatlon="16.304805921637755,48.1495736780091"></polygon></g><g transform="translate(481.6107325 -1401.03512) rotate(0)"><polygon id="219628962" class="tile" points="-428.370828811,1666.62562513 -441.33812849,1671.20453749 -441.319385223,1566.57497577 -428.513892695,1567.6658777 -428.370828811,1666.62562513 " moovel_rot="-25.9" moovel_centroid="-434.945069232,1618.13460191" moovel_centroidlatlon="16.33037526210666,48.159299686352824"></polygon></g><g transform="translate(538.97945 -2116.5702142) rotate(0)"><polygon id="202588309" class="tile" points="-452.669854233,2350.3898818 -454.283976206,2356.75989175 -456.336464944,2373.94480051 -480.75053777,2374.54267688 -480.721050283,2312.24714881 -466.023483149,2317.69300621 -458.900919305,2327.91082296 -453.308645226,2338.15989749 -457.065163729,2340.12245938 -456.633276864,2342.40699062 -452.669854233,2350.3898818 " moovel_rot="39.0" moovel_centroid="-468.647521437,2346.51703085" moovel_centroidlatlon="16.393574915703503,48.177235725876486"></polygon></g><g transform="translate(170.1894904 -2141.4119883) rotate(0)"><polygon id="95839150" class="tile" points="-61.0031898478,2358.24985992 -46.9455254873,2337.98404227 -48.3835093235,2336.97807826 -40.7994076076,2326.05674864 -60.6344163518,2312.24714881 -86.4880564926,2349.50333539 -45.0170769772,2378.372675 -40.805153067,2372.30359356 -61.0031898478,2358.24985992 " moovel_rot="-49.8" moovel_centroid="-61.9068810219,2342.4813675" moovel_centroidlatlon="16.356071253402526,48.135244483714736"></polygon></g><g transform="translate(366.0668167 -1515.1941226000001) rotate(0)"><polygon id="300708062" class="tile" points="-194.965068588,1772.54768794 -194.67217643,1726.20231308 -190.99481973,1726.23419421 -190.961295249,1720.96701143 -195.050477711,1720.93395435 -194.802911754,1680.55215913 -180.796215638,1680.65756183 -180.893067565,1696.19501379 -184.31375146,1696.16095899 -184.330670127,1699.58588785 -180.878052964,1699.61032107 -181.010101051,1721.08352061 -183.661308977,1721.06396372 -183.68731942,1725.80275865 -180.944276975,1725.82387387 -181.07453244,1747.35073398 -184.321233531,1747.32687998 -184.350933257,1751.11891046 -180.787656026,1751.15176499 -180.917327559,1772.65749218 -194.965068588,1772.54768794 " moovel_rot="-20.0" moovel_centroid="-187.974851702,1726.68117381" moovel_centroidlatlon="16.452280422602573,48.15421153784664"></polygon></g><g transform="translate(262.7968431 -1400.0661067) rotate(0)"><polygon id="165736852" class="tile" points="-260.250684014,1566.83924007 -255.256571171,1566.80027268 -228.251916523,1566.57497577 -228.165365475,1603.66753464 -232.588865923,1608.25356924 -232.650706977,1611.13412144 -260.296855462,1611.1904232 -260.250684014,1566.83924007 " moovel_rot="81.6" moovel_centroid="-244.45728359,1588.63131386" moovel_centroidlatlon="16.276268726714246,48.193248528769686"></polygon></g><g transform="translate(636.03604 -1532.3074745) rotate(0)"><polygon id="37186199" class="tile" points="-490.94792384,1680.56979232 -501.596303845,1680.55215913 -501.669408684,1787.93692451 -497.010214747,1787.94606484 -491.027547666,1787.95310289 -490.94792384,1680.56979232 " moovel_rot="-13.0" moovel_centroid="-496.310306521,1734.24802791" moovel_centroidlatlon="16.317626041856155,48.20716299831824"></polygon></g><g transform="translate(669.0541978 -1210.078018) rotate(0)"><polygon id="307243234" class="tile" points="-478.863813271,1388.41159949 -461.5707733,1388.52424623 -461.717375113,1460.74240914 -478.752700595,1460.60163195 -478.863813271,1388.41159949 " moovel_rot="68.6" moovel_centroid="-470.225548422,1424.47963531" moovel_centroidlatlon="16.360868887740853,48.157805299331095"></polygon></g><g transform="translate(230.1350687 -1048.2329876) rotate(0)"><polygon id="130785461" class="tile" points="-192.468534134,1846.46987715 -192.465134361,1861.44303105 -227.635190106,1860.89333877 -227.262931727,1823.54840061 -192.732978735,1824.82135042 -192.468534134,1846.46987715 " moovel_rot="71.6" moovel_centroid="-210.05586465,1842.7338032" moovel_centroidlatlon="16.3053922390448,48.13363887125555"></polygon></g><g transform="translate(406.1897729 -1230.3571686) rotate(0)"><polygon id="350390286" class="tile" points="-193.730114045,1388.41159949 -193.672450155,1437.89411486 -191.707626846,1438.53463118 -189.658679282,1439.30672133 -180.97352456,1442.0381368 -175.469432476,1443.8366001 -161.054679252,1398.11884369 -191.787301371,1388.98914946 -193.730114045,1388.41159949 " moovel_rot="72.5" moovel_centroid="-180.617362858,1414.84378273" moovel_centroidlatlon="16.39182728908136,48.16013941117757"></polygon></g><g transform="translate(350.7503035 -1002.1342837999999) rotate(0)"><polygon id="133174002" class="tile" points="-81.6282778961,1896.05163689 -73.9271955231,1895.51206315 -66.5199966058,1887.77816656 -66.5199966058,1823.54840061 -82.5099282634,1824.12795097 -82.5833991273,1827.94498792 -81.6282778961,1896.05163689 " moovel_rot="0" moovel_centroid="-74.4675645231,1858.48654668" moovel_centroidlatlon="16.510757290376745,48.20673794507973"></polygon></g><g transform="translate(357.2823204 -1239.1618246) rotate(0)"><polygon id="198927345" class="tile" points="-96.0911460293,1391.23220203 -96.736245868,1388.41159949 -75.2903323878,1388.54997205 -74.3161919843,1399.38987707 -81.3695776055,1399.28185913 -80.6809817467,1453.76556567 -96.7078442557,1452.92364466 -96.5034097312,1399.7648358 -96.0911460293,1391.23220203 " moovel_rot="34.7" moovel_centroid="-88.096374004,1419.50647184" moovel_centroidlatlon="16.404323679575093,48.17397833560314"></polygon></g><g transform="translate(387.2795708 -2134.9599593000003) rotate(0)"><polygon id="239022312" class="tile" points="-223.008245067,2312.24714881 -237.213005692,2312.28025047 -237.212861318,2314.48744922 -237.20364036,2384.54420092 -237.201967727,2387.07691399 -222.994436033,2387.03773458 -223.008245067,2312.24714881 " moovel_rot="64.8" moovel_centroid="-230.104868398,2349.66219999" moovel_centroidlatlon="16.484527101206282,48.24146239679788"></polygon></g><g transform="translate(264.4871951 -1702.8453567) rotate(0)"><polygon id="26344506" class="tile" points="-186.552158468,1902.3712707 -180.624821535,1902.30843918 -180.328084317,1893.223723 -178.647251753,1886.19045103 -179.851664266,1885.65960019 -171.494895973,1854.09831109 -170.716310887,1850.93440879 -171.548550474,1847.99813409 -167.612095715,1833.33687315 -177.49016407,1831.09046617 -180.308283692,1830.2201485 -183.366402543,1828.50443487 -185.272101119,1826.20536727 -186.763711873,1823.54840061 -191.451465301,1824.58847863 -187.806843753,1843.14125146 -191.465134361,1843.8199065 -187.507268202,1886.3556879 -186.552158468,1902.3712707 " moovel_rot="-59.0" moovel_centroid="-181.63237934,1857.75626063" moovel_centroidlatlon="16.262924426710605,48.177943622073435"></polygon></g><g transform="translate(389.8798216 -2211.4896636) rotate(0)"><polygon id="354474855" class="tile" points="-269.159272013,2375.67743522 -284.741732181,2377.98615576 -288.445657071,2377.92889909 -288.423522417,2354.19641094 -287.784083972,2312.24714881 -283.535685626,2312.41732348 -275.136474723,2319.73952234 -271.590627554,2319.53712345 -271.497938207,2336.6941218 -270.384485667,2337.9002721 -270.114793439,2343.54290248 -269.217114786,2344.27481281 -269.159272013,2375.67743522 " moovel_rot="69.3" moovel_centroid="-279.424680987,2347.53964009" moovel_centroidlatlon="16.32292194597088,48.17437626464913"></polygon></g><g transform="translate(517.918518 -1456.1513414) rotate(0)"><polygon id="156542740" class="tile" points="-515.418506387,1566.6452474 -515.448776998,1571.02848607 -515.370672714,1602.30698847 -515.40236669,1617.81426471 -493.348600675,1617.74242937 -493.352733924,1566.57497577 -515.418506387,1566.6452474 " moovel_rot="49.1" moovel_centroid="-504.37777371,1592.18212346" moovel_centroidlatlon="16.403391560981376,48.19280028323521"></polygon></g><g transform="translate(657.2363917 -887.8586189) rotate(0)"><polygon id="28801342" class="tile" points="-504.542143198,1201.0 -489.872052706,1201.44006916 -490.253950597,1274.31869169 -504.426554071,1274.39863534 -504.542143198,1201.0 " moovel_rot="43.2" moovel_centroid="-497.281733987,1237.5785956549894" moovel_centroidlatlon="16.41921555324426,48.21273374232134"></polygon></g><g transform="translate(151.792067 -1447.2934693) rotate(0)"><polygon id="71175453" class="tile" points="-122.150021913,1566.57497577 -111.361236935,1566.71404083 -94.716384109,1566.93703744 -94.6652812815,1594.81509064 -94.6404291649,1607.64693939 -110.924983975,1607.83668337 -122.222226942,1607.97036168 -122.202166917,1595.02522032 -122.150021913,1566.57497577 " moovel_rot="77.8" moovel_centroid="-108.471433161,1587.29967663" moovel_centroidlatlon="16.36168280284792,48.17193694667191"></polygon></g><g transform="translate(403.891391 -1719.4034262) rotate(0)"><polygon id="312108354" class="tile" points="-249.449195357,1823.54840061 -249.402564932,1834.50779644 -249.474119353,1862.31945698 -278.20913216,1862.79172641 -278.254438661,1823.72089834 -249.449195357,1823.54840061 " moovel_rot="-73.1" moovel_centroid="-263.851847393,1843.08466941" moovel_centroidlatlon="16.392074721935703,48.26746088131946"></polygon></g><g transform="translate(657.4546221 -1305.8330875000001) rotate(0)"><polygon id="26572214" class="tile" points="-450.033380236,1479.0774033 -460.490886872,1479.21112812 -460.5707733,1390.14871348 -458.831901793,1389.68246529 -454.004232768,1388.41159949 -449.804742661,1388.68314161 -449.87215395,1403.85691965 -449.882416448,1436.46966145 -450.033380236,1479.0774033 " moovel_rot="-71.8" moovel_centroid="-455.204840094,1433.87573201" moovel_centroidlatlon="16.353537381680212,48.17583658092652"></polygon></g><g transform="translate(268.117361 -214.69968849999998) rotate(0)"><polygon id="31893079" class="tile" points="-171.3055376,1202.72971285 -171.700994036,1205.73370129 -172.033634181,1213.1199674 -172.335785308,1221.62392557 -173.031020359,1238.37914851 -171.295514939,1266.73969396 -188.234161243,1265.77765365 -188.352181816,1253.2928188 -188.142074616,1237.41254258 -188.664969605,1230.42797952 -188.614606588,1201.29448598 -184.633378773,1201.0 -182.744900059,1201.38512304 -179.641436333,1201.60036365 -171.3055376,1202.72971285 " moovel_rot="-15.1" moovel_centroid="-180.351644205,1233.785373591688" moovel_centroidlatlon="16.407686336141996,48.30185115262077"></polygon></g><g transform="translate(345.7094081 -1482.1676473) rotate(0)"><polygon id="32496936" class="tile" points="-183.556326486,1566.57497577 -186.051945798,1572.61230409 -186.412222648,1640.02077666 -181.59871784,1642.77877529 -170.986151416,1642.40193299 -171.067327243,1585.77388059 -172.939608159,1585.85902329 -177.509968211,1583.90192612 -177.364454249,1567.37908943 -183.556326486,1566.57497577 " moovel_rot="54.8" moovel_centroid="-179.063327652,1608.28875107" moovel_centroidlatlon="16.42248336047037,48.275501892027556"></polygon></g><g transform="translate(502.93337799999995 -1113.8375755000002) rotate(0)"><polygon id="84821121" class="tile" points="-274.972294011,1201.0 -290.296304021,1201.50453718 -288.994769345,1267.23023168 -275.026493106,1267.10392397 -275.020758567,1262.37428941 -274.972294011,1201.0 " moovel_rot="81.8" moovel_centroid="-282.320361345,1233.7004626508226" moovel_centroidlatlon="16.365699774744634,48.16351623159494"></polygon></g><g transform="translate(412.729026 -1569.9117751) rotate(0)"><polygon id="251576365" class="tile" points="-154.638720465,1715.01483409 -154.324416954,1708.84541099 -149.026342102,1708.86263103 -149.012267134,1680.55215913 -179.787656026,1681.12631073 -179.774723436,1714.87197796 -154.638720465,1715.01483409 " moovel_rot="-43.2" moovel_centroid="-164.762313378,1697.42934175" moovel_centroidlatlon="16.389312922956076,48.16530288569287"></polygon></g><g transform="translate(428.9645187 -1633.0123456) rotate(0)"><polygon id="172398428" class="tile" points="-148.012267134,1680.55215913 -137.960259261,1685.89510479 -136.20346353,1710.76681178 -134.949322039,1743.87393346 -139.692951282,1773.94252126 -147.970366912,1777.61530663 -146.006285877,1758.99463665 -144.067709803,1733.41132777 -144.288990715,1709.97436888 -148.012267134,1680.55215913 " moovel_rot="48.4" moovel_centroid="-141.126211026,1729.32952381" moovel_centroidlatlon="16.309901562030728,48.26549070079801"></polygon></g><g transform="translate(243.4437754 -1150.2511653) rotate(0)"><polygon id="346893450" class="tile" points="-206.538233831,1201.21013445 -221.233971978,1201.0 -221.357038766,1208.82146508 -221.175102868,1210.13879611 -221.409186286,1231.36046547 -221.358120069,1232.16000833 -221.667644406,1254.24702232 -216.045315777,1254.49344059 -215.90631221,1255.2418919 -212.211758583,1263.29961043 -211.956363791,1264.55754431 -205.749180864,1264.47026196 -206.018746207,1254.60199048 -206.233375379,1246.6608998 -205.789638991,1204.89548681 -206.538233831,1201.21013445 " moovel_rot="7.0" moovel_centroid="-213.381251663,1230.628252255567" moovel_centroidlatlon="16.36759796633747,48.234247682490036"></polygon></g><g transform="translate(572.1331974 -1334.3272293999999) rotate(0)"><polygon id="239022315" class="tile" points="-515.37119343,1448.55274175 -522.605885708,1448.55099478 -529.438627024,1448.54448812 -529.442156633,1388.41159949 -522.358006584,1388.41679037 -515.384641619,1388.42096566 -515.37119343,1448.55274175 " moovel_rot="-83.6" moovel_centroid="-522.409177339,1418.48672547" moovel_centroidlatlon="16.481057486313333,48.24237106999981"></polygon></g><g transform="translate(354.08258390000003 -839.0257523) rotate(0)"><polygon id="61569875" class="tile" points="-327.710004934,1994.9300753 -351.585759194,1990.29495732 -349.914276966,1994.96935312 -351.584388416,2038.99112245 -333.382360349,2039.02571147 -335.401306888,2002.30827421 -327.622634584,2002.06756442 -327.710004934,1994.9300753 " moovel_rot="-0.8" moovel_centroid="-341.916145737,2015.00402107" moovel_centroidlatlon="16.300049676247514,48.143503285965366"></polygon></g><g transform="translate(526.8397031 -1629.9417764) rotate(0)"><polygon id="203348089" class="tile" points="-464.588408095,1680.67637439 -464.716776093,1821.85858281 -461.447691705,1821.95356197 -461.492822358,1680.55215913 -464.588408095,1680.67637439 " moovel_rot="53.6" moovel_centroid="-463.06120081,1751.90233486" moovel_centroidlatlon="16.31408166312892,48.20207415839286"></polygon></g><g transform="translate(91.6516216 -1301.4839422) rotate(0)"><polygon id="26517768" class="tile" points="0.0,2020.01503008 -28.6603160997,2019.44579645 -28.0859075272,1990.29495732 0.0,1990.86419421 0.0,2020.01503008 " moovel_rot="0" moovel_centroid="-14.187975141359283,2005.2041455" moovel_centroidlatlon="16.283130221244715,48.17820250782978"></polygon></g><g transform="translate(217.4929621 -2067.7766768) rotate(0)"><polygon id="25634335" class="tile" points="-147.126400926,2180.05196829 -145.72837101,2179.38122353 -135.147149681,2174.34935498 -117.480705672,2163.96142489 -117.809274556,2147.8291938 -146.386635099,2142.33542431 -147.12333581,2142.19212601 -147.126400926,2180.05196829 " moovel_rot="52.0" moovel_centroid="-134.337919583,2159.09648784" moovel_centroidlatlon="16.254471286936067,48.151340792839"></polygon></g><g transform="translate(85.07268429999999 -1514.7629462) rotate(0)"><polygon id="27500827" class="tile" points="-82.572684519,1566.61847545 -82.5271631746,1620.25510645 -68.3579266075,1620.21158794 -68.4034003992,1566.57497577 -82.572684519,1566.61847545 " moovel_rot="68.4" moovel_centroid="-75.4652941055,1593.41502141" moovel_centroidlatlon="16.37922585,48.162364600000004"></polygon></g><g transform="translate(417.97396649999996 -1900.9280769000002) rotate(0)"><polygon id="129915376" class="tile" points="-227.614644027,1991.19732971 -238.281961008,1990.29495732 -238.256077704,2057.41400029 -236.987538711,2060.03601938 -233.254429414,2061.48076855 -229.385301674,2061.56710646 -227.614644027,1991.19732971 " moovel_rot="-19.3" moovel_centroid="-233.347489663,2024.71244669" moovel_centroidlatlon="16.309825460634062,48.13283868699379"></polygon></g><g transform="translate(639.9948846 -776.3370897) rotate(0)"><polygon id="26288453" class="tile" points="-453.340254867,1566.57497577 -453.381896115,1632.41775142 -452.942140121,1633.97812774 -446.168851695,1634.65109795 -442.33812849,1630.25621521 -442.833561731,1572.83377591 -449.345422363,1566.57915831 -453.340254867,1566.57497577 " moovel_rot="76.6" moovel_centroid="-448.101058054,1601.34677564" moovel_centroidlatlon="16.218070349493097,48.207780151228604"></polygon></g><g transform="translate(711.9369661000001 -1360.5938922) rotate(0)"><polygon id="281394146" class="tile" points="-440.848495291,1388.41159949 -435.92984327,1392.2483983 -435.932579617,1408.96166835 -437.058426483,1415.68869317 -438.144615382,1422.1662775 -436.066828208,1431.87849692 -433.506066184,1443.82359181 -444.035950833,1467.95478289 -445.778992785,1467.13815394 -448.804742661,1465.72252009 -443.967625257,1457.09038679 -440.85094203,1450.15230679 -444.406421297,1445.8427073 -439.384522195,1438.34758027 -448.70747063,1432.14391901 -441.098640214,1420.79469738 -448.731836592,1415.70738742 -441.348897114,1404.68222549 -448.785107987,1399.73548149 -440.848495291,1388.41159949 " moovel_rot="24.7" moovel_centroid="-440.785646185,1424.92586221" moovel_centroidlatlon="16.439771688833595,48.25638276651385"></polygon></g><g transform="translate(518.309262 -945.3617322999999) rotate(0)"><polygon id="283844048" class="tile" points="-313.625070266,1311.95573895 -313.350759144,1256.4469799 -313.692253213,1201.06675429 -310.71607049,1201.02161634 -309.234590013,1201.0 -309.165466356,1311.94928125 -313.625070266,1311.95573895 " moovel_rot="8.2" moovel_centroid="-311.353086671,1256.4969937022154" moovel_centroidlatlon="16.3906437037555,48.2209948510133"></polygon></g><g transform="translate(577.8170022 -1346.8204879) rotate(0)"><polygon id="180869473" class="tile" points="-479.863813271,1416.35729161 -479.882314223,1388.41159949 -507.452805657,1388.74080625 -507.464104087,1416.27954712 -479.863813271,1416.35729161 " moovel_rot="-21.0" moovel_centroid="-493.632026853,1402.44965034" moovel_centroidlatlon="16.324006166000444,48.13513677423606"></polygon></g><g transform="translate(429.6850525 -987.4467736) rotate(0)"><polygon id="205351077" class="tile" points="-423.588737521,1682.78633939 -424.358233145,1684.66969267 -402.82358892,1698.90990713 -401.934709888,1702.9966231 -421.804117933,1734.18886438 -427.194325301,1731.24094314 -424.303945862,1697.79493819 -427.212267559,1685.23717428 -426.304967951,1680.55215913 -423.588737521,1682.78633939 " moovel_rot="-31.1" moovel_centroid="-417.355893752,1707.6474511" moovel_centroidlatlon="16.358106831747985,48.249495927626604"></polygon></g><g transform="translate(472.0224652 -281.18397359999994) rotate(0)"><polygon id="339423319" class="tile" points="-366.781052617,1201.0 -383.307117128,1201.29040895 -383.277114117,1206.81727777 -382.095276484,1206.85953472 -382.211579934,1209.85515454 -383.264920343,1209.79072948 -383.361139144,1212.56737571 -382.058690806,1212.60700046 -382.164667932,1215.5431939 -383.23500117,1215.53778409 -383.315584419,1228.12428337 -382.147690116,1228.1756967 -382.11614753,1231.2704282 -383.237417031,1231.33196628 -383.30936569,1234.04002176 -382.112974846,1234.06315085 -382.08565916,1237.11758405 -383.211155769,1237.13882721 -383.357028399,1241.38375151 -373.747182938,1240.16988627 -368.599534451,1239.59392447 -362.133580271,1238.79832195 -362.190907533,1236.56279625 -364.760115383,1236.66589227 -365.943254771,1216.2951197 -363.434614962,1216.08822718 -364.078641605,1204.40824269 -366.567239115,1204.50626156 -366.781052617,1201.0 " moovel_rot="-3.5" moovel_centroid="-373.902562592,1220.7658977977337" moovel_centroidlatlon="16.283870457496995,48.197762568754534"></polygon></g><g transform="translate(535.4476445 -1359.3873002) rotate(0)"><polygon id="52154540" class="tile" points="-418.150817554,1388.41159949 -432.506066184,1388.43842223 -432.492284477,1436.45378622 -418.135272175,1436.43676555 -418.150817554,1388.41159949 " moovel_rot="10.2" moovel_centroid="-425.320865678,1412.43563378" moovel_centroidlatlon="16.280739947693217,48.15927736971922"></polygon></g><g transform="translate(432.4702436 -1150.3898731) rotate(0)"><polygon id="149273357" class="tile" points="-141.450320363,1823.54840061 -145.315043574,1825.71964782 -144.733374803,1938.73866419 -141.507582926,1936.57713664 -141.450320363,1823.54840061 " moovel_rot="-12.7" moovel_centroid="-143.256506611,1879.45146906" moovel_centroidlatlon="16.330320374287975,48.207816456760646"></polygon></g><g transform="translate(544.432867 -2085.4674124999997) rotate(0)"><polygon id="356963343" class="tile" points="-422.092600014,2186.05245944 -411.54141943,2176.97673324 -396.832702687,2160.50376446 -404.613948756,2145.17412095 -412.984442304,2142.19212601 -418.393416245,2145.01150303 -422.124053649,2151.55063827 -422.092600014,2186.05245944 " moovel_rot="-94.4" moovel_centroid="-412.258742003,2161.21096141" moovel_centroidlatlon="16.27181072425129,48.214490540327056"></polygon></g><g transform="translate(483.7285525 -911.6255521999999) rotate(0)"><polygon id="160927422" class="tile" points="-387.199938513,2005.3120505 -387.112108158,2004.45587403 -386.891417915,2002.28482171 -386.745766769,2000.79816064 -390.634081805,1998.91401514 -390.685837125,1997.61141292 -392.055017867,1997.50403844 -391.8073938,1990.73077274 -400.068056253,1990.50044945 -404.151749267,1990.42139589 -410.539628576,1990.29495732 -410.660260062,1993.81888336 -411.250740121,1993.78441647 -411.224915309,2019.18366211 -390.430706198,2022.75763825 -387.199938513,2005.3120505 " moovel_rot="-62.8" moovel_centroid="-399.960996464,2006.11285184" moovel_centroidlatlon="16.36873046829023,48.18946070912466"></polygon></g><g transform="translate(802.280583 -1652.249347) rotate(0)"><polygon id="375270724" class="tile" points="-559.827040612,1738.04985864 -559.846596161,1680.56104001 -569.738514717,1680.55215913 -569.728671198,1738.04327358 -559.827040612,1738.04985864 " moovel_rot="-76.7" moovel_centroid="-564.785237514,1709.3062845" moovel_centroidlatlon="16.441471581433262,48.27057556385133"></polygon></g><g transform="translate(520.3889319 -715.0705933) rotate(0)"><polygon id="25713539" class="tile" points="-401.854977684,1239.47131101 -398.939045615,1239.38986168 -384.881095405,1237.63547813 -384.361139144,1203.66525495 -389.756216125,1202.02163888 -401.858247789,1201.0 -401.854977684,1239.47131101 " moovel_rot="37.0" moovel_centroid="-393.40563298,1220.193895509766" moovel_centroidlatlon="16.310290374484268,48.24073761844109"></polygon></g><g transform="translate(345.8079224 -906.2428361999999) rotate(0)"><polygon id="29722146" class="tile" points="-303.20739088,1680.55215913 -283.719233846,1680.55668689 -283.689268184,1713.16209217 -303.183948102,1713.15612776 -303.191177654,1705.63568886 -303.198049075,1690.08562395 -303.20739088,1680.55215913 " moovel_rot="-12.2" moovel_centroid="-293.449731753,1696.85811139" moovel_centroidlatlon="16.34353161739492,48.17101743731194"></polygon></g><g transform="translate(518.4236825 -952.2774023) rotate(0)"><polygon id="354041396" class="tile" points="-392.583885705,1394.40808699 -397.342847447,1392.0818756 -398.674356301,1393.05786217 -401.502459416,1392.11309309 -409.261410018,1388.56822376 -417.135272175,1388.41159949 -417.128299472,1416.12263539 -392.998269831,1416.45921848 -392.583885705,1394.40808699 " moovel_rot="-12.5" moovel_centroid="-405.451728475,1403.37356662" moovel_centroidlatlon="16.422744236825526,48.28913691593841"></polygon></g><g transform="translate(533.7135883 -1951.4447531) rotate(0)"><polygon id="173848721" class="tile" points="-357.943596283,2019.09885263 -362.18263919,2001.50114837 -357.949222638,2000.47813689 -360.401342158,1990.29495732 -373.985716176,1993.57471328 -371.587883205,2003.53715934 -385.745766769,2006.95194744 -381.453750496,2024.7638364 -357.943596283,2019.09885263 " moovel_rot="-78.7" moovel_centroid="-370.39792003,2009.07586593" moovel_centroidlatlon="16.31605929139879,48.15061851744616"></polygon></g><g transform="translate(761.8091171 -1359.6761307) rotate(0)"><polygon id="27212307" class="tile" points="-508.464104087,1388.41159949 -514.310985326,1388.41569198 -514.348971899,1433.72978295 -514.37119343,1465.51189118 -508.514719032,1465.51047714 -508.499772183,1442.99792896 -508.464104087,1388.41159949 " moovel_rot="74.4" moovel_centroid="-511.415849334,1426.97352471" moovel_centroidlatlon="16.384650762957754,48.159663100834116"></polygon></g><g transform="translate(276.8322922 -2093.6786871) rotate(0)"><polygon id="165738084" class="tile" points="-96.1555232113,2142.19212601 -75.7654804722,2142.41718696 -76.3854950551,2169.86698298 -83.4619636736,2169.1252858 -85.2035324568,2168.93654483 -86.2883660004,2169.39533162 -86.768424935,2170.83729141 -86.82332077,2172.98190543 -86.2274250741,2174.45902017 -96.1146570806,2174.19195861 -96.1514219764,2147.18638919 -96.1555232113,2142.19212601 " moovel_rot="-8.8" moovel_centroid="-86.5196760485,2157.04532791" moovel_centroidlatlon="16.275803909994206,48.1933046196578"></polygon></g><g transform="translate(574.3716403 -1346.6346707999999) rotate(0)"><polygon id="348060975" class="tile" points="-446.161256551,1680.55215913 -437.76896118,1682.13424941 -437.387617365,1739.98506461 -446.202209548,1740.35805624 -446.161256551,1680.55215913 " moovel_rot="39.2" moovel_centroid="-441.903499089,1710.99958553" moovel_centroidlatlon="16.388984514585623,48.170035643759185"></polygon></g><g transform="translate(415.239897 -1350.1901232) rotate(0)"><polygon id="239022310" class="tile" points="-209.19887154,1427.93042301 -209.164531709,1388.41159949 -194.730114045,1388.46538366 -194.732103597,1390.51280576 -194.759123432,1427.97580774 -209.19887154,1427.93042301 " moovel_rot="-32.4" moovel_centroid="-201.963539083,1408.19711586" moovel_centroidlatlon="16.477896944224074,48.23934051183689"></polygon></g><g transform="translate(548.6827711000001 -1174.8300407) rotate(0)"><polygon id="195001114" class="tile" points="-402.858247789,1225.92615642 -426.378583482,1226.65402167 -426.367240932,1201.48668943 -422.654020648,1201.26623923 -403.068277261,1201.0 -402.858247789,1225.92615642 " moovel_rot="70.8" moovel_centroid="-414.693920869,1213.7515295693347" moovel_centroidlatlon="16.36426093749336,48.16017026939393"></polygon></g><g transform="translate(333.7015149 -1369.6472732999998) rotate(0)"><polygon id="379908701" class="tile" points="-272.214162979,1415.58219787 -272.228192362,1388.41159949 -282.22298788,1388.70592076 -282.486528857,1394.65608264 -297.014386888,1395.65087622 -297.035678587,1415.60258401 -285.778647813,1415.80890723 -272.214162979,1415.58219787 " moovel_rot="51.2" moovel_centroid="-283.741554248,1403.85624858" moovel_centroidlatlon="16.337176623197948,48.145474437092396"></polygon></g><g transform="translate(585.4889847 -704.0819885999999) rotate(0)"><polygon id="284988965" class="tile" points="-291.353971072,1201.0 -308.165466356,1201.04173478 -308.118224663,1237.73850794 -293.016739505,1237.38931422 -293.3782812,1207.49791237 -296.994475722,1207.93231895 -297.165205445,1206.52141105 -291.296304021,1205.98619363 -291.353971072,1201.0 " moovel_rot="-31.1" moovel_centroid="-300.588128025,1219.1813508987489" moovel_centroidlatlon="16.36752737610418,48.24307980783838"></polygon></g><g transform="translate(288.1273862 -1382.0339557) rotate(0)"><polygon id="297517261" class="tile" points="-271.214162979,1429.15952893 -271.185963084,1388.41159949 -261.303724033,1388.67941766 -256.768925972,1388.79940852 -256.456864537,1423.73170569 -271.214162979,1429.15952893 " moovel_rot="-16.2" moovel_centroid="-264.091028462,1407.63620269" moovel_centroidlatlon="16.344870991198388,48.243775272516196"></polygon></g><g transform="translate(356.34667290000004 -1195.8780426) rotate(0)"><polygon id="250559286" class="tile" points="-155.780466919,1201.17726727 -155.623031904,1211.88272357 -159.09560262,1211.89217662 -159.083383608,1214.18150569 -155.503692671,1214.15759191 -155.471990395,1221.62559739 -159.432850539,1221.6561559 -159.572268346,1232.05999591 -155.183043753,1232.40291817 -155.565169685,1239.44506332 -170.295514939,1239.45065076 -170.276783884,1201.0 -155.780466919,1201.17726727 " moovel_rot="63.9" moovel_centroid="-163.448743851,1219.9230154669663" moovel_centroidlatlon="16.300354149335547,48.15353096834516"></polygon></g><g transform="translate(462.4500807 -1481.5054759999998) rotate(0)"><polygon id="158199594" class="tile" points="-272.238739934,2142.19212601 -257.632505514,2143.13134986 -258.004732055,2181.27899802 -269.385909049,2181.40996889 -272.196600032,2172.41733693 -272.238739934,2142.19212601 " moovel_rot="68.6" moovel_centroid="-264.904450072,2161.53068402" moovel_centroidlatlon="16.390909707164994,48.14399527199423"></polygon></g><g transform="translate(723.6353808 -1191.511629) rotate(0)"><polygon id="348340564" class="tile" points="-427.977425314,1234.9385868 -433.152775957,1234.77180122 -442.662167419,1221.72427403 -450.537558526,1210.80750878 -449.097200968,1205.70458753 -448.943885696,1201.0 -429.056794256,1201.35388736 -427.828518119,1202.05294419 -427.384960884,1203.07701987 -427.378583482,1212.92057439 -427.977425314,1234.9385868 " moovel_rot="79.1" moovel_centroid="-436.745142216,1214.8469047908136" moovel_centroidlatlon="16.328476638484062,48.18217094486373"></polygon></g><g transform="translate(517.2844739 -1636.1683183) rotate(0)"><polygon id="161847044" class="tile" points="-228.635190106,1823.54840061 -228.656825343,1886.71210339 -235.695649241,1886.729456 -235.674043767,1823.56572153 -228.635190106,1823.54840061 " moovel_rot="43.2" moovel_centroid="-232.165427401,1855.13889812" moovel_centroidlatlon="16.436716,48.20186860000001"></polygon></g><g transform="translate(200.4231441 -1677.3725615) rotate(0)"><polygon id="377666230" class="tile" points="-112.119466866,1683.48754176 -124.407424684,1682.1812194 -126.480757219,1681.71565895 -132.452439731,1680.55215913 -133.56174445,1686.16315541 -133.948047296,1688.00881446 -133.949322039,1697.07448374 -133.353781108,1698.77223519 -131.831883115,1701.66909875 -130.188183927,1704.17281649 -128.316974983,1706.12203493 -126.079872523,1707.12546374 -122.845198441,1708.39354728 -118.833048704,1710.1996922 -112.490178985,1714.44143234 -112.214789137,1707.27919937 -112.256918131,1703.13828204 -112.021548914,1696.9260736 -112.75499915,1696.79971188 -112.119466866,1683.48754176 " moovel_rot="-43.2" moovel_centroid="-122.285167666,1695.45506959" moovel_centroidlatlon="16.346126894022294,48.24245465898592"></polygon></g><g transform="translate(612.2578445 -1273.7054358999999) rotate(0)"><polygon id="33531876" class="tile" points="-319.628101532,1741.17923401 -323.22409487,1741.12632609 -326.825119933,1741.06249094 -326.861841767,1738.22021145 -326.962931061,1730.78886754 -327.507441108,1689.31028396 -327.536995507,1686.93510639 -327.554797076,1685.38234622 -324.200767278,1685.25510068 -324.261325496,1680.72737822 -319.547212206,1680.55215913 -319.628101532,1741.17923401 " moovel_rot="-9.0" moovel_centroid="-323.318881644,1711.26603704" moovel_centroidlatlon="16.424136238149565,48.27480051444877"></polygon></g><g transform="translate(678.6704387 -1111.2943223) rotate(0)"><polygon id="236107570" class="tile" points="-570.809475931,1728.63067324 -570.774333097,1703.25776309 -570.738514717,1680.55215913 -579.783792802,1680.72500943 -579.574899731,1703.07694018 -579.338269471,1728.42324255 -570.809475931,1728.63067324 " moovel_rot="-32.9" moovel_centroid="-575.163152167,1704.34756825" moovel_centroidlatlon="16.44745280772755,48.229178299157724"></polygon></g><g transform="translate(766.6404796 -230.4634695000001) rotate(0)"><polygon id="105257852" class="tile" points="-511.53364552,1205.21804757 -510.759902551,1207.40390116 -507.034579104,1207.38908689 -505.563999577,1208.69835872 -505.542143198,1241.38081131 -506.416961209,1240.28127656 -513.57350389,1231.32772826 -521.0932923,1227.09122889 -518.611034697,1202.53200745 -513.194761274,1201.0 -511.53364552,1205.21804757 " moovel_rot="-83.7" moovel_centroid="-512.486746653,1219.3309564935712" moovel_centroidlatlon="16.30828484456311,48.17030070239257"></polygon></g><g transform="translate(674.9353732 -842.0176865) rotate(0)"><polygon id="99683764" class="tile" points="-530.898076406,1568.15184506 -521.813520445,1566.57497577 -516.448776998,1599.60089726 -530.894825125,1601.66354277 -530.791792703,1574.97428103 -530.898076406,1568.15184506 " moovel_rot="78.3" moovel_centroid="-524.875664817,1585.26961558" moovel_centroidlatlon="16.360772976337543,48.16365116188314"></polygon></g><g transform="translate(453.0977541 -2136.531997) rotate(0)"><polygon id="211291687" class="tile" points="-289.044594321,2143.08845471 -303.185787196,2142.19212601 -303.420845124,2149.79645725 -298.961168097,2153.11780169 -302.401117971,2157.57692422 -302.450847114,2166.55676662 -301.072378834,2166.65542094 -301.15914751,2170.20300183 -293.339408197,2172.43114326 -289.08419373,2172.57765376 -289.044594321,2143.08845471 " moovel_rot="-30.7" moovel_centroid="-295.541459687,2156.9012402" moovel_centroidlatlon="16.386949955981045,48.15945110112396"></polygon></g><g transform="translate(409.7476094 -1451.3817574) rotate(0)"><polygon id="359373287" class="tile" points="-318.547212206,1680.59533383 -304.20739088,1680.55215913 -304.316195828,1686.25426753 -304.218160969,1706.91079494 -317.065548439,1707.14525638 -318.38157177,1707.07810099 -318.547212206,1680.59533383 " moovel_rot="-13.4" moovel_centroid="-311.37373445,1693.78705804" moovel_centroidlatlon="16.3796371516701,48.17419983957593"></polygon></g><g transform="translate(353.9985745 -843.537296) rotate(0)"><polygon id="354381166" class="tile" points="-261.29766503,1566.57497577 -261.296855462,1570.18429677 -261.303828491,1601.91635613 -261.303952176,1605.37804084 -273.511882471,1594.01197688 -273.485874044,1577.20634004 -261.29766503,1566.57497577 " moovel_rot="-18.1" moovel_centroid="-266.595408973,1585.82261766" moovel_centroidlatlon="16.36340526349274,48.253248615769515"></polygon></g><g transform="translate(678.4102751 -687.1460565) rotate(0)"><polygon id="219894797" class="tile" points="-488.872052706,1201.0261894 -476.887235719,1201.0 -476.873444732,1229.5254212 -488.851230997,1229.56138868 -488.872052706,1201.0261894 " moovel_rot="69.4" moovel_centroid="-482.871334714,1215.2768567375535" moovel_centroidlatlon="16.452243907343085,48.243260383101905"></polygon></g><g transform="translate(280.6353945 -2137.2280129) rotate(0)"><polygon id="444183450" class="tile" points="-74.7654804722,2143.52702899 -70.8006910686,2143.52257018 -70.7967657055,2142.20106428 -67.5239840261,2142.19213497 -65.0784022487,2142.19212601 -65.0769422435,2143.63741563 -65.0730458471,2145.62166515 -65.0711910057,2152.57436529 -60.8511352058,2152.567313 -60.8432250355,2156.83574004 -64.8889474514,2156.83736484 -64.8861758695,2162.73377108 -60.8084365058,2162.72502819 -60.8111508348,2170.50153505 -64.9236292583,2170.38052215 -74.7589901232,2170.09031205 -74.7654804722,2143.52702899 " moovel_rot="78.5" moovel_centroid="-68.731461409,2157.43158" moovel_centroidlatlon="16.362376387586586,48.17190472253596"></polygon></g><g transform="translate(779.8522954 -49.7825143) rotate(0)"><polygon id="250015235" class="tile" points="-525.701953324,1231.72312473 -522.098939795,1226.27890211 -527.472049517,1222.69716015 -522.0932923,1214.66336576 -525.58576682,1203.9269169 -530.106359514,1201.0 -541.591523156,1218.78075967 -538.388952664,1220.96235002 -539.20821063,1223.1468071 -533.636250952,1226.68568013 -525.701953324,1231.72312473 " moovel_rot="-11.0" moovel_centroid="-530.579592807,1216.612448230473" moovel_centroidlatlon="16.395174253719986,48.260845984449176"></polygon></g><g transform="translate(622.7052751 -1247.0005524999997) rotate(0)"><polygon id="292455806" class="tile" points="-561.598824361,2143.045321 -570.806825831,2142.19212601 -570.050450312,2164.76440864 -570.793651381,2179.51990299 -563.901117774,2180.63340515 -563.038671475,2166.51679374 -561.598824361,2143.045321 " moovel_rot="68.0" moovel_centroid="-566.554267134,2160.37471056" moovel_centroidlatlon="16.31479465491273,48.229960222780534"></polygon></g><g transform="translate(462.94769269999995 -803.1363556000001) rotate(0)"><polygon id="207784023" class="tile" points="-460.447691705,1717.15817453 -460.437559921,1694.2589975 -447.287896034,1680.55215913 -447.202209548,1703.82391055 -460.447691705,1717.15817453 " moovel_rot="-89.1" moovel_centroid="-453.821428097,1698.93922916" moovel_centroidlatlon="16.345076280675542,48.22119415062363"></polygon></g><g transform="translate(419.5066145 -926.2906516) rotate(0)"><polygon id="196844984" class="tile" points="-248.402564932,1823.98700838 -236.695649241,1823.54840061 -237.866390772,1833.99004828 -236.720075335,1847.16688531 -237.814171771,1851.37531352 -239.387958258,1855.21218034 -242.106293848,1855.46107749 -245.505085064,1855.77542273 -246.091609675,1841.90562909 -247.737687767,1841.98033545 -248.315968901,1828.27188078 -248.402564932,1823.98700838 " moovel_rot="74.9" moovel_centroid="-242.337224072,1838.37114481" moovel_centroidlatlon="16.3221602661101,48.23944575611181"></polygon></g><g transform="translate(210.5626761 -1984.8417507) rotate(0)"><polygon id="406738500" class="tile" points="-30.6603160997,2018.6303043 -41.5076716258,2018.82841356 -41.5095722453,1990.49783193 -30.6732520959,1990.29495732 -30.6603160997,2018.6303043 " moovel_rot="-79.6" moovel_centroid="-36.0875439222,2004.56527679" moovel_centroidlatlon="16.442694589193724,48.26989152222889"></polygon></g><g transform="translate(230.1589072 -1904.0475288) rotate(0)"><polygon id="407906727" class="tile" points="-111.726746044,2142.19212601 -111.719736171,2190.95263086 -116.473678314,2190.96620021 -116.480705672,2142.20568271 -111.726746044,2142.19212601 " moovel_rot="54.1" moovel_centroid="-114.100216656,2166.579145" moovel_centroidlatlon="16.441374900000003,48.153140799999996"></polygon></g><g transform="translate(662.9574378 -620.9243965000001) rotate(0)"><polygon id="402848626" class="tile" points="-518.310512401,1701.89422614 -507.732648573,1702.50593153 -502.823692803,1698.73947324 -502.669408684,1695.59771906 -503.159816846,1680.96320106 -518.306375648,1680.55215913 -518.310512401,1701.89422614 " moovel_rot="55.1" moovel_centroid="-510.749898312,1691.29691825" moovel_centroidlatlon="16.388544507885385,48.277220024284716"></polygon></g><g transform="translate(374.3058818 -1344.5748089) rotate(0)"><polygon id="26274665" class="tile" points="-139.860397573,2341.48503856 -153.721110068,2342.42903929 -153.697881453,2312.65910815 -146.253165198,2312.24714881 -145.503536821,2335.86550474 -140.41717608,2335.3575614 -139.860397573,2341.48503856 " moovel_rot="-5.0" moovel_centroid="-148.906447868,2328.92720098" moovel_centroidlatlon="16.220349607930487,48.20996080058128"></polygon></g><g transform="translate(493.8829789 -849.8076377) rotate(0)"><polygon id="295464167" class="tile" points="-422.001719801,1823.73608381 -422.670506952,1850.34049381 -433.8006461,1847.37366238 -433.825186924,1823.54840061 -422.001719801,1823.73608381 " moovel_rot="-20.3" moovel_centroid="-427.964142718,1836.14439058" moovel_centroidlatlon="16.2847107719571,48.19403619663896"></polygon></g><g transform="translate(117.2501246 -1381.0202167) rotate(0)"><polygon id="237477811" class="tile" points="-112.597530705,1390.57077365 -114.755414729,1423.68170535 -110.927633185,1427.94657593 -106.931196344,1424.33170338 -106.991862836,1388.41159949 -112.597530705,1390.57077365 " moovel_rot="38.3" moovel_centroid="-110.335177011,1408.83555415" moovel_centroidlatlon="16.43652690235345,48.24086652317711"></polygon></g><g transform="translate(462.68956380000003 -1307.1694716999998) rotate(0)"><polygon id="320744396" class="tile" points="-380.996330636,2152.30087885 -381.066612421,2142.19212601 -395.832702687,2142.30743385 -395.821437653,2147.04244555 -395.821016592,2161.56316507 -380.999014283,2161.52595647 -380.996330636,2152.30087885 " moovel_rot="69.4" moovel_centroid="-388.413970309,2151.90377787" moovel_centroidlatlon="16.33215070904867,48.14079947787192"></polygon></g><g transform="translate(486.3611131 -976.6405696) rotate(0)"><polygon id="372869062" class="tile" points="-262.426480828,1201.03058512 -262.423576952,1224.76163241 -273.972294011,1224.72595119 -273.970880281,1201.0 -262.426480828,1201.03058512 " moovel_rot="-49.5" moovel_centroid="-268.198101845,1212.8802821416457" moovel_centroidlatlon="16.393274614538498,48.180063196730046"></polygon></g><g transform="translate(346.2566266 -2306.4124603) rotate(0)"><polygon id="142104348" class="tile" points="-238.229546083,2312.27301694 -252.863954319,2312.24714881 -252.853355538,2330.42525832 -245.603338735,2330.4376457 -238.213005692,2330.45417752 -238.229546083,2312.27301694 " moovel_rot="-27.0" moovel_centroid="-245.539760087,2321.35003204" moovel_centroidlatlon="16.429330421377948,48.252861749746856"></polygon></g><g transform="translate(708.9657626000001 -1707.1580385000002) rotate(0)"><polygon id="99618944" class="tile" points="-534.917773135,2144.29209199 -535.233841199,2142.26135197 -528.428128701,2142.19212601 -527.651683252,2165.94901186 -540.096018228,2166.47263969 -540.095349224,2150.36776408 -534.459773685,2149.92285232 -534.917773135,2144.29209199 " moovel_rot="-17.8" moovel_centroid="-533.510990022,2155.72226305" moovel_centroidlatlon="16.360937631892494,48.16075679416457"></polygon></g><g transform="translate(588.9015779 -1197.0690142) rotate(0)"><polygon id="142104321" class="tile" points="-460.937412268,1201.02238264 -475.873444732,1201.0 -475.860272494,1218.58457343 -460.924249488,1218.60697464 -460.937412268,1201.02238264 " moovel_rot="-27.0" moovel_centroid="-468.398843431,1209.8034817503742" moovel_centroidlatlon="16.42881255,48.2530335"></polygon></g><g transform="translate(450.2752724 -1130.5737292) rotate(0)"><polygon id="29200162" class="tile" points="-253.863954319,2312.24714881 -253.864391698,2330.55908108 -268.159272013,2330.57372959 -268.149362764,2312.26489321 -253.863954319,2312.24714881 " moovel_rot="71.9" moovel_centroid="-261.00904344,2321.41222442" moovel_centroidlatlon="16.3467757634731,48.14527101992277"></polygon></g><g transform="translate(275.69882010000003 -451.31796239999994) rotate(0)"><polygon id="285192515" class="tile" points="-89.6855476721,1595.54356895 -83.572684519,1596.03159092 -83.5794039608,1571.22910799 -88.0888129382,1570.96975145 -87.7853498612,1566.81565361 -92.0134868742,1566.57497577 -93.6404291649,1589.36417886 -89.4530977788,1590.24720769 -89.6855476721,1595.54356895 " moovel_rot="-22.4" moovel_centroid="-88.1636361123,1581.60704278" moovel_centroidlatlon="16.274540646175417,48.198799375594234"></polygon></g><g transform="translate(630.2338821000001 -1635.5430242) rotate(0)"><polygon id="338319775" class="tile" points="-376.69670448,1846.64069171 -376.723629265,1823.54840061 -382.080272506,1824.87801732 -387.30016026,1826.40243241 -383.885658304,1839.61241259 -392.087097718,1841.66209568 -392.000103876,1846.19882357 -384.123657954,1846.48476973 -376.69670448,1846.64069171 " moovel_rot="-77.1" moovel_centroid="-382.260280234,1836.58866211" moovel_centroidlatlon="16.25762579591904,48.13846344201857"></polygon></g><g transform="translate(434.4359312 -1562.6542806999998) rotate(0)"><polygon id="173939911" class="tile" points="-187.412222648,1566.57497577 -202.533883001,1567.79815182 -201.536778405,1579.79395767 -196.214320118,1580.03725061 -197.544026846,1583.92992314 -188.916883504,1586.87732669 -187.418569579,1582.47086643 -187.412222648,1566.57497577 " moovel_rot="-21.0" moovel_centroid="-194.040541457,1575.48984479" moovel_centroidlatlon="16.501164614926143,48.254615935790135"></polygon></g><g transform="translate(281.3578532 -632.9461099) rotate(0)"><polygon id="194132310" class="tile" points="-203.488231466,1219.23243644 -204.715093982,1214.09300558 -204.749180864,1205.23843052 -199.891384437,1203.38958742 -200.119492206,1201.0668935 -194.681963608,1201.0 -194.376236726,1203.9680206 -189.664969605,1204.14038447 -189.667054928,1219.59160989 -203.488231466,1219.23243644 " moovel_rot="63.2" moovel_centroid="-197.037675668,1211.0613258279277" moovel_centroidlatlon="16.486155159043893,48.28127007906519"></polygon></g><g transform="translate(680.1592568 -526.4603664) rotate(0)"><polygon id="237192689" class="tile" points="-542.735099095,1408.50877344 -554.609440884,1408.29709822 -554.353767518,1388.41159949 -550.055882769,1388.47592601 -542.759502877,1388.57798638 -542.735099095,1408.50877344 " moovel_rot="-89.7" moovel_centroid="-548.612650933,1398.48918504" moovel_centroidlatlon="16.23080867118855,48.216863915914445"></polygon></g><g transform="translate(354.2420958 -1629.2604214000003) rotate(0)"><polygon id="250706116" class="tile" points="-273.66586524,2142.27368311 -273.238739934,2151.63636967 -273.260850518,2159.01389933 -277.026579639,2159.0772104 -279.174011007,2157.29684891 -288.044594321,2154.50502134 -288.037241973,2142.19212601 -273.66586524,2142.27368311 " moovel_rot="-18.7" moovel_centroid="-280.269899394,2149.75535399" moovel_centroidlatlon="16.371060442028455,48.13863036428846"></polygon></g><g transform="translate(275.7662399 -562.0856465999999) rotate(0)"><polygon id="120248121" class="tile" points="-105.91999515,1397.09040472 -105.931196344,1413.26955827 -105.034666682,1413.37869797 -97.736245868,1413.1933447 -97.7442362488,1388.41159949 -104.035343107,1388.48831892 -103.931895956,1397.13605388 -105.91999515,1397.09040472 " moovel_rot="-52.9" moovel_centroid="-101.555140698,1401.59966262" moovel_centroidlatlon="16.358389333456856,48.185822922171894"></polygon></g><g transform="translate(548.4487297000001 -747.4044942) rotate(0)"><polygon id="347000593" class="tile" points="-540.092638555,1824.68300067 -532.675038175,1826.08693213 -533.745781721,1830.69250976 -533.88356403,1832.87981537 -533.893829259,1833.3806016 -533.950288124,1836.13492582 -533.934044471,1840.05872099 -545.93350089,1842.08721033 -545.948724987,1823.54840061 -540.092638555,1824.68300067 " moovel_rot="67.8" moovel_centroid="-540.076736649,1832.79294622" moovel_centroidlatlon="16.38613263062258,48.16540986094676"></polygon></g><g transform="translate(320.0444938 -1504.7813586) rotate(0)"><polygon id="324885140" class="tile" points="-110.711121552,2142.20343214 -110.719736171,2157.35388512 -97.158389464,2157.33649789 -97.1555232113,2146.5247136 -99.7110283207,2146.53079115 -99.7052691737,2142.19212601 -110.711121552,2142.20343214 " moovel_rot="71.7" moovel_centroid="-104.249811561,2150.07960068" moovel_centroidlatlon="16.31684928250244,48.12806152371531"></polygon></g><g transform="translate(334.7200196 -1560.9296664) rotate(0)"><polygon id="202880392" class="tile" points="-138.22243472,2312.24714881 -138.860397573,2349.34365607 -134.837454828,2349.41148706 -134.843614413,2314.68985714 -138.22243472,2312.24714881 " moovel_rot="83.7" moovel_centroid="-136.717602224,2331.91793114" moovel_centroidlatlon="16.308254058544218,48.19693622131833"></polygon></g><g transform="translate(463.6070373 -595.24065) rotate(0)"><polygon id="142104327" class="tile" points="-252.641068535,1680.58231426 -252.645059188,1694.75920603 -239.298925126,1694.72904448 -239.294921314,1680.55215913 -252.641068535,1680.58231426 " moovel_rot="64.0" moovel_centroid="-245.969994046,1687.65567981" moovel_centroidlatlon="16.4323166,48.25592315"></polygon></g><g transform="translate(282.05307500000004 -1366.0638347) rotate(0)"><polygon id="332753256" class="tile" points="-95.7394833619,1823.55994592 -95.7490731471,1837.54975509 -83.5929959761,1837.53820816 -83.5833991273,1823.54840061 -95.7394833619,1823.55994592 " moovel_rot="77.1" moovel_centroid="-89.6662380203,1830.54907677" moovel_centroidlatlon="16.2829356,48.146461849999994"></polygon></g><g transform="translate(407.42155299999996 -1933.4244227000002) rotate(0)"><polygon id="123272903" class="tile" points="-342.499401502,2312.25389279 -340.639171335,2312.24714881 -334.669128177,2312.53988906 -335.508979322,2328.5199605 -336.787151932,2328.47384859 -336.779440423,2329.99083492 -340.358655563,2329.84490246 -340.395942427,2336.11870275 -342.496461045,2336.04950085 -342.460162678,2325.22146548 -341.282962282,2325.21622826 -341.262201767,2322.32751462 -342.40653474,2322.30982284 -342.499401502,2312.25389279 " moovel_rot="34.9" moovel_centroid="-339.003472931,2321.92218461" moovel_centroidlatlon="16.359911892429658,48.18841159005815"></polygon></g><g transform="translate(692.7530407 -373.7260107999999) rotate(0)"><polygon id="298301580" class="tile" points="-459.924110346,1201.0 -453.506767079,1202.13989925 -453.605195558,1206.35019094 -451.537558526,1207.60563961 -451.670222171,1213.02426121 -452.968491911,1213.73937949 -453.193834081,1222.95492139 -459.919447606,1222.28644104 -459.924249488,1210.04806583 -459.924110346,1201.0 " moovel_rot="61.9" moovel_centroid="-456.305870115,1212.0919505631464" moovel_centroidlatlon="16.35392087725731,48.14647287263359"></polygon></g><g transform="translate(334.07553559999997 -974.2174422) rotate(0)"><polygon id="299877906" class="tile" points="-304.420845124,2170.59694034 -304.903308584,2142.19212601 -308.5118906,2142.28933294 -308.546933298,2171.03060968 -304.420845124,2170.59694034 " moovel_rot="-84.0" moovel_centroid="-306.596630944,2156.84755939" moovel_centroidlatlon="16.4619159320257,48.23204183127175"></polygon></g><g transform="translate(471.79781310000004 -1054.1371358) rotate(0)"><polygon id="249354390" class="tile" points="-354.272821415,2018.0738152 -356.899628838,2018.07735331 -356.943596283,1990.29495732 -352.585759194,1990.47472381 -353.013748622,2007.61483033 -354.272821415,2018.0738152 " moovel_rot="-2.1" moovel_centroid="-354.992520202,2003.27073969" moovel_centroidlatlon="16.242984489401348,48.14047917544994"></polygon></g><g transform="translate(719.2061238000001 -1562.2277969) rotate(0)"><polygon id="352869588" class="tile" points="-578.496899056,1569.58506638 -578.379973315,1566.57497577 -580.931777502,1566.71797928 -581.022302431,1569.61092024 -586.216371448,1569.59956748 -586.228883732,1583.66077581 -577.335140601,1583.38774375 -577.405722775,1569.51296801 -578.496899056,1569.58506638 " moovel_rot="-12.7" moovel_centroid="-581.687904383,1576.08772278" moovel_centroidlatlon="16.45705290301172,48.283400200116546"></polygon></g><g transform="translate(571.7641329 -313.6903485999999) rotate(0)"><polygon id="236143007" class="tile" points="-541.735099095,1392.72507402 -541.497838928,1395.80647768 -541.292360169,1398.37125319 -537.288349407,1398.2641751 -537.42769724,1402.39316901 -530.458567052,1402.61005651 -530.442156633,1388.52719104 -537.07891932,1388.41159949 -537.064939908,1393.01791769 -541.735099095,1392.72507402 " moovel_rot="-15.3" moovel_centroid="-534.929210282,1395.54842072" moovel_centroidlatlon="16.444416060113287,48.23928052474206"></polygon></g><g transform="translate(472.8618378 -1673.4567333999998) rotate(0)"><polygon id="156487386" class="tile" points="-428.212267559,1693.90877544 -436.380804201,1693.93163158 -436.387617365,1680.58145718 -428.226703699,1680.55215913 -428.212267559,1693.90877544 " moovel_rot="49.8" moovel_centroid="-432.301517906,1687.24454302" moovel_centroidlatlon="16.469859408678055,48.20036231576443"></polygon></g><g transform="translate(156.5028544 -1908.2397789) rotate(0)"><polygon id="301665301" class="tile" points="-42.5095722453,1990.81361758 -42.9368272821,2004.55117399 -49.6818320189,2004.28150056 -49.6816564234,1990.29495732 -42.5095722453,1990.81361758 " moovel_rot="-31.4" moovel_centroid="-46.2107655075,1997.41330692" moovel_centroidlatlon="16.299471017663684,48.15415054742371"></polygon></g><g transform="translate(467.17298239999997 -1470.0798581999998) rotate(0)"><polygon id="317583665" class="tile" points="-343.50226957,2327.65952655 -343.499401502,2312.24714881 -348.882660138,2312.25902039 -348.883582222,2327.66500873 -343.50226957,2327.65952655 " moovel_rot="73.1" moovel_centroid="-346.191792412,2319.95721174" moovel_centroidlatlon="16.351662467552902,48.22008104956721"></polygon></g><g transform="translate(380.1860039 -1154.9867071) rotate(0)"><polygon id="343156537" class="tile" points="-326.622634584,1990.83245455 -322.222079577,1990.29495732 -322.207020536,2003.89853491 -326.620995719,2003.90574445 -326.620645726,1994.48862535 -326.622634584,1990.83245455 " moovel_rot="80.6" moovel_centroid="-324.403179366,1997.23546057" moovel_centroidlatlon="16.29912355080424,48.17092149761059"></polygon></g><g transform="translate(618.7818043999999 -610.6100773999999) rotate(0)"><polygon id="397836603" class="tile" points="-576.331573889,1573.78383999 -569.576061168,1574.16991845 -569.423786421,1566.75498993 -576.335140601,1566.57497577 -576.331573889,1573.78383999 " moovel_rot="78.1" moovel_centroid="-572.899957063,1570.30791283" moovel_centroidlatlon="16.53085688277719,48.24609928859321"></polygon></g><g transform="translate(244.8946196 -753.4890116999999) rotate(0)"><polygon id="351541095" class="tile" points="-213.506488872,1396.94726126 -210.199366064,1396.94484132 -210.19887154,1388.41902866 -213.504310809,1388.41159949 -213.506488872,1396.94726126 " moovel_rot="-9.7" moovel_centroid="-211.852577523,1392.68104409" moovel_centroidlatlon="16.382803653784627,48.21026947089812"></polygon></g><g transform="translate(574.1414616000001 -1451.7444922) rotate(0)"><polygon id="351541093" class="tile" points="-560.598548081,2142.20064742 -560.598824361,2148.64698708 -556.883602167,2148.640046 -556.893192208,2142.19212601 -560.598548081,2142.20064742 " moovel_rot="80.9" moovel_centroid="-558.743463897,2145.42137997" moovel_centroidlatlon="16.382708720933213,48.20999147197029"></polygon></g><g transform="translate(382.4963378 -1075.2685914) rotate(0)"><polygon id="374411545" class="tile" points="-379.996330636,2146.45776818 -379.994945841,2142.20244622 -375.848905017,2142.19212601 -375.840733489,2146.45038788 -379.996330636,2146.45776818 " moovel_rot="72.9" moovel_centroid="-377.919987546,2144.32649805" moovel_centroidlatlon="16.326206960615878,48.24296952029453"></polygon></g></g><g transform="translate(0 1327.7)"><polygon id="2" class="bin" points="446.2499995,1207.499999 448.901649929,1206.40164943 449.9999995,1203.749999 449.9999995,3.75 448.901649929,1.09834957055 446.2499995,0.0 150.0000005,0.0 147.348350071,1.09834957055 146.2500005,3.75 146.2500005,1203.749999 147.348350071,1206.40164943 150.0000005,1207.499999 446.2499995,1207.499999 " moovel_rot="0" moovel_centroid="298.12500000000006,603.7499995000001" moovel_centroidlatlon="0,0" transform="translate(-146.25 0)"></polygon><g transform="translate(558.3836044 -980.8444201000002) rotate(0)"><polygon id="25851762" class="tile" points="-541.554166401,2180.7436073 -544.046740854,2180.97972837 -555.83966939,2180.84456652 -555.883602167,2142.19212601 -552.041018924,2145.05903623 -541.096018228,2148.12766993 -541.554166401,2180.7436073 " moovel_rot="-87.8" moovel_centroid="-548.772366462,2163.22172984" moovel_centroidlatlon="16.293862091385463,48.24244899219337"></polygon></g><g transform="translate(345.5046488 -978.429398) rotate(0)"><polygon id="178677155" class="tile" points="-323.219524921,2178.43396356 -309.546933298,2177.59594048 -309.707592031,2142.19212601 -323.21714576,2143.28718442 -323.219524921,2178.43396356 " moovel_rot="-2.4" moovel_centroid="-316.414096615,2160.41182342" moovel_centroidlatlon="16.338682498185342,48.240828333709196"></polygon></g><g transform="translate(171.29955310000003 -700.5477251000002) rotate(0)"><polygon id="235708830" class="tile" points="-158.074314868,1823.54840061 -146.382106872,1833.327395 -146.335273007,1841.05600771 -149.87710669,1840.88958549 -150.029776069,1854.38931669 -146.341746399,1854.55944169 -146.315043574,1860.22317832 -166.612095715,1857.68347659 -158.074314868,1823.54840061 " moovel_rot="41.6" moovel_centroid="-155.65222484,1844.34660413" moovel_centroidlatlon="16.417865921808666,48.16368871115059"></polygon></g><g transform="translate(556.4866829 -1015.1895228999999) rotate(0)"><polygon id="442490054" class="tile" points="-526.651683252,2143.0395415 -526.301773222,2163.82313095 -522.555862367,2171.40064787 -517.989604428,2171.48532743 -517.893312393,2175.35870351 -513.503313288,2175.38931227 -513.377372137,2169.20188799 -509.508268882,2169.09770383 -509.496701141,2142.19212601 -517.253284616,2142.25165193 -522.91789892,2142.99840557 -526.651683252,2143.0395415 " moovel_rot="85.5" moovel_centroid="-517.740814238,2156.92210937" moovel_centroidlatlon="16.35226824055396,48.23342864817699"></polygon></g><g transform="translate(299.27815380000004 -825.64498) rotate(0)"><polygon id="338749128" class="tile" points="-258.299330385,1990.957043 -255.45366738,2010.78232558 -257.65651963,2010.84512318 -258.331780104,2023.25501437 -244.004714536,2024.54214045 -245.217598355,2023.01923347 -243.865775816,2021.5900051 -246.277885861,2019.13099917 -245.020216504,2017.78018654 -247.344089792,2015.46740181 -244.517486919,2012.57599122 -239.281961008,2011.86983188 -239.726212481,2009.47286543 -241.942147285,2007.30264901 -240.692540615,2006.05493923 -242.937932809,2003.61583105 -241.419391689,2002.20650438 -243.711081357,1999.6642026 -242.363290876,1998.2865218 -244.502891144,1995.86844623 -246.1744105,1990.29495732 -258.299330385,1990.957043 " moovel_rot="10.5" moovel_centroid="-250.27082392,2007.19114893" moovel_centroidlatlon="16.290116704060733,48.200434388641526"></polygon></g><g transform="translate(609.2525066999999 -74.38116919999993) rotate(0)"><polygon id="204824091" class="tile" points="-542.639826963,1201.0 -542.624532528,1204.53307087 -542.591523156,1228.04991864 -547.63393079,1228.08519317 -547.36241146,1235.9837056 -549.594335269,1236.01142489 -552.897204821,1236.05953604 -552.800484374,1227.42076003 -557.273858823,1227.36874115 -557.171594613,1219.09423918 -556.95858573,1201.05549648 -548.325945538,1201.02345741 -542.639826963,1201.0 " moovel_rot="73.3" moovel_centroid="-549.857886035,1216.2371504947196" moovel_centroidlatlon="16.32793796208212,48.2423479526683"></polygon></g><g transform="translate(400.5149341 -406.6589351) rotate(0)"><polygon id="334157905" class="tile" points="-333.651668843,1606.65348754 -323.54739005,1606.65893414 -323.52133441,1566.59040121 -333.625282171,1566.57497577 -333.651668843,1606.65348754 " moovel_rot="-1.9" moovel_centroid="-328.586628617,1586.6195567" moovel_centroidlatlon="16.32763635308627,48.17968717385893"></polygon></g><g transform="translate(137.18085539999998 -710.8781916) rotate(0)"><polygon id="406738499" class="tile" points="-57.0440536126,1823.56627631 -65.5169374181,1823.54840061 -65.5199966058,1865.80165162 -56.5745765222,1865.73022743 -57.0440536126,1823.56627631 " moovel_rot="10.7" moovel_centroid="-61.1643459902,1844.85268388" moovel_centroidlatlon="16.442635787756256,48.2685911744175"></polygon></g><g transform="translate(420.3831685 -519.0678111) rotate(0)"><polygon id="188272875" class="tile" points="-338.39133042,1684.11782829 -338.391587331,1682.10947702 -334.541453959,1682.17481499 -334.091479477,1680.55215913 -328.554797076,1683.2119839 -329.042613165,1719.39953879 -333.882045211,1716.62211176 -338.300852437,1716.48587109 -338.306578777,1714.29047853 -338.39133042,1684.11782829 " moovel_rot="76.2" moovel_centroid="-333.509993103,1699.4694915" moovel_centroidlatlon="16.360864176612644,48.17306105545844"></polygon></g><g transform="translate(184.4583279 -1044.7314512000003) rotate(0)"><polygon id="251555423" class="tile" points="-148.709065243,2167.07322506 -148.126400926,2150.08550564 -153.142118469,2142.91427534 -163.154909509,2142.19212601 -163.160180023,2168.04865525 -148.709065243,2167.07322506 " moovel_rot="-39.6" moovel_centroid="-156.142041957,2155.5227797" moovel_centroidlatlon="16.404348978509454,48.21125504690798"></polygon></g><g transform="translate(104.5944994 -1048.8030599) rotate(0)"><polygon id="154259955" class="tile" points="-46.863316177,2142.19212601 -46.8452453565,2166.57337321 -55.5447185396,2171.57864991 -59.8084365058,2163.77840886 -59.5749000719,2142.4761884 -46.863316177,2142.19212601 " moovel_rot="4.3" moovel_centroid="-53.2536886866,2155.59021128" moovel_centroidlatlon="16.464462447206294,48.23392855573839"></polygon></g><g transform="translate(623.8843098 -738.5032168) rotate(0)"><polygon id="210879814" class="tile" points="-561.142497992,1846.20481395 -561.15295363,1823.59841883 -546.959156375,1823.54840061 -546.948724987,1846.15477882 -561.142497992,1846.20481395 " moovel_rot="55.1" moovel_centroid="-554.050834137,1834.87659984" moovel_centroidlatlon="16.40124975,48.257210050000005"></polygon></g></g></svg>