<svg><g transform="translate(0 0)"><polygon id="4" class="bin" points="-1.875,0.0 0.77665042945,1.09834957055 1.875,3.75 1.875,1203.749999 0.77665042945,1206.40164943 -1.875,1207.499999 -298.124999,1207.499999 -300.776649429,1206.40164943 -301.874999,1203.749999 -301.874999,3.75 -300.776649429,1.09834957055 -298.124999,0.0 -1.875,0.0 " moovel_rot="0" moovel_centroid="-149.99999950000003,603.7499995000001" moovel_centroidlatlon="0,0" transform="translate(301.875 0)"></polygon><g transform="translate(2.5 -597.6863387000001) rotate(0)"><polygon id="330939059" class="tile" points="121.651873246,1795.54552787 120.766741717,1761.80875341 131.320909872,1761.78438006 131.67468396,1725.05677412 127.094279598,1724.65600605 127.350843298,1727.5769399 100.961630254,1726.01798484 65.4719668809,1725.94664766 65.4809799314,1674.48916615 37.5198658247,1674.4321678 34.3301429233,1681.19582772 34.4209335079,1699.96900786 28.8340095554,1696.00134092 13.0690236345,1695.96916745 13.0667313678,1672.94829033 16.563208746,1672.95936939 16.5681198388,1631.08212192 26.3472646711,1631.10562564 26.3504927265,1623.82150153 47.7742742557,1623.86193109 48.1984820198,1609.86330625 56.649732423,1608.26721653 53.9662047811,1598.84949258 53.1097396217,1587.10729391 56.8942040334,1579.03685974 63.8387286404,1572.51321193 61.1676129419,1564.97024559 61.0882675873,1559.43817655 45.8483151969,1559.61374107 45.4005593637,1526.31974441 96.3324601248,1525.72908713 96.8500233438,1564.55843701 116.359263925,1560.63115772 91.0142038532,1477.37039252 54.4520897923,1492.84892534 50.7940996192,1498.09964804 46.6834923042,1500.87133697 5.39172007106,1516.49497587 4.74461987391,1549.91872072 0.014175173454,1572.4641296 0.0,1792.78897171 0.512826055102,1793.20576987 6.06543157361,1797.68679957 121.651873246,1795.54552787 " moovel_rot="71.0" moovel_centroid="49.42120139943148,1665.68822912" moovel_centroidlatlon="16.300522237812086,48.129433215659965"></polygon></g><g transform="translate(72.972859 -1124.0501903000002) rotate(0)"><polygon id="103149629" class="tile" points="0.0239874310791,2137.51199379 86.9137520822,2135.15019232 89.0488994278,2245.34719507 0.0,2247.23162838 0.0239874310791,2137.51199379 " moovel_rot="55.5" moovel_centroid="44.034105134929476,2191.53377434" moovel_centroidlatlon="16.412449876215845,48.243354616793866"></polygon></g><g transform="translate(121.57709970000002 -330.7440471000001) rotate(0)"><polygon id="104539421" class="tile" points="5.49068949092,1201.0 55.29189227,1202.29614935 66.8786867775,1205.89637332 70.362498045,1208.63331048 72.3747596856,1214.98434924 72.3796741301,1330.35968133 48.5452915553,1334.71552437 7.85239149854,1337.67257716 7.24307244103,1336.2115493 1.0,1321.17148479 3.25785264969,1266.06166684 5.23109525815,1257.21346756 5.49068949092,1201.0 " moovel_rot="67.0" moovel_centroid="37.54895536869838,1269.4431088453184" moovel_centroidlatlon="16.318819506079162,48.185535000700334"></polygon></g><g transform="translate(-195.7186355 -1056.5274915999998) rotate(0)"><polygon id="126247986" class="tile" points="425.64281425,2153.84091909 383.515508872,2152.91444935 383.222779615,2135.39382528 374.711383001,2135.15019232 374.131542658,2220.67031172 334.062594788,2221.52715664 334.482469896,2246.60463454 383.965735568,2256.40202155 398.259831625,2256.52769937 397.543727097,2205.3397926 422.922642753,2205.45940853 422.199978465,2242.71050778 431.815371378,2242.69536959 431.819261651,2194.45770672 426.177708121,2194.11449383 425.64281425,2153.84091909 " moovel_rot="81.2" moovel_centroid="389.153161432,2204.21671921" moovel_centroidlatlon="16.410359865955975,48.27040093639016"></polygon></g><g transform="translate(232.9013145 -1417.0647480000002) rotate(0)"><polygon id="317850287" class="tile" points="22.4101548292,2287.31253076 3.61130327582,2296.69582821 0.0,2311.22978707 3.65358447321,2454.9451989 2.38177691996,2541.44212278 6.74053386245,2551.80567995 22.4005952317,2559.27787227 22.4101548292,2287.31253076 " moovel_rot="52.2" moovel_centroid="12.457517859145382,2420.34644238" moovel_centroidlatlon="16.413408985230173,48.20896492432984"></polygon></g><g transform="translate(-381.5315552 -1006.0425719) rotate(0)"><polygon id="304913645" class="tile" points="384.03155259,1799.16780605 384.035730089,1892.27070839 384.03607799,1918.15242997 386.778289096,1920.72245838 461.106954449,1860.18266502 425.571588651,1805.93361723 406.453024263,1799.94635563 391.827034691,1797.68679957 384.03155259,1799.16780605 " moovel_rot="-4.1" moovel_centroid="412.038256623,1853.17891807" moovel_centroidlatlon="16.37347332445204,48.23819625576448"></polygon></g><g transform="translate(-50.692214199999995 -1843.3506071000002) rotate(0)"><polygon id="12814623" class="tile" points="279.610491305,2719.10122273 224.93447826,2709.37689972 229.575828323,2620.42133715 232.434221288,2573.040528 238.931132356,2559.27787227 252.388628205,2565.46458991 250.236309342,2573.70715919 251.348554398,2620.00882316 251.598875044,2649.36360691 280.282543999,2649.612152 280.32478867,2660.8778058 251.436916254,2660.37562192 251.510646766,2694.01089325 279.981974185,2693.90409014 280.072174352,2699.65751585 282.610195051,2699.76606916 285.584821558,2699.89576918 285.596653098,2718.53936582 279.610491305,2719.10122273 " moovel_rot="-15.9" moovel_centroid="246.784394427,2654.23115306" moovel_centroidlatlon="16.200746910017042,48.22891235913036"></polygon></g><g transform="translate(-103.4592362 -1123.2998764) rotate(0)"><polygon id="231821745" class="tile" points="206.888534181,1797.68679957 225.582577291,1800.16812873 219.943785702,1838.44623036 218.825759906,1904.89782792 218.861359563,1962.76072637 221.054215243,2008.27570163 225.463381487,2025.28336942 210.452617245,2030.12943099 204.795121725,2002.97702996 202.520891116,1965.94122144 202.234883687,1928.07510198 197.865977199,1919.89588817 197.744432026,1847.69128448 206.888534181,1797.68679957 " moovel_rot="-19.2" moovel_centroid="210.704388687,1906.55853641" moovel_centroidlatlon="16.368293690399764,48.25246401265557"></polygon></g><g transform="translate(-463.5362721 -786.0978789) rotate(0)"><polygon id="317522377" class="tile" points="466.033229129,1481.17092804 469.884767422,1559.21959369 471.584091776,1561.46700214 500.859308761,1577.76557565 506.043907722,1580.32031987 511.923886377,1581.87383359 515.725859986,1560.59208007 518.852654038,1519.68503503 518.85793462,1477.37039252 466.033229129,1481.17092804 " moovel_rot="-5.5" moovel_centroid="493.878264152,1524.52563133" moovel_centroidlatlon="16.434666460571467,48.245495651104505"></polygon></g><g transform="translate(-382.70568910000003 -1550.1339398) rotate(0)"><polygon id="110980886" class="tile" points="503.885992638,2405.68503912 541.102760474,2406.4097049 541.125496447,2287.56620864 503.819878974,2287.31253076 503.885992638,2405.68503912 " moovel_rot="-15.8" moovel_centroid="522.495888618,2346.71994174" moovel_centroidlatlon="16.441405873536524,48.156344916952236"></polygon></g><g transform="translate(-112.965541 -650.7652307000001) rotate(0)"><polygon id="243320591" class="tile" points="371.980166426,1450.43823805 319.091736048,1451.82464929 319.129709606,1375.53707189 320.594651449,1370.6355161 322.329725819,1365.97294772 325.882714075,1361.95702504 330.156562127,1361.45061226 339.045638261,1361.67479691 340.184058338,1387.96675929 368.700705727,1386.0146886 371.980166426,1450.43823805 " moovel_rot="41.5" moovel_centroid="342.814602513,1413.73221284" moovel_centroidlatlon="16.45901930855011,48.26553342337954"></polygon></g><g transform="translate(-144.10093639999997 -1685.6164231000002) rotate(0)"><polygon id="140533395" class="tile" points="292.978242228,2413.51311591 280.271234033,2342.01356806 293.230778426,2293.88323095 297.332010549,2295.5798623 299.767178167,2289.54999642 305.710842583,2287.31253076 313.591030115,2289.25011297 316.896473263,2294.83676516 322.107747057,2296.8438926 310.227801343,2341.8641964 315.557454579,2372.39156487 316.657485746,2378.11906407 322.149005401,2411.83663235 315.910359832,2413.30646488 311.375458589,2417.29430611 307.934728022,2418.10815932 305.138756014,2418.77395148 300.017823102,2417.08553016 298.448732294,2414.38789219 297.354186474,2412.40191026 292.978242228,2413.51311591 " moovel_rot="-11.2" moovel_centroid="301.692176727,2353.36140809" moovel_centroidlatlon="16.452177103996362,48.264946527854846"></polygon></g><g transform="translate(125.76533159999998 -754.2126472) rotate(0)"><polygon id="354467217" class="tile" points="97.5275880422,1361.52571581 57.115757242,1361.45061226 57.1982491279,1364.21341933 57.4548669552,1397.86228651 57.1294201588,1401.14705973 51.0722682772,1409.15056956 51.8184081119,1448.1028964 97.5034145609,1448.34234654 97.5275880422,1361.52571581 " moovel_rot="82.9" moovel_centroid="75.8587572287,1406.28805201" moovel_centroidlatlon="16.324423840231507,48.17372755957486"></polygon></g><g transform="translate(-123.2019491 -1415.5715301) rotate(0)"><polygon id="166761791" class="tile" points="173.407233295,2033.26986511 194.476721934,2030.99977823 205.207467291,2030.12943099 207.10863227,2033.29651377 213.910560006,2032.94487591 213.415381997,2094.78471738 213.838131251,2102.09806778 213.318908436,2135.15019232 194.611347512,2134.0325322 169.691272788,2071.80594388 169.476690609,2037.89428269 173.950663105,2037.47632343 173.407233295,2033.26986511 " moovel_rot="-37.1" moovel_centroid="194.695712027,2076.92237524" moovel_centroidlatlon="16.46108457910444,48.14667568573738"></polygon></g><g transform="translate(-144.72830559999997 -1774.0181891) rotate(0)"><polygon id="38862816" class="tile" points="272.952873914,2423.50763876 237.525042302,2386.16486194 233.54701357,2382.19776552 208.090893157,2353.98754662 205.83676117,2349.93938867 210.092845628,2328.6902716 224.273222143,2310.85028815 246.00731159,2314.59652254 271.597224641,2287.31253076 274.783467278,2289.85113393 279.271234033,2294.35604341 245.153639506,2331.03828257 245.062604564,2331.92294819 259.94341524,2347.73601258 253.924116384,2353.73555857 249.061056403,2357.25438498 252.305996472,2360.21742244 237.999077406,2373.33806134 240.534901878,2375.95206517 244.103653315,2379.62684312 279.222802619,2417.41133703 272.952873914,2423.50763876 " moovel_rot="-47.6" moovel_centroid="239.202749895,2347.61092082" moovel_centroidlatlon="16.363043692621485,48.17986810429841"></polygon></g><g transform="translate(-71.8444064 -1228.9390251999998) rotate(0)"><polygon id="180162713" class="tile" points="106.878641401,1798.04895404 74.9961991152,1797.68679957 74.34421377,1850.42222746 84.3567118114,1850.56069994 84.3637330484,1905.94845985 84.4220065895,1911.73921694 79.0180111118,1911.81987871 78.9920591699,1916.92005992 106.966587881,1916.65672121 106.878641401,1798.04895404 " moovel_rot="68.9" moovel_centroid="92.956600089,1852.62714206" moovel_centroidlatlon="16.48260201721982,48.25402438250235"></polygon></g><g transform="translate(-142.5658378 -221.54308449999996) rotate(0)"><polygon id="19091617" class="tile" points="366.932551061,1207.1208261 360.613715048,1201.0 342.464892601,1220.64624489 335.261935071,1230.5825124 327.652580157,1247.91934586 327.170953378,1258.74444865 327.172348121,1279.47733964 329.530705451,1288.60459657 333.652146287,1297.07884729 339.787115238,1304.10132724 346.349683641,1306.92755509 353.272555279,1306.55892867 359.120761841,1303.44711682 364.693786272,1295.00541008 367.329186253,1286.0725931 368.735776431,1275.6109162 367.852803797,1243.25529444 366.932551061,1207.1208261 " moovel_rot="86.4" moovel_centroid="349.579235159,1258.5991210133611" moovel_centroidlatlon="16.321903094607638,48.26385455581267"></polygon></g><g transform="translate(0.4304617999999891 -1579.8381346) rotate(0)"><polygon id="28091386" class="tile" points="228.593957241,2287.31253076 247.914592989,2287.05283051 248.019592981,2135.15019232 236.951163557,2135.48349556 237.099744455,2141.08023617 233.955396928,2145.04693602 227.555472016,2145.10448421 228.593957241,2287.31253076 " moovel_rot="-16.1" moovel_centroid="238.175295591,2212.55958622" moovel_centroidlatlon="16.48667569396115,48.2311417494155"></polygon></g><g transform="translate(-6.669264999999996 -1628.0931246999999) rotate(0)"><polygon id="38660499" class="tile" points="159.511313892,2135.15019232 159.659669778,2190.29027021 155.199527281,2214.15533207 167.491373259,2221.37832694 169.245450557,2218.6504881 181.400991968,2225.91431874 179.655679379,2228.46440553 185.827342011,2231.93072919 194.387752568,2224.93685992 194.301587888,2156.98603966 190.696582209,2156.80700365 189.789553641,2148.31850252 186.767100476,2141.66915929 181.4113427,2137.84587222 174.627222295,2135.79775025 159.511313892,2135.15019232 " moovel_rot="62.5" moovel_centroid="176.418533735,2182.34038625" moovel_centroidlatlon="16.33441088239143,48.1647771590729"></polygon></g><g transform="translate(-103.21483839999999 -1320.6344451999998) rotate(0)"><polygon id="142803170" class="tile" points="326.235153434,1885.64647312 326.313318038,1883.53536062 329.553580791,1798.28782625 317.404012979,1797.83496397 304.376058032,1797.68679957 304.774006221,1922.88474137 310.637189454,1922.64638106 324.781638104,1922.94435612 325.789556187,1897.0723557 326.235153434,1885.64647312 " moovel_rot="-41.2" moovel_centroid="315.915057371,1857.96863051" moovel_centroidlatlon="16.465293696944432,48.145718075359284"></polygon></g><g transform="translate(2.4999162999999953 -1546.5830566) rotate(0)"><polygon id="157506718" class="tile" points="48.4805697519,2030.25313861 6.80251096599,2030.14349284 0.0,2030.12943099 0.204830559343,2039.33257683 0.0700129576027,2055.13868536 0.387449426204,2077.48223218 2.33074398581,2077.4096718 4.65748493727,2077.39799131 4.9898571074,2099.27971904 0.321282806061,2099.29597554 0.035461679846,2106.5965221 1.09936849717,2108.74653401 2.09651477505,2110.6218934 42.6347287344,2088.20497519 40.9713336015,2051.16794152 48.5468227532,2048.41840449 48.4805697519,2030.25313861 " moovel_rot="62.0" moovel_centroid="21.5926453360454,2063.55031886" moovel_centroidlatlon="16.372676577634945,48.243655851303686"></polygon></g><g transform="translate(-97.04966730000001 -1048.2689914) rotate(0)"><polygon id="84013302" class="tile" points="193.773766539,1481.25311341 194.753213335,1496.88454444 198.069630025,1533.5677612 198.12055461,1581.86112689 190.055068224,1582.34779923 156.180949172,1575.96449172 181.869834713,1477.37039252 193.773766539,1481.25311341 " moovel_rot="-43.8" moovel_centroid="181.935848878,1538.6236572" moovel_centroidlatlon="16.40658076239204,48.16146110179257"></polygon></g><g transform="translate(-129.48306960000002 -782.8682789) rotate(0)"><polygon id="106703052" class="tile" points="246.909232769,1292.59401832 245.146306899,1281.73819234 240.542822433,1280.6672775 235.514978229,1279.50109537 235.489154306,1201.0 255.329727269,1201.73321945 276.749394943,1257.5121161 267.182726862,1262.08158007 274.116658032,1288.68015836 246.909232769,1292.59401832 " moovel_rot="27.3" moovel_centroid="252.510622694,1248.4110150978272" moovel_centroidlatlon="16.376135624267018,48.23603599531643"></polygon></g><g transform="translate(162.73472950000001 -631.1847301) rotate(0)"><polygon id="27032620" class="tile" points="98.6766637403,1201.33003282 107.191385101,1201.0 107.022706347,1361.11524145 92.3379984761,1361.45061226 90.4692664605,1219.38858763 98.6766637403,1201.33003282 " moovel_rot="-21.8" moovel_centroid="99.3722595701,1281.5839884694665" moovel_centroidlatlon="16.294921450286186,48.1685436241608"></polygon></g><g transform="translate(-196.6206623 -1053.2187159999999) rotate(0)"><polygon id="207499625" class="tile" points="199.12055461,1507.21714763 199.384379459,1478.09547842 239.768961163,1477.37039252 248.550177408,1480.38193039 252.528757596,1486.66924374 252.554279824,1531.90307212 211.2242231,1531.78402425 205.48496442,1525.95241814 205.776093218,1512.11782004 199.12055461,1507.21714763 " moovel_rot="27.6" moovel_centroid="226.998917972,1504.11336621" moovel_centroidlatlon="16.382666365720596,48.226872925355345"></polygon></g><g transform="translate(-243.92069109999997 -1067.2863705) rotate(0)"><polygon id="356859411" class="tile" points="401.196238275,1477.37039252 427.100247024,1480.45159197 428.394720363,1483.16901039 433.781702373,1481.85272647 439.468527103,1501.59106612 442.521956632,1521.49683519 442.546731915,1540.0983578 438.072123404,1540.14905971 437.589591456,1542.32407986 394.612246653,1536.93014161 401.196238275,1477.37039252 " moovel_rot="-9.5" moovel_centroid="418.918713009,1511.58019415" moovel_centroidlatlon="16.336008265473236,48.13724925600368"></polygon></g><g transform="translate(-196.23211360000002 -878.5316451000001) rotate(0)"><polygon id="109003930" class="tile" points="409.548634324,1350.88361349 439.170632819,1315.59722717 435.048015438,1312.1793562 458.584233574,1283.69756908 460.277088734,1281.79135737 465.142238104,1275.9811788 468.671202078,1278.95760543 469.941747436,1278.63525262 471.33809755,1273.57654228 471.098881951,1267.59288897 469.108293057,1262.99536166 462.912012837,1256.13738912 457.083709803,1251.41345163 455.562119329,1250.20510746 455.092782444,1245.99006608 453.965860275,1242.6303154 452.222118455,1237.21627246 408.226710836,1201.0 399.943601123,1211.63280018 401.385740669,1213.72477204 405.804305624,1217.1894909 406.451423878,1219.38756725 408.433591336,1219.29067467 413.005363501,1222.90058018 418.150512797,1216.38293926 432.97836739,1228.37068353 437.102655773,1231.69946613 441.699947063,1235.18795423 441.934466804,1236.64022329 440.993704818,1237.84870084 443.527488845,1248.12691768 461.212791085,1263.00734575 461.566750168,1264.68700198 453.177839666,1274.23630788 451.124666539,1274.72358623 451.466230168,1276.34442181 443.736544759,1285.43399157 441.232128876,1285.96175478 441.524451861,1288.17316544 433.46820624,1297.65236786 432.119975828,1297.79996728 429.5676354,1301.30025483 433.662847271,1304.53960272 422.37007441,1318.87827729 419.867542462,1316.89372546 418.28474566,1319.37059442 420.900538819,1321.31080077 416.369684641,1327.44643243 413.753893851,1325.50622558 399.840246807,1343.40741107 409.548634324,1350.88361349 " moovel_rot="78.1" moovel_centroid="434.905767573,1277.4016057032534" moovel_centroidlatlon="16.392480962578592,48.23497043594124"></polygon></g><g transform="translate(-463.0359412 -1684.4838079) rotate(0)"><polygon id="27754419" class="tile" points="502.716263349,2031.37460915 465.535301083,2030.12943099 465.940596976,2048.14362688 465.84070313,2058.82999582 465.605968105,2084.10918427 465.612778706,2086.61622663 465.666948929,2103.48753093 481.039713239,2104.14588492 486.141708323,2100.82674536 493.526492487,2095.92799244 502.482145849,2064.70355507 502.716263349,2031.37460915 " moovel_rot="73.4" moovel_centroid="482.688843093,2064.62579337" moovel_centroidlatlon="16.327519422683753,48.22570586073049"></polygon></g><g transform="translate(-371.88622580000003 -1685.5983442) rotate(0)"><polygon id="284988963" class="tile" points="449.560084459,2051.25280278 445.0178263,2031.46483706 426.784010853,2030.12943099 425.336435442,2047.93449656 417.706777307,2047.59661503 415.028313688,2082.20047578 412.48404854,2103.7309203 414.552261421,2104.57256982 436.720848889,2109.4655601 437.792941475,2107.03490931 449.622558128,2109.57830815 449.560084459,2051.25280278 " moovel_rot="-15.7" moovel_centroid="433.150588697,2072.6820747" moovel_centroidlatlon="16.36447106530038,48.24339079530277"></polygon></g><g transform="translate(53.528724999999994 -2235.420592) rotate(0)"><polygon id="130644603" class="tile" points="84.1093900509,2564.31077869 84.1051470689,2578.33273236 79.7077137677,2578.23342005 79.5716639446,2597.54857768 83.6061300507,2597.56538979 83.1084097816,2619.2071942 70.7071853256,2619.13903418 69.9674638825,2617.08420014 69.135888684,2615.38674397 68.3434553696,2614.49568593 67.0303205924,2613.49527453 64.9544036442,2617.24929237 51.5172146114,2609.25440833 53.9772717064,2605.53533016 53.2856794637,2605.14525296 46.8189392574,2605.2489853 39.2775575439,2605.20235753 36.5879097385,2604.18459615 34.4037982102,2602.88198711 33.1305432213,2600.85052527 29.1451353256,2601.06999577 29.1196069146,2571.88992398 33.6496936817,2571.76062283 34.3659997726,2570.72544894 34.7946662705,2569.92043943 36.0312021427,2568.6304076 37.7805581607,2567.72878134 40.7071104126,2567.66359649 56.8568410872,2567.73246933 70.9673395108,2563.63865769 71.3668735515,2559.27787227 80.2331992732,2559.91749578 79.821137126,2564.36623226 84.1093900509,2564.31077869 " moovel_rot="63.9" moovel_centroid="58.9385909705,2588.80893336" moovel_centroidlatlon="16.411759689095526,48.18539858151585"></polygon></g><g transform="translate(-95.75712949999999 -1031.4883422999999) rotate(0)"><polygon id="183406847" class="tile" points="332.004003429,1564.96317121 360.387815956,1555.27868045 352.100553078,1532.64220294 365.525607119,1528.06655457 357.492555472,1505.42492601 361.083170425,1503.90155926 358.127724002,1497.36277297 364.490733293,1492.8109015 365.528173347,1488.47799473 358.909497689,1479.79105998 349.036797019,1486.71796492 337.822527793,1477.37039252 322.456550266,1496.02150333 341.281576733,1546.13689054 326.34007763,1551.27433375 329.463396192,1559.10928497 332.004003429,1564.96317121 " moovel_rot="22.0" moovel_centroid="344.744036785,1517.96005695" moovel_centroidlatlon="16.403934033269977,48.20042136961321"></polygon></g><g transform="translate(-100.428965 -713.4877813999999) rotate(0)"><polygon id="26216808" class="tile" points="360.744284872,1798.81152177 360.717380795,1912.92378712 369.284409275,1913.49329167 380.935512747,1909.46644336 383.03155259,1891.0440747 376.763082244,1802.69185405 371.211400631,1797.68679957 360.744284872,1798.81152177 " moovel_rot="-43.3" moovel_centroid="370.451874263,1858.55279497" moovel_centroidlatlon="16.230158050190514,48.24605523847894"></polygon></g><g transform="translate(-114.4058025 -1830.6371648) rotate(0)"><polygon id="284988964" class="tile" points="296.256965449,2171.1157789 262.951459137,2248.65069832 249.139442744,2242.89274207 280.455234654,2168.74316899 287.366814514,2170.71846315 288.988495747,2166.46580564 269.98768089,2159.169785 249.019592981,2150.20908301 255.827208327,2135.15019232 292.408440726,2150.74035854 291.493625134,2155.07389745 296.031150593,2157.62875422 292.700764141,2167.37206265 296.256965449,2171.1157789 " moovel_rot="82.4" moovel_centroid="272.675682583,2186.87631527" moovel_centroidlatlon="16.368465999263094,48.24347619897756"></polygon></g><g transform="translate(-41.664923999999985 -1010.0168902999999) rotate(0)"><polygon id="92479761" class="tile" points="260.475754406,1361.45061226 260.489317969,1419.56729964 231.26158165,1419.74467703 223.44457291,1412.64624806 219.721392599,1412.59022659 219.491071711,1372.53219123 221.745757578,1367.61048536 227.881142064,1365.39926069 260.475754406,1361.45061226 " moovel_rot="82.3" moovel_centroid="240.850782299,1391.28506137" moovel_centroidlatlon="16.29887468317435,48.137631144095536"></polygon></g><g transform="translate(-241.8974169 -939.2510215) rotate(0)"><polygon id="47030865" class="tile" points="283.522890347,1281.82253043 282.683103839,1281.0252875 281.891352219,1278.86575428 281.980693647,1266.64320064 277.749394943,1266.40973355 277.764895346,1205.92500627 282.807369612,1205.84950122 283.247599035,1201.67468993 303.369674428,1201.18216989 310.902750201,1201.0 312.108698373,1230.20644544 326.170953378,1229.72364162 323.385667586,1242.59511017 292.282966734,1242.22360325 292.234124296,1282.78075477 284.427629315,1282.38971443 283.522890347,1281.82253043 " moovel_rot="-86.3" moovel_centroid="294.503032532,1233.0433745067032" moovel_centroidlatlon="16.492100004259232,48.216958260015375"></polygon></g><g transform="translate(-254.713238 -1528.6236249) rotate(0)"><polygon id="234772959" class="tile" points="526.138410664,1798.92593075 510.186521143,1797.68679957 508.229450582,1802.3056691 507.175676475,1824.30599495 489.827871884,1820.78607703 485.923649016,1837.89590722 521.351168503,1846.72749805 513.239151393,1883.06441066 521.43949749,1886.42102927 531.705722862,1886.65765742 529.208200626,1851.17934344 528.000602046,1829.65144295 531.77139796,1829.36178829 530.835265441,1803.06905376 526.841814635,1803.17322904 526.138410664,1798.92593075 " moovel_rot="78.2" moovel_centroid="516.219946294,1836.51753755" moovel_centroidlatlon="16.489437957536257,48.25103475335523"></polygon></g><g transform="translate(-359.3357076 -945.2438748999999) rotate(0)"><polygon id="234793114" class="tile" points="561.654487301,1233.36220908 562.029793514,1201.27173916 531.717360579,1201.0 531.589897631,1219.1074996 519.29404354,1219.56004944 519.551975297,1237.71465583 510.128973341,1237.97313279 510.056561074,1248.47319911 534.17205465,1249.16214235 534.44734771,1243.79533666 544.157345698,1243.89750897 544.233185596,1240.85303114 556.08539277,1241.00031539 555.605312606,1271.52491243 562.035198434,1271.71219721 561.654487301,1233.36220908 " moovel_rot="-43.5" moovel_centroid="541.912694927,1228.7441570267558" moovel_centroidlatlon="16.303868692751408,48.15655489094521"></polygon></g><g transform="translate(111.98480710000001 -673.0801052) rotate(0)"><polygon id="28247121" class="tile" points="149.024302848,1652.01347009 148.391884423,1682.99741135 154.297280089,1683.26732173 155.180949172,1539.37239992 154.842676361,1477.72588205 148.365728793,1477.37039252 148.295537011,1538.48106341 149.024302848,1652.01347009 " moovel_rot="66.4" moovel_centroid="151.695755959,1576.52101448" moovel_centroidlatlon="16.40987067961031,48.18392091544764"></polygon></g><g transform="translate(-190.6141236 -1092.1910885999998) rotate(0)"><polygon id="252130280" class="tile" points="193.114118989,1361.77219411 218.491071711,1361.45061226 218.4228799,1433.68338742 193.224254321,1431.87183523 193.114118989,1361.77219411 " moovel_rot="-26.0" moovel_centroid="205.876389603,1397.15440346" moovel_centroidlatlon="16.456882215083503,48.22504728280515"></polygon></g><g transform="translate(-88.5881791 -1548.5667333000001) rotate(0)"><polygon id="152191324" class="tile" points="162.563857176,1797.95166694 162.71615074,1813.21261901 170.577485577,1821.35138087 178.992397169,1821.52180413 179.20693145,1875.88798911 196.724433577,1875.54533261 196.744432026,1797.68679957 162.563857176,1797.95166694 " moovel_rot="26.7" moovel_centroid="184.529892094,1830.9770507" moovel_centroidlatlon="16.38137797413258,48.22868108839833"></polygon></g><g transform="translate(-91.1849803 -1864.5480187) rotate(0)"><polygon id="86273629" class="tile" points="359.232606429,2311.04513585 361.233412329,2287.31253076 374.662933622,2288.7055362 370.994275743,2320.78309595 370.555367191,2324.7271696 385.180747196,2326.24531776 384.381306867,2334.82337876 378.272424441,2392.16176963 377.801366454,2396.70484868 377.668965669,2397.92653253 373.102932074,2397.93812519 368.35239439,2397.82573567 359.228292333,2397.8578978 362.692717485,2373.22275715 365.773105103,2373.44536648 369.778860487,2338.96397685 366.025916849,2338.62829817 368.23101807,2316.21198174 365.630138836,2315.09967479 364.654909916,2311.19446641 359.232606429,2311.04513585 " moovel_rot="-75.4" moovel_centroid="371.74688518,2348.10269608" moovel_centroidlatlon="16.34050542043977,48.1968331778971"></polygon></g><g transform="translate(30.778720699999994 -1788.8540421999999) rotate(0)"><polygon id="29044557" class="tile" points="82.5711398265,2030.12943099 94.2608492648,2031.54229335 98.5770172689,2032.06630402 122.282879344,2034.92963138 122.339631022,2076.51873038 120.698250761,2076.51803486 90.839874888,2076.51653878 82.3676409396,2076.39609684 82.4842664001,2050.18322611 82.5711398265,2030.12943099 " moovel_rot="-22.5" moovel_centroid="102.032010827,2054.51871236" moovel_centroidlatlon="16.35005174918471,48.14741821519311"></polygon></g><g transform="translate(51.502634700000016 -1153.6104727000002) rotate(0)"><polygon id="398944551" class="tile" points="173.262012176,1443.37703073 173.561217745,1442.75755062 174.29775865,1442.1886285 176.843515419,1440.49569336 178.529263618,1443.16767467 192.114118989,1434.42014163 165.756574307,1393.3646306 192.085771034,1376.47991798 183.30674645,1362.76202373 180.223322351,1364.81643154 179.798061013,1364.85730539 179.34719197,1364.73192965 179.059763433,1364.5286965 178.780887533,1364.13599901 177.040063089,1361.45061226 172.538167698,1364.43186324 174.21948801,1367.10884517 174.345281926,1367.55282324 174.353608811,1368.00824852 174.1700658,1368.45339517 173.906125542,1368.8535372 151.554006859,1383.6137793 152.25664045,1384.71686523 148.579133165,1387.18085974 152.233918682,1392.8677081 148.101793456,1395.57031872 173.282442453,1434.79407805 173.394615421,1435.11836235 173.410214122,1435.49069334 173.310151431,1436.03735882 173.077286319,1436.35777 170.100975828,1438.42731199 173.262012176,1443.37703073 " moovel_rot="-48.2" moovel_centroid="170.899626352,1400.99022731" moovel_centroidlatlon="16.216610112539822,48.207472263369276"></polygon></g><g transform="translate(-21.9101547 -2078.3706762) rotate(0)"><polygon id="28975037" class="tile" points="24.4101548292,2287.4098223 56.5612499583,2287.31253076 56.6022200525,2340.38530109 24.4410017906,2340.47631935 24.4101548292,2287.4098223 " moovel_rot="-24.1" moovel_centroid="40.5039758563,2313.8973841" moovel_centroidlatlon="16.335721220896176,48.166164810892504"></polygon></g><g transform="translate(59.165867299999995 -1812.2308189999999) rotate(0)"><polygon id="42099684" class="tile" points="25.8973262709,2562.54310894 17.3041906569,2559.27787227 0.0670464338735,2560.03409953 0.0,2626.08872027 18.4312027043,2625.893402 17.6910463611,2618.13188409 27.1196069146,2617.93517015 25.8973262709,2562.54310894 " moovel_rot="67.5" moovel_centroid="12.840200019621342,2592.09774117" moovel_centroidlatlon="16.346977896519856,48.16626239851822"></polygon></g><g transform="translate(-130.14109560000003 -338.7288907000001) rotate(0)"><polygon id="239022313" class="tile" points="420.434334115,1417.97552189 390.473983597,1417.92502018 390.447212499,1361.45061226 420.407679748,1361.50105805 420.404202967,1364.13193169 420.432062733,1415.88805632 420.434334115,1417.97552189 " moovel_rot="64.4" moovel_centroid="405.439362641,1389.7135361" moovel_centroidlatlon="16.48331829744435,48.24176218483446"></polygon></g><g transform="translate(248.36549710000003 -1578.6468592) rotate(0)"><polygon id="29181641" class="tile" points="0.0,1797.68679957 41.9129517138,1800.81516916 41.8545921603,1807.36098492 41.5321438294,1844.61457079 15.024471139,1843.31091957 10.1164332896,1835.40981479 0.0287541077938,1825.34718413 0.0,1797.68679957 " moovel_rot="-9.3" moovel_centroid="22.091708875944654,1820.07353802" moovel_centroidlatlon="16.52832284273497,48.24913158736146"></polygon></g><g transform="translate(-78.55639969999999 -1840.2430021) rotate(0)"><polygon id="29201773" class="tile" points="234.581650187,2074.70002599 240.07798087,2076.06279848 239.535936711,2078.24416307 250.450029361,2080.95386557 249.299587002,2085.5780908 272.063336999,2091.25740249 273.71232973,2078.4160609 273.680394059,2050.39220056 244.481680121,2030.12943099 234.581650187,2074.70002599 " moovel_rot="11.4" moovel_centroid="255.897581099,2063.001151" moovel_centroidlatlon="16.322410223714083,48.14401522888741"></polygon></g><g transform="translate(-235.03284209999998 -1832.7183417) rotate(0)"><polygon id="8036287" class="tile" points="274.789143495,2030.18275063 307.443257302,2030.12943099 307.778460094,2077.45466945 300.102559685,2077.68509499 282.443958203,2078.22321356 274.71232973,2078.46360213 274.789143495,2030.18275063 " moovel_rot="34.8" moovel_centroid="291.126598103,2054.1071591" moovel_centroidlatlon="16.39558698200005,48.24615208371839"></polygon></g><g transform="translate(-275.6312732 -1407.4924413999997) rotate(0)"><polygon id="80877709" class="tile" points="474.870029085,2342.49138196 502.171019928,2344.01672499 502.819878974,2287.98460682 474.558205559,2287.31253076 474.562878896,2295.93563469 474.870029085,2342.49138196 " moovel_rot="-17.8" moovel_centroid="488.631381413,2315.28771441" moovel_centroidlatlon="16.31286627791619,48.13311692959293"></polygon></g><g transform="translate(-8.3023254 -1263.8607294) rotate(0)"><polygon id="26257489" class="tile" points="142.715463207,1797.68679957 150.412842456,1813.66538805 145.952454215,1815.78254141 146.448750564,1818.29432065 152.149544263,1817.62584501 152.246000098,1825.73419704 148.606062354,1853.8758979 128.304635156,1868.73581022 125.851072699,1865.35977151 121.999558686,1868.1627429 117.061958803,1861.28942076 136.557003448,1847.32797033 117.044019105,1819.88805131 127.401393587,1808.05119477 142.715463207,1797.68679957 " moovel_rot="-58.1" moovel_centroid="136.628694657,1832.16415555" moovel_centroidlatlon="16.22236651018547,48.207629083313094"></polygon></g><g transform="translate(-251.94649589999997 -1866.7624438999999) rotate(0)"><polygon id="352595344" class="tile" points="343.20821117,2030.12943099 351.682138869,2047.40223736 352.54042666,2049.2433635 357.015642288,2062.54411753 359.195404497,2071.8810494 359.355220733,2073.44120511 361.385507935,2086.5295406 361.391010536,2095.62475249 357.692698933,2095.58851365 360.787126943,2098.32102878 350.102673253,2110.98013179 331.296844706,2094.53536562 332.297195174,2093.44277212 328.918377982,2089.87279764 346.236609306,2069.84794514 349.266700943,2072.60816789 348.302774472,2068.14362211 343.991948487,2069.26566008 338.706554921,2052.69224452 331.696846151,2038.49041985 335.407027719,2036.15079398 334.590080378,2034.58275373 343.20821117,2030.12943099 " moovel_rot="66.7" moovel_centroid="346.933665705,2074.30542987" moovel_centroidlatlon="16.38392092282602,48.282076578299225"></polygon></g><g transform="translate(-149.536432 -459.6291255000001) rotate(0)"><polygon id="217187390" class="tile" points="431.891052243,1477.34707172 421.434334115,1477.37039252 421.483923613,1361.47384178 431.940707098,1361.45061226 431.891052243,1477.34707172 " moovel_rot="-35.6" moovel_centroid="426.687503606,1419.41041917" moovel_centroidlatlon="16.438709700000004,48.14751615"></polygon></g><g transform="translate(61.43248059999999 -1400.9530548999999) rotate(0)"><polygon id="179016927" class="tile" points="226.031988303,2234.12255262 226.534399499,2229.12219813 222.892049775,2227.60409106 220.549015418,2223.28235426 219.93757605,2215.96176744 225.321591857,2212.78792017 226.555472016,2143.30973411 221.375209281,2146.05705525 221.634650513,2141.40119685 215.736417537,2137.99581027 210.811936782,2135.15019232 210.20662733,2204.91528041 215.377663418,2208.35337344 214.942236957,2223.42652985 217.035000272,2229.06137128 221.130011852,2232.76750363 226.031988303,2234.12255262 " moovel_rot="-34.0" moovel_centroid="218.323403101,2180.32151073" moovel_centroidlatlon="16.313270450944398,48.175101224465955"></polygon></g><g transform="translate(-473.29788679999996 -534.5884377) rotate(0)"><polygon id="241010319" class="tile" points="544.25761888,1539.3424837 558.58242688,1539.39417018 566.440554285,1539.42092861 566.450082202,1525.38583052 560.498702253,1525.36755113 560.496413162,1523.60330383 566.447793794,1523.62158246 566.459063326,1509.57456825 560.507677239,1509.55629567 560.504751602,1507.91253767 566.461101917,1507.93527878 566.464589445,1493.47766915 560.513197109,1493.45940351 560.514598271,1491.94060432 566.470954787,1491.96333854 566.473159515,1477.43728057 549.591554287,1477.37039252 549.582789692,1481.53258123 545.88062243,1481.52174547 545.8805117,1491.89302318 556.706044469,1491.92814044 556.699680095,1493.44246997 544.281587589,1493.39929803 544.278120966,1507.85688445 556.696201767,1507.90006939 556.694164221,1509.5393577 544.26939569,1509.50360023 544.264835538,1523.54316292 556.687867225,1523.59083121 556.690156754,1525.35507803 544.260437453,1525.31483709 544.265730633,1526.82620146 544.25761888,1539.3424837 " moovel_rot="42.0" moovel_centroid="555.700635693,1509.11175898" moovel_centroidlatlon="16.421689262348515,48.22952162790166"></polygon></g><g transform="translate(-440.57875959999996 -1969.5456259) rotate(0)"><polygon id="88369045" class="tile" points="579.04642876,2135.15019232 572.927300768,2135.15704595 572.911117218,2143.21194431 572.909295223,2145.14853823 559.453966647,2145.16188005 559.443985131,2150.35643051 555.014993438,2148.80738838 555.017750643,2189.31110507 561.987720286,2189.29232396 578.378957245,2189.24513435 578.377292123,2182.40200105 578.376755771,2172.09529475 578.374924845,2166.44151668 583.13277025,2166.42799167 583.131511869,2150.44348402 579.020102071,2149.58900331 579.031871441,2144.47500117 583.126415724,2145.68944645 583.126435281,2136.08192284 579.04642876,2135.15019232 " moovel_rot="-31.1" moovel_centroid="568.743088476,2164.64086465" moovel_centroidlatlon="16.28093404539653,48.163521776020964"></polygon></g><g transform="translate(-61.58359249999998 -1310.4807826) rotate(0)"><polygon id="266510289" class="tile" points="288.615775151,1477.83339301 254.109566702,1477.37039252 253.554279824,1512.6162526 288.618749944,1513.79724176 288.615775151,1477.83339301 " moovel_rot="-26.0" moovel_centroid="271.281590645,1495.45375968" moovel_centroidlatlon="16.446616192585445,48.25510893082677"></polygon></g><g transform="translate(59.70483780000001 -1492.758659) rotate(0)"><polygon id="348875453" class="tile" points="216.415732816,2032.74144954 215.017750729,2046.42037156 214.910560006,2058.81660594 215.972256439,2071.61654265 218.691230087,2083.14811957 221.277743153,2093.81782528 224.944108598,2103.65195373 226.830063763,2109.4178284 227.075811719,2112.21247284 231.706209452,2111.42365958 233.152680672,2104.86717339 233.548363139,2096.19988024 232.548816624,2081.37036155 229.745889587,2063.06671825 229.43856686,2057.6037521 233.013078802,2057.04437139 230.547703337,2043.71945701 233.581650187,2030.12943099 216.415732816,2032.74144954 " moovel_rot="-28.9" moovel_centroid="224.729824826,2066.92571167" moovel_centroidlatlon="16.29570312961812,48.15526713935698"></polygon></g><g transform="translate(141.0803337 -829.5713601) rotate(0)"><polygon id="172279729" class="tile" points="134.579336641,1477.37039252 133.67468396,1559.73823233 147.295537011,1560.67524423 147.231733516,1478.29213728 134.579336641,1477.37039252 " moovel_rot="-25.4" moovel_centroid="140.692033252,1519.52488221" moovel_centroidlatlon="16.331123456629086,48.16247171158574"></polygon></g><g transform="translate(104.53736990000002 -1998.1808682) rotate(0)"><polygon id="141109806" class="tile" points="154.175010188,2135.20295365 154.199527281,2209.25385871 139.880088163,2213.25590052 139.80739467,2135.15019232 154.175010188,2135.20295365 " moovel_rot="74.9" moovel_centroid="146.951687126,2173.20436296" moovel_centroidlatlon="16.441078237181177,48.23835173829963"></polygon></g><g transform="translate(247.14210459999998 -1224.4322373) rotate(0)"><polygon id="236023299" class="tile" points="19.0606051032,1428.64050913 29.6070503366,1429.8377446 36.6541433832,1362.52528665 16.5702675927,1361.45061226 16.6319573391,1415.36284447 19.070759258,1423.97458669 19.0606051032,1428.64050913 " moovel_rot="-9.6" moovel_centroid="25.1574947548,1392.5516079" moovel_centroidlatlon="16.44724921233248,48.234565748922435"></polygon></g><g transform="translate(-539.6254895000001 -2122.3715572) rotate(0)"><polygon id="107037322" class="tile" points="542.162387835,2287.31253076 542.131823538,2321.90865718 542.125496447,2325.60678087 571.248823884,2326.32345392 571.240534958,2287.58055227 549.729295842,2287.40756026 544.853563011,2287.43473192 542.162387835,2287.31253076 " moovel_rot="37.2" moovel_centroid="556.727292083,2306.72317375" moovel_centroidlatlon="16.380563700318902,48.23799993619504"></polygon></g><g transform="translate(157.56579659999997 -899.1804355000002) rotate(0)"><polygon id="292380521" class="tile" points="123.726329437,1201.34357211 135.904832207,1201.0 135.851348047,1284.37231203 124.769327355,1284.90827503 123.726329437,1201.34357211 " moovel_rot="15.1" moovel_centroid="130.056362361,1242.251198392714" moovel_centroidlatlon="16.383968850620736,48.16287631541353"></polygon></g><g transform="translate(-344.01394569999997 -2011.3213698000002) rotate(0)"><polygon id="60561402" class="tile" points="491.586668105,2211.71162516 502.54191533,2211.72861903 502.513081539,2178.49839732 505.7752226,2178.50403701 505.747557593,2135.17279015 491.530099777,2135.15019232 491.539222361,2145.35857256 491.550835573,2160.9951203 491.569376,2186.15780211 491.586668105,2211.71162516 " moovel_rot="62.8" moovel_centroid="498.059046735,2171.04426473" moovel_centroidlatlon="16.45859825755085,48.225888755115896"></polygon></g><g transform="translate(-372.0282401 -2150.6609235) rotate(0)"><polygon id="227834112" class="tile" points="409.199216167,2287.31253076 427.760976368,2287.76489208 427.773726163,2343.10068237 408.648873194,2342.49344725 409.199216167,2287.31253076 " moovel_rot="37.5" moovel_centroid="418.348978411,2315.30577114" moovel_centroidlatlon="16.377373720777527,48.25004392601902"></polygon></g><g transform="translate(-398.0848463 -1084.1296321) rotate(0)"><polygon id="80787725" class="tile" points="574.060675459,1275.00045949 578.845340927,1274.08733309 583.038673614,1273.81205804 582.942734523,1270.22892325 585.306104757,1270.34418282 585.237830393,1201.0 579.092966559,1201.34294797 573.923948678,1207.05195461 573.516847029,1229.22126565 572.553610611,1230.23568823 570.091229471,1230.2416505 569.289052702,1267.37176097 573.82914961,1271.96608038 574.060675459,1275.00045949 " moovel_rot="-61.8" moovel_centroid="578.245391234,1240.12351807998" moovel_centroidlatlon="16.36530630101523,48.18277179144029"></polygon></g><g transform="translate(-64.84403089999999 -2166.7241234) rotate(0)"><polygon id="28801798" class="tile" points="186.262777202,2287.31253076 165.689171325,2287.6639975 165.093833251,2337.16740961 186.296087494,2337.33784139 186.262777202,2287.31253076 " moovel_rot="43.9" moovel_centroid="175.853109944,2312.49576353" moovel_centroidlatlon="16.426424641450517,48.20791996863574"></polygon></g><g transform="translate(-470.6851366 -1361.8624965) rotate(0)"><polygon id="28801358" class="tile" points="542.731138577,1477.45859656 531.543747207,1477.37039252 531.430619273,1554.2925472 543.25761888,1554.25308642 542.731138577,1477.45859656 " moovel_rot="43.0" moovel_centroid="537.240129079,1516.19984883" moovel_centroidlatlon="16.41675335521552,48.21449151363275"></polygon></g><g transform="translate(-100.83809609999997 -523.3755646) rotate(0)"><polygon id="29200143" class="tile" points="373.028627235,1419.26880832 389.447212499,1419.2300647 389.398765666,1361.45061226 379.690311135,1361.47161409 375.33186041,1361.48791518 372.980166426,1361.48930808 373.028627235,1419.26880832 " moovel_rot="-16.3" moovel_centroid="381.213771946,1390.35971549" moovel_centroidlatlon="16.34699490106268,48.14623679957173"></polygon></g><g transform="translate(-101.78520489999997 -2189.8615283) rotate(0)"><polygon id="282379970" class="tile" points="340.829908427,2346.02927043 341.158221143,2350.66135884 323.634662971,2352.1562615 323.149005401,2323.66570552 325.924425559,2295.38580974 330.514832337,2296.04305195 331.710167713,2287.31253076 335.549187849,2287.31786419 338.706831057,2288.16375574 336.823812178,2297.11201853 341.143644518,2297.82539977 338.749909285,2320.41143883 338.418935832,2325.86271462 338.300917517,2334.55190275 339.111424668,2346.13450333 340.829908427,2346.02927043 " moovel_rot="58.5" moovel_centroid="331.785981998,2322.07289212" moovel_centroidlatlon="16.44189993248481,48.254365951859334"></polygon></g><g transform="translate(-148.1685334 -1924.0036522) rotate(0)"><polygon id="285768095" class="tile" points="168.464294543,2030.18076996 150.668529431,2030.12943099 150.686071954,2083.94450723 159.025176418,2083.96718974 168.476690609,2083.99158782 168.469893854,2051.38281392 168.464294543,2030.18076996 " moovel_rot="40.4" moovel_centroid="159.573957084,2057.06039275" moovel_centroidlatlon="16.508720264405227,48.22285885932039"></polygon></g><g transform="translate(-295.1478492 -1084.3016583) rotate(0)"><polygon id="250706108" class="tile" points="487.355911474,1201.0 492.30033835,1201.00054052 508.798841443,1201.98148121 508.788074923,1209.06290033 509.056561074,1217.57538639 508.598386568,1234.83956804 508.82409798,1246.47457869 487.345067274,1246.09399072 487.355911474,1201.0 " moovel_rot="-20.8" moovel_centroid="498.051660173,1223.7969622050841" moovel_centroidlatlon="16.371465396014216,48.13926837757783"></polygon></g><g transform="translate(159.49516849999998 -2197.3053662) rotate(0)"><polygon id="28739667" class="tile" points="122.722444587,2287.31253076 123.637858766,2300.42703672 128.422834012,2300.14492123 130.084858067,2323.82176797 124.195035595,2325.0033143 124.727592242,2330.41909001 102.306887988,2327.77392328 102.300430796,2300.34226816 109.645474032,2300.2231489 109.325155888,2291.99586587 109.466093658,2287.89839641 117.453600419,2287.54183958 122.722444587,2287.31253076 " moovel_rot="77.0" moovel_centroid="115.746071072,2310.60442969" moovel_centroidlatlon="16.261148590689963,48.201204721605016"></polygon></g><g transform="translate(-10.719903800000026 -1122.6524213999999) rotate(0)"><polygon id="380221034" class="tile" points="147.98205438,1221.58498774 136.919507011,1206.87170948 144.465500474,1201.0 153.720293682,1209.69014354 159.438865283,1207.8801874 166.933679517,1224.81927434 169.177922059,1223.64830917 174.036500677,1236.34860204 147.214561309,1245.07763914 136.904832207,1243.58149351 147.98205438,1221.58498774 " moovel_rot="6.5" moovel_centroid="153.905144761,1225.9007200023877" moovel_centroidlatlon="16.286956224670643,48.15654586089782"></polygon></g><g transform="translate(77.2912168 -1266.0463538) rotate(0)"><polygon id="353899675" class="tile" points="0.00181880984455,1417.66621794 0.0,1361.45061226 14.2068521155,1361.92380978 14.5702675927,1367.50224178 14.5609134436,1368.51080266 14.3363342023,1385.94233599 14.3232615871,1387.14455708 14.0957332168,1404.729683 14.0780445725,1406.17230988 13.9110251863,1419.56330608 12.605694128,1420.28644731 13.0640375482,1424.57070431 7.35232314952,1425.89063951 6.33805735968,1422.40403672 1.75263235811,1418.24762812 0.00181880984455,1417.66621794 " moovel_rot="-88.9" moovel_centroid="7.241114505042549,1391.79024465" moovel_centroidlatlon="16.384243922356617,48.294156651061485"></polygon></g><g transform="translate(179.2117278 -713.4472123999999) rotate(0)"><polygon id="188272874" class="tile" points="107.966587881,1797.68679957 107.970273562,1799.43393772 108.038335636,1886.50920846 110.577372813,1890.04965069 115.59514579,1887.54765414 115.04570959,1883.92489359 114.602212214,1839.92311996 116.044019105,1839.11041248 116.007739608,1801.44448297 114.533932639,1797.94601706 107.966587881,1797.68679957 " moovel_rot="77.0" moovel_centroid="111.710352073,1841.78427106" moovel_centroidlatlon="16.360217711642306,48.17193788829055"></polygon></g><g transform="translate(-351.59536949999995 -1946.637276) rotate(0)"><polygon id="150890905" class="tile" points="376.971963322,2031.71521051 384.685826166,2030.83723585 392.089116078,2030.12943099 396.522682936,2077.7354775 376.897172982,2079.13237186 376.971963322,2031.71521051 " moovel_rot="-27.1" moovel_centroid="385.683880789,2055.68261957" moovel_centroidlatlon="16.416858047236342,48.29143897600481"></polygon></g><g transform="translate(-466.7415233 -321.4389487000001) rotate(0)"><polygon id="371494372" class="tile" points="490.834251072,1361.45061226 517.470536713,1361.45810546 517.44702862,1393.1834873 490.805148125,1393.18666073 490.834251072,1361.45061226 " moovel_rot="-6.0" moovel_centroid="504.138494389,1377.32027085" moovel_centroidlatlon="16.454592463031055,48.27737567026659"></polygon></g><g transform="translate(-4.8308918999999975 -2484.6907539000003) rotate(0)"><polygon id="129114793" class="tile" points="101.53660192,2595.74851929 108.760377033,2597.26314137 115.949114913,2598.76919248 123.656674764,2600.38493644 124.143028096,2597.62777831 125.642097655,2596.54196702 128.91723263,2597.38275294 128.915333907,2590.12635606 122.901983371,2559.27787227 105.265465075,2562.66199926 106.432817613,2569.72876382 101.53660192,2595.74851929 " moovel_rot="70" moovel_centroid="115.759938672,2581.01488873" moovel_centroidlatlon="16.36902524598058,48.24747994440656"></polygon></g><g transform="translate(-63.1841953 -1041.7772461) rotate(0)"><polygon id="26274618" class="tile" points="226.582577291,1891.16379727 227.01976089,1797.68679957 233.250967905,1797.79430278 233.358852831,1891.19012843 226.582577291,1891.16379727 " moovel_rot="-94.3" moovel_centroid="230.051386774,1845.11113222" moovel_centroidlatlon="16.223135862201357,48.21057303097485"></polygon></g><g transform="translate(-52.5730006 -70.57155590000002) rotate(0)"><polygon id="29200302" class="tile" points="191.700173076,1230.41083846 220.160037331,1229.94488475 219.60751794,1201.0 191.714746995,1201.3740326 191.700173076,1230.41083846 " moovel_rot="-10.2" moovel_centroid="205.789311265,1215.7312300100932" moovel_centroidlatlon="16.297310427725776,48.14915115506552"></polygon></g><g transform="translate(-91.1879802 -1413.2464281) rotate(0)"><polygon id="346384690" class="tile" points="307.2835205,1526.54884138 312.228728346,1512.8573383 314.04737249,1483.90845054 308.66140632,1483.55024085 306.620405814,1482.88809652 305.581232768,1477.37039252 289.618749944,1479.74366314 290.333168878,1484.61120467 301.973795529,1483.8241597 302.194429663,1499.38854411 297.66960575,1498.60218983 289.650631015,1520.91528951 307.2835205,1526.54884138 " moovel_rot="-89.6" moovel_centroid="303.343302647,1503.02644542" moovel_centroidlatlon="16.324545155073515,48.13646913207713"></polygon></g><g transform="translate(37.93870519999999 -2498.8471061) rotate(0)"><polygon id="198918904" class="tile" points="129.920816529,2559.27787227 150.301339937,2562.59851231 142.634790837,2611.25785756 129.91723263,2610.72074603 132.046856939,2600.76354577 132.251255697,2586.12551432 131.503749941,2574.12070433 130.075997715,2562.51583535 129.920816529,2559.27787227 " moovel_rot="0.8" moovel_centroid="139.048015173,2583.61017006" moovel_centroidlatlon="16.40293072483543,48.1752629359071"></polygon></g><g transform="translate(-247.2668901 -811.9438) rotate(0)"><polygon id="29181658" class="tile" points="302.685881377,1361.45061226 302.609147417,1411.57208017 287.903018228,1412.06002412 286.937665941,1362.28788055 302.685881377,1361.45061226 " moovel_rot="78.8" moovel_centroid="295.039107551,1386.55672801" moovel_centroidlatlon="16.52674159090603,48.249489931114134"></polygon></g><g transform="translate(-484.716669 -1749.8999941000002) rotate(0)"><polygon id="146337573" class="tile" points="532.77139796,1860.77864396 532.791197703,1846.09803542 540.026752396,1797.75454156 546.410057157,1797.68679957 547.212621642,1860.35995346 532.77139796,1860.77864396 " moovel_rot="-6.9" moovel_centroid="540.93314971,1833.31940854" moovel_centroidlatlon="16.351863002370948,48.218475643098216"></polygon></g><g transform="translate(-95.7965459 -2506.7784093) rotate(0)"><polygon id="252795394" class="tile" points="187.857775085,2559.27787227 167.146917846,2561.45300021 162.618123931,2564.95253179 165.363827078,2600.31750911 173.174211906,2596.64394694 176.811681382,2593.66575586 181.855178965,2595.86295734 185.455065621,2585.63585063 181.439533295,2583.96954074 188.179127862,2568.88525089 183.829375936,2564.84754104 188.175390001,2560.03658295 187.857775085,2559.27787227 " moovel_rot="64.5" moovel_centroid="174.298990942,2577.77246123" moovel_centroidlatlon="16.320758931346134,48.19392089036696"></polygon></g><g transform="translate(-456.3481753 -2237.0481536) rotate(0)"><polygon id="124190577" class="tile" points="458.874860007,2287.31253076 472.893716308,2287.75400359 473.558205559,2337.48306871 458.848184949,2338.17704547 458.874860007,2287.31253076 " moovel_rot="-27.9" moovel_centroid="466.018156659,2312.88566252" moovel_centroidlatlon="16.442038157241637,48.24631196675218"></polygon></g><g transform="translate(-273.42272679999996 -1445.0483508) rotate(0)"><polygon id="91662513" class="tile" points="524.751856732,1577.05542096 530.378934793,1576.51852301 527.415083826,1562.18767636 526.23097157,1542.91637906 525.222783906,1505.28781513 530.430619273,1480.6757931 525.209809361,1477.37039252 519.85793462,1502.43374752 521.410963262,1541.74823869 524.751856732,1577.05542096 " moovel_rot="-58.9" moovel_centroid="524.476077562,1525.35707508" moovel_centroidlatlon="16.29476513724575,48.14549753564944"></polygon></g><g transform="translate(-226.81051660000003 -1673.5620791) rotate(0)"><polygon id="26233551" class="tile" points="464.481590064,2030.22555263 450.622558128,2030.12943099 450.638404603,2079.89150596 458.205901045,2080.29277485 464.535301083,2080.63910568 464.481590064,2030.22555263 " moovel_rot="67.0" moovel_centroid="457.584475083,2055.23164742" moovel_centroidlatlon="16.348792079237384,48.16544694823956"></polygon></g><g transform="translate(-33.64750790000002 -1333.9295893) rotate(0)"><polygon id="195009127" class="tile" points="270.583106446,1375.32641219 272.025911891,1381.76083621 272.701196529,1395.75124053 273.754351068,1426.04610029 261.489317969,1426.44750615 261.504872972,1400.08696763 261.519584147,1370.93739756 261.527208921,1361.45061226 268.578070119,1368.09077662 270.583106446,1375.32641219 " moovel_rot="-2.9" moovel_centroid="266.884602839,1397.7622647" moovel_centroidlatlon="16.380754402640864,48.16165112881697"></polygon></g><g transform="translate(-344.9847899 -1446.5980691999998) rotate(0)"><polygon id="334157907" class="tile" points="366.528173347,1480.15354715 366.653666264,1506.50738863 393.580690876,1505.71680162 393.612246653,1477.37039252 385.763470601,1478.18094123 371.261713805,1479.66223833 366.528173347,1480.15354715 " moovel_rot="2.4" moovel_centroid="380.256187794,1492.41271694" moovel_centroidlatlon="16.328271940442065,48.1798348113941"></polygon></g><g transform="translate(-372.5627985 -1760.6149953) rotate(0)"><polygon id="204824092" class="tile" points="469.507010195,2135.21822906 469.487439674,2169.21111975 468.853252174,2169.21563829 468.945726137,2180.14883235 464.536940274,2180.49860281 464.632234201,2184.74348898 461.773148196,2184.83494412 459.39116511,2184.91910332 459.46644602,2180.36685903 455.294752517,2180.49420349 455.318385284,2135.15019232 462.548708646,2135.18619159 469.507010195,2135.21822906 " moovel_rot="73.7" moovel_centroid="462.312520835,2158.47964891" moovel_centroidlatlon="16.328383837642306,48.24356505205476"></polygon></g><g transform="translate(-19.357534699999988 -2096.7013236000003) rotate(0)"><polygon id="38232495" class="tile" points="116.534126938,2166.38432843 116.549139667,2135.19788604 117.913878496,2135.20040508 138.80739467,2135.15019232 138.786196208,2166.32868879 116.534126938,2166.38432843 " moovel_rot="-37.9" moovel_centroid="127.669024664,2150.76591251" moovel_centroidlatlon="16.425228591879975,48.26611152107324"></polygon></g><g transform="translate(-394.0351724 -1318.9898716) rotate(0)"><polygon id="356609232" class="tile" points="540.499038983,1361.52076574 518.482280016,1361.45061226 518.470536713,1392.83959831 540.487245771,1392.90977866 540.499038983,1361.52076574 " moovel_rot="61.7" moovel_centroid="529.484776953,1377.18018282" moovel_centroidlatlon="16.413250149999996,48.2517179"></polygon></g><g transform="translate(202.98087850000002 -2250.0358628000004) rotate(0)"><polygon id="345715251" class="tile" points="58.0805626154,2290.52489254 59.0665483116,2290.38054171 63.2332338356,2287.31253076 68.8805301439,2293.7532892 67.3516007768,2295.47347366 78.3904779368,2309.67958762 75.5229379779,2312.03387265 73.0379555447,2335.38336795 68.0845756267,2334.40519114 67.8172801638,2332.64820256 57.6022200525,2331.83765178 59.7488930576,2298.6936793 57.6220379176,2298.26402728 58.0805626154,2290.52489254 " moovel_rot="29.4" moovel_centroid="66.2185268236,2313.07008291" moovel_centroidlatlon="16.308757151664306,48.228412676889654"></polygon></g><g transform="translate(-193.43245290000002 -1329.9826647999998) rotate(0)"><polygon id="26434860" class="tile" points="432.830234268,2135.17077864 432.819261651,2184.78500269 446.795847509,2183.98098397 444.165069669,2135.15019232 432.830234268,2135.17077864 " moovel_rot="44.8" moovel_centroid="439.16062005,2160.63446021" moovel_centroidlatlon="16.26452348678203,48.192462678321576"></polygon></g><g transform="translate(-377.7759606 -1125.8779329999998) rotate(0)"><polygon id="352627437" class="tile" points="553.236152579,2135.16984779 543.845898931,2135.15019232 543.770158993,2194.11986036 553.269884198,2195.35601995 554.014993438,2186.12920174 553.948772833,2165.43295552 553.840205089,2151.52349421 553.236152579,2135.16984779 " moovel_rot="58.6" moovel_centroid="548.818826138,2165.17220519" moovel_centroidlatlon="16.379911251876972,48.27698009695143"></polygon></g><g transform="translate(-236.27601459999997 -1172.9917765) rotate(0)"><polygon id="305674874" class="tile" points="398.832496804,1201.0300565 387.737772924,1201.0 387.745568136,1254.9565433 398.840246807,1254.98663041 398.832496804,1201.0300565 " moovel_rot="55.9" moovel_centroid="393.289021692,1227.9932892307593" moovel_centroidlatlon="16.39577765,48.30319345"></polygon></g><g transform="translate(-254.9244296 -1449.186757) rotate(0)"><polygon id="264348400" class="tile" points="465.033229129,1478.25810039 464.653362788,1507.99218503 443.569049695,1507.9707938 443.546731915,1477.37039252 465.033229129,1478.25810039 " moovel_rot="65.1" moovel_centroid="454.150451832,1492.84869041" moovel_centroidlatlon="16.45050904114343,48.260949202286014"></polygon></g><g transform="translate(-225.051513 -779.2386775) rotate(0)"><polygon id="349931875" class="tile" points="291.276192199,1797.68679957 291.26076683,1851.00980151 280.773423394,1851.01642432 280.785296069,1797.70488431 291.276192199,1797.68679957 " moovel_rot="-16.6" moovel_centroid="286.024107848,1824.35297356" moovel_centroidlatlon="16.326597084124373,48.242804738839055"></polygon></g><g transform="translate(88.3280542 -1137.6931125) rotate(0)"><polygon id="326286625" class="tile" points="152.789285705,2337.69309883 152.771644101,2287.32914711 164.07619697,2287.31253076 164.093833251,2337.67645905 152.789285705,2337.69309883 " moovel_rot="-12.8" moovel_centroid="158.432739568,2312.50280697" moovel_centroidlatlon="16.31398695,48.2116188"></polygon></g><g transform="translate(222.90578470000003 -1782.6027071) rotate(0)"><polygon id="345432005" class="tile" points="55.7805349035,1830.65683788 58.2134700777,1833.29163377 73.34421377,1833.23603183 73.2460883366,1820.02912939 73.3365649167,1797.9205339 56.3929456836,1797.68679957 55.7805349035,1830.65683788 " moovel_rot="-89.3" moovel_centroid="64.7079198535,1815.55554507" moovel_centroidlatlon="16.298288911418314,48.14207609825554"></polygon></g><g transform="translate(-160.441256 -1189.0599746999997) rotate(0)"><polygon id="291596699" class="tile" points="454.294752517,2206.72632071 447.795847509,2206.82772227 448.085294735,2191.99045053 447.853961651,2135.15019232 454.223852698,2135.45058875 454.294752517,2206.72632071 " moovel_rot="-87.3" moovel_centroid="451.10818676,2171.00717923" moovel_centroidlatlon="16.431210643036504,48.222364479445005"></polygon></g><g transform="translate(33.333519199999984 -2013.0517606) rotate(0)"><polygon id="124066447" class="tile" points="149.668529431,2030.76302827 134.214496094,2030.12943099 134.244088161,2068.4654973 140.179183815,2068.94988606 148.530302317,2069.38944716 149.668529431,2030.76302827 " moovel_rot="71.9" moovel_centroid="141.678406763,2049.46111456" moovel_centroidlatlon="16.466863627991597,48.25510258471785"></polygon></g><g transform="translate(-149.53525009999998 -1807.3006745999999) rotate(0)"><polygon id="203348083" class="tile" points="342.158221143,2287.31253076 345.58624228,2287.34308074 345.679402414,2386.0864429 342.226607169,2382.73212936 342.158221143,2287.31253076 " moovel_rot="-7.7" moovel_centroid="343.922445069,2335.92513349" moovel_centroidlatlon="16.31300505725972,48.20263617543846"></polygon></g><g transform="translate(-330.82825 -2021.0106248) rotate(0)"><polygon id="222688843" class="tile" points="397.533477523,2069.7069812 397.522682936,2030.14170366 411.483222686,2030.12943099 411.48404854,2069.69383638 397.533477523,2069.7069812 " moovel_rot="-85.0" moovel_centroid="404.505831673,2049.91563295" moovel_centroidlatlon="16.469501285058964,48.23316397731252"></polygon></g><g transform="translate(-338.460729 -1787.8595591) rotate(0)"><polygon id="99683763" class="tile" points="462.491143165,1800.81895778 462.106954449,1823.59066306 484.923649016,1823.92863646 484.896177529,1797.68679957 473.959001006,1799.42793316 462.491143165,1800.81895778 " moovel_rot="-19.8" moovel_centroid="473.873468426,1811.58178224" moovel_centroidlatlon="16.36025615620268,48.16365945064876"></polygon></g><g transform="translate(-24.205467600000006 -2131.1696933) rotate(0)"><polygon id="27446145" class="tile" points="85.1558127981,2618.62317613 85.1093900509,2559.27787227 100.53660192,2563.94807075 85.1558127981,2618.62317613 " moovel_rot="-45.8" moovel_centroid="90.2672682565,2580.61637305" moovel_centroidlatlon="16.2969685,48.26713333333334"></polygon></g><g transform="translate(119.56375619999999 -1347.3440303999998) rotate(0)"><polygon id="29159207" class="tile" points="79.3904779368,2287.31253076 79.4074424187,2319.40032731 93.5525503789,2318.5968511 101.300430796,2291.52203756 79.3904779368,2287.31253076 " moovel_rot="40" moovel_centroid="88.3466570225,2303.05034651" moovel_centroidlatlon="16.38271547687922,48.28750576112931"></polygon></g><g transform="translate(-143.534995 -1111.5484241999998) rotate(0)"><polygon id="296272423" class="tile" points="278.94406896,1803.04101021 275.688647794,1806.6755086 279.730614955,1814.42315198 279.773423394,1843.85224699 265.675627185,1841.84652789 267.932408366,1816.44673423 268.860663501,1808.08877639 268.693637733,1801.8637137 273.004536944,1798.6871024 275.542059403,1797.68679957 278.94406896,1803.04101021 " moovel_rot="-93.1" moovel_centroid="273.365422559,1823.17435531" moovel_centroidlatlon="16.262444923098244,48.205381546603384"></polygon></g><g transform="translate(76.3450652 -1133.4223777999998) rotate(0)"><polygon id="348442696" class="tile" points="143.732267445,2287.32072222 131.108119989,2287.31253076 131.091133036,2321.02923974 131.084858067,2325.45274978 143.70900822,2325.46094116 143.732267445,2287.32072222 " moovel_rot="-91.6" moovel_centroid="137.409458068,2306.38604546" moovel_centroidlatlon="16.375473409970546,48.16187074084892"></polygon></g><g transform="translate(-33.5100974 -1353.9656731) rotate(0)"><polygon id="357501728" class="tile" points="37.6541433832,1399.2796076 37.6813624749,1361.45061226 50.0722682772,1361.45745453 50.0450438105,1399.28644954 37.6541433832,1399.2796076 " moovel_rot="-86.6" moovel_centroid="43.8632044788,1380.36852961" moovel_centroidlatlon="16.28150965,48.162222250000006"></polygon></g><g transform="translate(-330.6126344 -1313.9611608) rotate(0)"><polygon id="52154635" class="tile" points="443.31876306,2287.31388113 443.310360099,2319.7767173 428.775296076,2319.77500124 428.773726163,2287.31253076 443.31876306,2287.31388113 " moovel_rot="-92.1" moovel_centroid="436.044550233,2303.54267713" moovel_centroidlatlon="16.280403877763224,48.15981007417967"></polygon></g><g transform="translate(-397.4127627 -1307.1877431999997) rotate(0)"><polygon id="326224758" class="tile" points="480.874290803,2135.15019232 481.609781013,2153.81503833 481.537732077,2168.42680884 480.813838835,2184.93232643 486.63599975,2183.27953486 490.530099777,2172.33302271 489.759481017,2156.78191204 488.476381882,2135.68986428 480.874290803,2135.15019232 " moovel_rot="39.9" moovel_centroid="485.334840464,2159.64095214" moovel_centroidlatlon="16.377641436571636,48.273026710490974"></polygon></g><g transform="translate(240.55927399999996 -1618.2187721) rotate(0)"><polygon id="27479577" class="tile" points="54.7745440405,1834.94591422 54.7805349035,1797.68679957 43.9189416196,1797.68768693 43.9129517138,1834.94680159 54.7745440405,1834.94591422 " moovel_rot="-89.3" moovel_centroid="49.3467430691,1816.3168003" moovel_centroidlatlon="16.3804523,48.15646615000001"></polygon></g><g transform="translate(-79.5141415 -563.1950806000001) rotate(0)"><polygon id="295019518" class="tile" points="190.584877579,1232.51787414 175.036500677,1232.70008876 175.059236067,1201.0 187.974216962,1201.28257677 187.289312618,1227.69776218 190.700173076,1227.95240328 190.584877579,1232.51787414 " moovel_rot="-93.7" moovel_centroid="181.595766348,1217.2473059305864" moovel_centroidlatlon="16.249991738237565,48.206346112422665"></polygon></g><g transform="translate(-9.364941200000004 -1714.9891951) rotate(0)"><polygon id="26812368" class="tile" points="81.3557896638,2030.12943099 64.9353322785,2030.71640167 64.7063575619,2054.54084879 81.3676409396,2055.19729683 81.3557896638,2030.12943099 " moovel_rot="-32.3" moovel_centroid="73.1612268424,2042.67648176" moovel_centroidlatlon="16.30445521628577,48.23517341837098"></polygon></g><g transform="translate(-124.0902451 -1670.3390001999999) rotate(0)"><polygon id="240894525" class="tile" points="250.513596032,1797.85137089 258.04361475,1797.75915732 264.675627185,1797.68679957 264.639232051,1823.45225908 264.636903463,1824.5039388 250.561945937,1824.63299145 250.513596032,1797.85137089 " moovel_rot="-16.1" moovel_centroid="257.598750503,1811.15392136" moovel_centroidlatlon="16.4852592865979,48.23591871292916"></polygon></g><g transform="translate(-284.08032860000003 -1195.538481) rotate(0)"><polygon id="246423743" class="tile" points="382.557806648,1223.4627706 386.737772924,1224.26974781 386.582140315,1229.02935199 369.735776431,1227.93932074 369.740761362,1201.0 381.433924904,1201.34429144 382.557806648,1223.4627706 " moovel_rot="-3.6" moovel_centroid="376.444197728,1215.6559635284896" moovel_centroidlatlon="16.278730687302765,48.14404501734275"></polygon></g><g transform="translate(133.40634249999997 -1357.1561547000001) rotate(0)"><polygon id="64742527" class="tile" points="140.148651731,1361.5461659 140.135809451,1389.40022893 127.214032484,1389.77535705 127.219036937,1387.68655617 127.177966912,1363.77961603 127.168188069,1361.45061226 140.148651731,1361.5461659 " moovel_rot="84.1" moovel_centroid="133.651888398,1375.53225511" moovel_centroidlatlon="16.361121790894664,48.17508988890904"></polygon></g><g transform="translate(-142.96007210000002 -1552.0953608) rotate(0)"><polygon id="1378895" class="tile" points="323.588717254,2030.12943099 327.918377982,2033.78112805 327.916368869,2063.60575059 308.778460094,2043.29694573 323.588717254,2030.12943099 " moovel_rot="36.2" moovel_centroid="321.302724141,2045.07668907" moovel_centroidlatlon="16.29444415236939,48.20104336043633"></polygon></g><g transform="translate(-348.2686891000001 -1192.0572314) rotate(0)"><polygon id="116682947" class="tile" points="568.267198609,1201.07056056 563.424369631,1201.0 563.035198434,1247.19755616 563.305894499,1251.7289461 568.289052702,1250.89393018 568.267198609,1201.07056056 " moovel_rot="65.0" moovel_centroid="565.742382468,1226.4898356942047" moovel_centroidlatlon="16.32144464307313,48.23795856890198"></polygon></g><g transform="translate(-408.91801669999995 -1745.0049871) rotate(0)"><polygon id="402501246" class="tile" points="511.161890485,2138.15502176 510.751610192,2158.04020446 526.218524592,2158.39382254 526.179884296,2135.15019232 511.161890485,2138.15502176 " moovel_rot="-20.6" moovel_centroid="518.77776337,2147.4737734" moovel_centroidlatlon="16.4066719446843,48.272283832883076"></polygon></g><g transform="translate(-148.43516840000004 -403.19758609999985) rotate(0)"><polygon id="208172680" class="tile" points="321.391486073,1517.54871929 315.322303195,1517.50791237 315.04737249,1477.45651228 321.456550266,1477.37039252 321.391486073,1517.54871929 " moovel_rot="-33.2" moovel_centroid="318.305580119,1497.28853536" moovel_centroidlatlon="16.227154134291617,48.20743517063287"></polygon></g><g transform="translate(-290.0150959 -2128.1448204000003) rotate(0)"><polygon id="152175348" class="tile" points="311.564764905,2152.93142092 328.824338013,2154.95998241 328.799058284,2137.01513763 311.70468195,2135.15019232 311.564764905,2152.93142092 " moovel_rot="-70.8" moovel_centroid="320.234771224,2145.02985526" moovel_centroidlatlon="16.28364141031208,48.20658176415139"></polygon></g><g transform="translate(-96.9172969 -2263.8869001999997) rotate(0)"><polygon id="348422954" class="tile" points="222.559105557,2559.47500612 210.048172612,2561.19668712 212.398762681,2584.21895733 223.928213079,2582.41788436 223.926609337,2561.78718505 223.93447826,2559.27787227 222.559105557,2559.47500612 " moovel_rot="42.1" moovel_centroid="217.547017517,2571.42728975" moovel_centroidlatlon="16.397697393663236,48.16808472601035"></polygon></g><g transform="translate(-178.6623669 -2012.8258463) rotate(0)"><polygon id="204810427" class="tile" points="402.610616673,2323.1155416 403.550035686,2323.04509679 403.54637985,2318.10837488 390.998850508,2317.63550984 393.311864477,2287.4747588 388.993025875,2287.31253076 386.180747196,2322.06053567 402.610616673,2323.1155416 " moovel_rot="-89.0" moovel_centroid="391.93389277,2309.35441168" moovel_centroidlatlon="16.313246709333864,48.14069137975868"></polygon></g><g transform="translate(-43.698384000000004 -2553.6137738) rotate(0)"><polygon id="427186420" class="tile" points="151.338855205,2587.08801846 160.823350119,2586.95992448 161.608457867,2583.72558392 161.618123931,2559.27787227 151.431996637,2559.33748017 151.301339937,2576.49220683 151.338855205,2587.08801846 " moovel_rot="-91.5" moovel_centroid="156.456553953,2573.12910114" moovel_centroidlatlon="16.530450414478256,48.21757015530693"></polygon></g><g transform="translate(-190.55106849999999 -1791.2238027) rotate(0)"><polygon id="75804804" class="tile" points="234.358852831,1817.00456624 234.367966994,1798.9493124 234.371506613,1798.42157539 234.365549856,1797.9340324 234.372516651,1797.68679957 249.513596032,1797.69551756 249.500014554,1817.01996288 241.989355076,1817.01153245 234.358852831,1817.00456624 " moovel_rot="-90.7" moovel_centroid="241.935730792,1807.35113843" moovel_centroidlatlon="16.369768733675162,48.17881745507858"></polygon></g><g transform="translate(11.308219600000001 -2144.6412622) rotate(0)"><polygon id="148393035" class="tile" points="204.398771935,2559.27787227 189.179127862,2559.30293869 189.18559284,2578.47860736 204.411744743,2578.45203774 204.398771935,2559.27787227 " moovel_rot="-12.9" moovel_centroid="196.793710973,2568.87854737" moovel_centroidlatlon="16.28477872129094,48.1461986435412"></polygon></g><g transform="translate(94.05989650000001 -539.3326573) rotate(0)"><polygon id="26322177" class="tile" points="113.013195175,1361.45061226 111.693159194,1371.0774282 114.218565263,1383.85686072 126.146629275,1384.02804377 126.168188069,1363.2671836 113.013195175,1361.45061226 " moovel_rot="55.8" moovel_centroid="119.322939086,1372.91490068" moovel_centroidlatlon="16.270574261592795,48.19063143426719"></polygon></g><g transform="translate(-327.8712997 -1798.3402907999998) rotate(0)"><polygon id="347927881" class="tile" points="479.813838835,2135.49488819 470.507010195,2135.15019232 470.513616635,2167.8489216 479.168650517,2158.96465366 479.813838835,2135.49488819 " moovel_rot="81.5" moovel_centroid="474.747453099,2149.28790762" moovel_centroidlatlon="16.361394427856485,48.21124815635669"></polygon></g><g transform="translate(-13.06818109999999 -475.5354352999999) rotate(0)"><polygon id="79812513" class="tile" points="73.4550552206,1218.11240213 82.2723478839,1217.96575688 84.6685618877,1217.91137918 89.4603803802,1217.77591405 89.4692664605,1201.0 73.3796741301,1201.14465459 73.4176091811,1212.06036642 73.4550552206,1218.11240213 " moovel_rot="-91.3" moovel_centroid="81.4239533871,1209.512078667255" moovel_centroidlatlon="16.370958223406497,48.17930307246039"></polygon></g><g transform="translate(-72.54159859999999 -1355.4883019000001) rotate(0)"><polygon id="163714017" class="tile" points="306.102756371,1381.13926076 308.535913016,1382.30111567 313.563640975,1382.93074559 315.351809601,1382.69197041 315.507742866,1383.95038057 318.091736048,1383.66309497 318.091448663,1363.7456549 313.911680388,1362.8567552 307.286166393,1361.45061226 303.685881377,1379.22827112 306.102756371,1381.13926076 " moovel_rot="-28.7" moovel_centroid="311.720908415,1372.94546725" moovel_centroidlatlon="16.28373009303496,48.19022674148197"></polygon></g><g transform="translate(-142.4150953 -1201.7369082999999) rotate(0)"><polygon id="80531540" class="tile" points="196.185882959,2154.63170994 195.387752568,2135.77537747 209.20662733,2135.15019232 209.201717322,2154.09102878 196.185882959,2154.63170994 " moovel_rot="-64.6" moovel_centroid="202.496447096,2144.81756954" moovel_centroidlatlon="16.36734345927364,48.183675072252285"></polygon></g><g transform="translate(-2.5454201999999952 -2281.914988) rotate(0)"><polygon id="142104349" class="tile" points="190.554701243,2287.33845105 204.83676117,2287.31253076 204.824810753,2305.07604777 197.927144457,2305.08849162 190.542759954,2305.10198597 190.554701243,2287.33845105 " moovel_rot="-27.0" moovel_centroid="197.689756903,2296.20723212" moovel_centroidlatlon="16.429072500140684,48.25294930018832"></polygon></g><g transform="translate(-91.60154169999998 -1478.2273137) rotate(0)"><polygon id="290858944" class="tile" points="330.561188724,1816.60976673 330.553580791,1797.68679957 343.512681005,1797.73896344 343.526583533,1817.20515028 330.561188724,1816.60976673 " moovel_rot="-20.8" moovel_centroid="337.069070548,1807.31167259" moovel_centroidlatlon="16.433262719770234,48.25334770243148"></polygon></g><g transform="translate(-108.94730390000001 -1483.2102807) rotate(0)"><polygon id="374735195" class="tile" points="362.391010536,2048.13380811 362.402884,2030.12943099 375.897172982,2030.13436147 375.895287821,2048.13926205 362.391010536,2048.13380811 " moovel_rot="-87.0" moovel_centroid="369.146620877,2039.13532585" moovel_centroidlatlon="16.44630973342208,48.26937137409917"></polygon></g><g transform="translate(-327.3243414 -1502.5961355) rotate(0)"><polygon id="407903739" class="tile" points="333.062594788,2135.15753895 333.032113736,2180.90394153 329.824338013,2180.89659334 329.854812643,2135.15019232 333.062594788,2135.15753895 " moovel_rot="76.4" moovel_centroid="331.443464809,2158.02705891" moovel_centroidlatlon="16.37872570000001,48.18301530000001"></polygon></g><g transform="translate(-422.8446392999999 -753.8024644000001) rotate(0)"><polygon id="97242003" class="tile" points="547.518491969,1361.45061226 547.529568178,1379.42965589 549.502322609,1379.6948352 551.125962754,1380.78077065 552.3196017,1381.73483843 552.976489689,1382.88754337 553.706684565,1384.72370472 553.690699415,1386.78912444 555.760603147,1387.07866319 556.830036246,1379.70326352 560.684885189,1365.1347085 547.518491969,1361.45061226 " moovel_rot="-72.1" moovel_centroid="553.193384564,1372.36408891" moovel_centroidlatlon="16.348560827789033,48.21449959962073"></polygon></g><g transform="translate(-66.67030979999998 -1891.9522216) rotate(0)"><polygon id="354381168" class="tile" points="346.686289249,2287.31253076 346.679402414,2310.96075936 348.208466456,2310.21818606 358.228292333,2305.4073866 357.897612863,2291.57542591 348.106288823,2287.84967078 346.686289249,2287.31253076 " moovel_rot="-10.2" moovel_centroid="351.877953059,2298.89735194" moovel_centroidlatlon="16.363541485901127,48.25366280636878"></polygon></g><g transform="translate(-212.47939680000002 -1574.8774366999999) rotate(0)"><polygon id="415526026" class="tile" points="457.848184949,2287.65923531 457.582886119,2296.25877228 457.197030075,2303.80069788 444.344582566,2303.8607179 444.31876306,2287.31253076 457.848184949,2287.65923531 " moovel_rot="57.3" moovel_centroid="450.92186137,2295.58828311" moovel_centroidlatlon="16.47274517523338,48.2367367588656"></polygon></g><g transform="translate(-197.5547146 -579.0955701) rotate(0)"><polygon id="434895417" class="tile" points="476.674892846,1201.0 472.33809755,1219.00683282 476.20346912,1222.15536404 486.345067274,1220.72986382 486.337408285,1208.0682269 476.674892846,1201.0 " moovel_rot="81.7" moovel_centroid="479.79922544,1213.1452964014038" moovel_centroidlatlon="16.427597986404937,48.25226118204284"></polygon></g><g transform="translate(-15.653614499999946 -1864.3952620999999) rotate(0)"><polygon id="227829990" class="tile" points="309.658140998,2135.15019232 310.564764905,2150.98136962 297.256965449,2152.31845866 297.282798336,2135.77348956 309.658140998,2135.15019232 " moovel_rot="61.4" moovel_centroid="303.65098919,2143.65890061" moovel_centroidlatlon="16.458578194894695,48.263386258736205"></polygon></g><g transform="translate(65.33514890000001 -1374.3546612) rotate(0)"><polygon id="332753259" class="tile" points="51.0848091562,2030.12943099 63.6906984172,2030.64092022 63.7063575619,2045.74206075 50.6934615452,2045.38374076 50.5468227532,2041.30484594 50.7289756977,2034.41167292 51.0848091562,2030.12943099 " moovel_rot="-6.0" moovel_centroid="57.1908381292,2038.01103554" moovel_centroidlatlon="16.281072683537886,48.145099164191244"></polygon></g><g transform="translate(-320.12763789999997 -1825.7162527) rotate(0)"><polygon id="203348086" class="tile" points="506.778008134,2136.35037494 509.591796922,2135.15019232 509.751610192,2174.90151319 506.7752226,2176.09501751 506.778008134,2136.35037494 " moovel_rot="-23.1" moovel_centroid="508.224974769,2155.80995509" moovel_centroidlatlon="16.316732520532053,48.20046686232012"></polygon></g><g transform="translate(-145.77316040000002 -1317.5191014) rotate(0)"><polygon id="323439806" class="tile" points="303.375988308,1797.68679957 292.276192199,1798.03570867 292.536877218,1811.95637349 296.362650345,1811.90570891 296.664209507,1817.47304655 297.859719077,1817.50875745 299.285006538,1817.55524583 299.22469055,1812.33115223 303.376058032,1812.0961928 303.375988308,1797.68679957 " moovel_rot="68.7" moovel_centroid="297.931745877,1805.79506974" moovel_centroidlatlon="16.420652995074956,48.28693008681813"></polygon></g><g transform="translate(28.10927510000002 -2024.5685928) rotate(0)"><polygon id="350798758" class="tile" points="133.187419467,2030.15432068 123.589921078,2030.12943099 123.339631022,2047.53278931 127.896345028,2047.56532812 133.214496094,2047.60353652 133.187419467,2030.15432068 " moovel_rot="-49.1" moovel_centroid="128.334673846,2038.89641536" moovel_centroidlatlon="16.39442649923816,48.18071071492292"></polygon></g><g transform="translate(-398.7013416 -1156.0599288) rotate(0)"><polygon id="92479766" class="tile" points="541.499038983,1361.46232639 546.498829762,1361.45061226 546.518491969,1389.28333208 541.519877156,1389.28847138 541.499038983,1361.46232639 " moovel_rot="-79.9" moovel_centroid="544.009157463,1375.37063762" moovel_centroidlatlon="16.29403298330164,48.14574989999214"></polygon></g><g transform="translate(90.88283819999998 -1195.3091200000001) rotate(0)"><polygon id="208172679" class="tile" points="141.148651731,1361.45061226 141.164137899,1388.15435968 147.01551009,1386.33669502 147.101793456,1365.16639055 143.694408756,1363.04179756 141.148651731,1361.45061226 " moovel_rot="61.3" moovel_centroid="143.994241584,1375.22219466" moovel_centroidlatlon="16.227626915634843,48.20759199403554"></polygon></g><g transform="translate(-326.8685877 -1733.0804968) rotate(0)"><polygon id="325867041" class="tile" points="358.838283677,1797.68679957 348.821881042,1798.45637483 348.799962573,1812.64902807 352.738362591,1812.26595161 359.717380795,1811.69610626 358.838283677,1797.68679957 " moovel_rot="76.0" moovel_centroid="354.041143907,1805.21401906" moovel_centroidlatlon="16.36072397395476,48.169743245816804"></polygon></g><g transform="translate(-314.8989878 -938.6069964000001) rotate(0)"><polygon id="343507321" class="tile" points="462.765542907,1361.45061226 462.761073254,1375.39856847 458.85562868,1375.3108632 458.84868011,1371.06506712 453.220033116,1371.64985847 449.858422529,1367.63125265 450.638723457,1365.91949861 450.559643824,1361.79001742 462.765542907,1361.45061226 " moovel_rot="74.9" moovel_centroid="457.281988165,1367.20983688" moovel_centroidlatlon="16.528561862222816,48.21602851398328"></polygon></g><g transform="translate(-92.9115507 -1201.9425288000002) rotate(0)"><polygon id="355153966" class="tile" points="155.486189955,1797.71492623 153.259719112,1797.72129909 153.246000098,1812.89406854 161.563857176,1812.80441649 161.492601839,1797.68679957 155.486189955,1797.71492623 " moovel_rot="84.5" moovel_centroid="157.388149323,1805.29037645" moovel_centroidlatlon="16.377213626193544,48.17385468794451"></polygon></g><g transform="translate(-137.3713887 -1779.8329549) rotate(0)"><polygon id="316678607" class="tile" points="187.296087494,2287.32247373 189.517845145,2287.31253076 189.542759954,2317.26685362 187.3210059,2317.27680159 187.296087494,2287.32247373 " moovel_rot="-35.7" moovel_centroid="188.419424589,2302.29466089" moovel_centroidlatlon="16.416255649999997,48.183751"></polygon></g><g transform="translate(-458.74360759999996 -281.63030359999993) rotate(0)"><polygon id="119059884" class="tile" points="479.310788566,1361.45061226 479.326215202,1372.46879984 489.761631607,1372.55313425 489.805148125,1361.82497903 479.310788566,1361.45061226 " moovel_rot="-61.6" moovel_centroid="484.52779496,1367.06873796" moovel_centroidlatlon="16.35390125945856,48.18925020574111"></polygon></g><g transform="translate(-93.8865052 -1064.6725708) rotate(0)"><polygon id="308954910" class="tile" points="119.013538114,1221.44353837 118.986473054,1201.0 119.084582249,1201.4388405 119.274519798,1201.71676735 120.765169843,1202.46092848 122.237563048,1203.3752296 122.447955728,1203.6929301 122.667016142,1204.20048267 122.726329437,1205.39950049 122.709471101,1219.73534084 122.576439173,1220.42652434 122.258997027,1220.72975752 121.913478823,1220.90332423 121.283682395,1220.71997744 120.464053109,1220.2687007 119.862018696,1220.18503277 119.50992637,1220.36866531 119.193740387,1220.79184886 119.013538114,1221.44353837 " moovel_rot="-0.6" moovel_centroid="120.820101754,1211.5421657763347" moovel_centroidlatlon="16.362774498611167,48.228382354423594"></polygon></g><g transform="translate(-107.22175709999999 -2222.8676143999996) rotate(0)"><polygon id="120473178" class="tile" points="151.771644101,2287.33779797 151.770614288,2296.04633623 144.732267445,2296.01542048 144.736861703,2287.31253076 151.771644101,2287.33779797 " moovel_rot="57.7" moovel_centroid="148.253226269,2291.67839056" moovel_centroidlatlon="16.42109928271188,48.18419960123129"></polygon></g><g transform="translate(-402.0500489 -1505.9151089) rotate(0)"><polygon id="418467816" class="tile" points="407.642139709,2287.32072239 407.648873194,2293.46766517 404.550035686,2293.46486715 404.551703611,2287.31253076 407.642139709,2287.32072239 " moovel_rot="57.3" moovel_centroid="406.097961815,2290.3928376" moovel_centroidlatlon="16.34921191570099,48.172260165564836"></polygon></g></g><g transform="translate(0 1327.7)"><polygon id="4" class="bin" points="-1.875,0.0 0.77665042945,1.09834957055 1.875,3.75 1.875,1203.749999 0.77665042945,1206.40164943 -1.875,1207.499999 -298.124999,1207.499999 -300.776649429,1206.40164943 -301.874999,1203.749999 -301.874999,3.75 -300.776649429,1.09834957055 -298.124999,0.0 -1.875,0.0 " moovel_rot="0" moovel_centroid="-149.99999950000003,603.7499995000001" moovel_centroidlatlon="0,0" transform="translate(301.875 0)"></polygon><g transform="translate(-342.026595 -700.6194016) rotate(0)"><polygon id="149265489" class="tile" points="347.799962573,1900.86723265 344.526583533,1899.29000684 344.868708465,1797.68679957 347.742306782,1799.64266034 347.799962573,1900.86723265 " moovel_rot="-12.9" moovel_centroid="346.231316539,1850.46772311" moovel_centroidlatlon="16.328954366521756,48.20668316436011"></polygon></g><g transform="translate(-516.4761394999999 -974.7255083999999) rotate(0)"><polygon id="375273670" class="tile" points="527.249058476,2174.23939961 542.364204114,2174.72691813 542.770158993,2148.94424489 542.077075715,2142.96593309 537.503238228,2143.2570502 539.205222793,2138.03779588 529.811858399,2135.15019232 527.218524592,2142.86333624 527.249058476,2174.23939961 " moovel_rot="-79.9" moovel_centroid="534.681324137,2156.42935619" moovel_centroidlatlon="16.44028063225867,48.26832367991555"></polygon></g><g transform="translate(-80.4866416 -1012.7338576) rotate(0)"><polygon id="421047499" class="tile" points="109.206121001,2135.15019232 108.166578099,2137.81435951 98.818471144,2141.77609657 91.0488994278,2144.92171889 99.9663553693,2167.63914291 105.288881161,2171.58994616 111.666573873,2173.99195954 113.751109937,2173.34781972 115.489617993,2167.90035406 115.51267744,2165.47746302 111.07767518,2164.06207325 109.345474452,2161.82274697 113.000581451,2159.79429666 108.243390372,2147.59133957 104.125893883,2148.71801138 103.797392501,2145.6172524 111.854355091,2142.18623523 115.534126938,2138.30104614 109.206121001,2135.15019232 " moovel_rot="17.7" moovel_centroid="104.302954535,2155.129375" moovel_centroidlatlon="16.407266009779065,48.141252934247404"></polygon></g><g transform="translate(-453.0396852 -279.52038500000003) rotate(0)"><polygon id="202588310" class="tile" points="463.765542907,1398.32489251 464.854914403,1361.45061226 478.26668928,1361.84024757 478.310788566,1398.72318858 463.765542907,1398.32489251 " moovel_rot="-49.6" moovel_centroid="471.295218057,1380.33383895" moovel_centroidlatlon="16.39498139331429,48.17891704082916"></polygon></g><g transform="translate(-165.4239462 -1448.3344641) rotate(0)"><polygon id="149265492" class="tile" points="205.411744743,2648.63009426 209.048172612,2646.65004631 209.02356362,2559.27787227 205.481161938,2562.10722503 205.411744743,2648.63009426 " moovel_rot="-12.6" moovel_centroid="207.244250736,2604.35448326" moovel_centroidlatlon="16.327983280605196,48.20677423051085"></polygon></g><g transform="translate(-49.91489070000001 -228.57344790000002) rotate(0)"><polygon id="120473168" class="tile" points="98.5718816731,1363.0014817 104.165187294,1361.45061226 108.643259609,1377.6855663 109.826375455,1385.60841536 110.693159194,1400.73290349 108.840359524,1414.54984866 107.680574407,1420.52305182 103.589787555,1428.58898409 98.5275880422,1425.91661597 101.596573042,1420.7019895 103.497496193,1414.09501054 104.256246416,1407.71892464 104.653809682,1400.78436678 104.433370367,1386.42913833 102.452211956,1376.61335455 98.5718816731,1363.0014817 " moovel_rot="-79.2" moovel_centroid="105.583570293,1394.71955586" moovel_centroidlatlon="16.42177630172168,48.18416063407537"></polygon></g><g transform="translate(-518.0238006 -724.3309312000001) rotate(0)"><polygon id="133174003" class="tile" points="567.145744533,1831.38530112 567.068817342,1800.15841485 567.129008088,1799.45185495 554.916695371,1797.68679957 548.212621642,1827.2064943 550.179182903,1827.64154633 567.145744533,1831.38530112 " moovel_rot="-81.9" moovel_centroid="559.259777523,1815.07610057" moovel_centroidlatlon="16.51081810809895,48.20192594148492"></polygon></g><g transform="translate(-167.0661187 -109.10691069999984) rotate(0)"><polygon id="153341568" class="tile" points="234.356295102,1201.04004067 221.208233928,1201.0 221.160037331,1237.23904398 234.489154306,1236.28199114 234.356295102,1201.04004067 " moovel_rot="59.0" moovel_centroid="227.772895868,1218.9323255076379" moovel_centroidlatlon="16.384707354376093,48.15357874574165"></polygon></g><g transform="translate(-378.8296652 -302.9131006) rotate(0)"><polygon id="246487648" class="tile" points="448.858422529,1385.69807472 448.687341162,1389.97986686 432.940707098,1389.1358721 432.971778717,1361.45061226 444.266480062,1361.74834241 444.757889179,1385.36094951 448.858422529,1385.69807472 " moovel_rot="4.7" moovel_centroid="439.175781668,1376.26027052" moovel_centroidlatlon="16.278757141669196,48.14459089931904"></polygon></g><g transform="translate(-43.3738956 -71.28689859999986) rotate(0)"><polygon id="120473170" class="tile" points="117.9820378,1255.05196981 114.943390692,1257.15391586 111.884704967,1250.8779504 109.662827684,1242.90339272 108.862059398,1238.896772 108.214619914,1232.26719672 108.191385101,1226.63837599 108.590997078,1220.18998528 110.6721361,1210.26218777 113.079901868,1204.34433841 114.761419483,1201.0 117.986473054,1202.37518353 114.766461543,1211.50745775 112.748736315,1219.0891192 111.936143015,1226.49067247 112.690959164,1236.60918841 114.399197875,1244.39037593 116.779148639,1252.0711754 117.9820378,1255.05196981 " moovel_rot="81.5" moovel_centroid="112.239820885,1229.0748097263681" moovel_centroidlatlon="16.419175736672347,48.184530582798644"></polygon></g><g transform="translate(-272.2543642 -307.2176925000001) rotate(0)"><polygon id="26764423" class="tile" points="274.764762501,1361.45061226 285.937665941,1381.1882772 274.754351068,1390.33825682 274.764762501,1361.45061226 " moovel_rot="42.9" moovel_centroid="278.48559317,1377.65904876" moovel_centroidlatlon="16.260729299999998,48.1949587"></polygon></g></g></svg>