<svg><g transform="translate(0 0)"><polygon id="4" class="bin" points="440.154351342,1207.499999 442.806001771,1206.40164943 443.904351342,1203.749999 443.904351342,3.75 442.806001771,1.09834957055 440.154351342,0.0 158.403315927,0.0 155.750553367,1.09946216792 154.653317247,3.75314624037 154.689919419,47.3792142367 155.753581773,49.9925727526 158.338024792,51.1246834413 187.808360204,51.9257338498 191.774436769,53.6637998592 193.404973665,57.6752816553 193.42863558,165.905990637 191.70460753,170.008557954 187.566841128,171.646306566 163.010830385,171.126657644 160.316957459,172.187563827 159.181574236,174.8509035 152.345648658,1203.72508424 153.435121346,1206.39282605 156.095565892,1207.499999 440.154351342,1207.499999 " moovel_rot="0" moovel_centroid="301.4470428737214,611.9006114605415" moovel_centroidlatlon="0,0" transform="translate(-152.3456421 0)"></polygon><g transform="translate(485.8560862888671 -1449.7913601) rotate(0)"><polygon id="74278285" class="tile" points="-481.88174058,2428.63301242 -465.130879006,2421.77870085 -446.862874975,2464.98482502 -443.481967088,2500.39645962 -446.2368705,2502.79033812 -445.802606856,2505.19816916 -438.527742174,2552.30303015 -438.006577609,2588.07458125 -437.049844159,2648.44406473 -482.072800978,2649.79244356 -481.88174058,2428.63301242 " moovel_rot="52.2" moovel_centroid="-461.994775727,2547.14296319" moovel_centroidlatlon="16.403484203325522,48.21599087693927"></polygon></g><g transform="translate(335.9114681 -201.27493939999988) rotate(0)"><polygon id="122876158" class="tile" points="-282.108949783,1401.27593862 -282.118682323,1316.19494037 -281.889015803,1304.71685548 -281.611620729,1201.0 -248.619711939,1201.75464888 -248.362876344,1261.16326572 -256.368135643,1260.99681181 -256.05667562,1286.21562798 -249.428260439,1286.15069946 -249.606940898,1361.63076596 -242.778027034,1361.7116955 -235.805811871,1361.76297448 -235.854863171,1400.00747901 -282.108949783,1401.27593862 " moovel_rot="-31.4" moovel_centroid="-264.142684119,1307.5600730566441" moovel_centroidlatlon="16.45624563170441,48.23018460621007"></polygon></g><g transform="translate(162.8369176 -406.5351890999999) rotate(0)"><polygon id="32235012" class="tile" points="0.0,1475.18109122 -0.0387848631945,1548.56264668 -0.271679036133,1588.44871696 -71.4979624974,1549.0991531 -68.5023799261,1549.0377265 -22.8633898208,1548.8553672 -23.2504449708,1488.93347838 -67.7811975032,1488.45544905 -72.5189543316,1488.47619366 -39.9864031166,1408.11894753 -36.5785324203,1406.89692921 -3.75975721842,1429.76176278 -0.329504695348,1435.94795505 -0.204026708426,1443.0847631 -27.6717496794,1442.09579169 -28.3740380256,1469.39301328 -0.181225359254,1469.8650308 0.0,1475.18109122 " moovel_rot="-20.8" moovel_centroid="-26.92673117404669,1494.56808103" moovel_centroidlatlon="16.42302269420128,48.30048173567148"></polygon></g><g transform="translate(162.4818314 -746.7331106) rotate(0)"><polygon id="26729637" class="tile" points="-57.3553610264,1763.92868882 -45.3045789594,1749.17752661 -58.8102639345,1736.88830346 -34.957967641,1708.04034088 -26.1233258926,1695.87608243 -13.245962776,1685.03816907 -8.21931196712,1687.77115073 0.0,1678.07398725 -11.9360955256,1588.44871696 -55.3979142736,1612.05235629 -60.4288473244,1603.23464544 -74.2740322606,1611.67294617 -69.4725481268,1620.81986782 -65.5014920674,1627.85727391 -60.6311632535,1625.2412863 -59.6082358747,1627.55520194 -53.6541585672,1627.42742771 -52.1361002104,1642.13365227 -46.2192903988,1641.49689945 -40.5624524865,1702.48007854 -74.3458301917,1705.78051287 -67.2164917659,1776.62543723 -57.3553610264,1763.92868882 " moovel_rot="-21.4" moovel_centroid="-36.62784638998103,1665.16516477" moovel_centroidlatlon="16.388315200023577,48.278860543269246"></polygon></g><g transform="translate(622.8570598 -1221.774156) rotate(0)"><polygon id="82551345" class="tile" points="-456.859382727,2159.22810319 -445.456421573,2158.91763554 -433.496383053,2158.58871326 -429.831536413,2261.29133126 -428.137372305,2308.72077963 -428.325234388,2323.2625539 -432.768272388,2368.97282258 -434.363860445,2380.19827755 -442.822537315,2421.77870085 -452.273427251,2421.20135812 -456.807248414,2421.41928984 -447.456872119,2375.82406683 -454.272970072,2374.86893339 -455.26369548,2357.84199928 -452.651597779,2324.56836475 -451.68761334,2310.13728535 -456.859382727,2159.22810319 " moovel_rot="-16.9" moovel_centroid="-442.675718044,2281.79904025" moovel_centroidlatlon="16.310970736843885,48.13163330080566"></polygon></g><g transform="translate(126.0681089 -1109.7228835) rotate(0)"><polygon id="152238245" class="tile" points="-118.920715522,1977.37416018 -63.1241539672,1977.08066013 -61.4757039472,1979.67028632 -61.3973263146,2077.38251907 -121.701391108,2076.72945914 -121.371702728,1979.89150575 -118.920715522,1977.37416018 " moovel_rot="-17.7" moovel_centroid="-91.4321287946,2027.243586" moovel_centroidlatlon="16.359218622074163,48.1386682566083"></polygon></g><g transform="translate(329.3953561 -1745.8145112000002) rotate(0)"><polygon id="159538072" class="tile" points="-113.474943162,2945.89421413 -130.596356933,2941.4622127 -128.125488403,2649.79244356 -113.772317892,2653.79899571 -113.74603053,2680.65856239 -113.620639117,2798.64540124 -113.615653837,2807.47011296 -113.474943162,2945.89421413 " moovel_rot="-26.2" moovel_centroid="-121.509268087,2802.0127313" moovel_centroidlatlon="16.428746412396375,48.2840490903201"></polygon></g><g transform="translate(575.7477202 -1254.0582891) rotate(0)"><polygon id="28739569" class="tile" points="-412.186006096,2111.5647464 -438.94708789,2055.99258259 -421.326924402,1987.11695886 -381.140402297,1977.08066013 -377.023424255,1993.41557587 -419.634627379,2005.31504173 -415.88750282,2022.88277891 -380.025101572,2150.40345754 -376.920781376,2153.98877521 -396.074508286,2158.58871326 -413.270444569,2120.05745421 -414.879305445,2113.40057992 -412.186006096,2111.5647464 " moovel_rot="68.4" moovel_centroid="-409.089057649,2066.59374777" moovel_centroidlatlon="16.25447521368247,48.20079907535458"></polygon></g><g transform="translate(190.6595844 -1657.9884792999997) rotate(0)"><polygon id="121811850" class="tile" points="-130.316162248,2422.82082012 -130.335623507,2512.39267368 -134.972888776,2512.58205431 -141.352465606,2520.41805538 -163.827151952,2520.42249548 -163.711096216,2516.54000512 -164.444767366,2516.0717681 -172.809392879,2515.91183545 -178.070084234,2514.02152612 -182.495423588,2515.13378558 -182.561525836,2513.1760343 -185.807534528,2497.66997938 -179.982310597,2496.32029467 -182.718139292,2481.39937633 -183.454691475,2475.98312188 -183.96399554,2472.703457 -183.63404215,2455.5082075 -165.75049679,2455.21786717 -166.202650785,2421.77870085 -130.316162248,2422.82082012 " moovel_rot="-28.6" moovel_centroid="-154.43104149,2473.8005317" moovel_centroidlatlon="16.312840523713184,48.16349955282371"></polygon></g><g transform="translate(447.1400652 -1009.9808377000002) rotate(0)"><polygon id="156836234" class="tile" points="-324.402171816,1777.36763135 -377.12970985,1776.62543723 -377.053629324,1782.28152753 -381.798291734,1782.33767282 -381.782891654,1798.29194982 -381.734671217,1850.26015843 -377.451526826,1850.47099578 -375.04095725,1853.52972888 -375.147106403,1858.37291169 -357.323899675,1858.62219132 -357.207152097,1861.60512043 -338.721953174,1861.77034298 -338.595956408,1853.85537649 -335.115695933,1853.97585551 -335.020865584,1842.14804226 -324.363492705,1841.95149016 -324.402171816,1777.36763135 " moovel_rot="75.5" moovel_centroid="-353.585750211,1816.68059362" moovel_centroidlatlon="16.37242904237644,48.24038813014366"></polygon></g><g transform="translate(418.58688159999997 -1450.4186693) rotate(0)"><polygon id="216881776" class="tile" points="-214.914292129,2159.07113389 -195.55328485,2158.58871326 -191.862854018,2343.00406279 -198.32458731,2355.27662586 -215.064373249,2346.35557954 -215.052009401,2326.32460679 -214.914292129,2159.07113389 " moovel_rot="69.9" moovel_centroid="-204.263405924,2257.58281313" moovel_centroidlatlon="16.40461488004255,48.26318547691719"></polygon></g><g transform="translate(253.2258578 -866.8391687) rotate(0)"><polygon id="80787711" class="tile" points="-27.8094742935,1905.79781833 -20.9828694915,1904.57234124 -25.2164978944,1880.930094 -22.2144827563,1879.10190263 -23.4020279355,1872.20260868 -16.9140692577,1871.06105674 -19.5272317043,1856.07814925 -17.6563625727,1853.86254837 -15.0010994408,1852.67064949 -12.4938757483,1852.52357215 -9.41049381047,1853.91273436 -6.98459370788,1857.08164131 -5.22913773414,1860.97809981 -4.45279686861,1865.46036083 -4.79762589801,1869.64020062 -0.940315512568,1867.57520666 -0.612314771488,1848.4824218 -0.243841008469,1826.86813674 0.0,1812.06904295 -1.55069782007,1802.78058812 -3.64342056569,1795.45284875 -4.85711924136,1786.18644972 -4.77555627599,1776.84012616 -32.5445949594,1776.62543723 -32.1657530598,1801.3326033 -32.1285036379,1804.11454396 -31.3456717981,1855.80638259 -32.0101318656,1940.45074242 -27.339414872,1940.55852944 -27.5041105388,1948.95630899 -32.1748246735,1948.8485205 -32.4071649257,1967.23129693 -28.0074398769,1968.07912363 -26.6739647247,1968.92577078 -25.8313272005,1970.56536608 -26.6234876325,1976.89005335 -1.39393526372,1977.08066013 -1.36149081085,1973.90995005 -1.33986026142,1970.58709576 -20.7367233222,1970.49285288 -20.5669194214,1917.29011911 -25.8014492763,1917.37446763 -27.8094742935,1905.79781833 " moovel_rot="-62.8" moovel_centroid="-19.281201944852278,1852.9926148" moovel_centroidlatlon="16.369722599944353,48.18437060940593"></polygon></g><g transform="translate(144.1531482 -542.5984207) rotate(0)"><polygon id="243320593" class="tile" points="-4.30628038123,1209.57531082 -36.1453510616,1286.3573333 -1.0,1299.72312701 -6.27457651068,1310.70366244 -48.0307790305,1294.49564585 -54.6901682807,1289.36636354 -59.2973240105,1283.89519022 -61.8393561611,1278.09743334 -62.5431225566,1271.69332118 -59.0259103857,1219.68878718 -55.933459935,1213.34435892 -51.3715670981,1207.64579421 -45.5212371266,1204.57645317 -39.2005215172,1202.06571304 -30.7286734855,1201.0 -1.04192179758,1201.21598047 -4.30628038123,1209.57531082 " moovel_rot="40.1" moovel_centroid="-36.067228842783486,1247.8436372496687" moovel_centroidlatlon="16.45822778907419,48.26514938773289"></polygon></g><g transform="translate(398.6840141 -949.1169484000001) rotate(0)"><polygon id="118490981" class="tile" points="-320.040254185,1616.70346099 -326.022136677,1614.29681536 -324.567714834,1610.1963835 -381.407907505,1588.44871696 -382.921496781,1592.45959566 -389.36220004,1590.19902329 -392.59843861,1599.09163486 -386.699015547,1601.20462647 -387.743292434,1604.23824649 -368.952197364,1610.59844951 -382.428211347,1649.34694884 -386.660842004,1647.98497784 -392.558230628,1665.2906773 -377.174796762,1671.44252296 -373.080338219,1667.79054068 -364.730566332,1670.64161982 -353.032698312,1674.5031353 -344.745696071,1677.27612785 -335.280839301,1659.94745392 -327.122928214,1636.11914649 -322.789281294,1637.7341405 -317.58997486,1622.6180728 -321.643647917,1620.88938808 -320.040254185,1616.70346099 " moovel_rot="-51.2" moovel_centroid="-356.229645975,1634.10107307" moovel_centroidlatlon="16.461777810530158,48.14767408869302"></polygon></g><g transform="translate(634.3419818 -598.466924) rotate(0)"><polygon id="108831586" class="tile" points="-453.072530294,1306.76340595 -462.754763277,1264.13061993 -447.483825848,1261.33914322 -447.505765112,1259.99095451 -439.366512812,1263.41965264 -433.533914383,1292.328471 -431.047306843,1294.22522431 -427.640256187,1293.46722409 -430.811561222,1278.32792903 -427.810980853,1277.92375238 -414.594781979,1283.09741668 -405.050977472,1256.57367615 -404.543144466,1232.46286182 -404.25830504,1215.77071128 -403.769553059,1201.29226596 -392.57852973,1201.0 -392.561459716,1306.44341935 -396.777126834,1306.28982068 -397.048938975,1316.94710878 -396.055185741,1332.14857749 -398.724673096,1342.66437251 -400.050470391,1342.62398915 -406.235975508,1312.2436084 -402.000068009,1311.31820314 -405.021955163,1296.65890294 -438.073562557,1303.61537708 -453.072530294,1306.76340595 " moovel_rot="48.5" moovel_centroid="-417.595894841,1274.7633786325514" moovel_centroidlatlon="16.382638220400626,48.23328021885742"></polygon></g><g transform="translate(465.0470814 -820.6630648) rotate(0)"><polygon id="183199790" class="tile" points="-316.671533088,1407.26054183 -317.139588557,1422.64143324 -316.885799685,1444.92533029 -317.058403006,1476.38120736 -317.12284182,1487.56344272 -284.115777358,1478.62413013 -272.474338961,1475.47307591 -272.477562317,1460.87386588 -272.508423155,1407.30457883 -284.287523566,1406.89692921 -316.671533088,1407.26054183 " moovel_rot="72.2" moovel_centroid="-295.331544885,1444.40330744" moovel_centroidlatlon="16.403480108204306,48.201040289075834"></polygon></g><g transform="translate(332.9389184 -832.2821969) rotate(0)"><polygon id="136587463" class="tile" points="-244.169319407,1494.72338367 -250.532231742,1494.83332468 -253.689283199,1487.01320768 -258.036896735,1488.43504093 -263.562984781,1471.37586854 -258.980157493,1470.08657143 -258.72022391,1466.28478379 -258.428048416,1462.07950549 -258.277315614,1459.79548745 -261.735506989,1459.08887138 -263.544735518,1414.08665528 -259.394440101,1414.09460751 -259.485254061,1408.77654406 -226.806312432,1406.89692921 -226.042549142,1411.8965277 -215.934761848,1411.78075851 -214.198314774,1457.21728799 -218.619590299,1457.66996713 -214.256330188,1469.11368764 -222.415983391,1469.62185505 -247.366659766,1471.67787559 -246.655344344,1489.8879841 -244.433341791,1490.05904027 -244.169319407,1494.72338367 " moovel_rot="60.6" moovel_centroid="-240.122988411,1443.07425762" moovel_centroidlatlon="16.4570429626233,48.24197771469222"></polygon></g><g transform="translate(197.6675931 -1609.6428609999998) rotate(0)"><polygon id="243459399" class="tile" points="-190.836989916,2158.58871326 -190.862854018,2244.13886303 -180.831291575,2244.03380891 -132.033437136,2181.8941972 -138.711190622,2176.96177618 -149.278075913,2169.95908217 -158.181206955,2165.56019561 -166.274370002,2162.60351024 -177.23085394,2159.85689418 -185.131615773,2158.6890405 -190.836989916,2158.58871326 " moovel_rot="0.6" moovel_centroid="-170.172127216,2195.74208506" moovel_centroidlatlon="16.475840049292216,48.26750537671921"></polygon></g><g transform="translate(758.8734068 -1417.2223020000001) rotate(0)"><polygon id="38660499" class="tile" points="-493.501843997,2158.58871326 -493.650199884,2213.72879115 -489.190057386,2237.59385301 -501.481903365,2244.81684788 -503.235980662,2242.08900904 -515.391522073,2249.35283968 -513.646209484,2251.90292647 -519.817872117,2255.36925013 -528.378282673,2248.37538086 -528.292117993,2180.4245606 -524.687112314,2180.24552459 -523.780083746,2171.75702346 -520.757630581,2165.10768023 -515.401872805,2161.28439316 -508.6177524,2159.23627119 -493.501843997,2158.58871326 " moovel_rot="62.5" moovel_centroid="-510.40906384,2205.77890719" moovel_centroidlatlon="16.33441088239143,48.1647771590729"></polygon></g><g transform="translate(275.31939009999996 -1044.505643) rotate(0)"><polygon id="25699368" class="tile" points="0.0,2219.60370343 -19.4849776,2158.58871326 -54.3252785431,2170.4349017 -54.4059061725,2237.78427718 0.0,2219.60370343 " moovel_rot="83.6" moovel_centroid="-31.686486678370148,2198.93913608" moovel_centroidlatlon="16.344279821758022,48.15890230732628"></polygon></g><g transform="translate(766.0077774 -1393.7423242000002) rotate(0)"><polygon id="26227698" class="tile" points="-483.18539441,2429.76179439 -483.075012752,2486.25867139 -483.072800978,2488.99252411 -528.382631881,2492.42897602 -528.341942435,2434.30406102 -520.457612499,2425.69215284 -513.384437824,2421.77870085 -498.033261982,2422.27238108 -490.147656174,2424.94100151 -483.18539441,2429.76179439 " moovel_rot="70.2" moovel_centroid="-505.783997501,2457.69556381" moovel_centroidlatlon="16.25332470755804,48.14492393885209"></polygon></g><g transform="translate(604.2565419 -1891.3424290999997) rotate(0)"><polygon id="29972037" class="tile" points="-321.741961831,2485.06687177 -323.476681263,2472.04827843 -326.516850604,2460.95210843 -341.737596217,2428.60754648 -344.574527757,2421.77870085 -358.836269578,2428.35814728 -357.605307685,2431.73647714 -376.684853279,2436.1382745 -376.728245194,2489.39090067 -371.282098607,2489.08615249 -358.310596358,2487.97059184 -357.775712642,2492.74419421 -336.101039085,2490.71695909 -336.682266159,2486.26251501 -321.741961831,2485.06687177 " moovel_rot="-15.4" moovel_centroid="-352.17923497,2461.49382159" moovel_centroidlatlon="16.45294306627632,48.24873273169461"></polygon></g><g transform="translate(653.7761621 -1450.0646580999999) rotate(0)"><polygon id="207499625" class="tile" points="-478.258155097,2006.92741523 -478.521979946,1977.80574603 -518.90656165,1977.08066013 -527.687777895,1980.09219799 -531.666358084,1986.37951134 -531.691880311,2031.61333973 -490.361823588,2031.49429185 -484.622564907,2025.66268574 -484.913693705,2011.82808765 -478.258155097,2006.92741523 " moovel_rot="27.6" moovel_centroid="-506.136518459,2003.82363381" moovel_centroidlatlon="16.382666365720596,48.226872925355345"></polygon></g><g transform="translate(151.6649244 -1273.1603261999999) rotate(0)"><polygon id="59275891" class="tile" points="-44.027548089,1777.10446653 -60.8649973046,1779.22306411 -61.188319459,1776.62543723 -87.1820123578,1779.77125753 -92.0014490757,1780.38883067 -88.3989164061,1806.18515259 -86.1967049647,1825.93889271 -92.0498396127,1835.16899575 -78.4459966708,1843.60420294 -72.6310843498,1834.61334343 -34.5445949594,1828.80809978 -35.9546017015,1818.06832686 -56.852667907,1820.49276488 -58.3409917333,1806.33114483 -39.8231229431,1803.51354785 -44.027548089,1777.10446653 " moovel_rot="-17.0" moovel_centroid="-66.9170262376,1806.45655525" moovel_centroidlatlon="16.47655214025112,48.23758462126343"></polygon></g><g transform="translate(530.1145198 -1134.8587778) rotate(0)"><polygon id="227310126" class="tile" points="-299.331632674,1977.83487764 -251.322180735,1977.08066013 -251.394145268,2031.67131908 -298.297225388,2032.3092553 -299.331632674,1977.83487764 " moovel_rot="63.7" moovel_centroid="-275.079976766,2004.61789175" moovel_centroidlatlon="16.43845530869316,48.25314516341546"></polygon></g><g transform="translate(699.9355697999999 -1099.2462298) rotate(0)"><polygon id="136587460" class="tile" points="-476.362405469,1589.33250432 -474.075351945,1639.87777202 -478.154820446,1640.87113102 -477.567280246,1645.3138157 -503.189730396,1649.81737934 -514.031998712,1648.04929136 -519.491395904,1647.9466949 -519.504366752,1588.44871696 -514.424164473,1589.10363967 -504.326539909,1591.02184982 -491.738902703,1590.30033265 -476.362405469,1589.33250432 " moovel_rot="-33.9" moovel_centroid="-497.690992309,1618.98983277" moovel_centroidlatlon="16.457042793822005,48.243380259145304"></polygon></g><g transform="translate(56.8370161 -1957.3716067) rotate(0)"><polygon id="47851195" class="tile" points="-0.0266229076311,2514.81832809 -0.274678665865,2509.99036185 -0.344755240018,2508.12885229 -0.414831567323,2506.26734238 -0.666895325761,2496.02586927 -2.09224330382,2495.17206409 -0.770328167779,2493.1735876 -5.48324346431,2484.79311436 -9.14276189469,2490.95720578 -20.9494369081,2483.87645737 -11.0035108802,2466.76805306 -9.98003898687,2467.29953518 -7.9813030377,2463.93359571 -6.49532624055,2461.23152796 -7.34296975527,2460.56793227 -3.09048784808,2453.45415919 -2.17436518273,2453.45642049 -2.62249068073,2440.89656071 -0.84298657584,2438.023592 -0.224390774779,2435.56198944 0.0,2433.29765417 -0.46886456958,2430.21012843 -2.02034729188,2426.72046784 -3.86519401814,2424.78509034 -6.51727722483,2422.92483578 -9.7551820464,2421.95809291 -12.6430922938,2421.77870085 -15.4697549579,2422.5854243 -17.75675198,2423.75118406 -19.8880718039,2425.50499167 -21.7482336313,2428.28391503 -22.6946222045,2431.14911633 -22.9093240076,2433.86102188 -22.2858735685,2436.38512118 -23.2096333554,2437.84639887 -26.299547039,2435.95654607 -49.806995978,2475.56077635 -37.0749210123,2482.90745403 -30.8243906922,2486.5415505 -32.7320443906,2489.6294335 -33.7734128893,2491.32538331 -34.855242183,2493.078267 -33.2954640479,2494.08881356 -34.3001358055,2495.66394544 -33.2521290938,2496.31079502 -32.1711203211,2496.96885667 -31.1497795966,2495.39332947 -0.0266229076311,2514.81832809 " moovel_rot="-35.4" moovel_centroid="-20.044171421587777,2465.62550805" moovel_centroidlatlon="16.28382404120704,48.13562944731133"></polygon></g><g transform="translate(427.232259 -1388.6351421) rotate(0)"><polygon id="357474209" class="tile" points="-170.227843362,1776.7926756 -183.167849663,1776.62543723 -182.003115464,1897.96643199 -197.144618917,1898.05038248 -197.00273073,1915.2526634 -170.169934735,1914.80424961 -170.227843362,1776.7926756 " moovel_rot="-25.6" moovel_centroid="-178.100440882,1852.81781653" moovel_centroidlatlon="16.34010677820431,48.15580348108198"></polygon></g><g transform="translate(422.651617 -1770.7538163999998) rotate(0)"><polygon id="284988964" class="tile" points="-344.120458666,2194.55429984 -310.814952354,2272.08921926 -297.002935961,2266.33126301 -328.318727871,2192.18168993 -335.230307731,2194.15698409 -336.851988964,2189.90432658 -317.851174107,2182.60830594 -296.883086197,2173.64760395 -303.690701544,2158.58871326 -340.271933943,2174.17887948 -339.35711835,2178.51241839 -343.894643809,2181.06727516 -340.564257357,2190.81058359 -344.120458666,2194.55429984 " moovel_rot="82.4" moovel_centroid="-320.5391758,2210.31483621" moovel_centroidlatlon="16.368465999263094,48.24347619897756"></polygon></g><g transform="translate(284.3691014 -1343.6510404) rotate(0)"><polygon id="237477810" class="tile" points="-169.075078925,1864.29164971 -167.995075608,1848.4932144 -144.854076401,1849.48604146 -140.906659904,1807.04867239 -169.169934735,1790.41940467 -160.896436818,1776.62543723 -127.361936178,1796.12230474 -125.959547772,1805.50989813 -130.838031044,1864.98904148 -169.075078925,1864.29164971 " moovel_rot="-45.8" moovel_centroid="-143.894383285,1825.225792" moovel_centroidlatlon="16.438425880128495,48.23996383588838"></polygon></g><g transform="translate(669.9337448 -1007.9285271000001) rotate(0)"><polygon id="172283931" class="tile" points="-498.897301461,1406.89692921 -479.668884655,1408.27423397 -473.194258574,1408.73508668 -467.117416119,1409.17022005 -467.214228918,1412.99418917 -468.363482423,1432.54507946 -468.707674324,1436.73425248 -476.084911108,1436.66463771 -476.903328532,1449.52141067 -478.667216562,1450.65744453 -486.706061491,1450.01731605 -486.667573838,1445.96731248 -490.412375531,1445.63348856 -483.123412866,1457.84532281 -474.369233168,1452.83618973 -471.521897582,1453.16496019 -471.894396796,1455.00065731 -466.97672853,1455.62841203 -468.058287472,1470.42683041 -468.192351196,1472.31431738 -471.199322266,1471.94303583 -471.514492357,1473.53667715 -474.66063783,1474.9930384 -469.573609625,1483.799741 -506.316812698,1503.19081731 -511.108331718,1495.2999457 -498.060064798,1487.59800459 -488.737856017,1483.10777656 -490.650502372,1479.82816052 -488.709153792,1478.81291113 -511.125051664,1439.01198917 -510.621129238,1426.5176165 -500.25903966,1427.48229499 -499.928676194,1422.54422817 -499.348287808,1413.68431452 -499.161515073,1410.91358094 -498.897301461,1406.89692921 " moovel_rot="-28.9" moovel_centroid="-487.306985213,1448.30425587" moovel_centroidlatlon="16.33344197101212,48.16424791096202"></polygon></g><g transform="translate(498.29970130000004 -1215.3190601000001) rotate(0)"><polygon id="29201610" class="tile" points="-275.111084309,1854.27584645 -300.734362345,1855.2919857 -300.682559764,1776.76733725 -276.365014619,1776.62543723 -275.111084309,1854.27584645 " moovel_rot="-1.5" moovel_centroid="-288.243108814,1816.08263992" moovel_centroidlatlon="16.280855412923643,48.14224833906397"></polygon></g><g transform="translate(425.5602503 -2016.7939715000002) rotate(0)"><polygon id="330405187" class="tile" points="-377.751487483,2475.73937251 -377.728245194,2421.77870085 -411.038088297,2424.20577662 -417.816693376,2424.97888553 -410.788438549,2479.9981567 -377.751487483,2475.73937251 " moovel_rot="-14.9" moovel_centroid="-396.189290173,2449.71178577" moovel_centroidlatlon="16.36479616782028,48.248706205684144"></polygon></g><g transform="translate(307.0365422 -1094.1824139999999) rotate(0)"><polygon id="96087979" class="tile" points="-230.257192526,1977.08066013 -232.052016282,1981.0010752 -233.281196121,1983.49767855 -234.678045056,1984.0138553 -237.300894133,1983.993558 -237.380573034,2043.38509687 -232.683590062,2043.43684602 -227.496906352,2043.30686622 -222.880607734,2042.81940858 -221.093410431,2042.6330637 -216.036398951,2042.11117062 -211.219779714,2041.60805792 -206.505598208,2041.47161345 -206.549492956,1982.01143308 -206.572816172,1980.63530568 -208.197327586,1980.42524515 -221.19332464,1978.72806186 -222.79155545,1979.42679481 -227.473143311,1979.47058452 -228.037402745,1978.14505755 -228.807587952,1977.71977651 -230.257192526,1977.08066013 " moovel_rot="52.8" moovel_centroid="-221.940065899,2011.34262578" moovel_centroidlatlon="16.407116907406994,48.28132359127395"></polygon></g><g transform="translate(479.89591640000003 -599.2082214) rotate(0)"><polygon id="28247121" class="tile" points="-202.263766601,1375.64307756 -201.631348176,1406.62701883 -207.536743841,1406.89692921 -208.420412925,1263.0020074 -208.082140114,1201.35548953 -201.605192546,1201.0 -201.535000764,1262.11067089 -202.263766601,1375.64307756 " moovel_rot="66.4" moovel_centroid="-204.935219712,1300.1506219559847" moovel_centroidlatlon="16.40987067961031,48.18392091544764"></polygon></g><g transform="translate(380.1355026 -2291.9675829) rotate(0)"><polygon id="27893197" class="tile" points="-244.444364238,2649.79244356 -253.622183535,2656.93492132 -253.675030995,2672.49882229 -248.591769169,2672.7174818 -249.856998657,2701.65299346 -252.917250813,2701.30322843 -253.645576906,2716.87935576 -244.923520349,2726.10152067 -209.556536485,2687.74412108 -244.444364238,2649.79244356 " moovel_rot="60.1" moovel_centroid="-236.994836101,2687.69605038" moovel_centroidlatlon="16.378208157035477,48.19748663110273"></polygon></g><g transform="translate(343.82126350000004 -1229.0458388000002) rotate(0)"><polygon id="209889917" class="tile" points="-277.78264047,1588.61870078 -244.908090298,1607.56315124 -250.243876254,1615.99273634 -250.39122581,1622.35883493 -278.858884261,1622.42482264 -278.84535056,1638.33743183 -278.838754687,1660.9994028 -290.975026924,1662.22011414 -291.008586715,1595.72404455 -286.563049448,1595.5752675 -286.558632246,1594.15134028 -286.575553174,1588.6751129 -279.10338387,1588.44871696 -280.169995683,1592.83390592 -279.514770291,1592.79634639 -277.78264047,1588.61870078 " moovel_rot="45.3" moovel_centroid="-275.534427377,1618.08255248" moovel_centroidlatlon="16.386849779040492,48.16697362338344"></polygon></g><g transform="translate(447.41420860000005 -315.40048439999987) rotate(0)"><polygon id="107037325" class="tile" points="-318.185196938,1452.77456478 -322.652100513,1452.73409122 -351.731351944,1452.64684498 -355.986141881,1452.6235344 -355.95065066,1434.64921105 -355.946648395,1406.89692921 -318.28033014,1407.48360822 -318.139588557,1434.43213346 -318.185196938,1452.77456478 " moovel_rot="36.5" moovel_centroid="-337.105546514,1429.95568501" moovel_centroidlatlon="16.380185395084116,48.23833562179124"></polygon></g><g transform="translate(387.18454340000005 -813.7077758999999) rotate(0)"><polygon id="42099684" class="tile" points="-181.631834716,1204.26523667 -173.038699102,1201.0 -155.801554879,1201.75622727 -155.734508445,1267.810848 -174.16571115,1267.61552973 -173.425554807,1259.85401183 -182.85411536,1259.65729788 -181.631834716,1204.26523667 " moovel_rot="67.5" moovel_centroid="-168.574708465,1233.8198689041183" moovel_centroidlatlon="16.346977896519856,48.16626239851822"></polygon></g><g transform="translate(743.6508781 -1431.8096768999999) rotate(0)"><polygon id="29181641" class="tile" points="-528.477340689,1776.62543723 -570.390292403,1779.75380682 -570.33193285,1786.29962258 -570.009484519,1823.55320845 -543.501811828,1822.24955723 -538.593773979,1814.34845245 -528.506094797,1804.28582179 -528.477340689,1776.62543723 " moovel_rot="-9.3" moovel_centroid="-550.569049565,1799.01217568" moovel_centroidlatlon="16.52832284273497,48.24913158736146"></polygon></g><g transform="translate(68.5916213 -1633.3917993999999) rotate(0)"><polygon id="86928488" class="tile" points="-60.3973263146,1977.08750023 -60.3823157247,2034.23145283 -31.4822794242,2034.22459877 -31.4972249538,1977.08066013 -60.3973263146,1977.08750023 " moovel_rot="77.9" moovel_centroid="-45.9397871956,2005.65604227" moovel_centroidlatlon="16.28330475,48.13230890000001"></polygon></g><g transform="translate(544.1707679 -1465.2798111000002) rotate(0)"><polygon id="385378705" class="tile" points="-262.025753803,2484.97743933 -262.371510528,2489.85518063 -268.579948367,2489.46961517 -270.246761852,2484.20548944 -274.616236932,2484.27078172 -275.975916194,2488.8144755 -286.134722002,2488.52285513 -286.156441017,2423.01615822 -262.038263361,2421.77870085 -262.025753803,2484.97743933 " moovel_rot="-93.0" moovel_centroid="-274.044775203,2455.15450358" moovel_centroidlatlon="16.43479137703789,48.24732326850096"></polygon></g><g transform="translate(475.8545693 -1260.8152940999998) rotate(0)"><polygon id="112253812" class="tile" points="-243.908090298,1588.53534207 -214.513845284,1588.44871696 -214.509136237,1638.42959619 -218.974650135,1638.44190877 -220.548503523,1643.50355523 -243.905904741,1644.1316365 -243.908090298,1588.53534207 " moovel_rot="48.2" moovel_centroid="-229.437758346,1615.7074328" moovel_centroidlatlon="16.493135970124552,48.25791268125135"></polygon></g><g transform="translate(315.5061797 -1769.8095852000001) rotate(0)"><polygon id="333645548" class="tile" points="-52.3132080781,2421.92836225 -51.806995978,2503.77292044 -55.0418512419,2506.38184769 -68.732250172,2506.77603137 -68.7129340345,2421.77870085 -52.3132080781,2421.92836225 " moovel_rot="-25.6" moovel_centroid="-60.4189781878,2464.30351471" moovel_centroidlatlon="16.45284861392492,48.254338387263275"></polygon></g><g transform="translate(434.93104320000003 -883.9308162) rotate(0)"><polygon id="194350741" class="tile" points="-324.81923406,1256.38433019 -322.27337128,1256.78971436 -317.873431251,1257.48015766 -314.573225753,1255.01852668 -306.890823567,1212.77113266 -323.827150546,1208.65386038 -324.841439888,1212.03357721 -328.342028163,1210.30376419 -330.319747301,1207.22199128 -330.315026611,1201.22290093 -337.493863214,1201.0 -337.206859022,1207.10037535 -341.45565751,1206.99490524 -341.417126659,1253.75696936 -324.81923406,1256.38433019 " moovel_rot="-88.9" moovel_centroid="-326.379929638,1230.7264525867845" moovel_centroidlatlon="16.280173025507356,48.19864181127848"></polygon></g><g transform="translate(604.6890168 -1304.4493008) rotate(0)"><polygon id="160577093" class="tile" points="-477.258155097,2014.13663069 -454.693090492,1977.08066013 -448.560989212,1978.44202544 -439.991273406,1980.33967674 -439.94708789,2029.86322126 -470.157282204,2029.40614791 -473.837683055,2022.50674748 -477.258155097,2014.13663069 " moovel_rot="-95.8" moovel_centroid="-455.060085009,2006.99180982" moovel_centroidlatlon="16.368536109880655,48.23254848300285"></polygon></g><g transform="translate(330.8051886 -1674.1895086) rotate(0)"><polygon id="251576364" class="tile" points="-163.131583947,1977.08066013 -188.266251767,1977.37650949 -189.837875205,1977.15092386 -189.909783866,1979.03992224 -188.893511039,2031.44431495 -179.112480035,2031.48567561 -179.116397463,2030.33656447 -166.424466911,2030.38930358 -166.405247809,2020.70314775 -161.7897051,2020.72380789 -161.72818902,1977.15370122 -163.131583947,1977.08066013 " moovel_rot="-42.2" moovel_centroid="-176.004734363,2003.14342032" moovel_centroidlatlon="16.388902867596027,48.164963906177036"></polygon></g><g transform="translate(606.8856976999999 -1106.3117367999998) rotate(0)"><polygon id="294946057" class="tile" points="-519.274000978,1462.72620873 -535.014579322,1463.70798317 -535.101044159,1442.24092576 -545.311503724,1442.60443655 -545.309262329,1438.10577338 -549.608326735,1438.10192653 -549.581807245,1409.0806551 -534.284729432,1409.1252637 -534.284888393,1406.89692921 -521.693931899,1406.93540946 -517.918334186,1412.85280613 -517.117912581,1426.84721501 -521.323265449,1427.07499938 -519.274000978,1462.72620873 " moovel_rot="-22.0" moovel_centroid="-532.434845171,1431.35222175" moovel_centroidlatlon="16.353480658583187,48.14822316003427"></polygon></g><g transform="translate(316.28568789999997 -2267.4079915) rotate(0)"><polygon id="37186199" class="tile" points="-43.5171546137,2649.81007675 -54.1655346194,2649.79244356 -54.2386394577,2757.17720894 -49.579445521,2757.18634927 -43.5967784397,2757.19338732 -43.5171546137,2649.81007675 " moovel_rot="-13.0" moovel_centroid="-48.8795372952,2703.48831234" moovel_centroidlatlon="16.317626041856155,48.20716299831824"></polygon></g><g transform="translate(337.7108768 -2355.9143569999997) rotate(0)"><polygon id="229186974" class="tile" points="-134.855673575,2696.6430717 -134.843029393,2649.86511124 -163.631985118,2649.79244356 -163.641746925,2696.57643008 -134.855673575,2696.6430717 " moovel_rot="-65.3" moovel_centroid="-149.243417322,2673.21887287" moovel_centroidlatlon="16.382231532098004,48.29437139876141"></polygon></g><g transform="translate(195.07377830000001 -1114.4753922) rotate(0)"><polygon id="153227327" class="tile" points="-171.913040242,1452.98354068 -142.823681049,1453.36044388 -142.754449129,1406.89692921 -171.502746502,1410.427438 -174.368542211,1410.78012028 -171.913040242,1452.98354068 " moovel_rot="-91.9" moovel_centroid="-157.739239167,1430.67078214" moovel_centroidlatlon="16.43998691705656,48.29172224284497"></polygon></g><g transform="translate(282.47108829999996 -1713.0706864) rotate(0)"><polygon id="154494855" class="tile" points="-29.4822794242,1989.81800875 -24.2974066939,1986.4387704 -11.0510100201,1977.42209556 -0.00560837946832,1977.08066013 0.0,1992.23921576 -0.00121318213642,2033.61599969 -7.91158743594,2039.10585989 -20.5003747333,2035.78673447 -26.605314864,2026.09717647 -14.6938517287,2017.90510369 -16.7118859358,2015.05407578 -21.9872254299,2007.57487372 -19.1167440126,2005.25996102 -29.4822794242,1989.81800875 " moovel_rot="75.7" moovel_centroid="-11.173789532498654,2007.27706505" moovel_centroidlatlon="16.372585390944536,48.24093784013133"></polygon></g><g transform="translate(201.47143870000002 -1320.3743001) rotate(0)"><polygon id="169561667" class="tile" points="-77.9578884539,1588.44871696 -107.120021408,1588.8767922 -107.179191606,1632.52759812 -76.3458301917,1631.72631602 -77.9578884539,1588.44871696 " moovel_rot="-12.6" moovel_centroid="-92.1666031232,1610.59777508" moovel_centroidlatlon="16.369442269188244,48.16594345684066"></polygon></g><g transform="translate(252.3272063 -1901.1007679) rotate(0)"><polygon id="150277083" class="tile" points="-69.8951383072,2650.11876307 -55.5782996719,2649.79244356 -55.2386394577,2731.67646486 -69.9606067886,2731.83237532 -69.8951383072,2650.11876307 " moovel_rot="69.8" moovel_centroid="-62.6652324168,2691.0450286" moovel_centroidlatlon="16.391404280207958,48.145487814819035"></polygon></g><g transform="translate(623.0496786 -1323.5132884999998) rotate(0)"><polygon id="156583808" class="tile" points="-393.59843861,1646.97944969 -415.161917155,1646.96364803 -415.201421217,1588.44871696 -393.645517676,1588.47376451 -393.59843861,1646.97944969 " moovel_rot="-73.3" moovel_centroid="-404.402106525,1617.71810921" moovel_centroidlatlon="16.396277901422778,48.14669526730108"></polygon></g><g transform="translate(154.9666665 -2402.0507361) rotate(0)"><polygon id="275873097" class="tile" points="-22.8882113374,2649.79244356 0.0,2649.86308296 -0.0590181489475,2699.68760006 -25.3268130952,2700.2745852 -26.2231533977,2663.39243416 -22.8882113374,2649.79244356 " moovel_rot="-15.5" moovel_centroid="-12.77785558382482,2675.09434567" moovel_centroidlatlon="16.449477799118345,48.234005448311585"></polygon></g><g transform="translate(358.2741622 -1918.30751) rotate(0)"><polygon id="350390286" class="tile" points="-295.883086197,2158.58871326 -295.825422307,2208.07122863 -293.860598998,2208.71174495 -291.811651434,2209.4838351 -283.126496713,2212.21525056 -277.622404629,2214.01371386 -263.207651405,2168.29595746 -293.940273523,2159.16626322 -295.883086197,2158.58871326 " moovel_rot="72.5" moovel_centroid="-282.77033501,2185.02089649" moovel_centroidlatlon="16.39182728908136,48.16013941117757"></polygon></g><g transform="translate(774.6325601 -2198.539835) rotate(0)"><polygon id="237740088" class="tile" points="-529.382631881,2421.77870085 -529.480035492,2504.26869364 -529.803304044,2521.22242782 -539.903386924,2521.05477436 -540.461147849,2422.27142928 -529.382631881,2421.77870085 " moovel_rot="55.9" moovel_centroid="-534.819664728,2470.95490524" moovel_centroidlatlon="16.45120140776582,48.23161835280947"></polygon></g><g transform="translate(307.1402666 -1807.8626805) rotate(0)"><polygon id="99660211" class="tile" points="-139.231006807,1977.08066013 -145.750877698,1983.15688728 -145.781238185,2105.8306684 -138.062029775,2105.36862586 -139.231006807,1977.08066013 " moovel_rot="67.4" moovel_centroid="-142.169394037,2044.56637109" moovel_centroidlatlon="16.349435810415184,48.16545121258977"></polygon></g><g transform="translate(372.77292009999996 -1933.8861824000003) rotate(0)"><polygon id="118742569" class="tile" points="-345.120458666,2224.31037362 -345.399818256,2207.57586433 -348.412553418,2207.48594858 -348.457205848,2159.00265123 -363.78799702,2158.58871326 -363.90085644,2224.90925715 -345.120458666,2224.31037362 " moovel_rot="-82.4" moovel_centroid="-355.691812504,2192.99301318" moovel_centroidlatlon="16.30716749475625,48.15030461440531"></polygon></g><g transform="translate(340.91858329999997 -1798.9854891) rotate(0)"><polygon id="94437517" class="tile" points="-329.480626285,2018.75964908 -300.342297489,2017.3207821 -300.331632674,1978.57389304 -304.954503285,1977.08066013 -308.223284629,1978.10476569 -331.684836552,1985.25957138 -329.480626285,2018.75964908 " moovel_rot="-13.3" moovel_centroid="-315.027306201,1999.03879978" moovel_centroidlatlon="16.29612183427178,48.20618254776319"></polygon></g><g transform="translate(460.74057799999997 -1552.8874377) rotate(0)"><polygon id="218561899" class="tile" points="-409.089642696,1776.72912096 -409.581777857,1834.10818882 -428.252538163,1833.44048934 -428.272795757,1776.62543723 -418.929651303,1776.72344227 -409.089642696,1776.72912096 " moovel_rot="45.5" moovel_centroid="-418.782799274,1805.10989849" moovel_centroidlatlon="16.412449590411022,48.19111807114435"></polygon></g><g transform="translate(602.2649743000001 -1408.6485152999999) rotate(0)"><polygon id="227834112" class="tile" points="-527.042306506,1588.44871696 -545.604066707,1588.90107827 -545.616816502,1644.23686856 -526.491963533,1643.62963344 -527.042306506,1588.44871696 " moovel_rot="37.5" moovel_centroid="-536.19206875,1616.44195733" moovel_centroidlatlon="16.377373720777527,48.25004392601902"></polygon></g><g transform="translate(467.6297744 -1232.9878715) rotate(0)"><polygon id="208974228" class="tile" points="-369.227383072,1407.4072945 -383.1580222,1406.89692921 -383.052282676,1409.35497947 -382.395975583,1437.3448252 -387.170592509,1438.34726605 -382.298617641,1474.97558858 -369.291213497,1474.98407967 -369.242015058,1423.61969435 -369.227383072,1407.4072945 " moovel_rot="-38.4" moovel_centroid="-376.635368631,1441.57374694" moovel_centroidlatlon="16.425957980138413,48.26484383842004"></polygon></g><g transform="translate(215.835694 -2446.4062188000003) rotate(0)"><polygon id="31255693" class="tile" points="-87.7146835481,2692.38254448 -94.783484258,2691.94662065 -96.5223084795,2702.49224827 -97.3037540275,2707.20846184 -97.5898129377,2708.96194891 -105.675189423,2708.07059343 -98.5858278486,2660.63698054 -112.474943162,2660.3524541 -111.84359715,2649.79244356 -82.3937707759,2650.06741983 -82.3967293027,2662.35511102 -87.7146835481,2692.38254448 " moovel_rot="47.7" moovel_centroid="-95.3958121834,2672.75309968" moovel_centroidlatlon="16.425417526982855,48.17011530438833"></polygon></g><g transform="translate(245.73528199999998 -820.3961931) rotate(0)"><polygon id="84821121" class="tile" points="-107.421223376,1406.89692921 -122.745233386,1407.40146639 -121.443698711,1473.12716089 -107.475422472,1473.00085318 -107.469687933,1468.27121862 -107.421223376,1406.89692921 " moovel_rot="81.8" moovel_centroid="-114.76929071,1439.59739186" moovel_centroidlatlon="16.365699774744634,48.16351623159494"></polygon></g><g transform="translate(642.3343875 -1557.7768648) rotate(0)"><polygon id="165818598" class="tile" points="-468.601498696,1817.37121393 -435.427302962,1817.97975973 -434.438953285,1790.29230309 -460.565851482,1790.28750526 -460.564768818,1787.71722208 -464.529604612,1787.71771609 -464.516003378,1776.62543723 -465.730535409,1776.7278209 -467.219813245,1778.60857813 -468.598252691,1780.9968319 -468.601498696,1817.37121393 " moovel_rot="84.4" moovel_centroid="-452.56032607,1802.7602874" moovel_centroidlatlon="16.277668654224986,48.19312715884003"></polygon></g><g transform="translate(277.7556936 -1237.3929842999999) rotate(0)"><polygon id="282379970" class="tile" points="-141.426136412,1465.61366888 -141.754449129,1470.24575729 -124.230890956,1471.74065994 -123.745233386,1443.25010396 -126.520653544,1414.97020818 -131.111060322,1415.6274504 -132.306395698,1406.89692921 -136.145415835,1406.90226263 -139.303059043,1407.74815418 -137.420040164,1416.69641698 -141.739872504,1417.40979822 -139.34613727,1439.99583727 -139.015163817,1445.44711306 -138.897145503,1454.13630119 -139.707652653,1465.71890177 -141.426136412,1465.61366888 " moovel_rot="58.5" moovel_centroid="-132.382209984,1441.65729056" moovel_centroidlatlon="16.44189993248481,48.254365951859334"></polygon></g><g transform="translate(628.5908780999999 -1145.6417646) rotate(0)"><polygon id="122871754" class="tile" points="-550.354940067,1641.33838204 -547.239614794,1598.66190051 -546.616816502,1590.0973197 -567.00843295,1588.44871696 -566.994586867,1614.96028721 -566.233253924,1641.49564187 -550.354940067,1641.33838204 " moovel_rot="-65.3" moovel_centroid="-557.663754913,1614.25783893" moovel_centroidlatlon="16.360240778335427,48.18099121954141"></polygon></g><g transform="translate(711.4785678 -1472.0022521) rotate(0)"><polygon id="346893450" class="tile" points="-553.443349707,2421.9888353 -568.139087854,2421.77870085 -568.262154642,2429.60016593 -568.080218744,2430.91749695 -568.314302162,2452.13916632 -568.263235945,2452.93870918 -568.572760282,2475.02572316 -562.950431653,2475.27214144 -562.811428085,2476.02059275 -559.116874459,2484.07831127 -558.861479666,2485.33624516 -552.65429674,2485.24896281 -552.923862082,2475.38069133 -553.138491255,2467.43960065 -552.694754866,2425.67418766 -553.443349707,2421.9888353 " moovel_rot="7.0" moovel_centroid="-560.286367539,2451.4069531" moovel_centroidlatlon="16.36759796633747,48.234247682490036"></polygon></g><g transform="translate(431.77670479999995 -1983.0259548) rotate(0)"><polygon id="320883466" class="tile" points="-229.449964727,2208.53652427 -229.465357176,2158.58871326 -246.59910133,2158.59137408 -246.595768443,2161.75395906 -249.10762297,2161.75523206 -249.097306812,2189.8566641 -246.645395681,2189.85088497 -246.641047987,2201.7298977 -248.95825527,2201.7257902 -248.96085852,2208.53055766 -229.449964727,2208.53652427 " moovel_rot="-4.3" moovel_centroid="-238.931622247,2183.36011466" moovel_centroidlatlon="16.308800621443446,48.140349755280944"></polygon></g><g transform="translate(451.5926727 -1605.2763832) rotate(0)"><polygon id="408664000" class="tile" points="-233.850853207,1829.91627718 -217.743425166,1823.85533792 -228.583558176,1794.88108776 -214.257090103,1789.48816027 -219.07010716,1776.62543723 -241.608440001,1785.11310881 -244.438161502,1786.17606361 -239.356843695,1799.74667706 -244.432615618,1801.65017746 -233.850853207,1829.91627718 " moovel_rot="-88.5" moovel_centroid="-230.395825764,1802.30038254" moovel_centroidlatlon="16.2834386672233,48.185707617266765"></polygon></g><g transform="translate(684.6690108 -1412.7628176) rotate(0)"><polygon id="26581427" class="tile" points="-426.422601213,1679.67889278 -424.692392803,1626.8251344 -424.035859123,1609.15670728 -427.217612045,1591.0736422 -429.025467698,1588.56102667 -431.508807756,1588.44871696 -433.195103494,1589.22887195 -434.590403143,1591.10608237 -432.793557551,1609.29754584 -433.452533741,1626.93266656 -434.604655456,1679.7439729 -432.479637662,1680.98092955 -428.11177035,1681.10218564 -426.422601213,1679.67889278 " moovel_rot="-85.8" moovel_centroid="-429.570501832,1635.16021881" moovel_centroidlatlon="16.304720691666887,48.2144916109332"></polygon></g><g transform="translate(527.5511733999999 -874.5795213) rotate(0)"><polygon id="136909510" class="tile" points="-270.20395505,1784.0555187 -270.096523659,1784.87152744 -270.119170975,1785.44925479 -274.111084309,1785.61045755 -274.050616226,1788.03736902 -272.370561364,1790.0464587 -270.158252043,1791.83114201 -271.469147863,1794.04721081 -272.051041634,1806.21325269 -271.227828811,1808.1037538 -268.790656317,1811.0705212 -267.977020916,1814.732835 -245.438161502,1814.50465111 -245.452341128,1776.62543723 -261.154105242,1776.66929628 -261.051782649,1782.23968123 -261.034585959,1783.98916686 -270.20395505,1784.0555187 " moovel_rot="56.5" moovel_centroid="-257.770966028,1796.61934026" moovel_centroidlatlon="16.43653091705686,48.2436326688598"></polygon></g><g transform="translate(202.75599190000003 -2005.313648) rotate(0)"><polygon id="189796120" class="tile" points="-91.5820531005,2158.58871326 -91.6265134843,2203.76674469 -71.6481642159,2203.54227079 -71.8245796284,2163.00220971 -72.5625224669,2160.33037426 -74.0253326297,2158.62827145 -91.5820531005,2158.58871326 " moovel_rot="69.5" moovel_centroid="-81.720410082,2181.26046046" moovel_centroidlatlon="16.357239736462493,48.14983400421758"></polygon></g><g transform="translate(686.6861668 -1961.2102946) rotate(0)"><polygon id="306166657" class="tile" points="-407.148547225,2158.69274727 -421.084808348,2158.58871326 -421.152965009,2221.04871381 -414.865859763,2220.51328341 -409.565027891,2217.28172704 -407.149601878,2210.12122238 -407.148547225,2158.69274727 " moovel_rot="37.0" moovel_centroid="-414.291451519,2188.82785871" moovel_centroidlatlon="16.400786335819667,48.18706958596869"></polygon></g><g transform="translate(471.142245 -2511.9324143000003) rotate(0)"><polygon id="102717856" class="tile" points="-208.556536485,2649.79244356 -208.515643801,2663.53950357 -208.525854333,2668.61857168 -207.11862982,2692.62216219 -206.195549372,2704.33278695 -191.612818974,2703.82438883 -193.096876493,2681.60241999 -191.216840698,2664.26528901 -190.939126907,2650.94185398 -200.766760608,2650.34267389 -208.556536485,2649.79244356 " moovel_rot="68.9" moovel_centroid="-199.934392269,2676.12667926" moovel_centroidlatlon="16.375988467644046,48.21629645290549"></polygon></g><g transform="translate(566.7620233 -1661.2127468) rotate(0)"><polygon id="239022308" class="tile" points="-509.425915531,1836.44796498 -523.177057669,1836.4857623 -523.203439351,1776.66318326 -509.4522768,1776.62543723 -509.425915531,1836.44796498 " moovel_rot="21.7" moovel_centroid="-516.314673325,1806.55557955" moovel_centroidlatlon="16.484001049999996,48.23998725"></polygon></g><g transform="translate(440.568893 -1087.3855383999999) rotate(0)"><polygon id="245089550" class="tile" points="-373.232650925,1261.83359757 -361.097350275,1262.37700103 -361.042344779,1205.95418599 -366.312214531,1201.0 -370.679055054,1202.11793906 -375.539088366,1206.74166869 -373.232650925,1261.83359757 " moovel_rot="82.8" moovel_centroid="-367.743678029,1231.721548881286" moovel_centroidlatlon="16.28618211991344,48.15294845267865"></polygon></g><g transform="translate(213.8099248 -2304.5527221) rotate(0)"><polygon id="26573797" class="tile" points="-108.867522187,2429.63053499 -111.016985456,2426.49080363 -120.410720876,2422.0859684 -123.898827116,2421.77870085 -129.316162248,2444.65251279 -129.31562585,2456.19863606 -128.067126332,2465.92894764 -125.930855897,2473.63684263 -111.128518625,2459.96408898 -107.179636538,2455.07122132 -108.593138735,2437.37583994 -108.867522187,2429.63053499 " moovel_rot="16.4" moovel_centroid="-118.962751008,2446.19384594" moovel_centroidlatlon="16.282055311932528,48.23052636754591"></polygon></g><g transform="translate(308.14454209999997 -1474.0080899) rotate(0)"><polygon id="317692938" class="tile" points="-120.930465149,1643.17181372 -125.786288776,1643.18369825 -130.209549963,1643.191828 -135.235384251,1643.20379528 -135.226262628,1588.48066844 -120.921287199,1588.44871696 -120.930465149,1643.17181372 " moovel_rot="61.9" moovel_centroid="-128.078325324,1615.82627664" moovel_centroidlatlon="16.314385950422967,48.22121074956398"></polygon></g><g transform="translate(609.0016984 -1470.7824744) rotate(0)"><polygon id="350575542" class="tile" points="-473.041870754,1634.99339969 -473.075351945,1588.44871696 -465.947274859,1595.64609841 -454.125699809,1607.57815506 -449.891017042,1613.71951399 -449.912219913,1635.70503839 -473.041870754,1634.99339969 " moovel_rot="-91.2" moovel_centroid="-462.778093602,1617.12648014" moovel_centroidlatlon="16.379528161698126,48.15743774662797"></polygon></g><g transform="translate(484.3634224 -1872.8080369) rotate(0)"><polygon id="78488788" class="tile" points="-238.380573034,2048.89926022 -249.994944043,2039.19049895 -250.322180735,1985.60646713 -238.393485055,1977.08066013 -238.380573034,2048.89926022 " moovel_rot="-0.4" moovel_centroid="-243.987668223,2012.54707251" moovel_centroidlatlon="16.369760846576217,48.18050419328345"></polygon></g><g transform="translate(671.7252913 -1080.8923391) rotate(0)"><polygon id="29181658" class="tile" points="-479.502978714,1201.0 -479.426244754,1251.12146791 -464.720115564,1251.60941186 -463.754763277,1201.83726829 -479.502978714,1201.0 " moovel_rot="78.8" moovel_centroid="-471.856204887,1226.1061157432" moovel_centroidlatlon="16.52674159090603,48.249489931114134"></polygon></g><g transform="translate(588.8569685 -2065.9300597) rotate(0)"><polygon id="376241171" class="tile" points="-471.850804259,2214.26920726 -478.106180355,2180.56143134 -471.206746524,2158.58871326 -457.889749744,2162.77784454 -464.151260272,2180.93857336 -457.859382727,2211.42818808 -471.850804259,2214.26920726 " moovel_rot="-38.1" moovel_centroid="-468.060159642,2186.73385309" moovel_centroidlatlon="16.3874354160842,48.14798394012758"></polygon></g><g transform="translate(311.5142866 -476.6348181999999) rotate(0)"><polygon id="26288453" class="tile" points="-305.849182319,1201.0 -305.890823567,1266.84277564 -305.451067574,1268.40315197 -298.677779147,1269.07612217 -294.847055943,1264.68123944 -295.342489183,1207.25880013 -301.854349816,1201.00418254 -305.849182319,1201.0 " moovel_rot="76.6" moovel_centroid="-300.609985506,1235.7717998620512" moovel_centroidlatlon="16.218070349493097,48.207780151228604"></polygon></g><g transform="translate(362.14770530000004 -1119.8116886) rotate(0)"><polygon id="372361942" class="tile" points="-81.5113545975,1252.80629734 -99.3811675306,1252.67707658 -99.3107385619,1246.45071636 -99.2391795829,1229.0886882 -99.2783121192,1219.98284958 -99.3320480978,1201.05890762 -87.3597311949,1201.0 -86.308523142,1220.80025487 -86.320498424,1234.51468243 -92.8250966636,1234.91805583 -92.5599270319,1240.84182853 -81.5274508897,1241.10454288 -81.5113545975,1252.80629734 " moovel_rot="-53.9" moovel_centroid="-92.350223814,1228.1992301473913" moovel_centroidlatlon="16.332443389362368,48.18466397658141"></polygon></g><g transform="translate(294.3620064 -2542.6431229) rotate(0)"><polygon id="338444811" class="tile" points="-81.3914430277,2649.84917962 -81.3937707759,2713.43663978 -76.7413598889,2714.33061713 -70.9606067886,2710.45478627 -71.0795170734,2649.79244356 -81.3914430277,2649.84917962 " moovel_rot="-31.0" moovel_centroid="-76.2488180928,2681.51311855" moovel_centroidlatlon="16.369997438175016,48.243108856714635"></polygon></g><g transform="translate(314.7356126 -1896.4079947) rotate(0)"><polygon id="341306330" class="tile" points="-146.781238185,1977.13856859 -146.833043564,2025.56517487 -160.663417649,2025.4075416 -160.72818902,1977.08066013 -146.781238185,1977.13856859 " moovel_rot="-5.3" moovel_centroid="-153.749069131,2001.26416289" moovel_centroidlatlon="16.455619710956825,48.27220586383328"></polygon></g><g transform="translate(419.3938162 -1895.5293641) rotate(0)"><polygon id="163832458" class="tile" points="-349.078602873,1977.74907051 -375.8870401,1977.08066013 -375.920781376,2002.85439462 -349.035255812,2005.12135915 -349.078602873,1977.74907051 " moovel_rot="3.0" moovel_centroid="-362.346186102,1990.71504412" moovel_centroidlatlon="16.416158428709423,48.25965569325579"></polygon></g><g transform="translate(541.0077438999999 -241.790796) rotate(0)"><polygon id="345432003" class="tile" points="-411.409630209,1441.60109478 -435.952388869,1441.44398413 -435.904994087,1406.89692921 -426.034492922,1406.91379342 -426.057998316,1413.24623942 -416.75898844,1413.96376021 -416.705485362,1424.79072726 -413.292443084,1424.77502326 -413.111725564,1426.78367097 -413.292774849,1434.27332649 -409.692950473,1435.89215269 -409.770897694,1441.790999 -411.409630209,1441.60109478 " moovel_rot="-89.4" moovel_centroid="-425.306329786,1426.73302269" moovel_centroidlatlon="16.298239770218455,48.142372516333154"></polygon></g><g transform="translate(260.3853639 -1506.8813257) rotate(0)"><polygon id="193333576" class="tile" points="-157.747510695,1588.54241859 -182.299999194,1588.44871696 -182.32120968,1617.31027026 -157.768762123,1617.40402507 -157.747510695,1588.54241859 " moovel_rot="-37.6" moovel_centroid="-170.03436664,1602.92635373" moovel_centroidlatlon="16.420638549999996,48.26805885"></polygon></g><g transform="translate(587.0721891000001 -2092.7087269) rotate(0)"><polygon id="350932759" class="tile" points="-320.580801735,2421.77870085 -318.375339956,2444.55318771 -320.741961831,2466.2053528 -312.476549056,2468.11811588 -304.239134419,2470.08769366 -304.29473865,2431.52585535 -304.951200328,2425.90682441 -312.555673382,2424.61769489 -320.580801735,2421.77870085 " moovel_rot="45.4" moovel_centroid="-311.934339039,2446.45461396" moovel_centroidlatlon="16.331993458618964,48.16389599096791"></polygon></g><g transform="translate(793.8370935 -957.9272899) rotate(0)"><polygon id="149273360" class="tile" points="-512.125051664,1408.78275861 -516.117912581,1406.89692921 -516.080331179,1516.23697565 -512.882957759,1518.42112436 -512.125051664,1408.78275861 " moovel_rot="-13.0" moovel_centroid="-514.292898186,1460.5729629" moovel_centroidlatlon="16.329318298214165,48.207988408808596"></polygon></g><g transform="translate(549.0919884 -1164.6939355999998) rotate(0)"><polygon id="38232495" class="tile" points="-486.152647799,1807.85957335 -486.167660528,1776.67313095 -487.532399356,1776.67564999 -508.425915531,1776.62543723 -508.404717069,1807.80393371 -486.152647799,1807.85957335 " moovel_rot="-37.9" moovel_centroid="-497.287545525,1792.24115743" moovel_centroidlatlon="16.425228591879975,48.26611152107324"></polygon></g><g transform="translate(297.1353157 -1335.703179) rotate(0)"><polygon id="284988966" class="tile" points="-89.099332657,1406.89692921 -106.421223376,1407.88770952 -104.200670611,1450.85291512 -89.1616681131,1450.22486823 -91.0364425125,1414.02887391 -94.7633697793,1413.87566103 -94.2090901833,1412.35348654 -89.1980672949,1411.7375294 -89.099332657,1406.89692921 " moovel_rot="-26.4" moovel_centroid="-97.7153689451,1428.83365705" moovel_centroidlatlon="16.36716591179012,48.24265338239606"></polygon></g><g transform="translate(583.1521511000001 -1141.3826703) rotate(0)"><polygon id="239175879" class="tile" points="-343.058777256,1243.71454755 -342.45565751,1208.398887 -360.042344779,1201.0 -360.034875264,1243.53028166 -343.058777256,1243.71454755 " moovel_rot="-28.2" moovel_centroid="-351.658498179,1223.978792133676" moovel_centroidlatlon="16.457949501976653,48.24460479876905"></polygon></g><g transform="translate(515.7081724 -1725.5153025000002) rotate(0)"><polygon id="356963343" class="tile" points="-408.058189061,1820.48577066 -397.507008477,1811.41004446 -382.798291734,1794.93707569 -390.579537803,1779.60743218 -398.95003135,1776.62543723 -404.359005291,1779.44481425 -408.089642696,1785.9839495 -408.058189061,1820.48577066 " moovel_rot="-94.4" moovel_centroid="-398.224331049,1795.64427263" moovel_centroidlatlon="16.27181072425129,48.214490540327056"></polygon></g><g transform="translate(209.1258516 -1154.0752375) rotate(0)"><polygon id="238212370" class="tile" points="-131.941434867,1230.91305726 -131.937721066,1216.92629424 -150.597630478,1216.91232427 -150.601953153,1215.02950064 -131.942043195,1215.04347057 -131.931648526,1201.01594806 -154.724733054,1201.0 -154.734508445,1230.8971083 -152.768387764,1230.89630467 -131.941434867,1230.91305726 " moovel_rot="-85.3" moovel_centroid="-143.44606548,1215.9550922589638" moovel_centroidlatlon="16.472447510018423,48.235634674889546"></polygon></g><g transform="translate(268.5643255 -1141.5863012) rotate(0)"><polygon id="305674874" class="tile" points="-130.923898522,1201.0300565 -119.829174643,1201.0 -119.836969854,1254.9565433 -130.931648526,1254.98663041 -130.923898522,1201.0300565 " moovel_rot="55.9" moovel_centroid="-125.38042341,1227.9932892307593" moovel_centroidlatlon="16.39577765,48.30319345"></polygon></g><g transform="translate(371.1168743 -2364.1571049) rotate(0)"><polygon id="76167659" class="tile" points="-198.179206853,2421.80063245 -186.854912303,2421.77870085 -186.807534528,2473.60435682 -198.141692517,2473.6248495 -198.179206853,2421.80063245 " moovel_rot="81.7" moovel_centroid="-192.495806922,2447.70589438" moovel_centroidlatlon="16.361353405725445,48.16710401926133"></polygon></g><g transform="translate(827.053529 -2322.7023832) rotate(0)"><polygon id="291596699" class="tile" points="-576.07166529,2493.35482924 -569.572760282,2493.45623079 -569.862207508,2478.61895906 -569.630874423,2421.77870085 -576.000765471,2422.07909728 -576.07166529,2493.35482924 " moovel_rot="-87.3" moovel_centroid="-572.885099532,2457.63568776" moovel_centroidlatlon="16.431210643036504,48.222364479445005"></polygon></g><g transform="translate(545.7552713 -468.9378908000001) rotate(0)"><polygon id="379908701" class="tile" points="-480.502978714,1228.17059838 -480.517008097,1201.0 -490.511803615,1201.29432127 -490.775344592,1207.24448315 -505.303202623,1208.23927672 -505.324494322,1228.19098452 -494.067463548,1228.39730774 -480.502978714,1228.17059838 " moovel_rot="51.2" moovel_centroid="-492.030369983,1216.4446490912865" moovel_centroidlatlon="16.337176623197948,48.145474437092396"></polygon></g><g transform="translate(507.8896356 -2108.9574004) rotate(0)"><polygon id="274331303" class="tile" points="-250.10762297,2203.03703712 -262.171592555,2203.02405463 -262.207651405,2158.58871326 -250.143652718,2158.60168641 -250.10762297,2203.03703712 " moovel_rot="-72.2" moovel_centroid="-256.157629707,2180.81286392" moovel_centroidlatlon="16.358592699999996,48.16903945"></polygon></g><g transform="translate(460.0273982 -1170.2447391) rotate(0)"><polygon id="250559286" class="tile" points="-198.742042083,1776.8027045 -198.584607068,1787.5081608 -202.057177784,1787.51761385 -202.044958772,1789.80694293 -198.465267836,1789.78302914 -198.433565559,1797.25103462 -202.394425703,1797.28159313 -202.53384351,1807.68543314 -198.144618917,1808.02835541 -198.526744849,1815.07050056 -213.257090103,1815.07608799 -213.238359048,1776.62543723 -198.742042083,1776.8027045 " moovel_rot="63.9" moovel_centroid="-206.410319015,1795.5484527" moovel_centroidlatlon="16.300354149335547,48.15353096834516"></polygon></g><g transform="translate(301.0609788 -1547.9688342) rotate(0)"><polygon id="236019835" class="tile" points="-198.459612267,1624.63015531 -198.45366696,1619.11065355 -198.423913799,1588.91037074 -198.421270737,1588.47922313 -213.495770152,1588.44871696 -213.490407798,1590.25236689 -213.505830507,1621.80613826 -213.509136237,1624.29180893 -198.459612267,1624.63015531 " moovel_rot="-18.4" moovel_centroid="-205.959178549,1606.45890694" moovel_centroidlatlon="16.453981617542375,48.23889497258464"></polygon></g><g transform="translate(820.3598417 -1937.2454265000001) rotate(0)"><polygon id="202588311" class="tile" points="-557.592315664,2013.49292031 -542.737158397,2013.38696377 -543.02480652,1977.09776991 -557.56421715,1977.08066013 -557.592315664,2013.49292031 " moovel_rot="40.2" moovel_centroid="-550.233506082,1995.32975871" moovel_centroidlatlon="16.39489722432367,48.17951425152662"></polygon></g><g transform="translate(276.1299479 -1562.6220447) rotate(0)"><polygon id="99660220" class="tile" points="-108.250957941,1588.82471389 -108.179191606,1638.35504247 -119.921287199,1637.77436428 -116.264389662,1588.44871696 -108.250957941,1588.82471389 " moovel_rot="67.1" moovel_centroid="-113.209957084,1614.905935" moovel_centroidlatlon="16.35139630096291,48.166476305355914"></polygon></g><g transform="translate(711.7529115 -1167.771366) rotate(0)"><polygon id="375270706" class="tile" points="-506.361603188,1201.37220109 -506.324494322,1234.11264947 -522.483207982,1233.86746338 -522.433948028,1203.46034037 -519.634331436,1201.0 -506.361603188,1201.37220109 " moovel_rot="18.4" moovel_centroid="-514.360396565,1217.6902493635557" moovel_centroidlatlon="16.450339851848213,48.276562286514014"></polygon></g><g transform="translate(363.389751 -1958.8666077999999) rotate(0)"><polygon id="237830219" class="tile" points="-122.701391108,2016.34579028 -137.062029775,2014.51251141 -136.80604114,1977.08066013 -122.740582506,1981.75303735 -122.701391108,2016.34579028 " moovel_rot="-50.9" moovel_centroid="-129.923225286,1997.46161605" moovel_centroidlatlon="16.43070080503226,48.23808936345797"></polygon></g><g transform="translate(671.479458 -1057.2536863999999) rotate(0)"><polygon id="239022303" class="tile" points="-390.260540239,2186.44527587 -391.721031253,2174.19374167 -390.250550117,2161.94116006 -404.242832624,2158.58871326 -406.148547225,2174.7331342 -403.802332032,2190.81191696 -401.361925461,2199.63301771 -393.985200631,2197.49899204 -391.807476222,2196.87017093 -394.355142842,2188.03202411 -390.260540239,2186.44527587 " moovel_rot="38.4" moovel_centroid="-398.255896025,2178.00662814" moovel_centroidlatlon="16.480652335285544,48.239966310971866"></polygon></g><g transform="translate(751.9062291 -1967.4609203999998) rotate(0)"><polygon id="236107570" class="tile" points="-532.762841526,2025.15917424 -532.727698692,1999.78626409 -532.691880311,1977.08066013 -541.737158397,1977.25351043 -541.528265326,1999.60544118 -541.291635066,2024.95174355 -532.762841526,2025.15917424 " moovel_rot="-32.9" moovel_centroid="-537.116517762,2000.87606925" moovel_centroidlatlon="16.44745280772755,48.229178299157724"></polygon></g><g transform="translate(413.486003 -1390.9888778000002) rotate(0)"><polygon id="77937486" class="tile" points="-388.170592509,1435.23480946 -388.171895296,1431.5623824 -388.178172337,1409.66842925 -395.407307269,1408.39969843 -404.028527479,1406.89692921 -408.692950473,1431.4601651 -404.785414971,1432.18437313 -398.915247328,1433.25655299 -388.170592509,1435.23480946 " moovel_rot="-85.3" moovel_centroid="-397.308248811,1421.35423795" moovel_centroidlatlon="16.37614012986918,48.18106100161749"></polygon></g><g transform="translate(139.15150110000002 -1764.5799891) rotate(0)"><polygon id="174301263" class="tile" points="-93.0498396127,1777.68131438 -97.9661547117,1777.35157093 -108.851757181,1776.62543723 -108.771709845,1802.22518166 -108.816487253,1805.49927054 -105.426915948,1805.63677801 -105.4304487,1809.23631814 -98.9256972013,1809.55724137 -98.552788061,1802.97722633 -98.4493610324,1801.70204032 -93.7126034999,1801.92120109 -93.0498396127,1777.68131438 " moovel_rot="-20.7" moovel_centroid="-101.419327687,1791.64620817" moovel_centroidlatlon="16.328175312995715,48.22280690745569"></polygon></g><g transform="translate(175.7240991 -1462.6690993000002) rotate(0)"><polygon id="295624635" class="tile" points="-91.5400372523,2454.97005604 -101.903223228,2457.27287263 -106.179636538,2457.76521894 -106.166420983,2428.78272126 -106.019167046,2422.91529902 -94.8542234854,2421.77870085 -91.5400372523,2454.97005604 " moovel_rot="-44.5" moovel_centroid="-99.6793647365,2440.20835683" moovel_centroidlatlon="16.209722626240374,48.22458405922778"></polygon></g><g transform="translate(596.4369333 -2145.8194911) rotate(0)"><polygon id="29547603" class="tile" points="-529.378282673,2158.58871326 -529.420057876,2187.75928802 -544.981998036,2186.65253464 -545.371710427,2160.24038012 -529.378282673,2158.58871326 " moovel_rot="80.7" moovel_centroid="-537.158290511,2173.24211788" moovel_centroidlatlon="16.36347592981522,48.16878097811058"></polygon></g><g transform="translate(597.5223298999999 -1766.829553) rotate(0)"><polygon id="105257852" class="tile" points="-475.593001019,1780.8434848 -474.81925805,1783.02933839 -471.093934602,1783.01452412 -469.623355075,1784.32379595 -469.601498696,1817.00624854 -470.476316708,1815.90671379 -477.632859389,1806.95316549 -485.152647799,1802.71666612 -482.670390196,1778.15744468 -477.254116772,1776.62543723 -475.593001019,1780.8434848 " moovel_rot="-83.7" moovel_centroid="-476.546102151,1794.95639372" moovel_centroidlatlon="16.30828484456311,48.17030070239257"></polygon></g><g transform="translate(438.3644916 -1570.9827631) rotate(0)"><polygon id="239022316" class="tile" points="-292.008586715,1619.30837069 -292.028770044,1588.44871696 -298.746601063,1588.46610175 -305.46552928,1588.47354826 -305.443672303,1617.5223596 -303.8001787,1619.32258998 -292.008586715,1619.30837069 " moovel_rot="6.3" moovel_centroid="-298.713920444,1603.83631954" moovel_centroidlatlon="16.480441265905235,48.239099967805956"></polygon></g><g transform="translate(328.4291029 -1927.6535368999998) rotate(0)"><polygon id="240894518" class="tile" points="-101.36047179,2158.58871326 -115.534415836,2158.65107981 -115.534276494,2159.81957309 -115.549804659,2187.57602975 -109.714655519,2187.59419238 -108.459687044,2187.59274283 -101.328308166,2187.61132303 -101.36047179,2158.58871326 " moovel_rot="-16.6" moovel_centroid="-108.439174357,2173.1153122" moovel_centroidlatlon="16.484968530058868,48.23524382991177"></polygon></g><g transform="translate(398.4261085 -556.7106696) rotate(0)"><polygon id="330715519" class="tile" points="-183.85411536,1201.0 -183.873549799,1229.30383109 -196.540012209,1230.65213415 -200.535000764,1203.38615726 -183.85411536,1201.0 " moovel_rot="17.4" moovel_centroid="-191.223424667,1215.4432607106744" moovel_centroidlatlon="16.443770149510488,48.27074186889028"></polygon></g><g transform="translate(316.31218690000003 -2150.5427760000002) rotate(0)"><polygon id="255959672" class="tile" points="-56.4059061725,2158.58871326 -70.6239732113,2158.61815236 -70.6481642159,2186.54529431 -56.4301206894,2186.51582554 -56.4059061725,2158.58871326 " moovel_rot="38.4" moovel_centroid="-63.5270423296,2172.56699252" moovel_centroidlatlon="16.39745945,48.1797298"></polygon></g><g transform="translate(298.1434298 -2417.1469180999998) rotate(0)"><polygon id="172948497" class="tile" points="-213.013942616,2447.87807654 -213.069723782,2453.35756762 -225.952706412,2454.11608283 -226.102381904,2450.09228931 -226.092742077,2431.13467392 -225.466719164,2422.44757811 -214.721283597,2421.77870085 -213.013942616,2447.87807654 " moovel_rot="54.9" moovel_centroid="-219.850979337,2438.4123723" moovel_centroidlatlon="16.427552511675934,48.16636823942013"></polygon></g><g transform="translate(214.40219280000002 -1770.2444946) rotate(0)"><polygon id="307944035" class="tile" points="-124.806156542,1776.62543723 -109.856477864,1776.96344687 -109.851757181,1780.76774544 -109.976105975,1796.30695997 -109.866158625,1805.47049826 -120.543905927,1805.73806544 -120.641981538,1803.97015914 -120.761088284,1801.79732963 -121.353077626,1790.43113223 -124.959547772,1790.49000004 -124.806156542,1776.62543723 " moovel_rot="75.8" moovel_centroid="-116.537338767,1790.05801574" moovel_centroidlatlon="16.308643097604897,48.127144521886635"></polygon></g><g transform="translate(247.9710083 -291.2612505999999) rotate(0)"><polygon id="153919617" class="tile" points="-80.5043694127,1201.00355601 -80.5113545975,1223.2135099 -63.5501159914,1223.20995296 -63.5431225566,1201.0 -67.9370536366,1201.00355343 -80.5043694127,1201.00355601 " moovel_rot="83.5" moovel_centroid="-72.0273216338,1212.107411876143" moovel_centroidlatlon="16.279185709923965,48.191642000059254"></polygon></g><g transform="translate(395.9168779 -2151.1432791) rotate(0)"><polygon id="350390283" class="tile" points="-131.033437136,2185.47208542 -130.846761144,2158.58871326 -116.578590311,2162.53429437 -116.549804659,2186.07845278 -131.033437136,2185.47208542 " moovel_rot="-90.1" moovel_centroid="-123.912440841,2173.1729724" moovel_centroidlatlon="16.391243627150992,48.15756611935409"></polygon></g><g transform="translate(601.2643507 -1186.2557941999999) rotate(0)"><polygon id="32496775" class="tile" points="-566.648636936,2158.58871326 -550.795044044,2159.33876797 -546.371710427,2172.53284152 -546.666899374,2178.97977038 -566.64074566,2178.5066976 -566.648636936,2158.58871326 " moovel_rot="-36.1" moovel_centroid="-557.252175238,2169.28155923" moovel_centroidlatlon="16.42258220360126,48.27464718356642"></polygon></g><g transform="translate(362.1315144 -1450.3405789) rotate(0)"><polygon id="329133646" class="tile" points="-236.582990537,2421.77870085 -237.016144903,2423.98158294 -238.060951625,2432.76866814 -245.657211197,2432.56834857 -246.475164719,2441.86191554 -243.985627978,2446.10076142 -238.57041864,2446.21160607 -227.102381904,2443.97666321 -227.1180785,2422.30919165 -236.582990537,2421.77870085 " moovel_rot="3.7" moovel_centroid="-235.358392369,2435.42165917" moovel_centroidlatlon="16.358852885115187,48.25433258557997"></polygon></g><g transform="translate(485.09949620000003 -1758.9056094) rotate(0)"><polygon id="130644459" class="tile" points="-301.734362345,1777.47822471 -302.102309374,1791.64078719 -303.790442052,1805.14118458 -304.025569502,1811.5344846 -309.196563646,1811.39645462 -312.182512505,1811.31896661 -312.208082749,1776.62543723 -308.984320047,1776.88917498 -301.734362345,1777.47822471 " moovel_rot="-24.7" moovel_centroid="-307.425096242,1793.41424235" moovel_centroidlatlon="16.30903140588504,48.13136925877935"></polygon></g><g transform="translate(361.44470509999996 -1130.7282086) rotate(0)"><polygon id="337962666" class="tile" points="-156.717536874,1588.44871696 -148.374816369,1594.87407797 -139.752325591,1604.29170689 -138.363533705,1607.99864593 -136.235384251,1609.2944048 -151.951697015,1616.4210786 -156.747510695,1616.94873299 -156.717536874,1588.44871696 " moovel_rot="-90" moovel_centroid="-149.638110891,1604.73776696" moovel_centroidlatlon="16.28934672164633,48.202193355966244"></polygon></g><g transform="translate(371.4088365 -1323.5907579) rotate(0)"><polygon id="206870400" class="tile" points="-197.414578372,1588.46513935 -197.421270737,1611.13584465 -190.261351981,1611.16333571 -183.32120968,1611.1215795 -183.324248046,1588.44871696 -189.776085687,1588.45505964 -197.414578372,1588.46513935 " moovel_rot="77.5" moovel_centroid="-190.37018209,1599.80251802" moovel_centroidlatlon="16.285043191303455,48.14580740254948"></polygon></g><g transform="translate(233.4022126 -1695.2614331999998) rotate(0)"><polygon id="123154356" class="tile" points="-212.013942616,2450.96485098 -199.214051272,2450.97505262 -199.179206853,2447.29956958 -199.617411706,2438.74690996 -199.666237848,2425.29891392 -199.672359527,2421.77870085 -209.444525425,2421.92710856 -209.360478774,2423.39332097 -206.334079163,2423.29649771 -206.835479234,2438.79071606 -212.011102936,2438.98848037 -212.013942616,2450.96485098 " moovel_rot="-56.5" moovel_centroid="-204.606274813,2438.40522687" moovel_centroidlatlon="16.358097691527355,48.18948703980043"></polygon></g><g transform="translate(170.3163427 -1460.0657266) rotate(0)"><polygon id="194340042" class="tile" points="-92.6265134843,2203.5690991 -96.0597353633,2205.76919861 -100.073811574,2200.39612346 -100.328308166,2196.30247041 -100.046587922,2186.9975328 -98.9243914038,2173.16244446 -97.5072845319,2158.58871326 -92.6369581694,2159.2801557 -95.3087313768,2194.93226453 -95.9889910892,2197.40573928 -92.6265134843,2203.5690991 " moovel_rot="-80.7" moovel_centroid="-96.6523660884,2181.82340712" moovel_centroidlatlon="16.420385435865022,48.29595931693856"></polygon></g><g transform="translate(507.55422480000004 -430.39287009999987) rotate(0)"><polygon id="202880393" class="tile" points="-376.539146486,1257.47588492 -376.539088366,1201.0 -379.790468382,1201.00126552 -379.78057726,1257.47809092 -376.539146486,1257.47588492 " moovel_rot="84.6" moovel_centroid="-378.16232591,1229.2243868954329" moovel_centroidlatlon="16.31148458509256,48.19672258864"></polygon></g><g transform="translate(456.3920385 -1023.4923712) rotate(0)"><polygon id="308953988" class="tile" points="-178.547746777,1467.68187944 -178.624254162,1406.89692921 -175.368542211,1406.93571881 -176.582440542,1467.7216611 -178.547746777,1467.68187944 " moovel_rot="-77.4" moovel_centroid="-177.257250272,1434.8055046" moovel_centroidlatlon="16.36212475321814,48.227899042665854"></polygon></g><g transform="translate(428.51329869999995 -947.8010635) rotate(0)"><polygon id="154286392" class="tile" points="-190.459366716,1440.73203009 -194.346507397,1440.75109336 -198.287287338,1440.77507501 -198.32966763,1406.89692921 -194.319853867,1406.92140602 -190.465228433,1406.94143706 -190.459366716,1440.73203009 " moovel_rot="73.4" moovel_centroid="-194.387089942,1423.82313673" moovel_centroidlatlon="16.326551692510307,48.24235115410447"></polygon></g><g transform="translate(568.4130449 -2149.6883818) rotate(0)"><polygon id="75804804" class="tile" points="-364.90085644,2177.90647992 -364.909970603,2159.85122609 -364.913510222,2159.32348907 -364.907553464,2158.83594609 -364.914520259,2158.58871326 -380.05559964,2158.59743124 -380.042018163,2177.92187657 -372.531358684,2177.91344613 -364.90085644,2177.90647992 " moovel_rot="-90.7" moovel_centroid="-372.4777344,2168.25305212" moovel_centroidlatlon="16.369768733675162,48.17881745507858"></polygon></g><g transform="translate(477.1543716 -1859.2899493999998) rotate(0)"><polygon id="135299279" class="tile" points="-287.156441017,2438.47662447 -302.489941755,2440.24660437 -303.239134419,2423.54200158 -287.156441017,2421.77870085 -287.156441017,2438.47662447 " moovel_rot="-90" moovel_centroid="-295.019083989,2430.94558256" moovel_centroidlatlon="16.31453015416898,48.19180968896301"></polygon></g><g transform="translate(178.8226463 -1469.1416961) rotate(0)"><polygon id="142104349" class="tile" points="-28.2350946865,2649.81836384 -42.5171546137,2649.79244356 -42.5052041963,2667.55596056 -35.6075379001,2667.56840441 -28.2231533977,2667.58189876 -28.2350946865,2649.81836384 " moovel_rot="-27.0" moovel_centroid="-35.3701503465,2658.68714492" moovel_centroidlatlon="16.429072500140684,48.25294930018832"></polygon></g><g transform="translate(330.6191957 -1568.4607649999998) rotate(0)"><polygon id="330715517" class="tile" points="-247.475164719,2440.79220528 -247.500999749,2422.22217715 -260.939255511,2421.77870085 -261.025753803,2439.74451773 -247.475164719,2440.79220528 " moovel_rot="-80.4" moovel_centroid="-254.198506127,2431.14921846" moovel_centroidlatlon="16.444099039384668,48.2700943128502"></polygon></g><g transform="translate(304.4314418 -1562.9744867) rotate(0)"><polygon id="26583505" class="tile" points="-190.936971094,1998.32423875 -195.925224941,2001.45495802 -205.505598208,1982.44048088 -190.909783866,1977.08066013 -190.936971094,1998.32423875 " moovel_rot="-87.0" moovel_centroid="-196.264178963,1988.28148617" moovel_centroidlatlon="16.27208552749139,48.19973271275786"></polygon></g><g transform="translate(373.0112645 -912.9660245) rotate(0)"><polygon id="251555422" class="tile" points="-199.32966763,1406.89692921 -213.198314774,1417.92738299 -199.338703897,1435.86688302 -199.32966763,1406.89692921 " moovel_rot="51.6" moovel_centroid="-203.9555621,1420.23039841" moovel_centroidlatlon="16.40490426666667,48.211359699999996"></polygon></g><g transform="translate(298.3284332 -1919.7995049) rotate(0)"><polygon id="250706116" class="tile" points="-165.068872231,2649.87400065 -164.641746925,2659.23668722 -164.663857509,2666.61421688 -168.42958663,2666.67752795 -170.577017998,2664.89716645 -179.447601313,2662.10533888 -179.440248964,2649.79244356 -165.068872231,2649.87400065 " moovel_rot="-18.7" moovel_centroid="-171.672906385,2657.35567154" moovel_centroidlatlon="16.371060442028455,48.13863036428846"></polygon></g><g transform="translate(375.5853242 -937.3229120999999) rotate(0)"><polygon id="324747782" class="tile" points="-356.999110019,1409.6245002 -356.986141881,1426.72002673 -368.212585263,1426.70847141 -368.227383072,1406.89692921 -365.607020904,1406.90242618 -365.60171672,1409.60909917 -364.489436296,1409.607464 -356.999110019,1409.6245002 " moovel_rot="-20.4" moovel_centroid="-362.759884311,1417.81034829" moovel_centroidlatlon="16.353720720198066,48.1474530065606"></polygon></g><g transform="translate(395.2303651 -1491.955023) rotate(0)"><polygon id="120248121" class="tile" points="-389.239348922,2167.26751848 -389.250550117,2183.44667203 -388.354020454,2183.55581174 -381.05559964,2183.37045846 -381.063590021,2158.58871326 -387.35469688,2158.66543269 -387.251249729,2167.31316764 -389.239348922,2167.26751848 " moovel_rot="-52.9" moovel_centroid="-384.87449447,2171.77677638" moovel_centroidlatlon="16.358389333456856,48.185822922171894"></polygon></g><g transform="translate(496.6662101 -977.7854737000002) rotate(0)"><polygon id="107252044" class="tile" points="-216.068364964,2158.62822154 -223.064271394,2158.58871326 -223.646372416,2163.4940882 -228.039780656,2163.80198368 -228.266263871,2168.6972248 -228.449964727,2172.93928153 -223.881228273,2172.74844257 -223.980733988,2177.78558705 -216.96609848,2177.69667538 -216.064373249,2177.69313745 -216.068364964,2158.62822154 " moovel_rot="37.8" moovel_centroid="-221.235907301,2168.31905635" moovel_centroidlatlon="16.389075159690424,48.23538608971796"></polygon></g><g transform="translate(636.0500651 -1942.4950447) rotate(0)"><polygon id="292455807" class="tile" points="-541.598975725,2421.77870085 -541.461147849,2439.29648255 -543.077718953,2439.25083948 -543.076445567,2441.01126576 -551.65429674,2440.91078816 -551.625155489,2421.98913016 -550.655528226,2421.99965419 -541.598975725,2421.77870085 " moovel_rot="-17.4" moovel_centroid="-546.62975773,2431.33353224" moovel_centroidlatlon="16.30966679479919,48.231142647709035"></polygon></g><g transform="translate(699.9213063 -1221.3021144) rotate(0)"><polygon id="108759913" class="tile" points="-455.726686765,1406.89692921 -454.75196253,1425.2925718 -460.263641208,1425.93133099 -465.97672853,1426.19155996 -465.970634833,1413.88133877 -464.283683495,1413.78018941 -462.961360397,1411.68184949 -455.726686765,1406.89692921 " moovel_rot="39.7" moovel_centroid="-460.196378961,1418.09130062" moovel_centroidlatlon="16.38995024640704,48.23355620679236"></polygon></g><g transform="translate(440.6135068 -1126.4573040999999) rotate(0)"><polygon id="25851806" class="tile" points="-307.54914638,1589.30868254 -316.58997486,1588.44871696 -316.584162805,1596.20473526 -315.808437192,1607.53508295 -311.623217155,1608.81614143 -309.309169556,1609.09242761 -308.013022741,1598.73049125 -306.46552928,1590.76894264 -307.54914638,1589.30868254 " moovel_rot="-68.4" moovel_centroid="-312.085916126,1597.97434046" moovel_centroidlatlon="16.294558973880946,48.24258141201846"></polygon></g><g transform="translate(354.9727738 -653.594639) rotate(0)"><polygon id="275871559" class="tile" points="-189.458636787,1407.35280567 -189.459366716,1424.3971252 -179.624254162,1424.14902479 -180.111467232,1406.89692921 -189.458636787,1407.35280567 " moovel_rot="69.1" moovel_centroid="-184.651893348,1415.77080898" moovel_centroidlatlon="16.442195268178644,48.24377526091273"></polygon></g><g transform="translate(747.1789144 -1132.0702959) rotate(0)"><polygon id="307952785" class="tile" points="-583.775440057,1588.44871696 -583.785649129,1613.89605445 -572.190601904,1603.61045354 -583.775440057,1588.44871696 " moovel_rot="11.1" moovel_centroid="-579.917230363,1601.98507498" moovel_centroidlatlon="16.306810233333334,48.12285519999999"></polygon></g><g transform="translate(600.225043 -1583.3104278) rotate(0)"><polygon id="307612257" class="tile" points="-442.730730361,1588.44871696 -435.604655456,1600.48248732 -448.884431323,1608.39979936 -448.891017042,1599.8084959 -448.752314795,1591.75233557 -442.730730361,1588.44871696 " moovel_rot="23.5" moovel_centroid="-443.810497106,1598.19834329" moovel_centroidlatlon="16.30499823102968,48.12626899450894"></polygon></g><g transform="translate(577.7580524 -365.31251539999994) rotate(0)"><polygon id="294394637" class="tile" points="-380.794123317,1201.29494909 -380.912384322,1205.0497874 -380.790468382,1206.9899192 -381.258681667,1219.11986308 -383.637630351,1219.03617805 -388.975317307,1218.85149604 -388.973800442,1218.49584304 -388.877292709,1212.27486671 -387.396628977,1212.24197342 -387.293802505,1206.38746898 -390.009498542,1206.34965723 -390.043441891,1204.41180761 -391.561459716,1204.2738496 -391.378656173,1201.0 -383.796207614,1201.15112022 -380.794123317,1201.29494909 " moovel_rot="-54.1" moovel_centroid="-385.117837876,1209.5312904332777" moovel_centroidlatlon="16.36182636902678,48.19178259081061"></polygon></g><g transform="translate(227.940789 -363.28361599999994) rotate(0)"><polygon id="226261643" class="tile" points="-83.7113769589,1406.89692921 -83.7150764374,1411.35575103 -88.0961289316,1411.3350342 -88.099332657,1421.23107816 -74.5237570222,1421.26500591 -74.5189543316,1412.02814963 -80.5516016845,1412.00349457 -80.5483527567,1406.89744067 -83.7113769589,1406.89692921 " moovel_rot="-28.3" moovel_centroid="-81.492328466,1415.72695021" moovel_centroidlatlon="16.46592717194685,48.21600903355448"></polygon></g><g transform="translate(431.37816039999996 -1269.174595) rotate(0)"><polygon id="308938895" class="tile" points="-416.201421217,1607.20097821 -423.035859123,1607.88257803 -423.022535242,1588.58875612 -416.214444121,1588.44871696 -416.201421217,1607.20097821 " moovel_rot="29.2" moovel_centroid="-419.63470026,1598.03735107" moovel_centroidlatlon="16.359917537696393,48.232944466788744"></polygon></g><g transform="translate(335.9427035 -857.1222685) rotate(0)"><polygon id="292146434" class="tile" points="-283.118682323,1201.00758734 -293.847055943,1201.0 -293.845181457,1212.74956082 -283.119610599,1212.76673286 -283.118682323,1201.00758734 " moovel_rot="-16.3" moovel_centroid="-288.481903432,1206.880715126925" moovel_centroidlatlon="16.292214490600376,48.14171492950146"></polygon></g><g transform="translate(226.6650015 -2289.1605742) rotate(0)"><polygon id="222906603" class="tile" points="-180.447601313,2649.79440869 -180.451816788,2672.99837214 -184.560099443,2672.99652326 -184.562562124,2649.79244356 -180.447601313,2649.79440869 " moovel_rot="-1.0" moovel_centroid="-182.505521469,2661.39229621" moovel_centroidlatlon="16.244755375843955,48.137983331468874"></polygon></g><g transform="translate(178.23494839999998 -2603.1744670999997) rotate(0)"><polygon id="316678607" class="tile" points="-131.596356933,2649.80238652 -133.818114583,2649.79244356 -133.843029393,2679.74676641 -131.621275338,2679.75671438 -131.596356933,2649.80238652 " moovel_rot="-35.7" moovel_centroid="-132.719694027,2664.77457368" moovel_centroidlatlon="16.416255649999997,48.183751"></polygon></g><g transform="translate(452.08023990000004 -876.328278) rotate(0)"><polygon id="156487386" class="tile" points="-436.952388869,1420.25354552 -445.120925511,1420.27640166 -445.127738675,1406.92622726 -436.966825009,1406.89692921 -436.952388869,1420.25354552 " moovel_rot="49.8" moovel_centroid="-441.041639216,1413.5893131" moovel_centroidlatlon="16.469859408678055,48.20036231576443"></polygon></g><g transform="translate(571.0733594 -1389.5608329) rotate(0)"><polygon id="338320020" class="tile" points="-525.332711421,1607.6994911 -525.491963533,1588.92896241 -520.504366752,1588.44871696 -520.514048243,1608.42226208 -525.332711421,1607.6994911 " moovel_rot="-76.3" moovel_centroid="-522.93552861,1598.31833264" moovel_centroidlatlon="16.257561357685166,48.138129804935005"></polygon></g><g transform="translate(532.6409412 -1258.3274681999999) rotate(0)"><polygon id="101617609" class="tile" points="-427.134144038,2162.30728603 -427.137372305,2180.85151734 -422.152965009,2176.04171572 -422.634605347,2158.58871326 -427.134144038,2162.30728603 " moovel_rot="43.4" moovel_centroid="-424.776912765,2169.61617689" moovel_centroidlatlon="16.420652044230877,48.21464395574406"></polygon></g><g transform="translate(147.2137181 -1832.9804143000001) rotate(0)"><polygon id="206811786" class="tile" points="-90.2062368089,2439.94953595 -84.9727571713,2439.72392674 -84.9688594997,2421.77870085 -88.7424666053,2421.91225045 -90.5400372523,2434.21846906 -90.2062368089,2439.94953595 " moovel_rot="4.0" moovel_centroid="-87.4546234345,2431.38393093" moovel_centroidlatlon="16.3551376575993,48.25005952217923"></polygon></g><g transform="translate(234.08401859999998 -1652.2174884) rotate(0)"><polygon id="327494016" class="tile" points="-185.76290265,2649.79244356 -185.562562124,2667.40619517 -189.939126907,2668.88149573 -189.931996166,2649.84647345 -185.76290265,2649.79244356 " moovel_rot="80.5" moovel_centroid="-187.825612835,2659.06321261" moovel_centroidlatlon="16.30737999478469,48.15972175162929"></polygon></g><g transform="translate(340.2507818 -270.852884) rotate(0)"><polygon id="356696427" class="tile" points="-229.425112665,1216.58276554 -230.298393697,1219.96803395 -234.805811871,1218.7896384 -232.181578049,1208.67490142 -234.801514865,1204.87234064 -233.890911712,1201.0 -227.679986034,1209.67716621 -229.425112665,1216.58276554 " moovel_rot="82.1" moovel_centroid="-231.464166803,1211.6135571502882" moovel_centroidlatlon="16.458370803470494,48.209216546764125"></polygon></g><g transform="translate(511.5750794 -1063.5846134) rotate(0)"><polygon id="100953625" class="tile" points="-446.138383219,1407.02467966 -453.663424011,1406.89692921 -453.75196253,1417.94685535 -446.127738675,1417.99348655 -446.138383219,1407.02467966 " moovel_rot="-12.0" moovel_centroid="-449.925135702,1412.47741131" moovel_centroidlatlon="16.32463788257447,48.231834673438016"></polygon></g><g transform="translate(579.6811071999999 -1291.0496061) rotate(0)"><polygon id="351541092" class="tile" points="-571.190601904,1605.38283246 -568.021655548,1605.39550095 -568.00843295,1588.451555 -571.179183528,1588.44871696 -571.190601904,1605.38283246 " moovel_rot="-10.4" moovel_centroid="-569.599814532,1596.91885145" moovel_centroidlatlon="16.38269204989483,48.20982998314977"></polygon></g><g transform="translate(198.07536140000002 -166.30713519999995) rotate(0)"><polygon id="119059893" class="tile" points="-105.589359285,1201.0 -100.381167531,1201.40095279 -100.701595245,1207.65583076 -101.024320256,1213.75819506 -105.581971798,1213.41854364 -105.589359285,1201.0 " moovel_rot="-66.0" moovel_centroid="-103.139794499,1207.2569757272029" moovel_centroidlatlon="16.353602503068505,48.189370225008076"></polygon></g><g transform="translate(289.9986164 -1401.6705508999999) rotate(0)"><polygon id="397836603" class="tile" points="-271.470772249,1414.10579342 -264.715259529,1414.49187188 -264.562984781,1407.07694337 -271.474338961,1406.89692921 -271.470772249,1414.10579342 " moovel_rot="78.1" moovel_centroid="-268.039155423,1410.62986626" moovel_centroidlatlon="16.53085688277719,48.24609928859321"></polygon></g><g transform="translate(554.9149518999999 -1147.8486532000002) rotate(0)"><polygon id="351451017" class="tile" points="-527.470584003,1785.8620168 -524.257770603,1785.97527328 -524.203439351,1776.69844643 -527.477340689,1776.62543723 -527.470584003,1785.8620168 " moovel_rot="-9.7" moovel_centroid="-525.851020114,1781.27582532" moovel_centroidlatlon="16.382635867850407,48.209617769846446"></polygon></g></g><g transform="translate(0 1327.7)"><polygon id="4" class="bin" points="440.154351342,1207.499999 442.806001771,1206.40164943 443.904351342,1203.749999 443.904351342,3.75 442.806001771,1.09834957055 440.154351342,0.0 158.403315927,0.0 155.750553367,1.09946216792 154.653317247,3.75314624037 154.689919419,47.3792142367 155.753581773,49.9925727526 158.338024792,51.1246834413 187.808360204,51.9257338498 191.774436769,53.6637998592 193.404973665,57.6752816553 193.42863558,165.905990637 191.70460753,170.008557954 187.566841128,171.646306566 163.010830385,171.126657644 160.316957459,172.187563827 159.181574236,174.8509035 152.345648658,1203.72508424 153.435121346,1206.39282605 156.095565892,1207.499999 440.154351342,1207.499999 " moovel_rot="0" moovel_centroid="301.4470428737214,611.9006114605415" moovel_centroidlatlon="0,0" transform="translate(-152.3456421 0)"></polygon><g transform="translate(436.5448348133415 -677.6224623999999) rotate(0)"><polygon id="203348088" class="tile" points="-431.106924339,1776.62543723 -433.380350162,1778.35333468 -433.438953285,1877.85202728 -429.272795757,1875.25197885 -431.106924339,1776.62543723 " moovel_rot="53.7" moovel_centroid="-431.755272257,1831.86360832" moovel_centroidlatlon="16.31304476707427,48.20097351964671"></polygon></g><g transform="translate(499.89029020000004 -1018.1639940999999) rotate(0)"><polygon id="225525854" class="tile" points="-479.117379254,2161.27704344 -480.696594252,2174.77143273 -480.783156987,2187.14005596 -480.499403526,2200.1025107 -479.106180355,2216.99738434 -485.72349276,2218.20469359 -486.522808017,2213.32394667 -487.586788055,2200.36156189 -488.190057386,2185.1622352 -487.823104916,2173.20574995 -485.199337234,2158.58871326 -479.117379254,2161.27704344 " moovel_rot="53.8" moovel_centroid="-483.799640962,2188.85692702" moovel_centroidlatlon="16.392755316444028,48.212262711161145"></polygon></g><g transform="translate(129.9846605 -110.63756639999997) rotate(0)"><polygon id="25904403" class="tile" points="-118.829174643,1248.20447486 -118.813319293,1201.0 -113.384978493,1208.24429583 -106.589359285,1214.56013316 -110.181971645,1222.0739514 -115.893569829,1239.69500616 -118.829174643,1248.20447486 " moovel_rot="-30.2" moovel_centroid="-114.950804109,1221.337211879868" moovel_centroidlatlon="16.39615615647795,48.25358318137283"></polygon></g><g transform="translate(347.930982 -624.6358717) rotate(0)"><polygon id="318263756" class="tile" points="-323.363492705,1808.62406547 -313.208082749,1805.52101138 -314.491232479,1776.62543723 -323.226237444,1777.03282761 -323.303154321,1780.9455709 -323.353029737,1799.07898049 -323.363492705,1808.62406547 " moovel_rot="13.0" moovel_centroid="-318.645616927,1792.34426852" moovel_centroidlatlon="16.25460774520893,48.18149500182813"></polygon></g><g transform="translate(248.59674890000002 -82.37772070000005) rotate(0)"><polygon id="152175348" class="tile" points="-209.420412925,1218.7812286 -226.679986034,1220.80979009 -226.654706304,1202.86494531 -209.560329971,1201.0 -209.420412925,1218.7812286 " moovel_rot="-70.8" moovel_centroid="-218.090419245,1210.8796629405533" moovel_centroidlatlon="16.28364141031208,48.20658176415139"></polygon></g><g transform="translate(376.1687547 -882.2964187) rotate(0)"><polygon id="155143304" class="tile" points="-346.241701062,1996.29731102 -333.266407131,1995.81821557 -332.684836552,1977.52454275 -348.035255812,1977.08066013 -348.002930272,1996.22523163 -346.241701062,1996.29731102 " moovel_rot="63.5" moovel_centroid="-340.559479245,1986.62710725" moovel_centroidlatlon="16.263353070319265,48.194226488084084"></polygon></g><g transform="translate(454.6280478 -1354.6018462999998) rotate(0)"><polygon id="270801722" class="tile" points="-436.049844159,2446.56897197 -418.816693376,2442.54296982 -421.081948183,2431.3344473 -428.850473183,2421.77870085 -436.028510041,2427.3055662 -430.435061753,2435.6607125 -436.049844159,2446.56897197 " moovel_rot="-65.4" moovel_centroid="-427.480439594,2434.96875087" moovel_centroidlatlon="16.285021204902502,48.17311408788404"></polygon></g><g transform="translate(122.91731770000001 -1261.4506462000002) rotate(0)"><polygon id="199960047" class="tile" points="-80.1681244461,2421.77870085 -83.9597465296,2425.83601307 -79.2087783342,2429.91974414 -75.0405481003,2435.17967925 -75.7508924433,2443.5693896 -83.4296840088,2442.78012393 -83.9688594997,2449.04088698 -71.1066116452,2450.35054112 -69.732250172,2433.91780813 -80.1681244461,2421.77870085 " moovel_rot="-9.8" moovel_centroid="-76.1180840511,2438.55688547" moovel_centroidlatlon="16.407723690991,48.174953137075114"></polygon></g></g></svg>