<svg xmlns="http://www.w3.org/2000/svg" version="1.1" width="592.5px" height="1200px">
  <polygon id="0" class="bin" points="187.811522471,806.268985306 189.223290986,809.42482616 191.212168503,811.358403247 193.064392486,812.125087417 194.73906592,816.21375814 194.619522432,835.961004888 194.619474398,835.996158727 194.677328769,853.417936523 194.80693722,885.107460293 194.807020306,885.121420854 195.017742843,912.092173299 193.207197745,916.314412965 188.773057945,917.882366874 186.963208557,919.250180074 186.273239952,921.411293464 186.245297546,937.421096539 186.241822305,937.627994023 185.79698852,951.591832788 182.448271114,957.20922363 178.587056041,959.458615583 176.990190067,960.135426238 159.140254263,965.157741121 156.562596209,967.694980291 156.187608765,968.951236551 153.397650617,971.129624238 148.699978253,972.865848385 146.922860316,974.240002837 146.2500005,976.383296631 146.2500005,1007.05627382 147.110238083,1009.44620544 149.296279526,1010.73965227 197.003436031,1019.85425374 200.708063962,1022.31676178 201.541234801,1026.68643458 164.067216661,1202.9702568 164.820933082,1206.10992193 167.735254357,1207.5 446.2499995,1207.5 448.901649929,1206.40165043 449.9999995,1203.75 449.9999995,3.75 448.901649929,1.09834957055 446.2499995,0.0 150.0000005,0.0 147.348350071,1.09834957055 146.2500005,3.75 146.2500005,6.76362630577 147.174110709,9.22875244621 229.492711018,103.59442746 230.895998903,107.755861543 228.950556334,111.693119946 191.535275922,144.494928465 191.484616266,144.538906278 179.218308064,155.082822855 177.921723453,157.667686797 178.849857934,160.406522249 207.409187536,192.800722927 210.052114044,194.066948571 212.798858514,193.045291718 213.016388493,192.839557177 217.22203976,191.276906607 221.26620674,193.21960906 224.114750532,196.459639367 225.529700239,200.66168141 223.529707338,204.61886076 203.527613254,221.688028612 198.792459295,223.309753058 193.216864346,223.050210909 191.093881615,222.919548782 188.95366803,224.760386613 188.703742041,227.572278344 189.193228787,229.170177618 188.85033112,231.883932577 186.56156366,236.170444114 178.840352046,242.882819981 175.435301811,244.293936224 171.866412521,243.372716712 161.978552976,236.95996932 160.602918235,235.783438987 152.791737188,227.073759016 150.135801286,225.829957195 147.396805631,226.878261198 146.2500005,229.577497474 146.2500005,263.276716613 147.611046635,266.167287393 202.916026176,311.874884507 205.370046646,317.336642867 204.516006939,341.339141707 204.513998912,341.420273263 202.366311288,495.65223104 203.452803408,498.344551375 206.13558263,499.454393509 208.359361412,499.442749724 212.44098381,501.114775526 214.133979906,505.187744456 214.118958,667.040427016 213.66767444,669.486696304 210.668545738,677.340922948 210.461188902,678.136751087 208.892924994,688.875438371 206.950599863,692.415747824 203.567439305,693.671626229 201.94046435,694.849311793 199.823816522,697.503842274 196.555135512,698.521010636 196.068433208,698.522812048 193.485020097,699.567870393 192.335990462,702.106748324 191.154713628,728.759941026 191.151677167,728.856637224 191.127409168,730.16882389 191.409720382,731.667179641 192.656389171,734.691824841 192.609294106,761.675282513 190.87359298,765.77778053 187.971703419,766.915174736 186.233214498,768.306706958 185.590291757,770.438691012 185.870603561,803.163009004 186.53635543,805.264139738 187.811522471,806.268985306 " moovel_rot="0" moovel_centroid="320.5786819662019,609.7092569668655" moovel_centroidlatlon="0,0"/>
  <polygon id="407074514" class="tile" points="-83.7541015845,1307.6057031 -79.558395182,1307.61070909 -79.5772722673,1323.60889981 -83.587882765,1323.61145391 -83.5942983475,1330.26752641 -1.04269032255,1330.17013691 -1.0368380677,1323.91347974 -5.03189262822,1323.91523136 -5.01523662992,1307.25254915 -1.01804882586,1307.26101247 -1.0,1201.10791391 -77.8219282009,1201.0 -77.8644917767,1233.60296039 -69.0991051055,1233.62097958 -69.1353038296,1261.50283416 -83.6947452433,1261.48396911 -83.7350450728,1293.34286828 -83.7353741083,1295.05072647 -83.7541015845,1307.6057031 " moovel_rot="-28.0" moovel_centroid="-40.243502912017505,1266.6295820468936" moovel_centroidlatlon="-118.27394246884137,34.02615975345115"/>
  <polygon id="402080669" class="tile" points="-94.1682860531,1235.30390237 -94.1742564771,1227.85317376 -94.1614307079,1227.70058123 -94.121860398,1227.55592417 -94.0555735718,1227.41117385 -93.9691652842,1227.29043978 -93.8560124535,1227.17764118 -93.7360964172,1227.08890546 -93.5960589204,1227.02418599 -93.4425790872,1226.98350609 -93.2889871512,1226.97494112 -86.6965469416,1226.99207323 -86.2958272405,1226.98264561 -86.2298686955,1219.09007057 -89.3688910566,1219.14920091 -89.7710400678,1218.74916268 -89.7727496363,1218.25940939 -89.3732630674,1217.89671707 -86.1933812138,1218.06225164 -86.1968003519,1217.08274491 -85.5222083494,1217.08039013 -85.720593394,1211.91050634 -89.5750672512,1211.74732638 -89.8433254063,1211.43513768 -89.7111441176,1211.03323383 -89.1713678215,1210.67808027 -84.7631428439,1210.6626926 -84.7541015845,1203.68558699 -84.7698890902,1201.07626272 -88.2233069409,1201.0 -88.2532644071,1203.89852287 -105.859924245,1203.82349137 -105.786328679,1224.90698254 -104.577546503,1224.86261892 -104.627801685,1235.34041312 -94.1682860531,1235.30390237 " moovel_rot="0.2" moovel_centroid="-96.2173597093,1217.4696635116918" moovel_centroidlatlon="-118.3088978536407,34.098473016341885"/>
  <polygon id="282406514" class="tile" points="-106.913788942,1291.09387111 -106.859924245,1201.10881134 -131.478377535,1201.0 -131.493863485,1232.18077779 -117.222652858,1232.24472289 -117.227722821,1246.59285545 -139.667223058,1246.49437 -139.669857391,1266.06456663 -130.647416962,1268.50721896 -130.654411999,1290.99027873 -106.913788942,1291.09387111 " moovel_rot="-60.7" moovel_centroid="-119.870445689,1247.2144121464137" moovel_centroidlatlon="-118.19394605272365,34.10975731034529"/>
  <polygon id="312564361" class="tile" points="-154.262693662,1202.41815912 -144.229586695,1201.0 -140.669857391,1223.10159429 -141.303934468,1238.20063821 -145.733798954,1239.58854742 -152.95173372,1241.84034254 -154.271303385,1234.41834526 -149.932004467,1233.09996545 -150.054269812,1232.2380231 -154.262693662,1202.41815912 " moovel_rot="16.9" moovel_centroid="-147.193888749,1221.2519610154015" moovel_centroidlatlon="-118.4972306912856,34.2134704014151"/>
  <polygon id="207073682" class="tile" points="-155.335044955,1212.64801175 -162.689352239,1201.0 -172.486557406,1207.20785528 -171.099820678,1210.27500964 -174.862841913,1212.55086073 -187.794493629,1259.22794009 -169.639592688,1289.30314666 -158.343926021,1282.51735906 -155.271303385,1279.86749365 -163.478499467,1265.28237953 -166.514823766,1267.00083106 -179.433500769,1246.1565067 -172.697979904,1222.75045941 -155.335044955,1212.64801175 " moovel_rot="27.4" moovel_centroid="-171.964502486,1250.5447348115167" moovel_centroidlatlon="-118.23950554438392,34.027557885428756"/>
  <polygon id="401659000" class="tile" points="-204.247705308,1201.97850386 -204.247854999,1209.67301176 -204.249479653,1211.51647929 -204.129065872,1211.51710978 -204.15394376,1220.86794493 -202.138984499,1220.87181606 -202.149755841,1222.92897205 -200.793163275,1222.94943374 -191.416792175,1222.97181171 -191.397840516,1216.28597068 -188.820945199,1216.29278413 -188.794493629,1206.64139048 -191.475747745,1206.6340306 -191.495837543,1212.00405125 -192.49928755,1211.99879715 -192.511753478,1215.91277883 -198.660961795,1215.89393988 -198.648953583,1209.0010054 -200.358865454,1208.9987315 -200.341121844,1201.01042824 -203.608385165,1201.0 -203.613526033,1201.98182445 -204.247705308,1201.97850386 " moovel_rot="-90.3" moovel_centroid="-197.956714067,1214.3074291387677" moovel_centroidlatlon="-118.28723649199004,34.087087469059526"/>
  <polygon id="392710803" class="tile" points="-216.269070148,1215.69513122 -216.267915911,1201.26510016 -205.280292037,1201.0 -205.32751671,1201.93418526 -205.249479653,1215.44875197 -207.114504093,1215.5385294 -216.269070148,1215.69513122 " moovel_rot="-56.0" moovel_centroid="-210.775682233,1208.3727187318163" moovel_centroidlatlon="-118.41315590383401,34.02741431434293"/>
  <polygon id="381644000" class="tile" points="-269.029674446,1201.0 -217.269070148,1253.86255945 -269.849899701,1304.95896316 -278.368056496,1296.09070868 -271.756753586,1288.962828 -253.739635845,1271.13351489 -249.927150096,1274.75583767 -232.253843576,1257.50100111 -258.943167958,1229.8366948 -278.399048709,1210.03824671 -269.029674446,1201.0 " moovel_rot="44.5" moovel_centroid="-250.487340975,1252.144612012016" moovel_centroidlatlon="-118.59329209848529,34.178333563507586"/>
  <polygon id="371736190" class="tile" points="-296.331429623,1201.0 -280.07123484,1209.21481707 -279.399048709,1210.97713854 -287.741880678,1226.05445971 -291.427826536,1251.4296144 -291.894429241,1309.00909154 -296.292767259,1309.08516648 -296.331429623,1201.0 " moovel_rot="77.2" moovel_centroid="-292.069783363,1243.8687425996563" moovel_centroidlatlon="-118.34453965806209,34.27280780079668"/>
  <polygon id="308823660" class="tile" points="-297.331429623,1238.04960411 -297.338724397,1201.0 -313.034368273,1201.03204138 -313.288285117,1234.63426125 -311.987191916,1237.17690279 -311.001241078,1237.90837833 -297.331429623,1238.04960411 " moovel_rot="-90.2" moovel_centroid="-305.209674298,1219.458625705783" moovel_centroidlatlon="-118.4048360707578,34.1796236632637"/>
  <polygon id="384737930" class="tile" points="-353.165490014,1254.22273303 -357.245874903,1246.61211793 -356.259924831,1209.76281608 -326.323534956,1201.0 -314.364530978,1201.28485822 -314.395520343,1211.7039146 -314.288285117,1254.07288776 -353.165490014,1254.22273303 " moovel_rot="27.4" moovel_centroid="-334.753844519,1229.0456011291349" moovel_centroidlatlon="-118.42331940546508,33.97801422048581"/>
  <polygon id="342868798" class="tile" points="-379.877754137,1229.65151926 -368.844100722,1201.0 -366.728604153,1202.34471113 -368.370270265,1206.30226975 -367.583082222,1206.87516447 -369.312995115,1209.74148471 -358.257903453,1217.23540891 -365.687350928,1234.69510687 -363.83668904,1235.50255912 -358.245874903,1237.7909353 -359.605720382,1243.02860079 -370.924266192,1235.58698024 -379.877754137,1229.65151926 " moovel_rot="57.1" moovel_centroid="-368.567339482,1223.7203724560277" moovel_centroidlatlon="-118.46064803916369,34.15323769725598"/>
  <polygon id="41418250" class="tile" points="-381.316565258,1215.17358152 -380.938646942,1201.0 -425.218690382,1215.48856816 -453.376571968,1227.31594499 -470.708548289,1238.56908293 -476.636213319,1242.87221365 -428.515566536,1323.4435029 -397.863022473,1358.12355996 -386.386124827,1338.10053997 -380.877754137,1245.63338252 -382.192040502,1248.24240752 -384.152428555,1248.89091984 -386.500138487,1248.83593028 -388.548567211,1247.67176269 -398.260590384,1237.83918652 -406.012239016,1227.35809428 -406.650619127,1225.39972299 -406.038388001,1223.19208887 -403.778711179,1221.43440062 -385.31765977,1214.66006783 -382.962221157,1214.71720075 -381.316565258,1215.17358152 " moovel_rot="74.5" moovel_centroid="-418.644579443,1273.02887609825" moovel_centroidlatlon="-118.42660964575157,33.98235179794514"/>
  <polygon id="194778010" class="tile" points="-498.991646729,1201.45330244 -501.824111915,1233.30538175 -477.636213319,1234.57357633 -482.594704467,1278.26135491 -529.616903245,1276.25907003 -529.597324046,1206.12276032 -520.94765998,1202.30687988 -514.888820244,1201.0 -498.991646729,1201.45330244 " moovel_rot="53.3" moovel_centroid="-507.675357113,1243.954693544736" moovel_centroidlatlon="-118.23490030948419,34.06058295308848"/>
  <polygon id="347015098" class="tile" points="-530.637115047,1233.51177737 -535.793532646,1233.51562654 -541.016796425,1233.5119049 -540.996640734,1201.0 -535.486179668,1201.00171679 -530.616903245,1201.00790997 -530.637115047,1233.51177737 " moovel_rot="0.4" moovel_centroid="-535.817073168,1217.2582078727607" moovel_centroidlatlon="-118.45109014683415,34.18737467116354"/>
  <polygon id="402081434" class="tile" points="-559.999531413,1203.93958519 -559.365625219,1206.77551848 -558.21597119,1206.68305016 -559.130790397,1209.05084003 -559.590574578,1209.13716299 -557.070321683,1220.10594357 -556.126053631,1221.26852864 -555.562566483,1221.89109226 -555.053557506,1222.14746147 -554.512929279,1222.33095915 -553.947200112,1222.44304234 -552.210605312,1222.12889665 -552.173345692,1222.32620488 -542.027635648,1219.61419462 -542.089797938,1219.06053206 -545.246382135,1204.54074858 -544.633660674,1204.40378911 -544.749720869,1203.85394737 -542.016796425,1203.25129187 -542.506331787,1201.0 -558.223443969,1204.4144849 -558.407311817,1203.59190743 -559.999531413,1203.93958519 " moovel_rot="12.6" moovel_centroid="-550.862710676,1212.0154229867117" moovel_centroidlatlon="-118.30531812539678,34.083769290080646"/>
  <polygon id="319038838" class="tile" points="-574.649548496,1217.6727093 -574.653309643,1211.17356046 -575.86698388,1211.17291142 -575.869030337,1201.0 -560.999531413,1201.00459014 -561.019023203,1217.56336324 -574.649548496,1217.6727093 " moovel_rot="-89.4" moovel_centroid="-568.222368585,1209.1413862035586" moovel_centroidlatlon="-118.44743878437336,34.185059776067106"/>
  <polygon id="257708807" class="tile" points="-580.40541996,1201.00254507 -580.40077715,1209.63110201 -576.872394883,1209.6279408 -576.869030337,1201.0 -580.40541996,1201.00254507 " moovel_rot="-94.4" moovel_centroid="-578.636926944,1205.3137670922877" moovel_centroidlatlon="-118.20889282569301,34.12538557317781"/>
  <polygon id="306072932" class="tile" points="-581.40541996,1201.13445899 -585.537968235,1201.0 -585.534902693,1207.96734189 -581.678164298,1208.47942065 -581.40541996,1201.13445899 " moovel_rot="-5.2" moovel_centroid="-583.519783217,1204.6067572661705" moovel_centroidlatlon="-118.37480578591715,34.019634900438206"/>
  <polygon id="401896503" class="tile" points="-11.5767979335,1393.56827351 -0.296032236144,1393.66595582 0.0,1358.50237215 -0.0200360130519,1358.50212735 -11.0524157982,1358.30310221 -12.0074657489,1358.29143349 -21.804487573,1358.12355996 -21.7890743606,1393.49167493 -11.5767979335,1393.56827351 " moovel_rot="-0.7" moovel_centroid="-10.982351396347852,1375.90055229" moovel_centroidlatlon="-118.29109176770486,34.09480983816595"/>
  <polygon id="427817670" class="tile" points="-50.3706886295,1358.20837905 -50.3627063319,1425.34722278 -23.804487573,1425.35876529 -23.8179722033,1358.12355996 -36.3093415134,1358.15549975 -38.3266922489,1358.16294903 -50.3706886295,1358.20837905 " moovel_rot="-0.7" moovel_centroid="-37.0857768459,1391.75862559" moovel_centroidlatlon="-118.23845782255115,34.04450891115493"/>
  <polygon id="402081423" class="tile" points="-61.9273524139,1358.20578268 -61.7520372346,1380.44025531 -54.0132538173,1380.3724222 -53.5374003801,1379.89235184 -53.3051851775,1376.55636035 -51.3774543766,1376.62632285 -51.3706886295,1358.12355996 -61.9273524139,1358.20578268 " moovel_rot="-89.3" moovel_centroid="-56.7539689225,1368.92203429" moovel_centroidlatlon="-118.29577227718062,34.09066850578186"/>
  <polygon id="421150809" class="tile" points="-84.5995517697,1358.33556069 -84.602891833,1390.29053463 -74.7601309601,1389.88022738 -74.6482370231,1383.43436482 -62.9273524139,1383.35159016 -64.2421094302,1363.61777491 -69.5156011846,1363.04455231 -69.4208386216,1358.12355996 -84.5995517697,1358.33556069 " moovel_rot="42.8" moovel_centroid="-75.1501053927,1373.28986905" moovel_centroidlatlon="-118.25073828210421,34.040831121401474"/>
  <polygon id="318886268" class="tile" points="-96.9451548018,1387.79214879 -100.934477606,1387.86007596 -101.211464783,1372.33256232 -102.872989617,1372.36420014 -102.99041942,1365.89274705 -102.988457418,1358.12466998 -85.6083508927,1358.12355996 -85.602891833,1365.8047539 -85.6068984631,1372.13010948 -96.299880239,1372.13128913 -97.2309621442,1372.15114808 -96.9451548018,1387.79214879 " moovel_rot="-89.6" moovel_centroid="-95.2751430452,1368.16723362" moovel_centroidlatlon="-118.31600895905355,34.08569260958463"/>
  <polygon id="428916348" class="tile" points="-178.695577649,1358.32785392 -140.328654654,1358.22342421 -103.99041942,1358.12355996 -104.118687832,1460.29101929 -139.504281459,1460.39164387 -177.668099976,1460.49729351 -177.65787048,1452.08195116 -142.437218116,1451.9789374 -142.337496663,1369.14924045 -178.713640247,1369.25042051 -178.695577649,1358.32785392 " moovel_rot="60.1" moovel_centroid="-128.803080757,1408.35859955" moovel_centroidlatlon="-118.46169240838022,33.99889966029264"/>
  <polygon id="259008694" class="tile" points="-179.713640247,1358.30683155 -185.365851843,1358.12355996 -185.348890432,1379.19274934 -179.997051967,1379.22924443 -179.928419078,1376.33330486 -179.713640247,1358.30683155 " moovel_rot="80.2" moovel_centroid="-182.601577574,1368.62432875" moovel_centroidlatlon="-118.2331827217991,34.05097827957808"/>
  <polygon id="121263786" class="tile" points="-186.365851843,1405.3849289 -191.541054336,1408.99809323 -228.029183768,1436.0916671 -230.364587839,1437.96314456 -238.048124154,1426.28797466 -209.917765949,1405.94315284 -215.052496295,1399.64683536 -217.638298253,1399.57150459 -238.063470574,1371.08190052 -220.242176041,1358.12355996 -186.365851843,1405.3849289 " moovel_rot="48.9" moovel_centroid="-214.550672901,1396.96579329" moovel_centroidlatlon="-118.47126588712078,34.05299355025665"/>
  <polygon id="402081014" class="tile" points="-240.487748899,1381.55984801 -264.159526005,1358.12355996 -266.652428439,1360.45972231 -249.687977132,1377.13595883 -253.260277336,1380.5092507 -251.198185434,1382.61488644 -252.163124819,1383.51173495 -253.206373276,1382.46567407 -253.394388314,1382.69282585 -254.413913015,1381.72591073 -258.95047139,1385.90339134 -256.144198588,1388.95922169 -257.830765558,1390.56106388 -260.739383325,1387.41469171 -265.245790606,1391.58426573 -262.374950309,1394.51645578 -263.501737202,1395.54467 -259.890302229,1399.44221993 -258.906022248,1398.43359076 -257.230728256,1400.09643905 -258.17484616,1400.99494149 -255.84202015,1403.27145104 -255.965709127,1406.39844199 -256.282177478,1406.78021505 -255.993062401,1407.12767781 -262.15969133,1413.25143923 -262.347202088,1412.93780078 -266.60153073,1417.29737332 -265.040756426,1418.95112352 -249.726328995,1403.60270191 -249.636511379,1402.87842776 -244.378784757,1397.74352897 -243.809779746,1397.80417765 -240.149706418,1393.98459011 -243.438226449,1390.56081139 -241.077820426,1388.14201347 -241.25594257,1387.96819135 -240.359154354,1387.21015088 -240.474812243,1387.04129035 -239.063470574,1385.72148182 -241.715340641,1382.76033206 -240.487748899,1381.55984801 " moovel_rot="45.7" moovel_centroid="-252.505233617,1388.93537803" moovel_centroidlatlon="-118.30520890663888,34.09458116766483"/>
  <polygon id="393127863" class="tile" points="-267.688924491,1380.5789437 -279.407652759,1380.77551616 -279.984344319,1358.45611584 -267.652428439,1358.12355996 -267.688924491,1380.5789437 " moovel_rot="-56.3" moovel_centroid="-273.679006383,1369.38805379" moovel_centroidlatlon="-118.39883664670961,34.022985180325406"/>
  <polygon id="94576183" class="tile" points="-280.984344319,1362.13686494 -281.016494847,1372.75054971 -285.497780687,1372.81312433 -285.29601251,1380.56550499 -294.43099279,1380.78137133 -294.444666497,1379.80212781 -294.450103689,1360.27771031 -292.240259607,1358.27994988 -282.294712847,1358.22938478 -281.04038427,1358.12355996 -280.984344319,1362.13686494 " moovel_rot="0.8" moovel_centroid="-288.269299405,1368.60118859" moovel_centroidlatlon="-118.32635158953799,34.08373754645466"/>
  <polygon id="207072949" class="tile" points="-295.450747497,1369.71728869 -304.026762623,1369.69274778 -304.025364935,1359.19923651 -304.026120048,1358.12355996 -295.450103689,1358.14809692 -295.450747497,1369.71728869 " moovel_rot="-17.3" moovel_centroid="-299.738229513,1363.92049836" moovel_centroidlatlon="-118.24062240324743,34.0251630998606"/>
  <polygon id="442088903" class="tile" points="-340.442454963,1360.13074039 -340.446476255,1358.12355996 -305.072037966,1358.2050856 -305.026762623,1386.81917891 -328.331936131,1386.76550171 -328.291228602,1411.02065794 -341.57149441,1410.98773 -341.615757564,1382.76623353 -340.410598285,1382.76807389 -340.442454963,1360.13074039 " moovel_rot="-28.3" moovel_centroid="-325.740066417,1378.86645817" moovel_centroidlatlon="-118.26683479963637,34.05252738465595"/>
  <polygon id="253218923" class="tile" points="-342.615757564,1475.53644565 -354.778534663,1475.54159691 -354.796450976,1358.12355996 -342.633659846,1358.12644751 -342.615757564,1475.53644565 " moovel_rot="0.1" moovel_centroid="-348.706170158,1416.83200221" moovel_centroidlatlon="-118.40499054896132,34.199268525129554"/>
  <polygon id="402081417" class="tile" points="-366.116881873,1360.25509753 -368.785320352,1363.09832797 -369.099547657,1363.01111586 -369.116501632,1358.15417976 -372.736673487,1358.14273231 -372.691834787,1359.50735169 -374.313003917,1358.13217858 -374.767184673,1358.13376397 -375.919591407,1359.02087697 -374.573023179,1360.18024996 -375.997228504,1361.65436204 -374.783934598,1362.90250877 -375.9481303,1364.23923518 -374.640880222,1365.61550283 -375.938462337,1367.00889089 -374.765271228,1368.24914853 -375.969457635,1369.61009771 -372.557254794,1373.18673792 -372.690052726,1373.41198761 -376.156716711,1373.36789206 -376.116396706,1358.13044554 -376.443702039,1358.12355996 -376.457914232,1382.75375793 -376.184069953,1382.75280203 -376.171589128,1378.67450023 -372.491501276,1378.62954196 -374.365067414,1381.48604617 -372.925635923,1382.46044562 -372.566672375,1381.9694806 -371.088539242,1382.5503697 -370.730360335,1381.83462158 -369.251946972,1382.49579037 -368.673048564,1381.86758051 -367.234681949,1382.53691715 -366.749459482,1381.86086589 -366.133830694,1382.18786763 -365.491429344,1382.53083203 -363.352743734,1379.0873538 -363.084962079,1379.26303658 -363.253164589,1382.73977673 -355.859200918,1382.76213522 -355.804907894,1379.18142781 -355.809083324,1377.98525998 -355.804944644,1375.3440098 -357.058705638,1373.9836136 -355.847615914,1372.68686583 -357.067588945,1371.43874424 -355.904009747,1369.92540366 -357.117780041,1368.54078252 -355.86644741,1367.29206173 -357.260386044,1365.95623747 -355.969286897,1364.61906844 -357.363701925,1363.14676781 -355.931416314,1362.07403234 -356.295339946,1361.14404423 -355.796450976,1360.55625213 -355.79675923,1360.4679442 -357.151687974,1358.82691486 -357.788419031,1358.19491807 -365.215806368,1358.16464799 -364.861111968,1358.36411222 -364.719449108,1358.76502241 -366.116881873,1360.25509753 " moovel_rot="0.2" moovel_centroid="-365.781556607,1370.52603917" moovel_centroidlatlon="-118.30382138365916,34.090510747671566"/>
  <polygon id="374706679" class="tile" points="-379.664542026,1391.99899617 -386.513172763,1398.56198541 -399.433730735,1408.55249331 -403.56975201,1414.34498571 -405.06733452,1418.64945429 -404.97788898,1426.56360259 -404.690903233,1429.34070626 -417.602228809,1440.67320781 -418.995583408,1441.05221285 -420.435611487,1441.44947061 -423.274637838,1411.62725261 -425.708791414,1403.3443651 -429.949541288,1394.02608871 -431.599753793,1363.96015346 -377.459384536,1358.12355996 -377.457914232,1387.50710433 -379.664542026,1391.99899617 " moovel_rot="-84.1" moovel_centroid="-406.241064456,1389.76977568" moovel_centroidlatlon="-118.47364539997635,34.323814272012264"/>
  <polygon id="51179117" class="tile" points="-436.31644544,1358.12355996 -445.777885765,1358.25215962 -447.901498678,1358.23543858 -450.257076121,1358.27482401 -452.569884181,1359.15912749 -453.968849665,1361.35566613 -454.8759921,1363.20415583 -454.996427094,1368.64625159 -458.759968592,1365.47601406 -459.463030363,1366.04361759 -459.463916858,1393.77972197 -454.810694017,1398.91086551 -454.592734243,1411.18632944 -453.601181071,1413.59836267 -452.464529015,1414.72017402 -450.812794134,1415.63594391 -437.312210421,1415.7544544 -436.917171661,1403.14375674 -433.320771348,1404.48837829 -432.599753793,1371.55346163 -436.853549592,1367.46929961 -436.31644544,1358.12355996 " moovel_rot="61.4" moovel_centroid="-445.801893599,1386.17051302" moovel_centroidlatlon="-118.49481213843279,34.17844486655037"/>
  <polygon id="378712121" class="tile" points="-467.742045237,1538.19440698 -522.322010993,1487.82418016 -466.152534861,1358.12355996 -460.654131638,1360.75991077 -460.463916858,1518.08562158 -465.494830563,1537.18618046 -467.742045237,1538.19440698 " moovel_rot="44.4" moovel_centroid="-481.515998802,1459.15779183" moovel_centroidlatlon="-118.57189379164352,34.18694440137079"/>
  <polygon id="94559872" class="tile" points="-529.460167716,1358.43658979 -529.460167716,1381.48036123 -524.985124185,1381.48036123 -523.322010993,1381.48036123 -523.322010993,1358.12355996 -529.460167716,1358.43658979 " moovel_rot="0" moovel_centroid="-526.384187765,1369.88004207" moovel_centroidlatlon="-118.32416615332988,34.07338312719253"/>
  <polygon id="397170041" class="tile" points="-545.502234714,1397.91372329 -549.177794784,1393.74658274 -550.202185124,1390.42082238 -552.710279734,1359.43406361 -530.460167716,1358.12355996 -530.486907021,1381.91540742 -545.502234714,1397.91372329 " moovel_rot="-86.2" moovel_centroid="-541.590081354,1374.93015946" moovel_centroidlatlon="-118.37069013025804,33.97788468824012"/>
  <polygon id="402297685" class="tile" points="-553.729517668,1385.10119589 -553.710279734,1358.12355996 -573.506617944,1358.22721429 -573.448058977,1384.7368946 -553.729517668,1385.10119589 " moovel_rot="-89.7" moovel_centroid="-563.569783991,1371.53859209" moovel_centroidlatlon="-118.29611647314353,34.054299259886655"/>
  <polygon id="217442836" class="tile" points="-585.575292403,1358.12355996 -589.582941008,1360.22757104 -589.606016162,1387.63528398 -587.774132743,1387.53564911 -587.165773066,1387.50507711 -578.569079727,1382.85676138 -574.506617944,1380.66533498 -578.021533064,1373.51532236 -580.908438128,1367.63521831 -584.740255997,1359.82209757 -585.575292403,1358.12355996 " moovel_rot="-0.9" moovel_centroid="-584.26256007,1374.36686301" moovel_centroidlatlon="-118.19275297162825,34.05672886821923"/>
  <polygon id="391409469" class="tile" points="-3.34091484547e-05,1548.99218705 -2.42713450938,1548.91615044 -2.43476111814,1547.4165788 -4.84376157224,1547.44322769 -4.9008797653,1539.23384539 -4.94089552313,1538.27868675 0.0,1538.19440698 -3.34091484547e-05,1548.99218705 " moovel_rot="32.6" moovel_centroid="-2.3415065853442374,1543.23135656" moovel_centroidlatlon="-118.40752463604844,34.024181327595905"/>
  <polygon id="216267983" class="tile" points="-11.5249893617,1538.52619489 -11.5318932358,1546.08886424 -6.94089552313,1545.9272998 -6.99402260371,1538.19440698 -11.5249893617,1538.52619489 " moovel_rot="64.1" moovel_centroid="-9.23930528552,1542.19204029" moovel_centroidlatlon="-118.24708607582387,34.03081891032592"/>
  <polygon id="402081396" class="tile" points="-12.5342678446,1538.19440698 -24.6233598769,1538.26650977 -31.7997447498,1538.30909886 -32.7228420641,1539.23891509 -32.7245742504,1539.96030797 -33.4231046129,1539.94636568 -35.1021872923,1541.63755419 -35.0562032171,1559.7851473 -35.060091982,1560.25942032 -25.436733016,1560.04852949 -25.4756863285,1561.10421839 -23.0910592239,1561.1502023 -23.0743802872,1560.30176992 -21.4689628065,1560.28775966 -21.5128704585,1560.77574077 -12.5318932358,1560.54373822 -12.5342678446,1538.19440698 " moovel_rot="-89.5" moovel_centroid="-23.6247119898,1549.4775509" moovel_centroidlatlon="-118.29726937491318,34.083832521168375"/>
  <polygon id="208645750" class="tile" points="-36.1021872923,1559.8273255 -58.4571273971,1565.8253658 -58.4557995003,1545.00777774 -52.0079162717,1544.75118141 -52.4440945368,1538.85907086 -36.6815334067,1538.19440698 -36.1021872923,1559.8273255 " moovel_rot="-0.5" moovel_centroid="-47.2452298207,1551.51476699" moovel_centroidlatlon="-118.24147198750762,34.026306507165174"/>
  <polygon id="203191644" class="tile" points="-73.0869427115,1598.61229611 -77.2961488999,1576.67777168 -64.0975730345,1574.0795377 -65.8477061957,1564.86585624 -59.4571273971,1563.64817165 -60.1212801907,1560.09138381 -79.7484454658,1564.06179954 -79.1276156809,1567.18568294 -102.990481126,1571.87319026 -104.487577612,1564.17129652 -94.7821671553,1559.42430885 -90.4776943821,1558.08089623 -81.3165943217,1556.16939544 -80.7980949972,1558.87184769 -72.0050511379,1556.85209032 -73.1702018734,1550.75289598 -77.7940329269,1551.64350498 -78.0476803139,1550.54862916 -103.695432081,1555.57491065 -107.073859756,1538.19440698 -111.394765687,1539.17324251 -118.580785694,1541.19936389 -118.527380762,1599.23149859 -103.481212767,1596.12702116 -102.983335769,1598.1633091 -80.9954134345,1593.7013187 -79.6035415489,1600.58184297 -73.0869427115,1598.61229611 " moovel_rot="11.0" moovel_centroid="-96.7366830816,1573.38638447" moovel_centroidlatlon="-118.22862828836914,34.033015509983315"/>
  <polygon id="401658998" class="tile" points="-141.513505828,1538.19440698 -141.6594605,1545.28250685 -145.827185835,1545.2350949 -145.827507704,1572.20770069 -141.573107417,1572.34356675 -141.437814928,1571.3644423 -138.88646015,1571.41706054 -136.959447606,1573.29084184 -125.498402589,1573.53561639 -123.410722013,1571.37182291 -119.603713313,1571.44268777 -119.580785694,1565.95991142 -119.728441743,1566.3690589 -122.794245904,1566.40384582 -123.334333098,1565.87308471 -123.333548499,1565.4235431 -119.860189527,1565.31721951 -119.625390419,1545.59390122 -123.38575709,1545.58733814 -123.059072816,1538.27478159 -141.513505828,1538.19440698 " moovel_rot="-0.1" moovel_centroid="-132.77188817,1556.27710308" moovel_centroidlatlon="-118.29250895112894,34.08551073253809"/>
  <polygon id="213273065" class="tile" points="-157.818318278,1538.23104927 -157.824053884,1554.74902036 -156.709824843,1554.74641688 -146.83971163,1554.73950944 -146.83525986,1553.91602525 -146.827507704,1538.19440698 -157.818318278,1538.23104927 " moovel_rot="59.9" moovel_centroid="-152.324861469,1546.47770743" moovel_centroidlatlon="-118.25319752925287,34.03012010256901"/>
  <polygon id="210626704" class="tile" points="-254.684092291,1708.73671806 -314.114670801,1658.7810411 -306.555512385,1648.46002153 -305.080366203,1646.51183872 -285.709830037,1664.4864734 -264.955699618,1642.54120844 -264.822409955,1598.89638875 -302.825849745,1561.3014741 -312.578831195,1558.55057555 -314.157515931,1552.14251107 -307.109589759,1555.15411077 -279.075969364,1560.24912436 -262.589430097,1577.86165267 -197.222346631,1538.19440698 -178.622453747,1573.19120297 -158.824053884,1610.43770989 -162.476679344,1612.03622792 -245.861975433,1659.56851691 -235.001819447,1678.79805036 -227.316114083,1692.74938245 -254.684092291,1708.73671806 " moovel_rot="-88.3" moovel_centroid="-234.653752893,1616.35499429" moovel_centroidlatlon="-118.24101467471633,34.033246023780016"/>
  <polygon id="392709995" class="tile" points="-325.389258806,1557.9369223 -326.201466493,1557.91165937 -326.264786917,1555.89930312 -326.038449011,1538.19440698 -315.176589235,1538.22141031 -315.332159926,1550.18285365 -315.157515931,1558.09236271 -317.740907184,1558.06953281 -325.389258806,1557.9369223 " moovel_rot="-57.8" moovel_centroid="-320.698388734,1548.14327027" moovel_centroidlatlon="-118.41086454751164,34.02434654154253"/>
  <polygon id="402081421" class="tile" points="-333.389040874,1565.61642234 -332.152718621,1565.61231254 -327.264786917,1565.46278542 -327.301726606,1538.23109704 -338.405185237,1538.19440698 -338.455955927,1562.73505302 -333.552614553,1562.51191776 -333.389040874,1565.61642234 " moovel_rot="-89.5" moovel_centroid="-332.706631823,1551.28800005" moovel_centroidlatlon="-118.29530807331166,34.09012855753516"/>
  <polygon id="207189396" class="tile" points="-340.559303262,1538.31516414 -352.371544988,1538.19440698 -352.371711098,1568.31581635 -339.566541475,1568.81429905 -339.455955927,1563.27468138 -341.093083016,1563.23312351 -340.559303262,1538.31516414 " moovel_rot="-3.7" moovel_centroid="-346.45666964,1553.57648449" moovel_centroidlatlon="-118.24025493421009,34.02796441043195"/>
  <polygon id="402082256" class="tile" points="-373.70628629,1562.88692656 -370.062151477,1562.88120426 -369.179193002,1562.88326032 -364.323006751,1562.87787094 -361.232701408,1562.87504851 -358.383192375,1562.8734869 -358.364741991,1558.73224847 -353.371711098,1558.79961444 -353.431439797,1538.19440698 -361.217443969,1538.19509921 -361.369949128,1538.19589773 -361.346028357,1542.76438701 -362.059939952,1542.85495547 -361.893237298,1548.63164338 -373.699951138,1548.76693562 -373.70628629,1562.88692656 " moovel_rot="-89.7" moovel_centroid="-362.516276313,1552.49201416" moovel_centroidlatlon="-118.30157774757191,34.07655948610828"/>
  <polygon id="160372613" class="tile" points="-374.70628629,1538.28272939 -377.845495931,1538.19440698 -377.838816762,1579.34449299 -374.70628629,1579.11967369 -374.70628629,1538.28272939 " moovel_rot="0" moovel_centroid="-376.276219025,1558.72812094" moovel_centroidlatlon="-118.34010579509047,34.10361496473185"/>
  <polygon id="342824560" class="tile" points="-378.845495931,1565.1636627 -379.055643401,1542.10765705 -384.838448656,1542.15527464 -384.871944902,1538.19440698 -398.775775702,1538.29750169 -398.814608354,1565.40908026 -378.845495931,1565.1636627 " moovel_rot="-10.5" moovel_centroid="-389.196121642,1552.30641182" moovel_centroidlatlon="-118.4624502462808,34.15225047812401"/>
  <polygon id="257823761" class="tile" points="-403.374097563,1582.1827332 -416.88971387,1584.46710346 -416.926244144,1551.78343825 -407.022699145,1538.19440698 -403.633825881,1541.34734493 -399.814608354,1560.11179738 -403.374097563,1582.1827332 " moovel_rot="-62.5" moovel_centroid="-408.952364045,1563.07450143" moovel_centroidlatlon="-118.2099483738532,34.12780254946206"/>
  <polygon id="244066877" class="tile" points="-426.681389855,1538.48352957 -418.071642292,1538.19440698 -417.926244144,1552.01150617 -426.704728281,1552.24828845 -426.681389855,1538.48352957 " moovel_rot="70.6" moovel_centroid="-422.34288517,1545.25661262" moovel_centroidlatlon="-118.33187442726651,34.05746887156597"/>
  <polygon id="210626239" class="tile" points="-431.016939043,1538.19440698 -441.285404993,1538.4674226 -441.343938407,1742.09751699 -427.704728281,1741.82310493 -431.016939043,1538.19440698 " moovel_rot="45.0" moovel_centroid="-435.299160864,1644.9296978" moovel_centroidlatlon="-118.24166098385052,34.032028265875546"/>
  <polygon id="444341594" class="tile" points="-468.440778085,1659.90789548 -473.597471139,1640.26691679 -462.697678871,1609.14389233 -462.298726887,1607.36346171 -470.53169805,1608.13416496 -473.582927464,1579.47926015 -468.032021569,1578.59871937 -469.233682434,1565.63689102 -467.53475932,1559.1373446 -472.349045413,1557.01399144 -467.399573334,1544.02035082 -462.255021731,1546.23096875 -458.728035334,1538.19440698 -452.244814879,1541.33124641 -462.243230851,1567.2454555 -465.782361927,1567.54600264 -464.438109028,1575.08845122 -460.344524199,1574.64554942 -459.085605736,1588.99042403 -442.343938407,1595.6224832 -468.440778085,1659.90789548 " moovel_rot="66.2" moovel_centroid="-461.791837057,1599.04428882" moovel_centroidlatlon="-118.3692050237869,34.14416731742876"/>
  <polygon id="406861759" class="tile" points="-475.405627691,1538.19440698 -496.384674424,1538.32569269 -501.78724778,1542.26446471 -501.874261519,1684.48235278 -474.597471139,1675.958261 -475.405627691,1538.19440698 " moovel_rot="0.6" moovel_centroid="-488.512090305,1609.8688151" moovel_centroidlatlon="-118.51216424449568,34.18552696729071"/>
  <polygon id="316133934" class="tile" points="-515.15288301,1538.19440698 -567.365827803,1538.21351633 -567.581977273,1636.53854529 -554.978197552,1636.60026053 -554.971640182,1643.36656151 -554.971027956,1649.56516422 -567.582144833,1649.57032118 -567.577855851,1660.72510087 -561.975628062,1660.71986861 -502.874261519,1660.70209614 -502.875013136,1654.49013582 -520.847387931,1654.4980015 -520.865775953,1628.94897005 -515.102771207,1628.94205409 -515.15288301,1538.19440698 " moovel_rot="-89.4" moovel_centroid="-540.936270506,1598.07214055" moovel_centroidlatlon="-118.5047650931568,34.18710121938633"/>
  <polygon id="390343068" class="tile" points="-24.2906044252,1775.17450142 -3.39912317768,1775.76663146 0.0,1744.86794732 -24.3157549404,1742.09751699 -24.2906044252,1775.17450142 " moovel_rot="-96.5" moovel_centroid="-13.092275454964298,1759.05251403" moovel_centroidlatlon="-118.48999979476025,34.18541342881386"/>
  <polygon id="48679664" class="tile" points="-30.1381965388,1742.09751699 -26.5996104069,1742.25116315 -26.3157549404,1849.21238579 -30.2267282799,1849.45119668 -30.1381965388,1742.09751699 " moovel_rot="46.5" moovel_centroid="-28.3203825878,1796.64668786" moovel_centroidlatlon="-118.41236021629085,34.31715076085312"/>
  <polygon id="392387240" class="tile" points="-45.0884282179,1776.068504 -41.6593262572,1777.71127759 -31.2267282799,1774.42133058 -38.6222005706,1746.9911308 -41.7185193356,1742.09751699 -45.0698960502,1743.32893356 -44.1970719863,1746.39275607 -42.9195336007,1751.55526107 -42.3850510251,1754.38393018 -42.1995315,1757.35330746 -42.1258794978,1760.11950956 -42.7817262344,1765.7221024 -45.0884282179,1776.068504 " moovel_rot="-79.3" moovel_centroid="-39.0786854567,1762.90790168" moovel_centroidlatlon="-118.40599969227613,34.02933007063358"/>
  <polygon id="402081406" class="tile" points="-71.0680629075,1742.09751699 -71.0658054262,1743.19960687 -70.5439606339,1743.19566001 -70.5104674038,1758.26424821 -71.0804792643,1758.26794287 -69.6315625876,1762.12946305 -61.6121604115,1762.25160406 -61.6268992573,1766.5997258 -55.5503352545,1766.73173182 -55.7405413978,1778.52631083 -47.1428710289,1778.60472484 -47.1300906248,1774.63063146 -51.8586803213,1774.6392687 -51.8697773151,1767.55919393 -49.3970891804,1767.55210323 -49.4059793219,1763.11702737 -46.0983915571,1763.11430824 -46.0884282179,1758.14499022 -50.4074924216,1758.13573397 -50.3804471225,1748.37079599 -46.1577523787,1748.38622691 -46.1468797706,1743.24325286 -71.0680629075,1742.09751699 " moovel_rot="-90.3" moovel_centroid="-58.1466675881,1756.07791052" moovel_centroidlatlon="-118.30866489750443,34.08986306438726"/>
  <polygon id="402082253" class="tile" points="-72.0804792643,1742.09751699 -81.0945299916,1742.11131857 -81.0982222736,1749.07112787 -81.0704737272,1758.96964739 -81.10258012,1758.9698155 -81.1100515641,1771.339846 -81.4873016626,1771.3418213 -81.4064341068,1800.58320255 -75.7556021687,1800.57365238 -75.7678592615,1796.69974518 -72.1079534821,1795.10427618 -72.0960010614,1771.32604442 -72.0804792643,1742.09751699 " moovel_rot="-89.7" moovel_centroid="-76.7791483576,1770.72059164" moovel_centroidlatlon="-118.30741496822114,34.07674129577554"/>
  <polygon id="200857474" class="tile" points="-82.5205371961,1742.09751699 -99.4469905458,1742.19587489 -99.434917143,1772.60756003 -82.4873016626,1772.37637887 -82.5205371961,1742.09751699 " moovel_rot="-35.6" moovel_centroid="-90.9786025229,1757.32256708" moovel_centroidlatlon="-118.23491552813893,34.04430874744666"/>
  <polygon id="203053786" class="tile" points="-100.446990546,1742.09984827 -100.453038347,1772.35316779 -124.771927274,1772.35083633 -124.765879476,1742.09751699 -100.446990546,1742.09984827 " moovel_rot="-0.1" moovel_centroid="-112.609458899,1757.22534235" moovel_centroidlatlon="-118.23148159999998,34.0338525"/>
  <polygon id="339846396" class="tile" points="-141.407276913,1753.64253771 -141.394324319,1744.11397166 -129.871046825,1742.09751699 -129.474142281,1745.01813348 -127.012641016,1744.69040097 -125.771927274,1752.5047179 -125.787178693,1758.42584523 -132.480349069,1758.45216364 -132.310875656,1770.97137728 -136.100921344,1771.87169868 -136.047120158,1760.99382323 -141.367738095,1761.3478533 -141.407276913,1753.64253771 " moovel_rot="-0.6" moovel_centroid="-134.132555993,1753.76315599" moovel_centroidlatlon="-118.44975902948543,34.15145714680985"/>
  <polygon id="207073678" class="tile" points="-142.407276913,1742.09751699 -142.475688048,1786.1559171 -147.200519353,1786.25453911 -157.539416499,1786.45155386 -157.4912612,1764.48325261 -157.782542191,1742.18628881 -142.407276913,1742.09751699 " moovel_rot="-2.6" moovel_centroid="-150.015183676,1764.1478721" moovel_centroidlatlon="-118.23995738824344,34.026314803702675"/>
  <polygon id="200857313" class="tile" points="-158.802158213,1780.55566969 -173.427293647,1779.66344581 -173.338654859,1761.5189186 -179.831592366,1761.2053855 -181.243047318,1761.01840907 -179.976572363,1742.09751699 -171.865570982,1742.43412746 -172.011169781,1751.99439762 -158.782542191,1752.46572756 -158.802158213,1780.55566969 " moovel_rot="-38.4" moovel_centroid="-168.935988129,1762.20496412" moovel_centroidlatlon="-118.24508483835109,34.04910998068892"/>
  <polygon id="93743472" class="tile" points="-182.261547497,1742.13622776 -182.243047318,1803.33751834 -224.924250773,1803.071373 -224.871667001,1796.39878079 -226.750378351,1796.40205976 -226.763970814,1788.61416004 -220.317019399,1788.55615373 -219.980592803,1742.10855147 -214.777919336,1742.14622534 -186.870120278,1742.09751699 -182.261547497,1742.13622776 " moovel_rot="-89.9" moovel_centroid="-201.948547044,1773.48351322" moovel_centroidlatlon="-118.30430861397895,34.09773091177521"/>
  <polygon id="185929990" class="tile" points="-260.019515255,1894.7873856 -260.016750419,1890.49917141 -258.923474665,1885.91422525 -259.93641791,1795.63061442 -257.555439586,1782.03056739 -249.797432088,1750.92358198 -244.781282135,1744.56107181 -239.222840131,1742.3150336 -228.840242743,1742.09751699 -227.763970814,1884.76729586 -232.330227366,1884.66019766 -242.596971085,1894.46835577 -260.019515255,1894.7873856 " moovel_rot="-89.5" moovel_centroid="-243.330018992,1821.52294286" moovel_centroidlatlon="-118.49980351296637,34.18627519962701"/>
  <polygon id="339841254" class="tile" points="-261.25815038,1742.09751699 -261.075143843,1764.03749281 -261.019515255,1770.62508803 -271.754417321,1773.09157461 -271.75572823,1744.26425576 -261.25815038,1742.09751699 " moovel_rot="0.6" moovel_centroid="-266.45450144,1757.5749002" moovel_centroidlatlon="-118.45142937831532,34.15210473779844"/>
  <polygon id="257708808" class="tile" points="-284.681672211,1758.11364548 -280.499175721,1758.10050373 -273.615114629,1757.55104276 -272.75572823,1752.83098666 -273.021338107,1746.49684908 -275.526494082,1742.09751699 -284.688740485,1746.34008119 -284.681672211,1758.11364548 " moovel_rot="-46.2" moovel_centroid="-278.730386124,1750.98725849" moovel_centroidlatlon="-118.20972856276033,34.126275096773846"/>
  <polygon id="420197218" class="tile" points="-285.69676854,1754.52077216 -285.69676854,1750.40640378 -295.226062414,1750.40640378 -295.234090456,1742.09751699 -301.022307019,1742.09751699 -301.022307019,1744.85601397 -306.64192999,1744.85601397 -306.64192999,1754.32039708 -306.64192999,1766.06237697 -302.274680545,1766.06237697 -302.274680545,1767.5852276 -301.423708816,1767.5852276 -301.423708816,1767.61194428 -285.688740485,1767.758886 -285.69676854,1754.52077216 " moovel_rot="-90.0" moovel_centroid="-296.792157923,1756.67851637" moovel_centroidlatlon="-118.28545590555751,34.090621692091574"/>
  <polygon id="200857627" class="tile" points="-307.647505138,1742.09751699 -320.457010084,1742.12582791 -320.452813312,1762.89491678 -307.64192999,1762.87450361 -307.647505138,1742.09751699 " moovel_rot="9.9" moovel_centroid="-314.049408591,1752.49837656" moovel_centroidlatlon="-118.23549180551639,34.04564732185307"/>
  <polygon id="207068116" class="tile" points="-321.457010084,1744.91099863 -338.676317681,1742.09751699 -338.6550366,1770.8526287 -338.630143233,1797.84191431 -322.220193785,1797.33653196 -321.457010084,1744.91099863 " moovel_rot="1.4" moovel_centroid="-330.329593487,1770.31819623" moovel_centroidlatlon="-118.23723950616436,34.03957162318512"/>
  <polygon id="371736187" class="tile" points="-339.676317681,1873.78399634 -342.581912183,1871.41886822 -342.573873041,1742.09751699 -339.762476603,1745.66461638 -339.676317681,1873.78399634 " moovel_rot="-75.8" moovel_centroid="-341.150943155,1808.59371796" moovel_centroidlatlon="-118.34367028295517,34.2717795975175"/>
  <polygon id="243119013" class="tile" points="-358.902305762,1746.87342233 -350.510424476,1742.09751699 -345.636531008,1750.48958721 -344.085678829,1759.37265038 -343.581912183,1764.59014147 -345.212379324,1766.15549132 -348.211447055,1771.05468567 -350.388137196,1778.52833971 -350.911530453,1787.40554462 -358.874212738,1786.23259218 -356.578419713,1765.90354566 -349.648858034,1765.83688759 -349.358207771,1763.86518988 -353.270172447,1763.73376859 -355.000131328,1755.93392783 -355.74843336,1753.30950668 -358.902305762,1746.87342233 " moovel_rot="-64.6" moovel_centroid="-351.708631864,1764.06862593" moovel_centroidlatlon="-118.38502385716541,34.12202727566551"/>
  <polygon id="320576744" class="tile" points="-364.106054396,1742.09751699 -364.103571855,1765.86042248 -359.902305762,1765.85833649 -359.904830333,1742.10345871 -364.106054396,1742.09751699 " moovel_rot="-0.3" moovel_centroid="-362.004308879,1753.97995382" moovel_centroidlatlon="-118.32135629823053,34.08908542474124"/>
  <polygon id="206841977" class="tile" points="-385.302981296,1772.188608 -365.106054396,1761.10483452 -385.276209884,1742.09751699 -385.302981296,1772.188608 " moovel_rot="-64.6" moovel_centroid="-378.561748526,1758.46365317" moovel_centroidlatlon="-118.23563966666666,34.0264652"/>
  <polygon id="209232953" class="tile" points="-386.32962736,1770.4578446 -395.13372627,1770.44545953 -395.150109128,1765.71136115 -395.15945643,1746.0884356 -395.14899687,1742.09751699 -386.302981296,1742.16431662 -386.357613189,1760.63272794 -386.32962736,1770.4578446 " moovel_rot="-38.9" moovel_centroid="-390.74513469,1756.27700597" moovel_centroidlatlon="-118.2440556258693,34.02562181089432"/>
  <polygon id="194831211" class="tile" points="-396.344402526,1749.60043805 -396.21782675,1742.46202222 -424.116321599,1742.09751699 -424.122347399,1769.44140744 -419.903244483,1773.13417752 -421.300711822,1777.35434513 -422.919965812,1783.39666021 -426.627498794,1806.71541746 -426.371336888,1806.75328001 -426.446165659,1807.26051186 -396.15945643,1812.10178716 -396.282933779,1799.45097086 -396.344402526,1749.60043805 " moovel_rot="-72.4" moovel_centroid="-409.969598121,1776.37511693" moovel_centroidlatlon="-118.4428288222074,34.05827987860564"/>
  <polygon id="384737937" class="tile" points="-454.369264559,1746.15661785 -447.782085056,1745.96928234 -446.404492928,1742.09751699 -429.618141101,1745.98502693 -427.72543949,1773.44281474 -428.333550913,1783.68103646 -437.178921204,1825.66510481 -444.581343352,1863.51043792 -464.746693131,1923.47451317 -452.68785264,1928.75315613 -455.36562122,1937.34780321 -444.12314685,1941.69592411 -441.112811295,1938.58500729 -433.245535183,1940.33495842 -427.627498794,1943.06322424 -436.46945252,1960.63046596 -468.032836998,1945.75835545 -465.582327374,1937.21284349 -480.829309069,1934.22253956 -532.274925819,1921.05922413 -541.28067723,1917.45753622 -542.513040689,1915.13408693 -537.023852637,1893.97296814 -472.118385157,1910.39680943 -457.448515818,1857.90771717 -525.59121638,1839.60072825 -518.967338207,1814.62036138 -467.971260978,1829.11773382 -457.172414289,1788.80919276 -453.761999982,1777.34324341 -454.369264559,1746.15661785 " moovel_rot="-77.8" moovel_centroid="-470.805438448,1855.87045222" moovel_centroidlatlon="-118.4247199291584,33.977861627514486"/>
  <polygon id="299513287" class="tile" points="-0.304173322767,1960.66826639 -52.5354646649,1960.63046596 -52.5851128209,2037.99724158 -0.0131859172136,2038.03623272 0.0,2013.21086595 -43.922371088,2013.17798131 -43.9075962692,1985.98398485 -0.319153590873,1986.00767441 -0.304173322767,1960.66826639 " moovel_rot="-0.2" moovel_centroid="-28.1568876947568,1999.30180723" moovel_centroidlatlon="-118.29994591295095,34.0995912104992"/>
  <polygon id="316198111" class="tile" points="-54.5917919897,1960.63046596 -55.6003465753,1960.63046596 -69.5731690604,1960.63850186 -69.5731690604,1981.13804511 -54.5851128209,1981.13000924 -54.5917919897,1960.63046596 " moovel_rot="0" moovel_centroid="-62.0807819075,1970.88488174" moovel_centroidlatlon="-118.40551407543154,34.17241739220744"/>
  <polygon id="329206625" class="tile" points="-70.5731690604,1996.6044726 -93.5437932249,1996.6044726 -93.5437932249,1960.63046596 -70.5731690604,1960.63046596 -70.5731690604,1996.6044726 " moovel_rot="-90" moovel_centroid="-82.0584811427,1978.61746928" moovel_centroidlatlon="-118.28677000000002,34.04071475"/>
  <polygon id="339841257" class="tile" points="-94.5507455409,1960.63046596 -107.304406568,1963.48510559 -107.48657157,1969.45942682 -107.360773295,1975.14604363 -97.3370339483,1974.96018321 -97.4153744496,1970.58238639 -94.5437932249,1970.53027101 -94.5507455409,1960.63046596 " moovel_rot="1.2" moovel_centroid="-101.145203172,1968.18842612" moovel_centroidlatlon="-118.45170112015907,34.15184006390663"/>
  <polygon id="414913473" class="tile" points="-108.503312803,1985.74916387 -108.48657157,1965.3910015 -109.426170673,1963.00258544 -111.489779513,1961.27704236 -113.618316353,1960.63046596 -115.462965099,1960.89414255 -119.536250071,1962.65401607 -124.282062053,1965.8745745 -124.24482998,1985.69133151 -108.503312803,1985.74916387 " moovel_rot="27.0" moovel_centroid="-116.208770575,1974.04543568" moovel_centroidlatlon="-118.36403936010112,34.14785065236691"/>
  <polygon id="209233133" class="tile" points="-125.332413838,1978.61381357 -133.882944114,1978.40417615 -133.87392326,1960.63046596 -130.853761436,1960.73785937 -130.931800732,1969.68393105 -130.600028688,1969.55994009 -130.684088302,1975.10987417 -125.282062053,1975.21163073 -125.332413838,1978.61381357 " moovel_rot="-38.9" moovel_centroid="-131.248383657,1971.48867975" moovel_centroidlatlon="-118.24724117916759,34.02729761320182"/>
  <polygon id="184954664" class="tile" points="-176.293317521,1960.63046596 -176.290822563,2013.53858335 -134.882944114,2013.54028074 -134.885410442,1960.63225305 -176.293317521,1960.63046596 " moovel_rot="17.7" moovel_centroid="-155.588129511,1987.08539273" moovel_centroidlatlon="-118.4466048,34.057506700000005"/>
  <polygon id="294777238" class="tile" points="-193.244950192,1961.76296863 -204.381374869,1988.66249001 -177.293317521,2006.71486274 -181.789209217,2019.50106394 -186.203646454,2026.41041454 -192.92663817,2032.57113515 -215.625705033,2030.86273621 -212.659667199,1998.39514053 -215.626979652,1998.78245907 -211.856296626,1960.63046596 -193.244950192,1961.76296863 " moovel_rot="-48.8" moovel_centroid="-200.919046865,2002.34959051" moovel_centroidlatlon="-118.41509343175494,34.05968161947323"/>
  <polygon id="412539760" class="tile" points="-220.736229327,2076.56469749 -220.739359519,2072.75615959 -217.457786588,2072.75718518 -217.469786643,2060.57993238 -218.930264193,2060.58721136 -218.930997464,2056.85272545 -216.916436344,2056.85067785 -216.931131182,2033.36480532 -218.711449188,2033.36539328 -218.714725064,2024.67750738 -217.041333488,2024.67987197 -217.040465677,2021.48671079 -216.626979652,2021.48230289 -216.627778749,2020.47370222 -218.797165275,2020.47351711 -218.80348525,2012.63057307 -217.040472483,2012.63146367 -217.053287838,1992.691231 -218.479156353,1992.69555361 -218.49638475,1964.88126432 -220.3836366,1964.88480869 -220.383815584,1960.63046596 -242.719284452,1960.64635358 -242.720878498,1964.53265051 -247.087155258,1964.53153786 -247.018716491,2072.67906251 -243.134233949,2072.67496221 -243.133674911,2076.58272824 -220.736229327,2076.56469749 " moovel_rot="-62.5" moovel_centroid="-232.365327724,2018.92073333" moovel_centroidlatlon="-118.40640417919063,33.979319230149315"/>
  <polygon id="371736188" class="tile" points="-291.55050029,1990.21530215 -289.146280907,2022.51795666 -248.155986345,2039.83429678 -248.087155258,1961.86366093 -256.338655508,1960.63046596 -291.55050029,1990.21530215 " moovel_rot="81.5" moovel_centroid="-266.297065544,2001.00379058" moovel_centroidlatlon="-118.34543643539234,34.27192014374456"/>
  <polygon id="396118655" class="tile" points="-292.614655702,2050.17127397 -299.587740061,2050.15933655 -299.523584649,1960.63046596 -292.55050029,1960.64240369 -292.614655702,2050.17127397 " moovel_rot="0.1" moovel_centroid="-296.069120177,2005.40087004" moovel_centroidlatlon="-118.61870655,34.173187600000006"/>
  <polygon id="46431478" class="tile" points="-332.853485591,2003.52659328 -335.394921684,2006.16888534 -338.028078351,2008.90837737 -333.901336767,2013.52946352 -388.790595419,2070.67801092 -335.138690545,2120.67454426 -336.815209176,2122.95124082 -300.587740061,2156.6650637 -305.140587124,2161.49274867 -313.452415748,2153.76564633 -318.769624017,2159.32313615 -324.113909349,2165.45445228 -424.331895702,2071.83129697 -356.972141185,1999.13780808 -351.965116931,2004.14228692 -312.878242717,1960.63046596 -300.676999583,1969.46228862 -332.853485591,2003.52659328 " moovel_rot="-91.9" moovel_centroid="-362.337566491,2069.33353023" moovel_centroidlatlon="-118.38127565129719,34.22280755041331"/>
  <polygon id="232932143" class="tile" points="-456.334983175,1968.47754261 -447.411143608,1960.63046596 -425.331895702,1985.53832903 -448.59550949,2006.18949424 -456.337001821,1998.21825724 -441.634449094,1985.17448803 -456.334983175,1968.47754261 " moovel_rot="-76.3" moovel_centroid="-442.375838596,1983.61960095" moovel_centroidlatlon="-118.28365605377692,34.05597131290471"/>
  <polygon id="444356596" class="tile" points="-457.348933481,1960.63046596 -470.774842153,1960.63447022 -470.762994613,1978.63791547 -457.337001821,1978.62587888 -457.348933481,1960.63046596 " moovel_rot="-0.6" moovel_centroid="-464.05644229,1969.63219292" moovel_centroidlatlon="-118.37108599252656,34.14414207480683"/>
  <polygon id="241763203" class="tile" points="-516.559553878,2025.30537468 -502.554464286,2014.3011665 -507.024088649,2008.48340889 -494.721953751,1998.38340327 -516.585731841,1970.68541927 -504.700296136,1960.63046596 -471.774842153,2002.86675408 -510.743162229,2034.18022354 -516.559553878,2025.30537468 " moovel_rot="-26.2" moovel_centroid="-496.289454883,1997.33837166" moovel_centroidlatlon="-118.40578863512829,33.96945596284972"/>
  <polygon id="207068132" class="tile" points="-529.669726537,1991.19011724 -520.857898403,1991.95168058 -518.036014465,1988.26797696 -517.585731841,1960.84438147 -522.787984693,1960.85160374 -529.688505666,1960.63046596 -529.10047427,1963.88723106 -529.669726537,1991.19011724 " moovel_rot="-3.9" moovel_centroid="-523.661357759,1976.00683077" moovel_centroidlatlon="-118.23819868707251,34.038451401054694"/>
  <polygon id="392715076" class="tile" points="-530.688505666,1969.19330361 -536.015200833,1969.26207593 -536.000741488,1960.7378931 -530.898735657,1960.63046596 -530.688505666,1969.19330361 " moovel_rot="-57.4" moovel_centroid="-533.398286501,1964.98651051" moovel_centroidlatlon="-118.41230208090307,34.02987379600288"/>
  <polygon id="295004606" class="tile" points="-537.70820685,1960.63046596 -537.015200833,1994.07797614 -540.756755521,1994.13522638 -540.496095918,1997.0615494 -554.539972139,1997.80574408 -554.540429882,1961.58961094 -537.70820685,1960.63046596 " moovel_rot="21.6" moovel_centroid="-546.053365287,1979.08129001" moovel_centroidlatlon="-118.4405826385788,34.05923071061265"/>
  <polygon id="233449138" class="tile" points="0.0,2220.68750691 -16.5384246066,2232.38846345 -59.9834787492,2236.35575896 -59.9999838833,2165.67075751 -54.6492978204,2165.45445228 -48.2354825579,2170.01426153 -48.8472164176,2179.96644346 -25.4001573622,2179.78345295 -26.1986452125,2170.3927807 -3.91741500646,2169.6977432 0.0,2220.68750691 " moovel_rot="-88.9" moovel_centroid="-31.701981966972447,2202.99643104" moovel_centroidlatlon="-118.18062226757965,34.0775965520711"/>
  <polygon id="154824781" class="tile" points="-61.9999838833,2173.62826651 -78.0931586284,2173.25115579 -79.4936041929,2185.26372816 -75.6252484489,2185.98017922 -77.4751239188,2202.70894342 -91.1861210488,2201.36102822 -88.8270602934,2174.97004249 -91.1874917448,2170.72442469 -91.1921127304,2165.45445228 -62.1061286014,2167.48085012 -62.0523074858,2170.61914112 -61.9999838833,2173.62826651 " moovel_rot="6.6" moovel_centroid="-81.3062863474,2181.92927929" moovel_centroidlatlon="-118.28698427847661,34.11118434390098"/>
  <polygon id="210626248" class="tile" points="-101.786854129,2165.86470133 -92.3255350426,2165.45445228 -92.1921127304,2368.69887976 -101.673779413,2369.52002869 -101.786854129,2165.86470133 " moovel_rot="44.1" moovel_centroid="-96.9961369019,2267.42148551" moovel_centroidlatlon="-118.24210557123729,34.03176035616316"/>
  <polygon id="392388047" class="tile" points="-111.025321238,2165.67441559 -103.108392473,2165.45445228 -103.041830526,2166.29861415 -102.80614025,2182.17613292 -102.999075243,2183.96744641 -102.786854129,2198.30835042 -114.244964918,2198.53515832 -114.360196488,2194.65891082 -113.447155758,2194.60090286 -113.551937227,2186.2375055 -110.71721763,2186.20845881 -111.025321238,2165.67441559 " moovel_rot="-56.6" moovel_centroid="-107.540596144,2183.2683711" moovel_centroidlatlon="-118.41024073205155,34.02800583383925"/>
  <polygon id="391409460" class="tile" points="-126.820795738,2187.48459609 -115.407644254,2187.56003389 -115.36144859,2186.42596973 -115.4142151,2178.88815277 -115.588584066,2174.01195455 -115.641415318,2166.65652242 -115.360196488,2165.45445228 -124.963054461,2165.67748006 -127.322068628,2168.93543389 -126.820795738,2187.48459609 " moovel_rot="33.3" moovel_centroid="-121.207729762,2176.66707771" moovel_centroidlatlon="-118.40643145908463,34.024511793943596"/>
  <polygon id="188828373" class="tile" points="-210.973971792,2165.45445228 -211.088128561,2331.4400913 -131.952668563,2290.61855976 -128.322068628,2262.68070945 -140.077515063,2252.05512705 -135.763848805,2169.17600649 -210.973971792,2165.45445228 " moovel_rot="77.3" moovel_centroid="-175.173556779,2240.92723658" moovel_centroidlatlon="-118.20122030967163,34.064461188257226"/>
  <polygon id="316133947" class="tile" points="-212.088128561,2207.39737055 -238.932459274,2207.41091043 -238.960245335,2165.46794638 -221.320034739,2165.45445228 -216.230404504,2167.37090462 -212.111469432,2173.42824509 -212.088128561,2207.39737055 " moovel_rot="-0.4" moovel_centroid="-225.775634536,2186.8580924" moovel_centroidlatlon="-118.50710242991555,34.193341135447945"/>
  <polygon id="401659017" class="tile" points="-248.442337528,2165.45445228 -248.607020242,2165.67221616 -242.904634701,2170.18758323 -248.615911817,2177.39983062 -245.861421745,2179.58059337 -239.960245335,2172.12960985 -241.470668361,2170.93842272 -248.442337528,2165.45445228 " moovel_rot="-38.5" moovel_centroid="-244.367396832,2174.36192819" moovel_centroidlatlon="-118.28716476650065,34.08681556168552"/>
  <polygon id="402080661" class="tile" points="-265.349920421,2200.05229571 -252.024070063,2199.54077712 -251.80043008,2199.15620276 -250.973453956,2198.78434738 -249.615911817,2198.76950412 -249.649971259,2165.45445228 -266.867600592,2166.27641656 -266.556289946,2175.96374188 -266.487760214,2187.56093065 -267.466530615,2187.5986903 -267.356688102,2196.21202376 -265.435915509,2196.21172067 -265.349920421,2200.05229571 " moovel_rot="-87.4" moovel_centroid="-258.175433172,2182.74025689" moovel_centroidlatlon="-118.30796694505189,34.09541735245584"/>
  <polygon id="393552021" class="tile" points="-268.466530615,2204.39176256 -268.524099824,2165.95163233 -294.417571224,2165.45445228 -294.560853856,2203.89072596 -268.466530615,2204.39176256 " moovel_rot="-91.1" moovel_centroid="-281.492291476,2184.94689391" moovel_centroidlatlon="-118.60670577049913,34.16785548056972"/>
  <polygon id="207068107" class="tile" points="-295.602665,2209.8763242 -295.560853856,2165.45445228 -329.279834658,2167.80273632 -328.354439322,2196.4436911 -325.331324258,2197.60535643 -325.757098239,2179.54595881 -311.335235612,2179.08557369 -311.328548186,2184.04526695 -301.448434706,2183.64627515 -301.000406864,2197.1397231 -307.292680833,2197.1884188 -307.857354366,2202.35342199 -314.542001732,2202.37428935 -314.321735467,2210.29089999 -295.602665,2209.8763242 " moovel_rot="-82.3" moovel_centroid="-308.965879816,2184.04714953" moovel_centroidlatlon="-118.23328336747052,34.040107578984404"/>
  <polygon id="259008663" class="tile" points="-360.353717902,2165.50775339 -343.672285745,2165.47804494 -332.781109549,2165.45445228 -332.77667649,2172.97457253 -330.28775093,2172.96929368 -330.279834658,2190.10073133 -332.720168412,2190.10719925 -332.708026289,2211.48294748 -360.330275089,2211.54165592 -360.353717902,2165.50775339 " moovel_rot="80.7" moovel_centroid="-346.056810896,2188.2811159" moovel_centroidlatlon="-118.23303521229934,34.04895600120152"/>
  <polygon id="213577968" class="tile" points="-379.918768236,2188.99915354 -361.785136475,2189.22332851 -361.889650303,2187.22694252 -361.860330501,2179.84243108 -361.900698776,2177.16053317 -361.353717902,2177.28180162 -361.592774874,2165.49969703 -361.942331406,2165.67767986 -379.929973768,2165.45445228 -379.918768236,2188.99915354 " moovel_rot="-30" moovel_centroid="-370.797823639,2177.28051474" moovel_centroidlatlon="-118.25366383748934,34.030774952355586"/>
  <polygon id="223779739" class="tile" points="-380.929973768,2165.45445228 -380.962629981,2192.09750521 -385.080667128,2192.02597508 -385.010077038,2182.95062555 -385.093462964,2174.71958323 -385.371184844,2165.58967206 -380.929973768,2165.45445228 " moovel_rot="60" moovel_centroid="-383.027738962,2178.62149046" moovel_centroidlatlon="-118.2518074714985,34.032428381912794"/>
  <polygon id="162249305" class="tile" points="-434.581169356,2216.86457815 -386.371184844,2222.00175784 -386.372151046,2192.87884724 -405.693535369,2191.42336788 -404.440215871,2180.60628677 -400.025970226,2181.48914682 -398.284126253,2171.6288071 -424.021294975,2165.45445228 -433.969730195,2213.873795 -434.581169356,2216.86457815 " moovel_rot="79.2" moovel_centroid="-410.627036571,2197.62910504" moovel_centroidlatlon="-118.65694549306114,34.19835082069638"/>
  <polygon id="15712015" class="tile" points="-486.008189803,2252.07218789 -479.283985425,2252.21412623 -466.520004221,2251.88537007 -466.363099719,2255.88531904 -458.714459211,2255.80109438 -458.602336889,2252.00909729 -442.552490839,2251.91258591 -442.870514837,2243.1859829 -439.15226435,2243.26183155 -439.635538047,2204.1063789 -435.606106297,2204.08849431 -435.581169356,2199.7420309 -435.611423054,2195.65852009 -439.657829151,2195.54390415 -439.84423575,2165.45445228 -486.630612863,2165.85217896 -486.622078764,2225.64678791 -486.008189803,2252.07218789 " moovel_rot="-82.7" moovel_centroid="-462.967861135,2208.84293808" moovel_centroidlatlon="-118.40716625329514,33.9442651084912"/>
  <polygon id="202497469" class="tile" points="-518.277463078,2165.99487622 -517.169355138,2250.53221053 -514.253986493,2253.65527613 -490.732023336,2252.11273732 -491.454893124,2173.68127622 -487.630612863,2173.59119674 -487.631348052,2165.45445228 -518.277463078,2165.99487622 " moovel_rot="5.8" moovel_centroid="-504.226203107,2208.65608984" moovel_centroidlatlon="-118.23064575064478,34.03697178105549"/>
  <polygon id="34458336" class="tile" points="-579.355856311,2330.13607054 -579.835038253,2323.39061256 -580.800068665,2177.93582387 -580.651511363,2175.48975043 -554.548635512,2175.71703776 -554.644075999,2165.45445228 -519.277463078,2165.70655813 -519.357836397,2213.46852944 -519.382665678,2230.18587054 -519.387465811,2233.84084108 -519.391019795,2236.39058715 -519.466540014,2290.14083381 -519.52834904,2330.23769581 -579.355856311,2330.13607054 " moovel_rot="-48.6" moovel_centroid="-549.386336283,2249.6463122" moovel_centroidlatlon="-118.37645598464854,34.23670001697216"/>
  <polygon id="207068114" class="tile" points="-11.5900096994,2387.51033105 -0.00673330910504,2387.5199356 0.0,2369.52963272 -11.5832763981,2369.52002869 -11.5900096994,2387.51033105 " moovel_rot="-1.0" moovel_centroid="-5.795004824096122,2378.51998201" moovel_centroidlatlon="-118.2362157,34.038411800000006"/>
  <polygon id="402082784" class="tile" points="-20.9435960554,2369.57136724 -24.7436706726,2369.63803178 -24.8641382348,2371.51717114 -29.2388876121,2371.54771315 -29.1489650819,2375.81740268 -27.2994405959,2375.72422125 -27.2150575548,2393.55137522 -23.8151069358,2393.57580003 -23.451974972,2393.92644794 -23.4955899782,2394.37625815 -24.429540858,2395.49851574 -18.6388073776,2397.37651367 -13.623489761,2397.25320385 -13.5900096994,2369.52002869 -20.9435960554,2369.57136724 " moovel_rot="0.4" moovel_centroid="-20.331583629,2382.80846779" moovel_centroidlatlon="-118.28707507920578,34.076662337545265"/>
  <polygon id="212596656" class="tile" points="-30.2388876121,2407.74209883 -43.538942872,2407.00319417 -43.1045047179,2369.52002869 -30.2921639342,2370.89612489 -30.2388876121,2407.74209883 " moovel_rot="-36.0" moovel_centroid="-36.8140162657,2388.90362518" moovel_centroidlatlon="-118.25013447478466,34.02746910828127"/>
  <polygon id="410814487" class="tile" points="-44.5835090846,2371.3372377 -44.538942872,2421.29252812 -69.5477189668,2415.35490827 -68.7518167637,2369.52002869 -44.5835090846,2371.3372377 " moovel_rot="42.5" moovel_centroid="-56.6862084215,2394.54454352" moovel_centroidlatlon="-118.29414926557493,34.118727154987184"/>
  <polygon id="154643981" class="tile" points="-70.5477189668,2389.38915853 -82.9508309446,2389.1675949 -82.7883725565,2379.33719651 -82.634152161,2369.52002869 -70.5781404495,2369.85637951 -70.5477189668,2389.38915853 " moovel_rot="-90.9" moovel_centroid="-76.6834259202,2379.5293902" moovel_centroidlatlon="-118.29131084146077,34.10237356284559"/>
  <polygon id="210611858" class="tile" points="-110.326132696,2369.7605792 -83.9997062378,2369.52002869 -83.9508309446,2425.45114755 -110.36198515,2425.24524477 -110.039447912,2423.60558389 -110.245494472,2401.10165035 -110.246957697,2395.87758022 -110.326132696,2369.7605792 " moovel_rot="44.7" moovel_centroid="-97.0811952537,2397.45824287" moovel_centroidlatlon="-118.2443329640898,34.02977275591853"/>
  <polygon id="205293199" class="tile" points="-131.595218478,2410.34190983 -122.930661446,2411.25820716 -111.36198515,2390.52453197 -116.518023152,2385.50562514 -118.868679801,2369.52002869 -131.583041004,2369.94454561 -130.750733386,2385.18131422 -123.010076634,2386.73980814 -125.314261968,2395.72090174 -130.636638567,2400.33048227 -131.429715513,2408.69500293 -131.595218478,2410.34190983 " moovel_rot="-2.5" moovel_centroid="-123.056769938,2389.53348891" moovel_centroidlatlon="-118.23361882605722,34.02900378278604"/>
  <polygon id="444028890" class="tile" points="-169.60096609,2369.60518069 -169.674144052,2425.09719788 -162.040513275,2425.22595087 -159.915852496,2425.33635117 -159.763210617,2456.42243514 -166.282929824,2461.68138968 -166.801812739,2462.23399586 -166.1759463,2499.87510564 -133.465960473,2499.6970997 -132.595218478,2424.19179675 -136.07208072,2424.08495123 -135.716265914,2405.77628844 -161.894550738,2392.28631403 -162.310451917,2369.52002869 -169.60096609,2369.60518069 " moovel_rot="64.7" moovel_centroid="-150.919650225,2445.27034884" moovel_centroidlatlon="-118.36905683626948,34.14062539666827"/>
  <polygon id="429645486" class="tile" points="-209.613977863,2429.00471179 -209.622019938,2431.56283369 -170.722396775,2431.59622953 -170.674144052,2373.13345936 -173.714064861,2373.12678019 -173.714064861,2371.24993357 -174.727371493,2371.24993357 -174.727371493,2369.54674536 -209.589851642,2369.52002869 -209.589851642,2371.2432544 -210.530774201,2371.22989607 -210.522732127,2373.11342185 -213.610887296,2373.10674268 -213.659139709,2428.16313644 -211.133929619,2428.18985312 -211.133929619,2429.00471179 -209.613977863,2429.00471179 " moovel_rot="-90" moovel_centroid="-192.072640428,2400.69941951" moovel_centroidlatlon="-118.59459801538324,34.23693511887806"/>
  <polygon id="79974539" class="tile" points="-214.659139709,2369.52002869 -214.709652685,2416.24103011 -222.296515772,2416.51118758 -225.622148731,2413.40560122 -223.364699797,2410.81109962 -223.785160719,2387.04288047 -222.3371743,2385.33255249 -222.101346386,2381.98417393 -227.903833149,2376.97548609 -220.944896331,2369.67055993 -214.659139709,2369.52002869 " moovel_rot="21.3" moovel_centroid="-219.336707458,2392.74981335" moovel_centroidlatlon="-118.25137181479096,34.073650122242896"/>
  <polygon id="342869351" class="tile" points="-231.140532679,2468.02907694 -238.291045943,2468.01220443 -241.713705061,2467.99602349 -241.656886404,2454.26959911 -246.002632164,2454.37341129 -246.444089182,2424.51319894 -241.71113807,2424.63378081 -241.959877501,2422.37790308 -245.759841298,2422.40443226 -247.640037322,2420.07311311 -257.112889184,2419.98562252 -256.775606223,2423.41644457 -250.484116574,2423.52614561 -250.230756788,2437.95173439 -254.578082465,2437.8284603 -254.54977865,2441.88261736 -264.006020632,2444.17285308 -269.517369612,2418.86326441 -273.526117951,2400.48969095 -275.966832742,2389.21865918 -239.735113588,2388.90559596 -239.933954985,2369.63043138 -235.796663025,2369.5881885 -228.903833149,2369.52002869 -228.951308043,2422.56093728 -231.09646362,2422.55587553 -231.11583351,2445.098757 -231.140532679,2468.02907694 " moovel_rot="-89.6" moovel_centroid="-247.266323887,2415.43810823" moovel_centroidlatlon="-118.44776434576544,34.15218305390698"/>
  <polygon id="23502478" class="tile" points="-277.216693111,2369.60934556 -299.553084366,2369.52002869 -300.917047932,2582.24071177 -276.966832742,2584.75117004 -277.216693111,2369.60934556 " moovel_rot="22.3" moovel_centroid="-288.645657158,2477.77931848" moovel_centroidlatlon="-118.43822824969276,33.935878193981324"/>
  <polygon id="294779229" class="tile" points="-363.004273584,2504.20884314 -302.926892925,2433.49934553 -305.799367257,2430.7258447 -301.917047932,2426.90113411 -367.608385112,2369.52002869 -383.676760445,2387.6787962 -341.691660972,2424.17588636 -338.250065757,2422.45654777 -335.153154409,2426.25463718 -352.629228509,2445.40157071 -349.781157768,2447.87736083 -383.613595625,2487.12291231 -363.004273584,2504.20884314 " moovel_rot="-41.0" moovel_centroid="-345.277783253,2436.49514274" moovel_centroidlatlon="-118.29104298513114,34.06847544103957"/>
</svg>