<svg xmlns="http://www.w3.org/2000/svg" version="1.1" width="592.5px" height="1200px">
  <polygon id="9" class="bin" points="446.2499995,1207.499999 448.901649929,1206.40164943 449.9999995,1203.749999 449.9999995,3.75 448.901649929,1.09834957055 446.2499995,0.0 292.019168151,0.0 289.540392057,0.936075858588 288.299121275,3.27697649407 288.915048399,5.85402960126 290.149573392,7.67535065701 291.326374844,11.5188431639 291.09515508,171.060160441 289.39431384,175.131980506 285.307309171,176.796003463 203.285962249,176.174593724 199.346481743,174.575890204 197.57639735,170.710381074 196.440867663,148.674205966 195.283634246,146.153187031 192.710408433,145.117216679 150.01457235,144.951306806 147.353507012,146.044481132 146.2500005,148.701278494 146.2500005,279.10670291 147.36568657,281.775577227 150.048875229,282.856384398 199.78128572,282.208153852 203.870898681,283.84320502 205.601081488,287.893488215 207.670967142,488.078963644 206.015435545,492.601306842 188.000671352,513.467511065 182.693809769,515.814665978 182.662635696,515.813862679 179.684373105,517.162928202 178.896692749,520.336189223 180.89837318,522.921397397 183.742788433,524.333675067 187.460190679,530.665879555 185.979830429,561.329322056 185.958963854,561.627124762 185.054870573,571.462175387 185.538308114,573.674856445 187.207567554,575.205621694 203.774457172,582.911555151 207.657633957,589.001380035 207.651447661,634.996051103 205.906606751,639.115774718 201.73406057,640.730225346 160.585773822,639.441387775 157.924854859,640.434008559 156.722814919,643.007116743 153.936651563,700.21029095 153.56052906,701.345252745 154.138116942,704.798653719 157.315423399,706.269813032 160.125289487,706.123299523 160.345900074,706.115345375 164.963502829,706.023056128 169.105991976,707.321135181 169.984536934,707.958089505 171.272631896,709.174190649 172.099487345,710.186715184 173.023393714,711.669385708 173.341204752,712.362871311 173.894069502,716.177393017 173.701783958,717.523848132 173.262407451,718.584551222 173.256615149,721.440718507 175.263971731,723.472526733 178.119999813,723.501313998 181.093505806,722.31156395 183.985424638,721.829900877 185.646468714,721.913900652 185.905621383,721.918037715 218.297932288,721.315389455 222.326203864,722.857155409 224.151601972,726.765087841 224.252921767,728.680600339 224.587766943,730.042954831 225.556734112,732.160382356 225.739289293,736.180559631 224.249507404,740.308316841 220.280868068,742.181210721 219.195781337,742.234627658 216.610320148,743.452155123 215.633482402,746.137815323 217.072619843,780.324194161 215.333035528,784.674590225 210.924560821,786.261237718 210.687451844,786.242946543 208.475312291,786.762858164 206.969576196,788.464806549 206.398829658,789.755053808 202.584252163,791.435828688 190.144152989,792.000730286 187.145903432,791.204939581 183.910850554,791.84686542 182.434043238,794.795878146 182.412194039,797.23675095 182.941868376,799.192027532 185.198275934,802.973049301 186.172679667,818.996282313 185.013463171,822.031480361 184.767656672,823.455976047 184.871523585,827.955609534 183.343775999,831.994883582 183.261714746,832.033502081 181.112362713,835.596660494 181.382363859,841.542547448 179.872466342,845.691089097 175.86489511,847.542996532 165.106059564,847.956751095 162.506784374,849.147352671 161.50208804,851.82398281 161.84537042,862.545912658 162.972857277,865.108259653 165.560766378,866.175768543 211.000704665,866.571819876 215.034668169,868.27489333 216.698519311,872.325192099 216.620170316,951.658778944 214.97173641,955.683352989 210.977105126,957.403077236 185.313232019,957.884768264 182.709155482,959.005453509 181.633608421,961.628495359 181.528727855,1031.70393859 183.242160394,1034.85834616 198.571213437,1044.77280107 201.174143987,1047.89844046 215.102591725,1081.58011903 215.602501419,1083.66634002 225.042805741,1204.04318478 226.235442861,1206.50335574 228.781327119,1207.499999 446.2499995,1207.499999 " moovel_rot="0" moovel_centroid="324.92155767837266,619.8438068802059" moovel_centroidlatlon="0,0"/>
  <polygon id="314624239" class="tile" points="-46.254159442,1201.0 -46.2019444354,1331.06407678 -12.9812058821,1331.1084151 -12.4373533413,1282.02100137 -1.0,1282.64231912 -1.06479681768,1206.52626656 -46.254159442,1201.0 " moovel_rot="-89.8" moovel_centroid="-25.649856791636214,1263.072778721149" moovel_centroidlatlon="-118.41525672010756,34.172549405304785"/>
  <polygon id="89831023" class="tile" points="-48.9226865996,1202.83580453 -47.254159442,1286.00209886 -89.2491317183,1287.13036611 -89.2249483351,1264.40277066 -68.9279840913,1263.86214107 -70.3245894767,1231.92786851 -74.7834324758,1232.29393862 -75.107116273,1228.54333214 -79.4221225984,1219.98266233 -79.4872721959,1215.04062322 -67.3896999385,1214.12790155 -67.6550056498,1206.51465931 -67.691394395,1201.32244638 -56.2754969534,1201.0 -48.9226865996,1202.83580453 " moovel_rot="41.4" moovel_centroid="-63.4770964027,1249.3266576739888" moovel_centroidlatlon="-118.24569643377573,34.114056886059316"/>
  <polygon id="31654423" class="tile" points="-96.0266407024,1236.27951013 -93.0877651088,1222.74549082 -90.2491317183,1214.64647061 -91.6213071316,1210.26785354 -97.3130155541,1205.44403419 -102.295783053,1201.0 -102.16691093,1214.77655301 -102.289008419,1222.02426247 -96.0266407024,1236.27951013 " moovel_rot="-72.6" moovel_centroid="-97.2303852945,1217.2052831111912" moovel_centroidlatlon="-118.2915359007142,34.233938745354386"/>
  <polygon id="448952963" class="tile" points="-104.571504418,1247.54394312 -113.708608222,1247.45551797 -113.701929052,1201.07234835 -103.596345679,1201.0 -103.295783053,1245.33331408 -104.571504418,1247.54394312 " moovel_rot="0" moovel_centroid="-108.58294915,1224.3248148819566" moovel_centroidlatlon="-118.60370904096426,34.201454942640694"/>
  <polygon id="206502072" class="tile" points="-114.708608222,1282.34041863 -114.778668415,1201.0 -143.001191767,1201.02337094 -142.996346836,1239.66995333 -142.931176117,1282.35711056 -138.499041124,1282.35956458 -121.091811743,1282.34490653 -114.708608222,1282.34041863 " moovel_rot="-89.6" moovel_centroid="-128.861938286,1241.681031879432" moovel_centroidlatlon="-118.33178478635234,34.10082366240977"/>
  <polygon id="206344679" class="tile" points="-158.577169066,1249.03149658 -160.866912685,1248.86975471 -160.815483306,1201.39555178 -144.447409995,1201.0 -144.001191767,1245.60161098 -147.746215998,1245.83425994 -150.739713147,1245.85602029 -154.17510942,1255.04198513 -154.249542582,1262.93189258 -159.243425294,1262.82126971 -159.462493307,1259.77833049 -158.577169066,1249.03149658 " moovel_rot="-89.2" moovel_centroid="-152.98733556,1227.2914051587438" moovel_centroidlatlon="-118.29735120932284,34.063943126364414"/>
  <polygon id="207074052" class="tile" points="-161.866912685,1228.03123039 -176.013112613,1201.0 -199.127904394,1221.7659405 -198.798774267,1227.67849072 -198.814579462,1281.06165185 -198.741941241,1338.11164464 -199.092664276,1355.59644468 -188.213486603,1344.8058376 -168.282149807,1324.56981569 -161.878322143,1318.5566425 -163.489207485,1317.61556948 -165.015809995,1316.72696047 -169.642877437,1306.67693546 -169.03356815,1302.30602618 -168.906978244,1297.95885518 -168.924601939,1293.0260394 -170.850742768,1281.409921 -172.919164872,1272.73449417 -174.698170702,1265.34285016 -177.193504739,1259.68205866 -181.51583427,1251.14143414 -186.896977593,1240.53100191 -161.866912685,1228.03123039 " moovel_rot="-2.9" moovel_centroid="-184.841065318,1278.1974693444254" moovel_centroidlatlon="-118.23930527296083,34.029294565708305"/>
  <polygon id="31717780" class="tile" points="-213.526026407,1201.0 -212.420542528,1219.81789036 -212.396151172,1234.145692 -212.926205501,1248.30650929 -213.506880073,1256.49500097 -210.604742821,1256.73480281 -209.102274639,1253.58827761 -209.388752124,1246.34520941 -209.358498757,1238.00479864 -206.8295853,1233.36097055 -200.127904394,1224.55474027 -203.794395151,1218.7275095 -208.619144683,1210.76544159 -213.526026407,1201.0 " moovel_rot="73.9" moovel_centroid="-209.095704361,1228.0162434729539" moovel_centroidlatlon="-118.31175127349869,34.23319670521231"/>
  <polygon id="240573806" class="tile" points="-229.959412467,1252.83754781 -229.92680026,1201.0 -223.404882087,1201.24262308 -215.657307278,1209.01312421 -214.526026407,1251.37782991 -229.959412467,1252.83754781 " moovel_rot="52.4" moovel_centroid="-222.777417288,1227.9906151948194" moovel_centroidlatlon="-118.20182064445606,34.10174404580448"/>
  <polygon id="391416468" class="tile" points="-230.977890707,1220.46612302 -235.576064374,1220.53777677 -236.112957339,1202.83015999 -235.443612291,1201.0 -230.959412467,1201.00321306 -230.977890707,1220.46612302 " moovel_rot="-56.7" moovel_centroid="-233.407750987,1210.612058376846" moovel_centroidlatlon="-118.40768421651318,34.02484442554793"/>
  <polygon id="442088901" class="tile" points="-259.776990115,1245.27151026 -259.750463805,1201.07136621 -237.113220387,1201.0 -237.112957339,1202.20516066 -237.139801024,1245.20011492 -259.776990115,1245.27151026 " moovel_rot="61.8" moovel_centroid="-248.444873035,1223.1355862703986" moovel_centroidlatlon="-118.26629685376028,34.05239199818762"/>
  <polygon id="444341458" class="tile" points="-287.413271947,1201.0 -280.46378921,1202.3511674 -281.796643971,1209.04948987 -277.296386138,1210.07721585 -281.373828325,1228.39759166 -285.36031131,1227.99447059 -289.573054797,1248.74348323 -294.185381221,1281.10365461 -294.485058711,1285.43494955 -260.776990115,1304.33812749 -287.997850619,1358.99974397 -295.240891863,1360.4851272 -296.124643685,1352.99821776 -300.433870906,1353.75882255 -303.278377646,1325.36349523 -303.283727577,1300.54757838 -302.154647189,1274.36017632 -300.610532242,1256.9174793 -297.414563175,1236.40322642 -292.364640822,1216.68200486 -287.413271947,1201.0 " moovel_rot="32.8" moovel_centroid="-288.718140947,1295.653452605285" moovel_centroidlatlon="-118.36903209820511,34.144972186181896"/>
  <polygon id="228744761" class="tile" points="-304.283727577,1201.0 -357.110906052,1201.08574942 -357.159610345,1291.2186073 -304.325984367,1291.13110642 -304.283727577,1201.0 " moovel_rot="13.8" moovel_centroid="-330.720142582,1246.10978245219" moovel_centroidlatlon="-118.30729302057587,34.15761433908424"/>
  <polygon id="401898679" class="tile" points="-358.159610345,1203.52072184 -361.737669545,1203.60483467 -362.176800796,1203.08543141 -362.078072082,1201.10173256 -367.523029537,1201.0 -367.501985533,1230.574592 -362.441688567,1230.36595734 -362.337765042,1228.38645673 -361.993823384,1228.03465888 -358.392478299,1228.13441245 -358.159610345,1203.52072184 " moovel_rot="-38.9" moovel_centroid="-363.098451096,1215.6973144898811" moovel_centroidlatlon="-118.2911248357143,34.10039484542937"/>
  <polygon id="210822158" class="tile" points="-377.360723019,1311.75559206 -377.523751414,1301.13598101 -386.209183848,1301.27136519 -391.033753329,1296.61771829 -391.042822743,1291.42133237 -387.117430387,1291.41448126 -387.145354246,1270.81594005 -390.894144138,1270.82248293 -390.910177509,1257.03668418 -386.639607271,1257.02923062 -386.659114527,1241.2530424 -372.940279011,1241.23577767 -372.946928199,1232.82670214 -372.932195171,1227.46997436 -368.629457225,1227.48918138 -368.523029537,1201.07951941 -410.980145483,1201.0 -410.969810263,1308.10730636 -407.766892419,1308.1017162 -407.760294362,1311.88212035 -383.027925963,1311.84563336 -377.360723019,1311.75559206 " moovel_rot="-89.9" moovel_centroid="-394.498930128,1249.875223239345" moovel_centroidlatlon="-118.31660248578721,34.08384844913781"/>
  <polygon id="408076883" class="tile" points="-412.635837651,1203.24954733 -411.980145483,1228.38800972 -425.600637499,1228.87146056 -437.855414547,1229.30558979 -435.972850221,1274.16403746 -438.654437852,1274.37547409 -437.981578417,1285.5625688 -473.298796846,1284.85559893 -473.295606956,1201.0 -412.635837651,1203.24954733 " moovel_rot="-43.2" moovel_centroid="-449.892024868,1238.55826402956" moovel_centroidlatlon="-118.25014476252,34.04230773850146"/>
  <polygon id="154980249" class="tile" points="-513.78619053,1201.0 -474.342254899,1202.79169592 -474.298796846,1245.94977275 -515.599404074,1240.30770029 -513.78619053,1201.0 " moovel_rot="-0.9" moovel_centroid="-494.210568404,1222.7046056999666" moovel_centroidlatlon="-118.32782905278577,34.07765186234288"/>
  <polygon id="80620383" class="tile" points="-530.495252214,1204.2265348 -530.462451694,1202.8844225 -523.368355861,1201.0 -516.599404074,1201.25228475 -516.616190515,1216.39139177 -525.802854228,1216.52765739 -530.415843117,1216.41491837 -530.495252214,1204.2265348 " moovel_rot="-91.4" moovel_centroid="-523.409558049,1208.9854860368396" moovel_centroidlatlon="-118.3457034374527,34.05871811787677"/>
  <polygon id="244066873" class="tile" points="-545.77670283,1226.6233765 -531.495252214,1227.09147572 -531.517742198,1201.0 -545.392103369,1201.38799406 -545.77670283,1226.6233765 " moovel_rot="70.8" moovel_centroid="-538.506811833,1214.0885812503807" moovel_centroidlatlon="-118.33246732629145,34.04967581257549"/>
  <polygon id="425181742" class="tile" points="-554.363484057,1201.0 -575.074244836,1216.36042928 -575.070500166,1218.56863166 -577.32938366,1218.55728103 -577.624461235,1218.15659485 -580.72068085,1220.45223051 -580.449721001,1220.83070322 -581.251426927,1225.82643396 -581.929405523,1226.37103902 -580.48672079,1228.32879067 -578.81478188,1227.14166999 -575.119761005,1227.08223613 -575.115242798,1235.70537981 -552.477598727,1266.49919202 -546.809499735,1266.48790491 -546.821088226,1222.94007602 -550.887389671,1223.00870602 -550.875193928,1218.74600902 -549.630011788,1218.75271544 -549.630715517,1217.4207703 -546.84118739,1217.4963626 -546.77670283,1201.00677552 -554.363484057,1201.0 " moovel_rot="35.6" moovel_centroid="-559.240987255,1231.0831453010358" moovel_centroidlatlon="-118.44619973304448,34.061878685035325"/>
  <polygon id="429922080" class="tile" points="-582.970458876,1201.0 -587.757140444,1203.51468639 -588.032006529,1250.02155217 -582.929405523,1254.01586852 -582.970458876,1201.0 " moovel_rot="-0.1" moovel_centroid="-585.369417012,1227.4236995283125" moovel_centroidlatlon="-118.49264247351817,34.16444419584945"/>
  <polygon id="319038654" class="tile" points="-0.0157769601792,1360.4851272 -4.86451137252,1360.55112769 -9.66009428054,1360.57657037 -9.6506035611,1384.89747324 -9.63119781241,1391.50401014 -4.55431109704,1391.58912586 -1.28822072223,1391.57436119 -1.31610097177,1384.7106894 0.0,1384.74972504 -0.0157769601792,1360.4851272 " moovel_rot="0.4" moovel_centroid="-4.953129297745277,1375.67940901" moovel_centroidlatlon="-118.4497377919962,34.185402482465435"/>
  <polygon id="372656985" class="tile" points="-14.3005651504,1360.4851272 -27.4056129754,1361.70539928 -26.6737347528,1373.33107269 -25.0873039246,1384.28736831 -25.4867751591,1390.1403937 -27.4539978132,1400.99825338 -14.5883582216,1405.81332515 -13.7820427544,1402.67293375 -13.2358288303,1400.54557096 -11.6600942805,1390.67530832 -11.9504807495,1374.64439577 -13.9600848339,1362.51622177 -14.3005651504,1360.4851272 " moovel_rot="-14.4" moovel_centroid="-19.2830319629,1382.31422146" moovel_centroidlatlon="-118.36859272427277,34.27032549618417"/>
  <polygon id="208645242" class="tile" points="-29.7433143195,1385.47531316 -33.2543974165,1384.15484209 -43.3972276982,1376.17021721 -36.6797588859,1360.4851272 -28.4638714202,1363.96938925 -35.2595520202,1379.86229756 -28.4539978132,1382.75754641 -29.7433143195,1385.47531316 " moovel_rot="48.2" moovel_centroid="-35.6475018108,1372.06517416" moovel_centroidlatlon="-118.24233705382943,34.02689589034386"/>
  <polygon id="172763813" class="tile" points="-44.4019038256,1429.77357707 -44.3972276982,1392.25622117 -51.3399312899,1392.35998565 -52.8249189224,1360.4851272 -103.424595382,1361.33876502 -103.024513979,1397.74328962 -111.53576474,1398.20053315 -109.035606093,1469.50977024 -107.831380464,1503.99404231 -105.404826616,1503.92570519 -102.358127182,1503.84271905 -102.269462646,1506.54450337 -102.154435704,1510.26093221 -83.7737529386,1509.73567108 -83.9292540554,1504.83999415 -78.741209152,1504.69454219 -79.5518719535,1478.44138147 -58.8761791084,1478.25287029 -60.7891625196,1430.81650188 -44.4019038256,1429.77357707 " moovel_rot="-71.1" moovel_centroid="-81.6307336025,1427.42376958" moovel_centroidlatlon="-118.28125776947226,33.71780344912806"/>
  <polygon id="30724960" class="tile" points="-121.271692456,1474.07619725 -135.946211635,1473.86904314 -151.287932297,1474.07240063 -151.287809214,1470.31603764 -151.277832203,1426.28294485 -151.275599932,1416.08128873 -151.267223651,1367.3041601 -151.26575892,1360.48962066 -144.092327849,1360.4851272 -132.777790012,1360.48945923 -127.067094822,1360.48751873 -127.079687677,1406.84872951 -112.591932795,1407.20068879 -112.53576474,1412.59439225 -115.181507263,1415.97013369 -115.103857666,1441.32561056 -128.482269726,1441.3168545 -128.399897372,1454.07073236 -128.369493426,1460.0102406 -127.043780867,1465.6906373 -124.966083036,1469.78851239 -123.14503703,1472.25747066 -121.271692456,1474.07619725 " moovel_rot="0.1" moovel_centroid="-136.709439892,1418.12408302" moovel_centroidlatlon="-118.44286312971933,34.074180529928825"/>
  <polygon id="43667056" class="tile" points="-175.633497069,1361.22185146 -174.553877308,1439.89268896 -165.446196499,1441.92320108 -152.317177743,1442.01365247 -152.287932297,1360.4851272 -157.109322769,1360.63641491 -162.260045749,1360.79848079 -167.976901262,1360.9816828 -175.633497069,1361.22185146 " moovel_rot="37.7" moovel_centroid="-163.635000708,1400.86108743" moovel_centroidlatlon="-118.48256950930676,34.17435441032816"/>
  <polygon id="94563391" class="tile" points="-181.602678039,1360.51981919 -176.633497069,1360.4851272 -176.643893018,1371.43350951 -182.648600196,1371.43529789 -182.692576417,1364.17954234 -181.602678039,1360.51981919 " moovel_rot="0.4" moovel_centroid="-179.573374576,1366.09259571" moovel_centroidlatlon="-118.32414249934823,34.07371989481292"/>
  <polygon id="342876885" class="tile" points="-193.080100356,1386.03988675 -193.02425624,1386.34598888 -193.714050562,1386.47294848 -193.695473249,1386.57766026 -193.465418268,1387.80216185 -183.950117028,1386.13523445 -184.222098221,1384.56465068 -184.121696103,1384.54998305 -184.867765466,1380.09631901 -184.111185957,1379.97029184 -184.958951638,1375.14560339 -183.783532402,1375.16201641 -183.693043962,1371.07355942 -183.692576417,1360.51580835 -185.889808968,1360.4851272 -185.897212372,1361.01532255 -186.017425704,1361.01364394 -186.01888395,1361.11807635 -187.541586143,1361.09681404 -187.54472698,1361.32174538 -187.785153643,1361.31838817 -187.801651518,1361.543133 -189.51791857,1361.511133 -189.524648936,1361.9931287 -191.574841909,1361.95646591 -191.59847547,1361.25710587 -195.423851632,1362.53747146 -195.396966853,1375.44176638 -191.575180248,1374.41846724 -191.621791358,1371.05926383 -191.555903557,1371.12446239 -189.664761125,1371.07052127 -189.563315458,1374.80812656 -189.402918846,1374.80233145 -189.406957058,1375.0915283 -188.939460771,1375.0980562 -188.788262306,1375.7509872 -189.210467207,1375.84954427 -188.649730827,1378.26781702 -193.090039667,1379.09767822 -193.009051898,1379.51661906 -194.254621493,1379.74027069 -194.142821097,1380.34444226 -194.176325861,1380.35200922 -193.214007239,1386.06212133 -193.080100356,1386.03988675 " moovel_rot="-0.8" moovel_centroid="-189.12272794,1373.25987194" moovel_centroidlatlon="-118.46014417215342,34.15311074573532"/>
  <polygon id="172863964" class="tile" points="-200.611815101,1360.4851272 -244.033840952,1360.62284687 -244.045650121,1364.00591098 -246.650762788,1364.06914028 -246.590985289,1415.82823686 -241.695772962,1416.01407657 -241.694332758,1421.34182513 -200.543407042,1421.25243108 -200.65030759,1417.43504739 -196.9837464,1417.5282043 -196.423851632,1366.19718395 -200.711431541,1366.06167928 -200.611815101,1360.4851272 " moovel_rot="-0.2" moovel_centroid="-221.672331294,1390.78159763" moovel_centroidlatlon="-118.5891138688842,34.1714963686122"/>
  <polygon id="209230655" class="tile" points="-272.439310762,1405.72595678 -275.579537679,1361.67658816 -247.650762788,1360.4851272 -247.703541825,1397.4913997 -265.600900779,1397.65543369 -265.564218352,1405.61139602 -272.439310762,1405.72595678 " moovel_rot="57.0" moovel_centroid="-261.397190658,1380.28956872" moovel_centroidlatlon="-118.24859283290415,34.026038955078626"/>
  <polygon id="444028886" class="tile" points="-276.627062773,1392.72168879 -276.579537679,1360.63194598 -284.934582719,1360.4851272 -290.575579184,1360.82391274 -290.016034504,1392.7180885 -284.869745851,1392.6183857 -276.627062773,1392.72168879 " moovel_rot="-25.0" moovel_centroid="-283.445510585,1376.51412189" moovel_centroidlatlon="-118.36975072745234,34.14149998815199"/>
  <polygon id="392715075" class="tile" points="-291.575579184,1369.44035501 -294.712558468,1369.28402209 -295.912771641,1368.63799899 -296.459575443,1368.00117254 -296.926766105,1366.83129635 -296.851447038,1360.4851272 -291.586170137,1360.59031272 -291.575579184,1369.44035501 " moovel_rot="-58.7" moovel_centroid="-294.154892091,1364.80092839" moovel_centroidlatlon="-118.41244208591658,34.029802972268556"/>
  <polygon id="374998734" class="tile" points="-297.926766105,1382.61323754 -297.933708111,1360.48858726 -305.397327974,1360.4851272 -305.390035128,1382.61644743 -297.926766105,1382.61323754 " moovel_rot="-87.0" moovel_centroid="-301.66214683,1371.5507637" moovel_centroidlatlon="-118.41356737356968,34.306605947729444"/>
  <polygon id="294777550" class="tile" points="-318.462378554,1360.4851272 -309.545336902,1361.63584173 -309.67746637,1365.71186792 -306.421695295,1365.8878549 -306.397327974,1385.56197296 -315.21069999,1384.64251471 -315.003163406,1381.78437191 -318.848973299,1381.16743798 -318.462378554,1360.4851272 " moovel_rot="67.4" moovel_centroid="-312.588446638,1373.1880509" moovel_centroidlatlon="-118.35508021370794,34.053838186833445"/>
  <polygon id="391402020" class="tile" points="-355.22573331,1434.67014793 -328.084319096,1434.13497458 -326.204843553,1434.06167893 -326.519417674,1416.83402663 -319.848973299,1416.74475503 -320.081436972,1404.15086357 -321.576917138,1360.9364286 -339.859933639,1360.4851272 -339.707399052,1368.70873661 -334.444137359,1368.63468578 -334.387721486,1371.92880166 -355.227225579,1372.22709897 -355.230146119,1382.97892782 -355.228684003,1427.20580556 -355.22573331,1434.67014793 " moovel_rot="-56.3" moovel_centroid="-337.854550518,1399.15693588" moovel_centroidlatlon="-118.40116155342967,34.02255700819805"/>
  <polygon id="51233459" class="tile" points="-423.414016282,1598.24773262 -408.350470718,1593.98348809 -407.30290059,1588.46862038 -407.775778476,1569.15116675 -393.147162225,1568.14810233 -373.744869206,1567.45227204 -356.7670744,1566.56338496 -356.341512237,1479.13812149 -365.208371397,1479.13027829 -365.205410495,1480.971367 -373.66897441,1480.96164408 -373.717500819,1429.08846538 -365.410239175,1429.09917915 -365.410243642,1431.03678961 -356.385586994,1431.05015168 -356.230146119,1396.13130474 -365.308201591,1396.02727647 -365.844280813,1396.02484697 -365.838924174,1392.3195878 -381.768404161,1392.26701926 -381.710584031,1367.29785304 -385.086306909,1367.27123725 -385.252845519,1367.00751458 -385.152711446,1364.4174447 -385.118878408,1362.41059056 -389.250218533,1362.43102029 -389.243842241,1360.4851272 -394.559571668,1360.58761032 -394.6320288,1364.17790438 -398.597239917,1364.167742 -404.456352802,1364.12566149 -404.455386159,1366.10413316 -408.385793328,1366.06558734 -414.234647064,1366.17866839 -416.232443961,1366.19755075 -416.484279301,1383.43261566 -425.577888729,1383.11299898 -428.684101376,1388.96171497 -429.029124275,1398.83706332 -429.022034231,1403.73083922 -429.004198595,1418.43348093 -428.984172444,1432.23186769 -428.967248127,1446.67454106 -428.952732721,1460.96028375 -428.930347541,1475.13470609 -428.914388615,1489.53651697 -428.899841269,1503.71270564 -428.88349149,1518.51838235 -428.756651319,1532.388551 -428.89896772,1546.81918409 -428.825651466,1561.14644885 -428.809739196,1575.76736389 -423.414016282,1598.24773262 " moovel_rot="-77.3" moovel_centroid="-396.255636376,1477.86886924" moovel_centroidlatlon="-118.59972238514526,34.18736801172541"/>
  <polygon id="391402023" class="tile" points="-430.055307968,1383.24480022 -448.745133631,1384.61754964 -450.576095547,1384.6505066 -452.201784311,1384.28947901 -452.378860201,1375.83305664 -452.417072028,1360.81370724 -446.668526975,1360.61905032 -438.672891097,1360.4851272 -430.029124275,1360.56859204 -430.055307968,1383.24480022 " moovel_rot="-55.3" moovel_centroid="-441.297279315,1372.29227419" moovel_centroidlatlon="-118.40069966686885,34.02184360710419"/>
  <polygon id="385320524" class="tile" points="-453.417072028,1480.67333162 -453.467067317,1360.58964618 -460.379446471,1360.4851272 -460.575909247,1402.02008621 -478.355930008,1401.96829095 -478.484050705,1408.83919105 -461.171504305,1408.87968556 -464.736900742,1415.38098311 -465.202055794,1448.52296282 -464.384566936,1453.88943707 -466.926160862,1462.99382805 -466.977876978,1477.09859398 -463.477796938,1477.08284404 -456.770887212,1480.78654783 -453.417072028,1480.67333162 " moovel_rot="-0.4" moovel_centroid="-459.678859418,1425.8583614" moovel_centroidlatlon="-118.6074936218595,34.18366617488895"/>
  <polygon id="209359749" class="tile" points="-488.694277249,1404.44660131 -493.839610435,1403.03479603 -489.767850219,1388.60458444 -500.482605848,1385.43867713 -501.354855975,1385.07146857 -494.458935894,1361.79660547 -493.914094139,1360.4851272 -479.487321194,1367.14231277 -486.322712243,1389.55689623 -479.484050705,1391.67456495 -482.219382559,1401.80935173 -487.581723323,1400.33407965 -488.694277249,1404.44660131 " moovel_rot="-53.4" moovel_centroid="-489.481590999,1380.94973957" moovel_centroidlatlon="-118.24531974632114,34.02733075835927"/>
  <polygon id="402082782" class="tile" points="-502.354855975,1392.25793626 -502.378936099,1389.93358529 -502.354855975,1386.58064223 -502.354855975,1372.32061546 -502.507363429,1360.54523973 -512.500607589,1360.4851272 -512.588901247,1361.40685258 -520.142018022,1361.40685258 -520.142018022,1370.7376523 -520.150044708,1400.5133897 -516.690541694,1403.82625775 -513.383544112,1403.83293692 -502.362882683,1403.85965359 -502.354855975,1392.25793626 " moovel_rot="-90" moovel_centroid="-511.157190979,1382.23293486" moovel_centroidlatlon="-118.29007390646622,34.076579636782526"/>
  <polygon id="402359877" class="tile" points="-521.321497274,1402.23774848 -540.997990213,1401.88587725 -541.006270459,1360.4851272 -521.150044708,1360.79484247 -521.321497274,1402.23774848 " moovel_rot="-76.8" moovel_centroid="-531.117092931,1381.31955752" moovel_centroidlatlon="-118.3327385995754,34.062591786697816"/>
  <polygon id="213577967" class="tile" points="-548.656054394,1360.81199523 -542.006270459,1360.4851272 -542.035158167,1387.74387855 -543.695768778,1386.27023435 -543.698247708,1383.65202073 -548.08048275,1383.7887079 -548.656054394,1360.81199523 " moovel_rot="61.1" moovel_centroid="-545.104475996,1372.48365101" moovel_centroidlatlon="-118.25133951309462,34.02952892789119"/>
  <polygon id="385476451" class="tile" points="-0.0856236297637,1606.46049779 -38.5864643835,1598.24773262 -51.8612168323,1659.97773982 -13.1286561627,1668.00180461 -8.07066737339,1680.70085814 0.0,1678.00875695 -8.457030477,1648.82342015 -0.0856236297637,1606.46049779 " moovel_rot="-12.1" moovel_centroid="-24.369140406672955,1635.90191465" moovel_centroidlatlon="-118.5277755052964,34.18733449631482"/>
  <polygon id="205292453" class="tile" points="-53.8612168323,1620.03295792 -65.4539829854,1620.5409657 -65.4289598349,1598.60126998 -56.5449710265,1598.24773262 -54.4462612092,1599.92171933 -53.8612168323,1620.03295792 " moovel_rot="1.4" moovel_centroid="-59.8449491922,1609.52100797" moovel_centroidlatlon="-118.23306638400885,34.02888281998691"/>
  <polygon id="397170046" class="tile" points="-105.485300582,1679.21237513 -84.7616505481,1678.85807632 -85.6732062891,1645.98466524 -69.4558290783,1645.53167288 -66.4539829854,1645.8327944 -68.1439699396,1598.24773262 -105.511274934,1601.25646396 -105.485300582,1679.21237513 " moovel_rot="1.6" moovel_centroid="-88.7387170325,1633.88935785" moovel_centroidlatlon="-118.37063547746808,33.97608197634804"/>
  <polygon id="216267912" class="tile" points="-106.524573904,1599.23026818 -117.668079214,1598.24773262 -118.453617586,1613.16754911 -106.511274934,1614.14758555 -106.524573904,1599.23026818 " moovel_rot="-31.3" moovel_centroid="-112.296138025,1606.28374055" moovel_centroidlatlon="-118.2463518283227,34.02993069605806"/>
  <polygon id="33527552" class="tile" points="-159.574704555,1642.81194289 -160.391185681,1640.59689311 -159.94234773,1638.21643471 -158.225307233,1635.6605325 -119.489238498,1598.24773262 -123.34982221,1607.80024487 -127.184259347,1619.41849197 -128.830405657,1628.16057546 -128.565493403,1637.68740894 -126.906395525,1644.1832508 -124.304840288,1650.0385993 -119.453617586,1659.2185092 -157.812015846,1644.39202627 -159.574704555,1642.81194289 " moovel_rot="-55.8" moovel_centroid="-138.178224464,1634.09236415" moovel_centroidlatlon="-118.23809668706092,34.054968304847364"/>
  <polygon id="51231161" class="tile" points="-161.391185681,1676.87395353 -202.227610058,1762.31565245 -226.855338718,1750.57170713 -240.717754849,1779.03046533 -245.296135483,1776.69888193 -247.527323215,1771.15350427 -262.563878808,1764.73481034 -268.347125688,1756.29997863 -268.638631731,1738.87484525 -273.585456459,1727.3789644 -277.787230426,1711.31746004 -272.058452661,1699.1243124 -269.799054193,1687.69765401 -262.113631134,1671.68617698 -263.229336277,1668.48898755 -265.127966349,1663.04842768 -263.633359933,1659.89110259 -210.504842566,1685.0022108 -208.253448293,1686.06901824 -201.124596671,1670.67406186 -229.535330324,1657.3049854 -240.14596061,1648.70972809 -261.086746676,1632.1310058 -277.839114075,1624.29961203 -266.870890603,1600.10381195 -262.391379166,1598.24773262 -259.0320603,1598.64005303 -247.025927769,1604.49639799 -223.756778512,1617.03309579 -215.10043434,1622.92974414 -190.846516223,1643.4148913 -172.090128443,1662.80420214 -161.391185681,1676.87395353 " moovel_rot="64.8" moovel_centroid="-226.28819693,1691.58091794" moovel_centroidlatlon="-118.6046287626793,34.18004474525409"/>
  <polygon id="438346489" class="tile" points="-278.839114075,1623.50948747 -291.623430116,1623.51645823 -291.642635667,1600.22511841 -282.726538026,1600.2185798 -282.73105226,1598.25484358 -278.862903369,1598.24773262 -278.839114075,1623.50948747 " moovel_rot="-89.4" moovel_centroid="-285.130744671,1611.55261681" moovel_centroidlatlon="-118.2990294060729,34.05792296334016"/>
  <polygon id="207068108" class="tile" points="-292.642635667,1605.07009531 -299.717308377,1598.94868744 -300.532585314,1598.24773262 -318.352093044,1617.64714402 -330.412712967,1615.04590229 -334.396695934,1619.16448304 -338.242759936,1622.66560374 -323.30820166,1638.49455592 -333.207564688,1647.84270186 -323.564277064,1658.06292196 -329.21689765,1663.6131832 -300.77695375,1693.62822004 -299.677892655,1696.19103181 -292.657988115,1689.04135773 -315.962510525,1663.86545238 -310.855061069,1658.61813131 -316.738606455,1651.83722924 -306.561028527,1642.30695918 -316.773559649,1631.39789437 -292.642635667,1605.07009531 " moovel_rot="48.6" moovel_centroid="-315.496903886,1643.21338192" moovel_centroidlatlon="-118.23396744464675,34.03890517276163"/>
  <polygon id="427628916" class="tile" points="-358.857568967,1633.17525544 -358.858058842,1628.22114977 -350.333417631,1628.21811081 -350.332927887,1633.17221559 -343.332082218,1633.18065733 -343.330578046,1626.62081689 -339.269121449,1626.51481314 -339.242759936,1602.08058222 -339.374944143,1602.09986581 -339.373153632,1600.30766118 -341.877291027,1600.30809991 -341.865911171,1600.20103131 -342.716045129,1600.20342729 -342.721884423,1598.2663849 -363.54795136,1598.24773262 -363.575652414,1601.85187976 -367.099786967,1601.84706131 -367.088980064,1629.54353601 -363.593599106,1629.53633042 -363.593027177,1633.24174444 -358.857568967,1633.17525544 " moovel_rot="8.3" moovel_centroid="-353.222848552,1614.68784234" moovel_centroidlatlon="-118.23479923561689,34.04206096736898"/>
  <polygon id="219013328" class="tile" points="-369.90411352,1598.24773262 -369.905452318,1606.0150895 -372.679880732,1606.00048203 -372.683025672,1617.12326549 -368.105409729,1617.14215381 -368.099786967,1598.4252936 -369.90411352,1598.24773262 " moovel_rot="-37.7" moovel_centroid="-370.096033886,1609.56205278" moovel_centroidlatlon="-118.24944101741589,34.05033107275085"/>
  <polygon id="194830393" class="tile" points="-378.462110923,1639.0993213 -373.683025672,1603.19106358 -405.360620038,1598.24773262 -405.352473189,1635.26992895 -378.462110923,1639.0993213 " moovel_rot="-72.1" moovel_centroid="-390.708187524,1618.44863772" moovel_centroidlatlon="-118.44438473270561,34.05780197843298"/>
  <polygon id="175836802" class="tile" points="-421.818410275,1639.55851003 -415.179738196,1639.8546609 -409.058875853,1636.97686853 -406.740145542,1630.38961377 -406.360620038,1598.99935035 -411.90334905,1598.70895771 -421.831149364,1598.24773262 -421.818410275,1639.55851003 " moovel_rot="-83.3" moovel_centroid="-414.423362081,1618.40048785" moovel_centroidlatlon="-118.30097860472912,33.77981628602157"/>
  <polygon id="432367146" class="tile" points="-464.536016256,1678.81364025 -464.308910814,1678.82128086 -464.311227528,1681.32078693 -460.136724926,1681.329575 -460.140781008,1682.83249764 -426.918502505,1682.85488357 -426.912129707,1678.85245492 -422.831149364,1678.85336925 -422.836594473,1606.84964102 -426.877499861,1606.84865666 -426.870706324,1603.08729429 -430.677841138,1603.08590192 -453.794509578,1603.06998863 -453.789567652,1598.24773262 -460.275045335,1598.25101484 -460.278343909,1600.18795705 -461.246836031,1600.18161031 -461.253012365,1604.29660456 -464.21189395,1604.29373172 -464.207475347,1606.82540204 -464.481320876,1606.82587999 -464.536016256,1678.81364025 " moovel_rot="0.1" moovel_centroid="-443.922438341,1642.49454223" moovel_centroidlatlon="-118.60310637346339,34.18418834916629"/>
  <polygon id="384621971" class="tile" points="-492.402108857,1613.4219852 -492.40921325,1598.24773262 -465.536016256,1598.81154141 -465.905861881,1631.48146745 -475.128125826,1631.16335372 -475.274669039,1613.42954679 -492.402108857,1613.4219852 " moovel_rot="-62.3" moovel_centroid="-476.543631041,1610.81667226" moovel_centroidlatlon="-118.4145754321687,33.9798218354229"/>
  <polygon id="339841249" class="tile" points="-493.40921325,1626.81807144 -493.51381244,1622.1434885 -493.910523967,1601.29109689 -494.014357171,1598.24773262 -514.684990198,1602.99590385 -514.697920039,1609.71403353 -514.709517603,1631.80441327 -493.40921325,1626.81807144 " moovel_rot="1.2" moovel_centroid="-504.204350907,1615.03335011" moovel_centroidlatlon="-118.45199770655489,34.152198068416915"/>
  <polygon id="418123320" class="tile" points="-515.709517603,1598.24773262 -515.900853385,1717.13013896 -538.808618211,1718.13031358 -541.081771771,1715.37242388 -548.608982105,1600.39241483 -515.709517603,1598.24773262 " moovel_rot="2.5" moovel_centroid="-530.343401643,1655.74374915" moovel_centroidlatlon="-118.47243636247642,34.222333155549755"/>
  <polygon id="210678144" class="tile" points="-578.036454073,1598.64845888 -577.985668117,1638.51337714 -553.897315389,1638.67007084 -553.852143412,1632.39214925 -549.755383839,1632.55049539 -549.608982105,1604.90727603 -565.915330531,1604.41377575 -567.393372109,1598.92246567 -569.247043602,1598.9490981 -570.400461309,1598.24773262 -578.036454073,1598.64845888 " moovel_rot="49.3" moovel_centroid="-564.745294184,1619.87835437" moovel_centroidlatlon="-118.24021108900784,34.03682944785612"/>
  <polygon id="189580005" class="tile" points="-34.6050498582,1940.68789727 -32.6182043441,1940.15109575 -32.7947436959,1941.8339103 -32.2750155061,1944.01281807 -31.5967251062,1945.48469253 -5.7071701996,1949.55618402 0.0,1898.52692292 -0.613785123825,1858.24729265 -7.30642675012,1819.61769883 -14.9183564544,1779.03046533 -24.6933606595,1781.34128619 -28.9951679885,1782.62679556 -34.4760655738,1802.4322391 -33.2624073565,1812.07790022 -26.6757109635,1860.94912775 -26.0362152658,1880.90278172 -25.3139331289,1885.38533909 -26.1181835342,1888.16526654 -29.6487961885,1890.31760909 -31.0589390382,1896.02873858 -34.6050498582,1940.68789727 " moovel_rot="49.6" moovel_centroid="-17.221105835195445,1869.9718813" moovel_centroidlatlon="-118.49623936674598,34.16880082020418"/>
  <polygon id="402081399" class="tile" points="-62.0864584651,1779.65492412 -61.9441713817,1784.06155104 -66.1993087992,1783.92388098 -65.8033360437,1811.25623432 -48.1767509844,1811.29906335 -48.0379463751,1810.88114817 -47.6856618378,1810.39024016 -46.9252499193,1810.09859532 -46.776421563,1808.7253708 -46.8861411963,1796.42758891 -38.0632362783,1796.33257079 -37.9334792584,1808.63028286 -37.1386349153,1808.63553584 -36.6060139012,1808.14399817 -36.6050498582,1779.71850032 -40.8864554539,1779.70936265 -40.8325146906,1795.1621904 -46.7569018964,1795.18287049 -46.4726449389,1779.03046533 -62.0864584651,1779.65492412 " moovel_rot="0.2" moovel_centroid="-53.7477731384,1794.99796279" moovel_centroidlatlon="-118.30872884349868,34.08478750718806"/>
  <polygon id="391416452" class="tile" points="-67.2070215851,1800.70914216 -77.6990002379,1797.93184428 -77.7214370068,1795.93859066 -82.3579643,1795.97232946 -82.3699669719,1794.42370977 -81.4165744632,1794.41543183 -81.4955700785,1787.58858205 -81.6010526396,1786.03065863 -81.6692081999,1780.03533794 -67.1993087992,1779.03046533 -67.2070215851,1800.70914216 " moovel_rot="-55.9" moovel_centroid="-74.002119097,1789.05228059" moovel_centroidlatlon="-118.40397044529234,34.02004842653492"/>
  <polygon id="446904406" class="tile" points="-83.3699669719,1789.86526946 -92.3758694634,1779.03046533 -142.451410093,1820.73572918 -103.397857597,1868.96285011 -83.3877493359,1852.75898394 -113.63313861,1814.83592024 -83.3699669719,1789.86526946 " moovel_rot="39.0" moovel_centroid="-110.392907023,1826.50451381" moovel_centroidlatlon="-118.2533513578803,33.938415391718756"/>
  <polygon id="134976718" class="tile" points="-143.453731429,1820.82771086 -168.933670838,1820.82507814 -168.939365295,1779.03046533 -143.451410093,1779.03300011 -143.453731429,1820.82771086 " moovel_rot="-89.3" moovel_centroid="-156.19453944,1799.92796809" moovel_centroidlatlon="-118.39771278360406,33.94834212522899"/>
  <polygon id="339846397" class="tile" points="-179.290393277,1779.03046533 -179.292320162,1792.2646507 -170.081797289,1794.10075205 -169.939365295,1780.86131606 -179.290393277,1779.03046533 " moovel_rot="78.4" moovel_centroid="-174.648951533,1786.54799825" moovel_centroidlatlon="-118.44955252009271,34.1515008911911"/>
  <polygon id="257823763" class="tile" points="-180.292320162,1779.03046533 -194.476118632,1779.05951326 -194.490430616,1794.58970679 -180.303941391,1794.56821537 -180.292320162,1779.03046533 " moovel_rot="19.6" moovel_centroid="-187.390127508,1786.81222029" moovel_centroidlatlon="-118.21046290689057,34.12768586971595"/>
  <polygon id="351595820" class="tile" points="-225.751373648,1779.03046533 -195.490430616,1779.90905407 -195.99912677,1810.15364868 -225.748942192,1809.34518351 -225.751373648,1779.03046533 " moovel_rot="51.0" moovel_centroid="-210.751711686,1794.56643599" moovel_centroidlatlon="-118.26493496208566,34.04154455450118"/>
  <polygon id="374998729" class="tile" points="-230.877715515,1788.75322267 -230.869892474,1779.03046533 -226.88999475,1779.06000834 -226.751373648,1788.70483304 -230.877715515,1788.75322267 " moovel_rot="-48.0" moovel_centroid="-228.849752767,1783.91640023" moovel_centroidlatlon="-118.4137824005153,34.3080413335224"/>
  <polygon id="391416446" class="tile" points="-242.323605302,1792.1260458 -242.545955715,1779.70871057 -231.877715515,1779.03046533 -231.893387324,1791.55465686 -242.323605302,1792.1260458 " moovel_rot="-55.5" moovel_centroid="-237.153825266,1785.58105871" moovel_centroidlatlon="-118.4046764837461,34.01792173398442"/>
  <polygon id="337712864" class="tile" points="-243.573480627,1814.12691841 -243.545955715,1782.98663477 -244.373767198,1782.98862437 -244.366885453,1779.04094671 -256.760356274,1779.03046533 -256.757481504,1780.07244279 -256.733175774,1786.23072016 -259.505842147,1786.24639744 -259.406961888,1808.7353586 -259.406912064,1814.11238431 -243.573480627,1814.12691841 " moovel_rot="-89.4" moovel_centroid="-251.308367075,1797.16004994" moovel_centroidlatlon="-118.44918037461882,34.18149087216179"/>
  <polygon id="294777456" class="tile" points="-260.536423359,1841.20732214 -307.227440722,1857.15602449 -307.40661624,1794.40575099 -260.505842147,1779.03046533 -260.536423359,1841.20732214 " moovel_rot="-91.5" moovel_centroid="-283.959274044,1817.94008674" moovel_centroidlatlon="-118.35240464400013,34.061403246132755"/>
  <polygon id="253558620" class="tile" points="-409.117709052,1823.69915605 -404.664979463,1843.22561562 -384.493834984,1862.55568519 -343.435900774,1940.38040823 -308.40661624,1940.12202239 -313.849783591,1830.34956868 -308.463588063,1783.45033563 -349.481310172,1779.03046533 -361.167132152,1798.23083329 -381.7053899,1811.88155478 -409.117709052,1823.69915605 " moovel_rot="74.1" moovel_centroid="-346.132863124,1855.24640795" moovel_centroidlatlon="-118.4723860912566,34.28322728664733"/>
  <polygon id="220543723" class="tile" points="-410.117709052,1779.03814659 -410.119169222,1787.82131302 -412.857354774,1787.81751271 -412.855322066,1793.00057268 -414.710236361,1792.99368916 -414.702803322,1790.52235546 -415.449591399,1790.51828305 -415.444513144,1787.37235734 -420.511362983,1787.36332722 -420.514044168,1786.59522741 -421.317016334,1786.59803032 -421.310180014,1781.65539096 -421.311312951,1779.03046533 -410.117709052,1779.03814659 " moovel_rot="-89.8" moovel_centroid="-415.434131519,1784.03790174" moovel_centroidlatlon="-118.2871612776363,34.10875197421514"/>
  <polygon id="384621591" class="tile" points="-432.17327297,1779.03046533 -432.161484925,1783.42125393 -432.118678969,1816.11356065 -432.109556966,1822.45991183 -423.099442803,1822.48120944 -422.317016334,1779.3151206 -432.17327297,1779.03046533 " moovel_rot="27.6" moovel_centroid="-427.425472011,1800.49895885" moovel_centroidlatlon="-118.416739779828,33.98186027075894"/>
  <polygon id="342869352" class="tile" points="-433.218078203,1779.03046533 -478.28278649,1779.19283327 -478.186299346,1873.15830983 -471.40009124,1873.06571313 -461.214092911,1872.9228128 -457.759901909,1872.31826403 -453.203299082,1871.5147914 -453.223046882,1867.52189977 -453.714571193,1831.51291503 -453.720708239,1827.37541197 -453.72871493,1820.48224976 -453.557786636,1802.91221867 -433.17327297,1803.10847634 -433.273282785,1799.179676 -433.218078203,1779.03046533 " moovel_rot="-0.1" moovel_centroid="-461.998093641,1819.94944726" moovel_centroidlatlon="-118.44695497752569,34.152422050023006"/>
  <polygon id="402359863" class="tile" points="-479.290737796,1783.1903094 -479.28278649,1827.37831141 -497.867147315,1822.92967486 -497.596060642,1779.03046533 -479.290737796,1783.1903094 " moovel_rot="-19.9" moovel_centroid="-488.5015487,1803.18966863" moovel_centroidlatlon="-118.33098925039077,34.061477808916415"/>
  <polygon id="322551686" class="tile" points="-514.216841789,1779.49340338 -513.638536953,1795.54153555 -509.765291429,1798.97647341 -508.36843537,1801.36705597 -507.27421134,1805.08203153 -498.870477567,1804.18571661 -498.867147315,1779.03046533 -514.216841789,1779.49340338 " moovel_rot="45.4" moovel_centroid="-505.821676547,1790.86242353" moovel_centroidlatlon="-118.48232095654429,34.084869093046336"/>
  <polygon id="229731354" class="tile" points="-515.216841789,1826.72767145 -530.371129903,1827.36036297 -530.362784453,1820.82086608 -527.956476336,1820.79146602 -529.242717233,1779.20620918 -515.952024663,1779.03046533 -515.216841789,1826.72767145 " moovel_rot="-89.3" moovel_centroid="-522.237088087,1803.37176697" moovel_centroidlatlon="-118.36366335924747,34.02356534724095"/>
  <polygon id="320736616" class="tile" points="-534.337899036,1779.03046533 -531.375307381,1779.7680434 -531.371129903,1793.0461912 -534.727202833,1791.38255892 -534.337899036,1779.03046533 " moovel_rot="41.2" moovel_centroid="-532.939079731,1785.94977021" moovel_centroidlatlon="-118.38989582070097,34.14553632284738"/>
  <polygon id="256733536" class="tile" points="-535.74202974,1779.03046533 -555.270255117,1779.03783182 -555.255428118,1805.9281831 -535.727202833,1805.9208166 -535.74202974,1779.03046533 " moovel_rot="-89.9" moovel_centroid="-545.498728952,1792.4793242" moovel_centroidlatlon="-118.384069,34.07336795"/>
  <polygon id="306072930" class="tile" points="-556.270255117,1779.03046533 -560.714288362,1779.09783641 -560.411217162,1791.41950231 -556.2860339,1791.26522256 -556.270255117,1779.03046533 " moovel_rot="-1.2" moovel_centroid="-558.424102645,1785.12745112" moovel_centroidlatlon="-118.37498977153561,34.01952414389764"/>
  <polygon id="317325216" class="tile" points="-584.519920949,1902.85040932 -561.751819497,1902.85607647 -561.714288362,1779.03613247 -584.482387743,1779.03046533 -584.519920949,1902.85040932 " moovel_rot="-90.3" moovel_centroid="-573.117104138,1840.94327183" moovel_centroidlatlon="-118.44988505000002,34.18033235"/>
  <polygon id="207068136" class="tile" points="-15.395504633,1949.55618402 -17.1716332879,1953.96211653 -17.1158187166,1963.24041222 -17.1717609946,1966.19186125 -16.7643014934,1968.73335577 -15.5955748402,1973.19192697 -14.1506016836,1977.79893541 0.0,1961.85197885 -15.395504633,1949.55618402 " moovel_rot="48.2" moovel_centroid="-10.9567317968047,1963.06238198" moovel_centroidlatlon="-118.23421285021145,34.03840185071923"/>
  <polygon id="428021795" class="tile" points="-19.1717609946,2059.98425156 -19.1878692925,2008.40524118 -21.9470639534,2005.2494986 -21.9658733699,2004.10771246 -20.30197118,2004.09853743 -20.2180600267,1949.7533819 -91.7041560672,1949.55618402 -91.7129314616,2003.98973303 -89.7251777761,2003.98805461 -89.7221977435,2005.11755529 -92.5537100468,2008.50637837 -92.5671780128,2059.81838757 -91.5189800225,2060.72284637 -91.5369689099,2069.73649496 -88.3701910287,2072.9443532 -79.2887060151,2072.95141179 -78.213524498,2074.19159946 -33.5413290702,2074.20486504 -32.2577645946,2072.99690218 -23.5690856613,2072.93279453 -20.3777399436,2069.70123588 -20.2792451505,2061.08508581 -20.0954841252,2060.90267014 -19.1717609946,2059.98425156 " moovel_rot="-37.8" moovel_centroid="-55.9322569337,2011.87511698" moovel_centroidlatlon="-118.25892275063082,34.0476077565372"/>
  <polygon id="206497785" class="tile" points="-93.5671780128,1949.58383094 -122.729152571,1949.55618402 -122.770731897,1996.81885261 -112.244485649,1996.83052942 -112.297634776,2057.21800646 -107.817360268,2057.22126462 -93.6699376736,2057.23401861 -93.5671780128,1949.58383094 " moovel_rot="-89.7" moovel_centroid="-105.826660273,1997.39363331" moovel_centroidlatlon="-118.3332515335976,34.100956694815174"/>
  <polygon id="213577978" class="tile" points="-135.262858216,1949.60364945 -135.257703217,1977.06291407 -132.396533293,1977.04892414 -132.402253094,1967.92951707 -126.800286005,1967.90145192 -126.807318817,1959.10520929 -123.770731897,1959.09223468 -123.776749265,1949.55618402 -135.262858216,1949.60364945 " moovel_rot="60" moovel_centroid="-130.589671589,1959.85174832" moovel_centroidlatlon="-118.25155640577184,34.03001987864315"/>
  <polygon id="206030536" class="tile" points="-161.937025189,1982.27281059 -161.511006622,1949.61236579 -159.986864141,1949.64174264 -160.032871204,1957.61660281 -154.225033586,1957.70021038 -154.289048633,1953.01131456 -139.745150984,1953.09681109 -139.722963417,1949.57692216 -136.297490765,1949.55618402 -136.361244068,1958.50617344 -136.262858216,1984.86906712 -161.937025189,1982.27281059 " moovel_rot="-90.1" moovel_centroid="-148.482273629,1968.43740625" moovel_centroidlatlon="-118.23326240615638,34.028183820340274"/>
  <polygon id="206432157" class="tile" points="-208.068067084,2002.6243341 -191.201819063,2003.53088318 -191.71065653,1987.63131364 -162.937025189,1987.40671497 -163.204550549,1974.90844358 -169.436258967,1974.88896604 -169.429690083,1964.42800161 -163.20779286,1964.46017335 -163.206963724,1949.7251657 -180.998811767,1949.64485115 -194.84001228,1949.57546855 -199.273815301,1949.55618402 -199.279438062,1968.27304423 -199.276269505,1974.74575956 -208.061574671,1974.70992678 -208.068067084,2002.6243341 " moovel_rot="-37.7" moovel_centroid="-186.176171065,1973.52547712" moovel_centroidlatlon="-118.24973731298662,34.05031956837914"/>
  <polygon id="154643965" class="tile" points="-224.817310422,1949.64187705 -223.808787557,1949.63054316 -215.753652245,1949.55618402 -215.469520479,1964.00603784 -217.239174196,1964.04001693 -217.066486666,1972.68577979 -209.297886154,1972.64904496 -209.068067084,1983.57441745 -210.417010675,1983.60031849 -210.4182937,1983.88141746 -223.914561662,1984.13252834 -224.842486842,1984.16640681 -224.817310422,1949.64187705 " moovel_rot="1.1" moovel_centroid="-218.864903756,1968.99314499" moovel_centroidlatlon="-118.291300040579,34.103070711116196"/>
  <polygon id="392714474" class="tile" points="-233.944137664,1961.1285531 -233.812727125,1949.55618402 -233.131855966,1949.5990196 -225.85902123,1949.58486708 -225.842486842,1961.52807826 -233.944137664,1961.1285531 " moovel_rot="-59.0" moovel_centroid="-229.841951604,1955.47828707" moovel_centroidlatlon="-118.41251522005405,34.030176606590594"/>
  <polygon id="218175279" class="tile" points="-254.279874333,1949.55618402 -249.530741309,1949.61207646 -241.847850636,1949.7075287 -238.029739289,1949.75663871 -234.944137664,1949.79408045 -234.952283185,1950.87649232 -234.971014129,1952.78648376 -235.003537359,1956.72676955 -235.059958327,1964.01417671 -235.068103011,1965.09658699 -235.087335111,1967.61303568 -235.107102775,1970.02959237 -235.118874212,1971.43610593 -235.177729786,1978.46867066 -235.20745317,1982.12968479 -235.22942005,1984.53603156 -239.186016697,1984.47790344 -250.611427753,1984.31849872 -254.246578592,1984.26541675 -254.279874333,1949.55618402 " moovel_rot="-27.6" moovel_centroid="-244.672896391,1966.98990733" moovel_centroidlatlon="-118.1938776948807,34.059544842434065"/>
  <polygon id="339831632" class="tile" points="-255.279874333,1968.46834625 -255.32507696,1949.55618402 -288.409089719,1956.06989843 -288.39228026,1996.74676948 -273.875938301,1997.05516592 -273.891105946,1976.70475836 -273.003246755,1976.6342865 -272.901243749,1972.11033696 -271.679490313,1972.02949982 -271.637715179,1968.44596638 -255.279874333,1968.46834625 " moovel_rot="0.4" moovel_centroid="-275.297064063,1970.3671403" moovel_centroidlatlon="-118.45554821290806,34.15256460501469"/>
  <polygon id="426374696" class="tile" points="-314.072126283,1949.60651121 -314.066152205,1951.52720374 -331.917397661,1951.6502728 -332.311480549,1951.98414499 -332.317677257,1962.74586276 -331.998399454,1962.74573349 -332.016588774,2007.13823936 -332.335866157,2007.13836785 -332.312112647,2017.13103675 -331.948202654,2017.53862796 -328.781724926,2017.64176561 -328.806801288,2018.5138203 -327.866325543,2018.53140355 -327.859664956,2018.19718704 -318.335454629,2018.23700148 -318.336751857,2018.51934653 -317.540472881,2018.52255134 -317.539175648,2018.24020627 -304.284702421,2018.29664515 -304.28625291,2018.55146106 -303.427700421,2018.55195467 -303.421292737,2018.19020836 -293.885339145,2018.23638998 -293.883836198,2018.6115623 -293.013544031,2018.61842969 -293.009129544,2017.61645594 -289.783176968,2017.62405233 -289.431971567,2017.28516389 -289.409089719,1955.82070606 -303.353203087,1955.92860069 -303.392931579,1951.60646454 -307.52185501,1951.63818961 -307.539045595,1949.55618402 -309.713506369,1949.57167163 -311.745810831,1949.59129794 -314.072126283,1949.60651121 " moovel_rot="-28.5" moovel_centroid="-311.06980693,1985.37909422" moovel_centroidlatlon="-118.26602326206049,34.05032536833831"/>
  <polygon id="428015121" class="tile" points="-366.151489622,1949.9653752 -363.953101635,1949.97606429 -364.142689997,1989.9008562 -366.094574785,1989.88970346 -366.107389181,1993.84620238 -364.217053342,1993.86007918 -364.228332212,1998.5723421 -336.090687607,1998.72218285 -335.995266526,1961.3746722 -333.359560609,1961.41215772 -333.335866157,1955.19026516 -335.858987371,1955.1390903 -335.865600723,1949.63780082 -366.153170583,1949.55618402 -366.151489622,1949.9653752 " moovel_rot="-38.1" moovel_centroid="-349.95282988,1974.02935054" moovel_centroidlatlon="-118.24599395967427,34.05076406670992"/>
  <polygon id="372699389" class="tile" points="-367.153170583,1952.27451677 -384.687197819,1949.55618402 -384.649955217,1973.72315209 -383.022258496,1992.06192271 -380.23922859,2003.30705832 -375.807860664,2018.26220118 -373.883065726,2026.99436809 -377.330299278,2040.71275959 -383.143794797,2047.99222914 -373.850723004,2046.00348671 -368.471639091,2043.58948584 -367.153170583,1952.27451677 " moovel_rot="-34.5" moovel_centroid="-374.883672337,1990.44359832" moovel_centroidlatlon="-118.39983129657304,34.26787997568195"/>
  <polygon id="133641825" class="tile" points="-470.790188725,2070.65343843 -470.514506295,2070.82736913 -432.125671111,2070.33693862 -415.792161603,2048.20830271 -433.093272167,2017.48639371 -433.614277288,2009.8323618 -429.663544274,2002.47709334 -385.687197819,1979.35146956 -386.180668026,1952.64066983 -390.34257236,1952.58780705 -390.19397314,1949.55618402 -470.113794928,1950.27257332 -470.001866798,1953.94445291 -475.018489623,1953.91661568 -474.951995711,2066.78291916 -471.939098025,2066.8237016 -471.302255269,2067.04207325 -470.980356418,2067.80223378 -470.790188725,2070.65343843 " moovel_rot="0.6" moovel_centroid="-441.12479112,2002.31803878" moovel_centroidlatlon="-118.60222023684038,34.18205166884397"/>
  <polygon id="402079580" class="tile" points="-476.035190148,1970.12980087 -487.275111784,1970.28300185 -487.276743812,1969.34791955 -490.66484393,1969.3538329 -490.802768432,1963.93057978 -476.094226924,1963.9049085 -476.138905074,1961.30678561 -477.744642599,1961.30958815 -478.194866878,1960.95637742 -478.235721406,1960.54901877 -477.706527544,1960.14734437 -476.100790008,1960.14454183 -476.018489623,1956.69794151 -486.536693152,1956.35562355 -486.541845698,1953.40343515 -488.725890073,1953.26698426 -488.731986864,1949.77378396 -497.997477821,1949.55618402 -497.980232029,1982.4377552 -492.456486652,1982.44147279 -492.657634696,1982.19469421 -492.614696832,1979.19566762 -492.32621264,1978.88124268 -491.683872439,1978.9068383 -491.410314787,1979.24031984 -491.389174845,1982.15240525 -491.557263996,1982.44658253 -489.341350669,1982.44271503 -489.177936056,1979.47019488 -489.002331093,1978.88212059 -488.329018302,1978.25310255 -486.594824491,1978.25007581 -486.628941025,1981.70327122 -478.335313575,1981.68879609 -478.204211605,1978.60278629 -477.811353869,1978.28817918 -476.021038133,1978.23830023 -476.035190148,1970.12980087 " moovel_rot="-89.9" moovel_centroid="-488.689780468,1967.0874585" moovel_centroidlatlon="-118.29799261966268,34.09735614921036"/>
  <polygon id="376603388" class="tile" points="-498.997477821,1974.69138521 -503.543701552,1974.69721182 -503.562096434,1949.56192637 -499.007827467,1949.55618402 -498.997477821,1974.69138521 " moovel_rot="-90.6" moovel_centroid="-501.277779361,1962.12297344" moovel_centroidlatlon="-118.37122309455503,34.27600242447395"/>
  <polygon id="204762609" class="tile" points="-504.570118921,1967.04224964 -504.562096434,1949.56954236 -515.753454381,1949.55618402 -515.769499324,1967.03557047 -504.570118921,1967.04224964 " moovel_rot="-90" moovel_centroid="-510.16414993,1958.3019293" moovel_centroidlatlon="-118.23082534061086,34.03241777054173"/>
  <polygon id="384745224" class="tile" points="-516.802408994,1973.77452139 -525.915828193,1974.16234269 -526.628841918,1958.91715448 -535.306048257,1959.30779137 -535.734038021,1951.13133088 -516.769499324,1949.55618402 -516.802408994,1973.77452139 " moovel_rot="30.6" moovel_centroid="-523.889663076,1960.11653774" moovel_centroidlatlon="-118.42099175881097,33.978312831447845"/>
  <polygon id="402082258" class="tile" points="-544.045466478,1979.03952636 -543.130497038,1979.06275785 -541.982707618,1979.07344362 -538.812221552,1979.09786917 -538.837246991,1974.76965364 -536.967033345,1974.77618195 -536.76569529,1956.18864293 -538.106615221,1956.31754642 -538.330569214,1956.08967153 -538.345223671,1955.68886776 -536.734038021,1954.01801014 -536.766623848,1949.55618402 -542.008526443,1949.67814967 -541.988270058,1950.77361084 -547.26971901,1950.72845819 -547.261498783,1978.26687029 -544.042785293,1978.27142656 -544.045466478,1979.03952636 " moovel_rot="-90.2" moovel_centroid="-542.124546738,1964.15865536" moovel_centroidlatlon="-118.3082825057391,34.0767265842847"/>
  <polygon id="402310738" class="tile" points="-548.350809019,2004.60780629 -548.26971901,1949.55618402 -565.577441235,1949.75716867 -565.200212457,2003.79033272 -562.488022887,2003.77139776 -561.969559867,1999.87372746 -559.872530568,2000.24648846 -557.386649505,1999.99535683 -555.505954945,2002.71407377 -553.328121674,2003.16642263 -553.31832958,2004.56901404 -548.350809019,2004.60780629 " moovel_rot="-89.6" moovel_centroid="-556.764361846,1976.0330438" moovel_centroidlatlon="-118.30798131191607,34.05289253937561"/>
  <polygon id="374998748" class="tile" points="-566.577441235,1949.55923987 -570.853460447,1949.55618402 -570.856876682,1963.58845036 -568.839775683,1963.59152633 -568.292462232,1962.38934124 -566.582460305,1961.91125269 -566.577441235,1949.55923987 " moovel_rot="-86.1" moovel_centroid="-568.776308658,1956.26458145" moovel_centroidlatlon="-118.4132046202209,34.30725197815907"/>
  <polygon id="206030532" class="tile" points="-12.9479152333,2114.43136731 -13.2078144226,2101.3350113 -16.4404019549,2101.39097604 -16.1771472517,2116.11706569 -12.936537753,2116.06104494 -12.8927480076,2118.88609675 -26.505741182,2119.00117291 -26.4657649744,2114.38547526 -34.6409351528,2114.31564233 -34.8210429903,2074.72849768 -30.5778020147,2074.65211847 -30.6783744413,2087.82446374 -12.8037619282,2087.96684666 -12.703188993,2074.79450139 0.0,2074.20486504 -0.0109732434154,2082.97490485 -3.0833156459,2083.00303353 -3.03714949675,2087.31755984 -8.7888505429,2087.35771494 -8.83807481602,2100.99057565 -3.93762798049,2100.82277688 -3.89766178206,2103.10015014 -5.88695293106,2103.13407624 -5.75819313638,2110.08636215 -9.49793544151,2109.89205294 -9.5227539964,2114.38073746 -12.9479152333,2114.43136731 " moovel_rot="-89.6" moovel_centroid="-19.736806612074435,2097.35027043" moovel_centroidlatlon="-118.23265945986257,34.02820916075173"/>
  <polygon id="384621976" class="tile" points="-67.0674011726,2136.73034114 -67.0229803357,2074.20486504 -36.9017023642,2074.82822652 -36.8210429903,2101.40202662 -50.0202610772,2101.48329876 -50.0004596401,2136.67826248 -67.0674011726,2136.73034114 " moovel_rot="25.9" moovel_centroid="-54.7826022347,2101.20879941" moovel_centroidlatlon="-118.41617385529432,33.9788827253566"/>
  <polygon id="221515848" class="tile" points="-68.0674011726,2111.72313255 -95.4137079176,2111.83658675 -95.4305503316,2078.87458408 -90.2889921617,2078.85143499 -90.2963788982,2076.34412702 -90.2967317618,2074.28058573 -72.1082830008,2074.20486504 -72.1110397015,2079.06591079 -68.0844572112,2079.04927718 -68.0674011726,2111.72313255 " moovel_rot="61.7" moovel_centroid="-81.7165926548,2093.73093526" moovel_centroidlatlon="-118.28836909884465,34.02094856157462"/>
  <polygon id="402290592" class="tile" points="-96.7767852582,2074.51135906 -123.467321953,2074.20486504 -123.488029191,2119.74376613 -119.537999065,2121.25349148 -105.497593965,2121.69440387 -100.752507148,2119.51149849 -100.852153772,2104.51397229 -96.4305503316,2104.50625512 -96.7767852582,2074.51135906 " moovel_rot="0.1" moovel_centroid="-110.718440547,2096.88635044" moovel_centroidlatlon="-118.29444968224898,34.05314106868371"/>
  <polygon id="422876617" class="tile" points="-129.803693271,2265.36935882 -129.837790409,2261.92303867 -128.874726654,2261.91131678 -128.850543819,2264.99700874 -127.807186707,2264.99154569 -127.816122247,2261.75215088 -127.829708604,2260.69021952 -129.852321004,2260.68077221 -129.823509147,2232.4607436 -124.574444424,2232.46665562 -124.567573987,2223.04886163 -125.378182635,2223.053106 -125.374283488,2222.26493279 -125.372972265,2220.98250781 -125.52546299,2220.98330626 -125.528330684,2220.43562187 -129.886528492,2220.42504524 -129.85640496,2193.98837246 -129.198287479,2193.98492653 -129.16555424,2197.17076264 -128.130222949,2197.1653416 -128.144369301,2192.9307642 -129.853904697,2192.93303613 -129.821858158,2163.79793182 -129.179757333,2163.80124902 -129.157218175,2166.57302432 -128.089853501,2166.55407704 -128.093421081,2162.8070303 -129.819008175,2162.80938627 -129.790440656,2137.60838492 -125.632888208,2137.62001213 -125.62900677,2135.29560898 -125.630230784,2135.06184125 -124.739328851,2135.06385572 -124.739224374,2132.01811215 -124.498414527,2132.02353053 -124.488029191,2124.80987426 -129.608681252,2124.80328987 -130.225590008,2094.35576911 -127.769547915,2094.36962623 -127.740206946,2096.90759178 -126.648309873,2096.97534644 -126.764938466,2093.09530646 -129.926868705,2093.15861727 -130.307022731,2074.20486504 -176.855444941,2074.67568911 -184.99283368,2074.85856125 -184.981098573,2087.82962467 -184.837934725,2240.86410322 -184.813398149,2265.47705155 -175.029189333,2265.57944408 -129.803693271,2265.36935882 " moovel_rot="-89.7" moovel_centroid="-156.965251066,2170.0917066" moovel_centroidlatlon="-118.44674350079508,34.068240796520406"/>
  <polygon id="384622669" class="tile" points="-208.227158605,2114.41413711 -208.571780737,2074.3339547 -185.99283368,2074.20486504 -186.004408009,2088.38009992 -186.041115721,2114.47468866 -208.227158605,2114.41413711 " moovel_rot="-57.2" moovel_centroid="-197.198305001,2094.29778799" moovel_centroidlatlon="-118.41888188646443,33.97764625341261"/>
  <polygon id="317314289" class="tile" points="-239.473931595,2074.20486504 -209.571780737,2074.39764617 -210.011836243,2143.06040102 -239.473389029,2142.93345086 -239.473931595,2074.20486504 " moovel_rot="-0.2" moovel_centroid="-224.634747292,2108.56406264" moovel_centroidlatlon="-118.50159736541991,34.17883560793026"/>
  <polygon id="401898681" class="tile" points="-254.558195177,2077.77669533 -253.781836448,2081.13231172 -253.194541805,2083.72006187 -252.646518917,2088.85246023 -252.477993682,2091.32804229 -252.112874725,2091.29804075 -252.362466978,2099.40338843 -240.488979379,2100.6951163 -240.480926939,2087.55085906 -240.478425228,2079.22052769 -240.473931595,2074.20486504 -254.558195177,2077.77669533 " moovel_rot="-5.4" moovel_centroid="-246.518264448,2087.58336757" moovel_centroidlatlon="-118.28690685642664,34.09693322004649"/>
  <polygon id="207189377" class="tile" points="-255.558195177,2074.20486504 -264.307360137,2074.20502058 -264.314092038,2109.52911956 -255.558257817,2109.52932769 -255.558195177,2074.20486504 " moovel_rot="-3.1" moovel_centroid="-259.934468999,2091.86932627" moovel_centroidlatlon="-118.24026857692444,34.02749387208397"/>
  <polygon id="103941129" class="tile" points="-265.357466789,2074.47814379 -301.548310158,2074.20486504 -304.041692704,2124.47797242 -265.314092038,2128.26046403 -265.357466789,2074.47814379 " moovel_rot="37.1" moovel_centroid="-283.87046815,2100.66908879" moovel_centroidlatlon="-118.40738819428655,34.28670097910452"/>
  <polygon id="81339275" class="tile" points="-357.333387286,2080.39643311 -356.777708783,2129.13816784 -357.334283093,2136.34223115 -353.974938945,2139.55593701 -348.776874482,2139.39535253 -319.703036942,2121.85046205 -305.041692704,2111.61669162 -308.928496132,2108.06325646 -349.258455116,2074.20486504 -357.333387286,2080.39643311 " moovel_rot="-24.7" moovel_centroid="-338.94300593,2108.46849993" moovel_centroidlatlon="-118.44023377458794,34.01454833951145"/>
  <polygon id="375805823" class="tile" points="-365.267260981,2074.20486504 -361.433417716,2074.20486504 -358.334283093,2074.20486504 -358.36099977,2111.85143581 -365.293977658,2111.8433917 -365.267260981,2074.20486504 " moovel_rot="0" moovel_centroid="-361.814006914,2093.02614205" moovel_centroidlatlon="-118.38983400184846,34.258131424967"/>
  <polygon id="426912983" class="tile" points="-366.325477708,2127.37329201 -366.293977658,2074.47976846 -395.292368057,2074.20486504 -404.995391189,2088.61014053 -404.359034505,2110.06434216 -389.560279125,2129.21489885 -379.059994312,2132.02183634 -377.29453114,2127.12925877 -373.778214677,2127.20523628 -366.325477708,2127.37329201 " moovel_rot="-59.5" moovel_centroid="-383.981374402,2100.82765527" moovel_centroidlatlon="-118.62430529083669,34.224180961288404"/>
</svg>