<svg xmlns="http://www.w3.org/2000/svg" version="1.1" width="592.5px" height="1200px">
  <polygon id="2" class="bin" points="203.410958306,381.860219621 201.832004598,383.446647722 201.887416213,386.373551424 204.029581692,388.368786444 207.432050639,389.606610792 208.004566166,389.844648833 231.047105749,400.668606121 232.407915912,401.514283217 256.994533931,421.111075713 257.949051043,422.036334895 276.606535121,444.005325039 277.455395077,445.264020773 289.761539753,468.752447355 290.014180898,469.289940055 299.62977665,492.277486978 299.93996562,493.196359603 306.619339775,518.825123114 306.841319338,520.556320158 306.845324816,558.458240739 306.838511485,558.764964352 305.20964312,595.324108667 305.196696827,595.538972865 299.120623491,675.506179847 299.117197288,675.555589046 294.454245526,749.911984864 294.453848676,749.918401166 286.955470321,872.862802792 286.95063151,872.965121413 285.444377126,917.77961152 285.304897914,918.945073088 280.438586359,942.39403754 280.01592903,943.72868576 269.364881992,968.318330504 268.745665032,969.445200903 255.90408062,988.370996364 254.883604228,989.557456468 253.183797384,991.129293396 238.170516564,1004.98236715 237.078147434,1005.80512294 225.272649356,1012.97582126 223.597461382,1013.70851733 198.58527438,1020.86775804 197.544691927,1021.08024141 187.283705656,1022.35998252 185.020697458,1023.50717269 184.006051077,1025.83262837 184.704231142,1028.27184873 186.795638676,1029.70825603 214.256423944,1036.91711751 217.701104884,1039.47382209 218.421515374,1043.70271957 194.962614386,1152.14386626 190.430010835,1157.13795227 184.348553998,1159.08501698 182.375970237,1160.57007912 180.34150281,1163.60860376 179.86152418,1166.75856917 185.565368125,1186.04298224 187.156976965,1188.14874447 187.786646775,1188.54696458 190.774083484,1188.99645236 197.33429874,1187.21440671 201.095042511,1187.26462899 214.338993174,1191.24494901 217.869510943,1194.29310214 217.953829393,1198.95665054 216.539282273,1202.28216327 216.361790867,1204.69766301 217.697829794,1206.71784671 219.990073234,1207.499999 445.640128972,1207.499999 448.291779401,1206.40164943 449.390128972,1203.749999 449.390128972,3.75 448.291779401,1.09834957055 445.640128972,0.0 200.496515634,0.0 198.266300253,0.735262971226 196.910642092,2.65272567858 195.212108636,8.20350369218 195.068009923,8.91372896284 191.746765298,40.920396545 191.768655856,41.8665789595 195.139824421,64.2236216024 195.388657392,65.1122790535 204.264049593,86.318511927 204.584932878,86.9233200391 213.007259105,99.8008175472 213.825936202,104.108735775 211.368057003,107.74015719 148.50785081,149.318868422 146.859871028,151.948604008 147.757505041,154.919395114 150.585967118,156.196559509 199.907705048,156.074162745 203.892536399,157.66245999 205.672882492,161.56527139 208.524424833,223.236471076 209.4069103,225.48458565 222.463535696,240.925661753 224.074499781,245.363758334 223.828132991,289.921479867 222.457691459,293.986549592 205.450365323,316.602132958 204.697619829,318.890656836 205.238307395,377.395833894 203.410958306,381.860219621 " moovel_rot="0" moovel_centroid="342.92135139623804,583.2762557217311" moovel_centroidlatlon="0,0"/>
  <polygon id="59386168" class="tile" points="-84.7719200831,1201.0 -1.0,1202.92513427 -2.14892676622,1285.16329319 -84.6629457809,1286.89915685 -84.7719200831,1201.0 " moovel_rot="-36.6" moovel_centroid="-43.44688452138744,1243.888653374825" moovel_centroidlatlon="-74.09001126638121,40.569871993090075"/>
  <polygon id="331122537" class="tile" points="-85.7719200831,1201.73647561 -102.937884044,1201.0 -102.926412295,1218.74202193 -86.462844263,1220.28651162 -85.7719200831,1201.73647561 " moovel_rot="-41.0" moovel_centroid="-94.4576199003,1210.383999749019" moovel_centroidlatlon="-73.9214985963393,40.695753694345875"/>
  <polygon id="442637468" class="tile" points="-122.208343384,1201.0 -127.065494767,1209.19889442 -127.0993603,1228.28044665 -103.937884044,1228.95646058 -103.94643166,1209.78771753 -122.208343384,1201.0 " moovel_rot="-17.6" moovel_centroid="-115.902971892,1216.8454208510675" moovel_centroidlatlon="-73.90318741770555,40.75342204407875"/>
  <polygon id="299854197" class="tile" points="-132.189087474,1240.26254959 -136.999849144,1233.57565379 -135.658681729,1227.36649345 -135.113916278,1210.89320194 -136.974763088,1201.0 -129.154150807,1204.72568379 -128.450288185,1211.60230851 -128.0993603,1217.04865436 -128.684327441,1222.89790133 -129.34956759,1228.92445109 -130.367983016,1234.09602599 -132.189087474,1240.26254959 " moovel_rot="38.8" moovel_centroid="-132.430382301,1219.7888323688662" moovel_centroidlatlon="-73.91694295782767,40.792028080299595"/>
  <polygon id="373545746" class="tile" points="-137.999849144,1236.02302112 -151.876803567,1234.9930038 -148.097299545,1201.0 -138.005092842,1202.19809979 -137.999849144,1236.02302112 " moovel_rot="7.6" moovel_centroid="-144.059280587,1219.4377029615553" moovel_centroidlatlon="-73.77977781673498,40.79453547501419"/>
  <polygon id="443296707" class="tile" points="-152.879693744,1201.0 -160.337710093,1232.29643407 -152.876803567,1264.51973411 -188.660966164,1280.79802864 -196.02249601,1252.56121032 -197.047261457,1218.31052554 -194.986181891,1201.63726523 -152.879693744,1201.0 " moovel_rot="28.1" moovel_centroid="-176.450166178,1237.0509059968058" moovel_centroidlatlon="-74.12662177201356,40.54334597668121"/>
  <polygon id="292846308" class="tile" points="-198.051004457,1224.29019215 -210.106517975,1224.28520286 -210.10240356,1209.42629142 -210.105267157,1201.0 -198.218369418,1201.21274197 -198.051895839,1203.91577799 -198.047261457,1208.68799863 -198.056631803,1219.43710151 -198.051004457,1224.29019215 " moovel_rot="-29.0" moovel_centroid="-204.091983844,1212.7057569475485" moovel_centroidlatlon="-73.99416040900434,40.74781951937909"/>
  <polygon id="285961421" class="tile" points="-217.957926708,1300.16721071 -250.744264746,1216.28718832 -257.359381102,1201.0 -262.196778256,1243.33208053 -264.735925346,1281.51250528 -256.550030974,1282.47812102 -255.870298613,1285.28287787 -261.101529718,1302.93201276 -263.235268285,1319.2086608 -263.234418319,1325.79416081 -264.72182338,1333.38606009 -242.320310846,1324.48920229 -240.857334411,1327.24359075 -211.106517975,1314.82504677 -217.957926708,1300.16721071 " moovel_rot="-28.0" moovel_centroid="-244.651151951,1281.2210009827522" moovel_centroidlatlon="-73.89894726111052,40.65224095369454"/>
  <polygon id="326257588" class="tile" points="-274.939948242,1237.61137499 -274.884720803,1234.13188675 -274.857580022,1207.21933259 -275.081863622,1201.22281295 -270.883210192,1201.12418635 -269.107327823,1201.07838399 -265.735925346,1201.0 -265.771542999,1237.75307754 -269.884301279,1237.63496182 -274.939948242,1237.61137499 " moovel_rot="55.3" moovel_centroid="-270.315215432,1219.35348438827" moovel_centroidlatlon="-73.88515125522927,40.859438528250145"/>
  <polygon id="184663691" class="tile" points="-300.72651858,1248.18916858 -300.72652406,1241.07991387 -300.724032024,1238.44680106 -300.722070471,1232.49847359 -296.576768908,1232.52012085 -296.587905834,1233.86035317 -288.212822801,1233.83753341 -288.219485288,1231.36537871 -283.137930484,1231.32353883 -283.266429423,1223.50704552 -281.982829864,1223.50564478 -281.979904598,1219.28572413 -300.890553104,1219.29851554 -300.891419725,1217.74736978 -300.926684226,1208.9946839 -300.883602223,1201.01893452 -276.081863622,1201.0 -276.107023325,1248.17149771 -300.72651858,1248.18916858 " moovel_rot="8.7" moovel_centroid="-287.529470124,1224.1697708618478" moovel_centroidlatlon="-73.94169630760653,40.59751278213287"/>
  <polygon id="307215788" class="tile" points="-304.839102954,1201.05106398 -301.932716091,1201.1247972 -301.926684226,1218.45455607 -308.386302648,1222.80575231 -318.376186636,1239.13357582 -332.781485558,1227.6522475 -333.331568212,1205.21460873 -313.390347948,1205.80084363 -313.31719757,1201.0 -304.839102954,1201.05106398 " moovel_rot="-30.1" moovel_centroid="-318.18494838,1217.475902923106" moovel_centroidlatlon="-73.90373895871555,40.62418444317323"/>
  <polygon id="182759612" class="tile" points="-340.182601938,1203.85992945 -343.684924103,1201.0 -343.68286507,1233.91241052 -334.564618332,1223.22851011 -334.331568212,1217.88564847 -334.584755232,1208.78495183 -340.182601938,1203.85992945 " moovel_rot="-87.8" moovel_centroid="-339.678939447,1216.7949606153736" moovel_centroidlatlon="-73.9327944089978,40.5757965769664"/>
  <polygon id="286758894" class="tile" points="-344.691155588,1424.0075561 -396.670105528,1422.90779124 -398.159793463,1321.69685931 -396.630130282,1201.0 -344.684924103,1202.37951986 -344.691155588,1424.0075561 " moovel_rot="-2.8" moovel_centroid="-371.053500092,1312.6230144932908" moovel_centroidlatlon="-73.84449381257652,40.767367525817185"/>
  <polygon id="158041949" class="tile" points="-399.443101346,1205.96642189 -404.386723028,1206.06360271 -404.342717961,1201.02112152 -438.921910543,1201.0 -438.820760437,1205.48245512 -450.35101692,1205.66247839 -450.364346329,1271.48231427 -442.769195357,1271.40827459 -442.548527074,1278.26841242 -441.032559549,1281.3599418 -431.153052804,1287.40981189 -427.108308522,1279.33278632 -422.152337903,1281.64748815 -399.159793463,1232.43728784 -399.443101346,1205.96642189 " moovel_rot="-0.5" moovel_centroid="-427.189995526,1237.7912319566594" moovel_centroidlatlon="-73.80563454940152,40.65325876202815"/>
  <polygon id="299944956" class="tile" points="-451.364346329,1201.10403236 -465.389422328,1201.0 -465.927442092,1219.07578571 -459.09664634,1219.05851895 -459.438205939,1238.80238873 -459.951895406,1248.7786134 -451.370496157,1248.4744529 -451.364346329,1201.10403236 " moovel_rot="-61.8" moovel_centroid="-457.022368479,1221.6185136529434" moovel_centroidlatlon="-73.92831585425965,40.78570363651582"/>
  <polygon id="295411030" class="tile" points="-473.281672682,1201.16184506 -473.303882376,1214.32299882 -466.927442092,1214.15102272 -467.285612837,1201.0 -473.281672682,1201.16184506 " moovel_rot="77.3" moovel_centroid="-470.198786598,1207.7263780625042" moovel_centroidlatlon="-73.95336556825642,40.7461468216266"/>
  <polygon id="63406803" class="tile" points="-478.199098105,1201.24865391 -485.709218204,1202.01505128 -487.412377341,1205.10705321 -492.278909772,1205.2135226 -494.349844459,1223.81744459 -506.954375354,1222.62252954 -508.425741878,1231.35573821 -507.343258136,1251.15346729 -503.251369526,1273.13733045 -488.295186474,1272.09460156 -478.359448442,1270.37006442 -479.378420959,1264.87384432 -474.303882376,1263.26280251 -477.946025792,1247.20728799 -477.498944921,1232.9819067 -474.337720346,1201.0 -478.199098105,1201.24865391 " moovel_rot="37.2" moovel_centroid="-490.472798734,1240.2009055041642" moovel_centroidlatlon="-73.8251633324527,40.82193501389987"/>
  <polygon id="231971612" class="tile" points="-509.450113842,1201.0 -520.175987322,1201.04845205 -520.146876138,1233.02238971 -516.627391357,1233.00682468 -516.632111301,1227.52042156 -509.425741878,1227.48751712 -509.450113842,1201.0 " moovel_rot="47.9" moovel_centroid="-515.029320412,1215.2866045610124" moovel_centroidlatlon="-73.91402049118314,40.782325507273576"/>
  <polygon id="185148209" class="tile" points="-521.558438758,1243.36851108 -528.237976427,1243.31677546 -545.055961693,1243.20354424 -551.668136075,1243.15154136 -551.682046135,1223.35803385 -551.692216766,1201.0 -521.175987322,1201.23276495 -521.558438758,1243.36851108 " moovel_rot="7.7" moovel_centroid="-536.52527852,1222.1412494739434" moovel_centroidlatlon="-73.93779032070202,40.590146883508645"/>
  <polygon id="448157970" class="tile" points="-51.5900328107,1434.5499984 0.0,1531.30548343 -90.5909921447,1581.98493273 -93.4438682495,1570.67461595 -36.1019258838,1538.56312819 -65.8959914954,1482.24308205 -54.4769113066,1475.15422555 -68.3709590821,1450.60604783 -80.5954384888,1457.43385696 -93.4589542782,1432.59461966 -56.537987115,1424.0075561 -51.5900328107,1434.5499984 " moovel_rot="-92.4" moovel_centroid="-46.59218780397671,1497.09884251" moovel_centroidlatlon="-73.77634192006155,40.658536597617456"/>
  <polygon id="313670397" class="tile" points="-100.574515044,1424.0075561 -135.282088783,1426.13913331 -135.292497944,1470.2513951 -95.4589542782,1469.52917184 -96.6265160961,1438.81273627 -100.574515044,1424.0075561 " moovel_rot="23.0" moovel_centroid="-115.941158122,1447.8656325" moovel_centroidlatlon="-74.19249245152281,40.53412761619749"/>
  <polygon id="220953322" class="tile" points="-168.075063654,1498.50513051 -179.969057374,1488.68300228 -160.838584968,1465.34298758 -158.022439458,1461.90522946 -153.266920397,1456.0963325 -179.940669985,1434.55576701 -171.634868439,1424.0075561 -138.652447806,1451.22480698 -136.292497944,1453.22860425 -141.219722276,1459.07728965 -137.489819208,1462.24986534 -168.075063654,1498.50513051 " moovel_rot="-81.3" moovel_centroid="-159.018745103,1461.29512024" moovel_centroidlatlon="-73.91342171438674,40.77917844139661"/>
  <polygon id="219804228" class="tile" points="-191.299928612,1424.0075561 -180.969057374,1460.57304443 -204.516774162,1466.80927021 -192.607618277,1510.87258255 -221.885796029,1493.4163358 -243.421010937,1491.52390846 -243.474426272,1438.8663195 -238.372976662,1437.07724454 -191.299928612,1424.0075561 " moovel_rot="67.0" moovel_centroid="-215.386605897,1462.3295861" moovel_centroidlatlon="-73.97617714919114,40.616863124703436"/>
  <polygon id="244999296" class="tile" points="-244.506283394,1426.56303314 -244.642797312,1429.25578578 -244.515245156,1460.94593111 -244.523697626,1469.93012977 -244.474426272,1471.96012753 -261.152507365,1472.17312298 -261.201151861,1463.63435201 -263.802855234,1463.67993282 -263.481036415,1472.30739295 -278.883884309,1472.45086807 -279.099063032,1445.07671291 -264.505913536,1444.9776482 -264.246126847,1459.02898832 -260.861537079,1459.00710873 -261.369274938,1424.0075561 -244.506283394,1426.56303314 " moovel_rot="-5.6" moovel_centroid="-259.380705579,1452.27078685" moovel_centroidlatlon="-73.91054122318559,40.88987661353603"/>
  <polygon id="241824860" class="tile" points="-310.298508611,1424.0075561 -280.231609131,1424.21796455 -280.099063032,1559.66328343 -298.190593486,1558.92742922 -302.160241332,1562.22944972 -301.115721836,1574.99281138 -317.939813144,1585.9772882 -356.946930861,1524.77016157 -317.691731275,1499.15186073 -319.253879553,1479.11997381 -311.62919592,1478.49554803 -312.880911705,1438.78643049 -309.359563956,1438.77059659 -310.298508611,1424.0075561 " moovel_rot="-26.2" moovel_centroid="-306.784000313,1509.05763208" moovel_centroidlatlon="-74.17750411048368,40.614816833278454"/>
  <polygon id="317242929" class="tile" points="-429.09392853,1424.0075561 -400.856699131,1459.97138615 -394.990331773,1455.64931143 -357.946930861,1502.92529713 -378.512041084,1519.13283906 -437.28937359,1565.47605376 -442.462392072,1559.36328534 -438.146313461,1555.64578795 -439.485981409,1554.14625504 -429.679158827,1545.1821763 -432.484047902,1541.60188372 -422.559943296,1533.69720347 -389.976500345,1508.3110293 -385.512692383,1504.82821031 -418.522949347,1464.46161691 -420.046740472,1462.48426688 -442.432976824,1433.33317643 -429.09392853,1424.0075561 " moovel_rot="43.3" moovel_centroid="-402.015668027,1493.38379619" moovel_centroidlatlon="-73.9795908913774,40.71275562580336"/>
  <polygon id="299906179" class="tile" points="-444.19701203,1429.55800437 -452.46949291,1424.0075561 -451.50595331,1427.16778648 -450.311238592,1435.38683527 -450.582382203,1444.37690355 -452.457409953,1452.76529551 -447.460191652,1458.54721939 -446.168003286,1453.9910319 -444.707480872,1448.28372361 -443.898022788,1442.61099198 -443.727364259,1437.71404268 -443.462392072,1434.47720092 -444.19701203,1429.55800437 " moovel_rot="-12.6" moovel_centroid="-447.807429013,1441.11549775" moovel_centroidlatlon="-73.91875229401468,40.79579690255526"/>
  <polygon id="443136829" class="tile" points="-528.269908231,1424.17590344 -528.262133582,1500.05779986 -453.46949291,1499.88296804 -453.478889916,1424.0075561 -528.269908231,1424.17590344 " moovel_rot="73.7" moovel_centroid="-490.870638471,1462.0311953" moovel_centroidlatlon="-74.1677604704931,40.580683655253445"/>
  <polygon id="157893342" class="tile" points="0.0,1639.65437752 -33.2307078972,1639.71777108 -33.199366048,1585.9772882 -81.9267526181,1586.07519128 -82.0154134948,1715.98552141 -76.981962931,1715.97819238 -76.9325138943,1633.06501168 -43.2899272945,1632.99225064 -43.3258120414,1684.3568741 -0.0220035083592,1684.27633585 0.0,1639.65437752 " moovel_rot="21.2" moovel_centroid="-44.49695544530194,1637.21308984" moovel_centroidlatlon="-73.82640910015554,40.582146458993726"/>
  <polygon id="258957574" class="tile" points="-84.0154134948,1659.91279108 -85.9749281473,1659.78502736 -99.4157744348,1659.43079397 -121.26636913,1599.25196489 -84.0339588434,1585.9772882 -84.0154134948,1659.91279108 " moovel_rot="-48.7" moovel_centroid="-97.7211002757,1621.15052884" moovel_centroidlatlon="-73.84461417479525,40.756298536927765"/>
  <polygon id="191322636" class="tile" points="-122.282659302,1629.3479324 -122.26636913,1585.98576512 -154.716470223,1585.9772882 -154.732764958,1629.33945539 -122.282659302,1629.3479324 " moovel_rot="-91.1" moovel_centroid="-138.499565898,1607.66261079" moovel_centroidlatlon="-73.98100975,40.698710399999996"/>
  <polygon id="299606243" class="tile" points="-155.73991437,1586.11663602 -172.537310891,1586.02802926 -175.506676138,1585.9772882 -175.561377047,1606.91092037 -172.882973566,1607.08034818 -169.219217837,1607.05742003 -157.553686525,1607.13458502 -155.732764958,1607.11578634 -155.801526102,1589.21007741 -155.771492475,1587.75929165 -155.73991437,1586.11663602 " moovel_rot="56.2" moovel_centroid="-165.649980963,1596.58030788" moovel_centroidlatlon="-73.92909967780474,40.788129772444414"/>
  <polygon id="59389844" class="tile" points="-177.670113077,1665.21825522 -176.561377047,1604.02880154 -178.712017307,1585.9772882 -186.81041131,1586.8923854 -193.706107206,1587.67458745 -192.852395706,1606.94039915 -193.615216311,1665.3648417 -184.286619865,1665.28512943 -177.670113077,1665.21825522 " moovel_rot="-47.1" moovel_centroid="-185.207128967,1626.1363104" moovel_centroidlatlon="-74.188965551337,40.51897988731783"/>
  <polygon id="370606184" class="tile" points="-194.775290055,1585.97807365 -220.59432296,1585.9772882 -220.680299879,1633.97036774 -194.706107206,1634.26687892 -194.741545871,1610.20590211 -194.775290055,1585.97807365 " moovel_rot="-62.3" moovel_centroid="-207.676034617,1610.0722709" moovel_centroidlatlon="-73.94370931015241,40.74519630304419"/>
  <polygon id="182103072" class="tile" points="-264.260943379,1645.31823503 -221.680299879,1645.40585561 -221.718707552,1586.05545183 -264.30521971,1585.9772882 -264.260943379,1645.31823503 " moovel_rot="-68.7" moovel_centroid="-242.990726933,1615.68852644" moovel_centroidlatlon="-73.93308576877797,40.55178113374533"/>
  <polygon id="404110991" class="tile" points="-271.61186821,1585.9772882 -265.476474376,1590.83825226 -265.30521971,1725.08928341 -301.12794843,1718.50732887 -271.61186821,1585.9772882 " moovel_rot="21.1" moovel_centroid="-277.652057507,1670.45017175" moovel_centroidlatlon="-73.76708353406248,40.73638025215342"/>
  <polygon id="222672433" class="tile" points="-337.759661369,1602.55989879 -327.335231226,1602.32508881 -327.439637995,1586.99629681 -305.756762061,1585.9772882 -302.230979358,1695.62724744 -305.458768062,1702.48302951 -302.12794843,1778.9492835 -303.885271401,1797.53243033 -303.693210728,1818.67915304 -361.56524072,1818.99075315 -354.02592199,1790.178969 -361.321730943,1765.63997769 -368.469287849,1756.67247694 -375.64270688,1759.58320367 -382.397096834,1782.20144107 -426.083729625,1771.8330571 -430.528710961,1766.33974965 -434.012387968,1769.05362928 -434.893515149,1772.00800441 -458.004746888,1772.86670483 -451.771957838,1745.92051102 -448.93013754,1730.86086215 -452.928176735,1729.25185398 -441.130027484,1680.81991141 -434.423424158,1681.95273235 -432.867287198,1673.52691286 -408.49708821,1679.88522258 -415.655165463,1718.87892746 -400.562762387,1722.70358207 -404.853278512,1743.48384923 -374.718883774,1749.52418425 -365.271496012,1710.10318552 -338.590828759,1716.04901621 -328.012586192,1669.17639884 -353.797753543,1663.4336084 -344.430273246,1621.92637154 -337.759661369,1602.55989879 " moovel_rot="55.0" moovel_centroid="-358.12861528,1722.82386404" moovel_centroidlatlon="-74.02388982944949,40.60746797415618"/>
  <polygon id="266170589" class="tile" points="-459.004746888,1610.01543864 -459.013783128,1585.9772882 -476.660244926,1585.98772906 -476.646935123,1610.01816978 -462.190247087,1610.01726944 -459.004746888,1610.01543864 " moovel_rot="-29.0" moovel_centroid="-467.830903767,1597.99950512" moovel_centroidlatlon="-73.98332850574889,40.759229129372926"/>
  <polygon id="288448676" class="tile" points="-485.285324528,1585.9772882 -484.059392485,1590.31698152 -480.652576299,1602.37200527 -479.482187334,1606.53659889 -477.660244926,1612.80781949 -478.222612767,1612.95744467 -482.526896168,1614.17234198 -483.985985082,1614.58371075 -488.298752132,1615.80566313 -485.751359484,1624.8135615 -486.318979442,1625.72822751 -486.047995041,1626.69226439 -485.038802423,1627.2497859 -484.10511354,1630.5393742 -484.698184945,1631.47520758 -483.441917164,1635.92103563 -477.670063277,1634.28772347 -518.179496992,1646.09294735 -524.799574208,1622.65879484 -519.060369944,1620.81060386 -503.690721916,1616.47105638 -510.252090784,1593.25767658 -485.285324528,1585.9772882 " moovel_rot="-13.0" moovel_centroid="-499.577196388,1617.53601486" moovel_centroidlatlon="-73.99035269551817,40.75791372042157"/>
  <polygon id="244091365" class="tile" points="-525.846153602,1585.98171574 -525.799574208,1641.76258782 -542.194580374,1641.75815706 -542.241181868,1585.9772882 -525.846153602,1585.98171574 " moovel_rot="-81.7" moovel_centroid="-534.020372439,1613.86993094" moovel_centroidlatlon="-73.99700410000003,40.5754753"/>
  <polygon id="354589536" class="tile" points="-543.245355546,1611.25646653 -543.241181868,1586.21956953 -561.746949773,1585.9772882 -561.730355926,1611.32920436 -543.245355546,1611.25646653 " moovel_rot="-29.6" moovel_centroid="-552.51022703,1598.6931952" moovel_centroidlatlon="-73.95665178116025,40.8010520158076"/>
  <polygon id="185193615" class="tile" points="-566.337673294,1617.23984224 -562.750600811,1614.50850463 -562.746949773,1586.25240166 -575.531125269,1585.9772882 -575.84195071,1590.939813 -576.022350489,1603.58988811 -566.337673294,1617.23984224 " moovel_rot="-51.1" moovel_centroid="-568.758846825,1599.40572269" moovel_centroidlatlon="-73.91906073711037,40.64024903640508"/>
  <polygon id="244091357" class="tile" points="-0.00835432223976,1819.01247028 0.0,1874.1366907 -29.0015999274,1874.10835265 -29.0090732574,1818.99075315 -0.00835432223976,1819.01247028 " moovel_rot="-82.1" moovel_centroid="-14.504466597461683,1846.56220633" moovel_centroidlatlon="-73.99049602775465,40.57542455305157"/>
  <polygon id="59392903" class="tile" points="-31.0090732574,1818.99149841 -31.0802609958,1927.06562838 -62.0225932026,1927.06492702 -61.9514088405,1818.99075315 -31.0090732574,1818.99149841 " moovel_rot="4.4" moovel_centroid="-46.5158351205,1873.02820075" moovel_centroidlatlon="-73.77413945,40.5965475"/>
  <polygon id="306425802" class="tile" points="-86.2193348939,1899.22275222 -63.1361070486,1898.845227 -63.0599945057,1843.33702304 -63.0476914829,1833.15988489 -63.0225932026,1818.99075315 -89.8339049483,1820.28369586 -86.2193348939,1899.22275222 " moovel_rot="46.8" moovel_centroid="-75.555158776,1858.34235232" moovel_centroidlatlon="-73.86609346770285,40.76792385743593"/>
  <polygon id="320632326" class="tile" points="-90.8361124739,1818.99075315 -103.555579205,1820.04960413 -103.801782356,1831.18895835 -108.756572366,1831.08039392 -110.187651546,1831.05116789 -110.28127751,1835.33775068 -114.846958642,1835.23393592 -114.990439203,1841.88577023 -114.858132599,1851.31691586 -90.8339049483,1851.50364589 -90.8361124739,1818.99075315 " moovel_rot="82.4" moovel_centroid="-101.180482942,1837.68206343" moovel_centroidlatlon="-74.00776213025983,40.730522126311584"/>
  <polygon id="261699873" class="tile" points="-134.029371604,1889.57539861 -134.038095384,1852.16654493 -137.495988178,1852.16557489 -137.502185947,1819.00214547 -128.376903261,1818.99075315 -128.372529444,1830.84336829 -116.009222241,1830.82244484 -115.990439203,1889.54939547 -134.029371604,1889.57539861 " moovel_rot="11.1" moovel_centroid="-126.346639121,1856.01651195" moovel_centroidlatlon="-73.87466180438349,40.66970964998165"/>
  <polygon id="248672190" class="tile" points="-138.502185947,1863.48491029 -139.397790375,1831.80719912 -143.038297621,1831.85037551 -147.726393998,1823.50562902 -161.823106818,1818.99075315 -161.870560798,1864.24572588 -138.502185947,1863.48491029 " moovel_rot="-78.0" moovel_centroid="-151.151751245,1843.99521247" moovel_centroidlatlon="-73.84065540225714,40.66453973375564"/>
  <polygon id="364973316" class="tile" points="-172.465265101,2008.75281884 -177.648930601,2008.70177217 -177.504462076,2006.79967556 -177.517581496,2004.84181884 -178.167300859,2003.77626641 -178.919303717,2003.29291052 -181.860254205,2003.2432071 -198.265019716,2003.10141798 -198.597233628,1995.04139666 -193.611897487,1995.14149621 -193.607785703,1994.88519673 -193.547369795,1992.69932001 -182.636756083,1992.80015077 -182.60853638,1993.9733738 -182.646768965,1996.49876475 -182.279158966,1998.23850349 -181.958927811,1999.35868899 -181.081897511,1999.97727798 -179.642906548,2000.12840881 -178.392226364,1999.97520994 -177.697013973,1999.13038562 -177.427697743,1990.22952468 -177.25508239,1973.7489943 -177.101037153,1955.80746745 -176.826038793,1923.92385715 -178.136468787,1922.32108769 -179.872286949,1921.17059249 -181.879771698,1920.74069194 -183.391815829,1920.7301065 -184.510473901,1920.72463619 -185.555525797,1920.95653922 -186.171675513,1921.5418741 -186.070924926,1925.05461309 -206.970459529,1925.13232694 -207.14958228,1923.18778457 -207.411515281,1921.69342403 -208.093481158,1921.12899973 -209.886788115,1920.68685438 -211.302370087,1920.65654251 -221.257574062,1920.55876541 -222.628241357,1920.63273844 -224.781563962,1920.44017954 -226.273689058,1920.69736101 -228.057020003,1921.34175644 -228.758616206,1922.37113626 -229.285041138,1924.13956713 -229.380701643,1910.15987178 -228.734902242,1911.92524818 -227.901123257,1912.62064211 -226.986004415,1913.12828837 -224.277528396,1913.59081776 -222.134527504,1913.71509942 -222.70991402,1905.11257473 -221.387086694,1825.68262283 -220.746913943,1825.10875874 -219.307671355,1825.21614771 -216.337644534,1825.33332361 -213.843338243,1824.85542991 -212.705150155,1824.24162047 -211.89473628,1823.37627154 -211.291984921,1822.31673856 -210.916002349,1821.12942798 -210.847149153,1819.82713179 -210.863872196,1818.99075315 -205.267489618,1819.42401883 -205.496506238,1821.12981568 -205.397257793,1822.99967365 -204.998941403,1824.03532461 -204.449981246,1824.93337563 -203.139863059,1826.11448901 -200.927965511,1826.84178461 -183.76118805,1828.57527289 -181.778274343,1828.61578178 -180.72443188,1828.24919249 -178.711187035,1826.69856101 -177.504749727,1824.8917992 -177.004304522,1822.50914367 -177.137539137,1819.54126858 -172.329202958,1819.71759636 -172.28234952,1822.81721228 -172.032135496,1825.92378652 -171.513695378,1827.96945216 -170.869870796,1829.13208251 -169.906453187,1829.61892803 -168.414050913,1830.27065813 -162.915024243,1830.4113285 -162.935015247,1914.66165362 -162.870560798,1915.09931899 -166.268134575,1915.34080784 -165.922289411,1920.4860596 -167.207812945,1920.64699213 -168.513981311,1920.67137078 -169.95229962,1920.8762904 -171.104432847,1921.59064479 -172.02537103,1922.59813222 -172.82348704,1924.13450388 -172.983322018,1925.91231787 -172.465265101,2008.75281884 " moovel_rot="-66.7" moovel_centroid="-191.955082458,1883.67236117" moovel_centroidlatlon="-74.05799861087488,40.60135581967516"/>
  <polygon id="185021231" class="tile" points="-241.703521448,1861.22616155 -263.997999804,1865.20209339 -268.297999856,1890.00313988 -230.380701643,1897.17435636 -233.832339538,1921.89468608 -231.164331465,1936.35478058 -230.715499144,1938.69719792 -230.857766232,1940.81868816 -233.998886603,1940.24379648 -289.699086227,1930.05520169 -287.801415608,1916.27582188 -279.327999525,1855.29192405 -289.700407231,1853.61627405 -287.905907556,1844.85145524 -278.943682571,1846.14046268 -275.090147523,1818.99075315 -268.089269264,1820.27465233 -236.332430808,1826.07818767 -236.663724428,1827.86184948 -241.703521448,1861.22616155 " moovel_rot="68.9" moovel_centroid="-261.185419191,1883.90367337" moovel_centroidlatlon="-74.16302653264026,40.60914363789707"/>
  <polygon id="443136835" class="tile" points="-335.573063904,1822.58782204 -335.606676364,1887.29679795 -329.812737987,1888.47022667 -329.05075187,1891.5090674 -293.896923754,1880.54313637 -294.592177265,1876.03203333 -290.700407231,1876.07692138 -291.453706249,1818.99075315 -335.573063904,1822.58782204 " moovel_rot="73.3" moovel_centroid="-313.817508901,1853.40689116" moovel_centroidlatlon="-74.16528784050541,40.57939892799055"/>
  <polygon id="445049771" class="tile" points="-400.364949853,1818.99075315 -408.455609881,1819.04433449 -416.226457553,1827.77482261 -416.228254396,1924.19225317 -401.204949683,1936.37203587 -340.313161877,1868.12200887 -336.606676364,1854.83267899 -368.865068571,1832.06974267 -400.364949853,1818.99075315 " moovel_rot="21.1" moovel_centroid="-386.466066334,1871.46860104" moovel_centroidlatlon="-73.8904298934659,40.73728835637415"/>
  <polygon id="185193629" class="tile" points="-426.112062164,1818.99075315 -429.797773841,1825.66106338 -430.177265862,1857.53882635 -430.12817246,1868.64105168 -417.293705943,1868.69120722 -417.229992864,1864.47482731 -417.335557042,1858.15200264 -417.228254396,1825.88647767 -421.327913029,1822.26473245 -426.112062164,1818.99075315 " moovel_rot="5.5" moovel_centroid="-423.704631218,1845.52940019" moovel_centroidlatlon="-73.91977029507589,40.635974669383714"/>
  <polygon id="274459121" class="tile" points="-444.666397867,1931.74250567 -463.473996162,1931.23386738 -463.470334862,1927.78470195 -463.815992781,1927.33703531 -464.224453277,1927.16196613 -466.315679041,1927.08673579 -466.356510452,1921.86214541 -464.657070923,1921.65727884 -464.675981656,1917.257429 -458.041848535,1917.37023342 -457.95975033,1921.93429879 -457.39227824,1922.17952988 -456.093126101,1921.94137875 -455.561265771,1921.5043226 -454.961864924,1920.53993135 -454.756324921,1919.07307288 -454.700320726,1917.02657699 -454.462315543,1911.92206968 -454.632870643,1911.23587969 -454.905413376,1910.80204965 -455.251137212,1910.43210176 -455.681395919,1910.17998262 -456.382515609,1910.18272182 -456.902047002,1910.30316934 -457.350798936,1910.52596351 -457.676092549,1910.96204577 -458.046153389,1911.73985085 -458.146001113,1912.13686108 -460.562972814,1912.13861558 -470.600326083,1911.32082451 -481.91691436,1910.36269906 -481.551595563,1899.98285461 -460.177394284,1900.0885715 -460.217905327,1904.33213634 -459.917465391,1904.76243169 -459.481107544,1904.93396651 -458.88411516,1905.03893751 -458.274859498,1904.90501918 -457.639716054,1904.46747557 -457.410959024,1904.07723197 -457.036618571,1903.58872698 -456.74888748,1902.99568067 -456.738270403,1885.88937475 -457.200767102,1884.52607111 -458.226200796,1883.79909206 -459.450354201,1883.60347262 -460.521986407,1884.02492085 -460.413147131,1888.17815737 -488.222390477,1887.8650609 -488.30541553,1884.38904956 -488.641992571,1883.89822116 -489.114617632,1883.82159442 -490.530417832,1883.8140853 -490.636508206,1872.78402876 -490.897102227,1868.88734351 -491.272142009,1865.71506992 -492.568944705,1861.34900081 -493.860691985,1858.14587042 -476.308156193,1840.51769675 -474.279721301,1839.05925355 -471.279695158,1837.80953812 -468.937518932,1837.10526171 -466.788871153,1837.03670679 -457.840703233,1836.75968543 -456.713599882,1835.81662709 -456.231563515,1834.55835227 -456.210256474,1822.61315899 -451.956031257,1818.99075315 -449.083429781,1821.3655605 -447.958794406,1821.56959664 -446.746185062,1821.14918681 -445.266024848,1820.82509238 -443.733315181,1820.76738198 -442.12995551,1820.96746075 -440.676785656,1821.36510045 -439.513160229,1821.82253611 -438.459695576,1822.39054703 -437.636218634,1823.01920795 -436.978696353,1823.76551458 -436.536045412,1824.52644864 -436.074710598,1825.48244599 -435.647436518,1826.60028431 -435.408563869,1827.63278042 -435.307100578,1828.90532457 -431.179914084,1829.3442567 -431.177265862,1875.59723051 -431.421934989,1898.48594411 -431.669043073,1906.34301024 -432.605746154,1908.57462692 -433.466335596,1909.05124233 -435.099668145,1909.53547351 -435.79592576,1910.03116914 -436.006909903,1910.80141567 -435.961901924,1912.85821302 -435.67100422,1913.87570152 -435.254959991,1914.89203226 -435.085511802,1915.99632199 -435.127688404,1916.84178911 -435.311504225,1919.36654702 -435.580888588,1921.44638225 -436.06461958,1922.9190894 -436.660323675,1923.96912356 -437.101230158,1924.72230018 -437.897336127,1925.61500472 -438.957294309,1926.49704078 -440.319314427,1927.08550919 -443.776256803,1927.5131049 -444.311297898,1928.14589205 -444.44665778,1931.31770092 -444.666397867,1931.74250567 " moovel_rot="25.4" moovel_centroid="-456.135439925,1873.84193961" moovel_centroidlatlon="-73.83527412108525,40.67289110845354"/>
  <polygon id="185021244" class="tile" points="-494.867038332,1838.47367759 -494.866051671,1843.02159243 -494.860691985,1846.36864084 -503.92341547,1846.38838952 -503.928438018,1819.01232221 -499.499127657,1818.99782714 -494.87427869,1818.99075315 -494.867038332,1838.47367759 " moovel_rot="78.0" moovel_centroid="-499.397457019,1832.6905182" moovel_centroidlatlon="-74.16044329043108,40.6106265822112"/>
  <polygon id="221190745" class="tile" points="-504.937156318,1818.99075315 -504.928438018,1838.3201944 -511.301028311,1838.29028295 -518.080521146,1824.91847556 -504.937156318,1818.99075315 " moovel_rot="0.6" moovel_centroid="-509.847141387,1829.0224898" moovel_centroidlatlon="-73.9272755193142,40.77259990855759"/>
  <polygon id="182759608" class="tile" points="-528.555380739,1850.67811919 -519.080521146,1838.94842189 -519.714661822,1828.82588157 -528.551498603,1818.99075315 -528.555380739,1850.67811919 " moovel_rot="-87.9" moovel_centroid="-524.756197697,1834.62481356" moovel_centroidlatlon="-73.93364499692328,40.57576965820689"/>
  <polygon id="264854016" class="tile" points="-544.375701712,1819.26047605 -544.355397909,1852.05207077 -538.433537818,1852.28173571 -538.593054256,1846.98428625 -536.968153288,1846.93865439 -537.594408576,1834.85479987 -529.555380739,1834.3906393 -530.000490628,1821.82453018 -534.082555623,1821.94634547 -534.170593679,1818.99075315 -544.375701712,1819.26047605 " moovel_rot="59.6" moovel_centroid="-538.641122323,1832.8872682" moovel_centroidlatlon="-74.00188327744696,40.727610523059774"/>
  <polygon id="448157967" class="tile" points="-578.927470131,1818.99075315 -545.399869178,1819.09415924 -545.375701712,1920.72675201 -578.89872171,1920.615569 -578.927470131,1818.99075315 " moovel_rot="-30.5" moovel_centroid="-562.150226793,1869.8556513" moovel_centroidlatlon="-73.77852814413757,40.65942508724826"/>
  <polygon id="224659163" class="tile" points="0.0,2009.56979225 -2.91897664089,2009.26362775 -17.2405832302,2008.75281884 -17.2328264857,2021.49842993 -0.902328250185,2028.25851338 0.0,2009.56979225 " moovel_rot="5.9" moovel_centroid="-8.29003037064029,2017.0423983" moovel_centroidlatlon="-73.95363713945432,40.595599194651214"/>
  <polygon id="443136828" class="tile" points="-96.6605911041,2008.75281884 -103.501809221,2043.13768204 -97.950851055,2058.87460865 -94.6511437159,2067.50133752 -103.569565415,2125.84072515 -59.4544980254,2134.44911686 -31.5150917336,2130.27240106 -19.2405832302,2121.15495549 -24.5545354739,2106.93583697 -19.3965329621,2046.14190359 -46.5663799509,2041.50518364 -43.6135371288,2013.38653927 -96.6605911041,2008.75281884 " moovel_rot="63.7" moovel_centroid="-63.2536919374,2074.70126225" moovel_centroidlatlon="-74.16474193975773,40.58017267140444"/>
  <polygon id="450419551" class="tile" points="-119.023759785,2008.807166 -113.313272364,2008.78646639 -104.569565415,2008.75281884 -104.574109745,2066.10923569 -119.032577181,2066.15347375 -119.023759785,2008.807166 " moovel_rot="60.4" moovel_centroid="-111.799787164,2037.45727878" moovel_centroidlatlon="-73.77034965548069,40.65399361371582"/>
  <polygon id="358933096" class="tile" points="-133.415865038,2014.66663136 -147.652829691,2008.75281884 -149.824891438,2037.37674633 -166.320735659,2038.17692653 -166.276016532,2071.16619371 -120.117325417,2065.77395231 -120.032577181,2044.27372694 -126.557370993,2044.08217594 -126.468342036,2039.68017121 -123.691885942,2039.80221896 -123.845787034,2033.13244169 -133.212402879,2033.05148582 -133.415865038,2014.66663136 " moovel_rot="8.8" moovel_centroid="-143.334520088,2046.72404354" moovel_centroidlatlon="-73.82767591947147,40.85204629800755"/>
  <polygon id="236798985" class="tile" points="-167.320735659,2038.0264307 -176.272573361,2038.06084128 -176.272119463,2008.79388691 -167.325947728,2008.75281884 -167.320735659,2038.0264307 " moovel_rot="40.4" moovel_centroid="-171.797673699,2023.41003791" moovel_centroidlatlon="-73.925218286932,40.61154281029162"/>
  <polygon id="224291351" class="tile" points="-177.278028848,2040.9621862 -177.272573361,2008.75536665 -183.30855589,2008.75281884 -183.311495268,2030.30217119 -183.31400859,2040.95963816 -177.278028848,2040.9621862 " moovel_rot="-85.2" moovel_centroid="-180.293114407,2024.85739468" moovel_centroidlatlon="-73.93695574863222,40.63681190211677"/>
  <polygon id="315569670" class="tile" points="-184.317078778,2008.75883094 -184.31400859,2021.81826293 -189.3896229,2021.81057584 -189.386227355,2008.75281884 -184.317078778,2008.75883094 " moovel_rot="-14.5" moovel_centroid="-186.851680487,2015.28650936" moovel_centroidlatlon="-73.96724463098107,40.68145573484424"/>
  <polygon id="381296334" class="tile" points="-190.402776769,2008.76121185 -202.336814312,2008.75281884 -202.323655567,2025.98818864 -190.3896229,2025.99658235 -190.402776769,2008.76121185 " moovel_rot="-81.9" moovel_centroid="-196.363217347,2017.37469983" moovel_centroidlatlon="-73.8704958,40.7562431"/>
  <polygon id="299606298" class="tile" points="-203.346093946,2008.75281884 -216.272472703,2008.80833076 -216.34509982,2009.94900889 -216.401349375,2023.2455404 -208.342813,2023.37759034 -206.978308644,2023.40175567 -205.714671832,2023.43174852 -203.336814312,2023.48581862 -203.346093946,2008.75281884 " moovel_rot="-34.2" moovel_centroid="-209.833302379,2016.07685968" moovel_centroidlatlon="-73.93147110421997,40.7900126774706"/>
  <polygon id="300396686" class="tile" points="-217.404693232,2021.21431223 -226.110945548,2021.17373731 -226.102715222,2008.75281884 -221.90400582,2008.76757016 -217.401349375,2008.78884031 -217.404693232,2021.21431223 " moovel_rot="-42.9" moovel_centroid="-221.754666604,2014.98235231" moovel_centroidlatlon="-73.9190004770821,40.790772552623885"/>
  <polygon id="443714692" class="tile" points="-227.110945548,2028.08574716 -227.137695755,2068.00936259 -255.114631814,2068.08453562 -255.072931282,2008.78828807 -240.521936579,2008.75281884 -240.536937981,2028.12536141 -227.110945548,2028.08574716 " moovel_rot="29.7" moovel_centroid="-242.461076791,2042.11519193" moovel_centroidlatlon="-74.06801260026944,40.61717963403895"/>
  <polygon id="284620765" class="tile" points="-256.128038705,2008.75281884 -311.150705053,2033.8776984 -282.547879834,2101.00543125 -280.889956874,2101.04541063 -275.139991163,2107.99255789 -256.114631814,2100.37857793 -256.128038705,2008.75281884 " moovel_rot="-73.8" moovel_centroid="-276.620975926,2056.93740443" moovel_centroidlatlon="-73.92126187149394,40.752716682991256"/>
  <polygon id="185632783" class="tile" points="-317.673678063,2008.8052468 -319.549955913,2008.8288298 -321.58657637,2008.83951346 -321.598526971,2020.47978513 -312.150705053,2020.33180404 -312.293634156,2008.75281884 -317.673678063,2008.8052468 " moovel_rot="-49.7" moovel_centroid="-316.910889208,2014.61835699" moovel_centroidlatlon="-73.93141096424971,40.61712164106367"/>
  <polygon id="285310129" class="tile" points="-322.598526971,2060.16395141 -322.656512204,2009.17521543 -405.972086895,2008.86222856 -411.335556786,2008.75281884 -414.893694546,2010.71181966 -415.847907129,2042.82214543 -414.448589966,2080.37708229 -413.502405522,2100.39082545 -411.745811086,2101.3212245 -369.355576356,2099.57491007 -369.397222259,2112.57363865 -346.94660785,2112.26129462 -322.768931073,2113.05822301 -322.780927286,2104.42592931 -345.481563469,2103.8003007 -345.698071374,2059.37939004 -322.598526971,2060.16395141 " moovel_rot="-67.3" moovel_centroid="-371.65127881,2054.79790445" moovel_centroidlatlon="-73.83600186891074,40.58169197152579"/>
</svg>