<svg xmlns="http://www.w3.org/2000/svg" version="1.1" width="592.5px" height="1200px">
  <polygon id="0" class="bin" points="-301.874999,3.75 -300.776649429,1.09834957055 -298.124999,0.0 -1.875,0.0 0.77665042945,1.09834957055 1.875,3.75 1.875,1203.75 0.77665042945,1206.40165043 -1.875,1207.5 -273.613050201,1207.5 -275.808708775,1206.78999727 -277.172941443,1204.92884449 -281.544373634,1191.72793187 -281.571342303,1191.64313306 -289.62692681,1165.23267025 -301.708723811,1126.02327371 -301.874999,1124.91900179 -301.874999,991.884129315 -300.756733294,989.212711226 -298.068879211,988.134549262 -270.697305881,988.544218319 -269.498126427,988.456961665 -262.275387704,987.289602949 -259.612320739,986.256225285 -250.229921336,980.108219938 -248.161155565,977.986605309 -241.158652858,966.688532972 -240.134955187,963.278275669 -239.547600179,942.60151233 -239.540366313,942.452028814 -237.013487538,905.51848634 -237.34640325,902.890960826 -245.280930956,878.977669589 -245.470925836,877.874809852 -245.716433049,866.088442 -245.098757667,863.947306718 -243.375231068,862.534706548 -239.403994381,860.925955509 -237.641922783,857.025529466 -237.063035837,843.735190385 -237.098397082,842.678684441 -237.582552958,838.312818669 -238.304236965,835.923877001 -239.963136785,832.708504074 -240.738397701,831.523976185 -243.389449358,828.263971984 -244.898765531,826.889162967 -247.238234923,825.324334957 -250.95620742,824.171017664 -263.881835624,824.015348156 -263.890610241,824.015232211 -298.178933382,823.522029327 -300.795650038,822.404929888 -301.874999,819.772417203 -301.874999,798.003731035 -300.380876727,795.008148341 -297.089123971,794.399641285 -181.83150109,827.526589207 -177.970094186,827.501644524 -148.868675349,818.728830776 -145.348863892,816.249705978 -128.152150103,792.974917041 -126.816000598,788.926499274 -126.4355674,482.366331154 -127.562011588,478.919338968 -130.51183559,476.810033396 -216.768030185,449.780470873 -220.026890403,449.575141644 -253.48604695,455.588534822 -257.057008226,457.430754382 -277.574376781,477.514989728 -279.59114973,482.896961379 -279.284140324,486.77496498 -280.278398706,489.626832592 -283.052593325,490.820793572 -298.155148413,490.69936747 -300.787287517,489.59045816 -301.874999,486.94948867 -301.874999,452.913095239 -299.674911594,449.498381349 -268.333405648,435.272710811 -267.289096603,434.683849278 -264.174119639,432.549195552 -262.630315064,431.093681667 -259.929255839,427.61081795 -259.325545581,426.687986445 -257.411406049,423.175791961 -256.626614751,420.732556242 -256.119081327,416.613739975 -256.067487507,415.776631829 -256.021096455,324.092678611 -256.354672662,224.38650596 -256.356200358,224.262772132 -256.452283093,219.762201742 -257.217559142,216.759098337 -258.035066071,215.179918585 -258.720546863,214.111007199 -259.685951268,212.874170332 -260.856515107,211.699790521 -262.245376976,210.608431321 -264.03374517,209.594633655 -265.725688243,208.947312042 -268.127741338,208.494583743 -272.291368944,208.464723401 -272.342133357,208.46454676 -283.053827035,208.466821847 -286.167315566,206.80814882 -286.526139237,203.298696923 -277.902702584,182.188854145 -277.867558936,182.105697395 -237.171820194,88.9548284465 -236.834031207,87.9926699902 -222.451455047,34.6520740058 -223.135515248,30.1098015788 -226.938002222,27.5327354219 -277.686904573,18.1523900421 -281.550428602,18.7836782252 -284.12984236,21.7284986539 -286.745464784,28.381100762 -288.818158996,30.4808235125 -291.768151321,30.4314048403 -299.657742526,26.8980580685 -301.874999,23.4756032062 -301.874999,3.75 " moovel_rot="0" moovel_centroid="-122.01059308999572,611.0193429486197" moovel_centroidlatlon="0,0"/>
  <polygon id="286144368" class="tile" points="100.246113455,1313.19548129 10.1156779215,1317.76553445 9.27132346164,1304.371803 3.09995761886,1299.35739392 1.0,1276.00048278 3.22950286604,1269.36972501 3.117212056,1238.54804388 8.20101589672,1238.17820114 8.40869545937,1220.62178284 35.2603523605,1206.0936847 89.9144315314,1201.0 99.2913839828,1207.82050195 105.173586794,1215.74581662 105.156844359,1308.2423182 101.298081198,1309.03287122 100.246113455,1313.19548129 " moovel_rot="40.8" moovel_centroid="55.50747892316275,1261.171802087596" moovel_centroidlatlon="-74.1789001984547,40.606307499939476"/>
  <polygon id="327029576" class="tile" points="121.309467501,1201.0 121.194304298,1206.22021174 121.27245047,1224.50630161 115.876917049,1224.53050939 114.967396029,1224.62356404 106.275174563,1224.65622158 106.19802057,1206.34804528 106.192743094,1205.41117053 106.180763624,1203.21777296 106.173586794,1201.85470081 110.289879171,1201.62285474 111.565693904,1201.55499257 113.850969167,1201.42132293 121.309467501,1201.0 " moovel_rot="-34.6" moovel_centroid="113.767748257,1213.000101961455" moovel_centroidlatlon="-73.88749296506774,40.86043659927174"/>
  <polygon id="413778949" class="tile" points="122.309467501,1371.63614118 147.225832747,1371.55527542 147.282977031,1219.52471249 132.750906993,1219.57438634 132.760969221,1201.0 122.37246691,1201.03638972 122.309467501,1371.63614118 " moovel_rot="-53.8" moovel_centroid="134.445483046,1291.4483651916848" moovel_centroidlatlon="-74.16035428107472,40.54513045302963"/>
  <polygon id="359048869" class="tile" points="148.282977031,1201.0 148.349489662,1289.50128254 174.454137819,1289.54251475 174.381358009,1201.03891944 148.282977031,1201.0 " moovel_rot="19.2" moovel_centroid="161.367048628,1245.272449599532" moovel_centroidlatlon="-73.8896860154467,40.68634273102819"/>
  <polygon id="222912944" class="tile" points="175.454137819,1201.12226922 175.692496147,1247.57593918 183.80489968,1247.44408471 183.855485163,1201.0 175.454137819,1201.12226922 " moovel_rot="-88.1" moovel_centroid="179.701273085,1224.1501358310122" moovel_centroidlatlon="-73.94691267361134,40.58371663175129"/>
  <polygon id="284917965" class="tile" points="184.862505324,1201.52203325 206.450735128,1201.0 206.751601966,1235.86602837 186.99132837,1236.0395146 184.855485163,1236.29357647 184.858653029,1230.01756152 184.862505324,1201.52203325 " moovel_rot="-28.1" moovel_centroid="195.744836057,1218.6576955170628" moovel_centroidlatlon="-73.93438311549139,40.77004079851753"/>
  <polygon id="409726394" class="tile" points="231.78831325,1201.0 222.060629123,1201.03884782 218.493429174,1201.16047174 208.32743749,1201.20554107 207.791677224,1201.23523489 207.771608125,1212.4111498 207.790968602,1216.68458188 207.751601966,1225.14490756 231.9446554,1224.79316006 231.78831325,1201.0 " moovel_rot="61.0" moovel_centroid="219.814833338,1213.0519586871976" moovel_centroidlatlon="-73.97991399263002,40.74131801020326"/>
  <polygon id="201149340" class="tile" points="246.964779282,1220.27101933 232.95548913,1220.3007543 232.9446554,1201.02973361 246.953953331,1201.0 246.964779282,1220.27101933 " moovel_rot="-80.1" moovel_centroid="239.954719202,1210.650375918567" moovel_centroidlatlon="-73.83880475000001,40.65640689999999"/>
  <polygon id="329776612" class="tile" points="276.909764914,1201.0 259.425684376,1201.24473502 247.964779282,1224.27026351 248.669596224,1239.6404749 249.225651436,1252.4241226 276.902188969,1252.37725143 276.909764914,1201.0 " moovel_rot="79.7" moovel_centroid="263.690626177,1228.335236174375" moovel_centroidlatlon="-73.81804532191089,40.738191424500535"/>
  <polygon id="255480858" class="tile" points="277.909764914,1218.7601323 298.92063515,1201.0 298.929979344,1266.36242646 278.337173484,1285.66543662 277.909764914,1218.7601323 " moovel_rot="30.1" moovel_centroid="288.473971418,1242.8825027279822" moovel_centroidlatlon="-73.92833173707717,40.822651096672594"/>
  <polygon id="265960051" class="tile" points="358.681304091,1201.0 358.629820937,1261.6447052 299.929979344,1261.82559459 299.981261354,1201.18066283 358.681304091,1201.0 " moovel_rot="-41.6" moovel_centroid="329.305573122,1231.4127233770937" moovel_centroidlatlon="-74.0862789,40.63103725"/>
  <polygon id="307958492" class="tile" points="359.815075907,1201.0 359.7205679,1212.42457454 359.681304091,1235.88062183 360.124929206,1247.50594488 366.403743621,1247.52107564 366.404720861,1248.17785401 369.12279879,1248.18313312 369.115469748,1250.46258011 370.46113707,1250.72508494 391.733794787,1250.71789456 391.728913854,1229.42074923 391.742921743,1227.42619662 391.757906566,1226.08842454 388.789398923,1226.13624106 388.619792384,1216.37781924 388.189015057,1201.24919244 359.815075907,1201.0 " moovel_rot="8.1" moovel_centroid="375.178066856,1226.1460631848802" moovel_centroidlatlon="-73.89765193394346,40.76767815778137"/>
  <polygon id="443136836" class="tile" points="402.101132755,1400.76173222 447.753560495,1398.35658416 473.368500705,1393.03356311 473.457166363,1201.0 412.75038972,1237.15352628 417.264155972,1249.93500806 392.757906566,1254.04351044 399.596251284,1302.48056334 402.101132755,1400.76173222 " moovel_rot="55.3" moovel_centroid="438.02101484,1309.9314299115192" moovel_centroidlatlon="-74.16767178192163,40.57787370520861"/>
  <polygon id="236776861" class="tile" points="474.457166363,1201.0 478.652356564,1201.04857021 477.952539358,1273.21656668 474.547532834,1272.96862234 474.457166363,1201.0 " moovel_rot="8.0" moovel_centroid="476.408683964,1235.8112074976245" moovel_centroidlatlon="-73.89711473065675,40.75181069744001"/>
  <polygon id="388292605" class="tile" points="506.345475993,1240.26976302 479.703565796,1241.17121057 479.652356564,1201.0 506.386214386,1201.05311488 506.345475993,1240.26976302 " moovel_rot="65.8" moovel_centroid="492.968337239,1220.8629926360938" moovel_centroidlatlon="-73.9779248224475,40.77265986796007"/>
  <polygon id="185329230" class="tile" points="507.431129656,1272.10263249 517.406041797,1272.10435753 517.403360633,1266.97476726 517.383733631,1233.97086544 517.361127411,1201.0017147 507.386214386,1201.0 507.390622145,1207.28237422 507.391118124,1213.7667672 507.398269476,1220.25172355 507.404672666,1226.74540682 507.404421713,1233.2385124 507.410826134,1239.73218132 507.411325184,1246.21653849 507.417730835,1252.71019306 507.417482343,1259.20326994 507.425386765,1265.6794421 507.431129656,1272.10263249 " moovel_rot="4.9" moovel_centroid="512.395959167,1236.5539085762157" moovel_centroidlatlon="-73.91813010022571,40.62527808014079"/>
  <polygon id="59381942" class="tile" points="549.615289405,1241.19929296 549.504951029,1201.94659299 544.853726174,1201.0 523.23272908,1201.8679837 523.506641084,1213.30926089 519.060178297,1213.52726081 518.406041797,1239.69813662 549.615289405,1241.19929296 " moovel_rot="-37.2" moovel_centroid="534.908730309,1221.6463951916542" moovel_centroidlatlon="-74.06162369128505,40.59374123100712"/>
  <polygon id="335920898" class="tile" points="550.615289405,1203.25514672 550.670575341,1225.20836073 568.068322497,1224.88790131 568.217680542,1223.59703744 568.640982015,1223.01845885 569.36764352,1223.01414824 572.124284927,1223.01490497 572.141405128,1201.01701793 562.521717717,1201.0 562.520110651,1203.2802377 550.615289405,1203.25514672 " moovel_rot="6.6" moovel_centroid="561.492711072,1213.4470185557236" moovel_centroidlatlon="-73.94660788492523,40.73194323105837"/>
  <polygon id="219559495" class="tile" points="0.00343845952302,1441.96993822 0.0,1405.13280376 22.7864428589,1400.76173222 27.4710233666,1425.50092112 19.8343202077,1426.95083073 21.9206671061,1437.97777956 0.00343845952302,1441.96993822 " moovel_rot="-92.5" moovel_centroid="12.032199385097618,1420.91082806" moovel_centroidlatlon="-73.95031446029796,40.59122325709018"/>
  <polygon id="292156929" class="tile" points="59.6420620514,1400.82487402 54.3792315956,1400.84329485 29.4710233666,1400.93009711 29.5094386844,1469.00704046 37.69577547,1468.90798311 37.7002911035,1473.99371161 37.6921628736,1478.9487794 52.2993197508,1479.04874299 52.2852282723,1480.82411659 53.7304177592,1480.83513874 53.5777476911,1503.33937888 59.6383913215,1503.07401453 59.8110957889,1478.96706407 77.7645286601,1479.09443098 77.7735706247,1471.78218834 77.8816070825,1400.76173222 59.6420620514,1400.82487402 " moovel_rot="60.8" moovel_centroid="54.2134636171,1441.15991459" moovel_centroidlatlon="-73.99810519963253,40.762852544848855"/>
  <polygon id="306796261" class="tile" points="80.4431723803,1517.32493707 78.8816070825,1506.59949835 126.305051567,1400.76173222 137.251568317,1406.20319856 137.23596293,1526.8200998 111.226916206,1515.24540856 105.650144722,1528.89503093 80.4431723803,1517.32493707 " moovel_rot="-25.6" moovel_centroid="115.501624516,1475.75161161" moovel_centroidlatlon="-73.90252739110704,40.6464064064449"/>
  <polygon id="162614310" class="tile" points="138.251568317,1493.69917249 138.344048405,1408.83011813 187.338200782,1400.76173222 194.720659017,1442.18196972 197.649867145,1470.01006647 168.281807072,1470.82532339 165.310058286,1448.36949975 160.349923323,1448.56492805 160.727277334,1469.57506923 154.799187637,1469.22699748 152.09462408,1469.11482038 151.63635802,1487.94724733 151.492634163,1494.07049407 145.995644362,1493.82293483 138.251568317,1493.69917249 " moovel_rot="-27.9" moovel_centroid="164.737841409,1441.30953255" moovel_centroidlatlon="-73.9046924105183,40.91300270600146"/>
  <polygon id="285497395" class="tile" points="205.109526881,1400.76173222 201.391675417,1401.17721473 198.663142346,1401.48327399 198.649867145,1422.23729947 207.287549893,1421.34777135 207.189828004,1420.07743617 207.067106514,1418.46530509 206.566108014,1413.93240605 206.072413082,1409.47823709 205.586021737,1405.1027984 205.109526881,1400.76173222 " moovel_rot="-5.3" moovel_centroid="202.477533409,1411.96619636" moovel_centroidlatlon="-73.92942873291004,40.773156882371346"/>
  <polygon id="286996651" class="tile" points="241.742602311,1415.61375807 241.752922272,1400.76173222 214.034945446,1401.59829925 213.76007946,1408.54292623 208.287549893,1409.12236144 208.296784084,1420.86468838 208.299330253,1425.36507067 215.448884799,1425.1357919 215.763376554,1431.45563086 225.582143805,1431.43554839 225.623696333,1450.33080759 229.843202607,1450.31975425 229.849008886,1453.53386463 234.523679184,1453.20041956 234.094274133,1416.06929174 241.742602311,1415.61375807 " moovel_rot="-24.4" moovel_centroid="225.66754005,1420.02300523" moovel_centroidlatlon="-73.91157054951799,40.85860004153253"/>
  <polygon id="277443897" class="tile" points="243.057178896,1625.74672533 272.993987723,1625.25440399 271.407020866,1591.68444157 271.31372486,1534.67234201 276.950591941,1534.86071948 278.519560755,1502.31358368 305.555871254,1503.04048647 305.636947035,1432.32269819 301.331234115,1426.70958265 300.305024387,1401.57543907 242.752922272,1400.76173222 243.057178896,1625.74672533 " moovel_rot="21.0" moovel_centroid="267.829432417,1493.4858499" moovel_centroidlatlon="-73.85164088505742,40.74499360867192"/>
  <polygon id="275609077" class="tile" points="313.7799752,1420.22629166 313.219019637,1424.15578655 308.918602187,1423.65610837 306.636947035,1443.88305173 309.138579731,1444.26541549 326.382843222,1446.88855383 327.086138026,1446.99773817 328.111938379,1447.14964847 329.214478851,1447.32173219 327.555841408,1458.40931202 329.710433733,1461.90420845 328.93300512,1466.35867355 332.862051205,1467.04440186 332.325460533,1471.14087223 332.08640625,1472.9704665 333.015218348,1477.2548893 335.70546727,1477.62949108 335.686003127,1482.03317864 339.381743295,1482.42054361 338.495862867,1492.50392926 343.930490933,1493.14731783 341.430401704,1499.55213374 345.935858938,1512.3664128 361.134633971,1511.73744068 364.019434256,1508.08469915 365.437043579,1504.86746507 365.38514799,1500.66828741 380.139803733,1502.99252225 380.550327948,1499.92496993 385.28477483,1499.36811663 383.162927492,1454.09299298 385.246029565,1402.71059915 384.114239198,1401.32654734 364.406275405,1400.76173222 361.067601044,1427.09615698 313.7799752,1420.22629166 " moovel_rot="-80.1" moovel_centroid="355.631242872,1455.70724602" moovel_centroidlatlon="-73.88099197842334,40.76809366556553"/>
  <polygon id="327399716" class="tile" points="404.405023803,1401.98789145 393.039889035,1400.76173222 392.546214462,1406.45995755 388.052980902,1406.04904133 386.28477483,1419.60224913 392.206148758,1420.69162189 392.448805023,1435.17134313 397.804219267,1435.81875567 396.029456325,1450.53358215 388.621752524,1450.03451151 386.29686097,1459.56430131 404.867421533,1461.75237492 405.733797241,1445.95578891 405.092449694,1414.93547004 404.405023803,1401.98789145 " moovel_rot="68.1" moovel_centroid="397.834340938,1430.46333991" moovel_centroidlatlon="-73.96499042623293,40.78353625004033"/>
  <polygon id="412450796" class="tile" points="407.561124062,1400.99779823 427.501455229,1400.76173222 427.689510333,1409.89692762 427.673126818,1423.65252243 427.666557729,1437.32295095 427.654640316,1452.5219861 427.640880182,1463.00405129 427.684450447,1466.92838293 427.710961982,1469.16025421 420.664179412,1469.51642766 420.843106782,1473.92040158 408.859622604,1474.72820452 406.733797241,1467.58023617 407.561124062,1400.99779823 " moovel_rot="29.5" moovel_centroid="417.265950027,1436.92319415" moovel_centroidlatlon="-73.86781457620044,40.65720837035973"/>
  <polygon id="335920878" class="tile" points="428.749450788,1447.71438215 443.820763509,1447.693533 443.782289647,1400.76173222 428.710961982,1400.78257951 428.749450788,1447.71438215 " moovel_rot="-82.9" moovel_centroid="436.265866428,1424.23805284" moovel_centroidlatlon="-73.9453491,40.7336999"/>
  <polygon id="185515243" class="tile" points="450.615097839,1453.92198144 454.211178466,1453.92676439 454.166686684,1497.22453226 450.227203329,1497.21452047 450.221584992,1502.49835632 450.21721697,1507.7735156 450.208012656,1512.94174943 450.20541987,1518.11093144 450.201294503,1523.89952573 457.71702462,1523.91147097 457.690891234,1550.08291565 457.690163358,1551.44600758 457.686573542,1552.782131 449.617505059,1552.77011052 449.596240604,1567.43466368 444.820763509,1567.41925131 444.945375607,1453.88394425 444.978970248,1422.32221677 445.001973915,1400.76173222 447.639315145,1400.76998856 456.342307491,1400.78480761 456.321305859,1416.61826176 453.534776345,1416.61506252 453.528661967,1422.32380161 450.64833049,1422.31593701 450.615097839,1453.92198144 " moovel_rot="8.2" moovel_centroid="449.597637166,1484.71171908" moovel_centroidlatlon="-73.94050762744747,40.590569510008315"/>
  <polygon id="377030561" class="tile" points="464.340362955,1400.76173222 458.71702462,1407.31588412 468.363606839,1415.60823233 458.728634862,1426.84965725 466.558378909,1433.58041061 481.821086416,1415.78986133 464.340362955,1400.76173222 " moovel_rot="48.9" moovel_centroid="469.049953249,1417.21872497" moovel_centroidlatlon="-73.89578957477627,40.75422553480322"/>
  <polygon id="281477531" class="tile" points="488.654041369,1476.86812052 519.184564278,1476.9579288 519.18576376,1478.28210961 525.217521357,1478.29768708 525.236095443,1451.91314761 520.409429367,1451.9002419 520.422183376,1432.1696115 525.439343651,1432.18546266 525.456857116,1405.58593256 519.51571434,1405.57485833 519.514723082,1407.42031888 482.821086416,1407.30533269 482.822882303,1400.76173222 527.793141153,1400.90363637 532.507365792,1400.91355654 536.141517544,1400.92829154 536.120564184,1442.99226558 536.115974757,1451.92133529 536.093338459,1483.94436574 532.068960849,1483.92972518 524.981914126,1483.90918586 488.647488677,1483.80147021 488.654041369,1476.86812052 " moovel_rot="19.7" moovel_centroid="521.394569162,1441.86979313" moovel_centroidlatlon="-73.80811883659091,40.70458697846285"/>
  <polygon id="309141147" class="tile" points="537.155579704,1437.75718692 540.69116941,1442.24675653 547.402586241,1437.28408096 551.898254691,1431.32423327 553.711342415,1421.49264915 551.708137995,1411.26547925 545.610637381,1403.18724317 541.402387901,1400.76173222 537.141517544,1404.8784012 539.948591335,1408.01827268 543.067564466,1411.22860078 545.098942794,1415.60788876 546.846166333,1420.00951677 545.000263576,1425.27370296 542.819566009,1429.91295033 540.047808473,1434.00481461 537.155579704,1437.75718692 " moovel_rot="-20.6" moovel_centroid="546.223308691,1421.61733947" moovel_centroidlatlon="-73.89686839880686,40.76498696197409"/>
  <polygon id="375719859" class="tile" points="555.270643552,1430.38053911 563.731844039,1430.33293974 563.778953178,1400.76173222 554.711342415,1400.85067498 555.270643552,1430.38053911 " moovel_rot="-29.6" moovel_centroid="559.372623441,1415.41099154" moovel_centroidlatlon="-73.95732339672097,40.771213890421514"/>
  <polygon id="282600173" class="tile" points="0.169713820517,1734.11254369 29.4033157703,1736.0470413 30.0905807722,1627.62865013 0.0,1625.74672533 0.169713820517,1734.11254369 " moovel_rot="-8.8" moovel_centroid="14.918981200129194,1680.62300991" moovel_centroidlatlon="-73.73385885722372,40.74088765371902"/>
  <polygon id="356967636" class="tile" points="52.9512761757,1625.80363456 53.3378430959,1647.81135852 48.8877154494,1647.63791654 48.7993394373,1656.78911547 32.0910556501,1656.51058904 32.0978998132,1652.90533353 32.0905807722,1625.74672533 52.9512761757,1625.80363456 " moovel_rot="-77.4" moovel_centroid="42.1012488336,1640.54752455" moovel_centroidlatlon="-73.88008556458955,40.59110154494775"/>
  <polygon id="286087280" class="tile" points="54.599060829,1847.05206367 78.2542326909,1846.45618482 76.5779809959,1773.41537492 79.0003346398,1771.92700958 86.3672127608,1771.44323549 142.970021304,1771.72362738 144.141114762,1767.03794597 146.070757012,1664.15283878 148.155458145,1630.63185131 114.200872923,1628.15352611 111.583654376,1660.40156915 86.1446731143,1657.63342396 84.1795279931,1627.3582512 54.3378430959,1625.74672533 55.3825409487,1719.72397792 54.599060829,1847.05206367 " moovel_rot="55.2" moovel_centroid="95.9423562033,1716.25288394" moovel_centroidlatlon="-74.08487110105763,40.58667166477516"/>
  <polygon id="331933006" class="tile" points="150.767993223,1650.91587224 149.155458145,1626.59012705 157.409241741,1625.74672533 156.891338913,1639.69519326 157.380525802,1650.78588019 150.767993223,1650.91587224 " moovel_rot="-18.7" moovel_centroid="153.553173089,1638.02458973" moovel_centroidlatlon="-73.87362662118665,40.85809095385598"/>
  <polygon id="185193604" class="tile" points="161.490938696,1652.68486168 158.433768682,1652.70017302 158.409241741,1625.76690076 161.470989097,1625.74672533 161.490938696,1652.68486168 " moovel_rot="-46.8" moovel_centroid="159.951277568,1639.22130373" moovel_centroidlatlon="-73.92005393791248,40.633558825859026"/>
  <polygon id="323407714" class="tile" points="162.490938696,1626.25752387 162.911152066,1672.54443504 193.509691273,1672.24186268 193.539889491,1625.74672533 162.490938696,1626.25752387 " moovel_rot="-29.9" moovel_centroid="178.123879676,1649.14089163" moovel_centroidlatlon="-74.00696958420089,40.744500072837525"/>
  <polygon id="288447167" class="tile" points="229.890331579,1625.74672533 221.031576082,1625.77779738 214.028122337,1625.79727829 197.514347836,1625.85235792 196.720395643,1627.42085434 194.96738603,1633.86375435 194.539889491,1644.37099658 194.72179094,1663.15325475 195.495881521,1663.13381153 229.884653873,1662.9744804 229.890331579,1625.74672533 " moovel_rot="60.8" moovel_centroid="212.42303183,1644.57487362" moovel_centroidlatlon="-73.98690151343185,40.765575169003476"/>
  <polygon id="295411030" class="tile" points="237.244562169,1625.9085704 237.266771863,1639.06972415 230.890331579,1638.89774805 231.248502325,1625.74672533 237.244562169,1625.9085704 " moovel_rot="77.3" moovel_centroid="234.161676086,1632.47310339" moovel_centroidlatlon="-73.95336556825642,40.7461468216266"/>
  <polygon id="220792592" class="tile" points="245.915852379,1632.32105152 243.333430347,1625.74672533 241.442510077,1628.65440728 239.206719923,1634.64892223 238.266771863,1641.58310482 238.547023031,1648.60155009 239.942442803,1656.59278464 245.209384726,1661.96943586 245.919899428,1655.52949079 245.266147477,1649.91395805 244.34217272,1644.44541407 244.762935548,1637.67397388 245.915852379,1632.32105152 " moovel_rot="62.7" moovel_centroid="242.240732479,1644.11622823" moovel_centroidlatlon="-73.92916780982061,40.78184896638414"/>
  <polygon id="403560777" class="tile" points="246.919899428,1639.54663598 246.925418363,1654.76091647 254.558842691,1654.72694615 254.564550154,1664.69239816 272.954862211,1664.6255586 272.947485179,1655.97523273 267.327241334,1656.00190854 267.314655022,1646.30041483 273.324666934,1646.27733083 273.326728098,1630.65410533 267.235922834,1630.6779445 267.229394417,1625.74672533 252.149192634,1625.80420677 252.158051155,1639.5206583 246.919899428,1639.54663598 " moovel_rot="-60.8" moovel_centroid="260.800545972,1645.1148971" moovel_centroidlatlon="-73.78182668651213,40.646164642028815"/>
  <polygon id="326257566" class="tile" points="278.67714295,1625.74672533 274.326728098,1625.89800638 274.880953791,1631.11516226 275.546461352,1637.48141105 274.685281415,1657.67926013 274.330798275,1666.01547462 278.091145928,1666.26067683 283.125123205,1660.30800531 281.659970277,1649.89827466 281.112000831,1647.65940503 281.938187898,1647.64350728 278.67714295,1625.74672533 " moovel_rot="48.0" moovel_centroid="278.072244382,1647.78008043" moovel_centroidlatlon="-73.88558290996633,40.86030000410334"/>
  <polygon id="224286668" class="tile" points="312.429611856,1643.4994299 311.624559721,1625.74672533 287.841111815,1626.33047821 287.868527721,1636.73035764 284.125123205,1636.50493064 284.127014861,1661.33757822 286.811139777,1661.4216683 286.648613567,1643.34810514 312.429611856,1643.4994299 " moovel_rot="7.6" moovel_centroid="297.91955576,1636.7291448" moovel_centroidlatlon="-73.95679494119207,40.59917868373625"/>
  <polygon id="258957574" class="tile" points="313.429611856,1699.68222821 315.389126508,1699.55446448 328.829972796,1699.2002311 350.680567492,1639.02140202 313.448157205,1625.74672533 313.429611856,1699.68222821 " moovel_rot="-48.7" moovel_centroid="327.135298637,1660.91996597" moovel_centroidlatlon="-73.84461417479525,40.756298536927765"/>
  <polygon id="327029572" class="tile" points="356.528732578,1641.67209914 356.827685923,1626.13323348 351.680567492,1625.74672533 351.704186118,1627.27475879 351.690974313,1642.01170259 355.005493467,1641.77404855 356.528732578,1641.67209914 " moovel_rot="-34.3" moovel_centroid="354.169502504,1633.81072328" moovel_centroidlatlon="-73.8870369526621,40.85997593324615"/>
  <polygon id="448157969" class="tile" points="434.233206701,1625.74672533 361.861116577,1626.10275744 362.053955186,1630.91931429 357.953431194,1630.61694722 357.827685923,1714.78530061 363.299652847,1716.29737073 427.717248314,1717.14428796 434.580356352,1713.49583729 434.233206701,1625.74672533 " moovel_rot="59.0" moovel_centroid="396.302156172,1671.38887957" moovel_centroidlatlon="-73.78000614421778,40.658610062685256"/>
  <polygon id="184999234" class="tile" points="450.295590355,1680.15785846 450.288284587,1674.0467753 450.260686948,1626.41085641 450.260756153,1625.74672533 435.580356352,1625.7472249 435.605307403,1668.28219396 435.615193258,1680.15833903 450.295590355,1680.15785846 " moovel_rot="8.1" moovel_centroid="442.93645605,1652.95226795" moovel_centroidlatlon="-73.95625467303638,40.6306991005954"/>
  <polygon id="220792594" class="tile" points="458.266294396,1627.16544729 458.240486679,1646.5862772 451.612988058,1647.30200289 451.295590355,1630.67222116 452.326397056,1625.74672533 458.266294396,1627.16544729 " moovel_rot="63.0" moovel_centroid="454.829058584,1636.717601" moovel_centroidlatlon="-73.9346973367478,40.78363489529273"/>
  <polygon id="220530399" class="tile" points="482.960836229,1673.00841977 459.266294396,1662.65477131 461.15833037,1658.42579589 469.461458294,1653.3906809 477.969999162,1625.74672533 482.937868185,1626.99403384 479.817162878,1639.36631444 479.776026613,1652.74516695 482.408243216,1665.177582 482.960836229,1673.00841977 " moovel_rot="7.0" moovel_centroid="474.482989913,1653.65592711" moovel_centroidlatlon="-73.890483494457,40.77355096849607"/>
  <polygon id="273613777" class="tile" points="484.87496838,1642.84012933 485.036046212,1638.29877263 483.960836229,1638.22259869 484.0560158,1634.39024043 484.275794792,1625.74672533 487.170765369,1627.91641019 497.307426094,1635.69139132 497.305780027,1643.20651954 484.87496838,1642.84012933 " moovel_rot="-7.7" moovel_centroid="489.978377932,1636.41398069" moovel_centroidlatlon="-73.93386749004425,40.7451739279169"/>
  <polygon id="277176271" class="tile" points="498.307426094,1684.48802824 525.207449366,1685.55469754 525.163800705,1626.60575842 499.135343027,1625.74672533 498.307426094,1684.48802824 " moovel_rot="-76.6" moovel_centroid="511.959018771,1655.76075839" moovel_centroidlatlon="-73.76937353980301,40.763652311642275"/>
  <polygon id="232494203" class="tile" points="539.297145348,1641.55694261 539.309252692,1625.74672533 526.207449366,1628.85874566 529.730527564,1643.77782945 539.297145348,1641.55694261 " moovel_rot="-37.0" moovel_centroid="533.593939073,1634.58411812" moovel_centroidlatlon="-73.91812336641965,40.83466185469646"/>
  <polygon id="370925180" class="tile" points="588.092523246,1696.25578266 540.309252692,1695.85021551 540.378464397,1625.74672533 557.425554143,1626.05571079 557.50422296,1634.96604397 571.761137822,1634.76260421 571.522723024,1625.96340644 588.016235003,1626.17282645 588.092523246,1696.25578266 " moovel_rot="-8.0" moovel_centroid="564.192837345,1662.23389057" moovel_centroidlatlon="-73.9370956507807,40.74374441826569"/>
  <polygon id="180338804" class="tile" points="45.0960114369,1848.15491638 45.1527115652,1895.81784148 0.0,1888.09282237 0.133788150363,1847.05206367 45.0960114369,1848.15491638 " moovel_rot="6.7" moovel_centroid="23.15461334909144,1869.85026802" moovel_centroidlatlon="-73.97918466430392,40.690204666239005"/>
  <polygon id="299950347" class="tile" points="47.1527115652,1857.84540222 56.9489569301,1857.417966 56.9087455833,1856.07006031 56.7480818802,1851.10493018 56.6607452387,1847.05206367 47.1578279572,1847.31961247 47.153150331,1856.30125969 47.1527115652,1857.84540222 " moovel_rot="-30.1" moovel_centroid="51.9629816791,1852.43679799" moovel_centroidlatlon="-73.93185438173865,40.786209796435166"/>
  <polygon id="185148209" class="tile" points="58.331408366,1889.42057475 65.010946035,1889.36883913 81.8289313009,1889.25560791 88.4411056828,1889.20360503 88.4550157428,1869.41009752 88.4651863743,1847.05206367 57.9489569301,1847.28482862 58.331408366,1889.42057475 " moovel_rot="7.7" moovel_centroid="73.2982481285,1868.19331315" moovel_centroidlatlon="-73.93779032070202,40.590146883508645"/>
  <polygon id="185610604" class="tile" points="89.4651863743,1847.05206367 89.7694008812,1853.59041283 89.4849919062,1870.50085405 98.1097739376,1870.94165983 108.52539742,1871.47602367 109.161205614,1847.54801316 89.4651863743,1847.05206367 " moovel_rot="-48.0" moovel_centroid="99.2683631485,1859.09477954" moovel_centroidlatlon="-73.9226557810574,40.608947026902236"/>
  <polygon id="241819964" class="tile" points="114.684117551,1847.05206367 115.69726906,1888.12254158 110.161205614,1890.66266343 110.238207886,1974.3662589 133.920334036,1974.92592734 142.029282371,1961.25449148 165.254103389,1959.33207466 184.793018601,1922.54145802 196.111820849,1926.21819049 202.525022507,1914.13161506 197.230033662,1847.475198 114.684117551,1847.05206367 " moovel_rot="-88.0" moovel_centroid="151.576885817,1903.49233319" moovel_centroidlatlon="-74.17219292706977,40.62832804984025"/>
  <polygon id="185647478" class="tile" points="245.783122171,1849.3943147 216.052824321,1847.05206367 207.589897839,1863.84251567 203.525022507,1911.77877104 206.47027928,1916.21069527 213.261568343,1922.08296843 244.465988173,1922.54602601 248.024440225,1917.19326831 248.022645799,1914.49968778 247.964043835,1862.27684588 245.783122171,1849.3943147 " moovel_rot="41.8" moovel_centroid="227.247705663,1886.27896072" moovel_centroidlatlon="-73.93211319545122,40.60436945332209"/>
  <polygon id="314309614" class="tile" points="249.024440225,1847.05206367 249.038307094,1921.35703133 270.555285173,1921.32175967 275.957999349,1920.46960023 275.910120654,1910.664958 296.860803666,1910.6711983 297.100909943,1881.5880082 249.024440225,1847.05206367 " moovel_rot="8.3" moovel_centroid="269.170309235,1889.75250557" moovel_centroidlatlon="-73.96848894884559,40.68350956440785"/>
  <polygon id="185193616" class="tile" points="326.426586712,1870.81996621 313.201195195,1870.86309785 313.212480575,1847.05206367 298.132919041,1847.10234671 298.100909943,1894.55903439 326.416804128,1894.46612098 326.426586712,1870.81996621 " moovel_rot="-49.8" moovel_centroid="309.961271065,1874.4132605" moovel_centroidlatlon="-73.91421840779519,40.634550588621984"/>
  <polygon id="276516890" class="tile" points="341.995601445,1851.81120823 341.99072631,1848.92829577 341.992926433,1847.07025307 348.824703525,1847.06859709 372.027097262,1847.05206367 372.049201772,1875.45765373 371.906510122,1875.70097477 371.926657627,1907.66127542 327.460926205,1907.69492784 327.461267373,1901.30307105 327.450719253,1892.08718537 327.426586712,1851.82270807 341.995601445,1851.81120823 " moovel_rot="-21.0" moovel_centroid="350.101762058,1878.08126579" moovel_centroidlatlon="-73.8993755471432,40.888746535250924"/>
  <polygon id="412099918" class="tile" points="373.071479629,1847.10136253 387.60377486,1847.05206367 387.588083455,1881.1816705 383.053533929,1881.45244021 373.049201772,1881.22524384 373.071479629,1847.10136253 " moovel_rot="-49.0" moovel_centroid="380.33172469,1864.20574864" moovel_centroidlatlon="-73.87919695675939,40.649260952802194"/>
  <polygon id="345024395" class="tile" points="434.318179294,1971.74952111 433.320717373,1965.70507455 436.172821355,1965.57057274 436.044508644,1904.47454245 436.035554941,1898.31661309 404.241889183,1847.05206367 400.489288172,1848.79369446 392.95644331,1848.52039473 393.439344717,1856.70875714 388.702601254,1856.79171785 388.60377486,1973.87192474 394.037269476,1973.8296586 394.491829434,1979.55200496 433.735486791,1978.41678645 434.318179294,1971.74952111 " moovel_rot="-92.7" moovel_centroid="410.54341216,1920.58005144" moovel_centroidlatlon="-73.8385492774874,40.77126427722461"/>
  <polygon id="376403764" class="tile" points="452.185773692,1847.07084517 437.184661009,1847.05206367 437.172821355,1891.56242707 452.173917728,1891.58121095 452.185773692,1847.07084517 " moovel_rot="81.7" moovel_centroid="444.679293514,1869.31663268" moovel_centroidlatlon="-73.92287485,40.74366075"/>
  <polygon id="286996646" class="tile" points="453.185773692,1847.05206367 475.55947773,1848.36235117 475.365724934,1851.72372813 473.523195129,1878.51608683 472.733483396,1885.78984782 466.263099822,1885.57404688 453.217756397,1884.68412628 453.203246925,1872.11030211 453.185773692,1847.05206367 " moovel_rot="-20.2" moovel_centroid="463.753037412,1866.10429191" moovel_centroidlatlon="-73.91252361474011,40.85689026412487"/>
  <polygon id="180522737" class="tile" points="476.56242419,1847.73020636 508.436377017,1847.05206367 516.41413949,1880.37915562 512.516816607,1881.30656071 512.36990239,1887.38397975 490.047343818,1886.62000111 489.056713845,1902.05137478 491.799577133,1902.43953935 491.67727381,1913.10464475 476.601387514,1912.6451767 476.585090346,1878.96325205 476.55947773,1851.45361401 476.56242419,1847.73020636 " moovel_rot="-60" moovel_centroid="492.438902553,1874.2803898" moovel_centroidlatlon="-73.86983630080806,40.65123253701117"/>
  <polygon id="252080324" class="tile" points="517.41413949,1897.80564619 546.705103657,1872.22393841 527.547469901,1847.05206367 517.432442297,1856.06077593 517.41413949,1897.80564619 " moovel_rot="-45.7" moovel_centroid="528.058708072,1870.98188416" moovel_centroidlatlon="-73.91045656926717,40.673283513210535"/>
  <polygon id="185149998" class="tile" points="0.0,2048.43803629 16.6489428878,1979.55200496 37.1087468885,1983.60993981 36.0971381899,1987.77071619 51.9859905224,1989.4405778 63.4927177705,1994.76253056 65.791671858,1996.82084612 66.8797162637,2000.02208164 66.8260237087,2002.86438342 62.9141145833,2025.84669364 66.2951389387,2026.20615113 62.3726187296,2046.22513707 58.930494719,2045.51581951 58.4709395193,2047.74952034 64.6647358876,2051.70468692 66.9479966372,2055.69999477 66.4478428904,2068.55431966 65.5935531322,2076.88304552 63.3287855946,2079.6710179 60.0491347633,2081.10244134 56.6654332303,2081.59965315 56.1548622519,2085.81898618 30.2439988688,2080.52507433 35.2409302935,2055.30116091 0.0,2048.43803629 " moovel_rot="-54.0" moovel_centroid="38.04974612293134,2030.3388526" moovel_centroidlatlon="-73.82155662532917,40.84863407576118"/>
  <polygon id="393391803" class="tile" points="68.9479966372,1980.42921608 107.317386222,1979.55200496 113.970559562,1984.75714855 115.988219487,2128.40197403 95.805112474,2128.49739875 95.8124953303,2210.09451537 89.0138347995,2210.08995304 89.3433905149,2239.22397805 96.4285179149,2239.50312641 97.7005387418,2388.17404677 76.8531795783,2388.39027575 74.1941476271,2384.99208643 72.5302212793,2310.16374915 69.9160451829,2308.48822397 69.6370142365,2291.39832484 73.0660770476,2290.09725944 72.5394804068,2217.21588572 69.0616968766,2215.77223084 69.0600001514,2211.50334085 69.0476146936,2174.05864324 71.2521603022,2172.93020178 68.9479966372,1980.42921608 " moovel_rot="-91.2" moovel_centroid="88.2727265823,2152.48536514" moovel_centroidlatlon="-73.80134790368561,40.65784849269316"/>
  <polygon id="245082045" class="tile" points="122.917432508,1991.80464507 123.719552655,1996.74366087 116.988219487,1997.8079094 126.173800728,2057.36582127 149.807302863,2047.19813242 156.622491284,2044.15521081 153.620941089,1996.1593054 154.466722912,1990.28107178 156.603303997,1986.39997676 155.580965952,1982.66975101 154.58098034,1979.55200496 142.628555866,1985.0959023 122.917432508,1991.80464507 " moovel_rot="-17.9" moovel_centroid="138.266394811,2018.25103638" moovel_centroidlatlon="-73.91297501930333,40.89119126937968"/>
  <polygon id="241824861" class="tile" points="209.224327512,1979.99415192 157.662523844,1979.55200496 157.622491284,2026.49856672 191.79911715,2027.08427595 191.300060344,2034.34746048 165.087811701,2035.80714168 171.130187667,2082.90290449 199.077272654,2078.65465829 195.580681683,2050.67769072 224.418757769,2049.07828141 224.413120649,2036.26255872 204.196553962,2035.44306198 205.162545288,2023.75222737 226.143586486,2024.62087705 227.092366542,2010.86265129 204.905056713,2009.6639803 205.422975574,2004.47675933 209.21046637,2004.50606396 209.224327512,1979.99415192 " moovel_rot="-10.9" moovel_centroid="187.492200438,2024.32688934" moovel_centroidlatlon="-74.17886211310393,40.61208718389443"/>
  <polygon id="220789412" class="tile" points="228.092366542,1999.46895086 235.600092781,1999.50773695 237.932301714,1999.51499278 237.947310405,1979.59803569 234.987446922,1979.58860398 228.107362755,1979.55200496 228.092366542,1999.46895086 " moovel_rot="48.1" moovel_centroid="233.019841079,1989.53551177" moovel_centroidlatlon="-73.91465672746489,40.78283483471117"/>
  <polygon id="278053503" class="tile" points="258.282655196,1979.55200496 260.776703488,1993.98808933 260.788141816,2014.12709508 242.3063085,2012.61111875 242.256705647,2008.09358695 238.947310405,2007.13093305 244.268979278,1988.82424816 249.060210477,1989.21933545 249.849726785,1979.57043691 258.282655196,1979.55200496 " moovel_rot="-61.7" moovel_centroid="251.739854555,1998.69512199" moovel_centroidlatlon="-74.01080279387403,40.704674032134456"/>
  <polygon id="201018718" class="tile" points="261.788141816,1979.55200496 266.546745997,1979.55788813 271.108510916,1979.56193965 271.112664023,2003.49347378 268.645605695,2003.4871841 261.79229624,2003.48353219 261.788141816,1979.55200496 " moovel_rot="10.8" moovel_centroid="266.450346915,1991.52202551" moovel_centroidlatlon="-73.84162375282897,40.66383850785158"/>
  <polygon id="376406581" class="tile" points="287.939615725,2019.16405945 272.112664023,2019.13762548 272.130732265,1979.55200496 287.957701363,1979.57843602 287.939615725,2019.16405945 " moovel_rot="80.5" moovel_centroid="280.035178444,1999.35802785" moovel_centroidlatlon="-73.9321881,40.74473575"/>
  <polygon id="412123959" class="tile" points="288.973078243,2008.17131045 288.957701363,1979.65089511 313.041454197,1979.55200496 313.05350823,2008.07821449 288.973078243,2008.17131045 " moovel_rot="-60.6" moovel_centroid="301.006842084,1993.86277638" moovel_centroidlatlon="-73.8751616177527,40.653196447765694"/>
  <polygon id="298133559" class="tile" points="322.788398692,1990.59982989 317.568612482,1990.27317214 317.177172691,1987.58465308 314.325483505,1987.6783796 314.320780677,1986.7529621 314.184712191,1985.80521552 314.05350823,1984.9163635 314.054778669,1979.55200496 315.529370717,1979.55251244 322.840275585,1979.69637036 322.885503288,1981.18478724 322.769570764,1985.54696685 322.788398692,1990.59982989 " moovel_rot="-31.6" moovel_centroid="318.750675605,1984.55800852" moovel_centroidlatlon="-73.92316639045407,40.769014858347404"/>
  <polygon id="346383188" class="tile" points="338.807486288,1979.55200496 323.914652729,1979.59262052 323.885503288,2027.05444833 338.772464607,2027.01701566 338.807486288,1979.55200496 " moovel_rot="-28.9" moovel_centroid="331.345110589,2003.30246285" moovel_centroidlatlon="-73.91741786264905,40.867578064984905"/>
  <polygon id="219682491" class="tile" points="348.681969031,1979.92787649 348.277066739,2005.80031698 348.145488391,2009.7953067 339.807486288,2009.61847526 341.31473517,2016.06235953 365.876455029,2015.35367833 365.861508776,1979.55200496 348.681969031,1979.92787649 " moovel_rot="8.7" moovel_centroid="356.22267597,1998.83159408" moovel_centroidlatlon="-73.95309698959613,40.58993484068964"/>
  <polygon id="329370064" class="tile" points="374.377507935,1979.55200496 378.642189501,1979.60354706 378.752706297,1985.98117589 381.358421977,1986.01192632 381.380740063,1984.47352251 390.053550931,1984.58307057 390.063467122,2011.91024932 375.227519269,2012.03475134 375.431816815,1995.44977541 371.692152773,1995.402265 371.593750895,1990.61692214 366.876455029,1990.33405986 366.886314548,1987.31863918 374.403269006,1987.24775886 374.377507935,1979.55200496 " moovel_rot="24.1" moovel_centroid="381.365364162,1996.82201045" moovel_centroidlatlon="-73.95070451773177,40.72244842965759"/>
  <polygon id="309309709" class="tile" points="443.6925836,2147.56511068 449.907532138,2134.18711571 453.409308465,2117.79886377 456.621430771,2091.33330196 457.416611208,2068.16684239 457.00900787,2045.30487787 455.534967976,2024.99085194 453.299228766,2004.83315127 450.458017869,1990.99213113 447.60593744,1979.55200496 394.699412274,2010.59300902 395.140993299,2017.81409788 391.065650893,2018.41159867 393.74546814,2040.53282332 394.168941898,2058.12860031 393.680624391,2077.6855165 392.748370642,2091.37078323 391.063467122,2103.85425722 395.136974326,2104.30824855 394.247150792,2116.6441222 443.6925836,2147.56511068 " moovel_rot="0.1" moovel_centroid="426.314781692,2063.70521215" moovel_centroidlatlon="-74.1466662700398,40.597460793247954"/>
</svg>