<svg xmlns="http://www.w3.org/2000/svg" version="1.1" width="592.5px" height="1200px">
  <polygon id="1" class="bin" points="-1.875,0.0 0.77665042945,1.09834957055 1.875,3.75 1.875,1203.749999 0.77665042945,1206.40164943 -1.875,1207.499999 -242.439377545,1207.499999 -244.65652264,1206.77436135 -246.015617626,1204.87827507 -247.648175499,1199.70363823 -248.371790824,1198.13339174 -266.586966545,1168.9526214 -267.390563066,1167.90487532 -289.278559812,1144.43413587 -300.591637369,1132.29242984 -300.788915622,1132.09331364 -301.874999,1129.45398641 -301.874999,1115.55119595 -301.216894127,1113.42924295 -299.473567253,1112.05207268 -298.504637085,1111.67864529 -289.741191853,1108.30317945 -286.541586501,1105.2401932 -286.47355218,1100.81134115 -288.416662437,1095.95438131 -288.278082194,1092.86264032 -280.724586049,1077.9980693 -278.14088883,1076.02459638 -276.111093559,1075.60483561 -272.294303156,1073.34219115 -268.699918974,1069.11342069 -268.4071424,1068.80606649 -265.85296117,1066.41197724 -263.992800617,1063.43339916 -256.532002344,1039.20813332 -256.514662648,1039.15332805 -227.517083871,949.885979407 -227.512558186,949.872138864 -202.643749986,874.314751185 -203.020666717,869.841619835 -204.768334015,868.42062931 -206.149957983,865.651716739 -206.325557238,860.974565795 -209.772327545,857.98664791 -264.916998064,840.645262737 -299.250083675,829.847113769 -301.148371912,828.488362531 -301.874999,826.269868394 -301.874999,801.065957558 -300.440017806,798.115840963 -297.233298772,797.423517346 -294.709018702,799.518838105 -290.125314424,809.639480997 -286.899697956,812.65183853 -282.48929092,812.486886145 -247.306940158,796.279625305 -247.278691862,796.266534699 -224.092111886,785.457747435 -221.046211069,781.969855617 -221.580317483,777.370113074 -224.634638173,772.184905484 -224.550375543,768.242064188 -224.448412694,768.084746188 -225.1248275,763.976823317 -231.910930175,752.456307083 -232.304136828,749.590316303 -230.540533421,747.29723592 -226.914187877,745.224755402 -224.284070357,741.979395541 -224.534509716,737.809604308 -250.397322233,681.493592705 -252.879795815,678.617409067 -300.171281879,647.822771162 -301.874999,644.68028387 -301.874999,572.195106416 -301.39723561,570.36344936 -255.980334801,489.226620219 -255.614445869,488.688542441 -222.230617334,447.745137646 -220.962439245,443.572280783 -222.987828471,439.709793431 -246.199225796,420.205040912 -250.449262059,418.886525545 -254.364541014,421.001207961 -288.547059544,463.483488458 -289.180780049,464.419347703 -294.857525534,474.499347026 -297.447488857,476.347496078 -300.525190343,475.540453023 -301.874999,472.659206501 -301.874999,417.543875972 -299.834226631,414.206056188 -291.78265268,410.083013735 -291.211267312,409.754943214 -278.986057217,401.933591174 -271.713197081,397.278461756 -270.80294831,396.582405441 -261.017427279,387.713359946 -251.567268304,379.142129288 -249.365688553,374.771250972 -248.925639681,370.343717674 -247.411758662,355.0541545 -245.98742589,340.700942968 -244.498854078,325.626510893 -245.688454894,321.519551937 -249.381679661,319.364939955 -251.205890276,319.093428693 -253.123074685,318.206579322 -256.603324899,315.161682393 -257.380081177,314.217149612 -261.191357148,307.628762714 -269.560389378,293.164099358 -279.321980296,276.28410475 -282.757756215,270.348456886 -283.25129992,268.183430681 -283.096069348,266.156894556 -281.911540208,250.441074264 -281.411015689,243.857999405 -281.409725096,243.841506438 -280.823223375,236.553121834 -279.62211506,221.534375836 -278.4113732,206.39111432 -277.294942967,192.404384947 -277.294489447,192.398756646 -276.814851936,186.501782035 -276.812436549,186.473418444 -275.972995394,177.039619826 -272.004640791,132.47559036 -271.310962697,124.743622997 -271.305686484,124.681665657 -270.827245085,118.746066776 -269.598909551,103.639565755 -268.435757781,89.3135553524 -267.216232356,74.2836493853 -266.124121674,60.8692531416 -265.769284299,56.4929943951 -265.767796685,56.4751749642 -264.896490736,46.3300241384 -261.212698131,3.42917709528 -260.012133682,0.987249025638 -257.476446979,0.0 -1.875,0.0 " moovel_rot="0" moovel_centroid="-131.7012468754472,596.3313365394614" moovel_centroidlatlon="0,0"/>
  <polygon id="450419556" class="tile" points="44.0990300186,1201.0 44.1051009193,1208.84930784 39.5955438968,1208.83912806 39.6611531164,1268.61271721 46.2327372935,1268.6294629 46.2677380547,1301.13000481 1.0,1301.02914958 1.05359801501,1345.81018588 74.7872826915,1345.97712976 74.6418643868,1217.89483057 62.3352171849,1217.86324793 62.3207679456,1201.04082865 44.0990300186,1201.0 " moovel_rot="59.4" moovel_centroid="47.34262090807077,1289.19920697441" moovel_centroidlatlon="-73.77075875775371,40.65498729631829"/>
  <polygon id="108325092" class="tile" points="75.8303963952,1268.70788993 85.4531225342,1268.66687913 85.4263192933,1240.77818388 108.210261786,1240.67598841 108.178299337,1201.0 75.7872826915,1201.14031582 75.8303963952,1268.70788993 " moovel_rot="-43.4" moovel_centroid="90.0343974482,1226.7518657765418" moovel_centroidlatlon="-73.91180078331163,40.78681084222579"/>
  <polygon id="236776862" class="tile" points="109.210261786,1249.34296509 109.487000904,1225.42964121 127.600540839,1225.19189098 127.466589248,1214.91020545 125.513618946,1213.51984292 109.249722419,1213.27250416 109.25013632,1201.0 133.097967315,1201.03872464 133.227077421,1249.25004547 109.210261786,1249.34296509 " moovel_rot="-82.1" moovel_centroid="121.907878087,1226.4973575957883" moovel_centroidlatlon="-73.89696797432876,40.75406125497496"/>
  <polygon id="275609108" class="tile" points="134.267502871,1325.83019847 136.714071056,1326.7467541 141.971019289,1328.72361792 142.06591447,1326.27028784 143.205772691,1241.22245325 139.878580198,1240.83465706 139.904408029,1201.0 134.227077421,1201.57977005 135.323385296,1239.50182473 135.694118888,1281.1256552 134.267502871,1325.83019847 " moovel_rot="-59.6" moovel_centroid="138.555754966,1268.8287772171125" moovel_centroidlatlon="-73.88291302547734,40.76792083541977"/>
  <polygon id="43633113" class="tile" points="157.825278634,1203.4131909 186.323177321,1211.27393753 186.2366273,1300.41140999 149.477852552,1299.07142435 144.205772691,1237.01992294 153.335325287,1235.58829392 147.593241666,1201.0 157.825278634,1203.4131909 " moovel_rot="-16.0" moovel_centroid="166.836696711,1253.3143894639306" moovel_centroidlatlon="-73.97487844169751,40.6646112076119"/>
  <polygon id="413778951" class="tile" points="187.335175521,1255.24559939 195.558509428,1254.69353709 194.515130053,1278.08107359 239.652747132,1296.76566714 236.461334428,1226.05412452 272.496523478,1225.80580141 271.526668488,1201.64352835 187.323177321,1201.0 187.335175521,1255.24559939 " moovel_rot="45.5" moovel_centroid="221.404630813,1238.1340013440588" moovel_centroidlatlon="-74.14348790637105,40.553936667725445"/>
  <polygon id="295109425" class="tile" points="278.391433071,1201.0 273.558264244,1204.78496818 273.496523478,1246.34761257 278.906885283,1249.25164328 283.341885244,1242.25585924 281.703913385,1202.98106373 278.391433071,1201.0 " moovel_rot="-14.9" moovel_centroid="278.038873004,1225.488449946196" moovel_centroidlatlon="-73.95433337599141,40.741690046472634"/>
  <polygon id="409726392" class="tile" points="285.36634356,1225.31909541 297.566634785,1225.42171027 297.50454599,1210.3466149 297.579062941,1206.4822454 297.564495946,1201.19892904 297.560439363,1201.0 284.975331261,1201.11242657 285.027293104,1206.92813897 285.08462799,1213.12311582 284.341885244,1213.13582862 284.394197501,1218.91109574 285.313880154,1218.90009214 285.36634356,1225.31909541 " moovel_rot="-29.2" moovel_centroid="291.253785256,1213.1814271005398" moovel_centroidlatlon="-73.98104089925943,40.740675446921614"/>
  <polygon id="300398893" class="tile" points="306.392183911,1201.0 306.370088568,1243.7235406 302.629225218,1243.73381784 302.639610229,1225.67048505 301.047584893,1225.67987778 298.579062941,1225.69104946 298.589630242,1201.01984494 301.08592352,1201.01879986 306.392183911,1201.0 " moovel_rot="-43.1" moovel_centroid="303.009752767,1218.892738759051" moovel_centroidlatlon="-73.91803501796069,40.790556635194676"/>
  <polygon id="359863729" class="tile" points="324.785479996,1201.14247206 316.311979651,1201.0 315.931223566,1205.39302825 315.29447367,1206.13487153 313.524483167,1205.96077426 310.531208405,1212.18711691 307.392183911,1214.80144133 321.573603331,1241.40251531 328.850907169,1237.76319785 328.873260015,1205.78972768 324.688053427,1205.77248232 324.785479996,1201.14247206 " moovel_rot="56.5" moovel_centroid="320.597607856,1219.674127809397" moovel_centroidlatlon="-73.92052024129502,40.797855190642025"/>
  <polygon id="59382170" class="tile" points="375.158474922,1271.84237772 373.181519357,1201.0 329.904743055,1202.16337307 329.873260015,1272.67768232 375.158474922,1271.84237772 " moovel_rot="-43.1" moovel_centroid="352.052655338,1237.1868796630074" moovel_centroidlatlon="-74.06546486836213,40.59063660218767"/>
  <polygon id="238072582" class="tile" points="380.265035938,1201.0 385.65206488,1202.43774075 389.542250619,1204.5819723 394.829854082,1209.64929934 399.559317653,1216.46089079 401.549700624,1223.77704612 401.600792214,1229.46336887 407.781579479,1231.63258443 407.160418615,1234.01284985 406.767137242,1236.86084507 400.28246693,1238.47377768 396.487509109,1241.03029431 392.884861684,1258.45276667 376.194893346,1254.91451516 379.930894178,1235.81818661 389.613258856,1237.45288621 388.846500451,1232.00523923 387.366348528,1227.44755732 385.382657003,1223.7552807 379.877758559,1218.72065429 376.158474922,1216.87800434 378.307782957,1208.55836268 380.265035938,1201.0 " moovel_rot="79.7" moovel_centroid="389.60392004,1230.2492908530714" moovel_centroidlatlon="-73.934946338546,40.77486465521434"/>
  <polygon id="286087280" class="tile" points="409.042797212,1422.30533834 432.697969074,1421.70945949 431.021717379,1348.66864959 433.444071023,1347.18028425 440.810949144,1346.69651016 497.413757687,1346.97690205 498.584851145,1342.29122064 500.514493395,1239.40611345 502.599194528,1205.88512598 468.644609306,1203.40680078 466.027390759,1235.65484382 440.588409497,1232.88669862 438.623264376,1202.61152586 408.781579479,1201.0 409.826277332,1294.97725259 409.042797212,1422.30533834 " moovel_rot="55.2" moovel_centroid="450.386092586,1291.506158604018" moovel_centroidlatlon="-74.08487110105763,40.58667166477516"/>
  <polygon id="185148191" class="tile" points="503.613338804,1226.99477137 503.599194528,1201.02487754 521.983345541,1201.0 521.98114185,1221.35056832 521.988800439,1226.96868808 503.613338804,1226.99477137 " moovel_rot="-82.1" moovel_centroid="512.794478031,1213.9956305419475" moovel_centroidlatlon="-73.93918863194229,40.58985379640433"/>
  <polygon id="412123956" class="tile" points="522.988800439,1208.69521421 527.744964842,1201.0 553.682718403,1215.72305287 551.883804383,1219.32114659 557.26546491,1222.30988377 559.741607814,1219.13138781 583.860111681,1232.25079677 580.74079836,1237.63700053 584.216035377,1239.59867904 543.682189738,1313.06747698 523.075995451,1302.62639894 553.363034508,1250.3725017 563.698870185,1255.9940102 564.556847717,1254.64099942 554.399655132,1248.28479151 563.788187591,1232.34362983 561.262674734,1230.9540268 551.634638164,1246.83554103 535.945286556,1238.61870912 545.540601439,1222.33625313 539.954967852,1219.10203432 536.343081913,1216.86418203 534.395785473,1220.55249713 523.44109123,1214.26026915 525.426803342,1210.96940433 522.988800439,1208.69521421 " moovel_rot="-31.3" moovel_centroid="552.194990377,1256.2048940513591" moovel_centroidlatlon="-73.87305810898845,40.65344279162163"/>
  <polygon id="251110317" class="tile" points="0.0,1443.69130877 8.33442155086,1443.39072466 16.7787229775,1443.09860598 16.7790046781,1441.35628046 15.8409437606,1441.35855988 15.8232307713,1423.14513186 15.7810304325,1422.30533834 8.34757322464,1424.36978517 0.0259244866669,1426.65880922 0.0,1443.69130877 " moovel_rot="57.1" moovel_centroid="8.23217678219931,1433.95445587" moovel_centroidlatlon="-74.03035705219627,40.617073097692014"/>
  <polygon id="232494205" class="tile" points="35.005256539,1465.01767298 18.7790046781,1464.93178509 19.0883978188,1422.30533834 35.0023946371,1425.13769616 35.005256539,1465.01767298 " moovel_rot="66.1" moovel_centroid="26.8784765192,1444.40454102" moovel_centroidlatlon="-73.91708405029723,40.83430207637156"/>
  <polygon id="232494203" class="tile" points="49.0949525217,1438.11555562 49.1070598656,1422.30533834 36.005256539,1425.41735867 39.5283347374,1440.33644246 49.0949525217,1438.11555562 " moovel_rot="-37.0" moovel_centroid="43.3917462463,1431.14273112" moovel_centroidlatlon="-73.91812336641965,40.83466185469646"/>
  <polygon id="273617494" class="tile" points="50.1070598656,1422.5663435 62.6718930662,1422.30533834 62.6533442732,1445.95912033 50.7482130807,1446.04589966 50.1070598656,1422.5663435 " moovel_rot="-70.2" moovel_centroid="56.5508548605,1434.11283307" moovel_centroidlatlon="-73.8072270729636,40.7003397490452"/>
  <polygon id="266174997" class="tile" points="63.6718930662,1512.23402541 89.7292265762,1511.55181841 89.2721420351,1471.64345944 89.1912739564,1462.14422519 89.141850185,1456.65846946 87.6253948428,1456.67763806 87.6309534818,1457.42249727 79.6214168699,1457.49634109 79.6100243347,1456.03290682 76.450308142,1456.0611537 76.1558961736,1422.30533834 64.1321235545,1422.36343184 63.6827414025,1476.75555406 63.6718930662,1512.23402541 " moovel_rot="0.6" moovel_centroid="75.047312185,1474.1811728" moovel_centroidlatlon="-73.75438656334461,40.593100736634554"/>
  <polygon id="222912944" class="tile" points="90.7292265762,1422.42760756 90.9675849047,1468.88127752 99.0799884377,1468.74942305 99.1305739202,1422.30533834 90.7292265762,1422.42760756 " moovel_rot="-88.1" moovel_centroid="94.9763618427,1445.45547417" moovel_centroidlatlon="-73.94691267361134,40.58371663175129"/>
  <polygon id="208172694" class="tile" points="104.98507127,1524.96016538 120.088041674,1535.58968722 152.187809398,1540.61979312 152.229842392,1424.0554934 104.318587865,1422.30533834 100.13057392,1515.82460451 104.98507127,1524.96016538 " moovel_rot="-49.3" moovel_centroid="127.726318097,1479.68816036" moovel_centroidlatlon="-73.89957800403785,40.59044326647545"/>
  <polygon id="220770143" class="tile" points="176.986733879,1447.14534278 153.93653195,1447.00823851 153.229842392,1422.71476548 177.018926181,1422.30533834 176.986733879,1447.14534278 " moovel_rot="1.8" moovel_centroid="165.335185969,1434.72793085" moovel_centroidlatlon="-73.95995539963849,40.58682178727244"/>
  <polygon id="246729721" class="tile" points="178.028965553,1422.30937811 178.018926181,1483.09971595 209.668503049,1483.08141829 209.678165178,1428.70458083 191.429304596,1428.71883664 191.429707043,1422.30533834 178.028965553,1422.30937811 " moovel_rot="-85.3" moovel_centroid="193.414626638,1454.45749805" moovel_centroidlatlon="-74.19751662594437,40.51716639381619"/>
  <polygon id="284422853" class="tile" points="221.033017439,1653.06162594 221.563272395,1648.56649275 220.099662251,1646.7261289 218.365431144,1646.547146 216.848973555,1646.11497747 222.786086522,1581.03236778 212.511151533,1580.49355682 212.81110234,1576.09106107 211.034435486,1574.43954638 210.678165178,1573.30496483 210.755281251,1572.13789402 211.396643778,1571.04208136 213.041993462,1570.19313333 213.600372894,1567.99517303 214.02517166,1560.94253101 212.036386904,1559.44334644 212.355072207,1557.03921666 215.219044376,1555.37953768 215.680613286,1546.61414142 213.495741078,1544.62913475 213.517199251,1542.69176995 216.191780558,1541.49469969 216.978897344,1532.7009685 215.199170164,1530.95872144 215.164970137,1528.25106239 217.658782892,1526.79278655 218.478488645,1517.71873602 217.159475346,1516.27585532 220.137424706,1512.45004018 224.940229525,1512.36111028 225.982437222,1504.71184272 224.676436186,1503.48278451 226.379104999,1499.59082597 232.717466912,1499.38665226 237.521061695,1454.08544159 232.995392286,1428.57299255 237.57479963,1427.66639995 238.746422604,1426.30426258 243.116766027,1425.64072702 244.196871271,1424.61394235 252.646554918,1422.30533834 285.509325407,1425.24300771 280.698165093,1476.31707614 273.611848209,1558.76246086 269.115499508,1625.37505359 270.928842437,1628.82892626 285.212581108,1630.78074054 285.749960831,1633.85953235 285.113653814,1659.23126505 283.459329507,1659.12101283 259.52886822,1643.77952355 258.076221351,1644.28324169 251.460970858,1655.34105352 229.861238748,1652.62917707 227.920222119,1653.87575198 221.033017439,1653.06162594 " moovel_rot="-49.3" moovel_centroid="250.274781591,1543.23193934" moovel_centroidlatlon="-73.71449066579848,40.74686567186527"/>
  <polygon id="265042511" class="tile" points="286.755074938,1447.31820028 286.749960831,1422.31098812 287.210144266,1422.30791391 305.262518344,1422.30533834 305.267602833,1447.31256691 304.225920549,1447.31723167 286.755074938,1447.31820028 " moovel_rot="61.0" moovel_centroid="296.008856354,1434.81212357" moovel_centroidlatlon="-73.98920609489431,40.745705698707596"/>
  <polygon id="185021243" class="tile" points="327.549366224,1425.38401019 327.523315221,1466.12253534 321.752963716,1466.61099189 312.121273861,1462.11038204 306.267602833,1439.8660098 312.050941765,1427.33684684 320.046373198,1422.30533834 327.549366224,1425.38401019 " moovel_rot="80" moovel_centroid="318.654957144,1444.48859776" moovel_centroidlatlon="-74.10763533715891,40.61842251934791"/>
  <polygon id="335920892" class="tile" points="328.717584823,1548.48596689 342.511630167,1545.94018552 342.581317502,1440.25790322 342.591778745,1422.30533834 339.021133262,1422.35142988 328.549366224,1422.47881762 328.717584823,1548.48596689 " moovel_rot="-83.0" moovel_centroid="335.570539857,1484.61963271" moovel_centroidlatlon="-73.94797102203452,40.73135087815838"/>
  <polygon id="324975281" class="tile" points="343.591778745,1422.30533834 343.593891844,1460.57910154 348.258041012,1460.0712428 347.808850037,1448.18181698 372.543731599,1446.8189845 371.337656875,1423.81776554 343.591778745,1422.30533834 " moovel_rot="62.5" moovel_centroid="356.638017987,1436.78632025" moovel_centroidlatlon="-73.99929729669596,40.718367353983524"/>
  <polygon id="25165681" class="tile" points="373.543731599,1422.30533834 427.615717389,1422.46277286 427.641154392,1513.82140964 373.569482465,1513.66380399 373.543731599,1422.30533834 " moovel_rot="61.4" moovel_centroid="400.592529934,1468.06328703" moovel_centroidlatlon="-73.99831775,40.748231600000004"/>
  <polygon id="285497562" class="tile" points="441.816047798,1430.01756371 439.800900127,1427.87499372 436.241459881,1427.08869594 436.306495409,1422.36258171 429.7568622,1422.30533834 429.874965887,1428.80382664 428.641154392,1428.6597625 428.744976049,1433.11480598 430.38110566,1433.27921244 430.631827471,1436.29843223 428.791943091,1436.32558885 428.919731242,1440.37621652 430.528835814,1440.06376425 430.760952305,1443.4777521 428.644827513,1443.53134315 428.848077396,1448.43146258 430.768407265,1448.36899285 431.027090443,1451.18777022 428.795909093,1451.87541609 429.014790561,1455.69640332 430.551781637,1456.09398182 430.584755838,1457.93956808 429.335025375,1458.19638714 429.285917073,1462.52161455 430.607920762,1468.19985343 433.035456245,1468.83382494 435.776828161,1469.54886257 435.735893521,1467.90371833 439.139044041,1467.00068258 438.486003379,1463.96112079 435.46343085,1457.94981467 438.223214479,1457.81062477 438.078168967,1451.03218884 436.871297962,1451.16807292 436.914376677,1445.27720565 434.833151169,1445.41030362 435.636283393,1441.92847426 436.941535066,1439.78722217 439.855894412,1437.33351645 441.853412032,1435.873119 442.648586985,1432.59173026 441.816047798,1430.01756371 " moovel_rot="66.3" moovel_centroid="434.083816693,1444.51704295" moovel_centroidlatlon="-73.93343455518666,40.772403576837554"/>
  <polygon id="331840663" class="tile" points="443.648586985,1422.30533834 443.722204301,1440.30916562 443.669527871,1444.04750419 458.989503595,1446.98006918 458.201203556,1451.11883545 464.146257465,1452.25624171 464.437989559,1426.78722356 443.648586985,1422.30533834 " moovel_rot="28.6" moovel_centroid="454.341767013,1435.98371513" moovel_centroidlatlon="-73.78902200510976,40.85243516447948"/>
  <polygon id="181275814" class="tile" points="471.751439169,1496.96172343 472.827430274,1506.21599297 496.534385169,1504.79689599 522.274442554,1464.64749727 523.639366457,1452.73977282 523.637952192,1422.30533834 465.437989559,1428.51664076 465.956958269,1438.04773199 479.437080858,1437.39967103 480.371217706,1450.40203661 465.863562969,1451.03408162 466.386372746,1458.42282593 469.738519192,1457.92644373 471.751439169,1496.96172343 " moovel_rot="-17.5" moovel_centroid="494.805595382,1461.01597902" moovel_centroidlatlon="-73.91475277770874,40.608911968311794"/>
  <polygon id="293064511" class="tile" points="553.090712271,1514.86830676 549.671098072,1505.84944428 532.41678119,1457.84792722 524.639366457,1436.37972489 530.291584697,1426.36473031 551.427602663,1437.98326692 551.309864726,1444.8804554 569.537458968,1454.89605212 568.489020356,1433.94370826 559.927877136,1429.2387589 563.743332708,1422.30533834 581.940390692,1422.66332131 581.922769362,1464.61491266 553.090712271,1514.86830676 " moovel_rot="-75.7" moovel_centroid="556.252994481,1461.30334572" moovel_centroidlatlon="-73.94982878387822,40.7435594637194"/>
  <polygon id="185153776" class="tile" points="9.13403097522,1768.19308457 41.7397663308,1769.48925686 45.3603434756,1723.17895075 50.7122026836,1712.80826226 50.4478362355,1691.52415019 50.6503518378,1664.95247392 40.4857810294,1664.35894964 40.4346780801,1660.83074559 6.27978791837,1659.23126505 1.04448825382,1661.349993 1.16684946232,1671.74685013 0.156249628589,1701.25675541 0.0,1704.62587145 4.89574157707,1708.78610783 5.38661756068,1709.46749024 8.22343423851,1715.79867873 9.96218118332,1722.62904145 10.8817779522,1729.54431573 9.13403097522,1768.19308457 " moovel_rot="70.0" moovel_centroid="26.230996267431333,1709.65277524" moovel_centroidlatlon="-73.9779094548063,40.71461561979917"/>
  <polygon id="166776565" class="tile" points="52.9549327429,1659.6039897 78.4501776345,1659.23126505 81.0408791862,1798.77838751 80.9975939291,1801.81517257 80.9603943342,1803.37464833 80.4551519709,1805.5081639 80.0017660642,1806.47603917 53.816310163,1806.74767131 53.4280129051,1805.35650248 52.9033291839,1802.25682782 52.7122026836,1800.01961998 53.5833525289,1774.51039472 52.9549327429,1659.6039897 " moovel_rot="25.1" moovel_centroid="66.534088208,1734.12601845" moovel_centroidlatlon="-73.81634319629494,40.584897343303936"/>
  <polygon id="309154412" class="tile" points="228.117701515,1808.22527973 256.912993501,1805.32858984 256.738542704,1767.32800588 196.880244602,1695.19418106 182.44558475,1706.56782248 144.385966626,1659.23126505 83.9432898,1664.32722198 82.0408791862,1670.64803307 82.0786290586,1858.55009629 107.929300551,1999.05479966 131.30935732,1998.8398431 124.650541118,1849.59970743 90.5346326128,1851.8622752 83.3062075753,1737.14824057 211.665311834,1729.23315187 226.951797004,1748.60104498 228.117701515,1808.22527973 " moovel_rot="-52.8" moovel_centroid="138.12672576,1788.15935678" moovel_centroidlatlon="-73.91476640914074,40.6452829000146"/>
  <polygon id="185148184" class="tile" points="305.153321719,1671.01390578 307.46356744,1666.20566112 299.034940601,1661.65332946 294.554224471,1659.23126505 257.912993501,1727.33347086 273.53901232,1747.06172263 276.423566751,1749.9594055 288.025153858,1757.69259512 295.203116096,1759.92029776 299.762088544,1758.29858903 303.424507106,1754.98106971 305.39434883,1751.0462947 307.43141249,1747.73260924 291.600358966,1734.06980002 274.311114205,1724.65053814 275.719763205,1721.99321308 303.879922621,1670.31761261 305.153321719,1671.01390578 " moovel_rot="37.0" moovel_centroid="283.682533021,1716.56794924" moovel_centroidlatlon="-73.93226497105047,40.5867497519968"/>
  <polygon id="59385053" class="tile" points="325.733367002,1740.39303649 308.470441981,1740.79777328 308.46356744,1659.23126505 327.42513894,1659.93129679 325.733367002,1740.39303649 " moovel_rot="38.5" moovel_centroid="317.509433889,1699.45079398" moovel_centroidlatlon="-74.08279785233779,40.57515624852762"/>
  <polygon id="157929611" class="tile" points="328.476992911,1727.16784752 328.42513894,1667.30913027 351.261837432,1667.28931021 351.2565485,1659.23422882 356.781545894,1659.23126505 356.844770706,1735.65432792 350.80235367,1735.65819475 350.796272037,1727.14893053 328.476992911,1727.16784752 " moovel_rot="-90.1" moovel_centroid="343.235375935,1697.36280494" moovel_centroidlatlon="-73.80157714757728,40.65351522160321"/>
  <polygon id="380968302" class="tile" points="357.844770706,1713.82753144 403.804479916,1713.88030802 403.848095995,1659.28404299 357.888411218,1659.23126505 357.844770706,1713.82753144 " moovel_rot="-93.2" moovel_centroid="380.846439359,1686.55578929" moovel_centroidlatlon="-73.80951995000001,40.743807849999996"/>
  <polygon id="299854203" class="tile" points="412.994864677,1689.3361559 408.439141729,1696.34174665 406.91102291,1692.67192078 405.007522678,1682.04730284 404.848095995,1670.41013591 406.30304035,1661.26252308 413.017671026,1659.23126505 411.714802915,1663.51098448 411.095362906,1669.75442159 411.040347269,1677.26860098 411.440264936,1682.53674789 412.994864677,1689.3361559 " moovel_rot="-9.2" moovel_centroid="408.584786383,1677.07955633" moovel_centroidlatlon="-73.9155798390474,40.7939551902713"/>
  <polygon id="220792596" class="tile" points="426.727261652,1704.43416701 419.365408396,1707.38748649 415.376230004,1696.71298814 414.017671026,1688.85151087 414.080150213,1680.70494266 415.24799966,1673.83244497 417.001338716,1667.26640799 419.745310509,1659.23126505 426.741373981,1662.79539335 423.543433292,1670.21579405 421.302645398,1681.05688914 421.869907452,1691.53474121 423.540678677,1698.08746005 426.727261652,1704.43416701 " moovel_rot="-27.9" moovel_centroid="419.551873435,1683.57987324" moovel_centroidlatlon="-73.93532944135845,40.784675548118564"/>
  <polygon id="250172273" class="tile" points="458.746906116,1737.25868492 454.793576832,1738.01433963 454.61832244,1738.7626641 454.120441041,1740.21160119 453.437047928,1741.58058111 452.58021438,1742.85520593 452.096218181,1743.44706556 451.010549969,1744.52821845 449.788802921,1745.45587802 448.464894952,1746.2187397 447.768726877,1746.53895132 446.313516742,1747.03087748 444.809799577,1747.32801959 444.046721414,1747.40252024 442.519972574,1747.40647404 441.000481117,1747.20743264 440.251362427,1747.03693488 438.800632094,1746.54696446 437.42595748,1745.86910929 436.148037347,1745.02240727 434.991976795,1744.01578215 434.469322115,1743.45856669 433.53035759,1742.24644412 433.120564736,1741.6031978 432.443352333,1740.2294839 431.936876896,1738.78330286 431.629502104,1737.27940877 427.800080893,1737.28482948 427.741373981,1669.37990837 431.570811852,1669.37447835 431.61383894,1668.62353816 431.792352931,1667.88104346 432.282572167,1666.43638861 432.600794421,1665.74588923 432.958303862,1665.07169052 433.807476822,1663.80134706 434.291475471,1663.20948606 435.36948437,1662.13261381 436.580314452,1661.20340402 437.904229576,1660.44053834 438.592736601,1660.12460834 440.037031455,1659.63113102 440.777489494,1659.46215123 441.529833704,1659.33243753 443.052555024,1659.23126505 444.564760285,1659.32725746 446.058784529,1659.62469858 446.785875304,1659.84576486 447.498599003,1660.11311817 448.859098348,1660.7835926 450.115177202,1661.62719829 450.698189916,1662.11242325 451.772051298,1663.18794245 452.251976559,1663.77669008 452.689170894,1664.39697073 453.436514692,1665.7161865 454.008713607,1667.11798443 454.224773638,1667.84654984 454.507039377,1669.34152238 458.689481729,1669.33774402 458.746906116,1737.25868492 " moovel_rot="60.8" moovel_centroid="443.239257541,1703.37023104" moovel_centroidlatlon="-73.97387356955637,40.73528461781888"/>
  <polygon id="412123959" class="tile" points="459.762282996,1687.85057053 459.746906116,1659.33015519 483.83065895,1659.23126505 483.842712983,1687.75747457 459.762282996,1687.85057053 " moovel_rot="-60.6" moovel_centroid="471.796046837,1673.54203647" moovel_centroidlatlon="-73.8751616177527,40.653196447765694"/>
  <polygon id="252080161" class="tile" points="484.870178443,1669.92282338 494.128027707,1659.23126505 524.728984293,1685.71729041 521.650071535,1689.27545334 524.540996069,1691.77777844 494.714702336,1726.19501219 484.842712983,1717.64848937 508.479474763,1690.36766416 484.870178443,1669.92282338 " moovel_rot="36.8" moovel_centroid="503.910912316,1691.66063394" moovel_centroidlatlon="-73.91138397383935,40.67598480296314"/>
  <polygon id="378472020" class="tile" points="543.220042436,1706.53939128 525.811035147,1706.7676802 525.728984293,1659.23126505 557.619410861,1660.20784152 557.445695461,1669.22865547 552.391492446,1672.41145697 552.294506556,1682.19695108 542.518373677,1682.6781018 543.220042436,1706.53939128 " moovel_rot="57.8" moovel_centroid="537.990694527,1679.82028307" moovel_centroidlatlon="-73.92333422854736,40.757108518451744"/>
  <polygon id="300863063" class="tile" points="561.178084466,1659.23126505 558.619410861,1659.36849968 558.712061777,1683.77344663 561.143081124,1683.73440765 561.178084466,1659.23126505 " moovel_rot="7.6" moovel_centroid="559.913833016,1671.42251604" moovel_centroidlatlon="-73.8884905217089,40.77300735373722"/>
  <polygon id="286758886" class="tile" points="44.7652788363,2147.57592249 91.7635048538,2028.50486864 0.023585678637,1999.05479966 0.0,2052.35755133 7.31222289987,2100.95070187 27.3998310618,2106.86248753 34.8660659038,2142.20191314 44.7652788363,2147.57592249 " moovel_rot="-50.6" moovel_centroid="38.91341306134972,2062.23920232" moovel_centroidlatlon="-73.83492372551424,40.769298528357446"/>
  <polygon id="224286668" class="tile" points="122.067993505,2016.80750423 121.26294137,1999.05479966 97.479493464,1999.63855254 97.5069093695,2010.03843197 93.7635048538,2009.81300497 93.7653965097,2034.64565255 96.4495214254,2034.72974263 96.2869952153,2016.65617947 122.067993505,2016.80750423 " moovel_rot="7.6" moovel_centroid="107.557937409,2010.03721913" moovel_centroidlatlon="-73.95679494119207,40.59917868373625"/>
  <polygon id="329776610" class="tile" points="138.526377303,1999.39865304 138.082304591,2052.17814676 123.158712205,2051.75248315 123.067993505,1999.05479966 138.526377303,1999.39865304 " moovel_rot="-8.7" moovel_centroid="130.71165359,2025.44145132" moovel_centroidlatlon="-73.8207292334083,40.73575038521524"/>
  <polygon id="443296706" class="tile" points="139.617398352,2163.74580805 155.375689596,2163.6741815 155.290532301,1999.05479966 139.526377303,1999.11963299 139.617398352,2163.74580805 " moovel_rot="-40.8" moovel_centroid="147.452442257,2081.39350515" moovel_centroidlatlon="-74.13089205195517,40.53675501844034"/>
  <polygon id="288447165" class="tile" points="156.37872464,1999.05539826 156.375689596,2023.02171378 174.678077779,2022.43825818 174.676949188,2000.6136263 174.698729517,1999.05479966 156.37872464,1999.05539826 " moovel_rot="-29.0" moovel_centroid="165.490161156,2010.89315171" moovel_centroidlatlon="-73.98726461282999,40.76416505425812"/>
  <polygon id="292838360" class="tile" points="175.698729517,1999.14226039 197.091644695,1999.05479966 197.070438873,2001.07675076 196.991967231,2022.38775703 197.080763623,2046.27907379 178.624948901,2046.10879367 178.723873064,2025.8920259 175.841876153,2025.8779592 175.732289961,2022.22018692 175.698729517,1999.14226039 " moovel_rot="-29.1" moovel_centroid="186.971828549,2021.79539302" moovel_centroidlatlon="-73.98782817085164,40.74532088324408"/>
  <polygon id="426140945" class="tile" points="213.28722058,2008.60876781 213.28722058,2008.60876781 213.428873942,2010.60838612 213.408496277,2012.59684196 213.388118448,2014.58529719 213.370014532,2016.58223878 213.36619574,2018.99378179 213.368759057,2020.44850265 213.368828291,2021.4035952 213.371460598,2023.81340771 213.374092664,2026.22321932 213.436101751,2028.08043911 213.498110692,2029.93765836 213.557845417,2031.78639012 211.61950632,2031.77818227 209.681167212,2031.76997438 209.681167212,2031.76997438 202.02379285,2031.81148315 200.163243305,2031.80972024 198.091644695,2032.00095199 198.091644695,2032.00095199 198.229364541,2029.75365225 198.220921613,2027.70924914 198.21247851,2025.66484539 198.19758365,2023.62216967 198.181947328,2021.52511413 198.162133316,2019.43827356 198.140045044,2017.34294534 198.140045044,2017.34294534 198.125520124,2015.32745659 198.117446615,2013.31023851 198.108481185,2011.70259299 198.108481185,2011.70259299 198.116205939,2008.94433863 198.129490295,2006.59392791 198.142774419,2004.24351634 198.175583376,2002.53371167 198.214843797,2000.82217786 198.254104096,1999.1106436 199.208096796,1999.10971941 199.920365528,1999.10989062 199.920365528,1999.10989062 200.563570269,1999.11037478 202.264363684,1999.10946527 203.934802596,1999.09849653 205.605241499,1999.08752775 207.269228811,1999.07828764 209.684194323,1999.05884645 211.70222722,1999.05479966 211.934834315,2003.76804419 211.934834315,2003.76804419 211.300725952,2003.80150817 210.733728034,2004.00801274 210.16027853,2004.21624601 210.16027853,2004.21624601 209.242791253,2005.15340649 209.0538117,2006.33198721 209.0538117,2006.33198721 209.397197747,2007.61352138 210.27769811,2008.39637956 211.24755908,2008.60951454 213.28722058,2008.60876781 213.28722058,2008.60876781 " moovel_rot="-15.0" moovel_centroid="205.451946599,2016.02576727" moovel_centroidlatlon="-73.96748655294067,40.77776884150168"/>
  <polygon id="335987175" class="tile" points="214.557845417,1999.05479966 214.56483346,2018.11615413 226.433889638,2018.12246112 226.426902119,1999.06110218 214.557845417,1999.05479966 " moovel_rot="6.7" moovel_centroid="220.495867891,2008.5886292" moovel_centroidlatlon="-73.94675655,40.73239895"/>
  <polygon id="201148567" class="tile" points="240.624403149,1999.05479966 227.433889638,2014.70173123 233.947685112,2020.05365912 240.648304681,2025.56989334 240.624403149,1999.05479966 " moovel_rot="-39.4" moovel_centroid="236.23598001,2013.10740059" moovel_centroidlatlon="-73.83845821477497,40.654730342498546"/>
  <polygon id="329778943" class="tile" points="257.170105242,1999.05479966 257.339023207,2024.11993447 241.650494299,2025.56917013 241.648304681,1999.31629662 257.170105242,1999.05479966 " moovel_rot="79.2" moovel_centroid="249.392337828,2012.04170757" moovel_centroidlatlon="-73.81613572526159,40.73475917587149"/>
  <polygon id="201149337" class="tile" points="258.35220449,2023.33961307 269.456307883,2014.79577437 258.339023207,1999.05479966 258.35220449,2023.33961307 " moovel_rot="64.7" moovel_centroid="262.049178527,2012.39672903" moovel_centroidlatlon="-73.83872426666667,40.65628253333334"/>
  <polygon id="236031432" class="tile" points="280.753612367,1999.08222188 280.769300939,2033.47147228 270.456307883,2033.50374918 270.471654944,2062.61002526 301.544560603,2062.52240033 301.53010245,2034.06040274 290.63433752,2034.08653747 290.611325281,1999.05479966 280.753612367,1999.08222188 " moovel_rot="-15.1" moovel_centroid="285.858774553,2039.38675478" moovel_centroidlatlon="-73.89764260294938,40.6073871039701"/>
  <polygon id="224011676" class="tile" points="345.574004563,2001.35323157 316.186435545,1999.05479966 315.181730317,2035.03013886 306.462273357,2093.40430671 315.23964154,2097.74444947 302.544560603,2175.35692034 324.463495069,2180.68737492 330.334174802,2195.94071442 345.606019265,2198.35247532 345.574004563,2001.35323157 " moovel_rot="80.2" moovel_centroid="328.438203427,2098.99918383" moovel_centroidlatlon="-73.96961195226865,40.58151722590486"/>
  <polygon id="219802845" class="tile" points="357.458773869,1999.95735228 346.606019265,1999.05479966 346.617995816,2023.52954269 356.026100886,2024.41624994 356.141534608,2016.38636652 357.34380644,2016.52354729 357.458773869,1999.95735228 " moovel_rot="9.0" moovel_centroid="351.814150284,2011.39384752" moovel_centroidlatlon="-73.95522028469529,40.610507839627836"/>
  <polygon id="412123952" class="tile" points="359.155990658,2030.50830486 365.61137158,2033.94609982 372.950303329,2029.73440602 372.975654927,1999.05479966 364.900490534,2003.2438818 358.458773869,2000.05148309 359.155990658,2030.50830486 " moovel_rot="27.9" moovel_centroid="365.918684001,2016.56566916" moovel_centroidlatlon="-73.87219599770587,40.65419628605719"/>
  <polygon id="219559498" class="tile" points="373.975654927,2000.22185855 375.333006667,2054.08016244 389.221766018,2054.39532824 388.972559513,2103.31350313 417.48910246,2103.55706752 417.648539336,1999.05479966 373.975654927,2000.22185855 " moovel_rot="8.4" moovel_centroid="398.865536502,2046.23758275" moovel_centroidlatlon="-73.94927330504333,40.585605694959014"/>
  <polygon id="222185317" class="tile" points="418.648539336,2010.77620495 429.281477397,2022.63914614 434.113221689,2019.18741625 431.43897513,2012.65318271 431.951035366,2004.15932951 431.900996702,2002.72640965 434.11780797,2001.32875064 432.695068471,1999.05479966 425.530023255,2001.71665912 425.940603301,2004.09636762 423.782418913,2006.40734894 418.673304603,2008.99741077 418.648539336,2010.77620495 " moovel_rot="-2.0" moovel_centroid="427.511735897,2010.94018496" moovel_centroidlatlon="-73.87586186744417,40.85197512033253"/>
  <polygon id="413357499" class="tile" points="435.12044432,2080.52844069 480.905918432,2084.40285894 482.96024468,2060.16487132 482.627373401,2021.19594819 447.282000825,2023.95269657 445.219809935,2015.21153755 444.046395028,2011.57029337 442.980308622,1999.05479966 435.11780797,2000.77618593 436.68729513,2022.39948911 438.43378317,2050.53992515 435.12044432,2080.52844069 " moovel_rot="34.9" moovel_centroid="458.814499799,2049.85582048" moovel_centroidlatlon="-73.87708099996249,40.64665317541198"/>
  <polygon id="374333730" class="tile" points="499.030171415,2030.355781 483.993650851,2030.55253251 483.96024468,1999.85567908 497.685672836,1999.05479966 498.361158963,2004.57976372 501.938948576,2004.4716154 511.396287332,2011.32584025 499.030171415,2030.355781 " moovel_rot="-86.7" moovel_centroid="494.611307616,2015.03642272" moovel_centroidlatlon="-73.89310972847086,40.74768507282283"/>
  <polygon id="185149998" class="tile" points="512.396287332,2067.94083099 529.04523022,1999.05479966 549.505034221,2003.11273451 548.493425522,2007.27351089 564.382277855,2008.9433725 575.889005103,2014.26532526 578.18795919,2016.32364082 579.276003596,2019.52487634 579.222311041,2022.36717812 575.310401916,2045.34948834 578.691426271,2045.70894583 574.768906062,2065.72793177 571.326782051,2065.01861421 570.867226852,2067.25231504 577.06102322,2071.20748162 579.34428397,2075.20278946 578.844130223,2088.05711436 577.989840464,2096.38584022 575.725072927,2099.1738126 572.445422096,2100.60523604 569.061720563,2101.10244785 568.551149584,2105.32178087 542.640286201,2100.02786903 547.637217626,2074.80395561 512.396287332,2067.94083099 " moovel_rot="-54.0" moovel_centroid="550.446033455,2049.8416473" moovel_centroidlatlon="-73.82155662532917,40.84863407576118"/>
  <polygon id="235746844" class="tile" points="580.349819518,2009.91369677 588.962047066,2009.92068919 588.963162268,1999.06240758 580.34428397,1999.05479966 580.349819518,2009.91369677 " moovel_rot="5.3" moovel_centroid="584.654787739,2004.48719976" moovel_centroidlatlon="-73.90810542657074,40.59204700789565"/>
  <polygon id="275609291" class="tile" points="16.3208799072,2198.35247532 16.3140592396,2217.66164018 6.69716515839,2220.97914252 0.0,2204.44742127 0.873373444006,2204.12735788 16.3208799072,2198.35247532 " moovel_rot="77.3" moovel_centroid="9.70789360456977,2209.57565759" moovel_centroidlatlon="-73.88143404516563,40.76378537374757"/>
  <polygon id="330741667" class="tile" points="18.3208799072,2198.35247532 18.3216094926,2202.16121868 18.3234800361,2224.08520728 28.5249679055,2224.1449639 28.5838583827,2217.74445303 23.4177084699,2217.72009203 23.3729891513,2198.55873773 18.3208799072,2198.35247532 " moovel_rot="-28.5" moovel_centroid="21.8919681344,2213.2379041" moovel_centroidlatlon="-73.98617785439389,40.776332917951756"/>
  <polygon id="438314978" class="tile" points="77.4076279918,2198.51546593 29.5982471338,2198.35247532 29.5838583827,2232.26360068 46.9875406405,2232.32203144 46.983519247,2250.25084777 50.8876390412,2250.26206969 50.8765630251,2267.2196876 62.8424765987,2267.2626982 62.8372225894,2296.04491704 77.3804634634,2296.09123326 77.4076279918,2198.51546593 " moovel_rot="62.1" moovel_centroid="58.9268085686,2235.62385268" moovel_centroidlatlon="-73.9464592669936,40.793703980139114"/>
  <polygon id="229748765" class="tile" points="78.4076279918,2329.12198786 87.7986278435,2340.74440568 95.9962125229,2344.55098187 146.476962433,2361.03131597 160.473676031,2359.63273519 186.736149395,2369.02972111 192.319291475,2358.13120945 158.335515639,2346.73277488 186.056046334,2264.61332526 184.363901163,2248.25604276 192.250677338,2225.20929496 184.927022267,2215.71688738 133.379796179,2198.35247532 119.735834453,2207.34892358 78.4076279918,2329.12198786 " moovel_rot="13.4" moovel_centroid="138.469530804,2283.07857151" moovel_centroidlatlon="-74.2293312960429,40.528699401317894"/>
  <polygon id="201109395" class="tile" points="194.348453415,2198.35247532 193.319291475,2217.90266879 211.98755467,2218.34662516 211.983686525,2198.76865967 194.348453415,2198.35247532 " moovel_rot="12.3" moovel_centroid="202.907569767,2208.43540494" moovel_centroidlatlon="-73.8398446358784,40.655921660890385"/>
  <polygon id="276142255" class="tile" points="281.278378366,2282.46457371 281.348377933,2198.35247532 213.304368114,2198.71246554 212.98755467,2231.40638814 219.716370694,2231.39134675 218.710475134,2254.36599602 223.434148195,2254.41335267 223.51727709,2260.59546468 218.70238608,2260.58082379 218.618550136,2262.15969701 216.864231396,2262.40718093 216.537729432,2286.03779417 245.318105219,2285.62877821 245.24397713,2282.59503524 281.278378366,2282.46457371 " moovel_rot="26.7" moovel_centroid="248.560219135,2240.57847652" moovel_centroidlatlon="-73.79361099605566,40.70708054648414"/>
  <polygon id="180522737" class="tile" points="282.351324393,2199.03061801 314.22527722,2198.35247532 322.203039693,2231.67956726 318.30571681,2232.60697236 318.158802592,2238.6843914 295.836244021,2237.92041276 294.845614047,2253.35178643 297.588477336,2253.739951 297.466174013,2264.4050564 282.390287717,2263.94558834 282.373990549,2230.2636637 282.348377933,2202.75402566 282.351324393,2199.03061801 " moovel_rot="-60" moovel_centroid="298.227802756,2225.58080144" moovel_centroidlatlon="-73.86983630080806,40.65123253701117"/>
  <polygon id="220792593" class="tile" points="333.536198219,2248.35533348 326.735067009,2243.77149342 324.360819029,2235.80420526 323.203039693,2221.8154982 325.828408183,2207.98412688 329.285072675,2198.35247532 333.515150266,2208.14748936 330.771815174,2215.91550167 330.573921993,2228.3650463 332.233819261,2239.61641372 333.536198219,2248.35533348 " moovel_rot="40.5" moovel_centroid="328.28203471,2224.04951577" moovel_centroidlatlon="-73.92856455435269,40.781352806318615"/>
  <polygon id="257713568" class="tile" points="334.539967286,2198.47042006 365.283461975,2198.35247532 365.27994245,2241.15721506 356.674506688,2241.18680693 356.678930935,2237.3520053 351.84740172,2237.37342607 351.84808826,2214.84141052 334.536198219,2214.90148169 334.539967286,2198.47042006 " moovel_rot="-38.0" moovel_centroid="353.459902394,2214.90993192" moovel_centroidlatlon="-73.91706931537814,40.70446067767074"/>
  <polygon id="108324468" class="tile" points="366.283461975,2236.2188575 394.582209095,2235.76830073 394.53063383,2219.5428724 385.609841708,2198.35247532 366.326853352,2199.19164721 366.283461975,2236.2188575 " moovel_rot="-36.8" moovel_centroid="379.36137531,2218.49815572" moovel_centroidlatlon="-73.9150828869004,40.78667202412892"/>
  <polygon id="393391809" class="tile" points="396.354307821,2204.81354852 402.890554135,2198.35247532 409.717043455,2205.07031193 409.760769469,2241.16568742 395.582209095,2240.4940444 396.354307821,2204.81354852 " moovel_rot="0.8" moovel_centroid="402.87422438,2221.40344234" moovel_centroidlatlon="-73.80198232587306,40.659624804018115"/>
  <polygon id="375468791" class="tile" points="423.253930019,2198.35247532 423.244852729,2213.40089789 411.082657101,2213.25084323 410.760769469,2198.76521153 423.253930019,2198.35247532 " moovel_rot="-90.3" moovel_centroid="417.124098456,2205.90831338" moovel_centroidlatlon="-73.83079244333075,40.7827777093065"/>
  <polygon id="376406583" class="tile" points="440.123740654,2215.79789441 424.253930019,2215.42018145 424.971491606,2198.35247532 440.114750503,2198.58758045 440.123740654,2215.79789441 " moovel_rot="82.7" moovel_centroid="432.374255491,2207.10688804" moovel_centroidlatlon="-73.92589760898257,40.74400534603255"/>
  <polygon id="374110192" class="tile" points="452.935349464,2198.37870135 441.123740654,2198.35247532 441.133317577,2222.09933013 457.527309925,2222.13666384 457.524283898,2213.54094452 452.943981978,2213.53618338 452.935349464,2198.37870135 " moovel_rot="71.7" moovel_centroid="448.044166011,2211.17410177" moovel_centroidlatlon="-73.90389131069668,40.74604557393805"/>
  <polygon id="306425803" class="tile" points="485.355951791,2242.92343705 483.99177171,2198.63867802 458.591459542,2198.35247532 458.56646757,2217.90882534 458.553672244,2223.71992401 458.541639801,2237.83289914 458.531053965,2241.46396204 458.527309925,2243.78489743 485.355951791,2242.92343705 " moovel_rot="42.2" moovel_centroid="471.565466498,2221.13198061" moovel_centroidlatlon="-73.86673460939976,40.768417212336"/>
  <polygon id="446153561" class="tile" points="68.1600155655,2570.06637255 80.1957337305,2562.34987538 133.293567413,2468.3480476 59.8276651192,2398.94707017 22.7999675989,2369.02972111 0.0261869542301,2401.06852384 71.3889642924,2449.49128885 37.6730271589,2501.0278246 21.3266502053,2491.4164383 0.0,2527.42937433 68.1600155655,2570.06637255 " moovel_rot="60.2" moovel_centroid="64.52557975660453,2479.29418318" moovel_centroidlatlon="-73.79389426436525,40.70273887230259"/>
  <polygon id="229891249" class="tile" points="156.994058167,2369.6057544 138.576408573,2369.02972111 135.293567413,2384.1559898 135.392804946,2387.33526202 136.790447652,2389.01434789 140.01737605,2390.73845712 145.284558792,2391.11437846 157.01738454,2391.04701477 156.994058167,2369.6057544 " moovel_rot="56.7" moovel_centroid="146.829583346,2380.31679995" moovel_centroidlatlon="-73.90948751703874,40.8542982711615"/>
  <polygon id="376403764" class="tile" points="173.030336876,2369.04850261 158.029224194,2369.02972111 158.01738454,2413.54008451 173.018480912,2413.55886839 173.030336876,2369.04850261 " moovel_rot="81.7" moovel_centroid="165.523856699,2391.29429012" moovel_centroidlatlon="-73.92287485,40.74366075"/>
  <polygon id="259672582" class="tile" points="194.534224677,2369.09271808 194.54352012,2394.10848635 187.06432519,2394.08255982 187.061777919,2392.16930052 181.780948931,2392.15943168 181.78133913,2388.58804004 174.041525238,2388.56614978 174.030336876,2369.02972111 194.534224677,2369.09271808 " moovel_rot="53.0" moovel_centroid="184.872441073,2380.41667781" moovel_centroidlatlon="-73.91342855401918,40.68489288395237"/>
  <polygon id="448157968" class="tile" points="228.71785714,2459.33570905 195.54352012,2446.60043244 210.106859106,2400.73850931 200.474689913,2377.94426852 202.499771351,2372.50671107 212.268453217,2369.02972111 223.490512126,2397.47405232 228.706473829,2428.08006269 228.71785714,2459.33570905 " moovel_rot="79.6" moovel_centroid="214.382928539,2419.68240512" moovel_centroidlatlon="-73.78656417581709,40.662851962006044"/>
  <polygon id="446906426" class="tile" points="230.101853291,2433.02200827 253.778930998,2433.19664956 253.735824913,2421.15154173 253.72602822,2417.63914579 253.621524895,2391.62272353 253.762813723,2388.75532209 244.956774075,2388.65736045 244.955276449,2386.82204638 274.668663769,2387.17139555 274.546545286,2369.02972111 229.729968594,2369.31049059 229.941114603,2400.4968202 229.71785714,2406.02274559 230.101853291,2433.02200827 " moovel_rot="30.1" moovel_centroid="246.197247706,2396.65162486" moovel_centroidlatlon="-74.07788700645277,40.6422084164037"/>
  <polygon id="415563735" class="tile" points="277.786519974,2491.03356578 280.613239225,2489.6188321 282.942287626,2486.50552884 283.566239384,2480.94383545 283.754821653,2458.00131098 283.538361372,2426.52404153 282.065489321,2408.36695052 279.427742823,2393.33914258 275.767554443,2369.02972111 293.504841253,2370.97616682 292.40954455,2392.91185278 296.858741876,2416.85789005 298.607120855,2439.43009368 299.318190724,2454.79217453 299.069112102,2467.15607625 296.382856397,2474.66055137 294.191009733,2483.46655283 291.86505092,2487.6015348 286.023225711,2496.60352379 275.668663769,2492.68265263 277.786519974,2491.03356578 " moovel_rot="36.8" moovel_centroid="288.796350027,2430.46619198" moovel_centroidlatlon="-73.85525650779165,40.705689118567314"/>
  <polygon id="285497439" class="tile" points="306.920341509,2369.02972111 324.196725933,2379.33723769 325.457135827,2377.21999299 327.95423346,2378.875308 330.304496688,2380.43535487 328.564196043,2384.90449048 331.875578205,2386.96023343 331.199743099,2391.08731244 331.032459925,2395.20863866 331.872341349,2399.37915479 300.455909468,2401.1074922 300.318190724,2395.12895517 301.538849622,2386.43492007 301.920669069,2384.80590647 303.208815462,2379.33683526 305.045287934,2372.46187057 306.920341509,2369.02972111 " moovel_rot="9.3" moovel_centroid="315.171099405,2387.87341837" moovel_centroidlatlon="-73.93681310130145,40.773696316853"/>
  <polygon id="282431894" class="tile" points="332.875578205,2369.05884393 339.967252162,2369.04473549 347.1151587,2369.02972111 347.114146303,2414.05565393 339.940999443,2414.07942658 332.877447446,2414.09309842 332.875578205,2369.05884393 " moovel_rot="-19.1" moovel_centroid="339.995362278,2391.5598958" moovel_centroidlatlon="-73.83358150589437,40.673939369688064"/>
  <polygon id="326251666" class="tile" points="348.1151587,2370.06877272 348.12046508,2391.82764519 356.075668944,2391.66269366 361.564074577,2391.60907088 362.345074439,2391.70321 362.177347901,2386.98279832 362.122393205,2381.86813315 373.818850342,2381.73506613 373.867269923,2386.3754963 374.000963453,2396.68579059 374.0766666,2400.37425543 374.267651331,2409.59016911 374.337232908,2411.28674093 384.333406546,2411.02833409 384.486953947,2376.67197924 384.492833835,2376.26220834 384.47315405,2369.02972111 380.387086183,2369.1951368 348.1151587,2370.06877272 " moovel_rot="55.4" moovel_centroid="369.092307468,2384.49743737" moovel_centroidlatlon="-73.88413934048504,40.85913924399528"/>
  <polygon id="299854211" class="tile" points="390.141851063,2369.02972111 385.494869788,2374.82767114 387.401861394,2383.55336577 387.619159258,2392.55598211 386.73772016,2400.92817356 385.492833835,2404.98212655 392.45538509,2403.17240773 393.664176666,2398.39968776 394.057400998,2393.01979583 393.960072275,2386.85335347 393.267289304,2380.20207486 391.86372615,2374.01711947 390.997317389,2370.82820546 390.141851063,2369.02972111 " moovel_rot="-15.2" moovel_centroid="390.082806874,2387.86340975" moovel_centroidlatlon="-73.91530898431768,40.794499376007124"/>
  <polygon id="412450794" class="tile" points="395.057400998,2427.76393242 408.055296098,2427.88216542 408.064982808,2369.02972111 395.075579979,2369.15717024 395.057400998,2427.76393242 " moovel_rot="29.1" moovel_centroid="401.56784393,2398.46146631" moovel_centroidlatlon="-73.86428059225038,40.65599114293663"/>
  <polygon id="233333777" class="tile" points="440.722191914,2378.02936119 409.064982808,2464.8891091 411.29156915,2473.47405785 411.234164046,2474.87130787 411.623943544,2475.77340175 415.049323022,2485.01554383 413.669082151,2490.13610294 412.706747353,2494.05338165 482.292592701,2518.97882137 487.605100079,2503.66016199 489.178302182,2491.53498179 489.064246644,2489.75293471 481.277986278,2489.74699145 479.775118598,2434.65901139 479.117805947,2419.57828488 479.664655658,2411.83221528 489.134094732,2384.86845659 486.110808937,2383.89462391 485.28289571,2383.47451022 485.27652341,2382.41594022 486.24783797,2379.40452605 459.362205213,2369.02972111 457.377827788,2375.00327999 453.644216651,2374.09192321 451.456456206,2380.30954985 455.756365727,2382.32574317 454.235798604,2386.92567123 453.789903217,2387.21186001 453.258028024,2387.16362127 452.971488187,2386.79734375 454.18561791,2382.96675348 440.722191914,2378.02936119 " moovel_rot="-22.2" moovel_centroid="452.597327007,2447.18012788" moovel_centroidlatlon="-74.01290637326066,40.672080802450225"/>
  <polygon id="255477271" class="tile" points="531.178152095,2432.8252985 531.544440441,2402.35788144 531.568600769,2400.85361703 499.705093489,2400.81649342 500.268910283,2369.02972111 494.737079851,2370.69609281 490.178302182,2371.31944188 490.194071292,2432.68282331 531.178152095,2432.8252985 " moovel_rot="-86.4" moovel_centroid="507.899773796,2410.97908796" moovel_centroidlatlon="-73.9321887497673,40.824895026885905"/>
  <polygon id="450419565" class="tile" points="532.568600769,2414.18497421 540.87056166,2414.15301797 563.228821483,2414.0793889 563.234308183,2373.22338683 559.002879001,2373.24150897 559.004189035,2369.02972111 537.159260397,2369.10266142 537.159259799,2374.30510086 532.575344979,2374.31953697 532.568600769,2414.18497421 " moovel_rot="-30.9" moovel_centroid="547.958283187,2392.22482328" moovel_centroidlatlon="-73.77158794559699,40.655885040766435"/>
</svg>