<svg xmlns="http://www.w3.org/2000/svg" version="1.1" width="592.5px" height="1200px">
  <polygon id="3" class="bin" points="-1.875,0.0 0.77665042945,1.09834957055 1.875,3.75 1.875,1203.749999 0.77665042945,1206.40164943 -1.875,1207.499999 -248.570438941,1207.499999 -251.221871451,1206.40186733 -252.320438891,1203.75061534 -252.321651781,1196.37107222 -252.32692263,1196.10304461 -257.74250023,1057.88441978 -257.750281604,1057.73014524 -262.019703054,988.543203112 -262.027581653,988.430579419 -267.066113031,924.00841673 -269.832780245,919.584157629 -275.044257451,919.321438373 -279.170103602,921.215749139 -279.526585684,921.357816049 -285.418566816,923.363105527 -286.576471961,923.562740464 -294.367650612,923.667294615 -294.625767688,923.661870452 -298.332797275,923.456137187 -300.849126707,922.289034628 -301.874999,919.711898963 -301.874999,915.058509874 -300.406357917,912.082287185 -212.104617593,844.396504323 -211.560809433,843.932853187 -208.388988116,840.930193069 -208.357069696,840.899782293 -205.53772197,838.1963061 -205.079084982,837.711648586 -202.578985414,834.798634998 -202.227708382,834.353423546 -199.598960857,830.723258276 -196.905801957,826.994838647 -196.667776892,826.642891739 -194.229597526,822.786073364 -193.964611425,822.328899348 -192.333594086,819.247750644 -191.830473504,818.025594477 -191.04232821,815.424316646 -190.778598869,814.088704609 -190.253073478,808.614739301 -190.242421194,807.423855429 -190.486805132,804.28990175 -190.665529107,803.18025526 -191.507333167,799.76347965 -191.786034349,798.888638624 -192.684845417,796.606928546 -192.974784957,795.968475798 -194.23361122,793.534531967 -194.89008153,792.502285604 -218.341988644,762.007390919 -218.403965226,761.928011728 -243.454209017,730.323789411 -243.603703329,730.121611194 -247.589466769,724.334987545 -247.743438773,724.091996348 -253.232800122,714.646056118 -253.366104174,714.395264088 -259.446626799,701.829315728 -259.631192545,701.374008597 -265.465058886,683.744385657 -265.580500945,683.30966246 -267.73344322,672.664503725 -267.77060611,672.44841766 -270.146640072,655.718208376 -270.171253278,655.498590505 -271.574301424,638.45525485 -271.586892262,638.318925073 -272.589110565,628.532360964 -272.593118685,628.490957421 -273.485609824,618.706038525 -273.472618902,617.904014851 -273.161276986,615.392811885 -273.109054906,614.542286674 -273.111616087,610.91501336 -272.990157481,609.965690218 -265.630414264,581.756307485 -265.57037633,581.55046827 -255.913589074,551.650394063 -255.873878099,551.52323869 -253.445702701,543.474960222 -253.221781727,542.46134027 -252.778826663,539.359026372 -252.735854181,537.791141066 -252.951964535,535.313997804 -253.053249916,534.594673681 -253.597716888,531.805039535 -254.121030545,530.20312426 -255.453021836,527.364592465 -258.24982278,524.575986244 -261.485357968,524.291503098 -261.605302593,524.375072987 -263.953597361,525.042661303 -266.215195382,524.123239271 -266.241503549,524.100272883 -266.41885804,523.935047785 -283.430408682,507.02751699 -284.467631026,505.085199417 -284.235822526,502.895520774 -284.171808178,502.745557183 -285.944401533,498.60217393 -300.715770288,484.486740873 -301.874999,481.775577998 -301.874999,430.469415341 -300.807454836,427.848932429 -287.460532896,414.186363405 -287.381130564,414.103716189 -256.595773967,381.520966855 -256.202439005,381.066396683 -230.392396027,348.459375324 -229.222999839,344.032604973 -231.671904985,340.163929907 -251.077797989,327.025152589 -252.666608259,324.581360065 -252.025223723,321.737935044 -250.177750569,319.155677165 -249.163778817,314.973099413 -251.333965249,311.256597534 -256.74901761,307.061798253 -258.155641318,304.688292953 -257.557738507,301.994850938 -257.36284124,301.706988877 -257.076152812,301.24522585 -244.411484536,278.922963614 -241.506570118,277.040465823 -239.773361431,276.874850205 -235.932408268,274.868081167 -234.581756309,270.750341197 -236.957713084,236.492127345 -238.949159526,232.529711939 -243.169564427,231.167809868 -282.636018119,234.503680679 -285.696119323,233.322690403 -286.656636944,230.186392695 -284.782696801,227.494310647 -256.209305962,211.509535834 -254.858042105,210.519521732 -227.073305992,184.397399399 -226.059994925,183.198534086 -212.168236307,162.324624429 -211.779358409,161.662953851 -198.558099732,135.984841324 -198.311401038,135.45070426 -186.946927115,107.793243677 -186.660224828,106.940620695 -176.915325874,70.1449852848 -176.784813419,69.5451044297 -171.584392192,39.1688292105 -170.674817428,37.29222358 -166.19242991,32.3146018033 -164.452541471,28.1607098669 -162.967214786,3.52432245252 -161.794635047,1.01972613067 -159.22401166,0.0 -1.875,0.0 " moovel_rot="0" moovel_centroid="-124.1916813629439,623.8908887593616" moovel_centroidlatlon="0,0"/>
  <polygon id="25165529" class="tile" points="4.74101705849,1536.27686754 8.20449785665,1466.61428191 6.10894373879,1397.26579516 5.51544397846,1385.79256503 1.0,1353.78323669 1.83834136352,1322.59878954 5.5499483522,1292.74597226 14.8198423609,1236.24328009 14.486995038,1231.79317866 12.1538957894,1229.14114112 16.7166145053,1215.30584134 20.3444770791,1204.2642758 21.6332996041,1201.98037876 24.5165711462,1201.0 30.6718048625,1202.73088517 34.38902376,1205.67240063 32.0187332381,1216.06698647 23.4882814009,1245.59028289 20.0293401923,1261.43992277 18.2692130074,1276.6961591 17.6903731924,1289.08645883 18.3973786637,1301.32931803 23.0950019777,1326.71648135 30.2112528823,1349.09086655 52.8059131391,1413.47164572 62.8815262102,1497.53769215 57.9697420269,1612.84900651 1.14642539546,1613.34625404 4.74101705849,1536.27686754 " moovel_rot="-47.2" moovel_centroid="28.605837074139217,1462.6475609892068" moovel_centroidlatlon="-73.84596090366011,40.7613095561856"/>
  <polygon id="201148565" class="tile" points="83.8923803443,1222.39018107 83.9097739322,1201.0 78.2676051911,1201.08724743 78.3019541414,1203.43147895 63.8815262102,1203.65023117 64.1857856799,1214.61998018 64.3251521908,1222.69014933 83.8923803443,1222.39018107 " moovel_rot="9.5" moovel_centroid="74.2529459241,1212.617229316452" moovel_centroidlatlon="-73.83763109134034,40.65173937089594"/>
  <polygon id="241844808" class="tile" points="110.526229851,1201.03411548 84.9097739322,1201.0 84.9356402032,1227.35274097 110.545740394,1227.38480287 110.526229851,1201.03411548 " moovel_rot="18.2" moovel_centroid="97.729179955,1214.1923698501614" moovel_centroidlatlon="-74.21275847994468,40.55308950530032"/>
  <polygon id="375388301" class="tile" points="111.545740394,1202.95185437 115.386668346,1201.0 133.373948618,1201.01701641 133.452579852,1213.21906418 120.710809922,1225.78080169 111.554965699,1222.22073445 111.545740394,1202.95185437 " moovel_rot="-82.8" moovel_centroid="121.647477516,1211.6037928964656" moovel_centroidlatlon="-73.89817585900063,40.75450534971811"/>
  <polygon id="392695049" class="tile" points="134.545628622,1201.0 134.452579852,1207.85984889 135.742700437,1207.87775365 135.524260236,1225.1052899 135.493998662,1227.53729484 142.843932662,1227.63339765 142.874194312,1225.20139226 150.16997941,1225.29742432 150.388376576,1216.41267083 150.493450616,1209.64376206 150.488635677,1201.16674504 143.320044283,1201.24297666 134.545628622,1201.0 " moovel_rot="9.4" moovel_centroid="142.676377414,1213.6000202721382" moovel_centroidlatlon="-73.95335739079678,40.69090096875065"/>
  <polygon id="223868481" class="tile" points="161.974951153,1201.54738784 151.620283597,1201.0 151.493450616,1227.94062664 162.001461702,1227.97700689 161.974951153,1201.54738784 " moovel_rot="-81.8" moovel_centroid="156.755690544,1214.6482690663167" moovel_centroidlatlon="-73.96613808540151,40.627814513113925"/>
  <polygon id="376403758" class="tile" points="176.22092723,1243.68763821 163.023391768,1243.68301538 163.001461702,1201.0 176.190346081,1201.0060395 176.22092723,1243.68763821 " moovel_rot="80.7" moovel_centroid="169.608996549,1222.3465058048992" moovel_centroidlatlon="-73.91818501556106,40.7431103703044"/>
  <polygon id="201028490" class="tile" points="198.348688894,1204.73268845 186.94680021,1248.81162462 177.278875246,1241.01245565 177.22092723,1201.71984446 182.321183305,1201.0 198.348688894,1204.73268845 " moovel_rot="-65.3" moovel_centroid="185.534062336,1221.4026959983366" moovel_centroidlatlon="-73.85053291922175,40.661304916609936"/>
  <polygon id="259448704" class="tile" points="199.348688894,1201.0 249.618570624,1213.6279824 236.125054165,1264.16387078 199.408180923,1254.45414411 201.944171548,1225.00689363 199.348688894,1201.0 " moovel_rot="-26.5" moovel_centroid="221.975435868,1232.134199640805" moovel_centroidlatlon="-74.017578216932,40.67576340994672"/>
  <polygon id="185148198" class="tile" points="265.84484781,1229.34190787 265.844179388,1201.27365329 250.618570624,1201.0 250.651434618,1229.42784752 257.443241641,1229.3888221 265.84484781,1229.34190787 " moovel_rot="8.8" moovel_centroid="258.223632107,1215.2556506939754" moovel_centroidlatlon="-73.93910702551561,40.58758618050868"/>
  <polygon id="253908681" class="tile" points="287.990963932,1238.3507673 291.129573874,1238.34487936 291.116135447,1201.0 266.84484781,1201.03390718 266.849649252,1238.37738765 287.990963932,1238.3507673 " moovel_rot="-80.8" moovel_centroid="278.985196115,1219.690571995557" moovel_centroidlatlon="-73.94576277228592,40.68653172058169"/>
  <polygon id="231847175" class="tile" points="304.805541223,1201.48453527 314.56606112,1201.0 315.075180122,1260.62090054 292.129573874,1261.74028499 292.130778538,1256.47694696 304.805541223,1201.48453527 " moovel_rot="-22.6" moovel_centroid="305.909153447,1235.3930289158016" moovel_centroidlatlon="-73.92831994294006,40.775904175882246"/>
  <polygon id="446153561" class="tile" points="384.235195688,1402.03665144 396.270913853,1394.32015427 449.368747535,1300.31832649 375.902845241,1230.91734905 338.875147721,1201.0 316.101367076,1233.03880272 387.464144414,1281.46156774 353.748207281,1332.99810348 337.401830327,1323.38671719 316.075180122,1359.39965322 384.235195688,1402.03665144 " moovel_rot="60.2" moovel_centroid="380.600759879,1311.2644620702156" moovel_centroidlatlon="-73.79389426436525,40.70273887230259"/>
  <polygon id="275609108" class="tile" points="450.409172984,1325.83019847 452.85574117,1326.7467541 458.112689402,1328.72361792 458.207584583,1326.27028784 459.347442804,1241.22245325 456.020250311,1240.83465706 456.046078142,1201.0 450.368747535,1201.57977005 451.465055409,1239.50182473 451.835789002,1281.1256552 450.409172984,1325.83019847 " moovel_rot="-59.6" moovel_centroid="454.697425079,1268.8287772171125" moovel_centroidlatlon="-73.88291302547734,40.76792083541977"/>
  <polygon id="285497491" class="tile" points="460.49643368,1244.53935672 474.577539323,1244.58631039 474.583280362,1226.97552823 471.428512581,1226.9654029 471.432619545,1221.06475436 475.333181613,1221.07868633 475.337065404,1207.1784406 479.393252852,1207.19458083 479.390433144,1204.19139334 479.396266277,1201.05936374 460.352313291,1201.0 460.347442804,1213.67392999 465.26195761,1213.68643067 465.25683496,1219.69038701 460.505930082,1219.67643898 460.49643368,1244.53935672 " moovel_rot="65.4" moovel_centroid="468.157071098,1221.9376767950637" moovel_centroidlatlon="-73.93368533163714,40.774547065971575"/>
  <polygon id="185605917" class="tile" points="500.807344812,1219.94352976 504.507864776,1219.92844622 504.512818221,1201.0 480.418603497,1201.08494441 480.396266277,1249.31814432 503.79123118,1249.23964072 503.795885714,1233.17418995 500.634127889,1233.19456163 492.623978434,1233.22060232 492.62783872,1219.96486088 500.807344812,1219.94352976 " moovel_rot="-49.3" moovel_centroid="491.355465919,1224.7540920042284" moovel_centroidlatlon="-73.92498638383937,40.6079343708154"/>
  <polygon id="288437716" class="tile" points="505.512818221,1221.18906706 518.107181126,1221.20000968 518.109162215,1216.35262814 522.623626897,1216.34887335 522.569651517,1215.32512843 522.566508139,1210.21969623 522.727608656,1208.64577151 522.729350874,1203.39716484 522.144857318,1203.38870913 522.146085549,1201.0 509.67018301,1201.0239824 505.523774383,1201.26603631 505.512818221,1221.18906706 " moovel_rot="-28.9" moovel_centroid="513.634966585,1210.6211558137895" moovel_centroidlatlon="-73.98741597399366,40.761438837802004"/>
  <polygon id="306425802" class="tile" points="546.926092566,1281.23199907 523.84286472,1280.85447385 523.766752177,1225.34626989 523.754449155,1215.16913174 523.729350874,1201.0 550.54066262,1202.29294271 546.926092566,1281.23199907 " moovel_rot="46.8" moovel_centroid="536.261916448,1240.3515991713705" moovel_centroidlatlon="-73.86609346770285,40.76792385743593"/>
  <polygon id="220738611" class="tile" points="551.941325569,1234.01499914 555.402554864,1234.51608067 559.146324261,1233.79757818 561.238389183,1231.106538 561.744401746,1227.47274616 560.510393963,1225.04943505 557.316347694,1222.99138439 558.570160773,1217.25371307 561.918604915,1210.46307518 568.506714056,1204.94469401 573.056905866,1201.51899267 574.836225568,1201.0 579.411774825,1203.15153478 581.684729885,1210.76150459 582.310446388,1216.39397015 582.928233468,1225.2908221 583.230702721,1234.72164212 583.0609268,1243.23292669 583.209468508,1254.64624906 581.646340395,1267.78990308 580.085075486,1270.96786544 574.213922721,1272.05374143 570.415065116,1269.9454402 564.983886349,1264.39908211 561.621985029,1260.71590981 559.303878627,1255.68969658 558.110574056,1250.68761148 560.374979351,1249.61674385 562.393126095,1247.02092621 562.422881673,1244.27051617 560.455922894,1242.66123729 557.968990632,1241.07809618 554.2554829,1240.67341965 551.54066262,1241.33873181 551.941325569,1234.01499914 " moovel_rot="-48.0" moovel_centroid="571.246547344,1236.7029591761982" moovel_centroidlatlon="-73.84920980440731,40.75944169592925"/>
  <polygon id="442637497" class="tile" points="16.3913410395,1613.34625404 16.406012301,1634.9312867 0.00753356963396,1634.92766203 0.0,1627.24948229 10.7223333729,1627.25530616 10.7085925626,1613.34744816 16.3913410395,1613.34625404 " moovel_rot="8.7" moovel_centroid="10.267135661859035,1626.93019712" moovel_centroidlatlon="-73.90055387306867,40.75420877484485"/>
  <polygon id="343290227" class="tile" points="44.2105854623,1618.16223715 44.2155771354,1656.42761532 28.7946059991,1655.13379206 18.406012301,1652.32836733 29.0211068615,1613.34625404 44.2105854623,1618.16223715 " moovel_rot="63.4" moovel_centroid="33.5566307025,1636.96498069" moovel_centroidlatlon="-73.88376210584954,40.79534761316536"/>
  <polygon id="185515256" class="tile" points="77.6811330641,1665.76428094 77.6708959082,1613.34625404 45.2155771354,1613.48182044 45.2301821513,1665.89479228 77.6811330641,1665.76428094 " moovel_rot="-50.4" moovel_centroid="61.4497068219,1639.62119782" moovel_centroidlatlon="-73.93076301585096,40.598539701851706"/>
  <polygon id="264529120" class="tile" points="103.134401233,1656.70825901 103.160412481,1613.34625404 78.6811330641,1623.38068186 79.2511848878,1657.21757003 103.134401233,1656.70825901 " moovel_rot="74.7" moovel_centroid="91.5458892466,1637.46834057" moovel_centroidlatlon="-73.9611517315099,40.68202236316104"/>
  <polygon id="413791012" class="tile" points="136.995821482,1613.34625404 104.160412481,1626.36679051 120.011912181,1672.11946898 136.969621815,1665.12904309 136.995821482,1613.34625404 " moovel_rot="78.3" moovel_centroid="124.101322652,1641.66295549" moovel_centroidlatlon="-74.16636720234015,40.56012185031423"/>
  <polygon id="443136830" class="tile" points="138.067910485,1752.31917981 206.025625695,1752.14335446 205.96006897,1613.34625404 137.995821482,1613.52353825 138.067910485,1752.31917981 " moovel_rot="-16.3" moovel_centroid="172.012414941,1682.83196963" moovel_centroidlatlon="-74.16730651933217,40.58199656171642"/>
  <polygon id="219541902" class="tile" points="211.282039634,1613.34625404 207.025625695,1697.22336043 219.990354965,1697.7238121 219.964785151,1698.09014814 220.85990904,1698.16849152 225.759951608,1698.53627478 226.364482861,1690.43042266 237.061866325,1691.22237335 236.469029672,1699.15603203 258.441479273,1700.78666373 258.408391971,1616.04281347 211.282039634,1613.34625404 " moovel_rot="-31.6" moovel_centroid="233.862627472,1656.63038457" moovel_centroidlatlon="-73.93375501985405,40.75244714027009"/>
  <polygon id="266149318" class="tile" points="259.462184987,1614.21094 266.264137095,1614.21865351 266.263191741,1613.34625404 267.126508541,1613.54192734 267.12874096,1614.11260891 268.780385875,1615.30790286 271.665676077,1615.3104752 271.648424511,1637.76506063 259.441479273,1637.75108206 259.446711362,1636.43379888 259.462184987,1614.21094 " moovel_rot="-28.9" moovel_centroid="265.49902675,1626.11544226" moovel_centroidlatlon="-73.98654740979016,40.760269039516466"/>
  <polygon id="222973562" class="tile" points="272.684011065,1613.89442492 272.665676077,1660.4029526 293.751928174,1659.19017458 289.953418317,1613.34625404 272.684011065,1613.89442492 " moovel_rot="-9.1" moovel_centroid="282.278364998,1637.4790867" moovel_centroidlatlon="-73.97412230886594,40.57949743720467"/>
  <polygon id="286996655" class="tile" points="310.057476413,1613.40178149 294.768416988,1613.34625404 294.751928174,1637.28173194 304.487870105,1637.31897697 310.044222591,1637.34310292 310.057476413,1613.40178149 " moovel_rot="60.8" moovel_centroid="302.405794873,1625.34318437" moovel_centroidlatlon="-73.91182152333215,40.85941235297882"/>
  <polygon id="251110317" class="tile" points="311.057476413,1634.73222447 319.391897964,1634.43164035 327.836199391,1634.13952168 327.836481091,1632.39719616 326.898420174,1632.39947557 326.880707185,1614.18604756 326.838506846,1613.34625404 319.405049638,1615.41070087 311.0834009,1617.69972492 311.057476413,1634.73222447 " moovel_rot="57.1" moovel_centroid="319.289653195,1624.99537157" moovel_centroidlatlon="-74.03035705219627,40.617073097692014"/>
  <polygon id="288431451" class="tile" points="328.836481091,1613.63138176 329.2301197,1642.86012814 341.673013087,1642.85881968 349.800346667,1642.64556554 349.809548716,1613.34625404 341.570196891,1613.62923756 328.836481091,1613.63138176 " moovel_rot="61.0" moovel_centroid="339.422549403,1628.14835962" moovel_centroidlatlon="-73.98916196464523,40.760544082149416"/>
  <polygon id="185647480" class="tile" points="351.234860348,1671.77066804 351.265804386,1691.19013665 352.632603351,1698.38351986 358.503359638,1704.88142279 366.637265889,1708.35158671 373.214414212,1708.09211971 376.202980031,1707.97171085 376.34989389,1613.34625404 350.809548716,1614.90006946 351.195066571,1665.91302289 351.234860348,1671.77066804 " moovel_rot="-49.9" moovel_centroid="363.981471803,1659.63635309" moovel_centroidlatlon="-73.93390640898411,40.607712828881425"/>
  <polygon id="236571037" class="tile" points="414.198946048,1614.60392413 417.7201321,1655.77109771 383.753428136,1676.13138593 377.34989389,1665.56540646 390.940002992,1657.33550485 385.418783525,1648.22375635 386.957119171,1642.95732443 390.664627676,1640.7149635 377.385858278,1618.25628194 386.438402549,1613.34625404 389.683286243,1618.04821454 393.422937954,1615.7143762 400.871527329,1628.88178229 398.584730086,1630.75726729 399.619235039,1632.77886723 401.74629763,1631.69039431 403.412239017,1629.99006237 401.795230445,1615.81924879 414.198946048,1614.60392413 " moovel_rot="62.9" moovel_centroid="398.843109979,1642.37601969" moovel_centroidlatlon="-73.89464118056216,40.76382736567617"/>
  <polygon id="271129839" class="tile" points="418.765787569,1741.20136377 432.028547645,1741.87914886 433.712040212,1639.73344882 431.957501062,1615.14024077 418.7201321,1613.34625404 418.940665838,1676.95841467 418.765787569,1741.20136377 " moovel_rot="-43.6" moovel_centroid="425.850323777,1677.15473546" moovel_centroidlatlon="-73.74954661255128,40.76773983860269"/>
  <polygon id="261303998" class="tile" points="436.96976762,1637.29411965 477.214392663,1613.34625404 482.878629743,1618.01259614 483.051156194,1734.77839478 434.712040212,1732.59949011 436.96976762,1637.29411965 " moovel_rot="-7.4" moovel_centroid="460.38258561,1679.19414202" moovel_centroidlatlon="-73.93888618131251,40.744181716684395"/>
  <polygon id="349882159" class="tile" points="497.323634361,1614.46698161 491.996056509,1616.97999493 487.5725534,1620.95378635 484.896601681,1625.97489583 484.051156194,1631.01563732 484.903107211,1636.36659445 486.641276034,1640.12753663 491.974217609,1645.47246556 496.501747753,1648.5621467 501.021287215,1649.69227555 501.677125247,1660.29088177 517.6855978,1662.33518479 518.466924002,1651.57791455 515.28711106,1650.67238538 512.979887288,1649.63623721 512.032000234,1647.12924015 516.874186398,1647.7952036 516.917167313,1641.85367618 512.932001836,1641.44584694 514.674109994,1622.61739623 518.434642108,1623.15202674 518.483186734,1615.92250565 504.740932657,1613.7866487 500.01405155,1613.34625404 497.323634361,1614.46698161 " moovel_rot="16.2" moovel_centroid="502.857087701,1635.38023798" moovel_centroidlatlon="-73.83496808762035,40.751113516122366"/>
  <polygon id="393413918" class="tile" points="14.9130966218,1752.31917981 14.5235914931,1778.17158497 11.2428572472,1785.51214648 0.0,1792.80508159 3.255707095,1814.25361163 11.1962439319,1804.2920277 11.2392697357,1812.83672726 19.6152567325,1812.90106312 18.5474369561,1825.37178573 18.2625802981,1828.72596014 27.755351311,1830.46963108 31.162498023,1833.24557162 33.1466215365,1838.80996769 32.6112813525,1861.12412849 62.6247409657,1862.94602108 64.1175062086,1834.60640836 97.6053476689,1835.35467064 97.6434338948,1756.82876838 14.9130966218,1752.31917981 " moovel_rot="1.1" moovel_centroid="53.74452948535694,1800.06760999" moovel_centroidlatlon="-73.8095589020169,40.657237669462404"/>
  <polygon id="239436987" class="tile" points="111.383727683,1752.3501875 99.6621953774,1752.31917981 99.6810866544,1757.76413745 99.6434338948,1774.01264377 116.787392168,1774.06328236 116.788333587,1771.77566997 114.095781486,1771.76802227 114.113859966,1759.98898246 111.375460014,1759.97915669 111.383727683,1752.3501875 " moovel_rot="75.8" moovel_centroid="106.653058501,1763.87790382" moovel_centroidlatlon="-73.94988685585051,40.748819182611456"/>
  <polygon id="365541715" class="tile" points="142.018211003,1780.38876434 118.244097283,1781.25976242 117.788333587,1752.7721438 142.053710734,1752.31917981 142.018211003,1780.38876434 " moovel_rot="7.4" moovel_centroid="129.995190532,1766.63792158" moovel_centroidlatlon="-73.8910884244721,40.748414735847405"/>
  <polygon id="371392416" class="tile" points="168.619056671,1754.07157675 175.746089359,1752.31917981 201.933453068,1778.93223069 201.971163301,1843.04381727 143.053710734,1820.05245615 168.619056671,1754.07157675 " moovel_rot="-60.7" moovel_centroid="177.709972403,1799.93573078" moovel_centroidlatlon="-73.90775031895556,40.75278548518224"/>
  <polygon id="389713125" class="tile" points="227.692476131,1752.31917981 203.672281198,1752.46442075 203.681666463,1756.92332946 202.999538095,1756.9437263 202.971163301,1767.34780039 205.993663708,1767.27075136 206.231146705,1834.49040434 203.713686095,1834.55389401 203.836783438,1845.04947323 205.26331357,1845.01223893 205.392483154,1852.68377933 227.859028753,1852.40191634 227.690107302,1836.89440533 226.369821852,1836.88779273 226.22521131,1766.56646668 227.86900847,1766.57647247 227.692476131,1752.31917981 " moovel_rot="60.9" moovel_centroid="216.032879157,1802.18695587" moovel_centroidlatlon="-73.97560842431348,40.74345452174278"/>
  <polygon id="323057184" class="tile" points="228.88378476,1778.26509789 228.86900847,1758.95716144 240.041332783,1758.96309091 240.028967335,1752.31917981 245.929813327,1752.32340725 245.940151622,1761.24569288 250.742484699,1761.25016636 250.743196402,1764.26956422 249.068424917,1764.26684418 249.08123982,1771.50380942 239.087508474,1771.50028653 239.089882296,1778.26686751 228.88378476,1778.26509789 " moovel_rot="82.3" moovel_centroid="238.435635815,1766.10788686" moovel_centroidlatlon="-74.0070811142578,40.72533957139298"/>
  <polygon id="376403773" class="tile" points="266.695529496,1797.26765857 251.747314328,1797.25484927 251.743196402,1752.31917981 266.691429242,1752.33198632 266.695529496,1797.26765857 " moovel_rot="81.0" moovel_centroid="259.219367445,1774.79341407" moovel_centroidlatlon="-73.92101715000001,40.743441250000004"/>
  <polygon id="300396686" class="tile" points="267.698873353,1764.7806732 276.405125668,1764.74009829 276.396895342,1752.31917981 272.198185941,1752.33393113 267.695529496,1752.35520129 267.698873353,1764.7806732 " moovel_rot="-42.9" moovel_centroid="272.048846725,1758.54871329" moovel_centroidlatlon="-73.9190004770821,40.790772552623885"/>
  <polygon id="181963432" class="tile" points="301.500803134,1777.07226095 277.405125668,1777.23844857 277.413442908,1752.31917981 301.405730357,1752.3909292 301.500803134,1777.07226095 " moovel_rot="-48.8" moovel_centroid="289.412084192,1764.76416495" moovel_centroidlatlon="-73.9146021652108,40.61564997236141"/>
  <polygon id="219917091" class="tile" points="321.570306409,1799.69818358 302.500803134,1799.88106337 302.511686277,1752.66239962 320.258676352,1752.31917981 321.007295371,1758.00152428 321.99899184,1794.69641542 321.570306409,1799.69818358 " moovel_rot="-82.8" moovel_centroid="311.977735833,1776.4114614" moovel_centroidlatlon="-73.95149440253552,40.612959685563695"/>
  <polygon id="383830159" class="tile" points="350.849195489,1752.88914234 330.241154541,1752.31917981 322.99899184,1762.1546906 323.724078439,1817.59600463 350.806984548,1817.77736872 350.849195489,1752.88914234 " moovel_rot="24.5" moovel_centroid="337.286285536,1785.53619555" moovel_centroidlatlon="-73.84885618170513,40.74981580636174"/>
  <polygon id="426140948" class="tile" points="363.363794794,1752.72904025 363.363794794,1752.72904025 365.671865741,1752.65104754 367.533443798,1752.31917981 367.533443798,1752.31917981 367.532820677,1754.08456817 367.532820677,1754.08456817 367.532116883,1755.79628369 367.526893233,1757.41079353 366.028938311,1757.42182215 366.028938311,1757.42182215 366.028938311,1757.42182215 366.040178817,1758.35169897 366.050673164,1759.51222 366.075697151,1761.60843102 366.09743231,1763.69882869 366.122456604,1765.79503953 366.147481052,1767.89125029 366.159511373,1770.07155345 366.174830845,1772.25766978 366.223463039,1774.05658337 366.223463039,1774.05658337 366.223463039,1774.05658337 366.223463039,1774.05658337 364.172196677,1774.03532745 362.15424323,1773.62686869 360.136290147,1773.21840972 358.113979071,1772.82009046 356.096026716,1772.41163108 354.549648138,1772.21216036 352.999980814,1772.00687626 352.999980814,1772.00687626 352.892226507,1770.15699759 352.818916664,1768.67133462 352.818916664,1768.67133462 352.676718198,1766.45724009 352.568964193,1764.60736125 352.422326776,1762.34973374 352.275689504,1760.09210615 352.167109002,1758.4191985 352.167109002,1758.4191985 352.167109002,1758.4191985 352.035766664,1756.15291746 351.942481034,1754.47135639 351.849195489,1752.78979527 353.680665908,1752.79727252 355.519784052,1752.80042288 357.354544213,1752.81371295 359.186015773,1752.82118955 361.547697863,1752.76658359 361.547697863,1752.76658359 363.363794794,1752.72904025 " moovel_rot="60.5" moovel_centroid="359.594859896,1762.61633752" moovel_centroidlatlon="-73.96796484620077,40.77852685442591"/>
  <polygon id="109971982" class="tile" points="368.533443798,1761.22497704 368.585293065,1793.70255144 376.46338219,1793.80390398 376.807605993,1829.55318975 368.638858746,1829.63109458 368.882433503,1872.34370266 426.322809494,1871.71875057 426.38932884,1752.31917981 377.47202983,1753.11945738 368.533443798,1761.22497704 " moovel_rot="40.1" moovel_centroid="398.746017361,1812.67547719" moovel_centroidlatlon="-73.88390701766228,40.62866685604173"/>
  <polygon id="261779549" class="tile" points="427.38932884,1787.13830149 427.536284311,1752.32190837 443.974004752,1752.31917981 444.027147037,1787.20914626 427.38932884,1787.13830149 " moovel_rot="-60.8" moovel_centroid="435.734536814,1769.78229923" moovel_centroidlatlon="-73.79164631388011,40.69408467614781"/>
  <polygon id="185021232" class="tile" points="493.228220117,1819.55957012 445.027147037,1820.22023061 445.035566942,1769.96048103 492.563098232,1752.31917981 493.228220117,1819.55957012 " moovel_rot="-53.8" moovel_centroid="470.124200217,1790.35214384" moovel_centroidlatlon="-74.08427882070026,40.5743913790694"/>
  <polygon id="277201237" class="tile" points="509.577946237,1752.39400177 509.281230373,1820.19829285 501.884229209,1821.55980927 494.274347815,1821.4199498 494.272813157,1817.52650875 494.23540929,1756.58837242 494.228220117,1752.31917981 509.577946237,1752.39400177 " moovel_rot="-11.1" moovel_centroid="501.817734118,1786.64389158" moovel_centroidlatlon="-73.9030908344954,40.909438219309656"/>
  <polygon id="326405377" class="tile" points="522.548716372,1765.99090556 522.552498591,1752.31917981 514.85204009,1752.86934914 515.021010946,1756.85754638 512.162413367,1756.80101461 512.487394779,1760.48436247 510.577946237,1760.63008747 512.665682853,1783.60016592 516.152406105,1783.64251546 515.410845626,1766.04631202 518.981342944,1765.97582115 522.548716372,1765.99090556 " moovel_rot="-57.0" moovel_centroid="516.186308402,1764.85246878" moovel_centroidlatlon="-73.88563018617451,40.86385299831064"/>
  <polygon id="292846304" class="tile" points="528.077076517,1799.67726054 553.862176923,1799.75676482 553.841032512,1776.41721994 560.026185625,1776.41323826 560.001246444,1752.51400205 526.393503024,1752.31917981 526.358269155,1771.50721017 523.560320438,1771.49701151 523.552498591,1778.06136605 528.112851208,1778.07163497 528.077076517,1799.67726054 " moovel_rot="-28.9" moovel_centroid="541.983996768,1774.51343217" moovel_centroidlatlon="-73.99113333968698,40.74094133386998"/>
  <polygon id="201149343" class="tile" points="574.405718039,1752.31917981 561.026185625,1767.40829144 567.52129117,1778.39016567 574.431614379,1790.05212392 574.405718039,1752.31917981 " moovel_rot="-19.8" moovel_centroid="569.953858275,1769.92898468" moovel_centroidlatlon="-73.83899462155414,40.65700907619828"/>
  <polygon id="225367724" class="tile" points="30.3404069502,1872.36628844 0.0,1872.34370266 0.0260792562738,1903.37541141 30.3578403432,1903.39981915 30.3532087376,1886.98459179 30.3404069502,1872.36628844 " moovel_rot="78.1" moovel_centroid="15.182377581160615,1887.87054668" moovel_centroidlatlon="-73.89463455707575,40.902178391172384"/>
  <polygon id="448157974" class="tile" points="98.4506747041,1872.52100019 32.3578403432,1872.34370266 32.3914000737,1925.96722011 56.9871108208,1926.03302455 57.0048571253,1954.97427155 98.5016733171,1955.08594644 98.4506747041,1872.52100019 " moovel_rot="59.4" moovel_centroid="68.5399733077,1909.70088618" moovel_centroidlatlon="-73.77765312332966,40.65926316912122"/>
  <polygon id="288606240" class="tile" points="99.5016733171,1985.10781598 99.9519097064,1872.34370266 105.904427508,1873.13481583 105.92248922,1985.97883077 99.5016733171,1985.10781598 " moovel_rot="-77.9" moovel_centroid="102.818839438,1929.85290733" moovel_centroidlatlon="-73.88815409713777,40.80619766722137"/>
  <polygon id="252392180" class="tile" points="131.326723116,1909.0086956 131.094080637,1888.25896023 131.188216718,1880.20325144 131.283930561,1872.60357273 107.116636726,1872.34370266 106.967837913,1897.99896325 106.92248922,1906.96191572 131.326723116,1909.0086956 " moovel_rot="-79.1" moovel_centroid="119.209123098,1890.26549919" moovel_centroidlatlon="-73.73367494756842,40.71721112523659"/>
  <polygon id="220953324" class="tile" points="132.326723116,1884.76056705 136.896071308,1887.39999244 137.891427381,1879.6857701 136.691509785,1872.34370266 132.328441839,1875.52756423 133.877516001,1879.52311141 132.326723116,1884.76056705 " moovel_rot="-80.9" moovel_centroid="135.346362094,1880.01179292" moovel_centroidlatlon="-73.91271154629382,40.779606313892586"/>
  <polygon id="59389843" class="tile" points="203.241413012,1966.66929776 212.890062295,1958.99638592 213.902296545,1895.41065106 205.587309553,1894.57363948 203.86023158,1884.19090681 139.023142443,1872.34370266 138.891427381,1888.20049872 138.899146824,1970.1879721 149.124749774,1969.62656726 203.241413012,1966.66929776 " moovel_rot="-64.2" moovel_centroid="174.268918455,1923.71713985" moovel_centroidlatlon="-74.19004111855755,40.51758264427716"/>
  <polygon id="386904213" class="tile" points="216.810046936,1872.34370266 214.902296545,1907.64933778 228.217744029,1908.67490958 228.204208284,1895.31301511 216.810046936,1872.34370266 " moovel_rot="60.2" moovel_centroid="221.056309497,1895.22140577" moovel_centroidlatlon="-73.99291357524395,40.72866087128777"/>
  <polygon id="160062194" class="tile" points="230.286525093,1873.57298531 252.721737806,1872.34370266 252.864123547,1896.53868779 253.033759412,1924.89207937 265.998256398,1925.511086 265.987979457,1938.21470398 242.345325001,1938.60284614 229.217744029,1930.38576072 230.286525093,1873.57298531 " moovel_rot="23.5" moovel_centroid="243.460581415,1907.80008463" moovel_centroidlatlon="-73.85048638082074,40.74726111056693"/>
  <polygon id="412123951" class="tile" points="267.012142196,1872.55869918 295.71403601,1872.34370266 296.104750511,1902.67166484 266.998256398,1902.86999458 267.012142196,1872.55869918 " moovel_rot="29.4" moovel_centroid="281.459069805,1887.64636137" moovel_centroidlatlon="-73.8753457671184,40.65272568373542"/>
  <polygon id="277653273" class="tile" points="297.113053489,1873.00271868 314.731603988,1872.34370266 315.428193597,1908.13214013 297.104750511,1908.55986285 297.113053489,1873.00271868 " moovel_rot="-32.1" moovel_centroid="306.106122996,1890.6254847" moovel_centroidlatlon="-74.00477474826873,40.71382668567589"/>
  <polygon id="412123957" class="tile" points="316.455088152,1872.34370266 344.971526268,1872.4664869 344.948919494,1902.2791402 316.428193597,1902.16393459 316.455088152,1872.34370266 " moovel_rot="29.5" moovel_centroid="330.700326082,1887.31368659" moovel_centroidlatlon="-73.87373050519948,40.653419217870805"/>
  <polygon id="224291351" class="tile" points="345.976981755,1904.55307003 345.971526268,1872.34625048 352.007508797,1872.34370266 352.010448175,1893.89305501 352.012961498,1904.55052198 345.976981755,1904.55307003 " moovel_rot="-85.2" moovel_centroid="348.992067315,1888.4482785" moovel_centroidlatlon="-73.93695574863222,40.63681190211677"/>
  <polygon id="377970597" class="tile" points="353.709370485,1954.88080354 371.12824298,1953.89525233 369.670655101,1940.19844148 402.854173299,1939.71631376 402.854858851,1872.34370266 353.012961498,1879.31291289 353.709370485,1954.88080354 " moovel_rot="-9.8" moovel_centroid="377.332618366,1910.59097" moovel_centroidlatlon="-73.91940590905914,40.75125593818114"/>
  <polygon id="181203277" class="tile" points="403.859559552,1942.62720596 419.273365358,1942.63230767 419.26866575,1872.34879017 411.638346367,1872.35213927 403.854858851,1872.34370266 403.859559552,1942.62720596 " moovel_rot="4.4" moovel_centroid="411.56411167,1907.48946807" moovel_centroidlatlon="-73.77999094832957,40.7822875333548"/>
  <polygon id="283161987" class="tile" points="420.300360197,1936.40447325 420.273365358,1872.36056144 462.364795692,1872.34370266 463.181531717,1872.63463281 463.5563492,1872.85650483 464.230260686,1873.40979601 464.513500705,1873.74324798 464.753489975,1874.1044318 465.107563867,1874.90210619 465.265850367,1875.75076853 465.290852753,1936.38582654 420.300360197,1936.40447325 " moovel_rot="26.0" moovel_centroid="442.761347161,1904.40325083" moovel_centroidlatlon="-73.7964594821713,40.707161287819254"/>
  <polygon id="395678165" class="tile" points="466.438064393,1921.45268901 489.717985007,1921.52836456 489.767380544,1872.34370266 466.290852753,1872.51863343 466.3597263,1892.01429336 466.379100867,1901.65987349 466.395334176,1906.89140834 466.41959791,1918.77733047 466.438064393,1921.45268901 " moovel_rot="-29.2" moovel_centroid="478.064361262,1896.92859748" moovel_centroidlatlon="-73.98722972350762,40.733798010602484"/>
  <polygon id="252080545" class="tile" points="519.513043338,1903.21421724 519.535438375,1872.34962369 494.555811934,1872.34370266 494.534333279,1878.81003373 497.994101624,1878.8577954 497.992194242,1878.382283 505.454599839,1878.38185785 505.45027187,1883.59733358 490.771761696,1883.59532049 490.767380544,1892.20540051 495.434320777,1892.21036175 498.007869173,1895.00155871 498.004735685,1903.2166927 519.513043338,1903.21421724 " moovel_rot="-86.0" moovel_centroid="507.440859383,1887.80231328" moovel_centroidlatlon="-73.9346852243364,40.64095920742634"/>
  <polygon id="130008711" class="tile" points="528.024771608,1872.86669691 566.534909449,1872.34370266 569.956725987,1872.98544295 571.786676907,1874.72484944 573.639622141,1877.1831252 574.406641693,1879.48180863 574.683798006,1915.54147598 574.214272086,1918.40335863 571.904138391,1919.35062943 570.114581712,1919.39124015 569.405831307,1943.50671741 573.847785843,1949.65226531 575.433343986,2007.74561735 520.535438375,2008.87737778 520.952934108,1968.1002286 522.30317195,1968.13099794 520.556077618,1899.09216334 528.044650887,1889.64034338 528.024771608,1872.86669691 " moovel_rot="-1.3" moovel_centroid="547.821270354,1942.07660883" moovel_centroidlatlon="-73.80282459353607,40.66004148012139"/>
  <polygon id="446906426" class="tile" points="0.38399615027,2072.86966493 24.0610738579,2073.04430623 24.0179677729,2060.9991984 24.0081710793,2057.48680245 23.9036677547,2031.4703802 24.0449565824,2028.60297875 15.2389169343,2028.50501711 15.2374193083,2026.66970305 44.9508066282,2027.01905222 44.8286881451,2008.87737778 0.0121114533395,2009.15814725 0.22325746268,2040.34447686 0.0,2045.87040226 0.38399615027,2072.86966493 " moovel_rot="30.1" moovel_centroid="16.47939056536586,2036.49928153" moovel_centroidlatlon="-74.07788700645277,40.6422084164037"/>
  <polygon id="201025373" class="tile" points="60.2109549563,2008.89556296 50.8102079984,2008.87924617 46.9619855937,2008.87737778 46.9508066282,2055.98711572 49.0569913082,2055.99599692 77.4511466287,2056.03695093 77.4525391724,2047.9739262 77.4513220385,2042.49100747 52.8988252364,2042.45068615 52.8996746194,2018.42163845 60.2073576279,2018.43158237 60.2109549563,2008.89556296 " moovel_rot="10.8" moovel_centroid="58.0375563908,2038.71528686" moovel_centroidlatlon="-73.84176510544081,40.6644405096509"/>
  <polygon id="443154949" class="tile" points="91.9350694556,2008.87737778 81.2817961011,2023.89472289 78.4525391724,2037.16867435 81.2869031187,2049.96438845 87.6419151703,2062.37156174 107.116054458,2061.27698632 109.729350535,2051.71237067 109.740189108,2016.73494209 103.669005689,2009.13315167 91.9350694556,2008.87737778 " moovel_rot="38.7" moovel_centroid="95.6589718478,2036.26683493" moovel_centroidlatlon="-74.12743319275472,40.55591319015999"/>
  <polygon id="220775542" class="tile" points="110.757800699,2032.65164869 110.740189108,2008.87737778 120.570118899,2009.39266361 120.073104351,2032.46059231 110.757800699,2032.65164869 " moovel_rot="40" moovel_centroid="115.512635111,2020.7387858" moovel_centroidlatlon="-73.93505621263918,40.602058817186865"/>
  <polygon id="442637481" class="tile" points="121.570118899,2032.7989744 139.226182739,2032.79348842 139.237850999,2011.40248962 135.461935816,2011.40420146 135.466777583,2008.87737778 130.042382737,2008.87862452 130.037321807,2014.8158293 121.581559804,2014.81835559 121.570118899,2032.7989744 " moovel_rot="-82.3" moovel_centroid="130.858643253,2022.36403546" moovel_centroidlatlon="-73.90477324455262,40.75404761853545"/>
  <polygon id="185622703" class="tile" points="148.343620869,2026.5725399 148.34828071,2008.87737778 140.242501595,2008.9076154 140.237850999,2026.60278539 143.932296124,2026.58957844 148.343620869,2026.5725399 " moovel_rot="-49.6" moovel_centroid="144.293061251,2017.74022253" moovel_centroidlatlon="-73.93552760166638,40.61932999894911"/>
  <polygon id="166776565" class="tile" points="149.591010769,2009.25010244 175.086255661,2008.87737778 177.676957213,2148.42450025 177.633671956,2151.4612853 177.596472361,2153.02076107 177.091229997,2155.15427664 176.637844091,2156.12215191 150.45238819,2156.39378404 150.064090932,2155.00261522 149.53940721,2151.90294055 149.34828071,2149.66573272 150.219430555,2124.15650746 149.591010769,2009.25010244 " moovel_rot="25.1" moovel_centroid="163.170166234,2083.77213119" moovel_centroidlatlon="-73.81634319629494,40.584897343303936"/>
  <polygon id="450358502" class="tile" points="198.731817447,2008.98447448 193.723396514,2008.87737778 178.676957213,2032.94892315 187.097931411,2037.3888706 178.682661268,2052.25138139 184.349623882,2054.95094224 194.051753698,2039.62611573 199.544545865,2039.56356551 198.731817447,2008.98447448 " moovel_rot="11.5" moovel_centroid="190.576657455,2030.68177397" moovel_centroidlatlon="-73.98657068254452,40.5826178403118"/>
  <polygon id="301013827" class="tile" points="201.773102105,2008.87737778 200.544545865,2008.95202385 205.739075775,2048.8860733 200.548541232,2052.49796798 202.91111152,2059.02502947 213.03142237,2052.70239668 211.757087707,2049.59797842 214.733742109,2048.7220411 210.951356108,2021.83712637 210.272123577,2017.46319621 209.960301666,2015.7265604 209.493574464,2014.52123011 208.579527967,2013.74026604 206.688450277,2012.88794147 204.154693684,2011.59590086 202.880083866,2010.41558489 201.773102105,2008.87737778 " moovel_rot="-91.3" moovel_centroid="207.425158324,2034.7094919" moovel_centroidlatlon="-73.88622207671091,40.76931285165851"/>
  <polygon id="263339341" class="tile" points="215.733742109,2044.93133994 215.767754396,2009.01947708 245.600095908,2008.87737778 245.673039525,2044.78130207 215.733742109,2044.93133994 " moovel_rot="-68.4" moovel_centroid="230.693149448,2026.91308612" moovel_centroidlatlon="-73.86821982699115,40.73413133543321"/>
  <polygon id="220772347" class="tile" points="268.855099466,2081.51288047 289.8633161,2084.42787875 289.940917762,2009.97388533 246.935415763,2008.87737778 246.673039525,2032.49964096 248.49195554,2032.79092857 277.331763614,2037.42391193 268.855099466,2081.51288047 " moovel_rot="-78.2" moovel_centroid="273.993177494,2038.63012848" moovel_centroidlatlon="-73.960116399997,40.59475658168801"/>
  <polygon id="285998680" class="tile" points="290.940917762,2206.26942313 354.293414567,2206.45502593 354.806003032,2181.36784421 349.995065506,2180.27649394 350.66931451,2120.60520597 354.102979126,2097.87951056 354.440731395,2008.87737778 290.984998027,2009.75081903 291.469372421,2111.67604018 290.940917762,2206.26942313 " moovel_rot="-38.1" moovel_centroid="322.107254947,2107.00348106" moovel_centroidlatlon="-74.11097696385569,40.56641782874519"/>
  <polygon id="224659163" class="tile" points="355.806003032,2009.69435119 358.724979673,2009.38818669 373.046586262,2008.87737778 373.038829518,2021.62298887 356.708331282,2028.38307232 355.806003032,2009.69435119 " moovel_rot="5.9" moovel_centroid="364.096033403,2017.16695724" moovel_centroidlatlon="-73.95363713945432,40.595599194651214"/>
  <polygon id="185148203" class="tile" points="384.120403466,2037.60676363 386.693002025,2038.47109761 386.698632092,2011.19479365 378.245042379,2008.87737778 374.046586262,2022.62355643 376.911264613,2027.58764443 374.640963521,2033.71543436 384.120403466,2037.60676363 " moovel_rot="23.2" moovel_centroid="381.310470971,2023.48919667" moovel_centroidlatlon="-73.93949653444916,40.58354788167727"/>
  <polygon id="185193628" class="tile" points="387.734485888,2008.87737778 387.698632092,2081.69827485 402.904516739,2081.62020616 402.944717387,2023.41903168 400.378675924,2023.41037836 400.381519397,2011.14863055 393.285372123,2011.13697829 393.289533266,2008.88547615 387.734485888,2008.87737778 " moovel_rot="4.7" moovel_centroid="395.073859614,2046.83313613" moovel_centroidlatlon="-73.91909182169749,40.62922515880575"/>
  <polygon id="255352373" class="tile" points="403.961585789,2033.00109635 428.02755072,2032.99092798 428.025819345,2021.22752441 427.870773504,2008.87737778 403.944717387,2008.8866052 403.961585789,2033.00109635 " moovel_rot="61.1" moovel_centroid="415.96982349,2020.95084484" moovel_centroidlatlon="-73.98003355967082,40.76325707085062"/>
  <polygon id="245186346" class="tile" points="433.087556476,2075.44232118 433.090708281,2070.33710239 429.02755072,2070.32840772 429.034526762,2013.03853987 433.899781831,2013.05403204 433.896102824,2008.87737778 446.344777691,2008.90110752 446.345437019,2013.26494813 451.000766165,2013.27464145 456.34340044,2013.28629428 456.343004513,2008.88673624 468.750664161,2008.91128496 468.751974154,2013.40938815 472.692086675,2013.42053664 472.681299409,2070.55771674 468.523006621,2070.54806971 468.522609649,2075.50182689 433.087556476,2075.44232118 " moovel_rot="11.2" moovel_centroid="450.869588545,2042.64006063" moovel_centroidlatlon="-73.86184453015684,40.66736750990921"/>
  <polygon id="343290229" class="tile" points="473.739176787,2009.76847175 483.385822677,2008.87737778 483.713754634,2038.99919696 473.692086675,2039.2028261 473.739176787,2009.76847175 " moovel_rot="1.6" moovel_centroid="478.652641294,2024.30467217" moovel_centroidlatlon="-73.88388888795714,40.79449962692026"/>
  <polygon id="266170782" class="tile" points="496.89100617,2033.62872901 499.165768831,2033.62503839 499.166206917,2035.76774145 499.148070203,2057.48744597 488.611805331,2057.47796504 484.713754634,2057.47916144 484.719025886,2049.75568566 484.720057404,2043.27622727 484.724618079,2035.59317897 484.741134558,2008.87737778 490.207178958,2008.88894611 496.910786695,2008.89389109 496.902471515,2017.71057539 496.8988939,2022.41900878 496.89100617,2033.62872901 " moovel_rot="-28.7" moovel_centroid="491.415583141,2034.22208783" moovel_centroidlatlon="-73.9851246726947,40.75654390993568"/>
  <polygon id="298417656" class="tile" points="500.166206917,2024.53362261 524.693579683,2008.87737778 525.257796167,2012.1541004 523.297121402,2012.49212394 520.453383437,2012.98250833 525.273649376,2041.01594115 511.20459435,2044.4813437 506.172971779,2046.45920559 504.527704549,2043.03303524 502.157295282,2038.10315216 504.029347884,2037.2687535 507.956346646,2036.52900249 507.141886195,2032.21019352 505.506164089,2023.52457161 500.166206917,2024.53362261 " moovel_rot="-51.6" moovel_centroid="514.540097563,2030.11313575" moovel_centroidlatlon="-73.92271409271882,40.77104033185823"/>
  <polygon id="219041312" class="tile" points="526.302191042,2030.48779445 531.574626349,2008.87737778 537.464303296,2010.12913195 542.431472682,2011.18173854 553.892878399,2018.82804915 563.985919607,2031.58012463 571.513682824,2035.81269672 585.363766063,2055.12827943 562.705536244,2069.81382307 557.496896127,2073.19177128 554.666582942,2090.74539788 549.239214858,2089.9716524 547.35458124,2103.09307357 552.53951408,2103.92733585 543.752142556,2158.45424987 541.238915244,2160.07906007 526.273649376,2138.07815735 545.245077776,2034.47115944 526.302191042,2030.48779445 " moovel_rot="65.2" moovel_centroid="548.355509704,2074.05635081" moovel_centroidlatlon="-73.97769585560886,40.62654489927221"/>
  <polygon id="292693069" class="tile" points="3.80248257704,2207.23254187 23.8775152154,2206.45502593 22.0355309956,2224.91122469 26.6990470871,2224.96194834 27.123756602,2225.01629733 26.6533035871,2229.04363815 31.6085106701,2229.61963269 31.9259794872,2230.54504386 31.272282654,2242.7895751 31.1520447951,2244.89615116 31.000948156,2246.83300152 30.963334142,2249.0463577 30.5738109134,2254.59590228 0.0378867119551,2254.0108034 0.289326792955,2251.90777315 0.676385048032,2248.68513237 0.956439043209,2246.20755588 1.09690407179,2244.98352369 1.54034908935,2239.7115627 1.95144538209,2234.82208483 1.03974639326,2229.66905197 0.0,2223.8155441 3.2346233502,2223.10658262 3.37683830895,2217.18843992 3.45927502736,2214.142545 3.52555571683,2213.02910178 3.65230815634,2210.6733776 3.80248257704,2207.23254187 " moovel_rot="25.2" moovel_centroid="15.12329274355429,2232.89325203" moovel_centroidlatlon="-74.0052102566425,40.70783458125557"/>
  <polygon id="413778948" class="tile" points="33.9259794872,2284.841049 53.9100124851,2277.58622216 51.439151028,2206.45502593 33.9763926931,2206.92121502 33.9259794872,2284.841049 " moovel_rot="55.9" moovel_centroid="43.196204335,2244.84779678" moovel_centroidlatlon="-74.13548160928406,40.560839379691444"/>
  <polygon id="286087282" class="tile" points="54.9480114397,2338.92096946 73.9577296905,2338.61045009 81.0550023124,2331.18643389 81.6194478108,2328.78760643 79.977498336,2327.79404808 78.2931586633,2328.84247144 77.4696719645,2333.2427337 59.6222370274,2332.8616811 59.8857762169,2327.78621905 54.9100124851,2327.54130559 55.0385491278,2209.75655105 59.7197793536,2209.72350924 59.8761859439,2206.45502593 79.9066829268,2206.79000858 80.2683205985,2210.9575997 82.8931426898,2211.56468885 87.8185397185,2211.46147402 109.415497854,2233.92607019 110.210644441,2235.77722692 109.984266661,2253.47134898 107.883405301,2253.07818346 107.958193749,2258.77853986 110.77490843,2258.39656945 111.30944534,2257.35576844 117.868319377,2257.67412381 117.780381553,2279.49396268 118.787713045,2280.5381043 121.928473874,2277.48056333 133.316256072,2288.59578574 129.049195974,2292.80618945 132.348842829,2295.58058439 67.8139920339,2360.43746339 59.6326150132,2351.68713257 55.2718854731,2352.40401677 54.9480114397,2338.92096946 " moovel_rot="10.6" moovel_centroid="84.0269388957,2278.61725924" moovel_centroidlatlon="-74.0840441442521,40.58399595885774"/>
  <polygon id="246729720" class="tile" points="135.495379339,2206.45502593 179.864056674,2215.00679633 179.045131394,2221.46390812 184.05839453,2222.46377619 176.71413792,2255.77672959 166.484047713,2253.96500233 159.259519142,2288.36656919 134.350443459,2282.60049465 137.336062475,2265.4759372 135.436633064,2265.29877949 136.067742854,2257.0856784 142.181702905,2219.21283851 135.612830883,2217.96776161 134.316256072,2211.84288976 135.495379339,2206.45502593 " moovel_rot="-75.2" moovel_centroid="155.876985806,2244.12254559" moovel_centroidlatlon="-74.1960929953536,40.51769270342445"/>
  <polygon id="278078925" class="tile" points="195.219144761,2249.99359997 185.05839453,2242.37767019 197.445268641,2230.47256283 194.415258292,2227.31335054 185.069949034,2217.59426716 185.935730441,2216.74168164 194.337860071,2208.51047028 196.44161687,2206.45502593 210.206541365,2224.11446389 209.62890022,2224.55978943 214.545581063,2230.8730289 201.708724238,2243.6078392 200.738887139,2244.53424711 199.267459728,2245.9889288 197.732888284,2247.50193172 196.359734336,2248.86491608 195.219144761,2249.99359997 " moovel_rot="2.9" moovel_centroid="198.738663314,2228.5719665" moovel_centroidlatlon="-74.006429099831,40.710419770755784"/>
  <polygon id="261915257" class="tile" points="234.00578347,2206.46807102 229.739751705,2206.46361338 215.545581063,2206.45502593 215.549113301,2299.27533129 220.115477433,2299.64831582 235.9853231,2274.98491161 233.789079704,2273.76019542 233.621410573,2269.82966341 234.00578347,2206.46807102 " moovel_rot="-66.8" moovel_centroid="224.286814239,2249.32098073" moovel_centroidlatlon="-73.8157282319082,40.69885802723226"/>
  <polygon id="298133639" class="tile" points="262.938495148,2206.45502593 262.914236316,2216.94029685 260.414674972,2216.93519919 260.407354558,2219.70701346 262.906915621,2219.71211066 262.883582906,2231.83857536 262.926504357,2236.95426202 256.952833399,2237.13294095 250.451775074,2237.13137979 243.901703934,2237.13943578 237.357314437,2237.14398033 236.9853231,2216.26793571 262.938495148,2206.45502593 " moovel_rot="-31.7" moovel_centroid="250.725475481,2224.10560947" moovel_centroidlatlon="-73.91568663562238,40.76936521165479"/>
  <polygon id="298611921" class="tile" points="263.93899298,2234.15436912 271.163790381,2241.15279246 273.215201349,2241.33121568 273.362462236,2226.61095722 273.365723876,2222.43062421 273.371621698,2221.92392068 273.294250148,2217.56709096 273.251778444,2217.05712418 273.196508109,2213.04996152 273.229721732,2206.45502593 266.169385696,2207.13486057 263.938495148,2207.49146025 263.944631413,2227.32222528 263.93899298,2234.15436912 " moovel_rot="-42.6" moovel_centroid="268.83317548,2222.79755994" moovel_centroidlatlon="-73.91540267093258,40.77134344631208"/>
  <polygon id="377121568" class="tile" points="274.563435218,2230.54767284 287.513323586,2230.67424038 287.543926483,2206.45502593 274.371621698,2206.66234339 274.563435218,2230.54767284 " moovel_rot="-82.3" moovel_centroid="281.013039639,2218.55047065" moovel_centroidlatlon="-73.89167266035236,40.755408533578404"/>
  <polygon id="377121565" class="tile" points="288.559231102,2206.45502593 288.543926483,2231.66613012 311.301970777,2231.18424822 311.325285558,2206.60367096 288.559231102,2206.45502593 " moovel_rot="7.8" moovel_centroid="299.884558903,2218.97684583" moovel_centroidlatlon="-73.89226566353896,40.75541035553182"/>
  <polygon id="220789416" class="tile" points="323.343767712,2206.50547529 319.94516111,2206.52117509 312.339065203,2206.45502593 312.325285558,2229.18896414 319.564782689,2229.22136301 323.336419673,2229.23345777 323.343767712,2206.50547529 " moovel_rot="47.2" moovel_centroid="317.83544578,2217.85543725" moovel_centroidlatlon="-73.91531265035847,40.7832898441733"/>
  <polygon id="373545740" class="tile" points="324.343767712,2208.7242808 343.765031426,2206.45502593 343.755861433,2238.96353859 343.762371841,2242.61930461 326.661787748,2242.80983242 324.873527757,2216.49474953 324.343767712,2208.7242808 " moovel_rot="-60.1" moovel_centroid="334.702350088,2224.76359358" moovel_centroidlatlon="-73.77688526667752,40.79366894695693"/>
  <polygon id="275731241" class="tile" points="374.559219798,2206.45502593 344.765031426,2214.21889145 344.820847836,2291.39255537 374.090748715,2301.60407091 374.685893236,2290.10319326 372.086560399,2280.11749448 368.282061058,2268.3028823 366.576702689,2258.91852141 367.187190846,2249.43663065 370.159258442,2238.98835856 374.290268897,2229.21278558 381.303675776,2219.43599103 375.98957146,2215.78401844 374.559219798,2206.45502593 " moovel_rot="11.4" moovel_centroid="359.161949513,2252.17086514" moovel_centroidlatlon="-73.83931579119047,40.75337562136076"/>
  <polygon id="359005797" class="tile" points="382.303675776,2206.45502593 382.307058383,2243.03046229 407.128991205,2243.18753286 411.419117788,2240.94751125 411.780602666,2206.8731506 382.303675776,2206.45502593 " moovel_rot="-8.3" moovel_centroid="396.87203812,2224.77258636" moovel_centroidlatlon="-73.85963275775478,40.70097930323215"/>
  <polygon id="375468808" class="tile" points="412.855237229,2207.06510054 451.692714619,2206.45502593 451.784542937,2207.88700946 456.086208583,2207.95986515 456.548812373,2254.38052646 466.94310101,2254.79238395 467.181747429,2256.18869474 530.186061,2255.9951285 530.490777853,2316.50149225 526.236019475,2316.47240934 526.494226064,2329.21260818 447.870006783,2330.19880298 418.067918306,2330.35555404 417.990721831,2325.46148762 412.780602666,2325.36544394 412.855237229,2207.06510054 " moovel_rot="-0.2" moovel_centroid="463.927094509,2280.47802519" moovel_centroidlatlon="-73.83127959660202,40.78241190440499"/>
</svg>